<?xml version="1.0" encoding="UTF-8"?>
<!DOCTYPE svg PUBLIC "-//W3C//DTD SVG 1.1//EN" "http://www.w3.org/Graphics/SVG/1.1/DTD/svg11.dtd">
<!-- Creator: CorelDRAW 2021 (64-Bit) -->
<svg xmlns="http://www.w3.org/2000/svg" xml:space="preserve" width="156.633mm" height="19.8966mm" version="1.1" style="shape-rendering:geometricPrecision; text-rendering:geometricPrecision; image-rendering:optimizeQuality; fill-rule:evenodd; clip-rule:evenodd"
viewBox="0 0 15663.32 1989.66"
 xmlns:xlink="http://www.w3.org/1999/xlink"
 xmlns:xodm="http://www.corel.com/coreldraw/odm/2003">
 <defs>
  <style type="text/css">
   <![CDATA[
    .fil4 {fill:#0D2333}
    .fil2 {fill:#21445D}
    .fil1 {fill:#24394A}
    .fil3 {fill:#90A2AD}
    .fil0 {fill:#F7951D}
    .fil5 {fill:#F8951D}
   ]]>
  </style>
 </defs>
 <g id="Layer_x0020_1">
  <metadata id="CorelCorpID_0Corel-Layer"/>
  <path class="fil0" d="M15400.2 1635.29l-2.88 1.13 -524.9 0.77c1.49,4.25 87.4,114.15 97.46,126.41 10.21,12.43 23,29.03 33.23,42.67 33.16,44.23 79.14,102.5 115.35,147.87 3.28,4.12 5.03,6.69 8.25,10.74 3.43,4.32 6.57,6.69 7.29,12.08 5.25,-1.73 28.8,-34.18 33.67,-40.65 5.51,-7.31 10.74,-13.72 16.09,-20.73l106.16 -137.04c2.98,-3.65 5.06,-6.95 8.12,-10.84 1.78,-2.27 2.48,-2.81 4,-4.93 13.8,-19.37 33.47,-43.12 48.42,-63.13 1.84,-2.45 2.51,-2.94 4.49,-5.55l33.13 -42.74c2.21,-2.75 6.78,-8.02 7.66,-11.3 5.54,0.46 3.93,1.43 9.39,8.45l26.91 34.44c1.53,1.8 0.31,0.2 2.02,2.45 1.59,2.07 2.2,3.1 3.75,5.18 16.79,22.71 39.79,50.17 57.68,73.96l6.05 7.33c1.23,1.51 1.36,1.68 2.4,3.18 1.27,1.81 2.07,3.34 3.68,5.25l21.19 26.78c23.06,31.09 50.64,63.95 73.8,94.65 2.98,3.97 5.12,7.08 8.18,10.79l45.44 58.3c2.34,3.22 1.48,3.53 6.13,3.92l0 -339.14c-15.65,-3.65 -105.3,0 -129.41,0 -22.84,0 -118.72,1.17 -132.75,-0.3z"/>
  <path class="fil1" d="M15134.55 1297.57c2.14,5.28 27.45,36.24 32.85,43.19 20.03,25.73 226.01,288.73 229.92,295.66l2.88 -1.13 108.69 -140.92c2.04,-2.6 2.47,-2.73 4.44,-5.58 10.63,-15.36 32.65,-41.56 44.82,-57.82 1.73,-2.31 2.41,-3.73 4.11,-5.93l2.54 -3.04c0.15,-0.17 0.37,-0.42 0.52,-0.6l1.01 -1.22c1.48,-1.87 2.23,-3.1 3.74,-5.17l16.57 -21.36c3.21,-4.02 5.27,-6.13 8.34,-10.63l24.22 -31.56c3.14,-3.85 5.28,-6.71 8.25,-10.71l32.66 -42.07 -3.33 -3.48c-2.66,1.3 -122.85,0.13 -129.41,0.13 -44.38,0 -85.69,1.12 -130.52,1.12l-246.54 0c-2.62,-0.01 -5.25,-0.06 -7.87,-0.07 -1.05,0 -3.41,-0.01 -4.35,0.12 -0.36,0.05 -0.66,0.1 -0.98,0.17 -0.31,0.07 -0.63,0.17 -0.9,0.24l-1.66 0.66z"/>
  <path class="fil2" d="M15134 1976.96c-0.72,-5.39 -3.86,-7.76 -7.29,-12.08 -3.22,-4.05 -4.97,-6.62 -8.25,-10.74 -36.21,-45.37 -82.19,-103.64 -115.35,-147.87 -10.23,-13.64 -23.02,-30.24 -33.23,-42.67 -10.06,-12.26 -95.97,-122.16 -97.46,-126.41l-0.2 -1.6 -65.77 84.52c-20.17,24.4 -44.62,58.47 -65.71,84.89l-73.81 95.78c-3.09,4.18 -5.63,6.46 -8.38,10.58 -3.04,4.55 -5.18,6.16 -8.24,10.71 -2.64,3.92 -5.25,6.75 -8.23,10.74l-28.92 36.9c-2.39,3.09 -2.69,2.32 -2.8,7.25l523.64 0z"/>
  <path class="fil3" d="M14668.86 1548.56l0.2 1.6 524.9 -0.77c-3.91,-6.93 -209.89,-269.93 -229.92,-295.66 -5.4,-6.95 -30.71,-37.91 -32.85,-43.19 -4.19,1.19 -13.96,16.45 -16.75,19.92l-20.26 26.6c-14.75,17.45 -30.53,39.86 -44.75,57.88l-41.45 53.37c-1.67,2.25 -2.29,3.1 -3.91,5.01l-135.21 175.24z"/>
  <path class="fil2" d="M15395.74 280.15c0.13,5.85 8.9,14.02 14.82,21.99l107.55 137.88c3.07,3.78 5.34,6.95 8.3,10.66l127.87 164.42c1.84,2.81 1.64,3.83 5.85,4.19 0,-110.27 0.93,-223.59 0.13,-333.69 -0.06,-9.2 -0.8,-6.56 -24.67,-6.56 -40.85,0 -79.02,1.11 -120.49,1.11l-119.36 0z"/>
  <path class="fil4" d="M15656.78 1295.2l3.33 3.48c3.95,-2.2 2.25,-9.32 2.25,-18.97l0 -321.23 -265.51 0.11c0.4,4.43 0.51,2.87 2.94,5.8l61.14 78.34c5.55,7.37 10.71,13.53 16.1,20.71 5.52,7.39 10.63,14.16 16.54,21.4l130.85 168.11c2.57,3.37 5.21,6.65 7.81,10.04 3.16,4.14 23.75,29.36 24.55,32.21z"/>
  <path class="fil0" d="M15396.85 958.59l265.51 -0.11c0,-15.26 -1.11,-26.38 -1.11,-41.33l0 -211.96c0,-29.55 -1.12,-55.32 -1.12,-84.78 -4.74,1.26 -6.44,5.22 -9.08,8.76l-89.99 116.39c-0.58,0.81 -1.21,1.65 -1.92,2.54l-88.64 114.4c-1.54,2 -2.38,2.72 -4.02,4.91l-7.68 10.17c-0.14,0.18 -0.35,0.43 -0.5,0.62 -1.49,1.9 -2.17,3.13 -3.78,5.14 -3.07,3.82 -5.58,6.71 -8.43,10.54 -2.91,3.91 -5.43,6.7 -8.19,10.77 -2.83,4.2 -5.11,6.75 -8.22,10.74 -1.55,1.98 -2.52,3.43 -3.8,5.12l-16.59 21.35c-2.81,3.59 -11.55,13.14 -12.44,16.73z"/>
  <path class="fil5" d="M15158.12 1125.76c1.35,0.77 1.19,1.12 3.34,1.12 15.78,0 203.45,1.39 216.89,-0.64 18.1,-2.75 87.4,2.81 96.59,-1.59 -1.09,-4.09 -59.48,-77.08 -68.29,-89.01l-86.22 -111.23c-5.11,-5.99 -5.8,-2.92 -14.58,8.84l-138.16 178.65c-2.41,3.1 -9.15,10 -9.57,13.86z"/>
  <path class="fil5" d="M14564.62 1741.57l-156.18 0c0,6.88 0.11,4.08 3.43,7.72l29.27 37.67c2.64,3.11 3.06,3.25 5.45,6.82l114.79 147.37c2.31,3.04 2.35,4.45 7.7,4.57 0.87,-3.26 16.5,-22.91 18.82,-25.81l126.98 -164.19c2.83,-3.43 8.3,-9.96 9.28,-14.15 -4.81,-1.12 -134.22,0 -150.61,0 -3.44,0 -2.51,-0.56 -4.47,-0.56 -1.94,0.01 -1.03,0.56 -4.46,0.56z"/>
  <path class="fil2" d="M15259.64 206.52l281.13 0c8.22,0 -1.5,-8.73 -2.89,-10.5l-8.76 -11.32c-6.23,-8.28 -11.77,-15.02 -17.99,-23.29l-72.23 -92.87c-6.5,-7.96 -11.61,-15.16 -17.97,-23.31 -3.68,-4.7 -16.22,-19.52 -17.38,-23.89 -6.7,0 -5,-1.52 -9.82,4.68 -1.09,1.38 -1.44,1.76 -2.46,3.11 -3.12,4.09 -6.02,7.62 -9.24,11.96 -3.29,4.44 -5.87,7.45 -9.24,11.96 -3.27,4.37 -6.31,7.73 -9.19,12.01 -3.02,4.5 -5.53,6.82 -8.82,11.25 -20,26.88 -44.43,56.34 -64.23,83.04l-27.72 35.86c-1.38,1.85 -11.05,11.31 -3.19,11.31z"/>
  <path class="fil2" d="M15105.68 908.22l184.07 0c-0.39,-4.84 -0.9,-4.29 -3.77,-7.38 -0.16,-0.17 -0.39,-0.39 -0.55,-0.57l-74.88 -95.79c-2.38,-3.33 -2.93,-4.31 -5.83,-7.56 -1.97,-2.21 -4.55,-5.16 -5.33,-8.07 -4.93,0.41 -4.61,1.6 -7.19,5.08l-41.11 52.61c-2.08,2.78 -3.41,5.26 -5.57,7.81l-35.23 45.09c-2.76,3.35 -4.14,3.21 -4.61,8.78z"/>
  <path class="fil0" d="M262.96 1636.26l2.88 1.14 524.01 0.77c-1.49,4.24 -87.25,113.95 -97.29,126.19 -10.2,12.41 -22.96,28.98 -33.17,42.6 -33.11,44.15 -79.02,102.33 -115.16,147.62 -3.27,4.12 -5.03,6.68 -8.24,10.72 -3.42,4.31 -6.56,6.67 -7.27,12.06 -5.25,-1.72 -28.75,-34.13 -33.61,-40.58 -5.51,-7.3 -10.73,-13.7 -16.08,-20.69l-105.97 -136.81c-2.98,-3.64 -5.05,-6.94 -8.11,-10.82 -1.77,-2.27 -2.48,-2.81 -3.99,-4.93 -13.78,-19.33 -33.41,-43.05 -48.34,-63.02 -1.83,-2.45 -2.51,-2.93 -4.48,-5.54l-33.08 -42.67c-2.2,-2.75 -6.77,-8.01 -7.64,-11.28 -5.53,0.46 -3.92,1.43 -9.38,8.44l-26.86 34.38c-1.53,1.79 -0.31,0.2 -2.02,2.44 -1.58,2.07 -2.19,3.1 -3.74,5.18 -16.76,22.66 -39.73,50.08 -57.58,73.83l-6.04 7.32c-1.23,1.5 -1.36,1.67 -2.4,3.17 -1.26,1.81 -2.07,3.34 -3.68,5.24l-21.15 26.74c-23.02,31.04 -50.55,63.84 -73.67,94.49 -2.98,3.96 -5.11,7.07 -8.16,10.77l-45.37 58.2c-2.33,3.21 -1.48,3.52 -6.12,3.91l0 -338.56c15.63,-3.64 105.12,0 129.19,0 22.81,0 118.52,1.17 132.52,-0.31z"/>
  <path class="fil1" d="M528.16 1299.12c-2.13,5.27 -27.4,36.18 -32.79,43.12 -20,25.69 -225.63,288.24 -229.53,295.16l-2.88 -1.14 -108.5 -140.67c-2.03,-2.6 -2.46,-2.73 -4.44,-5.57 -10.61,-15.34 -32.59,-41.5 -44.74,-57.73 -1.73,-2.3 -2.4,-3.72 -4.1,-5.91l-2.54 -3.04c-0.15,-0.17 -0.37,-0.42 -0.51,-0.6l-1.01 -1.21c-1.48,-1.87 -2.23,-3.1 -3.74,-5.17l-16.54 -21.32c-3.2,-4.02 -5.26,-6.12 -8.33,-10.61l-24.17 -31.51c-3.14,-3.85 -5.27,-6.7 -8.24,-10.69l-32.61 -42 3.33 -3.47c2.66,1.3 122.64,0.12 129.19,0.12 44.31,0 85.54,1.13 130.3,1.13l246.13 0c2.61,-0.02 5.23,-0.07 7.85,-0.08 1.05,0 3.4,-0.01 4.34,0.13 0.36,0.04 0.65,0.09 0.98,0.17 0.3,0.06 0.63,0.16 0.89,0.24l1.66 0.65z"/>
  <path class="fil2" d="M595.42 1969.02c0.71,-5.39 3.85,-7.75 7.27,-12.06 3.21,-4.04 4.97,-6.6 8.24,-10.72 36.14,-45.29 82.05,-103.47 115.16,-147.62 10.21,-13.62 22.97,-30.19 33.17,-42.6 10.04,-12.24 95.8,-121.95 97.29,-126.19l0.2 -1.6 65.66 84.38c20.14,24.36 44.54,58.37 65.6,84.74l73.68 95.62c3.09,4.18 5.63,6.45 8.37,10.56 3.03,4.54 5.17,6.15 8.23,10.69 2.63,3.92 5.23,6.74 8.21,10.72l28.87 36.85c2.38,3.08 2.69,2.31 2.79,7.23l-522.74 0z"/>
  <path class="fil3" d="M892.58 1597.92l-0.2 1.6 -524.01 -0.77c3.9,-6.92 209.53,-269.47 229.53,-295.16 5.39,-6.94 30.66,-37.85 32.79,-43.12 4.19,1.18 13.94,16.43 16.72,19.89l20.23 26.55c14.73,17.42 30.49,39.79 44.68,57.78l41.38 53.29c1.67,2.24 2.29,3.08 3.9,4.99l134.98 174.95z"/>
  <path class="fil2" d="M352.85 123.84c-0.13,5.83 -8.89,13.99 -14.8,21.95l-107.36 137.65c-3.07,3.76 -5.34,6.93 -8.3,10.64l-127.64 164.13c-1.84,2.82 -1.64,3.83 -5.85,4.19 0,-110.08 -0.92,-223.21 -0.12,-333.13 0.06,-9.18 0.79,-6.55 24.62,-6.55 40.78,0 78.89,1.12 120.29,1.12l119.16 0z"/>
  <path class="fil4" d="M6.82 1296.76l-3.33 3.47c-3.94,-2.19 -2.24,-9.31 -2.24,-18.94l0 -320.68 265.06 0.1c-0.4,4.43 -0.51,2.87 -2.94,5.8l-61.03 78.2c-5.54,7.36 -10.7,13.51 -16.07,20.68 -5.51,7.38 -10.61,14.14 -16.51,21.36l-130.64 167.83c-2.56,3.36 -5.19,6.63 -7.79,10.02 -3.16,4.13 -23.71,29.31 -24.51,32.16z"/>
  <path class="fil0" d="M266.31 960.71l-265.06 -0.1c0,-15.23 1.11,-26.34 1.11,-41.27l0 -211.6c0,-29.49 1.11,-55.22 1.11,-84.64 4.74,1.26 6.44,5.22 9.07,8.76l89.84 116.19c0.57,0.81 1.2,1.65 1.92,2.53l88.49 114.21c1.53,1.99 2.37,2.72 4.01,4.9l7.66 10.15c0.15,0.18 0.36,0.43 0.51,0.62 1.49,1.9 2.16,3.13 3.76,5.14 3.07,3.8 5.58,6.69 8.42,10.51 2.91,3.91 5.42,6.69 8.18,10.76 2.82,4.19 5.1,6.73 8.21,10.72 1.54,1.97 2.51,3.42 3.79,5.11l16.56 21.31c2.81,3.59 11.53,13.12 12.42,16.7z"/>
  <path class="fil5" d="M489.95 1234.26c-1.54,0.86 -1.35,1.26 -3.78,1.26 -17.85,0 -230.03,1.56 -245.24,-0.73 -20.46,-3.1 -98.82,3.19 -109.21,-1.79 1.23,-4.63 67.25,-87.15 77.22,-100.65l97.49 -125.76c5.78,-6.77 6.55,-3.3 16.47,9.99l156.23 202.01c2.72,3.49 10.34,11.3 10.82,15.67z"/>
  <path class="fil5" d="M1159.73 1723.9l155.91 0c0,6.87 -0.11,4.07 -3.42,7.7l-29.22 37.62c-2.63,3.09 -3.05,3.24 -5.44,6.8l-114.6 147.12c-2.3,3.04 -2.34,4.45 -7.68,4.56 -0.88,-3.25 -16.47,-22.87 -18.79,-25.77l-126.77 -163.9c-2.82,-3.43 -8.28,-9.95 -9.26,-14.13 4.8,-1.12 133.99,0 150.35,0 3.44,0 2.51,-0.56 4.47,-0.56 1.94,0.01 1.02,0.56 4.45,0.56z"/>
  <path class="fil2" d="M372.89 608.67l-280.65 0c-8.21,0 1.49,-8.72 2.88,-10.48l8.75 -11.31c6.21,-8.26 11.74,-14.99 17.96,-23.25l72.1 -92.71c6.49,-7.94 11.59,-15.13 17.94,-23.27 3.68,-4.69 16.19,-19.48 17.35,-23.85 6.69,0 4.99,-1.51 9.81,4.67 1.08,1.39 1.44,1.77 2.45,3.11 3.11,4.08 6.01,7.61 9.22,11.94 3.29,4.43 5.87,7.44 9.23,11.94 3.26,4.37 6.3,7.72 9.17,11.99 3.01,4.49 5.52,6.81 8.81,11.23 19.97,26.83 44.35,56.24 64.12,82.9l27.68 35.8c1.37,1.85 11.02,11.29 3.18,11.29z"/>
  <path class="fil2" d="M539.17 1214.7l-294.41 -387.75c11.13,-7.21 10.75,-5.24 22.05,-4.34 0.61,0.05 1.46,0.17 2.1,0.21l327.57 -1.8c11.04,-0.54 14.03,-1.02 25.72,-0.32 7.94,0.47 18.48,1 26.02,-2.2 7,11.07 3.91,12.36 0.49,23.61l-48.37 174.2c-2.72,9.02 -5.94,15.95 -8.04,24.75l-41.45 149.31c-2.87,11.39 -0.35,14.05 -11.68,24.33z"/>
 </g>
</svg>
