<svg xmlns="http://www.w3.org/2000/svg" xmlns:xlink="http://www.w3.org/1999/xlink" width="259.953" height="80" viewBox="0 0 259.953 80"><defs><filter id="Path_17059" width="80" height="80" x="0" y="0" filterUnits="userSpaceOnUse"><feOffset dy="3" input="SourceAlpha"/><feGaussianBlur result="blur" stdDeviation="3"/><feFlood flood-opacity=".161"/><feComposite in2="blur" operator="in"/><feComposite in="SourceGraphic"/></filter></defs><g id="_1" data-name="1" transform="translate(19707 -2791)"><path id="Path_17061" fill="#01355d" d="M9.765-4.028a1.889,1.889,0,0,0-.725-1.59A8.724,8.724,0,0,0,6.424-6.746,12.631,12.631,0,0,1,3.416-8.014a4.014,4.014,0,0,1-2.138-3.5A3.811,3.811,0,0,1,2.82-14.631a6.239,6.239,0,0,1,4-1.225,6.759,6.759,0,0,1,2.911.6,4.778,4.778,0,0,1,2.009,1.713,4.395,4.395,0,0,1,.73,2.465H9.765A2.451,2.451,0,0,0,9-12.993a3.17,3.17,0,0,0-2.2-.693,3.311,3.311,0,0,0-2.068.569A1.9,1.9,0,0,0,4-11.526a1.715,1.715,0,0,0,.795,1.434A9.158,9.158,0,0,0,7.412-8.975,12.057,12.057,0,0,1,10.345-7.74a4.665,4.665,0,0,1,1.622,1.59,4.14,4.14,0,0,1,.516,2.1,3.722,3.722,0,0,1-1.5,3.11A6.5,6.5,0,0,1,6.918.215,7.641,7.641,0,0,1,3.8-.414,5.242,5.242,0,0,1,1.584-2.148a4.323,4.323,0,0,1-.79-2.578H3.513a2.53,2.53,0,0,0,.881,2.063,3.857,3.857,0,0,0,2.524.73A3.352,3.352,0,0,0,9.05-2.508,1.854,1.854,0,0,0,9.765-4.028Zm11.892,2.89A4.048,4.048,0,0,1,18.391.215,3.608,3.608,0,0,1,15.528-.892a4.707,4.707,0,0,1-.972-3.2v-7.53h2.61v7.5q0,2.213,1.837,2.213A2.58,2.58,0,0,0,21.57-3.276v-8.347h2.61V0h-2.46ZM37.039-5.693a6.982,6.982,0,0,1-1.208,4.308,3.937,3.937,0,0,1-3.325,1.6,3.792,3.792,0,0,1-3.18-1.472L29.2,0H26.834V-16.5h2.61v5.994a3.778,3.778,0,0,1,3.04-1.332,3.982,3.982,0,0,1,3.341,1.579,7.1,7.1,0,0,1,1.214,4.415Zm-2.61-.226a4.935,4.935,0,0,0-.666-2.836A2.218,2.218,0,0,0,31.829-9.7a2.424,2.424,0,0,0-2.385,1.482v4.791a2.449,2.449,0,0,0,2.406,1.515,2.2,2.2,0,0,0,1.891-.913,4.782,4.782,0,0,0,.688-2.761Zm7.251-5.7.075,1.214a4.182,4.182,0,0,1,3.352-1.429,3.213,3.213,0,0,1,3.19,1.783,4.122,4.122,0,0,1,3.566-1.783,3.624,3.624,0,0,1,2.863,1.063,4.682,4.682,0,0,1,.961,3.137V0h-2.61V-7.562a2.312,2.312,0,0,0-.483-1.622,2.116,2.116,0,0,0-1.6-.516,2.173,2.173,0,0,0-1.456.478,2.521,2.521,0,0,0-.79,1.251L48.759,0h-2.61V-7.648A1.862,1.862,0,0,0,44.054-9.7,2.3,2.3,0,0,0,41.83-8.422V0H39.22V-11.623ZM61.145,0h-2.61V-11.623h2.61ZM58.373-14.642a1.385,1.385,0,0,1,.381-1,1.44,1.44,0,0,1,1.09-.4,1.459,1.459,0,0,1,1.1.4,1.375,1.375,0,0,1,.387,1,1.343,1.343,0,0,1-.387.983,1.47,1.47,0,0,1-1.1.392,1.452,1.452,0,0,1-1.09-.392A1.353,1.353,0,0,1,58.373-14.642Zm8.884.193v2.825h2.052v1.934H67.257V-3.2a1.429,1.429,0,0,0,.263.961,1.22,1.22,0,0,0,.94.3,4.021,4.021,0,0,0,.913-.107v2.02a6.429,6.429,0,0,1-1.719.247q-3.008,0-3.008-3.319V-9.689H62.734v-1.934h1.912v-2.825ZM80.846-3.738l2.363-7.885h2.782L81.372,1.762q-1.063,2.933-3.609,2.933A4.654,4.654,0,0,1,76.506,4.5V2.471L77,2.5a2.541,2.541,0,0,0,1.488-.36,2.384,2.384,0,0,0,.79-1.208l.376-1L75.571-11.623h2.814ZM86.84-5.919A6.854,6.854,0,0,1,87.517-9a4.943,4.943,0,0,1,1.9-2.105,5.357,5.357,0,0,1,2.814-.736,5.077,5.077,0,0,1,3.819,1.515,5.957,5.957,0,0,1,1.584,4.018l.011.612a6.915,6.915,0,0,1-.661,3.072A4.883,4.883,0,0,1,95.1-.526a5.4,5.4,0,0,1-2.841.741,5.042,5.042,0,0,1-3.937-1.638A6.274,6.274,0,0,1,86.84-5.79Zm2.61.226a4.683,4.683,0,0,0,.741,2.809,2.41,2.41,0,0,0,2.063,1.015A2.383,2.383,0,0,0,94.311-2.9a5.173,5.173,0,0,0,.736-3.019,4.623,4.623,0,0,0-.757-2.793,2.418,2.418,0,0,0-2.057-1.031A2.4,2.4,0,0,0,90.2-8.728,5.075,5.075,0,0,0,89.45-5.693ZM106.9-1.139A4.048,4.048,0,0,1,103.63.215a3.608,3.608,0,0,1-2.863-1.106,4.707,4.707,0,0,1-.972-3.2v-7.53h2.61v7.5q0,2.213,1.837,2.213a2.58,2.58,0,0,0,2.567-1.364v-8.347h2.61V0h-2.46Zm11.269-8.1a6.459,6.459,0,0,0-1.063-.086,2.394,2.394,0,0,0-2.417,1.375V0h-2.61V-11.623h2.492l.064,1.3a2.941,2.941,0,0,1,2.621-1.515,2.444,2.444,0,0,1,.924.15Zm6.639,3.33a6.868,6.868,0,0,1,1.246-4.329,4.049,4.049,0,0,1,3.373-1.6,3.806,3.806,0,0,1,3.083,1.364l.15-1.149h2.32V4.469h-2.61V-.988A3.9,3.9,0,0,1,129.4.215a4.011,4.011,0,0,1-3.341-1.627A7.191,7.191,0,0,1,124.8-5.908Zm2.61.226a4.85,4.85,0,0,0,.7,2.8,2.243,2.243,0,0,0,1.95,1.015,2.473,2.473,0,0,0,2.3-1.321V-8.476a2.474,2.474,0,0,0-2.277-1.268,2.281,2.281,0,0,0-1.96,1A5.292,5.292,0,0,0,127.413-5.683Zm17.413,4.544A4.048,4.048,0,0,1,141.561.215,3.608,3.608,0,0,1,138.7-.892a4.707,4.707,0,0,1-.972-3.2v-7.53h2.61v7.5q0,2.213,1.837,2.213a2.58,2.58,0,0,0,2.567-1.364v-8.347h2.61V0h-2.46Zm10.3,1.354A5.4,5.4,0,0,1,151.1-1.348a5.67,5.67,0,0,1-1.542-4.163v-.322a6.974,6.974,0,0,1,.671-3.11,5.11,5.11,0,0,1,1.885-2.132,4.984,4.984,0,0,1,2.707-.763,4.562,4.562,0,0,1,3.668,1.515,6.4,6.4,0,0,1,1.294,4.286v1.053H152.2a3.491,3.491,0,0,0,.961,2.277,2.886,2.886,0,0,0,2.122.838,3.535,3.535,0,0,0,2.922-1.45l1.407,1.343A4.7,4.7,0,0,1,157.744-.36,5.835,5.835,0,0,1,155.128.215Zm-.312-9.958a2.2,2.2,0,0,0-1.735.752,3.9,3.9,0,0,0-.843,2.095h4.974V-7.09a3.173,3.173,0,0,0-.7-1.982A2.181,2.181,0,0,0,154.816-9.743Zm13.084.5a6.459,6.459,0,0,0-1.063-.086,2.394,2.394,0,0,0-2.417,1.375V0h-2.61V-11.623H164.3l.064,1.3a2.941,2.941,0,0,1,2.621-1.515,2.444,2.444,0,0,1,.924.15Zm5.908,5.5,2.363-7.885h2.782L174.335,1.762q-1.063,2.933-3.609,2.933a4.654,4.654,0,0,1-1.257-.194V2.471l.494.032a2.541,2.541,0,0,0,1.488-.36,2.384,2.384,0,0,0,.79-1.208l.376-1-4.082-11.561h2.814Z" data-name="Path 17061" transform="translate(-19626 2853)"/><g id="Group_2994" data-name="Group 2994" transform="translate(-13 -13)"><g filter="url(#Path_17059)" transform="matrix(1, 0, 0, 1, -19694, 2804)"><path id="Path_17059-2" fill="#fff" d="M31,0A31,31,0,1,1,0,31,31,31,0,0,1,31,0Z" data-name="Path 17059" transform="translate(9 6)"/></g><g id="Path_15947" fill="#01355d" data-name="Path 15947"><path stroke="none" d="M 21.48996353149414 28.55305480957031 C 21.27807426452637 28.55305480957031 21.07254409790039 28.5088062286377 20.87906265258789 28.4215259552002 C 20.34384346008301 28.181396484375 19.99812316894531 27.64755630493164 19.99812316894531 27.0613956451416 L 19.99812316894531 22.2863655090332 L 19.99812316894531 22.18636512756348 L 19.89812278747559 22.18636512756348 L 15.918212890625 22.18636512756348 C 15.09569358825684 22.18636512756348 14.42653369903564 21.51655578613281 14.42653369903564 20.69325637817383 L 14.42653369903564 1.591675639152527 C 14.42653369903564 0.7691556811332703 15.09569358825684 0.0999956876039505 15.918212890625 0.0999956876039505 L 41.38793182373047 0.0999956876039505 C 42.21044158935547 0.0999956876039505 42.87960433959961 0.7691556811332703 42.87960433959961 1.591675639152527 L 42.87960433959961 20.69325637817383 C 42.87960433959961 21.51655578613281 42.21044158935547 22.18636512756348 41.38793182373047 22.18636512756348 L 29.25765419006348 22.18636512756348 L 29.21963310241699 22.18636512756348 L 29.19122314453125 22.21161651611328 L 22.48067283630371 28.17574501037598 C 22.20725250244141 28.41907501220703 21.85542297363281 28.55305480957031 21.48996353149414 28.55305480957031 Z M 17.40989303588867 3.083355665206909 L 17.40989303588867 3.183355569839478 L 17.40989303588867 19.10157585144043 L 17.40989303588867 19.20157623291016 L 17.5098934173584 19.20157623291016 L 21.48980331420898 19.20157623291016 C 22.31232261657715 19.20157623291016 22.98148345947266 19.87073516845703 22.98148345947266 20.69325637817383 L 22.98148345947266 23.51700592041016 L 22.98148345947266 23.73969650268555 L 23.14792251586914 23.59174537658691 L 27.66221237182617 19.57888603210449 C 27.93514251708984 19.33553504943848 28.2869930267334 19.20157623291016 28.65307426452637 19.20157623291016 L 39.7962532043457 19.20157623291016 L 39.8962516784668 19.20157623291016 L 39.8962516784668 19.10157585144043 L 39.8962516784668 3.183355569839478 L 39.8962516784668 3.083355665206909 L 39.7962532043457 3.083355665206909 L 17.5098934173584 3.083355665206909 L 17.40989303588867 3.083355665206909 Z M 11.14318370819092 19.0015754699707 L 7.959823131561279 19.0015754699707 C 7.136523246765137 19.0015754699707 6.466713428497314 18.33241653442383 6.466713428497314 17.50989532470703 C 6.466713428497314 16.68737602233887 7.136523246765137 16.01821517944336 7.959823131561279 16.01821517944336 L 11.14318370819092 16.01821517944336 C 11.96569347381592 16.01821517944336 12.63485336303711 16.68737602233887 12.63485336303711 17.50989532470703 C 12.63485336303711 18.33241653442383 11.96569347381592 19.0015754699707 11.14318370819092 19.0015754699707 Z M 28.65307426452637 17.4098949432373 C 27.83055305480957 17.4098949432373 27.1613941192627 16.74073600769043 27.1613941192627 15.91821575164795 C 27.1613941192627 15.09569549560547 27.83055305480957 14.42653560638428 28.65307426452637 14.42653560638428 C 29.47559356689453 14.42653560638428 30.14475250244141 15.09569549560547 30.14475250244141 15.91821575164795 C 30.14475250244141 16.74073600769043 29.47559356689453 17.4098949432373 28.65307426452637 17.4098949432373 Z M 28.65307426452637 12.63485527038574 C 27.83055305480957 12.63485527038574 27.1613941192627 11.96569538116455 27.1613941192627 11.14318561553955 L 27.1613941192627 6.366715908050537 C 27.1613941192627 5.544195652008057 27.83055305480957 4.875035762786865 28.65307426452637 4.875035762786865 C 29.47559356689453 4.875035762786865 30.14475250244141 5.544195652008057 30.14475250244141 6.366715908050537 L 30.14475250244141 11.14318561553955 C 30.14475250244141 11.96569538116455 29.47559356689453 12.63485527038574 28.65307426452637 12.63485527038574 Z M 11.14318370819092 12.63485527038574 L 4.775033473968506 12.63485527038574 C 3.952513217926025 12.63485527038574 3.283353328704834 11.96569538116455 3.283353328704834 11.14318561553955 C 3.283353328704834 10.32066535949707 3.952513217926025 9.651505470275879 4.775033473968506 9.651505470275879 L 11.14318370819092 9.651505470275879 C 11.96569347381592 9.651505470275879 12.63485336303711 10.32066535949707 12.63485336303711 11.14318561553955 C 12.63485336303711 11.96569538116455 11.96569347381592 12.63485527038574 11.14318370819092 12.63485527038574 Z M 11.14318370819092 6.266715526580811 L 1.591683268547058 6.266715526580811 C 0.7691633105278015 6.266715526580811 0.1000033169984818 5.597555637359619 0.1000033169984818 4.775035858154297 C 0.1000033169984818 3.952515602111816 0.7691633105278015 3.283355712890625 1.591683268547058 3.283355712890625 L 11.14318370819092 3.283355712890625 C 11.96569347381592 3.283355712890625 12.63485336303711 3.952515602111816 12.63485336303711 4.775035858154297 C 12.63485336303711 5.597555637359619 11.96569347381592 6.266715526580811 11.14318370819092 6.266715526580811 Z" transform="translate(-19676.775 2828.347)"/><path fill="#fff" stroke="none" d="M 21.48996353149414 28.45305633544922 C 21.83088302612305 28.45305633544922 22.15910339355469 28.32805633544922 22.41424369812012 28.10100555419922 L 29.12479400634766 22.13687515258789 L 29.1816234588623 22.08636474609375 L 29.25765419006348 22.08636474609375 L 41.38793182373047 22.08636474609375 C 42.15530395507813 22.08636474609375 42.77960205078125 21.46141624450684 42.77960205078125 20.69325637817383 L 42.77960205078125 1.591675639152527 C 42.77960205078125 0.8243057131767273 42.15530395507813 0.199995681643486 41.38793182373047 0.199995681643486 L 15.918212890625 0.199995681643486 C 15.15084362030029 0.199995681643486 14.52653312683105 0.8243057131767273 14.52653312683105 1.591675639152527 L 14.52653312683105 20.69325637817383 C 14.52653312683105 21.46141624450684 15.15084362030029 22.08636474609375 15.918212890625 22.08636474609375 L 19.89812278747559 22.08636474609375 L 20.09812355041504 22.08636474609375 L 20.09812355041504 22.2863655090332 L 20.09812355041504 27.0613956451416 C 20.09812355041504 27.60822486877441 20.42065238952637 28.10625648498535 20.9201831817627 28.33036613464355 C 21.10065269470215 28.41177558898926 21.2923526763916 28.45305633544922 21.48996353149414 28.45305633544922 M 17.30989265441895 2.983355760574341 L 17.5098934173584 2.983355760574341 L 39.7962532043457 2.983355760574341 L 39.99625396728516 2.983355760574341 L 39.99625396728516 3.183355569839478 L 39.99625396728516 19.10157585144043 L 39.99625396728516 19.30157661437988 L 39.7962532043457 19.30157661437988 L 28.65307426452637 19.30157661437988 C 28.31156349182129 19.30157661437988 27.98334312438965 19.42653656005859 27.72865295410156 19.65362548828125 L 23.21436309814453 23.66648483276367 L 22.88148307800293 23.9623851776123 L 22.88148307800293 23.51700592041016 L 22.88148307800293 20.69325637817383 C 22.88148307800293 19.9258861541748 22.25717353820801 19.30157661437988 21.48980331420898 19.30157661437988 L 17.5098934173584 19.30157661437988 L 17.30989265441895 19.30157661437988 L 17.30989265441895 19.10157585144043 L 17.30989265441895 3.183355569839478 L 17.30989265441895 2.983355760574341 M 11.14318370819092 18.90157508850098 C 11.91055297851563 18.90157508850098 12.53485298156738 18.27726554870605 12.53485298156738 17.50989532470703 C 12.53485298156738 16.74252510070801 11.91055297851563 16.11821556091309 11.14318370819092 16.11821556091309 L 7.959823131561279 16.11821556091309 C 7.191663265228271 16.11821556091309 6.566713333129883 16.74252510070801 6.566713333129883 17.50989532470703 C 6.566713333129883 18.27726554870605 7.191663265228271 18.90157508850098 7.959823131561279 18.90157508850098 L 11.14318370819092 18.90157508850098 M 28.65307426452637 17.30989646911621 C 29.42044258117676 17.30989646911621 30.04475402832031 16.68558502197266 30.04475402832031 15.91821575164795 C 30.04475402832031 15.15084552764893 29.42044258117676 14.526535987854 28.65307426452637 14.526535987854 C 27.88570404052734 14.526535987854 27.26139259338379 15.15084552764893 27.26139259338379 15.91821575164795 C 27.26139259338379 16.68558502197266 27.88570404052734 17.30989646911621 28.65307426452637 17.30989646911621 M 28.65307426452637 12.53485584259033 C 29.42044258117676 12.53485584259033 30.04475402832031 11.91055583953857 30.04475402832031 11.14318561553955 L 30.04475402832031 6.366715908050537 C 30.04475402832031 5.599345684051514 29.42044258117676 4.975035667419434 28.65307426452637 4.975035667419434 C 27.88570404052734 4.975035667419434 27.26139259338379 5.599345684051514 27.26139259338379 6.366715908050537 L 27.26139259338379 11.14318561553955 C 27.26139259338379 11.91055583953857 27.88570404052734 12.53485584259033 28.65307426452637 12.53485584259033 M 11.14318370819092 12.53485584259033 C 11.91055297851563 12.53485584259033 12.53485298156738 11.91055583953857 12.53485298156738 11.14318561553955 C 12.53485298156738 10.37581539154053 11.91055297851563 9.751505851745605 11.14318370819092 9.751505851745605 L 4.775033473968506 9.751505851745605 C 4.007663249969482 9.751505851745605 3.383353233337402 10.37581539154053 3.383353233337402 11.14318561553955 C 3.383353233337402 11.91055583953857 4.007663249969482 12.53485584259033 4.775033473968506 12.53485584259033 L 11.14318370819092 12.53485584259033 M 11.14318370819092 6.166715621948242 C 11.91055297851563 6.166715621948242 12.53485298156738 5.542405605316162 12.53485298156738 4.775035858154297 C 12.53485298156738 4.007665634155273 11.91055297851563 3.383355617523193 11.14318370819092 3.383355617523193 L 1.591683268547058 3.383355617523193 C 0.8243133425712585 3.383355617523193 0.2000033110380173 4.007665634155273 0.2000033110380173 4.775035858154297 C 0.2000033110380173 5.542405605316162 0.8243133425712585 6.166715621948242 1.591683268547058 6.166715621948242 L 11.14318370819092 6.166715621948242 M 21.48996353149414 28.65305519104004 C 21.26931381225586 28.65305519104004 21.0471134185791 28.60703659057617 20.83794403076172 28.51267623901367 C 20.26632308959961 28.2562255859375 19.89812278747559 27.68746566772461 19.89812278747559 27.0613956451416 L 19.89812278747559 22.2863655090332 L 15.918212890625 22.2863655090332 C 15.03856372833252 22.2863655090332 14.32653331756592 21.57289505004883 14.32653331756592 20.69325637817383 L 14.32653331756592 1.591675639152527 C 14.32653331756592 0.7120257019996643 15.03856372833252 -4.311828433856135e-06 15.918212890625 -4.311828433856135e-06 L 41.38793182373047 -4.311828433856135e-06 C 42.26758193969727 -4.311828433856135e-06 42.9796028137207 0.7120257019996643 42.9796028137207 1.591675639152527 L 42.9796028137207 20.69325637817383 C 42.9796028137207 21.57289505004883 42.26758193969727 22.2863655090332 41.38793182373047 22.2863655090332 L 29.25765419006348 22.2863655090332 L 22.54710388183594 28.25049591064453 C 22.25004386901855 28.51485633850098 21.87234306335449 28.65305519104004 21.48996353149414 28.65305519104004 Z M 17.5098934173584 3.183355569839478 L 17.5098934173584 19.10157585144043 L 21.48980331420898 19.10157585144043 C 22.36945343017578 19.10157585144043 23.08148384094238 19.81503486633301 23.08148384094238 20.69325637817383 L 23.08148384094238 23.51700592041016 L 27.59577369689941 19.50414657592773 C 27.8866024017334 19.24483489990234 28.26339340209961 19.10157585144043 28.65307426452637 19.10157585144043 L 39.7962532043457 19.10157585144043 L 39.7962532043457 3.183355569839478 L 17.5098934173584 3.183355569839478 Z M 11.14318370819092 19.10157585144043 L 7.959823131561279 19.10157585144043 C 7.078743457794189 19.10157585144043 6.366713523864746 18.38954544067383 6.366713523864746 17.50989532470703 C 6.366713523864746 16.63167572021484 7.078743457794189 15.91821575164795 7.959823131561279 15.91821575164795 L 11.14318370819092 15.91821575164795 C 12.0228328704834 15.91821575164795 12.73485374450684 16.63167572021484 12.73485374450684 17.50989532470703 C 12.73485374450684 18.38954544067383 12.0228328704834 19.10157585144043 11.14318370819092 19.10157585144043 Z M 28.65307426452637 17.50989532470703 C 27.77342414855957 17.50989532470703 27.06139373779297 16.79786491394043 27.06139373779297 15.91821575164795 C 27.06139373779297 15.03856563568115 27.77342414855957 14.32653522491455 28.65307426452637 14.32653522491455 C 29.53272247314453 14.32653522491455 30.24475288391113 15.03856563568115 30.24475288391113 15.91821575164795 C 30.24475288391113 16.79786491394043 29.53272247314453 17.50989532470703 28.65307426452637 17.50989532470703 Z M 28.65307426452637 12.73485565185547 C 27.77342414855957 12.73485565185547 27.06139373779297 12.02139568328857 27.06139373779297 11.14318561553955 L 27.06139373779297 6.366715908050537 C 27.06139373779297 5.488495826721191 27.77342414855957 4.775035858154297 28.65307426452637 4.775035858154297 C 29.53272247314453 4.775035858154297 30.24475288391113 5.488495826721191 30.24475288391113 6.366715908050537 L 30.24475288391113 11.14318561553955 C 30.24475288391113 12.02139568328857 29.53272247314453 12.73485565185547 28.65307426452637 12.73485565185547 Z M 11.14318370819092 12.73485565185547 L 4.775033473968506 12.73485565185547 C 3.895383358001709 12.73485565185547 3.183353424072266 12.02139568328857 3.183353424072266 11.14318561553955 C 3.183353424072266 10.26353549957275 3.895383358001709 9.551506042480469 4.775033473968506 9.551506042480469 L 11.14318370819092 9.551506042480469 C 12.0228328704834 9.551506042480469 12.73485374450684 10.26353549957275 12.73485374450684 11.14318561553955 C 12.73485374450684 12.02139568328857 12.0228328704834 12.73485565185547 11.14318370819092 12.73485565185547 Z M 11.14318370819092 6.366715908050537 L 1.591683268547058 6.366715908050537 C 0.7120333313941956 6.366715908050537 3.314208925075945e-06 5.654685497283936 3.314208925075945e-06 4.775035858154297 C 3.314208925075945e-06 3.896815776824951 0.7120333313941956 3.183355569839478 1.591683268547058 3.183355569839478 L 11.14318370819092 3.183355569839478 C 12.0228328704834 3.183355569839478 12.73485374450684 3.896815776824951 12.73485374450684 4.775035858154297 C 12.73485374450684 5.654685497283936 12.0228328704834 6.366715908050537 11.14318370819092 6.366715908050537 Z" transform="translate(-19676.775 2828.347)"/></g></g><path id="Path_17060" fill="#f8951d" d="M11.1-4.578a2.146,2.146,0,0,0-.824-1.807A9.914,9.914,0,0,0,7.3-7.666a14.353,14.353,0,0,1-3.418-1.44,4.561,4.561,0,0,1-2.429-3.979A4.331,4.331,0,0,1,3.2-16.626a7.09,7.09,0,0,1,4.547-1.392,7.681,7.681,0,0,1,3.308.684,5.43,5.43,0,0,1,2.283,1.947,4.994,4.994,0,0,1,.83,2.8H11.1a2.785,2.785,0,0,0-.873-2.179,3.6,3.6,0,0,0-2.5-.787,3.762,3.762,0,0,0-2.35.647A2.154,2.154,0,0,0,4.541-13.1a1.949,1.949,0,0,0,.9,1.63A10.407,10.407,0,0,0,8.423-10.2a13.7,13.7,0,0,1,3.333,1.4A5.3,5.3,0,0,1,13.6-6.989,4.705,4.705,0,0,1,14.185-4.6a4.23,4.23,0,0,1-1.7,3.534A7.386,7.386,0,0,1,7.861.244,8.682,8.682,0,0,1,4.315-.47,5.957,5.957,0,0,1,1.8-2.441a4.913,4.913,0,0,1-.9-2.93H3.992a2.875,2.875,0,0,0,1,2.344,4.383,4.383,0,0,0,2.869.83,3.809,3.809,0,0,0,2.423-.653A2.107,2.107,0,0,0,11.1-4.578Zm9.229-11.841v3.21h2.332v2.2H20.325v7.373a1.624,1.624,0,0,0,.3,1.093,1.387,1.387,0,0,0,1.068.336,4.57,4.57,0,0,0,1.038-.122V-.037a7.306,7.306,0,0,1-1.953.281q-3.418,0-3.418-3.772v-7.483H15.186v-2.2h2.173v-3.21ZM30.737.244a6.137,6.137,0,0,1-4.572-1.776,6.443,6.443,0,0,1-1.752-4.73v-.366a7.925,7.925,0,0,1,.763-3.534,5.807,5.807,0,0,1,2.142-2.423,5.664,5.664,0,0,1,3.076-.867,5.184,5.184,0,0,1,4.169,1.721A7.278,7.278,0,0,1,36.035-6.86v1.2H27.4A3.966,3.966,0,0,0,28.5-3.076a3.28,3.28,0,0,0,2.411.952,4.017,4.017,0,0,0,3.32-1.648l1.6,1.526A5.34,5.34,0,0,1,33.71-.409,6.631,6.631,0,0,1,30.737.244Zm-.354-11.316a2.5,2.5,0,0,0-1.971.854,4.429,4.429,0,0,0-.958,2.38h5.652v-.22a3.605,3.605,0,0,0-.793-2.252A2.479,2.479,0,0,0,30.383-11.072ZM49.9-6.47a7.864,7.864,0,0,1-1.392,4.889A4.457,4.457,0,0,1,44.775.244,4.487,4.487,0,0,1,41.3-1.184V5.078H38.33V-13.208h2.734l.122,1.343a4.357,4.357,0,0,1,3.552-1.587,4.5,4.5,0,0,1,3.79,1.8,8.074,8.074,0,0,1,1.373,5Zm-2.954-.256a5.509,5.509,0,0,0-.787-3.137,2.56,2.56,0,0,0-2.252-1.16,2.73,2.73,0,0,0-2.612,1.5v5.859a2.755,2.755,0,0,0,2.637,1.538,2.557,2.557,0,0,0,2.216-1.141A6.064,6.064,0,0,0,46.948-6.726Zm23.083-.757A9.693,9.693,0,0,1,68.6-1.7,5.066,5.066,0,0,1,64.233.244a5.133,5.133,0,0,1-4.34-1.9,9.282,9.282,0,0,1-1.5-5.621v-3.076a9.547,9.547,0,0,1,1.434-5.75,5.113,5.113,0,0,1,4.376-1.917,5.141,5.141,0,0,1,4.352,1.868,9.255,9.255,0,0,1,1.471,5.591ZM67.065-10.8a7.52,7.52,0,0,0-.684-3.668,2.333,2.333,0,0,0-2.173-1.166,2.331,2.331,0,0,0-2.136,1.1,6.95,6.95,0,0,0-.72,3.448v4.028a7.715,7.715,0,0,0,.7,3.711,2.337,2.337,0,0,0,2.185,1.221,2.3,2.3,0,0,0,2.112-1.129,7.258,7.258,0,0,0,.72-3.534ZM80.688,0H77.734V-14.279l-4.358,1.486v-2.49l6.934-2.551h.378Z" data-name="Path 17060" transform="translate(-19626 2821)"/></g></svg>