<svg xmlns="http://www.w3.org/2000/svg" xmlns:xlink="http://www.w3.org/1999/xlink" width="1648" height="79.694" viewBox="0 0 1648 79.694"><defs><filter id="Ellipse_2646" width="67" height="67" x="96" y="0" filterUnits="userSpaceOnUse"><feOffset dy="3" input="SourceAlpha"/><feGaussianBlur result="blur" stdDeviation="3"/><feFlood flood-opacity=".161"/><feComposite in2="blur" operator="in"/><feComposite in="SourceGraphic"/></filter><filter id="Ellipse_2649" width="67" height="67" x="1100" y="0" filterUnits="userSpaceOnUse"><feOffset dy="3" input="SourceAlpha"/><feGaussianBlur result="blur-2" stdDeviation="3"/><feFlood flood-opacity=".161"/><feComposite in2="blur-2" operator="in"/><feComposite in="SourceGraphic"/></filter><filter id="Ellipse_2648" width="67" height="67" x="782" y="0" filterUnits="userSpaceOnUse"><feOffset dy="3" input="SourceAlpha"/><feGaussianBlur result="blur-3" stdDeviation="3"/><feFlood flood-opacity=".161"/><feComposite in2="blur-3" operator="in"/><feComposite in="SourceGraphic"/></filter><filter id="Ellipse_2647" width="67" height="67" x="439" y="0" filterUnits="userSpaceOnUse"><feOffset dy="3" input="SourceAlpha"/><feGaussianBlur result="blur-4" stdDeviation="3"/><feFlood flood-opacity=".161"/><feComposite in2="blur-4" operator="in"/><feComposite in="SourceGraphic"/></filter><filter id="Ellipse_2650" width="67" height="67" x="1452" y="0" filterUnits="userSpaceOnUse"><feOffset dy="3" input="SourceAlpha"/><feGaussianBlur result="blur-5" stdDeviation="3"/><feFlood flood-opacity=".161"/><feComposite in2="blur-5" operator="in"/><feComposite in="SourceGraphic"/></filter></defs><g id="conflow1" transform="translate(19790 -3139)"><g id="Path_20260" fill="#fcfcfc" data-name="Path 20260"><path stroke="none" d="M 1644.5 6.25 L 3.5 6.25 C 1.98360002040863 6.25 0.75 5.01639986038208 0.75 3.5 C 0.75 1.98360002040863 1.98360002040863 0.75 3.5 0.75 L 1644.5 0.75 C 1646.016357421875 0.75 1647.25 1.98360002040863 1647.25 3.5 C 1647.25 5.01639986038208 1646.016357421875 6.25 1644.5 6.25 Z" transform="translate(-19790 3166)"/><path fill="#f8951d" stroke="none" d="M 3.5 1.5 C 2.397216796875 1.5 1.5 2.397200107574463 1.5 3.5 C 1.5 4.602799892425537 2.397216796875 5.5 3.5 5.5 L 1644.5 5.5 C 1645.602783203125 5.5 1646.5 4.602799892425537 1646.5 3.5 C 1646.5 2.397200107574463 1645.602783203125 1.5 1644.5 1.5 L 3.5 1.5 M 3.5 0 L 1644.5 0 C 1646.432983398438 0 1648 1.566999912261963 1648 3.5 C 1648 5.433000087738037 1646.432983398438 7 1644.5 7 L 3.5 7 C 1.5670166015625 7 0 5.433000087738037 0 3.5 C 0 1.566999912261963 1.5670166015625 0 3.5 0 Z" transform="translate(-19790 3166)"/></g><path id="Path_20261" fill="#01355d" d="M-115.446-2.03A5.2,5.2,0,0,1-117.8-.354a9.6,9.6,0,0,1-3.416.569,6.731,6.731,0,0,1-3.48-.892,5.939,5.939,0,0,1-2.336-2.551,8.926,8.926,0,0,1-.854-3.873V-8.325a8.278,8.278,0,0,1,1.7-5.538,5.886,5.886,0,0,1,4.737-1.993,6.228,6.228,0,0,1,4.146,1.294,5.578,5.578,0,0,1,1.848,3.722h-2.664a3,3,0,0,0-3.276-2.825,3.212,3.212,0,0,0-2.777,1.315,6.7,6.7,0,0,0-.983,3.858v1.2a6.361,6.361,0,0,0,1.069,3.933,3.526,3.526,0,0,0,2.97,1.4,3.916,3.916,0,0,0,2.965-.945V-5.962h-3.223V-8.024h5.93Zm7.853,2.245a5.4,5.4,0,0,1-4.023-1.563,5.67,5.67,0,0,1-1.542-4.163v-.322a6.974,6.974,0,0,1,.671-3.11,5.11,5.11,0,0,1,1.885-2.132,4.984,4.984,0,0,1,2.707-.763,4.562,4.562,0,0,1,3.668,1.515,6.4,6.4,0,0,1,1.294,4.286v1.053h-7.595a3.491,3.491,0,0,0,.961,2.277,2.886,2.886,0,0,0,2.122.838,3.535,3.535,0,0,0,2.922-1.45l1.407,1.343A4.7,4.7,0,0,1-104.978-.36,5.835,5.835,0,0,1-107.594.215Zm-.312-9.958a2.2,2.2,0,0,0-1.735.752,3.9,3.9,0,0,0-.843,2.095h4.974V-7.09a3.173,3.173,0,0,0-.7-1.982A2.181,2.181,0,0,0-107.905-9.743Zm10.27-4.705v2.825h2.052v1.934h-2.052V-3.2a1.429,1.429,0,0,0,.263.961,1.22,1.22,0,0,0,.94.3,4.021,4.021,0,0,0,.913-.107v2.02a6.429,6.429,0,0,1-1.719.247q-3.008,0-3.008-3.319V-9.689h-1.912v-1.934h1.912v-2.825Zm14.3,12.579a2.36,2.36,0,0,0,1.622-.569,1.945,1.945,0,0,0,.688-1.407h2.46a3.834,3.834,0,0,1-.677,2.025A4.439,4.439,0,0,1-80.964-.333a5.122,5.122,0,0,1-2.342.548,4.956,4.956,0,0,1-3.867-1.579A6.263,6.263,0,0,1-88.6-5.726v-.269a6.159,6.159,0,0,1,1.418-4.249,4.911,4.911,0,0,1,3.867-1.6,4.775,4.775,0,0,1,3.378,1.208,4.329,4.329,0,0,1,1.37,3.174h-2.46A2.39,2.39,0,0,0-81.71-9.1a2.195,2.195,0,0,0-1.627-.645,2.3,2.3,0,0,0-1.955.918,4.687,4.687,0,0,0-.7,2.788v.419a4.764,4.764,0,0,0,.682,2.82A2.3,2.3,0,0,0-83.338-1.869Zm6.252-4.05A6.854,6.854,0,0,1-76.409-9a4.943,4.943,0,0,1,1.9-2.105,5.357,5.357,0,0,1,2.814-.736,5.077,5.077,0,0,1,3.819,1.515A5.957,5.957,0,0,1-66.29-6.306l.011.612a6.915,6.915,0,0,1-.661,3.072A4.883,4.883,0,0,1-68.831-.526a5.4,5.4,0,0,1-2.841.741,5.042,5.042,0,0,1-3.937-1.638A6.274,6.274,0,0,1-77.086-5.79Zm2.61.226a4.683,4.683,0,0,0,.741,2.809,2.41,2.41,0,0,0,2.063,1.015A2.383,2.383,0,0,0-69.615-2.9a5.173,5.173,0,0,0,.736-3.019,4.623,4.623,0,0,0-.757-2.793,2.418,2.418,0,0,0-2.057-1.031,2.4,2.4,0,0,0-2.03,1.015A5.075,5.075,0,0,0-74.476-5.693Zm12.826-5.93.075,1.343a4.179,4.179,0,0,1,3.384-1.558q3.631,0,3.7,4.157V0h-2.61V-7.53a2.394,2.394,0,0,0-.478-1.638A2.011,2.011,0,0,0-59.146-9.7,2.515,2.515,0,0,0-61.5-8.271V0h-2.61V-11.623Zm12.235,0,.075,1.343a4.179,4.179,0,0,1,3.384-1.558q3.631,0,3.7,4.157V0h-2.61V-7.53a2.394,2.394,0,0,0-.478-1.638A2.011,2.011,0,0,0-46.911-9.7a2.515,2.515,0,0,0-2.353,1.429V0h-2.61V-11.623ZM-34.482.215a5.4,5.4,0,0,1-4.023-1.563,5.67,5.67,0,0,1-1.542-4.163v-.322a6.974,6.974,0,0,1,.671-3.11,5.11,5.11,0,0,1,1.885-2.132,4.984,4.984,0,0,1,2.707-.763,4.562,4.562,0,0,1,3.668,1.515A6.4,6.4,0,0,1-29.82-6.037v1.053h-7.595a3.491,3.491,0,0,0,.961,2.277,2.886,2.886,0,0,0,2.122.838,3.535,3.535,0,0,0,2.922-1.45L-30-1.977A4.7,4.7,0,0,1-31.867-.36,5.835,5.835,0,0,1-34.482.215Zm-.312-9.958a2.2,2.2,0,0,0-1.735.752A3.9,3.9,0,0,0-37.372-6.9H-32.4V-7.09a3.173,3.173,0,0,0-.7-1.982A2.181,2.181,0,0,0-34.794-9.743Zm11.773,7.874A2.36,2.36,0,0,0-21.4-2.438a1.945,1.945,0,0,0,.688-1.407h2.46a3.834,3.834,0,0,1-.677,2.025A4.439,4.439,0,0,1-20.646-.333a5.122,5.122,0,0,1-2.342.548,4.956,4.956,0,0,1-3.867-1.579,6.263,6.263,0,0,1-1.429-4.361v-.269a6.159,6.159,0,0,1,1.418-4.249A4.911,4.911,0,0,1-23-11.838a4.775,4.775,0,0,1,3.378,1.208,4.329,4.329,0,0,1,1.37,3.174h-2.46A2.39,2.39,0,0,0-21.393-9.1a2.195,2.195,0,0,0-1.627-.645,2.3,2.3,0,0,0-1.955.918,4.687,4.687,0,0,0-.7,2.788v.419a4.764,4.764,0,0,0,.682,2.82A2.3,2.3,0,0,0-23.021-1.869Zm10.012-12.579v2.825h2.052v1.934h-2.052V-3.2a1.429,1.429,0,0,0,.263.961,1.22,1.22,0,0,0,.94.3,4.021,4.021,0,0,0,.913-.107v2.02a6.429,6.429,0,0,1-1.719.247q-3.008,0-3.008-3.319V-9.689h-1.912v-1.934h1.912v-2.825ZM-3.846.215A5.4,5.4,0,0,1-7.869-1.348,5.67,5.67,0,0,1-9.41-5.511v-.322a6.974,6.974,0,0,1,.671-3.11,5.11,5.11,0,0,1,1.885-2.132,4.984,4.984,0,0,1,2.707-.763A4.562,4.562,0,0,1-.478-10.323,6.4,6.4,0,0,1,.816-6.037v1.053H-6.778a3.491,3.491,0,0,0,.961,2.277A2.886,2.886,0,0,0-3.7-1.869,3.535,3.535,0,0,0-.773-3.319L.634-1.977A4.7,4.7,0,0,1-1.23-.36,5.835,5.835,0,0,1-3.846.215Zm-.312-9.958a2.2,2.2,0,0,0-1.735.752A3.9,3.9,0,0,0-6.735-6.9h4.974V-7.09a3.173,3.173,0,0,0-.7-1.982A2.181,2.181,0,0,0-4.157-9.743ZM2.353-5.9A6.91,6.91,0,0,1,3.6-10.21a3.993,3.993,0,0,1,3.341-1.627,3.794,3.794,0,0,1,2.986,1.289V-16.5h2.61V0H10.173l-.129-1.2A3.848,3.848,0,0,1,6.918.215a3.97,3.97,0,0,1-3.3-1.644A7.163,7.163,0,0,1,2.353-5.9Zm2.61.226a4.838,4.838,0,0,0,.682,2.766,2.213,2.213,0,0,0,1.939.994A2.465,2.465,0,0,0,9.926-3.341V-8.3a2.428,2.428,0,0,0-2.32-1.4,2.23,2.23,0,0,0-1.955,1A5.388,5.388,0,0,0,4.963-5.672ZM30.948-3.6,32.8-11.623h2.546L32.173,0H30.024L27.532-7.981,25.083,0H22.935l-3.18-11.623H22.3l1.88,7.938,2.385-7.938h1.966ZM39.864,0h-2.61V-11.623h2.61ZM37.093-14.642a1.385,1.385,0,0,1,.381-1,1.44,1.44,0,0,1,1.09-.4,1.459,1.459,0,0,1,1.1.4,1.375,1.375,0,0,1,.387,1,1.343,1.343,0,0,1-.387.983,1.47,1.47,0,0,1-1.1.392,1.452,1.452,0,0,1-1.09-.392A1.353,1.353,0,0,1,37.093-14.642Zm8.884.193v2.825h2.052v1.934H45.977V-3.2a1.429,1.429,0,0,0,.263.961,1.22,1.22,0,0,0,.94.3,4.021,4.021,0,0,0,.913-.107v2.02a6.429,6.429,0,0,1-1.719.247q-3.008,0-3.008-3.319V-9.689H41.454v-1.934h1.912v-2.825Zm6.617,4.093a4.086,4.086,0,0,1,3.233-1.482q3.717,0,3.771,4.243V0h-2.61V-7.5a2.3,2.3,0,0,0-.521-1.7,2.13,2.13,0,0,0-1.531-.5,2.514,2.514,0,0,0-2.342,1.4V0h-2.61V-16.5h2.61ZM72.832.215a5.4,5.4,0,0,1-4.023-1.563,5.67,5.67,0,0,1-1.542-4.163v-.322a6.974,6.974,0,0,1,.671-3.11,5.11,5.11,0,0,1,1.885-2.132,4.984,4.984,0,0,1,2.707-.763A4.562,4.562,0,0,1,76.2-10.323a6.4,6.4,0,0,1,1.294,4.286v1.053H69.9a3.491,3.491,0,0,0,.961,2.277,2.886,2.886,0,0,0,2.122.838A3.535,3.535,0,0,0,75.9-3.319l1.407,1.343A4.7,4.7,0,0,1,75.448-.36,5.835,5.835,0,0,1,72.832.215Zm-.312-9.958a2.2,2.2,0,0,0-1.735.752A3.9,3.9,0,0,0,69.942-6.9h4.974V-7.09a3.173,3.173,0,0,0-.7-1.982A2.181,2.181,0,0,0,72.521-9.743ZM83.692-7.8l2.213-3.824h2.9L85.25-5.9,88.924,0H86.045l-2.32-3.975L81.415,0h-2.9l3.674-5.9-3.545-5.726h2.879Zm17.069,2.105a6.92,6.92,0,0,1-1.225,4.3A3.922,3.922,0,0,1,96.25.215a3.948,3.948,0,0,1-3.062-1.257V4.469h-2.61V-11.623h2.406l.107,1.182a3.834,3.834,0,0,1,3.126-1.4,3.962,3.962,0,0,1,3.335,1.584,7.1,7.1,0,0,1,1.208,4.4Zm-2.6-.226a4.848,4.848,0,0,0-.693-2.761A2.252,2.252,0,0,0,95.487-9.7a2.4,2.4,0,0,0-2.3,1.321v5.156a2.424,2.424,0,0,0,2.32,1.354,2.25,2.25,0,0,0,1.95-1A5.336,5.336,0,0,0,98.162-5.919ZM108.088.215a5.4,5.4,0,0,1-4.023-1.563,5.67,5.67,0,0,1-1.542-4.163v-.322a6.974,6.974,0,0,1,.671-3.11,5.11,5.11,0,0,1,1.885-2.132,4.984,4.984,0,0,1,2.707-.763,4.562,4.562,0,0,1,3.668,1.515,6.4,6.4,0,0,1,1.294,4.286v1.053h-7.595a3.491,3.491,0,0,0,.961,2.277,2.886,2.886,0,0,0,2.122.838,3.535,3.535,0,0,0,2.922-1.45l1.407,1.343A4.7,4.7,0,0,1,110.7-.36,5.835,5.835,0,0,1,108.088.215Zm-.312-9.958a2.2,2.2,0,0,0-1.735.752A3.9,3.9,0,0,0,105.2-6.9h4.974V-7.09a3.173,3.173,0,0,0-.7-1.982A2.181,2.181,0,0,0,107.776-9.743Zm13.084.5a6.459,6.459,0,0,0-1.063-.086,2.394,2.394,0,0,0-2.417,1.375V0h-2.61V-11.623h2.492l.064,1.3a2.941,2.941,0,0,1,2.621-1.515,2.444,2.444,0,0,1,.924.15Zm5.457-5.21v2.825h2.052v1.934h-2.052V-3.2a1.429,1.429,0,0,0,.263.961,1.22,1.22,0,0,0,.94.3,4.021,4.021,0,0,0,.913-.107v2.02a6.429,6.429,0,0,1-1.719.247q-3.008,0-3.008-3.319V-9.689h-1.912v-1.934h1.912v-2.825Z" data-name="Path 20261" transform="translate(-18304 3214)"/><path id="Path_20262" fill="#01355d" d="M-47.679-5.092a5.647,5.647,0,0,1-1.848,3.9,6.3,6.3,0,0,1-4.286,1.4,6.1,6.1,0,0,1-3.292-.886A5.817,5.817,0,0,1-59.3-3.19a9.09,9.09,0,0,1-.806-3.792V-8.443a9.156,9.156,0,0,1,.784-3.9,5.91,5.91,0,0,1,2.25-2.6,6.278,6.278,0,0,1,3.389-.913,6.046,6.046,0,0,1,4.168,1.4,5.858,5.858,0,0,1,1.837,3.969h-2.707a3.864,3.864,0,0,0-.983-2.433,3.249,3.249,0,0,0-2.315-.747,3.173,3.173,0,0,0-2.723,1.3,6.475,6.475,0,0,0-.972,3.8V-7.18a6.869,6.869,0,0,0,.908,3.871,3.012,3.012,0,0,0,2.659,1.333,3.514,3.514,0,0,0,2.406-.72,3.753,3.753,0,0,0,1.021-2.4Zm4.748-5.264A4.086,4.086,0,0,1-39.7-11.838q3.717,0,3.771,4.243V0h-2.61V-7.5a2.3,2.3,0,0,0-.521-1.7,2.13,2.13,0,0,0-1.531-.5,2.514,2.514,0,0,0-2.342,1.4V0h-2.61V-16.5h2.61Zm9.152,4.437A6.854,6.854,0,0,1-33.1-9,4.943,4.943,0,0,1-31.2-11.1a5.357,5.357,0,0,1,2.814-.736,5.077,5.077,0,0,1,3.819,1.515,5.957,5.957,0,0,1,1.584,4.018l.011.612a6.915,6.915,0,0,1-.661,3.072A4.883,4.883,0,0,1-25.523-.526a5.4,5.4,0,0,1-2.841.741A5.042,5.042,0,0,1-32.3-1.423,6.274,6.274,0,0,1-33.779-5.79Zm2.61.226a4.683,4.683,0,0,0,.741,2.809,2.41,2.41,0,0,0,2.063,1.015A2.383,2.383,0,0,0-26.308-2.9a5.173,5.173,0,0,0,.736-3.019,4.623,4.623,0,0,0-.757-2.793,2.418,2.418,0,0,0-2.057-1.031,2.4,2.4,0,0,0-2.03,1.015A5.075,5.075,0,0,0-31.168-5.693Zm9.915-.226A6.854,6.854,0,0,1-20.577-9a4.943,4.943,0,0,1,1.9-2.105,5.357,5.357,0,0,1,2.814-.736,5.077,5.077,0,0,1,3.819,1.515,5.957,5.957,0,0,1,1.584,4.018l.011.612a6.915,6.915,0,0,1-.661,3.072A4.883,4.883,0,0,1-13-.526a5.4,5.4,0,0,1-2.841.741,5.042,5.042,0,0,1-3.937-1.638A6.274,6.274,0,0,1-21.253-5.79Zm2.61.226A4.683,4.683,0,0,0-17.9-2.884a2.41,2.41,0,0,0,2.063,1.015A2.383,2.383,0,0,0-13.782-2.9a5.173,5.173,0,0,0,.736-3.019A4.623,4.623,0,0,0-13.8-8.712a2.418,2.418,0,0,0-2.057-1.031,2.4,2.4,0,0,0-2.03,1.015A5.075,5.075,0,0,0-18.643-5.693ZM-1.724-3.158A1.183,1.183,0,0,0-2.3-4.222a6.112,6.112,0,0,0-1.907-.645,9.8,9.8,0,0,1-2.224-.709A2.968,2.968,0,0,1-8.384-8.314a3.094,3.094,0,0,1,1.268-2.514,5.011,5.011,0,0,1,3.223-1.01A5.214,5.214,0,0,1-.526-10.807,3.272,3.272,0,0,1,.757-8.132h-2.61a1.609,1.609,0,0,0-.559-1.251,2.141,2.141,0,0,0-1.482-.5,2.313,2.313,0,0,0-1.4.4,1.253,1.253,0,0,0-.542,1.063,1.058,1.058,0,0,0,.5.935,6.943,6.943,0,0,0,2.041.671A9.662,9.662,0,0,1-.881-6.01a3.415,3.415,0,0,1,1.3,1.123A2.863,2.863,0,0,1,.843-3.3,3.028,3.028,0,0,1-.457-.757,5.542,5.542,0,0,1-3.862.215,6.01,6.01,0,0,1-6.408-.3a4.19,4.19,0,0,1-1.74-1.418,3.356,3.356,0,0,1-.623-1.944h2.535a1.839,1.839,0,0,0,.7,1.423,2.713,2.713,0,0,0,1.708.5,2.64,2.64,0,0,0,1.568-.392A1.214,1.214,0,0,0-1.724-3.158ZM8.234.215A5.4,5.4,0,0,1,4.211-1.348,5.67,5.67,0,0,1,2.669-5.511v-.322a6.974,6.974,0,0,1,.671-3.11,5.11,5.11,0,0,1,1.885-2.132,4.984,4.984,0,0,1,2.707-.763A4.562,4.562,0,0,1,11.6-10.323,6.4,6.4,0,0,1,12.9-6.037v1.053H5.3a3.491,3.491,0,0,0,.961,2.277,2.886,2.886,0,0,0,2.122.838,3.535,3.535,0,0,0,2.922-1.45l1.407,1.343A4.7,4.7,0,0,1,10.85-.36,5.835,5.835,0,0,1,8.234.215ZM7.922-9.743a2.2,2.2,0,0,0-1.735.752A3.9,3.9,0,0,0,5.344-6.9h4.974V-7.09a3.173,3.173,0,0,0-.7-1.982A2.181,2.181,0,0,0,7.922-9.743Zm22.655,4.05a6.92,6.92,0,0,1-1.225,4.3A3.922,3.922,0,0,1,26.066.215,3.948,3.948,0,0,1,23-1.042V4.469h-2.61V-11.623H22.8l.107,1.182a3.834,3.834,0,0,1,3.126-1.4,3.962,3.962,0,0,1,3.335,1.584,7.1,7.1,0,0,1,1.208,4.4Zm-2.6-.226a4.848,4.848,0,0,0-.693-2.761A2.252,2.252,0,0,0,25.3-9.7,2.4,2.4,0,0,0,23-8.379v5.156a2.424,2.424,0,0,0,2.32,1.354,2.25,2.25,0,0,0,1.95-1A5.336,5.336,0,0,0,27.978-5.919ZM35.562,0h-2.61V-16.5h2.61Zm9.786,0a4.029,4.029,0,0,1-.3-1.085A4.063,4.063,0,0,1,42,.215a4.1,4.1,0,0,1-2.857-1,3.2,3.2,0,0,1-1.106-2.471,3.3,3.3,0,0,1,1.38-2.852A6.689,6.689,0,0,1,43.361-7.1h1.6v-.763a2.036,2.036,0,0,0-.5-1.445,2,2,0,0,0-1.536-.542,2.3,2.3,0,0,0-1.461.446,1.38,1.38,0,0,0-.569,1.133H38.28a2.9,2.9,0,0,1,.634-1.789,4.222,4.222,0,0,1,1.724-1.305,6.056,6.056,0,0,1,2.433-.473,4.877,4.877,0,0,1,3.255,1.026,3.658,3.658,0,0,1,1.246,2.884v5.242a5.941,5.941,0,0,0,.44,2.5V0ZM42.48-1.88a2.969,2.969,0,0,0,1.456-.376,2.512,2.512,0,0,0,1.026-1.01V-5.457H43.554a3.848,3.848,0,0,0-2.181.5,1.636,1.636,0,0,0-.73,1.429,1.525,1.525,0,0,0,.5,1.2A1.934,1.934,0,0,0,42.48-1.88Zm10.248-9.743L52.8-10.28a4.179,4.179,0,0,1,3.384-1.558q3.631,0,3.7,4.157V0h-2.61V-7.53a2.394,2.394,0,0,0-.478-1.638A2.011,2.011,0,0,0,55.231-9.7a2.515,2.515,0,0,0-2.353,1.429V0h-2.61V-11.623Z" data-name="Path 20262" transform="translate(-18656 3214)"/><path id="Path_20263" fill="#01355d" d="M7.337-6.016H4.308V0H1.59V-15.641h5.5a6.4,6.4,0,0,1,4.179,1.215A4.3,4.3,0,0,1,12.74-10.91a4.4,4.4,0,0,1-.757,2.629A4.819,4.819,0,0,1,9.872-6.653L13.385-.139V0H10.474ZM4.308-8.207H7.1A3.106,3.106,0,0,0,9.249-8.9a2.416,2.416,0,0,0,.773-1.9,2.572,2.572,0,0,0-.714-1.944,3.035,3.035,0,0,0-2.132-.709H4.308ZM20.185.215a5.4,5.4,0,0,1-4.023-1.563A5.67,5.67,0,0,1,14.62-5.511v-.322a6.974,6.974,0,0,1,.671-3.11,5.11,5.11,0,0,1,1.885-2.132,4.984,4.984,0,0,1,2.707-.763,4.562,4.562,0,0,1,3.668,1.515,6.4,6.4,0,0,1,1.294,4.286v1.053H17.252a3.491,3.491,0,0,0,.961,2.277,2.886,2.886,0,0,0,2.122.838,3.535,3.535,0,0,0,2.922-1.45l1.407,1.343A4.7,4.7,0,0,1,22.8-.36,5.835,5.835,0,0,1,20.185.215Zm-.312-9.958a2.2,2.2,0,0,0-1.735.752A3.9,3.9,0,0,0,17.295-6.9h4.974V-7.09a3.173,3.173,0,0,0-.7-1.982A2.181,2.181,0,0,0,19.873-9.743ZM30.83-3.309l2.46-8.314h2.7L31.958,0H29.691L25.631-11.623h2.707ZM40.391,0H37.78V-11.623h2.61ZM37.619-14.642a1.385,1.385,0,0,1,.381-1,1.44,1.44,0,0,1,1.09-.4,1.459,1.459,0,0,1,1.1.4,1.375,1.375,0,0,1,.387,1,1.343,1.343,0,0,1-.387.983,1.47,1.47,0,0,1-1.1.392A1.452,1.452,0,0,1,38-13.659,1.353,1.353,0,0,1,37.619-14.642ZM48.351.215a5.4,5.4,0,0,1-4.023-1.563,5.67,5.67,0,0,1-1.542-4.163v-.322a6.974,6.974,0,0,1,.671-3.11,5.11,5.11,0,0,1,1.885-2.132,4.984,4.984,0,0,1,2.707-.763,4.562,4.562,0,0,1,3.668,1.515,6.4,6.4,0,0,1,1.294,4.286v1.053H45.418a3.491,3.491,0,0,0,.961,2.277,2.886,2.886,0,0,0,2.122.838,3.535,3.535,0,0,0,2.922-1.45L52.83-1.977A4.7,4.7,0,0,1,50.966-.36,5.835,5.835,0,0,1,48.351.215Zm-.312-9.958a2.2,2.2,0,0,0-1.735.752A3.9,3.9,0,0,0,45.461-6.9h4.974V-7.09a3.173,3.173,0,0,0-.7-1.982A2.181,2.181,0,0,0,48.039-9.743ZM65.248-3.6,67.1-11.623h2.546L66.473,0H64.324L61.832-7.981,59.383,0H57.234l-3.18-11.623H56.6l1.88,7.938,2.385-7.938h1.966Zm15.684-.14,2.363-7.885h2.782L81.458,1.762q-1.063,2.933-3.609,2.933A4.654,4.654,0,0,1,76.592,4.5V2.471l.494.032a2.541,2.541,0,0,0,1.488-.36,2.384,2.384,0,0,0,.79-1.208l.376-1L75.657-11.623h2.814Zm5.994-2.181A6.854,6.854,0,0,1,87.6-9,4.943,4.943,0,0,1,89.5-11.1a5.357,5.357,0,0,1,2.814-.736,5.077,5.077,0,0,1,3.819,1.515,5.957,5.957,0,0,1,1.584,4.018l.011.612a6.915,6.915,0,0,1-.661,3.072A4.883,4.883,0,0,1,95.181-.526,5.4,5.4,0,0,1,92.34.215,5.042,5.042,0,0,1,88.4-1.423,6.274,6.274,0,0,1,86.926-5.79Zm2.61.226a4.683,4.683,0,0,0,.741,2.809A2.41,2.41,0,0,0,92.34-1.869,2.383,2.383,0,0,0,94.4-2.9a5.173,5.173,0,0,0,.736-3.019,4.623,4.623,0,0,0-.757-2.793,2.418,2.418,0,0,0-2.057-1.031,2.4,2.4,0,0,0-2.03,1.015A5.075,5.075,0,0,0,89.536-5.693Zm17.445,4.555A4.048,4.048,0,0,1,103.716.215a3.608,3.608,0,0,1-2.863-1.106,4.707,4.707,0,0,1-.972-3.2v-7.53h2.61v7.5q0,2.213,1.837,2.213A2.58,2.58,0,0,0,106.9-3.276v-8.347h2.61V0h-2.46Zm11.269-8.1a6.459,6.459,0,0,0-1.063-.086,2.394,2.394,0,0,0-2.417,1.375V0h-2.61V-11.623h2.492l.064,1.3a2.941,2.941,0,0,1,2.621-1.515,2.444,2.444,0,0,1,.924.15Zm6.639,3.33a6.868,6.868,0,0,1,1.246-4.329,4.049,4.049,0,0,1,3.373-1.6,3.806,3.806,0,0,1,3.083,1.364l.15-1.149h2.32V4.469h-2.61V-.988a3.9,3.9,0,0,1-2.965,1.2,4.011,4.011,0,0,1-3.341-1.627A7.191,7.191,0,0,1,124.889-5.908Zm2.61.226a4.85,4.85,0,0,0,.7,2.8,2.243,2.243,0,0,0,1.95,1.015,2.473,2.473,0,0,0,2.3-1.321V-8.476a2.474,2.474,0,0,0-2.277-1.268,2.281,2.281,0,0,0-1.96,1A5.292,5.292,0,0,0,127.5-5.683Zm17.413,4.544A4.048,4.048,0,0,1,141.646.215a3.608,3.608,0,0,1-2.863-1.106,4.707,4.707,0,0,1-.972-3.2v-7.53h2.61v7.5q0,2.213,1.837,2.213a2.58,2.58,0,0,0,2.567-1.364v-8.347h2.61V0h-2.46Zm10.3,1.354a5.4,5.4,0,0,1-4.023-1.563,5.67,5.67,0,0,1-1.542-4.163v-.322a6.974,6.974,0,0,1,.671-3.11,5.11,5.11,0,0,1,1.885-2.132,4.984,4.984,0,0,1,2.707-.763,4.562,4.562,0,0,1,3.668,1.515,6.4,6.4,0,0,1,1.294,4.286v1.053h-7.595a3.491,3.491,0,0,0,.961,2.277,2.886,2.886,0,0,0,2.122.838,3.535,3.535,0,0,0,2.922-1.45l1.407,1.343A4.7,4.7,0,0,1,157.83-.36,5.835,5.835,0,0,1,155.214.215ZM154.9-9.743a2.2,2.2,0,0,0-1.735.752,3.9,3.9,0,0,0-.843,2.095H157.3V-7.09a3.173,3.173,0,0,0-.7-1.982A2.181,2.181,0,0,0,154.9-9.743Zm13.084.5a6.459,6.459,0,0,0-1.063-.086,2.394,2.394,0,0,0-2.417,1.375V0H161.9V-11.623h2.492l.064,1.3a2.941,2.941,0,0,1,2.621-1.515,2.444,2.444,0,0,1,.924.15Zm5.908,5.5,2.363-7.885h2.782L174.421,1.762q-1.063,2.933-3.609,2.933a4.654,4.654,0,0,1-1.257-.194V2.471l.494.032a2.541,2.541,0,0,0,1.488-.36,2.384,2.384,0,0,0,.79-1.208l.376-1L168.62-11.623h2.814Z" data-name="Path 20263" transform="translate(-19064 3214)"/><path id="Path_20264" fill="#01355d" d="M10.731-6.982H4.308V-2.17h7.509V0H1.59V-15.641H11.741v2.191H4.308v4.318h6.424ZM17.95-7.8l2.213-3.824h2.9L19.508-5.9,23.182,0H20.3l-2.32-3.975L15.673,0h-2.9l3.674-5.9L12.9-11.623H15.78ZM35.02-5.693a6.92,6.92,0,0,1-1.225,4.3A3.922,3.922,0,0,1,30.508.215a3.948,3.948,0,0,1-3.062-1.257V4.469h-2.61V-11.623h2.406l.107,1.182a3.834,3.834,0,0,1,3.126-1.4,3.962,3.962,0,0,1,3.335,1.584,7.1,7.1,0,0,1,1.208,4.4Zm-2.6-.226a4.848,4.848,0,0,0-.693-2.761A2.252,2.252,0,0,0,29.745-9.7a2.4,2.4,0,0,0-2.3,1.321v5.156a2.424,2.424,0,0,0,2.32,1.354,2.25,2.25,0,0,0,1.95-1A5.336,5.336,0,0,0,32.42-5.919ZM40,0h-2.61V-16.5H40ZM49.79,0a4.029,4.029,0,0,1-.3-1.085,4.063,4.063,0,0,1-3.051,1.3,4.1,4.1,0,0,1-2.857-1,3.2,3.2,0,0,1-1.106-2.471,3.3,3.3,0,0,1,1.38-2.852A6.689,6.689,0,0,1,47.8-7.1h1.6v-.763a2.036,2.036,0,0,0-.5-1.445,2,2,0,0,0-1.536-.542A2.3,2.3,0,0,0,45.9-9.4a1.38,1.38,0,0,0-.569,1.133h-2.61a2.9,2.9,0,0,1,.634-1.789,4.222,4.222,0,0,1,1.724-1.305,6.056,6.056,0,0,1,2.433-.473,4.877,4.877,0,0,1,3.255,1.026,3.658,3.658,0,0,1,1.246,2.884v5.242a5.941,5.941,0,0,0,.44,2.5V0ZM46.922-1.88a2.969,2.969,0,0,0,1.456-.376A2.512,2.512,0,0,0,49.4-3.266V-5.457H48a3.848,3.848,0,0,0-2.181.5,1.636,1.636,0,0,0-.73,1.429,1.525,1.525,0,0,0,.5,1.2A1.934,1.934,0,0,0,46.922-1.88ZM57.524,0h-2.61V-11.623h2.61ZM54.753-14.642a1.385,1.385,0,0,1,.381-1,1.44,1.44,0,0,1,1.09-.4,1.459,1.459,0,0,1,1.1.4,1.375,1.375,0,0,1,.387,1,1.343,1.343,0,0,1-.387.983,1.47,1.47,0,0,1-1.1.392,1.452,1.452,0,0,1-1.09-.392A1.353,1.353,0,0,1,54.753-14.642Zm8.035,3.019.075,1.343a4.179,4.179,0,0,1,3.384-1.558q3.631,0,3.7,4.157V0h-2.61V-7.53a2.394,2.394,0,0,0-.478-1.638A2.011,2.011,0,0,0,65.291-9.7a2.515,2.515,0,0,0-2.353,1.429V0h-2.61V-11.623ZM80.856,0h-2.61V-11.623h2.61ZM78.085-14.642a1.385,1.385,0,0,1,.381-1,1.44,1.44,0,0,1,1.09-.4,1.459,1.459,0,0,1,1.1.4,1.375,1.375,0,0,1,.387,1,1.343,1.343,0,0,1-.387.983,1.47,1.47,0,0,1-1.1.392,1.452,1.452,0,0,1-1.09-.392A1.353,1.353,0,0,1,78.085-14.642Zm8.035,3.019L86.2-10.28a4.179,4.179,0,0,1,3.384-1.558q3.631,0,3.7,4.157V0h-2.61V-7.53a2.394,2.394,0,0,0-.478-1.638A2.011,2.011,0,0,0,88.623-9.7a2.515,2.515,0,0,0-2.353,1.429V0H83.66V-11.623Zm14.8,5.726a6.91,6.91,0,0,1,1.246-4.313,3.993,3.993,0,0,1,3.341-1.627,3.794,3.794,0,0,1,2.986,1.289V-16.5h2.61V0h-2.363l-.129-1.2A3.848,3.848,0,0,1,105.488.215a3.97,3.97,0,0,1-3.3-1.644A7.163,7.163,0,0,1,100.923-5.9Zm2.61.226a4.838,4.838,0,0,0,.682,2.766,2.213,2.213,0,0,0,1.939.994A2.465,2.465,0,0,0,108.5-3.341V-8.3a2.428,2.428,0,0,0-2.32-1.4,2.23,2.23,0,0,0-1.955,1A5.388,5.388,0,0,0,103.533-5.672ZM118.948.215a5.4,5.4,0,0,1-4.023-1.563,5.67,5.67,0,0,1-1.542-4.163v-.322a6.974,6.974,0,0,1,.671-3.11,5.11,5.11,0,0,1,1.885-2.132,4.984,4.984,0,0,1,2.707-.763,4.562,4.562,0,0,1,3.668,1.515,6.4,6.4,0,0,1,1.294,4.286v1.053h-7.595a3.491,3.491,0,0,0,.961,2.277,2.886,2.886,0,0,0,2.122.838,3.535,3.535,0,0,0,2.922-1.45l1.407,1.343A4.7,4.7,0,0,1,121.564-.36,5.835,5.835,0,0,1,118.948.215Zm-.312-9.958a2.2,2.2,0,0,0-1.735.752,3.9,3.9,0,0,0-.843,2.095h4.974V-7.09a3.173,3.173,0,0,0-.7-1.982A2.181,2.181,0,0,0,118.637-9.743Zm10.27-4.705v2.825h2.052v1.934h-2.052V-3.2a1.429,1.429,0,0,0,.263.961,1.22,1.22,0,0,0,.94.3,4.021,4.021,0,0,0,.913-.107v2.02A6.429,6.429,0,0,1,129.3.215Q126.3.215,126.3-3.1V-9.689h-1.912v-1.934H126.3v-2.825ZM139.9,0a4.029,4.029,0,0,1-.3-1.085,4.063,4.063,0,0,1-3.051,1.3,4.1,4.1,0,0,1-2.857-1,3.2,3.2,0,0,1-1.106-2.471,3.3,3.3,0,0,1,1.38-2.852,6.689,6.689,0,0,1,3.948-.994h1.6v-.763a2.036,2.036,0,0,0-.5-1.445,2,2,0,0,0-1.536-.542,2.3,2.3,0,0,0-1.461.446,1.38,1.38,0,0,0-.569,1.133h-2.61a2.9,2.9,0,0,1,.634-1.789,4.222,4.222,0,0,1,1.724-1.305,6.056,6.056,0,0,1,2.433-.473,4.877,4.877,0,0,1,3.255,1.026,3.658,3.658,0,0,1,1.246,2.884v5.242a5.941,5.941,0,0,0,.44,2.5V0Zm-2.868-1.88a2.969,2.969,0,0,0,1.456-.376,2.512,2.512,0,0,0,1.026-1.01V-5.457H138.1a3.848,3.848,0,0,0-2.181.5,1.636,1.636,0,0,0-.73,1.429,1.525,1.525,0,0,0,.5,1.2A1.934,1.934,0,0,0,137.027-1.88ZM147.63,0h-2.61V-11.623h2.61Zm-2.771-14.642a1.385,1.385,0,0,1,.381-1,1.44,1.44,0,0,1,1.09-.4,1.459,1.459,0,0,1,1.1.4,1.375,1.375,0,0,1,.387,1,1.343,1.343,0,0,1-.387.983,1.47,1.47,0,0,1-1.1.392,1.452,1.452,0,0,1-1.09-.392A1.353,1.353,0,0,1,144.858-14.642ZM153.248,0h-2.61V-16.5h2.61Z" data-name="Path 20264" transform="translate(-19395 3214)"/><path id="Path_20265" fill="#01355d" d="M9.765-4.028a1.889,1.889,0,0,0-.725-1.59A8.724,8.724,0,0,0,6.424-6.746,12.631,12.631,0,0,1,3.416-8.014a4.014,4.014,0,0,1-2.138-3.5A3.811,3.811,0,0,1,2.82-14.631a6.239,6.239,0,0,1,4-1.225,6.759,6.759,0,0,1,2.911.6,4.778,4.778,0,0,1,2.009,1.713,4.395,4.395,0,0,1,.73,2.465H9.765A2.451,2.451,0,0,0,9-12.993a3.17,3.17,0,0,0-2.2-.693,3.311,3.311,0,0,0-2.068.569A1.9,1.9,0,0,0,4-11.526a1.715,1.715,0,0,0,.795,1.434A9.158,9.158,0,0,0,7.412-8.975,12.057,12.057,0,0,1,10.345-7.74a4.665,4.665,0,0,1,1.622,1.59,4.14,4.14,0,0,1,.516,2.1,3.722,3.722,0,0,1-1.5,3.11A6.5,6.5,0,0,1,6.918.215,7.641,7.641,0,0,1,3.8-.414,5.242,5.242,0,0,1,1.584-2.148a4.323,4.323,0,0,1-.79-2.578H3.513a2.53,2.53,0,0,0,.881,2.063,3.857,3.857,0,0,0,2.524.73A3.352,3.352,0,0,0,9.05-2.508,1.854,1.854,0,0,0,9.765-4.028Zm11.892,2.89A4.048,4.048,0,0,1,18.391.215,3.608,3.608,0,0,1,15.528-.892a4.707,4.707,0,0,1-.972-3.2v-7.53h2.61v7.5q0,2.213,1.837,2.213A2.58,2.58,0,0,0,21.57-3.276v-8.347h2.61V0h-2.46ZM37.039-5.693a6.982,6.982,0,0,1-1.208,4.308,3.937,3.937,0,0,1-3.325,1.6,3.792,3.792,0,0,1-3.18-1.472L29.2,0H26.834V-16.5h2.61v5.994a3.778,3.778,0,0,1,3.04-1.332,3.982,3.982,0,0,1,3.341,1.579,7.1,7.1,0,0,1,1.214,4.415Zm-2.61-.226a4.935,4.935,0,0,0-.666-2.836A2.218,2.218,0,0,0,31.829-9.7a2.424,2.424,0,0,0-2.385,1.482v4.791a2.449,2.449,0,0,0,2.406,1.515,2.2,2.2,0,0,0,1.891-.913,4.782,4.782,0,0,0,.688-2.761Zm7.251-5.7.075,1.214a4.182,4.182,0,0,1,3.352-1.429,3.213,3.213,0,0,1,3.19,1.783,4.122,4.122,0,0,1,3.566-1.783,3.624,3.624,0,0,1,2.863,1.063,4.682,4.682,0,0,1,.961,3.137V0h-2.61V-7.562a2.312,2.312,0,0,0-.483-1.622,2.116,2.116,0,0,0-1.6-.516,2.173,2.173,0,0,0-1.456.478,2.521,2.521,0,0,0-.79,1.251L48.759,0h-2.61V-7.648A1.862,1.862,0,0,0,44.054-9.7,2.3,2.3,0,0,0,41.83-8.422V0H39.22V-11.623ZM61.145,0h-2.61V-11.623h2.61ZM58.373-14.642a1.385,1.385,0,0,1,.381-1,1.44,1.44,0,0,1,1.09-.4,1.459,1.459,0,0,1,1.1.4,1.375,1.375,0,0,1,.387,1,1.343,1.343,0,0,1-.387.983,1.47,1.47,0,0,1-1.1.392,1.452,1.452,0,0,1-1.09-.392A1.353,1.353,0,0,1,58.373-14.642Zm8.884.193v2.825h2.052v1.934H67.257V-3.2a1.429,1.429,0,0,0,.263.961,1.22,1.22,0,0,0,.94.3,4.021,4.021,0,0,0,.913-.107v2.02a6.429,6.429,0,0,1-1.719.247q-3.008,0-3.008-3.319V-9.689H62.734v-1.934h1.912v-2.825ZM80.846-3.738l2.363-7.885h2.782L81.372,1.762q-1.063,2.933-3.609,2.933A4.654,4.654,0,0,1,76.506,4.5V2.471L77,2.5a2.541,2.541,0,0,0,1.488-.36,2.384,2.384,0,0,0,.79-1.208l.376-1L75.571-11.623h2.814ZM86.84-5.919A6.854,6.854,0,0,1,87.517-9a4.943,4.943,0,0,1,1.9-2.105,5.357,5.357,0,0,1,2.814-.736,5.077,5.077,0,0,1,3.819,1.515,5.957,5.957,0,0,1,1.584,4.018l.011.612a6.915,6.915,0,0,1-.661,3.072A4.883,4.883,0,0,1,95.1-.526a5.4,5.4,0,0,1-2.841.741,5.042,5.042,0,0,1-3.937-1.638A6.274,6.274,0,0,1,86.84-5.79Zm2.61.226a4.683,4.683,0,0,0,.741,2.809,2.41,2.41,0,0,0,2.063,1.015A2.383,2.383,0,0,0,94.311-2.9a5.173,5.173,0,0,0,.736-3.019,4.623,4.623,0,0,0-.757-2.793,2.418,2.418,0,0,0-2.057-1.031A2.4,2.4,0,0,0,90.2-8.728,5.075,5.075,0,0,0,89.45-5.693ZM106.9-1.139A4.048,4.048,0,0,1,103.63.215a3.608,3.608,0,0,1-2.863-1.106,4.707,4.707,0,0,1-.972-3.2v-7.53h2.61v7.5q0,2.213,1.837,2.213a2.58,2.58,0,0,0,2.567-1.364v-8.347h2.61V0h-2.46Zm11.269-8.1a6.459,6.459,0,0,0-1.063-.086,2.394,2.394,0,0,0-2.417,1.375V0h-2.61V-11.623h2.492l.064,1.3a2.941,2.941,0,0,1,2.621-1.515,2.444,2.444,0,0,1,.924.15Zm6.639,3.33a6.868,6.868,0,0,1,1.246-4.329,4.049,4.049,0,0,1,3.373-1.6,3.806,3.806,0,0,1,3.083,1.364l.15-1.149h2.32V4.469h-2.61V-.988A3.9,3.9,0,0,1,129.4.215a4.011,4.011,0,0,1-3.341-1.627A7.191,7.191,0,0,1,124.8-5.908Zm2.61.226a4.85,4.85,0,0,0,.7,2.8,2.243,2.243,0,0,0,1.95,1.015,2.473,2.473,0,0,0,2.3-1.321V-8.476a2.474,2.474,0,0,0-2.277-1.268,2.281,2.281,0,0,0-1.96,1A5.292,5.292,0,0,0,127.413-5.683Zm17.413,4.544A4.048,4.048,0,0,1,141.561.215,3.608,3.608,0,0,1,138.7-.892a4.707,4.707,0,0,1-.972-3.2v-7.53h2.61v7.5q0,2.213,1.837,2.213a2.58,2.58,0,0,0,2.567-1.364v-8.347h2.61V0h-2.46Zm10.3,1.354A5.4,5.4,0,0,1,151.1-1.348a5.67,5.67,0,0,1-1.542-4.163v-.322a6.974,6.974,0,0,1,.671-3.11,5.11,5.11,0,0,1,1.885-2.132,4.984,4.984,0,0,1,2.707-.763,4.562,4.562,0,0,1,3.668,1.515,6.4,6.4,0,0,1,1.294,4.286v1.053H152.2a3.491,3.491,0,0,0,.961,2.277,2.886,2.886,0,0,0,2.122.838,3.535,3.535,0,0,0,2.922-1.45l1.407,1.343A4.7,4.7,0,0,1,157.744-.36,5.835,5.835,0,0,1,155.128.215Zm-.312-9.958a2.2,2.2,0,0,0-1.735.752,3.9,3.9,0,0,0-.843,2.095h4.974V-7.09a3.173,3.173,0,0,0-.7-1.982A2.181,2.181,0,0,0,154.816-9.743Zm13.084.5a6.459,6.459,0,0,0-1.063-.086,2.394,2.394,0,0,0-2.417,1.375V0h-2.61V-11.623H164.3l.064,1.3a2.941,2.941,0,0,1,2.621-1.515,2.444,2.444,0,0,1,.924.15Zm5.908,5.5,2.363-7.885h2.782L174.335,1.762q-1.063,2.933-3.609,2.933a4.654,4.654,0,0,1-1.257-.194V2.471l.494.032a2.541,2.541,0,0,0,1.488-.36,2.384,2.384,0,0,0,.79-1.208l.376-1-4.082-11.561h2.814Z" data-name="Path 20265" transform="translate(-19750 3214)"/><path id="Path_20266" fill="#01355d" d="M8.014-6.832,1.375-9.271v-2.567l9.281,4v2.073l-9.281,4V-4.34Z" data-name="Path 20266" transform="translate(-19488 3214)"/><path id="Path_20267" fill="#01355d" d="M8.014-6.832,1.375-9.271v-2.567l9.281,4v2.073l-9.281,4V-4.34Z" data-name="Path 20267" transform="translate(-19157 3214)"/><path id="Path_20268" fill="#01355d" d="M8.014-6.832,1.375-9.271v-2.567l9.281,4v2.073l-9.281,4V-4.34Z" data-name="Path 20268" transform="translate(-18806 3214)"/><path id="Path_20269" fill="#01355d" d="M8.014-6.832,1.375-9.271v-2.567l9.281,4v2.073l-9.281,4V-4.34Z" data-name="Path 20269" transform="translate(-18519 3214)"/><path id="Path_20270" fill="#f8951d" d="M2.5,0h124a2.5,2.5,0,0,1,0,5H2.5a2.5,2.5,0,0,1,0-5Z" data-name="Path 20270" transform="translate(-19789 3167)"/><g id="Group_2718" data-name="Group 2718" transform="translate(-19926 3021)"><g id="White"><g filter="url(#Ellipse_2646)" transform="matrix(1, 0, 0, 1, 136, 118)"><circle id="Ellipse_2646-2" cx="24.5" cy="24.5" r="24.5" fill="#fff" data-name="Ellipse 2646" transform="translate(105 6)"/></g><g id="Path_15947" fill="#01355d" data-name="Path 15947"><path stroke="none" d="M 16.98400688171387 22.54515647888184 C 16.81953811645508 22.54515647888184 16.65999794006348 22.51080703735352 16.50981712341309 22.44305610656738 C 16.09429740905762 22.25664710998535 15.82593727111816 21.84224700927734 15.82593727111816 21.38723564147949 L 15.82593727111816 17.61341667175293 L 15.82593727111816 17.5134162902832 L 15.72593688964844 17.5134162902832 L 12.58052730560303 17.5134162902832 C 11.94203758239746 17.5134162902832 11.42258739471436 16.99345588684082 11.42258739471436 16.35434722900391 L 11.42258739471436 1.257936477661133 C 11.42258739471436 0.6194465160369873 11.94203758239746 0.09999652206897736 12.58052730560303 0.09999652206897736 L 32.70981597900391 0.09999652206897736 C 33.34830856323242 0.09999652206897736 33.86775588989258 0.6194465160369873 33.86775588989258 1.257936477661133 L 33.86775588989258 16.35434722900391 C 33.86775588989258 16.99345588684082 33.34830856323242 17.5134162902832 32.70981597900391 17.5134162902832 L 23.12298774719238 17.5134162902832 L 23.0849666595459 17.5134162902832 L 23.05655670166016 17.53866577148438 L 17.7530574798584 22.25225639343262 C 17.54079627990723 22.4411563873291 17.26768684387207 22.54515647888184 16.98400688171387 22.54515647888184 Z M 13.7384672164917 2.415876626968384 L 13.7384672164917 2.515876531600952 L 13.7384672164917 15.09640693664551 L 13.7384672164917 15.19640636444092 L 13.83846759796143 15.19640636444092 L 16.98387718200684 15.19640636444092 C 17.62236785888672 15.19640636444092 18.14181709289551 15.71585655212402 18.14181709289551 16.35434722900391 L 18.14181709289551 18.58602714538574 L 18.14181709289551 18.8087158203125 L 18.30825805664063 18.6607666015625 L 21.87600708007813 15.48930644989014 C 22.08787727355957 15.30038642883301 22.36100769042969 15.19640636444092 22.64516639709473 15.19640636444092 L 31.45187759399414 15.19640636444092 L 31.55187797546387 15.19640636444092 L 31.55187797546387 15.09640693664551 L 31.55187797546387 2.515876531600952 L 31.55187797546387 2.415876626968384 L 31.45187759399414 2.415876626968384 L 13.83846759796143 2.415876626968384 L 13.7384672164917 2.415876626968384 Z M 8.806707382202148 14.99640655517578 L 6.29082727432251 14.99640655517578 C 5.651717185974121 14.99640655517578 5.131757259368896 14.47695636749268 5.131757259368896 13.83846664428711 C 5.131757259368896 13.19997692108154 5.651717185974121 12.68052673339844 6.29082727432251 12.68052673339844 L 8.806707382202148 12.68052673339844 C 9.445197105407715 12.68052673339844 9.96464729309082 13.19997692108154 9.96464729309082 13.83846664428711 C 9.96464729309082 14.47695636749268 9.445197105407715 14.99640655517578 8.806707382202148 14.99640655517578 Z M 22.64516639709473 13.73846626281738 C 22.00668716430664 13.73846626281738 21.48723793029785 13.21901607513428 21.48723793029785 12.58052635192871 C 21.48723793029785 11.94203662872314 22.00668716430664 11.42258644104004 22.64516639709473 11.42258644104004 C 23.28365707397461 11.42258644104004 23.8031063079834 11.94203662872314 23.8031063079834 12.58052635192871 C 23.8031063079834 13.21901607513428 23.28365707397461 13.73846626281738 22.64516639709473 13.73846626281738 Z M 22.64516639709473 9.964646339416504 C 22.00668716430664 9.964646339416504 21.48723793029785 9.445196151733398 21.48723793029785 8.806706428527832 L 21.48723793029785 5.031756401062012 C 21.48723793029785 4.393266677856445 22.00668716430664 3.87381649017334 22.64516639709473 3.87381649017334 C 23.28365707397461 3.87381649017334 23.8031063079834 4.393266677856445 23.8031063079834 5.031756401062012 L 23.8031063079834 8.806706428527832 C 23.8031063079834 9.445196151733398 23.28365707397461 9.964646339416504 22.64516639709473 9.964646339416504 Z M 8.806707382202148 9.964646339416504 L 3.773817300796509 9.964646339416504 C 3.135327100753784 9.964646339416504 2.615877151489258 9.445196151733398 2.615877151489258 8.806706428527832 C 2.615877151489258 8.168216705322266 3.135327100753784 7.64876651763916 3.773817300796509 7.64876651763916 L 8.806707382202148 7.64876651763916 C 9.445197105407715 7.64876651763916 9.96464729309082 8.168216705322266 9.96464729309082 8.806706428527832 C 9.96464729309082 9.445196151733398 9.445197105407715 9.964646339416504 8.806707382202148 9.964646339416504 Z M 8.806707382202148 4.931756496429443 L 1.25793719291687 4.931756496429443 C 0.6194471716880798 4.931756496429443 0.09999718517065048 4.412306308746338 0.09999718517065048 3.773816585540771 C 0.09999718517065048 3.135326623916626 0.6194471716880798 2.615876436233521 1.25793719291687 2.615876436233521 L 8.806707382202148 2.615876436233521 C 9.445197105407715 2.615876436233521 9.96464729309082 3.135326623916626 9.96464729309082 3.773816585540771 C 9.96464729309082 4.412306308746338 9.445197105407715 4.931756496429443 8.806707382202148 4.931756496429443 Z" transform="translate(247.5 138.5)"/><path fill="#fff" stroke="none" d="M 16.98400688171387 22.44515609741211 C 17.2431468963623 22.44515609741211 17.49264717102051 22.35013580322266 17.68662643432617 22.17751693725586 L 22.99012756347656 17.46392631530762 L 23.04695701599121 17.41341590881348 L 23.12298774719238 17.41341590881348 L 32.70981597900391 17.41341590881348 C 33.29316711425781 17.41341590881348 33.76775741577148 16.93831634521484 33.76775741577148 16.35434722900391 L 33.76775741577148 1.257936477661133 C 33.76775741577148 0.6745865345001221 33.29316711425781 0.1999965161085129 32.70981597900391 0.1999965161085129 L 12.58052730560303 0.1999965161085129 C 11.99717712402344 0.1999965161085129 11.52258682250977 0.6745865345001221 11.52258682250977 1.257936477661133 L 11.52258682250977 16.35434722900391 C 11.52258682250977 16.93831634521484 11.99717712402344 17.41341590881348 12.58052730560303 17.41341590881348 L 15.72593688964844 17.41341590881348 L 15.92593765258789 17.41341590881348 L 15.92593765258789 17.61341667175293 L 15.92593765258789 21.38723564147949 C 15.92593765258789 21.80291557312012 16.17111778259277 22.1815071105957 16.55094718933105 22.35189628601074 C 16.68810653686523 22.41377639770508 16.83380699157715 22.44515609741211 16.98400688171387 22.44515609741211 M 13.63846683502197 2.315876483917236 L 13.83846759796143 2.315876483917236 L 31.45187759399414 2.315876483917236 L 31.65187644958496 2.315876483917236 L 31.65187644958496 2.515876531600952 L 31.65187644958496 15.09640693664551 L 31.65187644958496 15.29640674591064 L 31.45187759399414 15.29640674591064 L 22.64516639709473 15.29640674591064 C 22.38557624816895 15.29640674591064 22.13608741760254 15.39138698577881 21.94244766235352 15.56404685974121 L 18.37469673156738 18.73550605773926 L 18.04181671142578 19.03140640258789 L 18.04181671142578 18.58602714538574 L 18.04181671142578 16.35434722900391 C 18.04181671142578 15.77099609375 17.56722640991211 15.29640674591064 16.98387718200684 15.29640674591064 L 13.83846759796143 15.29640674591064 L 13.63846683502197 15.29640674591064 L 13.63846683502197 15.09640693664551 L 13.63846683502197 2.515876531600952 L 13.63846683502197 2.315876483917236 M 8.806707382202148 14.89640617370605 C 9.390057563781738 14.89640617370605 9.864646911621094 14.4218168258667 9.864646911621094 13.83846664428711 C 9.864646911621094 13.25511646270752 9.390057563781738 12.78052616119385 8.806707382202148 12.78052616119385 L 6.29082727432251 12.78052616119385 C 5.706857204437256 12.78052616119385 5.231757164001465 13.25511646270752 5.231757164001465 13.83846664428711 C 5.231757164001465 14.4218168258667 5.706857204437256 14.89640617370605 6.29082727432251 14.89640617370605 L 8.806707382202148 14.89640617370605 M 22.64516639709473 13.63846683502197 C 23.22851753234863 13.63846683502197 23.7031078338623 13.1638765335083 23.7031078338623 12.58052635192871 C 23.7031078338623 11.99717617034912 23.22851753234863 11.52258682250977 22.64516639709473 11.52258682250977 C 22.06182670593262 11.52258682250977 21.58723640441895 11.99717617034912 21.58723640441895 12.58052635192871 C 21.58723640441895 13.1638765335083 22.06182670593262 13.63846683502197 22.64516639709473 13.63846683502197 M 22.64516639709473 9.864646911621094 C 23.22851753234863 9.864646911621094 23.7031078338623 9.390056610107422 23.7031078338623 8.806706428527832 L 23.7031078338623 5.031756401062012 C 23.7031078338623 4.44840669631958 23.22851753234863 3.973816633224487 22.64516639709473 3.973816633224487 C 22.06182670593262 3.973816633224487 21.58723640441895 4.44840669631958 21.58723640441895 5.031756401062012 L 21.58723640441895 8.806706428527832 C 21.58723640441895 9.390056610107422 22.06182670593262 9.864646911621094 22.64516639709473 9.864646911621094 M 8.806707382202148 9.864646911621094 C 9.390057563781738 9.864646911621094 9.864646911621094 9.390056610107422 9.864646911621094 8.806706428527832 C 9.864646911621094 8.223356246948242 9.390057563781738 7.748766422271729 8.806707382202148 7.748766422271729 L 3.773817300796509 7.748766422271729 C 3.190467119216919 7.748766422271729 2.715877294540405 8.223356246948242 2.715877294540405 8.806706428527832 C 2.715877294540405 9.390056610107422 3.190467119216919 9.864646911621094 3.773817300796509 9.864646911621094 L 8.806707382202148 9.864646911621094 M 8.806707382202148 4.831756591796875 C 9.390057563781738 4.831756591796875 9.864646911621094 4.357166290283203 9.864646911621094 3.773816585540771 C 9.864646911621094 3.190466403961182 9.390057563781738 2.715876579284668 8.806707382202148 2.715876579284668 L 1.25793719291687 2.715876579284668 C 0.6745871901512146 2.715876579284668 0.1999971866607666 3.190466403961182 0.1999971866607666 3.773816585540771 C 0.1999971866607666 4.357166290283203 0.6745871901512146 4.831756591796875 1.25793719291687 4.831756591796875 L 8.806707382202148 4.831756591796875 M 16.98400688171387 22.64515686035156 C 16.80961799621582 22.64515686035156 16.63400650024414 22.60878562927246 16.46869659423828 22.53420639038086 C 16.01692771911621 22.3315372467041 15.72593688964844 21.88202667236328 15.72593688964844 21.38723564147949 L 15.72593688964844 17.61341667175293 L 12.58052730560303 17.61341667175293 C 11.88531684875488 17.61341667175293 11.32258701324463 17.04954719543457 11.32258701324463 16.35434722900391 L 11.32258701324463 1.257936477661133 C 11.32258701324463 0.5627365112304688 11.88531684875488 -3.477172867860645e-06 12.58052730560303 -3.477172867860645e-06 L 32.70981597900391 -3.477172867860645e-06 C 33.40502548217773 -3.477172867860645e-06 33.96775817871094 0.5627365112304688 33.96775817871094 1.257936477661133 L 33.96775817871094 16.35434722900391 C 33.96775817871094 17.04954719543457 33.40502548217773 17.61341667175293 32.70981597900391 17.61341667175293 L 23.12298774719238 17.61341667175293 L 17.81948661804199 22.32700729370117 C 17.584716796875 22.53592681884766 17.28620719909668 22.64515686035156 16.98400688171387 22.64515686035156 Z M 13.83846759796143 2.515876531600952 L 13.83846759796143 15.09640693664551 L 16.98387718200684 15.09640693664551 C 17.67908668518066 15.09640693664551 18.24181747436523 15.6602668762207 18.24181747436523 16.35434722900391 L 18.24181747436523 18.58602714538574 L 21.80956649780273 15.41456699371338 C 22.0394172668457 15.20962619781494 22.33719635009766 15.09640693664551 22.64516639709473 15.09640693664551 L 31.45187759399414 15.09640693664551 L 31.45187759399414 2.515876531600952 L 13.83846759796143 2.515876531600952 Z M 8.806707382202148 15.09640693664551 L 6.29082727432251 15.09640693664551 C 5.594487190246582 15.09640693664551 5.031757354736328 14.53366661071777 5.031757354736328 13.83846664428711 C 5.031757354736328 13.14438629150391 5.594487190246582 12.58052635192871 6.29082727432251 12.58052635192871 L 8.806707382202148 12.58052635192871 C 9.501916885375977 12.58052635192871 10.06464672088623 13.14438629150391 10.06464672088623 13.83846664428711 C 10.06464672088623 14.53366661071777 9.501916885375977 15.09640693664551 8.806707382202148 15.09640693664551 Z M 22.64516639709473 13.83846664428711 C 21.94996643066406 13.83846664428711 21.38723754882813 13.27572631835938 21.38723754882813 12.58052635192871 C 21.38723754882813 11.88531684875488 21.94996643066406 11.32258605957031 22.64516639709473 11.32258605957031 C 23.34037780761719 11.32258605957031 23.90310668945313 11.88531684875488 23.90310668945313 12.58052635192871 C 23.90310668945313 13.27572631835938 23.34037780761719 13.83846664428711 22.64516639709473 13.83846664428711 Z M 22.64516639709473 10.06464672088623 C 21.94996643066406 10.06464672088623 21.38723754882813 9.500776290893555 21.38723754882813 8.806706428527832 L 21.38723754882813 5.031756401062012 C 21.38723754882813 4.337686538696289 21.94996643066406 3.773816585540771 22.64516639709473 3.773816585540771 C 23.34037780761719 3.773816585540771 23.90310668945313 4.337686538696289 23.90310668945313 5.031756401062012 L 23.90310668945313 8.806706428527832 C 23.90310668945313 9.500776290893555 23.34037780761719 10.06464672088623 22.64516639709473 10.06464672088623 Z M 8.806707382202148 10.06464672088623 L 3.773817300796509 10.06464672088623 C 3.078607082366943 10.06464672088623 2.515877246856689 9.500776290893555 2.515877246856689 8.806706428527832 C 2.515877246856689 8.111496925354004 3.078607082366943 7.548766613006592 3.773817300796509 7.548766613006592 L 8.806707382202148 7.548766613006592 C 9.501916885375977 7.548766613006592 10.06464672088623 8.111496925354004 10.06464672088623 8.806706428527832 C 10.06464672088623 9.500776290893555 9.501916885375977 10.06464672088623 8.806707382202148 10.06464672088623 Z M 8.806707382202148 5.031756401062012 L 1.25793719291687 5.031756401062012 C 0.5627371668815613 5.031756401062012 -2.817993163262145e-06 4.469026565551758 -2.817993163262145e-06 3.773816585540771 C -2.817993163262145e-06 3.07974648475647 0.5627371668815613 2.515876531600952 1.25793719291687 2.515876531600952 L 8.806707382202148 2.515876531600952 C 9.501916885375977 2.515876531600952 10.06464672088623 3.07974648475647 10.06464672088623 3.773816585540771 C 10.06464672088623 4.469026565551758 9.501916885375977 5.031756401062012 8.806707382202148 5.031756401062012 Z" transform="translate(247.5 138.5)"/></g></g><g id="Green" opacity="0"><circle id="Ellipse_2701" cx="24.5" cy="24.5" r="24.5" fill="#63d963" data-name="Ellipse 2701" transform="translate(241 124)"/><g id="Path_16418" fill="#fff" data-name="Path 16418"><path stroke="none" d="M 16.98400688171387 22.54515647888184 C 16.81953811645508 22.54515647888184 16.65999794006348 22.51080703735352 16.50981712341309 22.44305610656738 C 16.09429740905762 22.25664710998535 15.82593727111816 21.84224700927734 15.82593727111816 21.38723564147949 L 15.82593727111816 17.61341667175293 L 15.82593727111816 17.5134162902832 L 15.72593688964844 17.5134162902832 L 12.58052730560303 17.5134162902832 C 11.94203758239746 17.5134162902832 11.42258739471436 16.99345588684082 11.42258739471436 16.35434722900391 L 11.42258739471436 1.257936477661133 C 11.42258739471436 0.6194465160369873 11.94203758239746 0.09999652206897736 12.58052730560303 0.09999652206897736 L 32.70981597900391 0.09999652206897736 C 33.34830856323242 0.09999652206897736 33.86775588989258 0.6194465160369873 33.86775588989258 1.257936477661133 L 33.86775588989258 16.35434722900391 C 33.86775588989258 16.99345588684082 33.34830856323242 17.5134162902832 32.70981597900391 17.5134162902832 L 23.12298774719238 17.5134162902832 L 23.0849666595459 17.5134162902832 L 23.05655670166016 17.53866577148438 L 17.7530574798584 22.25225639343262 C 17.54079627990723 22.4411563873291 17.26768684387207 22.54515647888184 16.98400688171387 22.54515647888184 Z M 13.7384672164917 2.415876626968384 L 13.7384672164917 2.515876531600952 L 13.7384672164917 15.09640693664551 L 13.7384672164917 15.19640636444092 L 13.83846759796143 15.19640636444092 L 16.98387718200684 15.19640636444092 C 17.62236785888672 15.19640636444092 18.14181709289551 15.71585655212402 18.14181709289551 16.35434722900391 L 18.14181709289551 18.58602714538574 L 18.14181709289551 18.8087158203125 L 18.30825805664063 18.6607666015625 L 21.87600708007813 15.48930644989014 C 22.08787727355957 15.30038642883301 22.36100769042969 15.19640636444092 22.64516639709473 15.19640636444092 L 31.45187759399414 15.19640636444092 L 31.55187797546387 15.19640636444092 L 31.55187797546387 15.09640693664551 L 31.55187797546387 2.515876531600952 L 31.55187797546387 2.415876626968384 L 31.45187759399414 2.415876626968384 L 13.83846759796143 2.415876626968384 L 13.7384672164917 2.415876626968384 Z M 8.806707382202148 14.99640655517578 L 6.29082727432251 14.99640655517578 C 5.651717185974121 14.99640655517578 5.131757259368896 14.47695636749268 5.131757259368896 13.83846664428711 C 5.131757259368896 13.19997692108154 5.651717185974121 12.68052673339844 6.29082727432251 12.68052673339844 L 8.806707382202148 12.68052673339844 C 9.445197105407715 12.68052673339844 9.96464729309082 13.19997692108154 9.96464729309082 13.83846664428711 C 9.96464729309082 14.47695636749268 9.445197105407715 14.99640655517578 8.806707382202148 14.99640655517578 Z M 22.64516639709473 13.73846626281738 C 22.00668716430664 13.73846626281738 21.48723793029785 13.21901607513428 21.48723793029785 12.58052635192871 C 21.48723793029785 11.94203662872314 22.00668716430664 11.42258644104004 22.64516639709473 11.42258644104004 C 23.28365707397461 11.42258644104004 23.8031063079834 11.94203662872314 23.8031063079834 12.58052635192871 C 23.8031063079834 13.21901607513428 23.28365707397461 13.73846626281738 22.64516639709473 13.73846626281738 Z M 22.64516639709473 9.964646339416504 C 22.00668716430664 9.964646339416504 21.48723793029785 9.445196151733398 21.48723793029785 8.806706428527832 L 21.48723793029785 5.031756401062012 C 21.48723793029785 4.393266677856445 22.00668716430664 3.87381649017334 22.64516639709473 3.87381649017334 C 23.28365707397461 3.87381649017334 23.8031063079834 4.393266677856445 23.8031063079834 5.031756401062012 L 23.8031063079834 8.806706428527832 C 23.8031063079834 9.445196151733398 23.28365707397461 9.964646339416504 22.64516639709473 9.964646339416504 Z M 8.806707382202148 9.964646339416504 L 3.773817300796509 9.964646339416504 C 3.135327100753784 9.964646339416504 2.615877151489258 9.445196151733398 2.615877151489258 8.806706428527832 C 2.615877151489258 8.168216705322266 3.135327100753784 7.64876651763916 3.773817300796509 7.64876651763916 L 8.806707382202148 7.64876651763916 C 9.445197105407715 7.64876651763916 9.96464729309082 8.168216705322266 9.96464729309082 8.806706428527832 C 9.96464729309082 9.445196151733398 9.445197105407715 9.964646339416504 8.806707382202148 9.964646339416504 Z M 8.806707382202148 4.931756496429443 L 1.25793719291687 4.931756496429443 C 0.6194471716880798 4.931756496429443 0.09999718517065048 4.412306308746338 0.09999718517065048 3.773816585540771 C 0.09999718517065048 3.135326623916626 0.6194471716880798 2.615876436233521 1.25793719291687 2.615876436233521 L 8.806707382202148 2.615876436233521 C 9.445197105407715 2.615876436233521 9.96464729309082 3.135326623916626 9.96464729309082 3.773816585540771 C 9.96464729309082 4.412306308746338 9.445197105407715 4.931756496429443 8.806707382202148 4.931756496429443 Z" transform="translate(247.5 138.5)"/><path fill="#63d963" stroke="none" d="M 16.98400688171387 22.44515609741211 C 17.2431468963623 22.44515609741211 17.49264717102051 22.35013580322266 17.68662643432617 22.17751693725586 L 22.99012756347656 17.46392631530762 L 23.04695701599121 17.41341590881348 L 23.12298774719238 17.41341590881348 L 32.70981597900391 17.41341590881348 C 33.29316711425781 17.41341590881348 33.76775741577148 16.93831634521484 33.76775741577148 16.35434722900391 L 33.76775741577148 1.257936477661133 C 33.76775741577148 0.6745865345001221 33.29316711425781 0.1999965161085129 32.70981597900391 0.1999965161085129 L 12.58052730560303 0.1999965161085129 C 11.99717712402344 0.1999965161085129 11.52258682250977 0.6745865345001221 11.52258682250977 1.257936477661133 L 11.52258682250977 16.35434722900391 C 11.52258682250977 16.93831634521484 11.99717712402344 17.41341590881348 12.58052730560303 17.41341590881348 L 15.72593688964844 17.41341590881348 L 15.92593765258789 17.41341590881348 L 15.92593765258789 17.61341667175293 L 15.92593765258789 21.38723564147949 C 15.92593765258789 21.80291557312012 16.17111778259277 22.1815071105957 16.55094718933105 22.35189628601074 C 16.68810653686523 22.41377639770508 16.83380699157715 22.44515609741211 16.98400688171387 22.44515609741211 M 13.63846683502197 2.315876483917236 L 13.83846759796143 2.315876483917236 L 31.45187759399414 2.315876483917236 L 31.65187644958496 2.315876483917236 L 31.65187644958496 2.515876531600952 L 31.65187644958496 15.09640693664551 L 31.65187644958496 15.29640674591064 L 31.45187759399414 15.29640674591064 L 22.64516639709473 15.29640674591064 C 22.38557624816895 15.29640674591064 22.13608741760254 15.39138698577881 21.94244766235352 15.56404685974121 L 18.37469673156738 18.73550605773926 L 18.04181671142578 19.03140640258789 L 18.04181671142578 18.58602714538574 L 18.04181671142578 16.35434722900391 C 18.04181671142578 15.77099609375 17.56722640991211 15.29640674591064 16.98387718200684 15.29640674591064 L 13.83846759796143 15.29640674591064 L 13.63846683502197 15.29640674591064 L 13.63846683502197 15.09640693664551 L 13.63846683502197 2.515876531600952 L 13.63846683502197 2.315876483917236 M 8.806707382202148 14.89640617370605 C 9.390057563781738 14.89640617370605 9.864646911621094 14.4218168258667 9.864646911621094 13.83846664428711 C 9.864646911621094 13.25511646270752 9.390057563781738 12.78052616119385 8.806707382202148 12.78052616119385 L 6.29082727432251 12.78052616119385 C 5.706857204437256 12.78052616119385 5.231757164001465 13.25511646270752 5.231757164001465 13.83846664428711 C 5.231757164001465 14.4218168258667 5.706857204437256 14.89640617370605 6.29082727432251 14.89640617370605 L 8.806707382202148 14.89640617370605 M 22.64516639709473 13.63846683502197 C 23.22851753234863 13.63846683502197 23.7031078338623 13.1638765335083 23.7031078338623 12.58052635192871 C 23.7031078338623 11.99717617034912 23.22851753234863 11.52258682250977 22.64516639709473 11.52258682250977 C 22.06182670593262 11.52258682250977 21.58723640441895 11.99717617034912 21.58723640441895 12.58052635192871 C 21.58723640441895 13.1638765335083 22.06182670593262 13.63846683502197 22.64516639709473 13.63846683502197 M 22.64516639709473 9.864646911621094 C 23.22851753234863 9.864646911621094 23.7031078338623 9.390056610107422 23.7031078338623 8.806706428527832 L 23.7031078338623 5.031756401062012 C 23.7031078338623 4.44840669631958 23.22851753234863 3.973816633224487 22.64516639709473 3.973816633224487 C 22.06182670593262 3.973816633224487 21.58723640441895 4.44840669631958 21.58723640441895 5.031756401062012 L 21.58723640441895 8.806706428527832 C 21.58723640441895 9.390056610107422 22.06182670593262 9.864646911621094 22.64516639709473 9.864646911621094 M 8.806707382202148 9.864646911621094 C 9.390057563781738 9.864646911621094 9.864646911621094 9.390056610107422 9.864646911621094 8.806706428527832 C 9.864646911621094 8.223356246948242 9.390057563781738 7.748766422271729 8.806707382202148 7.748766422271729 L 3.773817300796509 7.748766422271729 C 3.190467119216919 7.748766422271729 2.715877294540405 8.223356246948242 2.715877294540405 8.806706428527832 C 2.715877294540405 9.390056610107422 3.190467119216919 9.864646911621094 3.773817300796509 9.864646911621094 L 8.806707382202148 9.864646911621094 M 8.806707382202148 4.831756591796875 C 9.390057563781738 4.831756591796875 9.864646911621094 4.357166290283203 9.864646911621094 3.773816585540771 C 9.864646911621094 3.190466403961182 9.390057563781738 2.715876579284668 8.806707382202148 2.715876579284668 L 1.25793719291687 2.715876579284668 C 0.6745871901512146 2.715876579284668 0.1999971866607666 3.190466403961182 0.1999971866607666 3.773816585540771 C 0.1999971866607666 4.357166290283203 0.6745871901512146 4.831756591796875 1.25793719291687 4.831756591796875 L 8.806707382202148 4.831756591796875 M 16.98400688171387 22.64515686035156 C 16.80961799621582 22.64515686035156 16.63400650024414 22.60878562927246 16.46869659423828 22.53420639038086 C 16.01692771911621 22.3315372467041 15.72593688964844 21.88202667236328 15.72593688964844 21.38723564147949 L 15.72593688964844 17.61341667175293 L 12.58052730560303 17.61341667175293 C 11.88531684875488 17.61341667175293 11.32258701324463 17.04954719543457 11.32258701324463 16.35434722900391 L 11.32258701324463 1.257936477661133 C 11.32258701324463 0.5627365112304688 11.88531684875488 -3.477172867860645e-06 12.58052730560303 -3.477172867860645e-06 L 32.70981597900391 -3.477172867860645e-06 C 33.40502548217773 -3.477172867860645e-06 33.96775817871094 0.5627365112304688 33.96775817871094 1.257936477661133 L 33.96775817871094 16.35434722900391 C 33.96775817871094 17.04954719543457 33.40502548217773 17.61341667175293 32.70981597900391 17.61341667175293 L 23.12298774719238 17.61341667175293 L 17.81948661804199 22.32700729370117 C 17.584716796875 22.53592681884766 17.28620719909668 22.64515686035156 16.98400688171387 22.64515686035156 Z M 13.83846759796143 2.515876531600952 L 13.83846759796143 15.09640693664551 L 16.98387718200684 15.09640693664551 C 17.67908668518066 15.09640693664551 18.24181747436523 15.6602668762207 18.24181747436523 16.35434722900391 L 18.24181747436523 18.58602714538574 L 21.80956649780273 15.41456699371338 C 22.0394172668457 15.20962619781494 22.33719635009766 15.09640693664551 22.64516639709473 15.09640693664551 L 31.45187759399414 15.09640693664551 L 31.45187759399414 2.515876531600952 L 13.83846759796143 2.515876531600952 Z M 8.806707382202148 15.09640693664551 L 6.29082727432251 15.09640693664551 C 5.594487190246582 15.09640693664551 5.031757354736328 14.53366661071777 5.031757354736328 13.83846664428711 C 5.031757354736328 13.14438629150391 5.594487190246582 12.58052635192871 6.29082727432251 12.58052635192871 L 8.806707382202148 12.58052635192871 C 9.501916885375977 12.58052635192871 10.06464672088623 13.14438629150391 10.06464672088623 13.83846664428711 C 10.06464672088623 14.53366661071777 9.501916885375977 15.09640693664551 8.806707382202148 15.09640693664551 Z M 22.64516639709473 13.83846664428711 C 21.94996643066406 13.83846664428711 21.38723754882813 13.27572631835938 21.38723754882813 12.58052635192871 C 21.38723754882813 11.88531684875488 21.94996643066406 11.32258605957031 22.64516639709473 11.32258605957031 C 23.34037780761719 11.32258605957031 23.90310668945313 11.88531684875488 23.90310668945313 12.58052635192871 C 23.90310668945313 13.27572631835938 23.34037780761719 13.83846664428711 22.64516639709473 13.83846664428711 Z M 22.64516639709473 10.06464672088623 C 21.94996643066406 10.06464672088623 21.38723754882813 9.500776290893555 21.38723754882813 8.806706428527832 L 21.38723754882813 5.031756401062012 C 21.38723754882813 4.337686538696289 21.94996643066406 3.773816585540771 22.64516639709473 3.773816585540771 C 23.34037780761719 3.773816585540771 23.90310668945313 4.337686538696289 23.90310668945313 5.031756401062012 L 23.90310668945313 8.806706428527832 C 23.90310668945313 9.500776290893555 23.34037780761719 10.06464672088623 22.64516639709473 10.06464672088623 Z M 8.806707382202148 10.06464672088623 L 3.773817300796509 10.06464672088623 C 3.078607082366943 10.06464672088623 2.515877246856689 9.500776290893555 2.515877246856689 8.806706428527832 C 2.515877246856689 8.111496925354004 3.078607082366943 7.548766613006592 3.773817300796509 7.548766613006592 L 8.806707382202148 7.548766613006592 C 9.501916885375977 7.548766613006592 10.06464672088623 8.111496925354004 10.06464672088623 8.806706428527832 C 10.06464672088623 9.500776290893555 9.501916885375977 10.06464672088623 8.806707382202148 10.06464672088623 Z M 8.806707382202148 5.031756401062012 L 1.25793719291687 5.031756401062012 C 0.5627371668815613 5.031756401062012 -2.817993163262145e-06 4.469026565551758 -2.817993163262145e-06 3.773816585540771 C -2.817993163262145e-06 3.07974648475647 0.5627371668815613 2.515876531600952 1.25793719291687 2.515876531600952 L 8.806707382202148 2.515876531600952 C 9.501916885375977 2.515876531600952 10.06464672088623 3.07974648475647 10.06464672088623 3.773816585540771 C 10.06464672088623 4.469026565551758 9.501916885375977 5.031756401062012 8.806707382202148 5.031756401062012 Z" transform="translate(247.5 138.5)"/></g></g></g><g id="Group_2721" data-name="Group 2721" transform="translate(-19926 3021)"><g id="White-2" data-name="White"><g filter="url(#Ellipse_2649)" transform="matrix(1, 0, 0, 1, 136, 118)"><circle id="Ellipse_2649-2" cx="24.5" cy="24.5" r="24.5" fill="#fff" data-name="Ellipse 2649" transform="translate(1109 6)"/></g><path id="Path_15961" fill="#01355d" d="M.859,26.353A.864.864,0,0,1,0,25.494V2.522a.863.863,0,0,1,.859-.859H5.792v-.8a.859.859,0,0,1,1.718,0v.8h7.15v-.8a.859.859,0,0,1,1.718,0v.8H21.31a.907.907,0,0,1,.887.859V25.494a.864.864,0,0,1-.859.859Zm.832-1.746H20.506V3.353h-4.1v.8a.859.859,0,0,1-1.718,0v-.8H7.51v.8a.859.859,0,0,1-1.718,0v-.8H1.69Zm4.462-3.8a.859.859,0,1,1,0-1.718h9.865a.84.84,0,0,1,.832.859.863.863,0,0,1-.859.859Zm0-4.461a.859.859,0,1,1,0-1.718h9.865a.84.84,0,0,1,.832.859.864.864,0,0,1-.859.859Zm4.378-4.157a.859.859,0,0,1-.61-.249L8.092,10.17A.862.862,0,0,1,9.311,8.951l1.164,1.164L12.83,7.482A.845.845,0,0,1,14.105,8.59l-2.937,3.326a.841.841,0,0,1-.61.277Z" data-name="Path 15961" transform="translate(1258 135)"/></g><circle id="Ellipse_2653" cx="24.5" cy="24.5" r="24.5" fill="#fff" data-name="Ellipse 2653" opacity=".7" transform="translate(1245 124)"/><g id="Green-2" data-name="Green" opacity="0"><circle id="Ellipse_2703" cx="24.5" cy="24.5" r="24.5" fill="#63d963" data-name="Ellipse 2703" transform="translate(1245 124)"/><path id="Path_16420" fill="#fff" d="M.859,26.353A.864.864,0,0,1,0,25.494V2.522a.863.863,0,0,1,.859-.859H5.792v-.8a.859.859,0,0,1,1.718,0v.8h7.15v-.8a.859.859,0,0,1,1.718,0v.8H21.31a.907.907,0,0,1,.887.859V25.494a.864.864,0,0,1-.859.859Zm.832-1.746H20.506V3.353h-4.1v.8a.859.859,0,0,1-1.718,0v-.8H7.51v.8a.859.859,0,0,1-1.718,0v-.8H1.69Zm4.462-3.8a.859.859,0,1,1,0-1.718h9.865a.84.84,0,0,1,.832.859.863.863,0,0,1-.859.859Zm0-4.461a.859.859,0,1,1,0-1.718h9.865a.84.84,0,0,1,.832.859.864.864,0,0,1-.859.859Zm4.378-4.157a.859.859,0,0,1-.61-.249L8.092,10.17A.862.862,0,0,1,9.311,8.951l1.164,1.164L12.83,7.482A.845.845,0,0,1,14.105,8.59l-2.937,3.326a.841.841,0,0,1-.61.277Z" data-name="Path 16420" transform="translate(1258 135)"/></g></g><g id="Group_2720" data-name="Group 2720" transform="translate(-19926 3021)"><g id="White-3" data-name="White"><g filter="url(#Ellipse_2648)" transform="matrix(1, 0, 0, 1, 136, 118)"><circle id="Ellipse_2648-2" cx="24.5" cy="24.5" r="24.5" fill="#fff" data-name="Ellipse 2648" transform="translate(791 6)"/></g><path id="Path_15946" fill="#01355d" d="M0,13.264A13.246,13.246,0,0,1,21.36,2.791V.736a.736.736,0,1,1,1.472,0v3.68a.75.75,0,0,1-.546.711l-3.555.952a.736.736,0,0,1-.381-1.422l2.239-.6a11.776,11.776,0,1,0,4.435,9.207.736.736,0,1,1,1.472,0,13.249,13.249,0,1,1-26.5,0Zm4.481.3a.737.737,0,0,1,0-.6c.1-.232,2.621-5.673,8.768-5.673s8.664,5.441,8.768,5.673a.737.737,0,0,1,0,.6c-.1.232-2.621,5.673-8.768,5.673S4.585,13.8,4.481,13.566Zm1.5-.3a8.391,8.391,0,0,0,7.272,4.5,8.391,8.391,0,0,0,7.272-4.5,8.391,8.391,0,0,0-7.272-4.5A8.39,8.39,0,0,0,5.977,13.264Zm4.328,0a2.944,2.944,0,1,1,2.944,2.944A2.947,2.947,0,0,1,10.3,13.264Zm1.472,0a1.472,1.472,0,1,0,1.472-1.472A1.474,1.474,0,0,0,11.777,13.264Z" data-name="Path 15946" transform="translate(937.752 134.769)"/></g><circle id="FADE" cx="24.5" cy="24.5" r="24.5" fill="#fff" opacity=".7" transform="translate(927 124)"/><g id="Green-3" data-name="Green" opacity="0"><circle id="Ellipse_2702" cx="24.5" cy="24.5" r="24.5" fill="#63d963" data-name="Ellipse 2702" transform="translate(927 124)"/><path id="Path_16419" fill="#fff" d="M0,13.264A13.246,13.246,0,0,1,21.36,2.791V.736a.736.736,0,1,1,1.472,0v3.68a.75.75,0,0,1-.546.711l-3.555.952a.736.736,0,0,1-.381-1.422l2.239-.6a11.776,11.776,0,1,0,4.435,9.207.736.736,0,1,1,1.472,0,13.249,13.249,0,1,1-26.5,0Zm4.481.3a.737.737,0,0,1,0-.6c.1-.232,2.621-5.673,8.768-5.673s8.664,5.441,8.768,5.673a.737.737,0,0,1,0,.6c-.1.232-2.621,5.673-8.768,5.673S4.585,13.8,4.481,13.566Zm1.5-.3a8.391,8.391,0,0,0,7.272,4.5,8.391,8.391,0,0,0,7.272-4.5,8.391,8.391,0,0,0-7.272-4.5A8.39,8.39,0,0,0,5.977,13.264Zm4.328,0a2.944,2.944,0,1,1,2.944,2.944A2.947,2.947,0,0,1,10.3,13.264Zm1.472,0a1.472,1.472,0,1,0,1.472-1.472A1.474,1.474,0,0,0,11.777,13.264Z" data-name="Path 16419" transform="translate(937.752 134.769)"/></g></g><g id="Group_2719" data-name="Group 2719" transform="translate(-19926 3021)"><g id="White-4" data-name="White"><g filter="url(#Ellipse_2647)" transform="matrix(1, 0, 0, 1, 136, 118)"><circle id="Ellipse_2647-2" cx="24.5" cy="24.5" r="24.5" fill="#fff" data-name="Ellipse 2647" transform="translate(448 6)"/></g><g id="Path_15962" fill="#01355d" data-name="Path 15962"><path stroke="none" d="M 6.937772274017334 23.59770774841309 C 6.749212265014648 23.59770774841309 6.564571857452393 23.56285667419434 6.38898229598999 23.49411773681641 C 5.765032291412354 23.26476669311523 5.34486198425293 22.66499710083008 5.342472076416016 22.00128746032715 L 5.342472076416016 19.28521728515625 L 5.342472076416016 19.2352180480957 L 5.292471885681152 19.2352180480957 L 4.469352245330811 19.2352180480957 C 3.135322093963623 19.2352180480957 2.050002098083496 18.14991760253906 2.050002098083496 16.81589698791504 L 2.050002098083496 4.469316959381104 C 2.050002098083496 3.135297060012817 3.135322093963623 2.049997091293335 4.469352245330811 2.049997091293335 L 22.57795143127441 2.049997091293335 C 23.9119815826416 2.049997091293335 24.9973030090332 3.135297060012817 24.9973030090332 4.469316959381104 L 24.9973030090332 16.81589698791504 C 24.9973030090332 18.14991760253906 23.9119815826416 19.2352180480957 22.57795143127441 19.2352180480957 L 11.43293190002441 19.2352180480957 L 11.40992164611816 19.2352180480957 L 11.39496231079102 19.25268745422363 L 8.151871681213379 23.03897666931152 C 7.850121974945068 23.39175796508789 7.410861968994141 23.59538650512695 6.946681976318359 23.59767723083496 L 6.937772274017334 23.59770774841309 Z M 4.469352245330811 3.596207141876221 C 3.987912178039551 3.596207141876221 3.596232175827026 3.987887144088745 3.596232175827026 4.469316959381104 L 3.596232175827026 16.81589698791504 C 3.596232175827026 17.29732704162598 3.987912178039551 17.68900680541992 4.469352245330811 17.68900680541992 L 5.292471885681152 17.68900680541992 C 6.172632217407227 17.68900680541992 6.888701915740967 18.40506744384766 6.888701915740967 19.28521728515625 L 6.888701915740967 22.00146675109863 L 6.888701915740967 22.1367073059082 L 6.976672172546387 22.03399658203125 L 10.21976184844971 18.24771690368652 C 10.52347183227539 17.89263725280762 10.96561241149902 17.68900680541992 11.43283176422119 17.68900680541992 L 22.57795143127441 17.68900680541992 C 23.05939292907715 17.68900680541992 23.45107269287109 17.29732704162598 23.45107269287109 16.81589698791504 L 23.45107269287109 4.469316959381104 C 23.45107269287109 3.987887144088745 23.05939292907715 3.596207141876221 22.57795143127441 3.596207141876221 L 4.469352245330811 3.596207141876221 Z M 19.69704246520996 13.47347736358643 C 18.58994293212891 13.47347736358643 17.68924140930176 12.57279682159424 17.68924140930176 11.46571731567383 C 17.68924140930176 10.35862731933594 18.58994293212891 9.45794677734375 19.69704246520996 9.45794677734375 C 20.80414199829102 9.45794677734375 21.70483207702637 10.35862731933594 21.70483207702637 11.46571731567383 C 21.70483207702637 12.57279682159424 20.80414199829102 13.47347736358643 19.69704246520996 13.47347736358643 Z M 19.69704246520996 11.0041675567627 C 19.44253158569336 11.0041675567627 19.23547172546387 11.21121692657471 19.23547172546387 11.46571731567383 C 19.23547172546387 11.72021675109863 19.44253158569336 11.92726707458496 19.69704246520996 11.92726707458496 C 19.95154190063477 11.92726707458496 20.15859222412109 11.72021675109863 20.15859222412109 11.46571731567383 C 20.15859222412109 11.21121692657471 19.95154190063477 11.0041675567627 19.69704246520996 11.0041675567627 Z M 13.52365207672119 13.47347736358643 C 12.41655254364014 13.47347736358643 11.5158519744873 12.57279682159424 11.5158519744873 11.46571731567383 C 11.5158519744873 10.35862731933594 12.41655254364014 9.45794677734375 13.52365207672119 9.45794677734375 C 14.63075160980225 9.45794677734375 15.5314416885376 10.35862731933594 15.5314416885376 11.46571731567383 C 15.5314416885376 12.57279682159424 14.63075160980225 13.47347736358643 13.52365207672119 13.47347736358643 Z M 13.52365207672119 11.0041675567627 C 13.26914215087891 11.0041675567627 13.06209182739258 11.21121692657471 13.06209182739258 11.46571731567383 C 13.06209182739258 11.72021675109863 13.26914215087891 11.92726707458496 13.52365207672119 11.92726707458496 C 13.77816200256348 11.92726707458496 13.9852123260498 11.72021675109863 13.9852123260498 11.46571731567383 C 13.9852123260498 11.21121692657471 13.77816200256348 11.0041675567627 13.52365207672119 11.0041675567627 Z M 7.35026216506958 13.47347736358643 C 6.243162155151367 13.47347736358643 5.342472076416016 12.57279682159424 5.342472076416016 11.46571731567383 C 5.342472076416016 10.35862731933594 6.243162155151367 9.45794677734375 7.35026216506958 9.45794677734375 C 8.457362174987793 9.45794677734375 9.358061790466309 10.35862731933594 9.358061790466309 11.46571731567383 C 9.358061790466309 12.57279682159424 8.457362174987793 13.47347736358643 7.35026216506958 13.47347736358643 Z M 7.350272178649902 11.0041675567627 C 7.095762252807617 11.0041675567627 6.888701915740967 11.21121692657471 6.888701915740967 11.46571731567383 C 6.888701915740967 11.72021675109863 7.095762252807617 11.92726707458496 7.350272178649902 11.92726707458496 C 7.604772090911865 11.92726707458496 7.811821937561035 11.72021675109863 7.811821937561035 11.46571731567383 C 7.811821937561035 11.21121692657471 7.604772090911865 11.0041675567627 7.350272178649902 11.0041675567627 Z" transform="translate(595 137)"/><path fill="#fff" stroke="none" d="M 4.469352722167969 2.099996566772461 C 3.162891387939453 2.099996566772461 2.100002288818359 3.162866592407227 2.100002288818359 4.469316482543945 L 2.100002288818359 16.81589698791504 C 2.100002288818359 18.12234687805176 3.162891387939453 19.18521690368652 4.469352722167969 19.18521690368652 L 5.292472839355469 19.18521690368652 L 5.392471313476563 19.18521690368652 L 5.392471313476563 19.28521728515625 L 5.392471313476563 22.00110626220703 C 5.394792556762695 22.64402770996094 5.801792144775391 23.22500610351563 6.407201766967773 23.44755744934082 C 6.576972961425781 23.51400756835938 6.755481719970703 23.54770660400391 6.937772750854492 23.54770660400391 L 6.946441650390625 23.54767608642578 C 7.396072387695313 23.54545783996582 7.821582794189453 23.34820747375488 8.1138916015625 23.00645637512207 L 11.35698223114014 19.22016716003418 L 11.38692188262939 19.18521690368652 L 11.43293190002441 19.18521690368652 L 22.57795143127441 19.18521690368652 C 23.88441276550293 19.18521690368652 24.94730186462402 18.12234687805176 24.94730186462402 16.81589698791504 L 24.94730186462402 4.469316482543945 C 24.94730186462402 3.162866592407227 23.88441276550293 2.099996566772461 22.57795143127441 2.099996566772461 L 4.469352722167969 2.099996566772461 M 22.57795143127441 17.73900604248047 L 11.43283176422119 17.73900604248047 C 10.9802417755127 17.73900604248047 10.55195236206055 17.93625640869141 10.25774192810059 18.28023719787598 L 7.014652252197266 22.0665168762207 L 6.838701248168945 22.27193641662598 L 6.838701248168945 22.00146675109863 L 6.838701248168945 19.28521728515625 C 6.838701248168945 18.43263626098633 6.145061492919922 17.73900604248047 5.292472839355469 17.73900604248047 L 4.469352722167969 17.73900604248047 C 3.960342407226563 17.73900604248047 3.546232223510742 17.32489776611328 3.546232223510742 16.81589698791504 L 3.546232223510742 4.469316482543945 C 3.546232223510742 3.960317611694336 3.960342407226563 3.546207427978516 4.469352722167969 3.546207427978516 L 22.57795143127441 3.546207427978516 C 23.08696174621582 3.546207427978516 23.50107192993164 3.960317611694336 23.50107192993164 4.469316482543945 L 23.50107192993164 16.81589698791504 C 23.50107192993164 17.32489776611328 23.08696174621582 17.73900604248047 22.57795143127441 17.73900604248047 M 7.350261688232422 9.50794792175293 C 6.270732879638672 9.50794792175293 5.392471313476563 10.38619709014893 5.392471313476563 11.46571731567383 C 5.392471313476563 12.54522705078125 6.270732879638672 13.42347717285156 7.350261688232422 13.42347717285156 C 8.429792404174805 13.42347717285156 9.308061599731445 12.54522705078125 9.308061599731445 11.46571731567383 C 9.308061599731445 10.38619709014893 8.429792404174805 9.50794792175293 7.350261688232422 9.50794792175293 M 7.350271224975586 11.97726726531982 C 7.068191528320313 11.97726726531982 6.838701248168945 11.74778747558594 6.838701248168945 11.46571731567383 C 6.838701248168945 11.18364715576172 7.068191528320313 10.95416736602783 7.350271224975586 10.95416736602783 C 7.632341384887695 10.95416736602783 7.861822128295898 11.18364715576172 7.861822128295898 11.46571731567383 C 7.861822128295898 11.74778747558594 7.632341384887695 11.97726726531982 7.350271224975586 11.97726726531982 M 13.52365207672119 9.50794792175293 C 12.44412231445313 9.50794792175293 11.56585216522217 10.38619709014893 11.56585216522217 11.46571731567383 C 11.56585216522217 12.54522705078125 12.44412231445313 13.42347717285156 13.52365207672119 13.42347717285156 C 14.60318183898926 13.42347717285156 15.48144245147705 12.54522705078125 15.48144245147705 11.46571731567383 C 15.48144245147705 10.38619709014893 14.60318183898926 9.50794792175293 13.52365207672119 9.50794792175293 M 13.52365207672119 11.97726726531982 C 13.24157238006592 11.97726726531982 13.01209163665771 11.74778747558594 13.01209163665771 11.46571731567383 C 13.01209163665771 11.18364715576172 13.24157238006592 10.95416736602783 13.52365207672119 10.95416736602783 C 13.80573177337646 10.95416736602783 14.03521251678467 11.18364715576172 14.03521251678467 11.46571731567383 C 14.03521251678467 11.74778747558594 13.80573177337646 11.97726726531982 13.52365207672119 11.97726726531982 M 19.69704246520996 9.50794792175293 C 18.61751174926758 9.50794792175293 17.73924255371094 10.38619709014893 17.73924255371094 11.46571731567383 C 17.73924255371094 12.54522705078125 18.61751174926758 13.42347717285156 19.69704246520996 13.42347717285156 C 20.77657318115234 13.42347717285156 21.65483093261719 12.54522705078125 21.65483093261719 11.46571731567383 C 21.65483093261719 10.38619709014893 20.77657318115234 9.50794792175293 19.69704246520996 9.50794792175293 M 19.69704246520996 11.97726726531982 C 19.41496276855469 11.97726726531982 19.18547248840332 11.74778747558594 19.18547248840332 11.46571731567383 C 19.18547248840332 11.18364715576172 19.41496276855469 10.95416736602783 19.69704246520996 10.95416736602783 C 19.97911262512207 10.95416736602783 20.20859146118164 11.18364715576172 20.20859146118164 11.46571731567383 C 20.20859146118164 11.74778747558594 19.97911262512207 11.97726726531982 19.69704246520996 11.97726726531982 M 4.469352722167969 1.999996185302734 L 22.57795143127441 1.999996185302734 C 23.94174194335938 1.999996185302734 25.04730224609375 3.105546951293945 25.04730224609375 4.469316482543945 L 25.04730224609375 16.81589698791504 C 25.04730224609375 18.17966651916504 23.94174194335938 19.28521728515625 22.57795143127441 19.28521728515625 L 11.43293190002441 19.28521728515625 L 8.189842224121094 23.07150650024414 C 7.878921508789063 23.43501663208008 7.425271987915039 23.64531707763672 6.946931838989258 23.64767646789551 C 6.943887710571289 23.64769554138184 6.940818786621094 23.647705078125 6.937776565551758 23.647705078125 C 6.743770599365234 23.647705078125 6.551467895507813 23.61141777038574 6.370752334594727 23.54067611694336 C 5.725002288818359 23.3033275604248 5.294952392578125 22.6894474029541 5.292472839355469 22.00146675109863 L 5.292472839355469 19.28521728515625 L 4.469352722167969 19.28521728515625 C 3.105562210083008 19.28521728515625 2.000001907348633 18.17966651916504 2.000001907348633 16.81589698791504 L 2.000001907348633 4.469316482543945 C 2.000001907348633 3.105546951293945 3.105562210083008 1.999996185302734 4.469352722167969 1.999996185302734 Z M 22.57795143127441 17.63900756835938 C 23.03254318237305 17.63900756835938 23.40107154846191 17.27048683166504 23.40107154846191 16.81589698791504 L 23.40107154846191 4.469316482543945 C 23.40107154846191 4.014726638793945 23.03254318237305 3.646207809448242 22.57795143127441 3.646207809448242 L 4.469352722167969 3.646207809448242 C 4.014751434326172 3.646207809448242 3.646232604980469 4.014726638793945 3.646232604980469 4.469316482543945 L 3.646232604980469 16.81589698791504 C 3.646232604980469 17.27048683166504 4.014751434326172 17.63900756835938 4.469352722167969 17.63900756835938 L 5.292472839355469 17.63900756835938 C 6.201662063598633 17.63900756835938 6.938701629638672 18.37603759765625 6.938701629638672 19.28521728515625 L 6.938701629638672 22.00146675109863 L 10.18179130554199 18.21518707275391 C 10.49454307556152 17.84954071044922 10.95168304443359 17.63900756835938 11.43282890319824 17.63900756835938 C 11.43288803100586 17.63900756835938 11.43287372589111 17.63900756835938 11.43293190002441 17.63900756835938 L 22.57795143127441 17.63900756835938 Z M 7.350261688232422 9.407947540283203 L 7.350271224975586 9.407947540283203 C 8.486751556396484 9.407947540283203 9.408061981201172 10.32924747467041 9.408061981201172 11.46571731567383 C 9.408061981201172 12.60218715667725 8.486751556396484 13.52347755432129 7.350261688232422 13.52347755432129 C 6.213771820068359 13.52347755432129 5.292472839355469 12.60218715667725 5.292472839355469 11.46571731567383 C 5.292472839355469 10.32924747467041 6.213771820068359 9.407947540283203 7.350261688232422 9.407947540283203 Z M 7.350271224975586 11.8772668838501 C 7.57756233215332 11.8772668838501 7.761821746826172 11.69300746917725 7.761821746826172 11.46571731567383 C 7.761821746826172 11.23841667175293 7.57756233215332 11.05416679382324 7.350271224975586 11.05416679382324 C 7.122962951660156 11.05416679382324 6.938701629638672 11.23841667175293 6.938701629638672 11.46571731567383 C 6.938701629638672 11.69300746917725 7.122962951660156 11.8772668838501 7.350271224975586 11.8772668838501 Z M 13.52365207672119 9.407947540283203 C 14.66014194488525 9.407947540283203 15.58144187927246 10.32924747467041 15.58144187927246 11.46571731567383 C 15.58144187927246 12.60218715667725 14.66014194488525 13.52347755432129 13.52365207672119 13.52347755432129 C 12.38716220855713 13.52347755432129 11.46585178375244 12.60218715667725 11.46585178375244 11.46571731567383 C 11.46585178375244 10.32924747467041 12.38716220855713 9.407947540283203 13.52365207672119 9.407947540283203 Z M 13.52365207672119 11.8772668838501 C 13.75094223022461 11.8772668838501 13.93521213531494 11.69300746917725 13.93521213531494 11.46571731567383 C 13.93521213531494 11.23841667175293 13.75094223022461 11.05416679382324 13.52365207672119 11.05416679382324 C 13.29635238647461 11.05416679382324 13.11209201812744 11.23841667175293 13.11209201812744 11.46571731567383 C 13.11209201812744 11.69300746917725 13.29635238647461 11.8772668838501 13.52365207672119 11.8772668838501 Z M 19.69704246520996 9.407947540283203 C 20.83352279663086 9.407947540283203 21.75483322143555 10.32924747467041 21.75483322143555 11.46571731567383 C 21.75483322143555 12.60218715667725 20.83352279663086 13.52347755432129 19.69704246520996 13.52347755432129 C 18.56055068969727 13.52347755432129 17.63924217224121 12.60218715667725 17.63924217224121 11.46571731567383 C 17.63924217224121 10.32924747467041 18.56055068969727 9.407947540283203 19.69704246520996 9.407947540283203 Z M 19.69704246520996 11.8772668838501 C 19.92433166503906 11.8772668838501 20.10859298706055 11.69300746917725 20.10859298706055 11.46571731567383 C 20.10859298706055 11.23841667175293 19.92433166503906 11.05416679382324 19.69704246520996 11.05416679382324 C 19.46974182128906 11.05416679382324 19.28547286987305 11.23841667175293 19.28547286987305 11.46571731567383 C 19.28547286987305 11.69300746917725 19.46974182128906 11.8772668838501 19.69704246520996 11.8772668838501 Z" transform="translate(595 137)"/></g></g><circle id="FADE-2" cx="24.5" cy="24.5" r="24.5" fill="#fff" data-name="FADE" opacity=".7" transform="translate(584 124)"/><g id="Green-4" data-name="Green" opacity="0"><circle id="Ellipse_2647-3" cx="24.5" cy="24.5" r="24.5" fill="#63d963" data-name="Ellipse 2647" transform="translate(584 124)"/><g id="Path_15962-2" fill="#fff" data-name="Path 15962"><path stroke="none" d="M 6.937772274017334 23.59770774841309 C 6.749212265014648 23.59770774841309 6.564571857452393 23.56285667419434 6.38898229598999 23.49411773681641 C 5.765032291412354 23.26476669311523 5.34486198425293 22.66499710083008 5.342472076416016 22.00128746032715 L 5.342472076416016 19.28521728515625 L 5.342472076416016 19.2352180480957 L 5.292471885681152 19.2352180480957 L 4.469352245330811 19.2352180480957 C 3.135322093963623 19.2352180480957 2.050002098083496 18.14991760253906 2.050002098083496 16.81589698791504 L 2.050002098083496 4.469316959381104 C 2.050002098083496 3.135297060012817 3.135322093963623 2.049997091293335 4.469352245330811 2.049997091293335 L 22.57795143127441 2.049997091293335 C 23.9119815826416 2.049997091293335 24.9973030090332 3.135297060012817 24.9973030090332 4.469316959381104 L 24.9973030090332 16.81589698791504 C 24.9973030090332 18.14991760253906 23.9119815826416 19.2352180480957 22.57795143127441 19.2352180480957 L 11.43293190002441 19.2352180480957 L 11.40992164611816 19.2352180480957 L 11.39496231079102 19.25268745422363 L 8.151871681213379 23.03897666931152 C 7.850121974945068 23.39175796508789 7.410861968994141 23.59538650512695 6.946681976318359 23.59767723083496 L 6.937772274017334 23.59770774841309 Z M 4.469352245330811 3.596207141876221 C 3.987912178039551 3.596207141876221 3.596232175827026 3.987887144088745 3.596232175827026 4.469316959381104 L 3.596232175827026 16.81589698791504 C 3.596232175827026 17.29732704162598 3.987912178039551 17.68900680541992 4.469352245330811 17.68900680541992 L 5.292471885681152 17.68900680541992 C 6.172632217407227 17.68900680541992 6.888701915740967 18.40506744384766 6.888701915740967 19.28521728515625 L 6.888701915740967 22.00146675109863 L 6.888701915740967 22.1367073059082 L 6.976672172546387 22.03399658203125 L 10.21976184844971 18.24771690368652 C 10.52347183227539 17.89263725280762 10.96561241149902 17.68900680541992 11.43283176422119 17.68900680541992 L 22.57795143127441 17.68900680541992 C 23.05939292907715 17.68900680541992 23.45107269287109 17.29732704162598 23.45107269287109 16.81589698791504 L 23.45107269287109 4.469316959381104 C 23.45107269287109 3.987887144088745 23.05939292907715 3.596207141876221 22.57795143127441 3.596207141876221 L 4.469352245330811 3.596207141876221 Z M 19.69704246520996 13.47347736358643 C 18.58994293212891 13.47347736358643 17.68924140930176 12.57279682159424 17.68924140930176 11.46571731567383 C 17.68924140930176 10.35862731933594 18.58994293212891 9.45794677734375 19.69704246520996 9.45794677734375 C 20.80414199829102 9.45794677734375 21.70483207702637 10.35862731933594 21.70483207702637 11.46571731567383 C 21.70483207702637 12.57279682159424 20.80414199829102 13.47347736358643 19.69704246520996 13.47347736358643 Z M 19.69704246520996 11.0041675567627 C 19.44253158569336 11.0041675567627 19.23547172546387 11.21121692657471 19.23547172546387 11.46571731567383 C 19.23547172546387 11.72021675109863 19.44253158569336 11.92726707458496 19.69704246520996 11.92726707458496 C 19.95154190063477 11.92726707458496 20.15859222412109 11.72021675109863 20.15859222412109 11.46571731567383 C 20.15859222412109 11.21121692657471 19.95154190063477 11.0041675567627 19.69704246520996 11.0041675567627 Z M 13.52365207672119 13.47347736358643 C 12.41655254364014 13.47347736358643 11.5158519744873 12.57279682159424 11.5158519744873 11.46571731567383 C 11.5158519744873 10.35862731933594 12.41655254364014 9.45794677734375 13.52365207672119 9.45794677734375 C 14.63075160980225 9.45794677734375 15.5314416885376 10.35862731933594 15.5314416885376 11.46571731567383 C 15.5314416885376 12.57279682159424 14.63075160980225 13.47347736358643 13.52365207672119 13.47347736358643 Z M 13.52365207672119 11.0041675567627 C 13.26914215087891 11.0041675567627 13.06209182739258 11.21121692657471 13.06209182739258 11.46571731567383 C 13.06209182739258 11.72021675109863 13.26914215087891 11.92726707458496 13.52365207672119 11.92726707458496 C 13.77816200256348 11.92726707458496 13.9852123260498 11.72021675109863 13.9852123260498 11.46571731567383 C 13.9852123260498 11.21121692657471 13.77816200256348 11.0041675567627 13.52365207672119 11.0041675567627 Z M 7.35026216506958 13.47347736358643 C 6.243162155151367 13.47347736358643 5.342472076416016 12.57279682159424 5.342472076416016 11.46571731567383 C 5.342472076416016 10.35862731933594 6.243162155151367 9.45794677734375 7.35026216506958 9.45794677734375 C 8.457362174987793 9.45794677734375 9.358061790466309 10.35862731933594 9.358061790466309 11.46571731567383 C 9.358061790466309 12.57279682159424 8.457362174987793 13.47347736358643 7.35026216506958 13.47347736358643 Z M 7.350272178649902 11.0041675567627 C 7.095762252807617 11.0041675567627 6.888701915740967 11.21121692657471 6.888701915740967 11.46571731567383 C 6.888701915740967 11.72021675109863 7.095762252807617 11.92726707458496 7.350272178649902 11.92726707458496 C 7.604772090911865 11.92726707458496 7.811821937561035 11.72021675109863 7.811821937561035 11.46571731567383 C 7.811821937561035 11.21121692657471 7.604772090911865 11.0041675567627 7.350272178649902 11.0041675567627 Z" transform="translate(595 137)"/><path fill="#63d963" stroke="none" d="M 4.469352722167969 2.099996566772461 C 3.162891387939453 2.099996566772461 2.100002288818359 3.162866592407227 2.100002288818359 4.469316482543945 L 2.100002288818359 16.81589698791504 C 2.100002288818359 18.12234687805176 3.162891387939453 19.18521690368652 4.469352722167969 19.18521690368652 L 5.292472839355469 19.18521690368652 L 5.392471313476563 19.18521690368652 L 5.392471313476563 19.28521728515625 L 5.392471313476563 22.00110626220703 C 5.394792556762695 22.64402770996094 5.801792144775391 23.22500610351563 6.407201766967773 23.44755744934082 C 6.576972961425781 23.51400756835938 6.755481719970703 23.54770660400391 6.937772750854492 23.54770660400391 L 6.946441650390625 23.54767608642578 C 7.396072387695313 23.54545783996582 7.821582794189453 23.34820747375488 8.1138916015625 23.00645637512207 L 11.35698223114014 19.22016716003418 L 11.38692188262939 19.18521690368652 L 11.43293190002441 19.18521690368652 L 22.57795143127441 19.18521690368652 C 23.88441276550293 19.18521690368652 24.94730186462402 18.12234687805176 24.94730186462402 16.81589698791504 L 24.94730186462402 4.469316482543945 C 24.94730186462402 3.162866592407227 23.88441276550293 2.099996566772461 22.57795143127441 2.099996566772461 L 4.469352722167969 2.099996566772461 M 22.57795143127441 17.73900604248047 L 11.43283176422119 17.73900604248047 C 10.9802417755127 17.73900604248047 10.55195236206055 17.93625640869141 10.25774192810059 18.28023719787598 L 7.014652252197266 22.0665168762207 L 6.838701248168945 22.27193641662598 L 6.838701248168945 22.00146675109863 L 6.838701248168945 19.28521728515625 C 6.838701248168945 18.43263626098633 6.145061492919922 17.73900604248047 5.292472839355469 17.73900604248047 L 4.469352722167969 17.73900604248047 C 3.960342407226563 17.73900604248047 3.546232223510742 17.32489776611328 3.546232223510742 16.81589698791504 L 3.546232223510742 4.469316482543945 C 3.546232223510742 3.960317611694336 3.960342407226563 3.546207427978516 4.469352722167969 3.546207427978516 L 22.57795143127441 3.546207427978516 C 23.08696174621582 3.546207427978516 23.50107192993164 3.960317611694336 23.50107192993164 4.469316482543945 L 23.50107192993164 16.81589698791504 C 23.50107192993164 17.32489776611328 23.08696174621582 17.73900604248047 22.57795143127441 17.73900604248047 M 7.350261688232422 9.50794792175293 C 6.270732879638672 9.50794792175293 5.392471313476563 10.38619709014893 5.392471313476563 11.46571731567383 C 5.392471313476563 12.54522705078125 6.270732879638672 13.42347717285156 7.350261688232422 13.42347717285156 C 8.429792404174805 13.42347717285156 9.308061599731445 12.54522705078125 9.308061599731445 11.46571731567383 C 9.308061599731445 10.38619709014893 8.429792404174805 9.50794792175293 7.350261688232422 9.50794792175293 M 7.350271224975586 11.97726726531982 C 7.068191528320313 11.97726726531982 6.838701248168945 11.74778747558594 6.838701248168945 11.46571731567383 C 6.838701248168945 11.18364715576172 7.068191528320313 10.95416736602783 7.350271224975586 10.95416736602783 C 7.632341384887695 10.95416736602783 7.861822128295898 11.18364715576172 7.861822128295898 11.46571731567383 C 7.861822128295898 11.74778747558594 7.632341384887695 11.97726726531982 7.350271224975586 11.97726726531982 M 13.52365207672119 9.50794792175293 C 12.44412231445313 9.50794792175293 11.56585216522217 10.38619709014893 11.56585216522217 11.46571731567383 C 11.56585216522217 12.54522705078125 12.44412231445313 13.42347717285156 13.52365207672119 13.42347717285156 C 14.60318183898926 13.42347717285156 15.48144245147705 12.54522705078125 15.48144245147705 11.46571731567383 C 15.48144245147705 10.38619709014893 14.60318183898926 9.50794792175293 13.52365207672119 9.50794792175293 M 13.52365207672119 11.97726726531982 C 13.24157238006592 11.97726726531982 13.01209163665771 11.74778747558594 13.01209163665771 11.46571731567383 C 13.01209163665771 11.18364715576172 13.24157238006592 10.95416736602783 13.52365207672119 10.95416736602783 C 13.80573177337646 10.95416736602783 14.03521251678467 11.18364715576172 14.03521251678467 11.46571731567383 C 14.03521251678467 11.74778747558594 13.80573177337646 11.97726726531982 13.52365207672119 11.97726726531982 M 19.69704246520996 9.50794792175293 C 18.61751174926758 9.50794792175293 17.73924255371094 10.38619709014893 17.73924255371094 11.46571731567383 C 17.73924255371094 12.54522705078125 18.61751174926758 13.42347717285156 19.69704246520996 13.42347717285156 C 20.77657318115234 13.42347717285156 21.65483093261719 12.54522705078125 21.65483093261719 11.46571731567383 C 21.65483093261719 10.38619709014893 20.77657318115234 9.50794792175293 19.69704246520996 9.50794792175293 M 19.69704246520996 11.97726726531982 C 19.41496276855469 11.97726726531982 19.18547248840332 11.74778747558594 19.18547248840332 11.46571731567383 C 19.18547248840332 11.18364715576172 19.41496276855469 10.95416736602783 19.69704246520996 10.95416736602783 C 19.97911262512207 10.95416736602783 20.20859146118164 11.18364715576172 20.20859146118164 11.46571731567383 C 20.20859146118164 11.74778747558594 19.97911262512207 11.97726726531982 19.69704246520996 11.97726726531982 M 4.469352722167969 1.999996185302734 L 22.57795143127441 1.999996185302734 C 23.94174194335938 1.999996185302734 25.04730224609375 3.105546951293945 25.04730224609375 4.469316482543945 L 25.04730224609375 16.81589698791504 C 25.04730224609375 18.17966651916504 23.94174194335938 19.28521728515625 22.57795143127441 19.28521728515625 L 11.43293190002441 19.28521728515625 L 8.189842224121094 23.07150650024414 C 7.878921508789063 23.43501663208008 7.425271987915039 23.64531707763672 6.946931838989258 23.64767646789551 C 6.943887710571289 23.64769554138184 6.940818786621094 23.647705078125 6.937776565551758 23.647705078125 C 6.743770599365234 23.647705078125 6.551467895507813 23.61141777038574 6.370752334594727 23.54067611694336 C 5.725002288818359 23.3033275604248 5.294952392578125 22.6894474029541 5.292472839355469 22.00146675109863 L 5.292472839355469 19.28521728515625 L 4.469352722167969 19.28521728515625 C 3.105562210083008 19.28521728515625 2.000001907348633 18.17966651916504 2.000001907348633 16.81589698791504 L 2.000001907348633 4.469316482543945 C 2.000001907348633 3.105546951293945 3.105562210083008 1.999996185302734 4.469352722167969 1.999996185302734 Z M 22.57795143127441 17.63900756835938 C 23.03254318237305 17.63900756835938 23.40107154846191 17.27048683166504 23.40107154846191 16.81589698791504 L 23.40107154846191 4.469316482543945 C 23.40107154846191 4.014726638793945 23.03254318237305 3.646207809448242 22.57795143127441 3.646207809448242 L 4.469352722167969 3.646207809448242 C 4.014751434326172 3.646207809448242 3.646232604980469 4.014726638793945 3.646232604980469 4.469316482543945 L 3.646232604980469 16.81589698791504 C 3.646232604980469 17.27048683166504 4.014751434326172 17.63900756835938 4.469352722167969 17.63900756835938 L 5.292472839355469 17.63900756835938 C 6.201662063598633 17.63900756835938 6.938701629638672 18.37603759765625 6.938701629638672 19.28521728515625 L 6.938701629638672 22.00146675109863 L 10.18179130554199 18.21518707275391 C 10.49454307556152 17.84954071044922 10.95168304443359 17.63900756835938 11.43282890319824 17.63900756835938 C 11.43288803100586 17.63900756835938 11.43287372589111 17.63900756835938 11.43293190002441 17.63900756835938 L 22.57795143127441 17.63900756835938 Z M 7.350261688232422 9.407947540283203 L 7.350271224975586 9.407947540283203 C 8.486751556396484 9.407947540283203 9.408061981201172 10.32924747467041 9.408061981201172 11.46571731567383 C 9.408061981201172 12.60218715667725 8.486751556396484 13.52347755432129 7.350261688232422 13.52347755432129 C 6.213771820068359 13.52347755432129 5.292472839355469 12.60218715667725 5.292472839355469 11.46571731567383 C 5.292472839355469 10.32924747467041 6.213771820068359 9.407947540283203 7.350261688232422 9.407947540283203 Z M 7.350271224975586 11.8772668838501 C 7.57756233215332 11.8772668838501 7.761821746826172 11.69300746917725 7.761821746826172 11.46571731567383 C 7.761821746826172 11.23841667175293 7.57756233215332 11.05416679382324 7.350271224975586 11.05416679382324 C 7.122962951660156 11.05416679382324 6.938701629638672 11.23841667175293 6.938701629638672 11.46571731567383 C 6.938701629638672 11.69300746917725 7.122962951660156 11.8772668838501 7.350271224975586 11.8772668838501 Z M 13.52365207672119 9.407947540283203 C 14.66014194488525 9.407947540283203 15.58144187927246 10.32924747467041 15.58144187927246 11.46571731567383 C 15.58144187927246 12.60218715667725 14.66014194488525 13.52347755432129 13.52365207672119 13.52347755432129 C 12.38716220855713 13.52347755432129 11.46585178375244 12.60218715667725 11.46585178375244 11.46571731567383 C 11.46585178375244 10.32924747467041 12.38716220855713 9.407947540283203 13.52365207672119 9.407947540283203 Z M 13.52365207672119 11.8772668838501 C 13.75094223022461 11.8772668838501 13.93521213531494 11.69300746917725 13.93521213531494 11.46571731567383 C 13.93521213531494 11.23841667175293 13.75094223022461 11.05416679382324 13.52365207672119 11.05416679382324 C 13.29635238647461 11.05416679382324 13.11209201812744 11.23841667175293 13.11209201812744 11.46571731567383 C 13.11209201812744 11.69300746917725 13.29635238647461 11.8772668838501 13.52365207672119 11.8772668838501 Z M 19.69704246520996 9.407947540283203 C 20.83352279663086 9.407947540283203 21.75483322143555 10.32924747467041 21.75483322143555 11.46571731567383 C 21.75483322143555 12.60218715667725 20.83352279663086 13.52347755432129 19.69704246520996 13.52347755432129 C 18.56055068969727 13.52347755432129 17.63924217224121 12.60218715667725 17.63924217224121 11.46571731567383 C 17.63924217224121 10.32924747467041 18.56055068969727 9.407947540283203 19.69704246520996 9.407947540283203 Z M 19.69704246520996 11.8772668838501 C 19.92433166503906 11.8772668838501 20.10859298706055 11.69300746917725 20.10859298706055 11.46571731567383 C 20.10859298706055 11.23841667175293 19.92433166503906 11.05416679382324 19.69704246520996 11.05416679382324 C 19.46974182128906 11.05416679382324 19.28547286987305 11.23841667175293 19.28547286987305 11.46571731567383 C 19.28547286987305 11.69300746917725 19.46974182128906 11.8772668838501 19.69704246520996 11.8772668838501 Z" transform="translate(595 137)"/></g></g></g><g id="Group_2722" data-name="Group 2722" transform="translate(-19926 3021)"><g id="White-5" data-name="White"><g filter="url(#Ellipse_2650)" transform="matrix(1, 0, 0, 1, 136, 118)"><circle id="Ellipse_2650-2" cx="24.5" cy="24.5" r="24.5" fill="#fff" data-name="Ellipse 2650" transform="translate(1461 6)"/></g><path id="Path_15935" fill="#01355d" d="M9.221,9.27V5.484a1,1,0,0,0-1-1H5.435a1,1,0,0,0-1,1V8.27a1,1,0,0,0,1,1ZM5.435,2.484H8.221a3,3,0,0,1,3,3V10.27a1,1,0,0,1-1,1H5.435a3,3,0,0,1-3-3V5.484A3,3,0,0,1,5.435,2.484Zm9.4,1.786v5h5a1,1,0,0,0,1-1v-4a1,1,0,0,0-1-1h-4A1,1,0,0,0,14.839,4.27Zm5-3a3,3,0,0,1,3,3v4a3,3,0,0,1-3,3h-6a1,1,0,0,1-1-1v-6a3,3,0,0,1,3-3Zm-5,13.456v3.792a1,1,0,0,0,1,1h2.792a1,1,0,0,0,1-1V15.726a1,1,0,0,0-1-1Zm3.792,6.792H15.839a3,3,0,0,1-3-3V13.726a1,1,0,0,1,1-1h4.792a3,3,0,0,1,3,3v2.792A3,3,0,0,1,18.631,21.518ZM9.239,14.726h-5a1,1,0,0,0-1,1v4a1,1,0,0,0,1,1h4a1,1,0,0,0,1-1Zm-5,8a3,3,0,0,1-3-3v-4a3,3,0,0,1,3-3h6a1,1,0,0,1,1,1v6a3,3,0,0,1-3,3Z" data-name="Path 15935" transform="translate(1609.762 136.729)"/></g><circle id="FADE-3" cx="24.5" cy="24.5" r="24.5" fill="#fff" data-name="FADE" opacity=".7" transform="translate(1597 124)"/><g id="Green-5" data-name="Green" opacity="0"><circle id="Ellipse_2704" cx="24.5" cy="24.5" r="24.5" fill="#63d963" data-name="Ellipse 2704" transform="translate(1597 124)"/><path id="Path_16421" fill="#fff" d="M9.221,9.27V5.484a1,1,0,0,0-1-1H5.435a1,1,0,0,0-1,1V8.27a1,1,0,0,0,1,1ZM5.435,2.484H8.221a3,3,0,0,1,3,3V10.27a1,1,0,0,1-1,1H5.435a3,3,0,0,1-3-3V5.484A3,3,0,0,1,5.435,2.484Zm9.4,1.786v5h5a1,1,0,0,0,1-1v-4a1,1,0,0,0-1-1h-4A1,1,0,0,0,14.839,4.27Zm5-3a3,3,0,0,1,3,3v4a3,3,0,0,1-3,3h-6a1,1,0,0,1-1-1v-6a3,3,0,0,1,3-3Zm-5,13.456v3.792a1,1,0,0,0,1,1h2.792a1,1,0,0,0,1-1V15.726a1,1,0,0,0-1-1Zm3.792,6.792H15.839a3,3,0,0,1-3-3V13.726a1,1,0,0,1,1-1h4.792a3,3,0,0,1,3,3v2.792A3,3,0,0,1,18.631,21.518ZM9.239,14.726h-5a1,1,0,0,0-1,1v4a1,1,0,0,0,1,1h4a1,1,0,0,0,1-1Zm-5,8a3,3,0,0,1-3-3v-4a3,3,0,0,1,3-3h6a1,1,0,0,1,1,1v6a3,3,0,0,1-3,3Z" data-name="Path 16421" transform="translate(1609.762 136.729)"/></g></g></g></svg>