<svg xmlns="http://www.w3.org/2000/svg" width="31.922" height="28.839" fill="#fff"><path d="M20.133 26.934h0a1.97 1.97 0 0 0-.065-.273l-.957-3.095c-.025-.12-.063-.235-.114-.346h0a1.68 1.68 0 0 0-.652-.725h0a.53.53 0 0 0-.1-.053c-.02-.008-.037-.02-.057-.03l-2.264-.945-2.643-1.006c-.163.672-1.694 5.13-1.938 5.746l-.2-4.14a2.1 2.1 0 0 0 .159-.318l.64-1.262c-.537.414-1.2.63-1.877.615a2.98 2.98 0 0 1-1.845-.586l.627 1.238a2.89 2.89 0 0 0 .159.318l-.193 4.136c-.244-.62-1.775-5.074-1.938-5.746h0L4.23 21.468l-2.264.945a.37.37 0 0 0-.057.028l-.1.053a1.63 1.63 0 0 0-.652.725h0a1.72 1.72 0 0 0-.114.346L.087 26.66c-.03.1-.052.18-.065.273h0c-.013.083-.02.168-.02.252a1.65 1.65 0 0 0 1.649 1.649h16.867a1.65 1.65 0 0 0 1.649-1.649l-.034-.25zM14.38 12.8l.057-1.592c-.001-2.36-1.913-4.27-4.272-4.272h-.2c-2.36.001-4.27 1.913-4.272 4.272L5.75 12.8c-.106 0-1.06-.224-.957.92.216 2.43 1.144 1.96 1.173 1.96.32 1.154.965 2.193 1.857 2.993a4.21 4.21 0 0 0 2.15 1.03h.1a.69.69 0 0 0 .09 0 4.22 4.22 0 0 0 2.138-1.018 6.3 6.3 0 0 0 1.869-3.005c.03 0 .953.472 1.173-1.96.1-1.144-.853-.916-.953-.92zM23.358 0c-4.732 0-8.564 2.985-8.564 6.666a6.48 6.48 0 0 0 3.93 5.607 3.15 3.15 0 0 1-.737 1.45 29.4 29.4 0 0 1-.871.79c-.035.035-.053.084-.05.134-.002.104.07.194.17.216a1.22 1.22 0 0 0 .134.008c1.78.006 3.516-.55 4.964-1.584a10.41 10.41 0 0 0 1.022.049c4.732 0 8.564-2.985 8.564-6.666S28.086 0 23.358 0zm.326 10.43v1.177h-.713V10.46a3.32 3.32 0 0 1-1.73-.5l.273-.757a3.01 3.01 0 0 0 1.629.489c.8 0 1.348-.464 1.348-1.108 0-.623-.44-1.006-1.28-1.348-1.156-.452-1.87-.973-1.87-1.96a1.86 1.86 0 0 1 1.71-1.824v-1.14h.7v1.1a3.03 3.03 0 0 1 1.47.395l-.28.745c-.43-.257-.924-.4-1.425-.387-.87 0-1.2.52-1.2.973 0 .6.42.884 1.4 1.3C24.88 6.904 25.47 7.49 25.47 8.5a1.97 1.97 0 0 1-1.787 1.926z"/></svg>