<svg xmlns="http://www.w3.org/2000/svg" width="28.604" height="28.84" fill="#fff"><path d="M6.06 2.043h.614V5.4H6.06zm15.87 0h.614V5.4h-.614zM14.306 22.3a.8.8 0 1 1 .792-.8.8.8 0 0 1-.792.8zm13.18-19.632h-4.33v2.12h3.63v15.24H1.815V4.777h3.63v-2.12h-4.33A1.12 1.12 0 0 0-.002 3.774v18.168a1.12 1.12 0 0 0 .327.79c.21.2.494.326.8.325h26.37a1.11 1.11 0 0 0 1.117-1.114V3.773a1.12 1.12 0 0 0-1.115-1.116zm-7.513 25.118v1.065H8.63v-1.065c.002-.504.4-.9.914-.9h2.007V23.67h5.5v3.194h2a.91.91 0 0 1 .912.911z"/><path d="M18.78 11.247h1.583a.31.31 0 0 1 .175.052l2.007-2.006V.607A.61.61 0 0 0 21.933 0H6.67a.61.61 0 0 0-.611.607V19.4h16.485v-5.216l-3.467 3.467-3.053.877c-.076.023-.16.002-.216-.054s-.077-.14-.054-.216l.06-.2h-2.8c-.17 0-.307-.137-.307-.307s.137-.307.307-.307h2.967l.64-2.23.252-.252H8.24c-.17 0-.307-.137-.307-.307s.137-.307.307-.307h9.256l2.48-2.48h-1.2c-.17 0-.307-.137-.307-.307s.137-.307.307-.307zm-10.54 6.2h2.93c.17 0 .307.137.307.307s-.137.307-.307.307H8.24c-.17 0-.307-.137-.307-.307s.137-.307.307-.307zm0-15.472h12.122c.17 0 .307.137.307.307s-.137.307-.307.307H8.24c-.17 0-.307-.137-.307-.307s.137-.307.307-.307zm12.43 3.4c-.001.17-.138.306-.307.307h-7.645c-.17 0-.307-.137-.307-.307s.137-.307.307-.307h7.646c.082 0 .16.033.217.1a.31.31 0 0 1 .09.218zM8.24 5.06h2.7c.17 0 .307.137.307.307s-.137.307-.307.307h-2.7c-.17 0-.307-.137-.307-.307s.137-.307.307-.307zm8.584 6.8H8.24c-.17 0-.307-.137-.307-.307s.137-.307.307-.307h8.584c.17 0 .307.137.307.307s-.137.307-.307.307zM8.24 8.76c-.17 0-.307-.137-.307-.307s.137-.307.307-.307h12.122c.17 0 .307.137.307.307s-.137.307-.307.307zm16.3 2.57l-5.335 5.338-1.58-1.58 5.338-5.335z"/><path d="M22.952 9.75l.728-.728c.177-.14.432-.1.575.063l.94.94c.175.143.203.4.064.577l-.728.728zm-5.772 5.777l1.58 1.58-2.05.6a.1.1 0 0 1-.121-.121z"/></svg>