<svg xmlns="http://www.w3.org/2000/svg" width="64.128" height="64" viewBox="0 0 64.128 64"><g transform="translate(-0.976 -1.007)"><path d="M7.919,52.156a1.065,1.065,0,0,1-.864-.442A32.019,32.019,0,0,1,55.683,10.368a1.067,1.067,0,0,1-1.509,1.509A29.886,29.886,0,0,0,8.783,50.464a1.067,1.067,0,0,1-.864,1.693ZM33.042,65.007A31.915,31.915,0,0,1,10.4,55.646a1.067,1.067,0,1,1,1.509-1.509A29.885,29.885,0,0,0,57.333,15.593a1.067,1.067,0,0,1,1.733-1.246,32,32,0,0,1-26.024,50.66Z" fill="#263238"/><path d="M6.313,59.192a1.068,1.068,0,0,1-1.067-1.067v-5.25a1.068,1.068,0,0,1,1.067-1.067h5.253a1.067,1.067,0,1,1,0,2.134H7.38v4.183A1.068,1.068,0,0,1,6.313,59.192ZM50.084,10.171H44.831a1.067,1.067,0,1,1,0-2.134h4.185V3.853a1.067,1.067,0,1,1,2.134,0V9.1A1.068,1.068,0,0,1,50.084,10.171Z" transform="translate(4.844 2.018)" fill="#263238"/><g transform="translate(9.565 9.529)"><path d="M28.478,51.955A23.478,23.478,0,1,1,51.955,28.478,23.505,23.505,0,0,1,28.478,51.955Zm0-44.821A21.343,21.343,0,1,0,49.821,28.478,21.368,21.368,0,0,0,28.478,7.134Z" transform="translate(-5 -5)" fill="#263238"/><path d="M28.478,51.955A23.478,23.478,0,1,1,51.955,28.478,23.505,23.505,0,0,1,28.478,51.955Zm0-44.821A21.343,21.343,0,1,0,49.821,28.478,21.368,21.368,0,0,0,28.478,7.134Z" transform="translate(-5 -5)" fill="#263238"/><path d="M41.561,41.1a1.05,1.05,0,0,1-.3-.045,57.051,57.051,0,0,0-32.041,0,1.066,1.066,0,0,1-.6-2.047,59.175,59.175,0,0,1,33.24,0,1.068,1.068,0,0,1-.3,2.092Zm-16.319-28.3a59.053,59.053,0,0,1-11.6-1.153,1.068,1.068,0,1,1,.42-2.094,56.988,56.988,0,0,0,27.193-1.2,1.066,1.066,0,1,1,.6,2.047A58.808,58.808,0,0,1,25.242,12.807Z" transform="translate(-1.764 -1.235)" fill="#263238"/><path d="M17.071,51.872a1.067,1.067,0,0,1-.6-1.949,25.888,25.888,0,0,0,0-42.951,1.067,1.067,0,1,1,1.2-1.763,28.023,28.023,0,0,1,0,46.477A1.079,1.079,0,0,1,17.071,51.872Z" transform="translate(7.482 -4.97)" fill="#263238"/><path d="M22.386,49.319a1.063,1.063,0,0,1-.6-.186A27.989,27.989,0,0,1,16.2,7.647a1.067,1.067,0,1,1,1.618,1.392,25.852,25.852,0,0,0,5.165,38.33,1.069,1.069,0,0,1-.6,1.951Z" transform="translate(0.016 -2.417)" fill="#263238"/><path d="M16.567,50.148A1.068,1.068,0,0,1,15.5,49.081V6.62a1.067,1.067,0,0,1,2.134,0V49.083A1.066,1.066,0,0,1,16.567,50.148Z" transform="translate(6.91 -4.373)" fill="#263238"/><path d="M47.379,17.634H8.12a1.067,1.067,0,0,1,0-2.134H47.381a1.067,1.067,0,1,1,0,2.134Z" transform="translate(-2.671 6.91)" fill="#263238"/></g></g></svg>