<svg xmlns="http://www.w3.org/2000/svg" width="40.404" height="33.887" viewBox="0 0 40.404 33.887">
  <g id="Group_1164" data-name="Group 1164" transform="translate(0)">
    <g id="Group_1163" data-name="Group 1163">
      <g id="Group_1160" data-name="Group 1160" transform="translate(18.921)">
        <path id="Path_4127" data-name="Path 4127" d="M50.866,48.509H30.687a.652.652,0,0,1-.652-.652V34.94a2.1,2.1,0,0,1,1.354-1.922L36.861,30.8a.65.65,0,0,1,.82.3l2.92,5.518c.1.181.255.18.351,0L43.871,31.1a.653.653,0,0,1,.843-.289L50.245,33.3a2.1,2.1,0,0,1,1.272,1.887V47.857A.652.652,0,0,1,50.866,48.509Zm-19.527-1.3H50.214V35.188a.788.788,0,0,0-.5-.7h0l-4.974-2.24L42.1,37.227a1.5,1.5,0,0,1-2.655,0l-2.644-5-4.927,2a.8.8,0,0,0-.54.714V47.206Z" transform="translate(-30.035 -14.622)" fill="#fff"/>
        <path id="Path_4128" data-name="Path 4128" d="M43.023,21.266a6.6,6.6,0,0,1-6.539-6.636V12.635a6.54,6.54,0,1,1,13.078,0v1.995A6.6,6.6,0,0,1,43.023,21.266Zm0-13.963a5.291,5.291,0,0,0-5.236,5.333v1.995a5.237,5.237,0,1,0,10.472,0V12.636A5.292,5.292,0,0,0,43.023,7.3Z" transform="translate(-32.281 -6)" fill="#fff"/>
      </g>
      <g id="Group_1162" data-name="Group 1162" transform="translate(0 0.377)">
        <path id="Path_4129" data-name="Path 4129" d="M15.644,16.741a.651.651,0,0,1-.468-.2l-2.585-2.665H2.317A1.408,1.408,0,0,1,1,12.4V8.039a1.414,1.414,0,0,1,1.317-1.46H18.295A1.408,1.408,0,0,1,19.612,8.06V12.4a1.408,1.408,0,0,1-1.317,1.481h-2.3L16.29,16a.652.652,0,0,1-.646.742Zm-2.777-4.166a.65.65,0,0,1,.468.2L14.722,14.2l-.124-.888a.652.652,0,0,1,.645-.742h3.045c-.028,0,.018-.065.018-.178V8.06a.257.257,0,0,0-.064-.19L2.359,7.882a.323.323,0,0,0-.056.182V12.4a.26.26,0,0,0,.064.19Z" transform="translate(-1 -6.579)" fill="#fff"/>
        <g id="Group_1161" data-name="Group 1161" transform="translate(3.117 3.082)">
          <path id="Path_4130" data-name="Path 4130" d="M19.823,12.611H13.08a.652.652,0,0,1,0-1.3h6.744a.652.652,0,1,1,0,1.3Z" transform="translate(-8.098 -11.308)" fill="#fff"/>
          <path id="Path_4131" data-name="Path 4131" d="M8.313,12.611H6.435a.652.652,0,0,1,0-1.3H8.313a.652.652,0,0,1,0,1.3Z" transform="translate(-5.783 -11.308)" fill="#fff"/>
        </g>
      </g>
    </g>
  </g>
</svg>
