<svg xmlns="http://www.w3.org/2000/svg" width="588.022" height="554" viewBox="0 0 588.022 554">
  <g id="Development_focus-pana" data-name="Development focus-pana" transform="translate(-11.55 -28.23)">
    <g id="freepik--background-complete--inject-12" transform="translate(11.55 28.23)">
      <rect id="Rectangle_5820" data-name="Rectangle 5820" width="21.331" height="49.149" transform="translate(35.395 455.752)" fill="#ebebeb"/>
      <rect id="Rectangle_5821" data-name="Rectangle 5821" width="21.331" height="49.149" transform="translate(107.77 455.752)" fill="#ebebeb"/>
      <rect id="Rectangle_5822" data-name="Rectangle 5822" width="21.331" height="93.891" transform="translate(71.582 411.01)" fill="#f5f5f5"/>
      <rect id="Rectangle_5823" data-name="Rectangle 5823" width="21.331" height="93.891" transform="translate(143.945 411.01)" fill="#f5f5f5"/>
      <rect id="Rectangle_5824" data-name="Rectangle 5824" width="21.331" height="91.205" transform="translate(180.132 413.697)" fill="#ebebeb"/>
      <rect id="Rectangle_5825" data-name="Rectangle 5825" width="21.331" height="91.205" transform="translate(252.507 413.697)" fill="#ebebeb"/>
      <rect id="Rectangle_5826" data-name="Rectangle 5826" width="21.331" height="91.205" transform="translate(324.869 413.697)" fill="#ebebeb"/>
      <rect id="Rectangle_5827" data-name="Rectangle 5827" width="21.331" height="139.067" transform="translate(216.319 365.835)" fill="#f5f5f5"/>
      <rect id="Rectangle_5828" data-name="Rectangle 5828" width="21.331" height="125.461" transform="translate(288.682 379.441)" fill="#f5f5f5"/>
      <rect id="Rectangle_5829" data-name="Rectangle 5829" width="21.331" height="91.205" transform="translate(431.76 413.697)" fill="#ebebeb"/>
      <rect id="Rectangle_5830" data-name="Rectangle 5830" width="21.331" height="73.699" transform="translate(395.585 431.202)" fill="#f5f5f5"/>
      <rect id="Rectangle_5831" data-name="Rectangle 5831" width="21.331" height="139.884" transform="translate(507.452 365.018)" fill="#ebebeb"/>
      <rect id="Rectangle_5832" data-name="Rectangle 5832" width="21.331" height="73.699" transform="translate(471.265 431.202)" fill="#f5f5f5"/>
      <rect id="Rectangle_5833" data-name="Rectangle 5833" width="21.331" height="73.699" transform="translate(543.677 431.202)" fill="#f5f5f5"/>
      <rect id="Rectangle_5834" data-name="Rectangle 5834" width="21.331" height="106.235" transform="translate(361.056 398.667)" fill="#ebebeb"/>
      <path id="Path_41001" data-name="Path 41001" d="M200.024,324.784a5.5,5.5,0,1,1-5.484-5.484,5.5,5.5,0,0,1,5.484,5.484Z" transform="translate(30.694 41.05)" fill="#e0e0e0"/>
      <path id="Path_41002" data-name="Path 41002" d="M195.408,335.612a9.966,9.966,0,1,1,9.9-9.9A9.966,9.966,0,0,1,195.408,335.612Zm0-19.127a9.161,9.161,0,1,0,9.149,9.161A9.161,9.161,0,0,0,195.408,316.485Z" transform="translate(29.825 40.189)" fill="#e0e0e0"/>
      <path id="Path_41003" data-name="Path 41003" d="M198.483,315.681l-.285-10.8,2.7.05-5.039-6.165-5.039,6.215,2.8.012.285,10.659Z" transform="translate(31.12 36.164)" fill="#ebebeb"/>
      <path id="Path_41004" data-name="Path 41004" d="M55.769,379.264a5.484,5.484,0,1,1-5.484-5.484A5.484,5.484,0,0,1,55.769,379.264Z" transform="translate(-3.636 54.018)" fill="#e0e0e0"/>
      <path id="Path_41005" data-name="Path 41005" d="M51.146,390.262a9.966,9.966,0,1,1,9.966-9.966,9.966,9.966,0,0,1-9.966,9.966Zm0-19.127a9.149,9.149,0,1,1,0,.025Z" transform="translate(-4.497 53.197)" fill="#e0e0e0"/>
      <path id="Path_41006" data-name="Path 41006" d="M47.033,350.74l.3,11.229-2.81-.05,5.249,6.4,5.224-6.45-2.9-.025-.285-11.08Z" transform="translate(-3.702 48.534)" fill="#ebebeb"/>
      <path id="Path_41007" data-name="Path 41007" d="M281.493,331.78l.3,11.229-2.81-.05,5.237,6.4,5.237-6.462-2.9-.012-.3-11.08Z" transform="translate(52.104 44.021)" fill="#ebebeb"/>
      <path id="Path_41008" data-name="Path 41008" d="M411.208,433.577l-64.241-60.254c-40.694-19.647-103.536-48.6-110.865-48.2-8.208.483-163.988,61.9-223.314,85.547L11.55,407.74c8.666-3.479,213.917-85.151,224.3-85.77h.334c11.39,0,102.038,43.615,112.412,48.617l.384.272,62.743,58.855c11.91-6.277,80.174-42.3,81.338-42.811.409-.186,1.486-.631,95.328-.619v3.157c-36,0-90.14.087-94.251.421-3.565,1.807-54.795,28.833-81.969,43.17Z" transform="translate(-11.55 41.686)" fill="#e0e0e0"/>
      <path id="Path_41009" data-name="Path 41009" d="M289.749,362.354a5.484,5.484,0,1,1-5.484-5.484,5.485,5.485,0,0,1,5.484,5.484Z" transform="translate(52.056 49.993)" fill="#e0e0e0"/>
      <path id="Path_41010" data-name="Path 41010" d="M285.1,373.328a9.9,9.9,0,1,1,9.966-9.9A9.9,9.9,0,0,1,285.1,373.328Zm0-19.127a9.161,9.161,0,1,0,9.161,9.161A9.161,9.161,0,0,0,285.1,354.2Z" transform="translate(51.218 49.196)" fill="#e0e0e0"/>
      <path id="Path_41011" data-name="Path 41011" d="M407.549,375.564a5.484,5.484,0,1,1-5.484-5.484,5.484,5.484,0,0,1,5.484,5.484Z" transform="translate(80.095 53.137)" fill="#e0e0e0"/>
      <path id="Path_41012" data-name="Path 41012" d="M402.928,386.562a9.966,9.966,0,1,1,9.9-9.966A9.966,9.966,0,0,1,402.928,386.562Zm0-19.127a9.161,9.161,0,1,0,9.161,9.161A9.161,9.161,0,0,0,402.928,367.435Z" transform="translate(79.219 52.316)" fill="#e0e0e0"/>
      <path id="Path_41013" data-name="Path 41013" d="M399.1,348.19l.3,11.229-2.81-.049,5.237,6.4,5.237-6.462-2.909-.012-.285-11.08Z" transform="translate(80.097 47.927)" fill="#ebebeb"/>
      <path id="Path_41014" data-name="Path 41014" d="M406.491,273.957a48.01,48.01,0,1,1,48.778,47.5,48.01,48.01,0,0,1-48.778-47.5Zm70.951-1.151a22.953,22.953,0,1,0-22.581,23.423A22.953,22.953,0,0,0,477.441,272.805Z" transform="translate(82.453 18.711)" fill="#f5f5f5"/>
      <path id="Path_41015" data-name="Path 41015" d="M406.5,274.051a48.171,48.171,0,0,1,47.218-49l.4,25.169a23.055,23.055,0,0,0,.743,46.1l.409,25.169A48.159,48.159,0,0,1,406.5,274.051Z" transform="translate(82.455 18.617)" fill="#e0e0e0"/>
      <path id="Path_41016" data-name="Path 41016" d="M441.16,221.931c30.951-.5,55.711,23.522,56.157,54.634l-29.3.47c-.235-14.856-11.551-24.24-26.357-23.993Z" transform="translate(90.706 17.873)" fill="#ebebeb"/>
      <rect id="Rectangle_5835" data-name="Rectangle 5835" width="21.616" height="67.522" transform="translate(116.312 11.216)" fill="#ebebeb"/>
      <rect id="Rectangle_5836" data-name="Rectangle 5836" width="21.616" height="52.096" transform="translate(148.6 26.642)" fill="#ebebeb"/>
      <rect id="Rectangle_5837" data-name="Rectangle 5837" width="21.616" height="30.938" transform="translate(178.485 47.8)" fill="#ebebeb"/>
      <path id="Path_41017" data-name="Path 41017" d="M330.536,77.609V39.75A37.859,37.859,0,1,1,292.69,78.438Z" transform="translate(55.367 -25.488)" fill="#ebebeb"/>
      <path id="Path_41018" data-name="Path 41018" d="M324.846,66.052,287,66.906a39.971,39.971,0,0,1,10.716-27.231A38.96,38.96,0,0,1,324.264,28.23Z" transform="translate(54.013 -28.23)" fill="#f5f5f5"/>
      <path id="Path_41019" data-name="Path 41019" d="M55.111,246.142,81.6,225.1a33.81,33.81,0,1,1-47.5-5.484,33.131,33.131,0,0,1,7.577-4.531Z" transform="translate(-9.229 16.244)" fill="#f5f5f5"/>
      <path id="Path_41020" data-name="Path 41020" d="M42.8,212.421l9.322,24.525,19.722-16.763S61.4,209.425,42.8,212.421Z" transform="translate(-4.112 15.486)" fill="#e0e0e0"/>
    </g>
    <g id="freepik--Floor--inject-12" transform="translate(44.197 563.736)">
      <path id="Path_41021" data-name="Path 41021" d="M558.087,461.114c0,.173-116.448.322-260.071.322s-260.1-.149-260.1-.322,116.374-.334,260.1-.334S558.087,460.929,558.087,461.114Z" transform="translate(-37.92 -460.78)" fill="#263238"/>
    </g>
    <g id="freepik--light-bulb--inject-12" transform="translate(34.027 107.989)">
      <path id="Path_41022" data-name="Path 41022" d="M74.552,106.7a23.4,23.4,0,1,0-22.111,32.746l2.389,5.4,18.793-8.2s-1.238-3.1-2.352-5.819A23.386,23.386,0,0,0,74.552,106.7Z" transform="translate(-29.706 -92.655)" fill="#f8951d"/>
      <path id="Path_41023" data-name="Path 41023" d="M63.924,135.222a2.23,2.23,0,0,1-.087-.272l-.26-.817c-.21-.706-.532-1.77-.9-3.132s-.8-3.058-1.238-5.039a33.883,33.883,0,0,1-.656-6.809,21.393,21.393,0,0,1,.359-3.986,4.321,4.321,0,0,1,.891-1.956,2.389,2.389,0,0,1,2.067-.817,1.51,1.51,0,0,1,1.04.545,1.609,1.609,0,0,1,.4,1.139,3.343,3.343,0,0,1-1.028,2.154,6.413,6.413,0,0,1-9.186-.631,4.766,4.766,0,0,1-1.238-2.476,2.1,2.1,0,0,1,1.3-2.34,1.486,1.486,0,0,1,1.424.285,2.08,2.08,0,0,1,.743,1.238,4.568,4.568,0,0,1-.569,2.8,6.97,6.97,0,0,1-4.37,3.627,6.1,6.1,0,0,1-5.5-1.238,3.566,3.566,0,0,1-1.238-2.476,1.82,1.82,0,0,1,.52-1.362,1.783,1.783,0,0,1,1.374-.458,2.389,2.389,0,0,1,1.312.545,3.529,3.529,0,0,1,.867,1.1,6.636,6.636,0,0,1,.755,2.587,6.982,6.982,0,0,1-5.633,7.428,3.714,3.714,0,0,1-2.377-.186,1.808,1.808,0,0,1-1.015-2.006,1.461,1.461,0,0,1,.755-.891,2.08,2.08,0,0,1,1.114-.248,3.491,3.491,0,0,1,1.956.891c1.04.929,1.968,1.869,2.872,2.761,3.6,3.578,6.376,6.6,8.27,8.666.953,1.052,1.671,1.894,2.154,2.476l.619.743.173.223a1.794,1.794,0,0,1-.173-.223l-.569-.631c-.52-.557-1.238-1.374-2.2-2.414-1.907-2.092-4.7-5.088-8.319-8.666-.9-.879-1.857-1.832-2.885-2.736a3.219,3.219,0,0,0-1.82-.842,1.411,1.411,0,0,0-.73,2.711,3.541,3.541,0,0,0,2.216.149,6.735,6.735,0,0,0,5.41-7.193,6.611,6.611,0,0,0-.718-2.476,2.55,2.55,0,0,0-1.968-1.486,1.449,1.449,0,0,0-1.151.384,1.5,1.5,0,0,0-.433,1.151,3.219,3.219,0,0,0,1.238,2.315,5.831,5.831,0,0,0,5.237,1.238A6.7,6.7,0,0,0,56.9,115.08a4.346,4.346,0,0,0,.557-2.6,1.894,1.894,0,0,0-.644-1.077,1.238,1.238,0,0,0-1.164-.235,1.622,1.622,0,0,0-.916.8,2.08,2.08,0,0,0-.2,1.238,4.742,4.742,0,0,0,1.139,2.278,6.19,6.19,0,0,0,8.691.532,3,3,0,0,0,.966-1.968A1.374,1.374,0,0,0,64.1,112.6a2.179,2.179,0,0,0-1.857.73,4.123,4.123,0,0,0-.854,1.857,22.98,22.98,0,0,0-.371,3.937,34.813,34.813,0,0,0,.619,6.784c.359,1.981.78,3.714,1.127,5.039s.656,2.476.854,3.145c.1.359.161.631.223.817a2.387,2.387,0,0,1,.087.309Z" transform="translate(-26.865 -88.357)" fill="#263238"/>
      <path id="Path_41024" data-name="Path 41024" d="M68.671,132l-16.094,7.044a1.337,1.337,0,0,1-1.746-.681h0a1.325,1.325,0,0,1,.681-1.746l16.094-7.044a1.312,1.312,0,0,1,1.733.681h0A1.325,1.325,0,0,1,68.671,132Z" transform="translate(-24.704 -83.894)" fill="#263238"/>
      <path id="Path_41025" data-name="Path 41025" d="M68.837,132.381l-16.094,7.044a1.322,1.322,0,1,0,1.052,2.427l1.77-.78,4.308,3.454a1.709,1.709,0,0,0,1.746.235l5.757-2.476a1.671,1.671,0,0,0,1.015-1.449l.347-5.46,1.238-.52a1.348,1.348,0,1,0-1.065-2.476Z" transform="translate(-24.411 -83.225)" fill="#263238"/>
      <g id="Group_10829" data-name="Group 10829" transform="translate(2.059 8.14)" opacity="0.2">
        <path id="Path_41026" data-name="Path 41026" d="M32.967,106.831a17.332,17.332,0,0,1,3.058-4.729,12.17,12.17,0,0,1,2.885-2.4c.768-.446,1.238-.557,1.374-.409.272.347-1.1,1.634-2.662,4.048a19.276,19.276,0,0,0-.52,20.836c1.436,2.476,2.748,3.838,2.476,4.172s-.619,0-1.374-.47a12.7,12.7,0,0,1-2.761-2.538,16.862,16.862,0,0,1-2.835-4.865,18.187,18.187,0,0,1-1.238-6.846" transform="translate(-31.369 -99.23)" fill="#fff"/>
      </g>
      <g id="Group_10830" data-name="Group 10830" transform="translate(13.259 3.848)" opacity="0.2">
        <path id="Path_41027" data-name="Path 41027" d="M43.7,98.793c-1.374.582-2.736.73-3.182.074a1.238,1.238,0,0,1,.223-1.337,4.68,4.68,0,0,1,4.11-1.746c.619.087,1.028.359,1.127.743" transform="translate(-40.415 -95.763)" fill="#fff"/>
      </g>
      <path id="Path_41028" data-name="Path 41028" d="M66.542,139.575a11.068,11.068,0,0,1-1.238.149,9.78,9.78,0,0,0-2.885.854,9.9,9.9,0,0,0-2.476,1.684c-.569.532-.867.9-.9.879a3.715,3.715,0,0,1,.768-1.028,8.666,8.666,0,0,1,5.5-2.587,3.714,3.714,0,0,1,1.238.05Z" transform="translate(-22.723 -81.506)" fill="#455a64"/>
      <path id="Path_41029" data-name="Path 41029" d="M68.024,134.77c0,.074-2.86,1.411-6.45,2.984S55,140.54,55,140.465s2.86-1.4,6.45-2.971S68,134.709,68.024,134.77Z" transform="translate(-23.685 -82.631)" fill="#455a64"/>
      <path id="Path_41030" data-name="Path 41030" d="M67.458,136.68a9.519,9.519,0,0,1-1.51.854c-.966.5-2.3,1.139-3.788,1.82s-2.872,1.238-3.875,1.647a9.9,9.9,0,0,1-1.634.582,10.377,10.377,0,0,1,1.56-.768l3.825-1.721,3.813-1.746a11.141,11.141,0,0,1,1.609-.669Z" transform="translate(-23.292 -82.176)" fill="#455a64"/>
    </g>
    <g id="freepik--Chart--inject-12" transform="translate(253.226 300.664)">
      <rect id="Rectangle_5838" data-name="Rectangle 5838" width="107.993" height="71.211" rx="5.31" transform="translate(0.208 0.327)" fill="#fff"/>
      <path id="Path_41031" data-name="Path 41031" d="M308.389,319.824a5.947,5.947,0,0,0,.891-.1,6.189,6.189,0,0,0,2.476-.879,6.586,6.586,0,0,0,2.687-3.169c.681-1.56.4-3.566.446-5.744,0-8.8,0-21.5-.087-37.2V257.168a20.172,20.172,0,0,0-.136-3.256,6.364,6.364,0,0,0-4.135-4.7,9.223,9.223,0,0,0-3.38-.359H213.606a6.289,6.289,0,0,0-6.19,4.952,10.285,10.285,0,0,0-.136,2.154v56.417a7.094,7.094,0,0,0,.669,3.64,6.19,6.19,0,0,0,2.476,2.637,6.437,6.437,0,0,0,3.479.867h43.714l37.141.1h0l-37.141.1H213.9a7,7,0,0,1-3.714-.928,6.809,6.809,0,0,1-2.687-2.86,7.663,7.663,0,0,1-.718-3.875c0-10.387,0-21.282,0-32.585V256a10.834,10.834,0,0,1,.149-2.266,6.871,6.871,0,0,1,6.722-5.423H307.2a9.509,9.509,0,0,1,3.528.384,6.846,6.846,0,0,1,4.445,5.063,20.559,20.559,0,0,1,.136,3.355V272.68c0,15.7-.074,28.4-.1,37.2v3.107a6.636,6.636,0,0,1-3.281,5.905,6.19,6.19,0,0,1-2.476.842,5.519,5.519,0,0,1-1.065.087Z" transform="translate(-206.762 -248.286)" fill="#263238"/>
      <rect id="Rectangle_5839" data-name="Rectangle 5839" width="4.147" height="16.49" transform="translate(48.615 41.677)" fill="#f8951d"/>
      <rect id="Rectangle_5840" data-name="Rectangle 5840" width="4.147" height="18.88" transform="translate(14 39.288)" fill="#f8951d"/>
      <rect id="Rectangle_5841" data-name="Rectangle 5841" width="4.147" height="22.817" transform="translate(22.654 35.351)" fill="#f8951d"/>
      <rect id="Rectangle_5842" data-name="Rectangle 5842" width="4.147" height="21.566" transform="translate(31.307 36.601)" fill="#f8951d"/>
      <rect id="Rectangle_5843" data-name="Rectangle 5843" width="4.147" height="28.858" transform="translate(39.961 29.309)" fill="#f8951d"/>
      <rect id="Rectangle_5844" data-name="Rectangle 5844" width="4.147" height="28.722" transform="translate(57.269 29.445)" fill="#f8951d"/>
      <rect id="Rectangle_5845" data-name="Rectangle 5845" width="4.147" height="19.288" transform="translate(65.922 38.879)" fill="#f8951d"/>
      <rect id="Rectangle_5846" data-name="Rectangle 5846" width="4.147" height="27.459" transform="translate(74.576 30.708)" fill="#f8951d"/>
      <rect id="Rectangle_5847" data-name="Rectangle 5847" width="4.147" height="33.637" transform="translate(83.218 24.53)" fill="#f8951d"/>
      <rect id="Rectangle_5848" data-name="Rectangle 5848" width="4.147" height="27.595" transform="translate(91.871 30.572)" fill="#f8951d"/>
      <path id="Path_41032" data-name="Path 41032" d="M249.207,259.912c0,.173-7.354.322-16.429.322s-16.429-.149-16.429-.322,7.354-.322,16.429-.322S249.207,259.726,249.207,259.912Z" transform="translate(-204.48 -245.595)" fill="#263238"/>
    </g>
    <g id="freepik--speech-bubble--inject-12" transform="translate(523.344 87.28)">
      <path id="Path_41033" data-name="Path 41033" d="M429.756,80.93h51.861a4.729,4.729,0,0,1,4.742,4.742v51.861a4.729,4.729,0,0,1-4.742,4.742h-35.9l-14.435,11.885V142.274h-1.548a4.729,4.729,0,0,1-4.742-4.742V85.672a4.729,4.729,0,0,1,4.766-4.742Z" transform="translate(-424.937 -74.736)" fill="#fff"/>
      <path id="Path_41034" data-name="Path 41034" d="M0,.05H61.356V13.668A5.757,5.757,0,0,1,55.6,19.425H5.806A5.794,5.794,0,0,1,0,13.618V.05Z" transform="translate(61.434 25.606) rotate(180)" fill="#f8951d"/>
      <path id="Path_41035" data-name="Path 41035" d="M448.228,102.92v20.861h-4.816V106.8H439.24V102.92Z" transform="translate(-421.545 -69.502)" fill="#263238"/>
      <path id="Path_41036" data-name="Path 41036" d="M465.853,102.92v3.132l-7.75,17.728h-5.237l7.428-16.924h-6.921v3.392H449.09V102.92Z" transform="translate(-419.201 -69.502)" fill="#263238"/>
      <path id="Path_41037" data-name="Path 41037" d="M442.86,89.838c0,.111,4.222.2,9.421.2s9.409-.087,9.409-.2-4.209-.2-9.409-.2S442.86,89.739,442.86,89.838Z" transform="translate(-420.683 -72.663)" fill="#263238"/>
      <path id="Path_41038" data-name="Path 41038" d="M429.767,80.962a2.117,2.117,0,0,0-.322,0,4.221,4.221,0,0,0-.941.136,4.717,4.717,0,0,0-2.884,2.191,4.853,4.853,0,0,0-.669,2.612V137.28a5.286,5.286,0,0,0,.26,1.845,4.952,4.952,0,0,0,4.3,3.343h1.907l-.173-.186v12.281l.3-.248,14.448-11.885h35.779a4.729,4.729,0,0,0,1.647-.31,4.866,4.866,0,0,0,2.476-2.08,5.162,5.162,0,0,0,.607-1.535,8.036,8.036,0,0,0,.1-1.622v-49.5a16.817,16.817,0,0,0-.1-2.612,4.89,4.89,0,0,0-3.293-3.726,7.428,7.428,0,0,0-2.476-.235h-41l27.15.062h13.853a7.342,7.342,0,0,1,2.389.235,4.606,4.606,0,0,1,3.07,3.491,19.171,19.171,0,0,1,.087,2.55v49.57a7.993,7.993,0,0,1-.1,1.548,4.952,4.952,0,0,1-.557,1.411,4.543,4.543,0,0,1-2.414,2.154,9,9,0,0,1-3.132.285H445.675L431.2,154.092l.3.136V142.182h-2.055a4.42,4.42,0,0,1-1.733-.483,4.568,4.568,0,0,1-2.278-2.625,5.1,5.1,0,0,1-.235-1.733V89.2c0-2.34-.31-4.395.619-5.782a4.642,4.642,0,0,1,2.8-2.191A5.844,5.844,0,0,1,429.767,80.962Z" transform="translate(-424.947 -74.769)" fill="#263238"/>
      <rect id="Rectangle_5849" data-name="Rectangle 5849" width="3.999" height="13.853" rx="1.56" transform="translate(19.663 0.177)" fill="#e0e0e0"/>
      <path id="Path_41039" data-name="Path 41039" d="M442.833,89.957a2.476,2.476,0,0,1-1.139-.458,1.944,1.944,0,0,1-.669-1.238V78.122a1.758,1.758,0,0,1,.5-1.325,1.832,1.832,0,0,1,1.374-.508,1.77,1.77,0,0,1,1.312.594,1.919,1.919,0,0,1,.421,1.374c0,1.052,0,2.067,0,3.033v6.19a5.377,5.377,0,0,1,0,.9,1.944,1.944,0,0,1-.755,1.238,2.476,2.476,0,0,1-1.164.384.792.792,0,0,0,.334,0,2.03,2.03,0,0,0,.916-.3,1.994,1.994,0,0,0,.879-1.238,4.875,4.875,0,0,0,.062-.953V78.3a2.216,2.216,0,0,0-.52-1.622,2.182,2.182,0,0,0-3.85,1.486V88.336a1.969,1.969,0,0,0,.792,1.238,1.82,1.82,0,0,0,.891.359C442.722,89.995,442.833,89.97,442.833,89.957Z" transform="translate(-421.239 -75.927)" fill="#263238"/>
      <rect id="Rectangle_5850" data-name="Rectangle 5850" width="3.999" height="13.853" rx="1.56" transform="translate(38.395 0.177)" fill="#e0e0e0"/>
      <path id="Path_41040" data-name="Path 41040" d="M457.961,89.955a2.476,2.476,0,0,1-1.139-.458,1.943,1.943,0,0,1-.669-1.238V78.132a1.746,1.746,0,0,1,1.869-1.832,1.721,1.721,0,0,1,1.312.594,1.882,1.882,0,0,1,.433,1.374c0,1.052,0,2.067,0,3.033v6.19a4.256,4.256,0,0,1,0,.9,1.931,1.931,0,0,1-.743,1.238,2.476,2.476,0,0,1-1.164.384.792.792,0,0,0,.334,0,2.03,2.03,0,0,0,.916-.3,2.092,2.092,0,0,0,.879-1.238,4.88,4.88,0,0,0,.062-.953V78.305a2.216,2.216,0,0,0-.52-1.622,2.191,2.191,0,0,0-3.863,1.486c0,1.052,0,2.067,0,3.033v7.143a1.919,1.919,0,0,0,.792,1.238,1.733,1.733,0,0,0,.891.359C457.849,89.992,457.961,89.967,457.961,89.955Z" transform="translate(-417.635 -75.924)" fill="#263238"/>
    </g>
    <g id="freepik--character-2--inject-12" transform="translate(376.277 100.796)">
      <path id="Path_41041" data-name="Path 41041" d="M347.882,215.114l4.457,5.559V211.1h14.027s1.56,21.938,1.238,26.605a36.767,36.767,0,0,1-1.721,7.156,8.233,8.233,0,0,1-13.618,3.4,48.939,48.939,0,0,1-4.395-4.878c-6.19-8.022-16.59-27.546-16.59-27.546l10.808-6.524Z" transform="translate(-300.174 -57.693)" fill="#ffbe9d"/>
      <path id="Path_41042" data-name="Path 41042" d="M344,213.131a15.391,15.391,0,0,0,1.832,2.476c1.238,1.473,2.823,3.491,4.692,5.682a73.83,73.83,0,0,0,5.026,5.41,10.362,10.362,0,0,0,2.377,1.931,23.63,23.63,0,0,0-2.055-2.253c-1.238-1.374-2.971-3.343-4.841-5.522C347.293,216.437,344.136,212.97,344,213.131Z" transform="translate(-297.147 -56.787)" fill="#eb996e"/>
      <path id="Path_41043" data-name="Path 41043" d="M414.208,117.573l.631,50.945c.111,8.666-1.5,21.418-15.215,20.96h0c-11.86-1.238-15-12.516-15.091-20.6,0-3.838-.1-7.032-.124-7.428,0,0-12.987-1.065-14.089-13.891-.52-6.19-.582-19.053-.483-30.678a23.968,23.968,0,0,1,22.284-23.72l1.238-.1C406.731,92.862,414.382,104.128,414.208,117.573Z" transform="translate(-291.006 -85.366)" fill="#ffbe9d"/>
      <path id="Path_41044" data-name="Path 41044" d="M381.6,149.49a31.174,31.174,0,0,0,16.354-6.19s-3.392,9.681-16.292,9.458Z" transform="translate(-288.197 -73.407)" fill="#eb996e"/>
      <path id="Path_41045" data-name="Path 41045" d="M387.547,116.976c.26.26,1.733-.929,3.887-.99s3.714,1,3.974.718-.149-.594-.854-1.089a5.41,5.41,0,0,0-3.194-.9,5.15,5.15,0,0,0-3.083,1.127C387.633,116.37,387.423,116.865,387.547,116.976Z" transform="translate(-286.79 -80.213)" fill="#263238"/>
      <path id="Path_41046" data-name="Path 41046" d="M386.59,121.056a1.746,1.746,0,0,0,1.8,1.634,1.659,1.659,0,0,0,1.671-1.7,1.733,1.733,0,0,0-1.8-1.634,1.671,1.671,0,0,0-1.671,1.7Z" transform="translate(-287.01 -79.106)" fill="#263238"/>
      <path id="Path_41047" data-name="Path 41047" d="M384.169,131.793a13.211,13.211,0,0,0-3.244-.347c-.508,0-.99-.087-1.1-.421a2.476,2.476,0,0,1,.223-1.51c.384-1.238.792-2.575,1.238-3.949,1.671-5.621,2.835-10.214,2.612-10.276s-1.758,4.432-3.429,10.04c-.408,1.387-.792,2.7-1.151,3.962a2.86,2.86,0,0,0-.111,1.993,1.238,1.238,0,0,0,.879.681,3.068,3.068,0,0,0,.867,0,13.185,13.185,0,0,0,3.219-.173Z" transform="translate(-288.798 -80.074)" fill="#263238"/>
      <path id="Path_41048" data-name="Path 41048" d="M388.283,109.458c.21.483,1.931.124,3.986.235s3.714.557,3.986.1c.111-.223-.21-.656-.9-1.089a6.822,6.822,0,0,0-6.091-.248C388.542,108.827,388.2,109.272,388.283,109.458Z" transform="translate(-286.61 -81.844)" fill="#263238"/>
      <path id="Path_41049" data-name="Path 41049" d="M371.793,112.083c.223.384,1.907,0,3.937-.111s3.714.2,3.937-.21c.087-.2-.248-.545-.953-.854a7.057,7.057,0,0,0-3.008-.5,7.206,7.206,0,0,0-2.984.743C372.053,111.514,371.694,111.9,371.793,112.083Z" transform="translate(-290.535 -81.238)" fill="#263238"/>
      <path id="Path_41050" data-name="Path 41050" d="M405.38,120.722c.223-.111,8.666-3.256,9,5.534s-8.555,7.354-8.579,7.094S405.38,120.722,405.38,120.722Z" transform="translate(-282.537 -78.933)" fill="#ffbe9d"/>
      <path id="Path_41051" data-name="Path 41051" d="M407.781,129.346a3.547,3.547,0,0,0,.421.21,1.486,1.486,0,0,0,1.151,0,3.8,3.8,0,0,0,1.622-3.466,5.089,5.089,0,0,0-.52-2.179,1.77,1.77,0,0,0-1.238-1.127.768.768,0,0,0-.891.458c-.111.248,0,.421-.087.433s-.2-.136-.149-.508a.966.966,0,0,1,.334-.557,1.1,1.1,0,0,1,.829-.26,2.129,2.129,0,0,1,1.659,1.3,5.113,5.113,0,0,1,.631,2.476c0,1.77-.817,3.466-2.08,3.887a1.647,1.647,0,0,1-1.411-.173C407.806,129.581,407.756,129.346,407.781,129.346Z" transform="translate(-281.967 -78.395)" fill="#eb996e"/>
      <path id="Path_41052" data-name="Path 41052" d="M384.871,134.63c-.1-.223,1.622-.743,2.835-2.365a10.252,10.252,0,0,0,1.238-2.29c.248-.644.446-1.04.545-1.015s.062.458-.074,1.164a6.438,6.438,0,0,1-1.139,2.563,5.225,5.225,0,0,1-2.241,1.721C385.341,134.68,384.9,134.7,384.871,134.63Z" transform="translate(-287.42 -76.821)" fill="#263238"/>
      <path id="Path_41053" data-name="Path 41053" d="M356.082,106.845a2.055,2.055,0,0,1,.978-1.238,6.4,6.4,0,0,1,3.268-.52,18.707,18.707,0,0,0,9.657-2.934,42.958,42.958,0,0,1,4.482-5.447c3.887-4.011,7.094-6.735,10.4-8.072a29.874,29.874,0,0,1,15.9-1.238c4.469,1.176,8.48,4.791,9.1,9.372,2.476-2.117,6.264-2.1,9.31-.879h.074c3.392,1.238,5.324,4.791,6.326,8.258S427,111.3,428.828,114.41c.384.644.842,1.424.508,2.1a1.449,1.449,0,0,1-1.5.656,4.271,4.271,0,0,1-1.585-.718c.384.9.768,1.808,1.139,2.711a7.923,7.923,0,0,1-3.714-.235,79.054,79.054,0,0,1-2.414,9.124,5.262,5.262,0,0,0-3.59.879c-1.238,1.077-1.721,3.083-3.714,2.327-1-.4-1.919-2.476-2.266-3.528a50.177,50.177,0,0,1-2.167-21.195,15.81,15.81,0,0,0-4.952-3.578l.149.136c-3.578-1.238-7.639-2.476-11.043-.792-2.637,1.312-4.185,4.048-6.19,6.19a20.168,20.168,0,0,1-14.361,6.636c-.186,3.6.111,8.666-.074,12.38l-2.971-5.806h0c-.248-.433-.446-.854-.644-1.238l-.074-.124h0a19.8,19.8,0,0,0-1.015-2.055h0a2.253,2.253,0,0,1-3.293-3.021,5.049,5.049,0,0,1,1.089-1.089,3.566,3.566,0,0,1-3.4.879,2.81,2.81,0,0,1-1.981-2.773,2.4,2.4,0,0,1,1.424-1.907,7.948,7.948,0,0,1-4.568-1.015C356.664,108.826,355.773,107.972,356.082,106.845Z" transform="translate(-294.286 -86.845)" fill="#263238"/>
      <path id="Path_41054" data-name="Path 41054" d="M396.25,96.05a10.066,10.066,0,0,1,1.238,1.238,9.162,9.162,0,0,1,1.968,4.259,16.492,16.492,0,0,1,.322,3.256c0,1.238-.087,2.476-.173,3.788a33.42,33.42,0,0,0-.1,4.209,13.759,13.759,0,0,0,.285,2.216,4.7,4.7,0,0,0,.9,2.154,1.944,1.944,0,0,0,1.82.607,2.885,2.885,0,0,0,1.622-.916,6.574,6.574,0,0,0,1.238-3.268H405.1a11.068,11.068,0,0,0,1.56,2.686,3.875,3.875,0,0,0,2.476,1.362,2.476,2.476,0,0,0,1.325-.235,2.166,2.166,0,0,0,.9-.891,2.327,2.327,0,0,0,.272-1.127,1.6,1.6,0,0,0-.421-1l-.136.124a8.319,8.319,0,0,0,2.761,2.067,8.173,8.173,0,0,0,.854.334l.31.074-.3-.124c-.186-.087-.47-.2-.829-.371a8.592,8.592,0,0,1-2.662-2.1l-.124.124a1.659,1.659,0,0,1,.074,1.907,1.882,1.882,0,0,1-.8.78,2.191,2.191,0,0,1-1.238.2,3.578,3.578,0,0,1-2.315-1.238,10.487,10.487,0,0,1-1.51-2.637l-.186-.409-.074.446a6.475,6.475,0,0,1-1.238,3.12,2.625,2.625,0,0,1-1.449.817,1.646,1.646,0,0,1-1.547-.508,4.3,4.3,0,0,1-.829-2.018,13.306,13.306,0,0,1-.285-2.179,33.179,33.179,0,0,1,.074-4.172c.087-1.325.173-2.6.149-3.8a16.092,16.092,0,0,0-.371-3.306,9.013,9.013,0,0,0-2.08-4.284A5.274,5.274,0,0,0,396.25,96.05Z" transform="translate(-284.71 -84.654)" fill="#455a64"/>
      <path id="Path_41055" data-name="Path 41055" d="M364.18,109.916l.111.087a3.621,3.621,0,0,0,.322.235,2.833,2.833,0,0,0,.532.347,6.586,6.586,0,0,0,.792.421,11.365,11.365,0,0,0,5.484.978,14.448,14.448,0,0,0,7.75-2.86,25.268,25.268,0,0,0,6.648-7.663c.929-1.56,1.7-3.145,2.476-4.618a16.962,16.962,0,0,1,2.9-3.912,8.8,8.8,0,0,1,3.714-2.241,6.19,6.19,0,0,1,1.944-.223,6.994,6.994,0,0,1,1.8.347,7.428,7.428,0,0,1,4.123,3.491,8.889,8.889,0,0,1,.656,1.919v-.136a.942.942,0,0,0-.062-.4,6.7,6.7,0,0,0-.483-1.448,7.156,7.156,0,0,0-1.436-1.944,7.428,7.428,0,0,0-2.724-1.684,7.278,7.278,0,0,0-1.845-.384,6.685,6.685,0,0,0-2.018.223,9.025,9.025,0,0,0-3.825,2.278,17.333,17.333,0,0,0-2.934,3.962c-.854,1.486-1.609,3.07-2.538,4.618a25.033,25.033,0,0,1-6.549,7.589,14.547,14.547,0,0,1-7.6,2.872,11.427,11.427,0,0,1-5.435-.879A17.167,17.167,0,0,1,364.18,109.916Z" transform="translate(-292.344 -86.04)" fill="#455a64"/>
      <path id="Path_41056" data-name="Path 41056" d="M363.24,101.581a2.387,2.387,0,0,0,.458.322,12.118,12.118,0,0,0,1.362.693,13.928,13.928,0,0,0,2.167.706,14.188,14.188,0,0,0,5.534.173,13,13,0,0,0,2.191-.57,8.665,8.665,0,0,0,1.411-.607,1.969,1.969,0,0,0,.47-.285s-.73.31-1.944.693a15.118,15.118,0,0,1-2.179.5,15.885,15.885,0,0,1-2.724.161,14.968,14.968,0,0,1-4.841-.966C363.958,101.94,363.265,101.531,363.24,101.581Z" transform="translate(-292.567 -83.338)" fill="#455a64"/>
      <path id="Path_41057" data-name="Path 41057" d="M371.717,116.976c.26.26,1.746-.929,3.887-.99s3.714,1,3.986.718-.161-.594-.854-1.089a5.41,5.41,0,0,0-3.194-.9,5.15,5.15,0,0,0-3.083,1.127C371.8,116.37,371.593,116.865,371.717,116.976Z" transform="translate(-290.558 -80.213)" fill="#263238"/>
      <path id="Path_41058" data-name="Path 41058" d="M372.08,121.056a1.746,1.746,0,0,0,1.8,1.634,1.684,1.684,0,0,0,1.684-1.7,1.758,1.758,0,0,0-1.807-1.634,1.671,1.671,0,0,0-1.671,1.7Z" transform="translate(-290.463 -79.106)" fill="#263238"/>
      <path id="Path_41059" data-name="Path 41059" d="M430.621,426.05l2.662,32.04,9.409,24.76a3.293,3.293,0,0,1-2.117,4.321h0a3.281,3.281,0,0,1-2.971-.545c-5.373-4.16-24.76-19.449-24.971-21.443-.272-2.587-5.212-34.083-5.212-34.083Z" transform="translate(-282.052 -6.107)" fill="#455a64"/>
      <path id="Path_41060" data-name="Path 41060" d="M439.674,480.329,411.2,454.69l.285,2.377c.186,1.3.21,2.006,1.065,2.81a275.044,275.044,0,0,0,23.857,20.452C437.273,481.01,438.622,480.676,439.674,480.329Z" transform="translate(-281.152 0.71)" fill="#263238"/>
      <path id="Path_41061" data-name="Path 41061" d="M416.249,446.658a2.005,2.005,0,0,1,.817,2.538,1.931,1.931,0,0,1-2.476.829,2.1,2.1,0,0,1-.854-2.687,1.993,1.993,0,0,1,2.7-.582" transform="translate(-280.593 -1.249)" fill="#fff"/>
      <path id="Path_41062" data-name="Path 41062" d="M427.115,465.545c.186.074.73-1.684,2.476-2.786a9.9,9.9,0,0,1,3.6-1.089c0-.087-.409-.285-1.176-.309a5.2,5.2,0,0,0-4.742,3C426.991,465.049,426.991,465.532,427.115,465.545Z" transform="translate(-277.382 2.297)" fill="#263238"/>
      <path id="Path_41063" data-name="Path 41063" d="M429.3,468.535c.173.111,1.089-1.028,2.687-1.684a26.511,26.511,0,0,1,3.083-.73,3.627,3.627,0,0,0-3.355.087C429.9,466.963,429.131,468.535,429.3,468.535Z" transform="translate(-276.848 3.343)" fill="#263238"/>
      <path id="Path_41064" data-name="Path 41064" d="M423.2,461.536a34.291,34.291,0,0,1,3.974-2.86,32.815,32.815,0,0,1,4.63-1.609,9.013,9.013,0,0,0-8.6,4.469Z" transform="translate(-278.296 1.267)" fill="#263238"/>
      <path id="Path_41065" data-name="Path 41065" d="M421.89,453.217c.111.186,1.8-.743,4.085-1.065s4.172,0,4.222-.173A8.159,8.159,0,0,0,421.89,453.217Z" transform="translate(-278.607 -0.083)" fill="#263238"/>
      <path id="Path_41066" data-name="Path 41066" d="M421.072,445.657a16.093,16.093,0,0,1,4.222-1.238,15.808,15.808,0,0,1,4.345.619c0-.074-.347-.446-1.127-.792a7.142,7.142,0,0,0-3.268-.532,7.253,7.253,0,0,0-3.169.99C421.357,445.174,420.986,445.6,421.072,445.657Z" transform="translate(-278.805 -1.907)" fill="#263238"/>
      <path id="Path_41067" data-name="Path 41067" d="M425.228,444a2.934,2.934,0,0,0-.087-1.238A8.207,8.207,0,0,0,423.9,439.7a3.714,3.714,0,0,0-1.783-1.609,1.312,1.312,0,0,0-1.448.446,2.191,2.191,0,0,0-.359,1.5,4.655,4.655,0,0,0,4.519,3.85,5.41,5.41,0,0,0,4.952-3.367,1.869,1.869,0,0,0-.087-1.56,1.238,1.238,0,0,0-1.424-.532,4.456,4.456,0,0,0-1.981,1.312,9.212,9.212,0,0,0-1.919,2.711c-.334.718-.421,1.151-.371,1.164a14.5,14.5,0,0,1,2.625-3.516,4.284,4.284,0,0,1,1.77-1.1.706.706,0,0,1,.78.285,1.238,1.238,0,0,1,0,1.028,4.816,4.816,0,0,1-4.345,2.872,4.061,4.061,0,0,1-3.887-3.219,1.621,1.621,0,0,1,.21-1.052.706.706,0,0,1,.792-.26,3.343,3.343,0,0,1,1.535,1.337A12.529,12.529,0,0,1,425.228,444Z" transform="translate(-278.987 -3.256)" fill="#263238"/>
      <path id="Path_41068" data-name="Path 41068" d="M369.909,427.445l1.238,27.125s-27.175,10.313-27.447,15.351l52.69-.409-.111-42.353Z" transform="translate(-297.218 -5.843)" fill="#455a64"/>
      <path id="Path_41069" data-name="Path 41069" d="M379.486,447.35a2.154,2.154,0,0,1,1.5,2.476,2.055,2.055,0,0,1-2.4,1.51,2.266,2.266,0,0,1-1.585-2.6,2.154,2.154,0,0,1,2.686-1.238" transform="translate(-289.302 -1.037)" fill="#e0e0e0"/>
      <path id="Path_41070" data-name="Path 41070" d="M396.354,462.191l-.186-4.271-50.437,1.993s-2.34,1.04-2.068,2.687Z" transform="translate(-297.232 1.479)" fill="#263238"/>
      <path id="Path_41071" data-name="Path 41071" d="M365.14,449.131c0,.26,1.3.359,2.575,1.238s1.956,1.894,2.191,1.8-.161-1.585-1.721-2.55S365.078,448.9,365.14,449.131Z" transform="translate(-292.115 -0.664)" fill="#263238"/>
      <path id="Path_41072" data-name="Path 41072" d="M360.69,451.023c0,.248,1.065.681,1.944,1.758s1.139,2.228,1.4,2.216.409-1.461-.718-2.786S360.69,450.739,360.69,451.023Z" transform="translate(-293.174 -0.192)" fill="#263238"/>
      <path id="Path_41073" data-name="Path 41073" d="M358.6,457.179c.235.062.582-1.238-.087-2.637s-1.882-1.956-1.993-1.733.644.953,1.238,2.117S358.354,457.155,358.6,457.179Z" transform="translate(-294.169 0.251)" fill="#263238"/>
      <path id="Path_41074" data-name="Path 41074" d="M365.482,444.25c.1.235,1.238-.124,2.736,0s2.587.532,2.724.31-.966-1.127-2.674-1.238S365.346,444.052,365.482,444.25Z" transform="translate(-292.036 -1.998)" fill="#263238"/>
      <path id="Path_41075" data-name="Path 41075" d="M357.47,271.331c0,1.572,6.116,218.387,6.116,218.387h32.56L402.695,304.3s7.713,96.974,7.713,99.042,6.8,87.454,6.8,87.454l30.2-2.476-1.981-195.285L441.7,264.41Z" transform="translate(-293.941 -44.581)" fill="#263238"/>
      <path id="Path_41076" data-name="Path 41076" d="M398.015,295.579a6.408,6.408,0,0,1-1.325.545c-.867.322-2.117.755-3.714,1.238l-.3.1v-.31c-.186-2.612-.4-6.091-.582-9.9-.21-4.147-.359-7.9-.433-10.622,0-1.349-.062-2.476-.062-3.219a4.668,4.668,0,0,1,.062-1.176,3.712,3.712,0,0,1,.186,1.164c.074.768.173,1.857.26,3.219.2,2.711.421,6.462.631,10.6.186,3.825.334,7.317.409,9.9l-.31-.2c1.572-.483,2.847-.854,3.714-1.089a5.287,5.287,0,0,1,1.461-.248Z" transform="translate(-285.819 -42.719)" fill="#455a64"/>
      <path id="Path_41077" data-name="Path 41077" d="M395.061,272.982a.851.851,0,0,1,.433-.285,2.018,2.018,0,0,1,1.436.124,1.8,1.8,0,0,1,1.089,1.783,2.167,2.167,0,0,1-1.733,1.919,2.364,2.364,0,0,1-2.389-1.077,1.931,1.931,0,0,1,0-2.068,2.265,2.265,0,0,1,1.077-.9c.309-.111.508-.087.52,0a3.2,3.2,0,0,0-1.238,1.151,1.572,1.572,0,0,0,.087,1.572,1.844,1.844,0,0,0,1.758.78,1.671,1.671,0,0,0,1.238-1.374,1.362,1.362,0,0,0-.718-1.349,2.649,2.649,0,0,0-1.56-.272Z" transform="translate(-285.341 -42.679)" fill="#455a64"/>
      <path id="Path_41078" data-name="Path 41078" d="M406.982,275.489c-.173,0-.421-.929-.557-2.1s-.087-2.142.1-2.154.421.916.545,2.092S407.155,275.464,406.982,275.489Z" transform="translate(-282.307 -42.957)" fill="#455a64"/>
      <path id="Path_41079" data-name="Path 41079" d="M408.744,275.349c-.173,0-.322-1-.334-2.228s.136-2.241.31-2.241.334,1,.334,2.228S408.93,275.349,408.744,275.349Z" transform="translate(-281.816 -43.041)" fill="#455a64"/>
      <path id="Path_41080" data-name="Path 41080" d="M377.14,276.673a5.5,5.5,0,0,1-.607-2.476,5.954,5.954,0,0,1,0-2.587,5.559,5.559,0,0,1,.607,2.476A6.1,6.1,0,0,1,377.14,276.673Z" transform="translate(-289.432 -42.867)" fill="#455a64"/>
      <path id="Path_41081" data-name="Path 41081" d="M379.341,276.893a3.986,3.986,0,0,1-.792-2.637,3.863,3.863,0,0,1,.569-2.686,12.253,12.253,0,0,1,.074,2.662C379.255,275.68,379.527,276.832,379.341,276.893Z" transform="translate(-288.934 -42.876)" fill="#455a64"/>
      <path id="Path_41082" data-name="Path 41082" d="M373.621,273.53a6.585,6.585,0,0,1-.1.953,18.861,18.861,0,0,1-.656,2.538,26.976,26.976,0,0,1-4.024,7.738,28.475,28.475,0,0,1-6.363,6.19,20.133,20.133,0,0,1-2.315,1.411,4.514,4.514,0,0,1-.9.421c-.062-.087,1.176-.78,2.971-2.142a32.323,32.323,0,0,0,6.19-6.19,30.7,30.7,0,0,0,4.11-7.527C373.238,274.842,373.522,273.505,373.621,273.53Z" transform="translate(-293.515 -42.41)" fill="#455a64"/>
      <path id="Path_41083" data-name="Path 41083" d="M431.316,287.832a3.3,3.3,0,0,1-.99.161,16.011,16.011,0,0,1-2.724,0,17.988,17.988,0,0,1-8.344-3.1,16.688,16.688,0,0,1-5.559-6.661,14.4,14.4,0,0,1-.854-2.476,2.476,2.476,0,0,1-.124-.941c.1,0,.371,1.238,1.349,3.244a17.816,17.816,0,0,0,5.534,6.388,18.893,18.893,0,0,0,8.047,3.132C429.892,287.869,431.316,287.733,431.316,287.832Z" transform="translate(-280.791 -42.103)" fill="#455a64"/>
      <path id="Path_41084" data-name="Path 41084" d="M389.5,375.171c0,.149-5.447-1.1-12.058-2.773s-11.947-3.157-11.91-3.306,5.435,1.089,12.058,2.773S389.535,375.047,389.5,375.171Z" transform="translate(-292.022 -19.667)" fill="#455a64"/>
      <path id="Path_41085" data-name="Path 41085" d="M431.357,367.641c.074.136-4.618,2.748-10.486,5.831s-10.7,5.484-10.771,5.348,4.618-2.736,10.486-5.831S431.283,367.517,431.357,367.641Z" transform="translate(-281.414 -20.011)" fill="#455a64"/>
      <path id="Path_41086" data-name="Path 41086" d="M370.54,160.921l14.794-5.794,27.249-1.548,12.814,4.865L407.842,168.2l-15.129-.557Z" transform="translate(-290.83 -70.96)" fill="#ffbe9d"/>
      <path id="Path_41087" data-name="Path 41087" d="M359.394,300.177c1.337.223,90.623,4.024,90.623,4.024l-3.132-80.286-.26-15.76-5.076-47.75s-13.346-4.593-20.155-6.784c0,0-7.168,7.428-20.786,7.267-13.321-.2-16.094-3.206-16.094-3.206l-18.632,7.143s-13.234,4.754-15.512,10.61-6.289,38.28-6.289,38.28h19.313l-.371,57.556Z" transform="translate(-297.128 -70.951)" fill="#f8951d"/>
      <g id="Group_10831" data-name="Group 10831" transform="translate(118.398 121.023)" opacity="0.2">
        <path id="Path_41088" data-name="Path 41088" d="M401.79,185.6l2.773,20.242,13.4,5.98,9.9-8.443V184.6l-26.073,1" transform="translate(-401.79 -184.6)"/>
      </g>
      <path id="Path_41089" data-name="Path 41089" d="M427.32,190.117c0,.161-5.559.3-12.38.3s-12.38-.136-12.38-.3q6.179-.464,12.38-.31,6.194-.154,12.38.309Z" transform="translate(-283.208 -62.347)" fill="#263238"/>
      <path id="Path_41090" data-name="Path 41090" d="M351.59,178a3.081,3.081,0,0,1,.148.532c.087.4.211.9.347,1.548a52.614,52.614,0,0,0,1.783,5.695,87.926,87.926,0,0,0,3.714,8.369,93.465,93.465,0,0,1,4.147,10.944v.087c0,4.8-.062,10.077-.1,15.574-.136,12.269-.248,23.386-.334,31.5-.074,3.986-.124,7.23-.173,9.545a25.254,25.254,0,0,1-.074,2.587,5.125,5.125,0,0,1,0,.9,4.633,4.633,0,0,1,0-.9V252.232c0-8.109.1-19.214.161-31.5,0-5.5.1-10.758.136-15.562v.062c-1.349-4.011-2.637-7.725-4.036-10.919a88.8,88.8,0,0,1-3.578-8.456,43.418,43.418,0,0,1-1.647-5.769c-.124-.681-.223-1.238-.272-1.572a2.587,2.587,0,0,1-.223-.52Z" transform="translate(-295.34 -65.148)" fill="#263238"/>
      <path id="Path_41091" data-name="Path 41091" d="M428.428,170.37a11.322,11.322,0,0,1,0,1.708c0,1.238-.111,2.773-.173,4.667-.161,4.036-.371,9.421-.607,15.376s-.52,11.34-.706,15.376c-.1,1.882-.2,3.454-.26,4.655a8.056,8.056,0,0,1-.186,1.708,10.832,10.832,0,0,1,0-1.708c0-1.238.062-2.786.087-4.667.1-3.937.285-9.384.532-15.389s.52-11.439.78-15.376c.124-1.968.248-3.553.347-4.655A10.6,10.6,0,0,1,428.428,170.37Z" transform="translate(-277.519 -66.964)" fill="#263238"/>
      <g id="Group_10832" data-name="Group 10832" transform="translate(56.275 115.712)" opacity="0.3">
        <path id="Path_41092" data-name="Path 41092" d="M351.635,180.31a33.538,33.538,0,0,0,8.765,23.919C358.58,195.946,354.049,188.246,351.635,180.31Z" transform="translate(-351.61 -180.31)"/>
      </g>
      <g id="Group_10833" data-name="Group 10833" transform="translate(95.52 162.422)" opacity="0.3">
        <path id="Path_41093" data-name="Path 41093" d="M383.31,250.81a16.664,16.664,0,0,0,10.709-5.967,50.574,50.574,0,0,0,7.205-10.412,41.078,41.078,0,0,0,4.209-16.391C400.259,231.992,392.608,243.023,383.31,250.81Z" transform="translate(-383.31 -218.04)"/>
      </g>
      <path id="Path_41094" data-name="Path 41094" d="M407.825,213.13a2.677,2.677,0,0,1-.074.52l-.322,1.448c-.136.631-.334,1.4-.594,2.266s-.545,1.894-.941,2.971a70.4,70.4,0,0,1-3.083,7.5,79.712,79.712,0,0,1-4.952,8.666,77.508,77.508,0,0,1-6.054,7.874,66.7,66.7,0,0,1-5.658,5.732c-.854.78-1.684,1.411-2.4,1.993s-1.337,1.04-1.882,1.4l-1.238.842a2,2,0,0,1-.446.26,2.982,2.982,0,0,1,.384-.359l1.151-.929c.52-.384,1.127-.867,1.82-1.473s1.5-1.238,2.328-2.043a72.187,72.187,0,0,0,5.633-5.757,76.618,76.618,0,0,0,10.882-16.379,78.216,78.216,0,0,0,3.182-7.428c.421-1.065.718-2.055,1.015-2.922s.52-1.622.693-2.241.309-1.028.421-1.411a2.292,2.292,0,0,1,.136-.532Z" transform="translate(-288.535 -56.786)" fill="#263238"/>
      <path id="Path_41095" data-name="Path 41095" d="M408.389,192.84a6.571,6.571,0,0,1-.111.817c-.1.582-.235,1.362-.409,2.327s-.409,2.253-.768,3.714-.693,3.058-1.238,4.8l-.817,2.773c-.3.966-.669,1.944-1.015,2.959-.669,2.067-1.572,4.2-2.476,6.45a107.708,107.708,0,0,1-16.478,26.927c-1.6,1.832-3.083,3.6-4.618,5.138-.743.78-1.448,1.56-2.179,2.253l-2.092,1.981c-1.312,1.3-2.6,2.34-3.714,3.306s-2.092,1.733-2.922,2.352l-1.882,1.424a4.951,4.951,0,0,1-.681.47,3.715,3.715,0,0,1,.607-.557l1.82-1.51c.8-.644,1.77-1.449,2.847-2.476s2.352-2.043,3.64-3.355l2.055-2.006c.718-.693,1.4-1.486,2.142-2.266,1.51-1.535,2.971-3.306,4.556-5.15a120.888,120.888,0,0,0,9.149-12.814,122.186,122.186,0,0,0,7.242-13.977c.916-2.241,1.832-4.358,2.476-6.4.347-1.015.73-1.981,1.04-2.934s.569-1.869.842-2.748c.582-1.746.941-3.355,1.325-4.766s.669-2.625.867-3.627.4-1.733.52-2.315a3.835,3.835,0,0,1,.272-.792Z" transform="translate(-291.675 -61.616)" fill="#263238"/>
      <path id="Path_41096" data-name="Path 41096" d="M352.264,173.642c5.509,8.357,27.794,42.241,34.38,52.257a1.548,1.548,0,0,1-1.486,2.389l-39.617-4.952a1.6,1.6,0,0,1-1.052-.619l-37.821-51.65a1.56,1.56,0,0,1,1.374-2.476l40.731,3.021a4.506,4.506,0,0,1,3.491,2.03Z" transform="translate(-306.104 -67.388)" fill="#e0e0e0"/>
      <path id="Path_41097" data-name="Path 41097" d="M352.315,173.682a2.217,2.217,0,0,0-.309-.483,4.618,4.618,0,0,0-1.238-1.077,5.558,5.558,0,0,0-2.637-.644l-3.714-.3-23.522-1.845-7.775-.594-4.147-.322h-1.089a1.811,1.811,0,0,0-1.436,2.8l11.006,15.091L342.7,220.838c.582.78,1.089,1.51,1.708,2.315a1.907,1.907,0,0,0,.706.47,3.551,3.551,0,0,0,.768.161l1.4.173,5.534.693,10.833,1.362,20.5,2.55c.421,0,.78.111,1.238.136a1.808,1.808,0,0,0,1.312-.545,1.832,1.832,0,0,0,.545-1.3,2.167,2.167,0,0,0-.47-1.238c-.891-1.337-1.758-2.662-2.612-3.962-1.721-2.6-3.38-5.125-4.952-7.564-3.219-4.865-6.19-9.409-8.963-13.618L357.2,180.862l-3.566-5.323-.941-1.374a2.476,2.476,0,0,0-.347-.446s.087.173.285.483l.891,1.411L356.994,181l12.851,19.734,8.914,13.618,4.952,7.577,2.587,3.962a1.56,1.56,0,0,1,.384.941,1.312,1.312,0,0,1-.371.879,1.238,1.238,0,0,1-.879.359c-.347,0-.792-.087-1.238-.136l-20.464-2.587L352.9,223.97l-5.534-.693-1.4-.173a3.294,3.294,0,0,1-.619-.111,1.423,1.423,0,0,1-.458-.309c-.545-.755-1.1-1.51-1.659-2.253l-25.256-34.541-11.043-15.03a1.278,1.278,0,0,1,1-1.968h1.028l4.147.3,7.787.557,23.522,1.634,3.714.235a5.409,5.409,0,0,1,2.587.57A4.828,4.828,0,0,1,352.315,173.682Z" transform="translate(-306.155 -67.428)" fill="#263238"/>
      <path id="Path_41098" data-name="Path 41098" d="M306.63,170.58a4.146,4.146,0,0,0,.842.124l2.4.248,8.939.792,30.418,2.476-.235-.149c1.907,2.835,3.863,5.769,5.843,8.8,8.022,12.38,15.03,23.683,20.328,31.755,2.637,4.048,4.828,7.28,6.351,9.508l1.783,2.476a6.19,6.19,0,0,0,.669.867,7.966,7.966,0,0,0-.557-.941l-1.684-2.612-6.19-9.607c-5.187-8.134-12.145-19.511-20.18-31.867-1.968-3.033-3.937-5.98-5.856-8.8l-.087-.136h-.149l-30.443-2.253-8.963-.607-2.414-.124a6.252,6.252,0,0,0-.817.05Z" transform="translate(-306.042 -66.926)" fill="#263238"/>
      <path id="Path_41099" data-name="Path 41099" d="M326.46,176.54Z" transform="translate(-301.322 -65.495)" fill="#fff"/>
      <path id="Path_41100" data-name="Path 41100" d="M325.672,177.117a.792.792,0,0,1,.978-.582,2.129,2.129,0,0,1,1.065.594,1.052,1.052,0,0,1,.186,1.349c-.4.5-1.238.309-1.684-.1A1.387,1.387,0,0,1,325.672,177.117Z" transform="translate(-301.511 -65.503)" fill="#fff"/>
      <path id="Path_41101" data-name="Path 41101" d="M345.09,201.526s1.572-3.714-2.4-4.209a136.624,136.624,0,0,0-14.373,0s-5.682.594-4.482,4.68c0,0-3.367,3.008-1.572,6.252s2.476,2.278,2.476,2.278-.483,3.974,2.476,4.568c0,0,3.256,3.85,6.252,3.6s15.735-6.363,16.577-7.564,2.043-1.882,1.325-3.231c0,0,1.56-3.516-1.807-4.048C349.659,203.853,349.423,200.919,345.09,201.526Z" transform="translate(-302.446 -60.595)" fill="#ffbe9d"/>
      <path id="Path_41102" data-name="Path 41102" d="M326,202.069a10.438,10.438,0,0,0,2.687.2h6.45a37.525,37.525,0,0,0,6.487-.4c1.721-.4,2.389-1.4,2.3-1.411a7.007,7.007,0,0,1-2.389.966,64.138,64.138,0,0,1-6.413.173c-2.476,0-4.8.111-6.45.2a11.465,11.465,0,0,0-2.674.272Z" transform="translate(-301.431 -59.802)" fill="#eb996e"/>
      <path id="Path_41103" data-name="Path 41103" d="M328.31,207.782a2.6,2.6,0,0,0,.854.3,9.322,9.322,0,0,0,2.476.161,17.555,17.555,0,0,0,3.615-.656c1.337-.371,2.748-.879,4.234-1.337a19.166,19.166,0,0,1,4.271-.879,6.6,6.6,0,0,0,3.627-.73,2.092,2.092,0,0,0,.867-1.238,1.709,1.709,0,0,0-.149-1.127c-.31-.582-.743-.607-.73-.582a1.366,1.366,0,0,1,.5.681,1.548,1.548,0,0,1-.743,1.869,6.462,6.462,0,0,1-3.4.52,17.333,17.333,0,0,0-4.42.854l-4.222,1.411a19.466,19.466,0,0,1-3.479.768,22.286,22.286,0,0,1-3.293-.012Z" transform="translate(-300.881 -59.51)" fill="#eb996e"/>
      <path id="Path_41104" data-name="Path 41104" d="M331.74,211.832a10.843,10.843,0,0,0,2.674-.52c1.634-.409,3.863-1.052,6.3-1.845s4.605-1.609,6.19-2.241a10.326,10.326,0,0,0,2.476-1.164c0-.173-3.986,1.238-8.839,2.773S331.691,211.646,331.74,211.832Z" transform="translate(-300.065 -58.472)" fill="#eb996e"/>
      <path id="Path_41105" data-name="Path 41105" d="M330.92,215.6a5.671,5.671,0,0,0,2.216-.248,27.15,27.15,0,0,0,5.076-1.783c1.907-.879,3.578-1.758,4.779-2.4a8.1,8.1,0,0,0,1.907-1.151c-.087-.2-3.206,1.238-6.958,2.946S330.9,215.436,330.92,215.6Z" transform="translate(-300.26 -57.532)" fill="#eb996e"/>
      <path id="Path_41106" data-name="Path 41106" d="M445.359,189.912s-8.1,32.424-18.211,44.4c-9.793,11.588-25.144,6.264-30.455-8.74s-14.782-49.248-14.782-49.248l11.625-8.889,20.093,38.936,9.062-26.543Z" transform="translate(-288.123 -67.664)" fill="#ffbe9d"/>
      <path id="Path_41107" data-name="Path 41107" d="M385.261,182.793l-8.53-12.38a22.145,22.145,0,0,1-3.627-1.127c-.966-.569-1.919-5.472-1.894-6.438s-1.659-3.194-.978-3.825,2.959-.681,2.835-1.6c0-.2-1.7-2.253-.371-3.714a7.119,7.119,0,0,1,2.4-1.028l-.136-4.717s2.55-5.559,5.15-3.553c0,0,9.818,7.54,10.808,8.753s4.766,16.911,5.435,19.808" transform="translate(-290.942 -73.246)" fill="#ffbe9d"/>
      <path id="Path_41108" data-name="Path 41108" d="M396.416,173.078a4.129,4.129,0,0,0-.124-.842c-.136-.594-.3-1.374-.508-2.352-.458-2.055-1.151-4.952-2.08-8.666-.47-1.832-.99-3.825-1.647-5.955-.173-.532-.334-1.065-.557-1.609a3.714,3.714,0,0,0-1.164-1.424c-.891-.792-1.832-1.56-2.8-2.352q-2.916-2.358-6.19-4.865a7.071,7.071,0,0,0-1.8-1.238,2.476,2.476,0,0,0-2.216.532,10.213,10.213,0,0,0-2.612,3.528h0v1.523c0,1.1.074,2.191.1,3.268l.235-.3a10.971,10.971,0,0,0-1.733.582,2.563,2.563,0,0,0-.842.545,2.365,2.365,0,0,0-.47.867,2.934,2.934,0,0,0,.149,1.882,4.948,4.948,0,0,0,.384.817l.223.359v.087h0v.087c0,.087-.248.248-.483.347a6.741,6.741,0,0,1-.755.248c-.272.087-.532.161-.817.272a1.622,1.622,0,0,0-.817.569,1.4,1.4,0,0,0,0,1,4.952,4.952,0,0,0,.285.792c.21.508.446.978.619,1.448a1.92,1.92,0,0,1,.149.656,7.654,7.654,0,0,0,.087.8c.074.52.161,1.015.272,1.51a18.878,18.878,0,0,0,.792,2.847,3.715,3.715,0,0,0,.755,1.325,4.52,4.52,0,0,0,1.325.582c.867.272,1.708.483,2.476.669l-.136-.1,6.314,8.988,1.758,2.476a6.573,6.573,0,0,0,.644.817,5.013,5.013,0,0,0-.532-.891l-1.659-2.476-6.19-9.1v-.062h-.087c-.8-.2-1.647-.421-2.476-.693a4.084,4.084,0,0,1-1.151-.5,3.382,3.382,0,0,1-.594-1.114,20.833,20.833,0,0,1-.755-2.786c-.1-.483-.186-.978-.26-1.473,0-.248-.062-.508-.062-.73a2.761,2.761,0,0,0-.173-.854c-.2-.508-.433-.99-.631-1.461a6.344,6.344,0,0,1-.26-.718.953.953,0,0,1,0-.582,1.238,1.238,0,0,1,.52-.322l.768-.248a7.017,7.017,0,0,0,.817-.272,1.337,1.337,0,0,0,.8-.656.805.805,0,0,0,.062-.334.372.372,0,0,0-.062-.223v-.111l-.21-.359a4.359,4.359,0,0,1-.347-.73,2.34,2.34,0,0,1-.136-1.5,1.832,1.832,0,0,1,.359-.644,1.906,1.906,0,0,1,.631-.4,11.339,11.339,0,0,1,1.622-.545l.235-.062v-.235c0-1.077-.062-2.179-.1-3.281v-1.3a9.372,9.372,0,0,1,2.414-3.305,1.919,1.919,0,0,1,1.684-.446,7.106,7.106,0,0,1,1.609,1.089q3.231,2.488,6.19,4.828c.966.78,1.907,1.548,2.8,2.315a3.108,3.108,0,0,1,1.04,1.238c.21.508.384,1.04.557,1.56.669,2.1,1.238,4.1,1.708,5.905.941,3.59,1.708,6.512,2.266,8.6.248.966.458,1.746.607,2.327A7.778,7.778,0,0,0,396.416,173.078Z" transform="translate(-291.005 -73.312)" fill="#eb996e"/>
      <path id="Path_41109" data-name="Path 41109" d="M374.13,151.061c0,.111,1,0,2.55.186a17.619,17.619,0,0,1,2.687.607,12.466,12.466,0,0,0,3.466,0,6.562,6.562,0,0,1,5.472,1.783,6.809,6.809,0,0,1,1.312,2.092,3.145,3.145,0,0,0-1-2.389,6.463,6.463,0,0,0-2.34-1.647,7.056,7.056,0,0,0-3.479-.433,13.619,13.619,0,0,1-3.318,0,14.857,14.857,0,0,0-2.761-.5,7.069,7.069,0,0,0-2.587.3Z" transform="translate(-289.975 -71.635)" fill="#eb996e"/>
      <path id="Path_41110" data-name="Path 41110" d="M376.98,151.3c.149.074.545-.508.5-1.325s-.508-1.337-.644-1.238,0,.619,0,1.238S376.819,151.221,376.98,151.3Z" transform="translate(-289.347 -72.117)" fill="#eb996e"/>
      <path id="Path_41111" data-name="Path 41111" d="M372.25,155.291a21.256,21.256,0,0,0,7.428-.582,7.316,7.316,0,0,1,2.711-.334,2.934,2.934,0,0,1,1.77,1.151,17.167,17.167,0,0,1,.966,1.882,3.318,3.318,0,0,0-.619-2.117,3.244,3.244,0,0,0-2.006-1.473,7.044,7.044,0,0,0-2.947.309C375.556,154.982,372.238,155.118,372.25,155.291Z" transform="translate(-290.423 -70.913)" fill="#eb996e"/>
      <path id="Path_41112" data-name="Path 41112" d="M371.19,158.911a3.85,3.85,0,0,0,1.82,0c1.114-.124,2.612-.508,4.246-.829a9.668,9.668,0,0,1,2.29-.223,2.712,2.712,0,0,1,1.647.594,2.476,2.476,0,0,1,.8,1.436.755.755,0,0,0,.1-.5,2.006,2.006,0,0,0-.607-1.238,3.033,3.033,0,0,0-1.894-.842,8.8,8.8,0,0,0-2.476.186c-1.671.334-3.132.78-4.209,1A9.976,9.976,0,0,0,371.19,158.911Z" transform="translate(-290.675 -70.076)" fill="#eb996e"/>
      <path id="Path_41113" data-name="Path 41113" d="M373.562,161.46c-.111.087.718.953,2.253.953l-.3-.26c0,.26.062.52.087.78a8.393,8.393,0,0,0,.706,3.12,8.964,8.964,0,0,0-.1-3.182l-.111-.792v-.272h-.272A9.321,9.321,0,0,1,373.562,161.46Z" transform="translate(-290.113 -69.085)" fill="#eb996e"/>
      <path id="Path_41114" data-name="Path 41114" d="M426.466,159.06s16.577,4.011,16.552,26S438,217.9,438,217.9L407.45,201.264l6.809-17.122Z" transform="translate(-282.044 -69.656)" fill="#f8951d"/>
      <path id="Path_41115" data-name="Path 41115" d="M438.083,217.02a3.034,3.034,0,0,1-.631-.285c-.47-.223-1.052-.532-1.77-.891l-6.524-3.442-21.789-11.736-.248-.136.1-.26c.532-1.362,1.077-2.81,1.647-4.284l5.534-14.361,2.414-6.19a37.624,37.624,0,0,1,2.476-5.336,16.664,16.664,0,0,1,5.509-6.388,6.687,6.687,0,0,1,2.154-.854l.594-.087h.21a8.048,8.048,0,0,0-2.823,1.139,16.924,16.924,0,0,0-5.249,6.388,38.819,38.819,0,0,0-2.315,5.311l-2.365,6.252-5.559,14.349-1.647,4.284-.149-.384,21.69,11.922,6.425,3.6,1.708,1a2.474,2.474,0,0,1,.607.384Z" transform="translate(-282.123 -68.773)" fill="#263238"/>
    </g>
    <g id="freepik--character-1--inject-12" transform="translate(69.157 107.786)">
      <path id="Path_41116" data-name="Path 41116" d="M110.287,408.86l-28.7,26.258,32.473,35.9c3.244-3.318-6.685-28.1-6.685-28.1l17.939-17.332Z" transform="translate(-52.486 -17.188)" fill="#455a64"/>
      <path id="Path_41117" data-name="Path 41117" d="M96.127,426.3a1.968,1.968,0,0,0-2.587.508,1.882,1.882,0,0,0,.47,2.563,2.068,2.068,0,0,0,2.736-.545,1.968,1.968,0,0,0-.792-2.612" transform="translate(-49.715 -13.103)" fill="#fff"/>
      <path id="Path_41118" data-name="Path 41118" d="M81.59,430.6l2.984-2.773,29.911,35.692s.743,2.228-.557,3.058Z" transform="translate(-52.486 -12.673)" fill="#263238"/>
      <path id="Path_41119" data-name="Path 41119" d="M103.958,437.067c-.186.149-1.052-.656-2.4-1s-2.476-.149-2.575-.371,1.238-.879,2.8-.433S104.144,436.955,103.958,437.067Z" transform="translate(-48.347 -10.941)" fill="#fff"/>
      <path id="Path_41120" data-name="Path 41120" d="M105.41,441.055c-.136.2-1.114-.3-2.4-.211s-2.216.607-2.365.433.656-1.238,2.253-1.238S105.571,440.907,105.41,441.055Z" transform="translate(-47.955 -9.767)" fill="#fff"/>
      <path id="Path_41121" data-name="Path 41121" d="M102.429,446.221c-.223-.149.3-1.1,1.832-1.572s2.476,0,2.414.26-1.052.161-2.167.52S102.6,446.369,102.429,446.221Z" transform="translate(-47.537 -8.718)" fill="#fff"/>
      <path id="Path_41122" data-name="Path 41122" d="M106.869,434.033c-.223.074-.706-.953-1.671-1.882s-1.981-1.424-1.907-1.647,1.362,0,2.476,1.065S107.079,434,106.869,434.033Z" transform="translate(-47.321 -12.055)" fill="#fff"/>
      <path id="Path_41123" data-name="Path 41123" d="M109.616,431a6.3,6.3,0,0,1-1.609-1.807,10.6,10.6,0,0,1-1.127-2.4,11.139,11.139,0,0,1-.384-1.535,2.983,2.983,0,0,1-.074-.916,1.028,1.028,0,0,1,.867-.928,1.238,1.238,0,0,1,1.089.409,3.3,3.3,0,0,1,.52.755,9.3,9.3,0,0,1,.631,1.461,8.667,8.667,0,0,1,.409,2.637,3.95,3.95,0,0,1-.508,2.377,15.452,15.452,0,0,1-.074-2.34,9.446,9.446,0,0,0-.545-2.476,9.734,9.734,0,0,0-.619-1.325c-.248-.47-.532-.792-.792-.73s-.124,0-.161.223a2.2,2.2,0,0,0,0,.669,10.326,10.326,0,0,0,.322,1.448,12.853,12.853,0,0,0,.9,2.34A15.3,15.3,0,0,1,109.616,431Z" transform="translate(-46.577 -13.727)" fill="#fff"/>
      <path id="Path_41124" data-name="Path 41124" d="M108.622,430.343a4.116,4.116,0,0,1,1.312-2.043,8.207,8.207,0,0,1,2.191-1.535,8.886,8.886,0,0,1,1.5-.532,2.005,2.005,0,0,1,1.956.334,1.114,1.114,0,0,1,.173,1.238,3.381,3.381,0,0,1-.5.78,5.88,5.88,0,0,1-1.238,1.1,5.583,5.583,0,0,1-2.55.9,3.1,3.1,0,0,1-2.4-.47,18.473,18.473,0,0,0,2.315-.1,5.484,5.484,0,0,0,2.2-.966,4.955,4.955,0,0,0,1-.966c.334-.409.508-.83.347-.929a1.362,1.362,0,0,0-1.164-.1,7.745,7.745,0,0,0-1.374.433,8.669,8.669,0,0,0-2.1,1.238C109.229,429.687,108.746,430.418,108.622,430.343Z" transform="translate(-46.054 -13.082)" fill="#fff"/>
      <path id="Path_41125" data-name="Path 41125" d="M99.17,429.307l.371,38.9,48.394-.21c-.3-4.618-25.379-13.792-25.379-13.792l.792-24.934Z" transform="translate(-48.301 -12.33)" fill="#455a64"/>
      <path id="Path_41126" data-name="Path 41126" d="M106.269,447.779a1.968,1.968,0,0,0-1.362,2.253,1.882,1.882,0,0,0,2.228,1.362,2.08,2.08,0,0,0,1.424-2.4,1.969,1.969,0,0,0-2.476-1.151" transform="translate(-46.944 -7.936)" fill="#fff"/>
      <path id="Path_41127" data-name="Path 41127" d="M99.47,461.58v-4.16L145.933,459s2.154.941,1.907,2.476Z" transform="translate(-48.23 -5.63)" fill="#263238"/>
      <path id="Path_41128" data-name="Path 41128" d="M119.534,449.253c0,.235-1.238.347-2.34,1.114s-1.783,1.758-1.993,1.659.124-1.461,1.548-2.352S119.584,448.993,119.534,449.253Z" transform="translate(-44.499 -7.627)" fill="#fff"/>
      <path id="Path_41129" data-name="Path 41129" d="M123.411,450.9c0,.235-.966.644-1.77,1.647s-1.015,2.055-1.238,2.055-.4-1.349.619-2.575S123.411,450.675,123.411,450.9Z" transform="translate(-43.288 -7.204)" fill="#fff"/>
      <path id="Path_41130" data-name="Path 41130" d="M125.207,456.575c-.21,0-.545-1.127,0-2.476s1.708-1.807,1.808-1.622-.582.891-1.052,1.968S125.442,456.551,125.207,456.575Z" transform="translate(-42.174 -6.816)" fill="#fff"/>
      <path id="Path_41131" data-name="Path 41131" d="M119.284,444.759c-.1.223-1.238-.1-2.476,0s-2.365.532-2.476.322.867-1.052,2.476-1.139S119.4,444.573,119.284,444.759Z" transform="translate(-44.695 -8.84)" fill="#fff"/>
      <path id="Path_41132" data-name="Path 41132" d="M105.7,250.08s-6.784,7.255-10.115,14.212-8.443,21.789-8.443,21.789S80.766,308.725,82.19,319.4s10.956,83.665,10.956,83.665-1.882,57.865,6.289,83.6l1.5,6.834,27.236-4.841h0l6.042-143.251L150.863,250.7Z" transform="translate(-52.392 -54.981)" fill="#263238"/>
      <path id="Path_41133" data-name="Path 41133" d="M130.245,255.478c-.124,0-.087-.891-1.052-1.572a2.03,2.03,0,0,0-1.869-.2,1.944,1.944,0,0,0,0,3.627,1.993,1.993,0,0,0,1.857-.26c.953-.706.879-1.634,1-1.6s.1.2.062.569a2.216,2.216,0,0,1-.768,1.4,2.516,2.516,0,1,1-.074-3.925,2.167,2.167,0,0,1,.817,1.374C130.344,255.28,130.282,255.478,130.245,255.478Z" transform="translate(-42.087 -54.288)" fill="#455a64"/>
      <path id="Path_41134" data-name="Path 41134" d="M167.868,269.68s10,90.809,11.439,106.4-55.166,98.769-55.166,98.769L100.26,446.618l36.435-67.732-12.269-67.472,16.156-60.873,25.119.3Z" transform="translate(-48.042 -54.872)" fill="#263238"/>
      <path id="Path_41135" data-name="Path 41135" d="M92.7,454.834a18.06,18.06,0,0,0,.2,1.993c.161,1.3.483,3.219.941,5.683.9,4.952,2.377,12.108,4.358,21.046v.186h.186l27.335-4.791h.2v-.21c.755-18.731,1.671-41.115,2.637-65.12,1.015-25.825,1.944-49.768,2.711-69.416h0c2.043-15.785,3.714-28.834,4.952-37.97.569-4.531,1.015-8.1,1.325-10.548.149-1.238.26-2.129.334-2.773s.087-.953.087-.953-.062.309-.161.941-.235,1.572-.409,2.761c-.334,2.476-.829,6-1.461,10.536-1.238,9.124-3.008,22.173-5.138,37.945h0c-.8,19.647-1.77,43.591-2.823,69.416-.929,24.005-1.808,46.389-2.476,65.12l.21-.248-27.236,4.952.235.149c-2.03-8.926-3.553-16.094-4.531-21.046-.483-2.476-.842-4.37-1.04-5.658-.111-.656-.173-1.139-.223-1.473A1.087,1.087,0,0,0,92.7,454.834Z" transform="translate(-49.841 -45.013)" fill="#455a64"/>
      <path id="Path_41136" data-name="Path 41136" d="M126.08,286.086a11.039,11.039,0,0,1,1.486.074,6.76,6.76,0,0,0,3.85-.656,3.59,3.59,0,0,0,1.535-2.055,14.731,14.731,0,0,0,.47-3.132c.2-2.266.384-4.754.557-7.428.359-5.237.545-9.978.669-13.42.062-1.609.111-2.971.149-4.073a6.276,6.276,0,0,1,.124-1.486,6.276,6.276,0,0,1,.124,1.486c0,.966.062,2.365.062,4.085,0,3.442-.124,8.208-.483,13.457-.173,2.625-.384,5.113-.607,7.428a14.214,14.214,0,0,1-.557,3.231,3.937,3.937,0,0,1-1.82,2.29,4.952,4.952,0,0,1-2.315.607,9.411,9.411,0,0,1-1.77-.087,4.953,4.953,0,0,1-1.473-.322Z" transform="translate(-41.896 -54.069)" fill="#455a64"/>
      <path id="Path_41137" data-name="Path 41137" d="M156.49,268.837a9.251,9.251,0,0,1-2.6-1.374,26.94,26.94,0,0,1-9.322-10.622,9.286,9.286,0,0,1-1.028-2.761,48.122,48.122,0,0,0,5.46,8.27A49.062,49.062,0,0,0,156.49,268.837Z" transform="translate(-37.74 -54.029)" fill="#455a64"/>
      <path id="Path_41138" data-name="Path 41138" d="M84.59,186.871l10.882,39.493,4.8,21.046c0,18.1-4.8,26.357-4.8,26.357l74.021-3.714s1.238-50.09,0-59.561l-9.025-32.8-23.522-5.757-29.3.557Z" transform="translate(-51.772 -73.58)" fill="#f8951d"/>
      <path id="Path_41139" data-name="Path 41139" d="M166.784,231.112a4.877,4.877,0,0,1-.272-1.944,13.4,13.4,0,0,1,.829-4.692,13.049,13.049,0,0,1,2.414-4.1,4.73,4.73,0,0,1,1.473-1.238,23.76,23.76,0,0,0-3.343,5.608,23.276,23.276,0,0,0-1.1,6.363Z" transform="translate(-32.275 -62.345)" fill="#263238"/>
      <path id="Path_41140" data-name="Path 41140" d="M196.6,215.331l-19.226,11.489-10.907-27.942a128.073,128.073,0,0,0-6.3-11.984c-6.388-11.216-14.5-10.622-14.5-10.622l-9.78,14.522,10.387,22.284s6.314,41.263,18.57,44.457c18.706,4.952,31.755-42.167,31.755-42.167Z" transform="translate(-39.561 -72.55)" fill="#f8951d"/>
      <g id="Group_10834" data-name="Group 10834" transform="translate(37.04 148.438)" opacity="0.3">
        <path id="Path_41141" data-name="Path 41141" d="M88,288.751c8.666-.347,17.766-4.048,25.256-8.493s14.287-9.978,21.356-15.079c16.936-12.219,50.536-39.022,66.246-52.789l-4.556,1.028L90.55,281.831Z" transform="translate(-88 -212.39)"/>
      </g>
      <path id="Path_41142" data-name="Path 41142" d="M155.307,255.5a3.342,3.342,0,0,1,0-.73v-9.78c0-6.574.074-15.5.124-25.379,0-2.476.087-4.952-.062-7.205a42.1,42.1,0,0,0-.916-6.611,34.269,34.269,0,0,0-4.544-10.313c-1.659-2.786-2.971-5.076-3.714-6.722-.384-.817-.669-1.473-.842-1.919a3.082,3.082,0,0,1-.223-.693,2.836,2.836,0,0,1,.347.644c.21.433.52,1.065.953,1.857.842,1.6,2.216,3.838,3.925,6.6a34.169,34.169,0,0,1,4.729,10.412,41.894,41.894,0,0,1,.966,6.71c.161,2.352.087,4.779.074,7.255-.124,9.9-.235,18.793-.309,25.367-.074,3.182-.124,5.782-.173,7.688,0,.854-.062,1.548-.074,2.092A2.81,2.81,0,0,1,155.307,255.5Z" transform="translate(-37.362 -70.198)" fill="#263238"/>
      <path id="Path_41143" data-name="Path 41143" d="M154.777,157.519a4.952,4.952,0,0,1-4.643-2.08,5.819,5.819,0,0,0,3.565-.2,2.043,2.043,0,0,0,.854-3.008c-.669-.669-1.758-.557-2.7-.631a5.806,5.806,0,0,1-4.952-3.8c-.8-2.29-.074-4.791.21-7.205a19.808,19.808,0,0,0-8.307-18.335l-15.129-8.74c-5.472,7.02-7.193,16.478-6.054,25.305s4.952,17.134,9.4,24.76a29.577,29.577,0,0,0,4.556,6.277,11.613,11.613,0,0,0,6.8,3.479,6.982,6.982,0,0,0-1.127-6.326,15.277,15.277,0,0,0,11.254-4.024l-3.244-2.476a11.835,11.835,0,0,0,9.52-3Z" transform="translate(-43.988 -87.485)" fill="#263238"/>
      <path id="Path_41144" data-name="Path 41144" d="M100.544,132.76a14.2,14.2,0,0,1,10.288-13.346l18.954-5.4c8.22-1.127,14.014,8.864,14.856,17.134.867,9.174,1.51,18.88.631,25.776-1.77,13.878-12.294,15.958-12.294,15.958s.173,6.289.285,10.325L133.091,214l-27.979-30.208-4.544-50.845C100.494,132.7,100.532,133.082,100.544,132.76Z" transform="translate(-47.979 -87.388)" fill="#ae7461"/>
      <path id="Path_41145" data-name="Path 41145" d="M134.859,136.649a1.77,1.77,0,0,1-1.659,1.832,1.7,1.7,0,0,1-1.869-1.535,1.77,1.77,0,0,1,1.647-1.845,1.708,1.708,0,0,1,1.882,1.548Z" transform="translate(-40.647 -82.35)" fill="#263238"/>
      <path id="Path_41146" data-name="Path 41146" d="M135.913,132.576c-.21.248-1.585-.706-3.491-.644s-3.268,1.052-3.479.829.1-.52.693-.99a4.853,4.853,0,0,1,2.786-.941,4.58,4.58,0,0,1,2.786.8C135.814,132.069,136.024,132.477,135.913,132.576Z" transform="translate(-41.23 -83.366)" fill="#263238"/>
      <path id="Path_41147" data-name="Path 41147" d="M121.379,136.67a1.77,1.77,0,0,1-1.659,1.832,1.7,1.7,0,0,1-1.869-1.535,1.77,1.77,0,0,1,1.647-1.845,1.7,1.7,0,0,1,1.882,1.548Z" transform="translate(-43.855 -82.346)" fill="#263238"/>
      <path id="Path_41148" data-name="Path 41148" d="M121.355,133c-.223.235-1.585-.718-3.491-.644s-3.281,1.052-3.491.829.111-.52.706-.99a4.952,4.952,0,0,1,2.786-.953,4.8,4.8,0,0,1,2.786.8A1.779,1.779,0,0,1,121.355,133Z" transform="translate(-44.698 -83.268)" fill="#263238"/>
      <path id="Path_41149" data-name="Path 41149" d="M125.364,147.657a12.6,12.6,0,0,1,3.083-.656c.483-.062.941-.173,1.015-.508a2.588,2.588,0,0,0-.371-1.436c-.5-1.164-1.015-2.377-1.548-3.652-2.167-5.212-3.714-9.508-3.541-9.595s2.142,4.073,4.3,9.285c.52,1.238,1.028,2.476,1.5,3.714a2.835,2.835,0,0,1,.31,1.894,1.238,1.238,0,0,1-.78.743,3.715,3.715,0,0,1-.817.136,12.381,12.381,0,0,1-3.145.074Z" transform="translate(-42.394 -83.132)" fill="#263238"/>
      <path id="Path_41150" data-name="Path 41150" d="M111.79,158s4.754,9.359,18.57,7.639l-.087-3.244A34.789,34.789,0,0,1,111.79,158Z" transform="translate(-45.297 -76.898)" fill="#6f4439"/>
      <path id="Path_41151" data-name="Path 41151" d="M120.965,127.959c-.161.52-2.08.334-4.308.669s-4.011,1-4.321.545c-.136-.21.161-.706.879-1.238A7.428,7.428,0,0,1,116.4,126.7a7.217,7.217,0,0,1,3.392.3C120.594,127.315,121.039,127.711,120.965,127.959Z" transform="translate(-45.175 -84.368)" fill="#263238"/>
      <path id="Path_41152" data-name="Path 41152" d="M135.182,127.91c-.322.446-1.659,0-3.231,0s-2.909.384-3.231,0c-.136-.21,0-.656.631-1.089a4.469,4.469,0,0,1,2.6-.78,4.382,4.382,0,0,1,2.6.792C135.12,127.229,135.268,127.7,135.182,127.91Z" transform="translate(-41.279 -84.505)" fill="#263238"/>
      <path id="Path_41153" data-name="Path 41153" d="M119.336,148a2.476,2.476,0,0,1,2.476-1.968,2.625,2.625,0,0,1,2.043,1.362,3.219,3.219,0,0,1,.186,2.476v.186a2.86,2.86,0,0,1-3.169.768A2.649,2.649,0,0,1,119.336,148Z" transform="translate(-43.509 -79.747)" fill="#6f4439"/>
      <path id="Path_41154" data-name="Path 41154" d="M125.3,150.311c0-.3-1.931-.149-3.429-1.684S120.42,145,120.16,145s-.347.483-.3,1.349a4.816,4.816,0,0,0,1.325,3.021,4.222,4.222,0,0,0,2.86,1.238C124.852,150.683,125.31,150.435,125.3,150.311Z" transform="translate(-43.379 -79.992)" fill="#263238"/>
      <path id="Path_41155" data-name="Path 41155" d="M105.7,112.9a19.152,19.152,0,0,1,11.142-7.614c4.494-.792,7.193,0,10.152,2.687a11.241,11.241,0,0,0,4.457,2.637c2.154.421,3.962,0,6.537,1.374,3.5,1.8,5.051,6.5,6.673,10.09,2.03,4.469,4.952,8.579,6.19,13.3s.619,10.523-3.367,13.4c.768-4.036,1.387-8.518-.817-11.972-1.7-2.637-4.7-4.085-6.871-6.351-2.612-2.724-2.946-6.363-5.682-8.963-6.252-5.93-17.258,4.506-28.474-8.579" transform="translate(-46.761 -89.515)" fill="#263238"/>
      <path id="Path_41156" data-name="Path 41156" d="M144.7,130.22a40.533,40.533,0,0,0-6.19-11.142,21.7,21.7,0,0,0-28.846-3.714l-1.089.087a18.3,18.3,0,0,0,14.237,6.859c3.244,0,6.76-.854,9.545.817s3.714,4.952,5.893,7.181c1.5,1.51,3.516,2.476,4.952,3.986a16.094,16.094,0,0,1,3.07,5.955C147.3,136.942,146.02,133.426,144.7,130.22Z" transform="translate(-46.064 -87.967)" fill="#263238"/>
      <path id="Path_41157" data-name="Path 41157" d="M120.41,118.31l-8.852-7.787c-6.9-.359-11.328,6.19-13.692,11.142-1.758,3.714-2.3,7.923-3.627,11.848s-3.541,7.738-4.779,11.8-1.411,8.778,1.028,12.244l1.548-2.835a17.171,17.171,0,0,0,4.643,10.6l.594-2.959a16.639,16.639,0,0,0,6.661,7.168l4.147,11.142C114.2,162.012,98.436,160.638,120.41,118.31Z" transform="translate(-50.823 -88.202)" fill="#263238"/>
      <path id="Path_41158" data-name="Path 41158" d="M118.309,119.866a40.062,40.062,0,0,1-2.08,7.428,14.324,14.324,0,0,1-4.556,6.1c-3.033,2.191-6.933,2.637-10.56,3.516s-7.515,2.55-9.013,5.98a85.508,85.508,0,0,1,3.107-14.856c1.622-5.348,3.962-10.783,8.406-14.151a15.426,15.426,0,0,1,14.534-2.179" transform="translate(-49.984 -88.136)" fill="#263238"/>
      <path id="Path_41159" data-name="Path 41159" d="M107.326,137.971c-.186-.47-8.765-3.293-8.666,5.744.149,8.79,8.951,6.809,8.963,6.549S107.326,137.971,107.326,137.971Z" transform="translate(-48.423 -81.852)" fill="#ae7461"/>
      <path id="Path_41160" data-name="Path 41160" d="M104.455,146.457a2.621,2.621,0,0,1-.409.235,1.572,1.572,0,0,1-1.139,0,3.8,3.8,0,0,1-1.82-3.355,5.039,5.039,0,0,1,.4-2.2,1.721,1.721,0,0,1,1.127-1.238.755.755,0,0,1,.9.4c.124.248.074.421.124.433s.186-.149.1-.508a.929.929,0,0,0-.347-.545,1.238,1.238,0,0,0-.854-.21,2.142,2.142,0,0,0-1.572,1.387,5.324,5.324,0,0,0-.483,2.476c.087,1.77,1.028,3.4,2.3,3.714a1.671,1.671,0,0,0,1.4-.26C104.443,146.667,104.492,146.469,104.455,146.457Z" transform="translate(-47.991 -81.313)" fill="#6f4439"/>
      <path id="Path_41161" data-name="Path 41161" d="M103.306,146.384a1.733,1.733,0,1,0,1.362,2.29,1.8,1.8,0,0,0-.941-2.167" transform="translate(-47.794 -79.668)" fill="#fff"/>
      <path id="Path_41162" data-name="Path 41162" d="M103.757,146.506a2.29,2.29,0,0,1,.817,1.151,1.5,1.5,0,0,1-.3,1.387,1.54,1.54,0,0,1-2.724-.718,1.51,1.51,0,0,1,.47-1.337,2.476,2.476,0,0,1,1.312-.545.744.744,0,0,0-.409-.074,1.82,1.82,0,0,0-1.746,2.006,1.882,1.882,0,0,0,3.367.978,1.758,1.758,0,0,0,.3-1.708,1.807,1.807,0,0,0-.693-.929C103.918,146.506,103.757,146.482,103.757,146.506Z" transform="translate(-47.825 -79.666)" fill="#263238"/>
      <path id="Path_41163" data-name="Path 41163" d="M115.37,120.472a25.888,25.888,0,0,0-3.38-5.67,25.454,25.454,0,0,0-5.15-4.172,4.952,4.952,0,0,1,1.857.743,14.225,14.225,0,0,1,3.714,3.046,14.448,14.448,0,0,1,2.476,4.11A5.2,5.2,0,0,1,115.37,120.472Z" transform="translate(-46.476 -88.173)" fill="#455a64"/>
      <path id="Path_41164" data-name="Path 41164" d="M301.53,140.78a6.476,6.476,0,0,1,.26,1.065c.136.718.4,1.746.582,3.107a72.28,72.28,0,0,1,.929,11.563,79.233,79.233,0,0,1-1.832,17.1,69.329,69.329,0,0,1-2.786,9.793,65.611,65.611,0,0,1-4.482,9.9,66.639,66.639,0,0,1-6.116,9.062A77.486,77.486,0,0,1,281.1,209.8a70.892,70.892,0,0,1-14.027,9.9,55.9,55.9,0,0,1-10.721,4.432,30.936,30.936,0,0,1-3.058.78,6.45,6.45,0,0,1-1.077.21,9.433,9.433,0,0,1,1.052-.334c.681-.21,1.721-.433,3.008-.891a60.927,60.927,0,0,0,10.573-4.593,71.805,71.805,0,0,0,13.841-10,77.668,77.668,0,0,0,6.9-7.428,63.683,63.683,0,0,0,10.548-18.731,70.568,70.568,0,0,0,2.8-9.706,82.353,82.353,0,0,0,1.238-28.474c-.136-1.362-.371-2.4-.458-3.12a6.424,6.424,0,0,1-.186-1.065Z" transform="translate(-11.872 -80.997)" fill="#263238"/>
      <path id="Path_41165" data-name="Path 41165" d="M325.627,137.86a57.863,57.863,0,1,0,.012,0Zm-49.521-30.034a70.926,70.926,0,0,1,43,33.687,71.251,71.251,0,1,1-42.972-33.687Z" transform="translate(-29.507 -91.237)" fill="#263238"/>
      <path id="Path_41166" data-name="Path 41166" d="M194.034,193.394a2.861,2.861,0,0,1-.31-.57c-.21-.47-.483-1.028-.792-1.721a23.4,23.4,0,0,1-1.127-2.786c-.384-1.1-.891-2.34-1.238-3.714-.2-.718-.4-1.461-.619-2.228s-.347-1.6-.532-2.476c-.4-1.684-.619-3.528-.879-5.46a63.238,63.238,0,0,1,2.2-25.095c.594-1.857,1.127-3.627,1.82-5.224.334-.792.607-1.585.953-2.315l1-2.08a38.233,38.233,0,0,1,1.882-3.491,25.406,25.406,0,0,1,1.585-2.476l1.127-1.659a2.684,2.684,0,0,1,.421-.52,2.71,2.71,0,0,1-.31.594l-.978,1.609c-.433.693-.953,1.548-1.486,2.587s-1.238,2.167-1.783,3.516c-.309.669-.631,1.362-.953,2.08s-.594,1.523-.916,2.315c-.656,1.585-1.164,3.355-1.746,5.2a64.822,64.822,0,0,0-2.191,24.859c.26,1.919.446,3.714.817,5.423.173.842.3,1.659.5,2.476s.4,1.51.582,2.216a34.52,34.52,0,0,0,1.151,3.714c.359,1.052.693,2.043,1,2.8s.508,1.238.681,1.758A2.55,2.55,0,0,1,194.034,193.394Z" transform="translate(-27.126 -83.186)" fill="#263238"/>
      <path id="Path_41167" data-name="Path 41167" d="M202.455,193.169a4.791,4.791,0,0,1-2.563-1.51c-1.238-1.127-1.845-2.34-1.708-2.476s.99.891,2.154,1.956S202.541,193.008,202.455,193.169Z" transform="translate(-24.738 -69.479)" fill="#263238"/>
      <path id="Path_41168" data-name="Path 41168" d="M185.46,138.293A77.7,77.7,0,1,1,294.084,238.758h0A77.686,77.686,0,0,1,185.46,138.293Zm136.182,63.387a30.12,30.12,0,1,1-.074,0Z" transform="translate(-29.495 -92.276)" fill="#455a64"/>
      <path id="Path_41169" data-name="Path 41169" d="M256.192,250.35a79.43,79.43,0,0,1-21.294-2.934,78.441,78.441,0,0,1-47.577-37.252,78.891,78.891,0,1,1,68.871,40.186Zm-.235-155.508a12.1,12.1,0,1,0,.05-.062Zm.235,150.3a73.853,73.853,0,1,1,66.853-42.724h0a73.811,73.811,0,0,1-66.853,42.662Zm-.223-145.084a71.31,71.31,0,1,0,64.687,101.381h0a71.458,71.458,0,0,0-2.476-65.107A70.728,70.728,0,0,0,275.233,102.7a71.57,71.57,0,0,0-19.214-2.711Z" transform="translate(-29.735 -92.491)" fill="#455a64"/>
      <path id="Path_41170" data-name="Path 41170" d="M66.211,295.272l-1.4-2.216c-3-4.742.409-12.269,3.714-14.349L215.12,186.165c.73-.47,1.869,0,2.538,1.065l9.842,15.562c.669,1.065.607,2.3-.136,2.761L81.612,297.562C78.306,299.654,69.207,300.013,66.211,295.272Z" transform="translate(-56.754 -70.238)" fill="#455a64"/>
      <path id="Path_41171" data-name="Path 41171" d="M176.07,220.988l4.444-4.7s-.52-10.734,1.3-13.346l.966-1.585s-.953-5.212,1.845-6.413c.792-1.981,1.82-2.773,3.206-1.684,0,0-.78-3.925,2.885-4.444s4.7,16.094,4.7,16.094,1.832,7.428-2.352,7.428c0,0-2.352,2.612-4.952,2.872,0,0-.792,4.444-4.457,4.185Z" transform="translate(-29.997 -69.567)" fill="#ae7461"/>
      <path id="Path_41172" data-name="Path 41172" d="M187.642,208.59a1.336,1.336,0,0,1,.421.532,3.046,3.046,0,0,1,.21,1.845,4.135,4.135,0,0,1-1.374,2.377,8.53,8.53,0,0,1-2.922,1.6,20.463,20.463,0,0,1-5.831,1.151,7.02,7.02,0,0,1-2.476-.124,37.771,37.771,0,0,0,8.084-1.572,8.592,8.592,0,0,0,2.761-1.461,3.8,3.8,0,0,0,1.325-2.055,3.714,3.714,0,0,0-.2-2.29Z" transform="translate(-30.093 -64.857)" fill="#6f4439"/>
      <path id="Path_41173" data-name="Path 41173" d="M188.553,206.61c-.186,0-.186-3.33-.99-7.341s-2.043-7.106-1.869-7.168a6.9,6.9,0,0,1,.966,1.968,30.95,30.95,0,0,1,1.473,5.088,31.275,31.275,0,0,1,.569,5.262,7.13,7.13,0,0,1-.149,2.191Z" transform="translate(-27.711 -68.781)" fill="#6f4439"/>
      <path id="Path_41174" data-name="Path 41174" d="M186,208.047c-.173,0-.5-3.244-1.325-7.181s-1.857-7.057-1.7-7.106A34.9,34.9,0,0,1,186,208.047Z" transform="translate(-28.356 -68.386)" fill="#6f4439"/>
      <path id="Path_41175" data-name="Path 41175" d="M190.351,205.191c.136-.074.681.953.322,2.241s-1.337,1.919-1.411,1.77.57-.817.854-1.919S190.177,205.253,190.351,205.191Z" transform="translate(-26.859 -65.667)" fill="#6f4439"/>
      <path id="Path_41176" data-name="Path 41176" d="M181.983,207.371a22.024,22.024,0,0,1-.347-4.085,23.525,23.525,0,0,1-.161-4.085A17.332,17.332,0,0,1,181.983,207.371Z" transform="translate(-28.717 -67.092)" fill="#6f4439"/>
      <path id="Path_41177" data-name="Path 41177" d="M104.772,238.748a13.618,13.618,0,0,1,4.308-3.937c2.922-1.721,8.753-2.4,9.9-4.358s2.9,0,1.931,2.563c-.619,1.609-4.841,5.336-4.841,5.336s3.825,1.746,6.784.693,12.838-2.1,13.618-.607c.867,1.684-1.684,1.733-2.847,2.129-.879.309-7.676,2.253-7.676,2.253s12.467,1.857,13.915,2.724-.433,2.142-1.238,2.018c-.5,0-2.971,1.436-4.729,2.563a5.67,5.67,0,0,1-4.024.817l-2.885-.483,8.567,2.476s1.238,1.659-.978,1.993c-.99.149-28.2-.891-30.282-1.151-3.59-.446-9.372-.607-9.372-.607l4.457-16.243Z" transform="translate(-49.31 -59.842)" fill="#ae7461"/>
      <path id="Path_41178" data-name="Path 41178" d="M132.73,244.34a19.288,19.288,0,0,1-6.19.706,19.2,19.2,0,0,1-6.19-.768c0-.161,2.786.186,6.19.186S132.705,244.179,132.73,244.34Z" transform="translate(-43.26 -56.372)" fill="#6f4439"/>
      <path id="Path_41179" data-name="Path 41179" d="M92.039,241.725l12.467-25.689L93.5,182.61a22.4,22.4,0,0,0-8.282,7.255c-3.925,5.324-8.171,16.651-8.171,16.651s-13.618,31.074-15.81,35.7-5.843,13.234,0,18.038,44.915,4.952,44.915,4.952l4.147-17.332Z" transform="translate(-58.081 -71.04)" fill="#f8951d"/>
      <path id="Path_41180" data-name="Path 41180" d="M86.7,196.75c.173,0,3.083,8.666,6.5,19.4s6.054,19.536,5.893,19.6-3.083-8.666-6.512-19.4S86.528,196.812,86.7,196.75Z" transform="translate(-51.271 -67.675)" fill="#263238"/>
      <path id="Path_41181" data-name="Path 41181" d="M107.253,236.865a6.944,6.944,0,0,1-1.448-.322l-3.825-1.089c-3.268-.929-7.775-2.29-12.789-3.59s-9.619-2.29-13-2.179a16.094,16.094,0,0,0-5.311,1.052,4.258,4.258,0,0,1,1.312-.693,12.232,12.232,0,0,1,3.986-.817c3.466-.223,8.146.706,13.185,2.006s9.52,2.748,12.752,3.788c1.622.52,2.922.966,3.825,1.238A5.5,5.5,0,0,1,107.253,236.865Z" transform="translate(-55.035 -59.953)" fill="#263238"/>
      <g id="Group_10835" data-name="Group 10835" transform="translate(38.207 137.568)" opacity="0.3">
        <path id="Path_41182" data-name="Path 41182" d="M89.014,203.61a129.149,129.149,0,0,0,1.114,21.752l3.5-7.032c-.569-3.6-3.169-10.833-4.432-14.262" transform="translate(-88.942 -203.61)"/>
      </g>
      <rect id="Rectangle_5851" data-name="Rectangle 5851" width="16.181" height="58.323" transform="translate(240.397 53.209)" fill="#f8951d"/>
      <rect id="Rectangle_5852" data-name="Rectangle 5852" width="16.181" height="26.481" transform="translate(189.7 87.54)" fill="#f8951d"/>
      <rect id="Rectangle_5853" data-name="Rectangle 5853" width="16.181" height="40.867" transform="translate(214.708 73.142)" fill="#f8951d"/>
      <path id="Path_41183" data-name="Path 41183" d="M272.884,119.91a3.106,3.106,0,0,1-.4.508l-1.238,1.424-4.568,5.237c-3.974,4.482-9.5,10.7-15.859,17.889l-.186.2-.223-.149-9.9-6.487h.421l-.371.446-21.046,24.637-.136.161-.161-.124-7.9-5.868-2.129-1.622a5.615,5.615,0,0,1-.718-.594,4.2,4.2,0,0,1,.792.5l2.2,1.523,8.01,5.695h-.309l20.861-24.76.384-.446.173-.21.248.149,9.9,6.512h-.409l16.094-17.728c1.968-2.154,3.553-3.875,4.7-5.113l1.238-1.349A2.8,2.8,0,0,1,272.884,119.91Z" transform="translate(-22.286 -85.964)" fill="#263238"/>
      <path id="Path_41184" data-name="Path 41184" d="M263.452,132.363a22.282,22.282,0,0,1-.223-3.714c-.062-2.3-.1-5.5-.1-9.025l.371.309h-.322c-3.553.582-6.784,1.077-9.137,1.411a23.313,23.313,0,0,1-3.813.4,23.014,23.014,0,0,1,3.714-.854c2.328-.433,5.546-1,9.112-1.6h.693v.384c0,3.528,0,6.722-.1,9.025A20.777,20.777,0,0,1,263.452,132.363Z" transform="translate(-12.346 -86.112)" fill="#263238"/>
    </g>
  </g>
</svg>
