<svg xmlns="http://www.w3.org/2000/svg" width="63.999" height="64" viewBox="0 0 63.999 64"><g transform="translate(0 0.011)"><rect width="62.124" height="42.374" rx="5" transform="translate(0.937 7.053)" fill="#918291"/><path d="M65.874,56.5A38.624,38.624,0,0,1,27.25,95.124H7.5a3.75,3.75,0,0,0,3.75,3.75H65.874a3.75,3.75,0,0,0,3.75-3.75V60.25a3.75,3.75,0,0,0-3.75-3.75Z" transform="translate(-6.563 -49.447)" fill="#7a6d79"/><rect width="34.874" height="54.624" rx="1" transform="translate(59.311 10.802) rotate(90)" fill="#eaf6ff"/><path d="M204.124,89.511a.875.875,0,0,0-.211-.57A38.629,38.629,0,0,1,165.5,123.51h37.749a.875.875,0,0,0,.875-.875Z" transform="translate(-144.813 -77.833)" fill="#d8ecfe"/><path d="M221.476,404.465h-7.131L212.47,395.5h10.881Z" transform="translate(-185.912 -346.073)" fill="#7a6d79"/><path d="M222.089,399.667l-9.174-.169-.445-4h10.881Z" transform="translate(-185.912 -346.073)" fill="#685e68"/><path d="M155.762,11.25V48.5a3.75,3.75,0,0,1-3.75,3.75H126.1a3.75,3.75,0,0,1-3.75-3.75V15.75L130.6,7.5h21.412A3.75,3.75,0,0,1,155.762,11.25Z" transform="translate(-107.057 -6.572)" fill="#ffead8"/><path d="M152.012,7.5V36.172A12.327,12.327,0,0,1,139.681,48.5H122.35a3.75,3.75,0,0,0,3.75,3.75h25.912a3.75,3.75,0,0,0,3.75-3.75V11.25A3.75,3.75,0,0,0,152.012,7.5Z" transform="translate(-107.057 -6.572)" fill="#fedbbd"/><rect width="22.1" height="3.75" rx="1.875" transform="translate(20.95 5.43)" fill="#feca9c"/><path d="M128.13,15.77h-5.75l8.25-8.25v5.75A2.5,2.5,0,0,1,128.13,15.77Z" transform="translate(-107.083 -6.59)" fill="#fedbbd"/><path d="M154.97,467.22h19.29a3.41,3.41,0,0,1,3.41,3.41,1.25,1.25,0,0,1-1.25,1.25H152.81a1.25,1.25,0,0,1-1.25-1.25A3.41,3.41,0,0,1,154.97,467.22Z" transform="translate(-132.615 -408.829)" fill="#918291"/><path d="M170.462,132.7v6.637a1.125,1.125,0,0,1-1.125,1.125h-6.762a1.125,1.125,0,0,1-1.125-1.125v-6.762a1.125,1.125,0,0,1,1.125-1.125h6.637A1.25,1.25,0,0,1,170.462,132.7Zm0,14.521v6.637a1.125,1.125,0,0,1-1.125,1.125h-6.762a1.125,1.125,0,0,1-1.125-1.125V147.1a1.125,1.125,0,0,1,1.125-1.125h6.637A1.25,1.25,0,0,1,170.462,147.221Z" transform="translate(-141.269 -115.029)" fill="#feca9c"/><path d="M33.458,21.115h9.625a.937.937,0,1,0,0-1.875H33.458a.937.937,0,0,0,0,1.875Zm0-3.75h9.625a.937.937,0,1,0,0-1.875H33.458a.937.937,0,0,0,0,1.875ZM28.912,31.058,25.4,34.592a.186.186,0,0,1-.132.055.182.182,0,0,1-.134-.055l-1.3-1.3a.937.937,0,1,0-1.326,1.325l1.3,1.3a2.058,2.058,0,0,0,2.917-.005l3.52-3.535a.937.937,0,1,0-1.331-1.32Zm30.4-24.943H49.643V4.678A4.694,4.694,0,0,0,44.955-.01H23.547a.785.785,0,0,0-.094,0L23.386,0h-.024a.779.779,0,0,0-.077.019h-.011A.783.783,0,0,0,23.2.045h-.01l-.062.049L23.111.1c-.021.011-.041.024-.061.036l-.017.011a.625.625,0,0,0-.055.04L22.958.2c-.024.02-.046.04-.069.062l-5.856,5.85H4.687A4.692,4.692,0,0,0,0,10.8V45.677a4.692,4.692,0,0,0,4.687,4.687H25.8l1.482,7.09H22.355A4.352,4.352,0,0,0,18.007,61.8a2.19,2.19,0,0,0,2.187,2.187H43.8A2.19,2.19,0,0,0,45.991,61.8a4.352,4.352,0,0,0-4.347-4.347H36.719l1.482-7.09h21.11A4.692,4.692,0,0,0,64,45.677V10.8a4.692,4.692,0,0,0-4.687-4.687ZM49.643,41.927V11.74h8.731v33H48.7a4.669,4.669,0,0,0,.94-2.812ZM24.484,6.678V6.365H42.109V8.24h-18a3.421,3.421,0,0,0,.375-1.56ZM22.61,3.189V6.68a1.564,1.564,0,0,1-1.562,1.56h-3.49Zm-6.379,6.926h4.816a3.53,3.53,0,0,0,.382-.021,1.761,1.761,0,0,0,.27.021H42.3a1.69,1.69,0,0,0,1.687-1.687V6.178A1.69,1.69,0,0,0,42.3,4.49H24.484V1.865H44.955a2.816,2.816,0,0,1,2.812,2.812V41.927a2.816,2.816,0,0,1-2.812,2.812H19.043a2.816,2.816,0,0,1-2.812-2.812ZM15.3,44.739H5.625v-33h8.731V41.927a4.669,4.669,0,0,0,.94,2.812Zm26.348,14.59A2.476,2.476,0,0,1,44.117,61.8a.314.314,0,0,1-.312.313H20.195a.314.314,0,0,1-.312-.312,2.476,2.476,0,0,1,2.472-2.472ZM27.713,50.364h8.572L34.8,57.454H29.2Zm34.41-4.687a2.815,2.815,0,0,1-2.812,2.812H4.687a2.815,2.815,0,0,1-2.812-2.812V10.8A2.815,2.815,0,0,1,4.687,7.99H15.158l-.527.527a.785.785,0,0,0-.061.067l-.014.019c-.015.019-.029.036-.041.055l-.011.019c-.012.02-.025.04-.036.06q0,.007,0,.014c-.011.024-.022.046-.032.07v.01a.79.79,0,0,0-.027.076s0,.007,0,.011a.781.781,0,0,0-.02.077V9.02a.655.655,0,0,1-.01.066c0,.022,0,.062,0,.094v.685H4.687a.937.937,0,0,0-.937.937V45.677a.937.937,0,0,0,.937.937H59.311a.937.937,0,0,0,.937-.937V10.8a.937.937,0,0,0-.937-.937H49.643V7.99h9.669A2.815,2.815,0,0,1,62.124,10.8Zm-28.666-13.8h9.625a.937.937,0,1,0,0-1.875H33.458a.937.937,0,0,0,0,1.875ZM21.306,40.892h6.762a2.065,2.065,0,0,0,2.062-2.062V36.454a.937.937,0,0,0-1.875,0v2.375a.187.187,0,0,1-.187.187H21.306a.187.187,0,0,1-.187-.187V32.067a.187.187,0,0,1,.187-.188h3.056a.937.937,0,1,0,0-1.875H21.306a2.065,2.065,0,0,0-2.062,2.062v6.762a2.065,2.065,0,0,0,2.062,2.062Zm0-14.521h6.762a2.065,2.065,0,0,0,2.062-2.062V21.933a.937.937,0,1,0-1.875,0v2.375a.187.187,0,0,1-.187.187H21.306a.187.187,0,0,1-.187-.187V17.546a.187.187,0,0,1,.187-.187h3.056a.937.937,0,1,0,0-1.875H21.306a2.065,2.065,0,0,0-2.062,2.062v6.762a2.065,2.065,0,0,0,2.062,2.062Zm3.831-6.3-1.3-1.3a.938.938,0,1,0-1.326,1.326l1.3,1.3a2.058,2.058,0,0,0,2.917-.005l3.52-3.535a.938.938,0,1,0-1.331-1.321l-3.509,3.535a.186.186,0,0,1-.132.055.2.2,0,0,1-.14-.055Zm8.321,15.558h9.625a.937.937,0,1,0,0-1.875H33.458a.937.937,0,0,0,0,1.875Z"/></g></svg>