<svg xmlns="http://www.w3.org/2000/svg" width="58.157" height="57.749"><path d="M29.078 0c-9.75 0-18 6.167-20.468 14.467a4.26 4.26 0 0 0-4.137 4.095v4.125a4.3 4.3 0 0 0 4.474 4.125h1.673c-.362-1.345-.55-2.732-.555-4.125v-3.094c0-.227.02-.45.028-.675.016-.387.044-.77.087-1.15q-.063.57-.087 1.15h.01c.392-9.343 8.75-16.852 18.975-16.852s18.564 7.49 18.973 16.82h.01c.01.235.028.47.028.707v3.094c.028 1.362-.152 2.72-.533 4.028-.407 1.23-1.526 2.088-2.82 2.16H34.567c-.262-.636-.887-1.046-1.575-1.03h-3.355c-.428-.018-.845.136-1.16.426s-.5.694-.518 1.12v1.03c.017.428.204.83.518 1.12s.732.443 1.16.426h3.355c.688.015 1.313-.395 1.575-1.03h10.168a5.28 5.28 0 0 0 5.146-4.185 4.23 4.23 0 0 0 3.8-4.064v-4.125a4.26 4.26 0 0 0-4.137-4.095C47.077 6.17 38.827.002 29.076.002zm0 4.125c-9.275 0-16.776 6.917-16.776 15.468v3.094a14.8 14.8 0 0 0 4.69 10.717l-1.88 1.734C6.302 37.908-.001 45.59-.001 54.655v2.063a1.08 1.08 0 0 0 1.118 1.031h55.92a1.08 1.08 0 0 0 1.118-1.031v-2.063c0-9.066-6.3-16.748-15.11-19.517l-1.88-1.734c.464-.452.9-.93 1.306-1.436h-2.884a15.09 15.09 0 0 1-10.507 4.125c-8.074 0-14.54-5.96-14.54-13.406v-.2c.757-.228 1.468-.587 2.1-1.06a9.96 9.96 0 0 0 2.468-2.735 19.37 19.37 0 0 0 1.667-3.974 20.31 20.31 0 0 0 3.318 1.16 22.69 22.69 0 0 0 4.989.618 22.68 22.68 0 0 0 4.989-.618 20.31 20.31 0 0 0 3.318-1.16 19.37 19.37 0 0 0 1.667 3.974 9.96 9.96 0 0 0 2.468 2.735 6.73 6.73 0 0 0 2.1 1.061v.2a12.56 12.56 0 0 1-.7 4.125h2.315c.407-1.337.616-2.727.62-4.125v-3.094c0-8.552-7.5-15.468-16.776-15.468zm-18.5 11.426a15.42 15.42 0 0 0-.205.941c.066-.317.13-.63.2-.94zm37 .023c.067.26.118.528.173.794-.052-.266-.105-.532-.172-.793zM10.34 16.656q-.1.544-.16 1.1c.043-.37.093-.737.16-1.1zm37.47 0a16.18 16.18 0 0 1 .153 1.037q-.06-.518-.153-1.033zm.162 1.1c.042.367.07.737.085 1.1q-.024-.554-.084-1.104zM18.647 34.793a16.92 16.92 0 0 0 2.235 1.388l6.614 6.1-1.774 1.635-8.484-7.823zm20.86 0l1.41 1.3-8.484 7.823-1.774-1.64 6.614-6.1a16.92 16.92 0 0 0 2.239-1.382zM25.87 37.865c2.12.387 4.293.387 6.413 0l-3.207 2.957z" fill="#01355d"/></svg>