<svg xmlns="http://www.w3.org/2000/svg" width="58.646" height="62.463"><path d="M29.54 14.6a18.76 18.76 0 0 1 13.271 32.026A18.76 18.76 0 0 1 10.783 33.36C10.783 23 19.18 14.6 29.54 14.6zm-7.96 22.16l3.75-.374c.427 2.368 1.68 3.646 4.147 3.646 1.622 0 3.73-.658 3.73-2.62 0-2.044-3.294-2.422-4.84-2.807-3.04-.76-6.072-2.1-6.072-5.74 0-3.253 2.548-4.805 5.34-5.217v-2.416h3.37v2.418c3.038.442 5.373 2.116 5.5 5.706l-3.858.133c-.343-2.057-1.44-2.767-3.47-2.767-1.174 0-3.2.35-3.2 1.88 0 1.647 2.9 2.156 4.1 2.438 3.7.87 7 1.968 7 6.343a5.58 5.58 0 0 1-3.482 5.194c-.825.328-1.693.536-2.577.62v2.372h-3.37v-2.414c-3.425-.485-5.594-2.47-6.06-6.395zm32.487 12.274c-8.382 13.112-25.596 17.31-39.072 9.526l1.773-3.07c11.783 6.804 26.83 3.182 34.227-8.237l-3.648-2.106 10.08-5.41.354 11.433-3.713-2.143zM3.712 46.76c-7.165-13.814-2.194-30.82 11.282-38.6l1.773 3.07a25.56 25.56 0 0 0-9.981 33.76l3.648-2.106-.354 11.434L0 48.905zm27.14-42.472c15.548.7 27.794 13.508 27.793 29.072H55.1A25.56 25.56 0 0 0 30.853 7.836v4.212l-9.725-6.024 9.725-6.025zM29.54 18.143a15.22 15.22 0 0 0-15.212 15.218 15.22 15.22 0 0 0 15.217 15.214A15.22 15.22 0 0 0 44.76 33.36c.001-4.036-1.603-7.908-4.457-10.762s-6.726-4.457-10.763-4.455z" fill="#01355d"/></svg>