<svg xmlns="http://www.w3.org/2000/svg" width="41.525" height="54.099"><path d="M13.743.01A25.2 25.2 0 0 0 .884 3.981C.34 4.33.008 4.928 0 5.574V52.21a1.89 1.89 0 0 0 1.887 1.845 1.89 1.89 0 0 0 1.887-1.845V29.364a21.57 21.57 0 0 1 19.386-1.081c5.557 2.4 9.788 2.894 12.7 2.733 1.624-.055 3.22-.428 4.7-1.1.585-.338.95-.957.963-1.632V5.554a1.89 1.89 0 0 0-2.792-1.671c-.96.422-2 .623-3.048.6-2.292.113-5.92-.252-11.05-2.4A26.5 26.5 0 0 0 15.649.028c-.633-.03-1.27-.036-1.906-.02zm.236 3.736a20.12 20.12 0 0 1 1.494.02 22.91 22.91 0 0 1 7.707 1.789c5.576 2.335 9.8 2.836 12.7 2.694a11 11 0 0 0 1.868-.315v19.013a9.84 9.84 0 0 1-2.084.315c-2.288.126-5.917-.234-11-2.438a25.39 25.39 0 0 0-20.881.374V6.675a21.41 21.41 0 0 1 10.206-2.93z" fill="#01355d"/></svg>