<svg xmlns="http://www.w3.org/2000/svg" xmlns:xlink="http://www.w3.org/1999/xlink" width="64.431" height="44.968"><g fill="#01355d"><path d="M55.37 37.217H1.342A1.34 1.34 0 0 1 0 35.875V1.342A1.34 1.34 0 0 1 1.342 0h54.03a1.34 1.34 0 0 1 1.342 1.342v34.533a1.34 1.34 0 0 1-1.342 1.342zM2.685 34.533h51.343V2.685H2.685z"/><path d="M63.09 44.968H9.06a1.34 1.34 0 0 1-1.342-1.342V35.87c0-.74.6-1.343 1.343-1.343s1.342.6 1.343 1.343v6.412h51.343V10.435H55.37c-.74 0-1.343-.6-1.343-1.343s.6-1.342 1.343-1.343h7.718a1.34 1.34 0 0 1 1.342 1.342v34.534a1.34 1.34 0 0 1-1.342 1.342z"/><use xlink:href="#B"/><use x="-29.542" xlink:href="#B"/><path d="M28.19 29.195a10.74 10.74 0 0 1-7.595-18.333 10.74 10.74 0 0 1 18.333 7.595 10.74 10.74 0 0 1-10.738 10.738zm0-18.793c-4.448 0-8.054 3.606-8.054 8.054S23.74 26.5 28.19 26.5s8.054-3.606 8.054-8.054-3.606-8.053-8.054-8.053z"/></g><text fill="#01355d" font-family="Arial-Black, Arial" font-size="11" font-weight="800"><tspan x="24.548" y="22.984">₹</tspan></text><defs><path id="B" d="M42.742 19.616c.4.014.788-.222.955-.597s.1-.814-.195-1.11-.72-.388-1.1-.234-.63.523-.63.933c0 .543.43.988.972 1.007z"/></defs></svg>