<svg xmlns="http://www.w3.org/2000/svg" width="68.654" height="64.001" viewBox="0 0 68.654 64.001"><g transform="translate(-1 -2.627)"><path d="M10.76,20.971a8.178,8.178,0,1,1,8.178-8.178A8.187,8.187,0,0,1,10.76,20.971Zm0-15.669a7.492,7.492,0,1,0,7.492,7.492A7.5,7.5,0,0,0,10.76,5.3Z" transform="translate(0.681 0.856)" fill="#fed932"/><circle cx="5.432" cy="5.432" r="5.432" transform="translate(6.009 8.217)" fill="#fed932"/><path d="M8.757,10.888a.832.832,0,1,1,.832-.832h.686A1.5,1.5,0,0,0,9.1,8.608V8.244H8.413v.364a1.5,1.5,0,0,0-1.175,1.448,1.519,1.519,0,0,0,1.518,1.518.832.832,0,1,1-.832.832H7.239a1.5,1.5,0,0,0,1.175,1.448v.364H9.1v-.364a1.5,1.5,0,0,0,1.175-1.448A1.52,1.52,0,0,0,8.757,10.888Z" transform="translate(2.685 2.417)" fill="#fff"/><circle cx="0.685" cy="0.685" r="0.685" transform="translate(13.926 12.964)" fill="#fff"/><circle cx="0.685" cy="0.685" r="0.685" transform="translate(7.585 12.964)" fill="#fff"/><rect width="18.532" height="25.01" transform="translate(1 29.179)" fill="#17416b"/><path d="M6.428,42.739H2.672V38.983H6.428Zm-3.07-.686H5.742V39.669H3.358Zm8.067.686H7.669V38.983h3.756Zm-3.07-.686h2.383V39.669H8.355Zm8.067.686H12.666V38.983h3.756Zm-3.07-.686h2.383V39.669H13.352ZM6.428,37.9H2.672V34.147H6.428Zm-3.07-.686H5.742V34.833H3.358Zm8.067.686H7.669V34.147h3.756Zm-3.07-.686h2.383V34.833H8.355Zm8.067.686H12.666V34.147h3.756Zm-3.07-.686h2.383V34.833H13.352Zm-6.925-4.15H2.672V29.309H6.428Zm-3.07-.686H5.742V30H3.358Zm8.067.686H7.669V29.309h3.756Zm-3.07-.686h2.383V30H8.355Zm8.067.686H12.666V29.309h3.756Zm-3.07-.686h2.383V30H13.352ZM16.422,28H2.672V23.052h13.75V28ZM3.358,27.315H15.736V23.738H3.358Z" transform="translate(0.719 8.789)" fill="#fff"/><path d="M59.344,2.627v7.4H55.638v52.83a3.763,3.763,0,0,1-3.763,3.763H16.015L15.962,59.9V7.637a5.009,5.009,0,0,1,5.009-5.009Z" transform="translate(6.438)" fill="#4498fb"/><path d="M47.492,2.63a3.786,3.786,0,0,0-3.786,3.786v3.611h7.573V6.416A3.786,3.786,0,0,0,47.492,2.63Z" transform="translate(18.376 0.001)" fill="#17416b"/><path d="M54.125,49.6H14.4a3.8,3.8,0,0,1-3.733-3.788V42.2H50.351v3.609A3.778,3.778,0,0,0,54.125,49.6Z" transform="translate(4.158 17.029)" fill="#d7dce2"/><path d="M42.436,19.584A10.807,10.807,0,1,1,31.636,8.77V19.584Z" transform="translate(8.529 2.643)" fill="#fff"/><path d="M45.225,18.3h-10.8V7.485A10.806,10.806,0,0,1,45.225,18.3ZM24.906,43.528H18.611V37.234h6.295ZM19.3,42.842H24.22V37.92H19.3Z" transform="translate(7.578 2.09)" fill="#fff"/><rect width="20.207" height="0.687" transform="translate(37.533 40.49)" fill="#fff"/><rect width="14.024" height="0.687" transform="translate(37.533 43.767)" fill="#fff"/><g transform="translate(26.189 49.307)"><path d="M24.906,41.558H18.611V35.264h6.295ZM19.3,40.872H24.22V35.95H19.3Z" transform="translate(-18.611 -35.264)" fill="#fff"/></g><g transform="translate(37.533 50.473)"><rect width="20.207" height="0.687" transform="translate(0 0)" fill="#fff"/><rect width="14.024" height="0.687" transform="translate(0 3.275)" fill="#fff"/></g></g></svg>