<svg xmlns="http://www.w3.org/2000/svg" width="39.5" height="39.5"><path d="M19.75 38.75h0c-10.493 0-19-8.507-19-19h0c0-10.493 8.507-19 19-19h0c10.493 0 19 8.507 19 19h0c0 10.493-8.507 19-19 19z" fill="none" stroke="#f4fc40" stroke-miterlimit="10" stroke-width="1.5"/><path d="M19.75 11.17l4.22.06a5.38 5.38 0 0 1 1.93.36 3.12 3.12 0 0 1 1.2.78 3 3 0 0 1 .78 1.2 5.38 5.38 0 0 1 .36 1.93l.06 4.22-.06 4.22a5.38 5.38 0 0 1-.36 1.93 3.45 3.45 0 0 1-2 2 5.38 5.38 0 0 1-1.93.36l-4.22.06c-2.8 0-3.12 0-4.22-.06a5.38 5.38 0 0 1-1.93-.36 3 3 0 0 1-1.2-.78 3.12 3.12 0 0 1-.78-1.2 5.38 5.38 0 0 1-.34-1.95l-.06-4.22.06-4.22a5.38 5.38 0 0 1 .36-1.93 3.45 3.45 0 0 1 2-2 5.38 5.38 0 0 1 1.93-.36l4.22-.06m0-1.88l-4.3.06a7.83 7.83 0 0 0-2.5.5 5.4 5.4 0 0 0-3.11 3.11 7.83 7.83 0 0 0-.48 2.53l-.06 4.3.06 4.3a8 8 0 0 0 .48 2.54 5.42 5.42 0 0 0 3.11 3 7.57 7.57 0 0 0 2.53.48l4.3.06 4.3-.06a7.69 7.69 0 0 0 2.54-.48 5.44 5.44 0 0 0 3.05-3.05 8 8 0 0 0 .48-2.54l.06-4.3-.06-4.3a7.83 7.83 0 0 0-.53-2.48 5.42 5.42 0 0 0-3.05-3.06 8 8 0 0 0-2.54-.48l-4.3-.06m0 5.02a5.36 5.36 0 1 0 0 10.72 5.36 5.36 0 1 0 0-10.72m0 8.84a3.48 3.48 0 1 1 2.461-1.019A3.48 3.48 0 0 1 19.75 23.2m6.82-9.05a1.23 1.23 0 0 0-2.46.02 1.23 1.23 0 0 0 2.46.02" fill="#f4fc40"/></svg>