<svg xmlns="http://www.w3.org/2000/svg" width="39.5" height="39.5"><path d="M19.75 38.75h0c-10.493 0-19-8.507-19-19h0c0-10.493 8.507-19 19-19h0c10.493 0 19 8.507 19 19h0c0 10.493-8.507 19-19 19z" fill="none" stroke="#f4fc40" stroke-miterlimit="10" stroke-width="1.5"/><path d="M9.6 26.1a11.83 11.83 0 0 0 18.2-10.51 8.18 8.18 0 0 0 2.08-2.15 8.39 8.39 0 0 1-2.39.66 4.17 4.17 0 0 0 1.83-2.31 8.13 8.13 0 0 1-2.64 1 4.17 4.17 0 0 0-7.09 3.8 11.79 11.79 0 0 1-8.58-4.35 4.18 4.18 0 0 0 1.29 5.56 4.26 4.26 0 0 1-1.88-.52 4.16 4.16 0 0 0 3.33 4.13 4.22 4.22 0 0 1-1.88.07 4.18 4.18 0 0 0 3.89 2.89 8.37 8.37 0 0 1-6.16 1.73z" fill="#f4fc40"/></svg>