<svg xmlns="http://www.w3.org/2000/svg" xmlns:xlink="http://www.w3.org/1999/xlink" width="37.826" height="42.114" viewBox="0 0 37.826 42.114"><defs><linearGradient id="linear-gradient" x1=".914" x2="-.384" y1=".05" y2=".719" gradientUnits="objectBoundingBox"><stop offset="0" stop-color="#00a0ff"/><stop offset=".007" stop-color="#00a1ff"/><stop offset=".26" stop-color="#00beff"/><stop offset=".512" stop-color="#00d2ff"/><stop offset=".76" stop-color="#00dfff"/><stop offset="1" stop-color="#00e3ff"/></linearGradient><linearGradient id="linear-gradient-2" x1="1.074" x2="-1.304" y1=".501" y2=".501" gradientUnits="objectBoundingBox"><stop offset="0" stop-color="#ffe000"/><stop offset=".409" stop-color="#ffbd00"/><stop offset=".775" stop-color="orange"/><stop offset="1" stop-color="#ff9c00"/></linearGradient><linearGradient id="linear-gradient-3" x1=".862" x2="-.501" y1=".179" y2="1.948" gradientUnits="objectBoundingBox"><stop offset="0" stop-color="#ff3a44"/><stop offset="1" stop-color="#c31162"/></linearGradient><linearGradient id="linear-gradient-4" x1="-.188" x2=".421" y1="-.543" y2=".248" gradientUnits="objectBoundingBox"><stop offset="0" stop-color="#32a071"/><stop offset=".069" stop-color="#2da771"/><stop offset=".476" stop-color="#15cf74"/><stop offset=".801" stop-color="#06e775"/><stop offset="1" stop-color="#00f076"/></linearGradient></defs><g id="google_play-icon" transform="translate(-24.414 -56.121)"><path id="Path_20320" fill="url(#linear-gradient)" d="M25.18,56.662a3.273,3.273,0,0,0-.766,2.3v36.2a3.273,3.273,0,0,0,.766,2.3l.12.12L45.588,77.286v-.479L25.3,56.519Z" data-name="Path 20320" transform="translate(0 0.126)"/><path id="Path_20321" fill="url(#linear-gradient-2)" d="M47.25,80.81,40.5,74.039v-.479l6.771-6.771.144.1,8.015,4.546c2.3,1.292,2.3,3.421,0,4.737l-8.015,4.546Z" data-name="Path 20321" transform="translate(5.085 3.372)"/><path id="Path_20322" fill="url(#linear-gradient-3)" d="M52.319,79.03,45.4,72.116,25,92.524c.742.79,2.01.909,3.4.1L52.319,79.03" data-name="Path 20322" transform="translate(0.184 5.056)"/><path id="Path_20323" fill="url(#linear-gradient-4)" d="M52.319,70.276,28.394,56.686c-1.412-.79-2.656-.694-3.4.1L45.4,77.19Z" data-name="Path 20323" transform="translate(0.184 0.006)"/><path id="Path_20324" d="M52.151,77.261,28.394,90.755c-1.34.766-2.512.718-3.278.024L25,90.9l.12.12c.766.694,1.962.742,3.278-.024L52.319,77.4Z" data-name="Path 20324" opacity=".2" transform="translate(0.184 6.682)"/><path id="Path_20325" d="M25.18,92.285a3.273,3.273,0,0,1-.766-2.3v.239a3.273,3.273,0,0,0,.766,2.3l.12-.12Zm35.314-18.04-8.159,4.642.144.144,8.015-4.546a2.869,2.869,0,0,0,1.723-2.369A3.015,3.015,0,0,1,60.494,74.245Z" data-name="Path 20325" opacity=".12" transform="translate(0 5.056)"/><path id="Path_20326" fill="#fff" d="M28.577,56.907,60.494,75.043a3.077,3.077,0,0,1,1.723,2.129A2.869,2.869,0,0,0,60.494,74.8L28.577,56.668c-2.3-1.292-4.163-.215-4.163,2.393V59.3C24.414,56.692,26.281,55.615,28.577,56.907Z" data-name="Path 20326" opacity=".25" transform="translate(0 0)"/></g></svg>