<svg xmlns="http://www.w3.org/2000/svg" xmlns:xlink="http://www.w3.org/1999/xlink" width="31.797" height="29.984"><g fill="#fff" stroke="#fff"><path d="M15.9.5A15.42 15.42 0 0 0 .5 15.898v5.308a3.1 3.1 0 0 0 3.1 3.1h4.294v-7.394H1.4v-1.014c0-8.008 6.492-14.5 14.5-14.5s14.5 6.492 14.5 14.5v1.014h-1.887a.45.45 0 0 0 0 .9H30.4v3.4a2.21 2.21 0 0 1-2.2 2.2h-3.4v-5.6h2.22a.45.45 0 1 0 0-.9H23.9v7.394h4.3a3.1 3.1 0 0 0 3.1-3.1v-5.308A15.42 15.42 0 0 0 15.9.5zM7 17.8v5.6H3.6c-1.214-.003-2.197-.986-2.2-2.2v-3.4zm8.9 11.673a1.29 1.29 0 0 1-1.127-.65l-1.26-2.18a.45.45 0 0 1 .164-.613.45.45 0 0 1 .613.164l1.26 2.18a.4.4 0 0 0 .7 0l1.52-2.63a1.3 1.3 0 0 1 1.127-.652h2.168c.222.001.404-.178.407-.4V14.368c-.003-.222-.185-.4-.407-.4h-10.33c-.222-.001-.404.178-.407.4v10.33c.003.222.185.4.407.4h1.7a.45.45 0 0 1 0 .9h-1.7a1.3 1.3 0 0 1-1.3-1.3v-10.33a1.3 1.3 0 0 1 1.3-1.3h10.33a1.3 1.3 0 0 1 1.3 1.3v10.33a1.3 1.3 0 0 1-1.3 1.3h-2.168a.4.4 0 0 0-.349.2l-1.52 2.633a1.29 1.29 0 0 1-1.127.652z"/><use xlink:href="#B"/><use x="-3.172" xlink:href="#B"/><use x="-6.347" xlink:href="#B"/></g><defs><path id="B" d="M19.072 21.075a1.2 1.2 0 1 1 0-2.4 1.2 1.2 0 0 1 .849 2.049 1.2 1.2 0 0 1-.849.351zm0-1.494a.3.3 0 0 0-.212.512.3.3 0 0 0 .512-.212.3.3 0 0 0-.3-.3z"/></defs></svg>