<svg xmlns="http://www.w3.org/2000/svg" width="29.983" height="29.983"><path d="M26.8 24.1a6.15 6.15 0 0 1-12.252-.755v-.44a.44.44 0 0 1 .439-.439.44.44 0 0 1 .439.439v.44a5.27 5.27 0 0 0 10.526.343l-1.52.912a.44.44 0 0 1-.662-.371.44.44 0 0 1 .214-.382l2.2-1.317c.187-.114.43-.07.567.1l1.757 2.2a.44.44 0 0 1-.073.611.44.44 0 0 1-.612-.062L26.8 24.1zM15.382 5.9l1.02-1.276a.44.44 0 0 1 .612-.062.44.44 0 0 1 .073.611l-1.757 2.2c-.137.17-.38.214-.567.1l-2.2-1.317a.44.44 0 0 1 .01-.759.44.44 0 0 1 .438.006l1.52.912A5.27 5.27 0 0 0 9.1 1.394a5.27 5.27 0 0 0-5.097 5.254v.435a.44.44 0 0 1-.439.439.44.44 0 0 1-.439-.439v-.44A6.15 6.15 0 0 1 8.896.502a6.15 6.15 0 0 1 6.481 5.387zM.5 18.065v-6.148a2.2 2.2 0 0 1 2.2-2.2h1.752a2.2 2.2 0 0 1 2.2 2.2v6.148a2.2 2.2 0 0 1-2.2 2.2H2.7a2.2 2.2 0 0 1-2.2-2.2zm.878 0c0 .35.14.686.387.934s.585.386.935.384h1.752c.35.001.685-.138.933-.385s.386-.583.385-.933v-6.148c0-.35-.138-.685-.385-.932s-.582-.386-.932-.385H2.7c-.35-.001-.686.137-.934.384s-.388.583-.388.933zm21.957 0v-6.148a2.2 2.2 0 0 1 2.2-2.2h1.757a2.2 2.2 0 0 1 2.2 2.2v6.148a2.2 2.2 0 0 1-2.2 2.2h-1.76a2.2 2.2 0 0 1-2.196-2.2zm.878 0c-.001.35.138.685.385.933s.583.386.933.385h1.757c.35 0 .685-.138.932-.385s.386-.582.385-.932v-6.148c0-.35-.138-.685-.385-.932s-.582-.386-.932-.385H25.53c-.35 0-.685.138-.932.385s-.386.582-.385.932zm-12.3 0v-6.148a2.2 2.2 0 0 1 2.2-2.2h1.757a2.2 2.2 0 0 1 2.2 2.2v6.148a2.2 2.2 0 0 1-2.2 2.2h-1.757a2.2 2.2 0 0 1-2.195-2.2zm.878 0c-.001.35.14.687.387.934s.585.386.935.384h1.757c.35 0 .685-.138.932-.385s.386-.582.385-.932v-6.148c0-.35-.138-.685-.385-.932s-.582-.386-.932-.385h-1.757c-.726.002-1.313.6-1.313 1.316z" fill="#fff" stroke="#fff"/></svg>