<svg xmlns="http://www.w3.org/2000/svg" width="72.618" height="64" viewBox="0 0 72.618 64"><g transform="translate(0.084 -78)"><path d="M137.317,90.686v14.388a35.937,35.937,0,0,1-4.677,17.651,40.693,40.693,0,0,1-4.683,6.675,45.575,45.575,0,0,1-7.145,6.675,50.8,50.8,0,0,1-8.533,5.191,50.339,50.339,0,0,1-9.994-6.339A41,41,0,0,1,89.03,116.177a35.41,35.41,0,0,1-1.78-11.107V90.683a46.377,46.377,0,0,0,15.871-5.672A45.9,45.9,0,0,0,112.28,78a42.586,42.586,0,0,0,25.037,12.686Z" transform="translate(-74.38)" fill="#aeadb3"/><path d="M157.96,128.392v10.742a32.328,32.328,0,0,1-6.112,18.689,38.652,38.652,0,0,1-4.881,5.636,42.59,42.59,0,0,1-4.712,3.894,46.064,46.064,0,0,1-4.969,3.1,42.26,42.26,0,0,1-14.563-12.627,32.286,32.286,0,0,1-6.112-18.689V128.306A50.255,50.255,0,0,0,137.218,118a46.932,46.932,0,0,0,20.742,10.392Z" transform="translate(-99.385 -34.067)" fill="#8b8893"/><path d="M258.038,124.135A46.839,46.839,0,0,1,249.026,118c-.374.311-.753.616-1.136.917a46.979,46.979,0,0,0,19.653,9.477v10.742a32.328,32.328,0,0,1-6.112,18.689,41.992,41.992,0,0,1-13.45,12.014c.366.209.742.417,1.112.619a42.26,42.26,0,0,0,14.563-12.627,32.286,32.286,0,0,0,6.112-18.689V128.392A46.84,46.84,0,0,1,258.038,124.135Z" transform="translate(-211.193 -34.067)" fill="#787681"/><path d="M185.328,232.819a12.333,12.333,0,1,1,8.739-3.6,12.333,12.333,0,0,1-8.739,3.6Z" transform="translate(-147.428 -110.847)" fill="#fed947"/><path d="M254.093,212.144a12.3,12.3,0,0,0-8.739-3.6,12.609,12.609,0,0,0-1.854.136,12.3,12.3,0,0,1,0,24.336,12.609,12.609,0,0,0,1.854.138,12.293,12.293,0,0,0,8.739-21.006Z" transform="translate(-207.454 -111.177)" fill="#fed030"/><path d="M178.975,227.618a13.443,13.443,0,1,1,9.525-3.928,13.443,13.443,0,0,1-9.525,3.928Zm0-24.622a11.22,11.22,0,1,0,7.955,3.279A11.193,11.193,0,0,0,178.975,203Z" transform="translate(-141.075 -104.527)" fill="#f8be32"/><path d="M313.784,341.175H294.5a2.225,2.225,0,0,1-1.706-.794c-.326-.387,1.7-.89,1.7-1.431v-2.225c0-1.228-1.228-2.225,0-2.225h19.282a2.225,2.225,0,0,1,2.225,2.225v2.225A2.225,2.225,0,0,1,313.784,341.175Z" transform="translate(-249.408 -218.455)" fill="#787681"/><path d="M296.38,334.5A13.551,13.551,0,0,1,290,340.381a2.21,2.21,0,0,1-.522-1.431v-.782a11.356,11.356,0,0,0,4.276-3.668Z" transform="translate(-246.614 -218.455)" fill="#f8be32"/><path d="M293.776,334.5a11.356,11.356,0,0,1-4.276,3.668v-1.443a2.225,2.225,0,0,1,2.225-2.225Z" transform="translate(-246.631 -218.455)" fill="#fecc30"/><path d="M316.213,336.725v2.225a2.225,2.225,0,0,1-2.225,2.225H294.706a2.225,2.225,0,0,1-1.706-.794,13.551,13.551,0,0,0,6.378-5.881h14.61A2.225,2.225,0,0,1,316.213,336.725Z" transform="translate(-249.612 -218.455)" fill="#787681"/><path d="M221.6,248.867h-3.241a1.112,1.112,0,0,1,0-2.225H221.6a2.789,2.789,0,1,0,0-5.577h-2.26a1.112,1.112,0,0,1,0-2.225h2.26a5.013,5.013,0,1,1,0,10.027Z" transform="translate(-185.098 -136.983)" fill="#fff"/><path d="M81.013,241.065h-9.27a1.112,1.112,0,0,1,0-2.225h9.27a1.112,1.112,0,0,1,0,2.225Zm0,3.9h-9.27a1.112,1.112,0,1,1,0-2.225h9.27a1.112,1.112,0,1,1,0,2.225Zm-2.262,10.659a1.105,1.105,0,0,1-.771-.311l-7.008-6.752a1.117,1.117,0,0,1,1.55-1.608l7.008,6.752a1.112,1.112,0,0,1-.779,1.919ZM49.609,270.967a1.108,1.108,0,0,1-.786-.326l-3.4-3.4a1.112,1.112,0,1,1,1.574-1.572l2.615,2.615,6.018-6.018a1.113,1.113,0,0,1,1.574,1.574l-6.805,6.8A1.108,1.108,0,0,1,49.609,270.967Z" transform="translate(-38.478 -136.983)" fill="#fff"/><rect width="23.732" height="6.675" rx="3.337" transform="translate(48.802 134.586)" fill="#fed030"/><path d="M351.748,459.5h-.871a2.233,2.233,0,0,1,.129.742v2.225a2.225,2.225,0,0,1-2.225,2.225H330.37a2.225,2.225,0,0,0,2.1,1.483h19.282a2.225,2.225,0,0,0,2.225-2.225v-2.225A2.225,2.225,0,0,0,351.748,459.5Z" transform="translate(-281.439 -324.914)" fill="#f8be32"/><path d="M304.176,379.5a40.693,40.693,0,0,1-4.683,6.675h-4.034a2.225,2.225,0,0,1-2.225-2.225v-2.225a2.225,2.225,0,0,1,2.225-2.225Zm-3.941,6.675a45.575,45.575,0,0,1-7.145,6.675h-1.335a2.225,2.225,0,0,1-2.225-2.225V388.4a2.225,2.225,0,0,1,2.225-2.225Z" transform="translate(-246.657 -256.78)" fill="#787681"/><path d="M300.235,424.5a45.575,45.575,0,0,1-7.145,6.675h-1.335a2.225,2.225,0,0,1-2.225-2.225v-.556a42.592,42.592,0,0,0,4.712-3.894Z" transform="translate(-246.657 -295.105)" fill="#8b8893"/><rect width="23.732" height="6.675" rx="3.337" transform="translate(44.352 127.911)" fill="#fed030"/><path d="M321.748,414.5h-.871a2.233,2.233,0,0,1,.129.742v2.225a2.225,2.225,0,0,1-2.225,2.225H300.37a2.225,2.225,0,0,0,2.1,1.483h19.282a2.225,2.225,0,0,0,2.225-2.225v-2.225A2.225,2.225,0,0,0,321.748,414.5Z" transform="translate(-255.889 -286.589)" fill="#f8be32"/><rect width="23.732" height="6.675" rx="3.337" transform="translate(44.352 114.562)" fill="#fed030"/><path d="M321.748,324.5h-.871a2.232,2.232,0,0,1,.129.742v2.225a2.225,2.225,0,0,1-2.225,2.225H300.37a2.225,2.225,0,0,0,2.1,1.483h19.282a2.225,2.225,0,0,0,2.225-2.225v-2.225A2.225,2.225,0,0,0,321.748,324.5Z" transform="translate(-255.889 -209.938)" fill="#f8be32"/><rect width="23.732" height="6.675" rx="3.337" transform="translate(48.802 121.237)" fill="#fed030"/><path d="M351.748,369.5h-.871a2.233,2.233,0,0,1,.129.742v2.225a2.225,2.225,0,0,1-2.225,2.225H330.37a2.225,2.225,0,0,0,2.1,1.483h19.282a2.225,2.225,0,0,0,2.225-2.225v-2.225A2.225,2.225,0,0,0,351.748,369.5Z" transform="translate(-281.439 -248.263)" fill="#f8be32"/><path d="M14.22,335.705h0a2.569,2.569,0,0,1,3.668.983h0a2.566,2.566,0,0,0,2.4,1.379h0a2.57,2.57,0,0,1,2.685,2.686h0a2.571,2.571,0,0,0,1.387,2.4h0a2.568,2.568,0,0,1,.982,3.668h0a2.569,2.569,0,0,0,0,2.772h0a2.567,2.567,0,0,1-.982,3.668h0a2.571,2.571,0,0,0-1.387,2.4h0a2.568,2.568,0,0,1-2.685,2.685h0a2.569,2.569,0,0,0-2.4,1.387h0a2.569,2.569,0,0,1-3.668.983h0a2.572,2.572,0,0,0-2.774,0h0a2.569,2.569,0,0,1-3.668-.983h0a2.569,2.569,0,0,0-2.4-1.387h0a2.568,2.568,0,0,1-2.685-2.685h0a2.571,2.571,0,0,0-1.387-2.4h0A2.567,2.567,0,0,1,.323,349.6h0a2.569,2.569,0,0,0,0-2.772h0a2.568,2.568,0,0,1,.982-3.668h0a2.571,2.571,0,0,0,1.387-2.4h0a2.57,2.57,0,0,1,2.685-2.686h0a2.566,2.566,0,0,0,2.4-1.385h0a2.569,2.569,0,0,1,3.668-.983h0a2.572,2.572,0,0,0,2.774.006Z" transform="translate(0 -219.13)" fill="#eb304a"/><path d="M73.6,349.6a2.569,2.569,0,0,1,0-2.772,2.568,2.568,0,0,0-.982-3.668,2.57,2.57,0,0,1-1.387-2.4,2.569,2.569,0,0,0-2.685-2.692h0a2.566,2.566,0,0,1-2.4-1.385h0a2.569,2.569,0,0,0-3.668-.983h0a2.523,2.523,0,0,1-.583.276,2.532,2.532,0,0,1,.543.708h0a2.566,2.566,0,0,0,2.4,1.385h0a2.569,2.569,0,0,1,2.685,2.686,2.571,2.571,0,0,0,1.387,2.4,2.568,2.568,0,0,1,.982,3.668,2.569,2.569,0,0,0,0,2.772h0a2.567,2.567,0,0,1-.982,3.668,2.571,2.571,0,0,0-1.387,2.4,2.568,2.568,0,0,1-2.685,2.685h0a2.569,2.569,0,0,0-2.4,1.387,2.553,2.553,0,0,1-.543.707,2.523,2.523,0,0,1,.583.276h0a2.569,2.569,0,0,0,3.668-.983,2.569,2.569,0,0,1,2.4-1.387h0a2.568,2.568,0,0,0,2.685-2.685,2.571,2.571,0,0,1,1.387-2.4A2.567,2.567,0,0,0,73.6,349.6Zm-14.831-13.9h0a2.607,2.607,0,0,1,.467-.236,2.567,2.567,0,0,0-2.658.512A2.566,2.566,0,0,0,58.771,335.705Zm0,25.021h0a2.566,2.566,0,0,0-2.191-.276,2.573,2.573,0,0,0,2.658.512A2.6,2.6,0,0,1,58.771,360.726Z" transform="translate(-48.259 -219.13)" fill="#e4222e"/><path d="M49.607,401a1.112,1.112,0,0,1-.786-.325l-3.4-3.4a1.113,1.113,0,0,1,1.574-1.574l2.615,2.616,6.018-6.019a1.113,1.113,0,1,1,1.574,1.574l-6.805,6.805a1.112,1.112,0,0,1-.786.325Z" transform="translate(-38.475 -267.403)" fill="#fff"/></g></svg>