<svg xmlns="http://www.w3.org/2000/svg" xmlns:xlink="http://www.w3.org/1999/xlink" width="1695" height="616" viewBox="0 0 1695 616">
  <defs>
    <filter id="Rectangle_6130" x="-30" y="-30" width="1755" height="676" filterUnits="userSpaceOnUse">
      <feOffset input="SourceAlpha"/>
      <feGaussianBlur stdDeviation="10" result="blur"/>
      <feFlood flood-color="#dadde1" flood-opacity="0.498"/>
      <feComposite operator="in" in2="blur"/>
      <feComposite in="SourceGraphic"/>
    </filter>
    <clipPath id="clip-path">
      <g transform="matrix(1, 0, 0, 1, 0, 0)" filter="url(#Rectangle_6130)">
        <rect id="Rectangle_6130-2" data-name="Rectangle 6130" width="1695" height="616" rx="30" transform="translate(-19067 -9636)" fill="#fff"/>
      </g>
    </clipPath>
    <clipPath id="clip-path-2">
      <rect id="SVGID" width="2214" height="819" transform="translate(0 -0.148)" fill="#f1f6ff"/>
    </clipPath>
    <clipPath id="clip-path-3">
      <rect id="SVGID-2" data-name="SVGID" width="2214" height="819" transform="translate(0 -0.147)" fill="#d6dadf"/>
    </clipPath>
  </defs>
  <g id="Mask_Group_5799" data-name="Mask Group 5799" transform="translate(19067 9636)" opacity="0.15" clip-path="url(#clip-path)">
    <g id="Group_10969" data-name="Group 10969" transform="translate(-19326 -9781.853)">
      <g id="Group_10968" data-name="Group 10968" transform="translate(0 0)" clip-path="url(#clip-path-2)">
        <rect id="Rectangle_6131" data-name="Rectangle 6131" width="489.171" height="790.894" transform="translate(1251.366 8.97)" fill="none"/>
        <path id="Path_42560" data-name="Path 42560" d="M1500.428,596.053c0,36.783-3.333,64.359,193.275,193.046s216.6,235.052,69.979,341.417-826.42,282.326-1156.321,283.639H1966.955v-818.1Z" transform="translate(247.852 -606.479)" fill="#ccd1db"/>
        <path id="Path_42561" data-name="Path 42561" d="M191.531,1424.013c87.058-63.236,295.238-131.325,980.338-122.389s1162.025-165.648,1162.025-165.648v288.037Z" transform="translate(-103.804 -593.667)" fill="#dadde1"/>
        <path id="Path_42562" data-name="Path 42562" d="M227.647,1454.929c87.059-63.236,259.121-131.324,944.222-122.389s1162.025-151.909,1162.025-151.909v274.3H227.647Z" transform="translate(-103.804 -592.608)" fill="#e8edf0"/>
      </g>
    </g>
    <g id="Group_10970" data-name="Group 10970" transform="translate(-19326 -9781.853)">
      <g id="Group_10968-2" data-name="Group 10968" transform="translate(0 0)" clip-path="url(#clip-path-3)">
        <rect id="Rectangle_6131-2" data-name="Rectangle 6131" width="489.171" height="790.894" transform="translate(62.55 8.97)" fill="none"/>
        <path id="Path_42560-2" data-name="Path 42560" d="M1073.888,596.053c0,36.783,3.333,64.359-193.275,193.046s-216.6,235.052-69.979,341.417,826.42,282.326,1156.321,283.639H607.361v-818.1Z" transform="translate(-607.564 -606.48)" fill="#dbdfe5"/>
        <path id="Path_42561-2" data-name="Path 42561" d="M2333.894,1424.013c-87.059-63.236-295.237-131.325-980.338-122.389S191.531,1135.976,191.531,1135.976v288.037Z" transform="translate(-207.016 -593.668)" fill="#d6dadf"/>
        <path id="Path_42562-2" data-name="Path 42562" d="M2297.778,1454.929c-87.058-63.236-259.121-131.324-944.222-122.389S191.531,1180.631,191.531,1180.631v274.3H2297.778Z" transform="translate(-207.016 -592.608)" fill="#bbc3d1"/>
      </g>
    </g>
  </g>
</svg>
