<svg xmlns="http://www.w3.org/2000/svg" width="85.734" height="51.315"><style>.B{fill-rule:evenodd}.C{fill:#fff}.D{fill:none}.E{stroke:#fff}.F{stroke-miterlimit:2.61}.G{stroke-width:.22}.H{fill:#fcb331}</style><g opacity=".45"><g class="B"><path d="M60.03 51.315l1.32-.037 1.31-.1 1.28-.165 1.274-.225 1.237-.284 1.22-.348 1.2-.4 1.17-.458 1.14-.522 1.11-.56 1.072-.623 1.05-.67 1-.72.967-.76.935-.8.894-.857.857-.894.8-.935.76-.97.72-1 .67-1.045.62-1.072.564-1.11.522-1.14.458-1.17.4-1.2.348-1.22.284-1.237.225-1.274.165-1.28.1-1.31.037-1.324-.037-1.315-.1-1.3-.165-1.28-.225-1.256-.284-1.237-.348-1.214-.4-1.19-.458-1.164-.522-1.132-.564-1.11-.623-1.06-.67-1.05-.72-1-.76-.958-.8-.935-.857-.894-.894-.85-.935-.8-.965-.763-1-.715-1.05-.67-1.076-.616-1.11-.564-1.14-.518-1.17-.458-1.2-.408L66.45.807 65.21.518 63.94.293 62.66.128l-1.31-.09L60.03 0 58.71.037l-1.3.09-1.283.165-1.265.225-1.237.29-1.215.343-1.187.408-1.17.458-1.132.518-1.1.564-1.077.614-1.035.67-1 .715-.97.765-.926.8-.89.848-.852.894-.8.935-.76.958-.7 1-.67 1.05-.622 1.068-.568 1.11-.513 1.132-.458 1.164-.4 1.19-.344 1.214-.29 1.237-.228 1.256-.165 1.28-.092 1.3-.037 1.315.037 1.324.092 1.31.165 1.275.225 1.274.29 1.237.344 1.22.4 1.2.458 1.17.513 1.14.568 1.11.614 1.072.67 1.045.7 1 .76.97.8.935.852.894.89.857.926.8.97.76 1 .72 1.036.67 1.077.623 1.1.56 1.132.522 1.17.458 1.187.4 1.22.348 1.237.284 1.265.225 1.28.165 1.306.1 1.32.037z" class="H"/><path fill="#ed1b2e" d="M25.7 51.315l1.315-.037 1.306-.1 1.283-.165 1.265-.225 1.237-.284 1.22-.348 1.187-.4 1.17-.458 1.132-.522 1.1-.56 1.072-.623 1.04-.67 1-.72.975-.76.92-.8.894-.857.848-.894.807-.935.76-.97.7-1 .664-1.045.614-1.072.573-1.11.51-1.14.463-1.17.394-1.2.348-1.22.284-1.237.225-1.274.165-1.28.1-1.31.037-1.324-.037-1.315-.1-1.3-.165-1.28-.225-1.256-.284-1.237-.348-1.214-.394-1.19-.464-1.162-.51-1.132-.573-1.11-.614-1.063-.66-1.05-.7-1-.76-.958-.806-.942-.848-.894-.894-.848L42 5.86l-.968-.76-1-.715-1.04-.67-1.076-.616-1.1-.564-1.132-.518-1.17-.458-1.187-.4L32.1.807l-1.238-.29-1.265-.225-1.283-.165-1.306-.09L25.7 0l-1.32.037-1.306.09L21.8.293l-1.27.225-1.237.29-1.223.343-1.19.408-1.17.458-1.14.518-1.11.566-1.072.614-1.05.67-1 .715-.967.765-.935.8-.894.848-.86.89-.807.935-.765.965-.72 1-.66 1.05-.62 1.063-.564 1.11-.518 1.132-.458 1.164-.4 1.19-.343 1.215-.29 1.237-.225 1.255-.165 1.28-.1 1.3L0 25.607.032 26.93l.1 1.31.16 1.278.225 1.274.29 1.237.344 1.22.408 1.2.458 1.17.518 1.14.565 1.105.623 1.072.664 1.045.72 1 .76.97.807.935.857.894.894.857.935.8.967.76 1 .72 1.05.67 1.072.623 1.11.56 1.143.53 1.17.458 1.19.4 1.224.348 1.237.284 1.27.225 1.283.165 1.306.1 1.324.037z"/><path d="M39.863 9.84h13.633V8.446H41.04L39.863 9.84zm-2.043 3.096h15.677v-1.393H38.644l-.825 1.393zm-1.522 3.094h17.2v-1.393H36.903l-.6 1.393zm-1.048 3.097h18.247v-1.393H35.684l-.435 1.393zm.608 14.97h17.68v-1.393H35.423l.435 1.393zm1.306 3.098h16.37v-1.393h-17.02l.65 1.393zm1.833 3.094h14.54v-1.393H38.122l.875 1.393zm2.53 3.097h12v-1.4H40.303l1.224 1.4zm-6.893-21.17h18.862v-1.393H34.904l-.27 1.393zM46.127 31h7.195v-1.393H46.4L46.128 31zm.573-3.08h6.622v-1.4h-6.36l-.26 1.4zm-12.542-1.4h1.87v1.4h-1.783l-.087-1.4z" class="H"/><path d="M30.67 24.833l-.12-.01-.124-.018-.1-.018-.115-.018-.1-.014-.23-.036-.238-.036-.142-.01h-.156l-.165-.01h-.18l-.2.01-.225.014-.247.018-.174.027-.165.027-.147.05-.133.05-.12.06-.1.07-.165.165-.055.1-.04.1-.018.105v.1l.027.115.032.1.07.115.087.1.174.165.206.133.243.1.26.1.275.087.29.1.284.1.275.115.26.147.243.183.215.215.183.266.137.33.087.4.032.467-.032.545-.06.408-.105.353-.137.33-.174.284-.2.252-.225.215-.243.192-.27.165-.275.128-.29.115-.293.087-.3.07-.293.05-.29.027-.284.018H25.82l-.286-.03-.257-.01-.234-.018-.21-.018-.2-.028-.183-.014-.165-.037-.16-.027-.15-.04-.147-.037-.274-.1-.147-.05.4-1.915.078.018.1.023.12.037.147.037.156.032.174.037.188.04.21.037.215.032.225.037.234.027.243.023.5.018h.25l.252-.01.252-.05.2-.07.156-.1.124-.124.087-.12.07-.137.078-.27.014-.252-.073-.215-.15-.174-.215-.147-.257-.128-.307-.128-.335-.124-.34-.137-.344-.156-.33-.183-.3-.225-.28-.266-.215-.33-.156-.4-.078-.467.01-.554.04-.335.064-.32.082-.3.105-.275.137-.26.156-.225.183-.215.215-.192.252-.16.275-.142.312-.128.348-.1.4-.078.426-.06.463-.037.513-.01h.32l.293.01.266.01.243.01.22.018.2.018.174.014.156.018.147.018.12.027.115.018.105.014.087.018.078.01.078.018.07.01-.445 1.957z" class="C"/></g><path d="M30.67 24.833h0l-.12-.01-.124-.018-.1-.018-.115-.018-.1-.014-.23-.036-.238-.036-.142-.01h-.156l-.165-.01h-.18l-.2.01-.225.014-.247.018-.174.027-.165.027-.147.05-.133.05-.12.06-.1.07-.165.165-.055.1-.04.1-.018.105v.1l.027.115.032.1.07.115.087.1.174.165.206.133.243.1.26.1.275.087.29.1.284.1.275.115.26.147.243.183.215.215.183.266.137.33.087.4.032.467-.032.545-.06.408-.105.353-.137.33-.174.284-.2.252-.225.215-.243.192-.27.165-.275.128-.29.115-.293.087-.3.07-.293.05-.29.027-.284.018H25.82l-.286-.03-.257-.01-.234-.018-.21-.018-.2-.028-.183-.014-.165-.037-.16-.027-.15-.04-.147-.037-.274-.1-.147-.05.4-1.915.078.018.1.023.12.037.147.037.156.032.174.037.188.04.21.037.215.032.225.037.234.027.243.023.5.018h.25l.252-.01.252-.05.2-.07.156-.1.124-.124.087-.12.07-.137.078-.27.014-.252-.073-.215-.15-.174-.215-.147-.257-.128-.307-.128-.335-.124-.34-.137-.344-.156-.33-.183-.3-.225-.28-.266-.215-.33-.156-.4-.078-.467.01-.554.04-.335.064-.32.082-.3.105-.275.137-.26.156-.225.183-.215.215-.192.252-.16.275-.142.312-.128.348-.1.4-.078.426-.06.463-.037.513-.01h.32l.293.01.266.01.243.01.22.018.2.018.174.014.156.018.147.018.12.027.115.018.105.014.087.018.078.01.078.018.07.01-.445 1.957" class="D E F G"/><path d="M32.724 20.736h2.4l-.353 2.094h1.443l-.315 1.956-1.52-.04-.834 4.825-.01.174.046.147.087.115.1.1.156.06.174.05.192.037.206.018.192-.01.17-.018.156-.027.137-.032.115-.037.078-.027.05-.014.018-.01-.3 1.608-.06.046-.06.032-.064.037-.06.032-.06.027-.07.023-.156.054-.087.023-.087.018-.105.018-.1.018-.115.018-.128.014-.142.02-.15.018h-.65l-.348-.027-.3-.032-.275-.055-.234-.06-.2-.078-.16-.087-.15-.1-.1-.115-.087-.12-.06-.15-.046-.147-.023-.16-.016-.187v-.192l.027-.2.023-.215 1.654-9.445z" class="B C"/><path d="M32.724 20.736h2.4l-.353 2.094h1.443l-.315 1.956-1.52-.04-.834 4.825-.01.174.046.147.087.115.1.1.156.06.174.05.192.037.206.018.192-.01.17-.018.156-.027.137-.032.115-.037.078-.027.05-.014.018-.01-.3 1.608-.06.046-.06.032-.064.037-.06.032-.06.027-.07.023-.156.054-.087.023-.087.018-.105.018-.1.018-.115.018-.128.014-.142.02-.15.018h-.65l-.348-.027-.3-.032-.275-.055-.234-.06-.2-.078-.16-.087-.15-.1-.1-.115-.087-.12-.06-.15-.046-.147-.023-.16-.016-.187v-.192l.027-.2.023-.215 1.654-9.445" class="D E F G"/><path d="M38.117 28.05l-.023.147-.01.156.018.165.032.165.06.165.073.156.092.165.105.147.12.147.133.128.137.133.312.2.174.078.17.06.174.037.233.028.22.028.225.027.225.014.225.01h.234l.225-.01.234-.014.234-.037.234-.04.243-.055.234-.078.243-.1.247-.1.243-.137.252-.15-.344 2.13-.142.07-.137.07-.137.055-.128.05-.133.04-.137.046-.137.032-.147.027-.156.027-.174.018-.183.014-.2.018-.225.01h-.238l-.27.01h-.284l-.426-.01-.43-.04-.435-.064-.43-.1-.426-.133-.4-.165-.4-.215-.367-.247-.335-.3-.293-.353-.252-.4-.21-.458-.147-.513-.1-.577-.023-.642.04-.7.037-.275.05-.32.07-.34.1-.362.128-.37.156-.37.2-.38.243-.367.275-.344.34-.33.38-.293.43-.26.5-.215.564-.156.623-.105.7-.037.335.01.357.037.353.06.357.087.344.128.34.156.312.21.284.243.26.293.215.344.174.4.12.458.07.522.01.587-.06.66-.128.724-.046.527h-6.31l.4-1.7h3.8l.014-.215-.01-.206-.014-.192-.037-.17-.06-.165-.06-.147-.087-.133-.087-.12-.105-.105-.1-.087-.133-.078-.128-.07-.137-.05-.142-.037-.147-.023-.156-.018-.16.01-.16.023-.147.037-.147.05-.147.07-.128.078-.133.1-.1.105-.115.12-.1.133-.1.137-.078.147-.077.144-.06.174-.05.17-.037.183-.353 1.796z" class="B C"/><path d="M38.117 28.05h0l-.023.147-.01.156.018.165.032.165.06.165.073.156.092.165.105.147.12.147.133.128.137.133.312.2.174.078.17.06.174.037.233.028.22.028.225.027.225.014.225.01h.234l.225-.01.234-.014.234-.037.234-.04.243-.055.234-.078.243-.1.247-.1.243-.137.252-.15-.344 2.13-.142.07-.137.07-.137.055-.128.05-.133.04-.137.046-.137.032-.147.027-.156.027-.174.018-.183.014-.2.018-.225.01h-.238l-.27.01h-.284l-.426-.01-.43-.04-.435-.064-.43-.1-.426-.133-.4-.165-.4-.215-.367-.247-.335-.3-.293-.353-.252-.4-.21-.458-.147-.513-.1-.577-.023-.642.04-.7.037-.275.05-.32.07-.34.1-.362.128-.37.156-.37.2-.38.243-.367.275-.344.34-.33.38-.293.43-.26.5-.215.564-.156.623-.105.7-.037.335.01.357.037.353.06.357.087.344.128.34.156.312.21.284.243.26.293.215.344.174.4.12.458.07.522.01.587-.06.66-.128.724-.046.527h-6.31l.4-1.7h3.8l.014-.215-.01-.206-.014-.192-.037-.17-.06-.165-.06-.147-.087-.133-.087-.12-.105-.105-.1-.087-.133-.078-.128-.07-.137-.05-.142-.037-.147-.023-.156-.018-.16.01-.16.023-.147.037-.147.05-.147.07-.128.078-.133.1-.1.105-.115.12-.1.133-.1.137-.078.147-.077.144-.06.174-.05.17-.037.183-.353 1.796" class="D E F G"/><path d="M58.765 23.346l-.115-.06-.1-.05-.124-.06-.128-.06-.128-.055-.15-.05-.147-.055-.156-.05-.165-.04-.16-.037-.183-.032-.183-.027-.4-.036h-.637l-.225.018-.234.027-.243.04-.243.07-.243.1-.243.124-.243.156-.234.188-.225.225-.215.28-.21.32-.188.38-.183.43-.165.486-.137.554-.05.312-.037.3-.014.3v.293l.027.293.06.28.078.26.1.257.128.234.156.225.183.2.206.18.234.156.27.133.293.1.33.078.1.027.133.027.156.014.17.018.192.018h.417l.215-.018.225-.027.225-.04.215-.06.22-.07.215-.1.2-.115.183-.137.174-.156-.4 2.3-.055.046-.05.05-.07.06-.078.055-.1.07-.12.06-.142.06-.156.055-.2.06-.225.04-.26.037-.3.032-.34.018-.385.01-.445-.01-.48-.024-.394-.04-.4-.087-.4-.128-.4-.174-.38-.206-.367-.26-.344-.3-.315-.352-.284-.4-.243-.43-.21-.486-.15-.527-.105-.582-.037-.614.018-.674.1-.72.07-.353.078-.348.087-.335.087-.32.1-.3.1-.3.115-.29.12-.266.128-.27.133-.252.147-.238.156-.23.156-.215.174-.206.17-.192.183-.18.2-.174.2-.165.206-.147.215-.137.234-.133.234-.1.243-.105.252-.1.27-.087.266-.07.28-.06.293-.05.293-.046.312-.032.312-.018.33-.01.275.01.27.018.257.023.26.037.243.037.234.05.225.04.206.055.2.05.174.05.16.055.142.05.12.04.105.037.078.037.05.014-.43 2.4z" class="B C"/><path d="M58.765 23.346h0l-.115-.06-.1-.05-.124-.06-.128-.06-.128-.055-.15-.05-.147-.055-.156-.05-.165-.04-.16-.037-.183-.032-.183-.027-.4-.036h-.637l-.225.018-.234.027-.243.04-.243.07-.243.1-.243.124-.243.156-.234.188-.225.225-.215.28-.21.32-.188.38-.183.43-.165.486-.137.554-.05.312-.037.3-.014.3v.293l.027.293.06.28.078.26.1.257.128.234.156.225.183.2.206.18.234.156.27.133.293.1.33.078.1.027.133.027.156.014.17.018.192.018h.417l.215-.018.225-.027.225-.04.215-.06.22-.07.215-.1.2-.115.183-.137.174-.156-.4 2.3-.055.046-.05.05-.07.06-.078.055-.1.07-.12.06-.142.06-.156.055-.2.06-.225.04-.26.037-.3.032-.34.018-.385.01-.445-.01-.48-.024-.394-.04-.4-.087-.4-.128-.4-.174-.38-.206-.367-.26-.344-.3-.315-.352-.284-.4-.243-.43-.21-.486-.15-.527-.105-.582-.037-.614.018-.674.1-.72.07-.353.078-.348.087-.335.087-.32.1-.3.1-.3.115-.29.12-.266.128-.27.133-.252.147-.238.156-.23.156-.215.174-.206.17-.192.183-.18.2-.174.2-.165.206-.147.215-.137.234-.133.234-.1.243-.105.252-.1.27-.087.266-.07.28-.06.293-.05.293-.046.312-.032.312-.018.33-.01.275.01.27.018.257.023.26.037.243.037.234.05.225.04.206.055.2.05.174.05.16.055.142.05.12.04.105.037.078.037.05.014-.43 2.4" class="D E F G"/><path d="M80.075 32.1h-2.4l.174-.962v-.087l-.137.174-.147.156-.147.137-.156.124-.156.1-.156.1-.156.078-.165.078-.165.06-.165.046-.165.04-.174.027-.17.027-.165.014-.174.01h-.174l-.45-.032-.417-.1-.38-.147-.344-.2-.312-.247-.28-.3-.243-.316-.206-.367-.174-.4-.137-.408-.1-.422-.07-.44-.023-.445v-.45l.046-.44.078-.445.128-.51.156-.486.183-.44.215-.417.225-.4.26-.344.266-.312.29-.29.3-.247.32-.22.33-.188.325-.147.348-.124.344-.078.348-.05.353-.018.252.01.243.027.225.04.206.06.2.07.174.082.17.092.156.1.142.105.128.1.215.225.087.115.078.1.07.105.05.105.61-3.4h2.35L80.062 32.1z" class="B C"/><path d="M80.075 32.1h-2.4l.174-.962v-.087l-.137.174-.147.156-.147.137-.156.124-.156.1-.156.1-.156.078-.165.078-.165.06-.165.046-.165.04-.174.027-.17.027-.165.014-.174.01h-.174l-.45-.032-.417-.1-.38-.147-.344-.2-.312-.247-.28-.3-.243-.316-.206-.367-.174-.4-.137-.408-.1-.422-.07-.44-.023-.445v-.45l.046-.44.078-.445.128-.51.156-.486.183-.44.215-.417.225-.4.26-.344.266-.312.29-.29.3-.247.32-.22.33-.188.325-.147.348-.124.344-.078.348-.05.353-.018.252.01.243.027.225.04.206.06.2.07.174.082.17.092.156.1.142.105.128.1.215.225.087.115.078.1.07.105.05.105.61-3.4h2.35L80.062 32.1" class="D E F G"/><g class="B"><path d="M76.152 30.006l.243-.018.225-.05.206-.064.2-.092.18-.105.174-.128.165-.147.147-.156.128-.174.124-.192.1-.2.1-.206.087-.22.07-.225.06-.234.046-.234.04-.243.027-.247v-.234l-.01-.243-.023-.225-.037-.22-.06-.206-.07-.2-.087-.174-.105-.165-.115-.137-.128-.124-.147-.1-.156-.07-.165-.046-.18-.018-.234.018-.22.037-.2.07-.2.087-.17.1-.174.142-.147.147-.147.16-.133.192-.12.2-.115.21-.092.225-.087.234-.07.234-.073.252-.05.247-.04.385.018.412.06.426.1.4.174.357.225.284.284.192.348.07z" class="H"/><path d="M23.004 30.18l-.348 1.92H20.48l.06-.353.04-.32.037-.243.032-.133-.12.142-.137.137-.165.128-.183.124-.206.12-.22.105-.225.1-.234.087-.247.078-.254.07-.252.05-.26.032-.247.018-.252.01-.243-.027-.234-.032-.3-.078-.28-.087-.238-.115-.225-.13-.188-.137-.174-.156-.137-.165-.124-.174-.1-.18-.087-.192-.07-.192-.055-.188-.032-.2-.027-.2-.018-.192v-.188l.027-.34.05-.32.087-.3.115-.293.137-.275.156-.252.183-.243.206-.215.215-.2.243-.18.252-.165.26-.142.275-.12.284-.1.3-.078.3-.05h.02l.046-.01.06-.01.1-.01.105-.014.12-.01.128-.018.147-.018.15-.018.147-.014.156-.01.137-.018.137-.01.128-.01.124-.01h.293l.206.01.192.01h.192l.15.01h.124l.087.01h.023l.018-.064.055-.156.04-.18.018-.165-.037-.192-.078-.17-.1-.156-.142-.133-.16-.1-.183-.078-.21-.055-.225-.014-.25-.007-.257-.01h-.27l-.273.01-.284.018-.28.023-.275.027-.27.032-.26.037-.247.04-.225.046-.21.04-.188.055-.156.05-.124.06-.1.05.62-2.088.188-.078.192-.07.206-.06.206-.04.21-.046.225-.032.225-.037.234-.018.243-.018.247-.01h1.4l.307.01.243.018.257.046.27.06.275.078.27.1.257.124.26.147.243.165.215.188.192.21.17.234.133.257.087.28.05.293v.33l-.05.344L23 30.18z" class="C"/></g><path d="M23.004 30.18l-.348 1.92H20.48l.06-.353.04-.32.037-.243.032-.133-.12.142-.137.137-.165.128-.183.124-.206.12-.22.105-.225.1-.234.087-.247.078-.254.07-.252.05-.26.032-.247.018-.252.01-.243-.027-.234-.032-.3-.078-.28-.087-.238-.115-.225-.13-.188-.137-.174-.156-.137-.165-.124-.174-.1-.18-.087-.192-.07-.192-.055-.188-.032-.2-.027-.2-.018-.192v-.188l.027-.34.05-.32.087-.3.115-.293.137-.275.156-.252.183-.243.206-.215.215-.2.243-.18.252-.165.26-.142.275-.12.284-.1.3-.078.3-.05h.02l.046-.01.06-.01.1-.01.105-.014.12-.01.128-.018.147-.018.15-.018.147-.014.156-.01.137-.018.137-.01.128-.01.124-.01h.293l.206.01.192.01h.192l.15.01h.124l.087.01h.023l.018-.064.055-.156.04-.18.018-.165-.037-.192-.078-.17-.1-.156-.142-.133-.16-.1-.183-.078-.21-.055-.225-.014-.25-.007-.257-.01h-.27l-.273.01-.284.018-.28.023-.275.027-.27.032-.26.037-.247.04-.225.046-.21.04-.188.055-.156.05-.124.06-.1.05.62-2.088.188-.078.192-.07.206-.06.206-.04.21-.046.225-.032.225-.037.234-.018.243-.018.247-.01h1.4l.307.01.243.018.257.046.27.06.275.078.27.1.257.124.26.147.243.165.215.188.192.21.17.234.133.257.087.28.05.293v.33l-.05.344L23 30.18" class="D E F G"/><g class="B"><path fill="#ed1b2e" d="M20.92 27.92l-.01-.046-.037-.04-.05-.027-.087-.018-.1-.014-.1-.01h-.26l-.137.01-.147.014-.137.018-.142.018-.128.018-.12.023-.105.027-.1.027-.06.018-.07.023-.1.037-.1.04-.1.05-.115.064-.12.06-.115.07-.12.087-.115.087-.1.105-.1.1-.087.115-.06.12-.055.137-.005.143-.01.3.04.234.09.166.115.133.128.087.147.05.137.027.137.01.26-.006.234-.027.225-.037.2-.05.17-.06.165-.078.147-.078.133-.1.1-.087.105-.1.087-.1.07-.105.06-.1.055-.105.04-.1.027-.1.07-.247.06-.29.05-.275.046-.225z"/><path d="M4.793 32.1h-2.35l1.96-11.365h4.1l.4 6.74 2.82-6.74h4.28L13.985 32.1H11.63l1.49-8.49h-.1L9.5 32.1H6.846l-.018-.353-.06-.944L6.7 29.46l-.087-1.54-.17-2.9-.06-.985-.018-.417h-.124L4.793 32.1z" class="C"/></g><path d="M4.793 32.1h-2.35l1.96-11.365h4.1l.4 6.74 2.82-6.74h4.28L13.985 32.1H11.63l1.49-8.49h-.1L9.5 32.1H6.846l-.018-.353-.06-.944L6.7 29.46l-.087-1.54-.17-2.9-.06-.985-.018-.417h-.124L4.793 32.1" class="D E F G"/><g class="B"><g class="C"><path d="M65.956 30.18l-.353 1.92H63.43l.018-.353v-.55l.018-.1-.1.128-.133.128-.156.124-.174.12-.18.115-.21.105-.215.1-.215.087-.234.07-.243.07-.243.046-.243.032-.247.018-.243.01-.234-.027-.234-.032-.312-.078-.28-.087-.238-.115-.23-.128-.188-.137-.165-.156-.137-.165-.124-.174-.1-.18-.078-.192-.073-.192-.04-.188-.032-.2-.027-.2-.018-.192v-.188l.018-.34.05-.32.078-.3.115-.293.128-.275.165-.252.183-.243.2-.215.225-.2.234-.18.252-.165.27-.142.266-.12.284-.1.29-.078.293-.05h.018l.04-.01.06-.01.087-.01.115-.014.12-.01.133-.018.137-.018.147-.018.156-.014.147-.01.147-.018.137-.01.124-.01.12-.01h.3l.21.01.2.01h.192l.16.01.142.01.078.01h.032l.018-.064.027-.156.023-.18.018-.165-.032-.192-.07-.17-.115-.156-.128-.133-.156-.1-.183-.078-.192-.055-.206-.014-.243-.01-.26-.01h-.27l-.28.01-.284.018-.275.023-.28.027-.266.032-.26.037-.252.04-.225.046-.206.04-.192.055-.156.05-.12.06-.1.05.6-2.085.192-.078.2-.07.2-.06.206-.04.215-.046.22-.032.225-.037.234-.018.243-.018.247-.01h1.36l.293.01.243.018.26.046.266.06.28.078.266.1.27.124.257.147.243.165.215.188.2.21.174.234.128.257.1.28.06.293v.33l-.046.344-.907 4.573z"/><path d="M65.603 32.16l.05-.05.353-1.92-.1-.018-.357 1.92.055-.05v.12l.04-.01.01-.04-.05.05z"/><path d="M63.376 32.1l.055.06h2.172v-.12H63.43l.05.06h-.105l-.01.06h.064l-.055-.06z"/><path d="M63.518 31.13l-.078-.07-.037.137-.01.234v.316l-.018.353h.105l.018-.353.018-.316-.01-.234v-.07l-.078-.07.087.07z"/><path d="M60.15 32.238h0l.243.037.234.023h.243l.247-.018.252-.037.243-.04.243-.07.243-.073.215-.082.225-.105.21-.105.18-.12.183-.124.156-.12.137-.137.115-.133-.087-.07-.115.133-.12.12-.156.12-.165.124-.183.105-.206.1-.206.105-.22.087-.225.07-.243.07-.243.046-.234.032-.247.018-.243.01-.234-.027-.225-.032-.018.1z"/><path d="M58.056 29.617h0l.01.188.018.192.023.206.037.2.04.188.07.2.078.2.115.183.12.18.137.165.174.165.2.137.225.142.252.1.284.087.312.078.018-.1-.312-.082-.27-.082-.234-.115-.225-.12-.183-.142-.156-.147-.137-.165-.12-.16-.1-.183-.078-.183-.07-.183-.046-.188-.032-.2-.027-.192-.018-.192.01-.188h-.12z"/><path d="M61.166 26.294h0l-.3.05-.3.078-.284.1-.275.12-.27.137-.257.174-.234.183-.23.206-.206.215-.18.243-.174.26-.133.284-.1.293-.078.312-.05.33-.027.34h.12l.01-.34.05-.312.078-.293.115-.293.128-.27.156-.243.183-.243.192-.215.225-.188.234-.183.243-.156.266-.137.26-.124.284-.092.275-.078.29-.055v-.1z"/><path d="M62.945 26.11h-.1l-.12.018-.124.01h-.137l-.147.018-.147.01-.156.018-.147.018-.137.018-.133.014-.12.01-.115.018-.087.01-.07.01-.032.01h-.018v.1h.018l.1-.018h.087l.115-.018.12-.01.133-.018.137-.018.147-.014.156-.018.147-.01.147-.018.137-.01.124-.01h.215v-.118z"/><path d="M64.114 26.207l.05-.046h-.032l-.078-.01-.142-.01-.16-.014h-.4l-.21-.018h-.206v.12h.417l.2.018h.353l.142.01.078.01h.032l.055-.04-.055.04.046.01.01-.05-.105-.018z"/><path d="M64.204 25.653h-.01l-.01.165-.027.174-.023.15-.018.064.105.018.014-.064.027-.156.027-.188.023-.165h-.1z"/><path d="M63.17 24.796v.01l.2.01.183.05.174.078.147.105.12.12.105.147.07.156.037.183h.1l-.032-.2-.07-.188-.124-.165-.137-.137-.165-.124-.188-.078-.2-.05-.215-.027v.115z"/><path d="M59.458 25.213l.087.05.087-.046.1-.06.147-.05.192-.05.206-.046.477-.087.252-.032.266-.037.28-.023.275-.027.284-.018h.807l.243.01v-.105l-.243-.01-.26-.014H62.4l-.28.014-.284.018-.275.027-.28.027-.266.032-.27.037-.252.04-.225.04-.206.046-.188.05-.167.057-.133.06-.1.06.082.05-.1-.014z"/><path d="M60.1 23.082l-.037.04-.6 2.1.1.014.61-2.085-.037.046-.032-.105-.027.01-.01.032.037-.04z"/><path d="M63.95 22.683h0l-.293-.018-.293-.01h-.814l-.252.018-.247.01-.243.018-.234.018-.234.032-.22.037-.215.04-.206.046-.206.06-.2.07-.188.078.032.105.192-.078.2-.073.192-.06.206-.04.215-.046.215-.032.22-.037.234-.014.243-.018.247-.01h1.068l.293.01h.288v-.105z"/><path d="M66.918 25.616h0l.04-.353v-.33l-.06-.3-.1-.284-.137-.27-.174-.243-.206-.215-.215-.188-.252-.165-.26-.156-.275-.124-.27-.1-.284-.078-.27-.064-.266-.04-.243-.018v.105l.243.018.252.04.266.06.27.078.266.105.26.12.26.137.234.165.215.192.188.2.174.23.124.247.092.27.064.284v.33l-.046.34.105.014z"/><path d="M66.006 30.19h0l.912-4.573-.105-.014-.907 4.57.1.018z"/></g><path d="M63.86 27.92l-.018-.055-.032-.04-.06-.027-.087-.023-.1-.01-.115-.01h-.128l-.128.01-.142.018-.137.014-.137.018-.128.018-.133.027-.1.014-.115.027-.087.018-.06.01-.07.023-.087.027-.1.032-.1.055-.105.05-.12.06-.115.078-.1.078-.115.1-.1.1-.092.1-.082.124-.06.128-.05.137-.027.147-.01.3.046.234.07.17.105.133.128.087.147.05.147.027.147.01.26-.01.243-.027.225-.04.2-.064.192-.07.165-.078.156-.087.137-.1.124-.1.1-.115.1-.1.078-.115.06-.105.046-.1.06-.197.032-.243.046-.252.032-.243.018-.215z" class="H"/><g class="C"><path d="M81.692 30.914l.018-.2.07-.234.12-.2.147-.18.183-.147.206-.105.225-.07.243-.027.243.027.225.07.206.105.183.147.147.18.124.2.07.234.018.2h-.26l-.01-.156-.05-.188-.087-.174-.115-.147-.137-.124-.165-.087-.192-.06-.2-.018-.2.018-.192.06-.165.087-.137.124-.115.147-.082.174-.055.188-.018.156zm.778 0v-.518h.472l.105.01.1.018.07.023.06.037.046.05.032.05.018.064.01.06-.01.078-.018.06-.023.05-.018.018h-.367l.037-.01.06-.01.055-.014.04-.018.037-.028.014-.027.018-.04v-.06l-.01-.046-.018-.032-.023-.018-.027-.018-.04-.01-.046-.01h-.353v.34z"/><path d="M81.692 30.913l-.01.055.028.247.07.234.12.2.147.17.183.147.206.115.225.07.243.027.243-.027.225-.07.206-.115.183-.147.147-.17.126-.207.07-.234.023-.247v-.055h-.26l.01.055-.018.206-.05.188-.087.165-.115.147-.137.124-.165.1-.192.06-.2.018-.2-.018-.192-.06-.165-.1-.137-.124-.115-.147-.082-.165-.055-.188-.018-.206v-.06zm.778 0v.527h.215V31h.215l.26.43h.17l-.257-.43h.06l.06-.018.055-.018.04-.032.018-.027h-.367l-.04.01h-.215v-.01z"/></g></g><path d="M81.683 30.964h0l.023-.247.073-.234.12-.21.147-.18.183-.147.206-.105.225-.07.243-.027.243.027.225.07.206.105.183.147.147.18.124.21.07.234v.5l-.07.234-.124.21-.147.17-.183.147-.206.115-.225.07-.243.027-.243-.027-.226-.07-.206-.115-.182-.14-.147-.17-.12-.21-.073-.234-.023-.252m1 .458h-.2v-1.03h.724l.06.037.046.05.032.05v.312l-.037.046-.04.032h-.174l.26.43h-.174l-.26-.43h-.215v.43m.215-.518h.234l.037-.027v-.184h-.495v.344h.215m0 1.05h.2l.188-.06.165-.1.137-.124.115-.147.087-.165.055-.266v-.417l-.05-.188-.087-.174-.115-.147-.137-.124-.165-.087-.188-.06h-.4l-.192.06-.165.087-.138.124-.115.147-.082.174-.055.188v.417l.055.188.082.165.115.147.138.124.165.1.192.06h.2" class="D E F G"/><path d="M66.606 32.1h2.438l.875-4.926.037-.188.05-.192.05-.188.07-.192.087-.188.105-.183.115-.174.137-.165.156-.147.174-.137.2-.128.225-.105.252-.087.275-.07.3-.05.34-.018h.215l.4-2.227-.243.018-.234.027-.215.04-.206.064-.192.07-.18.082-.174.1-.165.105-.156.12-.147.124-.274.274-.133.147-.128.165-.133.156-.12.174.26-1.567h-2.433l-1.618 9.27z" class="B C"/><path d="M66.606 32.1h2.438l.875-4.926.037-.188.05-.192.05-.188.07-.192.087-.188.105-.183.115-.174.137-.165.156-.147.174-.137.2-.128.225-.105.252-.087.275-.07.3-.05.34-.018h.215l.4-2.227-.243.018-.234.027-.215.04-.206.064-.192.07-.18.082-.174.1-.165.105-.156.12-.147.124-.274.274-.133.147-.128.165-.133.156-.12.174.26-1.567h-2.433l-1.618 9.27" class="D E F G"/><path d="M43.69 32.1h2.484l.83-4.926.037-.188.082-.366.064-.17.07-.174.087-.165.1-.156.124-.147.137-.133.156-.128.192-.1.206-.1.243-.078.266-.07.3-.046.335-.023h.027l.037.01h.082l.046.01.032.01.027.01h.01l.01-.032.023-.105.037-.156.04-.192.064-.225.06-.243.156-.486.07-.16.174-.33.087-.147.078-.133.06-.1.04-.06.018-.027h-.01l-.032-.01-.046-.01-.06-.01h-.06l-.07-.01-.064-.01h-.06l-.266.018-.243.027-.225.04-.21.055-.2.07-.183.087-.165.087-.156.1-.147.115-.137.128-.128.128-.133.147-.128.15-.12.16-.133.174-.128.174.312-1.567h-2.48l-1.618 9.27z" class="B C"/><path d="M43.69 32.1h2.484l.83-4.926.037-.188.082-.366.064-.17.07-.174.087-.165.1-.156.124-.147.137-.133.156-.128.192-.1.206-.1.243-.078.266-.07.3-.046.335-.023h.027l.037.01h.082l.046.01.032.01.027.01h.01l.01-.032.023-.105.037-.156.04-.192.064-.225.06-.243.156-.486.07-.16.174-.33.087-.147.078-.133.06-.1.04-.06.018-.027h-.01l-.032-.01-.046-.01-.06-.01h-.06l-.07-.01-.064-.01h-.06l-.266.018-.243.027-.225.04-.21.055-.2.07-.183.087-.165.087-.156.1-.147.115-.137.128-.128.128-.133.147-.128.15-.12.16-.133.174-.128.174.312-1.567h-2.48l-1.618 9.27" class="D E F G"/><g class="B H"><path d="M81.7 41.205v-.037l.07-.225.12-.2.147-.174.183-.137.206-.105.225-.06.243-.027.243.027.225.06.206.105.183.137.147.174.124.2.07.225v.037h-.252l-.05-.183-.087-.165-.115-.147-.137-.12-.165-.1-.192-.06-.2-.018-.2.018-.192.06-.165.1-.138.12-.115.147-.082.165-.055.183zm.77 0v-.3h.577l.1.014.07.018.06.037.046.04.032.05.018.064.01.078h-.18v-.046l-.01-.04-.018-.037-.023-.018-.027-.014-.04-.01-.046-.01h-.353v.174z"/><path d="M81.683 41.394l.028-.188h.247v.01l-.018.18zm.787 0v-.188h.215v.174h.215l.078-.018.06-.01.055-.018.04-.018.037-.023.014-.027.018-.046v-.015h.174l-.01.06-.018.05-.023.046-.037.032zm1.394 0l-.018-.18v-.01h.252l.023.188z"/><path d="M81.683 41.394v.027l.028.252.07.234.12.206.147.183.183.147.206.1.225.073.243.023.243-.023.225-.073.206-.1.183-.147.147-.183.124-.206.07-.234.023-.252v-.027h-.257v.027l-.018.206-.05.192-.087.165-.115.147-.137.12-.165.1-.192.06-.2.018-.2-.018-.192-.06-.165-.1-.137-.12-.115-.147-.082-.165-.055-.192-.018-.206v-.027zm.787 0v.5h.215v-.43h.215l.26.435h.17l-.257-.435h.06l.06-.014.055-.018.04-.037h-.82z"/></g></g></svg>