<svg xmlns="http://www.w3.org/2000/svg" width="89.116" height="27.913" opacity=".45"><path d="M.085 5.45a.87.87 0 0 1 .938-.938h9.02c2.795.318 4.736 1.674 5.02 5.473v5.07a6.88 6.88 0 0 1-.268 2.109 5.02 5.02 0 0 1-5.021 3.817h-3.95v6.192c0 .452-.4.686-.87.686H.872c-.232.025-.463-.053-.63-.215a.79.79 0 0 1-.24-.62zm5.774 4.8h2.5a1 1 0 0 1 .987.987v2.93a1 1 0 0 1-.987.987h-2.5zm13.655-5.702h6.36c3.715.218 5.74 2.176 5.7 6.226v15.063c-.102 1.14-1.047 2.02-2.192 2.042h-8.366a4.82 4.82 0 0 1-4.619-3.9 29.84 29.84 0 0 1-.1-5.992c-.1-1.462.4-2.902 1.364-3.998a5.45 5.45 0 0 1 3.808-1.826h3.347c.987 0 .937-2.2 0-2.142h-5.223a.87.87 0 0 1-.954-.82v-4c0-.5.418-.653.887-.653zm3.515 12.97h1.94a.82.82 0 0 1 .82.837v3.347a.82.82 0 0 1-.82.837h-1.94a.84.84 0 0 1-.837-.837v-3.3a.84.84 0 0 1 .837-.837zM33.475 5.603v9.456a5.81 5.81 0 0 0 5.791 5.205h2.695c1.1 0 1.038 1.858 0 1.858h-5.775c-.636 0-.854.335-.854.887v4.167c.004.203.1.395.238.534s.346.2.55.202h5.372c4.485 0 7.046-2.16 7.03-6.98V5.235a.62.62 0 0 0-.636-.7h-4.5c-.418 0-.653.452-.653.787v8.6a.52.52 0 0 1-.536.586h-2.143a.67.67 0 0 1-.753-.736v-8.37c0-.552-.234-.954-.837-.954H34.13c-.485 0-.62.485-.62 1.1z" fill="#1e398d" fill-rule="evenodd"/><path d="M50.797 9.497v-4.1a.8.8 0 0 1 .8-.8h.987c2.527-.52 3.13-2.008 4.686-3.682.958-1.037 1.795-1.305 2.414-.218v3.9H62a.8.8 0 0 1 .8.8v4.1a.8.8 0 0 1-.8.8h-2.326V27.04c0 .2-.085.413-.235.56a.79.79 0 0 1-.565.226h-4.087a.79.79 0 0 1-.8-.786V10.305H51.6a.82.82 0 0 1-.8-.8zm29.02 17.277a1 1 0 0 1-1 .987h-3.84a1 1 0 0 1-1-.988V11.4c0-1.674-3.347-1.925-3.347 0v15.364a1 1 0 0 1-.987.987h-3.852a1 1 0 0 1-1-.988V5.452a.99.99 0 0 1 .294-.703.98.98 0 0 1 .706-.284h3.85c.262 0 .513.104.698.3a.99.99 0 0 1 .29.698v.3a5.96 5.96 0 0 1 8.2.418c3.916-4.5 10.577-.485 10.276 4.418v16.236a1 1 0 0 1-1 .987H84.22a1 1 0 0 1-1-.988V11.5c-.218-2.142-3.448-1.674-3.347 0v15.314z" fill-rule="evenodd" fill="#00aeef"/></svg>