<svg xmlns="http://www.w3.org/2000/svg" width="317" height="240"><defs><clipPath id="A"><rect width="317" height="240" rx="10" fill="#f3f3f3" x="1094" y="317"/></clipPath></defs><g transform="translate(-1094 -317)" clip-path="url(#A)"><path d="M1320.994 613.74a136.5 136.5 0 0 1-95.048.133l5.425-24.207s74.97-34.585 83.016-12.2c3.425 9.51 5.477 22.206 6.607 36.274z" fill="#2d3133"/><path d="M1333.464 433.1l-35.564-14.694-30.436 2.57-6.29 2.874-36.84 19.1 9.61 70.2c3.256 12.573-2.514 37-3.182 50.01-.53 10.314 2.87 14.954 2.97 15.087h0l79.272-11.136s3.516-24.923 3.786-38.387z" fill="#decbc4"/><path d="M1233.735 578.233s-1.83 2.185-2.354 11.433c0 0 75.078-8.76 83.016-12.2 0 0 .313-10.2-1.373-10.372-1.867-.203-79.29 11.14-79.29 11.14z" fill="#495055"/><path d="M1297.752 415.845c-.233 11.783-23.05 18.23-23.05 18.23s-9.545-11.963-7.265-13.11c.9-.45 1.262-2.238 1.374-4.242a39.96 39.96 0 0 0-.133-5.34c-.064-.838-.127-1.373-.127-1.373s3.256-3.436 7.424-7.535c7.25-7.164 17.213-16.343 17.23-12.7a3.28 3.28 0 0 1-.085.689c-1.772 8.23 4.634 25.37 4.634 25.37z" fill="#eea886"/><g fill="#353a3d"><path d="M1295.858 568.896s1.64 10.33 1.782 13.024l3.473-.7s-.96-10.934-1.522-12.77zM1240 577.05s-1.315 9.4-1.347 12.94l3.675-.477s.753-11.73 1.172-12.955z"/></g><path d="M1288.965 398.6h0c-.042.07-1.008 1.517-2.65 3.6-3.5 4.4-10.075 11.64-17.5 14.546.075-1.78.03-3.565-.133-5.34a12.23 12.23 0 0 1-2.264-.276c1.5-2.523 3.158-4.95 4.963-7.265l4.576-1.368z" fill="#a77860"/><path d="M1293.345 389.952l-4.38 8.638c-.702 1.324-1.595 2.537-2.65 3.6-3.76 4.05-10.75 9.39-17.62 9.206a12.23 12.23 0 0 1-2.264-.276c-2.773-.6-6.045-1.893-7.848-5.425-14.238-27.866-3.93-50.653-3.93-50.653s38.918-11.01 45.005.71c4.256 8.215-1.677 24.108-6.312 34.2z" fill="#eea886"/><path d="M1254.635 355.043s-3.617-.2-4.507-7.053c-.886-6.772.9-8.65.9-8.65s16.068-6.724 21.837-7.6 19.955-1.71 23.28 2.09c0 0 8.082-1.877 10.282 11.534 3.495 21.28-11.9 41.945-11.9 41.945s.133-13.888-2.938-15.744-5.706 2.535-5.706 2.535l-6.273 1.124s9.545-20.564-1.9-21.328-16.537 2.338-23.075 1.145z" fill="#f8951d"/><path d="M1286.054 368.56c.594-6.125 11.666-8.485 10.93-2.042s-6.194 12.59-8.713 12.372-2.673-5.656-2.216-10.33z" fill="#eea886"/><g fill="#2d2d2d"><path d="M1362.93 524.776v-.4c-.212-8.95-4.62-44.814-12.043-68.6-3.6-11.55-4.433-19.62-5.833-20.612-2.423-1.734-23.926-8.1-33.047-11.666l-5.605-2.18a148.79 148.79 0 0 0-10.123 12.923c-9.423 13.4-21.694 35.094-19.817 55.15l2.6 26.026.334 2.683 1 7.28.7 4.47c2.492 15.532 10.314 26.127 17.255 38.8l.186.323c.027.058.064.117.1.18.143.265.3.53.44.8l.716 1.342.4.774a222.03 222.03 0 0 1 3.892 7.779l2.4 5.075.24.53 7.27 16.92 1.95 4.57.674 1.6 2.35 5.982 2.047-.753a135.19 135.19 0 0 0 27.532-14.084 43.02 43.02 0 0 0-2.061-9.685c-1.626-4.348-3.526-8.588-5.7-12.695l-2.885-5.488 19.955-35.88c3.118-5.984 5.075-10.12 5.075-11.16zm-27.246-3.967c-.138 2.47-2.593 8.713-6.167 16.715h0l-4.285 9.344-.175-.414c-2.233-5.45-3.685-10.57-3.685-15.04 0 0 .986-34.808 3.383-44.236-.002-.028-.002-.057 0-.085a.6.6 0 0 1 .032-.106 1.1 1.1 0 0 1 .042-.18c.01-.028.02-.056.026-.085h0c.002-.01.002-.02 0-.032 0 0 11.707 18.242 10.83 34.12zm-74.702-96.66s-3.214 10.685-7.366 37.364h0l-.424 2.742a2.17 2.17 0 0 1-.048.323l-.28 1.877-.027.223-.2 1.283q-.233 1.6-.467 3.224c-1.856 12.987-4.45 35.1-6.947 57.4h0c-1.978 17.584-6.475 35.635-7.9 49.1h0a94.34 94.34 0 0 1-1.867 10.128l-.323 1.363c-1.893 8-4.624 17.563-7 25.454l-2.2-.8q-5.632-2.095-11.025-4.66c5.075-17.14 14.62-51.968 16.614-77.6v-.026c.726-9.423-2.026-18.305-3.622-26.72a1.86 1.86 0 0 0-.08.223l-4.317 11.7c-2 5.3-4.035 10.378-5.775 14.227s-3.182 6.454-4.046 6.766c-3.314 1.22-58.33-13.554-72.56-19.2-2.073-.817-3.282-1.448-3.346-1.8l1.654-6.23 3.24-12.234 54.4 11.847 25.915-67.77c.573-.456 8-4.46 12.928-6.8l17.356-8.108 7.5-3.447z"/></g><g fill="#51565c"><path d="M1300.06 450.552l-11.1 6.255 4.74 4.84-12.626 68.173c-2.577-15.983-3.744-31.16-4.62-40.46-2.9-30.974 28-65.914 29.924-68.057l4.773 1.84zm-38.906-26.705s-4.147 13.543-8.983 47.35c-1.85 12.987-4.454 35.1-6.952 57.4l-2.585-63.84 5.3-5.732-4.7-5.87 10.075-25.682 7.52-3.463z"/></g><g fill="#f5e2d9"><path d="M1306.95 421.445l-9.2-5.6s-.26 5.048-23.05 18.23l6.475 18.226z"/><path d="M1268.64 418.4s.36 5.446 6.06 15.686l-12.63 16.44-.917-26.705z"/></g><path d="M1274.737 434.087s2.445 9.79 1.564 12.53c0 0-5.382 1.962-9.253-.488a43.18 43.18 0 0 1 7.689-12.043z" fill="#323657"/><path d="M1262.08 575.306c-1.368-6.894-.064-27.612 0-28.492l1.172.08c0 .212-1.352 21.423 0 28.185z" fill="#ad9f99"/><path d="M1271.666 572.12s-11.046 1.32-14.7 2.232l.477 12.382 14.47-1.543z" fill="#69737a"/><path d="M1269.265 445.25s-12.324 31.117-10.314 65.94c2.084 36.112 5.5 49.205 5.5 49.205l7.6 9.545 3.35-11.714s-10.2-46.034-3.616-90.832c1.193-8.12 2.964-23.5 2.964-23.5z" fill="#323657"/><path d="M1306.273 592.196s-2.65 5.3-5.3 6.167-6.485 5.2-6.485 5.2l18.618 9.805s4.958-9.694 5.176-15.86-12.01-5.31-12.01-5.31z" fill="#eea886"/><path d="M1304.507 592.69l-1.235 2.482s11.825 8.644 15.012 9.2l1.092-3.3z" fill="#decbc4"/><path d="M1303.272 592.8s8.86 7.323 16.327 10.706l25.114-45.17-13.012-25.156s-27.84 55.213-28.43 59.62z" fill="#3c4145"/><g fill="#2d3133"><path d="M1228.263 489.083c-.414 8.357-.35 15.776-.35 15.776h0c0 .042 0 .265-.032.642a3.61 3.61 0 0 0-.053-.419l-4.3 11.7c-.325-4.234-.437-8.482-.334-12.727.6-23.433 7.954-35.72 7.954-35.72-1.675 4.065-2.486 12.83-2.874 20.748zm112.52 88.19l-20.082 24.282 17.224-29.77 2.858 5.488z"/></g><path d="M1194.786 546.825h-46.426c-3.182 0-5.95-2.178-6.7-5.27l-20.147-83.255c-.497-2.054-.025-4.223 1.282-5.885s3.304-2.63 5.418-2.63h46.412c3.19.003 5.962 2.196 6.7 5.3l20.15 83.255c.486 2.05.01 4.207-1.295 5.86s-3.292 2.62-5.397 2.625z" fill="#535353"/><path d="M1138.014 523.688c2.27-2.12 6.655-3.32 10.4-5.833s.62-5.09.62-5.09c3.855-1.326 3.442-3.08 2.943-4.285-.663-1.617-4.873-1.156-4.873-1.156a41.79 41.79 0 0 0 5.3-1.522c1.554-.69 1.03-3.394-1.363-4.242s-12.122 1.543-12.122 1.543l6.363-3.182c4.772-2.408 5.833-4.6 3.023-5.653-1.967-.732-5.833.806-13.257 5.79-5.584 3.754-5.133 4.242-5.133 4.242s5.385 21.902 8.1 19.388z" fill="#eea886"/><g fill="#807066"><path d="M1281.9 369.376c-.78 5.223 2.37 10.017 7.042 10.717s9.094-2.96 9.874-8.182-2.37-10.017-7.042-10.717-9.1 2.964-9.874 8.182z"/><path d="M1264.82 390.837l-.33-1.94c17.58-2.975 26.594-17.5 26.684-17.653l1.686 1.023c-.382.626-9.582 15.474-28.04 18.57z"/><path d="M1260.982 390.72c.008 1.413 1.01 2.623 2.398 2.893s2.77-.476 3.308-1.783.077-2.8-1.098-3.593-2.74-.628-3.74.37c-.56.56-.872 1.32-.868 2.112z"/></g></g></svg>