<svg xmlns="http://www.w3.org/2000/svg" width="34.491" height="34.551"><path d="M20.908 7.656a7.5 7.5 0 0 1 5.925 5.925M20.908 1.656a13.5 13.5 0 0 1 11.925 11.91m-1.5 11.97v4.5a3 3 0 0 1-3.27 3c-4.615-.5-9.05-2.076-12.945-4.6a29.25 29.25 0 0 1-9-9c-2.536-3.915-4.113-8.372-4.605-13a3 3 0 0 1 2.985-3.27h4.5a3 3 0 0 1 3 2.58 19.26 19.26 0 0 0 1.05 4.22 3 3 0 0 1-.675 3.165l-1.905 1.9a24 24 0 0 0 9 9l1.9-1.905a3 3 0 0 1 3.165-.675 19.26 19.26 0 0 0 4.215 1.05 3 3 0 0 1 2.585 3.045z" fill="none" stroke="#f8951d" stroke-linecap="round" stroke-linejoin="round" stroke-width="3"/></svg>