<svg xmlns="http://www.w3.org/2000/svg" xmlns:xlink="http://www.w3.org/1999/xlink" width="33.668" height="33.536"><g fill="#a0b5c5"><ellipse cx="31.422" cy="16.42" rx="2.245" ry="2.105"/><circle cx="3.775" cy="29.332" r="2.386"/></g><path fill="#4da74d" d="M25.993 23.612c1.133 1.143 1.765 2.7 1.757 4.3s-.655 3.15-1.8 4.283c-7.32 7.32-31.885-17.36-24.623-24.623A6.04 6.04 0 0 1 11.5 10.246a6.04 6.04 0 0 1-1.631 5.867c-.17.172-.514.5-.7.642l7.6 7.6a11.08 11.08 0 0 1 .642-.7c2.36-2.38 6.2-2.4 8.582-.043z"/><path fill="#ffd107" d="M23.298 9.94a3.6 3.6 0 0 1 3.118 5.4 3.6 3.6 0 0 1-3.118 1.8h-8.145v-3.6a3.6 3.6 0 0 1 3.6-3.6z"/><path fill="#f8951d" d="M31.442 6.34v3.6H23.3a3.6 3.6 0 1 1 0-7.2h4.546a3.6 3.6 0 0 1 3.597 3.6z"/><g fill="#94d4ff"><circle cx="31.702" cy="28.63" r=".561"/><circle cx="31.141" cy=".561" r=".561"/><ellipse cx="16.125" cy="6.455" rx=".421" ry=".561"/><ellipse cx="11.212" cy="31.297" rx=".561" ry=".421"/><ellipse cx="8.547" cy=".561" rx=".702" ry=".561"/><ellipse cx=".827" cy="21.473" rx=".561" ry=".702"/></g><g fill="#33383f"><use xlink:href="#B"/><use x="16.072" y="16.062" xlink:href="#B"/></g><g fill="#fff"><use xlink:href="#C"/><path d="M23.487 13.35h-3.03a.38.38 0 0 1-.379-.379.38.38 0 0 1 .379-.379h3.03a.38.38 0 0 1 .379.379.38.38 0 0 1-.379.379z"/><use x="5.313" y="-7.577" xlink:href="#C"/><path d="M25.76 5.772h-3.03a.38.38 0 0 1-.379-.379.38.38 0 0 1 .379-.379h3.03a.38.38 0 0 1 .328.569.38.38 0 0 1-.328.189z"/></g><defs><path id="B" d="M8.858 12.538c-.1 0-.197-.04-.268-.11l-3.75-3.75a.38.38 0 0 1 0-.536.38.38 0 0 1 .536 0l3.75 3.75a.38.38 0 0 1-.268.647z"/><path id="C" d="M23.487 15.243h-6.06a.38.38 0 0 1-.379-.379.38.38 0 0 1 .379-.379h6.06a.38.38 0 0 1 .379.379.38.38 0 0 1-.379.379z"/></defs></svg>