<svg xmlns="http://www.w3.org/2000/svg" width="105.828" height="27.601" opacity=".45"><path d="M59.658 5.593c.5-3.945-2.5-5.593-6.265-5.593h-9.867l-5.823 21.226h6.27l1.763-6.543 5 .03s7.732.327 8.923-9.12zM53.22 7.7c-.433 1.298-1.702 2.13-3.065 2.007h-3.078L48.3 5.2h3.22c.624-.058 1.23.228 1.584.746a1.72 1.72 0 0 1 .116 1.746zM23.843 5.805h5.718l-2.358 9.06s-.6 2.02 1.3 2.177c1.492.124 2.6-1.658 2.968-2.865l2.336-8.373h5.896l-4.48 15.422h-5.145l.632-2.2s-2.623 3.2-6.522 2.816c-3.467-.34-3.766-2.855-3.163-6 .294-1.54 2.818-10.046 2.818-10.046zm49.724 7.815c.754-2.566 1.706-5 .938-6.34-1.172-2.07-3.294-2.24-6.4-2.24-3.43 0-7.662.65-9.042 5.2h5.708a2.51 2.51 0 0 1 2.662-1.609c1.9.1 1.793 1.4 1.094 2.122-1.225 1.264-4.612.563-8.36 1.864-3.276 1.138-4.423 5.444-3.713 7.164.7 1.667 1.975 1.88 3.708 2.05a7.81 7.81 0 0 0 5.911-2.189c0 1.012.025 1.575.025 1.575h6.007l-.014-.566s-.536-.14-.476-.892c.047-.547 1.084-3.198 1.95-6.147zm-8.637 4.465c-.98.248-2.168.382-2.4-.508-.648-2.44 5.058-3.152 5.058-3.152a3.94 3.94 0 0 1-2.659 3.662zM22.42 4.943C22.918 1 19.445 0 15.7 0H5.823L0 21.226h6.27l1.96-7.2 3.515.03s1.453-.085 1.48 1.278c.03 1.455-1.078 4.124-1 5.9h6.437l-.014-.566a.78.78 0 0 1-.48-.894 22.259 22.259 0 0 1 .823-2.639 8.191 8.191 0 0 0 .646-3.122c-.048-1.42-.938-2.07-2.223-2.53 4.006-.955 5.006-6.54 5.006-6.54zm-6.65 2.7c-.812 1.878-3.324 1.664-3.324 1.664L9.518 9.3l1.07-3.977h3.908c1.368.013 1.798 1.114 1.274 2.33zm60.516-1.838h5.826v9.25l5.037-9.253h5.346l-10.776 18.7c-.6.924-1.36 1.737-2.24 2.4a5.28 5.28 0 0 1-2.655.7l-4.7-.025 1.24-4.46h2c.472-.04.92-.232 1.274-.547.345-.42.526-.95.508-1.494.004-.96-.858-15.27-.858-15.27z" fill="#2a2a89"/><path d="M99.96 2.24l-6.72 23.392 12.587-11.7z" fill="#0f8047"/><path d="M95.655 2.24L88.93 25.633l12.587-11.7z" fill="#f0721d"/></svg>