<svg xmlns="http://www.w3.org/2000/svg" width="26" height="26"><path d="M13 26h0A12.99 12.99 0 0 1 0 12.98h0A12.99 12.99 0 0 1 13 0h0a12.99 12.99 0 0 1 13 12.98h0A12.99 12.99 0 0 1 13 26z" fill="#f4fc40"/><path d="M7.255 11.066H9.77v8.12H7.255zM8.5 10c.712-.003 1.323-.508 1.46-1.207s-.24-1.397-.898-1.668-1.417-.04-1.812.553-.316 1.382.188 1.885A1.5 1.5 0 0 0 8.5 10zm5.3 4.92c0-1.168.523-1.806 1.506-1.806s1.366.638 1.366 1.82v4.264H19.2v-5.106c0-2.176-1.232-3.23-2.955-3.23a2.82 2.82 0 0 0-2.445 1.34v-1.136h-2.413v8.12H13.8z" fill="#2d2d2d"/></svg>