<svg xmlns="http://www.w3.org/2000/svg" width="26" height="26"><path d="M13 26h0A12.99 12.99 0 0 1 0 12.98h0A12.99 12.99 0 0 1 13 0h0a12.99 12.99 0 0 1 13 12.98h0A12.99 12.99 0 0 1 13 26z" fill="#f4fc40"/><path d="M6 17.325c2.758 1.526 6.09 1.595 8.9.185a7.39 7.39 0 0 0 4.275-6.89c.582-.36 1.093-.826 1.507-1.372-.556.216-1.138.358-1.73.42a2.75 2.75 0 0 0 1.326-1.474 6.4 6.4 0 0 1-1.912.638c-.995-.878-2.418-1.08-3.618-.514-1.155.478-1.797 1.72-1.518 2.94-2.356-.073-4.588-1.07-6.215-2.776-.38.586-.494 1.305-.316 1.98s.632 1.245 1.25 1.568a3.41 3.41 0 0 1-1.362-.332 2.75 2.75 0 0 0 2.383 2.642 3.46 3.46 0 0 1-1.362.045 3.01 3.01 0 0 0 2.818 1.845 6.66 6.66 0 0 1-4.433 1.1z" fill="#2d2d2d"/></svg>