<svg xmlns="http://www.w3.org/2000/svg" width="26" height="26"><path d="M13 26h0A12.99 12.99 0 0 1 0 12.98h0A12.99 12.99 0 0 1 13 0h0a12.99 12.99 0 0 1 13 12.98h0A12.99 12.99 0 0 1 13 26z" fill="#f4fc40"/><path d="M12.7 6.413l3.123.044a3.98 3.98 0 0 1 1.428.266 2.31 2.31 0 0 1 .888.577 2.22 2.22 0 0 1 .577.888 3.98 3.98 0 0 1 .266 1.428l.044 3.123-.044 3.123a3.98 3.98 0 0 1-.266 1.428 2.56 2.56 0 0 1-1.48 1.48 3.98 3.98 0 0 1-1.428.266l-3.123.044c-2.065 0-2.3 0-3.123-.044a3.98 3.98 0 0 1-1.428-.266 2.22 2.22 0 0 1-.888-.577 2.31 2.31 0 0 1-.577-.888 3.98 3.98 0 0 1-.269-1.426l-.044-3.123.044-3.123a3.98 3.98 0 0 1 .266-1.428 2.56 2.56 0 0 1 1.48-1.48 3.98 3.98 0 0 1 1.428-.266l3.123-.044m0-1.4l-3.182.044a5.8 5.8 0 0 0-1.872.355A4 4 0 0 0 5.4 7.686a5.8 5.8 0 0 0-.355 1.872L5 12.718l.044 3.182a5.92 5.92 0 0 0 .355 1.881 4.01 4.01 0 0 0 2.265 2.257 5.6 5.6 0 0 0 1.872.355l3.182.044 3.182-.044a5.69 5.69 0 0 0 1.88-.355 4.03 4.03 0 0 0 2.257-2.257 5.92 5.92 0 0 0 .355-1.88l.044-3.182-.044-3.182a5.8 5.8 0 0 0-.355-1.872 4.01 4.01 0 0 0-2.256-2.266 5.92 5.92 0 0 0-1.88-.355L12.72 5m-.023 3.774c-1.605.007-3.047.98-3.654 2.466a3.97 3.97 0 0 0 .88 4.32c1.14 1.13 2.85 1.46 4.328.838a3.97 3.97 0 0 0 2.43-3.68c-.006-1.052-.43-2.06-1.177-2.8s-1.76-1.152-2.812-1.146m0 6.543c-1.227-.01-2.276-.885-2.507-2.1a2.57 2.57 0 0 1 1.555-2.87 2.58 2.58 0 0 1 3.12.958c.68 1.02.544 2.38-.324 3.248a2.58 2.58 0 0 1-1.844.754m5.075-6.687c0 .5-.414.925-.925.925s-.925-.414-.925-.925.414-.925.925-.925c.245 0 .48.097.654.27s.27.4.27.654" fill="#2d2d2d"/></svg>