<svg xmlns="http://www.w3.org/2000/svg" width="653.432" height="653.432"><path d="M326.716 54.453c150.126 0 272.263 122.137 272.263 272.263S476.842 598.98 326.716 598.98 54.453 476.842 54.453 326.716 176.6 54.453 326.716 54.453zm0-54.453C146.287 0 0 146.287 0 326.716s146.287 326.716 326.716 326.716 326.716-146.287 326.716-326.716S507.145 0 326.716 0zM204.2 381.168a40.839 40.839 0 1 1 40.839-40.839 40.854 40.854 0 0 1-40.839 40.839zm122.518 0a40.839 40.839 0 1 1 40.839-40.839 40.854 40.854 0 0 1-40.841 40.839zm122.518 0a40.839 40.839 0 1 1 40.839-40.839 40.854 40.854 0 0 1-40.841 40.839z" fill="#2d2d2d"/></svg>