<svg xmlns="http://www.w3.org/2000/svg" width="58.557" height="64" viewBox="0 0 58.557 64"><g transform="translate(-43.55)"><path d="M99.287,227.95V211a8.894,8.894,0,0,0-6.337-8.51L81.3,198.973a3.812,3.812,0,0,1-2.716-3.647v-7.954H67.754v7.954a3.812,3.812,0,0,1-2.716,3.647l-11.651,3.513A8.894,8.894,0,0,0,47.05,211V227.95Z" transform="translate(-3.062 -163.951)" fill="#343c4a"/><path d="M201.182,283.693l-2.027-3.513-8.13,5.493-8.131-5.493-1.151,3.513,9.4,23.625,10.04-23.625Z" transform="translate(-120.919 -245.158)" fill="#fff"/><path d="M233.194,342.554l-4,.875-3.774-.875,3.146-20.2h1.353Z" transform="translate(-159.138 -282.06)" fill="#f96263"/><path d="M231.415,325.076l-2.584,3.939a1.936,1.936,0,0,1-3.243-.012l-2.68-4.151,4.137-.724Z" transform="translate(-156.937 -283.612)" fill="#d34342"/><path d="M210.483,204.466l6.5-6.482a3.8,3.8,0,0,1-1.087-2.659v-6.084l-1.876-1.87h-7.078l-1.876,1.87v6.084a3.8,3.8,0,0,1-1.088,2.659Z" transform="translate(-140.377 -163.951)" fill="#f9beac"/><path d="M264.519,273.378l-.389-.117a3.813,3.813,0,0,1-1.628-.988l-6.5,6.482,3.719,1.988a1.913,1.913,0,0,0,2.718-1.081Z" transform="translate(-185.894 -238.238)" fill="#eaeaea"/><path d="M164.072,309.977l-8.44-16.086a.634.634,0,0,1,.172-.794l2.095-1.636a.634.634,0,0,0,.088-.917l-2.285-2.62a.634.634,0,0,1-.054-.762l3.934-6.046,8.471,25.855-.115,3.006Z" transform="translate(-97.996 -245.977)" fill="#596381"/><path d="M247.652,309.977l9.563-28.86,3.935,6.046a.633.633,0,0,1-.054.762l-2.286,2.62a.634.634,0,0,0,.088.917l2.095,1.635a.634.634,0,0,1,.172.794l-8.426,16.086Z" transform="translate(-178.589 -245.977)" fill="#596381"/><path d="M187.847,273.378l.389-.117a3.813,3.813,0,0,0,1.628-.988l6.5,6.482-3.74,2a1.913,1.913,0,0,1-2.72-1.087Z" transform="translate(-126.26 -238.238)" fill="#eaeaea"/><path d="M355.276,400.243H336.835a1.592,1.592,0,0,1-1.609-1.575V385.853a1.593,1.593,0,0,1,1.609-1.575h18.441a1.593,1.593,0,0,1,1.609,1.575v12.815a1.593,1.593,0,0,1-1.609,1.575Z" transform="translate(-255.217 -336.243)" fill="#e88f37"/><path d="M355.276,384.278H336.835a1.593,1.593,0,0,0-1.609,1.575v3.216l8.639,4.219h4.381l8.639-4.219v-3.216a1.593,1.593,0,0,0-1.609-1.575Z" transform="translate(-255.217 -336.243)" fill="#ffbc5b"/><rect width="4.381" height="4.287" transform="translate(88.649 55.667)" fill="#596381"/><path d="M223.093,189.243l-1.876-1.87h-7.078l-1.876,1.87v6.084a3.785,3.785,0,0,1-.06.663,12.176,12.176,0,0,0,2.83,2.267,8.754,8.754,0,0,0,8.79,0c.072-.042.143-.086.214-.129l.143-.142a3.8,3.8,0,0,1-1.087-2.659Z" transform="translate(-147.572 -163.951)" fill="#e58a7b"/><path d="M187.232,98.312a8.754,8.754,0,0,1-8.79,0,12.151,12.151,0,0,1-6.057-10.505V76.15h20.9V87.807a12.151,12.151,0,0,1-6.057,10.505Z" transform="translate(-112.732 -66.631)" fill="#f9beac"/><path d="M326.764,97.54h-.525a1.311,1.311,0,0,1-1.311-1.311v-5.9h1.836Z" transform="translate(-246.206 -79.037)" fill="#243047"/><path d="M172.386,91.115h.525a1.311,1.311,0,0,0,1.311-1.311V82.985h-1.836Zm6.684,4.545a.47.47,0,0,1,.4-.465,21.469,21.469,0,0,1,6.745,0,.469.469,0,0,1,.4.465v1.4a.471.471,0,0,1-.539.465,22.957,22.957,0,0,0-6.459,0,.47.47,0,0,1-.538-.465Z" transform="translate(-112.732 -72.612)" fill="#343c4a"/><path d="M246.635,166.977v.585a1.561,1.561,0,0,1-3.121,0v-.585a.375.375,0,0,1,.375-.375h2.371a.375.375,0,0,1,.375.375Z" transform="translate(-174.969 -145.777)" fill="#e58a7b"/><path d="M256.473,33.731h.359V27.565a5.273,5.273,0,0,0-5.281-5.265h-6.545A11.449,11.449,0,0,0,256.473,33.731Z" transform="translate(-176.274 -19.512)" fill="#243047"/><path d="M177.981,17.281h-5.595V8.764A5.273,5.273,0,0,1,177.667,3.5h10.98a1.576,1.576,0,0,1,1.579,1.574A12.227,12.227,0,0,1,177.981,17.281Z" transform="translate(-112.732 -3.062)" fill="#343c4a"/><path d="M171.82,122.757v-5.383h.751a2.316,2.316,0,0,1,2.316,2.316,3.067,3.067,0,0,1-3.067,3.067Zm-20.9,0a3.067,3.067,0,0,1-3.067-3.067,2.316,2.316,0,0,1,2.316-2.316h.751v5.383Z" transform="translate(-91.263 -102.702)" fill="#e58a7b"/><path d="M100.059,47.16H96.9V45.514a2.16,2.16,0,0,0-.8-1.678,9.371,9.371,0,0,0-6.076-5.719L78.363,34.6a3.391,3.391,0,0,1-1.406-.831l-.006-.008a.44.44,0,0,0-.029-.037,3.368,3.368,0,0,1-.816-1.37l-.018-.062q-.025-.087-.045-.174-.026-.113-.044-.227c-.011-.074-.021-.148-.027-.223l0-.046c-.006-.083-.01-.166-.01-.251v-.139A12.63,12.63,0,0,0,81,21.175v-.711a3.5,3.5,0,0,0,3.067-3.477,2.756,2.756,0,0,0-2.753-2.753H81V9.519s0,0,0,0V8.052a5.711,5.711,0,0,0-3.1-5.069q.037-.481.037-.972A2.016,2.016,0,0,0,75.916,0H64.936a5.717,5.717,0,0,0-5.719,5.7v8.532H58.9a2.756,2.756,0,0,0-2.753,2.753,3.509,3.509,0,0,0,3.067,3.476v.712a12.63,12.63,0,0,0,5.037,10.061v.139c0,.084,0,.167-.01.25,0,.016,0,.031,0,.047q-.01.112-.027.223c0,.026-.009.052-.013.078-.009.05-.019.1-.03.15s-.028.116-.044.173c-.006.021-.012.042-.018.063a3.368,3.368,0,0,1-.816,1.369.425.425,0,0,0-.035.043,3.392,3.392,0,0,1-1.407.832l-.383.116-.014,0L50.2,38.117a9.331,9.331,0,0,0-6.647,8.929V63.562a.438.438,0,0,0,.875,0V47.046a8.406,8.406,0,0,1,6.025-8.091L60.567,35.9l-3.281,5.042a1.076,1.076,0,0,0,.091,1.289l2.285,2.62a.2.2,0,0,1-.027.284l-2.095,1.635a1.071,1.071,0,0,0-.29,1.343l8.21,15.648a.438.438,0,1,0,.775-.406l-8.21-15.648a.2.2,0,0,1,.054-.246l2.095-1.636a1.071,1.071,0,0,0,.148-1.549l-2.285-2.62a.2.2,0,0,1-.017-.236l3.436-5.28L69.6,60.994l-.805,2.43a.438.438,0,1,0,.831.275l7.334-22.133,0-.006v0l1.795-5.417,3.439,5.285a.192.192,0,0,1-.017.235l-2.285,2.621a1.072,1.072,0,0,0,.148,1.549l1.7,1.33h-.125a2.032,2.032,0,0,0-2.047,2.012V52.7L73.979,63.359a.438.438,0,1,0,.775.406l4.818-9.184v7.406A2.032,2.032,0,0,0,81.619,64H100.06a2.032,2.032,0,0,0,2.047-2.012V49.172A2.032,2.032,0,0,0,100.059,47.16ZM81,15.109h.314a1.88,1.88,0,0,1,1.878,1.878A2.625,2.625,0,0,1,81,19.578ZM59.217,19.578a2.632,2.632,0,0,1-2.192-2.59A1.88,1.88,0,0,1,58.9,15.109h.314Zm20.9-1.511h-.087a.875.875,0,0,1-.874-.874V14.61q.478.042.96.045ZM77.787,3.926A4.832,4.832,0,0,1,80.12,8.052v5.728a11.067,11.067,0,0,1-6.566-2.22,12.631,12.631,0,0,0,4.233-7.634ZM60.092,5.7A4.841,4.841,0,0,1,64.936.875H75.916a1.14,1.14,0,0,1,1.141,1.136,11.8,11.8,0,0,1-11.809,11.77H60.092Zm0,8.954h.96v2.536a.875.875,0,0,1-.874.874h-.087Zm0,6.519V18.941h.087a1.751,1.751,0,0,0,1.749-1.749V14.656h3.322a12.643,12.643,0,0,0,7.605-2.532,11.941,11.941,0,0,0,5.43,2.375v2.693a1.751,1.751,0,0,0,1.749,1.749h.087v2.234A11.752,11.752,0,0,1,74.281,31.3a8.317,8.317,0,0,1-8.35,0,11.752,11.752,0,0,1-5.839-10.127ZM65.1,31.824q.191.121.387.235a9.192,9.192,0,0,0,9.229,0q.2-.114.387-.235a4.217,4.217,0,0,0,.9,2.2l-5.9,5.878-5.9-5.878a4.217,4.217,0,0,0,.9-2.2Zm5,9.188,3.068,1.64-1.646,2.511a1.492,1.492,0,0,1-1.252.674H70.27a1.473,1.473,0,0,1-1.253-.684l-1.709-2.646Zm-6.044.279h0l-1.921-5.862a4.283,4.283,0,0,0,1.455-.784l5.783,5.764L66.161,42.13a1.476,1.476,0,0,1-2.1-.838Zm.568,1.733a2.331,2.331,0,0,0,1.9-.1l1.647,2.55-.886,5.685ZM70.06,59.6l-2.166-6.609L68.937,46.3a2.368,2.368,0,0,0,1.33.413h.009a2.374,2.374,0,0,0,1.063-.251l1.009,6.23Zm2.883-8.7-.821-5.066c.048-.06.094-.121.136-.186l1.707-2.6a2.324,2.324,0,0,0,1.588-.024Zm3.182-9.6a1.475,1.475,0,0,1-2.094.827l-3.2-1.71,5.782-5.764a4.284,4.284,0,0,0,1.453.784ZM96.02,45.514V47.16H85.658V45.514A1.324,1.324,0,0,1,87,44.211h7.681a1.324,1.324,0,0,1,1.341,1.3ZM80.578,45.14a.2.2,0,0,1-.027-.284l2.284-2.62a1.072,1.072,0,0,0,.091-1.288L79.644,35.9l10.118,3.051a8.5,8.5,0,0,1,5.171,4.4,2.256,2.256,0,0,0-.255-.016H87a2.2,2.2,0,0,0-2.216,2.178V47.16h-1.8a1.068,1.068,0,0,0-.308-.385Zm20.653,16.847a1.156,1.156,0,0,1-1.172,1.138H81.619a1.156,1.156,0,0,1-1.172-1.137v-8.9l7.764,3.791v1.974a1.1,1.1,0,0,0,1.1,1.1h3.054a1.1,1.1,0,0,0,1.1-1.1V56.88l7.764-3.791ZM89.086,58.854V55.893a.226.226,0,0,1,.226-.226h3.054a.226.226,0,0,1,.226.226v2.961a.226.226,0,0,1-.226.226H89.312A.226.226,0,0,1,89.086,58.854Zm12.145-6.739-7.764,3.791v-.013a1.1,1.1,0,0,0-1.1-1.1H89.312a1.1,1.1,0,0,0-1.1,1.1v.013l-7.764-3.791V49.172a1.156,1.156,0,0,1,1.172-1.137h18.441a1.156,1.156,0,0,1,1.172,1.138ZM66.8,17.022a.437.437,0,1,0,.332-.81,4.642,4.642,0,0,0-1.865-.344,4.589,4.589,0,0,0-1.632.344.437.437,0,1,0,.332.809,3.717,3.717,0,0,1,1.322-.279,3.76,3.76,0,0,1,1.51.279ZM53.377,53.978a.438.438,0,0,0-.437.438v9.147a.437.437,0,0,0,.875,0V54.416a.437.437,0,0,0-.437-.437ZM66.213,25.137a.911.911,0,0,0,.725.214,22.465,22.465,0,0,1,6.336,0,.907.907,0,0,0,1.037-.9v-1.4a.9.9,0,0,0-.764-.9q-.723-.114-1.452-.181c.006-.061.009-.123.009-.186v-.528a.437.437,0,1,0-.875,0v.528a1.123,1.123,0,0,1-2.246,0v-.528a.438.438,0,0,0-.875,0v.528c0,.062,0,.124.009.185-.489.044-.975.1-1.452.182a.9.9,0,0,0-.764.9v1.4a.906.906,0,0,0,.312.684Zm.563-2.088a.032.032,0,0,1,.027-.033q.8-.127,1.6-.191a1.992,1.992,0,0,0,3.406,0c.535.044,1.073.107,1.6.191a.032.032,0,0,1,.026.033v1.4a.029.029,0,0,1-.01.024.036.036,0,0,1-.029.008,23.47,23.47,0,0,0-3.242-.233h-.046a23.446,23.446,0,0,0-3.288.232.033.033,0,0,1-.033-.007.029.029,0,0,1-.01-.024Zm-1.393-5.477a.438.438,0,0,0-.437.438v1.007a.438.438,0,0,0,.875,0V18.01a.437.437,0,0,0-.437-.437Zm8.029-.55a3.716,3.716,0,0,1,1.322-.279,3.759,3.759,0,0,1,1.511.279.437.437,0,1,0,.332-.81,4.6,4.6,0,0,0-3.5,0,.438.438,0,0,0,.332.81Zm1.416.55a.438.438,0,0,0-.437.438v1.007a.438.438,0,1,0,.875,0V18.01A.438.438,0,0,0,74.829,17.572Zm-3.306,9.1a3.77,3.77,0,0,1-1.511.279,3.717,3.717,0,0,1-1.322-.279.437.437,0,1,0-.332.81,4.59,4.59,0,0,0,1.632.344h.118a4.58,4.58,0,0,0,1.746-.345.437.437,0,1,0-.332-.81Z" transform="translate(0 0)"/></g></svg>