<svg xmlns="http://www.w3.org/2000/svg" width="39.426" height="39.426"><path d="M37.885 25.625L17.287 17.59l.437-.985a3.49 3.49 0 0 0 .139-2.467l.067-.072 2.177-2.89a1.29 1.29 0 0 0-.678-1.576l-6.904-3.082a1.28 1.28 0 0 0-1.62.549l-.684 3.56a1.04 1.04 0 0 0-.008.098 3.47 3.47 0 0 0-1.735 1.749L6.814 16.23a3.49 3.49 0 0 0-.136 2.466l-.067.072-2.18 2.894a1.29 1.29 0 0 0 .677 1.575l6.9 3.084c.6.256 1.298.02 1.62-.55l.684-3.56c.005-.033.006-.065.01-.098a3.47 3.47 0 0 0 1.735-1.751l.484-1.092 19.734 9.986c.238.15.526.193.798.123s.503-.248.64-.493l.863-1.938a1.03 1.03 0 0 0-.689-1.32z" fill="#01355d"/></svg>