<svg xmlns="http://www.w3.org/2000/svg" width="99.999" height="27.601" opacity=".45" fill-rule="evenodd"><path d="M85.677 26.7L100 13.636 93.215.12z" fill="#097939"/><path d="M80.853 26.7l14.322-13.065L88.39.12z" fill="#ed752e"/><path d="M12.41.27L6.38 21.746l21.407.15L33.666.27h5.427l-7.05 25.14a2.52 2.52 0 0 1-2.3 1.74H2.31c-.734.057-1.447-.262-1.892-.85s-.56-1.36-.308-2.05L6.833.27zM78.59.12h5.427L76.48 27.15H70.9zM39.7 11.383l27.136-.15 1.8-5.707H41.053L42.71.27 72.11 0a2.37 2.37 0 0 1 2.438 3.167L71.78 13.29c-.582 1.843-2.258 3.123-4.2 3.2H43.315l-2.862 11.1h-5.28z" fill="#747474"/></svg>