<svg xmlns="http://www.w3.org/2000/svg" width="86.124" height="27.814"><defs><linearGradient id="A" y1=".5" x2="1" y2=".5"><stop offset="0" stop-color="#231f5c"/><stop offset="1" stop-color="#034ea2"/></linearGradient></defs><path d="M32.7.5L21.428 27.4h-7.36L8.517 5.925a2.941 2.941 0 0 0-1.651-2.364A29.342 29.342 0 0 0 0 1.272l.163-.8h11.842A3.246 3.246 0 0 1 15.2 3.218l2.93 15.57L25.4.5zm28.822 18.118c.032-7.1-9.816-7.488-9.75-10.662.02-.965.94-1.994 2.95-2.253a13.11 13.11 0 0 1 6.862 1.2L62.8 1.2A18.776 18.776 0 0 0 56.3 0c-6.86 0-11.723 3.656-11.763 8.89-.044 3.868 3.457 6.033 6.1 7.324 2.707 1.316 3.616 2.16 3.588 3.34 0 1.806-2.165 2.6-4.167 2.632a14.563 14.563 0 0 1-7.149-1.7l-1.244 5.893a21.017 21.017 0 0 0 7.739 1.431c7.313 0 12.093-3.612 12.117-9.206m18.167 8.774h6.435L80.506.5H74.56A3.19 3.19 0 0 0 71.6 2.464L61.16 27.392h7.31l1.45-4.02h8.927zm-7.767-9.517l3.664-10.1 2.11 10.1zM42.663.5L36.9 27.4h-6.962L35.685.5z" opacity=".45" fill="url(#A)"/></svg>