<svg xmlns="http://www.w3.org/2000/svg" width="30.575" height="30.276" fill="#4da74d" fill-rule="evenodd"><path d="M30.56 14.213A15.01 15.01 0 0 0 .6 13.949v.644a14.82 14.82 0 0 0 2.11 7.673l-2.7 8 8.317-2.636a15.14 15.14 0 0 0 7.248 1.845 14.95 14.95 0 0 0 15.009-14.892 3.44 3.44 0 0 0-.014-.38zm-14.994 12.9c-2.466.004-4.878-.714-6.94-2.065l-4.847 1.6 1.567-4.642c-1.552-2.126-2.392-4.7-2.4-7.32a11.27 11.27 0 0 1 .073-1.215A12.62 12.62 0 0 1 15.688 2.185c6.503.06 11.895 5.052 12.457 11.53v.98a12.58 12.58 0 0 1-12.58 12.417zm6.88-9.513l-2.52-1.2c-.337-.13-.586-.176-.835.2s-.95 1.186-1.15 1.464-.44.278-.805.1a10.25 10.25 0 0 1-2.929-1.816 11.83 11.83 0 0 1-2.05-2.519.54.54 0 0 1 .161-.791c.176-.176.366-.44.556-.644a.69.69 0 0 0 .132-.176 3.98 3.98 0 0 0 .234-.439.6.6 0 0 0 0-.63l-1.128-2.724c-.308-.733-.615-.6-.835-.6h-.7c-.376.008-.732.172-.98.454a4.07 4.07 0 0 0-1.289 3.046 4.07 4.07 0 0 0 .2 1.245 8.09 8.09 0 0 0 1.318 2.533 14.98 14.98 0 0 0 6.282 5.506c3.734 1.464 3.734.98 4.393.908a3.69 3.69 0 0 0 2.489-1.728 3.1 3.1 0 0 0 .22-1.743 2.21 2.21 0 0 0-.753-.436z"/></svg>