<svg xmlns="http://www.w3.org/2000/svg" xmlns:xlink="http://www.w3.org/1999/xlink" width="1351" height="1037" version="1.1" viewBox="0 0 1351 1037"><title>Group 2 Copy</title><defs><linearGradient id="linearGradient-1" x1="47.216%" x2="8.772%" y1="55.487%" y2="14.295%"><stop offset="0%" stop-color="#FFF"/><stop offset="18%" stop-color="#EAEAEA"/><stop offset="53%" stop-color="#C8C8C8"/><stop offset="81%" stop-color="#B3B3B3"/><stop offset="100%" stop-color="#ABABAB"/></linearGradient><linearGradient id="linearGradient-2" x1="52.244%" x2="46.46%" y1="12.969%" y2="99.07%"><stop offset="0%" stop-color="#FFF"/><stop offset="18%" stop-color="#EAEAEA"/><stop offset="53%" stop-color="#C8C8C8"/><stop offset="81%" stop-color="#B3B3B3"/><stop offset="100%" stop-color="#ABABAB"/></linearGradient><linearGradient id="linearGradient-3" x1="50.85%" x2="40.391%" y1="38.48%" y2="79.762%"><stop offset="0%" stop-color="#FFF"/><stop offset="3%" stop-color="#FAF7FE"/><stop offset="29%" stop-color="#D4BAF9"/><stop offset="52%" stop-color="#B68AF4"/><stop offset="72%" stop-color="#A067F1"/><stop offset="89%" stop-color="#9352EF"/><stop offset="100%" stop-color="#8E4AEE"/></linearGradient><linearGradient id="linearGradient-4" x1="54.071%" x2="44.341%" y1="31.466%" y2="119.101%"><stop offset="0%" stop-color="#FFF"/><stop offset="18%" stop-color="#EAEAEA"/><stop offset="53%" stop-color="#C8C8C8"/><stop offset="81%" stop-color="#B3B3B3"/><stop offset="100%" stop-color="#ABABAB"/></linearGradient><linearGradient id="linearGradient-5" x1="51.078%" x2="48.442%" y1="9.9%" y2="103.064%"><stop offset="0%" stop-color="#FFF"/><stop offset="18%" stop-color="#EAEAEA"/><stop offset="53%" stop-color="#C8C8C8"/><stop offset="81%" stop-color="#B3B3B3"/><stop offset="100%" stop-color="#ABABAB"/></linearGradient><linearGradient id="linearGradient-6" x1=".052%" x2="100.013%" y1="49.999%" y2="49.999%"><stop offset="0%" stop-color="#FFF"/><stop offset="18%" stop-color="#EAEAEA"/><stop offset="53%" stop-color="#C8C8C8"/><stop offset="81%" stop-color="#B3B3B3"/><stop offset="100%" stop-color="#ABABAB"/></linearGradient><linearGradient id="linearGradient-7" x1="99.037%" x2="38.631%" y1="-27.809%" y2="48.689%"><stop offset="0%" stop-color="#ABABAB"/><stop offset="8%" stop-color="#9C9C9C"/><stop offset="38%" stop-color="#6D6D6D"/><stop offset="64%" stop-color="#4A4A4A"/><stop offset="86%" stop-color="#353535"/><stop offset="100%" stop-color="#2D2D2D"/></linearGradient><linearGradient id="linearGradient-8" x1="63.79%" x2="47.614%" y1="-174.127%" y2="-47.024%"><stop offset="0%" stop-color="#ABABAB"/><stop offset="8%" stop-color="#9C9C9C"/><stop offset="38%" stop-color="#6D6D6D"/><stop offset="64%" stop-color="#4A4A4A"/><stop offset="86%" stop-color="#353535"/><stop offset="100%" stop-color="#2D2D2D"/></linearGradient><linearGradient id="linearGradient-9" x1="-8.65%" x2="75.795%" y1="26.41%" y2="60.003%"><stop offset="0%" stop-color="#FFF"/><stop offset="3%" stop-color="#FAF7FE"/><stop offset="29%" stop-color="#D4BAF9"/><stop offset="52%" stop-color="#B68AF4"/><stop offset="72%" stop-color="#A067F1"/><stop offset="89%" stop-color="#9352EF"/><stop offset="100%" stop-color="#8E4AEE"/></linearGradient><linearGradient id="linearGradient-10" x1="-.029%" x2="99.977%" y1="50.02%" y2="50.02%"><stop offset="0%" stop-color="#FFF"/><stop offset="3%" stop-color="#FAF7FE"/><stop offset="29%" stop-color="#D4BAF9"/><stop offset="52%" stop-color="#B68AF4"/><stop offset="72%" stop-color="#A067F1"/><stop offset="89%" stop-color="#9352EF"/><stop offset="100%" stop-color="#8E4AEE"/></linearGradient><linearGradient id="linearGradient-11" x1="48.51%" x2="35.307%" y1="46.644%" y2="90.719%"><stop offset="0%" stop-color="#FFF"/><stop offset="3%" stop-color="#FAF7FE"/><stop offset="29%" stop-color="#D4BAF9"/><stop offset="52%" stop-color="#B68AF4"/><stop offset="72%" stop-color="#A067F1"/><stop offset="89%" stop-color="#9352EF"/><stop offset="100%" stop-color="#8E4AEE"/></linearGradient><linearGradient id="linearGradient-12" x1="50.015%" x2="50.015%" y1="97.665%" y2="27.973%"><stop offset="0%" stop-color="#FFF"/><stop offset="41%" stop-color="#F7DFE3"/><stop offset="77%" stop-color="#F1CAD1"/><stop offset="100%" stop-color="#EFC2CA"/></linearGradient><linearGradient id="linearGradient-13" x1="49.99%" x2="49.99%" y1="15.559%" y2="74.271%"><stop offset="0%" stop-color="#FFF"/><stop offset="41%" stop-color="#F7DFE3"/><stop offset="77%" stop-color="#F1CAD1"/><stop offset="100%" stop-color="#EFC2CA"/></linearGradient><linearGradient id="linearGradient-14" x1="-.041%" x2="99.959%" y1="49.995%" y2="49.995%"><stop offset="0%" stop-color="#FFF"/><stop offset="2%" stop-color="#FFFCF8"/><stop offset="23%" stop-color="#FFDAAE"/><stop offset="44%" stop-color="#FFBE70"/><stop offset="62%" stop-color="#FFA840"/><stop offset="78%" stop-color="#FF981D"/><stop offset="91%" stop-color="#FF8F08"/><stop offset="100%" stop-color="#FF8B00"/></linearGradient><linearGradient id="linearGradient-15" x1="30.764%" x2="61.788%" y1="7.127%" y2="91.096%"><stop offset="0%" stop-color="#FFF"/><stop offset="2%" stop-color="#FFFCF8"/><stop offset="23%" stop-color="#FFDAAE"/><stop offset="44%" stop-color="#FFBE70"/><stop offset="62%" stop-color="#FFA840"/><stop offset="78%" stop-color="#FF981D"/><stop offset="91%" stop-color="#FF8F08"/><stop offset="100%" stop-color="#FF8B00"/></linearGradient><linearGradient id="linearGradient-16" x1="39.906%" x2="25.688%" y1="68.801%" y2="106.86%"><stop offset="0%" stop-color="#FFF"/><stop offset="2%" stop-color="#FFFCF8"/><stop offset="23%" stop-color="#FFDAAE"/><stop offset="44%" stop-color="#FFBE70"/><stop offset="62%" stop-color="#FFA840"/><stop offset="78%" stop-color="#FF981D"/><stop offset="91%" stop-color="#FF8F08"/><stop offset="100%" stop-color="#FF8B00"/></linearGradient><linearGradient id="linearGradient-17" x1="137.531%" x2="53.111%" y1="47.322%" y2="79.037%"><stop offset="0%" stop-color="#FFF"/><stop offset="41%" stop-color="#F7DFE3"/><stop offset="77%" stop-color="#F1CAD1"/><stop offset="100%" stop-color="#EFC2CA"/></linearGradient><linearGradient id="linearGradient-18" x1="50.013%" x2="50.013%" y1="-96.49%" y2="69.606%"><stop offset="0%" stop-color="#ABABAB"/><stop offset="8%" stop-color="#9C9C9C"/><stop offset="38%" stop-color="#6D6D6D"/><stop offset="64%" stop-color="#4A4A4A"/><stop offset="86%" stop-color="#353535"/><stop offset="100%" stop-color="#2D2D2D"/></linearGradient><linearGradient id="linearGradient-19" x1="51.1%" x2="59.879%" y1="44.199%" y2="105.967%"><stop offset="0%" stop-color="#FFF"/><stop offset="2%" stop-color="#FFFCF8"/><stop offset="23%" stop-color="#FFDAAE"/><stop offset="44%" stop-color="#FFBE70"/><stop offset="62%" stop-color="#FFA840"/><stop offset="78%" stop-color="#FF981D"/><stop offset="91%" stop-color="#FF8F08"/><stop offset="100%" stop-color="#FF8B00"/></linearGradient></defs><g id="Interface" fill="none" fill-rule="evenodd" stroke="none" stroke-width="1"><g id="Group-2-Copy" fill-rule="nonzero"><path id="Path" fill="#F29A9D" d="M325.048226,53.2515772 C291.241344,46.1801473 256.665153,41.8005608 222.281289,38.1259809 C201.680888,35.9895972 180.695833,33.3404815 159.967214,33.020024 C150.778238,32.8918409 141.161868,33.2550262 132.91316,37.848251 C122.61296,43.5951231 117.291902,52.5892982 114.791646,62.8012121 C114.634294,62.9462316 114.535476,63.1438129 114.51384,63.3566719 C114.51384,63.6984933 114.51384,64.0403146 114.51384,64.3607722 C113.196288,71.1053159 112.715405,77.9865132 113.082069,84.8486914 C111.116056,109.823016 108.850866,134.818705 107.333617,159.750302 C106.030065,181.861873 107.525944,202.178882 130.840298,210.788508 C158.984207,221.235424 194.265599,219.718592 223.862647,221.684065 C233.372169,222.303616 243.62963,223.457263 254.100788,224.44 L237.240086,273 C250.456739,256.526929 264.688092,240.893868 279.851289,226.191834 C290.880604,226.676151 301.928347,225.844212 312.760642,223.713629 C330.775308,219.761319 338.617992,205.404821 342.571388,188.441935 C350.471637,155.143187 354.968109,121.128284 355.991566,86.9209836 C356.354852,65.3648725 344.964796,57.3961615 325.048226,53.2515772 Z"/><path id="Path" fill="#FFF" d="M180.175403,66.7715598 C179.77621,100.829303 179.384409,134.894175 179,168.966174 C179,173.777597 188.780242,172.366246 188.824597,168.217731 C189.22379,134.159987 189.615591,100.102244 190,66.0445004 C190,61.2116937 180.219758,62.6444284 180.175403,66.7715598 Z"/><path id="Path" fill="#FFF" d="M180.224719,181.449455 C180.224719,184.111788 180.224719,186.795084 180.224719,189.457416 C180.224719,191.553741 182.696629,192.140712 184.719101,191.973006 C186.741573,191.8053 190,190.652322 190,188.535033 C190,185.872701 190,183.210368 190,180.548035 C190,178.45171 187.52809,177.843776 185.505618,178.032445 C183.483146,178.221114 180.022472,179.332167 180,181.449455 L180.224719,181.449455 Z"/><path id="Path" fill="#FFF" d="M231.371471,75.5560975 C224.875281,107.23548 223.44612,139.623622 217.0582,171.303004 C216.170388,175.598514 225.719786,174.352816 226.629252,170.443902 C233.017172,138.76452 234.554603,106.397856 240.942523,74.6969956 C241.830335,70.4014861 232.151013,71.6471839 231.371471,75.5560975 L231.371471,75.5560975 Z"/><path id="Path" fill="#FFF" d="M216.537208,185.814701 L216.005923,194.783052 C215.729655,199.716691 225.207775,198.545997 225.462792,194.1768 L225.994077,185.208449 C226.270345,180.295716 216.792225,181.445505 216.537208,185.814701 Z"/><path id="Path" fill="#FFF" d="M280.374561,81.5038722 C273.949191,112.802195 267.50935,144.09342 261.055037,175.377549 C260.186744,179.635824 269.868213,178.251885 270.649677,174.483311 C277.075047,143.184988 283.507652,111.90086 289.947493,80.6309258 C290.794079,76.3726506 281.134317,77.7352987 280.352854,81.5038722 L280.374561,81.5038722 Z"/><path id="Path" fill="#FFF" d="M260,191.806217 L260,199.015254 C260,201.219852 262.173815,202.189875 264.063205,201.969415 C265.952596,201.748956 269,200.536427 269,198.177506 L269,190.96847 C269,188.763871 266.805869,187.793848 264.936795,188.036354 C263.06772,188.27886 260.020316,189.469343 260.020316,191.806217 L260,191.806217 Z"/><path id="Path" fill="#F6AF42" d="M907.997574,38.9815964 C940.354452,28.2836915 973.799853,20.1960754 1007.03182,12.7931252 C1026.96673,8.36419252 1047.34985,3.52873949 1067.51954,0.918450693 C1076.50519,-0.215527228 1085.98174,-0.921588953 1094.56187,2.6729071 C1104.33122,6.85057424 1111.81361,15.0693425 1115.07305,25.2026949 C1115.24247,25.3293418 1115.36309,25.5107187 1115.41455,25.7161943 C1115.41455,26.0371314 1115.52127,26.3794644 1115.5853,26.7004016 C1117.61891,33.178041 1118.84481,39.8831195 1119.23505,46.6626921 C1123.82392,70.9897279 1128.79698,95.2311805 1132.98032,119.622404 C1136.69411,141.210776 1137.46248,161.322837 1115.64933,172.341679 C1089.20463,185.71406 1054.45727,188.110391 1025.68611,193.288177 C1016.82852,194.892863 1007.30928,197.032444 997.576608,199.086441 C1004.90457,214.434369 1012.21831,229.775165 1019.51782,245.108828 C1020.17947,246.47816 1017.59689,245.986057 1017.10599,245.493953 C1002.17226,230.766588 986.378626,216.94192 969.808602,204.093061 C959.552281,205.633196 949.151923,205.97067 938.817714,205.098664 C920.718352,203.194437 911.476579,189.950431 905.735154,173.711011 C894.319118,141.882653 886.173463,108.969391 881.424809,75.482848 C878.735517,54.3437879 888.959095,45.2505687 907.997574,38.9815964 Z"/><path id="Path" fill="#64F79F" d="M791.604677,54.8439171 C774.174075,16.0622968 725.492284,-4.24882771 671.854734,7.15879017 C626.398459,16.8327926 584.274505,47.8238445 566.288516,85.1500839 C545.2479,129.04694 560.841453,175.319491 604.076181,194.924328 C610.080643,197.656525 616.332332,199.806596 622.745722,201.345126 C618.858015,214.828802 610.035909,227.691801 600.145751,240.276565 C598.009648,243.058911 601.320608,245.092163 604.417957,243.358548 C622.723091,233.204465 639.252787,220.12699 653.356081,204.641136 C682.890197,203.999852 711.67427,195.201157 736.535937,179.214775 C785.345894,148.009697 808.266281,96.9429496 791.604677,54.8439171 Z"/><path id="Path" fill="#FFF" d="M644.115348,106.246504 C643.835807,105.592461 643.48801,104.970391 643.077857,104.390846 C642.219037,103.230519 641.110408,102.282463 639.835697,101.618275 C636.620111,100.281404 632.918723,101.158992 630.627961,103.801402 C627.796475,107.927512 629.006881,113.778293 631.600609,117.489609 C632.096324,118.322702 632.732771,119.06159 633.481062,119.672736 C633.968847,120.480083 634.673368,121.131112 635.512816,121.550226 C636.677749,122.082199 637.999861,122.144673 639.208879,121.724876 C639.69879,121.873627 640.212514,121.925515 640.721887,121.877695 C644.76378,121.441069 646.017416,118.144547 645.952572,114.476894 C646.187419,111.608251 645.546222,108.735818 644.115348,106.246504 L644.115348,106.246504 Z"/><path id="Path" fill="#FFF" d="M676.485691,88.5939305 L675.917027,88.2693109 C674.594592,87.7509532 673.091378,87.9919255 672.001995,88.8969089 C671.67392,89.1782459 671.41146,89.5028655 671.105256,89.8058438 L670.296003,90.3252352 C664.893697,94.2423121 665.090542,101.860053 668.108835,107.27038 C669.705468,112.204598 674.123549,116.597784 679.788316,114.433653 C681.572452,113.734156 683.06695,112.461206 684.031423,110.819555 C690.877261,104.175673 684.840675,89.7192786 676.485691,88.5939305 Z"/><path id="Path" fill="#FFF" d="M721.998348,85.9399163 L721.848787,85.8145539 C720.968922,85.0327606 719.718813,84.7914803 718.601183,85.1877418 C710.289881,85.6056165 710.054857,99.8133576 716.614162,102.989206 C717.814932,104.525679 719.79862,105.269291 721.741958,104.911429 C726.292877,103.90853 727.425265,97.7866651 726.869754,93.9631113 C726.505864,90.7266205 724.729926,87.8016538 721.998348,85.9399163 Z"/><path id="Path" fill="#F6AF42" d="M1,434.151676 C15.1686416,426.754545 30.3703504,421.470663 46.1094631,418.472316 C70.9922872,413.983467 73,421.190915 73,421.190915 C73,421.190915 19.7956096,457.544269 1,434.151676 Z"/><path id="Path" fill="#EA6877" d="M118.587869,362.828809 C121.608704,358.937381 118.843151,352.423001 118.843151,352.423001 C118.843151,352.423001 114.460813,358.313892 113.141857,357.324911 C111.822901,356.335929 111.929269,350.058045 113.141857,346.080619 C115.056471,339.415742 109.589185,342.017194 106.100334,346.080619 C102.611482,350.144044 100.335219,364.37678 103.526242,368.633701 C106.717265,372.890622 116.035051,366.139747 118.587869,362.828809 Z"/><path id="Path" fill="#EA6877" d="M189,361.256063 C167.951728,359.777147 147.034033,365.570287 129.749638,377.665405 C101.992711,397.787656 82.9044862,441.083568 67.0616866,442.491912 C52.6280848,443.772225 111.899799,367.01747 111.899799,367.01747 L103.359206,361 C103.359206,361 60.037049,383.362798 32.216068,418.912817 C8.72943789,448.97883 23.0776338,499.743234 66.3784392,500 C109.679245,500.25536 157.933594,430.47831 157.933594,430.47831 L189,361.256063 Z"/><path id="Rectangle" fill="#8E4AEE" d="M96.1303135,335.941316 L126.953643,335.940281 C127.256698,335.940234 127.502381,336.1859 127.502391,336.488955 C127.502391,336.488968 127.502391,336.48898 127.502355,336.488992 L127.501804,352.87738 C127.501757,353.180421 127.256096,353.426082 126.953056,353.426129 L96.1297261,353.427164 C95.8266709,353.427211 95.5809878,353.181545 95.5809777,352.878489 C95.5809777,352.878477 95.5809777,352.878465 95.5810145,352.878453 L95.581565,336.490064 C95.5816121,336.187023 95.8272726,335.941363 96.1303135,335.941316 Z" transform="translate(111.541685, 344.683722) rotate(-80.030000) translate(-111.541685, -344.683722)"/><path id="Path" fill="#EA6877" d="M119,353.431607 C119,353.431607 118.09093,349.232553 117.801681,347.468951 C117.512432,345.705348 114.578616,349.316535 115.363722,351.668005 C116.148827,354.019475 115.074472,361.199856 111.62414,361.619762 C108.173807,362.039667 111.293569,365 111.293569,365 C111.293569,365 116.892611,363.026445 117.491771,361.136871 C118.157222,358.604122 118.661013,356.030344 119,353.431607 Z"/><path id="Path" fill="#F6AF42" d="M129.570579,377.642114 C101.729769,397.771822 82.5838587,441.083781 66.6931811,442.492647 C62.9025478,442.834191 64.1875082,437.775081 68.1708856,430.133049 C69.4986781,427.592821 72.9466553,421.743892 72.9466553,421.743892 C72.9466553,421.743892 60.9965231,429.129766 34.6762499,432.203656 C18.2501721,434.124837 1.9954224,434.936002 0.753293967,434.871963 C-2.07361902,437.967199 -0.189010364,500 65.9864528,500 C109.439532,500 157.839709,430.474593 157.839709,430.474593 L189,361.226689 C167.888118,359.747226 146.907209,365.542513 129.570579,377.642114 L129.570579,377.642114 Z"/><path id="Path" fill="#3F6C51" d="M218.504727,336.939401 C218.504727,336.939401 227.777695,349.915645 247.520143,359.85125 C265.42509,368.844686 298.991525,373.23434 298.991525,373.23434 C298.991525,373.23434 299.547048,397.195423 291.662889,410.407209 C290.872336,411.713399 284.633381,409.957537 284.633381,409.957537 C284.633381,409.957537 286.898207,417.32359 285.658963,418.822496 C280.639498,424.711148 274.846289,429.890321 268.437737,434.218402 L267.561719,434.796552 C266.493405,435.503179 261.878287,432.334063 261.878287,432.334063 C261.878287,432.334063 261.878287,438.136971 260.703141,438.757946 C252.947562,442.636165 244.315091,444.415148 235.661855,443.918465 C233.798607,443.820025 231.943277,443.605481 230.10662,443.276077 C222.250115,441.944022 214.793916,438.855495 208.291643,434.239815 C208.291643,434.239815 190.151666,352.870631 194.745418,342.999264 C199.339169,333.127897 203.356031,322.764032 218.504727,336.939401 Z"/><path id="Path" fill="url(#linearGradient-1)" d="M218.504727,336.939401 C218.504727,336.939401 227.777695,349.915645 247.520143,359.85125 C265.42509,368.844686 298.991525,373.23434 298.991525,373.23434 C298.991525,373.23434 299.547048,397.195423 291.662889,410.407209 C290.872336,411.713399 284.633381,409.957537 284.633381,409.957537 C284.633381,409.957537 286.898207,417.32359 285.658963,418.822496 C280.639498,424.711148 274.846289,429.890321 268.437737,434.218402 L267.561719,434.796552 C266.493405,435.503179 261.878287,432.334063 261.878287,432.334063 C261.878287,432.334063 261.878287,438.136971 260.703141,438.757946 C252.947562,442.636165 244.315091,444.415148 235.661855,443.918465 C233.798607,443.820025 231.943277,443.605481 230.10662,443.276077 C222.250115,441.944022 214.793916,438.855495 208.291643,434.239815 C208.291643,434.239815 190.151666,352.870631 194.745418,342.999264 C199.339169,333.127897 203.356031,322.764032 218.504727,336.939401 Z" style="mix-blend-mode:multiply"/><path id="Path" fill="#2D2D2D" d="M150,440.192492 L131.726151,391 C131.726151,391 113.775542,398.378874 101.751005,437.176779 C93.7346468,463.141859 95.7818351,480.38062 97.9367701,489 C119.917107,475.653863 139.656312,453.175033 150,440.192492 Z"/><path id="Path" fill="#E0E0E0" d="M276.98168,596.408906 C275.612317,563.96703 265.384891,533.085271 244.266755,508.144778 C230.808489,491.795612 217.735357,480.832053 214.868255,466.684147 C208.770313,436.550389 242.169919,382.587454 221.094575,369.508121 C202.180256,357.77519 183.522692,352.581925 165.678188,379.958764 C139.489131,420.115737 128.577024,440.824681 93.4657149,562.577885 C59.7237683,679.629369 66.5705806,998 66.5705806,998 L150.144483,998 C150.144483,998 163.452974,613.31373 182.859407,593.459644 L182.859407,593.459644 C182.859407,593.459644 202.33003,881.653775 407.520434,925.358409 L440,850.857502 C440,850.857502 281.838637,705.168263 276.98168,596.408906 Z"/><path id="Path" fill="url(#linearGradient-2)" d="M277.076696,596.779594 C275.707772,564.311002 265.483624,533.403811 244.372254,508.442778 C230.918301,492.080148 217.849358,481.10756 214.983174,466.948002 C211.496697,449.70842 220.886658,424.725999 225.67789,404 C217.528517,405.261955 211.218634,407.571973 207.496873,410.930055 C182.449848,433.516902 205.037088,509.704733 212.459221,534.409096 C219.881354,559.11346 238.12654,604.415489 260.072097,672.689367 C282.017655,740.963245 296.754973,769.367916 288.990609,793.345052 C283.857146,809.237124 265.184171,812.445482 253.141921,812.787707 C286.573604,865.27646 335.66235,910.664044 407.530842,926 L440,851.437738 C440,851.437738 281.932097,705.628519 277.076696,596.779594 Z" style="mix-blend-mode:multiply"/><path id="Path" fill="#EA6877" d="M129.052629,998 C129.052629,998 131.374411,1009.32734 130.492994,1011.11134 C130.127528,1011.82064 121.700321,1014.57187 115.057446,1017.96792 C112.090725,1020.56869 109.188498,1023.90026 112.413195,1024.93198 C117.895179,1026.71598 150.163643,1026.71598 153.259352,1021.38547 C154.206951,1019.71741 155.4788,1018.25578 157,1017.08667 C153.060359,1011.41247 150.572754,1004.85881 149.755182,998 L129.052629,998 Z"/><path id="Path" fill="#8E4AEE" d="M153.703277,1021.3237 C150.702722,1026.60585 118.532495,1026.60585 112.98147,1024.83803 C109.76659,1023.81568 112.659982,1020.57823 115.617671,1017.93716 C105.69441,1023.00632 93.4135699,1029.54511 93.0063518,1032.84645 C92.2990783,1038.46938 150.874183,1038.29899 160.518821,1032.84645 C165.598331,1030.01368 162.040531,1023.90087 157.346807,1017 C155.854562,1018.18561 154.615793,1019.65563 153.703277,1021.3237 L153.703277,1021.3237 Z"/><path id="Path" fill="#EA6877" d="M431,870.960998 C431,870.960998 440.093888,873.641047 443.453277,879.537152 C444.929696,882.067118 444.437556,886.955526 443.859827,893.752128 C444.779914,897.568516 446.363321,901.66363 448.759827,899.305187 C452.868125,895.274395 467.824895,866.823004 464.529698,861.677312 C463.466116,860.075349 462.738169,858.273706 462.38996,856.381537 C454.815287,857.239152 444.951093,853.20836 439.644543,851 L431,870.960998 Z"/><path id="Path" fill="#8E4AEE" d="M464.574367,861.812359 C467.850299,866.951933 452.980972,895.369492 448.896693,899.395491 C446.514197,901.751129 444.940048,897.660885 444.02534,893.849035 C443.918978,905.006192 444.02534,918.904456 446.833281,920.853211 C451.470639,924.108274 478.316263,872.262826 477.997179,861.127083 C477.827001,855.302233 470.785874,855.580626 462.510955,856.522881 C462.83765,858.408009 463.53951,860.2072 464.574367,861.812359 Z"/><path id="Path" fill="#F6AF42" d="M227.933271,475.615181 C227.272441,474.337644 223.477995,453.002772 225.119412,431.604024 C227.251124,404.413773 234.029965,375.371093 222.262919,368.067839 C203.418592,356.378373 155.476406,354.589821 137.697934,381.886533 C120.324488,408.523184 108.386905,427.175228 110.177542,471.314139 C126.932792,475.828104 184.467679,481.19376 227.933271,475.615181 Z"/><path id="Path" fill="#FFD69F" d="M227,414.220069 C187.75067,418.23521 142.10992,406.125713 125.080429,401 C120.954115,408.079668 117.575919,415.5662 115,423.339566 C152.512064,453.410417 205.573727,448.797275 224.898123,445.828633 C224.898123,441.172777 224.898123,436.239278 225.262735,431.327136 C225.713137,425.62478 226.399464,419.858353 227,414.220069 Z"/><path id="Path" fill="#8E4AEE" d="M204.210721,443.408602 L195.000599,443 C194.961306,449.170758 196.856138,455.194854 200.412076,460.204301 C209.516091,472.096774 228,473 228,473 L227.045033,456.655914 C227.045033,456.655914 207.075621,455.88172 204.210721,443.408602 Z"/><path id="Path" fill="#EA6877" d="M210.372605,364 C210.372605,364 325.901231,397.399635 347.073298,465.269407 C363.251147,517.188711 274.358347,509.416873 200,451.845323 L206.616271,440.540831 C206.616271,440.540831 279.181822,454.328885 283.706498,451.138792 C285.712722,449.70432 271.413039,443.002983 255.128476,436.151776 C229.261709,425.176054 211.989241,400.260358 210.735433,372.114399 L210.372605,364 Z"/><path id="Path" fill="#F6AF42" d="M348.024101,464.817241 C326.785365,397.250506 211,364 211,364 L212.198961,391.005379 C212.889273,407.766204 223.389325,422.565828 239.025711,428.817173 C260.435726,437.470831 287.262476,448.83142 284.564814,450.749719 C282.423812,452.305672 263.818509,449.811884 245.427305,446.870493 L249.238288,505.250709 C308.950822,534.067815 360.89152,505.762255 348.024101,464.817241 Z"/><path id="Path" fill="#EA6877" d="M211.707202,341 L212,366.089385 C212,370.203447 202.065789,380.819007 195.666066,375.575176 C193.804709,374.061713 196.251662,368.391555 198.029363,364.106961 L202.860526,342.556096 L211.707202,341 Z"/><path id="Path" fill="#2D2D2D" d="M200,356 C205.544,354.307692 211,346 211,346 L202.2,346 L200,356 Z"/><path id="Path" fill="#EA6877" d="M212.267711,325.26458 L213.78735,335.024169 C215.121571,342.774135 210.043845,350.182562 202.30322,351.779571 C195.139206,353.031907 188.235702,348.929425 187.106827,339.947148 C186.151625,331.979695 191.861127,325.070252 193.923495,321.464385 C198.721213,313.216237 209.662615,314.166285 212.267711,325.26458 Z"/><path id="Path" fill="#EA6877" d="M213.082155,335.600076 C213.597205,334.908114 214.043541,334.16623 214.414651,333.385242 C215.13551,331.857006 216.599072,329.752914 218.259232,331.9456 C220.749471,335.134961 216.489851,343.01977 212.470517,341.890204 C209.499705,340.937826 211.727814,337.371943 213.082155,335.600076 Z"/><path id="Path" fill="#FFF" d="M197,337.393498 C194.172949,336.791376 191.464613,335.642534 189,334 C189,334 189.924731,339.861496 197,337.393498 Z"/><path id="Path" fill="url(#linearGradient-3)" d="M200.988095,347.737327 C197.425082,347.770652 193.924849,346.821051 190.890306,344.997833 C189.221274,343.253256 187.901751,341.218897 187,339 C187,339.145276 187,339.290552 187,339.415075 C188.020408,348.048634 194.780612,351.991846 201.880952,350.788128 C206.395756,349.955296 210.189623,346.982929 212,342.860197 C209.021022,345.685196 205.127558,347.409596 200.988095,347.737327 Z"/><path id="Path" fill="#8E4AEE" d="M199.851891,307.843946 C199.851891,307.843946 203.520549,304.469676 211.226904,305.544284 C218.933258,306.618892 220.192324,301.589727 224.468808,303.395068 C228.745292,305.20041 225.44567,309.133475 225.33713,311.991933 C225.22859,314.85039 231.610753,322.566076 224.989801,329.336107 C221.147478,333.226188 190.213521,319.234791 199.851891,307.843946 Z"/><path id="Path" fill="#2D2D2D" d="M217.33815,319.055957 C211.666591,315.850353 206.286869,312.150797 201.261091,308 L200.797533,308.338232 C191.442075,319.542165 221.468036,333.19828 225.197577,329.329752 C226.70105,327.842459 227.684205,325.906824 228,323.812343 C224.282494,322.62513 220.70691,321.030016 217.33815,319.055957 L217.33815,319.055957 Z"/><path id="Path" fill="#8E4AEE" d="M192.876356,319.947112 C196.49394,323.409776 209.059156,335.096267 217.707108,339.619372 C219.09021,340.322397 220.764941,340.032889 221.838431,338.905198 C223.990482,336.651984 225.665692,333.978937 226.761769,331.049279 C227.36755,329.455351 226.787289,327.650263 225.370391,326.720949 C219.826284,323.171718 205.933907,314.082225 201.096191,308.888229 C200.099445,307.784539 198.409697,307.697673 197.307361,308.693454 C194.707966,310.954507 192.874037,313.981664 192.062935,317.350114 C191.856334,318.300506 192.166318,319.290187 192.876356,319.947112 L192.876356,319.947112 Z"/><path id="Path" fill="#8E4AEE" d="M239.169944,790 C257.183302,766.421002 271,701 271,701 C250.307209,705.635819 231.108097,715.3555 215.152134,729.273362 C214.420408,729.937861 213.710204,730.623796 213,731.416908 C215.668646,738.726397 218.574026,746.143064 221.608534,753.55973 C228.753238,743.900255 237.041393,735.134179 246.293506,727.451349 L227.397774,766.656792 C231.070748,774.473587 234.994805,782.254656 239.169944,790 Z"/><path id="Path" fill="#8E4AEE" d="M120.976628,525.782517 L95.1843072,557.27349 L93.7098497,562.410925 C91.2737896,571.009143 89.051419,580.553165 87,591 L90.7609349,589.860736 C114.266778,582.552251 151,506.028111 151,506.028111 C136.535458,505.722977 122.125271,507.903854 108.390317,512.476774 C106.018364,520.322648 103.518197,528.748902 100.847078,537.820022 C107.205188,533.240179 113.939352,529.213137 120.976628,525.782517 L120.976628,525.782517 Z"/><path id="Path" fill="#8E4AEE" d="M122.299817,613 C115.239684,632.82874 113.259281,654.111824 116.53963,674.903846 C121.36112,702.525769 153.554165,719.175769 164.050506,724 C164.050506,723.359615 164.050506,722.697885 164.199844,722.0575 C135.82559,690.828077 131.494782,647.772885 131.494782,647.772885 L165.757228,702.440385 C166.802595,689.846154 167.890631,677.892308 169,666.813654 C151.335427,641.176923 122.299817,613 122.299817,613 Z"/><path id="Path" fill="#8E4AEE" d="M104.029054,874 C104.029054,874 106.440951,871.071654 106.995901,846.405149 C107.337409,831.827544 86.2706576,805.258684 69.0245229,786 C68.6189826,796.238523 68.2774749,806.412922 68,816.459072 L104.029054,874 Z"/><path id="Path" fill="#8E4AEE" d="M92,876 C81.5638514,865.301979 73.2354935,852.751901 67.4464286,839 C67.2763605,846.78502 67.127551,854.464265 67,861.974271 C74.7388537,867.628897 83.1323225,872.337878 92,876 L92,876 Z"/><path id="Path" fill="#8E4AEE" d="M153,927.745969 C128.682174,919.138202 98,922.753464 98,922.753464 C103.665826,937.990594 113.062231,951.56072 125.327991,962.220077 C132.681392,968.41767 142.18491,970.655689 151.129398,971 C151.279906,967.320179 151.430414,963.296048 151.623925,959.013684 C140.27117,953.931386 129.798292,947.074292 120.597733,938.699353 L151.90344,952.192028 C152.26896,944.660232 152.612979,936.547411 153,927.745969 Z"/><path id="Path" fill="#8E4AEE" d="M373.582888,780.853997 C360.611257,777.076369 348.208312,771.586974 336.705882,764.532673 L362.695187,767.805439 C357.240642,761.111145 351.743316,754.161831 346.31016,747 C323.807487,747.48879 304,749.720221 304,749.720221 C314.87626,767.670435 330.106598,782.626697 348.299465,793.222501 C360.620321,800.129312 375.208556,799.916795 388,797.366588 C383.315508,792.138663 378.481283,786.613215 373.582888,780.853997 Z"/><path id="Path" fill="#8E4AEE" d="M243.831818,661.659369 C243.831818,661.659369 253.305128,663.08576 261.58629,643.158867 C269.867453,623.231974 239.063231,556 239.063231,556 C227.003367,569.938744 218.630185,586.678637 214.709375,604.688893 C208.940236,633.514762 240.255378,662 240.255378,662 C224.714893,626.467965 235.593232,587.231573 235.593232,587.231573 L243.831818,661.659369 Z"/><path id="Path" fill="#8E4AEE" d="M203.082306,441.050791 C202.804082,425.920067 229,370.633084 229,370.633084 C226.104614,369.137959 223.073275,367.921444 219.946999,367 C219.946999,367 208.454182,393.094088 201.177538,410.832084 C196.725944,421.517624 193.665473,433.357202 194.029305,443.593949 L203.424737,444 C203.21181,443.030889 203.097089,442.042842 203.082306,441.050791 L203.082306,441.050791 Z"/><path id="Path" fill="#EA6877" d="M212,447.019085 C212,447.019085 209.444037,436.38882 205.706746,434.232579 C201.969456,432.076339 191.78856,423.796376 192.003347,438.739122 C192.003347,443.914099 194.151215,447.019085 200.59482,452 L212,447.019085 Z"/><path id="Path" fill="#2D2D2D" d="M200,310 C200,310 194.764738,314.400978 195.008238,319 L200,310 Z"/><path id="Path" fill="#2D2D2D" d="M207,317 C203.474339,318.408987 200.866573,321.389292 200,325 L207,317 Z"/><path id="Path" fill="#2D2D2D" d="M214,321 C214,321 212.375451,328.505423 208,331 L214,321 Z"/><path id="Path" fill="#2D2D2D" d="M224,327 C224,327 222.391304,334.505423 218,337 L224,327 Z"/><path id="Path" fill="url(#linearGradient-4)" d="M348.023537,464.812385 C336.030071,426.677326 293.860186,399.456269 259.421804,383 C294.652612,413.930112 338.407347,468.777237 315.105755,478.071192 C293.881603,486.597756 259.271886,477.751446 247,474.148972 L249.14169,505.249616 C308.937687,534.069403 360.895097,505.76121 348.023537,464.812385 Z"/><path id="Path" fill="url(#linearGradient-5)" d="M115.259175,723.428443 C100.520853,794.740451 102.163184,924.099107 104.594688,998 L150.387997,998 C150.387997,998 163.65462,612.876644 183,593 C183,593 136.694795,619.68049 115.259175,723.428443 Z" style="mix-blend-mode:multiply"/><polygon id="Path" fill="#8E4AEE" points="618 990 618 980 645 981.83 642.416 990"/><path id="Path" fill="#8E4AEE" d="M456.961543,990 C456.961543,990 449.162679,994.491127 447.283175,998.855744 C445.40367,1003.22036 453.072913,1005.94034 464.565975,1002.3137 C471.543549,1000.07014 477.6353,995.76752 482,990 L456.961543,990 Z"/><path id="Path" fill="#8E4AEE" d="M481.372319,990 C481.372319,990 505.015438,1016.83573 494.139603,1021.79732 C483.263768,1026.75891 419.061952,1029.0887 409.153336,1024.62327 C399.244719,1020.15784 456.439574,990 456.439574,990 C456.439574,990 449.669045,997.852256 451.496013,999.966325 C456.611524,1005.94181 481.372319,990 481.372319,990 Z"/><path id="Path" fill="#E0E0E0" d="M415.102679,1015.19314 C429.030322,1014.16305 445.752091,1024.42101 468.255551,1021.63119 C484.654921,1019.65685 492.886846,1016.84557 496.777129,1015 C497.400434,1018.11172 496.777129,1020.62256 494.133456,1021.82433 C483.257858,1026.76016 419.057441,1029.07786 409.149041,1024.63561 C406.161476,1023.32654 409.299494,1019.65685 415.102679,1015.19314 Z"/><path id="Path" fill="#8E4AEE" d="M642.634532,990 C642.634532,990 653.361789,997.61598 655.799802,1005.21069 C658.237815,1012.80539 637.758506,1010.59293 629.702463,1003.97681 C624.949761,1000.1087 620.977668,995.36464 618,990 L642.634532,990 Z"/><path id="Path" fill="#8E4AEE" d="M617.627681,990 C617.627681,990 593.984562,1016.83573 604.860397,1021.79732 C615.736232,1026.75891 679.938048,1029.0887 689.846664,1024.62327 C699.755281,1020.15784 642.560426,990 642.560426,990 C642.560426,990 649.330955,997.852256 647.503987,999.966325 C642.388476,1005.94181 617.627681,990 617.627681,990 Z"/><path id="Path" fill="#E0E0E0" d="M683.874246,1015.19314 C669.950527,1014.16305 653.23347,1024.42101 630.73635,1021.63119 C614.341601,1019.65685 606.111995,1016.84557 602.222808,1015 C601.599679,1018.11172 602.222808,1020.62256 604.865736,1021.82433 C615.73827,1026.76016 679.920597,1029.07786 689.826206,1024.63561 C692.855904,1023.32654 689.71877,1019.65685 683.874246,1015.19314 Z"/><path id="Path" fill="#F29A9D" d="M653.631153,558 C596.444545,568.684823 538.016146,564.966504 515.385579,562.893649 C513.951096,568.25743 512.366742,573.899016 510.525466,579.839777 C465.735356,724.640493 457,987.743564 457,987.743564 C457,987.743564 471.216364,988.320545 481.878637,987.743564 C481.878637,987.743564 550.177132,772.487129 567.647844,717.182487 C575.976407,690.790975 585.675221,653.265878 593.532759,623.711659 L614.835895,986.418646 C614.835895,986.418646 629.715975,986.888778 647.058226,986.418646 C647.058226,986.418646 692.469231,672.007057 673.264294,610.441109 C667.826107,593.088957 660.653694,574.967498 653.631153,558 Z"/><path id="Path" fill="#2D2D2D" d="M588,641.675232 C588,641.675232 511.277308,611.877071 511,622.157437 C510.766674,631.160738 568.085291,653.700918 583.936208,657 C585.851084,649.869726 586.17023,648.613946 588,641.675232 Z"/><path id="Path" fill="#8E4AEE" d="M682.486784,360 C682.486784,360 745.203633,383.290421 765.652919,436.610983 C786.102206,489.931545 772.668992,527 772.668992,527 L647,422.321073 L682.486784,360 Z"/><path id="Path" fill="#2D2D2D" d="M677,639.949487 C676.66994,631.422017 675.64034,622.937896 673.922038,614.586425 C663.308375,611.180094 651.2088,609.292509 644.331146,610.24715 C626.882285,612.720537 622,642.054036 622,642.054036 C622,642.054036 651.484755,647.608308 677,639.949487 Z"/><path id="Path" fill="#E0E0E0" d="M692.774666,615.552509 C693.010181,577.855887 684.553047,448.582802 684.553047,448.582802 C684.553047,448.582802 713.028966,380.531944 705.835049,365.461857 C659.973833,347.8016 543.629367,317.276112 487.448307,384.44931 C473.831251,400.718153 512.776887,441.004946 517.958219,471.187932 C517.958219,471.187932 495.43441,543.348814 477,613.133589 C502.435632,629.038524 632.568438,667.933903 692.774666,615.552509 Z"/><path id="Path" fill="url(#linearGradient-6)" d="M705.835684,365.42166 C679.480799,355.433806 652.03822,348.579328 624.075552,345 C665.352512,365.42166 669.128367,394.512892 669.128367,405.258881 C669.66471,482.064871 624.18282,465.689012 584,473.33108 C584,473.33108 622.058902,544.314543 620.964762,580.876592 C620.385512,600.292153 611.117504,624.010391 602.557469,641.991727 C636.325627,642.270009 669.621802,635.569821 692.663099,615.554882 C692.89909,577.858296 684.42487,448.585337 684.42487,448.585337 C684.42487,448.585337 713.044134,380.491732 705.835684,365.42166 Z"/><path id="Path" fill="#8E4AEE" d="M571.156288,316 L561,346.475498 C561,350.902106 584.733419,363.160407 591.68134,357.563301 C593.806086,355.903323 593.147415,351.66825 591.235143,347.092669 L579.782759,322.086587 L571.156288,316 Z"/><path id="Path" fill="#2D2D2D" d="M582.510638,327.193995 C577.638298,326.316397 571,325 571,325 C571.604333,330.437542 574.181021,335.438076 578.212766,338.997691 C581.510919,341.940608 585.648431,343.696501 590,344 L582.510638,327.193995 Z"/><path id="Path" fill="url(#linearGradient-7)" d="M599.559663,313.772693 C599.559663,313.772693 617.305529,304.223056 617.99136,287.704764 C618.420004,277.208766 602.817358,264.368376 589.507958,272.64903 C580.39927,278.284176 578.06316,289.210338 578.06316,289.210338 C578.06316,289.210338 566.725523,291.533222 568.118616,300.502138 C569.51171,309.471055 569.854625,324.978461 582.263872,325 C594.67312,325.021477 599.559663,313.772693 599.559663,313.772693 Z"/><path id="Path" fill="#8E4AEE" d="M578.422695,304.483609 L571.511793,321.455318 C569.690919,327.24745 572.878053,333.415722 578.702575,335.37212 C583.144909,336.85466 587.868854,337.333202 592.524379,336.772286 C597.62682,336.496496 600.511745,331.871705 600.942331,325.358811 C601.246805,318.392745 600.343998,311.426505 598.272699,304.759399 C595.344716,295.276456 583.740429,293.685358 578.422695,304.483609 Z"/><path id="Path" fill="url(#linearGradient-8)" d="M586,297 C586,297 577.53778,302.102352 582.026257,311.325833 C584.249906,315.926672 579.637893,318.085359 577.908388,313.310081 C576.178883,308.534803 573.666983,301.404594 575.849454,299.529371 C578.031924,297.654148 586,297 586,297 Z"/><path id="Path" fill="#8E4AEE" d="M577.771036,313.6174 C577.62687,312.511213 577.593183,311.392531 577.670512,310.279161 C577.811245,308.192762 577.509675,304.979708 574.393447,306.315003 C569.849786,308.297082 569.769367,319.647093 574.755332,320.919796 C578.4747,321.712628 578.17313,316.434038 577.771036,313.6174 Z"/><path id="Path" fill="#FFF" d="M589,318 C592.258983,318.827051 595.638658,319.126102 599,318.884852 C599,318.884852 599,322.588885 596.51606,323.720673 C594.03212,324.852461 590.092077,322.465417 589,318 Z"/><path id="Path" fill="url(#linearGradient-9)" d="M594.254497,331.377492 C588.721623,329.90693 583.954839,338.112236 574.527674,329.438056 C572.76141,327.83962 572.0166,324.173873 571.654835,322 L571.505873,322.383625 C569.70606,328.20247 572.856331,334.399191 578.613488,336.364612 C583.004443,337.85399 587.673751,338.334739 592.27543,337.771236 C595.254804,337.593003 597.868677,335.720758 599,332.954615 C597.374837,332.570038 595.786817,332.042274 594.254497,331.377492 L594.254497,331.377492 Z" style="mix-blend-mode:multiply"/><path id="Path" fill="#8E4AEE" d="M612,411.915929 C612,411.915929 613.280134,399 617.739957,399 C622.199779,399 624.842637,408.837633 621.477123,419.622434 C618.111609,430.407235 612,411.915929 612,411.915929 Z"/><path id="Rectangle" fill="#2D2D2D" d="M603.667239,375.230095 L639.3989,375.228895 C639.751711,375.22884 640.03773,375.51484 640.037742,375.86765 C640.037742,375.867665 640.037742,375.867679 640.037699,375.867693 L640.037061,394.854826 C640.037006,395.20762 639.751013,395.493613 639.398219,395.493668 L603.666558,395.494868 C603.313748,395.494922 603.027729,395.208922 603.027717,394.856112 C603.027717,394.856098 603.027717,394.856083 603.02776,394.856069 L603.028397,375.868936 C603.028452,375.516142 603.314445,375.230149 603.667239,375.230095 Z" transform="translate(621.532729, 385.361881) rotate(-80.030000) translate(-621.532729, -385.361881)"/><path id="Path" fill="#8E4AEE" d="M628,405.468675 C628,405.468675 641.114184,516.444317 703.304941,526.24948 C761.837418,535.477868 764.276271,538.511274 771.229142,529.923746 C778.182013,521.336218 763.46332,444.475705 747.910282,431.039001 C732.357245,417.602296 635.38074,400 635.38074,400 L628,405.468675 Z"/><path id="Path" fill="#8E4AEE" d="M486.120355,381 C486.120355,381 419.368703,431.193119 407.915165,494.100119 C393.72134,572.028729 548.226366,601.452281 622,419.440792 L612.173506,411.812464 L519.36773,446.129258 C519.36773,446.129258 496.546287,386.51291 486.120355,381 Z"/><path id="Path" fill="#E0E0E0" d="M530,355 C530,355 484.916898,369.169171 437,420.97252 L502.713989,455 L518.879501,446.219407 L530,355 Z"/><polygon id="Path" fill="#8E4AEE" points="457 990 457.192 988 482 988 481.808 990"/><path id="Path" fill="#8E4AEE" d="M628.037171,406 C624.656251,401.773809 621.696153,397.228676 619.198878,392.429092 C613.372151,378.182907 630.677747,392.058779 630.677747,392.058779 L631.419727,387.898195 C631.419727,387.898195 635.784316,394.75989 641,401.425537 L628.037171,406 Z"/><path id="Path" fill="#2D2D2D" d="M701,414.343993 C701,414.343993 738.121535,420.61052 751,434 C751,434 745.66951,420.21364 731.810235,416.474612 C717.950959,412.735584 701,414.343993 701,414.343993 Z"/><path id="Path" fill="#2D2D2D" d="M503,454.712979 C503,454.712979 474.367347,461.366414 457,478 C457,478 460.840445,449.146707 503,454.712979 Z"/><path id="Path" fill="url(#linearGradient-10)" d="M707.237483,495.602494 C673.979156,486.855258 628,405 628,405 C628,405 641.127724,516.377178 703.382687,526.217819 C761.975593,535.479597 764.416964,538.523978 771.377013,529.905379 C772.079793,528.868827 772.520728,527.67698 772.661946,526.432212 C772.661946,526.432212 778.979529,509.002058 776.366833,480.766496 C758.120797,500.747927 737.047909,503.470718 707.237483,495.602494 Z"/><path id="Path" fill="url(#linearGradient-11)" d="M492.5429,520.141407 C457.240311,529.530965 420.139409,519.884159 408.40756,491.351049 C408.236292,492.208543 408.065024,493.044599 407.915165,493.902093 C393.72134,572.084101 548.226366,601.603328 622,419 C621.935775,419 535.680994,508.650988 492.5429,520.141407 Z"/><path id="Path" fill="url(#linearGradient-12)" d="M640.950545,795.066998 C627.261702,795.83586 611.896674,792.012909 603,789.364608 L614.647336,986.791173 C614.647336,986.791173 629.582573,987.261033 646.989108,986.791173 C646.989108,986.791173 669.101855,834.321653 676,721 C667.619076,738.128527 670.219311,793.422488 640.950545,795.066998 Z"/><path id="Path" fill="url(#linearGradient-13)" d="M481.791153,831.28075 C475.540027,830.87452 471.337052,826.854981 468.563515,821.125 C459.474848,912.932976 457,987.743434 457,987.743434 C457,987.743434 471.166373,988.320708 481.791153,987.743434 C481.791153,987.743434 546.841261,781.870356 566,721 C545.070464,757.64622 500.267176,832.478059 481.791153,831.28075 Z"/><polygon id="Path" fill="#F29A9D" points="1036.113 999 1026 892 1079 895.041 1060.047 999"/><path id="Path" fill="#2D2D2D" d="M1105.21869,337.195485 C1105.21869,337.195485 1140.29188,317.335449 1181.76341,348.73057 C1207.95595,368.569204 1204.01851,497.852042 1195.92964,521.457235 C1187.84076,545.062428 1114.29193,574.552868 1093.06398,533.591545 C1071.83604,492.630222 1105.21869,337.195485 1105.21869,337.195485 Z"/><path id="Path" fill="#F29A9D" d="M1314,888.891668 C1314,888.891668 1316.54608,896.937541 1320.20995,899.450556 C1323.87382,901.963571 1327.86889,895.670474 1326.8339,884.372465 C1326.14305,877.568269 1323.40226,871.149704 1318.98866,866 L1314,888.891668 Z"/><path id="Path" fill="#2D2D2D" d="M1350.5972,859.790632 C1350.5972,859.640562 1350.44808,859.533369 1350.38418,859.404738 C1350.32027,859.276106 1350.23506,859.104597 1350.14985,858.975966 C1350.04053,858.830348 1349.91941,858.694104 1349.78771,858.568633 C1349.7283,858.480163 1349.65656,858.400743 1349.57469,858.332808 C1349.41053,858.1802 1349.23219,858.043798 1349.04214,857.925475 L1348.89302,857.796844 C1348.66725,857.66554 1348.43231,857.5509 1348.19005,857.453826 L1348.19005,857.453826 C1347.91141,857.344998 1347.62693,857.251952 1347.33796,857.175125 L1347.33796,857.175125 C1347.01562,857.095425 1346.68821,857.03812 1346.35806,857.003616 L1346.35806,857.003616 C1346.01722,857.003616 1345.65509,857.003616 1345.27165,857.003616 L1345.27165,857.003616 C1336.02649,856.78923 1319.13383,866.179331 1319.13383,866.179331 C1319.13383,866.179331 1328.71983,892.505916 1322.13744,896.064722 C1319.83681,897.329598 1314,889.41876 1314,889.41876 C1314,889.41876 1323.09604,923.184534 1330.21098,936.219195 L1330.21098,936.219195 C1330.34986,936.507388 1330.50637,936.786627 1330.67963,937.0553 L1330.67963,937.183932 L1331.12698,937.912843 L1331.12698,937.912843 C1331.46781,938.448808 1331.78735,938.920457 1332.10688,939.32779 L1332.10688,939.32779 C1332.23469,939.520737 1332.38381,939.670808 1332.51162,939.842316 L1332.63943,939.949509 C1332.74215,940.074312 1332.85626,940.189153 1332.98027,940.292527 L1333.08678,940.39972 L1333.42762,940.656983 L1333.42762,940.656983 L1333.83236,940.871368 L1333.83236,940.871368 C1333.95921,940.936648 1334.09601,940.980125 1334.2371,941 L1334.74835,941 L1334.98268,941 L1335.11049,941 L1335.36612,940.84993 L1335.36612,940.84993 L1335.70695,940.464035 C1336.76337,938.800448 1337.60113,937.006106 1338.19931,935.125827 C1338.64666,933.903828 1339.094,932.51032 1339.56265,931.009618 C1340.926,926.464638 1342.37455,920.761974 1343.8231,914.587661 C1344.27044,912.443802 1344.71779,910.407136 1345.14383,908.156085 C1346.01722,903.868367 1346.84801,899.452018 1347.57228,895.099985 C1350.14985,879.900027 1351.70491,865.643366 1350.68241,860.798246 C1350.68512,860.460442 1350.6566,860.123116 1350.5972,859.790632 L1350.5972,859.790632 Z"/><path id="Path" fill="#F29A9D" d="M1312.89347,889 C1312.89347,889 1240.55097,871.209176 1228.06125,856.784759 C1215.57153,842.360342 1263.70057,806.906532 1269.06243,812.616641 C1274.42428,818.32675 1310.44659,861.088647 1318,865.882582 L1312.89347,889 Z"/><path id="Path" fill="#F29A9D" d="M886.641587,364 C886.641587,364 897.868359,354.417714 895.728918,350.442998 C893.589476,346.468283 875.118259,347.026892 875.118259,347.026892 L873,364 L886.641587,364 Z"/><path id="Rectangle" fill="#2D2D2D" d="M869.894672,307.387329 L896.214407,307.385945 C896.702914,307.385827 897.098948,307.781819 897.098974,308.270326 C897.098974,308.270357 897.098974,308.270388 897.098881,308.270419 L897.096277,357.813625 C897.096158,358.302095 896.700181,358.698072 896.21171,358.698191 L869.891975,358.699575 C869.403468,358.699693 869.007434,358.303701 869.007408,357.815194 C869.007408,357.815163 869.007408,357.815132 869.007501,357.815101 L869.010105,308.271896 C869.010224,307.783425 869.406201,307.387448 869.894672,307.387329 Z" transform="translate(883.053191, 333.042760) rotate(-16.130000) translate(-883.053191, -333.042760)"/><path id="Path" fill="#F29A9D" d="M872.268341,364 C872.268341,364 872.268341,355.349815 870.519262,353.560122 C868.332912,351.216476 862.407905,344.334679 869.076271,341.224021 C872.814928,339.47694 878.586891,339.540857 880.77324,341.79928 C882.456729,343.546362 874.214192,364 874.214192,364 L872.268341,364 Z"/><path id="Path" fill="#F29A9D" d="M1036.0111,999 C1036.0111,999 1025.57268,1006.2346 1023.19541,1013.44805 C1020.81813,1020.6615 1040.76566,1018.56727 1048.61067,1012.28459 C1053.23985,1008.60979 1057.10611,1004.10016 1060,999 L1036.0111,999 Z"/><path id="Path" fill="#2D2D2D" d="M1073.81328,1026.82167 C1073.80942,1026.76436 1073.80942,1026.70685 1073.81328,1026.64954 C1073.89042,1026.39628 1073.94752,1026.13727 1073.98405,1025.87492 L1073.98405,1025.76733 C1074.005,1025.46646 1074.005,1025.16448 1073.98405,1024.86361 L1073.98405,1024.86361 C1074.00532,1024.52685 1074.00532,1024.18907 1073.98405,1023.85231 L1073.98405,1023.85231 C1073.94631,1023.49086 1073.8893,1023.13172 1073.81328,1022.77645 L1073.81328,1022.77645 C1071.99885,1013.58863 1059.19106,999 1059.19106,999 C1059.19106,999 1035.71012,1014.19111 1030.80047,1008.48906 C1029.09276,1006.48797 1035.49665,999 1035.49665,999 C1035.49665,999 1004.67258,1015.35303 993.551154,1025.20789 L993.551154,1025.20789 L992.846726,1025.8534 L992.739994,1025.96099 C992.530236,1026.15092 992.330718,1026.35203 992.142297,1026.56347 L992.142297,1026.56347 C991.733747,1026.9711 991.348874,1027.40216 990.989597,1027.8545 L990.989597,1027.8545 L990.584017,1028.37091 C990.590147,1028.41372 990.590147,1028.4572 990.584017,1028.50001 L990.327861,1028.90884 L990.327861,1029.05946 C990.255349,1029.18411 990.191168,1029.3135 990.135744,1029.44677 L990.135744,1029.55435 C990.078927,1029.70053 990.036041,1029.85184 990.007666,1030.00621 L990.007666,1030.00621 C989.997561,1030.14948 989.997561,1030.29329 990.007666,1030.43655 C990.007666,1030.43655 990.007666,1030.43655 990.007666,1030.54414 C989.997445,1030.6371 989.997445,1030.73091 990.007666,1030.82386 L990.007666,1030.93145 C990.028814,1031.02038 990.073013,1031.10206 990.135744,1031.16814 L990.135744,1031.27572 C990.195725,1031.35789 990.267694,1031.43043 990.349207,1031.49089 L990.455939,1031.49089 C990.588819,1031.58596 990.732061,1031.66537 990.882865,1031.72758 L991.907488,1032.11489 C992.854593,1032.3872 993.81686,1032.60275 994.78924,1032.76041 C1000.3782,1033.53124 1006.01182,1033.92659 1011.65283,1033.94385 C1019.57231,1034.09447 1028.72987,1033.94385 1037.46052,1033.47047 C1045.12384,1033.08316 1052.50966,1032.5022 1058.55067,1031.7491 C1060.25838,1031.53393 1061.8807,1031.29724 1063.35359,1031.06055 C1066.14165,1030.71473 1068.87899,1030.03575 1071.50788,1029.03794 C1071.81972,1028.91203 1072.11393,1028.74566 1072.38308,1028.54304 C1072.51116,1028.54304 1072.59654,1028.34939 1072.70327,1028.26332 C1072.83391,1028.16732 1072.9554,1028.05927 1073.06616,1027.94056 C1073.19173,1027.79932 1073.30594,1027.64823 1073.4077,1027.4887 C1073.46951,1027.40602 1073.52653,1027.31981 1073.57847,1027.2305 C1073.66483,1027.09911 1073.74325,1026.96259 1073.81328,1026.82167 L1073.81328,1026.82167 Z"/><path id="Path" fill="#64F79F" d="M1019.66728,546 C1074.26472,556.165525 1130.0821,552.677145 1151.69849,550.686842 C1153.04684,555.823108 1157.1561,587.903366 1158.91109,593.59606 C1201.71583,732.125422 1286,802.149841 1286,802.149841 C1286,802.149841 1287.2397,874.678191 1221.42741,892.034488 C1221.42741,892.034488 1175.77616,851.222578 1124.28206,764.227081 C1099.71214,722.730336 1090.95857,646.092974 1083.46774,617.822113 L1100.03318,968.800256 C1100.03318,968.800256 1016.2001,969.24968 999.634662,968.800256 C999.634662,968.800256 990.645667,659.190451 1000.94021,596.164193 C1003.74392,579.021907 1012.96834,562.264841 1019.66728,546 Z"/><path id="Path" fill="url(#linearGradient-14)" d="M1084.20965,634.340418 C1079.45121,602.242543 1071.15061,571.492778 1060.73752,572.006344 C1046.84628,572.6697 1050.45245,706.196862 1052.03149,748.009694 C1053.61052,789.822527 1034.29936,813.425164 1018.65838,823.525296 C1012.29503,827.902875 1004.714,830.1499 997,829.944871 C998.066915,905.289284 999.90201,968.80028 999.90201,968.80028 C1016.41786,969.24965 1100,968.80028 1100,968.80028 L1084.20965,634.340418 Z" style="mix-blend-mode:multiply"/><path id="Path" fill="url(#linearGradient-15)" d="M1159.41064,596 C1152.31727,626.459272 1154.41742,665.682265 1156.04611,677.37435 C1158.74631,696.804159 1154.69601,748.189486 1143.89523,751.844598 C1137.16618,754.110341 1121.69363,743.764876 1111,735.642403 C1114.44659,745.598435 1118.82328,755.209502 1124.07237,764.348931 C1175.63324,851.238013 1221.34369,892 1221.34369,892 C1287.2413,874.664934 1286,802.225303 1286,802.225303 C1286,802.225303 1202.42089,732.970537 1159.41064,596 Z" style="mix-blend-mode:multiply"/><path id="Path" fill="#2D2D2D" d="M1085,628 C1087.74678,640.716263 1090.81545,658.179931 1094.80687,677 C1120.04292,669.878893 1150,641.458045 1150,641.458045 L1085,628 Z"/><path id="Path" fill="#F6AF42" d="M999.932277,358 C999.932277,358 972.368065,360.606716 952.342782,404.536295 C934.651998,443.359274 923.771952,485.216299 910.021972,483.848841 C898.456568,482.695049 887.383765,364.474058 887.383765,364.474058 L872.391575,364.474058 C872.391575,364.474058 825.615942,469.383703 854.315277,543.012753 C863.096417,565.511706 902.82572,580.746039 927.884095,572.925891 C1017.55881,544.700709 1020.60008,469.298237 1020.60008,469.298237 C1020.60008,469.298237 1036.38472,371.22588 999.932277,358 Z"/><path id="Path" fill="url(#linearGradient-16)" d="M883.311506,536.794724 C851.680421,506.12896 872.389466,364 872.389466,364 C872.389466,364 825.617435,469.145879 854.31456,542.940725 C863.095024,565.49034 902.821268,580.758978 927.877713,572.92122 C1017.54552,544.632482 1020.58656,469.06022 1020.58656,469.06022 C1020.58656,469.06022 1021.25045,464.777292 1022,458.160169 C984.415332,493.70847 913.079419,565.704487 883.311506,536.794724 Z"/><path id="Path" fill="#2D2D2D" d="M987.48486,537 C1002.67923,521.500733 1013.24016,502.151169 1018,481.090659 C1010.93311,436.243593 999.003677,382 999.003677,382 C999.003677,382 980.504414,422.212869 984.588948,448.693993 C987.48486,467.487049 987.636139,512.483604 987.48486,537 Z"/><path id="Path" fill="#F6AF42" d="M1082.43912,631.235728 C1118.58088,627.595768 1158.68133,612.736169 1178.73155,604.449908 C1184.00372,572.145536 1185.16849,539.303351 1182.19808,506.70629 C1179.47409,474.72525 1185.87782,442.627423 1200.66483,414.144261 C1205.84322,404.102255 1208.32543,395.387764 1203.12564,389.178421 C1149.62984,324.943842 1043.2802,335.949367 982.401988,365.45445 C977.202197,376.352917 987.751567,446.240139 993.101147,479.599298 C995.071251,491.682265 996.051701,503.906067 996.032716,516.148773 C996.032716,541.607078 995.925725,587.149395 996.032716,617.468116 C1010.66917,623.54899 1044.43571,635.068391 1082.43912,631.235728 Z"/><path id="Path" fill="#2D2D2D" d="M997,655.708751 C1015.53237,656.79661 1034.11874,654.832207 1052,649.895775 L998.560435,621 C997.876409,630.97718 997.363389,642.687685 997,655.708751 Z"/><path id="Path" fill="#2D2D2D" d="M1153.45763,354.03109 C1153.45763,354.03109 1129.93032,401.351156 1125.65262,433.808963 C1121.37493,466.26677 1174.52527,547.475349 1188,551.511221 L1182.16095,569 C1182.16095,569 1149.90714,544.336337 1131.40612,506.198414 C1112.9051,468.060491 1107.00188,418.882643 1116.4342,394.133565 C1122.61594,378.410318 1130.43725,363.379935 1139.76901,349.290542 C1139.76901,349.290542 1150.80546,347.240575 1153.45763,354.03109 Z"/><path id="Path" fill="#FF8B00" d="M1082.54884,631.023772 C1044.48278,634.884311 1010.66058,623.281127 996,617.156026 C996,624.186952 996,630.419889 996,635.401925 C1043.1539,665.294142 1148.28566,648.665787 1172.56992,633.245199 C1175.20298,623.612383 1177.34909,613.85146 1179,604 C1158.89529,612.389663 1118.75018,627.357338 1082.54884,631.023772 Z"/><path id="Path" fill="#FF8B00" d="M1042.62601,492 L1096.99774,492 C1102.56046,492.033771 1107.23284,496.171296 1107.91061,501.663713 C1109.65186,513.975554 1115.80729,525.246676 1125.2428,533.400465 C1127.78954,535.643988 1129.16715,538.92144 1128.98376,542.300514 C1128.80037,545.679588 1127.07605,548.790452 1124.3013,550.748187 C1111.72881,559.607008 1096.79982,564.562175 1081.39877,564.988219 C1060.57874,565.307502 1039.8015,559.070836 1027.19822,554.345445 C1024.22542,553.233943 1021.87323,550.909558 1020.73619,547.959787 C1019.59914,545.010016 1019.78603,541.717131 1021.24964,538.913422 C1027.22012,527.575348 1030.73366,515.117652 1031.56336,502.34485 C1031.90426,496.521405 1036.76198,491.978904 1042.62601,492 L1042.62601,492 Z"/><path id="Path" fill="#2D2D2D" d="M1107.2719,442 C1107.2719,442 1100.09758,492.559594 1119.82696,543.054945 C1127.15074,561.835447 1149.97618,584.170752 1180.59514,594 C1182.98449,576.508546 1184.11906,558.867664 1183.99013,541.2133 C1170.06854,520.633981 1155.25015,502.346013 1155.25015,502.346013 L1107.2719,442 Z"/><path id="Path" fill="#F6AF42" d="M1096.80795,303 C1096.80795,303 1098.42025,320.543756 1092.30176,325 C1092.30176,325 1084.30225,315.243854 1083.72347,312.020649 C1083.32965,309.290378 1083.08809,306.538424 1083,303.778761 L1096.80795,303 Z"/><path id="Path" fill="#F29A9D" d="M1090.14652,317 L1100,346.042729 C1100,350.288743 1076.99418,361.922818 1070.24551,356.657762 C1068.26188,355.086737 1068.82247,351.053025 1070.6983,346.679631 L1081.80233,322.689658 L1090.14652,317 Z"/><path id="Path" fill="#FF8B00" d="M1076.325,347.46995 L1094.82122,330.882964 L1092.85399,325 C1092.85399,325 1116.16137,329.799819 1123.34602,343.307275 C1130.53068,356.814731 1076.30362,372 1069.03343,372 C1061.76324,372 1076.325,347.46995 1076.325,347.46995 Z"/><path id="Path" fill="#FF8B00" d="M1067.64084,372 C1067.64084,372 1058.87234,357.10474 1060.12191,346.409596 C1061.37147,335.714453 1066.04657,335 1066.04657,335 L1074.94433,336.407256 C1072.91616,339.862342 1073.34294,344.238623 1076,347.2323"/><path id="Path" fill="#F29A9D" d="M1083.04999,305.278285 L1089.49784,321.864707 C1091.2524,327.503889 1088.26379,333.544234 1082.79796,335.405966 C1078.65295,336.847631 1074.24729,337.319844 1069.90225,336.788168 C1065.17662,336.507408 1062.46727,332.015252 1062.06821,325.665763 C1061.74665,318.870711 1062.56366,312.069396 1064.48353,305.559045 C1067.2979,296.337167 1078.09333,294.760593 1083.04999,305.278285 Z"/><path id="Path" fill="#FFF" d="M1075,320.732081 C1075,320.732081 1070.90604,320.325369 1065,320 C1065,320 1065,323.497721 1067.48322,324.555172 C1069.0305,325.203776 1070.82581,325.140071 1072.31275,324.3838 C1073.7997,323.627529 1074.79864,322.270052 1075,320.732081 Z"/><path id="Path" fill="url(#linearGradient-17)" d="M1068.55403,330.776715 C1073.88138,329.397517 1078.47837,337.045797 1087.56495,328.979578 C1089.14517,326.952955 1090.10565,324.533786 1090.33603,322 L1090.4864,322.355248 C1092.28094,327.811661 1089.22423,333.656237 1083.63388,335.45763 C1079.39444,336.852569 1074.88841,337.309477 1070.44438,336.795034 C1067.58476,336.598189 1065.08728,334.84082 1064,332.260398 C1065.56336,331.908881 1067.08838,331.412037 1068.55403,330.776715 L1068.55403,330.776715 Z" style="mix-blend-mode:multiply"/><path id="Path" fill="url(#linearGradient-18)" d="M1065.52422,303.220699 C1065.52422,303.220699 1057.28288,281.854383 1070.58284,280.335964 C1088.62527,278.166795 1098.93222,286.583171 1096.69799,303.220699 C1093.27687,304.931808 1089.54004,305.871048 1085.73764,305.975544 C1085.73764,305.975544 1076.50565,308.513472 1072.90138,307.906104 C1064.28064,306.409377 1065.52422,303.220699 1065.52422,303.220699 Z"/><path id="Path" fill="#64F79F" d="M1064.87203,301 C1064.87203,301 1041.9282,306.247795 1043.03908,309.144578 C1044.14995,312.04136 1060.27899,315.58887 1066.66652,314.917152 C1073.05404,314.245434 1083.5219,308.032045 1086,305.513104 C1086,305.471121 1067.24332,306.121848 1064.87203,301 Z"/><path id="Path" fill="#F29A9D" d="M1086.3183,310.606338 C1086.81324,308.60647 1088.85486,304.415258 1091.39142,306.627878 C1095.08284,309.840431 1091.92761,320.392926 1086.91635,319.988697 C1083.16306,319.66957 1086.02959,311.670098 1086.3183,310.606338 Z"/><path id="Path" fill="#F6AF42" d="M1175.37967,365 C1175.37967,365 1287.88609,420.713364 1304.07468,489.04511 C1327.62951,588.708941 1127.69185,668.568327 1106,433.780875 L1119.53332,428.583813 C1119.53332,428.583813 1211.97531,528.589836 1220.17667,489.879207 C1221.93257,481.431307 1174.52313,465.497927 1170.58305,460.386412 C1142.61705,424.306395 1167.73506,369.04216 1175.37967,365 Z"/><path id="Path" fill="#F29A9D" d="M1120,428.252186 C1120,428.252186 1117.78903,412.107099 1113.1681,412.000741 C1108.54717,411.894384 1102.57755,423.253378 1106.02667,433.421167 C1107.90599,438.930492 1120,428.252186 1120,428.252186 Z"/><path id="Path" fill="url(#linearGradient-19)" d="M1304.06207,488.290952 C1297.12455,459.085511 1272.45779,432.184078 1246.54913,411 C1301.25708,489.826957 1276.07644,532.813782 1222.09649,532.813782 C1166.55346,532.813782 1124.24312,466.936206 1113.40859,441.997448 C1111.98748,438.592547 1110.1384,435.381102 1107.90568,432.440079 L1106,433.165415 C1127.69047,667.363612 1327.70105,587.704652 1304.06207,488.290952 Z"/></g></g></svg>