<svg xmlns="http://www.w3.org/2000/svg" xmlns:xlink="http://www.w3.org/1999/xlink" width="425.762" height="525.672"><style><![CDATA[.B{fill:#263238}.C{fill:#455a64}.D{fill:#fff}.E{fill:#f8951d}.F{opacity:.3}.G{fill:#ffbe9d}.H{fill:#eb996e}]]></style><path d="M354.728 86.6l7.258-12.793c-9.32-15.052-5.62-34.727 8.53-45.368s34.077-8.734 45.952 4.396 11.777 33.15-.227 46.162-31.95 14.723-45.993 3.944h0z" class="D"/><g class="B"><path d="M354.728 86.6l15.448-3.788-.083.236c-.06-.052-.064-.142-.01-.2s.142-.064.2-.01c4.753 3.637 10.377 5.964 16.3 6.75 1.78.24 3.576.322 5.37.248.92 0 1.853-.083 2.81-.165l2.856-.437a34.73 34.73 0 0 0 11.388-4.508c3.797-2.354 7.097-5.43 9.713-9.05a33.61 33.61 0 0 0 5.688-13.1 34.38 34.38 0 0 0-.413-15.012c-1.27-5.133-3.752-9.888-7.234-13.867-3.528-4.083-7.978-7.267-12.982-9.288-4.8-1.91-9.966-2.715-15.118-2.36-4.867.323-9.604 1.71-13.878 4.06A34.33 34.33 0 0 0 358.67 45.86c-1.06 3.568-1.57 7.278-1.51 11 .14 5.96 1.85 11.776 4.957 16.863.03.047.03.106 0 .153L354.728 86.6l7.08-12.864v.15a34 34 0 0 1-5.087-17.013c-.06-3.775.462-7.537 1.546-11.153 1.267-4.044 3.267-7.82 5.9-11.14a34.97 34.97 0 0 1 10.434-8.922c4.357-2.416 9.192-3.842 14.162-4.177a34.91 34.91 0 0 1 15.342 2.36 34.47 34.47 0 0 1 13.229 9.446c3.547 4.067 6.07 8.923 7.364 14.162 1.265 5.022 1.4 10.26.4 15.342-.967 4.785-2.947 9.308-5.806 13.265a34.72 34.72 0 0 1-21.548 13.661l-2.89.437c-.968.07-1.912.094-2.844.153a31.64 31.64 0 0 1-5.417-.283c-6.028-.812-11.73-3.215-16.522-6.963l.224-.212c.058.063.058.16 0 .224h0z"/><use xlink:href="#B"/><use xlink:href="#B" x="11.849"/><path d="M405.605 53.707a2.94 2.94 0 0 1-4.354 3.776 2.94 2.94 0 0 1 2.563-5.162 2.95 2.95 0 0 1 1.791 1.386z"/></g><path d="M227.904.39h-34.986c-2.303.048-4.492 1-6.083 2.675s-2.454 3.895-2.398 6.198V15.6c.053 2.3-.812 4.527-2.403 6.19s-3.778 2.623-6.078 2.67H87.83c-2.3-.05-4.488-1.015-6.08-2.68s-2.455-3.892-2.402-6.194v-6.4c.098-4.78-3.684-8.742-8.463-8.866h-42.88C12.824.314.51 12.6.493 27.792L.41 468.9c-.004 7.292 2.9 14.287 8.045 19.445s12.148 8.055 19.44 8.055l199.9.112c15.2 0 27.506-12.3 27.513-27.5L255.4 27.9C255.388 12.718 243.087.406 227.904.39z" class="D"/><path d="M227.904.4h.952a21.27 21.27 0 0 1 2.8.224 25.85 25.85 0 0 1 10.3 3.6 25.86 25.86 0 0 1 6.27 5.094 27.26 27.26 0 0 1 5.248 8.2 28.52 28.52 0 0 1 2.057 11.2v12.965l.1 155.157v271.3a29.49 29.49 0 0 1-1.05 8.4 28.08 28.08 0 0 1-3.513 7.753c-1.592 2.382-3.52 4.522-5.724 6.353a27.99 27.99 0 0 1-15.842 6.185c-5.766.168-11.5 0-17.283.07h-35l-147.25-.07a29.1 29.1 0 0 1-17.913-4.94c-5.237-3.65-9.08-8.968-10.9-15.086a30.44 30.44 0 0 1-1.154-9.365V28.226c0-1.12.084-2.24.154-3.345.08-1.107.268-2.204.56-3.275A28.13 28.13 0 0 1 6.692 9.949c2.788-3.272 6.273-5.88 10.2-7.627A29.22 29.22 0 0 1 29.125.009h41.158a8.72 8.72 0 0 1 5.4 1.511c1.56 1.076 2.742 2.62 3.373 4.408a15.1 15.1 0 0 1 .56 5.444v2.677a17.87 17.87 0 0 0 .084 2.617 8.69 8.69 0 0 0 2.043 4.6 8.27 8.27 0 0 0 4.2 2.617 9.8 9.8 0 0 0 2.477.238h88.46a8.13 8.13 0 0 0 3.359-1.19 8.72 8.72 0 0 0 3.848-5.6c.193-1.104.268-2.225.224-3.345v-3.114a18.92 18.92 0 0 1 .154-3.2 8.86 8.86 0 0 1 1.036-2.939 8.81 8.81 0 0 1 4.394-3.9 13.7 13.7 0 0 1 5.472-.574L213.14.3h10.972l-10.97.16-17.773.03a13.55 13.55 0 0 0-5.374.588 8.4 8.4 0 0 0-4.2 3.779 9.11 9.11 0 0 0-.994 2.8 18.18 18.18 0 0 0-.126 3.163v3.3a16.33 16.33 0 0 1-.2 3.415c-.5 2.372-1.94 4.442-3.988 5.738a8.27 8.27 0 0 1-3.5 1.246c-1.273.112-2.5 0-3.778 0H88.434a9.58 9.58 0 0 1-2.59-.266 8.6 8.6 0 0 1-4.45-2.8 9.22 9.22 0 0 1-2.17-4.633c-.1-.893-.12-1.8-.084-2.687v-2.7a14.15 14.15 0 0 0-.529-5.276 8.62 8.62 0 0 0-3.191-4.2A8.23 8.23 0 0 0 70.297.559H29.125a28.48 28.48 0 0 0-12.007 2.25 27.99 27.99 0 0 0-9.978 7.515 27.43 27.43 0 0 0-5.6 11.406c-.28 1.05-.364 2.14-.546 3.2a21.32 21.32 0 0 0-.154 3.289v439.2c-.104 3.066.27 6.13 1.106 9.082a27.43 27.43 0 0 0 10.566 14.719 28.31 28.31 0 0 0 17.465 4.814l199.44-.07a27.05 27.05 0 0 0 15.394-6c2.15-1.785 4.037-3.867 5.6-6.185a26.97 26.97 0 0 0 3.415-7.543 28.42 28.42 0 0 0 1.036-8.2v-41.27l.28-398.256a28.27 28.27 0 0 0-2.015-11.07c-1.183-2.95-2.876-5.67-5-8.033a25.92 25.92 0 0 0-6.214-5.08A26.2 26.2 0 0 0 231.627.709a22.28 22.28 0 0 0-2.8-.252zm5.276 50.48c0 .112-4.534.252-10.146.294s-10.16 0-10.16-.126 4.548-.252 10.16-.308 10.146.014 10.146.14zm.043 5.192c0 .112-4.534.252-10.146.294s-10.146 0-10.16-.126 4.548-.257 10.16-.294 10.146.056 10.146.126zm.042 5.19c0 .126-4.534.252-10.146.294s-10.146 0-10.146-.126 4.534-.252 10.146-.294 10.146.014 10.146.126zM28.552 67.355h1.6l4.338-.1-.132.123v-4.95c.108-.724.676-1.292 1.4-1.4h2.07a1.71 1.71 0 0 1 1.4 1.68v4.6l-.2-.2H44.5l-.112.1v-8.552a1.79 1.79 0 0 0-.84-1.246l-2.393-2.35-3.428-3.387a2.64 2.64 0 0 0-1.134-.84 1.4 1.4 0 0 0-1.246.238c-.336.28-.686.672-1.022 1.008l-1.958 1.974L28.9 57.6a3.85 3.85 0 0 0-.28 2.029v5.148l-.084-3.12v-3.05a2.21 2.21 0 0 1 .294-1.134c1.027-1.245 2.227-2.336 3.472-3.666l1.75-2.015 1.05-1.05c.45-.36 1.04-.5 1.6-.35a2.9 2.9 0 0 1 1.3.938l1.134 1.092 2.3 2.3 2.4 2.346a4 4 0 0 1 .616.658 1.75 1.75 0 0 1 .28.924v8.76h-5.808v-4.78c.053-.684-.43-1.293-1.106-1.4h-1.973a1.4 1.4 0 0 0-1.19 1.064v5h-5.68a1.54 1.54 0 0 1-.42.042z" class="B"/><circle cx="127.403" cy="376.941" fill="#e8505b" r="31.404"/><path d="M113.646 382.063l5.6-1.316a1.54 1.54 0 0 0 1.176-1.5V378.1s-.238-1.96 1.61-2.085c1.4-.084 9.8 0 9.8 0s2.21 0 2.183 1.707v1.68a1.3 1.3 0 0 0 .924 1.246l6.073 1.833c.606.156 1.238-.137 1.51-.7l.77-1.875c.143-.346.21-.718.2-1.092a5.25 5.25 0 0 0-1.05-2.8c-1.2-1.54-6.87-5.192-17.7-4.674-10.314.5-12.595 4.856-13.14 5.892a4.31 4.31 0 0 0-.2 2.9c.1.252.28.658.448 1.064.3.7 1.07 1.07 1.805.868z" class="D"/><circle cx="67.231" cy="209.706" r="23.231" class="C"/><g class="D"><path d="M67.23 214.926a4.2 4.2 0 0 1-4.2-4.2v-9.138a4.2 4.2 0 0 1 6.3-3.637 4.2 4.2 0 0 1 2.1 3.637v9.138a4.2 4.2 0 0 1-4.2 4.2zm0-16.625a3.3 3.3 0 0 0-3.3 3.3v9.138a3.32 3.32 0 0 0 3.31 3.094 3.32 3.32 0 0 0 3.31-3.094V201.6a3.32 3.32 0 0 0-3.319-3.3z"/><path d="M67.23 217.865a7.57 7.57 0 0 1-5.878-2.323c-2.66-2.953-2.24-7.585-2.21-7.78.023-.24.236-.415.476-.392s.415.236.392.476c0 0-.406 4.45 2 7.11a6.73 6.73 0 0 0 5.22 1.973 7 7 0 0 0 5.3-2.029c2.56-2.673 2.42-7.08 2.42-7.137a.42.42 0 0 1 .42-.448.45.45 0 0 1 .448.42c.09 2.826-.857 5.588-2.66 7.767-1.55 1.594-3.707 2.454-5.93 2.365z"/><path d="M67.23 224.29c-.118 0-.23-.048-.312-.132s-.126-.198-.122-.316v-6.4a.45.45 0 0 1 .687-.453.45.45 0 0 1 .195.453v6.41a.45.45 0 0 1-.448.448z"/></g><circle cx="127.231" cy="209.706" r="23.231" class="C"/><g class="D"><circle cx="120.878" cy="209.734" r="2.701"/><circle cx="127.231" cy="209.734" r="2.701"/><circle cx="133.571" cy="209.734" r="2.701"/><path d="M123.58 203.283a2.7 2.7 0 1 1-2.7-2.7 2.7 2.7 0 0 1 2.7 2.7zm6.352 0c.006 1.1-.653 2.096-1.67 2.52s-2.187.193-2.966-.586-1-1.95-.586-2.966 1.42-1.675 2.52-1.67c1.488.008 2.692 1.212 2.7 2.7zm6.354 0c.006 1.1-.652 2.094-1.666 2.52s-2.184.196-2.964-.58-1.015-1.944-.595-2.96 1.4-1.68 2.5-1.68c1.494 0 2.707 1.206 2.715 2.7z"/><circle cx="120.878" cy="216.13" r="2.701"/><circle cx="127.231" cy="216.13" r="2.701"/><circle cx="133.571" cy="216.13" r="2.701"/></g><circle cx="187.232" cy="209.706" r="23.231" class="C"/><path d="M176.316 206.67v5.5c0 .24.194.434.434.434h3.107a.42.42 0 0 1 .252.084l4.733 3.697a.42.42 0 0 0 .686-.336V203.2a.42.42 0 0 0-.672-.35l-4.576 3.3a.49.49 0 0 1-.252 0h-3.22a.42.42 0 0 0-.49.518zm17.94 12.33a.49.49 0 0 1-.35-.14.53.53 0 0 1 0-.756 12.6 12.6 0 0 0 3.723-9.068 12.34 12.34 0 0 0-3.68-7.7.53.53 0 0 1 .7-.784c2.33 2.2 3.77 5.2 4.044 8.4a13.45 13.45 0 0 1-4 9.8.49.49 0 0 1-.436.248zm-2.94-2.605a.5.5 0 0 1-.378-.168.53.53 0 0 1 0-.756 7.74 7.74 0 0 0 2.8-5.7 9.56 9.56 0 0 0-2.8-6.172c-.166-.213-.15-.515.034-.7s.486-.227.708-.073c1.895 1.854 3.024 4.352 3.163 7-.086 2.5-1.236 4.867-3.163 6.48a.55.55 0 0 1-.364.1zm-2.588-2.672a.5.5 0 0 1-.378-.168.53.53 0 0 1 0-.756c3.275-3.233.112-6.9 0-7-.197-.22-.178-.56.043-.757s.56-.178.757.043c0 0 3.974 4.576 0 8.537a.56.56 0 0 1-.42.1z" class="D"/><circle cx="23.231" cy="23.231" transform="matrix(.123 -.992 .992 .123 40.999 304.189)" r="23.231" class="C"/><g class="D"><path d="M67.038 291.995a.7.7 0 0 1-.7-.714V276.63a.7.7 0 0 1 .7-.714c.394 0 .714.32.714.714v14.652c0 .394-.32.714-.714.714z"/><path d="M74.007 284.658H59.79c-.38-.014-.68-.326-.68-.707s.3-.692.68-.707h14.218c.394 0 .714.32.714.714a.7.7 0 0 1-.714.7z"/></g><circle cx="23.231" cy="23.231" transform="matrix(.123 -.992 .992 .123 161.999 304.191)" r="23.231" class="C"/><path d="M189.493 284.244a4.49 4.49 0 0 0 2.687-4.2 4.2 4.2 0 0 0-8.4 0c-.03 1.816 1.036 3.472 2.7 4.2-6.507.994-6.214 8.06-6.214 8.06h15.394s.284-7.085-6.167-8.06z" fill="#ebebeb"/><circle cx="23.231" cy="23.231" transform="matrix(.123 -.992 .992 .123 100.999 304.184)" r="23.231" class="C"/><g fill="#ebebeb"><rect width="10.552" height="10.552" rx="2.09" x="119.313" y="278.685"/><path d="M130.83 285.837v-3.583l2.66-2.8c.16-.173.41-.23.63-.143s.364.3.363.535v8.13c0 .23-.135.436-.345.527s-.454.05-.62-.107z"/></g><path d="M367.333 474.786l14.84 26.438 17.743 17.553a3.12 3.12 0 0 1-.127 4.55h0a3.13 3.13 0 0 1-2.763.7c-6.248-1.47-29.15-7-30.176-8.986-1.128-2.32-17.5-26.894-17.5-26.894z" class="E"/><path d="M399.82 523.377l-33.978-10.05.646 1.1a4.78 4.78 0 0 0 2.484 2c2.8.963 10.633 3.473 27.984 7.6a3.11 3.11 0 0 0 2.84-.748zm-33.598-21.66a1.9 1.9 0 0 1 1.7 1.863 1.8 1.8 0 0 1-1.825 1.686c-1.012-.098-1.785-.947-1.787-1.964a1.9 1.9 0 0 1 2.129-1.559" opacity=".6" class="D"/><path d="M387.108 515.48a9.3 9.3 0 0 1 1.09-3.384c1.065-1.686 2.725-2.167 2.66-2.357s-.456-.076-1.128.2a4.99 4.99 0 0 0-2.09 1.8 4.74 4.74 0 0 0-.811 2.649c.01.7.203 1.127.28 1.102zm3.93 2.4a27.02 27.02 0 0 1 1.648-2.535c1.128-1.267 2.408-1.648 2.357-1.838a4.35 4.35 0 0 0-4 4.334zm-10.05-4.842c.667-1.393 1.433-2.736 2.294-4.018a28.68 28.68 0 0 1 3.346-3.194 6.88 6.88 0 0 0-3.878 2.776 7 7 0 0 0-1.762 4.436zm-5.184-7.68c.165.114 1.267-1.267 3.092-2.535s3.6-1.6 3.55-1.8a5.93 5.93 0 0 0-3.916 1.267 6.11 6.11 0 0 0-2.725 3.068zm-4.553-7.653a15.45 15.45 0 0 1 3.143-2.712 15.45 15.45 0 0 1 3.98-1.179c0-.076-.47-.24-1.267-.228a6.58 6.58 0 0 0-3.029.824c-.93.505-1.727 1.223-2.327 2.095-.445.667-.572 1.16-.5 1.2zm2.246-4.094a2.8 2.8 0 0 0-.558-1.014c-.622-.85-1.405-1.568-2.306-2.114a3.56 3.56 0 0 0-2.167-.672c-.52.063-.95.44-1.077.95-.08.497.023 1.006.3 1.432a4.4 4.4 0 0 0 5.386 1.419 5.07 5.07 0 0 0 2.953-4.841 1.75 1.75 0 0 0-.672-1.267 1.27 1.27 0 0 0-1.445.089 4.59 4.59 0 0 0-1.191 1.914 8.87 8.87 0 0 0-.583 3.08c0 .748.1 1.153.14 1.14a13.85 13.85 0 0 1 .887-4.043 3.96 3.96 0 0 1 1.077-1.635.66.66 0 0 1 .786-.063c.243.232.385.55.393.887a4.55 4.55 0 0 1-2.636 4.182 3.8 3.8 0 0 1-4.588-1.267c-.2-.288-.287-.64-.24-1a.66.66 0 0 1 .583-.532c.654-.014 1.297.176 1.838.545a12.13 12.13 0 0 1 3.13 2.8z" class="B"/><path d="M335.5 486.433l-6.02 21.7s20.037 13.358 19.315 17.528l-42.508-10.14 8-34.22z" class="E"/><path d="M316.768 503.15c-.9.057-1.63.8-1.673 1.7.027.913.76 1.646 1.673 1.673.963-.058 1.725-.836 1.762-1.8-.118-.953-.968-1.64-1.925-1.56m-10.318 12.344l.938-3.422 40.4 11.04s1.7 1.267 1.166 2.535z" opacity=".6" class="D"/><path d="M330.214 508.092c0 .2-1.115 0-2.294.47s-1.94 1.166-2.1 1.04.418-1.267 1.863-1.736 2.62.05 2.53.228zm4.02 2.903c0 .215-.976.355-1.9 1.065s-1.33 1.584-1.546 1.534 0-1.267 1.1-2.13 2.397-.66 2.346-.47zm1.254 5.945c-.2 0-.24-1.1.57-2.117s1.876-1.267 1.926-1.027-.7.66-1.343 1.5-.938 1.682-1.153 1.644zm-4.447-13.955c-.127.177-1.014-.342-2.205-.545s-2.193 0-2.256-.253 1-.735 2.383-.47 2.217 1.127 2.078 1.267z" class="B"/><path d="M334.31 490.73l-1.073 3.865-20.84-5.183 1.04-4.512z" class="F"/><g class="B"><path d="M332.217 498.587a3.99 3.99 0 0 1-2.129-.52 10.14 10.14 0 0 1-2.066-1.267 11.99 11.99 0 0 1-1.065-.938 2.65 2.65 0 0 1-.52-.659.94.94 0 0 1 .165-1.128 1.18 1.18 0 0 1 1.027-.253c.27.06.532.16.773.3.444.215.868.47 1.267.76a7.77 7.77 0 0 1 1.648 1.762c.773 1.153.925 2 .836 2.028s-.43-.7-1.267-1.71a8.1 8.1 0 0 0-1.648-1.521 8.87 8.87 0 0 0-1.128-.672c-.418-.228-.8-.317-.963-.152s-.076.1 0 .253a2.7 2.7 0 0 0 .38.482 12.01 12.01 0 0 0 2.839 2.193 15.97 15.97 0 0 1 1.851 1.043z"/><path d="M331.837 498.815c-.258-.7-.285-1.464-.076-2.18a7.3 7.3 0 0 1 .849-2.269c.25-.414.54-.805.862-1.166a1.8 1.8 0 0 1 1.61-.748 1.05 1.05 0 0 1 .748.811c.044.277.044.56 0 .837-.04.49-.152.973-.33 1.432a5.07 5.07 0 0 1-1.445 1.977c-1.1.9-2.015.95-2.015.874.6-.36 1.156-.784 1.66-1.267a5.07 5.07 0 0 0 1.153-1.838c.145-.408.23-.835.253-1.267 0-.47 0-.874-.215-.874-.365.033-.698.223-.913.52a7.38 7.38 0 0 0-.811 1.027 8.2 8.2 0 0 0-.913 2.028c-.328 1.28-.303 2.103-.417 2.103z"/><path d="M341.875 244.275c5.734 16.616 9.304 33.902 10.62 51.43 2.028 27.958-15.094 203.376-15.094 203.376l-33.5-6.045 11.3-92.012c3.8-29.733-11.3-133.8-11.3-133.8l35.486-22.94"/><path d="M264.338 252.183s-7.1 30.417 8.694 63.534c9.493 19.885 79.464 187 79.464 187L381.405 488l-70.732-222.436z"/></g><path d="M355.03 405.258c-.2 0-9.1-26.792-19.923-59.972l-19.213-60.2c.152-.063 9.1 26.792 19.9 59.985l19.226 60.187zm-2.534 97.465c-.165.076-14.258-32.774-31.47-73.37l-30.848-73.65c.177-.063 14.246 32.72 31.457 73.38l30.86 73.64zm-38.426-222.57a26.86 26.86 0 0 1-2.535-1.546c-2.057-1.166-4.207-2.162-6.426-2.978l-3.688-1.394a30.97 30.97 0 0 0-3.029-1 13.28 13.28 0 0 0-2.927-.268c.95-.396 2.007-.462 3-.2a20.6 20.6 0 0 1 3.13.875l3.726 1.33a31.2 31.2 0 0 1 6.464 3.18c.876.52 1.65 1.193 2.285 2zm17.514-17.49a56.44 56.44 0 0 1-4.765 5.931 58.3 58.3 0 0 1-5.069 5.729 35.32 35.32 0 0 1 4.512-6.159 34.85 34.85 0 0 1 5.323-5.5zm-52.8.67c.222 1.017.175 2.074-.14 3.067a10.14 10.14 0 0 1-4.334 5.957 12.46 12.46 0 0 1-7.211 1.546 11.35 11.35 0 0 1-3.03-.37c1.005-.12 2.018-.154 3.03-.1a13.43 13.43 0 0 0 6.818-1.6c2.004-1.3 3.5-3.252 4.233-5.526.583-1.785.507-2.964.634-2.964zm65.08-5.348c-2.965-.808-5.4-2.907-6.654-5.716.165-.1 1.267 1.546 3.118 3.105s3.624 2.433 3.536 2.6z" class="C"/><path d="M323.587 111.568a7.82 7.82 0 0 1 6.337 4.119c.668 1.585 1.198 3.224 1.584 4.9.38 1.705 1.45 3.177 2.953 4.068 1.356.66 2.966.482 4.448.773 3.642.837 6.092 4.254 5.716 7.972-.143.475-.143.982 0 1.457.17.296.42.54.722.7 2.015 1.267 4.727 1 6.527 2.535 1.14 1.088 1.845 2.55 2 4.12.442 2.98-.14 6.023-1.648 8.63a7.9 7.9 0 0 1-2.256 2.636c-1.45.832-3.093 1.27-4.765 1.267-5.614.482-11.584-.786-15.79-4.588-5.564-4.94-14.43-23.647-15.41-31z" class="B"/><path d="M282.17 131.555l-19.923 9.556 14.2 59.82s-8.4 24.65-11.216 38.237l-2.884 13.65c28.58 19.454 57.995 16.932 82.164-7.934l-12.62-28.82 10.6-41.507-28.027-45.815-6.907-.368z" class="E"/><path d="M266.986 235.594c.583-1.2 12.09-11.128 13.295-11.7 17.338-8.365 27.882-.494 47.248 1.052.507 0 0 .393.507.43 2.193.2 5.55-.99 7.73-.672l1.267 3.8c-13.03 5.2-28.136.684-41.6 4.613-3.942 1.153-7.693 3.016-11.75 3.688a5.4 5.4 0 0 0-3.244 1.191 10.72 10.72 0 0 0-1.039 1.66c-1.117 1.376-2.752 2.23-4.52 2.36-1.835.404-3.755.138-5.412-.748-1.647-1.01-3.282-4.002-2.484-5.675z" class="F"/><g class="G"><path d="M264.832 230.712c-1.014.29-.66 3.8 1.85 3.244 4.357-1.115 8.634-2.525 12.8-4.22l8.67-7.085 38.845 2.383L321 206.812s-40.24 3.8-45.917 6.11c-4.144 1.7-7.1 3.384-9.05 5.55"/><path d="M266.023 218.472c-.56.648-1.053 1.35-1.47 2.1-.558 1.065 1 2.47 1 2.47s-3.447 1.077-2.243 2.535 1.635 1.5 1.635 1.5-2.814 2.13-2.218 3.206 2.1.456 2.1.456"/></g><path d="M264.528 230.897c-.114-.14.874-1.18 2.535-1.825.932-.498 2-.646 3.042-.418a19.44 19.44 0 0 1-2.8 1.04c-.895.467-1.823.868-2.776 1.2zm3.778-5.317c0 .2-.773.43-1.686.836s-1.622.824-1.75.672.47-.836 1.483-1.267 1.925-.418 1.952-.24zm-.318-2.85c0 .076-.165.1-.342.165a4.08 4.08 0 0 1-.811.215 1.69 1.69 0 0 1-1.267-.127c-.063-.127.47-.418 1.153-.532a2.43 2.43 0 0 1 .9 0c.3.025.435.203.367.28z" class="H"/><path d="M314.475 128.742s16.945.444 23.5 13.358c3.282 6.438 11.85 28.516 14.854 37.82 2.028 6.337 8.77 37.945 1.14 41.076-9.8 4.018-26.982 4.64-26.97 4.64h0l-6.335-18.378a5.78 5.78 0 0 1 3.688-7.11h0l5.222 1.115 6.007-1.812-4.03-37.083-5.757-7.136z" class="E"/><path d="M298.505 143.494c.786 2.9 0 7.1.33 9.7 1.606 10.366 2.03 20.88 1.267 31.342-.1.566-.064 1.144.076 1.7a5.4 5.4 0 0 0 .824 1.331c1.942 2.937 2.682 6.507 2.066 9.974-.617 3.437-1.673 6.78-3.143 9.95 0-2.8.165-6.97.43-9.746 0-.558.33-.2.355-.748.14-3.346-.38-6.464-2.7-8.872-.488-.45-.914-.96-1.267-1.52a5.07 5.07 0 0 1-.431-1.787q-1.9-17.57-2.46-35.24c-.125-.67-.004-1.364.342-1.952.377-.35.805-.645 1.268-.87.9-.57 1.483-1.6 2.46-2.066" class="F"/><path d="M262.246 141.11s-12.073 4.88-9.518 25.348c1.255 9.987 7.245 37.134 13.586 52.748 3 7.363 9.974 12.5 17.87 11.57 3.447-.393 6.856.2 9.176-1.166 3.536-2.053 5.158-9.15 5.93-16.805.52-5.222.406-10.67 1.166-15.132 1.267-7.262-2.066-10.747-6.337-11.66l-16.73-3.574-1.1 8.872z" class="E"/><g class="B"><path d="M283.006 202.757a7.36 7.36 0 0 0 .951.836c.915.68 1.988 1.116 3.118 1.267a10.48 10.48 0 0 0 4.968-.634 15.84 15.84 0 0 0 5.4-3.016 9.4 9.4 0 0 0 2.864-5.323 9.2 9.2 0 0 0-.52-4.955c-.628-1.447-1.517-2.766-2.623-3.89a3.31 3.31 0 0 1 1.039.786 8.87 8.87 0 0 1 2.015 2.928 9.3 9.3 0 0 1 .7 5.234c-.33 2.192-1.392 4.207-3.016 5.716a15.84 15.84 0 0 1-5.652 3.105 10.52 10.52 0 0 1-5.26.52c-1.2-.208-2.297-.75-3.194-1.56-.625-.558-.828-1.002-.8-1.014z"/><path d="M265.377 216.697s.342.9 1.1 2.446a21.43 21.43 0 0 0 4.233 5.868 20.52 20.52 0 0 0 9.214 5.272 20.86 20.86 0 0 0 12.851-.722c2.167-.836 2.978-3.22 3.8-5.2.75-2 1.313-4.042 1.686-6.134.604-3.567 1.027-7.163 1.267-10.773l.646-7.3.2-2a2.7 2.7 0 0 1 .127-.684 3.72 3.72 0 0 1 0 .7 17.06 17.06 0 0 1-.089 1.99l-.418 7.325a99.78 99.78 0 0 1-1.09 10.849 34.64 34.64 0 0 1-1.686 6.261 23.94 23.94 0 0 1-1.457 3.13 5.68 5.68 0 0 1-2.7 2.433 21.18 21.18 0 0 1-13.295.71 20.87 20.87 0 0 1-13.523-11.622 17.26 17.26 0 0 1-.71-1.876 2.27 2.27 0 0 1-.156-.683zm6.488-12.234a17.79 17.79 0 0 1 .09-3.422l.7-8.2.47-4.512c.12-1.282.585-2.508 1.343-3.55a3.9 3.9 0 0 1 2.167-1.381 1.96 1.96 0 0 1 .938 0 2.74 2.74 0 0 0-.874.2 3.98 3.98 0 0 0-1.85 1.419c-1.267 1.622-1.166 4.664-1.534 7.832l-.887 8.187a17.25 17.25 0 0 1-.558 3.422zm-5.78-61.513a3.9 3.9 0 0 1 1.356.507 10.14 10.14 0 0 1 3 2.535 15.97 15.97 0 0 1 2.7 5.146c.7 2.08 1.166 4.436 1.7 6.87l2.636 12.534.722 3.8a6.92 6.92 0 0 1 .177 1.419 5.07 5.07 0 0 1-.431-1.356l-.938-3.8-2.822-12.496-1.635-6.818a16.3 16.3 0 0 0-2.535-5.07 11.94 11.94 0 0 0-3.942-3.27zm76.448 80.96a5.93 5.93 0 0 1-1.1.215l-3.143.43-11.216 1.37h-.23l-.076-.228-2-6.6-2.193-7.325-1.065-2.877-.57-1.38c-.234-.468-.4-.968-.494-1.483a11.71 11.71 0 0 1 0-2.978c.163-1.005.76-1.886 1.635-2.408a5.36 5.36 0 0 1 2.661-.811 8.25 8.25 0 0 1 2.535.532 15.9 15.9 0 0 0 2.193.608 9.43 9.43 0 0 0 2.066 0c1.205-.155 2.4-.435 3.536-.836.882-.3 1.796-.475 2.722-.55a8.11 8.11 0 0 1 1.774.127c.207.027.4.083.6.165a17.92 17.92 0 0 0-2.345 0 11.85 11.85 0 0 0-2.661.634 17.39 17.39 0 0 1-3.6.951 9.06 9.06 0 0 1-2.193 0 13.94 13.94 0 0 1-2.294-.6 7.77 7.77 0 0 0-2.332-.456 4.59 4.59 0 0 0-2.319.735 2.81 2.81 0 0 0-1.343 2.015c-.114.926-.114 1.862 0 2.788a4.8 4.8 0 0 0 .456 1.267l.57 1.407 1.1 2.9 2.18 7.363 1.94 6.6-.317-.2 11.242-1.128 3.156-.266a6.35 6.35 0 0 1 1.137.03z"/><path d="M344.524 201.274c0-.076.52 0 1.2.406a6.23 6.23 0 0 1 2.078 2.193 8.3 8.3 0 0 1 1.381 3.954 31.68 31.68 0 0 1-1.952-3.612 8.77 8.77 0 0 0-1.774-2.155c-.557-.457-.962-.685-.924-.786zm-13.5 0a7.11 7.11 0 0 1-.063-1.686 38.5 38.5 0 0 1 .291-4.689c.393-3.954 1.774-9.277 2.46-15.2a34.12 34.12 0 0 0-1.267-15.12 26.78 26.78 0 0 0-2.94-5.6 1.77 1.77 0 0 1 .33.3 11.41 11.41 0 0 1 .811.989 17.82 17.82 0 0 1 2.243 4.144c1.546 3.7 2.205 9.328 1.52 15.348-.33 3.016-.9 5.843-1.407 8.4l-1.267 6.818a52.51 52.51 0 0 0-.494 4.626 9.85 9.85 0 0 1-.215 1.673z"/></g><path d="M332.953 165.534l1.964 7.02a33.42 33.42 0 0 1 1.508 7.6c.015 2.177-.18 4.35-.583 6.49l-1.153 7.39c-.405 2.46.368 4.525-1.1 6.628l-2.535.444c.353-10.904 4.65-25.004 2.038-35.584" class="F"/><path d="M322.852 142.683c.993 1.997 1.816 4.074 2.46 6.2a64.63 64.63 0 0 1 2.193 6.337c-1.235-1.87-2.188-3.9-2.826-6.058a29.4 29.4 0 0 1-1.826-6.489z" class="B"/><path d="M278.304 180.463a7.6 7.6 0 0 0-4.3 1.381c-2.796 1.875-4.835 4.682-5.754 7.92a16.59 16.59 0 0 0 .3 9.835c.33.99.99 2.1 2.015 2.078 1.267 0 1.736-1.546 1.926-2.75l1.546-10.038a9.4 9.4 0 0 1 .938-3.3 3.18 3.18 0 0 1 2.738-1.724l.368-3.574" class="F"/><path d="M275.833 166.205c0 .076-1.267.3-3.3.925a52.28 52.28 0 0 0-7.6 3.168c-2.9 1.407-5.412 2.928-7.2 4.018l-2.143 1.268a4.25 4.25 0 0 1-.81.444 4.12 4.12 0 0 1 .722-.52l2.078-1.42c2.318-1.516 4.716-2.904 7.186-4.157a44.18 44.18 0 0 1 7.706-3.067 20.28 20.28 0 0 1 2.459-.558 4.41 4.41 0 0 1 .914-.102zm1.735 7.465a3.92 3.92 0 0 1-.874.317l-2.408.8a76.34 76.34 0 0 0-7.744 3.18c-2.52 1.2-4.96 2.567-7.3 4.094l-2.1 1.445c-.24.196-.5.37-.773.52.216-.228.444-.444.684-.646.456-.396 1.14-.94 2.016-1.56a52.1 52.1 0 0 1 7.237-4.22c2.535-1.2 5.152-2.238 7.832-3.08l2.46-.684a4.75 4.75 0 0 1 .962-.166zm66.474-16.55c-.6.205-1.232.37-1.863.494a36.92 36.92 0 0 0-4.423 1.415c-1.46.55-2.886 1.184-4.27 1.9a13.11 13.11 0 0 1-1.71.874 7.15 7.15 0 0 1 1.572-1.128 27.25 27.25 0 0 1 4.207-2.046 26.03 26.03 0 0 1 4.512-1.267c.643-.178 1.3-.26 1.977-.24zm3.993 9.224c0 .076-.824 0-2.13.114a21.29 21.29 0 0 0-4.968 1.027 72.11 72.11 0 0 0-6.629 2.954c.548-.46 1.148-.857 1.787-1.18a26.41 26.41 0 0 1 4.715-2.129c1.635-.556 3.343-.868 5.07-.925a11.05 11.05 0 0 1 1.572 0 1.87 1.87 0 0 1 .583.14z" fill="#fafafa"/><g class="B"><path d="M318.9 68.92c4.64 2.535 6.856 8.25 6.337 11.8-.29 1.8-.95 3.625-.47 5.374.605 1.446 1.463 2.772 2.535 3.916 3.11 4.39 3.11 10.262 0 14.65-3.27 4.235-8.85 5.96-13.94 4.308"/><path d="M323.347 91.762c8.87-24.5-17.604-34.45-31.28-29.444-12.85 4.702-17.96 11.66-19.416 20.67s-.672 18.466 3.41 26.615c2.015 4 5.386 7.96 9.86 8.137"/></g><path d="M287.39 139.92l-6.337-58.97c-.222-2.313 1.364-4.412 3.65-4.83l23.216-7.78c7.516-1.38 13.27 7.6 14.334 15.21 1.166 8.428 2.27 18.744 1.752 25.132-1.052 12.838-10.66 15.208-10.66 15.208l1.394 21.672c.034.818-.33 1.603-.976 2.106s-1.496.663-2.28.43z" class="G"/><path d="M320.04 92.025a1.62 1.62 0 0 1-1.419 1.762c-.406.073-.823-.02-1.16-.258a1.53 1.53 0 0 1-.627-1.01 1.62 1.62 0 0 1 1.445-1.812 1.56 1.56 0 0 1 1.762 1.318zm-16.6 1.255a1.62 1.62 0 0 1-1.419 1.762 1.55 1.55 0 0 1-1.157-.262 1.54 1.54 0 0 1-.63-1.005 1.62 1.62 0 0 1 1.407-1.762 1.55 1.55 0 0 1 1.165.257c.338.237.567.602.635 1zm16.678-4.816c-.177.24-1.508-.532-3.244-.342s-2.928 1.2-3.143 1.014 0-.482.57-.95a4.43 4.43 0 0 1 2.535-1.077c.9-.103 1.83.088 2.623.545.534.405.748.7.66.8zM303.55 90.15c-.2.228-1.5-.6-3.244-.47s-2.966 1.1-3.18.9.1-.494.62-.938a4.41 4.41 0 0 1 2.535-.976 4.25 4.25 0 0 1 2.6.634c.543.383.758.747.67.85zm7.022 13.028c.898-.363 1.84-.6 2.8-.735.444-.076.862-.2.913-.507a2.28 2.28 0 0 0-.406-1.267l-1.57-3.308a59.34 59.34 0 0 1-3.65-8.669c.2-.1 2.13 3.65 4.334 8.365l1.534 3.32a2.62 2.62 0 0 1 .355 1.736 1.04 1.04 0 0 1-.684.71 2.7 2.7 0 0 1-.748.165 11.56 11.56 0 0 1-2.877.19z" class="B"/><path d="M313.348 123.8c-5.968.54-11.97-.582-17.338-3.244 0 0 4.968 8.5 17.578 6.337zm-3.208-16.35c-.74-.802-1.844-1.162-2.915-.95a2.85 2.85 0 0 0-1.9 1.267 1.82 1.82 0 0 0 0 2.09c.624.604 1.554.765 2.345.406a6.5 6.5 0 0 0 2.129-1.5c.2-.155.35-.344.47-.558a.62.62 0 0 0 0-.659" class="H"/><path d="M305.503 104.775c.3 0 .43 1.863 2.167 3.092s3.74.862 3.8 1.128-.418.406-1.267.494a4.78 4.78 0 0 1-3.143-.836 4.1 4.1 0 0 1-1.686-2.535c-.176-.85.002-1.343.13-1.343zm-1.725-17.225c-.127.482-1.9.393-3.93.8s-3.663 1.1-3.967.684c-.14-.2.127-.672.76-1.18a6.75 6.75 0 0 1 2.877-1.267 6.55 6.55 0 0 1 3.13.139c.787.24 1.196.582 1.13.823zm15.615-3.522c-.28.418-1.52.1-2.978.2s-2.65.47-2.966.076 0-.608.532-1.027c.68-.518 1.503-.8 2.357-.836a4.15 4.15 0 0 1 2.42.62c.545.368.786.76.634.976z" class="B"/><path d="M284.476 97.41c-.2-.076-7.02-2.535-6.514 5.07s8.022 5.538 8.022 5.323-1.508-10.393-1.508-10.393z" class="G"/><path d="M283.475 105.092c-.11.083-.223.16-.342.228-.306.16-.663.186-.99.076-1.04-.568-1.695-1.653-1.71-2.84-.06-.648.022-1.3.24-1.914a1.57 1.57 0 0 1 .938-1.09c.308-.096.642.036.8.317.114.2.076.368.114.368s.165-.14.076-.444c-.053-.186-.17-.347-.33-.456a1.05 1.05 0 0 0-.748-.152c-.606.186-1.08.66-1.267 1.267a4.55 4.55 0 0 0-.317 2.142c-.017 1.396.813 2.663 2.1 3.206a1.46 1.46 0 0 0 1.2-.279c.235-.24.26-.42.235-.43z" class="H"/><g class="B"><path d="M310.154 64.32c4.4 1.863 6.793 10.38 5.374 14.93s-5.957 7.072-10.532 8.453a28.15 28.15 0 0 1-13.789.9c-.09 3.105-1.7 6.413-4.626 7.452-3.878 1.38-8.137-1.94-9.328-5.88s-.177-8.175.836-12.154"/><path d="M278.735 94.395a5.7 5.7 0 0 0 .621.507 20.28 20.28 0 0 0 1.85 1.191 10.61 10.61 0 0 0 3.067 1.2c1.348.315 2.76.185 4.03-.368 1.242-.612 2.246-1.62 2.852-2.864a8.53 8.53 0 0 0 .849-3.181c.068-.733.068-1.472 0-2.205-.01-.274-.067-.544-.165-.8-.09 0 .1 1.153-.1 2.966-.11 1.058-.42 2.086-.913 3.03-.576 1.155-1.516 2.1-2.674 2.66-1.196.52-2.526.65-3.8.368-1.04-.222-2.047-.584-2.99-1.077l-2.626-1.427z"/></g><path d="M276.543 75.853a8.14 8.14 0 0 1 .368-1.153c.4-1.02 1.027-1.943 1.812-2.712 1.17-1.12 2.56-1.983 4.08-2.535a32.04 32.04 0 0 1 5.817-1.457 48.16 48.16 0 0 0 10.545-2.878l3.03-1.343.8-.418c.1-.043.193-.098.278-.165-.105.012-.206.05-.3.114l-.824.368-3.054 1.267a51.96 51.96 0 0 1-10.531 2.839 30.67 30.67 0 0 0-5.855 1.457 11.61 11.61 0 0 0-4.135 2.675 7.72 7.72 0 0 0-1.774 2.8 8.4 8.4 0 0 0-.228.887zm-1.56 28.997a2.21 2.21 0 0 1-.355-.266 6.99 6.99 0 0 1-.887-.925 9.58 9.58 0 0 1-1.9-4.41c-.362-2.466.057-4.984 1.2-7.2.664-1.34 1.52-2.578 2.537-3.674a7.44 7.44 0 0 1 4.233-2.535l-.266.418a9.2 9.2 0 0 1 2.7-9.607 12.32 12.32 0 0 1 6.337-2.459l6.134-.938c3.43-.646 6.62-2.215 9.226-4.537a12.84 12.84 0 0 0 3.574-6.007 20.15 20.15 0 0 0 .406-2.535 2.14 2.14 0 0 1 .063.672 9.25 9.25 0 0 1-.215 1.939 12.5 12.5 0 0 1-3.511 6.261c-2.628 2.453-5.9 4.12-9.417 4.816-1.952.47-4.056.672-6.172.976a11.65 11.65 0 0 0-5.982 2.336 8.54 8.54 0 0 0-2.535 8.931l.127.368h-.38c-1.52.316-2.9 1.133-3.9 2.32-1.004 1.05-1.858 2.237-2.535 3.523a11.62 11.62 0 0 0-1.267 6.895 10.04 10.04 0 0 0 1.711 4.322c.635.886 1.103 1.28 1.065 1.317z" class="C"/><path d="M313.208 123.735l2.46 28.96c.368 3.32.81 6.793 2.738 9.518a10.76 10.76 0 0 0 14.575 2.269 11.41 11.41 0 0 0 2.814-14.676c-1-1.635-2.535-3.51-1.635-5.234a7.6 7.6 0 0 1 1.457-1.673c2.623-2.814 1.812-7.376.114-10.836a3.8 3.8 0 0 0-1.8-2.066c-.95-.38-2.053 0-3.054-.266-2.155-.608-2.294-3.523-2.776-5.7-.722-3.206-3.244-6.616-6.5-7.085-.002-.004-3.158 5.23-8.392 6.79z" class="B"/><path d="M335.603 141.732c.58-1.438.943-2.955 1.077-4.5.082-1.655-.23-3.306-.912-4.816a10.72 10.72 0 0 0-3.916-4.525c-.9-.583-1.94-.95-2.826-1.648a3.31 3.31 0 0 1-1.065-1.267c-.2-.5-.32-1.014-.33-1.546a12.14 12.14 0 0 0-.2-2.65 4.41 4.41 0 0 0-1.267-1.863l-2.535-2.345a2.7 2.7 0 0 1-.659-1.1 9.45 9.45 0 0 0 .849.925c.57.558 1.546 1.267 2.66 2.18a4.89 4.89 0 0 1 1.432 2.028c.206.9.3 1.843.28 2.776a3 3 0 0 0 1.176 2.381c.773.6 1.812.963 2.788 1.6a10.91 10.91 0 0 1 4.119 4.829 10.62 10.62 0 0 1 .824 5.07 10.14 10.14 0 0 1-.887 3.371 3.5 3.5 0 0 1-.608 1.1zm-7.77 24.51a19 19 0 0 0 1.546-1.267 11.55 11.55 0 0 0 2.84-4.677 10.62 10.62 0 0 0-.368-7.845c-1.267-2.788-3.8-5.07-6.2-7.807a18.53 18.53 0 0 1-2.928-4.372 9.19 9.19 0 0 1-.849-4.9c.177-1.6.646-3 .874-4.347a10.14 10.14 0 0 0 0-3.726 11.05 11.05 0 0 0-2.281-4.9c-.836-1-1.432-1.432-1.38-1.483a1.75 1.75 0 0 1 .444.28 9.8 9.8 0 0 1 1.126 1.016c1.27 1.4 2.146 3.134 2.535 4.993a10.52 10.52 0 0 1 .165 3.942l-.8 4.322c-.14 1.562.14 3.133.8 4.55a18.2 18.2 0 0 0 2.864 4.233c2.332 2.65 4.955 5.07 6.26 8a10.95 10.95 0 0 1 .253 8.251c-.636 1.785-1.713 3.38-3.13 4.64a8.57 8.57 0 0 1-1.267.887c-.315.158-.48.237-.493.212z" class="C"/><path d="M277.19 185.938l4.867-46.538 13.877 5.7 1.128 47.425s-4.563 6.7-12.065 3.8c-4.372-1.683-7.403-5.712-7.807-10.38z" class="G"/><path d="M281.143 98.552l25.765 23.332-4.968 17.072-1.9.532-22.484-23.674 1.686-16.73z" class="B"/><path d="M279.242 99.084l25.765 23.332-4.968 17.068-24.384-23.138z" class="C"/><path d="M296.503 146.61a10.14 10.14 0 0 0 2.712-6.337c0-3.51-.862-11.977-.862-11.977s4.677-9.48 4.575-10.747-.3-1.267-1.94-.773-6.793 9.074-6.793 9.074l-1.56-6.476s4.3-6.717 4.64-7.6.913-1.71-.14-1.812-9.05 7.44-9.05 7.44l.532 7.072s-.165.558-1.267-.444-.76-9.493-.76-9.493 2.76-4.956 2.712-5.682.507-1.5 0-2.738-2.078.152-2.078.152l-5.323 6.793-1.774-6.82s.1-1.445-1.787-1.483l.418 22.052 4.537 17.008z" class="G"/><g class="H"><path d="M297.06 192.528v-.824c.008-.812-.025-1.624-.1-2.433l-.28-9.252-.85-33.51.114-.09c1.118-.957 1.987-2.17 2.535-3.536.53-1.463.728-3.026.583-4.575-.114-3.232-.47-6.6-.874-10.038v-.177l2.61-5.564 1.267-2.9a23.14 23.14 0 0 0 .532-1.483l.1-.368v-.3c-.013-.23-.056-.454-.127-.672 0-.152-.66 0-1.128.152a1.43 1.43 0 0 0-.621.3c-.202.164-.393.34-.57.532a24.08 24.08 0 0 0-2.015 2.535c-1.267 1.8-2.535 3.7-3.675 5.64l-.418.7-.2-.786-1.572-6.476v-.14l.076-.114 2.18-3.46c.748-1.19 1.736-2.763 2.42-4.094.14-.38.33-.773.43-1.1s0-.253 0-.228c-.092-.064-.207-.087-.317-.063a1.71 1.71 0 0 0-.38.177l-.47.3c-.317.228-.634.456-.938.7-2.46 2.015-4.715 4.106-6.958 6.185l.1-.266q.266 3.6.532 7.072v.076c-.094.262-.36.42-.634.38-.16-.026-.313-.077-.456-.152-.226-.13-.438-.284-.634-.456-.37-.4-.6-.905-.66-1.445a21.99 21.99 0 0 1-.279-2.826c-.063-1.863 0-3.688 0-5.5h0v-.076c1.02-1.686 1.932-3.436 2.727-5.24.026-.083.047-.168.063-.253v-.393c0-.114.1-.507.14-.735.107-.416.107-.85 0-1.267-.14-.47-.28-.66-.634-.6a2.46 2.46 0 0 0-1.065.583h0l-5.348 6.78-.342.444-.14-.545q-.95-3.56-1.8-6.87v-.076a1.14 1.14 0 0 0-.469-.925c-.317-.203-.69-.305-1.065-.292l.253-.253.33 22.052 2.28 9.38.558 2.42c.127.57.165.836.165.836s-.09-.28-.24-.81l-.646-2.408-2.433-9.34-.507-22.052v-.288h.266a2.41 2.41 0 0 1 1.343.38 1.62 1.62 0 0 1 .7 1.381v-.09l1.787 6.818-.482-.1 5.323-6.806a3.03 3.03 0 0 1 1.369-.722c.323-.067.66.027.9.253a1.62 1.62 0 0 1 .393.76c.133.507.133 1.04 0 1.546-.025.23-.068.46-.127.684-.014.1-.014.22 0 .33a1.65 1.65 0 0 1-.1.444 45.32 45.32 0 0 1-2.585 5.26v-.127c-.063 1.774-.09 3.6 0 5.437.018.914.107 1.825.266 2.725a2.1 2.1 0 0 0 .456 1.09c.157.14.326.262.507.368.068.034.14.06.215.076h0v.063h-.09v.114q-.215-3.41-.507-7.06v-.152l.114-.114c2.243-2.09 4.525-4.2 7.01-6.185.317-.253.634-.494.976-.722l.52-.342c.214-.14.457-.23.7-.266.286-.03.572.06.786.253.22.24.278.587.152.887-.14.456-.3.773-.444 1.153-.76 1.52-1.622 2.814-2.47 4.208l-2.193 3.46v-.253l1.56 6.476-.608-.1c1.19-1.952 2.408-3.8 3.7-5.69.642-.92 1.34-1.802 2.088-2.638a7.15 7.15 0 0 1 .634-.6 2.13 2.13 0 0 1 .833-.4 7.31 7.31 0 0 1 .836-.215c.172-.026.348-.026.52 0a.75.75 0 0 1 .545.393c.11.297.173.61.2.925a3.27 3.27 0 0 1 0 .494l-.114.406c-.165.545-.355 1.04-.545 1.546a91.11 91.11 0 0 1-1.267 2.928c-.862 1.914-1.75 3.8-2.636 5.576v-.177c.393 3.46.735 6.82.85 10.14.144 1.633-.076 3.278-.646 4.816a9.71 9.71 0 0 1-2.776 3.8l.114-.228.608 33.37.127 9.265v2.433c-.007.24.003.483.028.723z"/><path d="M282.8 125.04a26.93 26.93 0 0 1-.735-6.033 27.16 27.16 0 0 1 0-6.083 28.5 28.5 0 0 1 .735 6.033c.215 2.022.215 4.06 0 6.083z"/></g><path d="M91.8 114.322h8.72v-2.244h-5.967v-9.656H91.8zm18.972-4.54A4.53 4.53 0 0 0 106 105.04a4.66 4.66 0 0 0-3.457 1.3c-.924.9-1.438 2.125-1.422 3.408 0 2.72 2.057 4.7 5.22 4.7a4.79 4.79 0 0 0 3.774-1.479l-1.414-1.53a3.1 3.1 0 0 1-2.295.884 2.44 2.44 0 0 1-2.618-1.836h6.92l.056-.714zm-4.743-2.737c1.128-.046 2.103.78 2.244 1.9h-4.5c.138-1.127 1.122-1.956 2.256-1.9zm13.43-1.87v1.173a3.67 3.67 0 0 0-3.026-1.309c-1.204-.06-2.38.38-3.246 1.218s-1.347 1.997-1.327 3.202a4.35 4.35 0 0 0 1.327 3.202c.867.837 2.042 1.28 3.246 1.218 1.082.054 2.135-.36 2.9-1.14v.4c0 1.65-.816 2.5-2.686 2.5a5.47 5.47 0 0 1-3.227-1.038l-1.054 1.9a7.53 7.53 0 0 0 4.488 1.258c3.3 0 5.134-1.564 5.134-4.964v-7.612zm-2.5 6.528c-.625.05-1.242-.164-1.7-.6s-.718-1.026-.713-1.653a2.23 2.23 0 0 1 .714-1.654c.46-.427 1.077-.64 1.7-.6a2.22 2.22 0 0 1 2.4 2.244 2.22 2.22 0 0 1-2.4 2.244zm11.17-6.664a7.03 7.03 0 0 0-3.944 1.1l.952 1.853a4.4 4.4 0 0 1 2.635-.85c1.428 0 2.108.663 2.108 1.8h-2.108c-2.788 0-3.927 1.122-3.927 2.737 0 1.588 1.275 2.778 3.417 2.778a3 3 0 0 0 2.788-1.275v1.14h2.482v-5.22c0-2.77-1.615-4.063-4.403-4.063zm-.2 7.633c-.935 0-1.5-.442-1.5-1.1 0-.612.4-1.07 1.632-1.07h1.82v.935c-.312.795-1.103 1.295-1.955 1.236zm7 1.65h2.652v-12.614h-2.652zm8.33-2.244l2.737-2.584c1.666-1.547 2-2.6 2-3.757 0-2.16-1.768-3.52-4.42-3.52-1.846-.1-3.62.73-4.726 2.2l2.006 1.294a2.91 2.91 0 0 1 2.465-1.192c1.258 0 1.9.544 1.9 1.48 0 .578-.187 1.2-1.24 2.193l-4.6 4.335v1.785h8.993v-2.244zm10.336-5.185h-.97l.184-2.26h4.964v-2.2h-7.256l-.608 6.7h3.043c2.16 0 2.77.612 2.77 1.547 0 .97-.85 1.547-2.227 1.547a5.73 5.73 0 0 1-3.387-1.073l-1.088 2.108c1.357.858 2.934 1.3 4.54 1.27 3.4 0 4.95-1.832 4.95-3.94s-1.4-3.7-4.915-3.7zm5.5-4.47v2.2h2.38v9.7h2.754v-11.9zm-100.717 40h2.384c-1.306-2.277-1.975-4.863-1.936-7.488-.04-2.625.63-5.2 1.936-7.488h-2.384a13.53 13.53 0 0 0-2 7.488 13.61 13.61 0 0 0 2 7.488zm11.152-9.68h-2.784v-2.72h-2.064v2.72H61.9v1.952h2.768v2.728h2.064v-2.72h2.784zm5.536-4.816c-2.368 0-4.24 1.44-4.24 3.728a3.55 3.55 0 0 0 1.17 2.583c.732.663 1.704 1 2.687.905a3.83 3.83 0 0 0 2.784-1.008c-.08 2.16-1.3 3.264-3.152 3.264a3.62 3.62 0 0 1-2.1-.56l-.96 1.9a5.99 5.99 0 0 0 3.1.768c3.392 0 5.712-2.16 5.712-6.032.008-3.608-1.896-5.544-5-5.544zm.192 5.28a1.69 1.69 0 0 1-1.9-1.68 1.67 1.67 0 0 1 .562-1.253 1.66 1.66 0 0 1 1.3-.41c1.232 0 1.952.7 1.952 1.664a1.74 1.74 0 0 1-1.924 1.684zm5.452-5.084v2.08h2.24v9.12h2.592v-11.2zm8.7 14.3a13.35 13.35 0 0 0 2.016-7.488 13.28 13.28 0 0 0-2.016-7.488h-2.384a14.48 14.48 0 0 1 1.952 7.488 14.48 14.48 0 0 1-1.944 7.488zm8.128-14.3v3.936h2.3v-1.824h3.712l-4.004 9.088h2.816l4.16-9.52v-1.68zm9.92 0v3.936h2.3v-1.824h3.712l-4.004 9.088h2.816l4.16-9.52v-1.68zm9.92 0v3.936h2.3v-1.824h3.712l-4.004 9.088h2.816l4.16-9.52v-1.68zm13.688 9.088l2.576-2.432c1.568-1.456 1.868-2.448 1.868-3.536 0-2.032-1.664-3.312-4.16-3.312a5.2 5.2 0 0 0-4.44 2.08l1.884 1.212a2.74 2.74 0 0 1 2.316-1.116c1.188 0 1.8.516 1.8 1.392 0 .544-.18 1.124-1.172 2.064l-4.32 4.08v1.68h8.464V137.2zm13.552-3.776a2.6 2.6 0 0 0 1.312-2.3c0-1.968-1.76-3.2-4.336-3.2-2.544 0-4.3 1.232-4.3 3.2-.02.947.478 1.83 1.3 2.3a2.85 2.85 0 0 0-1.7 2.64c0 2.112 1.872 3.44 4.7 3.44 2.848 0 4.736-1.328 4.736-3.44.014-1.145-.66-2.186-1.712-2.64zm-3.024-3.6c1.056 0 1.76.528 1.76 1.408 0 .848-.688 1.376-1.76 1.376-1.056 0-1.728-.528-1.728-1.376 0-.88.688-1.408 1.728-1.408zm0 7.776c-1.28 0-2.08-.624-2.08-1.616s.8-1.6 2.08-1.6c1.3 0 2.112.608 2.112 1.6s-.816 1.616-2.112 1.616zm10.24-9.488v3.936h2.3v-1.824h3.716l-4.016 9.088h2.816l4.16-9.52v-1.68zm9.92 0v3.936h2.3v-1.824h3.716l-4.016 9.088h2.816l4.16-9.52v-1.68zm9.92 0v3.936h2.3v-1.824h3.716l-4.016 9.088h2.816l4.16-9.52v-1.68zm13.68 9.088l2.576-2.432c1.568-1.456 1.872-2.448 1.872-3.536 0-2.032-1.664-3.312-4.16-3.312a5.2 5.2 0 0 0-4.448 2.08l1.888 1.212a2.74 2.74 0 0 1 2.32-1.12c1.184 0 1.792.512 1.792 1.392 0 .544-.176 1.12-1.168 2.064l-4.316 4.084v1.68h8.46V137.2zm9.824-9.28c-2.368 0-4.24 1.44-4.24 3.728a3.55 3.55 0 0 0 1.17 2.583c.732.663 1.704 1 2.687.905a3.83 3.83 0 0 0 2.784-1.008c-.08 2.16-1.3 3.264-3.152 3.264a3.62 3.62 0 0 1-2.1-.56l-.96 1.9a5.99 5.99 0 0 0 3.1.768c3.392 0 5.712-2.16 5.712-6.032.008-3.612-1.896-5.548-5-5.548zm.192 5.28a1.69 1.69 0 0 1-1.9-1.68 1.67 1.67 0 0 1 .562-1.253 1.66 1.66 0 0 1 1.3-.41c1.232 0 1.952.7 1.952 1.664a1.74 1.74 0 0 1-1.924 1.68zm-133.934 7.112h24.927v1H61.426zm30.294 0H200.8v1H91.72z" fill="#01355d"/><defs ><path id="B" d="M381.954 55.182c0 1.636-1.326 2.962-2.962 2.962s-2.962-1.326-2.962-2.962 1.326-2.962 2.962-2.962 2.962 1.326 2.962 2.962z"/></defs></svg>