<svg xmlns="http://www.w3.org/2000/svg" width="506.666" height="400.294"><style><![CDATA[.B{fill:#f8951d}.C{stroke:#f8951d}.D{stroke-width:2}.E{fill:#01355d}]]></style><defs><linearGradient id="A" x1=".01" x2=".893" y2=".89"><stop offset="0" stop-color="#e6ba9d"/><stop offset=".775" stop-color="#e6ba9d"/><stop offset="1" stop-color="#e6ba9d" stop-opacity="0"/></linearGradient></defs><rect width="329.919" height="506.666" rx="11" transform="matrix(0 1 -1 0 506.666 0)" class="E"/><path fill="#fff" d="M41.24 22.105h433.023v282.793H41.24z"/><path d="M159.746 126.53v5.214l-4.246-5.214h-1.177v7.7h1.42v-5.214l4.247 5.214h1.176v-7.7zm5.6 1.76a4.13 4.13 0 0 0-2.486.726l.54 1a2.91 2.91 0 0 1 1.781-.586c.98 0 1.463.473 1.463 1.276v.088h-1.518c-1.782 0-2.442.77-2.442 1.75 0 1.023.847 1.76 2.19 1.76a2.08 2.08 0 0 0 1.848-.792v.72h1.3v-3.443c-.002-1.694-.98-2.497-2.675-2.497zm-.188 5.016c-.7 0-1.122-.32-1.122-.814 0-.43.253-.78 1.188-.78h1.42v.682a1.5 1.5 0 0 1-1.485.913zm12.03-5.016a2.74 2.74 0 0 0-2.2.979 2.2 2.2 0 0 0-1.98-.979c-.73-.032-1.438.267-1.925.814v-.748h-1.306v5.874h1.375v-2.98c0-1.166.616-1.76 1.53-1.76.836 0 1.32.506 1.32 1.55v3.2h1.375v-2.98c0-1.166.627-1.76 1.53-1.76.836 0 1.32.506 1.32 1.55v3.2h1.375v-3.366a2.26 2.26 0 0 0-2.412-2.574zm9.75 3.04c.05-.808-.246-1.598-.812-2.177s-1.35-.89-2.158-.86a2.92 2.92 0 0 0-3.036 3 2.98 2.98 0 0 0 3.245 3.013c.892.052 1.76-.3 2.365-.957l-.737-.847a2.1 2.1 0 0 1-1.595.638 1.78 1.78 0 0 1-1.9-1.408h4.61l.02-.403zm-2.97-1.94a1.6 1.6 0 0 1 1.661 1.43h-3.333c.1-.84.827-1.46 1.672-1.43z" class="B"/><path fill="none" d="M115.564 141.47h116.922" class="C D"/><path d="M313.145 133.03v-2.122h3.718v-1.178h-3.718v-2h4.19v-1.2h-5.62v7.7h5.775v-1.2zm5.29-1.287h3.025V130.6h-3.025zm11.947-3.453a2.74 2.74 0 0 0-2.2.979 2.2 2.2 0 0 0-1.98-.979c-.73-.032-1.438.267-1.925.814v-.748h-1.3v5.874h1.375v-2.98c0-1.166.616-1.76 1.53-1.76.836 0 1.32.506 1.32 1.55v3.2h1.375v-2.98c0-1.166.627-1.76 1.53-1.76.836 0 1.32.506 1.32 1.55v3.2h1.375v-3.366a2.26 2.26 0 0 0-2.408-2.574zm6.413 0a4.13 4.13 0 0 0-2.486.726l.54 1a2.91 2.91 0 0 1 1.781-.586c.98 0 1.463.473 1.463 1.276v.088h-1.518c-1.782 0-2.442.77-2.442 1.75 0 1.027.85 1.764 2.19 1.764a2.08 2.08 0 0 0 1.848-.792v.715h1.3v-3.443c-.002-1.694-.98-2.497-2.675-2.497zm-.188 5.016c-.7 0-1.122-.32-1.122-.814 0-.43.253-.78 1.188-.78h1.42v.682a1.5 1.5 0 0 1-1.485.913zm5.313-5.918c.232.01.46-.076.625-.24s.26-.386.255-.62a.82.82 0 0 0-.88-.792.84.84 0 0 0-.88.825.84.84 0 0 0 .88.825zm-.693 6.842h1.375v-5.874h-1.375zm3.18 0h1.376v-8.162h-1.375z" class="B"/><path fill="none" d="M273.958 141.47H390.88" class="C D"/><path d="M218.007 179.074a3.91 3.91 0 0 0 3.056-1.287l-.924-.88c-.518.592-1.27.926-2.057.913a2.63 2.63 0 0 1-2.75-2.706 2.63 2.63 0 0 1 2.75-2.706 2.7 2.7 0 0 1 2.057.9l.924-.87a3.9 3.9 0 0 0-3.047-1.285c-1.08-.056-2.138.338-2.92 1.088s-1.218 1.79-1.206 2.872a3.92 3.92 0 0 0 4.116 3.96zm6.72-.033a2.96 2.96 0 0 0 3.135-3.014c.014-.824-.316-1.616-.91-2.186s-1.4-.865-2.224-.814c-.82-.047-1.623.25-2.216.82s-.922 1.36-.908 2.18c-.015.823.313 1.615.906 2.187s1.396.87 2.218.827zm0-1.177a1.71 1.71 0 0 1-1.738-1.837 1.71 1.71 0 0 1 1.738-1.837 1.71 1.71 0 0 1 1.749 1.837 1.71 1.71 0 0 1-1.749 1.837zm7.788-4.84c-.764-.042-1.507.26-2.024.825v-.76h-1.31v5.874h1.375v-2.97a1.56 1.56 0 0 1 1.639-1.771c.88 0 1.4.506 1.4 1.55v3.2h1.372v-3.366a2.3 2.3 0 0 0-2.453-2.574zm7.348 4.64c-.222.165-.493.25-.77.242-.528 0-.814-.308-.814-.88v-2.792h1.573v-1.1h-1.573v-1.342h-1.37v1.342h-.968v1.1h.968v2.83a1.8 1.8 0 0 0 2.02 1.977 2.16 2.16 0 0 0 1.32-.4zm3.762-4.64a4.13 4.13 0 0 0-2.486.726l.54 1a2.91 2.91 0 0 1 1.782-.586c.98 0 1.463.473 1.463 1.276v.088h-1.515c-1.782 0-2.442.77-2.442 1.75 0 1.023.847 1.76 2.19 1.76a2.08 2.08 0 0 0 1.848-.792v.72h1.3v-3.443c-.005-1.694-.984-2.497-2.678-2.497zm-.187 5.016c-.7 0-1.122-.32-1.122-.814 0-.43.253-.78 1.188-.78h1.42v.682a1.5 1.5 0 0 1-1.485.913zm7.37 1a2.67 2.67 0 0 0 2.508-1.376l-1.056-.616a1.66 1.66 0 0 1-1.463.814 1.72 1.72 0 0 1-1.782-1.837c-.032-.487.143-.964.483-1.314s.812-.54 1.3-.523a1.66 1.66 0 0 1 1.463.814l1.056-.616c-.498-.905-1.478-1.437-2.508-1.362a2.97 2.97 0 0 0-3.179 3 2.98 2.98 0 0 0 3.179 3.017zm6.92-1.376c-.222.165-.493.25-.77.242-.528 0-.814-.308-.814-.88v-2.792h1.573v-1.1h-1.573v-1.342h-1.375v1.342h-.968v1.1h.968v2.83a1.8 1.8 0 0 0 2.024 1.977 2.16 2.16 0 0 0 1.32-.4zm7.887-4.64c-.764-.042-1.507.26-2.024.825v-.76h-1.31v5.874h1.375v-2.97a1.56 1.56 0 0 1 1.639-1.771c.88 0 1.4.506 1.4 1.55v3.2h1.375v-3.366a2.3 2.3 0 0 0-2.456-2.574zm6.894 6.017a2.96 2.96 0 0 0 3.135-3.014c.014-.824-.316-1.616-.91-2.186s-1.4-.865-2.224-.814c-.82-.047-1.623.25-2.216.82s-.922 1.36-.908 2.18c-.015.823.313 1.615.906 2.187s1.396.87 2.218.827zm0-1.177a1.71 1.71 0 0 1-1.738-1.837 1.71 1.71 0 0 1 1.738-1.837 1.71 1.71 0 0 1 1.749 1.837 1.71 1.71 0 0 1-1.749 1.837zm4.788 1.177a.9.9 0 0 0 .9-.913.88.88 0 0 0-.9-.913.88.88 0 0 0-.9.913.9.9 0 0 0 .9.913z" class="B"/><path fill="none" d="M162.143 186.18H345.02" class="C D"/><path d="M225.455 224.468l-1.77-2.53a2.46 2.46 0 0 0 1.639-2.431c0-1.705-1.254-2.74-3.28-2.74h-3.166v7.7h1.43v-2.244h1.736a2.68 2.68 0 0 0 .3-.011l1.572 2.255zm-1.573-4.96c0 .968-.65 1.54-1.9 1.54h-1.675v-3.07h1.672c1.254 0 1.903.56 1.903 1.53zm8.426 2.06c.05-.807-.244-1.598-.81-2.177s-1.348-.892-2.156-.863a2.92 2.92 0 0 0-3.036 3 2.98 2.98 0 0 0 3.236 3.017c.893.053 1.763-.298 2.37-.957l-.737-.847a2.1 2.1 0 0 1-1.6.638 1.78 1.78 0 0 1-1.898-1.411h4.61l.022-.4zm-2.965-1.94a1.6 1.6 0 0 1 1.661 1.43h-3.338c.1-.84.83-1.464 1.677-1.43zm4.285 4.84h1.375v-8.162h-1.375zm5.423-5.94a4.13 4.13 0 0 0-2.486.726l.54 1a2.91 2.91 0 0 1 1.782-.586c.98 0 1.463.473 1.463 1.276v.088h-1.518c-1.782 0-2.442.77-2.442 1.75 0 1.023.847 1.76 2.19 1.76a2.08 2.08 0 0 0 1.848-.792v.72h1.3v-3.443c-.002-1.694-.983-2.497-2.675-2.497zm-.187 5.016c-.7 0-1.122-.32-1.122-.814 0-.43.253-.78 1.188-.78h1.42v.682a1.5 1.5 0 0 1-1.485.913zm7.766-.376c-.222.165-.493.25-.77.242-.528 0-.814-.308-.814-.88v-2.792h1.573v-1.1h-1.576v-1.342h-1.372v1.342h-.968v1.1h.968v2.83a1.8 1.8 0 0 0 2.024 1.977 2.16 2.16 0 0 0 1.32-.4zm6.842-1.6c.05-.808-.246-1.598-.812-2.177s-1.35-.89-2.158-.86a2.92 2.92 0 0 0-3.036 3 2.98 2.98 0 0 0 3.245 3.013c.892.052 1.76-.3 2.365-.957l-.733-.847c-.418.43-1 .663-1.6.638a1.78 1.78 0 0 1-1.9-1.411h4.61l.02-.4zm-2.97-1.94a1.6 1.6 0 0 1 1.661 1.43h-3.333c.1-.84.827-1.46 1.672-1.43zm8.668-3.322v3.014a2.4 2.4 0 0 0-1.892-.792 2.85 2.85 0 0 0-2.97 3 2.86 2.86 0 0 0 2.97 3.017 2.42 2.42 0 0 0 1.947-.836v.76h1.318v-8.162zm-1.727 7.062c-.482.01-.947-.183-1.28-.533s-.503-.823-.47-1.304c-.034-.48.136-.955.47-1.304s.797-.543 1.28-.533c.482-.01.947.183 1.28.533s.503.823.47 1.304c.034.48-.136.955-.47 1.304s-.797.543-1.28.533zm11.088-.2c-.222.165-.493.25-.77.242-.528 0-.814-.308-.814-.88v-2.792h1.573v-1.1h-1.577v-1.342h-1.37v1.342h-.968v1.1h.968v2.83a1.8 1.8 0 0 0 2.024 1.977 2.16 2.16 0 0 0 1.32-.4zm3.96 1.377a2.96 2.96 0 0 0 3.135-3.014c.014-.824-.316-1.616-.91-2.186s-1.4-.865-2.224-.814c-.82-.047-1.623.25-2.216.82s-.922 1.36-.908 2.18c-.015.823.313 1.615.906 2.187s1.396.87 2.218.827zm0-1.177a1.71 1.71 0 0 1-1.738-1.837 1.71 1.71 0 0 1 1.738-1.837 1.71 1.71 0 0 1 1.752 1.837 1.71 1.71 0 0 1-1.752 1.837z" class="B"/><path fill="none" d="M162.143 231.476H345.02" class="C D"/><path d="M336.723 222.712l3.36-3.363c.25-.25.65-.25.9 0s.25.65 0 .9l-3.8 3.814c-.24.24-.626.248-.876.02l-3.832-3.83c-.25-.25-.25-.65 0-.9s.65-.25.9 0z" class="B"/><path d="M171.77 48.135a4.35 4.35 0 0 1-1.984 1.233c-.933.3-1.9.44-2.89.41-.914.02-1.81-.248-2.565-.764-.71-.515-1.232-1.246-1.492-2.083a6.78 6.78 0 0 1-.243-3.011l.066-.5a7.67 7.67 0 0 1 1.98-4.458 5.11 5.11 0 0 1 3.914-1.6 4.4 4.4 0 0 1 3.113 1.087 4.46 4.46 0 0 1 1.212 3.046l-2.723-.008a2.22 2.22 0 0 0-.477-1.413 1.63 1.63 0 0 0-1.191-.471c-.742-.038-1.454.3-1.893.9-.564.795-.916 1.722-1.02 2.69a10.6 10.6 0 0 0-.166 2.322q.125 2 1.8 2.023c.628.024 1.25-.147 1.776-.5l.374-1.884h-1.967l.35-2h4.806zm5.644 1.652c-.753.008-1.495-.187-2.146-.566-.623-.365-1.12-.9-1.428-1.563-.324-.685-.456-1.446-.382-2.2l.025-.232c.077-1.316.623-2.56 1.54-3.507a4.26 4.26 0 0 1 3.225-1.241c.703-.01 1.392.195 1.976.586.552.388.97.936 1.2 1.57a4.81 4.81 0 0 1 .249 2.249l-.15 1.137h-5.346a1.75 1.75 0 0 0 .4 1.146c.287.308.692.477 1.112.465.81.015 1.585-.317 2.133-.913l1.146 1.515a3.38 3.38 0 0 1-1.416 1.127 4.97 4.97 0 0 1-1.988.426zm.664-7.155a1.4 1.4 0 0 0-1.009.363 3.05 3.05 0 0 0-.743 1.272h2.73l.05-.24a1.82 1.82 0 0 0 .017-.545.96.96 0 0 0-1.046-.85zm9.056-4.225l-.4 2.233h1.436l-.34 1.942h-1.436l-.7 4.125a1.1 1.1 0 0 0 .054.639q.112.216.56.232a6.49 6.49 0 0 0 .714-.042l-.2 2.025c-.474.152-.97.222-1.47.208a2.42 2.42 0 0 1-1.9-.747 2.55 2.55 0 0 1-.515-1.984l.73-4.458h-1.112l.332-1.942H184l.4-2.233zm8.168 8.973h4.922l-.4 2.24h-7.76l2.092-12.086h2.847zm10.138 2.407c-.754.01-1.496-.187-2.148-.566-.62-.365-1.117-.91-1.424-1.56-.324-.685-.456-1.446-.382-2.2l.025-.232c.077-1.316.623-2.56 1.54-3.507a4.26 4.26 0 0 1 3.225-1.241c.703-.01 1.392.195 1.976.586.552.388.97.936 1.2 1.57a4.81 4.81 0 0 1 .249 2.249l-.155 1.135H204.2a1.75 1.75 0 0 0 .4 1.146c.287.308.692.477 1.112.465.808.013 1.582-.32 2.128-.916L209 48.23a3.38 3.38 0 0 1-1.415 1.13 4.97 4.97 0 0 1-1.988.426zm.664-7.155a1.4 1.4 0 0 0-1.009.363 3.05 3.05 0 0 0-.743 1.272h2.73l.05-.24a1.82 1.82 0 0 0 .017-.545.96.96 0 0 0-1.048-.85zm4.4 2.482c.09-.855.34-1.686.736-2.45a4.31 4.31 0 0 1 1.465-1.656 3.53 3.53 0 0 1 1.992-.544c.798-.028 1.56.334 2.042.97l.29-.805 2.523.008-1.465 8.633a4.22 4.22 0 0 1-1.6 2.88 5.1 5.1 0 0 1-3.37 1 4.81 4.81 0 0 1-1.735-.357 3.74 3.74 0 0 1-1.443-1.024l1.3-1.6a2.35 2.35 0 0 0 1.876.938 2.2 2.2 0 0 0 2.307-1.935l.066-.274a2.81 2.81 0 0 1-2.05.9 2.77 2.77 0 0 1-1.519-.439c-.453-.304-.8-.73-1.03-1.23-.256-.567-.4-1.178-.423-1.8a7.8 7.8 0 0 1 .033-1.207zm2.7.888a2.18 2.18 0 0 0 .274 1.187.93.93 0 0 0 .8.44c.532.014 1.043-.206 1.4-.6l.706-3.8a1.21 1.21 0 0 0-1.118-.598 1.59 1.59 0 0 0-1.336.677c-.388.535-.623 1.165-.68 1.823q-.05.524-.05.88zm11.466 3.62c-.084-.262-.124-.537-.116-.813a2.77 2.77 0 0 1-2.2.979c-.726.01-1.425-.27-1.942-.78-.503-.48-.768-1.157-.722-1.85-.008-.91.453-1.757 1.22-2.245.973-.574 2.093-.85 3.22-.8l.913.017.1-.506.033-.44c.02-.208-.052-.414-.197-.564s-.35-.23-.558-.216a1.05 1.05 0 0 0-1.1.988l-2.74.008a2.6 2.6 0 0 1 .589-1.573c.398-.468.912-.823 1.5-1.03.638-.242 1.318-.356 2-.336.62.002 1.234.148 1.79.427.5.247.892.64 1.15 1.124.26.5.362 1.087.29 1.656l-.672 4.225-.042.515a2.27 2.27 0 0 0 .158 1.046l-.01.158zm-1.56-1.8a1.76 1.76 0 0 0 1.469-.739l.274-1.444-.706-.007a1.86 1.86 0 0 0-1.129.386c-.315.246-.516.61-.556 1.01-.035.196.012.4.13.56.128.153.32.24.52.235zm8.21 1.8h-2.74l2.208-12.75h2.74zm16.18-4.117a4.36 4.36 0 0 1-.835 2.258 4.72 4.72 0 0 1-1.909 1.519 5.91 5.91 0 0 1-2.561.506 3.98 3.98 0 0 1-2.98-1.22 4.9 4.9 0 0 1-1.187-3.2 10.41 10.41 0 0 1 .295-2.93c.216-1 .623-1.927 1.2-2.76a5.53 5.53 0 0 1 1.971-1.756c.766-.392 1.618-.585 2.478-.56 1.16-.04 2.285.388 3.125 1.187.803.863 1.248 2 1.245 3.18l-2.826-.006a2.33 2.33 0 0 0-.4-1.577 1.75 1.75 0 0 0-1.312-.506q-2.24-.078-2.73 3.483c-.12.76-.196 1.53-.224 2.3q-.042 2.042 1.51 2.1a2.22 2.22 0 0 0 1.6-.494 2.47 2.47 0 0 0 .764-1.49zm5.894-5.03a3.77 3.77 0 0 1 2.083.6 3.39 3.39 0 0 1 1.291 1.631c.28.74.38 1.538.294 2.326l-.017.183c-.1 1.26-.644 2.44-1.535 3.336a4.32 4.32 0 0 1-3.221 1.237c-.732.008-1.45-.198-2.067-.593a3.41 3.41 0 0 1-1.291-1.615 4.89 4.89 0 0 1-.3-2.308c.07-1.315.605-2.563 1.51-3.52.854-.867 2.035-1.332 3.25-1.278zm-2.034 4.8l-.025.49q-.117 1.85 1.128 1.882 1.6.05 1.868-2.6l.033-.754c.03-.415-.066-.83-.278-1.19-.2-.292-.518-.466-.867-.46a1.43 1.43 0 0 0-1.241.617 4.04 4.04 0 0 0-.619 2.026zm10.193-4.643l-.19 1.08a3.19 3.19 0 0 1 2.6-1.245c.736-.03 1.437.32 1.855.926.442.782.6 1.693.444 2.577l-.948 5.653h-2.74l.955-5.676c.022-.176.027-.355.017-.532q-.06-.792-.93-.792c-.514.004-1 .24-1.32.64l-1.12 6.36h-2.733l1.56-8.98zm10.39 6.417q.108-.548-.847-.822l-.59-.15a4.54 4.54 0 0 1-2.117-1.071 2.12 2.12 0 0 1-.627-1.635 2.6 2.6 0 0 1 1.15-2.1c.788-.554 1.737-.833 2.7-.793.923-.032 1.83.252 2.57.805.65.512 1.02 1.3 1 2.125l-2.723-.008q.033-1.063-.938-1.062a1.34 1.34 0 0 0-.772.245.95.95 0 0 0-.423.652q-.14.672 1.187.92a6.9 6.9 0 0 1 1.785.635c.4.212.72.52.963.892a2.22 2.22 0 0 1 .307 1.278 2.4 2.4 0 0 1-.525 1.448 3.44 3.44 0 0 1-1.47 1.021 5.25 5.25 0 0 1-2.079.357 4.22 4.22 0 0 1-1.805-.407 3.22 3.22 0 0 1-1.3-1.083c-.317-.465-.488-1.013-.5-1.576l2.54.017a1.05 1.05 0 0 0 1.2 1.179 1.57 1.57 0 0 0 .863-.228c.23-.144.388-.376.44-.64zm9.026 1.594c-.58.75-1.48 1.177-2.426 1.153-.774.04-1.517-.305-1.988-.92a3.4 3.4 0 0 1-.512-2.424l.97-5.81h2.73l-1 5.85a1.95 1.95 0 0 0 0 .44c.003.204.093.397.246.53s.356.198.56.175c.57.024 1.118-.23 1.47-.68l1.116-6.315h2.748l-1.564 8.98h-2.54zm6.707.98h-2.74l2.206-12.75h2.74zm6.857-11.214l-.4 2.233h1.436l-.336 1.942h-1.44l-.7 4.125a1.1 1.1 0 0 0 .054.639q.112.216.56.232a6.49 6.49 0 0 0 .714-.042l-.2 2.025c-.474.152-.97.222-1.47.208a2.42 2.42 0 0 1-1.9-.747 2.55 2.55 0 0 1-.515-1.984l.73-4.458h-1.11l.332-1.942h1.112l.4-2.233zm5.686 11.214c-.084-.262-.124-.537-.116-.813a2.77 2.77 0 0 1-2.2.979c-.726.01-1.425-.27-1.942-.78-.502-.48-.765-1.158-.718-1.85-.008-.91.453-1.757 1.22-2.245.97-.573 2.1-.848 3.216-.8l.913.017.1-.506.033-.44c.02-.208-.052-.414-.197-.564s-.35-.23-.558-.216a1.05 1.05 0 0 0-1.1.988l-2.74.008a2.6 2.6 0 0 1 .589-1.573c.398-.468.912-.823 1.5-1.03.638-.242 1.318-.356 2-.336.62.002 1.234.148 1.79.427.5.247.892.64 1.15 1.124.262.5.364 1.088.294 1.657l-.672 4.225-.042.515a2.27 2.27 0 0 0 .154 1.045l-.008.158zm-1.56-1.8a1.76 1.76 0 0 0 1.469-.739l.274-1.444-.705-.007a1.86 1.86 0 0 0-1.129.386c-.315.246-.516.61-.556 1.01-.035.196.012.4.13.56.128.153.32.24.518.235zm9.385-7.18l-.2 1.08a3.19 3.19 0 0 1 2.6-1.245c.736-.03 1.437.32 1.855.926.443.78.6 1.692.445 2.577l-.945 5.653h-2.74l.955-5.676c.022-.176.027-.355.017-.532q-.06-.792-.93-.792c-.514.004-1 .24-1.32.64l-1.12 6.36h-2.73l1.56-8.98zm9.488 7c.34.03.676-.09.92-.326a1.62 1.62 0 0 0 .423-.886l2.557-.008a3.36 3.36 0 0 1-.589 1.766c-.364.525-.863.943-1.445 1.207a4.27 4.27 0 0 1-1.947.4 3.37 3.37 0 0 1-2.764-1.291c-.674-.94-.957-2.105-.79-3.25l.025-.2c.08-.85.34-1.67.764-2.41a4.37 4.37 0 0 1 1.615-1.623c.68-.385 1.456-.572 2.237-.54a3.34 3.34 0 0 1 2.478 1c.632.717.948 1.658.876 2.61l-2.557-.008q.042-1.42-1.02-1.444-1.444-.05-1.66 2.424l-.075.844-.008.314q-.001 1.394.954 1.42zm8.612-1.96l2.324-5.03h3.013l-5.263 10.326a4.5 4.5 0 0 1-1.357 1.764c-.537.37-1.178.56-1.83.544a5.17 5.17 0 0 1-1.2-.183l.208-2h.315a2.26 2.26 0 0 0 .888-.162 1.35 1.35 0 0 0 .639-.627l.4-.747-1.44-8.915h2.822zm-82.768 14.56l-.224-.53c-.288-.632-.425-1.323-.4-2.017.037-.614.23-1.208.56-1.727a3.36 3.36 0 0 1 1.316-1.2 3.63 3.63 0 0 1 1.786-.393 3.14 3.14 0 0 1 1.473.4 2.56 2.56 0 0 1 1.013 1.023c.235.433.343.923.31 1.415a3.7 3.7 0 0 1-2 2.839l-.78.5 1.395 2.05c.417-.6.688-1.292.79-2.017h2.273a6.16 6.16 0 0 1-1.652 3.968l1.42 2.082h-2.89l-.415-.623a6.04 6.04 0 0 1-3.063.789c-.648-.006-1.286-.162-1.864-.457a2.92 2.92 0 0 1-1.241-1.183c-.282-.525-.406-1.12-.357-1.714q.117-1.892 2.55-3.204zm1.2 4.4c.508-.015 1.007-.134 1.468-.35l-1.605-2.46-.108.058c-.364.38-.607.86-.7 1.378-.06.336.012.682.2.967.167.25.448.403.75.405zm.473-6.985c-.023.475.1.946.352 1.35l.573-.33c.5-.245.853-.712.955-1.258.032-.214-.017-.432-.137-.612a.64.64 0 0 0-.548-.271 1.03 1.03 0 0 0-.768.31 1.38 1.38 0 0 0-.423.813zm-67.18 22.706q.183-.938-1.013-1.453l-1.36-.564q-2.864-1.287-2.723-3.5a3.09 3.09 0 0 1 .7-1.805 4.14 4.14 0 0 1 1.771-1.236c.787-.3 1.624-.443 2.465-.423 1.06-.028 2.1.345 2.885 1.046.74.703 1.132 1.695 1.075 2.714h-2.825a1.69 1.69 0 0 0-.295-1.116c-.262-.302-.65-.463-1.05-.436a2.2 2.2 0 0 0-1.262.332c-.344.202-.58.545-.647.938q-.158.83 1.233 1.36c.697.25 1.373.554 2.02.913a3.34 3.34 0 0 1 1.859 3.2 3.28 3.28 0 0 1-.672 1.834c-.44.552-1.02.973-1.68 1.22a6.21 6.21 0 0 1-2.411.415 5.82 5.82 0 0 1-1.818-.307 4 4 0 0 1-1.436-.847 3.68 3.68 0 0 1-1.162-2.947l2.847.008a1.95 1.95 0 0 0 .357 1.407c.364.354.865.528 1.37.477.42.015.837-.1 1.19-.328a1.36 1.36 0 0 0 .582-.903zm8.882-5.877a3.77 3.77 0 0 1 2.083.6 3.39 3.39 0 0 1 1.291 1.631c.28.74.38 1.537.295 2.324l-.017.183c-.1 1.26-.644 2.442-1.536 3.337a4.32 4.32 0 0 1-3.224 1.239c-.732.008-1.45-.2-2.067-.594a3.41 3.41 0 0 1-1.291-1.615 4.89 4.89 0 0 1-.3-2.308c.07-1.316.607-2.564 1.515-3.52.854-.867 2.035-1.33 3.25-1.276zm-2.034 4.8l-.025.49q-.116 1.848 1.13 1.88 1.6.05 1.868-2.6l.033-.754c.03-.415-.066-.83-.278-1.19-.2-.292-.518-.466-.867-.46a1.43 1.43 0 0 0-1.241.617 4.04 4.04 0 0 0-.618 2.028zm9.026 4.348H191l2.208-12.75h2.74zm7.288-.98c-.578.748-1.478 1.177-2.424 1.154-.774.04-1.517-.305-1.988-.92a3.4 3.4 0 0 1-.519-2.424l.97-5.81h2.73l-.988 5.85a1.95 1.95 0 0 0 0 .44c.003.204.093.397.246.53s.356.198.56.175c.57.024 1.118-.23 1.47-.68l1.112-6.316h2.743l-1.557 8.98h-2.543zm8.948-10.235l-.4 2.233h1.436l-.34 1.942h-1.442l-.7 4.125a1.1 1.1 0 0 0 .054.639q.112.216.56.232a6.49 6.49 0 0 0 .714-.042l-.2 2.025c-.474.152-.97.222-1.47.208a2.42 2.42 0 0 1-1.9-.747 2.55 2.55 0 0 1-.515-1.984l.73-4.458h-1.112l.332-1.942h1.112l.4-2.233zm3.5 11.214h-2.737l1.56-8.98h2.74zm-.937-11.248c-.02-.385.138-.758.427-1.013.292-.27.677-.416 1.075-.407.388-.013.768.117 1.067.365.282.237.445.587.444.955a1.27 1.27 0 0 1-.423 1.017 1.54 1.54 0 0 1-1.079.4 1.6 1.6 0 0 1-1.058-.361 1.23 1.23 0 0 1-.453-.956zm7.91 2.1a3.77 3.77 0 0 1 2.083.6 3.39 3.39 0 0 1 1.291 1.631c.28.74.38 1.537.295 2.324l-.017.183c-.1 1.26-.644 2.442-1.536 3.337a4.32 4.32 0 0 1-3.221 1.237c-.732.008-1.45-.2-2.067-.594a3.41 3.41 0 0 1-1.291-1.615 4.89 4.89 0 0 1-.3-2.308c.07-1.316.607-2.564 1.515-3.52.853-.865 2.033-1.328 3.246-1.274zm-2.034 4.8l-.025.49q-.116 1.848 1.13 1.88 1.6.05 1.868-2.6l.033-.754c.03-.415-.066-.83-.278-1.19-.2-.292-.518-.466-.867-.46a1.43 1.43 0 0 0-1.241.617 4.04 4.04 0 0 0-.62 2.028zM228.6 74.63l-.19 1.08a3.19 3.19 0 0 1 2.6-1.245c.736-.03 1.437.32 1.855.926.442.782.6 1.693.444 2.577l-.95 5.655h-2.74l.955-5.676c.022-.176.027-.355.017-.532q-.062-.792-.93-.792c-.514.004-1 .24-1.32.64l-1.12 6.36h-2.73l1.56-8.98zm10.118 8.992l1.22-7.04h-1.262l.332-1.942 1.262-.008.108-.79c.096-.874.503-1.684 1.146-2.283a3.72 3.72 0 0 1 2.615-.88 8.05 8.05 0 0 1 1.353.183l-.208 2.075a2.64 2.64 0 0 0-.647-.1 1.7 1.7 0 0 0-1 .277 1.24 1.24 0 0 0-.5.8l-.125.727h1.7l-.332 1.942h-1.7l-1.223 7.037zm10.7-9.147a3.77 3.77 0 0 1 2.083.6 3.39 3.39 0 0 1 1.291 1.631c.28.74.38 1.537.295 2.324l-.017.183c-.1 1.26-.647 2.444-1.54 3.338a4.32 4.32 0 0 1-3.221 1.237c-.732.008-1.45-.2-2.067-.594a3.41 3.41 0 0 1-1.291-1.615 4.89 4.89 0 0 1-.3-2.308c.07-1.316.607-2.564 1.515-3.52.854-.867 2.036-1.33 3.252-1.276zm-2.034 4.8l-.025.49q-.116 1.848 1.13 1.88 1.6.05 1.868-2.6l.033-.754c.03-.415-.066-.83-.278-1.19-.2-.292-.518-.466-.867-.46a1.43 1.43 0 0 0-1.241.617 4.04 4.04 0 0 0-.619 2.027zm12.625-2.1c-.28-.043-.563-.07-.847-.083a2.11 2.11 0 0 0-1.876.847l-1.012 5.683h-2.73l1.56-8.98 2.548-.008-.208 1.18c.4-.8 1.19-1.308 2.075-1.36.286.008.57.047.847.116zm13.98 6.624c-.402-.001-.796-.1-1.14-.315a1.58 1.58 0 0 1-.677-.813c-.534.692-1.36 1.1-2.233 1.1a1.81 1.81 0 0 1-1.453-.706c-.376-.52-.574-1.15-.564-1.793-.03-.984.174-1.96.594-2.85a5.72 5.72 0 0 1 1.689-2.237 3.6 3.6 0 0 1 2.3-.78 3.89 3.89 0 0 1 1.227.218 6.03 6.03 0 0 1 1.282.681l-1.154 4.98-.033.315q-.058.74.58.764 1.295.058 1.967-2.233a9.79 9.79 0 0 0 .39-2.482c.1-1.127-.23-2.25-.926-3.142a3.7 3.7 0 0 0-2.885-1.158 5.46 5.46 0 0 0-2.523.56c-.837.418-1.574 1.01-2.162 1.74-.655.797-1.17 1.7-1.523 2.67a9.56 9.56 0 0 0-.614 3.042 5.43 5.43 0 0 0 .386 2.366c.263.643.727 1.184 1.324 1.54a4.25 4.25 0 0 0 2.175.535c.955-.006 1.9-.19 2.79-.54l.24 1.41c-.922.53-1.977.777-3.038.714a6.5 6.5 0 0 1-2.972-.672 4.58 4.58 0 0 1-1.951-1.926 6.39 6.39 0 0 1-.73-2.93 10.44 10.44 0 0 1 .6-3.748 10.2 10.2 0 0 1 1.876-3.3c.77-.92 1.728-1.66 2.8-2.175a7.44 7.44 0 0 1 3.3-.718 5.56 5.56 0 0 1 3.578 1.183c.962.8 1.592 1.947 1.768 3.192a8.46 8.46 0 0 1-.212 3.615c-.248 1.092-.8 2.095-1.57 2.9a3.4 3.4 0 0 1-2.517.992zm-3.9-3.727a4.74 4.74 0 0 0-.116 1.278 1.12 1.12 0 0 0 .191.623.59.59 0 0 0 .49.249 1.1 1.1 0 0 0 .822-.374 2.56 2.56 0 0 0 .631-1l1-3.827c-.144-.034-.292-.053-.44-.058a1.94 1.94 0 0 0-1.6.73c-.52.697-.857 1.514-.978 2.376zm17.058 3.55h-8.193l.3-1.926 4.3-3.993.59-.59a3.43 3.43 0 0 0 1.27-2.631.95.95 0 0 0-1-.988 1.31 1.31 0 0 0-1.083.519c-.315.404-.507.9-.552 1.4l-2.714.017c.04-.742.277-1.46.69-2.08a4.29 4.29 0 0 1 1.664-1.473c.686-.352 1.448-.532 2.22-.523 1.002-.042 1.982.3 2.74.96a2.95 2.95 0 0 1 .847 2.5c-.057.643-.266 1.263-.6 1.8-.436.682-.96 1.304-1.556 1.85l-1.262 1.162-1.876 1.8 4.565.017zm2.507-5.943l1.677-6.143h6.9l-.35 2.175h-4.624l-.738 2.41a3.13 3.13 0 0 1 1.668-.448c.948-.053 1.862.357 2.453 1.1a4 4 0 0 1 .71 2.889c-.135 2.387-2.16 4.223-4.55 4.125a4.24 4.24 0 0 1-1.947-.5 3.43 3.43 0 0 1-1.357-1.291 3.48 3.48 0 0 1-.473-1.83h2.726a1.7 1.7 0 0 0 .324 1.038 1.08 1.08 0 0 0 .863.407 1.34 1.34 0 0 0 1.129-.51 3.06 3.06 0 0 0 .573-1.631 2.1 2.1 0 0 0-.249-1.4c-.24-.328-.633-.508-1.038-.477a1.9 1.9 0 0 0-1.469.614zm14.502 5.943h-2.74l1.544-8.882-2.814.8.382-2.216 5.346-1.785.307-.008zm4.458 1.038h-2.035l6.275-13.124h2.042zm11.1-5.17h-4.857l.374-2.158h4.856z" class="E"/><g fill="#fff" class="C"><rect width="87.891" height="26.367" rx="13.184" stroke="none" x="209.82" y="264"/><rect x="210.82" y="265" width="85.891" height="24.367" rx="12.184" fill="none" class="D"/></g><path d="M226.038 280.108c1.53 0 2.547-.765 2.547-2.052v-.018c0-1.18-.9-1.647-2.35-1.962-.873-.2-1.1-.324-1.1-.612v-.018c0-.225.207-.4.63-.4a3.16 3.16 0 0 1 1.764.621l.873-1.233c-.738-.576-1.656-.873-2.592-.837-1.512 0-2.44.846-2.44 2.016v.018c0 1.3 1.035 1.674 2.376 1.98.855.2 1.062.342 1.062.6v.018c0 .27-.252.432-.72.432a3.25 3.25 0 0 1-2.043-.76l-.972 1.164a4.4 4.4 0 0 0 2.952 1.044zm6.228.01c.805.104 1.614-.17 2.2-.74a2.63 2.63 0 0 0 .76-2.184V273.7h-1.773v3.546c0 .882-.46 1.3-1.16 1.3s-1.16-.436-1.16-1.346v-3.5h-1.773v3.537a2.6 2.6 0 0 0 2.916 2.88zm3.987-.117h3.252c1.5 0 2.385-.657 2.385-1.737v-.018a1.53 1.53 0 0 0-1.251-1.539 1.46 1.46 0 0 0 .966-1.406v-.018a1.38 1.38 0 0 0-.4-1.015c-.473-.414-1.094-.62-1.72-.567h-3.23zm1.7-3.8v-1.1h1.134c.522 0 .792.2.792.54v.018c0 .37-.3.55-.828.55zm0 2.385v-1.16h1.332c.585 0 .855.225.855.567v.018c0 .37-.306.576-.837.576zm4.735 1.404h1.7v-3.6l1.6 2.448h.036l1.6-2.466V280h1.737v-6.3h-1.843l-1.5 2.44-1.506-2.44h-1.845zm7.848 0h1.755v-6.3h-1.755zm4.446 0h1.746v-4.77h1.9v-1.53h-5.526v1.53h1.9zm28.796-.202l-8.678-3.4.182-.42a1.47 1.47 0 0 0 .058-1.039l.028-.03.92-1.214c.087-.262-.036-.547-.286-.664l-2.907-1.3a.54.54 0 0 0-.683.231l-.287 1.502-.004.04a1.46 1.46 0 0 0-.73.738l-.704 1.58a1.47 1.47 0 0 0-.058 1.039l-.028.03-.918 1.218c-.087.262.036.547.286.664l2.907 1.3a.54.54 0 0 0 .683-.231l.287-1.502.004-.04a1.46 1.46 0 0 0 .73-.738l.204-.46 8.316 4.2a.43.43 0 0 0 .606-.155l.363-.818c.038-.112.028-.235-.027-.34s-.15-.183-.264-.216z" class="E"/><path d="M389.174 373.43c6.167 6.455 10.12 15.8 0 21.07s-27.273 9.853-40.484 0l-13.684-10.216c-13.442-4.2-31.016-7.71-36.1-12.384s-16.1-16.218-16.33-18.842c-.484-5.05-1.636-10.015-3.425-14.763-2.145-5.073-5.225-8.685-2.747-8.352s7.755 3.062 10.566 7.738 3.42 7.948 6.692 9.614 14.1 5.733 14.435 5.844l-.792-1.332-14.208-36.428s-23.615-18.072-24.626-24.272-.2-9.42 2.2-7.69 14.383 14.085 17.8 15.2 12.238 6.733 13.845 9.4 5.95 9.14 6.224 9.55l-5.266-11.017-3.95-3.536s7.352-2.15 11.5-.55c3.688 1.42 9.842 11.69 11.145 13.915l-7.013-12.32s7.148-2.478 10.625-.48c2.262 1.3 4.933 6.183 6.522 9.427-1.25-2.922-2.7-7.013-1.31-7.563 2.2-.87 7.148-.2 10.3 4.26s14.8 28.38 18.7 35.592 5.564 13.02 11.852 17.428c2.133 1.52 11.37 4.252 17.538 10.707z" fill="url(#A)"/></svg>