<svg xmlns="http://www.w3.org/2000/svg" width="611.989" height="448.029"><style><![CDATA[.B{fill-rule:evenodd}.C{fill:#fcf5ee}.D{fill:#cdd4fa}.E{fill:#3831ac}.F{fill:#f8951d}.G{fill:#4940d4}.H{fill:#f1bdac}.I{fill:#c47617}.J{fill:#29247e}]]></style><g class="B"><path d="M2.27 358.6c3.222 18.163 11.276 35.124 23.316 49.1a113.51 113.51 0 0 0 86.768 40.321h402.782c34.63 0 66.676-18.32 84.246-48.16 5.49-9.29 9.218-19.5 11-30.15 9.347-56.07-24.575-103.4-35.79-134.794s1.48-70.387-25.3-109.637-77.84-39.636-120.3-51.154c-61.9-16.792-66.22-51.544-107.34-65.872S195.072-6.088 146.37 44.087c-41.11 42.35-23.84 101.518-57.468 141.616S-13.32 269.154 2.27 358.6zm589.294-153.782c5.942-2.28 14.072 4.473 18.137 15.072s2.547 21.056-3.4 23.337-14.068-4.473-18.137-15.072-2.545-21.056 3.4-23.337zM21.8 175.586c-17.286-6.843-20.524-39.647-7.226-73.207S52.7 47.13 70 53.98s20.525 39.664 7.226 73.216-38.125 55.246-55.415 48.39zm382.85-160.8c4.537-9.982 22.674-11.52 40.477-3.434s28.58 22.76 24.043 32.74-22.67 11.526-40.47 3.44-28.575-22.763-24.046-32.745z" fill="#747df6"/><path d="M606.118 385.7a89.67 89.67 0 0 1-6.74 14.164c-17.575 29.834-49.618 48.147-84.243 48.146h-402.78c-33.452.001-65.202-14.754-86.77-40.324a107.84 107.84 0 0 1-14.484-21.99z" fill="#9ca3f5"/><path d="M358.134 31.654c5.225 4.75 10.43 9.72 16.317 14.618v68.514h-77.904V31.654z" class="C"/></g><path d="M296.536 114.786h77.907v24.348h-77.907z" class="G"/><g class="B"><path d="M65.772 255.493c3.235 3.24-.355 12.1-8.05 19.78s-16.544 11.287-19.77 8.05.355-12.1 8.05-19.776 16.534-11.287 19.77-8.052zm.001 30.13c3.235 3.235-.355 12.1-8.05 19.776s-16.544 11.287-19.78 8.052.355-12.1 8.05-19.78 16.544-11.288 19.78-8.05zm-.001 30.126c3.235 3.24-.355 12.1-8.05 19.78s-16.544 11.287-19.77 8.05.355-12.1 8.05-19.776 16.534-11.294 19.77-8.052z" class="F"/><path d="M38.53 354.79v-98.166c.015-.644-.32-1.245-.874-1.57s-1.243-.326-1.798 0-.9.928-.874 1.57v98.166z" class="G"/><path d="M7.74 315.746c3.235-3.235 12.1.372 19.78 8.052s11.287 16.54 8.05 19.776-12.1-.355-19.776-8.05-11.287-16.537-8.052-19.78zm0-30.126c3.235-3.24 12.1.355 19.78 8.05s11.287 16.544 8.05 19.78-12.1-.355-19.776-8.052-11.287-16.54-8.052-19.776zm0-30.13c3.235-3.235 12.1.372 19.78 8.052s11.287 16.54 8.05 19.78-12.1-.372-19.776-8.052-11.287-16.537-8.052-19.776zm29.016-29.7c4.08 0 7.392 7.864 7.392 17.544s-3.313 17.544-7.392 17.544-7.392-7.86-7.392-17.548 3.315-17.534 7.393-17.534z" class="F"/><path d="M69.085 439.455a113.51 113.51 0 0 1-43.5-31.765 102.67 102.67 0 0 1-23.316-49.1q-.337-1.915-.617-3.8h67.433z" class="C"/><path d="M69.085 439.455a113.51 113.51 0 0 1-43.5-31.765l-4.945-6.286h48.444z" class="G"/><path d="M251.958 194.13l2.558.837c6.46 2.114 11.673 6.946 14.27 13.228L284.1 245.22l-32.152 13.014z" class="C"/></g><path d="M149.118 282.626h105.767v21.49H149.118z" class="D"/><g class="B"><path d="M254.888 282.626v-87.53l-29.474-9.652h-45.546l-30.747 9.652v87.53z" class="C"/><path d="M149.118 304.115l7.67-33.56 2.767-36.89-10.436-38.57z" class="D"/><path d="M149.118 195.095h0c-7.4 2.32-13.22 8.042-15.68 15.388l-20.673 61.75 34.553 10.9 13.015-52.63c2.14-8.67.534-17.843-4.427-25.27z" class="C"/><path d="M179.865 185.436h45.546l-15.06 90.63z" class="I"/><path d="M181.447 139.124s-11.1-12.227-11.1-20.794c.713-7.8 6.5-14.186 14.193-15.66 4.164-10.642 15.923-16.565 23.078-16.338s38.477 18.67 39.693 22.167-4.3 17.456-14.544 22.085z" class="J"/><path d="M247.31 108.494c1.22 3.5-76.974 18.4-76.974 9.84.708-7.802 6.495-14.194 14.19-15.67 4.16-10.642 15.923-16.565 23.078-16.335s38.49 18.67 39.707 22.166z" class="E"/><path d="M193.138 135.538c2.944-6.1 3.9-13.48 3.66-21.606 22.163 17.938 29.385 13.15 18.633-4.136l19.59 14.022v33.7a13.13 13.13 0 0 1-13.125 13.125h-2.95V188.5l-13.064 6.587-18.18-6.577v-36.608a9.1 9.1 0 0 1 0-18.19c1.96-.006 3.87.632 5.434 1.816z" class="H"/><path d="M218.96 170.645l-15.63-2.267c3.065 6.587 8.822 9.716 15.63 11.49z" fill="#d36e67"/><path d="M200.6 204.364l-2.94 33.964 12.692 37.74 6.28-37.74-5.055-33.964z" class="E"/><path d="M225.4 185.437l-15.06 90.63 26.93-28.42-11.873-13.987 13.753-9.648-8.456-36.845z" class="D"/><path d="M197.555 199.214l3.044 5.15h10.975l2.27-5.15-8.16-9.333z" class="E"/><path d="M187.704 176.94l17.995 12.94-11.667 13.192-14.146-17.636 7.836-8.5z" class="F"/><path d="M179.866 185.437l30.483 90.63-30.483-26.028 9.82-14.544-19.42-8.474 5.048-40.158 4.537-1.42z" class="D"/><path d="M218.958 176.94l-13.26 12.94 11.68 13.192 8.03-17.637z" class="F"/><path d="M243.044 308.127c0-2.127-1.725-3.852-3.852-3.852H95.647c-2.127 0-3.852 1.725-3.852 3.852v17.978c.002 2.126 1.726 3.85 3.852 3.852h143.545c2.126-.002 3.85-1.726 3.852-3.852z" class="G"/></g><path d="M109.488 329.957H225.35V448H109.488z" class="C"/><path d="M225.35 329.957h205.82V448H225.35z" class="D"/><path d="M239.192 304.275H431.17v25.685H239.192z" class="E"/><g class="B"><path d="M288.232 197.54l-2.557-19.935a3.19 3.19 0 0 1 1.958-3.356h0c1.5-.6 3.22 0 4 1.42l2.306 4.2 4.48-15.77a3.68 3.68 0 0 1 5.044-2.345l11.727 5.253a4.9 4.9 0 0 1 2.891 4.767l-.876 14.6a9.9 9.9 0 0 1-.514 2.625l-5.654 16.672-22.8-8.12z" class="H"/><path d="M294.192 284.216l-35.416-11.93-12.79 32h25.827c9.74 0 18.324-6.403 21.1-15.74z" class="D"/><path d="M286.054 204.074l-30.116 75.3a18.15 18.15 0 0 0 16.844 24.898h0c9.17.012 17.253-6.01 19.864-14.8l21.915-73.8a1.42 1.42 0 0 0-.883-1.738l-27.622-9.84z" class="C"/><path d="M286.054 204.073l2.178-6.537 24.3 8.655a1.42 1.42 0 0 1 .862 1.813l-1.837 5.154zm6.106 28.037a2 2 0 0 0-1.965-2.728H241.1a3.9 3.9 0 0 0-3.5 2.728l-17.478 62.633a2 2 0 0 0 1.969 2.728h49.093c1.62-.1 3-1.178 3.487-2.728z" class="F"/><path d="M220.133 294.743l10.49-29.374h15.5a2.24 2.24 0 0 1 2.075 3.079l-7.07 17.51a6.52 6.52 0 0 1-3.427 3.522l-15.732 6.875-1.42.493a2.16 2.16 0 0 1-.416-2.104z" class="I"/><path d="M278.562 226.23c.117-.33.064-.696-.142-.98s-.537-.448-.887-.44H256.3a2.02 2.02 0 0 0-1.823 1.419l-1.852 6.644c-.128.33-.08.7.127.988s.545.45.898.43h21.224a2.02 2.02 0 0 0 1.823-1.419l1.855-6.644z" class="E"/><path d="M112.766 272.233l83.75-3.25V304.1h-60.8a24.2 24.2 0 0 1-22.947-31.882z" class="C"/><path d="M111.61 277.785c1.102 12.5 11.56 22.07 24.1 22.074h60.8v4.257h-60.8a24.2 24.2 0 0 1-24.1-26.331z" class="D"/><path d="M196.515 268.984l8.446-1.2v27.775a1.42 1.42 0 0 1-1.32 1.419l-7.126.494z" class="F"/><path d="M204.958 267.782l11.35-9.73c.77-.66 1.69-1.12 2.682-1.34l12.55-2.838-1.994 7.144h15.5a2.24 2.24 0 0 1 2.079 3.079l-7.068 17.505c-.638 1.578-1.868 2.843-3.427 3.526L220.9 292l-15.94 1.352v-25.58z" class="H"/><path d="M477.522 175.895s14.19-26.515 10.964-41.595-10.964-13.153-10.964-13.153 3.78-10.106-11.152-18.172-42.155-13.745-45.826-9 5.406 17.537 5.406 17.537-11.152 3.682-12.1 7.364 14.544 17.89 14.544 17.89l34.93 39.14h14.19" class="J"/><path d="M488.486 134.303c-3.214-15.083-10.964-13.153-10.964-13.153s3.78-10.106-11.152-18.172-42.16-13.745-45.826-9 5.4 17.537 5.4 17.537-11.152 3.682-12.1 7.364 14.544 17.89 14.544 17.89 63.3 12.625 60.083-2.455z" class="E"/><path d="M452.41 139.76a8.42 8.42 0 0 1 14.004 8.233 8.42 8.42 0 0 1-8.126 6.204c-.4.002-.798-.03-1.192-.092l6.814 18.708a4.72 4.72 0 0 0 4.434 3.1h9.177l1.366 10.908h-28.023l-1.366-10.908h-12.27c-1.755 0-3.438-.697-4.68-1.937s-1.938-2.924-1.937-4.68V154.44h-3.38c-1.18-.001-2.29-.553-3.002-1.492s-.946-2.157-.63-3.293l7.013-25.157h17.24l4.572 15.253z" class="H"/><path d="M449.485 175.898h9.5l-8.137 10.908z" fill="#d36e67"/><path d="M460.428 336.82l-28.49 18.39v30.506H518.5V336.82z" class="J"/></g><g class="E"><path d="M403.744 414.565h48.39v33.464h-48.39z"/><path d="M487.153 329.858l-118.77 13.8c-16.026 1.862-28.114 15.436-28.112 31.57v72.785h48.39v-62.315h70.792c13.35 0 24.433-10.316 25.387-23.633l2.313-32.207z" class="B"/></g><path d="M518.517 244.775v-20.972c0-12.89-7.88-24.47-19.868-29.2l-19.758-7.8h-28.02l-25.866 11.706v46.27z" class="B C"/><path d="M424.984 244.775l.79 59.5-2.32 35.437c-.237 3.638 2.362 6.846 5.97 7.368 18.09 2.526 69.7 8.61 89.092-.95V244.775z" class="B F"/><path d="M424.984 244.774v-32.616c3.2-3.41 24.5-2.06 22.347 8.946l-1.678 23.667z" fill="#f6d9bc" class="B"/><path d="M445.64 244.775l-3.5 49.423a24.88 24.88 0 0 1-16.938 18.914l.578-8.84-.79-59.5z" class="B I"/><g class="F B"><path d="M447.935 217.98c1.03-5.234-.334-10.655-3.723-14.775s-8.443-6.508-13.777-6.508h0c-8.34-.001-15.515 5.9-17.126 14.082l-13.9 70.4h36.054l12.462-63.2z"/><path d="M434.9 284.212a24.88 24.88 0 0 1-24.4 20.063h-50.97v-22.16l78.017-11.422z"/></g><path d="M359.517 282.116l-25.724 7.534a9.05 9.05 0 0 0-6.268 6.637l-.986 4.257a3.06 3.06 0 0 0 2.976 3.746h30.01v-22.174z" class="B H"/><path d="M555.34 282.126c0-6.314-5.12-11.433-11.433-11.433h-56.52c-5.868.001-10.783 4.445-11.372 10.284l-3.342 32.747c-.33 3.217.72 6.423 2.888 8.822s5.25 3.768 8.484 3.767h59.87c6.313 0 11.43-5.116 11.433-11.43z" class="B G"/><path d="M538.11 392.916c0-3.985-3.23-7.215-7.215-7.215H403.35a7.22 7.22 0 0 0-7.219 7.215v14.434c.004 3.985 3.234 7.213 7.22 7.215h127.533a7.22 7.22 0 0 0 7.215-7.215z" class="B E"/><path d="M467.118 392.916a7.22 7.22 0 0 0-7.215-7.215H403.35c-3.985 0-7.215 3.23-7.215 7.215v14.434a7.22 7.22 0 0 0 7.215 7.215h56.553c3.983-.004 7.21-3.232 7.215-7.215z" class="B G"/><path d="M457.178 414.564h19.88v33.464h-19.88z" class="E"/><g class="B"><path d="M522.795 300.27c0-.98-.794-1.774-1.774-1.774h-9.648c-.98 0-1.774.794-1.774 1.774v128.646h6.81c3.526 0 6.385-2.86 6.385-6.385z" class="C"/><path d="M516.197 300.27c0-.98-.794-1.774-1.774-1.774h-3.05c-.98 0-1.774.794-1.774 1.774v114.29h.21c3.526 0 6.385-2.86 6.385-6.385z" class="D"/><path d="M528.353 371.433a2.13 2.13 0 0 0-2.128-2.128h-20.038a2.13 2.13 0 0 0-2.128 2.128v57.482h17.924c3.526 0 6.385-2.86 6.385-6.385z" class="C"/><g class="D"><path d="M516.196 369.305h-10a2.13 2.13 0 0 0-2.128 2.128v57.482h5.77c3.526 0 6.385-2.86 6.385-6.385z"/><path d="M509.6 414.564h-77.88v9.248a5.1 5.1 0 0 0 5.1 5.1h72.775z"/></g><path d="M132.13 152.936H48.558c-2.848 0-5.58-1.13-7.592-3.145s-3.145-4.745-3.145-7.592V86a10.74 10.74 0 0 1 10.737-10.737h86.57a10.74 10.74 0 0 1 10.737 10.737v56.24l6.005 12.13c.494 1.012.335 2.22-.403 3.07s-1.914 1.176-2.985.83l-16.35-5.353z" class="C"/><path d="M66.802 128.006h-13.15v13.147h13.15zm-9.6 3.547v6.055h6.055v-6.055zm18.57 4.8h54.272v-3.547H75.77zm-8.97-28.828h-13.15v13.15h13.15zm-9.6 3.547v6.055h6.055v-6.055zm18.57 4.8h54.272v-3.547H75.77zm-8.97-28.83h-13.15v13.15h13.15zm-9.6 3.547v6.055h6.055V90.6zm18.57 4.8h54.272v-3.547H75.77z" fill="#747df6"/></g></svg>