<svg xmlns="http://www.w3.org/2000/svg" xmlns:xlink="http://www.w3.org/1999/xlink" width="541.807" height="558.853"><style><![CDATA[.B{fill:#eea886}.C{fill:#f8951d}.D{fill:#cfb4a5}.E{fill:#f5f5f5}.F{fill:#323657}.G{fill:#803f2a}]]></style><defs><linearGradient id="A" x1=".5" y1="-.949" x2=".5" y2="17.61"><stop offset="0" stop-color="#dedede"/><stop offset="1" stop-color="#fff"/></linearGradient><linearGradient id="B" y1="-2.554" y2="16.005" xlink:href="#A"/><linearGradient id="C" y1="-4.158" y2="14.401" xlink:href="#A"/><linearGradient id="D" y1="-5.762" y2="12.797" xlink:href="#A"/><linearGradient id="E" y1="-7.367" y2="11.192" xlink:href="#A"/><linearGradient id="F" y1="-8.972" y2="9.587" xlink:href="#A"/><linearGradient id="G" y1="-10.576" y2="7.983" xlink:href="#A"/><linearGradient id="H" y1="-12.181" y2="6.378" xlink:href="#A"/><linearGradient id="I" x1=".5" y1="2.326" x2=".5" y2="-5.785"><stop offset=".01" stop-color="#e8d1c5"/><stop offset="1" stop-color="#fff"/></linearGradient><linearGradient id="J" y1=".5" x2="1" y2=".5"><stop offset=".01" stop-color="#dbc5bb"/><stop offset="1" stop-color="#f5f5f5"/></linearGradient><linearGradient id="K" x1="0" xlink:href="#J"/><linearGradient id="L" x1="1.326" x2=".189" xlink:href="#J"/><path id="M" d="M151.232 112.12a5.41 5.41 0 0 0 9.241 3.814 5.41 5.41 0 0 0-3.841-9.23 5.41 5.41 0 0 0-5.4 5.416z"/></defs><g transform="translate(88.506)"><path d="M426.23 0h4.808v477.097h-4.808zM25.707 0h4.808v477.097h-4.808z" fill="#ebf3f7"/><path fill="url(#A)" d="M0 0h453.3v9.094H0z" transform="translate(0 16.925)"/><path fill="url(#B)" d="M0 31.517h453.3v9.094H0z"/><path fill="url(#C)" d="M0 46.106h453.3V55.2H0z"/><path fill="url(#D)" d="M0 60.7h453.3v9.094H0z"/><path fill="url(#E)" d="M0 75.29h453.3v9.094H0z"/><path fill="url(#F)" d="M0 89.883h453.3v9.094H0z"/><path fill="url(#G)" d="M0 104.476h453.3v9.094H0z"/><path fill="url(#H)" d="M0 119.068h453.3v9.094H0z"/></g><g fill="#ebf3f7"><path d="M253.99 182.266c0-36.554 42.226-40.968 42.226-40.968s42.226 4.414 42.226 40.968z"/><path d="M295.384 0h1.648v157.056h-1.648zM35.736 149.534c0-30 34.643-33.608 34.643-33.608s34.637 3.618 34.637 33.608z"/><path d="M69.704 0h1.352v128.852h-1.352z"/></g><path fill="url(#I)" d="M0 0h416.887v101.135H0z" transform="translate(34.057 417.345)"/><g fill="#fff"><path d="M34.057 445.675h416.887v4.103H34.057z"/><path d="M359.626 417.345h3.608V518.48h-3.608zm-142.274 0h3.608V518.48h-3.608zm-109.872 0h3.608V518.48h-3.608z"/></g><path d="M210.532 410.067h27.585v7.3h-27.585c-1.11 0-2.012-.9-2.012-2.012v-3.266c0-1.11.9-2.012 2.012-2.012z" fill="url(#J)"/><path d="M242.845 410.818v5.8h.48v.748h-20c-1.11 0-2.012-.9-2.012-2.012v-3.268c0-1.11.9-2.012 2.012-2.012h20v.75z" class="D"/><path d="M224.816 410.818h18.03v5.8h-18.03c-1.11 0-2.012-.9-2.012-2.012v-1.765a2.01 2.01 0 0 1 2.012-2.024z" class="E"/><path d="M209.207 401.587h30.19v8.48h-30.19a2.53 2.53 0 0 1-2.534-2.521v-3.422a2.53 2.53 0 0 1 2.534-2.537z" fill="url(#K)"/><path d="M244.754 402.46v6.734h.415v.873h-16.42a2.53 2.53 0 0 1-2.537-2.521v-3.422a2.53 2.53 0 0 1 2.528-2.531h16.43v.873z" class="D"/><path d="M230.02 402.46h14.732v6.734H230.02a2.53 2.53 0 0 1-2.528-2.528V405a2.53 2.53 0 0 1 2.528-2.531z" class="E"/><path d="M2.747,0H25.692V10.395H2.747A2.747,2.747,0,0,1,0,7.647V2.723A2.747,2.747,0,0,1,2.747,0Z" transform="matrix(-1 0 0 -1 243.34 401.587)" fill="url(#L)"/><path d="M213.535 392.26v8.242h-.42v1.072h16.36a2.75 2.75 0 0 0 2.747-2.748v-4.924c0-.73-.29-1.427-.805-1.942s-1.214-.805-1.942-.805h-16.36v1.068z" class="D"/><path d="M228.003 400.515h-14.467v-8.242h14.467a2.72 2.72 0 0 1 2.72 2.72v2.822a2.72 2.72 0 0 1-2.72 2.7z" class="E"/><path d="M210.498 380.79h24.33v10.395h-24.33c-1.588 0-2.876-1.288-2.876-2.876v-4.643c0-1.588 1.288-2.876 2.876-2.876z" fill="url(#K)"/><path d="M239.185 381.86v8.242h.458v1.072h-17.367a2.88 2.88 0 0 1-2.879-2.876v-4.638a2.88 2.88 0 0 1 2.879-2.879h17.367v1.07z" class="D"/><path d="M223.768 381.863h15.4v8.243h-15.4c-.76 0-1.488-.302-2.024-.84s-.84-1.265-.84-2.024v-2.528c.007-1.577 1.286-2.85 2.863-2.852z" class="E"/><path d="M216.268 372.92h25.427v7.867h-25.42c-.474 0-.928-.188-1.263-.523s-.523-.79-.523-1.263v-4.3c.003-.982.797-1.777 1.78-1.78z" fill="url(#K)"/><path d="M246.054 373.733v6.246h.443v.812h-18.454c-.474 0-.928-.188-1.263-.523s-.523-.79-.523-1.263v-4.3c0-.474.188-.928.523-1.263s.79-.523 1.263-.523h18.445v.812z" class="D"/><path d="M229.408 373.733h16.65v6.246h-16.65c-.474 0-.928-.188-1.263-.523s-.523-.79-.523-1.263v-2.677c.002-.985.8-1.783 1.786-1.783z" class="E"/><g fill="#4c5385"><path d="M137.212 390.148l57.27-.43.04 5.245-57.27.43z"/><path d="M189.24 393.382l15.91-52.003 4.764 1.457-15.91 52.003z"/></g><path fill="#706865" d="M298.732 401.788h4.47V531.72h-4.47z"/><path fill="#b59074" d="M328.332 401.788h-196.42v-7.827h196.42z"/><path fill="#706865" d="M159.095 531.723h-4.47V401.79h4.47z"/><g fill="#918783"><path d="M7.873 535.985l1.166 3.285 49.336-15.285-2.363-6.652z"/><path d="M54.462 468.003h5.608v53.64h-5.608z"/></g><path fill="#5e5854" d="M40.727 465.154H73.8v3.16H40.727z"/><g fill="#918783"><path d="M107.09 535.985l-1.166 3.285-49.34-15.286 2.17-7.07z"/><path d="M72.326 538.918v3.822l-15.74-18.756 2.17-7.07z"/></g><g fill="#bfb2ac"><circle cx="4.61" cy="4.61" r="4.61" transform="matrix(.707107 -.707107 .707107 .707107 100.573 540.557)"/><circle cx="4.61" cy="4.61" r="4.61" transform="matrix(.707107 -.707107 .707107 .707107 61.595 540.557)"/><circle cx="4.61" cy="4.61" r="4.61" transform="matrix(.206887 -.978365 .978365 .206887 2.412 544.077)"/></g><g class="F"><rect width="78.356" height="11.973" rx="5.986" x="18.304" y="453.181"/><rect width="43.96" height="74.839" rx="21.98" y="369.957"/></g><path d="M44.46 462.2c-7.965 0-14.427-2.677-19.208-7.937-10.8-11.927-8.853-32.89-8.77-33.776a3.01 3.01 0 0 1 3.278-2.619 3.01 3.01 0 0 1 2.705 3.208c-.024.24-1.746 19.233 7.256 29.163 3.642 4.01 8.462 5.962 14.74 5.962 1.074 0 2.067.573 2.604 1.503s.537 2.077 0 3.007-1.53 1.504-2.604 1.503z" fill="#e2d2ca"/><path d="M108.68 538.183a46.37 46.37 0 0 1-3.947 6.225c-1.56 1.77-7.537 4.93-7.57 10.18-.034 5.7 10.074 4.115 14.043 3.908s4.253-3.25 5.92-6.475 3.34-2.68 3.663-5.28-1.615-8.548-1.615-8.548z" fill="#202338"/><path d="M119.013 536.46a22.32 22.32 0 0 1 .372 2.491c-.09.05-11.2 2.042-11.143.024a9.71 9.71 0 0 1 1.026-3.471z" fill="#81807e"/><path d="M153.347 283.307l-16.183-14.513 9.293-7.763 14.586 15.276z" fill="#51578c"/><path d="M152.9 281.798l-14-12.56 8.04-6.72 12.623 13.222z" fill="#3e3b42"/><g fill="#e3a080"><path d="M162.57 283.584c-.695-.173-1.282-.637-1.61-1.275s-.364-1.384-.1-2.05c.733-2.76-.39-3.4-.39-3.4l-8.548 7.75s4.124 3.782 5.38 3.94 6.523-3.453 5.27-4.967z"/><path d="M151.906 284.6l-5.66-3.627a46.44 46.44 0 0 1-3.743-3.813c-.946-1.242 3.1-1.33 4.195-.04a6.17 6.17 0 0 0 3.025 1.832c.76.305 4.906 1.105 5.8 2.38s-3.617 3.267-3.617 3.267zm6.967-9.426a.62.62 0 0 1-1.114-.125c-.5-.888-.443-2.934.815-2.442s.3 2.567.3 2.567zm-1.585-2.714s-.226 1.526-1 .827-1.55-3.218-.2-3.147 1.2 2.32 1.2 2.32zm-2.21-2.213s0 1.832-.916 1.294c-.68-.4-1.645-3.685-.284-3.615s1.2 2.32 1.2 2.32z"/></g><path d="M155.044 288.085l7.913-7.1 31.8 26.36c4.814 3.312-5.57 12.965-9.51 11.906-10.785-2.876-29.178-3.544-38.877-8.908-14.714-8.114-5.23-22.337-.553-20.936s21.885 10.6 21.885 10.6z" class="F"/><path d="M168.654 537.34s4.884 5.437 9.818 6.58 8.407 2.592 8.444 5.712-14.232 5.2-19.892 2.033c-8.447-4.7-9.308-3.282-10.242-5.63s1.123-8.624 1.062-9.37c-.078-.923 10.8.674 10.8.674z" fill="#202338"/><path d="M168.11 534.737a22.08 22.08 0 0 1 .546 2.6c-.1.055-11.143 1.37-10.8-.675.272-1.66.66-3.462.66-3.462z" fill="#81807e"/><path d="M158.06 382.207l6.106 52.383c2.442 15.62 3.273 28.525 3.97 36.612.858 10.166 1.023 60.188 1.62 63.162s-13.3.82-13.3.82-6.86-65.363-9.406-76.19c-2.378-10.074-11.2-53.5-13.368-50.743s-4.86 50.676-6.466 58.613-6.493 70.214-6.493 70.214-11.07 2.2-14.012-.287c0 0-1.343-53.66-.305-68.568.388-5.68-6.658-68.132 2.378-93.27 4.765-13.287 49.286 7.255 49.286 7.255z" fill="#292c47"/><path d="M89.186 387.746s6.777 2.058 9.613 1.526 1.4-35.336 1.526-42.583c.09-5.874 3.3-21.388 3.3-21.388a.2.2 0 0 0 0 .024v.042c.32 1.163 4.66 17.263 4.808 25 .16 8.026-1.044 38.737-1.044 38.737l10.782 5.08 37.287 1.072 5.434.083-1.175-24.444c-.2-3.97-.968-11.063-.772-17.975 0 0-.125-7.3.61-10.425.08-13.854.916-27.573.916-27.573q.7-9.424.974-17.633l-4.8-2.442-14.83-6.9c-2.363-1.087-4.677-1.877-4.677-1.877l-17.428-1.462a40.74 40.74 0 0 0-5.071 1.734c-5.718 2.167-16.738 6.585-18.494 7.846-2.573 1.832-8.014 45.63-8.26 48.695-.445 5.542 1.3 44.853 1.3 44.853z" class="C"/><path d="M119.79 284.593c1.184 10.865 13.25 10.865 13.25 10.865s4.994-4.37 4.836-7.6a.81.81 0 0 0-.018-.211c-.073-.61-.748-1.334-.818-2.528.003-.164-.003-.328-.018-.49-.01-.162-.01-.323 0-.485 0-.824.052-1.64.1-2.207l.05-.5.034-.305s-1.945-2.048-4.414-4.49c-4.32-4.274-10.26-9.74-10.27-7.568.003.14.02.28.052.415 1.037 4.887-2.782 15.106-2.782 15.106z" class="B"/><g fill="#b57343"><path d="M87.044 410.202s.635-8.636 2.943-9.943.946 1.346.946 1.346-1.38 6.252-1.7 8.79a13.09 13.09 0 0 1-2.189-.192z"/><path d="M109.86 416.295l-30.43-9.128-.476 37.64 30.14 18.686z"/><path d="M109.094 463.494l-3.84.647L75.947 445.3l.94-38 2.543-.134z"/></g><path d="M128.018 290.994l5.022 4.47s-5.8-.385-6.88-1.35z" fill="#a09ea6"/><path d="M159.86 389.494s-23.592 2.01-44.265 0v6.777s31.03 4.482 45.29-1.29z" fill="#292c47"/><path d="M139.738 287.083s3.84 9.015 6.716 29.166c1.105 7.74 3.157 20.76 4.646 34.066h0c1.175 10.483 3.856 21.24 4.707 29.264l3.544 32.8 6.454-4.066c.916-.855 2.2-1.96 1.832-3.156-1.774-5.73-5.17-24.67-7.177-41.18v-.034l-.28-2.37v-.125c-.38-3.3-.693-6.466-.916-9.363a29.51 29.51 0 0 1 .305-6.512c.916-14.818 1.346-30.442 1.346-30.442.473-6.4.745-12.373.916-17.94-1.55-.653-3.416-2.064-5.037-2.833l-10.135-4.674c-1.636-.757-3.526-1.117-4.83-1.716zm-38.93 59.944c-.5 6.716 2.345 43.926-.495 44.448s-13.27-1.77-13.27-1.77l-.888-44.323c.305-3.053 5.2-48.976 7.754-50.82 1.484-1.065 12.495-4.97 17.9-7.1l5-2.04c1.148 1.273 11.13 24.7 12.08 42.98.3 5.562-1.013 17.306-2.006 26.9l-3.1 26.8-2.876 30.287-16.795-7.47c-2.714-1.36-6.478-6.936-5.455-9.8 3.88-10.868 8.768-29.44 8.774-38.978 0 0-1.874-23.354-3.358-28.488a146.29 146.29 0 0 0-3.276 19.382z" class="F"/><path d="M97.69 391.04l1.948 7.5c1.118 3.75 2.183 4.96 1.68 7.095-.382 1.61-2.225 2.793-2.68 2.268s-.583-6.808-3.184-6.82.66 7.79-.882 7.2-7.455-3.947-7.02-7.1 2.842-5.412 2.747-10.14c-.08-4.3 1.288-6.075 1.288-6.075z" class="B"/><path d="M95.702 400.826s3.453.94 3.07 12.66l-3.917-.714s.17-6.478-.946-10.028c0-.003.232-2.293 1.792-1.918z" fill="#b57343"/><path d="M101.25 365.836l-.174 29.566c-4.81-.426-9.538-1.526-14.043-3.267l-.552-41.676z" class="F"/><path d="M138.53 291.784s.43 6.17-4.8 6.313-9.363-4.884-9.363-4.884l8.664 2.235 5.272-4.47z" fill="#cac7d1"/><path d="M120.487 282.565s4.95 6.35 7.53 8.43l-4.234 7.1-7.3-12.547z" fill="#eae6f2"/><path d="M137.506 292.15l-4.466 3.313s3.923-7.156 4-10.34z" fill="#a09ea6"/><path d="M137.04 285.123l2.867 2.027 3.2 9.53-5.6-4.52z" fill="#eae6f2"/><path d="M151.244 253.32s3.15 7.662 1.093 8.587c-1.7.763 1.032 8.242 1.365 9.464s-3.114 1.7-3.908 2.378-3.874 9.656-6.667 9.64-14.8-5.657-17.82-9.54-4.13-20.11-1.16-26.593 21.528-7.336 27.096 6.063z" class="B"/><path d="M151.864 254.97s4.817-7.412-1.832-13.988-21.092 2.22-22.642 2.442-10.773 2.216-7.6 15.987l2.943 12.617s3.605-6.5 5.293-7.476c2.638-1.526 7.962-.528 7.962-.528s-1.832-7.064 2.256-7.6 9.73-3.38 13.62-1.454z" fill="#754836"/><path d="M132.136 259.687c-.256-.97-.974-5.1-4.66-3.1s1.1 10.126 1.688 10.288 5.118.966 2.97-7.188z" class="B"/><path d="M125.774 274.402a20.42 20.42 0 0 0 11.234 10.23v-.5l.1-2.207.05-.5c.007.001-9.03-4.243-11.383-7.033z" fill="#a77860"/><path d="M361.77 197.146a87 87 0 0 1-39.383 72.869l-.15.095a82.02 82.02 0 0 1-7.156 4.2c-12.455 6.536-26.316 9.94-40.382 9.915q-3.4 0-6.74-.263c-4.037-.303-8.047-.893-12-1.765q-4.1-.916-8.047-2.186a80.77 80.77 0 0 1-4.579-1.624 58.08 58.08 0 0 1-2.616-1.056c-40.162-17.01-61.546-61.11-50.033-103.18s52.372-69.134 95.6-63.324 75.49 42.702 75.488 86.318z" fill="#fff"/><path d="M276.633 271.306l-8.688 12.66c-4.037-.303-8.047-.893-12-1.765q-4.1-.916-8.047-2.186a80.77 80.77 0 0 1-4.579-1.624c.61-13.255.65-27.17-.675-38.72-3.813-33.422 2.964-67.005 2.964-67.005z" class="G"/><path d="M315.067 274.314c-18.172 9.487-39.102 12.28-59.126 7.888.916-4.274 1.636-7.824 1.725-9.064.278-3.92-6.98-26.932-7.427-28.012s-11.958-9.045-14.2-16.958 7.5-47.87 7.5-47.87 18.854-21.72 33.086-18.833 32.943 12.306 34.61 15.707-.7 38.16-1.978 41.67-.226 32.36.027 36.22c.12 1.75 2.838 10.347 5.784 19.252z" fill="#fff8f1"/><path d="M322.373 270.015l-7.305 4.3c-4.482 2.35-9.16 4.304-13.982 5.84-8.63-18.558-16.464-36.163-19.788-47.724-9.14-31.786.19-70.473.19-70.473h0c10.706 1.832 25.225 7.952 28.827 12.672.168.23.306.478.412.742 1.246 2.293 4.58 12.184 8.285 19.486 0 0-4.988 3.685-8.493 11.875a31.93 31.93 0 0 0-2.747 10.99 19.18 19.18 0 0 0 .391 4.994c.116.53.253 1.065.418 1.59l9.525 30.036c.073 1.48.27 2.952.59 4.4v.043c.812 3.536 1.915 7 3.3 10.352.135.278.254.574.38.876z" class="C"/><path d="M322.373 270.016c-.05.027-.1.064-.15.095-9.2-10.572-21.287-56.6-21.287-56.6 2.6-.266 4.884 1.386 6.85 4.2 7.73 11.03 10.807 39.918 10.923 41.02v.043a65.56 65.56 0 0 0 3.3 10.352l.364.9z" class="G"/><g class="B"><path d="M369.35 280.114s5.172 2 7.632-.61c1.875-2 5.15-5.654 5.666-6.716.476-.983 3.285-4.884 3.825-2.854s-2.647 11-4.076 12.092 6.215 2.9 7.327 4.36-2.827 14.348-7.92 12.48-8.82-7.13-9.693-7.562l-7.2-3.12z"/><path d="M388.65 285.66s15.2 6.77 15.826 8.1.2 2.158-1.255 1.587-14.882-6.106-14.882-6.106 16.6 11.146 17.35 12.113c.437.568-.305 2.226-1.1 1.994s-17.9-10.285-17.9-10.285 15.484 10.434 15.875 11.442c.156.516-.016 1.074-.435 1.413s-1 .39-1.473.132l-16.128-9.53s10.58 8.3 10.615 9.393c.03.95-.675 2.106-3.39-.134s-9.68-6.826-9.68-6.826z"/></g><path d="M323.994 212.042c3.034 14.565 8.758 35.507 10.248 38.083.662 1.148 3.187 3.157 6.64 6.047 5.016 4.195 32.94 24.117 32.94 24.117.125 5.007-6.695 11.952-6.695 11.952-4.555-2.8-14-8.362-24.117-13.823-11.656-6.292-20.078-12.54-22.264-15.847-4.085-6.176-18.286-43.746-21.162-53.2-1.108-3.642-2.363-9.717-3.486-15.823-1.484-8.056-2.748-16.146-3.132-18.726l-.128-.84s6.038-7.907 17.1.19c-.004-.02 7.823 7.948 14.057 37.87z" class="C"/><path d="M222.218 158.806l18.093-26.76-16.2-7.84-15.515 27.29z" fill="#51578c"/><path d="M222.315 156.466l15.658-23.158-14.018-6.786-13.43 23.62z" fill="#d5cae3"/><g fill="#e3a080"><path d="M209.024 162.537s3.318-1.7 1.264-5.413-.662-5.043-.662-5.043l15.142 8.087s-4.58 6.942-6.334 7.632-10.677-2.63-9.4-5.263z"/><path d="M224.767 160.167l6.85-7.272c1.476-2.2 2.82-4.488 4.02-6.85.916-2.134-4.43-.305-5.538 1.957a9.06 9.06 0 0 1-3.386 3.828c-.992.7-7.516 2.747-8.362 4.912s6.415 3.425 6.415 3.425zm-13.447-11.1c.257.245.632.322.964.197s.564-.43.596-.783c.388-1.462-.406-4.4-2.055-3.215s.495 3.8.495 3.8zm1.302-4.485s.867 2.094 1.746.83 1.075-5.2-.864-4.607-.882 3.777-.882 3.777zm2.403-3.992s.662 2.628 1.777 1.526c.84-.82 1.044-5.907-.894-5.312s-.883 3.786-.883 3.786z"/></g><path d="M252.003 166.816l-10.916 40.54-6.512 5.3c-8.423 6.814-27.444 19.538-29.5 20.28-2.662.943-16.18 1.32-17.07-7.9s20.41-62.4 20.41-62.4c6.567-1.6 13.92 1.557 13.92 1.557l-11.32 42.49c5.45-3.798 10.163-8.557 13.908-14.043 3.245-4.72 10.324-11.433 16.43-16.83 4.133-3.663 7.82-6.716 9.573-8.14l1.075-.865z" class="C"/><path d="M227.926 102.632s-15.15 9.66-12.45 23.28c4.167 21.064 19.706 27.17 20.994 40.672s-4.7 18.344-4.7 18.344l23.454-20.76z" fill="#454442"/><path d="M275.623 160.466c-2.006 21.546-13.6 37.213-18.112 39.6s-9.51-22.407-7.046-26.8c.653-1.493.85-3.145.568-4.75a41.29 41.29 0 0 0-2.711-9.867c-.385-.974-.65-1.57-.65-1.57s14.653-28.376 17.605-13.4 10.346 16.786 10.346 16.786z" class="B"/><path d="M261.458 152.73c-.055.18-3.663 11.616-10.425 15.783-.49-3.39-1.402-6.703-2.71-9.867z" fill="#a87860"/><path d="M220.97 109.702s1.633 28.65 10.157 41.438c13.673 20.52 20.19 13.646 28.837 3.663 12.49-14.437-4.656-51.357-4.656-51.357z" class="B"/><g fill="#454442"><path d="M220.4 132.796s9.082 2.17 22.12-5.715c12.938-7.824 18.18 22.172 21.287 22.975s4.884-32.665-2.158-40.5-19.63-17.4-32.18-9.378c-13.76 8.782-15.762 20.694-9.07 32.618z"/><path d="M223.92 105.047s4.732-7.968 18.88-8.67c10.77-.52 27.64 10.47 29.505 32.6 2.4 28.342 15.587 33.58 21.565 36.365s-20.377.992-28.324-11.332c-3.61-5.6-8.4-13.83-10.108-19.648s-14.5-28-23.845-23.848-7.674-5.467-7.674-5.467z"/></g><path d="M252.846 135.134c-1.22-3.605 4.155-7.458 6.167-4.707s1.407 12.61-1.935 11.536-4.232-6.83-4.232-6.83z" class="B"/><path d="M245.114 210.3c-.543 12.66 5.1 32.646 2.78 69.716q-3.663-1.178-7.192-2.68c.638-17.242.348-33.864-2.42-41.255-3.834-10.23-4.228-9.72-3.71-23.427.4-10.57.61-20.353 4.906-34.56l11.46-10.4a25.54 25.54 0 0 1-.2 9.076c-1.565 9.07-5.19 23.294-5.625 33.53z" class="C"/><path d="M211.017 206.694l-4.457 14.17 9.726-18.35z" class="G"/><g fill="#9cb839"><path d="M332.408 493.28l-.495-.028c0-.18.953-18.317.7-39.607-.24-19.65-1.584-46.1-6.615-60.54l.467-.162c5.052 14.494 6.4 41.008 6.643 60.7.265 21.32-.68 39.453-.7 39.637zm7.144-.004c-.058-1.163-6.026-116.744-13.57-151.537l.48-.1c7.556 34.83 13.524 150.453 13.582 151.616z"/><path d="M336.78 497.135c-.052-1.03-5.144-102.943-1.154-123.524l.482.095c-3.97 20.52 1.11 122.377 1.163 123.405z"/><path d="M336.447 494.884h-.495c0-.574.055-57.6 4.67-83.625l.485.085c-4.6 25.988-4.66 82.97-4.66 83.54z"/><path d="M376.5 388.923s-5.092-34.7-17.822-18.244c-8.786 11.356-14.525 27.384-17.233 36.218a50.64 50.64 0 0 0-2.137 11.906l-.568 9.723c27.603-72.063 37.76-39.603 37.76-39.603zm6.422-41.57s5.1-33.178-23.812-18.387c-27.7 14.174-24.608 56.78-24.608 56.78 1.66-7.1 4.66-26.1 14.56-38.407 26.22-32.6 33.86.013 33.86.013zM354.12 453.6c-16.485-3.25-17.4 10.883-17.4 10.883v5.2c1.407-8.936 17.4-16.073 17.4-16.073zm-40.666-142.662c-16.125-12.092-24.822 0-24.822 0s30.992 1.5 42.757 69.8c.002.001-1.8-57.7-17.935-69.8zm-13.35 48.8s25.85 33.5 31.053 60.875l-.57-6.4s-1.026-48.594-30.482-54.464z"/><path d="M331.156 420.593l.888 9.986a46.4 46.4 0 0 0-.888-9.986zm-20.02 12.1s20.386 21.2 21.754 25.668c0 0-8.178-24.395-21.754-25.668z"/></g><g fill="#b4bc5c"><path d="M352.852 535.14l7.373-44.55H311.68l7.372 44.55z"/><path d="M307.115 478.648h57.673V490.6h-57.673z"/></g><path d="M360.228 490.58h-48.54l7.363 44.57h8.3s-8.117-34.58 31.285-34.936z" fill="#47665c"/><path d="M358.82 196.174h-1.25c-.057-45.55-36.97-82.463-82.52-82.52v-1.25c46.244.052 83.72 37.527 83.77 83.77zm-86.512 97.4c-53.227-.06-96.36-43.195-96.42-96.422h1.252c.006 52.56 42.617 95.163 95.176 95.16s95.164-42.614 95.162-95.174-42.612-95.165-95.17-95.164v-1.252c53.134.17 96.116 43.293 96.116 96.427s-42.983 96.255-96.116 96.426z" fill="#e8734d"/><path d="M213.044 209.246l-50.093.015.012 36.3v7.645l7.647-7.65 42.446-.012z" fill="#e0e0e0"/><path d="M191.827 228.866a3.82 3.82 0 1 1-1.116-2.708c.717.72 1.118 1.693 1.116 2.708zm12.565.012c-.001 1.547-.934 2.94-2.364 3.532s-3.075.262-4.168-.833-1.418-2.74-.825-4.17a3.83 3.83 0 0 1 3.537-2.357c2.112.003 3.822 1.716 3.82 3.828zm-24.842-.028a3.82 3.82 0 1 1-1.115-2.708 3.83 3.83 0 0 1 1.115 2.708z" fill="#fff"/><path d="M121.238 84.385l70.818.02-.015 62.145-10.808-10.815-60.008-.018z" class="C"/><g fill="#fff"><use xlink:href="#M"/><use xlink:href="#M" x="-17.762" y="0.02"/><path d="M168.6 112.102c.004 2.578 1.828 4.794 4.357 5.295s5.06-.855 6.045-3.237.15-5.13-1.993-6.56-5-1.15-6.824.67a5.41 5.41 0 0 0-1.585 3.833z"/></g></svg>