<svg xmlns="http://www.w3.org/2000/svg" xmlns:xlink="http://www.w3.org/1999/xlink" width="653.339" height="400.947"><defs><linearGradient id="A" x1="9.419" y1=".5" x2="10.419" y2=".5"><stop offset="0" stop-color="#a2ed94"/><stop offset="1" stop-color="#69c7b3"/></linearGradient><linearGradient id="B" x1="8.738" y1=".5" x2="9.738" y2=".5"><stop offset="0" stop-color="#fb40b7"/><stop offset="1" stop-color="#c639af"/></linearGradient><linearGradient id="C" x1=".001" x2="1" xlink:href="#A"/><linearGradient id="D" x1=".765" y1="4.911" x2=".235" y2="-3.915" xlink:href="#A"/><linearGradient id="E" y1=".5" x2="1" y2=".5"><stop offset="0" stop-color="#5e6398"/><stop offset="1" stop-color="#292e6f"/></linearGradient><linearGradient id="F" x1="-.091" y1=".899" x2=".752" y2=".298"><stop offset="0" stop-color="#6443d7"/><stop offset="1" stop-color="#ac5df9"/></linearGradient><linearGradient id="G" x1="1.22" y1="-3.585" x2="1.997" y2="-3.585" xlink:href="#B"/><linearGradient id="H" x1="3.338" y1="-6.763" x2="4.232" y2="-6.763" xlink:href="#B"/><linearGradient id="I" x1=".469" y1=".475" x2=".795" y2="1.036"><stop offset="0" stop-color="#3a3c63"/><stop offset="1" stop-color="#40447b"/></linearGradient><linearGradient id="J" x1="0" y1=".5" x2="1" y2=".5" xlink:href="#I"/><linearGradient id="K" x1=".683" y1="-6.594" x2=".423" y2="3.478" xlink:href="#E"/><linearGradient id="L" y1=".5" x2="1" y2=".5"><stop offset="0" stop-color="#c7e9f9"/><stop offset="1" stop-color="#f1f9fe"/></linearGradient><linearGradient id="M" x1=".5" y1="1.049" x2=".5" y2="-.037"><stop offset="0" stop-color="#ffb682"/><stop offset="1" stop-color="#ee5379"/></linearGradient><clipPath id="N"><circle cx="18.401" cy="18.401" r="18.401" transform="matrix(.160226 -.98708 .98708 .160226 0 36.326)" fill="none"/></clipPath><linearGradient id="O" y1=".5" x2="1" y2=".5"><stop offset="0" stop-color="#fb7db7"/><stop offset="1" stop-color="#fdacaf"/></linearGradient><linearGradient id="P" x1=".5" y1="1.049" x2=".5" y2="-.037" xlink:href="#F"/><clipPath id="Q"><circle cx="18.294" cy="18.294" r="18.294" fill="none"/></clipPath><linearGradient id="R" x1=".001" y1=".5" x2="1.001" y2=".5"><stop offset="0" stop-color="#3393eb"/><stop offset="1" stop-color="#37bedf"/></linearGradient></defs><path d="M86.9 395.14s32.25-72.8 8.928-140.45-79.7-87.416-79.7-87.416 33.45 38.73 14.035 99.14C11.8 323.553 46.815 395.14 46.815 395.14z" fill="url(#A)"/><path d="M75.493 395.144s8.258-148.1-26.682-187.05C80.595 257.2 67.36 395.144 67.36 395.144z" fill="#fff" opacity=".3"/><path d="M20.088 395.14h34.494c-1.37-6.076-6.335-24.436-18.718-38.29-15.04-16.83-34.016-15.177-34.016-15.177s10.32 11.32 11.906 31.675a62.1 62.1 0 0 0 6.334 21.791z" fill="#f8951d"/><path d="M99.857 314.615c-25.115 32.74-30.744 75.443-31.342 80.523h48.82c12.352-11.4 27.5-29.847 27.615-52.038.214-39.614 18.6-63.11 18.6-63.11s-36.944-.245-63.693 34.624z" fill="url(#B)"/><path d="M43.405 395.14h2.576c-4.9-11.227-17.4-37.6-29.16-42.953 11.472 7.692 22.02 31.53 26.583 42.953zm40.52 0h5.1c5.946-19.642 24.106-74.4 47.052-92.478-23.687 13.133-45.8 73.894-52.14 92.478z" opacity=".3" fill="#fff"/><path fill="#43457b" d="M0 395.14h145.556v5.777H0z"/><path d="M122.526 100.51h-4.433c-1.273-.008-2.397-.833-2.786-2.045a19.45 19.45 0 0 0-1.1-2.647 2.91 2.91 0 0 1 .513-3.388l3.353-3.353a2.68 2.68 0 0 0 0-3.759l-1.92-1.92c-.55-.55-1.297-.86-2.076-.86s-1.526.3-2.076.86l-3.16 3.16c-.9.885-2.268 1.09-3.388.51-.852-.432-1.736-.8-2.643-1.1-1.212-.39-2.037-1.513-2.045-2.786v-4.437a2.94 2.94 0 0 0-2.937-2.933h-2.44a2.94 2.94 0 0 0-2.937 2.933v4.437c-.008 1.273-.833 2.397-2.045 2.786a19.16 19.16 0 0 0-2.643 1.085c-1.118.59-2.488.39-3.393-.49l-3.16-3.16c-.55-.55-1.297-.86-2.076-.86s-1.526.3-2.076.86l-1.92 1.92a2.68 2.68 0 0 0 0 3.759l3.357 3.353a2.92 2.92 0 0 1 .509 3.388 19.61 19.61 0 0 0-1.1 2.643c-.39 1.213-1.515 2.04-2.8 2.05h-4.425c-.78 0-1.526.31-2.077.86s-.86 1.298-.86 2.077v2.437c0 .78.3 1.525.86 2.075s1.298.86 2.077.858h4.433a2.96 2.96 0 0 1 2.79 2.049 19.37 19.37 0 0 0 1.1 2.643c.582 1.12.376 2.488-.51 3.388l-3.357 3.357a2.68 2.68 0 0 0 0 3.759l1.92 1.92c1.148 1.143 3.004 1.143 4.152 0l3.16-3.17c.902-.885 2.27-1.1 3.393-.51a19.97 19.97 0 0 0 2.643 1.1c1.212.39 2.037 1.513 2.045 2.786v4.433c.003 1.62 1.316 2.934 2.937 2.937h2.437c1.62-.003 2.934-1.316 2.937-2.937v-4.433c.01-1.274.833-2.398 2.045-2.8.907-.303 1.792-.67 2.647-1.1a2.91 2.91 0 0 1 3.384.509l3.16 3.16c.55.55 1.297.86 2.076.86s1.526-.3 2.076-.86l1.92-1.92a2.68 2.68 0 0 0 0-3.759l-3.344-3.348a2.91 2.91 0 0 1-.513-3.388 19.64 19.64 0 0 0 1.1-2.643 2.95 2.95 0 0 1 2.786-2.049h4.433c.78.001 1.526-.307 2.077-.858s.86-1.297.86-2.075v-2.437c0-.78-.31-1.53-.863-2.08s-1.302-.86-2.083-.857zm-15.74 4.98a10.24 10.24 0 0 1-19.816 2.756 10.24 10.24 0 0 1 16.846-10.793c2.12 2.114 3.206 5.052 2.97 8.037z" fill="#f8951d"/><path d="M650.053 342.248c-.97-1.034-1.793-2.2-2.442-3.46a8.61 8.61 0 0 1 .072-5.8l1.982-5.59a14.89 14.89 0 0 0-3.321-13.6c-.776-.75-1.494-1.556-2.147-2.415-1.393-2.08-1.4-4.8-1.03-7.263s1.07-4.937.924-7.437a11.16 11.16 0 0 0-4.018-7.852 13.32 13.32 0 0 0-8.321-2.585h-.183c-2.984-.135-5.926.743-8.348 2.49a11.16 11.16 0 0 0-4.085 7.8c-.18 2.5.5 4.97.84 7.446s.3 5.187-1.116 7.254a21.5 21.5 0 0 1-2.17 2.393c-3.346 3.657-4.65 8.74-3.478 13.557.487 1.915 1.34 3.714 1.92 5.61.685 1.873.685 3.927 0 5.8-.67 1.25-1.505 2.405-2.482 3.433-3.294 4.076-4.714 10.192-1.862 14.59 1.22 1.712 2.787 3.147 4.6 4.2a27.44 27.44 0 0 0 8.928 3.866 9.27 9.27 0 0 0 4.25.223c.872-.153 1.762-.186 2.643-.1.883-.08 1.772-.038 2.643.13a9.26 9.26 0 0 0 4.25-.179c3.192-.7 6.23-1.983 8.977-3.76a14.74 14.74 0 0 0 4.643-4.161c2.935-4.357 1.583-10.486-1.667-14.602z" fill="url(#C)"/><path d="M632.785 356.163l13.65-18.17-13.71 14.67-.487-28.878 10.267-13.682-10.325 11.062-.295-17.548 7.424-9.884-7.455 7.99-.2-12.33-.245 15.816-7.143-7.817 7.1 9.682-.277 17.83-10.206-11.182 10.165 13.84-.447 29.25-13.932-15.272 13.874 18.914-.067 4.317h.027v4.714h2.46V364.8h-.036z" fill="#fff" opacity=".3"/><path d="M620.848 369.573h21.78l-4.08 17.223h-13.56z" fill="#43457b"/><path fill="url(#D)" d="M620.848 368.27h21.78v1.308h-21.78z"/><path d="M268.48 400.915l-30.3-174.8h-102.97a17.21 17.21 0 0 0-17.209 17.209v157.583z" fill="url(#E)"/><path d="M502.175 346.48c-1.96-.978-3.846-2.093-5.647-3.34-54.994-37.945-108.568-134.758-119.933-149.374-6.317-8.116-31.717-25.735-54.676-23.186-3.46.384-7.03 1-9.8 3.57l-.93.853c-11.785 11.46-23.142 8.67-30.936 3.893-5.24-2.74-9.53-6.468-12.42-8.692-.547-.077-1.1-.097-1.652-.062-5.835.38-17.664 1.214-30.48 2.513-13.736 1.393-28.6 3.32-38.467 5.8-2.2.554-1.2-.384-2.835.223 0 0-33.066 9.49-45.2 62.975 0 0-33.95 100.37-12.674 109.634 17.486 7.59 52.328 8.74 52.328 8.74l.7 40.913H384.88c-4.062-36.43-5.924-50.806-6.25-70.845v-.3a57.11 57.11 0 0 1 .053-6.428 35.34 35.34 0 0 1 .955-8.071c.063-.205.112-.446.18-.63 4.263-11.044 64.055 48.846 102.884 47.484z" fill="url(#F)"/><path d="M443.78 0c-34.994 0-63.36 17.142-63.36 38.29 0 7.95 4.018 15.33 10.87 21.45-2.2 12.83.563 37.54 6.745 30.325 6.67-7.78 24.106-13.227 29.463-14.767a102.71 102.71 0 0 0 16.276 1.281c34.994 0 63.36-17.142 63.36-38.29S478.774 0 443.78 0zm-36.472 42.89c-2.02-.002-3.758-1.43-4.15-3.413s.67-3.965 2.536-4.738 4.02-.12 5.142 1.562.902 3.92-.527 5.348a4.24 4.24 0 0 1-3 1.241zm24.316 0a4.24 4.24 0 0 1-2.999-7.24 4.24 4.24 0 0 1 7.24 2.999 4.24 4.24 0 0 1-4.241 4.241zm24.31 0a4.24 4.24 0 0 1-2.999-7.24 4.24 4.24 0 0 1 7.24 2.999 4.24 4.24 0 0 1-4.24 4.241zm24.316 0a4.24 4.24 0 0 1-2.999-7.24 4.24 4.24 0 0 1 7.24 2.999 4.24 4.24 0 0 1-4.241 4.241z" fill="#01355d"/><g fill="#221f1f"><path d="M311.202 174.992c-11.785 11.46-23.142 8.67-30.936 3.893-5.24-2.74-9.53-6.468-12.42-8.692a8.14 8.14 0 0 0-1.652-.062c-5.835.38-17.664 1.214-30.48 2.513-13.736 1.393-28.6 3.32-38.467 5.8-.357 5.723 19.6.728 34.217-.062 15.526-.84 29.017 17.053 55.8 16.495 15.263.055 28.847-9.668 33.717-24.133-2.652.326-6.07.853-8.83 3.406a12.17 12.17 0 0 0-.949.842zm-122.34 185l128.544 12.678L189.56 393.2z" opacity=".1"/><path d="M196.656 224.155s8.245 62.93.616 86.992c39.284-1.116 111.154 31.565 111.154 31.565L207.58 302.665s-1.683-47.592-10.924-78.5zm126.164 127.05l-5.687 23.722-18.455.518 15.2-4.165 6.562-24.843 3.4.286z" opacity=".1"/></g><path d="M255.293 106.63c1.707 6.82 4.65 13.272 8.687 19.03 1.49 2.083 2.82 4.275 3.977 6.558 1.7 3.344 1.97 15.09 5.857 15.723 2.625.446 2.326-8.848 4.018-10.714a17.17 17.17 0 0 0 3.326-6.535c3.705-11.607 4.91-24.77 13.888-33.378 5.293-4.817 12.186-7.498 19.343-7.522 7.83-.125 14.63 5.245 22.12 4.91 14.25-.612 29.82-11.308 35.664-22.86a31.3 31.3 0 0 0-.1-28.637 32.13 32.13 0 0 0-25.334-16.49 14.22 14.22 0 0 0-7.107.982c-1.644.918-3.148 2.068-4.464 3.415-6.57 5.872-14.34 10.247-22.767 12.82-10.6 3.26-22.017 3.754-33.034 5.8-6.34 1.17-12.924 3.07-17 7.647-5.165 5.8-7.99 19.133-8.55 28.4a51.96 51.96 0 0 0 1.475 20.85z" fill="#01355d"/><g fill="#f8ac9b"><path d="M322.177 163.118l-5.607 11.37c-5.473 11.103-18.08 16.73-30 13.392l-5.26-1.47c-8.5-2.387-13.995-10.613-12.944-19.38l4.656-38.838 46.234 14.11z"/><path d="M277.943 137.33s4.018 27.807 13.888 32.758 26.338 1.165 26.338 1.165l4.018-8.134s-10.468 3.723-17.343 1.678-6.125-1.72-6.875-2.045l-.754-.32s-12.25-3.995-19.272-25.1z" opacity=".5"/><path d="M351.806 93.86c3.366-9.575-1.34-12.65-8.21-13.732-6.388-1.01-14.633-.295-19.968-1.478-5.585-1.126-11.233-1.907-16.914-2.34-9.82-.942-14.062 7.357-15.687 12.968l-.08.295c-1.487 5.4-3.125 18.3-5.46 22.4-2.388 4.183-5.893-16.294-14.13-18.486a11.43 11.43 0 0 0-5.6-.406 9.95 9.95 0 0 0-7.736 7.812c-.955 5.205 1.464 10.517 4.678 14.834s7.254 8.035 10.307 12.437c6.107 8.84 8.01 20.2 15.388 28.06 8.285 8.84 22.454 11.183 33.775 6.88s19.642-14.423 23.24-25.758c4.516-14.268 1.45-29.42 6.395-43.487z"/><path d="M317.468 84.448c8.882-.067 17.698-1.525 26.128-4.32-6.388-1.01-14.633-.295-19.968-1.478a138.96 138.96 0 0 0-16.914-2.339c-9.82-.942-14.062 7.357-15.687 12.968l-.08.295c4.098-4.197 13.65-4.95 26.52-5.125z" opacity=".5"/></g><path d="M309.317 42.543l10.714-1.37 7.857-4.424-19.2 2.205a28.49 28.49 0 0 0-24.352 21.566l-4.464 18.968c-9.88-.6-18.874 5.357-21.053 14.593-2.455 10.42 4.714 21.026 16.022 23.7s22.468-3.616 24.928-14.035-4.7-21.02-16.017-23.69l4.4-18.633c2.42-10.096 10.86-17.625 21.165-18.88z" fill="url(#G)"/><path d="M330.053 146.293l-.17-.045.946-3.47c.09 0 6.16 1.53 19.23.16a4.74 4.74 0 0 0 2.919-2.562c4.344-8.544-.1-26.048-3.8-34.637.263-1.9.6-3.893.973-5.933.567 1.34 12.28 30.525 6.344 42.208-1.045 2.196-3.005 3.82-5.357 4.437l-.317.058c-13.065 1.39-19.64.05-20.78-.218z" fill="url(#H)"/><path d="M334.66 145.945c-.107 2.987-5.5 5.067-12.053 4.643s-11.785-3.192-11.678-6.183 5.51-5.067 12.053-4.643 11.785 3.188 11.678 6.183z" fill="#01355d"/><path d="M467.886 367.212l-99.134-1.348-109.835 8.674v12.147l174.725.16z" fill="url(#I)"/><path d="M482.774 269.4l154.614-5.446-84.282 122.847-153.426.054z" fill="url(#J)"/><path d="M323.615 347.387s33.606-6.276 43.266-6.17 22.3.558 28.85 8.16 15.258 22.11 11.3 22.646-6.535.656-9.008-.7-13.67-10.84-22.7-10.415-10.885 5.98-14.277 6.28-13.214.446-16.406-1.07-26.472 3.75-26.472 3.75z" fill="#f8ac9b"/><path fill="url(#K)" d="M225.28 386.72h423.245v14.196H225.28z"/><path d="M612.094 192.474a19.58 19.58 0 0 1-1.045 6.589 15.33 15.33 0 0 1-2.942 5.076c-1.27 1.432-2.815 2.597-4.54 3.428a17.7 17.7 0 0 1-5.857 1.647l-.357 8.687c-.03.53-.446.933-1.268 1.2a11.98 11.98 0 0 1-3.54.4c-.982 0-1.786 0-2.473-.067a7.08 7.08 0 0 1-1.58-.246c-.323-.08-.617-.25-.848-.49a1.38 1.38 0 0 1-.308-.8l-.4-10.513a10.3 10.3 0 0 1 .134-2.312c.086-.524.308-1.017.643-1.43.314-.355.725-.61 1.183-.732.552-.144 1.122-.21 1.692-.2h.62a9.96 9.96 0 0 0 4.076-.759c1.076-.457 2.04-1.14 2.83-2a7.77 7.77 0 0 0 1.625-2.942c.345-1.17.517-2.386.51-3.607.015-1.33-.187-2.654-.6-3.92-.376-1.145-1-2.193-1.826-3.07-.858-.888-1.91-1.566-3.07-1.982a12.44 12.44 0 0 0-4.344-.692c-1.353-.018-2.702.13-4.018.446-1.017.252-2.014.58-2.982.982l-2.072.978a2.98 2.98 0 0 1-1.268.446c-.2 0-.414-.07-.58-.2a1.5 1.5 0 0 1-.446-.737c-.145-.494-.242-1-.3-1.513a23.54 23.54 0 0 1-.112-2.491 13.67 13.67 0 0 1 .134-2.272 2.16 2.16 0 0 1 .58-1.161c.51-.43 1.08-.783 1.692-1.045a19.52 19.52 0 0 1 2.982-1.112c1.273-.37 2.567-.66 3.875-.87 1.476-.242 2.97-.36 4.464-.357a24.92 24.92 0 0 1 9 1.451c2.298.84 4.386 2.168 6.12 3.893 1.563 1.592 2.757 3.507 3.5 5.61.747 2.148 1.123 4.408 1.11 6.683zm-13.182 38.164c.02 1.03-.077 2.062-.3 3.07a4.14 4.14 0 0 1-1.022 2c-.543.533-1.22.9-1.96 1.09-.98.242-2 .355-3 .335a11.74 11.74 0 0 1-3.076-.335c-.73-.184-1.4-.56-1.937-1.09-.517-.56-.87-1.253-1.022-2-.2-1-.308-2.04-.3-3.07-.017-1.05.08-2.097.3-3.125a4.36 4.36 0 0 1 1.022-2.049 4.14 4.14 0 0 1 1.937-1.112 11.74 11.74 0 0 1 3.076-.335 11.55 11.55 0 0 1 3 .335 4.13 4.13 0 0 1 1.96 1.112c.52.58.872 1.286 1.022 2.05a14.19 14.19 0 0 1 .289 3.124z" fill="#f8951d"/><path d="M433.83 134l6.584 3.6-6.584 3.6-3.6 6.585-3.6-6.585-6.584-3.6 6.584-3.6 3.6-6.585zm-10.536 22.475l4.147 2.268-4.147 2.268-2.268 4.143-2.263-4.143-4.147-2.268 4.147-2.268 2.263-4.143zm24-5.295l6.312 3.45-6.312 3.455-3.45 6.312-3.455-6.312-6.312-3.455 6.312-3.45 3.455-6.312z" fill="#fff"/><path d="M568.6 31.932l-27.088 17.142 27.088 18.25 27.088-18.25z" fill="#f8951d"/><path fill="url(#L)" d="M550.7 37.81h34.5v33.824h-34.5z"/><path d="M616.946 71.524zm-91.42 0z" fill="#fff"/><path d="M568.6 70.65l-29.557-19.9v34.04a4.16 4.16 0 0 0 4.2 4.116h50.712a4.16 4.16 0 0 0 4.2-4.116V50.74z" fill="#f8951d"/><g opacity=".3"><rect width="174.202" height="53.386" rx="14.24" fill="#fff" x="382.501" y="185.255"/><rect width="174.202" height="53.386" rx="14.22" fill="#fefefe" x="382.483" y="185.237"/><rect width="174.202" height="53.386" rx="14.2" fill="#fdfdfd" x="382.465" y="185.219"/><rect width="174.202" height="53.386" rx="14.17" fill="#fcfcfd" x="382.447" y="185.201"/><rect width="174.202" height="53.386" rx="14.15" fill="#fbfbfc" x="382.434" y="185.183"/><rect width="174.202" height="53.386" rx="14.13" fill="#fafafb" x="382.416" y="185.166"/><rect width="174.202" height="53.386" rx="14.1" fill="#f9f9fa" x="382.398" y="185.148"/><rect width="174.202" height="53.386" rx="14.08" fill="#f8f8fa" x="382.38" y="185.13"/><rect width="174.202" height="53.386" rx="14.06" fill="#f7f7f9" x="382.363" y="185.108"/><rect width="174.202" height="53.386" rx="14.03" fill="#f6f6f8" x="382.345" y="185.09"/><rect width="174.202" height="53.386" rx="14.01" fill="#f5f5f7" x="382.327" y="185.072"/><rect width="174.202" height="53.386" rx="13.99" fill="#f4f4f7" x="382.313" y="185.054"/><rect width="174.202" height="53.386" rx="13.97" fill="#f3f3f6" x="382.296" y="185.036"/><rect width="174.202" height="53.386" rx="13.94" fill="#f2f2f5" x="382.278" y="185.018"/><rect width="174.202" height="53.386" rx="13.92" fill="#f1f1f4" x="382.26" y="185"/><rect width="174.202" height="53.386" rx="13.9" fill="#f0f0f4" x="382.242" y="184.983"/><rect width="174.202" height="53.386" rx="13.87" fill="#efeff3" x="382.224" y="184.965"/><rect width="174.202" height="53.386" rx="13.85" fill="#eeeef2" x="382.211" y="184.942"/><rect width="174.202" height="53.386" rx="13.83" fill="#edeef1" x="382.193" y="184.925"/><rect width="174.202" height="53.386" rx="13.8" fill="#ecedf1" x="382.175" y="184.907"/><rect width="174.202" height="53.386" rx="13.78" fill="#ebecf0" x="382.157" y="184.889"/><rect width="174.202" height="53.386" rx="13.76" fill="#eaebef" x="382.139" y="184.871"/><rect width="174.202" height="53.386" rx="13.74" fill="#e9eaee" x="382.121" y="184.853"/><rect width="174.202" height="53.386" rx="13.71" fill="#e8e9ed" x="382.108" y="184.835"/><rect width="174.202" height="53.386" rx="13.69" fill="#e7e8ed" x="382.09" y="184.817"/><rect width="174.202" height="53.386" rx="13.67" fill="#e6e7ec" x="382.072" y="184.8"/><rect width="174.202" height="53.386" rx="13.64" fill="#e5e6eb" x="382.055" y="184.782"/><rect width="174.202" height="53.386" rx="13.62" fill="#e4e5ea" x="382.037" y="184.759"/><rect width="174.202" height="53.386" rx="13.6" fill="#e3e4ea" x="382.019" y="184.742"/><rect width="174.202" height="53.386" rx="13.57" fill="#e2e3e9" x="382.005" y="184.724"/><rect width="174.202" height="53.386" rx="13.55" fill="#e1e2e8" x="381.988" y="184.706"/><rect width="174.202" height="53.386" rx="13.53" fill="#e0e1e7" x="381.97" y="184.688"/><rect width="174.202" height="53.386" rx="13.51" fill="#dfe0e7" x="381.952" y="184.67"/><rect width="174.202" height="53.386" rx="13.48" fill="#dedfe6" x="381.934" y="184.652"/><rect width="174.202" height="53.386" rx="13.46" fill="#dddee5" x="381.916" y="184.634"/><rect width="174.202" height="53.386" rx="13.44" fill="#dcdde4" x="381.898" y="184.617"/><rect width="174.202" height="53.386" rx="13.41" fill="#dbdce4" x="381.885" y="184.594"/><rect width="174.202" height="53.386" rx="13.39" fill="#dadbe3" x="381.867" y="184.576"/><rect width="174.202" height="53.386" rx="13.37" fill="#d9dae2" x="381.849" y="184.559"/><rect width="174.202" height="53.386" rx="13.34" fill="#d8d9e1" x="381.831" y="184.541"/><rect width="174.202" height="53.386" rx="13.32" fill="#d7d8e0" x="381.813" y="184.523"/><rect width="174.202" height="53.386" rx="13.3" fill="#d6d7e0" x="381.796" y="184.505"/><rect width="174.202" height="53.386" rx="13.28" fill="#d5d6df" x="381.782" y="184.487"/><rect width="174.202" height="53.386" rx="13.25" fill="#d4d5de" x="381.764" y="184.469"/><rect width="174.202" height="53.386" rx="13.23" fill="#d3d4dd" x="381.746" y="184.451"/><rect width="174.202" height="53.386" rx="13.21" fill="#d2d3dd" x="381.729" y="184.434"/><rect width="174.202" height="53.386" rx="13.18" fill="#d1d2dc" x="381.711" y="184.411"/><rect width="174.202" height="53.386" rx="13.16" fill="#d0d1db" x="381.693" y="184.393"/><rect width="174.202" height="53.386" rx="13.14" fill="#cfd0da" x="381.68" y="184.375"/><rect width="174.202" height="53.386" rx="13.11" fill="#cecfda" x="381.662" y="184.358"/><rect width="174.202" height="53.386" rx="13.09" fill="#cdced9" x="381.644" y="184.34"/><rect width="174.202" height="53.386" rx="13.07" fill="#cccdd8" x="381.626" y="184.322"/><rect width="174.202" height="53.386" rx="13.05" fill="#cbccd7" x="381.608" y="184.304"/><rect width="174.202" height="53.386" rx="13.02" fill="#caccd7" x="381.59" y="184.286"/><rect width="174.202" height="53.386" rx="13" fill="#c9cbd6" x="381.577" y="184.268"/><rect width="174.202" height="53.386" rx="12.98" fill="#c8cad5" x="381.559" y="184.246"/><rect width="174.202" height="53.386" rx="12.95" fill="#c7c9d4" x="381.541" y="184.228"/><rect width="174.202" height="53.386" rx="12.93" fill="#c6c8d4" x="381.523" y="184.21"/><rect width="174.202" height="53.386" rx="12.91" fill="#c5c7d3" x="381.505" y="184.192"/><rect width="174.202" height="53.386" rx="12.88" fill="#c4c6d2" x="381.488" y="184.175"/><rect width="174.202" height="53.386" rx="12.86" fill="#c3c5d1" x="381.47" y="184.157"/><rect width="174.202" height="53.386" rx="12.84" fill="#c2c4d0" x="381.456" y="184.139"/><rect width="174.202" height="53.386" rx="12.82" fill="#c1c3d0" x="381.438" y="184.121"/><rect width="174.202" height="53.386" rx="12.79" fill="#c0c2cf" x="381.421" y="184.103"/><rect width="174.202" height="53.386" rx="12.77" fill="#bfc1ce" x="381.403" y="184.085"/><rect width="174.202" height="53.386" rx="12.75" fill="#bec0cd" x="381.385" y="184.063"/><rect width="174.202" height="53.386" rx="12.72" fill="#bdbfcd" x="381.367" y="184.045"/><rect width="174.202" height="53.386" rx="12.7" fill="#bcbecc" x="381.354" y="184.027"/><rect width="174.202" height="53.386" rx="12.68" fill="#bbbdcb" x="381.336" y="184.009"/><rect width="174.202" height="53.386" rx="12.65" fill="#babcca" x="381.318" y="183.992"/><rect width="174.202" height="53.386" rx="12.63" fill="#b9bbca" x="381.3" y="183.974"/><rect width="174.202" height="53.386" rx="12.61" fill="#b8bac9" x="381.282" y="183.956"/><rect width="174.202" height="53.386" rx="12.59" fill="#b7b9c8" x="381.264" y="183.938"/><rect width="174.202" height="53.386" rx="12.56" fill="#b6b8c7" x="381.251" y="183.92"/><rect width="174.202" height="53.386" rx="12.54" fill="#b5b7c7" x="381.233" y="183.898"/><rect width="174.202" height="53.386" rx="12.52" fill="#b4b6c6" x="381.215" y="183.88"/><rect width="174.202" height="53.386" rx="12.49" fill="#b3b5c5" x="381.197" y="183.862"/><rect width="174.202" height="53.386" rx="12.47" fill="#b2b4c4" x="381.18" y="183.844"/><rect width="174.202" height="53.386" rx="12.45" fill="#b1b3c3" x="381.162" y="183.826"/><rect width="174.202" height="53.386" rx="12.42" fill="#b0b2c3" x="381.148" y="183.809"/><rect width="174.202" height="53.386" rx="12.4" fill="#afb1c2" x="381.13" y="183.791"/><rect width="174.202" height="53.386" rx="12.38" fill="#aeb0c1" x="381.113" y="183.773"/><rect width="174.202" height="53.386" rx="12.35" fill="#adafc0" x="381.095" y="183.755"/><rect width="174.202" height="53.386" rx="12.33" fill="#acaec0" x="381.077" y="183.737"/><rect width="174.202" height="53.386" rx="12.31" fill="#abadbf" x="381.059" y="183.715"/><rect width="174.202" height="53.386" rx="12.29" fill="#aaacbe" x="381.041" y="183.697"/><rect width="174.202" height="53.386" rx="12.26" fill="#a9abbd" x="381.028" y="183.679"/><rect width="174.202" height="53.386" rx="12.24" fill="#a8aabd" x="381.01" y="183.661"/><rect width="174.202" height="53.386" rx="12.22" fill="#a7aabc" x="380.992" y="183.643"/><rect width="174.202" height="53.386" rx="12.19" fill="#a6a9bb" x="380.974" y="183.626"/><rect width="174.202" height="53.386" rx="12.17" fill="#a5a8ba" x="380.956" y="183.608"/><rect width="174.202" height="53.386" rx="12.15" fill="#a4a7ba" x="380.938" y="183.59"/><rect width="174.202" height="53.386" rx="12.12" fill="#a3a6b9" x="380.925" y="183.572"/><rect width="174.202" height="53.386" rx="12.1" fill="#a2a5b8" x="380.907" y="183.55"/><rect width="174.202" height="53.386" rx="12.08" fill="#a1a4b7" x="380.889" y="183.532"/><rect width="174.202" height="53.386" rx="12.06" fill="#a0a3b7" x="380.872" y="183.514"/><rect width="174.202" height="53.386" rx="12.03" fill="#9fa2b6" x="380.854" y="183.496"/><rect width="174.202" height="53.386" rx="12.01" fill="#9ea1b5" x="380.836" y="183.478"/><rect width="174.202" height="53.386" rx="11.99" fill="#9da0b4" x="380.822" y="183.46"/><rect width="174.202" height="53.386" rx="11.96" fill="#9c9fb3" x="380.805" y="183.442"/><rect width="174.202" height="53.386" rx="11.94" fill="#9b9eb3" x="380.787" y="183.425"/><rect width="174.202" height="53.386" rx="11.92" fill="#9a9db2" x="380.769" y="183.407"/><rect width="174.202" height="53.386" rx="11.89" fill="#999cb1" x="380.751" y="183.389"/><rect width="174.202" height="53.386" rx="11.87" fill="#989bb0" x="380.733" y="183.367"/><rect width="174.202" height="53.386" rx="11.85" fill="#979ab0" x="380.72" y="183.349"/><rect width="174.202" height="53.386" rx="11.83" fill="#9699af" x="380.702" y="183.331"/><rect width="174.202" height="53.386" rx="11.8" fill="#9598ae" x="380.684" y="183.313"/><rect width="174.202" height="53.386" rx="11.78" fill="#9497ad" x="380.666" y="183.295"/><rect width="174.202" height="53.386" rx="11.76" fill="#9396ad" x="380.648" y="183.277"/><rect width="174.202" height="53.386" rx="11.73" fill="#9295ac" x="380.63" y="183.259"/><rect width="174.202" height="53.386" rx="11.71" fill="#9194ab" x="380.613" y="183.242"/><rect width="174.202" height="53.386" rx="11.69" fill="#9093aa" x="380.599" y="183.224"/><rect width="174.202" height="53.386" rx="11.66" fill="#8f92aa" x="380.581" y="183.201"/><rect width="174.202" height="53.386" rx="11.64" fill="#8e91a9" x="380.564" y="183.184"/><rect width="174.202" height="53.386" rx="11.62" fill="#8d90a8" x="380.546" y="183.166"/><rect width="174.202" height="53.386" rx="11.6" fill="#8c8fa7" x="380.528" y="183.148"/><rect width="174.202" height="53.386" rx="11.57" fill="#8b8ea6" x="380.51" y="183.13"/><rect width="174.202" height="53.386" rx="11.55" fill="#8a8da6" x="380.497" y="183.112"/><rect width="174.202" height="53.386" rx="11.53" fill="#898ca5" x="380.479" y="183.094"/><rect width="174.202" height="53.386" rx="11.5" fill="#888ba4" x="380.461" y="183.076"/><rect width="174.202" height="53.386" rx="11.48" fill="#878aa3" x="380.443" y="183.059"/><rect width="174.202" height="53.386" rx="11.46" fill="#8689a3" x="380.425" y="183.041"/><rect width="174.202" height="53.386" rx="11.43" fill="#8588a2" x="380.407" y="183.018"/><rect width="174.202" height="53.386" rx="11.41" fill="#8487a1" x="380.394" y="183.001"/><rect width="174.202" height="53.386" rx="11.39" fill="#8387a0" x="380.376" y="182.983"/><rect width="174.202" height="53.386" rx="11.37" fill="#8286a0" x="380.358" y="182.965"/><rect width="174.202" height="53.386" rx="11.34" fill="#81859f" x="380.34" y="182.947"/><rect width="174.202" height="53.386" rx="11.32" fill="#80849e" x="380.322" y="182.929"/><rect width="174.202" height="53.386" rx="11.3" fill="#7f839d" x="380.305" y="182.911"/><rect width="174.202" height="53.386" rx="11.27" fill="#7e829d" x="380.287" y="182.893"/><rect width="174.202" height="53.386" rx="11.25" fill="#7d819c" x="380.273" y="182.876"/><rect width="174.202" height="53.386" rx="11.23" fill="#7c809b" x="380.255" y="182.853"/><rect width="174.202" height="53.386" rx="11.2" fill="#7b7f9a" x="380.238" y="182.835"/><rect width="174.202" height="53.386" rx="11.18" fill="#7a7e9a" x="380.22" y="182.818"/><rect width="174.202" height="53.386" rx="11.16" fill="#797d99" x="380.202" y="182.8"/><rect width="174.202" height="53.386" rx="11.14" fill="#787c98" x="380.184" y="182.782"/><rect width="174.202" height="53.386" rx="11.11" fill="#777b97" x="380.171" y="182.764"/><rect width="174.202" height="53.386" rx="11.09" fill="#767a96" x="380.153" y="182.746"/><rect width="174.202" height="53.386" rx="11.07" fill="#757996" x="380.135" y="182.728"/><rect width="174.202" height="53.386" rx="11.04" fill="#747895" x="380.117" y="182.71"/><rect width="174.202" height="53.386" rx="11.02" fill="#737794" x="380.099" y="182.693"/><rect width="174.202" height="53.386" rx="11" fill="#727693" x="380.081" y="182.67"/><rect width="174.202" height="53.386" rx="10.97" fill="#717593" x="380.068" y="182.652"/><rect width="174.202" height="53.386" rx="10.95" fill="#707492" x="380.05" y="182.634"/><rect width="174.202" height="53.386" rx="10.93" fill="#6f7391" x="380.032" y="182.617"/><rect width="174.202" height="53.386" rx="10.91" fill="#6e7290" x="380.014" y="182.599"/><rect width="174.202" height="53.386" rx="10.88" fill="#6d7190" x="379.997" y="182.581"/><rect width="174.202" height="53.386" rx="10.86" fill="#6c708f" x="379.979" y="182.563"/><rect width="174.202" height="53.386" rx="10.84" fill="#6b6f8e" x="379.965" y="182.545"/><rect width="174.202" height="53.386" rx="10.81" fill="#6a6e8d" x="379.947" y="182.527"/><rect width="174.202" height="53.386" rx="10.79" fill="#696d8d" x="379.93" y="182.505"/><rect width="174.202" height="53.386" rx="10.77" fill="#686c8c" x="379.912" y="182.487"/><rect width="174.202" height="53.386" rx="10.74" fill="#676b8b" x="379.894" y="182.469"/><rect width="174.202" height="53.386" rx="10.72" fill="#666a8a" x="379.876" y="182.451"/><rect width="174.202" height="53.386" rx="10.7" fill="#656989" x="379.858" y="182.434"/><rect width="174.202" height="53.386" rx="10.68" fill="#646889" x="379.845" y="182.416"/><rect width="174.202" height="53.386" rx="10.65" fill="#636788" x="379.827" y="182.398"/><rect width="174.202" height="53.386" rx="10.63" fill="#626687" x="379.809" y="182.38"/><rect width="174.202" height="53.386" rx="10.61" fill="#616586" x="379.791" y="182.362"/><rect width="174.202" height="53.386" rx="10.58" fill="#606586" x="379.773" y="182.344"/><rect width="174.202" height="53.386" rx="10.56" fill="#5f6485" x="379.756" y="182.322"/><rect width="174.202" height="53.386" rx="10.54" fill="#5e6384" x="379.742" y="182.304"/><rect width="174.202" height="53.386" rx="10.51" fill="#5d6283" x="379.724" y="182.286"/><rect width="174.202" height="53.386" rx="10.49" fill="#5c6183" x="379.706" y="182.268"/><rect width="174.202" height="53.386" rx="10.47" fill="#5b6082" x="379.689" y="182.251"/><rect width="174.202" height="53.386" rx="10.45" fill="#5a5f81" x="379.671" y="182.233"/><rect width="174.202" height="53.386" rx="10.42" fill="#595e80" x="379.653" y="182.215"/><rect width="174.202" height="53.386" rx="10.4" fill="#585d80" x="379.639" y="182.197"/><rect width="174.202" height="53.386" rx="10.38" fill="#575c7f" x="379.622" y="182.179"/><rect width="174.202" height="53.386" rx="10.35" fill="#565b7e" x="379.604" y="182.157"/><rect width="174.202" height="53.386" rx="10.33" fill="#555a7d" x="379.586" y="182.139"/><rect width="174.202" height="53.386" rx="10.31" fill="#54597d" x="379.568" y="182.121"/><rect width="174.202" height="53.386" rx="10.28" fill="#53587c" x="379.55" y="182.103"/><rect width="174.202" height="53.386" rx="10.26" fill="#52577b" x="379.537" y="182.085"/><rect width="174.202" height="53.386" rx="10.24" fill="#51567a" x="379.519" y="182.068"/><rect width="174.202" height="53.386" rx="10.22" fill="#505579" x="379.501" y="182.05"/><rect width="174.202" height="53.386" rx="10.19" fill="#4f5479" x="379.483" y="182.032"/><rect width="174.202" height="53.386" rx="10.17" fill="#4e5378" x="379.465" y="182.014"/><rect width="174.202" height="53.386" rx="10.15" fill="#4d5277" x="379.447" y="181.996"/><rect width="174.202" height="53.386" rx="10.12" fill="#4c5176" x="379.43" y="181.974"/><rect width="174.202" height="53.386" rx="10.1" fill="#4b5076" x="379.416" y="181.956"/><rect width="174.202" height="53.386" rx="10.08" fill="#4a4f75" x="379.398" y="181.938"/><rect width="174.202" height="53.386" rx="10.05" fill="#494e74" x="379.381" y="181.92"/><rect width="174.202" height="53.386" rx="10.03" fill="#484d73" x="379.363" y="181.902"/><rect width="174.202" height="53.386" rx="10.01" fill="#474c73" x="379.345" y="181.885"/><rect width="174.202" height="53.386" rx="9.99" fill="#464b72" x="379.327" y="181.867"/><rect width="174.202" height="53.386" rx="9.96" fill="#454a71" x="379.314" y="181.849"/><rect width="174.202" height="53.386" rx="9.94" fill="#444970" x="379.296" y="181.831"/><rect width="174.202" height="53.386" rx="9.92" fill="#434870" x="379.278" y="181.809"/><rect width="174.202" height="53.386" rx="9.89" fill="#42476f" x="379.26" y="181.791"/><rect width="174.202" height="53.386" rx="9.87" fill="#41466e" x="379.242" y="181.773"/><rect width="174.202" height="53.386" rx="9.85" fill="#40456d" x="379.224" y="181.755"/><rect width="174.202" height="53.386" rx="9.82" fill="#3f446c" x="379.211" y="181.737"/><rect width="174.202" height="53.386" rx="9.8" fill="#3e436c" x="379.193" y="181.719"/><rect width="174.202" height="53.386" rx="9.78" fill="#3d436b" x="379.175" y="181.701"/><rect width="174.202" height="53.386" rx="9.75" fill="#3c426a" x="379.157" y="181.684"/><rect width="174.202" height="53.386" rx="9.73" fill="#3b4169" x="379.139" y="181.666"/><rect width="174.202" height="53.386" rx="9.71" fill="#3a4069" x="379.122" y="181.648"/><rect width="174.202" height="53.386" rx="9.69" fill="#393f68" x="379.108" y="181.626"/><rect width="174.202" height="53.386" rx="9.66" fill="#383e67" x="379.09" y="181.608"/><rect width="174.202" height="53.386" rx="9.64" fill="#373d66" x="379.072" y="181.59"/><rect width="174.202" height="53.386" rx="9.62" fill="#363c66" x="379.055" y="181.572"/><rect width="174.202" height="53.386" rx="9.59" fill="#353b65" x="379.037" y="181.554"/><rect width="174.202" height="53.386" rx="9.57" fill="#343a64" x="379.019" y="181.536"/><rect width="174.202" height="53.386" rx="9.55" fill="#333963" x="379.001" y="181.518"/><rect width="174.202" height="53.386" rx="9.52" fill="#323863" x="378.988" y="181.501"/><rect width="174.202" height="53.386" rx="9.5" fill="#313762" x="378.97" y="181.483"/><rect width="174.202" height="53.386" rx="9.48" fill="#303661" x="378.952" y="181.46"/><rect width="174.202" height="53.386" rx="9.46" fill="#2f3560" x="378.934" y="181.443"/><rect width="174.202" height="53.386" rx="9.43" fill="#2e3460" x="378.916" y="181.425"/><rect width="174.202" height="53.386" rx="9.41" fill="#2d335f" x="378.898" y="181.407"/><rect width="174.202" height="53.386" rx="9.39" fill="#2c325e" x="378.885" y="181.389"/></g><rect width="174.202" height="53.386" rx="9.39" fill="url(#M)" x="378.876" y="181.407"/><g fill="#fff"><path d="M435.963 209.24v.545c-.07.778.496 1.468 1.272 1.554h88.42c.776-.086 1.34-.776 1.272-1.554v-.545c.068-.777-.496-1.467-1.272-1.553h-88.42c-.776.086-1.34.776-1.272 1.553zm1.272 10.437h88.42c.774-.085 1.34-.773 1.272-1.55v-.55a1.43 1.43 0 0 0-1.272-1.549h-88.42a1.43 1.43 0 0 0-1.272 1.549v.55c-.067.776.498 1.464 1.272 1.55zm0 8.34h52.6a1.43 1.43 0 0 0 1.272-1.549v-.55c.067-.776-.498-1.464-1.272-1.55h-52.6c-.774.085-1.34.773-1.272 1.55v.55a1.43 1.43 0 0 0 1.272 1.549z"/><circle cx="18.401" cy="18.401" r="18.401" transform="matrix(.160226 -.98708 .98708 .160226 384.792 226.75)"/></g><g transform="translate(384.792 190.424)" clip-path="url(#N)"><path d="M30.056 19.902a.45.45 0 0 0 0-.107v-2.638c-.165-3.527-8.888-3.84-8.888-3.84s-8.727.313-8.888 3.84V19.8a.45.45 0 0 0 0 .107v.487l1.3 5.076c.487 1.11 1.085 2.17 1.786 3.16a9.76 9.76 0 0 0 2.973 2.812 5.56 5.56 0 0 0 5.727 0 9.71 9.71 0 0 0 2.973-2.812 17.96 17.96 0 0 0 1.786-3.161l1.3-5.076a3.73 3.73 0 0 1-.049-.492z" fill="#ffd5aa"/><path d="M13.404 30.4l3.772.246c-.686-.705-1.27-1.503-1.732-2.37-1.327-2.098-2.104-4.496-2.26-6.973-.25-5.585 1.745-6.8 1.4-5.835s.72 1.786 3.09 1.786 4.9-2.777 7.232-2.87 3.72 1.9 4.125 5.486c.427 4.02-1.047 8.007-3.986 10.78l3.835-.237c.454-.028.867-.27 1.115-.65s.3-.857.144-1.283c-.607-1.7-.2-3.924.518-8.3 1.228-7.55-.263-15.334-9.5-14.772s-9.982 6.84-10.12 8.817c-.2 3.205 1.585 7.763 1.9 10.665.037 1.22-.227 2.432-.768 3.527-.18.43-.142.92.105 1.315s.67.646 1.136.672z" fill="#43457b"/><path fill="#ffd5aa" d="M17.172 30.647h7.87v9.504h-7.87z"/><path d="M35.725 47.512l.09-9.82s-7.638-3.41-10.607-4.12v.2c.188.125.34.268.317.406-.125.772-4.272 1.987-4.415 2.03-.147-.045-4.294-1.26-4.415-2.03 0-.138.125-.28.312-.406v-.2c-2.97.7-10.607 4.12-10.607 4.12l-.045 9.82z" fill="url(#O)"/></g><path d="M439.802 202.192a.22.22 0 0 1-.054.143c-.046.05-.105.083-.17.1a1.52 1.52 0 0 1-.32.062 3.79 3.79 0 0 1-.51.027 4.08 4.08 0 0 1-.509-.027c-.1-.01-.217-.03-.32-.063a.4.4 0 0 1-.174-.1.24.24 0 0 1-.049-.143v-9.763a.24.24 0 0 1 .049-.143c.05-.05.1-.085.18-.1a1.77 1.77 0 0 1 .32-.067l.5-.022a3.37 3.37 0 0 1 .509.022c.1.012.216.035.32.067.066.015.125.05.17.1a.22.22 0 0 1 .054.143zm14.473-.452c.001.113-.02.225-.062.33-.04.1-.1.17-.174.237a.65.65 0 0 1-.254.143 1.13 1.13 0 0 1-.3.045h-.893a1.95 1.95 0 0 1-.487-.058.97.97 0 0 1-.375-.205 1.81 1.81 0 0 1-.33-.4c-.13-.2-.25-.428-.357-.652l-2.576-4.83-.446-.933-.415-.97.05 1.147v6.585c.001.05-.015.1-.045.143a.29.29 0 0 1-.152.107.99.99 0 0 1-.3.067 3.39 3.39 0 0 1-.473.027 3.27 3.27 0 0 1-.446-.027 1 1 0 0 1-.29-.067.28.28 0 0 1-.143-.107c-.027-.043-.04-.092-.04-.143v-9.3a.7.7 0 0 1 .219-.562.8.8 0 0 1 .54-.188h1.125a2.35 2.35 0 0 1 .513.049 1.05 1.05 0 0 1 .371.174 1.48 1.48 0 0 1 .308.33 5.19 5.19 0 0 1 .295.522l2.013 3.78.348.674.33.66.312.652.295.638-.036-1.165v-6.004c.001-.053.018-.104.05-.147a.39.39 0 0 1 .161-.112 1.03 1.03 0 0 1 .295-.067q.223-.01.447 0c.15-.008.297-.008.446 0a.94.94 0 0 1 .286.067.33.33 0 0 1 .138.112.28.28 0 0 1 .04.147zm8.378-.084a3.12 3.12 0 0 1 0 .384.96.96 0 0 1-.062.254c-.02.055-.054.102-.1.138a.21.21 0 0 1-.134.045h-5.192a.66.66 0 0 1-.446-.156.64.64 0 0 1-.18-.51v-9.008a.63.63 0 0 1 .179-.5.64.64 0 0 1 .446-.156h5.16c.046 0 .1.014.13.04.043.037.076.084.094.138a1.07 1.07 0 0 1 .063.254 3.32 3.32 0 0 1 0 .4 3.01 3.01 0 0 1 0 .38.97.97 0 0 1-.062.25.37.37 0 0 1-.094.143.23.23 0 0 1-.13.04h-3.692v2.527h3.125a.21.21 0 0 1 .134.045.31.31 0 0 1 .1.134.95.95 0 0 1 .058.245 3.01 3.01 0 0 1 0 .38 2.9 2.9 0 0 1 0 .384.95.95 0 0 1-.058.246c-.02.05-.056.096-.1.13-.04.027-.086.04-.134.04h-3.125v2.915h3.723a.24.24 0 0 1 .134.045c.046.038.08.087.1.143a.97.97 0 0 1 .062.25 3.14 3.14 0 0 1 0 .388zm7.977 0c.008.128.008.256 0 .384a.98.98 0 0 1-.058.254.32.32 0 0 1-.1.138c-.037.03-.082.045-.13.045h-5.193a.66.66 0 0 1-.627-.666v-9c-.023-.175.033-.35.155-.48s.294-.195.47-.18h5.16a.21.21 0 0 1 .125.04.32.32 0 0 1 .1.138c.03.082.05.167.058.254.008.133.008.267 0 .4a3.01 3.01 0 0 1 0 .38.99.99 0 0 1-.058.25c-.02.055-.056.104-.1.143a.21.21 0 0 1-.125.04h-3.692v2.527h3.125a.21.21 0 0 1 .134.045.29.29 0 0 1 .1.134.97.97 0 0 1 .063.246 3.01 3.01 0 0 1 0 .38c.008.128.008.256 0 .384-.01.084-.03.167-.062.246-.02.052-.054.097-.1.13-.04.026-.086.04-.134.04h-3.125v2.9h3.723c.046.002.1.018.13.045a.33.33 0 0 1 .1.143.99.99 0 0 1 .058.25 3.14 3.14 0 0 1 0 .388zm10.443-4.5a7.08 7.08 0 0 1-.37 2.433 4.17 4.17 0 0 1-1.067 1.652 4.31 4.31 0 0 1-1.692.937 8.2 8.2 0 0 1-2.366.3h-2.47a.66.66 0 0 1-.446-.156c-.132-.135-.197-.32-.178-.5v-9a.63.63 0 0 1 .178-.5.64.64 0 0 1 .446-.156h2.652c.793-.018 1.585.1 2.344.32a4.26 4.26 0 0 1 1.62.96c.45.44.793.977 1 1.57a6.24 6.24 0 0 1 .348 2.156zm-2.174.07a5.29 5.29 0 0 0-.17-1.362 2.92 2.92 0 0 0-.553-1.1 2.49 2.49 0 0 0-.973-.719c-.497-.193-1.03-.282-1.562-.263h-1.063v7.03h1.094c.494.012.987-.063 1.455-.223a2.46 2.46 0 0 0 .987-.674 2.96 2.96 0 0 0 .59-1.125c.14-.5.207-1.038.196-1.567zm15.664 4.966c0 .052-.02.103-.053.143a.38.38 0 0 1-.17.1 1.51 1.51 0 0 1-.321.063 3.9 3.9 0 0 1-.5.027 4.01 4.01 0 0 1-.513-.027c-.1-.01-.217-.03-.32-.063a.39.39 0 0 1-.165-.1.22.22 0 0 1-.053-.143v-4.178h-3.87v4.178c.001.05-.015.1-.045.143a.38.38 0 0 1-.17.1 1.46 1.46 0 0 1-.32.063 3.94 3.94 0 0 1-.509.027 3.96 3.96 0 0 1-.51-.027 1.51 1.51 0 0 1-.321-.063.4.4 0 0 1-.174-.1c-.03-.04-.048-.1-.05-.143v-9.763a.24.24 0 0 1 .049-.143.36.36 0 0 1 .174-.1 1.77 1.77 0 0 1 .32-.067l.5-.022a3.37 3.37 0 0 1 .509.022c.1.012.216.035.32.067a.34.34 0 0 1 .17.1c.03.042.046.092.045.143v3.794h3.866v-3.794c0-.052.02-.103.053-.143.044-.048.102-.083.165-.1a1.79 1.79 0 0 1 .321-.067l.513-.022a3.31 3.31 0 0 1 .5.022c.1.012.216.035.32.067a.34.34 0 0 1 .17.1.22.22 0 0 1 .053.143zm8.38-.536a2.9 2.9 0 0 1-.022.384c-.008.087-.027.172-.058.254a.32.32 0 0 1-.1.138c-.036.03-.082.046-.13.045h-5.192a.65.65 0 0 1-.446-.156.64.64 0 0 1-.183-.509v-9a.59.59 0 0 1 .625-.661h5.16a.2.2 0 0 1 .125.04c.047.035.082.083.1.138a1.08 1.08 0 0 1 .058.255 3.2 3.2 0 0 1 0 .4 2.98 2.98 0 0 1 0 .379.98.98 0 0 1-.058.25c-.02.056-.054.105-.1.143a.2.2 0 0 1-.125.04h-3.692v2.527h3.125c.047 0 .093.015.13.045a.3.3 0 0 1 .1.134.95.95 0 0 1 .058.246 3.01 3.01 0 0 1 0 .38 3.05 3.05 0 0 1 0 .384.95.95 0 0 1-.058.245.28.28 0 0 1-.1.129c-.038.026-.084.04-.13.04h-3.125v2.915h3.723c.047 0 .093.016.13.045a.33.33 0 0 1 .1.143.99.99 0 0 1 .058.25 3.04 3.04 0 0 1 .025.387zm7.532-.058a3.47 3.47 0 0 1 0 .406 1.21 1.21 0 0 1-.058.268.35.35 0 0 1-.1.156c-.04.032-.1.05-.143.05h-4.736a.66.66 0 0 1-.446-.156.64.64 0 0 1-.18-.51v-9.375a.24.24 0 0 1 .049-.143.36.36 0 0 1 .174-.1 1.77 1.77 0 0 1 .32-.067l.5-.022a3.35 3.35 0 0 1 .51.022 1.79 1.79 0 0 1 .321.067.36.36 0 0 1 .174.1.24.24 0 0 1 .049.143v8.317h3.25c.05-.002.102.014.143.045a.3.3 0 0 1 .1.143c.03.085.05.173.058.263a3.27 3.27 0 0 1 .005.393zm8.312-6.318a4.09 4.09 0 0 1-.268 1.54c-.172.432-.443.82-.8 1.13a3.5 3.5 0 0 1-1.277.7 5.84 5.84 0 0 1-1.786.24h-.848v3.3c0 .052-.02.103-.053.143a.38.38 0 0 1-.17.1 1.46 1.46 0 0 1-.32.063 4.85 4.85 0 0 1-1.018 0 1.46 1.46 0 0 1-.322-.062c-.065-.017-.124-.05-.17-.1-.03-.04-.048-.1-.05-.143v-9.3a.75.75 0 0 1 .2-.563.71.71 0 0 1 .518-.187h2.433a5.94 5.94 0 0 1 .7.027 7.09 7.09 0 0 1 .795.12 3.57 3.57 0 0 1 .937.339 2.84 2.84 0 0 1 .813.625 2.63 2.63 0 0 1 .51.893 3.5 3.5 0 0 1 .17 1.134zm-2.2.152a1.88 1.88 0 0 0-.188-.893 1.34 1.34 0 0 0-.473-.522 1.53 1.53 0 0 0-.59-.2l-.634-.045h-.893v3.5h.942a2.32 2.32 0 0 0 .844-.134c.212-.08.4-.2.554-.38a1.59 1.59 0 0 0 .326-.585 2.28 2.28 0 0 0 .114-.732zm10.494 6c.004.184-.014.37-.053.55-.047.276-.257.496-.53.554-.178.045-.36.066-.545.062a2.04 2.04 0 0 1-.545-.062.73.73 0 0 1-.348-.192.81.81 0 0 1-.179-.362 2.38 2.38 0 0 1-.053-.549 2.54 2.54 0 0 1 .053-.567.8.8 0 0 1 .179-.366.7.7 0 0 1 .348-.2c.18-.04.362-.06.545-.058a2.28 2.28 0 0 1 .544.058.75.75 0 0 1 .348.2.77.77 0 0 1 .183.366 2.54 2.54 0 0 1 .054.567zm-.25-2.344a.34.34 0 0 1-.05.147c-.036.048-.084.085-.14.107a1.27 1.27 0 0 1-.272.067 3.59 3.59 0 0 1-.42.022c-.14.001-.28-.006-.42-.022a1.22 1.22 0 0 1-.268-.067c-.056-.022-.106-.06-.143-.107-.026-.045-.042-.095-.045-.147l-.2-7.25a.34.34 0 0 1 .05-.183c.04-.06.1-.108.17-.134.108-.04.22-.065.335-.076l.53-.022a4.22 4.22 0 0 1 .527.027 1.31 1.31 0 0 1 .335.08c.07.026.13.07.174.13a.29.29 0 0 1 .054.179z" fill="#fff"/><g opacity=".3"><rect width="174.202" height="53.386" rx="14.24" fill="#fff" x="473.591" y="109.169"/><rect width="174.202" height="53.386" rx="14.22" fill="#fefefe" x="473.573" y="109.151"/><rect width="174.202" height="53.386" rx="14.2" fill="#fdfdfd" x="473.555" y="109.133"/><rect width="174.202" height="53.386" rx="14.17" fill="#fcfcfd" x="473.537" y="109.115"/><rect width="174.202" height="53.386" rx="14.15" fill="#fbfbfc" x="473.519" y="109.097"/><rect width="174.202" height="53.386" rx="14.13" fill="#fafafb" x="473.506" y="109.08"/><rect width="174.202" height="53.386" rx="14.1" fill="#f9f9fa" x="473.488" y="109.062"/><rect width="174.202" height="53.386" rx="14.08" fill="#f8f8fa" x="473.47" y="109.044"/><rect width="174.202" height="53.386" rx="14.06" fill="#f7f7f9" x="473.452" y="109.022"/><rect width="174.202" height="53.386" rx="14.03" fill="#f6f6f8" x="473.435" y="109.004"/><rect width="174.202" height="53.386" rx="14.01" fill="#f5f5f7" x="473.417" y="108.986"/><rect width="174.202" height="53.386" rx="13.99" fill="#f4f4f7" x="473.403" y="108.968"/><rect width="174.202" height="53.386" rx="13.97" fill="#f3f3f6" x="473.386" y="108.95"/><rect width="174.202" height="53.386" rx="13.94" fill="#f2f2f5" x="473.368" y="108.932"/><rect width="174.202" height="53.386" rx="13.92" fill="#f1f1f4" x="473.35" y="108.914"/><rect width="174.202" height="53.386" rx="13.9" fill="#f0f0f4" x="473.332" y="108.897"/><rect width="174.202" height="53.386" rx="13.87" fill="#efeff3" x="473.314" y="108.879"/><rect width="174.202" height="53.386" rx="13.85" fill="#eeeef2" x="473.301" y="108.861"/><rect width="174.202" height="53.386" rx="13.83" fill="#edeef1" x="473.283" y="108.839"/><rect width="174.202" height="53.386" rx="13.8" fill="#ecedf1" x="473.265" y="108.821"/><rect width="174.202" height="53.386" rx="13.78" fill="#ebecf0" x="473.247" y="108.803"/><rect width="174.202" height="53.386" rx="13.76" fill="#eaebef" x="473.229" y="108.785"/><rect width="174.202" height="53.386" rx="13.74" fill="#e9eaee" x="473.211" y="108.767"/><rect width="174.202" height="53.386" rx="13.71" fill="#e8e9ed" x="473.194" y="108.749"/><rect width="174.202" height="53.386" rx="13.69" fill="#e7e8ed" x="473.18" y="108.731"/><rect width="174.202" height="53.386" rx="13.67" fill="#e6e7ec" x="473.162" y="108.714"/><rect width="174.202" height="53.386" rx="13.64" fill="#e5e6eb" x="473.144" y="108.696"/><rect width="174.202" height="53.386" rx="13.62" fill="#e4e5ea" x="473.127" y="108.673"/><rect width="174.202" height="53.386" rx="13.6" fill="#e3e4ea" x="473.109" y="108.656"/><rect width="174.202" height="53.386" rx="13.57" fill="#e2e3e9" x="473.091" y="108.638"/><rect width="174.202" height="53.386" rx="13.55" fill="#e1e2e8" x="473.078" y="108.62"/><rect width="174.202" height="53.386" rx="13.53" fill="#e0e1e7" x="473.06" y="108.602"/><rect width="174.202" height="53.386" rx="13.51" fill="#dfe0e7" x="473.042" y="108.584"/><rect width="174.202" height="53.386" rx="13.48" fill="#dedfe6" x="473.024" y="108.566"/><rect width="174.202" height="53.386" rx="13.46" fill="#dddee5" x="473.006" y="108.548"/><rect width="174.202" height="53.386" rx="13.44" fill="#dcdde4" x="472.988" y="108.531"/><rect width="174.202" height="53.386" rx="13.41" fill="#dbdce4" x="472.975" y="108.513"/><rect width="174.202" height="53.386" rx="13.39" fill="#dadbe3" x="472.957" y="108.49"/><rect width="174.202" height="53.386" rx="13.37" fill="#d9dae2" x="472.939" y="108.473"/><rect width="174.202" height="53.386" rx="13.34" fill="#d8d9e1" x="472.921" y="108.455"/><rect width="174.202" height="53.386" rx="13.32" fill="#d7d8e0" x="472.903" y="108.437"/><rect width="174.202" height="53.386" rx="13.3" fill="#d6d7e0" x="472.886" y="108.419"/><rect width="174.202" height="53.386" rx="13.28" fill="#d5d6df" x="472.872" y="108.401"/><rect width="174.202" height="53.386" rx="13.25" fill="#d4d5de" x="472.854" y="108.383"/><rect width="174.202" height="53.386" rx="13.23" fill="#d3d4dd" x="472.836" y="108.365"/><rect width="174.202" height="53.386" rx="13.21" fill="#d2d3dd" x="472.819" y="108.348"/><rect width="174.202" height="53.386" rx="13.18" fill="#d1d2dc" x="472.801" y="108.325"/><rect width="174.202" height="53.386" rx="13.16" fill="#d0d1db" x="472.783" y="108.307"/><rect width="174.202" height="53.386" rx="13.14" fill="#cfd0da" x="472.765" y="108.289"/><rect width="174.202" height="53.386" rx="13.11" fill="#cecfda" x="472.752" y="108.272"/><rect width="174.202" height="53.386" rx="13.09" fill="#cdced9" x="472.734" y="108.254"/><rect width="174.202" height="53.386" rx="13.07" fill="#cccdd8" x="472.716" y="108.236"/><rect width="174.202" height="53.386" rx="13.05" fill="#cbccd7" x="472.698" y="108.218"/><rect width="174.202" height="53.386" rx="13.02" fill="#caccd7" x="472.68" y="108.2"/><rect width="174.202" height="53.386" rx="13" fill="#c9cbd6" x="472.662" y="108.182"/><rect width="174.202" height="53.386" rx="12.98" fill="#c8cad5" x="472.649" y="108.164"/><rect width="174.202" height="53.386" rx="12.95" fill="#c7c9d4" x="472.631" y="108.142"/><rect width="174.202" height="53.386" rx="12.93" fill="#c6c8d4" x="472.613" y="108.124"/><rect width="174.202" height="53.386" rx="12.91" fill="#c5c7d3" x="472.595" y="108.106"/><rect width="174.202" height="53.386" rx="12.88" fill="#c4c6d2" x="472.578" y="108.089"/><rect width="174.202" height="53.386" rx="12.86" fill="#c3c5d1" x="472.56" y="108.071"/><rect width="174.202" height="53.386" rx="12.84" fill="#c2c4d0" x="472.546" y="108.053"/><rect width="174.202" height="53.386" rx="12.82" fill="#c1c3d0" x="472.528" y="108.035"/><rect width="174.202" height="53.386" rx="12.79" fill="#c0c2cf" x="472.511" y="108.017"/><rect width="174.202" height="53.386" rx="12.77" fill="#bfc1ce" x="472.493" y="107.999"/><rect width="174.202" height="53.386" rx="12.75" fill="#bec0cd" x="472.475" y="107.977"/><rect width="174.202" height="53.386" rx="12.72" fill="#bdbfcd" x="472.457" y="107.959"/><rect width="174.202" height="53.386" rx="12.7" fill="#bcbecc" x="472.444" y="107.941"/><rect width="174.202" height="53.386" rx="12.68" fill="#bbbdcb" x="472.426" y="107.923"/><rect width="174.202" height="53.386" rx="12.65" fill="#babcca" x="472.408" y="107.906"/><rect width="174.202" height="53.386" rx="12.63" fill="#b9bbca" x="472.39" y="107.888"/><rect width="174.202" height="53.386" rx="12.61" fill="#b8bac9" x="472.372" y="107.87"/><rect width="174.202" height="53.386" rx="12.59" fill="#b7b9c8" x="472.354" y="107.852"/><rect width="174.202" height="53.386" rx="12.56" fill="#b6b8c7" x="472.336" y="107.834"/><rect width="174.202" height="53.386" rx="12.54" fill="#b5b7c7" x="472.323" y="107.816"/><rect width="174.202" height="53.386" rx="12.52" fill="#b4b6c6" x="472.305" y="107.794"/><rect width="174.202" height="53.386" rx="12.49" fill="#b3b5c5" x="472.287" y="107.776"/><rect width="174.202" height="53.386" rx="12.47" fill="#b2b4c4" x="472.27" y="107.758"/><rect width="174.202" height="53.386" rx="12.45" fill="#b1b3c3" x="472.252" y="107.74"/><rect width="174.202" height="53.386" rx="12.42" fill="#b0b2c3" x="472.234" y="107.723"/><rect width="174.202" height="53.386" rx="12.4" fill="#afb1c2" x="472.22" y="107.705"/><rect width="174.202" height="53.386" rx="12.38" fill="#aeb0c1" x="472.203" y="107.687"/><rect width="174.202" height="53.386" rx="12.35" fill="#adafc0" x="472.185" y="107.669"/><rect width="174.202" height="53.386" rx="12.33" fill="#acaec0" x="472.167" y="107.651"/><rect width="174.202" height="53.386" rx="12.31" fill="#abadbf" x="472.149" y="107.629"/><rect width="174.202" height="53.386" rx="12.29" fill="#aaacbe" x="472.131" y="107.611"/><rect width="174.202" height="53.386" rx="12.26" fill="#a9abbd" x="472.118" y="107.593"/><rect width="174.202" height="53.386" rx="12.24" fill="#a8aabd" x="472.1" y="107.575"/><rect width="174.202" height="53.386" rx="12.22" fill="#a7aabc" x="472.082" y="107.557"/><rect width="174.202" height="53.386" rx="12.19" fill="#a6a9bb" x="472.064" y="107.54"/><rect width="174.202" height="53.386" rx="12.17" fill="#a5a8ba" x="472.046" y="107.522"/><rect width="174.202" height="53.386" rx="12.15" fill="#a4a7ba" x="472.028" y="107.504"/><rect width="174.202" height="53.386" rx="12.12" fill="#a3a6b9" x="472.015" y="107.486"/><rect width="174.202" height="53.386" rx="12.1" fill="#a2a5b8" x="471.997" y="107.468"/><rect width="174.202" height="53.386" rx="12.08" fill="#a1a4b7" x="471.979" y="107.446"/><rect width="174.202" height="53.386" rx="12.06" fill="#a0a3b7" x="471.961" y="107.428"/><rect width="174.202" height="53.386" rx="12.03" fill="#9fa2b6" x="471.944" y="107.41"/><rect width="174.202" height="53.386" rx="12.01" fill="#9ea1b5" x="471.926" y="107.392"/><rect width="174.202" height="53.386" rx="11.99" fill="#9da0b4" x="471.908" y="107.374"/><rect width="174.202" height="53.386" rx="11.96" fill="#9c9fb3" x="471.895" y="107.356"/><rect width="174.202" height="53.386" rx="11.94" fill="#9b9eb3" x="471.877" y="107.339"/><rect width="174.202" height="53.386" rx="11.92" fill="#9a9db2" x="471.859" y="107.321"/><rect width="174.202" height="53.386" rx="11.89" fill="#999cb1" x="471.841" y="107.303"/><rect width="174.202" height="53.386" rx="11.87" fill="#989bb0" x="471.823" y="107.281"/><rect width="174.202" height="53.386" rx="11.85" fill="#979ab0" x="471.805" y="107.263"/><rect width="174.202" height="53.386" rx="11.83" fill="#9699af" x="471.792" y="107.245"/><rect width="174.202" height="53.386" rx="11.8" fill="#9598ae" x="471.774" y="107.227"/><rect width="174.202" height="53.386" rx="11.78" fill="#9497ad" x="471.756" y="107.209"/><rect width="174.202" height="53.386" rx="11.76" fill="#9396ad" x="471.738" y="107.191"/><rect width="174.202" height="53.386" rx="11.73" fill="#9295ac" x="471.72" y="107.173"/><rect width="174.202" height="53.386" rx="11.71" fill="#9194ab" x="471.703" y="107.156"/><rect width="174.202" height="53.386" rx="11.69" fill="#9093aa" x="471.689" y="107.138"/><rect width="174.202" height="53.386" rx="11.66" fill="#8f92aa" x="471.671" y="107.12"/><rect width="174.202" height="53.386" rx="11.64" fill="#8e91a9" x="471.654" y="107.098"/><rect width="174.202" height="53.386" rx="11.62" fill="#8d90a8" x="471.636" y="107.08"/><rect width="174.202" height="53.386" rx="11.6" fill="#8c8fa7" x="471.618" y="107.062"/><rect width="174.202" height="53.386" rx="11.57" fill="#8b8ea6" x="471.6" y="107.044"/><rect width="174.202" height="53.386" rx="11.55" fill="#8a8da6" x="471.587" y="107.026"/><rect width="174.202" height="53.386" rx="11.53" fill="#898ca5" x="471.569" y="107.008"/><rect width="174.202" height="53.386" rx="11.5" fill="#888ba4" x="471.551" y="106.99"/><rect width="174.202" height="53.386" rx="11.48" fill="#878aa3" x="471.533" y="106.973"/><rect width="174.202" height="53.386" rx="11.46" fill="#8689a3" x="471.515" y="106.955"/><rect width="174.202" height="53.386" rx="11.43" fill="#8588a2" x="471.497" y="106.932"/><rect width="174.202" height="53.386" rx="11.41" fill="#8487a1" x="471.479" y="106.915"/><rect width="174.202" height="53.386" rx="11.39" fill="#8387a0" x="471.466" y="106.897"/><rect width="174.202" height="53.386" rx="11.37" fill="#8286a0" x="471.448" y="106.879"/><rect width="174.202" height="53.386" rx="11.34" fill="#81859f" x="471.43" y="106.861"/><rect width="174.202" height="53.386" rx="11.32" fill="#80849e" x="471.412" y="106.843"/><rect width="174.202" height="53.386" rx="11.3" fill="#7f839d" x="471.395" y="106.825"/><rect width="174.202" height="53.386" rx="11.27" fill="#7e829d" x="471.377" y="106.807"/><rect width="174.202" height="53.386" rx="11.25" fill="#7d819c" x="471.363" y="106.79"/><rect width="174.202" height="53.386" rx="11.23" fill="#7c809b" x="471.345" y="106.772"/><rect width="174.202" height="53.386" rx="11.2" fill="#7b7f9a" x="471.328" y="106.749"/><rect width="174.202" height="53.386" rx="11.18" fill="#7a7e9a" x="471.31" y="106.732"/><rect width="174.202" height="53.386" rx="11.16" fill="#797d99" x="471.292" y="106.714"/><rect width="174.202" height="53.386" rx="11.14" fill="#787c98" x="471.274" y="106.696"/><rect width="174.202" height="53.386" rx="11.11" fill="#777b97" x="471.261" y="106.678"/><rect width="174.202" height="53.386" rx="11.09" fill="#767a96" x="471.243" y="106.66"/><rect width="174.202" height="53.386" rx="11.07" fill="#757996" x="471.225" y="106.642"/><rect width="174.202" height="53.386" rx="11.04" fill="#747895" x="471.207" y="106.624"/><rect width="174.202" height="53.386" rx="11.02" fill="#737794" x="471.189" y="106.607"/><rect width="174.202" height="53.386" rx="11" fill="#727693" x="471.171" y="106.584"/><rect width="174.202" height="53.386" rx="10.97" fill="#717593" x="471.154" y="106.566"/><rect width="174.202" height="53.386" rx="10.95" fill="#707492" x="471.14" y="106.548"/><rect width="174.202" height="53.386" rx="10.93" fill="#6f7391" x="471.122" y="106.531"/><rect width="174.202" height="53.386" rx="10.91" fill="#6e7290" x="471.104" y="106.513"/><rect width="174.202" height="53.386" rx="10.88" fill="#6d7190" x="471.087" y="106.495"/><rect width="174.202" height="53.386" rx="10.86" fill="#6c708f" x="471.069" y="106.477"/><rect width="174.202" height="53.386" rx="10.84" fill="#6b6f8e" x="471.051" y="106.459"/><rect width="174.202" height="53.386" rx="10.81" fill="#6a6e8d" x="471.037" y="106.441"/><rect width="174.202" height="53.386" rx="10.79" fill="#696d8d" x="471.02" y="106.423"/><rect width="174.202" height="53.386" rx="10.77" fill="#686c8c" x="471.002" y="106.401"/><rect width="174.202" height="53.386" rx="10.74" fill="#676b8b" x="470.984" y="106.383"/><rect width="174.202" height="53.386" rx="10.72" fill="#666a8a" x="470.966" y="106.365"/><rect width="174.202" height="53.386" rx="10.7" fill="#656989" x="470.948" y="106.348"/><rect width="174.202" height="53.386" rx="10.68" fill="#646889" x="470.935" y="106.33"/><rect width="174.202" height="53.386" rx="10.65" fill="#636788" x="470.917" y="106.312"/><rect width="174.202" height="53.386" rx="10.63" fill="#626687" x="470.899" y="106.294"/><rect width="174.202" height="53.386" rx="10.61" fill="#616586" x="470.881" y="106.276"/><rect width="174.202" height="53.386" rx="10.58" fill="#606586" x="470.863" y="106.258"/><rect width="174.202" height="53.386" rx="10.56" fill="#5f6485" x="470.845" y="106.236"/><rect width="174.202" height="53.386" rx="10.54" fill="#5e6384" x="470.832" y="106.218"/><rect width="174.202" height="53.386" rx="10.51" fill="#5d6283" x="470.814" y="106.2"/><rect width="174.202" height="53.386" rx="10.49" fill="#5c6183" x="470.796" y="106.182"/><rect width="174.202" height="53.386" rx="10.47" fill="#5b6082" x="470.779" y="106.165"/><rect width="174.202" height="53.386" rx="10.45" fill="#5a5f81" x="470.761" y="106.147"/><rect width="174.202" height="53.386" rx="10.42" fill="#595e80" x="470.743" y="106.129"/><rect width="174.202" height="53.386" rx="10.4" fill="#585d80" x="470.725" y="106.111"/><rect width="174.202" height="53.386" rx="10.38" fill="#575c7f" x="470.712" y="106.093"/><rect width="174.202" height="53.386" rx="10.35" fill="#565b7e" x="470.694" y="106.075"/><rect width="174.202" height="53.386" rx="10.33" fill="#555a7d" x="470.676" y="106.053"/><rect width="174.202" height="53.386" rx="10.31" fill="#54597d" x="470.658" y="106.035"/><rect width="174.202" height="53.386" rx="10.28" fill="#53587c" x="470.64" y="106.017"/><rect width="174.202" height="53.386" rx="10.26" fill="#52577b" x="470.622" y="105.999"/><rect width="174.202" height="53.386" rx="10.24" fill="#51567a" x="470.609" y="105.982"/><rect width="174.202" height="53.386" rx="10.22" fill="#505579" x="470.591" y="105.964"/><rect width="174.202" height="53.386" rx="10.19" fill="#4f5479" x="470.573" y="105.946"/><rect width="174.202" height="53.386" rx="10.17" fill="#4e5378" x="470.555" y="105.928"/><rect width="174.202" height="53.386" rx="10.15" fill="#4d5277" x="470.537" y="105.91"/><rect width="174.202" height="53.386" rx="10.12" fill="#4c5176" x="470.52" y="105.888"/><rect width="174.202" height="53.386" rx="10.1" fill="#4b5076" x="470.506" y="105.87"/><rect width="174.202" height="53.386" rx="10.08" fill="#4a4f75" x="470.488" y="105.852"/><rect width="174.202" height="53.386" rx="10.05" fill="#494e74" x="470.471" y="105.834"/><rect width="174.202" height="53.386" rx="10.03" fill="#484d73" x="470.453" y="105.816"/><rect width="174.202" height="53.386" rx="10.01" fill="#474c73" x="470.435" y="105.799"/><rect width="174.202" height="53.386" rx="9.99" fill="#464b72" x="470.417" y="105.781"/><rect width="174.202" height="53.386" rx="9.96" fill="#454a71" x="470.404" y="105.763"/><rect width="174.202" height="53.386" rx="9.94" fill="#444970" x="470.386" y="105.745"/><rect width="174.202" height="53.386" rx="9.92" fill="#434870" x="470.368" y="105.727"/><rect width="174.202" height="53.386" rx="9.89" fill="#42476f" x="470.35" y="105.705"/><rect width="174.202" height="53.386" rx="9.87" fill="#41466e" x="470.332" y="105.687"/><rect width="174.202" height="53.386" rx="9.85" fill="#40456d" x="470.314" y="105.669"/><rect width="174.202" height="53.386" rx="9.82" fill="#3f446c" x="470.296" y="105.651"/><rect width="174.202" height="53.386" rx="9.8" fill="#3e436c" x="470.283" y="105.633"/><rect width="174.202" height="53.386" rx="9.78" fill="#3d436b" x="470.265" y="105.615"/><rect width="174.202" height="53.386" rx="9.75" fill="#3c426a" x="470.247" y="105.598"/><rect width="174.202" height="53.386" rx="9.73" fill="#3b4169" x="470.229" y="105.58"/><rect width="174.202" height="53.386" rx="9.71" fill="#3a4069" x="470.212" y="105.562"/><rect width="174.202" height="53.386" rx="9.69" fill="#393f68" x="470.194" y="105.54"/><rect width="174.202" height="53.386" rx="9.66" fill="#383e67" x="470.18" y="105.522"/><rect width="174.202" height="53.386" rx="9.64" fill="#373d66" x="470.162" y="105.504"/><rect width="174.202" height="53.386" rx="9.62" fill="#363c66" x="470.145" y="105.486"/><rect width="174.202" height="53.386" rx="9.59" fill="#353b65" x="470.127" y="105.468"/><rect width="174.202" height="53.386" rx="9.57" fill="#343a64" x="470.109" y="105.45"/><rect width="174.202" height="53.386" rx="9.55" fill="#333963" x="470.091" y="105.432"/><rect width="174.202" height="53.386" rx="9.52" fill="#323863" x="470.078" y="105.415"/><rect width="174.202" height="53.386" rx="9.5" fill="#313762" x="470.06" y="105.397"/><rect width="174.202" height="53.386" rx="9.48" fill="#303661" x="470.042" y="105.379"/><rect width="174.202" height="53.386" rx="9.46" fill="#2f3560" x="470.024" y="105.357"/><rect width="174.202" height="53.386" rx="9.43" fill="#2e3460" x="470.006" y="105.339"/><rect width="174.202" height="53.386" rx="9.41" fill="#2d335f" x="469.988" y="105.321"/><rect width="174.202" height="53.386" rx="9.39" fill="#2c325e" x="469.975" y="105.303"/></g><rect width="174.202" height="53.386" rx="9.39" fill="url(#P)" x="469.966" y="105.325"/><g fill="#fff"><path d="M527.053 133.16v.55a1.43 1.43 0 0 0 1.272 1.549h88.42c.774-.085 1.34-.773 1.272-1.55v-.55a1.43 1.43 0 0 0-1.272-1.549h-88.42a1.43 1.43 0 0 0-1.272 1.549zm1.272 10.436h88.42a1.43 1.43 0 0 0 1.272-1.549v-.536c.068-.777-.496-1.467-1.272-1.553h-88.42c-.776.085-1.342.775-1.272 1.553v.545c-.067.774.5 1.46 1.272 1.54zm0 8.344h52.6c.776-.086 1.34-.776 1.272-1.553v-.545a1.43 1.43 0 0 0-1.272-1.549h-52.6a1.43 1.43 0 0 0-1.272 1.549v.545c-.07.778.496 1.468 1.272 1.553z"/><circle cx="497.054" cy="135.668" r="18.294"/></g><g clip-path="url(#Q)" transform="translate(478.76 117.374)"><path d="M28.046 15.924c-.033-.1-.094-.166-.174-.22-.075-.025-.157-.025-.232 0a1.34 1.34 0 0 0-.576.232h0v-.487a.45.45 0 0 0 0-.1v-2.625c-.16-3.513-8.834-3.82-8.834-3.82s-8.674.308-8.835 3.82v2.594c-.004.033-.004.067 0 .1v.487a1.34 1.34 0 0 0-.576-.232c-.075-.025-.157-.025-.232 0a.45.45 0 0 0-.174.219c-.237.592-.262 1.248-.07 1.857a6.99 6.99 0 0 0 .8 1.705c.308.664.857 1.186 1.536 1.46a17.9 17.9 0 0 0 1.786 3.125 9.71 9.71 0 0 0 2.955 2.8c1.753 1.055 3.947 1.055 5.7 0a9.71 9.71 0 0 0 2.955-2.8 17.92 17.92 0 0 0 1.786-3.125 2.88 2.88 0 0 0 1.536-1.46 7.18 7.18 0 0 0 .8-1.705 2.79 2.79 0 0 0-.15-1.826z" fill="#f8ac9b"/><path d="M10.31 17.61s-.616-1.91.156-2.545.232-5.152 1.174-4.9 5.058 1.786 7.433 1.143 3.05-1.74 4.107-1.34a4.07 4.07 0 0 1 2.781 3.223c.156 1.795.522 2.067.8 2.335s.1 2.027.1 2.027 2.26-7.933.348-10.11-3.205-2.41-3.205-2.41a4.9 4.9 0 0 0-5.518-2.915c-4.09.754-8.125 4.34-8.9 4.3s-.772-.134-.772-.134c.146.444.34.87.58 1.272.286.406-1.817 5.17.308 9.5.404.895.618.565.618.565z" fill="#43457b"/><path fill="#f8ac9b" d="M14.4 26.04h7.82v9.45H14.4z"/><path d="M32.83 44.52l.1-11.482s-7.59-3.4-10.544-4.1v.2c.188.12.335.263.313.4-.12.768-4.245 1.978-4.388 2.018-.147-.04-4.268-1.25-4.393-2.018-.022-.138.13-.28.313-.4v-.2c-2.946.7-10.54 4.1-10.54 4.1L3.636 44.52z" fill="url(#R)"/></g><path d="M529.687 125.355c0 .054-.02.106-.054.147-.046.05-.105.083-.17.1a1.51 1.51 0 0 1-.321.063 3.93 3.93 0 0 1-.509.027 3.96 3.96 0 0 1-.51-.027 1.53 1.53 0 0 1-.322-.063.4.4 0 0 1-.174-.1c-.032-.042-.05-.094-.05-.147v-9.736c.001-.052.018-.102.05-.143.05-.05.1-.085.18-.1a1.77 1.77 0 0 1 .322-.067l.5-.022a3.34 3.34 0 0 1 .509.022c.1.012.216.035.32.067.066.015.125.05.17.1a.22.22 0 0 1 .054.143zm14.486-.445c.001.113-.02.225-.062.33-.04.1-.1.17-.174.237a.65.65 0 0 1-.254.143 1.13 1.13 0 0 1-.3.045h-.893c-.162.001-.324-.018-.482-.058-.14-.04-.267-.1-.375-.205a1.7 1.7 0 0 1-.33-.4c-.107-.17-.228-.384-.362-.652l-2.57-4.83-.446-.933-.415-.97.045 1.147v6.585c.001.05-.015.1-.045.143a.29.29 0 0 1-.152.107 1.03 1.03 0 0 1-.29.067 3.43 3.43 0 0 1-.473.027c-.15.001-.298-.008-.446-.027a1 1 0 0 1-.29-.067.28.28 0 0 1-.143-.107c-.027-.043-.04-.092-.04-.143v-9.285a.7.7 0 0 1 .219-.562.8.8 0 0 1 .54-.187h1.125a2.33 2.33 0 0 1 .513.05 1.09 1.09 0 0 1 .371.174 1.39 1.39 0 0 1 .308.33 5.19 5.19 0 0 1 .295.522l2.013 3.78.348.674.33.66.312.652.295.638-.036-1.165v-6.013c.001-.053.018-.104.05-.147a.4.4 0 0 1 .156-.112 1.1 1.1 0 0 1 .3-.067 4.5 4.5 0 0 1 .469 0c.15-.008.297-.008.446 0a.94.94 0 0 1 .286.067.33.33 0 0 1 .138.112.28.28 0 0 1 .04.147zm8.367-.086a3.05 3.05 0 0 1 0 .384c-.008.087-.028.172-.058.254-.02.055-.054.102-.1.138a.21.21 0 0 1-.134.045h-5.192a.66.66 0 0 1-.446-.156.64.64 0 0 1-.18-.51v-9.008a.63.63 0 0 1 .179-.5.64.64 0 0 1 .446-.156h5.152c.046 0 .092.014.13.04a.31.31 0 0 1 .094.138 1.07 1.07 0 0 1 .058.254 3.2 3.2 0 0 1 .022.4c.001.127-.007.253-.022.38a.99.99 0 0 1-.058.25.38.38 0 0 1-.094.143c-.038.026-.084.04-.13.04h-3.692v2.527h3.125a.2.2 0 0 1 .129.045.3.3 0 0 1 .1.134.96.96 0 0 1 .058.246c.015.126.023.252.022.38a2.9 2.9 0 0 1-.022.384.95.95 0 0 1-.058.246.28.28 0 0 1-.1.129.23.23 0 0 1-.13.04h-3.125v2.912h3.692a.24.24 0 0 1 .134.045c.046.038.08.087.1.143.03.08.05.165.058.25a3.05 3.05 0 0 1 .04.388zm7.976 0c.008.128.008.256 0 .384a1.01 1.01 0 0 1-.063.254c-.02.055-.054.102-.1.138a.2.2 0 0 1-.129.045h-5.192c-.163.004-.32-.05-.446-.156-.132-.135-.197-.32-.178-.5v-9.008a.63.63 0 0 1 .178-.5c.123-.107.283-.162.446-.156h5.156c.047-.001.092.013.13.04.043.037.076.084.094.138a1.11 1.11 0 0 1 .062.254 3.32 3.32 0 0 1 0 .4 3.05 3.05 0 0 1 0 .379.97.97 0 0 1-.062.25.38.38 0 0 1-.094.143c-.038.027-.083.04-.13.04H556.5v2.527h3.125a.21.21 0 0 1 .134.045.29.29 0 0 1 .1.134.93.93 0 0 1 .063.246 3.01 3.01 0 0 1 0 .38 3.05 3.05 0 0 1 0 .384.93.93 0 0 1-.063.246c-.02.052-.054.097-.1.13-.04.027-.086.04-.134.04H556.5v2.912h3.723c.046.002.1.018.13.045a.32.32 0 0 1 .1.143.97.97 0 0 1 .063.25 3.14 3.14 0 0 1 0 .388zm10.442-4.5a7.08 7.08 0 0 1-.37 2.433 4.21 4.21 0 0 1-1.067 1.652 4.31 4.31 0 0 1-1.692.938 8.2 8.2 0 0 1-2.366.3h-2.47a.66.66 0 0 1-.446-.156.64.64 0 0 1-.183-.509v-9a.59.59 0 0 1 .625-.661h2.65a7.47 7.47 0 0 1 2.344.321 4.26 4.26 0 0 1 1.62.96 4.11 4.11 0 0 1 1 1.567c.243.695.362 1.428.353 2.164zm-2.174.07a5.26 5.26 0 0 0-.17-1.362 2.92 2.92 0 0 0-.553-1.1 2.53 2.53 0 0 0-.973-.723c-.498-.2-1.03-.277-1.562-.26h-1.062v7.03h1.094c.494.012.987-.063 1.455-.223a2.46 2.46 0 0 0 .987-.674 2.96 2.96 0 0 0 .59-1.125 5.65 5.65 0 0 0 .2-1.567zm15.664 4.96c0 .054-.02.106-.054.147-.047.048-.105.082-.17.1a1.48 1.48 0 0 1-.322.063 3.9 3.9 0 0 1-.5.027 4.01 4.01 0 0 1-.513-.027 1.53 1.53 0 0 1-.322-.063.39.39 0 0 1-.165-.1c-.035-.04-.054-.093-.054-.147v-4.174h-3.866v4.174c.002.053-.015.106-.05.147a.34.34 0 0 1-.165.1 1.51 1.51 0 0 1-.321.063 3.93 3.93 0 0 1-.509.027 3.96 3.96 0 0 1-.51-.027 1.52 1.52 0 0 1-.321-.062.4.4 0 0 1-.174-.1c-.032-.042-.05-.094-.05-.147v-9.736c.001-.052.018-.102.05-.143.047-.05.108-.084.174-.1a1.77 1.77 0 0 1 .322-.067l.5-.022a3.35 3.35 0 0 1 .51.022c.1.012.216.035.32.067.064.015.122.05.165.1.033.04.05.1.05.143v3.794h3.866v-3.794a.22.22 0 0 1 .054-.143.35.35 0 0 1 .165-.1 1.77 1.77 0 0 1 .322-.067l.513-.022a3.3 3.3 0 0 1 .5.022 1.79 1.79 0 0 1 .322.067.34.34 0 0 1 .17.1c.035.04.054.1.054.143zm8.384-.53a3.05 3.05 0 0 1 0 .384 1.02 1.02 0 0 1-.058.254.32.32 0 0 1-.1.138.2.2 0 0 1-.13.045h-5.192a.59.59 0 0 1-.629-.665v-9.008a.63.63 0 0 1 .629-.656h5.16a.21.21 0 0 1 .125.04c.047.035.08.083.1.138.03.082.05.167.058.254a3.2 3.2 0 0 1 .022.4 3.01 3.01 0 0 1-.022.379.99.99 0 0 1-.058.25.32.32 0 0 1-.1.143.21.21 0 0 1-.125.04h-3.7v2.527h3.125c.047 0 .093.015.13.045a.29.29 0 0 1 .1.134.93.93 0 0 1 .063.246 3.01 3.01 0 0 1 0 .38 3.05 3.05 0 0 1 0 .384c-.01.084-.03.167-.062.246-.02.052-.054.097-.1.13-.038.026-.084.04-.13.04h-3.125v2.912h3.723c.047.001.092.017.13.045a.33.33 0 0 1 .1.143.99.99 0 0 1 .058.25 3.14 3.14 0 0 1 0 .388zm7.526-.058c.008.135.008.27 0 .406a1.21 1.21 0 0 1-.058.268c-.02.06-.055.113-.1.156-.04.032-.1.05-.143.05h-4.735a.66.66 0 0 1-.447-.156.64.64 0 0 1-.18-.51v-9.36a.24.24 0 0 1 .049-.143.36.36 0 0 1 .174-.1 1.78 1.78 0 0 1 .321-.067l.5-.022a3.35 3.35 0 0 1 .51.022c.1.012.216.035.32.067.066.015.125.05.17.1a.22.22 0 0 1 .054.143v8.315h3.25c.05-.002.102.014.143.045.045.038.08.087.1.143a1.06 1.06 0 0 1 .058.263 3.25 3.25 0 0 1 0 .379zm8.312-6.316a4.13 4.13 0 0 1-.268 1.54c-.172.434-.445.82-.795 1.13a3.46 3.46 0 0 1-1.272.7 5.84 5.84 0 0 1-1.786.24h-.862v3.294a.22.22 0 0 1-.053.147.42.42 0 0 1-.17.1 1.51 1.51 0 0 1-.321.063 4.81 4.81 0 0 1-1.018 0 1.5 1.5 0 0 1-.326-.062.36.36 0 0 1-.165-.1c-.032-.042-.05-.094-.05-.147v-9.3a.75.75 0 0 1 .2-.562c.14-.128.325-.195.514-.187h2.437a5.94 5.94 0 0 1 .7.027 7.1 7.1 0 0 1 .795.121 3.57 3.57 0 0 1 .938.339c.305.157.58.37.808.625a2.55 2.55 0 0 1 .513.893 3.55 3.55 0 0 1 .18 1.13zm-2.2.152c.013-.3-.053-.616-.192-.893a1.28 1.28 0 0 0-.47-.522 1.53 1.53 0 0 0-.59-.2 4.2 4.2 0 0 0-.634-.045h-.893v3.5h.942a2.32 2.32 0 0 0 .844-.134c.212-.08.4-.2.554-.38a1.59 1.59 0 0 0 .326-.585 2.3 2.3 0 0 0 .112-.737zm10.495 5.998a2.37 2.37 0 0 1-.054.549.82.82 0 0 1-.183.362.78.78 0 0 1-.348.192c-.358.083-.73.083-1.1 0a.73.73 0 0 1-.348-.192.79.79 0 0 1-.18-.362 2.38 2.38 0 0 1-.054-.549 2.52 2.52 0 0 1 .054-.567.76.76 0 0 1 .178-.366.7.7 0 0 1 .348-.2 2.6 2.6 0 0 1 1.09 0 .75.75 0 0 1 .348.2c.1.104.155.23.183.366.04.186.057.377.053.567zm-.25-2.344a.34.34 0 0 1-.049.147c-.035.048-.083.085-.138.107-.088.032-.18.055-.272.067a4.02 4.02 0 0 1-.844 0 1.35 1.35 0 0 1-.268-.067c-.055-.024-.102-.06-.14-.107a.45.45 0 0 1-.05-.147l-.205-7.25c-.003-.065.014-.13.05-.183.04-.06.1-.108.17-.134a1.34 1.34 0 0 1 .335-.076l.53-.022a4.23 4.23 0 0 1 .527.027 1.31 1.31 0 0 1 .335.08.39.39 0 0 1 .174.129.29.29 0 0 1 .053.179z" fill="#fff"/></svg>