<svg xmlns="http://www.w3.org/2000/svg" xmlns:xlink="http://www.w3.org/1999/xlink" width="127.554" height="127.55" viewBox="0 0 127.554 127.55"><defs><linearGradient id="linear-gradient" x1="6.998" x2="7.997" y1="9.834" y2="9.834" gradientUnits="objectBoundingBox"><stop offset="0" stop-color="#830600"/><stop offset=".07" stop-color="#880700"/><stop offset=".36" stop-color="#9b0b01"/><stop offset=".67" stop-color="#a60d01"/><stop offset="1" stop-color="#aa0e01"/></linearGradient><linearGradient id="linear-gradient-2" x1="-5.2" x2="-4.495" y1="-4.343" y2="-4.809" xlink:href="#linear-gradient"/><linearGradient id="linear-gradient-3" x1=".275" x2="1.276" y1=".599" y2=".599" gradientUnits="objectBoundingBox"><stop offset="0" stop-color="#f12001"/><stop offset="1" stop-color="#cd1701"/></linearGradient></defs><g id="Group_3320" data-name="Group 3320" transform="translate(-1621.403 -1293.299)"><path id="Path_20193" fill="url(#linear-gradient)" d="M-4868.735-3434.75H-4895.6l.58-13.25s.032.012.081.033c1.48.623,6.729,2.85,12.1,5.336,5.7,2.639,12.774,6.148,14.1,7.879Z" data-name="Path 20193" transform="translate(6517 4741.75)"/><path id="Path_20194" fill="url(#linear-gradient-2)" d="M-4887.5-3423.151h0v-21.257l13.972,19.5-13.971,1.76Z" data-name="Path 20194" transform="translate(6622 4844)"/><path id="Path_20192" fill="url(#linear-gradient-3)" d="M69.577,32.11l-45.047.217L151.036,157.682V112.8a5.155,5.155,0,0,0-1.443-3.579L73.306,33.687A5.18,5.18,0,0,0,69.577,32.11Z" data-name="Path 20192" transform="translate(1597.444 1261.424)"/><g id="Group_3318" data-name="Group 3318" opacity=".35" transform="translate(1625.778 1293.909)"><path id="Path_20198" fill="none" stroke="#fffefe" stroke-linecap="round" stroke-width=".71" d="M0,0,.834.834" data-name="Path 20198" transform="translate(0 0)"/><path id="Path_20197" fill="none" stroke="#fffefe" stroke-dasharray="2.87 2.87" stroke-linecap="round" stroke-width=".71" d="M0,0,118.44,117.205" data-name="Path 20197" transform="translate(2.544 2.519)"/><path id="Path_20196" fill="none" stroke="#fffefe" stroke-linecap="round" stroke-width=".71" d="M0,0,.843.834" data-name="Path 20196" transform="translate(121.835 120.567)"/></g><g id="Group_3319" data-name="Group 3319" opacity=".35" transform="translate(1665.494 1293.801)"><path id="Path_20201" fill="none" stroke="#fffefe" stroke-linecap="round" stroke-width=".71" d="M0,0,.843.834" data-name="Path 20201" transform="translate(0 0)"/><path id="Path_20200" fill="none" stroke="#fffefe" stroke-dasharray="2.79 2.79" stroke-linecap="round" stroke-width=".71" d="M0,0,78.782,77.572" data-name="Path 20200" transform="translate(2.503 2.461)"/><path id="Path_20199" fill="none" stroke="#fffefe" stroke-linecap="round" stroke-width=".71" d="M0,0,.843.834" data-name="Path 20199" transform="translate(82.119 80.851)"/></g><path id="Path_20195" fill="#fff" d="M-49.166.182a4.825,4.825,0,0,0,3.991-1.69L-46.7-3A2.851,2.851,0,0,1-48.919-1.95a1.992,1.992,0,0,1-2.223-2.041A2.937,2.937,0,0,1-48.2-7.15a2.21,2.21,0,0,1,2,1.066l1.859-1.482a4.1,4.1,0,0,0-3.692-1.716,5.366,5.366,0,0,0-5.707,5.46C-53.742-1.443-51.961.182-49.166.182Zm10.322-7.345a3.3,3.3,0,0,0-2.054.7l.637-3.185h-2.47L-44.655,0h2.47l.7-3.484c.221-1.079.806-1.586,1.651-1.586.663,0,.975.325.975.936a2.061,2.061,0,0,1-.052.468L-39.637,0h2.47l.78-3.9a3.988,3.988,0,0,0,.091-.845A2.3,2.3,0,0,0-38.844-7.163ZM-31.59.117a4.079,4.079,0,0,0,4.329-4.082c0-1.937-1.443-3.2-3.692-3.2a4.077,4.077,0,0,0-4.329,4.069C-35.282-1.157-33.839.117-31.59.117Zm.143-1.989a1.227,1.227,0,0,1-1.326-1.339A1.753,1.753,0,0,1-31.1-5.187,1.236,1.236,0,0,1-29.77-3.835,1.749,1.749,0,0,1-31.447-1.872Zm7.566-5.954a1.452,1.452,0,0,0,1.6-1.443c0-.676-.559-1.183-1.43-1.183a1.441,1.441,0,0,0-1.586,1.4A1.277,1.277,0,0,0-23.881-7.826ZM-26.858,0H-24.4L-23-7.046h-2.457Zm8,.117a3.915,3.915,0,0,0,3.5-1.82L-17.173-2.8a1.632,1.632,0,0,1-1.521.923,1.261,1.261,0,0,1-1.378-1.365,1.774,1.774,0,0,1,1.729-1.95,1.374,1.374,0,0,1,1.365.936l2.106-1a3.414,3.414,0,0,0-3.341-1.911,4.1,4.1,0,0,0-4.368,4.069C-22.581-1.157-21.112.117-18.863.117ZM-7.085-4.069c0-1.846-1.326-3.094-3.471-3.094A4.007,4.007,0,0,0-14.82-3.094c0,1.963,1.482,3.211,3.744,3.211a4.99,4.99,0,0,0,3-.91L-9.1-2.34a2.719,2.719,0,0,1-1.7.572c-.975,0-1.508-.364-1.6-1.144h5.174A5.315,5.315,0,0,0-7.085-4.069Zm-3.588-1.339a1.161,1.161,0,0,1,1.313,1.2h-2.9A1.6,1.6,0,0,1-10.673-5.408ZM.936.117A4.079,4.079,0,0,0,5.265-3.965c0-1.937-1.443-3.2-3.692-3.2A4.077,4.077,0,0,0-2.756-3.094C-2.756-1.157-1.313.117.936.117Zm.143-1.989A1.227,1.227,0,0,1-.247-3.211,1.753,1.753,0,0,1,1.43-5.187,1.236,1.236,0,0,1,2.756-3.835,1.749,1.749,0,0,1,1.079-1.872Zm9.633-5.993a1.363,1.363,0,0,1,.728.208l.949-1.729a3.512,3.512,0,0,0-1.7-.377A3.136,3.136,0,0,0,7.371-7.072l-.052.286H6.279L5.9-4.94h1.04L5.954,0h2.47l.988-4.94h1.6l.364-1.846H9.711l.026-.143C9.88-7.566,10.166-7.865,10.712-7.865Zm14.43.7a3.329,3.329,0,0,0-2.587,1.144,2.281,2.281,0,0,0-2.119-1.144,2.988,2.988,0,0,0-2.106.832l.143-.715h-2.34L14.729,0H17.2l.7-3.523c.221-1.092.754-1.547,1.508-1.547a.828.828,0,0,1,.884.949,2.171,2.171,0,0,1-.052.481L19.5,0h2.47l.715-3.549c.221-1.079.754-1.521,1.495-1.521a.818.818,0,0,1,.884.936,2.283,2.283,0,0,1-.052.494L24.284,0h2.47l.767-3.9a4.224,4.224,0,0,0,.091-.871A2.247,2.247,0,0,0,25.142-7.163Zm9.659.117-.169.845a2.406,2.406,0,0,0-2.158-.962,3.9,3.9,0,0,0-3.822,4.069A3,3,0,0,0,31.629.117a2.892,2.892,0,0,0,2.041-.78L33.527,0h2.34l1.4-7.046ZM32.487-1.872a1.236,1.236,0,0,1-1.339-1.339,1.761,1.761,0,0,1,1.677-1.976,1.246,1.246,0,0,1,1.339,1.352A1.749,1.749,0,0,1,32.487-1.872ZM43.264-7.163a3.211,3.211,0,0,0-2.21.845l.143-.728h-2.34L37.453,0h2.47l.7-3.484c.221-1.079.806-1.586,1.651-1.586.663,0,.975.325.975.936a2.061,2.061,0,0,1-.052.468L42.471,0h2.47l.78-3.9a4.224,4.224,0,0,0,.091-.871A2.277,2.277,0,0,0,43.264-7.163Zm9.516.117-2.6,4.329L49.3-7.046H46.839l1.6,7.1A1.164,1.164,0,0,1,47.4.689a1.657,1.657,0,0,1-1.092-.4L45.2,2.028a3.351,3.351,0,0,0,1.989.611c1.482,0,2.392-.533,3.5-2.327L55.2-7.046Z" data-name="Path 20195" opacity=".9" transform="translate(1693.624 1347.84) rotate(44.55)"/></g></svg>