<svg xmlns="http://www.w3.org/2000/svg" xmlns:xlink="http://www.w3.org/1999/xlink" width="597.547" height="559.49" viewBox="0 0 597.547 559.49"><defs><style>.a{fill:#92e3a9;}.a,.d,.e,.g,.h,.i,.j{stroke:#263238;}.a,.d,.e,.g,.h,.i,.j,.k{stroke-linecap:round;stroke-linejoin:round;}.b,.g{fill:#f8951d;}.c,.e{fill:#fff;}.c{opacity:0.7;}.d,.h,.i,.j,.k{fill:none;}.f{fill:#263238;}.h{stroke-dasharray:11.84 11.84;}.i{stroke-dasharray:10.6 10.6;}.j{stroke-dasharray:12;}.k{stroke:#fff;}.k,.m{opacity:0.2;}.l{clip-path:url(#a);}.m{fill:rgba(0,0,0,0.7);}.n{clip-path:url(#b);}</style><clipPath id="a"><path class="a" d="M135.486,252.87,133.654,308.9l-.8,25L92.1,344.138l-10.868,2.755C58.791,331.741,62.1,292.333,62.1,292.333l10.951-7.893,6.557,1.309S120.872,255.225,135.486,252.87Z" transform="translate(-61.926 -252.87)"/></clipPath><clipPath id="b"><path class="a" d="M280.295,268.069c-2.755,11.143-7.879,17.163-12.218,20.372a18.966,18.966,0,0,1-7.562,3.623L215.06,317.257s-9.642-21.929-7.245-47.549a74.643,74.643,0,0,1,7.245-26.171l43.692-7.727,4.05-4.05h7.19S285.694,246.319,280.295,268.069Z" transform="translate(-207.432 -231.76)"/></clipPath></defs><g transform="translate(-9307 -10865.5)"><path class="b" d="M141.876,530.02c33.347,33.5,112.811,18.953,146.834-3.65,110.4-73.4,304.108-195.7,308.791-366.119,1.984-72.439-62.742-108.817-89.67-119.326C443.16,15.745,372.732,9.436,303.351,8.059,230.885,6.681,153.295,11.075,88.969,48,64.616,62,41.737,79.685,26.365,103.555,10.759,127.743,2.136,156.311.373,184.975-2.465,231.2,11.089,277.152,30.91,319.012s45.813,80.442,69.78,120.07C116.324,464.936,113.762,501.783,141.876,530.02Z" transform="translate(9307.002 10868.271)"/><path class="c" d="M141.876,530.02c33.347,33.5,112.811,18.953,146.834-3.65,110.4-73.4,304.108-195.7,308.791-366.119,1.984-72.439-62.742-108.817-89.67-119.326C443.16,15.745,372.732,9.436,303.351,8.059,230.885,6.681,153.295,11.075,88.969,48,64.616,62,41.737,79.685,26.365,103.555,10.759,127.743,2.136,156.311.373,184.975-2.465,231.2,11.089,277.152,30.91,319.012s45.813,80.442,69.78,120.07C116.324,464.936,113.762,501.783,141.876,530.02Z" transform="translate(9307.002 10868.271)"/><rect class="d" width="549.11" height="23.678" transform="translate(9332.059 10866)"/><path class="d" d="M414.22,15.863a6.887,6.887,0,1,1,2.023-4.876,6.887,6.887,0,0,1-2.023,4.876Z" transform="translate(9458.906 10866.855)"/><line class="d" x1="5.014" y2="5.028" transform="translate(9865.738 10875.323)"/><line class="d" x1="5.014" y1="5.028" transform="translate(9865.738 10875.323)"/><path class="d" d="M401.2,10.987A6.887,6.887,0,1,1,394.317,4.1,6.887,6.887,0,0,1,401.2,10.987Z" transform="translate(9453.228 10866.855)"/><path class="d" d="M393.4,13.628V6.52h3.554v3.554H389.85v3.554Z" transform="translate(9454.141 10867.771)"/><path class="d" d="M386.174,10.987A6.887,6.887,0,1,1,379.287,4.1a6.887,6.887,0,0,1,6.887,6.887Z" transform="translate(9447.555 10866.855)"/><line class="d" x1="7.108" transform="translate(9823.274 10877.847)"/><path class="d" d="M17.54,145.485V22.44H120.861" transform="translate(9313.623 10873.78)"/><path class="d" d="M431.729,216.12V22.44H377.39" transform="translate(9449.439 10873.78)"/><line class="d" y2="42.686" transform="translate(9881.168 11102.985)"/><line class="d" y2="16.736" transform="translate(9881.168 11178.151)"/><line class="d" y2="19.628" transform="translate(9331.094 11030.465)"/><line class="d" x2="146.751" transform="translate(9445.93 10896.221)"/><line class="d" x2="9.325" transform="translate(9639.594 10896.221)"/><path class="d" d="M334.571,336.464h-8.829a5.978,5.978,0,0,1-5.7-4.9l-2.149-13.43" transform="translate(9426.983 10985.381)"/><path class="d" d="M360.4,318.13l2.135,13.43a4.132,4.132,0,0,1-4.132,4.9H333.15" transform="translate(9432.74 10985.381)"/><path class="d" d="M340.27,304.82h9.642a6.006,6.006,0,0,1,5.716,4.917l1.295,8.127" transform="translate(9435.429 10980.358)"/><line class="d" x2="3.058" transform="translate(9768.993 11285.179)"/><path class="d" d="M317.883,319.42l-1.543-9.642a4.132,4.132,0,0,1,4.132-4.917h15.951" transform="translate(9426.369 10980.373)"/><path class="d" d="M352.026,299.42h-3.554a1.474,1.474,0,0,0-1.377.95l-1.185,3.044H324.849a4.945,4.945,0,0,0-4.669,3.347" transform="translate(9427.846 10978.318)"/><path class="d" d="M358.843,308.346a4.9,4.9,0,0,0-4.573-4.89l-1.2-3.085a1.474,1.474,0,0,0-1.378-.95H345" transform="translate(9437.212 10978.318)"/><path class="d" d="M351.48,339.7a4.917,4.917,0,0,0,4.917-4.917V309.56" transform="translate(9439.659 10982.147)"/><path class="d" d="M266.825,328.071l-2.934-18.333a4.132,4.132,0,0,1,4.132-4.917h6.336" transform="translate(9406.572 10980.358)"/><path class="d" d="M294.752,333.95h-21.9a5.978,5.978,0,0,1-5.716-4.9l-.675-4.256" transform="translate(9407.573 10987.896)"/><line class="d" x1="7.273" transform="translate(9705.602 11321.846)"/><path class="d" d="M275.48,304.82h26.557a5.992,5.992,0,0,1,5.7,4.917l4.27,26.846a4.132,4.132,0,0,1-4.132,4.9" transform="translate(9410.975 10980.358)"/><path class="d" d="M284.638,302.32H272.379a4.931,4.931,0,0,0-4.669,3.347" transform="translate(9408.044 10979.417)"/><path class="d" d="M309.981,325.192V308.346a4.9,4.9,0,0,0-4.573-4.89l-1.2-3.085a1.515,1.515,0,0,0-1.377-.95H290.27a1.515,1.515,0,0,0-1.377.95l-1.184,3.044H282.97" transform="translate(9413.803 10978.318)"/><path class="d" d="M299,335.569a4.917,4.917,0,0,0,4.931-4.917V320.5" transform="translate(9419.852 10986.276)"/><path class="d" d="M282.067,288.274h-8.815a5.992,5.992,0,0,1-5.716-4.917L265.4,269.94" transform="translate(9407.171 10967.193)"/><path class="d" d="M307.915,269.94l2.149,13.416a4.132,4.132,0,0,1-4.132,4.917H280.67" transform="translate(9412.937 10967.193)"/><path class="d" d="M287.79,256.63h9.642a5.992,5.992,0,0,1,5.7,4.917l1.295,8.127" transform="translate(9415.623 10962.169)"/><line class="d" x2="3.044" transform="translate(9696.718 11218.8)"/><path class="d" d="M265.447,271.23l-1.557-9.642a4.132,4.132,0,0,1,4.132-4.918h15.951" transform="translate(9406.572 10962.187)"/><path class="d" d="M299.542,251.22H296a1.529,1.529,0,0,0-1.377.964l-1.185,3.044H272.379a4.917,4.917,0,0,0-4.669,3.347" transform="translate(9408.044 10960.125)"/><path class="d" d="M306.362,260.146a4.931,4.931,0,0,0-4.573-4.89l-1.2-3.072a1.529,1.529,0,0,0-1.377-.964H292.56" transform="translate(9417.422 10960.125)"/><path class="d" d="M299,291.508a4.931,4.931,0,0,0,4.931-4.931V261.37" transform="translate(9419.852 10963.957)"/><path class="d" d="M319.261,279.881l-2.92-18.334a4.132,4.132,0,0,1,4.132-4.917H326.8" transform="translate(9426.369 10962.17)"/><path class="d" d="M347.236,285.76H325.321a5.992,5.992,0,0,1-5.7-4.917l-.689-4.242" transform="translate(9427.375 10969.708)"/><line class="d" x1="7.259" transform="translate(9777.89 11255.466)"/><path class="d" d="M328,256.63h26.543a6.006,6.006,0,0,1,5.716,4.917l4.27,26.832A4.132,4.132,0,0,1,360.4,293.3" transform="translate(9430.796 10962.169)"/><path class="d" d="M337.136,254.13H324.849a4.931,4.931,0,0,0-4.669,3.347" transform="translate(9427.846 10961.227)"/><path class="d" d="M362.466,277.005v-16.86a4.917,4.917,0,0,0-4.573-4.89l-1.2-3.072a1.488,1.488,0,0,0-1.378-.964H342.742a1.488,1.488,0,0,0-1.377.964l-1.185,3.044H335.4" transform="translate(9433.593 10960.125)"/><path class="d" d="M351.48,287.379a4.917,4.917,0,0,0,4.917-4.931V272.31" transform="translate(9439.659 10968.089)"/><path class="d" d="M72.741,221.267H34.311a5.978,5.978,0,0,1-5.716-4.9l-4.284-26.846a4.132,4.132,0,0,1,4.132-4.917H66.9a5.992,5.992,0,0,1,5.7,4.917l4.284,26.846a4.132,4.132,0,0,1-4.146,4.9Z" transform="translate(9316.149 10934.983)"/><path class="d" d="M71.26,223.316a4.917,4.917,0,0,0,4.89-4.917V188.1a4.9,4.9,0,0,0-4.573-4.89l-1.2-3.085A1.515,1.515,0,0,0,69,179.17H56.452a1.515,1.515,0,0,0-1.377.95l-1.185,3.044H32.829a4.931,4.931,0,0,0-4.669,3.347" transform="translate(9317.63 10932.933)"/><circle class="e" cx="7.328" cy="7.328" r="7.328" transform="translate(9666.62 11247.934)"/><path class="f" d="M265.4,281.342a1.088,1.088,0,0,0,1.2-.881h.744v6.983H266.23v-5.331h-.84Z" transform="translate(9407.169 10971.165)"/><path class="e" d="M332.016,285.108a7.328,7.328,0,1,1-7.328-7.328,7.328,7.328,0,0,1,7.328,7.328Z" transform="translate(9426.781 10970.153)"/><path class="f" d="M323.109,281.372c-.344,0-.565.193-.565.689v.744H321.5v-.675a1.639,1.639,0,1,1,3.278,0,3.829,3.829,0,0,1-1.377,2.755c-.647.7-.827,1.033-.827,1.377a.468.468,0,0,0,0,.138h2.066V287.4H321.47v-.854a3.044,3.044,0,0,1,1.1-2.231,2.906,2.906,0,0,0,1.074-2.176C323.674,281.537,323.454,281.372,323.109,281.372Z" transform="translate(9428.332 10971.177)"/><path class="e" d="M275.726,333.448a7.328,7.328,0,1,1-7.314-7.328,7.328,7.328,0,0,1,7.314,7.328Z" transform="translate(9405.536 10988.398)"/><path class="f" d="M267.391,330.55c0-.634-.22-.8-.565-.8s-.578.193-.578.689v.441h-1.033v-.4a1.529,1.529,0,0,1,1.639-1.749c1.074,0,1.625.634,1.625,1.749v.179a1.377,1.377,0,0,1-.758,1.377h0a1.377,1.377,0,0,1,.758,1.446v.551c0,1.116-.551,1.749-1.625,1.749a1.529,1.529,0,0,1-1.639-1.749v-.578H266.3v.647c0,.5.22.689.578.689s.565-.165.565-.785v-.551c0-.647-.22-.882-.716-.882H266.3v-.992h.427c.413,0,.661-.179.661-.744Z" transform="translate(9407.094 10989.382)"/><path class="e" d="M332.016,333.448a7.328,7.328,0,1,1-7.328-7.328,7.328,7.328,0,0,1,7.328,7.328Z" transform="translate(9426.781 10988.398)"/><path class="f" d="M321.31,333.525l1.984-4.725h1.2v4.725h.523v1.061h-.523v1.267H323.4v-1.267H321.31Zm2.094,0v-2.59h0l-1.061,2.59Z" transform="translate(9428.271 10989.405)"/><line class="d" x2="26.447" transform="translate(9804.765 11105.247)"/><path class="d" d="M353.72,192.028V174.19H359.9" transform="translate(9440.507 10931.057)"/><path class="d" d="M359,227.08H353.72V189.49" transform="translate(9440.507 10936.832)"/><line class="d" x1="6.639" transform="translate(9802.49 11163.908)"/><path class="d" d="M397.581,216.1v.937H369.55" transform="translate(9446.479 10946.874)"/><line class="d" y2="41.295" transform="translate(9844.061 11118.111)"/><path class="e" d="M409.555,181.055v45.8H359.72V168.19H396.7l8.636,8.65Z" transform="translate(9442.771 10928.79)"/><path class="e" d="M399.421,181.055H386.57V168.19l8.636,8.65Z" transform="translate(9452.902 10928.79)"/><line class="d" y2="12.535" transform="translate(9827.404 11120.052)"/><line class="d" x1="12.535" transform="translate(9821.141 11126.322)"/><path class="e" d="M160.918,102.6v74.119H80.27V81.79h59.835L154.1,95.785Z" transform="translate(9337.298 10896.181)"/><line class="d" x2="52.301" transform="translate(9435.504 10992.24)"/><line class="d" x2="59.67" transform="translate(9428.135 11001.732)"/><line class="d" x2="59.67" transform="translate(9428.135 11011.237)"/><line class="d" x2="59.67" transform="translate(9428.135 11020.729)"/><line class="d" x2="59.67" transform="translate(9428.135 11030.219)"/><line class="d" x2="59.67" transform="translate(9428.135 11039.721)"/><line class="d" x2="59.67" transform="translate(9428.135 11049.214)"/><line class="d" x2="52.315" transform="translate(9428.135 11058.716)"/><path class="g" d="M144.523,102.6H123.71V81.79L137.7,95.785Z" transform="translate(9353.692 10896.181)"/><path class="e" d="M352.7,85.5v74.119H272.05V64.69h59.835L345.88,78.685Z" transform="translate(9409.679 10889.729)"/><line class="d" x2="52.315" transform="translate(9699.663 10968.688)"/><line class="d" x2="59.67" transform="translate(9692.313 10978.178)"/><line class="d" x2="59.67" transform="translate(9692.313 10987.681)"/><line class="d" x2="59.67" transform="translate(9692.313 10997.173)"/><line class="d" x2="59.67" transform="translate(9692.313 11006.676)"/><line class="d" x2="59.67" transform="translate(9692.313 11016.167)"/><line class="d" x2="59.67" transform="translate(9692.313 11025.658)"/><line class="d" x2="52.301" transform="translate(9692.313 11035.163)"/><path class="g" d="M336.3,85.5H315.49V64.69l13.995,13.995Z" transform="translate(9426.076 10889.729)"/><path class="d" d="M339.195,136.26v8.264H330.93" transform="translate(9431.903 10916.739)"/><line class="h" x1="57.094" transform="translate(9689.43 11061.262)"/><path class="d" d="M273.985,144.524H265.72V136.26" transform="translate(9407.292 10916.739)"/><line class="i" y1="80.331" transform="translate(9673.014 10958.066)"/><path class="d" d="M265.72,64.295V56.03h8.265" transform="translate(9407.292 10886.459)"/><line class="h" x2="57.094" transform="translate(9697.583 10942.489)"/><path class="d" d="M330.93,56.03h8.264v8.265" transform="translate(9431.903 10886.459)"/><line class="i" y2="80.331" transform="translate(9771.096 10965.367)"/><line class="j" y1="23.086" x2="146.875" transform="translate(9508.063 11004.569)"/><path class="f" d="M255.95,101.082l-4.49-1.722,1.061,5.1Z" transform="translate(9401.91 10902.813)"/><path class="f" d="M147.883,118.271a1.5,1.5,0,1,1-1.5-1.5,1.5,1.5,0,0,1,1.5,1.5Z" transform="translate(9361.686 10909.382)"/><circle class="e" cx="12.163" cy="12.163" r="12.163" transform="translate(9750.715 10946.086) rotate(-45)"/><line class="d" y2="12.535" transform="translate(9767.915 10939.814)"/><line class="d" x1="12.535" transform="translate(9761.651 10946.084)"/><path class="e" d="M188.663,205c-1.639,0-4.793-4.463-6.653-7.3,0,5.868.069,20.854,2.6,19.89C187.768,216.392,191.06,205,188.663,205Z" transform="translate(9375.699 10939.93)"/><path class="e" d="M203.17,257.772a11.173,11.173,0,0,1-3.623,2.755c-4.022,2.066-10.083,3.044-17.039,2.755-28.044-1.074-70.745-22.4-53.981-75.083,10.276-32.342,57.053-21.571,69-9.256,4.132,4.311,7.672,13.375,9.9,24.008.813,3.884-.813,7.975-.358,12.121.4,3.747,2.92,7.535,2.989,11.267C210.291,239.4,208.28,251.532,203.17,257.772Z" transform="translate(9354.087 10928.272)"/><path class="f" d="M183.719,236.026c-4.022,2.066-10.083,3.044-17.039,2.755a82.385,82.385,0,0,1,4.738-7.011S180.675,233.161,183.719,236.026Z" transform="translate(9369.911 10952.786)"/><path class="e" d="M186.783,233.7s-2.562,31.9,1.653,39.091-36.281,14.38-52.466,0c0,0,9.256-23.747,8.347-46.681" transform="translate(9358.322 10950.651)"/><path class="f" d="M201.765,199.236s12.6-5.344,8.347-23.044c-5.992-24.931-19.491-9.518-23.981-13.237-6.984-5.771-20.4-11.019-31.185-1.928s-17.342,10.083-31.116,23.113-13.774,42.108,0,53.637,17.4,23.637,30.579,27.466,32.865-1.378,36.819-11.322A50.8,50.8,0,0,0,195.2,237S206.559,216.784,201.765,199.236Z" transform="translate(9349.84 10924.232)"/><path class="e" d="M180.137,213.609s-2.851-12.4-4.642-13.333-7.355,9.835-7.2,14.132,6.006,11.942,8.843,13.774,3.857-3.292,3.953-3.9" transform="translate(9370.519 10940.878)"/><path class="d" d="M174.2,205.26s-2.245,7.355,1.047,13.347" transform="translate(9372.468 10942.78)"/><path class="k" d="M177.529,177.11c-.344,3.926-1.377,8.664-4.669,11.2" transform="translate(9372.242 10932.157)"/><path class="k" d="M160.23,166.818c4.422-2,10.523-4.422,15.413-3.141,6.019,1.584,6.722,10.165,6.777,15.3" transform="translate(9367.476 10926.951)"/><path class="k" d="M167.721,193.13a33.6,33.6,0,0,1-2.631,6.295" transform="translate(9369.312 10938.202)"/><path class="k" d="M151.48,173.625c5.51-1.556,12.287-2.617,17.053,1.281,6.185,5.069,6.612,15.827,5.152,23" transform="translate(9364.175 10930.313)"/><path class="k" d="M157.192,187.81c4.738,8.719,4.669,26.5-6.322,30.717" transform="translate(9363.944 10936.197)"/><path class="k" d="M144.14,180.805c4.7-2.838,11.446,3.967,13.884,7.231" transform="translate(9361.405 10933.295)"/><path class="k" d="M155.034,161.966a6.984,6.984,0,0,0-7.2-2.521" transform="translate(9362.797 10925.413)"/><path class="k" d="M156.619,168.59a24.336,24.336,0,0,0-2.259-5.51" transform="translate(9365.262 10926.86)"/><path class="k" d="M148.642,177.326s.73-14.2-9.642-10.289" transform="translate(9359.464 10928.097)"/><path class="k" d="M132.271,174.426a9.642,9.642,0,0,0-6.061,1.13" transform="translate(9354.638 10931.109)"/><path class="k" d="M138.6,183.46a15.262,15.262,0,0,0-6.253-8.43" transform="translate(9356.955 10931.372)"/><path class="k" d="M131,216a24.788,24.788,0,0,0,4.9,2.755" transform="translate(9356.445 10946.834)"/><path class="k" d="M127.123,191.3c-2.755,8.815-3.747,24.794,3.6,31.929" transform="translate(9354.207 10937.514)"/><path class="k" d="M140.525,185.263c-5.937-2.686-10.84.551-13.265,6.116" transform="translate(9355.035 10934.872)"/><path class="g" d="M133.32,257.68l6.749-19.477s48.664-6.405,60.317,9.738S133.32,257.68,133.32,257.68Z" transform="translate(9357.321 10954.742)"/><path class="e" d="M71.481,250.28s-5.51-9.008-5.055-11.309-.978-13.072,0-18.265c.992-5.51,5.083-4.284,5.083-4.284s1.667-10.51,6.019-9.725c0,0,.606-12.865,2.163-15.592s2.342-4.408,2.342-4.408,3.113-1.377,3.113,3.237v13.251l3.5-14.022,5.069-6.984a7.576,7.576,0,0,1,.579,8.926c-2.163,3.884,0,28.044,0,28.044a9.532,9.532,0,0,0,6.488-5.84s1.777-4.959,6.35-6.185.3,4.229-1.377,12.025-12.314,24.918-17.8,28.416" transform="translate(9331.939 10934.068)"/><path class="e" d="M100.481,225l-13.54,77.769,41.612-24.325-8.471,60.083s-53.623,24.794-65.676,27.4-15.069-31.681-13.265-40.758,35.069-77.6,39.229-96.957" transform="translate(9322.349 10950.233)"/><path class="d" d="M51.22,296.277a74.97,74.97,0,0,1,23.306-12.4" transform="translate(9326.335 10972.456)"/><path class="b" d="M135.486,252.87,133.654,308.9l-.8,25L92.1,344.138l-10.868,2.755C58.791,331.741,62.1,292.333,62.1,292.333l10.951-7.893,6.557,1.309S120.872,255.225,135.486,252.87Z" transform="translate(9330.375 10960.75)"/><g class="l" transform="translate(9392.301 11213.62)"><path class="m" d="M125.656,300.853l-.8,25L84.1,336.088c-3.6-10.84,3.843-7.865,3.843-7.865a23.031,23.031,0,0,1-3.815-12.4l7.548,3.554c-4.532-11.446,3.113-24.312,3.113-24.312l1.377,12.4c-1.377-12.4,13.292-33.265,13.292-33.265S120.146,282.575,125.656,300.853Z" transform="translate(-53.927 -244.82)"/></g><path class="d" d="M135.486,252.87,133.654,308.9l-.8,25L92.1,344.138l-10.868,2.755C58.791,331.741,62.1,292.333,62.1,292.333l10.951-7.893,6.557,1.309S120.872,255.225,135.486,252.87Z" transform="translate(9330.375 10960.75)"/><path class="d" d="M90.6,293.83s-.152,11.557,5.372,21.088" transform="translate(9341.195 10976.21)"/><path class="d" d="M83.88,307s8.76,10.73,15,13" transform="translate(9338.661 10981.181)"/><path class="d" d="M75.969,276.74s-7.19,14.945-3.058,29.642" transform="translate(9334.038 10969.76)"/><path class="b" d="M103.257,275.666c-6.171,18.21-8.265,51.516-8.664,82.866-.523,38.94,1.543,74.822,1.543,74.822,32.48,55.193,105.731,32.328,132.233,21.75h.138c6.061-2.438,9.642-4.132,9.642-4.132A834.832,834.832,0,0,0,255.476,357.1h0c5.193-41.86,5.317-73.1,4.394-92.673a212.679,212.679,0,0,0-2.162-24.036s-23.21.289-50.634,2.232h0c-14.849,1.047-30.923,2.562-45.221,4.78a189.234,189.234,0,0,0-26.722,5.882c-4.656,1.377-12.287,4.008-15.689,5.276a57.47,57.47,0,0,0-5.647,2.755" transform="translate(9342.671 10956.041)"/><path class="m" d="M195.849,242c-15.014,6.446-38.182,14.408-46.653,14.146-9.256-.275-20.345-.95-25.166-3.416a189.24,189.24,0,0,1,26.6-5.951C164.926,244.507,181,242.992,195.849,242Z" transform="translate(9353.812 10956.647)"/><path class="m" d="M228.329,446.372c-26.447,10.579-99.7,33.444-132.233-21.749,0,0-2.066-35.813-1.543-74.822,10.441,21.488,44.849,35.4,44.849,35.4s-3.8-42.108,0-52.273,14.587-69.257,14.587-69.257,4.132,11.86-2.41,44.188-3.636,77.342-3.636,77.342c16.033,3.485,54.463,0,54.463,0-27.659,39.2-88.61,45.813-88.61,45.813C156,466.427,224.9,447.322,228.329,446.372Z" transform="translate(9342.658 10964.827)"/><path class="m" d="M218.985,351.3c-1.157-9.146-2.245-16.047-2.245-16.047-2.755,21.722-31.433,28.692-24.711,21.35s18.705-30.3,18.705-30.3c-6.171-17.989,3.9-70.744,3.9-70.744s3.5.95,8.747,3.017C224.3,278.2,224.178,309.445,218.985,351.3Z" transform="translate(9379.096 10961.767)"/><path class="d" d="M232.8,450.931a834.839,834.839,0,0,0,17.328-93.871h0c5.193-41.86,5.317-73.1,4.394-92.673a212.657,212.657,0,0,0-2.163-24.036s-23.21.289-50.634,2.231h0c-14.849,1.047-30.923,2.562-45.221,4.78a189.238,189.238,0,0,0-26.653,5.937c-4.656,1.377-12.287,4.008-15.689,5.276a57.457,57.457,0,0,0-5.647,2.755" transform="translate(9347.954 10956.024)"/><path class="d" d="M103.257,266c-6.171,18.209-8.265,51.516-8.664,82.866-.523,38.94,1.543,74.822,1.543,74.822" transform="translate(9342.671 10965.705)"/><path class="d" d="M195.731,241.79S145.3,261.9,133.32,260.757" transform="translate(9357.321 10956.566)"/><path class="d" d="M142.993,261.56s-14.6,99.037-9.642,132.839c0,0-4.132,32.452-8.581,52.728" transform="translate(9354.093 10964.032)"/><path class="d" d="M104.476,345.72s-2.2,15.262,36.543,16.915,60.262-14.174,60.262-14.174" transform="translate(9346.427 10995.795)"/><path class="e" d="M293.282,194.517c-.992-8.113-1.708-29.257,0-30.606s10.7-15.358,10.7-15.358c1.956.151,1.377,3.223,1.377,3.223s11.694-20.179,14.394-24.256,4.49-1.377,4.05,3.113c0,0,3.209-6.584,4.642-4.573,2.851,4.008-3.747,23.912-3.747,23.912s5.95-.441,5.675,6.295c0,0,3.623-1.116,3.926,4.766.193,3.912-1.694,15.4-5.716,13,0,0-2.534,16.364-17.824,24.256" transform="translate(9417.307 10912.686)"/><path class="d" d="M304.173,144.58s-3.746,6.667-6.295,11.309-2.548,7.2-2.548,7.2" transform="translate(9418.468 10919.881)"/><path class="d" d="M318.02,129.23s-8.705,18.444-10.51,21.143" transform="translate(9423.067 10914.088)"/><path class="d" d="M316.858,143.27s-3.444,3.444-3.9,3.981" transform="translate(9425.121 10919.385)"/><path class="d" d="M320.891,147.84s-1.377,1.129-3.581,2.92" transform="translate(9426.763 10921.111)"/><path class="d" d="M318.61,163.533s.771-5.248.771-5.7,2.4-2.094,3.141-4.49" transform="translate(9427.254 10923.185)"/><path class="e" d="M313.347,170.64s-2.4,7.782-18.6,37.273-22.769,45.868-22.769,45.868l-30.813,8.43,7.948,49.326s53.072-28,54.863-31.8,14.849-43.706,19.284-61.805,9.986-40.193,9.986-40.193" transform="translate(9398.025 10929.716)"/><path class="b" d="M280.295,268.069c-2.755,11.143-7.879,17.163-12.218,20.372a18.966,18.966,0,0,1-7.562,3.623L215.06,317.257s-9.642-21.929-7.245-47.549a74.643,74.643,0,0,1,7.245-26.171l43.692-7.727,4.05-4.05h7.19S285.694,246.319,280.295,268.069Z" transform="translate(9385.289 10952.781)"/><g class="n" transform="translate(9592.725 11184.542)"><path class="m" d="M268.077,278.043a18.967,18.967,0,0,1-7.562,3.623L215.06,306.859s-9.642-21.929-7.245-47.549c8.581.964,5.744,29.876,8.76,30.207,3.264.372,17.438-20.937,20.345-20.937,4.642,0,.152,20.289,0,20.937.634-.22,20.909-7.81,26.75-18.884C266.562,265.068,268.669,269.82,268.077,278.043Z" transform="translate(-207.432 -221.362)"/></g><path class="d" d="M280.295,268.069c-2.755,11.143-7.879,17.163-12.218,20.372a18.966,18.966,0,0,1-7.562,3.623L215.06,317.257s-9.642-21.929-7.245-47.549a74.643,74.643,0,0,1,7.245-26.171l43.692-7.727,4.05-4.05h7.19S285.694,246.319,280.295,268.069Z" transform="translate(9385.289 10952.781)"/><path class="d" d="M244.66,234.73a36.5,36.5,0,0,1,9.642,29.642" transform="translate(9399.343 10953.904)"/><path class="d" d="M237.469,272.9s-13.306,17.535-17.328,28.829c0,0-11.019,36.2-26.281,46.213" transform="translate(9380.171 10968.31)"/><path class="d" d="M263.54,231.191s7.011-2.052,10.826.9" transform="translate(9406.471 10952.308)"/></g></svg>