<svg xmlns="http://www.w3.org/2000/svg" width="49.19" height="49.188" viewBox="0 0 49.19 49.188"><defs><style>.a{fill:#01355d;}</style></defs><path class="a" d="M-8851.83-7722.144l-23.708-23.718a1.5,1.5,0,0,1-.461-1.065v-21.549a1.523,1.523,0,0,1,1.525-1.521h21.552a1.506,1.506,0,0,1,1.064.455l23.709,23.777a4.561,4.561,0,0,1,0,6.458l-17.216,17.165a4.578,4.578,0,0,1-3.233,1.334A4.578,4.578,0,0,1-8851.83-7722.144Zm-21.122-25.421,23.227,23.287a1.526,1.526,0,0,0,1.081.449,1.544,1.544,0,0,0,1.086-.449l17.253-17.251h.027a1.533,1.533,0,0,0,.433-1.094,1.549,1.549,0,0,0-.46-1.072l-23.262-23.256h-19.385Zm4.786-11.556a3.047,3.047,0,0,1,3.049-3.048,3.046,3.046,0,0,1,3.048,3.048,3.048,3.048,0,0,1-3.048,3.049A3.048,3.048,0,0,1-8868.166-7759.121Z" transform="translate(8875.999 7769.998)"/></svg>