<svg xmlns="http://www.w3.org/2000/svg" width="54.57" height="50.745" viewBox="0 0 54.57 50.745">
  <path id="Path_19955" data-name="Path 19955" d="M-6858.166-7719.346a.9.9,0,0,1-.448-.527.9.9,0,0,1,.06-.689l3.528-6.739h-13.141A17.833,17.833,0,0,1-6886-7745.133a17.833,17.833,0,0,1,17.833-17.833h31.555l3.528-6.579a.9.9,0,0,1,1.165-.371.879.879,0,0,1,.446.519.881.881,0,0,1-.058.681l-3,5.75-18.5,35.665-3.933,7.567a.9.9,0,0,1-.794.476h-.036A.81.81,0,0,1-6858.166-7719.346Zm-26.088-25.805a16.069,16.069,0,0,0,16.052,16.086h14.111l16.616-32.138h-30.709A16.071,16.071,0,0,0-6884.254-7745.151Zm14.613,8.882a2.045,2.045,0,0,1-2.044-2.045v-14.022a2.045,2.045,0,0,1,2.044-2.045h9.126l4.02,4.02v12.047a2.045,2.045,0,0,1-2.045,2.045Zm-.292-16.068v14.022a.293.293,0,0,0,.292.292h11.1a.292.292,0,0,0,.292-.292v-10.809h-3.506v-3.506h-7.888A.293.293,0,0,0-6869.933-7752.336Z" transform="translate(6886 7770.001)" fill="#f8951d"/>
</svg>
