<svg xmlns="http://www.w3.org/2000/svg" width="49.19" height="55.945" viewBox="0 0 49.19 55.945"><defs><style>.a{fill:#01355d;}</style></defs><path class="a" d="M-8869.3-7714.054a6.746,6.746,0,0,1-6.7-6.7V-7763.3a6.745,6.745,0,0,1,6.7-6.7h29.065a6.745,6.745,0,0,1,6.7,6.7v27.021l3.457,3.458-3.457,3.433v8.63a6.6,6.6,0,0,1-6.632,6.7Zm-3.174-49.244v42.541a3.162,3.162,0,0,0,3.174,3.175h29.065a3.161,3.161,0,0,0,3.175-3.175v-5.128l-2.821,2.8-3.88-3.882,6.7-6.652v-29.68a3.161,3.161,0,0,0-3.175-3.175H-8869.3A3.162,3.162,0,0,0-8872.472-7763.3Zm26.737,41.765.988-4.444,3.881,3.88-4.3,1.059a.549.549,0,0,1-.107.011A.433.433,0,0,1-8845.734-7721.533Zm-20.882-12.2a1.746,1.746,0,0,1-1.764-1.764,1.746,1.746,0,0,1,1.764-1.765h23.068a1.747,1.747,0,0,1,1.765,1.765,1.747,1.747,0,0,1-1.765,1.764Zm33.651-4.022,1.693-1.622a1.747,1.747,0,0,1,2.4,0l1.692,1.692a1.407,1.407,0,0,1,0,1.9l-1.9,1.9Zm-33.651-5.15a1.745,1.745,0,0,1-1.764-1.763,1.745,1.745,0,0,1,1.764-1.763h23.068a1.746,1.746,0,0,1,1.765,1.763,1.747,1.747,0,0,1-1.765,1.763Zm0-9.171a1.746,1.746,0,0,1-1.764-1.763,1.745,1.745,0,0,1,1.764-1.763h23.068a1.746,1.746,0,0,1,1.765,1.763,1.747,1.747,0,0,1-1.765,1.763Z" transform="translate(8876 7769.999)"/></svg>