<svg xmlns="http://www.w3.org/2000/svg" width="131.697" height="135" viewBox="0 0 131.697 135">
  <g id="capital_gain" data-name="capital gain" transform="translate(-6.254 -0.009)">
    <path id="Path_27618" data-name="Path 27618" d="M176.509,29.758,179.973,40.1c9.029,9.683,15.608,17.886,19.735,25.132C212.9,88.4,194.133,111.928,169,111.5c-25.134.424-43.9-23.1-30.709-46.267C142.417,57.991,149,49.787,158.025,40.1L161.5,29.77l-8.461-8.461a5.31,5.31,0,0,1,6.627-8.221,2.73,2.73,0,0,0,4.143-1.716,5.31,5.31,0,0,1,10.378,0,2.73,2.73,0,0,0,4.142,1.716,5.331,5.331,0,0,1,6.627.711h0a5.326,5.326,0,0,1,0,7.51Z" transform="translate(-94.025 -5.287)" fill="#ffc338" fill-rule="evenodd"/>
    <path id="Path_27619" data-name="Path 27619" d="M236.232,29.76,239.7,40.106c9.029,9.683,15.608,17.886,19.735,25.132,13.193,23.164-5.575,46.691-30.709,46.268-.492.008-.981,0-1.468-.006,24.388-.495,42.175-23.551,29.241-46.262-4.127-7.246-10.706-15.45-19.735-25.133L233.3,29.76l8.449-8.449a5.326,5.326,0,0,0,0-7.51h0a5.263,5.263,0,0,0-2.288-1.344,5.325,5.325,0,0,1,5.224,1.344h0a5.326,5.326,0,0,1,0,7.51Zm-21.176-17.3a5.331,5.331,0,0,1,4.335.632l.011.007a2.943,2.943,0,0,1-.426.219,2.658,2.658,0,0,1-2.52-.225,5.256,5.256,0,0,0-1.4-.632Zm12.2-5.059a5.339,5.339,0,0,1,3.722,3.975,2.73,2.73,0,0,0,4.132,1.722,2.646,2.646,0,0,1-1.2-1.722,5.332,5.332,0,0,0-5.189-4.183A5.263,5.263,0,0,0,227.253,7.4Z" transform="translate(-153.748 -5.288)" fill="#f5b829" fill-rule="evenodd"/>
    <path id="Path_27620" data-name="Path 27620" d="M208.74,103.165h23.053a5.167,5.167,0,1,0,0-10.335H208.74a5.167,5.167,0,1,0,0,10.335Z" transform="translate(-145.293 -68.347)" fill="#837683" fill-rule="evenodd"/>
    <path id="Path_27621" data-name="Path 27621" d="M299.47,103.165h2.936a5.167,5.167,0,1,0,0-10.335H299.47a5.167,5.167,0,1,1,0,10.335Z" transform="translate(-215.905 -68.347)" fill="#685e68" fill-rule="evenodd"/>
    <g id="Group_6456" data-name="Group 6456" transform="translate(8.363 78.153)">
      <path id="Path_27622" data-name="Path 27622" d="M47.318,314.449,72.3,299.976c4.688-2.716,9.456-4.642,14.609-2.97,5.745,1.863,15.127,5.864,24.695,7.59a6.939,6.939,0,0,1,4.8,8.313c-.966,3.606-4.013,5.466-8.313,4.8l3.345.535a15.571,15.571,0,0,0,10.707-1.865l24.018-13.989c18.669-10.873,21.412,5.854,15.2,9.676L117.776,338.9a15.982,15.982,0,0,1-12.943,1.825l-31.614-8.471-11.708,6.76a4.729,4.729,0,0,1-6.447-1.727l-9.467-16.4a4.728,4.728,0,0,1,1.721-6.444Z" transform="translate(-36.869 -296.382)" fill="#f6dccd" fill-rule="evenodd"/>
      <path id="Path_27623" data-name="Path 27623" d="M115.831,314.4c-1.335,2.609-4.086,3.87-7.743,3.3-5.179-1.37-10.351-2.773-15.526-4.16a2.6,2.6,0,1,1,1.345-5.019Zm-68.514.045L72.3,299.976c4.688-2.716,9.456-4.642,14.609-2.97,3.074,1,7.189,2.605,11.816,4.15L50.332,329.094l-4.735-8.2A4.728,4.728,0,0,1,47.318,314.449Z" transform="translate(-36.869 -296.382)" fill="#f1cbbc" fill-rule="evenodd"/>
      <path id="Path_27624" data-name="Path 27624" d="M27.605,332.6,47.417,367.6a3.547,3.547,0,0,1-1.336,4.819l-6.739,3.814a3.547,3.547,0,0,1-4.819-1.336L14.712,339.893a3.547,3.547,0,0,1,1.336-4.819l6.739-3.814A3.547,3.547,0,0,1,27.605,332.6Z" transform="translate(-14.256 -321.728)" fill="#fc8019" fill-rule="evenodd"/>
      <path id="Path_27625" data-name="Path 27625" d="M63.8,356.649l3.507,6.2,3.467,6.127a3.546,3.546,0,0,1-1.325,4.813l2.407-1.362a3.546,3.546,0,0,0,1.336-4.819l-3.479-6.148-6.986-12.344-6.994-12.358L53.383,332.6a3.55,3.55,0,0,0-4.119-1.637l4.072,7.2L60.322,350.5l3.479,6.148h0Z" transform="translate(-40.033 -321.73)" fill="#fff" fill-rule="evenodd"/>
      <path id="Path_27626" data-name="Path 27626" d="M40.408,354.776a2.406,2.406,0,1,0,2.729,2.033A2.406,2.406,0,0,0,40.408,354.776Z" transform="translate(-31.997 -339.361)" fill="#fff" fill-rule="evenodd"/>
    </g>
    <path id="Path_27627" data-name="Path 27627" d="M19.864,96.2a2.4,2.4,0,1,1-2.72-2.027A2.395,2.395,0,0,1,19.864,96.2Zm111.9-3.557L88.308,119.4a13.843,13.843,0,0,1-11.249,1.577L45.543,112.53a2.123,2.123,0,0,0-1.6.21l-4.8,2.774L27.273,94.552l17.863-10.34c4-2.315,8.321-4.254,12.855-2.782,1.456.471,3.134,1.078,5.077,1.782a124.09,124.09,0,0,0,19.666,5.827,4.771,4.771,0,0,1,3.272,5.693c-.841,3.146-3.462,3.536-5.546,3.3-3.528-.728-6.88-1.682-10.426-2.694-1.681-.483-3.42-.979-5.207-1.459a2.11,2.11,0,0,0-1.092,4.077c1.754.469,3.476.962,5.14,1.436,3.655,1.045,7.107,2.031,10.823,2.79l3.06.5a17.582,17.582,0,0,0,12.071-2.117L118.77,86.613c6.9-4.019,12.216-4.424,14.215-1.086C134.364,87.829,133.747,91.421,131.761,92.641ZM39.053,126.8a1.431,1.431,0,0,0,.535-1.927l-19.749-34.9a1.441,1.441,0,0,0-1.93-.535l-6.717,3.8a1.435,1.435,0,0,0-.535,1.929l19.749,34.9a1.433,1.433,0,0,0,1.93.535l6.717-3.8ZM46.1,61.21c-3.668,6.439-4.873,13.169-3.548,19.624l.471-.274c4.609-2.669,10.146-5.129,16.271-3.143,1.369.445,2.956,1.012,4.642,1.62-.026-.09-.052-.182-.075-.274a2.109,2.109,0,0,1,4.093-1.021A5.786,5.786,0,0,0,71.5,81.7c2.877,1.207,7.292.994,9.451-1.5a3.248,3.248,0,0,0,.749-2.663c-.211-1.733-1.213-3.845-7.143-4.818-7.847-1.289-9.675-5.309-9.828-8.455-.211-4.357,2.826-8.006,7.558-9.078q.238-.054.478-.1V53.041a2.109,2.109,0,0,1,4.218,0v2.025a10.408,10.408,0,0,1,8.066,6.358,2.108,2.108,0,1,1-3.888,1.633A6.428,6.428,0,0,0,75.012,59.1a2.161,2.161,0,0,1-.223,0,8.052,8.052,0,0,0-1.566.194c-2.155.49-4.412,2-4.277,4.76.046.955.169,3.491,6.3,4.5,2.428.4,9.813,1.612,10.647,8.472a7.449,7.449,0,0,1-1.744,5.931,8.991,8.991,0,0,1-1.974,1.675c.484.1.973.2,1.463.285a1.8,1.8,0,0,1,.275.068,9.058,9.058,0,0,1,6.171,10.839,9.485,9.485,0,0,1-1.112,2.589,13.314,13.314,0,0,0,3.732-1.5l10.255-5.972c6.293-8.852,6.629-19.662.894-29.733-3.792-6.658-9.785-14.322-18.824-24.066H64.922C55.884,46.888,49.892,54.551,46.1,61.21Zm17.349-34.4H86.5a3.058,3.058,0,0,1,0,6.117H63.449a3.058,3.058,0,0,1,0-6.117ZM59.577,12.485a3.175,3.175,0,0,1,.932-2.264,3.224,3.224,0,0,1,4-.429,4.838,4.838,0,0,0,7.342-3.04,3.2,3.2,0,0,1,6.257,0,4.839,4.839,0,0,0,7.342,3.04,3.221,3.221,0,0,1,4,.429,3.215,3.215,0,0,1,0,4.526L81.6,22.591H68.351l-7.842-7.843a3.176,3.176,0,0,1-.932-2.263ZM136.6,83.36c-1.252-2.088-6.389-8.292-19.957-.39l-6.681,3.892a29.969,29.969,0,0,0,2.109-9.255,32.76,32.76,0,0,0-4.56-18.485c-3.688-6.478-9.307-13.793-17.56-22.853A7.274,7.274,0,0,0,87.5,22.66l4.928-4.93A7.419,7.419,0,0,0,83.167,6.243a.619.619,0,0,1-.942-.39,7.419,7.419,0,0,0-14.5,0,.622.622,0,0,1-.944.391,7.466,7.466,0,0,0-9.257.995,7.435,7.435,0,0,0,0,10.492l4.929,4.93a7.274,7.274,0,0,0-2.46,13.609c-8.252,9.058-13.87,16.375-17.561,22.853-4.446,7.807-5.712,16.042-3.7,23.925L25.2,90.882,23.508,87.9a5.642,5.642,0,0,0-7.679-2.127l-6.717,3.8a5.64,5.64,0,0,0-2.129,7.678l19.751,34.9a5.638,5.638,0,0,0,7.68,2.128l6.717-3.8a5.641,5.641,0,0,0,2.128-7.68l-2.043-3.609,4.078-2.355,30.673,8.217a19.6,19.6,0,0,0,5.091.694,17.8,17.8,0,0,0,9.462-2.755l43.453-26.754c3.955-2.434,5.207-8.572,2.631-12.875Z" transform="translate(0 0)" fill-rule="evenodd"/>
  </g>
</svg>
