<svg xmlns="http://www.w3.org/2000/svg" width="36" height="36"><path fill="#cad1d8" d="M4 5h23c.554 0 1 .446 1 1v23c0 .554-.446 1-1 1H4c-.554 0-1-.446-1-1V6c0-.554.446-1 1-1z"/><path fill="#576d7e" d="M7 8h17c.554 0 1 .446 1 1v17c0 .554-.446 1-1 1H7c-.554 0-1-.446-1-1V9c0-.554.446-1 1-1z"/><path style="isolation:auto;mix-blend-mode:normal" fill="#34485c" d="M20 1048.362v1c0 .554.446 1 1 1h1c.554 0 1-.446 1-1v-1h-3zm-16 0v1c0 .554.446 1 1 1h1c.554 0 1-.446 1-1v-1H4z" color="#000" overflow="visible" transform="translate(2 -1018.362)"/><path fill="none" stroke="#2b4255" stroke-linecap="round" stroke-linejoin="round" stroke-miterlimit="34.178" d="M20 17.5c0 3.036-2.474 5.5-5.516 5.5A5.484 5.484 0 0 1 9 17.5c0-3.035 2.44-5.5 5.484-5.5C17.526 12 20 14.465 20 17.5h0z"/><path fill="none" stroke="#2b4255" stroke-linecap="round" stroke-linejoin="round" d="M22 15v5"/><path style="isolation:auto;mix-blend-mode:normal" fill="#2b4255" d="M3 1031.362h2v2H3zm0 7h2v2H3z" color="#000" overflow="visible" transform="translate(2 -1018.362)"/><path fill="none" stroke="#2b4255" d="m16.75 19.75-4.5-4.5"/><path style="isolation:auto;mix-blend-mode:normal" fill="none" stroke="#2b4255" stroke-linecap="round" stroke-linejoin="round" d="M13.5 1035.846a1 1 0 0 1-1 1 1 1 0 0 1-1-1 1 1 0 0 1 1-1 1 1 0 0 1 1 1z" color="#000" overflow="visible" transform="translate(2 -1018.362)"/><path fill="none" stroke="#2b4255" d="M17.5 17.483h-6"/><path fill="none" stroke="#2b4255" stroke-linecap="square" d="M14.5 20.086v-5.17h0m-1.828 4.412 3.656-3.656h0"/><path style="isolation:auto;mix-blend-mode:normal" fill="#fcd062" stroke="#f8b84e" stroke-linecap="round" stroke-linejoin="round" d="M31.5 1043.862a6 6 0 0 1-6 6 6 6 0 0 1-6-6 6 6 0 0 1 6-6 6 6 0 0 1 6 6z" color="#000" overflow="visible" transform="translate(2 -1018.362)"/><path style="line-height:normal;text-indent:0;text-align:start;text-decoration-line:none;text-decoration-style:solid;text-decoration-color:#000;text-transform:none;block-progression:tb;isolation:auto;mix-blend-mode:normal" fill="#34485c" fill-rule="evenodd" d="M23.004 1040.373v1h1.027c1.208 0 1.657.736 1.657 1.49 0 .755-.45 1.49-1.657 1.49h-1.027v1h1.027c1.67 0 2.657-1.254 2.657-2.49 0-1.236-.988-2.49-2.657-2.49h-1.027z" color="#000" font-family="sans-serif" font-weight="400" overflow="visible" transform="translate(2 -1018.362)"/><path style="line-height:normal;text-indent:0;text-align:start;text-decoration-line:none;text-decoration-style:solid;text-decoration-color:#000;text-transform:none;block-progression:tb;isolation:auto;mix-blend-mode:normal" fill="#34485c" fill-rule="evenodd" d="M23.027 1042.363v1h4.969v-1h-4.97zm0-2v1h4.969v-1h-4.97zm.68 3.987-.703.713 3.346 3.298.703-.71-3.346-3.301z" color="#000" font-family="sans-serif" font-weight="400" overflow="visible" transform="translate(2 -1018.362)"/><path style="line-height:normal;text-indent:0;text-align:start;text-decoration-line:none;text-decoration-style:solid;text-decoration-color:#000;text-transform:none;block-progression:tb;isolation:auto;mix-blend-mode:normal" fill="#e9eded" d="M2 6C.91 6 0 6.91 0 8v23c0 1.09.91 2 2 2h1c0 1.09.91 2 2 2h1c1.09 0 2-.91 2-2h11c0 1.09.91 2 2 2h1c.475 0 .876-.205 1.217-.484.732.24 1.47.484 2.283.484 4.126 0 7.5-3.374 7.5-7.5 0-3.597-2.606-6.506-6-7.22V8c0-1.09-.91-2-2-2Zm0 1h23c.554 0 1 .446 1 1v13.025c3.35.257 6 3.06 6 6.475 0 3.584-2.916 6.5-6.5 6.5-.93 0-1.814-.2-2.615-.555A.99.99 0 0 1 22 34h-1c-.554 0-1-.446-1-1v-1H7v1c0 .554-.446 1-1 1H5c-.554 0-1-.446-1-1v-1H2c-.554 0-1-.446-1-1V8c0-.554.446-1 1-1Z" color="#000" font-family="sans-serif" font-weight="400" overflow="visible" transform="translate(2 -2)"/></svg>