<svg xmlns="http://www.w3.org/2000/svg" enable-background="new 0 0 512 512" viewBox="0 0 512 512"><path fill="#fbb381" d="M474.592,328.344c0,66.996-285.98,66.996-285.98,0c0-107.586,64.006-229.183,142.99-229.183C410.555,99.161,474.592,220.757,474.592,328.344z"/><path fill="#7bde9e" d="M405.053,250.132c0,40.549-32.879,73.428-73.465,73.428c-40.549,0-73.428-32.879-73.428-73.428c0-40.585,32.879-73.465,73.428-73.465C372.173,176.667,405.053,209.547,405.053,250.132z"/><path fill="#a7e9bf" d="M392.477,209.017c-12.677-10.34-28.785-16.505-46.383-16.505c-40.566,0-73.477,32.861-73.477,73.427c0,15.213,4.623,29.382,12.528,41.064c-16.454-13.472-26.994-33.954-26.994-56.872c0-40.566,32.911-73.477,73.427-73.477C356.932,176.654,379.304,189.48,392.477,209.017z"/><path fill="#50d27e" d="M405.053,250.083c0,40.567-32.86,73.477-73.427,73.477c-25.355,0-47.726-12.876-60.949-32.414c12.628,10.341,28.834,16.555,46.433,16.555c40.616,0,73.477-32.861,73.477-73.428c0-15.213-4.623-29.38-12.528-41.064C394.512,206.633,405.053,227.116,405.053,250.083z"/><path fill="#fcccab" d="M345.462,378.364c-75.795,2.32-156.831-14.359-156.831-50.037c0-107.553,63.996-229.146,142.952-229.146c4.679,0,9.279,0.44,13.839,1.28C272.946,113.54,216.31,227.133,216.31,328.327C216.31,359.645,278.865,376.324,345.462,378.364z"/><path fill="#fa9957" d="M474.592,328.327c0,35.678-81.035,52.357-156.831,50.037c66.555-2.04,129.112-18.719,129.112-50.037c0-101.193-56.676-214.787-129.152-227.867c4.559-0.84,9.2-1.28,13.879-1.28C410.556,99.18,474.592,220.774,474.592,328.327z"/><path fill="#fbb381" d="M403.987,27.388l-40.183,81c-10.261-5.118-21.055-7.905-32.202-7.905c-11.528,0-22.701,2.989-33.292,8.437l-39.094-78.289c16.038-8.488,36.231-9.197,54.65-6.765c23.106,3.04,45.883,10.16,69.117,9.045C390.305,32.557,397.855,31.29,403.987,27.388z"/><path fill="#fcccab" d="M279.586,25.865l38.038,76.115c-6.6,1.359-13.079,3.719-19.319,6.96l-39.078-78.315c8-4.2,16.999-6.52,26.319-7.48C283.506,23.945,281.506,24.865,279.586,25.865z"/><path fill="#fa9957" d="M403.987,27.885l-40.198,81.035c-4.96-2.48-9.999-4.4-15.199-5.719l34.638-69.796C390.467,33.045,397.908,31.765,403.987,27.885z"/><path fill="#fb8a8a" d="M385.116,99.952c0,3.927-1.612,7.502-4.191,10.111c-2.579,2.579-6.155,4.191-10.112,4.191h-78.426c-7.913,0-14.302-6.418-14.302-14.302c0-3.957,1.612-7.532,4.191-10.111c2.579-2.609,6.155-4.191,10.111-4.191h78.426C378.727,85.65,385.116,92.039,385.116,99.952z"/><path fill="#fcb1b1" d="M309.384,114.26h-16.999c-7.919,0-14.279-6.44-14.279-14.319c0-3.96,1.6-7.52,4.16-10.079c2.599-2.64,6.16-4.2,10.119-4.2h16.999c-3.96,0-7.559,1.56-10.12,4.2c-2.559,2.559-4.2,6.12-4.2,10.079C295.064,107.82,301.464,114.26,309.384,114.26z"/><path fill="#f96363" d="M385.116,99.941c0,3.92-1.6,7.519-4.199,10.119c-2.56,2.6-6.121,4.2-10.079,4.2h-16.999c3.959,0,7.519-1.6,10.119-4.2c2.56-2.6,4.16-6.199,4.16-10.119c0-7.92-6.359-14.279-14.278-14.279h16.999C378.717,85.661,385.116,92.021,385.116,99.941z"/><path fill="#fee8b3" d="M497.052,353.416L330.395,454.872c-10.572,6.398-23.277,8.303-35.211,5.173l-113.116-29.493c-11.796-3.086-24.32-1.316-34.801,4.946l-11.389,6.761l-58.35-98.097l90.429-52.588c15.29-8.894,33.576-10.935,50.455-5.672l111.801,35.119c10.209,4.175,16.743,14.111,16.743,25.001c0,0.681,0,1.315-0.045,1.997c-0.771,10.073-6.897,18.376-15.29,22.414c8.666-3.494,102.407-41.29,143.923-58.396c11.39-4.674,24.502,0.317,29.902,11.525l0.227,0.5C510.8,334.586,507.08,347.29,497.052,353.416z"/><path fill="#fff4d9" d="M346.956,346.02c0,0.681,0,1.315-0.045,1.997c-0.227,2.994-0.907,5.807-2.042,8.439c-2.677-6.443-7.85-11.797-14.656-14.565l-111.801-35.119c-16.879-5.263-35.164-3.221-50.455,5.672l-81.219,47.234l-9.21-15.518l90.429-52.588c15.29-8.894,33.576-10.935,50.455-5.672l111.801,35.119C340.422,325.194,346.956,335.131,346.956,346.02z"/><path fill="#fddd8d" d="M497.052,353.416L330.395,454.872c-10.572,6.398-23.277,8.303-35.211,5.173l-113.116-29.493c-11.796-3.086-24.32-1.316-34.801,4.946l-11.389,6.761l-9.211-15.518l20.6-12.114c10.482-6.262,23.005-8.031,34.801-4.946l113.116,29.493c11.934,3.131,24.639,1.225,35.211-5.172l166.658-101.456c3.674-2.269,6.534-5.399,8.393-8.984l0.227,0.5C510.8,334.586,507.08,347.29,497.052,353.416z"/><path fill="#7ad1f9" d="M5.526,380.341l61.657,103.647c3.009,5.066,9.491,6.814,14.624,3.96l51.26-28.539c5.354-2.986,7.19-9.8,4.048-15.066L75.48,340.719c-3.008-5.066-9.49-6.814-14.623-3.96l-51.26,28.517C4.243,368.262,2.407,375.076,5.526,380.341z"/><path fill="#a6e1fb" d="M88.733,363.262l0.126,0.213c0.039-0.024,0.079-0.047,0.117-0.07l-13.492-22.693c-2.994-5.082-9.482-6.806-14.61-3.947L9.602,365.259c-5.354,2.995-7.214,9.801-4.083,15.064l12.478,20.963c-1.951-4.992,0.045-10.799,4.855-13.476l51.226-28.494C79.206,356.456,85.694,358.181,88.733,363.262z"/><path fill="#4cc3f7" d="M53.915,461.442l-0.126-0.213c-0.039,0.024-0.079,0.047-0.117,0.07l13.493,22.693c2.994,5.082,9.482,6.806,14.61,3.948l51.272-28.495c5.354-2.995,7.214-9.801,4.083-15.064l-12.478-20.963c1.951,4.992-0.045,10.8-4.855,13.477L68.572,465.39C63.443,468.249,56.955,466.524,53.915,461.442z"/><path fill="#333" d="M335.604,298.76v-4.341c2.383-0.401,4.724-1.124,6.941-2.244c11.988-6.043,16.827-20.702,10.784-32.685c-3.553-7.006-10.126-11.729-17.725-12.999v-32.457c4.428,1.129,8.381,4.02,10.589,8.4c0.992,1.973,3.394,2.769,5.371,1.769c1.973-0.992,2.765-3.398,1.769-5.371c-3.615-7.173-10.342-11.762-17.729-13.008v-4.354c0-2.211-1.789-4-4-4c-2.211,0-4,1.789-4,4v4.31c-2.361,0.389-4.702,1.136-6.949,2.264c-11.968,6.031-16.811,20.69-10.784,32.685c3.559,7.019,10.138,11.751,17.733,13.02v32.46c-0.373-0.095-0.752-0.13-1.121-0.252c-4.144-1.371-7.511-4.273-9.476-8.167c-0.992-1.973-3.398-2.777-5.371-1.769c-1.973,0.992-2.765,3.398-1.769,5.371c2.926,5.8,7.933,10.12,14.105,12.159c1.198,0.397,2.412,0.684,3.633,0.89v4.321c0,2.211,1.789,4,4,4C333.815,302.76,335.604,300.971,335.604,298.76z M346.193,263.098c1.961,3.894,2.289,8.32,0.918,12.464c-1.371,4.14-4.269,7.507-8.167,9.472c-1.076,0.543-2.198,0.931-3.34,1.222v-31.61C340.133,255.791,344.012,258.804,346.193,263.098z M317.011,237.123c-4.039-8.046-0.789-17.89,7.238-21.936c1.091-0.547,2.217-0.936,3.355-1.221v31.625C323.076,244.447,319.195,241.427,317.011,237.123z"/><path fill="#333" d="M509.27,322.27l-0.219-0.441c-5.711-11.836-18.908-17.775-31.291-14.68c-5.791-77.798-42.49-159.697-93.749-194.57c3.278-3.456,5.105-7.913,5.105-12.628c0-6.645-3.597-12.417-8.912-15.624l27.364-55.161c0.801-1.609,0.426-3.551-0.906-4.75c-1.344-1.207-3.308-1.359-4.824-0.402c-4.617,2.937-10.667,4.496-19.046,4.902c-15.05,0.734-29.709-2.082-45.232-5.05c-7.562-1.445-15.382-2.941-23.17-3.965c-22.752-3.008-42.478-0.519-57.047,7.195c-1.922,1.016-2.68,3.379-1.707,5.32l26.255,52.575c-0.859,0.607-1.69,1.263-2.444,2.023c-3.457,3.457-5.359,8.05-5.359,12.937c0,4.9,1.961,9.334,5.107,12.622c-45.326,30.835-79.255,98.447-90.513,167.479c-7.939,1.312-15.669,3.956-22.748,8.06L78.938,338.71l-0.021-0.035c-4.136-6.964-12.921-9.347-20.007-5.414L7.647,361.783c-3.539,1.976-6.07,5.218-7.125,9.132c-1.055,3.91-0.5,7.98,1.562,11.464c0,0,0.004,0.004,0.004,0.008l61.657,103.643c2.793,4.699,7.691,7.308,12.757,7.308c2.449,0,4.941-0.613,7.25-1.894l51.266-28.541c3.543-1.98,6.074-5.226,7.125-9.144c0.91-3.401,0.533-6.897-0.924-10.039l8.096-4.799c9.617-5.73,20.897-7.324,31.744-4.488l113.11,29.479c4.07,1.066,8.249,1.59,12.425,1.59c9.027,0,18.03-2.457,25.866-7.203l166.67-101.474v-0.004C510.981,349.593,515.347,334.75,509.27,322.27z M378.097,107.236c-1.949,1.945-4.535,3.019-7.285,3.019h-78.425c-5.679,0-10.3-4.621-10.3-10.304c0-2.75,1.07-5.336,3.031-7.296c1.918-1.937,4.5-3.004,7.269-3.004h78.425c5.683,0,10.304,4.621,10.304,10.3C381.117,102.677,380.038,105.271,378.097,107.236z M264.604,32.467c15.921-6.984,35.064-6.441,48.739-4.636c7.558,0.996,15.265,2.469,22.713,3.894c15.3,2.922,31.084,5.945,47.122,5.183c4.699-0.23,8.82-0.793,12.48-1.73l-23.141,46.646c-0.57-0.054-1.122-0.172-1.705-0.172h-78.425c-1.046,0-2.066,0.13-3.075,0.299L264.604,32.467z M286.281,117.129c1.919,0.686,3.955,1.127,6.107,1.127h72.599c1.036,9.812-1.826,25.217-24.805,37.111c-1.961,1.016-2.726,3.426-1.711,5.39c0.711,1.371,2.105,2.16,3.554,2.16c0.617,0,1.246-0.145,1.836-0.449c24.837-12.853,29.399-30.134,29.276-41.425c6.96,8.876,13.197,23.817,1.016,43.218c-1.176,1.871-0.609,4.34,1.258,5.515c0.664,0.414,1.398,0.613,2.125,0.613c1.332,0,2.633-0.664,3.39-1.871c12.758-20.317,8.302-36.79,1.929-47.371c48.043,34.653,82.187,113.974,87.094,188.869c-32.989,13.537-92.814,37.724-122.115,49.562c1.695-3.496,2.754-7.335,3.055-11.339c0.043-0.758,0.047-1.473,0.047-2.23c0-7.368-2.624-14.227-7.138-19.677c36.902-5.881,65.256-37.685,65.256-76.2c0-42.712-34.752-77.464-77.464-77.464c-42.693,0-77.429,34.752-77.429,77.464c0,18.179,6.333,34.88,16.873,48.093l-51.422-16.153c-7.418-2.3-15.111-3.195-22.738-2.875C208.28,211.217,241.85,145.095,286.281,117.129z M287.067,303.261c-15.192-12.739-24.908-31.799-24.908-53.13c0-38.302,31.146-69.464,69.429-69.464c38.302,0,69.464,31.162,69.464,69.464c0,36.885-28.95,67.058-65.321,69.219c-1.364-0.812-2.803-1.537-4.315-2.157L287.067,303.261z M134.417,451.689c-0.488,1.812-1.656,3.312-3.293,4.226l-51.262,28.537c-3.265,1.828-7.324,0.715-9.242-2.512L8.963,378.294c-0.949-1.605-1.203-3.488-0.715-5.297c0.488-1.812,1.66-3.316,3.293-4.226l51.258-28.517c3.285-1.812,7.335-0.707,9.242,2.508l2.008,3.376c0.014,0.024,0.013,0.053,0.027,0.077l46.775,78.61l12.83,21.571C134.64,448.002,134.901,449.881,134.417,451.689z M494.966,349.991v-0.004l-166.663,101.47c-9.605,5.824-21.311,7.539-32.115,4.711l-113.114-29.478c-4.183-1.09-8.421-1.633-12.628-1.633c-8.8,0-17.464,2.367-25.217,6.984l-7.964,4.722l-13.063-21.955L83.03,345.585l86.919-50.556c14.28-8.273,31.521-10.21,47.274-5.324l111.47,35.002c8.652,3.562,14.241,11.921,14.241,21.299c0,0.602,0.004,1.168-0.027,1.699c-0.62,8.219-5.589,15.529-12.974,19.104c-0.023,0.011-0.049,0.009-0.072,0.02c-0.047,0.016-0.09,0.035-0.133,0.051c-0.219,0.09-0.488,0.203-0.621,0.27c-0.027,0.016-0.055,0.031-0.078,0.043c-3.836,1.644-8.035,2.215-12.214,1.644l-83.936-11.593c-2.199-0.332-4.211,1.227-4.508,3.414c-0.305,2.187,1.226,4.207,3.414,4.508l83.94,11.593c1.422,0.199,2.851,0.293,4.273,0.293c4.449,0,8.828-0.949,12.808-2.785c0.059-0.023,0.125-0.055,0.199-0.086c0.01-0.004,0.017-0.01,0.026-0.014c0.03-0.012,0.062-0.005,0.091-0.018l11.179-4.519c26.885-10.863,98.302-39.716,132.746-53.883c9.449-3.875,20.339,0.32,24.819,9.597l0.223,0.453C506.34,334.523,503.274,344.925,494.966,349.991z"/></svg>