<svg xmlns="http://www.w3.org/2000/svg" width="220.488" height="96.243" viewBox="0 0 220.488 96.243">
  <g id="Group_6457" data-name="Group 6457" transform="translate(-18623.844 -305.315)">
    <path id="Path_27629" data-name="Path 27629" d="M5.845-25.977a24.778,24.778,0,0,1,1.169-7.436,26.933,26.933,0,0,1,3.344-6.981,27.677,27.677,0,0,1,5.39-5.91,25.7,25.7,0,0,1,7.306-4.221,27.611,27.611,0,0,1-9.611-8.67A20.5,20.5,0,0,1,9.871-70.916,22.612,22.612,0,0,1,11.852-80.4a22.839,22.839,0,0,1,5.488-7.533A25.367,25.367,0,0,1,25.652-92.9a29.6,29.6,0,0,1,10.391-1.786A29.31,29.31,0,0,1,46.5-92.866a25.816,25.816,0,0,1,8.313,5,22.448,22.448,0,0,1,5.455,7.533,22.776,22.776,0,0,1,1.948,9.417,20.5,20.5,0,0,1-3.572,11.722,27.955,27.955,0,0,1-9.481,8.67A25.466,25.466,0,0,1,56.369-46.3a28.085,28.085,0,0,1,5.358,5.91,26.934,26.934,0,0,1,3.344,6.981,24.779,24.779,0,0,1,1.169,7.436,27.657,27.657,0,0,1-2.208,11.17,24.96,24.96,0,0,1-6.2,8.67A28.632,28.632,0,0,1,48.284-.52,35.683,35.683,0,0,1,36.042,1.494,35.207,35.207,0,0,1,23.9-.52a29.07,29.07,0,0,1-9.546-5.617,25.128,25.128,0,0,1-6.267-8.67A27.31,27.31,0,0,1,5.845-25.977Zm11.56-.909a22,22,0,0,0,1.331,7.858A16.941,16.941,0,0,0,22.5-13.053a16.443,16.443,0,0,0,5.91,3.8,21.349,21.349,0,0,0,7.7,1.331,20.273,20.273,0,0,0,7.533-1.364,17.557,17.557,0,0,0,5.942-3.832,17.227,17.227,0,0,0,3.9-5.975,20.9,20.9,0,0,0,1.4-7.793,19.907,19.907,0,0,0-1.331-7.306,18.288,18.288,0,0,0-3.8-6.007,17.847,17.847,0,0,0-5.91-4.091,19.223,19.223,0,0,0-7.728-1.494,19.434,19.434,0,0,0-7.436,1.4,17.792,17.792,0,0,0-5.91,3.9,18.046,18.046,0,0,0-3.929,5.975A19.876,19.876,0,0,0,17.4-26.886Zm3.312-43.186a15.518,15.518,0,0,0,1.2,6.137A15.464,15.464,0,0,0,25.23-59a15.563,15.563,0,0,0,4.9,3.312,14.955,14.955,0,0,0,5.975,1.2,14.844,14.844,0,0,0,6.007-1.234,15.523,15.523,0,0,0,4.9-3.344A16.208,16.208,0,0,0,50.33-64a15,15,0,0,0,1.234-6.072,15.923,15.923,0,0,0-1.2-6.234,15.259,15.259,0,0,0-3.28-4.936,15.35,15.35,0,0,0-4.9-3.28,15.352,15.352,0,0,0-6.072-1.2,15.493,15.493,0,0,0-6.267,1.234,15.14,15.14,0,0,0-4.871,3.344,14.623,14.623,0,0,0-3.15,4.968A16.79,16.79,0,0,0,20.716-70.072Zm89.554,71.63q-14.742,0-23.541-9.319t-8.8-24.71q0-16.755,9.157-26.171t24.743-9.417q14.872,0,23.217,9.157t8.345,25.392q0,15.911-8.994,25.49T110.271,1.559ZM111.05-59.1q-10.261,0-16.235,6.981T88.84-32.86q0,11.819,6.04,18.638T111.05-7.4q10.326,0,15.878-6.689T132.48-33.12q0-12.469-5.552-19.223T111.05-59.1Z" transform="translate(18618 400)"/>
    <path id="Path_27628" data-name="Path 27628" d="M80.333-37.666q0,39.225-35.393,39.225-33.9,0-33.9-37.731V-93.126H21.95v56.239q0,28.639,24.158,28.639,23.314,0,23.314-27.665V-93.126h10.91Z" transform="translate(18764 400)" fill="#fc8019"/>
  </g>
</svg>
