<svg xmlns="http://www.w3.org/2000/svg" data-name="Layer 1" viewBox="0 0 512 512"><path fill="#ffead8" d="M66.48 7.5h345.18a29.88 29.88 0 0 1 29.88 29.88v452.18h-321a20.73 20.73 0 0 1-20.73-20.73V165.5Z"/><path fill="#feca9c" d="M68 7.5a31.87 31.87 0 0 1 31.84 31.87v126.5H46.1a10 10 0 0 1-10-10V39.37A31.87 31.87 0 0 1 68 7.5zm31.84 448.2v16.93a31.87 31.87 0 0 0 31.87 31.87 31.86 31.86 0 0 0 31.86-31.87v-21.87a10 10 0 0 1 10-10H444a31.86 31.86 0 0 1 31.87 31.86A31.87 31.87 0 0 1 444 504.5H133.64"/><path fill="#ffead8" d="M163.57 455.76v16.87a31.86 31.86 0 0 1-31.86 31.87 31.87 31.87 0 0 1-31.87-31.87V455.7Z"/><path d="M209.27 124.19c20.73 0 35.21-16.28 35.21-39.59a7.5 7.5 0 0 0-7.5-7.5h-19.21a7.5 7.5 0 0 0 0 15h10.91c-2 9-7.73 17.09-19.41 17.09A24.6 24.6 0 1 1 223 64.2a7.5 7.5 0 1 0 8.39-12.43 39.6 39.6 0 1 0-22.14 72.42Zm75.74 0c13.27 0 24.41-8.45 26.49-20.09 1.56-8.74-2.43-20.17-18.32-26-8-2.94-15.39-6.14-17.58-7.1a5 5 0 0 1-1.81-4.7c.18-1.23 1.06-4.24 5.47-5.57 9.35-2.82 17.95 4 18.15 4.18A7.5 7.5 0 0 0 307 53.36c-.6-.5-14.83-12.23-32.09-7-8.67 2.61-14.8 9.43-16 17.8a19.88 19.88 0 0 0 8.87 19.68 7 7 0 0 0 1 .57c.37.16 9.2 4.09 19.13 7.76 2.94 1.08 9.68 4.16 8.76 9.32-.68 3.8-5.26 7.73-11.73 7.73a22.89 22.89 0 0 1-16.82-7 7.5 7.5 0 1 0-11.11 10.07 38.11 38.11 0 0 0 27.99 11.9ZM328.75 60h10.16v56.69a7.5 7.5 0 0 0 15 0V60h10.29a7.5 7.5 0 0 0 0-15h-35.45a7.5 7.5 0 0 0 0 15Zm67.79 139.19h-116.7a7.5 7.5 0 0 0 0 15h116.7a7.5 7.5 0 0 0 0-15Zm0 90h-101.7a7.5 7.5 0 0 0 0 15h101.7a7.5 7.5 0 0 0 0-15Zm0-45h-116.7a7.5 7.5 0 0 0 0 15h116.7a7.5 7.5 0 0 0 0-15ZM144.84 398.5h251.7a7.5 7.5 0 0 0 0-15h-251.7a7.5 7.5 0 0 0 0 15ZM449 433.59V37.38A37.42 37.42 0 0 0 411.66 0H66.48a7.49 7.49 0 0 0-1.17.1A39.41 39.41 0 0 0 28.6 39.37v116.49a17.53 17.53 0 0 0 17.5 17.5h46.24v299.27A39.41 39.41 0 0 0 131.71 512H444a39.36 39.36 0 0 0 5-78.41ZM92.34 158.36H46.1a2.51 2.51 0 0 1-2.5-2.5V39.37a24.37 24.37 0 0 1 48.74 0Zm63.73 314.27a24.37 24.37 0 1 1-48.73 0V39.37A39.19 39.19 0 0 0 98.86 15h312.8A22.41 22.41 0 0 1 434 37.38v395.88H144.84a7.5 7.5 0 0 0 0 15h11.23ZM444 497H162.59a39.19 39.19 0 0 0 8.48-24.37v-24.37H444a24.37 24.37 0 0 1 0 48.74ZM144.84 349.19h251.7a7.5 7.5 0 0 0 0-15h-251.7a7.5 7.5 0 1 0 0 15Zm0-180h251.7a7.5 7.5 0 0 0 0-15h-251.7a7.5 7.5 0 1 0 0 15ZM173.79 315a7.42 7.42 0 0 0 3.16.71 7.51 7.51 0 0 0 6.81-4.33l47.33-101.51a7.5 7.5 0 1 0-13.59-6.34L170.16 305a7.5 7.5 0 0 0 3.63 10Zm58.11-18.14A22.5 22.5 0 1 0 221 267a22.41 22.41 0 0 0 10.9 29.85Zm2.71-23.56a7.52 7.52 0 0 1 6.81-4.33 7.53 7.53 0 0 1 7 4.94 7.5 7.5 0 1 1-13.85-.61Zm-54.38-25.35a22.49 22.49 0 1 0-20.42 13 22.52 22.52 0 0 0 20.42-13.01Zm-13.59-6.34a7.5 7.5 0 1 1-13.59-6.34 7.47 7.47 0 0 1 10-3.63 7.51 7.51 0 0 1 3.59 9.96Z"/></svg>