<svg xmlns="http://www.w3.org/2000/svg" width="128.012" height="135" viewBox="0 0 128.012 135">
  <g id="hra" transform="translate(-17866 -286.077)">
    <g id="Group_6454" data-name="Group 6454" transform="translate(17851 282.389)">
      <path id="Path_27540" data-name="Path 27540" d="M166.922,67.81v81a7.968,7.968,0,0,1-7.968,7.968H73.968A7.968,7.968,0,0,1,66,148.813v-81l50.256-36.774Z" transform="translate(-37.455 -20.085)" fill="#e1e1e3"/>
      <path id="Path_27541" data-name="Path 27541" d="M378.968,154.5v84.987A7.968,7.968,0,0,1,371,247.455h11.951a7.968,7.968,0,0,0,7.968-7.968v-81Z" transform="translate(-261.452 -110.759)" fill="#c8c5cc"/>
      <path id="Path_27542" data-name="Path 27542" d="M143.533,67.723,84.514,22.159,25.5,67.723a1.859,1.859,0,0,1-3-1.472v-6.21a3.984,3.984,0,0,1,1.549-3.154L82.242,11.962a3.718,3.718,0,0,1,4.544,0l58.193,44.926a3.984,3.984,0,0,1,1.549,3.154v6.21a1.859,1.859,0,0,1-3,1.471Z" transform="translate(-5.508 -5.507)" fill="#fc8019"/>
      <path id="Path_27543" data-name="Path 27543" d="M305.448,56.887,247.256,11.962a3.718,3.718,0,0,0-4.544,0L241,13.283l56.481,43.6a3.984,3.984,0,0,1,1.549,3.154v3.843L304,67.723a1.859,1.859,0,0,0,3-1.472v-6.21a3.984,3.984,0,0,0-1.549-3.154Z" transform="translate(-165.978 -5.507)" fill="#fc8019"/>
      <rect id="Rectangle_4733" data-name="Rectangle 4733" width="29.48" height="26.724" rx="7" transform="translate(82.99 93.007)" fill="#fff"/>
      <path id="Path_27544" data-name="Path 27544" d="M141.02,500.984H16.992a1.992,1.992,0,0,1,0-3.984H141.02a1.992,1.992,0,0,1,0,3.984Z" transform="translate(0 -362.296)" fill="#c8c5cc"/>
      <rect id="Rectangle_4734" data-name="Rectangle 4734" width="29.48" height="26.724" rx="8" transform="translate(45.542 93.007)" fill="#fff"/>
      <rect id="Rectangle_4735" data-name="Rectangle 4735" width="29.48" height="26.724" rx="9" transform="translate(82.99 58.316)" fill="#fff"/>
      <rect id="Rectangle_4736" data-name="Rectangle 4736" width="29.48" height="26.724" rx="7" transform="translate(45.542 58.316)" fill="#fff"/>
      <circle id="Ellipse_3037" data-name="Ellipse 3037" cx="6.507" cy="6.507" r="6.507" transform="translate(72.499 32.056)" fill="#fff"/>
      <path id="Path_27545" data-name="Path 27545" d="M250.492,110.5a6.5,6.5,0,0,0-1.992.312,6.508,6.508,0,0,1,0,12.39,6.507,6.507,0,1,0,1.992-12.7Z" transform="translate(-171.486 -78.444)" fill="#dadadc"/>
      <path id="Path_27546" data-name="Path 27546" d="M71.038,91.016H49.526a5.983,5.983,0,0,0-5.976,5.976v18.756a5.983,5.983,0,0,0,5.976,5.976H71.038a5.983,5.983,0,0,0,5.976-5.976V96.991a5.983,5.983,0,0,0-5.976-5.976Zm1.992,24.732a1.994,1.994,0,0,1-1.992,1.992H49.526a1.994,1.994,0,0,1-1.992-1.992V96.991A1.994,1.994,0,0,1,49.526,95H71.038a1.994,1.994,0,0,1,1.992,1.992ZM66.514,69.686h-4.24v-4.24a1.992,1.992,0,1,0-3.984,0v4.24h-4.24a1.992,1.992,0,0,0,0,3.984h4.24v4.24a1.992,1.992,0,1,0,3.984,0V73.67h4.24a1.992,1.992,0,0,0,0-3.984Zm.541,34.692H53.51a1.992,1.992,0,1,0,0,3.984H67.055a1.992,1.992,0,1,0,0-3.984Zm-6.772-1.992a1.992,1.992,0,1,0-1.992-1.992,1.992,1.992,0,0,0,1.992,1.992Zm0,7.968a1.992,1.992,0,1,0,1.992,1.992,1.992,1.992,0,0,0-1.992-1.992ZM90.957,73.669H104.5a1.992,1.992,0,0,0,0-3.984H90.957a1.992,1.992,0,0,0,0,3.984ZM70.507,38.563a8.5,8.5,0,1,0,8.5-8.5A8.5,8.5,0,0,0,70.507,38.563Zm13.014,0a4.515,4.515,0,1,1-4.515-4.515,4.515,4.515,0,0,1,4.515,4.515ZM139.156,64.6a3.862,3.862,0,0,0,3.856-3.855v-6.21a6.013,6.013,0,0,0-2.324-4.73L82.5,4.878a5.712,5.712,0,0,0-6.979,0L17.324,49.8A6.014,6.014,0,0,0,15,54.534v6.21a3.851,3.851,0,0,0,6.2,3.048l5.349-4.129v69.066a9.907,9.907,0,0,0,2,5.976H16.992a1.992,1.992,0,0,0,0,3.984H141.02a1.992,1.992,0,0,0,0-3.984H129.462a9.907,9.907,0,0,0,2-5.976V59.663l5.349,4.129a3.835,3.835,0,0,0,2.348.807Zm-11.68,64.13A5.983,5.983,0,0,1,121.5,134.7H36.512a5.983,5.983,0,0,1-5.976-5.976V56.587L79.006,19.168l48.469,37.419ZM80.223,15.075a1.992,1.992,0,0,0-2.434,0l-58.805,45.4v-5.94a2,2,0,0,1,.775-1.577L77.951,8.031a1.727,1.727,0,0,1,2.11,0l58.193,44.926a2,2,0,0,1,.774,1.577v5.94ZM71.038,56.324H49.526A5.982,5.982,0,0,0,43.55,62.3V81.056a5.983,5.983,0,0,0,5.976,5.976H71.038a5.983,5.983,0,0,0,5.976-5.976V62.3a5.982,5.982,0,0,0-5.976-5.976ZM73.03,81.056a1.994,1.994,0,0,1-1.992,1.992H49.526a1.994,1.994,0,0,1-1.992-1.992V62.3a1.994,1.994,0,0,1,1.992-1.992H71.038A1.994,1.994,0,0,1,73.03,62.3ZM81,62.3V81.056a5.983,5.983,0,0,0,5.976,5.976h21.512a5.983,5.983,0,0,0,5.976-5.976V62.3a5.982,5.982,0,0,0-5.976-5.976H86.974A5.982,5.982,0,0,0,81,62.3Zm29.48,0V81.056a1.994,1.994,0,0,1-1.992,1.992H86.974a1.994,1.994,0,0,1-1.992-1.992V62.3a1.994,1.994,0,0,1,1.992-1.992h21.512a1.994,1.994,0,0,1,1.992,1.992Zm-1.992,28.716H86.974A5.983,5.983,0,0,0,81,96.991v18.756a5.983,5.983,0,0,0,5.976,5.976h21.512a5.983,5.983,0,0,0,5.976-5.976V96.991a5.983,5.983,0,0,0-5.976-5.976Zm1.992,24.732a1.994,1.994,0,0,1-1.992,1.992H86.974a1.994,1.994,0,0,1-1.992-1.992V96.991A1.994,1.994,0,0,1,86.974,95h21.512a1.994,1.994,0,0,1,1.992,1.992Zm-5.034-17.093a1.992,1.992,0,0,0-2.817,0l-4.9,4.9-4.9-4.9a1.992,1.992,0,0,0-2.817,2.817l4.9,4.9-4.9,4.9a1.992,1.992,0,1,0,2.817,2.817l4.9-4.9,4.9,4.9a1.992,1.992,0,0,0,2.817-2.817l-4.9-4.9,4.9-4.9a1.992,1.992,0,0,0,0-2.817Z" transform="translate(0 0)" fill="#3c3b41"/>
    </g>
  </g>
</svg>
