<svg xmlns="http://www.w3.org/2000/svg" data-name="Layer 1" viewBox="0 0 512 512"><path fill="#f8be32" d="M256.08,512c-1.32,0-2.65,0-4,0l-1.14,0a7.5,7.5,0,0,1,.16-15h.18l1.06,0c4.42.08,8.83,0,13.19-.18a7.5,7.5,0,0,1,.68,15C262.87,511.92,259.46,512,256.08,512Zm-44-4.49a8.09,8.09,0,0,1-1.53-.15c-5-1-10-2.25-14.84-3.62a7.5,7.5,0,0,1,4-14.44c4.55,1.28,9.21,2.41,13.85,3.37a7.5,7.5,0,0,1-1.52,14.84Zm92.78-1.07a7.5,7.5,0,0,1-1.69-14.81c4.61-1.06,9.24-2.31,13.76-3.69a7.5,7.5,0,1,1,4.39,14.34c-4.85,1.49-9.81,2.82-14.76,4A7.64,7.64,0,0,1,304.85,506.44ZM161,490a7.49,7.49,0,0,1-3.3-.77c-4.55-2.24-9.09-4.67-13.49-7.22a7.51,7.51,0,1,1,7.54-13c4.09,2.38,8.33,4.65,12.57,6.74A7.5,7.5,0,0,1,161,490Zm194.54-2.28A7.5,7.5,0,0,1,352,473.55c4.19-2.18,8.36-4.54,12.39-7a7.5,7.5,0,1,1,7.84,12.79c-4.33,2.65-8.8,5.18-13.29,7.52A7.46,7.46,0,0,1,355.51,487.7ZM54.3,372.53a7.5,7.5,0,0,1-7-4.85c-1.79-4.74-3.44-9.61-4.9-14.48a7.5,7.5,0,0,1,14.37-4.31c1.36,4.53,2.9,9.07,4.56,13.49a7.49,7.49,0,0,1-4.37,9.67A7.41,7.41,0,0,1,54.3,372.53Zm405.12-4.72a7.5,7.5,0,0,1-7.08-10c1.56-4.46,3-9,4.25-13.6a7.5,7.5,0,1,1,14.46,4c-1.34,4.9-2.88,9.81-4.55,14.59A7.5,7.5,0,0,1,459.42,367.81ZM41.75,320a7.49,7.49,0,0,1-7.44-6.7c-.55-5-.93-10.16-1.13-15.23a7.5,7.5,0,1,1,15-.59c.19,4.73.54,9.51,1,14.21A7.56,7.56,0,0,1,41.75,320Zm429-5-.64,0a7.51,7.51,0,0,1-6.84-8.11c.4-4.7.64-9.5.73-14.24v-.43a7.5,7.5,0,0,1,15,.19v.46c-.09,5.12-.36,10.25-.78,15.29A7.5,7.5,0,0,1,470.72,315ZM42.65,266a7.68,7.68,0,0,1-1.06-.08,7.5,7.5,0,0,1-6.37-8.48c.71-5,1.61-10.09,2.66-15a7.5,7.5,0,1,1,14.67,3.12c-1,4.62-1.81,9.34-2.48,14A7.51,7.51,0,0,1,42.65,266Zm425.86-5.43a7.49,7.49,0,0,1-7.38-6.26c-.79-4.66-1.74-9.36-2.84-14a7.5,7.5,0,1,1,14.58-3.49c1.19,4.93,2.21,10,3.05,15a7.49,7.49,0,0,1-7.41,8.74ZM56.89,213.91A7.51,7.51,0,0,1,50,203.53c2-4.69,4.08-9.37,6.35-13.92a7.5,7.5,0,0,1,13.42,6.69c-2.11,4.24-4.1,8.61-5.92,13A7.5,7.5,0,0,1,56.89,213.91Zm396.05-5a7.5,7.5,0,0,1-6.85-4.45c-1.92-4.31-4-8.62-6.24-12.8a7.5,7.5,0,1,1,13.25-7c2.38,4.48,4.63,9.1,6.69,13.72a7.51,7.51,0,0,1-6.85,10.56ZM83.72,167a7.5,7.5,0,0,1-6-12c3-4.05,6.28-8,9.6-11.89a7.5,7.5,0,1,1,11.34,9.82c-3.1,3.59-6.11,7.32-9,11.09A7.47,7.47,0,0,1,83.72,167ZM425,162.71a7.51,7.51,0,0,1-5.88-2.84c-2.94-3.71-6-7.36-9.23-10.86a7.5,7.5,0,1,1,11.09-10.1c3.42,3.75,6.75,7.67,9.89,11.64A7.51,7.51,0,0,1,425,162.71ZM121.34,128.25a7.51,7.51,0,0,1-4.69-13.36c4-3.18,8.08-6.25,12.24-9.14a7.5,7.5,0,0,1,8.56,12.32c-3.88,2.7-7.72,5.56-11.42,8.53A7.46,7.46,0,0,1,121.34,128.25Zm265-3.36a7.44,7.44,0,0,1-4.54-1.53c-3.76-2.86-7.68-5.64-11.63-8.24a7.5,7.5,0,0,1,8.25-12.53c4.24,2.79,8.43,5.76,12.47,8.84a7.5,7.5,0,0,1-4.55,13.46ZM167.38,100a7.5,7.5,0,0,1-3.09-14.33c4.62-2.09,9.37-4,14.11-5.81a7.5,7.5,0,0,1,5.22,14.07c-4.42,1.64-8.85,3.46-13.16,5.41A7.49,7.49,0,0,1,167.38,100Zm172.25-2.18a7.46,7.46,0,0,1-2.91-.59c-4.37-1.84-8.85-3.55-13.34-5.08A7.5,7.5,0,0,1,328.24,78c4.81,1.65,9.62,3.48,14.3,5.45a7.5,7.5,0,0,1-2.91,14.42Z"/><path fill="#787681" d="M366.91 395.63a7.51 7.51 0 0 1-5.3-2.19l-53.67-53.68a7.5 7.5 0 0 1 10.6-10.6l53.68 53.67a7.5 7.5 0 0 1-5.31 12.8zM145.24 395.48a7.5 7.5 0 0 1-5.31-12.8l53.52-53.52a7.5 7.5 0 0 1 10.61 10.61l-53.52 53.52A7.47 7.47 0 0 1 145.24 395.48zM255.5 218a7.5 7.5 0 0 1-7.5-7.5v-53a7.5 7.5 0 0 1 15 0v53A7.5 7.5 0 0 1 255.5 218z"/><path fill="#fed947" d="M82.5,504.5a75.13,75.13,0,1,1,53-22A74.38,74.38,0,0,1,82.5,504.5Z"/><path fill="#fecc30" d="M135.53,376.05a74.34,74.34,0,0,0-53-22A76.22,76.22,0,0,0,70,355.06a75.27,75.27,0,0,1,0,148.38,75.14,75.14,0,0,0,12.5,1.06,75.29,75.29,0,0,0,53-128.45Z"/><path fill="#f8be32" d="M82.5,512a82.62,82.62,0,1,1,58.34-24.24A81.83,81.83,0,0,1,82.5,512Zm0-150.49a67.62,67.62,0,1,0,47.72,19.83A66.94,66.94,0,0,0,82.5,361.51Z"/><path fill="#fed947" d="M429.5,504.5a75.13,75.13,0,1,1,53-22A74.38,74.38,0,0,1,429.5,504.5Z"/><path fill="#fecc30" d="M482.53,376.05a74.34,74.34,0,0,0-53-22,76.22,76.22,0,0,0-12.5,1.05,75.27,75.27,0,0,1,0,148.38,75.14,75.14,0,0,0,12.5,1.06,75.29,75.29,0,0,0,53-128.45Z"/><path fill="#f8be32" d="M429.5,512a82.62,82.62,0,1,1,58.34-24.24A81.83,81.83,0,0,1,429.5,512Zm0-150.49a67.62,67.62,0,1,0,47.72,19.83A66.94,66.94,0,0,0,429.5,361.51Z"/><path fill="#fed947" d="M256,158a75.13,75.13,0,0,1-75-75.24A75,75,0,1,1,309,136,74.34,74.34,0,0,1,256,158Z"/><path fill="#fecc30" d="M309,29.54a74.38,74.38,0,0,0-53-22,75.14,75.14,0,0,0-12.5,1.06A75.15,75.15,0,0,1,306,82.75a75.17,75.17,0,0,1-62.5,74.19A76.22,76.22,0,0,0,256,158a75.13,75.13,0,0,0,75-75.24A74.86,74.86,0,0,0,309,29.54Z"/><path fill="#f8be32" d="M256,165.49a82.62,82.62,0,0,1-82.5-82.74,82.5,82.5,0,1,1,140.84,58.5A81.83,81.83,0,0,1,256,165.49ZM256,15a67.62,67.62,0,0,0-67.5,67.75A67.5,67.5,0,1,0,303.72,34.83,66.93,66.93,0,0,0,256,15Z"/><path fill="#fff" d="M247.77,97.14H228.91a7.5,7.5,0,0,1,0-15h18.86a15.75,15.75,0,0,0,0-31.49H234.23a7.5,7.5,0,0,1,0-15h13.54a30.75,30.75,0,0,1,0,61.49Z"/><path fill="#fff" d="M283.61 50.65h-54.7a7.5 7.5 0 0 1 0-15h54.7a7.5 7.5 0 0 1 0 15zM283.61 73.51h-54.7a7.5 7.5 0 1 1 0-15h54.7a7.5 7.5 0 0 1 0 15zM270.05 137.51a7.49 7.49 0 0 1-5.24-2.13L223.35 95a7.5 7.5 0 0 1 10.48-10.74l41.45 40.41a7.5 7.5 0 0 1-5.23 12.87z"/><path fill="#eb304a" d="M266,199.15h0a19.87,19.87,0,0,1,28.39,7.61h0A19.89,19.89,0,0,0,313,217.49h0a19.89,19.89,0,0,1,20.79,20.79h0a19.89,19.89,0,0,0,10.73,18.59h0a19.89,19.89,0,0,1,7.61,28.4h0a19.89,19.89,0,0,0,0,21.46h0a19.89,19.89,0,0,1-7.61,28.4h0a19.89,19.89,0,0,0-10.73,18.59h0A19.89,19.89,0,0,1,313,374.51h0a19.89,19.89,0,0,0-18.59,10.73h0A19.87,19.87,0,0,1,266,392.85h0a19.91,19.91,0,0,0-21.47,0h0a19.89,19.89,0,0,1-28.4-7.61h0a19.89,19.89,0,0,0-18.59-10.73h0a19.89,19.89,0,0,1-20.79-20.79h0A19.89,19.89,0,0,0,166,335.13h0a19.89,19.89,0,0,1-7.61-28.4h0a19.85,19.85,0,0,0,0-21.46h0a19.89,19.89,0,0,1,7.61-28.4h0a19.89,19.89,0,0,0,10.73-18.59h0a19.89,19.89,0,0,1,20.79-20.79h0a19.89,19.89,0,0,0,18.59-10.73h0a19.89,19.89,0,0,1,28.4-7.61h0A19.91,19.91,0,0,0,266,199.15Z"/><path fill="#e4222e" d="M352.12 306.73a19.89 19.89 0 0 1 0-21.46h0a19.89 19.89 0 0 0-7.61-28.4h0a19.89 19.89 0 0 1-10.73-18.59h0A19.89 19.89 0 0 0 313 217.49a19.89 19.89 0 0 1-18.59-10.73h0A19.87 19.87 0 0 0 266 199.15c-.38.24-.76.46-1.14.67a19.81 19.81 0 0 1 5.94 6.94h0a19.89 19.89 0 0 0 18.59 10.73 19.89 19.89 0 0 1 20.79 20.79h0a19.89 19.89 0 0 0 10.73 18.59h0a19.89 19.89 0 0 1 7.61 28.4h0a19.89 19.89 0 0 0 0 21.46h0a19.89 19.89 0 0 1-7.61 28.4h0a19.89 19.89 0 0 0-10.73 18.59h0a19.89 19.89 0 0 1-20.79 20.79 19.89 19.89 0 0 0-18.59 10.73h0a19.81 19.81 0 0 1-5.94 6.94c.38.21.76.43 1.14.67a19.87 19.87 0 0 0 28.39-7.61h0A19.89 19.89 0 0 1 313 374.51a19.89 19.89 0 0 0 20.79-20.79h0a19.89 19.89 0 0 1 10.73-18.59h0a19.89 19.89 0 0 0 7.61-28.4zM242.41 199.15c.35-.23.71-.43 1.07-.63a19.88 19.88 0 0 0-21.39 1.3A19.89 19.89 0 0 0 242.41 199.15zM242.41 392.85a19.86 19.86 0 0 0-20.32-.67 19.88 19.88 0 0 0 21.39 1.3C243.12 393.28 242.76 393.08 242.41 392.85z"/><path fill="#fff" d="M287.82 350.32a22.5 22.5 0 1 1 15.91-6.59h0A22.35 22.35 0 0 1 287.82 350.32zm0-30a7.5 7.5 0 1 0 5.3 12.8h0a7.5 7.5 0 0 0-5.3-12.8zM224.18 286.68a22.5 22.5 0 1 1 15.91-6.59h0A22.35 22.35 0 0 1 224.18 286.68zm0-30a7.5 7.5 0 1 0 5.3 12.8h0a7.5 7.5 0 0 0-5.3-12.8zM232.91 326.59a7.51 7.51 0 0 1-5.3-12.81l46.17-46.17a7.5 7.5 0 0 1 10.61 10.61l-46.17 46.17A7.52 7.52 0 0 1 232.91 326.59zM421.27 443.65H402.41a7.5 7.5 0 1 1 0-15h18.86a15.75 15.75 0 0 0 0-31.49H407.73a7.5 7.5 0 0 1 0-15h13.54a30.75 30.75 0 0 1 0 61.49z"/><path fill="#fff" d="M457.11 397.16h-54.7a7.5 7.5 0 0 1 0-15h54.7a7.5 7.5 0 0 1 0 15zM457.11 420h-54.7a7.5 7.5 0 0 1 0-15h54.7a7.5 7.5 0 0 1 0 15zM443.55 484a7.49 7.49 0 0 1-5.24-2.13l-41.46-40.41a7.51 7.51 0 0 1 10.48-10.75l41.46 40.42A7.5 7.5 0 0 1 443.55 484zM74.27 443.65H55.41a7.5 7.5 0 1 1 0-15H74.27a15.75 15.75 0 0 0 0-31.49H60.73a7.5 7.5 0 0 1 0-15H74.27a30.75 30.75 0 0 1 0 61.49z"/><path fill="#fff" d="M110.11 397.16H55.41a7.5 7.5 0 0 1 0-15h54.7a7.5 7.5 0 1 1 0 15zM110.11 420H55.41a7.5 7.5 0 1 1 0-15h54.7a7.5 7.5 0 1 1 0 15zM96.55 484a7.49 7.49 0 0 1-5.24-2.13L49.85 441.48a7.51 7.51 0 0 1 10.48-10.75l41.46 40.42A7.5 7.5 0 0 1 96.55 484z"/></svg>