<svg xmlns="http://www.w3.org/2000/svg" data-name="Layer 1" viewBox="0 0 512 512"><path fill="#fdd8ae" d="M115.9,453l55.43-12.87a39.17,39.17,0,0,1,17.27-.1l133.87,29.51A57.06,57.06,0,0,0,368,460.18l126.81-91a23.75,23.75,0,0,0,9.87-20.68h0A23.73,23.73,0,0,0,474.1,327.2l-177,53.87L139.6,329.8Z"/><path fill="#fbbf7d" d="M158.6,440a39.17,39.17,0,0,0-17.27.1l-24,5.58L115.9,453l49.44-11.48Z"/><path fill="#fdd8ae" d="M104.89,325.28l78.8-23.72A110.65,110.65,0,0,1,259.63,306l75.14,32.66a25,25,0,0,1,14.31,29h0a25,25,0,0,1-29.78,18.35l-42.68-9.63Z"/><path fill="#fbbf7d" d="M319.3,371.08l-42.68-9.63h0a18.76,18.76,0,0,0,14.64,18.3l33.37,7.53c13.45,3,24.45-5.76,24.45-19.55h0a24.92,24.92,0,0,0-.41-13.56A25,25,0,0,1,319.3,371.08Z"/><path fill="#2370b5" d="M151.36,479,91.2,489.38,0,505.15V308.91l58.41-8.79,60.16-10.43a17,17,0,0,1,19.7,13.89l27,155.66A17,17,0,0,1,151.36,479Z"/><path fill="#0a56a4" d="M163.49,449.16A17,17,0,0,1,151.36,458L91.2,468.42,0,484.19v21l91.2-15.77L151.36,479a17,17,0,0,0,13.88-19.71Z"/><path fill="#0a56a4" d="M151.36,479,91.2,489.38,58.41,300.12l60.16-10.43a17,17,0,0,1,19.7,13.89l27,155.66A17,17,0,0,1,151.36,479Z"/><path fill="#144e92" d="M165.24,459.24l-27-155.66a17,17,0,0,0-19.7-13.89l-9.81,1.7,26.48,152.85A17,17,0,0,1,121.36,464L87.8,469.77l3.4,19.61L151.36,479A17,17,0,0,0,165.24,459.24Z"/><path fill="#eb304a" d="M394.24,11.39h0a24.56,24.56,0,0,1,35.08,9.4h0a24.56,24.56,0,0,0,23,13.25h0A24.57,24.57,0,0,1,478,59.72h0a24.56,24.56,0,0,0,13.25,23h0a24.56,24.56,0,0,1,9.4,35.08h0a24.55,24.55,0,0,0,0,26.51h0a24.55,24.55,0,0,1-9.4,35.07h0a24.57,24.57,0,0,0-13.25,23h0A24.57,24.57,0,0,1,452.28,228h0a24.55,24.55,0,0,0-23,13.26h0a24.57,24.57,0,0,1-35.08,9.4h0a24.55,24.55,0,0,0-26.51,0h0a24.56,24.56,0,0,1-35.07-9.4h0a24.56,24.56,0,0,0-23-13.26h0A24.57,24.57,0,0,1,284,202.3h0a24.56,24.56,0,0,0-13.26-23h0a24.56,24.56,0,0,1-9.4-35.07h0a24.55,24.55,0,0,0,0-26.51h0a24.57,24.57,0,0,1,9.4-35.08h0a24.55,24.55,0,0,0,13.26-23h0A24.57,24.57,0,0,1,309.7,34h0a24.57,24.57,0,0,0,23-13.25h0a24.55,24.55,0,0,1,35.07-9.4h0A24.55,24.55,0,0,0,394.24,11.39Z"/><path fill="#e4222e" d="M500.61 117.76h0a24.56 24.56 0 0 0-9.4-35.08h0a24.56 24.56 0 0 1-13.25-23h0A24.57 24.57 0 0 0 452.28 34h0a24.56 24.56 0 0 1-23-13.25h0A24.55 24.55 0 0 0 395 10.93a24.44 24.44 0 0 1 9.31 9.86h0a24.56 24.56 0 0 0 23 13.25h0A24.57 24.57 0 0 1 453 59.72h0a24.56 24.56 0 0 0 13.25 23h0a24.56 24.56 0 0 1 9.4 35.08h0a24.55 24.55 0 0 0 0 26.51 24.55 24.55 0 0 1-9.4 35.07h0a24.57 24.57 0 0 0-13.25 23h0A24.57 24.57 0 0 1 427.28 228h0a24.55 24.55 0 0 0-23 13.26A24.44 24.44 0 0 1 395 251.1a24.56 24.56 0 0 0 34.31-9.86 24.55 24.55 0 0 1 23-13.26h0A24.57 24.57 0 0 0 478 202.3h0a24.57 24.57 0 0 1 13.25-23h0a24.55 24.55 0 0 0 9.4-35.07A24.55 24.55 0 0 1 500.61 117.76zM342.73 11.39h0a24.56 24.56 0 0 0 25.76.45c-.25-.15-.51-.29-.76-.45h0A24.54 24.54 0 0 0 342 10.93zM342.73 250.64h0l-.76.46a24.56 24.56 0 0 0 25.76-.46h0c.25-.16.51-.3.76-.45A24.56 24.56 0 0 0 342.73 250.64z"/><path fill="#fff" d="M341.77 125.7a33.87 33.87 0 1 1 24-9.91A33.79 33.79 0 0 1 341.77 125.7zm0-52.79a18.91 18.91 0 1 0 13.37 5.54A18.77 18.77 0 0 0 341.77 72.91zM420.19 204.11a33.87 33.87 0 1 1 24-9.91h0A33.79 33.79 0 0 1 420.19 204.11zm0-52.78a18.9 18.9 0 1 0 13.36 32.26h0a18.9 18.9 0 0 0-13.36-32.26zM330.29 189.21a7.5 7.5 0 0 1-5.3-12.8L426.38 75A7.5 7.5 0 1 1 437 85.62L335.59 187A7.44 7.44 0 0 1 330.29 189.21z"/></svg>