<svg xmlns="http://www.w3.org/2000/svg" data-name="Layer 1" viewBox="0 0 512 512"><path fill="#e1e1e3" d="M446 169.5v305a30 30 0 0 1-30 30H96a30 30 0 0 1-30-30v-305L255.227 31.036Z"/><path fill="#c8c5cc" d="M401 154.5v320a30 30 0 0 1-30 30h45a30 30 0 0 0 30-30v-305Z"/><path fill="#e4222e" d="M478.222 224.06 256 52.5 33.778 224.06a7 7 0 0 1-11.278-5.541v-23.383a15 15 0 0 1 5.834-11.874l219.11-169.157a14 14 0 0 1 17.111 0l219.111 169.157a15 15 0 0 1 5.834 11.874v23.383a7 7 0 0 1-11.278 5.54Z"/><path fill="#c0232c" d="M483.666 183.262 264.556 14.105a14 14 0 0 0-17.111 0L241 19.08l212.666 164.182a15 15 0 0 1 5.834 11.874v14.47l18.722 14.454a7 7 0 0 0 11.278-5.541v-23.383a15 15 0 0 0-5.834-11.874Z"/><rect width="111" height="100.623" x="271" y="340" fill="#aeadb3" rx="15"/><path fill="#c8c5cc" d="M489.5 512h-467a7.5 7.5 0 0 1 0-15h467a7.5 7.5 0 0 1 0 15Z"/><rect width="111" height="100.623" x="130" y="340" fill="#aeadb3" rx="15"/><path fill="#fff" d="M350.244 421.555a7.478 7.478 0 0 1-5.304-2.197l-47.487-47.487a7.5 7.5 0 1 1 10.607-10.607l47.487 47.487a7.5 7.5 0 0 1-5.303 12.804Z"/><path fill="#fff" d="M302.756 421.555a7.5 7.5 0 0 1-5.303-12.804l47.487-47.487a7.5 7.5 0 1 1 10.607 10.607l-47.487 47.487a7.478 7.478 0 0 1-5.304 2.197Z"/><rect width="111" height="100.623" x="271" y="209.377" fill="#aeadb3" rx="15"/><path fill="#fff" d="M211 397.812h-51a7.5 7.5 0 0 1 0-15h51a7.5 7.5 0 0 1 0 15Z"/><circle cx="185.5" cy="367.811" r="7.5" fill="#fff"/><circle cx="185.5" cy="412.811" r="7.5" fill="#fff"/><path fill="#fff" d="M352 267.188h-51a7.5 7.5 0 0 1 0-15h51a7.5 7.5 0 0 1 0 15Z"/><rect width="111" height="100.623" x="130" y="209.377" fill="#aeadb3" rx="15"/><path fill="#fff" d="M185.5 290.653a7.5 7.5 0 0 1-7.5-7.5v-46.929a7.5 7.5 0 1 1 15 0v46.93a7.5 7.5 0 0 1-7.5 7.5Z"/><path fill="#fff" d="M208.964 267.188h-46.928a7.5 7.5 0 1 1 0-15h46.928a7.5 7.5 0 0 1 0 15Z"/><circle cx="256" cy="135" r="24.5" fill="#c8c5cc"/><path fill="#aeadb3" d="M256 110.5a24.477 24.477 0 0 0-4.23.379 24.496 24.496 0 0 1 0 48.242A24.495 24.495 0 1 0 256 110.5Z"/></svg>