<svg xmlns="http://www.w3.org/2000/svg" width="32" height="32"><g stroke-linejoin="round"><path fill="#a3c5c6" d="M6.5 27.5h4v2h-4zM25.5 27.5h-4v2h4z"/><path fill="#c3dbdd" d="M5 27.5h22c.831 0 1.5-.67 1.5-1.5V4c0-.83-.669-1.5-1.5-1.5H5c-.831 0-1.5.67-1.5 1.5v22c0 .83.669 1.5 1.5 1.5z"/><path fill="#a3c5c6" d="M3.5 25.203V26c0 .83.669 1.5 1.5 1.5h22c.831 0 1.5-.67 1.5-1.5v-.797z"/><path fill="#fff" d="M3.5 4.798V4c0-.83.669-1.5 1.5-1.5h22c.831 0 1.5.67 1.5 1.5v.797z"/><path fill="#caa1e5" d="M15.37 22.37H8.63V7.63h6.74zM6.5 24.5v-19l2.13 2.13v14.74z"/><path fill="#8e60ad" d="M15.374 5.5H6.5l2.13 2.13h6.744zM15.42 24.5H6.5l2.13-2.13h6.79z"/><path fill="#f4c715" d="M8.196 21.898h2.979c.235 0 .334.208.425.427l.725 1.747c.09.22-.19.428-.425.428H7.472c-.236 0-.516-.21-.425-.428l.724-1.747c.09-.22.19-.428.425-.428z"/><path fill="#ffec3e" d="m7.047 24.072.724-1.747c.09-.218.19-.427.425-.427h2.979c.235 0 .334.209.425.427z"/><path fill="#f4c715" d="M13.597 21.898h2.978c.236 0 .335.208.426.427l.724 1.747c.091.22-.19.428-.425.428h-4.427c-.236 0-.516-.21-.426-.428l.724-1.747c.091-.22.19-.428.426-.428z"/><path fill="#ffec3e" d="m12.447 24.072.724-1.747c.091-.218.19-.427.426-.427h2.978c.236 0 .335.209.426.427z"/><path fill="#f4c715" d="M10.896 19.254h2.98c.235 0 .334.21.424.428l.725 1.747c.091.219-.19.428-.425.428h-4.428c-.235 0-.516-.21-.425-.428l.724-1.747c.09-.22.19-.428.425-.428z"/><path fill="#ffec3e" d="m9.747 21.429.724-1.747c.09-.22.19-.428.425-.428h2.98c.235 0 .334.21.424.428z"/><path fill="#c3dbdd" d="M25.5 7.5v-2l-8-4v27l8-4v-2"/><path fill="#b6cdce" d="M15.5 28.5v-27h2v27z"/><path fill="#93a8aa" d="M15.5 28.5v-2.244h2V28.5z"/><path fill="#dce5e5" d="M15.5 1.5v2.244h2V1.5z"/><path fill="#fff" d="M17.5 1.5v2.244L25.5 7V4.757z"/><path fill="#a3c5c6" d="M17.5 28.5v-2.243l8-3.257v2.244z"/><path fill="#93a8aa" d="M25 17.5h1c.277 0 .5.223.5.5v4c0 .277-.223.5-.5.5h-1a.499.499 0 0 1-.5-.5v-4c0-.277.223-.5.5-.5zM25 12.5h1c.277 0 .5-.223.5-.5V8c0-.277-.223-.5-.5-.5h-1c-.277 0-.5.223-.5.5v4c0 .277.223.5.5.5z"/><path style="line-height:normal;text-indent:0;text-align:start;text-decoration-line:none;text-decoration-style:solid;text-decoration-color:#000;text-transform:none;isolation:auto;mix-blend-mode:normal" fill="#33363a" d="M389.5 1417.362a.5.5 0 0 0-.5.5v.5h-10c-1.1 0-2 .9-2 2v22c0 1.1.9 2 2 2h1v1.5a.5.5 0 0 0 .5.5h4a.5.5 0 0 0 .5-.5v-1.5h4v.5a.5.5 0 0 0 .5.5h2a.5.5 0 0 0 .283-.084l1.832-.916H395v1.5a.5.5 0 0 0 .5.5h4a.5.5 0 0 0 .5-.5v-1.5h1c1.1 0 2-.9 2-2v-22c0-1.1-.9-2-2-2h-7.383l-1.832-.916a.499.499 0 0 0-.285-.084zm.5 1h1v26h-1zm-11 1h10v2h-8.5a.5.5 0 0 0-.5.5v19a.5.5 0 0 0 .5.5h8.5v2h-10c-.563 0-1-.437-1-1v-22c0-.562.437-1 1-1zm20 2.81v1.19c-.545 0-1 .455-1 1v4c0 .546.455 1 1 1v4c-.545 0-1 .455-1 1v4c0 .546.455 1 1 1v1.192l-7 3.493v-25.37zm-3.383-2.81H401c.563 0 1 .438 1 1v22c0 .563-.437 1-1 1h-5.383l4.108-2.053a.5.5 0 0 0 .275-.447v-1.5c.545 0 1-.454 1-1v-4c0-.545-.455-1-1-1v-4c.545 0 1-.454 1-1v-4c0-.545-.455-1-1-1v-1.5a.5.5 0 0 0-.275-.447zm-13.91 3H389v1.313h-5.982a.522.522 0 0 0-.034-.035zm-.707.707 1.277 1.278a.52.52 0 0 0 .036.03v13.383h-.118a.904.904 0 0 0-.652.315c-.13.158-.186.305-.234.422l-.309.744zm18 1.293h1v1.492l-1 .016zm-15.688.313H389v11.754l-.238-.575c-.049-.116-.105-.266-.235-.423a.903.903 0 0 0-.652-.313h-2.979a.903.903 0 0 0-.652.313c-.13.157-.186.307-.234.423l-.697 1.68zm16.688 2.18v1.507h-1v-1.492zm-6.951.01c-.667.033-.616 1.033.05 1h.5c.23 0 .401.17.401.4v6.201c0 .23-.17.398-.4.398h-.5c-.677-.01-.677 1.01 0 1h.5c.766 0 1.4-.631 1.4-1.398v-6.201c0-.767-.634-1.4-1.4-1.4h-.5a.217.217 0 0 0-.051 0zm5.951 7.497h1v1.492l-1 .016zm-14.01 1.756h2.791a.882.882 0 0 1 .057.12l.615 1.482h-4.135l.616-1.483c.029-.07.042-.093.056-.119zm15.01.736v1.508h-1v-1.492zm-13.846 1.866h.463l-.23.556zm-3.865.04h2.793c.015.027.027.049.057.12l.615 1.482h-4.137l.615-1.482c.03-.071.043-.093.057-.12zm5.4 0H389v1.602h-1.982l.615-1.482c.03-.071.042-.093.056-.12zm-6.689 5.602h3v1h-3zm15 0h3v1h-3z" color="#000" font-family="sans-serif" overflow="visible" transform="translate(-374 -1416.362)"/><path fill="#fffdef" d="M9.926 22.997c-.194 0-.46-1.112-.596-1.25-.137-.136-1.25-.402-1.25-.596 0-.193 1.113-.46 1.25-.596.137-.137.403-1.25.596-1.25.194 0 .46 1.113.597 1.25.137.137 1.249.403 1.249.596 0 .194-1.112.46-1.25.597-.136.137-.402 1.249-.596 1.249z"/><path fill="#f4c715" d="M9.11 18.265c-.149 0-.353-.856-.458-.961-.106-.105-.961-.31-.961-.46 0-.148.855-.352.96-.458.106-.105.31-.96.46-.96.149 0 .353.855.458.96.106.106.961.31.961.46 0 .148-.855.352-.96.458-.106.105-.31.96-.46.96z"/><path fill="#fffdef" d="M14.117 20.174c-.149 0-.353-.855-.458-.96-.106-.106-.961-.31-.961-.46 0-.15.855-.353.96-.458.106-.106.31-.961.46-.961.149 0 .353.855.458.96.106.106.961.31.961.46 0 .148-.855.353-.96.458-.106.106-.31.96-.46.96z"/></g></svg>