<svg xmlns="http://www.w3.org/2000/svg" data-name="Layer 1" viewBox="0 0 512 512"><circle cx="113.41" cy="103.35" r="7.5"/><circle cx="398.59" cy="103.35" r="7.5"/><path fill="#a17855" d="M250.26,386.9h-.39a7.5,7.5,0,0,1-7.1-7.88,87.16,87.16,0,0,1,6.32-29.46l.5-1.16a52.88,52.88,0,0,0,3.09-8.69,56.24,56.24,0,0,0,1.56-14.14c0-11.92-2.38-17.51-5.14-24-3-7-6.34-14.87-6.34-29.86a71.34,71.34,0,0,1,2-17.87A116.86,116.86,0,0,1,251,236c.69-1.64,1.35-3.19,1.92-4.71,3.18-8.48,3.36-18.67.54-30.29A7.5,7.5,0,0,1,268,197.43c3.55,14.6,3.19,27.75-1.07,39.11-.67,1.81-1.39,3.49-2.15,5.28a101.41,101.41,0,0,0-5.49,15.77,56.24,56.24,0,0,0-1.56,14.14c0,11.92,2.38,17.51,5.14,24,3,7,6.34,14.87,6.34,29.86a71.4,71.4,0,0,1-2,17.87,68.32,68.32,0,0,1-3.85,10.92l-.45,1.06a71.91,71.91,0,0,0-5.16,24.38A7.51,7.51,0,0,1,250.26,386.9Z"/><path fill="#b28b6a" d="M355.72,401l-3.07,11.15-4.13,15-17.85,64.83a17.21,17.21,0,0,1-16.62,12.57H198a17.2,17.2,0,0,1-16.62-12.57L163.48,427.1l-4.13-15L156.28,401A17.09,17.09,0,0,1,172.9,379.4H339.1A17.09,17.09,0,0,1,355.72,401Z"/><path fill="#a17855" d="M339.1 379.4h-30A17.09 17.09 0 0 1 325.72 401l-3.07 11.15-4.13 15-17.85 64.83a17.21 17.21 0 0 1-16.62 12.57h30a17.21 17.21 0 0 0 16.62-12.57l17.85-64.83 4.13-15L355.72 401A17.09 17.09 0 0 0 339.1 379.4zM261.75 333.06a7.5 7.5 0 0 1-4.81-13.26l30.86-25.7a7.5 7.5 0 0 1 9.6 11.53l-30.86 25.7A7.49 7.49 0 0 1 261.75 333.06z"/><ellipse cx="323.19" cy="269.57" fill="#19ac66" rx="43.06" ry="26.84" transform="rotate(-44.37 323.158 269.563)"/><path fill="#a17855" d="M252,365.93a7.47,7.47,0,0,1-4.8-1.74l-29.35-24.44a7.5,7.5,0,0,1,9.6-11.53l29.35,24.45a7.5,7.5,0,0,1-4.8,13.26Z"/><ellipse cx="192.1" cy="303.69" fill="#19ac66" rx="26.84" ry="43.06" transform="rotate(-45.63 192.116 303.707)"/><rect width="346.19" height="191.71" x="82.91" y="7.5" fill="#107f47" rx="30"/><path fill="#0d7341" d="M399.09,7.5h-15a30,30,0,0,1,30,30V169.21a30,30,0,0,1-30,30h15a30,30,0,0,0,30-30V37.5A30,30,0,0,0,399.09,7.5Z"/><path fill="#19ac66" d="M369.09,199.21H142.91a60,60,0,0,0-60-60V67.5a60,60,0,0,0,60-60H369.09a60,60,0,0,0,60,60v71.71A60,60,0,0,0,369.09,199.21Z"/><path fill="#17a454" d="M429.09,139.21V67.5a60,60,0,0,1-60-60h-15a60,60,0,0,0,60,60v73.6a58.9,58.9,0,0,1,8.39-1.53A61.05,61.05,0,0,1,429.09,139.21Z"/><path fill="#fed947" d="M256,176.63a73.29,73.29,0,1,1,51.81-21.46A72.79,72.79,0,0,1,256,176.63Z"/><path fill="#fecc30" d="M307.81,51.54A72.79,72.79,0,0,0,256,30.08a75.14,75.14,0,0,0-12.5,1.07,73.27,73.27,0,0,1,39.31,124,72.62,72.62,0,0,1-39.31,20.38,74.09,74.09,0,0,0,12.5,1.08A73.27,73.27,0,0,0,307.81,51.54Z"/><path fill="#3c3b41" d="M113.4,95.78a7.5,7.5,0,1,0,7.5,7.5A7.5,7.5,0,0,0,113.4,95.78ZM288.75,67.43a7.5,7.5,0,0,0-7.5-7.5h-50.5a7.5,7.5,0,1,0,0,15H248.4A13.82,13.82,0,0,1,260,81.27H230.75a7.5,7.5,0,0,0,0,15H260a13.83,13.83,0,0,1-11.62,6.35H230.69l-.43,0-.32,0-.37.06c-.12,0-.25,0-.36.06l-.3.07-.41.11-.28.1-.4.15-.39.19-.26.13-.36.21-.27.17c-.09.06-.18.14-.27.21l-.32.23-.22.21-.33.3,0,0c-.06.06-.11.13-.16.19s-.2.21-.29.33l-.21.27-.22.32c-.07.1-.13.21-.19.31s-.13.21-.18.32-.11.22-.16.33a2.07,2.07,0,0,0-.15.34,3.42,3.42,0,0,0-.13.34,3.58,3.58,0,0,0-.11.35,2.25,2.25,0,0,0-.09.35l-.09.36c0,.13,0,.25,0,.37s0,.24-.05.36,0,.28,0,.42,0,.17,0,.26v.06c0,.14,0,.29,0,.43s0,.21,0,.32l.06.36c0,.12,0,.25.06.37a2.68,2.68,0,0,0,.07.27c0,.14.07.29.11.44a1.8,1.8,0,0,0,.08.21c.05.16.11.31.17.47l.16.33a3.18,3.18,0,0,0,.16.32c.06.11.13.22.2.33a2.82,2.82,0,0,0,.18.29,2.69,2.69,0,0,0,.2.27l.24.33.2.21c.1.12.2.23.31.34a.08.08,0,0,1,0,0l38.18,37a7.5,7.5,0,0,0,10.44-10.78L249.26,117.6a28.88,28.88,0,0,0,27-21.33h5a7.5,7.5,0,0,0,0-15h-5a28.51,28.51,0,0,0-2.55-6.34h7.55A7.5,7.5,0,0,0,288.75,67.43ZM399.09-.07H112.9a37.55,37.55,0,0,0-37.5,37.5V169.14a37.55,37.55,0,0,0,37.5,37.5H254.61c1.52,9.26,1,17.5-1.69,24.56-.57,1.52-1.23,3.07-1.92,4.71a114.71,114.71,0,0,0-6.21,17.88,71.32,71.32,0,0,0-2,17.87c0,15,3.37,22.89,6.35,29.86,2.76,6.46,5.14,12.05,5.14,24a55.75,55.75,0,0,1-1.57,14.14,49.57,49.57,0,0,1-2.52,7.39L231.5,331.49c5-17.54-.66-37.83-15.06-52.09-15.86-15.7-39.11-20.92-57.86-13a7.46,7.46,0,0,0-4,3.93c-8.05,18.64-2.77,41.74,13.13,57.48a56.58,56.58,0,0,0,39.39,16.66,48.32,48.32,0,0,0,14.05-2.06L245,362.28a93.6,93.6,0,0,0-1.63,9.55H172.89a24.57,24.57,0,0,0-19.71,9.74,24.25,24.25,0,0,0-4.14,21.3l25.06,91A24.75,24.75,0,0,0,198,511.93H314a24.75,24.75,0,0,0,23.85-18.08l19.68-71.47a7.34,7.34,0,0,0,.47-1.68L363,402.87a24.28,24.28,0,0,0-4.13-21.3,24.6,24.6,0,0,0-19.72-9.74H258.51a66.09,66.09,0,0,1,4.39-16.49l.45-1.06a64.27,64.27,0,0,0,5.81-25.21l24.94-20.76a48.22,48.22,0,0,0,14,2.06,56.6,56.6,0,0,0,39.39-16.66c15.9-15.74,21.17-38.84,13.13-57.48a7.52,7.52,0,0,0-4-3.93c-18.74-7.94-42-2.72-57.86,13-14.4,14.25-20.08,34.54-15.06,52.08l-15.9,13.25a71.84,71.84,0,0,0-5-15c-2.75-6.46-5.14-12.05-5.14-24a55.75,55.75,0,0,1,1.57-14.14,99.35,99.35,0,0,1,5.49-15.77c.76-1.79,1.47-3.47,2.15-5.28,3.34-8.9,4.27-18.9,2.81-29.83H399.09a37.54,37.54,0,0,0,37.5-37.5V37.43A37.54,37.54,0,0,0,399.09-.07ZM216.87,328.07c-12.68,3.93-27.81-.24-38.57-10.89s-14.92-25.52-11-38c12.68-3.92,27.81.24,38.57,10.89S220.8,315.58,216.87,328.07Zm92.53-72.13c10.75-10.65,25.88-14.82,38.57-10.89,3.93,12.49-.28,27.4-11,38S311.09,297.88,298.41,294C294.48,281.46,298.68,266.55,309.4,255.94ZM90.4,37.43a22.53,22.53,0,0,1,22.5-22.5h22A52.61,52.61,0,0,1,90.4,59.39Zm22.5,154.21a22.53,22.53,0,0,1-22.5-22.5v-22a52.61,52.61,0,0,1,44.46,44.46ZM323.43,489.87a9.71,9.71,0,0,1-9.39,7.06H198a9.72,9.72,0,0,1-9.39-7.06L171.26,427H340.73Zm15.67-103a9.7,9.7,0,0,1,7.79,3.83,9.4,9.4,0,0,1,1.6,8.22L344.87,412H167.13l-3.62-13.15a9.34,9.34,0,0,1,1.6-8.22,9.67,9.67,0,0,1,7.78-3.83Zm82.49-217.69a22.52,22.52,0,0,1-22.5,22.5h-22a52.61,52.61,0,0,1,44.46-44.46Zm0-37.07A67.6,67.6,0,0,0,362,191.64H150A67.61,67.61,0,0,0,90.4,132.07V74.5A67.61,67.61,0,0,0,150,14.93H362A67.6,67.6,0,0,0,421.59,74.5Zm0-72.68a52.61,52.61,0,0,1-44.46-44.46h22a22.52,22.52,0,0,1,22.5,22.5Zm-23,51.39a7.5,7.5,0,1,0-7.5-7.5A7.5,7.5,0,0,0,398.59,110.78ZM256,22.51A80.77,80.77,0,0,0,198.88,160.4,80.77,80.77,0,1,0,313.11,46.17,80.22,80.22,0,0,0,256,22.51ZM302.51,149.8a65.8,65.8,0,1,1,19.26-46.52A65.36,65.36,0,0,1,302.51,149.8Z"/></svg>