<svg xmlns="http://www.w3.org/2000/svg" xmlns:xlink="http://www.w3.org/1999/xlink" width="141" height="141" viewBox="0 0 141 141">
  <defs>
    <clipPath id="clip-path">
      <path id="path174" d="M1318.141-1844.829H1406.1v-34.793h-87.956Z" transform="translate(-1318.141 1879.622)" fill="#0e3746"/>
    </clipPath>
    <clipPath id="clip-path-2">
      <path id="path198" d="M2179.612-2511.407a4.837,4.837,0,0,0-2.9.783,4.836,4.836,0,0,0-1.624,2.527,4.836,4.836,0,0,0,2.9-.783A4.833,4.833,0,0,0,2179.612-2511.407Z" transform="translate(-2175.088 2511.413)"/>
    </clipPath>
  </defs>
  <g id="tds" transform="translate(-446.666 2886.659)">
    <g id="g12" transform="translate(446.666 -2886.659)">
      <path id="path14" d="M587.666-2816.159a70.5,70.5,0,0,1-70.5,70.5,70.5,70.5,0,0,1-70.5-70.5,70.5,70.5,0,0,1,70.5-70.5,70.5,70.5,0,0,1,70.5,70.5" transform="translate(-446.666 2886.659)" fill="#dadde1"/>
      <path id="path16" d="M758.241-2771.273h76.11v75.661h-76.11v-75.661" transform="translate(-740.236 2777.941)" fill="#fff"/>
      <path id="path18" d="M757.062-2696.946h75.956v-75.507H757.062Zm76.033.154h-76.11a.077.077,0,0,1-.077-.077v-75.661a.077.077,0,0,1,.077-.077h76.11a.077.077,0,0,1,.077.077v75.661a.077.077,0,0,1-.077.077" transform="translate(-738.979 2779.197)" fill="#d3bba3"/>
      <path id="path20" d="M1859.27-2534.221h8.352v-8.352h-8.352Zm8.429.154h-8.506a.077.077,0,0,1-.077-.077v-8.506a.077.077,0,0,1,.077-.077h8.506a.077.077,0,0,1,.077.077v8.506a.076.076,0,0,1-.077.077" transform="translate(-1777.494 2562.602)" fill="#e6d0be"/>
      <path id="path22" d="M1685.483-2534.221h8.353v-8.352h-8.353Zm8.43.154h-8.507a.077.077,0,0,1-.077-.077v-8.506a.077.077,0,0,1,.077-.077h8.507a.077.077,0,0,1,.077.077v8.506a.077.077,0,0,1-.077.077" transform="translate(-1613.75 2562.602)" fill="#e6d0be"/>
      <path id="path24" d="M1511.7-2534.221h8.353v-8.352H1511.7Zm8.43.154h-8.507a.077.077,0,0,1-.077-.077v-8.506a.077.077,0,0,1,.077-.077h8.507a.077.077,0,0,1,.077.077v8.506a.077.077,0,0,1-.077.077" transform="translate(-1450.007 2562.602)" fill="#e6d0be"/>
      <path id="path26" d="M1339.09-2532.888h8.507v-8.506h-8.507v8.506" transform="translate(-1287.52 2561.346)" fill="#d87355"/>
      <path id="path28" d="M1164.13-2534.221h8.353v-8.352h-8.353Zm8.43.154h-8.507a.077.077,0,0,1-.077-.077v-8.506a.077.077,0,0,1,.077-.077h8.507a.077.077,0,0,1,.077.077v8.506a.077.077,0,0,1-.077.077" transform="translate(-1122.525 2562.602)" fill="#e6d0be"/>
      <path id="path30" d="M990.346-2534.221H998.7v-8.352h-8.352Zm8.43.154h-8.507a.077.077,0,0,1-.077-.077v-8.506a.077.077,0,0,1,.077-.077h8.507a.077.077,0,0,1,.077.077v8.506a.077.077,0,0,1-.077.077" transform="translate(-958.783 2562.602)" fill="#e6d0be"/>
      <path id="path32" d="M816.671-2534.221h8.353v-8.352h-8.353Zm8.43.154h-8.507a.077.077,0,0,1-.077-.077v-8.506a.077.077,0,0,1,.077-.077H825.1a.077.077,0,0,1,.077.077v8.506a.077.077,0,0,1-.077.077" transform="translate(-795.144 2562.602)" fill="#e6d0be"/>
      <path id="path34" d="M1859.27-2361.621h8.352v-8.352h-8.352Zm8.429.154h-8.506a.077.077,0,0,1-.077-.077v-8.506a.077.077,0,0,1,.077-.077h8.506a.076.076,0,0,1,.077.077v8.506a.077.077,0,0,1-.077.077" transform="translate(-1777.494 2399.976)" fill="#e6d0be"/>
      <path id="path36" d="M1685.483-2361.621h8.353v-8.352h-8.353Zm8.43.154h-8.507a.077.077,0,0,1-.077-.077v-8.506a.077.077,0,0,1,.077-.077h8.507a.077.077,0,0,1,.077.077v8.506a.077.077,0,0,1-.077.077" transform="translate(-1613.75 2399.976)" fill="#e6d0be"/>
      <path id="path38" d="M1511.7-2361.621h8.353v-8.352H1511.7Zm8.43.154h-8.507a.077.077,0,0,1-.077-.077v-8.506a.077.077,0,0,1,.077-.077h8.507a.077.077,0,0,1,.077.077v8.506a.077.077,0,0,1-.077.077" transform="translate(-1450.007 2399.976)" fill="#e6d0be"/>
      <path id="path40" d="M1337.911-2361.621h8.353v-8.352h-8.353Zm8.43.154h-8.507a.077.077,0,0,1-.077-.077v-8.506a.077.077,0,0,1,.077-.077h8.507a.077.077,0,0,1,.077.077v8.506a.077.077,0,0,1-.077.077" transform="translate(-1286.263 2399.976)" fill="#e6d0be"/>
      <path id="path42" d="M1164.13-2361.621h8.353v-8.352h-8.353Zm8.43.154h-8.507a.077.077,0,0,1-.077-.077v-8.506a.077.077,0,0,1,.077-.077h8.507a.077.077,0,0,1,.077.077v8.506a.077.077,0,0,1-.077.077" transform="translate(-1122.525 2399.976)" fill="#e6d0be"/>
      <path id="path44" d="M990.346-2361.621H998.7v-8.352h-8.352Zm8.43.154h-8.507a.077.077,0,0,1-.077-.077v-8.506a.077.077,0,0,1,.077-.077h8.507a.077.077,0,0,1,.077.077v8.506a.077.077,0,0,1-.077.077" transform="translate(-958.783 2399.976)" fill="#e6d0be"/>
      <path id="path46" d="M816.561-2361.621h8.352v-8.352h-8.352Zm8.43.154h-8.507a.077.077,0,0,1-.077-.077v-8.506a.077.077,0,0,1,.077-.077h8.507a.077.077,0,0,1,.077.077v8.506a.077.077,0,0,1-.077.077" transform="translate(-795.041 2399.976)" fill="#e6d0be"/>
      <path id="path48" d="M1859.27-2189.022h8.352v-8.352h-8.352Zm8.429.154h-8.506a.077.077,0,0,1-.077-.077v-8.506a.077.077,0,0,1,.077-.077h8.506a.076.076,0,0,1,.077.077v8.506a.077.077,0,0,1-.077.077" transform="translate(-1777.494 2237.351)" fill="#e6d0be"/>
      <path id="path50" d="M1685.483-2189.022h8.353v-8.352h-8.353Zm8.43.154h-8.507a.077.077,0,0,1-.077-.077v-8.506a.077.077,0,0,1,.077-.077h8.507a.077.077,0,0,1,.077.077v8.506a.077.077,0,0,1-.077.077" transform="translate(-1613.75 2237.351)" fill="#e6d0be"/>
      <path id="path52" d="M1511.7-2189.022h8.353v-8.352H1511.7Zm8.43.154h-8.507a.077.077,0,0,1-.077-.077v-8.506a.077.077,0,0,1,.077-.077h8.507a.077.077,0,0,1,.077.077v8.506a.077.077,0,0,1-.077.077" transform="translate(-1450.007 2237.351)" fill="#e6d0be"/>
      <path id="path54" d="M1337.911-2189.022h8.353v-8.352h-8.353Zm8.43.154h-8.507a.077.077,0,0,1-.077-.077v-8.506a.077.077,0,0,1,.077-.077h8.507a.077.077,0,0,1,.077.077v8.506a.077.077,0,0,1-.077.077" transform="translate(-1286.263 2237.351)" fill="#e6d0be"/>
      <path id="path56" d="M1164.13-2189.022h8.353v-8.352h-8.353Zm8.43.154h-8.507a.077.077,0,0,1-.077-.077v-8.506a.077.077,0,0,1,.077-.077h8.507a.077.077,0,0,1,.077.077v8.506a.077.077,0,0,1-.077.077" transform="translate(-1122.525 2237.351)" fill="#e6d0be"/>
      <path id="path58" d="M990.346-2189.022H998.7v-8.352h-8.352Zm8.43.154h-8.507a.077.077,0,0,1-.077-.077v-8.506a.077.077,0,0,1,.077-.077h8.507a.077.077,0,0,1,.077.077v8.506a.077.077,0,0,1-.077.077" transform="translate(-958.783 2237.351)" fill="#e6d0be"/>
      <path id="path60" d="M816.561-2189.022h8.352v-8.352h-8.352Zm8.43.154h-8.507a.077.077,0,0,1-.077-.077v-8.506a.077.077,0,0,1,.077-.077h8.507a.077.077,0,0,1,.077.077v8.506a.077.077,0,0,1-.077.077" transform="translate(-795.041 2237.351)" fill="#e6d0be"/>
      <path id="path62" d="M1859.27-2016.435h8.352v-8.353h-8.352Zm8.429.154h-8.506a.077.077,0,0,1-.077-.077v-8.507a.077.077,0,0,1,.077-.077h8.506a.077.077,0,0,1,.077.077v8.507a.077.077,0,0,1-.077.077" transform="translate(-1777.494 2074.738)" fill="#e6d0be"/>
      <path id="path64" d="M1685.483-2016.435h8.353v-8.353h-8.353Zm8.43.154h-8.507a.077.077,0,0,1-.077-.077v-8.507a.077.077,0,0,1,.077-.077h8.507a.077.077,0,0,1,.077.077v8.507a.077.077,0,0,1-.077.077" transform="translate(-1613.75 2074.738)" fill="#e6d0be"/>
      <path id="path66" d="M1511.7-2016.435h8.353v-8.353H1511.7Zm8.43.154h-8.507a.077.077,0,0,1-.077-.077v-8.507a.077.077,0,0,1,.077-.077h8.507a.077.077,0,0,1,.077.077v8.507a.077.077,0,0,1-.077.077" transform="translate(-1450.007 2074.738)" fill="#e6d0be"/>
      <path id="path68" d="M1337.911-2016.435h8.353v-8.353h-8.353Zm8.43.154h-8.507a.077.077,0,0,1-.077-.077v-8.507a.077.077,0,0,1,.077-.077h8.507a.077.077,0,0,1,.077.077v8.507a.077.077,0,0,1-.077.077" transform="translate(-1286.263 2074.738)" fill="#e6d0be"/>
      <path id="path70" d="M1164.13-2016.435h8.353v-8.353h-8.353Zm8.43.154h-8.507a.077.077,0,0,1-.077-.077v-8.507a.077.077,0,0,1,.077-.077h8.507a.077.077,0,0,1,.077.077v8.507a.077.077,0,0,1-.077.077" transform="translate(-1122.525 2074.738)" fill="#e6d0be"/>
      <path id="path72" d="M990.346-2016.435H998.7v-8.353h-8.352Zm8.43.154h-8.507a.077.077,0,0,1-.077-.077v-8.507a.077.077,0,0,1,.077-.077h8.507a.077.077,0,0,1,.077.077v8.507a.077.077,0,0,1-.077.077" transform="translate(-958.783 2074.738)" fill="#e6d0be"/>
      <path id="path74" d="M816.561-2016.435h8.352v-8.353h-8.352Zm8.43.154h-8.507a.077.077,0,0,1-.077-.077v-8.507a.077.077,0,0,1,.077-.077h8.507a.077.077,0,0,1,.077.077v8.507a.077.077,0,0,1-.077.077" transform="translate(-795.041 2074.738)" fill="#e6d0be"/>
      <path id="path76" d="M1980.636-2728.459a1.12,1.12,0,0,1-1.121,1.12,1.12,1.12,0,0,1-1.12-1.12,1.12,1.12,0,0,1,1.12-1.121,1.121,1.121,0,0,1,1.121,1.121" transform="translate(-1889.881 2738.657)" fill="#f2e6dc"/>
      <path id="path78" d="M1863.876-2728.459a1.12,1.12,0,0,1-1.12,1.12,1.12,1.12,0,0,1-1.12-1.12,1.12,1.12,0,0,1,1.12-1.121,1.12,1.12,0,0,1,1.12,1.121" transform="translate(-1779.868 2738.657)" fill="#f2e6dc"/>
      <path id="path80" d="M1747.116-2728.459a1.12,1.12,0,0,1-1.12,1.12,1.12,1.12,0,0,1-1.12-1.12,1.12,1.12,0,0,1,1.12-1.121,1.12,1.12,0,0,1,1.12,1.121" transform="translate(-1669.856 2738.657)" fill="#f2e6dc"/>
      <path id="path82" d="M1630.357-2728.459a1.12,1.12,0,0,1-1.12,1.12,1.12,1.12,0,0,1-1.12-1.12,1.12,1.12,0,0,1,1.12-1.121,1.12,1.12,0,0,1,1.12,1.121" transform="translate(-1559.844 2738.657)" fill="#f2e6dc"/>
      <path id="path84" d="M1513.6-2728.459a1.12,1.12,0,0,1-1.12,1.12,1.12,1.12,0,0,1-1.12-1.12,1.12,1.12,0,0,1,1.12-1.121,1.12,1.12,0,0,1,1.12,1.121" transform="translate(-1449.831 2738.657)" fill="#f2e6dc"/>
      <path id="path86" d="M1396.837-2728.459a1.12,1.12,0,0,1-1.12,1.12,1.12,1.12,0,0,1-1.12-1.12,1.12,1.12,0,0,1,1.12-1.121,1.12,1.12,0,0,1,1.12,1.121" transform="translate(-1339.818 2738.657)" fill="#f2e6dc"/>
      <path id="path88" d="M1280.073-2728.459a1.12,1.12,0,0,1-1.121,1.12,1.12,1.12,0,0,1-1.12-1.12,1.121,1.121,0,0,1,1.12-1.121,1.121,1.121,0,0,1,1.121,1.121" transform="translate(-1229.801 2738.657)" fill="#f2e6dc"/>
      <path id="path90" d="M1163.313-2728.459a1.12,1.12,0,0,1-1.12,1.12,1.12,1.12,0,0,1-1.12-1.12,1.121,1.121,0,0,1,1.12-1.121,1.12,1.12,0,0,1,1.12,1.121" transform="translate(-1119.788 2738.657)" fill="#f2e6dc"/>
      <path id="path92" d="M1046.552-2728.459a1.12,1.12,0,0,1-1.12,1.12,1.12,1.12,0,0,1-1.12-1.12,1.121,1.121,0,0,1,1.12-1.121,1.12,1.12,0,0,1,1.12,1.121" transform="translate(-1009.775 2738.657)" fill="#f2e6dc"/>
      <path id="path94" d="M929.792-2728.459a1.12,1.12,0,0,1-1.12,1.12,1.12,1.12,0,0,1-1.121-1.12,1.121,1.121,0,0,1,1.121-1.121,1.12,1.12,0,0,1,1.12,1.121" transform="translate(-899.762 2738.657)" fill="#f2e6dc"/>
      <path id="path96" d="M813.031-2728.459a1.12,1.12,0,0,1-1.12,1.12,1.12,1.12,0,0,1-1.121-1.12,1.12,1.12,0,0,1,1.121-1.121,1.12,1.12,0,0,1,1.12,1.121" transform="translate(-789.748 2738.657)" fill="#f2e6dc"/>
      <path id="path98" d="M832.621-2819.219v0" transform="translate(-810.317 2823.117)" fill="#fff"/>
      <path id="path100" d="M831.364-2814.167a.077.077,0,0,1-.077-.077v-6.233a.077.077,0,0,1,.077-.077.077.077,0,0,1,.077.077v6.233a.077.077,0,0,1-.077.077" transform="translate(-809.061 2824.373)" fill="#d3bba3"/>
      <path id="path102" d="M949.122-2819.219v0" transform="translate(-920.086 2823.117)" fill="#fff"/>
      <path id="path104" d="M947.867-2814.167a.077.077,0,0,1-.077-.077v-6.233a.077.077,0,0,1,.077-.077.077.077,0,0,1,.077.077v6.233a.077.077,0,0,1-.077.077" transform="translate(-918.831 2824.373)" fill="#d3bba3"/>
      <path id="path106" d="M1065.624-2819.219v0" transform="translate(-1029.856 2823.117)" fill="#fff"/>
      <path id="path108" d="M1064.368-2814.167a.077.077,0,0,1-.077-.077v-6.233a.077.077,0,0,1,.077-.077.077.077,0,0,1,.077.077v6.233a.077.077,0,0,1-.077.077" transform="translate(-1028.6 2824.373)" fill="#d3bba3"/>
      <path id="path110" d="M1182.125-2819.219v0" transform="translate(-1139.625 2823.117)" fill="#fff"/>
      <path id="path112" d="M1180.87-2814.167a.077.077,0,0,1-.077-.077v-6.233a.077.077,0,0,1,.077-.077.077.077,0,0,1,.077.077v6.233a.077.077,0,0,1-.077.077" transform="translate(-1138.37 2824.373)" fill="#d3bba3"/>
      <path id="path114" d="M1298.628-2819.219v0" transform="translate(-1249.395 2823.117)" fill="#fff"/>
      <path id="path116" d="M1297.371-2814.167a.077.077,0,0,1-.077-.077v-6.233a.077.077,0,0,1,.077-.077.077.077,0,0,1,.077.077v6.233a.077.077,0,0,1-.077.077" transform="translate(-1248.139 2824.373)" fill="#d3bba3"/>
      <path id="path118" d="M1415.13-2819.219v0" transform="translate(-1359.165 2823.117)" fill="#fff"/>
      <path id="path120" d="M1413.874-2814.167a.077.077,0,0,1-.077-.077v-6.233a.077.077,0,0,1,.077-.077.077.077,0,0,1,.077.077v6.233a.077.077,0,0,1-.077.077" transform="translate(-1357.909 2824.373)" fill="#d3bba3"/>
      <path id="path122" d="M1531.636-2819.219v0" transform="translate(-1468.939 2823.117)" fill="#fff"/>
      <path id="path124" d="M1530.38-2814.167a.077.077,0,0,1-.077-.077v-6.233a.076.076,0,0,1,.077-.077.077.077,0,0,1,.077.077v6.233a.077.077,0,0,1-.077.077" transform="translate(-1467.683 2824.373)" fill="#d3bba3"/>
      <path id="path126" d="M1648.129-2819.219v0" transform="translate(-1578.7 2823.117)" fill="#fff"/>
      <path id="path128" d="M1646.873-2814.167a.077.077,0,0,1-.077-.077v-6.233a.077.077,0,0,1,.077-.077.077.077,0,0,1,.077.077v6.233a.077.077,0,0,1-.077.077" transform="translate(-1577.444 2824.373)" fill="#d3bba3"/>
      <path id="path130" d="M1764.636-2819.219v0" transform="translate(-1688.474 2823.117)" fill="#fff"/>
      <path id="path132" d="M1763.379-2814.167a.077.077,0,0,1-.077-.077v-6.233a.077.077,0,0,1,.077-.077.077.077,0,0,1,.077.077v6.233a.077.077,0,0,1-.077.077" transform="translate(-1687.218 2824.373)" fill="#d3bba3"/>
      <path id="path134" d="M1881.129-2819.219v0" transform="translate(-1798.235 2823.117)" fill="#fff"/>
      <path id="path136" d="M1879.872-2814.167a.077.077,0,0,1-.077-.077v-6.233a.077.077,0,0,1,.077-.077.076.076,0,0,1,.077.077v6.233a.077.077,0,0,1-.077.077" transform="translate(-1796.979 2824.373)" fill="#d3bba3"/>
      <path id="path138" d="M1997.635-2819.219v0" transform="translate(-1908.009 2823.117)" fill="#fff"/>
      <path id="path140" d="M1996.379-2814.167a.077.077,0,0,1-.077-.077v-6.233a.077.077,0,0,1,.077-.077.077.077,0,0,1,.077.077v6.233a.077.077,0,0,1-.077.077" transform="translate(-1906.753 2824.373)" fill="#d3bba3"/>
      <path id="path142" d="M2316.852-1237.97H2297.1s-2.308,6.128-1.881,8.179c.793,3.811,9.405,9.365,9.405,13.236s-8.613,9.424-9.405,13.235c-.427,2.052,1.881,8.18,1.881,8.18h19.755s2.308-6.128,1.882-8.18c-.793-3.811-9.406-9.365-9.406-13.235s8.613-9.425,9.406-13.236c.426-2.052-1.882-8.179-1.882-8.179" transform="translate(-2188.344 1333.243)" fill="#fff"/>
      <path id="path144" d="M2359.544-991.965c0-2.289,4.057-5.3,5.9-7.859h-12.794c1.928,2.563,6.315,5.587,6.315,7.859,0,2.871.431,14.069-3.059,16.843a61.92,61.92,0,0,1-5.682,3.285h17.922a27.094,27.094,0,0,0-4.613-2.472c-4.349-1.97-3.987-14.786-3.987-17.657" transform="translate(-2240.22 1108.859)" fill="#fc8019"/>
      <path id="path146" d="M2320.386-1196.474h19.647c.217-.589,2.257-6.177,1.859-8.087-.366-1.761-2.489-3.967-4.542-6.1-2.392-2.486-4.865-5.057-4.865-7.149s2.473-4.663,4.865-7.149c2.053-2.134,4.176-4.341,4.542-6.1.4-1.91-1.642-7.5-1.859-8.087h-19.647c-.218.589-2.257,6.178-1.86,8.087.366,1.761,2.489,3.967,4.542,6.1,2.391,2.486,4.865,5.057,4.865,7.149s-2.473,4.662-4.865,7.149c-2.053,2.134-4.176,4.341-4.542,6.1C2318.128-1202.651,2320.168-1197.063,2320.386-1196.474Zm19.7.154h-19.755a.076.076,0,0,1-.072-.05c-.095-.25-2.312-6.172-1.885-8.222.375-1.8,2.418-3.929,4.582-6.178,2.371-2.464,4.822-5.013,4.822-7.042s-2.451-4.578-4.822-7.042c-2.164-2.249-4.207-4.373-4.582-6.177-.426-2.05,1.791-7.972,1.885-8.223a.077.077,0,0,1,.072-.05h19.755a.078.078,0,0,1,.073.05c.094.251,2.311,6.172,1.885,8.223-.375,1.8-2.419,3.928-4.582,6.177-2.37,2.464-4.822,5.013-4.822,7.042s2.452,4.578,4.822,7.042c2.163,2.249,4.208,4.373,4.582,6.178.427,2.05-1.791,7.972-1.885,8.222a.078.078,0,0,1-.073.05" transform="translate(-2210.163 1334.499)" fill="#fff"/>
      <path id="path148" d="M2622.058-703.307a.075.075,0,0,1-.022,0,.076.076,0,0,1-.052-.1,12.516,12.516,0,0,0,.779-4.823c-.281-1.348-1.6-2.938-2.721-4.173a.077.077,0,0,1,.005-.109.077.077,0,0,1,.109.005c1.133,1.249,2.47,2.86,2.759,4.245.179.863-.084,2.511-.782,4.9a.078.078,0,0,1-.074.055" transform="translate(-2494.43 838.166)" fill="#fff"/>
      <path id="path150" d="M2639.213-1185.513a.077.077,0,0,1-.048-.017.077.077,0,0,1-.012-.109,7.45,7.45,0,0,0,1.62-2.891c.24-1.155-.407-3.646-.994-5.533a.077.077,0,0,1,.051-.1.077.077,0,0,1,.1.051c.592,1.9,1.244,4.422,1,5.61a7.481,7.481,0,0,1-1.65,2.956.077.077,0,0,1-.06.029" transform="translate(-2512.439 1291.967)" fill="#fff"/>
      <path id="path152" d="M2319.39-501.428h-23.569v-2.851h23.569v2.851" transform="translate(-2188.964 641.95)" fill="#84524d"/>
      <path id="path154" d="M2319.39-1275.333h-23.569v-2.85h23.569v2.85" transform="translate(-2188.964 1371.133)" fill="#84524d"/>
      <path id="path156" d="M1234.1-1044.011l7.15,16.122-28.327,15.106s-2.77-25.876,21.177-31.227" transform="translate(-1168.553 1150.492)" fill="#fff"/>
      <path id="path158" d="M1330.348-1633.663l-.711,27.426c-.092-.011-16.4,9.018-16.288,8.241.076-.514-.939-22.872-1.635-37.976a17.083,17.083,0,0,1,.774-5.931l11.257,1.905,6.6,6.334" transform="translate(-1261.708 1713.833)" fill="#0e3746"/>
      <path id="path160" d="M1190.042-941.392l-10.508,9.593-8.1-4.779,8.641-11.966,9.964,7.152" transform="translate(-1129.555 1060.542)" fill="#ffbe9d"/>
      <path id="path162" d="M813.233-802.82H772.455s9.3-13.1,25.546-19.138l11,5.514a97.7,97.7,0,0,1,4.228,13.625" transform="translate(-753.629 941.271)" fill="#2291ff"/>
      <path id="path164" d="M1142.972-777.282a.076.076,0,0,1-.059-.028l-4.2-5.024a.077.077,0,0,1,.01-.109.077.077,0,0,1,.109.009l4.2,5.024a.076.076,0,0,1-.01.108.076.076,0,0,1-.049.018" transform="translate(-1098.702 904.055)" fill="#363e44"/>
      <path id="path166" d="M1082.984-749.828a.076.076,0,0,1-.059-.028l-4.2-5.024a.077.077,0,0,1,.01-.109.077.077,0,0,1,.109.009l4.2,5.024a.076.076,0,0,1-.01.108.076.076,0,0,1-.049.018" transform="translate(-1042.181 878.189)" fill="#363e44"/>
      <path id="path168" d="M1314.3-1576.61l-34.73,37.828-12.17-9.59,19.347-31.539s6.283-9.11,14.658-4.88a67.426,67.426,0,0,1,12.895,8.18" transform="translate(-1219.969 1661.077)" fill="#0e3746"/>
      <g id="g170" transform="translate(50.36 58.194)">
        <g id="g172" clip-path="url(#clip-path)">
          <path id="path178" d="M1338.7-1861.5c24.493-4.206,48.332,3.921,71.679,21.3,0,0,1.646,10.941-11.223,13.949s-55.794-19.23-55.794-19.23l-.1,3.883-17.86-8.24a16.978,16.978,0,0,1,13.3-11.661" transform="translate(-1324.983 1863.577)" fill="#0e3746"/>
        </g>
      </g>
      <path id="path180" d="M1580.574-1589.628a.082.082,0,0,1-.032-.007l-25.2-11.629a.078.078,0,0,1-.038-.1.077.077,0,0,1,.1-.038l25.2,11.629a.078.078,0,0,1,.038.1.076.076,0,0,1-.07.045" transform="translate(-1491.236 1675.682)" fill="#363e44"/>
      <path id="path182" d="M1343.943-1479.295a.077.077,0,0,1-.04-.011.077.077,0,0,1-.025-.106l15.57-25.452a.078.078,0,0,1,.106-.026.077.077,0,0,1,.025.106l-15.57,25.452a.077.077,0,0,1-.066.037" transform="translate(-1292.019 1584.748)" fill="#363e44"/>
      <path id="path184" d="M2242.419-2719.4a7.024,7.024,0,0,0,5.413-1.748c2.284-2.195,8.16-3.524,12.948.138,9.526,7.286,9.126-5.475,17.579-.974v3.147c-.907-.337-2.341-.323-4.125,1.546-2.634,2.763-4.313,2.309-4.786,2.092-.088-.045-.136-.075-.136-.075a.927.927,0,0,0,.136.075c.631.327,3.32,1.526,5.4-.492a3.4,3.4,0,0,1,3.515-1.042v12.854s-1.827,4.917-7.6,2.834-7.259-8.874-13.216-6.266-4.69,3.15-10.261.481-4.859-12.57-4.859-12.57" transform="translate(-2138.62 2732.736)" fill="#0e3746"/>
      <path id="path186" d="M2145.551-2618.084c2.278.469,5.709-5.033,5.709-5.033l.224-7.1a5.923,5.923,0,0,0-7.806-3.037,5.923,5.923,0,0,0-3.037,7.806s2.591,6.886,4.91,7.365" transform="translate(-2042.277 2648.372)" fill="#ffbe9d"/>
      <path id="path188" d="M2234.926-2559.846l-6.418,8.321-.52-6.268-5.66-12.871,6.569-2.889,6.029,13.707" transform="translate(-2119.718 2591.647)" fill="#ffbe9d"/>
      <path id="path190" d="M2160.564-2470.047s-.82,2.261-.554,2.647c.318.46,2.146.021,2.146.021s-1.63-2.646-1.592-2.667" transform="translate(-2060.951 2494.122)" fill="#ffbe9d"/>
      <path id="path192" d="M2216.759-2511.407a5.138,5.138,0,0,0-2.217.392c-.233.1,1.026,1.772,1.2,1.57a5.161,5.161,0,0,0,1.016-1.962" transform="translate(-2112.355 2533.098)" fill="#fff"/>
      <g id="g194" transform="translate(99.88 21.684)">
        <g id="g196" clip-path="url(#clip-path-2)">
          <path id="path202" d="M2168.866-2507.248a2.024,2.024,0,0,0-2.62,1.153,2.024,2.024,0,0,0,1.152,2.621,2.025,2.025,0,0,0,2.621-1.152,2.025,2.025,0,0,0-1.153-2.621" transform="translate(-2166.627 2507.618)" fill="#363e44"/>
        </g>
      </g>
      <path id="path204" d="M2219.158-2438.238a.916.916,0,0,1-.143-.011.078.078,0,0,1-.064-.089.077.077,0,0,1,.088-.064.755.755,0,0,0,.75-.33.758.758,0,0,0,.018-.8.078.078,0,0,1,.027-.106.077.077,0,0,1,.105.028.914.914,0,0,1-.021.96.909.909,0,0,1-.76.408" transform="translate(-2116.535 2465.476)" fill="#363e44"/>
      <path id="path206" d="M2263.669-2444.678a.077.077,0,0,1-.064-.035.077.077,0,0,1,.021-.107,18.3,18.3,0,0,0,3.929-4.486.077.077,0,0,1,.106-.025.077.077,0,0,1,.025.106,18.461,18.461,0,0,1-3.974,4.533.078.078,0,0,1-.042.013" transform="translate(-2158.597 2474.613)" fill="#363e44"/>
      <path id="path208" d="M2127.962-2656.142c.764-1.713-1.42-5.088-3.865-6.362-3.152-1.643-5.563-2.063-8.291-.488-4.119,2.378-3.27,8.1-3.27,8.1s4.266-1.788,5.719-2.352c2.043-.791,3.137,5.9,5.484,2.084.258-.421,3.5,7.8,7.046,5.627,4.859-2.971-3.634-4.789-2.823-6.607" transform="translate(-2016.201 2676.847)" fill="#0e3746"/>
      <path id="path210" d="M2264.048-2544.447a2.026,2.026,0,0,0,2.026,2.026,2.026,2.026,0,0,0,2.026-2.026,2.027,2.027,0,0,0-2.026-2.026,2.026,2.026,0,0,0-2.026,2.026" transform="translate(-2159.027 2566.132)" fill="#ffbe9d"/>
      <path id="path212" d="M2415.685-2480.59a3.745,3.745,0,0,1-1.387-.26,8.344,8.344,0,0,1-3.245-2.961c-.1-.125-.193-.25-.289-.373-.919-1.177-2.186-2.544-3.834-2.671a6.407,6.407,0,0,0-2.557.52,7.887,7.887,0,0,1-2.231.54,3.868,3.868,0,0,1-2.911-1.244,3.873,3.873,0,0,1-1.135-2.956.076.076,0,0,1,.082-.071.076.076,0,0,1,.071.082,3.72,3.72,0,0,0,1.093,2.837,3.722,3.722,0,0,0,2.794,1.2,7.75,7.75,0,0,0,2.188-.532,6.53,6.53,0,0,1,2.62-.527c1.708.132,3,1.528,3.944,2.73q.145.185.289.374a8.235,8.235,0,0,0,3.18,2.912,3.949,3.949,0,0,0,3.144-.173,3.948,3.948,0,0,0,2.11-2.339.077.077,0,0,1,.1-.051.078.078,0,0,1,.051.1,4.1,4.1,0,0,1-2.19,2.432,4.379,4.379,0,0,1-1.881.438" transform="translate(-2285.318 2512.984)" fill="#363e44"/>
      <path id="path214" d="M2400.652-2710.885a4.236,4.236,0,0,1-1.147-.156,9.122,9.122,0,0,1-2.219-1.093c-.315-.193-.641-.392-.969-.568a10.1,10.1,0,0,0-10.622.865.076.076,0,0,1-.108-.014.077.077,0,0,1,.014-.108,9.934,9.934,0,0,1,5.269-1.988,9.93,9.93,0,0,1,5.521,1.109c.331.178.66.378.976.572a8.986,8.986,0,0,0,2.181,1.076,4.581,4.581,0,0,0,5.222-2.4.077.077,0,0,1,.1-.038.078.078,0,0,1,.038.1,4.771,4.771,0,0,1-4.257,2.638" transform="translate(-2273.527 2723.96)" fill="#363e44"/>
      <path id="path216" d="M1469.37-1895.8h20.813a2.557,2.557,0,0,0,2.557-2.557h-23.37v2.557" transform="translate(-1410.271 1955.467)" fill="#363e44"/>
      <path id="path218" d="M1361.944-2231.135l-6.3-19.835a2.556,2.556,0,0,1,1.662-3.211l7.078,22.272-2.436.774" transform="translate(-1302.999 2290.73)" fill="#363e44"/>
      <path id="path220" d="M1405.338-2235.865a.077.077,0,0,1-.074-.053l-6.195-19.494a.077.077,0,0,1,.05-.1.077.077,0,0,1,.1.05l6.195,19.493a.077.077,0,0,1-.05.1.075.075,0,0,1-.023,0" transform="translate(-1344.029 2291.985)" fill="#f2e6dc"/>
      <path id="path222" d="M2225.16-2324.212l-38.166-16.985,5.76-25.645-1.226-5.674,15.048-5.666,2.513,5.323s12.446,11.549,16.07,48.646" transform="translate(-2086.426 2407.565)" fill="#fff"/>
      <path id="path224" d="M1618.46-2026.473c1.377-.521,6.756-3.6,9.178-2.028,2.439,1.582,3.4,4.639,3.331,7.536l-.026.026a5.714,5.714,0,0,1-2.141,2.426c-1.3.778-2.012.368-3.516.976-2.54,1.026-3,3.275-3.88,2.862-.6-.283-.391-1.6.117-2.759.522-1.187,1.361-1.735,1.231-1.9-.143-.184-.923.482-1.969,1.223-.486.344-1.237,2.107-2.117,1.842-.7-.212-.383-2.239.789-3.6.83-.96,2.05-1.147,1.97-1.365-.06-.163-.785-.033-1.376.263-.975.489-1.762,2.285-2.569,2.024-.789-.255-.479-2.02.519-3.337.842-1.109,2.214-1.254,2.115-1.524-.069-.19-.7-.253-1.99.011-1.08.22-3.037,1.341-3.437.25-.337-.917,1.691-2.142,3.771-2.927" transform="translate(-1547.157 2078.509)" fill="#ffbe9d"/>
      <path id="path226" d="M1843.274-2024.675a7.343,7.343,0,0,1,4.879,7.308c-.137,2.117-1.241,4.273-4.594,5.494-8.163,2.972-25.864-9.093-25.864-9.093l-2.059-7.98a78.6,78.6,0,0,1,27.638,4.272" transform="translate(-1736.527 2078.527)" fill="#ffbe9d"/>
      <path id="path228" d="M2068.79-2210.631l-8.284,3.806,3.735,12.761a204.148,204.148,0,0,0-22.316-6.508l-1.41,17.56,33.19,7.6a9.845,9.845,0,0,0,12.254-11.02c-1.062-6.628-4.111-16.322-11.551-23.291a5.105,5.105,0,0,0-5.618-.908" transform="translate(-1948.411 2250.136)" fill="#fff"/>
      <path id="path230" d="M2490.519-1647.2a10.15,10.15,0,0,1-2.568-.332l-7.7-1.764a.078.078,0,0,1-.058-.092.077.077,0,0,1,.093-.058l7.7,1.764a9.756,9.756,0,0,0,10.041-3.214.077.077,0,0,1,.109-.009.077.077,0,0,1,.01.108,9.9,9.9,0,0,1-7.628,3.6" transform="translate(-2362.677 1722.334)" fill="#363e44"/>
      <path id="path232" d="M2260.5-2015.517l-.143-.051c-.052-.019-5.345-1.9-11.615-3.753a.078.078,0,0,1-.052-.1.079.079,0,0,1,.1-.052c5.7,1.682,10.595,3.393,11.48,3.706l-1.718-5.87a.077.077,0,0,1,.052-.1.077.077,0,0,1,.1.052l1.8,6.158" transform="translate(-2144.556 2071.713)" fill="#363e44"/>
      <path id="path234" d="M2404.152-2183.929a.077.077,0,0,1-.073-.053,5.313,5.313,0,0,1,1.833-5.963,11.262,11.262,0,0,1,3.154-1.893.078.078,0,0,1,.1.046.078.078,0,0,1-.046.1,11.051,11.051,0,0,0-3.108,1.866,5.11,5.11,0,0,0-1.785,5.8.077.077,0,0,1-.049.1.08.08,0,0,1-.024,0" transform="translate(-2290.688 2231.994)" fill="#363e44"/>
      <path id="path236" d="M496.365-1887.423l-2.6,5.089-43.2-5.089,22.9-18.093,22.9,18.093" transform="translate(-450.331 1962.213)" fill="#fc8019"/>
      <path id="path238" d="M496.365-1556.87H450.556v-33.859h45.809v33.859" transform="translate(-450.331 1665.617)" fill="#fc8019"/>
      <path id="path240" d="M496.365-1590.729H450.556l22.9,24.807Z" transform="translate(-450.331 1665.617)" fill="#9e6c5a"/>
      <path id="path242" d="M548.083-1916.4l17.269,19.246L582.62-1916.4v-16.2l-6.155-4.1-4.139-6.156H548.083v26.452" transform="translate(-542.222 1997.389)" fill="#fff"/>
      <path id="path244" d="M836.38-1691.2H824.17a.077.077,0,0,1-.077-.077.077.077,0,0,1,.077-.077H836.38a.077.077,0,0,1,.077.077.077.077,0,0,1-.077.077" transform="translate(-802.282 1760.429)" fill="#d87355"/>
      <path id="path246" d="M663.987-1691.2h-7a.077.077,0,0,1-.077-.077.077.077,0,0,1,.077-.077h7a.077.077,0,0,1,.077.077.077.077,0,0,1-.077.077" transform="translate(-644.762 1760.429)" fill="#d87355"/>
      <path id="path248" d="M935.407-1606.749h-6.137a.077.077,0,0,1-.077-.077.077.077,0,0,1,.077-.077h6.137a.077.077,0,0,1,.077.077.077.077,0,0,1-.077.077" transform="translate(-901.309 1680.856)" fill="#d87355"/>
      <path id="path250" d="M670.06-1606.749H656.989a.077.077,0,0,1-.077-.077.077.077,0,0,1,.077-.077H670.06a.077.077,0,0,1,.077.077.077.077,0,0,1-.077.077" transform="translate(-644.762 1680.856)" fill="#d87355"/>
      <path id="path252" d="M674.866-1522.3H656.989a.077.077,0,0,1-.077-.077.077.077,0,0,1,.077-.077h17.877a.077.077,0,0,1,.077.077.077.077,0,0,1-.077.077" transform="translate(-644.762 1601.283)" fill="#d87355"/>
      <path id="path254" d="M581.364-1917.576a.077.077,0,0,1-.077-.077v-16.156l-6.121-4.076a.073.073,0,0,1-.021-.021l-4.116-6.122H546.9v26.375a.077.077,0,0,1-.077.077.077.077,0,0,1-.077-.077V-1944.1a.077.077,0,0,1,.077-.077H571.07a.078.078,0,0,1,.064.034l4.13,6.143,6.142,4.09a.078.078,0,0,1,.034.064v16.2a.077.077,0,0,1-.077.077" transform="translate(-540.966 1998.645)" fill="#d87355"/>
      <path id="path256" d="M967.615-1933.638l10.424-.036-10.333-10.281Z" transform="translate(-937.511 1998.431)" fill="#ffbe9d"/>
      <path id="path258" d="M496.365-1409.282H450.556l22.9-24.807Z" transform="translate(-450.331 1518.03)" fill="#fc8019"/>
      <path id="path260" d="M496.065-1413.373a.076.076,0,0,1-.052-.021.077.077,0,0,1,0-.109l20.2-21.88a.079.079,0,0,1,.113,0l14.143,15.318a.077.077,0,0,1,0,.109.077.077,0,0,1-.109,0l-14.086-15.256-20.145,21.82a.077.077,0,0,1-.057.025" transform="translate(-493.138 1519.27)" fill="#fff"/>
      <path id="path268" d="M1785.648-582.6c0,1.774-4.54,3.211-10.14,3.211s-10.14-1.438-10.14-3.211,4.54-3.211,10.14-3.211,10.14,1.438,10.14,3.211" transform="translate(-1689.165 718.771)" fill="#e8e8e8"/>
      <path id="path270" d="M1785.648-582.29h-20.279V-585.6h20.279v3.308" transform="translate(-1689.165 718.57)" fill="#dadde1"/>
      <path id="path272" d="M1785.648-636.854c0,1.773-4.54,3.211-10.14,3.211s-10.14-1.438-10.14-3.211,4.54-3.211,10.14-3.211,10.14,1.437,10.14,3.211" transform="translate(-1689.165 769.889)" fill="#fc8019"/>
      <path id="path274" d="M1794.919-641.244a24.639,24.639,0,0,0-7.146.937c-1.853.586-2.916,1.387-2.916,2.2s1.063,1.61,2.916,2.2a24.666,24.666,0,0,0,7.146.937,24.663,24.663,0,0,0,7.146-.937c1.854-.587,2.916-1.388,2.916-2.2s-1.062-1.61-2.916-2.2A24.639,24.639,0,0,0,1794.919-641.244Zm0,6.421a24.819,24.819,0,0,1-7.193-.944c-1.95-.618-3.024-1.45-3.024-2.344s1.074-1.727,3.024-2.344a24.819,24.819,0,0,1,7.193-.944,24.824,24.824,0,0,1,7.193.944c1.949.617,3.023,1.449,3.023,2.344s-1.074,1.726-3.023,2.344a24.824,24.824,0,0,1-7.193.944" transform="translate(-1707.381 771.145)" fill="#fff"/>
      <path id="path276" d="M1798.274-673.028c0,1.773-4.54,3.211-10.14,3.211S1778-671.255,1778-673.028s4.539-3.211,10.139-3.211,10.14,1.437,10.14,3.211" transform="translate(-1701.062 803.972)" fill="#e8e8e8"/>
      <path id="path278" d="M1798.274-672.73H1778v-3.308h20.279v3.308" transform="translate(-1701.062 803.784)" fill="#dadde1"/>
      <path id="path280" d="M1798.274-727.294c0,1.773-4.54,3.211-10.14,3.211S1778-725.521,1778-727.294s4.539-3.211,10.139-3.211,10.14,1.438,10.14,3.211" transform="translate(-1701.062 855.103)" fill="#fc8019"/>
      <path id="path282" d="M1807.546-731.684a24.666,24.666,0,0,0-7.146.937c-1.854.586-2.916,1.388-2.916,2.2s1.063,1.61,2.916,2.2a24.666,24.666,0,0,0,7.146.937,24.666,24.666,0,0,0,7.146-.937c1.853-.587,2.916-1.388,2.916-2.2s-1.063-1.61-2.916-2.2A24.666,24.666,0,0,0,1807.546-731.684Zm0,6.421a24.824,24.824,0,0,1-7.193-.944c-1.949-.618-3.023-1.45-3.023-2.344s1.074-1.727,3.023-2.344a24.824,24.824,0,0,1,7.193-.944,24.819,24.819,0,0,1,7.193.944c1.95.617,3.024,1.45,3.024,2.344s-1.074,1.726-3.024,2.344a24.819,24.819,0,0,1-7.193.944" transform="translate(-1719.278 856.359)" fill="#fff"/>
      <path id="path284" d="M1476.983-555.828c0,1.774-4.54,3.211-10.14,3.211s-10.14-1.437-10.14-3.211,4.54-3.211,10.14-3.211,10.14,1.438,10.14,3.211" transform="translate(-1398.336 693.545)" fill="#e8e8e8"/>
      <path id="path286" d="M1476.983-555.518H1456.7v-3.308h20.279v3.308" transform="translate(-1398.336 693.344)" fill="#dadde1"/>
      <path id="path288" d="M1476.983-610.095c0,1.774-4.54,3.211-10.14,3.211s-10.14-1.437-10.14-3.211,4.54-3.211,10.14-3.211,10.14,1.438,10.14,3.211" transform="translate(-1398.336 744.676)" fill="#fc8019"/>
      <path id="path290" d="M1486.253-614.484a24.666,24.666,0,0,0-7.146.937c-1.853.587-2.916,1.388-2.916,2.2s1.063,1.61,2.916,2.2a24.668,24.668,0,0,0,7.146.936,24.667,24.667,0,0,0,7.146-.936c1.853-.587,2.916-1.388,2.916-2.2s-1.063-1.61-2.916-2.2A24.665,24.665,0,0,0,1486.253-614.484Zm0,6.421a24.825,24.825,0,0,1-7.193-.944c-1.949-.617-3.023-1.449-3.023-2.344s1.074-1.726,3.023-2.343a24.8,24.8,0,0,1,7.193-.945,24.8,24.8,0,0,1,7.193.945c1.949.617,3.023,1.449,3.023,2.343s-1.074,1.727-3.023,2.344a24.824,24.824,0,0,1-7.193.944" transform="translate(-1416.552 745.932)" fill="#fff"/>
      <path id="path292" d="M1513.156-646.423c0,1.768-4.54,3.2-10.14,3.2s-10.14-1.433-10.14-3.2,4.54-3.2,10.14-3.2,10.14,1.434,10.14,3.2" transform="translate(-1432.419 778.897)" fill="#e8e8e8"/>
      <path id="path294" d="M1513.156-646.113h-20.279v-3.3h20.279v3.3" transform="translate(-1432.419 778.696)" fill="#dadde1"/>
      <path id="path296" d="M1513.156-700.53c0,1.768-4.54,3.2-10.14,3.2s-10.14-1.434-10.14-3.2,4.54-3.2,10.14-3.2,10.14,1.433,10.14,3.2" transform="translate(-1432.419 829.876)" fill="#fc8019"/>
      <path id="path298" d="M1522.426-704.911a24.729,24.729,0,0,0-7.146.934c-1.853.586-2.916,1.384-2.916,2.19s1.063,1.606,2.916,2.191a24.725,24.725,0,0,0,7.146.935,24.724,24.724,0,0,0,7.146-.935c1.854-.585,2.916-1.384,2.916-2.191s-1.062-1.6-2.916-2.19A24.728,24.728,0,0,0,1522.426-704.911Zm0,6.4a24.877,24.877,0,0,1-7.193-.942c-1.95-.616-3.024-1.446-3.024-2.338s1.074-1.722,3.024-2.338a24.882,24.882,0,0,1,7.193-.941,24.888,24.888,0,0,1,7.193.941c1.949.616,3.023,1.446,3.023,2.338s-1.074,1.722-3.023,2.338a24.884,24.884,0,0,1-7.193.942" transform="translate(-1450.635 831.133)" fill="#fff"/>
      <path id="path300" d="M1832.755-763.467c0,1.773-4.54,3.211-10.14,3.211s-10.14-1.438-10.14-3.211,4.54-3.211,10.14-3.211,10.14,1.437,10.14,3.211" transform="translate(-1733.549 889.185)" fill="#e8e8e8"/>
      <path id="path302" d="M1832.755-763.157h-20.279v-3.308h20.279v3.308" transform="translate(-1733.549 888.985)" fill="#dadde1"/>
      <path id="path304" d="M1832.755-817.734c0,1.773-4.54,3.211-10.14,3.211s-10.14-1.438-10.14-3.211,4.54-3.211,10.14-3.211,10.14,1.438,10.14,3.211" transform="translate(-1733.549 940.316)" fill="#fc8019"/>
      <path id="path306" d="M1842.038-822.124a24.666,24.666,0,0,0-7.146.937c-1.853.586-2.916,1.388-2.916,2.2s1.063,1.61,2.916,2.2a24.666,24.666,0,0,0,7.146.937,24.667,24.667,0,0,0,7.147-.937c1.853-.586,2.916-1.388,2.916-2.2s-1.063-1.61-2.916-2.2A24.667,24.667,0,0,0,1842.038-822.124Zm0,6.421a24.819,24.819,0,0,1-7.193-.944c-1.95-.617-3.023-1.45-3.023-2.344s1.073-1.726,3.023-2.344a24.819,24.819,0,0,1,7.193-.944,24.825,24.825,0,0,1,7.193.944c1.95.618,3.023,1.45,3.023,2.344s-1.073,1.727-3.023,2.344a24.825,24.825,0,0,1-7.193.944" transform="translate(-1751.778 941.573)" fill="#fff"/>
      <path id="path308" d="M1795.382-843.894c0,1.773-4.54,3.211-10.14,3.211s-10.14-1.438-10.14-3.211,4.54-3.211,10.14-3.211,10.14,1.437,10.14,3.211" transform="translate(-1698.336 964.964)" fill="#e8e8e8"/>
      <path id="path310" d="M1795.382-843.6H1775.1V-846.9h20.279v3.308" transform="translate(-1698.336 964.776)" fill="#dadde1"/>
      <path id="path312" d="M1795.382-898.161c0,1.773-4.54,3.211-10.14,3.211s-10.14-1.438-10.14-3.211,4.54-3.211,10.14-3.211,10.14,1.438,10.14,3.211" transform="translate(-1698.336 1016.095)" fill="#fc8019"/>
      <path id="path314" d="M1804.666-902.55a24.666,24.666,0,0,0-7.147.937c-1.853.586-2.916,1.388-2.916,2.2s1.063,1.61,2.916,2.2a24.669,24.669,0,0,0,7.147.937,24.665,24.665,0,0,0,7.146-.937c1.853-.586,2.916-1.388,2.916-2.2s-1.063-1.61-2.916-2.2A24.663,24.663,0,0,0,1804.666-902.55Zm0,6.421a24.821,24.821,0,0,1-7.193-.944c-1.95-.617-3.023-1.45-3.023-2.344s1.073-1.727,3.023-2.344a24.823,24.823,0,0,1,7.193-.944,24.821,24.821,0,0,1,7.193.944c1.95.617,3.024,1.45,3.024,2.344s-1.074,1.727-3.024,2.344a24.819,24.819,0,0,1-7.193.944" transform="translate(-1716.565 1017.351)" fill="#fff"/>
      <path id="path316" d="M1445.383-870.989c-1.26,1.248-5.476-.965-9.417-4.943s-6.115-8.215-4.855-9.463,5.476.965,9.417,4.944,6.115,8.215,4.855,9.462" transform="translate(-1373.886 1001.371)" fill="#e8e8e8"/>
      <path id="path318" d="M1449.868-901.943,1435.6-916.349l2.35-2.328,14.272,14.407-2.35,2.328" transform="translate(-1378.449 1032.402)" fill="#dadde1"/>
      <path id="path320" d="M1483.942-909.175c-1.26,1.248-5.475-.965-9.416-4.943s-6.115-8.216-4.855-9.463,5.475.965,9.416,4.943,6.115,8.216,4.855,9.463" transform="translate(-1410.217 1037.35)" fill="#fc8019"/>
      <path id="path322" d="M1483.967-910.414a1.31,1.31,0,0,0-.955.322c-.575.57-.4,1.888.492,3.618a24.663,24.663,0,0,0,4.364,5.736,24.683,24.683,0,0,0,5.695,4.418c1.721.9,3.038,1.095,3.613.525s.4-1.888-.492-3.618a24.661,24.661,0,0,0-4.364-5.736,24.634,24.634,0,0,0-5.695-4.417A6.191,6.191,0,0,0,1483.967-910.414Zm12.252,15.1a6.321,6.321,0,0,1-2.728-.868,24.827,24.827,0,0,1-5.733-4.446,24.832,24.832,0,0,1-4.392-5.775c-.934-1.82-1.1-3.168-.463-3.8s1.983-.451,3.793.5a24.831,24.831,0,0,1,5.732,4.446,24.823,24.823,0,0,1,4.392,5.775c.934,1.82,1.1,3.168.463,3.8a1.457,1.457,0,0,1-1.065.37" transform="translate(-1422.664 1024.764)" fill="#fff"/>
      <path id="path324" d="M1833.167-936.361c0,1.773-4.539,3.211-10.139,3.211s-10.14-1.438-10.14-3.211,4.539-3.211,10.14-3.211,10.139,1.438,10.139,3.211" transform="translate(-1733.939 1052.088)" fill="#e8e8e8"/>
      <path id="path326" d="M1833.167-936.05h-20.279v-3.308h20.279v3.308" transform="translate(-1733.939 1051.886)" fill="#dadde1"/>
      <path id="path328" d="M1833.167-990.627c0,1.774-4.539,3.211-10.139,3.211s-10.14-1.437-10.14-3.211,4.539-3.211,10.14-3.211,10.139,1.438,10.139,3.211" transform="translate(-1733.939 1103.218)" fill="#fc8019"/>
      <path id="path330" d="M1842.439-995.017a24.663,24.663,0,0,0-7.146.937c-1.854.587-2.916,1.388-2.916,2.2s1.063,1.61,2.916,2.2a24.667,24.667,0,0,0,7.146.936,24.668,24.668,0,0,0,7.146-.936c1.853-.587,2.916-1.388,2.916-2.2s-1.063-1.61-2.916-2.2A24.664,24.664,0,0,0,1842.439-995.017Zm0,6.421a24.824,24.824,0,0,1-7.193-.944c-1.949-.617-3.023-1.449-3.023-2.344s1.074-1.726,3.023-2.343a24.8,24.8,0,0,1,7.193-.945,24.8,24.8,0,0,1,7.193.945c1.949.617,3.023,1.449,3.023,2.343s-1.074,1.727-3.023,2.344a24.83,24.83,0,0,1-7.193.944" transform="translate(-1752.155 1104.474)" fill="#fff"/>
      <path id="path332" d="M1890.008-1016.787c0,1.773-4.54,3.211-10.14,3.211s-10.14-1.438-10.14-3.211,4.54-3.211,10.14-3.211,10.14,1.438,10.14,3.211" transform="translate(-1787.494 1127.866)" fill="#e8e8e8"/>
      <path id="path334" d="M1890.008-1016.476h-20.279v-3.308h20.279v3.308" transform="translate(-1787.494 1127.665)" fill="#dadde1"/>
      <path id="path336" d="M1890.008-1071.053c0,1.774-4.54,3.211-10.14,3.211s-10.14-1.437-10.14-3.211,4.54-3.211,10.14-3.211,10.14,1.438,10.14,3.211" transform="translate(-1787.494 1178.997)" fill="#fc8019"/>
      <path id="path338" d="M1899.279-1075.443a24.665,24.665,0,0,0-7.146.937c-1.853.587-2.916,1.388-2.916,2.2s1.063,1.61,2.916,2.2a24.666,24.666,0,0,0,7.146.936,24.668,24.668,0,0,0,7.147-.936c1.853-.587,2.916-1.388,2.916-2.2s-1.063-1.609-2.916-2.2A24.666,24.666,0,0,0,1899.279-1075.443Zm0,6.421a24.822,24.822,0,0,1-7.193-.944c-1.95-.617-3.024-1.449-3.024-2.344s1.074-1.726,3.024-2.344a24.822,24.822,0,0,1,7.193-.944,24.824,24.824,0,0,1,7.193.944c1.95.618,3.023,1.45,3.023,2.344s-1.073,1.727-3.023,2.344a24.824,24.824,0,0,1-7.193.944" transform="translate(-1805.71 1180.253)" fill="#fff"/>
      <path id="Path_27539" data-name="Path 27539" d="M.34-6.23H2.25V0h.91V-6.23h1.9v-.74H.34Zm8.01-.74H6.18V0H8.35c2.29,0,3.7-1.31,3.7-3.47S10.64-6.97,8.35-6.97ZM7.09-.75V-6.23H8.35a2.514,2.514,0,0,1,2.77,2.76A2.485,2.485,0,0,1,8.35-.75ZM17.78-1.9c0-2.58-3.76-1.46-3.76-3.26,0-.75.59-1.14,1.34-1.12a1.262,1.262,0,0,1,1.35,1.01h1A2.085,2.085,0,0,0,15.4-7.06c-1.38,0-2.31.78-2.31,1.93,0,2.59,3.77,1.39,3.77,3.27,0,.66-.52,1.16-1.4,1.16a1.291,1.291,0,0,1-1.44-1.16h-.97C13.07-.71,14.06.07,15.46.07A2.088,2.088,0,0,0,17.78-1.9Z" transform="translate(9.701 64.724)" fill="#0e3746"/>
    </g>
  </g>
</svg>
