<svg xmlns="http://www.w3.org/2000/svg" xmlns:xlink="http://www.w3.org/1999/xlink" width="329.792" height="292.684" viewBox="0 0 329.792 292.684"><defs><filter id="Ellipse_114" width="283.497" height="283.497" x="8.2" y="9.187" filterUnits="userSpaceOnUse"><feOffset dx="6" dy="6" input="SourceAlpha"/><feGaussianBlur result="blur" stdDeviation="6"/><feFlood flood-opacity=".122"/><feComposite in2="blur" operator="in"/><feComposite in="SourceGraphic"/></filter></defs><g id="blue" transform="translate(-220.058 -4723.071)"><g filter="url(#Ellipse_114)" transform="matrix(1, 0, 0, 1, 220.06, 4723.07)"><circle id="Ellipse_114-2" cx="123.748" cy="123.748" r="123.748" fill="#01355d" data-name="Ellipse 114" transform="translate(20.2 21.19)"/></g><g id="Group_931" data-name="Group 931" transform="translate(220.058 4723.071)"><path id="Path_3329" fill="#01355d" d="M651.5,363.356a1.734,1.734,0,0,0-1.916,1.539c-.23,2.124-.511,4.27-.837,6.376a1.734,1.734,0,0,0,1.448,1.985,1.931,1.931,0,0,0,.269.022A1.734,1.734,0,0,0,652.2,371.8c.338-2.167.629-4.356.867-6.536a1.734,1.734,0,0,0-1.565-1.911Z" data-name="Path 3329" transform="translate(-367.525 -205.828)"/><path id="Path_3330" fill="#01355d" d="M263.748,645.483c-4.209-.65-8.439-1.5-12.57-2.531a1.736,1.736,0,0,0-.845,3.368c4.235,1.058,8.569,1.933,12.882,2.6a1.863,1.863,0,0,0,.269,0,1.739,1.739,0,1,0,.26-3.468Z" data-name="Path 3330" transform="translate(-141.071 -364.206)"/><path id="Path_3331" fill="#01355d" d="M206.916,628.013c-4.018-1.413-8.015-3.034-11.885-4.811a1.737,1.737,0,0,0-1.452,3.156c3.97,1.825,8.067,3.468,12.185,4.933a1.8,1.8,0,0,0,.576.1,1.734,1.734,0,0,0,.577-3.377Z" data-name="Path 3331" transform="translate(-109.089 -352.957)"/><path id="Path_3332" fill="#01355d" d="M322.835,652.181c-4.239.126-8.582.061-12.822-.2a1.737,1.737,0,0,0-.208,3.468c2.882.178,5.821.264,8.725.264,1.469,0,2.952-.022,4.413-.065a1.735,1.735,0,0,0-.108-3.468Z" data-name="Path 3332" transform="translate(-174.584 -369.353)"/><path id="Path_3333" fill="#01355d" d="M154.312,600.328c-3.684-2.128-7.317-4.456-10.793-6.935a1.737,1.737,0,0,0-2.007,2.835c3.563,2.523,7.286,4.911,11.066,7.091a1.7,1.7,0,0,0,.867.234,1.734,1.734,0,0,0,.867-3.242Z" data-name="Path 3333" transform="translate(-79.748 -335.978)"/><path id="Path_3334" fill="#01355d" d="M32.642,456.06a1.736,1.736,0,0,0-3.195,1.361c1.695,4.014,3.628,7.984,5.687,11.842a1.734,1.734,0,0,0,3.034-1.651C36.166,463.862,34.3,459.978,32.642,456.06Z" data-name="Path 3334" transform="translate(-16.596 -257.756)"/><path id="Path_3335" fill="#01355d" d="M98.266,554.733a1.735,1.735,0,0,0-2.488,2.419c3.034,3.13,6.263,6.159,9.579,8.994a1.735,1.735,0,0,0,2.258-2.635C104.382,560.741,101.231,557.784,98.266,554.733Z" data-name="Path 3335" transform="translate(-53.976 -313.959)"/><path id="Path_3336" fill="#01355d" d="M60.841,508.428a1.737,1.737,0,1,0-2.891,1.925c2.414,3.632,5.032,7.2,7.776,10.594a1.734,1.734,0,1,0,2.7-2.167C65.769,515.45,63.216,511.973,60.841,508.428Z" data-name="Path 3336" transform="translate(-32.657 -287.584)"/><path id="Path_3337" fill="#01355d" d="M14.511,399.386a1.737,1.737,0,1,0-3.394.746c.936,4.261,2.085,8.53,3.416,12.687a1.734,1.734,0,0,0,1.647,1.231,1.7,1.7,0,0,0,.529-.082,1.734,1.734,0,0,0,1.127-2.167C16.539,407.708,15.421,403.543,14.511,399.386Z" data-name="Path 3337" transform="translate(-6.266 -225.473)"/><path id="Path_3338" fill="#01355d" d="M585.083,516.128a1.734,1.734,0,0,0-2.423.433c-2.466,3.468-5.123,6.87-7.9,10.1a1.737,1.737,0,1,0,2.635,2.263c2.844-3.307,5.566-6.792,8.1-10.351a1.734,1.734,0,0,0-.412-2.445Z" data-name="Path 3338" transform="translate(-325.381 -292.207)"/><path id="Path_3339" fill="#01355d" d="M617.454,464.193a1.734,1.734,0,0,0-2.306.867c-1.786,3.862-3.775,7.69-5.912,11.378a1.734,1.734,0,1,0,3,1.734c2.193-3.78,4.231-7.7,6.068-11.664a1.734,1.734,0,0,0-.854-2.315Z" data-name="Path 3339" transform="translate(-345.017 -262.872)"/><path id="Path_3340" fill="#01355d" d="M640.015,407.651a1.734,1.734,0,0,0-2.107,1.261c-1.045,4.131-2.289,8.262-3.71,12.276a1.734,1.734,0,0,0,1.058,2.219,1.8,1.8,0,0,0,.581.1,1.734,1.734,0,0,0,1.634-1.162c1.456-4.114,2.735-8.348,3.806-12.57a1.734,1.734,0,0,0-1.261-2.124Z" data-name="Path 3340" transform="translate(-359.234 -230.899)"/><path id="Path_3341" fill="#01355d" d="M382.123,645.216c-4.157.906-8.409,1.625-12.64,2.167a1.737,1.737,0,1,0,.433,3.446c4.335-.529,8.7-1.27,12.956-2.2a1.736,1.736,0,1,0-.737-3.394Z" data-name="Path 3341" transform="translate(-208.458 -365.509)"/><path id="Path_3342" fill="#01355d" d="M541.535,561.689c-3.06,2.965-6.294,5.817-9.61,8.487a1.734,1.734,0,1,0,2.167,2.7c3.4-2.731,6.71-5.661,9.848-8.7a1.737,1.737,0,1,0-2.419-2.492Z" data-name="Path 3342" transform="translate(-300.957 -317.92)"/><path id="Path_3343" fill="#01355d" d="M439.641,627.169c-3.9,1.66-7.967,3.156-12.024,4.443a1.738,1.738,0,0,0,1.053,3.312c4.161-1.3,8.309-2.857,12.328-4.556a1.737,1.737,0,1,0-1.357-3.2Z" data-name="Path 3343" transform="translate(-241.568 -355.216)"/><path id="Path_3344" fill="#01355d" d="M493.426,598.991c-3.55,2.358-7.252,4.573-11,6.589a1.734,1.734,0,0,0,.824,3.264,1.7,1.7,0,0,0,.819-.208c3.84-2.063,7.633-4.335,11.27-6.749a1.737,1.737,0,1,0-1.92-2.9Z" data-name="Path 3344" transform="translate(-272.787 -339.167)"/><path id="Path_3345" fill="#01355d" d="M8.622,361.312c-.264-2.12-.477-4.27-.642-6.4a1.739,1.739,0,1,0-3.468.264c.165,2.167.386,4.4.655,6.563a1.747,1.747,0,1,0,3.468-.434Z" data-name="Path 3345" transform="translate(-2.545 -200.138)"/><path id="Path_3346" fill="#01355d" d="M329.772,144.311,297.206,112.4v28.261h-9.4A143.926,143.926,0,0,0-.011,143.9a3.26,3.26,0,1,0,6.5,0C6.491,68.127,68.133,6.494,143.9,6.494S281.3,68.136,281.3,143.9a3.26,3.26,0,0,0,3.255,3.26h12.614V176.2Z" data-name="Path 3346" transform="translate(0.02 0.053)"/></g></g></svg>