<svg xmlns="http://www.w3.org/2000/svg" xmlns:xlink="http://www.w3.org/1999/xlink" width="325.715" height="292.131" viewBox="0 0 325.715 292.131"><defs><filter id="Path_3310" width="279.122" height="283.504" x="7.934" y="8.626" filterUnits="userSpaceOnUse"><feOffset dx="6" dy="6" input="SourceAlpha"/><feGaussianBlur result="blur" stdDeviation="6"/><feFlood flood-opacity=".122"/><feComposite in2="blur" operator="in"/><feComposite in="SourceGraphic"/></filter></defs><g id="Group_1170" data-name="Group 1170" transform="translate(-14398.066 -2454.274)"><g filter="url(#Path_3310)" transform="matrix(1, 0, 0, 1, 14398.07, 2454.27)"><path id="Path_3310-2" fill="#01355d" d="M1584.489,48a123.8,123.8,0,0,0-119.14,90.181l35.336,33.571-35.574,32.683A123.757,123.757,0,1,0,1584.489,48Z" data-name="Path 3310" transform="translate(-1445.18 -27.37)"/></g><g id="Group_933" data-name="Group 933" transform="translate(14398.067 2454.274)"><path id="Path_3364" fill="#01355d" d="M1716.7,651.793c-4.278-.087-8.6-.373-12.83-.867a1.744,1.744,0,1,0-.386,3.468c4.334.486,8.76.78,13.147.867h.039a1.734,1.734,0,1,0,.031-3.468Z" data-name="Path 3364" transform="translate(-1579.217 -368.951)"/><path id="Path_3365" fill="#01355d" d="M1776.219,648.685c-4.209.694-8.5,1.2-12.774,1.5a1.735,1.735,0,1,0,.125,3.468h.121c4.374-.312,8.778-.828,13.091-1.543a1.735,1.735,0,0,0-.563-3.424Z" data-name="Path 3365" transform="translate(-1613.12 -367.677)"/><path id="Path_3366" fill="#01355d" d="M1550.6,591.038c-3.58-2.328-7.091-4.85-10.446-7.5a1.74,1.74,0,1,0-2.167,2.722c3.437,2.718,7.039,5.306,10.706,7.694a1.737,1.737,0,1,0,1.894-2.913Z" data-name="Path 3366" transform="translate(-1485.962 -330.562)"/><path id="Path_3367" fill="#01355d" d="M1601.851,621.541c-3.945-1.63-7.863-3.468-11.647-5.453a1.736,1.736,0,0,0-1.617,3.073c3.9,2.042,7.9,3.9,11.942,5.592a1.783,1.783,0,0,0,.663.13,1.734,1.734,0,0,0,.659-3.342Z" data-name="Path 3367" transform="translate(-1514.477 -349.107)"/><path id="Path_3368" fill="#01355d" d="M1436.6,440a1.735,1.735,0,1,0-3.264,1.179c1.487,4.118,3.186,8.21,5.05,12.172a1.737,1.737,0,0,0,3.143-1.482C1439.706,448.021,1438.046,444.016,1436.6,440Z" data-name="Path 3368" transform="translate(-1426.987 -248.81)"/><path id="Path_3369" fill="#01355d" d="M1462.006,493.983a1.736,1.736,0,0,0-2.991,1.764c2.224,3.767,4.651,7.477,7.213,11.027a1.737,1.737,0,0,0,2.817-2.033C1466.544,501.278,1464.177,497.659,1462.006,493.983Z" data-name="Path 3369" transform="translate(-1441.458 -279.558)"/><path id="Path_3370" fill="#01355d" d="M1497.043,542.468a1.734,1.734,0,0,0-2.6,2.284c2.878,3.294,5.943,6.5,9.1,9.536a1.737,1.737,0,1,0,2.4-2.514C1502.843,548.81,1499.852,545.684,1497.043,542.468Z" data-name="Path 3370" transform="translate(-1461.459 -307.22)"/><path id="Path_3371" fill="#01355d" d="M1657.858,642.043c-4.183-.867-8.374-1.942-12.458-3.195a1.737,1.737,0,1,0-1.023,3.32c4.187,1.3,8.487,2.384,12.774,3.277a2.023,2.023,0,0,0,.356.035,1.734,1.734,0,0,0,.351-3.437Z" data-name="Path 3371" transform="translate(-1545.916 -362.071)"/><path id="Path_3372" fill="#01355d" d="M2045.737,423.061a1.734,1.734,0,0,0-2.167,1.162c-1.235,4.083-2.679,8.162-4.3,12.137a1.737,1.737,0,0,0,3.221,1.3c1.652-4.057,3.134-8.236,4.4-12.427a1.734,1.734,0,0,0-1.157-2.172Z" data-name="Path 3372" transform="translate(-1770.264 -239.819)"/><path id="Path_3373" fill="#01355d" d="M2020.4,478.743a1.734,1.734,0,0,0-2.341.737c-.628,1.205-1.3,2.419-1.946,3.611l-1.569,2.549c-.971,1.647-1.99,3.3-3.034,4.911a1.734,1.734,0,0,0,.52,2.4,1.7,1.7,0,0,0,.94.282,1.734,1.734,0,0,0,1.461-.8c1.066-1.651,2.111-3.346,3.091-5.006l1.569-2.553.035-.061c.689-1.231,1.365-2.484,2.016-3.728a1.734,1.734,0,0,0-.741-2.345Z" data-name="Path 3373" transform="translate(-1754.447 -271.296)"/><path id="Path_3374" fill="#01355d" d="M2060.453,364.176a1.734,1.734,0,0,0-1.916,1.543c-.46,4.252-1.123,8.526-1.972,12.709a1.733,1.733,0,0,0,1.356,2.046,1.6,1.6,0,0,0,.347.035,1.733,1.733,0,0,0,1.7-1.391c.867-4.283,1.552-8.669,2.024-13.025a1.734,1.734,0,0,0-1.538-1.916Z" data-name="Path 3374" transform="translate(-1780.112 -206.495)"/><path id="Path_3375" fill="#01355d" d="M1834.657,633.531c-4.01,1.461-8.132,2.752-12.262,3.836a1.735,1.735,0,1,0,.867,3.359c4.235-1.11,8.466-2.436,12.57-3.931a1.737,1.737,0,1,0-1.192-3.264Z" data-name="Path 3375" transform="translate(-1646.721 -359.042)"/><path id="Path_3376" fill="#01355d" d="M1985.463,529.251a1.734,1.734,0,0,0-2.44.29c-2.64,3.359-5.466,6.632-8.4,9.736a1.737,1.737,0,0,0,2.523,2.388c3.008-3.182,5.908-6.537,8.613-9.97a1.734,1.734,0,0,0-.29-2.445Z" data-name="Path 3376" transform="translate(-1733.436 -299.811)"/><path id="Path_3377" fill="#01355d" d="M1889.8,607.98c-3.671,2.167-7.49,4.218-11.344,6.068a1.736,1.736,0,0,0,1.487,3.138c3.953-1.877,7.867-3.962,11.63-6.194A1.738,1.738,0,0,0,1889.8,608Z" data-name="Path 3377" transform="translate(-1678.661 -344.501)"/><path id="Path_3378" fill="#01355d" d="M1939.788,572.883c-3.208,2.813-6.584,5.518-10.043,8.028a1.736,1.736,0,1,0,2.042,2.809c3.542-2.57,7-5.34,10.295-8.236a1.734,1.734,0,1,0-2.293-2.6Z" data-name="Path 3378" transform="translate(-1707.873 -324.497)"/><path id="Path_3379" fill="#01355d" d="M1744.541,144.576l-32.566-31.916v28.608h-8.955a142.93,142.93,0,0,0-18.869-68.17,2.982,2.982,0,0,0-.247-.537,143.973,143.973,0,0,0-264.9,38.768,3.251,3.251,0,0,0,.867,3.065l30.238,29.77L1419.8,174a3.257,3.257,0,0,0,4.569,4.642l32.678-32.15a3.259,3.259,0,0,0,0-4.642l-31.283-30.775A136.793,136.793,0,0,1,1558.089,6.962a3.213,3.213,0,0,0,1.027.169c75.773,0,137.406,61.642,137.406,137.406a3.26,3.26,0,0,0,3.255,3.26h12.176v28.695Z" data-name="Path 3379" transform="translate(-1418.827 -0.415)"/></g></g></svg>