<svg xmlns="http://www.w3.org/2000/svg" width="55.112" height="55.043" viewBox="0 0 55.112 55.043"><defs><style>.a{fill:#01355d;}</style></defs><g transform="translate(0 -0.322)"><path class="a" d="M40.166,2.453,8.364.326A1.886,1.886,0,0,0,6.359,2.08L6.11,5.8H1.884A1.886,1.886,0,0,0,0,7.684v45.8a1.886,1.886,0,0,0,1.884,1.884H26.226a.816.816,0,0,0,.57-.235l3.675-3.658a.8.8,0,0,0,.115.017l6.274.42a1.931,1.931,0,0,0,2.005-1.754l3.056-45.7a1.9,1.9,0,0,0-1.754-2.005ZM27.033,52.6V47a.269.269,0,0,1,.269-.269h5.587Zm10.219-2.557a.269.269,0,0,1-.286.25l-4.982-.333,3.418-3.4a.807.807,0,0,0,.238-.572V7.684A1.886,1.886,0,0,0,33.756,5.8h-8.4a.808.808,0,0,0,0,1.615h8.4a.269.269,0,0,1,.269.269V45.112H27.3A1.886,1.886,0,0,0,25.419,47V53.75H1.884a.269.269,0,0,1-.269-.269V7.684a.269.269,0,0,1,.269-.269H21.062a.808.808,0,0,0,0-1.615H7.729L7.97,2.188a.269.269,0,0,1,.286-.25l31.8,2.127a.269.269,0,0,1,.251.286Z"/><path class="a" d="M78.6,237.047H56.581a.807.807,0,0,0,0,1.615H78.6a.807.807,0,1,0,0-1.615Z" transform="translate(-49.77 -211.243)"/><path class="a" d="M78.6,289.332H56.581a.807.807,0,0,0,0,1.615H78.6a.807.807,0,0,0,0-1.615Z" transform="translate(-49.77 -257.9)"/><path class="a" d="M55.774,185.569a.807.807,0,0,0,.807.807H78.6a.807.807,0,0,0,0-1.615H56.581A.807.807,0,0,0,55.774,185.569Z" transform="translate(-49.77 -164.586)"/><path class="a" d="M91.807,133.284a.807.807,0,0,0,.807.807h14.261a.807.807,0,1,0,0-1.615H92.614A.807.807,0,0,0,91.807,133.284Z" transform="translate(-81.925 -117.93)"/><path class="a" d="M68.581,392.459l-4.356.009-1.464,0c-.884,0-1.48-.177-1.678-1.15-.167-.822-1.331-.712-1.557,0-.559,1.759-1.483,1.07-2-.113a16.562,16.562,0,0,1-.874-3.757c-.166-.923-1.561-.664-1.586.215a15.043,15.043,0,0,1-.434,3.418,27.43,27.43,0,0,1-1.208,3.377c-.393.965,1.17,1.38,1.557.429a31.168,31.168,0,0,0,1.1-2.983c.553,1.33,1.7,2.835,3.329,1.948a3.252,3.252,0,0,0,.836-.673c.848.98,2.111.9,3.292.9q2.523,0,5.046-.01A.808.808,0,0,0,68.581,392.459Z" transform="translate(-47.617 -344.94)"/><path class="a" d="M411.011,182.28a2.322,2.322,0,0,0-1.582-.647l-.61,0v-1.154a2.235,2.235,0,0,0-1.015-1.815v-1.625c0-3.344-5.207-3.33-5.207.016v1.625a2.134,2.134,0,0,0-1.018,1.814v1.182c-2.687.183-2.7,4.278,0,4.438.017,3.614.016,7.169,0,10.843a.808.808,0,0,0,1.615.009c.019-3.678.02-7.236,0-10.853l4.005-.02s-.005,11.932-.005,17.307a2,2,0,0,1-4.006-.027V201.9a.808.808,0,0,0-1.612-.1v1.381a3.965,3.965,0,0,0,1.075,2.892,6.751,6.751,0,0,0,1.977,4.516.856.856,0,0,0,1.156-.02,6.657,6.657,0,0,0,1.956-4.565,3.332,3.332,0,0,0,1.066-2.9v-7.357a2.262,2.262,0,0,0,2.852-2.147v-9.76a2.2,2.2,0,0,0-.653-1.572Zm-7.817-.616V180.5a.518.518,0,0,1,.385-.5l3.232-.016a.509.509,0,0,1,.394.5v1.162Zm2.01-5.6a1.051,1.051,0,0,1,.985.975v1.31l-1.978.01v-1.3A1,1,0,0,1,405.2,176.066Zm0,32.712a5.15,5.15,0,0,1-.8-1.766,3.511,3.511,0,0,0,1.6-.021A5.035,5.035,0,0,1,405.2,208.779Zm4.847-15.167a.617.617,0,0,1-1.233.014s0-7.64,0-8.34a.814.814,0,0,0-.814-.808l-6.285.031a.613.613,0,0,1,.008-1.223l7.709-.038a.605.605,0,0,1,.612.6v9.76Z" transform="translate(-356.552 -155.466)"/></g></svg>