<svg xmlns="http://www.w3.org/2000/svg" width="147.962" height="147.993" viewBox="0 0 147.962 147.993"><path id="customer-service" fill="#fff" d="M151.6,73.6l-7.437-5.218a65.65,65.65,0,0,0-131.25.006L5.49,73.6a2.181,2.181,0,0,0-.927,1.784V98.549a2.177,2.177,0,0,0,.917,1.772l8.322,5.947a2.181,2.181,0,0,0,1.262.41h8.287A2.179,2.179,0,0,0,25.53,104.5V69.679c0-.03.01-.06.011-.091a53,53,0,1,1,106,0,.89.89,0,0,0,.017.238V104.5a2.179,2.179,0,0,0,2.178,2.178H135.7v2.509a13.885,13.885,0,0,1-11.762,13.692,49.319,49.319,0,0,0,4.2-19.952V71a49.607,49.607,0,0,0-99.215,0v31.925a49.591,49.591,0,0,0,92.723,24.487h.174a18.252,18.252,0,0,0,18.232-18.232v-2.506h1.965a2.181,2.181,0,0,0,1.267-.406l8.322-5.947a2.177,2.177,0,0,0,.912-1.772V75.384A2.181,2.181,0,0,0,151.6,73.6ZM78.534,25.753A45.307,45.307,0,0,1,123.785,71v11.73a45.429,45.429,0,0,1-4.546.256,45.022,45.022,0,0,1-38.821-22.4,2.178,2.178,0,0,0-3.769,0,45.022,45.022,0,0,1-38.821,22.4,45.432,45.432,0,0,1-4.546-.256V71A45.307,45.307,0,0,1,78.535,25.753Zm0,122.427a45.307,45.307,0,0,1-45.25-45.251V87.113c1.511.138,3.028.234,4.546.234a49.4,49.4,0,0,0,40.7-21.577,49.4,49.4,0,0,0,40.714,21.577c1.517,0,3.035-.1,4.546-.234v15.816a44.968,44.968,0,0,1-4.745,20.13H98.615a7.106,7.106,0,0,0-6.752-4.918H83.234a7.095,7.095,0,1,0,0,14.189h8.628a7.107,7.107,0,0,0,6.751-4.919h17.945A45.238,45.238,0,0,1,78.535,148.18ZM94.59,125.371a2.738,2.738,0,0,1-2.727,2.608H83.234a2.738,2.738,0,0,1,0-5.477h8.628a2.738,2.738,0,0,1,2.727,2.608c0,.045-.014.087-.014.132S94.587,125.326,94.59,125.371ZM21.173,102.321H15.763L8.917,97.432V76.521l6.832-4.793h5.422Zm57.362-89A57.69,57.69,0,0,0,21.269,67.367H17.286a61.314,61.314,0,0,1,122.494,0H135.8A57.692,57.692,0,0,0,78.535,13.316Zm69.633,84.113-6.846,4.889h-5.411v-30.6h5.422l6.832,4.793Z" transform="translate(-4.563 -4.547)"/></svg>