<svg xmlns="http://www.w3.org/2000/svg" width="56.175" height="51.333" viewBox="0 0 56.175 51.333"><g id="faq" transform="translate(0 -22.066)"><g id="Group_937" data-name="Group 937" transform="translate(0 22.066)"><g id="Group_936" data-name="Group 936" transform="translate(0 0)"><path id="Path_3397" fill="#01355d" d="M48.038,22.068H37.115a1.1,1.1,0,1,0,0,2.2H48.038A5.945,5.945,0,0,1,53.975,30.2V48.678a5.945,5.945,0,0,1-5.938,5.938H41.59a1.1,1.1,0,0,0-.775.319l-4.433,4.4V55.715a1.1,1.1,0,0,0-1.1-1.1H18.129a5.945,5.945,0,0,1-5.938-5.938V30.2a5.945,5.945,0,0,1,5.938-5.938H28.611a1.1,1.1,0,1,0,0-2.2H18.129A8.146,8.146,0,0,0,9.992,30.2v1.083H8.137A8.146,8.146,0,0,0,0,39.425V59a8.146,8.146,0,0,0,8.137,8.137h5.994l5.986,5.948a1.1,1.1,0,0,0,1.875-.78V67.133H38.046A8.146,8.146,0,0,0,46.183,59V56.815h1.855a8.146,8.146,0,0,0,8.137-8.137V30.2A8.147,8.147,0,0,0,48.038,22.068ZM43.984,59a5.945,5.945,0,0,1-5.938,5.938H20.892a1.1,1.1,0,0,0-1.1,1.1v3.625l-4.433-4.4a1.1,1.1,0,0,0-.775-.319H8.137a5.954,5.954,0,0,1-.66-.038V58.352a1.1,1.1,0,1,0-2.2,0V64.2A5.942,5.942,0,0,1,2.2,59V39.425a5.945,5.945,0,0,1,5.938-5.938H9.992V48.678a8.146,8.146,0,0,0,8.137,8.137H34.183v5.168a1.1,1.1,0,0,0,1.875.78l5.986-5.948h1.94V59Z" data-name="Path 3397" transform="translate(0 -22.068)"/></g></g><g id="Group_939" data-name="Group 939" transform="translate(31.983 22.066)"><g id="Group_938" data-name="Group 938" transform="translate(0 0)"><path id="Path_3398" fill="#01355d" d="M293.389,22.388a1.1,1.1,0,1,0,.322.777A1.106,1.106,0,0,0,293.389,22.388Z" data-name="Path 3398" transform="translate(-291.512 -22.066)"/></g></g><g id="Group_941" data-name="Group 941" transform="translate(25.523 32.146)"><g id="Group_940" data-name="Group 940" transform="translate(0 0)"><path id="Path_3399" fill="#01355d" d="M243.979,126.969l-4.611-12.315a1.1,1.1,0,0,0-2.06,0L232.7,126.969a1.1,1.1,0,1,0,2.06.771l1.626-4.344h3.909l1.627,4.344a1.1,1.1,0,1,0,2.059-.771Zm-6.772-5.772,1.131-3.022,1.131,3.022Z" data-name="Path 3399" transform="translate(-232.627 -113.94)"/></g></g><g id="Group_943" data-name="Group 943" transform="translate(39.144 32.146)"><g id="Group_942" data-name="Group 942" transform="translate(0 0)"><path id="Path_3400" fill="#01355d" d="M365.652,126.578l-.515-.516a4.4,4.4,0,0,0,.5-2.035v-5.658h0a4.428,4.428,0,1,0-8.856,0v5.658a4.426,4.426,0,0,0,6.891,3.678l.427.428a1.1,1.1,0,1,0,1.556-1.554Zm-2.217-2.552a2.232,2.232,0,0,1-.024.307l-.748-.75a1.1,1.1,0,1,0-1.556,1.554l.948.949a2.227,2.227,0,0,1-3.077-2.06v-5.658a2.229,2.229,0,1,1,4.458,0v5.658Z" data-name="Path 3400" transform="translate(-356.778 -113.94)"/></g></g><g id="Group_945" data-name="Group 945" transform="translate(16.947 32.146)"><g id="Group_944" data-name="Group 944"><path id="Path_3401" fill="#01355d" d="M160.451,121.2h-3.791v-4.563a.494.494,0,0,1,.492-.5h3.3a1.1,1.1,0,1,0,0-2.2h-3.3a2.7,2.7,0,0,0-2.691,2.695v10.72a1.1,1.1,0,1,0,2.2,0V123.4h3.791a1.1,1.1,0,0,0,0-2.2Z" data-name="Path 3401" transform="translate(-154.46 -113.939)"/></g></g><g id="Group_947" data-name="Group 947" transform="translate(5.278 53.127)"><g id="Group_946" data-name="Group 946"><path id="Path_3402" fill="#01355d" d="M49.982,305.493a1.1,1.1,0,1,0,.322.777A1.108,1.108,0,0,0,49.982,305.493Z" data-name="Path 3402" transform="translate(-48.105 -305.171)"/></g></g></g></svg>