<svg xmlns="http://www.w3.org/2000/svg" width="44.396" height="43" viewBox="0 0 44.396 43">
  <g id="Group_887" data-name="Group 887" transform="translate(-244 -607.104)">
    <circle id="Ellipse_108" data-name="Ellipse 108" cx="21.5" cy="21.5" r="21.5" transform="translate(244 607.104)" fill="#01355d"/>
    <path id="Icon_awesome-arrow-left" data-name="Icon awesome-arrow-left" d="M16.458,28.689l-1.419,1.419a1.528,1.528,0,0,1-2.167,0L.447,17.69a1.528,1.528,0,0,1,0-2.167L12.872,3.1a1.528,1.528,0,0,1,2.167,0l1.419,1.419a1.536,1.536,0,0,1-.026,2.192l-7.7,7.337h24.26a1.53,1.53,0,0,1,1.534,1.534v2.045a1.53,1.53,0,0,1-1.534,1.534H8.73l7.7,7.337A1.525,1.525,0,0,1,16.458,28.689Z" transform="translate(253.871 612.457)" fill="#fff"/>
  </g>
</svg>
