<svg xmlns="http://www.w3.org/2000/svg" xmlns:xlink="http://www.w3.org/1999/xlink" width="289.474" height="292.288" viewBox="0 0 289.474 292.288"><defs><filter id="Path_3312" width="280.119" height="283.487" x="9.354" y="8.801" filterUnits="userSpaceOnUse"><feOffset dx="6" dy="6" input="SourceAlpha"/><feGaussianBlur result="blur" stdDeviation="6"/><feFlood flood-opacity=".122"/><feComposite in2="blur" operator="in"/><feComposite in="SourceGraphic"/></filter></defs><g id="Group_1799" data-name="Group 1799" transform="translate(-13501.646 -2754.099)"><g filter="url(#Path_3312)" transform="matrix(1, 0, 0, 1, 13501.65, 2754.1)"><path id="Path_3312-2" fill="#01355d" d="M2998.671,48a123.793,123.793,0,0,0-120.176,94.147l31.161,29.605L2878.3,200.56A123.759,123.759,0,1,0,2998.671,48Z" data-name="Path 3312" transform="translate(-2856.94 -27.2)"/></g><g id="Group_930" data-name="Group 930" transform="translate(13501.646 2754.099)"><path id="Path_3313" fill="#01355d" d="M3110.691,147.383a3.255,3.255,0,0,0,3.255-3.255,143.087,143.087,0,0,0-18.9-71.408,2.976,2.976,0,0,0-.251-.555,143.973,143.973,0,0,0-264.9,38.768,3.256,3.256,0,0,0,.867,3.065l30.234,29.77-30.264,29.818a3.257,3.257,0,1,0,4.568,4.642l32.644-32.145a3.246,3.246,0,0,0,0-4.638l-31.278-30.8A136.8,136.8,0,0,1,2968.985,6.535a3.254,3.254,0,0,0,1.032.169c75.772,0,137.406,61.646,137.406,137.406a3.255,3.255,0,0,0,3.268,3.273Z" data-name="Path 3313" transform="translate(-2829.757 -0.012)"/><path id="Path_3314" fill="#01355d" d="M3018.7,621.127c-3.944-1.625-7.863-3.468-11.646-5.449a1.736,1.736,0,0,0-1.617,3.073c3.875,2.042,7.893,3.9,11.942,5.587a1.685,1.685,0,0,0,.659.13,1.734,1.734,0,0,0,.663-3.342Z" data-name="Path 3314" transform="translate(-2928.761 -348.7)"/><path id="Path_3315" fill="#01355d" d="M3074.706,641.624c-4.183-.867-8.379-1.942-12.462-3.195a1.737,1.737,0,1,0-1.019,3.32c4.187,1.3,8.483,2.388,12.774,3.277a1.645,1.645,0,0,0,.355.039,1.734,1.734,0,0,0,.351-3.442Z" data-name="Path 3315" transform="translate(-2960.198 -361.659)"/><path id="Path_3316" fill="#01355d" d="M3133.518,651.4c-4.278-.087-8.6-.368-12.831-.845a1.744,1.744,0,1,0-.386,3.468c4.334.485,8.76.776,13.147.867h.035a1.734,1.734,0,1,0,.035-3.468Z" data-name="Path 3316" transform="translate(-2993.484 -368.567)"/><path id="Path_3317" fill="#01355d" d="M2967.439,590.619c-3.576-2.323-7.091-4.85-10.442-7.5a1.742,1.742,0,0,0-2.167,2.726c3.438,2.718,7.039,5.306,10.7,7.69a1.737,1.737,0,1,0,1.894-2.913Z" data-name="Path 3317" transform="translate(-2900.243 -330.151)"/><path id="Path_3318" fill="#01355d" d="M2853.432,439.581a1.738,1.738,0,1,0-3.268,1.183c1.491,4.114,3.19,8.21,5.054,12.167a1.736,1.736,0,1,0,3.143-1.478C2856.536,447.591,2854.884,443.6,2853.432,439.581Z" data-name="Path 3318" transform="translate(-2841.259 -248.397)"/><path id="Path_3319" fill="#01355d" d="M2913.893,542.048a1.734,1.734,0,0,0-2.6,2.284c2.878,3.3,5.943,6.5,9.1,9.536a1.737,1.737,0,1,0,2.4-2.514C2919.693,548.39,2916.7,545.264,2913.893,542.048Z" data-name="Path 3319" transform="translate(-2875.743 -306.807)"/><path id="Path_3320" fill="#01355d" d="M2878.856,493.563a1.736,1.736,0,1,0-2.991,1.764c2.223,3.771,4.647,7.482,7.213,11.027a1.735,1.735,0,0,0,2.813-2.033C2883.394,500.858,2881.023,497.239,2878.856,493.563Z" data-name="Path 3320" transform="translate(-2855.743 -279.146)"/><path id="Path_3321" fill="#01355d" d="M3402.3,528.836a1.734,1.734,0,0,0-2.436.295c-2.64,3.355-5.47,6.632-8.4,9.731a1.735,1.735,0,1,0,2.518,2.388c3.013-3.177,5.913-6.532,8.617-9.969a1.733,1.733,0,0,0-.294-2.445Z" data-name="Path 3321" transform="translate(-3147.711 -299.404)"/><path id="Path_3322" fill="#01355d" d="M3462.574,422.651a1.733,1.733,0,0,0-2.167,1.157c-1.236,4.088-2.683,8.166-4.3,12.137a1.733,1.733,0,0,0,.953,2.263,1.761,1.761,0,0,0,.655.13,1.734,1.734,0,0,0,1.608-1.084c1.656-4.057,3.138-8.236,4.4-12.427a1.734,1.734,0,0,0-1.158-2.176Z" data-name="Path 3322" transform="translate(-3184.54 -239.412)"/><path id="Path_3323" fill="#01355d" d="M3437.246,478.353a1.734,1.734,0,0,0-2.341.737c-.628,1.2-1.3,2.414-1.951,3.606l-1.564,2.553c-.971,1.647-1.99,3.3-3.034,4.911a1.736,1.736,0,1,0,2.917,1.886c1.071-1.651,2.116-3.346,3.1-5.006l1.569-2.553.035-.061c.689-1.235,1.365-2.488,2.011-3.732a1.734,1.734,0,0,0-.737-2.341Z" data-name="Path 3323" transform="translate(-3168.73 -270.901)"/><path id="Path_3324" fill="#01355d" d="M3193.062,648.265c-4.2.694-8.5,1.2-12.77,1.508a1.735,1.735,0,0,0,.122,3.468h.126c4.374-.312,8.777-.832,13.09-1.543a1.738,1.738,0,0,0-.568-3.429Z" data-name="Path 3324" transform="translate(-3027.401 -367.264)"/><path id="Path_3325" fill="#01355d" d="M3477.3,363.767a1.734,1.734,0,0,0-1.911,1.539c-.459,4.252-1.123,8.53-1.972,12.709a1.734,1.734,0,0,0,1.356,2.05,1.885,1.885,0,0,0,.347.035,1.734,1.734,0,0,0,1.7-1.391c.867-4.287,1.552-8.669,2.024-13.03a1.735,1.735,0,0,0-1.543-1.912Z" data-name="Path 3325" transform="translate(-3194.395 -206.089)"/><path id="Path_3326" fill="#01355d" d="M3251.506,633.113c-4.009,1.465-8.136,2.752-12.262,3.84a1.735,1.735,0,1,0,.867,3.359c4.235-1.114,8.465-2.436,12.57-3.936a1.737,1.737,0,0,0-1.187-3.264Z" data-name="Path 3326" transform="translate(-3061.005 -358.631)"/><path id="Path_3327" fill="#01355d" d="M3356.646,572.439c-3.208,2.818-6.588,5.518-10.043,8.028a1.738,1.738,0,0,0,2.042,2.813c3.541-2.575,7-5.345,10.294-8.236a1.734,1.734,0,0,0-2.293-2.6Z" data-name="Path 3327" transform="translate(-3122.165 -324.073)"/><path id="Path_3328" fill="#01355d" d="M3306.624,607.519c-3.676,2.167-7.49,4.213-11.348,6.042a1.734,1.734,0,0,0,.746,3.307,1.7,1.7,0,0,0,.732-.186c3.953-1.873,7.863-3.958,11.63-6.194a1.737,1.737,0,0,0-1.773-2.987Z" data-name="Path 3328" transform="translate(-3092.923 -344.043)"/></g></g></svg>