<svg xmlns="http://www.w3.org/2000/svg" width="70.337" height="59.9" fill="#01355d" stroke="#01355d" stroke-width="2"><path d="M38.373 58.9h-6.4V11.33h-4.258l7.462-9.7 7.463 9.7h-4.258zm-5.77-.643h5.123v-47.57h3.594l-6.156-7.994-6.153 7.994h3.592zM50.8 58.9h-6.4V22.3c.004-2.405 1.952-4.353 4.357-4.357h10.247v-4.26l9.7 7.463-9.7 7.462v-4.256h-8.2zm-5.766-.643h5.122V23.704h9.483v3.594l7.994-6.155-7.994-6.154v3.594H48.76a3.72 3.72 0 0 0-3.715 3.715zM25.94 58.9h-6.413V24.353h-8.2v4.258L1.64 21.147l9.7-7.463v4.258h10.248c2.405.003 4.354 1.952 4.357 4.357zm-5.766-.643h5.122V22.3a3.72 3.72 0 0 0-3.714-3.715H10.687v-3.6L2.693 21.14l7.994 6.155v-3.6h9.482z"/></svg>