<svg xmlns="http://www.w3.org/2000/svg" width="49.191" height="49.191" viewBox="0 0 49.191 49.191"><g id="question" transform="translate(-0.003 0)"><g id="Group_909" data-name="Group 909" transform="translate(0.003 0)"><g id="Group_908" data-name="Group 908" transform="translate(0 0)"><path id="Path_3284" fill="#01355d" d="M49,44.546l-3.377-9.828A24.033,24.033,0,1,0,24.057,48.11H24.1a24.129,24.129,0,0,0,10.625-2.489L44.549,49a3.53,3.53,0,0,0,1.148.193A3.507,3.507,0,0,0,49,44.546ZM46.1,46.1a.563.563,0,0,1-.606.14L35.082,42.661a1.458,1.458,0,0,0-1.156.09,21.13,21.13,0,1,1,8.827-8.827,1.458,1.458,0,0,0-.09,1.156l3.578,10.414A.563.563,0,0,1,46.1,46.1Z" data-name="Path 3284" transform="translate(-0.003 0)"/></g></g><g id="Group_911" data-name="Group 911" transform="translate(22.361 34.851)"><g id="Group_910" data-name="Group 910"><path id="Path_3285" fill="#01355d" d="M234.179,362.748a1.458,1.458,0,1,0,1.458,1.458A1.475,1.475,0,0,0,234.179,362.748Z" data-name="Path 3285" transform="translate(-232.719 -362.748)"/></g></g><g id="Group_913" data-name="Group 913" transform="translate(16.565 12.266)"><g id="Group_912" data-name="Group 912"><path id="Path_3286" fill="#01355d" d="M179.65,127.674a7.263,7.263,0,0,0-7.255,7.255,1.458,1.458,0,0,0,2.916,0,4.339,4.339,0,1,1,4.339,4.339,1.458,1.458,0,0,0-1.458,1.458v5.948a1.458,1.458,0,1,0,2.916,0v-4.637a7.256,7.256,0,0,0-1.458-14.363Z" data-name="Path 3286" transform="translate(-172.395 -127.674)"/></g></g></g></svg>