<svg xmlns="http://www.w3.org/2000/svg" width="62.998" height="63" viewBox="0 0 62.998 63"><g id="registration" transform="translate(-0.007)"><path id="Path_3403" fill="#01355d" d="M60.857,16.626a4.68,4.68,0,0,0-6.467,1.406L53.381,19.6,47.5,28.755V1.23A1.231,1.231,0,0,0,46.266,0H1.237A1.231,1.231,0,0,0,.007,1.23V45.719a1.23,1.23,0,1,0,2.461,0V2.461H45.036V32.584L37.6,44.153a1.244,1.244,0,0,0-.173.431l-.944,4.866a3.084,3.084,0,0,0-1.63-.116,5.8,5.8,0,0,0-2.412,1.117c-.027-.413-.066-.829-.114-1.277a3.873,3.873,0,0,0-1.551-2.862c-1.8-1.236-3.981.218-4.7.7a18.307,18.307,0,0,0-5.761,6.347,1.23,1.23,0,1,0,2.151,1.2,15.836,15.836,0,0,1,4.975-5.5c1.4-.935,1.839-.783,1.939-.714a1.619,1.619,0,0,1,.5,1.1,18.682,18.682,0,0,1,.02,4.394,1.23,1.23,0,0,0,2.335.649,5.016,5.016,0,0,1,3.07-2.731c.254-.047.4,0,.422.135a11.92,11.92,0,0,1-.072,1.826,1.243,1.243,0,0,0,2,1.186l7.383-5.268V60.539H2.468V56.547a1.23,1.23,0,1,0-2.461,0V61.77A1.231,1.231,0,0,0,1.237,63H46.266a1.231,1.231,0,0,0,1.23-1.23v-15.7l13.757-21.4,1.009-1.57a4.685,4.685,0,0,0-1.406-6.467Zm-4.4,2.737a2.219,2.219,0,0,1,3.733,2.4l-.344.535-3.733-2.4Zm-17.8,31.8.765-3.947.073-.379,1.374.883,1.374.883-1.231.878Zm6.576-6.126,0,0-1.164,1.811-3.733-2.4L47.3,33.611l0-.006,7.481-11.637,3.733,2.4Z" data-name="Path 3403"/><path id="Path_3404" fill="#01355d" d="M81.4,46.93H67.707a1.231,1.231,0,0,0-1.23,1.23V63.7a1.231,1.231,0,0,0,1.23,1.23H81.4a1.231,1.231,0,0,0,1.23-1.23V48.16a1.23,1.23,0,0,0-1.23-1.23Zm-1.23,2.461V58.2a7.621,7.621,0,0,0-2.15-1.172,4.152,4.152,0,1,0-6.932,0,7.615,7.615,0,0,0-2.149,1.171v-8.8Zm-5.615,7.042h-.011a1.692,1.692,0,1,1,.02,0h-.009Zm-5.5,6.04a3.894,3.894,0,0,1,1.106-2.083,6.77,6.77,0,0,1,4.352-1.5H74.6a6.836,6.836,0,0,1,4.342,1.492,3.893,3.893,0,0,1,1.114,2.087Z" data-name="Path 3404" transform="translate(-58.291 -41.155)"/><path id="Path_3405" fill="#01355d" d="M236.116,69.281h9.029a1.23,1.23,0,1,0,0-2.461h-9.029a1.23,1.23,0,1,0,0,2.461Z" data-name="Path 3405" transform="translate(-205.978 -58.598)"/><path id="Path_3406" fill="#01355d" d="M236.116,113.231h9.029a1.23,1.23,0,0,0,0-2.461h-9.029a1.23,1.23,0,0,0,0,2.461Z" data-name="Path 3406" transform="translate(-205.978 -97.14)"/><path id="Path_3407" fill="#01355d" d="M236.116,157.18h9.029a1.23,1.23,0,1,0,0-2.461h-9.029a1.23,1.23,0,1,0,0,2.461Z" data-name="Path 3407" transform="translate(-205.978 -135.681)"/><path id="Path_3408" fill="#01355d" d="M68.367,221.527v6.055a1.231,1.231,0,0,0,1.23,1.23H99.116a1.231,1.231,0,0,0,1.23-1.23v-6.055a1.231,1.231,0,0,0-1.23-1.23H69.6A1.23,1.23,0,0,0,68.367,221.527Zm2.461,1.23H97.885v3.594H70.828Z" data-name="Path 3408" transform="translate(-59.949 -193.19)"/><path id="Path_3409" fill="#01355d" d="M91.33,320.037a1.231,1.231,0,0,0-1.23-1.23H73.127a1.23,1.23,0,1,0,0,2.461H90.1A1.23,1.23,0,0,0,91.33,320.037Z" data-name="Path 3409" transform="translate(-63.044 -279.579)"/><path id="Path_3410" fill="#01355d" d="M73.127,360.726a1.23,1.23,0,1,0,0,2.461h7.991a1.23,1.23,0,1,0,0-2.461Z" data-name="Path 3410" transform="translate(-63.044 -316.34)"/><path id="Path_3411" fill="#01355d" d="M.259,407.913a1.242,1.242,0,0,0,1.705.34,1.243,1.243,0,0,0,.34-1.707,1.242,1.242,0,0,0-1.705-.34,1.244,1.244,0,0,0-.34,1.707Z" data-name="Path 3411" transform="translate(-0.044 -356.046)"/></g></svg>