<svg xmlns="http://www.w3.org/2000/svg" width="147.733" height="130.721" viewBox="0 0 147.733 130.721"><path id="suitcase" fill="#fff" d="M141.1,37.82H118.106l-2.5-12.219A22.874,22.874,0,0,0,93.275,7.37H54.458A22.874,22.874,0,0,0,32.124,25.606l-2.5,12.215H6.636A6.645,6.645,0,0,0,0,44.453v87a6.643,6.643,0,0,0,6.636,6.636H141.1a6.643,6.643,0,0,0,6.636-6.636v-87A6.645,6.645,0,0,0,141.1,37.82ZM36.083,26.41a18.82,18.82,0,0,1,18.375-15H93.275a18.82,18.82,0,0,1,18.375,15l2.333,11.411h-5.3L106.563,27.45A13.609,13.609,0,0,0,93.275,16.6H54.458A13.609,13.609,0,0,0,41.17,27.45L39.051,37.822h-5.3Zm68.476,11.41H43.175l1.953-9.562a9.554,9.554,0,0,1,9.329-7.618H93.275a9.554,9.554,0,0,1,9.329,7.618ZM4.04,44.453a2.6,2.6,0,0,1,2.6-2.6H141.1a2.6,2.6,0,0,1,2.6,2.6V66.729a18.777,18.777,0,0,1-18.755,18.755H22.795A18.777,18.777,0,0,1,4.04,66.729ZM102.5,89.524H113.18V101.3a1.444,1.444,0,0,1-1.443,1.443h-7.791A1.445,1.445,0,0,1,102.5,101.3Zm-67.952,0H45.228V101.3a1.444,1.444,0,0,1-1.443,1.443H36a1.445,1.445,0,0,1-1.443-1.443Zm109.142,41.931a2.6,2.6,0,0,1-2.6,2.6H6.636a2.6,2.6,0,0,1-2.6-2.6v-51.8a22.777,22.777,0,0,0,18.755,9.868h7.718V101.3A5.489,5.489,0,0,0,36,106.778h7.791a5.488,5.488,0,0,0,5.482-5.482V89.524h49.2V101.3a5.489,5.489,0,0,0,5.482,5.482h7.791a5.488,5.488,0,0,0,5.482-5.482V89.524h7.719a22.778,22.778,0,0,0,18.755-9.868Z" transform="translate(0 -7.37)"/></svg>