<svg xmlns="http://www.w3.org/2000/svg" width="148.334" height="148.334" viewBox="0 0 148.334 148.334"><path id="target" fill="#fff" d="M159.5,33.372a2.458,2.458,0,0,0-1.828-1.715l-15.081-3.407-3.407-15.081a2.459,2.459,0,0,0-4.14-1.2L117.7,29.319a70.178,70.178,0,1,0,23.829,23.829L158.877,35.8a2.462,2.462,0,0,0,.62-2.424Zm-12.8,56.042a65.254,65.254,0,1,1-32.587-56.5l-7.966,7.966a2.441,2.441,0,0,0-.19.246A54.227,54.227,0,1,0,129.7,64.916a2.425,2.425,0,0,0,.257-.21l7.966-7.966a65.034,65.034,0,0,1,8.765,32.673ZM123.865,64.505a49.163,49.163,0,1,1-17.53-17.547l2.592,11.48-2.486,2.486a38.005,38.005,0,1,0,3.48,3.48l2.486-2.486ZM92.012,89.413a10.621,10.621,0,1,1-5.055-9.006L79.69,87.674a2.461,2.461,0,1,0,3.48,3.479l7.267-7.267A10.5,10.5,0,0,1,92.012,89.413ZM90.5,76.865a15.566,15.566,0,1,0,3.479,3.48L106.433,67.89a33.06,33.06,0,1,1-3.479-3.48Zm46.183-25.839-9.236,9.234-1.385-.312-.053-.013-12.325-2.774L110.577,43.4l24.793-24.8,2.766,12.242A2.462,2.462,0,0,0,140,32.708l12.242,2.766Z" transform="translate(-11.261 -11.25)"/></svg>