<svg xmlns="http://www.w3.org/2000/svg" id="trademark" width="38" height="38" viewBox="0 0 38 38"><path id="Path_3149" fill="#2e5166" d="M135.736,288a10.485,10.485,0,0,1-18.856,0Z" data-name="Path 3149" transform="translate(-107.308 -264.414)"/><path id="Path_3150" fill="#3f708d" d="M116.88,109.9a10.485,10.485,0,0,1,18.856,0Z" data-name="Path 3150" transform="translate(-107.308 -95.483)"/><g id="Group_880" data-name="Group 880" transform="translate(4.862)"><path id="Path_3151" fill="#ffbe00" d="M191.268,0l1.123,2.275,2.511.365-1.817,1.771.429,2.5L191.268,5.73l-2.246,1.181.429-2.5L187.635,2.64l2.511-.365Z" data-name="Path 3151" transform="translate(-177.131)"/><path id="Path_3152" fill="#ffbe00" d="M60.076,60.076l2.4.815,2.033-1.517-.032,2.537,2.071,1.465-2.423.753-.753,2.423L61.91,64.479l-2.537.032,1.517-2.033Z" data-name="Path 3152" transform="translate(-59.373 -54.511)"/><path id="Path_3153" fill="#ffbe00" d="M60.076,323.466l.815-2.4-1.517-2.033,2.537.032,1.465-2.071.753,2.423,2.423.753-2.071,1.465.032,2.537-2.033-1.517Z" data-name="Path 3153" transform="translate(-59.373 -291.031)"/><path id="Path_3154" fill="#ffbe00" d="M191.268,386.525l-1.123-2.275-2.511-.365,1.817-1.771-.429-2.5,2.246,1.181,2.246-1.181-.429,2.5,1.817,1.771-2.511.365Z" data-name="Path 3154" transform="translate(-177.131 -348.525)"/><path id="Path_3155" fill="#ffbe00" d="M323.466,323.466l-2.4-.815-2.033,1.517.032-2.537-2.071-1.465,2.423-.753.753-2.423,1.465,2.071,2.537-.032-1.517,2.033Z" data-name="Path 3155" transform="translate(-295.893 -291.031)"/><path id="Path_3156" fill="#ffbe00" d="M323.466,60.076l-.815,2.4,1.517,2.033-2.537-.032-1.465,2.071-.753-2.423-2.423-.753,2.071-1.465-.032-2.537,2.033,1.517Z" data-name="Path 3156" transform="translate(-295.893 -54.511)"/></g><g id="Group_881" data-name="Group 881" transform="translate(3.931 23.586)"><path id="Path_3157" fill="#2e5166" d="M50.621,288v2.621L48,288Z" data-name="Path 3157" transform="translate(-48 -288)"/><path id="Path_3158" fill="#2e5166" d="M386.621,288,384,290.621V288Z" data-name="Path 3158" transform="translate(-356.483 -288)"/></g><path id="Path_3159" fill="#e15d2d" d="M174.88,288h9.356a6.55,6.55,0,0,1-9.356,0Z" data-name="Path 3159" transform="translate(-160.558 -264.414)"/><g id="Group_882" data-name="Group 882" transform="translate(4.037 12.448)"><path id="Path_3160" fill="#f88756" d="M184.236,153.966H174.88a6.55,6.55,0,0,1,9.356,0Z" data-name="Path 3160" transform="translate(-164.595 -152)"/><rect id="Rectangle_1422" width="30" height="3" fill="#f88756" data-name="Rectangle 1422" transform="translate(-0.037 8.552)"/></g><rect id="Rectangle_1423" width="30" height="3" fill="#3f708d" data-name="Rectangle 1423" transform="translate(4 14)"/><rect id="Rectangle_1424" width="30" height="4" fill="#ffbe00" data-name="Rectangle 1424" transform="translate(4 17)"/><path id="Path_3161" fill="#2e5166" d="M419.931,208H416v2.621h3.182Z" data-name="Path 3161" transform="translate(-381.931 -190.966)"/><path id="Path_3162" fill="#e15d2d" d="M386.621,288,384,290.621h6.552L389.8,288Z" data-name="Path 3162" transform="translate(-352.552 -264.414)"/><g id="Group_883" data-name="Group 883" transform="translate(0.749 19.655)"><path id="Path_3163" fill="#e0a700" d="M418.621,241.966l.562-1.966H416v3.931h3.182Z" data-name="Path 3163" transform="translate(-382.68 -240)"/><path id="Path_3164" fill="#e0a700" d="M12.325,240H9.143l.562,1.966-.562,1.966h3.182Z" data-name="Path 3164" transform="translate(-9.143 -240)"/></g><path id="Path_3165" fill="#2e5166" d="M3.931,208H0l.749,2.621H3.931Z" data-name="Path 3165" transform="translate(0 -190.966)"/><path id="Path_3166" fill="#e15d2d" d="M6.552,290.621,3.931,288H.749L0,290.621Z" data-name="Path 3166" transform="translate(0 -264.414)"/></svg>