<svg xmlns="http://www.w3.org/2000/svg" width="147.619" height="130" viewBox="0 0 147.619 130"><path id="Path_19908" fill="#fff" d="M3.174,130a3.174,3.174,0,1,1,0-6.349H13.491V98.73a3.175,3.175,0,0,1,6.35,0v24.921h12.7V81.27a3.174,3.174,0,1,1,6.349,0v42.381h12.7V60.634a3.175,3.175,0,0,1,6.35,0v63.017h12.7V78.1a3.175,3.175,0,1,1,6.35,0v45.556h12.7V68.571a3.174,3.174,0,1,1,6.349,0v55.08h12.7V47.937a3.175,3.175,0,1,1,6.35,0v75.714h12.7v-64.6a3.175,3.175,0,0,1,6.35,0v64.6h10.317a3.174,3.174,0,1,1,0,6.349ZM7.309,87.647a3.175,3.175,0,0,1-1.436-5.584L49.683,35.08A3.173,3.173,0,0,1,53.81,34.6L80.953,53.016,124.127,6.349H92.857a3.174,3.174,0,0,1,0-6.349h41.587V.476h.159V40.953a3.174,3.174,0,1,1-6.349,0V10.634L83.81,59.366a3.175,3.175,0,0,1-4.127.476L52.54,41.429,10.476,86.349a3.171,3.171,0,0,1-3.167,1.3Z" data-name="Path 19908"/></svg>