<svg xmlns="http://www.w3.org/2000/svg" xmlns:xlink="http://www.w3.org/1999/xlink" width="325.012" height="290.868" viewBox="0 0 325.012 290.868"><defs><filter id="Path_3309" width="279.3" height="283.504" x="7.363" y="7.363" filterUnits="userSpaceOnUse"><feOffset dx="6" dy="6" input="SourceAlpha"/><feGaussianBlur result="blur" stdDeviation="6"/><feFlood flood-opacity=".122"/><feComposite in2="blur" operator="in"/><feComposite in="SourceGraphic"/></filter></defs><g id="yellow" transform="translate(-529.637 -4724.637)"><g filter="url(#Path_3309)" transform="matrix(1, 0, 0, 1, 529.64, 4724.64)"><path id="Path_3309-2" fill="#ffd107" d="M879.038,48a123.8,123.8,0,0,0-119.313,90.84l34.664,32.9-34.9,32.046A123.758,123.758,0,1,0,879.038,48Z" data-name="Path 3309" transform="translate(-740.13 -28.64)"/></g><g id="Group_932" data-name="Group 932" transform="translate(529.637 4724.637)"><path id="Path_3347" fill="#ffd107" d="M1159.656,31.711c3.945,1.643,7.854,3.494,11.625,5.5a1.737,1.737,0,0,0,1.63-3.069c-3.866-2.055-7.876-3.949-11.916-5.635a1.736,1.736,0,0,0-1.34,3.2Z" data-name="Path 3347" transform="translate(-965.96 -17.615)"/><path id="Path_3348" fill="#ffd107" d="M1043.4,7.049c4.283.1,8.6.407,12.826.9h.2a1.737,1.737,0,1,0,.2-3.468c-4.335-.5-8.76-.815-13.142-.919a1.734,1.734,0,0,0-.087,3.468Z" data-name="Path 3348" transform="translate(-899.742 -3.559)"/><path id="Path_3349" fill="#ffd107" d="M1212.364,59.7c3.567,2.341,7.074,4.881,10.4,7.546a1.738,1.738,0,0,0,2.167-2.718c-3.424-2.731-7.013-5.332-10.672-7.733a1.737,1.737,0,1,0-1.907,2.9Z" data-name="Path 3349" transform="translate(-995.977 -33.559)"/><path id="Path_3350" fill="#ffd107" d="M1102.677,13.979c4.174.867,8.361,1.977,12.44,3.247a1.739,1.739,0,1,0,1.031-3.32c-4.183-1.3-8.47-2.419-12.757-3.325a1.736,1.736,0,1,0-.715,3.4Z" data-name="Path 3350" transform="translate(-933.502 -7.516)"/><path id="Path_3351" fill="#ffd107" d="M1305.121,152.852a1.732,1.732,0,0,0,3-1.734c-2.206-3.775-4.621-7.495-7.169-11.058a1.738,1.738,0,0,0-2.826,2.024C1300.613,145.535,1302.966,149.159,1305.121,152.852Z" data-name="Path 3351" transform="translate(-1044.828 -80.482)"/><path id="Path_3352" fill="#ffd107" d="M1267.884,106.259a1.734,1.734,0,1,0,2.6-2.276c-2.865-3.307-5.917-6.5-9.076-9.536A1.737,1.737,0,0,0,1259,96.953C1262.106,99.892,1265.088,103.03,1267.884,106.259Z" data-name="Path 3352" transform="translate(-1022.546 -54.777)"/><path id="Path_3353" fill="#ffd107" d="M1350.938,262.395a1.734,1.734,0,0,0,1.734,1.465,1.931,1.931,0,0,0,.273,0,1.734,1.734,0,0,0,1.448-1.985c-.685-4.335-1.578-8.669-2.662-12.908a1.737,1.737,0,0,0-3.364.867C1349.4,253.933,1350.271,258.173,1350.938,262.395Z" data-name="Path 3353" transform="translate(-1073.446 -141.854)"/><path id="Path_3354" fill="#ffd107" d="M1333.131,205.454a1.736,1.736,0,1,0,3.268-1.17c-1.469-4.118-3.156-8.236-5.006-12.193a1.737,1.737,0,0,0-3.147,1.469C1330.054,197.435,1331.7,201.453,1333.131,205.454Z" data-name="Path 3354" transform="translate(-1061.985 -109.802)"/><path id="Path_3355" fill="#ffd107" d="M983.378,9.186a1.543,1.543,0,0,0,.282-.022c4.2-.676,8.5-1.166,12.774-1.452a1.738,1.738,0,0,0-.234-3.468c-4.378.29-8.782.793-13.095,1.487a1.739,1.739,0,0,0,.273,3.468Z" data-name="Path 3355" transform="translate(-865.633 -3.945)"/><path id="Path_3356" fill="#ffd107" d="M822.531,76.195a1.733,1.733,0,0,0,1.14-.433c3.221-2.8,6.61-5.5,10.078-7.989a1.734,1.734,0,0,0-2.011-2.813c-3.55,2.562-7.026,5.314-10.325,8.188a1.734,1.734,0,0,0,1.14,3.034Z" data-name="Path 3356" transform="translate(-774.602 -38.202)"/><path id="Path_3357" fill="#ffd107" d="M724.8,219.722a1.734,1.734,0,0,0,2.167-1.149c1.257-4.083,2.722-8.153,4.356-12.1a1.738,1.738,0,0,0-3.212-1.326c-1.673,4.044-3.177,8.236-4.465,12.406a1.734,1.734,0,0,0,1.153,2.172Z" data-name="Path 3357" transform="translate(-719.504 -117.157)"/><path id="Path_3358" fill="#ffd107" d="M779.948,116.863a1.734,1.734,0,0,0,2.44-.286c2.653-3.346,5.5-6.61,8.444-9.7a1.737,1.737,0,0,0-2.51-2.4c-3.034,3.169-5.934,6.5-8.669,9.944a1.734,1.734,0,0,0,.295,2.44Z" data-name="Path 3358" transform="translate(-751.066 -60.431)"/><path id="Path_3359" fill="#ffd107" d="M925.444,21.094a1.659,1.659,0,0,0,.589-.1c4.018-1.448,8.149-2.722,12.284-3.788a1.737,1.737,0,1,0-.867-3.364c-4.239,1.092-8.478,2.4-12.6,3.9a1.734,1.734,0,0,0,.59,3.372Z" data-name="Path 3359" transform="translate(-832.878 -9.351)"/><path id="Path_3360" fill="#ffd107" d="M747.428,165.471a1.7,1.7,0,0,0,.806.2,1.734,1.734,0,0,0,1.539-.928c1.994-3.775,4.187-7.507,6.5-11.088a1.737,1.737,0,1,0-2.908-1.9c-2.393,3.671-4.642,7.494-6.684,11.365a1.734,1.734,0,0,0,.746,2.345Z" data-name="Path 3360" transform="translate(-732.486 -87.075)"/><path id="Path_3361" fill="#ffd107" d="M871.154,43.665a1.686,1.686,0,0,0,.867-.238c3.684-2.167,7.507-4.183,11.37-6a1.736,1.736,0,0,0-1.474-3.143c-3.962,1.86-7.88,3.927-11.656,6.146a1.734,1.734,0,0,0,.867,3.234Z" data-name="Path 3361" transform="translate(-802.12 -20.873)"/><path id="Path_3362" fill="#ffd107" d="M994.653,297.885a3.255,3.255,0,0,0-3.567,2.909A138.373,138.373,0,0,1,986.9,322.77a3.262,3.262,0,0,0-.251.62c-16.719,58.7-71.087,99.7-132.174,99.7A136.758,136.758,0,0,1,721.042,318.67l31.335-30.88a3.255,3.255,0,0,0,0-4.638l-32.592-32.076a3.255,3.255,0,1,0-4.569,4.638l30.234,29.77L715.142,315.31a3.268,3.268,0,0,0-.867,3.06A143.76,143.76,0,0,0,853.381,429.583a3.25,3.25,0,0,0,1.092.191A143.95,143.95,0,0,0,997.561,301.5a3.26,3.26,0,0,0-2.908-3.614Z" data-name="Path 3362" transform="translate(-714.188 -143.257)"/><path id="Path_3363" fill="#ffd107" d="M1403.679,291.285l-32.566-31.915v29.961h-9.783c-.026-2.059-.1-4.131-.208-6.2l-.121-1.552a1.739,1.739,0,0,0-3.468.273l.121,1.513c.139,2.549.208,5.145.208,7.707V292.8h13.264v30.385Z" data-name="Path 3363" transform="translate(-1078.667 -148.487)"/></g></g></svg>