<svg xmlns="http://www.w3.org/2000/svg" width="55.112" height="34.812" viewBox="0 0 55.112 34.812"><defs><style>.a{fill:#01355d;fill-rule:evenodd;}</style></defs><path class="a" d="M773,2055.654v15.307a1.54,1.54,0,0,0,1.529,1.529h10.385a6.229,6.229,0,0,0,4.954,3.783,7.273,7.273,0,0,0,4.372,3.034,6.641,6.641,0,0,0,5.575,2.541c3.95,2.222,8.394.287,11.341-2.612l6.865-6.746h8.562a1.54,1.54,0,0,0,1.529-1.529v-16.072a1.54,1.54,0,0,0-1.529-1.529H816.516c-2.78-2.779-4.691-5.36-8.856-5.36h-2.8a7.731,7.731,0,0,0-4.333,1.338,7.706,7.706,0,0,0-4.325-1.338h-4c-4.548,0-6.435,2.963-9.183,6.125h-8.5A1.54,1.54,0,0,0,773,2055.654Zm50.565,5.192a2.146,2.146,0,0,1,0-4.292A2.146,2.146,0,0,1,823.565,2060.846Zm-46.184.574a2.151,2.151,0,0,1,0-4.3A2.151,2.151,0,0,1,777.38,2061.42Zm11.022,6.6a83.772,83.772,0,0,1,5.83-7.16l2.963,3.321a6.477,6.477,0,0,0,9.812-.143,5.784,5.784,0,0,0-.048-7.47l-4.2-4.882c1.473-.757,3.25-.494,4.834-.494a5.3,5.3,0,0,1,3.743,1.561l3.751,3.743h3.672v12.894c-1.043,0-1.991-.143-2.819.669l-7.04,6.921a8.149,8.149,0,0,1-5.384,2.628,4.254,4.254,0,0,1-2.963-1.115,3.448,3.448,0,0,1-4.38-2.206,3.787,3.787,0,0,1-3.01-1.043,3.359,3.359,0,0,1-1.187-2.27,1.713,1.713,0,0,1-1.019.231,3.15,3.15,0,0,1-2.557-5.185Zm-3.767,1.37h-2.278v-12.129h2.206l3.719-4.269a5.361,5.361,0,0,1,4.006-1.8h3.958a4.585,4.585,0,0,1,3.456,1.585l4.954,5.758a2.769,2.769,0,0,1,.024,3.56,3.474,3.474,0,0,1-5.233.072L794.87,2057a1.521,1.521,0,0,0-2.58,1.473c-.9,1.043-1.872,2.055-2.756,3.1-1.179,1.473-2.318,3.01-3.48,4.508a6.773,6.773,0,0,0-1.426,3.321Z" transform="translate(-773 -2048)"/></svg>