<svg xmlns="http://www.w3.org/2000/svg" width="10.509" height="12.176" viewBox="0 0 10.509 12.176">
  <path id="Path_20074" data-name="Path 20074" d="M-4895.488-6338.824a.471.471,0,0,1-.512-.513v-11.15a.471.471,0,0,1,.512-.513H-4886a.472.472,0,0,1,.513.513v11.15a.472.472,0,0,1-.513.513Zm.257-11.15v10.125a.236.236,0,0,0,.256.256h8.459a.235.235,0,0,0,.256-.256v-10.125a.236.236,0,0,0-.256-.257h-8.458A.236.236,0,0,0-4895.231-6349.974Zm1.794,7.946v-.769h5.383v.769Zm0-2.563v-.768h5.383v.768Zm0-2.691v-.77h5.383v.77Z" transform="translate(4896 6351)" fill="#2d2d2d"/>
</svg>
