<svg xmlns="http://www.w3.org/2000/svg" width="48.676" height="52" viewBox="0 0 48.676 52">
  <g id="Group_3505" data-name="Group 3505" transform="translate(-16.35 0.011)">
    <path id="Path_19896" data-name="Path 19896" d="M59.509,17.148v37.78a3.047,3.047,0,0,1-3.047,3.047H24.877a3.047,3.047,0,0,1-3.047-3.047V10.547A3.047,3.047,0,0,1,24.877,7.5H49.861Z" transform="translate(-4.923 -6.749)" fill="#e1e1e3"/>
    <path id="Path_19897" data-name="Path 19897" d="M270.877,7.5H267.83l9.648,9.648v37.78a3.047,3.047,0,0,1-3.047,3.047h3.047a3.047,3.047,0,0,0,3.047-3.047V17.148Z" transform="translate(-225.94 -6.749)" fill="#dadadc"/>
    <path id="Path_19898" data-name="Path 19898" d="M307.478,27.148h-6.6A3.047,3.047,0,0,1,297.83,24.1V17.5l9.648,8.633Z" transform="translate(-252.893 -15.733)" fill="#dadadc"/>
    <path id="Path_19899" data-name="Path 19899" d="M307.478,17.148h-6.6A3.047,3.047,0,0,1,297.83,14.1V7.5" transform="translate(-252.893 -6.749)" fill="#c8c5cc"/>
    <rect id="Rectangle_3254" data-name="Rectangle 3254" width="6.094" height="6.094" rx="3.047" transform="translate(21.477 19.439)" fill="#feea9d"/>
    <path id="Path_19900" data-name="Path 19900" d="M93.861,191.5H91.83a1.523,1.523,0,0,1,1.523,1.523v3.047a1.523,1.523,0,0,1-1.523,1.523h2.031a1.523,1.523,0,0,0,1.523-1.523v-3.047A1.523,1.523,0,0,0,93.861,191.5Z" transform="translate(-67.814 -172.061)" fill="#fee27d"/>
    <rect id="Rectangle_3255" data-name="Rectangle 3255" width="6.094" height="6.094" rx="3.047" transform="translate(21.477 30.102)" fill="#feea9d"/>
    <path id="Path_19901" data-name="Path 19901" d="M93.861,296.5H91.83a1.523,1.523,0,0,1,1.523,1.523v3.047a1.523,1.523,0,0,1-1.523,1.523h2.031a1.523,1.523,0,0,0,1.523-1.523v-3.047A1.523,1.523,0,0,0,93.861,296.5Z" transform="translate(-67.814 -266.398)" fill="#fee27d"/>
    <rect id="Rectangle_3256" data-name="Rectangle 3256" width="6.094" height="6.094" rx="3.047" transform="translate(21.477 40.766)" fill="#feea9d"/>
    <path id="Path_19902" data-name="Path 19902" d="M93.861,401.5H91.83a1.523,1.523,0,0,1,1.523,1.523v3.047a1.523,1.523,0,0,1-1.523,1.523h2.031a1.523,1.523,0,0,0,1.523-1.523v-3.047A1.523,1.523,0,0,0,93.861,401.5Z" transform="translate(-67.814 -360.734)" fill="#fee27d"/>
    <path id="Path_19903" data-name="Path 19903" d="M274.269,279.49v19.66a3.047,3.047,0,0,1-3.047,3.047h-3.41a3.583,3.583,0,0,1-.275-.449.6.6,0,0,0-.532-.324h-.2a3.662,3.662,0,0,1-2.635-1.128,3.612,3.612,0,0,1-1-2.687.6.6,0,0,0-.323-.561,3.645,3.645,0,0,1-1.4-5.207.6.6,0,0,0,0-.647,3.645,3.645,0,0,1,1.4-5.207.6.6,0,0,0,.323-.561,3.61,3.61,0,0,1,1.006-2.678,3.662,3.662,0,0,1,2.641-1.129h.2a.6.6,0,0,0,.532-.324,3.646,3.646,0,0,1,5.2-1.39.6.6,0,0,0,.647,0A3.642,3.642,0,0,1,274.269,279.49Z" transform="translate(-219.684 -250.97)" fill="#dadadc"/>
    <path id="Path_19904" data-name="Path 19904" d="M287.7,294.609h0a2.123,2.123,0,0,1,3.032.812h0a2.122,2.122,0,0,0,1.985,1.146h0a2.122,2.122,0,0,1,2.219,2.219h0a2.123,2.123,0,0,0,1.147,1.985h0a2.123,2.123,0,0,1,.812,3.032h0a2.133,2.133,0,0,0,0,2.292h0a2.123,2.123,0,0,1-.812,3.032h0a2.123,2.123,0,0,0-1.147,1.984h0a2.122,2.122,0,0,1-2.219,2.219h0a2.124,2.124,0,0,0-1.985,1.146h0a2.123,2.123,0,0,1-3.032.813h0a2.121,2.121,0,0,0-2.291,0h0a2.123,2.123,0,0,1-3.032-.813h0a2.123,2.123,0,0,0-1.984-1.146h0a2.122,2.122,0,0,1-2.219-2.219h0a2.123,2.123,0,0,0-1.147-1.984h0a2.123,2.123,0,0,1-.812-3.032h0a2.133,2.133,0,0,0,0-2.292h0a2.123,2.123,0,0,1,.812-3.032h0a2.123,2.123,0,0,0,1.147-1.985h0a2.122,2.122,0,0,1,2.219-2.219h0a2.121,2.121,0,0,0,1.984-1.146h0a2.123,2.123,0,0,1,3.032-.812h0A2.122,2.122,0,0,0,287.7,294.609Z" transform="translate(-233.175 -264.397)" fill="#eb304a"/>
    <path id="Path_19905" data-name="Path 19905" d="M400.287,306.095a2.133,2.133,0,0,1,0-2.292h0a2.123,2.123,0,0,0-.812-3.032h0a2.123,2.123,0,0,1-1.147-1.985,2.123,2.123,0,0,0-2.219-2.219h0a2.122,2.122,0,0,1-1.984-1.146,2.123,2.123,0,0,0-3.032-.812c-.044.028-.087.055-.133.079a2.108,2.108,0,0,1,.626.733,2.122,2.122,0,0,0,1.984,1.146h0a2.123,2.123,0,0,1,2.219,2.219,2.123,2.123,0,0,0,1.147,1.985h0a2.123,2.123,0,0,1,.813,3.032h0a2.133,2.133,0,0,0,0,2.292h0a2.123,2.123,0,0,1-.812,3.032h0a2.123,2.123,0,0,0-1.147,1.984,2.122,2.122,0,0,1-2.219,2.219h0a2.124,2.124,0,0,0-1.984,1.146,2.112,2.112,0,0,1-.626.734c.046.024.089.05.133.078a2.123,2.123,0,0,0,3.032-.812,2.124,2.124,0,0,1,1.984-1.146h0a2.122,2.122,0,0,0,2.219-2.219,2.123,2.123,0,0,1,1.147-1.984h0a2.123,2.123,0,0,0,.813-3.032Z" transform="translate(-336.564 -264.397)" fill="#e4222e"/>
    <path id="Path_19906" data-name="Path 19906" d="M43.126,30.857h-12.3a.762.762,0,0,0,0,1.523h12.3a.762.762,0,0,0,0-1.523Zm-13.069-9.9a.762.762,0,0,0,.762.762H49.71a.762.762,0,0,0,0-1.523H30.819a.762.762,0,0,0-.759.762ZM34.467,8.2H36.14v6.52c0,.3.364.466.739.466s.739-.159.739-.466V8.2h1.661c.3,0,.466-.318.466-.671,0-.318-.148-.659-.466-.659H34.467c-.318,0-.466.341-.466.659C34,7.889,34.172,8.2,34.467,8.2ZM43.621,23.24h-12.8a.762.762,0,0,0,0,1.523h12.8a.762.762,0,0,0,0-1.523Zm-12.8,12.187h8.226a.762.762,0,1,0,0-1.523H30.824a.762.762,0,0,0,0,1.523Zm19.825,4.181a2.284,2.284,0,1,0-1.616-.668,2.284,2.284,0,0,0,1.616.668Zm-.539-2.822a.763.763,0,1,1-.222.538.763.763,0,0,1,.222-.538ZM30.191,13.951c-1.16,0-1.468-.875-1.93-.875-.352,0-.648.477-.648.8,0,.659,1.137,1.411,2.627,1.411a2.4,2.4,0,0,0,2.708-2.469c0-2.945-3.656-2.457-3.656-3.867,0-.545.467-.875,1.286-.875.956,0,1.219.432,1.57.432.406,0,.591-.523.591-.784,0-.751-1.49-.914-2.161-.914-1.308,0-2.764.58-2.764,2.275,0,2.7,3.656,2.172,3.656,3.879C31.465,13.645,30.873,13.951,30.191,13.951Zm.632,29.093H40.08a.762.762,0,1,0,0-1.523H30.822a.762.762,0,0,0,0,1.523Zm9.87,1.523h-9.87a.762.762,0,0,0,0,1.523h9.867a.762.762,0,0,0,0-1.523ZM26.252,29.334H23.205a2.288,2.288,0,0,0-2.285,2.285v3.047a2.288,2.288,0,0,0,2.285,2.285h3.047a2.287,2.287,0,0,0,2.285-2.285V31.619A2.287,2.287,0,0,0,26.252,29.334Zm.762,5.332a.762.762,0,0,1-.762.762H23.205a.763.763,0,0,1-.762-.762V31.619a.763.763,0,0,1,.762-.762h3.047a.762.762,0,0,1,.762.762Zm-.762-16H23.205a2.288,2.288,0,0,0-2.285,2.285V24a2.288,2.288,0,0,0,2.285,2.285h3.047A2.287,2.287,0,0,0,28.537,24V20.955A2.287,2.287,0,0,0,26.252,18.67ZM27.014,24a.762.762,0,0,1-.762.762H23.205A.763.763,0,0,1,22.444,24V20.955a.763.763,0,0,1,.762-.762h3.047a.762.762,0,0,1,.762.762ZM58.733,35.7a.762.762,0,0,0-1.078,0l-8.633,8.633A.762.762,0,1,0,50.1,45.411l8.633-8.633a.761.761,0,0,0,0-1.077Zm5.837,4.108a2.883,2.883,0,0,0-1.1-4.119,1.366,1.366,0,0,1-.738-1.272A2.885,2.885,0,0,0,59.712,31.4a1.364,1.364,0,0,1-1.273-.734,2.878,2.878,0,0,0-2.891-1.541V10.316a.517.517,0,0,0-.009-.055v-.019a.254.254,0,0,0-.016-.065.061.061,0,0,1,0-.007c-.007-.021-.014-.043-.023-.064h0a.619.619,0,0,0-.027-.059v-.009c-.009-.017-.02-.034-.03-.05s-.005-.01-.008-.014L55.4,9.93l-.012-.016a.523.523,0,0,0-.039-.043l-.011-.012L45.691.211,45.665.193a.529.529,0,0,0-.044-.04L45.605.141,45.564.112,45.551.1,45.5.073h-.009c-.019-.009-.039-.019-.058-.027h-.006c-.021-.008-.043-.016-.064-.022h-.007c-.021-.006-.043-.012-.065-.016h-.018L45.219-.01a.627.627,0,0,0-.076,0H20.159A3.814,3.814,0,0,0,16.35,3.8V48.18a3.814,3.814,0,0,0,3.809,3.809H51.744a.759.759,0,0,0,.444-.143,2.858,2.858,0,0,0,.667-.314,1.368,1.368,0,0,1,1.47,0,2.884,2.884,0,0,0,4.119-1.1,1.366,1.366,0,0,1,1.273-.735,2.885,2.885,0,0,0,3.011-3.022,1.366,1.366,0,0,1,.734-1.273,2.883,2.883,0,0,0,1.1-4.119,1.368,1.368,0,0,1,0-1.47ZM45.9,2.584l7.048,7.047H48.189A2.288,2.288,0,0,1,45.9,7.346ZM20.159,50.458a2.288,2.288,0,0,1-2.285-2.285V3.791a2.288,2.288,0,0,1,2.285-2.285H44.381v5.84a3.814,3.814,0,0,0,3.809,3.809h5.84V29.705a1.366,1.366,0,0,1-1.174-.141,2.883,2.883,0,0,0-4.119,1.1,1.367,1.367,0,0,1-1.273.734,2.885,2.885,0,0,0-3.016,3.016,1.366,1.366,0,0,1-.734,1.273,2.883,2.883,0,0,0-1.1,4.119,1.368,1.368,0,0,1,0,1.47,2.883,2.883,0,0,0,1.1,4.119,1.366,1.366,0,0,1,.734,1.272,2.885,2.885,0,0,0,3.015,3.015,1.364,1.364,0,0,1,1.273.735c.007.012.014.024.02.037Zm43.3-7.27a1.349,1.349,0,0,1-.69.857,2.89,2.89,0,0,0-1.557,2.7,1.361,1.361,0,0,1-1.422,1.422,2.9,2.9,0,0,0-2.7,1.557,1.36,1.36,0,0,1-1.944.52,2.89,2.89,0,0,0-3.113,0,1.361,1.361,0,0,1-1.944-.521,2.893,2.893,0,0,0-2.563-1.56h-.134a1.361,1.361,0,0,1-1.422-1.422,2.89,2.89,0,0,0-1.557-2.7,1.361,1.361,0,0,1-.52-1.945,2.89,2.89,0,0,0,0-3.113,1.36,1.36,0,0,1,.52-1.944,2.892,2.892,0,0,0,1.556-2.693,1.362,1.362,0,0,1,1.422-1.422,2.892,2.892,0,0,0,2.7-1.553,1.359,1.359,0,0,1,1.944-.521,2.892,2.892,0,0,0,2.954.093.761.761,0,0,0,.33-.186,1.357,1.357,0,0,1,1.772.609,2.9,2.9,0,0,0,2.7,1.556,1.362,1.362,0,0,1,1.422,1.422,2.892,2.892,0,0,0,1.557,2.7,1.36,1.36,0,0,1,.521,1.946,2.9,2.9,0,0,0,0,3.114,1.341,1.341,0,0,1,.17,1.086ZM23.582,15.248a2.377,2.377,0,0,0,2.673-2.605V11.289a.457.457,0,0,0-.466-.477h-1.93c-.3,0-.455.3-.455.58s.155.582.451.582h.921v.671c0,.888-.455,1.308-1.194,1.308s-1.183-.42-1.183-1.308V9.469c0-.887.433-1.308,1.194-1.308a1.046,1.046,0,0,1,1.183,1.126c.011.352.341.466.739.466.49,0,.739-.136.739-.7,0-1.365-1.149-2.184-2.719-2.184a2.359,2.359,0,0,0-2.616,2.6v3.174A2.369,2.369,0,0,0,23.582,15.248ZM55.494,42.172a2.285,2.285,0,1,0,3.232,0,2.285,2.285,0,0,0-3.232,0Zm2.155,2.154a.76.76,0,1,1,.223-.538A.76.76,0,0,1,57.649,44.326ZM26.252,40H23.205a2.288,2.288,0,0,0-2.285,2.285v3.047a2.288,2.288,0,0,0,2.285,2.285h3.047a2.287,2.287,0,0,0,2.285-2.285V42.282A2.287,2.287,0,0,0,26.252,40Zm.762,5.332a.762.762,0,0,1-.762.762H23.205a.763.763,0,0,1-.762-.762V42.282a.763.763,0,0,1,.762-.762h3.047a.762.762,0,0,1,.762.762Z"/>
  </g>
</svg>
