<svg xmlns="http://www.w3.org/2000/svg" width="77.445" height="13.798" viewBox="0 0 77.445 13.798">
  <g id="Group_9648" data-name="Group 9648" transform="translate(-1134.451 -3920.495)">
    <path id="Icon_awesome-star-half" data-name="Icon awesome-star-half" d="M8.651,0a.852.852,0,0,0-.774.48L6.117,4.048,2.18,4.619A.863.863,0,0,0,1.7,6.091L4.552,8.867l-.674,3.921a.862.862,0,0,0,1.251.908l3.523-1.849Z" transform="translate(1203.245 3920.496)" fill="#f8d41d"/>
    <path id="Icon_awesome-star" data-name="Icon awesome-star" d="M7.876.479,6.116,4.047,2.18,4.62A.863.863,0,0,0,1.7,6.092L4.551,8.867l-.674,3.92a.862.862,0,0,0,1.25.908l3.522-1.851L12.171,13.7a.862.862,0,0,0,1.25-.908l-.674-3.92L15.6,6.092a.863.863,0,0,0-.477-1.471l-3.937-.574L9.422.479a.863.863,0,0,0-1.547,0Z" transform="translate(1133.01 3920.496)" fill="#f8d41d"/>
    <path id="Icon_awesome-star-2" data-name="Icon awesome-star" d="M7.876.479,6.116,4.047,2.18,4.62A.863.863,0,0,0,1.7,6.092L4.551,8.867l-.674,3.92a.862.862,0,0,0,1.25.908l3.522-1.851L12.171,13.7a.862.862,0,0,0,1.25-.908l-.674-3.92L15.6,6.092a.863.863,0,0,0-.477-1.471l-3.937-.574L9.422.479a.863.863,0,0,0-1.547,0Z" transform="translate(1150.568 3920.496)" fill="#f8d41d"/>
    <path id="Icon_awesome-star-3" data-name="Icon awesome-star" d="M7.876.479,6.116,4.047,2.18,4.62A.863.863,0,0,0,1.7,6.092L4.551,8.867l-.674,3.92a.862.862,0,0,0,1.25.908l3.522-1.851L12.171,13.7a.862.862,0,0,0,1.25-.908l-.674-3.92L15.6,6.092a.863.863,0,0,0-.477-1.471l-3.937-.574L9.422.479a.863.863,0,0,0-1.547,0Z" transform="translate(1168.127 3920.496)" fill="#f8d41d"/>
    <path id="Icon_awesome-star-4" data-name="Icon awesome-star" d="M7.876.479,6.116,4.047,2.18,4.62A.863.863,0,0,0,1.7,6.092L4.551,8.867l-.674,3.92a.862.862,0,0,0,1.25.908l3.522-1.851L12.171,13.7a.862.862,0,0,0,1.25-.908l-.674-3.92L15.6,6.092a.863.863,0,0,0-.477-1.471l-3.937-.574L9.422.479a.863.863,0,0,0-1.547,0Z" transform="translate(1185.686 3920.496)" fill="#f8d41d"/>
  </g>
</svg>
