<svg xmlns="http://www.w3.org/2000/svg" width="29.966" height="39.34" viewBox="0 0 29.966 39.34">
  <g id="Group_3506" data-name="Group 3506" transform="translate(-61)">
    <path id="Path_19907" data-name="Path 19907" d="M103.661,25.757v23.2a3.073,3.073,0,0,1-3.073,3.073H79.073A3.073,3.073,0,0,1,76,48.962V18.073A3.073,3.073,0,0,1,79.073,15H92.9Z" transform="translate(-13.847 -13.847)" fill="#fff700"/>
    <path id="Path_19908" data-name="Path 19908" d="M306.757,25.757h-9.22A1.537,1.537,0,0,1,296,24.22V15Z" transform="translate(-216.943 -13.847)" fill="#60cd59"/>
    <path id="Path_19909" data-name="Path 19909" d="M90.629,11.094,79.872.337A1.153,1.153,0,0,0,79.057,0H65.226A4.231,4.231,0,0,0,61,4.226V35.114a4.231,4.231,0,0,0,4.226,4.226H86.74a4.231,4.231,0,0,0,4.226-4.226V11.91a1.152,1.152,0,0,0-.337-.815Zm-10.42-7.16,6.822,6.822H80.593a.384.384,0,0,1-.384-.384Zm6.531,33.1H65.226a1.921,1.921,0,0,1-1.921-1.921V4.226a1.921,1.921,0,0,1,1.921-1.921H77.9v8.068a2.689,2.689,0,0,0,2.689,2.689h8.068V35.114A1.921,1.921,0,0,1,86.74,37.035Z" transform="translate(0 0)"/>
    <path id="Path_19910" data-name="Path 19910" d="M174.446,247.379H162.153a1.153,1.153,0,0,0,0,2.305h12.294a1.153,1.153,0,0,0,0-2.305Zm-12.294-3.073h7.684a1.153,1.153,0,1,0,0-2.305h-7.684a1.153,1.153,0,0,0,0,2.305Zm12.294,8.452H162.153a1.153,1.153,0,0,0,0,2.305h12.294a1.153,1.153,0,0,0,0-2.305Z" transform="translate(-92.316 -223.406)"/>
  </g>
</svg>
