<svg xmlns="http://www.w3.org/2000/svg" xmlns:xlink="http://www.w3.org/1999/xlink" width="1920" height="666" viewBox="0 0 1920 666">
  <defs>
    <clipPath id="clip-path">
      <rect id="Rectangle_5095" data-name="Rectangle 5095" width="1920" height="666" transform="translate(0 577)" fill="#fff"/>
    </clipPath>
  </defs>
  <g id="Mask_Group_5752" data-name="Mask Group 5752" transform="translate(0 -577)" clip-path="url(#clip-path)">
    <g id="Group_8230" data-name="Group 8230">
      <g id="Group_8227" data-name="Group 8227" transform="translate(2.684 68.563)" opacity="0.1">
        <g id="Polygon_44" data-name="Polygon 44" transform="translate(159.901 386) rotate(48)" fill="#fff">
          <path d="M 498.3744506835938 584.3278198242188 L 131.12548828125 584.3278198242188 L 17.62882995605469 234.6490173339844 L 314.7499694824219 18.54786682128906 L 611.87109375 234.6490173339844 L 498.3744506835938 584.3278198242188 Z" stroke="none"/>
          <path d="M 314.7499694824219 37.095703125 L 35.2576904296875 240.3750915527344 L 142.0272521972656 569.3278198242188 L 487.4726867675781 569.3278198242188 L 594.2422485351562 240.375 L 314.7499694824219 37.095703125 M 314.7499694824219 0 L 629.5 228.9227905273438 L 509.2760620117188 599.3278198242188 L 120.2238464355469 599.3278198242188 L -6.103515625e-05 228.9229125976562 L 314.7499694824219 0 Z" stroke="none" fill="#f8951d"/>
        </g>
        <g id="Polygon_45" data-name="Polygon 45" transform="translate(1333.514 854.809) rotate(-48)" fill="#fff">
          <path d="M 498.3742370605469 584.3275756835938 L 131.1254577636719 584.3275756835938 L 17.62888717651367 234.6488952636719 L 314.7498474121094 18.54783821105957 L 611.8707885742188 234.6488952636719 L 498.3742370605469 584.3275756835938 Z" stroke="none"/>
          <path d="M 314.7498474121094 37.095703125 L 35.25762939453125 240.3749694824219 L 142.0271301269531 569.3275756835938 L 487.4725646972656 569.3275756835938 L 594.2420654296875 240.3749694824219 L 314.7498474121094 37.095703125 M 314.7498474121094 0 L 629.499755859375 228.9227905273438 L 509.2759399414062 599.3275756835938 L 120.2237243652344 599.3275756835938 L -6.103515625e-05 228.9227905273438 L 314.7498474121094 0 Z" stroke="none" fill="#f8951d"/>
        </g>
      </g>
      <g id="Group_8228" data-name="Group 8228" transform="translate(90.486 68.563)" opacity="0.1">
        <g id="Polygon_44-2" data-name="Polygon 44" transform="translate(159.901 378) rotate(48)" fill="#fff">
          <path d="M 498.3744506835938 584.3278198242188 L 131.12548828125 584.3278198242188 L 17.62882995605469 234.6490173339844 L 314.7499694824219 18.54786682128906 L 611.87109375 234.6490173339844 L 498.3744506835938 584.3278198242188 Z" stroke="none"/>
          <path d="M 314.7499694824219 37.095703125 L 35.2576904296875 240.3750915527344 L 142.0272521972656 569.3278198242188 L 487.4726867675781 569.3278198242188 L 594.2422485351562 240.375 L 314.7499694824219 37.095703125 M 314.7499694824219 0 L 629.5 228.9227905273438 L 509.2760620117188 599.3278198242188 L 120.2238464355469 599.3278198242188 L -6.103515625e-05 228.9229125976562 L 314.7499694824219 0 Z" stroke="none" fill="#f8951d"/>
        </g>
        <g id="Polygon_45-2" data-name="Polygon 45" transform="translate(1158.158 845.809) rotate(-48)" fill="#fff">
          <path d="M 498.3742370605469 584.3275756835938 L 131.1254577636719 584.3275756835938 L 17.62888717651367 234.6488952636719 L 314.7498474121094 18.54783821105957 L 611.8707885742188 234.6488952636719 L 498.3742370605469 584.3275756835938 Z" stroke="none"/>
          <path d="M 314.7498474121094 37.095703125 L 35.25762939453125 240.3749694824219 L 142.0271301269531 569.3275756835938 L 487.4725646972656 569.3275756835938 L 594.2420654296875 240.3749694824219 L 314.7498474121094 37.095703125 M 314.7498474121094 0 L 629.499755859375 228.9227905273438 L 509.2759399414062 599.3275756835938 L 120.2237243652344 599.3275756835938 L -6.103515625e-05 228.9227905273438 L 314.7498474121094 0 Z" stroke="none" fill="#f8951d"/>
        </g>
      </g>
      <g id="Group_8229" data-name="Group 8229" transform="translate(220.486 68.563)" opacity="0.1">
        <g id="Polygon_44-3" data-name="Polygon 44" transform="translate(159.901 378) rotate(48)" fill="#fff">
          <path d="M 498.3744506835938 584.3278198242188 L 131.12548828125 584.3278198242188 L 17.62882995605469 234.6490173339844 L 314.7499694824219 18.54786682128906 L 611.87109375 234.6490173339844 L 498.3744506835938 584.3278198242188 Z" stroke="none"/>
          <path d="M 314.7499694824219 37.095703125 L 35.2576904296875 240.3750915527344 L 142.0272521972656 569.3278198242188 L 487.4726867675781 569.3278198242188 L 594.2422485351562 240.375 L 314.7499694824219 37.095703125 M 314.7499694824219 0 L 629.5 228.9227905273438 L 509.2760620117188 599.3278198242188 L 120.2238464355469 599.3278198242188 L -6.103515625e-05 228.9229125976562 L 314.7499694824219 0 Z" stroke="none" fill="#f8951d"/>
        </g>
        <g id="Polygon_45-3" data-name="Polygon 45" transform="translate(898.182 845.809) rotate(-48)" fill="#fff">
          <path d="M 498.3742370605469 584.3275756835938 L 131.1254577636719 584.3275756835938 L 17.62888717651367 234.6488952636719 L 314.7498474121094 18.54783821105957 L 611.8707885742188 234.6488952636719 L 498.3742370605469 584.3275756835938 Z" stroke="none"/>
          <path d="M 314.7498474121094 37.095703125 L 35.25762939453125 240.3749694824219 L 142.0271301269531 569.3275756835938 L 487.4725646972656 569.3275756835938 L 594.2420654296875 240.3749694824219 L 314.7498474121094 37.095703125 M 314.7498474121094 0 L 629.499755859375 228.9227905273438 L 509.2759399414062 599.3275756835938 L 120.2237243652344 599.3275756835938 L -6.103515625e-05 228.9227905273438 L 314.7498474121094 0 Z" stroke="none" fill="#f8951d"/>
        </g>
      </g>
    </g>
  </g>
</svg>
