<svg xmlns="http://www.w3.org/2000/svg" xmlns:xlink="http://www.w3.org/1999/xlink" width="1620" height="475" viewBox="0 0 1620 475">
  <defs>
    <clipPath id="clip-path">
      <rect id="Rectangle_5818" data-name="Rectangle 5818" width="1620" height="475" transform="translate(0 1253)" fill="#f8951d"/>
    </clipPath>
  </defs>
  <g id="Mask_Group_5794" data-name="Mask Group 5794" transform="translate(0 -1253)" opacity="0.6" clip-path="url(#clip-path)">
    <g id="Group_9726" data-name="Group 9726" transform="translate(-301.62 990.5)">
      <g id="Group_9719" data-name="Group 9719" opacity="0.17">
        <path id="Path_40793" data-name="Path 40793" d="M2188.524-22016.508s89.241,252.465,515.078,336.619,770.39,73.555,1188.27,0,483.251-294.217,483.251-294.217" transform="translate(-2188.524 22358.508)" fill="none" stroke="#f8951d" stroke-width="1"/>
        <path id="Path_40794" data-name="Path 40794" d="M2188.524-22016.508s89.241,252.465,515.078,336.619,770.39,73.555,1188.27,0,483.251-294.217,483.251-294.217" transform="translate(-2188.524 22162.508)" fill="none" stroke="#f8951d" stroke-width="1"/>
        <path id="Path_40795" data-name="Path 40795" d="M2188.524-22016.508s89.241,252.465,515.078,336.619,770.39,73.555,1188.27,0,483.251-294.217,483.251-294.217" transform="translate(-2188.524 22309.508)" fill="none" stroke="#f8951d" stroke-width="1"/>
        <path id="Path_40796" data-name="Path 40796" d="M2188.524-22016.508s89.241,252.465,515.078,336.619,770.39,73.555,1188.27,0,483.251-294.217,483.251-294.217" transform="translate(-2188.524 22113.508)" fill="none" stroke="#f8951d" stroke-width="1"/>
        <path id="Path_40797" data-name="Path 40797" d="M2188.524-22016.508s89.241,252.465,515.078,336.619,770.39,73.555,1188.27,0,483.251-294.217,483.251-294.217" transform="translate(-2188.524 22260.508)" fill="none" stroke="#f8951d" stroke-width="1"/>
        <path id="Path_40798" data-name="Path 40798" d="M2188.524-22016.508s89.241,252.465,515.078,336.619,770.39,73.555,1188.27,0,483.251-294.217,483.251-294.217" transform="translate(-2188.524 22065.508)" fill="none" stroke="#f8951d" stroke-width="1"/>
        <path id="Path_40799" data-name="Path 40799" d="M2188.524-22016.508s89.241,252.465,515.078,336.619,770.39,73.555,1188.27,0,483.251-294.217,483.251-294.217" transform="translate(-2188.524 22211.508)" fill="none" stroke="#f8951d" stroke-width="1"/>
        <path id="Path_40800" data-name="Path 40800" d="M2188.524-22016.508s89.241,252.465,515.078,336.619,770.39,73.555,1188.27,0,483.251-294.217,483.251-294.217" transform="translate(-2188.524 22016.508)" fill="none" stroke="#f8951d" stroke-width="1"/>
      </g>
      <g id="Group_9722" data-name="Group 9722" transform="translate(479.18 325.5)" opacity="0.1">
        <g id="Group_9720" data-name="Group 9720" transform="translate(0)">
          <ellipse id="Ellipse_3402" data-name="Ellipse 3402" cx="5" cy="6" rx="5" ry="6" transform="translate(0.441)" fill="#f8951d"/>
          <ellipse id="Ellipse_3403" data-name="Ellipse 3403" cx="5" cy="6" rx="5" ry="6" transform="translate(0.441 48)" fill="#f8951d"/>
          <ellipse id="Ellipse_3404" data-name="Ellipse 3404" cx="5" cy="6" rx="5" ry="6" transform="translate(0.441 96)" fill="#f8951d"/>
          <ellipse id="Ellipse_3405" data-name="Ellipse 3405" cx="5" cy="6" rx="5" ry="6" transform="translate(0.441 144)" fill="#f8951d"/>
          <ellipse id="Ellipse_3406" data-name="Ellipse 3406" cx="5" cy="6" rx="5" ry="6" transform="translate(0.441 192)" fill="#f8951d"/>
          <ellipse id="Ellipse_3407" data-name="Ellipse 3407" cx="5" cy="6" rx="5" ry="6" transform="translate(0.441 240)" fill="#f8951d"/>
          <ellipse id="Ellipse_3408" data-name="Ellipse 3408" cx="5" cy="6" rx="5" ry="6" transform="translate(0.441 291)" fill="#f8951d"/>
          <ellipse id="Ellipse_3409" data-name="Ellipse 3409" cx="5" cy="6" rx="5" ry="6" transform="translate(0.441 339)" fill="#f8951d"/>
        </g>
        <g id="Group_9721" data-name="Group 9721" transform="translate(185.797 31)">
          <ellipse id="Ellipse_3410" data-name="Ellipse 3410" cx="5" cy="6" rx="5" ry="6" transform="translate(-0.355)" fill="#f8951d"/>
          <ellipse id="Ellipse_3411" data-name="Ellipse 3411" cx="5" cy="6" rx="5" ry="6" transform="translate(-0.355 48)" fill="#f8951d"/>
          <ellipse id="Ellipse_3412" data-name="Ellipse 3412" cx="5" cy="6" rx="5" ry="6" transform="translate(-0.355 97)" fill="#f8951d"/>
          <ellipse id="Ellipse_3413" data-name="Ellipse 3413" cx="5" cy="6" rx="5" ry="6" transform="translate(-0.355 146)" fill="#f8951d"/>
          <ellipse id="Ellipse_3414" data-name="Ellipse 3414" cx="5" cy="6" rx="5" ry="6" transform="translate(-0.355 195)" fill="#f8951d"/>
          <ellipse id="Ellipse_3415" data-name="Ellipse 3415" cx="5" cy="6" rx="5" ry="6" transform="translate(-0.355 244)" fill="#f8951d"/>
          <ellipse id="Ellipse_3416" data-name="Ellipse 3416" cx="5" cy="6" rx="5" ry="6" transform="translate(-0.355 296)" fill="#f8951d"/>
          <ellipse id="Ellipse_3417" data-name="Ellipse 3417" cx="5" cy="6" rx="5" ry="6" transform="translate(-0.355 344)" fill="#f8951d"/>
        </g>
      </g>
      <g id="Group_9725" data-name="Group 9725" transform="translate(1548.196 325.5)" opacity="0.1">
        <g id="Group_9723" data-name="Group 9723" transform="translate(185.797)">
          <ellipse id="Ellipse_3418" data-name="Ellipse 3418" cx="5" cy="6" rx="5" ry="6" transform="translate(-0.373)" fill="#f8951d"/>
          <ellipse id="Ellipse_3419" data-name="Ellipse 3419" cx="5" cy="6" rx="5" ry="6" transform="translate(-0.373 48)" fill="#f8951d"/>
          <ellipse id="Ellipse_3420" data-name="Ellipse 3420" cx="5" cy="6" rx="5" ry="6" transform="translate(-0.373 96)" fill="#f8951d"/>
          <ellipse id="Ellipse_3421" data-name="Ellipse 3421" cx="5" cy="6" rx="5" ry="6" transform="translate(-0.373 144)" fill="#f8951d"/>
          <ellipse id="Ellipse_3422" data-name="Ellipse 3422" cx="5" cy="6" rx="5" ry="6" transform="translate(-0.373 192)" fill="#f8951d"/>
          <ellipse id="Ellipse_3423" data-name="Ellipse 3423" cx="5" cy="6" rx="5" ry="6" transform="translate(-0.373 240)" fill="#f8951d"/>
          <ellipse id="Ellipse_3424" data-name="Ellipse 3424" cx="5" cy="6" rx="5" ry="6" transform="translate(-0.373 291)" fill="#f8951d"/>
          <ellipse id="Ellipse_3425" data-name="Ellipse 3425" cx="5" cy="6" rx="5" ry="6" transform="translate(-0.373 339)" fill="#f8951d"/>
        </g>
        <g id="Group_9724" data-name="Group 9724" transform="translate(0 31)">
          <ellipse id="Ellipse_3426" data-name="Ellipse 3426" cx="5" cy="6" rx="5" ry="6" transform="translate(0.424)" fill="#f8951d"/>
          <ellipse id="Ellipse_3427" data-name="Ellipse 3427" cx="5" cy="6" rx="5" ry="6" transform="translate(0.424 48)" fill="#f8951d"/>
          <ellipse id="Ellipse_3428" data-name="Ellipse 3428" cx="5" cy="6" rx="5" ry="6" transform="translate(0.424 97)" fill="#f8951d"/>
          <ellipse id="Ellipse_3429" data-name="Ellipse 3429" cx="5" cy="6" rx="5" ry="6" transform="translate(0.424 146)" fill="#f8951d"/>
          <ellipse id="Ellipse_3430" data-name="Ellipse 3430" cx="5" cy="6" rx="5" ry="6" transform="translate(0.424 195)" fill="#f8951d"/>
          <ellipse id="Ellipse_3431" data-name="Ellipse 3431" cx="5" cy="6" rx="5" ry="6" transform="translate(0.424 244)" fill="#f8951d"/>
          <ellipse id="Ellipse_3432" data-name="Ellipse 3432" cx="5" cy="6" rx="5" ry="6" transform="translate(0.424 296)" fill="#f8951d"/>
          <ellipse id="Ellipse_3433" data-name="Ellipse 3433" cx="5" cy="6" rx="5" ry="6" transform="translate(0.424 344)" fill="#f8951d"/>
        </g>
      </g>
    </g>
  </g>
</svg>
