<svg id="Group_11187" data-name="Group 11187" xmlns="http://www.w3.org/2000/svg" width="111.02" height="111.019" viewBox="0 0 111.02 111.019">
  <path id="Path_42654" data-name="Path 42654" d="M166.478,7.5l-6.5,15.178v86.083a6.5,6.5,0,0,1-6.505,6.5H82.13l6.5-11.772V14A6.5,6.5,0,0,1,95.14,7.5Z" transform="translate(-64.322 -5.874)" fill="#fff"/>
  <path id="Path_42655" data-name="Path 42655" d="M120.249,434.5H49.128v8.673a6.5,6.5,0,0,0,6.5,6.5h72.205" transform="translate(-38.475 -340.286)" fill="#dadadc"/>
  <path id="Path_42656" data-name="Path 42656" d="M378.128,434.5v8.348a6.83,6.83,0,1,0,13.66,0V434.5" transform="translate(-296.137 -340.286)" fill="#fff"/>
  <path id="Path_42657" data-name="Path 42657" d="M448,7.5a6.871,6.871,0,0,1,6.871,6.871v8.308H441.128V14.371A6.871,6.871,0,0,1,448,7.5Z" transform="translate(-345.477 -5.874)" fill="#dadadc"/>
  <path id="Path_42658" data-name="Path 42658" d="M152.18,264v47.053H112.5V264a6.5,6.5,0,0,1,6.505-6.5h26.67a6.5,6.5,0,0,1,6.5,6.505Z" transform="translate(-88.106 -201.665)" fill="#e1e1e3"/>
  <rect id="Rectangle_6269" data-name="Rectangle 6269" width="9.866" height="10.191" rx="4.933" transform="translate(47.486 62.34)" fill="#52bbe9"/>
  <rect id="Rectangle_6270" data-name="Rectangle 6270" width="9.866" height="10.191" rx="4.933" transform="translate(47.486 79.036)" fill="#52bbe9"/>
  <path id="Path_42659" data-name="Path 42659" d="M132.665,257.5v53.558H112.5V264a6.5,6.5,0,0,1,6.505-6.5Z" transform="translate(-88.106 -201.665)" fill="#c8c5cc"/>
  <path id="Path_42660" data-name="Path 42660" d="M14,212.5h26.67a6.5,6.5,0,0,1,6.5,6.5v56.81H7.5V219a6.5,6.5,0,0,1,6.5-6.5Z" transform="translate(-5.874 -166.423)" fill="#e1e1e3"/>
  <path id="Path_42661" data-name="Path 42661" d="M66.642,396.5H75.58a3.252,3.252,0,0,1,3.253,3.253v20.165H63.39V399.753A3.252,3.252,0,0,1,66.642,396.5Z" transform="translate(-49.645 -310.526)" fill="#aeadb3"/>
  <path id="Path_42662" data-name="Path 42662" d="M107.862,396.5H104.61a3.252,3.252,0,0,1,3.252,3.253v20.165h3.252V399.753A3.252,3.252,0,0,0,107.862,396.5Z" transform="translate(-81.927 -310.526)" fill="#8b8893"/>
  <rect id="Rectangle_6271" data-name="Rectangle 6271" width="10.083" height="10.191" rx="5.041" transform="translate(8.131 52.582)" fill="#52bbe9"/>
  <path id="Path_42663" data-name="Path 42663" d="M64.252,242.5H61a1.735,1.735,0,0,1,1.735,1.735v6.722A1.735,1.735,0,0,1,61,252.691h3.252a1.735,1.735,0,0,0,1.735-1.735v-6.722A1.735,1.735,0,0,0,64.252,242.5Z" transform="translate(-47.773 -189.918)" fill="#1cabe1"/>
  <rect id="Rectangle_6272" data-name="Rectangle 6272" width="9.866" height="10.191" rx="4.933" transform="translate(24.719 52.582)" fill="#52bbe9"/>
  <rect id="Rectangle_6273" data-name="Rectangle 6273" width="10.083" height="10.191" rx="5.041" transform="translate(8.131 69.278)" fill="#52bbe9"/>
  <path id="Path_42664" data-name="Path 42664" d="M64.252,319.5H61a1.735,1.735,0,0,1,1.735,1.735v6.722A1.735,1.735,0,0,1,61,329.691h3.252a1.735,1.735,0,0,0,1.735-1.735v-6.722A1.735,1.735,0,0,0,64.252,319.5Z" transform="translate(-47.773 -250.222)" fill="#1cabe1"/>
  <rect id="Rectangle_6274" data-name="Rectangle 6274" width="9.866" height="10.191" rx="4.933" transform="translate(24.719 69.278)" fill="#52bbe9"/>
  <path id="Path_42665" data-name="Path 42665" d="M139.753,242.5H136.5a1.735,1.735,0,0,1,1.735,1.735v6.722a1.735,1.735,0,0,1-1.735,1.735h3.253a1.735,1.735,0,0,0,1.735-1.735v-6.722A1.735,1.735,0,0,0,139.753,242.5Zm0,16.7H136.5a1.735,1.735,0,0,1,1.735,1.735v6.722a1.735,1.735,0,0,1-1.735,1.735h3.253a1.735,1.735,0,0,0,1.735-1.735v-6.722A1.735,1.735,0,0,0,139.753,259.2Z" transform="translate(-106.902 -189.918)" fill="#1cabe1"/>
  <path id="Path_42666" data-name="Path 42666" d="M370.152,219.017v37.694c-.26.011-.523.017-.787.017a18.864,18.864,0,1,1,0-37.729c.265,0,.527.007.787.017Z" transform="translate(-274.5 -171.514)" fill="#e1e1e3"/>
  <circle id="Ellipse_3452" data-name="Ellipse 3452" cx="14.528" cy="14.528" r="14.528" transform="translate(80.337 51.823)" fill="#24b378"/>
  <path id="Path_42667" data-name="Path 42667" d="M427.565,239a14.591,14.591,0,0,0-2.751.263,14.527,14.527,0,0,1,0,28.529A14.527,14.527,0,1,0,427.565,239Z" transform="translate(-332.7 -187.177)" fill="#19ac66"/>
  <rect id="Rectangle_6275" data-name="Rectangle 6275" width="36.009" height="16.262" rx="8.131" transform="translate(33.284 11.384)" fill="#fff"/>
  <path id="Path_42668" data-name="Path 42668" d="M90.37,66.079a1.626,1.626,0,1,0-2.3,2.3l3.177,3.177a1.626,1.626,0,0,0,2.3,0l8.111-8.111a1.626,1.626,0,1,0-2.3-2.3L92.4,68.107ZM16.479,50.956H9.866A3.365,3.365,0,0,0,6.5,54.317v6.722A3.365,3.365,0,0,0,9.866,64.4h6.613a3.365,3.365,0,0,0,3.361-3.361V54.317a3.365,3.365,0,0,0-3.361-3.361Zm.108,10.083a.108.108,0,0,1-.108.108H9.866a.108.108,0,0,1-.108-.108V54.317a.108.108,0,0,1,.108-.108h6.613a.108.108,0,0,1,.108.108Zm-.108,6.613H9.866A3.365,3.365,0,0,0,6.5,71.013v6.722A3.365,3.365,0,0,0,9.866,81.1h6.613a3.365,3.365,0,0,0,3.361-3.361V71.013a3.365,3.365,0,0,0-3.361-3.361Zm.108,10.083a.108.108,0,0,1-.108.108H9.866a.108.108,0,0,1-.108-.108V71.013a.108.108,0,0,1,.108-.108h6.613a.108.108,0,0,1,.108.108Zm92.8-59.3a1.626,1.626,0,0,0,1.626-1.626V8.5a8.506,8.506,0,0,0-8.5-8.5c-.082,0-.162,0-.243.006C102.238,0,102.2,0,102.156,0H30.818a8.14,8.14,0,0,0-8.131,8.131v36.32H8.131A8.14,8.14,0,0,0,0,52.582v56.81a1.626,1.626,0,0,0,1.626,1.626H64.074c.028,0,.056,0,.083,0s.055,0,.083,0H89.363a1.64,1.64,0,0,0,.177-.01,8.141,8.141,0,0,0,7.738-8.121V82.324a16.155,16.155,0,0,0,0-31.946V18.431ZM97.277,8.5a5.244,5.244,0,0,1,10.489,0v6.681H97.277ZM27.561,107.766H15.372V89.227A1.628,1.628,0,0,1,17,87.6h8.937a1.628,1.628,0,0,1,1.626,1.626Zm12.119,0H30.814V89.227a4.884,4.884,0,0,0-4.879-4.879H17a4.884,4.884,0,0,0-4.879,4.879v18.539H3.252V52.582A4.884,4.884,0,0,1,8.131,47.7H34.8a4.884,4.884,0,0,1,4.879,4.879Zm22.767,0H42.933V57.461H57.569a4.884,4.884,0,0,1,4.879,4.879Zm3.252,0V95.84H80.364v6.722a8.412,8.412,0,0,0,1.8,5.2Zm28.324-5.2a5.2,5.2,0,0,1-10.408,0V94.214a1.626,1.626,0,0,0-1.626-1.626c-.037,0-.072,0-.108.005s-.072-.005-.108-.005H65.7V76.976h8.023a1.626,1.626,0,1,0,0-3.252H65.7v-6.5h5.746a1.626,1.626,0,1,0,0-3.252H65.7V62.34a8.088,8.088,0,0,0-1.631-4.879h9.653a1.626,1.626,0,1,0,0-3.252H58.111a1.644,1.644,0,0,0-.173.009q-.184-.009-.369-.009H42.933V52.582A8.14,8.14,0,0,0,34.8,44.451H25.939V8.131a4.884,4.884,0,0,1,4.879-4.879H95.844A8.452,8.452,0,0,0,94.025,8.5V50.219a16.154,16.154,0,0,0,0,32.265Zm13.741-36.211a12.9,12.9,0,1,1-12.9-12.9,12.9,12.9,0,0,1,12.9,12.9ZM55.618,60.713h-6.4a3.365,3.365,0,0,0-3.361,3.361V70.8a3.365,3.365,0,0,0,3.361,3.361h6.4A3.365,3.365,0,0,0,58.979,70.8V64.074a3.365,3.365,0,0,0-3.361-3.361ZM55.726,70.8a.108.108,0,0,1-.108.108h-6.4a.108.108,0,0,1-.108-.108V64.074a.108.108,0,0,1,.108-.108h6.4a.108.108,0,0,1,.108.108Zm-.108,6.613h-6.4A3.365,3.365,0,0,0,45.86,80.77v6.722a3.365,3.365,0,0,0,3.361,3.361h6.4a3.365,3.365,0,0,0,3.361-3.361V80.77a3.365,3.365,0,0,0-3.361-3.361Zm.108,10.083a.108.108,0,0,1-.108.108h-6.4a.108.108,0,0,1-.108-.108V80.77a.108.108,0,0,1,.108-.108h6.4a.108.108,0,0,1,.108.108Zm18.445-70.52A1.626,1.626,0,0,0,75.8,18.6h5.472a3.965,3.965,0,0,1-3.609,2.336H75.8a1.626,1.626,0,0,0-1.176,2.749l7.451,7.8a1.626,1.626,0,0,0,2.352-2.246L79.4,23.975A7.239,7.239,0,0,0,84.688,18.6h1.354a1.626,1.626,0,1,0,0-3.252H84.688a7.181,7.181,0,0,0-1-2.336h2.359a1.626,1.626,0,1,0,0-3.252H75.8a1.626,1.626,0,1,0,0,3.252H77.66a3.965,3.965,0,0,1,3.609,2.336H75.8a1.626,1.626,0,0,0-1.626,1.626Zm-38.719,12.3H67.124a3.8,3.8,0,0,0,3.795-3.795V13.552a3.8,3.8,0,0,0-3.795-3.795H35.452a3.8,3.8,0,0,0-3.795,3.795V25.478a3.8,3.8,0,0,0,3.795,3.795Zm-.542-15.72a.543.543,0,0,1,.542-.542H67.124a.543.543,0,0,1,.542.542V25.478a.543.543,0,0,1-.542.542H35.452a.543.543,0,0,1-.542-.542ZM82.83,46.077A1.626,1.626,0,0,0,81.2,44.451H50.265a1.626,1.626,0,0,0,0,3.252H81.2A1.626,1.626,0,0,0,82.83,46.077ZM32.85,67.652h-6.4a3.365,3.365,0,0,0-3.361,3.361v6.722A3.365,3.365,0,0,0,26.454,81.1h6.4a3.365,3.365,0,0,0,3.361-3.361V71.013a3.365,3.365,0,0,0-3.361-3.361Zm.108,10.083a.108.108,0,0,1-.108.108h-6.4a.108.108,0,0,1-.108-.108V71.013a.108.108,0,0,1,.108-.108h6.4a.108.108,0,0,1,.108.108ZM82.83,36.32A1.626,1.626,0,0,0,81.2,34.693H34a1.626,1.626,0,1,0,0,3.252H81.2A1.626,1.626,0,0,0,82.83,36.32ZM32.85,50.956h-6.4a3.365,3.365,0,0,0-3.361,3.361v6.722A3.365,3.365,0,0,0,26.454,64.4h6.4a3.365,3.365,0,0,0,3.361-3.361V54.317a3.365,3.365,0,0,0-3.361-3.361Zm.108,10.083a.108.108,0,0,1-.108.108h-6.4a.108.108,0,0,1-.108-.108V54.317a.108.108,0,0,1,.108-.108h6.4a.108.108,0,0,1,.108.108Z" fill="#3c3b41"/>
</svg>
