<svg xmlns="http://www.w3.org/2000/svg" width="50.609" height="44.283" viewBox="0 0 50.609 44.283">
  <path id="quote-right" d="M39.212,59.392H47.12v6.326a6.332,6.332,0,0,1-6.326,6.326H40a2.367,2.367,0,0,0-2.372,2.372v4.745A2.367,2.367,0,0,0,40,81.533h.791A15.811,15.811,0,0,0,56.609,65.718V41.995a4.746,4.746,0,0,0-4.745-4.745H39.212a4.746,4.746,0,0,0-4.745,4.745V54.647A4.746,4.746,0,0,0,39.212,59.392Zm-28.468,0h7.908v6.326a6.332,6.332,0,0,1-6.326,6.326h-.791a2.367,2.367,0,0,0-2.372,2.372v4.745a2.367,2.367,0,0,0,2.372,2.372h.791A15.811,15.811,0,0,0,28.142,65.718V41.995A4.746,4.746,0,0,0,23.4,37.25H10.745A4.746,4.746,0,0,0,6,41.995V54.647A4.746,4.746,0,0,0,10.745,59.392Z" transform="translate(-6 -37.25)" fill="#01355d" opacity="0.1"/>
</svg>
