<svg xmlns="http://www.w3.org/2000/svg" xmlns:xlink="http://www.w3.org/1999/xlink" width="67.313" height="54.174" xmlns:v="https://vecta.io/nano"><g fill="#f8951d"><path d="M31.752 11.83c.085 0 .17-.018.247-.052H32a.62.62 0 1 0-.5-1.136h-.01a.62.62 0 0 0 .249 1.189z"/><use xlink:href="#B"/><use xlink:href="#B" x="-3.736" y="36.116"/><path d="M41.355 52.306l.805.805c.16.157.224.388.167.604s-.227.386-.443.443a.62.62 0 0 1-.604-.167l-.805-.805-.805.805a.62.62 0 0 1-.876-.005c-.24-.24-.244-.632-.005-.876l.805-.805-.805-.805a.62.62 0 0 1 .005-.876c.24-.24.632-.244.876-.005l.805.805.805-.805a.62.62 0 0 1 .876.005c.24.24.244.632.005.876zM13.503 2.522a.62.62 0 0 1 .545.937c-.113.194-.32.312-.545.3H8.977c-.34-.003-.617-.28-.618-.622a.62.62 0 0 1 .615-.624zM9.767 5.635a.62.62 0 0 1 .545.937c-.113.194-.32.312-.545.3H.88C.54 6.877.264 6.6.264 6.258s.275-.62.616-.623zM64.56 34.282c.34.004.616.282.616.623s-.275.62-.616.623l-2.035-.003a.62.62 0 0 1-.545-.937c.113-.194.32-.312.545-.3zm1.872-3.116a.62.62 0 0 1 .545.937c-.113.194-.32.312-.545.3H55.684a.62.62 0 0 1-.62-.62c0-.342.272-.62.613-.626zm-48.17-28.1c-.777.034-1.5.376-2.033.95l-3.788 4.165c.005-.012-.015-.01-.122.14a.92.92 0 0 0-.132.258c-1.542 4.913-.508 10.317 2 15.456 2.768 5.376 6.554 10.162 11.148 14.094 4.288 3.883 9.313 6.862 14.777 8.76 4.962 1.566 9.772 1.546 13.337-1.04a1 1 0 0 0 .11-.095c.093-.093.1-.105.08-.1l.014-.018 3.77-4.147a2.95 2.95 0 0 0-.2-4.147l-8.946-8.136a2.95 2.95 0 0 0-4.147.194l-4.048 4.45a21.7 21.7 0 0 1-8.8-5.022 21.7 21.7 0 0 1-5.831-8.285l4.046-4.45a2.95 2.95 0 0 0-.194-4.147L20.37 3.82a2.93 2.93 0 0 0-2.114-.756zm.085 1.826a1.1 1.1 0 0 1 .789.294l8.946 8.136a1.08 1.08 0 0 1 .367.76 1.11 1.11 0 0 1-.294.8L23.683 19.8a.92.92 0 0 0-.182.933 23.57 23.57 0 0 0 6.562 9.484 23.56 23.56 0 0 0 10.06 5.636.92.92 0 0 0 .914-.271l4.474-4.917c.193-.22.466-.352.76-.366s.577.093.8.294l8.947 8.136a1.07 1.07 0 0 1 .366.76 1.08 1.08 0 0 1-.294.79l-3.74 4.1c-2.926 2.1-7.047 2.218-11.663.76a41.45 41.45 0 0 1-14.112-8.39 45 45 0 0 1-10.712-13.514c-2.357-4.8-3.212-9.673-1.915-13.96L17.6 5.26c.194-.22.467-.35.76-.367z"/></g><defs ><path id="B" d="M35.493 14.322a1.87 1.87 0 0 1-1.321-3.189 1.87 1.87 0 0 1 3.189 1.321 1.87 1.87 0 0 1-1.868 1.868zm0-1.245c.344 0 .623-.28.623-.623s-.28-.623-.623-.623-.623.28-.623.623c0 .165.066.324.182.44s.275.182.44.182z"/></defs></svg>