<svg xmlns="http://www.w3.org/2000/svg" width="70.473" height="70.473" xmlns:v="https://vecta.io/nano"><path d="M35.236,70.473h0A35.208,35.208,0,0,1,0,35.181H0A35.209,35.209,0,0,1,35.236,0h0A35.209,35.209,0,0,1,70.473,35.181h0A35.208,35.208,0,0,1,35.236,70.473Z" fill="#f4fc40"/><path d="M15.32 46.674c7.462 4.124 16.476 4.308 24.1.49 7.5-3.82 11.966-11.007 11.563-18.638a15.13 15.13 0 0 0 4.076-3.712 18.2 18.2 0 0 1-4.683 1.14c1.65-.837 2.928-2.26 3.586-3.99a17.3 17.3 0 0 1-5.173 1.727A8.99 8.99 0 0 0 39 22.303c-3.126 1.295-4.86 4.657-4.105 7.955-6.373-.198-12.413-2.896-16.813-7.51-2.154 3.288-1.05 7.484 2.528 9.6-1.277-.042-2.532-.348-3.684-.9-.067 3.435 2.635 6.43 6.447 7.148-1.208.284-2.46.325-3.684.12 1.284 3.063 4.302 5.04 7.623 5a18.02 18.02 0 0 1-11.993 2.968z" fill="#2d2d2d"/></svg>