<svg xmlns="http://www.w3.org/2000/svg" width="70.473" height="70.473" xmlns:v="https://vecta.io/nano"><path d="M35.237 70.473h0A35.21 35.21 0 0 1 .001 35.181h0C.016 15.736 15.792-.015 35.237 0h0a35.21 35.21 0 0 1 35.237 35.181h0a35.21 35.21 0 0 1-35.237 35.292z" fill="#f4fc40"/><path d="M19.082 29.447h6.842v22.1h-6.842zm3.384-2.9a4.06 4.06 0 0 0 3.97-3.284c.37-1.9-.65-3.8-2.442-4.538s-3.854-.108-4.93 1.504-.862 3.758.508 5.128a4.08 4.08 0 0 0 2.891 1.19zm14.4 13.4c0-3.178 1.424-4.915 4.1-4.915s3.716 1.737 3.716 4.95v11.6h6.877V37.68c0-5.922-3.352-8.787-8.04-8.787-2.705-.04-5.23 1.344-6.65 3.647v-3.092H30.3v22.1h6.564z" fill="#2d2d2d"/></svg>