<svg xmlns="http://www.w3.org/2000/svg" width="61.898" height="68.776" fill="#f8951d" xmlns:v="https://vecta.io/nano"><path d="M51.576 5.158a.84.84 0 0 0 .342-.072l.016-.007a.86.86 0 0 0 .44-1.128c-.2-.433-.695-.63-1.128-.44l-.014.006a.86.86 0 0 0-.493.96c.083.396.432.68.837.68zm7.744 0a2.58 2.58 0 1 1 .986-4.962 2.58 2.58 0 0 1-.987 4.962zm0-1.72a.86.86 0 1 0-.86-.86.86.86 0 0 0 .86.86zM2.58 61.898a2.58 2.58 0 0 1-2.383-1.592 2.58 2.58 0 0 1 .559-2.811 2.58 2.58 0 1 1 1.824 4.403zm0-1.72a.86.86 0 1 0-.86-.86.86.86 0 0 0 .86.86zm11.53 6.02l1.112 1.112a.86.86 0 0 1-1.216 1.216l-1.112-1.112-1.112 1.112a.86.86 0 1 1-1.216-1.216l1.112-1.112-1.112-1.112a.86.86 0 1 1 1.216-1.216l1.112 1.112 1.112-1.112a.86.86 0 0 1 1.216 1.216zM9.083 36.923a.86.86 0 0 1-1.719 0V16.555a2.8 2.8 0 0 1 2.8-2.8H54.8a2.8 2.8 0 0 1 2.8 2.8v33.947a2.8 2.8 0 0 1-2.8 2.8H10.164a2.8 2.8 0 0 1-2.8-2.8v-5.82a.86.86 0 0 1 1.719 0v5.82a1.08 1.08 0 0 0 1.081 1.08H54.8a1.08 1.08 0 0 0 1.081-1.08V16.555a1.08 1.08 0 0 0-1.081-1.081H10.164a1.08 1.08 0 0 0-1.081 1.081zm0 4.85a.86.86 0 1 1-1.719 0v-.97a.86.86 0 0 1 1.719 0z"/><path d="M10.05 14.853a.86.86 0 0 0-1.215.028.86.86 0 0 0 .028 1.215l21.94 20.945c1.102 1.048 2.832 1.048 3.934 0l10-9.544a.86.86 0 0 0-.574-1.481.86.86 0 0 0-.614.238l-10 9.544c-.438.414-1.122.414-1.56 0zm36.448 8.583a.86.86 0 0 0-.028 1.215.86.86 0 0 0 1.215.028l8.8-8.4a.86.86 0 0 0 .028-1.215.86.86 0 0 0-1.215-.028z"/><path d="M10.07 52.185a.86.86 0 0 1-1.225-1.207l17.78-18.054a.86.86 0 0 1 1.225 1.207zM37.5 34.13a.86.86 0 0 1 1.225-1.207l17.78 18.054a.86.86 0 0 1-1.225 1.207zM22.082 3.48a.86.86 0 0 1 .759 1.295.86.86 0 0 1-.759.425h-6.25a.86.86 0 0 1 0-1.72zm-5.158 4.3a.86.86 0 0 1 .759 1.295.86.86 0 0 1-.759.425H4.655a.86.86 0 0 1 0-1.72zM53.9 61.082a.86.86 0 0 1 0 1.718h-2.8a.86.86 0 0 1 0-1.72zm-1.718-4.3a.86.86 0 0 1 0 1.72H37.324a.86.86 0 0 1-.759-1.295.86.86 0 0 1 .759-.425z"/></svg>