<svg xmlns="http://www.w3.org/2000/svg" width="70.473" height="70.473" xmlns:v="https://vecta.io/nano"><path d="M35.236 70.473h0A35.21 35.21 0 0 1 0 35.181h0C.015 15.736 15.79-.015 35.236 0h0a35.21 35.21 0 0 1 35.237 35.181h0a35.21 35.21 0 0 1-35.237 35.292z" fill="#f4fc40"/><path d="M34.67 17.623l8.474.12a10.8 10.8 0 0 1 3.875.723 6.14 6.14 0 0 1 2.4 1.566c.7.665 1.246 1.492 1.566 2.4a10.8 10.8 0 0 1 .722 3.876l.12 8.474-.12 8.474a10.8 10.8 0 0 1-.723 3.875 6.93 6.93 0 0 1-4.016 4.016 10.8 10.8 0 0 1-3.875.723L34.63 52c-5.603 0-6.265 0-8.474-.12a10.8 10.8 0 0 1-3.875-.723 5.92 5.92 0 0 1-2.4-1.566 6.29 6.29 0 0 1-1.566-2.4 10.8 10.8 0 0 1-.723-3.875l-.12-8.474.12-8.474a10.8 10.8 0 0 1 .723-3.875 6.93 6.93 0 0 1 4.016-4.016 10.8 10.8 0 0 1 3.875-.723l8.474-.12m0-3.775l-8.634.12a15.72 15.72 0 0 0-5.08.964 10.84 10.84 0 0 0-6.084 6.144 15.72 15.72 0 0 0-.964 5.08l-.12 8.574.12 8.634a16.07 16.07 0 0 0 .964 5.1 10.88 10.88 0 0 0 6.144 6.124 15.2 15.2 0 0 0 5.08.964l8.634.12 8.634-.12a15.44 15.44 0 0 0 5.1-.964c2.798-1.1 5.014-3.326 6.124-6.124.596-1.637.92-3.36.964-5.1l.12-8.634-.12-8.634a15.72 15.72 0 0 0-.964-5.079c-1.102-2.808-3.32-5.033-6.124-6.144-1.637-.596-3.36-.92-5.1-.964l-8.634-.12m-.074 10.228c-5.943.036-10.733 4.883-10.698 10.826s4.88 10.733 10.824 10.7 10.734-4.88 10.7-10.823-4.88-10.733-10.823-10.7m0 17.75a6.99 6.99 0 1 1 5-2.046 6.99 6.99 0 0 1-5 2.046m13.753-18.174a2.51 2.51 0 0 1-5.02 0 2.51 2.51 0 0 1 5.02 0" fill="#2d2d2d"/></svg>