<svg xmlns="http://www.w3.org/2000/svg" xmlns:xlink="http://www.w3.org/1999/xlink" width="762.122" height="474.811" xmlns:v="https://vecta.io/nano"><style><![CDATA[.B{fill:url(#F)}.C{opacity:.4}.D{fill:url(#G)}.E{fill:url(#E)}]]></style><defs><radialGradient id="A" cx=".5" cy=".5" r=".5"><stop offset="0" stop-opacity=".188"/><stop offset="1" stop-opacity="0"/></radialGradient><linearGradient id="B" x1=".492" y1="1.41" x2=".52" y2=".002"><stop offset="0" stop-color="#796393"/><stop offset=".57" stop-color="#51396c"/><stop offset="1" stop-color="#361d52"/></linearGradient><linearGradient id="C" x1=".502" y1="1.705" x2=".499" y2="-.339"><stop offset="0" stop-color="#ab5188"/><stop offset=".2" stop-color="#93437d"/><stop offset=".74" stop-color="#561f5f"/><stop offset="1" stop-color="#3e1154"/></linearGradient><linearGradient id="D" x1=".48" y1="-2.303" x2=".507" y2="1.466"><stop offset="0" stop-color="#fbb48f"/><stop offset=".23" stop-color="#f09788"/><stop offset=".75" stop-color="#da5a78"/><stop offset="1" stop-color="#d14272"/></linearGradient><linearGradient id="E" y1=".5" x2="1" y2=".5"><stop offset="0" stop-color="#fff"/><stop offset=".56" stop-color="#dbe6f9"/><stop offset="1" stop-color="#c3d6f5"/></linearGradient><linearGradient id="F" x1=".924" y1=".937" x2=".934" y2="-.715"><stop offset="0" stop-opacity="0"/><stop offset="1"/></linearGradient><linearGradient id="G" x1="0" xlink:href="#E"/><linearGradient id="H" x1=".751" y1="-.125" x2=".42" y2=".705" xlink:href="#B"/><linearGradient id="I" x1="-.516" y1="-.485" x2="1.027" y2="1.143" xlink:href="#D"/><linearGradient id="J" x1="1.406" y1=".723" x2="-.444" y2=".312" xlink:href="#D"/><linearGradient id="K" x1="-3282.909" y1="-445.528" x2="-3281.74" y2="-445.528"><stop offset="0" stop-color="#f5f5f5"/><stop offset=".41" stop-color="#ddd"/><stop offset="1" stop-color="#b3b3b3"/></linearGradient><linearGradient id="L" x1="-105.059" y1=".502" x2="-104.058" y2=".502"><stop offset="0" stop-color="#595b68"/><stop offset=".54" stop-color="#38404e"/><stop offset="1" stop-color="#202d3b"/></linearGradient><linearGradient id="M" x1="-102.766" y1=".5" x2="-101.764" y2=".5" xlink:href="#L"/><linearGradient id="N" x1="-247.328" y1=".65" x2="-246.327" y2=".65"><stop offset="0" stop-color="#77d8fc"/><stop offset=".43" stop-color="#75c0ea"/><stop offset="1" stop-color="#719acd"/></linearGradient><linearGradient id="O" x1=".685" y1=".547" x2="-.206" y2=".258"><stop offset="0" stop-color="#e3cbba"/><stop offset=".25" stop-color="#dbbaa2"/><stop offset=".78" stop-color="#c88f65"/><stop offset="1" stop-color="#bf7c4a"/></linearGradient><linearGradient id="P" x1=".789" y1="-.007" x2=".069" y2="1.316" xlink:href="#D"/><linearGradient id="Q" x1=".792" y1="-.421" x2=".438" y2=".697"><stop offset="0" stop-color="#767aa4"/><stop offset=".55" stop-color="#5c6081"/><stop offset="1" stop-color="#4b4f69"/></linearGradient><linearGradient id="R" x1=".038" y1="1.077" x2=".683" y2=".238" xlink:href="#Q"/><linearGradient id="S" x1="0" y1=".5" x2="1" y2=".5" xlink:href="#D"/><linearGradient id="T" x1="1.441" y1="-1.295" x2="-3.755" y2="9.7"><stop offset="0" stop-color="#b4f492"/><stop offset=".3" stop-color="#8ad292"/><stop offset=".77" stop-color="#4da092"/><stop offset="1" stop-color="#358c92"/></linearGradient><linearGradient id="U" x1=".926" y1="-.098" x2=".177" y2="1.217" xlink:href="#D"/><linearGradient id="V" x1="-279499.063" y1=".495" x2="-279498.063" y2=".495" xlink:href="#N"/><linearGradient id="W" x1=".639" y1="-.673" x2=".38" y2="1.296" xlink:href="#D"/><linearGradient id="X" x1="-181.373" y1=".5" x2="-180.372" y2=".5"><stop offset="0" stop-color="#ffecdc"/><stop offset=".24" stop-color="#f6dac4"/><stop offset=".74" stop-color="#e0ad87"/><stop offset="1" stop-color="#d39364"/></linearGradient><linearGradient id="Y" x1="-288.621" x2="-287.621" xlink:href="#X"/><linearGradient id="Z" x1="-.003" y1=".498" x2=".997" y2=".498" xlink:href="#L"/><linearGradient id="a" x1="-.007" y1=".499" x2="1" y2=".499" xlink:href="#X"/><linearGradient id="b" y1=".5" x2="1" y2=".5"><stop offset="0" stop-color="#00dcac"/><stop offset=".12" stop-color="#00cea6"/><stop offset=".72" stop-color="#02918e"/><stop offset="1" stop-color="#027984"/></linearGradient><linearGradient id="c" x1="-.002" y1=".499" x2=".998" y2=".499" xlink:href="#L"/><linearGradient id="d" x1="-.013" y1=".503" x2="1" y2=".503" xlink:href="#L"/><linearGradient id="e" x1=".001" xlink:href="#b"/><linearGradient id="f" x1="1.106" y1="-.076" x2="-.071" y2="1.045" xlink:href="#T"/><linearGradient id="g" x1=".733" y1="-.221" x2=".126" y2="1.18" xlink:href="#D"/><linearGradient id="h" x1=".508" y1="-.262" x2=".497" y2=".871" xlink:href="#D"/><linearGradient id="i" x1=".984" y1="-.303" x2=".276" y2=".872" xlink:href="#E"/><linearGradient id="j" x1="1.454" y1="-.564" x2=".068" y2=".982" xlink:href="#T"/><linearGradient id="k" x1="8.175" y1="4.51" x2="9.27" y2="4.51"><stop offset="0" stop-color="#f7f7f7"/><stop offset="1" stop-color="#fff"/></linearGradient><linearGradient id="l" x1=".221" y1="2.369" x2=".779" y2="-1.369"><stop offset="0" stop-color="#b7b4b1"/><stop offset=".55" stop-color="#959390"/><stop offset="1" stop-color="#7d7b79"/></linearGradient><linearGradient id="m" x1=".234" y1="6.96" x2=".766" y2="-5.959" xlink:href="#l"/><linearGradient id="n" x1=".234" y1="6.959" x2=".766" y2="-5.959" xlink:href="#l"/><linearGradient id="o" x1=".499" y1="1.154" x2=".506" y2=".041" xlink:href="#D"/><linearGradient id="p" x1="-.993" y1=".455" x2="1.149" y2=".553" xlink:href="#D"/><linearGradient id="q" x1="1.679" y1=".487" x2="-.047" y2=".52" xlink:href="#D"/><linearGradient id="r" x1="0" x2="1" xlink:href="#X"/><linearGradient id="s" x1="-.125" y1="-.569" x2=".86" y2="1.157" xlink:href="#B"/><linearGradient id="t" x1="-53.549" x2="-52.548" xlink:href="#L"/><linearGradient id="u" x1="-49.561" x2="-48.561" xlink:href="#L"/><linearGradient id="v" x1="0" y1=".501" x2="1" y2=".501" xlink:href="#X"/><linearGradient id="w" x1="0" y1=".5" x2="1" y2=".5" xlink:href="#L"/><linearGradient id="x" x1="0" xlink:href="#b"/><linearGradient id="y" x1="-.497" y1="-.21" x2="1.074" y2="1.175" xlink:href="#b"/><linearGradient id="z" x1="-.671" y1=".302" x2=".513" y2=".457" xlink:href="#Q"/><linearGradient id="AA" x1="1.735" y1=".659" x2=".031" y2=".494" xlink:href="#Q"/><linearGradient id="AB" x1="-.002" x2="1" xlink:href="#X"/><linearGradient id="AC" x1=".837" y1="-.155" x2=".294" y2="1.154" xlink:href="#b"/><linearGradient id="AD" x1="-12.759" y1="13.368" x2="-11.774" y2="13.368" xlink:href="#X"/><linearGradient id="AE" x1="1.032" y1=".198" x2="-.061" y2=".731" xlink:href="#D"/><linearGradient id="AF" y1=".454" x2=".989" y2=".454"><stop offset="0" stop-color="gray"/><stop offset=".64" stop-color="#52524d"/><stop offset="1" stop-color="#3c3c35"/></linearGradient><linearGradient id="AG" x1="1.864" y1=".298" x2="-.305" y2=".649" xlink:href="#b"/><linearGradient id="AH" x1=".004" y1=".501" x2="1" y2=".501" xlink:href="#B"/><linearGradient id="AI" x1=".409" y1="-.077" x2=".535" y2=".776" xlink:href="#B"/><linearGradient id="AJ" x1=".998" y1="-1.745" x2=".401" y2=".999" xlink:href="#b"/><linearGradient id="AK" x1=".144" y1="-.693" x2=".542" y2="1.184" xlink:href="#b"/></defs><ellipse cx="381.061" cy="448.306" rx="381.061" ry="26.506" fill="url(#A)"/><path d="M624.86 384.538h-373.75c3.343-39.86 14.912-81.73 27.63-118.384 16.732-48.45 61.174-82.614 109.8-82.614h98.9c48.62 0 93.068 34.16 109.8 82.614 12.707 36.68 24.286 78.523 27.618 118.384z" fill="url(#B)"/><path d="M624.9 428.118c-1.074 9.917-9.478 17.413-19.453 17.35h-334.92a19.46 19.46 0 0 1-19.458-17.349c-1.348-14.488-1.333-29.07.044-43.556h373.75c1.376 14.485 1.39 29.068.04 43.556z" fill="url(#C)"/><path fill="url(#D)" d="M357.692 396.753h160.585v36.504H357.692z"/><path d="M457.607 221.335v15.073c-.005.408-.075.813-.206 1.2-.508 1.316-1.77 2.187-3.18 2.193h-32.466c-1.41-.006-2.673-.877-3.18-2.193-.134-.386-.203-.79-.206-1.2v-15.073c.02-1.862 1.525-3.366 3.387-3.387h32.466c1.862.02 3.366 1.525 3.387 3.387z" class="E"/><path d="M457.402 237.607c-.215 2.68-1.222 5.235-2.892 7.34h-33.045a13.6 13.6 0 0 1-2.892-7.341c.508 1.316 1.77 2.187 3.18 2.193h32.466c1.41-.006 2.674-.876 3.182-2.193z" class="B"/><path d="M400.122 221.335v15.073a3.74 3.74 0 0 1-.21 1.2c-.508 1.316-1.77 2.187-3.18 2.193h-32.466c-1.41-.006-2.673-.877-3.18-2.193-.13-.387-.2-.792-.206-1.2v-15.073c.02-1.862 1.525-3.366 3.387-3.387h32.466c1.863.02 3.37 1.524 3.39 3.387z" class="E"/><path d="M399.912 237.607a13.58 13.58 0 0 1-2.887 7.341h-33.05c-1.666-2.11-2.672-4.663-2.892-7.34.51 1.315 1.77 2.184 3.18 2.2h32.466c1.4-.005 2.673-.875 3.182-2.2z" class="B"/><path d="M400.122 257.3v15.078a3.74 3.74 0 0 1-.21 1.2c-.51 1.314-1.772 2.182-3.18 2.188h-32.466c-1.41-.006-2.672-.874-3.18-2.188-.13-.387-.2-.792-.206-1.2V257.3c.02-1.862 1.525-3.366 3.387-3.387h32.466c1.864.018 3.37 1.523 3.392 3.387z" class="D"/><path d="M399.912 273.572a13.58 13.58 0 0 1-2.887 7.341h-33.05c-1.666-2.11-2.673-4.662-2.892-7.34.51 1.314 1.77 2.182 3.18 2.188h32.466c1.4-.005 2.673-.873 3.182-2.188z" class="B"/><path d="M400.122 293.3v15.078c-.004.41-.075.814-.2 1.2-.51 1.314-1.772 2.182-3.18 2.188h-32.466c-1.41-.006-2.672-.874-3.18-2.188-.13-.387-.2-.792-.206-1.2V293.3c.02-1.862 1.525-3.366 3.387-3.387h32.466c1.864.018 3.37 1.523 3.392 3.387z" class="D"/><path d="M399.912 309.567a13.58 13.58 0 0 1-2.887 7.341h-33.05c-1.666-2.11-2.673-4.662-2.892-7.34.51 1.314 1.77 2.182 3.18 2.188h32.466c1.4-.005 2.673-.873 3.182-2.188z" class="B"/><path d="M518.267 221.335v15.073a3.88 3.88 0 0 1-.205 1.2c-.508 1.316-1.77 2.187-3.18 2.193h-32.457c-1.41-.006-2.673-.877-3.18-2.193-.134-.386-.203-.79-.206-1.2v-15.073c.02-1.862 1.525-3.366 3.387-3.387H514.9c1.858.026 3.356 1.53 3.377 3.387z" fill="url(#G)"/><path d="M518.072 237.607c-.215 2.68-1.222 5.235-2.892 7.34h-33.045a13.6 13.6 0 0 1-2.892-7.341c.508 1.316 1.77 2.187 3.18 2.193H514.9c1.41-.006 2.674-.876 3.182-2.193z" class="B"/><path d="M518.267 257.3v15.078a3.88 3.88 0 0 1-.205 1.2c-.51 1.314-1.772 2.182-3.18 2.188h-32.457c-1.41-.006-2.672-.874-3.18-2.188-.134-.386-.203-.79-.206-1.2V257.3c.02-1.862 1.525-3.366 3.387-3.387H514.9c1.858.026 3.356 1.53 3.377 3.387z" fill="url(#G)"/><path d="M518.072 273.572c-.215 2.68-1.222 5.235-2.892 7.34h-33.045a13.59 13.59 0 0 1-2.892-7.341c.51 1.314 1.772 2.182 3.18 2.188H514.9c1.41-.006 2.672-.874 3.18-2.188z" class="B"/><path d="M518.267 293.3v15.078c-.005.408-.075.813-.205 1.2-.51 1.314-1.772 2.182-3.18 2.188h-32.457c-1.41-.006-2.672-.874-3.18-2.188-.133-.386-.203-.79-.206-1.2V293.3c.02-1.862 1.525-3.366 3.387-3.387H514.9c1.858.026 3.356 1.53 3.377 3.387z" fill="url(#G)"/><path d="M518.072 309.567c-.215 2.68-1.222 5.235-2.892 7.34h-33.045a13.59 13.59 0 0 1-2.892-7.341c.51 1.314 1.772 2.182 3.18 2.188H514.9c1.41-.006 2.672-.874 3.18-2.188z" class="B"/><path d="M457.607 257.3v15.078c-.005.408-.075.813-.206 1.2-.51 1.314-1.772 2.182-3.18 2.188h-32.466c-1.41-.006-2.672-.874-3.18-2.188-.134-.386-.203-.79-.206-1.2V257.3c.02-1.862 1.525-3.366 3.387-3.387h32.466c1.862.02 3.366 1.525 3.387 3.387z" class="D"/><path d="M457.402 273.572c-.215 2.68-1.222 5.235-2.892 7.34h-33.045a13.59 13.59 0 0 1-2.892-7.341c.51 1.314 1.772 2.182 3.18 2.188h32.466c1.4-.005 2.673-.873 3.182-2.188z" class="B"/><path d="M457.607 293.3v15.078a3.92 3.92 0 0 1-.206 1.2c-.51 1.314-1.772 2.182-3.18 2.188h-32.466c-1.41-.006-2.672-.874-3.18-2.188-.133-.386-.203-.79-.206-1.2V293.3c.02-1.862 1.525-3.366 3.387-3.387h32.466c1.862.02 3.366 1.525 3.387 3.387z" class="D"/><path d="M457.402 309.567c-.215 2.68-1.222 5.235-2.892 7.34h-33.045a13.59 13.59 0 0 1-2.892-7.341c.51 1.314 1.772 2.182 3.18 2.188h32.466c1.4-.005 2.673-.873 3.182-2.188z" class="B"/><path d="M457.607 329.27v15.078a3.87 3.87 0 0 1-.206 1.194c-.508 1.316-1.77 2.186-3.18 2.192h-32.466c-1.4-.006-2.673-.876-3.18-2.192a3.73 3.73 0 0 1-.205-1.194V329.27c.02-1.862 1.525-3.366 3.387-3.387h32.466c1.86.022 3.365 1.526 3.386 3.387z" class="E"/><path d="M457.402 345.543c-.215 2.68-1.222 5.235-2.892 7.34h-33.045a13.6 13.6 0 0 1-2.892-7.341c.508 1.316 1.77 2.186 3.18 2.192h32.466c1.41-.006 2.673-.877 3.18-2.193z" class="B"/><path d="M215.823 55.572c64.776 14.192 148.13 53.613 148.13 53.613l11.687-16c127.942 39.695 199.82 145.893 199.82 145.893l-11.212 15.357s62.93 67.41 96.2 124.8c.76-.903 1.468-1.85 2.12-2.834l11.285-16.913a99.02 99.02 0 0 0 15.2-36.259c3.837-20.016 1.9-40.34-8.677-57.748-18.27-29.947-39.22-58.173-62.593-84.332-45.43-51.023-110.77-106.71-200.328-145.26l-1.468-.63a578.62 578.62 0 0 0-97.908-33.3A70.83 70.83 0 0 0 302.088.004c-14.407-.115-28.585 4.128-41.665 11.254-11.562 6.442-21.73 15.116-29.917 25.517l-12.656 15.9a34.56 34.56 0 0 0-2.027 2.887z" fill="url(#H)"/><path d="M553.474 265.395a32.1 32.1 0 0 0 .372 38.109l58.013 74.877c5.823 7.405 14.67 11.795 24.09 11.953s18.41-3.932 24.478-11.136c-33.28-57.367-96.2-124.8-96.2-124.8-4.183 3.028-7.82 6.747-10.752 10.997z" fill="url(#I)"/><path d="M215.822 55.573a31.3 31.3 0 0 0 15.553 46l89 32.452a32.08 32.08 0 0 0 36.416-11.256c3.16-4.074 5.585-8.67 7.16-13.58-.02-.002-83.372-39.403-148.13-53.615z" fill="url(#J)"/><path d="M617.947 181.27l-.387-.284.406.25z" fill="url(#K)"/><path d="M521.316 223.166s2.878 4.7 3.7 4.6 2.114-.886 1.58-1.767c-.4-.656 1.8-.7 2.618-.788s4.2-2.56 5.49-3.343 1.757-1.468 1.042-2.648-5.706 2.266-6.74 1.287-2.584.3-2.584.3z" fill="url(#L)"/><path d="M502.558 227.296c.03.323.65 5.457 1.42 5.7s2.3.088 2.173-.94c-.088-.763 1.914.127 2.706.382s4.894-.568 6.362-.74 2.212-.6 2.055-1.958-6.127-.333-6.666-1.654a1.8 1.8 0 0 0-2.016-.881l.03.1z" fill="url(#M)"/><path d="M502.553 227.28h6.088l-.03-.1a3.26 3.26 0 0 0-.45.078z" fill="url(#N)"/><path d="M444.814 125.37c-.142-.073-.2-.034-.2-.034-1.312-.406-3.494-3.494-5.383-5.716-1.517-1.8-1.958-2.03-1.923-3v-.152l.215-3.2.7-4.4c.042-.022.094-.007.117.034a.49.49 0 0 1 .049.137c.004.033.004.067 0 .1q0 .05 0 .117v.137c-.005.164.008.328.04.49v.2c0 .073.03.25.05.387s0 .142.03.215a2.94 2.94 0 0 1 .059.3l.1.416a3.32 3.32 0 0 0 .1.343l.206.53c.034.083.073.157.112.235.015.043.035.084.06.122 0 .04.04.073.06.117.036.055.07.112.1.17h0l.18.28.166.235.176.225c.36.42.774.793 1.228 1.11l.162.113.7.416c.2.105.412.185.63.24 0 0-1.135 2.863-.49 4.972.43 1.468 2.07 3.387 2.6 4.3l.078.142c-.005.033.01.066.04.083.186.215.186.322.05.337z" fill="url(#O)"/><path d="M422.91 130.45a2 2 0 0 0 .024.333c.004.09.017.178.04.264-.003.01-.003.02 0 .03.01.097.03.192.06.284l.117.406.2.548.176.44 5.114 34.282a4.68 4.68 0 0 0 1.365.206h29.706c-.04-.127-2.08-5.276-3.573-9.372l-.86-2.418-1.43-4.272c-2.736.88-4.894 1.38-5.7 1.09 0 0-9.582-21.47-16.816-24.068-4.067-1.468-6.68-.74-8.256.74-.1.497-.155 1-.165 1.508z" fill="url(#P)"/><path d="M428.64 167.037c.073.338 2.447 11.33 8.667 17.325 6.29 6.093 43.018 0 43.018 0l22.228 42.934h6.093c-.013-.03-.023-.06-.03-.093l-5.834-22.57-8.232-31.385-.67-2.408c-1.14-3.592-8.48-3.592-8.48-3.592h-55.395c-.463-.002-.923-.073-1.365-.2z" fill="url(#Q)"/><path d="M494.556 173.247l8.227 31.4 18.533 18.528 5.114-2.354z" fill="url(#R)"/><path d="M444.604 125.336a16.86 16.86 0 0 1-1.1 1.791c-.68.98-1.58 1.958-2.383 2.03-1.58.108-5.2-11.853-5.2-11.853l1.4-.832v.152c-.06.98.406 1.194 1.923 3 1.865 2.236 4.048 5.305 5.36 5.71z" fill="url(#S)"/><path d="M447.075 128.68l-.29.083-1.336.4-1.958-2.03a16.88 16.88 0 0 0 1.1-1.791c0 0 .07-.04.2.034.132 0 .132-.122.054-.308a13.45 13.45 0 0 1 2.219 3.613z" fill="url(#T)"/><path d="M453.85 151.18l-3.274.92a5.27 5.27 0 0 1-2.422.176 128.79 128.79 0 0 0-7.385-13.869l-.524-.822-1.468-2.163-.436-.607-.44-.6-.436-.577-.666-.837-.225-.264-.44-.52a22 22 0 0 0-1.781-1.83 7.23 7.23 0 0 0-.357-.318l-.3-.254-.28-.22-.812-.563a6.61 6.61 0 0 0-.592-.338l-.26-.122a.49.49 0 0 0-.1-.039 3.07 3.07 0 0 0-.328-.132c-4.062-1.468-6.675-.74-8.256.74a27.61 27.61 0 0 1 11.256-10.7l1.59-.94s3.622 11.96 5.2 11.853c.8-.06 1.7-1.062 2.383-2.03l1.958 2.03 1.336-.4c.622 1.57 1.4 3.86 2.325 7.194l1.424 4.855 1.914 6.108 1.393 4.27z" fill="url(#U)"/><path d="M437.322 116.713h0v-.475z" fill="url(#V)"/><path d="M450.54 140.81l1.91 6.108 9.974-10.023-3.073-3.06-.866.7c-1.464 1.2-4.596 3.724-7.944 6.274z" fill="url(#W)"/><path d="M471.628 144.183l2.13 3.778s3.568-1.786 4.835-3.2c.16-.165.292-.358.387-.568.587-1.468 1.037-4.258 0-5.36a2.5 2.5 0 0 0-3.915.979c-.465 1.566-1.33 1.67-1.33 1.67l-.744-.524z" fill="url(#X)"/><path d="M459.35 133.837l3.073 3.06 1.84-1.928-3.088-2.11a8.05 8.05 0 0 1 .631-1.312c.24-.347.23-1.85-.65-1.36a4.21 4.21 0 0 0-1.17 1.855c-.376.904-.635 1.795-.635 1.795z" fill="url(#Y)"/><path d="M451.955 103.264c.458.632.657 1.414.558 2.188-.113 1.468-1.776 1.5-2.276 1.468-.448.004-.892.087-1.312.245l.19-.74a3.72 3.72 0 0 0-.034-.431.62.62 0 0 0 0-.093c-.003-.038-.003-.075 0-.113v-.215a.67.67 0 0 0-.029-.24l-.27-1.958-.113-.617c-.328-1.56-2.545-2.97-4.072-1.855a1.96 1.96 0 0 0-.166.132l-.313.27-.1.083-.137.1c-.466.274-.898.603-1.287.98l-.162.215c-.083.115-.16.234-.23.357a7.31 7.31 0 0 0-.313.636l-.176.4-.093.23c-1.028 2.54-1.894 4.654-2.3 2.026-.02-.166-.052-.33-.1-.49a2.42 2.42 0 0 0-.113-.333 2.64 2.64 0 0 0-.152-.367h0l-.17-.308c-.002-.01-.002-.023 0-.034l-.118-.176a2.06 2.06 0 0 0-.176-.225l-.137-.16c-.044-.05-.09-.098-.142-.142l-.2-.176-.2-.152-.2-.137-.22-.108c-.07-.036-.14-.067-.215-.093a1.88 1.88 0 0 0-.431-.093c-.08-.007-.16-.007-.24 0a2.11 2.11 0 0 0-1.8 1.145c-.89 1.468.45 2.892 1.767 3.724l.636.357.17.083a2.41 2.41 0 0 0 .245.1l.22.083a1.58 1.58 0 0 0 .259.069c.1.03.207.03.308 0l-.7 4.4-1.4-2.58-.4-.754s-5.52-7.5-.49-10.44a6.8 6.8 0 0 1 7-4.938c5.8.108 7.077.558 9.352 2.383s4.992.117 4.894 1.5-3.112 5.068-4.615 4.793z" fill="url(#Z)"/><path d="M449.116 106.376l-.19.74-.524 1.7c-.98 2.936-2.936 7.434-5.74 6.75h0c-.22-.055-.43-.135-.63-.24h0l-.7-.416-.16-.113c-.454-.318-.867-.69-1.228-1.11l-.176-.225-.166-.235-.18-.28a1.96 1.96 0 0 0-.1-.171c0-.044-.04-.078-.06-.117a.56.56 0 0 1-.059-.122l-.113-.235-.206-.53-.1-.343-.1-.416-.06-.3a1.41 1.41 0 0 1-.029-.215c0-.07-.04-.264-.05-.387a1.31 1.31 0 0 1 0-.2 1.83 1.83 0 0 0-.039-.489v-.254c.005-.033.005-.067 0-.1-.007-.048-.024-.095-.05-.137-.01-.02-.03-.035-.05-.04s-.046-.004-.066.007h0c-.1.03-.207.03-.308 0l-.26-.07-.22-.083-.245-.1-.17-.083c-.2-.1-.42-.225-.636-.357-1.317-.832-2.657-2.266-1.767-3.724a2.11 2.11 0 0 1 1.8-1.145c.08-.007.16-.007.24 0a1.88 1.88 0 0 1 .431.093c.074.026.146.057.215.093l.22.108.2.137.2.152c.06.064.127.113.2.176a1.3 1.3 0 0 1 .142.142l.137.16c.064.073.122.152.176.225l.117.176c-.002.01-.002.023 0 .034l.17.308a2.64 2.64 0 0 1 .152.367 2.44 2.44 0 0 1 .112.333 2.8 2.8 0 0 1 .1.489c.41 2.628 1.277.514 2.305-2.026l.093-.23.176-.4.313-.636a3.84 3.84 0 0 1 .23-.357l.16-.215a8.77 8.77 0 0 1 1.287-.979l.137-.1.1-.083.313-.27a1.98 1.98 0 0 1 .166-.132c1.527-1.116 3.744.294 4.072 1.855l.113.617.27 1.958c-.006.08.004.163.03.24.015.07.015.144 0 .215-.003.038-.003.075 0 .113a.62.62 0 0 1 0 .093l.006.383z" fill="url(#a)"/><path d="M438.902 102.73l-1.326-.147c0-.083.06-8.143 7.126-8.26l2.14.455c-7.785-.455-7.934 7.88-7.94 7.953z" fill="url(#b)"/><path d="M440.453 108.06a16 16 0 0 0 1.728 3.959l-.524.343s-1.58-2.447-1.57-3.945z" fill="url(#c)"/><path d="M441.667 111.912h0a.61.61 0 0 1 .827.132l.524.67a.61.61 0 0 1-.127.871h0c-.273.195-.65.136-.852-.132l-.49-.675a.61.61 0 0 1 .117-.866z" fill="url(#d)"/><path d="M441.364 106.054c0 1.535-.925 2.918-2.343 3.505s-3.05.26-4.134-.824-1.408-2.718-.82-4.135 1.973-2.34 3.508-2.338c2.093.003 3.788 1.7 3.788 3.793z" fill="url(#e)"/><path d="M460.656 168.843l-7.14-3.543c-.12-.052-.203-.16-.225-.29-.44-2.383-1.5-7.37-2.716-12.886l-5.124-22.943 1.336-.4.29-.083 14.163 39.64a.41.41 0 0 1-.582.5z" fill="url(#f)"/><path d="M422.91 130.45a2 2 0 0 0 .024.333c.004.09.017.178.04.264-.003.01-.003.02 0 .03.01.097.03.192.06.284l.117.406.2.548.176.44c2.765 6.6 14.1 21.64 19.13 28.19 1.39 1.8 3.89 2.312 5.873 1.2l25.218-14.182-2.13-3.778-1.023.44c-2.853 1.238-11.02 4.723-16.757 6.558-2.736.88-4.894 1.38-5.7 1.09 0 0-9.582-21.47-16.815-24.068-4.067-1.468-6.68-.74-8.256.74a8.52 8.52 0 0 0-.156 1.507z" fill="url(#g)"/><g transform="translate(124.384 253.819)"><g transform="translate(.015)"><path d="M193.555 66.03l-86.25-63.695c-4.218-3.115-9.974-3.115-14.192 0l-86.26 63.7C2.538 69.228-.005 74.278 0 79.645h0l68.212 56.77 24.768-18.783a11.96 11.96 0 0 1 14.447 0L132.2 136.42l68.207-56.77a16.93 16.93 0 0 0-6.862-13.62z" fill="url(#h)"/><g transform="translate(22.585 21.52)"><path fill="url(#i)" d="M0 0h157.203v136.433H0z"/><g transform="translate(51.265 .773)"><circle cx="22.258" cy="22.258" r="22.258" transform="matrix(.22971 -.973259 .973259 .22971 0 43.325)" fill="url(#j)"/><path d="M33.777 41.506a16.68 16.68 0 0 1-8.148 1.83c-7.5 0-13.86-5.486-13.864-14.27 0-9.426 6.543-17.57 16.7-17.57 7.962 0 13.312 5.584 13.312 13.214 0 6.85-3.842 10.884-8.14 10.884-1.83 0-3.524-1.233-3.387-4.023h-.18c-1.605 2.7-3.7 4.028-6.45 4.028-2.657 0-4.943-2.153-4.943-5.765-.01-2.878 1.13-5.64 3.165-7.675s4.797-3.174 7.675-3.165c1.682-.02 3.35.313 4.894.98l-1.55 8.28c-.7 3.475-.137 5.075 1.37 5.12 2.334.05 4.943-3.064 4.943-8.37 0-6.636-3.984-11.393-11.075-11.393-7.453 0-13.7 5.9-13.7 15.17 0 7.64 4.987 12.352 11.745 12.352 2.397.06 4.77-.486 6.9-1.586zm-2.5-19.762a7.97 7.97 0 0 0-2.29-.318c-4.023 0-7.272 3.8-7.272 8.232 0 2.016 1.008 3.48 3.02 3.48 2.628 0 5.075-3.377 5.564-6.225z" fill="url(#k)"/></g><g transform="translate(14.682 58.12)"><rect width="69.132" height="10.096" rx="5.048" fill="url(#l)" class="C"/><path fill="url(#m)" d="M0 14.236h125.47v5.046H0z" class="C"/><path fill="url(#n)" d="M0 23.427h125.47v5.046H0z" class="C"/><path fill="url(#m)" d="M0 32.613h125.47v5.046H0z" class="C"/><g fill="url(#n)"><path d="M0 41.804h125.47v5.046H0z" class="C"/><path d="M0 50.995h125.47v5.046H0z" class="C"/></g></g></g></g><path d="M200.44 188.14v9.935H.005v-9.935l93-70.5a11.96 11.96 0 0 1 14.447 0l24.783 18.788z" fill="url(#o)"/><path d="M68.212 136.435L.005 188.144v-108.5z" fill="url(#p)"/><path d="M200.436 79.64v108.5l-68.207-51.71z" fill="url(#q)"/></g><g transform="translate(53.114 244.801)"><path d="M41.506 19.4l-.215 2.785-4.835.856-.744-2.94z" fill="url(#r)"/><path d="M45.983 18.765c-8.58 2.364-4.747-.078-11.966 1.91l-.347-1.277-.65-2.347 2.285-.63 5.24-1.468 4.086-1.126z" fill="url(#s)"/><path d="M32.966 199.022s0 6.176.852 6.563 2.545.382 2.545-.773c0-.86 2.12.387 2.966.773s5.515 0 7.214 0 2.545-.387 2.545-1.933-6.768-1.145-7.21-2.7-2.55-1.958-2.55-1.958z" fill="url(#t)"/><path d="M.822 199.02s0 6.176.852 6.563 2.545.382 2.545-.773c0-.86 2.12.387 2.97.773s5.515 0 7.21 0 2.545-.387 2.545-1.933-6.788-1.155-7.21-2.7-2.545-1.958-2.545-1.958z" fill="url(#u)"/><path d="M25.522 25.346c-.712-.012-1.4-.258-1.958-.7a8.1 8.1 0 0 1-2.212-3 4.04 4.04 0 0 1-3.656-1.233c-1.67-1.723-.377-4.84.915-4.468s2.755 3.915 3.23 4.953.905 1.982.8-.328-.426-4.458.06-5.32.7-1.723.98-2.148 2.046 0 2.046 0l.724 4.072c.507 3.562.835 8.172-.927 8.172z" fill="url(#v)"/><path d="M29.363 12.9s.323 2.5-.724 3.548a2.35 2.35 0 0 1-2.2.715l-.724-4.072s-1.777-.43-2.046 0-.49 1.292-.98 2.148-.166 3-.06 5.32-.318 1.346-.8.328-1.958-4.57-3.23-4.953-2.584 2.745-.915 4.468a4.04 4.04 0 0 0 3.656 1.233l-2.72 3.7-1.713.2a35.09 35.09 0 0 1-3.024-3c-2.055-2.217-9.112-18.107 9.19-17.05 0 0 6.773-4.434 8.95 2.178.292 2.13-.77 4.218-2.663 5.237z" fill="url(#w)"/><path d="M23.95 30.984c-.122-.147-2.33-2.608-7.042-2.24v-3.19l1.713-.2 2.736-3.7a8.1 8.1 0 0 0 2.212 3s-.563 4.453.38 6.342z" fill="url(#r)"/><path d="M26.843 36.367c-.235-.294-5.5-6.7-10.7-6.044l.768-1.58c4.713-.367 6.92 2.095 7.042 2.24h0a16.55 16.55 0 0 1 1.9 2.2l1 3.184z" fill="url(#x)"/><path d="M34.9 89.148H4.694S4.16 64.32 6.955 48.41s9.186-18.108 9.186-18.108c5.2-.66 10.468 5.75 10.7 6.044h0v.044c0 .088.078.3.225.876h0l1.786 6.92c.436 1.68 1.126 6.2 1.894 11.79L34.09 82.48l.8 6.667z" fill="url(#y)"/><path d="M39.415 199.027h-6.45s-7.092-55.25-9.892-63.22l-.822-2.256c-4.21-11.256-17.56-44.4-17.56-44.4h30.205s4.3 38.706 3.87 50.1.647 59.776.647 59.776z" fill="url(#z)"/><path d="M21.426 133.38a24.61 24.61 0 0 0-.308 2.936c-.127 3.426-15.475 62.52-15.475 62.52H0c0-10.033 7.082-63 7.082-63-2.256-17.413-3.225-46.87-3.225-46.87l17.57 44.403z" fill="url(#AA)"/><path d="M39.416 101.162c-.054 1.228-2.32 3.68-3.127 4.14s-3.264-1.224-3.915-2.447c-.497-1.393-.797-2.85-.89-4.326l4.258-1.6s3.724 3.005 3.675 4.233z" fill="url(#AB)"/><path d="M46.08 56.67c-1.914 3.127-8.81 1.468-12.68.245-1.57-.49-2.628-.93-2.628-.93-.05-.318-.093-.64-.132-.954-.715-5.144-1.35-9.25-1.762-10.83l-1.786-6.92.113.113 3 2.887c2.843 2.71 6.7 6.3 7.37 6.5 1.077.318-1.126-23.76-1.126-23.76l4.835-.856s7.468 30.098 4.786 34.505z" fill="url(#AC)"/><path d="M27.093 37.297h0" fill="none" stroke="#000" stroke-miterlimit="10"/><path d="M40.42 14.814s1.674 2.006.778 2.383-1.116.16-1.116.16-1.253.89-1.63.73-.323.778-1.194.582-.382.352-.92.377-1.248-2.59-.98-2.936 2.99-1.894 5.06-1.296z" fill="url(#AD)"/><path d="M39.416 81.445l-2.54 4.18-2.76-3.113-3.343-26.506c-.768-5.58-1.468-10.11-1.894-11.79l-2.01-7.796c.45 1.308 9.577 27.534 12.548 45.025z" fill="url(#AE)"/><path transform="matrix(.9486 -.316477 .316477 .9486 26.632 36.44)" fill="url(#AF)" d="M0 0h.445v.054H0z"/><path d="M35.726 96.93l-4.258 1.6S17.276 78.953 16.14 73.3s-1.987-36 6.935-38.354c6.573-1.732 7.737 7.987 7.737 7.987 1.728 11.882-3.964 28.913-3.964 28.913z" fill="url(#AG)"/><path d="M33.668 19.4l-2.936-1.277-2.266-.215v-1.762l2.506.245c.392.07 2.026.66 2.026.66z" fill="url(#AH)"/><path d="M77.858 12.406L45.984 19.4v-.63l-1.35-4.894-.318-.866L73.865 0c3.394 3.162 4.905 7.858 3.993 12.406z" fill="url(#AI)"/><path d="M63.533 15.856l-6.078 1.4a.7.7 0 0 1-.8-.411L53.45 9.19a.69.69 0 0 1 .357-.9l5.638-2.5c.17-.077.365-.082.54-.013s.313.203.386.375l3.666 8.755c.08.19.068.407-.028.6s-.27.313-.472.355z" fill="url(#AJ)"/></g><path d="M543.662 453.566s5.755-15.988 22.38-9.592c0 0 3.22-25.248 25.89-28.585s32.3 18.352 32.3 18.352 6.4-8.32 16.64-5.114 10.15 10.43 10.15 10.43 4.63-6.362 15.7-3.186 9.3 11.94 9.3 11.94 23-7.674 28.135 5.755z" fill="url(#AK)"/></svg>