<svg xmlns="http://www.w3.org/2000/svg" width="64.393" height="56.388" fill="#f8951d" xmlns:v="https://vecta.io/nano"><path d="M19.063 36.803q1.163 1.674 2.44 3.266l-3.266.815-1.413.47c-.796.285-1.57.63-2.314 1.03-.518.274-1.005.604-1.45.984l-.2.182-.167.175-.136.164c-.216.23-.325.538-.3.852.047.197.137.38.264.54a4.04 4.04 0 0 0 .768.764c.385.296.794.56 1.222.792a16.6 16.6 0 0 0 2.148.967 28.91 28.91 0 0 0 3.143.963l3.523.712a62.24 62.24 0 0 0 18.755 0 43.07 43.07 0 0 0 3.523-.712 28.91 28.91 0 0 0 3.143-.963 16.6 16.6 0 0 0 2.148-.972c.428-.23.837-.496 1.222-.792a4.04 4.04 0 0 0 .768-.764c.127-.158.217-.342.264-.54a1.12 1.12 0 0 0-.3-.852l-.138-.164s-.1-.117-.165-.175-.132-.123-.2-.182c-.446-.38-.933-.7-1.45-.984a16.91 16.91 0 0 0-2.314-1.029 26.58 26.58 0 0 0-1.413-.471l-3.264-.815q1.272-1.593 2.44-3.266l1.047.273a31.58 31.58 0 0 1 2.277.714l1.5.59a21.85 21.85 0 0 1 1.2.567 16.4 16.4 0 0 1 .787.439l.588.37c1.36.812 2.4 2.064 2.95 3.55a4.63 4.63 0 0 1 .145.64 4.35 4.35 0 0 1 .037 1c-.033.438-.13.868-.288 1.278-.235.596-.57 1.148-.99 1.63-.62.705-1.342 1.312-2.143 1.8a18.51 18.51 0 0 1-3.392 1.637 33.66 33.66 0 0 1-4.468 1.308 52.06 52.06 0 0 1-6.058.973 67.88 67.88 0 0 1-13.652 0 52.06 52.06 0 0 1-6.058-.973c-1.518-.332-3.01-.77-4.468-1.308-1.13-.4-2.216-.928-3.246-1.546-.8-.48-1.547-1.075-2.185-1.767-.43-.473-.78-1.013-1.036-1.6a4.62 4.62 0 0 1-.348-1.428c-.026-.334-.014-.67.037-1a4.72 4.72 0 0 1 .145-.642c.522-1.43 1.508-2.644 2.8-3.45a13.27 13.27 0 0 1 .578-.376 19.73 19.73 0 0 1 .776-.445 17.14 17.14 0 0 1 1.181-.575l1.482-.6a31.49 31.49 0 0 1 2.039-.664l1.484-.392zM32.702 1.83A16.75 16.75 0 0 1 49.441 18.57c0 13.68-16.74 27.9-16.74 27.9s-16.74-14.217-16.74-27.9A16.75 16.75 0 0 1 32.702 1.831zm0 9.3a7.44 7.44 0 0 1 5.261 12.701 7.44 7.44 0 0 1-12.701-5.261c.001-4.11 3.33-7.44 7.44-7.44z" fill-rule="evenodd"/><path d="M54.272 5.546c-.1 0-.182-.02-.265-.056l-.012-.005a.66.66 0 1 1 .534-1.214h.01c.286.127.445.437.38.744s-.334.526-.648.527zm-5.998.004a2 2 0 1 0 0-4 2 2 0 1 0 0 4zm0-1.332c-.368.001-.667-.296-.668-.664s.296-.667.664-.668.667.296.668.664-.298.663-.664.664zM2 51.062a2 2 0 1 1 0-4 2 2 0 1 1 0 4zm0-1.332c.367-.001.664-.3.664-.667s-.298-.665-.665-.665-.666.297-.667.664a.66.66 0 0 0 .196.47c.126.124.295.194.472.194zm8.933 4.66l.86.86c.26.26.26.682 0 .942s-.682.26-.942 0l-.86-.863-.86.86c-.26.26-.682.26-.942 0s-.26-.682 0-.942l.86-.86-.86-.86c-.26-.26-.26-.682 0-.942s.682-.26.942 0l.86.86.86-.86c.26-.26.682-.26.942 0s.26.682 0 .942zM18.66 2.698c.368 0 .666.298.666.666s-.298.666-.666.666l-4.84-.004c-.34-.035-.598-.32-.598-.663s.26-.628.598-.663zm-3.997 3.33c.368 0 .666.298.666.666s-.298.666-.666.666L5.16 7.357c-.34-.035-.598-.32-.598-.663s.26-.628.598-.663zM63.45 37.254c.368 0 .666.298.666.666s-.298.666-.666.666l-2.176-.004c-.34-.035-.598-.32-.598-.663s.26-.628.598-.663zm-1.333-3.33c.368 0 .666.298.666.666s-.298.666-.666.666l-11.5-.004c-.34-.035-.598-.32-.598-.663s.26-.628.598-.663z"/></svg>