<svg xmlns="http://www.w3.org/2000/svg" width="19.526" height="17.179" xmlns:v="https://vecta.io/nano"><path d="M19.31 14.62L11.044.78c-.26-.46-.74-.753-1.27-.775s-1.03.23-1.33.667L.242 14.596a1.71 1.71 0 0 0 1.3 2.581h16.444c.576-.062 1.083-.41 1.35-.923s.256-1.13-.026-1.635zm-9.588.217c-.587 0-1.063-.476-1.063-1.063S9.134 12.7 9.72 12.7s1.063.476 1.063 1.063-.476 1.062-1.063 1.063zm1.128-3.9c-.018.586-.498 1.052-1.085 1.052s-1.067-.466-1.085-1.052V5.38c.018-.586.498-1.052 1.085-1.052s1.067.466 1.085 1.052z" fill="#ff4747"/></svg>