<svg xmlns="http://www.w3.org/2000/svg" width="24.568" height="21.048" xmlns:v="https://vecta.io/nano"><path d="M24.514.02c.61.437-4.105 20.816-4.425 21.02-.175.116-1.863-.932-5.735-3.814-1.485-1.106-.932-1.077-4.513 2.446-.7.67-.7.67-1.135-.553l-1.863-4.89c-.466-1.223-.466-1.223-1.6-1.805C1.805 10.675 0 9.86 0 9.57 0 8.87 23.815-.476 24.514.02zM9 15.915c-.29-.67-.873-2.387-1.135-3.232-.29-.873-.29-.873 1.834-2.3 13.155-8.82 13.243-9.607 1.8 1.37-2.242 2.154-1.718 1.4-2.038 3.872-.058.378-.116.67-.2.64q-.09.001-.262-.35z" fill="#fff" fill-rule="evenodd"/></svg>