<svg xmlns="http://www.w3.org/2000/svg" width="560.592" height="66.055" xmlns:v="https://vecta.io/nano"><path d="M277.7 34.544c-15.1-9.363-34.95-10.316-54.9-11.606a537.37 537.37 0 0 0-46.112-1.906c-23.88.5-47.576 2.523-71.364 3.532-11.894.56-23.88.617-35.774.45-19.4 0-34.767-6.56-49.315-13.512-3.11-1.458-4.21-4.317-6.862-6.167a49.05 49.05 0 0 0-7.96-3.588C3.583 3.428.38 4.998.106 6.792c-.376 2.515.395 5.066 2.1 6.952C19.04 31.013 41.64 42.338 76.773 40.432l74.658-4.205c19.945-.953 39.982-1.626 59.928-1.794 9.655.263 19.262.994 28.73 2.187 1.1 0 2.928.5 2.928.73 0 5.607 8.234 5.046 13.083 7.008 8.663 4.535 15.358 10.313 19.488 16.82 2.542 1.946 5.306 3.583 8.234 4.878a32.19 32.19 0 0 0 8.241-6.224c2.38-3.925 1.738-8.522 4.575-12.167 10.156-12.9 30.467-15.643 50.87-18.446 26.35-3.588 51.327.5 76.214 4.7a338.03 338.03 0 0 0 57.825 3.083c14.913 0 29.735-1.458 44.648-2.3a11.76 11.76 0 0 0 3.843-.9c14.12-6.965 24.638-16.294 30.284-26.852.74-1.818-.06-3.742-2.114-5.127a12.91 12.91 0 0 0-8.133-1.769c-1.776.55-3 1.6-3.294 2.8-.278 4.23-4.418 8-10.7 9.756a163.99 163.99 0 0 1-51.236 8.8c-39.982.45-79.05-4.6-118.94-6-27.448-1.01-53.98.84-76.03 12.447-4.03 2.085-7.597 4.38-12.172 6.678z" fill="#2d2d2d"/></svg>