<svg xmlns="http://www.w3.org/2000/svg" width="130.655" height="130.721" viewBox="0 0 130.655 130.721"><g id="value" transform="translate(-25.108 -24.989)"><path id="Path_4095" fill="#fff" d="M141.108,287.134l-.671.362c-2.711-3.29-7.408-4.565-10.987-2.751l-.038.02-1.584.853a12.032,12.032,0,0,0-13.779-1.245l-8.532,4.64H94.164a16.4,16.4,0,0,1-7.1-1.627l-1.562-.755a26.792,26.792,0,0,0-27.883,2.723c-.037.028-.073.057-.108.089L53.742,292.8a13.079,13.079,0,0,1-4.935,2.751l-2.142-7.03a1.7,1.7,0,0,0-1.624-1.2H26.806a1.7,1.7,0,0,0-1.685,1.9L31.2,339.062a1.7,1.7,0,0,0,1.685,1.492H60.236a1.7,1.7,0,0,0,1.624-2.193l-3.593-11.791L69.458,319.5a6.734,6.734,0,0,1,4.913-.636c.035.009.07.017.106.023l22.764,4.192a29.458,29.458,0,0,0,18.2-2.57,1.673,1.673,0,0,0,.208-.122l39.374-27.035a1.7,1.7,0,0,0,.493-2.275A10.808,10.808,0,0,0,141.108,287.134Zm-10.105.63c2.07-1.036,4.675-.187,6.339,1.4l-14.931,8.055-.877.462a12.945,12.945,0,0,0-2.045-3.715Zm-15.31-.42c.013-.008.028-.015.04-.023a8.634,8.634,0,0,1,8.781.083l-7.591,4.087a12.9,12.9,0,0,0-4.849-2.182ZM34.386,337.159l-5.663-46.446h15.06l14.161,46.446Zm79.443-19.644a26.04,26.04,0,0,1-15.98,2.22L75.14,315.554a10.122,10.122,0,0,0-7.38,1c-.026.014-.053.03-.078.047l-10.444,6.6L49.8,298.8a16.485,16.485,0,0,0,6.2-3.468l3.717-3.31a23.409,23.409,0,0,1,24.309-2.338l1.562.755a19.815,19.815,0,0,0,8.577,1.965h15.144a9.578,9.578,0,0,1,9.393,7.778l-10.976-.5a65.728,65.728,0,0,0-11.945.552,1.7,1.7,0,1,0,.466,3.363,62.237,62.237,0,0,1,11.326-.523l12.918.584.077,0a1.7,1.7,0,0,0,1.7-1.7c0-.275-.012-.547-.028-.818l1.771-.934,18.716-10.094a7.417,7.417,0,0,1,8.925,1.431Z" data-name="Path 4095" transform="translate(0 -184.845)"/><path id="Path_4096" fill="#fff" d="M76.974,436.643a5.345,5.345,0,1,0,5.345-5.345A5.345,5.345,0,0,0,76.974,436.643Zm5.345-1.949a1.949,1.949,0,1,1-1.949,1.949,1.949,1.949,0,0,1,1.949-1.949Z" data-name="Path 4096" transform="translate(-37.192 -291.351)"/><path id="Path_4097" fill="#fff" d="M236.306,43.469V37.875a12.886,12.886,0,1,0-25.772,0v5.594a12.886,12.886,0,1,0,25.772,0Zm-22.376,0V37.875a9.491,9.491,0,1,1,18.981,0v5.594a9.491,9.491,0,1,1-18.981,0Z" data-name="Path 4097" transform="translate(-132.964)"/><path id="Path_4098" fill="#fff" d="M101.877,172.841h41.541a1.7,1.7,0,0,0,1.7-1.7v-3.9h28.437a1.7,1.7,0,0,0,1.7-1.7V154.531a12.724,12.724,0,0,0-11.914-12.691,1.981,1.981,0,0,0-1.748.967,7.791,7.791,0,0,1-12.291-.3,1.7,1.7,0,0,0-1.408-.688,12.585,12.585,0,0,0-6.245,1.822,14.27,14.27,0,0,0-9.959-4.94,2.065,2.065,0,0,0-1.751,1.019,9.141,9.141,0,0,1-14.423-.352,1.692,1.692,0,0,0-1.408-.688,14.207,14.207,0,0,0-9.859,4.3c-.214.219-.418.446-.616.677a12.622,12.622,0,0,0-5.788-1.817,1.985,1.985,0,0,0-1.748.967,7.79,7.79,0,0,1-12.291-.3,1.7,1.7,0,0,0-1.408-.688A12.719,12.719,0,0,0,70,154.531v11.019a1.7,1.7,0,0,0,1.7,1.7H100.18v3.9A1.7,1.7,0,0,0,101.877,172.841Zm45.288-27.574a11.187,11.187,0,0,0,16.75.044,9.333,9.333,0,0,1,7.941,9.22v9.321h-26.74v-10.89a14.2,14.2,0,0,0-1.569-6.5A9.176,9.176,0,0,1,147.165,145.267Zm-33.792-3.142a12.538,12.538,0,0,0,18.938.045,10.9,10.9,0,0,1,9.41,10.791v16.484H103.575V152.961A10.967,10.967,0,0,1,113.373,142.125ZM73.4,163.852v-9.321a9.387,9.387,0,0,1,8.277-9.263,11.187,11.187,0,0,0,16.747.043,9.262,9.262,0,0,1,3.313,1.169,14.223,14.223,0,0,0-1.552,6.481v10.89Z" data-name="Path 4098" transform="translate(-32.191 -81.523)"/><path id="Path_4099" fill="#fff" d="M354.111,66.647v-4.9a11.49,11.49,0,1,0-22.981,0v4.9a11.49,11.49,0,1,0,22.981,0Zm-19.586,0v-4.9a8.1,8.1,0,0,1,16.19,0v4.9a8.1,8.1,0,0,1-16.19,0Z" data-name="Path 4099" transform="translate(-219.439 -18.121)"/><path id="Path_4100" fill="#fff" d="M122.627,66.647v-4.9a11.49,11.49,0,0,0-22.981,0v4.9a11.49,11.49,0,0,0,22.981,0Zm-19.586,0v-4.9a8.1,8.1,0,1,1,16.19,0v4.9a8.1,8.1,0,1,1-16.19,0Z" data-name="Path 4100" transform="translate(-53.449 -18.121)"/></g></svg>