<svg xmlns="http://www.w3.org/2000/svg" xmlns:xlink="http://www.w3.org/1999/xlink" width="1920.301" height="573.582" xmlns:v="https://vecta.io/nano"><style><![CDATA[.B{fill:none}.C{stroke:#f8951d}.D{stroke-width:6}.E{fill:#2d2d2d}.F{fill:#fff}.G{stroke:none}.H{stroke-dasharray:7 10}]]></style><defs><clipPath id="A"><path d="M-19245,2643V2456h187v187Zm-187,0V2269h187v374Zm187-327v-47h187v47Z" transform="translate(20451 -1154)" fill="#df3c3c"/></clipPath><clipPath id="B"><path transform="translate(152 911)" fill="red" d="M0 0h1043v490H0z"/></clipPath><clipPath id="C"><path transform="translate(0 1288)" fill="red" d="M0 0h152v98H0z"/></clipPath><clipPath id="D"><path transform="translate(1810 890)" fill="red" d="M0 0h111v98H0z"/></clipPath><clipPath id="E"><path transform="translate(1379 911)" fill="#01f" d="M0 0h431v329H0z"/></clipPath><clipPath id="F"><path d="M-19289,2554V2411h143v143Zm-143,0V2269h143v285Z" transform="translate(20171 -1109)" fill="#6b2929"/></clipPath><path id="G" d="M.23 1359.112s171.914 25.825 281.992-139.433 205.453-287.745 390.426-285.434 336.7 146.33 349.467 294.68"/></defs><g transform="translate(0 -948.686)" clip-path="url(#A)" class="B C D"><ellipse cx="1205.5" cy="1302" rx="183.5" ry="184"/></g><g transform="translate(0 -883.686)" class="B C D"><g clip-path="url(#B)"><use xlink:href="#G"/></g><g clip-path="url(#C)" class="H"><use xlink:href="#G"/></g></g><g transform="translate(-.699 -883.686)" class="B C D"><g clip-path="url(#D)" class="H"><path d="M1388.998 1237.417S1403.582 893.765 1921 932.903"/></g><g clip-path="url(#E)"><path d="M1389.7 1237.417c0-74.16 14.584-343.652 532.002-304.514"/></g></g><g class="C F"><circle cx="166.5" cy="442.814" r="19.5" class="G"/><circle cx="166.5" cy="442.814" r="16.5" class="B D"/></g><circle cx="166.5" cy="442.814" r="6.5" class="E"/><g class="C F"><circle cx="345.5" cy="243.814" r="19.5" class="G"/><circle cx="345.5" cy="243.814" r="16.5" class="B D"/></g><circle cx="345.5" cy="243.814" r="6.5" class="E"/><g transform="translate(0 -948.686)" clip-path="url(#F)" class="B C D"><ellipse cx="882" cy="1302.5" rx="140" ry="139.5"/></g><g class="C F"><circle cx="564.5" cy="65.814" r="19.5" class="G"/><circle cx="564.5" cy="65.814" r="16.5" class="B D"/></g><circle cx="564.5" cy="65.814" r="6.5" class="E"/><g class="C F"><circle cx="860.5" cy="106.814" r="19.5" class="G"/><circle cx="860.5" cy="106.814" r="16.5" class="B D"/></g><circle cx="860.5" cy="106.814" r="6.5" class="E"/><g class="C F"><circle cx="790.5" cy="457.814" r="19.5" class="G"/><circle cx="790.5" cy="457.814" r="16.5" class="B D"/></g><circle cx="790.5" cy="457.814" r="6.5" class="E"/><g class="C F"><circle cx="1140.5" cy="524.814" r="19.5" class="G"/><circle cx="1140.5" cy="524.814" r="16.5" class="B D"/></g><circle cx="1140.5" cy="524.814" r="6.5" class="E"/><g class="C F"><circle cx="1373.5" cy="425.814" r="19.5" class="G"/><circle cx="1373.5" cy="425.814" r="16.5" class="B D"/></g><circle cx="1373.5" cy="425.814" r="6.5" class="E"/><g class="C F"><circle cx="1542.801" cy="100.814" r="19.5" class="G"/><circle cx="1542.801" cy="100.814" r="16.5" class="B D"/></g><circle cx="1542.801" cy="100.814" r="6.5" class="E"/><g class="C F"><circle cx="1790.801" cy="46.814" r="19.5" class="G"/><circle cx="1790.801" cy="46.814" r="16.5" class="B D"/></g><circle cx="1790.801" cy="46.814" r="6.5" class="E"/><g class="C F"><circle cx="1315.5" cy="206.814" r="19.5" class="G"/><circle cx="1315.5" cy="206.814" r="16.5" class="B D"/></g><circle cx="1315.5" cy="206.814" r="6.5" class="E"/><g class="C F"><circle cx="749.5" cy="312.814" r="19.5" class="G"/><circle cx="749.5" cy="312.814" r="16.5" class="B D"/></g><circle cx="749.5" cy="312.814" r="6.5" class="E"/><path d="M869.914 494.202a1.56 1.56 0 0 1 0-2.8l23.485-10.616a1.44 1.44 0 0 1 1.987 1.4s-5.713 5.244-5.713 10.554 5.715 10.682 5.715 10.682a1.44 1.44 0 0 1-1.987 1.4zm24.512-281.757a1.56 1.56 0 0 1 .147 2.796l-22.897 11.83a1.44 1.44 0 0 1-2.058-1.294s5.43-5.536 5.153-10.84-6.266-10.368-6.266-10.368a1.44 1.44 0 0 1 1.911-1.502zM450.58 127.36a1.56 1.56 0 0 1 1.837 2.113l-10.76 23.42a1.44 1.44 0 0 1-2.418.247s.87-7.706-2.612-11.713-11.32-4.312-11.32-4.312a1.44 1.44 0 0 1 .581-2.36zm868.915 367.923a1.56 1.56 0 0 1 1.607 2.293l-13.14 22.175a1.44 1.44 0 0 1-2.431-.006s1.67-7.574-1.38-11.923-10.812-5.468-10.812-5.468a1.44 1.44 0 0 1 .824-2.287zm351.53-438.518a1.56 1.56 0 0 1 .534 2.749l-21.028 14.902a1.44 1.44 0 0 1-2.218-.995s4.607-6.238 3.594-11.45-7.648-9.395-7.648-9.395a1.44 1.44 0 0 1 1.683-1.753zm-577.222 151.758a1.56 1.56 0 0 1-1.565-2.321l13.534-21.927a1.44 1.44 0 0 1 2.43.05s-1.805 7.54 1.165 11.945 10.706 5.66 10.706 5.66a1.44 1.44 0 0 1-.865 2.271z" fill="#f8951d"/><path d="M796.2 364.762c3.612 0 6.524-.98 8.9-3.892l-3.888-3.724a5.52 5.52 0 0 1-4.368 2.268 3.71 3.71 0 0 1-2.88-1.01c-.77-.734-1.2-1.763-1.152-2.827 0-3.5 2.184-5.964 5.292-5.964 1.64-.047 3.16.846 3.92 2.3l4.76-3.724c-1.428-2.52-4.508-3.92-8.26-3.92-7.252-.004-12.376 4.844-12.376 11.728 0 5.208 3.976 8.764 10.052 8.764zm18.06-.168c5.572 0 9.548-3.752 9.548-8.792 0-4.284-3.248-7.084-8.316-7.084-5.572 0-9.548 3.752-9.548 8.792 0 4.284 3.248 7.084 8.316 7.084zm.364-4.98a2.18 2.18 0 0 1-1.685-.685c-.435-.463-.648-1.1-.583-1.723 0-2.128 1.12-3.5 2.772-3.5a2.18 2.18 0 0 1 2.272 2.408c0 2.124-1.124 3.5-2.776 3.5zm22.876-10.9a6.71 6.71 0 0 0-4.592 1.82l.308-1.54h-5.964l-3.052 15.32h6.328l1.484-7.364c.392-1.988 1.4-2.912 2.828-2.912a1.44 1.44 0 0 1 1.6 1.652c-.013.3-.05.62-.112.924l-1.544 7.7h6.328l1.68-8.456c.13-.636.197-1.283.2-1.932-.004-3.472-2.272-5.212-5.492-5.212zm12.74 15.88c4.7 0 8.568-1.9 8.568-5.74 0-5.124-7.7-3.668-7.7-5.068 0-.364.476-.756 1.932-.756a9.09 9.09 0 0 1 4.56 1.148l2.184-4.312a14.94 14.94 0 0 0-5.984-1.152c-4.788 0-8.624 1.848-8.624 5.8 0 5.124 7.728 3.724 7.728 5.04 0 .42-.476.728-1.876.728a10.87 10.87 0 0 1-5.32-1.4l-2.188 4.312a14.86 14.86 0 0 0 6.72 1.4zm22.932-15.6l-1.484 7.368c-.388 1.988-1.372 2.912-2.772 2.912-.436.044-.867-.117-1.168-.434s-.44-.757-.372-1.2c.013-.32.05-.638.112-.952l1.54-7.7H862.7l-1.68 8.456c-.13.636-.197 1.283-.2 1.932 0 3.472 2.24 5.208 5.432 5.208a6.63 6.63 0 0 0 4.536-1.82l-.304 1.54h5.964l3.052-15.316zm6.048 15.32h6.328l4.144-20.776h-6.328zm20.08-9.856h3.136l.924-4.62h-3.14l.868-4.284h-6.328l-.868 4.284h-2.1l-.924 4.62H893l-.784 3.864a7.35 7.35 0 0 0-.168 1.512c0 3.052 2.184 4.76 5.6 4.76a8.75 8.75 0 0 0 4.144-.9l-.728-4.256c-.432.228-.9.353-1.4.364-.728 0-1.176-.336-1.176-1.064a2.79 2.79 0 0 1 .056-.448zm17.024-5.46l-.336 1.624a4.92 4.92 0 0 0-4.368-1.9c-4.4 0-8.148 3.752-8.148 8.792 0 4.564 3.248 7.084 6.3 7.084a5.72 5.72 0 0 0 4.144-1.68l-.28 1.4h5.964l3.052-15.316zm-6.44 8.2c0-2.128 1.12-3.5 2.772-3.5.635-.027 1.25.225 1.686.7a2.18 2.18 0 0 1 .578 1.727c0 2.128-1.12 3.5-2.772 3.5-.635.028-1.25-.223-1.687-.686s-.648-1.093-.58-1.726zm25.784-8.484a6.71 6.71 0 0 0-4.592 1.82l.308-1.54h-5.964l-3.052 15.32h6.332l1.484-7.364c.392-1.988 1.4-2.912 2.828-2.912a1.44 1.44 0 0 1 1.6 1.652c-.013.3-.05.62-.112.924l-1.548 7.7h6.328l1.68-8.456c.13-.636.197-1.283.2-1.932-.004-3.472-2.272-5.212-5.492-5.212zm15.652 15.88a8.68 8.68 0 0 0 7.952-4.256l-4.62-2.688a2.99 2.99 0 0 1-2.852 1.964 2.27 2.27 0 0 1-2.412-2.5c0-2.044 1.232-3.416 2.94-3.416a2.59 2.59 0 0 1 2.52 1.96l5.376-2.464c-1.092-2.772-3.948-4.48-7.588-4.48-5.656 0-9.66 3.752-9.66 8.792 0 4.288 3.304 7.088 8.344 7.088zm21.784-15.6l-4.816 8.232-1.568-8.232h-6.3l3.36 15.488c-.407.43-.977.663-1.568.644a3.81 3.81 0 0 1-2.3-.812l-2.744 4.4c1.336.882 2.907 1.34 4.508 1.316 3.528 0 5.684-1.2 8.2-5.4l9.408-15.624zm125.396-9.78l-12.6 16-6.536-16h-8.258l-6.02 30.1h9.245l2.7-13.545 4.644 10.836h4.472l8.47-11.008-2.666 13.717h9.245l5.934-30.1zm28.122 6.58l-.522 2.494c-1.42-2.107-3.827-2.924-6.708-2.924-6.75 0-12.513 5.762-12.513 13.5.003 7 5 10.88 9.678 10.88 2.383.038 4.68-.893 6.364-2.58l-.43 2.15h9.16l4.687-23.52zm-9.9 12.6c0-3.268 1.72-5.375 4.257-5.375a3.36 3.36 0 0 1 2.59 1.053 3.35 3.35 0 0 1 .894 2.647c0 3.268-1.72 5.375-4.257 5.375-.976.043-1.922-.34-2.6-1.052s-.996-1.678-.895-2.65zm29.753-14.492c3.74 0 6.192-2.236 6.192-5.46 0-2.58-2.107-4.43-5.5-4.43-3.74 0-6.192 2.28-6.192 5.3-.004 2.58 2.103 4.6 5.5 4.6zm-10.578 25.413h9.675l4.687-23.52h-9.675zm34.4-23.95a10.31 10.31 0 0 0-7.052 2.8l.473-2.365h-9.16l-4.687 23.516h9.718l2.28-11.3c.6-3.053 2.15-4.472 4.343-4.472a2.21 2.21 0 0 1 2.451 2.537 9.07 9.07 0 0 1-.172 1.419l-2.365 11.825h9.718l2.58-12.986c.198-.977.298-1.97.3-2.967.001-5.332-3.482-7.998-8.427-7.998zm19.565 24.38c7.224 0 13.158-2.924 13.158-8.815 0-7.87-11.825-5.633-11.825-7.783 0-.56.73-1.16 2.967-1.16 2.45-.038 4.868.57 7 1.763l3.354-6.622a22.95 22.95 0 0 0-9.2-1.763c-7.353 0-13.244 2.838-13.244 8.9 0 7.87 11.868 5.72 11.868 7.74 0 .645-.73 1.118-2.88 1.118a16.69 16.69 0 0 1-8.17-2.15l-3.356 6.623c2.064 1.204 6.106 2.15 10.32 2.15zm28.294-15.566h4.816l1.42-7.095h-4.816l1.333-6.58h-9.718l-1.333 6.58h-3.225l-1.42 7.095h3.268l-1.2 5.934c-.166.763-.253 1.54-.258 2.322 0 4.687 3.354 7.3 8.6 7.3a13.44 13.44 0 0 0 6.364-1.376l-1.118-6.536a4.85 4.85 0 0 1-2.15.559c-1.118 0-1.806-.516-1.806-1.634a4.29 4.29 0 0 1 .086-.688zm19.35-5.977l.473-2.408h-9.16l-4.687 23.52h9.718l2.193-10.88c.688-3.3 2.666-4.644 5.9-4.644a12.61 12.61 0 0 1 2.107.172l1.72-8.6c-3.354 0-6.235.86-8.256 2.838zm33.626 7.525c0-6.063-4.43-10.363-11.954-10.363-8.772 0-14.577 5.762-14.577 13.5 0 6.665 5.2 10.88 12.943 10.88a17.68 17.68 0 0 0 10.277-2.924l-4.042-5.9a8.62 8.62 0 0 1-5.117 1.634c-2.537 0-4.085-.774-4.515-2.752h16.47a17.4 17.4 0 0 0 .516-4.083zm-12.384-3.74c2.064 0 3.483 1.16 3.483 3.14h-7.7c.523-1.887 2.26-3.18 4.217-3.14zm33.454-6.192l-.516 2.494c-1.42-2.107-3.827-2.924-6.708-2.924-6.75 0-12.513 5.762-12.513 13.5 0 7 4.988 10.88 9.675 10.88 2.383.038 4.68-.893 6.364-2.58l-.43 2.15h9.16l4.687-23.52zm-9.9 12.6c0-3.268 1.72-5.375 4.257-5.375a3.36 3.36 0 0 1 2.59 1.053 3.35 3.35 0 0 1 .894 2.647c0 3.268-1.72 5.375-4.257 5.375a3.36 3.36 0 0 1-2.59-1.053c-.67-.71-.995-1.677-.894-2.648zm54.438-13.03a10.63 10.63 0 0 0-8.26 3.741c-1.44-2.43-4.102-3.868-6.923-3.74a9.72 9.72 0 0 0-6.708 2.709l.473-2.28h-9.16l-4.683 23.52h9.718l2.282-11.48c.645-3.14 2.02-4.3 3.827-4.3 1.247 0 2.107.817 2.107 2.58a6.37 6.37 0 0 1-.172 1.462l-2.368 11.74h9.718l2.322-11.653c.6-3 2.02-4.128 3.784-4.128 1.247 0 2.107.817 2.107 2.58a6.37 6.37 0 0 1-.172 1.462l-2.365 11.74h9.718l2.58-12.986a14.37 14.37 0 0 0 .3-2.924c.001-5.375-3.525-8.04-8.126-8.04z" class="E"/><g fill="#01355d"><path d="M163.994 214.072c-.633.723-1.547 1.14-2.508 1.142-.85-.016-1.65-.4-2.178-1.078a7.75 7.75 0 0 0 5.5-7.524c0-4.6-3.586-7.964-8.426-7.964-4.862 0-8.426 3.388-8.426 7.964-.036 4.1 3.1 7.553 7.194 7.902 2.376 2.508 3.982 3.344 6.27 3.344a5.22 5.22 0 0 0 4.158-1.892zm-12.43-7.458a4.7 4.7 0 0 1 4.818-4.928 4.7 4.7 0 0 1 4.818 4.928 4.7 4.7 0 0 1-4.818 4.928 4.7 4.7 0 0 1-4.818-4.928zm24.178-4.136v5.852c0 2.178-1.144 3.2-2.728 3.2-1.518 0-2.4-.88-2.4-2.86v-6.182h-3.432v6.688c0 3.652 2.1 5.324 5.06 5.324a4.79 4.79 0 0 0 3.674-1.584v1.408h3.256v-11.836zm18.216 5.962a5.86 5.86 0 0 0-6.16-6.138c-1.66-.08-3.278.53-4.473 1.683a6.03 6.03 0 0 0-1.84 4.41c0 3.52 2.662 6.094 6.754 6.094a6.2 6.2 0 0 0 4.884-1.914l-1.826-1.98a4.01 4.01 0 0 1-2.97 1.144c-1.563.162-3.008-.85-3.388-2.376h8.954c.022-.286.066-.66.066-.924zm-6.138-3.542c1.46-.056 2.72 1.014 2.9 2.464h-5.83a2.8 2.8 0 0 1 2.93-2.464zm11.7-.858v-1.562h-3.278v11.836h3.432v-5.588c0-2.266 1.254-3.3 3.146-3.3.264 0 .484.022.77.044v-3.168c-1.558-.12-3.077.528-4.066 1.738zm14.982-1.562l-3.344 8.03-3.322-8.03H204.3l5.124 11.924-.044.1c-.462 1.056-1 1.474-1.936 1.474a3.05 3.05 0 0 1-1.936-.748l-1.254 2.442c.946.723 2.1 1.103 3.3 1.078 2.134 0 3.762-.858 4.906-3.718l5.346-12.562zm11.18 11.836h3.564v-15.4h-3.564zm14.168-12.012a5.18 5.18 0 0 0-3.916 1.562v-1.386h-3.278v11.836h3.432v-5.852c0-2.178 1.188-3.2 2.838-3.2 1.518 0 2.4.88 2.4 2.794v6.248h3.432v-6.776c-.002-3.608-2.114-5.236-4.908-5.236zm12 12.188c3.542 0 5.588-1.562 5.588-3.762 0-4.664-7.15-2.706-7.15-4.73 0-.616.66-1.1 2.2-1.1a6.8 6.8 0 0 1 3.41.88l1.144-2.442c-1.412-.7-2.975-1.064-4.554-1.034-3.454 0-5.478 1.584-5.478 3.828 0 4.73 7.15 2.75 7.15 4.686 0 .66-.594 1.078-2.178 1.078a8.1 8.1 0 0 1-4.114-1.144l-1.144 2.464a10.16 10.16 0 0 0 5.126 1.276zm14.7-12.188a4.6 4.6 0 0 0-3.718 1.54v-1.364h-3.282v16.1h3.432v-5.518a4.6 4.6 0 0 0 3.564 1.43 5.75 5.75 0 0 0 5.9-6.094 5.75 5.75 0 0 0-5.9-6.094zm-.594 9.372a2.99 2.99 0 0 1-2.24-.965c-.575-.625-.857-1.467-.774-2.313-.084-.846.196-1.688.77-2.314s1.4-.98 2.24-.968a2.99 2.99 0 0 1 2.24.965c.575.625.857 1.467.774 2.313a2.99 2.99 0 0 1-.772 2.316c-.575.626-1.4.978-2.242.966zm20.372-3.234a5.86 5.86 0 0 0-6.16-6.138 6.03 6.03 0 0 0-4.476 1.682c-1.196 1.154-1.863 2.75-1.842 4.412 0 3.518 2.66 6.094 6.754 6.094a6.2 6.2 0 0 0 4.884-1.914l-1.826-1.98a4.01 4.01 0 0 1-2.97 1.144c-1.563.162-3.008-.85-3.388-2.376h8.954c.022-.286.066-.66.066-.924zm-6.138-3.542c1.46-.056 2.72 1.014 2.9 2.464h-5.83a2.8 2.8 0 0 1 2.926-2.464zm14.142 9.592a5.49 5.49 0 0 0 5.3-2.992l-2.662-1.452a2.91 2.91 0 0 1-2.66 1.628 3.03 3.03 0 0 1-3.1-3.278 3.03 3.03 0 0 1 3.1-3.282 2.95 2.95 0 0 1 2.662 1.628l2.662-1.428c-.858-1.936-2.816-3.014-5.3-3.014-3.85 0-6.6 2.53-6.6 6.094s2.748 6.096 6.598 6.096zm14.168-3.168c-.403.292-.9.446-1.386.44a1.38 1.38 0 0 1-1.474-1.562v-4.818h2.948v-2.64h-2.948v-2.882h-3.43v2.882h-1.826v2.64h1.826v4.862c0 2.816 1.628 4.246 4.422 4.246a4.9 4.9 0 0 0 2.794-.748zm4.576-10.494c.552.045 1.097-.144 1.503-.52s.635-.906.63-1.46a1.94 1.94 0 0 0-.664-1.39c-.404-.352-.937-.517-1.47-.46a1.96 1.96 0 0 0-2.134 1.914 1.96 1.96 0 0 0 2.134 1.914zm-1.716 13.486h3.432v-11.836h-3.432zm12.25.176c3.762 0 6.5-2.53 6.5-6.094s-2.728-6.094-6.5-6.094-6.512 2.53-6.512 6.094 2.754 6.094 6.512 6.094zm0-2.816a3 3 0 0 1-3.036-3.278 3 3 0 0 1 3.036-3.282 2.99 2.99 0 0 1 2.24.965c.575.625.857 1.467.774 2.313a2.99 2.99 0 0 1-.772 2.316c-.575.626-1.4.978-2.242.966zm15.972-9.372a5.18 5.18 0 0 0-3.912 1.562v-1.386h-3.278v11.836h3.432v-5.852c0-2.178 1.188-3.2 2.838-3.2 1.518 0 2.4.88 2.4 2.794v6.248h3.432v-6.776c-.002-3.608-2.114-5.236-4.908-5.236zM209.9 465.072c-.634.725-1.55 1.14-2.512 1.142-.85-.015-1.65-.4-2.178-1.076a7.75 7.75 0 0 0 5.5-7.524c0-4.6-3.586-7.964-8.426-7.964-4.862 0-8.426 3.388-8.426 7.964-.035 4.1 3.1 7.55 7.194 7.9 2.376 2.508 3.982 3.344 6.27 3.344a5.22 5.22 0 0 0 4.158-1.894zm-12.434-7.458a4.7 4.7 0 0 1 4.818-4.928 4.7 4.7 0 0 1 4.816 4.928 4.7 4.7 0 0 1-4.816 4.928 4.7 4.7 0 0 1-4.818-4.928zm24.178-4.136v5.852c0 2.178-1.144 3.2-2.728 3.2-1.518 0-2.4-.88-2.4-2.86v-6.182h-3.43v6.688c0 3.652 2.1 5.324 5.06 5.324a4.79 4.79 0 0 0 3.674-1.584v1.408h3.256v-11.836zm18.216 5.962a5.86 5.86 0 0 0-6.16-6.138c-1.66-.08-3.278.53-4.473 1.683a6.03 6.03 0 0 0-1.84 4.41c0 3.52 2.662 6.094 6.754 6.094a6.2 6.2 0 0 0 4.884-1.914l-1.824-1.98a4.01 4.01 0 0 1-2.97 1.144c-1.564.163-3-.85-3.4-2.376h8.954c.022-.286.066-.66.066-.924zm-6.138-3.542c1.46-.056 2.72 1.014 2.9 2.464H230.8a2.8 2.8 0 0 1 2.922-2.464zm11.7-.858v-1.562h-3.274v11.836h3.432v-5.588c0-2.266 1.254-3.3 3.146-3.3.264 0 .484.022.77.044v-3.168c-1.56-.122-3.08.527-4.07 1.738zm14.982-1.562l-3.344 8.03-3.322-8.03H250.2l5.126 11.924-.044.112c-.462 1.056-1 1.474-1.936 1.474-.713-.015-1.4-.28-1.936-.75l-1.254 2.442c.946.723 2.1 1.103 3.3 1.078 2.134 0 3.762-.858 4.906-3.718l5.346-12.562zm16.24 12.1c4.4 0 6.534-2.2 6.534-4.774 0-5.654-8.954-3.7-8.954-6.534 0-.968.814-1.76 2.926-1.76a8.7 8.7 0 0 1 4.268 1.21l1.1-2.706a10.33 10.33 0 0 0-5.346-1.364c-4.378 0-6.5 2.178-6.5 4.8 0 5.72 8.954 3.74 8.954 6.622 0 .946-.858 1.65-2.97 1.65a9.06 9.06 0 0 1-5.082-1.608l-1.2 2.684c1.862 1.214 4.048 1.835 6.27 1.78zm17.226-12.1v5.852c0 2.178-1.144 3.2-2.728 3.2-1.518 0-2.4-.88-2.4-2.86v-6.182h-3.43v6.688c0 3.652 2.1 5.324 5.06 5.324a4.79 4.79 0 0 0 3.674-1.584v1.408h3.254v-11.836zm13.618-.176a4.6 4.6 0 0 0-3.564 1.43V449h-3.432v16.324h3.278v-1.364a4.6 4.6 0 0 0 3.718 1.54 5.75 5.75 0 0 0 5.9-6.094 5.75 5.75 0 0 0-5.9-6.094zm-.594 9.372a2.99 2.99 0 0 1-2.24-.965c-.575-.625-.857-1.467-.774-2.313a2.99 2.99 0 0 1 .772-2.316c.575-.626 1.4-.978 2.242-.966a2.99 2.99 0 0 1 2.24.965c.575.625.857 1.467.774 2.313a2.99 2.99 0 0 1-.772 2.316c-.575.626-1.4.978-2.242.966zm23.936-9.372a5.32 5.32 0 0 0-4.268 1.936 4.42 4.42 0 0 0-3.894-1.936c-1.405-.057-2.765.506-3.718 1.54v-1.364h-3.278v11.836h3.428v-5.94c0-2.112 1.078-3.1 2.6-3.1 1.43 0 2.244.88 2.244 2.794v6.246h3.432v-5.94c0-2.112 1.078-3.1 2.618-3.1 1.386 0 2.244.88 2.244 2.794v6.246h3.432v-6.776c0-3.608-2.024-5.236-4.84-5.236zm9.636-1.474c.552.045 1.097-.144 1.503-.52s.635-.906.63-1.46a1.94 1.94 0 0 0-.664-1.39c-.404-.352-.937-.517-1.47-.46a1.96 1.96 0 0 0-2.134 1.914 1.96 1.96 0 0 0 2.134 1.914zm-1.716 13.486h3.432v-11.836h-3.432zm10.6.176c3.542 0 5.588-1.562 5.588-3.762 0-4.664-7.15-2.706-7.15-4.73 0-.616.66-1.1 2.2-1.1a6.8 6.8 0 0 1 3.41.88l1.144-2.442c-1.412-.7-2.975-1.064-4.554-1.034-3.454 0-5.478 1.584-5.478 3.828 0 4.73 7.15 2.75 7.15 4.686 0 .66-.594 1.078-2.178 1.078a8.1 8.1 0 0 1-4.114-1.144l-1.14 2.464a10.16 10.16 0 0 0 5.126 1.276zm11.682 0c3.542 0 5.588-1.562 5.588-3.762 0-4.664-7.15-2.706-7.15-4.73 0-.616.66-1.1 2.2-1.1a6.8 6.8 0 0 1 3.41.88l1.144-2.442c-1.412-.7-2.975-1.064-4.554-1.034-3.454 0-5.478 1.584-5.478 3.828 0 4.73 7.15 2.75 7.15 4.686 0 .66-.594 1.078-2.178 1.078a8.1 8.1 0 0 1-4.114-1.144l-1.14 2.464a10.16 10.16 0 0 0 5.126 1.276zm9.416-13.662c.552.045 1.097-.144 1.503-.52s.635-.906.63-1.46a1.94 1.94 0 0 0-.664-1.39c-.404-.352-.937-.517-1.47-.46a1.96 1.96 0 0 0-2.134 1.914 1.96 1.96 0 0 0 2.138 1.914zm-1.712 13.486h3.432v-11.836h-3.432zM381 465.5c3.762 0 6.5-2.53 6.5-6.094s-2.728-6.094-6.5-6.094-6.512 2.53-6.512 6.094 2.75 6.094 6.512 6.094zm0-2.816a3 3 0 0 1-3.036-3.278 3 3 0 0 1 3.036-3.282 2.99 2.99 0 0 1 2.24.968 2.98 2.98 0 0 1 .77 2.314c.083.845-.198 1.686-.773 2.312s-1.388.977-2.237.966zm15.972-9.372a5.18 5.18 0 0 0-3.916 1.562v-1.386h-3.278v11.836h3.432v-5.852c0-2.178 1.188-3.2 2.838-3.2 1.518 0 2.4.88 2.4 2.794v6.248h3.432v-6.776c-.002-3.608-2.114-5.236-4.908-5.236z"/><path d="M461.048 36.578a7.91 7.91 0 0 0 6.358-2.75l-2.288-2.114a4.91 4.91 0 0 1-3.872 1.826 4.73 4.73 0 0 1-3.548-1.378 4.72 4.72 0 0 1-1.38-3.548 4.72 4.72 0 0 1 1.38-3.55c.938-.938 2.225-1.438 3.55-1.38 1.496-.015 2.92.646 3.872 1.8l2.288-2.112a7.95 7.95 0 0 0-6.336-2.728c-4.8 0-8.36 3.322-8.36 7.964s3.564 7.968 8.338 7.968zm8.514-.264h3.432V20h-3.432zm11.4-12.012a9.1 9.1 0 0 0-5.1 1.43l1.232 2.4a5.69 5.69 0 0 1 3.41-1.1c1.848 0 2.728.858 2.728 2.332H480.5c-3.608 0-5.082 1.452-5.082 3.542 0 2.046 1.65 3.586 4.422 3.586 1.414.152 2.798-.48 3.608-1.65v1.472h3.212V29.56c-.004-3.586-2.094-5.258-5.702-5.258zm-.264 9.878c-1.2 0-1.936-.572-1.936-1.43 0-.792.506-1.386 2.112-1.386h2.354v1.2a2.53 2.53 0 0 1-2.534 1.606zm12.342-8.14v-1.562h-3.278v11.836h3.432v-5.588c0-2.266 1.254-3.3 3.146-3.3.264 0 .484.022.77.044v-3.168a4.78 4.78 0 0 0-4.074 1.738zm7.832-3.212a1.98 1.98 0 0 0 1.5-.522c.405-.376.633-.905.63-1.458a1.94 1.94 0 0 0-.664-1.39c-.404-.352-.937-.517-1.47-.46a1.96 1.96 0 0 0-2.134 1.914 1.96 1.96 0 0 0 2.136 1.914zm-1.72 13.486h3.432V24.478h-3.432zm10.384-12.078c0-1.166.55-1.716 1.562-1.716a2.4 2.4 0 0 1 1.386.418l.9-2.486c-.795-.455-1.703-.676-2.618-.638-2.948 0-4.576 1.738-4.576 4.4v.528h-1.826v2.64h1.826v8.932h3.432v-8.932h2.948v-2.64h-3.036zm13.42.242l-3.344 8.03-3.322-8.03h-3.542l5.126 11.924-.044.112c-.462 1.056-1 1.474-1.936 1.474-.713-.015-1.4-.28-1.936-.75L512.7 39.68c.946.723 2.1 1.103 3.3 1.078 2.134 0 3.762-.858 4.906-3.718l5.346-12.562zM539.522 36.5c3.762 0 6.5-2.53 6.5-6.094s-2.728-6.094-6.5-6.094S533 26.832 533 30.396s2.75 6.094 6.512 6.094zm0-2.816a3 3 0 0 1-3.036-3.278 3 3 0 0 1 3.036-3.282 2.99 2.99 0 0 1 2.24.965c.575.625.857 1.467.774 2.313a2.99 2.99 0 0 1-.772 2.316c-.575.626-1.4.978-2.242.966zm15.972-9.372a5.18 5.18 0 0 0-3.916 1.562v-1.386H548.3v11.836h3.432v-5.852c0-2.178 1.188-3.2 2.838-3.2 1.518 0 2.4.88 2.4 2.794v6.248h3.43v-6.776c0-3.608-2.112-5.236-4.906-5.236zm21.846 12.276c2.43.1 4.775-.905 6.36-2.75l-2.3-2.114a4.91 4.91 0 0 1-3.872 1.826 4.73 4.73 0 0 1-3.548-1.378 4.72 4.72 0 0 1-1.38-3.548 4.72 4.72 0 0 1 1.38-3.55c.938-.938 2.225-1.438 3.55-1.38 1.496-.015 2.92.646 3.872 1.8l2.288-2.112a7.95 7.95 0 0 0-6.336-2.728c-4.8 0-8.36 3.322-8.36 7.964s3.564 7.968 8.338 7.968zm13.2-12.276a9.1 9.1 0 0 0-5.1 1.43l1.232 2.4a5.69 5.69 0 0 1 3.41-1.1c1.848 0 2.728.858 2.728 2.332h-2.728c-3.612-.002-5.082 1.45-5.082 3.54 0 2.046 1.65 3.586 4.422 3.586 1.414.152 2.798-.48 3.608-1.65v1.474h3.212V29.56c-.004-3.586-2.094-5.258-5.702-5.258zm-.264 9.878c-1.2 0-1.936-.572-1.936-1.43 0-.792.506-1.386 2.112-1.386h2.354v1.2a2.53 2.53 0 0 1-2.53 1.606zm9.064 2.134h3.432V20h-3.432zm6.622 0h3.432V20h-3.432zm240.406 38.13V70.9h7.15v-2.776h-7.15v-3.34h8.1v-2.86h-11.642v15.4h11.924v-2.86zm22.242 2.86l-4.576-6.05 4.4-5.786h-3.652l-2.574 3.454-2.508-3.454h-3.85l4.4 5.874-4.55 5.962h3.74l2.68-3.63 2.596 3.63zm8.668-12.012a4.6 4.6 0 0 0-3.718 1.54v-1.364h-3.278v16.1h3.432V76.06a4.6 4.6 0 0 0 3.564 1.43 5.75 5.75 0 0 0 5.9-6.094 5.75 5.75 0 0 0-5.9-6.094zm-.594 9.372a2.99 2.99 0 0 1-2.24-.965c-.575-.625-.857-1.467-.774-2.313a2.99 2.99 0 0 1 .772-2.316c.575-.626 1.4-.978 2.242-.966.85-.012 1.667.34 2.243.966s.857 1.47.773 2.316a2.99 2.99 0 0 1-.775 2.314 2.98 2.98 0 0 1-2.24.964zm8.778 2.64h3.432V61h-3.432zm12.254.176c3.762 0 6.5-2.53 6.5-6.094s-2.728-6.094-6.5-6.094-6.516 2.53-6.516 6.094 2.754 6.094 6.516 6.094zm0-2.816a3 3 0 0 1-3.036-3.278 3 3 0 0 1 3.036-3.282 2.99 2.99 0 0 1 2.242.966c.576.626.856 1.47.772 2.316a2.99 2.99 0 0 1-.774 2.313 3 3 0 0 1-2.24.965zm12.056-7.634v-1.562h-3.278v11.836h3.432v-5.588c0-2.266 1.254-3.3 3.146-3.3.264 0 .484.022.77.044v-3.168c-1.56-.122-3.08.527-4.07 1.738zm7.828-3.212c.552.045 1.097-.144 1.503-.52s.635-.906.63-1.46a1.94 1.94 0 0 0-.664-1.39c-.404-.352-.937-.517-1.47-.46a1.96 1.96 0 0 0-2.13 1.914 1.96 1.96 0 0 0 2.13 1.914zm-1.712 13.486h3.432V65.478h-3.432zM929.7 65.302a5.18 5.18 0 0 0-3.916 1.562v-1.386H922.5v11.836h3.432v-5.852c0-2.178 1.188-3.2 2.838-3.2 1.518 0 2.4.88 2.4 2.794v6.248h3.43v-6.776c0-3.608-2.1-5.236-4.9-5.236zm17.094.176v1.518a4.75 4.75 0 0 0-3.916-1.694 5.63 5.63 0 0 0-5.918 5.72c-.026 1.56.597 3.06 1.718 4.144a5.63 5.63 0 0 0 4.2 1.576 4.87 4.87 0 0 0 3.74-1.474v.506c0 2.134-1.056 3.234-3.476 3.234a7.08 7.08 0 0 1-4.176-1.342L937.6 80.13a9.75 9.75 0 0 0 5.808 1.628c4.268 0 6.644-2.024 6.644-6.424v-9.856zm-3.234 8.448c-.808.065-1.605-.212-2.2-.763s-.93-1.326-.925-2.137c-.005-.8.33-1.585.925-2.137a2.89 2.89 0 0 1 2.2-.763c.805-.064 1.6.215 2.2.766a2.79 2.79 0 0 1 .9 2.134 2.87 2.87 0 0 1-.91 2.132c-.6.552-1.383.83-2.187.768zm21.212 3.652c4.4 0 6.534-2.2 6.534-4.774 0-5.654-8.954-3.7-8.954-6.534 0-.968.814-1.76 2.926-1.76a8.7 8.7 0 0 1 4.268 1.21l1.1-2.706a10.33 10.33 0 0 0-5.346-1.364c-4.378 0-6.5 2.178-6.5 4.8 0 5.72 8.954 3.74 8.954 6.622 0 .946-.858 1.65-2.97 1.65a9.06 9.06 0 0 1-5.082-1.608l-1.212 2.682c1.862 1.216 4.05 1.837 6.272 1.782zm14.366-.088c3.762 0 6.5-2.53 6.5-6.094s-2.728-6.094-6.5-6.094-6.512 2.53-6.512 6.094 2.75 6.094 6.512 6.094zm0-2.816a3 3 0 0 1-3.038-3.278 3 3 0 0 1 3.038-3.282 2.99 2.99 0 0 1 2.24.965c.575.625.857 1.467.774 2.313a2.99 2.99 0 0 1-.772 2.316c-.575.626-1.4.978-2.242.966zm8.778 2.64h3.432V61h-3.432zm15.114-11.836v5.852c0 2.178-1.144 3.2-2.728 3.2-1.518 0-2.4-.88-2.4-2.86v-6.182h-3.432v6.688c0 3.652 2.1 5.324 5.06 5.324a4.79 4.79 0 0 0 3.674-1.584v1.408h3.256V65.478zm13.332 8.844c-.403.292-.9.446-1.386.44a1.38 1.38 0 0 1-1.476-1.562v-4.818h2.948v-2.64h-2.948V62.86h-3.43v2.882h-1.826v2.64h1.826v4.862c0 2.816 1.628 4.246 4.422 4.246a4.9 4.9 0 0 0 2.794-.748zm4.576-10.494c.552.045 1.097-.144 1.503-.52s.635-.906.63-1.46a1.94 1.94 0 0 0-.664-1.39c-.404-.352-.937-.517-1.47-.46a1.96 1.96 0 0 0-2.138 1.914 1.96 1.96 0 0 0 2.138 1.914zm-1.716 13.486h3.432V65.478h-3.432zm12.254.176c3.762 0 6.5-2.53 6.5-6.094s-2.728-6.094-6.5-6.094-6.512 2.53-6.512 6.094 2.75 6.094 6.512 6.094zm0-2.816a3 3 0 0 1-3.036-3.278 3 3 0 0 1 3.036-3.282 2.99 2.99 0 0 1 2.24.965c.575.625.857 1.467.774 2.313a2.99 2.99 0 0 1-.772 2.316c-.575.626-1.4.978-2.242.966zm15.972-9.372a5.18 5.18 0 0 0-3.916 1.562v-1.386h-3.278v11.836h3.432v-5.852c0-2.178 1.188-3.2 2.838-3.2 1.518 0 2.4.88 2.4 2.794v6.248h3.432v-6.776c-.002-3.608-2.114-5.236-4.908-5.236zm12 12.188c3.542 0 5.588-1.562 5.588-3.762 0-4.664-7.15-2.706-7.15-4.73 0-.616.66-1.1 2.2-1.1a6.8 6.8 0 0 1 3.41.88l1.144-2.442c-1.412-.7-2.975-1.064-4.554-1.034-3.454 0-5.478 1.584-5.478 3.828 0 4.73 7.15 2.75 7.15 4.686 0 .66-.594 1.078-2.178 1.078a8.1 8.1 0 0 1-4.114-1.144l-1.144 2.464a10.16 10.16 0 0 0 5.126 1.276z"/><path d="M527.858 283.314h7c5.038 0 8.492-3.036 8.492-7.7s-3.454-7.7-8.492-7.7h-7zm3.564-2.926v-9.548h3.256c3.058 0 5.06 1.826 5.06 4.774s-2 4.774-5.06 4.774zm25.96-2.948a5.86 5.86 0 0 0-6.16-6.138c-1.66-.08-3.278.53-4.473 1.683a6.03 6.03 0 0 0-1.84 4.41c0 3.52 2.662 6.094 6.754 6.094a6.2 6.2 0 0 0 4.884-1.914l-1.826-1.98a4.01 4.01 0 0 1-2.97 1.144c-1.563.162-3.008-.85-3.388-2.376h8.954c.022-.286.066-.66.066-.924zm-6.138-3.542c1.46-.056 2.72 1.014 2.9 2.464h-5.83a2.8 2.8 0 0 1 2.93-2.464zm8.426 9.416h3.432V267h-3.432zm8.338-13.486c.552.045 1.097-.144 1.503-.52s.635-.906.63-1.46a1.94 1.94 0 0 0-.664-1.39c-.404-.352-.937-.517-1.47-.46a1.96 1.96 0 0 0-2.134 1.914 1.96 1.96 0 0 0 2.134 1.914zm-1.716 13.486h3.432v-11.836h-3.432zm15.07-11.836l-3.388 8.052-3.278-8.052h-3.542l4.972 11.836h3.542l4.994-11.836zm15.972 5.962a5.86 5.86 0 0 0-6.16-6.138c-1.66-.08-3.278.53-4.473 1.683a6.03 6.03 0 0 0-1.84 4.41c0 3.52 2.662 6.094 6.754 6.094a6.2 6.2 0 0 0 4.886-1.914l-1.826-1.98a4.01 4.01 0 0 1-2.97 1.144c-1.563.162-3.008-.85-3.388-2.376h8.954c.02-.286.064-.66.064-.924zm-6.134-3.542c1.46-.056 2.72 1.014 2.9 2.464h-5.83a2.8 2.8 0 0 1 2.93-2.464zm11.7-.858v-1.562h-3.278v11.836h3.432v-5.588c0-2.266 1.254-3.3 3.146-3.3.264 0 .484.022.77.044v-3.168c-1.56-.122-3.08.527-4.07 1.738zm7.832-3.212c.552.045 1.097-.144 1.503-.52s.635-.906.63-1.46a1.94 1.94 0 0 0-.664-1.39c-.404-.352-.937-.517-1.47-.46a1.96 1.96 0 0 0-2.132 1.914 1.96 1.96 0 0 0 2.132 1.914zm-1.716 13.486h3.432v-11.836h-3.432zm13.816-12.012a5.18 5.18 0 0 0-3.916 1.562v-1.386h-3.278v11.836h3.432v-5.852c0-2.178 1.188-3.2 2.838-3.2 1.518 0 2.4.88 2.4 2.794v6.248h3.432v-6.776c-.002-3.608-2.114-5.236-4.908-5.236zm17.094.176v1.518a4.75 4.75 0 0 0-3.916-1.694 5.63 5.63 0 0 0-5.918 5.72c-.026 1.56.597 3.06 1.718 4.144a5.63 5.63 0 0 0 4.2 1.576 4.87 4.87 0 0 0 3.74-1.474v.506c0 2.134-1.056 3.234-3.476 3.234a7.08 7.08 0 0 1-4.18-1.342l-1.364 2.464a9.75 9.75 0 0 0 5.808 1.628c4.268 0 6.644-2.024 6.644-6.424v-9.856zm-3.234 8.448c-.808.065-1.605-.212-2.2-.763s-.93-1.326-.925-2.137c-.005-.8.33-1.585.925-2.137a2.89 2.89 0 0 1 2.2-.763c.805-.064 1.6.215 2.2.766a2.79 2.79 0 0 1 .9 2.134 2.9 2.9 0 0 1-.9 2.134c-.58.552-1.384.83-2.2.766zm21.208 3.652c4.4 0 6.534-2.2 6.534-4.774 0-5.654-8.954-3.7-8.954-6.534 0-.968.814-1.76 2.926-1.76a8.7 8.7 0 0 1 4.268 1.21l1.1-2.706a10.33 10.33 0 0 0-5.346-1.364c-4.378 0-6.5 2.178-6.5 4.8 0 5.72 8.954 3.74 8.954 6.622 0 .946-.858 1.65-2.97 1.65a9.06 9.06 0 0 1-5.082-1.608l-1.2 2.684c1.862 1.214 4.048 1.835 6.27 1.78zm14.366-.088c3.762 0 6.5-2.53 6.5-6.094s-2.728-6.094-6.5-6.094-6.512 2.53-6.512 6.094 2.746 6.094 6.512 6.094zm0-2.816a3 3 0 0 1-3.036-3.278 3 3 0 0 1 3.036-3.282 2.99 2.99 0 0 1 2.242.966c.576.626.856 1.47.772 2.316a2.99 2.99 0 0 1-.774 2.313 3 3 0 0 1-2.24.965zm8.778 2.64h3.432V267h-3.432zm15.114-11.836v5.852c0 2.178-1.144 3.2-2.728 3.2-1.518 0-2.4-.88-2.4-2.86v-6.182h-3.43v6.688c0 3.648 2.1 5.324 5.06 5.324a4.79 4.79 0 0 0 3.674-1.584v1.408h3.256v-11.836zm13.332 8.844c-.403.292-.9.446-1.386.44a1.38 1.38 0 0 1-1.474-1.562v-4.818h2.948v-2.64h-2.948v-2.882h-3.43v2.882h-1.826v2.64h1.826v4.862c0 2.816 1.628 4.246 4.422 4.246a4.9 4.9 0 0 0 2.794-.748zm4.576-10.494c.552.045 1.097-.144 1.503-.52s.635-.906.63-1.46a1.94 1.94 0 0 0-.664-1.39c-.404-.352-.937-.517-1.47-.46a1.96 1.96 0 0 0-2.134 1.914 1.96 1.96 0 0 0 2.134 1.914zm-1.716 13.486h3.432v-11.836h-3.432zm12.25.176c3.762 0 6.5-2.53 6.5-6.094s-2.728-6.094-6.5-6.094-6.512 2.53-6.512 6.094 2.754 6.094 6.512 6.094zm0-2.816a3 3 0 0 1-3.036-3.278 3 3 0 0 1 3.036-3.282 2.99 2.99 0 0 1 2.24.965c.575.625.857 1.467.774 2.313a2.99 2.99 0 0 1-.772 2.316c-.575.626-1.4.978-2.242.966zm15.972-9.372a5.18 5.18 0 0 0-3.912 1.562v-1.386h-3.278v11.836h3.432v-5.852c0-2.178 1.188-3.2 2.838-3.2 1.518 0 2.4.88 2.4 2.794v6.248h3.432v-6.776c-.002-3.608-2.114-5.236-4.908-5.236zM521.734 502.578c4.4 0 6.534-2.2 6.534-4.774 0-5.654-8.954-3.7-8.954-6.534 0-.968.814-1.76 2.926-1.76a8.7 8.7 0 0 1 4.268 1.21l1.1-2.706a10.33 10.33 0 0 0-5.346-1.364c-4.378 0-6.5 2.178-6.5 4.8 0 5.72 8.954 3.74 8.954 6.622 0 .946-.858 1.65-2.97 1.65a9.06 9.06 0 0 1-5.082-1.608l-1.2 2.684c1.862 1.214 4.048 1.835 6.27 1.78zm14.366-.088c3.762 0 6.5-2.53 6.5-6.094s-2.728-6.094-6.5-6.094-6.512 2.53-6.512 6.094 2.75 6.094 6.512 6.094zm0-2.816a3 3 0 0 1-3.036-3.278 3 3 0 0 1 3.036-3.282 2.99 2.99 0 0 1 2.24.965c.575.625.857 1.467.774 2.313a2.99 2.99 0 0 1-.772 2.316c-.575.626-1.4.978-2.242.966zm8.778 2.64h3.432V486h-3.432zm15.114-11.836v5.852c0 2.178-1.144 3.2-2.728 3.2-1.518 0-2.4-.88-2.4-2.86v-6.182h-3.432v6.688c0 3.652 2.1 5.324 5.06 5.324a4.79 4.79 0 0 0 3.674-1.584v1.408h3.256v-11.836zm13.332 8.844c-.403.292-.9.446-1.386.44a1.38 1.38 0 0 1-1.474-1.562v-4.818h2.948v-2.64h-2.948v-2.882h-3.432v2.882h-1.826v2.64h1.826v4.862c0 2.816 1.628 4.246 4.422 4.246a4.9 4.9 0 0 0 2.794-.748zm4.576-10.494c.552.045 1.097-.144 1.503-.52s.635-.906.63-1.46a1.94 1.94 0 0 0-.664-1.39c-.404-.352-.937-.517-1.47-.46a1.96 1.96 0 0 0-2.134 1.914 1.96 1.96 0 0 0 2.134 1.914zm-1.716 13.486h3.432v-11.836h-3.432zm12.254.176c3.762 0 6.5-2.53 6.5-6.094s-2.728-6.094-6.5-6.094-6.512 2.53-6.512 6.094 2.75 6.094 6.512 6.094zm0-2.816a3 3 0 0 1-3.038-3.278 3 3 0 0 1 3.038-3.282 2.99 2.99 0 0 1 2.24.965c.575.625.857 1.467.774 2.313a2.99 2.99 0 0 1-.772 2.316c-.575.626-1.4.978-2.242.966zm15.972-9.372a5.18 5.18 0 0 0-3.916 1.562v-1.386h-3.278v11.836h3.432v-5.852c0-2.178 1.188-3.2 2.838-3.2 1.518 0 2.4.88 2.4 2.794v6.248h3.432v-6.776c-.002-3.608-2.118-5.236-4.908-5.236zm14.476 12.012h7c5.038 0 8.492-3.036 8.492-7.7s-3.454-7.7-8.492-7.7h-7zm3.564-2.926v-9.548h3.256c3.058 0 5.06 1.826 5.06 4.774s-2 4.774-5.06 4.774zm20 3.1c3.762 0 6.5-2.53 6.5-6.094s-2.728-6.094-6.5-6.094-6.512 2.53-6.512 6.094 2.748 6.096 6.5 6.096zm0-2.816a3 3 0 0 1-3.036-3.278 3 3 0 0 1 3.034-3.28 2.99 2.99 0 0 1 2.24.965c.575.625.857 1.467.774 2.313a2.99 2.99 0 0 1-.772 2.316c-.575.626-1.4.978-2.242.966zm14.5 2.816a5.49 5.49 0 0 0 5.3-2.992l-2.662-1.452a2.91 2.91 0 0 1-2.662 1.628 3.03 3.03 0 0 1-3.1-3.278 3.03 3.03 0 0 1 3.1-3.278 2.95 2.95 0 0 1 2.662 1.628l2.66-1.43c-.858-1.936-2.816-3.014-5.3-3.014-3.85 0-6.6 2.53-6.6 6.094s2.752 6.096 6.598 6.096zm15.774-12.012v5.852c0 2.178-1.144 3.2-2.728 3.2-1.518 0-2.4-.88-2.4-2.86v-6.182h-3.432v6.688c0 3.652 2.1 5.324 5.06 5.324a4.79 4.79 0 0 0 3.676-1.582v1.408h3.256v-11.836zm21.78-.176a5.32 5.32 0 0 0-4.268 1.936 4.42 4.42 0 0 0-3.894-1.936c-1.405-.057-2.765.506-3.718 1.54v-1.364h-3.278v11.838h3.432v-5.94c0-2.112 1.078-3.1 2.6-3.1 1.43 0 2.244.88 2.244 2.794v6.246h3.432v-5.94c0-2.112 1.078-3.1 2.618-3.1 1.386 0 2.244.88 2.244 2.794v6.246h3.432v-6.776c-.008-3.608-2.032-5.236-4.848-5.236zm19.646 6.138a5.86 5.86 0 0 0-6.16-6.138c-1.66-.08-3.278.53-4.473 1.683a6.03 6.03 0 0 0-1.84 4.41c0 3.52 2.662 6.094 6.754 6.094a6.2 6.2 0 0 0 4.88-1.912l-1.826-1.98a4.01 4.01 0 0 1-2.97 1.144c-1.563.162-3.008-.85-3.388-2.376h8.954c.02-.286.066-.66.066-.924zm-6.138-3.542c1.46-.056 2.72 1.014 2.9 2.464h-5.83a2.8 2.8 0 0 1 2.926-2.462zm15.62-2.6a5.18 5.18 0 0 0-3.916 1.562v-1.386h-3.278v11.842h3.432v-5.852c0-2.178 1.188-3.2 2.838-3.2 1.518 0 2.4.88 2.4 2.794v6.248h3.432v-6.776c-.006-3.608-2.118-5.236-4.912-5.236zm14.718 9.02c-.403.292-.9.446-1.386.44a1.38 1.38 0 0 1-1.474-1.562v-4.812h2.948v-2.64H735.5v-2.882h-3.432v2.882h-1.826v2.64h1.826v4.862c0 2.816 1.628 4.246 4.422 4.246a4.9 4.9 0 0 0 2.79-.748zm7.634-9.02a9.1 9.1 0 0 0-5.1 1.43l1.232 2.4a5.69 5.69 0 0 1 3.41-1.1c1.848 0 2.728.858 2.728 2.332h-2.728c-3.608 0-5.082 1.452-5.082 3.542 0 2.046 1.65 3.586 4.422 3.586 1.414.152 2.798-.48 3.608-1.65v1.478h3.212v-6.754c-.008-3.586-2.098-5.258-5.706-5.258zm-.264 9.878c-1.2 0-1.936-.572-1.936-1.43 0-.792.506-1.386 2.112-1.386h2.354v1.2a2.53 2.53 0 0 1-2.534 1.612zm15.774-.858c-.403.292-.9.446-1.386.44a1.38 1.38 0 0 1-1.478-1.556v-4.818h2.948v-2.64h-2.948v-2.882h-3.43v2.882h-1.826v2.64h1.826v4.862c0 2.816 1.628 4.246 4.422 4.246a4.9 4.9 0 0 0 2.794-.748zm4.576-10.494c.552.045 1.097-.144 1.503-.52s.635-.906.63-1.46a1.94 1.94 0 0 0-.664-1.39c-.404-.352-.937-.517-1.47-.46a1.96 1.96 0 0 0-2.138 1.92 1.96 1.96 0 0 0 2.134 1.914zm-1.72 13.492h3.432v-11.836h-3.432zm12.25.176c3.762 0 6.5-2.53 6.5-6.094s-2.728-6.094-6.5-6.094-6.512 2.53-6.512 6.094 2.754 6.094 6.512 6.094zm0-2.816a3 3 0 0 1-3.036-3.278 3 3 0 0 1 3.036-3.282 2.99 2.99 0 0 1 2.24.965c.575.625.857 1.467.774 2.313a2.99 2.99 0 0 1-.772 2.316c-.575.626-1.4.978-2.242.966zm15.972-9.372a5.18 5.18 0 0 0-3.912 1.562v-1.386h-3.278v11.836h3.432v-5.852c0-2.178 1.188-3.2 2.838-3.2 1.518 0 2.4.88 2.4 2.794v6.248h3.432v-6.776c-.002-3.608-2.114-5.236-4.908-5.236z"/><path d="M1092.415 569.578c4.378 0 6.974-2.508 6.974-7.04v-8.624h-3.52v8.492c0 2.926-1.254 4.136-3.432 4.136-2.156 0-3.432-1.2-3.432-4.136v-8.492h-3.564v8.624c0 4.532 2.596 7.04 6.974 7.04zm17.248-12.276a4.6 4.6 0 0 0-3.718 1.54v-1.364h-3.278v16.1h3.433v-5.518a4.6 4.6 0 0 0 3.563 1.43 5.75 5.75 0 0 0 5.9-6.094 5.75 5.75 0 0 0-5.9-6.094zm-.594 9.372a2.99 2.99 0 0 1-2.24-.965c-.575-.625-.857-1.467-.774-2.313a2.99 2.99 0 0 1 .772-2.316c.575-.626 1.4-.978 2.242-.966a2.99 2.99 0 0 1 2.24.965c.575.625.857 1.467.774 2.313a2.99 2.99 0 0 1-.772 2.316c-.575.626-1.4.978-2.242.966zm8.778 2.64h3.432V553h-3.432zm12.253.176c3.762 0 6.5-2.53 6.5-6.094s-2.727-6.094-6.5-6.094-6.512 2.53-6.512 6.094 2.75 6.094 6.512 6.094zm0-2.816a3 3 0 0 1-3.035-3.278 3 3 0 0 1 3.035-3.282 2.99 2.99 0 0 1 3.015 3.282 2.99 2.99 0 0 1-.774 2.313c-.574.625-1.4.977-2.24.965zm13.354-9.372a9.1 9.1 0 0 0-5.1 1.43l1.232 2.4a5.69 5.69 0 0 1 3.41-1.1c1.848 0 2.728.858 2.728 2.332h-2.73c-3.608 0-5.082 1.452-5.082 3.542 0 2.046 1.65 3.586 4.422 3.586 1.414.152 2.798-.48 3.608-1.65v1.472h3.212v-6.754c0-3.586-2.1-5.258-5.698-5.258zm-.264 9.878c-1.2 0-1.936-.572-1.936-1.43 0-.792.506-1.386 2.112-1.386h2.354v1.2a2.53 2.53 0 0 1-2.529 1.606zM1161 553v5.742a4.55 4.55 0 0 0-3.542-1.43 5.75 5.75 0 0 0-5.918 6.093c-.096 1.613.5 3.192 1.616 4.352s2.687 1.792 4.303 1.742c1.405.086 2.77-.482 3.7-1.54v1.364h3.278V553zm-2.947 13.684a3 3 0 0 1-3.036-3.278 3 3 0 0 1 3.036-3.282 3 3 0 0 1 3.014 3.278 3 3 0 0 1-3.014 3.282zm240.773-145.37h7c5.038 0 8.492-3.036 8.492-7.7s-3.454-7.7-8.492-7.7h-7zm3.564-2.926v-9.548h3.256c3.058 0 5.06 1.826 5.06 4.774s-2 4.774-5.06 4.774zm20 3.1c3.762 0 6.5-2.53 6.5-6.094s-2.728-6.094-6.5-6.094-6.512 2.53-6.512 6.094 2.748 6.096 6.5 6.096zm0-2.816a3 3 0 0 1-3.036-3.278 3 3 0 0 1 3.034-3.28 2.99 2.99 0 0 1 3.012 3.282c.083.846-.198 1.687-.773 2.312s-1.4.977-2.24.966zm14.496 2.818a5.49 5.49 0 0 0 5.3-2.992l-2.66-1.452a2.91 2.91 0 0 1-2.662 1.628 3.03 3.03 0 0 1-3.1-3.278 3.03 3.03 0 0 1 3.1-3.278 2.95 2.95 0 0 1 2.662 1.628l2.662-1.432c-.858-1.936-2.816-3.014-5.3-3.014-3.85 0-6.6 2.53-6.6 6.094s2.748 6.096 6.598 6.096zm15.774-12.012v5.852c0 2.178-1.144 3.2-2.728 3.2-1.518 0-2.4-.88-2.4-2.86v-6.182h-3.432v6.688c0 3.652 2.1 5.324 5.06 5.324a4.79 4.79 0 0 0 3.674-1.584v1.408h3.256v-11.836zm21.78-.176a5.32 5.32 0 0 0-4.268 1.936 4.42 4.42 0 0 0-3.894-1.936c-1.405-.057-2.765.506-3.718 1.54v-1.364h-3.278v11.836h3.432v-5.94c0-2.112 1.078-3.1 2.6-3.1 1.43 0 2.244.88 2.244 2.794v6.246H1471v-5.94c0-2.112 1.078-3.1 2.618-3.1 1.386 0 2.244.88 2.244 2.794v6.246h3.428v-6.776c0-3.608-2.024-5.236-4.84-5.236zm19.646 6.138a5.86 5.86 0 0 0-6.16-6.138c-1.66-.08-3.278.53-4.473 1.683a6.03 6.03 0 0 0-1.84 4.41c0 3.52 2.662 6.094 6.754 6.094a6.2 6.2 0 0 0 4.884-1.914l-1.826-1.98a4.01 4.01 0 0 1-2.97 1.144c-1.563.162-3.008-.85-3.388-2.376h8.954c.022-.286.066-.66.066-.924zm-6.138-3.542c1.46-.056 2.72 1.014 2.9 2.464h-5.83a2.8 2.8 0 0 1 2.93-2.464zm15.62-2.6a5.18 5.18 0 0 0-3.916 1.562v-1.386h-3.278v11.84h3.432v-5.852c0-2.178 1.188-3.2 2.838-3.2 1.518 0 2.4.88 2.4 2.794v6.248h3.432v-6.776c-.002-3.608-2.114-5.236-4.908-5.236zm14.718 9.02c-.403.292-.9.446-1.386.44a1.38 1.38 0 0 1-1.474-1.562v-4.814h2.948v-2.64h-2.948v-2.882h-3.432v2.882h-1.826v2.64h1.826v4.862c0 2.816 1.628 4.246 4.422 4.246a4.9 4.9 0 0 0 2.794-.748zm16.7 3.256a7.91 7.91 0 0 0 6.358-2.75l-2.3-2.1a4.91 4.91 0 0 1-3.872 1.826 4.73 4.73 0 0 1-3.548-1.378 4.72 4.72 0 0 1-1.38-3.548 4.72 4.72 0 0 1 1.38-3.55c.938-.938 2.225-1.438 3.55-1.38 1.496-.015 2.92.646 3.872 1.8l2.288-2.112a7.95 7.95 0 0 0-6.336-2.728c-4.8 0-8.36 3.322-8.36 7.964s3.564 7.968 8.338 7.968zm15.708-12.276a5.2 5.2 0 0 0-3.764 1.416v-5.72h-3.43v16.32h3.432v-5.852c0-2.178 1.188-3.2 2.838-3.2 1.518 0 2.4.88 2.4 2.794v6.248h3.43v-6.776c0-3.608-2.114-5.236-4.908-5.236zm19.734 6.138a5.86 5.86 0 0 0-6.16-6.138c-1.66-.08-3.278.53-4.473 1.683a6.03 6.03 0 0 0-1.84 4.41c0 3.52 2.662 6.094 6.754 6.094a6.2 6.2 0 0 0 4.884-1.914l-1.826-1.98a4.01 4.01 0 0 1-2.97 1.144c-1.563.162-3.008-.85-3.388-2.376h8.954c.02-.282.064-.656.064-.92zm-6.138-3.542c1.46-.056 2.72 1.014 2.9 2.464h-5.83a2.8 2.8 0 0 1 2.928-2.46zm14.144 9.596a5.49 5.49 0 0 0 5.3-2.992l-2.662-1.452a2.91 2.91 0 0 1-2.662 1.628 3.03 3.03 0 0 1-3.1-3.278 3.03 3.03 0 0 1 3.1-3.278 2.95 2.95 0 0 1 2.662 1.628l2.664-1.432c-.858-1.936-2.816-3.014-5.3-3.014-3.85 0-6.6 2.53-6.6 6.094s2.748 6.096 6.598 6.096zm16.016-.176h4.158l-5.368-6.82 4.928-5.016h-4.092l-5.016 4.752V405h-3.432v16.324h3.432V418.3l1.65-1.628zm-292.142-244l-3.454-4.95c1.983-.78 3.255-2.732 3.168-4.862 0-3.454-2.574-5.588-6.688-5.588h-6.666v15.4h3.564v-4.3h3.278l2.97 4.3zm-3.894-9.812c0 1.672-1.1 2.684-3.278 2.684h-2.9v-5.372h2.9c2.178 0 3.278.994 3.278 2.688zm17.776 3.938a5.86 5.86 0 0 0-6.16-6.138c-1.66-.08-3.278.53-4.473 1.683a6.03 6.03 0 0 0-1.84 4.41c0 3.52 2.662 6.094 6.754 6.094a6.2 6.2 0 0 0 4.884-1.914l-1.826-1.98a4.01 4.01 0 0 1-2.97 1.144c-1.563.162-3.008-.85-3.388-2.376h8.954l.066-.924zm-6.138-3.542c1.46-.056 2.72 1.014 2.9 2.464h-5.83a2.8 2.8 0 0 1 2.93-2.464zm17.38-2.42v1.518a4.75 4.75 0 0 0-3.916-1.694 5.64 5.64 0 0 0-4.2 1.577 5.63 5.63 0 0 0-1.717 4.143c-.026 1.56.597 3.06 1.718 4.144a5.63 5.63 0 0 0 4.2 1.576 4.87 4.87 0 0 0 3.74-1.474v.506c0 2.134-1.056 3.234-3.476 3.234a7.07 7.07 0 0 1-4.182-1.342l-1.364 2.464a9.75 9.75 0 0 0 5.808 1.628c4.268 0 6.644-2.024 6.644-6.424v-9.856zm-3.232 8.448c-.808.065-1.605-.212-2.2-.763s-.93-1.326-.925-2.137c-.008-.812.326-1.6.92-2.144s1.394-.832 2.204-.768c.805-.064 1.6.215 2.2.766a2.79 2.79 0 0 1 .9 2.134c.013.8-.316 1.587-.906 2.142a2.87 2.87 0 0 1-2.194.77zm11.4-10.1c.552.045 1.097-.144 1.503-.52s.635-.906.63-1.46c-.02-.536-.26-1.04-.667-1.4a1.89 1.89 0 0 0-1.473-.456 1.96 1.96 0 0 0-2.134 1.914 1.96 1.96 0 0 0 2.134 1.914zm-1.722 13.488h3.432v-11.836h-3.432zm10.6.176c3.542 0 5.588-1.562 5.588-3.762 0-4.664-7.15-2.706-7.15-4.73 0-.616.66-1.1 2.2-1.1a6.8 6.8 0 0 1 3.41.88l1.144-2.442c-1.412-.7-2.975-1.064-4.554-1.034-3.454 0-5.478 1.584-5.478 3.828 0 4.73 7.15 2.75 7.15 4.686 0 .66-.594 1.078-2.178 1.078a8.1 8.1 0 0 1-4.11-1.144l-1.144 2.464a10.16 10.16 0 0 0 5.126 1.276zm14.4-3.168c-.403.292-.9.446-1.386.44a1.38 1.38 0 0 1-1.474-1.562v-4.818h2.952v-2.64h-2.948v-2.882h-3.432v2.882h-1.826v2.64h1.826v4.862c0 2.816 1.628 4.246 4.422 4.246a4.9 4.9 0 0 0 2.794-.748zm14.08-2.882a5.86 5.86 0 0 0-6.16-6.138 6.03 6.03 0 0 0-4.47 1.685c-1.195 1.153-1.86 2.748-1.84 4.4 0 3.518 2.66 6.094 6.752 6.094a6.2 6.2 0 0 0 4.884-1.914l-1.826-1.98a4.01 4.01 0 0 1-2.97 1.144c-1.563.162-3.008-.85-3.388-2.376h8.954l.066-.924zm-6.134-3.542c1.46-.056 2.72 1.014 2.9 2.464h-5.83a2.8 2.8 0 0 1 2.93-2.464zm11.7-.858v-1.562h-3.274v11.836h3.432v-5.588c0-2.266 1.254-3.3 3.146-3.3.264 0 .484.022.77.044v-3.168c-1.56-.122-3.08.527-4.07 1.738zm157.94-32.266v-2.86h-11.638v15.4h3.564v-5.6h7.128v-2.86h-7.128v-4.07zm3.674-.946c.552.045 1.097-.144 1.503-.52s.635-.906.63-1.46a1.94 1.94 0 0 0-.664-1.39c-.404-.352-.937-.517-1.47-.46a1.96 1.96 0 0 0-2.138 1.914 1.96 1.96 0 0 0 2.138 1.914zm-1.716 13.486h3.432v-11.836h-3.432zm6.622 0h3.432V131h-3.432zm8.338-13.486c.552.045 1.097-.144 1.503-.52s.635-.906.63-1.46a1.94 1.94 0 0 0-.664-1.39c-.404-.352-.937-.517-1.47-.46a1.96 1.96 0 0 0-2.134 1.914 1.96 1.96 0 0 0 2.134 1.914zm-1.716 13.486h3.434v-11.836h-3.434zm13.816-12.012a5.18 5.18 0 0 0-3.916 1.562v-1.386h-3.278v11.836h3.432v-5.852c0-2.178 1.188-3.2 2.838-3.2 1.518 0 2.4.88 2.4 2.794v6.248h3.432v-6.776c-.002-3.608-2.114-5.236-4.908-5.236zm17.094.176v1.518a4.75 4.75 0 0 0-3.916-1.694 5.63 5.63 0 0 0-5.918 5.72c-.026 1.56.597 3.06 1.718 4.144a5.63 5.63 0 0 0 4.2 1.576 4.87 4.87 0 0 0 3.74-1.474v.506c0 2.134-1.056 3.234-3.476 3.234a7.08 7.08 0 0 1-4.18-1.342l-1.364 2.464a9.75 9.75 0 0 0 5.808 1.628c4.268 0 6.644-2.024 6.644-6.424v-9.856zm-3.234 8.448c-.808.065-1.605-.212-2.2-.763s-.93-1.326-.925-2.137c-.005-.8.33-1.585.925-2.137a2.89 2.89 0 0 1 2.2-.763c.805-.064 1.6.215 2.2.766a2.79 2.79 0 0 1 .9 2.134 2.9 2.9 0 0 1-.9 2.134c-.58.552-1.384.83-2.2.766zm22.814-12.012h-6.666v15.4h3.564v-4.246h3.1c4.114 0 6.688-2.134 6.688-5.566.002-3.454-2.572-5.588-6.686-5.588zm-.2 8.25h-2.9v-5.35h2.9c2.178 0 3.278 1 3.278 2.684.002 1.676-1.098 2.666-3.276 2.666zm12.454-3.124v-1.562h-3.278v11.836h3.432v-5.588c0-2.266 1.254-3.3 3.146-3.3.264 0 .484.022.77.044v-3.168c-1.56-.122-3.08.527-4.07 1.738zm11.638 10.45c3.762 0 6.5-2.53 6.5-6.094s-2.728-6.094-6.5-6.094-6.512 2.53-6.512 6.094 2.75 6.094 6.512 6.094zm0-2.816a3 3 0 0 1-3.036-3.278 3 3 0 0 1 3.036-3.282 2.99 2.99 0 0 1 2.24.965c.575.625.857 1.467.774 2.313a2.99 2.99 0 0 1-.772 2.316c-.575.626-1.4.978-2.242.966zm14.5 2.816a5.49 5.49 0 0 0 5.3-2.992l-2.662-1.452a2.91 2.91 0 0 1-2.662 1.628 3.03 3.03 0 0 1-3.1-3.278 3.03 3.03 0 0 1 3.1-3.278 2.95 2.95 0 0 1 2.662 1.628l2.662-1.432c-.858-1.936-2.816-3.014-5.3-3.014-3.85 0-6.6 2.53-6.6 6.094s2.752 6.096 6.598 6.096zm18.722-6.05a5.86 5.86 0 0 0-6.16-6.138c-1.66-.08-3.278.53-4.473 1.683a6.03 6.03 0 0 0-1.84 4.41c0 3.52 2.662 6.094 6.754 6.094a6.2 6.2 0 0 0 4.884-1.914l-1.826-1.98a4.01 4.01 0 0 1-2.97 1.144c-1.563.162-3.008-.85-3.388-2.376h8.95l.068-.924zm-6.14-3.542c1.46-.056 2.72 1.014 2.9 2.464h-5.83a2.8 2.8 0 0 1 2.93-2.464zm12.408 9.592c3.542 0 5.588-1.562 5.588-3.762 0-4.664-7.15-2.706-7.15-4.73 0-.616.66-1.1 2.2-1.1a6.8 6.8 0 0 1 3.41.88l1.144-2.442c-1.412-.7-2.975-1.064-4.554-1.034-3.454 0-5.478 1.584-5.478 3.828 0 4.73 7.15 2.75 7.15 4.686 0 .66-.594 1.078-2.178 1.078a8.1 8.1 0 0 1-4.114-1.144l-1.144 2.464a10.16 10.16 0 0 0 5.126 1.276zm11.682 0c3.542 0 5.588-1.562 5.588-3.762 0-4.664-7.15-2.706-7.15-4.73 0-.616.66-1.1 2.2-1.1a6.8 6.8 0 0 1 3.41.88l1.144-2.442c-1.412-.7-2.975-1.064-4.554-1.034-3.454 0-5.478 1.584-5.478 3.828 0 4.73 7.15 2.75 7.15 4.686 0 .66-.594 1.078-2.178 1.078a8.1 8.1 0 0 1-4.114-1.144l-1.144 2.464a10.16 10.16 0 0 0 5.126 1.276z"/><path d="M1632.613 17.314h7c5.038 0 8.492-3.036 8.492-7.7s-3.454-7.7-8.492-7.7h-7zm3.564-2.926V4.84h3.256c3.058 0 5.06 1.826 5.06 4.774s-2 4.774-5.06 4.774zm25.96-2.948a5.86 5.86 0 0 0-6.16-6.138c-1.66-.08-3.278.53-4.473 1.683s-1.86 2.75-1.84 4.41c0 3.52 2.662 6.094 6.754 6.094a6.2 6.2 0 0 0 4.883-1.914l-1.826-1.98a4.01 4.01 0 0 1-2.974 1.144c-1.563.162-3.008-.85-3.388-2.376h8.954c.027-.286.07-.66.07-.924zM1656 7.898c1.46-.056 2.72 1.014 2.9 2.464h-5.83a2.8 2.8 0 0 1 2.93-2.464zm8.425 9.416h3.432V1h-3.432zm8.338-13.486c.552.045 1.097-.144 1.503-.52s.635-.906.63-1.46c-.02-.535-.26-1.038-.664-1.39s-.937-.517-1.47-.46a1.96 1.96 0 0 0-2.134 1.914 1.96 1.96 0 0 0 2.134 1.914zm-1.716 13.486h3.432V5.478h-3.432zm15.07-11.836l-3.388 8.052-3.278-8.052h-3.542l4.972 11.836h3.542l4.994-11.836zm15.972 5.962a5.86 5.86 0 0 0-6.16-6.138c-1.66-.08-3.278.53-4.473 1.683s-1.86 2.75-1.84 4.41c0 3.52 2.662 6.094 6.754 6.094a6.2 6.2 0 0 0 4.884-1.914l-1.826-1.98a4.01 4.01 0 0 1-2.97 1.144c-1.563.162-3.008-.85-3.388-2.376h8.954c.022-.286.066-.66.066-.924zm-6.138-3.542c1.46-.056 2.72 1.014 2.9 2.464h-5.83a2.8 2.8 0 0 1 2.93-2.464zm11.7-.858V5.478h-3.278v11.836h3.432v-5.588c0-2.266 1.254-3.3 3.146-3.3.264 0 .484.022.77.044V5.302c-1.558-.12-3.077.528-4.066 1.738zm7.832-3.212c.552.045 1.097-.144 1.503-.52s.635-.906.63-1.46c-.02-.535-.26-1.038-.664-1.39s-.937-.517-1.47-.46a1.96 1.96 0 0 0-2.13 1.914 1.96 1.96 0 0 0 2.134 1.914zm-1.712 13.486h3.43V5.478h-3.432zm13.816-12.012a5.18 5.18 0 0 0-3.916 1.562V5.478h-3.278v11.836h3.432v-5.852c0-2.178 1.188-3.2 2.838-3.2 1.518 0 2.4.88 2.4 2.794v6.248h3.432v-6.776c-.002-3.608-2.114-5.236-4.908-5.236zm17.094.176v1.518a4.75 4.75 0 0 0-3.916-1.694c-1.558-.08-3.078.492-4.2 1.576s-1.744 2.584-1.718 4.144c-.026 1.56.597 3.06 1.718 4.144s2.642 1.655 4.2 1.576c1.4.07 2.764-.467 3.74-1.474v.506c0 2.134-1.056 3.234-3.476 3.234-1.5.007-2.964-.463-4.18-1.342l-1.364 2.464a9.75 9.75 0 0 0 5.808 1.628c4.268 0 6.644-2.024 6.644-6.424V5.478zm-3.234 8.448c-.808.065-1.605-.212-2.2-.763s-.93-1.326-.925-2.137c-.005-.8.33-1.585.925-2.137s1.392-.828 2.2-.763c.805-.064 1.6.215 2.2.766s.92 1.326.9 2.134c.01.808-.32 1.582-.9 2.134s-1.384.83-2.2.766zm19.7.528V10.9h7.15V8.114h-7.15v-3.34h8.1v-2.86H1757.6v15.4h11.92v-2.86zm18.172-9.152a5.18 5.18 0 0 0-3.916 1.562V5.478h-3.278v11.836h3.432v-5.852c0-2.178 1.188-3.2 2.838-3.2 1.518 0 2.4.88 2.4 2.794v6.248h3.432v-6.776c-.002-3.608-2.117-5.236-4.908-5.236zM1796.073 1v5.742c-.913-.974-2.21-1.496-3.542-1.43-1.615-.05-3.176.584-4.302 1.743s-1.712 2.738-1.616 4.35c-.096 1.613.5 3.192 1.616 4.35s2.687 1.792 4.302 1.743c1.405.086 2.77-.482 3.7-1.54v1.364h3.278V1zm-2.948 13.684a3 3 0 0 1-3.036-3.278 3 3 0 0 1 3.036-3.282 3 3 0 0 1 3.014 3.278 3 3 0 0 1-3.014 3.282zm29.656 2.64l-3.454-4.95c1.985-.78 3.26-2.73 3.173-4.862 0-3.454-2.574-5.588-6.688-5.588h-6.67v15.4h3.564v-4.3h3.278l2.97 4.3zm-3.894-9.812c0 1.672-1.1 2.684-3.278 2.684h-2.9V4.814h2.9c2.178 0 3.278.994 3.278 2.688zm17.776 3.938a5.86 5.86 0 0 0-6.16-6.138c-1.66-.08-3.278.53-4.473 1.683s-1.86 2.75-1.84 4.41c0 3.52 2.662 6.094 6.754 6.094a6.2 6.2 0 0 0 4.884-1.914l-1.827-1.98a4.01 4.01 0 0 1-2.97 1.144c-1.563.162-3.007-.85-3.387-2.376h8.957c.02-.286.063-.66.063-.924zm-6.138-3.542c1.46-.056 2.72 1.014 2.9 2.464h-5.825a2.8 2.8 0 0 1 2.925-2.464zm12.408 9.592c3.542 0 5.588-1.562 5.588-3.762 0-4.664-7.15-2.706-7.15-4.73 0-.616.66-1.1 2.2-1.1a6.8 6.8 0 0 1 3.41.88l1.144-2.442c-1.412-.71-2.975-1.064-4.554-1.034-3.454 0-5.478 1.584-5.478 3.828 0 4.73 7.15 2.75 7.15 4.686 0 .66-.594 1.078-2.178 1.078a8.1 8.1 0 0 1-4.114-1.144l-1.144 2.464a10.16 10.16 0 0 0 5.126 1.276zm16.192-12.012v5.852c0 2.178-1.144 3.2-2.728 3.2-1.518 0-2.4-.88-2.4-2.86V5.478h-3.43v6.688c0 3.652 2.1 5.324 5.06 5.324a4.79 4.79 0 0 0 3.673-1.584v1.408h3.256V5.478zm6.622 11.836h3.432V1h-3.432zm14.2-2.992c-.403.292-.89.446-1.386.44a1.38 1.38 0 0 1-1.474-1.562V8.382h2.948v-2.64h-2.948V2.86h-3.432v2.882h-1.826v2.64h1.826v4.862c0 2.816 1.628 4.246 4.422 4.246a4.9 4.9 0 0 0 2.794-.748z"/></g></svg>