<svg xmlns="http://www.w3.org/2000/svg" xmlns:xlink="http://www.w3.org/1999/xlink" width="72" height="516" viewBox="0 0 72 516"><defs><linearGradient id="linear-gradient" x1=".5" x2=".5" y2="1" gradientUnits="objectBoundingBox"><stop offset="0" stop-color="#fff" stop-opacity="0"/><stop offset="1" stop-color="#fff"/></linearGradient><linearGradient id="linear-gradient-2" y1="1" y2="0" xlink:href="#linear-gradient"/></defs><g id="Group_2884" data-name="Group 2884" transform="translate(5707 4576)"><path id="Path_16619" fill="#2d2d2d" d="M25.772,401.754c0-4.658-1.7-8.33-4.76-10.676l-4.522,5.066a6.43,6.43,0,0,1,2.788,5.2c0,3.332-2.312,5.576-5.95,5.576s-5.95-2.244-5.95-5.576a6.43,6.43,0,0,1,2.788-5.2l-4.522-5.066c-3.06,2.346-4.76,6.018-4.76,10.676,0,7.646,5.134,13.26,12.444,13.26s12.444-5.614,12.444-13.26Zm-.2-22.066c0-6.324-4.012-10.812-9.656-10.812S6.3,373.364,6.3,379.688c0,6.3,3.978,10.812,9.622,10.812s9.656-4.522,9.656-10.812Zm-5.984,0c0,1.7-1.258,3.026-3.672,3.026s-3.638-1.326-3.638-3.026,1.224-3.026,3.638-3.026S19.584,377.988,19.584,379.688ZM6.3,353.542a7.722,7.722,0,0,0,2.176,5.6H6.628v7.3h18.6v-7.684H16.5c-2.754,0-3.74-1.326-3.74-2.9,0-1.394.884-2.278,3.2-2.278h9.278V345.9H14.62c-5.848,0-8.33,3.332-8.33,7.616Zm19.278-18.224c0-6.46-2.924-9.622-6.3-9.622-7.446,0-4.93,10.676-6.868,10.676-.442,0-.884-.544-.884-2.516a11.02,11.02,0,0,1,1.36-5.372L7.82,326.376a17.4,17.4,0,0,0-1.53,7.582c0,6.256,2.856,9.52,6.358,9.52,7.446,0,4.9-10.7,6.8-10.7.544,0,.884.5.884,2.38a13.465,13.465,0,0,1-1.666,6.494l5.062,2.108a18.66,18.66,0,0,0,1.84-8.432ZM6.638,310.736h8.74c2.754,0,3.74,1.292,3.74,2.618,0,1.5-.884,2.414-3.536,2.414H6.628v7.684H16.9c6.052,0,8.67-3.366,8.67-7.82a7.207,7.207,0,0,0-2.108-5.27h1.768v-7.3H6.628Zm18.6-11.084v-7.684H0v7.684Zm-5.984-25.33a3.041,3.041,0,0,1,.5,1.734,1.6,1.6,0,0,1-1.8,1.6H13.262v-3.808h-5.6v3.808h-5.2v7.684h5.2v2.55h5.6v-2.55h4.76c5.134,0,7.548-2.992,7.548-8.126a9.925,9.925,0,0,0-.986-4.726ZM6.3,262.222a16.87,16.87,0,0,0,2.108,8.364l5.066-2.448a8.39,8.39,0,0,1-1.462-4.76c0-2.176.748-3.264,2.176-3.5v3.094c0,5.78,2.006,8.5,5.6,8.5,3.2,0,5.78-2.346,5.78-6.9,0-2.618-.918-4.386-2.788-5.27h2.448v-7.14h-10c-6.184-.008-8.938,3.664-8.938,10.056Zm14.654.034c0,1.156-.646,1.836-1.5,1.836-1.02,0-1.564-.714-1.564-2.346v-1.9h1.292a2.43,2.43,0,0,1,1.772,2.406ZM6.3,235.9a7.722,7.722,0,0,0,2.176,5.6H6.628v7.3h18.6v-7.684H16.5c-2.754,0-3.74-1.326-3.74-2.9,0-1.394.884-2.278,3.2-2.278h9.278v-7.684H14.62c-5.848,0-8.33,3.334-8.33,7.616Zm19.278-21.282c0-4.522-2.074-7.922-5.508-9.146l-2.924,5.95c1.734.782,2.448,1.9,2.448,3.23,0,1.734-1.224,3.162-3.672,3.162-2.414,0-3.638-1.428-3.638-3.162,0-1.326.714-2.448,2.448-3.23l-2.924-5.95C8.374,206.7,6.3,210.1,6.3,214.618c0,6.426,3.978,10.982,9.622,10.982,5.678,0,9.656-4.556,9.656-10.982ZM6.638,190.682l9.962,3.9-9.962,3.842v7.888l18.838-7.822a2.31,2.31,0,0,1,.748,1.9,4.75,4.75,0,0,1-.986,2.726l5.27,2.55a9.821,9.821,0,0,0,1.666-5.644c0-3.944-1.462-6.936-6.562-8.976L6.64,183.4Z" data-name="Path 16619" transform="translate(-5707 -4617.396)"/><g id="Group_2883" data-name="Group 2883"><path id="Path_16620" fill="none" stroke="#f8951d" stroke-width="6" d="M57.728,55.75V468.945" data-name="Path 16620" transform="translate(-5707.228 -4580.25)"/><g id="Group_2876" data-name="Group 2876" transform="translate(-0.228 -2)"><g id="Group_2856" data-name="Group 2856" transform="translate(-5707 -4578)"><circle id="Ellipse_2710" cx="14.5" cy="14.5" r="14.5" fill="#fff" data-name="Ellipse 2710" transform="translate(43.228 55)"/><circle id="Ellipse_2711" cx="12" cy="12" r="12" fill="none" stroke="#f8951d" stroke-width="5" data-name="Ellipse 2711" transform="translate(45.728 57.5)"/></g><circle id="Ellipse_2712" cx="4.5" cy="4.5" r="4.5" fill="#2d2d2d" data-name="Ellipse 2712" transform="translate(-5653.772 -4513)"/></g><g id="Group_2877" data-name="Group 2877" transform="translate(-0.228 -1)"><g id="Group_2857" data-name="Group 2857" transform="translate(-5707 -4578)"><circle id="Ellipse_2713" cx="14.5" cy="14.5" r="14.5" fill="#fff" data-name="Ellipse 2713" transform="translate(43.228 131)"/><circle id="Ellipse_2714" cx="12" cy="12" r="12" fill="none" stroke="#f8951d" stroke-width="5" data-name="Ellipse 2714" transform="translate(45.728 133.5)"/></g><circle id="Ellipse_2715" cx="4.5" cy="4.5" r="4.5" fill="#2d2d2d" data-name="Ellipse 2715" transform="translate(-5653.772 -4437)"/></g><g id="Group_2878" data-name="Group 2878" transform="translate(-0.228 -1)"><g id="Group_2858" data-name="Group 2858" transform="translate(-5707 -4578)"><circle id="Ellipse_2716" cx="14.5" cy="14.5" r="14.5" fill="#fff" data-name="Ellipse 2716" transform="translate(43.228 208)"/><circle id="Ellipse_2717" cx="12" cy="12" r="12" fill="none" stroke="#f8951d" stroke-width="5" data-name="Ellipse 2717" transform="translate(45.728 210.5)"/></g><circle id="Ellipse_2718" cx="4.5" cy="4.5" r="4.5" fill="#2d2d2d" data-name="Ellipse 2718" transform="translate(-5653.772 -4360)"/></g><g id="Group_2879" data-name="Group 2879" transform="translate(-0.228)"><g id="Group_2859" data-name="Group 2859" transform="translate(-5707 -4578)"><circle id="Ellipse_2719" cx="14.5" cy="14.5" r="14.5" fill="#fff" data-name="Ellipse 2719" transform="translate(43.228 284)"/><circle id="Ellipse_2720" cx="12" cy="12" r="12" fill="none" stroke="#f8951d" stroke-width="5" data-name="Ellipse 2720" transform="translate(45.728 286.5)"/></g><circle id="Ellipse_2721" cx="4.5" cy="4.5" r="4.5" fill="#2d2d2d" data-name="Ellipse 2721" transform="translate(-5653.772 -4284)"/></g><g id="Group_2880" data-name="Group 2880" transform="translate(-0.228 1)"><g id="Group_2860" data-name="Group 2860" transform="translate(-5707 -4578)"><circle id="Ellipse_2722" cx="14.5" cy="14.5" r="14.5" fill="#fff" data-name="Ellipse 2722" transform="translate(43.228 360)"/><circle id="Ellipse_2723" cx="12" cy="12" r="12" fill="none" stroke="#f8951d" stroke-width="5" data-name="Ellipse 2723" transform="translate(45.728 362.5)"/></g><circle id="Ellipse_2724" cx="4.5" cy="4.5" r="4.5" fill="#2d2d2d" data-name="Ellipse 2724" transform="translate(-5653.772 -4208)"/></g><g id="Group_2881" data-name="Group 2881" transform="translate(-0.228 78)"><g id="Group_2860-2" data-name="Group 2860" transform="translate(-5707 -4578)"><circle id="Ellipse_2722-2" cx="14.5" cy="14.5" r="14.5" fill="#fff" data-name="Ellipse 2722" transform="translate(43.228 360)"/><circle id="Ellipse_2723-2" cx="12" cy="12" r="12" fill="none" stroke="#f8951d" stroke-width="5" data-name="Ellipse 2723" transform="translate(45.728 362.5)"/></g><circle id="Ellipse_2724-2" cx="4.5" cy="4.5" r="4.5" fill="#2d2d2d" data-name="Ellipse 2724" transform="translate(-5653.772 -4208)"/></g><path id="Path_16622" fill="none" stroke="#f8951d" stroke-dasharray="7 10" stroke-width="6" d="M57.728,550.75v41" data-name="Path 16622" transform="translate(-5707.228 -4651.75)"/><path id="Path_16623" fill="url(#linear-gradient)" d="M49.228,582h18v41h-18Z" data-name="Path 16623" transform="translate(-5707.228 -4683)"/><path id="Path_16633" fill="none" stroke="#f8951d" stroke-dasharray="7 10" stroke-width="6" d="M14.5.5v41" data-name="Path 16633" transform="translate(-5664 -4576.5)"/><path id="Path_16632" fill="url(#linear-gradient-2)" d="M6,0H24V41H6Z" data-name="Path 16632" transform="translate(-5664 -4576)"/></g></g></svg>