<svg xmlns="http://www.w3.org/2000/svg" xmlns:xlink="http://www.w3.org/1999/xlink" width="74.904" height="439.25" viewBox="0 0 74.904 439.25"><defs><linearGradient id="linear-gradient" x1=".5" x2=".5" y1="1" gradientUnits="objectBoundingBox"><stop offset="0" stop-color="#fff" stop-opacity="0"/><stop offset="1" stop-color="#fff"/></linearGradient><linearGradient id="linear-gradient-2" y1="0" y2="1" xlink:href="#linear-gradient"/></defs><g id="Group_2885" data-name="Group 2885" transform="translate(5408 4576)"><g id="Group_2882" data-name="Group 2882"><path id="Path_16625" fill="none" stroke="#f8951d" stroke-width="6" d="M14.5,55.75V391.635" data-name="Path 16625" transform="translate(-5408 -4576.25)"/><path id="Path_16626" fill="none" stroke="#f8951d" stroke-dasharray="7 10" stroke-width="6" d="M14.5.5v41" data-name="Path 16626" transform="translate(-5408 -4576.5)"/><path id="Path_16629" fill="none" stroke="#f8951d" stroke-dasharray="7 10" stroke-width="6" d="M14.5,550.75v41" data-name="Path 16629" transform="translate(-5408 -4728.75)"/><path id="Path_16630" fill="url(#linear-gradient)" d="M6,0H24V41H6Z" data-name="Path 16630" transform="translate(-5408 -4576)"/><path id="Path_16631" fill="url(#linear-gradient-2)" d="M6,583H24v41.25H6Z" data-name="Path 16631" transform="translate(-5408 -4761)"/><g id="Group_2871" data-name="Group 2871" transform="translate(0 -1)"><g id="Group_2864" data-name="Group 2864" transform="translate(-5408 -4579)"><circle id="Ellipse_2731" cx="14.5" cy="14.5" r="14.5" fill="#fff" data-name="Ellipse 2731" transform="translate(0 55)"/><circle id="Ellipse_2732" cx="12" cy="12" r="12" fill="none" stroke="#f8951d" stroke-width="5" data-name="Ellipse 2732" transform="translate(2.5 57.5)"/></g><circle id="Ellipse_2733" cx="4.5" cy="4.5" r="4.5" fill="#2d2d2d" data-name="Ellipse 2733" transform="translate(-5398 -4514)"/></g><g id="Group_2872" data-name="Group 2872"><g id="Group_2865" data-name="Group 2865" transform="translate(-5408 -4579)"><circle id="Ellipse_2734" cx="14.5" cy="14.5" r="14.5" fill="#fff" data-name="Ellipse 2734" transform="translate(0 131)"/><circle id="Ellipse_2735" cx="12" cy="12" r="12" fill="none" stroke="#f8951d" stroke-width="5" data-name="Ellipse 2735" transform="translate(2.5 133.5)"/></g><circle id="Ellipse_2736" cx="4.5" cy="4.5" r="4.5" fill="#2d2d2d" data-name="Ellipse 2736" transform="translate(-5398 -4438)"/></g><g id="Group_2873" data-name="Group 2873"><g id="Group_2866" data-name="Group 2866" transform="translate(-5408 -4579)"><circle id="Ellipse_2737" cx="14.5" cy="14.5" r="14.5" fill="#fff" data-name="Ellipse 2737" transform="translate(0 208)"/><circle id="Ellipse_2738" cx="12" cy="12" r="12" fill="none" stroke="#f8951d" stroke-width="5" data-name="Ellipse 2738" transform="translate(2.5 210.5)"/></g><circle id="Ellipse_2739" cx="4.5" cy="4.5" r="4.5" fill="#2d2d2d" data-name="Ellipse 2739" transform="translate(-5398 -4361)"/></g><g id="Group_2874" data-name="Group 2874" transform="translate(0 1)"><g id="Group_2867" data-name="Group 2867" transform="translate(-5408 -4579)"><circle id="Ellipse_2740" cx="14.5" cy="14.5" r="14.5" fill="#fff" data-name="Ellipse 2740" transform="translate(0 284)"/><circle id="Ellipse_2741" cx="12" cy="12" r="12" fill="none" stroke="#f8951d" stroke-width="5" data-name="Ellipse 2741" transform="translate(2.5 286.5)"/></g><circle id="Ellipse_2742" cx="4.5" cy="4.5" r="4.5" fill="#2d2d2d" data-name="Ellipse 2742" transform="translate(-5398 -4285)"/></g><g id="Group_2875" data-name="Group 2875" transform="translate(0 -151)"><g id="Group_2870" data-name="Group 2870" transform="translate(-5408 -4579)"><circle id="Ellipse_2749" cx="14.5" cy="14.5" r="14.5" fill="#fff" data-name="Ellipse 2749" transform="translate(0 513)"/><circle id="Ellipse_2750" cx="12" cy="12" r="12" fill="none" stroke="#f8951d" stroke-width="5" data-name="Ellipse 2750" transform="translate(2.5 515.5)"/></g><circle id="Ellipse_2751" cx="4.5" cy="4.5" r="4.5" fill="#2d2d2d" data-name="Ellipse 2751" transform="translate(-5398 -4056)"/></g></g><path id="Path_16628" fill="#2d2d2d" d="M47,213.5l23.8-.07v-6.6l-12.682-7.544L70.8,191.534v-6.6H47v7.3H57.472l-8.33,5.168v3.536l8.7,5.168L47,206.178Zm18.938,11.966A16.87,16.87,0,0,0,63.83,217.1l-5.066,2.448a8.39,8.39,0,0,1,1.462,4.76c0,2.176-.748,3.264-2.176,3.5v-3.1c0-5.78-2.006-8.5-5.6-8.5-3.2,0-5.78,2.346-5.78,6.9,0,2.618.918,4.386,2.788,5.27H47v7.14H57c6.184,0,8.938-3.67,8.938-10.062Zm-14.654-.034c0-1.156.646-1.836,1.5-1.836,1.02,0,1.564.714,1.564,2.346v1.9H53.056a2.43,2.43,0,0,1-1.772-2.41Zm15.8,17.268c0,2.822,1.7,4.624,4.046,4.624,2.2,0,3.774-1.8,3.774-4.624s-1.7-4.62-3.914-4.62S67.084,239.882,67.084,242.7ZM47,238.862v7.684H65.6v-7.684Zm18.938,24a7.722,7.722,0,0,0-2.176-5.6H65.6v-7.3H47v7.688h8.738c2.754,0,3.74,1.326,3.74,2.9,0,1.394-.884,2.278-3.2,2.278H47v7.684H57.608c5.848,0,8.33-3.332,8.33-7.616ZM46.66,281.1c0,6.46,2.924,9.622,6.3,9.622,7.446,0,4.93-10.676,6.868-10.676.442,0,.884.544.884,2.516a11.02,11.02,0,0,1-1.36,5.372l5.066,2.108a17.4,17.4,0,0,0,1.53-7.582c0-6.256-2.856-9.52-6.358-9.52-7.446,0-4.9,10.7-6.8,10.7-.544,0-.884-.5-.884-2.38a13.465,13.465,0,0,1,1.666-6.494l-5.062-2.108a18.66,18.66,0,0,0-1.84,8.432Zm6.324,23.8a3.041,3.041,0,0,1-.5-1.734,1.6,1.6,0,0,1,1.8-1.6h4.692v3.808h5.6v-3.808h5.2v-7.684h-5.2v-2.55h-5.6v2.55h-4.76c-5.134,0-7.548,2.992-7.548,8.126a9.925,9.925,0,0,0,.986,4.726Zm10.608,11.084H65.6v-7.3H47v7.684h8.262c2.958,0,4.012,1.632,4.012,3.944a10.65,10.65,0,0,1-.136,1.7h6.8a7.64,7.64,0,0,0-2.346-6.018ZM56.316,343.8c6.3,0,9.622-4.726,9.622-10.234,0-6.018-3.978-10.54-9.622-10.54-5.542,0-9.656,4.42-9.656,11.254,0,3.706,1.02,6.324,2.992,8.126L53.7,338.39a5.68,5.68,0,0,1-1.36-3.876c0-1.9.748-3.2,2.176-3.74v12.92C55.058,343.728,55.772,343.8,56.316,343.8ZM60.7,333.62a2.884,2.884,0,0,1-2.482,2.992v-5.984A2.865,2.865,0,0,1,60.7,333.62Zm5.236,20.4a16.87,16.87,0,0,0-2.108-8.364L58.762,348.1a8.39,8.39,0,0,1,1.462,4.76c0,2.176-.748,3.264-2.176,3.5V353.27c0-5.78-2.006-8.5-5.6-8.5-3.2,0-5.78,2.346-5.78,6.9,0,2.618.918,4.386,2.788,5.27H47v7.14H57c6.184,0,8.938-3.668,8.938-10.06Zm-14.654-.034c0-1.156.646-1.836,1.5-1.836,1.02,0,1.564.714,1.564,2.346v1.9H53.054a2.43,2.43,0,0,1-1.77-2.41Zm14.654,38.046a7.88,7.88,0,0,0-2.822-6.222A6.65,6.65,0,0,0,65.938,380a7.26,7.26,0,0,0-2.074-5.27H65.6v-7.3H47v7.68h9.078c2.482,0,3.4,1.054,3.4,2.414,0,1.292-.884,2.074-3.2,2.074H47v7.684h9.078c2.482,0,3.4,1.054,3.4,2.414,0,1.224-.884,2.074-3.2,2.074H47v7.684H57.608c5.848,0,8.33-3.2,8.33-7.412Z" data-name="Path 16628" transform="translate(-5408 -4648.934)"/></g></svg>