<svg xmlns="http://www.w3.org/2000/svg" width="41.152" height="32" viewBox="0 0 41.152 32"><g transform="translate(-0.65 -4.05)"><path d="M26.517,6,18.5,14.017l8.418,8.418,8.017-8.017" transform="translate(6 0.655)" fill="#90cff1"/><path d="M25.047,16.211,19.836,11,18.5,12.336l8.551,8.551,8.017-8.017-1.336-1.336-4.81,4.81A2.877,2.877,0,0,1,25.047,16.211Z" transform="translate(6 2.336)" fill="#70b7e6"/><path d="M2.2,14.151l8.017,8.017,8.551-8.551L10.751,5.6" transform="translate(0.521 0.521)" fill="#fff"/><path d="M1.2,13.051l5.612,5.612,8.551-8.418L9.618,4.5" transform="translate(0.185 0.151)" fill="#607d95"/><path d="M1.2,13.051l5.612,5.612,8.551-8.418L9.618,4.5" transform="translate(0.185 0.151)" fill="#607d95"/><path d="M8.346,15.944l-4.81-4.81L2.2,12.471l8.017,8.017,8.551-8.551L17.432,10.6l-5.211,5.211a2.877,2.877,0,0,1-3.875.134Z" transform="translate(0.521 2.202)" fill="#d5e5f2"/><path d="M1.2,13.051l5.612,5.612,8.551-8.418L9.618,4.5" transform="translate(0.185 0.151)" fill="#607d95"/><path d="M1.158,11.194,2.481,9.871,8.149,15.54,6.826,16.863Z" transform="translate(0.171 1.957)" fill="#4b6c85"/><path d="M25.251,21.735l-.935-.935-1.871,1.871-1.871,1.871-2,1.871L16.7,28.282l.935.935a1.323,1.323,0,1,0,1.871-1.871,1.323,1.323,0,1,0,1.871-1.871,1.323,1.323,0,0,0,1.871-1.871,1.292,1.292,0,0,0,1.871,0A1.2,1.2,0,0,0,25.251,21.735Z" transform="translate(5.395 5.63)" fill="#e2b698"/><path d="M20.659,19.214a2.182,2.182,0,0,0,3.207,0l.267-.267L19.055,13.87l-2.539.4-1.2-1.2.267-.668-3.474,3.474L8.5,19.481l.668-.267,1.6,1.6a1.292,1.292,0,0,0,0,1.871l.935.935,6.547-6.681,2.405,2.271Z" transform="translate(2.639 2.807)" fill="#f0c9ae"/><path d="M15.715,12.3l-3.608,3.608L8.5,19.515l.668-.267,1.069,1.069.534.534a1.292,1.292,0,0,0,0,1.871l.935.935.134-.134,1.2-1.2-.534-.534a1.615,1.615,0,0,1-.4-1.336,1.022,1.022,0,0,0-.267-1.2l-.4-.4,1.737-1.737,3.073-3.073-1.069-1.069Z" transform="translate(2.639 2.773)" fill="#e2b698"/><path d="M28.7,19.247,22.158,12.7l-1.871,1.871-2.405,2.405L10.8,24.057a1.323,1.323,0,1,0,1.871,1.871A1.323,1.323,0,0,0,14.542,27.8a1.323,1.323,0,0,0,1.871,1.871,1.323,1.323,0,0,0,1.871,1.871l6.547-6.547.935-.935.935-.935a1.292,1.292,0,0,0,0-1.871l2-2Z" transform="translate(3.277 2.907)" fill="#f0c9ae"/><path d="M28.738,19.247,27.4,17.911,22.191,12.7l-1.871,1.871-1.336,1.336,1.871-1.871,4.276,4.276a1.292,1.292,0,0,1,0,1.871l-.4.4a1.282,1.282,0,0,0-.267,1.2,1.356,1.356,0,0,1-.4,1.336l-.534.534L17.381,29.8a1.456,1.456,0,0,1,.267-1.47,1.323,1.323,0,0,1-1.871-1.871,1.323,1.323,0,0,1-1.871-1.871,1.323,1.323,0,0,1-1.871-1.871L10.7,24.057a1.323,1.323,0,1,0,1.871,1.871A1.323,1.323,0,0,0,14.442,27.8a1.323,1.323,0,0,0,1.871,1.871,1.323,1.323,0,0,0,1.871,1.871l6.547-6.547.4-.4L25,24.725l.668-.668.935-.935a1.292,1.292,0,0,0,0-1.871l2.138-2Z" transform="translate(3.244 2.907)" fill="#e2b698"/><path d="M27.086,23.287a.8.8,0,0,1-.534-.134L18,14.6v-.4c0-.134.134-.4.134-.534L26.15,5.65a.661.661,0,0,1,.935.935L19.6,14.2l7.616,7.616L34.835,14.2a.661.661,0,0,1,.935.935l-8.017,8.017a1.2,1.2,0,0,1-.668.134Z" transform="translate(5.832 0.471)" fill="#004463"/><path d="M20.472,15.289a.8.8,0,0,1-.534-.134.646.646,0,0,1,0-.935l1.47-1.47a.661.661,0,0,1,.935.935l-1.47,1.47c-.134,0-.267.134-.4.134ZM11.921,27.047a2.009,2.009,0,0,1-1.47-.534,1.937,1.937,0,0,1,0-2.806l7.081-7.081a.661.661,0,0,1,.935.935l-7.081,6.948a.661.661,0,1,0,.935.935l1.871-1.871a.661.661,0,0,1,.935.935l-1.871,1.871A1.644,1.644,0,0,1,11.921,27.047Z" transform="translate(3.092 2.857)" fill="#004463"/><path d="M13.321,26.161a2.8,2.8,0,0,1-1.47-.534,1.937,1.937,0,0,1,0-2.806l1.871-1.871a.661.661,0,0,1,.935.935l-1.871,1.871a.646.646,0,0,0,0,.935c.134.134.267.134.534.134.134,0,.4-.134.534-.134l1.871-1.871a.661.661,0,0,1,.935.935l-1.871,1.871a2.8,2.8,0,0,1-1.47.534Z" transform="translate(3.563 5.613)" fill="#004463"/><path d="M14.721,27.561a2.009,2.009,0,0,1-1.47-.534,1.937,1.937,0,0,1,0-2.806l1.871-1.871a.661.661,0,0,1,.935.935l-1.871,1.871a.661.661,0,0,0,.935.935l1.871-1.871a.661.661,0,0,1,.935.935l-1.871,1.871a2.041,2.041,0,0,1-1.336.534Zm5.211,2.405a2.009,2.009,0,0,1-1.47-.534l-.935-.935a.661.661,0,0,1,.935-.935l.935.935a.646.646,0,0,0,.935,0c.134-.134.134-.267.134-.534s-.134-.4-.134-.534l-.935-.935a.661.661,0,1,1,.935-.935l.935.935a1.937,1.937,0,0,1,0,2.806,1.644,1.644,0,0,1-1.336.668Z" transform="translate(4.033 6.084)" fill="#004463"/><path d="M20.155,27.626a2.8,2.8,0,0,1-1.47-.534l-.935-.935a.661.661,0,0,1,.935-.935l.935.935c.134.134.267.134.534.134.134,0,.4-.134.534-.134s.134-.267.134-.534-.134-.4-.134-.534l-.935-.8a.661.661,0,0,1,.935-.935l.935.935a1.937,1.937,0,0,1,0,2.806A2.009,2.009,0,0,1,20.155,27.626Z" transform="translate(5.68 6.42)" fill="#004463"/><path d="M21.655,26.226a2.009,2.009,0,0,1-1.47-.534l-.935-.935a.661.661,0,1,1,.935-.935l.935.935a.661.661,0,0,0,.935-.935l-.935-.935a.661.661,0,0,1,.935-.935l.935.935a1.937,1.937,0,0,1,0,2.806,1.914,1.914,0,0,1-1.336.534Z" transform="translate(6.185 5.949)" fill="#004463"/><path d="M23.055,24.826a2.009,2.009,0,0,1-1.47-.534l-.935-.935a.661.661,0,0,1,.935-.935l.935.935a.646.646,0,0,0,.935,0c.134-.134.134-.267.134-.534s-.134-.4-.134-.534l-.935-.8a.661.661,0,0,1,.935-.935l.935.935a1.937,1.937,0,0,1,0,2.806,1.914,1.914,0,0,1-1.336.534Z" transform="translate(6.655 5.479)" fill="#004463"/><path d="M20.289,35.179a2.009,2.009,0,0,1-1.47-.534,1.937,1.937,0,0,1,0-2.806l1.871-1.871a.661.661,0,0,1,.935.935l-1.871,1.871a.661.661,0,0,0,.935.935l8.551-8.551a.646.646,0,0,0,0-.935.646.646,0,0,1,0-.935l1.47-1.47L25.1,16.207l-1.47,1.47a.661.661,0,0,1-.935-.935l1.871-1.871a.646.646,0,0,1,.935,0l6.681,6.547c.134.134.134.267.134.534s-.134.4-.134.534l-1.47,1.47a1.85,1.85,0,0,1-.4,2.271l-8.551,8.551A2.693,2.693,0,0,1,20.289,35.179ZM10.4,23.021a.8.8,0,0,1-.534-.134L1.85,14.87a.661.661,0,0,1,.935-.935L10.4,21.551l7.616-7.616L10.4,6.319a.813.813,0,0,1,0-1.069.646.646,0,0,1,.935,0l8.017,8.017c.134.134.134.267.134.534s0,.4-.134.534L10.8,22.887a1.346,1.346,0,0,1-.4.134Z" transform="translate(0.336 0.336)" fill="#004463"/><path d="M7,19.482a.8.8,0,0,1-.534-.134L.85,13.737a.646.646,0,0,1,0-.935.646.646,0,0,1,.935,0L7,18.012,14.612,10.4,9.4,5.186a.661.661,0,0,1,.935-.935l5.612,5.612c.134.134.134.267.134.534s0,.267-.134.4L7.4,19.349A.491.491,0,0,1,7,19.482Z" transform="translate(0 0)" fill="#004463"/><circle cx="0.668" cy="0.668" r="0.668" transform="matrix(0.707, -0.707, 0.707, 0.707, 9.763, 18.838)" fill="#004463"/><path d="M11.84,24.476a.8.8,0,0,1-.534-.134l-.8-.935a1.877,1.877,0,0,1-.4-2.271l-1.47-1.47C8.5,19.533,8.5,19.4,8.5,19.132s.134-.4.134-.534l6.681-6.547a.661.661,0,1,1,.935.935L10.1,19.132l1.47,1.47a.646.646,0,0,1,0,.935.646.646,0,0,0,0,.935l.935.935a.646.646,0,0,1,0,.935,1.2,1.2,0,0,1-.668.134Z" transform="translate(2.639 2.622)" fill="#004463"/><path d="M22.413,20.6a2.658,2.658,0,0,1-2.138-.935l-2.539-2.539a.661.661,0,0,1,.935-.935l2.539,2.539a1.623,1.623,0,0,0,2.138.134l-4.276-4.276-2.138.267c-.267,0-.4,0-.534-.134l-.935-.935-6.28,6.146A.661.661,0,1,1,8.25,19l6.681-6.547a.646.646,0,0,1,.935,0l1.2,1.2,2.138-.267c.267,0,.4,0,.534.134L24.818,18.6a.646.646,0,0,1,0,.935l-.267.267a3.787,3.787,0,0,1-2.138.8Z" transform="translate(2.487 2.756)" fill="#004463"/></g></svg>