<svg xmlns="http://www.w3.org/2000/svg" width="35.207" height="33" viewBox="0 0 35.207 33"><g transform="translate(0 -1021.36)"><path d="M26.831,1034.739c0-6.069-9.434-3.862-9.434-9.379m-9.407,9.379c0-6.069,9.434-3.862,9.434-9.379m-3.89,23.172c0-5.517-5.517-4.414-5.517-9.379M2.5,1048.532c0-5.517,5.517-4.414,5.517-9.379" transform="translate(0.207 0.362)" fill="none" stroke="#666" stroke-width="1"/><g transform="translate(30.293 1049.446)"><circle cx="2.207" cy="2.207" r="2.207" fill="none" stroke="#25b39e" stroke-linecap="round" stroke-linejoin="round" stroke-dashoffset="1.1" stroke-width="1"/><circle cx="0.552" cy="0.552" r="0.552" transform="translate(1.655 1.655)" fill="#666"/></g><circle cx="2.207" cy="2.207" r="2.207" transform="translate(19.259 1049.446)" fill="none" stroke="#25b39e" stroke-linecap="round" stroke-linejoin="round" stroke-dashoffset="1.1" stroke-width="1"/><circle cx="0.552" cy="0.552" r="0.552" transform="translate(20.914 1051.101)" fill="#666"/><g transform="translate(0.5 1049.446)"><circle cx="2.207" cy="2.207" r="2.207" fill="none" stroke="#25b39e" stroke-linecap="round" stroke-linejoin="round" stroke-dashoffset="1.1" stroke-width="1"/><circle cx="0.552" cy="0.552" r="0.552" transform="translate(1.655 1.655)" fill="#666"/></g><g transform="translate(11.534 1049.446)"><circle cx="2.207" cy="2.207" r="2.207" transform="translate(0)" fill="none" stroke="#25b39e" stroke-linecap="round" stroke-linejoin="round" stroke-dashoffset="1.1" stroke-width="1"/><circle cx="0.552" cy="0.552" r="0.552" transform="translate(1.655 1.655)" fill="#666"/></g><g transform="translate(6.017 1035.101)"><circle cx="2.207" cy="2.207" r="2.207" fill="none" stroke="#25b39e" stroke-linecap="round" stroke-linejoin="round" stroke-dashoffset="1.1" stroke-width="1"/><circle cx="0.552" cy="0.552" r="0.552" transform="translate(1.655 1.655)" fill="#666"/></g><path d="M30.534,1047.239c0-5.517-5.517-4.414-5.517-9.379m-5.517,9.379c0-5.517,5.517-4.414,5.517-9.379" transform="translate(1.966 1.655)" fill="none" stroke="#666" stroke-width="1"/><g transform="translate(24.776 1035.101)"><circle cx="2.207" cy="2.207" r="2.207" fill="none" stroke="#25b39e" stroke-linecap="round" stroke-linejoin="round" stroke-dashoffset="1.1" stroke-width="1"/><circle cx="0.552" cy="0.552" r="0.552" transform="translate(1.655 1.655)" fill="#666"/></g><g transform="translate(15.397 1021.86)"><circle cx="2.207" cy="2.207" r="2.207" fill="none" stroke="#25b39e" stroke-linecap="round" stroke-linejoin="round" stroke-dashoffset="1.1" stroke-width="1"/><circle cx="0.552" cy="0.552" r="0.552" transform="translate(1.655 1.655)" fill="#666"/></g></g></svg>