<svg xmlns="http://www.w3.org/2000/svg" width="22.4" height="32" viewBox="0 0 22.4 32"><g transform="translate(-11 -2)"><path d="M17.468,33h10.4a5.468,5.468,0,0,1,5.466,5.468v9.466H12V38.468A5.468,5.468,0,0,1,17.468,33Z" transform="translate(-0.467 -14.467)" fill="#2d3142"/><path d="M30.787,41,29.4,42.333a1.6,1.6,0,0,0,2.773,0Z" transform="translate(-8.587 -18.2)" fill="#ff9f1c"/><path d="M31.585,40.467l-3.318-3.2-3.318,3.2L24,33h8.533Z" transform="translate(-6.067 -14.467)" fill="#247ba0"/><path d="M30.133,37.267,32.267,33H28Z" transform="translate(-7.933 -14.467)" fill="#f71735"/><path d="M32.267,53.533H28l.891-7.481a1.259,1.259,0,0,1,2.484,0Z" transform="translate(-7.933 -20.067)" fill="#41ead4"/><path d="M28.067,9,20.6,11.133v.085c-.885,0-1.6.981-1.6,2.192s.715,2.192,1.6,2.192a5.962,5.962,0,0,0,.73,2.857,5.752,5.752,0,0,0,2.011,2.119l1.467.9a2.139,2.139,0,0,0,2.251,0l1.467-.9A5.84,5.84,0,0,0,31.267,15.6a1.418,1.418,0,0,0,1.131-.64,2.677,2.677,0,0,0,.469-1.552c0-1.211-.715-2.192-1.6-2.192v-.128Z" transform="translate(-3.733 -3.267)" fill="#ffbf69"/><path d="M32.733,8.333A3.863,3.863,0,0,1,30,7.2l-1-1a7.284,7.284,0,0,1-5.15,2.133H21v-1.6C21,4.082,23.149,3,25.8,3h2.133c2.652,0,4.8,1.083,4.8,3.733Z" transform="translate(-4.667 -0.467)" fill="#2d3142"/><path d="M26.133,17.6H27.2a1.6,1.6,0,1,0-3.2,0h1.067a.533.533,0,1,1,1.067,0Zm4.8-.533a.533.533,0,0,1,.533.533h1.067a1.6,1.6,0,1,0-3.2,0H30.4A.533.533,0,0,1,30.933,17.067Zm-2.667,5.867a2.67,2.67,0,0,0,2.667-2.667H29.867a1.6,1.6,0,1,1-3.2,0H25.6A2.67,2.67,0,0,0,28.267,22.933Z" transform="translate(-6.067 -6.533)"/><path d="M11.533,34H32.867a.533.533,0,0,0,.533-.533V24a6.008,6.008,0,0,0-6-6H24.691l.381-.234a6.4,6.4,0,0,0,2.979-4.977,2.087,2.087,0,0,0,1.046-.781,3.205,3.205,0,0,0,.57-1.864A2.884,2.884,0,0,0,28.6,7.786V6.267C28.6,3.595,26.606,2,23.267,2H21.133C17.793,2,15.8,3.6,15.8,6.267V7.785a2.884,2.884,0,0,0-1.067,2.358,2.649,2.649,0,0,0,1.616,2.648,6.522,6.522,0,0,0,.784,2.662,6.32,6.32,0,0,0,2.2,2.314l.378.234H17a6.008,6.008,0,0,0-6,6v9.466A.533.533,0,0,0,11.533,34Zm9.134-1.067.817-6.86a.726.726,0,0,1,1.428-.025l.821,6.885ZM22.2,23.541l.65.627a1.027,1.027,0,0,1-1.3,0Zm-1.27-4.474H23.47L22.2,21.607Zm5.12,7,.887-7H27.4A4.934,4.934,0,0,1,32.333,24v8.932H28.6V24.4a.533.533,0,0,0-1.067,0v8.533H24.807L23.968,25.9a1.785,1.785,0,0,0-.436-.9c.032-.026.062-.053.093-.082l1.523,1.469a.533.533,0,0,0,.9-.317Zm-.188-7-.738,5.813-2.271-2.192,1.813-3.621Zm-8.995-12.8c0-2.785,2.674-3.2,4.267-3.2h2.133c1.594,0,4.267.416,4.267,3.2V7.29a3.307,3.307,0,0,1-1.821-.933l-1-1a.533.533,0,0,0-.754,0,6.706,6.706,0,0,1-4.773,1.977H16.867Zm1.2,8.671a5.447,5.447,0,0,1-.666-2.6.533.533,0,0,0-.533-.533c-.578,0-1.067-.759-1.067-1.659s.489-1.659,1.067-1.659a.514.514,0,0,0,.272-.085h2.044a7.762,7.762,0,0,0,5.138-1.925l.64.64A4.362,4.362,0,0,0,27.139,8.3a.524.524,0,0,0,.4.187c.578,0,1.067.759,1.067,1.659a2.161,2.161,0,0,1-.366,1.237.923.923,0,0,1-.7.419.533.533,0,0,0-.533.533,5.333,5.333,0,0,1-2.487,4.522l-1.467.9a1.63,1.63,0,0,1-1.692,0l-1.466-.9a5.241,5.241,0,0,1-1.823-1.919Zm1.671,4.129,1.811,3.621L19.277,24.88l-.738-5.813ZM12.067,24A4.934,4.934,0,0,1,17,19.067h.462l.889,7a.533.533,0,0,0,.9.317l1.523-1.469c.031.028.063.057.1.084a1.833,1.833,0,0,0-.443.923l-.835,7.011H16.867V24.4a.533.533,0,1,0-1.067,0v8.533H12.067Z"/></g></svg>