<svg xmlns="http://www.w3.org/2000/svg" width="23.664" height="32" viewBox="0 0 23.664 32"><g transform="translate(-9 -0.796)"><path d="M23.642,40.649H9.495V17.5h13.89v7.459" transform="translate(-0.24 -8.111)" fill="#f4f8f8"/><path d="M14.043,38.5v1.543H12.5L12.495,38.5Z" transform="translate(-1.697 -18.308)" fill="#dbe7f6"/><path d="M14.043,38.5v1.543H12.5L12.495,38.5Z" transform="translate(-1.697 -18.308)" fill="#b4cbea"/><path d="M36.505,30.529V29.5h9.26V46.476h-9.26V38.76" transform="translate(-13.356 -13.938)" fill="#dbe7f6"/><path d="M36.505,38.76v7.716h9.26V29.5Z" transform="translate(-13.356 -13.938)" fill="#b4cbea"/><path d="M23.385,17.5,9.495,31.39v9.26H23.642l-.257-15.69Z" transform="translate(-0.24 -8.111)" fill="#dbe7f6"/><path d="M14.043,20.5v1.543H12.5L12.495,20.5Z" transform="translate(-1.697 -9.568)" fill="#dbe7f6"/><path d="M20.043,20.5v1.543H18.5L18.5,20.5Z" transform="translate(-4.61 -9.568)" fill="#dbe7f6"/><path d="M26.043,20.5v1.543H24.5L24.5,20.5Z" transform="translate(-7.524 -9.568)" fill="#dbe7f6"/><path d="M32.043,20.5v1.543H30.5L30.5,20.5Z" transform="translate(-10.437 -9.568)" fill="#dbe7f6"/><path d="M14.043,26.5v1.543H12.5L12.495,26.5Z" transform="translate(-1.697 -12.481)" fill="#dbe7f6"/><path d="M20.043,26.5v1.543H18.5L18.5,26.5Z" transform="translate(-4.61 -12.481)" fill="#dbe7f6"/><path d="M26.043,26.5v1.543H24.5L24.5,26.5Z" transform="translate(-7.524 -12.481)" fill="#dbe7f6"/><path d="M24.5,28.043h1.543V26.5h-.005L24.5,28.038Z" transform="translate(-7.529 -12.481)" fill="#b4cbea"/><path d="M32.043,26.5v1.543H30.5L30.5,26.5Z" transform="translate(-10.437 -12.481)" fill="#b4cbea"/><path d="M14.043,32.5v1.543H12.5L12.495,32.5Z" transform="translate(-1.697 -15.395)" fill="#dbe7f6"/><path d="M12.505,40.043h1.543V38.5h-.005l-1.538,1.538Z" transform="translate(-1.702 -18.308)" fill="#b4cbea"/><path d="M20.043,32.5v1.543H18.5L18.5,32.5Z" transform="translate(-4.61 -15.395)" fill="#dbe7f6"/><path d="M18.5,34.043h1.543V32.5h-.005L18.5,34.038Z" transform="translate(-4.615 -15.395)" fill="#b4cbea"/><path d="M26.043,32.5v1.543H24.5L24.5,32.5Z" transform="translate(-7.524 -15.395)" fill="#b4cbea"/><path d="M32.043,32.5v1.543H30.5L30.5,32.5Z" transform="translate(-10.437 -15.395)" fill="#b4cbea"/><path d="M20.043,38.5v1.543H18.5L18.5,38.5Z" transform="translate(-4.61 -18.308)" fill="#b4cbea"/><path d="M26.043,38.5v1.543H24.5L24.5,38.5Z" transform="translate(-7.524 -18.308)" fill="#b4cbea"/><path d="M32.043,38.5v1.543H30.5L30.5,38.5Z" transform="translate(-10.437 -18.308)" fill="#b4cbea"/><path d="M14.043,44.5v1.543H12.5L12.495,44.5Z" transform="translate(-1.697 -21.221)" fill="#b4cbea"/><path d="M20.043,44.5v1.543H18.5L18.5,44.5Z" transform="translate(-4.61 -21.221)" fill="#b4cbea"/><path d="M26.043,44.5v1.543H24.5L24.5,44.5Z" transform="translate(-7.524 -21.221)" fill="#b4cbea"/><path d="M32.043,44.5v1.543H30.5L30.5,44.5Z" transform="translate(-10.437 -21.221)" fill="#b4cbea"/><path d="M14.043,50.5v1.543H12.5L12.495,50.5Z" transform="translate(-1.697 -24.135)" fill="#b4cbea"/><path d="M32.043,50.5v1.543H30.5L30.5,50.5Z" transform="translate(-10.437 -24.135)" fill="#b4cbea"/><path d="M14.043,56.5v1.543H12.5L12.495,56.5Z" transform="translate(-1.697 -27.048)" fill="#b4cbea"/><path d="M32.043,56.5v1.543H30.5L30.5,56.5Z" transform="translate(-10.437 -27.048)" fill="#b4cbea"/><path d="M30.5,22.043h1.543V20.5h-.005L30.5,22.038Z" transform="translate(-10.442 -9.568)" fill="#b4cbea"/><rect width="6.173" height="1.543" transform="translate(24.688 14.019)" fill="#dbe7f6"/><path d="M44.347,28.043h3.677V26.5H45.89Z" transform="translate(-17.163 -12.481)" fill="#b4cbea"/><rect width="10.803" height="1.543" transform="translate(10.798 7.846)" fill="#f4f8f8"/><path d="M22.982,16.043H28.39V14.5H24.525Z" transform="translate(-6.789 -6.654)" fill="#dbe7f6"/><path d="M21.072,6.656a.255.255,0,0,1-.129-.034L18.629,5.285a.256.256,0,0,1-.129-.222V2.39a.258.258,0,0,1,.129-.223L20.944.83a.256.256,0,0,1,.257,0l2.315,1.337a.258.258,0,0,1,.129.223V5.063a.258.258,0,0,1-.129.223L21.2,6.622A.26.26,0,0,1,21.072,6.656ZM19.014,4.914,21.072,6.1,23.13,4.914V2.539L21.072,1.35,19.014,2.539Z" transform="translate(-4.613)" fill="#4574ba"/><path d="M21.078,7.928a.257.257,0,0,1-.257-.257V6.96a.257.257,0,0,1,.514,0v.711A.257.257,0,0,1,21.078,7.928ZM19.538,4.383a.254.254,0,0,1-.129-.034l-.768-.443A.257.257,0,1,1,18.9,3.46l.768.443a.257.257,0,0,1-.129.48Zm3.067,0a.257.257,0,0,1-.129-.48l.768-.443a.257.257,0,0,1,.257.445l-.768.443A.254.254,0,0,1,22.6,4.383Zm-1.526-.149a.257.257,0,0,1-.257-.257V3.719a.257.257,0,0,1,.514,0v.257A.257.257,0,0,1,21.078,4.234Zm0,2.215a.257.257,0,0,1-.257-.257V5.828a.257.257,0,1,1,.514,0v.363A.257.257,0,0,1,21.077,6.449Z" transform="translate(-4.619 -1.277)" fill="#4574ba"/><path d="M22.911,5.676h-.334a.643.643,0,1,1,0-1.287h.709a.257.257,0,0,1,0,.514h-.709a.129.129,0,1,0,0,.258h.334a.257.257,0,0,1,0,.514Z" transform="translate(-6.278 -1.745)" fill="#4574ba"/><path d="M16.622,7.174h-.714a.257.257,0,0,1,0-.514h.714a.128.128,0,1,0,0-.255H16.4a.257.257,0,0,1,0-.514h.22a.642.642,0,1,1,0,1.284Zm6.525,28.1H9.257A.257.257,0,0,1,9,35.012V11.863a.257.257,0,0,1,.257-.257h13.89a.257.257,0,0,1,.257.257V35.012A.257.257,0,0,1,23.147,35.269ZM9.514,34.755H22.89V12.12H9.514Z" transform="translate(0 -2.474)" fill="#4574ba"/><path d="M33.863,39.207H24.6a.257.257,0,0,1-.257-.257V21.974a.257.257,0,0,1,.257-.257h9.26a.257.257,0,0,1,.257.257V38.95A.257.257,0,0,1,33.863,39.207Zm-9-.514h8.745V22.231H24.861Zm-1.8-22.635h-10.8A.257.257,0,0,1,12,15.8V14.257A.257.257,0,0,1,12.257,14h10.8a.257.257,0,0,1,.257.257V15.8A.257.257,0,0,1,23.06,16.058Zm-10.546-.514H22.8V14.514H12.514Z" transform="translate(-1.457 -6.412)" fill="#4574ba"/><path d="M32.33,20.031H26.157a.257.257,0,0,1-.257-.257V18.23a.257.257,0,0,1,.257-.257H32.33a.257.257,0,0,1,.257.257v1.543A.257.257,0,0,1,32.33,20.031Zm-5.916-.514h5.659V18.488H26.414Zm-6.934-7.2H16.394a.257.257,0,0,1-.257-.257V9.726a.257.257,0,0,1,.514,0V11.8h2.572V9.726a.257.257,0,0,1,.514,0v2.331A.257.257,0,0,1,19.48,12.314Zm-5.659,4.63H12.278a.257.257,0,0,1,0-.514h1.286V15.144a.257.257,0,0,1,.514,0v1.543A.257.257,0,0,1,13.822,16.944Zm3.087,0H15.365a.257.257,0,0,1,0-.514h1.286V15.144a.257.257,0,0,1,.514,0v1.543A.257.257,0,0,1,16.908,16.944Zm3.087,0H18.451a.257.257,0,0,1,0-.514h1.286V15.144a.257.257,0,0,1,.514,0v1.543A.257.257,0,0,1,19.995,16.944ZM27.2,22.6H26.168a.257.257,0,1,1,0-.514h.772v-.772a.257.257,0,1,1,.514,0v1.029A.257.257,0,0,1,27.2,22.6Zm2.572,0H28.74a.257.257,0,0,1,0-.514h.772v-.772a.257.257,0,0,1,.514,0v1.029A.257.257,0,0,1,29.769,22.6Zm2.572,0H31.312a.257.257,0,0,1,0-.514h.772v-.772a.257.257,0,1,1,.514,0v1.029A.257.257,0,0,1,32.341,22.6ZM27.2,25.175H26.168a.257.257,0,1,1,0-.514h.772v-.772a.257.257,0,1,1,.514,0v1.029A.257.257,0,0,1,27.2,25.175Zm2.572,0H28.74a.257.257,0,0,1,0-.514h.772v-.772a.257.257,0,1,1,.514,0v1.029A.257.257,0,0,1,29.769,25.175Zm2.572,0H31.312a.257.257,0,0,1,0-.514h.772v-.772a.257.257,0,1,1,.514,0v1.029A.257.257,0,0,1,32.341,25.175ZM27.2,27.747H26.168a.257.257,0,1,1,0-.514h.772v-.772a.257.257,0,1,1,.514,0V27.49A.257.257,0,0,1,27.2,27.747Zm2.572,0H28.74a.257.257,0,0,1,0-.514h.772v-.772a.257.257,0,0,1,.514,0V27.49A.257.257,0,0,1,29.769,27.747Zm2.572,0H31.312a.257.257,0,0,1,0-.514h.772v-.772a.257.257,0,1,1,.514,0V27.49A.257.257,0,0,1,32.341,27.747ZM27.2,30.319H26.168a.257.257,0,1,1,0-.514h.772v-.772a.257.257,0,0,1,.514,0v1.029A.257.257,0,0,1,27.2,30.319Zm2.572,0H28.74a.257.257,0,0,1,0-.514h.772v-.772a.257.257,0,0,1,.514,0v1.029A.257.257,0,0,1,29.769,30.319Zm2.572,0H31.312a.257.257,0,0,1,0-.514h.772v-.772a.257.257,0,1,1,.514,0v1.029A.257.257,0,0,1,32.341,30.319ZM27.2,32.892H26.168a.257.257,0,1,1,0-.514h.772v-.772a.257.257,0,1,1,.514,0v1.029A.257.257,0,0,1,27.2,32.892Zm2.572,0H28.74a.257.257,0,1,1,0-.514h.772v-.772a.257.257,0,0,1,.514,0v1.029A.257.257,0,0,1,29.769,32.892Zm2.572,0H31.312a.257.257,0,1,1,0-.514h.772v-.772a.257.257,0,1,1,.514,0v1.029A.257.257,0,0,1,32.341,32.892ZM27.2,35.464H26.168a.257.257,0,1,1,0-.514h.772v-.772a.257.257,0,1,1,.514,0v1.029A.257.257,0,0,1,27.2,35.464Zm2.572,0H28.74a.257.257,0,1,1,0-.514h.772v-.772a.257.257,0,1,1,.514,0v1.029A.257.257,0,0,1,29.769,35.464Zm2.572,0H31.312a.257.257,0,1,1,0-.514h.772v-.772a.257.257,0,1,1,.514,0v1.029A.257.257,0,0,1,32.341,35.464Zm-9.26-18.52H21.538a.257.257,0,0,1,0-.514h1.286V15.144a.257.257,0,0,1,.514,0v1.543A.257.257,0,0,1,23.081,16.944Zm-9.26,3.087H12.278a.257.257,0,1,1,0-.514h1.286V18.23a.257.257,0,0,1,.514,0v1.543A.257.257,0,0,1,13.822,20.031Zm3.087,0H15.365a.257.257,0,0,1,0-.514h1.286V18.23a.257.257,0,0,1,.514,0v1.543A.257.257,0,0,1,16.908,20.031Zm3.087,0H18.451a.257.257,0,0,1,0-.514h1.286V18.23a.257.257,0,0,1,.514,0v1.543A.257.257,0,0,1,19.995,20.031Zm3.087,0H21.538a.257.257,0,0,1,0-.514h1.286V18.23a.257.257,0,0,1,.514,0v1.543A.257.257,0,0,1,23.081,20.031Zm-9.26,3.087H12.278a.257.257,0,0,1,0-.514h1.286V21.317a.257.257,0,0,1,.514,0V22.86A.257.257,0,0,1,13.822,23.117Zm3.087,0H15.365a.257.257,0,0,1,0-.514h1.286V21.317a.257.257,0,0,1,.514,0V22.86A.257.257,0,0,1,16.908,23.117Zm3.087,0H18.451a.257.257,0,0,1,0-.514h1.286V21.317a.257.257,0,0,1,.514,0V22.86A.257.257,0,0,1,19.995,23.117Zm3.087,0H21.538a.257.257,0,0,1,0-.514h1.286V21.317a.257.257,0,0,1,.514,0V22.86A.257.257,0,0,1,23.081,23.117ZM13.822,26.2H12.278a.257.257,0,0,1,0-.514h1.286V24.4a.257.257,0,0,1,.514,0v1.543A.257.257,0,0,1,13.822,26.2Zm3.087,0H15.365a.257.257,0,0,1,0-.514h1.286V24.4a.257.257,0,0,1,.514,0v1.543A.257.257,0,0,1,16.908,26.2Zm3.087,0H18.451a.257.257,0,0,1,0-.514h1.286V24.4a.257.257,0,0,1,.514,0v1.543A.257.257,0,0,1,19.995,26.2Zm3.087,0H21.538a.257.257,0,0,1,0-.514h1.286V24.4a.257.257,0,0,1,.514,0v1.543A.257.257,0,0,1,23.081,26.2Zm-9.26,3.087H12.278a.257.257,0,0,1,0-.514h1.286V27.49a.257.257,0,0,1,.514,0v1.543A.257.257,0,0,1,13.822,29.291Zm3.087,0H15.365a.257.257,0,0,1,0-.514h1.286V27.49a.257.257,0,0,1,.514,0v1.543A.257.257,0,0,1,16.908,29.291Zm3.087,0H18.451a.257.257,0,0,1,0-.514h1.286V27.49a.257.257,0,0,1,.514,0v1.543A.257.257,0,0,1,19.995,29.291Z" transform="translate(-1.467 -4.212)" fill="#4574ba"/><g transform="translate(19.814 23.021)"><path d="M31.822,46.058H30.278a.257.257,0,0,1,0-.514h1.286V44.257a.257.257,0,1,1,.514,0V45.8A.257.257,0,0,1,31.822,46.058Z" transform="translate(-30.021 -44)" fill="#4574ba"/></g><g transform="translate(10.554 26.108)"><path d="M13.822,52.058H12.278a.257.257,0,1,1,0-.514h1.286V50.257a.257.257,0,1,1,.514,0V51.8A.257.257,0,0,1,13.822,52.058Z" transform="translate(-12.021 -50)" fill="#4574ba"/></g><g transform="translate(19.814 26.213)"><path d="M31.822,52.262H30.278a.257.257,0,1,1,0-.514h1.286V50.461a.257.257,0,1,1,.514,0V52A.257.257,0,0,1,31.822,52.262Z" transform="translate(-30.021 -50.204)" fill="#4574ba"/></g><g transform="translate(10.554 29.194)"><path d="M13.822,58.058H12.278a.257.257,0,1,1,0-.514h1.286V56.257a.257.257,0,1,1,.514,0V57.8A.257.257,0,0,1,13.822,58.058Z" transform="translate(-12.021 -56)" fill="#4574ba"/></g><g transform="translate(19.814 29.299)"><path d="M31.822,58.262H30.278a.257.257,0,1,1,0-.514h1.286V56.461a.257.257,0,1,1,.514,0V58A.257.257,0,0,1,31.822,58.262Z" transform="translate(-30.021 -56.204)" fill="#4574ba"/></g><g transform="translate(13.63 26.108)"><path d="M22.887,56.688h-4.63A.257.257,0,0,1,18,56.43V50.257A.257.257,0,0,1,18.257,50h4.63a.257.257,0,0,1,.257.257V56.43A.257.257,0,0,1,22.887,56.688Zm-4.373-.514H22.63V50.514H18.514Z" transform="translate(-18 -50)" fill="#4574ba"/></g><g transform="translate(15.956 26.108)"><path d="M22.778,56.688a.257.257,0,0,1-.257-.257V50.257a.257.257,0,1,1,.514,0V56.43A.257.257,0,0,1,22.778,56.688Z" transform="translate(-22.521 -50)" fill="#4574ba"/></g></g></svg>