<svg xmlns="http://www.w3.org/2000/svg" width="31.998" height="32" viewBox="0 0 31.998 32"><path d="M10.642,6.447a.469.469,0,0,0,.221-.055l.008,0a.5.5,0,0,0,.086-.062,5.172,5.172,0,0,0,10.079-.044.47.47,0,1,0,.631-.659l-.019-.011a.467.467,0,0,0-.511.046c.017-.171.026-.343.026-.516a5.172,5.172,0,0,0-10.343,0c0,.136.007.27.017.4a.469.469,0,0,0-.413.016l.218.415-.221-.414a.469.469,0,0,0,.221.882ZM13,2.149a4.234,4.234,0,1,1,0,5.987,4.234,4.234,0,0,1,0-5.987ZM7.691,8.721a.469.469,0,1,0-.338-.791l-.008.009a.467.467,0,0,0,.346.782ZM9.072,7.463a.462.462,0,0,0,.287-.1.469.469,0,1,0-.562-.75l-.011.008a.469.469,0,0,0,.288.839ZM22.7,7.425l.008.006a.469.469,0,1,0,.576-.74l-.29.367.291-.367a.469.469,0,1,0-.582.735Zm2.812,2.859a.468.468,0,0,0,.394-.721L25.9,9.551a.469.469,0,1,0-.387.732ZM24.366,8.8a.469.469,0,0,0,.348-.782l-.007-.008a.469.469,0,1,0-.341.791ZM23.328,25.147a.47.47,0,0,0-.847-.407l-.074-.024-3.176-.968a1.066,1.066,0,0,1-.724-.762,1.121,1.121,0,0,1-.031-.265c-.006-.328-.017-.737-.032-1.24a5.083,5.083,0,0,0,1-2.807v-.447a.464.464,0,0,0,.083-.182l.464-2.142a3.3,3.3,0,0,0-.467-2.517,2.875,2.875,0,0,0-1.878-1.257c-.367-.066-.724-.138-1.092-.219l-.239-.054a6.44,6.44,0,0,0-1.441-.209h-.062a2.794,2.794,0,0,0-2.169,1.062A3.3,3.3,0,0,0,12,15.466L12.546,18v.676a5.056,5.056,0,0,0,.959,2.75c.033.047.067.092.1.136l-.137,1.125a.438.438,0,0,0,0,.057,1.069,1.069,0,0,1-.25.687,1.051,1.051,0,0,1-.5.33l-1.632.5-.013,0-1.492.456c-.046.014-.091.029-.136.044a.464.464,0,0,0-.162-.25l-.008-.007a.469.469,0,0,0-.655.662A3.515,3.515,0,0,0,7.066,28.1v3.4A.469.469,0,1,0,8,31.5V28.1a2.586,2.586,0,0,1,1.842-2.487l1.162-.354,1.678,1.918a1.014,1.014,0,0,0,1.4.125l1.432-1.152V31.5a.469.469,0,0,0,.937,0V26.189L17.837,27.3a1.014,1.014,0,0,0,1.4-.122l1.692-1.93,1.2.366A2.587,2.587,0,0,1,23.977,28.1v3.4a.469.469,0,0,0,.937,0V28.1a3.515,3.515,0,0,0-1.587-2.954Zm-14.45-.136h0l.109-.136Zm4.035-9.749a2.353,2.353,0,0,1,.453-1.966,1.842,1.842,0,0,1,1.453-.714h.031a5.5,5.5,0,0,1,1.254.187l.243.054c.379.084.75.158,1.125.226a1.937,1.937,0,0,1,1.268.858,2.352,2.352,0,0,1,.331,1.8l-.083.383c-.014-.015-.029-.03-.044-.044a1.676,1.676,0,0,0-1.089-.4,1.377,1.377,0,0,1-.726-.206,1.669,1.669,0,0,0-1.194-.335,2.349,2.349,0,0,0-1.062.472,1.089,1.089,0,0,1-.671.133,1.651,1.651,0,0,0-1.129.307Zm.571,3.409v-1.14a1,1,0,0,1,.181-.786c.112-.094.271-.1.544-.1a1.911,1.911,0,0,0,1.211-.306,1.3,1.3,0,0,1,.707-.312.831.831,0,0,1,.469.178,2.234,2.234,0,0,0,1.175.37c.279.026.418.043.536.152a1,1,0,0,1,.2.807v1.137C18.5,19.955,17.356,22,15.995,22a2.091,2.091,0,0,1-1.527-.868l0,0a4.211,4.211,0,0,1-.982-2.455Zm.019,7.894a.079.079,0,0,1-.109-.009l-1.4-1.6.993-.3a2,2,0,0,0,.609-.307l1.527.917Zm2.462-1.889L14.2,23.614a2.01,2.01,0,0,0,.2-.847l.046-.375a2.484,2.484,0,0,0,3.083.01c0,.117,0,.227.007.329a2.026,2.026,0,0,0,.059.474,2.063,2.063,0,0,0,.146.4Zm2.572,1.881a.079.079,0,0,1-.109.009l-1.619-1.3,1.543-.926a2.009,2.009,0,0,0,.606.306l.993.3ZM6.271,10.116a.469.469,0,0,0,.651-.125l.011-.016a.469.469,0,1,0-.662.141Zm9.2-5.011H14.319a.469.469,0,0,0-.375.8l2.6,2.525a.469.469,0,1,0,.653-.672L15.429,6.043h.044a1.921,1.921,0,0,0,1.864-1.477h.384a.469.469,0,0,0,0-.937h-.4a1.931,1.931,0,0,0-.207-.491h.6a.469.469,0,0,0,0-.937H14.293a.469.469,0,0,0,0,.937h1.182a.977.977,0,0,1,.846.491H14.293a.469.469,0,0,0,0,.937h2.054a.978.978,0,0,1-.871.539ZM6.221,21.721a.469.469,0,0,0-.151.646l.011.016a.469.469,0,1,0,.141-.662Zm19.484.118a.469.469,0,0,0-.651.125l-.011.016a.469.469,0,0,0,.143.647.464.464,0,0,0,.25.074.473.473,0,0,0,.267-.862Zm-.2.429-.062-.041.062.044ZM29.019,13.5a.469.469,0,0,0-.469-.469H25.121a.469.469,0,0,0,0,.937H26.3a.977.977,0,0,1,.846.492H25.121a.469.469,0,0,0,0,.937h2.054a.977.977,0,0,1-.871.536H25.147a.469.469,0,0,0-.375.8l2.6,2.525a.469.469,0,1,0,.654-.672L26.256,16.87H26.3a1.92,1.92,0,0,0,1.863-1.476h.387a.469.469,0,1,0,0-.937h-.4a1.912,1.912,0,0,0-.207-.492h.6a.469.469,0,0,0,.466-.469ZM24.28,24.166a.467.467,0,0,0,.341-.147l.007-.008a.471.471,0,1,0-.349.154ZM7.3,23.249a.469.469,0,0,0-.035.662l.007.009a.464.464,0,0,0,.342.15.47.47,0,1,0-.312-.821ZM30.475,12.312a5.171,5.171,0,1,0,1.515,3.659,5.171,5.171,0,0,0-1.515-3.659Zm-.662,6.652a4.234,4.234,0,1,1,1.24-2.994,4.234,4.234,0,0,1-1.24,2.994ZM7.363,13.5a.469.469,0,0,0-.469-.469H3.465a.469.469,0,0,0,0,.937H4.648a.977.977,0,0,1,.844.492H3.465a.469.469,0,1,0,0,.937H5.519a.977.977,0,0,1-.871.539H3.492a.469.469,0,0,0-.375.8l2.6,2.525a.469.469,0,1,0,.653-.672L4.6,16.87h.045a1.919,1.919,0,0,0,1.863-1.476h.384a.469.469,0,1,0,0-.937H6.5a1.912,1.912,0,0,0-.207-.492h.6a.469.469,0,0,0,.47-.469Zm2.972,2.475A5.172,5.172,0,1,0,8.82,19.627a5.171,5.171,0,0,0,1.515-3.656ZM5.164,20.205a4.235,4.235,0,1,1,2.994-1.241A4.235,4.235,0,0,1,5.164,20.205Z" transform="translate(0.008 0.03)"/></svg>