<svg xmlns="http://www.w3.org/2000/svg" width="32" height="32" viewBox="0 0 32 32"><path d="M34.158,33.316H31.632V10.579a.825.825,0,0,0-.573-.842L24.895,7.16V33.316H23.211V3.842A.842.842,0,0,0,22.368,3H7.211a.842.842,0,0,0-.842.842V33.316H3.842a.842.842,0,0,0,0,1.684H34.158a.842.842,0,1,0,0-1.684ZM27.421,13.105h1.684a.842.842,0,0,1,.842.842.859.859,0,0,1-.842.842H27.421a.859.859,0,0,1-.842-.842A.842.842,0,0,1,27.421,13.105Zm0,5.053h1.684a.842.842,0,1,1,0,1.684H27.421a.842.842,0,1,1,0-1.684Zm0,5.053h1.684a.859.859,0,0,1,.842.842.842.842,0,0,1-.842.842H27.421a.842.842,0,0,1-.842-.842.859.859,0,0,1,.842-.842Zm0,5.053h1.684a.842.842,0,1,1,0,1.684H27.421a.842.842,0,1,1,0-1.684ZM16.474,8.053h1.684a.842.842,0,1,1,0,1.684H16.474a.842.842,0,1,1,0-1.684Zm0,5.053h1.684a.842.842,0,1,1,0,1.684H16.474a.842.842,0,1,1,0-1.684Zm0,5.053h1.684a.842.842,0,1,1,0,1.684H16.474a.842.842,0,1,1,0-1.684Zm0,5.053h1.684a.842.842,0,1,1,0,1.684H16.474a.842.842,0,1,1,0-1.684ZM11.32,8.053h1.785a.842.842,0,0,1,0,1.684H11.421a.842.842,0,0,1,0-1.684Zm0,5.053h1.785a.842.842,0,0,1,0,1.684H11.421a.842.842,0,0,1,0-1.684Zm0,5.053h1.785a.842.842,0,0,1,0,1.684H11.421a.842.842,0,0,1,0-1.684Zm0,5.053h1.785a.842.842,0,1,1,0,1.684H11.421a.842.842,0,1,1,0-1.684Zm4.312,10.105V29.947H13.947v3.368H12.263V29.055a.842.842,0,0,1,.842-.792h3.368a.842.842,0,0,1,.842.842v4.211Z" transform="translate(-3 -3)" fill="#2b3344"/></svg>