<svg xmlns="http://www.w3.org/2000/svg" width="31.979" height="32" viewBox="0 0 31.979 32"><g transform="translate(-2 -2.01)"><rect width="27.733" height="28.8" rx="2" transform="translate(2.533 4.671)" fill="#fedb8e"/><path d="M28.515,7V33.139a1.066,1.066,0,0,1-1.067,1.067H3V8.067A1.07,1.07,0,0,1,4.067,7Z" transform="translate(-0.467 -2.329)" fill="#fff" opacity="0.2"/><rect width="11.733" height="3.733" rx="1.867" transform="translate(10.533 2.538)" fill="#4cd0f7"/><rect width="10.667" height="2.667" rx="1.333" transform="translate(5.733 22.805)" fill="#4cd0f7"/><rect width="10.667" height="2.667" rx="1.333" transform="translate(5.733 17.471)" fill="#4cd0f7"/><rect width="10.667" height="2.667" rx="1.333" transform="translate(5.733 12.138)" fill="#4cd0f7"/><path d="M48.874,26.933a6.929,6.929,0,1,1-3.941-6.256A6.929,6.929,0,0,1,48.874,26.933Z" transform="translate(-15.407 -8.395)" fill="#4cd0f7"/><path d="M48.122,30.322l-3.2,3.2a1.056,1.056,0,0,1-1.5,0l-.507-.507h-.005l-1.088-1.093a1.065,1.065,0,0,1,.955-1.8,1.007,1.007,0,0,1,.459.213c.032.027.064.053.091.08l.848.843,2.448-2.443a1.028,1.028,0,0,1,.725-.309,1.006,1.006,0,0,1,.779.309,1.053,1.053,0,0,1,0,1.5Z" transform="translate(-18.437 -12.366)" fill="#fedb8e"/><path d="M31.9,17.619l-3.2,3.2a1.06,1.06,0,0,1-.96.293l-1.088-1.093a1.07,1.07,0,0,1,.955-1.8l.336.336.123-.123c.027.008.893.881.939.923l2.448-2.443a1.028,1.028,0,0,1,.725-.309,1.052,1.052,0,0,1-.277,1.013ZM23.933,3V4.6a1.07,1.07,0,0,1-1.067,1.067H13.8v-1.6A1.07,1.07,0,0,1,14.867,3ZM18.067,23.267V23.8A1.07,1.07,0,0,1,17,24.867H9v-.533a1.07,1.07,0,0,1,1.067-1.067Zm0-5.333v.533A1.07,1.07,0,0,1,17,19.533H9V19a1.07,1.07,0,0,1,1.067-1.067Zm0-5.333v.533A1.07,1.07,0,0,1,17,14.2H9v-.533A1.07,1.07,0,0,1,10.067,12.6Z" transform="translate(-3.267 -0.462)" fill="#fff" opacity="0.2"/><path d="M47.27,25.866a6.936,6.936,0,0,1-9.925,6.256,6.932,6.932,0,0,1,7.584-11.445,6.9,6.9,0,0,1,2.341,5.189Z" transform="translate(-15.404 -8.395)" fill="#fff" opacity="0.2"/><path d="M18.133,30.676H9.6a1.6,1.6,0,0,0-1.6,1.6v.533a1.6,1.6,0,0,0,1.6,1.6h8.533a1.6,1.6,0,0,0,1.6-1.6v-.533a1.6,1.6,0,0,0-1.6-1.6Zm.533,2.133a.534.534,0,0,1-.533.533H9.6a.534.534,0,0,1-.533-.533v-.533a.534.534,0,0,1,.533-.533h8.533a.534.534,0,0,1,.533.533Zm-.533-7.467H9.6a1.6,1.6,0,0,0-1.6,1.6v.533a1.6,1.6,0,0,0,1.6,1.6h8.533a1.6,1.6,0,0,0,1.6-1.6v-.533a1.6,1.6,0,0,0-1.6-1.6Zm.533,2.133a.534.534,0,0,1-.533.533H9.6a.534.534,0,0,1-.533-.533v-.533A.534.534,0,0,1,9.6,26.41h8.533a.534.534,0,0,1,.533.533Zm-.533-7.467H9.6A1.6,1.6,0,0,0,8,21.61v.533a1.6,1.6,0,0,0,1.6,1.6h8.533a1.6,1.6,0,0,0,1.6-1.6V21.61a1.6,1.6,0,0,0-1.6-1.6Zm.533,2.133a.534.534,0,0,1-.533.533H9.6a.534.534,0,0,1-.533-.533V21.61a.534.534,0,0,1,.533-.533h8.533a.534.534,0,0,1,.533.533Z" transform="translate(-2.8 -8.4)" fill="#383f40"/><path d="M30.8,12.424V5.743a1.6,1.6,0,0,0-1.6-1.6H22.8V3.61a1.6,1.6,0,0,0-1.6-1.6H11.6A1.6,1.6,0,0,0,10,3.61v.533H3.6A1.6,1.6,0,0,0,2,5.743V32.41a1.6,1.6,0,0,0,1.6,1.6H29.2a1.6,1.6,0,0,0,1.6-1.6V24.662a7.479,7.479,0,0,0,0-12.238ZM11.067,3.61a.534.534,0,0,1,.533-.533h9.6a.534.534,0,0,1,.533.533v1.6a.534.534,0,0,1-.533.533H11.6a.534.534,0,0,1-.533-.533Zm18.667,28.8a.534.534,0,0,1-.533.533H3.6a.534.534,0,0,1-.533-.533V5.743A.534.534,0,0,1,3.6,5.21H10a1.6,1.6,0,0,0,1.6,1.6h9.6a1.6,1.6,0,0,0,1.6-1.6h6.4a.534.534,0,0,1,.533.533v6.064a7.46,7.46,0,1,0,0,13.472Zm-3.2-7.467a6.4,6.4,0,1,1,6.4-6.4,6.407,6.407,0,0,1-6.4,6.4Z" fill="#383f40"/><path d="M45.769,27.979,43.7,30.047l-.469-.469a1.6,1.6,0,1,0-2.263,2.263l1.6,1.6a1.607,1.607,0,0,0,2.262,0l3.2-3.2a1.6,1.6,0,1,0-2.263-2.263Zm1.508,1.508-3.2,3.2a.547.547,0,0,1-.754,0l-1.6-1.6a.534.534,0,0,1,0-.754c.883-.785,1.472,1.632,2.354.846l2.446-2.446a.533.533,0,1,1,.754.754Z" transform="translate(-17.967 -11.9)" fill="#383f40"/></g></svg>