<svg xmlns="http://www.w3.org/2000/svg" width="28.881" height="32" viewBox="0 0 28.881 32"><g transform="translate(-0.346)"><path d="M7.174,8.817A6.89,6.89,0,0,1,1.912,6.75a.375.375,0,0,1,.1-.569,4.964,4.964,0,0,0,2.142-3,.375.375,0,0,1,.568-.233,4.5,4.5,0,0,0,2.429.711,4.5,4.5,0,0,0,2.463-.733.375.375,0,0,1,.571.233,4.923,4.923,0,0,0,2.147,3.019.375.375,0,0,1,.1.569A6.89,6.89,0,0,1,7.174,8.817Z" transform="translate(5.168 10.037)" fill="#f58076" fill-rule="evenodd"/><path d="M2.353,6.627H2.276a.375.375,0,0,1-.366-.305,5.418,5.418,0,0,1-.094-1,5.094,5.094,0,0,1,1.72-4A5.69,5.69,0,0,1,7.266,0,5.424,5.424,0,0,1,11.5,1.851a5.251,5.251,0,0,1,.954,4.47.375.375,0,0,1-.366.305h-.011c-1.44,0-2.553-1.5-3.006-2.218A12.231,12.231,0,0,1,2.353,6.627Z" transform="translate(5.145)" fill="#ab5e4a" fill-rule="evenodd"/><path d="M7.115,11.739a5.295,5.295,0,0,1-5.28-5.28V3.5a.375.375,0,0,1,.557-.328A11.724,11.724,0,0,0,8.882.857a.375.375,0,0,1,.568.119c.317.609,1.4,2.191,2.56,2.191h.007a.375.375,0,0,1,.377.375V6.459a5.295,5.295,0,0,1-5.281,5.28Z" transform="translate(5.206 2.709)" fill="#ffb095" fill-rule="evenodd"/><path d="M16.034,18.093H.722a.375.375,0,0,1-.375-.375V11.906A8.47,8.47,0,0,1,7.3,3.6a.375.375,0,0,1,.353.127,6.145,6.145,0,0,0,4.69,1.8,6.145,6.145,0,0,0,4.689-1.8.375.375,0,0,1,.353-.127,8.43,8.43,0,0,1,4.092,1.987,15.072,15.072,0,0,1,2.551,4.058,8.389,8.389,0,0,1,.31,2.263v5.811a.375.375,0,0,1-.375.375H16.034Z" transform="translate(0 12.576)" fill="#e63e62" fill-rule="evenodd"/><path d="M2.142,11h-.75v-5a.375.375,0,0,1,.75,0v5Z" transform="translate(3.66 19.67)" fill="#d22d58" fill-rule="evenodd"/><path d="M4.107,23.756a.375.375,0,0,1-.374-.4L4,18.838a.377.377,0,0,1,.05-.165L13,3.174a1.641,1.641,0,0,1,2.238-.6l1.32.762a1.64,1.64,0,0,1,.6,2.238l-8.949,15.5a.376.376,0,0,1-.118.126l-3.78,2.495a.375.375,0,0,1-.207.062Z" transform="translate(11.848 8.244)" fill="#ff8b00" fill-rule="evenodd"/><path d="M5.327,4.893,6.474,2.9l4.158,2.4L9.485,7.292Z" transform="translate(17.431 10.15)" fill="#e0e0e0" fill-rule="evenodd"/><path d="M4.557,16.4a.375.375,0,0,1-.324-.563l7.044-12.2a.375.375,0,1,1,.649.375l-7.044,12.2a.375.375,0,0,1-.325.188Z" transform="translate(13.424 12.089)" fill="#e0e0e0" fill-rule="evenodd"/><path d="M4.107,11.317a.375.375,0,0,1-.374-.4L4,6.4a.377.377,0,0,1,.05-.165l.187-.325L8.4,8.31l-.187.325a.376.376,0,0,1-.118.126l-3.78,2.495a.375.375,0,0,1-.207.062Z" transform="translate(11.848 20.683)" fill="#ffd47d" fill-rule="evenodd"/><path d="M4.107,8.954a.375.375,0,0,1-.374-.4L3.85,6.6A1.856,1.856,0,0,1,5.873,7.862L4.313,8.892A.374.374,0,0,1,4.107,8.954Z" transform="translate(11.848 23.046)" fill="#333" fill-rule="evenodd"/></g></svg>