<svg xmlns="http://www.w3.org/2000/svg" width="31.131" height="32" viewBox="0 0 31.131 32"><g transform="translate(-2.279 -1)"><rect width="21.617" height="30.356" rx="1.63" transform="translate(2.28 2.644)" fill="#84aeea"/><path d="M28.607,1.63c0,25.062.058,23.639-.123,24.014-.129.306.126,0-5.2,5.324a1.317,1.317,0,0,1-.929.388H7.616A.626.626,0,0,1,7,30.726V1.63A.626.626,0,0,1,7.616,1H27.977A.63.63,0,0,1,28.607,1.63Z" transform="translate(-3.113)" fill="#d2ddf2"/><path d="M11.97,32.951V6H30.183V28.237l-4.711,4.715Z" transform="translate(-6.391 -3.298)" fill="#e6ecf2"/><rect width="13.835" height="12.409" rx="3.5" transform="translate(7.768 7.049)" fill="#fff"/><rect width="11.282" height="3.353" rx="1.677" transform="translate(9.044 21.953)" fill="#fff"/><path d="M44.377,48.58c0,8.511.054,8.082-.123,8.446-.129.306.126,0-5.2,5.324a1.317,1.317,0,0,1-.929.388H34.6L30.91,59.051Z" transform="translate(-18.884 -31.383)" fill="#95b5e4"/><path d="M59.29,73.39c-.136.31.146-.024-5.205,5.324a1.246,1.246,0,0,1-.385.269V74.02a.626.626,0,0,1,.626-.63Z" transform="translate(-33.915 -47.747)" fill="#b3c4f3"/><path d="M20.9,27.708H13.01a.34.34,0,1,1,0-.681H20.9a.34.34,0,0,1,0,.681Zm0-1.917H13.01a.34.34,0,0,1,0-.681H20.9a.34.34,0,0,1,0,.681Zm0-1.917H13.01a.34.34,0,1,1,0-.681H20.9a.34.34,0,0,1,0,.681Zm0-1.913H13.01a.34.34,0,0,1,0-.681H20.9a.34.34,0,0,1,0,.681Zm0-1.917H13.01a.34.34,0,0,1,0-.681H20.9a.34.34,0,0,1,0,.681Zm0,9.576H13.01a.34.34,0,0,1,0-.681H20.9a.34.34,0,0,1,0,.681Zm-2.019,1.917H13.01a.34.34,0,1,1,0-.681h5.872a.34.34,0,0,1,0,.681ZM29.892,14.69H23.458a.34.34,0,0,1,0-.681h6.434a.34.34,0,0,1,0,.681Zm0-1.913H23.458a.34.34,0,0,1,0-.681h6.434a.34.34,0,0,1,0,.681Zm0-1.917H23.458a.34.34,0,0,1,0-.681h6.434a.34.34,0,1,1,0,.681Zm0-1.906H23.458a.34.34,0,0,1,0-.681h6.434a.34.34,0,1,1,0,.681Zm0-1.923H23.458a.34.34,0,0,1,0-.681h6.434a.34.34,0,1,1,0,.681ZM27.23,16.607H23.458a.34.34,0,0,1,0-.681H27.23a.34.34,0,0,1,0,.681Zm-7.183,0H13.865a1.2,1.2,0,0,1-1.195-1.185V7.545A1.2,1.2,0,0,1,13.865,6.35h6.182a1.2,1.2,0,0,1,1.195,1.195v7.877a1.2,1.2,0,0,1-1.195,1.185ZM13.865,7.031a.517.517,0,0,0-.514.514v7.877a.517.517,0,0,0,.514.514h6.182a.517.517,0,0,0,.514-.514V7.545a.517.517,0,0,0-.514-.514ZM29.038,26.183H24.313a1.2,1.2,0,0,1-1.195-1.195V20.563a1.2,1.2,0,0,1,1.195-1.195h4.725a1.2,1.2,0,0,1,1.195,1.195v4.426a1.2,1.2,0,0,1-1.195,1.195Zm-4.725-6.128a.517.517,0,0,0-.514.514V25a.517.517,0,0,0,.514.514h4.725A.517.517,0,0,0,29.552,25V20.57a.517.517,0,0,0-.514-.514Z" transform="translate(-6.853 -3.529)" fill="#3c3264"/><path d="M30.92,72.7l.432-3.425,2.992,3Z" transform="translate(-18.89 -45.036)" fill="#4d6dc7"/><path d="M30.92,72.7l.432-3.425.926.929-.3,2.363Z" transform="translate(-18.89 -45.036)" fill="#4359bd"/><rect width="3.775" height="4.231" transform="matrix(0.707, -0.707, 0.707, 0.707, 27.111, 9.596)" fill="#4d6dc7"/><rect width="20.722" height="4.231" transform="translate(12.462 24.244) rotate(-45)" fill="#84aeea"/><path d="M76.183,22.032l-.963-.96L77.892,18.4l.963.96Z" transform="translate(-48.109 -11.477)" fill="#4359bd"/><rect width="1.968" height="4.231" transform="translate(27.112 9.594) rotate(-45)" fill="#4d6dc7"/><rect width="1.968" height="2.873" transform="translate(28.077 10.553) rotate(-45)" fill="#5c86c7"/><rect width="20.722" height="4.231" transform="translate(12.462 24.244) rotate(-45)" fill="#84aeea"/><rect width="20.722" height="1.314" transform="translate(12.462 24.245) rotate(-45)" fill="#5c86c7"/><rect width="9.624" height="1.559" transform="translate(20.598 13.902) rotate(-45)" fill="#3c3264"/><rect width="2.843" height="1.593" transform="translate(31.399 6.289) rotate(45)" fill="#46417d"/><rect width="1.253" height="1.593" transform="translate(31.401 6.289) rotate(45)" fill="#3c3264"/><path d="M.643,0H2.118V13.11H.643A.643.643,0,0,1,0,12.466V.654A.643.643,0,0,1,.643,0Z" transform="translate(24.929 14.771) rotate(45)" fill="#aacef0"/><rect width="0.8" height="8.33" rx="0.4" transform="translate(23.699 16.93) rotate(45)" fill="#fff"/></g></svg>