<svg xmlns="http://www.w3.org/2000/svg" width="27.545" height="32" viewBox="0 0 27.545 32"><g transform="translate(-15.998 -10.5)"><path d="M50.088,46.614a2.438,2.438,0,0,1-2.43,2.43H29.429A2.438,2.438,0,0,1,27,46.614V23.93a2.438,2.438,0,0,1,2.43-2.43H47.658a2.438,2.438,0,0,1,2.43,2.43V46.614" transform="translate(-6.544 -6.544)" fill="#dadee0"/><path d="M20.455,17.386a2.438,2.438,0,0,1,2.43-2.43h16.2V12.93a2.438,2.438,0,0,0-2.43-2.43H18.429A2.438,2.438,0,0,0,16,12.93V35.614a2.438,2.438,0,0,0,2.43,2.43h2.025Z" fill="#1bb7ea"/><path d="M40.109,38.258H52.26a.608.608,0,0,0,0-1.215H40.109a.608.608,0,1,0,0,1.215m0-4.051H52.26a.608.608,0,0,0,0-1.215H40.109a.608.608,0,1,0,0,1.215m0,8.1H52.26a.608.608,0,0,0,0-1.215H40.109a.608.608,0,1,0,0,1.215" transform="translate(-13.982 -13.381)" fill="#a4abb1"/><path d="M44.982,67.267a3.053,3.053,0,1,0-2.209,2.208l-.736-2.944Z" transform="translate(-13.684 -31.527)" fill="#1bb7ea"/><path d="M49.444,71.729,46.5,70.993l.736,2.944A3.04,3.04,0,0,0,49.444,71.729Z" transform="translate(-18.146 -35.99)" fill="#1f4254"/><path d="M54.431,65.675a.6.6,0,0,1,.173.423v3.646a.608.608,0,0,1-1.215,0V67.468l-3-3v0a.6.6,0,0,1,.164.413v4.861a.608.608,0,1,1-1.215,0V68.513l-3.3-3.3a3.023,3.023,0,0,1,.671,1.9,3.05,3.05,0,0,1-2.3,2.944,3.012,3.012,0,0,1-2.664-.6l5.148,5.149h9.539a2.438,2.438,0,0,0,2.43-2.43V70.1Z" transform="translate(-15.314 -32.108)" fill="#c7ced2"/><path d="M62.524,67.031v2.43a.608.608,0,1,0,1.215,0v-2.43a.608.608,0,0,0-1.215,0M60.5,64.6v4.861a.608.608,0,1,0,1.215,0V64.6a.608.608,0,0,0-1.215,0m4.051,1.215v3.646a.608.608,0,1,0,1.215,0V65.816a.608.608,0,1,0-1.215,0" transform="translate(-26.475 -31.825)" fill="#1f4254"/></g></svg>