<svg xmlns="http://www.w3.org/2000/svg" width="32" height="32" viewBox="0 0 32 32"><ellipse cx="2.5" cy="1.5" rx="2.5" ry="1.5" transform="translate(3 17.5)" fill="#ecf0f1" stroke="#434a54" stroke-linecap="round" stroke-linejoin="round" stroke-width="1"/><path d="M11,38v3c0,.83-1.12,1.5-2.5,1.5S6,41.83,6,41V38c0,.83,1.12,1.5,2.5,1.5S11,38.83,11,38Zm7,0v3c0,.83-1.12,1.5-2.5,1.5S13,41.83,13,41V38c0,.83,1.12,1.5,2.5,1.5S18,38.83,18,38Z" transform="translate(-3 -19)" fill="#f1c40f" stroke="#434a54" stroke-linecap="round" stroke-linejoin="round" stroke-width="1"/><ellipse cx="2.5" cy="1.5" rx="2.5" ry="1.5" transform="translate(10 14.5)" fill="#ecf0f1" stroke="#434a54" stroke-linecap="round" stroke-linejoin="round" stroke-width="1"/><path d="M25,32v3c0,.83-1.12,1.5-2.5,1.5S20,35.83,20,35V32c0,.83,1.12,1.5,2.5,1.5S25,32.83,25,32Zm7,3v3c0,.83-1.12,1.5-2.5,1.5S27,38.83,27,38V35c0,.83,1.12,1.5,2.5,1.5S32,35.83,32,35Z" transform="translate(-10 -16)" fill="#f1c40f" stroke="#434a54" stroke-linecap="round" stroke-linejoin="round" stroke-width="1"/><path d="M39,32v3c0,.83-1.12,1.5-2.5,1.5S34,35.83,34,35V32c0,.83,1.12,1.5,2.5,1.5S39,32.83,39,32Z" transform="translate(-17 -16)" fill="#f1c40f" stroke="#434a54" stroke-linecap="round" stroke-linejoin="round" stroke-width="1"/><path d="M39,26v3c0,.83-1.12,1.5-2.5,1.5S34,29.83,34,29V26c0,.83,1.12,1.5,2.5,1.5S39,26.83,39,26Z" transform="translate(-17 -13)" fill="#f1c40f" stroke="#434a54" stroke-linecap="round" stroke-linejoin="round" stroke-width="1"/><ellipse cx="2.5" cy="1.5" rx="2.5" ry="1.5" transform="translate(17 11.5)" fill="#ecf0f1" stroke="#434a54" stroke-linecap="round" stroke-linejoin="round" stroke-width="1"/><path d="M53,38v3c0,.83-1.12,1.5-2.5,1.5S48,41.83,48,41V38c0,.83,1.12,1.5,2.5,1.5S53,38.83,53,38Z" transform="translate(-24 -19)" fill="#f1c40f" stroke="#434a54" stroke-linecap="round" stroke-linejoin="round" stroke-width="1"/><path d="M53,32v3c0,.83-1.12,1.5-2.5,1.5S48,35.83,48,35V32c0,.83,1.12,1.5,2.5,1.5S53,32.83,53,32Z" transform="translate(-24 -16)" fill="#f1c40f" stroke="#434a54" stroke-linecap="round" stroke-linejoin="round" stroke-width="1"/><path d="M53,26v3c0,.83-1.12,1.5-2.5,1.5S48,29.83,48,29V26c0,.83,1.12,1.5,2.5,1.5S53,26.83,53,26Z" transform="translate(-24 -13)" fill="#f1c40f" stroke="#434a54" stroke-linecap="round" stroke-linejoin="round" stroke-width="1"/><path d="M53,20v3c0,.83-1.12,1.5-2.5,1.5S48,23.83,48,23V20c0,.83,1.12,1.5,2.5,1.5S53,20.83,53,20Z" transform="translate(-24 -10)" fill="#f1c40f" stroke="#434a54" stroke-linecap="round" stroke-linejoin="round" stroke-width="1"/><ellipse cx="2.5" cy="1.5" rx="2.5" ry="1.5" transform="translate(24 8.5)" fill="#ecf0f1" stroke="#434a54" stroke-linecap="round" stroke-linejoin="round" stroke-width="1"/><path d="M32,22v3.5m0,3V32M2,31v1.5" transform="translate(-1 -11)" fill="none" stroke="#434a54" stroke-linecap="round" stroke-linejoin="round" stroke-width="1"/><path d="M0,0H32V32H0Z" fill="none"/></svg>