<svg xmlns="http://www.w3.org/2000/svg" width="32" height="32" viewBox="0 0 32 32"><path d="M28.332,37.675h-8a.666.666,0,0,1-.667-.667V35.281l-6.083-6.2a1.982,1.982,0,0,1,.007-2.821,2.034,2.034,0,0,1,2.823.006l1.919,1.914V19.009a1.942,1.942,0,0,1,.328-1.094,2.061,2.061,0,0,1,2.641-.657,2.027,2.027,0,0,1,1.031,1.751v2.781a2.078,2.078,0,0,1,2,.4,2,2,0,0,1,2.667,0,2,2,0,0,1,3.333,1.489v9.333a.67.67,0,0,1-.112.37L29,35.211v1.8A.666.666,0,0,1,28.332,37.675ZM21,36.342h6.667V35.009a.67.67,0,0,1,.112-.37L29,32.807V23.675a.667.667,0,1,0-1.333,0,.667.667,0,0,1-1.333,0,.667.667,0,1,0-1.333,0,.667.667,0,1,1-1.333,0,.667.667,0,0,0-1.333,0,.667.667,0,1,1-1.333,0V19.009a.687.687,0,0,0-.351-.589.7.7,0,0,0-.873.226.625.625,0,0,0-.109.363v10.78a.666.666,0,0,1-1.137.472l-3.06-3.053a.669.669,0,0,0-1.138.469.65.65,0,0,0,.2.466l6.281,6.4a.664.664,0,0,1,.191.466Zm8.667-3.333h0Z" transform="translate(-4.332 -5.675)"/><path d="M28.333,22.667A.666.666,0,0,1,27.667,22V18A.667.667,0,0,1,29,18v4A.666.666,0,0,1,28.333,22.667Zm-2.667,0A.666.666,0,0,1,25,22V18a.667.667,0,0,1,1.333,0v4A.666.666,0,0,1,25.667,22.667Zm-2.667,0A.666.666,0,0,1,22.333,22V18a.667.667,0,0,1,1.333,0v4A.666.666,0,0,1,23,22.667Zm-1.333-16A3.333,3.333,0,1,1,25,3.333,3.337,3.337,0,0,1,21.667,6.667Zm0-5.333a2,2,0,1,0,2,2A2,2,0,0,0,21.667,1.333Zm4,13.333H23A.666.666,0,0,1,22.333,14v-.667a.687.687,0,0,0-.351-.589.7.7,0,0,0-.873.226.625.625,0,0,0-.109.363V14a.666.666,0,0,1-.667.667H17.667A.666.666,0,0,1,17,14V11.333A3.337,3.337,0,0,1,20.333,8H23a3.337,3.337,0,0,1,3.333,3.333V14A.666.666,0,0,1,25.667,14.667Zm-2-1.333H25v-2a2,2,0,0,0-2-2H20.333a2,2,0,0,0-2,2v2h1.333a1.942,1.942,0,0,1,.328-1.094,2.061,2.061,0,0,1,2.641-.657A2.027,2.027,0,0,1,23.667,13.333Zm8-1.333a6,6,0,1,1,6-6A6.007,6.007,0,0,1,31.667,12Zm0-10.667A4.667,4.667,0,1,0,36.333,6,4.672,4.672,0,0,0,31.667,1.333Z" transform="translate(-5.667)"/><path d="M24.666,5.333a.668.668,0,0,1-.3-.07L23.035,4.6a.667.667,0,1,1,.6-1.193l1.333.667a.666.666,0,0,1-.3,1.263Zm2.668,0a.667.667,0,0,1-.3-1.263L28.368,3.4a.667.667,0,0,1,.6,1.193l-1.333.667A.66.66,0,0,1,27.334,5.333Zm0,3.333H24.667a.667.667,0,1,1,0-1.333h2.667a.667.667,0,0,1,0,1.333ZM6,12a6,6,0,1,1,6-6A6.007,6.007,0,0,1,6,12ZM6,1.333A4.667,4.667,0,1,0,10.667,6,4.672,4.672,0,0,0,6,1.333Z"/><path d="M6,7a.668.668,0,0,1-.3-.07L4.368,6.263a.667.667,0,1,1,.6-1.193L6.3,5.737A.666.666,0,0,1,6,7ZM8.667,7a.667.667,0,0,1-.3-1.263L9.7,5.07a.667.667,0,0,1,.6,1.193l-1.333.667A.66.66,0,0,1,8.667,7Zm0,3.333H6A.667.667,0,1,1,6,9H8.666a.667.667,0,1,1,0,1.333Z" transform="translate(-1.333 -1.666)"/></svg>