<svg xmlns="http://www.w3.org/2000/svg" width="40.139" height="34" viewBox="0 0 40.139 34"><g transform="translate(-4 -9.838)"><path d="M34.537,15.006c0,2.394-1.942,6.583-4.344,6.583s-4.344-4.181-4.344-6.583a4.344,4.344,0,0,1,8.68,0Z" transform="translate(-6.124 0)" fill="none" stroke="#37a849" stroke-linecap="round" stroke-linejoin="round" stroke-width="2"/><path d="M19.34,39.621a8.941,8.941,0,1,1,17.883,0" transform="translate(-4.212 -5.828)" fill="none" stroke="#37a849" stroke-linecap="round" stroke-linejoin="round" stroke-width="2"/><path d="M50.435,19.281c0,2.027-1.646,5.65-3.673,5.65s-3.673-3.651-3.673-5.65a3.676,3.676,0,1,1,7.352,0Z" transform="translate(-11.188 -1.4)" fill="none" stroke="#37a849" stroke-linecap="round" stroke-linejoin="round" stroke-width="2"/><path d="M41.81,34.3a7.571,7.571,0,0,1,12.141,6.039" transform="translate(-10.812 -6.441)" fill="none" stroke="#37a849" stroke-linecap="round" stroke-linejoin="round" stroke-width="2"/><path d="M10.507,19.281c0,2.027,1.646,5.65,3.673,5.65s3.673-3.651,3.673-5.65a3.676,3.676,0,1,0-7.352,0Z" transform="translate(-1.615 -1.4)" fill="none" stroke="#37a849" stroke-linecap="round" stroke-linejoin="round" stroke-width="2"/><path d="M17.141,34.3A7.571,7.571,0,0,0,5,40.341" transform="translate(0 -6.441)" fill="none" stroke="#37a849" stroke-linecap="round" stroke-linejoin="round" stroke-width="2"/><path d="M19.84,47a8.949,8.949,0,0,0,17.191,0" transform="translate(-4.359 -10.622)" fill="none" stroke="#37a849" stroke-linecap="round" stroke-linejoin="round" stroke-width="2"/><line x2="8.475" transform="translate(19.832 34.26)" fill="none" stroke="#37a849" stroke-linecap="round" stroke-linejoin="round" stroke-width="2"/></g></svg>