<svg xmlns="http://www.w3.org/2000/svg" width="32" height="32" viewBox="0 0 32 32"><g transform="translate(-7.5 -7.502)"><path d="M69.424,8.1V37.563A1.936,1.936,0,0,1,67.493,39.5H46.31l1.932-3.51V8.1a.386.386,0,0,1,.6-.323L50,8.553a.642.642,0,0,0,.716,0l1.4-.942a.643.643,0,0,1,.716,0l1.4.941a.642.642,0,0,0,.716,0l1.4-.941a.643.643,0,0,1,.716,0l1.4.942a.642.642,0,0,0,.716,0l1.4-.942a.644.644,0,0,1,.716,0l1.4.942a.641.641,0,0,0,.715,0l1.4-.942a.643.643,0,0,1,.715,0l1.4.942a.642.642,0,0,0,.716,0l1.16-.778a.386.386,0,0,1,.6.323Z" transform="translate(-36.311)" fill="#f0f0f2"/><path d="M28.908,434.5H7.5v2.253a2.254,2.254,0,0,0,2.253,2.254H30.872" transform="translate(0 -399.505)" fill="#dadadc"/><path d="M342.314,434.5v2.479a2.028,2.028,0,0,0,2.028,2.028h0a2.028,2.028,0,0,0,2.028-2.028V434.5" transform="translate(-313.257 -399.505)" fill="#f0f0f2"/><path d="M124.514,196.966H114.3a.483.483,0,1,1,0-.966h10.217a.483.483,0,1,1,0,.966Zm-.966,2.9H114.3a.483.483,0,1,1,0-.966h9.251a.483.483,0,1,1,0,.966Zm.129,2.9H114.3a.483.483,0,0,1,0-.966h9.38a.483.483,0,0,1,0,.966Zm1.03,2.9H114.3a.483.483,0,1,1,0-.966h10.41a.483.483,0,1,1,0,.966Zm2.9,2.9H114.3a.483.483,0,0,1,0-.966H127.6a.483.483,0,1,1,0,.966Z" transform="translate(-99.469 -176.361)" fill="#dadadc"/><path d="M291.171,152.765l.163,0v-1.055l-.163,0a7.681,7.681,0,0,0,0,15.361l.163,0v-1.055l-.163,0a6.626,6.626,0,0,1,0-13.252Z" transform="translate(-258.22 -134.923)" fill="#e1e1e3"/><circle cx="6.55" cy="6.55" r="6.55" transform="translate(26.401 17.918)" fill="#e4222e"/><path d="M388.742,169.276a6.6,6.6,0,0,0-.966.071,6.55,6.55,0,0,1,0,12.957,6.55,6.55,0,1,0,.966-13.028Z" transform="translate(-355.792 -151.358)" fill="#c0232c"/><path d="M349.428,223.218a.483.483,0,0,1-.341-.824l5.1-5.1a.483.483,0,0,1,.683.683l-5.1,5.1A.482.482,0,0,1,349.428,223.218Zm4.6.464a1.448,1.448,0,1,1,1.024-.424h0A1.444,1.444,0,0,1,354.026,223.683Zm.683-.765Zm-.683-1.166a.483.483,0,1,0,.341.141.483.483,0,0,0-.341-.141Zm-4.1-2.167a1.448,1.448,0,1,1,1.024-.424h0A1.444,1.444,0,0,1,349.929,219.585Zm.683-.765Zm-.683-1.166a.483.483,0,1,0,.341.141A.483.483,0,0,0,349.929,217.655Z" transform="translate(-319.027 -195.718)" fill="#fff"/><path d="M218.089,69.632h-1.481a.483.483,0,1,1,0-.966h1.481a.934.934,0,0,0,0-1.867h-.064a1.9,1.9,0,0,1,0-3.8h1.481a.483.483,0,1,1,0,.966h-1.481a.934.934,0,1,0,0,1.867h.064a1.9,1.9,0,1,1,0,3.8Zm-6.31,0a.483.483,0,0,1-.483-.483V63.483a.483.483,0,1,1,.966,0v5.666a.483.483,0,0,1-.483.483Z" transform="translate(-190.674 -51.924)" fill="#24b378"/><path d="M157.955,69.632h-1.932a.483.483,0,1,1,0-.966h1.932a.483.483,0,0,0,.483-.483V64.449a.483.483,0,0,0-.483-.483h-1.932a.483.483,0,1,1,0-.966h1.932a1.45,1.45,0,0,1,1.449,1.449v3.734A1.45,1.45,0,0,1,157.955,69.632Zm-5.768,0a.483.483,0,0,1-.483-.483V63.483a.483.483,0,0,1,.966,0v5.666a.483.483,0,0,1-.483.483Z" transform="translate(-134.919 -51.924)" fill="#24b378"/><path d="M126.05,63.966h-3.863a.483.483,0,1,1,0-.966h3.863a.483.483,0,1,1,0,.966Z" transform="translate(-106.851 -51.924)" fill="#24b378"/></g></svg>