<svg xmlns="http://www.w3.org/2000/svg" width="250" height="228.583" viewBox="0 0 250 228.583">
  <g id="attracting-investors" transform="translate(-56.11 -72.45)">
    <g id="freepik--Shadow--inject-99" transform="translate(56.11 286.437)">
      <ellipse id="freepik--path--inject-99" cx="125" cy="7.298" rx="125" ry="7.298" fill="#f5f5f5"/>
    </g>
    <g id="freepik--Character--inject-99" transform="translate(132.17 157.559)">
      <path id="Path_38313" data-name="Path 38313" d="M227.192,413.515h0a2.076,2.076,0,0,1-2.082-2.082V409.35h4.165v2.082a2.082,2.082,0,0,1-2.082,2.082Z" transform="translate(-192.217 -277.261)" fill="#263238"/>
      <path id="Path_38314" data-name="Path 38314" d="M341.132,413.515h0a2.082,2.082,0,0,1-2.082-2.082V409.35h4.165v2.082a2.076,2.076,0,0,1-2.082,2.082Z" transform="translate(-232.7 -277.261)" fill="#263238"/>
      <path id="Path_38315" data-name="Path 38315" d="M399.972,413.515h0a2.082,2.082,0,0,1-2.082-2.082V409.35h4.165v2.082a2.076,2.076,0,0,1-2.082,2.082Z" transform="translate(-253.606 -277.261)" fill="#263238"/>
      <rect id="Rectangle_5655" data-name="Rectangle 5655" width="120.184" height="25.962" transform="translate(29.244 107.926)" fill="#f8951d"/>
      <rect id="Rectangle_5656" data-name="Rectangle 5656" width="120.184" height="25.962" transform="translate(29.244 107.926)" fill="#fff" opacity="0.3"/>
      <rect id="Rectangle_5657" data-name="Rectangle 5657" width="37.238" height="25.968" transform="translate(112.075 107.926)" opacity="0.2"/>
      <path id="Path_38316" data-name="Path 38316" d="M363.364,267.213l-5.893,53c-.393,3.72-4.081,6.6-8.549,6.724a2.642,2.642,0,0,1-.322,0H274.312c-5.222,0-9.329-3.713-8.871-8.02l5.886-53c.4-3.81,4.255-6.737,8.877-6.737h74.63C359.914,259.361,363.783,263,363.364,267.213Z" transform="translate(-206.534 -223.905)" fill="#f8951d"/>
      <path id="Path_38317" data-name="Path 38317" d="M363.364,267.213l-5.893,53c-.393,3.72-4.081,6.6-8.549,6.724a2.642,2.642,0,0,1-.322,0H274.312c-5.222,0-9.329-3.713-8.871-8.02l5.886-53c.4-3.81,4.255-6.737,8.877-6.737h74.63C359.914,259.361,363.783,263,363.364,267.213Z" transform="translate(-206.534 -223.905)" fill="#fff" opacity="0.5"/>
      <path id="Path_38318" data-name="Path 38318" d="M411.005,267.224l-5.893,53c-.393,3.72-4.074,6.6-8.549,6.724-5.054-.155-8.968-3.8-8.523-8.007l5.886-53c.393-3.72,4.074-6.6,8.549-6.731C407.537,259.371,411.45,263.007,411.005,267.224Z" transform="translate(-250.094 -223.916)" fill="#f8951d"/>
      <path id="Path_38319" data-name="Path 38319" d="M411.005,267.224l-5.893,53c-.393,3.72-4.074,6.6-8.549,6.724-5.054-.155-8.968-3.8-8.523-8.007l5.886-53c.393-3.72,4.074-6.6,8.549-6.731C407.537,259.371,411.45,263.007,411.005,267.224Z" transform="translate(-250.094 -223.916)" fill="#fff" opacity="0.3"/>
      <rect id="Rectangle_5658" data-name="Rectangle 5658" width="70.53" height="24.847" rx="12.423" transform="translate(84.901 88.636)" fill="#f8951d"/>
      <rect id="Rectangle_5659" data-name="Rectangle 5659" width="70.53" height="24.847" rx="12.423" transform="translate(84.901 88.636)" fill="#fff" opacity="0.3"/>
      <rect id="Rectangle_5660" data-name="Rectangle 5660" width="98.929" height="24.847" rx="12.423" transform="translate(23.01 88.636)" fill="#f8951d"/>
      <rect id="Rectangle_5661" data-name="Rectangle 5661" width="98.929" height="24.847" rx="12.423" transform="translate(23.01 88.636)" fill="#fff" opacity="0.6"/>
      <path id="Path_38320" data-name="Path 38320" d="M232.608,380.586l-4.294,13.771-4.945-.322,3.623-18.174Z" transform="translate(-191.598 -265.362)" fill="#ff8b7b"/>
      <path id="Path_38321" data-name="Path 38321" d="M284.291,299.821s-9.026-.309-15.64-2.321c0,0-2.759,5.706-4.951,7.807l-.877.838s-25.9-6.3-29.437,1.844c-3.024,6.943-10.9,52.581-10.9,52.581H231.3s6.2-19.27,12-33.524c.309-.754,1.38-4.764,1.38-4.764a75.893,75.893,0,0,0,33.653,6.125c2.579-.122,6.447-5.506,6.5-13.874A146.624,146.624,0,0,0,284.291,299.821Z" transform="translate(-191.286 -237.52)" fill="#263238"/>
      <path id="Path_38322" data-name="Path 38322" d="M274.133,328.018c-7.24-3.372-17.213-12.41-21.842-15.789a10.244,10.244,0,0,0-3.61-1.747c4.081-.806,9.284-.645,13.751-.258l10.541,4.9,16.93,7.91,2,6.067c-.793,3.224-2.843,3.668-4.674,3.759a78.8,78.8,0,0,1-21.2-2.037C266.873,330.893,281.121,331.241,274.133,328.018Z" transform="translate(-200.591 -241.928)" opacity="0.2"/>
      <path id="Path_38323" data-name="Path 38323" d="M201.731,345.059l-9.3,9.071-3.488-2.862,7.227-10.457Z" transform="translate(-179.365 -252.909)" fill="#ff8b7b"/>
      <path id="Path_38324" data-name="Path 38324" d="M184.347,353.791l4.055,3.223a.477.477,0,0,1,.135.587l-2.166,4.461a.806.806,0,0,1-1.064.38l-.148-.09c-1.657-1.36-3.075-2.643-5.158-4.3-2.476-1.934-2.082-1.167-5.016-3.43-1.773-1.367-.509-3.61.309-3.12,3.733,2.269,5.506,2,7.781,1.824a1.934,1.934,0,0,1,1.27.464Z" transform="translate(-174.088 -256.683)" fill="#263238"/>
      <path id="Path_38325" data-name="Path 38325" d="M186.412,353.572a.1.1,0,0,0,.11,0,.1.1,0,0,0,0-.116c-.077-.2-.87-1.979-1.463-2.089a.361.361,0,0,0-.316.1h0a.645.645,0,0,0-.174.516c.1.645,1.173,1.289,1.805,1.605Zm-1.335-2.018c.329.116.825.993,1.154,1.683-.851-.477-1.38-.961-1.431-1.289a.348.348,0,0,1,.116-.335.129.129,0,0,1,.122-.045Z" transform="translate(-177.81 -256.658)" fill="#f8951d"/>
      <path id="Path_38326" data-name="Path 38326" d="M187.227,353.49h0a.1.1,0,0,0,.1-.045,2.953,2.953,0,0,0,.574-1.728.773.773,0,0,0-.329-.5h0a.38.38,0,0,0-.49,0c-.393.342-.187,1.721.064,2.237a.11.11,0,0,0,.084.032Zm.148-2.14.084.064h0a.542.542,0,0,1,.245.367,2.508,2.508,0,0,1-.432,1.405c-.206-.593-.271-1.605-.045-1.812a.122.122,0,0,1,.135,0Z" transform="translate(-178.626 -256.576)" fill="#f8951d"/>
      <path id="Path_38327" data-name="Path 38327" d="M263.815,291.443a72.071,72.071,0,0,0,21.591.432s7.44,28.624-13.816,28.592c-7.859,0-11.063-3.333-16.117-6.447-11.5-7.034-20.914-17.3-25.414-16.762-6.486.819-2.959,8.562-29.656,29.54l-5.4-4.855s20.2-44.413,33.524-44.413c11.521,0,29.656,17.742,32.093,17.8S263.815,291.443,263.815,291.443Z" transform="translate(-181.518 -230.425)" fill="#263238"/>
      <path id="Path_38328" data-name="Path 38328" d="M239.793,310.69h0a6.164,6.164,0,0,0-3.449,3.03,18.644,18.644,0,0,0-.98,3.823c-.767,1.064-1.663,2.244-2.734,3.546C233.513,312.437,239.793,310.69,239.793,310.69Z" transform="translate(-194.888 -242.207)" opacity="0.2"/>
      <path id="Path_38329" data-name="Path 38329" d="M219.688,404.276a.1.1,0,0,0-.135-.142c-.213.071-2.1.806-2.237,1.418a.361.361,0,0,0,.1.329h0a.587.587,0,0,0,.522.206c.645-.065,1.38-1.154,1.754-1.792Zm-2.153,1.289a4.491,4.491,0,0,1,1.8-1.109c-.535.857-1.057,1.38-1.425,1.418a.38.38,0,0,1-.348-.135.155.155,0,0,1-.039-.129Z" transform="translate(-189.444 -275.405)" fill="#f8951d"/>
      <path id="Path_38330" data-name="Path 38330" d="M219.649,403.948h0a.1.1,0,0,0-.045-.1,3.011,3.011,0,0,0-1.76-.645.786.786,0,0,0-.535.316h0a.393.393,0,0,0-.039.5c.335.425,1.773.271,2.321.039a.11.11,0,0,0,.058-.11Zm-2.211-.251.077-.084h0a.541.541,0,0,1,.387-.239,2.579,2.579,0,0,1,1.438.509c-.645.187-1.676.213-1.876-.039a.122.122,0,0,1,0-.142Z" transform="translate(-189.405 -275.076)" fill="#f8951d"/>
      <path id="Path_38331" data-name="Path 38331" d="M218.5,402.5l5.338-.645a.49.49,0,0,1,.529.329l1.7,4.861a.832.832,0,0,1-.5,1.057.848.848,0,0,1-.174.039c-2.218.226-4.2.335-6.95.645-3.223.38-2.379.645-6.2,1.18-2.3.3-3.03-2.269-2.069-2.514,4.4-1.083,5.506-2.579,7.04-4.39A2.011,2.011,0,0,1,218.5,402.5Z" transform="translate(-186.763 -274.598)" fill="#263238"/>
      <path id="Path_38332" data-name="Path 38332" d="M256.618,214.943c-.825-.122-.909-.748-1.341-1.47,0,0-1.289-2.888-.258-3.314a22.2,22.2,0,0,1,3.146-.116,3.4,3.4,0,0,1,3.095,2.624C262.176,215.813,256.618,214.943,256.618,214.943Z" transform="translate(-202.701 -206.442)" fill="#ff8b7b"/>
      <path id="Path_38333" data-name="Path 38333" d="M254.268,213.5l-3.707-2.843a1.289,1.289,0,0,1-.232-1.818l.935-1.193a1.289,1.289,0,0,1,1.56-.38l3.72,1.728Z" transform="translate(-201.08 -205.417)" fill="#ff8b7b"/>
      <path id="Path_38334" data-name="Path 38334" d="M260.53,215.462l3.52,7.221,4.487-.806-6.015-9.477Z" transform="translate(-204.801 -207.284)" fill="#ff8b7b"/>
      <path id="Path_38335" data-name="Path 38335" d="M289.192,233.928l-2.45,8.5-10.921-3.507c-7.195-1.863-15.041-18.174-15.041-18.174l4.893-1.934L276.865,231.7Z" transform="translate(-204.89 -209.562)" fill="#f8951d"/>
      <path id="Path_38336" data-name="Path 38336" d="M294.219,265.727c1.122,3.024,1.792,8.336-2.579,15.131,0,0,16.846,2.5,28.779,1.747.832-4.855-1.225-14.951,3.146-30.513a6.312,6.312,0,0,0-5.022-7.93c-.986-.168-2.031-.322-3.107-.445-4.178-.49-7.324-1.289-11.031-1.225-1.231,0-2.289-.419-3.507-.329-2.682.193-5.957,5.544-7.414,10.728A20.837,20.837,0,0,0,294.219,265.727Z" transform="translate(-215.855 -217.854)" fill="#f8951d"/>
      <path id="Path_38337" data-name="Path 38337" d="M294.219,265.727c1.122,3.024,1.792,8.336-2.579,15.131,0,0,16.846,2.5,28.779,1.747.832-4.855-1.225-14.951,3.146-30.513a6.312,6.312,0,0,0-5.022-7.93c-.986-.168-2.031-.322-3.107-.445-4.178-.49-7.324-1.289-11.031-1.225-1.231,0-2.289-.419-3.507-.329-2.682.193-5.957,5.544-7.414,10.728A20.837,20.837,0,0,0,294.219,265.727Z" transform="translate(-215.855 -217.854)" fill="#fff" opacity="0.4"/>
      <path id="Path_38338" data-name="Path 38338" d="M296.848,282.135a16.627,16.627,0,0,1-7.968-2.224,33.957,33.957,0,0,0,1.476-16.981c-.509-2.972-1.412-5.97-.941-8.948.774-4.906,5.009-8.413,8.948-11.45.735-.567,1.554-.193,2.469-.361C296.533,252.292,296.533,265.353,296.848,282.135Z" transform="translate(-214.874 -217.861)" fill="#f8951d"/>
      <path id="Path_38339" data-name="Path 38339" d="M331.506,282.585a2.418,2.418,0,0,1-1.837,1.857,7.151,7.151,0,0,1-2.746,0c-3.095-.387-6.363-.915-9.458-1.289a86.943,86.943,0,0,1,4.39-40.319c3.469-.1,7.24.284,9.38,3.011,1.689,2.147,1.586,5.158,1.4,7.865C331.983,263.366,332.718,273,331.506,282.585Z" transform="translate(-224.782 -218.092)" fill="#f8951d"/>
      <path id="Path_38340" data-name="Path 38340" d="M322.266,262.855a68.1,68.1,0,0,1,4-13.165l.316,2.869.941,1.2c-1.567,4.758,6.511,12.668-2.579,23.68a1.573,1.573,0,0,1-1.824.445c-3.855-1.56-8.123-6.544-8.123-6.544l2-5.112C319.719,267.5,321.531,266.723,322.266,262.855Z" transform="translate(-224.155 -220.533)" opacity="0.2"/>
      <path id="Path_38341" data-name="Path 38341" d="M303.4,269.864l5.151,5.093,2.263-3.6-5.551-4.4Z" transform="translate(-220.033 -226.666)" fill="#ff8b7b"/>
      <path id="Path_38342" data-name="Path 38342" d="M294.615,264.895H279.2l-1.76-20.115h15.415Z" transform="translate(-210.81 -218.789)" fill="#263238"/>
      <path id="Path_38343" data-name="Path 38343" d="M294.615,264.895H279.2l-1.76-20.115h15.415Z" transform="translate(-210.81 -218.789)" fill="#fff" opacity="0.5"/>
      <path id="Path_38344" data-name="Path 38344" d="M293.768,264.738H278.354L276.6,244.63h15.408Z" transform="translate(-210.511 -218.736)" fill="#263238"/>
      <path id="Path_38345" data-name="Path 38345" d="M293.768,264.738H278.354L276.6,244.63h15.408Z" transform="translate(-210.511 -218.736)" fill="#fff" opacity="0.8"/>
      <path id="Path_38346" data-name="Path 38346" d="M290.055,245.188h-6.486l-.219-2.508h6.486Z" transform="translate(-212.91 -218.043)" fill="#263238"/>
      <path id="Path_38347" data-name="Path 38347" d="M283.35,242.556l.638-.226H290.7l.09,1.07-.5.58-.032.877-.206.206-.219-2.508Z" transform="translate(-212.91 -217.918)" fill="#263238"/>
      <path id="Path_38348" data-name="Path 38348" d="M283.35,242.556l.638-.226H290.7l.09,1.07-.5.58-.032.877-.206.206-.219-2.508Z" transform="translate(-212.91 -217.918)" opacity="0.5"/>
      <path id="Path_38349" data-name="Path 38349" d="M295.477,268.231l1.1.935a1.676,1.676,0,0,0,1.5.355l2.463-.612c.986-.251,1.7-3.062,1.7-3.062-1.244-1.5-4.984-1.934-4.984-1.934a1.393,1.393,0,0,0-1.766.909l-.529,1.7a1.605,1.605,0,0,0,.516,1.708Z" transform="translate(-217.01 -225.561)" fill="#ff8b7b"/>
      <path id="Path_38350" data-name="Path 38350" d="M329.9,257.295c.548-2.972.645-9.026-2.508-10.154-3.668-1.322-4.648,4.216-5.435,9.213s-2.34,11.256-3.539,10.612c-2.489-1.289-6.86-4.152-6.86-4.152L308.92,266.9s9.2,9.806,13.384,7.517C327.023,271.852,329.2,261.079,329.9,257.295Z" transform="translate(-221.995 -219.557)" fill="#f8951d"/>
      <path id="Path_38351" data-name="Path 38351" d="M318.562,231.814a16.291,16.291,0,0,0,.077,7.414s-10.089,6.447-10.089-.187c0,0,3.133.9,3.4-3.12C312.1,233.638,314.481,231.324,318.562,231.814Z" transform="translate(-221.863 -214.158)" fill="#ff8b7b"/>
      <path id="Path_38352" data-name="Path 38352" d="M313.607,235.923c.271-2.108,2.218-4.255,5.751-4.165l.232.213.251.464s-2.276,5.8-6.621,5.087A6.5,6.5,0,0,0,313.607,235.923Z" transform="translate(-223.522 -214.161)" opacity="0.2"/>
      <path id="Path_38353" data-name="Path 38353" d="M318.747,214.79c-.787,5.48-1,7.82-4.01,10.425-4.513,3.92-11.089,1.76-11.966-3.868-.78-5.048.645-13.158,6.2-14.918a7.543,7.543,0,0,1,9.5,4.874A7.62,7.62,0,0,1,318.747,214.79Z" transform="translate(-219.74 -205.032)" fill="#ff8b7b"/>
      <path id="Path_38354" data-name="Path 38354" d="M319.857,224.286a20.63,20.63,0,0,0,5.37-1.715c.78-2.45,1.057-3.223,1.663-5.454,1.115-4.132.213-9.361-3.759-10.921-1.373-.542-5.622-3.037-7.15-.845C315.589,205.906,323.377,215.125,319.857,224.286Z" transform="translate(-224.499 -204.465)" fill="#263238"/>
      <path id="Path_38355" data-name="Path 38355" d="M307.711,224.28a12.039,12.039,0,0,1-1.831,2.74,1.934,1.934,0,0,0,1.573.432Z" transform="translate(-220.915 -211.505)" fill="#ff5652"/>
      <path id="Path_38356" data-name="Path 38356" d="M315.109,219.225a.2.2,0,0,0,.1-.039.219.219,0,0,0,.039-.309h0a2.579,2.579,0,0,0-2.121-1.057.232.232,0,0,0-.2.239.219.219,0,0,0,.232.2,2.153,2.153,0,0,1,1.747.89A.213.213,0,0,0,315.109,219.225Z" transform="translate(-223.419 -209.21)" fill="#263238"/>
      <path id="Path_38357" data-name="Path 38357" d="M303.557,217.886a.245.245,0,0,0,.1-.039,2.14,2.14,0,0,1,1.934-.348.219.219,0,0,0,.284-.122h0a.219.219,0,0,0-.129-.284,2.579,2.579,0,0,0-2.334.4.219.219,0,0,0,.155.4Z" transform="translate(-220.004 -208.909)" fill="#263238"/>
      <path id="Path_38358" data-name="Path 38358" d="M313.135,223.057c-.032.445-.3.787-.6.767s-.5-.406-.458-.857.3-.787.593-.767S313.167,222.606,313.135,223.057Z" transform="translate(-223.115 -210.766)" fill="#263238"/>
      <path id="Path_38359" data-name="Path 38359" d="M305.266,222.427c-.032.445-.3.787-.593.767s-.5-.406-.464-.857.3-.787.593-.767S305.311,221.969,305.266,222.427Z" transform="translate(-220.319 -210.542)" fill="#263238"/>
      <path id="Path_38360" data-name="Path 38360" d="M304.751,221.4,303.7,221S304.184,221.89,304.751,221.4Z" transform="translate(-220.14 -210.34)" fill="#263238"/>
      <path id="Path_38361" data-name="Path 38361" d="M312.617,222.04l-1.057-.4S312.05,222.517,312.617,222.04Z" transform="translate(-222.933 -210.567)" fill="#263238"/>
      <path id="Path_38362" data-name="Path 38362" d="M311.543,230.163a3.054,3.054,0,0,0,.329-.432.11.11,0,0,0,0-.148h0a.116.116,0,0,0-.148.039,2.9,2.9,0,0,1-2.244,1.36.106.106,0,1,0,0,.213,3,3,0,0,0,2.063-1.032Z" transform="translate(-222.155 -213.385)" fill="#263238"/>
      <path id="Path_38363" data-name="Path 38363" d="M326.87,225.1a4,4,0,0,1-2.134,2.231c-1.289.561-2.147-.554-1.934-1.889.181-1.193,1.083-2.927,2.469-2.927a1.837,1.837,0,0,1,1.773,1.889A1.869,1.869,0,0,1,326.87,225.1Z" transform="translate(-226.916 -210.876)" fill="#ff8b7b"/>
      <path id="Path_38364" data-name="Path 38364" d="M308.666,204.853a6.666,6.666,0,0,0-5.248,7.395c.915.148,1.837.419,2.753.561a3.314,3.314,0,0,1,.645-2.895,6.686,6.686,0,0,0,.193,3.153c.69.077,1.567.1,2.256.174,0-1.109.058-1.734.064-2.843.464,1.1.986,2.2,1.457,3.307a3.778,3.778,0,0,1,2.147.606c-.226-1.077-.458-2.263-.683-3.34a9.1,9.1,0,0,1,2.057,5.744,8.2,8.2,0,0,0,.425-7.395C313.688,206.981,311.18,204.331,308.666,204.853Z" transform="translate(-220.019 -204.579)" fill="#263238"/>
      <path id="Path_38365" data-name="Path 38365" d="M319.543,241.2a57.53,57.53,0,0,1-7.163,4.274,7.965,7.965,0,0,0,2.36,4.629c4.036-3.037,5.274-4.809,6.447-7.9C321.019,241.383,320.239,240.732,319.543,241.2Z" transform="translate(-223.224 -217.462)" fill="#f8951d"/>
      <path id="Path_38366" data-name="Path 38366" d="M319.543,241.2a57.53,57.53,0,0,1-7.163,4.274,7.965,7.965,0,0,0,2.36,4.629c4.036-3.037,5.274-4.809,6.447-7.9C321.019,241.383,320.239,240.732,319.543,241.2Z" transform="translate(-223.224 -217.462)" fill="#fff" opacity="0.7"/>
      <path id="Path_38367" data-name="Path 38367" d="M307.063,242.2a7.9,7.9,0,0,0-.032,7.33c1-1.289,2.2-2.366,3.223-3.655-1.463-1.289-1.083-2.372-.845-3.591a4.513,4.513,0,0,0-2.269-.2l-.122.309C307.108,242.369,306.954,242.227,307.063,242.2Z" transform="translate(-221.008 -217.809)" fill="#f8951d"/>
      <path id="Path_38368" data-name="Path 38368" d="M307.063,242.2a7.9,7.9,0,0,0-.032,7.33c1-1.289,2.2-2.366,3.223-3.655-1.463-1.289-1.083-2.372-.845-3.591a4.513,4.513,0,0,0-2.269-.2l-.122.309C307.108,242.369,306.954,242.227,307.063,242.2Z" transform="translate(-221.008 -217.809)" fill="#fff" opacity="0.7"/>
    </g>
    <g id="freepik--Levels--inject-99" transform="translate(180.369 113.291)">
      <path id="Path_38369" data-name="Path 38369" d="M320.224,171.49H305.9a21.364,21.364,0,1,0-42.727,0H248.85a35.689,35.689,0,1,1,71.377,0Z" transform="translate(-248.85 -135.8)" fill="#f8951d"/>
      <path id="Path_38370" data-name="Path 38370" d="M328.584,163.447,341,156.278a35.864,35.864,0,0,0-13.062-13.068l-7.169,12.417A21.391,21.391,0,0,1,328.584,163.447Z" transform="translate(-274.403 -138.433)" fill="#f8951d"/>
      <path id="Path_38371" data-name="Path 38371" d="M253.627,163.48a35.516,35.516,0,0,0-4.777,17.845h14.325a21.23,21.23,0,0,1,2.862-10.676Z" transform="translate(-248.85 -145.635)" fill="#fff" opacity="0.8"/>
      <path id="Path_38372" data-name="Path 38372" d="M335.759,181.325h14.325a35.529,35.529,0,0,0-4.777-17.845l-12.417,7.169a21.172,21.172,0,0,1,2.869,10.676Z" transform="translate(-278.71 -145.635)" opacity="0.2"/>
      <path id="Path_38373" data-name="Path 38373" d="M276.491,155.627l-7.169-12.417a35.864,35.864,0,0,0-13.062,13.068l12.41,7.169A21.455,21.455,0,0,1,276.491,155.627Z" transform="translate(-251.483 -138.433)" fill="#fff" opacity="0.6"/>
      <path id="Path_38374" data-name="Path 38374" d="M294.365,150.112h0V135.8h0a35.549,35.549,0,0,0-17.845,4.777l7.169,12.417A21.275,21.275,0,0,1,294.365,150.112Z" transform="translate(-258.681 -135.8)" fill="#fff" opacity="0.4"/>
      <path id="Path_38375" data-name="Path 38375" d="M314.883,152.994l7.169-12.417A35.555,35.555,0,0,0,304.2,135.8v14.312A21.275,21.275,0,0,1,314.883,152.994Z" transform="translate(-268.516 -135.8)" fill="#fff" opacity="0.2"/>
      <path id="Path_38376" data-name="Path 38376" d="M304.2,177.319l18.354-20.069,1.689,1.483-17.291,21.339Z" transform="translate(-268.516 -143.421)" fill="#263238"/>
      <path id="Path_38377" data-name="Path 38377" d="M305.682,190.834a3.3,3.3,0,1,1-3.3-3.294,3.3,3.3,0,0,1,3.3,3.294Z" transform="translate(-266.697 -154.183)" fill="#263238"/>
    </g>
    <g id="freepik--Coins--inject-99" transform="translate(77.587 209.664)">
      <circle id="Ellipse_3284" data-name="Ellipse 3284" cx="15.505" cy="15.505" r="15.505" transform="translate(29.428 51.624) rotate(-2.91)" fill="#f8951d"/>
      <path id="Path_38378" data-name="Path 38378" d="M170.2,378.819a15.473,15.473,0,1,1-5-10.777A15.473,15.473,0,0,1,170.2,378.819Z" transform="translate(-107.134 -313.244)" fill="#f8951d"/>
      <path id="Path_38379" data-name="Path 38379" d="M170.2,378.819a15.473,15.473,0,1,1-5-10.777A15.473,15.473,0,0,1,170.2,378.819Z" transform="translate(-107.134 -313.244)" fill="#fff" opacity="0.4"/>
      <path id="Path_38380" data-name="Path 38380" d="M168.425,381.1a11.6,11.6,0,1,1-3.751-8.062A11.6,11.6,0,0,1,168.425,381.1Z" transform="translate(-109.25 -315.379)" fill="#f8951d"/>
      <g id="Group_8882" data-name="Group 8882" transform="translate(41.806 57.194)" opacity="0.3">
        <path id="Path_38381" data-name="Path 38381" d="M165.243,385.276c.561,2.547-1.122,4.339-4.281,4.745l.039,2.128-1.934.084-.039-2.121a10.773,10.773,0,0,1-4.758-1.289l.767-2.431a8.858,8.858,0,0,0,3.946,1.2l-.064-3.262c-1.934-.458-4.029-1.077-4.513-3.391-.567-2.54,1.154-4.358,4.377-4.732l-.039-2.121,1.934-.084.045,2.14a9.567,9.567,0,0,1,3.784.935l-.645,2.418a7.447,7.447,0,0,0-3.088-.864l.071,3.4C162.7,382.471,164.759,383.077,165.243,385.276Zm-6.382-3.694-.045-2.779c-1.057.258-1.541.877-1.4,1.605.129.593.69.915,1.444,1.173Zm3.372,4.332c-.122-.554-.645-.883-1.373-1.1l.058,2.643C161.916,387.2,162.393,386.642,162.232,385.914Z" transform="translate(-154.27 -374)" fill="#fff"/>
      </g>
      <path id="Path_38382" data-name="Path 38382" d="M99.909,406.335c-.1,2.4,7.511,4.68,17.007,5.08s17.278-1.219,17.407-3.623-7.517-4.68-17.007-5.087S100.013,403.931,99.909,406.335Z" transform="translate(-93.149 -326.984)" fill="#f8951d"/>
      <rect id="Rectangle_5662" data-name="Rectangle 5662" width="4.358" height="34.414" transform="matrix(0.04, -1, 1, 0.04, 6.789, 78.68)" fill="#f8951d"/>
      <path id="Path_38383" data-name="Path 38383" d="M100.2,399.58c-.1,2.4,7.511,4.68,17.007,5.087s17.278-1.219,17.407-3.623-7.511-4.687-17.007-5.087S100.3,397.175,100.2,399.58Z" transform="translate(-93.252 -324.586)" fill="#f8951d"/>
      <path id="Path_38384" data-name="Path 38384" d="M100.2,399.58c-.1,2.4,7.511,4.68,17.007,5.087s17.278-1.219,17.407-3.623-7.511-4.687-17.007-5.087S100.3,397.175,100.2,399.58Z" transform="translate(-93.252 -324.586)" fill="#fff" opacity="0.4"/>
      <path id="Path_38385" data-name="Path 38385" d="M103.6,400.164a.645.645,0,0,0,.148.432c1.148-1.412,7.433-2.244,14.944-1.934s13.726,1.683,14.731,3.185a.645.645,0,0,0,.187-.413c.064-1.631-6.589-3.262-14.88-3.61S103.671,398.559,103.6,400.164Z" transform="translate(-94.46 -325.248)" fill="#f8951d"/>
      <path id="Path_38386" data-name="Path 38386" d="M103.6,400.164a.645.645,0,0,0,.148.432c1.148-1.412,7.433-2.244,14.944-1.934s13.726,1.683,14.731,3.185a.645.645,0,0,0,.187-.413c.064-1.631-6.589-3.262-14.88-3.61S103.671,398.559,103.6,400.164Z" transform="translate(-94.46 -325.248)" fill="#f8951d" opacity="0.4"/>
      <path id="Path_38387" data-name="Path 38387" d="M103.83,401.057c1.025,1.509,7.214,2.869,14.731,3.185s13.816-.509,14.944-1.934c-1.006-1.5-7.195-2.862-14.731-3.185S104.978,399.664,103.83,401.057Z" transform="translate(-94.542 -325.709)" fill="#f8951d" opacity="0.4"/>
      <path id="Path_38388" data-name="Path 38388" d="M94.309,396.105c-.1,2.4,7.511,4.68,17.007,5.087s17.271-1.225,17.375-3.63-7.511-4.68-17.007-5.087S94.413,393.7,94.309,396.105Z" transform="translate(-91.159 -323.349)" fill="#f8951d"/>
      <rect id="Rectangle_5663" data-name="Rectangle 5663" width="4.358" height="34.42" transform="translate(3.15 72.757) rotate(-87.57)" fill="#f8951d"/>
      <path id="Path_38389" data-name="Path 38389" d="M94.589,389.35c-.1,2.4,7.517,4.68,17.014,5.087s17.271-1.218,17.407-3.623S121.5,386.126,112,385.727,94.693,386.945,94.589,389.35Z" transform="translate(-91.258 -320.951)" fill="#f8951d"/>
      <path id="Path_38390" data-name="Path 38390" d="M94.589,389.35c-.1,2.4,7.517,4.68,17.014,5.087s17.271-1.218,17.407-3.623S121.5,386.126,112,385.727,94.693,386.945,94.589,389.35Z" transform="translate(-91.258 -320.951)" fill="#fff" opacity="0.4"/>
      <path id="Path_38391" data-name="Path 38391" d="M98,389.934a.645.645,0,0,0,.142.432c1.154-1.412,7.44-2.244,14.95-1.934s13.726,1.683,14.731,3.191A.645.645,0,0,0,128,391.2c.071-1.625-6.582-3.262-14.873-3.61S98.064,388.309,98,389.934Z" transform="translate(-92.47 -321.613)" fill="#f8951d"/>
      <path id="Path_38392" data-name="Path 38392" d="M98,389.934a.645.645,0,0,0,.142.432c1.154-1.412,7.44-2.244,14.95-1.934s13.726,1.683,14.731,3.191A.645.645,0,0,0,128,391.2c.071-1.625-6.582-3.262-14.873-3.61S98.064,388.309,98,389.934Z" transform="translate(-92.47 -321.613)" fill="#f8951d" opacity="0.4"/>
      <path id="Path_38393" data-name="Path 38393" d="M98.22,390.823c1.025,1.509,7.221,2.869,14.731,3.185s13.822-.509,14.95-1.934c-1.006-1.509-7.195-2.869-14.731-3.191S99.368,389.411,98.22,390.823Z" transform="translate(-92.549 -322.07)" fill="#f8951d" opacity="0.4"/>
      <path id="Path_38394" data-name="Path 38394" d="M95,383.779c-.1,2.411,7.517,4.687,17.007,5.087s17.278-1.218,17.407-3.623-7.511-4.68-17.007-5.087S95.122,381.374,95,383.779Z" transform="translate(-91.404 -318.971)" fill="#f8951d"/>
      <rect id="Rectangle_5664" data-name="Rectangle 5664" width="4.358" height="34.42" transform="translate(3.616 64.813) rotate(-87.57)" fill="#f8951d"/>
      <path id="Path_38395" data-name="Path 38395" d="M95.319,377.03c-.1,2.4,7.511,4.68,17.007,5.087s17.278-1.218,17.407-3.63-7.517-4.681-17.014-5.08S95.423,374.625,95.319,377.03Z" transform="translate(-91.518 -316.574)" fill="#f8951d"/>
      <path id="Path_38396" data-name="Path 38396" d="M95.319,377.03c-.1,2.4,7.511,4.68,17.007,5.087s17.278-1.218,17.407-3.63-7.517-4.681-17.014-5.08S95.423,374.625,95.319,377.03Z" transform="translate(-91.518 -316.574)" fill="#fff" opacity="0.4"/>
      <path id="Path_38397" data-name="Path 38397" d="M98.72,377.609a.645.645,0,0,0,.148.432c1.148-1.418,7.433-2.244,14.95-1.934s13.726,1.683,14.731,3.185a.645.645,0,0,0,.181-.413c.071-1.631-6.589-3.262-14.88-3.617S98.791,375.985,98.72,377.609Z" transform="translate(-92.726 -317.231)" fill="#f8951d"/>
      <path id="Path_38398" data-name="Path 38398" d="M98.72,377.609a.645.645,0,0,0,.148.432c1.148-1.418,7.433-2.244,14.95-1.934s13.726,1.683,14.731,3.185a.645.645,0,0,0,.181-.413c.071-1.631-6.589-3.262-14.88-3.617S98.791,375.985,98.72,377.609Z" transform="translate(-92.726 -317.231)" fill="#f8951d" opacity="0.4"/>
      <path id="Path_38399" data-name="Path 38399" d="M99,378.506c1.025,1.5,7.221,2.862,14.731,3.185s13.816-.509,14.95-1.934c-1.006-1.5-7.2-2.862-14.731-3.185S100.115,377.088,99,378.506Z" transform="translate(-92.826 -317.696)" fill="#f8951d" opacity="0.4"/>
      <path id="Path_38400" data-name="Path 38400" d="M89.429,373.555c-.1,2.4,7.511,4.681,17.007,5.08s17.278-1.218,17.375-3.623-7.511-4.68-17.007-5.087S89.533,371.144,89.429,373.555Z" transform="translate(-89.425 -315.337)" fill="#f8951d"/>
      <rect id="Rectangle_5665" data-name="Rectangle 5665" width="4.358" height="34.414" transform="translate(0 58.199) rotate(-87.57)" fill="#f8951d"/>
      <path id="Path_38401" data-name="Path 38401" d="M89.719,366.8c-.1,2.4,7.511,4.681,17.007,5.087s17.271-1.218,17.407-3.63-7.511-4.68-17.007-5.08S89.816,364.4,89.719,366.8Z" transform="translate(-89.528 -312.939)" fill="#f8951d"/>
      <path id="Path_38402" data-name="Path 38402" d="M89.719,366.8c-.1,2.4,7.511,4.681,17.007,5.087s17.271-1.218,17.407-3.63-7.511-4.68-17.007-5.08S89.816,364.4,89.719,366.8Z" transform="translate(-89.528 -312.939)" fill="#fff" opacity="0.4"/>
      <path id="Path_38403" data-name="Path 38403" d="M93.12,367.379a.645.645,0,0,0,.142.432c1.154-1.418,7.44-2.244,14.95-1.934s13.726,1.683,14.731,3.185a.645.645,0,0,0,.181-.413c.071-1.631-6.582-3.262-14.873-3.617S93.184,365.755,93.12,367.379Z" transform="translate(-90.736 -313.596)" fill="#f8951d"/>
      <path id="Path_38404" data-name="Path 38404" d="M93.12,367.379a.645.645,0,0,0,.142.432c1.154-1.418,7.44-2.244,14.95-1.934s13.726,1.683,14.731,3.185a.645.645,0,0,0,.181-.413c.071-1.631-6.582-3.262-14.873-3.617S93.184,365.755,93.12,367.379Z" transform="translate(-90.736 -313.596)" fill="#f8951d" opacity="0.4"/>
      <path id="Path_38405" data-name="Path 38405" d="M93.34,368.276c1.032,1.5,7.221,2.862,14.731,3.185s13.822-.509,14.95-1.934c-1.006-1.5-7.195-2.862-14.731-3.185S94.494,366.858,93.34,368.276Z" transform="translate(-90.815 -314.061)" fill="#f8951d" opacity="0.4"/>
      <path id="Path_38406" data-name="Path 38406" d="M98,364.885c-.1,2.4,7.511,4.68,17.007,5.08s17.271-1.219,17.375-3.623-7.511-4.681-17.007-5.087S98.09,362.474,98,364.885Z" transform="translate(-92.47 -312.256)" fill="#f8951d"/>
      <rect id="Rectangle_5666" data-name="Rectangle 5666" width="4.358" height="34.414" transform="translate(5.519 52.623) rotate(-87.57)" fill="#f8951d"/>
      <path id="Path_38407" data-name="Path 38407" d="M98.269,358.13c-.1,2.4,7.511,4.681,17.007,5.087s17.278-1.218,17.407-3.63-7.511-4.68-17.007-5.08S98.373,355.725,98.269,358.13Z" transform="translate(-92.566 -309.859)" fill="#f8951d"/>
      <path id="Path_38408" data-name="Path 38408" d="M98.269,358.13c-.1,2.4,7.511,4.681,17.007,5.087s17.278-1.218,17.407-3.63-7.511-4.68-17.007-5.08S98.373,355.725,98.269,358.13Z" transform="translate(-92.566 -309.859)" fill="#fff" opacity="0.4"/>
      <path id="Path_38409" data-name="Path 38409" d="M101.67,358.67a.645.645,0,0,0,.148.432c1.148-1.418,7.44-2.244,14.95-1.934s13.726,1.683,14.731,3.185a.645.645,0,0,0,.181-.413c.071-1.631-6.582-3.262-14.88-3.617S101.741,357.071,101.67,358.67Z" transform="translate(-93.774 -310.502)" fill="#f8951d"/>
      <path id="Path_38410" data-name="Path 38410" d="M101.67,358.67a.645.645,0,0,0,.148.432c1.148-1.418,7.44-2.244,14.95-1.934s13.726,1.683,14.731,3.185a.645.645,0,0,0,.181-.413c.071-1.631-6.582-3.262-14.88-3.617S101.741,357.071,101.67,358.67Z" transform="translate(-93.774 -310.502)" fill="#f8951d" opacity="0.4"/>
      <path id="Path_38411" data-name="Path 38411" d="M101.9,359.606c1.025,1.5,7.221,2.862,14.731,3.185s13.822-.509,14.95-1.934c-1.006-1.5-7.2-2.862-14.731-3.185S103.048,358.188,101.9,359.606Z" transform="translate(-93.856 -310.98)" fill="#f8951d" opacity="0.4"/>
      <path id="Path_38412" data-name="Path 38412" d="M92.379,354.656c-.1,2.4,7.511,4.681,17.007,5.08s17.278-1.218,17.407-3.623-7.511-4.68-17.007-5.087S92.483,352.277,92.379,354.656Z" transform="translate(-90.473 -308.622)" fill="#f8951d"/>
      <rect id="Rectangle_5667" data-name="Rectangle 5667" width="4.358" height="34.414" transform="translate(1.903 46.022) rotate(-87.57)" fill="#f8951d"/>
      <path id="Path_38413" data-name="Path 38413" d="M92.669,347.9c-.1,2.4,7.511,4.681,17.007,5.087s17.278-1.218,17.407-3.623-7.517-4.687-17.014-5.087S92.773,345.5,92.669,347.9Z" transform="translate(-90.576 -306.224)" fill="#f8951d"/>
      <path id="Path_38414" data-name="Path 38414" d="M92.669,347.9c-.1,2.4,7.511,4.681,17.007,5.087s17.278-1.218,17.407-3.623-7.517-4.687-17.014-5.087S92.773,345.5,92.669,347.9Z" transform="translate(-90.576 -306.224)" fill="#fff" opacity="0.4"/>
      <path id="Path_38415" data-name="Path 38415" d="M96.07,348.484a.645.645,0,0,0,.148.432c1.148-1.418,7.433-2.244,14.944-1.934s13.732,1.683,14.738,3.185a.645.645,0,0,0,.181-.413c.064-1.631-6.589-3.262-14.88-3.61S96.141,346.859,96.07,348.484Z" transform="translate(-91.785 -306.885)" fill="#f8951d"/>
      <path id="Path_38416" data-name="Path 38416" d="M96.07,348.484a.645.645,0,0,0,.148.432c1.148-1.418,7.433-2.244,14.944-1.934s13.732,1.683,14.738,3.185a.645.645,0,0,0,.181-.413c.064-1.631-6.589-3.262-14.88-3.61S96.141,346.859,96.07,348.484Z" transform="translate(-91.785 -306.885)" fill="#f8951d" opacity="0.4"/>
      <path id="Path_38417" data-name="Path 38417" d="M96.3,349.376c1.025,1.509,7.221,2.869,14.731,3.185s13.816-.509,14.95-1.934c-1.006-1.5-7.2-2.862-14.738-3.185S97.448,347.958,96.3,349.376Z" transform="translate(-91.867 -307.346)" fill="#f8951d" opacity="0.4"/>
      <path id="Path_38418" data-name="Path 38418" d="M132.333,347.389c.1,2.411-7.511,4.687-17.007,5.087s-17.278-1.218-17.407-3.623,7.511-4.68,17.007-5.087S132.23,344.984,132.333,347.389Z" transform="translate(-92.441 -306.042)" fill="#f8951d"/>
      <rect id="Rectangle_5668" data-name="Rectangle 5668" width="34.414" height="4.358" transform="matrix(1, -0.04, 0.04, 1, 4.841, 38.812)" fill="#f8951d"/>
      <path id="Path_38419" data-name="Path 38419" d="M132.051,340.64c.1,2.4-7.511,4.68-17.007,5.087s-17.278-1.218-17.375-3.63,7.511-4.68,17.007-5.08S131.954,338.235,132.051,340.64Z" transform="translate(-92.353 -303.644)" fill="#f8951d"/>
      <path id="Path_38420" data-name="Path 38420" d="M132.051,340.64c.1,2.4-7.511,4.68-17.007,5.087s-17.278-1.218-17.375-3.63,7.511-4.68,17.007-5.08S131.954,338.235,132.051,340.64Z" transform="translate(-92.353 -303.644)" fill="#fff" opacity="0.4"/>
      <path id="Path_38421" data-name="Path 38421" d="M131.07,341.219a.645.645,0,0,1-.148.432c-1.148-1.418-7.433-2.244-14.944-1.934s-13.732,1.683-14.731,3.185a.645.645,0,0,1-.187-.413c-.064-1.631,6.589-3.262,14.88-3.617S131,339.575,131.07,341.219Z" transform="translate(-93.558 -304.301)" fill="#f8951d"/>
      <path id="Path_38422" data-name="Path 38422" d="M131.07,341.219a.645.645,0,0,1-.148.432c-1.148-1.418-7.433-2.244-14.944-1.934s-13.732,1.683-14.731,3.185a.645.645,0,0,1-.187-.413c-.064-1.631,6.589-3.262,14.88-3.617S131,339.575,131.07,341.219Z" transform="translate(-93.558 -304.301)" fill="#f8951d" opacity="0.4"/>
      <path id="Path_38423" data-name="Path 38423" d="M131.025,342.116c-1.025,1.5-7.214,2.862-14.731,3.185s-13.816-.509-14.944-1.934c1-1.5,7.195-2.862,14.731-3.185S129.878,340.685,131.025,342.116Z" transform="translate(-93.661 -304.766)" fill="#f8951d" opacity="0.4"/>
      <path id="Path_38424" data-name="Path 38424" d="M137.933,337.165c.1,2.4-7.511,4.68-17.007,5.08s-17.271-1.218-17.407-3.623,7.511-4.68,17.007-5.087S137.83,334.754,137.933,337.165Z" transform="translate(-94.431 -302.407)" fill="#f8951d"/>
      <rect id="Rectangle_5669" data-name="Rectangle 5669" width="34.42" height="4.358" transform="translate(8.94 31.861) rotate(-2.43)" fill="#f8951d"/>
      <path id="Path_38425" data-name="Path 38425" d="M137.667,330.41c.1,2.4-7.517,4.68-17.014,5.087s-17.271-1.218-17.375-3.63,7.511-4.681,17.007-5.08S137.564,328.005,137.667,330.41Z" transform="translate(-94.346 -300.01)" fill="#f8951d"/>
      <path id="Path_38426" data-name="Path 38426" d="M137.667,330.41c.1,2.4-7.517,4.68-17.014,5.087s-17.271-1.218-17.375-3.63,7.511-4.681,17.007-5.08S137.564,328.005,137.667,330.41Z" transform="translate(-94.346 -300.01)" fill="#fff" opacity="0.4"/>
      <path id="Path_38427" data-name="Path 38427" d="M136.674,330.989a.645.645,0,0,1-.142.432c-1.154-1.418-7.44-2.244-14.951-1.934s-13.726,1.683-14.731,3.185a.645.645,0,0,1-.181-.413c-.071-1.631,6.582-3.262,14.873-3.617S136.609,329.365,136.674,330.989Z" transform="translate(-95.551 -300.667)" fill="#f8951d"/>
      <path id="Path_38428" data-name="Path 38428" d="M136.674,330.989a.645.645,0,0,1-.142.432c-1.154-1.418-7.44-2.244-14.951-1.934s-13.726,1.683-14.731,3.185a.645.645,0,0,1-.181-.413c-.071-1.631,6.582-3.262,14.873-3.617S136.609,329.365,136.674,330.989Z" transform="translate(-95.551 -300.667)" fill="#f8951d" opacity="0.4"/>
      <path id="Path_38429" data-name="Path 38429" d="M136.642,331.9c-1.025,1.5-7.221,2.862-14.731,3.185s-13.822-.509-14.95-1.934c1.006-1.5,7.195-2.862,14.731-3.185S135.481,330.471,136.642,331.9Z" transform="translate(-95.654 -301.135)" fill="#f8951d" opacity="0.4"/>
      <path id="Path_38430" data-name="Path 38430" d="M137.213,324.84c.1,2.4-7.517,4.687-17.007,5.087s-17.278-1.218-17.407-3.623,7.511-4.687,17.007-5.087S137.1,322.435,137.213,324.84Z" transform="translate(-94.175 -298.031)" fill="#f8951d"/>
      <rect id="Rectangle_5670" data-name="Rectangle 5670" width="34.42" height="4.358" transform="translate(8.462 23.919) rotate(-2.43)" fill="#f8951d"/>
      <path id="Path_38431" data-name="Path 38431" d="M136.923,318.085c.1,2.4-7.511,4.681-17.007,5.087s-17.278-1.225-17.407-3.63,7.517-4.68,17.007-5.087S136.82,315.681,136.923,318.085Z" transform="translate(-94.072 -295.628)" fill="#f8951d"/>
      <path id="Path_38432" data-name="Path 38432" d="M136.923,318.085c.1,2.4-7.511,4.681-17.007,5.087s-17.278-1.225-17.407-3.63,7.517-4.68,17.007-5.087S136.82,315.681,136.923,318.085Z" transform="translate(-94.072 -295.628)" fill="#fff" opacity="0.4"/>
      <path id="Path_38433" data-name="Path 38433" d="M135.95,318.669a.69.69,0,0,1-.148.432c-1.148-1.418-7.433-2.25-14.95-1.934s-13.726,1.683-14.731,3.185a.683.683,0,0,1-.181-.413c-.071-1.631,6.589-3.262,14.88-3.617S135.879,317.038,135.95,318.669Z" transform="translate(-95.291 -296.289)" fill="#f8951d"/>
      <path id="Path_38434" data-name="Path 38434" d="M135.95,318.669a.69.69,0,0,1-.148.432c-1.148-1.418-7.433-2.25-14.95-1.934s-13.726,1.683-14.731,3.185a.683.683,0,0,1-.181-.413c-.071-1.631,6.589-3.262,14.88-3.617S135.879,317.038,135.95,318.669Z" transform="translate(-95.291 -296.289)" fill="#f8951d" opacity="0.4"/>
      <path id="Path_38435" data-name="Path 38435" d="M135.9,319.567c-1.025,1.5-7.221,2.862-14.731,3.185s-13.816-.509-14.95-1.934c1.006-1.5,7.2-2.869,14.731-3.185S134.754,318.149,135.9,319.567Z" transform="translate(-95.391 -296.755)" fill="#f8951d" opacity="0.4"/>
      <path id="Path_38436" data-name="Path 38436" d="M142.813,314.609c.1,2.4-7.511,4.687-17.007,5.087s-17.278-1.218-17.407-3.623,7.517-4.68,17.014-5.087S142.71,312.2,142.813,314.609Z" transform="translate(-96.165 -294.395)" fill="#f8951d"/>
      <rect id="Rectangle_5671" data-name="Rectangle 5671" width="34.414" height="4.358" transform="translate(12.066 17.325) rotate(-2.43)" fill="#f8951d"/>
      <path id="Path_38437" data-name="Path 38437" d="M142.523,307.855c.1,2.4-7.511,4.68-17.007,5.087s-17.271-1.225-17.407-3.63,7.511-4.681,17.007-5.087S142.426,305.451,142.523,307.855Z" transform="translate(-96.062 -291.993)" fill="#f8951d"/>
      <path id="Path_38438" data-name="Path 38438" d="M142.523,307.855c.1,2.4-7.511,4.68-17.007,5.087s-17.271-1.225-17.407-3.63,7.511-4.681,17.007-5.087S142.426,305.451,142.523,307.855Z" transform="translate(-96.062 -291.993)" fill="#fff" opacity="0.4"/>
      <path id="Path_38439" data-name="Path 38439" d="M141.554,308.439a.645.645,0,0,1-.142.432c-1.154-1.418-7.44-2.25-14.95-1.934s-13.726,1.683-14.731,3.185a.645.645,0,0,1-.181-.413c-.071-1.631,6.582-3.262,14.873-3.617S141.5,306.815,141.554,308.439Z" transform="translate(-97.285 -292.654)" fill="#f8951d"/>
      <path id="Path_38440" data-name="Path 38440" d="M141.554,308.439a.645.645,0,0,1-.142.432c-1.154-1.418-7.44-2.25-14.95-1.934s-13.726,1.683-14.731,3.185a.645.645,0,0,1-.181-.413c-.071-1.631,6.582-3.262,14.873-3.617S141.5,306.815,141.554,308.439Z" transform="translate(-97.285 -292.654)" fill="#f8951d" opacity="0.4"/>
      <path id="Path_38441" data-name="Path 38441" d="M141.512,309.336c-1.032,1.5-7.221,2.862-14.731,3.185s-13.822-.509-14.95-1.934c1.006-1.5,7.195-2.862,14.731-3.185S140.358,307.918,141.512,309.336Z" transform="translate(-97.384 -293.119)" fill="#f8951d" opacity="0.4"/>
      <path id="Path_38442" data-name="Path 38442" d="M134.271,305.969c.1,2.4-7.511,4.687-17.007,5.087s-17.271-1.218-17.375-3.623,7.511-4.68,17.007-5.087S134.174,303.545,134.271,305.969Z" transform="translate(-93.142 -291.325)" fill="#f8951d"/>
      <rect id="Rectangle_5672" data-name="Rectangle 5672" width="34.42" height="4.358" transform="translate(6.561 11.73) rotate(-2.43)" fill="#f8951d"/>
      <path id="Path_38443" data-name="Path 38443" d="M133.973,299.185c.1,2.4-7.517,4.681-17.007,5.087s-17.278-1.225-17.407-3.63,7.511-4.68,17.007-5.087S133.87,296.781,133.973,299.185Z" transform="translate(-93.024 -288.913)" fill="#f8951d"/>
      <path id="Path_38444" data-name="Path 38444" d="M133.973,299.185c.1,2.4-7.517,4.681-17.007,5.087s-17.278-1.225-17.407-3.63,7.511-4.68,17.007-5.087S133.87,296.781,133.973,299.185Z" transform="translate(-93.024 -288.913)" fill="#fff" opacity="0.4"/>
      <path id="Path_38445" data-name="Path 38445" d="M133,299.769a.716.716,0,0,1-.148.432c-1.154-1.418-7.44-2.25-14.95-1.934s-13.726,1.683-14.731,3.185a.645.645,0,0,1-.181-.413c-.071-1.631,6.582-3.262,14.88-3.617S132.929,298.145,133,299.769Z" transform="translate(-94.243 -289.574)" fill="#f8951d"/>
      <path id="Path_38446" data-name="Path 38446" d="M133,299.769a.716.716,0,0,1-.148.432c-1.154-1.418-7.44-2.25-14.95-1.934s-13.726,1.683-14.731,3.185a.645.645,0,0,1-.181-.413c-.071-1.631,6.582-3.262,14.88-3.617S132.929,298.145,133,299.769Z" transform="translate(-94.243 -289.574)" fill="#f8951d" opacity="0.4"/>
      <path id="Path_38447" data-name="Path 38447" d="M132.952,300.666c-1.025,1.5-7.221,2.862-14.731,3.185s-13.822-.509-14.95-1.934c1.006-1.5,7.2-2.862,14.731-3.185S131.8,299.248,132.952,300.666Z" transform="translate(-94.343 -290.039)" fill="#f8951d" opacity="0.4"/>
      <path id="Path_38448" data-name="Path 38448" d="M139.863,295.709c.1,2.411-7.511,4.687-17.007,5.087s-17.278-1.218-17.407-3.623,7.511-4.68,17.007-5.087S139.76,293.3,139.863,295.709Z" transform="translate(-95.117 -287.68)" fill="#f8951d"/>
      <rect id="Rectangle_5673" data-name="Rectangle 5673" width="34.414" height="4.358" transform="translate(10.165 5.142) rotate(-2.43)" fill="#f8951d"/>
      <path id="Path_38449" data-name="Path 38449" d="M139.573,288.97c.1,2.4-7.511,4.68-17.007,5.087s-17.278-1.219-17.407-3.63,7.517-4.68,17.014-5.08S139.47,286.559,139.573,288.97Z" transform="translate(-95.014 -285.286)" fill="#f8951d"/>
      <path id="Path_38450" data-name="Path 38450" d="M139.573,288.97c.1,2.4-7.511,4.68-17.007,5.087s-17.278-1.219-17.407-3.63,7.517-4.68,17.014-5.08S139.47,286.559,139.573,288.97Z" transform="translate(-95.014 -285.286)" fill="#fff" opacity="0.4"/>
      <path id="Path_38451" data-name="Path 38451" d="M138.6,289.539a.645.645,0,0,1-.148.432c-1.148-1.418-7.433-2.244-14.944-1.934s-13.732,1.683-14.738,3.185a.645.645,0,0,1-.181-.413c-.064-1.631,6.589-3.262,14.88-3.617S138.51,287.915,138.6,289.539Z" transform="translate(-96.233 -285.939)" fill="#f8951d"/>
      <path id="Path_38452" data-name="Path 38452" d="M138.6,289.539a.645.645,0,0,1-.148.432c-1.148-1.418-7.433-2.244-14.944-1.934s-13.732,1.683-14.738,3.185a.645.645,0,0,1-.181-.413c-.064-1.631,6.589-3.262,14.88-3.617S138.51,287.915,138.6,289.539Z" transform="translate(-96.233 -285.939)" fill="#f8951d" opacity="0.4"/>
      <path id="Path_38453" data-name="Path 38453" d="M138.552,290.436c-1.025,1.5-7.221,2.862-14.731,3.185s-13.816-.509-14.95-1.934c1.006-1.5,7.2-2.862,14.738-3.185S137.4,289.018,138.552,290.436Z" transform="translate(-96.333 -286.404)" fill="#f8951d" opacity="0.4"/>
    </g>
    <g id="freepik--Profile--inject-99" transform="translate(70.319 72.45)">
      <path id="Path_38454" data-name="Path 38454" d="M168.994,189.913H84.307L78.15,72.45h84.694Z" transform="translate(-78.15 -72.45)" fill="#f8951d"/>
      <g id="Group_8883" data-name="Group 8883" transform="translate(0)" opacity="0.6">
        <path id="Path_38455" data-name="Path 38455" d="M168.994,189.913H84.307L78.15,72.45h84.694Z" transform="translate(-78.15 -72.45)" fill="#fff"/>
      </g>
      <path id="Path_38456" data-name="Path 38456" d="M133.215,193.89H99.046a.754.754,0,0,0-.767.806h0a.857.857,0,0,0,.851.806H133.3a.754.754,0,0,0,.767-.806h0a.857.857,0,0,0-.851-.806Z" transform="translate(-85.301 -115.598)" fill="#263238"/>
      <path id="Path_38457" data-name="Path 38457" d="M124.339,184.25H98.506a.767.767,0,0,0-.767.812h0a.864.864,0,0,0,.851.806H124.43a.761.761,0,0,0,.767-.806h0a.864.864,0,0,0-.857-.812Z" transform="translate(-85.11 -112.173)" fill="#263238"/>
      <path id="Path_38458" data-name="Path 38458" d="M134.435,217.1H100.266a.761.761,0,0,0-.767.806h0a.864.864,0,0,0,.851.812h34.169a.761.761,0,0,0,.767-.812h0A.864.864,0,0,0,134.435,217.1Z" transform="translate(-85.735 -123.845)" fill="#263238"/>
      <path id="Path_38459" data-name="Path 38459" d="M125.58,207.47H99.741a.761.761,0,0,0-.741.806h0a.864.864,0,0,0,.851.806H125.69a.761.761,0,0,0,.767-.806h0A.864.864,0,0,0,125.58,207.47Z" transform="translate(-85.557 -120.423)" fill="#263238"/>
      <path id="Path_38460" data-name="Path 38460" d="M135.655,240.31H101.486a.767.767,0,0,0-.767.812h0a.864.864,0,0,0,.851.806h34.169a.761.761,0,0,0,.767-.806h0a.87.87,0,0,0-.851-.812Z" transform="translate(-86.168 -132.091)" fill="#263238"/>
      <path id="Path_38461" data-name="Path 38461" d="M126.779,230.68H100.94a.754.754,0,0,0-.761.806h0a.857.857,0,0,0,.851.812h25.833a.754.754,0,0,0,.767-.812h0A.857.857,0,0,0,126.779,230.68Z" transform="translate(-85.976 -128.67)" fill="#263238"/>
      <path id="Path_38462" data-name="Path 38462" d="M197.965,190.662h-6.208a.471.471,0,0,1-.464-.438l-.322-6.215a.413.413,0,0,1,.413-.438H197.6a.464.464,0,0,1,.458.438l.329,6.215a.413.413,0,0,1-.419.438Zm-5.8-.883h5.332l-.277-5.332h-5.332Z" transform="translate(-118.235 -111.931)" fill="#f8951d"/>
      <path id="Path_38463" data-name="Path 38463" d="M199.245,215.092h-6.208a.471.471,0,0,1-.464-.445l-.322-6.208a.413.413,0,0,1,.413-.438h6.215a.471.471,0,0,1,.464.438l.322,6.208a.419.419,0,0,1-.419.445Zm-5.8-.883h5.332l-.277-5.332h-5.332Z" transform="translate(-118.69 -120.612)" fill="#f8951d"/>
      <path id="Path_38464" data-name="Path 38464" d="M200.465,238.342h-6.208a.471.471,0,0,1-.464-.438l-.322-6.215a.413.413,0,0,1,.413-.438H200.1a.471.471,0,0,1,.458.438l.329,6.215a.413.413,0,0,1-.419.438Zm-5.8-.877h5.332l-.277-5.332h-5.338Z" transform="translate(-119.123 -128.872)" fill="#f8951d"/>
      <path id="Path_38465" data-name="Path 38465" d="M157.085,135.3h-28.65L126.72,102.51h28.65Z" transform="translate(-95.407 -83.13)" fill="#fff"/>
      <path id="Path_38466" data-name="Path 38466" d="M195.461,188.254h0a.941.941,0,0,1-.645-.3l-1.7-1.863a.861.861,0,1,1,1.289-1.141l1.025,1.115,3.868-4.307a.9.9,0,0,1,1.341,1.212l-4.513,5.009a.832.832,0,0,1-.67.277Z" transform="translate(-118.923 -111.181)" fill="#f8951d"/>
      <path id="Path_38467" data-name="Path 38467" d="M196.74,212.69h0a.941.941,0,0,1-.645-.3l-1.7-1.857a.863.863,0,1,1,1.289-1.148l.954,1.1,3.868-4.307a.9.9,0,0,1,1.341,1.206l-4.513,5.016a.851.851,0,0,1-.6.3Z" transform="translate(-119.376 -119.866)" fill="#f8951d"/>
      <path id="Path_38468" data-name="Path 38468" d="M197.946,236.274h0a.928.928,0,0,1-.645-.3l-1.7-1.857a.864.864,0,0,1,0-1.238.883.883,0,0,1,1.244.09l1.025,1.122,3.868-4.307a.9.9,0,0,1,1.341,1.206L198.572,236a.825.825,0,0,1-.625.271Z" transform="translate(-119.79 -128.255)" fill="#f8951d"/>
      <path id="Path_38469" data-name="Path 38469" d="M157.6,160H130.576a.761.761,0,0,0-.767.806h0a.864.864,0,0,0,.851.812H157.7a.767.767,0,0,0,.767-.812h0A.864.864,0,0,0,157.6,160Z" transform="translate(-96.504 -103.557)" fill="#263238"/>
      <path id="Path_38470" data-name="Path 38470" d="M143.7,168.33H131a.761.761,0,0,0-.767.806h0a.87.87,0,0,0,.851.812h12.707a.761.761,0,0,0,.767-.812h0A.857.857,0,0,0,143.7,168.33Z" transform="translate(-96.654 -106.517)" fill="#263238"/>
      <path id="Path_38471" data-name="Path 38471" d="M155.289,85H121.12a.761.761,0,0,0-.761.812h0a.857.857,0,0,0,.851.806h34.169a.754.754,0,0,0,.767-.806h0A.87.87,0,0,0,155.289,85Z" transform="translate(-93.146 -76.909)" fill="#263238"/>
      <ellipse id="Ellipse_3285" data-name="Ellipse 3285" cx="5.693" cy="6.002" rx="5.693" ry="6.002" transform="translate(38.207 35.336) rotate(-45.75)" fill="#f8951d"/>
      <path id="Path_38472" data-name="Path 38472" d="M156.372,147.575H134.994a10.031,10.031,0,0,1,10.128-10.515,11.385,11.385,0,0,1,11.224,10.515Z" transform="translate(-98.343 -95.406)" fill="#f8951d"/>
    </g>
  </g>
</svg>
