<svg xmlns="http://www.w3.org/2000/svg" width="250" height="225.44" viewBox="0 0 250 225.44"><g transform="translate(-6.279 -42.702)"><g transform="translate(6.279 123.764)"><path d="M42.89,221.907c-48.817,28.209-48.812,73.856,0,102.065s127.961,28.209,176.778,0,48.812-73.856,0-102.065S91.707,193.7,42.89,221.907Z" transform="translate(-6.279 -200.75)" fill="#fafafa"/></g><g transform="translate(11.275 121.631)"><path d="M325.427,200.843c9.806,5.642,9.806,14.843,0,20.516s-25.706,5.642-35.513,0-9.806-14.843,0-20.516S315.611,195.181,325.427,200.843Z" transform="translate(-145.854 -196.592)" fill="#e0e0e0"/><ellipse cx="32.276" cy="18.633" rx="32.276" ry="18.633" transform="translate(169.029 61.228)" fill="#e0e0e0"/><ellipse cx="32.276" cy="18.633" rx="32.276" ry="18.633" transform="translate(87.73 102.582)" fill="#e0e0e0"/><ellipse cx="32.276" cy="18.633" rx="32.276" ry="18.633" transform="translate(0 61.228)" fill="#e0e0e0"/><path d="M205.6,237.866l-78.642,45.4L66.6,248.416l78.642-45.4Z" transform="translate(-40.658 -199.723)" fill="#e0e0e0"/></g><g transform="translate(7.115 123.734)"><path d="M41,227.72q-3.283,2.354-6.155,4.837a51.592,51.592,0,0,0-4.914-13.335,101.066,101.066,0,0,0-7.37-10.976c-4.483-6.155,2.282-9.36,7.693-6.493s8.232,7.929,9.694,16.664C40.334,220.766,40.877,224.925,41,227.72Z" transform="translate(-14.335 -200.692)" fill="#e0e0e0"/><path d="M31.614,205.761a.328.328,0,0,0-.456.072.318.318,0,0,0,.072.456c5.929,4.354,10.909,12.068,11.976,25.845.21-.149.415-.323.626-.472C42.671,217.886,37.578,210.141,31.614,205.761Z" transform="translate(-19.202 -203.131)" fill="#fff"/><path d="M31.549,244.8a78.062,78.062,0,0,0-12.458,12,4.382,4.382,0,0,1-2.046-3.185A9.688,9.688,0,0,0,16.6,250.6c-.626-1.216-2.113-1.657-3.436-2.005s-2.806-.846-3.344-2.1a4.506,4.506,0,0,1,.38-3.621c.544-1.016,1.318-2.123,1.123-3.339a4.931,4.931,0,0,0-1.785-2.523,4.139,4.139,0,0,1-1.626-2.6,2.9,2.9,0,0,1,1.328-2.4,5.493,5.493,0,0,1,4.78-.559c1.621.513,3.077,1.5,4.616,2.154s3.221.077,4.852.426h.072c1.61.359,3.3.995,3.877,2.708s-.149,3.744.836,5.237a6.957,6.957,0,0,0,2.293,1.734,2.857,2.857,0,0,1,.944.985.636.636,0,0,1,.041.113Z" transform="translate(-7.91 -215.522)" fill="#f0f0f0"/><path d="M27.575,245.361a.169.169,0,0,0-.072-.1,25.471,25.471,0,0,0-12.715-10.042.231.231,0,0,0-.287.164.236.236,0,0,0,.164.292,25,25,0,0,1,12.089,9.288,13.033,13.033,0,0,0-10.422.39.241.241,0,0,0-.092.323.246.246,0,0,0,.19.118.21.21,0,0,0,.133-.036,12.622,12.622,0,0,1,10.642-.118,21.777,21.777,0,0,1,2.349,5.534c.128-.118.292-.277.426-.39a22.09,22.09,0,0,0-2.405-5.426Z" transform="translate(-11.116 -217.507)" fill="#fff"/><g transform="translate(226.385 3.203)"><path d="M468.251,214.334c-2.421,3.98-6.924,6.334-10.15,13.622a36.032,36.032,0,0,0-2.052,6.2,52.765,52.765,0,0,0-1.026,5.365c-.7-.687-1.416-1.375-2.159-2.052q-1.708-1.569-3.565-3.077a47.7,47.7,0,0,1,2.564-15.089c2.688-7.693,8.134-11.622,11.581-12.253C467.3,206.333,471.411,209.144,468.251,214.334Z" transform="translate(-449.3 -206.937)" fill="#e0e0e0"/><path d="M466.637,212.645c-5.416,4.052-11.894,14.623-11.714,27.029l-.513-.436c0-12.35,6.473-22.839,11.9-26.906a.272.272,0,0,1,.344,0,.195.195,0,0,1-.015.313Z" transform="translate(-451.789 -209.535)" fill="#fff"/><path d="M465,251.6a27.782,27.782,0,0,0-4.57,5.237c-.646-.687-1.313-1.375-2-2.052s-1.416-1.375-2.159-2.052a22.126,22.126,0,0,1,5.226-9.514,17.1,17.1,0,0,1,3.436-2.913c3.488-2.113,8.565-3.231,9.694,0S469.467,247.476,465,251.6Z" transform="translate(-452.695 -222.205)" fill="#f0f0f0"/><path d="M472.5,241.387c-3.544,1.421-10.217,8.134-12.786,14.489l-.38-.364c2.667-6.442,9.309-13.033,12.981-14.5a.246.246,0,0,1,.318.1.21.21,0,0,1-.133.282Z" transform="translate(-454.186 -223.521)" fill="#fff"/></g></g><g transform="translate(130.418 42.702)"><g transform="translate(0)"><path d="M389.7,199.89c.113,7.693-6.437,11.745-14.361,11.745s-14.387-4.057-14.387-11.745Z" transform="translate(-303.182 -119.27)" fill="#e0e0e0"/><path d="M385.494,197.874c5.616-3.247,5.616-8.5,0-11.745s-14.725-3.247-20.346,0-5.616,8.5,0,11.745S379.873,201.116,385.494,197.874Z" transform="translate(-303.174 -111.382)" fill="#fafafa"/><path d="M375.335,184.213a20.186,20.186,0,0,1,9.914,2.359c2.564,1.477,3.954,3.406,3.954,5.432s-1.405,3.954-3.954,5.426a21.978,21.978,0,0,1-19.833,0c-2.564-1.472-3.954-3.4-3.954-5.426s1.405-3.954,3.954-5.432a20,20,0,0,1,9.919-2.359m0-.513a20.82,20.82,0,0,0-10.176,2.431c-5.616,3.241-5.616,8.5,0,11.745a22.5,22.5,0,0,0,20.346,0c5.616-3.247,5.616-8.5,0-11.745A20.814,20.814,0,0,0,375.335,183.7Z" transform="translate(-303.181 -111.383)" fill="#e6e6e6"/><path d="M388.445,203.783a22.834,22.834,0,0,1-18.88,0c-1.918-2.262-1.257-5.072,2.005-6.955a16.417,16.417,0,0,1,14.874,0C389.7,198.711,390.363,201.516,388.445,203.783Z" transform="translate(-306.858 -116.911)" fill="#f0f0f0"/><path d="M392.439,177.206h0a.251.251,0,0,0,.231-.272l-3.713-40.349a.251.251,0,0,0-.272-.226.246.246,0,0,0-.226.272l3.713,40.349a.246.246,0,0,0,.267.226Z" transform="translate(-316.581 -88.323)" fill="#e0e0e0"/><path d="M361.671,167.043a.251.251,0,0,0,.226-.149l13.889-30.163a.251.251,0,1,0-.457-.21l-13.884,30.168a.241.241,0,0,0,.118.328A.277.277,0,0,0,361.671,167.043Z" transform="translate(-303.411 -88.331)" fill="#e0e0e0"/><path d="M398.911,163.327a.18.18,0,0,0,.087,0,.246.246,0,0,0,.144-.323l-10.171-26.45a.251.251,0,1,0-.467.18l10.171,26.45A.251.251,0,0,0,398.911,163.327Z" transform="translate(-316.591 -88.328)" fill="#e0e0e0"/><path d="M277.108,134.73c.108,7.693-6.442,11.745-14.387,11.745s-14.361-4.052-14.361-11.745Z" transform="translate(-248.338 -87.53)" fill="#e0e0e0"/><path d="M272.871,132.716c5.642-3.241,5.642-8.5,0-11.745s-14.725-3.241-20.341,0-5.616,8.5,0,11.745S267.255,135.958,272.871,132.716Z" transform="translate(-248.318 -79.643)" fill="#fafafa"/><path d="M262.7,119.053a20.1,20.1,0,0,1,9.914,2.364c2.564,1.472,3.96,3.4,3.96,5.426s-1.405,3.954-3.96,5.426a21.967,21.967,0,0,1-19.828,0c-2.564-1.472-3.954-3.4-3.954-5.426s1.405-3.954,3.954-5.426a19.993,19.993,0,0,1,9.914-2.364m0-.513a20.814,20.814,0,0,0-10.171,2.431c-5.616,3.241-5.616,8.5,0,11.745a22.49,22.49,0,0,0,20.341,0c5.642-3.241,5.642-8.5,0-11.745A20.786,20.786,0,0,0,262.7,118.54Z" transform="translate(-248.318 -79.643)" fill="#e6e6e6"/><path d="M275.825,138.627a22.834,22.834,0,0,1-18.88,0c-1.918-2.262-1.257-5.073,2.005-6.955a16.449,16.449,0,0,1,14.874,0C277.081,133.539,277.743,136.365,275.825,138.627Z" transform="translate(-252 -85.175)" fill="#f0f0f0"/><path d="M279.819,112.076h0a.246.246,0,0,0,.226-.272l-3.708-40.349a.256.256,0,0,0-.272-.226.246.246,0,0,0-.226.272l3.708,40.349A.256.256,0,0,0,279.819,112.076Z" transform="translate(-261.723 -56.598)" fill="#e0e0e0"/><path d="M249.044,101.873a.241.241,0,0,0,.226-.144l13.894-30.168a.251.251,0,0,0-.457-.21l-13.889,30.168a.251.251,0,0,0,.123.333.231.231,0,0,0,.1.021Z" transform="translate(-248.55 -56.586)" fill="#e0e0e0"/><path d="M286.295,98.172a.2.2,0,0,0,.092,0,.246.246,0,0,0,.144-.323L276.36,71.378a.251.251,0,0,0-.323-.144.246.246,0,0,0-.144.323l10.171,26.45a.246.246,0,0,0,.231.164Z" transform="translate(-261.741 -56.593)" fill="#e0e0e0"/><path d="M272.07,63.74a4.127,4.127,0,0,0,1.708,3.247.805.805,0,0,0,.78.1,1.313,1.313,0,0,0,.426-1.149,4.447,4.447,0,0,0-.662-2.2h1.144a5.345,5.345,0,0,1,.513,2.2,2.216,2.216,0,0,1-.9,2.036,1.493,1.493,0,0,1-.754.2,2.052,2.052,0,0,1-1.026-.3,5.171,5.171,0,0,1-2.211-4.1Z" transform="translate(-259.41 -52.95)" fill="#ebebeb"/><g transform="translate(28.957 79.064)"><path d="M328.521,203.558c-5.432-3.134-14.233-3.134-19.664,0-2.713,1.569-4.062,3.621-4.057,5.678v2.123c0,2.052,1.344,4.1,4.057,5.678,5.432,3.134,14.233,3.134,19.664,0,2.713-1.575,4.077-3.626,4.077-5.678v-2.123C332.6,207.179,331.234,205.127,328.521,203.558Z" transform="translate(-304.787 -198.975)" fill="#e0e0e0"/><path d="M328.521,203.558c-5.432-3.134-14.233-3.134-19.664,0-2.713,1.569-4.062,3.621-4.057,5.678v2.123c0,2.052,1.344,4.1,4.057,5.678,5.432,3.134,14.233,3.134,19.664,0,2.713-1.575,4.077-3.626,4.077-5.678v-2.123C332.6,207.179,331.234,205.127,328.521,203.558Z" transform="translate(-304.787 -198.975)" opacity="0.1"/><path d="M308.845,203.554c-5.426,3.134-5.426,8.206,0,11.35s14.233,3.134,19.664,0,5.426-8.206,0-11.35S314.276,200.42,308.845,203.554Z" transform="translate(-304.775 -198.971)" fill="#ebebeb"/><path d="M329.1,198.8c-4.488-2.6-11.761-2.6-16.248,0-2.246,1.292-3.359,2.99-3.354,4.688v3.129c0,1.7,1.108,3.4,3.354,4.693,4.488,2.59,11.761,2.59,16.248,0,2.246-1.3,3.359-3,3.354-4.693v-3.129C332.462,201.792,331.349,200.094,329.1,198.8Z" transform="translate(-307.077 -196.855)" fill="#e0e0e0"/><path d="M312.8,198.8c-4.488,2.564-4.488,6.791,0,9.381s11.761,2.59,16.248,0,4.488-6.791,0-9.381S317.312,196.208,312.8,198.8Z" transform="translate(-307.046 -196.857)" fill="#ebebeb"/></g><path d="M384.213,128.48h1.026a3.2,3.2,0,0,0,0,.328,4.23,4.23,0,0,0,1.708,3.313.831.831,0,0,0,.785.1,1.318,1.318,0,0,0,.426-1.154,4.005,4.005,0,0,0-.267-1.369h1.062a4.934,4.934,0,0,1,.21,1.369,2.221,2.221,0,0,1-.928,2.021,1.493,1.493,0,0,1-.754.2,2.083,2.083,0,0,1-1.026-.3,5.193,5.193,0,0,1-2.211-4.18A.661.661,0,0,1,384.213,128.48Z" transform="translate(-314.51 -84.485)" fill="#ebebeb"/><path d="M332.343,200.837c0-1.344-.892-2.693-2.672-3.718a14.254,14.254,0,0,0-12.884,0c-1.78,1.026-2.667,2.375-2.667,3.718v1.077c0,1.349.887,2.693,2.667,3.718a14.254,14.254,0,0,0,12.884,0c1.78-1.026,2.672-2.37,2.672-3.718Z" transform="translate(-280.37 -117.17)" fill="#e0e0e0"/><path d="M329.671,179.583a7.293,7.293,0,0,1-2.026-4.1c-1.026-4.955-1.026-12.9-.18-15.9h-8.473c.831,3.006.846,10.95-.18,15.9a7.293,7.293,0,0,1-2.026,4.1h0c-1.78,1.026-2.667,2.375-2.667,3.718s.887,2.693,2.667,3.718a14.254,14.254,0,0,0,12.884,0c1.78-1.026,2.672-2.375,2.672-3.718S331.451,180.609,329.671,179.583Z" transform="translate(-280.37 -99.634)" fill="#ebebeb"/><g transform="translate(35.166 61.736)" opacity="0.15"><path d="M322.107,163.07c0,1.923-.108,15.741-1.354,17.495s-2.662,1.893-3.59,3.4.549,3.59,2.811,4.278a2.759,2.759,0,0,1-.7-1.441s1.5,1.769,4.862,1.441c-2.964-.513-4.149-2.744-3.513-3.836s1.759-1.539,2.37-3.565c.477-1.569.467-17.515.467-17.515A7.883,7.883,0,0,1,322.107,163.07Z" transform="translate(-316.881 -163.07)" fill="#fff"/></g><g transform="translate(43.356 61.618)" opacity="0.1"><path d="M333.8,163.173c.108,3.283.18,16.377,1.133,17.951a7.187,7.187,0,0,1,1.364,3.3,2.968,2.968,0,0,1-1.98,2.852,4.468,4.468,0,0,0,2.267-.836s-.759,1.539-3.739,2.241c2.011.138,5.221-.436,7-2.677,1.508-1.9-.062-2.8-1.339-3.534a5.011,5.011,0,0,1-2.564-3.139c-1.344-3.811-.759-16.489-.759-16.489A7.933,7.933,0,0,1,333.8,163.173Z" transform="translate(-332.85 -162.84)"/></g><g transform="translate(38.622 59.94)" opacity="0.1"><path d="M331.729,161.4a12.413,12.413,0,0,1,.364-1.831H323.62a12.413,12.413,0,0,1,.364,1.831,8.986,8.986,0,0,0,7.745,0Z" transform="translate(-323.62 -159.57)"/></g><path d="M322.412,156.48a2.457,2.457,0,0,1,0-4.657,8.909,8.909,0,0,1,8.068,0,2.46,2.46,0,0,1,0,4.657,8.909,8.909,0,0,1-8.068,0Z" transform="translate(-283.595 -95.386)" fill="#e0e0e0"/><g transform="translate(37.54 55.492)" opacity="0.1"><path d="M332.147,153a3.764,3.764,0,0,0-1.282-1.139,8.909,8.909,0,0,0-8.068,0A3.739,3.739,0,0,0,321.51,153a2.908,2.908,0,0,0,1.539,1.8,8.386,8.386,0,0,0,7.591,0,2.908,2.908,0,0,0,1.508-1.8Z" transform="translate(-321.51 -150.897)"/></g><path d="M322.989,151.978a2.712,2.712,0,0,1-1.569-2.19,2.649,2.649,0,0,1,1.569-2.19,8.386,8.386,0,0,1,7.591,0,2.706,2.706,0,0,1,1.569,2.19,2.643,2.643,0,0,1-1.569,2.19A8.386,8.386,0,0,1,322.989,151.978Z" transform="translate(-283.926 -93.355)" fill="#e0e0e0"/><g transform="translate(37.873 53.35)" opacity="0.1"><path d="M332.131,148.653a3.554,3.554,0,0,0-1.19-1.026,8.386,8.386,0,0,0-7.591,0,3.59,3.59,0,0,0-1.19,1.026,2.713,2.713,0,0,0,1.457,1.7,7.857,7.857,0,0,0,7.109,0A2.713,2.713,0,0,0,332.131,148.653Z" transform="translate(-322.16 -146.72)"/></g><path d="M323.6,147.456a2.5,2.5,0,0,1-1.477-2.052,2.535,2.535,0,0,1,1.477-2.052,7.858,7.858,0,0,1,7.109,0,2.506,2.506,0,0,1,1.477,2.052,2.549,2.549,0,0,1-1.477,2.052A7.858,7.858,0,0,1,323.6,147.456Z" transform="translate(-284.267 -91.316)" fill="#e0e0e0"/><g transform="translate(38.237 51.182)" opacity="0.1"><path d="M332.112,144.256a3.427,3.427,0,0,0-1.067-.913,7.858,7.858,0,0,0-7.109,0,3.482,3.482,0,0,0-1.067.913,2.616,2.616,0,0,0,1.3,1.467,7.345,7.345,0,0,0,6.637,0,2.616,2.616,0,0,0,1.3-1.467Z" transform="translate(-322.87 -142.493)"/></g><g transform="translate(44.587 53.663)" opacity="0.1"><path d="M337.686,152.043c.769-.595.246-1.99-.349-2.4a1.542,1.542,0,0,0-.513-2.313,5.846,5.846,0,0,1-1.575.6,1.64,1.64,0,0,1,.513,2.416c.6.405,1.113,1.852.344,2.452.539.456,1.118,1.728.231,2.488a5.9,5.9,0,0,0,1.539-.749A1.682,1.682,0,0,0,337.686,152.043Z" transform="translate(-335.25 -147.33)"/></g><g transform="translate(38.017 53.663)" opacity="0.15"><path d="M323.112,152.043c-.769-.595-.246-1.99.354-2.4a1.536,1.536,0,0,1,.513-2.313,5.847,5.847,0,0,0,1.575.6,1.64,1.64,0,0,0-.513,2.416c-.6.405-1.113,1.852-.344,2.452-.513.456-1.118,1.728-.231,2.488a5.9,5.9,0,0,1-1.539-.749A1.686,1.686,0,0,1,323.112,152.043Z" transform="translate(-322.44 -147.33)" fill="#fff"/></g><path d="M331.3,112.608a9.166,9.166,0,0,1-1.026-3.985c-.621-7.832-.621-17.905-.621-25.563h-4.544c0,7.652,0,17.7-.621,25.537a8.774,8.774,0,0,1-1.026,4.011,2.011,2.011,0,0,0-.79,1.5,2.336,2.336,0,0,0,1.375,1.913,7.345,7.345,0,0,0,6.637,0,2.316,2.316,0,0,0,1.375-1.913,2.011,2.011,0,0,0-.759-1.5Z" transform="translate(-284.535 -62.361)" fill="#ebebeb"/><g transform="translate(44.056 20.699)" opacity="0.1"><path d="M336.336,112.946a7.581,7.581,0,0,1-1.344-4.349c-.19-2.4-.031-24.793,0-25.537h-.313l-.41.128c0,3.59-.241,26.3.3,28.276s1.77,3.949.2,5.16a5.837,5.837,0,0,0,1.575-.6A2.358,2.358,0,0,0,336.336,112.946Z" transform="translate(-334.215 -83.06)"/></g><g transform="translate(38.963 20.699)" opacity="0.15"><path d="M324.862,112.946a7.581,7.581,0,0,0,1.344-4.349c.19-2.4.031-24.793,0-25.537h.313l.41.128c0,3.59.241,26.3-.3,28.276s-1.769,3.949-.2,5.16a5.837,5.837,0,0,1-1.575-.6A2.358,2.358,0,0,1,324.862,112.946Z" transform="translate(-324.285 -83.06)" fill="#fff"/></g><g transform="translate(40.581 20.699)" opacity="0.1"><path d="M327.44,84.322a3.949,3.949,0,0,0,4.555,0c0-.405,0-.821,0-1.262H327.45C327.445,83.5,327.44,83.917,327.44,84.322Z" transform="translate(-327.44 -83.06)"/></g><path d="M324.15,73.53a3.965,3.965,0,1,0,3.965-3.96,3.965,3.965,0,0,0-3.965,3.96Z" transform="translate(-285.256 -55.79)" fill="#e0e0e0"/><g transform="translate(38.868 14.421)" opacity="0.1"><path d="M329.008,76.2a3.036,3.036,0,0,0,1.759-1.954,4.431,4.431,0,0,0,.087-1.836,4.36,4.36,0,0,0-.241-.877,3.008,3.008,0,0,0-.185-.415,1.379,1.379,0,0,0-.174-.292,3.965,3.965,0,1,1-6.155,3.318A3.848,3.848,0,0,0,329.008,76.2Z" transform="translate(-324.1 -70.82)"/></g><g transform="translate(39.586 14.294)" opacity="0.15"><path d="M325.572,73.925c.385,1.062.513-.477,2.288-1.605,1.441-.918,3.154-.728,2.221-1.375a3.028,3.028,0,0,0-3.077.1A2.79,2.79,0,0,0,325.572,73.925Z" transform="translate(-325.5 -70.572)" fill="#fff"/></g><path d="M332.41,67.241h0v4.19a39.206,39.206,0,0,1,3.375,2.344,67.277,67.277,0,0,1,10.258,10.181c2.246,2.677,4.375,5.488,6.632,8.263a4.151,4.151,0,0,0,.41.631,2.872,2.872,0,0,0,.59.58c.58.7,1.169,1.4,1.775,2.052a26.019,26.019,0,0,0,5.821,5.18l.441.256a4.831,4.831,0,0,0,1.734.6,3.293,3.293,0,0,0,2.647-.79,3.221,3.221,0,0,0,.79-1.139,4.644,4.644,0,0,0,.323-1.169,6.944,6.944,0,0,0-.087-2.175,9.16,9.16,0,0,0-.615-1.98,8.719,8.719,0,0,0-1.026-1.8,5.494,5.494,0,0,0-1.636-1.457,3.077,3.077,0,0,0-1.185-.38,2.129,2.129,0,0,0-1.369.323,1.97,1.97,0,0,0-.513.513,2.417,2.417,0,0,0-.3.595,3.359,3.359,0,0,0-.164,1.144,5.354,5.354,0,0,0,.467,2.052,4.9,4.9,0,0,0,1.18,1.7,2.682,2.682,0,0,0,.969.569,1.539,1.539,0,0,0,.641.056,1.3,1.3,0,0,0,.621-.267.39.39,0,0,0-.436-.641h-.036a.549.549,0,0,1-.513,0,1.723,1.723,0,0,1-.58-.431,3.949,3.949,0,0,1-.78-1.421,4.369,4.369,0,0,1-.226-1.6,1.909,1.909,0,0,1,.154-.682.641.641,0,0,1,.3-.339.687.687,0,0,1,.415-.041,1.826,1.826,0,0,1,.554.246,3.749,3.749,0,0,1,1.026,1.087,6.607,6.607,0,0,1,.718,1.467,7.343,7.343,0,0,1,.374,1.6,4.841,4.841,0,0,1-.036,1.539,1.672,1.672,0,0,1-.482.969c-.426.328-1.108.241-2.052-.451a17.29,17.29,0,0,1-2.616-2.252c-.795-.8-1.539-1.662-2.282-2.564a1.877,1.877,0,0,0,.38-.467,2.97,2.97,0,0,0,.282-1.718,4.94,4.94,0,0,0-.39-1.416,3.281,3.281,0,0,0-.8-1.169.133.133,0,0,0-.195,0,.128.128,0,0,0-.026.138h0a3.467,3.467,0,0,1,.19,1.205,4.211,4.211,0,0,1-.144,1.154,1.257,1.257,0,0,1-.405.744c-.067.036-.082,0-.077-.046s0-.056-.1-.1l-.077-.056c-1.077-1.4-2.128-2.831-3.185-4.278-1.4-1.877-2.811-3.77-4.277-5.642a13.232,13.232,0,0,0-1.59-4.278c-2.011-3.513-7.858-6.668-13.335-9.776-.513-.308-1.026-.6-1.539-.882h0Zm7.755,5.508a22.464,22.464,0,0,1,5.924,4.908,6.619,6.619,0,0,1,1.5,2.929,65.254,65.254,0,0,0-7.427-7.837Z" transform="translate(-289.275 -54.645)" fill="#ebebeb"/><path d="M264.439,46.445a9.119,9.119,0,0,0,.918,4.1,10.114,10.114,0,0,0,2.513,3.4,7.068,7.068,0,0,0,.928.662c.292.174.6.349.913.513a11.9,11.9,0,0,0,1.975.759,13.8,13.8,0,0,0,4.1.472c2.688-.082,5.129-.58,7.488-.795a24.619,24.619,0,0,1,6.9.236,26.911,26.911,0,0,1,9.124,3.708V55.293l-.108-.056c-5.837-3.38-12.566-7.74-14.756-6.447a4.243,4.243,0,0,0-1.708,3.406c-2.052.262-3.99.7-5.847.944l-.128-.056a2.216,2.216,0,0,1-.815-.451,3.5,3.5,0,0,1-.641-.769,4.3,4.3,0,0,1-.513-.954,4.139,4.139,0,0,1-.272-1.082,2.135,2.135,0,0,1,0-.544.569.569,0,0,1,.18-.41h.036a.133.133,0,0,0,.031-.19.144.144,0,0,0-.118-.056.928.928,0,0,0-.656.446,2.605,2.605,0,0,0-.323.657,4.693,4.693,0,0,0-.236,1.405,6.037,6.037,0,0,0,.164,1.441,5.805,5.805,0,0,0,.256.744,9.643,9.643,0,0,1-1.5-.19,8.9,8.9,0,0,1-1.539-.482c-.251-.1-.513-.221-.744-.344a4.615,4.615,0,0,1-.605-.38A7.662,7.662,0,0,1,267.45,49.5a6.863,6.863,0,0,1-.841-3.052,3.1,3.1,0,0,1,.21-1.334,1.025,1.025,0,0,1,.272-.374.333.333,0,0,1,.236-.092,1.79,1.79,0,0,1,1.057.513,4.734,4.734,0,0,1,.99,1.216,4.617,4.617,0,0,1,.58,1.462,2.564,2.564,0,0,1-.041,1.375.79.79,0,0,1-.19.277.267.267,0,0,1-.118,0,.661.661,0,0,1-.251-.056,3.8,3.8,0,0,1-1.241-.933h0a.344.344,0,0,0-.58.318,3.006,3.006,0,0,0,.415.964,2.626,2.626,0,0,0,.8.816,2.185,2.185,0,0,0,.616.267,1.58,1.58,0,0,0,.8-.026,1.831,1.831,0,0,0,1.1-.985,3.949,3.949,0,0,0,.277-2.277,6.4,6.4,0,0,0-.662-2.011,6.862,6.862,0,0,0-1.251-1.734,4.672,4.672,0,0,0-.923-.708,3.078,3.078,0,0,0-1.272-.41,2.308,2.308,0,0,0-1.539.415,3.031,3.031,0,0,0-.913,1.026A5.13,5.13,0,0,0,264.439,46.445Zm21.2,3.5c2.452-.3,6.734,2.385,7.36,2.79H292.9a19.456,19.456,0,0,0-8.786-1.164s-.241-1.416,1.518-1.636Z" transform="translate(-256.17 -42.702)" fill="#ebebeb"/><path d="M324.17,46.418c0,3.113,1.893,7.832,4.231,9.186s4.226-1.19,4.226-4.3-1.877-6.739-4.226-8.088S324.17,43.294,324.17,46.418Zm7.278,4.2a5.64,5.64,0,0,1-.164,1.334,6.918,6.918,0,0,0-2.882-4.98c-1.467-.846-2.688-.113-2.882,1.667a7.781,7.781,0,0,1-.169-1.539c0-2.246,1.364-3.283,3.052-2.308a7.293,7.293,0,0,1,3.047,5.826Z" transform="translate(-285.266 -42.705)" fill="#ebebeb"/><path d="M331.138,54.84l-1.328,1.3,1.344,3.021,1.334-1.487Z" transform="translate(-288.013 -48.615)" fill="#fafafa"/><path d="M331.2,58.049l.421.887.056-2.426-.513.513A.985.985,0,0,0,331.2,58.049Z" transform="translate(-288.609 -49.428)" fill="#f0f0f0"/></g></g><g transform="translate(45.952 81.937)"><g transform="translate(0 28.24)"><path d="M174.97,342.853l1.759-1.026a2.861,2.861,0,0,0-1.477-.108C174.8,341.935,174.97,342.853,174.97,342.853Z" transform="translate(-128.108 -255.795)"/><path d="M172.25,332.872a2.134,2.134,0,0,1,3.139,0c1.708,1.569,1.8,3.129,2.508,3.1s.7-12.545.7-12.545L171.85,329.7Z" transform="translate(-126.603 -246.922)" fill="#f8951d"/><path d="M172.25,332.872a2.134,2.134,0,0,1,3.139,0c1.708,1.569,1.8,3.129,2.508,3.1s.7-12.545.7-12.545L171.85,329.7Z" transform="translate(-126.603 -246.922)" opacity="0.3"/><path d="M202.982,230.992l.108-.067-4.1-2.529L156.53,203.85,84.622,245.394c-1.123.672-1.313,1.616-.441,2.129l1.585.908,43.5,25.132.313-.226Z" transform="translate(-83.632 -188.674)" fill="#f8951d"/><path d="M202.982,230.992l.108-.067-4.1-2.529L156.53,203.85,84.622,245.394c-1.123.672-1.313,1.616-.441,2.129l1.585.908,43.5,25.132.313-.226Z" transform="translate(-83.632 -188.674)" opacity="0.2"/><path d="M180.735,311.208l-3.365-.7V324c2.052.862,3.324,1.677,3.534,3.38Z" transform="translate(-129.292 -240.629)" fill="#455a64"/><path d="M132.257,298.679,89.174,273.793a2.99,2.99,0,0,1-1.354-2.344v-13.3l43.514,25.342a3.97,3.97,0,0,0,2.052,2.472c1.539.59.369,1.2.369,1.2V298.5C132.416,298.34,132.257,298.679,132.257,298.679Z" transform="translate(-85.671 -215.124)" fill="#f5f5f5"/><path d="M177.144,269.922c-.446-.256-.8-.277-.8-.031v.421c0,.467-.708.446-1.6-.062s-1.6-1.3-1.6-1.764v-.426c0-.241-.6-.78-1.344-1.21l70.123-40.18,1.087.631a1.026,1.026,0,0,1,.267.585v.421c0,.467.713,1.257,1.585,1.764s1.6.513,1.6.062v-.421c0-.241.354-.226.8.031Z" transform="translate(-126.583 -199.789)" fill="#f8951d"/><path d="M177.144,269.922c-.446-.256-.8-.277-.8-.031v.421c0,.467-.708.446-1.6-.062s-1.6-1.3-1.6-1.764v-.426c0-.241-.6-.78-1.344-1.21l70.123-40.18,1.087.631a1.026,1.026,0,0,1,.267.585v.421c0,.467.713,1.257,1.585,1.764s1.6.513,1.6.062v-.421c0-.241.354-.226.8.031Z" transform="translate(-126.583 -199.789)" opacity="0.4"/><path d="M199.954,201.823l.113-.067-1.082-.626L152.44,174.26,84.62,213.424c-1.123.646-1.318,1.58-.441,2.082l1.585.913,43.514,26.209Z" transform="translate(-83.63 -174.26)" fill="#f8951d"/><path d="M199.954,201.823l.113-.067-1.082-.626L152.44,174.26,84.62,213.424c-1.123.646-1.318,1.58-.441,2.082l1.585.913,43.514,26.209Z" transform="translate(-83.63 -174.26)" opacity="0.2"/><path d="M250.856,231.77,180.79,272.222l2.452,1.918,69.84-40.324a2.739,2.739,0,0,0-.933-1.3Z" transform="translate(-130.957 -202.274)" fill="#f8951d"/><path d="M250.856,231.77,180.79,272.222l2.452,1.918,69.84-40.324a2.739,2.739,0,0,0-.933-1.3Z" transform="translate(-130.957 -202.274)" opacity="0.2"/><path d="M254.861,253.88a.964.964,0,0,0,.123-.092.267.267,0,0,0,.082-.072,1.026,1.026,0,0,0,.138-.185.512.512,0,0,0,.072-.1,2.263,2.263,0,0,0,.179-.39,3.955,3.955,0,0,0,.138-.456c.041-.169.072-.344.1-.513a2.138,2.138,0,0,0,.041-.323c0-.087,0-.164,0-.256,0-.195.026-.4.026-.61V239.289a9.534,9.534,0,0,0-.651-3.529l-69.82,40.324L185,294.219l69.835-40.329Z" transform="translate(-133.008 -204.217)" fill="#f8951d"/><path d="M242.631,295.9l.785-.646c.426-.344.456-.539.456-1.267V284.92c0-.61,0-.805-.472-.651l-.769.246v-1.18l4.862-2.806v1.2l-.959.728a1.133,1.133,0,0,0-.513,1.144v10.124l1.282-.739c1.251-.723,1.739-1.708,2.282-4.4l1.118-.646-.41,4.688-7.693,4.436Z" transform="translate(-161.066 -226.025)" fill="#fff"/><path d="M259.65,285.307l.692-.539c.354-.3.456-.615.646-1.451l3.077-13.109,1.887-1.087,3.031,9.653c.164.513.236.785.631.651l.59-.2V280.4l-4.549,2.626V281.85l.677-.513c.4-.308.431-.58.282-1.144l-.456-1.662-3.267,1.887-.456,2.108c-.164.723-.087.974.339.846l.646-.215v1.174l-3.77,2.164Zm6.2-7.955L264.6,272.8l-.062.036-1.354,6.057Z" transform="translate(-169.371 -220.467)" fill="#fff"/><path d="M279.351,258.39c-.133-.626-.236-.764-.662-.595l-.59.221v-1.2l4.58-2.647v1.139l-.749.554c-.4.287-.456.513-.344,1.154L283,265l.062-.036,2.164-12.253,2.226-1.287,2.267,9.745.056-.036,1.539-9.6c.118-.754.056-.954-.354-.836l-.723.241V249.82l3.8-2.19v1.139l-.692.513c-.354.262-.544.59-.692,1.462l-2.134,12.648-2.564,1.482-2.087-9.114h-.046l-2,11.473-2.431,1.405Z" transform="translate(-178.358 -209.999)" fill="#fff"/><path d="M204.47,298.857,212.892,294c1.282,6.442,1.467,12.494,0,17.951l-8.422,4.862C205.937,311.351,205.768,305.284,204.47,298.857Z" transform="translate(-142.492 -232.586)" fill="#f8951d"/><path d="M204.47,298.857,212.892,294c1.282,6.442,1.467,12.494,0,17.951l-8.422,4.862C205.937,311.351,205.768,305.284,204.47,298.857Z" transform="translate(-142.492 -232.586)" fill="#fff" opacity="0.4"/><path d="M227,288.756l3.139-1.816c1.282,6.442,1.467,12.5,0,17.951L227,306.722C228.451,301.25,228.267,295.177,227,288.756Z" transform="translate(-153.467 -229.147)" fill="#f8951d"/><path d="M227,288.756l3.139-1.816c1.282,6.442,1.467,12.5,0,17.951L227,306.722C228.451,301.25,228.267,295.177,227,288.756Z" transform="translate(-153.467 -229.147)" fill="#fff" opacity="0.4"/><path d="M136.56,288.054h-1.539a7.088,7.088,0,0,0-.759-3.416,2.052,2.052,0,0,1-1.282.421,4.1,4.1,0,0,1-1.949-.61,5.985,5.985,0,0,1-1.805-1.585c-.031-.046-.067-.092-.092-.138a2.564,2.564,0,0,1-.467-1.339l-41.3-23.834-1.4-.81-1.79-1.026a.954.954,0,0,1-.549-.805V253.08a.969.969,0,0,0,.549.831h0l4.77,2.718,39.908,23.08c.739.431,1.349.969,1.349,1.21v.421a1.272,1.272,0,0,0,.369.744,4.57,4.57,0,0,0,1.221,1.026c.882.513,1.6.513,1.6.062v-.421c0-.246.349-.231.795.031l.79.462C135.853,283.73,136.56,285.895,136.56,288.054Z" transform="translate(-83.63 -212.654)" fill="#f8951d"/><path d="M136.56,288.054h-1.539a7.088,7.088,0,0,0-.759-3.416,2.052,2.052,0,0,1-1.282.421,4.1,4.1,0,0,1-1.949-.61,5.985,5.985,0,0,1-1.805-1.585c-.031-.046-.067-.092-.092-.138a2.564,2.564,0,0,1-.467-1.339l-41.3-23.834-1.4-.81-1.79-1.026a.954.954,0,0,1-.549-.805V253.08a.969.969,0,0,0,.549.831h0l4.77,2.718,39.908,23.08c.739.431,1.349.969,1.349,1.21v.421a1.272,1.272,0,0,0,.369.744,4.57,4.57,0,0,0,1.221,1.026c.882.513,1.6.513,1.6.062v-.421c0-.246.349-.231.795.031l.79.462C135.853,283.73,136.56,285.895,136.56,288.054Z" transform="translate(-83.63 -212.654)" opacity="0.3"/><path d="M135,304.752V316.81l-.036.395a.051.051,0,0,1,0,.036,4.5,4.5,0,0,0-2.359-2.939,3.96,3.96,0,0,0-1.908-.595,2.1,2.1,0,0,0-1.4.513l-.139-.077-.272-.164L88.949,290.93l-2.293-1.318-.667-.385c-.672-.39-1.354-.78-1.928-1.118a.913.913,0,0,1-.431-.749v1.831a.877.877,0,0,0,.4.7h0c.226.133.467.267.708.415l.446.256c.267.149.513.3.769.446.169.1.328.195.477.272l.333.195.585.344,31.712,18.3,10.124,5.847c.718.421,1.3.569,1.344.349a.513.513,0,0,0,0-.072v-.41c0-.513.713-.513,1.59,0s1.236,1.1,1.251,1.6v.513a.723.723,0,0,0,.231.595c.062.041.149.087.236.133s.313.18.513.287l.615.364a.631.631,0,0,0,.79-.072.205.205,0,0,0,.077-.072.99.99,0,0,0,.144-.185h0a.384.384,0,0,0,.067-.092,1.933,1.933,0,0,0,.18-.39,3.959,3.959,0,0,0,.144-.457c.036-.169.067-.344.1-.513a2.227,2.227,0,0,0,.036-.323V304.752Z" transform="translate(-83.63 -229.352)" fill="#f8951d"/><path d="M135,304.752V316.81l-.036.395a.051.051,0,0,1,0,.036,4.5,4.5,0,0,0-2.359-2.939,3.96,3.96,0,0,0-1.908-.595,2.1,2.1,0,0,0-1.4.513l-.139-.077-.272-.164L88.949,290.93l-2.293-1.318-.667-.385c-.672-.39-1.354-.78-1.928-1.118a.913.913,0,0,1-.431-.749v1.831a.877.877,0,0,0,.4.7h0c.226.133.467.267.708.415l.446.256c.267.149.513.3.769.446.169.1.328.195.477.272l.333.195.585.344,31.712,18.3,10.124,5.847c.718.421,1.3.569,1.344.349a.513.513,0,0,0,0-.072v-.41c0-.513.713-.513,1.59,0s1.236,1.1,1.251,1.6v.513a.723.723,0,0,0,.231.595c.062.041.149.087.236.133s.313.18.513.287l.615.364a.631.631,0,0,0,.79-.072.205.205,0,0,0,.077-.072.99.99,0,0,0,.144-.185h0a.384.384,0,0,0,.067-.092,1.933,1.933,0,0,0,.18-.39,3.959,3.959,0,0,0,.144-.457c.036-.169.067-.344.1-.513a2.227,2.227,0,0,0,.036-.323V304.752Z" transform="translate(-83.63 -229.352)" opacity="0.3"/></g><g transform="translate(2.754 16.752)"><path d="M173.316,297.778l1.626-.933a2.631,2.631,0,0,0-1.364-.092C173.136,296.953,173.316,297.778,173.316,297.778Z" transform="translate(-130.053 -222.414)"/><path d="M170.824,288.534a1.964,1.964,0,0,1,2.893,0c1.58,1.451,1.662,2.888,2.313,2.862s.646-11.576.646-11.576l-6.227,5.791Z" transform="translate(-128.675 -214.19)" fill="#f8951d"/><path d="M170.824,288.534a1.964,1.964,0,0,1,2.893,0c1.58,1.451,1.662,2.888,2.313,2.862s.646-11.576.646-11.576l-6.227,5.791Z" transform="translate(-128.675 -214.19)" fill="#fff" opacity="0.2"/><path d="M199.181,194.524l.1-.056-3.79-2.334L156.318,169.48,89.966,207.839c-1.026.6-1.216,1.462-.41,1.923l1.467.841,40.144,23.188.287-.205Z" transform="translate(-89.027 -160.443)" fill="#f8951d"/><path d="M199.181,194.524l.1-.056-3.79-2.334L156.318,169.48,89.966,207.839c-1.026.6-1.216,1.462-.41,1.923l1.467.841,40.144,23.188.287-.205Z" transform="translate(-89.027 -160.443)" fill="#fff" opacity="0.4"/><path d="M178.658,278.231l-3.108-.641v7.483c1.872.795,3.077,1.539,3.262,3.118Z" transform="translate(-131.159 -213.104)" fill="#455a64"/><path d="M133.906,261.7l-39.77-22.962a2.765,2.765,0,0,1-1.246-2.164v-7.3l40.154,23.383a3.67,3.67,0,0,0,1.9,2.282c1.426.544.339,1.1.339,1.1v5.5C134.055,261.392,133.906,261.7,133.906,261.7Z" transform="translate(-90.895 -189.567)" fill="#f5f5f5"/><path d="M175.329,240.1c-.41-.241-.733-.256-.733-.031v.39c0,.431-.657.41-1.472-.056s-1.472-1.2-1.472-1.631v-.39c0-.226-.554-.723-1.241-1.118L235.122,200.2l1,.58a.923.923,0,0,1,.246.513v.385c0,.436.657,1.164,1.467,1.631s1.472.513,1.472.062v-.39c0-.226.323-.21.733.026Z" transform="translate(-128.656 -175.407)" fill="#f8951d"/><path d="M175.329,240.1c-.41-.241-.733-.256-.733-.031v.39c0,.431-.657.41-1.472-.056s-1.472-1.2-1.472-1.631v-.39c0-.226-.554-.723-1.241-1.118L235.122,200.2l1,.58a.923.923,0,0,1,.246.513v.385c0,.436.657,1.164,1.467,1.631s1.472.513,1.472.062v-.39c0-.226.323-.21.733.026Z" transform="translate(-128.656 -175.407)" fill="#fff" opacity="0.25"/><path d="M196.4,177.294l.1-.062-1-.58L152.558,151.86,89.986,188c-1.026.6-1.216,1.457-.41,1.923l1.467.841L131.2,214.946Z" transform="translate(-89.037 -151.86)" fill="#f8951d"/><path d="M196.4,177.294l.1-.062-1-.58L152.558,151.86,89.986,188c-1.026.6-1.216,1.457-.41,1.923l1.467.841L131.2,214.946Z" transform="translate(-89.037 -151.86)" fill="#fff" opacity="0.4"/><path d="M243.355,204.93,178.7,242.258l2.267,1.769,64.445-37.21a2.528,2.528,0,0,0-.862-1.2Z" transform="translate(-132.694 -177.711)" fill="#f8951d"/><path d="M243.355,204.93,178.7,242.258l2.267,1.769,64.445-37.21a2.528,2.528,0,0,0-.862-1.2Z" transform="translate(-132.694 -177.711)" fill="#fff" opacity="0.4"/><path d="M247.05,220.38a.447.447,0,0,0,.118-.082.18.18,0,0,0,.072-.067.719.719,0,0,0,.133-.169.623.623,0,0,0,.062-.1,1.635,1.635,0,0,0,.164-.359,3.283,3.283,0,0,0,.133-.415c.036-.159.062-.318.092-.513a1.817,1.817,0,0,0,.036-.3v-.236c0-.18.026-.369.026-.564v-5.673a8.8,8.8,0,0,0-.6-3.257l-64.424,37.19-.272,11.766,64.44-37.21Z" transform="translate(-134.588 -179.523)" fill="#f8951d"/><g transform="translate(48.002 29.127)" opacity="0.7"><path d="M247.05,220.38a.447.447,0,0,0,.118-.082.18.18,0,0,0,.072-.067.719.719,0,0,0,.133-.169.623.623,0,0,0,.062-.1,1.635,1.635,0,0,0,.164-.359,3.283,3.283,0,0,0,.133-.415c.036-.159.062-.318.092-.513a1.817,1.817,0,0,0,.036-.3v-.236c0-.18.026-.369.026-.564v-5.673a8.8,8.8,0,0,0-.6-3.257l-64.424,37.19-.272,11.766,64.44-37.21Z" transform="translate(-182.59 -208.65)" fill="#fff"/></g><path d="M193.53,270.883l7.77-4.483c1.18,5.944,1.349,6.565,0,11.612l-7.77,4.488C194.884,277.448,194.71,276.827,193.53,270.883Z" transform="translate(-139.917 -207.653)" fill="#fafafa"/><path d="M277.91,222.168l7.77-4.488c1.18,5.944,1.349,6.565,0,11.612l-7.77,4.488C279.264,228.733,279.09,228.1,277.91,222.168Z" transform="translate(-181.02 -183.921)" fill="#fafafa"/><path d="M137.868,256.856h-1.441a6.586,6.586,0,0,0-.7-3.149,1.944,1.944,0,0,1-1.185.39,3.749,3.749,0,0,1-1.8-.564,5.432,5.432,0,0,1-1.667-1.467.708.708,0,0,1-.087-.128,2.293,2.293,0,0,1-.431-1.231L92.472,228.714l-1.292-.749-1.667-.954a.872.872,0,0,1-.513-.744V224.58a.887.887,0,0,0,.513.764h0l4.411,2.529,36.836,21.27c.682.395,1.246.892,1.246,1.118v.39a1.19,1.19,0,0,0,.339.682,4.179,4.179,0,0,0,1.123.949c.816.467,1.472.487,1.472.056v-.359c0-.226.323-.21.739.031l.728.426C137.212,252.871,137.868,254.866,137.868,256.856Z" transform="translate(-89 -187.283)" fill="#f8951d"/><path d="M137.868,256.856h-1.441a6.586,6.586,0,0,0-.7-3.149,1.944,1.944,0,0,1-1.185.39,3.749,3.749,0,0,1-1.8-.564,5.432,5.432,0,0,1-1.667-1.467.708.708,0,0,1-.087-.128,2.293,2.293,0,0,1-.431-1.231L92.472,228.714l-1.292-.749-1.667-.954a.872.872,0,0,1-.513-.744V224.58a.887.887,0,0,0,.513.764h0l4.411,2.529,36.836,21.27c.682.395,1.246.892,1.246,1.118v.39a1.19,1.19,0,0,0,.339.682,4.179,4.179,0,0,0,1.123.949c.816.467,1.472.487,1.472.056v-.359c0-.226.323-.21.739.031l.728.426C137.212,252.871,137.868,254.866,137.868,256.856Z" transform="translate(-89 -187.283)" fill="#fff" opacity="0.6"/><path d="M136.451,267.573v6.165l-.036.359a.087.087,0,0,1,0,.036,4.166,4.166,0,0,0-2.18-2.713,3.641,3.641,0,0,0-1.759-.549,1.949,1.949,0,0,0-1.292.477l-.128-.072-.251-.149L93.948,249.873l-2.113-1.221c-.195-.113-.405-.231-.605-.354l-1.785-1.026a.857.857,0,0,1-.395-.692v1.687a.821.821,0,0,0,.369.651h0c.205.123.431.246.651.385l.415.236.708.41c.154.1.3.185.436.256s.215.128.313.18l.513.318,29.26,16.884,9.365,5.365c.667.39,1.205.513,1.241.323a.231.231,0,0,0,0-.072v-.374c0-.472.657-.472,1.462,0a1.968,1.968,0,0,1,1.154,1.472v.462a.692.692,0,0,0,.215.549l.221.118.462.267c.169.1.364.221.569.333a.58.58,0,0,0,.728-.067.159.159,0,0,0,.072-.062.729.729,0,0,0,.128-.174h0a.558.558,0,0,0,.067-.087,1.913,1.913,0,0,0,.164-.359,3.642,3.642,0,0,0,.128-.421c.036-.159.067-.318.1-.513a2.678,2.678,0,0,0,.036-.292v-6.483Z" transform="translate(-89.024 -197.999)" fill="#f8951d"/><path d="M136.451,267.573v6.165l-.036.359a.087.087,0,0,1,0,.036,4.166,4.166,0,0,0-2.18-2.713,3.641,3.641,0,0,0-1.759-.549,1.949,1.949,0,0,0-1.292.477l-.128-.072-.251-.149L93.948,249.873l-2.113-1.221c-.195-.113-.405-.231-.605-.354l-1.785-1.026a.857.857,0,0,1-.395-.692v1.687a.821.821,0,0,0,.369.651h0c.205.123.431.246.651.385l.415.236.708.41c.154.1.3.185.436.256s.215.128.313.18l.513.318,29.26,16.884,9.365,5.365c.667.39,1.205.513,1.241.323a.231.231,0,0,0,0-.072v-.374c0-.472.657-.472,1.462,0a1.968,1.968,0,0,1,1.154,1.472v.462a.692.692,0,0,0,.215.549l.221.118.462.267c.169.1.364.221.569.333a.58.58,0,0,0,.728-.067.159.159,0,0,0,.072-.062.729.729,0,0,0,.128-.174h0a.558.558,0,0,0,.067-.087,1.913,1.913,0,0,0,.164-.359,3.642,3.642,0,0,0,.128-.421c.036-.159.067-.318.1-.513a2.678,2.678,0,0,0,.036-.292v-6.483Z" transform="translate(-89.024 -197.999)" fill="#fff" opacity="0.6"/></g><g transform="translate(12.124 0)"><path d="M195.965,183.4c11.8,6.8,11.8,17.828,0,24.619s-30.881,6.8-42.662,0-11.8-17.828,0-24.619S184.184,176.612,195.965,183.4Z" transform="translate(-125.385 -147.993)" fill="#f8951d" opacity="0.55"/><g transform="translate(21.87 23.927)"><path d="M157.961,173.336c10.689-6.155,28.024-6.155,38.713,0,5.349,3.077,8,7.129,8,11.176V188.7c0,4.047-2.647,8.088-8,11.176-10.689,6.155-28.024,6.155-38.713,0-5.349-3.077-8-7.129-7.991-11.176v-4.185C149.985,180.465,152.611,176.424,157.961,173.336Z" transform="translate(-149.939 -167.248)" fill="#37474f"/><ellipse cx="27.378" cy="15.807" rx="27.378" ry="15.807" transform="translate(0 1.457)" fill="#455a64"/><path d="M168.743,169.38c8.145-4.7,21.357-4.7,29.5,0,4.077,2.349,6.1,5.432,6.093,8.514v2.775c0,3.077-2.016,6.155-6.093,8.519-8.145,4.7-21.357,4.7-29.5,0-4.077-2.354-6.1-5.437-6.093-8.519v-2.775C162.645,174.811,164.666,171.729,168.743,169.38Z" transform="translate(-156.116 -165.851)" fill="#37474f"/><ellipse cx="20.864" cy="12.043" rx="20.864" ry="12.043" transform="translate(6.514)" fill="#455a64"/></g><g transform="translate(18.46)"><path d="M154.067,120.677c4.616-2.662,8.54-1.605,10.094,2.19.3.723,1.441,3.488,1.713,4.17a8.55,8.55,0,0,1,.559,3.226c0,5.544-3.893,12.284-8.694,15.058a8.627,8.627,0,0,1-3.077,1.128l-4.437.595c-4.072.564-6.965-2.313-6.965-7.642C143.255,132.5,148.1,124.123,154.067,120.677Z" transform="translate(-143.26 -119.199)" fill="#37474f"/><path d="M163.209,129.873c4.8-2.775,8.694-.513,8.694,5.021s-3.893,12.284-8.694,15.059-8.719.513-8.719-5.021S158.408,132.633,163.209,129.873Z" transform="translate(-148.73 -123.821)" fill="#263238"/><path d="M177.676,131.818c-1.693-.964-4.016-.826-6.591.662-5.165,2.98-9.355,10.232-9.355,16.2,0,2.98,1.051,5.067,2.744,6.042.564.323,15.664,9.145,16.228,9.473,1.693.98,4.026.846,6.611-.646,5.165-2.98,9.35-10.258,9.35-16.2,0-2.98-1.026-5.072-2.744-6.042Z" transform="translate(-152.257 -125.047)" fill="#f8951d"/><path d="M177.676,131.818c-1.693-.964-4.016-.826-6.591.662-5.165,2.98-9.355,10.232-9.355,16.2,0,2.98,1.051,5.067,2.744,6.042.564.323,15.664,9.145,16.228,9.473,1.693.98,4.026.846,6.611-.646,5.165-2.98,9.35-10.258,9.35-16.2,0-2.98-1.026-5.072-2.744-6.042Z" transform="translate(-152.257 -125.047)" fill="#fff" opacity="0.3"/><path d="M191.919,170.363,162.951,153.54a17.043,17.043,0,0,0-1.221,6.021c0,2.98,1.051,5.067,2.744,6.042.564.323,15.664,9.145,16.228,9.473,1.693.98,4.026.846,6.611-.646a17.1,17.1,0,0,0,4.606-4.067Z" transform="translate(-152.257 -135.927)" fill="#f8951d" opacity="0.45"/><path d="M202.715,150.928c5.17-2.98,9.355-.564,9.355,5.4s-4.185,13.222-9.355,16.2-9.355.569-9.355-5.4S197.55,153.933,202.715,150.928Z" transform="translate(-167.664 -134.033)" fill="#263238"/><path d="M200.058,170.685c0-5.544,3.893-12.309,8.694-15.059a8.447,8.447,0,0,1,3.293-1.154l4.488-.513c4-.487,6.837,2.385,6.837,7.663,0,6.893-4.842,15.279-10.812,18.726-4.549,2.626-8.442,1.626-10.037-2.052-.323-.739-1.539-3.539-1.826-4.211A8.4,8.4,0,0,1,200.058,170.685Z" transform="translate(-170.926 -136.105)" fill="#37474f"/><path d="M214.162,155.375c5.97-3.452,10.812-.656,10.812,6.242s-4.842,15.279-10.812,18.726-10.812.651-10.812-6.242S208.192,158.822,214.162,155.375Z" transform="translate(-172.53 -136.1)" fill="#455a64"/><path d="M224.965,169a20.988,20.988,0,0,1-2.267,9.319,24.65,24.65,0,0,1-5.821,7.693,16.1,16.1,0,0,1-4.1,2.6,8.319,8.319,0,0,1-1.154.405l-.59.164c-.2.041-.405.062-.61.1a6.468,6.468,0,0,1-2.452-.077,5.734,5.734,0,0,1-2.205-1.087c-.154-.133-.292-.287-.441-.426l-.221-.221-.18-.246-.364-.513-.287-.544a9.842,9.842,0,0,1-.923-4.708l.087,1.2.19,1.185c.113.385.2.774.333,1.149l.226.549c.041.092.072.185.118.272l.149.262.292.513.364.467.18.236.215.2c.144.133.282.277.431.4a5.37,5.37,0,0,0,2.1.974,7.909,7.909,0,0,0,4.616-.626,15.73,15.73,0,0,0,3.98-2.564,25.645,25.645,0,0,0,7.56-11.971A19.167,19.167,0,0,0,224.965,169Z" transform="translate(-172.522 -143.458)" fill="#37474f"/></g><path d="M170.37,176.338a4.683,4.683,0,0,0-2.918-3.077,1.493,1.493,0,0,0-1.493.2h0l-8.524,8.073h0a1.492,1.492,0,0,0-.277,1.477,4.683,4.683,0,0,0,2.918,3.077,1.508,1.508,0,0,0,1.5-.205h0l8.524-8.073h0a1.5,1.5,0,0,0,.272-1.472Z" transform="translate(-131.528 -145.477)" fill="#37474f"/><path d="M171.562,179.474a1.5,1.5,0,0,0,.287-1.487,4.1,4.1,0,0,0-.723-1.457l-11,10.427a4.144,4.144,0,0,0,1.41.795,1.508,1.508,0,0,0,1.5-.205l8.524-8.073Z" transform="translate(-133.018 -147.125)" fill="#263238"/><path d="M109.578,209.664h0l22.439-19.777h0a1.954,1.954,0,0,1,1.918-.246,6.1,6.1,0,0,1,3.8,4.006,1.949,1.949,0,0,1-.374,1.934l-20.8,21.567h0a5.067,5.067,0,0,1-2.349,1.313,5.129,5.129,0,0,1-4.652-8.765Z" transform="translate(-107.577 -153.44)" fill="#f8951d"/><path d="M109.182,211.206a2.488,2.488,0,0,0,2.431,4.077,2.513,2.513,0,0,0,1.026-.513h0l23.213-22.3a5.734,5.734,0,0,1,1.585,2.605,1.949,1.949,0,0,1-.374,1.934l-20.8,21.567h0a5.129,5.129,0,1,1-7.078-7.37Z" transform="translate(-107.269 -154.89)" opacity="0.2"/></g></g><g transform="translate(184.567 46.85)"><g transform="translate(0 0)"><g transform="translate(0 27.625)"><path d="M369.617,183.518a.81.81,0,0,1,.9.39c.118-.1.19-.262.333-.308s.354.1.467.241a3.447,3.447,0,0,1,.056,4.057.625.625,0,0,1-.195.19.605.605,0,0,1-.3.041,6.831,6.831,0,0,1-1.61-.241,1.754,1.754,0,0,1-1.287-.908,2.052,2.052,0,0,1,.036-1.164,3.047,3.047,0,0,1,.641-1.4C368.894,184.144,369.274,183.605,369.617,183.518Z" transform="translate(-360.72 -143.056)" fill="#9a4a4d"/><path d="M357.945,135.321c-4.2-5.021-4.2-6.088-2.965-9.006a124.639,124.639,0,0,1,7.765-12.4c4.1-5.985,6.262-6.832,8.955-7.483l-.313,11.889-6.668,11.109s4.857,8.206,5.806,10.581c1.364,3.375.887,7.786-1.79,10.032s-3.329,2.539-5.5,2.1-2.739-.641-2.944-1.364c-.513-1.805-.805-2.052.292-3.077.626-.6,1.154-1.2,1.492-1.457a.318.318,0,0,1,.467.1c.61,1.026-.81,2.539-.81,2.539a8.72,8.72,0,0,1,2.144.692c.272-1.913-.18-3,.19-3.99.236-.636.672-1.708.236-2.231C363.387,142.23,360.556,138.45,357.945,135.321Z" transform="translate(-354.074 -105.517)" fill="#b16668"/><path d="M370.164,151.27a5.714,5.714,0,0,1-4.744,1.159,4.908,4.908,0,0,0,5.1-.574" transform="translate(-359.508 -127.359)" fill="#9a4a4d"/><path d="M372.237,104.65c-3.37.831-5.375,1.369-8.678,6.314-1.759,2.636-8.581,13.145-9.288,15.223s-.549,3.247,1.575,6.016c2.231,2.913,3.7,4.585,3.7,4.585s1.831-2.021,7.9-3.2l-2.688-4.955,7.478-9.627Z" transform="translate(-353.893 -104.65)" fill="#e6e6e6"/><path d="M369.722,151.41c-.815,1.272-4.216,1.646-5.642,1.385,1.857,1.287,4.985.7,6.026-.651Z" transform="translate(-358.855 -127.427)" opacity="0.1"/></g><g transform="translate(1.487 60.455)"><path d="M391.579,338.991l-2.939-.882.846-1.928,1.857,1.487Z" transform="translate(-372.305 -250.26)"/><path d="M379.1,331.57s.21,1.8.267,2.37-2.37,2.482-2.98,2.806l-.236-1.323a10.407,10.407,0,0,0-1.334,2.241,10.585,10.585,0,0,1-2.257,3.529c-1.9,1.667-4.939,2.626-8.083,2.913s-4.98-.354-5.909-.964A1.972,1.972,0,0,1,357.495,341C357.674,340.222,379.1,331.57,379.1,331.57Z" transform="translate(-357.111 -248.015)" fill="#263238"/><path d="M370.039,319.376l-.092-1.026c-.58,0-.569,1.539-1.344,2.918a27.389,27.389,0,0,1-4.144,5.7c-3.047,2.98-5.8,4.9-7.18,6.242-1.816,1.8,1.672,4.288,6.8,3.724,2.564-.282,7-1.769,8.206-3.293s1.857-3.831,2.821-4.939,3.077-2.3,3.662-3.616c.313-.723.2-1.708.062-3.662-.092-1.293,0-3.39-.723-3.19v.662a5.893,5.893,0,0,1-3.688,2.077C373.388,321.186,370.331,321.443,370.039,319.376Z" transform="translate(-356.792 -241.514)" fill="#37474f"/><path d="M379.035,322.753a2.826,2.826,0,0,1-2.513-1.108v-.026a2.354,2.354,0,0,1-.559,2.052c-.862,1.087-6.283,8.719-6.283,8.719s5.083-6.324,6.062-7.519c1.441-1.759,1.918-1.985,3.313-2.108Z" transform="translate(-363.07 -243.168)" opacity="0.15"/><path d="M385.616,327.4a.308.308,0,0,0,.359.246.3.3,0,0,0,.262-.349.315.315,0,1,0-.621.1Z" transform="translate(-370.83 -245.807)" opacity="0.15"/><path d="M382.827,330.729a.313.313,0,0,0,.359.251.3.3,0,1,0-.359-.251Z" transform="translate(-369.472 -247.436)" opacity="0.15"/><path d="M380,334.033a.314.314,0,1,0,.259-.362A.314.314,0,0,0,380,334.033Z" transform="translate(-368.093 -249.036)" opacity="0.15"/><path d="M377.247,337.355a.313.313,0,1,0,.262-.349.308.308,0,0,0-.262.349Z" transform="translate(-366.754 -250.661)" opacity="0.15"/><path d="M374.456,340.664a.314.314,0,0,0,.621-.1.308.308,0,0,0-.359-.246.3.3,0,0,0-.262.349Z" transform="translate(-365.394 -252.272)" opacity="0.15"/><path d="M382.773,326.575a.108.108,0,0,0,.077-.036.123.123,0,0,0,0-.174,5.252,5.252,0,0,0-3.621-1.154h0a.123.123,0,1,0,.031.241,5.042,5.042,0,0,1,3.426,1.1.123.123,0,0,0,.087.026Z" transform="translate(-367.659 -244.912)" fill="#263238"/><path d="M380,329.88a.159.159,0,0,0,.077-.041.123.123,0,0,0,0-.174,5.252,5.252,0,0,0-3.621-1.154h0a.123.123,0,0,0-.108.138.118.118,0,0,0,.138.1,5.129,5.129,0,0,1,3.426,1.1A.128.128,0,0,0,380,329.88Z" transform="translate(-366.318 -246.52)" fill="#263238"/><path d="M377.211,333.2a.128.128,0,0,0,.077-.041.118.118,0,0,0,0-.169,5.227,5.227,0,0,0-3.621-1.154h0a.118.118,0,0,0-.108.133.128.128,0,0,0,.138.108,5.057,5.057,0,0,1,3.426,1.1A.149.149,0,0,0,377.211,333.2Z" transform="translate(-364.959 -248.141)" fill="#263238"/><path d="M374.421,336.52a.159.159,0,0,0,.077-.041.123.123,0,0,0,0-.174,5.252,5.252,0,0,0-3.621-1.154h0a.122.122,0,1,0,.031.241,5.057,5.057,0,0,1,3.426,1.1A.154.154,0,0,0,374.421,336.52Z" transform="translate(-363.6 -249.754)" fill="#263238"/><path d="M371.631,339.83a.159.159,0,0,0,.077-.041.123.123,0,0,0,0-.174,5.252,5.252,0,0,0-3.621-1.154h0a.124.124,0,1,0,.031.246,5.093,5.093,0,0,1,3.426,1.092A.128.128,0,0,0,371.631,339.83Z" transform="translate(-362.241 -251.366)" fill="#263238"/><path d="M430.08,356.253a10.991,10.991,0,0,0,1.539,5.375c.908,1.39,2.78,1.723,4.206,1.575a5.929,5.929,0,0,0,5.073-3.965,10.327,10.327,0,0,0,.046-5.7Z" transform="translate(-392.491 -258.717)" fill="#263238"/><path d="M436.953,324.54c.7.041.985,3.262,1.467,6.488.513,3.452,1.662,5.37,2.052,7.693.574,3.226.38,4.683-.754,6.668s-6.2,4.047-8.319,1.277c-1.734-2.262-1.867-4.8-1.8-8.042a78.633,78.633,0,0,0-.046-8.242c-.195-2.426-.431-4.775.169-5.057.056.354.113.805.169,1.154s.149,1.585.513,1.59a5,5,0,0,0,0-.918,1.026,1.026,0,0,1,.169-.785,1.338,1.338,0,0,1,.764-.349c.682-.138,1.369-.272,2.052-.344.349-.036.692-.056,1.026-.062a12.019,12.019,0,0,1,1.826.041.6.6,0,0,1,.385.323.893.893,0,0,1,.046.369,2.413,2.413,0,0,0,.108.662c0,.1.1.21.195.19s.113-.118.108-.2c0-.39-.062-.677-.092-1.128,0-.21-.056-.513-.067-.708S436.973,324.776,436.953,324.54Z" transform="translate(-392.132 -244.59)" fill="#37474f"/><path d="M445.691,353.653a.236.236,0,0,1-.21.262.241.241,0,0,1-.272-.205.236.236,0,0,1,.21-.262.241.241,0,0,1,.272.205Z" transform="translate(-399.859 -258.671)" opacity="0.15"/><path d="M445.13,349.293a.236.236,0,0,1-.21.262.241.241,0,0,1-.272-.205.231.231,0,0,1,.21-.262A.241.241,0,0,1,445.13,349.293Z" transform="translate(-399.586 -256.547)" opacity="0.15"/><path d="M444.6,345.184a.236.236,0,0,1-.21.262.241.241,0,0,1-.272-.205.231.231,0,0,1,.21-.262.246.246,0,0,1,.272.205Z" transform="translate(-399.328 -254.545)" opacity="0.15"/><path d="M444.071,341.133a.231.231,0,0,1-.21.262.241.241,0,0,1-.272-.205.236.236,0,0,1,.21-.262A.241.241,0,0,1,444.071,341.133Z" transform="translate(-399.07 -252.572)" opacity="0.15"/><path d="M433.35,341.973a.236.236,0,0,1-.21.262.241.241,0,0,1-.272-.205.231.231,0,0,1,.21-.262.241.241,0,0,1,.272.205Z" transform="translate(-393.848 -252.981)" opacity="0.15"/><path d="M433.88,346.054a.243.243,0,0,1-.482.056.231.231,0,0,1,.21-.262A.246.246,0,0,1,433.88,346.054Z" transform="translate(-394.106 -254.969)" opacity="0.15"/><path d="M434.41,350.163a.236.236,0,0,1-.21.262.241.241,0,0,1-.272-.205.231.231,0,0,1,.21-.262.241.241,0,0,1,.272.205Z" transform="translate(-394.364 -256.971)" opacity="0.15"/><path d="M434.971,354.523a.231.231,0,0,1-.21.262.241.241,0,0,1-.272-.205.236.236,0,0,1,.21-.262A.241.241,0,0,1,434.971,354.523Z" transform="translate(-394.638 -259.094)" opacity="0.15"/><path d="M437.332,341.878l-2.262-15.587.9-.031Z" transform="translate(-394.922 -245.428)" opacity="0.15"/><path d="M440.355,353.761h-.036a11.292,11.292,0,0,0-5.421.421.133.133,0,0,1-.169-.051.118.118,0,0,1,.056-.159,11.3,11.3,0,0,1,5.58-.441.116.116,0,0,1-.01.231Z" transform="translate(-394.749 -258.635)" fill="#263238"/><path d="M439.794,349.309a.138.138,0,0,1-.067,0c-1.241-.539-4.18-.174-5.4.431a.123.123,0,0,1-.164-.056.118.118,0,0,1,.051-.159c1.267-.626,4.3-1,5.611-.431a.118.118,0,0,1,.062.154A.128.128,0,0,1,439.794,349.309Z" transform="translate(-394.476 -256.414)" fill="#263238"/><path d="M439.257,345.2a.128.128,0,0,1-.062,0,8.955,8.955,0,0,0-5.4.431.123.123,0,0,1-.164-.051.118.118,0,0,1,.051-.164c1.267-.626,4.3-1,5.606-.431a.113.113,0,0,1,.067.154A.133.133,0,0,1,439.257,345.2Z" transform="translate(-394.215 -254.412)" fill="#263238"/><path d="M438.735,341.147h-.067c-1.241-.539-4.175-.174-5.391.426a.128.128,0,0,1-.169-.051.118.118,0,0,1,.056-.159c1.262-.626,4.3-1,5.606-.436a.123.123,0,0,1-.036.231Z" transform="translate(-393.96 -252.438)" fill="#263238"/><path d="M409.448,168.66c1.677,19.7,2.005,48.725,2.005,48.725.149,1.5,1.513,4.493,1.734,11.909.272,9.047-.636,21.844-.636,21.844s-4.616,2.5-9.2,1.026c0,0-4.847-17.577-6.586-28.953-1.359-8.858-3.7-25.414-3.7-25.414l-1.287,16.725s.339,5.642.174,9.545c-.185,4.575-3.267,23.157-3.267,23.157s-5.355,2.657-10.283.164c0,0-1.416-27.04-1.569-32.538-.3-10.771.051-32.04.415-45.97Z" transform="translate(-366.5 -168.66)" fill="#263238"/><path d="M379.35,317a8.4,8.4,0,0,0,4.283,1.262A20.114,20.114,0,0,0,390.608,317l-.477,3.006a12.31,12.31,0,0,1-6.457,1.169c-3.647-.354-4.206-1.128-4.206-1.128Z" transform="translate(-367.78 -240.918)" fill="#455a64"/><path d="M437.4,324.68a14.453,14.453,0,0,1-5.129,1.421,12.638,12.638,0,0,1-5.129-.61l.477,3.006s1.569,1.067,5.216.713,4.488-1.482,4.488-1.482Z" transform="translate(-391.059 -244.659)" fill="#455a64"/><path d="M423.89,216.44q.272,6.339.682,12.684.2,3.17.431,6.339l.231,3.17.118,1.585c.036.513.133,1.051.195,1.58.559,4.211,1.349,11.843,1.985,16.048s1.318,8.406,2.077,12.6q-.585-6.334-1.354-12.653c-.513-4.211-1.246-11.843-1.831-16.048-.067-.513-.164-1.026-.205-1.58l-.128-1.585-.277-3.165q-.277-3.159-.585-6.324Q424.629,222.764,423.89,216.44Z" transform="translate(-389.476 -191.934)"/><path d="M384.375,217.48c-.559,3.739-.877,7.5-1.123,11.284s-.477,7.539-.354,11.309.1,10.089.226,13.848.282,7.545.513,11.314q.18-5.642.185-11.284c0-3.77,0-10.089-.026-13.848l-.051-2.831v-1.405l.036-1.41.159-5.642.185-5.642C384.18,221.245,384.277,219.362,384.375,217.48Z" transform="translate(-369.491 -192.441)"/><path d="M398.658,212.266,396.606,201.5s-5.549-.759-8.406-3.206c0,0,1.846,3.247,7.088,4.5l2.041,9.514.051,16.689Z" transform="translate(-372.091 -183.093)"/></g><g transform="translate(11.968)"><g transform="translate(0.007 25.881)"><path d="M408.824,104.363s3.626,2.662,2.293,9.647a98.93,98.93,0,0,0-1.58,13.781c-.087,3.657.795,14.51.795,14.51-5.36,6.837-29.876,5.867-33.092,0,0,0,.436-24.66,1.539-30.091.964-4.739,3.077-7.827,4.831-9.232l7.124-1.728,7.878.154Z" transform="translate(-377.24 -101.25)" fill="#f5f5f5"/></g><g transform="translate(5.619)"><path d="M408.042,57.462a3.359,3.359,0,0,0-2.564-2.277c-.513-2.252-3.842-4.883-8.386-4.319s-6.77,1.964-8.206,4.724a4.822,4.822,0,0,0-.215,4.683l13.3-.857a12.354,12.354,0,0,0,.159,1.9,11.642,11.642,0,0,0,2.277,4.385v2.836l.138,4.057a2.611,2.611,0,0,0,1.441-1.3,27.391,27.391,0,0,0,1.539-5.934C408.186,61.894,408.663,59.016,408.042,57.462Z" transform="translate(-388.184 -50.789)" fill="#37474f"/><path d="M408.059,74.028c-1.441,1.026-2.872-.405-2.872-.405l.149,7.919a4.738,4.738,0,0,1-2.513,3.647c-3.524,2.226-5.052,3.39-6.488,5.642-1.39-3.534-3.477-5.934-1.308-8.806l-.036-1.9a17.572,17.572,0,0,1-1.964-.092c-1.877-.185-3.134-1.59-3.806-3.59-1.087-3.185-1.246-8.847.1-14.694,2.349-2.011,8.437-2.108,12.976.405,0,3.713,1.128,5.3,1.2,6.668a3.688,3.688,0,0,0,.862,1c.718.549,1.18-1.026,1.718-1.646a2.024,2.024,0,0,1,3.4.364C410.516,70.438,409.31,73.125,408.059,74.028Z" transform="translate(-388.267 -55.399)" fill="#b16668"/><path d="M406.16,70.038l1.97,1.072a1.169,1.169,0,0,0-.472-1.539,1.087,1.087,0,0,0-1.5.467Z" transform="translate(-396.939 -59.873)" fill="#263238"/><path d="M391.2,70.135l2.128-.759a1.082,1.082,0,0,0-1.405-.708,1.185,1.185,0,0,0-.723,1.467Z" transform="translate(-389.625 -59.467)" fill="#263238"/><path d="M406.566,74.152a.913.913,0,1,1-.284-.641.913.913,0,0,1,.284.641Z" transform="translate(-396.248 -61.735)" fill="#263238"/><path d="M394,73.976a.913.913,0,1,1-.939-.892.836.836,0,0,1,.939.892Z" transform="translate(-390.125 -61.646)" fill="#263238"/><path d="M397.974,72.05l-.4,5.847-3.134-.949Z" transform="translate(-391.23 -61.145)" fill="#9a4a4d"/><path d="M389.221,74.71h-.041A.067.067,0,0,0,389.221,74.71Z" transform="translate(-388.668 -62.441)" fill="#9a4a4d"/><path d="M389.285,74.715l-.005-.005h0Z" transform="translate(-388.717 -62.441)" fill="#9a4a4d"/><path d="M400.766,66.227a3.365,3.365,0,0,0-1.7,0,9.458,9.458,0,0,1-1.739.164c-1.067-.046-2.17-.713-3.236-.38-.026,0-.036.062,0,.062a4.1,4.1,0,0,1,1.682.241,6.667,6.667,0,0,0,1.6.374,6.555,6.555,0,0,0,1.759-.18c.272-.056.539-.108.81-.149a4.929,4.929,0,0,0,.826-.118S400.786,66.232,400.766,66.227Z" transform="translate(-391.047 -58.159)" fill="#9a4a4d"/><path d="M403.434,75.388c-.154,3.985-1.539,4.272-2.939,4.519-1.867.323-2.806-.682-6.155-.656a7.311,7.311,0,0,0-3.816,1.113c-.851.359-1.739.313-1.882-.513a28.508,28.508,0,0,1-.287-5.16,37.831,37.831,0,0,0,0,7.237c.292,1.867.805,3.616,1.846,4.483,1.446,1.2,4.467,1.359,8.206.513s5.129-2.113,5.555-3.441c1.431-4.308.836-6.334,1.323-7.15S403.434,75.388,403.434,75.388Z" transform="translate(-388.182 -62.431)" fill="#37474f"/><path d="M398.6,85.895c1.913-.056,2.564.287,2.647,1.6.149,1.872.056,2.5-.656,2.611-.846.118-1.462.174-1.5-.354a2.083,2.083,0,0,1,.113-1.205c.292-.359.19-.41-.651-.385s-.826.174-.574.431.169.831.174,1.2-.087.564-1.3.456c-1.057-.092-.882-.939-.877-2.564C395.982,86.613,396.433,85.946,398.6,85.895Z" transform="translate(-391.972 -67.886)" fill="#b16668"/><path d="M401.1,86.82l-2.564.374a1.262,1.262,0,0,0,1.426,1.123A1.349,1.349,0,0,0,401.1,86.82Z" transform="translate(-393.227 -68.34)" fill="#9a4a4d"/><path d="M401.755,87.571a1.266,1.266,0,0,1,.313,0,1.323,1.323,0,0,1-1.1,1.082,1.221,1.221,0,0,1-.41,0,1.175,1.175,0,0,1,1.2-1.082Z" transform="translate(-394.211 -68.701)" fill="#f28f8f"/></g><g transform="translate(8.482 28.256)"><path d="M399.633,111.07a13.494,13.494,0,0,1-1.3-3.539l1.626-1.652.472,4.139Z" transform="translate(-395.989 -105.88)" fill="#f8951d"/><path d="M399.633,111.07a13.494,13.494,0,0,1-1.3-3.539l1.626-1.652.472,4.139Z" transform="translate(-395.989 -105.88)" opacity="0.2"/><path d="M405.18,112.522l2.764-1.852,2.277,1.559-4.231,2.123Z" transform="translate(-399.326 -108.213)" fill="#f8951d"/><path d="M405.18,112.522l2.764-1.852,2.277,1.559-4.231,2.123Z" transform="translate(-399.326 -108.213)" opacity="0.2"/><path d="M400.81,142.679a133.544,133.544,0,0,1-1.375-22.3l-1.5-.154c-1.062,2.564-4.2,15.13-4.165,21.244-.092,2.128,2.621,7.863,4.057,7.924S401.035,143.951,400.81,142.679Z" transform="translate(-393.766 -112.87)" fill="#f8951d"/><path d="M400.81,142.679a133.544,133.544,0,0,1-1.375-22.3l-1.5-.154c-1.062,2.564-4.2,15.13-4.165,21.244-.092,2.128,2.621,7.863,4.057,7.924S401.035,143.951,400.81,142.679Z" transform="translate(-393.766 -112.87)" fill="#fff" opacity="0.1"/><path d="M401.65,120.533c.051-.133.082-.226.123-.323h0l1.5.154h0a5.42,5.42,0,0,0,0,.662,2.626,2.626,0,0,1-1.626-.492Z" transform="translate(-397.606 -112.86)" opacity="0.5"/><path d="M403.122,113.794a6.442,6.442,0,0,0-1.421-.067,3.359,3.359,0,0,0-.831,1.154,5.185,5.185,0,0,0,.513,2.164,1.8,1.8,0,0,0,1.5.154,3.17,3.17,0,0,0,1.092-1.436,2.857,2.857,0,0,0-.857-1.97Z" transform="translate(-397.226 -109.696)" fill="#f8951d"/><path d="M403.122,113.794a6.442,6.442,0,0,0-1.421-.067,3.359,3.359,0,0,0-.831,1.154,5.185,5.185,0,0,0,.513,2.164,1.8,1.8,0,0,0,1.5.154,3.17,3.17,0,0,0,1.092-1.436,2.857,2.857,0,0,0-.857-1.97Z" transform="translate(-397.226 -109.696)" fill="#fff" opacity="0.1"/></g><path d="M402.648,103.055a37.55,37.55,0,0,1-4.662,10.345,106.567,106.567,0,0,1-9.2,11.5s-3.077-11.391,0-22.66l-6.232,1.539s-4.313,3.365-4.867,12.094-.456,29.091-.456,29.091a19.71,19.71,0,0,0,8.206,4.452l1.026-5.155,1.6,5.867a24.762,24.762,0,0,0,13.7-.713c7.534-2.564,9.437-5.467,9.437-5.467s-1.267-11.114-1.026-15.669,1.267-10.627,1.508-14.253a33.625,33.625,0,0,0-1.113-8.719Z" transform="translate(-377.227 -75.851)" fill="#455a64"/><path d="M405.2,105.443c.051,0,.113.113.159.123,1.051-.564,1.216-.754,1.492-.677.513.154,1.77,2.344,2.077,3.077s.251.7,1.221.056a17.351,17.351,0,0,0,4.385-4.226,12.821,12.821,0,0,0,1.739-3.477s-1.1-1.539-1.426-2.1c-.621-1.128-.718-1.723-1.359-1.626l-.051,1.026c-.113.98-1.344,1.79-2.718,2.97s-3.59,2.308-4.1,2.816A10.6,10.6,0,0,0,405.2,105.443Z" transform="translate(-390.853 -73.094)" fill="#e6e6e6"/><path d="M395.4,107.642c.154.4,1.426-2.729,2.052-2.662.3,0,.98.872,1.539,1.769h.426a9.745,9.745,0,0,1-.646-2.38,29.333,29.333,0,0,1,.3-4.231l-.077-.749h-.549a4.324,4.324,0,0,0-.544.733c-.61,1-2.2,2.821-2.4,4.016A10.448,10.448,0,0,0,395.4,107.642Z" transform="translate(-386.03 -74.463)" fill="#e6e6e6"/><g transform="translate(11.67 28.994)"><path d="M436.428,107.32c4.149.728,6.185,3.334,8.011,8.719,2.493,7.365,4.683,14.623,5.155,18.31l-9.791-2.677-5.237-10.545S432.206,112.593,436.428,107.32Z" transform="translate(-416.507 -107.32)" fill="#e6e6e6"/><path d="M399.98,166.954l21.182-3.257,3.221-27.158L403.2,139.8Z" transform="translate(-399.98 -121.553)" fill="#f8951d"/><path d="M399.98,166.954l21.182-3.257,3.221-27.158L403.2,139.8Z" transform="translate(-399.98 -121.553)" opacity="0.2"/><path d="M401.51,166.49l20.3-3.124,3.006-25.327-20.3,3.124Z" transform="translate(-400.725 -122.284)" fill="#fafafa"/><path d="M403.814,158.082l2.052-17.1,18.977-4.462L421.616,163.7l-20.075,4.713a.513.513,0,0,1-.641-.595l1.026-8.658a.975.975,0,0,1,.7-.795Z" transform="translate(-400.423 -121.544)" fill="#f8951d"/><path d="M433.708,154.661c0,2.785-.415,3.247-3.467,4.811a58.182,58.182,0,0,1-16.869,4.565c-3.98.385-6.026.195-7.57-.415a6.386,6.386,0,0,1-4.006-6.986c-.662-1.923.344-2.185,1.175-2.39l-.154,1.257a7.512,7.512,0,0,0,3.431,1.236c1.646.021.118-1.9-.18-3.077s-.231-1.831.718-2.38c.539,0,.713.733,2.37,2.385,1.262,1.251,2.241,3.544,4.2,3.277,1.539-.21,10.617-4.421,10.617-4.421l.41-3.483Z" transform="translate(-400.76 -127.642)" fill="#b16668"/><path d="M447.695,153.336c.118,1.734-.19,2.641-.99,3.39a26.39,26.39,0,0,1-6.155,3.011c-2.052.708-7.345,2.144-8.365,2.334,1.057-1.652.8-4.9-.1-6.365a1.894,1.894,0,0,0-2.077-1.1l7.822-3.518.564-4.765Z" transform="translate(-414.608 -126.317)" fill="#e6e6e6"/></g></g></g></g><g transform="translate(104.512 87.929)"><g transform="translate(0 56.479)"><path d="M232.957,422.671l-1.887-.923,1.857-.528Z" transform="translate(-214.009 -328.787)" fill="#263238"/><path d="M198.127,422.6s22.224-10.2,22.511-8.694a2.236,2.236,0,0,1,0,.908l.062-.082-.4,2.821a6.632,6.632,0,0,1-3.462,1.472c0-.133,0-.974-.031-1.451a11.594,11.594,0,0,0-1.959,1.057c-1.421.954-2.334,2.621-3.842,4.56-1.1,1.41-3.077,2.077-5.975,2.5-3.139.462-5.909-.133-6.668-.974A2.187,2.187,0,0,1,198.127,422.6Z" transform="translate(-197.879 -325.15)" fill="#263238"/><path d="M198.916,406.3c.215-.226,1.026-1.108,2.077-2.052a40.846,40.846,0,0,1,3.2-2.77,12.238,12.238,0,0,0,1.59-1.333,16.778,16.778,0,0,0,1.092-1.334,24.44,24.44,0,0,0,2.667-4.616,10.638,10.638,0,0,0,.928-2.416,15.063,15.063,0,0,0,.251-2.672c0-4.042-.077-4.683-.108-7.76l9.412.272c-.3,1.708-.759,4.036-.913,5.975-.236,2.949-.313,3.59.841,6.539a8.623,8.623,0,0,1,.892,2.621,4.185,4.185,0,0,1-2.411,3.559c-1.087.615-2.339.882-3.4,1.539a11,11,0,0,0-2.764,2.749,10.8,10.8,0,0,1-2.39,2.8,9.8,9.8,0,0,1-3.621,1.277,19.531,19.531,0,0,1-4.872.267C199.09,408.79,197.361,407.954,198.916,406.3Z" transform="translate(-198.057 -309.366)" fill="#ffbda7"/><path d="M207.338,413.214a4.154,4.154,0,0,0-3.452-.3c-1.641,1.313-3,2.482-3.949,3.3-1.164.99-2.18,1.9-2.128,3.026.072,1.77,6.914,2.272,10.73.58a4.775,4.775,0,0,0,2.693-2.39S210.656,414.948,207.338,413.214Zm12.976-6.421c-.59-1.133-.816-1.713-.816-1.713a7.068,7.068,0,0,0-2.564,7.432,5.062,5.062,0,0,0,3.339-2.3,3.211,3.211,0,0,0,.041-3.416Z" transform="translate(-197.806 -320.925)" fill="#37474f"/><path d="M273.617,412.506c-.631,1.026.174,4.837,0,7.555-.133,2.467-.805,6.775-.051,9.232.892,2.9,2.713,6.257,6.119,3.559,2.113-1.677,3.329-3.847,3.621-7.4.21-2.472-.769-5.893-1.61-8.929-.98-3.544-1.349-5.442-1.349-5.442Z" transform="translate(-234.538 -323.847)" fill="#263238"/><path d="M278.069,378.36c.231,5.765-.451,9.806-.513,13.5a26.063,26.063,0,0,0,.513,4.985c.482,2.359,1.292,5.642,1.636,7.18.477,2.134.836,3.483.092,5.873a2.8,2.8,0,0,1-.241.539c-1.026,1.97-3.657,3.452-4.493,3.211a1.441,1.441,0,0,1-1.472.513,1.871,1.871,0,0,1-.282-.067,2.087,2.087,0,0,1-.277-.113,2.867,2.867,0,0,1-1.39-1.816,4.873,4.873,0,0,1-.133-.513,18.418,18.418,0,0,1-.092-6.052c.067-1.339,0-3.047-.118-5.206a99.861,99.861,0,0,0-1.354-12.207c-.549-2.267-1.236-5.129-1.964-8.14Z" transform="translate(-231.989 -307.909)" fill="#ffbda7"/><path d="M283.277,433.224c-2.052-.918-8.047-1.062-9.006,1.852-.036,2.744-.056,4.616,1.672,6.991,2.293,3.18,5.3-.174,6.462-2.308A10.993,10.993,0,0,0,283.277,433.224Z" transform="translate(-235.048 -334.348)" fill="#37474f"/><path d="M246.136,241c2.9,5.231,5.057,9.509,5.421,25.132s.339,19.967.405,21.849,1.18,5.237,2.185,14.5-.318,22.839-.318,22.839-.467,1.364-4.011,1.7c-3.267.313-4.616-1.026-4.616-1.026s-4.775-20.341-6.042-25.916-4.955-23.911-4.955-23.911l-1.128,14.9A110.082,110.082,0,0,1,232.2,304.3c-.959,8.129-2.944,18.664-2.944,18.664a9.13,9.13,0,0,1-4.949,1.539,8.463,8.463,0,0,1-4.411-1.128s-1.749-27.04-1.8-36.251-1.154-32.184,1.682-45.832Z" transform="translate(-207.57 -241)" fill="#455a64"/><path d="M263.906,255c.374,1.493.708,3,1.067,4.5s.7,3.006,1.082,4.519a30.774,30.774,0,0,0-.328-4.662c-.21-1.539-.513-3.077-.867-4.585a40.525,40.525,0,0,0-1.354-4.478,21.793,21.793,0,0,0-2.016-4.216c.472,1.487.892,2.965,1.292,4.452S263.552,253.507,263.906,255Z" transform="translate(-228.827 -243.475)" fill="#37474f"/><path d="M268.445,252.647c.513.9.985,1.81,1.472,2.723l1.431,2.78a12.77,12.77,0,0,0-.728-3.077,20.34,20.34,0,0,0-1.313-2.888,22.841,22.841,0,0,0-1.728-2.652,16.739,16.739,0,0,0-2.118-2.354c.467.954.975,1.862,1.482,2.77S267.958,251.74,268.445,252.647Z" transform="translate(-230.761 -244.01)" fill="#37474f"/><path d="M225.14,267.29c1.41,3.8,6.473,6.437,8.719,6.955l2.672,14.525.1,15.094,1.128-14.9-3.021-17.715S228.582,270.855,225.14,267.29Z" transform="translate(-211.121 -253.806)" fill="#37474f"/><path d="M224.745,308.93c-.041-2.087.072-10.422.18-12.54l.733-12.709c-.636,4.2-1.123,8.422-1.5,12.653s-.339,8.468-.333,12.761c.164,4.272.144,8.483.513,12.715s.81,8.452,1.328,12.668q-.205-6.37-.564-12.72S224.8,311.027,224.745,308.93Z" transform="translate(-210.48 -261.79)" fill="#37474f"/><path d="M265.934,326.762c-.872-4.79-1.805-9.591-2.739-14.361s-1.539-9.591-2.211-14.412-1.257-9.663-1.954-14.489c.318,4.867.692,9.745,1.2,14.576s1.108,9.7,2.005,14.5,1.913,9.565,2.939,14.33,2.087,9.519,3.221,14.264Q267.262,333.953,265.934,326.762Z" transform="translate(-227.629 -261.702)" fill="#37474f"/></g><g transform="translate(3.191)"><path d="M221.36,184.59c-3.811,1.113-4.56,1.169-6.6,2.385s-3.636,2.99-7.893,12.6c-2.021,4.565-3.852,11.632-2.19,13.5s6.216,1.6,6.216,1.6l2.052-5.042Z" transform="translate(-204.028 -157.043)" fill="#f8951d"/><path d="M221.36,184.59c-3.811,1.113-4.56,1.169-6.6,2.385s-3.636,2.99-7.893,12.6c-2.021,4.565-3.852,11.632-2.19,13.5s6.216,1.6,6.216,1.6l2.052-5.042Z" transform="translate(-204.028 -157.043)" fill="#fff" opacity="0.2"/><path d="M215.878,223.917A13.022,13.022,0,0,0,209,226.784s1.2-3.129,6.986-4.334Z" transform="translate(-206.45 -175.485)" fill="#f8951d" opacity="0.8"/><path d="M239.7,181.13l7.565,2.416c1.3.456,6.191,3.5,4.416,10.889-.59,2.441-1.39,5.873-2.113,9.3-.554,2.621,1.369,7.693,2.893,15.746,0,0-6.545,5.129-19.454,3.59-9.848-1.19-10.889-4.888-10.889-4.888.344-9.176,1.185-12.715,1.2-16.2a8.4,8.4,0,0,1-1.467-4.888c-.036-3.272.836-5.026,3.8-8.719,2.821-3.508,4.549-5.339,4.549-5.339Z" transform="translate(-212.708 -155.358)" fill="#fafafa"/><path d="M251.846,146.15c-1.8,3.636-3.77,4.934-5.442,8.206-4.062-.256-8.935-6.811-13.561-9.653-2.7-1.662-4.442-3.708-3.59-6.975,1.4-5.37,5.919-8.119,13.545-6.273,3.077.754,6.462,3.334,6.991,6.852C253.533,139.759,253.051,143.713,251.846,146.15Z" transform="translate(-216.209 -130.882)" fill="#263238"/><path d="M234.894,142.929c-.821.349-2.175,2.231-2.662,9.663-.395,6.016,1.641,8.206,2.8,8.781a9.991,9.991,0,0,0,3.985.682l-.056,2.18c-1.677,1.292-2.564,4.739-1.431,7.545,5.237-1.236,8.853-3.98,10.345-6.56l.149-6.98a2.742,2.742,0,0,0,3.416-.21,3.66,3.66,0,0,0,.933-4.949,2.734,2.734,0,0,0-4.354.415s-2.4,1.539-2.108-2.267c.333-4.272-1.236-8.622-4.19-7.816C236.428,144.852,236.582,142.17,234.894,142.929Z" transform="translate(-217.742 -136.683)" fill="#ffbda7"/><path d="M245.505,177.388c1.954-.072,5.9-1.026,6.934-3.118a4.535,4.535,0,0,1-1.539,2.739,13.287,13.287,0,0,1-5.4,1.636Z" transform="translate(-224.229 -152.017)" fill="#f0997a"/><path d="M241.731,155.99l-.821,5.483-2.4-1.18Z" transform="translate(-220.824 -143.112)" fill="#f0997a"/><path d="M246.175,168.5l-2.975.923a1.539,1.539,0,0,0,1.923,1.082A1.631,1.631,0,0,0,246.175,168.5Z" transform="translate(-223.109 -149.206)" fill="#b16668"/><path d="M246.817,171.027a1.365,1.365,0,0,1-.19.036,1.416,1.416,0,0,1,1.292-1.493A1.605,1.605,0,0,1,246.817,171.027Z" transform="translate(-224.778 -149.727)" fill="#f28f8f"/><path d="M235.992,157.193c-.195.426.1.6.513.78s.785.313.974-.113a.815.815,0,1,0-1.482-.667Z" transform="translate(-219.568 -143.433)" fill="#263238"/><path d="M237.137,156.893a2.051,2.051,0,0,0-.59-.277,1.846,1.846,0,0,0-.626-.087,2.052,2.052,0,0,0-.657.128s-.036.051,0,.051h.58a3.252,3.252,0,0,1,.7.149,2.989,2.989,0,0,1,.769.369l.246.164s.046-.041.036-.062A1.431,1.431,0,0,0,237.137,156.893Z" transform="translate(-219.236 -143.374)" fill="#263238"/><path d="M237.158,151.928l-1.893.61a1.026,1.026,0,0,1,.667-1.282.964.964,0,0,1,1.226.672Z" transform="translate(-219.221 -140.784)" fill="#263238"/><path d="M250.385,158.22c.113.451-.205.569-.641.682s-.826.164-.939-.287a.815.815,0,1,1,1.58-.395Z" transform="translate(-225.821 -143.875)" fill="#263238"/><path d="M248.674,157.695a2.015,2.015,0,0,1,.626-.164,1.631,1.631,0,0,1,.631,0,1.919,1.919,0,0,1,.626.246s0,.056,0,.051c-.174-.036-.323-.077-.569-.108a3.231,3.231,0,0,0-1.539.251c-.082.031-.251.108-.267.118s-.041-.051-.026-.072a1.39,1.39,0,0,1,.518-.323Z" transform="translate(-225.521 -143.848)" fill="#263238"/><path d="M249.64,152.467l1.759.928a1.026,1.026,0,0,0-.431-1.38.969.969,0,0,0-1.328.451Z" transform="translate(-226.246 -141.122)" fill="#263238"/><path d="M223.424,229.9c-.226,2.185-.539,4.919-.764,8.935a50.047,50.047,0,0,0,5.642-.513s4.616,4.149,14.433,6.668a46.578,46.578,0,0,0,4.616.805,18.157,18.157,0,0,0,5.488-2.564c-.826-4.349-1.759-7.822-2.364-10.519Z" transform="translate(-213.104 -179.114)" fill="#e0e0e0"/><path d="M231.991,182.7c-.354.128-3.913.969-3.913.969a29.021,29.021,0,0,0-7.6,9.478c-1.185,2.672-1.364,5.642-1.467,9.837-.087,3.662-1.154,14.361-1.2,19.71.385,1.416,2.775,2.764,2.775,2.764.154,1.862,1.1-18.31,2.175-28.05a20.4,20.4,0,0,1,9.2-13.74Z" transform="translate(-210.746 -156.123)" fill="#f8951d"/><path d="M231.991,182.7c-.354.128-3.913.969-3.913.969a29.021,29.021,0,0,0-7.6,9.478c-1.185,2.672-1.364,5.642-1.467,9.837-.087,3.662-1.154,14.361-1.2,19.71.385,1.416,2.775,2.764,2.775,2.764.154,1.862,1.1-18.31,2.175-28.05a20.4,20.4,0,0,1,9.2-13.74Z" transform="translate(-210.746 -156.123)" fill="#fff" opacity="0.5"/><path d="M232.962,185.51c-.415.405-.841.795-1.267,1.2s-.857.774-1.282,1.169l.046-.154.318,1.077.031.1-.087.077q-1.611,1.431-3.247,2.821l.072-.128c-.2,1.241-.39,2.488-.605,3.729l-.621,3.734c0-.636.067-1.262.118-1.893s.123-1.257.195-1.882c.133-1.257.308-2.508.513-3.754v-.077l.062-.051q1.626-1.4,3.288-2.77l-.056.185-.256-1.092-.026-.092.072-.056c.451-.359.9-.728,1.359-1.082S232.5,185.854,232.962,185.51Z" transform="translate(-214.887 -157.492)" fill="#f8951d" opacity="0.4"/><path d="M261.278,181.85l-.031,1.349c-1.944,6.221-1.539,13.925-1.641,19.762a204.018,204.018,0,0,0,1.493,25.28s7.693,1.426,11.181-3.231c0,0-1.969-7.493-3.077-14.607-.657-4.216,2.226-14.494,1.539-20.6-.282-2.564-.949-4.667-2.857-5.283C266.32,184.014,261.278,181.85,261.278,181.85Z" transform="translate(-231.093 -155.709)" fill="#f8951d"/><path d="M261.278,181.85l-.031,1.349c-1.944,6.221-1.539,13.925-1.641,19.762a204.018,204.018,0,0,0,1.493,25.28s7.693,1.426,11.181-3.231c0,0-1.969-7.493-3.077-14.607-.657-4.216,2.226-14.494,1.539-20.6-.282-2.564-.949-4.667-2.857-5.283C266.32,184.014,261.278,181.85,261.278,181.85Z" transform="translate(-231.093 -155.709)" fill="#fff" opacity="0.5"/><path d="M259.63,202.792a16.785,16.785,0,0,1,.621-2.7c.277-.882.585-1.759.913-2.621s.687-1.718,1.051-2.564.733-1.693,1.139-2.529v.164l-1.282-3.483-.046-.128.1-.077,1.641-1.262-.041.144c-.185-.621-.374-1.236-.549-1.862s-.354-1.246-.513-1.872c.231.605.451,1.216.672,1.821s.436,1.221.651,1.831l.031.087-.077.062-1.59,1.344.056-.205,1.339,3.467.031.077-.041.087c-.38.831-.78,1.667-1.154,2.508s-.739,1.687-1.1,2.534-.708,1.7-1.026,2.564a19.356,19.356,0,0,0-.831,2.616Z" transform="translate(-231.112 -156.756)" fill="#f8951d" opacity="0.4"/><path d="M222.179,218.259c-1.026-1.928-2.375-4.385-3.011-5.77a3.993,3.993,0,0,0-1.831-2.323,30.422,30.422,0,0,0-3.108-1.857c-.549-.277-.692.374-.308,1.2.339.718,2.026,1.693,2.026,1.693s-1.5-.1-2.18-.1a6.221,6.221,0,0,0-1.9.646c-.764.323-.836.574-.646.815s.513.456,1.3.374,1.5-.195,1.5-.195l1.693.18.18.231s-1.133.133-2.052.349a4.462,4.462,0,0,0-1.79.846c-.7.441-1.128.657-1.159.841s.051.7.974.621a4.575,4.575,0,0,0,1.78-.605l1.969-.236.923.774s-1.118.062-1.764.138a8.288,8.288,0,0,0-2.052.672c-.262.159.113.739.621.9s1.841-.328,2.564-.195a15.152,15.152,0,0,1,1.99.651Z" transform="translate(-207.371 -168.565)" fill="#ffbda7"/><path d="M226.378,226.661l-.441-.841a38.3,38.3,0,0,1-3.98-.267,8.575,8.575,0,0,0-2.447.062h0a1.8,1.8,0,0,1,.246,0c.718.138,2.3.672,2.3.672Z" transform="translate(-211.569 -176.968)" fill="#f0997a"/><path d="M224.166,217.364a7.9,7.9,0,0,1-.79-.964c-.241-.344-.446-.708-.677-1.026a2.723,2.723,0,0,0-.821-.872,3.863,3.863,0,0,0-1.128-.472,2.888,2.888,0,0,1,1.205.349,2.564,2.564,0,0,1,.9.887c.226.354.431.713.641,1.067S223.956,217.015,224.166,217.364Z" transform="translate(-212.173 -171.384)" fill="#f0997a"/><path d="M224.308,220.423a6.2,6.2,0,0,1-.959-.672c-.3-.246-.585-.513-.877-.769s-.559-.549-.846-.8a1.569,1.569,0,0,0-1.026-.462,1.405,1.405,0,0,1,1.108.349c.318.241.585.513.882.769C223.17,219.4,223.713,219.91,224.308,220.423Z" transform="translate(-212.1 -173.176)" fill="#f0997a"/><path d="M223.886,223.675c-.354-.159-.651-.39-.974-.554a2.283,2.283,0,0,0-.513-.226,3.446,3.446,0,0,0-.539-.123,1.441,1.441,0,0,1,.574,0,1.939,1.939,0,0,1,.554.2,3.754,3.754,0,0,1,.9.7Z" transform="translate(-212.714 -175.628)" fill="#f0997a"/><path d="M244.492,231.216c-.964-.159-2.467-.395-4.549-.657-1.8-.231-9.365-1.836-11.171-1.98l-6.032,4.242a62.093,62.093,0,0,0,8.273,3.616c3.247,1.18,6.986,2.534,10.325,3.59C241.286,237.109,242.789,232.96,244.492,231.216Z" transform="translate(-213.143 -178.471)" fill="#ffbda7"/><path d="M228.772,228.58l-6.032,4.242a62.093,62.093,0,0,0,8.273,3.616l2.123.769c2.944-1.1,6.668-3.129,10.155-4.38l.077-.067a7.955,7.955,0,0,1,1.123-1.539c-.964-.159-2.467-.395-4.549-.657C238.147,230.334,230.567,228.724,228.772,228.58Z" transform="translate(-213.143 -178.471)" fill="#f0997a"/><path d="M273.1,193.574c-.744-3.765-2.211-5.883-5.821-6.514-3.349,1.313-4.17,7.375-4.16,13.981l.974,9.965a11.027,11.027,0,0,1-2.267,0,15.367,15.367,0,0,0-3.5,8.97,48.34,48.34,0,0,0,8.442,1.19c3.667.072,6.878,0,7.206-3.421a75.779,75.779,0,0,0,.046-13.617C273.572,197.759,273.613,196.179,273.1,193.574Z" transform="translate(-230.473 -158.247)" fill="#f8951d"/><path d="M273.1,193.574c-.744-3.765-2.211-5.883-5.821-6.514-3.349,1.313-4.17,7.375-4.16,13.981l.974,9.965a11.027,11.027,0,0,1-2.267,0,15.367,15.367,0,0,0-3.5,8.97,48.34,48.34,0,0,0,8.442,1.19c3.667.072,6.878,0,7.206-3.421a75.779,75.779,0,0,0,.046-13.617C273.572,197.759,273.613,196.179,273.1,193.574Z" transform="translate(-230.473 -158.247)" fill="#fff" opacity="0.2"/><path d="M262.81,235.345a13.293,13.293,0,0,1,2.5-.405c2.385-.277,5.493.513,6.2,2.016,0,0-.831-2.564-5.232-3.206a19.35,19.35,0,0,1-2.416.154,9.54,9.54,0,0,0-1.051,1.441Z" transform="translate(-232.661 -180.99)" fill="#f8951d" opacity="0.8"/><path d="M235.109,231.562c-2.5.657-11.971,3.4-20.69,3.144-.61-1.051-.513-2.929,0-4.672.708-2.441,1.513-3.5,2.657-4.324,6.868.908,11.581.267,18.664.887a21.874,21.874,0,0,1,6.668,2.262l.1.975S237.592,230.906,235.109,231.562Z" transform="translate(-208.884 -177.073)" fill="#ffbda7"/></g></g><g transform="translate(23.764 48.564)"><g transform="translate(0)"><g transform="translate(31.61 27.562)"><path d="M127.893,177.7a.749.749,0,0,0-.764.482c-.128-.072-.215-.21-.354-.236s-.308.138-.395.287a3.2,3.2,0,0,0,.513,3.729.554.554,0,0,0,.2.144.585.585,0,0,0,.282,0,6.873,6.873,0,0,0,1.451-.441,1.652,1.652,0,0,0,1.051-1.026,1.826,1.826,0,0,0-.195-1.067,2.821,2.821,0,0,0-.78-1.2C128.641,178.174,128.221,177.733,127.893,177.7Z" transform="translate(-113.691 -141.882)" fill="#f28f8f"/><path d="M120.106,133.919c3.159-5.175,3.016-6.155,1.482-8.668a116.546,116.546,0,0,0-8.817-10.309c-4.57-4.929-6.668-5.411-9.232-5.642l1.908,10.863,7.632,9.273s-3.329,8.206-3.877,10.5c-.79,3.283.256,7.263,3.016,8.955s3.4,1.872,5.334,1.175,2.426-.964,2.513-1.652c.226-1.728.462-1.975-.687-2.79-.657-.467-1.221-.939-1.569-1.133a.3.3,0,0,0-.415.154c-.421,1.026,1.092,2.221,1.092,2.221a8.114,8.114,0,0,0-1.872.923c-.513-1.713-.246-2.764-.718-3.631-.3-.549-.851-1.472-.513-2.011C116.085,141,118.137,137.15,120.106,133.919Z" transform="translate(-102.75 -108.567)" fill="#ffa8a7"/><path d="M121.891,148.57a5.314,5.314,0,0,0,4.508.415,4.544,4.544,0,0,1-4.76.174" transform="translate(-111.567 -127.695)" fill="#9a4a4d"/><path d="M102,107.87c3.713.036,5.129.513,8.822,4.616,1.975,2.175,9.673,10.884,10.6,12.694s.954,2.9-.615,5.734c-1.652,2.975-2.77,4.713-2.77,4.713s-1.959-1.605-7.693-1.857l1.785-4.914-8.175-7.806Z" transform="translate(-102 -107.87)" fill="#263238"/><path d="M121.5,148.76c.923,1.051,4.1.933,5.355.513a4.682,4.682,0,0,1-5.642.231Z" transform="translate(-111.357 -127.788)"/></g><g transform="translate(0 53.658)"><path d="M48.756,312.71a6.34,6.34,0,0,0-3.59,2.052c-1.3,1.677-4.221,6.668-4.8,7.216a4.2,4.2,0,0,0,1.3,1.364l1.539-1.759c.385-.318.549-.667.513.369s-.169,2.1-.144,3.642a7.662,7.662,0,0,0,1.862,5.878,9.972,9.972,0,0,0,5.524,3.447c.872.118,2.405-.082,2.308-1.821-.051-.918-.472-3.944-.621-5.642S48.756,312.71,48.756,312.71Z" transform="translate(-40.37 -233.745)" fill="#263238"/><path d="M52.4,285.839a8.441,8.441,0,0,0,3.211,6.909c1.646,1.369,2.872,1.072,2.882-.513,0-2.513-.313-7.129,2.564-11.843a98.692,98.692,0,0,1,7.18-8.776v.087c3.175-3.693,6.816-7.955,10.13-12.15l.123-.154.082-.1a79.849,79.849,0,0,0,8.319-12.176l.262-.513a.159.159,0,0,1,0-.051h0a10.114,10.114,0,0,0,1.318-4.672l-8.1.149-6.155-4.1a59.646,59.646,0,0,1-4.308,9.689c-1.539,2.852-6.478,8.442-9.447,16.023a97.64,97.64,0,0,1-4.616,10.442c-.451.728-1.369,2.288-1.662,2.657C52.51,278.915,52.043,280.459,52.4,285.839Z" transform="translate(-46.176 -197.319)" fill="#ffa8a7"/><path d="M95.051,245.932l14.079-.262a3.782,3.782,0,0,1,0,.482v.19a1.228,1.228,0,0,1-.036.333,1.477,1.477,0,0,0-.046.251c-.015.082-.036.2-.056.3s-.051.205-.077.308-.046.18-.077.277a.513.513,0,0,1-.026.082,27.231,27.231,0,0,1-10.145,3.559s-.21,10.509-1.949,14.746h0c-.646.795-1.3,1.585-1.954,2.375C94.451,262.288,95.051,245.932,95.051,245.932Z" transform="translate(-66.822 -201.089)" fill="#f28f8f"/><path d="M74.261,334.64a7.021,7.021,0,0,0-1.918,3.949c-.195,2.272.077,8.493-.1,9.329a3.872,3.872,0,0,0,1.831.472l.349-2.5c.154-.513.1-.923.646,0s1.026,2,1.862,3.375a7.943,7.943,0,0,0,4.755,4.226,9.278,9.278,0,0,0,6.509-.113,1.96,1.96,0,0,0,.949-3c-.544-.8-2.534-3.293-3.59-4.729S74.261,334.64,74.261,334.64Z" transform="translate(-55.894 -244.428)" fill="#263238"/><path d="M79.777,290.718c-.144-5.944,5.452-33.128,3.944-45.9l-15.961-.19a69.3,69.3,0,0,1,1.652,11.284c.262,3.472-.857,11.422.769,20a113.9,113.9,0,0,1,1.8,12.14c.021.918.1,2.867.056,3.375-.256,2.934.19,4.616,3.416,9.263a8.443,8.443,0,0,0,6.447,4.37c2.129.277,3-.713,2.149-2.139C82.7,300.643,79.916,296.663,79.777,290.718Z" transform="translate(-53.712 -200.583)" fill="#ffa8a7"/><path d="M70.707,266.62c.031,1.354-.046,2.7-.123,4.042s-.123,2.7-.159,4.047a63.893,63.893,0,0,0,.282,8.109c.144,1.349.364,2.682.61,4.011l.733,3.965c.241,1.323.462,2.652.672,3.98s.421,2.657.549,4a77.991,77.991,0,0,0-.913-8.037c-.39-2.677-1-5.3-1.241-7.97-.159-1.328-.241-2.672-.308-4.016s-.072-2.7-.1-4.036,0-2.693.046-4.042A34.455,34.455,0,0,0,70.707,266.62Z" transform="translate(-54.997 -211.294)" fill="#f28f8f"/><path d="M83.952,251.928a50.689,50.689,0,0,0-.231-7.109l-15.961-.19a50.987,50.987,0,0,1,1.026,5.365h0A28.264,28.264,0,0,0,83.952,251.928Z" transform="translate(-53.712 -200.583)" fill="#f28f8f"/><path d="M90.988,177.019A94.019,94.019,0,0,0,89.26,166.11c-.636-2.754-1.231-5.129-1.652-7.252-4.616,3.077-16.171,3.37-21.48-.108a55.9,55.9,0,0,0-5.616,9.8,25.989,25.989,0,0,0-2.488,12.361c.077,4.9,2.267,19.31,4.262,25.465,5.39,2.99,24.3,2.3,29.655-3.052C91.942,203.32,91.624,182.1,90.988,177.019Z" transform="translate(-48.967 -158.75)" fill="#455a64"/></g><g transform="translate(0.172)"><g transform="translate(5.432 8.693)"><path d="M51.77,81.869A2.755,2.755,0,0,1,51.6,79.11a3.344,3.344,0,0,1,1.944-1.164A1.759,1.759,0,0,0,54.98,75.93a3.445,3.445,0,0,1,1.292-3c2.185-1.6,8.037-1.79,7.878,2.123,0,.585-.215,1.221.1,1.713a1.739,1.739,0,0,0,.554.513,14.284,14.284,0,0,1,2.9,2.211,3.542,3.542,0,0,1,.913,3.375c-.4,1.154-1.472,1.857-1.662,2.99-.256,1.539,1.308,3.077.882,4.575-.344,1.216-1.323,1.482-2.39,1.636-1.231.185-1.646,1.7-3.077,1.605a7.694,7.694,0,0,0-1.831.241,5.211,5.211,0,0,1-2.252,0,2.847,2.847,0,0,1-1.79-1.3c-.339-.605-.4-1.369-.872-1.882s-.969-.677-1.4-1.087a2.564,2.564,0,0,1-.892-1.539,1.605,1.605,0,0,1,.369-1.3,1.087,1.087,0,0,0-.754.985,3.118,3.118,0,0,0,.231,1.292A2.759,2.759,0,0,1,52.036,85.1c.277-.426.682-.821.682-1.323A3.482,3.482,0,0,0,51.77,81.869Z" transform="translate(-51.295 -71.464)" fill="#263238"/><path d="M66.384,71.337c-2.18,1.205-2,5.437.718,7.237S69.661,69.281,66.384,71.337Z" transform="translate(-57.918 -71.082)" fill="#f8951d"/></g><g transform="translate(13.75)"><path d="M90.084,59.573c-.426-2.821-3.621-2.923-4.467-2.821a4.031,4.031,0,0,1-3.288-1.359,4.052,4.052,0,0,0-3.924-1.139c-2.267.605-1.739,1.539-3.657,2.216-1.708.59-2.98.036-4.534,1.539a4.431,4.431,0,0,0-1.133,3.749c-1.169.728-2.708,5.042-.277,9.745,1.251,2.421,2.739,3.544,4.616,5.544h1.79c.574-1.539,2.1-1.246,3.493-1.605.887-.405,1.385-1.405,2.272-1.811s1.964-.118,2.939-.3c.754-.133,1.539-.59,2.308-.4,1.8.718,4.5-.862,4.278-2.934a6.326,6.326,0,0,1-.3-1.852c.154-.815,1.026-1.272,1.472-1.959a2.164,2.164,0,0,0-.144-2.6C90.213,62.189,90.331,61.178,90.084,59.573Z" transform="translate(-67.514 -54.132)" fill="#263238"/><path d="M84.744,88.174l-.933-.108c-.795-.092-.733-1-.815-1.78l-.082-1.216a5.4,5.4,0,0,0,3.97-1.292c1.636-1.446,2.493-4.308,2.308-7.375a25.692,25.692,0,0,0-.631-3.447c.154-2.734-.067-3.221-.713-4.616-1.164-2.241-4.052-3.036-5.273-.61-3.59-2.749-7.493.933-7.309,5.129.513,3.472-.559,3.657-1.236,3.683-1.026-2.159-3.262-2.108-4.2-.7-.846,1.272-.805,3.226.857,4.99s3.406.59,3.421.241c0,0,.3,4.683.349,5.642S74.409,88.2,73.25,88.6h0l-1.667.564s.092.118.277.318c.421.482,1.354,1.539,2.923,3.38A80.35,80.35,0,0,1,86.3,97.986a51.054,51.054,0,0,0,1.749-6.155,22.214,22.214,0,0,0-3.308-3.657Z" transform="translate(-68.38 -60.033)" fill="#ffa8a7"/><circle cx="0.826" cy="0.826" r="0.826" transform="translate(3.26 19.181)" fill="#f8951d"/><path d="M91.425,91.42l2.662.687a1.354,1.354,0,0,1-1.646,1.026A1.446,1.446,0,0,1,91.425,91.42Z" transform="translate(-79.144 -72.295)" fill="#b16668"/><path d="M91.65,92.576a1.539,1.539,0,0,1,1.58,1.092,1.334,1.334,0,0,1-.764.036,1.416,1.416,0,0,1-1.026-1.092A1.365,1.365,0,0,1,91.65,92.576Z" transform="translate(-79.169 -72.857)" fill="#f28f8f"/><path d="M103.182,75.272l-2.052-.513a1.026,1.026,0,0,1,1.262-.79A1.108,1.108,0,0,1,103.182,75.272Z" transform="translate(-83.889 -63.779)" fill="#263238"/><path d="M85.835,76.555l1.954-.877a1.026,1.026,0,0,0-1.4-.544A1.118,1.118,0,0,0,85.835,76.555Z" transform="translate(-76.4 -64.314)" fill="#263238"/><path d="M100.46,80a.882.882,0,0,0,.846.892.836.836,0,0,0,.882-.81.887.887,0,0,0-.846-.9.836.836,0,0,0-.882.815Z" transform="translate(-83.562 -66.337)" fill="#263238"/><path d="M88.27,80.59a.908.908,0,0,0,.887.913.857.857,0,0,0,.9-.831.908.908,0,0,0-.9-.913.846.846,0,0,0-.887.831Z" transform="translate(-77.624 -66.615)" fill="#263238"/><path d="M88.675,100.153C85.31,100,82.048,99.26,81.12,97.26a3.441,3.441,0,0,0,2.052,2.749,12.12,12.12,0,0,0,5.58,1.123Z" transform="translate(-74.142 -75.14)" fill="#f28f8f"/><path d="M98.224,82,95.2,83.3,94.49,77.54Z" transform="translate(-80.654 -65.534)" fill="#f28f8f"/></g><g transform="translate(8.301 26.705)"><path d="M81.627,108.71s1.487,3.108.472,4.985a21.337,21.337,0,0,1-10.976-4.483l-4.221.672s-2.764,5.273-1.908,9.745,4.452,14.741,4.452,14.741c4.78,6.939,21.029,3.272,21.48.108,0,0,.482-3.934.882-7.18a8.416,8.416,0,0,0,2.39-5.129c.118-3.077-1.149-5.221-4.247-8.391a37.953,37.953,0,0,0-5.878-4.98Z" transform="translate(-60.757 -107.423)" fill="#f8951d"/><path d="M81.627,108.71s1.487,3.108.472,4.985a21.337,21.337,0,0,1-10.976-4.483l-4.221.672s-2.764,5.273-1.908,9.745,4.452,14.741,4.452,14.741c4.78,6.939,21.029,3.272,21.48.108,0,0,.482-3.934.882-7.18a8.416,8.416,0,0,0,2.39-5.129c.118-3.077-1.149-5.221-4.247-8.391a37.953,37.953,0,0,0-5.878-4.98Z" transform="translate(-60.757 -107.423)" fill="#fff" opacity="0.7"/><path d="M79.859,143.71a6.462,6.462,0,0,0,5.565,4.283,6.827,6.827,0,0,0,6.273-2.729s-.877,4.678-6.442,3.857S79.859,143.71,79.859,143.71Z" transform="translate(-68.078 -124.471)" fill="#f8951d" opacity="0.3"/><path d="M68.4,106.2s4.144,9.647,5.539,14.3.672,8.376.149,16.8c-.405,6.488-1.113,16.274-1.113,16.274s-12.309-.18-16.084-5.642c1.026-3.226,4.16-10.745,4.975-12.822s.415-3.872-.9-8.632-3.426-7.36-3.365-10.878a9.817,9.817,0,0,1,3.411-6.965Z" transform="translate(-56.89 -106.2)" fill="#37474f"/><path d="M96.36,107.76a.718.718,0,0,0,.513.477s8.345,8.027,8.929,16.341,1.1,26.527,1.1,26.527a10.516,10.516,0,0,0,2.672-2.349c-.374-3.775-1.677-18.69-1.323-20.4s4.421-5.6.687-11.15a38.26,38.26,0,0,0-9.689-9.386Z" transform="translate(-76.116 -106.96)" fill="#37474f"/><path d="M102.733,110.385c.513.477,1.057.959,1.539,1.457,1.026,1,2.052,2,3.026,3.031.487.513.974,1.026,1.446,1.585.241.272.472.544.7.826a2.826,2.826,0,0,1,.59.99,3.252,3.252,0,0,1,.067,1.149,6.729,6.729,0,0,1-.205,1.082,13.8,13.8,0,0,1-.682,1.923,8.719,8.719,0,0,1,1.405,2.308,1.811,1.811,0,0,1,.087.374,1.889,1.889,0,0,1,0,.385,4.544,4.544,0,0,1-.1.7c-.077.462-.169.913-.267,1.369-.39,1.811-.857,3.59-1.359,5.38.359-1.816.723-3.626,1.026-5.442.082-.456.154-.908.215-1.364,0-.226.056-.451.067-.672a1.272,1.272,0,0,0-.072-.605,8.791,8.791,0,0,0-1.446-2.257l-.087-.108.056-.133a12.647,12.647,0,0,0,.682-1.975,6.513,6.513,0,0,0,.185-1.026,2.59,2.59,0,0,0-.041-.98,2.323,2.323,0,0,0-.513-.831c-.215-.277-.441-.549-.672-.815-.456-.539-.939-1.067-1.416-1.6-.959-1.051-1.923-2.1-2.913-3.124s-1.959-2.052-3.011-3.031A18.567,18.567,0,0,1,102.733,110.385Z" transform="translate(-78.396 -107.559)" fill="#263238"/><path d="M75.75,121.393V118c.031-3.021.062-6.037.169-9.058.128,3.021.19,6.042.246,9.068v3.683a.78.78,0,0,0,.031.215,1.159,1.159,0,0,0,.231.405,5.216,5.216,0,0,0,1.8,1.159,15.386,15.386,0,0,0,2.1.733l.246.067-.087.236a24.9,24.9,0,0,0-.949,2.8c-.062.236-.118.477-.159.708a1.811,1.811,0,0,0,0,.657v.062l.041.087L80.017,130c.441.892.892,1.78,1.318,2.677l1.292,2.693-1.462-2.605c-.513-.867-.954-1.744-1.431-2.621l-.354-.657-.18-.328-.133-.246-.036-.118a1.934,1.934,0,0,1,0-.821,5.863,5.863,0,0,1,.149-.749,24.649,24.649,0,0,1,.846-2.636,14.95,14.95,0,0,1-1.944-.662,5.339,5.339,0,0,1-1.97-1.3,1.621,1.621,0,0,1-.313-.58,1.324,1.324,0,0,1-.041-.349Z" transform="translate(-66.077 -107.535)" fill="#263238"/></g><g transform="translate(0 29.167)"><path d="M53.147,111c-4.026.7-5.642,3.165-7.4,8.391-2.421,7.124-4.544,14.176-5,17.767l9.5-2.6,5.083-10.227S57.234,116.093,53.147,111Z" transform="translate(-40.727 -111)" fill="#263238"/><path d="M79.975,161.337l-20.546-3.159L56.3,131.83l20.552,3.159Z" transform="translate(-48.301 -121.146)" fill="#f8951d"/><path d="M79.975,161.337l-20.546-3.159L56.3,131.83l20.552,3.159Z" transform="translate(-48.301 -121.146)" opacity="0.2"/><path d="M79.513,160.894l-19.69-3.036L56.91,133.29l19.69,3.031Z" transform="translate(-48.599 -121.858)" fill="#fafafa"/><path d="M76.687,152.736l-1.969-16.592L56.3,131.82l3.129,26.357,19.49,4.57a.513.513,0,0,0,.621-.569l-1-8.406a.933.933,0,0,0-.677-.764Z" transform="translate(-48.301 -121.142)" fill="#f8951d"/><path d="M41,156.822c0,2.7.4,3.149,3.365,4.667a56.321,56.321,0,0,0,16.361,4.426c3.862.374,5.847.19,7.345-.4a6.2,6.2,0,0,0,3.867-6.791c.646-1.862-.333-2.113-1.133-2.318l.144,1.221a7.3,7.3,0,0,1-3.329,1.2c-1.6.021-.113-1.846.174-2.975s.226-1.775-.7-2.308c-.513,0-.687.708-2.3,2.313-1.221,1.216-2.175,3.436-4.072,3.18-1.482-.205-10.3-4.293-10.3-4.293l-.4-3.375Z" transform="translate(-40.849 -130.665)" fill="#ffa8a7"/><path d="M40.728,155.56c-.113,1.682.185,2.564.959,3.288a25.925,25.925,0,0,0,5.95,2.923c1.97.687,7.129,2.082,8.114,2.262-1.026-1.6-.774-4.755.1-6.155a1.872,1.872,0,0,1,2.016-1.072L50.278,153.4l-.549-4.616Z" transform="translate(-40.705 -129.403)" fill="#263238"/></g></g></g></g></g></svg>