<svg xmlns="http://www.w3.org/2000/svg" width="250" height="151.852" viewBox="0 0 250 151.852"><g transform="translate(-39.23 -71.5)"><g transform="translate(39.23 217.489)"><path d="M289.23,463.747c0,.052-55.968.1-124.993.1s-125.007-.045-125.007-.1,55.957-.1,125.007-.1S289.23,463.695,289.23,463.747Z" transform="translate(-39.23 -463.65)" fill="#263238"/></g><g transform="translate(48.418 83.227)"><path d="M112.03,242.078a13.187,13.187,0,0,1,2.859,2.014L117.945,243l2.87,4.531-2.282,2.3a13.048,13.048,0,0,1,.6,3.447l2.93,1.389-1.176,5.234h-3.239a13.1,13.1,0,0,1-2.014,2.859l1.087,3.056-4.538,2.874-2.3-2.286a13.3,13.3,0,0,1-3.444.6l-1.392,2.926-5.234-1.173v-3.243a13.276,13.276,0,0,1-2.859-2.014L93.9,264.589l-2.874-4.531,2.29-2.3a13.357,13.357,0,0,1-.6-3.447l-2.926-1.389,1.173-5.234h3.243a12.848,12.848,0,0,1,1.992-2.863l-1.087-3.056,4.546-2.863,2.3,2.29a13.179,13.179,0,0,1,3.447-.6l1.389-2.926,5.234,1.173v3.243Zm-4.616,6.161a5.748,5.748,0,1,0,3.6,2.533A5.752,5.752,0,0,0,107.414,248.239Z" transform="translate(-80.155 -187.535)" fill="#f8951d" fill-rule="evenodd"/><g transform="translate(9.635 50.135)" opacity="0.8"><path d="M112.03,242.078a13.187,13.187,0,0,1,2.859,2.014L117.945,243l2.87,4.531-2.282,2.3a13.048,13.048,0,0,1,.6,3.447l2.93,1.389-1.176,5.234h-3.239a13.1,13.1,0,0,1-2.014,2.859l1.087,3.056-4.538,2.874-2.3-2.286a13.3,13.3,0,0,1-3.444.6l-1.392,2.926-5.234-1.173v-3.243a13.276,13.276,0,0,1-2.859-2.014L93.9,264.589l-2.874-4.531,2.29-2.3a13.357,13.357,0,0,1-.6-3.447l-2.926-1.389,1.173-5.234h3.243a12.848,12.848,0,0,1,1.992-2.863l-1.087-3.056,4.546-2.863,2.3,2.29a13.179,13.179,0,0,1,3.447-.6l1.389-2.926,5.234,1.173v3.243Zm-4.616,6.161a5.748,5.748,0,1,0,3.6,2.533A5.752,5.752,0,0,0,107.414,248.239Z" transform="translate(-89.79 -237.67)" fill="#fff" fill-rule="evenodd"/></g><path d="M151.1,375.6a3.991,3.991,0,0,1,1.232.372,5.249,5.249,0,0,1,2.952,4.881,5.33,5.33,0,0,1-9.34,3.343,5.026,5.026,0,0,1-.86-1.355,4.967,4.967,0,0,1-.406-1.489,5.271,5.271,0,0,1,5.156-5.934,3.939,3.939,0,0,1,1.277.179c0,.037-.454-.089-1.273-.06a5.182,5.182,0,0,0-3.146,1.24,5.093,5.093,0,0,0-1.742,4.542,4.78,4.78,0,0,0,.395,1.4,4.84,4.84,0,0,0,.819,1.281A5.041,5.041,0,0,0,152,385.313a5.095,5.095,0,0,0,2.606-6.742,5.212,5.212,0,0,0-2.312-2.468A9.516,9.516,0,0,0,151.1,375.6Z" transform="translate(-114.586 -274.002)" fill="#263238"/><path d="M139.023,354.066v-.737c0-.51-.019-1.24-.03-2.193l.037.045-4.743-1.035.086-.041c-.372.8-.8,1.7-1.247,2.654l-.022.048h-.052a11.889,11.889,0,0,0-3.09.551h-.056l-.045-.045-2.085-2.062h.134l-4.1,2.606.048-.138.99,2.759.026.071-.052.056a11.76,11.76,0,0,0-1.8,2.561l-.037.071h-.078l-2.967.063.13-.1c-.331,1.489-.692,3.09-1.057,4.735l-.074-.156,2.647,1.255.078.037v.086a11.649,11.649,0,0,0,.54,3.079l.026.086-.063.06-2.07,2.081.022-.182,2.606,4.1-.175-.06,2.762-.987.086-.03.067.063a11.768,11.768,0,0,0,2.55,1.8h0l.078.13h0v2.93l-.115-.145,4.732,1.061-.164.082,1.258-2.647.037-.082h.089a11.652,11.652,0,0,0,3.079-.532l.086-.026.06.063,2.077,2.07-.175-.019,4.1-2.606-.056.164-.979-2.766-.026-.074.056-.06a11.947,11.947,0,0,0,1.806-2.558l.034-.067H147l-.123.1c.372-1.664.745-3.235,1.072-4.732l.063.13-2.643-1.266-.06-.026v-.067a11.78,11.78,0,0,0-.529-3.09l-.019-.06.041-.041,2.077-2.07v.108c-1-1.59-1.861-2.948-2.58-4.1l.078.026-2.77.968h-.026l-.022-.019a12.746,12.746,0,0,0-1.861-1.452l-.506-.3a1.349,1.349,0,0,1-.168-.1,1.753,1.753,0,0,1,.179.082c.115.06.29.149.517.283a11.491,11.491,0,0,1,1.925,1.422H141.6l2.755-1h.052l.03.045,2.606,4.1.037.06-.048.048-2.062,2.085.022-.1a11.961,11.961,0,0,1,.558,3.142l-.063-.093,2.651,1.251.086.041-.022.089q-.5,2.234-1.054,4.735v.1h-3.03l.112-.067a11.939,11.939,0,0,1-1.839,2.606l.03-.138.987,2.762.037.1-.093.06-4.1,2.606-.1.063-.082-.082L137,376.217l.145.034a11.89,11.89,0,0,1-3.153.551l.127-.082-1.255,2.647-.052.108-.115-.026-4.735-1.061-.115-.026v-3.049h0c.16.261.045.071.078.13h0a12.133,12.133,0,0,1-2.606-1.861l.153.034-2.8.949-.115.041-.063-.1c-.89-1.411-1.772-2.8-2.606-4.1l-.06-.1.082-.086,2.07-2.077-.034.149a12.1,12.1,0,0,1-.547-3.157l.078.123-2.643-1.255-.1-.048.026-.108c.372-1.645.745-3.246,1.068-4.735l.022-.1h3.038l-.112.067a11.913,11.913,0,0,1,1.843-2.606l-.026.127c-.339-.968-.674-1.91-.975-2.766l-.034-.089.082-.048,4.1-2.587.074-.048.06.06,2.07,2.077-.1-.026a12.091,12.091,0,0,1,3.142-.536l-.074.052,1.266-2.643.03-.056h.056l4.728,1.087h.041v2.773A1.313,1.313,0,0,1,139.023,354.066Z" transform="translate(-98.322 -258.041)" fill="#263238"/><path d="M76.858,328.009a7.747,7.747,0,0,1,1.664,1.173l1.776-.633,1.672,2.639-1.329,1.336a7.684,7.684,0,0,1,.346,2.007l1.705.808-.681,3.049H80.123a7.748,7.748,0,0,1-1.173,1.664l.633,1.776-2.639,1.69-1.336-1.329a7.71,7.71,0,0,1-2.007.346l-.808,1.705-3.049-.681v-1.9a7.748,7.748,0,0,1-1.664-1.173l-1.779.633-1.672-2.639,1.333-1.336a7.874,7.874,0,0,1-.35-2.007l-1.7-.808.681-3.049h1.884a7.62,7.62,0,0,1,1.191-1.668l-.633-1.779,2.636-1.672,1.34,1.333a7.816,7.816,0,0,1,2.007-.35l.808-1.7,3.045.681v1.887Zm-2.688,3.6a3.351,3.351,0,1,0,2.535,4,3.351,3.351,0,0,0-2.535-4Z" transform="translate(-63.91 -242.63)" fill="#f8951d" fill-rule="evenodd"/><g transform="translate(0 82.81)" opacity="0.4"><path d="M76.858,328.009a7.747,7.747,0,0,1,1.664,1.173l1.776-.633,1.672,2.639-1.329,1.336a7.684,7.684,0,0,1,.346,2.007l1.705.808-.681,3.049H80.123a7.748,7.748,0,0,1-1.173,1.664l.633,1.776-2.639,1.69-1.336-1.329a7.71,7.71,0,0,1-2.007.346l-.808,1.705-3.049-.681v-1.9a7.748,7.748,0,0,1-1.664-1.173l-1.779.633-1.672-2.639,1.333-1.336a7.874,7.874,0,0,1-.35-2.007l-1.7-.808.681-3.049h1.884a7.62,7.62,0,0,1,1.191-1.668l-.633-1.779,2.636-1.672,1.34,1.333a7.816,7.816,0,0,1,2.007-.35l.808-1.7,3.045.681v1.887Zm-2.688,3.6a3.351,3.351,0,1,0,2.535,4,3.351,3.351,0,0,0-2.535-4Z" transform="translate(-63.91 -325.44)" fill="#fff" fill-rule="evenodd"/></g><path d="M602.732,186.872a9.72,9.72,0,0,1,2.487.655l1.824-1.53,3.135,2.386-.987,2.17a9.679,9.679,0,0,1,1.3,2.234l2.371.208.529,3.905-2.234.834a9.655,9.655,0,0,1-.655,2.483l1.53,1.828-2.386,3.135-2.17-.987a9.679,9.679,0,0,1-2.234,1.3l-.194,2.353-3.905.529-.834-2.234a9.653,9.653,0,0,1-2.483-.655l-1.828,1.53-3.135-2.386.987-2.17a9.681,9.681,0,0,1-1.3-2.234l-2.371-.208-.529-3.905,2.234-.834a9.715,9.715,0,0,1,.655-2.487l-1.53-1.824,2.386-3.135,2.17.987a9.681,9.681,0,0,1,2.234-1.3l.208-2.371,3.905-.529.834,2.234Zm-1.169,5.387a4.229,4.229,0,1,0,4.244,3.235,4.229,4.229,0,0,0-4.244-3.235Z" transform="translate(-393.928 -154.235)" fill="#263238" fill-rule="evenodd"/><path d="M658.233,127.747a3.875,3.875,0,0,1,1.266-.067,5.093,5.093,0,0,1,3.1,1.444,5.149,5.149,0,0,1,1.277,2.033,5.212,5.212,0,0,1,.16,2.755,5.267,5.267,0,0,1-1.489,2.662,5.212,5.212,0,0,1-6.131.834,4.8,4.8,0,0,1-1.251-.953,4.969,4.969,0,0,1-.882-1.221,5.211,5.211,0,0,1-.577-2.7,5.155,5.155,0,0,1,.689-2.3A5.063,5.063,0,0,1,657,128a3.846,3.846,0,0,1,1.232-.272,12.214,12.214,0,0,0-1.191.372,5.1,5.1,0,0,0-2.468,2.234,4.991,4.991,0,0,0,1.981,6.816,4.978,4.978,0,0,0,5.9-7.885,5.063,5.063,0,0,0-2.978-1.489Q658.854,127.732,658.233,127.747Z" transform="translate(-434.132 -118.477)" fill="#263238"/><path d="M644.251,105.721a1.63,1.63,0,0,1-.071-.164l-.2-.506c-.182-.465-.439-1.135-.778-2.007l.052.034-4.713.666.063-.067c-.071.867-.153,1.832-.238,2.863v.052h-.048a11.641,11.641,0,0,0-2.654,1.56l-.048.037-.052-.026-2.606-1.184.127-.034-2.87,3.794v-.145l1.861,2.2.048.056-.03.067a11.543,11.543,0,0,0-.778,2.978v.078l-.123.052-2.692,1.009.086-.138c.2,1.489.421,3.075.644,4.713l-.123-.119,2.863.249h.086l.034.078a11.476,11.476,0,0,0,1.545,2.647l.052.067-.037.078c-.372.823-.778,1.716-1.191,2.606l-.041-.171,3.786,2.878h-.182l2.2-1.861.067-.056.082.033a11.611,11.611,0,0,0,2.978.782h0l.119.093h0v.063l.034.086.063.171.127.339.249.674.5,1.344-.156-.093,4.717-.64-.127.13q.127-1.448.253-2.863v-.086l.082-.034a11.7,11.7,0,0,0,2.647-1.541l.067-.056.078.037,2.606,1.2-.168.041,2.945-3.745v.168l-1.861-2.2-.052-.063.034-.074a11.678,11.678,0,0,0,.786-2.978v-.074l.071-.03,2.7-1-.078.13c-.223-1.657-.432-3.224-.629-4.713l.1.093-2.863-.257h-.063l-.026-.056a11.582,11.582,0,0,0-1.541-2.662l-.034-.048.022-.052,1.2-2.606.026.1-3.745-2.9h.082l-2.215,1.835h-.048a12.285,12.285,0,0,0-2.234-.692l-.566-.108a.891.891,0,0,1-.19-.037h.194a4.206,4.206,0,0,1,.573.082,11.539,11.539,0,0,1,2.252.651h-.048l2.193-1.861.037-.034.045.034,3.8,2.863.056.045-.03.063-1.184,2.606v-.1a11.66,11.66,0,0,1,1.582,2.7l-.086-.063,2.863.242h.089v.086c.208,1.489.421,3.056.651,4.717v.093l-.089.037-2.692,1.009.082-.1a11.88,11.88,0,0,1-.8,3.03l-.022-.134,1.861,2.2.071.082-.067.086-2.878,3.79-.067.089-.1-.048-2.606-1.191h.145a11.856,11.856,0,0,1-2.714,1.582l.089-.119c-.082.946-.168,1.9-.249,2.863v.115H647.1l-4.739.692h-.119l-.037-.112-.5-1.34-.253-.678-.127-.339-.063-.168-.033-.086v-.063h0l.119.093h0a12,12,0,0,1-3.034-.8l.153-.026-2.208,1.861-.089.078-.134-.071-3.786-2.885-.093-.071.048-.1,1.2-2.606.019.145a11.839,11.839,0,0,1-1.578-2.714l.115.086-2.863-.257h-.112v-.108c-.223-1.638-.436-3.235-.637-4.717v-.1l.1-.037,2.692-1-.078.1a11.638,11.638,0,0,1,.8-3.03V113l-1.843-2.208-.06-.071.056-.071,2.893-3.782.048-.067.078.037,2.606,1.2h-.1a11.761,11.761,0,0,1,2.706-1.564l-.052.071c.093-1.031.182-2,.264-2.863v-.06h.06l4.728-.622h.037v.037l.722,2,.182.521A1.161,1.161,0,0,1,644.251,105.721Z" transform="translate(-418.215 -103)" fill="#263238"/></g><g transform="translate(82.988 71.5)"><rect width="171.263" height="118.392" transform="translate(0.082 0.078)" fill="#fafafa"/><path d="M328.1,189.97c0-.64-.03-46.367-.078-118.385l.078.078-171.248.022h0l.1-.1V189.974l-.089-.086,171.248.086-171.259.1h-.086V71.5H328.208v.078C328.148,143.6,328.1,189.326,328.1,189.97Z" transform="translate(-156.77 -71.5)" fill="#263238"/><rect width="171.263" height="6.869" transform="translate(0.082 0.078)" fill="#263238"/><path d="M166.555,78.807a1.054,1.054,0,1,1-.307-.747A1.057,1.057,0,0,1,166.555,78.807Z" transform="translate(-161.585 -75.423)" fill="#fff"/><path d="M176.775,78.807a1.054,1.054,0,1,1-.307-.747A1.057,1.057,0,0,1,176.775,78.807Z" transform="translate(-168 -75.423)" fill="#fff"/><path d="M187.007,78.807a1.054,1.054,0,1,1-.307-.747A1.054,1.054,0,0,1,187.007,78.807Z" transform="translate(-174.428 -75.423)" fill="#fff"/><path d="M333.811,304.743c0-.432-.022-14.147-.06-38.456l.06.056-158.107.041h0l.1-.1v38.456l-.1-.1,158.118.1-158.133.093H175.6V266.19h.108l158.107.037h.056v.06C333.83,290.608,333.811,304.315,333.811,304.743Z" transform="translate(-168.59 -193.711)" fill="#e0e0e0"/><path d="M253.1,166.832v-3.823c0-2.5,0-6.161-.019-10.844,0-9.367-.026-22.817-.041-39.164l.078.078-76.44.019h0l.1-.1v53.831l-.089-.086,55.131.041,15.7.026h.026l-15.684.022-55.209.082h-.089V112.9h76.622v.078c-.019,16.38-.03,29.834-.041,39.212,0,4.676,0,8.335-.019,10.826v2.833C253.123,166.493,253.1,166.832,253.1,166.832Z" transform="translate(-169.193 -97.488)" fill="#e0e0e0"/><path d="M199,190.4l5.506-7.978a3.529,3.529,0,0,1,4.951-.864l.774.555a3.525,3.525,0,0,0,5.387-1.727l2.673-7.818a3.529,3.529,0,0,1,6.675,0l1.292,3.786a3.529,3.529,0,0,0,6.563.287l1.117-2.531a3.529,3.529,0,0,1,6.135-.562h0a3.525,3.525,0,0,0,6.247-.849l1.251-3.66a3.527,3.527,0,0,1,6.775.372l4.784,21S199.168,190.239,199,190.4Z" transform="translate(-183.279 -131.233)" fill="#f8951d"/><g transform="translate(15.721 35.425)" opacity="0.3"><path d="M199,190.4l5.506-7.978a3.529,3.529,0,0,1,4.951-.864l.774.555a3.525,3.525,0,0,0,5.387-1.727l2.673-7.818a3.529,3.529,0,0,1,6.675,0l1.292,3.786a3.529,3.529,0,0,0,6.563.287l1.117-2.531a3.529,3.529,0,0,1,6.135-.562h0a3.525,3.525,0,0,0,6.247-.849l1.251-3.66a3.527,3.527,0,0,1,6.775.372l4.784,21S199.168,190.239,199,190.4Z" transform="translate(-199 -166.658)"/></g><path d="M198.59,205.005l4.467-13.089a3.447,3.447,0,0,1,6.493-.078l2.141,5.8a3.444,3.444,0,0,0,5.915.964l1.735-2.159a3.444,3.444,0,0,1,4.717-.629l4.043,2.956a3.451,3.451,0,0,0,2.033.666h5.145a3.447,3.447,0,0,1,2.036.663l3.827,2.8a3.444,3.444,0,0,0,4.881-.834l3.592-5.249c.045-.067.093-.134.141-.194a3.228,3.228,0,0,1,5.379.637l3.846,7.624S198.59,204.752,198.59,205.005Z" transform="translate(-183.021 -145.627)" fill="#f8951d"/><path d="M258.676,214.251,254,210.442c-6.414-4.713-9.452,4.263-14.493-2.472l-1.735-2.159a3.447,3.447,0,0,0-4.72-.622l-2.007,1.471a11.168,11.168,0,0,1-6.586,2.137h-2.628a3.448,3.448,0,0,0-2.033.663l-3.827,2.8c-1.571,1.15-2.666,1.3-5.178-.808,0,0-2.729-2.215-2.792-2.293a3.522,3.522,0,0,0-5.335,0c-.29.391-.592.745-.92,1.117l-3.611,3.98S258.676,214.009,258.676,214.251Z" transform="translate(-182.739 -155.002)" fill="#f8951d"/><g transform="translate(15.401 49.522)" opacity="0.3"><path d="M258.676,214.251,254,210.442c-6.414-4.713-9.452,4.263-14.493-2.472l-1.735-2.159a3.447,3.447,0,0,0-4.72-.622l-2.007,1.471a11.168,11.168,0,0,1-6.586,2.137h-2.628a3.448,3.448,0,0,0-2.033.663l-3.827,2.8c-1.571,1.15-2.666,1.3-5.178-.808,0,0-2.729-2.215-2.792-2.293a3.522,3.522,0,0,0-5.335,0c-.29.391-.592.745-.92,1.117l-3.611,3.98S258.676,214.009,258.676,214.251Z" transform="translate(-198.14 -204.525)" fill="#fff"/></g><path d="M227.076,149.307c0,.052-2.141.1-4.78.1s-4.776-.045-4.776-.1,2.141-.1,4.776-.1S227.076,149.255,227.076,149.307Z" transform="translate(-194.904 -120.28)" fill="#263238"/><rect width="1.634" height="1.634" transform="translate(19.939 28.208)" fill="#f8951d"/><path d="M275.493,149.307c0,.052-2.137.1-4.776.1s-4.776-.045-4.776-.1,2.137-.1,4.776-.1S275.493,149.255,275.493,149.307Z" transform="translate(-225.298 -120.28)" fill="#263238"/><rect width="1.634" height="1.634" transform="translate(37.961 28.208)" fill="#f8951d"/><path d="M323.893,149.307c0,.052-2.137.1-4.776.1s-4.776-.045-4.776-.1,2.137-.1,4.776-.1S323.893,149.255,323.893,149.307Z" transform="translate(-255.68 -120.28)" fill="#263238"/><rect width="1.634" height="1.634" transform="translate(55.987 28.208)" fill="#f8951d"/><path d="M340.66,307.756l3.935-5.614a1.411,1.411,0,0,1,2-.316l2.07,1.564a1.411,1.411,0,0,0,2.07-.421l5.956-10.342a1.407,1.407,0,0,1,2.334-.164l3.723,4.728a1.411,1.411,0,0,0,2.3-.115l2.721-4.285a1.415,1.415,0,0,1,2.427.045l2.234,3.9a1.407,1.407,0,0,0,2.409.052l7.691-12.054a1.411,1.411,0,0,1,2.36-.026l12.71,19.009a1.407,1.407,0,0,0,2.234.164l7.721-8.5a1.407,1.407,0,0,1,2.04-.048l6.143,6.161a1.411,1.411,0,0,0,2.234-.287l10.986-19.031a1.407,1.407,0,0,1,2.628.707v24.865Z" transform="translate(-272.202 -203.302)" fill="#f8951d"/><path d="M431.819,357.178v-1.832l.022.026c-5.249.041-23.513.071-45.2.071s-39.96-.03-45.21-.071l.026-.026v1.724a.56.56,0,0,1,0,.108.56.56,0,0,1,0-.108v-1.746h.026c5.249-.041,23.513-.074,45.21-.074s39.953.034,45.2.074h.026v1.746a.328.328,0,0,1-.1.108Z" transform="translate(-272.685 -249.616)" fill="#263238"/><path d="M368.2,358.745c-.056,0-.1-.171-.1-.372s.041-.372.1-.372.1.175.1.372S368.249,358.745,368.2,358.745Z" transform="translate(-289.426 -251.342)" fill="#263238"/><path d="M395.177,358.745c-.052,0-.1-.171-.1-.372s.045-.372.1-.372.1.175.1.372S395.229,358.745,395.177,358.745Z" transform="translate(-306.362 -251.342)" fill="#263238"/><path d="M422.161,358.745c-.056,0-.1-.171-.1-.372s.045-.372.1-.372.1.175.1.372S422.213,358.745,422.161,358.745Z" transform="translate(-323.298 -251.342)" fill="#263238"/><path d="M449.147,358.745c-.052,0-.1-.171-.1-.372s.045-.372.1-.372.1.175.1.372S449.2,358.745,449.147,358.745Z" transform="translate(-340.24 -251.342)" fill="#263238"/><path d="M476.127,358.745c-.052,0-.1-.171-.1-.372s.045-.372.1-.372.1.175.1.372S476.183,358.745,476.127,358.745Z" transform="translate(-357.176 -251.342)" fill="#263238"/><path d="M503.117,358.745c-.052,0-.1-.171-.1-.372s.045-.372.1-.372.1.175.1.372S503.169,358.745,503.117,358.745Z" transform="translate(-374.119 -251.342)" fill="#263238"/><path d="M530.1,358.745c-.052,0-.1-.171-.1-.372s.045-.372.1-.372.1.175.1.372S530.153,358.745,530.1,358.745Z" transform="translate(-391.054 -251.342)" fill="#263238"/><path d="M557.087,358.745c-.052,0-.1-.171-.1-.372s.045-.372.1-.372.1.175.1.372S557.139,358.745,557.087,358.745Z" transform="translate(-407.997 -251.342)" fill="#263238"/><path d="M472.907,162.788v-9.836c0-6.329-.022-15.442-.041-26.711l.071.071-76.44.026h0l.1-.1v36.547l-.093-.093,54.911.045,15.84.026h.03l-15.822.022-54.971.045H396.4V126.1h.1l76.44.026h.074v.071c-.019,11.287-.03,20.431-.041,26.752V162.1A2.834,2.834,0,0,1,472.907,162.788Z" transform="translate(-307.191 -105.774)" fill="#e0e0e0"/><path d="M465.077,166.32H412.422a.879.879,0,1,1,0-1.753h52.655a.879.879,0,0,1,0,1.753Z" transform="translate(-316.661 -129.919)" fill="#e0e0e0"/><path d="M465.077,147.65H412.422a.879.879,0,1,1,0-1.753h52.655a.879.879,0,0,1,0,1.753Z" transform="translate(-316.661 -118.199)" fill="#e0e0e0"/><path d="M436.211,166.32H412.422a.879.879,0,1,1,0-1.753h23.789a.879.879,0,1,1,0,1.753Z" transform="translate(-316.661 -129.919)" fill="#455a64"/><path d="M570.376,165.325H570v.5h-.287v-.5H568.6v-.2l1.046-1.34h.316l-1.005,1.3h.789v-.447h.276v.447h.372Z" transform="translate(-415.284 -129.426)" fill="#263238"/><path d="M575.119,165.207c0,.372-.253.64-.774.64a1.165,1.165,0,0,1-.745-.249l.134-.231a.931.931,0,0,0,.614.22c.309,0,.484-.145.484-.372s-.145-.372-.618-.372h-.465l.108-1.072h1.154v.257H574.1l-.056.562h.227C574.866,164.6,575.119,164.846,575.119,165.207Z" transform="translate(-418.423 -129.42)" fill="#263238"/><path d="M578.147,164.3a.5.5,0,0,1,.477-.558c.287,0,.477.22.477.558a.484.484,0,1,1-.953,0Zm.767,0c0-.246-.112-.395-.29-.395s-.283.149-.283.395.108.372.283.372S578.914,164.544,578.914,164.3Zm.946-.544h.227l-1.4,2.048h-.227Zm-.413,1.508a.484.484,0,1,1,.477.558.491.491,0,0,1-.477-.558Zm.763,0c0-.242-.112-.391-.287-.391s-.287.145-.287.391.108.372.287.372S580.21,165.5,580.21,165.263Z" transform="translate(-421.273 -129.401)" fill="#263238"/><path d="M465.077,183.61H412.422a.879.879,0,1,1,0-1.753h52.655a.879.879,0,0,1,0,1.753Z" transform="translate(-316.661 -140.772)" fill="#e0e0e0"/><path d="M444.043,183.605H412.552a.83.83,0,0,1-.934-.875c0-.488.279-.879.622-.879h31.495a.912.912,0,0,1,1.005.879A.875.875,0,0,1,444.043,183.605Z" transform="translate(-316.742 -140.767)" fill="#455a64"/><path d="M569.985,181.07v.2l-.826,1.861h-.309l.808-1.791h-.934v.372h-.283v-.622Z" transform="translate(-415.184 -140.279)" fill="#263238"/><path d="M573.13,182.056c0-.666.372-1.046.834-1.046s.834.372.834,1.046-.372,1.05-.834,1.05S573.13,182.723,573.13,182.056Zm1.377,0c0-.521-.223-.786-.544-.786s-.544.264-.544.786.223.789.544.789S574.507,182.581,574.507,182.056Z" transform="translate(-418.128 -140.242)" fill="#263238"/><path d="M578.267,181.588a.5.5,0,0,1,.477-.558c.287,0,.477.22.477.558a.484.484,0,1,1-.953,0Zm.763,0c0-.246-.108-.395-.287-.395s-.287.149-.287.395.112.391.287.391S579.031,181.834,579.031,181.588Zm.949-.544h.223l-1.4,2.048h-.227Zm-.413,1.508c0-.335.19-.558.473-.558a.566.566,0,0,1,0,1.117A.5.5,0,0,1,579.567,182.553Zm.763,0c0-.242-.112-.391-.29-.391s-.283.145-.283.391.108.372.283.372S580.33,182.795,580.33,182.553Z" transform="translate(-421.348 -140.254)" fill="#263238"/><path d="M465.077,200.49H412.422a.879.879,0,1,1,0-1.753h52.655a.879.879,0,0,1,0,1.753Z" transform="translate(-316.661 -151.368)" fill="#e0e0e0"/><path d="M431.974,200.49H412.422a.879.879,0,1,1,0-1.753h19.56a.879.879,0,1,1,0,1.753Z" transform="translate(-316.661 -151.368)" fill="#455a64"/><path d="M569.879,199.415c0,.354-.249.64-.774.64a1.184,1.184,0,0,1-.745-.249l.134-.231a.938.938,0,0,0,.614.22c.313,0,.488-.145.488-.372s-.149-.372-.622-.372h-.465L568.6,198h1.158v.257h-.912l-.056.558h.231C569.641,198.8,569.879,199.054,569.879,199.415Z" transform="translate(-415.134 -150.907)" fill="#263238"/><path d="M573.1,198.936c0-.666.354-1.046.834-1.046s.834.372.834,1.046-.372,1.05-.834,1.05S573.1,199.6,573.1,198.936Zm1.377,0c0-.525-.223-.786-.544-.786s-.544.261-.544.786.223.789.544.789S574.477,199.461,574.477,198.936Z" transform="translate(-418.109 -150.838)" fill="#263238"/><path d="M578.244,198.494a.484.484,0,1,1,.477.558.5.5,0,0,1-.477-.558Zm.745,0c0-.249-.108-.395-.287-.395s-.287.149-.287.395.112.391.287.391.305-.145.305-.391Zm.949-.544h.223l-1.4,2.048h-.227Zm-.395,1.508c0-.335.19-.558.473-.558a.566.566,0,1,1-.473.558Zm.745,0c0-.242-.112-.391-.287-.391s-.287.145-.287.391.108.391.287.391.3-.149.3-.391Z" transform="translate(-421.336 -150.875)" fill="#263238"/><path d="M447.279,147.65H412.422a.879.879,0,1,1,0-1.753h34.864a.879.879,0,1,1,0,1.753Z" transform="translate(-316.661 -118.199)" fill="#f8951d"/><path d="M570.166,146.5a.663.663,0,0,1-.722.648c-.551,0-.864-.372-.864-1.024a1,1,0,0,1,1.478-.953l-.112.231a.7.7,0,0,0-.372-.1c-.413,0-.681.261-.681.771a.523.523,0,0,0,0,.074.681.681,0,0,1,.588-.272.633.633,0,0,1,.685.622Zm-.283,0c0-.238-.182-.395-.469-.395a.424.424,0,0,0-.469.4c0,.208.171.395.484.395a.406.406,0,0,0,.454-.376Z" transform="translate(-415.272 -117.668)" fill="#263238"/><path d="M573.43,146.1c0-.666.372-1.046.838-1.046s.834.372.834,1.046-.372,1.05-.834,1.05S573.43,146.766,573.43,146.1Zm1.377,0c0-.521-.22-.786-.54-.786s-.544.264-.544.786.223.789.544.789S574.807,146.621,574.807,146.1Z" transform="translate(-418.316 -117.669)" fill="#263238"/><path d="M578.583,145.628a.5.5,0,0,1,.477-.558c.283,0,.473.22.473.558s-.19.558-.473.558a.5.5,0,0,1-.477-.558Zm.745,0c0-.246-.108-.395-.287-.395s-.287.149-.287.395.112.391.287.391.305-.145.305-.391Zm.949-.544h.223l-1.4,2.048h-.223Zm-.413,1.489c0-.335.19-.558.473-.558a.566.566,0,0,1,0,1.117c-.264.019-.454-.2-.454-.54Zm.745,0c0-.242-.112-.372-.287-.372s-.287.145-.287.372.108.391.287.391a.327.327,0,0,0,.32-.372Z" transform="translate(-421.549 -117.681)" fill="#263238"/><path d="M455.057,234.537c0,.056-12.888.1-28.785.1s-28.792-.041-28.792-.1,12.888-.1,28.792-.1S455.057,234.485,455.057,234.537Z" transform="translate(-307.869 -173.781)" fill="#e0e0e0"/><path d="M455.057,243.707c0,.056-12.888.1-28.785.1s-28.792-.041-28.792-.1,12.888-.1,28.792-.1S455.057,243.655,455.057,243.707Z" transform="translate(-307.869 -179.537)" fill="#e0e0e0"/><path d="M455.057,252.007c0,.052-12.888.1-28.785.1s-28.792-.045-28.792-.1,12.888-.1,28.792-.1S455.057,251.944,455.057,252.007Z" transform="translate(-307.869 -184.747)" fill="#e0e0e0"/><path d="M202.375,309.874h0a1.039,1.039,0,0,1-1.035-1.035V289.425a1.035,1.035,0,0,1,1.035-1.035h0a1.031,1.031,0,0,1,1.035,1.035v19.414A1.035,1.035,0,0,1,202.375,309.874Z" transform="translate(-184.748 -207.647)" fill="#e0e0e0"/><path d="M202.375,321.746h0a1.035,1.035,0,0,1-1.035-1.035V308.195a1.039,1.039,0,0,1,1.035-1.035h0a1.035,1.035,0,0,1,1.035,1.035v12.516a1.031,1.031,0,0,1-1.035,1.035Z" transform="translate(-184.748 -219.429)" fill="#f8951d"/><path d="M201.384,348.52v1.724h-.175v-1.567h-.41v-.156Z" transform="translate(-184.409 -245.391)" fill="#263238"/><path d="M203.48,349.359c0-.551.287-.879.689-.879s.689.328.689.879-.29.875-.689.875S203.48,349.906,203.48,349.359Zm1.2,0c0-.462-.208-.719-.506-.719s-.51.257-.51.719.208.715.51.715S204.675,349.816,204.675,349.359Z" transform="translate(-186.091 -245.366)" fill="#263238"/><path d="M213.485,309.874h0a1.039,1.039,0,0,1-1.035-1.035V289.425a1.035,1.035,0,0,1,1.035-1.035h0a1.031,1.031,0,0,1,1.035,1.035v19.414A1.035,1.035,0,0,1,213.485,309.874Z" transform="translate(-191.722 -207.647)" fill="#e0e0e0"/><path d="M213.485,315.1h0a1.035,1.035,0,0,1-1.035-1.035V297.6a1.039,1.039,0,0,1,1.035-1.035h0a1.035,1.035,0,0,1,1.035,1.035v16.458a1.031,1.031,0,0,1-1.035,1.035Z" transform="translate(-191.722 -212.781)" fill="#f8951d"/><path d="M212.442,350.06v.156h-1.21v-.127l.718-.7c.194-.194.231-.309.231-.428,0-.2-.141-.324-.406-.324a.584.584,0,0,0-.469.194l-.127-.108a.778.778,0,0,1,.611-.246c.35,0,.573.175.573.465a.715.715,0,0,1-.283.54l-.6.577Z" transform="translate(-190.924 -245.364)" fill="#263238"/><path d="M215.14,349.359c0-.551.287-.879.689-.879s.689.328.689.879-.29.875-.689.875S215.14,349.906,215.14,349.359Zm1.2,0c0-.462-.208-.719-.506-.719s-.51.257-.51.719.208.715.51.715S216.335,349.816,216.335,349.359Z" transform="translate(-193.41 -245.366)" fill="#263238"/><path d="M224.6,309.874h0a1.035,1.035,0,0,1-1.035-1.035V289.425a1.031,1.031,0,0,1,1.035-1.035h0a1.031,1.031,0,0,1,1.031,1.035v19.414a1.035,1.035,0,0,1-1.031,1.035Z" transform="translate(-198.702 -207.647)" fill="#e0e0e0"/><path d="M224.6,326.73h0a1.031,1.031,0,0,1-1.035-1.035v-9.56A1.035,1.035,0,0,1,224.6,315.1h0a1.035,1.035,0,0,1,1.031,1.035v9.56a1.031,1.031,0,0,1-1.031,1.035Z" transform="translate(-198.702 -224.413)" fill="#f8951d"/><path d="M223.517,349.749c0,.29-.208.51-.625.51a.9.9,0,0,1-.622-.22l.086-.141a.763.763,0,0,0,.536.2c.287,0,.443-.134.443-.35s-.145-.343-.465-.343h-.123v-.13l.48-.6h-.886v-.156h1.117v.123l-.488.614C223.335,349.279,223.517,349.473,223.517,349.749Z" transform="translate(-197.886 -245.391)" fill="#263238"/><path d="M226.29,349.359c0-.551.287-.879.689-.879s.689.328.689.879-.29.875-.689.875S226.29,349.906,226.29,349.359Zm1.2,0c0-.462-.208-.719-.506-.719s-.51.257-.51.719.208.715.51.715S227.485,349.816,227.485,349.359Z" transform="translate(-200.409 -245.366)" fill="#263238"/><path d="M235.715,309.874h0a1.035,1.035,0,0,1-1.035-1.035V289.425a1.031,1.031,0,0,1,1.035-1.035h0a1.035,1.035,0,0,1,1.035,1.035v19.414A1.039,1.039,0,0,1,235.715,309.874Z" transform="translate(-205.676 -207.647)" fill="#e0e0e0"/><path d="M235.715,315.1h0a1.031,1.031,0,0,1-1.035-1.035V297.6a1.035,1.035,0,0,1,1.035-1.035h0a1.039,1.039,0,0,1,1.035,1.035v16.458A1.035,1.035,0,0,1,235.715,315.1Z" transform="translate(-205.676 -212.781)" fill="#f8951d"/><path d="M234.957,349.789h-.346v.454h-.175v-.454h-.975v-.127l.916-1.143h.2l-.882,1.117h.745v-.4h.171v.4h.346Z" transform="translate(-204.91 -245.391)" fill="#263238"/><path d="M237.91,349.359c0-.551.29-.879.689-.879s.692.328.692.879-.294.875-.692.875S237.91,349.906,237.91,349.359Zm1.2,0c0-.462-.208-.719-.51-.719s-.506.257-.506.719.2.715.506.715S239.109,349.816,239.109,349.359Z" transform="translate(-207.703 -245.366)" fill="#263238"/><path d="M246.825,309.874h0a1.035,1.035,0,0,1-1.035-1.035V289.425a1.031,1.031,0,0,1,1.035-1.035h0a1.035,1.035,0,0,1,1.035,1.035v19.414A1.039,1.039,0,0,1,246.825,309.874Z" transform="translate(-212.65 -207.647)" fill="#e0e0e0"/><path d="M246.825,320.421h0a1.031,1.031,0,0,1-1.035-1.035v-13.3a1.031,1.031,0,0,1,1.035-1.035h0a1.035,1.035,0,0,1,1.035,1.035v13.3A1.035,1.035,0,0,1,246.825,320.421Z" transform="translate(-212.65 -218.104)" fill="#f8951d"/><path d="M246.223,349.719c0,.294-.2.521-.625.521a.89.89,0,0,1-.618-.22l.086-.141a.745.745,0,0,0,.529.2c.294,0,.45-.145.45-.354s-.138-.372-.577-.372H245.1l.089-.864h.946v.156h-.771l-.06.551h.22C246.026,349.208,246.223,349.424,246.223,349.719Z" transform="translate(-212.141 -245.373)" fill="#263238"/><path d="M248.92,349.359c0-.551.29-.879.689-.879s.689.328.689.879-.29.875-.689.875S248.92,349.906,248.92,349.359Zm1.2,0c0-.462-.2-.719-.506-.719s-.51.257-.51.719.208.715.51.715S250.115,349.816,250.115,349.359Z" transform="translate(-214.615 -245.366)" fill="#263238"/><path d="M257.935,309.874h0a1.035,1.035,0,0,1-1.035-1.035V289.425a1.031,1.031,0,0,1,1.035-1.035h0a1.035,1.035,0,0,1,1.035,1.035v19.414A1.039,1.039,0,0,1,257.935,309.874Z" transform="translate(-219.624 -207.647)" fill="#e0e0e0"/><path d="M257.932,326.5h0a1.02,1.02,0,0,1-1.035-.946V316a1.057,1.057,0,0,1,1.035-1.117h0a1.035,1.035,0,0,1,1.035,1.035v9.56A1.039,1.039,0,0,1,257.932,326.5Z" transform="translate(-219.621 -224.275)" fill="#f8951d"/><path d="M257.129,349.7a.54.54,0,0,1-.592.529c-.458,0-.707-.316-.707-.864a.821.821,0,0,1,1.2-.8l-.071.141a.607.607,0,0,0-.335-.082c-.372,0-.611.242-.611.711a.952.952,0,0,0,0,.138.547.547,0,0,1,.525-.294.525.525,0,0,1,.592.517Zm-.179,0c0-.227-.168-.372-.432-.372a.4.4,0,0,0-.443.372c0,.19.156.372.454.372a.372.372,0,0,0,.421-.369Z" transform="translate(-218.952 -245.365)" fill="#263238"/><path d="M259.86,349.359c0-.551.29-.879.689-.879s.689.328.689.879-.29.875-.689.875S259.86,349.906,259.86,349.359Zm1.2,0c0-.462-.2-.719-.506-.719s-.51.257-.51.719.208.715.51.715.506-.257.506-.715Z" transform="translate(-221.482 -245.366)" fill="#263238"/><path d="M269.045,309.874h0a1.039,1.039,0,0,1-1.035-1.035V289.425a1.035,1.035,0,0,1,1.035-1.035h0a1.031,1.031,0,0,1,1.035,1.035v19.414A1.035,1.035,0,0,1,269.045,309.874Z" transform="translate(-226.598 -207.647)" fill="#e0e0e0"/><path d="M269.045,313.441h0a1.035,1.035,0,0,1-1.035-1.035V294.965a1.035,1.035,0,0,1,1.035-1.035h0a1.031,1.031,0,0,1,1.035,1.035v17.441a1.031,1.031,0,0,1-1.035,1.035Z" transform="translate(-226.598 -211.124)" fill="#f8951d"/><path d="M268.059,348.52v.123l-.722,1.6h-.194l.711-1.567h-.89V349h-.175v-.48Z" transform="translate(-225.832 -245.391)" fill="#263238"/><path d="M270.69,349.359c0-.551.29-.879.689-.879s.689.328.689.879-.29.875-.689.875S270.69,349.906,270.69,349.359Zm1.2,0c0-.462-.2-.719-.506-.719s-.506.257-.506.719.2.715.506.715S271.885,349.816,271.885,349.359Z" transform="translate(-228.28 -245.366)" fill="#263238"/><path d="M280.155,309.874h0a1.039,1.039,0,0,1-1.035-1.035V289.425a1.035,1.035,0,0,1,1.035-1.035h0a1.031,1.031,0,0,1,1.035,1.035v19.414A1.035,1.035,0,0,1,280.155,309.874Z" transform="translate(-233.572 -207.647)" fill="#e0e0e0"/><path d="M280.155,330.057h0a1.035,1.035,0,0,1-1.035-1.035v-7.587a1.035,1.035,0,0,1,1.035-1.035h0a1.031,1.031,0,0,1,1.035,1.035v7.587a1.031,1.031,0,0,1-1.035,1.035Z" transform="translate(-233.572 -227.74)" fill="#f8951d"/><path d="M279.1,349.751c0,.305-.261.5-.67.5s-.666-.19-.666-.5a.432.432,0,0,1,.331-.424.372.372,0,0,1-.268-.372c0-.279.238-.454.6-.454s.607.175.607.454a.372.372,0,0,1-.275.372A.436.436,0,0,1,279.1,349.751Zm-.182,0c0-.208-.182-.343-.488-.343s-.488.134-.488.343.182.35.488.35.488-.138.488-.354Zm-.488-.484c.268,0,.428-.119.428-.309s-.171-.313-.428-.313-.428.119-.428.313.16.305.428.305Z" transform="translate(-232.718 -245.379)" fill="#263238"/><path d="M282,349.359c0-.551.287-.879.689-.879s.689.328.689.879-.29.875-.689.875S282,349.906,282,349.359Zm1.2,0c0-.462-.208-.719-.506-.719s-.51.257-.51.719.208.715.51.715.51-.257.51-.715Z" transform="translate(-235.38 -245.366)" fill="#263238"/><path d="M291.255,309.874h0a1.039,1.039,0,0,1-1.035-1.035V289.425a1.035,1.035,0,0,1,1.035-1.035h0a1.031,1.031,0,0,1,1.035,1.035v19.414A1.035,1.035,0,0,1,291.255,309.874Z" transform="translate(-240.539 -207.647)" fill="#e0e0e0"/><path d="M291.252,338.134h0a1.024,1.024,0,0,1-1.035-.946v-2.662a1.057,1.057,0,0,1,1.035-1.117h0a1.031,1.031,0,0,1,1.035,1.035v2.662A1.035,1.035,0,0,1,291.252,338.134Z" transform="translate(-240.537 -235.907)" fill="#f8951d"/><path d="M290,349.339c0,.584-.32.89-.789.89a.786.786,0,0,1-.41-.093l.071-.141a.6.6,0,0,0,.335.078c.372,0,.611-.238.611-.707a.961.961,0,0,0,0-.138.547.547,0,0,1-.525.294.525.525,0,0,1-.585-.518.54.54,0,0,1,.592-.529C289.752,348.476,290,348.792,290,349.339Zm-.246-.346c0-.19-.156-.372-.454-.372a.372.372,0,0,0-.424.372c0,.227.168.372.436.372a.4.4,0,0,0,.443-.372Z" transform="translate(-239.592 -245.362)" fill="#263238"/><path d="M292.86,349.359c0-.551.29-.879.689-.879s.689.328.689.879-.29.875-.689.875S292.86,349.906,292.86,349.359Zm1.2,0c0-.462-.2-.719-.506-.719s-.506.257-.506.719.2.715.506.715S294.055,349.816,294.055,349.359Z" transform="translate(-242.197 -245.366)" fill="#263238"/><path d="M302.381,309.874h0a1.035,1.035,0,0,1-1.031-1.035V289.425a1.031,1.031,0,0,1,1.031-1.035h0a1.031,1.031,0,0,1,1.035,1.035v19.414A1.035,1.035,0,0,1,302.381,309.874Z" transform="translate(-247.526 -207.647)" fill="#e0e0e0"/><path d="M302.378,326.5h0a1.02,1.02,0,0,1-1.031-.946V316a1.053,1.053,0,0,1,1.031-1.117h0a1.031,1.031,0,0,1,1.035,1.035v9.56a1.035,1.035,0,0,1-1.035,1.027Z" transform="translate(-247.523 -224.275)" fill="#f8951d"/><path d="M299.154,348.52v1.724h-.175v-1.567h-.41v-.156Z" transform="translate(-245.781 -245.391)" fill="#263238"/><path d="M301.25,349.359c0-.551.287-.879.685-.879s.692.328.692.879-.29.875-.692.875S301.25,349.906,301.25,349.359Zm1.2,0c0-.462-.208-.719-.51-.719s-.506.257-.506.719.208.715.506.715S302.445,349.816,302.445,349.359Z" transform="translate(-247.463 -245.366)" fill="#263238"/><path d="M305.63,349.359c0-.551.287-.879.685-.879s.692.328.692.879-.29.875-.692.875S305.63,349.906,305.63,349.359Zm1.2,0c0-.462-.208-.719-.51-.719s-.506.257-.506.719.208.715.506.715S306.825,349.816,306.825,349.359Z" transform="translate(-250.213 -245.366)" fill="#263238"/><path d="M326.987,308.879c-.052,0-.1-6.388-.1-14.266s.045-14.273.1-14.273.1,6.388.1,14.273S327.039,308.879,326.987,308.879Z" transform="translate(-263.558 -202.593)" fill="#e0e0e0"/><path d="M362.144,285.167c0,.056-3.939.1-8.8.1s-8.8-.041-8.8-.1,3.939-.1,8.8-.1S362.144,285.115,362.144,285.167Z" transform="translate(-274.644 -205.562)" fill="#263238"/><g transform="translate(68.458 78.167)" opacity="0.5"><path d="M340.66,307.756l3.935-5.614a1.411,1.411,0,0,1,2-.316l2.07,1.564a1.411,1.411,0,0,0,2.07-.421l5.956-10.342a1.407,1.407,0,0,1,2.334-.164l3.723,4.728a1.411,1.411,0,0,0,2.3-.115l2.721-4.285a1.415,1.415,0,0,1,2.427.045l2.234,3.9a1.407,1.407,0,0,0,2.409.052l7.691-12.054a1.411,1.411,0,0,1,2.36-.026l12.71,19.009a1.407,1.407,0,0,0,2.234.164l7.721-8.5a1.407,1.407,0,0,1,2.04-.048l6.143,6.161a1.411,1.411,0,0,0,2.234-.287l10.986-19.031a1.407,1.407,0,0,1,2.628.707v24.865Z" transform="translate(-340.66 -281.468)" fill="#fff"/></g></g><g transform="translate(63.593 143.543)"><path d="M122.076,299.834a17.408,17.408,0,1,1,17.315-19.254h0a17.419,17.419,0,0,1-17.315,19.254Zm.041-32.206a15.369,15.369,0,0,0-1.6.086,14.746,14.746,0,1,0,1.6-.086Z" transform="translate(-104.673 -265.018)" fill="#455a64"/><path d="M190.764,364.786a1.284,1.284,0,0,1-.99-.458l-16.458-19.31a1.3,1.3,0,1,1,1.984-1.69l16.455,19.321a1.3,1.3,0,0,1-.99,2.148Z" transform="translate(-147.566 -313.887)" fill="#455a64"/></g><g transform="translate(240.522 165.882)"><path d="M644.21,372.888a9.86,9.86,0,0,0,8.462-1.575,21.519,21.519,0,0,0,5.406-6.5,9.7,9.7,0,0,0,1.43-3.313,3.587,3.587,0,0,0-1.02-3.321c-1.441-1.21-3.648-.6-5.283.335a18.208,18.208,0,0,0-8.994,14.377" transform="translate(-620.281 -345.412)" fill="#f8951d"/><path d="M651.93,408.878c1.608,2.122,4.374,3.068,7.036,3.19a19.442,19.442,0,0,0,7.773-1.564,3.362,3.362,0,0,0,2.2-1.739,2.2,2.2,0,0,0-.473-2.048,4.557,4.557,0,0,0-1.794-1.225,12.244,12.244,0,0,0-7.818-.421,19.119,19.119,0,0,0-6.917,3.8" transform="translate(-625.127 -374.991)" fill="#f8951d"/><path d="M642.228,341.024c2.234.045,3.9-1.9,4.9-3.875a14.358,14.358,0,0,0,1.322-8.957,3.934,3.934,0,0,0-1.645-2.9,2.941,2.941,0,0,0-3.235.6,6.664,6.664,0,0,0-1.683,3.03,20.261,20.261,0,0,0,.343,12.1" transform="translate(-618.339 -325.026)" fill="#f8951d"/><path d="M618.5,360.55a26.685,26.685,0,0,0,2.178-21.432c-.372-1.154-1.046-2.476-2.234-2.554-1.34-.082-2.178,1.407-2.546,2.7-1.3,4.523-1.02,9.329-.745,14.024a9.961,9.961,0,0,0,3.351,7.267" transform="translate(-601.895 -332.267)" fill="#f8951d"/><path d="M592.615,391.078a15.468,15.468,0,0,0-9.173-9.731c-1.005-.372-2.282-.592-3.03.175s-.51,2.014-.037,2.956a14.486,14.486,0,0,0,3.228,3.913,13.35,13.35,0,0,0,3.7,2.755c1.418.622,4.017.778,5.312-.067" transform="translate(-579.932 -360.166)" fill="#f8951d"/><path d="M647.665,363.649a.46.46,0,0,1-.067.06l-.2.156-.793.592-.577.439c-.2.16-.421.346-.659.54-.465.372-1.02.812-1.578,1.34l-.89.808c-.309.287-.607.6-.927.923-.651.625-1.281,1.355-1.958,2.107a46.043,46.043,0,0,0-3.9,5.316,45.352,45.352,0,0,0-3.012,5.867c-.372.942-.745,1.832-1.013,2.7-.141.428-.294.838-.41,1.24s-.223.789-.328,1.158c-.223.745-.372,1.418-.491,2.014-.067.3-.138.573-.186.826l-.123.707c-.074.409-.134.745-.175.972l-.052.253a.293.293,0,0,1-.022.086.4.4,0,0,1,0-.089c0-.067.022-.149.034-.253.034-.238.082-.566.141-.983.033-.212.071-.45.108-.707s.112-.532.171-.834c.134-.6.253-1.284.473-2.021.1-.372.2-.745.316-1.169s.261-.815.4-1.247c.264-.867.633-1.761,1-2.71a40.637,40.637,0,0,1,6.943-11.254c.681-.745,1.318-1.489,1.977-2.107.324-.316.625-.637.938-.916s.614-.551.9-.8c.562-.529,1.117-.942,1.6-1.325.238-.19.458-.372.666-.529l.588-.413.812-.566.216-.141A.584.584,0,0,1,647.665,363.649Z" transform="translate(-611.551 -349.27)" fill="#263238"/><path d="M652.921,410.366a2.263,2.263,0,0,1-.261-.045c-.167-.03-.413-.1-.745-.149a20.3,20.3,0,0,0-20.65,8.592c-.19.264-.316.484-.413.625a1.117,1.117,0,0,1-.153.216,1.771,1.771,0,0,1,.123-.235c.089-.145.2-.372.372-.644a17.944,17.944,0,0,1,1.653-2.234,19.653,19.653,0,0,1,16.321-6.79,18.171,18.171,0,0,1,2.744.395c.324.063.566.138.745.182a1.191,1.191,0,0,1,.264.086Z" transform="translate(-611.8 -378.148)" fill="#263238"/><path d="M638.733,332.64a.274.274,0,0,1,0,.1,1.673,1.673,0,0,1-.06.29c-.06.264-.141.637-.249,1.117-.216.96-.547,2.349-.968,4.062-.83,3.425-2.044,8.142-3.3,13.368-.629,2.606-1.2,5.115-1.683,7.39s-.89,4.341-1.2,6.076c-.164.864-.287,1.653-.4,2.342s-.208,1.288-.283,1.776-.13.849-.171,1.117c-.022.119-.037.216-.052.29a.318.318,0,0,1-.022.1.507.507,0,0,1,0-.1,1.037,1.037,0,0,1,.034-.294c.034-.268.082-.644.141-1.117s.141-1.087.253-1.78.22-1.489.372-2.349c.287-1.739.685-3.8,1.158-6.087s1.042-4.78,1.668-7.4c1.262-5.23,2.491-9.944,3.351-13.361.428-1.7.774-3.079,1.02-4.047.119-.465.216-.834.283-1.1.03-.119.056-.212.074-.287S638.729,332.636,638.733,332.64Z" transform="translate(-611.576 -329.805)" fill="#263238"/><path d="M625.15,380.737a.3.3,0,0,1-.026-.078,1.279,1.279,0,0,0-.052-.231c-.045-.22-.108-.517-.186-.9-.16-.778-.372-1.906-.614-3.306-.484-2.8-1.061-6.7-1.415-11.012-.171-2.163-.264-4.229-.305-6.109s0-3.574.041-4.992c0-.711.067-1.351.1-1.917s.067-1.046.1-1.444.063-.685.086-.908a.648.648,0,0,1,.026-.238.041.041,0,1,1,.019,0v.235c0,.227-.026.529-.048.916s-.056.879-.074,1.444-.06,1.2-.071,1.914c-.041,1.418-.045,3.109,0,4.985s.149,3.939.32,6.1c.372,4.315.908,8.19,1.359,11,.227,1.4.421,2.535.562,3.317.063.372.115.681.153.9a1.53,1.53,0,0,0,.034.234A.275.275,0,0,1,625.15,380.737Z" transform="translate(-606.674 -340.403)" fill="#263238"/><path d="M604.617,405.778a1.03,1.03,0,0,1-.1-.223c-.063-.164-.149-.372-.249-.648-.056-.141-.115-.3-.179-.465l-.242-.547c-.089-.194-.179-.4-.279-.622s-.223-.447-.342-.689l-.372-.745-.458-.789c-.305-.555-.7-1.117-1.076-1.709a40.665,40.665,0,0,0-2.848-3.641,45.071,45.071,0,0,0-3.269-3.269c-.544-.458-1.042-.92-1.545-1.3l-.715-.57-.681-.5c-.428-.324-.83-.6-1.188-.834s-.655-.447-.916-.6l-.584-.372a.9.9,0,0,1-.2-.141,2.179,2.179,0,0,1,.216.108l.6.346c.264.145.577.339.934.577s.771.5,1.206.815l.689.5.745.562c.51.372,1.013.838,1.56,1.3a41.881,41.881,0,0,1,3.295,3.276,39.019,39.019,0,0,1,2.848,3.663c.372.607.767,1.165,1.068,1.727.156.276.305.54.454.8l.372.745c.115.246.242.469.335.7l.264.633.231.551c.06.171.115.331.164.477l.22.659A.992.992,0,0,1,604.617,405.778Z" transform="translate(-585.863 -364.625)" fill="#263238"/><path d="M659.737,383.606c0,.026-.458.026-1.191.067a22.339,22.339,0,0,0-2.855.346,22.7,22.7,0,0,0-2.785.726,11.456,11.456,0,0,1-1.135.372,1.255,1.255,0,0,1,.283-.153c.19-.089.465-.208.812-.339a16.939,16.939,0,0,1,5.692-1.076h.879a1.145,1.145,0,0,1,.3.056Z" transform="translate(-625.026 -361.763)" fill="#263238"/><path d="M674.45,414.253a11.118,11.118,0,0,0-1.556-2.345,10.915,10.915,0,0,0-2.234-1.727,2.721,2.721,0,0,1,.767.339,6.783,6.783,0,0,1,2.733,2.945,2.715,2.715,0,0,1,.29.789Z" transform="translate(-636.884 -378.479)" fill="#263238"/><path d="M650.046,346.67c.037.037-.663.745-1.422,1.664s-1.3,1.753-1.344,1.724a7.942,7.942,0,0,1,1.206-1.839,7.764,7.764,0,0,1,1.56-1.549Z" transform="translate(-622.208 -338.612)" fill="#263238"/><path d="M648.57,336.07a12.959,12.959,0,0,1,.514,3.015,6.7,6.7,0,0,1-.342-1.489,6.519,6.519,0,0,1-.171-1.526Z" transform="translate(-623.017 -331.958)" fill="#263238"/><path d="M625.571,369.33a37.316,37.316,0,0,1-2.371,4.575A36.625,36.625,0,0,1,625.571,369.33Z" transform="translate(-607.092 -352.836)" fill="#263238"/><path d="M618.26,358a20.668,20.668,0,0,1,1.716,3.447,11.089,11.089,0,0,1-.938-1.683A10.528,10.528,0,0,1,618.26,358Z" transform="translate(-603.991 -345.724)" fill="#263238"/><path d="M595.9,396.021c0,.052-.745-.1-1.7-.16s-1.7-.03-1.705-.082a4.976,4.976,0,0,1,1.716-.1,4.879,4.879,0,0,1,1.686.339Z" transform="translate(-587.821 -369.357)" fill="#263238"/><path d="M613,430.78l2.107,11.072a1.549,1.549,0,0,0,1.523,1.262h6.221a1.552,1.552,0,0,0,1.53-1.3l1.828-11.034Z" transform="translate(-600.689 -391.41)" fill="#263238"/><path d="M613.675,434.386h11.891l.633-3.6H612.99Z" transform="translate(-600.683 -391.416)" fill="#455a64"/><path d="M614.83,440.45l.249,1.31h11.462l.179-1.31Z" transform="translate(-601.838 -397.48)" fill="#fafafa"/></g><g transform="translate(157.452 89.374)"><path d="M498.738,435.54l.186,6.768s6.943,2.081,7.1,3.328l-13.108.838-.726-10.532Z" transform="translate(-441.784 -317.889)" fill="#f8951d"/><path d="M498.714,452.856a.536.536,0,0,0-.331.633.514.514,0,0,0,.625.335.566.566,0,0,0,.346-.674.536.536,0,0,0-.689-.275" transform="translate(-445.661 -328.746)" fill="#e0e0e0"/><g transform="translate(51.098 127.114)" opacity="0.6"><path d="M494.084,462.431l-.033-1.065,12.583-.406s.6.22.558.633Z" transform="translate(-494.05 -460.96)" fill="#fff"/></g><path d="M508.9,453.429c0,.063-.316.112-.618.339s-.45.506-.514.484,0-.4.372-.666S508.907,453.37,508.9,453.429Z" transform="translate(-451.547 -329.089)" fill="#263238"/><path d="M513.254,454.764c0,.06-.249.186-.451.473s-.246.573-.309.573-.127-.372.127-.707S513.25,454.7,513.254,454.764Z" transform="translate(-454.494 -329.943)" fill="#263238"/><path d="M516.84,457.168c-.056.019-.168-.294-.026-.655s.436-.521.465-.469-.145.249-.257.547S516.907,457.161,516.84,457.168Z" transform="translate(-457.198 -330.754)" fill="#263238"/><path d="M507.979,449.051c-.026.06-.324,0-.685.037s-.633.179-.67.127.22-.3.644-.35S508.005,448.995,507.979,449.051Z" transform="translate(-450.843 -326.248)" fill="#263238"/><path d="M506.657,444.094a1.248,1.248,0,0,1-.659.037,2.9,2.9,0,0,1-.7-.168,2.945,2.945,0,0,1-.391-.175.848.848,0,0,1-.2-.141.279.279,0,0,1-.052-.339.346.346,0,0,1,.272-.164.846.846,0,0,1,.246,0,2.275,2.275,0,0,1,.417.115,2.233,2.233,0,0,1,.633.372c.32.261.439.5.421.506s-.19-.168-.514-.372a2.709,2.709,0,0,0-.622-.309,2.4,2.4,0,0,0-.372-.093c-.141-.03-.261-.022-.29.041s0,.037,0,.074a.711.711,0,0,0,.153.1,3.5,3.5,0,0,0,.372.175,3.351,3.351,0,0,0,.651.2A4.9,4.9,0,0,1,506.657,444.094Z" transform="translate(-449.584 -322.658)" fill="#263238"/><path d="M509.5,442.409a1.046,1.046,0,0,1-.216-.622,2.166,2.166,0,0,1,.045-.726,2.323,2.323,0,0,1,.141-.41.551.551,0,0,1,.4-.372.309.309,0,0,1,.287.164.906.906,0,0,1,.082.238,1.488,1.488,0,0,1,.03.443,1.541,1.541,0,0,1-.238.7c-.235.354-.5.447-.5.428a3.034,3.034,0,0,0,.372-.51,1.429,1.429,0,0,0,.134-1.009c-.03-.138-.089-.246-.141-.227a.491.491,0,0,0-.216.227,2.12,2.12,0,0,0-.138.372,2.332,2.332,0,0,0-.086.663C509.457,442.152,509.546,442.387,509.5,442.409Z" transform="translate(-452.51 -320.864)" fill="#263238"/><path d="M429.433,434.75l-.789,8.693-2.606,6.7a.9.9,0,0,0,.57,1.18h0a.89.89,0,0,0,.8-.141c1.471-1.117,6.85-5.26,6.872-5.9.026-.745,1.441-9.117,1.441-9.117Z" transform="translate(-400.222 -317.394)" fill="#f8951d"/><g transform="translate(26.382 127.3)" opacity="0.6"><path d="M427.66,468.087l7.743-6.627-.041.372a1.352,1.352,0,0,1-.417.83c-.625.584-2.383,2.159-6.455,5.29a.886.886,0,0,1-.83.138Z" transform="translate(-427.66 -461.46)" fill="#fff"/></g><g transform="translate(32.392 124.239)" opacity="0.6"><path d="M444.074,453.3a.547.547,0,0,0-.227.685.521.521,0,0,0,.678.231.57.57,0,0,0,.238-.726.536.536,0,0,0-.745-.164" transform="translate(-443.804 -453.239)" fill="#fff"/></g><path d="M431.34,467.772c-.052.019-.194-.458-.685-.745a2.778,2.778,0,0,0-.975-.305c0-.022.112-.078.32-.082a1.381,1.381,0,0,1,.745.227,1.418,1.418,0,0,1,.525.6C431.363,467.638,431.363,467.768,431.34,467.772Z" transform="translate(-402.546 -337.412)" fill="#263238"/><path d="M429.494,471.33c-.048.03-.294-.283-.726-.462a6.239,6.239,0,0,0-.838-.2.99.99,0,0,1,.912.026C429.333,470.9,429.538,471.311,429.494,471.33Z" transform="translate(-401.447 -339.875)" fill="#263238"/><path d="M433.767,463.908a9.485,9.485,0,0,0-1.072-.789,8.724,8.724,0,0,0-1.255-.443A2.442,2.442,0,0,1,433.767,463.908Z" transform="translate(-403.65 -334.918)" fill="#263238"/><path d="M435.11,458.144c-.026.048-.484-.2-1.117-.3s-1.117,0-1.143-.056a2.234,2.234,0,0,1,2.234.354Z" transform="translate(-404.535 -331.759)" fill="#263238"/><path d="M435.8,451.242a4.4,4.4,0,0,0-1.143-.342,4.355,4.355,0,0,0-1.184.16c0-.022.1-.119.309-.212a1.954,1.954,0,0,1,1.746.138C435.722,451.112,435.812,451.224,435.8,451.242Z" transform="translate(-404.925 -327.408)" fill="#263238"/><path d="M434.75,447.229a.745.745,0,0,1,.026-.331,2.234,2.234,0,0,1,.372-.83,1.024,1.024,0,0,1,.488-.432.372.372,0,0,1,.395.127.588.588,0,0,1,.093.406,1.262,1.262,0,0,1-1.232,1.035,1.463,1.463,0,0,1-1.348-.923.518.518,0,0,1,.026-.424.35.35,0,0,1,.372-.141,1.239,1.239,0,0,1,.536.372,2.606,2.606,0,0,1,.517.745.773.773,0,0,1,.1.316,3.808,3.808,0,0,0-.707-.96,1.2,1.2,0,0,0-.477-.305.194.194,0,0,0-.212.078.372.372,0,0,0,0,.279,1.307,1.307,0,0,0,1.176.789,1.117,1.117,0,0,0,1.054-.893.454.454,0,0,0-.052-.29.2.2,0,0,0-.22-.071.908.908,0,0,0-.417.372,3.314,3.314,0,0,0-.488,1.083Z" transform="translate(-404.95 -324.218)" fill="#263238"/><path d="M429.067,267.851l-.517,67.807,9.538.611,2.007-56.642,11.429,56.322,8.667-.912-9.221-67.2Z" transform="translate(-401.836 -212.621)" fill="#263238"/><path d="M450.1,119.97a5.774,5.774,0,0,0-6.217,5.409c-.16,2.684-.309,5.584-.29,7.051a3.766,3.766,0,0,0,3.179,3.626s-.078.931-.164,2.085a4.136,4.136,0,0,0,3.931,4.441h0a4.136,4.136,0,0,0,4.318-3.946l.57-12.657a5.778,5.778,0,0,0-5.327-6.009Z" transform="translate(-411.281 -119.788)" fill="#b78876"/><path d="M452.12,161.115a7.315,7.315,0,0,0,4.1-1.165,3.864,3.864,0,0,1-4.1,1.977Z" transform="translate(-416.632 -144.896)" fill="#aa6550"/><path d="M474.4,138.894c.056-.022,2.159-.637,2.088,1.508a1.617,1.617,0,0,1-2.211,1.575C474.276,141.917,474.4,138.894,474.4,138.894Z" transform="translate(-430.542 -131.617)" fill="#b78876"/><path d="M476.107,142.341a1.045,1.045,0,0,0,.1.06.372.372,0,0,0,.279,0,.927.927,0,0,0,.454-.819,1.251,1.251,0,0,0-.086-.536.447.447,0,0,0-.272-.3.194.194,0,0,0-.227.1c-.03.06,0,.1-.03.1s-.045-.037-.022-.127a.231.231,0,0,1,.089-.13.276.276,0,0,1,.208-.048.532.532,0,0,1,.372.346,1.266,1.266,0,0,1,.108.6.968.968,0,0,1-.573.908.413.413,0,0,1-.343-.067C476.11,142.393,476.1,142.345,476.107,142.341Z" transform="translate(-431.687 -132.774)" fill="#aa6550"/><path d="M446.52,139.2a.45.45,0,0,0,.432.454.428.428,0,0,0,.462-.406.443.443,0,0,0-.432-.45.428.428,0,0,0-.462.4Z" transform="translate(-413.116 -131.617)" fill="#263238"/><path d="M446.539,136.733c.056.056.395-.194.879-.194s.838.242.89.182-.034-.13-.186-.242a1.239,1.239,0,0,0-.711-.22,1.158,1.158,0,0,0-.7.227C446.561,136.6,446.513,136.707,446.539,136.733Z" transform="translate(-413.124 -130.025)" fill="#263238"/><path d="M459.26,139.2a.447.447,0,0,0,.432.454.428.428,0,0,0,.462-.406.447.447,0,0,0-.432-.45.428.428,0,0,0-.462.4Z" transform="translate(-421.113 -131.617)" fill="#263238"/><path d="M459.279,136.973c.056.056.395-.194.879-.194s.834.242.886.186-.03-.134-.182-.246a1.251,1.251,0,0,0-.711-.22,1.184,1.184,0,0,0-.7.227C459.3,136.839,459.253,136.947,459.279,136.973Z" transform="translate(-421.121 -130.176)" fill="#263238"/><path d="M452.539,140.588a2.978,2.978,0,0,0-.785-.141c-.123,0-.238-.037-.261-.123a.655.655,0,0,1,.082-.372l.372-.938a16.48,16.48,0,0,0,.819-2.453,16.09,16.09,0,0,0-1.013,2.383l-.35.942a.7.7,0,0,0-.063.484.313.313,0,0,0,.2.182.908.908,0,0,0,.208.026A3.349,3.349,0,0,0,452.539,140.588Z" transform="translate(-416.131 -130.213)" fill="#263238"/><path d="M455.807,148.27c-.078,0-.078.521-.529.893a2.437,2.437,0,0,1-1.009.372c0,.06.127.1.372.108a1.3,1.3,0,0,0,.841-.294,1.139,1.139,0,0,0,.409-.745C455.9,148.4,455.845,148.266,455.807,148.27Z" transform="translate(-417.981 -137.564)" fill="#263238"/><path d="M458.988,132.079c.045.13.529.067,1.095.138s1.024.223,1.117.1c.034-.056-.048-.179-.231-.305a1.836,1.836,0,0,0-.815-.287,1.861,1.861,0,0,0-.856.1C459.055,131.915,458.95,132.015,458.988,132.079Z" transform="translate(-420.938 -127.173)" fill="#263238"/><path d="M446.988,132.955c.086.108.417,0,.815,0s.745.074.815-.041c.037-.056-.019-.164-.164-.268a1.117,1.117,0,0,0-.666-.179,1.139,1.139,0,0,0-.651.22C447.007,132.788,446.962,132.9,446.988,132.955Z" transform="translate(-413.406 -127.643)" fill="#263238"/><path d="M459.685,126.692a3.522,3.522,0,0,1-.052,1.027,1.117,1.117,0,0,1-.547.786,1.166,1.166,0,0,1-1.459-.7,3.6,3.6,0,0,1-.119-1.783,8.623,8.623,0,0,0-.037-2.457,3.525,3.525,0,0,0-1.176-2.1,2.234,2.234,0,0,0-2.312-.335,12.424,12.424,0,0,0-1.221.9,1.891,1.891,0,0,1-1.3.328,1.217,1.217,0,0,1-.994-.83,1.318,1.318,0,0,1,.506-1.314,3.015,3.015,0,0,1,1.37-.551,7.364,7.364,0,0,1,4.073.316,5.312,5.312,0,0,1,2.956,2.751,6.7,6.7,0,0,1,.372,3.961" transform="translate(-415.578 -119.512)" fill="#263238"/><path d="M357.182,183l4.575.923,6.28,3.991-2.144,4.1a10.974,10.974,0,0,1-2.859-1.191,2.606,2.606,0,0,0-1.363-.633s.041,1.009-.722.834-2.048-.391-1.828-1.489a.83.83,0,0,1-.54-.908s-.633-.048-.462-1.094a2.335,2.335,0,0,1,3.015-2.018c.108.022.253-.186.063-.257l-3.213-.763S355.965,183.7,357.182,183Z" transform="translate(-356.792 -159.365)" fill="#b78876"/><path d="M362.341,195.06a3.258,3.258,0,0,1,.767.186,6.923,6.923,0,0,1,.819.279.689.689,0,0,1,.372.424.569.569,0,0,1-.22.573,1.355,1.355,0,0,1-1.08.141,7.107,7.107,0,0,1-.845-.175,2.3,2.3,0,0,1-.745-.294,6.1,6.1,0,0,1,.767.16c.235.048.517.093.834.13a2.67,2.67,0,0,0,.484.034.785.785,0,0,0,.45-.149A.372.372,0,0,0,364.1,196a.521.521,0,0,0-.272-.313c-.264-.134-.558-.216-.778-.305A3.48,3.48,0,0,1,362.341,195.06Z" transform="translate(-359.691 -166.935)" fill="#aa6550"/><path d="M365.2,193.365c0,.056-.279.063-.547.235s-.4.41-.45.391,0-.346.346-.555S365.232,193.313,365.2,193.365Z" transform="translate(-361.432 -165.832)" fill="#aa6550"/><path d="M365.006,198.86a.16.16,0,0,1,.1.06.689.689,0,0,1,.1.313.6.6,0,0,1-.134.488.625.625,0,0,1-.592.175,7,7,0,0,1-1.005-.2c-.253-.082-.391-.171-.372-.2s.164.019.413.063.607.086.994.141a.462.462,0,0,0,.436-.1.5.5,0,0,0,.13-.372.742.742,0,0,0-.026-.279C365.028,198.894,364.995,198.867,365.006,198.86Z" transform="translate(-360.755 -169.32)" fill="#aa6550"/><path d="M368.11,201.051c0-.022.086-.063.223-.026a.849.849,0,0,1,.409.328.6.6,0,0,1,.048.54c-.045.127-.1.186-.123.179s-.019-.089,0-.208a.64.64,0,0,0-.071-.4,1.224,1.224,0,0,0-.309-.313C368.188,201.092,368.11,201.081,368.11,201.051Z" transform="translate(-363.897 -170.67)" fill="#aa6550"/><path d="M369.9,194.6l-2.208-.093-2.319.454s-.194.421.882.707a5.212,5.212,0,0,0,2.066.1,4.7,4.7,0,0,0,2.2,1.716" transform="translate(-362.173 -166.59)" fill="#b78876"/><path d="M370.357,197.375a.666.666,0,0,1-.2-.037,2.657,2.657,0,0,1-.536-.231,5.029,5.029,0,0,1-1.53-1.4l.086.037a4.866,4.866,0,0,1-2.543-.238,1.311,1.311,0,0,1-.372-.231.439.439,0,0,1-.145-.462v-.045h.056l2.323-.436h.019c.67.037,1.221.071,1.6.1a3,3,0,0,1,.6.071,3.062,3.062,0,0,1-.6.019c-.372,0-.938,0-1.608-.034h.019l-2.3.465.071-.056a.268.268,0,0,0,.1.242,1.013,1.013,0,0,0,.313.194,4.84,4.84,0,0,0,2.431.249h.056l.03.045a5.42,5.42,0,0,0,1.441,1.411C370.081,197.286,370.368,197.349,370.357,197.375Z" transform="translate(-362.004 -166.477)" fill="#aa6550"/><path d="M369.38,190.011c-.03.045-.242-.052-.4-.279s-.182-.458-.13-.473.149.164.29.372S369.414,189.966,369.38,190.011Z" transform="translate(-364.344 -163.293)" fill="#aa6550"/><path d="M435.47,205.472a26.184,26.184,0,0,0,13.264,1.6l3.686-37.44-2.606-2-6.009,4.467-2.055-4.3-4.821,6.928Z" transform="translate(-406.18 -149.717)" fill="#f5f5f5"/><path d="M451.808,214.807a.285.285,0,0,0-.022-.086,1.658,1.658,0,0,1-.041-.264c-.034-.249-.082-.592-.141-1.024s-.067-.99-.108-1.623-.03-1.359-.048-2.159c-.022-3.194.194-7.606.547-12.468s.8-9.255,1.154-12.43c.175-1.586.335-2.867.458-3.753.06-.443.115-.786.153-1.016a1.381,1.381,0,0,1,.045-.264l.022-.089a.29.29,0,0,1,0,.093.92.92,0,0,1-.03.264c-.026.249-.067.592-.115,1.02-.1.9-.231,2.185-.4,3.76-.316,3.179-.745,7.568-1.095,12.43s-.588,9.262-.6,12.453c0,.8,0,1.523.019,2.156s.056,1.173.074,1.623.078.771.1,1.02l.022.268A.4.4,0,0,1,451.808,214.807Z" transform="translate(-416.208 -157.249)" fill="#263238"/><path d="M463.249,212.8s-2.8-29.265-1.065-32.533c1.344-2.531,3.425-7.818,4.3-10.074a2.725,2.725,0,0,0-.056-2.088l-.2-.462,2.606,2,5.35,2.878-3.231,24.79,3.659,12.579Z" transform="translate(-422.593 -149.723)" fill="#f8951d"/><g transform="translate(39.658 50.413)" opacity="0.3"><path d="M463.6,259.118c2.275-.477,1.292.845,3.592.51,1.243-.179,1.307-.908,2.33-1.634a7.044,7.044,0,0,1,3.827-1.31l-.51-1.753-9.515.354Z" transform="translate(-463.32 -254.93)"/></g><path d="M427.264,174.653l.927,23.375-1.861,13.086,4.687,1.735,2.036-36.163a9.747,9.747,0,0,1,.882-3.89l1.839-4.006-6.217,2.122Z" transform="translate(-400.443 -150.445)" fill="#f8951d"/><path d="M478.314,180.74a12.075,12.075,0,0,1,3.6,5.956c.48,2.491,1.9,11.224,2.293,15.71a5.29,5.29,0,0,1-4.467,5.711h-.127c-4.255.581-11.4-.223-11.4-.223l1.243-5.435s6.329-.912,7.446-1.675L475.391,190.7S476.627,181.03,478.314,180.74Z" transform="translate(-426.732 -157.946)" fill="#f8951d"/><path d="M383.4,180.688l10.368,6.556s3.723-10.949,6.12-13.525l2.885-.979-2.632,21.011a4.266,4.266,0,0,1-1.9,2.889h0a4.277,4.277,0,0,1-5-.272L380.58,186.1Z" transform="translate(-371.724 -152.924)" fill="#f8951d"/><path d="M493.308,237.98a4.886,4.886,0,0,1-.06-.611,3.753,3.753,0,0,0-1.4-2.457,4.693,4.693,0,0,1-.5-.372,1.281,1.281,0,0,1,.573.253,3.265,3.265,0,0,1,1.459,2.558,1.247,1.247,0,0,1-.074.629Z" transform="translate(-441.257 -191.717)" fill="#263238"/><path d="M492.218,238.56a7.872,7.872,0,0,0-.026-2.2,8.129,8.129,0,0,0-.812-2.04,1.63,1.63,0,0,1,.417.514,4.527,4.527,0,0,1,.614,3.09A1.624,1.624,0,0,1,492.218,238.56Z" transform="translate(-441.276 -191.579)" fill="#263238"/><path d="M488.766,183.49a8.31,8.31,0,0,0-1.117,1.117,7.219,7.219,0,0,0-1.381,3.529,14.834,14.834,0,0,0,.138,3.846c.067.458.127.845.175,1.161a2.041,2.041,0,0,1,.045.432,1.813,1.813,0,0,1-.119-.417c-.063-.272-.149-.666-.238-1.158a13.343,13.343,0,0,1-.194-3.89,6.951,6.951,0,0,1,1.467-3.589,4.572,4.572,0,0,1,.864-.815,1.519,1.519,0,0,1,.361-.216Z" transform="translate(-437.907 -159.672)" fill="#263238"/><g transform="translate(50.242 42.767)" opacity="0.3"><path d="M491.75,234.39a3.429,3.429,0,0,1,.745,2.085,6.449,6.449,0,0,1-.372,2.234.484.484,0,0,0,0,.406.328.328,0,0,0,.469.019.946.946,0,0,0,.235-.477c-.089.1.041.272.175.264a.443.443,0,0,0,.309-.235,2.442,2.442,0,0,0,.086-2.215,6.328,6.328,0,0,0-1.34-1.861" transform="translate(-491.75 -234.39)"/></g><path d="M418.092,215.755A11.384,11.384,0,0,1,416,211.63c.052,0,.432.946,1.013,2.085S418.141,215.721,418.092,215.755Z" transform="translate(-393.958 -177.336)" fill="#263238"/><path d="M416.132,216.469a2.7,2.7,0,0,1-.268-.681,18.531,18.531,0,0,1-.648-3.533,2.663,2.663,0,0,1,0-.745c.056,0,.182,1.117.436,2.494S416.188,216.454,416.132,216.469Z" transform="translate(-393.45 -177.261)" fill="#263238"/><path d="M431.167,192.44c.056,0,.1,4.575.1,10.215s-.041,10.219-.1,10.219-.1-4.572-.1-10.219S431.115,192.44,431.167,192.44Z" transform="translate(-403.418 -165.29)" fill="#263238"/><path d="M441.675,170a.971.971,0,0,1-.123.179l-.372.506c-.313.447-.767,1.094-1.251,1.947a11.816,11.816,0,0,0-1.325,3.153c-.115.625-.19,1.322-.294,2.029-.309.745.424,1.229,1.02,1.631l.149.1-.168.071a3.353,3.353,0,0,0-.6.372,9.358,9.358,0,0,0-.745.64l.03-.074c.115,1.489.372,2.874.54,4.14s.335,2.394.469,3.351.227,1.69.3,2.234c.03.249.052.45.071.607a1.315,1.315,0,0,1,0,.216.775.775,0,0,1-.052-.208c-.026-.156-.06-.372-.1-.6-.089-.547-.208-1.3-.372-2.234s-.32-2.085-.514-3.351-.439-2.651-.562-4.155v-.045l.037-.034c.235-.216.491-.439.767-.651a3.241,3.241,0,0,1,.655-.413l-.019.171a4.1,4.1,0,0,1-.89-.726,1.083,1.083,0,0,1-.272-.536.771.771,0,0,1,0-.16l.022-.134.037-.264c.108-.707.182-1.381.309-2.04a8.63,8.63,0,0,1,.625-1.757,14.36,14.36,0,0,1,.745-1.426,18.907,18.907,0,0,1,1.31-1.921c.168-.216.3-.372.4-.488a1.052,1.052,0,0,1,.179-.127Z" transform="translate(-407.624 -151.204)" fill="#263238"/><path d="M470.895,171.81a.723.723,0,0,1,.048.156,3.175,3.175,0,0,1,.093.462,6.778,6.778,0,0,1,0,1.727,16.575,16.575,0,0,1-.558,2.5,20.478,20.478,0,0,1-1.065,2.948c-.406.912-.838,1.765-1.232,2.55l-.022.037h-.041l-.9.179.045-.138.581.685.037.045-.03.048-1.3,2.088-.372.57a1.118,1.118,0,0,1-.141.194.816.816,0,0,1,.1-.216c.093-.16.2-.372.335-.6.316-.536.745-1.258,1.243-2.122v.093l-.577-.67-.093-.108.141-.03.9-.19-.063.048c.391-.786.815-1.638,1.221-2.546a22.329,22.329,0,0,0,1.068-2.919,18.006,18.006,0,0,0,.592-2.468,7.361,7.361,0,0,0,.067-1.7A4.164,4.164,0,0,1,470.895,171.81Z" transform="translate(-425.37 -152.34)" fill="#263238"/><g transform="translate(21.337 34.022)" opacity="0.3"><path d="M416.457,215.125c-.462-1.318-1.1-2.647-1.664-3.928l-.469-.3a5.644,5.644,0,0,0,.175,3.619.372.372,0,0,0,.194.257c.138.048.287-.082.316-.223a.8.8,0,0,0-.078-.424,10.979,10.979,0,0,0,1.042,1.541.436.436,0,0,0,.223.179.309.309,0,0,0,.331-.261A.863.863,0,0,0,416.457,215.125Z" transform="translate(-414.106 -210.9)"/></g><g transform="translate(29.289 27.299)" opacity="0.3"><path d="M437.687,204.906a38.775,38.775,0,0,1-2.144-7.732,4.519,4.519,0,0,1,.022-1.761,1.817,1.817,0,0,1,1.117-1.3.99.99,0,0,1-.019-1.277c.372.372.745.771,1.091,1.158a1.351,1.351,0,0,0-1.2,1.02,3.942,3.942,0,0,0,0,1.683q.555,4.147,1.117,8.3" transform="translate(-435.466 -192.84)"/></g><g transform="translate(40.652 24.823)" opacity="0.3"><path d="M468.726,191.867q.815-2.837,1.623-5.677l-1.377,3.257a4.467,4.467,0,0,1-.715,1.284,1.526,1.526,0,0,1-1.3.562l.845.577c-.607.975-1.2,2.051-1.809,3.027l1.3.112,1.433-2.275-.436-.785Z" transform="translate(-465.99 -186.19)"/></g><path d="M450.9,166.622l.067-.908,1.683,2.375.536,2.565,1.377-2.565,4.743-2.759v2.412l-.9,2.345-1.768,1.366-2.025.886-2.409-.45-1.452-.823-.324-1.7Z" transform="translate(-415.565 -148.273)" fill="#f5f5f5"/><path d="M452.442,172.37a7.4,7.4,0,0,1-.246.867,6.974,6.974,0,0,0-.279,2.141l.019.372-.2-.309-.115-.186a16.9,16.9,0,0,1-.938-2.163c-.227-.551-.424-.867-.4-.882a2.7,2.7,0,0,1,.525.826c.276.54.521,1.34.975,2.118l.115.182-.179.056a6.168,6.168,0,0,1,.346-2.193A2.978,2.978,0,0,1,452.442,172.37Z" transform="translate(-415.479 -152.592)" fill="#263238"/><path d="M466.239,169.54v.1a1.307,1.307,0,0,1-.03.279,2.178,2.178,0,0,1-.5.9,5.99,5.99,0,0,1-1.161.983,16.379,16.379,0,0,0-1.489,1.087,13.963,13.963,0,0,1-1.34.987l-.175.108.037-.2a5.445,5.445,0,0,0,.041-1.217c-.019-.372-.052-.7-.078-.972a5.7,5.7,0,0,1-.071-.86,4.348,4.348,0,0,1,.2.841c.041.268.086.6.119.972a5.342,5.342,0,0,1,0,1.262l-.138-.093c.424-.272.856-.622,1.314-.987a14.734,14.734,0,0,1,1.489-1.083,6.288,6.288,0,0,0,1.158-.923,2.286,2.286,0,0,0,.525-.823C466.22,169.674,466.22,169.54,466.239,169.54Z" transform="translate(-422.501 -150.916)" fill="#263238"/><path d="M475.987,235.013a.779.779,0,0,0-.149.022l-.443.026c-.372.019-.949.041-1.66.052s-1.571,0-2.55,0c-.488,0-1.005,0-1.549-.034l-.838-.033-.432-.034-.22-.022a.674.674,0,0,1-.115-.019h-.1a.149.149,0,0,1-.074-.082v-.034c.324-1.47.681-3.082,1.057-4.773.071-.316.141-.633.208-.942v-.063h.067a33.625,33.625,0,0,0,7.446-1.645l-.041.078c-.182-1.3-.331-2.368-.436-3.127-.045-.372-.082-.64-.108-.856a1.487,1.487,0,0,1-.022-.3,2.613,2.613,0,0,1,.063.294c.037.212.086.5.145.845.123.745.29,1.82.5,3.12v.056l-.048.022a32.3,32.3,0,0,1-7.472,1.705l.082-.074c-.071.309-.141.622-.212.942-.372,1.686-.745,3.3-1.068,4.765l-.078-.022c2.327.108,4.363.149,5.778.153h2.1A.689.689,0,0,1,475.987,235.013Z" transform="translate(-426.512 -184.618)" fill="#263238"/><path d="M461.847,215.87l-3.22,7.814-4.743.841-1.269,5.711,3.131.179-.022.212-12.293.35,5.2-15.107Z" transform="translate(-411.177 -179.998)" fill="#455a64"/><path d="M444.044,208.92l1.731,2.587-5.2,15.107-1.694-2.9Z" transform="translate(-408.321 -175.635)" fill="#455a64"/><path d="M467.7,211.507l-1.9-1.843-13.048-.745,1.731,2.587Z" transform="translate(-417.027 -175.635)" fill="#ebebeb"/><path d="M448.628,215.87c.052,0-1.072,3.414-2.509,7.583s-2.639,7.539-2.692,7.524,1.072-3.414,2.509-7.587S448.579,215.855,448.628,215.87Z" transform="translate(-411.174 -179.998)" fill="#263238"/><path d="M451.63,233.419l-2.252-.194a11.673,11.673,0,0,0-1.444-1.954,31.565,31.565,0,0,0-3.533-1.921.815.815,0,0,0,0,1.039,12.746,12.746,0,0,0,1.593,1.024h0a.8.8,0,0,1-.92,1.016c-.867-.16-1.88-.339-2.01-.339a10.8,10.8,0,0,1-1.649-1.441.54.54,0,0,0-.912.5.246.246,0,0,0,.078.127s-.916-.03-.1,1.2a1.936,1.936,0,0,0,.48,1.653,5.7,5.7,0,0,0,.719,1.861c.428.491,4.631,1.366,4.631,1.366l4.374.428Z" transform="translate(-409.113 -188.46)" fill="#b78876"/><path d="M445.572,236.911a2.364,2.364,0,0,1-.745,0,3.935,3.935,0,0,1-1.765-.462,3.674,3.674,0,0,1-1.232-1.351,2.7,2.7,0,0,1-.32-.678,3.246,3.246,0,0,1,.436.607,4.1,4.1,0,0,0,1.214,1.255,4.508,4.508,0,0,0,1.679.5,3.623,3.623,0,0,1,.733.134Z" transform="translate(-409.971 -191.642)" fill="#aa6550"/><path d="M444.86,240.012a1.355,1.355,0,0,1-.685.052,4.388,4.388,0,0,1-.745-.108,2.275,2.275,0,0,1-.864-.35,4.112,4.112,0,0,1-.644-.663l-.462-.577a2.491,2.491,0,0,1-.391-.558c.022-.019.208.164.5.469.141.156.313.342.5.551a4.667,4.667,0,0,0,.622.622,2.346,2.346,0,0,0,.793.335c.264.067.506.112.711.145C444.6,239.993,444.856,239.986,444.86,240.012Z" transform="translate(-409.695 -193.768)" fill="#aa6550"/><path d="M445.085,243.834a5.493,5.493,0,0,1-1.649-.331.745.745,0,0,1-.328-.2,2.2,2.2,0,0,1-.227-.231,2.853,2.853,0,0,1-.324-.439c-.164-.264-.208-.458-.186-.465a3.639,3.639,0,0,1,.3.372c.093.119.208.257.342.4a3.014,3.014,0,0,0,.223.208.655.655,0,0,0,.246.153c.454.123.853.249,1.143.343A2.04,2.04,0,0,1,445.085,243.834Z" transform="translate(-410.509 -196.507)" fill="#aa6550"/></g></g></svg>