<svg xmlns="http://www.w3.org/2000/svg" width="250" height="273.258" viewBox="0 0 250 273.258"><g transform="translate(-27.63 -22.22)"><g transform="translate(27.63 285.169)"><path d="M277.63,473.582c0,.082-55.945.152-125,.152s-125-.07-125-.152,55.945-.152,125-.152S277.63,473.5,277.63,473.582Z" transform="translate(-27.63 -473.43)" fill="#263238"/></g><g transform="translate(85.676 22.22)"><path d="M385.179,135.887c-.087-.862-.181-1.708-.3-2.553s-.251-1.789-.4-2.675q.227,1.329.4,2.675C385,134.18,385.092,135.025,385.179,135.887Z" transform="translate(-234.567 -67.465)" fill="#f5f5f5"/><path d="M271.163,101.557a37.848,37.848,0,0,1-1.4-5.28,3.476,3.476,0,0,0-1.585-2.36,14.291,14.291,0,0,0-1.9-.431c-2.232-.67-2.838-3.782-4.953-4.75a7.1,7.1,0,0,0-2.121-.443c-2.832-.332-5.758-1.311-7.535-3.532a13.846,13.846,0,0,0-1.748-2.15,2.09,2.09,0,0,0-2.553-.239c.583,1.195,1.166,2.389,1.748,3.572a9.417,9.417,0,0,0,1.981,2.972,3.184,3.184,0,0,0,3.328.711,2.255,2.255,0,0,1,1.125-.39,1.212,1.212,0,0,1,.728.466c1.539,1.708,1.037,4.534-.466,6.276s-3.712,2.64-5.828,3.5a4.516,4.516,0,0,1-2.384.466c-1.48-.274-2.267-1.882-2.7-3.328-.967-3.2-1.434-6.673-3.415-9.371a11.824,11.824,0,0,1-1.8-2.617c-.379-.991-.309-2.331-.956-3.269s-2.086-1.562-2.185-2.756a2.18,2.18,0,0,1,1.4-1.935c.763-.367,1.62-.478,2.413-.8.309-.134.653-.361.664-.693,0-.5-.693-.705-.868-1.166s.344-1.014.583-1.527c.49-1.166-.728-2.331-1.911-2.826s-2.582-.845-3.164-1.987a6.994,6.994,0,0,1-.385-1.707,3.734,3.734,0,0,0-2.791-3.083c-1.457-.239-3.094,1.066-2.856,2.523a10.307,10.307,0,0,0,1.066,2.156c.326.74.239,1.842-.53,2.08-1.253.379-2.459-1.911-3.5-1.125.431,1.469.851,2.914,1.276,4.417-1.643.833-3.613-.682-4.318-2.4s-.728-3.666-1.562-5.309-3.094-2.914-4.528-1.748c-.07,2.121,2.733,2.984,3.974,4.7a2.863,2.863,0,0,1-.583,4.044c-1.346.787-3.4-.583-2.914-2.028a7.038,7.038,0,0,0,.647-1.457c.047-.67-.513-1.206-1.026-1.632-.8-.682-1.6-1.352-2.4-2.022a5.093,5.093,0,0,0-1.707-1.072c-1.643-.478-3.293.862-4.167,2.331S208,69.551,206.8,70.781a4.667,4.667,0,0,1-6.638,0c-1.626-1.9-.8-5.379,1.6-6.061.9-.251,2.051-.227,2.529-1.026.833-1.422-1.55-3.234-.728-4.662.635-1.1,2.3-.583,3.5-.967s1.888-1.585,2.6-2.64,1.812-2.086,3.054-1.812a3.817,3.817,0,0,1,.134-2.174,1.327,1.327,0,0,1,1.824-.664,2.253,2.253,0,0,0,1.166,2.914,6.314,6.314,0,0,0,3.5.251c1.195-.134,2.634-.583,2.733-1.748a4.116,4.116,0,0,1,.035-1.166c.513-1.4,3.089.524,4.079-.583.583-.583-.064-1.62-.862-1.812a9.193,9.193,0,0,0-2.424.117c-.816.023-1.8-.39-1.836-1.2s.857-1.375.956-2.162c.152-1.34-2.115-1.684-2.914-.583s-.513,2.582-.274,3.9.367,2.914-.612,3.823c-.414.629-1.5.3-1.859-.373a5.717,5.717,0,0,1-.35-2.232c-.064-.752-.39-1.62-1.131-1.824a4.079,4.079,0,0,0-1.591.175c-2.075.251-3.5-2.43-2.861-4.412s2.529-3.275,4.353-4.289c1.34-.74,3-1.434,4.324-.682.618.35,1.049.944,1.661,1.305,1.049.618,2.331.39,3.555.414a8.316,8.316,0,0,1,5.192,2.022c.536.49,1.037,1.3.618,1.882s-1.748.752-1.527,1.48a2.582,2.582,0,0,0,3.246-2.086,2.162,2.162,0,0,1,1.253,1.748,3.864,3.864,0,0,1,5.67.466,4.912,4.912,0,0,0,1.055,1.346c.478.309,1.311.157,1.37-.4a1.166,1.166,0,0,0-.093-.53c-.286-.81-.583-1.608-.874-2.407,1.113-.583,2.424.332,3.176,1.335,2.791,3.736,4.79,1.492,8.741,2.1,2.663.4,3.835,2.11,5.338,4.178,4.61,6.346,10.694,11.55,14.884,18.188.443.693.851,1.4,1.23,2.115-.07-.181-.128-.361-.2-.542a73.7,73.7,0,0,0-6.084-12.378c-.513-.833-1.043-1.655-1.579-2.471-.332-.5-.676-1.014-1.026-1.5-.443-.641-.909-1.265-1.37-1.882-.373-.5-.74-.991-1.125-1.469-.262-.338-.536-.67-.81-1s-.583-.752-.932-1.125l-1-1.166c-.093-.117-.2-.233-.32-.355-.35-.408-.717-.8-1.09-1.166a.332.332,0,0,0-.1-.117c-.1-.111-.2-.216-.309-.326-.3-.332-.624-.653-.932-.979-.513-.524-1.037-1.049-1.579-1.55-.437-.443-.892-.857-1.358-1.276s-.81-.74-1.23-1.1-.81-.705-1.23-1.055-.967-.833-1.492-1.276h0c-1.445-1.166-2.914-2.255-4.464-3.281-.385-.262-.752-.513-1.136-.763s-.775-.5-1.166-.74-.775-.49-1.166-.717-.787-.478-1.166-.705-.635-.367-.956-.536a5.16,5.16,0,0,0-.49-.274q-1.026-.583-2.063-1.1c-.35-.175-.693-.355-1.049-.524s-.9-.443-1.352-.641a.95.95,0,0,0-.2-.1c-.4-.186-.81-.379-1.23-.583-.583-.251-1.166-.5-1.748-.74s-1.335-.548-2.016-.8-1.5-.583-2.267-.81-1.538-.519-2.331-.758-1.556-.449-2.331-.664c-1.55-.42-3.129-.787-4.715-1.113h-.082c-.612-.117-1.218-.239-1.83-.332a.513.513,0,0,0-.117,0c-.262-.047-.536-.1-.816-.134-1.131-.192-2.279-.344-3.432-.478-.134,0-.28-.035-.42-.047-.332-.047-.67-.07-1.014-.1-.763-.076-1.527-.134-2.331-.181s-1.608-.093-2.418-.122-1.7-.07-2.547-.07q-3.363,0-6.655.3c-.53.041-1.043.087-1.556.146s-1.072.122-1.608.192-1.078.14-1.6.227-1.061.163-1.6.262-.921.152-1.375.251c-1.119.216-2.232.455-3.328.717-.513.117-1.026.251-1.538.39s-1.031.274-1.533.42c-.845.239-1.667.5-2.494.763h0l-2,.682a.087.087,0,0,0-.047,0c-.682.239-1.335.49-2,.752l-.111.035c-.583.239-1.218.49-1.812.74-.752.309-1.492.647-2.22.979-.618.286-1.23.583-1.824.874s-1.288.641-1.923.979l-.07.035c-.612.321-1.218.653-1.818,1s-1.241.746-1.865,1.131h0c-.583.35-1.136.693-1.7,1.049-.216.134-.42.28-.635.42-.583.385-1.166.775-1.748,1.166-.717.49-1.4,1-2.1,1.515s-1.206.921-1.789,1.387a74.012,74.012,0,0,0-9.382,8.893c-1.014,1.119-1.97,2.267-2.914,3.432-.787,1-1.55,2.022-2.279,3.071-.659.909-1.288,1.842-1.9,2.791.583-.95,1.241-1.882,1.9-2.791.192,0,.379-.047.583-.058a8.907,8.907,0,0,0,3.176-.519,15.915,15.915,0,0,0,2.331-1.812c2.08-1.48,5.484-1.748,6.043-4.237a18.128,18.128,0,0,1,.274-2.541c.583-1.492,2.576-1.707,4.178-1.684.682,0,1.48.093,1.789.693a1.713,1.713,0,0,1-.07,1.381,12.99,12.99,0,0,1-5.478,6.737c-2.08,1.265-4.79,2.244-5.361,4.6.286.8,1.748.74,1.859,1.579.087.664-.775,1.014-1.084,1.608-.455.874.583,1.935,1.573,1.888a4.361,4.361,0,0,0,2.547-1.434c2.168-2.016,4.452-4.19,5.245-7.057.332-1.166.455-2.564,1.41-3.351a2.331,2.331,0,0,1,3.526,1.148c.944-.524,2.413-.915,2.914.064a5.117,5.117,0,0,1,.2,1.119c.315,1.527,2.4,2.22,2.617,3.759.251,1.783-2.028,2.7-3.805,2.972-1.614.251-3.223.5-4.837.763a4.476,4.476,0,0,0-2,.647,1.562,1.562,0,0,0-.583,1.877,4.628,4.628,0,0,0,.839.839,2.573,2.573,0,0,1-1.649,4.155c-.641,0-1.276-.216-1.917-.239-1.911-.082-3.427,1.6-4.336,3.281s-1.585,3.607-3.118,4.75c-2.459,1.853-6.7,1.422-7.885,4.266a6.838,6.838,0,0,0-.041,3.66,4.939,4.939,0,0,1-.437,3.6c-.711,1.014-2.547,1.218-3.071.093a2.762,2.762,0,0,1-.07-1.585c.286-1.748.583-3.532.833-5.3.2-1.317.385-2.786-.39-3.858-1.09-1.5-3.526-1.364-4.93-.157a8.68,8.68,0,0,0-2.378,4.9,21.194,21.194,0,0,1-1.358,4.75h0c-.251,1.48-.455,2.984-.612,4.5s-.262,3.094-.321,4.662a5.888,5.888,0,0,0,.583-.583c.752-.775,2.273-4.079,3.631-2.448a1.224,1.224,0,0,1,0,1.492c-.42.536-1.253.659-1.573,1.241-.4.693.152,1.55.8,2a6.7,6.7,0,0,1,1.888,1.41c.868,1.253.035,3.153.88,4.429.728,1.1,2.279,1.166,3.607,1.311l.455.076c.367-2.628,1.6-4.767,5.181-5.577,4.936-1.125,11.434,2.972,14.214,6.7,3.1,4.167,4.569,10.064,9.324,12.151,3.4,1.492,8.234.956,9.907,4.283,1.48,2.99-1.1,6.34-1.492,9.645-.251,2.185.466,4.359.629,6.544s-.49,4.75-2.483,5.67c-1.107.5-2.506.443-3.4,1.276-1.585,1.5-.286,4.61-1.871,6.113a8.119,8.119,0,0,1-2.016,1.061c-3.572,1.8-3.5,7.051-1.818,10.694.064.134.122.251.181.385a75.431,75.431,0,0,0,74.075,1.871h0a76.214,76.214,0,0,0,21.778-17.425c1.265-1.457,2.453-2.972,3.6-4.528.583-.8,1.166-1.6,1.7-2.418a71.626,71.626,0,0,0,4.534-7.494,72.633,72.633,0,0,0,4.884-11.766,73.877,73.877,0,0,0,2.879-12.786c.221-1.7.4-3.415.524-5.146A4.365,4.365,0,0,1,275.2,104.8C273.383,104.744,271.892,103.223,271.163,101.557Z" transform="translate(-127.404 -22.545)" fill="#fafafa"/><path d="M137.364,173.844c-.239-2.156.478-4.318.513-6.5,0-1.5-.082-3.094-.1-4.61a20.677,20.677,0,0,1-3.829-.536,1.113,1.113,0,0,1-.705-.355,1.393,1.393,0,0,1-.157-.8c-.093-1.69-1.748-2.815-3.2-3.66a12.676,12.676,0,0,0-2.331-1.166v.524a75.177,75.177,0,0,0,4.8,23.934,72.262,72.262,0,0,0,4.61,9.907c.74,1.369,1.55,2.721,2.4,4.044,1.049,1.638,2.145,3.234,3.328,4.773,1.1,1.48,2.267,2.914,3.5,4.312a74.124,74.124,0,0,0,5.338,5.49q2.483,2.331,5.192,4.417c-4.12-11.073-8-22.332-15.041-31.737C139.835,179.4,137.719,176.9,137.364,173.844Z" transform="translate(-127.366 -78.125)" fill="#e0e0e0"/><path d="M127.536,150.12v1.358C127.536,151.1,127.525,150.575,127.536,150.12Z" transform="translate(-127.359 -75.584)" fill="#e0e0e0"/><g transform="translate(33.582 138.57)" opacity="0.6"><path d="M184.86,260c.635.425,1.276.845,1.929,1.247.449.291.9.583,1.37.839-.466-.274-.921-.548-1.37-.839C186.136,260.816,185.524,260.4,184.86,260Z" transform="translate(-184.86 -260)" fill="#e0e0e0"/></g><path d="M268.447,191.118a6.642,6.642,0,0,1-1.4-.152,4.61,4.61,0,0,1-3.333-2.518,8.806,8.806,0,0,1-.583-3.287,12.471,12.471,0,0,0-.239-2.244,11.737,11.737,0,0,0-1.748-3.607,12.55,12.55,0,0,1-2.36-8.5v-.466c-.4-13.264-4.079-24.033-10.7-31.143a7.193,7.193,0,0,0-3.234-2.29,4.039,4.039,0,0,0-4.155,1.434,9.069,9.069,0,0,0-.624,1.026,5.723,5.723,0,0,1-1.1,1.55,3.1,3.1,0,0,1-2.652.723,4.814,4.814,0,0,1-3.31-2.284c-1.166-2.063-.962-4.61-.793-6.649l.682-8.234a7.28,7.28,0,0,1,1.276-4.2,6.939,6.939,0,0,1,3.06-1.748,9.1,9.1,0,0,0,2.331-1.131c1.323-.991,1.906-2.553,2.529-4.208a17.7,17.7,0,0,1,1.2-2.722,5.093,5.093,0,0,1,4.726-2.331,2.226,2.226,0,0,1,1.748,1.166,5.192,5.192,0,0,1,3.071-2.815c2.727-.781,6.049,1.375,9.266,3.462,2.914,1.906,5.705,3.706,7.879,3.31.548-.1,1.107-.256,1.643-.408a8.631,8.631,0,0,1,3.543-.49c3.164.443,4.784,3.881,5.828,6.83l5.157,14.406c.641,1.795,1.469,3.759,3.17,4.423a6.685,6.685,0,0,0,2.156.315,7.319,7.319,0,0,1,2.238.321,3.6,3.6,0,0,1,2.372,2.914,8.409,8.409,0,0,1-2.774,7.238h0a32.633,32.633,0,0,1-3.007,2.2c-2.331,1.585-4.528,3.083-5.478,5.548a13.4,13.4,0,0,0-.635,4.213,9.764,9.764,0,0,1-2.978,7.8,21.384,21.384,0,0,0-1.5,1.911c-1.649,2.488-2.11,5.571-2.547,8.555L277,180.2c-.519,3.322-1.41,7.034-4.079,9.324A6.923,6.923,0,0,1,268.447,191.118Z" transform="translate(-170.982 -57.309)" fill="#e0e0e0"/><g transform="translate(0.211 72.752)" opacity="0.6"><path d="M127.61,147.06h0v.42A1.685,1.685,0,0,1,127.61,147.06Z" transform="translate(-127.597 -147.06)" fill="#e0e0e0"/></g><g transform="translate(0.172 77.001)" opacity="0.6"><path d="M127.53,154.35v1.1h0C127.536,155.09,127.536,154.729,127.53,154.35Z" transform="translate(-127.53 -154.35)" fill="#e0e0e0"/></g><path d="M137.968,153.51l-.455-.076c-1.329-.14-2.879-.216-3.607-1.311-.845-1.276,0-3.176-.88-4.429a6.928,6.928,0,0,0-1.888-1.41c-.647-.466-1.166-1.311-.8-2,.321-.583,1.166-.705,1.573-1.241a1.224,1.224,0,0,0,0-1.492c-1.358-1.608-2.879,1.673-3.631,2.448a5.351,5.351,0,0,1-.583.583h0v5.35a12.675,12.675,0,0,1,2.331,1.166c1.469.845,3.106,1.97,3.2,3.66a1.393,1.393,0,0,0,.157.8,1.113,1.113,0,0,0,.705.355,20.676,20.676,0,0,0,3.829.536" transform="translate(-127.429 -71.824)" fill="#e0e0e0"/><path d="M144.763,161.185c0,1.515.134,3.106.1,4.61-.035,2.185-.752,4.347-.513,6.5.35,3.06,2.471,5.565,4.324,8.025,7.04,9.406,10.921,20.682,15.041,31.737h0q1.145.874,2.331,1.748c.624.449,1.247.886,1.882,1.317s1.276.845,1.929,1.247c.449.291.9.583,1.37.839-.058-.134-.117-.251-.181-.385-1.655-3.642-1.748-8.893,1.818-10.694a8.119,8.119,0,0,0,2.016-1.061c1.585-1.5.286-4.61,1.871-6.113.9-.833,2.3-.775,3.4-1.276,1.993-.921,2.64-3.5,2.483-5.67s-.88-4.359-.629-6.544c.39-3.3,2.972-6.655,1.492-9.645-1.661-3.328-6.5-2.791-9.907-4.283-4.755-2.086-6.224-7.984-9.324-12.151-2.78-3.724-9.278-7.821-14.214-6.7-3.584.81-4.814,2.949-5.181,5.577" transform="translate(-134.358 -76.58)" fill="#e0e0e0"/><path d="M132.981,91.491c1.4-1.206,3.84-1.346,4.93.157.775,1.072.583,2.541.39,3.858-.274,1.748-.548,3.532-.833,5.3a2.762,2.762,0,0,0,.07,1.585c.524,1.125,2.366.909,3.071-.093a4.939,4.939,0,0,0,.437-3.6,6.779,6.779,0,0,1,.041-3.66c1.166-2.844,5.426-2.413,7.885-4.266,1.533-1.166,2.209-3.065,3.118-4.75s2.424-3.363,4.336-3.281c.641,0,1.276.262,1.917.239a2.571,2.571,0,0,0,1.649-4.155,4.627,4.627,0,0,1-.833-.857,1.562,1.562,0,0,1,.583-1.877,4.476,4.476,0,0,1,2.011-.647c1.614-.262,3.223-.513,4.837-.763,1.777-.274,4.079-1.166,3.805-2.972-.216-1.538-2.331-2.232-2.617-3.759a5.116,5.116,0,0,0-.2-1.119c-.49-.979-1.958-.583-2.914-.064a2.331,2.331,0,0,0-3.5-1.131c-.956.787-1.078,2.174-1.41,3.351-.787,2.867-3.071,5.041-5.245,7.057a4.392,4.392,0,0,1-2.547,1.434c-.991.052-2.028-1.014-1.573-1.888.309-.583,1.166-.944,1.084-1.608-.117-.839-1.573-.781-1.859-1.579.583-2.36,3.281-3.339,5.361-4.6a12.99,12.99,0,0,0,5.478-6.737,1.713,1.713,0,0,0,.07-1.381c-.309-.583-1.107-.693-1.789-.693-1.6,0-3.6.192-4.178,1.684a18.22,18.22,0,0,0-.274,2.541c-.583,2.483-3.963,2.756-6.043,4.237a17.633,17.633,0,0,1-2.331,1.812,9.288,9.288,0,0,1-3.176.519,5.192,5.192,0,0,0-.583.058c-.659.909-1.288,1.842-1.9,2.791s-1.2,1.906-1.748,2.879a74.2,74.2,0,0,0-6.539,14.569q-.886,2.675-1.55,5.437c-.449,1.842-.828,3.712-1.136,5.6a21.2,21.2,0,0,0,1.358-4.75A8.459,8.459,0,0,1,132.981,91.491Z" transform="translate(-128.088 -37.562)" fill="#e0e0e0"/><path d="M230.082,44.172c.711-.932.5-2.279.967-3.363.763-1.795,3.153-2.436,3.98-4.208.321-.682.4-1.509.95-2.016s1.166-.507,1.649-.892c1.113-.851.653-2.786-.53-3.543-2.955-1.888-8.4.3-10.956,2.145-3.287,2.378-6.5,5.245-10.874,4.965a8.865,8.865,0,0,0-3.59,0c-1.131.408-1.824,2.121-.857,2.838.542.4,1.311.286,1.923.583,1.125.519,1.235,2.15.688,3.263s-1.544,1.946-2.191,3.007a5.711,5.711,0,0,0-.816,3.456,3.176,3.176,0,0,0,1.026,2.22c1.364,1.084,3.432.157,4.581-1.166s1.946-3,3.444-3.887a8.6,8.6,0,0,1,2.448-.851l5.711-1.335A4.132,4.132,0,0,0,230.082,44.172Z" transform="translate(-161.919 -25.226)" fill="#e0e0e0"/><g transform="translate(150.805 71.622)" opacity="0.6"><path d="M386.161,148.354c0-1.09-.041-2.162-.093-3.234.052,1.072.087,2.145.093,3.234v1.037c0,1.673-.058,3.322-.151,4.965.093-1.643.151-3.293.151-4.965A7.7,7.7,0,0,0,386.161,148.354Z" transform="translate(-386.01 -145.12)" fill="#f5f5f5"/></g><g transform="translate(146.242 49.552)" opacity="0.6"><path d="M378.18,107.25c.361.95.693,1.911,1.014,2.914-.321-.973-.653-1.935-1.014-2.914Z" transform="translate(-378.18 -107.25)" fill="#f5f5f5"/></g><path d="M329.721,108.56c0-1.09-.041-2.162-.093-3.234s-.146-2.139-.251-3.2c-.087-.862-.181-1.707-.3-2.553s-.251-1.789-.4-2.675a72.961,72.961,0,0,0-1.748-7.832c-.28-.985-.583-1.958-.9-2.914s-.653-1.935-1.014-2.914h0c-.379-.717-.787-1.422-1.23-2.115-4.19-6.638-10.274-11.842-14.884-18.188-1.5-2.069-2.675-3.776-5.338-4.178-3.934-.583-5.933,1.632-8.741-2.1-.752-1-2.063-1.935-3.176-1.335.286.8.583,1.6.874,2.407a1.166,1.166,0,0,1,.093.53c-.058.583-.892.711-1.37.4a4.911,4.911,0,0,1-1.055-1.346,3.864,3.864,0,0,0-5.67-.466,2.162,2.162,0,0,0-1.253-1.748,2.582,2.582,0,0,1-3.24,2.075c-.227-.728,1.078-.857,1.527-1.48s-.082-1.393-.618-1.882a8.316,8.316,0,0,0-5.192-2.022c-1.206,0-2.506.2-3.555-.414-.612-.361-1.043-.956-1.661-1.305-1.323-.752-2.984-.058-4.324.682-1.824,1.014-3.712,2.3-4.353,4.289s.787,4.662,2.861,4.412a4.079,4.079,0,0,1,1.591-.175,1.917,1.917,0,0,1,1.131,1.824,5.683,5.683,0,0,0,.35,2.232c.35.67,1.445,1,1.859.373.979-.932.862-2.5.612-3.823s-.513-2.815.274-3.9,3.065-.74,2.914.583c-.1.787-.991,1.358-.956,2.162s1.026,1.241,1.836,1.2a8.114,8.114,0,0,1,2.424-.117c.787.2,1.434,1.23.862,1.812-1,1.125-3.572-.8-4.079.583-.146.355,0,.763-.035,1.166-.1,1.166-1.562,1.6-2.733,1.748a6.409,6.409,0,0,1-3.5-.251A2.178,2.178,0,0,1,266.1,61.95a1.33,1.33,0,0,0-1.824.664,3.817,3.817,0,0,0-.134,2.174c-1.241-.274-2.331.775-3.054,1.812s-1.4,2.273-2.6,2.64-2.885-.128-3.5.967c-.822,1.434,1.562,3.246.728,4.662-.478.8-1.626.775-2.529,1.026-2.4.682-3.234,4.19-1.6,6.061a4.736,4.736,0,0,0,6.638,0c1.206-1.23,1.7-2.96,2.564-4.441s2.523-2.8,4.167-2.331a5.093,5.093,0,0,1,1.673,1.084c.8.67,1.6,1.34,2.4,2.022.513.425,1.072.962,1.026,1.632-.047.536-.466.956-.647,1.457-.5,1.445,1.591,2.815,2.914,2.028a2.9,2.9,0,0,0,.583-4.044c-1.241-1.719-4.044-2.582-3.974-4.7,1.434-1.166,3.689.058,4.528,1.748s.857,3.6,1.562,5.309,2.675,3.234,4.318,2.4c-.425-1.48-.845-2.949-1.276-4.417,1.049-.787,2.255,1.5,3.5,1.125.769-.239.862-1.34.53-2.08a10.031,10.031,0,0,1-1.066-2.156c-.239-1.457,1.387-2.762,2.856-2.523a3.718,3.718,0,0,1,2.791,3.083,6.994,6.994,0,0,0,.385,1.707c.548,1.166,1.97,1.492,3.135,1.97s2.4,1.655,1.911,2.826c-.227.513-.763,1-.583,1.527s.868.67.868,1.166c0,.332-.355.583-.664.693-.793.321-1.649.431-2.413.8a2.18,2.18,0,0,0-1.4,1.935c.1,1.166,1.515,1.748,2.185,2.756s.548,2.2.956,3.269a11.16,11.16,0,0,0,1.8,2.617c1.981,2.7,2.448,6.171,3.415,9.371.431,1.445,1.218,3.054,2.7,3.328a4.517,4.517,0,0,0,2.384-.466c2.139-.845,4.359-1.748,5.828-3.5s2-4.569.466-6.276a1.212,1.212,0,0,0-.728-.466,2.255,2.255,0,0,0-1.125.39,3.184,3.184,0,0,1-3.328-.711,9.417,9.417,0,0,1-1.981-2.972c-.583-1.166-1.166-2.378-1.748-3.572a2.106,2.106,0,0,1,2.553.239,13.845,13.845,0,0,1,1.748,2.15c1.748,2.22,4.7,3.2,7.535,3.532a7.1,7.1,0,0,1,2.121.443c2.115.967,2.722,4.079,4.953,4.75a14.3,14.3,0,0,1,1.9.431,3.476,3.476,0,0,1,1.585,2.36,38.063,38.063,0,0,0,1.4,5.28c.74,1.673,2.22,3.188,4.033,3.211a4.365,4.365,0,0,0,3.036-1.352h0c.093-1.643.152-3.293.152-4.965C329.745,109.253,329.745,108.9,329.721,108.56Z" transform="translate(-178.765 -33.704)" fill="#e0e0e0"/><path d="M328.321,204.344c-1.125.221-1.352.886-1.964,1.748-.793,1.078-1.929,2.168-2.652,3.234-1.23,1.812-.122,4.662-1.748,6.166a11.568,11.568,0,0,0-1.049.857,1.9,1.9,0,0,0,.385,2.634,2.582,2.582,0,0,0,2.809.052,4.114,4.114,0,0,0,1.748-2.331,3.965,3.965,0,0,1,.874-1.929c.921-.81,2.331-.21,3.572-.379C335.459,213.622,333.233,203.377,328.321,204.344Z" transform="translate(-207.889 -98.182)" fill="#e0e0e0"/><path d="M278.191,97.985s0-.414-.047-1.224c0-.408-.029-.909-.047-1.509s-.029-1.294-.1-2.08-.128-1.673-.21-2.64-.251-2.028-.39-3.176c-.32-2.284-.816-4.907-1.527-7.821-.163-.734-.408-1.469-.583-2.232a20.648,20.648,0,0,0-.693-2.331l-.822-2.424c-.268-.833-.629-1.649-.956-2.5a72.139,72.139,0,0,0-5.268-10.659,76.412,76.412,0,0,0-19.109-21.5,74.758,74.758,0,0,0-51.167-15.216,74.19,74.19,0,0,0-29.96,8.706,80.236,80.236,0,0,0-9.324,5.909,82.555,82.555,0,0,0-8.491,7.349,81.588,81.588,0,0,0-7.424,8.741,74.237,74.237,0,0,0-6.125,9.907c-.431.88-.921,1.748-1.305,2.64l-1.212,2.692q-.542,1.381-1.09,2.762c-.379.921-.653,1.876-.985,2.815A74.117,74.117,0,0,0,128.5,85.852a81.59,81.59,0,0,0-.979,12.133,81.587,81.587,0,0,0,1,12.1,74.852,74.852,0,0,0,2.861,11.655c.332.938.583,1.894.979,2.809s.728,1.847,1.09,2.768c.81,1.8,1.591,3.607,2.518,5.338a74.239,74.239,0,0,0,6.125,9.907,81.006,81.006,0,0,0,7.43,8.712,81.939,81.939,0,0,0,8.468,7.4,75.177,75.177,0,0,0,19.08,10.315,78.907,78.907,0,0,0,10.082,2.885,75.043,75.043,0,0,0,61.278-13.817,76.342,76.342,0,0,0,19.12-21.492,73.247,73.247,0,0,0,5.245-10.647c.326-.851.694-1.667.956-2.5l.822-2.424c.28-.781.466-1.579.693-2.331a20.586,20.586,0,0,0,.583-2.226c.711-2.914,1.206-5.536,1.527-7.821.14-1.166.3-2.2.4-3.176s.14-1.847.2-2.64.093-1.48.1-2.08.035-1.1.047-1.509c.029-.81.047-1.224.047-1.224v1.224c0,.408,0,.909-.035,1.509s0,1.3-.087,2.086-.122,1.673-.2,2.646-.239,2.028-.379,3.176a78.185,78.185,0,0,1-1.5,7.838c-.157.734-.4,1.469-.583,2.232s-.414,1.556-.688,2.331-.542,1.6-.816,2.43-.629,1.649-.956,2.506a72.494,72.494,0,0,1-5.245,10.676,76.383,76.383,0,0,1-19.126,21.562,75.253,75.253,0,0,1-31.79,14.237,76.29,76.29,0,0,1-29.657-.32,74.29,74.29,0,0,1-19.96-7.255,80.932,80.932,0,0,1-9.324-5.927,82.549,82.549,0,0,1-8.52-7.378,81,81,0,0,1-7.459-8.741,73.641,73.641,0,0,1-6.142-10.006c-.932-1.748-1.719-3.549-2.535-5.356-.361-.927-.728-1.847-1.09-2.774s-.653-1.882-.991-2.826a74.781,74.781,0,0,1-2.867-11.719,76.063,76.063,0,0,1,0-24.365,73.91,73.91,0,0,1,2.867-11.714c.332-.944.583-1.906.991-2.826s.728-1.847,1.09-2.774l1.224-2.663c.385-.915.88-1.748,1.311-2.652a74.2,74.2,0,0,1,6.154-9.948,80.962,80.962,0,0,1,7.454-8.741,82.506,82.506,0,0,1,8.526-7.378,75.369,75.369,0,0,1,19.155-10.344,80.419,80.419,0,0,1,10.134-2.9,76.243,76.243,0,0,1,29.651-.321,75.066,75.066,0,0,1,31.813,14.231,76.488,76.488,0,0,1,19.132,21.562,72.771,72.771,0,0,1,5.245,10.676c.321.857.688,1.678.95,2.512s.554,1.638.816,2.43.466,1.579.688,2.331A22.236,22.236,0,0,1,276,79.5a78.172,78.172,0,0,1,1.48,7.862c.14,1.166.291,2.209.379,3.176s.14,1.859.2,2.646.082,1.486.087,2.086,0,1.1.035,1.509C278.191,97.571,278.191,97.985,278.191,97.985Z" transform="translate(-127.235 -22.22)" fill="#263238"/></g><g transform="translate(188.053 77.286)"><path d="M379.547,445.266l1.818,10.793s-10.356,5.478-10.216,7.506l21.055-2.78L390.06,443.85Z" transform="translate(-331.381 -253.205)" fill="#f8951d"/><path d="M398.985,461.76a.874.874,0,0,1,.723.9.839.839,0,0,1-.886.728.915.915,0,0,1-.763-.962.863.863,0,0,1,1.008-.653" transform="translate(-342.609 -260.677)" fill="#e0e0e0"/><path d="M392.261,472.493l-.2-1.643-20.234,2.8s-.886.53-.693,1.166Z" transform="translate(-331.363 -264.47)" fill="#e0e0e0"/><path d="M388.069,464.582c0,.1.542.082,1.09.344s.874.659.967.583-.146-.624-.816-.932S388.028,464.489,388.069,464.582Z" transform="translate(-338.44 -261.786)" fill="#263238"/><path d="M384.49,466.718c0,.1.46.216.868.583s.583.833.67.816.087-.583-.425-1.078S384.478,466.619,384.49,466.718Z" transform="translate(-336.948 -262.716)" fill="#263238"/><path d="M382.187,470.4c.093,0,.169-.524-.169-1.055s-.845-.688-.88-.583.3.35.583.787S382.082,470.4,382.187,470.4Z" transform="translate(-335.549 -263.585)" fill="#263238"/><path d="M387.826,460.033c.058.087.507-.117,1.1-.157s1.061.087,1.107,0-.443-.4-1.136-.35S387.768,459.957,387.826,460.033Z" transform="translate(-338.338 -259.743)" fill="#263238"/><path d="M345.918,443.4l.752,10.921s-10.851,4.429-10.909,6.463l21.23-.693-.466-17.063Z" transform="translate(-316.616 -252.863)" fill="#f8951d"/><path d="M364.976,460.453a.874.874,0,0,1,.635.973.839.839,0,0,1-.956.635.915.915,0,0,1-.664-1.031.857.857,0,0,1,1.066-.548" transform="translate(-328.39 -260.128)" fill="#e0e0e0"/><path d="M357.023,471.889l-.041-1.649-20.4.793s-.932.443-.8,1.107Z" transform="translate(-316.62 -264.216)" fill="#e0e0e0"/><path d="M353.88,462.165c0,.1.53.134,1.049.455s.81.74.9.7-.082-.641-.717-1.014S353.856,462.072,353.88,462.165Z" transform="translate(-324.176 -260.803)" fill="#263238"/><path d="M350.12,463.956c0,.1.431.262.8.688s.484.892.583.88.146-.583-.321-1.119S350.114,463.828,350.12,463.956Z" transform="translate(-322.608 -261.568)" fill="#263238"/><path d="M347.457,467.329c.1,0,.227-.5-.058-1.061s-.781-.769-.822-.682.274.385.5.845S347.358,467.323,347.457,467.329Z" transform="translate(-321.128 -262.266)" fill="#263238"/><path d="M354.068,457.647c.047.093.513-.064,1.1-.047s1.049.192,1.1.1-.4-.449-1.09-.466S354.027,457.566,354.068,457.647Z" transform="translate(-324.254 -258.791)" fill="#263238"/><path d="M334.21,307.951s3.205,39.908,3.788,45.327c.524,4.843,5.478,41.289,5.478,41.289l14.167-.466L355.2,336.285V303.5l-18.841-1.4Z" transform="translate(-315.97 -194.062)" fill="#263238"/><path d="M379.042,300.18c-.175.886,1.037,6.137.909,8.538a81.593,81.593,0,0,1-1.066,8.415l-1.166,26.755,6.947,49.145-13.281,1.294s-8.444-32.273-9.767-38.824-4.254-19.628-4.785-23.346-3.753-27.472-3.753-27.472Z" transform="translate(-323.843 -193.26)" fill="#263238"/><path d="M378.971,300.18l-25.95,4.6.082-.111c.694,5.012,1.474,10.694,2.331,16.929l1.346,9.767c.216,1.7.583,3.4.909,5.134s.734,3.5,1.107,5.286q1.166,5.379,2.331,11.073c.728,3.805,1.667,7.658,2.64,11.6,1.958,7.873,4.079,16.061,6.259,24.476q.705,2.7,1.4,5.379l-.157-.111,13.281-1.3-.134.169c-2.582-18.334-4.942-35.123-6.917-49.145h0c.478-10.67.886-19.738,1.2-26.755h0c.472-2.687.81-5.1,1-7.2a20.13,20.13,0,0,0-.262-5.326c-.21-1.434-.385-2.529-.466-3.275a7.117,7.117,0,0,1-.064-.845,1.6,1.6,0,0,1,.029-.286v.286a7.973,7.973,0,0,0,.082.839c.093.74.286,1.836.507,3.269a20.031,20.031,0,0,1,.309,5.35c-.181,2.11-.507,4.522-.967,7.22h0c-.3,7.022-.676,16.09-1.125,26.761h0c1.987,14.021,4.371,30.8,6.993,49.139v.157h-.157l-13.246,1.23H371.2l-.035-.122-1.4-5.379c-2.185-8.409-4.3-16.6-6.253-24.476-.973-3.934-1.911-7.809-2.634-11.609s-1.585-7.477-2.331-11.073q-.583-2.681-1.1-5.291c-.344-1.748-.693-3.45-.909-5.146l-1.34-9.75c-.845-6.241-1.614-11.923-2.29-16.935v-.093H353l19.161-3.263,5.082-.857,1.3-.216Z" transform="translate(-323.772 -193.26)" fill="#455a64"/><path d="M362.213,178.593s7.786,6.137,7.955,7.11L367.574,226.5l5.88,25.636s-21.154,5.6-40.625,4.784h0l2.687-45.578.525-6.195,3.881-17.838,3.543-3.467,3.013-4.662,13.771-5.076Z" transform="translate(-315.394 -140.655)" fill="#f8951d"/><path d="M332.83,279.154c.5-14.441,2.261-37.221,3.211-51.744" transform="translate(-315.394 -162.898)" fill="#f8951d"/><path d="M336.046,227.41a.542.542,0,0,1,0,.14v.39c0,.373-.041.874-.07,1.509-.082,1.335-.192,3.223-.332,5.548-.309,4.7-.74,11.154-1.212,18.287s-.886,13.608-1.166,18.293c-.128,2.331-.233,4.208-.3,5.542-.035.635-.064,1.166-.087,1.509l-.029.39a.519.519,0,0,1,0,.134.479.479,0,0,1,0-.134v-.39c0-.373,0-.88.029-1.515.029-1.311.1-3.205.2-5.548.2-4.691.583-11.16,1.061-18.3s.95-13.6,1.3-18.281c.181-2.331.326-4.2.431-5.536.052-.635.093-1.166.128-1.509a1.115,1.115,0,0,1,.041-.39.517.517,0,0,1,.006-.134Z" transform="translate(-315.399 -162.898)" fill="#263238"/><path d="M363.767,180.7a3.844,3.844,0,0,1-.355.4l-1.061,1.1-3.934,3.986h-.029l-3.007.769.093-.152.449,1.836v.111c-1.7,2.459-3.625,5.274-5.664,8.246-3.555,5.134-6.778,9.779-9.126,13.176l-2.8,3.969-.81,1.125a2.9,2.9,0,0,1-.286.361,2.25,2.25,0,0,1,.233-.4l.728-1.1,2.71-4.027c2.331-3.409,5.53-8.071,9.056-13.229,2.051-2.966,3.992-5.769,5.688-8.229v.111c-.152-.641-.3-1.265-.437-1.842l-.029-.122.122-.035,3.013-.74-.047.029,4-3.916,1.1-1.055a2.917,2.917,0,0,1,.385-.367Z" transform="translate(-317.234 -143.409)" fill="#263238"/><path d="M362.755,174.08a43.874,43.874,0,0,0-11.58,12.792c-3.8,6.859-12.325,23.066-12.325,23.066l1.125-5.5,6.37-19.2,2.523-5.828Z" transform="translate(-317.905 -140.647)" fill="#f5f5f5"/><path d="M360.574,189.213c.052.07-1.41,1.136-3.048,2.675l-.14.134-.1-.175-.041-.076c-.542-1.008-1.02-1.923-1.352-2.6l.2-.035a4.662,4.662,0,0,1-.3,1.166,4.931,4.931,0,0,1,.087-1.224l.035-.309.163.274c.379.653.892,1.556,1.434,2.564l.041.076-.233-.041a21.934,21.934,0,0,1,2.232-1.836A3.963,3.963,0,0,1,360.574,189.213Z" transform="translate(-324.973 -146.776)" fill="#263238"/><path d="M304.163,264.866l11.148-.373,6.352-.443,1.871,6.783s-6.445.309-6.952.484c-1.311.466-4.015,2.162-5.9,2.617a1.748,1.748,0,0,1-1.952-.909V273l5.956-3.147s-9.365,2.36-9.726.746c-.029-.128-1.923.134-2.016-1.259l-.035-.46s4.72-.775,6.37-1.888c0,0-5.076-.53-5.449-1.166a.658.658,0,0,1,.332-.956Z" transform="translate(-302.91 -178.186)" fill="#ffccb3"/><path d="M315.029,269.1a5.211,5.211,0,0,1-1.346.705,20.855,20.855,0,0,1-3.5,1.072c-.7.163-1.37.291-1.976.4a13.1,13.1,0,0,0-1.585.315.728.728,0,0,0-.239.128.4.4,0,0,0-.052.227,2.333,2.333,0,0,0,.058.455,1.24,1.24,0,0,1,.064.408,2.274,2.274,0,0,1-.291-.851.53.53,0,0,1,.064-.35.764.764,0,0,1,.315-.216,10.231,10.231,0,0,1,1.614-.4l1.958-.414a31.467,31.467,0,0,0,3.5-.979,14.394,14.394,0,0,1,1.416-.507Z" transform="translate(-304.265 -180.293)" fill="#ff9a6a"/><path d="M318.456,266.51a17.431,17.431,0,0,1-2.255.9,7.033,7.033,0,0,1-2.36.612,17.429,17.429,0,0,1,2.255-.9,6.993,6.993,0,0,1,2.36-.612Z" transform="translate(-307.47 -179.212)" fill="#ff9a6a"/><g transform="translate(20.268 88.152)" opacity="0.3"><path d="M369.34,269.068A1.533,1.533,0,0,0,368.174,268a5.205,5.205,0,0,0-1.748.122l-28.3,5.3-.437,3.094a1.568,1.568,0,0,0,1.212,1.556,4.54,4.54,0,0,0,2.127-.076c8.8-1.713,17.623-3.438,26.125-6.265a8.684,8.684,0,0,0,2.453-1.166Z" transform="translate(-337.69 -267.976)"/></g><path d="M358.336,197.5a15.542,15.542,0,0,0-.455,6.142c0,.554,3.351,20.088,3.351,20.088l-27.9,8.928,2.418,11.719s30.694-5.956,35.549-8.741,4.278-4.283,4.464-8-1.626-24.039-1.626-24.039-.052-13.9-8.98-12.238" transform="translate(-315.602 -147.799)" fill="#f8951d"/><path d="M365.058,191.377l.3-.052a5.523,5.523,0,0,1,.874-.1,4.08,4.08,0,0,1,.653,0,3.9,3.9,0,0,1,.787.093,5.081,5.081,0,0,1,1.853.7,8.4,8.4,0,0,1,3.263,4.336,22.448,22.448,0,0,1,1.346,7.255h0c.315,3.5.664,7.477,1,11.871.169,2.2.338,4.5.484,6.9.07,1.2.14,2.418.175,3.666s-.035,2.518-.076,3.811a7.322,7.322,0,0,1-.326,1.952,4.855,4.855,0,0,1-1.061,1.713,13.268,13.268,0,0,1-3.3,2.372l-.944.437-.979.355c-.653.251-1.317.449-1.987.659s-1.346.408-2.028.583-1.37.385-2.063.583c-5.548,1.451-11.381,2.745-17.39,4.021-3.363.711-6.684,1.387-9.936,2.022h-.146v-.146q-1.241-6.032-2.413-11.719v-.128l.128-.041,27.909-8.9-.076.128c-1.457-8.654-2.64-15.531-3.3-20.105h0a15.553,15.553,0,0,1,.122-4.6,9.649,9.649,0,0,1,.39-1.55s-.029.134-.093.4-.157.647-.239,1.166a16.219,16.219,0,0,0-.064,4.569h0c.693,4.528,1.917,11.428,3.4,20.065v.1h-.093l-27.891,8.963.1-.169q1.166,5.682,2.418,11.719l-.175-.122q4.878-.956,9.907-2.022c6-1.276,11.842-2.564,17.378-4.009.693-.175,1.375-.373,2.057-.583s1.358-.379,2.022-.583,1.335-.4,1.976-.647l.967-.35.915-.431a12.862,12.862,0,0,0,3.24-2.331,4.5,4.5,0,0,0,1-1.614,6.806,6.806,0,0,0,.315-1.876c.047-1.282.128-2.553.082-3.788s-.1-2.459-.163-3.66c-.14-2.389-.3-4.691-.466-6.894-.326-4.394-.653-8.38-.95-11.871h0a22.547,22.547,0,0,0-1.294-7.2,8.363,8.363,0,0,0-3.182-4.3,5.1,5.1,0,0,0-1.812-.711,4.449,4.449,0,0,0-.781-.1,4.909,4.909,0,0,0-.647,0,6.566,6.566,0,0,0-.874.07Z" transform="translate(-315.523 -147.787)" fill="#263238"/><rect width="8.03" height="5.326" transform="translate(32.897 59.552)" fill="#455a64"/><path d="M367.353,224.084a3.027,3.027,0,0,1,0-.4q0-.425-.035-1.084c0-.967-.035-2.273-.064-3.84l.122.122h-7.943l.152-.152h0v5.315l-.14-.14c2.331,0,4.277.041,5.682.07l1.649.035a4.66,4.66,0,0,1,.612.035,3.1,3.1,0,0,1-.554.035l-1.614.035c-1.4.029-3.4.058-5.775.07h-.14V218.77h0c-.14.134.181-.186.151-.152l7.943.029h.122v.122c0,1.649-.041,3-.064,3.916,0,.425,0,.775-.029,1.061A1.476,1.476,0,0,1,367.353,224.084Z" transform="translate(-326.425 -159.229)" fill="#263238"/><path d="M363.478,221.774a1.014,1.014,0,1,1-1.008-1.014,1,1,0,0,1,1.008,1.014Z" transform="translate(-327.335 -160.124)" fill="#fff"/><path d="M362.14,286.07v-5.845l15.35-3.094,3.147,4.75Z" transform="translate(-327.623 -183.643)" fill="#f8951d"/><path d="M362.132,285.961a3.492,3.492,0,0,1,.379-.1l1.066-.256,3.9-.932,13.118-3.06-.087.227-2.279-3.427-.874-1.323.157.064L362.155,280.2l.082-.093c-.029,1.789-.047,3.229-.058,4.254v1.585a2.927,2.927,0,0,1,0-.379v-1.136c0-1.043-.035-2.506-.058-4.324v-.087h.082l15.333-3.147h.1l.058.087.88,1.317,2.267,3.427.122.187-.21.047-13.27,2.914-3.969.839-1.031.216Z" transform="translate(-327.615 -183.535)" fill="#263238"/><g transform="translate(21.032 42.792)" opacity="0.3"><path d="M339,218.031c6.678-5.828,19.185-23.684,19.185-23.684-.256.041,1.037-1.329-1.27-2.914a4.977,4.977,0,0,0,2.057-1.294l-3.129.437c.274.693.664,2.04.664,2.04s-1.5,2.115-2.1,3.007c-5.326,7.786-10.093,14.668-15.4,22.407" transform="translate(-339 -190.14)"/></g><path d="M365.153,152.807l.367-18.2c.245-6.241-2.861-11.655-9.1-11.708h-.583a11.16,11.16,0,0,0-10.63,10.775c-.181,5.414-.309,11.393-.134,14.289.361,5.979,6.41,6.626,6.41,6.626,0,.186,0,1.673-.035,3.462v2.972Z" transform="translate(-320.466 -119.293)" fill="#ffccb3"/><path d="M356.066,175.415a14.5,14.5,0,0,0,7.687-2.675s-1.7,4.464-7.693,4.208Z" transform="translate(-325.086 -140.088)" fill="#ff9a6a"/><path d="M362.118,145.935c.128.041.734-.4,1.707-.624s1.748-.128,1.853-.221-.1-.128-.455-.181a4.26,4.26,0,0,0-1.5.093,3.748,3.748,0,0,0-1.34.583C362.118,145.778,362.037,145.918,362.118,145.935Z" transform="translate(-327.601 -128.464)" fill="#263238"/><path d="M362.1,149.319a.8.8,0,0,0,.816.775.769.769,0,0,0,.8-.769.8.8,0,0,0-.816-.775.769.769,0,0,0-.8.769Z" transform="translate(-327.606 -129.995)" fill="#263238"/><path d="M356.176,152.4a6.1,6.1,0,0,0-1.5-.2c-.239,0-.46-.047-.507-.2a1.206,1.206,0,0,1,.122-.705c.192-.583.4-1.166.583-1.824a30.735,30.735,0,0,0,1.34-4.75,30.99,30.99,0,0,0-1.719,4.633c-.2.641-.4,1.247-.583,1.83a1.381,1.381,0,0,0-.082.927.583.583,0,0,0,.408.326,1.4,1.4,0,0,0,.4.035A5.973,5.973,0,0,0,356.176,152.4Z" transform="translate(-324.136 -128.397)" fill="#263238"/><path d="M363.386,139.133c.093.227.9.076,1.853.152s1.748.3,1.859.093c.052-.1-.093-.309-.414-.513a3.094,3.094,0,0,0-1.393-.431,3.007,3.007,0,0,0-1.434.245C363.514,138.842,363.345,139.028,363.386,139.133Z" transform="translate(-328.14 -125.771)" fill="#263238"/><path d="M347,141.892c.1.181.886,0,1.83,0s1.748.14,1.836-.047c.047-.093-.1-.256-.431-.408a3.357,3.357,0,0,0-1.393-.268,3.316,3.316,0,0,0-1.4.309C347.112,141.653,346.955,141.8,347,141.892Z" transform="translate(-321.301 -126.915)" fill="#263238"/><path d="M379.661,150.616c.1-.047,4.295-1.37,4.248,2.914s-4.353,3.368-4.359,3.246S379.661,150.616,379.661,150.616Z" transform="translate(-334.887 -130.762)" fill="#ffccb3"/><path d="M381.826,156.165a2.068,2.068,0,0,0,.2.117.793.793,0,0,0,.583,0,1.859,1.859,0,0,0,.874-1.655,2.541,2.541,0,0,0-.2-1.078.886.886,0,0,0-.583-.583.379.379,0,0,0-.443.2c-.058.117-.035.2-.058.21s-.087-.07-.052-.251a.5.5,0,0,1,.169-.268.583.583,0,0,1,.42-.1,1.067,1.067,0,0,1,.775.676,2.517,2.517,0,0,1,.245,1.2,1.939,1.939,0,0,1-1.113,1.847.81.81,0,0,1-.682-.117C381.832,156.27,381.809,156.171,381.826,156.165Z" transform="translate(-335.835 -131.748)" fill="#ff9a6a"/><path d="M347.143,145.81c.093.1.833.052,1.783.361s1.579.8,1.7.769,0-.163-.3-.379a4.278,4.278,0,0,0-1.34-.688,4.009,4.009,0,0,0-1.439-.216C347.225,145.688,347.1,145.763,347.143,145.81Z" transform="translate(-321.362 -128.788)" fill="#263238"/><path d="M347.73,149.149a.81.81,0,0,0,.822.775.775.775,0,0,0,.8-.769.81.81,0,0,0-.822-.775.769.769,0,0,0-.8.769Z" transform="translate(-321.611 -129.924)" fill="#263238"/><path d="M331.7,125.557a.973.973,0,0,1,.466-.554,3,3,0,0,1,1.533-.21,8.636,8.636,0,0,0,3.759-.839,4.284,4.284,0,0,1-1.078-.8,2.57,2.57,0,0,1-.67-2.57.548.548,0,0,1,.326-.379c.268-.076.5.192.676.4a2.2,2.2,0,0,0,2.051.932,3.613,3.613,0,0,0,1.562-.42l.052-.058.641-.612h0a13.389,13.389,0,0,1,4.295-3.019,13.887,13.887,0,0,1,7.413-.4,5.589,5.589,0,0,1,4.126,4.47,4.3,4.3,0,0,1,4.342-.3h.035c1.568.583,2.418,2.3,2.844,3.922a1.62,1.62,0,0,0,.064.268,6.3,6.3,0,0,0,2.075,2.127c.151.093.326.21.338.385a.513.513,0,0,1-.28.414,3.176,3.176,0,0,1-1.294.5,7.1,7.1,0,0,0,.5,1.119c.169.309.373.676.21.985a.67.67,0,0,1-.705.286,1.958,1.958,0,0,1-.728-.35c.169.425.332.851.5,1.282a3.718,3.718,0,0,1-1.713-.163,40.86,40.86,0,0,1-1.218,4.423c-.659,0-1.282-.186-1.7.169-.583.484-.839,1.41-1.748,1.031-.466-.192-.868-1.166-1.008-1.661a23.364,23.364,0,0,1-.763-9.907,7.476,7.476,0,0,0-2.267-1.748l.07.064c-1.655-.618-3.526-1.235-5.128-.5-1.247.583-2,1.836-2.943,2.826A8.835,8.835,0,0,1,339.8,129.6c-.28,1.8-.146,4.079-.274,5.769l-1.486-2.756h0c-.111-.2-.2-.4-.291-.583l-.029-.064h0a9.605,9.605,0,0,0-.449-.967h0a1.049,1.049,0,0,1-1.5-1.445,2.466,2.466,0,0,1,.519-.5,1.649,1.649,0,0,1-1.591.367,1.305,1.305,0,0,1-.892-1.311,1.131,1.131,0,0,1,.688-.874,3.759,3.759,0,0,1-2.121-.519C331.94,126.489,331.538,126.081,331.7,125.557Z" transform="translate(-314.906 -116.71)" fill="#263238"/><path d="M371.62,126a5.2,5.2,0,0,1,.583.583,4.213,4.213,0,0,1,.868,2,7.79,7.79,0,0,1,.117,1.521c0,.548-.07,1.136-.128,1.748a15.073,15.073,0,0,0-.1,1.958,6.988,6.988,0,0,0,.111,1.031,2.11,2.11,0,0,0,.4,1.014.88.88,0,0,0,.833.3,1.282,1.282,0,0,0,.769-.408,3.106,3.106,0,0,0,.618-1.5h-.128a4.947,4.947,0,0,0,.694,1.27,1.789,1.789,0,0,0,1.166.664,1.165,1.165,0,0,0,.618-.093,1,1,0,0,0,.431-.4,1.072,1.072,0,0,0,.14-.524.74.74,0,0,0-.181-.472l-.064.058a3.77,3.77,0,0,0,1.259.991,2.914,2.914,0,0,0,.391.169l.14.035-.151-.041a3.573,3.573,0,0,1-.385-.187,3.887,3.887,0,0,1-1.212-1.008l-.064.058a.769.769,0,0,1,0,.886.886.886,0,0,1-.39.355,1,1,0,0,1-.583.076,1.644,1.644,0,0,1-1.061-.624,4.989,4.989,0,0,1-.67-1.247l-.082-.192-.047.2a2.955,2.955,0,0,1-.583,1.439,1.212,1.212,0,0,1-.688.367.781.781,0,0,1-.711-.256,2.08,2.08,0,0,1-.367-.95,6.727,6.727,0,0,1-.1-1.014,16.068,16.068,0,0,1,.087-1.941c.052-.624.1-1.212.117-1.748a7.922,7.922,0,0,0-.134-1.539,4.248,4.248,0,0,0-.921-2.022,2.482,2.482,0,0,0-.583-.565Z" transform="translate(-331.578 -120.586)" fill="#455a64"/><path d="M339.67,128.9l.047.041.146.111a1.944,1.944,0,0,0,.245.169,2.58,2.58,0,0,0,.361.2,5.286,5.286,0,0,0,2.547.53,6.772,6.772,0,0,0,3.636-1.241,11.8,11.8,0,0,0,3.188-3.5c.449-.711.822-1.445,1.23-2.121a8.21,8.21,0,0,1,1.381-1.783,4.033,4.033,0,0,1,1.748-1,2.716,2.716,0,0,1,.909-.082,3.117,3.117,0,0,1,.828.181,3.409,3.409,0,0,1,1.876,1.673,3.5,3.5,0,0,1,.286.9v-.251a3.2,3.2,0,0,0-.21-.676,3.45,3.45,0,0,0-1.894-1.748,3.3,3.3,0,0,0-.851-.2,3.123,3.123,0,0,0-.95.076,4.185,4.185,0,0,0-1.807,1.02,8.286,8.286,0,0,0-1.41,1.807c-.414.682-.787,1.41-1.235,2.115a11.7,11.7,0,0,1-3.141,3.462,6.737,6.737,0,0,1-3.567,1.247,5.367,5.367,0,0,1-2.518-.478A7.571,7.571,0,0,1,339.67,128.9Z" transform="translate(-318.248 -118.127)" fill="#455a64"/><path d="M338.85,130.669a.9.9,0,0,0,.21.152,4.236,4.236,0,0,0,.624.344,5.781,5.781,0,0,0,1,.35,6.946,6.946,0,0,0,1.282.2,7.147,7.147,0,0,0,1.294-.052,6.306,6.306,0,0,0,1.031-.239,4.927,4.927,0,0,0,.659-.262c.151-.076.233-.122.227-.134s-.344.14-.915.3a6.993,6.993,0,0,1-2.29.245,7.872,7.872,0,0,1-1.253-.186,6.411,6.411,0,0,1-.991-.321C339.176,130.861,338.862,130.645,338.85,130.669Z" transform="translate(-317.905 -122.534)" fill="#455a64"/><path d="M360.9,160.57s-2.174.635-3,.938l.332.944a1.486,1.486,0,0,0,2.547.49,1.533,1.533,0,0,0,.344-1.061A8.432,8.432,0,0,0,360.9,160.57Z" transform="translate(-325.854 -135.01)" fill="#ff9a6a"/><path d="M357.9,161.371a16.764,16.764,0,0,1,2.96-1.084l.157-.047.035.163v.07a6.622,6.622,0,0,1,.2,1.259,1.515,1.515,0,0,1-.315,1.037c-.414.49-.839.519-.833.49a2.1,2.1,0,0,0,.659-.618,2.947,2.947,0,0,0,0-2.1v-.07l.192.111A16.719,16.719,0,0,1,357.9,161.371Z" transform="translate(-325.854 -134.872)" fill="#263238"/></g><g transform="translate(124.112 72.293)"><path d="M223.5,442.09l-.146,14.831-3.5,11.7a1.515,1.515,0,0,0,1.119,1.917h0a1.509,1.509,0,0,0,1.346-.344c2.331-2.1,10.735-9.785,10.769-10.705.041-1.2,1.259-15.857,1.259-15.857Z" transform="translate(-204.288 -247.478)" fill="#455a64"/><path d="M221.81,481.771l12.238-12.751-.047,1.1a1.859,1.859,0,0,1-.4,1.335,129.335,129.335,0,0,1-10.292,10.21A1.69,1.69,0,0,1,221.81,481.771Z" transform="translate(-205.131 -258.714)" fill="#263238"/><path d="M237.531,461.355a.921.921,0,0,0-.291,1.166.9.9,0,0,0,1.166.3.973.973,0,0,0,.3-1.265.921.921,0,0,0-1.265-.175" transform="translate(-211.528 -255.455)" fill="#fff"/><path d="M225.885,478.734c-.087.041-.4-.746-1.259-1.195a4.72,4.72,0,0,0-1.7-.385c0-.035.175-.146.524-.181a2.331,2.331,0,0,1,1.323.28,2.384,2.384,0,0,1,.967.938A.972.972,0,0,1,225.885,478.734Z" transform="translate(-205.598 -262.03)" fill="#263238"/><path d="M224.113,482.511a12.247,12.247,0,0,0-1.294-.682,12.2,12.2,0,0,0-1.439-.233,1.673,1.673,0,0,1,1.544-.076C223.787,481.806,224.189,482.47,224.113,482.511Z" transform="translate(-204.952 -263.866)" fill="#263238"/><path d="M228.568,474.441a14.667,14.667,0,0,0-1.923-1.166,15.228,15.228,0,0,0-2.185-.583,4.155,4.155,0,0,1,4.079,1.748Z" transform="translate(-206.237 -260.225)" fill="#263238"/><path d="M229.468,467.487c-.041.087-.851-.286-1.911-.355s-1.917.151-1.946.058a2.955,2.955,0,0,1,1.97-.385,2.914,2.914,0,0,1,1.888.682Z" transform="translate(-206.717 -257.776)" fill="#263238"/><path d="M229.659,460a7.429,7.429,0,0,0-1.987-.425,7.575,7.575,0,0,0-1.981.431c0-.035.146-.21.5-.4a3.322,3.322,0,0,1,2.978,0C229.513,459.788,229.682,459.969,229.659,460Z" transform="translate(-206.75 -254.64)" fill="#263238"/><path d="M227.566,456.318a1.2,1.2,0,0,1,0-.583,3.974,3.974,0,0,1,.5-1.451,1.748,1.748,0,0,1,.769-.8.612.612,0,0,1,.682.163.99.99,0,0,1,.216.676,2.15,2.15,0,0,1-1.946,1.923,2.506,2.506,0,0,1-2.407-1.381.892.892,0,0,1,0-.723.583.583,0,0,1,.641-.3,2.109,2.109,0,0,1,.956.542,4.254,4.254,0,0,1,.973,1.166,1.586,1.586,0,0,1,.216.519,7.355,7.355,0,0,0-1.335-1.527,1.982,1.982,0,0,0-.845-.449.321.321,0,0,0-.35.157.583.583,0,0,0,.041.478,2.22,2.22,0,0,0,2.1,1.166,1.859,1.859,0,0,0,1.673-1.608.705.705,0,0,0-.128-.478.326.326,0,0,0-.373-.093,1.585,1.585,0,0,0-.664.664A5.74,5.74,0,0,0,227.566,456.318Z" transform="translate(-206.587 -252.213)" fill="#263238"/><path d="M269.521,439.908l-.542,12.512s12.535,4.761,12.658,7.086l-24.307-.192.052-19.534Z" transform="translate(-219.951 -246.514)" fill="#455a64"/><path d="M263.922,459.572a.985.985,0,0,0-.694,1.125.95.95,0,0,0,1.113.7,1.049,1.049,0,0,0,.728-1.2.985.985,0,0,0-1.235-.583" transform="translate(-222.405 -254.768)" fill="#e0e0e0"/><path d="M257.33,471.9l.087-1.97,23.27.921s1.078.478.95,1.241Z" transform="translate(-219.951 -259.094)" fill="#263238"/><path d="M276.418,461.207c0,.117-.583.163-1.166.542s-.9.874-1.014.828.076-.734.793-1.166S276.418,461.1,276.418,461.207Z" transform="translate(-226.994 -255.412)" fill="#263238"/><path d="M281.188,463.087c0,.117-.49.315-.892.81s-.53,1.031-.647,1.026-.192-.682.326-1.288S281.188,462.976,281.188,463.087Z" transform="translate(-229.228 -256.22)" fill="#263238"/><path d="M284.7,466.912c-.111.029-.268-.583.041-1.212s.868-.9.915-.8-.3.443-.542.979S284.816,466.906,284.7,466.912Z" transform="translate(-231.313 -256.985)" fill="#263238"/><path d="M275.854,456.066c-.047.1-.583-.064-1.265,0s-1.195.251-1.253.146.443-.519,1.235-.554S275.918,455.973,275.854,456.066Z" transform="translate(-226.628 -253.138)" fill="#263238"/><path d="M254.914,278.028s3.98,9.12,3.77,15.956c-.8,26.341-6.218,89.017-6.218,89.017H238.649l-.472-84.052L235.018,343.5l-1.748,40.374-13.077,1.643L214.61,301.6l.705-14.394,3.555-9.907Z" transform="translate(-202.127 -178.722)" fill="#263238"/><path d="M247,298.714a3.067,3.067,0,0,0,.612.256c.4.146.979.35,1.7.583l.14.047v-.14c.087-1.206.181-2.815.268-4.575.093-1.917.163-3.648.2-4.9V288.5a2.2,2.2,0,0,0,0-.548,1.749,1.749,0,0,0-.087.542c-.035.35-.076.857-.122,1.486-.087,1.247-.192,2.978-.286,4.889-.087,1.748-.157,3.374-.192,4.581l.146-.093c-.723-.221-1.317-.39-1.748-.5A3.1,3.1,0,0,0,247,298.714Z" transform="translate(-215.641 -183.166)" fill="#455a64"/><path d="M247.962,288.373a.342.342,0,0,0-.2-.128.909.909,0,0,0-.664.052.833.833,0,0,0-.5.822,1,1,0,0,0,.8.886,1.084,1.084,0,0,0,1.107-.5.9.9,0,0,0,0-.95.979.979,0,0,0-.5-.414c-.152-.052-.239-.047-.239-.029a1.182,1.182,0,0,1,.548.536.717.717,0,0,1-.035.723.851.851,0,0,1-.816.361.775.775,0,0,1-.583-.635.629.629,0,0,1,.332-.624A1.165,1.165,0,0,1,247.962,288.373Z" transform="translate(-215.473 -183.228)" fill="#455a64"/><path d="M237.055,288.924c.082,0,.192-.425.251-.967s.041-.991-.041-1-.192.425-.256.967A1.862,1.862,0,0,0,237.055,288.924Z" transform="translate(-211.46 -182.752)" fill="#455a64"/><path d="M235.215,288.679c.082,0,.152-.46.152-1.031s-.058-1.031-.14-1.037-.152.466-.157,1.037S235.134,288.679,235.215,288.679Z" transform="translate(-210.663 -182.606)" fill="#455a64"/><path d="M266.346,289.65a2.6,2.6,0,0,0,.28-1.166,2.483,2.483,0,0,0,0-1.195,2.529,2.529,0,0,0-.286,1.166,2.5,2.5,0,0,0,.006,1.195Z" transform="translate(-223.682 -182.89)" fill="#455a64"/><path d="M264.226,289.749a1.859,1.859,0,0,0,.367-1.218,1.783,1.783,0,0,0-.262-1.241,6.037,6.037,0,0,0-.035,1.23A6.262,6.262,0,0,0,264.226,289.749Z" transform="translate(-222.826 -182.89)" fill="#455a64"/><path d="M272.379,289.21a1.4,1.4,0,0,0,.052.443,8.735,8.735,0,0,0,.3,1.166,12.454,12.454,0,0,0,1.859,3.567,12.787,12.787,0,0,0,2.914,2.838,8.869,8.869,0,0,0,1.066.659,1.5,1.5,0,0,0,.42.186c0-.041-.542-.355-1.375-.985a15.152,15.152,0,0,1-2.832-2.844,14.254,14.254,0,0,1-1.894-3.5C272.56,289.822,272.426,289.2,272.379,289.21Z" transform="translate(-226.23 -183.691)" fill="#455a64"/><path d="M216.64,296.487a1.387,1.387,0,0,0,.455.07,7.267,7.267,0,0,0,1.259,0,8.257,8.257,0,0,0,3.846-1.422,7.651,7.651,0,0,0,2.564-3.077,6.229,6.229,0,0,0,.4-1.136,1.41,1.41,0,0,0,.064-.431c-.052,0-.181.583-.629,1.492a8.124,8.124,0,0,1-2.553,2.949,8.741,8.741,0,0,1-3.712,1.451C217.3,296.5,216.64,296.44,216.64,296.487Z" transform="translate(-202.974 -184.225)" fill="#455a64"/><g transform="translate(12.658 104.446)" opacity="0.3"><path d="M214.91,303.145c0,.111,21.912-1.166,21.912-1.166l3.1-6.206,2.488,6.206h16.317l.146-4.12-18.736-10.49L225.394,293.2l-10.268,5.694Z" transform="translate(-214.91 -287.37)"/></g><path d="M271.286,398.948a.932.932,0,0,1,0-.2c0-.152,0-.35,0-.583V395.83c0-2.016,0-4.93.041-8.532.07-7.2.315-17.157.647-28.142s.583-20.939.734-28.142c.052-3.59.1-6.5.134-8.532,0-.991,0-1.748.035-2.331v-.583a.964.964,0,0,1,0-.21,1.432,1.432,0,0,1,0,.21v2.914c0,2.016,0,4.93-.041,8.532-.07,7.209-.315,17.157-.641,28.147s-.583,20.939-.734,28.142c-.058,3.584-.1,6.492-.134,8.526,0,1-.029,1.748-.041,2.331v.583A.787.787,0,0,1,271.286,398.948Z" transform="translate(-225.772 -196.271)" fill="#455a64"/><path d="M231.729,398.789c-.082,0-.111-17.891-.058-39.954s.157-39.954.245-39.954.111,17.885.058,39.954S231.817,398.789,231.729,398.789Z" transform="translate(-209.235 -196.071)" fill="#455a64"/><path d="M198.65,184.27a6.661,6.661,0,0,0-2.331,4.324c-.8,6.708-2.867,24.237-3.089,28.351-.233,4.382.431,10.4,4.586,11.265s22.337,1.037,22.337,1.037l.95-13.5-14.977-.181,1.573-17.483-9.039-13.812Z" transform="translate(-193.19 -139.907)" fill="#455a64"/><path d="M219.652,165.58l-3.065,3.934-14.027,6.445,9.027,36.149-.408,3.788-4.994,33.923,24.074-.868,4.563-10.758,3.328,10.781h16.312l.81-8.036-6.644-32.3,3.765-34.237-14.674-4.889-3.549-5.163Z" transform="translate(-197.099 -131.595)" fill="#455a64"/><path d="M284.04,181.6a5.705,5.705,0,0,1,2.069,3c1.894,7.174,5.2,24.447,6.072,27.075,1.113,3.339,2.244,13.036,1.235,16.457-.962,3.252-8.124,22.4-8.124,22.4l-4.382-19.546,3.316-11.4-1.877-5.88-3.939-17.4Z" transform="translate(-228.747 -138.793)" fill="#455a64"/><path d="M243.824,205.249a2.33,2.33,0,0,1-.245-.315l-.664-.927-2.383-3.432-7.768-11.393-5.723-8.456v-.093l.991-2.786.07.146-2.331-.81h-.07v-.076c.157-1.166.28-2.127.373-2.821.047-.3.082-.548.111-.746a1.241,1.241,0,0,1,.052-.251.857.857,0,0,1,0,.256c0,.2-.035.449-.064.752-.07.694-.169,1.643-.286,2.832l-.064-.093,2.331.763.1.035-.035.111c-.3.857-.618,1.795-.962,2.8v-.117c1.673,2.448,3.636,5.344,5.746,8.438,3,4.452,5.711,8.485,7.7,11.44l2.3,3.5.618.956A1.715,1.715,0,0,1,243.824,205.249Z" transform="translate(-206.754 -135.325)" fill="#263238"/><path d="M260.725,173.21a.892.892,0,0,1,.192.163l.519.519,1.929,1.97.07.076-.082.064-.927.705v-.152l1.136,1.294.035.047v.058c-.583,2.96-1.364,6.766-2.2,10.915-.991,4.785-1.894,9.114-2.553,12.3-.338,1.539-.612,2.8-.81,3.718-.1.414-.175.746-.239,1.008a1.393,1.393,0,0,1-.1.35,1.645,1.645,0,0,1,.041-.361c.047-.262.1-.583.181-1.02.175-.921.42-2.191.711-3.741.641-3.182,1.509-7.518,2.471-12.314.862-4.138,1.649-7.943,2.261-10.9l.029.1-1.113-1.311-.07-.087.087-.064.944-.693v.14l-1.865-2.034-.49-.548A1.164,1.164,0,0,1,260.725,173.21Z" transform="translate(-220.106 -135.292)" fill="#263238"/><path d="M257.724,265.853a1.685,1.685,0,0,1-.035-.385,9.114,9.114,0,0,0-.052-1.107c-.029-1-.07-2.378-.117-4.079-.087-3.432-.181-8.159-.245-13.4s-.082-9.983-.041-13.4c0-1.713.052-3.106.1-4.079a10.862,10.862,0,0,1,.093-1.107,1.6,1.6,0,0,1,.058-.286s0-.058.047-.058h0c-.064-.087-.087.5-.1,1.434s0,2.331,0,4.079c.035,3.462.082,8.188.134,13.4s.117,9.948.151,13.4v5.181A1.838,1.838,0,0,1,257.724,265.853Z" transform="translate(-219.902 -158.125)" fill="#263238"/><path d="M232.449,166.07l-.559,4.854,14.9,31.86,2.284-15.437-.559-15.56-2.022-5.717Z" transform="translate(-209.337 -132.313)" fill="#f5f5f5"/><path d="M241.865,178.18a11.3,11.3,0,0,1-.746,1.614c-.5.991-1.2,2.331-2.01,3.9l-.1.192-.146-.163-.647-.705c-1.329-1.457-2.518-2.786-3.368-3.759a13.829,13.829,0,0,1-1.329-1.614,14.494,14.494,0,0,1,1.486,1.474c.892.932,2.1,2.238,3.432,3.695l.647.711h-.245c.822-1.538,1.562-2.914,2.1-3.858A10.833,10.833,0,0,1,241.865,178.18Z" transform="translate(-210.017 -137.144)" fill="#263238"/><path d="M263.63,259.846h1.148l3.263-.029,11.9-.052-.117.1.793-8.042v.047c-1.166-5.542-2.448-11.865-3.829-18.544-1-4.843-1.952-9.493-2.826-13.753v-.041c.88-8.5,1.777-15.764,2.267-20.927.239-2.564.425-4.615.583-6.037q.087-1.032.14-1.608a3.077,3.077,0,0,1,.041-.414.536.536,0,0,1,0-.14.427.427,0,0,1,0,.14v.42c0,.379-.052.921-.093,1.614-.093,1.4-.245,3.462-.478,6.043-.437,5.169-1.3,12.448-2.156,20.939v-.047c.874,4.26,1.836,8.91,2.838,13.747l3.8,18.549v.041c-.3,2.914-.583,5.612-.828,8.036v.1h-.1l-11.9-.047-3.263-.035h-.857Z" transform="translate(-222.58 -142.468)" fill="#263238"/><path d="M216.246,225.143c-.082,0-.256-4.079-.385-9.179s-.163-9.184-.076-9.184.251,4.079.379,9.179S216.327,225.143,216.246,225.143Z" transform="translate(-202.597 -149.299)" fill="#263238"/><g transform="translate(13.171 82.562)" opacity="0.3"><path d="M250.243,250.839a1.358,1.358,0,0,0-1.066-.42,99.883,99.883,0,0,0-15.944-.425,33.424,33.424,0,0,0-15.152,4.586l-2.29,1.632c4.843,1.638,10.193,2.692,15.239,1.871a2.558,2.558,0,0,0,1.678-.746c.431-.583.367-1.34.612-2a3.03,3.03,0,0,1,2.366-1.748,11.657,11.657,0,0,1,3.054.058,26.178,26.178,0,0,0,10.245-1.166,2.517,2.517,0,0,0,1.061-.583.915.915,0,0,0,.2-1.061Z" transform="translate(-215.79 -249.818)"/></g><path d="M211.987,238.29c.355.53,16.976.286,16.97,0l-1.253,13.5-15.735-.449" transform="translate(-201.026 -162.446)" fill="#455a64"/><path d="M212,251.255a1.026,1.026,0,0,1,.3,0h.862l3.258.052,11.288.268-.146.134c.21-2.3.443-4.79.682-7.4.2-2.127.39-4.184.583-6.1h.291a.169.169,0,0,1-.064.122l-.041.029h-.472l-.46.035-.9.047-1.748.052-3.258.052H216.79c-3.019-.047-4.837-.221-4.79-.4a25.069,25.069,0,0,0,4.8.21c1.509,0,3.328,0,5.385-.047l3.246-.076,1.748-.064.892-.052.449-.035h.373c.047.064.035.122.082.117h.152c-.175,1.917-.367,3.974-.583,6.1-.239,2.6-.478,5.1-.693,7.389v.134h-.134l-11.288-.379-3.258-.134-.868-.052A1.66,1.66,0,0,1,212,251.255Z" transform="translate(-201.037 -162.362)" fill="#263238"/><path d="M256.491,174.64a28.805,28.805,0,0,1-1.037,3.98c-.035.122-.076.245-.111.361l-.07.227-.175-.163c-.763-.688-1.533-1.224-2.046-1.655a3.444,3.444,0,0,1-.793-.746,5.245,5.245,0,0,1,.915.583,22.767,22.767,0,0,1,2.127,1.6l-.245.07.1-.361A27.7,27.7,0,0,1,256.491,174.64Z" transform="translate(-217.836 -135.889)" fill="#263238"/><path d="M249.911,178.08l-2.3.216-.979,1.871,1.981,2.57h2.261l.769-3.374Z" transform="translate(-215.487 -137.324)" fill="#f8951d"/><path d="M249.285,186.07s-1.166,5.356-.979,8.106.245,6.41.245,6.41l5.064,10.571,1.521-10.2s-2.11-10.874-2.815-12.553a9.593,9.593,0,0,1-.769-2.331Z" transform="translate(-216.178 -140.658)" fill="#f8951d"/><path d="M252.231,185.878a2.091,2.091,0,0,1-1.166.268c-.67.035-1.166-.064-1.166-.146s.513-.128,1.166-.157S252.219,185.8,252.231,185.878Z" transform="translate(-216.851 -140.553)" fill="#263238"/><path d="M251.78,179.38a6.992,6.992,0,0,1-1.317,1.608,7.29,7.29,0,0,1-1.533,1.4,6.87,6.87,0,0,1,1.317-1.608A7.29,7.29,0,0,1,251.78,179.38Z" transform="translate(-216.447 -137.866)" fill="#263238"/><g transform="translate(23.27 40.249)" opacity="0.3"><path d="M233.965,178.912s4.878,6,5.023,5.956l1.783-5.122-1.964,3.7-5.688-6.236Z" transform="translate(-233.12 -177.21)"/></g><g transform="translate(37.822 41.333)" opacity="0.3"><path d="M264.728,180.5s-1.748-1.428-2.2-1.428l1.119,1.3s-.326,1.585-.46,2.22c-1.684,8.089-3.4,16.9-5.093,24.977,2.3-7.99,4.406-16.422,6.1-24.563C264.361,182.205,264.728,180.5,264.728,180.5Z" transform="translate(-258.09 -179.07)"/></g><path d="M207.567,195.085a27.647,27.647,0,0,0-2.558-3.782,27.136,27.136,0,0,0-3.368-3.083,4.079,4.079,0,0,1,1.166.676,13.681,13.681,0,0,1,2.424,2.209,13.462,13.462,0,0,1,1.824,2.722,4.3,4.3,0,0,1,.513,1.259Z" transform="translate(-196.716 -141.555)" fill="#263238"/><rect width="7.943" height="5.326" transform="translate(43.766 57.481)" fill="#f8951d"/><rect width="7.943" height="0.758" transform="translate(43.766 58.554)" fill="#fff"/><rect width="7.943" height="0.758" transform="translate(43.766 60.407)" fill="#fff"/><rect width="7.943" height="0.758" transform="translate(43.766 62.05)" fill="#fff"/><rect width="3.485" height="2.925" transform="translate(43.766 57.481)" fill="#455a64"/><path d="M276.128,211.975a2.44,2.44,0,0,1-.029-.4c0-.286,0-.647-.029-1.084,0-.967-.035-2.273-.064-3.84l.122.122h-7.943c-.035.029.286-.286.146-.152h0v5.309l-.14-.14c2.331,0,4.277.041,5.688.07l1.649.035a4.662,4.662,0,0,1,.612.035,3.1,3.1,0,0,1-.554.035l-1.62.035c-1.393.029-3.4.058-5.775.07h-.134V206.62h0c-.134.134.186-.186.157-.152h8.065v.122c0,1.649-.041,3-.064,3.916a9.4,9.4,0,0,1-.035,1.061,1.829,1.829,0,0,1-.052.408Z" transform="translate(-224.413 -149.167)" fill="#263238"/><path d="M262.529,217.645s-6.323,26.562-6.469,27.017h20.98L283.3,217.15Z" transform="translate(-219.421 -153.625)" fill="#f5f5f5"/><path d="M262.429,217.57a3.5,3.5,0,0,1,.367,0l1.09-.047,4.178-.128,15.152-.425h.157l-.035.157c-1.748,7.716-3.893,17.186-6.212,27.39v.117l-.029.122H255.82l.047-.181c1.906-8.048,3.555-14.767,4.72-19.569.583-2.331,1.037-4.219,1.358-5.507.157-.624.28-1.107.361-1.451.041-.152.076-.274.1-.367a.491.491,0,0,1,.035-.117v.134a2.72,2.72,0,0,1-.082.385c-.076.35-.192.845-.332,1.48-.3,1.3-.746,3.182-1.294,5.554-1.125,4.761-2.722,11.51-4.61,19.505l-.128-.181h20.98l-.146.117v-.117c2.331-10.216,4.5-19.68,6.271-27.39l.122.152-15.082.3-4.2.07h-1.509Z" transform="translate(-219.321 -153.55)" fill="#263238"/><path d="M255.14,234.332s5.5-.256,5.565.9-.385.7-1.795,1.084-6.136.833-6.136.833-.7.635.9.443a45.512,45.512,0,0,1,7.605.041,1.008,1.008,0,0,1-.385,1.818c-1.166.251-7.99.828-7.99.828s8.741-.064,8.806.513-.239,1.276-1.387,1.469h-.769s.641,1.09-.583,1.282a62.96,62.96,0,0,1-7.966.828c-1.428-.128-8.077-.256-8.077-.256l-3.275.274.641-7.238,3.275-.513s4.155-2.751,5.175-3.263,3.444-.408,4.913-.851l-.274,1.8h1.748" transform="translate(-212.575 -160.038)" fill="#b56760"/><path d="M262.348,235.52a26.222,26.222,0,0,1-3.153.256c-.868.064-1.649.146-2.215.227a3.7,3.7,0,0,1-.921.111,2.29,2.29,0,0,1,.88-.32,14.133,14.133,0,0,1,2.232-.321A12.5,12.5,0,0,1,262.348,235.52Z" transform="translate(-219.422 -161.237)" fill="#8a4a43"/><path d="M269.133,249.215a20.247,20.247,0,0,1-3.5.2,19.855,19.855,0,0,1-3.5-.1,19.931,19.931,0,0,1,3.5-.2A20.233,20.233,0,0,1,269.133,249.215Z" transform="translate(-221.958 -166.948)" fill="#8a4a43"/><path d="M256.4,134.18a44.461,44.461,0,0,0,2.051-7.413,15.536,15.536,0,0,0-.519-7.576c-.128-.367-1.253-2.826-1.643-2.791-.274,0,.408,2.331.268,2.553a13.188,13.188,0,0,0-1.6,7.652,34.663,34.663,0,0,0,1.445,7.576" transform="translate(-218.937 -111.588)" fill="#263238"/><path d="M242.235,144.421l.466-22.938c.286-6.41-3.211-11.952-9.645-12.063h-.583a11.51,11.51,0,0,0-11.02,11.073c-.216,5.571-.385,11.731-.227,14.709.332,6.166,6.539,6.871,6.539,6.871v2.36l9.324,5.216,2.22-.21Z" transform="translate(-204.862 -108.676)" fill="#b56760"/><path d="M232.46,163.5a14.913,14.913,0,0,0,7.937-2.7s-1.748,4.715-7.92,4.417Z" transform="translate(-209.575 -130.114)" fill="#8a4a43"/><path d="M225.54,136.943a.88.88,0,0,0,.886.857.845.845,0,0,0,.874-.833.886.886,0,0,0-.886-.857.845.845,0,0,0-.874.833Z" transform="translate(-206.687 -119.812)" fill="#263238"/><path d="M224.071,132.284c.111.111.758-.408,1.708-.449s1.661.408,1.748.291-.07-.256-.385-.466a2.424,2.424,0,0,0-1.416-.373,2.331,2.331,0,0,0-1.352.5C224.106,132.016,224.025,132.232,224.071,132.284Z" transform="translate(-206.069 -117.799)" fill="#263238"/><path d="M239.82,136.943a.886.886,0,0,0,.886.857.839.839,0,0,0,.874-.833.88.88,0,0,0-.886-.857.845.845,0,0,0-.874.833Z" transform="translate(-212.646 -119.812)" fill="#263238"/><path d="M239.995,131.995c.111.111.763-.414,1.708-.449s1.661.408,1.748.291-.07-.256-.385-.466a2.413,2.413,0,0,0-2.768.128C240.053,131.732,239.96,131.948,239.995,131.995Z" transform="translate(-212.716 -117.679)" fill="#263238"/><path d="M233,139.784a6.324,6.324,0,0,0-1.55-.216c-.245,0-.478-.052-.524-.216a1.235,1.235,0,0,1,.134-.723c.2-.583.414-1.218.641-1.876a30.911,30.911,0,0,0,1.4-4.884,31.676,31.676,0,0,0-1.795,4.761c-.216.659-.42,1.282-.583,1.882a1.422,1.422,0,0,0-.087.956.624.624,0,0,0,.414.338,1.837,1.837,0,0,0,.414.041,6.235,6.235,0,0,0,1.533-.064Z" transform="translate(-208.795 -118.043)" fill="#263238"/><path d="M239.29,126.856c.14.239,1.049-.052,2.168-.122s2.057.064,2.162-.192c.047-.122-.152-.332-.554-.513a3.718,3.718,0,0,0-1.678-.256,3.5,3.5,0,0,0-1.62.5C239.4,126.483,239.226,126.745,239.29,126.856Z" transform="translate(-212.419 -115.494)" fill="#263238"/><path d="M223.779,127.467c.2.21.973-.035,1.9-.07s1.719.1,1.894-.128c.076-.111-.052-.326-.4-.519a3.048,3.048,0,0,0-1.55-.315,2.955,2.955,0,0,0-1.5.472C223.8,127.141,223.691,127.345,223.779,127.467Z" transform="translate(-205.94 -115.774)" fill="#263238"/><path d="M257.579,137.816c.1-.052,4.184-1.434,4.225,2.791s-4.208,3.392-4.219,3.269S257.579,137.816,257.579,137.816Z" transform="translate(-220.055 -120.417)" fill="#b56760"/><path d="M259.778,143.22s.076.047.2.1a.74.74,0,0,0,.554,0,1.836,1.836,0,0,0,.828-1.643,2.517,2.517,0,0,0-.216-1.049.868.868,0,0,0-.583-.583.373.373,0,0,0-.431.2c-.058.122-.029.2-.052.21s-.093-.07-.058-.245a.466.466,0,0,1,.163-.262.53.53,0,0,1,.408-.111,1.031,1.031,0,0,1,.775.647,2.459,2.459,0,0,1,.262,1.166,1.886,1.886,0,0,1-1.055,1.836.787.787,0,0,1-.664-.064C259.79,143.319,259.766,143.226,259.778,143.22Z" transform="translate(-220.972 -121.369)" fill="#8a4a43"/><path d="M226.214,112.955c-.682-.373,1.37-2.587,3.048-3.351,2.541-1.166,6.41-1.865,8.741-1.206a10.185,10.185,0,0,1,6.579,4.767,16.649,16.649,0,0,1,1.871,8.479,5.152,5.152,0,0,1-.583,2.582c-.583.932-1.748,1.521-1.673,2.809a1.748,1.748,0,0,1-.437,1.288c-.775.822-1.748.052-2.156-.723a12.254,12.254,0,0,1-1.113-5.525,12.361,12.361,0,0,1,.262-4.015c.21-.705.542-1.37.705-2.086a2.529,2.529,0,0,0-.274-2.086,2.687,2.687,0,0,0-.344-.35,4.406,4.406,0,0,0-4.371-.828c-2.378.839-6.44,2.1-7.5,1.294a6.527,6.527,0,0,1-1.894-1.917Z" transform="translate(-206.913 -108.144)" fill="#263238"/><path d="M237.781,146.46c-.146,0-.152.962-.985,1.643s-1.865.583-1.876.711.233.186.67.2a2.453,2.453,0,0,0,1.562-.542,2.1,2.1,0,0,0,.763-1.375C237.956,146.693,237.845,146.454,237.781,146.46Z" transform="translate(-210.601 -124.131)" fill="#263238"/></g><g transform="translate(54.142 83.016)"><path d="M108.48,202.146l4.155,38.771,14.721,8.817,11.545-4-3.159-45.164-7.273-2.255-14.249-.5Z" transform="translate(-87.876 -156.279)" fill="#fff"/><path d="M104.888,424.72,92.16,436.335,106.531,452.2c1.434-1.463-2.96-12.43-2.96-12.43L111.5,432.1Z" transform="translate(-81.067 -250.954)" fill="#455a64"/><path d="M104.37,440.966a.88.88,0,0,0-1.166.221.845.845,0,0,0,.21,1.136.921.921,0,0,0,1.212-.239.868.868,0,0,0-.35-1.166" transform="translate(-85.619 -257.677)" fill="#fff"/><path d="M92.16,443.77l1.329-1.23,13.235,15.793s.326.985-.251,1.352Z" transform="translate(-81.067 -258.389)" fill="#263238"/><path d="M110.706,450.249c-.082.064-.466-.291-1.061-.449s-1.1-.064-1.136-.163.519-.385,1.235-.186S110.793,450.2,110.706,450.249Z" transform="translate(-87.887 -261.244)" fill="#fff"/><path d="M112.174,454.464c-.064.087-.5-.128-1.061-.093s-.985.268-1.049.186.291-.519,1-.548S112.244,454.394,112.174,454.464Z" transform="translate(-88.534 -263.173)" fill="#fff"/><path d="M111.724,458.945c-.1-.07.128-.49.81-.7s1.1,0,1.066.117-.46.07-.956.233S111.8,459.015,111.724,458.945Z" transform="translate(-89.22 -264.904)" fill="#fff"/><path d="M114.134,446.575c-.1,0-.315-.42-.74-.833s-.874-.624-.845-.728.583,0,1.1.472S114.233,446.558,114.134,446.575Z" transform="translate(-89.573 -259.405)" fill="#fff"/><path d="M116.9,441.745c-.035.029-.355-.233-.717-.8a4.8,4.8,0,0,1-.5-1.066,5.446,5.446,0,0,1-.175-.676,1.457,1.457,0,0,1-.029-.408.455.455,0,0,1,.379-.408.583.583,0,0,1,.484.181,1.386,1.386,0,0,1,.233.332,3.579,3.579,0,0,1,.274.647,3.8,3.8,0,0,1,.186,1.166,1.841,1.841,0,0,1-.221,1.049,6.419,6.419,0,0,1-.035-1.037,4.423,4.423,0,0,0-.245-1.072,3.747,3.747,0,0,0-.274-.583c-.1-.21-.233-.35-.35-.326s-.052,0-.07.1a.933.933,0,0,0,0,.3,5.084,5.084,0,0,0,.14.635,5.513,5.513,0,0,0,.4,1.037A8.259,8.259,0,0,1,116.9,441.745Z" transform="translate(-90.798 -256.655)" fill="#fff"/><path d="M117.566,442.808a1.761,1.761,0,0,1,.583-.909,3.532,3.532,0,0,1,.967-.676,3.033,3.033,0,0,1,.67-.233.868.868,0,0,1,.857.14.5.5,0,0,1,.082.536,1.521,1.521,0,0,1-.221.344,2.43,2.43,0,0,1-1.661.886c-.693.064-1.078-.175-1.055-.2a4.674,4.674,0,0,0,1.02-.047,2.424,2.424,0,0,0,.973-.425,2.068,2.068,0,0,0,.443-.431c.152-.175.227-.361.152-.414a.624.624,0,0,0-.513-.041,3.685,3.685,0,0,0-.583.192,3.873,3.873,0,0,0-.932.583C117.817,442.493,117.619,442.837,117.566,442.808Z" transform="translate(-91.665 -257.718)" fill="#fff"/><path d="M108.69,443.917l.163,17.2,21.4-.093c-.134-2.04-11.224-6.1-11.224-6.1l.35-11.026Z" transform="translate(-87.964 -258.956)" fill="#455a64"/><path d="M114.641,461.246a.874.874,0,0,0-.583,1,.839.839,0,0,0,.985.583.915.915,0,0,0,.629-1.061.868.868,0,0,0-1.1-.519" transform="translate(-90.197 -266.174)" fill="#fff"/><path d="M109,472.192V470.35l20.589.7s.95.414.845,1.09Z" transform="translate(-88.093 -269.992)" fill="#263238"/><path d="M125.609,462.563c0,.1-.524.157-1.037.5s-.787.775-.88.734.058-.641.682-1.043S125.65,462.47,125.609,462.563Z" transform="translate(-94.212 -266.704)" fill="#263238"/><path d="M129.852,464.172c0,.1-.425.28-.781.723s-.455.915-.583.909-.169-.583.28-1.136S129.852,464.05,129.852,464.172Z" transform="translate(-96.188 -267.393)" fill="#263238"/><path d="M133.005,467.516c-.093,0-.245-.5,0-1.072s.752-.8.8-.717-.256.4-.466.868S133.11,467.5,133.005,467.516Z" transform="translate(-98.053 -268.056)" fill="#263238"/><path d="M125.1,458.035c-.041.1-.524-.047-1.113,0s-1.049.227-1.107.14.385-.466,1.084-.507S125.149,457.953,125.1,458.035Z" transform="translate(-93.88 -264.699)" fill="#263238"/><path d="M103.027,275.5a30.488,30.488,0,0,0-4.476,6.294c-1.474,3.083-3.736,9.633-3.736,9.633S92,301.433,92.624,306.165s4.843,37.011,4.843,37.011-.833,25.6,2.78,36.982l.664,3.025,12.069-2.145h0l2.675-63.364,7.372-41.883Z" transform="translate(-81.222 -188.694)" fill="#263238"/><path d="M135.441,279.353a1.367,1.367,0,0,0-.466-.7.9.9,0,0,0-.828-.082.857.857,0,0,0,0,1.6.886.886,0,0,0,.822-.117c.42-.315.39-.723.443-.705s.047.087,0,.251a1,1,0,0,1-.344.618,1.078,1.078,0,0,1-1.037.2,1.113,1.113,0,0,1-.035-2.1,1.066,1.066,0,0,1,1.043.169.973.973,0,0,1,.361.583A.417.417,0,0,1,135.441,279.353Z" transform="translate(-98.217 -189.843)" fill="#455a64"/><path d="M139.587,284.4s4.423,40.17,5.058,47.064-24.4,43.707-24.4,43.707L109.68,362.689,125.8,332.723l-5.426-29.843,7.145-26.93,11.113.134Z" transform="translate(-88.377 -188.881)" fill="#263238"/><path d="M102.608,386.93a7.045,7.045,0,0,0,.082.88c.082.577.216,1.422.42,2.512.4,2.185,1.049,5.356,1.923,9.324v.082h.087l12.075-2.115h.087v-.093c.332-8.287.734-18.188,1.166-28.8.449-11.428.857-22.023,1.2-30.712h0c.909-6.993,1.655-12.757,2.18-16.8.251-2,.449-3.584.583-4.662.064-.53.111-.938.146-1.23a4.038,4.038,0,0,0,.035-.42s-.029.14-.07.42-.1.694-.181,1.218c-.152,1.084-.367,2.657-.647,4.662-.548,4.039-1.329,9.808-2.273,16.784h0c-.35,8.689-.781,19.278-1.247,30.706-.414,10.618-.8,20.519-1.125,28.8l.1-.1-12.063,2.168.1.064c-.9-3.951-1.573-7.116-2-9.3-.216-1.09-.373-1.929-.46-2.506-.052-.286-.076-.5-.1-.647A.934.934,0,0,1,102.608,386.93Z" transform="translate(-85.425 -205.133)" fill="#455a64"/><path d="M134,293.354a6.116,6.116,0,0,1,.664.035,3.007,3.007,0,0,0,1.7-.291,1.556,1.556,0,0,0,.682-.915,6.487,6.487,0,0,0,.21-1.381c.082-1,.169-2.1.245-3.263.157-2.331.245-4.412.291-5.933.029-.717.052-1.317.07-1.807a3.316,3.316,0,0,1,.052-.659,2.6,2.6,0,0,1,.058.659v1.807c0,1.527-.052,3.631-.21,5.956-.076,1.166-.169,2.261-.268,3.263a6.578,6.578,0,0,1-.245,1.434,1.783,1.783,0,0,1-.8,1.014,2.261,2.261,0,0,1-1.026.268,4.445,4.445,0,0,1-.787-.041A2.2,2.2,0,0,1,134,293.354Z" transform="translate(-98.524 -190.212)" fill="#455a64"/><path d="M156.076,285.823a4.271,4.271,0,0,1-1.166-.612,11.732,11.732,0,0,1-2.378-2.075,11.975,11.975,0,0,1-1.748-2.622,4.08,4.08,0,0,1-.455-1.224,21.355,21.355,0,0,0,2.418,3.66A22.263,22.263,0,0,0,156.076,285.823Z" transform="translate(-105.337 -190.275)" fill="#455a64"/><path d="M106.52,179.05l-3.677,4.05L90.5,187.261l4.9,36.411-3.986,17.559L87.19,257.764s12.448,3.386,15.653,1.538,7.116-19.843,8.3-24.115,2.966-16.964,2.133-23.73-2.249-16.725-2.966-20.169S106.52,179.05,106.52,179.05Z" transform="translate(-78.993 -148.451)" fill="#f8951d"/><path d="M84.744,193.11s-3.234,4.237-4.149,8.3c-1.55,6.871-7.541,25.642-7.185,30s23.555,12.337,23.555,12.337l.95-12.238-10.764-5.647,2.914-11.521" transform="translate(-73.237 -154.318)" fill="#f8951d"/><path d="M89.952,214.361a.79.79,0,0,1-.041.2l-.134.583c-.134.53-.321,1.288-.583,2.267-.5,1.993-1.23,4.872-2.139,8.485l-.047-.111,10.81,5.659.07.041v.082c-.28,3.712-.583,7.844-.932,12.238v.186l-.181-.064c-4.546-1.6-9.441-3.467-14.371-5.752-1.62-.763-3.211-1.55-4.72-2.436a13.654,13.654,0,0,1-4.079-3.182,3.5,3.5,0,0,1-.332-.583,1.516,1.516,0,0,1-.1-.326,1.166,1.166,0,0,1-.047-.332,10.206,10.206,0,0,1,.047-1.27c.07-.833.221-1.643.355-2.442q.472-2.4,1.031-4.662c1.521-5.985,3.106-11.37,4.353-15.892.629-2.261,1.166-4.307,1.608-6.119a20.134,20.134,0,0,1,1.853-4.371,29.1,29.1,0,0,1,1.6-2.558c.2-.286.355-.5.466-.635l.169-.21s-.047.082-.146.227l-.437.653c-.379.583-.932,1.428-1.55,2.582a20.141,20.141,0,0,0-1.812,4.388c-.431,1.807-.944,3.875-1.568,6.131-1.218,4.528-2.786,9.907-4.26,15.909q-.583,2.255-1.02,4.662c-.134.793-.28,1.6-.35,2.418a10.733,10.733,0,0,0-.041,1.224,1.888,1.888,0,0,0,.425,1.072,13.991,13.991,0,0,0,3.992,3.094,52.3,52.3,0,0,0,4.7,2.418c4.913,2.284,9.808,4.155,14.336,5.758l-.186.128c.344-4.382.67-8.508.962-12.238l.07.122-10.775-5.717-.07-.035v-.076c.95-3.6,1.7-6.474,2.226-8.456.256-.973.46-1.748.583-2.261.064-.245.122-.437.163-.583a.961.961,0,0,1,.1-.221Z" transform="translate(-73.124 -154.338)" fill="#263238"/><path d="M145.567,184.08l1.544,2.255,8.782,2.943s.769,8.9.769,11.655-1.125,32.979-1.125,34.383,5.455,20.764,4.983,21.953-6.171,2.016-6.171,2.016-2.127-16.714-2.127-22.407-.239-19.7-1.428-26.574-5.245-22.547-5.245-22.547Z" transform="translate(-103.343 -150.55)" fill="#f8951d"/><path d="M162.207,193s2.593,1.119,2.885,7.1.787,19.517.787,19.517a10.644,10.644,0,0,1,1.859,4.114c.192,1.859,3.339,12.751,3.339,12.751l-7.063,2.331-1.807-3.269L160.68,202.5Z" transform="translate(-109.656 -154.272)" fill="#f8951d"/><path d="M153.462,241.675v-2.156c.035-1.416.082-3.415.134-5.874.117-4.959.315-11.813.443-19.383v-2.8c0-.921-.1-1.812-.163-2.7-.146-1.783-.286-3.5-.455-5.128s-.35-3.176-.583-4.61a19.51,19.51,0,0,0-1.107-3.87,50.087,50.087,0,0,0-2.465-5.309c-.326-.583-.583-1.061-.763-1.4l-.2-.367a.583.583,0,0,1-.058-.128.874.874,0,0,1,.087.111l.227.35c.192.309.472.775.81,1.375a44.747,44.747,0,0,1,2.582,5.286,19.546,19.546,0,0,1,1.166,3.91c.256,1.439.449,2.99.624,4.621s.321,3.351.472,5.128c.07.892.169,1.795.169,2.727v2.809c-.122,7.576-.361,14.423-.53,19.383-.1,2.459-.175,4.458-.227,5.868-.035.676-.064,1.206-.082,1.6v.42a.338.338,0,0,1-.076.14Z" transform="translate(-104.465 -152.165)" fill="#263238"/><path d="M123.953,228.443a2.168,2.168,0,0,1-.07-.443c-.029-.291-.064-.723-.1-1.282-.064-1.119-.134-2.733-.1-4.738,0-1,.052-2.092.128-3.269a14.569,14.569,0,0,0-.443-3.671,61.771,61.771,0,0,0-2.727-8.112c-1.166-2.826-2.331-5.478-3.421-7.879a32.137,32.137,0,0,1-1.463-3.467,31.771,31.771,0,0,1-.775-3.188c-.379-1.964-.583-3.567-.723-4.662-.064-.554-.1-.985-.134-1.276a2.238,2.238,0,0,1,0-.455,2.8,2.8,0,0,1,.082.443c.047.321.111.746.186,1.276.175,1.1.414,2.7.816,4.662.21.973.449,2.04.8,3.153a35.086,35.086,0,0,0,1.474,3.427c1.113,2.4,2.331,5.047,3.45,7.879A59.815,59.815,0,0,1,123.656,215a14.68,14.68,0,0,1,.42,3.753c-.082,1.166-.14,2.261-.169,3.258-.058,1.993,0,3.607,0,4.726,0,.536.035.962.047,1.282A2.606,2.606,0,0,1,123.953,228.443Z" transform="translate(-90.225 -151.351)" fill="#263238"/><path d="M163.121,251.7l-6.48,8.741a1.166,1.166,0,0,1-1.166.46l-28.019-5.257a1.166,1.166,0,0,1-.909-1.521l3.025-9.324a1.165,1.165,0,0,1,1.34-.8l31.469,5.828a1.166,1.166,0,0,1,.74,1.871Z" transform="translate(-95.388 -175.543)" fill="#263238"/><path d="M85.75,249.527a2.722,2.722,0,0,1,.938-.763A5.9,5.9,0,0,1,89.509,248a5.828,5.828,0,0,1,2.838.705,2.686,2.686,0,0,1,.962.734c0,.041-.4-.239-1.055-.542a6.451,6.451,0,0,0-2.739-.583,6.323,6.323,0,0,0-2.722.664C86.14,249.276,85.779,249.567,85.75,249.527Z" transform="translate(-78.392 -177.219)" fill="#263238"/><g transform="translate(13.349 85.641)" opacity="0.3"><path d="M96.03,276.536l11.708,4.307,1.154-4.592,5.239,1.061.711-2.657-8.229-1.154-.082,3.811L96.706,273.6Z" transform="translate(-96.03 -273.5)"/></g><path d="M114.869,257.807s2.215-1.871,2.914-2.29,3.007-1.952,4.079-1.795l1.055.157-.95,2.8s8.438-1.265,9.6.117-1.27,1.638-2.535,1.795-5.332.845-5.332.845,10.606-1.166,11.346,0-1.031,1.422-1.031,1.422l-6.993,2.791-.8.321-.81,1.055s-2.885,2-3.782,1.748-7.419-1.5-7.419-1.5Z" transform="translate(-90.267 -179.602)" fill="#ffbf9d"/><path d="M128,267.784a7.915,7.915,0,0,1,1.643-.5,41.178,41.178,0,0,1,8.205-1.166,8.3,8.3,0,0,1,1.719.029,12,12,0,0,1-1.707.181c-1.049.093-2.506.233-4.079.455s-3.03.49-4.079.693A12.651,12.651,0,0,1,128,267.784Z" transform="translate(-96.02 -184.766)" fill="#ff9a6c"/><path d="M129.65,271.889a4.412,4.412,0,0,1,1.521-.548,4.347,4.347,0,0,1,1.6-.262,4.347,4.347,0,0,1-1.521.554A4.424,4.424,0,0,1,129.65,271.889Z" transform="translate(-96.709 -186.848)" fill="#ff9a6c"/><path d="M174.42,250.451S175.7,249,176.664,249c.874,0,1.55.5,1.55,1.166v.985Z" transform="translate(-115.388 -177.637)" fill="#ffbf9d"/><path d="M163.528,205.87a2.091,2.091,0,0,1,.047.39l.082,1.119c.076.973.128,2.383.163,4.126.064,3.5-.1,8.3-.449,13.608s-.647,10.111-.711,13.59c-.041,1.748-.052,3.147-.041,4.12v1.125a1.84,1.84,0,0,1,0,.39,1.882,1.882,0,0,1-.041-.39q0-.425-.052-1.119c-.052-.979-.07-2.389-.058-4.132,0-3.5.28-8.3.624-13.6s.548-10.105.536-13.59c0-1.748,0-3.147-.064-4.12v-1.119A1.614,1.614,0,0,1,163.528,205.87Z" transform="translate(-110.4 -159.641)" fill="#263238"/><path d="M99.852,213.917a3.443,3.443,0,0,1-.052-.781c0-.5-.035-1.224-.1-2.115a36.7,36.7,0,0,0-3.613-13.427c-.39-.8-.728-1.451-.973-1.888A3.829,3.829,0,0,1,94.77,195a4.557,4.557,0,0,1,.449.647c.274.42.641,1.049,1.061,1.847a32.279,32.279,0,0,1,3.613,13.514,21.288,21.288,0,0,1,0,2.133A4.662,4.662,0,0,1,99.852,213.917Z" transform="translate(-82.156 -155.106)" fill="#263238"/><path d="M183.382,259.75a3.025,3.025,0,0,1,.612,2.267c-.332,1.008-2.716,2.838-2.716,2.838s-.921,1.09-1.34,1.09-2.413.361-2.273-.822,1.9-1.393,1.9-1.393.041-.431.793-.967,1.673-1.166,1.673-1.166Z" transform="translate(-116.739 -182.122)" fill="#ffbf9d"/><path d="M182.958,267.28c.029.035-.087.186-.355.338a1.44,1.44,0,0,1-1.166.1,1.107,1.107,0,0,1-.554-.443,1,1,0,0,1-.163-.548c0-.332.181-.484.21-.455s-.035.187,0,.443a.927.927,0,0,0,.583.705,1.463,1.463,0,0,0,1,0C182.777,267.28,182.935,267.216,182.958,267.28Z" transform="translate(-118.017 -184.844)" fill="#ff9a6c"/><path d="M163.58,244.686a8.742,8.742,0,0,1,2.634-4.866c.07.064-.728,1.02-1.445,2.366S163.667,244.715,163.58,244.686Z" transform="translate(-110.866 -173.807)" fill="#263238"/><rect width="7.943" height="5.326" transform="translate(20.791 54.842)" fill="#455a64"/><path d="M116.63,225.845a2.33,2.33,0,0,1-.029-.4v-1.078c0-.967-.035-2.273-.064-3.846l.122.122h-7.943l.152-.151h0V225.8l-.134-.14c2.331,0,4.277.041,5.682.07l1.649.035a4.66,4.66,0,0,1,.612.035,3.1,3.1,0,0,1-.583.035l-1.62.035c-1.393.029-3.4.058-5.769.07h-.14V220.49h0c-.14.134.181-.186.152-.152l7.943.029h.122v.122c0,1.649-.041,3-.064,3.916v1.061A1.958,1.958,0,0,1,116.63,225.845Z" transform="translate(-87.896 -165.677)" fill="#263238"/><path d="M115.992,224.586a1.34,1.34,0,1,1-.393-.954A1.346,1.346,0,0,1,115.992,224.586Z" transform="translate(-89.887 -166.889)" fill="#fff"/><g transform="translate(18.699 36.357)" opacity="0.3"><path d="M133,189.647c-4.382,1.783-8.841,3.59-13.549,4.027a17.1,17.1,0,0,1-13.24-4.744h-.95c-.443,3.322,2.016,6.754,4.173,9.324,2.331,2.762,4.872,5.472,8.1,7.1s7.3,1.993,10.385.111a11.166,11.166,0,0,0,4.662-7.121A32.63,32.63,0,0,0,133,189.647Z" transform="translate(-105.21 -188.93)"/></g><path d="M135.177,154.118c-.641-3.339-4.662-15.367-4.662-15.367-3.065-13.456-13.007-12.174-13.007-12.174-14.7-.082-14.61,23.631-14.61,23.631l-1.521,2.418c-2.127,3.549-5.88,6.579-3.765,11.7l3.893-1.247,28.736,1.276S135.818,157.451,135.177,154.118Z" transform="translate(-83.08 -126.544)" fill="#455a64"/><path d="M116.507,135.687l8.672-3.5,2.273.256c5.111,0,8.672,6.049,8.741,10.187a68.494,68.494,0,0,1-.775,13.165c-1.457,6.818-6.748,7.43-6.748,7.43s.064,1.859.117,4.149a7.22,7.22,0,0,1-7.366,7.389h0a7.226,7.226,0,0,1-7.075-7.191l-.1-29.546A2.418,2.418,0,0,1,116.507,135.687Z" transform="translate(-90.279 -128.9)" fill="#ffbf9d"/><path d="M145.736,158.119a.88.88,0,0,1-.9.851.845.845,0,0,1-.868-.839.886.886,0,0,1,.9-.851.845.845,0,0,1,.868.839Z" transform="translate(-102.684 -139.368)" fill="#263238"/><path d="M146.261,152.651c-.117.111-.758-.42-1.707-.46s-1.667.39-1.748.274.076-.256.39-.466a2.447,2.447,0,0,1,1.422-.361,2.39,2.39,0,0,1,1.352.513C146.231,152.389,146.319,152.6,146.261,152.651Z" transform="translate(-102.189 -137.012)" fill="#263238"/><path d="M138.772,160.445a6.62,6.62,0,0,1,1.556-.2c.245,0,.472-.047.524-.21a1.241,1.241,0,0,0-.128-.728c-.2-.583-.408-1.224-.624-1.882a32.38,32.38,0,0,1-1.37-4.907,31.345,31.345,0,0,1,1.748,4.784c.21.664.408,1.288.583,1.894a1.393,1.393,0,0,1,.076.956.583.583,0,0,1-.414.332,1.837,1.837,0,0,1-.414.041,5.968,5.968,0,0,1-1.538-.082Z" transform="translate(-100.493 -137.382)" fill="#263238"/><path d="M132.5,183.364a17.535,17.535,0,0,1-9.085-2.914s2.215,4.889,9.126,4.592Z" transform="translate(-94.105 -149.035)" fill="#ff9a6c"/><path d="M135.875,169.488a1.707,1.707,0,0,0-1.5-.711,1.573,1.573,0,0,0-1.107.524,1,1,0,0,0-.134,1.131,1.166,1.166,0,0,0,1.23.373,3.538,3.538,0,0,0,1.247-.664,1.032,1.032,0,0,0,.286-.262.321.321,0,0,0,0-.355" transform="translate(-98.114 -144.164)" fill="#ff9a6c"/><path d="M145.695,147.714c-.175.21-.816-.047-1.6-.1s-1.457.076-1.6-.157c-.058-.117.058-.326.355-.513a2.221,2.221,0,0,1,1.323-.291,2.2,2.2,0,0,1,1.259.5C145.695,147.387,145.753,147.615,145.695,147.714Z" transform="translate(-102.06 -134.93)" fill="#263238"/><path d="M129.7,158.065a.886.886,0,0,0,.839.9.851.851,0,0,0,.921-.787.886.886,0,0,0-.839-.9.851.851,0,0,0-.921.787Z" transform="translate(-96.73 -139.366)" fill="#263238"/><path d="M127,153.153c.1.117.781-.367,1.748-.355s1.638.5,1.748.385-.058-.256-.355-.484a2.453,2.453,0,0,0-1.393-.449,2.284,2.284,0,0,0-1.381.425C127.059,152.9,126.96,153.1,127,153.153Z" transform="translate(-95.598 -137.269)" fill="#263238"/><path d="M127.484,147.129c.169.216.822,0,1.608,0s1.451.163,1.608-.058c.07-.111-.035-.326-.321-.536a2.331,2.331,0,0,0-2.593.047C127.507,146.8,127.414,147.018,127.484,147.129Z" transform="translate(-95.796 -134.73)" fill="#263238"/><path d="M132.944,165.43s-1.422,11.224-9.54,11.073-9.569-8.706-9.569-8.706l-5.752-2.238L106.522,177.8a8.345,8.345,0,0,0,2.162,6.737c2.215,2.4,5.338,5.542,7.419,6.713,4.953,2.8,11.912,1.946,15.117-2.751a19.994,19.994,0,0,0,2.558-5.577c.1-.449,2.261-8.98,2.261-8.98Z" transform="translate(-87.031 -142.768)" fill="#455a64"/><path d="M110.929,137.727c-.956,5.152,0,15.571,5.793,19.511-.938-2.063-1.434-6.947-1.492-9.184a22.023,22.023,0,0,1,1.166-7.162c.35-1.166,1.515-4.079,2.611-4.761a13.194,13.194,0,0,1,5.361-1.5,15.426,15.426,0,0,1,7.2,1.34c2.162,1.166,2.523,4.441,3.054,6.644a22.334,22.334,0,0,1,.227,6.743l1.166-7.576s-.927-13.293-12.122-13.806c-9.01-.414-12.681,9.75-12.681,9.75Z" transform="translate(-88.763 -127.134)" fill="#455a64"/><path d="M151.908,182.969a.956.956,0,0,0,.093-.21c.07-.175.146-.379.233-.583.2-.524.466-1.3.769-2.261a40.21,40.21,0,0,0,1.556-7.733,57.689,57.689,0,0,0,.169-7.885c-.047-1.008-.093-1.818-.14-2.383a6.461,6.461,0,0,0-.052-.647,1.288,1.288,0,0,0-.035-.227,1.055,1.055,0,0,0,0,.227v.653c0,.635.041,1.434.064,2.383a65.162,65.162,0,0,1-.227,7.861,44.442,44.442,0,0,1-1.486,7.7c-.286.967-.524,1.748-.7,2.279l-.2.624C151.919,182.888,151.9,182.964,151.908,182.969Z" transform="translate(-105.994 -140.937)" fill="#263238"/><path d="M118.54,191.424a.781.781,0,0,0,.21.128,6.994,6.994,0,0,0,.641.291,7.763,7.763,0,0,0,2.535.513,9.668,9.668,0,0,0,3.788-.583,12.617,12.617,0,0,0,3.992-2.488,20.169,20.169,0,0,0,3.048-3.572,36.641,36.641,0,0,0,2.075-3.229,18.02,18.02,0,0,0,1.136-2.331,6.858,6.858,0,0,0,.233-.664,1.375,1.375,0,0,0,.064-.239s-.128.315-.373.868a21.56,21.56,0,0,1-1.195,2.279c-.554.938-1.265,2.016-2.1,3.188a21.119,21.119,0,0,1-3.03,3.532,12.634,12.634,0,0,1-3.916,2.453,9.709,9.709,0,0,1-3.712.647,8.409,8.409,0,0,1-2.512-.443C118.849,191.564,118.546,191.4,118.54,191.424Z" transform="translate(-92.073 -148.535)" fill="#263238"/><path d="M115.19,181.659a3.357,3.357,0,0,0,.3.46,10.045,10.045,0,0,0,.985,1.166,11.987,11.987,0,0,0,1.719,1.422,12.524,12.524,0,0,0,5.053,2.022,11.551,11.551,0,0,0,2.226.157,9.4,9.4,0,0,0,1.5-.14,2.915,2.915,0,0,0,.536-.122c0-.047-.781.111-2.034.111a13.141,13.141,0,0,1-8.887-3.561C115.662,182.277,115.231,181.63,115.19,181.659Z" transform="translate(-90.676 -149.539)" fill="#263238"/><path d="M114.42,176.28a2.005,2.005,0,0,0,.291.385c.2.239.5.583.886.973a30.742,30.742,0,0,0,3.234,2.885,30.158,30.158,0,0,0,3.613,2.4,8.187,8.187,0,0,0,1.166.583,2.442,2.442,0,0,0,.443.192,1.853,1.853,0,0,0-.408-.268l-1.125-.67a39.753,39.753,0,0,1-3.555-2.436,39.1,39.1,0,0,1-3.258-2.826l-.932-.921a3.456,3.456,0,0,0-.355-.3Z" transform="translate(-90.354 -147.295)" fill="#263238"/><path d="M107.42,168v.717a16,16,0,0,0,.21,1.946c.227,1.638.647,3.881,1.235,6.329a44.43,44.43,0,0,0,1.882,6.16,8.367,8.367,0,0,0,.915,1.748,2.033,2.033,0,0,0,.367.39l.163.093a2.669,2.669,0,0,1-.46-.536,9.556,9.556,0,0,1-.845-1.748,52.917,52.917,0,0,1-1.818-6.16c-.583-2.442-1.031-4.662-1.3-6.3-.134-.81-.227-1.469-.274-1.929A6.6,6.6,0,0,0,107.42,168Z" transform="translate(-87.434 -143.841)" fill="#263238"/><path d="M152.118,141a1.9,1.9,0,0,0,0,.478c0,.39.047.816.07,1.288.052,1.09.1,2.593.082,4.254s-.111,3.17-.21,4.254c-.047.466-.087.892-.128,1.282a1.608,1.608,0,0,0-.035.472,2.286,2.286,0,0,0,.117-.46c.058-.3.134-.734.2-1.276a39.567,39.567,0,0,0,.268-4.266c0-1.673-.052-3.182-.14-4.272-.052-.542-.1-.985-.146-1.288a2.134,2.134,0,0,0-.082-.466Z" transform="translate(-105.989 -132.575)" fill="#263238"/><path d="M115.366,150.348a.775.775,0,0,0,0-.2,2.584,2.584,0,0,0-.047-.583l-.192-2.15a42.647,42.647,0,0,1,0-7.1,24.847,24.847,0,0,1,.659-3.852,8.882,8.882,0,0,1,1.335-2.861c.519-.74,1-1.305,1.329-1.7l.373-.449c.087-.1.128-.163.122-.169s-.058.041-.152.14l-.408.42a19.373,19.373,0,0,0-1.393,1.667,8.887,8.887,0,0,0-1.4,2.914,23.963,23.963,0,0,0-.676,3.881,37.261,37.261,0,0,0,.07,7.139c.087.909.186,1.643.256,2.15.035.216.064.408.093.583S115.354,150.348,115.366,150.348Z" transform="translate(-90.502 -128.519)" fill="#263238"/><path d="M111.39,157.19a4.079,4.079,0,0,0,.227.973,21.873,21.873,0,0,0,.8,2.284,23,23,0,0,0,1.031,2.185,4.02,4.02,0,0,0,.524.851,4.831,4.831,0,0,0-.39-.921c-.256-.583-.583-1.335-.967-2.2s-.647-1.661-.857-2.244A5.036,5.036,0,0,0,111.39,157.19Z" transform="translate(-89.09 -139.33)" fill="#263238"/><g transform="translate(21.793 25.709)" opacity="0.3"><path d="M121.75,181.039l-.181.029,3.392,1.119A13.24,13.24,0,0,1,110.52,170.66a26.772,26.772,0,0,0,11.23,10.379Z" transform="translate(-110.52 -170.66)"/></g><g transform="translate(28.483 21.636)" opacity="0.3"><path d="M129.232,184.143a23.478,23.478,0,0,0,5.2-5.507c2.966-3.992,5.105-10.088,6.061-14.965.251,2,1.166,3.689-.128,7.692a44.434,44.434,0,0,1-3.444,8.258,15.031,15.031,0,0,1-6.311,6.177,9.083,9.083,0,0,1-8.607-.245A8.508,8.508,0,0,0,129.232,184.143Z" transform="translate(-122 -163.67)"/></g><path d="M136.536,170.052c0,.035-.251.146-.7.14a2.681,2.681,0,0,1-2.547-2.051c-.1-.437-.047-.717,0-.711a4.047,4.047,0,0,1,.216.647,3.007,3.007,0,0,0,.909,1.288,2.96,2.96,0,0,0,1.451.612C136.262,170.041,136.524,170.006,136.536,170.052Z" transform="translate(-98.204 -143.603)" fill="#263238"/></g><g transform="translate(249.824 74.022)"><path d="M409.29,124.762a14.466,14.466,0,0,0,2.407,8.2c.28.484-1.4,5.105-1.4,5.105l4.977-1.748c2.261,1.678,4.575,2.022,7.605,2.022a13.59,13.59,0,1,0-13.584-13.588Z" transform="translate(-409.066 -111.131)" fill="#fff"/><path d="M422.714,111.157h1.439l.618.087.711.1.8.2a13.118,13.118,0,0,1,3.875,1.69,13.724,13.724,0,0,1,6.288,10.286,14.358,14.358,0,0,1,.035,1.876,5.327,5.327,0,0,1-.058.962c-.058.321-.1.641-.146.962a13.782,13.782,0,0,1-1.305,3.817,14.57,14.57,0,0,1-2.494,3.432,14.289,14.289,0,0,1-3.59,2.576,13.024,13.024,0,0,1-4.377,1.346,8.652,8.652,0,0,1-1.166.1,11.443,11.443,0,0,1-1.166,0,14.144,14.144,0,0,1-2.36-.3,13.777,13.777,0,0,1-4.709-1.976h.146l-4.8,1.923-.286.117.082-.3,1.41-5.122v.128a13.754,13.754,0,0,1-2.558-5.857,12.823,12.823,0,0,1-.186-3,9.722,9.722,0,0,1,.14-1.439l.1-.705c.047-.227.117-.455.169-.676a13.712,13.712,0,0,1,5.35-7.8,13.194,13.194,0,0,1,3.182-1.678l.717-.256.682-.175.624-.152c.2-.041.391-.058.583-.087.361-.047.682-.111.962-.122h1.276a.583.583,0,0,1-.146,0h-.425l-.7.047a7.943,7.943,0,0,0-.95.146,13.637,13.637,0,0,0-10.9,10.233c-.052.221-.117.443-.157.67l-.1.688a9.4,9.4,0,0,0-.128,1.416,12.272,12.272,0,0,0,.192,2.914,13.456,13.456,0,0,0,2.523,5.729l.047.058v.07c-.449,1.655-.915,3.368-1.4,5.128l-.2-.181,4.79-1.929.076-.029.064.041a13.5,13.5,0,0,0,6.912,2.226,9.5,9.5,0,0,0,1.166,0,8.234,8.234,0,0,0,1.166-.1,12.82,12.82,0,0,0,4.283-1.305,14.178,14.178,0,0,0,3.5-2.518,14.484,14.484,0,0,0,2.448-3.351,13.291,13.291,0,0,0,1.288-3.736c.052-.321.1-.635.151-.944s.041-.629.064-.944a14.892,14.892,0,0,0-.029-1.842,13.573,13.573,0,0,0-6.125-10.163,13.136,13.136,0,0,0-3.817-1.719l-.787-.21-.711-.117-.583-.1a2.311,2.311,0,0,1-.507-.035l-.693-.052a1.113,1.113,0,0,1-.3-.047Z" transform="translate(-408.906 -111.11)" fill="#263238"/><path d="M420.34,131.882l1.871-1.871,3.607,3.211,7.075-6.813,1.737,1.871-9.079,8.543Z" transform="translate(-413.677 -117.494)" fill="#f8951d"/><path d="M425.525,136.843h0l-5.245-4.954h0l1.882-1.882,3.6,3.205,7.081-6.813h0l1.748,1.882h0Zm-5.192-4.965,5.192,4.924,9.062-8.532-1.719-1.847-7.075,6.813-3.607-3.205Z" transform="translate(-413.652 -117.49)" fill="#263238"/></g><g transform="translate(29.029 85.036)"><path d="M57.035,143.524a14.442,14.442,0,0,1-2.4,8.159c-.28.478,1.393,5.076,1.393,5.076l-4.942-1.748c-2.249,1.667-4.546,2-7.576,2a13.5,13.5,0,1,1,13.52-13.491Z" transform="translate(-30.03 -130.01)" fill="#fff"/><path d="M59.58,152.476a1.166,1.166,0,1,0,1.166-1.166A1.166,1.166,0,0,0,59.58,152.476Z" transform="translate(-42.359 -138.897)" fill="#263238"/><path d="M51.62,152.476a1.166,1.166,0,1,0,1.166-1.166A1.166,1.166,0,0,0,51.62,152.476Z" transform="translate(-39.038 -138.897)" fill="#263238"/><path d="M43.576,151.9a1.166,1.166,0,1,0,1.579-.425A1.166,1.166,0,0,0,43.576,151.9Z" transform="translate(-35.615 -138.902)" fill="#263238"/><path d="M43.733,130.085a.937.937,0,0,0-.239,0H42.3l-.583.087-.711.1-.787.2a12.821,12.821,0,0,0-3.84,1.673,13.5,13.5,0,0,0-6.259,12.034,4.736,4.736,0,0,0,.064.95l.14.956a13.747,13.747,0,0,0,1.294,3.776,13.514,13.514,0,0,0,6,5.985,13.054,13.054,0,0,0,4.33,1.329,8.486,8.486,0,0,0,1.166.1,11.231,11.231,0,0,0,1.166,0,13.287,13.287,0,0,0,2.331-.3,13.6,13.6,0,0,0,4.662-1.958h-.14l4.744,1.9.28.117-.082-.291-1.393-5.076v.128a13.543,13.543,0,0,0,2.529-5.828A11.906,11.906,0,0,0,57.4,143a8.911,8.911,0,0,0-.134-1.428l-.1-.693c-.047-.227-.117-.449-.169-.67a13.544,13.544,0,0,0-5.292-7.716,12.938,12.938,0,0,0-3.153-1.661l-.74-.216-.676-.169-.618-.152c-.2-.041-.385-.058-.583-.087-.361-.047-.676-.1-.95-.122H43.838l.425.035.693.047a7.5,7.5,0,0,1,.938.14,13.491,13.491,0,0,1,10.787,10.006c.052.221.122.437.163.664s.064.449.1.682a9.172,9.172,0,0,1,.128,1.4,12.314,12.314,0,0,1-.192,2.914,13.322,13.322,0,0,1-2.5,5.67l-.041.058v.07l1.387,5.07.2-.175-4.738-1.911-.076-.029-.07.041a13.258,13.258,0,0,1-6.836,2.2,9.324,9.324,0,0,1-1.166,0,9.147,9.147,0,0,1-1.131-.093,12.675,12.675,0,0,1-4.237-1.3,13.887,13.887,0,0,1-3.5-2.488,14.359,14.359,0,0,1-2.424-3.316,13.578,13.578,0,0,1-1.276-3.695c-.047-.315-.1-.629-.146-.938s-.041-.624-.064-.932a14.493,14.493,0,0,1,.029-1.818,13.4,13.4,0,0,1,6.16-10.064,12.774,12.774,0,0,1,3.77-1.708l.781-.21.7-.117.583-.1.5-.035.688-.052Z" transform="translate(-30.061 -130.038)" fill="#263238"/></g></g></svg>