<svg xmlns="http://www.w3.org/2000/svg" width="250" height="233.81" viewBox="0 0 250 233.81"><g transform="translate(-18.25 -41.21)"><g transform="translate(18.25 274.734)"><path d="M266.455,473.361c0,.081-55.563.146-124.095.146s-124.111-.065-124.111-.146,55.553-.141,124.111-.141S266.455,473.285,266.455,473.361Z" transform="translate(-18.25 -473.22)" fill="#263238"/></g><g transform="translate(28.234 167.305)"><rect width="13.335" height="21.822" transform="translate(147.76 107.446) rotate(180)" fill="#f8951d"/><rect width="13.335" height="37.022" transform="translate(201.529 107.446) rotate(180)" fill="#f8951d"/><rect width="13.335" height="13.449" transform="translate(228.416 107.44) rotate(180)" fill="#f8951d"/><rect width="13.335" height="32.19" transform="translate(174.642 107.44) rotate(180)" fill="#f8951d"/><rect width="13.335" height="40.109" transform="translate(120.873 107.446) rotate(180)" fill="#f8951d"/><rect width="13.335" height="51.596" transform="translate(93.991 107.44) rotate(180)" fill="#f8951d"/><rect width="13.335" height="64.385" transform="translate(67.11 107.446) rotate(180)" fill="#f8951d"/><rect width="13.335" height="81.731" transform="translate(40.217 107.44) rotate(180)" fill="#f8951d"/><rect width="13.335" height="107.44" transform="translate(13.335 107.44) rotate(180)" fill="#f8951d"/></g><g transform="translate(47.011 41.21)"><path d="M257.841,345.186a26.579,26.579,0,0,0-22.546-14.162c5.649-6.254,6.762-15.93,3.5-23.7s-10.433-13.573-18.487-16.071-16.86-1.914-24.865.67c.935-6.076-5.146-12.146-11.222-11.2a5.849,5.849,0,0,0-5.746-10.141L178.839,226H152.352l.357,44.558a5.849,5.849,0,0,0-5.762,10.162c-6.076-.946-12.157,5.124-11.227,11.2-8.022-2.584-16.833-3.173-24.865-.67s-15.26,8.292-18.5,16.071-2.162,17.449,3.508,23.7a26.59,26.59,0,0,0-22.552,14.162c-2.465,4.822-2.7,11.941,2.1,14.46H255.744C260.538,357.127,260.311,350.008,257.841,345.186Z" transform="translate(-71.516 -126.111)" fill="#ebebeb"/><path d="M75.329,359.55l-.643-.384a6.833,6.833,0,0,1-1.622-1.524,8.217,8.217,0,0,1-1.4-3.324,13.179,13.179,0,0,1,.059-4.968,16.757,16.757,0,0,1,2.3-5.827,25.5,25.5,0,0,1,4.816-5.784,26.908,26.908,0,0,1,7.319-4.719l1.081-.459,1.124-.395a11.886,11.886,0,0,1,1.157-.351c.395-.108.784-.232,1.189-.319a27.67,27.67,0,0,1,5.043-.654l-.065.141a20.762,20.762,0,0,1-3.93-6.568,23.817,23.817,0,0,1,2.27-20.827,24.865,24.865,0,0,1,2.843-3.784,31.417,31.417,0,0,1,17.244-9.643,39.309,39.309,0,0,1,10.665-.627,48.043,48.043,0,0,1,10.876,2.162l-.162.141a8.919,8.919,0,0,1,.465-4.357,11.168,11.168,0,0,1,6.233-6.422,9,9,0,0,1,4.692-.557l-.1.238a5.984,5.984,0,0,1,5.876-10.373l-.189.124c-.119-14.189-.238-29.152-.362-44.558v-.141h26.768v.113c-.124,15.368-.249,30.271-.362,44.558l-.189-.124a5.984,5.984,0,0,1,5.876,10.373l-.1-.238a8.941,8.941,0,0,1,4.616.541,11.146,11.146,0,0,1,6.27,6.395,8.892,8.892,0,0,1,.486,4.438l-.162-.141a48.045,48.045,0,0,1,10.876-2.162,39.405,39.405,0,0,1,10.649.622,31.487,31.487,0,0,1,17.238,9.616,25.543,25.543,0,0,1,2.849,3.784,23.913,23.913,0,0,1,2.076,4.1,23.341,23.341,0,0,1,1.227,4.3,25.042,25.042,0,0,1,.405,4.324,23.784,23.784,0,0,1-1.405,8.108,20.736,20.736,0,0,1-3.946,6.595l-.059-.141a27.726,27.726,0,0,1,5.049.654c.4.092.795.216,1.189.319a11.493,11.493,0,0,1,1.157.357l1.13.395,1.081.459a26.9,26.9,0,0,1,7.33,4.724,25.748,25.748,0,0,1,4.811,5.789,16.87,16.87,0,0,1,2.3,5.827,13.238,13.238,0,0,1,.049,4.962,8.265,8.265,0,0,1-1.4,3.319,6.67,6.67,0,0,1-1.622,1.519c-.422.259-.643.384-.643.384l.632-.405a6.839,6.839,0,0,0,1.573-1.524,8.249,8.249,0,0,0,1.368-3.308,13.221,13.221,0,0,0-.07-4.93,16.756,16.756,0,0,0-2.3-5.789,25.519,25.519,0,0,0-4.806-5.741,26.79,26.79,0,0,0-7.3-4.687l-1.081-.454-1.124-.389a11.822,11.822,0,0,0-1.151-.357c-.395-.1-.784-.222-1.184-.314a27.846,27.846,0,0,0-5.016-.643h-.178l.119-.135a20.616,20.616,0,0,0,3.9-6.541,23.6,23.6,0,0,0,1.384-8.06,25.662,25.662,0,0,0-.405-4.281,22.975,22.975,0,0,0-1.227-4.26,23.937,23.937,0,0,0-2.06-4.065,25.786,25.786,0,0,0-2.811-3.714,31.244,31.244,0,0,0-17.119-9.53,39.191,39.191,0,0,0-10.589-.611,47.8,47.8,0,0,0-10.811,2.162l-.195.059.027-.2a8.649,8.649,0,0,0-.476-4.324,10.887,10.887,0,0,0-6.119-6.206,8.686,8.686,0,0,0-4.487-.541l-.568.092.476-.33a5.719,5.719,0,0,0-5.616-9.908l-.189.086V270.5c.114-14.276.227-29.19.351-44.558l.141.141H152.292l.141-.141c.119,15.406.238,30.363.351,44.558v.211l-.195-.086a5.719,5.719,0,0,0-5.638,9.876l.476.33-.573-.092a8.708,8.708,0,0,0-4.535.541,10.811,10.811,0,0,0-3.741,2.535,9.622,9.622,0,0,0-2.805,7.962l.032.2-.195-.059a47.57,47.57,0,0,0-10.811-2.162,39.461,39.461,0,0,0-10.595.611,31.239,31.239,0,0,0-17.141,9.595,25.55,25.55,0,0,0-2.827,3.741,23.137,23.137,0,0,0-2.054,4.065,23.665,23.665,0,0,0-.227,16.584,20.7,20.7,0,0,0,3.892,6.519l.119.135h-.184a27.788,27.788,0,0,0-5.006.643c-.4.086-.789.211-1.184.314a11.809,11.809,0,0,0-1.151.351l-1.119.389-1.081.454a26.762,26.762,0,0,0-7.3,4.676,25.842,25.842,0,0,0-4.811,5.741,16.886,16.886,0,0,0-2.308,5.789,13.265,13.265,0,0,0-.076,4.935,8.2,8.2,0,0,0,1.368,3.314,6.665,6.665,0,0,0,1.578,1.53Z" transform="translate(-71.456 -126.015)" fill="#263238"/><path d="M181.88,80.038,215.237,41.21l32.055,38.828H234.784v63.331H195.951V80.108Z" transform="translate(-122.19 -41.21)" fill="#f8951d"/><path d="M454.907,229.77l-23.617,7.26,5.735,3.616,15.887,9.887,5.108,3.195Z" transform="translate(-236.781 -127.843)" fill="#f8951d"/><path d="M265.723,356.719,251.49,349.6l33.757-52.174,13.708,13.141,26.811-42.6,13.384,9.822L363.2,238.57l8.087,3.778-29.574,53.007-14.979-13.984-25.579,47.715L287.7,313.339Z" transform="translate(-154.172 -131.887)" fill="#f8951d"/><g transform="translate(47.425 194.542)" opacity="0.3"><path d="M237.246,417.946c-3.243-2.162-7.427-2.378-11.238-1.622-1.259.249-2.654.573-3.757-.081s-1.47-2.027-1.9-3.243c-2.227-6.119-8.335-10.314-14.762-11.384s-11.584-.541-17.406,2.362a25.093,25.093,0,0,0-10.119,8.719c-.87,1.3-2.454,3.957-2.454,3.957-1.162.854-2.7.914-4.13,1.146a15.46,15.46,0,0,0-12.287,11.568l81.656-1.292C242.381,424.486,240.484,420.092,237.246,417.946Z" transform="translate(-159.19 -401.105)"/></g><path d="M150.92,436.765c2.551-9.043,12.611-15.249,21.838-13.465a21.993,21.993,0,0,1,43.082-.341c5.541-1.276,11.5-2.222,16.79-.141s9.341,8.287,7.152,13.514" transform="translate(-107.966 -208.614)" fill="#ebebeb"/><path d="M239.846,436.25a.459.459,0,0,1,.043-.157c.043-.1.081-.254.141-.449a3.59,3.59,0,0,0,.189-.757,5.45,5.45,0,0,0,.146-1.043,10.006,10.006,0,0,0-1.968-6.487,13.221,13.221,0,0,0-3.5-3.389,14.167,14.167,0,0,0-5.33-2.054,24.243,24.243,0,0,0-6.514-.195A53.868,53.868,0,0,0,215.932,423h-.124v-.124a21.86,21.86,0,0,0-6.243-10.914,22.784,22.784,0,0,0-12.357-6.141,19.806,19.806,0,0,0-8.779.708,23.336,23.336,0,0,0-12.746,9.865,20.969,20.969,0,0,0-2.7,6.816v.114h-.119a17.779,17.779,0,0,0-5.973-.076,19.461,19.461,0,0,0-2.7.611l-1.259.438c-.422.135-.8.346-1.195.508a23.02,23.02,0,0,0-2.162,1.141l-.968.649-.476.319-.432.346-.843.676c-.27.222-.508.476-.757.7s-.486.454-.7.692l-.616.7a18.79,18.79,0,0,0-2.995,4.768c-.259.6-.395,1.081-.541,1.395a2.36,2.36,0,0,0-.178.481s.173-.676.632-1.9a18.557,18.557,0,0,1,2.951-4.827l.622-.719c.216-.238.465-.459.7-.7s.481-.486.757-.714l.843-.687c.146-.119.286-.238.438-.351l.47-.324.978-.659a22.653,22.653,0,0,1,2.195-1.162c.395-.168.778-.384,1.2-.541l1.276-.449a19.5,19.5,0,0,1,2.741-.627,17.838,17.838,0,0,1,6.054.054l-.141.1a21.082,21.082,0,0,1,2.735-6.908,23.286,23.286,0,0,1,5.346-5.989,23.569,23.569,0,0,1,7.465-4,20.038,20.038,0,0,1,8.9-.714,22.984,22.984,0,0,1,12.5,6.216,22.13,22.13,0,0,1,6.3,11.065l-.157-.1a54.161,54.161,0,0,1,7.162-1.227,24.211,24.211,0,0,1,6.573.222,14.239,14.239,0,0,1,5.405,2.108,13.341,13.341,0,0,1,3.524,3.454,9.989,9.989,0,0,1,1.924,6.568,5.9,5.9,0,0,1-.168,1.054,3.9,3.9,0,0,1-.211.741c-.07.189-.124.335-.162.449a.664.664,0,0,1-.081.146Z" transform="translate(-108.03 -208.51)" fill="#263238"/></g><g transform="translate(47.078 91.202)"><path d="M154.626,172.923A39.2,39.2,0,1,1,114.8,134.176,39.333,39.333,0,0,1,154.626,172.923Zm-57.936.935a18.741,18.741,0,1,0,18.438-19.13A18.741,18.741,0,0,0,96.69,173.858Z" transform="translate(-73.716 -133.913)" fill="#e0e0e0"/><path d="M187.408,172.931a39.333,39.333,0,0,1-38.568,40l-.33-20.541a18.83,18.83,0,0,0-.6-37.655l-.33-20.541A39.325,39.325,0,0,1,187.408,172.931Z" transform="translate(-106.498 -133.922)" fill="#455a64"/><path d="M148.34,212.985l-.335-21.082h.27a18.568,18.568,0,0,0,12.546-31.893,18.33,18.33,0,0,0-13.141-5.233h-.27L147.07,133.7h.27a39.652,39.652,0,0,1,1.27,79.294Zm.211-20.541.319,20a39.114,39.114,0,0,0-1.249-78.213l.319,20a19.1,19.1,0,0,1,.611,38.19Z" transform="translate(-106.264 -133.694)" fill="#455a64"/><path d="M117.44,247.471c-25.282.411-45.455-19.211-45.86-44.617l23.93-.384c.195,12.146,9.438,19.79,21.525,19.6Z" transform="translate(-71.58 -165.293)" fill="#f8951d"/><path d="M87.938,204c.151.1-2.108,3.654-5.049,7.919s-5.454,7.649-5.606,7.568,2.114-3.654,5.054-7.924S87.792,203.867,87.938,204Z" transform="translate(-74.197 -165.993)" fill="#263238"/><path d="M103.083,207.649c.151.108-3.195,5.227-7.47,11.438s-7.876,11.157-8.027,11.054,3.195-5.222,7.476-11.433S102.943,207.546,103.083,207.649Z" transform="translate(-78.932 -167.672)" fill="#263238"/><path d="M113.716,227.338c.157.1-2.86,4.741-6.724,10.352s-7.124,10.076-7.276,9.973,2.86-4.741,6.724-10.352S113.564,227.23,113.716,227.338Z" transform="translate(-84.504 -176.718)" fill="#263238"/><path d="M130.006,238.228c.151.1-2.86,4.735-6.724,10.352s-7.124,10.065-7.287,9.973,2.86-4.741,6.73-10.357S129.854,238.1,130.006,238.228Z" transform="translate(-91.983 -181.721)" fill="#263238"/><path d="M146.065,252c.157.108-2.308,3.941-5.492,8.568s-5.9,8.314-6.049,8.189,2.308-3.941,5.5-8.568S145.914,251.918,146.065,252Z" transform="translate(-100.497 -188.048)" fill="#263238"/></g><g transform="translate(130.879 43.369)"><path d="M381.107,57.072s2.362-5.438,2.476-6.292-.119-2.741-.73-3.243a1.659,1.659,0,0,0-1.946-.265,1.622,1.622,0,0,0-1.3-1.411.881.881,0,0,0-1.173.854,1.038,1.038,0,0,0-.822-1.049,1.557,1.557,0,0,0-.919.135s-1.151-1.027-1.924-.389.119,10.546.119,10.546Z" transform="translate(-294.538 -45.204)" fill="#ffbf9d"/><path d="M373.217,55.35s-2.108-3.627-2.1-4.616,1.195-3.243,1.854-3.514,3.243-.87,3.243-.87,1.081,1-.514,1.989L373.9,49.4a4.178,4.178,0,0,1,2.805,3.93" transform="translate(-293.005 -45.73)" fill="#ffbf9d"/><path d="M376.613,53.192a7.339,7.339,0,0,0-.27-1.373,3.957,3.957,0,0,0-.849-1.33,4.784,4.784,0,0,0-1.724-1.114l-.243-.092.222-.124,1.838-1.081a1.67,1.67,0,0,0,.708-.778.946.946,0,0,0-.259-.968l.124.032-1.389.33-1.081.286c-.178.054-.357.1-.541.162a2.083,2.083,0,0,0-.243.092,1.242,1.242,0,0,0-.189.135,6.042,6.042,0,0,0-1.081,1.692,5.98,5.98,0,0,0-.351.881,1.984,1.984,0,0,0-.113.849,7.961,7.961,0,0,0,.541,1.519c.411.914.789,1.622,1.043,2.135a6.562,6.562,0,0,1,.373.789,4.619,4.619,0,0,1-.476-.73c-.281-.486-.687-1.195-1.124-2.108a7.6,7.6,0,0,1-.589-1.562,2.13,2.13,0,0,1,.1-.957,8.077,8.077,0,0,1,.351-.924,6.179,6.179,0,0,1,1.157-1.784,1.254,1.254,0,0,1,.254-.178,2.554,2.554,0,0,1,.27-.108c.178-.059.362-.114.541-.162q.541-.151,1.081-.292l1.4-.33h.076l.049.049a1.222,1.222,0,0,1,.33,1.265,1.951,1.951,0,0,1-.827.914l-1.865,1.038v-.216a4.865,4.865,0,0,1,1.784,1.205,3.838,3.838,0,0,1,.843,1.422,3.312,3.312,0,0,1,.13.595,2,2,0,0,1,.032.449,1.438,1.438,0,0,1-.032.373Z" transform="translate(-292.913 -45.616)" fill="#ff9a6c"/><path d="M381.133,48.13a9.374,9.374,0,0,0-.308,3.243,1.622,1.622,0,0,0,.351,1.011,1.081,1.081,0,0,0,.973.281,1.757,1.757,0,0,0,.9-.541" transform="translate(-297.45 -46.548)" fill="#ffbf9d"/><path d="M382.954,52.159a1.336,1.336,0,0,1-.773.589,1.227,1.227,0,0,1-1.081-.162,1.622,1.622,0,0,1-.508-1.232,6.438,6.438,0,0,1,.454-3.243,18.647,18.647,0,0,0-.173,3.211,1.438,1.438,0,0,0,.389,1.049,1.081,1.081,0,0,0,.876.178A3.907,3.907,0,0,0,382.954,52.159Z" transform="translate(-297.336 -46.539)" fill="#ff9a6c"/><path d="M377.019,51.75a2.195,2.195,0,0,0-.086,1.184,1.216,1.216,0,0,0,.827,1.151c.411.1.941-.449,1.184-1.022" transform="translate(-295.655 -48.211)" fill="#ffbf9d"/><path d="M378.895,53.044c.027,0,0,.27-.254.611a1.518,1.518,0,0,1-.541.5.67.67,0,0,1-.492,0,1.048,1.048,0,0,1-.427-.27,1.459,1.459,0,0,1-.389-.832,6.811,6.811,0,0,1,0-.714c0-.427.2-.643.222-.627a3.967,3.967,0,0,0,0,.627l.076.676a1.335,1.335,0,0,0,.335.676.9.9,0,0,0,.314.205.406.406,0,0,0,.308,0,1.449,1.449,0,0,0,.5-.378C378.743,53.25,378.852,53.028,378.895,53.044Z" transform="translate(-295.607 -48.192)" fill="#ff9a6c"/><path d="M385.594,49.12a5.509,5.509,0,0,0-1.259,2.27,1.265,1.265,0,0,0,.178,1.287,1.141,1.141,0,0,0,1.335-.049,2.665,2.665,0,0,0,1.2-1.751" transform="translate(-299.03 -47.003)" fill="#ffbf9d"/><path d="M386.937,50.909a1.681,1.681,0,0,1-.346,1.081,2.573,2.573,0,0,1-.914.865,1.621,1.621,0,0,1-.746.2.9.9,0,0,1-.768-.4,1.243,1.243,0,0,1-.157-.827,3.111,3.111,0,0,1,.178-.719,5.039,5.039,0,0,1,.541-1.081,2.438,2.438,0,0,1,.751-.838c.032.032-.254.351-.584.941a5.746,5.746,0,0,0-.465,1.081,2.762,2.762,0,0,0-.151.665,1.049,1.049,0,0,0,.114.649c.243.384.8.308,1.162.119a2.535,2.535,0,0,0,.865-.746,6.426,6.426,0,0,0,.519-.989Z" transform="translate(-298.919 -47.035)" fill="#ff9a6c"/><path d="M332.47,99.817a36.423,36.423,0,0,1,4.087-3.87c1.157-.708,8.779-9.795,9.584-12.184s8.281-21.584,8.108-21.325,9.492,2.027,9.492,2.027-7.162,22.163-8.038,24.671c-1.578,4.589-9.4,13.881-13.854,19.46-1.9,2.373-4.53,9.973-4.53,9.973Z" transform="translate(-275.247 -53.121)" fill="#263238"/><path d="M344.925,143.486a9.518,9.518,0,0,1-.276-1.735c-.124-1.081-.238-2.573-.265-4.227s.032-3.157.119-4.238a10.273,10.273,0,0,1,.216-1.746,12.36,12.36,0,0,1,0,1.757c-.038,1.081-.065,2.573-.038,4.222s.108,3.135.184,4.216A12.04,12.04,0,0,1,344.925,143.486Z" transform="translate(-280.718 -84.871)" fill="#455a64"/><path d="M242.5,357.246l-4.119,8.395-.541,2.054s2.751,12.471,1.032,13.7l-12.26-19.79,3.157-1.989,3.93-8.389Z" transform="translate(-226.61 -185.807)" fill="#455a64"/><path d="M226.67,369.672l1.551-.892,11.173,19.309s.184,1.108-.465,1.373Z" transform="translate(-226.638 -193.87)" fill="#263238"/><path d="M246.153,381.1c-.1.054-.438-.4-1.027-.7s-1.13-.3-1.146-.416.6-.3,1.3.07S246.239,381.066,246.153,381.1Z" transform="translate(-234.59 -198.95)" fill="#263238"/><path d="M246.993,386.388c-.076.076-.492-.243-1.081-.335s-1.081.076-1.114,0,.427-.486,1.157-.362S247.069,386.3,246.993,386.388Z" transform="translate(-234.966 -201.629)" fill="#263238"/><path d="M245.852,391.377c-.076-.076.3-.5.957-.541s1.13.265,1.081.351-.492,0-1.027.038S245.928,391.464,245.852,391.377Z" transform="translate(-235.446 -204.002)" fill="#263238"/><path d="M285.992,228.1c-.4.951-21.082,32.612-25.325,36.131s-18.725,32.4-18.725,32.4-11.833-5.735-12.1-5.114,8.3-20.384,13.406-29.011,7.492-11.962,7.492-11.962l10.162-27.1s.211-8.925,1.514-12.395,5.13-6.487,5.13-6.487Z" transform="translate(-228.094 -118.42)" fill="#263238"/><path d="M283.717,309.366l-11,.789s-2.822,12.049-4.865,12.406l-2.422-22.433,17.081-1.968Z" transform="translate(-244.446 -161.424)" fill="#455a64"/><path d="M277.865,306.836a.87.87,0,0,0-1.081-.541.892.892,0,0,0-.5,1.081.919.919,0,0,0,1.124.541.935.935,0,0,0,.395-1.2" transform="translate(-249.415 -165.144)" fill="#e0e0e0"/><path d="M265.48,301.694l1.73-.124,1.67,21.552s-.3,1.043-.978,1.005Z" transform="translate(-244.469 -162.991)" fill="#263238"/><path d="M277.971,319.365c-.108,0-.211-.541-.605-1.038s-.859-.741-.827-.849.649,0,1.114.611S278.068,319.365,277.971,319.365Z" transform="translate(-249.549 -170.283)" fill="#263238"/><path d="M276.5,324.4c-.1.032-.324-.422-.805-.746s-.957-.378-.962-.487.573-.243,1.162.168S276.568,324.382,276.5,324.4Z" transform="translate(-248.719 -172.862)" fill="#263238"/><path d="M273.279,328.393c-.032-.1.47-.308,1.081-.086s.876.7.795.762-.416-.227-.914-.4S273.3,328.5,273.279,328.393Z" transform="translate(-248.051 -175.23)" fill="#263238"/><path d="M283.444,318.148c-.1-.032,0-.541-.114-1.168s-.346-1.081-.265-1.146.508.357.622,1.081S283.563,318.191,283.444,318.148Z" transform="translate(-252.541 -169.541)" fill="#263238"/><path d="M281.137,227.705s-.027,10.552,4.762,14.114,21.4,16.968,21.4,16.968l-26.514,4.53,1.984,12.292s35.79-3.611,40.168-5.076,7.53-8.876,4.1-14.054c-1.724-2.584-19.541-27.914-19.541-27.914l-.541-6.795-22.46,1.416Z" transform="translate(-251.498 -126.327)" fill="#263238"/><path d="M282.677,287.123a1.124,1.124,0,0,1-.049-.211c-.032-.162-.07-.373-.119-.638-.1-.578-.243-1.395-.422-2.443-.357-2.162-.87-5.211-1.5-8.984v-.1h.1l24.206-4.173,2.3-.395-.065.249c-3.735-3.087-7.287-5.995-10.525-8.606L292,258.144c-1.443-1.141-2.832-2.162-3.978-3.243a27.318,27.318,0,0,1-4.719-5.665,16.783,16.783,0,0,1-.957-1.762c-.1-.205-.168-.368-.211-.476a.6.6,0,0,1-.054-.168.927.927,0,0,1,.081.157c.049.108.124.265.232.465a19.144,19.144,0,0,0,.995,1.724,28.363,28.363,0,0,0,4.762,5.584c1.146,1.054,2.535,2.059,3.984,3.2s3.005,2.357,4.627,3.654c3.243,2.605,6.811,5.5,10.546,8.589l.238.195-.3.049-2.3.395-24.217,4.1.086-.119c.589,3.784,1.081,6.854,1.4,8.995.157,1.054.281,1.876.368,2.454.038.27.065.481.086.643A.93.93,0,0,1,282.677,287.123Z" transform="translate(-251.411 -137.84)" fill="#455a64"/><path d="M337,290.855c0,.081-1.573-.378-3.541-.584s-3.584-.092-3.589-.178a3.53,3.53,0,0,1,1.054-.157,15.134,15.134,0,0,1,2.562.059,14.522,14.522,0,0,1,2.519.481A3.244,3.244,0,0,1,337,290.855Z" transform="translate(-274.053 -157.632)" fill="#455a64"/><path d="M312.7,66.4a2.47,2.47,0,0,1,2.281-1.687,3.362,3.362,0,0,1,4.1-.665,3,3,0,0,1,4.865,1.622,2.568,2.568,0,0,1,2.811.838,2.6,2.6,0,0,1,.1,2.946,2.422,2.422,0,0,1-.157,4.816L313.645,69.1a2.486,2.486,0,0,1-.946-2.7Z" transform="translate(-266.12 -53.533)" fill="#263238"/><path d="M324.386,77.572A10.271,10.271,0,0,0,312.677,70.1l-.541.092c-5.551,1.351-6.379,6.87-4.865,12.433l4.308,20.865h0l10.325,6.135,1.243-4.557V97.638s5.243-1.822,4.324-7.26C327.013,87.724,325.661,82.4,324.386,77.572Z" transform="translate(-263.363 -56.568)" fill="#ffbf9d"/><path d="M330.933,120.425a13.26,13.26,0,0,1-7.443-.795s2.114,3.9,7.406,2.432Z" transform="translate(-271.121 -79.399)" fill="#ff9a6c"/><path d="M336.956,93.034a.778.778,0,0,1-.6.914.746.746,0,0,1-.919-.541.784.784,0,0,1,.6-.919.746.746,0,0,1,.919.546Z" transform="translate(-276.603 -66.917)" fill="#263238"/><path d="M335.838,89.361c-.081.119-.741-.211-1.568-.054s-1.378.676-1.47.595,0-.238.243-.481a2.1,2.1,0,0,1,1.151-.6,2.038,2.038,0,0,1,1.27.173C335.757,89.139,335.876,89.307,335.838,89.361Z" transform="translate(-275.383 -65.227)" fill="#263238"/><path d="M323.566,96.063a.784.784,0,0,1-.6.919.751.751,0,0,1-.919-.541.778.778,0,0,1,.6-.914.746.746,0,0,1,.919.535Z" transform="translate(-270.451 -68.313)" fill="#263238"/><path d="M321.122,91.811c-.081.119-.741-.205-1.568-.054s-1.362.681-1.47.595,0-.238.238-.481a2.162,2.162,0,0,1,1.157-.6,2.043,2.043,0,0,1,1.27.173C321.041,91.6,321.16,91.757,321.122,91.811Z" transform="translate(-268.618 -66.353)" fill="#263238"/><path d="M329.471,96.97a5.405,5.405,0,0,1,1.3-.492c.211-.059.4-.135.411-.286a1.081,1.081,0,0,0-.254-.605l-.924-1.508a26.84,26.84,0,0,1-2.162-3.989,27.709,27.709,0,0,1,2.487,3.784c.314.541.616,1.038.9,1.524a1.265,1.265,0,0,1,.265.816.541.541,0,0,1-.292.373,1.416,1.416,0,0,1-.351.119,5.821,5.821,0,0,1-1.378.265Z" transform="translate(-273.119 -65.826)" fill="#263238"/><path d="M326.479,104.709c.135-.032.3.87,1.189,1.373s1.827.227,1.854.351-.178.216-.584.3a2.292,2.292,0,0,1-1.541-.243,2.011,2.011,0,0,1-.935-1.168C326.36,104.953,326.419,104.715,326.479,104.709Z" transform="translate(-272.461 -72.543)" fill="#263238"/><path d="M320.133,87.44c-.059.238-.811.173-1.676.346s-1.557.481-1.681.281c-.059-.092.049-.319.319-.541a2.649,2.649,0,0,1,1.205-.568,2.487,2.487,0,0,1,1.33.1C319.96,87.159,320.133,87.332,320.133,87.44Z" transform="translate(-268.03 -64.365)" fill="#263238"/><path d="M334.935,85.211c-.092.222-.7.178-1.384.351s-1.211.459-1.395.3c-.081-.076-.043-.286.162-.541a2.049,2.049,0,0,1,2.238-.541C334.843,84.93,334.973,85.1,334.935,85.211Z" transform="translate(-275.085 -63.326)" fill="#263238"/><path d="M321.357,74.44s-2.038-3.141-3.811-3.633c-2.162-.605-2.6,1.73-4.578,1.541s-4.022-.768-5.681,1.043c-1.811,1.984-.622,2.924-.314,5.357,1.243,9.854,0,12.941-1.362,8.433-.146-.492-1.622-.643-2.205-2.735-.768-2.7-1.481-6.038-1.222-8.108a7.815,7.815,0,0,1,2.395-4.616c2.287-2.47,5.919-3.173,8.433-3.373S320.811,70.148,321.357,74.44Z" transform="translate(-261.307 -55.831)" fill="#263238"/><path d="M307.439,101.578a1.492,1.492,0,0,0-1.838-1.13c-.989.276-2.005,1.081-1.562,3.135.795,3.687,4.324,2.135,4.3,2.027S307.785,103.119,307.439,101.578Z" transform="translate(-262.136 -70.563)" fill="#ffbf9d"/><path d="M308.391,105.434a1.308,1.308,0,0,1-.151.135.654.654,0,0,1-.476.108,1.622,1.622,0,0,1-1.022-1.265,2.162,2.162,0,0,1,0-.962.751.751,0,0,1,.373-.595.335.335,0,0,1,.416.1c.07.092.065.168.081.173s.065-.081,0-.227a.427.427,0,0,0-.195-.2.486.486,0,0,0-.373,0,.93.93,0,0,0-.541.714,2.26,2.26,0,0,0,0,1.081,1.714,1.714,0,0,0,1.276,1.395.692.692,0,0,0,.541-.227C308.4,105.547,308.407,105.439,308.391,105.434Z" transform="translate(-263.287 -71.602)" fill="#ff9a6c"/><path d="M303.408,78.815a3.535,3.535,0,0,0,1.7.443,1.227,1.227,0,0,0,1.178-1.081c0-.265-.119-.541,0-.784s.541-.265.859-.286a2.4,2.4,0,0,0,2.135-2.162,1,1,0,0,0,1.346-.114,5.492,5.492,0,0,0,.811-1.265,1.524,1.524,0,0,1,1.151-.865,3.6,3.6,0,0,0,.832.032c.476-.13.611-.746.595-1.243s-.059-1.081.3-1.405a1.925,1.925,0,0,1,1.314-.276c.454,0,1.011-.227,1.049-.686a.908.908,0,0,0-.286-.643,2.416,2.416,0,0,0-2.989-.395,3.276,3.276,0,0,0-6.06.449A3.324,3.324,0,0,0,302.31,70.7a2.465,2.465,0,0,0-2.335,1.3,2.508,2.508,0,0,0,.281,2.67,2.3,2.3,0,0,0-.914,2.038,1.339,1.339,0,0,0,1.708,1.081,1.405,1.405,0,0,0,.832,1.622,1.389,1.389,0,0,0,1.687-.741" transform="translate(-260.023 -54.876)" fill="#263238"/><path d="M302,87.257a.935.935,0,0,0,.362.676,1.205,1.205,0,0,0,.816.308,1.313,1.313,0,0,0,1-.5h-.162a3.708,3.708,0,0,0,.914.8,2.162,2.162,0,0,0,.751.3,1.449,1.449,0,0,0,.751-.065,1.487,1.487,0,0,0,.973-.811,2.205,2.205,0,0,0,.157-.827c0-.2,0-.308-.027-.308a1.134,1.134,0,0,0-.059.3,2.433,2.433,0,0,1-.211.768,1.519,1.519,0,0,1-2.205.459,3.864,3.864,0,0,1-.9-.741l-.087-.1-.076.1a1.141,1.141,0,0,1-.838.443,1.081,1.081,0,0,1-.73-.232A1.822,1.822,0,0,1,302,87.257Z" transform="translate(-261.248 -64.329)" fill="#455a64"/><path d="M312.07,67.747a1.133,1.133,0,0,1,.276.049,1.281,1.281,0,0,1,.665.384l.054.065.038-.081a4.714,4.714,0,0,1,1.524-1.773,3.53,3.53,0,0,1,1.389-.595,2.978,2.978,0,0,1,1.622.162,3.1,3.1,0,0,1,1.081.719,2.578,2.578,0,0,1,.611,1.043l.032.119.108-.054a2.049,2.049,0,0,1,2.568.659,2.7,2.7,0,0,1,.427,1.081.736.736,0,0,0,0-.314,2.071,2.071,0,0,0-.324-.811,2.1,2.1,0,0,0-1.043-.843,2.222,2.222,0,0,0-1.708.07l.135.065a2.665,2.665,0,0,0-.649-1.141,3.27,3.27,0,0,0-2.924-.946,3.81,3.81,0,0,0-1.459.638,4.551,4.551,0,0,0-1.519,1.881h.1a1.308,1.308,0,0,0-.741-.368C312.167,67.71,312.07,67.737,312.07,67.747Z" transform="translate(-265.874 -54.555)" fill="#455a64"/><path d="M323.47,216.411c.514.043,2.27.665,4.551-3.557S332.492,193,332.492,193Z" transform="translate(-271.112 -113.108)" fill="#e0e0e0"/><path d="M327.988,152.1l.259-15.108L325.21,125.43a22.093,22.093,0,0,0-4.443-5.022,14.243,14.243,0,0,0-5.033-2.465l-3.481-.843-.373,2.887,10.1,11.589Z" transform="translate(-265.787 -78.236)" fill="#e0e0e0"/><path d="M292.7,119s8.314.714,12.335,10.762c2.162,5.406,3.476,19.865,3.73,22.125s-.595,7.443-2.135,14.427c-.3,1.357-1.389,4.924-4.351,13.579-3.173,9.254-5.7,16.087-5.7,16.087L269.99,185.71l13.222-23.19s-.7-7.146-.665-7.827c.254-5.314-.778-8.3.978-18.514a25.309,25.309,0,0,1,3.162-8.649c1.676-2.816,2.914-3.66,5.757-5.778Z" transform="translate(-246.541 -79.109)" fill="#263238"/><path d="M305.117,227.046l.7-5.606L293.144,216.3l-2.314,5.357Z" transform="translate(-256.116 -123.814)" fill="#263238"/><path d="M304.974,226.908l-.286-.124-.811-.324-2.989-1.168-10.152-3.887.081.184,1.968-4.535.351-.822-.189.081,12.692,5.092-.059-.1c-.189,1.7-.346,3.092-.454,4.081-.049.47-.086.843-.119,1.13a2.626,2.626,0,0,0-.032.405,2.348,2.348,0,0,0,.065-.362c.043-.276.1-.638.162-1.081.141-1.005.335-2.411.573-4.141v-.076l-.07-.027-12.66-5.184-.1-.049-.054.13c-.114.27-.232.541-.351.816-.681,1.578-1.341,3.108-1.957,4.546l-.059.135.135.049,10.3,3.816,2.978,1.081.789.281a1.375,1.375,0,0,0,.249.054Z" transform="translate(-255.973 -123.676)" fill="#455a64"/><path d="M306.018,210a.806.806,0,0,1-.038.146l-.13.416-.541,1.622c-.47,1.411-1.135,3.416-1.962,5.881l-6.568,19.373-.141.411-.049.141-.135-.054-18.8-7.314-5.67-2.243-1.535-.622-.395-.168-.135-.07.146.043.405.141,1.551.573,5.7,2.162,18.827,7.243-.184.086c.049-.13.092-.27.141-.411,2.595-7.568,4.946-14.379,6.654-19.352.854-2.454,1.551-4.449,2.043-5.854l.595-1.611c.059-.168.113-.3.151-.411S306.013,210,306.018,210Z" transform="translate(-246.509 -120.919)" fill="#455a64"/><path d="M264.41,255.068s3.141-10.233,5.816-10.93,6.211-.805,6.833.941a18.762,18.762,0,0,1,1.027,6.854,40.213,40.213,0,0,1-1.054,6.357l-2.73-.849s2.162-10.389,1.584-12.092-5.087-1.292-5.914.476-3.454,9.892-3.454,9.892Z" transform="translate(-243.977 -136.386)" fill="#455a64"/><path d="M241.155,272.005c.957-4.287,3.195-13.714,4.184-17.838a2.162,2.162,0,0,1,2.519-1.622l25.622,5.049a2.162,2.162,0,0,1,1.714,2.47L272.3,277.87a2.162,2.162,0,0,1-2.535,1.778l-26.892-5.043a2.162,2.162,0,0,1-1.719-2.6Z" transform="translate(-233.269 -140.448)" fill="#455a64"/><path d="M275.554,269.438l-.032.189c-.027.135-.059.33-.108.573-.1.514-.243,1.254-.432,2.211l-1.622,8.168-.13.659a1.265,1.265,0,0,1-.281.649,1.206,1.206,0,0,1-.622.384,1.53,1.53,0,0,1-.735-.032l-2.93-.568-6.487-1.249-7.141-1.389-3.784-.735-1.93-.378-.486-.092a2.3,2.3,0,0,1-.5-.13,1.2,1.2,0,0,1-.681-.805,1.227,1.227,0,0,1,0-.465,2.134,2.134,0,0,1,.086-.427l.178-.838.357-1.659q.349-1.622.692-3.243.692-3.205,1.324-6.168V264h.092c7.281,1.865,13.579,3.195,18.044,4.076,2.238.438,4.016.768,5.233.989l1.405.259.351.07.119.027h-.13l-.362-.054-1.395-.227c-1.222-.205-3-.514-5.238-.941-4.481-.843-10.784-2.162-18.076-4.005l.114-.07c-.416,1.973-.859,4.038-1.314,6.173q-.341,1.622-.692,3.243c-.119.541-.238,1.081-.357,1.66l-.178.832a1.671,1.671,0,0,0-.065.805,1.033,1.033,0,0,0,.568.676,1.955,1.955,0,0,0,.465.113l.487.1,1.93.378,3.784.735,7.146,1.4,6.487,1.27,2.93.578a1.422,1.422,0,0,0,.67.032,1.043,1.043,0,0,0,.541-.33,1.135,1.135,0,0,0,.249-.584c.049-.222.092-.438.135-.649.708-3.427,1.286-6.195,1.681-8.108.205-.957.362-1.7.47-2.216.054-.249.1-.443.124-.584S275.554,269.438,275.554,269.438Z" transform="translate(-236.267 -145.729)" fill="#263238"/><path d="M271.078,282.671a3.014,3.014,0,0,0,.459.027,2.314,2.314,0,0,0,1.227-.4,2.379,2.379,0,0,0,.984-1.746c.157-.805.341-1.719.541-2.73.1-.508.205-1.038.314-1.589a2.292,2.292,0,0,0-.157-1.654,2.162,2.162,0,0,0-1.368-1.081c-.616-.135-1.281-.259-1.946-.395l-8.7-1.741a2.162,2.162,0,0,0-2.022.665,2.076,2.076,0,0,0-.5.957l-.227,1.081-.432,2.162q-.1.541-.211,1.038a8.908,8.908,0,0,0-.173,1.005,2.162,2.162,0,0,0,.7,1.714,2.227,2.227,0,0,0,.789.454c.281.086.6.135.892.2l3.3.676,4.784.995,1.3.281.335.076.114.032h-.119l-.341-.059-1.3-.243-4.795-.935-3.314-.676c-.3-.065-.595-.1-.914-.195a2.286,2.286,0,0,1-.849-.492,2.33,2.33,0,0,1-.773-1.849,9.364,9.364,0,0,1,.178-1.032c.07-.341.135-.686.205-1.038.141-.7.286-1.411.432-2.162.07-.362.146-.73.222-1.081a2.34,2.34,0,0,1,.541-1.043,2.373,2.373,0,0,1,2.205-.73l8.7,1.757c.665.141,1.314.259,1.951.405a2.324,2.324,0,0,1,1.47,1.195,2.449,2.449,0,0,1,.157,1.762c-.113.541-.222,1.081-.324,1.584-.205,1.005-.395,1.919-.541,2.7-.043.2-.081.395-.135.584a2.271,2.271,0,0,1-.238.5,2.2,2.2,0,0,1-.676.7,2.276,2.276,0,0,1-1.27.378A1.739,1.739,0,0,1,271.078,282.671Z" transform="translate(-241.342 -149)" fill="#263238"/><g transform="translate(11.989 131.86)" opacity="0.3"><path d="M248.79,289.14a41.714,41.714,0,0,0,23.465,4.557Z" transform="translate(-248.79 -289.14)"/></g><path d="M275.407,277.271l-3.005-.605a.876.876,0,0,1-.686-1.032h0a.881.881,0,0,1,1.027-.686l3.022.611a.87.87,0,0,1,.686,1.027h0a.87.87,0,0,1-1.043.687Z" transform="translate(-247.326 -150.751)" fill="#e0e0e0"/><path d="M286.847,240.29a9.024,9.024,0,0,1,.962,1.93,25.588,25.588,0,0,1,.065,3.66s-.632.319-1.146-1.378a13.783,13.783,0,0,1-.578-2.508Z" transform="translate(-253.966 -134.836)" fill="#ffbf9d"/><path d="M279.87,242.313l.119-5.357-2.065-3.962-6.552-.124-.232,6.487a19.748,19.748,0,0,0,1.422,3.308c.459.524,1.378.135,1.378.135.492.778,1.854.492,1.854.492.665.795,1.7.049,1.7.049s.908.832,1.324.778a.811.811,0,0,0,.443-.281A2.335,2.335,0,0,0,279.87,242.313Z" transform="translate(-247.069 -131.427)" fill="#ffbf9d"/><path d="M275.367,248.68c.059,0,.216.265.341.638s.184.7.119.719-.216-.27-.341-.643S275.3,248.7,275.367,248.68Z" transform="translate(-248.999 -138.69)" fill="#ff9a6c"/><path d="M278.5,248.53a3.422,3.422,0,0,1,.341.995,3.525,3.525,0,0,1,.254,1.022,1.93,1.93,0,0,1-.481-.951A1.9,1.9,0,0,1,278.5,248.53Z" transform="translate(-250.439 -138.622)" fill="#ff9a6c"/><path d="M282.048,248.85c.07,0,.119.411.216.9s.189.892.124.919-.265-.357-.362-.876A1.519,1.519,0,0,1,282.048,248.85Z" transform="translate(-252.047 -138.769)" fill="#ff9a6c"/><path d="M287.245,243.54a9.158,9.158,0,0,1,.092,2.038,8.871,8.871,0,0,1-.146,2.027,17.422,17.422,0,0,1,.054-4.065Z" transform="translate(-254.401 -136.329)" fill="#ff9a6c"/><path d="M274.214,246.483s0,.1-.141.168a.724.724,0,0,1-.514.081.735.735,0,0,1-.443-.281c-.081-.108-.086-.2-.059-.211a1.894,1.894,0,0,0,.541.259C273.9,246.559,274.177,246.429,274.214,246.483Z" transform="translate(-247.944 -137.569)" fill="#ff9a6c"/><path d="M277.761,247.059a.346.346,0,0,1-.168.162.957.957,0,0,1-.541.054.908.908,0,0,1-.492-.265c-.1-.114-.119-.2-.1-.222a2.983,2.983,0,0,0,.632.254C277.453,247.108,277.728,247,277.761,247.059Z" transform="translate(-249.512 -137.821)" fill="#ff9a6c"/><path d="M284.26,246.557c0-.032.151.141,0,.373a1.167,1.167,0,0,1-.805.384,1.411,1.411,0,0,1-.854-.195c-.189-.124-.265-.249-.243-.27a2.816,2.816,0,0,0,1.081.227,1.287,1.287,0,0,0,.7-.254C284.26,246.7,284.227,246.567,284.26,246.557Z" transform="translate(-252.221 -137.713)" fill="#ff9a6c"/><path d="M297.914,142.3c-2.573,2.7-18.552,18.379-18.552,18.379s-.924,25.352-1.389,25.46-9.649-.643-9.649-.643-1.287-26.876-.216-29.941,14.735-20.984,15.033-21.357,1.865-3.114,7.092-4.46c6.124-1.568,8.7,1.368,9.73,4.378.887,2.595-.805,6.627-1.622,7.708a5.131,5.131,0,0,1-.427.476Z" transform="translate(-245.481 -83.843)" fill="#263238"/><path d="M297.779,142.247s.076-.108.238-.3a4.487,4.487,0,0,0,.595-.93,13.573,13.573,0,0,0,1.3-4.038,6.27,6.27,0,0,0-.195-3.016,7.53,7.53,0,0,0-1.93-3.043,6.136,6.136,0,0,0-1.7-1.081,7.281,7.281,0,0,0-2.081-.492,13.189,13.189,0,0,0-4.627.622,13.33,13.33,0,0,0-4.573,2.341,9.6,9.6,0,0,0-1.832,2.032l-1.746,2.308c-2.341,3.119-4.827,6.487-7.384,10.027-1.27,1.784-2.573,3.622-3.827,5.535a27.878,27.878,0,0,0-1.768,2.968c-.054.135-.124.259-.173.395l-.081.416a4.987,4.987,0,0,0-.124.859l-.076.881-.043.887c-.168,4.762-.032,9.73.1,14.768.124,4.108.281,8.135.459,12.038l-.13-.13,4.935.389,2.422.168,1.195.07.595.027h.416a22.661,22.661,0,0,0,.254-2.308c.049-.778.1-1.546.151-2.314q.13-2.292.249-4.508c.3-5.9.541-11.352.708-16.217v-.076L292.7,147.145l3.724-3.643.973-.946c.222-.211.341-.314.341-.314s-.1.119-.319.335l-.951.968-3.681,3.687-13.514,13.454.032-.076c-.173,4.865-.384,10.308-.67,16.217q-.113,2.211-.238,4.508c-.054.768-.1,1.541-.151,2.319a20.6,20.6,0,0,1-.265,2.368.384.384,0,0,1-.059.119.157.157,0,0,1-.1.059h-.519l-.6-.027-1.2-.07-2.422-.168-4.935-.384h-.124v-.124c-.178-3.908-.335-7.935-.459-12.049-.135-5.06-.27-10-.1-14.784l.043-.892.081-.892a5.622,5.622,0,0,1,.124-.892l.1-.443a4.021,4.021,0,0,1,.178-.416,27.573,27.573,0,0,1,1.789-3.005c1.265-1.924,2.568-3.757,3.843-5.541,2.562-3.562,5.06-6.9,7.411-10.016l1.741-2.292a9.889,9.889,0,0,1,.87-1.081,8.824,8.824,0,0,1,1.005-.957,14.671,14.671,0,0,1,9.352-2.973,7.276,7.276,0,0,1,2.13.541,6.044,6.044,0,0,1,1.735,1.114,7.611,7.611,0,0,1,1.951,3.108,6.335,6.335,0,0,1,.178,3.081,13.27,13.27,0,0,1-1.362,4.049,4.327,4.327,0,0,1-.622.919C297.871,142.156,297.779,142.247,297.779,142.247Z" transform="translate(-245.346 -83.789)" fill="#455a64"/><path d="M327.125,151.484a1.038,1.038,0,0,1-.108-.3c-.07-.227-.157-.541-.265-.881-.232-.8-.541-1.914-.935-3.276-.778-2.816-1.843-6.681-3.038-11.016v-.059l.032-.054c.3-.465.616-.962.941-1.459l.243-.384.108.216-1.789-.168h-.092l-.032-.092a31.433,31.433,0,0,0-1.108-2.973,13.428,13.428,0,0,0-1.395-2.562,6.438,6.438,0,0,0-2.022-1.595c-.714-.405-1.4-.746-2.027-1.043-1.265-.595-2.3-1.027-3.011-1.324l-.816-.341a1.357,1.357,0,0,1-.281-.13,1.081,1.081,0,0,1,.3.081c.195.065.476.162.838.3.724.265,1.773.67,3.049,1.243.638.292,1.33.622,2.06,1.022a6.638,6.638,0,0,1,2.114,1.622,13.049,13.049,0,0,1,1.438,2.6,31.462,31.462,0,0,1,1.135,3l-.124-.1,1.795.162h.227l-.124.195-.243.384-.946,1.46v-.114c1.162,4.351,2.195,8.216,2.946,11.043.357,1.373.643,2.492.854,3.3.086.368.162.665.216.9A1.27,1.27,0,0,1,327.125,151.484Z" transform="translate(-265.626 -81.425)" fill="#455a64"/><path d="M303.928,143.818c-3.135,1.849-5.681,1.838-10.914,1.395-3.627-.308-6.806-1.346-10.443-1.46-5.243-.157-9.189,1.443-13.946,3.605l-3.524,4.162,6.611,2a28.985,28.985,0,0,1,14.476-3.178c8.108.443,15.719-1.768,18.411-3.827l.924-2.562-.351-1.341-1.114-.1Z" transform="translate(-244.294 -89.911)" fill="#f8951d"/><path d="M303.707,143.8v-.335c0-.222.043-.541.081-.957v-.038h.032l1.114.092h.032v.032c.1.389.227.838.362,1.335h0c-.259.751-.568,1.622-.9,2.573h0a11.639,11.639,0,0,1-2.562,1.411,25.69,25.69,0,0,1-3.2,1.114,40.542,40.542,0,0,1-12.433,1.378,29.45,29.45,0,0,0-4.806.151,28.918,28.918,0,0,0-4.968,1.032,26.751,26.751,0,0,0-4.908,1.968h-.108l-3.859-1.07-2.757-.849-.205-.059.135-.162,3.524-4.168h.027a49.608,49.608,0,0,1,7.027-2.7,22.627,22.627,0,0,1,6.854-.881,38.11,38.11,0,0,1,6.141.811,44.232,44.232,0,0,0,5.27.751,39.792,39.792,0,0,0,4.351.184,12.26,12.26,0,0,0,3.211-.476,11.831,11.831,0,0,0,1.9-.757l.465-.243.168-.081a1.017,1.017,0,0,1-.146.1c-.1.059-.259.157-.465.27a10.636,10.636,0,0,1-1.892.811,12.206,12.206,0,0,1-3.243.541,39.308,39.308,0,0,1-4.368-.146,43.039,43.039,0,0,1-5.292-.719,38.822,38.822,0,0,0-6.108-.778,22.34,22.34,0,0,0-6.779.892,50.112,50.112,0,0,0-6.962,2.7l.049-.038-3.519,4.168-.065-.227,2.741.832,3.87,1.168H271.4a26.7,26.7,0,0,1,4.989-2.022,29.389,29.389,0,0,1,5.011-1.032,29.968,29.968,0,0,1,4.865-.141,40.633,40.633,0,0,0,12.357-1.319,26.742,26.742,0,0,0,3.184-1.081,12.093,12.093,0,0,0,2.541-1.368v.032l.941-2.562v.032l-.335-1.341.038.038-1.114-.119h.038l-.113.968C303.745,143.7,303.707,143.8,303.707,143.8Z" transform="translate(-244.074 -89.893)" fill="#263238"/><path d="M305.013,204.116c0,.07-2.416-.719-5.335-1.762a54.224,54.224,0,0,1-5.238-2.027c.027-.07,2.416.719,5.335,1.762a54.235,54.235,0,0,1,5.238,2.027Z" transform="translate(-257.774 -116.472)" fill="#455a64"/></g></g></svg>