<svg xmlns="http://www.w3.org/2000/svg" xmlns:xlink="http://www.w3.org/1999/xlink" width="250" height="202.85" viewBox="0 0 250 202.85">
  <defs>
    <clipPath id="clip-path">
      <rect id="Rectangle_5572" data-name="Rectangle 5572" width="80.602" height="69.156" fill="#fff"/>
    </clipPath>
    <clipPath id="clip-path-2">
      <path id="Path_37343" data-name="Path 37343" d="M193.434,285.64s1.681,7.509,1.585,9.6-4.051,7.707-4.153,6.422a8.763,8.763,0,0,1,.7-3.163s-1.387,1.879-1.879,1.8.4-2.671.4-2.671-1.483,1.483-1.981,1.2,1.086-2.473,1.086-2.473-1.8,1.879-1.873,1.284,1.579-3.061,1.579-3.061a23.852,23.852,0,0,1-1.8-5.042,4.8,4.8,0,0,1,.984-2.863Z" transform="translate(-187.09 -285.64)" fill="#fff" stroke="#263238" stroke-linecap="round" stroke-linejoin="round" stroke-width="1"/>
    </clipPath>
    <clipPath id="clip-path-3">
      <path id="Path_37347" data-name="Path 37347" d="M193.633,285.64s1.2,5.24,1.092,6.722-1.585,5.828-2.671,5.036.69-3.751.69-3.751-3.049-2.143-3.751-4.153-.3-2.863-.3-2.863Z" transform="translate(-188.579 -285.64)" fill="#fff" stroke="#263238" stroke-linecap="round" stroke-linejoin="round" stroke-width="1"/>
    </clipPath>
    <clipPath id="clip-path-4">
      <path id="Path_37356" data-name="Path 37356" d="M147.1,164.512a32.594,32.594,0,0,0-3.835,3.943c-.564,1.014-7.431,10.8-7.545,17.8S140.8,214.42,140.8,214.42L133,234.269l2.257.9,2.251-2.479v3.721s2.593,2.365,9.351,4.616,15.437-.336,15.437-.336l2.587-16.47v16.248l3.043-2.029.246-27.057s2.479-14.531,2.479-18.606-6.872-16.806-9.915-20.5-8.115-6.758-9.6-7.887S147.1,164.512,147.1,164.512Z" transform="translate(-133 -163.916)" fill="#263238" stroke="#263238" stroke-linecap="round" stroke-linejoin="round" stroke-width="1"/>
    </clipPath>
    <clipPath id="clip-path-5">
      <path id="Path_37364" data-name="Path 37364" d="M173.537,128.485s2.737,2.1,3.079,4.129-.678,4.285-.564,5.072,2.137,2.593,2.029,3.493-1.8,1.236-1.8,1.236-1.837,6.686-2.287,7.8-2.707.786-4.394.564l-3.043,9L156.521,147.98l1.579-4.736s-4.279-5.18-4.622-10.7,4.057-9.351,10.366-10.138,11.608,2.251,12.28,3.493S173.537,128.485,173.537,128.485Z" transform="translate(-153.459 -122.276)" fill="#fff" stroke="#263238" stroke-linecap="round" stroke-linejoin="round" stroke-width="1"/>
    </clipPath>
    <clipPath id="clip-path-6">
      <path id="Path_37374" data-name="Path 37374" d="M216.76,237.441s3.841-2.161,4.442-2.161,4.081,3.121,4.081,3.121l-1.44,2.161s4.562,2.281,4.081,3.121a6.42,6.42,0,0,1-4.2,2.4c-1.921.24-7.323-3.241-7.323-3.241Z" transform="translate(-216.4 -235.28)" fill="#fff" stroke="#263238" stroke-linecap="round" stroke-linejoin="round" stroke-width="1"/>
    </clipPath>
    <clipPath id="clip-path-7">
      <path id="Path_37379" data-name="Path 37379" d="M145.166,181.48s-3.241,6.242-3.6,9.363,12.844,27.97,13.8,28.81,29.044,1.681,29.044,1.681l1.2-6.122-24.008-6.842-8.163-25.089" transform="translate(-141.558 -181.48)" fill="#263238" stroke="#263238" stroke-linecap="round" stroke-linejoin="round" stroke-width="1"/>
    </clipPath>
    <clipPath id="clip-path-8">
      <path id="Path_37400" data-name="Path 37400" d="M299.767,174.1a22.291,22.291,0,0,0-2-3.157,12,12,0,0,0-2.965-2.2c-3.817-1.507-8.811.678-11.71,3.439a98.789,98.789,0,0,0-4.844,13.4,59.182,59.182,0,0,0-1.338,13.589s5.072-6.506,11.956-14.159a91.288,91.288,0,0,1,11.224-10.546Z" transform="translate(-276.897 -168.251)" fill="#263238" stroke="#263238" stroke-linecap="round" stroke-linejoin="round" stroke-width="1"/>
    </clipPath>
    <clipPath id="clip-path-9">
      <path id="Path_37411" data-name="Path 37411" d="M271.772,131.712s-2.3,6.53-2.083,7.467.432,2.365.432,2.365-3.6,4.448-3.157,4.952a8.188,8.188,0,0,0,2.437,1.074s1.651,6.89,2.3,7.533,4.664-.786,4.664-.786l4.3,5.45,8.823-8.463-1.074-4.448s4.664-8.181,4.592-12.058-8.031-9.039-13.7-8.967-10.978,2.155-9.9,3.661a8.127,8.127,0,0,0,2.371,2.221Z" transform="translate(-266.927 -125.829)" fill="#fff" stroke="#263238" stroke-linecap="round" stroke-linejoin="round" stroke-width="1"/>
    </clipPath>
  </defs>
  <g id="collaboration" transform="translate(-44.918 -100)">
    <g id="freepik--Window--inject-6" transform="translate(178.628 100.348)">
      <path id="Path_37300" data-name="Path 37300" d="M311.037,106.9H267.69l.438-6.32h43.347Z" transform="translate(-267.69 -100.58)" fill="#ccc"/>
      <path id="Path_37301" data-name="Path 37301" d="M311.037,121.65H267.69l.438-6.32h43.347Z" transform="translate(-267.69 -106.477)" fill="#ccc"/>
      <path id="Path_37302" data-name="Path 37302" d="M311.037,136.406H267.69l.438-6.326h43.347Z" transform="translate(-267.69 -112.374)" fill="#ccc"/>
      <path id="Path_37303" data-name="Path 37303" d="M311.037,151.156H267.69l.438-6.326h43.347Z" transform="translate(-267.69 -118.271)" fill="#ccc"/>
      <path id="Path_37304" data-name="Path 37304" d="M311.037,165.906H267.69l.438-6.326h43.347Z" transform="translate(-267.69 -124.168)" fill="#ccc"/>
      <path id="Path_37305" data-name="Path 37305" d="M311.037,180.66H267.69l.438-6.32h43.347Z" transform="translate(-267.69 -130.069)" fill="#ccc"/>
      <path id="Path_37306" data-name="Path 37306" d="M311.037,195.41H267.69l.438-6.32h43.347Z" transform="translate(-267.69 -135.966)" fill="#ccc"/>
      <path id="Path_37307" data-name="Path 37307" d="M311.037,210.166H267.69l.438-6.326h43.347Z" transform="translate(-267.69 -141.862)" fill="#ccc"/>
      <path id="Path_37308" data-name="Path 37308" d="M311.037,224.916H267.69l.438-6.326h43.347Z" transform="translate(-267.69 -147.759)" fill="#ccc"/>
      <path id="Path_37309" data-name="Path 37309" d="M311.037,239.666H267.69l.438-6.326h43.347Z" transform="translate(-267.69 -153.656)" fill="#ccc"/>
      <path id="Path_37310" data-name="Path 37310" d="M311.037,254.416H267.69l.438-6.326h43.347Z" transform="translate(-267.69 -159.553)" fill="#ccc"/>
      <path id="Path_37311" data-name="Path 37311" d="M387.4,106.9H344.05l.438-6.32h43.353Z" transform="translate(-298.218 -100.58)" fill="#ccc"/>
      <path id="Path_37312" data-name="Path 37312" d="M387.4,121.65H344.05l.438-6.32h43.353Z" transform="translate(-298.218 -106.477)" fill="#ccc"/>
      <path id="Path_37313" data-name="Path 37313" d="M387.4,136.406H344.05l.438-6.326h43.353Z" transform="translate(-298.218 -112.374)" fill="#ccc"/>
      <path id="Path_37314" data-name="Path 37314" d="M387.4,151.156H344.05l.438-6.326h43.353Z" transform="translate(-298.218 -118.271)" fill="#ccc"/>
      <path id="Path_37315" data-name="Path 37315" d="M387.4,165.906H344.05l.438-6.326h43.353Z" transform="translate(-298.218 -124.168)" fill="#ccc"/>
      <path id="Path_37316" data-name="Path 37316" d="M387.4,180.66H344.05l.438-6.32h43.353Z" transform="translate(-298.218 -130.069)" fill="#ccc"/>
      <path id="Path_37317" data-name="Path 37317" d="M387.4,195.41H344.05l.438-6.32h43.353Z" transform="translate(-298.218 -135.966)" fill="#ccc"/>
      <path id="Path_37318" data-name="Path 37318" d="M387.4,210.166H344.05l.438-6.326h43.353Z" transform="translate(-298.218 -141.862)" fill="#ccc"/>
      <path id="Path_37319" data-name="Path 37319" d="M387.4,224.916H344.05l.438-6.326h43.353Z" transform="translate(-298.218 -147.759)" fill="#ccc"/>
      <path id="Path_37320" data-name="Path 37320" d="M387.4,239.666H344.05l.438-6.326h43.353Z" transform="translate(-298.218 -153.656)" fill="#ccc"/>
      <path id="Path_37321" data-name="Path 37321" d="M387.4,254.416H344.05l.438-6.326h43.353Z" transform="translate(-298.218 -159.553)" fill="#ccc"/>
    </g>
    <g id="freepik--Picture--inject-6" transform="translate(82.985 100)">
      <rect id="Rectangle_5570" data-name="Rectangle 5570" width="89.563" height="76.839" fill="#f8951d"/>
      <rect id="Rectangle_5571" data-name="Rectangle 5571" width="80.602" height="69.156" transform="translate(4.478 3.841)" fill="#fff"/>
      <g id="Group_8802" data-name="Group 8802" transform="translate(4.478 3.841)" clip-path="url(#clip-path)">
        <path id="Path_37322" data-name="Path 37322" d="M196.4,141.33c-14.5,10.312-35.256,17.154-59.343,27.9A99.215,99.215,0,0,0,115.8,181.946v7.581h80.6Z" transform="translate(-115.8 -120.365)" fill="#f8951d"/>
        <path id="Path_37323" data-name="Path 37323" d="M213.148,106.4H180.8c-3.6,3.079-7.857,6.518-12.886,10.2-18.408,13.5-10.432,27.009,11.662,17.178,11.338-5.036,23.96-16.7,33.57-26.859Z" transform="translate(-132.546 -106.4)" fill="#f8951d"/>
        <path id="Path_37324" data-name="Path 37324" d="M129.745,117.583c0-5.636-7.016-1.2-13.895,4.466V136.28C122.542,129.714,129.745,122.625,129.745,117.583Z" transform="translate(-115.82 -109.829)" fill="#f8951d"/>
        <path id="Path_37325" data-name="Path 37325" d="M141.612,152.346a6.446,6.446,0,1,1-6.446-6.446A6.446,6.446,0,0,1,141.612,152.346Z" transform="translate(-120.965 -122.192)" fill="#f8951d"/>
        <path id="Path_37326" data-name="Path 37326" d="M196.4,141.33c-14.5,10.312-35.256,17.154-59.343,27.9A99.215,99.215,0,0,0,115.8,181.946v7.581h80.6Z" transform="translate(-115.8 -120.365)" fill="#fff" opacity="0.75"/>
        <path id="Path_37327" data-name="Path 37327" d="M213.148,106.4H180.8c-3.6,3.079-7.857,6.518-12.886,10.2-18.408,13.5-10.432,27.009,11.662,17.178,11.338-5.036,23.96-16.7,33.57-26.859Z" transform="translate(-132.546 -106.4)" fill="#fff" opacity="0.75"/>
        <g id="Group_8801" data-name="Group 8801" transform="translate(0.03 5.147)" opacity="0.75">
          <path id="Path_37328" data-name="Path 37328" d="M129.745,117.583c0-5.636-7.016-1.2-13.895,4.466V136.28C122.542,129.714,129.745,122.625,129.745,117.583Z" transform="translate(-115.85 -114.976)" fill="#fff"/>
        </g>
        <path id="Path_37329" data-name="Path 37329" d="M141.612,152.346a6.446,6.446,0,1,1-6.446-6.446A6.446,6.446,0,0,1,141.612,152.346Z" transform="translate(-120.965 -122.192)" fill="#fff" opacity="0.75"/>
      </g>
      <path id="Path_37330" data-name="Path 37330" d="M215.43,185.165a8.595,8.595,0,1,1-8.589-8.595,8.6,8.6,0,0,1,8.589,8.595Z" transform="translate(-144.281 -130.612)" fill="#fff"/>
    </g>
    <g id="freepik--Plants--inject-6" transform="translate(238.18 210.672)">
      <path id="Path_37331" data-name="Path 37331" d="M404.021,332.1a13.517,13.517,0,0,0-3.049,6.338l-6.116,3.427V325.66l.12.162,9.741-7.13a17.206,17.206,0,0,0,10.27-1.591c5.006-2.695,8.661-11.926,8.661-11.926s-11.932-1.35-15.971,3.655a13.865,13.865,0,0,0-3.313,9.327l-9.507,6.956V313.14a13.241,13.241,0,0,0,7.245-8.745c1.729-6.734-7.5-20-7.5-20s-9.6,13.661-7.7,20.587a11.55,11.55,0,0,0,7.317,8.157v25.959l-6.842-5.72a12.893,12.893,0,0,0-3.529-9.933c-4.622-5.2-16.932-4.8-16.932-4.8s5.192,10.39,9.6,13.853c3.865,3,9.2,1.8,10.486,1.435l7.2,6v7.893H383.488l4.376,27.346H400.99l4.388-27.34H394.856V342.6l6.722-3.769a15.217,15.217,0,0,0,10.522-.768c5.4-2.695,9.813-8.469,9.813-8.469S409.027,326.327,404.021,332.1Z" transform="translate(-366.91 -284.39)" fill="#f8951d"/>
      <path id="Path_37332" data-name="Path 37332" d="M404.021,332.1a13.517,13.517,0,0,0-3.049,6.338l-6.116,3.427V325.66l.12.162,9.741-7.13a17.206,17.206,0,0,0,10.27-1.591c5.006-2.695,8.661-11.926,8.661-11.926s-11.932-1.35-15.971,3.655a13.865,13.865,0,0,0-3.313,9.327l-9.507,6.956V313.14a13.241,13.241,0,0,0,7.245-8.745c1.729-6.734-7.5-20-7.5-20s-9.6,13.661-7.7,20.587a11.55,11.55,0,0,0,7.317,8.157v25.959l-6.842-5.72a12.893,12.893,0,0,0-3.529-9.933c-4.622-5.2-16.932-4.8-16.932-4.8s5.192,10.39,9.6,13.853c3.865,3,9.2,1.8,10.486,1.435l7.2,6v7.893H383.488l4.376,27.346H400.99l4.388-27.34H394.856V342.6l6.722-3.769a15.217,15.217,0,0,0,10.522-.768c5.4-2.695,9.813-8.469,9.813-8.469S409.027,326.327,404.021,332.1Z" transform="translate(-366.91 -284.39)" fill="#fff" opacity="0.5"/>
    </g>
    <g id="freepik--Desk--inject-6" transform="translate(44.918 175.75)">
      <path id="Path_37333" data-name="Path 37333" d="M386.6,226.221l-17.664.15s-1.2-.15-1.459.726c0,0-3.067,7.743-3.211,10.516s.6,2.335-.6,6-4.526,12.262-6.422,19.273c-2.551,9.417-3.217,19.417-3.379,29.14,0,1.561-.96,15.005,1.471,15.005,2.017,0,20.605,2.467,20.827-1.116.894-14.285-1.687-28.24,3.271-42.129,1.927-5.4,4.135-11.092,5.774-16.734s1.921-11.512,3-17.286C388.936,225.782,386.6,226.221,386.6,226.221Z" transform="translate(-168.358 -226.206)" fill="#263238"/>
      <path id="Path_37334" data-name="Path 37334" d="M395.374,227.973c-.174-2.041-1.735-1.753-1.735-1.753l-17.664.15s-1.2-.15-1.459.726c0,0-3.067,7.743-3.211,10.516a12.73,12.73,0,0,0,.06,2.2l.372.6s.6,5.108,7.593,5.4,10.954-2.923,12.412-6,2.047-8.031,3.211-10.954a9.7,9.7,0,0,1,.42-.882Z" transform="translate(-175.396 -226.206)" fill="#f8951d"/>
      <path id="Path_37335" data-name="Path 37335" d="M398.039,233.741c-1.2,4.267-.474,5.45-1.657,12.8s-5.45,15.605-7.112,23.222-.942,34.356-.708,35.544a10.273,10.273,0,0,1,.1,1.9c.8-.3,1.278-.708,1.314-1.266.894-14.285-1.687-28.24,3.271-42.129,1.927-5.4,4.135-11.092,5.774-16.734s1.921-11.512,3-17.286c.45-2.4-.258-3.187-.876-3.421h0a31.81,31.81,0,0,0-3.109,7.371Z" transform="translate(-182.161 -226.272)" fill="#f8951d"/>
      <path id="Path_37336" data-name="Path 37336" d="M331.009,400.285l-.12-.1V383.7h2.371V373.27H324.5V383.7h2.365v16.776l-20.971,6.686v1.657a1.9,1.9,0,0,0,3.793,0v-.234l17.538-2.041v2.515a1.657,1.657,0,1,0,3.313,0v-2.6l18.246,2.125v.234a1.9,1.9,0,0,0,3.793,0v-1.657Z" transform="translate(-149.252 -285.001)" fill="#263238"/>
      <rect id="Rectangle_5573" data-name="Rectangle 5573" width="56.882" height="12.094" rx="4" transform="translate(152.28 78.101)" fill="#263238"/>
      <path id="Path_37337" data-name="Path 37337" d="M46.686,226.221l17.664.15s1.2-.15,1.465.726c0,0,3.067,7.743,3.211,10.516s-.6,2.335.6,6,4.526,12.262,6.422,19.273c2.557,9.417,3.217,19.417,3.379,29.14,0,1.561.96,15.005-1.471,15.005-2.011,0-20.6,2.467-20.827-1.116-.888-14.285,1.687-28.24-3.271-42.129-1.927-5.4-4.135-11.092-5.768-16.734s-1.921-11.512-3-17.286C44.382,225.782,46.686,226.221,46.686,226.221Z" transform="translate(-44.933 -226.206)" fill="#263238"/>
      <path id="Path_37338" data-name="Path 37338" d="M45,227.973c.174-2.041,1.729-1.753,1.729-1.753l17.664.15s1.2-.15,1.465.726c0,0,3.067,7.743,3.211,10.516a13.206,13.206,0,0,1-.066,2.2l-.372.6s-.6,5.108-7.593,5.4S50.066,242.888,48.6,239.8s-2.041-8.031-3.211-10.954a8.248,8.248,0,0,0-.39-.876Z" transform="translate(-44.951 -226.206)" fill="#f8951d"/>
      <path id="Path_37339" data-name="Path 37339" d="M49.037,233.741c1.2,4.267.474,5.45,1.657,12.8s5.456,15.605,7.112,23.222.966,34.356.708,35.544a10.8,10.8,0,0,0-.1,1.9c-.792-.3-1.278-.708-1.314-1.266-.888-14.285,1.687-28.24-3.271-42.129-1.927-5.4-4.135-11.092-5.768-16.734s-1.921-11.512-3-17.286c-.444-2.4.264-3.187.876-3.421h0A31.512,31.512,0,0,1,49.037,233.741Z" transform="translate(-44.918 -226.272)" fill="#f8951d"/>
      <path id="Path_37340" data-name="Path 37340" d="M94.259,400.285l.12-.1V383.7h-2.4V373.27h8.769V383.7H98.377v16.776l20.971,6.686v1.657a1.9,1.9,0,1,1-3.793,0v-.234L98.083,406.54v2.515a1.663,1.663,0,0,1-3.319,0v-2.6L76.475,408.58v.234a1.9,1.9,0,1,1-3.787,0v-1.657Z" transform="translate(-56.019 -285.001)" fill="#263238"/>
      <rect id="Rectangle_5574" data-name="Rectangle 5574" width="56.882" height="12.094" rx="4" transform="translate(67.717 90.19) rotate(180)" fill="#263238"/>
      <rect id="Rectangle_5575" data-name="Rectangle 5575" width="142.61" height="81.965" transform="translate(53.708 44.136)" fill="#ccc"/>
      <rect id="Rectangle_5576" data-name="Rectangle 5576" width="142.43" height="2.269" transform="translate(53.78 46.104)" fill="#263238"/>
      <rect id="Rectangle_5577" data-name="Rectangle 5577" width="146.841" height="3.583" transform="translate(50.533 42.791)" fill="#ccc"/>
    </g>
    <g id="freepik--Characters--inject-6" transform="translate(97.786 113.369)">
      <path id="Path_37341" data-name="Path 37341" d="M193.434,285.64s1.681,7.509,1.585,9.6-4.051,7.707-4.153,6.422a8.763,8.763,0,0,1,.7-3.163s-1.387,1.879-1.879,1.8.4-2.671.4-2.671-1.483,1.483-1.981,1.2,1.086-2.473,1.086-2.473-1.8,1.879-1.873,1.284,1.579-3.061,1.579-3.061a23.852,23.852,0,0,1-1.8-5.042,4.8,4.8,0,0,1,.984-2.863Z" transform="translate(-154.625 -187.586)" fill="#fff"/>
      <g id="Group_8803" data-name="Group 8803" transform="translate(32.465 98.054)" clip-path="url(#clip-path-2)">
        <path id="Path_37342" data-name="Path 37342" d="M193.434,285.64s1.681,7.509,1.585,9.6-4.051,7.707-4.153,6.422a8.763,8.763,0,0,1,.7-3.163s-1.387,1.879-1.879,1.8.4-2.671.4-2.671-1.483,1.483-1.981,1.2,1.086-2.473,1.086-2.473-1.8,1.879-1.873,1.284,1.579-3.061,1.579-3.061a23.852,23.852,0,0,1-1.8-5.042,4.8,4.8,0,0,1,.984-2.863Z" transform="translate(-187.09 -285.64)" fill="#d9d9d9"/>
      </g>
      <path id="Path_37344" data-name="Path 37344" d="M193.434,285.64s1.681,7.509,1.585,9.6-4.051,7.707-4.153,6.422a8.763,8.763,0,0,1,.7-3.163s-1.387,1.879-1.879,1.8.4-2.671.4-2.671-1.483,1.483-1.981,1.2,1.086-2.473,1.086-2.473-1.8,1.879-1.873,1.284,1.579-3.061,1.579-3.061a23.852,23.852,0,0,1-1.8-5.042,4.8,4.8,0,0,1,.984-2.863Z" transform="translate(-154.625 -187.586)" fill="none" stroke="#263238" stroke-linecap="round" stroke-linejoin="round" stroke-width="1"/>
      <path id="Path_37345" data-name="Path 37345" d="M193.633,285.64s1.2,5.24,1.092,6.722-1.585,5.828-2.671,5.036.69-3.751.69-3.751-3.049-2.143-3.751-4.153-.3-2.863-.3-2.863Z" transform="translate(-155.22 -187.586)" fill="#fff"/>
      <g id="Group_8804" data-name="Group 8804" transform="translate(33.359 98.054)" clip-path="url(#clip-path-3)">
        <path id="Path_37346" data-name="Path 37346" d="M193.633,285.64s1.2,5.24,1.092,6.722-1.585,5.828-2.671,5.036.69-3.751.69-3.751-3.049-2.143-3.751-4.153-.3-2.863-.3-2.863Z" transform="translate(-188.579 -285.64)" fill="#d9d9d9"/>
      </g>
      <path id="Path_37348" data-name="Path 37348" d="M193.633,285.64s1.2,5.24,1.092,6.722-1.585,5.828-2.671,5.036.69-3.751.69-3.751-3.049-2.143-3.751-4.153-.3-2.863-.3-2.863Z" transform="translate(-155.22 -187.586)" fill="none" stroke="#263238" stroke-linecap="round" stroke-linejoin="round" stroke-width="1"/>
      <path id="Path_37349" data-name="Path 37349" d="M185.873,244.73l4.207,25.059-5.93,1.338-5.93-19.321Z" transform="translate(-151.079 -171.231)" fill="#263238" stroke="#263238" stroke-linecap="round" stroke-linejoin="round" stroke-width="1"/>
      <path id="Path_37350" data-name="Path 37350" d="M168.049,260.536s.384,29.842.954,37.879-1.531,18.75-3.439,21.812-10.336,22.208-9.951,23.342,2.107,4.592,2.107,5.546v4.015s9.561,6.314,10.33,6.314,1.723,1.531-.192,2.683-23.342,1.146-24.3.378a4.634,4.634,0,0,1-1.338-2.1s-3.061,1.146-2.869-1.723,3.631-15.113,3.631-15.113-2.1-13.4-1.338-22,3.445-18.943,3.445-21.043-2.677-16.074-3.061-18.366-5.93-8.805-3.445-13.967,4.4-13.4,5.168-13.967,11.1-.96,15.305,0S167.857,255.176,168.049,260.536Z" transform="translate(-134.978 -174.793)" fill="#263238" stroke="#263238" stroke-linecap="round" stroke-linejoin="round" stroke-width="1"/>
      <path id="Path_37351" data-name="Path 37351" d="M147.1,164.512a32.594,32.594,0,0,0-3.835,3.943c-.564,1.014-7.431,10.8-7.545,17.8S140.8,214.42,140.8,214.42L133,234.269l2.257.9,2.251-2.479v3.721s2.593,2.365,9.351,4.616,15.437-.336,15.437-.336l2.587-16.47v16.248l3.043-2.029.246-27.057s2.479-14.531,2.479-18.606-6.872-16.806-9.915-20.5-8.115-6.758-9.6-7.887S147.1,164.512,147.1,164.512Z" transform="translate(-133 -138.922)" fill="#263238"/>
      <g id="Group_8805" data-name="Group 8805" transform="translate(0 24.994)" clip-path="url(#clip-path-4)">
        <path id="Path_37352" data-name="Path 37352" d="M147.1,164.512a32.594,32.594,0,0,0-3.835,3.943c-.564,1.014-7.431,10.8-7.545,17.8S140.8,214.42,140.8,214.42L133,234.269l2.257.9,2.251-2.479v3.721s2.593,2.365,9.351,4.616,15.437-.336,15.437-.336l2.587-16.47v16.248l3.043-2.029.246-27.057s2.479-14.531,2.479-18.606-6.872-16.806-9.915-20.5-8.115-6.758-9.6-7.887S147.1,164.512,147.1,164.512Z" transform="translate(-133 -163.916)" fill="#fff" opacity="0.17"/>
        <path id="Path_37353" data-name="Path 37353" d="M140.46,204.88a40.391,40.391,0,0,0,6.818,3.919" transform="translate(-135.982 -180.293)" fill="none" stroke="#263238" stroke-linecap="round" stroke-linejoin="round" stroke-width="1"/>
        <path id="Path_37354" data-name="Path 37354" d="M142.45,210a39.034,39.034,0,0,0,6.986,1.2" transform="translate(-136.778 -182.34)" fill="none" stroke="#263238" stroke-linecap="round" stroke-linejoin="round" stroke-width="1"/>
        <path id="Path_37355" data-name="Path 37355" d="M153.53,255.42l12.953,1.537-.852,2.725L153.7,258.319" transform="translate(-141.208 -200.498)" fill="none" stroke="#263238" stroke-linecap="round" stroke-linejoin="round" stroke-width="1"/>
      </g>
      <path id="Path_37357" data-name="Path 37357" d="M147.1,164.512a32.594,32.594,0,0,0-3.835,3.943c-.564,1.014-7.431,10.8-7.545,17.8S140.8,214.42,140.8,214.42L133,234.269l2.257.9,2.251-2.479v3.721s2.593,2.365,9.351,4.616,15.437-.336,15.437-.336l2.587-16.47v16.248l3.043-2.029.246-27.057s2.479-14.531,2.479-18.606-6.872-16.806-9.915-20.5-8.115-6.758-9.6-7.887S147.1,164.512,147.1,164.512Z" transform="translate(-133 -138.922)" fill="none" stroke="#263238" stroke-linecap="round" stroke-linejoin="round" stroke-width="1"/>
      <path id="Path_37358" data-name="Path 37358" d="M155.37,166l12.508,13.523L175.2,193.5s-1.579-10.366-2.929-13.2-7.437-9.873-8.121-11.452S155.37,166,155.37,166Z" transform="translate(-141.943 -139.755)" fill="#fff" stroke="#263238" stroke-linecap="round" stroke-linejoin="round" stroke-width="1"/>
      <path id="Path_37359" data-name="Path 37359" d="M179.522,192.986l3.463,6.6s-1.074-7.064-2.215-11.116l-.714-2.071a37.507,37.507,0,0,0-3.253-4.8l-1.963-.39.822,4.418L178.2,187.7Z" transform="translate(-149.727 -145.836)" fill="#263238" stroke="#263238" stroke-linecap="round" stroke-linejoin="round" stroke-width="1"/>
      <path id="Path_37360" data-name="Path 37360" d="M176.192,174.49l.648.75,2.035,2.4,1.2,6.1-5.216-5.2A17.634,17.634,0,0,1,176.192,174.49Z" transform="translate(-149.735 -143.15)" fill="#fff" stroke="#263238" stroke-linecap="round" stroke-linejoin="round" stroke-width="1"/>
      <path id="Path_37361" data-name="Path 37361" d="M173.537,128.485s2.737,2.1,3.079,4.129-.678,4.285-.564,5.072,2.137,2.593,2.029,3.493-1.8,1.236-1.8,1.236-1.837,6.686-2.287,7.8-2.707.786-4.394.564l-3.043,9L156.521,147.98l1.579-4.736s-4.279-5.18-4.622-10.7,4.057-9.351,10.366-10.138,11.608,2.251,12.28,3.493S173.537,128.485,173.537,128.485Z" transform="translate(-141.179 -122.275)" fill="#fff"/>
      <g id="Group_8806" data-name="Group 8806" transform="translate(12.28 0.001)" clip-path="url(#clip-path-5)">
        <path id="Path_37362" data-name="Path 37362" d="M173.537,128.485s2.737,2.1,3.079,4.129-.678,4.285-.564,5.072,2.137,2.593,2.029,3.493-1.8,1.236-1.8,1.236-1.837,6.686-2.287,7.8-2.707.786-4.394.564l-3.043,9L156.521,147.98l1.579-4.736s-4.279-5.18-4.622-10.7,4.057-9.351,10.366-10.138,11.608,2.251,12.28,3.493S173.537,128.485,173.537,128.485Z" transform="translate(-153.459 -122.276)" fill="#d9d9d9"/>
        <path id="Path_37363" data-name="Path 37363" d="M161.829,156.458c1.693-.342,4.532-.93,7.088-1.507l.66-1.957c1.4.186,3.205.45,4.021-.12-1.921-.792-6.674-2.179-7.647-3.961-1.2-2.215,3-8.661,3-11.884s-4.027-6.848-4.027-6.848c-1.939-1.843-5.474-2.4-8.613-2.4a8.451,8.451,0,0,0-2.869,6.992c.342,5.522,4.622,10.7,4.622,10.7l-1.579,4.736Z" transform="translate(-153.444 -124.477)" fill="#b8b8b8"/>
      </g>
      <path id="Path_37365" data-name="Path 37365" d="M173.537,128.485s2.737,2.1,3.079,4.129-.678,4.285-.564,5.072,2.137,2.593,2.029,3.493-1.8,1.236-1.8,1.236-1.837,6.686-2.287,7.8-2.707.786-4.394.564l-3.043,9L156.521,147.98l1.579-4.736s-4.279-5.18-4.622-10.7,4.057-9.351,10.366-10.138,11.608,2.251,12.28,3.493S173.537,128.485,173.537,128.485Z" transform="translate(-141.179 -122.275)" fill="none" stroke="#263238" stroke-linecap="round" stroke-linejoin="round" stroke-width="1"/>
      <path id="Path_37366" data-name="Path 37366" d="M173.537,128.484s3.265-1.35,2.587-2.587-5.972-4.285-12.28-3.493-10.7,4.616-10.366,10.138,4.622,10.7,4.622,10.7l-.24.72c2.335,1.14,4.748-.72,4.748-.72a2.323,2.323,0,0,1-2.707-.45c-1.35-1.236-1.465-5.18.228-5.522s2.815.342,2.815,1.579.336.45,1.242.336.108-2.815.672-3.265a8.817,8.817,0,0,0,2.365-2.143c1.014-1.35-1.915-2.473-2.251-3.715S173.537,128.484,173.537,128.484Z" transform="translate(-141.18 -122.274)" fill="#263238" stroke="#263238" stroke-linecap="round" stroke-linejoin="round" stroke-width="1"/>
      <path id="Path_37367" data-name="Path 37367" d="M186.859,147.28l-2.089.7h1.891" transform="translate(-153.697 -132.271)" fill="none" stroke="#263238" stroke-linecap="round" stroke-linejoin="round" stroke-width="1"/>
      <path id="Path_37368" data-name="Path 37368" d="M187.593,143.232s-.894-1.29-1.891-.7-1.092,1-1.092,1" transform="translate(-153.633 -130.312)" fill="none" stroke="#263238" stroke-linecap="round" stroke-linejoin="round" stroke-width="1"/>
      <path id="Path_37369" data-name="Path 37369" d="M186,158.88a2.935,2.935,0,0,0,2.089.48" transform="translate(-154.189 -136.909)" fill="none" stroke="#263238" stroke-linecap="round" stroke-linejoin="round" stroke-width="1"/>
      <path id="Path_37370" data-name="Path 37370" d="M156.535,161.53l12.616,12.394-1.122,5.294L154.62,164.8Z" transform="translate(-141.643 -137.968)" fill="#fff" stroke="#263238" stroke-linecap="round" stroke-linejoin="round" stroke-width="1"/>
      <path id="Path_37371" data-name="Path 37371" d="M230.309,238.871s-4.442-2.641-5.162-2.4-7.683,5.282-7.2,6.482,4.2,2.761,6.362,3.6,6.6-.96,6.6-.96Z" transform="translate(-166.95 -167.922)" fill="#fff" stroke="#263238" stroke-linecap="round" stroke-linejoin="round" stroke-width="1"/>
      <path id="Path_37372" data-name="Path 37372" d="M216.76,237.441s3.841-2.161,4.442-2.161,4.081,3.121,4.081,3.121l-1.44,2.161s4.562,2.281,4.081,3.121a6.42,6.42,0,0,1-4.2,2.4c-1.921.24-7.323-3.241-7.323-3.241Z" transform="translate(-166.343 -167.453)" fill="#fff"/>
      <g id="Group_8807" data-name="Group 8807" transform="translate(50.057 67.827)" clip-path="url(#clip-path-6)">
        <path id="Path_37373" data-name="Path 37373" d="M216.76,237.441s3.841-2.161,4.442-2.161,4.081,3.121,4.081,3.121l-1.44,2.161s4.562,2.281,4.081,3.121a6.42,6.42,0,0,1-4.2,2.4c-1.921.24-7.323-3.241-7.323-3.241Z" transform="translate(-216.4 -235.28)" fill="#d9d9d9"/>
      </g>
      <path id="Path_37375" data-name="Path 37375" d="M216.76,237.441s3.841-2.161,4.442-2.161,4.081,3.121,4.081,3.121l-1.44,2.161s4.562,2.281,4.081,3.121a6.42,6.42,0,0,1-4.2,2.4c-1.921.24-7.323-3.241-7.323-3.241Z" transform="translate(-166.343 -167.453)" fill="none" stroke="#263238" stroke-linecap="round" stroke-linejoin="round" stroke-width="1"/>
      <path id="Path_37376" data-name="Path 37376" d="M212.16,237.28l3.361.6-1.08,5.762-2.881-.96Z" transform="translate(-164.408 -168.252)" fill="#fff" stroke="#263238" stroke-linecap="round" stroke-linejoin="round" stroke-width="1"/>
      <path id="Path_37377" data-name="Path 37377" d="M145.166,181.48s-3.241,6.242-3.6,9.363,12.844,27.97,13.8,28.81,29.044,1.681,29.044,1.681l1.2-6.122-24.008-6.842-8.163-25.089" transform="translate(-136.421 -145.944)" fill="#263238"/>
      <g id="Group_8808" data-name="Group 8808" transform="translate(5.137 35.536)" clip-path="url(#clip-path-7)">
        <path id="Path_37378" data-name="Path 37378" d="M145.166,181.48s-3.241,6.242-3.6,9.363,12.844,27.97,13.8,28.81,29.044,1.681,29.044,1.681l1.2-6.122-24.008-6.842-8.163-25.089" transform="translate(-141.558 -181.48)" fill="#fff" opacity="0.17"/>
      </g>
      <path id="Path_37380" data-name="Path 37380" d="M145.166,181.48s-3.241,6.242-3.6,9.363,12.844,27.97,13.8,28.81,29.044,1.681,29.044,1.681l1.2-6.122-24.008-6.842-8.163-25.089" transform="translate(-136.421 -145.944)" fill="none" stroke="#263238" stroke-linecap="round" stroke-linejoin="round" stroke-width="1"/>
      <path id="Path_37381" data-name="Path 37381" d="M227.994,237.1s-1.681-1.44-2.281.24-4.322,5.762-2.641,5.882,4.8-3.361,4.8-3.361" transform="translate(-168.837 -167.95)" fill="#fff" stroke="#263238" stroke-linecap="round" stroke-linejoin="round" stroke-width="1"/>
      <path id="Path_37382" data-name="Path 37382" d="M219.1,248.314s-.432,2.023.6,2.881c.726.6,1.134-1.08.96-2.281S219.46,247.354,219.1,248.314Z" transform="translate(-167.386 -172.444)" fill="#fff" stroke="#263238" stroke-linecap="round" stroke-linejoin="round" stroke-width="1"/>
      <path id="Path_37383" data-name="Path 37383" d="M221.94,249.114s-.432,2.023.6,2.881c.726.6,1.134-1.08.96-2.281S222.276,248.154,221.94,249.114Z" transform="translate(-168.522 -172.764)" fill="#fff" stroke="#263238" stroke-linecap="round" stroke-linejoin="round" stroke-width="1"/>
      <path id="Path_37384" data-name="Path 37384" d="M224.7,250.314s-.432,2.023.6,2.881c.726.6,1.134-1.08.96-2.281S225.06,249.354,224.7,250.314Z" transform="translate(-169.625 -173.244)" fill="#fff" stroke="#263238" stroke-linecap="round" stroke-linejoin="round" stroke-width="1"/>
      <path id="Path_37385" data-name="Path 37385" d="M227.475,252.062s-.4,1.362.552,1.939c.666.408,1.044-.726.882-1.537S227.805,251.414,227.475,252.062Z" transform="translate(-170.738 -174.014)" fill="#fff" stroke="#263238" stroke-linecap="round" stroke-linejoin="round" stroke-width="1"/>
      <path id="Path_37386" data-name="Path 37386" d="M238.56,240.4l.36,7.683,2.641-.72-.6-7.082Z" transform="translate(-175.202 -169.452)" fill="none" stroke="#263238" stroke-linecap="round" stroke-linejoin="round" stroke-width="1"/>
      <path id="Path_37387" data-name="Path 37387" d="M241.56,236l1.2,9.123,20.047-2.161.48-11.884Z" transform="translate(-176.401 -165.774)" fill="#263238" stroke="#263238" stroke-linecap="round" stroke-linejoin="round" stroke-width="1"/>
      <path id="Path_37388" data-name="Path 37388" d="M176.755,299.87s-3.637,24.3-3.637,32.525-5.546,22-5.738,29.656" transform="translate(-146.745 -193.275)" fill="none" stroke="#fff" stroke-linecap="round" stroke-linejoin="round" stroke-width="1"/>
      <path id="Path_37389" data-name="Path 37389" d="M146.408,428.755c.954.768,22.382.768,24.3-.378s.954-2.683.192-2.683-10.33-6.314-10.33-6.314-5.168,4.021-8.037,4.976a34.251,34.251,0,0,1-7.461,1.146v1.152A4.634,4.634,0,0,0,146.408,428.755Z" transform="translate(-137.825 -241.054)" fill="#fff" stroke="#263238" stroke-linecap="round" stroke-linejoin="round" stroke-width="1"/>
      <path id="Path_37390" data-name="Path 37390" d="M170.817,433.155c1.008-.6,1.2-1.32,1.08-1.855a47.329,47.329,0,0,1-8.541.894c-5.78.156-14.873-.2-18.006-.33a4.3,4.3,0,0,0,1.2,1.669C147.475,434.3,168.9,434.3,170.817,433.155Z" transform="translate(-137.937 -245.82)" fill="#fff" stroke="#263238" stroke-linecap="round" stroke-linejoin="round" stroke-width="1"/>
      <path id="Path_37391" data-name="Path 37391" d="M142.595,420.456l.558-1.3.762-15.683s-3.445,12.244-3.631,15.113C140.14,420.672,141.724,420.63,142.595,420.456Z" transform="translate(-135.908 -234.694)" fill="#263238" stroke="#263238" stroke-linecap="round" stroke-linejoin="round" stroke-width="1"/>
      <path id="Path_37392" data-name="Path 37392" d="M281.245,291.9s-1.909,28.51,0,39.986,6.716,31.379,7.461,33.864a13.2,13.2,0,0,1,.6,4.592l10.714,1.53s-3.253-37.687-3.253-42.087,3.637-37.309,3.637-37.309Z" transform="translate(-191.928 -190.089)" fill="#263238" stroke="#263238" stroke-linecap="round" stroke-linejoin="round" stroke-width="1"/>
      <path id="Path_37393" data-name="Path 37393" d="M286.364,422.446s-11.668,4.976-13.013,5.93,2.875,2.3,8.037,2.3a102.827,102.827,0,0,0,10.336-.6l2.1-1.146.192,1.338h5.546s.96-4.592.6-5.738a21.154,21.154,0,0,0-.954-2.3Z" transform="translate(-189.01 -242.194)" fill="#263238" stroke="#263238" stroke-linecap="round" stroke-linejoin="round" stroke-width="1"/>
      <path id="Path_37394" data-name="Path 37394" d="M278.94,287.7s.96,27.358,3.253,37.117,6.314,33.48,6.314,35.964a14.638,14.638,0,0,1-.57,4.2l-.768,2.5a7.7,7.7,0,0,0,.6,1.723,46.917,46.917,0,0,0,8.223,1.146,21.608,21.608,0,0,0,6-.906s.1-6,.294-8.853-.762-21.235-.762-25.635-1.152-6.89-1.152-12.244-.954-19.7-.762-22,2.869-4.8,3.445-7.653,1.146-5.93,1.146-5.93Z" transform="translate(-191.346 -188.178)" fill="#263238" stroke="#263238" stroke-linecap="round" stroke-linejoin="round" stroke-width="1"/>
      <path id="Path_37395" data-name="Path 37395" d="M282.76,336s5.348,37.1,6.686,39.44a6.818,6.818,0,0,1,.6,4.874" transform="translate(-192.873 -207.72)" fill="none" stroke="#fff" stroke-linecap="round" stroke-linejoin="round" stroke-width="1"/>
      <path id="Path_37396" data-name="Path 37396" d="M270.774,251.42s-.714,7.317-.714,12.911c0,3.121-.03,7.2-.06,10.156a5.234,5.234,0,0,0,4.2,5.168,20.062,20.062,0,0,0,3.823.462l-4.5-27.838S271.494,248.84,270.774,251.42Z" transform="translate(-187.771 -173.522)" fill="#263238" stroke="#263238" stroke-linecap="round" stroke-linejoin="round" stroke-width="1"/>
      <path id="Path_37397" data-name="Path 37397" d="M292.467,168.678a12,12,0,0,1,2.965,2.2,22.292,22.292,0,0,1,2.029,3.2s8.133,9.375,8.325,10.33-4.592,31.091-4.592,31.091l5.45,28.5s-8.8,4.88-15.5,5.168c-4.712.2-11.8-1.3-15.605-2.215a3.709,3.709,0,0,1-2.839-3.277c-.372-4.009-1.068-12-1.477-19.573-.468-8.793.864-26.211,1.8-32.333s3.925-14.441,6.218-17.886S287.857,166.878,292.467,168.678Z" transform="translate(-188.223 -140.633)" fill="#263238" stroke="#263238" stroke-linecap="round" stroke-linejoin="round" stroke-width="1"/>
      <path id="Path_37398" data-name="Path 37398" d="M299.767,174.1a22.291,22.291,0,0,0-2-3.157,12,12,0,0,0-2.965-2.2c-3.817-1.507-8.811.678-11.71,3.439a98.789,98.789,0,0,0-4.844,13.4,59.182,59.182,0,0,0-1.338,13.589s5.072-6.506,11.956-14.159a91.288,91.288,0,0,1,11.224-10.546Z" transform="translate(-190.529 -140.655)" fill="#263238"/>
      <g id="Group_8809" data-name="Group 8809" transform="translate(86.368 27.596)" clip-path="url(#clip-path-8)">
        <path id="Path_37399" data-name="Path 37399" d="M299.767,174.1a22.291,22.291,0,0,0-2-3.157,12,12,0,0,0-2.965-2.2c-3.817-1.507-8.811.678-11.71,3.439a98.789,98.789,0,0,0-4.844,13.4,59.182,59.182,0,0,0-1.338,13.589s5.072-6.506,11.956-14.159a91.288,91.288,0,0,1,11.224-10.546Z" transform="translate(-276.897 -168.251)" fill="#fff" opacity="0.17"/>
      </g>
      <path id="Path_37401" data-name="Path 37401" d="M299.767,174.1a22.291,22.291,0,0,0-2-3.157,12,12,0,0,0-2.965-2.2c-3.817-1.507-8.811.678-11.71,3.439a98.789,98.789,0,0,0-4.844,13.4,59.182,59.182,0,0,0-1.338,13.589s5.072-6.506,11.956-14.159a91.288,91.288,0,0,1,11.224-10.546Z" transform="translate(-190.529 -140.655)" fill="none" stroke="#263238" stroke-linecap="round" stroke-linejoin="round" stroke-width="1"/>
      <path id="Path_37402" data-name="Path 37402" d="M283.3,177.145s-2.587,8.109-3.373,10.4a24.24,24.24,0,0,0-.864,5.888s9.687-14.5,12.052-16.932,5.456-6.242,5.456-6.242l-2.083-.6Z" transform="translate(-191.394 -141.219)" fill="#fff" stroke="#263238" stroke-linecap="round" stroke-linejoin="round" stroke-width="1"/>
      <path id="Path_37403" data-name="Path 37403" d="M286.354,177.23s-1.146,3.373-1.146,3.6-.288,3.445-.288,3.445l4.087-5.528Z" transform="translate(-193.736 -144.245)" fill="#fff" stroke="#263238" stroke-linecap="round" stroke-linejoin="round" stroke-width="1"/>
      <path id="Path_37404" data-name="Path 37404" d="M297.188,166,286,175.111l1.723,5.018L299.2,168.437Z" transform="translate(-194.168 -139.755)" fill="#fff" stroke="#263238" stroke-linecap="round" stroke-linejoin="round" stroke-width="1"/>
      <path id="Path_37405" data-name="Path 37405" d="M300.663,286.4s-1.591,3.955-2.065,5.252-.234,6.374-.174,6.908,1,.648,1,.648.294,4.069.648,4.2a6.305,6.305,0,0,0,1.122.174s.648,2.071,1.477,1.891a1.344,1.344,0,0,0,.942-1.122,1.561,1.561,0,0,0,1.417-.648,7.681,7.681,0,0,0,.828-1.591s1.416-.708,1.53-1.242.474-2.4.474-2.4.414-.12.414-1.357-.942-8.853-.942-8.853Z" transform="translate(-199.09 -187.89)" fill="#fff" stroke="#263238" stroke-linecap="round" stroke-linejoin="round" stroke-width="1"/>
      <line id="Line_685" data-name="Line 685" y1="3.589" x2="0.174" transform="translate(100.337 107.729)" fill="none" stroke="#263238" stroke-linecap="round" stroke-linejoin="round" stroke-width="1"/>
      <line id="Line_686" data-name="Line 686" y1="5.312" x2="0.384" transform="translate(102.107 110.37)" fill="none" stroke="#263238" stroke-linecap="round" stroke-linejoin="round" stroke-width="1"/>
      <line id="Line_687" data-name="Line 687" y1="5.75" x2="0.276" transform="translate(104.526 110.7)" fill="none" stroke="#263238" stroke-linecap="round" stroke-linejoin="round" stroke-width="1"/>
      <line id="Line_688" data-name="Line 688" y1="4.003" x2="0.342" transform="translate(106.771 110.208)" fill="none" stroke="#263238" stroke-linecap="round" stroke-linejoin="round" stroke-width="1"/>
      <path id="Path_37406" data-name="Path 37406" d="M313.632,190.86l4.3,2.581L316.5,223.193l-7.653,28.12L301.58,249.4l2.293-22.208-1.146-22.382s1.627-5.216,5.354-8.085" transform="translate(-200.397 -149.694)" fill="#263238" stroke="#263238" stroke-linecap="round" stroke-linejoin="round" stroke-width="1"/>
      <path id="Path_37407" data-name="Path 37407" d="M305.543,199.23a31.9,31.9,0,0,0-2.053,8.943" transform="translate(-201.16 -153.04)" fill="none" stroke="#fff" stroke-linecap="round" stroke-linejoin="round" stroke-width="1"/>
      <path id="Path_37408" data-name="Path 37408" d="M306.46,203.17s-3.349,5.468-3.349,7.941.882,23.108.882,23.108L301.7,252.033" transform="translate(-200.445 -154.616)" fill="none" stroke="#fff" stroke-linecap="round" stroke-linejoin="round" stroke-width="1"/>
      <path id="Path_37409" data-name="Path 37409" d="M271.772,131.712s-2.3,6.53-2.083,7.467.432,2.365.432,2.365-3.6,4.448-3.157,4.952a8.188,8.188,0,0,0,2.437,1.074s1.651,6.89,2.3,7.533,4.664-.786,4.664-.786l4.3,5.45,8.823-8.463-1.074-4.448s4.664-8.181,4.592-12.058-8.031-9.039-13.7-8.967-10.978,2.155-9.9,3.661a8.127,8.127,0,0,0,2.371,2.221Z" transform="translate(-186.543 -123.695)" fill="#fff"/>
      <g id="Group_8810" data-name="Group 8810" transform="translate(80.384 2.134)" clip-path="url(#clip-path-9)">
        <path id="Path_37410" data-name="Path 37410" d="M293.85,133.3a12.6,12.6,0,0,0-3.175.9l-8.457,3.427s-4.027,3.421-3.6,6.038,4.027,6.242,3.223,8.859-5.84,5.438-5.84,5.438l1.579.06c1.2-.282,2.437-.72,2.437-.72l.66.834,8.151.294,4.316-4.141-1.074-4.448s4.664-8.181,4.592-12.058C296.611,136.355,295.507,134.753,293.85,133.3Z" transform="translate(-270.554 -128.816)" fill="#b8b8b8"/>
      </g>
      <path id="Path_37412" data-name="Path 37412" d="M271.772,131.712s-2.3,6.53-2.083,7.467.432,2.365.432,2.365-3.6,4.448-3.157,4.952a8.188,8.188,0,0,0,2.437,1.074s1.651,6.89,2.3,7.533,4.664-.786,4.664-.786l4.3,5.45,8.823-8.463-1.074-4.448s4.664-8.181,4.592-12.058-8.031-9.039-13.7-8.967-10.978,2.155-9.9,3.661a8.127,8.127,0,0,0,2.371,2.221Z" transform="translate(-186.543 -123.695)" fill="none" stroke="#263238" stroke-linecap="round" stroke-linejoin="round" stroke-width="1"/>
      <path id="Path_37413" data-name="Path 37413" d="M289.972,146.855s4.664-8.181,4.592-12.058-8.031-9.039-13.7-8.967-10.978,2.155-9.9,3.661a8.127,8.127,0,0,0,2.371,2.221s3.517,1.651,3.517,2.083-2.083,2.725-1.362,3.733,4.159,2.221,4.159,2.221-.6,1.939.288,2.155,1.29-.648,1.861-1.2,2.587-1.368,2.875,1.074a7.412,7.412,0,0,1-1.3,4.952c-.282.21,3.661,2.869,5.4,2.077.45-.2.978-.474,1.507-.756Z" transform="translate(-188.098 -123.695)" fill="#263238" stroke="#263238" stroke-linecap="round" stroke-linejoin="round" stroke-width="1"/>
      <ellipse id="Ellipse_3266" data-name="Ellipse 3266" cx="0.504" cy="1.939" rx="0.504" ry="1.939" transform="translate(84.149 15.765)" fill="none" stroke="#263238" stroke-linecap="round" stroke-linejoin="round" stroke-width="1"/>
      <line id="Line_689" data-name="Line 689" x2="8.463" y2="0.072" transform="translate(85.23 16.917)" fill="none" stroke="#263238" stroke-linecap="round" stroke-linejoin="round" stroke-width="1"/>
      <path id="Path_37414" data-name="Path 37414" d="M272.68,146.246s.8-1.284,1.609.318" transform="translate(-188.843 -131.663)" fill="none" stroke="#263238" stroke-linecap="round" stroke-linejoin="round" stroke-width="1"/>
      <path id="Path_37415" data-name="Path 37415" d="M272.41,163.036a9.057,9.057,0,0,0,2.4-1.447" transform="translate(-188.735 -137.992)" fill="none" stroke="#263238" stroke-linecap="round" stroke-linejoin="round" stroke-width="1"/>
    </g>
    <g id="freepik--Floor--inject-6" transform="translate(49.931 301.85)">
      <line id="Line_690" data-name="Line 690" x2="236.224" fill="none" stroke="#263238" stroke-miterlimit="10" stroke-width="2"/>
    </g>
  </g>
</svg>
