<svg xmlns="http://www.w3.org/2000/svg" width="250" height="217.408" viewBox="0 0 250 217.408"><g transform="translate(-56.11 -90.334)"><g transform="translate(56.11 293.146)"><ellipse cx="125" cy="7.298" rx="125" ry="7.298" fill="#f5f5f5"/></g><g transform="translate(79.177 90.334)"><path d="M231.137,267.915h-.277a.316.316,0,0,1-.316-.322.322.322,0,0,1,.322-.322h.29a46.65,46.65,0,0,0,15.421-2.611.324.324,0,1,1,.213.612A47.365,47.365,0,0,1,231.137,267.915Zm-1.579,0h0c-.935,0-1.883-.09-2.811-.174l-.426-.039a.324.324,0,0,1,.064-.645l.419.045c.922.084,1.857.142,2.772.168a.31.31,0,1,1-.006.619Zm-9.567-1.289h-.077a47.205,47.205,0,0,1-14.828-6.382.322.322,0,0,1,.348-.542,46.7,46.7,0,0,0,14.635,6.3.322.322,0,0,1,.239.387.329.329,0,0,1-.316.219Zm32.589-3.868a.31.31,0,0,1-.284-.181.322.322,0,0,1,.135-.432c.948-.484,1.889-1.006,2.8-1.554a.324.324,0,1,1,.335.554c-.928.554-1.883,1.083-2.837,1.573A.3.3,0,0,1,252.58,262.758Zm3.913-2.244a.309.309,0,0,1-.271-.148.322.322,0,0,1,.1-.445,47.14,47.14,0,0,0,11.8-10.7.324.324,0,1,1,.509.4,47.959,47.959,0,0,1-11.978,10.85.348.348,0,0,1-.155.071Zm-52.3-.973a.335.335,0,0,1-.187-.058c-.883-.612-1.76-1.289-2.579-1.934a.323.323,0,0,1,.406-.5c.825.645,1.689,1.289,2.579,1.934a.322.322,0,0,1,.084.451A.316.316,0,0,1,204.189,259.541Zm-7.343-6.273a.329.329,0,0,1-.232-.1,47.824,47.824,0,0,1-9.026-13.39.329.329,0,0,1,.161-.432.322.322,0,0,1,.425.168,47.159,47.159,0,0,0,8.9,13.21.316.316,0,0,1-.239.542Zm75.146-8.845a.31.31,0,0,1-.168-.045.329.329,0,0,1-.116-.438c.542-.922,1.051-1.87,1.521-2.824a.324.324,0,1,1,.58.29c-.477.961-1,1.934-1.541,2.856A.322.322,0,0,1,271.992,244.423Zm2.082-4a.348.348,0,0,1-.135,0,.316.316,0,0,1-.155-.425,46.973,46.973,0,0,0,4.139-15.44.324.324,0,0,1,.645.058,47.664,47.664,0,0,1-4.165,15.6.329.329,0,0,1-.348.193ZM187.382,238.8a.322.322,0,0,1-.3-.2c-.413-.993-.8-2.011-1.148-3.03a.329.329,0,0,1,.2-.413.335.335,0,0,1,.413.206c.342,1.006.722,2.011,1.128,2.991a.316.316,0,0,1-.174.419.277.277,0,0,1-.122.013Zm-2.785-9.238a.316.316,0,0,1-.316-.258,47.553,47.553,0,0,1-.851-8.974c0-1.457.064-2.94.2-4.4.084-.928.2-1.857.335-2.766a.316.316,0,0,1,.367-.271.322.322,0,0,1,.271.361c-.135.9-.251,1.824-.335,2.734-.129,1.444-.193,2.908-.193,4.345a46.79,46.79,0,0,0,.838,8.852.322.322,0,0,1-.258.374Zm93.784-10.7a.322.322,0,0,1-.322-.309c-.039-1.07-.11-2.14-.219-3.223a.324.324,0,0,1,.645-.064c.11,1.07.187,2.16.226,3.223a.322.322,0,0,1-.309.335Zm-.374-4.513a.329.329,0,0,1-.322-.284,46.5,46.5,0,0,0-4.745-15.2.329.329,0,0,1,.142-.432.316.316,0,0,1,.432.142,47.365,47.365,0,0,1,4.816,15.408.322.322,0,0,1-.277.361Zm-93.481-2.108h-.084a.329.329,0,0,1-.264-.374c.193-1.064.419-2.134.645-3.172a.329.329,0,0,1,.393-.239.322.322,0,0,1,.232.393c-.258,1.025-.477,2.082-.645,3.127a.329.329,0,0,1-.309.271Zm2.65-9.284a.406.406,0,0,1-.122,0,.329.329,0,0,1-.181-.419,47.418,47.418,0,0,1,8.471-13.751.324.324,0,1,1,.484.432,46.83,46.83,0,0,0-8.381,13.539.309.309,0,0,1-.3.206Zm82.766-9.438a.329.329,0,0,1-.264-.135c-.606-.87-1.251-1.734-1.934-2.579a.316.316,0,0,1,.045-.451.329.329,0,0,1,.458.045c.645.838,1.328,1.715,1.934,2.579a.316.316,0,0,1-.077.445.29.29,0,0,1-.193.1Zm-2.753-3.572a.335.335,0,0,1-.245-.11,46.864,46.864,0,0,0-12.23-10.225.316.316,0,0,1-.116-.438.329.329,0,0,1,.445-.116,47.637,47.637,0,0,1,12.378,10.367.322.322,0,0,1-.039.451.335.335,0,0,1-.226.077Zm-70.768-1.612a.309.309,0,0,1-.219-.084.329.329,0,0,1,0-.458c.735-.787,1.509-1.56,2.3-2.3a.316.316,0,0,1,.451,0,.322.322,0,0,1,0,.458c-.774.722-1.534,1.489-2.256,2.263A.322.322,0,0,1,196.421,188.334Zm7.259-6.357a.348.348,0,0,1-.264-.135.329.329,0,0,1,.077-.451,47.707,47.707,0,0,1,14.551-6.995.334.334,0,0,1,.174.645,46.85,46.85,0,0,0-14.351,6.9.335.335,0,0,1-.187.058Zm45.406-5.2a.407.407,0,0,1-.122,0c-.98-.406-1.992-.78-3-1.115a.322.322,0,0,1-.206-.406.329.329,0,0,1,.406-.206c1.025.342,2.05.722,3.043,1.128a.316.316,0,0,1,.174.419.309.309,0,0,1-.3.2Zm-4.249-1.509h-.1a46.85,46.85,0,0,0-9.367-1.818,47.633,47.633,0,0,0-6.447-.155.309.309,0,0,1-.335-.309.322.322,0,0,1,.3-.335,48.994,48.994,0,0,1,6.524.155,48.144,48.144,0,0,1,9.5,1.85.322.322,0,0,1,.219.406.329.329,0,0,1-.3.226Zm-25.459-.58a.322.322,0,0,1-.316-.239.329.329,0,0,1,.232-.393c1.044-.264,2.115-.5,3.172-.7a.328.328,0,1,1,.116.645c-1.044.187-2.1.419-3.127.683Z" transform="translate(-124.415 -119.567)" fill="#263238"/><path d="M192.582,126.073a17.756,17.756,0,0,1-2.869-.232.329.329,0,0,1-.271-.367.335.335,0,0,1,.374-.271,17.072,17.072,0,0,0,3.095.219.316.316,0,0,1,.329.316.322.322,0,0,1-.316.329Zm1.6-.071a.322.322,0,0,1-.322-.3.316.316,0,0,1,.29-.348,17.026,17.026,0,0,0,7.053-2.237.322.322,0,0,1,.322.554A17.6,17.6,0,0,1,194.206,126Zm-10.347-2.269a.329.329,0,0,1-.161-.039A18.052,18.052,0,0,1,178,118.537a.322.322,0,0,1,.077-.451.316.316,0,0,1,.445.077,17.445,17.445,0,0,0,5.473,4.983.313.313,0,0,1-.161.587Zm22.326-4.094a.348.348,0,0,1-.206-.071.335.335,0,0,1-.045-.458,16.76,16.76,0,0,0,1.741-2.579.325.325,0,1,1,.567.316,18.109,18.109,0,0,1-1.812,2.663.309.309,0,0,1-.245.129ZM177.567,117.6a.322.322,0,0,1-.277-.161,17.874,17.874,0,0,1-1.412-2.888.329.329,0,0,1,.187-.419.322.322,0,0,1,.419.187,17.452,17.452,0,0,0,1.36,2.792.329.329,0,0,1-.277.49Zm30.945-1.708a.335.335,0,0,1-.135,0,.322.322,0,0,1-.155-.432,17.072,17.072,0,0,0,1.586-7.227v-.064a.322.322,0,0,1,.322-.322.329.329,0,0,1,.322.322v.064a17.651,17.651,0,0,1-1.65,7.5.316.316,0,0,1-.3.168Zm-33.46-7.343a.309.309,0,0,1-.322-.3V108.2a17.781,17.781,0,0,1,1.625-7.459.322.322,0,0,1,.432-.155.316.316,0,0,1,.155.426,17.149,17.149,0,0,0-1.567,7.195.342.342,0,0,1-.329.342Zm33.924-6.279a.309.309,0,0,1-.3-.206,17.7,17.7,0,0,0-1.367-2.785.321.321,0,1,1,.548-.335,17.4,17.4,0,0,1,1.418,2.888.322.322,0,0,1-.187.419.368.368,0,0,1-.122.019Zm-31.758-2.2a.342.342,0,0,1-.155-.039.322.322,0,0,1-.122-.438,17.755,17.755,0,0,1,1.8-2.669.323.323,0,1,1,.5.406,17.671,17.671,0,0,0-1.741,2.579.329.329,0,0,1-.29.161Zm29.656-1.7a.316.316,0,0,1-.264-.135,17.407,17.407,0,0,0-5.48-4.971.329.329,0,0,1-.116-.445.316.316,0,0,1,.438-.116,18.052,18.052,0,0,1,5.68,5.158.329.329,0,0,1-.071.451.335.335,0,0,1-.174.058Zm-23.1-5.035a.322.322,0,0,1-.168-.6,17.787,17.787,0,0,1,7.311-2.34.324.324,0,0,1,.064.645,16.988,16.988,0,0,0-7.053,2.3A.3.3,0,0,1,183.775,93.342Zm11.6-2.147h-.052a17.755,17.755,0,0,0-3.095-.213.329.329,0,0,1-.329-.316.322.322,0,0,1,.316-.329,18.457,18.457,0,0,1,3.223.219.332.332,0,0,1-.077.658Z" transform="translate(-121.323 -90.334)" fill="#263238"/><path d="M109.748,219.31a17.758,17.758,0,0,1-2.869-.232.326.326,0,0,1,.1-.645,17.206,17.206,0,0,0,2.766.219h.329a.342.342,0,0,1,.329.316.335.335,0,0,1-.316.329Zm1.6-.071a.322.322,0,0,1-.322-.3.329.329,0,0,1,.29-.348,17.026,17.026,0,0,0,7.079-2.25.322.322,0,0,1,.322.554,17.677,17.677,0,0,1-7.317,2.327Zm-10.315-2.263a.29.29,0,0,1-.161-.045,17.987,17.987,0,0,1-5.673-5.158.322.322,0,1,1,.522-.374,17.445,17.445,0,0,0,5.473,4.984.329.329,0,0,1,.116.445.322.322,0,0,1-.322.135Zm22.294-4.113a.309.309,0,0,1-.206-.071.322.322,0,0,1-.045-.451,16.846,16.846,0,0,0,1.741-2.579.329.329,0,0,1,.445-.122.322.322,0,0,1,.122.438,18.586,18.586,0,0,1-1.805,2.663A.329.329,0,0,1,123.325,212.863Zm-28.592-2.037a.335.335,0,0,1-.277-.155,18.2,18.2,0,0,1-1.412-2.895.323.323,0,1,1,.606-.226,17.407,17.407,0,0,0,1.36,2.785.329.329,0,0,1-.11.445.309.309,0,0,1-.168.045Zm30.945-1.708a.335.335,0,0,1-.135,0,.322.322,0,0,1-.155-.432,17.072,17.072,0,0,0,1.586-7.227v-.064a.322.322,0,0,1,.645,0v.064a17.71,17.71,0,0,1-1.644,7.5.322.322,0,0,1-.3.161Zm-33.466-7.343a.3.3,0,0,1-.322-.3v-.039a17.716,17.716,0,0,1,1.631-7.466.322.322,0,1,1,.58.271,17.149,17.149,0,0,0-1.567,7.195A.342.342,0,0,1,92.212,201.774ZM126.13,195.5a.316.316,0,0,1-.3-.213,17.692,17.692,0,0,0-1.367-2.785.322.322,0,0,1,.548-.335,17.7,17.7,0,0,1,1.418,2.895.316.316,0,0,1-.187.413.251.251,0,0,1-.116.026Zm-31.751-2.2a.348.348,0,0,1-.161-.039.322.322,0,0,1-.123-.438,17.754,17.754,0,0,1,1.8-2.669.323.323,0,1,1,.5.406,17.67,17.67,0,0,0-1.741,2.579.316.316,0,0,1-.271.161Zm29.656-1.7a.316.316,0,0,1-.264-.135,17.407,17.407,0,0,0-5.48-4.971.316.316,0,0,1-.116-.438.322.322,0,0,1,.438-.122,18.206,18.206,0,0,1,5.686,5.158.329.329,0,0,1-.077.451.29.29,0,0,1-.168.045Zm-23.112-5.016a.316.316,0,0,1-.277-.155.329.329,0,0,1,.116-.445,17.658,17.658,0,0,1,7.317-2.334.324.324,0,0,1,.058.645,17.026,17.026,0,0,0-7.047,2.256.367.367,0,0,1-.148.032Zm11.6-2.147h-.052a17.1,17.1,0,0,0-3.095-.206.329.329,0,0,1-.329-.316.322.322,0,0,1,.316-.329,17.807,17.807,0,0,1,3.223.219.329.329,0,0,1,.271.367.322.322,0,0,1-.329.264Z" transform="translate(-91.89 -123.466)" fill="#263238"/><path d="M370.552,298.5a17.873,17.873,0,0,1-2.933-.232.32.32,0,1,1,.1-.632,17.41,17.41,0,0,0,2.83.219h.264a.335.335,0,0,1,.329.316.322.322,0,0,1-.316.329Zm1.534-.071a.323.323,0,0,1-.026-.645,17.033,17.033,0,0,0,7.047-2.237.329.329,0,0,1,.445.116.335.335,0,0,1-.122.445,17.736,17.736,0,0,1-7.311,2.321ZM361.74,296.17a.29.29,0,0,1-.161-.045,18.051,18.051,0,0,1-5.673-5.158.322.322,0,0,1,.077-.451.329.329,0,0,1,.451.077,17.356,17.356,0,0,0,5.467,4.984.329.329,0,0,1,.116.445A.322.322,0,0,1,361.74,296.17Zm22.326-4.1a.319.319,0,0,1-.251-.522,17.045,17.045,0,0,0,1.747-2.579.322.322,0,0,1,.438-.122.316.316,0,0,1,.122.438,18.048,18.048,0,0,1-1.805,2.663A.323.323,0,0,1,384.065,292.069Zm-28.618-2.037a.335.335,0,0,1-.277-.155,18.171,18.171,0,0,1-1.405-2.895.316.316,0,0,1,.187-.413.322.322,0,0,1,.413.187,17.409,17.409,0,0,0,1.36,2.785.322.322,0,0,1-.11.445.309.309,0,0,1-.168.045Zm30.945-1.708a.335.335,0,0,1-.135,0,.322.322,0,0,1-.155-.432,17.072,17.072,0,0,0,1.58-7.253v-.064a.322.322,0,0,1,.645,0v.064a17.731,17.731,0,0,1-1.644,7.5.322.322,0,0,1-.29.187Zm-33.44-7.35a.3.3,0,0,1-.322-.3v-.039a17.664,17.664,0,0,1,1.631-7.459.316.316,0,0,1,.426-.161.329.329,0,0,1,.161.426,17.058,17.058,0,0,0-1.573,7.195.335.335,0,0,1-.322.342Zm33.93-6.279a.329.329,0,0,1-.3-.206,16.9,16.9,0,0,0-1.367-2.785.324.324,0,0,1,.554-.335,18.131,18.131,0,0,1,1.412,2.888.322.322,0,0,1-.187.419.3.3,0,0,1-.11.026Zm-31.758-2.2a.322.322,0,0,1-.284-.477,17.969,17.969,0,0,1,1.805-2.669.321.321,0,1,1,.5.406,17.627,17.627,0,0,0-1.734,2.579.329.329,0,0,1-.284.168Zm29.656-1.689a.335.335,0,0,1-.264-.135,17.368,17.368,0,0,0-5.48-4.977.323.323,0,0,1,.322-.561,18.012,18.012,0,0,1,5.686,5.158.322.322,0,0,1-.077.445.3.3,0,0,1-.174.077Zm-23.112-5.016a.322.322,0,0,1-.277-.161.329.329,0,0,1,.116-.445,17.658,17.658,0,0,1,7.311-2.334.309.309,0,0,1,.348.29.316.316,0,0,1-.29.348,17.027,17.027,0,0,0-7.047,2.256.379.379,0,0,1-.148.052Zm11.6-2.153h-.045a17.173,17.173,0,0,0-3.1-.206.322.322,0,0,1,0-.645,17.762,17.762,0,0,1,3.223.219.323.323,0,0,1-.052.645Z" transform="translate(-184.532 -151.606)" fill="#263238"/><path d="M305.874,180.019a.322.322,0,0,1-.245-.529l17.723-21.275a.323.323,0,1,1,.5.413L306.119,179.9A.309.309,0,0,1,305.874,180.019Z" transform="translate(-167.806 -114.412)" fill="#263238"/><path d="M221.976,166.556a.329.329,0,0,1-.3-.2L211.738,143.4a.329.329,0,0,1,.161-.413.322.322,0,0,1,.426.174l9.941,22.958a.335.335,0,0,1-.3.451Z" transform="translate(-134.465 -109.032)" fill="#263238"/><path d="M343.906,279.712a.3.3,0,0,1-.11,0L325.635,272.9a.324.324,0,0,1,.232-.606l18.155,6.808a.328.328,0,1,1-.116.645Z" transform="translate(-174.867 -154.979)" fill="#263238"/><path d="M171.284,226.737a.251.251,0,0,1-.1,0l-25.614-8.181a.322.322,0,0,1,.2-.612l25.607,8.181a.316.316,0,0,1,.206.406A.309.309,0,0,1,171.284,226.737Z" transform="translate(-110.889 -135.67)" fill="#263238"/><path d="M341.227,145.734a17.458,17.458,0,0,1-2.908-.226.329.329,0,0,1-.271-.374.322.322,0,0,1,.367-.264,16.518,16.518,0,0,0,2.811.219h.29a.322.322,0,1,1,0,.645Zm1.554-.071a.316.316,0,0,1-.316-.29.322.322,0,0,1,.29-.355,16.968,16.968,0,0,0,7.053-2.237.323.323,0,1,1,.322.561,17.7,17.7,0,0,1-7.317,2.321ZM332.433,143.4a.3.3,0,0,1-.161-.045A18.051,18.051,0,0,1,326.6,138.2a.322.322,0,0,1,.529-.367,17.5,17.5,0,0,0,5.467,4.984.322.322,0,0,1,.122.438A.335.335,0,0,1,332.433,143.4Zm22.326-4.094a.3.3,0,0,1-.2-.077.316.316,0,0,1-.045-.451,17.772,17.772,0,0,0,1.741-2.579.323.323,0,0,1,.567.309,17.453,17.453,0,0,1-1.812,2.663.329.329,0,0,1-.251.135Zm-28.586-2.044a.316.316,0,0,1-.277-.155,17.875,17.875,0,0,1-1.412-2.888.322.322,0,0,1,.187-.419.316.316,0,0,1,.413.187,17.126,17.126,0,0,0,1.36,2.785.316.316,0,0,1-.11.445A.3.3,0,0,1,326.173,137.263Zm30.945-1.7a.348.348,0,0,1-.135,0,.322.322,0,0,1-.161-.426,17.02,17.02,0,0,0,1.586-7.227v-.071a.322.322,0,1,1,.645,0v.071a17.658,17.658,0,0,1-1.644,7.5.316.316,0,0,1-.3.155Zm-33.466-7.343a.309.309,0,0,1-.322-.309v-.032a17.7,17.7,0,0,1,1.631-7.466.329.329,0,0,1,.425-.161.335.335,0,0,1,.161.432,17.033,17.033,0,0,0-1.573,7.195.342.342,0,0,1-.329.342Zm33.93-6.279a.335.335,0,0,1-.3-.206,16.643,16.643,0,0,0-1.367-2.785.329.329,0,0,1,.11-.445.322.322,0,0,1,.445.11,18.454,18.454,0,0,1,1.418,2.888.322.322,0,0,1-.187.413.251.251,0,0,1-.122.026Zm-31.758-2.2a.341.341,0,0,1-.129-.058.329.329,0,0,1-.129-.438,18.586,18.586,0,0,1,1.805-2.663.322.322,0,1,1,.5.406,16.965,16.965,0,0,0-1.734,2.579.322.322,0,0,1-.316.174Zm29.656-1.689a.322.322,0,0,1-.258-.135,17.368,17.368,0,0,0-5.48-4.977.319.319,0,1,1,.316-.554,17.993,17.993,0,0,1,5.686,5.158.316.316,0,0,1-.077.445.3.3,0,0,1-.181.064Zm-23.112-5.016a.322.322,0,0,1-.161-.6,17.6,17.6,0,0,1,7.311-2.34.322.322,0,0,1,.355.29.329.329,0,0,1-.3.355,16.956,16.956,0,0,0-7.047,2.25.277.277,0,0,1-.155.045Zm11.6-2.153h-.052a17.187,17.187,0,0,0-3.095-.213.322.322,0,1,1,0-.645,18.5,18.5,0,0,1,3.223.219.323.323,0,0,1-.052.645Z" transform="translate(-174.122 -97.327)" fill="#263238"/><g opacity="0.6"><path d="M231.137,267.915h-.277a.316.316,0,0,1-.316-.322.322.322,0,0,1,.322-.322h.29a46.65,46.65,0,0,0,15.421-2.611.324.324,0,1,1,.213.612A47.365,47.365,0,0,1,231.137,267.915Zm-1.579,0h0c-.935,0-1.883-.09-2.811-.174l-.426-.039a.324.324,0,0,1,.064-.645l.419.045c.922.084,1.857.142,2.772.168a.31.31,0,1,1-.006.619Zm-9.567-1.289h-.077a47.205,47.205,0,0,1-14.828-6.382.322.322,0,0,1,.348-.542,46.7,46.7,0,0,0,14.635,6.3.322.322,0,0,1,.239.387.329.329,0,0,1-.316.219Zm32.589-3.868a.31.31,0,0,1-.284-.181.322.322,0,0,1,.135-.432c.948-.484,1.889-1.006,2.8-1.554a.324.324,0,1,1,.335.554c-.928.554-1.883,1.083-2.837,1.573A.3.3,0,0,1,252.58,262.758Zm3.913-2.244a.309.309,0,0,1-.271-.148.322.322,0,0,1,.1-.445,47.14,47.14,0,0,0,11.8-10.7.324.324,0,1,1,.509.4,47.959,47.959,0,0,1-11.978,10.85.348.348,0,0,1-.155.071Zm-52.3-.973a.335.335,0,0,1-.187-.058c-.883-.612-1.76-1.289-2.579-1.934a.323.323,0,0,1,.406-.5c.825.645,1.689,1.289,2.579,1.934a.322.322,0,0,1,.084.451A.316.316,0,0,1,204.189,259.541Zm-7.343-6.273a.329.329,0,0,1-.232-.1,47.824,47.824,0,0,1-9.026-13.39.329.329,0,0,1,.161-.432.322.322,0,0,1,.425.168,47.159,47.159,0,0,0,8.9,13.21.316.316,0,0,1-.239.542Zm75.146-8.845a.31.31,0,0,1-.168-.045.329.329,0,0,1-.116-.438c.542-.922,1.051-1.87,1.521-2.824a.324.324,0,1,1,.58.29c-.477.961-1,1.934-1.541,2.856A.322.322,0,0,1,271.992,244.423Zm2.082-4a.348.348,0,0,1-.135,0,.316.316,0,0,1-.155-.425,46.973,46.973,0,0,0,4.139-15.44.324.324,0,0,1,.645.058,47.664,47.664,0,0,1-4.165,15.6.329.329,0,0,1-.348.193ZM187.382,238.8a.322.322,0,0,1-.3-.2c-.413-.993-.8-2.011-1.148-3.03a.329.329,0,0,1,.2-.413.335.335,0,0,1,.413.206c.342,1.006.722,2.011,1.128,2.991a.316.316,0,0,1-.174.419.277.277,0,0,1-.122.013Zm-2.785-9.238a.316.316,0,0,1-.316-.258,47.553,47.553,0,0,1-.851-8.974c0-1.457.064-2.94.2-4.4.084-.928.2-1.857.335-2.766a.316.316,0,0,1,.367-.271.322.322,0,0,1,.271.361c-.135.9-.251,1.824-.335,2.734-.129,1.444-.193,2.908-.193,4.345a46.79,46.79,0,0,0,.838,8.852.322.322,0,0,1-.258.374Zm93.784-10.7a.322.322,0,0,1-.322-.309c-.039-1.07-.11-2.14-.219-3.223a.324.324,0,0,1,.645-.064c.11,1.07.187,2.16.226,3.223a.322.322,0,0,1-.309.335Zm-.374-4.513a.329.329,0,0,1-.322-.284,46.5,46.5,0,0,0-4.745-15.2.329.329,0,0,1,.142-.432.316.316,0,0,1,.432.142,47.365,47.365,0,0,1,4.816,15.408.322.322,0,0,1-.277.361Zm-93.481-2.108h-.084a.329.329,0,0,1-.264-.374c.193-1.064.419-2.134.645-3.172a.329.329,0,0,1,.393-.239.322.322,0,0,1,.232.393c-.258,1.025-.477,2.082-.645,3.127a.329.329,0,0,1-.309.271Zm2.65-9.284a.406.406,0,0,1-.122,0,.329.329,0,0,1-.181-.419,47.418,47.418,0,0,1,8.471-13.751.324.324,0,1,1,.484.432,46.83,46.83,0,0,0-8.381,13.539.309.309,0,0,1-.3.206Zm82.766-9.438a.329.329,0,0,1-.264-.135c-.606-.87-1.251-1.734-1.934-2.579a.316.316,0,0,1,.045-.451.329.329,0,0,1,.458.045c.645.838,1.328,1.715,1.934,2.579a.316.316,0,0,1-.077.445.29.29,0,0,1-.193.1Zm-2.753-3.572a.335.335,0,0,1-.245-.11,46.864,46.864,0,0,0-12.23-10.225.316.316,0,0,1-.116-.438.329.329,0,0,1,.445-.116,47.637,47.637,0,0,1,12.378,10.367.322.322,0,0,1-.039.451.335.335,0,0,1-.226.077Zm-70.768-1.612a.309.309,0,0,1-.219-.084.329.329,0,0,1,0-.458c.735-.787,1.509-1.56,2.3-2.3a.316.316,0,0,1,.451,0,.322.322,0,0,1,0,.458c-.774.722-1.534,1.489-2.256,2.263A.322.322,0,0,1,196.421,188.334Zm7.259-6.357a.348.348,0,0,1-.264-.135.329.329,0,0,1,.077-.451,47.707,47.707,0,0,1,14.551-6.995.334.334,0,0,1,.174.645,46.85,46.85,0,0,0-14.351,6.9.335.335,0,0,1-.187.058Zm45.406-5.2a.407.407,0,0,1-.122,0c-.98-.406-1.992-.78-3-1.115a.322.322,0,0,1-.206-.406.329.329,0,0,1,.406-.206c1.025.342,2.05.722,3.043,1.128a.316.316,0,0,1,.174.419.309.309,0,0,1-.3.2Zm-4.249-1.509h-.1a46.85,46.85,0,0,0-9.367-1.818,47.633,47.633,0,0,0-6.447-.155.309.309,0,0,1-.335-.309.322.322,0,0,1,.3-.335,48.994,48.994,0,0,1,6.524.155,48.144,48.144,0,0,1,9.5,1.85.322.322,0,0,1,.219.406.329.329,0,0,1-.3.226Zm-25.459-.58a.322.322,0,0,1-.316-.239.329.329,0,0,1,.232-.393c1.044-.264,2.115-.5,3.172-.7a.328.328,0,1,1,.116.645c-1.044.187-2.1.419-3.127.683Z" transform="translate(-124.415 -119.567)" fill="#fff"/><path d="M192.582,126.073a17.756,17.756,0,0,1-2.869-.232.329.329,0,0,1-.271-.367.335.335,0,0,1,.374-.271,17.072,17.072,0,0,0,3.095.219.316.316,0,0,1,.329.316.322.322,0,0,1-.316.329Zm1.6-.071a.322.322,0,0,1-.322-.3.316.316,0,0,1,.29-.348,17.026,17.026,0,0,0,7.053-2.237.322.322,0,0,1,.322.554A17.6,17.6,0,0,1,194.206,126Zm-10.347-2.269a.329.329,0,0,1-.161-.039A18.052,18.052,0,0,1,178,118.537a.322.322,0,0,1,.077-.451.316.316,0,0,1,.445.077,17.445,17.445,0,0,0,5.473,4.983.313.313,0,0,1-.161.587Zm22.326-4.094a.348.348,0,0,1-.206-.071.335.335,0,0,1-.045-.458,16.76,16.76,0,0,0,1.741-2.579.325.325,0,1,1,.567.316,18.109,18.109,0,0,1-1.812,2.663.309.309,0,0,1-.245.129ZM177.567,117.6a.322.322,0,0,1-.277-.161,17.874,17.874,0,0,1-1.412-2.888.329.329,0,0,1,.187-.419.322.322,0,0,1,.419.187,17.452,17.452,0,0,0,1.36,2.792.329.329,0,0,1-.277.49Zm30.945-1.708a.335.335,0,0,1-.135,0,.322.322,0,0,1-.155-.432,17.072,17.072,0,0,0,1.586-7.227v-.064a.322.322,0,0,1,.322-.322.329.329,0,0,1,.322.322v.064a17.651,17.651,0,0,1-1.65,7.5.316.316,0,0,1-.3.168Zm-33.46-7.343a.309.309,0,0,1-.322-.3V108.2a17.781,17.781,0,0,1,1.625-7.459.322.322,0,0,1,.432-.155.316.316,0,0,1,.155.426,17.149,17.149,0,0,0-1.567,7.195.342.342,0,0,1-.329.342Zm33.924-6.279a.309.309,0,0,1-.3-.206,17.7,17.7,0,0,0-1.367-2.785.321.321,0,1,1,.548-.335,17.4,17.4,0,0,1,1.418,2.888.322.322,0,0,1-.187.419.368.368,0,0,1-.122.019Zm-31.758-2.2a.342.342,0,0,1-.155-.039.322.322,0,0,1-.122-.438,17.755,17.755,0,0,1,1.8-2.669.323.323,0,1,1,.5.406,17.671,17.671,0,0,0-1.741,2.579.329.329,0,0,1-.29.161Zm29.656-1.7a.316.316,0,0,1-.264-.135,17.407,17.407,0,0,0-5.48-4.971.329.329,0,0,1-.116-.445.316.316,0,0,1,.438-.116,18.052,18.052,0,0,1,5.68,5.158.329.329,0,0,1-.071.451.335.335,0,0,1-.174.058Zm-23.1-5.035a.322.322,0,0,1-.168-.6,17.787,17.787,0,0,1,7.311-2.34.324.324,0,0,1,.064.645,16.988,16.988,0,0,0-7.053,2.3A.3.3,0,0,1,183.775,93.342Zm11.6-2.147h-.052a17.755,17.755,0,0,0-3.095-.213.329.329,0,0,1-.329-.316.322.322,0,0,1,.316-.329,18.457,18.457,0,0,1,3.223.219.332.332,0,0,1-.077.658Z" transform="translate(-121.323 -90.334)" fill="#fff"/><path d="M109.748,219.31a17.758,17.758,0,0,1-2.869-.232.326.326,0,0,1,.1-.645,17.206,17.206,0,0,0,2.766.219h.329a.342.342,0,0,1,.329.316.335.335,0,0,1-.316.329Zm1.6-.071a.322.322,0,0,1-.322-.3.329.329,0,0,1,.29-.348,17.026,17.026,0,0,0,7.079-2.25.322.322,0,0,1,.322.554,17.677,17.677,0,0,1-7.317,2.327Zm-10.315-2.263a.29.29,0,0,1-.161-.045,17.987,17.987,0,0,1-5.673-5.158.322.322,0,1,1,.522-.374,17.445,17.445,0,0,0,5.473,4.984.329.329,0,0,1,.116.445.322.322,0,0,1-.322.135Zm22.294-4.113a.309.309,0,0,1-.206-.071.322.322,0,0,1-.045-.451,16.846,16.846,0,0,0,1.741-2.579.329.329,0,0,1,.445-.122.322.322,0,0,1,.122.438,18.586,18.586,0,0,1-1.805,2.663A.329.329,0,0,1,123.325,212.863Zm-28.592-2.037a.335.335,0,0,1-.277-.155,18.2,18.2,0,0,1-1.412-2.895.323.323,0,1,1,.606-.226,17.407,17.407,0,0,0,1.36,2.785.329.329,0,0,1-.11.445.309.309,0,0,1-.168.045Zm30.945-1.708a.335.335,0,0,1-.135,0,.322.322,0,0,1-.155-.432,17.072,17.072,0,0,0,1.586-7.227v-.064a.322.322,0,0,1,.645,0v.064a17.71,17.71,0,0,1-1.644,7.5.322.322,0,0,1-.3.161Zm-33.466-7.343a.3.3,0,0,1-.322-.3v-.039a17.716,17.716,0,0,1,1.631-7.466.322.322,0,1,1,.58.271,17.149,17.149,0,0,0-1.567,7.195A.342.342,0,0,1,92.212,201.774ZM126.13,195.5a.316.316,0,0,1-.3-.213,17.692,17.692,0,0,0-1.367-2.785.322.322,0,0,1,.548-.335,17.7,17.7,0,0,1,1.418,2.895.316.316,0,0,1-.187.413.251.251,0,0,1-.116.026Zm-31.751-2.2a.348.348,0,0,1-.161-.039.322.322,0,0,1-.123-.438,17.754,17.754,0,0,1,1.8-2.669.323.323,0,1,1,.5.406,17.67,17.67,0,0,0-1.741,2.579.316.316,0,0,1-.271.161Zm29.656-1.7a.316.316,0,0,1-.264-.135,17.407,17.407,0,0,0-5.48-4.971.316.316,0,0,1-.116-.438.322.322,0,0,1,.438-.122,18.206,18.206,0,0,1,5.686,5.158.329.329,0,0,1-.077.451.29.29,0,0,1-.168.045Zm-23.112-5.016a.316.316,0,0,1-.277-.155.329.329,0,0,1,.116-.445,17.658,17.658,0,0,1,7.317-2.334.324.324,0,0,1,.058.645,17.026,17.026,0,0,0-7.047,2.256.367.367,0,0,1-.148.032Zm11.6-2.147h-.052a17.1,17.1,0,0,0-3.095-.206.329.329,0,0,1-.329-.316.322.322,0,0,1,.316-.329,17.807,17.807,0,0,1,3.223.219.329.329,0,0,1,.271.367.322.322,0,0,1-.329.264Z" transform="translate(-91.89 -123.466)" fill="#fff"/><path d="M370.552,298.5a17.873,17.873,0,0,1-2.933-.232.32.32,0,1,1,.1-.632,17.41,17.41,0,0,0,2.83.219h.264a.335.335,0,0,1,.329.316.322.322,0,0,1-.316.329Zm1.534-.071a.323.323,0,0,1-.026-.645,17.033,17.033,0,0,0,7.047-2.237.329.329,0,0,1,.445.116.335.335,0,0,1-.122.445,17.736,17.736,0,0,1-7.311,2.321ZM361.74,296.17a.29.29,0,0,1-.161-.045,18.051,18.051,0,0,1-5.673-5.158.322.322,0,0,1,.077-.451.329.329,0,0,1,.451.077,17.356,17.356,0,0,0,5.467,4.984.329.329,0,0,1,.116.445A.322.322,0,0,1,361.74,296.17Zm22.326-4.1a.319.319,0,0,1-.251-.522,17.045,17.045,0,0,0,1.747-2.579.322.322,0,0,1,.438-.122.316.316,0,0,1,.122.438,18.048,18.048,0,0,1-1.805,2.663A.323.323,0,0,1,384.065,292.069Zm-28.618-2.037a.335.335,0,0,1-.277-.155,18.171,18.171,0,0,1-1.405-2.895.316.316,0,0,1,.187-.413.322.322,0,0,1,.413.187,17.409,17.409,0,0,0,1.36,2.785.322.322,0,0,1-.11.445.309.309,0,0,1-.168.045Zm30.945-1.708a.335.335,0,0,1-.135,0,.322.322,0,0,1-.155-.432,17.072,17.072,0,0,0,1.58-7.253v-.064a.322.322,0,0,1,.645,0v.064a17.731,17.731,0,0,1-1.644,7.5.322.322,0,0,1-.29.187Zm-33.44-7.35a.3.3,0,0,1-.322-.3v-.039a17.664,17.664,0,0,1,1.631-7.459.316.316,0,0,1,.426-.161.329.329,0,0,1,.161.426,17.058,17.058,0,0,0-1.573,7.195.335.335,0,0,1-.322.342Zm33.93-6.279a.329.329,0,0,1-.3-.206,16.9,16.9,0,0,0-1.367-2.785.324.324,0,0,1,.554-.335,18.131,18.131,0,0,1,1.412,2.888.322.322,0,0,1-.187.419.3.3,0,0,1-.11.026Zm-31.758-2.2a.322.322,0,0,1-.284-.477,17.969,17.969,0,0,1,1.805-2.669.321.321,0,1,1,.5.406,17.627,17.627,0,0,0-1.734,2.579.329.329,0,0,1-.284.168Zm29.656-1.689a.335.335,0,0,1-.264-.135,17.368,17.368,0,0,0-5.48-4.977.323.323,0,0,1,.322-.561,18.012,18.012,0,0,1,5.686,5.158.322.322,0,0,1-.077.445.3.3,0,0,1-.174.077Zm-23.112-5.016a.322.322,0,0,1-.277-.161.329.329,0,0,1,.116-.445,17.658,17.658,0,0,1,7.311-2.334.309.309,0,0,1,.348.29.316.316,0,0,1-.29.348,17.027,17.027,0,0,0-7.047,2.256.379.379,0,0,1-.148.052Zm11.6-2.153h-.045a17.173,17.173,0,0,0-3.1-.206.322.322,0,0,1,0-.645,17.762,17.762,0,0,1,3.223.219.323.323,0,0,1-.052.645Z" transform="translate(-184.532 -151.606)" fill="#fff"/><path d="M305.874,180.019a.322.322,0,0,1-.245-.529l17.723-21.275a.323.323,0,1,1,.5.413L306.119,179.9A.309.309,0,0,1,305.874,180.019Z" transform="translate(-167.806 -114.412)" fill="#fff"/><path d="M221.976,166.556a.329.329,0,0,1-.3-.2L211.738,143.4a.329.329,0,0,1,.161-.413.322.322,0,0,1,.426.174l9.941,22.958a.335.335,0,0,1-.3.451Z" transform="translate(-134.465 -109.032)" fill="#fff"/><path d="M343.906,279.712a.3.3,0,0,1-.11,0L325.635,272.9a.324.324,0,0,1,.232-.606l18.155,6.808a.328.328,0,1,1-.116.645Z" transform="translate(-174.867 -154.979)" fill="#fff"/><path d="M171.284,226.737a.251.251,0,0,1-.1,0l-25.614-8.181a.322.322,0,0,1,.2-.612l25.607,8.181a.316.316,0,0,1,.206.406A.309.309,0,0,1,171.284,226.737Z" transform="translate(-110.889 -135.67)" fill="#fff"/><path d="M341.227,145.734a17.458,17.458,0,0,1-2.908-.226.329.329,0,0,1-.271-.374.322.322,0,0,1,.367-.264,16.518,16.518,0,0,0,2.811.219h.29a.322.322,0,1,1,0,.645Zm1.554-.071a.316.316,0,0,1-.316-.29.322.322,0,0,1,.29-.355,16.968,16.968,0,0,0,7.053-2.237.323.323,0,1,1,.322.561,17.7,17.7,0,0,1-7.317,2.321ZM332.433,143.4a.3.3,0,0,1-.161-.045A18.051,18.051,0,0,1,326.6,138.2a.322.322,0,0,1,.529-.367,17.5,17.5,0,0,0,5.467,4.984.322.322,0,0,1,.122.438A.335.335,0,0,1,332.433,143.4Zm22.326-4.094a.3.3,0,0,1-.2-.077.316.316,0,0,1-.045-.451,17.772,17.772,0,0,0,1.741-2.579.323.323,0,0,1,.567.309,17.453,17.453,0,0,1-1.812,2.663.329.329,0,0,1-.251.135Zm-28.586-2.044a.316.316,0,0,1-.277-.155,17.875,17.875,0,0,1-1.412-2.888.322.322,0,0,1,.187-.419.316.316,0,0,1,.413.187,17.126,17.126,0,0,0,1.36,2.785.316.316,0,0,1-.11.445A.3.3,0,0,1,326.173,137.263Zm30.945-1.7a.348.348,0,0,1-.135,0,.322.322,0,0,1-.161-.426,17.02,17.02,0,0,0,1.586-7.227v-.071a.322.322,0,1,1,.645,0v.071a17.658,17.658,0,0,1-1.644,7.5.316.316,0,0,1-.3.155Zm-33.466-7.343a.309.309,0,0,1-.322-.309v-.032a17.7,17.7,0,0,1,1.631-7.466.329.329,0,0,1,.425-.161.335.335,0,0,1,.161.432,17.033,17.033,0,0,0-1.573,7.195.342.342,0,0,1-.329.342Zm33.93-6.279a.335.335,0,0,1-.3-.206,16.643,16.643,0,0,0-1.367-2.785.329.329,0,0,1,.11-.445.322.322,0,0,1,.445.11,18.454,18.454,0,0,1,1.418,2.888.322.322,0,0,1-.187.413.251.251,0,0,1-.122.026Zm-31.758-2.2a.341.341,0,0,1-.129-.058.329.329,0,0,1-.129-.438,18.586,18.586,0,0,1,1.805-2.663.322.322,0,1,1,.5.406,16.965,16.965,0,0,0-1.734,2.579.322.322,0,0,1-.316.174Zm29.656-1.689a.322.322,0,0,1-.258-.135,17.368,17.368,0,0,0-5.48-4.977.319.319,0,1,1,.316-.554,17.993,17.993,0,0,1,5.686,5.158.316.316,0,0,1-.077.445.3.3,0,0,1-.181.064Zm-23.112-5.016a.322.322,0,0,1-.161-.6,17.6,17.6,0,0,1,7.311-2.34.322.322,0,0,1,.355.29.329.329,0,0,1-.3.355,16.956,16.956,0,0,0-7.047,2.25.277.277,0,0,1-.155.045Zm11.6-2.153h-.052a17.187,17.187,0,0,0-3.095-.213.322.322,0,1,1,0-.645,18.5,18.5,0,0,1,3.223.219.323.323,0,0,1-.052.645Z" transform="translate(-174.122 -97.327)" fill="#fff"/></g></g><g transform="translate(252.781 209.948)"><path d="M385.638,288.52h2.895a4.455,4.455,0,0,1,4.455,4.455v2.16h-11.8v-2.16a4.455,4.455,0,0,1,4.448-4.455Z" transform="translate(-368.283 -280.365)" fill="#263238"/><path d="M387.425,290.344l1.547-.542h0l1.547.542.935-1.7a4.565,4.565,0,0,0-1.031-.122l-1.451,1.218-1.451-1.218a4.565,4.565,0,0,0-1.031.123Z" transform="translate(-370.166 -280.365)" fill="#fff" opacity="0.3"/><path d="M392.991,293.057v2.16H381.18v-2.16a4.461,4.461,0,0,1,2.921-4.171,3.372,3.372,0,0,1,.361-.116l.986,2.334,1.644-.909,1.638.909.98-2.334A4.442,4.442,0,0,1,392.991,293.057Z" transform="translate(-368.28 -280.453)" fill="#fff" opacity="0.3"/><path d="M389.831,295.339l.935-.819-.735-2.643.509-1.07-.716-.3h0l-.716.3.516,1.07-.735,2.643.935.819h.006Z" transform="translate(-371.019 -281.072)" fill="#263238"/><path d="M388.645,284.76h0a3.082,3.082,0,0,1-3.075-3.069v-2.746a3.088,3.088,0,0,1,3.075-3.075h0a3.088,3.088,0,0,1,3.075,3.075v2.746a3.082,3.082,0,0,1-3.075,3.069Z" transform="translate(-369.839 -275.87)" fill="#f8951d"/><path d="M388.645,284.76h0a3.082,3.082,0,0,1-3.075-3.069v-2.746a3.088,3.088,0,0,1,3.075-3.075h0a3.088,3.088,0,0,1,3.075,3.075v2.746a3.082,3.082,0,0,1-3.075,3.069Z" transform="translate(-369.839 -275.87)" fill="#fff" opacity="0.3"/><path d="M365.625,288.52h2.895a4.455,4.455,0,0,1,4.455,4.455v2.16h-11.8v-2.16A4.455,4.455,0,0,1,365.625,288.52Z" transform="translate(-361.17 -280.365)" fill="#263238"/><path d="M367.415,290.344l1.547-.542h0l1.547.542.935-1.7a4.576,4.576,0,0,0-1.038-.122l-1.444,1.218-1.451-1.218a4.515,4.515,0,0,0-1.031.122Z" transform="translate(-363.057 -280.365)" fill="#fff" opacity="0.3"/><path d="M372.984,293.057v2.16h-11.8v-2.16a4.442,4.442,0,0,1,3.275-4.287l.98,2.334,1.644-.909,1.644.909.986-2.334a3.365,3.365,0,0,1,.361.116,4.455,4.455,0,0,1,2.914,4.171Z" transform="translate(-361.174 -280.453)" fill="#fff" opacity="0.3"/><path d="M369.815,295.339l.941-.819-.735-2.643.509-1.07-.716-.3h0l-.716.3.509,1.07-.729,2.643.935.819Z" transform="translate(-363.909 -281.072)" fill="#263238"/><path d="M368.635,284.76h0a3.082,3.082,0,0,1-3.075-3.069v-2.746a3.088,3.088,0,0,1,3.075-3.075h0a3.082,3.082,0,0,1,3.069,3.075v2.746A3.075,3.075,0,0,1,368.635,284.76Z" transform="translate(-362.73 -275.87)" fill="#f8951d"/><path d="M368.635,284.76h0a3.082,3.082,0,0,1-3.075-3.069v-2.746a3.088,3.088,0,0,1,3.075-3.075h0a3.082,3.082,0,0,1,3.069,3.075v2.746A3.075,3.075,0,0,1,368.635,284.76Z" transform="translate(-362.73 -275.87)" fill="#fff" opacity="0.3"/><path d="M376.42,293.132v2.16h-5.57a5.312,5.312,0,0,1,3.14-3.314,3.63,3.63,0,0,1-.509-1.934V288.98A4.455,4.455,0,0,1,376.42,293.132Z" transform="translate(-364.609 -280.528)" opacity="0.2"/><path d="M386.757,295.281H381.18v-2.16a4.461,4.461,0,0,1,2.921-4.171v1.064a3.63,3.63,0,0,1-.509,1.934A5.325,5.325,0,0,1,386.757,295.281Z" transform="translate(-368.28 -280.517)" opacity="0.2"/><path d="M375.635,294.83h2.895a4.455,4.455,0,0,1,4.455,4.455v2.16h-11.8v-2.16A4.455,4.455,0,0,1,375.635,294.83Z" transform="translate(-364.727 -282.607)" fill="#263238"/><path d="M377.415,296.661l1.547-.542h0l1.541.542.935-1.7a4.513,4.513,0,0,0-1.031-.129l-1.451,1.218-1.444-1.218a4.513,4.513,0,0,0-1.032.129Z" transform="translate(-366.61 -282.607)" fill="#fff" opacity="0.3"/><path d="M379.709,295.09l-.986,2.334-1.644-.909-1.638.909-.986-2.334a4.442,4.442,0,0,0-3.275,4.287v2.16h11.8v-2.16a4.455,4.455,0,0,0-3.275-4.287Z" transform="translate(-364.727 -282.699)" fill="#fff" opacity="0.3"/><path d="M379.821,301.659l.935-.819-.735-2.643.509-1.07-.709-.3h0l-.716.3.509,1.07-.735,2.643.935.819h.006Z" transform="translate(-367.462 -283.317)" fill="#263238"/><path d="M378.639,291.107h0a3.075,3.075,0,0,1-3.069-3.069v-2.734a3.082,3.082,0,0,1,3.069-3.075h0a3.082,3.082,0,0,1,3.075,3.075v2.746a3.075,3.075,0,0,1-3.075,3.056Z" transform="translate(-366.286 -278.13)" fill="#f8951d"/><path d="M378.639,291.107h0a3.075,3.075,0,0,1-3.069-3.069v-2.734a3.082,3.082,0,0,1,3.069-3.075h0a3.082,3.082,0,0,1,3.075,3.075v2.746a3.075,3.075,0,0,1-3.075,3.056Z" transform="translate(-366.286 -278.13)" fill="#fff" opacity="0.3"/></g><g transform="translate(234.426 110.414)"><rect width="13.816" height="9.825" transform="translate(0 9.825)" fill="#263238"/><rect width="8.381" height="9.825" transform="translate(0 9.825)" fill="#fff" opacity="0.3"/><rect width="1.09" height="0.554" transform="translate(10.67 9.825)" fill="#fff" opacity="0.3"/><rect width="1.09" height="0.554" transform="translate(10.67 19.096)" fill="#fff" opacity="0.3"/><rect width="2.134" height="1.386" transform="translate(5.28 17.71)" fill="#fff"/><rect width="13.816" height="9.825" transform="translate(4.848)" fill="#263238"/><rect width="8.381" height="9.825" transform="translate(4.848)" fill="#fff" opacity="0.3"/><rect width="1.09" height="0.554" transform="translate(15.524)" fill="#fff" opacity="0.3"/><rect width="1.09" height="0.554" transform="translate(15.524 9.271)" fill="#fff" opacity="0.3"/><rect width="2.134" height="1.386" transform="translate(10.128 7.885)" fill="#fff"/><rect width="13.816" height="9.825" transform="translate(9.819 9.825)" fill="#f8951d"/><rect width="8.381" height="9.825" transform="translate(9.819 9.825)" fill="#fff" opacity="0.3"/><rect width="1.09" height="0.554" transform="translate(20.488 9.825)" fill="#fff" opacity="0.3"/><rect width="1.09" height="0.554" transform="translate(20.488 19.096)" fill="#fff" opacity="0.3"/><rect width="2.134" height="1.386" transform="translate(15.092 17.71)" fill="#fff"/></g><g transform="translate(138.251 95.534)"><path d="M198.79,104.505v2.314l1.193.11a6.234,6.234,0,0,0,.883,2.134l-.761.922,1.631,1.631.922-.767a6.2,6.2,0,0,0,2.134.89l.11,1.186h2.308l.11-1.186a6.2,6.2,0,0,0,2.134-.89l.922.767,1.631-1.631-.761-.922a6.112,6.112,0,0,0,.883-2.134l1.193-.11v-2.314l-1.193-.11a6.06,6.06,0,0,0-.883-2.134l.761-.922-1.631-1.631-.922.767a6.2,6.2,0,0,0-2.134-.89l-.11-1.186H204.9l-.11,1.186a6.2,6.2,0,0,0-2.134.89l-.922-.767-1.631,1.657.761.922a6.183,6.183,0,0,0-.883,2.134Zm7.266-1.966a3.127,3.127,0,1,1-3.127,3.12,3.127,3.127,0,0,1,3.127-3.12Z" transform="translate(-188.945 -98.4)" fill="#f8951d"/><path d="M198.19,129.85a5.2,5.2,0,0,0,1.824-.761l.787.645,1.4-1.4-.645-.787a5.248,5.248,0,0,0,.761-1.824l1.019-.1v-1.973l-1.019-.1a5.2,5.2,0,0,0-.761-1.824l.645-.793-1.4-1.393-.787.645a5.306,5.306,0,0,0-1.824-.754l-.1-1.019h-1.986l-.1,1.019a5.306,5.306,0,0,0-1.837.774l-.787-.645-1.4,1.393.645.793a5.306,5.306,0,0,0-.754,1.824l-1.019.1v1.973l1.019.1a5.364,5.364,0,0,0,.754,1.824l-.645.787,1.4,1.4.787-.645a5.2,5.2,0,0,0,1.824.761l.1,1.019h1.973Zm-3.759-5.2a2.675,2.675,0,1,1,2.675,2.669,2.675,2.675,0,0,1-2.675-2.669Z" transform="translate(-186.128 -105.513)" fill="#263238"/><path d="M191.179,114.645l.645.548L193,114.02l-.548-.645a4.512,4.512,0,0,0,.645-1.534l.851-.084v-1.67l-.851-.077a4.429,4.429,0,0,0-.645-1.534l.548-.645-1.173-1.173-.645.554a4.513,4.513,0,0,0-1.534-.645l-.077-.857H187.9l-.077.832a4.429,4.429,0,0,0-1.534.645l-.645-.554-1.173,1.2.548.645a4.429,4.429,0,0,0-.645,1.534l-.857.077v1.657l.857.084a4.513,4.513,0,0,0,.645,1.534l-.548.645,1.167,1.173.645-.548a4.429,4.429,0,0,0,1.534.645l.077.851h1.663l.077-.851a4.513,4.513,0,0,0,1.541-.632Zm-4.687-3.726a2.244,2.244,0,1,1,2.244,2.244A2.244,2.244,0,0,1,186.492,110.919Z" transform="translate(-183.52 -100.997)" fill="#263238"/><path d="M198.19,129.85a5.2,5.2,0,0,0,1.824-.761l.787.645,1.4-1.4-.645-.787a5.248,5.248,0,0,0,.761-1.824l1.019-.1v-1.973l-1.019-.1a5.2,5.2,0,0,0-.761-1.824l.645-.793-1.4-1.393-.787.645a5.306,5.306,0,0,0-1.824-.754l-.1-1.019h-1.986l-.1,1.019a5.306,5.306,0,0,0-1.837.774l-.787-.645-1.4,1.393.645.793a5.306,5.306,0,0,0-.754,1.824l-1.019.1v1.973l1.019.1a5.364,5.364,0,0,0,.754,1.824l-.645.787,1.4,1.4.787-.645a5.2,5.2,0,0,0,1.824.761l.1,1.019h1.973Zm-3.759-5.2a2.675,2.675,0,1,1,2.675,2.669,2.675,2.675,0,0,1-2.675-2.669Z" transform="translate(-186.128 -105.513)" fill="#fff" opacity="0.3"/></g><g transform="translate(81.548 156.346)"><rect width="20.946" height="10.631" transform="translate(6.681 8.648)" fill="#263238"/><path d="M125.258,207.75H108.8a1.109,1.109,0,0,1-1.109,1.115v6.324A1.109,1.109,0,0,1,108.8,216.3h16.459a1.109,1.109,0,0,1,1.109-1.109v-6.324a1.109,1.109,0,0,1-1.109-1.115Zm-8.226,6.408a2.134,2.134,0,1,1,2.128-2.134,2.134,2.134,0,0,1-2.128,2.134Z" transform="translate(-99.874 -198.064)" fill="#fff" opacity="0.3"/><circle cx="6.711" cy="6.711" r="6.711" transform="translate(0 5.137) rotate(-22.5)" fill="#f8951d"/><circle cx="5.725" cy="5.725" r="5.725" transform="translate(3.045 3.046)" fill="#fff" opacity="0.3"/><path d="M108.247,207.169v.967h-.7v-.961a3.784,3.784,0,0,1-2.115-.716l.387-.87a3.333,3.333,0,0,0,1.728.645v-1.721c-.961-.232-1.986-.542-1.986-1.741,0-.883.645-1.65,1.986-1.779V200h.7v.961a3.662,3.662,0,0,1,1.754.522l-.355.87a3.623,3.623,0,0,0-1.4-.464v1.741c.961.232,2,.535,2,1.734C110.252,206.273,109.608,207.034,108.247,207.169Zm-.7-3.694v-1.541c-.612.1-.87.406-.87.787S107.042,203.327,107.545,203.475Zm1.605,1.992c0-.419-.38-.645-.9-.767v1.528c.632-.1.9-.387.9-.761Z" transform="translate(-99.071 -195.31)" fill="#f8951d"/></g><g transform="translate(198.562 253.633)"><path d="M341.062,343.63l-2.611.529-.845,5.158-2.134-1.889-4.771.973-2.244,8.716-2.792-3.662a54.857,54.857,0,0,1-28.244,15.737l-3.41-5.125-2.353.477-1.322,3.1-1.6.329-.993-1.8-10.676,2.192.812,3.984,4.513-.915.432,2.089-4.513.915.864,4.242,4.513-.915.548,2.695-4.513.922.864,4.242,4.513-.915.426,2.089-4.513.922.812,3.984,10.67-2.185.213-2.044,1.6-.329,2.43,2.334,2.347-.484,1.135-6.047a54.8,54.8,0,0,1,32.151,3.423L333.5,381.9l5.486,7.143,4.771-.974,1.225-2.579,2.792,4.4,2.611-.535Z" transform="translate(-277.07 -343.63)" fill="#263238"/><path d="M341.062,343.63l-2.611.529-.845,5.158-2.134-1.889-4.771.973-2.244,8.716-2.792-3.662a54.857,54.857,0,0,1-28.244,15.737l-3.41-5.125-2.353.477-1.322,3.1-1.6.329-.993-1.8-10.676,2.192.812,3.984,4.513-.915.432,2.089-4.513.915.864,4.242,4.513-.915.548,2.695-4.513.922.864,4.242,4.513-.915.426,2.089-4.513.922.812,3.984,10.67-2.185.213-2.044,1.6-.329,2.43,2.334,2.347-.484,1.135-6.047a54.8,54.8,0,0,1,32.151,3.423L333.5,381.9l5.486,7.143,4.771-.974,1.225-2.579,2.792,4.4,2.611-.535Z" transform="translate(-277.07 -343.63)" fill="#fff" opacity="0.2"/><path d="M352.45,358.85l2.792,3.662,5.054,24.795-1.128,4.474Z" transform="translate(-303.853 -349.038)" opacity="0.2"/><path d="M308.433,400.26l-5.093-24.95,3.423,5.125,2.8,13.771Z" transform="translate(-286.404 -354.886)" opacity="0.2"/><path d="M298.394,401.937,293.63,378.58l.993,1.8,3.984,19.515Z" transform="translate(-282.954 -356.048)" opacity="0.2"/><path d="M304.065,401l-5.093-24.95-1.322,3.1,3.984,19.515Z" transform="translate(-284.382 -355.149)" fill="#fff" opacity="0.1"/><path d="M375.957,390.154l-8.3-40.654,2.134,1.889,7.388,36.193Z" transform="translate(-309.257 -345.716)" opacity="0.2"/><path d="M367.282,391.664l-8.3-40.654L356.67,360l4.958,24.3Z" transform="translate(-305.352 -346.252)" fill="#fff" opacity="0.1"/><path d="M381.15,390.191l-9.335-45.741-.845,5.145,7.388,36.193Z" transform="translate(-310.433 -343.921)" fill="#fff" opacity="0.1"/><path d="M283.5,411.92l5.009-1.019s-.322-2.611-1.289-3.572l.426,2.089-4.513.922Z" transform="translate(-279.223 -366.263)" opacity="0.2"/><path d="M277.84,385.129l5-1.019s.729,2.521.239,3.784l-.432-2.1-4.513.915Z" transform="translate(-277.344 -358.013)" opacity="0.2"/><path d="M284.333,388.325l-4.693.961.729,3.591,4.7-.961.335,1.65.335,1.65-4.693.954.729,3.591,4.7-.954a10.915,10.915,0,0,1,1.335,3.423s4.081-3.017,2.714-9.709-6.3-7.872-6.3-7.872A10.869,10.869,0,0,1,284.333,388.325Z" transform="translate(-277.983 -358.205)" fill="#fff" opacity="0.1"/><path d="M312.789,393.631,310.21,381.1s9.883-2.1,14.461-4.945c0,0,10.276,4.719,3.372,16.524C328.062,392.684,322.969,391.471,312.789,393.631Z" transform="translate(-288.845 -355.188)" fill="#fff" opacity="0.1"/></g><g transform="translate(138.515 134.962)"><g transform="translate(0 0)"><path d="M191.036,262.62,187,263.832l3.539,3.965s3.223-1.792,2.411-3.591Z" transform="translate(-185.021 -196.176)" fill="#ffb573"/><path d="M183.93,267.311l3.082,3.14,2.45-1.986-3.539-3.965Z" transform="translate(-183.93 -196.844)" fill="#ffb573"/><path d="M214.332,212.406c.935,2.734-3.288,17.806-4.629,20.94s-13.913,13.745-14.6,14.112-3.107-3.069-2.895-3.275,11.553-12.146,11.714-12.952c.3-1.483,3.223-19.341,3.223-19.341s.393,2.011,3.791.645A6.8,6.8,0,0,1,214.332,212.406Z" transform="translate(-186.868 -178.152)" fill="#f8951d"/><path d="M213.823,218.459c-.677,3.475-1.792,7.678-2.74,10.824-.554,1.831-1.051,3.3-1.38,4.068-1.335,3.127-13.913,13.738-14.6,14.106s-3.114-3.069-2.895-3.275,11.553-12.152,11.721-12.952c.3-1.483,3.185-19.341,3.185-19.341s.393,2.005,3.8.645a7.262,7.262,0,0,1,3.417-.116C214.635,213.328,214.37,215.655,213.823,218.459Z" transform="translate(-186.868 -178.152)" fill="#fff" opacity="0.7"/><path d="M223.317,221.4c-.677,3.475-1.792,7.678-2.74,10.824-2.8-5.525-1.206-12.062-1.206-12.062a6.969,6.969,0,0,1,3.946,1.238Z" transform="translate(-196.362 -181.09)" opacity="0.1"/><path d="M215.34,205.562s4.01,18.4,15.9,32.157l22.113-10.457c-1.521-3.63-9.387-15.015-13.874-33.382a66.525,66.525,0,0,0-8.213,2.682,93.765,93.765,0,0,0-9.838,4.655,48.354,48.354,0,0,0-6.092,4.345Z" transform="translate(-195.09 -171.753)" fill="#f8951d"/><path d="M253.358,227.282l-22.119,10.463c-11.888-13.751-15.9-32.183-15.9-32.183a48.355,48.355,0,0,1,6.092-4.345,91.427,91.427,0,0,1,9.844-4.648,67.263,67.263,0,0,1,8.207-2.688c.419,1.721.87,3.385,1.341,4.977.825,2.785,1.715,5.383,2.624,7.788C247.594,217.611,252.229,224.587,253.358,227.282Z" transform="translate(-195.09 -171.753)" fill="#fff" opacity="0.7"/><path d="M300.876,409.459l5.9.09a.426.426,0,0,1,.406.342l.89,4.339a.709.709,0,0,1-.561.838.464.464,0,0,1-.161,0c-1.934-.058-3.294-.2-5.693-.239-1.476,0-5.931.065-7.968.032s-2.276-2.05-1.438-2.224c3.759-.754,6.589-1.844,7.807-2.895a1.128,1.128,0,0,1,.819-.284Z" transform="translate(-222.256 -248.348)" fill="#263238"/><path d="M248.409,244.15s6.092,10.476,7.324,14.067c3.5,10.225,5.938,37.618,6.537,42.55C263.411,310.18,276.511,351,276.511,351h-8.033s-17.155-34.324-19.844-43.085-7.42-30.713-7.42-30.713-21.011,24.7-24.376,29.553,5.925,44.265,5.925,44.265H214.73s-13.294-34.227-11.675-46.592,23.718-40.074,24.2-41.525c.645-1.85-1.077-8.42-1.077-8.42Z" transform="translate(-190.677 -189.614)" fill="#263238"/><path d="M217.506,409.459l5.9.09a.438.438,0,0,1,.413.342l.883,4.339a.709.709,0,0,1-.561.838.458.458,0,0,1-.161,0c-1.934-.058-3.294-.2-5.693-.239-1.476,0-5.931.065-7.968.032s-2.276-2.05-1.438-2.224c3.759-.754,6.589-1.844,7.807-2.895A1.128,1.128,0,0,1,217.506,409.459Z" transform="translate(-192.634 -248.348)" fill="#263238"/><path d="M250.706,295.765a91.052,91.052,0,0,0,2.34-9.8c-6.305-4.887-5.59-10.586-5.59-10.586,2.766,3.256,9.026,4.558,9.026,4.558l.535,8.381S254.322,291.478,250.706,295.765Z" transform="translate(-206.493 -200.71)" opacity="0.2"/><path d="M262.261,246.99l-1.193-2.54L239.71,254.913l.58,2.753Z" transform="translate(-203.749 -189.72)" fill="#263238"/><path d="M262.261,246.99l-1.193-2.54L239.71,254.913l.58,2.753Z" transform="translate(-203.749 -189.72)" fill="#fff" opacity="0.2"/><path d="M247.248,256.081l1.077,2.282a.342.342,0,0,1-.148.471l-3.32,1.476a.322.322,0,0,1-.406-.161l-1.206-2.211a.355.355,0,0,1,.142-.49l3.443-1.541A.322.322,0,0,1,247.248,256.081Z" transform="translate(-204.988 -193.782)" fill="#fff"/><path d="M256.14,252.5l1.328,3.095,1.1-.316L257.1,252.02Z" transform="translate(-209.587 -192.41)" fill="#263238"/><path d="M269.27,246.035l1.567,2.959.78-.219-1.67-3.075Z" transform="translate(-214.252 -190.164)" fill="#263238"/><path d="M240.828,259.5l1.07,3.114-.574.4-1.335-3.236Z" transform="translate(-203.848 -195.068)" fill="#263238"/><path d="M226.13,206.352c.342.948,2.289,2.211,2.289,2.211a8.794,8.794,0,0,0,2.011,1.193s6.382,12.978,23.892,10.451l1.966-1.876-3.759-1.87s-4.642,2.2-11.811-.245-9.838-6.847-9.838-6.847l-.271-1.766,1.934-3.733H231.2l-1.019,3.507s-1.167.986-1.747.793-1.573-2.179-1.573-2.179Z" transform="translate(-198.924 -175.302)" fill="#f8951d"/><path d="M228.42,181.61c.877,3.462,3,9.554,6.208,10.618a63.62,63.62,0,0,0-3.971,5.216,3.385,3.385,0,0,1-5.615-.052,2.333,2.333,0,0,1-.251-.509c3.133-2.514,1.805-5.093,0-7.259Z" transform="translate(-198.448 -167.393)" fill="#ffb573"/><path d="M226.964,186.68,224.83,191.4A10.96,10.96,0,0,1,225.958,193c1.257-.832,2.411-3.223,1.889-4.668a5.215,5.215,0,0,0-.883-1.657Z" transform="translate(-198.462 -169.194)" opacity="0.2"/><path d="M232.336,195.38l-4.236,6.112-.432,1.837-1.766-1.786-.277-2.372-2.985,3.462,1.412,3.746,1.212-2.572,2.65.458,2.6-1.67,2.869,1.792,2.353-7.994Z" transform="translate(-197.684 -172.286)" fill="#f8951d"/><path d="M235.744,196.4l-2.347,7.988-2.875-1.792-2.6,1.663-2.65-.445-1.212,2.566-1.4-3.726-.006-.019,2.979-3.462.284,2.379,1.76,1.779.432-1.837,4.236-6.112Z" transform="translate(-197.687 -172.286)" fill="#fff" opacity="0.7"/><path d="M225.11,206.724l2.811,1.541-2.65-.445-1.212,2.566-1.4-3.726,1.4,3.159Z" transform="translate(-197.691 -176.293)" opacity="0.1"/><path d="M238.647,196.96l-2.347,7.988-2.875-1.792-2.6,1.663,2.237-2.437,3.217,1.386Z" transform="translate(-200.59 -172.847)" opacity="0.1"/><path d="M206.208,171.658c-2.579,2.914,2.2,9.67,4.01,9.735C213.59,181.464,209.438,168.035,206.208,171.658Z" transform="translate(-191.58 -163.637)" fill="#263238"/><path d="M220.624,171.656c1.76,4.41,3.017,6.9,1.9,10.128-1.7,4.855-7.917,5.39-10.96,1.592-2.746-3.417-5.158-10.057-1.773-13.751a6.486,6.486,0,0,1,10.837,2.031Z" transform="translate(-192.528 -162.384)" fill="#ffb573"/><path d="M227.527,166.17c1.289,2.469,1.625,10.534-.251,11.224s-4.255-2.972-5.016-6.937Z" transform="translate(-197.549 -161.907)" fill="#263238"/><path d="M231.611,178.516a4.513,4.513,0,0,1-1.7,3c-1.251.973-2.469,0-2.617-1.5-.135-1.341.355-3.462,1.85-3.868a2.031,2.031,0,0,1,2.463,2.366Z" transform="translate(-199.331 -165.433)" fill="#ffb573"/><path d="M217.793,180.311c.168.348.116.716-.116.825s-.548-.09-.709-.438-.116-.716.116-.825S217.6,179.943,217.793,180.311Z" transform="translate(-195.634 -166.764)" fill="#263238"/><path d="M211.672,183.2c.161.348.11.722-.116.825s-.548-.084-.709-.432-.116-.722.11-.832S211.5,182.854,211.672,183.2Z" transform="translate(-193.46 -167.792)" fill="#263238"/><path d="M214.108,182.81a13.635,13.635,0,0,1-.258,3.771,2.218,2.218,0,0,0,1.818-.471Z" transform="translate(-194.561 -167.819)" fill="#ed893e"/><path d="M218.85,187.335a.122.122,0,0,1-.135-.064.116.116,0,0,1,.052-.148,3.049,3.049,0,0,0,1.747-2.147.11.11,0,0,1,.129-.1.116.116,0,0,1,.1.129,3.275,3.275,0,0,1-1.876,2.321Z" transform="translate(-196.286 -168.554)" fill="#263238"/><path d="M217.983,177.354a.232.232,0,0,1-.174,0,1.786,1.786,0,0,0-1.638-.064.232.232,0,0,1-.309-.09.239.239,0,0,1,.077-.322,2.263,2.263,0,0,1,2.069.058.226.226,0,0,1,.1.309A.219.219,0,0,1,217.983,177.354Z" transform="translate(-195.264 -165.632)" fill="#263238"/><path d="M208.3,181.475h-.077a.232.232,0,0,1-.226-.232,2.256,2.256,0,0,1,.928-1.85.239.239,0,0,1,.316.071.226.226,0,0,1-.071.309,1.805,1.805,0,0,0-.716,1.476.251.251,0,0,1-.155.226Z" transform="translate(-192.482 -166.594)" fill="#263238"/><path d="M222.012,168.682s.806-7.453-5.158-8.916-12.965,5.158-12.965,8.794,8.207,1.631,10.315-1.792C214.276,166.767,215.475,172.124,222.012,168.682Z" transform="translate(-191.022 -159.558)" fill="#263238"/><path d="M257.056,209.435a7.789,7.789,0,0,1-3.3-7.736,5.965,5.965,0,0,1,.677-.039C255.258,204.458,256.147,207.037,257.056,209.435Z" transform="translate(-208.698 -174.517)" opacity="0.1"/><path d="M290.97,250.811l12.842-22.861,4.764-1.67,11.024,7.891-.819,1.309,8.845,6.55-13.506,23.88h-4.3Z" transform="translate(-221.962 -183.264)" fill="#263238"/><path d="M290.97,250.811l3.2-.484,11.244,7.743,14.19-23.9-11.024-7.891-4.764,1.67Z" transform="translate(-221.962 -183.264)" fill="#fff" opacity="0.2"/><path d="M296.52,256.6l19.573,14.712,13.506-23.88-8.026-5.944-13.809,22.622Z" transform="translate(-223.934 -188.669)" fill="#fff" opacity="0.2"/><path d="M321.4,252.32l5.622,4.313L325.6,258.98l-5.615-4.2Z" transform="translate(-232.269 -192.517)" fill="#263238"/><path d="M324.189,258.323a.432.432,0,0,1-.251-.077l-1.85-1.386a.406.406,0,0,1-.1-.548l1.483-2.379a.406.406,0,0,1,.277-.187.387.387,0,0,1,.322.077l1.773,1.373a.413.413,0,0,1,.11.535l-1.4,2.385a.419.419,0,0,1-.277.2Zm-1.289-1.934,1.173.883.98-1.689-1.148-.825Z" transform="translate(-232.959 -193.02)" fill="#fff"/><path d="M305.271,237.5a6.3,6.3,0,0,0-5.357.645c-3.049,1.683-2.611,7.42-1.934,8.787h.928l1.025-1.857s-2.34-2.443-.535-5.125a3.174,3.174,0,0,1,4.255-1.289h.909Z" transform="translate(-224.278 -187.137)" fill="#263238"/><path d="M296.13,234.5l.484,4.171,4.513-2.792s-1.206-3.456-3.114-3Z" transform="translate(-223.795 -185.594)" fill="#ffb573"/><path d="M299.3,242.808l3.636-2.482-1.528-2.766-4.526,2.792Z" transform="translate(-224.062 -187.272)" fill="#ffb573"/><path d="M252.49,193.909c2.862-.438,16.962,6.357,19.811,8.226s11.1,16.117,11.34,16.839-3.572,2.521-3.739,2.282-9.935-13.539-10.7-13.809c-1.412-.554-14.557-4.771-14.557-4.771a10.65,10.65,0,0,1-2.637-5.377A7.28,7.28,0,0,1,252.49,193.909Z" transform="translate(-208.096 -171.756)" fill="#f8951d"/><path d="M252.49,193.909c2.862-.438,16.962,6.357,19.811,8.226s11.1,16.117,11.34,16.839-3.572,2.521-3.739,2.282-9.935-13.539-10.7-13.809c-1.412-.554-14.557-4.771-14.557-4.771a10.65,10.65,0,0,1-2.637-5.377A7.28,7.28,0,0,1,252.49,193.909Z" transform="translate(-208.096 -171.756)" fill="#fff" opacity="0.7"/></g></g><g transform="translate(102.27 201.251)"><path d="M157.739,271.959s-1.438-3.223-4.339-4.268c0,0,12.526-3.726,19.27-1.341s10.5,17.884,9.87,22.977c0,0-1.766,4.59-2.2,15.737,0,0-7.446-3.185-8.465-5.338S157.739,271.959,157.739,271.959Z" transform="translate(-136.838 -263.507)" fill="#f8951d"/><path d="M157.739,271.959s-1.438-3.223-4.339-4.268c0,0,12.526-3.726,19.27-1.341s10.5,17.884,9.87,22.977c0,0-1.766,4.59-2.2,15.737,0,0-7.446-3.185-8.465-5.338S157.739,271.959,157.739,271.959Z" transform="translate(-136.838 -263.507)" opacity="0.2"/><path d="M176.869,316.918l-9.554,9.612-20.282-2.837-5.918-13.139s11.553-10.87,14.789-19.831c0,0-4.016-2.115-7.324-1.644a5.016,5.016,0,0,0-4.152,3.223l-3.868-1.9,1-7.163a12.894,12.894,0,0,0,9.026-9.477s8.929-3.12,15.666-1.289a23.6,23.6,0,0,1,9.18,18.7S171.789,308.614,176.869,316.918Z" transform="translate(-132.276 -265.761)" fill="#f8951d"/><path d="M178.72,278.88a3.636,3.636,0,0,1,1.006.864A12.557,12.557,0,0,0,178.72,278.88Z" transform="translate(-145.834 -268.243)" opacity="0.2"/><path d="M176.869,319.868l-9.554,9.612-20.282-2.837L141.114,313.5s11.553-10.87,14.789-19.831c0,0-4.016-2.115-7.324-1.644a5.016,5.016,0,0,0-4.152,3.223l-3.868-1.9,3.591-.058s2.4-4.848,7.453-4.764,9.026,4.442,9.026,4.442,7.736-3.352,7.285-7.968a8.608,8.608,0,0,0-1.747-4.8,11.944,11.944,0,0,1,3.939,8.542c-.077,5.8-10.882,20.469-26.871,25.395,0,0,4.2,6.756,14.448,8.188A39.665,39.665,0,0,0,176.869,319.868Z" transform="translate(-132.276 -268.712)" opacity="0.2"/><path d="M174.942,270.258s-3.294,1.547-7.943-.69c0,0-.084-4.706,1.006-7.188h0a30.413,30.413,0,0,0,5.912,7.156,11.719,11.719,0,0,0,1.025.722Z" transform="translate(-141.669 -262.38)" fill="#f8951d"/><path d="M170.728,271.065s-2.617-5.519-2.7-7.595a28.366,28.366,0,0,0-.986,6.447C167.059,272.837,170.728,271.065,170.728,271.065Z" transform="translate(-141.684 -262.767)" opacity="0.2"/><path d="M144.867,290.509s-1.019-.045-1.077.361a1.85,1.85,0,0,0,.374,1S145.028,291.122,144.867,290.509Z" transform="translate(-133.423 -272.374)" opacity="0.2"/><path d="M169.744,362.622l2.495-1.386.67-4.816-7.7-5.183-2.8-.393-18.948-2.65-2.8-.393-8.832,2.875-.67,4.816,2.018,2.018-5.087,1.16-.367,2.643,46.231,6.46.374-2.637Z" transform="translate(-127.71 -292.73)" fill="#f8951d"/><path d="M133.04,359.73l41.093,5.744-2.495,1.386-36.58-5.112Z" transform="translate(-129.604 -296.969)" opacity="0.2"/><path d="M134.08,350.675l41.093,5.744-7.7-5.183L142.912,347.8Z" transform="translate(-129.973 -292.73)" fill="#fff" opacity="0.1"/><path d="M128.28,364.02l46.238,6.466-4.571-2.514-36.58-5.112Z" transform="translate(-127.913 -298.081)" fill="#fff" opacity="0.1"/><path d="M174.518,269.555a2.668,2.668,0,0,1-2.218.5c-1.6-1.534-3.7-7.672-3.7-7.672h0A30.231,30.231,0,0,0,174.518,269.555Z" transform="translate(-142.238 -262.38)" fill="#fff" opacity="0.1"/><path d="M151.63,281.282a11.4,11.4,0,0,0,4.932-4.365s3.707,1.438,4.2,2.437-3.868.754-3.868.754.7,5.158,7.221,8.787c0,0,6.215-2.959,5.66-6.924a10.689,10.689,0,0,0-3.146-6.2s-4.513.993-5.834-1.966A41.627,41.627,0,0,0,155,275.1S154.692,277.891,151.63,281.282Z" transform="translate(-136.209 -266.441)" fill="#fff" opacity="0.1"/><path d="M142.677,291.2l-.542.284s-.122-1.509.174-1.876,2.044-.683,2.044-.683,3.475,1.5,3.61,2.643a11.289,11.289,0,0,0-3.475,3.958l-2.663-.045a5.474,5.474,0,0,1,.471-2.811s1.612-.464,2-1.367c.322-.741.438-1.708-.741-1.5a1.1,1.1,0,0,0-.877,1.4Z" transform="translate(-132.716 -271.81)" fill="#fff" opacity="0.1"/><path d="M182.481,302.64s-13.539,15.511-16.221,23.4c0,0,3.817,3.223,17.355,1.438C183.615,327.474,178.342,319.834,182.481,302.64Z" transform="translate(-141.407 -276.685)" fill="#fff" opacity="0.1"/><path d="M158.87,281.638l.554-1.038s1.186.374,1.515.954A4.1,4.1,0,0,1,158.87,281.638Z" transform="translate(-138.781 -268.854)" opacity="0.2"/></g></g></svg>