<svg xmlns="http://www.w3.org/2000/svg" width="250" height="251.936" viewBox="0 0 250 251.936"><g transform="translate(-23.34 -34.925)"><g transform="translate(23.34 278.685)"><path d="M273.34,471.225c0,.084-55.972.145-124.994.145s-125.006-.061-125.006-.145,55.955-.145,125.006-.145S273.34,471.147,273.34,471.225Z" transform="translate(-23.34 -471.08)" fill="#263238"/></g><g transform="translate(26.749 115.39)"><path d="M54.226,179.073l-17.141,8.6a3.471,3.471,0,0,0-2.085,3.2v8.02a37.227,37.227,0,0,0,6.109,20.533c3.091,4.706,7.187,10.719,14,14.157h3.074c7.59-2.314,13.251-8.478,16.711-13.754a37.233,37.233,0,0,0,6.114-20.533v-8.422a3.482,3.482,0,0,0-2.113-3.2l-19.555-8.322A11.983,11.983,0,0,0,54.226,179.073Z" transform="translate(-31.892 -178.9)" fill="#f8951d"/><path d="M54.226,179.073l-17.141,8.6a3.471,3.471,0,0,0-2.085,3.2v8.02a37.227,37.227,0,0,0,6.109,20.533c3.091,4.706,7.187,10.719,14,14.157h3.074c7.59-2.314,13.251-8.478,16.711-13.754a37.233,37.233,0,0,0,6.114-20.533v-8.422a3.482,3.482,0,0,0-2.113-3.2l-19.555-8.322A11.983,11.983,0,0,0,54.226,179.073Z" transform="translate(-31.892 -178.9)" opacity="0.3"/><path d="M51.086,179.5l-19.533,8.322a3.482,3.482,0,0,0-2.113,3.2v8.02a37.545,37.545,0,0,0,23.186,34.689c7.586-2.313,13.248-8.477,16.713-13.753a37.233,37.233,0,0,0,6.114-20.533v-8.422a3.482,3.482,0,0,0-2.107-3.2L53.785,179.5A3.487,3.487,0,0,0,51.086,179.5Z" transform="translate(-29.44 -179.043)" fill="#f8951d"/><circle cx="12.804" cy="12.804" r="12.804" transform="translate(6.443 17.584) rotate(-21.2)" opacity="0.3"/><circle cx="5.315" cy="5.315" r="5.315" transform="translate(17.689 14.973)" fill="#fff"/><path d="M53.24,233.711a10.378,10.378,0,0,1,9.5-5.9,11.3,11.3,0,0,1,9.925,5.9,11.924,11.924,0,0,1-10.059,4.473,12.15,12.15,0,0,1-9.367-4.471Z" transform="translate(-39.939 -200.474)" fill="#fff"/><path d="M73.21,213.224a1.118,1.118,0,0,1,0-.207,2.887,2.887,0,0,0-.05-.6v-.447a5.474,5.474,0,0,0-.084-.559,9.467,9.467,0,0,0-.268-1.313,12.374,12.374,0,0,0-1.425-3.387,12.754,12.754,0,0,0-3.242-3.6A12.569,12.569,0,0,0,62.8,200.75a12.714,12.714,0,0,0-6.656.559,12.228,12.228,0,0,0-1.677.727,13.528,13.528,0,0,0-1.554.995,15.549,15.549,0,0,0-1.436,1.224,14.914,14.914,0,0,0-1.241,1.464A12.639,12.639,0,0,0,48.429,217.2a12.3,12.3,0,0,0,1.805,3.487,14.989,14.989,0,0,0,1.241,1.47,14.663,14.663,0,0,0,1.436,1.218,11.636,11.636,0,0,0,3.2,1.727,12.688,12.688,0,0,0,15.241-5.4,12.173,12.173,0,0,0,1.4-3.364,9.7,9.7,0,0,0,.268-1.319c0-.19.067-.369.084-.559a3.944,3.944,0,0,0,0-.447l.05-.609a1.251,1.251,0,0,1,0-.207,1.185,1.185,0,0,1,0,.207v1.062a4.966,4.966,0,0,1-.073.559,8.154,8.154,0,0,1-.246,1.336,12.038,12.038,0,0,1-1.392,3.437,12.854,12.854,0,0,1-15.47,5.589,13.2,13.2,0,0,1-1.677-.738,12.94,12.94,0,0,1-1.576-1.045,14.045,14.045,0,0,1-1.475-1.246,14.954,14.954,0,0,1-1.241-1.475,12.653,12.653,0,0,1-1.855-3.566,13.894,13.894,0,0,1-.665-4.085,13.715,13.715,0,0,1,.671-4.085,12.5,12.5,0,0,1,1.85-3.566,15.651,15.651,0,0,1,1.274-1.5,14.1,14.1,0,0,1,1.47-1.246,13.587,13.587,0,0,1,1.559-1.028,13.237,13.237,0,0,1,1.677-.743,12.808,12.808,0,0,1,15.481,5.589,12.066,12.066,0,0,1,1.392,3.443,8.1,8.1,0,0,1,.246,1.33c0,.2.061.374.073.559v1.062A1.118,1.118,0,0,1,73.21,213.224Z" transform="translate(-37.402 -188.331)" fill="#263238"/><path d="M100.371,211.5a1.8,1.8,0,0,1,.039.374,9.926,9.926,0,0,0,.045,1.062,10.4,10.4,0,0,1,0,1.677v1.051a6.553,6.553,0,0,1-.073,1.174c-.078.822-.134,1.727-.307,2.688-.073.481-.134.978-.235,1.487s-.224,1.028-.335,1.565a38.775,38.775,0,0,1-2.236,6.74,39.871,39.871,0,0,1-3.5,6.187c-.648.877-1.246,1.727-1.895,2.459-.313.369-.6.743-.911,1.073l-.889.939c-.559.62-1.118,1.118-1.6,1.559a15.443,15.443,0,0,1-1.269,1.118l-.827.671a1.675,1.675,0,0,1-.3.212,2,2,0,0,1,.263-.257l.788-.71c.352-.3.771-.676,1.23-1.118s1.017-.961,1.559-1.582l.872-.95c.3-.33.559-.7.894-1.073.632-.732,1.218-1.582,1.861-2.465A40.8,40.8,0,0,0,97,229.233a39.433,39.433,0,0,0,2.236-6.707l.347-1.554c.1-.5.168-1,.251-1.475.179-.95.246-1.85.335-2.666.05-.408.084-.8.1-1.168l.05-1.045c.05-.654.039-1.218.039-1.677V211.88A2.525,2.525,0,0,1,100.371,211.5Z" transform="translate(-54.425 -193.28)" fill="#263238"/></g><g transform="translate(69.961 63.425)"><path d="M245.39,301.325H113.237a6.589,6.589,0,0,1-6.477-6.707V92.627a6.589,6.589,0,0,1,6.477-6.707H245.39a6.584,6.584,0,0,1,6.472,6.707v202a6.584,6.584,0,0,1-6.472,6.7Z" transform="translate(-106.758 -85.92)" fill="#263238"/><path d="M231.406,449.041A6.148,6.148,0,1,1,225.258,443a6.148,6.148,0,0,1,6.148,6.042Z" transform="translate(-156.319 -243.434)" fill="#455a64"/><path d="M238.169,102.925H208.548a2.1,2.1,0,0,1-2.068-2.135h0a2.107,2.107,0,0,1,2.068-2.141h29.621a2.107,2.107,0,0,1,2.068,2.141h0a2.1,2.1,0,0,1-2.068,2.135Z" transform="translate(-150.747 -91.535)" fill="#455a64"/><rect width="135.954" height="179.882" transform="translate(4.455 15.375)" fill="#fff"/><rect width="5.801" height="179.882" transform="translate(134.608 15.375)" fill="#f5f5f5"/><path d="M351.365,194.809h0A1.811,1.811,0,0,1,349.56,193V153.211a1.811,1.811,0,0,1,1.805-1.811h0a1.811,1.811,0,0,1,1.811,1.811V193a1.811,1.811,0,0,1-1.811,1.811Z" transform="translate(-213.862 -114.804)" fill="#e0e0e0"/><path d="M244.865,182.128H144.624a2.884,2.884,0,0,1-2.884-2.884h0a2.884,2.884,0,0,1,2.884-2.884H244.865a2.884,2.884,0,0,1,2.884,2.884h0a2.884,2.884,0,0,1-2.884,2.884Z" transform="translate(-122.189 -125.815)" fill="#e0e0e0"/><path d="M246.623,144.448H183.564a2.884,2.884,0,0,1-2.884-2.884h0a2.884,2.884,0,0,1,2.884-2.884h63.059a2.884,2.884,0,0,1,2.884,2.884h0A2.884,2.884,0,0,1,246.623,144.448Z" transform="translate(-139.366 -109.193)" fill="#f8951d"/><path d="M241.866,202.9H170.094a2.884,2.884,0,0,1-2.884-2.884h0a2.884,2.884,0,0,1,2.884-2.884h71.772a2.884,2.884,0,0,1,2.884,2.884h0A2.884,2.884,0,0,1,241.866,202.9Z" transform="translate(-133.424 -134.977)" fill="#e0e0e0"/><path d="M196.947,293.448H141.724a2.884,2.884,0,0,1-2.884-2.884h0a2.884,2.884,0,0,1,2.884-2.884h55.223a2.884,2.884,0,0,1,2.884,2.884h0A2.884,2.884,0,0,1,196.947,293.448Z" transform="translate(-120.91 -174.92)" fill="#e0e0e0"/><path d="M241.965,271.822H141.724a2.884,2.884,0,0,1-2.884-2.884h0a2.878,2.878,0,0,1,2.884-2.878H241.965a2.878,2.878,0,0,1,2.884,2.878h0A2.884,2.884,0,0,1,241.965,271.822Z" transform="translate(-120.91 -165.383)" fill="#e0e0e0"/><rect width="93.507" height="5.768" rx="2.884" transform="translate(30.432 139.57)" fill="#e0e0e0"/><path d="M241.965,363.457H141.724a2.884,2.884,0,0,1-2.884-2.884h0a2.884,2.884,0,0,1,2.884-2.873H241.965a2.884,2.884,0,0,1,2.884,2.884h0A2.884,2.884,0,0,1,241.965,363.457Z" transform="translate(-120.91 -205.807)" fill="#e0e0e0"/><path d="M241.965,385.868H141.724a2.884,2.884,0,0,1-2.884-2.884h0a2.884,2.884,0,0,1,2.884-2.884H241.965a2.884,2.884,0,0,1,2.884,2.884h0A2.884,2.884,0,0,1,241.965,385.868Z" transform="translate(-120.91 -215.688)" fill="#e0e0e0"/><path d="M147.341,338.446a3,3,0,1,1-2.99-3A3,3,0,0,1,147.341,338.446Z" transform="translate(-122.017 -195.992)" fill="#f8951d"/><path d="M251.829,251.668H164.084a2.884,2.884,0,0,1-2.884-2.884h0a2.884,2.884,0,0,1,2.884-2.884h87.745a2.884,2.884,0,0,1,2.884,2.884h0A2.884,2.884,0,0,1,251.829,251.668Z" transform="translate(-130.773 -156.49)" fill="#e0e0e0"/><circle cx="2.996" cy="2.996" r="2.996" transform="translate(19.338 89.298)" fill="#f8951d"/><path d="M296.969,415.978h-22.5a4.594,4.594,0,0,1-4.594-4.594h0a4.594,4.594,0,0,1,4.594-4.594h22.5a4.594,4.594,0,0,1,4.594,4.594h0A4.594,4.594,0,0,1,296.969,415.978Z" transform="translate(-178.714 -227.461)" fill="#f8951d"/></g><g transform="translate(41.956 34.925)"><path d="M90.325,35.163,67.008,46.86a4.728,4.728,0,0,0-2.878,4.348V62.118a50.635,50.635,0,0,0,8.316,27.944c4.2,6.382,9.769,14.565,19.041,19.237h4.18c10.317-3.147,18.018-11.535,22.73-18.706a50.635,50.635,0,0,0,8.316-27.944V51.208a4.728,4.728,0,0,0-2.856-4.348L97.277,35.526C96.092,35.04,91.51,34.66,90.325,35.163Z" transform="translate(-59.949 -34.925)" fill="#f8951d"/><path d="M90.325,35.163,67.008,46.86a4.728,4.728,0,0,0-2.878,4.348V62.118a50.635,50.635,0,0,0,8.316,27.944c4.2,6.382,9.769,14.565,19.041,19.237h4.18c10.317-3.147,18.018-11.535,22.73-18.706a50.635,50.635,0,0,0,8.316-27.944V51.208a4.728,4.728,0,0,0-2.856-4.348L97.277,35.526C96.092,35.04,91.51,34.66,90.325,35.163Z" transform="translate(-59.949 -34.925)" opacity="0.3"/><path d="M86.086,35.7,59.523,47.032A4.723,4.723,0,0,0,56.65,51.38V62.289a51.068,51.068,0,0,0,31.532,47.178c10.323-3.144,18.025-11.533,22.731-18.7a50.59,50.59,0,0,0,8.316-27.944V51.38a4.723,4.723,0,0,0-2.873-4.348L89.82,35.7A4.739,4.739,0,0,0,86.086,35.7Z" transform="translate(-56.65 -35.097)" fill="#f8951d"/><path d="M153.088,79.27a.4.4,0,0,1,0,.129v.374c0,.358.028.838.05,1.448a22.07,22.07,0,0,1,0,2.286c0,.447,0,.922-.045,1.425v.782a8.011,8.011,0,0,1-.078.822c-.112,1.118-.184,2.347-.419,3.65-.106.648-.19,1.33-.324,2.018s-.3,1.4-.458,2.124a52.335,52.335,0,0,1-3.068,9.16A54.514,54.514,0,0,1,144,111.9c-.883,1.2-1.677,2.353-2.571,3.353-.43.5-.822,1.012-1.241,1.459L138.976,118c-.749.838-1.52,1.5-2.163,2.124-.33.3-.626.592-.911.844l-.782.632-1.118.917-.3.235c-.067.05-.106.073-.106.067s0-.034.084-.1l.279-.251,1.079-.956.788-.687c.285-.251.559-.559.894-.861.632-.626,1.386-1.3,2.124-2.141l1.19-1.3c.414-.447.8-.956,1.218-1.459.866-.995,1.677-2.152,2.537-3.353a55.185,55.185,0,0,0,4.711-8.383,53.909,53.909,0,0,0,3.068-9.1c.162-.721.313-1.425.469-2.107s.224-1.364.335-2.012c.246-1.3.33-2.521.453-3.633.034-.274.061-.559.089-.81s0-.525.034-.777q.034-.754.067-1.425c.061-.889.045-1.677.045-2.28V79.4A.335.335,0,0,1,153.088,79.27Z" transform="translate(-90.594 -54.486)" fill="#263238"/><path d="M116.6,86.078h-2.834V70.658a6.584,6.584,0,0,0-13.162,0v15.42H97.77V70.658a9.417,9.417,0,0,1,18.829,0Z" transform="translate(-74.789 -46.635)" fill="#f5f5f5"/><rect width="25.373" height="19.885" rx="5.81" transform="translate(19.712 28.981)" fill="#fff"/><path d="M113.937,106.541a6.577,6.577,0,0,0,.844-.145,3.225,3.225,0,0,0,2.331-3.13V89.674a3.124,3.124,0,0,0-1.844-2.621,3.739,3.739,0,0,0-1.738-.268h-1.878l-16.593-.006A3.1,3.1,0,0,0,92.04,89.16a4.147,4.147,0,0,0-.089,1.028V101.31c.05,1.263-.212,2.565.436,3.56a3.141,3.141,0,0,0,2.822,1.548H101.5l9.1.05h3.113a1.184,1.184,0,0,1,.224,0,1,1,0,0,1-.224,0H110.6l-9.1.045H95.209a3.381,3.381,0,0,1-3.532-3.443V90.211a4.343,4.343,0,0,1,.1-1.118,3.353,3.353,0,0,1,1.2-1.844,3.42,3.42,0,0,1,2.113-.738H113.5a3.957,3.957,0,0,1,1.844.3,3.353,3.353,0,0,1,1.978,2.834v13.609a3.286,3.286,0,0,1-.492,1.733,3.225,3.225,0,0,1-1.962,1.453A2.515,2.515,0,0,1,113.937,106.541Z" transform="translate(-72.099 -57.675)" fill="#263238"/><path d="M114.324,101.735a2.738,2.738,0,0,0,.8-1.945,2.794,2.794,0,1,0-3.554,2.671l-.6,2.649h2.655l-.559-2.649a2.794,2.794,0,0,0,1.224-.727" transform="translate(-79.98 -62.298)" fill="#f8951d"/></g><g transform="translate(194.446 79.714)"><path d="M412.766,132.426v22.646c.05,3.912.626,10.06-5.589,9.859h0c-5.36-.559-6.785-5.661-6.824-9.317,0-1.733-.039-3.18-.056-3.353,0,0-5.868-.481-6.366-6.282-.24-2.794-.263-8.612-.224-13.871a10.842,10.842,0,0,1,10.06-10.719l.559-.039C410.4,121.26,412.866,126.362,412.766,132.426Z" transform="translate(-357.815 -117.837)" fill="#ffbf9d"/><path d="M405.54,174.454a14.072,14.072,0,0,0,7.394-2.794s-1.531,4.376-7.36,4.275Z" transform="translate(-363.041 -140.03)" fill="#ff9a6c"/><path d="M411.478,144.047c.117.117.788-.425,1.755-.447s1.677.447,1.8.324-.067-.274-.386-.492a2.442,2.442,0,0,0-1.442-.414,2.381,2.381,0,0,0-1.4.509C411.517,143.773,411.422,143.991,411.478,144.047Z" transform="translate(-365.653 -127.396)" fill="#263238"/><path d="M411.46,149.165a.782.782,0,0,0,.816.738.749.749,0,0,0,.755-.766.788.788,0,0,0-.81-.738.76.76,0,0,0-.76.766Z" transform="translate(-365.652 -129.77)" fill="#263238"/><path d="M405.323,151.111a6.041,6.041,0,0,0-1.47-.156c-.229,0-.447-.039-.5-.19a1.162,1.162,0,0,1,.1-.687c.179-.559.358-1.157.559-1.783a30.545,30.545,0,0,0,1.185-4.644,30.04,30.04,0,0,0-1.554,4.538q-.268.939-.52,1.794a1.324,1.324,0,0,0-.05.9.559.559,0,0,0,.4.307,1.676,1.676,0,0,0,.391,0A6.147,6.147,0,0,0,405.323,151.111Z" transform="translate(-361.929 -127.674)" fill="#263238"/><path d="M412.225,136.885c.1.218.872.056,1.805.1s1.677.251,1.805.045c.045-.1-.1-.3-.414-.486a3.035,3.035,0,0,0-2.75-.112C412.343,136.594,412.186,136.784,412.225,136.885Z" transform="translate(-365.987 -124.369)" fill="#263238"/><path d="M395.714,139.465c.106.179.861,0,1.783-.045s1.677.089,1.777-.1c.039-.089-.112-.246-.43-.386a3.2,3.2,0,0,0-1.358-.224,3.258,3.258,0,0,0-1.352.335C395.82,139.214,395.669,139.381,395.714,139.465Z" transform="translate(-358.703 -125.496)" fill="#263238"/><path d="M379.975,124.133a.917.917,0,0,1,.442-.559,2.85,2.85,0,0,1,1.481-.24,8.344,8.344,0,0,0,4.359-1.325,19.523,19.523,0,0,1,2.029-2.459,14.836,14.836,0,0,1,4.7-3.65,13.2,13.2,0,0,1,7.187-.559,5.5,5.5,0,0,1,4.113,4.231,4.185,4.185,0,0,1,4.208-.391h.034c1.531.559,2.4,2.168,2.856,3.733a19.573,19.573,0,0,0,1.475,4.644c.173.291.38.643.229.95a.648.648,0,0,1-.676.291,1.844,1.844,0,0,1-.715-.324c.173.414.341.822.514,1.23a3.6,3.6,0,0,1-1.677-.106,36.117,36.117,0,0,1-1.09,4.125,2.4,2.4,0,0,0-1.626.4c-.559.486-.777,1.4-1.677,1.051-.453-.179-.866-1.118-1.023-1.593a22.713,22.713,0,0,1-.978-9.607,7.332,7.332,0,0,0-2.236-1.621l.067.061c-1.621-.559-3.454-1.118-4.991-.358-1.19.592-1.889,1.828-2.794,2.794a9.088,9.088,0,0,1-6.489,3.035c-.084,1.632.05,3.94-.034,5.589l-1.375-2.616h0q-.162-.272-.3-.559v-.056h0a9.669,9.669,0,0,0-.464-.933h0a1.023,1.023,0,0,1-1.492-1.364,2.309,2.309,0,0,1,.492-.5,1.6,1.6,0,0,1-1.537.4,1.263,1.263,0,0,1-.894-1.252,1.084,1.084,0,0,1,.643-.861,3.6,3.6,0,0,1-2.068-.458C380.226,125.033,379.824,124.647,379.975,124.133Z" transform="translate(-351.749 -115.066)" fill="#263238"/><path d="M420.21,124.34a4.541,4.541,0,0,1,.559.559,4.107,4.107,0,0,1,.889,1.923,7.129,7.129,0,0,1,.151,1.475c0,.559-.039,1.118-.084,1.71a15.187,15.187,0,0,0-.039,1.9,6.278,6.278,0,0,0,.129,1.006,2.124,2.124,0,0,0,.408.972.877.877,0,0,0,.822.274,1.286,1.286,0,0,0,.732-.414,2.968,2.968,0,0,0,.559-1.475h-.117a4.756,4.756,0,0,0,.7,1.218,1.738,1.738,0,0,0,1.118.615,1.118,1.118,0,0,0,.6-.106.978.978,0,0,0,.408-.4,1.056,1.056,0,0,0,.123-.514.71.71,0,0,0-.19-.447l-.061.056a3.756,3.756,0,0,0,1.246.933,3.359,3.359,0,0,0,.386.151l.14.034-.129-.056c-.089-.039-.218-.089-.374-.168a3.912,3.912,0,0,1-1.207-.95l-.061.056a.743.743,0,0,1,.039.861.849.849,0,0,1-.363.352.989.989,0,0,1-.559.089,1.626,1.626,0,0,1-1.051-.559,4.818,4.818,0,0,1-.676-1.19l-.084-.184-.039.2a2.934,2.934,0,0,1-.559,1.408,1.218,1.218,0,0,1-.659.369.743.743,0,0,1-.7-.229,1.94,1.94,0,0,1-.374-.911,6.709,6.709,0,0,1-.134-.984,15.015,15.015,0,0,1,.039-1.889c.034-.6.073-1.174.067-1.716a7.163,7.163,0,0,0-.168-1.492,4.119,4.119,0,0,0-.945-1.945A2.235,2.235,0,0,0,420.21,124.34Z" transform="translate(-369.512 -119.157)" fill="#455a64"/><path d="M388.1,127.414l.05.039a1.236,1.236,0,0,0,.145.106,1.435,1.435,0,0,0,.246.162q.171.1.352.184a5.147,5.147,0,0,0,2.481.447,6.578,6.578,0,0,0,3.5-1.3,11.234,11.234,0,0,0,3.007-3.465c.425-.7.766-1.42,1.118-2.085a7.825,7.825,0,0,1,1.341-1.766,3.968,3.968,0,0,1,1.677-1.017,2.845,2.845,0,0,1,.883-.1,3.069,3.069,0,0,1,.794.168,3.353,3.353,0,0,1,1.213.727,3.3,3.3,0,0,1,.654.85,3.638,3.638,0,0,1,.3.872v-.061a.425.425,0,0,0-.028-.179,2.727,2.727,0,0,0-.224-.654,3.353,3.353,0,0,0-1.878-1.643,3.287,3.287,0,0,0-.833-.173,3.057,3.057,0,0,0-.917.1,4.03,4.03,0,0,0-1.727,1.034,7.584,7.584,0,0,0-1.325,1.788c-.386.671-.732,1.386-1.146,2.085a11.351,11.351,0,0,1-2.968,3.432,6.511,6.511,0,0,1-3.432,1.3,5.2,5.2,0,0,1-2.454-.4,7.565,7.565,0,0,1-.827-.453Z" transform="translate(-355.348 -116.592)" fill="#455a64"/><path d="M387.16,129.869a1.394,1.394,0,0,0,.207.145,4.663,4.663,0,0,0,.615.313,5.918,5.918,0,0,0,.978.319,6.458,6.458,0,0,0,1.246.168,6.919,6.919,0,0,0,1.258-.084,5.868,5.868,0,0,0,.989-.257,4.532,4.532,0,0,0,.637-.274,1.15,1.15,0,0,0,.218-.129s-.33.14-.883.313a7.663,7.663,0,0,1-.984.224,7.786,7.786,0,0,1-1.23.073,7.877,7.877,0,0,1-1.224-.151,6.707,6.707,0,0,1-.967-.291C387.484,130.031,387.171,129.846,387.16,129.869Z" transform="translate(-354.933 -121.595)" fill="#455a64"/><path d="M395.636,144.047c.112.117.782-.425,1.755-.447s1.677.447,1.8.324-.073-.274-.386-.492a2.465,2.465,0,0,0-1.448-.414,2.359,2.359,0,0,0-1.392.509C395.669,143.773,395.574,143.991,395.636,144.047Z" transform="translate(-358.664 -127.396)" fill="#263238"/><path d="M397.42,149.165a.788.788,0,0,0,.81.738.755.755,0,0,0,.76-.766.794.794,0,0,0-.816-.738.755.755,0,0,0-.754.766Z" transform="translate(-359.459 -129.77)" fill="#263238"/><path d="M427.55,148.693c.1-.05,3.912-1.47,4.063,2.5s-3.862,3.314-3.873,3.2S427.55,148.693,427.55,148.693Z" transform="translate(-372.75 -129.773)" fill="#ffbf9d"/><path d="M429.989,153.852a1.6,1.6,0,0,0,.19.1.721.721,0,0,0,.52,0,1.71,1.71,0,0,0,.727-1.57,2.236,2.236,0,0,0-.229-.984.794.794,0,0,0-.559-.509.358.358,0,0,0-.4.207c-.05.112,0,.19-.045.2s-.084-.061-.061-.229a.486.486,0,0,1,.145-.257.559.559,0,0,1,.38-.117.984.984,0,0,1,.749.587,2.331,2.331,0,0,1,.285,1.118,1.805,1.805,0,0,1-.939,1.755.743.743,0,0,1-.637-.078C429.989,153.947,429.949,153.858,429.989,153.852Z" transform="translate(-373.819 -130.779)" fill="#ff9a6c"/><path d="M409.906,158.42c.034,0,.034.235-.1.559a2.436,2.436,0,0,1-.917,1.062,2.236,2.236,0,0,1-1.33.38.886.886,0,0,1-.559-.184,2.98,2.98,0,0,1,.559,0,2.543,2.543,0,0,0,1.2-.4,2.828,2.828,0,0,0,.889-.911C409.794,158.615,409.862,158.408,409.906,158.42Z" transform="translate(-363.685 -134.19)" fill="#263238"/><path d="M439.831,439.59,441.015,453l4.2,10.373a1.364,1.364,0,0,1-.95,1.811h0a1.514,1.514,0,0,1-1.319-.224c-2.4-1.744-11.044-8.16-11.139-8.992-.123-1.084-2.331-14.291-2.331-14.291Z" transform="translate(-373.601 -258.219)" fill="#455a64"/><path d="M445.978,476.937l-12.7-10.747.129.995c.084.559.1.838.475,1.179a120.213,120.213,0,0,0,10.619,8.573,1.716,1.716,0,0,0,1.453,0Z" transform="translate(-375.277 -269.952)" fill="#263238"/><path d="M436.748,458.633a.816.816,0,0,1,.369,1.062.889.889,0,0,1-1.118.352.861.861,0,0,1-.38-1.118.917.917,0,0,1,1.2-.24" transform="translate(-376.275 -266.587)" fill="#fff"/><path d="M448.922,474.135c.084.034.324-.7,1.118-1.162a4.862,4.862,0,0,1,1.6-.464c0-.034-.184-.117-.52-.129a2.414,2.414,0,0,0-1.258.341,2.185,2.185,0,0,0-.861.917C448.883,473.928,448.883,474.129,448.922,474.135Z" transform="translate(-382.167 -272.683)" fill="#263238"/><path d="M451.113,477.634c.073.056.481-.43,1.2-.7a11.409,11.409,0,0,1,1.375-.307,1.71,1.71,0,0,0-1.492.034C451.376,476.974,451.046,477.606,451.113,477.634Z" transform="translate(-383.14 -274.488)" fill="#263238"/><path d="M445.087,470.238a14.292,14.292,0,0,1,1.772-1.2,15.222,15.222,0,0,1,2.062-.676,3.42,3.42,0,0,0-2.208.414A3.242,3.242,0,0,0,445.087,470.238Z" transform="translate(-380.484 -270.893)" fill="#263238"/><path d="M443.8,463.848c.045.078.8-.313,1.816-.447s1.861,0,1.883-.073a2.979,2.979,0,0,0-1.928-.224,2.9,2.9,0,0,0-1.772.743Z" transform="translate(-379.918 -268.561)" fill="#263238"/><path d="M443,456.8a4.941,4.941,0,0,1,3.823-.257c0-.034-.151-.184-.5-.33a3.354,3.354,0,0,0-1.459-.224,3.186,3.186,0,0,0-1.408.419C443.114,456.6,442.963,456.776,443,456.8Z" transform="translate(-379.561 -265.451)" fill="#263238"/><path d="M444.413,453.22a1.471,1.471,0,0,0-.034-.509,3.521,3.521,0,0,0-.559-1.285,1.643,1.643,0,0,0-.794-.676.62.62,0,0,0-.648.19.844.844,0,0,0-.156.632,2.034,2.034,0,0,0,2.012,1.615,2.414,2.414,0,0,0,2.236-1.414.749.749,0,0,0-.034-.654.609.609,0,0,0-.637-.229,2.129,2.129,0,0,0-.889.559,4.062,4.062,0,0,0-.855,1.118,1.207,1.207,0,0,0-.168.486,6.461,6.461,0,0,1,1.179-1.47,1.934,1.934,0,0,1,.782-.469.318.318,0,0,1,.346.123.52.52,0,0,1,0,.43,2.157,2.157,0,0,1-1.939,1.207,1.777,1.777,0,0,1-1.732-1.352.615.615,0,0,1,.089-.442.33.33,0,0,1,.358-.106,1.5,1.5,0,0,1,.687.559A5.03,5.03,0,0,1,444.413,453.22Z" transform="translate(-379.217 -263.13)" fill="#263238"/><path d="M378.214,440.737l.525,11.373s-12.122,4.326-12.24,6.438l23.5-.173-.05-17.756Z" transform="translate(-345.82 -258.673)" fill="#455a64"/><path d="M400.5,459.347a.9.9,0,0,1,.671,1.028.922.922,0,0,1-1.073.632.944.944,0,0,1-.7-1.084.972.972,0,0,1,1.2-.559" transform="translate(-360.325 -266.921)" fill="#e0e0e0"/><path d="M389.993,470.978l-.078-1.788-22.506.833s-1.039.436-.917,1.118Z" transform="translate(-345.812 -271.276)" fill="#263238"/><path d="M387.719,460.917c0,.106.559.151,1.118.492s.872.794.978.749-.073-.665-.766-1.067S387.691,460.811,387.719,460.917Z" transform="translate(-355.179 -267.58)" fill="#263238"/><path d="M383.32,462.7c0,.106.475.285.866.738s.514.939.626.933.184-.62-.319-1.174S383.326,462.6,383.32,462.7Z" transform="translate(-353.239 -268.392)" fill="#263238"/><path d="M380.124,466.239c.106,0,.257-.514-.039-1.118s-.838-.816-.889-.727.291.4.525.889S380.012,466.233,380.124,466.239Z" transform="translate(-351.418 -269.152)" fill="#263238"/><path d="M388.049,456.023c.05.1.559-.05,1.224,0s1.157.224,1.213.134-.425-.475-1.19-.509S388.021,455.939,388.049,456.023Z" transform="translate(-355.325 -265.301)" fill="#263238"/><path d="M380.14,292.4c0,.654,2.727,91.573,2.727,91.573H397.4l2.945-77.774s3.437,40.664,3.437,41.542,3.029,36.668,3.029,36.668l13.469-1.034-.889-81.854-1.643-12Z" transform="translate(-351.836 -192.02)" fill="#263238"/><path d="M416.753,306.5a2.349,2.349,0,0,1-.587.235c-.386.134-.95.319-1.643.559l-.129.039v-.129c-.078-1.09-.173-2.554-.257-4.158-.1-1.738-.162-3.309-.2-4.471,0-.559-.028-1.034-.028-1.352a1.5,1.5,0,0,1,.034-.5,1.984,1.984,0,0,1,.078.492c.039.319.078.782.117,1.347.089,1.118.19,2.711.279,4.471.089,1.6.151,3.068.184,4.164l-.14-.089c.7-.2,1.274-.352,1.677-.453A3.233,3.233,0,0,1,416.753,306.5Z" transform="translate(-366.731 -195.201)" fill="#455a64"/><path d="M416.493,297.13a.365.365,0,0,1,.2-.123.944.944,0,0,1,.637.056.743.743,0,0,1,.486.743.928.928,0,0,1-.76.827,1.118,1.118,0,0,1-1.073-.453.794.794,0,0,1,0-.866.967.967,0,0,1,.481-.374c.145-.05.229-.039.235-.028a1.112,1.112,0,0,0-.531.486.6.6,0,0,0,.034.659.838.838,0,0,0,.788.324.7.7,0,0,0,.559-.559.559.559,0,0,0-.319-.559,1.2,1.2,0,0,0-.732-.134Z" transform="translate(-367.589 -195.277)" fill="#455a64"/><path d="M428.72,297.588c-.078,0-.19-.391-.246-.883s-.039-.9.039-.905.19.386.246.877S428.8,297.588,428.72,297.588Z" transform="translate(-373.143 -194.79)" fill="#455a64"/><path d="M430.625,297.328c-.078,0-.145-.419-.145-.939s.056-.939.14-.939.145.419.145.939S430.709,297.328,430.625,297.328Z" transform="translate(-374.042 -194.636)" fill="#455a64"/><path d="M399.153,298.245a2.208,2.208,0,0,1-.274-1.051,2.387,2.387,0,0,1,0-1.084,2.345,2.345,0,0,1,.274,1.056C399.225,297.759,399.231,298.239,399.153,298.245Z" transform="translate(-360.079 -194.927)" fill="#455a64"/><path d="M401.3,298.326a1.581,1.581,0,0,1-.358-1.118,1.565,1.565,0,0,1,.252-1.118c.084,0,0,.514.039,1.118S401.381,298.3,401.3,298.326Z" transform="translate(-361.006 -194.918)" fill="#455a64"/><path d="M388.316,297.92a1.179,1.179,0,0,1-.05.4,7.414,7.414,0,0,1-.291,1.068,11.133,11.133,0,0,1-1.8,3.242,12.418,12.418,0,0,1-2.839,2.582,9.787,9.787,0,0,1-1.028.592,2.013,2.013,0,0,1-.408.173c0-.034.525-.324,1.325-.9a13.609,13.609,0,0,0,2.739-2.582,12.737,12.737,0,0,0,1.839-3.158C388.143,298.468,388.271,297.909,388.316,297.92Z" transform="translate(-352.613 -195.726)" fill="#455a64"/><path d="M443.029,304.579a1.624,1.624,0,0,1-.442.067,7.725,7.725,0,0,1-1.218,0,8.316,8.316,0,0,1-3.722-1.3,7.1,7.1,0,0,1-2.476-2.794,5.179,5.179,0,0,1-.38-1.034,1.044,1.044,0,0,1-.062-.391c.045,0,.168.559.609,1.358a7.511,7.511,0,0,0,2.465,2.677,8.724,8.724,0,0,0,3.588,1.319C442.392,304.6,443.023,304.534,443.029,304.579Z" transform="translate(-375.916 -196.259)" fill="#455a64"/><path d="M398.8,389.245c0,.061-2.426-.464-5.376-1.162s-5.332-1.325-5.309-1.386,2.426.458,5.376,1.162S398.813,389.183,398.8,389.245Z" transform="translate(-355.352 -234.884)" fill="#455a64"/><path d="M441.624,385.338c.034.056-2.062,1.146-4.678,2.442s-4.773,2.3-4.806,2.236,2.062-1.151,4.678-2.442S441.59,385.282,441.624,385.338Z" transform="translate(-374.774 -234.286)" fill="#455a64"/><path d="M361.671,237.565l1.984,2.487v-4.275h6.26s.693,9.786.559,11.871a16.481,16.481,0,0,1-.766,3.191,3.672,3.672,0,0,1-6.092,1.52,21.607,21.607,0,0,1-1.956-2.18c-2.794-3.577-7.4-12.3-7.4-12.3L359.089,235Z" transform="translate(-340.42 -167.971)" fill="#ffbf9d"/><path d="M366.81,238.768a7.4,7.4,0,0,0,.816,1.118c.559.654,1.263,1.554,2.1,2.526s1.626,1.833,2.236,2.42a4.561,4.561,0,0,0,1.062.861,10.53,10.53,0,0,0-.917-1.006c-.559-.615-1.33-1.492-2.163-2.465A29.23,29.23,0,0,0,366.81,238.768Z" transform="translate(-345.956 -169.632)" fill="#ff9a6c"/><path d="M393.06,183.211l6.6-2.593,12.156-.687,5.712,2.174-7.83,4.348-6.751-.246Z" transform="translate(-357.536 -143.678)" fill="#ffbf9d"/><path d="M373.779,245.285c.6.1,40.424,1.794,40.424,1.794l-1.375-35.83-.117-7.031-2.236-21.3s-5.958-2.051-8.992-3.029a12.934,12.934,0,0,1-9.277,3.242c-5.941-.084-7.182-1.425-7.182-1.425l-8.305,3.186s-5.907,2.118-6.925,4.734S367,206.7,367,206.7h8.612l-.229,25.692Z" transform="translate(-346.04 -143.661)" fill="#455a64"/><g transform="translate(52.783 53.381)" opacity="0.2"><path d="M423.94,211.027l1.235,9.032,5.974,2.666,4.415-3.761V210.58l-11.625.447" transform="translate(-423.94 -210.58)"/></g><path d="M435.7,215.876c0,.073-2.481.134-5.544.134s-5.55-.061-5.55-.134a110.168,110.168,0,0,1,11.094,0Z" transform="translate(-371.453 -159.465)" fill="#263238"/><path d="M374.33,204a1.636,1.636,0,0,1,.067.24c.039.179.089.4.156.687a22.75,22.75,0,0,0,.794,2.543c.4,1.067.956,2.325,1.643,3.733a43.633,43.633,0,0,1,1.844,4.879h0c0,2.146,0,4.471-.045,6.947-.056,5.477-.112,10.434-.145,14.05-.034,1.777-.056,3.225-.078,4.259q0,.721-.034,1.157a2.277,2.277,0,0,1-.028.4,2.875,2.875,0,0,1,0-.408q0-.425,0-1.157v-4.259c0-3.616.045-8.573.073-14.045,0-2.453.045-4.8.061-6.947v.039c-.6-1.788-1.174-3.448-1.8-4.873a39.416,39.416,0,0,1-1.6-3.767,19.667,19.667,0,0,1-.732-2.571c-.056-.307-.1-.559-.123-.7A1.171,1.171,0,0,1,374.33,204Z" transform="translate(-349.273 -154.296)" fill="#263238"/><path d="M449.189,196.52a5.026,5.026,0,0,1,0,.766c0,.559-.045,1.241-.078,2.079-.073,1.8-.168,4.2-.274,6.858s-.229,5.063-.307,6.863c-.05.838-.089,1.537-.123,2.079a3.911,3.911,0,0,1-.078.76,4.84,4.84,0,0,1,0-.766c0-.559,0-1.241.039-2.079.045-1.76.123-4.186.235-6.863s.235-5.108.346-6.858c.056-.877.112-1.587.162-2.079a4.339,4.339,0,0,1,.078-.76Z" transform="translate(-381.909 -150.997)" fill="#263238"/><g transform="translate(25.068 51.017)" opacity="0.3"><path d="M374.361,206.35a14.945,14.945,0,0,0,3.912,10.669C377.463,213.325,375.44,209.888,374.361,206.35Z" transform="translate(-374.35 -206.35)"/></g><g transform="translate(42.572 71.853)" opacity="0.3"><path d="M405.67,258.245a7.456,7.456,0,0,0,4.778-2.66,22.652,22.652,0,0,0,3.214-4.644,18.308,18.308,0,0,0,1.878-7.31A34.415,34.415,0,0,1,405.67,258.245Z" transform="translate(-405.67 -243.63)"/></g><path d="M414.888,238.78a1.191,1.191,0,0,1-.034.229c-.039.179-.089.391-.145.648s-.145.62-.268,1.012-.24.838-.419,1.325a30.524,30.524,0,0,1-1.375,3.353,32.04,32.04,0,0,1-4.89,7.361,27.95,27.95,0,0,1-2.571,2.549c-.374.352-.749.632-1.067.889s-.6.464-.838.626l-.559.374c-.129.078-.2.123-.2.112a.922.922,0,0,1,.168-.156l.52-.414c.229-.168.5-.386.81-.654s.671-.559,1.04-.911a32.878,32.878,0,0,0,2.509-2.571,37.828,37.828,0,0,0,2.666-3.5,38.776,38.776,0,0,0,2.191-3.806,34.316,34.316,0,0,0,1.414-3.3c.19-.475.324-.922.453-1.308s.235-.721.313-.995.134-.458.19-.632S414.877,238.774,414.888,238.78Z" transform="translate(-361.709 -169.638)" fill="#263238"/><path d="M408.011,218.72a2.833,2.833,0,0,1-.05.369c-.045.263-.106.609-.179,1.04s-.184,1-.346,1.632-.307,1.364-.559,2.146c-.112.391-.235.8-.363,1.235s-.3.866-.453,1.319c-.3.922-.7,1.872-1.118,2.878a47.874,47.874,0,0,1-7.321,12.01c-.71.816-1.375,1.61-2.057,2.291-.335.347-.648.693-.972,1s-.632.609-.933.889c-.559.559-1.162,1.045-1.677,1.47s-.928.777-1.3,1.051l-.844.637a1.542,1.542,0,0,1-.3.207,1.94,1.94,0,0,1,.268-.246l.81-.676c.358-.285.794-.637,1.269-1.079s1.051-.911,1.626-1.5l.917-.894c.319-.313.626-.659.956-1.006.676-.687,1.33-1.481,2.034-2.3a49.361,49.361,0,0,0,7.31-11.949c.414-1,.816-1.939,1.118-2.85.162-.458.33-.889.464-1.313s.257-.833.38-1.224c.257-.777.419-1.5.592-2.129s.3-1.174.386-1.621.173-.766.229-1.028a1.732,1.732,0,0,1,.112-.358Z" transform="translate(-355.983 -160.789)" fill="#263238"/><path d="M350.12,196.979,365.456,220.3a.687.687,0,0,1-.665,1.062l-17.661-2.236a.7.7,0,0,1-.469-.279l-16.867-23.037a.693.693,0,0,1,.609-1.118l18.169,1.341a2.046,2.046,0,0,1,1.548.95Z" transform="translate(-329.563 -150.187)" fill="#e0e0e0"/><path d="M350.054,196.942a1.081,1.081,0,0,0-.14-.212,2.04,2.04,0,0,0-.559-.481,2.509,2.509,0,0,0-1.179-.285l-1.632-.134-10.473-.822-3.471-.268-1.844-.14h-.486a.794.794,0,0,0-.509.207.81.81,0,0,0-.134,1.04l4.907,6.735c3.465,4.734,7.266,9.937,11.262,15.4.257.341.486.671.766,1.028a.8.8,0,0,0,.313.212,1.218,1.218,0,0,0,.341.067l.626.078,2.47.313,4.829.6,9.132,1.118c.19,0,.346.05.559.061a.822.822,0,0,0,.587-.24.849.849,0,0,0,.24-.559.945.945,0,0,0-.212-.559l-1.185-1.811-2.236-3.353-4-6.053c-2.448-3.683-4.426-6.673-5.807-8.747l-1.593-2.375c-.179-.257-.319-.464-.425-.609a1.673,1.673,0,0,0-.151-.207,2.166,2.166,0,0,0,.129.224l.4.626c.358.559.877,1.369,1.543,2.4l5.734,8.8,3.974,6.069,2.236,3.381,1.162,1.772a.7.7,0,0,1,.168.419.592.592,0,0,1-.168.391.559.559,0,0,1-.391.162c-.151,0-.358-.045-.531-.061l-9.149-1.168-4.829-.609-2.47-.313-.62-.078a1.42,1.42,0,0,1-.274-.05.559.559,0,0,1-.207-.14c-.246-.335-.492-.665-.738-1.006-4-5.455-7.824-10.652-11.278-15.386-1.738-2.359-3.381-4.605-4.924-6.707a.559.559,0,0,1,.447-.877,2.649,2.649,0,0,1,.458.028l1.844.134,3.476.246,10.507.727,1.643.112a2.414,2.414,0,0,1,1.157.251A2.236,2.236,0,0,1,350.054,196.942Z" transform="translate(-329.497 -150.15)" fill="#263238"/><path d="M329.91,196.718a1.839,1.839,0,0,0,.369.056l1.073.112,3.99.352,13.57,1.118-.106-.061c.849,1.263,1.727,2.571,2.6,3.912,3.582,5.505,6.707,10.568,9.071,14.168,1.174,1.805,2.152,3.247,2.834,4.242l.794,1.118a2.382,2.382,0,0,0,.3.38,4,4,0,0,0-.246-.414l-.749-1.168-2.755-4.287c-2.314-3.627-5.416-8.7-9-14.212-.877-1.358-1.76-2.666-2.616-3.912l-.039-.056h-.039l-13.575-1.006-4-.268-1.079-.061A2.7,2.7,0,0,0,329.91,196.718Z" transform="translate(-329.679 -151.082)" fill="#263238"/><path d="M349.5,202.62Z" transform="translate(-338.321 -153.687)" fill="#fff"/><path d="M348.718,202.873a.352.352,0,0,1,.436-.263.978.978,0,0,1,.475.263.481.481,0,0,1,.084.609c-.173.218-.559.134-.749-.045A.631.631,0,0,1,348.718,202.873Z" transform="translate(-337.974 -153.678)" fill="#fff"/><path d="M355.255,224.922s.693-1.677-1.073-1.878a61.769,61.769,0,0,0-6.41,0s-2.543.268-2.006,2.09c0,0-1.5,1.341-.693,2.794s1.118,1.017,1.118,1.017-.212,1.772,1.118,2.034c0,0,1.453,1.716,2.794,1.61s7.014-2.839,7.388-3.353.911-.838.592-1.436c0,0,.693-1.57-.8-1.811C357.29,225.962,357.183,224.659,355.255,224.922Z" transform="translate(-336.263 -162.66)" fill="#ffbf9d"/><path d="M349.06,226.975a4.594,4.594,0,0,0,1.2.089h2.878a16.7,16.7,0,0,0,2.9-.168c.76-.179,1.062-.626,1.028-.637a3.169,3.169,0,0,1-1.073.43c-.7.117-1.733.045-2.856.084s-2.141.05-2.878.084A4.991,4.991,0,0,0,349.06,226.975Z" transform="translate(-338.126 -164.115)" fill="#ff9a6c"/><path d="M351.32,230.185a.984.984,0,0,0,.386.129,4.141,4.141,0,0,0,1.118.073,7.741,7.741,0,0,0,1.61-.3c.592-.162,1.224-.391,1.889-.592a8.534,8.534,0,0,1,1.906-.4,2.889,2.889,0,0,0,1.621-.324.933.933,0,0,0,.386-.559.76.76,0,0,0-.067-.5c-.14-.251-.33-.268-.324-.257a.628.628,0,0,1,.218.307.687.687,0,0,1-.33.833,2.935,2.935,0,0,1-1.52.229,7.863,7.863,0,0,0-1.973.38l-1.878.62a9.722,9.722,0,0,1-1.554.347,12.294,12.294,0,0,1-1.487.011Z" transform="translate(-339.123 -164.643)" fill="#ff9a6c"/><path d="M354.72,234.356a4.622,4.622,0,0,0,1.2-.229c.727-.184,1.721-.469,2.794-.822s2.057-.715,2.75-1a4.723,4.723,0,0,0,1.118-.52c-.034-.078-1.777.559-3.912,1.235A38.718,38.718,0,0,0,354.72,234.356Z" transform="translate(-340.623 -166.55)" fill="#ff9a6c"/><path d="M353.91,238.183a2.5,2.5,0,0,0,.989-.112,11.878,11.878,0,0,0,2.263-.8c.849-.386,1.593-.782,2.129-1.067a3.447,3.447,0,0,0,.849-.514,19.161,19.161,0,0,0-3.1,1.313C355.369,237.808,353.9,238.1,353.91,238.183Z" transform="translate(-340.266 -168.275)" fill="#ff9a6c"/><path d="M432.592,203.633s-3.61,14.464-8.121,19.807c-4.37,5.175-11.217,2.794-13.586-3.912s-6.595-21.97-6.595-21.97l5.186-3.968,8.942,17.376,4.041-11.843Z" transform="translate(-362.489 -149.704)" fill="#ffbf9d"/><path d="M399.37,187.759l-3.806-5.516a9.619,9.619,0,0,1-1.621-.5c-.43-.251-.855-2.442-.844-2.867s-.738-1.425-.436-1.71,1.319-.3,1.263-.71c0-.089-.754-1.006-.162-1.677a3.169,3.169,0,0,1,1.073-.453l-.061-2.107s1.118-2.481,2.3-1.582c0,0,4.376,3.353,4.818,3.912s2.129,7.539,2.426,8.853" transform="translate(-357.329 -139.491)" fill="#ffbf9d"/><path d="M404.206,183.294a1.833,1.833,0,0,0-.056-.369c-.061-.268-.134-.615-.229-1.051-.2-.917-.509-2.236-.922-3.862-.212-.816-.442-1.677-.738-2.655-.073-.235-.151-.475-.251-.721a1.638,1.638,0,0,0-.514-.632c-.4-.352-.822-.7-1.252-1.051-.866-.7-1.788-1.425-2.744-2.168a3.353,3.353,0,0,0-.8-.531,1.118,1.118,0,0,0-.984.235,4.554,4.554,0,0,0-1.168,1.576h0v.676c0,.492,0,.984.045,1.464l.1-.134a4.8,4.8,0,0,0-.771.257,1.2,1.2,0,0,0-.375.246,1.084,1.084,0,0,0-.212.386,1.3,1.3,0,0,0,.067.838,2.166,2.166,0,0,0,.173.363l.1.162v.039h0a.1.1,0,0,1,0,.039c0,.045-.112.112-.218.151s-.224.078-.341.117a3.349,3.349,0,0,0-.358.117.676.676,0,0,0-.363.257.592.592,0,0,0,0,.447,2.391,2.391,0,0,0,.129.352c.1.224.2.436.279.643a.866.866,0,0,1,.067.3,2.427,2.427,0,0,0,.034.358c.034.229.073.453.123.676a9.207,9.207,0,0,0,.352,1.269,1.677,1.677,0,0,0,.335.587,2.074,2.074,0,0,0,.592.263c.386.117.766.212,1.118.3l-.061-.039,2.794,4,.782,1.084a2.874,2.874,0,0,0,.291.369,3.754,3.754,0,0,0-.24-.4l-.738-1.118c-.665-.989-1.6-2.37-2.744-4.057v-.034h.006c-.358-.089-.732-.19-1.118-.307a2.045,2.045,0,0,1-.509-.224,1.492,1.492,0,0,1-.268-.5,8.591,8.591,0,0,1-.335-1.241c-.045-.218-.084-.436-.117-.659v-.324a1.179,1.179,0,0,0-.078-.38c-.084-.229-.19-.441-.279-.659a1.833,1.833,0,0,1-.117-.319.374.374,0,0,1,0-.257.515.515,0,0,1,.235-.14,3.047,3.047,0,0,1,.341-.112c.117-.039.24-.073.363-.123a.609.609,0,0,0,.358-.3.324.324,0,0,0,.028-.145.229.229,0,0,0-.028-.1v-.045l-.1-.162a2.535,2.535,0,0,1-.156-.33,1.056,1.056,0,0,1-.056-.665.737.737,0,0,1,.156-.291.961.961,0,0,1,.285-.173,4.825,4.825,0,0,1,.727-.246l.1-.028v-.106c0-.481-.028-.967-.045-1.459v-.581a4.258,4.258,0,0,1,1.079-1.475.822.822,0,0,1,.749-.2,3.3,3.3,0,0,1,.721.481c.961.743,1.883,1.464,2.75,2.157.436.347.855.687,1.252,1.028a1.408,1.408,0,0,1,.464.559c.1.229.173.469.252.7.3.939.559,1.828.76,2.632.419,1.6.766,2.906,1.006,3.84.117.43.207.777.274,1.04A1.756,1.756,0,0,0,404.206,183.294Z" transform="translate(-357.219 -139.397)" fill="#ff9a6c"/><path d="M396.61,177.277c0,.045.442,0,1.118.078a8.522,8.522,0,0,1,1.2.274,5.511,5.511,0,0,0,1.548,0,2.929,2.929,0,0,1,2.442.794,3.225,3.225,0,0,1,.587.933,1.453,1.453,0,0,0-.447-1.067,2.878,2.878,0,0,0-1.051-.732,3.225,3.225,0,0,0-1.548-.2,5.991,5.991,0,0,1-1.481,0,6.478,6.478,0,0,0-1.235-.218A2.9,2.9,0,0,0,396.61,177.277Z" transform="translate(-359.102 -142.445)" fill="#ff9a6c"/><path d="M399.307,176.273c.061.034.24-.224.218-.587s-.229-.592-.285-.559,0,.279,0,.559S399.235,176.245,399.307,176.273Z" transform="translate(-360.251 -141.558)" fill="#ff9a6c"/><path d="M394.74,180.794a9.607,9.607,0,0,0,3.3-.257,3.259,3.259,0,0,1,1.213-.156,1.319,1.319,0,0,1,.788.52,6.524,6.524,0,0,1,.436.822,1.492,1.492,0,0,0-.274-.95,1.453,1.453,0,0,0-.894-.648,3.124,3.124,0,0,0-1.319.129C396.215,180.654,394.74,180.716,394.74,180.794Z" transform="translate(-358.277 -143.754)" fill="#ff9a6c"/><path d="M393.7,184.324a1.783,1.783,0,0,0,.81,0c.5-.056,1.168-.229,1.895-.374a4.247,4.247,0,0,1,1.023-.1,1.19,1.19,0,0,1,.732.268,1.207,1.207,0,0,1,.363.643.389.389,0,0,0,.045-.224.911.911,0,0,0-.274-.559,1.308,1.308,0,0,0-.844-.374,3.913,3.913,0,0,0-1.118.084c-.749.145-1.4.346-1.878.447a3.829,3.829,0,0,0-.754.19Z" transform="translate(-357.818 -145.294)" fill="#ff9a6c"/><path d="M396,187.72c-.045.034.33.425,1.012.425l-.134-.117a1.083,1.083,0,0,0,.039.352,3.913,3.913,0,0,0,.313,1.392,3.807,3.807,0,0,0-.045-1.42l-.05-.352v-.123h-.117A4.632,4.632,0,0,1,396,187.72Z" transform="translate(-358.83 -147.115)" fill="#ff9a6c"/><path d="M438.009,185.35s7.394,1.788,7.377,11.6-2.236,14.648-2.236,14.648l-13.631-7.439,3.063-7.618Z" transform="translate(-373.619 -146.069)" fill="#455a64"/><path d="M443.01,213.21a1.168,1.168,0,0,1-.279-.123l-.794-.4-2.906-1.531-9.719-5.237-.112-.056.045-.117.732-1.911c.872-2.263,1.677-4.421,2.459-6.382q.57-1.467,1.079-2.794a16.883,16.883,0,0,1,1.079-2.381,7.41,7.41,0,0,1,2.459-2.845,2.928,2.928,0,0,1,.961-.386,1.575,1.575,0,0,1,.263-.034h.1a3.733,3.733,0,0,0-1.258.514,7.411,7.411,0,0,0-2.342,2.85,17.725,17.725,0,0,0-1.034,2.364q-.495,1.316-1.056,2.794l-2.437,6.394-.732,1.911-.067-.179,9.7,5.326,2.861,1.61.766.447a1.32,1.32,0,0,1,.235.168Z" transform="translate(-373.477 -147.684)" fill="#263238"/></g></g></svg>