<svg xmlns="http://www.w3.org/2000/svg" width="250" height="230.715" viewBox="0 0 250 230.715"><g transform="translate(-16.82 -59.082)"><g transform="translate(16.82 278.695)"><path d="M266.82,467.151c0,.075-55.991.14-124.995.14s-125.005-.065-125.005-.14,55.959-.151,125-.151S266.82,467.075,266.82,467.151Z" transform="translate(-16.82 -467)" fill="#263238"/></g><g transform="translate(157.695 63.521)"><path d="M310.766,92.329l-5.093.91a15.457,15.457,0,1,1,2.87-4.738h0Z" transform="translate(-278.559 -67.422)" fill="#fff"/><path d="M310.694,92.234s-.059-.086-.161-.253l-.436-.738-1.674-2.816h.092a.053.053,0,1,1-.081-.07,15.489,15.489,0,0,0,.856-7.43,15.171,15.171,0,0,0-.5-2.331,16.439,16.439,0,0,0-.958-2.358,15.155,15.155,0,0,0-3.306-4.5,15.435,15.435,0,0,0-11.844-4.092,15.613,15.613,0,0,0-6.7,2.277,15.015,15.015,0,0,0-5.141,5.341A15.328,15.328,0,0,0,305.564,93.1h.032l3.769-.63.985-.162.345-.054-.318.07-.958.183-3.806.716h.038a15.349,15.349,0,0,1-6.272,4.307,15.543,15.543,0,0,1-18.784-22.407l.5-.834c.183-.264.377-.538.565-.781a16.949,16.949,0,0,1,1.238-1.464c.21-.237.463-.436.689-.651a7.757,7.757,0,0,1,.711-.625,14.342,14.342,0,0,1,1.534-1.077,15.86,15.86,0,0,1,6.821-2.31A15.672,15.672,0,0,1,304.7,71.577a15.36,15.36,0,0,1,3.333,4.576,16.238,16.238,0,0,1,.937,2.423,14.868,14.868,0,0,1,.485,2.363,15.424,15.424,0,0,1-.931,7.494l-.1-.054h0a.065.065,0,0,1,.081,0h0l1.615,2.891.415.732Z" transform="translate(-278.487 -67.327)" fill="#263238"/><path d="M300.57,97.133,293,92.072l1.766-2.638,5.077,3.392,6.31-8.356,2.536,1.917Z" transform="translate(-285.187 -75.241)" fill="#f8951d"/></g><g transform="translate(102.298 59.082)"><path d="M175.59,87l2.536-4.991a17,17,0,1,1,3.117,5.228h0Z" transform="translate(-175.59 -59.148)" fill="#fff"/><path d="M175.59,86.937h.377l1.077.032,4.178.14-.054.086h0a.06.06,0,1,1,.1-.065,16.942,16.942,0,0,0,6.848,4.711,16.07,16.07,0,0,0,2.514.716,19.219,19.219,0,0,0,2.783.312,16.76,16.76,0,0,0,17.39-17.632c-.027-.328-.027-.662-.065-.991s-.1-.657-.156-.985l-.075-.5c-.032-.162-.081-.323-.118-.485l-.253-.98c-.086-.323-.226-.635-.334-.953a9.573,9.573,0,0,0-.366-.948,17.132,17.132,0,0,0-.942-1.82c-.183-.291-.345-.592-.538-.878l-.608-.824-.312-.382-.339-.377-.678-.759a17.45,17.45,0,0,0-3.128-2.487,17.153,17.153,0,0,0-7.252-2.471,16.873,16.873,0,0,0-16.62,9.152c-.2.436-.447.851-.6,1.292l-.474,1.3a22.686,22.686,0,0,0-.581,2.552,16.786,16.786,0,0,0,.84,8.269.075.075,0,0,1,0,.048c-.835,1.615-1.475,2.832-1.911,3.677l-.5.953c-.113.215-.178.328-.178.328l.151-.312c.108-.226.264-.538.468-.953L178.1,81.94v.048a16.792,16.792,0,0,1-.91-8.334,23.1,23.1,0,0,1,.571-2.584l.479-1.314a13.5,13.5,0,0,1,.592-1.314,17.07,17.07,0,0,1,27.419-4.28l.689.77.35.382.307.415.571.845c.194.285.366.592.538.894a16.18,16.18,0,0,1,.964,1.8c.162.307.248.646.377.964a7.958,7.958,0,0,1,.339.969l.253,1c.038.162.092.328.124.5l.075.5c.054.334.1.668.156,1s.043.673.065,1.007a17,17,0,0,1-17.643,17.863,18.073,18.073,0,0,1-2.816-.328,16.851,16.851,0,0,1-9.405-5.524l.1-.065h0a.065.065,0,0,1,0,.081h-.032l-4.215-.221-1.077-.059Z" transform="translate(-175.59 -59.082)" fill="#263238"/><path d="M203.955,91.117H195.68V74.25h8.275Zm-7.736-.538h7.2V74.788h-7.2Z" transform="translate(-184.864 -66.084)" fill="#263238"/><rect width="1.701" height="2.057" transform="translate(12.625 10.653)" fill="#263238"/><rect width="1.701" height="2.057" transform="translate(15.581 10.653)" fill="#263238"/><rect width="1.701" height="2.057" transform="translate(12.625 13.862)" fill="#263238"/><rect width="1.701" height="2.057" transform="translate(15.581 13.862)" fill="#263238"/><rect width="1.701" height="2.057" transform="translate(12.625 17.076)" fill="#263238"/><rect width="1.701" height="2.057" transform="translate(15.581 17.076)" fill="#263238"/><rect width="1.701" height="2.057" transform="translate(12.625 20.387)" fill="#263238"/><rect width="1.701" height="2.057" transform="translate(15.581 20.387)" fill="#263238"/><rect width="1.701" height="2.057" transform="translate(20.238 18.535)" fill="#263238"/><rect width="1.701" height="2.057" transform="translate(23.193 18.535)" fill="#263238"/><rect width="1.701" height="2.057" transform="translate(20.238 21.415)" fill="#263238"/><rect width="1.701" height="2.057" transform="translate(23.193 21.415)" fill="#263238"/><path d="M218.076,98.388H210V90h8.076Zm-7.537-.538h7V90.538h-7Z" transform="translate(-191.475 -73.355)" fill="#263238"/><rect width="3.796" height="5.4" transform="translate(21.293 10.158)" fill="#455a64"/><path d="M216.338,76.747H213.63l1.357-1.7,1.351-1.7,1.357,1.7,1.357,1.7Z" transform="translate(-193.15 -65.668)" fill="#455a64"/></g><g transform="translate(150.337 77.611)"><path d="M370.711,453.462v.614s-10.3,4.248-10.391,6.213l20.523-.3-.377-6.827a11.731,11.731,0,0,1-9.755.3Z" transform="translate(-308.905 -259.527)" fill="#263238"/><path d="M380.845,464.455l-.092-1.615-19.635.888s-.91.409-.8,1.077Z" transform="translate(-308.901 -263.996)" fill="#455a64"/><path d="M379.5,454.914c0,.1.506.135,1,.452s.765.732.856.689-.065-.619-.673-.985S379.472,454.806,379.5,454.914Z" transform="translate(-317.758 -260.291)" fill="#fff"/><path d="M375.52,456.647c0,.1.415.258.764.678s.447.867.538.861.156-.576-.285-1.077S375.52,456.55,375.52,456.647Z" transform="translate(-315.922 -261.119)" fill="#fff"/><path d="M372.616,460.026c.092,0,.226-.485-.043-1.028s-.738-.759-.775-.673.253.371.463.824S372.519,460.015,372.616,460.026Z" transform="translate(-314.202 -261.903)" fill="#fff"/><path d="M399.294,442.23l-8.738,2.444,2.18,4.953-2.267,12.539a1.421,1.421,0,0,0,.991,1.615,1.448,1.448,0,0,0,1.47-.425c1.927-2.154,8.98-10.154,8.813-11.128l-.28-2.606c-.059-.538-.581-1.825-.581-1.944Z" transform="translate(-322.813 -254.482)" fill="#263238"/><path d="M392.81,471.652l9.944-12.512.048.571a1.577,1.577,0,0,1-.4,1.308c-.781,1.26-3,4.119-8.339,10.159A1.448,1.448,0,0,1,392.81,471.652Z" transform="translate(-323.903 -262.288)" fill="#455a64"/><path d="M395.173,469.753a4.242,4.242,0,0,0-1.308-.937,4.447,4.447,0,0,0-1.615-.151c0-.032.151-.156.474-.226a2.267,2.267,0,0,1,1.254.1,2.207,2.207,0,0,1,1.007.743C395.163,469.538,395.206,469.737,395.173,469.753Z" transform="translate(-323.645 -266.559)" fill="#fff"/><path d="M393.888,473.72a11.683,11.683,0,0,0-1.276-.468,12.425,12.425,0,0,0-1.362-.043,1.615,1.615,0,0,1,1.427-.248C393.511,473.123,393.958,473.677,393.888,473.72Z" transform="translate(-323.183 -268.636)" fill="#fff"/><path d="M397.246,465.187a14.224,14.224,0,0,0-1.922-.845,14.959,14.959,0,0,0-2.094-.28,3.231,3.231,0,0,1,2.154,0,3.149,3.149,0,0,1,1.863,1.125Z" transform="translate(-324.097 -264.474)" fill="#fff"/><path d="M393.462,452.81a8.952,8.952,0,0,1,.1,1.685h0c-.108.727-.264,1.658-.436,2.665-.21,1.19-.415,2.267-.576,3.047a6.331,6.331,0,0,1-.312,1.249,6.39,6.39,0,0,1,.135-1.281c.113-.786.285-1.868.5-3.063.178-1.007.35-1.933.5-2.649h0A10.232,10.232,0,0,1,393.462,452.81Z" transform="translate(-323.64 -259.366)" fill="#455a64"/><path d="M380.028,276.443c.689-3.322,2.433-9.33,1.75-12.1-1.615-6.412-4.388-10.121-8.2-18.262h-2.837L343.5,245.61l-2.229,4.942c-2.477,6.66-4.167,10.633-4.845,15.505-.8,5.61.6,13.739,3.726,21.95,6.73,17.718,10.488,31.888,10.767,35.705s.662,7.758,4.2,19.845c2.579,8.824,4.49,14.095,4.49,14.095,2.692,1.518,5.529,1.927,8.119.452l7.9-3.047s-2.423-20.808-5.249-26.332c-2.035-3.973-5.384-5.858-3.812-11.037S377.917,286.645,380.028,276.443Z" transform="translate(-297.775 -163.717)" fill="#263238"/><path d="M358.4,271.67a1,1,0,0,1,.108.14l.3.415,1.152,1.642,4.307,6.207v.054c-.21,2.326-.291,5.023-.436,8.033s-.3,6.315-.468,9.868-.388,7.354-.592,11.333-.441,8.146-.84,12.426a51.459,51.459,0,0,0-.479,10.418c.081.84.183,1.669.339,2.482a16.286,16.286,0,0,0,.592,2.374c.538,1.507,1.217,2.972,1.836,4.393,2.514,5.691,4.845,10.768,6.827,15.048l4.695,10.1,1.265,2.756c.135.307.242.538.323.716a2.46,2.46,0,0,1,.1.248s-.048-.075-.129-.237l-.345-.705c-.307-.635-.743-1.556-1.308-2.73l-4.743-10.084c-1.981-4.264-4.355-9.341-6.88-15.026-.625-1.427-1.281-2.87-1.857-4.409a16.553,16.553,0,0,1-.6-2.407c-.162-.824-.269-1.658-.35-2.5a51.513,51.513,0,0,1,.474-10.477c.4-4.259.6-8.431.845-12.383s.425-7.78.614-11.333.35-6.864.506-9.868.253-5.707.479-8.033v.048c-1.82-2.692-3.263-4.8-4.259-6.251l-1.12-1.664-.28-.431a.816.816,0,0,1-.081-.162Z" transform="translate(-308.019 -175.747)" fill="#455a64"/><path d="M359.942,159.535l1.674-4.226,9.965-.538,4.07.538.447,1.174,2.762,48.874s-9.653,1.949-14.477,1.271a56.726,56.726,0,0,1-10.5-2.88v-27.8Z" transform="translate(-305.932 -121.783)" fill="#f5f5f5"/><path d="M380.739,166.876s0,.032-.07.086l-.215.242a11.628,11.628,0,0,1-.851.883,34.951,34.951,0,0,1-3.263,2.859l-.048.038-.038-.048a36.809,36.809,0,0,1-2.993-3.742c-.1-.145-.2-.3-.3-.431h.124c-.856,1.147-1.664,2.234-2.4,3.23a1.615,1.615,0,0,1-.334.334.619.619,0,0,1-.463.129.77.77,0,0,1-.4-.226c-.108-.108-.188-.221-.275-.323l-.948-1.184-1.357-1.717-.361-.468a1.317,1.317,0,0,1-.118-.167l.14.151.382.452,1.394,1.685.958,1.174c.172.2.345.452.6.5s.49-.183.668-.415l2.385-3.23.059-.086.059.086.291.425a39.7,39.7,0,0,0,2.972,3.742h-.091a38.376,38.376,0,0,0,3.289-2.8c.382-.366.673-.657.878-.856l.232-.226A.5.5,0,0,1,380.739,166.876Z" transform="translate(-311.73 -127.138)" fill="#263238"/><g transform="translate(57.622 39.56)" opacity="0.3"><path d="M371.85,170.259s1.265,1.556,1.615,1.163,2.229-3.289,2.45-3.408,2.487,3.941,3.376,3.661,4.054-3.451,4.054-3.451l.059-1.244-4.608,4.194-3.268-4.183-2.756,3.58S372.189,171.045,371.85,170.259Z" transform="translate(-371.85 -166.98)"/></g><path d="M375.782,212.993a2.689,2.689,0,0,1,0-.458c0-.323,0-.764.043-1.314.048-1.163.113-2.8.194-4.845.172-4.076.4-9.691.619-15.92s.371-11.844.485-15.925c.054-2.019.1-3.661.135-4.845q.032-.824.048-1.308a2.757,2.757,0,0,1,.038-.458,2.69,2.69,0,0,1,0,.458v1.314c0,1.168-.027,2.81-.048,4.845-.059,4.076-.188,9.691-.4,15.931s-.479,11.844-.7,15.92c-.118,2.014-.215,3.656-.285,4.845-.038.538-.07.985-.1,1.314A3.4,3.4,0,0,1,375.782,212.993Z" transform="translate(-316.038 -127.853)" fill="#263238"/><g transform="translate(45.73 65.413)" opacity="0.3"><path d="M354.993,215l-5.233,34.354.4,3.72a1.28,1.28,0,0,0,1.841-.167,3.683,3.683,0,0,0,.721-1.927A153.65,153.65,0,0,0,354.993,215Z" transform="translate(-349.76 -215)"/></g><path d="M336.974,163.2a6.24,6.24,0,0,0-4.059,4.135l-6.234,21.993,5.115,15.075,5.341-9.088L340.9,162.42Z" transform="translate(-293.376 -125.315)" fill="#f8951d"/><path d="M344.242,158.8l-5.922,1.158-1.658,31.436c0,.388.388,6.461.388,6.461L326.82,220.69c2.283,4.07,8.453,5.981,12.8,7,0,0,4.4-31.226,4.689-38.106s4.705-33.632,4.705-33.632Z" transform="translate(-293.441 -122.328)" fill="#f8951d"/><path d="M329.2,226.723l.038-.1.129-.3.5-1.152c.436-1.007,1.077-2.46,1.863-4.275l6.374-14.472v.032q-.073-2.334-.183-4.845c-.172-3.72-.377-7.268-.511-10.493s-.221-6.137-.248-8.582,0-4.42,0-5.782c0-.678.027-1.206.038-1.572v1.572c0,1.362,0,3.343.038,5.782s.129,5.346.28,8.576.334,6.773.538,10.493c.075,1.653.135,3.273.178,4.845v.032l-6.417,14.455c-.808,1.8-1.454,3.23-1.906,4.253-.221.5-.4.878-.538,1.141-.059.129-.1.226-.14.3A.4.4,0,0,1,329.2,226.723Z" transform="translate(-294.539 -130.951)" fill="#263238"/><path d="M357,188.616a.177.177,0,0,0-.027-.075l-.054-.221c-.048-.2-.113-.485-.194-.845-.156-.738-.371-1.809-.576-3.15s-.4-2.929-.538-4.711-.28-3.736-.377-5.793c-.032-.77-.07-1.524-.1-2.261l-.048-1.077V169.39s.065-.027.075,0,.038,0,.054.043h-.1l1.583-1.109v.118l-1.734-.867h-.048v-.048c.258-.974.571-1.847.84-2.611s.538-1.432.738-1.976.382-.964.5-1.254c.059-.135.108-.242.14-.328a.343.343,0,0,1,.054-.108.494.494,0,0,1-.038.118l-.118.334c-.113.3-.269.727-.474,1.265s-.441,1.211-.705,1.981-.565,1.615-.818,2.611l-.032-.07,1.723.791.108.048-.1.07-1.577,1.109h-.1a.378.378,0,0,0,.048-.038h0a.027.027,0,0,0,.027,0h.027v.463l.027.538c0,.355.032.721.048,1.077.032.738.07,1.491.1,2.261.1,2.057.215,4.011.366,5.788s.334,3.376.538,4.711.393,2.407.538,3.149c.07.361.129.646.167.851a.938.938,0,0,0,.043.221C356.994,188.583,357,188.616,357,188.616Z" transform="translate(-306.408 -124.774)" fill="#263238"/><path d="M403.366,200.16l3.769-38.036-10.59-3.882s-2.482-2.283-3.8-3.462l-.468,5.965s-1.432,24.415.824,36.712,1.938,11.877,3.586,19.877c1.2,5.82,1.4,10.9,3.23,11.414s10.961-2.832,10.961-2.832Z" transform="translate(-323.45 -121.788)" fill="#f8951d"/><path d="M411.059,168.42a8.33,8.33,0,0,1,4.77,6.913c.458,3.941,2.88,26.45.345,29.255a74.985,74.985,0,0,1-9.911,8.915l-5.922-7.7,5.621-6.181,3.171-27.269Z" transform="translate(-327.379 -128.084)" fill="#f8951d"/><path d="M398.411,187.27a.389.389,0,0,1,0-.075.48.48,0,0,1,.038-.21q.059-.291.161-.808c.129-.7.323-1.717.5-2.983.377-2.53.7-6.046.883-9.944q.065-1.378.129-2.692c0-.436.038-.861.059-1.281l.032-.619v-.452a.284.284,0,0,0,0-.07h0a.07.07,0,0,0,.043,0H400.2l-1.577-1.114-.092-.059.1-.048,1.723-.791-.032.065a21.265,21.265,0,0,1-.35-2.1c-.081-.625-.156-1.158-.242-1.588s-.178-.764-.242-.991l-.086-.253c0-.054-.027-.086,0-.086a.615.615,0,0,1,.038.081,1.316,1.316,0,0,0,.1.248,7.417,7.417,0,0,1,.275.985c.1.436.183.969.275,1.588a21.116,21.116,0,0,0,.371,2.089v.043h-.043l-1.7.845v-.108l1.583,1.1h-.1a.118.118,0,0,1,.054-.027.113.113,0,0,1,.054,0h0v.592a4.812,4.812,0,0,1-.027.619c0,.42-.038.845-.054,1.281-.043.867-.081,1.766-.124,2.692a96.413,96.413,0,0,1-.931,9.955c-.194,1.265-.4,2.277-.538,2.977-.081.339-.14.608-.188.8q-.032.129-.048.21C398.422,187.249,398.416,187.27,398.411,187.27Z" transform="translate(-326.484 -124.737)" fill="#263238"/><path d="M419.089,226.843a7.957,7.957,0,0,0-1.007-.538,7.423,7.423,0,0,0-1.163-.447,8.207,8.207,0,0,0-1.5-.269,8.3,8.3,0,0,0-1.524.043,7,7,0,0,0-1.217.269c-.678.21-1.077.431-1.077.4a1.12,1.12,0,0,1,.269-.167,3.238,3.238,0,0,1,.328-.156,4.143,4.143,0,0,1,.452-.183,6.773,6.773,0,0,1,1.233-.3,7.1,7.1,0,0,1,3.079.232,7,7,0,0,1,1.168.479,3.957,3.957,0,0,1,.42.248,3.013,3.013,0,0,1,.307.2A1.276,1.276,0,0,1,419.089,226.843Z" transform="translate(-332.577 -154.398)" fill="#263238"/><g transform="translate(72.18 36.944)" opacity="0.3"><path d="M399.811,162.12s1.911,4.458,1.615,4.845a3.016,3.016,0,0,1-1.271.635s1.647.716,1.647,1.346c0,1.26-1.771,8.711-1.771,8.711l.436-9.1-1.577-1.077,1.723-.8Z" transform="translate(-398.89 -162.12)"/></g><path d="M408.1,185.43a1.153,1.153,0,0,1,0,.312c0,.231-.032.538-.054.888-.059.813-.145,1.917-.248,3.268-.242,2.794-.565,6.584-.926,10.768-.124,1.3-.237,2.568-.35,3.769q-.086.9-.194,1.76a10.5,10.5,0,0,1-.291,1.653h0l-4.108,4.269-1.163,1.163a2.931,2.931,0,0,1-.431.4,3.115,3.115,0,0,1,.377-.447l1.109-1.217,4.005-4.259v.043a11.381,11.381,0,0,0,.264-1.615c.065-.565.124-1.152.183-1.755.108-1.206.221-2.471.339-3.769.393-4.183.748-7.973,1.007-10.768.14-1.351.258-2.455.339-3.263.043-.355.081-.651.108-.883A1.265,1.265,0,0,1,408.1,185.43Z" transform="translate(-327.379 -135.937)" fill="#263238"/><path d="M317.478,205.06l-4.108,9.152-3.876-4.345-5.174,3.65,6.078,9.75c1.911,2.45,3.736,4.119,5.814,3.855a6.339,6.339,0,0,0,1.228-.3A8.051,8.051,0,0,0,323,221.012l2.353-11.8Z" transform="translate(-283.054 -144.998)" fill="#f8951d"/><path d="M326.134,227.655a2.976,2.976,0,0,1-.081-.388c-.043-.248-.118-.608-.221-1.05s-.242-.958-.425-1.529-.415-1.184-.689-1.814-.581-1.217-.872-1.739-.587-.974-.84-1.346-.474-.673-.625-.872a2.979,2.979,0,0,1-.232-.318,2.156,2.156,0,0,1,.264.291c.167.194.393.485.657.851s.538.824.867,1.341a19.439,19.439,0,0,1,.888,1.744c.275.635.5,1.26.684,1.83a13.529,13.529,0,0,1,.4,1.545c.092.468.151.808.183,1.077A2.155,2.155,0,0,1,326.134,227.655Z" transform="translate(-291.285 -151.249)" fill="#263238"/><path d="M371.592,96.79l-.032.14h0C371.587,96.9,371.587,96.838,371.592,96.79Z" transform="translate(-314.094 -95.018)" fill="#263238"/><path d="M351.085,123.907a12.025,12.025,0,0,0-.942-4.275,7.492,7.492,0,0,1-.452-4.307c.5-1.777,2.094-3.015,2.956-4.652a13.911,13.911,0,0,0,1.077-5.416,8.782,8.782,0,0,1,1.69-5.2c1.551-1.766,5.61-2.084,7.537-.721.3,10.509.2,20.916-2.046,31.188-5.131.221-7.731-.781-12.2-3.289A3.47,3.47,0,0,0,351.085,123.907Z" transform="translate(-303.541 -95.804)" fill="#263238"/><path d="M377.493,131.268l1.857-25.519a2.256,2.256,0,0,0-1.949-2.342l-11.844-3.354c-3.812-.538-6.487,4.124-6.837,7.952-.388,4.253-.695,9.465-.28,12.657.834,6.423,5.712,7.376,5.712,7.376-.1,3.166-.065,3.23-.065,3.23l5.228,4.781Z" transform="translate(-307.946 -96.505)" fill="#ffbf9d"/><path d="M362.339,124.562a.818.818,0,0,0,.764.851.786.786,0,0,0,.867-.716.824.824,0,0,0-.764-.851.786.786,0,0,0-.867.716Z" transform="translate(-309.837 -107.506)" fill="#263238"/><path d="M361.063,119.3c.1.108.732-.334,1.615-.307s1.518.49,1.615.382-.048-.242-.323-.458a2.266,2.266,0,0,0-1.292-.436,2.153,2.153,0,0,0-1.287.377C361.111,119.034,361.025,119.227,361.063,119.3Z" transform="translate(-309.244 -105.03)" fill="#263238"/><path d="M376.319,124.852a.818.818,0,0,0,.764.851.786.786,0,0,0,.867-.716.818.818,0,0,0-.765-.851.781.781,0,0,0-.867.716Z" transform="translate(-316.291 -107.639)" fill="#263238"/><path d="M377.16,120.017c.1.108.738-.334,1.615-.307s1.518.49,1.615.382-.048-.242-.323-.452a2.256,2.256,0,0,0-1.292-.441,2.153,2.153,0,0,0-1.287.377C377.214,119.775,377.112,119.969,377.16,120.017Z" transform="translate(-316.674 -105.362)" fill="#263238"/><path d="M368.968,126.413a5.594,5.594,0,0,0-1.427-.3c-.226-.027-.436-.081-.468-.237a1.125,1.125,0,0,1,.167-.662c.226-.538.468-1.077.716-1.7a27.329,27.329,0,0,0,1.615-4.447,28.17,28.17,0,0,0-1.981,4.307c-.237.592-.468,1.163-.684,1.707a1.3,1.3,0,0,0-.145.883.587.587,0,0,0,.361.339,1.571,1.571,0,0,0,.382.065,6.061,6.061,0,0,0,1.464.043Z" transform="translate(-311.867 -105.303)" fill="#263238"/><path d="M369.158,150.214a16.28,16.28,0,0,0,8.614-2.04c.382-.883-1.712,3.193-8.662,3.715Z" transform="translate(-312.963 -118.68)" fill="#ff9a6c"/><path d="M370.884,135.838a2.153,2.153,0,0,1,1.814-.9,1.427,1.427,0,0,1,1.147.668,1.378,1.378,0,0,1-.065,1.427,1.357,1.357,0,0,1-1.448.474,3.257,3.257,0,0,1-1.276-.84,1.044,1.044,0,0,1-.269-.339.447.447,0,0,1,.048-.447" transform="translate(-313.719 -112.628)" fill="#ff9a6c"/><path d="M373.2,134c-.145,0-.172.942-1.012,1.615a4.6,4.6,0,0,1-1.868.657c-.016.118.226.194.657.215a2.4,2.4,0,0,0,1.556-.49,2.078,2.078,0,0,0,.786-1.346C373.377,134.226,373.264,134,373.2,134Z" transform="translate(-313.521 -112.195)" fill="#263238"/><path d="M376.637,113.492c.081.242.964.156,2,.307s1.863.463,2,.253c.065-.1-.075-.334-.4-.576a3.343,3.343,0,0,0-1.475-.538,3.381,3.381,0,0,0-1.572.135C376.8,113.169,376.6,113.352,376.637,113.492Z" transform="translate(-316.436 -102.455)" fill="#e0e0e0"/><path d="M361.792,113.559c.151.2.765,0,1.491,0s1.346.172,1.5-.032c.065-.1-.027-.3-.291-.5a2.067,2.067,0,0,0-1.206-.366,2.111,2.111,0,0,0-1.206.371C361.814,113.257,361.728,113.462,361.792,113.559Z" transform="translate(-309.575 -102.344)" fill="#263238"/><path d="M369.19,97c1.077-2.627,3.473-3.182,6.019-3.456A15.119,15.119,0,0,1,383.64,95.7a19.673,19.673,0,0,1,4.662,3.952,20.553,20.553,0,0,1,2.337,4.8c1.077,2.617,1.023,5.508,1.174,8.318a50.6,50.6,0,0,0,1.685,10.444c.334,1.227.673,2.692-1.077,3.4a4.033,4.033,0,0,1-1.012.248c-2.692.323-5.3,1.2-8.3,1.389h-1.847a3.145,3.145,0,0,1-3.462-3.419c.242-5.777,3.058-15.263,3.37-17.083C381.19,107.766,382.165,95.3,369.19,97Z" transform="translate(-313 -93.499)" fill="#263238"/><path d="M370.76,98.931a3.769,3.769,0,0,1,1.346,2.638c.14,1.007.081,2.04.269,3.036a6.358,6.358,0,0,0,3.656,4.582c.6.253,1.411.361,1.782-.172a3.5,3.5,0,0,0,2.154,3.343,18.564,18.564,0,0,0,3,.538c1,.221,2.04.9,2.094,1.927l.42-7.1-2-6.277L377.35,97.8Z" transform="translate(-313.725 -95.484)" fill="#263238"/><path d="M382.94,109.892a5.218,5.218,0,0,1-.587-.474,4.307,4.307,0,0,1-.969-1.793,14.817,14.817,0,0,1-.425-3.02,24.164,24.164,0,0,0-.436-3.742,7.134,7.134,0,0,0-1.669-3.354,4.188,4.188,0,0,0-1.341-.964,4.129,4.129,0,0,0-1.4-.345,3.306,3.306,0,0,0-2,.479,1.617,1.617,0,0,0-.264.188,1.076,1.076,0,0,0-.178.162,1.444,1.444,0,0,0-.135.151,4.181,4.181,0,0,1,.6-.463,3.338,3.338,0,0,1,1.97-.431,4.054,4.054,0,0,1,2.692,1.3,7.117,7.117,0,0,1,1.615,3.306,25.151,25.151,0,0,1,.441,3.72,14.226,14.226,0,0,0,.458,3.042,4.189,4.189,0,0,0,1.018,1.8A2.234,2.234,0,0,0,382.94,109.892Z" transform="translate(-315.008 -94.741)" fill="#fff"/><path d="M387.538,107.971a3.7,3.7,0,0,1-.937-.237,4.889,4.889,0,0,1-1.96-1.723,9.322,9.322,0,0,1-.9-1.583,7.111,7.111,0,0,1-.5-2.024c-.092-.732-.118-1.513-.2-2.32-.048-.4-.1-.813-.194-1.222a6.691,6.691,0,0,0-.409-1.211A6.557,6.557,0,0,0,379,94.344a6.191,6.191,0,0,0-3.9-.264,6.4,6.4,0,0,0-2.39,1.158,4.986,4.986,0,0,0-.711.668.172.172,0,0,0,.048-.043l.14-.124c.059-.059.135-.129.226-.2a3.914,3.914,0,0,1,.328-.258,6.46,6.46,0,0,1,2.38-1.109,6.191,6.191,0,0,1,3.833.28,6.514,6.514,0,0,1,3.365,3.23,6.863,6.863,0,0,1,.4,1.19,12.048,12.048,0,0,1,.194,1.211c.086.8.118,1.577.21,2.32a7.133,7.133,0,0,0,.538,2.046,9.529,9.529,0,0,0,.921,1.615,4.91,4.91,0,0,0,2.013,1.717,2.988,2.988,0,0,0,.7.172h.188Z" transform="translate(-314.297 -93.676)" fill="#455a64"/><path d="M383.86,113.686v.231a.893.893,0,0,0,.038.291c.038.113.048.242.081.388a3.941,3.941,0,0,0,.4,1.012,3.559,3.559,0,0,0,.969,1.077,5.734,5.734,0,0,0,3.682.91,10.956,10.956,0,0,0,2.283-.355,9.153,9.153,0,0,0,2.326-.937l.145-.086h-.167a8.921,8.921,0,0,1-2.692-.829h-.048l-.038.113a8.49,8.49,0,0,0,5.529-.991l.113-.065-.124-.038a10.423,10.423,0,0,1-3.279-1.664,5.243,5.243,0,0,1-1.712-2.277,5.3,5.3,0,0,1-.28-1.852,4.791,4.791,0,0,1,.038-.5v-.194a.242.242,0,0,1,0,.043v.129c0,.118-.032.285-.059.5a5.222,5.222,0,0,0,.253,1.879,5.313,5.313,0,0,0,1.766,2.337,10.617,10.617,0,0,0,3.306,1.7v-.1a8.415,8.415,0,0,1-5.454.969l-.415-.07.377.183h.048a9.012,9.012,0,0,0,2.692.84v-.113a9.287,9.287,0,0,1-2.3.931,10.66,10.66,0,0,1-2.256.355,5.669,5.669,0,0,1-3.629-.867,3.5,3.5,0,0,1-.964-1.077,4.424,4.424,0,0,1-.42-1c-.032-.145-.065-.269-.086-.382s-.032-.21-.048-.285,0-.129-.027-.172A.355.355,0,0,0,383.86,113.686Z" transform="translate(-319.772 -100.156)" fill="#455a64"/><path d="M406.646,138.008c.032,0-.355-3.424-.867-7.634s-.958-7.623-.991-7.623.355,3.424.867,7.634S406.608,138.008,406.646,138.008Z" transform="translate(-329.432 -107.002)" fill="#455a64"/><path d="M329.07,203.563a3.731,3.731,0,0,0-2.94.63c-1.335.98-3.623,2.283-5.922,1.83-3.569-.705-5.508-4.054-4.711-8.076s3.849-6.423,7.424-5.718c2.31.452,3.936,2.52,4.8,3.936a3.8,3.8,0,0,0,6.934-1.3l3.962-23.828-37.32-6.52-25.508-4.42-3.984,22.612c-.4,2.057,1.324,3.882,3.381,4.307a3.72,3.72,0,0,0,2.934-.635c1.335-.98,3.629-2.283,5.922-1.83,3.575.705,5.513,4.054,4.716,8.1s-3.855,6.423-7.43,5.718c-2.3-.452-3.936-2.52-4.8-3.936a3.784,3.784,0,0,0-6.929,1.292l-4.781,26.628,37.536,6.606,22.02,3.876,2.692.479,4.98-25.266a3.769,3.769,0,0,0-2.977-4.49Z" transform="translate(-264.82 -124.244)" fill="#455a64"/><path d="M308.643,211.856a.969.969,0,0,0-1.018-1.007c-.312,0-.716.038-1.211.086-1.287.129-5.093,2-5.2,2.756a1.615,1.615,0,0,0,.415,1.534,2.369,2.369,0,0,0-.474,1.8c.237.695,1.357.937,1.357.937s-.829.964,0,1.653c.3.237.894.695,1.028.851a2.584,2.584,0,0,0,.237.592A2.256,2.256,0,0,0,305.4,222h.215a1.615,1.615,0,0,0,1.152-.334c1.486-1.136,5.7-4.431,5.777-5.346,0,0,.8-.625.49-1.276s-1.513-.371-1.513-.371a.985.985,0,0,0,.3-1.125c-.275-.689-2.4-.63-3.365-.5-.77.1-2.913.447-2.913.447s2.853-.98,3.02-1.464a.728.728,0,0,0,.081-.172Z" transform="translate(-281.568 -147.67)" fill="#ffbf9d"/><path d="M315.644,221.05a1.842,1.842,0,0,1-.285.178c-.188.1-.463.248-.813.42-.689.345-1.669.775-2.767,1.2s-2.116.764-2.853,1c-.366.118-.662.2-.872.269a2.376,2.376,0,0,1-.323.081,2.308,2.308,0,0,1,.312-.124l.861-.3c.732-.253,1.734-.608,2.837-1.028s2.073-.845,2.773-1.168l.829-.393a2.5,2.5,0,0,1,.3-.14Z" transform="translate(-284.628 -152.38)" fill="#ff9a6c"/><path d="M314.169,217.94a1.426,1.426,0,0,1-.312.07c-.2.038-.49.092-.851.172-.716.156-1.691.425-2.756.764-.538.167-1.044.318-1.5.474s-.861.328-1.2.468-.6.275-.791.361a1.616,1.616,0,0,1-.291.129l.07-.048.2-.118c.178-.1.441-.237.775-.388s.738-.328,1.2-.5.969-.318,1.5-.485a27.586,27.586,0,0,1,2.778-.738c.355-.07.651-.113.856-.14Z" transform="translate(-284.047 -150.944)" fill="#ff9a6c"/><path d="M306.665,215.8a2.423,2.423,0,0,1-.458.242c-.291.135-.7.307-1.152.5s-.851.366-1.141.5a4.076,4.076,0,0,1-.474.21,2.05,2.05,0,0,1,.441-.275,10.651,10.651,0,0,1,1.136-.538c.452-.188.861-.35,1.158-.468A2.98,2.98,0,0,1,306.665,215.8Z" transform="translate(-282.648 -149.956)" fill="#ff9a6c"/><path d="M314.627,224.15a1.564,1.564,0,0,1-.194.226c-.135.135-.334.328-.587.538-.506.468-1.238,1.077-2.035,1.739-.194.167-.382.345-.581.5a5.54,5.54,0,0,1-.581.415,3.865,3.865,0,0,1-1.109.485,2.309,2.309,0,0,1-.813.07,1.438,1.438,0,0,1-.221-.027h-.075a2.427,2.427,0,0,1,.3,0,2.525,2.525,0,0,0,.791-.108,3.984,3.984,0,0,0,1.077-.49,6.345,6.345,0,0,0,.571-.415c.194-.151.377-.323.576-.5.8-.678,1.54-1.265,2.057-1.712l.6-.538A2.033,2.033,0,0,1,314.627,224.15Z" transform="translate(-284.951 -153.811)" fill="#ff9a6c"/><path d="M387.17,238.494a6.319,6.319,0,0,0-2.46-1.664c-1.125-.231-2.692-.032-2.956-.226s-.856-.958-1.389-.485a1.928,1.928,0,0,0,.883,3.289l1.615.264a8.012,8.012,0,0,1-.964,2.154c-.5.576-7.155,6.638-7.155,6.638s-.8.581-.571,1.33,1.777.592,1.777.592a2.4,2.4,0,0,0,2.154.851,8.255,8.255,0,0,0,1.809-.538,2.229,2.229,0,0,0,2.665.436c1.551-.813,8.162-6.714,8.162-6.714l-1.664-5.863Z" transform="translate(-315.281 -159.266)" fill="#ffbf9d"/><path d="M399.8,238.52l-1.658,1.158c2.057,2.073,3.618,3.914,3.193,6.4l3.2-1.3A6.218,6.218,0,0,0,399.8,238.52Z" transform="translate(-326.364 -160.444)" fill="#ffbf9d"/><path d="M382.6,256.618a8.323,8.323,0,0,1-2.256,1.97,8.447,8.447,0,0,1-2.692,1.3c-.032-.081,1.179-.63,2.541-1.534S382.538,256.558,382.6,256.618Z" transform="translate(-316.905 -168.797)" fill="#ff9a6c"/><path d="M387.918,259a5.96,5.96,0,0,1-3.769,2.611c-.027-.081.942-.436,1.976-1.163S387.837,258.955,387.918,259Z" transform="translate(-319.905 -169.897)" fill="#ff9a6c"/></g><g transform="translate(46.137 65.018)"><path d="M214.67,182.741l2.024-1.211,2.665,7.182-2.159,1.335Z" transform="translate(-137.469 -121.543)" fill="#f5f5f5"/><path d="M131.2,88.628A11.1,11.1,0,0,0,120.561,78h-.571c-6.213.1-9.588,5.438-9.314,11.64l.786,24.981,9.815,3.769,3.8-3.489c0-1.75,0-5.384.038-5.384s5.992-.678,6.31-6.627C131.576,99.955,131.41,94.006,131.2,88.628Z" transform="translate(-89.456 -73.751)" fill="#ffbf9d"/><path d="M130.931,134.191a14.358,14.358,0,0,1-7.661-2.611s1.68,4.555,7.645,4.264Z" transform="translate(-95.277 -98.484)" fill="#ff9a6c"/><path d="M143.546,106.592a.845.845,0,0,1-.856.824.8.8,0,0,1-.84-.8.845.845,0,0,1,.851-.824.813.813,0,0,1,.845.8Z" transform="translate(-103.854 -86.579)" fill="#263238"/><path d="M143.37,101.7c-.113.108-.738-.4-1.653-.431s-1.615.393-1.7.275.07-.248.371-.447a2.32,2.32,0,0,1,1.362-.361,2.24,2.24,0,0,1,1.308.485C143.338,101.448,143.424,101.653,143.37,101.7Z" transform="translate(-103 -84.246)" fill="#263238"/><path d="M128.761,106.592a.851.851,0,0,1-.856.824.813.813,0,0,1-.845-.8.856.856,0,0,1,.856-.824.813.813,0,0,1,.845.8Z" transform="translate(-97.027 -86.579)" fill="#263238"/><path d="M126.689,101.411c-.108.1-.732-.4-1.647-.436s-1.615.4-1.7.28.07-.248.371-.447a2.337,2.337,0,0,1,1.367-.361,2.3,2.3,0,0,1,1.308.479C126.656,101.158,126.742,101.363,126.689,101.411Z" transform="translate(-95.298 -84.112)" fill="#263238"/><path d="M135.042,108.994a5.922,5.922,0,0,1,1.5-.21c.237,0,.458-.048.506-.21a1.2,1.2,0,0,0-.129-.695c-.194-.576-.4-1.179-.619-1.809a29.6,29.6,0,0,1-1.357-4.722,30.257,30.257,0,0,1,1.734,4.6c.2.635.4,1.238.587,1.82a1.324,1.324,0,0,1,.086.921.6.6,0,0,1-.4.328,1.862,1.862,0,0,1-.4.038,6.261,6.261,0,0,1-1.507-.059Z" transform="translate(-100.658 -84.529)" fill="#263238"/><path d="M126.763,96.032c-.135.232-1.012-.054-2.089-.118s-1.992.059-2.089-.183c-.043-.118.145-.323.538-.5a3.629,3.629,0,0,1,3.182.231C126.666,95.7,126.822,95.924,126.763,96.032Z" transform="translate(-94.958 -81.586)" fill="#263238"/><path d="M143.387,96.682c-.194.2-.931-.032-1.83-.07s-1.658.1-1.825-.124c-.075-.108.048-.312.388-.5a3.047,3.047,0,0,1,2.945.156C143.377,96.391,143.473,96.58,143.387,96.682Z" transform="translate(-102.866 -81.913)" fill="#263238"/><path d="M107.761,107.549c-.1-.048-4.043-1.378-4.081,2.692s4.059,3.273,4.07,3.155S107.761,107.549,107.761,107.549Z" transform="translate(-86.234 -87.278)" fill="#ffbf9d"/><path d="M107.444,112.967a1.326,1.326,0,0,1-.188.1.689.689,0,0,1-.538,0,1.744,1.744,0,0,1-.8-1.583,2.347,2.347,0,0,1,.2-1.012.835.835,0,0,1,.538-.538.366.366,0,0,1,.415.2c.054.118,0,.2.048.2s.086-.07.059-.237a.458.458,0,0,0-.162-.258.538.538,0,0,0-.388-.108,1,1,0,0,0-.748.63,2.4,2.4,0,0,0-.258,1.131,1.8,1.8,0,0,0,1.018,1.771.764.764,0,0,0,.651-.1A.453.453,0,0,0,107.444,112.967Z" transform="translate(-87.133 -88.4)" fill="#ff9a6c"/><path d="M129.682,116.6c.14,0,.145.926.953,1.615s1.8.538,1.8.684-.221.183-.641.194a2.32,2.32,0,0,1-1.507-.538,2.024,2.024,0,0,1-.738-1.33C129.515,116.815,129.618,116.595,129.682,116.6Z" transform="translate(-98.174 -91.569)" fill="#263238"/><path d="M134.2,79.622a.921.921,0,0,0-.447-.538,2.939,2.939,0,0,0-1.518-.269,8.469,8.469,0,0,1-3.72-.98,4.307,4.307,0,0,0,1.1-.754,2.557,2.557,0,0,0,.764-2.563.538.538,0,0,0-.312-.393c-.264-.086-.5.172-.689.377a2.213,2.213,0,0,1-2.084.856,3.618,3.618,0,0,1-1.54-.479.281.281,0,0,1-.054-.059l-.614-.635h0a13.564,13.564,0,0,0-4.178-3.171,13.836,13.836,0,0,0-7.387-.662,5.552,5.552,0,0,0-4.275,4.307,4.267,4.267,0,0,0-4.307-.458h-.038c-1.583.538-2.5,2.2-2.983,3.806a.974.974,0,0,1-.075.264A6.267,6.267,0,0,1,99.7,80.322c-.151.086-.328.194-.35.371a.538.538,0,0,0,.269.42,3.2,3.2,0,0,0,1.271.538,7.148,7.148,0,0,1-.538,1.077c-.178.3-.393.662-.242.974a.662.662,0,0,0,.668.345,1.96,1.96,0,0,0,.738-.323l-.538,1.26a3.769,3.769,0,0,0,1.717-.1c.318,1.507.538,4.307.915,5.325a6.406,6.406,0,0,1,1.89.1c.705.242.42,1.491,1.341,1.147.468-.178,1.211-1.938,1.373-2.417a23.36,23.36,0,0,0,1.131-9.841,7.537,7.537,0,0,1,2.326-1.615l-.07.065c1.674-.538,3.564-1.109,5.136-.312,1.222.625,1.927,1.906,2.832,2.929a8.539,8.539,0,0,0,6.261,3.139c.215,1.8.248,4.743.318,6.423l1.475-3.343h0c.118-.2.215-.4.312-.592l.032-.059h0a10.433,10.433,0,0,1,.479-.948h0a1.077,1.077,0,0,0,1.567-1.378,2.4,2.4,0,0,0-.5-.538,1.653,1.653,0,0,0,1.577.431A1.3,1.3,0,0,0,132,82.12a1.1,1.1,0,0,0-.646-.9,3.768,3.768,0,0,0,2.154-.441C133.924,80.542,134.344,80.155,134.2,79.622Z" transform="translate(-84.235 -70.107)" fill="#263238"/><path d="M113.622,79.87a5.027,5.027,0,0,0-.6.538,4.275,4.275,0,0,0-.937,1.97,7.257,7.257,0,0,0-.172,1.513c0,.538.032,1.141.065,1.76a15.653,15.653,0,0,1,0,1.954,6.821,6.821,0,0,1-.145,1.034,2.186,2.186,0,0,1-.431,1,.9.9,0,0,1-.845.275,1.389,1.389,0,0,1-.754-.436,3.139,3.139,0,0,1-.538-1.524h.129a4.915,4.915,0,0,1-.743,1.238,1.761,1.761,0,0,1-1.168.619,1.184,1.184,0,0,1-.614-.113,1.044,1.044,0,0,1-.409-.415,1.007,1.007,0,0,1-.124-.538.743.743,0,0,1,.2-.463l.059.059a3.812,3.812,0,0,1-1.292.948c-.167.075-.307.118-.4.151a.92.92,0,0,1-.14.032l.135-.059c.086-.032.221-.086.388-.167a3.973,3.973,0,0,0,1.249-.958l.059.054a.759.759,0,0,0-.048.888.937.937,0,0,0,.371.366,1.077,1.077,0,0,0,.538.1,1.669,1.669,0,0,0,1.077-.587,4.791,4.791,0,0,0,.711-1.217l.092-.188.038.2a2.977,2.977,0,0,0,.538,1.459,1.222,1.222,0,0,0,.673.388.759.759,0,0,0,.721-.232,2.014,2.014,0,0,0,.4-.931,7.2,7.2,0,0,0,.145-1.007,15.514,15.514,0,0,0,0-1.944c-.032-.619-.065-1.211-.048-1.766a7.43,7.43,0,0,1,.188-1.534,4.237,4.237,0,0,1,.98-1.965,2.342,2.342,0,0,1,.657-.5Z" transform="translate(-86.732 -74.614)" fill="#455a64"/><path d="M139.8,83.012l-.048.038-.151.108a2.662,2.662,0,0,1-.253.162,3.859,3.859,0,0,1-.366.183,5.244,5.244,0,0,1-2.557.431,6.73,6.73,0,0,1-3.586-1.367,11.666,11.666,0,0,1-3.053-3.6c-.425-.727-.775-1.47-1.152-2.154a8.027,8.027,0,0,0-1.314-1.83,4.059,4.059,0,0,0-1.707-1.077,2.956,2.956,0,0,0-.9-.113,3.182,3.182,0,0,0-.834.151,3.542,3.542,0,0,0-1.254.732,3.386,3.386,0,0,0-.678.867,3.592,3.592,0,0,0-.318.894s0,0,0-.065a.458.458,0,0,1,.027-.183,3,3,0,0,1,.237-.673,3.322,3.322,0,0,1,.678-.894,3.537,3.537,0,0,1,1.276-.759,3.349,3.349,0,0,1,.861-.162,3.031,3.031,0,0,1,.942.113,4.2,4.2,0,0,1,1.766,1.077,8.124,8.124,0,0,1,1.341,1.857c.388.689.732,1.432,1.152,2.153a11.844,11.844,0,0,0,3.01,3.575,6.708,6.708,0,0,0,3.516,1.373,5.384,5.384,0,0,0,2.53-.382A8.641,8.641,0,0,0,139.8,83.012Z" transform="translate(-94.515 -71.764)" fill="#455a64"/><path d="M151.016,86.179a1.732,1.732,0,0,1-.215.145,4.572,4.572,0,0,1-.635.318,6.381,6.381,0,0,1-1.007.318,7.719,7.719,0,0,1-1.287.156,7.483,7.483,0,0,1-1.292-.1,6.2,6.2,0,0,1-1.018-.28,4.7,4.7,0,0,1-.646-.285.937.937,0,0,1-.226-.14s.339.151.9.334a7,7,0,0,0,1.012.242,7.718,7.718,0,0,0,1.265.092,7.5,7.5,0,0,0,1.26-.145,7.131,7.131,0,0,0,1-.28C150.682,86.34,151.005,86.157,151.016,86.179Z" transform="translate(-105.165 -77.525)" fill="#455a64"/><path d="M134.812,433l.086,11.548s11.764,3.769,11.99,5.922l-22.386.969-.872-17.987Z" transform="translate(-95.443 -237.627)" fill="#263238"/><path d="M131.1,453.209a.921.921,0,0,0-.587,1.077.883.883,0,0,0,1.077.592.969.969,0,0,0,.619-1.136.91.91,0,0,0-1.168-.5" transform="translate(-98.607 -246.945)" fill="#e0e0e0"/><path d="M125.25,465.507v-1.814l21.47-.253s1.012.393.931,1.077Z" transform="translate(-96.191 -251.679)" fill="#455a64"/><path d="M143.509,454.16c0,.108-.538.183-1.077.538s-.786.845-.888.808.032-.678.673-1.12S143.53,454.058,143.509,454.16Z" transform="translate(-103.698 -247.352)" fill="#fff"/><path d="M148.449,455.817c.032.108-.436.312-.786.791s-.436.969-.538.969-.2-.614.248-1.2S148.444,455.715,148.449,455.817Z" transform="translate(-106.248 -248.143)" fill="#fff"/><path d="M152.236,459.352c-.1.027-.269-.511,0-1.12s.754-.872.808-.786-.253.425-.458.931S152.349,459.315,152.236,459.352Z" transform="translate(-108.582 -248.905)" fill="#fff"/><path d="M142.648,449.05c-.038.1-.538-.027-1.163.043s-1.077.285-1.152.194.388-.5,1.114-.576S142.7,448.963,142.648,449.05Z" transform="translate(-103.15 -244.875)" fill="#fff"/><path d="M87.09,437.59l-1.217,13.922,2.218,11.306a1.432,1.432,0,0,1-1.227,1.7h0a1.427,1.427,0,0,1-1.233-.452c-1.992-2.154-9.3-10.229-9.152-11.236.167-1.174.3-14.762.3-14.762Z" transform="translate(-73.676 -239.746)" fill="#263238"/><path d="M86.88,476.735,76.554,464.11l-.038.587a2.154,2.154,0,0,0,.42,1.427c.818,1.077,3.144,4.081,8.673,10.159a1.421,1.421,0,0,0,1.271.452Z" transform="translate(-73.692 -251.988)" fill="#455a64"/><g transform="translate(4.718 207.643)" opacity="0.6"><path d="M81.331,455.952a.867.867,0,0,1,.162,1.147.829.829,0,0,1-1.131.172.915.915,0,0,1-.167-1.211.856.856,0,0,1,1.2-.048" transform="translate(-80.038 -455.792)" fill="#fff"/></g><path d="M90.569,474.606a4.307,4.307,0,0,1,1.3-1,4.248,4.248,0,0,1,1.615-.2c0-.038-.156-.156-.479-.221a2.218,2.218,0,0,0-1.265.14,2.186,2.186,0,0,0-.991.824C90.569,474.39,90.531,474.595,90.569,474.606Z" transform="translate(-80.175 -256.158)" fill="#fff"/><path d="M92.194,478.659a11.838,11.838,0,0,1,1.276-.538,12.71,12.71,0,0,1,1.373-.086,1.583,1.583,0,0,0-1.443-.21C92.56,478.029,92.124,478.616,92.194,478.659Z" transform="translate(-80.928 -258.279)" fill="#fff"/><path d="M87.43,469.987a14.149,14.149,0,0,1,1.922-.937,14.227,14.227,0,0,1,2.1-.35,3.925,3.925,0,0,0-4.011,1.287Z" transform="translate(-78.732 -254.048)" fill="#fff"/><path d="M87.46,462.876c.032.086.824-.183,1.825-.156s1.782.318,1.82.237a2.724,2.724,0,0,0-1.814-.538,2.783,2.783,0,0,0-1.83.458Z" transform="translate(-78.746 -251.201)" fill="#fff"/><path d="M87.928,455.218a6.75,6.75,0,0,1,1.9-.215,7,7,0,0,1,1.82.581,1.112,1.112,0,0,0-.425-.42,3.106,3.106,0,0,0-1.362-.468,3.031,3.031,0,0,0-1.427.194C88.085,455.029,87.907,455.186,87.928,455.218Z" transform="translate(-78.962 -247.635)" fill="#fff"/><path d="M89.921,451.4a1.319,1.319,0,0,0,.054-.538,3.666,3.666,0,0,0-.334-1.411,1.615,1.615,0,0,0-.646-.818.576.576,0,0,0-.657.086.953.953,0,0,0-.258.614,2.019,2.019,0,0,0,1.647,1.981,2.337,2.337,0,0,0,2.38-1.077.808.808,0,0,0,.086-.673.571.571,0,0,0-.571-.334,1.992,1.992,0,0,0-.953.415,3.984,3.984,0,0,0-1.018,1.023,1.319,1.319,0,0,0-.248.468,6.709,6.709,0,0,1,1.389-1.308,1.9,1.9,0,0,1,.834-.345.3.3,0,0,1,.312.183.538.538,0,0,1-.081.436,2.089,2.089,0,0,1-2.073.91,1.755,1.755,0,0,1-1.427-1.658.711.711,0,0,1,.167-.441.307.307,0,0,1,.361-.048,1.465,1.465,0,0,1,.538.684A5.448,5.448,0,0,1,89.921,451.4Z" transform="translate(-79.032 -244.814)" fill="#fff"/><path d="M123.436,252.533a49.719,49.719,0,0,1,1.077,14.59c-.242,3.1-10.7,88.88-10.7,88.88H99.688l3.968-80.622-1.152.253s-7.715,34.391-8.35,39.953c-.538,5-7.483,44.335-7.483,44.335l-13.33-.145L78.3,309.008l4.8-46.139,1.8-13.459Z" transform="translate(-72.228 -152.878)" fill="#263238"/><path d="M188.013,163.933l-13.723,6.789L166.527,150.5a11.521,11.521,0,0,0-8.216-6.9,9.691,9.691,0,0,0-1.421-.188l5.551,32.3a31.119,31.119,0,0,0,4.307,7.37c1.158,1.394,3.462,2.859,8.56,1.26l16.4-10.977Z" transform="translate(-110.797 -103.946)" fill="#263238"/><path d="M107.462,136.1l6.794,5.648,3.467,2.692,1.755-.248.969-2.649,1.308-5.163,1.83,2.417,4.953,10.514,5.561,50.86s-9.691,2.843-14.719,3.182-13.023-1.028-13.023-1.028V175.563l-2.848-26.5,3.44-10.154Z" transform="translate(-86.155 -100.571)" fill="#f5f5f5"/><path d="M135.12,212.99a.485.485,0,0,1,0-.14v-.42c0-.382-.032-.921-.059-1.615-.048-1.416-.113-3.435-.2-5.922-.172-5.007-.447-11.92-.84-19.548s-.84-14.536-1.184-19.532l-.409-5.922c-.048-.689-.086-1.228-.108-1.615v-.565a.613.613,0,0,1,0,.145,1.433,1.433,0,0,0,.048.415q.048.573.145,1.615c.124,1.394.291,3.413.479,5.922.382,4.991.845,11.893,1.238,19.527s.646,14.536.781,19.554c.07,2.5.118,4.528.135,5.922v2.035C135.125,212.942,135.12,212.99,135.12,212.99Z" transform="translate(-99.455 -110.547)" fill="#263238"/><path d="M95.091,142.333l.485-.258-9.691,5.077,3.661,25.067,2.035,12.921L84,215.784s5.7,3.72,8.549,2.988c1.524-.393,2.826-3.456,3.833-5.868a54.01,54.01,0,0,0,3.882-15.075c.538-5.217,1.077-11.844.705-16.377-.711-8.436-1.825-22.353-1.927-26.014s-.964-17.147-.964-17.147Z" transform="translate(-77.149 -101.582)" fill="#263238"/><path d="M137.82,136.17l5.631,3.053,4.942.845,6.665,14.59-1.271,26.38,6.654,32.566s-4.878,1.728-6.81,1.018-4.571-5.082-4.673-7.726-3.86-28.249-3.86-28.249l-3.2-30.1a24.765,24.765,0,0,0-2.369-8.259Z" transform="translate(-101.994 -100.603)" fill="#263238"/><path d="M148.28,143.41a1.826,1.826,0,0,1,.178.2l.506.614,1.863,2.337.038.048-.048.038-1.583,1.2v-.129l1.857.587h.054v.065c-.032,3.3-.075,7.462-.124,11.973-.081,5.508-.156,10.488-.21,14.116-.032,1.793-.065,3.23-.086,4.275a11.627,11.627,0,0,1-.032,1.163v-5.443c.038-3.623.086-8.614.145-14.116.065-4.506.124-8.668.167-11.973l.059.081-1.847-.6-.14-.043.118-.086,1.615-1.184v.092l-1.82-2.369-.479-.635a2.067,2.067,0,0,1-.232-.21Z" transform="translate(-106.822 -103.945)" fill="#455a64"/><path d="M109.157,176.433a.334.334,0,0,1-.038-.1l-.1-.3-.371-1.141c-.323-.985-.808-2.412-1.427-4.167l-1.023-2.864a33.5,33.5,0,0,1-1.039-3.338,75.29,75.29,0,0,1-1.459-7.86c-.5-3.661-.829-7.117-1.023-10.084v-.043l.032-.032,1.615-1.54v.129l-1.518-1.152-.054-.048.043-.059,2.735-3.709.748-1,.2-.253a.794.794,0,0,1,.07-.086.168.168,0,0,1-.054.1l-.183.269-.721,1.028-2.692,3.769v-.108l1.524,1.141.081.059-.07.065-1.615,1.556.027-.075c.215,2.966.538,6.417,1.077,10.073a78,78,0,0,0,1.432,7.855q.463,1.782,1.018,3.327l1,2.875c.6,1.76,1.077,3.193,1.362,4.189.151.5.264.888.334,1.152.032.124.059.226.075.3S109.157,176.433,109.157,176.433Z" transform="translate(-85.772 -101.813)" fill="#455a64"/><path d="M160.99,242.438,162.2,246.2l6.859-.63-2.137-3.6Z" transform="translate(-112.689 -149.443)" fill="#263238"/><path d="M161,242.36a2.406,2.406,0,0,0,.409-.054l1.2-.118c1.039-.1,2.536-.237,4.307-.388h.054l.032.054,2.154,3.591.081.14h-.162l-.355.032-6.5.6h-.065v-.059c-.371-1.179-.657-2.154-.851-2.789-.086-.307-.161-.538-.221-.748a1.987,1.987,0,0,1-.065-.253,2.152,2.152,0,0,1,.108.275l.264.759c.232.673.538,1.615.921,2.692l-.086-.059,6.5-.625.35-.032-.081.156-2.127-3.6.086.048c-1.734.129-3.23.221-4.253.285l-1.227.07A3.861,3.861,0,0,1,161,242.36Z" transform="translate(-112.694 -149.365)" fill="#455a64"/><g transform="translate(43.832 44.439)" opacity="0.3"><path d="M153.078,152.65l1.131,1.561s-.318,23.656-1.518,29.53Z" transform="translate(-152.69 -152.65)"/></g><path d="M110.85,145.31a2.439,2.439,0,0,0,.425.5c.291.307.716.743,1.249,1.281,1.077,1.077,2.547,2.525,4.2,4.119l1.077,1.077.183.178.086-.237c.538-1.5,1.077-2.853,1.464-3.973l-.2.043,1.4,1.26a2.779,2.779,0,0,0,.538.425,2.692,2.692,0,0,0-.458-.538c-.307-.318-.759-.775-1.324-1.335l-.129-.129-.07.172c-.431,1.114-.958,2.46-1.54,3.946l.269-.059-1.077-1.077c-1.658-1.615-3.171-3.026-4.28-4.049-.538-.538-1-.926-1.319-1.2A2.493,2.493,0,0,0,110.85,145.31Z" transform="translate(-89.544 -104.823)" fill="#263238"/><path d="M134.44,149.81a14.266,14.266,0,0,0,1-2.153l-.221.038a15.042,15.042,0,0,1,1.97,3.419c.092.21.167.42.242.619l.183.5.14-.506a16.883,16.883,0,0,0,.587-4.043,6.019,6.019,0,0,0-.108-1.658,15.707,15.707,0,0,0-.118,1.647,20.458,20.458,0,0,1-.689,3.962h.323c-.075-.2-.156-.42-.248-.635a13.373,13.373,0,0,0-2.078-3.456l-.145-.172-.081.2a14.669,14.669,0,0,0-.759,2.24Z" transform="translate(-100.433 -105.15)" fill="#263238"/><path d="M132.911,153.527,131.57,155.5h-2.014l-1.077-1.976,1.028-2.17,1.755-.248Z" transform="translate(-97.682 -107.5)" fill="#f8951d"/><path d="M130.662,157.4l6.073,45.853-5.19,7.037-5.2-7.462,2.3-45.428Z" transform="translate(-96.699 -110.404)" fill="#f8951d"/><path d="M156.319,250a5.878,5.878,0,0,0,.065,1.012c.081.711.183,1.615.307,2.74s.312,2.552.5,4.065a24.264,24.264,0,0,0,1.222,4.883,7.992,7.992,0,0,0,2.843,4.14,4.307,4.307,0,0,0,2.154.538,10.522,10.522,0,0,0,1.917-.161,17.983,17.983,0,0,0,2.692-.662,4.654,4.654,0,0,0,.948-.371,8.365,8.365,0,0,0-.985.248,23.767,23.767,0,0,1-2.692.538,10.827,10.827,0,0,1-1.874.118,4.059,4.059,0,0,1-2.019-.506,7.854,7.854,0,0,1-2.692-3.995c-1.254-3.311-1.421-6.563-1.8-8.856-.167-1.109-.307-2.024-.415-2.73a6.169,6.169,0,0,0-.167-1Z" transform="translate(-110.532 -153.15)" fill="#455a64"/><path d="M100.579,252.5a1.076,1.076,0,0,1-.048.3l-.21.861c-.183.743-.474,1.814-.851,3.133a90.447,90.447,0,0,1-3.483,10.127,24.178,24.178,0,0,1-1.373,2.746,7.845,7.845,0,0,1-.856,1.2l-.253.258c-.1.081-.2.151-.3.226a1.825,1.825,0,0,1-.339.172c-.113.038-.231.048-.345.075a6.1,6.1,0,0,1-2.6-.178,14.377,14.377,0,0,1-2.154-.748,23.387,23.387,0,0,1-2.88-1.5c-.328-.2-.581-.366-.743-.479a1.324,1.324,0,0,1-.248-.188,1.218,1.218,0,0,1,.275.14l.77.431a28.978,28.978,0,0,0,2.9,1.421,15.389,15.389,0,0,0,2.11.7,5.922,5.922,0,0,0,2.487.151,1.669,1.669,0,0,0,1.077-.662,7.753,7.753,0,0,0,.824-1.163,24.023,24.023,0,0,0,1.346-2.692,104.632,104.632,0,0,0,3.553-10.073c.388-1.281.705-2.331.937-3.106l.258-.84A1.55,1.55,0,0,1,100.579,252.5Z" transform="translate(-77.103 -154.304)" fill="#455a64"/><path d="M85.083,151h0s-8.329,1.868-9.389,9.029c-1.222,8.243-2.293,27.107-2.293,27.107l14.278-19.118" transform="translate(-72.256 -107.449)" fill="#263238"/><path d="M90.17,154.05s.366.328.915.894a11.107,11.107,0,0,1,2.875,5.346c.167.77.2,1.26.237,1.26a1.077,1.077,0,0,0,0-.35,6.69,6.69,0,0,0-.113-.937,10.008,10.008,0,0,0-2.907-5.411,7.169,7.169,0,0,0-.721-.614A1.308,1.308,0,0,0,90.17,154.05Z" transform="translate(-79.997 -108.857)" fill="#263238"/><path d="M168.506,161.83c-.092,0-.382,6.66-.641,14.881s-.4,14.886-.3,14.886.377-6.654.641-14.875S168.6,161.835,168.506,161.83Z" transform="translate(-115.71 -112.449)" fill="#455a64"/><path d="M80.026,154.75s-3.876,2.617-4.307,4.732c-.366,1.712-3.429,27.457-3.822,30.655S69.98,200,73.889,202.655c2.627,1.782,10.929,3.569,10.929,3.569-.818-3.828.856-6.627,4.942-8.749l-5.551-5.238L86.7,169.749Z" transform="translate(-71.275 -109.18)" fill="#263238"/><path d="M93.2,198.382c-.1,0-1.454-7-3.031-15.661S87.384,167,87.476,167s1.454,7,3.036,15.661S93.29,198.36,93.2,198.382Z" transform="translate(-78.751 -114.835)" fill="#455a64"/><path d="M95.617,215.71a7.435,7.435,0,0,1-.038,1.335c-.054.834-.151,2-.269,3.349l-.038-.113,1.077,1c1.233,1.168,2.337,2.24,3.128,3.026a11.184,11.184,0,0,1,1.238,1.308,11.536,11.536,0,0,1-1.373-1.168c-.829-.743-1.954-1.793-3.187-2.961l-1.077-1.007-.048-.048v-.065c.135-1.341.258-2.509.361-3.338a7.246,7.246,0,0,1,.226-1.319Z" transform="translate(-82.241 -137.321)" fill="#455a64"/><path d="M85,227.923a5.841,5.841,0,0,1,2.38-2.207,5.761,5.761,0,0,1,3.128-.856,14.373,14.373,0,0,0-2.993,1.077A14.736,14.736,0,0,0,85,227.923Z" transform="translate(-77.611 -141.544)" fill="#455a64"/><path d="M104.14,169.038a3.793,3.793,0,0,1-6.7,2.18c-1.039-1.281-2.918-3.112-5.255-3.23-3.618-.226-6.326,2.514-6.584,6.617s2.094,7.155,5.718,7.381c2.337.145,4.425-1.437,5.615-2.579a3.731,3.731,0,0,1,2.816-1.018,3.769,3.769,0,0,1,3.537,4.006l-1.615,25.594,56.955,2.423,1.233-26.919a3.793,3.793,0,0,1,6.7-2.18c1.039,1.281,2.918,3.112,5.255,3.257,3.618.226,6.331-2.514,6.584-6.617s-2.094-7.155-5.712-7.381c-2.337-.145-4.431,1.437-5.621,2.579a3.72,3.72,0,0,1-2.816,1.018c-2.083-.129-4.022-1.707-3.892-3.769l.969-22.849-56.4-2.4Z" transform="translate(-77.88 -104.749)" fill="#f8951d"/><path d="M102.982,236.2a6.87,6.87,0,0,1,2.929-1.357c1.249-.054,2.875.436,3.2.275s1.077-.878,1.572-.28,1.077,2.773-1.518,3.37h-1.787a8.652,8.652,0,0,0,.651,2.493c.431.705,6.5,8.35,6.5,8.35s.759.759.382,1.518-2.008.323-2.008.323a2.579,2.579,0,0,1-2.439.538,8.8,8.8,0,0,1-1.841-.867,2.407,2.407,0,0,1-2.929,0c-1.518-1.136-7.575-8.614-7.575-8.614l2.8-5.981Z" transform="translate(-83.667 -146.043)" fill="#ffbf9d"/><path d="M100.263,235l1.723,1.373c-2.557,1.863-3.887,4.145-3.871,6.886l-2.2-1.524S95.515,236.114,100.263,235Z" transform="translate(-82.644 -146.226)" fill="#f5f5f5"/><path d="M116.87,255.639c.07-.054.98,1.163,2.277,2.493s2.514,2.25,2.455,2.326a3.44,3.44,0,0,1-.84-.538,16.229,16.229,0,0,1-1.814-1.583,16.478,16.478,0,0,1-1.551-1.841A3.23,3.23,0,0,1,116.87,255.639Z" transform="translate(-92.323 -155.752)" fill="#ff9a6c"/><path d="M111.28,258.457c.07-.059.743.754,1.739,1.556a7.177,7.177,0,0,1,1.712,1.615,15.417,15.417,0,0,1-1.884-1.405A5.443,5.443,0,0,1,111.28,258.457Z" transform="translate(-89.742 -157.053)" fill="#ff9a6c"/><path d="M219.622,170.076s.269-1.841,4.14-1.217c2.428.393,1.158,1.965,1.158,1.965a1.481,1.481,0,0,1-.264,2.423l.253.188s1.933.969.264,2.692a1.691,1.691,0,0,1-.221,1.944c-.829.834-2.913-.275-2.913-.275s-2.945-.048-3.112-.829a1.077,1.077,0,0,1,.587-1.2,16.325,16.325,0,0,1,2.051-.248s-2.573-.027-2.8-.538c-.415-.9-.307-1.82,2.8-1.7h0s-2.315-.048-2.579-.538.059-1.233.894-1.615a3.376,3.376,0,0,1,1.577-.328S219.294,171.239,219.622,170.076Z" transform="translate(-139.277 -115.634)" fill="#ffbf9d"/><path d="M226.539,172.431a12.846,12.846,0,0,1-2.094.075,14.311,14.311,0,0,1-2.094,0,5.621,5.621,0,0,1,2.089-.3A5.744,5.744,0,0,1,226.539,172.431Z" transform="translate(-141.015 -117.23)" fill="#ff9a6c"/><path d="M226.552,177.037a90.688,90.688,0,0,1-3.952-.043,5.093,5.093,0,0,1,1.981-.237,4.91,4.91,0,0,1,1.97.28Z" transform="translate(-141.13 -119.332)" fill="#ff9a6c"/><path d="M227.342,181.962c-.032.075-.91-.307-2.057-.49s-2.094-.113-2.105-.2a4.216,4.216,0,0,1,2.154-.081,4.113,4.113,0,0,1,2.008.77Z" transform="translate(-141.398 -121.339)" fill="#ff9a6c"/></g></g></svg>