<svg xmlns="http://www.w3.org/2000/svg" width="250" height="164.475" viewBox="0 0 250 164.475">
  <g id="Conversion_rate_optimization-pana" data-name="Conversion rate optimization-pana" transform="translate(-36.62 -23.829)">
    <g id="freepik--Floor--inject-77" transform="translate(36.62 188.112)">
      <path id="Path_37843" data-name="Path 37843" d="M286.62,468.646c0,.052-55.969.1-124.993.1s-125.007-.044-125.007-.1,55.958-.1,125.007-.1S286.62,468.591,286.62,468.646Z" transform="translate(-36.62 -468.55)" fill="#263238"/>
    </g>
    <g id="freepik--coins-2--inject-77" transform="translate(226.713 122.557)">
      <rect id="Rectangle_5615" data-name="Rectangle 5615" width="30.591" height="6.169" transform="translate(7.333 29.674)" fill="#f8951d"/>
      <path id="Path_37844" data-name="Path 37844" d="M576.153,371.7a33.685,33.685,0,0,1,0,5.981,33.685,33.685,0,0,1,0-5.981Z" transform="translate(-566.855 -341.922)" fill="#263238"/>
      <path id="Path_37845" data-name="Path 37845" d="M583.833,371.7a33.685,33.685,0,0,1,0,5.981,33.685,33.685,0,0,1,0-5.981Z" transform="translate(-571.698 -341.922)" fill="#263238"/>
      <path id="Path_37846" data-name="Path 37846" d="M591.423,371.7a33.685,33.685,0,0,1,0,5.981,33.685,33.685,0,0,1,0-5.981Z" transform="translate(-576.484 -341.922)" fill="#263238"/>
      <path id="Path_37847" data-name="Path 37847" d="M598.969,371.7a33.7,33.7,0,0,1,0,5.981,17.1,17.1,0,0,1-.129-2.992A17.485,17.485,0,0,1,598.969,371.7Z" transform="translate(-581.245 -341.922)" fill="#263238"/>
      <path id="Path_37848" data-name="Path 37848" d="M606.513,371.7a33.685,33.685,0,0,1,0,5.981,33.685,33.685,0,0,1,0-5.981Z" transform="translate(-586 -341.922)" fill="#263238"/>
      <path id="Path_37849" data-name="Path 37849" d="M614.063,371.7a33.685,33.685,0,0,1,0,5.981,33.685,33.685,0,0,1,0-5.981Z" transform="translate(-590.761 -341.922)" fill="#263238"/>
      <path id="Path_37850" data-name="Path 37850" d="M621.613,371.7a33.7,33.7,0,0,1,0,5.981,33.685,33.685,0,0,1,0-5.981Z" transform="translate(-595.522 -341.922)" fill="#263238"/>
      <path id="Path_37851" data-name="Path 37851" d="M629.163,371.7a33.685,33.685,0,0,1,0,5.981,17.306,17.306,0,0,1-.133-2.992A16.811,16.811,0,0,1,629.163,371.7Z" transform="translate(-600.283 -341.922)" fill="#263238"/>
      <path id="Path_37852" data-name="Path 37852" d="M636.7,371.7a33.7,33.7,0,0,1,0,5.981,16.872,16.872,0,0,1-.133-2.992A17.243,17.243,0,0,1,636.7,371.7Z" transform="translate(-605.037 -341.922)" fill="#263238"/>
      <path id="Path_37853" data-name="Path 37853" d="M644.253,371.7a33.685,33.685,0,0,1,0,5.981,33.685,33.685,0,0,1,0-5.981Z" transform="translate(-609.798 -341.922)" fill="#263238"/>
      <path id="Path_37854" data-name="Path 37854" d="M651.773,371.7a33.685,33.685,0,0,1,0,5.981,16.872,16.872,0,0,1-.133-2.992A18.171,18.171,0,0,1,651.773,371.7Z" transform="translate(-614.54 -341.922)" fill="#263238"/>
      <g id="Group_8848" data-name="Group 8848" transform="translate(7.824 29.682)" opacity="0.3">
        <path id="Path_37855" data-name="Path 37855" d="M572.39,371.44a111.6,111.6,0,0,0,29.608,0Z" transform="translate(-572.39 -371.44)"/>
      </g>
      <path id="Path_37856" data-name="Path 37856" d="M601.759,371.243c0,.074-6.838.133-15.268.133s-15.271-.059-15.271-.133,6.838-.133,15.271-.133S601.759,371.169,601.759,371.243Z" transform="translate(-563.828 -341.55)" fill="#263238"/>
      <rect id="Rectangle_5616" data-name="Rectangle 5616" width="30.591" height="6.169" transform="translate(8.02 35.74)" fill="#f8951d"/>
      <path id="Path_37857" data-name="Path 37857" d="M578.013,388.12a33.685,33.685,0,0,1,0,5.981,16.872,16.872,0,0,1-.133-2.992A15.291,15.291,0,0,1,578.013,388.12Z" transform="translate(-568.028 -352.276)" fill="#263238"/>
      <path id="Path_37858" data-name="Path 37858" d="M585.693,388.12a33.685,33.685,0,0,1,0,5.981,33.685,33.685,0,0,1,0-5.981Z" transform="translate(-572.871 -352.276)" fill="#263238"/>
      <path id="Path_37859" data-name="Path 37859" d="M593.283,388.12a33.685,33.685,0,0,1,0,5.981,33.685,33.685,0,0,1,0-5.981Z" transform="translate(-577.657 -352.276)" fill="#263238"/>
      <path id="Path_37860" data-name="Path 37860" d="M600.829,388.12a33.685,33.685,0,0,1,0,5.981,17.113,17.113,0,0,1-.129-2.992A17.489,17.489,0,0,1,600.829,388.12Z" transform="translate(-582.418 -352.276)" fill="#263238"/>
      <path id="Path_37861" data-name="Path 37861" d="M608.373,388.12a33.685,33.685,0,0,1,0,5.981,33.685,33.685,0,0,1,0-5.981Z" transform="translate(-587.173 -352.276)" fill="#263238"/>
      <path id="Path_37862" data-name="Path 37862" d="M615.923,388.12a33.685,33.685,0,0,1,0,5.981,16.872,16.872,0,0,1-.133-2.992A19.2,19.2,0,0,1,615.923,388.12Z" transform="translate(-591.934 -352.276)" fill="#263238"/>
      <path id="Path_37863" data-name="Path 37863" d="M623.473,388.12a33.685,33.685,0,0,1,0,5.981,33.685,33.685,0,0,1,0-5.981Z" transform="translate(-596.695 -352.276)" fill="#263238"/>
      <path id="Path_37864" data-name="Path 37864" d="M631.023,388.12a33.685,33.685,0,0,1,0,5.981,17.306,17.306,0,0,1-.133-2.992A16.811,16.811,0,0,1,631.023,388.12Z" transform="translate(-601.456 -352.276)" fill="#263238"/>
      <path id="Path_37865" data-name="Path 37865" d="M638.563,388.12a33.685,33.685,0,0,1,0,5.981,16.879,16.879,0,0,1-.133-2.992A17.243,17.243,0,0,1,638.563,388.12Z" transform="translate(-606.21 -352.276)" fill="#263238"/>
      <path id="Path_37866" data-name="Path 37866" d="M646.113,388.12a33.7,33.7,0,0,1,0,5.981,33.685,33.685,0,0,1,0-5.981Z" transform="translate(-610.971 -352.276)" fill="#263238"/>
      <path id="Path_37867" data-name="Path 37867" d="M653.663,388.12a33.685,33.685,0,0,1,0,5.981,33.685,33.685,0,0,1,0-5.981Z" transform="translate(-615.732 -352.276)" fill="#263238"/>
      <g id="Group_8849" data-name="Group 8849" transform="translate(8.511 35.748)" opacity="0.3">
        <path id="Path_37868" data-name="Path 37868" d="M574.25,387.86a111.6,111.6,0,0,0,29.608,0Z" transform="translate(-574.25 -387.86)"/>
      </g>
      <path id="Path_37869" data-name="Path 37869" d="M603.619,387.663c0,.074-6.838.133-15.268.133s-15.271-.059-15.271-.133,6.838-.133,15.271-.133S603.619,387.589,603.619,387.663Z" transform="translate(-565.001 -351.904)" fill="#263238"/>
      <rect id="Rectangle_5617" data-name="Rectangle 5617" width="30.591" height="6.169" transform="translate(5.113 41.71)" fill="#f8951d"/>
      <path id="Path_37870" data-name="Path 37870" d="M570.153,404.28a33.685,33.685,0,0,1,0,5.981,33.685,33.685,0,0,1,0-5.981Z" transform="translate(-563.071 -362.467)" fill="#263238"/>
      <path id="Path_37871" data-name="Path 37871" d="M577.833,404.28a33.685,33.685,0,0,1,0,5.981,17.305,17.305,0,0,1-.133-2.992A16.811,16.811,0,0,1,577.833,404.28Z" transform="translate(-567.914 -362.467)" fill="#263238"/>
      <path id="Path_37872" data-name="Path 37872" d="M585.419,404.28a33.685,33.685,0,0,1,0,5.981,17.112,17.112,0,0,1-.129-2.992A17.489,17.489,0,0,1,585.419,404.28Z" transform="translate(-572.701 -362.467)" fill="#263238"/>
      <path id="Path_37873" data-name="Path 37873" d="M592.963,404.28a33.7,33.7,0,0,1,0,5.981,16.871,16.871,0,0,1-.133-2.992A17.243,17.243,0,0,1,592.963,404.28Z" transform="translate(-577.455 -362.467)" fill="#263238"/>
      <path id="Path_37874" data-name="Path 37874" d="M600.513,404.28a33.685,33.685,0,0,1,0,5.981,33.685,33.685,0,0,1,0-5.981Z" transform="translate(-582.216 -362.467)" fill="#263238"/>
      <path id="Path_37875" data-name="Path 37875" d="M608.063,404.28a33.7,33.7,0,0,1,0,5.981,33.685,33.685,0,0,1,0-5.981Z" transform="translate(-586.977 -362.467)" fill="#263238"/>
      <path id="Path_37876" data-name="Path 37876" d="M615.613,404.28a33.685,33.685,0,0,1,0,5.981,17.305,17.305,0,0,1-.133-2.992A16.818,16.818,0,0,1,615.613,404.28Z" transform="translate(-591.738 -362.467)" fill="#263238"/>
      <path id="Path_37877" data-name="Path 37877" d="M623.153,404.28a33.685,33.685,0,0,1,0,5.981,16.871,16.871,0,0,1-.133-2.992A17.243,17.243,0,0,1,623.153,404.28Z" transform="translate(-596.493 -362.467)" fill="#263238"/>
      <path id="Path_37878" data-name="Path 37878" d="M630.7,404.28a33.685,33.685,0,0,1,0,5.981,33.685,33.685,0,0,1,0-5.981Z" transform="translate(-601.254 -362.467)" fill="#263238"/>
      <path id="Path_37879" data-name="Path 37879" d="M638.253,404.28a33.685,33.685,0,0,1,0,5.981,33.685,33.685,0,0,1,0-5.981Z" transform="translate(-606.015 -362.467)" fill="#263238"/>
      <path id="Path_37880" data-name="Path 37880" d="M645.773,404.28a33.685,33.685,0,0,1,0,5.981,16.871,16.871,0,0,1-.133-2.992A18.171,18.171,0,0,1,645.773,404.28Z" transform="translate(-610.757 -362.467)" fill="#263238"/>
      <g id="Group_8850" data-name="Group 8850" transform="translate(5.608 41.71)" opacity="0.3">
        <path id="Path_37881" data-name="Path 37881" d="M566.39,404A111.594,111.594,0,0,0,596,404Z" transform="translate(-566.39 -404)"/>
      </g>
      <path id="Path_37882" data-name="Path 37882" d="M595.759,403.823c0,.074-6.838.133-15.268.133s-15.271-.059-15.271-.133,6.834-.133,15.271-.133S595.759,403.749,595.759,403.823Z" transform="translate(-560.045 -362.095)" fill="#263238"/>
      <rect id="Rectangle_5618" data-name="Rectangle 5618" width="30.591" height="5.933" transform="translate(8.696 47.835)" fill="#f8951d"/>
      <path id="Path_37883" data-name="Path 37883" d="M579.853,420.84a31.214,31.214,0,0,1,0,5.755,31.2,31.2,0,0,1,0-5.755Z" transform="translate(-569.188 -372.909)" fill="#263238"/>
      <path id="Path_37884" data-name="Path 37884" d="M587.533,420.84a31.2,31.2,0,0,1,0,5.755,31.2,31.2,0,0,1,0-5.755Z" transform="translate(-574.031 -372.909)" fill="#263238"/>
      <path id="Path_37885" data-name="Path 37885" d="M595.123,420.84a32.094,32.094,0,0,1,0,5.755,16.044,16.044,0,0,1-.133-2.878A15.641,15.641,0,0,1,595.123,420.84Z" transform="translate(-578.817 -372.909)" fill="#263238"/>
      <path id="Path_37886" data-name="Path 37886" d="M602.663,420.84a31.2,31.2,0,0,1,0,5.755,31.2,31.2,0,0,1,0-5.755Z" transform="translate(-583.572 -372.909)" fill="#263238"/>
      <path id="Path_37887" data-name="Path 37887" d="M610.213,420.84a31.2,31.2,0,0,1,0,5.755,31.2,31.2,0,0,1,0-5.755Z" transform="translate(-588.333 -372.909)" fill="#263238"/>
      <path id="Path_37888" data-name="Path 37888" d="M617.773,420.84a31.2,31.2,0,0,1,0,5.755,15.641,15.641,0,0,1-.133-2.878A15.264,15.264,0,0,1,617.773,420.84Z" transform="translate(-593.1 -372.909)" fill="#263238"/>
      <path id="Path_37889" data-name="Path 37889" d="M625.313,420.84a31.214,31.214,0,0,1,0,5.755,31.2,31.2,0,0,1,0-5.755Z" transform="translate(-597.855 -372.909)" fill="#263238"/>
      <path id="Path_37890" data-name="Path 37890" d="M632.859,420.84a31.2,31.2,0,0,1,0,5.755,15.864,15.864,0,0,1-.129-2.878A16.272,16.272,0,0,1,632.859,420.84Z" transform="translate(-602.616 -372.909)" fill="#263238"/>
      <path id="Path_37891" data-name="Path 37891" d="M640.4,420.84a31.2,31.2,0,0,1,0,5.755,31.2,31.2,0,0,1,0-5.755Z" transform="translate(-607.371 -372.909)" fill="#263238"/>
      <path id="Path_37892" data-name="Path 37892" d="M647.953,420.84a31.214,31.214,0,0,1,0,5.755,15.641,15.641,0,0,1-.133-2.878A16.461,16.461,0,0,1,647.953,420.84Z" transform="translate(-612.132 -372.909)" fill="#263238"/>
      <path id="Path_37893" data-name="Path 37893" d="M655.5,420.84a31.185,31.185,0,0,1,0,5.755,31.214,31.214,0,0,1,0-5.755Z" transform="translate(-616.893 -372.909)" fill="#263238"/>
      <g id="Group_8851" data-name="Group 8851" transform="translate(9.191 47.838)" opacity="0.3">
        <path id="Path_37894" data-name="Path 37894" d="M576.09,420.59a87.46,87.46,0,0,0,29.608,0Z" transform="translate(-576.09 -420.59)"/>
      </g>
      <path id="Path_37895" data-name="Path 37895" d="M605.459,420.4c0,.07-6.838.133-15.268.133s-15.271-.063-15.271-.133,6.838-.133,15.271-.133S605.459,420.329,605.459,420.4Z" transform="translate(-566.161 -372.55)" fill="#263238"/>
      <rect id="Rectangle_5619" data-name="Rectangle 5619" width="30.591" height="5.933" transform="translate(6.731 53.771)" fill="#f8951d"/>
      <path id="Path_37896" data-name="Path 37896" d="M574.523,436.91a31.2,31.2,0,0,1,0,5.755,15.641,15.641,0,0,1-.133-2.878A16.044,16.044,0,0,1,574.523,436.91Z" transform="translate(-565.827 -383.043)" fill="#263238"/>
      <path id="Path_37897" data-name="Path 37897" d="M582.2,436.91a31.214,31.214,0,0,1,0,5.755,31.2,31.2,0,0,1,0-5.755Z" transform="translate(-570.67 -383.043)" fill="#263238"/>
      <path id="Path_37898" data-name="Path 37898" d="M589.773,436.91a31.2,31.2,0,0,1,0,5.755,15.641,15.641,0,0,1-.133-2.878A16.461,16.461,0,0,1,589.773,436.91Z" transform="translate(-575.444 -383.043)" fill="#263238"/>
      <path id="Path_37899" data-name="Path 37899" d="M597.343,436.91a31.214,31.214,0,0,1,0,5.755,31.2,31.2,0,0,1,0-5.755Z" transform="translate(-580.217 -383.043)" fill="#263238"/>
      <path id="Path_37900" data-name="Path 37900" d="M604.893,436.91a31.2,31.2,0,0,1,0,5.755,31.2,31.2,0,0,1,0-5.755Z" transform="translate(-584.978 -383.043)" fill="#263238"/>
      <path id="Path_37901" data-name="Path 37901" d="M612.433,436.91a31.214,31.214,0,0,1,0,5.755,15.641,15.641,0,0,1-.133-2.878A16.044,16.044,0,0,1,612.433,436.91Z" transform="translate(-589.733 -383.043)" fill="#263238"/>
      <path id="Path_37902" data-name="Path 37902" d="M619.983,436.91a31.214,31.214,0,0,1,0,5.755,15.641,15.641,0,0,1-.133-2.878A15.264,15.264,0,0,1,619.983,436.91Z" transform="translate(-594.494 -383.043)" fill="#263238"/>
      <path id="Path_37903" data-name="Path 37903" d="M627.533,436.91a31.2,31.2,0,0,1,0,5.755,31.2,31.2,0,0,1,0-5.755Z" transform="translate(-599.255 -383.043)" fill="#263238"/>
      <path id="Path_37904" data-name="Path 37904" d="M635.115,436.91a31.2,31.2,0,0,1,0,5.755,36.219,36.219,0,0,1,0-5.755Z" transform="translate(-604.047 -383.043)" fill="#263238"/>
      <path id="Path_37905" data-name="Path 37905" d="M642.633,436.91a32.094,32.094,0,0,1,0,5.755,16.044,16.044,0,0,1-.133-2.878A15.641,15.641,0,0,1,642.633,436.91Z" transform="translate(-608.777 -383.043)" fill="#263238"/>
      <path id="Path_37906" data-name="Path 37906" d="M650.148,436.91a31.2,31.2,0,0,1,0,5.755,28.095,28.095,0,0,1,0-5.755Z" transform="translate(-613.506 -383.043)" fill="#263238"/>
      <g id="Group_8852" data-name="Group 8852" transform="translate(7.222 53.775)" opacity="0.3">
        <path id="Path_37907" data-name="Path 37907" d="M570.76,436.66a77.531,77.531,0,0,0,29.612,0Z" transform="translate(-570.76 -436.66)"/>
      </g>
      <path id="Path_37908" data-name="Path 37908" d="M600.135,436.473c0,.07-6.834.129-15.268.129s-15.268-.059-15.268-.129,6.834-.133,15.268-.133S600.135,436.4,600.135,436.473Z" transform="translate(-562.807 -382.684)" fill="#263238"/>
      <rect id="Rectangle_5620" data-name="Rectangle 5620" width="30.591" height="5.933" transform="translate(8.478 59.622)" fill="#f8951d"/>
      <path id="Path_37909" data-name="Path 37909" d="M579.263,452.75a32.094,32.094,0,0,1,0,5.755,16.044,16.044,0,0,1-.133-2.878A15.641,15.641,0,0,1,579.263,452.75Z" transform="translate(-568.816 -393.032)" fill="#263238"/>
      <path id="Path_37910" data-name="Path 37910" d="M586.933,452.75a31.214,31.214,0,0,1,0,5.755,15.641,15.641,0,0,1-.133-2.878A17.381,17.381,0,0,1,586.933,452.75Z" transform="translate(-573.653 -393.032)" fill="#263238"/>
      <path id="Path_37911" data-name="Path 37911" d="M594.523,452.75a31.2,31.2,0,0,1,0,5.755,31.2,31.2,0,0,1,0-5.755Z" transform="translate(-578.439 -393.032)" fill="#263238"/>
      <path id="Path_37912" data-name="Path 37912" d="M602.073,452.75a31.214,31.214,0,0,1,0,5.755,31.2,31.2,0,0,1,0-5.755Z" transform="translate(-583.2 -393.032)" fill="#263238"/>
      <path id="Path_37913" data-name="Path 37913" d="M609.623,452.75a31.2,31.2,0,0,1,0,5.755,31.2,31.2,0,0,1,0-5.755Z" transform="translate(-587.961 -393.032)" fill="#263238"/>
      <path id="Path_37914" data-name="Path 37914" d="M617.173,452.75a31.2,31.2,0,0,1,0,5.755,16.044,16.044,0,0,1-.133-2.878A15.641,15.641,0,0,1,617.173,452.75Z" transform="translate(-592.722 -393.032)" fill="#263238"/>
      <path id="Path_37915" data-name="Path 37915" d="M624.713,452.75a31.2,31.2,0,0,1,0,5.755,31.2,31.2,0,0,1,0-5.755Z" transform="translate(-597.477 -393.032)" fill="#263238"/>
      <path id="Path_37916" data-name="Path 37916" d="M632.263,452.75a31.2,31.2,0,0,1,0,5.755,31.2,31.2,0,0,1,0-5.755Z" transform="translate(-602.238 -393.032)" fill="#263238"/>
      <path id="Path_37917" data-name="Path 37917" d="M639.773,452.75a31.2,31.2,0,0,1,0,5.755,15.641,15.641,0,0,1-.133-2.878A17.381,17.381,0,0,1,639.773,452.75Z" transform="translate(-606.973 -393.032)" fill="#263238"/>
      <path id="Path_37918" data-name="Path 37918" d="M647.363,452.75a31.214,31.214,0,0,1,0,5.755,31.2,31.2,0,0,1,0-5.755Z" transform="translate(-611.76 -393.032)" fill="#263238"/>
      <path id="Path_37919" data-name="Path 37919" d="M654.909,452.75a31.2,31.2,0,0,1,0,5.755,15.864,15.864,0,0,1-.129-2.878A16.272,16.272,0,0,1,654.909,452.75Z" transform="translate(-616.521 -393.032)" fill="#263238"/>
      <g id="Group_8853" data-name="Group 8853" transform="translate(8.969 59.626)" opacity="0.3">
        <path id="Path_37920" data-name="Path 37920" d="M575.49,452.5a87.482,87.482,0,0,0,29.612,0Z" transform="translate(-575.49 -452.5)"/>
      </g>
      <path id="Path_37921" data-name="Path 37921" d="M604.875,452.313c0,.07-6.834.133-15.268.133s-15.268-.063-15.268-.133,6.834-.133,15.268-.133S604.875,452.239,604.875,452.313Z" transform="translate(-565.796 -392.672)" fill="#263238"/>
      <path id="Path_37922" data-name="Path 37922" d="M568.384,407.351a.4.4,0,0,0,0-.1V405.8c0-1.02,0-2.479.03-4.3v-.066h-1.751l.074.07v-5.933l-.089.089h2.061v-6.08h-3.694l.1.1V383.4l-.1.1h3v-5.911H567.2l.066.066v-6.043a.409.409,0,0,0,0-.107.826.826,0,0,0,0,.107v.314c0,.288,0,.695-.03,1.212-.018,1.071-.044,2.6-.078,4.518v.066h.816l-.07-.07V383.4l.089-.089H565v6.476h3.694l-.1-.1v5.888l.092-.1h-2.058v6.1h1.758l-.066-.063c0,1.817.022,3.277.03,4.3,0,.491,0,.879.018,1.153v.3A.331.331,0,0,0,568.384,407.351Z" transform="translate(-559.906 -341.796)" fill="#263238"/>
      <rect id="Rectangle_5621" data-name="Rectangle 5621" width="30.591" height="5.933" transform="translate(4.824 11.839)" fill="#f8951d"/>
      <path id="Path_37923" data-name="Path 37923" d="M569.363,323.41a31.159,31.159,0,0,1,0,5.752,31.159,31.159,0,0,1,0-5.752Z" transform="translate(-562.573 -311.471)" fill="#263238"/>
      <path id="Path_37924" data-name="Path 37924" d="M577.043,323.41a31.145,31.145,0,0,1,0,5.752,31.174,31.174,0,0,1,0-5.752Z" transform="translate(-567.416 -311.471)" fill="#263238"/>
      <path id="Path_37925" data-name="Path 37925" d="M584.633,323.41a31.159,31.159,0,0,1,0,5.752,31.159,31.159,0,0,1,0-5.752Z" transform="translate(-572.202 -311.471)" fill="#263238"/>
      <path id="Path_37926" data-name="Path 37926" d="M592.183,323.41a31.174,31.174,0,0,1,0,5.752,31.159,31.159,0,0,1,0-5.752Z" transform="translate(-576.963 -311.471)" fill="#263238"/>
      <path id="Path_37927" data-name="Path 37927" d="M599.773,323.41a16.044,16.044,0,0,1,.133,2.878,17.94,17.94,0,0,1-.133,2.881,17.8,17.8,0,0,1-.133-2.874A14.33,14.33,0,0,1,599.773,323.41Z" transform="translate(-581.75 -311.471)" fill="#263238"/>
      <path id="Path_37928" data-name="Path 37928" d="M607.273,323.41a31.159,31.159,0,0,1,0,5.752,31.159,31.159,0,0,1,0-5.752Z" transform="translate(-586.479 -311.471)" fill="#263238"/>
      <path id="Path_37929" data-name="Path 37929" d="M614.823,323.41a31.159,31.159,0,0,1,0,5.752,31.159,31.159,0,0,1,0-5.752Z" transform="translate(-591.24 -311.471)" fill="#263238"/>
      <path id="Path_37930" data-name="Path 37930" d="M622.373,323.41a31.159,31.159,0,0,1,0,5.752,31.159,31.159,0,0,1,0-5.752Z" transform="translate(-596.001 -311.471)" fill="#263238"/>
      <path id="Path_37931" data-name="Path 37931" d="M629.923,323.41a31.159,31.159,0,0,1,0,5.752,15.583,15.583,0,0,1-.133-2.874A17.872,17.872,0,0,1,629.923,323.41Z" transform="translate(-600.762 -311.471)" fill="#263238"/>
      <path id="Path_37932" data-name="Path 37932" d="M637.469,323.41a31.159,31.159,0,0,1,0,5.752,15.8,15.8,0,0,1-.129-2.874A16.272,16.272,0,0,1,637.469,323.41Z" transform="translate(-605.523 -311.471)" fill="#263238"/>
      <path id="Path_37933" data-name="Path 37933" d="M645.013,323.41a31.159,31.159,0,0,1,0,5.752,15.583,15.583,0,0,1-.133-2.874A14.226,14.226,0,0,1,645.013,323.41Z" transform="translate(-610.278 -311.471)" fill="#263238"/>
      <g id="Group_8854" data-name="Group 8854" transform="translate(5.316 11.847)" opacity="0.3">
        <path id="Path_37934" data-name="Path 37934" d="M565.6,323.16a87.482,87.482,0,0,0,29.612,0Z" transform="translate(-565.6 -323.16)"/>
      </g>
      <path id="Path_37935" data-name="Path 37935" d="M594.975,322.963c0,.074-6.834.133-15.268.133s-15.268-.059-15.268-.133,6.834-.133,15.268-.133S594.975,322.893,594.975,322.963Z" transform="translate(-559.553 -311.105)" fill="#263238"/>
      <rect id="Rectangle_5622" data-name="Rectangle 5622" width="30.591" height="5.933" transform="translate(2.856 17.776)" fill="#f8951d"/>
      <path id="Path_37936" data-name="Path 37936" d="M564.043,339.48a31.159,31.159,0,0,1,0,5.752,31.159,31.159,0,0,1,0-5.752Z" transform="translate(-559.219 -321.604)" fill="#263238"/>
      <path id="Path_37937" data-name="Path 37937" d="M571.773,339.48a31.159,31.159,0,0,1,0,5.752,15.584,15.584,0,0,1-.133-2.874A13.914,13.914,0,0,1,571.773,339.48Z" transform="translate(-564.093 -321.604)" fill="#263238"/>
      <path id="Path_37938" data-name="Path 37938" d="M579.313,339.48a32.053,32.053,0,0,1,0,5.752,15.985,15.985,0,0,1-.133-2.874A15.648,15.648,0,0,1,579.313,339.48Z" transform="translate(-568.848 -321.604)" fill="#263238"/>
      <path id="Path_37939" data-name="Path 37939" d="M586.853,339.48a31.174,31.174,0,0,1,0,5.752,31.159,31.159,0,0,1,0-5.752Z" transform="translate(-573.602 -321.604)" fill="#263238"/>
      <path id="Path_37940" data-name="Path 37940" d="M594.4,339.48a31.159,31.159,0,0,1,0,5.752,31.159,31.159,0,0,1,0-5.752Z" transform="translate(-578.363 -321.604)" fill="#263238"/>
      <path id="Path_37941" data-name="Path 37941" d="M601.953,339.48a31.159,31.159,0,0,1,0,5.752,15.59,15.59,0,0,1-.133-2.874A16.461,16.461,0,0,1,601.953,339.48Z" transform="translate(-583.124 -321.604)" fill="#263238"/>
      <path id="Path_37942" data-name="Path 37942" d="M609.5,339.48a31.159,31.159,0,0,1,0,5.752,31.159,31.159,0,0,1,0-5.752Z" transform="translate(-587.885 -321.604)" fill="#263238"/>
      <path id="Path_37943" data-name="Path 37943" d="M617.049,339.48a31.159,31.159,0,0,1,0,5.752,15.806,15.806,0,0,1-.129-2.874A16.272,16.272,0,0,1,617.049,339.48Z" transform="translate(-592.646 -321.604)" fill="#263238"/>
      <path id="Path_37944" data-name="Path 37944" d="M624.593,339.48a31.174,31.174,0,0,1,0,5.752,31.159,31.159,0,0,1,0-5.752Z" transform="translate(-597.401 -321.604)" fill="#263238"/>
      <path id="Path_37945" data-name="Path 37945" d="M632.143,339.48a31.159,31.159,0,0,1,0,5.752,31.159,31.159,0,0,1,0-5.752Z" transform="translate(-602.162 -321.604)" fill="#263238"/>
      <path id="Path_37946" data-name="Path 37946" d="M639.693,339.48a31.174,31.174,0,0,1,0,5.752,31.159,31.159,0,0,1,0-5.752Z" transform="translate(-606.923 -321.604)" fill="#263238"/>
      <g id="Group_8855" data-name="Group 8855" transform="translate(3.351 17.783)" opacity="0.3">
        <path id="Path_37947" data-name="Path 37947" d="M560.28,339.23a77.439,77.439,0,0,0,29.608,0Z" transform="translate(-560.28 -339.23)"/>
      </g>
      <path id="Path_37948" data-name="Path 37948" d="M589.649,339.033c0,.074-6.838.133-15.268.133s-15.271-.059-15.271-.133,6.838-.133,15.271-.133S589.649,338.959,589.649,339.033Z" transform="translate(-556.192 -321.239)" fill="#263238"/>
      <rect id="Rectangle_5623" data-name="Rectangle 5623" width="30.591" height="5.933" transform="translate(4.606 23.627)" fill="#f8951d"/>
      <path id="Path_37949" data-name="Path 37949" d="M568.773,355.32a31.159,31.159,0,0,1,0,5.752,31.159,31.159,0,0,1,0-5.752Z" transform="translate(-562.201 -331.593)" fill="#263238"/>
      <path id="Path_37950" data-name="Path 37950" d="M576.453,355.32a31.159,31.159,0,0,1,0,5.752,31.159,31.159,0,0,1,0-5.752Z" transform="translate(-567.044 -331.593)" fill="#263238"/>
      <path id="Path_37951" data-name="Path 37951" d="M584.043,355.32a31.159,31.159,0,0,1,0,5.752,31.159,31.159,0,0,1,0-5.752Z" transform="translate(-571.83 -331.593)" fill="#263238"/>
      <path id="Path_37952" data-name="Path 37952" d="M591.589,355.32a31.174,31.174,0,0,1,0,5.752,15.8,15.8,0,0,1-.129-2.874A16.268,16.268,0,0,1,591.589,355.32Z" transform="translate(-576.591 -331.593)" fill="#263238"/>
      <path id="Path_37953" data-name="Path 37953" d="M599.133,355.32a31.159,31.159,0,0,1,0,5.752,31.159,31.159,0,0,1,0-5.752Z" transform="translate(-581.346 -331.593)" fill="#263238"/>
      <path id="Path_37954" data-name="Path 37954" d="M606.683,355.32a31.159,31.159,0,0,1,0,5.752,31.159,31.159,0,0,1,0-5.752Z" transform="translate(-586.107 -331.593)" fill="#263238"/>
      <path id="Path_37955" data-name="Path 37955" d="M614.233,355.32a31.174,31.174,0,0,1,0,5.752,31.159,31.159,0,0,1,0-5.752Z" transform="translate(-590.868 -331.593)" fill="#263238"/>
      <path id="Path_37956" data-name="Path 37956" d="M621.773,355.32a31.159,31.159,0,0,1,0,5.752,31.159,31.159,0,0,1,0-5.752Z" transform="translate(-595.623 -331.593)" fill="#263238"/>
      <path id="Path_37957" data-name="Path 37957" d="M629.323,355.32a31.174,31.174,0,0,1,0,5.752,15.584,15.584,0,0,1-.133-2.874A16.044,16.044,0,0,1,629.323,355.32Z" transform="translate(-600.384 -331.593)" fill="#263238"/>
      <path id="Path_37958" data-name="Path 37958" d="M636.873,355.32a31.159,31.159,0,0,1,0,5.752,31.159,31.159,0,0,1,0-5.752Z" transform="translate(-605.145 -331.593)" fill="#263238"/>
      <path id="Path_37959" data-name="Path 37959" d="M644.423,355.32a31.159,31.159,0,0,1,0,5.752,31.159,31.159,0,0,1,0-5.752Z" transform="translate(-609.906 -331.593)" fill="#263238"/>
      <g id="Group_8856" data-name="Group 8856" transform="translate(5.094 23.635)" opacity="0.3">
        <path id="Path_37960" data-name="Path 37960" d="M565,355.07a87.461,87.461,0,0,0,29.608,0Z" transform="translate(-565 -355.07)"/>
      </g>
      <path id="Path_37961" data-name="Path 37961" d="M594.379,354.873c0,.074-6.838.133-15.268.133s-15.271-.059-15.271-.133,6.838-.133,15.271-.133S594.379,354.8,594.379,354.873Z" transform="translate(-559.174 -331.227)" fill="#263238"/>
      <rect id="Rectangle_5624" data-name="Rectangle 5624" width="30.591" height="5.933" transform="translate(0 0.115)" fill="#f8951d"/>
      <path id="Path_37962" data-name="Path 37962" d="M556.3,291.67a31.159,31.159,0,0,1,0,5.752,31.174,31.174,0,0,1,0-5.752Z" transform="translate(-554.338 -291.456)" fill="#263238"/>
      <path id="Path_37963" data-name="Path 37963" d="M563.983,291.67a31.174,31.174,0,0,1,0,5.752,15.641,15.641,0,0,1-.133-2.878A15.2,15.2,0,0,1,563.983,291.67Z" transform="translate(-559.181 -291.456)" fill="#263238"/>
      <path id="Path_37964" data-name="Path 37964" d="M571.573,291.67a31.159,31.159,0,0,1,0,5.752,31.159,31.159,0,0,1,0-5.752Z" transform="translate(-563.967 -291.456)" fill="#263238"/>
      <path id="Path_37965" data-name="Path 37965" d="M579.123,291.67a31.159,31.159,0,0,1,0,5.752,31.159,31.159,0,0,1,0-5.752Z" transform="translate(-568.728 -291.456)" fill="#263238"/>
      <path id="Path_37966" data-name="Path 37966" d="M586.673,291.67a32.053,32.053,0,0,1,0,5.752,16.044,16.044,0,0,1-.133-2.878A15.583,15.583,0,0,1,586.673,291.67Z" transform="translate(-573.489 -291.456)" fill="#263238"/>
      <path id="Path_37967" data-name="Path 37967" d="M594.213,291.67a31.174,31.174,0,0,1,0,5.752,31.159,31.159,0,0,1,0-5.752Z" transform="translate(-578.244 -291.456)" fill="#263238"/>
      <path id="Path_37968" data-name="Path 37968" d="M601.773,291.67a31.159,31.159,0,0,1,0,5.752,15.641,15.641,0,0,1-.133-2.878A15.208,15.208,0,0,1,601.773,291.67Z" transform="translate(-583.011 -291.456)" fill="#263238"/>
      <path id="Path_37969" data-name="Path 37969" d="M609.313,291.67a31.174,31.174,0,0,1,0,5.752,31.159,31.159,0,0,1,0-5.752Z" transform="translate(-587.765 -291.456)" fill="#263238"/>
      <path id="Path_37970" data-name="Path 37970" d="M616.863,291.67a31.159,31.159,0,0,1,0,5.752,16.044,16.044,0,0,1-.133-2.878A15.59,15.59,0,0,1,616.863,291.67Z" transform="translate(-592.526 -291.456)" fill="#263238"/>
      <path id="Path_37971" data-name="Path 37971" d="M624.4,291.67a31.159,31.159,0,0,1,0,5.752,15.641,15.641,0,0,1-.133-2.878A15.984,15.984,0,0,1,624.4,291.67Z" transform="translate(-597.281 -291.456)" fill="#263238"/>
      <path id="Path_37972" data-name="Path 37972" d="M631.953,291.67a31.159,31.159,0,0,1,0,5.752,15.648,15.648,0,0,1-.133-2.878A16.4,16.4,0,0,1,631.953,291.67Z" transform="translate(-602.042 -291.456)" fill="#263238"/>
      <g id="Group_8857" data-name="Group 8857" transform="translate(0.491 0.118)" opacity="0.3">
        <path id="Path_37973" data-name="Path 37973" d="M552.54,291.41a77.457,77.457,0,0,0,29.612,0Z" transform="translate(-552.54 -291.41)"/>
      </g>
      <path id="Path_37974" data-name="Path 37974" d="M581.875,291.223c0,.074-6.838.133-15.268.133s-15.268-.059-15.268-.133,6.834-.133,15.268-.133S581.875,291.149,581.875,291.223Z" transform="translate(-551.292 -291.09)" fill="#263238"/>
      <rect id="Rectangle_5625" data-name="Rectangle 5625" width="30.591" height="5.933" transform="translate(1.747 5.966)" fill="#f8951d"/>
      <path id="Path_37975" data-name="Path 37975" d="M561.033,307.51a31.159,31.159,0,0,1,0,5.752,15.641,15.641,0,0,1-.133-2.878A15.984,15.984,0,0,1,561.033,307.51Z" transform="translate(-557.32 -301.444)" fill="#263238"/>
      <path id="Path_37976" data-name="Path 37976" d="M568.713,307.51a31.174,31.174,0,0,1,0,5.752,31.159,31.159,0,0,1,0-5.752Z" transform="translate(-562.163 -301.444)" fill="#263238"/>
      <path id="Path_37977" data-name="Path 37977" d="M576.3,307.51a31.159,31.159,0,0,1,0,5.752,31.159,31.159,0,0,1,0-5.752Z" transform="translate(-566.95 -301.444)" fill="#263238"/>
      <path id="Path_37978" data-name="Path 37978" d="M583.853,307.51a31.174,31.174,0,0,1,0,5.752,31.159,31.159,0,0,1,0-5.752Z" transform="translate(-571.711 -301.444)" fill="#263238"/>
      <path id="Path_37979" data-name="Path 37979" d="M591.4,307.51a31.159,31.159,0,0,1,0,5.752,16.044,16.044,0,0,1-.133-2.878A15.583,15.583,0,0,1,591.4,307.51Z" transform="translate(-576.472 -301.444)" fill="#263238"/>
      <path id="Path_37980" data-name="Path 37980" d="M598.943,307.51a31.174,31.174,0,0,1,0,5.752,15.641,15.641,0,0,1-.133-2.878A16.845,16.845,0,0,1,598.943,307.51Z" transform="translate(-581.226 -301.444)" fill="#263238"/>
      <path id="Path_37981" data-name="Path 37981" d="M606.493,307.51a31.159,31.159,0,0,1,0,5.752,31.159,31.159,0,0,1,0-5.752Z" transform="translate(-585.987 -301.444)" fill="#263238"/>
      <path id="Path_37982" data-name="Path 37982" d="M614.043,307.51a31.159,31.159,0,0,1,0,5.752,31.159,31.159,0,0,1,0-5.752Z" transform="translate(-590.748 -301.444)" fill="#263238"/>
      <path id="Path_37983" data-name="Path 37983" d="M621.593,307.51a31.159,31.159,0,0,1,0,5.752,31.159,31.159,0,0,1,0-5.752Z" transform="translate(-595.509 -301.444)" fill="#263238"/>
      <path id="Path_37984" data-name="Path 37984" d="M629.143,307.51a32.053,32.053,0,0,1,0,5.752,16.044,16.044,0,0,1-.133-2.878A15.583,15.583,0,0,1,629.143,307.51Z" transform="translate(-600.27 -301.444)" fill="#263238"/>
      <path id="Path_37985" data-name="Path 37985" d="M636.683,307.51a31.159,31.159,0,0,1,0,5.752,31.159,31.159,0,0,1,0-5.752Z" transform="translate(-605.025 -301.444)" fill="#263238"/>
      <g id="Group_8858" data-name="Group 8858" transform="translate(2.239 5.973)" opacity="0.3">
        <path id="Path_37986" data-name="Path 37986" d="M557.27,307.26a87.579,87.579,0,0,0,29.612,0Z" transform="translate(-557.27 -307.26)"/>
      </g>
      <path id="Path_37987" data-name="Path 37987" d="M586.645,307.063c0,.074-6.834.133-15.268.133s-15.268-.059-15.268-.133,6.834-.133,15.268-.133S586.645,306.989,586.645,307.063Z" transform="translate(-554.3 -301.079)" fill="#263238"/>
    </g>
    <g id="freepik--coins-1--inject-77" transform="translate(59.176 152.169)">
      <rect id="Rectangle_5626" data-name="Rectangle 5626" width="30.591" height="6.169" transform="translate(31.965 6.284) rotate(180)" fill="#f8951d"/>
      <path id="Path_37988" data-name="Path 37988" d="M178.663,371.83a33.727,33.727,0,0,0,0,5.984,33.73,33.73,0,0,0,0-5.984Z" transform="translate(-148.663 -371.616)" fill="#263238"/>
      <path id="Path_37989" data-name="Path 37989" d="M170.983,371.83a33.73,33.73,0,0,0,0,5.984,33.727,33.727,0,0,0,0-5.984Z" transform="translate(-143.82 -371.616)" fill="#263238"/>
      <path id="Path_37990" data-name="Path 37990" d="M163.393,371.83a33.727,33.727,0,0,0,0,5.984,33.73,33.73,0,0,0,0-5.984Z" transform="translate(-139.034 -371.616)" fill="#263238"/>
      <path id="Path_37991" data-name="Path 37991" d="M155.843,371.83a33.73,33.73,0,0,0,0,5.984,17.341,17.341,0,0,0,.133-2.992A16.909,16.909,0,0,0,155.843,371.83Z" transform="translate(-134.273 -371.616)" fill="#263238"/>
      <path id="Path_37992" data-name="Path 37992" d="M148.3,371.83a33.73,33.73,0,0,0,0,5.984,16.909,16.909,0,0,0,.133-2.992A17.341,17.341,0,0,0,148.3,371.83Z" transform="translate(-129.519 -371.616)" fill="#263238"/>
      <path id="Path_37993" data-name="Path 37993" d="M140.773,371.83a33.73,33.73,0,0,0,0,5.984,16.909,16.909,0,0,0,.133-2.992A17.8,17.8,0,0,0,140.773,371.83Z" transform="translate(-124.77 -371.616)" fill="#263238"/>
      <path id="Path_37994" data-name="Path 37994" d="M133.2,371.83a33.73,33.73,0,0,0,0,5.984,33.727,33.727,0,0,0,0-5.984Z" transform="translate(-119.997 -371.616)" fill="#263238"/>
      <path id="Path_37995" data-name="Path 37995" d="M125.653,371.83a33.728,33.728,0,0,0,0,5.984,33.73,33.73,0,0,0,0-5.984Z" transform="translate(-115.236 -371.616)" fill="#263238"/>
      <path id="Path_37996" data-name="Path 37996" d="M118.113,371.83a33.728,33.728,0,0,0,0,5.984,17.142,17.142,0,0,0,.129-2.992A17.587,17.587,0,0,0,118.113,371.83Z" transform="translate(-110.481 -371.616)" fill="#263238"/>
      <path id="Path_37997" data-name="Path 37997" d="M110.563,371.83a33.73,33.73,0,0,0,0,5.984,16.909,16.909,0,0,0,.133-2.992A16.5,16.5,0,0,0,110.563,371.83Z" transform="translate(-105.72 -371.616)" fill="#263238"/>
      <path id="Path_37998" data-name="Path 37998" d="M103.013,371.83a33.728,33.728,0,0,0,0,5.984,33.728,33.728,0,0,0,0-5.984Z" transform="translate(-100.959 -371.616)" fill="#263238"/>
      <g id="Group_8859" data-name="Group 8859" transform="translate(1.866 0.118)" opacity="0.3">
        <path id="Path_37999" data-name="Path 37999" d="M132.338,371.57a111.437,111.437,0,0,1-29.608,0Z" transform="translate(-102.73 -371.57)"/>
      </g>
      <path id="Path_38000" data-name="Path 38000" d="M101.38,371.383c0,.074,6.838.133,15.268.133s15.271-.059,15.271-.133-6.838-.133-15.271-.133S101.38,371.309,101.38,371.383Z" transform="translate(-100.013 -371.25)" fill="#263238"/>
      <rect id="Rectangle_5627" data-name="Rectangle 5627" width="30.591" height="6.169" transform="translate(31.278 12.349) rotate(180)" fill="#f8951d"/>
      <path id="Path_38001" data-name="Path 38001" d="M176.773,388.25a33.73,33.73,0,0,0,0,5.984,16.909,16.909,0,0,0,.133-2.992A15.733,15.733,0,0,0,176.773,388.25Z" transform="translate(-147.472 -381.97)" fill="#263238"/>
      <path id="Path_38002" data-name="Path 38002" d="M169.123,388.25a33.727,33.727,0,0,0,0,5.984,33.73,33.73,0,0,0,0-5.984Z" transform="translate(-142.648 -381.97)" fill="#263238"/>
      <path id="Path_38003" data-name="Path 38003" d="M161.533,388.25a33.727,33.727,0,0,0,0,5.984,16.912,16.912,0,0,0,.133-2.992A15.378,15.378,0,0,0,161.533,388.25Z" transform="translate(-137.861 -381.97)" fill="#263238"/>
      <path id="Path_38004" data-name="Path 38004" d="M153.983,388.25a33.73,33.73,0,0,0,0,5.984,17.341,17.341,0,0,0,.133-2.992A16.909,16.909,0,0,0,153.983,388.25Z" transform="translate(-133.1 -381.97)" fill="#263238"/>
      <path id="Path_38005" data-name="Path 38005" d="M146.443,388.25a33.727,33.727,0,0,0,0,5.984,16.91,16.91,0,0,0,.133-2.992A17.342,17.342,0,0,0,146.443,388.25Z" transform="translate(-128.346 -381.97)" fill="#263238"/>
      <path id="Path_38006" data-name="Path 38006" d="M138.893,388.25a33.727,33.727,0,0,0,0,5.984,33.73,33.73,0,0,0,0-5.984Z" transform="translate(-123.585 -381.97)" fill="#263238"/>
      <path id="Path_38007" data-name="Path 38007" d="M131.343,388.25a33.73,33.73,0,0,0,0,5.984,33.727,33.727,0,0,0,0-5.984Z" transform="translate(-118.824 -381.97)" fill="#263238"/>
      <path id="Path_38008" data-name="Path 38008" d="M123.773,388.25a33.728,33.728,0,0,0,0,5.984,16.91,16.91,0,0,0,.133-2.992A16.106,16.106,0,0,0,123.773,388.25Z" transform="translate(-114.05 -381.97)" fill="#263238"/>
      <path id="Path_38009" data-name="Path 38009" d="M116.253,388.25a33.728,33.728,0,0,0,0,5.984,17.142,17.142,0,0,0,.129-2.992A17.586,17.586,0,0,0,116.253,388.25Z" transform="translate(-109.308 -381.97)" fill="#263238"/>
      <path id="Path_38010" data-name="Path 38010" d="M108.7,388.25a33.728,33.728,0,0,0,0,5.984,33.73,33.73,0,0,0,0-5.984Z" transform="translate(-104.547 -381.97)" fill="#263238"/>
      <path id="Path_38011" data-name="Path 38011" d="M101.153,388.25a33.728,33.728,0,0,0,0,5.984,33.73,33.73,0,0,0,0-5.984Z" transform="translate(-99.786 -381.97)" fill="#263238"/>
      <g id="Group_8860" data-name="Group 8860" transform="translate(1.171 6.188)" opacity="0.3">
        <path id="Path_38012" data-name="Path 38012" d="M130.458,388a111.441,111.441,0,0,1-29.608,0Z" transform="translate(-100.85 -388)"/>
      </g>
      <path id="Path_38013" data-name="Path 38013" d="M99.52,387.773c0,.074,6.838.133,15.268.133s15.271-.059,15.271-.133-6.838-.133-15.271-.133S99.52,387.71,99.52,387.773Z" transform="translate(-98.84 -381.585)" fill="#263238"/>
      <rect id="Rectangle_5628" data-name="Rectangle 5628" width="30.591" height="6.169" transform="translate(34.185 18.319) rotate(180)" fill="#f8951d"/>
      <path id="Path_38014" data-name="Path 38014" d="M184.663,404.41a33.685,33.685,0,0,0,0,5.981,33.689,33.689,0,0,0,0-5.981Z" transform="translate(-152.447 -392.16)" fill="#263238"/>
      <path id="Path_38015" data-name="Path 38015" d="M176.983,404.41a33.685,33.685,0,0,0,0,5.981,33.689,33.689,0,0,0,0-5.981Z" transform="translate(-147.604 -392.16)" fill="#263238"/>
      <path id="Path_38016" data-name="Path 38016" d="M169.393,404.41a33.689,33.689,0,0,0,0,5.981,17.279,17.279,0,0,0,.133-2.988A16.907,16.907,0,0,0,169.393,404.41Z" transform="translate(-142.818 -392.16)" fill="#263238"/>
      <path id="Path_38017" data-name="Path 38017" d="M161.853,404.41a33.685,33.685,0,0,0,0,5.981,33.689,33.689,0,0,0,0-5.981Z" transform="translate(-138.063 -392.16)" fill="#263238"/>
      <path id="Path_38018" data-name="Path 38018" d="M154.3,404.41a33.685,33.685,0,0,0,0,5.981,33.689,33.689,0,0,0,0-5.981Z" transform="translate(-133.302 -392.16)" fill="#263238"/>
      <path id="Path_38019" data-name="Path 38019" d="M146.773,404.41a33.689,33.689,0,0,0,0,5.981,16.848,16.848,0,0,0,.133-2.988A17.8,17.8,0,0,0,146.773,404.41Z" transform="translate(-128.554 -392.16)" fill="#263238"/>
      <path id="Path_38020" data-name="Path 38020" d="M139.2,404.41a33.689,33.689,0,0,0,0,5.981,33.685,33.685,0,0,0,0-5.981Z" transform="translate(-123.78 -392.16)" fill="#263238"/>
      <path id="Path_38021" data-name="Path 38021" d="M131.663,404.41a33.689,33.689,0,0,0,0,5.981,17.08,17.08,0,0,0,.129-2.988A17.586,17.586,0,0,0,131.663,404.41Z" transform="translate(-119.026 -392.16)" fill="#263238"/>
      <path id="Path_38022" data-name="Path 38022" d="M124.113,404.41a33.689,33.689,0,0,0,0,5.981,33.685,33.685,0,0,0,0-5.981Z" transform="translate(-114.265 -392.16)" fill="#263238"/>
      <path id="Path_38023" data-name="Path 38023" d="M116.563,404.41a33.687,33.687,0,0,0,0,5.981,16.849,16.849,0,0,0,.133-2.988A16.5,16.5,0,0,0,116.563,404.41Z" transform="translate(-109.504 -392.16)" fill="#263238"/>
      <path id="Path_38024" data-name="Path 38024" d="M109.013,404.41a33.687,33.687,0,0,0,0,5.981,33.689,33.689,0,0,0,0-5.981Z" transform="translate(-104.743 -392.16)" fill="#263238"/>
      <g id="Group_8861" data-name="Group 8861" transform="translate(4.082 12.153)" opacity="0.3">
        <path id="Path_38025" data-name="Path 38025" d="M138.338,404.15a111.441,111.441,0,0,1-29.608,0Z" transform="translate(-108.73 -404.15)"/>
      </g>
      <path id="Path_38026" data-name="Path 38026" d="M107.38,403.963c0,.074,6.838.133,15.268.133s15.271-.059,15.271-.133-6.834-.133-15.271-.133S107.38,403.893,107.38,403.963Z" transform="translate(-103.797 -391.795)" fill="#263238"/>
      <rect id="Rectangle_5629" data-name="Rectangle 5629" width="30.591" height="5.933" transform="translate(30.602 24.204) rotate(180)" fill="#f8951d"/>
      <path id="Path_38027" data-name="Path 38027" d="M174.963,421a31.163,31.163,0,0,0,0,5.752,31.159,31.159,0,0,0,0-5.752Z" transform="translate(-146.33 -402.622)" fill="#263238"/>
      <path id="Path_38028" data-name="Path 38028" d="M167.283,421a31.159,31.159,0,0,0,0,5.752,31.163,31.163,0,0,0,0-5.752Z" transform="translate(-141.487 -402.622)" fill="#263238"/>
      <path id="Path_38029" data-name="Path 38029" d="M159.693,421a31.159,31.159,0,0,0,0,5.752,31.163,31.163,0,0,0,0-5.752Z" transform="translate(-136.701 -402.622)" fill="#263238"/>
      <path id="Path_38030" data-name="Path 38030" d="M152.153,421a31.163,31.163,0,0,0,0,5.752,15.644,15.644,0,0,0,.133-2.878A15.984,15.984,0,0,0,152.153,421Z" transform="translate(-131.946 -402.622)" fill="#263238"/>
      <path id="Path_38031" data-name="Path 38031" d="M144.6,421a31.159,31.159,0,0,0,0,5.752,15.647,15.647,0,0,0,.133-2.878A16.848,16.848,0,0,0,144.6,421Z" transform="translate(-127.185 -402.622)" fill="#263238"/>
      <path id="Path_38032" data-name="Path 38032" d="M137.053,421a31.163,31.163,0,0,0,0,5.752,31.159,31.159,0,0,0,0-5.752Z" transform="translate(-122.424 -402.622)" fill="#263238"/>
      <path id="Path_38033" data-name="Path 38033" d="M129.5,421a31.163,31.163,0,0,0,0,5.752,31.159,31.159,0,0,0,0-5.752Z" transform="translate(-117.663 -402.622)" fill="#263238"/>
      <path id="Path_38034" data-name="Path 38034" d="M121.959,421a32.047,32.047,0,0,0,0,5.752,16.045,16.045,0,0,0,.133-2.878A15.588,15.588,0,0,0,121.959,421Z" transform="translate(-112.909 -402.622)" fill="#263238"/>
      <path id="Path_38035" data-name="Path 38035" d="M114.413,421a31.161,31.161,0,0,0,0,5.752,31.161,31.161,0,0,0,0-5.752Z" transform="translate(-108.148 -402.622)" fill="#263238"/>
      <path id="Path_38036" data-name="Path 38036" d="M106.863,421a31.161,31.161,0,0,0,0,5.752,31.161,31.161,0,0,0,0-5.752Z" transform="translate(-103.387 -402.622)" fill="#263238"/>
      <path id="Path_38037" data-name="Path 38037" d="M99.313,421a31.161,31.161,0,0,0,0,5.752,31.161,31.161,0,0,0,0-5.752Z" transform="translate(-98.626 -402.622)" fill="#263238"/>
      <g id="Group_8862" data-name="Group 8862" transform="translate(0.499 18.278)" opacity="0.3">
        <path id="Path_38038" data-name="Path 38038" d="M128.638,420.73a87.551,87.551,0,0,1-29.608,0Z" transform="translate(-99.03 -420.73)"/>
      </g>
      <path id="Path_38039" data-name="Path 38039" d="M97.68,420.533c0,.074,6.838.133,15.268.133s15.271-.059,15.271-.133-6.838-.133-15.271-.133S97.68,420.459,97.68,420.533Z" transform="translate(-97.68 -402.244)" fill="#263238"/>
      <rect id="Rectangle_5630" data-name="Rectangle 5630" width="30.591" height="5.933" transform="translate(32.567 30.14) rotate(180)" fill="#f8951d"/>
      <path id="Path_38040" data-name="Path 38040" d="M180.289,437.05a32.049,32.049,0,0,0,0,5.752,16.044,16.044,0,0,0,.133-2.878A15.585,15.585,0,0,0,180.289,437.05Z" transform="translate(-149.691 -412.743)" fill="#263238"/>
      <path id="Path_38041" data-name="Path 38041" d="M172.613,437.05a31.163,31.163,0,0,0,0,5.752,15.644,15.644,0,0,0,.133-2.878A17.311,17.311,0,0,0,172.613,437.05Z" transform="translate(-144.848 -412.743)" fill="#263238"/>
      <path id="Path_38042" data-name="Path 38042" d="M165.023,437.05a31.159,31.159,0,0,0,0,5.752,31.163,31.163,0,0,0,0-5.752Z" transform="translate(-140.062 -412.743)" fill="#263238"/>
      <path id="Path_38043" data-name="Path 38043" d="M157.473,437.05a31.159,31.159,0,0,0,0,5.752,31.163,31.163,0,0,0,0-5.752Z" transform="translate(-135.301 -412.743)" fill="#263238"/>
      <path id="Path_38044" data-name="Path 38044" d="M149.923,437.05a31.163,31.163,0,0,0,0,5.752,31.159,31.159,0,0,0,0-5.752Z" transform="translate(-130.54 -412.743)" fill="#263238"/>
      <path id="Path_38045" data-name="Path 38045" d="M142.379,437.05a32.046,32.046,0,0,0,0,5.752,16.047,16.047,0,0,0,.133-2.878A15.589,15.589,0,0,0,142.379,437.05Z" transform="translate(-125.786 -412.743)" fill="#263238"/>
      <path id="Path_38046" data-name="Path 38046" d="M134.833,437.05a31.163,31.163,0,0,0,0,5.752,31.159,31.159,0,0,0,0-5.752Z" transform="translate(-121.025 -412.743)" fill="#263238"/>
      <path id="Path_38047" data-name="Path 38047" d="M127.283,437.05a31.161,31.161,0,0,0,0,5.752,31.163,31.163,0,0,0,0-5.752Z" transform="translate(-116.264 -412.743)" fill="#263238"/>
      <path id="Path_38048" data-name="Path 38048" d="M119.773,437.05a31.163,31.163,0,0,0,0,5.752,15.644,15.644,0,0,0,.133-2.878A17.311,17.311,0,0,0,119.773,437.05Z" transform="translate(-111.528 -412.743)" fill="#263238"/>
      <path id="Path_38049" data-name="Path 38049" d="M112.183,437.05a31.161,31.161,0,0,0,0,5.752,16.045,16.045,0,0,0,.133-2.878A15.588,15.588,0,0,0,112.183,437.05Z" transform="translate(-106.742 -412.743)" fill="#263238"/>
      <path id="Path_38050" data-name="Path 38050" d="M104.643,437.05a31.163,31.163,0,0,0,0,5.752,15.645,15.645,0,0,0,.133-2.878A15.985,15.985,0,0,0,104.643,437.05Z" transform="translate(-101.987 -412.743)" fill="#263238"/>
      <g id="Group_8863" data-name="Group 8863" transform="translate(2.464 24.215)" opacity="0.3">
        <path id="Path_38051" data-name="Path 38051" d="M133.962,436.8a77.531,77.531,0,0,1-29.612,0Z" transform="translate(-104.35 -436.8)"/>
      </g>
      <path id="Path_38052" data-name="Path 38052" d="M103,436.6c0,.074,6.834.133,15.268.133s15.268-.059,15.268-.133-6.834-.133-15.268-.133S103,436.529,103,436.6Z" transform="translate(-101.035 -412.377)" fill="#263238"/>
      <rect id="Rectangle_5631" data-name="Rectangle 5631" width="30.591" height="5.933" transform="translate(30.816 35.991) rotate(180)" fill="#f8951d"/>
      <path id="Path_38053" data-name="Path 38053" d="M175.553,452.89a31.163,31.163,0,0,0,0,5.752,16.044,16.044,0,0,0,.133-2.878A14.848,14.848,0,0,0,175.553,452.89Z" transform="translate(-146.702 -422.732)" fill="#263238"/>
      <path id="Path_38054" data-name="Path 38054" d="M167.883,452.89a31.163,31.163,0,0,0,0,5.752,15.859,15.859,0,0,0,.129-2.878A16.21,16.21,0,0,0,167.883,452.89Z" transform="translate(-141.866 -422.732)" fill="#263238"/>
      <path id="Path_38055" data-name="Path 38055" d="M160.293,452.89a31.159,31.159,0,0,0,0,5.752,31.163,31.163,0,0,0,0-5.752Z" transform="translate(-137.079 -422.732)" fill="#263238"/>
      <path id="Path_38056" data-name="Path 38056" d="M152.773,452.89a31.159,31.159,0,0,0,0,5.752,15.647,15.647,0,0,0,.133-2.878A16.848,16.848,0,0,0,152.773,452.89Z" transform="translate(-132.337 -422.732)" fill="#263238"/>
      <path id="Path_38057" data-name="Path 38057" d="M145.193,452.89a31.159,31.159,0,0,0,0,5.752,31.163,31.163,0,0,0,0-5.752Z" transform="translate(-127.557 -422.732)" fill="#263238"/>
      <path id="Path_38058" data-name="Path 38058" d="M137.643,452.89a31.163,31.163,0,0,0,0,5.752,31.159,31.159,0,0,0,0-5.752Z" transform="translate(-122.797 -422.732)" fill="#263238"/>
      <path id="Path_38059" data-name="Path 38059" d="M130.1,452.89a31.159,31.159,0,0,0,0,5.752,15.645,15.645,0,0,0,.133-2.878A15.985,15.985,0,0,0,130.1,452.89Z" transform="translate(-118.042 -422.732)" fill="#263238"/>
      <path id="Path_38060" data-name="Path 38060" d="M122.553,452.89a31.161,31.161,0,0,0,0,5.752,15.646,15.646,0,0,0,.133-2.878A14.848,14.848,0,0,0,122.553,452.89Z" transform="translate(-113.281 -422.732)" fill="#263238"/>
      <path id="Path_38061" data-name="Path 38061" d="M115,452.89a31.163,31.163,0,0,0,0,5.752,31.161,31.161,0,0,0,0-5.752Z" transform="translate(-108.52 -422.732)" fill="#263238"/>
      <path id="Path_38062" data-name="Path 38062" d="M107.453,452.89a31.163,31.163,0,0,0,0,5.752,31.161,31.161,0,0,0,0-5.752Z" transform="translate(-103.759 -422.732)" fill="#263238"/>
      <path id="Path_38063" data-name="Path 38063" d="M99.909,452.89a32.049,32.049,0,0,0,0,5.752,16.044,16.044,0,0,0,.133-2.878A15.586,15.586,0,0,0,99.909,452.89Z" transform="translate(-99.004 -422.732)" fill="#263238"/>
      <g id="Group_8864" data-name="Group 8864" transform="translate(0.717 30.066)" opacity="0.3">
        <path id="Path_38064" data-name="Path 38064" d="M129.232,452.64a87.579,87.579,0,0,1-29.612,0Z" transform="translate(-99.62 -452.64)"/>
      </g>
      <path id="Path_38065" data-name="Path 38065" d="M98.27,452.443c0,.074,6.838.133,15.271.133s15.268-.059,15.268-.133-6.834-.133-15.268-.133S98.27,452.369,98.27,452.443Z" transform="translate(-98.052 -422.366)" fill="#263238"/>
      <path id="Path_38066" data-name="Path 38066" d="M180.524,407.475a.347.347,0,0,1,0-.1v-.3c0-.277,0-.661-.018-1.156,0-1.02,0-2.479-.03-4.3v-.066h1.751l-.074.074v-5.936l.089.092H180.18V389.7h3.694l-.1.1v-6.28l.1.092h-3v-.089c0-2.15,0-4.086.018-5.755v-.07h.82l-.066.067v-6.04a.369.369,0,0,1,0-.107v.417c0,.292,0,.7.03,1.215.018,1.071.044,2.6.078,4.514v.066h-.816l.07-.07c0,1.67,0,3.605.018,5.755l-.089-.089h3v6.476h-3.694l.1-.1v5.888l-.092-.1H182.3v6.1h-1.758l.066-.066c0,1.818-.026,3.277-.03,4.3,0,.5,0,.879-.018,1.156v.3A.3.3,0,0,1,180.524,407.475Z" transform="translate(-149.704 -371.483)" fill="#263238"/>
    </g>
    <g id="freepik--Device--inject-77" transform="translate(84.251 89.624)">
      <rect id="Rectangle_5632" data-name="Rectangle 5632" width="145.735" height="96.375" rx="14.57" transform="translate(5.693)" fill="#455a64"/>
      <path id="Path_38067" data-name="Path 38067" d="M165.56,446h157.9v2.08a6.354,6.354,0,0,1-6.354,6.354H171.929a6.354,6.354,0,0,1-6.354-6.354V446Z" transform="translate(-165.56 -355.842)" fill="#455a64"/>
      <path id="Path_38068" data-name="Path 38068" d="M339.34,443.53l1.958,3.118H368.87l1.817-3.118Z" transform="translate(-275.144 -354.285)" fill="#263238"/>
      <path id="Path_38069" data-name="Path 38069" d="M325.475,443.372c0,.052-32.345.1-72.238.1s-72.238-.044-72.238-.1,32.342-.092,72.249-.092S325.475,443.321,325.475,443.372Z" transform="translate(-175.296 -354.127)" fill="#263238"/>
      <path id="Path_38070" data-name="Path 38070" d="M330.972,298.248H198.85l.14-78.488H330.972Z" transform="translate(-186.552 -213.177)" fill="#fafafa"/>
      <path id="Path_38071" data-name="Path 38071" d="M330.821,298.071c0-.606-.03-30.376-.074-78.488l.074.074-131.982.015.1-.1v.063c-.052,27.772-.1,54.3-.148,78.425l-.089-.092,132.122.092-132.122.089h-.089v-.089c.041-24.137.085-50.653.133-78.425v-.159h.1l131.982.022h.074v.074C330.85,267.7,330.821,297.469,330.821,298.071Z" transform="translate(-186.401 -213.001)" fill="#263238"/>
      <path id="Path_38072" data-name="Path 38072" d="M334.6,386.376c0,.055-28.075.1-62.722.1s-62.725-.041-62.725-.1,28.075-.1,62.725-.1S334.6,386.324,334.6,386.376Z" transform="translate(-193.048 -318.184)" fill="#e0e0e0"/>
      <path id="Path_38073" data-name="Path 38073" d="M334.6,351.676c0,.055-28.075.1-62.722.1s-62.725-.041-62.725-.1,28.075-.1,62.725-.1S334.6,351.624,334.6,351.676Z" transform="translate(-193.048 -296.302)" fill="#e0e0e0"/>
      <path id="Path_38074" data-name="Path 38074" d="M334.6,421.076c0,.055-28.075.1-62.722.1s-62.725-.041-62.725-.1,28.075-.1,62.725-.1S334.6,421.024,334.6,421.076Z" transform="translate(-193.048 -340.065)" fill="#e0e0e0"/>
      <path id="Path_38075" data-name="Path 38075" d="M334.6,316.986c0,.052-28.075.1-62.722.1s-62.725-.044-62.725-.1,28.075-.1,62.725-.1S334.6,316.931,334.6,316.986Z" transform="translate(-193.048 -274.427)" fill="#e0e0e0"/>
      <path id="Path_38076" data-name="Path 38076" d="M334.6,282.286c0,.052-28.075.1-62.722.1s-62.725-.044-62.725-.1,28.075-.1,62.725-.1S334.6,282.231,334.6,282.286Z" transform="translate(-193.048 -252.545)" fill="#e0e0e0"/>
      <path id="Path_38077" data-name="Path 38077" d="M334.6,247.586c0,.052-28.075.1-62.722.1s-62.725-.044-62.725-.1,28.075-.1,62.725-.1S334.6,247.534,334.6,247.586Z" transform="translate(-193.048 -230.664)" fill="#e0e0e0"/>
      <path id="Path_38078" data-name="Path 38078" d="M293.5,300.453l-.129-.074-30.458-16.971L239.2,299.792l-.211-.3L262.9,282.973l30.528,17.015,48.2-52.578.273.251Z" transform="translate(-211.864 -230.613)" fill="#263238"/>
      <path id="Path_38079" data-name="Path 38079" d="M384.289,359.913a10.8,10.8,0,1,1-3.428-7.529,10.809,10.809,0,0,1,3.428,7.529Z" transform="translate(-289.861 -294.979)" fill="#f8951d"/>
      <g id="Group_8865" data-name="Group 8865" transform="translate(72.818 54.51)" opacity="0.1">
        <path id="Path_38080" data-name="Path 38080" d="M373.113,349.5a10.813,10.813,0,0,0-10.425,11.182s7.6.074,9.32-3.048S373.113,349.5,373.113,349.5Z" transform="translate(-362.682 -349.5)" fill="#fff"/>
      </g>
      <path id="Path_38081" data-name="Path 38081" d="M385.65,363.985a8.216,8.216,0,1,1-8.5-7.924,8.216,8.216,0,0,1,8.5,7.924Z" transform="translate(-293.989 -299.125)" fill="#f8951d"/>
      <g id="Group_8866" data-name="Group 8866" transform="translate(75.235 56.932)" opacity="0.2">
        <path id="Path_38082" data-name="Path 38082" d="M385.65,363.985a8.216,8.216,0,1,1-8.5-7.924,8.216,8.216,0,0,1,8.5,7.924Z" transform="translate(-369.223 -356.056)"/>
      </g>
      <path id="Path_38083" data-name="Path 38083" d="M386.688,365.068a8.1,8.1,0,1,1-8.382-7.817A8.1,8.1,0,0,1,386.688,365.068Z" transform="translate(-294.783 -299.875)" fill="#f8951d"/>
      <g id="Group_8867" data-name="Group 8867" transform="translate(75.7 57.371)" opacity="0.2">
        <path id="Path_38084" data-name="Path 38084" d="M386.688,365.068a8.1,8.1,0,1,1-8.382-7.817A8.1,8.1,0,0,1,386.688,365.068Z" transform="translate(-370.483 -357.246)" fill="#fff"/>
      </g>
      <path id="Path_38085" data-name="Path 38085" d="M387.662,369.434l-.074-2.072h0a4.107,4.107,0,0,1,1.108.247,3.425,3.425,0,0,1,.528.307l.026-.063.292-.761.066-.174-.369-.369-.177.085a3.882,3.882,0,0,0-1.515-.369l-.041-1.141-.369-.273v.288h-.488l.041,1.164c-1.6.207-2.324,1.149-2.287,2.216.048,1.426,1.286,1.751,2.434,1.991l.07,2.054a3.953,3.953,0,0,1-2.08-.709l-.429,1.053a4.507,4.507,0,0,0,2.549.765l.03.861-.4.022.41.259.842-.03-.041-1.153c1.607-.222,2.346-1.149,2.309-2.2C390.067,369.988,388.811,369.671,387.662,369.434Zm-.85-.188c-.6-.151-1.053-.369-1.068-.857s.277-.831,1-.968ZM387.588,367.358Zm.181,5.135-.063-1.817c.621.155,1.082.369,1.108.875C388.822,371.994,388.515,372.356,387.769,372.493Z" transform="translate(-303.559 -304.67)" fill="#f8951d"/>
      <g id="Group_8868" data-name="Group 8868" transform="translate(80.841 60.18)" opacity="0.3">
        <path id="Path_38086" data-name="Path 38086" d="M387.662,369.434l-.074-2.072h0a4.107,4.107,0,0,1,1.108.247,3.425,3.425,0,0,1,.528.307l.026-.063.292-.761.066-.174-.369-.369-.177.085a3.882,3.882,0,0,0-1.515-.369l-.041-1.141-.369-.273v.288h-.488l.041,1.164c-1.6.207-2.324,1.149-2.287,2.216.048,1.426,1.286,1.751,2.434,1.991l.07,2.054a3.953,3.953,0,0,1-2.08-.709l-.429,1.053a4.507,4.507,0,0,0,2.549.765l.03.861-.4.022.41.259.842-.03-.041-1.153c1.607-.222,2.346-1.149,2.309-2.2C390.067,369.988,388.811,369.671,387.662,369.434Zm-.85-.188c-.6-.151-1.053-.369-1.068-.857s.277-.831,1-.968ZM387.588,367.358Zm.181,5.135-.063-1.817c.621.155,1.082.369,1.108.875C388.822,371.994,388.515,372.356,387.769,372.493Z" transform="translate(-384.4 -364.85)"/>
      </g>
      <path id="Path_38087" data-name="Path 38087" d="M386.871,373.324l.037,1.153-.842.03-.037-1.141a4.507,4.507,0,0,1-2.549-.765l.428-1.053a3.953,3.953,0,0,0,2.08.709l-.07-2.054c-1.153-.24-2.386-.565-2.434-1.995-.037-1.045.691-1.987,2.287-2.2l-.041-1.16.842-.03.041,1.141a4.4,4.4,0,0,1,2.106.554l-.369,1.049a4.278,4.278,0,0,0-1.685-.5l.074,2.076c1.149.236,2.4.554,2.457,1.98C389.213,372.175,388.474,373.106,386.871,373.324Zm-.983-4.374-.063-1.829c-.739.14-1.023.521-1,.972S385.272,368.806,385.889,368.95Zm1.995,2.305c-.018-.5-.48-.72-1.108-.875l.063,1.817c.739-.129,1.045-.491,1.031-.935Z" transform="translate(-302.979 -304.651)" fill="#f8951d"/>
      <path id="Path_38088" data-name="Path 38088" d="M384.606,372.845a.668.668,0,0,1-.248-.229,1.267,1.267,0,0,1-.259-.768,1.311,1.311,0,0,1,.259-.768.769.769,0,0,1,.248-.229,1.947,1.947,0,0,0-.2.262,1.319,1.319,0,0,0,0,1.478C384.514,372.752,384.613,372.837,384.606,372.845Z" transform="translate(-303.37 -308.453)" fill="#fff"/>
      <path id="Path_38089" data-name="Path 38089" d="M390.03,366.416a1.427,1.427,0,0,1-.022-.676,1.427,1.427,0,0,1,.022.676Z" transform="translate(-307.072 -305.231)" fill="#fff"/>
      <path id="Path_38090" data-name="Path 38090" d="M382.1,355.348a1.25,1.25,0,0,1-.266,0h-.717c-.151,0-.318.018-.5.037s-.369.048-.561.078a8.572,8.572,0,0,0-2.46.839c-.174.1-.344.181-.495.277s-.292.185-.414.27-.236.166-.332.236a2.827,2.827,0,0,0-.244.192,1.676,1.676,0,0,1-.211.159,1.564,1.564,0,0,1,.188-.185c.063-.059.14-.126.236-.2s.2-.166.329-.251.259-.185.414-.277.318-.188.5-.288a8.99,8.99,0,0,1,1.208-.517,9.353,9.353,0,0,1,1.271-.314c.2-.026.392-.055.569-.07s.347-.022.5-.026.292,0,.414,0a5.7,5.7,0,0,1,.573.048Z" transform="translate(-298.205 -298.651)" fill="#fff"/>
      <circle id="Ellipse_3276" data-name="Ellipse 3276" cx="5.194" cy="5.194" r="5.194" transform="translate(98.344 64.449) rotate(-0.55)" fill="#f8951d"/>
      <g id="Group_8869" data-name="Group 8869" transform="translate(98.385 64.414)" opacity="0.1">
        <path id="Path_38091" data-name="Path 38091" d="M436.9,376.31a5.194,5.194,0,0,0-5.009,5.371s3.653.037,4.477-1.478A7.763,7.763,0,0,0,436.9,376.31Z" transform="translate(-431.891 -376.31)" fill="#fff"/>
      </g>
      <path id="Path_38092" data-name="Path 38092" d="M442.925,383.27a3.942,3.942,0,1,1-1.252-2.749,3.945,3.945,0,0,1,1.252,2.749Z" transform="translate(-335.49 -313.885)" fill="#f8951d"/>
      <g id="Group_8870" data-name="Group 8870" transform="translate(99.547 65.578)" opacity="0.2">
        <path id="Path_38093" data-name="Path 38093" d="M442.925,383.27a3.942,3.942,0,1,1-1.252-2.749,3.945,3.945,0,0,1,1.252,2.749Z" transform="translate(-435.036 -379.463)"/>
      </g>
      <circle id="Ellipse_3277" data-name="Ellipse 3277" cx="3.894" cy="3.894" r="3.894" transform="matrix(0.976, -0.217, 0.217, 0.976, 99.018, 66.723)" fill="#f8951d"/>
      <g id="Group_8871" data-name="Group 8871" transform="translate(99.018 65.03)" opacity="0.2">
        <circle id="Ellipse_3278" data-name="Ellipse 3278" cx="3.894" cy="3.894" r="3.894" transform="matrix(0.976, -0.217, 0.217, 0.976, 0, 1.693)" fill="#fff"/>
      </g>
      <path id="Path_38094" data-name="Path 38094" d="M443.83,385.873l-.033-1h0a2.217,2.217,0,0,1,.536.118,1.76,1.76,0,0,1,.251.148v-.03l.14-.369.033-.081-.185-.181-.085.041a1.869,1.869,0,0,0-.739-.181l-.018-.55-.177-.129v.137h-.236l.022.558c-.768.1-1.108.554-1.108,1.057.026.687.617.842,1.171.957l.033.986a1.917,1.917,0,0,1-1-.34l-.2.506a2.135,2.135,0,0,0,1.223.369v.414h-.192l.2.126h.406l-.022-.554c.772-.107,1.127-.554,1.108-1.057C444.986,386.139,444.384,386,443.83,385.873Zm-.406-.092c-.288-.074-.506-.174-.513-.41s.133-.4.484-.465ZM443.793,384.875Zm.085,2.468-.03-.876c.3.074.521.181.528.421s-.137.384-.5.454Z" transform="translate(-340.026 -316.531)" fill="#f8951d"/>
      <g id="Group_8872" data-name="Group 8872" transform="translate(102.204 67.129)" opacity="0.3">
        <path id="Path_38095" data-name="Path 38095" d="M443.83,385.873l-.033-1h0a2.217,2.217,0,0,1,.536.118,1.76,1.76,0,0,1,.251.148v-.03l.14-.369.033-.081-.185-.181-.085.041a1.869,1.869,0,0,0-.739-.181l-.018-.55-.177-.129v.137h-.236l.022.558c-.768.1-1.108.554-1.108,1.057.026.687.617.842,1.171.957l.033.986a1.917,1.917,0,0,1-1-.34l-.2.506a2.135,2.135,0,0,0,1.223.369v.414h-.192l.2.126h.406l-.022-.554c.772-.107,1.127-.554,1.108-1.057C444.986,386.139,444.384,386,443.83,385.873Zm-.406-.092c-.288-.074-.506-.174-.513-.41s.133-.4.484-.465ZM443.793,384.875Zm.085,2.468-.03-.876c.3.074.521.181.528.421s-.137.384-.5.454Z" transform="translate(-442.23 -383.66)"/>
      </g>
      <path id="Path_38096" data-name="Path 38096" d="M443.478,387.749v.554h-.4l-.022-.55a2.143,2.143,0,0,1-1.223-.369l.207-.506a1.9,1.9,0,0,0,1,.34l-.033-.986c-.55-.115-1.145-.27-1.171-.957,0-.5.332-.957,1.108-1.057l-.018-.558h.4l.018.547a2.124,2.124,0,0,1,1.012.266l-.185.506a2,2,0,0,0-.809-.236l.037,1c.55.111,1.156.262,1.178.949C444.6,387.2,444.25,387.642,443.478,387.749Zm-.48-2.1-.03-.875c-.347.066-.491.248-.484.465s.225.336.517.41Zm.96,1.108c0-.24-.233-.347-.528-.421l.03.875c.358-.07.506-.24.5-.454Z" transform="translate(-339.774 -316.531)" fill="#f8951d"/>
      <path id="Path_38097" data-name="Path 38097" d="M442.424,387.526a.322.322,0,0,1-.122-.107.647.647,0,0,1-.122-.369.6.6,0,0,1,.126-.369c.059-.081.115-.115.118-.111s-.044.044-.1.126a.643.643,0,0,0-.111.369.628.628,0,0,0,.111.351A.594.594,0,0,1,442.424,387.526Z" transform="translate(-339.995 -318.366)" fill="#fff"/>
      <path id="Path_38098" data-name="Path 38098" d="M444.929,384.449a.689.689,0,0,1-.026-.163.081.081,0,1,1,.037,0A.369.369,0,0,1,444.929,384.449Z" transform="translate(-341.672 -316.825)" fill="#fff"/>
      <path id="Path_38099" data-name="Path 38099" d="M441.2,379.1h-.717a1.881,1.881,0,0,0-.27.037,4.265,4.265,0,0,0-.606.151,5.3,5.3,0,0,0-.576.244c-.085.048-.166.089-.236.133l-.2.129-.163.115-.115.092a.736.736,0,0,1-.1.078l.092-.089a1.163,1.163,0,0,1,.115-.1c.044-.033.1-.078.155-.118a2.331,2.331,0,0,1,.2-.133c.074-.048.155-.092.24-.137a3.854,3.854,0,0,1,.58-.251,3.74,3.74,0,0,1,.609-.148c.1,0,.188-.03.273-.037h.436a.872.872,0,0,1,.151,0A.706.706,0,0,1,441.2,379.1Z" transform="translate(-337.497 -313.631)" fill="#fff"/>
      <circle id="Ellipse_3279" data-name="Ellipse 3279" cx="4.208" cy="4.208" r="4.208" transform="translate(23.021 65.016)" fill="#f8951d"/>
      <circle id="Ellipse_3280" data-name="Ellipse 3280" cx="4.208" cy="4.208" r="4.208" transform="translate(46.848 48.185)" fill="#f8951d"/>
      <circle id="Ellipse_3281" data-name="Ellipse 3281" cx="4.208" cy="4.208" r="4.208" transform="translate(125.033 12.715)" fill="#f8951d"/>
    </g>
    <g id="freepik--Funnel--inject-77" transform="translate(131.037 33.05)">
      <path id="Path_38100" data-name="Path 38100" d="M350.782,116.116a15.419,15.419,0,0,1,3.8-1.651l.783-3.764,6.357-.111.912,3.731a15.577,15.577,0,0,1,3.857,1.518l3.214-2.106,4.573,4.433-1.991,3.284a15.648,15.648,0,0,1,1.662,3.783l3.761.783.111,6.357-3.742.9a15.568,15.568,0,0,1-1.515,3.857l2.1,3.214-4.411,4.581-3.284-1.987a15.667,15.667,0,0,1-3.8,1.651l-.783,3.761-6.354.111-.923-3.735a15.606,15.606,0,0,1-3.853-1.518l-3.214,2.106-4.57-4.411,1.991-3.284a15.586,15.586,0,0,1-1.651-3.8l-3.761-.783-.111-6.354,3.731-.916a15.77,15.77,0,0,1,1.515-3.857l-2.1-3.21,4.414-4.573,3.284,1.991Zm3.387,8.467a6.819,6.819,0,1,0,9.642-.17A6.819,6.819,0,0,0,354.17,124.583Z" transform="translate(-322.308 -87.761)" fill="#e0e0e0"/>
      <path id="Path_38101" data-name="Path 38101" d="M418.852,52.015a9.01,9.01,0,0,1,2.216-.964l.458-2.183,3.731-.078.536,2.18a9.014,9.014,0,0,1,2.253.883l1.873-1.226,2.671,2.586-1.16,1.917a9.01,9.01,0,0,1,.964,2.216l2.194.454.066,3.694-2.179.536a9.17,9.17,0,0,1-.887,2.253l1.23,1.873-2.586,2.671-1.917-1.16a9.009,9.009,0,0,1-2.216.964l-.473,2.213-3.713.063-.532-2.179a9.11,9.11,0,0,1-2.253-.887l-1.877,1.23-2.671-2.586,1.164-1.917a9.01,9.01,0,0,1-.964-2.216l-2.2-.458L412.52,58.2l2.18-.532a8.958,8.958,0,0,1,.883-2.253l-1.226-1.877,2.586-2.671,1.917,1.164Zm1.973,4.946a3.982,3.982,0,1,0,5.633-.1A3.982,3.982,0,0,0,420.824,56.961Z" transform="translate(-368.077 -48.79)" fill="#e0e0e0"/>
      <path id="Path_38102" data-name="Path 38102" d="M374.234,56.961a3.554,3.554,0,0,0,2.634-2.885,3.334,3.334,0,1,0-6.557-1.138,3.539,3.539,0,0,0,1.537,3.62c-5.172-.092-5.877,5.434-5.877,5.434L377.9,64.068S379.114,58.564,374.234,56.961Z" transform="translate(-338.723 -49.532)" fill="#455a64"/>
      <path id="Path_38103" data-name="Path 38103" d="M489.666,88.776a3.114,3.114,0,0,0,.624-3.373,2.929,2.929,0,1,0-5.416,2.194,3.107,3.107,0,0,0,2.826,1.984c-3.9,2.335-1.847,6.779-1.847,6.779l9.852-3.99S494.047,87.705,489.666,88.776Z" transform="translate(-413.512 -70.598)" fill="#f8951d"/>
      <rect id="Rectangle_5633" data-name="Rectangle 5633" width="3.299" height="6.505" transform="translate(69.9 32.539) rotate(12.88)" fill="#455a64"/>
      <rect id="Rectangle_5634" data-name="Rectangle 5634" width="3.299" height="3.953" transform="translate(64.631 33.952) rotate(12.88)" fill="#455a64"/>
      <rect id="Rectangle_5635" data-name="Rectangle 5635" width="3.299" height="9.852" transform="translate(75.259 30.331) rotate(12.88)" fill="#455a64"/>
      <path id="Path_38104" data-name="Path 38104" d="M299.52,170.21l23.361,37.428,5.212,20.757h8.075V170.834Z" transform="translate(-296.82 -125.357)" fill="#f8951d"/>
      <path id="Path_38105" data-name="Path 38105" d="M383.85,170.834V228.4h8.075l5.212-20.757L420.5,170.21Z" transform="translate(-349.998 -125.357)" fill="#f8951d"/>
      <path id="Path_38106" data-name="Path 38106" d="M361.869,169.357H295.9a3.713,3.713,0,0,1-3.694-3.694h0a3.713,3.713,0,0,1,3.694-3.713h65.965a3.694,3.694,0,0,1,3.694,3.713h0A3.694,3.694,0,0,1,361.869,169.357Z" transform="translate(-292.21 -120.148)" fill="#f8951d"/>
      <path id="Path_38107" data-name="Path 38107" d="M368.8,182.136c0,.052-14.983.1-33.465.1s-33.468-.044-33.468-.1,14.983-.1,33.468-.1S368.8,182.084,368.8,182.136Z" transform="translate(-298.302 -132.816)" fill="#263238"/>
      <g id="Group_8873" data-name="Group 8873" transform="translate(10.192 50.28)" opacity="0.2">
        <path id="Path_38108" data-name="Path 38108" d="M319.8,184.9l21.145,31.6,2.675,21.156h1.54l.288-21.3L332.057,184.9Z" transform="translate(-319.8 -184.9)" fill="#fff"/>
      </g>
      <path id="Path_38109" data-name="Path 38109" d="M380.507,271.366c0,.055-3.746.1-8.363.1s-8.363-.041-8.363-.1,3.742-.1,8.363-.1S380.507,271.314,380.507,271.366Z" transform="translate(-337.341 -189.084)" fill="#263238"/>
    </g>
    <g id="freepik--Character--inject-77" transform="translate(95.316 23.829)">
      <path id="Path_38110" data-name="Path 38110" d="M197.053,179.265a9.575,9.575,0,0,0-1.359,2.15,8.584,8.584,0,0,0-.14,2.715c.011.717.369.868.709.842s.177-1.574.177-1.574.739,4.252,1.452,4.063.558-.122.558-.122.037,1.008.687.887.414-.813.414-.813a.617.617,0,0,0,.868-.417,17.055,17.055,0,0,0,.111-2.955l1.241-1.145-.2-2.785a1.082,1.082,0,0,1-1.075-1.075c0-1.057,1.252-6.236,1.252-6.236l.709-3.38-4.773-1.13Z" transform="translate(-195.514 -114.925)" fill="#ffbf9d"/>
      <path id="Path_38111" data-name="Path 38111" d="M281.946,270.562c-.148.329-3.96,9.6-3.96,9.6L273.62,278.8l2.3-10.074Z" transform="translate(-244.767 -178.262)" fill="#ffbf9d"/>
      <path id="Path_38112" data-name="Path 38112" d="M272.156,290.06s2.708,3.554,5.061,1.939l.115,1.175-.318,7.994a1.042,1.042,0,0,1-.927,1.012,1,1,0,0,1-.953-.51c-1-1.806-4.677-8.474-4.433-9.139l.587-1.806a.96.96,0,0,1,.85-.665Z" transform="translate(-242.918 -191.712)" fill="#455a64"/>
      <g id="Group_8874" data-name="Group 8874" transform="translate(27.801 100.173)" opacity="0.6">
        <path id="Path_38113" data-name="Path 38113" d="M275.954,305.292,270.967,295l-.122.4a1.156,1.156,0,0,0,.081.983,72.609,72.609,0,0,0,4.233,8.386.994.994,0,0,0,.794.513Z" transform="translate(-270.772 -295)" fill="#fff"/>
      </g>
      <g id="Group_8875" data-name="Group 8875" transform="translate(28.457 99.138)" opacity="0.6">
        <path id="Path_38114" data-name="Path 38114" d="M273.546,292.41a.606.606,0,0,1-.074.805.576.576,0,0,1-.8-.066.639.639,0,0,1,.081-.853.606.606,0,0,1,.824.163" transform="translate(-272.547 -292.2)" fill="#fff"/>
      </g>
      <path id="Path_38115" data-name="Path 38115" d="M282.4,308.791a3.007,3.007,0,0,1,1.042-.477,3.1,3.1,0,0,1,1.141.126c0-.022-.081-.129-.292-.229a1.589,1.589,0,0,0-.883-.107,1.552,1.552,0,0,0-.805.369C282.435,308.651,282.38,308.791,282.4,308.791Z" transform="translate(-250.302 -203.078)" fill="#263238"/>
      <path id="Path_38116" data-name="Path 38116" d="M283.17,313.4a2.993,2.993,0,0,1,1.9.015,1.411,1.411,0,0,0-1.9,0Z" transform="translate(-250.789 -206.204)" fill="#263238"/>
      <path id="Path_38117" data-name="Path 38117" d="M280.38,303.679a10.447,10.447,0,0,1,1.455-.325,10.142,10.142,0,0,1,1.478.1,2.742,2.742,0,0,0-2.933.225Z" transform="translate(-249.03 -199.945)" fill="#263238"/>
      <path id="Path_38118" data-name="Path 38118" d="M281.83,298.208c0,.066.591,0,1.271.188s1.164.51,1.2.458a1.921,1.921,0,0,0-1.145-.665,1.969,1.969,0,0,0-1.326.018Z" transform="translate(-249.944 -196.772)" fill="#263238"/>
      <path id="Path_38119" data-name="Path 38119" d="M284.249,295.753a.739.739,0,0,0,.055-.369,2.527,2.527,0,0,0-.177-1,1.167,1.167,0,0,0-.421-.6.41.41,0,0,0-.462.037.658.658,0,0,0-.207.421,1.419,1.419,0,0,0,1.082,1.448,1.648,1.648,0,0,0,1.7-.669.562.562,0,0,0,.081-.465.4.4,0,0,0-.369-.259,1.4,1.4,0,0,0-.68.259,2.807,2.807,0,0,0-.739.68.868.868,0,0,0-.188.318,4.477,4.477,0,0,1,1.02-.864,1.256,1.256,0,0,1,.595-.211.214.214,0,0,1,.214.137.4.4,0,0,1-.074.307,1.478,1.478,0,0,1-1.478.558,1.23,1.23,0,0,1-.938-1.215.48.48,0,0,1,.133-.3.218.218,0,0,1,.255-.022,1.045,1.045,0,0,1,.369.5A3.8,3.8,0,0,1,284.249,295.753Z" transform="translate(-250.704 -194.029)" fill="#263238"/>
      <path id="Path_38120" data-name="Path 38120" d="M276.679,271c.1.344,3.3,9.845,3.3,9.845l-4.193,1.847-4.865-9.106Z" transform="translate(-243.064 -179.693)" fill="#ffbf9d"/>
      <path id="Path_38121" data-name="Path 38121" d="M280.521,294.307s4.374.909,5.094-1.847l.857.809,5,6.25a1.038,1.038,0,0,1-.037,1.37.994.994,0,0,1-1.053.24c-1.947-.706-9.087-3.325-9.324-4.012l-.739-1.747a.96.96,0,0,1,.207-1.06Z" transform="translate(-248.942 -193.226)" fill="#455a64"/>
      <g id="Group_8876" data-name="Group 8876" transform="translate(31.842 103.287)" opacity="0.6">
        <path id="Path_38122" data-name="Path 38122" d="M292.212,307.922l-10.5-4.492.17.369c.144.428.4.513.706.691a72.223,72.223,0,0,0,8.692,3.557.986.986,0,0,0,.935-.133Z" transform="translate(-281.71 -303.43)" fill="#fff"/>
      </g>
      <g id="Group_8877" data-name="Group 8877" transform="translate(31.722 101.688)" opacity="0.6">
        <path id="Path_38123" data-name="Path 38123" d="M282.06,299.108a.6.6,0,0,1,.473.658.58.58,0,0,1-.646.473.635.635,0,0,1-.5-.7.6.6,0,0,1,.739-.417" transform="translate(-281.387 -299.102)" fill="#fff"/>
      </g>
      <path id="Path_38124" data-name="Path 38124" d="M299.816,304.525a2.168,2.168,0,0,1,1.419-1.7c0-.026-.144-.044-.369.018a1.57,1.57,0,0,0-.739.5,1.511,1.511,0,0,0-.369.813C299.746,304.392,299.79,304.528,299.816,304.525Z" transform="translate(-261.248 -199.749)" fill="#263238"/>
      <path id="Path_38125" data-name="Path 38125" d="M303.08,307.826c.059.022.218-.4.624-.739s.835-.436.824-.5a1.411,1.411,0,0,0-1.448,1.234Z" transform="translate(-263.344 -202.135)" fill="#263238"/>
      <path id="Path_38126" data-name="Path 38126" d="M294.87,301.148a10.417,10.417,0,0,1,.883-1.2,9.569,9.569,0,0,1,1.193-.9A2.741,2.741,0,0,0,294.87,301.148Z" transform="translate(-258.167 -197.381)" fill="#263238"/>
      <path id="Path_38127" data-name="Path 38127" d="M291.89,297.131c.048.044.451-.369,1.082-.691s1.212-.369,1.2-.443A2.486,2.486,0,0,0,291.89,297.131Z" transform="translate(-256.288 -195.451)" fill="#263238"/>
      <path id="Path_38128" data-name="Path 38128" d="M292.334,293.23a.846.846,0,0,0-.2-.31,2.53,2.53,0,0,0-.791-.635,1.108,1.108,0,0,0-.709-.177.4.4,0,0,0-.325.329.665.665,0,0,0,.118.454,1.419,1.419,0,0,0,1.766.369,1.637,1.637,0,0,0,.85-1.618.569.569,0,0,0-.244-.41.4.4,0,0,0-.458.063,1.367,1.367,0,0,0-.344.639,2.782,2.782,0,0,0-.126,1,.813.813,0,0,0,.066.369,4.433,4.433,0,0,1,.2-1.319,1.334,1.334,0,0,1,.31-.55.211.211,0,0,1,.251-.033.369.369,0,0,1,.148.277,1.478,1.478,0,0,1-.757,1.393,1.223,1.223,0,0,1-1.5-.3.488.488,0,0,1-.1-.314.225.225,0,0,1,.177-.185,1.046,1.046,0,0,1,.606.137A3.846,3.846,0,0,1,292.334,293.23Z" transform="translate(-255.291 -192.422)" fill="#263238"/>
      <path id="Path_38129" data-name="Path 38129" d="M215.8,184.19c.17,0,10.565,7.758,11.149,8.533s1.064,6.424,2.955,11.636,7.758,12.648,7.758,12.648l5.235-1.718s-4.946-22.039-6.08-25.611a83.224,83.224,0,0,0-4.189-9.512l-2.268-3.044L229.9,172l-14.318.159a14.141,14.141,0,0,0-1.917,8.692A5.505,5.505,0,0,0,215.8,184.19Z" transform="translate(-206.884 -117.265)" fill="#263238"/>
      <path id="Path_38130" data-name="Path 38130" d="M273.4,181.263c-1.315-4.027-9.66-9.412-9.66-9.412l-1.4-.281-8.393.126s.332,3.871.336,4.041,4.115,9.291,4.115,9.291l5.3,3.454.924,1.012a50.976,50.976,0,0,0-1.478,7.6c-.288,3.328.2,13.332.2,13.332l5.766.875s4.329-15.282,4.8-17.794S274.714,185.29,273.4,181.263Z" transform="translate(-232.363 -116.993)" fill="#263238"/>
      <path id="Path_38131" data-name="Path 38131" d="M245.6,176.106a1.156,1.156,0,0,1,.347.055,6.828,6.828,0,0,1,.909.288c.188.07.392.159.606.259a3.423,3.423,0,0,1,.661.388c.218.151.436.321.676.477a2.955,2.955,0,0,0,.369.2.687.687,0,0,0,.188.059.218.218,0,0,0,.155-.037,4.368,4.368,0,0,0,.6-.621,6.742,6.742,0,0,1,.654-.536,8.529,8.529,0,0,1,2.035-1.2,1.186,1.186,0,0,1,.332-.111c0,.03-.443.229-1.108.643a8.633,8.633,0,0,0-1.138.809c-.2.166-.436.329-.621.521a4.088,4.088,0,0,1-.639.658.41.41,0,0,1-.281.063.957.957,0,0,1-.24-.07,2.9,2.9,0,0,1-.4-.225c-.244-.163-.465-.332-.676-.491a3.7,3.7,0,0,0-.628-.369c-.207-.107-.406-.2-.587-.277C246.073,176.257,245.592,176.135,245.6,176.106Z" transform="translate(-227.098 -119.364)" fill="#455a64"/>
      <path id="Path_38132" data-name="Path 38132" d="M269.763,221.811a.759.759,0,0,1-.033-.1l-.081-.31c-.07-.284-.17-.683-.3-1.189-.251-1.053-.617-2.53-1.064-4.377-.909-3.694-2.146-8.814-3.609-14.44-.739-2.807-1.444-5.493-2.235-7.876a18.816,18.816,0,0,0-1.566-3.188c-.55-.975-1.082-1.873-1.566-2.693l-2.316-3.871-.632-1.053-.163-.273a.577.577,0,0,1-.048-.1.66.66,0,0,1,.066.085l.177.266.661,1.034c.569.9,1.385,2.216,2.372,3.838.491.816,1.027,1.71,1.585,2.682q.421.739.85,1.518a10.344,10.344,0,0,1,.739,1.692c.8,2.394,1.507,5.076,2.25,7.887,1.478,5.626,2.682,10.746,3.557,14.455.425,1.847.768,3.347,1.012,4.4l.262,1.2.063.314a.34.34,0,0,1,.018.1Z" transform="translate(-233.751 -123.785)" fill="#455a64"/>
      <path id="Path_38133" data-name="Path 38133" d="M313.187,112.99l-3.107,2.346,2.756,3.273,2.819-2.977Z" transform="translate(-267.758 -80.053)" fill="#ffbf9d"/>
      <path id="Path_38134" data-name="Path 38134" d="M320.174,112.466a8.48,8.48,0,0,1,1.939-.632,4.917,4.917,0,0,0,2.017-.536,1.777,1.777,0,0,0,.432-3,5.91,5.91,0,0,0-1.208-.857l-1.91-.1-2.955,2.955Z" transform="translate(-273.062 -76.497)" fill="#ffbf9d"/>
      <path id="Path_38135" data-name="Path 38135" d="M326.942,86.321a5.882,5.882,0,0,1,1.419-.617l.292-1.4,2.375-.041.344,1.393a5.84,5.84,0,0,1,1.441.565l1.2-.787,1.71,1.651-.739,1.226a5.91,5.91,0,0,1,.617,1.422l1.4.292.041,2.375-1.393.34a5.656,5.656,0,0,1-.569,1.441l.787,1.2-1.655,1.714-1.226-.739a5.763,5.763,0,0,1-1.422.617l-.292,1.407-2.375.041-.34-1.4a5.785,5.785,0,0,1-1.441-.565l-1.2.787-1.71-1.651.739-1.226a5.737,5.737,0,0,1-.617-1.419l-1.4-.288-.041-2.375,1.393-.344a6,6,0,0,1,.569-1.441l-.787-1.2,1.648-1.707,1.23.739Zm1.263,3.166a2.549,2.549,0,1,0,3.6-.066,2.549,2.549,0,0,0-3.6.066Z" transform="translate(-275.836 -61.936)" fill="#ebebeb"/>
      <path id="Path_38136" data-name="Path 38136" d="M320.866,103.377c-1.108.562-2.745,2.711-3.546,3.816l1.2,1.37a3.28,3.28,0,0,0,2.545-.883,3.982,3.982,0,0,0,1-2.811c2.361.041,3.14-.916,2.955-1.607A25.3,25.3,0,0,0,320.866,103.377Z" transform="translate(-272.324 -73.905)" fill="#ffbf9d"/>
      <path id="Path_38137" data-name="Path 38137" d="M324.647,107.71a1.249,1.249,0,0,1,.092.739,2.708,2.708,0,0,1-.805,1.614,3.949,3.949,0,0,1-1.555.916,2.01,2.01,0,0,1-.739.148,4.884,4.884,0,0,1,.683-.277,4.485,4.485,0,0,0,1.478-.924,2.841,2.841,0,0,0,.8-1.478C324.68,108,324.614,107.717,324.647,107.71Z" transform="translate(-275.048 -76.724)" fill="#ff9a6c"/>
      <path id="Path_38138" data-name="Path 38138" d="M285.31,101.014l-4.924,3.048s-1.725-3.454-3.454-7.99c-1.9-4.969-4.285-4.932-4.285-4.932l-1.156,11.082,1.666,4.252s2.508,4.6,3.772,5.146c4.433,1.932,12.013-6.28,12.013-6.28Z" transform="translate(-243.424 -66.275)" fill="#f8951d"/>
      <path id="Path_38139" data-name="Path 38139" d="M242.157,99.563c.454-2.878.561-7.573-1.02-10.1A6.531,6.531,0,0,0,238.9,87.7c-1.574-.565-5.172-1.426-5.308-1.57s-6.335,0-8.234.074c-.247,0-.163.03-.163.03l-4.562,1.877a1.847,1.847,0,0,0-1.068,1.914l1.352,10.99s.5,3.868.569,4.836a6.691,6.691,0,0,1-.558,2.431c-.491,1.223-1.81,5.028-2.686,7.577a1.847,1.847,0,0,0,1.729,2.453l20.443-.429c1.038,0,1.522-.03,1.286-1.042-.521-2.246-1.441-2.538-1.622-4.2a60.379,60.379,0,0,1,.513-8.563C240.643,103.937,241.574,103.279,242.157,99.563Z" transform="translate(-209.784 -63.08)" fill="#f8951d"/>
      <path id="Path_38140" data-name="Path 38140" d="M209.78,92.18s-4.326,1.736-5.068,8.275-2.386,12.493-2.686,15.615a33.2,33.2,0,0,1-.576,4.211l4.909,1.164,3.014-10.085,1.108-5.851.846-4.706Z" transform="translate(-199.257 -66.931)" fill="#f8951d"/>
      <path id="Path_38141" data-name="Path 38141" d="M274.87,103a2.605,2.605,0,0,1,.351.4,10.456,10.456,0,0,1,.809,1.208,11.585,11.585,0,0,1,.99,9.294,10.011,10.011,0,0,1-.536,1.352,2.294,2.294,0,0,1-.259.465,3.11,3.11,0,0,1,.192-.495,13.5,13.5,0,0,0,.473-1.359,12.1,12.1,0,0,0-.983-9.191,12.614,12.614,0,0,0-.739-1.23A2.919,2.919,0,0,1,274.87,103Z" transform="translate(-245.555 -73.754)" fill="#263238"/>
      <path id="Path_38142" data-name="Path 38142" d="M221.432,111.26c.052,0,.528,1.755,1.071,3.945s.935,3.982.883,3.993-.532-1.755-1.071-3.945S221.381,111.275,221.432,111.26Z" transform="translate(-211.855 -78.962)" fill="#263238"/>
      <path id="Path_38143" data-name="Path 38143" d="M247.28,163.75a3.775,3.775,0,0,1-.61.133c-.4.07-.972.163-1.681.259-1.422.192-3.4.388-5.589.462s-4.178,0-5.608-.085c-.717-.048-1.3-.1-1.7-.144a4.18,4.18,0,0,1-.617-.089,3.831,3.831,0,0,1,.624,0l1.7.085c1.43.063,3.41.1,5.593.03s4.156-.247,5.578-.406l1.688-.2A4.171,4.171,0,0,1,247.28,163.75Z" transform="translate(-218.194 -112.062)" fill="#263238"/>
      <path id="Path_38144" data-name="Path 38144" d="M249.649,36.12c1.71.041,3.177,2.586,2.922,4.015-.126.694-.44,1.478.122,2.006s1.729.469,2.261.994a2.179,2.179,0,0,1,.6,1.555c-.074.879.066,2.047.768,2.361l-3.476,1.241c-.369-.369-.5-.935-.857-1.3.41.369.805,1.736-1.053,1.888l-1.153-1.02c-3.162.809-6.483,1.817-9.006.443" transform="translate(-224.058 -31.58)" fill="#263238"/>
      <path id="Path_38145" data-name="Path 38145" d="M221.105,35.968a19.774,19.774,0,0,0,.761-1.943c.34-1.455-.34-3.114.4-4.433a4.171,4.171,0,0,1,2.63-1.662,6.146,6.146,0,0,0,2.774-1.2c.565-.536.9-1.286,1.478-1.825a4.714,4.714,0,0,1,3.088-1.057,6.69,6.69,0,0,1,3.325.606,3.668,3.668,0,0,1,2.013,2.615,11.011,11.011,0,0,0,.163,1.662,11.406,11.406,0,0,0,.9,1.6,2.929,2.929,0,0,1-.8,3.5L229.808,43.8c-1.655.591-3.458-1.515-4.706-2.756S220.525,37.63,221.105,35.968Z" transform="translate(-211.609 -23.829)" fill="#263238"/>
      <path id="Path_38146" data-name="Path 38146" d="M244.4,39.4c-.281-2.3-1.976-5.05-4.263-4.673l-7.085,2.235c-.694.111-1.068.669-1.308.565l1.636,16.487,5.3,3.447L241.7,53.84s-.225-2.261-.222-2.25,2.922-.661,3.325-4.547A42.511,42.511,0,0,0,244.4,39.4Z" transform="translate(-218.358 -30.681)" fill="#ffbf9d"/>
      <path id="Path_38147" data-name="Path 38147" d="M248.86,57.07a.5.5,0,0,1-.447.525.477.477,0,0,1-.536-.414.5.5,0,0,1,.447-.528.473.473,0,0,1,.536.417Z" transform="translate(-228.533 -44.524)" fill="#263238"/>
      <path id="Path_38148" data-name="Path 38148" d="M262.071,55.28a.5.5,0,0,1-.447.525.473.473,0,0,1-.536-.417.5.5,0,0,1,.447-.525.477.477,0,0,1,.536.417Z" transform="translate(-236.864 -43.396)" fill="#263238"/>
      <path id="Path_38149" data-name="Path 38149" d="M261.111,51.262c-.055.089-.506-.211-1.082-.137s-.953.458-1.027.369,0-.188.174-.369a1.341,1.341,0,0,1,.809-.41,1.311,1.311,0,0,1,.875.211C261.059,51.081,261.14,51.221,261.111,51.262Z" transform="translate(-235.531 -40.778)" fill="#263238"/>
      <path id="Path_38150" data-name="Path 38150" d="M246.591,52.444c-.07.081-.517-.255-1.134-.24s-1.064.369-1.134.277.037-.185.229-.34a1.511,1.511,0,0,1,.905-.321,1.478,1.478,0,0,1,.905.292C246.554,52.256,246.624,52.407,246.591,52.444Z" transform="translate(-226.279 -41.48)" fill="#263238"/>
      <path id="Path_38151" data-name="Path 38151" d="M255.262,55.894a3.517,3.517,0,0,1,.853-.207c.137-.022.262-.055.281-.151a.7.7,0,0,0-.115-.4l-.462-1.012a18.627,18.627,0,0,1-1.057-2.649,18.161,18.161,0,0,1,1.267,2.56l.447,1.016a.783.783,0,0,1,.1.528.332.332,0,0,1-.211.211.875.875,0,0,1-.229.048A3.561,3.561,0,0,1,255.262,55.894Z" transform="translate(-232.874 -41.265)" fill="#263238"/>
      <path id="Path_38152" data-name="Path 38152" d="M249.152,78.559a9.819,9.819,0,0,1-5.242-1.079,4.993,4.993,0,0,0,5.294,2.165Z" transform="translate(-226.032 -57.661)" fill="#ff9a6c"/>
      <path id="Path_38153" data-name="Path 38153" d="M253.043,66.383a.964.964,0,0,0-.879-.307.883.883,0,0,0-.584.369.561.561,0,0,0,0,.639.639.639,0,0,0,.706.133,2.006,2.006,0,0,0,.658-.443.565.565,0,0,0,.144-.166.185.185,0,0,0,0-.2" transform="translate(-230.806 -50.461)" fill="#f8951d"/>
      <path id="Path_38154" data-name="Path 38154" d="M251.818,64.67c.085,0,.122.565.639.946s1.127.284,1.138.369-.133.118-.392.14a1.437,1.437,0,0,1-.946-.27,1.245,1.245,0,0,1-.5-.8C251.722,64.814,251.778,64.666,251.818,64.67Z" transform="translate(-230.974 -49.583)" fill="#263238"/>
      <path id="Path_38155" data-name="Path 38155" d="M246.334,47.988c-.044.148-.576.111-1.2.222s-1.108.31-1.2.185c-.041-.059.041-.2.233-.369a2.087,2.087,0,0,1,.883-.369,1.991,1.991,0,0,1,.949.059C246.23,47.811,246.352,47.918,246.334,47.988Z" transform="translate(-226.04 -38.834)" fill="#263238"/>
      <path id="Path_38156" data-name="Path 38156" d="M260.778,46.133c-.1.129-.525.026-1.027.052s-.927.133-1.031,0c-.048-.059,0-.185.192-.31a1.577,1.577,0,0,1,.824-.247,1.54,1.54,0,0,1,.835.2C260.756,45.955,260.822,46.077,260.778,46.133Z" transform="translate(-235.36 -37.573)" fill="#263238"/>
      <path id="Path_38157" data-name="Path 38157" d="M211.181,41.807c.369-.672-.336-1.422.222-2.043.51-.565,1.847-.584,2.331-1.16a1.212,1.212,0,0,0,.4-.994c0-.528.259-2.748,3.5-3.2l.451,2.021a6.348,6.348,0,0,1,.617-.251,35.33,35.33,0,0,1,8.2-1.921,1.443,1.443,0,0,1-.532,1.758,6.406,6.406,0,0,1-1.847.779,2.5,2.5,0,0,0-1.552,1.182c-.27.61-.07,1.437-.325,2.1-.436,1.141-2.05,1.478-2.482,2.63-.325.868.163,1.806.273,2.726a3.391,3.391,0,0,1-1.057,2.844c-.613.558-1.651,1.574-1.721,1.37l-8.674-5.441C208.492,42.993,210.682,42.727,211.181,41.807Z" transform="translate(-203.964 -30.407)" fill="#263238"/>
      <path id="Path_38158" data-name="Path 38158" d="M233.45,49.04a2.641,2.641,0,0,0,.739-.255,3.724,3.724,0,0,0,1.577-1.444,3.79,3.79,0,0,0,.329-3.114c-.089-.288-.2-.573-.27-.875a2.05,2.05,0,0,1-.026-.924,1.171,1.171,0,0,1,.547-.739,5.733,5.733,0,0,1,.931-.4,2,2,0,0,0,.879-.565,1.747,1.747,0,0,0,.329-.96,6.439,6.439,0,0,1,.163-1.847l.041-.1.055-.092a1.131,1.131,0,0,1,.122-.174,1.478,1.478,0,0,1,.318-.266,2.981,2.981,0,0,1,.739-.31,5.423,5.423,0,0,0,1.4-.517,3.044,3.044,0,0,0,1.289-1.692,2.955,2.955,0,0,0,.107-.576,1.415,1.415,0,0,0,0-.2,4.14,4.14,0,0,1-.155.765,2.955,2.955,0,0,1-.41.813,2.992,2.992,0,0,1-.879.816,5.294,5.294,0,0,1-1.378.5,3.155,3.155,0,0,0-.776.318,1.566,1.566,0,0,0-.344.284.965.965,0,0,0-.133.188l-.063.1-.044.107a6.321,6.321,0,0,0-.177,1.877,1.6,1.6,0,0,1-.307.894,1.847,1.847,0,0,1-.824.525,5.7,5.7,0,0,0-.953.41,1.507,1.507,0,0,0-.369.347,1.249,1.249,0,0,0-.211.469,2.132,2.132,0,0,0,.03.979c.074.31.185.6.273.883a3.768,3.768,0,0,1-2.342,4.714A1.716,1.716,0,0,0,233.45,49.04Z" transform="translate(-219.436 -30.236)" fill="#263238"/>
      <path id="Path_38159" data-name="Path 38159" d="M263.76,36.347a5.791,5.791,0,0,1,.584-.1,2.8,2.8,0,0,1,1.563.31,2.734,2.734,0,0,1,1.378,1.847,5.063,5.063,0,0,1,.052,1.407c-.018.248-.048.5-.07.739a2.616,2.616,0,0,0,.03.794.927.927,0,0,0,.462.68,1.622,1.622,0,0,0,.768.14,2.774,2.774,0,0,1,.709.059,1.736,1.736,0,0,1,.6.3,1.681,1.681,0,0,1,.661,1.034,3.473,3.473,0,0,1,0,1.108,7.62,7.62,0,0,0-.089.931,2.394,2.394,0,0,0,.081.7,1.433,1.433,0,0,0,.188.41c.026.041.055.07.07.092s.03.03.03.026a1.891,1.891,0,0,1-.24-.539,2.529,2.529,0,0,1-.063-.691,9.043,9.043,0,0,1,.111-.92,3.628,3.628,0,0,0,.022-1.138,1.792,1.792,0,0,0-.687-1.108,1.847,1.847,0,0,0-.643-.321,2.767,2.767,0,0,0-.739-.066,1.574,1.574,0,0,1-.709-.126.82.82,0,0,1-.4-.58,5.748,5.748,0,0,1,.041-1.511,5.057,5.057,0,0,0-.063-1.444,2.807,2.807,0,0,0-1.463-1.9,2.712,2.712,0,0,0-1.607-.281,2.387,2.387,0,0,0-.436.092.5.5,0,0,0-.144.055Z" transform="translate(-238.549 -31.615)" fill="#263238"/>
      <path id="Path_38160" data-name="Path 38160" d="M219.811,44.075l-.022-.059a1.309,1.309,0,0,1-.059-.174,1.548,1.548,0,0,1-.026-.7,1.729,1.729,0,0,1,.525-.964,1.455,1.455,0,0,1,.6-.332c.236-.066.5-.089.772-.177a1.075,1.075,0,0,0,.369-.222,1.023,1.023,0,0,0,.251-.369,2.265,2.265,0,0,0,.111-.938,5.032,5.032,0,0,1,0-1,1.319,1.319,0,0,1,.163-.484,1.215,1.215,0,0,1,.369-.369,3.265,3.265,0,0,1,1.042-.369,3.432,3.432,0,0,0,1.108-.41,1.393,1.393,0,0,0,.421-.447,1.947,1.947,0,0,0,.2-.587c.078-.41.078-.831.155-1.241a2.409,2.409,0,0,1,1.489-1.792,4.148,4.148,0,0,1,1.141-.188,2.634,2.634,0,0,0,.565-.107,1.141,1.141,0,0,0,.491-.288,2.538,2.538,0,0,0,.484-.96,2.331,2.331,0,0,1,.5-.85,2.508,2.508,0,0,1,1.559-.8,2.283,2.283,0,0,1,1.419.307,2.637,2.637,0,0,1,.816.757,2.357,2.357,0,0,1,.31.632c.03.078.037.14.052.177l.018.063a1.969,1.969,0,0,0-.055-.244,2.28,2.28,0,0,0-.3-.646,2.634,2.634,0,0,0-.816-.776,2.335,2.335,0,0,0-1.448-.325,2.586,2.586,0,0,0-1.6.809,2.464,2.464,0,0,0-.517.872,2.4,2.4,0,0,1-.469.935,1.585,1.585,0,0,1-1.012.369,4.259,4.259,0,0,0-1.16.192,2.468,2.468,0,0,0-1.548,1.847c-.081.421-.081.842-.159,1.241a1.847,1.847,0,0,1-.192.565,1.278,1.278,0,0,1-.414.41c-.661.429-1.5.369-2.143.783a1.319,1.319,0,0,0-.373.4,1.363,1.363,0,0,0-.17.51,5.118,5.118,0,0,0,0,1.012,2.216,2.216,0,0,1-.1.916.994.994,0,0,1-.236.369.971.971,0,0,1-.351.207c-.259.092-.525.118-.768.188a1.478,1.478,0,0,0-.613.347,1.721,1.721,0,0,0-.525.99,1.54,1.54,0,0,0,.041.709,1.782,1.782,0,0,0,.066.174Z" transform="translate(-210.725 -27.832)" fill="#455a64"/>
    </g>
  </g>
</svg>
