<svg xmlns="http://www.w3.org/2000/svg" width="250" height="159.526" viewBox="0 0 250 159.526"><g transform="translate(-60.31 -83.85)"><g transform="translate(117.231 127.166)"><path d="M367.039,221.936a17.771,17.771,0,0,1,4.369-1.895l.9-4.31,7.285-.131,1.049,4.278a17.966,17.966,0,0,1,4.421,1.74l3.682-2.411,5.243,5.061-2.28,3.762A17.77,17.77,0,0,1,393.6,232.4l4.31.9.127,7.285-4.278,1.049a17.8,17.8,0,0,1-1.736,4.421l2.411,3.682-5.061,5.243-3.782-2.276a17.893,17.893,0,0,1-4.369,1.895l-.9,4.31-7.285.127-1.049-4.278a17.736,17.736,0,0,1-4.421-1.736l-3.67,2.391-5.243-5.061,2.284-3.766a17.744,17.744,0,0,1-1.895-4.369l-4.31-.9-.127-7.285,4.278-1.049a17.9,17.9,0,0,1,1.74-4.421l-2.411-3.666,5.061-5.243Z" transform="translate(-294.63 -206.582)" fill="#f8951d"/><rect width="4.004" height="12.5" transform="translate(73.104 23.806)" fill="#fff"/><rect width="4.004" height="9.644" transform="translate(79.082 26.662)" fill="#fff"/><rect width="4.004" height="5.728" transform="translate(84.611 30.579)" fill="#fff"/><path d="M216.023,219.712a17.874,17.874,0,0,1,4.369-1.891l.9-4.314,7.285-.127,1.049,4.278a17.748,17.748,0,0,1,4.421,1.74l3.682-2.415,5.243,5.061-2.284,3.766a17.771,17.771,0,0,1,1.895,4.369l4.31.9.127,7.285-4.274,1.049a17.966,17.966,0,0,1-1.756,4.405L243.4,247.5l-5.076,5.243-3.762-2.28a17.91,17.91,0,0,1-4.369,1.891l-.9,4.314-7.285.127-1.049-4.278a17.965,17.965,0,0,1-4.421-1.74l-3.638,2.415-5.243-5.061,2.284-3.766a17.771,17.771,0,0,1-1.895-4.369l-4.31-.9-.127-7.285,4.278-1.049a17.8,17.8,0,0,1,1.72-4.425l-2.411-3.682,5.061-5.239,3.766,2.28Z" transform="translate(-203.61 -205.244)" fill="#f8951d"/><path d="M242.863,261.18a12.461,12.461,0,0,1-11.869-8.838.2.2,0,0,1,.135-.246.2.2,0,0,1,.246.131,11.984,11.984,0,1,0-.147-6.32.2.2,0,0,1-.4-.1,12.381,12.381,0,1,1,12.02,15.368Z" transform="translate(-220.015 -219.13)" fill="#fff"/><path d="M248.391,263.126a8.628,8.628,0,0,1-8.286-6.284.195.195,0,0,1,.135-.242.2.2,0,0,1,.246.135,8.2,8.2,0,1,0,0-4.425.206.206,0,1,1-.4-.107,8.6,8.6,0,1,1,8.3,10.923Z" transform="translate(-225.595 -224.857)" fill="#fff"/><path d="M259,265.773a2.193,2.193,0,0,1-1.231-.373.207.207,0,0,1-.052-.278.2.2,0,0,1,.274-.052A1.8,1.8,0,1,0,259,261.777a1.827,1.827,0,0,0-.854.215.195.195,0,0,1-.266-.079.2.2,0,0,1,.079-.27A2.2,2.2,0,1,1,259,265.773Z" transform="translate(-236.207 -234.178)" fill="#fff"/><path d="M243.414,264.351l-3.21-1.561.06,1.39-8.524.2.091.624,8.54-.139.024,1.414Z" transform="translate(-220.566 -235.028)" fill="#fff"/><path d="M231.48,265.891l-.044-.087a1.382,1.382,0,0,0-1.192-.747l-2.824-.107,1.223,1.1-1.084,1.339,2.7-.056a1.382,1.382,0,0,0,1.3-1.009h0Z" transform="translate(-217.962 -236.33)" fill="#fff"/><path d="M253.551,264.9a5.219,5.219,0,0,1-4.985-3.742.191.191,0,0,1,.135-.242.2.2,0,0,1,.246.135,4.8,4.8,0,1,0,0-2.729.2.2,0,1,1-.381-.115,5.192,5.192,0,1,1,4.973,6.693Z" transform="translate(-230.703 -230.042)" fill="#fff"/><path d="M516.441,218.872a17.911,17.911,0,0,1,4.369-1.891l.9-4.314,7.285-.127,1.049,4.278a17.656,17.656,0,0,1,4.421,1.74l3.682-2.415,5.243,5.061-2.284,3.766A17.771,17.771,0,0,1,543,229.338l4.3.886.127,7.285-4.278,1.033a17.772,17.772,0,0,1-1.736,4.417l2.411,3.682-5.061,5.243-3.778-2.268a17.834,17.834,0,0,1-4.369,1.895l-.9,4.314-7.285.127-1.049-4.278a17.9,17.9,0,0,1-4.421-1.74l-3.682,2.415-5.215-5.068,2.284-3.766a17.772,17.772,0,0,1-1.895-4.369l-4.31-.9L504,230.995l4.274-1.049a17.966,17.966,0,0,1,1.74-4.421l-2.411-3.682,5.061-5.239,3.762,2.28Z" transform="translate(-384.68 -204.738)" fill="#f8951d"/><path d="M531.82,256.355l2.792-2.792,5.382,4.786,10.57-10.169,2.594,2.792L539.6,263.735Z" transform="translate(-401.45 -226.221)" fill="#fff"/><path d="M350.17,212.468a.505.505,0,0,1,.048-.127l.159-.357c.072-.163.159-.354.262-.58a6.44,6.44,0,0,1,.4-.794l.524-.953c.207-.346.453-.7.7-1.092s.564-.794.878-1.192a16.679,16.679,0,0,1,1.072-1.283c.373-.453.834-.866,1.279-1.323.222-.234.481-.433.727-.655s.5-.445.771-.663l.838-.636c.143-.107.282-.218.429-.322l.457-.3c.31-.2.616-.4.937-.612l1-.568c.33-.2.691-.357,1.049-.532a11.421,11.421,0,0,1,1.1-.5l1.14-.461,1.192-.4a21.724,21.724,0,0,1,10.328-.616l1.231.242,1.192.322c.4.1.771.242,1.148.365s.751.246,1.1.4l1.057.445c.346.155.675.334,1,.493l.489.246c.159.087.314.183.465.27l.91.532c.29.183.568.4.842.568a7.15,7.15,0,0,1,.794.564c.5.4,1,.755,1.426,1.164s.862.755,1.219,1.144.727.727,1.013,1.092.584.687.826,1l.636.886a7.1,7.1,0,0,1,.481.727l.33.544c.079.139.147.254.2.338a.429.429,0,0,1,.06.119,1.075,1.075,0,0,1-.079-.107l-.214-.33-.346-.532a8.116,8.116,0,0,0-.493-.715l-.651-.87c-.246-.31-.536-.628-.834-.981s-.655-.7-1.021-1.076-.794-.743-1.219-1.132-.93-.747-1.426-1.14c-.246-.2-.524-.369-.794-.56s-.552-.377-.842-.556-.6-.35-.906-.524c-.151-.087-.3-.183-.461-.266l-.489-.242c-.33-.159-.655-.33-1-.485L380.057,200c-.35-.159-.727-.266-1.1-.4a10.589,10.589,0,0,0-1.14-.361l-1.192-.318-1.223-.238a23.744,23.744,0,0,0-5.164-.31,23.39,23.39,0,0,0-5.045.949l-1.192.4-1.136.453c-.377.135-.731.326-1.088.493a11.069,11.069,0,0,0-1.041.524l-.993.56c-.322.195-.628.4-.933.6l-.457.3c-.147.1-.286.211-.429.318l-.834.628c-.266.214-.516.437-.771.651a8.811,8.811,0,0,0-.723.647c-.449.453-.91.858-1.283,1.307s-.767.838-1.076,1.263-.64.794-.886,1.192-.5.735-.711,1.072l-.544.941a8.139,8.139,0,0,0-.4.767l-.282.572c-.071.147-.131.262-.175.35A.6.6,0,0,1,350.17,212.468Z" transform="translate(-291.954 -196.062)" fill="#263238"/><path d="M370.87,196.168a3.135,3.135,0,0,1,.453-.314c.3-.191.743-.445,1.3-.731a20.707,20.707,0,0,1,9.533-2.224,13.387,13.387,0,0,1,1.494.079,2.669,2.669,0,0,1,.544.083,3.268,3.268,0,0,1-.548,0c-.354-.02-.862-.028-1.49,0a22.765,22.765,0,0,0-9.474,2.209c-.564.266-1.017.5-1.327.671A2.866,2.866,0,0,1,370.87,196.168Z" transform="translate(-304.432 -192.898)" fill="#263238"/><path d="M547.9,302.81a.668.668,0,0,1-.044.127c-.04.087-.1.207-.159.358l-.262.58a7.463,7.463,0,0,1-.4.794c-.159.286-.334.608-.528.953s-.449.7-.7,1.092-.56.794-.878,1.192-.687.838-1.072,1.283-.83.862-1.279,1.323c-.219.23-.477.433-.723.655s-.5.445-.771.663-.556.421-.838.636c-.143.107-.286.218-.433.322l-.457.3c-.306.2-.616.4-.937.612l-1,.568c-.334.2-.7.358-1.049.532a10.988,10.988,0,0,1-1.1.5l-1.144.457-1.192.4a21.724,21.724,0,0,1-10.328.616l-1.231-.246-1.192-.318c-.4-.1-.771-.242-1.148-.369s-.751-.242-1.1-.4L516.873,315c-.342-.159-.671-.334-1-.5l-.489-.242c-.163-.087-.314-.183-.469-.27l-.906-.532c-.294-.187-.568-.4-.846-.568a6.376,6.376,0,0,1-.794-.568c-.5-.4-1-.751-1.426-1.16s-.862-.755-1.216-1.148-.727-.723-1.013-1.092-.584-.683-.83-1-.441-.62-.636-.886a7,7,0,0,1-.477-.727c-.131-.211-.238-.4-.33-.544s-.147-.254-.2-.338l-.064-.119s.032.036.083.107.123.191.215.326l.346.536a7.328,7.328,0,0,0,.493.711l.647.874c.246.31.536.628.834.981s.659.7,1.021,1.076.794.743,1.219,1.128.93.747,1.426,1.144c.246.2.524.369.794.56s.548.373.842.556l.9.524c.155.087.306.183.465.266l.485.242c.33.159.659.33,1,.485l1.053.437c.354.159.727.27,1.1.4a11.908,11.908,0,0,0,1.14.361l1.192.314,1.219.238a21.616,21.616,0,0,0,10.252-.608l1.192-.4,1.132-.453a10.98,10.98,0,0,0,1.088-.493,10.716,10.716,0,0,0,1.045-.528l.993-.56c.322-.191.624-.4.933-.6l.453-.3c.147-.1.286-.211.429-.318l.838-.628c.266-.214.516-.441.767-.651s.5-.421.727-.647c.445-.453.906-.858,1.279-1.307s.771-.838,1.076-1.263.643-.794.886-1.192.508-.739.715-1.076.4-.655.54-.941a7.368,7.368,0,0,0,.4-.767l.278-.568.179-.354Z" transform="translate(-385.994 -259.151)" fill="#263238"/><path d="M570.693,338.92a2.857,2.857,0,0,1-.453.314,14.876,14.876,0,0,1-1.3.731,20.707,20.707,0,0,1-9.533,2.224,14.305,14.305,0,0,1-1.494-.083,2.384,2.384,0,0,1-.54-.079,3.223,3.223,0,0,1,.548,0c.35.02.858.024,1.486,0a22.729,22.729,0,0,0,9.474-2.209c.568-.27,1.021-.5,1.327-.671A2.863,2.863,0,0,1,570.693,338.92Z" transform="translate(-416.851 -280.918)" fill="#263238"/><path d="M248.7,300.59a.52.52,0,0,1-.048.123c-.04.091-.091.211-.159.357l-.262.584a7.078,7.078,0,0,1-.4.794l-.524.953c-.207.342-.453.7-.7,1.088s-.564.794-.878,1.192-.687.838-1.072,1.279-.834.866-1.279,1.323c-.222.234-.481.437-.727.659s-.5.445-.771.659l-.838.639c-.143.1-.282.218-.433.322l-.453.3c-.31.2-.616.4-.937.608l-1,.568c-.33.2-.691.357-1.049.536a10.512,10.512,0,0,1-1.1.5l-1.14.461-1.192.4a21.6,21.6,0,0,1-10.328.616l-1.231-.242-1.192-.322c-.4-.091-.771-.238-1.148-.365s-.751-.246-1.1-.4l-1.057-.449c-.346-.155-.675-.33-1-.493l-.489-.246c-.159-.083-.314-.179-.465-.27l-.91-.532c-.29-.183-.568-.4-.842-.564a6.266,6.266,0,0,1-.794-.568c-.5-.4-1-.755-1.43-1.16s-.858-.755-1.215-1.148-.727-.723-1.013-1.092-.584-.683-.826-1l-.636-.882a7.55,7.55,0,0,1-.481-.727l-.33-.548-.2-.338a.429.429,0,0,1-.06-.119.931.931,0,0,1,.079.111l.215.326.346.532a8.119,8.119,0,0,0,.493.715l.647.87c.25.31.54.632.838.985s.655.7,1.021,1.076.794.739,1.219,1.128.929.747,1.426,1.144c.246.2.524.369.794.556s.552.377.842.56l.9.524c.155.087.306.179.465.262l.489.242c.326.159.655.334,1,.489l1.053.437c.35.159.727.27,1.1.4a11.531,11.531,0,0,0,1.14.357l1.192.318,1.223.238a21.6,21.6,0,0,0,10.248-.608l1.192-.4,1.136-.453c.4-.139.731-.33,1.088-.493a10.215,10.215,0,0,0,1.041-.528l.993-.56c.322-.195.628-.4.933-.6l.457-.3c.147-.1.286-.214.429-.318l.834-.628c.266-.214.516-.441.771-.655a8.8,8.8,0,0,0,.723-.647c.449-.453.91-.854,1.283-1.3s.767-.842,1.076-1.267.64-.794.886-1.192.5-.739.711-1.076.4-.659.544-.941a7.688,7.688,0,0,0,.4-.767l.282-.572.175-.35A.15.15,0,0,1,248.7,300.59Z" transform="translate(-205.647 -257.812)" fill="#263238"/><path d="M271.463,336.7a2.851,2.851,0,0,1-.449.31c-.3.195-.743.445-1.3.735a20.707,20.707,0,0,1-9.533,2.224,12.331,12.331,0,0,1-1.494-.083,3.287,3.287,0,0,1-.544-.079,2.453,2.453,0,0,1,.548,0c.354,0,.862.024,1.49,0a22.892,22.892,0,0,0,9.466-2.193c.568-.27,1.021-.5,1.331-.671A2.575,2.575,0,0,1,271.463,336.7Z" transform="translate(-236.48 -279.579)" fill="#263238"/></g><g transform="translate(157.91 102.094)"><path d="M393.147,158.123H313.036a6.776,6.776,0,0,1-6.776-6.776h0a6.776,6.776,0,0,1,6.776-6.777h80.111a6.776,6.776,0,0,1,6.776,6.777h0A6.776,6.776,0,0,1,393.147,158.123Z" transform="translate(-306.165 -138.695)" fill="#fafafa"/><path d="M393,157.954l.52-.036a7.15,7.15,0,0,0,1.5-.294,7.006,7.006,0,0,0,2.181-1.192,6.864,6.864,0,0,0,2.018-2.685,7.31,7.31,0,0,0,.481-1.95,7.026,7.026,0,0,0-.167-2.209,6.689,6.689,0,0,0-5.406-5.017,21.155,21.155,0,0,0-2.995-.1h-6.542L312.9,144.5a6.677,6.677,0,0,0-5.072,11.011,6.6,6.6,0,0,0,4.23,2.28c.794.091,1.633.048,2.447.06h16.572l32.234.024,21.728.032h5.907l-5.887.087-21.728.032-32.234.02H314.5a22.422,22.422,0,0,1-2.471-.06,6.877,6.877,0,0,1,.866-13.7l71.694.032h6.542a20.942,20.942,0,0,1,3.015.107,6.7,6.7,0,0,1,2.634,1.041,6.788,6.788,0,0,1,2.856,4.1,7.1,7.1,0,0,1,.155,2.24,7.3,7.3,0,0,1-.5,1.986,6.824,6.824,0,0,1-4.258,3.885,6.752,6.752,0,0,1-1.509.274Z" transform="translate(-306.02 -138.526)" fill="#263238"/><path d="M360.322,158.968H315.584a5.164,5.164,0,0,1-5.164-5.164h0a5.164,5.164,0,0,1,5.164-5.164h44.738a5.164,5.164,0,0,1,5.164,5.164h0a5.164,5.164,0,0,1-5.164,5.164Z" transform="translate(-308.672 -141.148)" fill="#f8951d"/><g transform="translate(8.405 7.488)" opacity="0.4"><path d="M327.18,158.962,333.6,148.63h6.88l-6.288,10.332Z" transform="translate(-327.18 -148.63)" fill="#fff"/></g><g transform="translate(22.196 7.488)" opacity="0.4"><path d="M361.9,158.962l6.423-10.332H375.2l-6.288,10.332Z" transform="translate(-361.9 -148.63)" fill="#fff"/></g><g transform="translate(37.005 7.488)" opacity="0.4"><path d="M399.18,158.962,405.6,148.63h6.88l-6.292,10.332Z" transform="translate(-399.18 -148.63)" fill="#fff"/></g><path d="M393.051,131.745c0,.794-.588,1.271-1.529,1.271h-.707v.973H390V130.47h1.521C392.463,130.47,393.051,130.959,393.051,131.745Zm-.826,0c0-.4-.25-.612-.747-.612h-.663v1.219h.663C391.986,132.353,392.224,132.13,392.224,131.745Z" transform="translate(-356.642 -130.196)" fill="#263238"/><path d="M401.37,133.989l-.675-.981h-.751v.981h-.814V130.47h1.537c.941,0,1.529.489,1.529,1.275a1.144,1.144,0,0,1-.723,1.112l.794,1.132Zm-.763-2.856h-.663v1.227h.663c.5,0,.747-.23.747-.616S401.1,131.133,400.608,131.133Z" transform="translate(-362.145 -130.196)" fill="#263238"/><path d="M407.865,131.814a1.927,1.927,0,1,1,1.923,1.819,1.819,1.819,0,0,1-1.923-1.819Zm3.023,0a1.1,1.1,0,1,0-1.1,1.124,1.073,1.073,0,0,0,1.1-1.124Z" transform="translate(-367.409 -129.78)" fill="#263238"/><path d="M418.54,132.14a1.934,1.934,0,0,1,3.357-1.192l-.52.481a1.14,1.14,0,0,0-.886-.4,1.126,1.126,0,1,0,.886,1.855l.524.445a1.934,1.934,0,0,1-3.357-1.192Z" transform="translate(-373.845 -130.107)" fill="#263238"/><path d="M431.095,133.334v.655H428.37V130.47h2.657v.655H429.18v.747h1.633v.632H429.18v.814Z" transform="translate(-379.771 -130.196)" fill="#263238"/><path d="M436.16,133.518l.278-.612a2.074,2.074,0,0,0,1.16.365c.481,0,.679-.159.679-.4,0-.655-2.046-.2-2.046-1.509,0-.6.481-1.1,1.482-1.1a2.348,2.348,0,0,1,1.219.31l-.25.62a1.986,1.986,0,0,0-.973-.278c-.485,0-.671.183-.671.4,0,.647,2.046.2,2.046,1.49,0,.588-.485,1.092-1.49,1.092A2.5,2.5,0,0,1,436.16,133.518Z" transform="translate(-384.466 -130.074)" fill="#263238"/><path d="M444.23,133.518l.274-.612a2.085,2.085,0,0,0,1.164.365c.481,0,.675-.159.675-.4,0-.655-2.042-.2-2.042-1.509,0-.6.481-1.1,1.482-1.1a2.348,2.348,0,0,1,1.219.31l-.25.62a1.986,1.986,0,0,0-.977-.278c-.481,0-.667.183-.667.4,0,.647,2.046.2,2.046,1.49,0,.588-.489,1.092-1.494,1.092a2.491,2.491,0,0,1-1.43-.381Z" transform="translate(-389.331 -130.074)" fill="#263238"/></g><g transform="translate(60.31 237.851)"><path d="M310.31,471.653c0,.056-55.968.1-124.992.1s-125.008-.028-125.008-.1,55.956-.1,125.008-.1S310.31,471.6,310.31,471.653Z" transform="translate(-60.31 -471.55)" fill="#263238"/></g><g transform="translate(63.178 83.85)"><path d="M75.36,434.622l3.889-8.342,9.076,5.219-4.707,7.635s-3.674.651-5.307-.354S75.36,434.622,75.36,434.622Z" transform="translate(-72.25 -290.261)" fill="#ffbe9d"/><path d="M78.454,452.567l.465-.775a14.47,14.47,0,0,1-8.258-4.512L67.55,453l17.18,9.446C85.524,460.75,78.454,452.567,78.454,452.567Z" transform="translate(-67.542 -302.92)" fill="#f8951d"/><path d="M67.53,459.558l.759-1.4,16.222,9.6s.58.751.2,1.243Z" transform="translate(-67.53 -309.478)" fill="#263238"/><path d="M92.636,460.147c-.052.083-.493-.111-1.053-.068s-.973.274-1.033.2.334-.493,1.013-.532S92.712,460.079,92.636,460.147Z" transform="translate(-81.403 -310.432)" fill="#263238"/><path d="M96.551,464.844c-.024.091-.469.036-.945.23s-.767.512-.854.481.127-.552.731-.794S96.595,464.761,96.551,464.844Z" transform="translate(-83.927 -313.394)" fill="#263238"/><path d="M98.859,470.292c-.087-.024.028-.5.5-.846s.961-.31.957-.218-.4.2-.759.485S98.947,470.32,98.859,470.292Z" transform="translate(-86.398 -316.112)" fill="#263238"/><path d="M76.321,456.609a.516.516,0,1,1,.054-.4.516.516,0,0,1-.054.4Z" transform="translate(-72.249 -308.074)" fill="#263238"/><path d="M178.47,441.425l4.5-9.505,9.176.143-4.7,9.255s-3.035,2.352-5,2.216S178.47,441.425,178.47,441.425Z" transform="translate(-134.403 -293.661)" fill="#ffbe9d"/><path d="M186.19,456.276l.052-.926a13.438,13.438,0,0,1-9.18-.151h0a3.916,3.916,0,0,0-.528,1.9l-.064,4.771,20.159.377C196.541,460.34,186.19,456.276,186.19,456.276Z" transform="translate(-133.197 -307.694)" fill="#f8951d"/><path d="M176.47,469.517l.02-1.637,19.36.977s.89.4.794,1.037Z" transform="translate(-133.197 -315.337)" fill="#263238"/><path d="M198.949,457.524c0,.1-.5.135-.989.441s-.755.715-.846.675.068-.608.667-.969S198.973,457.432,198.949,457.524Z" transform="translate(-145.626 -309.036)" fill="#263238"/><path d="M204.984,459.93c0,.1-.4.254-.751.667s-.449.846-.544.842-.151-.564.286-1.069S204.984,459.827,204.984,459.93Z" transform="translate(-149.564 -310.517)" fill="#263238"/><path d="M209.835,463.843c-.087.02-.214-.477.048-1.009s.707-.739.747-.659-.25.365-.461.794S209.914,463.835,209.835,463.843Z" transform="translate(-153.243 -311.888)" fill="#263238"/><path d="M182.325,462.758a.532.532,0,1,1-.512-.548A.532.532,0,0,1,182.325,462.758Z" transform="translate(-136.085 -311.919)" fill="#263238"/><path d="M284.731,105.359a4.23,4.23,0,0,0,3.333-3.074.56.56,0,0,1,.671-.568,3.134,3.134,0,0,0,2.244-1.025,2.439,2.439,0,0,0,.477-2.383,2.427,2.427,0,0,0,2.5-2.411,3.263,3.263,0,0,0-2.224-2.92,1.863,1.863,0,0,0,.727-2.1,3.647,3.647,0,0,0-1.434-1.855,2.845,2.845,0,0,0-2.975-.564,1.624,1.624,0,0,0-.647-1.724,3.575,3.575,0,0,0-4.767.3,3.261,3.261,0,0,0-1.319-1.482,1.533,1.533,0,0,0-1.847.274,2.011,2.011,0,0,0-1.088-1.557,2.383,2.383,0,0,0-1.347-.421,1.192,1.192,0,0,0-1.088.794,1.875,1.875,0,0,0-2.939,2.3,2.383,2.383,0,0,0-1.958,3.575c-.373-.147-.794.25-.794.651a1.283,1.283,0,0,0,.624.981q-1.132,1.76-2.272,3.511a8.568,8.568,0,0,0-1.215,2.383,2.884,2.884,0,0,0,.417,2.558" transform="translate(-187.922 -83.85)" fill="#263238"/><path d="M276.874,108.913c1.684-2.927.528-7.734-2.451-9.287L264.243,95.36l-.969,1.529-12.643,19.7,6.975,10.407,5.271-6.443s3.972,1.776,7.805-2.419A59.31,59.31,0,0,0,276.874,108.913Z" transform="translate(-177.9 -90.788)" fill="#ffbe9d"/><path d="M306.761,134.3a.715.715,0,0,1-.977.222.687.687,0,0,1-.258-.949.719.719,0,0,1,.977-.226.691.691,0,0,1,.258.953Z" transform="translate(-210.933 -113.62)" fill="#263238"/><path d="M307.758,130.465c-.127.028-.358-.608-1-1.033s-1.331-.4-1.347-.54c0-.06.155-.151.461-.163a1.986,1.986,0,0,1,1.144.334,1.891,1.891,0,0,1,.731.922C307.841,130.267,307.817,130.453,307.758,130.465Z" transform="translate(-210.92 -110.902)" fill="#263238"/><path d="M291.621,125.47a.719.719,0,0,1-.977.226.691.691,0,0,1-.258-.953.719.719,0,0,1,.977-.222.687.687,0,0,1,.258.949Z" transform="translate(-201.806 -108.302)" fill="#263238"/><path d="M291.438,120.585c-.127.032-.358-.608-1-1.033s-1.327-.4-1.347-.54c0-.056.159-.147.465-.163a1.93,1.93,0,0,1,1.14.338,1.859,1.859,0,0,1,.743.914C291.529,120.39,291.5,120.573,291.438,120.585Z" transform="translate(-201.083 -104.947)" fill="#263238"/><path d="M293.09,130.329a5.163,5.163,0,0,1,1.168.5c.175.091.354.163.457.068a1.025,1.025,0,0,0,.215-.56c.107-.5.222-1.029.346-1.589a26.251,26.251,0,0,1,1.084-4.012,26.166,26.166,0,0,1-.763,4.087c-.127.552-.25,1.076-.369,1.589a1.148,1.148,0,0,1-.346.7.492.492,0,0,1-.429.064,1.589,1.589,0,0,1-.306-.147,4.743,4.743,0,0,1-1.057-.707Z" transform="translate(-203.494 -108.498)" fill="#263238"/><path d="M273.608,149.985a14.189,14.189,0,0,1-5.136-5.815s-.735,4.282,4.218,6.935Z" transform="translate(-188.631 -120.21)" fill="#eb996e"/><path d="M286.308,140.349a1.382,1.382,0,0,0-.755-1.12,1.275,1.275,0,0,0-.993-.091.818.818,0,0,0-.56.735.933.933,0,0,0,.7.775,2.931,2.931,0,0,0,1.148.052.818.818,0,0,0,.31-.068.258.258,0,0,0,.159-.242" transform="translate(-198.015 -117.14)" fill="#eb996e"/><path d="M286.663,136.771c.107.064-.357.763-.087,1.66s1.061,1.311,1,1.41-.254.028-.576-.175a2.058,2.058,0,0,1-.862-1.136,1.823,1.823,0,0,1,.119-1.362C286.433,136.858,286.615,136.735,286.663,136.771Z" transform="translate(-199.256 -115.746)" fill="#263238"/><path d="M294.57,114.945c-.183.135-.767-.373-1.589-.794s-1.565-.608-1.561-.834c0-.1.222-.2.58-.207a3.047,3.047,0,0,1,2.383,1.231C294.6,114.655,294.653,114.882,294.57,114.945Z" transform="translate(-202.487 -101.487)" fill="#263238"/><path d="M310.6,125.348c-.211.072-.552-.4-1.08-.739s-1.049-.552-1.053-.794c0-.1.171-.207.461-.215a1.9,1.9,0,0,1,1.72,1.219C310.738,125.113,310.7,125.308,310.6,125.348Z" transform="translate(-212.765 -107.811)" fill="#263238"/><path d="M292.323,97.156a2.717,2.717,0,0,1-5.009.679,1.053,1.053,0,0,1-.794,1.152,1.986,1.986,0,0,1-1.474-.286,3.774,3.774,0,0,1-1.8-2.574,2.746,2.746,0,0,1-4.437-.369,2.614,2.614,0,0,1-1.128,2.717,2.514,2.514,0,0,1-3.7-3.007,2.836,2.836,0,0,1,1.482-4.25,1.684,1.684,0,0,1-.167-1.68,3.384,3.384,0,0,1,1.112-1.358,5.414,5.414,0,0,1,4.024-1.223,3.611,3.611,0,0,1,3.039,2.7.794.794,0,0,0,.179.445.691.691,0,0,0,.64.064,5.494,5.494,0,0,1,2.923-.175,2.661,2.661,0,0,1,1.748,2.8,3.11,3.11,0,0,1,3.642.6,2.376,2.376,0,0,1-.473,3.464" transform="translate(-191.696 -85.705)" fill="#263238"/><path d="M272.5,109.9a12.06,12.06,0,0,1-2.383,2.431,1.449,1.449,0,0,1-1.327.4,1.033,1.033,0,0,1-.56-1.088,2.7,2.7,0,0,1,.54-1.192,35.631,35.631,0,0,1,2.983-3.627" transform="translate(-188.501 -97.696)" fill="#263238"/><path d="M269.192,113.1c-.04-.064-1.807-2.383-3.428,0a2.145,2.145,0,0,0,1.128,3.436C266.944,116.473,269.192,113.1,269.192,113.1Z" transform="translate(-186.71 -100.835)" fill="#ffbe9d"/><path d="M267.977,116.431h-.151a.493.493,0,0,1-.31-.2,1.239,1.239,0,0,1,.159-1.239,1.613,1.613,0,0,1,.516-.508.58.58,0,0,1,.528-.1.25.25,0,0,1,.163.278c0,.087-.06.123-.052.135s.079,0,.127-.115a.334.334,0,0,0,0-.211.361.361,0,0,0-.187-.214.683.683,0,0,0-.679.072,1.685,1.685,0,0,0-.592.56,1.3,1.3,0,0,0-.1,1.434.548.548,0,0,0,.417.195C267.929,116.5,267.985,116.443,267.977,116.431Z" transform="translate(-187.902 -102.139)" fill="#eb996e"/><path d="M298.5,102.841a.605.605,0,0,0,.06.068c.04.04.111.1.2.179a3.866,3.866,0,0,0,.846.556,2.845,2.845,0,0,0,.687.234,2.046,2.046,0,0,0,1.744-.441,1.545,1.545,0,0,0,.528-.957h-.119a3.762,3.762,0,0,0,1.517,1.839,3.65,3.65,0,0,0,1.223.493,2.383,2.383,0,0,0,.7.044,1.354,1.354,0,0,0,.671-.266,1.91,1.91,0,0,0,.516-.655,5.369,5.369,0,0,0,.3-.743,2.685,2.685,0,0,0,.155-.771.914.914,0,0,0-.274-.719l-.1.1a2.276,2.276,0,0,0,1.259.763,2.467,2.467,0,0,0,1.343-.068,2.041,2.041,0,0,0,.965-.707,2.383,2.383,0,0,0,.421-.937,2.324,2.324,0,0,0-.139-1.426,1.637,1.637,0,0,0-.274-.441,2.55,2.55,0,0,1,.234.457,2.383,2.383,0,0,1,.1,1.394,2.335,2.335,0,0,1-.4.894,1.986,1.986,0,0,1-.926.655,2.34,2.34,0,0,1-1.275.052,2.121,2.121,0,0,1-1.192-.723l-.1.1a.8.8,0,0,1,.222.616,2.519,2.519,0,0,1-.147.727,2.729,2.729,0,0,1-.767,1.327,1.513,1.513,0,0,1-1.247.2,3.575,3.575,0,0,1-1.192-.473,3.666,3.666,0,0,1-1.474-1.764l-.091-.238-.028.254a1.43,1.43,0,0,1-.481.882,1.931,1.931,0,0,1-.83.425,2.057,2.057,0,0,1-.822,0,2.836,2.836,0,0,1-.671-.211,4.447,4.447,0,0,1-.854-.52C298.6,102.916,298.5,102.837,298.5,102.841Z" transform="translate(-206.755 -92.97)" fill="#fff"/><path d="M318.75,117.37a.682.682,0,0,0,.107.179,1.481,1.481,0,0,0,.445.369,1.446,1.446,0,0,0,.85.187.715.715,0,0,0,.477-.25.54.54,0,0,0,.075-.584l-.119.083.032.04a2.248,2.248,0,0,0,1.74.775,1.827,1.827,0,0,0,.584-.1c.131-.044.2-.083.195-.091a4.333,4.333,0,0,1-.794.087,2.252,2.252,0,0,1-1.633-.771l-.032-.036-.461-.532.342.612a.4.4,0,0,1-.06.425.592.592,0,0,1-.4.207,1.434,1.434,0,0,1-.794-.143,2.471,2.471,0,0,1-.556-.461Z" transform="translate(-218.961 -103.67)" fill="#fff"/><path d="M304.86,128.331a3.333,3.333,0,0,0,.548,0,2.828,2.828,0,0,1,1.227.365,2.745,2.745,0,0,1,.918.894c.183.282.25.481.274.473a1.192,1.192,0,0,0-.183-.524,2.522,2.522,0,0,0-2.236-1.311A1.192,1.192,0,0,0,304.86,128.331Z" transform="translate(-210.589 -110.599)" fill="#eb996e"/><path d="M289,117.779a3.813,3.813,0,0,0,.441,0,2.236,2.236,0,0,1,.985.3,2.268,2.268,0,0,1,.747.711c.151.222.211.4.23.4a.834.834,0,0,0-.143-.429,1.986,1.986,0,0,0-.759-.794,2.061,2.061,0,0,0-1.061-.274.85.85,0,0,0-.441.091Z" transform="translate(-201.029 -104.246)" fill="#eb996e"/><path d="M285.737,136.141a.584.584,0,0,0,.167-.032.8.8,0,0,1,.369,0c.29.083.516.234.54.191s-.163-.226-.5-.33a.655.655,0,0,0-.445.028C285.76,136.061,285.725,136.129,285.737,136.141Z" transform="translate(-199.06 -115.251)" fill="#eb996e"/><path d="M284,135.718c.032.028.2-.119.429-.262s.429-.238.4-.278-.25,0-.5.155A.743.743,0,0,0,284,135.718Z" transform="translate(-198.015 -114.781)" fill="#eb996e"/><path d="M259.767,118.951a1.255,1.255,0,0,0-.568,0,3,3,0,0,0-1.4.663,2.65,2.65,0,0,0-.91,2.105,2.558,2.558,0,0,0,1.589,2.26,2.348,2.348,0,0,0,1.5.091,3.039,3.039,0,0,0,1.227-.647,2.669,2.669,0,0,0,.969-2.077,2.343,2.343,0,0,0-.552-1.45c-.246-.282-.437-.369-.445-.357s.151.139.358.425a2.36,2.36,0,0,1,.437,1.382,2.5,2.5,0,0,1-.937,1.875,2.431,2.431,0,0,1-2.447.5,2.328,2.328,0,0,1-1.45-2.014,2.463,2.463,0,0,1,.794-1.938,3.138,3.138,0,0,1,1.295-.707A2.261,2.261,0,0,0,259.767,118.951Z" transform="translate(-181.67 -104.988)" fill="#455a64"/><path d="M108.694,239.3c-7.221,5.6-8.318,14.494-8.814,19.595s-4.437,25.489-4.437,25.489-8.25,12.81-11.213,18.24-8.87,16.766-8.87,16.766l9.887,6.109s17.76-24.175,20.886-28.945S125.2,251.622,125.2,251.622Z" transform="translate(-72.25 -177.553)" fill="#263238"/><path d="M194.907,270.141c.5.953,13.609,33.3,13.267,36.544s-16.683,36.449-16.683,36.449L179.4,338.005l12.429-27.575.342-3.789-11.579-21.926,3.746-16.175Z" transform="translate(-134.963 -195.178)" fill="#263238"/><path d="M187.2,283.26c.056.024-1.315,3.277-3.055,7.269s-3.178,7.206-3.245,7.182,1.315-3.273,3.055-7.265S187.145,283.236,187.2,283.26Z" transform="translate(-135.864 -204.051)" fill="#455a64"/><path d="M216.376,365.689a4.155,4.155,0,0,1-2.284,0,4.219,4.219,0,0,1-2.042-1.029,12.084,12.084,0,0,0,2.089.83,12.314,12.314,0,0,0,2.236.2Z" transform="translate(-154.644 -253.118)" fill="#455a64"/><path d="M215.464,374.037c0,.056-.894-.266-2.014-.465s-2.05-.207-2.05-.27a5.4,5.4,0,0,1,2.085.068,5.331,5.331,0,0,1,1.978.667Z" transform="translate(-154.252 -258.285)" fill="#455a64"/><path d="M156.014,254.56a1.975,1.975,0,0,1-.234.207,8.366,8.366,0,0,1-.707.477,11.384,11.384,0,0,1-5.343,1.589,6.954,6.954,0,0,1-.85,0c-.2,0-.314-.028-.31-.044s.441-.032,1.152-.091a14.161,14.161,0,0,0,2.721-.52A13.9,13.9,0,0,0,155,255.116a10.58,10.58,0,0,1,1.013-.556Z" transform="translate(-116.379 -186.751)" fill="#455a64"/><path d="M263.145,169.653l10.578,13.656,22.189,9.088-2.363,4.735-28.361-9.684L255.9,168.41Z" transform="translate(-181.076 -134.821)" fill="#455a64"/><g transform="translate(74.824 33.589)" opacity="0.2"><path d="M263.145,169.653l10.578,13.656,22.189,9.088-2.363,4.735-28.361-9.684L255.9,168.41Z" transform="translate(-255.9 -168.41)"/></g><path d="M247.679,145.835a1.192,1.192,0,0,1-.044-1.668l1.446-1.617a.588.588,0,0,1,.814-.127c2.014,1.458,9.636,7.245,9.621,8.906,0,1.875-3.249,3.766-3.249,3.766Z" transform="translate(-175.902 -119.09)" fill="#455a64"/><path d="M232.249,159.231s14.169,19.575,17.875,21.847,26.892,5.446,26.892,5.446l.882-6.884-22.371-7.15s-14.6-21.513-14.971-22.133a7.98,7.98,0,0,0-6.431-2.538c-3.178.405-4.79,5.422-3.694,7.9C230.847,156.653,232.249,159.231,232.249,159.231Z" transform="translate(-165.517 -122.381)" fill="#455a64"/><path d="M193.685,147.272a7.659,7.659,0,0,0-7.988,1.895c-2.093,1.958-21.251,28.8-22.606,30.586l-5.5,3.8c9.207,8.477,16.341,15.567,26.161,18.03l5.116-16.592,15.718-14.3Z" transform="translate(-121.817 -121.826)" fill="#455a64"/><path d="M231.68,171.54a1.08,1.08,0,0,1,.143.183c.1.143.218.326.373.544.318.481.794,1.164,1.378,1.986,1.192,1.68,2.888,3.944,4.87,6.375s3.841,4.576,5.164,6.133c.655.767,1.192,1.39,1.589,1.851l.425.508c.1.115.143.183.135.187a1.127,1.127,0,0,1-.167-.159l-.453-.485-1.633-1.807c-1.366-1.533-3.241-3.666-5.227-6.1s-3.678-4.715-4.83-6.419c-.58-.854-1.033-1.553-1.327-2.046-.139-.23-.254-.4-.342-.568A.934.934,0,0,1,231.68,171.54Z" transform="translate(-166.477 -136.708)" fill="#263238"/><path d="M279.014,179.555l-.111-.028-.326-.1-1.251-.4-4.679-1.557-16.036-5.4h-.032l-.02-.032c-1.45-2.137-3-4.433-4.6-6.8l-6.939-10.272-3.023-4.485a11,11,0,0,0-.715-1,3.537,3.537,0,0,0-.433-.4c-.155-.123-.29-.266-.453-.373a5.486,5.486,0,0,0-7.781,1.827,6.141,6.141,0,0,0-.4.977,4,4,0,0,0-.183.755c-.052.354-.075.528-.091.64a3.549,3.549,0,0,1,.052-.643,3.478,3.478,0,0,1,.167-.771,5.292,5.292,0,0,1,.4-1,5.641,5.641,0,0,1,2.054-2.085,5.744,5.744,0,0,1,3.789-.707,5.644,5.644,0,0,1,2.1.874,6.019,6.019,0,0,1,.469.4,3.441,3.441,0,0,1,.449.421,11.1,11.1,0,0,1,.735,1.021l3.039,4.477,6.951,10.26,4.6,6.8-.052-.036,16.016,5.466,4.655,1.609,1.243.441.322.119Z" transform="translate(-166.633 -122.296)" fill="#263238"/><path d="M244.736,205.918a1.275,1.275,0,0,1-.207.27,8.448,8.448,0,0,1-.643.659,12.89,12.89,0,0,1-5.267,2.963,8.37,8.37,0,0,1-.9.211,1.191,1.191,0,0,1-.338.036c0-.036.461-.143,1.192-.4a15.468,15.468,0,0,0,5.215-2.916C244.379,206.236,244.709,205.894,244.736,205.918Z" transform="translate(-169.913 -157.43)" fill="#263238"/><path d="M206.675,231.545a4.279,4.279,0,0,1-.691.1c-.445.052-1.092.091-1.895.119a33.724,33.724,0,0,1-12.314-1.958c-.755-.274-1.358-.512-1.768-.7a4.95,4.95,0,0,1-.628-.3,3.87,3.87,0,0,1,.659.226c.4.163,1.025.4,1.783.636a37.541,37.541,0,0,0,12.262,1.95c.794,0,1.442-.028,1.891-.052A4.865,4.865,0,0,1,206.675,231.545Z" transform="translate(-140.979 -171.224)" fill="#263238"/><path d="M222.65,229.2a4.563,4.563,0,0,1-1.108.274,13.561,13.561,0,0,1-5.482-.218,4.483,4.483,0,0,1-1.08-.361,10.226,10.226,0,0,1,1.116.218,17.476,17.476,0,0,0,2.7.326,17.8,17.8,0,0,0,2.725-.111A10.007,10.007,0,0,1,222.65,229.2Z" transform="translate(-156.41 -171.278)" fill="#263238"/><g transform="translate(67.67 38.502)" opacity="0.2"><path d="M237.89,180.78l6.355,10.776s-3.575,2.55-5.057,2.947a38.578,38.578,0,0,0,5.863-2.2l3.349,1.517Z" transform="translate(-237.89 -180.78)"/></g><g transform="translate(50.292 58.482)" opacity="0.2"><path d="M207.673,232.991a12.04,12.04,0,0,1-7.233,1.235,10.606,10.606,0,0,1-6.3-3.146s5.188,1.41,7.178,1.633S207.673,232.991,207.673,232.991Z" transform="translate(-194.14 -231.08)"/></g><path d="M169.78,242a9.208,9.208,0,0,0-1.986.882,6.356,6.356,0,0,0-1.414,1.291l-.079-.06c.119-.131.187-.2.2-.187s-.028.1-.123.246l-.079-.056a4.426,4.426,0,0,1,1.378-1.41A3.758,3.758,0,0,1,169.78,242Z" transform="translate(-127.067 -179.18)" fill="#263238"/><path d="M183.669,252.688a7.412,7.412,0,0,1-3.011,2.8c-.036-.052.735-.568,1.561-1.343S183.617,252.648,183.669,252.688Z" transform="translate(-135.721 -185.622)" fill="#263238"/><path d="M197.872,264.4a5.7,5.7,0,0,1-1.192,1.807,5.791,5.791,0,0,1-1.633,1.4c-.04-.052.707-.655,1.478-1.541S197.808,264.367,197.872,264.4Z" transform="translate(-144.395 -192.681)" fill="#263238"/><path d="M214.164,270.25a6.014,6.014,0,0,1-1.728,3.8c-.048-.04.544-.794,1.017-1.831S214.1,270.238,214.164,270.25Z" transform="translate(-154.875 -196.209)" fill="#263238"/><path d="M252,146.835a1.175,1.175,0,0,1,.151-.4,2.236,2.236,0,0,1,.7-.739,3.126,3.126,0,0,1,.937-.4c.254-.06.4-.072.417-.044a13.4,13.4,0,0,0-1.239.608A4.619,4.619,0,0,0,252,146.835Z" transform="translate(-178.726 -120.857)" fill="#263238"/><path d="M258.94,153.317a2.383,2.383,0,0,1,.846-1.192,2.351,2.351,0,0,1,1.295-.655c.024.056-.576.3-1.16.794S259,153.345,258.94,153.317Z" transform="translate(-182.909 -124.61)" fill="#263238"/><path d="M268.4,159a4.509,4.509,0,0,1-1.16,1.66,4.437,4.437,0,0,1-1.664,1.148c-.032-.056.743-.516,1.521-1.295S268.347,158.971,268.4,159Z" transform="translate(-186.91 -129.148)" fill="#263238"/><path d="M348.786,219.726l3.209-4.4,2.383-.52,5.136-1.045s.6.354-.127,1.255l-.417.338,1.986-.052a1.525,1.525,0,0,1-.91,1.47l-3.353.973-1.263.4a14.144,14.144,0,0,0,3.575-.147,4.949,4.949,0,0,1,1.74-.286.9.9,0,0,1-.131,1.295c-.683.735-2.693.953-3.178,1.072a17.667,17.667,0,0,1-2.173.135,3.428,3.428,0,0,0,1.815.437c1.144,0,2.324.024,2.324.024s.056,1.088-.639,1.3a25.724,25.724,0,0,1-3.778.155l-.854.469a20.388,20.388,0,0,1-3.066,2.733c-.8.35-2.876.957-2.876.957Z" transform="translate(-236.707 -162.158)" fill="#ffbe9d"/><path d="M367.434,217.912a2.876,2.876,0,0,1-.775.354,10.546,10.546,0,0,1-1.986.5,10.984,10.984,0,0,1-2.042.127,2.717,2.717,0,0,1-.842-.1c0-.064,1.291,0,2.852-.23S367.407,217.853,367.434,217.912Z" transform="translate(-244.905 -164.658)" fill="#eb996e"/></g><g transform="translate(213.261 184.278)"><path d="M459.049,388.735s-8.453-9.728-11.646-19.464-1.672-8.612-1.672-8.612,4.306,9.45,7.575,14.018,9.092,11.261,9.092,11.261Z" transform="translate(-445.368 -351.111)" fill="#455a64"/><path d="M482.649,364.165a.493.493,0,0,0-.918.314,128.093,128.093,0,0,1,1.589,16.635c-.056,6.753,0,9.37,0,9.37h3.515s-.632-13.97-1.426-18.228A28.918,28.918,0,0,0,482.649,364.165Z" transform="translate(-467.284 -353.094)" fill="#455a64"/><path d="M488.88,387.509a37.338,37.338,0,0,0,2.9-10.506c.29-2.487-.23-5.847-1-10.328a27.759,27.759,0,0,1-.445-4.985.838.838,0,0,1,1.589-.4,22.2,22.2,0,0,1,1.962,4.969c.854,4.429,1.819,6.641,1.08,10.844a65.1,65.1,0,0,1-3.464,10.673Z" transform="translate(-471.596 -351.235)" fill="#455a64"/><path d="M496.844,379.63s9.283-19.944,9.93-22.9,2.828-9.775,3.086-9.39.643,3.972-1.029,8.1-8.814,24.8-8.814,24.8H496.84" transform="translate(-476.395 -343.094)" fill="#455a64"/><path d="M461.811,387.143a1.933,1.933,0,0,1-.262-.179c-.163-.127-.4-.3-.719-.548-.616-.489-1.486-1.223-2.495-2.2a41.892,41.892,0,0,1-6.733-8.639,56.937,56.937,0,0,1-4.6-9.958c-.465-1.323-.794-2.407-1.029-3.178-.111-.377-.191-.671-.246-.87a1.946,1.946,0,0,1-.072-.306,1.716,1.716,0,0,1,.111.294c.068.214.163.5.282.858.242.747.6,1.823,1.084,3.138a60.237,60.237,0,0,0,4.636,9.907,43.574,43.574,0,0,0,6.661,8.643c.993.989,1.843,1.74,2.447,2.244.294.254.536.441.691.576A1.675,1.675,0,0,1,461.811,387.143Z" transform="translate(-445.544 -351.496)" fill="#263238"/><path d="M485.259,379.852a4.073,4.073,0,0,1-.083-.584c-.044-.4-.1-.953-.171-1.589-.147-1.351-.373-3.209-.7-5.255s-.7-3.885-.977-5.211c-.139-.636-.25-1.164-.338-1.589a3.352,3.352,0,0,1-.107-.584,3.179,3.179,0,0,1,.179.564c.107.365.242.9.4,1.561.318,1.319.707,3.158,1.037,5.207s.536,3.921.647,5.275c.06.675.1,1.223.111,1.589A3.073,3.073,0,0,1,485.259,379.852Z" transform="translate(-467.98 -353.775)" fill="#263238"/><path d="M492.9,361.59a1.487,1.487,0,0,1,.107.25l.278.743c.123.322.266.719.4,1.192s.314,1,.449,1.589c.075.3.151.612.23.937s.135.671.2,1.025c.155.711.246,1.478.361,2.284a37.486,37.486,0,0,1,.218,5.291,36.987,36.987,0,0,1-.6,5.255c-.167.794-.318,1.557-.52,2.252-.1.35-.175.687-.274,1.009l-.3.918c-.179.592-.4,1.1-.564,1.561s-.338.846-.485,1.156l-.33.719a1.19,1.19,0,0,1-.127.246,1.964,1.964,0,0,1,.091-.262l.3-.731c.131-.318.29-.707.449-1.168s.365-.973.532-1.565l.286-.918c.1-.318.171-.659.262-1.009.195-.691.338-1.45.5-2.24a35.38,35.38,0,0,0,.377-10.49c-.107-.794-.195-1.565-.338-2.272-.068-.354-.119-.7-.195-1.025s-.147-.636-.215-.937c-.127-.6-.294-1.128-.421-1.589s-.254-.87-.365-1.192-.183-.56-.242-.751a1.19,1.19,0,0,1-.068-.278Z" transform="translate(-473.447 -351.695)" fill="#263238"/><path d="M512.064,348.37a.211.211,0,0,1,0,.087l-.044.262c-.04.226-.091.564-.183.989-.179.858-.477,2.093-.941,3.575s-1.1,3.257-1.847,5.188-1.621,4.036-2.443,6.272-1.482,4.421-2.089,6.4-1.168,3.762-1.72,5.231a32.986,32.986,0,0,1-1.466,3.408c-.187.4-.361.691-.469.894l-.131.226a.35.35,0,0,1-.052.075.4.4,0,0,1,.036-.083c.028-.064.068-.143.111-.238.1-.207.258-.508.437-.906.373-.794.878-1.954,1.4-3.428s1.088-3.249,1.676-5.231,1.239-4.171,2.077-6.415,1.7-4.346,2.459-6.272,1.406-3.67,1.883-5.164.794-2.713,1-3.575c.1-.425.167-.759.218-.981.024-.1.044-.187.064-.258A.513.513,0,0,1,512.064,348.37Z" transform="translate(-478.709 -343.726)" fill="#263238"/><path d="M455.233,336.918a.794.794,0,0,0-1.319.814,23.2,23.2,0,0,0,1.168,3c1.275,2.709,5.025,12.441,6.776,17.783s4.226,15.309,4.226,15.309l3.75-.608s-3.428-16.377-6.776-22.276C460.365,346.2,457.676,339.345,455.233,336.918Z" transform="translate(-450.494 -336.679)" fill="#455a64"/><path d="M476.57,400.06a2.435,2.435,0,0,1,.191.449c.111.294.262.723.433,1.259.346,1.069.767,2.562,1.192,4.218s.794,3.178,1.025,4.262c.111.516.207.953.282,1.3a1.954,1.954,0,0,1,.076.481,2.553,2.553,0,0,1-.151-.461l-.342-1.287-1.08-4.246c-.425-1.656-.826-3.15-1.136-4.226l-.369-1.275A1.91,1.91,0,0,1,476.57,400.06Z" transform="translate(-464.176 -374.884)" fill="#263238"/><path d="M468.624,373.787a.565.565,0,0,1-.02-.1,2.242,2.242,0,0,0-.044-.3c-.04-.258-.075-.643-.151-1.132-.139-.985-.4-2.4-.794-4.135a59.489,59.489,0,0,0-1.756-5.982c-.767-2.22-1.732-4.62-2.824-7.1-2.2-4.957-4.405-9.354-5.851-12.608-.731-1.621-1.3-2.947-1.672-3.869-.191-.461-.326-.822-.421-1.065-.04-.115-.075-.207-.1-.278a.278.278,0,0,1-.028-.1.325.325,0,0,1,.048.091l.123.27c.107.254.262.6.453,1.053.4.91.981,2.224,1.728,3.841,1.478,3.233,3.7,7.619,5.907,12.584,1.092,2.487,2.054,4.894,2.816,7.122a55.829,55.829,0,0,1,1.716,6.014,39.689,39.689,0,0,1,.727,4.151c.068.493.091.882.115,1.14l.024.3a.341.341,0,0,1,.008.1Z" transform="translate(-451.15 -336.945)" fill="#263238"/><path d="M487.833,404.772a3.442,3.442,0,0,1-.127-.628c-.076-.441-.175-1.021-.294-1.724-.258-1.45-.651-3.448-1.219-5.625s-1.192-4.115-1.676-5.509c-.238-.671-.437-1.223-.588-1.644a4.122,4.122,0,0,1-.2-.612,4.291,4.291,0,0,1,.27.584c.163.4.4.933.647,1.625a54.993,54.993,0,0,1,1.74,5.505,57.1,57.1,0,0,1,1.164,5.656c.107.731.191,1.323.23,1.732A4.723,4.723,0,0,1,487.833,404.772Z" transform="translate(-468.492 -368.236)" fill="#263238"/><rect width="14.622" height="17.815" transform="translate(12.406 36)" fill="#f8951d"/><g transform="translate(12.406 36)" opacity="0.3"><rect width="14.622" height="17.815"/></g><rect width="12.973" height="17.815" transform="translate(9.391 36)" fill="#f8951d"/></g></g></svg>