<svg xmlns="http://www.w3.org/2000/svg" width="250" height="227.893" viewBox="0 0 250 227.893">
  <g id="Cost_Savings" data-name="Cost Savings" transform="translate(-27.8 -45.597)">
    <g id="freepik--Desk--inject-46" transform="translate(27.8 273.198)">
      <path id="Path_36888" data-name="Path 36888" d="M277.8,450.326c0,.084-55.969.146-124.994.146S27.8,450.411,27.8,450.326s55.957-.146,125.006-.146S277.8,450.247,277.8,450.326Z" transform="translate(-27.8 -450.18)" fill="#263238"/>
    </g>
    <g id="freepik--Plants--inject-46" transform="translate(35.519 157.12)">
      <path id="Path_36889" data-name="Path 36889" d="M67.252,381.28c.636-2.458-.979-4.934-2.813-6.717s-3.972-3.375-4.911-5.744c-1.525-3.825.523-8.776-2.076-11.966-1.53-1.879-4.275-2.509-5.626-4.5A10.263,10.263,0,0,1,50.6,348.77a36.33,36.33,0,0,0-9.035-16.95,31.6,31.6,0,0,0,3.555,16.314c1.052,2,2.346,3.938,2.695,6.188.563,3.634-1.463,7.381-.563,10.947,1.018,4.084,5.626,6.818,5.822,11.02.186,3.555-2.914,6.672-2.683,10.222a9.681,9.681,0,0,0,1.581,4.214c2.757,4.59,6.779,7.735,12.883,7.634l7.493.259Z" transform="translate(-41.522 -282.326)" fill="#f8951d"/>
      <g id="Group_8779" data-name="Group 8779" transform="translate(0 49.494)" opacity="0.3">
        <path id="Path_36890" data-name="Path 36890" d="M67.252,381.28c.636-2.458-.979-4.934-2.813-6.717s-3.972-3.375-4.911-5.744c-1.525-3.825.523-8.776-2.076-11.966-1.53-1.879-4.275-2.509-5.626-4.5A10.263,10.263,0,0,1,50.6,348.77a36.33,36.33,0,0,0-9.035-16.95,31.6,31.6,0,0,0,3.555,16.314c1.052,2,2.346,3.938,2.695,6.188.563,3.634-1.463,7.381-.563,10.947,1.018,4.084,5.626,6.818,5.822,11.02.186,3.555-2.914,6.672-2.683,10.222a9.681,9.681,0,0,0,1.581,4.214c2.757,4.59,6.779,7.735,12.883,7.634l7.493.259Z" transform="translate(-41.522 -331.82)"/>
      </g>
      <path id="Path_36891" data-name="Path 36891" d="M96.061,378.353a5.964,5.964,0,0,0,2.065-.039,13.089,13.089,0,0,0,2.43-.613,10.385,10.385,0,0,0,3.01-1.648A4.2,4.2,0,0,0,104.8,374.4a7.645,7.645,0,0,0,.349-2.25,22.807,22.807,0,0,1,.18-2.425,6.644,6.644,0,0,1,.911-2.408c.883-1.553,2.351-3.021,2.813-5.13a18,18,0,0,0-.2-6.565c-.349-2.25-.686-4.7.174-7.038s2.447-4.461,3.268-7.1.439-5.541.608-8.371a11.156,11.156,0,0,1,.979-4.157c.608-1.328,1.446-2.576,2.1-3.977,1.328-2.813,1.564-6.019,1.93-9.153q.264-2.374.563-4.787a23.818,23.818,0,0,1,.833-4.793,41.843,41.843,0,0,1,1.795-4.635,15.845,15.845,0,0,0,.866-2.425,23.856,23.856,0,0,0,.242-2.577,30.244,30.244,0,0,0-.2-5.187c-.2-1.727-.518-3.443-.7-5.176l-.034-.3-.039-.343-.3.152a11.594,11.594,0,0,0-4.034,3.4,18.4,18.4,0,0,0-2.481,4.568,57.439,57.439,0,0,0-2.329,9.811A26.519,26.519,0,0,1,109,312.618c-.816,1.333-1.811,2.548-2.683,3.854a10.627,10.627,0,0,0-1.856,4.27c-.444,3.167,1.3,5.952.939,8.759a9.715,9.715,0,0,1-1.367,3.887c-.681,1.2-1.48,2.306-2.25,3.426a22.012,22.012,0,0,0-2.014,3.454,10.891,10.891,0,0,0-.917,3.758c-.186,2.526.174,4.922,0,7.184a16.567,16.567,0,0,1-1.845,6.16c-.911,1.84-1.918,3.51-2.762,5.125a25.165,25.165,0,0,0-1.125,2.385,12.108,12.108,0,0,0-.658,2.374,15,15,0,0,0-.051,4.275,10.728,10.728,0,0,0,2.149,5.434,5.474,5.474,0,0,0,.6.658,3.234,3.234,0,0,0,.5.416c.276.208.428.3.428.3a8.875,8.875,0,0,1-1.451-1.434A10.835,10.835,0,0,1,92.6,371.49a15.127,15.127,0,0,1,.1-4.219,12.152,12.152,0,0,1,.664-2.312c.321-.771.714-1.558,1.125-2.357.855-1.6,1.873-3.257,2.813-5.114a16.674,16.674,0,0,0,1.913-6.267c.2-2.312-.146-4.714.045-7.184a10.491,10.491,0,0,1,.9-3.629,21.237,21.237,0,0,1,1.991-3.375c.754-1.125,1.564-2.222,2.25-3.448a10.126,10.126,0,0,0,1.435-4.045c.36-2.993-1.373-5.794-.923-8.737a10.126,10.126,0,0,1,1.795-4.084c.855-1.283,1.856-2.5,2.7-3.865a27.45,27.45,0,0,0,3.15-9.215,54.87,54.87,0,0,1,2.318-9.732,17.834,17.834,0,0,1,2.413-4.444,11.054,11.054,0,0,1,3.865-3.263l-.349-.191.034.3c.191,1.75.5,3.471.7,5.176a29.916,29.916,0,0,1,.2,5.108,22.505,22.505,0,0,1-.231,2.5,14.881,14.881,0,0,1-.838,2.335,43.037,43.037,0,0,0-1.806,4.686,23.706,23.706,0,0,0-.844,4.872q-.27,2.425-.529,4.793c-.36,3.145-.6,6.3-1.873,9-.636,1.356-1.474,2.61-2.1,3.983a11.561,11.561,0,0,0-1.007,4.309c-.163,2.892.214,5.721-.563,8.281s-2.408,4.675-3.235,7.094a14.952,14.952,0,0,0-.163,7.212,16.883,16.883,0,0,1,.242,6.447c-.484,2-1.856,3.465-2.757,5.063a6.841,6.841,0,0,0-.928,2.5,20.979,20.979,0,0,0-.158,2.453,7.617,7.617,0,0,1-.321,2.177,3.972,3.972,0,0,1-1.164,1.575,10.436,10.436,0,0,1-2.931,1.66,13.191,13.191,0,0,1-2.4.647,9.514,9.514,0,0,1-1.525.152C96.263,378.347,96.061,378.353,96.061,378.353Z" transform="translate(-63.726 -262.112)" fill="#263238"/>
      <path id="Path_36892" data-name="Path 36892" d="M122.712,293.57a1.126,1.126,0,0,0-.073.231c-.045.18-.1.4-.163.675-.146.591-.326,1.48-.608,2.593s-.973,2.363-1.553,3.91a55.207,55.207,0,0,0-1.783,5.316c-.563,2-1.08,4.219-1.609,6.593a27.136,27.136,0,0,1-2.4,7.313c-.613,1.215-1.305,2.447-1.856,3.8a17.439,17.439,0,0,0-1.074,4.3,86.157,86.157,0,0,1-1.62,9.063c-1.5,6.143-2.931,11.988-4.236,17.315l-3.55,14.12c-.984,3.994-1.789,7.24-2.351,9.524-.259,1.125-.467,1.969-.619,2.6-.056.276-.107.5-.146.681a.8.8,0,0,0-.034.231,1.126,1.126,0,0,0,.084-.219l.191-.669c.174-.624.405-1.485.7-2.571.6-2.284,1.457-5.513,2.5-9.5l3.651-14.092c1.316-5.327,2.757-11.172,4.275-17.315a87.058,87.058,0,0,0,1.615-9.1,17.367,17.367,0,0,1,1.018-4.174c.529-1.311,1.209-2.537,1.823-3.769A27.887,27.887,0,0,0,117.3,313c.529-2.363,1-4.6,1.541-6.593s1.125-3.769,1.688-5.3,1.209-2.813,1.485-3.966.405-2.02.523-2.622c.045-.276.084-.5.118-.681A1.125,1.125,0,0,0,122.712,293.57Z" transform="translate(-66.683 -265.594)" fill="#263238"/>
      <path id="Path_36893" data-name="Path 36893" d="M80.342,360.132c4.894-2.908,6.3-11.516,4.259-16.832s-5.626-10.171-6.188-15.836c-.428-4.354,1-8.827,0-13.085-1.361-5.755-6.97-10.194-6.9-16.1.034-3.313,1.918-6.43,1.772-9.743-.186-4.056-3.3-7.279-5.232-10.857-2.959-5.474-3.15-11.949-4.163-18.086S60.511,246.878,55.1,243.84c-.8,5.209-2.177,8.781-1.744,15.842.152,2.537,3.1,7.386,3.5,12.939.242,3.325.405,6.649.608,9.974a31.914,31.914,0,0,0,1.57,9.563c.889,2.323,2.312,4.427,2.976,6.824,1.238,4.5-.394,9.383.608,13.946.849,3.865,3.527,7.2,4.073,11.116.771,5.507-2.813,11.251-.973,16.483.906,2.61,3.055,4.7,3.662,7.392.473,2.093-.045,4.3.383,6.4.692,3.375,7.139,6.008,10.582,5.794" transform="translate(-46.662 -243.84)" fill="#f8951d"/>
      <path id="Path_36894" data-name="Path 36894" d="M58.9,253.07a1.688,1.688,0,0,0,0,.3c0,.219.067.5.113.855.113.754.236,1.856.489,3.285s1.018,3.055,1.609,5.007,1.243,4.191,1.795,6.7,1.024,5.294,1.513,8.281a34.1,34.1,0,0,0,2.509,9.367c.686,1.564,1.457,3.128,2.036,4.8A21.377,21.377,0,0,1,70,296.949a106.631,106.631,0,0,0,1.44,11.4c1.5,7.724,2.925,15.076,4.225,21.777s2.6,12.674,3.64,17.732,1.9,9.1,2.5,11.949c.3,1.384.534,2.47.7,3.246.079.349.146.624.2.838a1.384,1.384,0,0,0,.079.281.973.973,0,0,0-.034-.293c-.039-.214-.084-.5-.146-.849-.146-.776-.354-1.868-.613-3.263-.563-2.858-1.361-6.942-2.346-11.977S77.43,336.711,76.1,330.033l-4.185-21.765a107.117,107.117,0,0,1-1.418-11.358,21.8,21.8,0,0,0-1.069-5.395c-.6-1.688-1.373-3.274-2.065-4.827a34.608,34.608,0,0,1-2.52-9.254c-.529-2.982-1-5.772-1.575-8.286s-1.221-4.765-1.873-6.711-1.384-3.561-1.688-4.962-.439-2.52-.563-3.263c-.068-.349-.118-.63-.158-.849A1.125,1.125,0,0,0,58.9,253.07Z" transform="translate(-49.123 -247.878)" fill="#263238"/>
      <path id="Path_36895" data-name="Path 36895" d="M434.836,390.978a6.261,6.261,0,0,1,3.246,3.673,11.11,11.11,0,0,1,.433,4.979c-.366,3.235-2.205,6.492-4.18,9.074-2.723-2.374-3.375-6.514-3.533-8.635-.293-3.375,1.21-9.592,4.034-9.091" transform="translate(-211.794 -308.192)" fill="#f8951d"/>
      <path id="Path_36896" data-name="Path 36896" d="M442.641,426.766a5.35,5.35,0,0,1,1.727-5.063,7.1,7.1,0,0,1,5.232-1.637,3,3,0,0,1,2.3,1.029,2.278,2.278,0,0,1,.039,2.318,4.618,4.618,0,0,1-1.716,1.688c-2.357,1.479-4.911,2.481-7.578,1.688" transform="translate(-216.945 -320.916)" fill="#f8951d"/>
      <path id="Path_36897" data-name="Path 36897" d="M436.52,439.118a3.939,3.939,0,0,1,.1-.664c.084-.467.2-1.069.332-1.795a18.644,18.644,0,0,1,1.851-5.744,11.436,11.436,0,0,1,4.112-4.371,7.488,7.488,0,0,1,1.688-.743,4.382,4.382,0,0,1,.484-.124c.113,0,.174-.034.174,0a10.621,10.621,0,0,0-6.244,5.372,20.062,20.062,0,0,0-1.89,5.626c-.169.754-.3,1.361-.4,1.778A3.312,3.312,0,0,1,436.52,439.118Z" transform="translate(-214.311 -323.377)" fill="#263238"/>
      <path id="Path_36898" data-name="Path 36898" d="M436.6,399.59a2.056,2.056,0,0,1,.034.293c0,.214.028.489.051.833.039.72.079,1.766.124,3.066.079,2.588.146,6.188.129,10.126s-.113,7.533-.219,10.126c-.051,1.294-.107,2.34-.152,3.066,0,.338-.039.613-.056.833a1.333,1.333,0,0,1-.034.287,1.684,1.684,0,0,1,0-.293v-.833c0-.754.045-1.795.073-3.066.068-2.588.135-6.188.152-10.126s0-7.527-.062-10.126c0-1.271-.034-2.312-.051-3.066v-.833a1.688,1.688,0,0,1,.011-.287Z" transform="translate(-214.289 -311.972)" fill="#263238"/>
      <path id="Path_36899" data-name="Path 36899" d="M426.433,427.994a12.489,12.489,0,0,0-6.824-9.153c-.906-.439-2.1-.72-2.841-.045s-.563,1.9-.219,2.813a10.689,10.689,0,0,0,9.822,6.627" transform="translate(-205.445 -320.197)" fill="#f8951d"/>
      <path id="Path_36900" data-name="Path 36900" d="M423,424.64a3.016,3.016,0,0,1,.563.247,6.473,6.473,0,0,1,.653.349,9.672,9.672,0,0,1,.833.523,11.32,11.32,0,0,1,.951.714,13.325,13.325,0,0,1,1.013.917,13.937,13.937,0,0,1,1.918,2.47,13.689,13.689,0,0,1,1.266,2.863,12.544,12.544,0,0,1,.321,1.328,11.348,11.348,0,0,1,.163,1.181,8.878,8.878,0,0,1,.045.979,5.873,5.873,0,0,1,0,.737,3.238,3.238,0,0,1-.068.63c-.056,0,.039-.9-.118-2.329a11.261,11.261,0,0,0-.191-1.159,11.694,11.694,0,0,0-.338-1.3,13.906,13.906,0,0,0-1.26-2.813,14.24,14.24,0,0,0-1.873-2.442,13.239,13.239,0,0,0-.984-.917,10.613,10.613,0,0,0-.917-.731C423.8,425.056,423,424.685,423,424.64Z" transform="translate(-208.397 -322.93)" fill="#263238"/>
    </g>
    <g id="freepik--Character--inject-46" transform="translate(75.01 45.597)">
      <path id="Path_36901" data-name="Path 36901" d="M257.016,209.74s-26.266-18.615-29.59-20.443c-3.167-1.744-13.22-3.01-14.12-3.229l-18-3.938-27.5.821-7.876,4.742-19.959,9.215a23.672,23.672,0,0,0-12,12.522l-12.6,30.777,31.3,9.248.973,32.465-7.375,51.148H231.78l-4.607-98.025,9.53,2.1Z" transform="translate(-113.317 -105.322)" fill="#263238"/>
      <path id="Path_36902" data-name="Path 36902" d="M150.893,273.706s-.332.242-.968.613A8.017,8.017,0,0,1,147,275.388a10.829,10.829,0,0,1-4.562-.664,32.533,32.533,0,0,1-5.2-2.25c-1.783-.928-3.454-1.868-5.018-2.622a28.033,28.033,0,0,0-4.287-1.716,16.955,16.955,0,0,0-3.049-.619c-.366-.039-.647-.056-.844-.062h-.293a7.934,7.934,0,0,1,1.125.039,15.589,15.589,0,0,1,3.066.563,27.121,27.121,0,0,1,4.309,1.688c1.575.754,3.246,1.688,5.029,2.622a33.62,33.62,0,0,0,5.176,2.25,10.874,10.874,0,0,0,4.5.681,8.044,8.044,0,0,0,2.908-1.024c.321-.18.563-.326.731-.428A1.487,1.487,0,0,1,150.893,273.706Z" transform="translate(-116.982 -142.646)" fill="#fff"/>
      <path id="Path_36903" data-name="Path 36903" d="M154.178,248.058h-.208l-.6-.028c-.518-.028-1.266-.084-2.188-.174a57.381,57.381,0,0,1-14.064-3.24c-.872-.321-1.57-.6-2.048-.8l-.563-.236-.191-.09.2.068.563.214c.484.191,1.187.456,2.059.765a61.549,61.549,0,0,0,14.064,3.235c.917.1,1.688.174,2.177.214l.6.051Z" transform="translate(-121.606 -132.164)" fill="#fff"/>
      <path id="Path_36904" data-name="Path 36904" d="M182.832,194.87s-.236.383-.731,1.024a14.5,14.5,0,0,1-2.413,2.425,21.293,21.293,0,0,1-4.36,2.61,44.209,44.209,0,0,1-5.856,2.138c-2.121.63-4.146,1.187-5.963,1.783a34.451,34.451,0,0,0-4.714,1.885,20.343,20.343,0,0,0-2.937,1.75c-.338.225-.563.433-.743.563l-.264.191s.332-.3.979-.793a20.2,20.2,0,0,1,2.925-1.789,34.4,34.4,0,0,1,4.72-1.907c1.817-.608,3.848-1.164,5.963-1.795a44.87,44.87,0,0,0,5.845-2.121,21.94,21.94,0,0,0,4.354-2.577,14.992,14.992,0,0,0,2.458-2.374c.264-.3.428-.563.563-.737A1.274,1.274,0,0,0,182.832,194.87Z" transform="translate(-130.587 -110.896)" fill="#fff"/>
      <path id="Path_36905" data-name="Path 36905" d="M284.483,198.138s-.084-.039-.242-.129-.371-.225-.675-.377a17.1,17.1,0,0,0-2.61-1.125,29.255,29.255,0,0,0-4.1-1.052c-1.564-.3-3.3-.529-5.125-.788l-9.327-1.322-2.813-.416-.771-.118-.264-.051.27.028.771.1,2.813.377,9.333,1.288c1.823.253,3.561.489,5.131.793a27.874,27.874,0,0,1,4.1,1.08,16.117,16.117,0,0,1,2.61,1.17C284.179,197.924,284.483,198.138,284.483,198.138Z" transform="translate(-175.954 -109.972)" fill="#fff"/>
      <path id="Path_36906" data-name="Path 36906" d="M232.718,213.36s-.208.1-.608.276-1,.428-1.766.737c-1.547.613-3.8,1.463-6.661,2.3a73.479,73.479,0,0,1-10.2,2.25,70.829,70.829,0,0,1-12.776.444c-4.529-.152-8.866-.343-12.793-.1a39.492,39.492,0,0,0-10.233,1.868,25.518,25.518,0,0,0-6.3,3.088c-.669.484-1.193.866-1.519,1.159a5.486,5.486,0,0,1-.518.422s.169-.158.5-.439.838-.686,1.513-1.181a25.029,25.029,0,0,1,6.3-3.128,39.378,39.378,0,0,1,10.255-1.9c3.938-.253,8.264-.062,12.8.084a71.755,71.755,0,0,0,12.764-.433,73.764,73.764,0,0,0,10.194-2.25c2.852-.821,5.114-1.66,6.666-2.25.776-.3,1.373-.563,1.772-.72Z" transform="translate(-136.925 -118.984)" fill="#fff"/>
      <path id="Path_36907" data-name="Path 36907" d="M289.065,223.1a.338.338,0,0,1-.1.051l-.3.107c-.259.1-.636.219-1.125.354a14.7,14.7,0,0,1-3.786.563,12.939,12.939,0,0,1-3.786-.563c-.473-.141-.849-.27-1.125-.371l-.293-.118-.1-.051h.113l.3.1c.259.09.636.208,1.125.338a13.788,13.788,0,0,0,3.764.506,16,16,0,0,0,3.769-.563c.467-.129.849-.236,1.125-.321l.3-.084Z" transform="translate(-184.655 -123.218)" fill="#fff"/>
      <path id="Path_36908" data-name="Path 36908" d="M227.673,251.44s-2.7.563-7.105,1.226c-2.205.332-4.838.658-7.769.951s-6.188.512-9.563.641-6.638.118-9.563.056-5.626-.219-7.82-.388c-4.444-.338-7.173-.709-7.173-.709l.5.039,1.429.141c1.238.129,3.032.287,5.254.444s4.872.287,7.814.36,6.188.056,9.563-.062,6.621-.36,9.563-.63,5.564-.608,7.769-.928,3.983-.6,5.209-.821l1.412-.248Z" transform="translate(-141.011 -135.642)" fill="#fff"/>
      <path id="Path_36909" data-name="Path 36909" d="M289.4,247.174h-2.925c-1.823,0-4.343-.073-7.111-.309s-5.271-.613-7.06-.939c-.9-.158-1.62-.3-2.121-.411l-.563-.124-.2-.051h.2l.563.1,2.121.377c1.795.3,4.287.664,7.054.9s5.288.315,7.105.343h2.723Z" transform="translate(-180.705 -132.973)" fill="#fff"/>
      <path id="Path_36910" data-name="Path 36910" d="M219.34,289.092s-.163.034-.461.073l-1.328.186c-.563.084-1.283.18-2.11.236s-1.761.169-2.813.186-2.177.1-3.375.073h-1.9l-2.008-.068c-2.751-.107-5.766-.315-8.928-.563s-6.188-.563-8.917-.726-5.215-.287-7.313-.253h-1.48l-1.322.068c-.821.034-1.536.073-2.11.146l-1.333.129-.467.039s.163-.028.467-.062l1.328-.158c.563-.079,1.288-.118,2.115-.163l1.322-.073h1.48c2.081-.039,4.562.062,7.313.231s5.755.45,8.917.714,6.188.484,8.922.6l2,.073h1.9c1.221,0,2.357-.028,3.375-.056s1.975-.124,2.813-.174,1.53-.135,2.11-.214l1.328-.163Z" transform="translate(-138.736 -151.702)" fill="#fff"/>
      <path id="Path_36911" data-name="Path 36911" d="M294.677,277.577l-.248.039-.72.073c-.619.068-1.525.141-2.638.219-2.25.152-5.327.259-8.742.174s-6.5-.366-8.725-.636c-1.125-.135-2.008-.259-2.627-.354l-.709-.113-.248-.051.248.028.714.09c.619.084,1.519.2,2.633.321,2.222.248,5.3.506,8.714.6s6.5,0,8.736-.141c1.125-.062,2.02-.129,2.644-.18l.714-.056Z" transform="translate(-180.967 -146.792)" fill="#fff"/>
      <path id="Path_36912" data-name="Path 36912" d="M252.18,314.15l-.821-.045c-.563,0-1.333-.113-2.357-.141-2.048-.107-5.012-.129-8.675.051s-8,.613-12.8,1.249-10.07,1.463-15.6,2.16a135.987,135.987,0,0,1-15.752,1.2,72.145,72.145,0,0,1-12.832-.928,51.574,51.574,0,0,1-8.41-2.126c-.489-.152-.911-.315-1.277-.461l-.934-.371c-.5-.2-.759-.309-.759-.309l.771.287.934.36c.366.146.793.3,1.283.456a52.321,52.321,0,0,0,8.41,2.081,73.2,73.2,0,0,0,12.815.906,137.212,137.212,0,0,0,15.752-1.226c5.541-.714,10.807-1.536,15.617-2.155s9.136-1.035,12.787-1.221a85.035,85.035,0,0,1,8.675,0C251.05,314.032,252.18,314.15,252.18,314.15Z" transform="translate(-138.072 -162.922)" fill="#fff"/>
      <path id="Path_36913" data-name="Path 36913" d="M221.631,351.489s-2.706.461-7.116.934c-2.2.236-4.832.45-7.758.619s-6.154.248-9.535.231-6.6-.174-9.53-.366-5.552-.461-7.752-.731c-4.4-.563-7.1-1.035-7.1-1.035l.5.062,1.412.208c.608.1,1.361.2,2.25.309s1.868.259,2.965.371c2.205.259,4.832.506,7.752.709s6.143.321,9.524.354,6.6-.073,9.53-.219,5.552-.366,7.758-.6c1.125-.1,2.1-.231,2.97-.326s1.626-.2,2.25-.281l1.412-.186Z" transform="translate(-138.457 -179.255)" fill="#fff"/>
      <path id="Path_36914" data-name="Path 36914" d="M290.339,344.6s-.107.039-.3.1l-.861.264c-.754.225-1.845.534-3.2.9-2.706.726-6.481,1.626-10.689,2.4s-8.061,1.271-10.852,1.553c-1.4.141-2.526.236-3.308.293l-.9.062h-.315l.309-.039.9-.084c.782-.068,1.913-.18,3.3-.332,2.813-.3,6.633-.81,10.84-1.581s7.977-1.66,10.689-2.368c1.356-.349,2.447-.647,3.2-.861l.872-.242Z" transform="translate(-176.545 -176.394)" fill="#fff"/>
      <path id="Path_36915" data-name="Path 36915" d="M198.739,389.649a39.707,39.707,0,0,1-4.377.433c-1.356.073-2.976.079-4.776,0a49.505,49.505,0,0,1-11.516-1.93,47.556,47.556,0,0,1-4.5-1.558,42.389,42.389,0,0,1-4-1.834l.281.124.793.366c.343.163.765.36,1.266.563s1.052.461,1.688.7c1.26.506,2.813,1.029,4.5,1.536a56.351,56.351,0,0,0,5.693,1.294,57.74,57.74,0,0,0,5.8.619,46.214,46.214,0,0,0,4.765,0c.681,0,1.294-.073,1.834-.107s1-.084,1.378-.124l.866-.09Z" transform="translate(-137.026 -193.962)" fill="#fff"/>
      <path id="Path_36916" data-name="Path 36916" d="M274.4,390.9l-.563.1-1.609.259c-1.4.219-3.42.529-5.924.883-5.007.714-11.943,1.6-19.622,2.368s-14.66,1.249-19.689,1.53c-2.526.141-4.574.242-5.986.3l-1.626.062h-.563l.563-.034,1.626-.084,5.98-.332c5.063-.3,12.016-.81,19.689-1.57s14.626-1.637,19.622-2.329l5.929-.849,1.609-.236Z" transform="translate(-158.57 -196.648)" fill="#fff"/>
      <path id="Path_36917" data-name="Path 36917" d="M253.407,426.3s-1.226.259-3.471.624-5.5.821-9.563,1.159a125.447,125.447,0,0,1-14.261.349c-5.372-.174-11.251-.776-17.4-1.53s-12.011-1.513-17.36-1.93a112.3,112.3,0,0,0-14.25-.321,71.808,71.808,0,0,0-9.563,1.091c-1.125.214-1.98.394-2.56.534l-.889.2s.3-.084.883-.225,1.44-.332,2.554-.563a69.112,69.112,0,0,1,9.563-1.125,109.77,109.77,0,0,1,14.255.287c5.361.416,11.217,1.176,17.366,1.93s12.027,1.356,17.394,1.53a125.925,125.925,0,0,0,14.25-.321c4.045-.326,7.313-.771,9.563-1.125,1.125-.18,1.991-.321,2.582-.428Z" transform="translate(-134.629 -211.325)" fill="#fff"/>
      <path id="Path_36918" data-name="Path 36918" d="M338.5,222.26s-.163.444-.529,1.221a22.887,22.887,0,0,1-1.834,3.133,40.764,40.764,0,0,1-3.375,4.191c-1.361,1.508-2.925,3.094-4.5,4.815a41.066,41.066,0,0,0-4.107,5.142,21.45,21.45,0,0,0-2.413,4.787,14.886,14.886,0,0,0-.793,3.567c-.056.422-.039.759-.056.984a1.765,1.765,0,0,0,0,.343,11.334,11.334,0,0,1,.034-1.333,14.232,14.232,0,0,1,.748-3.555,21.276,21.276,0,0,1,2.4-4.815,40.9,40.9,0,0,1,4.112-5.17c1.586-1.716,3.156-3.3,4.5-4.8a41.754,41.754,0,0,0,3.375-4.169,23.142,23.142,0,0,0,1.862-3.105c.2-.383.321-.692.422-.894S338.5,222.26,338.5,222.26Z" transform="translate(-203.219 -122.877)" fill="#fff"/>
      <path id="Path_36919" data-name="Path 36919" d="M306.14,225.916l.191-.141.563-.383c.5-.321,1.187-.816,2.02-1.457s1.795-1.44,2.813-2.385a42.757,42.757,0,0,0,3.122-3.257,44.1,44.1,0,0,0,2.728-3.6c.765-1.159,1.412-2.25,1.907-3.156s.878-1.688,1.125-2.25l.287-.613.107-.214a31.1,31.1,0,0,1-1.44,3.117,35.985,35.985,0,0,1-1.9,3.173,40.02,40.02,0,0,1-2.723,3.617,40.907,40.907,0,0,1-3.139,3.263c-1.029.939-1.991,1.744-2.813,2.374A30.488,30.488,0,0,1,306.14,225.916Z" transform="translate(-196.768 -116.84)" fill="#fff"/>
      <path id="Path_36920" data-name="Path 36920" d="M234.67,249.1a.483.483,0,0,1,.135-.062l.405-.158c.366-.124.878-.349,1.536-.653a20.191,20.191,0,0,0,4.979-3.544,39.178,39.178,0,0,0,5.7-7.071,99.63,99.63,0,0,0,5.558-9.676,169.155,169.155,0,0,0,7.876-18.688c.883-2.441,1.57-4.433,2.053-5.8l.563-1.581c.062-.169.113-.3.152-.411a.649.649,0,0,1,.056-.135.562.562,0,0,1-.028.146c-.034.113-.079.248-.129.416-.118.388-.287.923-.506,1.6-.444,1.384-1.125,3.375-1.969,5.834a156.09,156.09,0,0,1-7.825,18.75,96.59,96.59,0,0,1-5.586,9.693,38.815,38.815,0,0,1-5.783,7.071,19.358,19.358,0,0,1-5.063,3.493,14.365,14.365,0,0,1-1.558.613l-.416.129a.5.5,0,0,1-.146.034Z" transform="translate(-165.504 -113.717)" fill="#455a64"/>
      <path id="Path_36921" data-name="Path 36921" d="M233,287a1.846,1.846,0,0,1,.3-.236l.911-.624c.782-.563,1.913-1.356,3.274-2.4,2.728-2.076,6.312-5.176,10.16-8.714,1.935-1.766,3.786-3.437,5.384-5.035A42.47,42.47,0,0,0,257,265.5a24.829,24.829,0,0,0,2.171-3.415c.236-.416.383-.759.5-.984a2.568,2.568,0,0,1,.186-.338,1.608,1.608,0,0,1-.129.366c-.1.231-.231.563-.456,1.007a21.842,21.842,0,0,1-2.11,3.482,39.288,39.288,0,0,1-3.938,4.568c-1.6,1.62-3.443,3.3-5.378,5.063a132.163,132.163,0,0,1-10.233,8.663c-1.378,1.029-2.526,1.806-3.336,2.329-.4.264-.72.45-.934.563A2.949,2.949,0,0,1,233,287Z" transform="translate(-164.773 -139.719)" fill="#455a64"/>
      <path id="Path_36922" data-name="Path 36922" d="M206,382.207l.068-.129c.062-.09.135-.208.225-.354.2-.315.5-.765.906-1.339.816-1.125,2.07-2.74,3.724-4.619,3.336-3.747,8.005-8.849,13.153-14.5l13.226-14.43,4.034-4.354,1.125-1.176.293-.3c.068-.068.1-.1.107-.1s-.028.039-.084.112l-.276.321-1.058,1.209c-.956,1.058-2.306,2.565-3.966,4.41l-13.169,14.491-13.243,14.441c-1.688,1.862-2.948,3.437-3.786,4.557-.422.563-.737,1-.951,1.3l-.242.343a.457.457,0,0,1-.084.113Z" transform="translate(-152.962 -174.779)" fill="#455a64"/>
      <path id="Path_36923" data-name="Path 36923" d="M298.874,218.269a5.7,5.7,0,0,1-.208-.855c-.062-.276-.129-.619-.18-1.018s-.135-.855-.158-1.361-.084-1.063-.079-1.688,0-1.238.045-1.913A24.639,24.639,0,0,1,300.4,203c.287-.608.563-1.187.855-1.688s.563-1,.849-1.429.563-.8.776-1.125a9.556,9.556,0,0,1,.636-.816,5.789,5.789,0,0,1,.563-.658,5.061,5.061,0,0,1-.5.726c-.169.225-.377.5-.591.838s-.489.7-.737,1.125-.563.906-.816,1.435-.563,1.125-.821,1.688a25.618,25.618,0,0,0-2.081,8.371c-.034.664-.084,1.294-.073,1.885s0,1.125.045,1.648.079.956.118,1.356.084.743.129,1.024A4.666,4.666,0,0,1,298.874,218.269Z" transform="translate(-193.316 -111.95)" fill="#455a64"/>
      <path id="Path_36924" data-name="Path 36924" d="M310.6,262.613c-.068,0-1.08-2.205-2.25-5s-2.07-5.063-2-5.108a54.355,54.355,0,0,1,2.25,5,52.2,52.2,0,0,1,2,5.108Z" transform="translate(-196.857 -136.11)" fill="#455a64"/>
      <path id="Path_36925" data-name="Path 36925" d="M162.019,230.046c-.045.028-.484-.776-1.311-2a28.128,28.128,0,0,0-8.2-7.96c-1.243-.788-2.059-1.2-2.036-1.249a2.954,2.954,0,0,1,.6.248c.377.174.906.456,1.547.833a25.057,25.057,0,0,1,4.6,3.527,25.316,25.316,0,0,1,3.662,4.5c.394.63.692,1.153.878,1.525A3.1,3.1,0,0,1,162.019,230.046Z" transform="translate(-128.671 -121.381)" fill="#455a64"/>
      <path id="Path_36926" data-name="Path 36926" d="M210.231,212.469a1.638,1.638,0,0,1,0-.563,4.647,4.647,0,0,1,1.288-2.813l.034-.034v.039a1.063,1.063,0,0,1,.09.248,1.388,1.388,0,0,1-.141-.219h.051a5.626,5.626,0,0,0-.883,1.435,7.065,7.065,0,0,0-.439,1.907Z" transform="translate(-154.802 -117.103)" fill="#455a64"/>
      <path id="Path_36927" data-name="Path 36927" d="M223.375,219.069a1.687,1.687,0,0,1-.118-.563,5.327,5.327,0,0,1,.034-1.384,5.384,5.384,0,0,1,.388-1.328,1.828,1.828,0,0,1,.281-.5,8.916,8.916,0,0,0-.563,1.845A9.04,9.04,0,0,0,223.375,219.069Z" transform="translate(-160.498 -119.832)" fill="#455a64"/>
      <path id="Path_36928" data-name="Path 36928" d="M237.277,218.5a9.114,9.114,0,0,0-.214-1.558,8.213,8.213,0,0,0-.613-1.457,1.52,1.52,0,0,1,.281.377,4.225,4.225,0,0,1,.444,1.046,4.573,4.573,0,0,1,.152,1.125A1.366,1.366,0,0,1,237.277,218.5Z" transform="translate(-166.282 -119.911)" fill="#455a64"/>
      <path id="Path_36929" data-name="Path 36929" d="M248.965,213.293a9.512,9.512,0,0,0-.844-1.429,9.789,9.789,0,0,0-1.181-1.164,1.609,1.609,0,0,1,.422.253,4.7,4.7,0,0,1,.849.838,4.754,4.754,0,0,1,.608,1.029,1.547,1.547,0,0,1,.146.473Z" transform="translate(-170.871 -117.82)" fill="#455a64"/>
      <path id="Path_36930" data-name="Path 36930" d="M257.183,204.968a3.454,3.454,0,0,0-.973-1.541,3.325,3.325,0,0,0-1.66-.737h.152a2.182,2.182,0,0,1,.4.051,2.813,2.813,0,0,1,1.187.608,2.745,2.745,0,0,1,.771,1.086,1.686,1.686,0,0,1,.113.388A.563.563,0,0,1,257.183,204.968Z" transform="translate(-174.2 -114.316)" fill="#455a64"/>
      <path id="Path_36931" data-name="Path 36931" d="M261.457,190.235a3.634,3.634,0,0,0-1.48-.709,3.538,3.538,0,0,0-1.637.135,2.582,2.582,0,0,1,3.117.563Z" transform="translate(-175.858 -108.489)" fill="#455a64"/>
      <path id="Path_36932" data-name="Path 36932" d="M201.57,202.6a1.434,1.434,0,0,1,.118-.484,3.3,3.3,0,0,1,1.592-1.733,1.423,1.423,0,0,1,.473-.158A3.966,3.966,0,0,0,201.57,202.6Z" transform="translate(-151.024 -113.24)" fill="#455a64"/>
      <path id="Path_36933" data-name="Path 36933" d="M198.41,192.366a1.581,1.581,0,0,1,.281-.45,4.005,4.005,0,0,1,.939-.883,4.236,4.236,0,0,1,1.17-.563,1.6,1.6,0,0,1,.523-.09,5.232,5.232,0,0,0-2.914,1.969Z" transform="translate(-149.642 -108.931)" fill="#455a64"/>
      <path id="Path_36934" data-name="Path 36934" d="M172.416,255.344s0-.034-.034,0a.822.822,0,0,0-.051.18c-.028.174-.056.428-.09.759-.068.658-.141,1.615-.219,2.813-.163,2.368-.349,5.626-.523,9.265s-.309,6.9-.388,9.271c-.039,1.125-.068,2.1-.09,2.813a5.078,5.078,0,0,1-.034.765,1.4,1.4,0,0,1,0,.264.754.754,0,0,1-.028-.264v-3.578c0-2.374.124-5.659.3-9.282s.394-6.9.608-9.265c.107-1.187.214-2.143.315-2.813.051-.326.1-.563.146-.754a.631.631,0,0,1,.079-.191C172.41,255.276,172.427,255.355,172.416,255.344Z" transform="translate(-137.633 -137.334)" fill="#263238"/>
      <path id="Path_36935" data-name="Path 36935" d="M240.44,49.975c-4.692-1.435-9.563,2.768-14.4,1.823-2.925-.563-5.13-2.908-7.735-4.36a15,15,0,0,0-13.361-.506c-3.972,2.02-6.543,4.169-7.077,8.6-3.617-2.076-9.648,2.475-11.7,6.869s-1.541,8.928-.377,13.636a63.974,63.974,0,0,0,10.587,22.5c.439.6,1.125,1.254,1.806.939a1.637,1.637,0,0,0,.7-1.3c.692-4.3.146-8.7-.231-13.04s-.563-8.821.816-12.939,4.613-7.91,8.888-8.753c3.162-.624,6.441.4,9.248,1.98s5.277,3.685,7.949,5.479,5.676,3.308,8.894,3.443,6.672-1.373,8.039-4.287-.163-7.054-3.313-7.724a6.334,6.334,0,0,0,1.271-12.376Z" transform="translate(-143.675 -45.597)" fill="#263238"/>
      <path id="Path_36936" data-name="Path 36936" d="M231.835,130.244l-.456-9.3s12.275-2.351,12-14.7c-.135-5.957-1.418-18.216-2.7-29.292a23.009,23.009,0,0,0-23.667-20.365l-1.193.039c-12.809,1.2-18.953,12.759-17.394,25.534l2.953,49.73a15.251,15.251,0,0,0,16.033,14.328h0A15.257,15.257,0,0,0,231.835,130.244Z" transform="translate(-149.545 -50.399)" fill="#ffbe9d"/>
      <path id="Path_36937" data-name="Path 36937" d="M244.582,167.881a28.735,28.735,0,0,1-16.252-4.011s4.118,8.753,16.393,7.206Z" transform="translate(-162.73 -97.335)" fill="#eb996e"/>
      <path id="Path_36938" data-name="Path 36938" d="M263.6,106.451a1.766,1.766,0,0,1-1.637,1.834,1.688,1.688,0,0,1-1.873-1.525,1.761,1.761,0,0,1,1.631-1.84,1.688,1.688,0,0,1,1.879,1.53Z" transform="translate(-176.622 -71.543)" fill="#263238"/>
      <path id="Path_36939" data-name="Path 36939" d="M263.961,102.31c-.214.236-1.581-.7-3.477-.63s-3.252,1.069-3.465.844c-.107-.1.1-.523.692-.984a4.838,4.838,0,0,1,2.762-.962,4.63,4.63,0,0,1,2.779.793C263.854,101.792,264.062,102.2,263.961,102.31Z" transform="translate(-175.268 -69.646)" fill="#263238"/>
      <path id="Path_36940" data-name="Path 36940" d="M230.479,108.806a1.766,1.766,0,0,1-1.637,1.84,1.688,1.688,0,0,1-1.873-1.525,1.766,1.766,0,0,1,1.637-1.84,1.688,1.688,0,0,1,1.873,1.525Z" transform="translate(-162.134 -72.576)" fill="#263238"/>
      <path id="Path_36941" data-name="Path 36941" d="M230.841,104.1c-.208.236-1.581-.7-3.477-.63s-3.252,1.069-3.465.844c-.107-.1.1-.523.692-.984a4.855,4.855,0,0,1,2.768-.962,4.619,4.619,0,0,1,2.773.793C230.734,103.588,230.948,103.993,230.841,104.1Z" transform="translate(-160.78 -70.429)" fill="#263238"/>
      <path id="Path_36942" data-name="Path 36942" d="M248.253,117.71a12.364,12.364,0,0,1,3.06-.664c.484-.068.939-.18,1.013-.518a2.5,2.5,0,0,0-.377-1.423c-.5-1.153-1.013-2.368-1.558-3.634-2.177-5.181-3.769-9.451-3.555-9.563s2.138,4.045,4.309,9.226q.793,1.913,1.5,3.662a2.813,2.813,0,0,1,.321,1.89,1.221,1.221,0,0,1-.771.737,3.224,3.224,0,0,1-.821.141A10.188,10.188,0,0,1,248.253,117.71Z" transform="translate(-170.817 -70.229)" fill="#263238"/>
      <path id="Path_36943" data-name="Path 36943" d="M239.319,132.71c.309-.034.388,2.025,2.2,3.426s3.994,1.1,4.022,1.384c.034.129-.473.416-1.4.473a5.1,5.1,0,0,1-3.375-1.035,4.467,4.467,0,0,1-1.688-2.88C238.97,133.216,239.178,132.7,239.319,132.71Z" transform="translate(-167.419 -83.704)" fill="#263238"/>
      <path id="Path_36944" data-name="Path 36944" d="M229.294,87.155c-.169.518-2.07.343-4.287.686s-3.994,1.018-4.3.563c-.141-.219.152-.714.861-1.238a7.521,7.521,0,0,1,6.548-.956C228.934,86.5,229.361,86.908,229.294,87.155Z" transform="translate(-159.379 -63.206)" fill="#263238"/>
      <path id="Path_36945" data-name="Path 36945" d="M262.766,92.559c-.321.439-1.643.039-3.212.073s-2.892.394-3.218-.051c-.141-.214.056-.653.624-1.08a4.388,4.388,0,0,1,2.582-.793,4.439,4.439,0,0,1,2.593.726C262.7,91.878,262.907,92.311,262.766,92.559Z" transform="translate(-174.962 -65.329)" fill="#263238"/>
      <path id="Path_36946" data-name="Path 36946" d="M194.754,118.006c-.214-.084-8.568-2.211-8.005,6.188s8.911,6.121,8.911,5.879S194.754,118.006,194.754,118.006Z" transform="translate(-144.529 -77.141)" fill="#ffbe9d"/>
      <path id="Path_36947" data-name="Path 36947" d="M194.522,129.275c-.039,0-.141.113-.383.242a1.44,1.44,0,0,1-1.091.113c-.917-.27-1.761-1.631-1.9-3.15a4.843,4.843,0,0,1,.27-2.126,1.688,1.688,0,0,1,1.029-1.2.748.748,0,0,1,.894.343c.129.231.084.4.129.411s.174-.152.079-.5a.951.951,0,0,0-.366-.506,1.125,1.125,0,0,0-.827-.158,2.059,2.059,0,0,0-1.446,1.406,5.012,5.012,0,0,0-.349,2.385c.169,1.688,1.125,3.223,2.385,3.493a1.575,1.575,0,0,0,1.328-.309C194.522,129.483,194.55,129.292,194.522,129.275Z" transform="translate(-146.198 -79.335)" fill="#eb996e"/>
      <path id="Path_36948" data-name="Path 36948" d="M242.139,72.628a17.839,17.839,0,0,1-15.96-3.01c-3.094-2.441-5.536-6.019-9.338-7.049a10.03,10.03,0,0,0-7.628,1.322,19.341,19.341,0,0,0-5.626,5.541c2.6,6.188,1.249,13.248-.146,19.813a3.375,3.375,0,0,1-.917,1.986c-.968.8-2.487.253-3.375-.624a10.413,10.413,0,0,1-2.481-5.423,34.659,34.659,0,0,1-.411-13.681,23.627,23.627,0,0,1,6.076-12.151,22.39,22.39,0,0,1,15.5-6.492A27.52,27.52,0,0,1,233.971,58a15.872,15.872,0,0,1,5.389,5.789" transform="translate(-148.485 -48.774)" fill="#263238"/>
      <path id="Path_36949" data-name="Path 36949" d="M255.3,56.374a1.76,1.76,0,0,1-.051.737,3.409,3.409,0,0,1-1.125,1.778,5.367,5.367,0,0,1-3.111,1.17A9.107,9.107,0,0,1,248.923,60a4.45,4.45,0,0,1-2.177-.928,2.965,2.965,0,0,1-1.125-2.346,2.621,2.621,0,0,1,1.688-2.216,3.342,3.342,0,0,1,1.513-.248,2.773,2.773,0,0,1,1.468.6,3.842,3.842,0,0,1,1.361,2.9,4.461,4.461,0,0,1-1.221,3.145,6.751,6.751,0,0,1-3,1.84,11.088,11.088,0,0,1-7.234-.529,31.667,31.667,0,0,1-6.391-3.538,40.1,40.1,0,0,0-5.789-3.415,12.489,12.489,0,0,0-5.845-1.209,11.949,11.949,0,0,0-4.979,1.5,15,15,0,0,0-5.423,5.288,19.262,19.262,0,0,0-1.029,1.806,5.286,5.286,0,0,1-.332.653.675.675,0,0,1,.056-.18c.039-.113.1-.287.2-.506a15.043,15.043,0,0,1,.951-1.879,14.767,14.767,0,0,1,5.412-5.462,12.163,12.163,0,0,1,5.125-1.558,12.787,12.787,0,0,1,6.031,1.2,40.223,40.223,0,0,1,5.873,3.454,31.879,31.879,0,0,0,6.295,3.493,10.769,10.769,0,0,0,6.97.529,6.424,6.424,0,0,0,2.8-1.772,4.033,4.033,0,0,0,1.125-2.813,3.465,3.465,0,0,0-1.2-2.627,2.537,2.537,0,0,0-2.622-.321,2.3,2.3,0,0,0-1.525,1.913,2.7,2.7,0,0,0,1.007,2.1,4.248,4.248,0,0,0,2.036.883,9,9,0,0,0,2.036.084,5.271,5.271,0,0,0,3.083-1.08,3.488,3.488,0,0,0,1.125-1.688A5.623,5.623,0,0,0,255.3,56.374Z" transform="translate(-154.891 -49.144)" fill="#455a64"/>
      <path id="Path_36950" data-name="Path 36950" d="M185,81.27a14.384,14.384,0,0,0,2.6.563,7.409,7.409,0,0,0,2.813-.394,12.308,12.308,0,0,0,3.111-1.637,9.906,9.906,0,0,0,3.583-5.159,21.134,21.134,0,0,0,.467-2.633,2.318,2.318,0,0,1,.067.731,8.061,8.061,0,0,1-.253,1.98,9.614,9.614,0,0,1-3.623,5.423,11.943,11.943,0,0,1-3.235,1.688,7.144,7.144,0,0,1-2.965.321,6.829,6.829,0,0,1-1.935-.518A2.07,2.07,0,0,1,185,81.27Z" transform="translate(-143.776 -57.151)" fill="#455a64"/>
      <path id="Path_36951" data-name="Path 36951" d="M186.06,92.047c0-.079,1,.107,2.593-.039a11.594,11.594,0,0,0,9.614-6.852c.658-1.457.8-2.453.883-2.436a2.211,2.211,0,0,1-.068.7,9.383,9.383,0,0,1-.563,1.845,11.178,11.178,0,0,1-9.85,7.038,9.811,9.811,0,0,1-1.924-.09A2.25,2.25,0,0,1,186.06,92.047Z" transform="translate(-144.24 -61.836)" fill="#455a64"/>
      <path id="Path_36952" data-name="Path 36952" d="M225.354,119.833a.214.214,0,0,1-.253-.174.208.208,0,0,1,.146-.27.231.231,0,0,1,.107.444Z" transform="translate(-161.313 -77.876)" fill="#eb996e"/>
      <path id="Path_36953" data-name="Path 36953" d="M231.791,118.091a.27.27,0,0,1-.118-.512.248.248,0,0,1,.264.208.242.242,0,0,1-.146.3Z" transform="translate(-164.127 -77.085)" fill="#eb996e"/>
      <path id="Path_36954" data-name="Path 36954" d="M236.078,117.7c-.118,0-.231-.118-.264-.3s.039-.354.152-.371.231.118.264.3S236.19,117.687,236.078,117.7Z" transform="translate(-166 -76.844)" fill="#eb996e"/>
      <path id="Path_36955" data-name="Path 36955" d="M228.7,123.9c-.113,0-.214-.051-.214-.124s.09-.141.2-.141.214.051.214.124S228.822,123.9,228.7,123.9Z" transform="translate(-162.8 -79.736)" fill="#eb996e"/>
      <path id="Path_36956" data-name="Path 36956" d="M234.543,122.162a.239.239,0,0,1-.056-.473.231.231,0,0,1,.236.214.225.225,0,0,1-.18.259Z" transform="translate(-165.343 -78.883)" fill="#eb996e"/>
      <path id="Path_36957" data-name="Path 36957" d="M265.14,117.424a.219.219,0,0,1-.259-.18.214.214,0,0,1,.146-.276.236.236,0,0,1,.113.456Z" transform="translate(-178.714 -76.817)" fill="#eb996e"/>
      <path id="Path_36958" data-name="Path 36958" d="M269.528,116.823a.27.27,0,0,1-.067-.523.257.257,0,0,1,.242.231A.248.248,0,0,1,269.528,116.823Z" transform="translate(-180.644 -76.526)" fill="#eb996e"/>
      <path id="Path_36959" data-name="Path 36959" d="M261.312,117.712a.186.186,0,1,1,.163-.225A.2.2,0,0,1,261.312,117.712Z" transform="translate(-177.069 -76.981)" fill="#eb996e"/>
      <path id="Path_36960" data-name="Path 36960" d="M264.629,121.963a.236.236,0,0,1-.293-.129.225.225,0,0,1,.084-.309.248.248,0,0,1,.208.439Z" transform="translate(-178.468 -78.807)" fill="#eb996e"/>
      <path id="Path_36961" data-name="Path 36961" d="M268.471,121.149a.191.191,0,0,1-.163-.219.2.2,0,0,1,.248-.118.191.191,0,0,1,.163.214.2.2,0,0,1-.248.124Z" transform="translate(-180.217 -78.495)" fill="#eb996e"/>
      <path id="Path_36962" data-name="Path 36962" d="M256.544,330.026l-.135-12.506s-8.343-11.561-5.063-24.1c0,0,5.44-3.825,20.027-1.586,0,0,18.311-17.839,42.856-13.3s26.828,25.923,27.065,31.745.18,17.13-8.27,28.184l-.563,10.97s-2.014,4.129-7.836,3.848-5.5-1.125-5.5-1.125-7.313,5.9-7.628,7.443-1.463,7.386-1.463,7.386a11.224,11.224,0,0,1-8.011,3.854,11.859,11.859,0,0,1-6.261-1.283,6.188,6.188,0,0,1-3.1-3.64,12.826,12.826,0,0,0-6.88-7.926l-3.78-.99s-1.525,1.389-6.829,1.958-5.327-1.311-5.327-1.311-8.253,1.907-14.452-6.188C250.5,345.057,247.841,333.542,256.544,330.026Z" transform="translate(-172.464 -147.171)" fill="#f8951d"/>
      <path id="Path_36963" data-name="Path 36963" d="M342.692,349.95a3.341,3.341,0,0,1,.276-.383c.186-.247.461-.608.8-1.08.692-.939,1.66-2.329,2.728-4.124a47.459,47.459,0,0,0,3.229-6.571c.512-1.283.99-2.65,1.412-4.084a8.689,8.689,0,0,0,.405-4.5,6.4,6.4,0,0,0-2.7-3.544,19.448,19.448,0,0,0-3.814-1.986,25.7,25.7,0,0,0-7.088-1.688,26.1,26.1,0,0,0-4.928,0c-.563.051-1.029.107-1.339.152a2.413,2.413,0,0,1-.467.051,2.969,2.969,0,0,1,.461-.107c.3-.062.748-.141,1.333-.208a23.781,23.781,0,0,1,4.956-.1,24.915,24.915,0,0,1,7.2,1.637,19.372,19.372,0,0,1,3.876,2,6.644,6.644,0,0,1,2.813,3.713,9.07,9.07,0,0,1-.411,4.658,41.368,41.368,0,0,1-1.44,4.107,45.45,45.45,0,0,1-3.3,6.576,44.293,44.293,0,0,1-2.813,4.084c-.36.467-.653.816-.849,1.046A2.491,2.491,0,0,1,342.692,349.95Z" transform="translate(-207.734 -166.375)" fill="#263238"/>
      <path id="Path_36964" data-name="Path 36964" d="M278.262,303.72a.973.973,0,0,1,.084.287,3.07,3.07,0,0,1,.039.872,4.911,4.911,0,0,1-1.406,2.841,36.995,36.995,0,0,1-3.673,2.953,30.907,30.907,0,0,0-4.112,3.989,32.565,32.565,0,0,0-5.412,8.855c-.506,1.238-.838,2.25-1.063,2.982-.1.332-.18.608-.248.827a1.316,1.316,0,0,1-.1.281,1.081,1.081,0,0,1,.045-.3c.056-.225.118-.5.2-.844a27.345,27.345,0,0,1,.979-3.021,30.891,30.891,0,0,1,5.384-8.973,29.984,29.984,0,0,1,4.163-4.005,42.869,42.869,0,0,0,3.7-2.886,4.951,4.951,0,0,0,1.44-2.712A5.332,5.332,0,0,0,278.262,303.72Z" transform="translate(-177.621 -158.511)" fill="#263238"/>
      <g id="Group_8780" data-name="Group 8780" transform="translate(110.452 132.191)" opacity="0.5">
        <path id="Path_36965" data-name="Path 36965" d="M308.06,295.128l7.465,1.907s10.93-12.281,22.935-15.392l-4.5-1.063a51.947,51.947,0,0,0-25.9,14.548Z" transform="translate(-308.06 -280.58)"/>
      </g>
      <path id="Path_36966" data-name="Path 36966" d="M336.025,281.044a50.422,50.422,0,0,0-25.647,14.626l-2.318-.563s10.587-11.617,25.906-14.548Z" transform="translate(-197.608 -148.38)" fill="#f8951d"/>
      <g id="Group_8781" data-name="Group 8781" transform="translate(110.452 132.18)" opacity="0.7">
        <path id="Path_36967" data-name="Path 36967" d="M336.025,281.044a50.422,50.422,0,0,0-25.647,14.626l-2.318-.563s10.587-11.617,25.906-14.548Z" transform="translate(-308.06 -280.56)"/>
      </g>
      <path id="Path_36968" data-name="Path 36968" d="M254.77,372.306c4.135-5.918,14.508-4.107,19.239,1.215s6.829,12.646,3.752,18.958c-1.316,2.695-3.837,5.063-6.835,5.007a14.064,14.064,0,0,0,3.207-12.517,20.2,20.2,0,0,0-7.268-11.15c-1.783-1.44-3.792-3.021-6.076-3.246s-4.112-.293-6.019,1.733" transform="translate(-174.296 -186.903)" fill="#f8951d"/>
      <g id="Group_8782" data-name="Group 8782" transform="translate(80.474 181.721)" opacity="0.3">
        <path id="Path_36969" data-name="Path 36969" d="M254.77,372.306c4.135-5.918,14.508-4.107,19.239,1.215s6.829,12.646,3.752,18.958c-1.316,2.695-3.837,5.063-6.835,5.007a14.064,14.064,0,0,0,3.207-12.517,20.2,20.2,0,0,0-7.268-11.15c-1.783-1.44-3.792-3.021-6.076-3.246s-4.112-.293-6.019,1.733" transform="translate(-254.77 -368.624)"/>
      </g>
      <g id="Group_8783" data-name="Group 8783" transform="translate(135.278 166.648)" opacity="0.3">
        <path id="Path_36970" data-name="Path 36970" d="M352.286,358.409a2.574,2.574,0,0,0,2.312,2.509,3.972,3.972,0,0,0,3.313-1.451,9.238,9.238,0,0,0,1.688-3.33,35.141,35.141,0,0,0,1.283-14.306c-1.789,5.44-4.984,12.224-8.692,16.59" transform="translate(-352.19 -341.83)"/>
      </g>
      <g id="Group_8784" data-name="Group 8784" transform="translate(122.19 158.422)" opacity="0.3">
        <path id="Path_36971" data-name="Path 36971" d="M346.03,333.307c-.8-2.38-3.268-3.769-5.626-4.59a27.076,27.076,0,0,0-7.5-1.474,5.908,5.908,0,0,0-2.391.231,2.374,2.374,0,0,0-1.57,1.688,1.581,1.581,0,0,0,.8,1.631A44.577,44.577,0,0,1,338.671,347a1.519,1.519,0,0,0,2.61.563c1.913-2.183,3.015-5.125,4.005-7.915C346,337.6,346.727,335.361,346.03,333.307Z" transform="translate(-328.925 -327.208)"/>
      </g>
      <g id="Group_8785" data-name="Group 8785" transform="translate(81.724 148.65)" opacity="0.3">
        <path id="Path_36972" data-name="Path 36972" d="M260.777,326.805A23.835,23.835,0,0,1,257,313.45a3.921,3.921,0,0,1,.838-2.785c.838-.861,2.2-.878,3.375-.8a64.424,64.424,0,0,1,9.85,1.384c.253.056.563.141.641.383a.962.962,0,0,1-.219,1.125c-5.035,3.088-8.607,8.77-10.509,14.328" transform="translate(-256.992 -309.836)"/>
      </g>
      <path id="Path_36973" data-name="Path 36973" d="M252.23,306.36a5.064,5.064,0,0,1-.039.849c-.045.563-.1,1.333-.129,2.306a35.03,35.03,0,0,0,1.463,11.645c.383,1.232.782,2.318,1.164,3.218s.714,1.615.956,2.1a4.124,4.124,0,0,1,.349.776,4.99,4.99,0,0,1-.45-.72c-.276-.473-.636-1.181-1.041-2.076a29.387,29.387,0,0,1-1.238-3.212,34.759,34.759,0,0,1-1-4.1,33.656,33.656,0,0,1-.411-7.611c.062-.973.141-1.766.225-2.306A4.58,4.58,0,0,1,252.23,306.36Z" transform="translate(-172.994 -159.666)" fill="#fafafa"/>
      <path id="Path_36974" data-name="Path 36974" d="M333.081,279.859a1.388,1.388,0,0,1-.293.107l-.844.248c-.371.1-.821.225-1.339.394s-1.125.332-1.75.563c-1.3.433-2.813,1.013-4.472,1.721a56.617,56.617,0,0,0-5.26,2.6c-1.817,1.013-3.482,2.1-4.962,3.128s-2.757,2.042-3.8,2.925c-.534.422-.99.844-1.4,1.2s-.754.669-1.029.934l-.653.591c-.152.135-.236.2-.242.191a1.389,1.389,0,0,1,.2-.231l.613-.636c.264-.276.6-.6,1-.968s.844-.8,1.373-1.238c1.029-.906,2.307-1.924,3.775-2.987a58.444,58.444,0,0,1,4.979-3.162,57.586,57.586,0,0,1,5.294-2.593c1.688-.7,3.207-1.26,4.5-1.688.653-.219,1.249-.371,1.772-.523s.979-.264,1.356-.349l.855-.191A1.063,1.063,0,0,1,333.081,279.859Z" transform="translate(-197.161 -148.073)" fill="#fafafa"/>
      <path id="Path_36975" data-name="Path 36975" d="M349.388,328.43c-.045.051-.894-.816-2.526-1.856a20.713,20.713,0,0,0-3-1.57,22.841,22.841,0,0,0-3.938-1.243,24.279,24.279,0,0,0-7.5-.456c-1.924.2-3.088.518-3.105.456a5.525,5.525,0,0,1,.816-.236,16.816,16.816,0,0,1,2.25-.422,22.581,22.581,0,0,1,7.595.371,22.188,22.188,0,0,1,3.994,1.283,18.78,18.78,0,0,1,3.01,1.648l.563.388.489.388a6.95,6.95,0,0,1,.754.647,5.326,5.326,0,0,1,.608.6Z" transform="translate(-206.903 -166.919)" fill="#fafafa"/>
      <path id="Path_36976" data-name="Path 36976" d="M265.411,401.433a.958.958,0,0,1-.27-.073,7.82,7.82,0,0,1-.748-.27,17.349,17.349,0,0,1-2.627-1.305,19.3,19.3,0,0,1-9.383-16.072,17.155,17.155,0,0,1,.152-2.925c.039-.343.1-.608.129-.788a1.792,1.792,0,0,1,.068-.27,8.169,8.169,0,0,1-.084,1.069,20.487,20.487,0,0,0-.062,2.908,19.751,19.751,0,0,0,9.288,15.9,21.726,21.726,0,0,0,2.565,1.378A8.1,8.1,0,0,1,265.411,401.433Z" transform="translate(-173.248 -191.761)" fill="#fafafa"/>
      <g id="Group_8786" data-name="Group 8786" transform="translate(90.355 196.55)" opacity="0.2">
        <path id="Path_36977" data-name="Path 36977" d="M275.617,395.111a2.374,2.374,0,0,0-2.52.647,3.083,3.083,0,0,0-.714,2.571,3.938,3.938,0,0,0,1.074,2.346,3.33,3.33,0,0,0,1.856.906,2.385,2.385,0,0,0,2.087-1.333,3.69,3.69,0,0,0-1.783-5.136" transform="translate(-272.335 -394.984)"/>
      </g>
      <path id="Path_36978" data-name="Path 36978" d="M274.637,395a3.747,3.747,0,0,0,2,6.031,2.149,2.149,0,0,1-1.89.5,3.882,3.882,0,0,1-2.644-4.005,2.97,2.97,0,0,1,.816-1.9,2.548,2.548,0,0,1,1.721-.624" transform="translate(-181.871 -198.441)" fill="#f8951d"/>
      <g id="Group_8787" data-name="Group 8787" transform="translate(90.215 196.558)" opacity="0.4">
        <path id="Path_36979" data-name="Path 36979" d="M274.637,395a3.747,3.747,0,0,0,2,6.031,2.149,2.149,0,0,1-1.89.5,3.882,3.882,0,0,1-2.644-4.005,2.97,2.97,0,0,1,.816-1.9,2.548,2.548,0,0,1,1.721-.624" transform="translate(-272.086 -394.999)"/>
      </g>
      <g id="Group_8788" data-name="Group 8788" transform="translate(82.178 193.358)" opacity="0.2">
        <path id="Path_36980" data-name="Path 36980" d="M260.967,389.428a2.306,2.306,0,0,0-2.43.63,2.976,2.976,0,0,0-.692,2.481,3.9,3.9,0,0,0,1.041,2.25,3.235,3.235,0,0,0,1.795.872,2.29,2.29,0,0,0,2.008-1.283,3.572,3.572,0,0,0-1.721-4.962" transform="translate(-257.799 -389.309)"/>
      </g>
      <path id="Path_36981" data-name="Path 36981" d="M260.027,389.339a3.606,3.606,0,0,0,1.93,5.817,2.093,2.093,0,0,1-1.828.489,3.752,3.752,0,0,1-2.548-3.87,2.847,2.847,0,0,1,.782-1.828,2.47,2.47,0,0,1,1.688-.608" transform="translate(-175.52 -195.965)" fill="#f8951d"/>
      <g id="Group_8789" data-name="Group 8789" transform="translate(82.047 193.374)" opacity="0.4">
        <path id="Path_36982" data-name="Path 36982" d="M260.027,389.339a3.606,3.606,0,0,0,1.93,5.817,2.093,2.093,0,0,1-1.828.489,3.752,3.752,0,0,1-2.548-3.87,2.847,2.847,0,0,1,.782-1.828,2.47,2.47,0,0,1,1.688-.608" transform="translate(-257.567 -389.338)"/>
      </g>
      <path id="Path_36983" data-name="Path 36983" d="M303.19,361.38Z" transform="translate(-195.477 -183.734)" fill="#263238"/>
      <path id="Path_36984" data-name="Path 36984" d="M301.37,361.969a.1.1,0,0,0,.079-.039h.039Z" transform="translate(-194.681 -183.975)" fill="#263238"/>
      <path id="Path_36985" data-name="Path 36985" d="M303.931,363.5a3.2,3.2,0,0,0-1.457-1.688,3.775,3.775,0,0,0-1.721-.4H300.7a2.182,2.182,0,0,0-.945.281,4.09,4.09,0,0,0-2.25,3.291,4.5,4.5,0,0,0,2.588,4.275,2.723,2.723,0,0,0,1.727.259,2.689,2.689,0,0,0,1.446-1.018A5.063,5.063,0,0,0,303.931,363.5Z" transform="translate(-192.989 -183.747)" fill="#263238"/>
      <path id="Path_36986" data-name="Path 36986" d="M272,351.77Z" transform="translate(-181.833 -179.53)" fill="#263238"/>
      <path id="Path_36987" data-name="Path 36987" d="M270.46,352.244a.423.423,0,0,1,.073-.034h.034Z" transform="translate(-181.16 -179.723)" fill="#263238"/>
      <path id="Path_36988" data-name="Path 36988" d="M272.658,353.574a2.751,2.751,0,0,0-1.266-1.485,3.251,3.251,0,0,0-1.485-.349h-.062a1.884,1.884,0,0,0-.816.248,3.533,3.533,0,0,0-1.952,2.852,3.887,3.887,0,0,0,2.25,3.7,2.031,2.031,0,0,0,2.745-.653A4.4,4.4,0,0,0,272.658,353.574Z" transform="translate(-179.678 -179.517)" fill="#263238"/>
      <path id="Path_36989" data-name="Path 36989" d="M279,371.71a1.4,1.4,0,0,1,.349.068,9.869,9.869,0,0,1,.979.3,12.94,12.94,0,0,1,3.308,1.795,14.84,14.84,0,0,1,3.786,4.107,17.332,17.332,0,0,1,2.352,6.413,20.411,20.411,0,0,1-.079,6.841,10.3,10.3,0,0,1-2.335,5.063,6.846,6.846,0,0,1-3.162,2.02,3.8,3.8,0,0,1-1.367.186,8.469,8.469,0,0,0,1.333-.293,6.97,6.97,0,0,0,3.043-2.053,10.239,10.239,0,0,0,2.222-4.962,20.319,20.319,0,0,0,.051-6.751,17.309,17.309,0,0,0-2.29-6.318,14.98,14.98,0,0,0-3.679-4.084,14.317,14.317,0,0,0-3.223-1.856C279.484,371.873,279,371.738,279,371.71Z" transform="translate(-184.896 -188.253)" fill="#263238"/>
      <path id="Path_36990" data-name="Path 36990" d="M268.973,357.56c-.028,0-.174-.1-.326-.366a2.5,2.5,0,0,1-.287-1.125,2.436,2.436,0,0,1,.281-1.125c.152-.264.293-.388.326-.366a6.475,6.475,0,0,0-.315,1.508,6.751,6.751,0,0,0,.321,1.474Z" transform="translate(-180.241 -180.758)" fill="#fafafa"/>
      <path id="Path_36991" data-name="Path 36991" d="M299.248,368.511c-.034,0-.174-.129-.3-.428a2.329,2.329,0,0,1-.118-1.243,2.25,2.25,0,0,1,.518-1.125c.214-.247.394-.338.416-.309a5.164,5.164,0,0,0-.647,1.491,4.815,4.815,0,0,0,.129,1.615Z" transform="translate(-193.555 -185.493)" fill="#fafafa"/>
      <path id="Path_36992" data-name="Path 36992" d="M307.905,419.592c-.028.045-.709-.428-1.9-1.024a35.8,35.8,0,0,0-4.832-1.913c-1.941-.63-3.707-1.17-4.973-1.62-.63-.219-1.125-.411-1.485-.563a2.464,2.464,0,0,1-.523-.253,20.353,20.353,0,0,1,2.076.619c1.271.4,3.049.906,5,1.541a28.425,28.425,0,0,1,4.838,2.008c.3.152.563.315.782.456a5.46,5.46,0,0,1,.563.383A2.248,2.248,0,0,1,307.905,419.592Z" transform="translate(-191.54 -206.849)" fill="#263238"/>
      <path id="Path_36993" data-name="Path 36993" d="M376.335,391.56a5.931,5.931,0,0,1-.518.793c-.338.5-.872,1.2-1.553,2.048a58.35,58.35,0,0,1-5.884,6.109c-2.458,2.25-4.748,4.157-6.368,5.6L360.1,407.8a5.741,5.741,0,0,1-.72.608,5.563,5.563,0,0,1,.641-.686c.428-.433,1.063-1.041,1.856-1.783,1.586-1.48,3.854-3.437,6.3-5.659a68.558,68.558,0,0,0,5.924-6.025c.7-.821,1.26-1.5,1.626-1.98a6.039,6.039,0,0,1,.608-.709Z" transform="translate(-220.057 -196.936)" fill="#263238"/>
      <g id="Group_8790" data-name="Group 8790" transform="translate(146.715 193.735)" opacity="0.2">
        <path id="Path_36994" data-name="Path 36994" d="M372.52,401.287a11.271,11.271,0,0,0,8.613-2.813,7.769,7.769,0,0,0,1.6-8.495,37.84,37.84,0,0,1-6.188,7.257c-1.53,1.3-2.548,2.875-4.028,4.067" transform="translate(-372.52 -389.98)"/>
      </g>
      <g id="Group_8791" data-name="Group 8791" transform="translate(135.908 131.803)" opacity="0.5">
        <path id="Path_36995" data-name="Path 36995" d="M353.338,282.376c3.938,5.794,12.011,7.628,15.915,13.434a25.511,25.511,0,0,1,2.982,7.516l9,32.476c.371-7.038-1.322-14-3.01-20.848q-2.486-10.126-4.99-20.252a9.423,9.423,0,0,0-5.119-7.308c-4.624-3.105-9.383-6.267-14.806-7.5" transform="translate(-353.31 -279.89)"/>
      </g>
      <g id="Group_8792" data-name="Group 8792" transform="translate(89.086 151.009)" opacity="0.3">
        <path id="Path_36996" data-name="Path 36996" d="M289.319,314.851c.248.788-.833,1.862-2.515,3.2-.849.664-1.84,1.423-2.931,2.25s-2.25,1.733-3.471,2.712-2.323,1.952-3.375,2.813-1.969,1.721-2.813,2.413c-1.648,1.378-2.914,2.216-3.64,1.811s-.675-2,.287-4.242a17.539,17.539,0,0,1,2.177-3.645,22.6,22.6,0,0,1,8.011-6.52,17.9,17.9,0,0,1,4.011-1.389C287.474,313.783,289.083,314.1,289.319,314.851Z" transform="translate(-270.079 -314.03)" fill="#fff"/>
      </g>
      <path id="Path_36997" data-name="Path 36997" d="M275.544,394.344a6.019,6.019,0,0,1-1.277.309,6.377,6.377,0,0,1-1.277.3,2.109,2.109,0,0,1,1.21-.563A2.194,2.194,0,0,1,275.544,394.344Z" transform="translate(-182.267 -198.117)" fill="#fafafa"/>
      <path id="Path_36998" data-name="Path 36998" d="M260.524,388.769a11.445,11.445,0,0,0-2.346.54c-.034-.073.394-.461,1.091-.619a1.626,1.626,0,0,1,1.254.079Z" transform="translate(-175.787 -195.641)" fill="#fafafa"/>
      <path id="Path_36999" data-name="Path 36999" d="M326.732,431.227c-.079.039-.827-1.221-1.868-2.7s-1.969-2.61-1.907-2.667a11.674,11.674,0,0,1,2.149,2.5,11.932,11.932,0,0,1,1.626,2.869Z" transform="translate(-204.123 -211.941)" fill="#fafafa"/>
      <path id="Path_37000" data-name="Path 37000" d="M267.375,330.45c.079.051-1.029,1.688-1.991,3.882s-1.423,4.112-1.513,4.09a4.411,4.411,0,0,1,.225-1.266,18.7,18.7,0,0,1,1.018-2.942,18.922,18.922,0,0,1,1.48-2.74,5.064,5.064,0,0,1,.782-1.024Z" transform="translate(-178.277 -170.204)" fill="#fafafa"/>
      <path id="Path_37001" data-name="Path 37001" d="M313.829,309.426a11.465,11.465,0,0,1-3.156-.771,11.98,11.98,0,0,1-2.953-1.361c.039-.079,1.367.5,3.049,1.08S313.852,309.342,313.829,309.426Z" transform="translate(-197.459 -160.072)" fill="#fafafa"/>
      <path id="Path_37002" data-name="Path 37002" d="M392.359,294.88a9,9,0,0,1-5.429,3.493,31.469,31.469,0,0,0,2.886-1.48A31.95,31.95,0,0,0,392.359,294.88Z" transform="translate(-232.109 -154.644)" fill="#eb996e"/>
      <path id="Path_37003" data-name="Path 37003" d="M386.754,263.509c-3.027-6.976-33.258-31.739-33.258-31.739L336.45,253.9c.247-.332,27.807,16.455,27.807,16.455l8.129,37.061h0l1.4,6.616s-3.657,3.19-3.5,6.554c.1,2.25-5.063,7.094-5.063,7.094-1.226-1.018-2.014-1.305-2.633-1.187l-5.485,5.136,1.305,1.193a7.572,7.572,0,0,0,5.339,1.975l9.378-.287a5.136,5.136,0,0,0,3.538-1.558c2.886-2.965,8.973-9.6,9.091-12.793.073-1.789.084-3.493.079-4.866C385.8,315.276,389.775,270.485,386.754,263.509Z" transform="translate(-210.027 -127.037)" fill="#ffbe9d"/>
      <path id="Path_37004" data-name="Path 37004" d="M399.935,393.54a1.929,1.929,0,0,1-.523.338c-.343.191-.872.416-1.485.754a6.537,6.537,0,0,0-1.84,1.581,10.582,10.582,0,0,1-2.25,2.093,8.793,8.793,0,0,1-5.311,1.463,2.881,2.881,0,0,1-.968-.169.675.675,0,0,1-.45-.6.506.506,0,0,1,.2-.433c.1-.056.157-.045.157-.039a.235.235,0,0,0-.124.084.439.439,0,0,0-.118.383.563.563,0,0,0,.4.456,2.745,2.745,0,0,0,.911.113,9,9,0,0,0,5.147-1.5,10.629,10.629,0,0,0,2.2-2.025,6.48,6.48,0,0,1,1.941-1.592c.641-.321,1.176-.512,1.536-.675a3.617,3.617,0,0,1,.579-.236Z" transform="translate(-232.187 -197.802)" fill="#eb996e"/>
      <path id="Path_37005" data-name="Path 37005" d="M399.915,402.22c.039.073-.737.529-1.57,1.238s-1.418,1.389-1.485,1.339a4.343,4.343,0,0,1,1.305-1.553A4.174,4.174,0,0,1,399.915,402.22Z" transform="translate(-236.453 -201.599)" fill="#eb996e"/>
      <path id="Path_37006" data-name="Path 37006" d="M406.454,374.907c0,.084-.827.135-1.733.563s-1.48,1.029-1.541.968a3.5,3.5,0,0,1,3.274-1.541Z" transform="translate(-239.217 -189.639)" fill="#eb996e"/>
      <path id="Path_37007" data-name="Path 37007" d="M390.31,405.505c0,.051-.6-.242-1.615-.478a9.1,9.1,0,0,0-5.1.214,4.257,4.257,0,0,1-.563.169.8.8,0,0,1-.6-.129l-1.463-1.1a9.346,9.346,0,0,1-1.322-1.058,10.428,10.428,0,0,1,1.446.889l1.513,1.029c.242.186.563.045.917-.084a9.672,9.672,0,0,1,1.125-.315,8.776,8.776,0,0,1,4.1.169,7.22,7.22,0,0,1,1.165.444C390.181,405.4,390.322,405.488,390.31,405.505Z" transform="translate(-228.924 -201.993)" fill="#eb996e"/>
      <path id="Path_37008" data-name="Path 37008" d="M209.5,240.19c-3.606-1.029-5.2-1.474-5.2-1.474v-1.654h1.435c1.44,0,3.51-1.795,3.51-1.795l3.077-4.709.394-3.021c-.326-3.724-4.815-2.25-4.815-2.25-.214-1.3-5.963-2.6-10.284-3.409a9.935,9.935,0,0,0-8.23,2.171l-4.146,3.5-12.421,10.863L140.748,265.5l-21.079-6.222s-6.706,20.505-7.791,27.852c-2.1,14.115,17.3,23.52,25.878,16.258,6.649-5.626,45.432-47.412,51.856-54.337h.051c3.938-.5,10.621-4.5,10.621-4.5l3.426.405s9.1,1.738,10.182-.045C214.7,243.531,213.1,241.219,209.5,240.19Z" transform="translate(-111.72 -122.636)" fill="#ffbe9d"/>
      <path id="Path_37009" data-name="Path 37009" d="M251.032,247.28a2.192,2.192,0,0,1,.2.394,7.171,7.171,0,0,1,.371,1.153,10.345,10.345,0,0,1,.146,3.977,10.171,10.171,0,0,1-1.373,3.735,7.01,7.01,0,0,1-.709.979c-.186.219-.3.332-.315.315s.36-.518.844-1.4a11.251,11.251,0,0,0,1.209-7.572C251.206,247.882,250.981,247.3,251.032,247.28Z" transform="translate(-171.925 -133.822)" fill="#eb996e"/>
      <path id="Path_37010" data-name="Path 37010" d="M256.47,226.646a2.307,2.307,0,0,1,.349-.062c.236-.034.563-.079,1.018-.118a15.814,15.814,0,0,1,3.78.039,9.08,9.08,0,0,1,2.515.754,6.7,6.7,0,0,1,2.391,1.834,4.889,4.889,0,0,1,1.153,3.122,3.887,3.887,0,0,1-.444,1.738,6.189,6.189,0,0,1-1.125,1.463,17.289,17.289,0,0,1-2.751,2.166,9.2,9.2,0,0,1-1.48.81,2.019,2.019,0,0,1-.844.141,1.063,1.063,0,0,1-.776-.394,1.221,1.221,0,0,1-.242-.8,2.492,2.492,0,0,1,.141-.771,5.625,5.625,0,0,1,.658-1.3,5.468,5.468,0,0,1,1.935-1.738l.034.2-3.837-.731-1.041-.214a1.58,1.58,0,0,1-.36-.1,2.036,2.036,0,0,1,.371.034l1.046.163,3.854.636.3.051-.264.146a5.35,5.35,0,0,0-1.834,1.688,5.157,5.157,0,0,0-.613,1.249,1.434,1.434,0,0,0,.068,1.322,1.125,1.125,0,0,0,1.311.158,8.436,8.436,0,0,0,1.418-.788,16.836,16.836,0,0,0,2.7-2.132,4.354,4.354,0,0,0,1.468-3,4.641,4.641,0,0,0-1.074-2.948,6.554,6.554,0,0,0-2.29-1.783,8.9,8.9,0,0,0-2.441-.765,17.1,17.1,0,0,0-3.735-.135l-1.024.062A1.311,1.311,0,0,1,256.47,226.646Z" transform="translate(-175.04 -124.676)" fill="#eb996e"/>
      <path id="Path_37011" data-name="Path 37011" d="M276.981,228.38a2.5,2.5,0,0,1,.1.608,14.44,14.44,0,0,1,.068,1.688,10.728,10.728,0,0,1-1.4,5.322,6.612,6.612,0,0,1-4.343,3.291,1.834,1.834,0,0,1-1.586-.563,1.221,1.221,0,0,1-.236-.405.31.31,0,0,1-.028-.158,2.559,2.559,0,0,0,.349.484,1.75,1.75,0,0,0,1.479.416,6.63,6.63,0,0,0,4.112-3.229,11.252,11.252,0,0,0,1.446-5.181C277.009,229.252,276.93,228.38,276.981,228.38Z" transform="translate(-180.761 -125.554)" fill="#eb996e"/>
      <path id="Path_37012" data-name="Path 37012" d="M268.608,252.128c-.034-.039.259-.293.608-.8a4.754,4.754,0,0,0,.81-2.188,4.675,4.675,0,0,0-.377-2.306c-.242-.563-.478-.866-.439-.894a2.02,2.02,0,0,1,.624.8,4.27,4.27,0,0,1-.456,4.709A2.1,2.1,0,0,1,268.608,252.128Z" transform="translate(-180.348 -133.236)" fill="#eb996e"/>
      <path id="Path_37013" data-name="Path 37013" d="M255.1,238a1.823,1.823,0,0,1,.18,1.232,3.251,3.251,0,0,1-.394,1.316,6.076,6.076,0,0,1-.956,1.361,7,7,0,0,1-2.526,1.615,4.826,4.826,0,0,1-1.176.394,5.491,5.491,0,0,1,1.091-.563,8.057,8.057,0,0,0,2.4-1.631,6.458,6.458,0,0,0,.934-1.294,3.336,3.336,0,0,0,.428-1.209A5.914,5.914,0,0,0,255.1,238Z" transform="translate(-172.31 -129.762)" fill="#eb996e"/>
      <path id="Path_37014" data-name="Path 37014" d="M289.1,240.94l-15.825,8.624a36.969,36.969,0,0,1,16.157,10.227,46.59,46.59,0,0,1,9.631,15.318l15.752-10.486S306.341,245.418,289.1,240.94Z" transform="translate(-182.393 -131.049)" fill="#455a64"/>
      <path id="Path_37015" data-name="Path 37015" d="M278.24,250.013l12.776-7.313h.079a27.491,27.491,0,0,1,6.464,2.661,36.086,36.086,0,0,1,6.424,4.737,49.809,49.809,0,0,1,5.952,6.52,55,55,0,0,1,5.136,7.96l.062.118-.113.073-.827.563-12.162,8.129-.146.1-.062-.158a44.739,44.739,0,0,0-7.009-11.757,40.132,40.132,0,0,0-7.994-7.268,35.868,35.868,0,0,0-6.188-3.443c-.765-.326-1.361-.563-1.772-.692l-.461-.158-.158-.056.163.034.473.135c.416.129,1.018.338,1.789.647a34.826,34.826,0,0,1,6.278,3.375,39.773,39.773,0,0,1,8.073,7.263,44.74,44.74,0,0,1,7.088,11.814l-.208-.062,12.157-8.14.827-.563-.051.186a55.255,55.255,0,0,0-5.1-7.915,49.666,49.666,0,0,0-5.907-6.492,36.251,36.251,0,0,0-6.385-4.725,27.459,27.459,0,0,0-6.4-2.678h.079Z" transform="translate(-184.563 -131.818)" fill="#fff"/>
      <path id="Path_37016" data-name="Path 37016" d="M314.7,260.53c-.416,2.436-3.5,3.91-6.891,3.291s-5.817-3.094-5.4-5.53,3.5-3.91,6.891-3.291S315.1,258.094,314.7,260.53Z" transform="translate(-195.113 -137.137)" fill="#fafafa"/>
      <path id="Path_37017" data-name="Path 37017" d="M309.92,262.362l-.563.608-.63-.613.529-.563a3.989,3.989,0,0,1-.956-1.688l1.063-.461a3.28,3.28,0,0,0,.872,1.553c.433.422.714.456.878.276.563-.608-1.941-2.2-.658-3.617a1.661,1.661,0,0,1,2.363,0l.563-.6.63.613-.534.563a3.629,3.629,0,0,1,.776,1.361l-1.046.489a3.088,3.088,0,0,0-.748-1.288c-.439-.422-.737-.422-.906-.236-.529.563,1.952,2.177.681,3.583A1.636,1.636,0,0,1,309.92,262.362Z" transform="translate(-197.713 -138.188)" fill="#455a64"/>
      <path id="Path_37018" data-name="Path 37018" d="M281.681,252.09s2.683,1.361.107,3.375l-3.938-1.53Z" transform="translate(-184.392 -135.926)" fill="#fafafa"/>
      <path id="Path_37019" data-name="Path 37019" d="M297.47,244.011s2.588,2.734,5.063-.113l-3.049-1.018Z" transform="translate(-192.975 -131.897)" fill="#fafafa"/>
      <path id="Path_37020" data-name="Path 37020" d="M317.54,289.991s3.482-2.813,5.513.99l-3.887,2.6Z" transform="translate(-201.755 -152.068)" fill="#fafafa"/>
      <path id="Path_37021" data-name="Path 37021" d="M339.289,276.2s-2.515,1.575-.81,4.821l2.576-1.721Z" transform="translate(-210.655 -146.473)" fill="#fafafa"/>
      <path id="Path_37022" data-name="Path 37022" d="M322.166,291.571a1.058,1.058,0,1,1-1.052-1.091,1.069,1.069,0,0,1,1.052,1.091Z" transform="translate(-202.853 -152.72)" fill="#455a64"/>
      <path id="Path_37023" data-name="Path 37023" d="M340.935,279.641a1.052,1.052,0,1,1-1.052-1.091,1.069,1.069,0,0,1,1.052,1.091Z" transform="translate(-211.068 -147.501)" fill="#455a64"/>
      <path id="Path_37024" data-name="Path 37024" d="M302.053,244.153c0,.388-.563.7-1.209.7s-1.2-.315-1.2-.7.563-.7,1.21-.7S302.053,243.759,302.053,244.153Z" transform="translate(-193.924 -132.146)" fill="#455a64"/>
      <path id="Path_37025" data-name="Path 37025" d="M283.809,254.34a1.2,1.2,0,1,1-1.17-.934A1.074,1.074,0,0,1,283.809,254.34Z" transform="translate(-185.964 -136.499)" fill="#455a64"/>
      <path id="Path_37026" data-name="Path 37026" d="M300.313,253.16c0,.6-.743,1.08-1.66,1.08S297,253.773,297,253.16s.743-1.08,1.66-1.08S300.313,252.6,300.313,253.16Z" transform="translate(-192.77 -135.922)" fill="#fafafa"/>
      <path id="Path_37027" data-name="Path 37027" d="M324.824,277.035a1.61,1.61,0,0,1-2.059-1.052,1.727,1.727,0,0,1,.647-2.29,1.609,1.609,0,0,1,2.059,1.058A1.721,1.721,0,0,1,324.824,277.035Z" transform="translate(-203.953 -145.327)" fill="#fafafa"/>
      <path id="Path_37028" data-name="Path 37028" d="M285.08,242.035l6.5,6.858s2.6,2.976,4.349,1.57-.709-4.028-1.226-4.793-6.886-8.489-6.886-8.489Z" transform="translate(-187.555 -129.404)" fill="#ffbe9d"/>
      <path id="Path_37029" data-name="Path 37029" d="M287.71,234.85a4.135,4.135,0,0,1-.253,1.187,12.432,12.432,0,0,1-1.125,2.695,9.13,9.13,0,0,1-1.851,2.284,3.376,3.376,0,0,1-1,.686,10.047,10.047,0,0,1,.861-.838,11.306,11.306,0,0,0,1.738-2.25A31.1,31.1,0,0,0,287.71,234.85Z" transform="translate(-186.855 -128.384)" fill="#eb996e"/>
      <path id="Path_37030" data-name="Path 37030" d="M158.514,282.43a2.132,2.132,0,0,1-.3.3l-.906.81-3.375,2.931c-2.863,2.458-6.841,5.839-11.251,9.524s-8.511,7.009-11.493,9.3c-1.485,1.17-2.706,2.087-3.561,2.717l-.99.7a2.088,2.088,0,0,1-.354.231,3.011,3.011,0,0,1,.321-.276l.956-.754c.833-.653,2.031-1.592,3.5-2.779,2.942-2.368,6.97-5.687,11.4-9.372s8.4-7.021,11.33-9.457l3.437-2.863.945-.765a2.369,2.369,0,0,1,.343-.253Z" transform="translate(-118.089 -149.198)" fill="#eb996e"/>
    </g>
  </g>
</svg>
