<svg xmlns="http://www.w3.org/2000/svg" width="250" height="172.058" viewBox="0 0 250 172.058">
  <g id="credibility" transform="translate(-32.66 -14.39)">
    <g id="freepik--background-simple--inject-12" transform="translate(39.871 46.934)">
      <path id="Path_34538" data-name="Path 34538" d="M568,125.293l-.486-.807a21.26,21.26,0,0,0-19.389-10.366,20.811,20.811,0,0,0-3,.413,22.312,22.312,0,0,0-15.9,13.82c-1.512,4.06-1.935,8.734-4.805,11.958-3.732,4.192-10.07,4.323-15.646,4.152s-11.918-.026-15.631,4.184c-2.33,2.636-3.067,6.386-2.881,9.917.5,9.351,7.014,17.709,15.3,21.864s18.041,4.528,27.108,2.7c12.7-2.556,24.785-9.6,32.044-20.448S573.812,137.014,568,125.293Z" transform="translate(-330.37 -110.224)" fill="#f5f5f5"/>
      <path id="Path_34539" data-name="Path 34539" d="M55.853,125.293l.489-.807A21.256,21.256,0,0,1,75.731,114.12a20.813,20.813,0,0,1,3,.413,22.318,22.318,0,0,1,15.9,13.82c1.512,4.06,1.932,8.734,4.8,11.958,3.735,4.192,10.074,4.323,15.646,4.152s11.918-.026,15.635,4.184c2.326,2.636,3.067,6.386,2.877,9.917-.5,9.351-7.011,17.709-15.3,21.864s-18.041,4.528-27.111,2.7c-12.7-2.556-24.782-9.6-32.044-20.448S50.044,137.014,55.853,125.293Z" transform="translate(-52.409 -110.224)" fill="#f5f5f5"/>
      <circle id="Ellipse_3230" data-name="Ellipse 3230" cx="11.064" cy="11.064" r="11.064" transform="translate(64.56)" fill="#f5f5f5"/>
      <circle id="Ellipse_3231" data-name="Ellipse 3231" cx="9.928" cy="9.928" r="9.928" transform="translate(160.723 97.623) rotate(-45)" fill="#f5f5f5"/>
    </g>
    <g id="freepik--Floor--inject-12" transform="translate(32.66 168.29)">
      <path id="Path_34540" data-name="Path 34540" d="M282.66,435.975c0,.051-55.968.095-124.993.095s-125.007-.044-125.007-.095,55.957-.095,125.007-.095S282.66,435.924,282.66,435.975Z" transform="translate(-32.66 -435.88)" fill="#263238"/>
    </g>
    <g id="freepik--spotlight-2--inject-12" transform="translate(112.037 14.39)">
      <rect id="Rectangle_5373" data-name="Rectangle 5373" width="2.184" height="6.16" transform="translate(46.485)" fill="#263238"/>
      <path id="Path_34541" data-name="Path 34541" d="M355.86,39.3c.033-.241,3.418-13.7,3.418-13.7A12.728,12.728,0,0,1,370,25.6l3.071,13.7Z" transform="translate(-317.225 -20.755)" fill="#263238"/>
      <path id="Path_34542" data-name="Path 34542" d="M306.113,65.19l-17.234.022L250.35,208.929l93.522.814Z" transform="translate(-250.24 -46.641)" fill="#f8951d"/>
      <path id="Path_34543" data-name="Path 34543" d="M306.113,65.31l-17.234.022L250.35,209l93.522.858Z" transform="translate(-250.24 -46.717)" fill="#fff" opacity="0.7"/>
      <ellipse id="Ellipse_3232" data-name="Ellipse 3232" cx="8.603" cy="2.917" rx="8.603" ry="2.917" transform="translate(38.638 15.631)" fill="#fff"/>
      <path id="Path_34544" data-name="Path 34544" d="M372.942,59.971a1.961,1.961,0,0,0-.095-.365,1.909,1.909,0,0,0-.73-.818,9.74,9.74,0,0,0-3.841-1.333,24.41,24.41,0,0,0-6.065-.219,18.256,18.256,0,0,0-3.509.632,7.891,7.891,0,0,0-1.738.73,3.309,3.309,0,0,0-.763.573,1.23,1.23,0,0,0-.365.814,1.216,1.216,0,0,0,.365.814,3.288,3.288,0,0,0,.749.562,7.994,7.994,0,0,0,1.753.73,18.257,18.257,0,0,0,3.527.639,24.274,24.274,0,0,0,6.069-.219,9.806,9.806,0,0,0,3.838-1.329,1.935,1.935,0,0,0,.73-.822A1.888,1.888,0,0,0,372.96,60a.854.854,0,0,1-.058.387,1.92,1.92,0,0,1-.712.865,9.507,9.507,0,0,1-3.859,1.4,23.734,23.734,0,0,1-6.109.259,17.946,17.946,0,0,1-3.564-.632,8.478,8.478,0,0,1-1.782-.73,3.618,3.618,0,0,1-.8-.606,1.263,1.263,0,0,1,0-1.891,3.429,3.429,0,0,1,.8-.632,8.372,8.372,0,0,1,1.778-.73,18.213,18.213,0,0,1,3.564-.632,23.9,23.9,0,0,1,6.109.259,9.561,9.561,0,0,1,3.859,1.4,1.921,1.921,0,0,1,.712.865A.854.854,0,0,1,372.942,59.971Z" transform="translate(-317.095 -41.422)" fill="#263238"/>
      <ellipse id="Ellipse_3233" data-name="Ellipse 3233" cx="46.876" cy="9.391" rx="46.876" ry="9.391" transform="translate(0 153.276)" fill="#f8951d"/>
      <ellipse id="Ellipse_3234" data-name="Ellipse 3234" cx="46.876" cy="9.391" rx="46.876" ry="9.391" transform="translate(0 153.276)" fill="#fff" opacity="0.4"/>
      <path id="Path_34545" data-name="Path 34545" d="M360.87,463.167a4.062,4.062,0,0,0,3.808-.281c2.3-1.179,5.773-4.144,7.233-4.016s1.117-.073,3.618,1.077,5.455,1.241,9.326.566,6.448-.975,5.028-2.611-6.328-2.49-7.788-3.217-14.386-.73-15.182-.11S360.87,463.167,360.87,463.167Z" transform="translate(-320.406 -293.562)" opacity="0.3"/>
      <path id="Path_34546" data-name="Path 34546" d="M372.28,73.088a2.921,2.921,0,0,1-.5.153c-.332.08-.818.175-1.424.263a23.161,23.161,0,0,1-4.783.175,22.873,22.873,0,0,1-4.7-.8c-.592-.164-1.063-.318-1.38-.442a2.97,2.97,0,0,1-.489-.2,3.1,3.1,0,0,1,.515.135c.325.1.8.234,1.388.383a26.06,26.06,0,0,0,9.431.6c.606-.073,1.1-.146,1.428-.2A2.647,2.647,0,0,1,372.28,73.088Z" transform="translate(-319.219 -51.111)" fill="#fff"/>
      <path id="Path_34547" data-name="Path 34547" d="M299.4,434.142h-.084l-.248.018-.949.047c-.416.018-.92.047-1.508.084s-1.252.073-1.99.131c-2.95.215-7.018.6-11.487,1.22s-8.493,1.344-11.378,2c-1.442.329-2.6.632-3.4.854l-.913.263-.237.066c-.055,0-.084.018-.084,0a.366.366,0,0,1,.077-.033l.234-.084.906-.3c.789-.245,1.943-.566,3.385-.913,2.881-.686,6.9-1.442,11.381-2.052s8.551-.986,11.505-1.168c.73-.047,1.406-.08,1.994-.1s1.1-.047,1.508-.051h1.2a.22.22,0,0,1,.084.022Z" transform="translate(-260.893 -280.862)" fill="#fff"/>
    </g>
    <g id="freepik--speech-bubble--inject-12" transform="translate(175.735 60.681)">
      <path id="Path_34548" data-name="Path 34548" d="M425.138,155.335l.73-2.235a7.419,7.419,0,0,1-1.256-3.885,7.511,7.511,0,1,1,3.129,5.842h0Z" transform="translate(-424.569 -141.342)" fill="#fff"/>
      <path id="Path_34549" data-name="Path 34549" d="M425.071,155.161l.175-.022.5-.062,1.939-.234-.018.04h0a.021.021,0,0,1,.026-.033,7.5,7.5,0,0,0,3.451,1.336,7.067,7.067,0,0,0,1.157.047,8.58,8.58,0,0,0,1.227-.15,7.453,7.453,0,0,0,.971-14.346,7.6,7.6,0,0,0-3.41-.365,7.379,7.379,0,0,0-3.038,1.1,7.511,7.511,0,0,0-3.257,4.564c-.022.106-.044.212-.069.314a2.2,2.2,0,0,0-.051.31c-.026.2-.051.409-.073.61a10.242,10.242,0,0,0,0,1.165,7.475,7.475,0,0,0,1.212,3.472h0c-.245.73-.431,1.274-.562,1.65-.062.19-.113.332-.146.431s-.055.146-.055.146l.044-.139c.033-.1.077-.241.139-.427.124-.383.3-.946.54-1.672h0a7.46,7.46,0,0,1-1.245-3.491,9.615,9.615,0,0,1-.018-1.176c.022-.2.044-.409.069-.617a2.257,2.257,0,0,1,.051-.314c.022-.106.047-.212.069-.318a7.526,7.526,0,0,1,3.286-4.626,7.42,7.42,0,0,1,3.074-1.125,7.668,7.668,0,0,1,3.461.365,7.474,7.474,0,0,1,3.049,1.99,3.359,3.359,0,0,1,.3.343l.285.365.248.365a2.8,2.8,0,0,1,.234.387l.212.4a4.059,4.059,0,0,1,.175.409c.055.139.117.274.164.413s.084.285.124.424a7.529,7.529,0,0,1-5.784,9.424,8.277,8.277,0,0,1-1.241.15,7.158,7.158,0,0,1-1.165-.055,7.508,7.508,0,0,1-3.469-1.366l.033-.033h0a.022.022,0,0,1,0,.033h0l-1.957.2-.5.051Z" transform="translate(-424.503 -141.169)" fill="#263238"/>
      <path id="Path_34550" data-name="Path 34550" d="M435.71,157.016l1.048-1.157,2.224,1.786,3.3-3.794,1.081,1.052-4.436,4.878Z" transform="translate(-431.618 -149.22)" fill="#f8951d"/>
    </g>
    <g id="freepik--spotlights-1--inject-12" transform="translate(59.804 14.39)">
      <path id="Path_34551" data-name="Path 34551" d="M107.24,39.3c.029-.241,3.414-13.7,3.414-13.7a12.728,12.728,0,0,1,10.724,0l3.067,13.7Z" transform="translate(-107.152 -20.755)" fill="#263238"/>
      <ellipse id="Ellipse_3235" data-name="Ellipse 3235" cx="8.603" cy="2.917" rx="8.603" ry="2.917" transform="translate(0.088 15.631)" fill="#fff"/>
      <path id="Path_34552" data-name="Path 34552" d="M124.293,59.971a2.085,2.085,0,0,0-.091-.365,1.935,1.935,0,0,0-.73-.818,9.74,9.74,0,0,0-3.841-1.333,24.464,24.464,0,0,0-6.069-.219,18.3,18.3,0,0,0-3.527.639,8.033,8.033,0,0,0-1.738.73,3.308,3.308,0,0,0-.741.566,1.249,1.249,0,0,0-.365.814,1.231,1.231,0,0,0,.365.814,3.308,3.308,0,0,0,.752.562,7.89,7.89,0,0,0,1.738.73,18.256,18.256,0,0,0,3.527.621,24.274,24.274,0,0,0,6.069-.219,9.8,9.8,0,0,0,3.841-1.329,1.961,1.961,0,0,0,.73-.822,2.008,2.008,0,0,0,.091-.365.792.792,0,0,1-.058.387,1.932,1.932,0,0,1-.708.865,9.506,9.506,0,0,1-3.863,1.4,23.711,23.711,0,0,1-6.105.259A17.935,17.935,0,0,1,110,62.26a8.478,8.478,0,0,1-1.782-.73,3.6,3.6,0,0,1-.792-.606,1.413,1.413,0,0,1-.427-.953,1.461,1.461,0,0,1,.424-.946,3.509,3.509,0,0,1,.8-.606,8.325,8.325,0,0,1,1.782-.73,18.118,18.118,0,0,1,3.571-.632,23.877,23.877,0,0,1,6.105.259,9.559,9.559,0,0,1,3.863,1.4,1.932,1.932,0,0,1,.708.865.792.792,0,0,1,.044.387Z" transform="translate(-107 -41.422)" fill="#263238"/>
      <rect id="Rectangle_5374" data-name="Rectangle 5374" width="2.184" height="6.16" transform="translate(7.934)" fill="#263238"/>
      <path id="Path_34553" data-name="Path 34553" d="M586.9,39.3c.033-.241,3.418-13.7,3.418-13.7a12.728,12.728,0,0,1,10.724,0L604.1,39.3Z" transform="translate(-411.672 -20.755)" fill="#263238"/>
      <ellipse id="Ellipse_3236" data-name="Ellipse 3236" cx="8.603" cy="2.917" rx="8.603" ry="2.917" transform="translate(175.228 15.631)" fill="#fff"/>
      <path id="Path_34554" data-name="Path 34554" d="M603.92,59.971a1.492,1.492,0,0,0-.091-.365,1.935,1.935,0,0,0-.73-.818,9.74,9.74,0,0,0-3.841-1.333,24.442,24.442,0,0,0-6.069-.219,18.213,18.213,0,0,0-3.509.632,7.994,7.994,0,0,0-1.742.73,3.39,3.39,0,0,0-.749.573,1.077,1.077,0,0,0,0,1.629,3.307,3.307,0,0,0,.752.562,8.032,8.032,0,0,0,1.738.73,18.3,18.3,0,0,0,3.527.639,24.259,24.259,0,0,0,6.068-.219,9.8,9.8,0,0,0,3.841-1.329,1.961,1.961,0,0,0,.73-.822,1.688,1.688,0,0,0,.091-.365.811.811,0,0,1-.055.387,1.972,1.972,0,0,1-.73.865,9.507,9.507,0,0,1-3.859,1.4,23.734,23.734,0,0,1-6.109.259,17.855,17.855,0,0,1-3.564-.632,8.4,8.4,0,0,1-1.782-.73,3.618,3.618,0,0,1-.8-.606,1.267,1.267,0,0,1,0-1.891,3.509,3.509,0,0,1,.811-.632,8.478,8.478,0,0,1,1.782-.73,18.119,18.119,0,0,1,3.564-.632,23.876,23.876,0,0,1,6.105.259,9.559,9.559,0,0,1,3.863,1.4,1.972,1.972,0,0,1,.73.865A.811.811,0,0,1,603.92,59.971Z" transform="translate(-411.494 -41.422)" fill="#263238"/>
      <rect id="Rectangle_5375" data-name="Rectangle 5375" width="2.184" height="6.16" transform="translate(183.078)" fill="#263238"/>
    </g>
    <g id="freepik--character-3--inject-12" transform="translate(229.138 63.184)">
      <path id="Path_34555" data-name="Path 34555" d="M596.4,455.689v.365s6.094,2.512,6.145,3.673l-12.141-.179.223-4.038A6.938,6.938,0,0,0,596.4,455.689Z" transform="translate(-583.229 -343.236)" fill="#263238"/>
      <path id="Path_34556" data-name="Path 34556" d="M590.39,464.891l.055-.971,11.619.529s.537.241.467.621Z" transform="translate(-583.222 -348.575)" fill="#455a64"/>
      <path id="Path_34557" data-name="Path 34557" d="M604.988,457.013c0,.058-.3.08-.6.267s-.453.435-.508.409.04-.365.4-.584A.723.723,0,0,1,604.988,457.013Z" transform="translate(-591.78 -344.158)" fill="#fff"/>
      <path id="Path_34558" data-name="Path 34558" d="M608.971,458.549c0,.058-.245.157-.449.405s-.267.511-.325.508-.095-.34.168-.643S608.971,458.494,608.971,458.549Z" transform="translate(-594.501 -345.15)" fill="#fff"/>
      <path id="Path_34559" data-name="Path 34559" d="M612.192,461.03c-.055,0-.131-.285.026-.61s.438-.445.46-.4-.15.223-.274.489S612.251,461.023,612.192,461.03Z" transform="translate(-597.021 -346.094)" fill="#fff"/>
      <path id="Path_34560" data-name="Path 34560" d="M580.476,446l5.17,1.461-1.293,2.921,1.34,7.42a.843.843,0,0,1-.584.964.854.854,0,0,1-.869-.252c-1.143-1.278-5.316-6.006-5.214-6.572l.164-1.544a11.9,11.9,0,0,1,.343-1.15Z" transform="translate(-576.007 -337.198)" fill="#263238"/>
      <path id="Path_34561" data-name="Path 34561" d="M585.012,468.144l-5.882-7.394-.029.336a.923.923,0,0,0,.237.774,61.54,61.54,0,0,0,4.933,6.01.847.847,0,0,0,.73.278Z" transform="translate(-576.048 -346.562)" fill="#455a64"/>
      <path id="Path_34562" data-name="Path 34562" d="M591.048,469.6a1.826,1.826,0,0,1,1.734-.643c0-.022-.091-.091-.281-.135a1.344,1.344,0,0,0-.73.058,1.267,1.267,0,0,0-.6.438C591.056,469.482,591.026,469.6,591.048,469.6Z" transform="translate(-583.636 -351.673)" fill="#fff"/>
      <path id="Path_34563" data-name="Path 34563" d="M592.383,473.23a7.133,7.133,0,0,1,.756-.274,6.429,6.429,0,0,1,.807-.029.968.968,0,0,0-.843-.146C592.606,472.876,592.343,473.2,592.383,473.23Z" transform="translate(-584.485 -354.176)" fill="#fff"/>
      <path id="Path_34564" data-name="Path 34564" d="M588.44,465.643a8.2,8.2,0,0,1,1.136-.5,9.126,9.126,0,0,1,1.238-.164,1.91,1.91,0,0,0-1.289,0A1.851,1.851,0,0,0,588.44,465.643Z" transform="translate(-581.984 -349.174)" fill="#fff"/>
      <path id="Path_34565" data-name="Path 34565" d="M593.915,457.738c.124.708.245,1.344.34,1.8a3.653,3.653,0,0,0,.186.73,3.974,3.974,0,0,0-.08-.759c-.066-.464-.168-1.1-.292-1.826-.106-.6-.208-1.143-.292-1.57h0a6.131,6.131,0,0,0-.058-1,5.405,5.405,0,0,0-.062,1h0" transform="translate(-585.294 -342.988)" fill="#455a64"/>
      <path id="Path_34566" data-name="Path 34566" d="M577.248,296.043a15.778,15.778,0,0,1-.237-5.5,30.66,30.66,0,0,1,3.37-10.907l.555.128,17.023-.135.665,1.022c1.461,3.943,2.465,6.295,2.877,9.179.475,3.319-.365,8.128-2.191,12.984-3.98,10.483-6.207,18.87-6.357,21.127s-.394,4.593-2.487,11.743c-1.53,5.221-2.658,8.343-2.658,8.343A4.721,4.721,0,0,1,583,344.3l-4.677-1.8s1.435-12.316,3.107-15.58c1.2-2.351,3.173-3.469,2.257-6.532S578.5,302.075,577.248,296.043Z" transform="translate(-574.641 -231.575)" fill="#263238"/>
      <path id="Path_34567" data-name="Path 34567" d="M605.751,297.19l-.062.08-.179.248c-.161.223-.387.548-.683.968l-2.556,3.677h0c.124,1.377.172,2.972.256,4.747s.179,3.735.278,5.842.23,4.352.365,6.708.259,4.816.493,7.35a30.224,30.224,0,0,1,.285,6.167,14.71,14.71,0,0,1-.2,1.461,9.761,9.761,0,0,1-.365,1.406c-.332.895-.73,1.76-1.1,2.6-1.486,3.367-2.877,6.375-4.038,8.9l-2.757,6.006c-.321.7-.573,1.252-.749,1.629l-.19.427c-.044.095-.062.146-.062.146s.029-.047.077-.139.117-.241.2-.42c.179-.365.438-.92.774-1.618.664-1.413,1.625-3.451,2.8-5.963s2.578-5.528,4.071-8.891c.365-.843.76-1.7,1.1-2.611a10.278,10.278,0,0,0,.365-1.424c.095-.486.157-.982.2-1.482a30.58,30.58,0,0,0-.281-6.207c-.234-2.523-.365-4.988-.5-7.343s-.248-4.6-.365-6.7-.2-4.06-.3-5.842-.15-3.377-.285-4.747v.029l2.519-3.7c.288-.427.508-.756.665-.982l.164-.256A.413.413,0,0,0,605.751,297.19Z" transform="translate(-585.825 -242.724)" fill="#455a64"/>
      <path id="Path_34568" data-name="Path 34568" d="M604.42,180.726a.818.818,0,0,0-.391-.646c-3.461-2.293-6.072-7.372-6.335-11.684l-.022-.73h0c-.2-6.149-1.1-13.6-1.917-15.595-1.5-3.67-6.572-4.016-6.572-4.016-6.77-.489-7.964,4.707-8.657,9.424-.424,2.921-2.056,13.433-2.056,13.433l1.241.478a15.263,15.263,0,0,0,9.033,9.446c1.241.471,2.3.657,2.79.256a17.034,17.034,0,0,0,7.105,4.312,8.763,8.763,0,0,0,3.367.445,2.674,2.674,0,0,0,1.953-.906,1.694,1.694,0,0,0-1.461-2.7C602.762,181.417,604.449,181.661,604.42,180.726Z" transform="translate(-575.655 -148.022)" fill="#263238"/>
      <path id="Path_34569" data-name="Path 34569" d="M599.459,152.622l-.424-.4-4.564,1.826a1.278,1.278,0,0,0-1.2,1.234l.04,14.868a4.155,4.155,0,0,0,.807,2.687l.639.847a3.367,3.367,0,0,0,5.627-.365,1.634,1.634,0,0,0,.161-.383,2.662,2.662,0,0,0,.066-.332c.139-1.2.146-2.235.146-2.235.08-1.314.106-1.851.106-1.826s2.8-.321,3.553-3.911a30.313,30.313,0,0,0,.2-6.653C604.469,154.641,602.146,152.618,599.459,152.622Z" transform="translate(-585.051 -150.687)" fill="#ae7461"/>
      <path id="Path_34570" data-name="Path 34570" d="M606.607,173.445a.464.464,0,0,1-.471.445.445.445,0,0,1-.456-.442.467.467,0,0,1,.482-.449A.445.445,0,0,1,606.607,173.445Z" transform="translate(-592.929 -163.879)" fill="#263238"/>
      <path id="Path_34571" data-name="Path 34571" d="M619.117,173.445a.467.467,0,0,1-.471.445.446.446,0,0,1-.456-.442.467.467,0,0,1,.471-.449.445.445,0,0,1,.456.445Z" transform="translate(-600.871 -163.879)" fill="#263238"/>
      <path id="Path_34572" data-name="Path 34572" d="M619.8,169.692c-.062.058-.4-.219-.9-.245s-.88.208-.927.146.036-.135.2-.245a1.315,1.315,0,0,1,.73-.19,1.242,1.242,0,0,1,.73.27C619.8,169.556,619.843,169.666,619.8,169.692Z" transform="translate(-600.728 -161.44)" fill="#263238"/>
      <path id="Path_34573" data-name="Path 34573" d="M606,169.658c-.066.051-.365-.259-.865-.332s-.895.117-.938.047.051-.131.226-.223a1.282,1.282,0,0,1,.763-.11,1.216,1.216,0,0,1,.679.34C606,169.519,606.028,169.636,606,169.658Z" transform="translate(-591.978 -161.355)" fill="#263238"/>
      <path id="Path_34574" data-name="Path 34574" d="M613.871,173.463a3.143,3.143,0,0,1,.818-.106c.128,0,.252-.026.278-.113a.7.7,0,0,0-.066-.383c-.106-.314-.215-.643-.329-.99a18.327,18.327,0,0,1-.73-2.581,17.129,17.129,0,0,1,.924,2.519c.109.347.212.679.314.993a.756.756,0,0,1,.04.5.318.318,0,0,1-.219.175.985.985,0,0,1-.219.022A3.545,3.545,0,0,1,613.871,173.463Z" transform="translate(-598.108 -161.524)" fill="#263238"/>
      <path id="Path_34575" data-name="Path 34575" d="M605.75,194.274a9.209,9.209,0,0,1-4.78-1.534s1.1,2.556,4.747,2.406Z" transform="translate(-589.939 -176.412)" fill="#6f4439"/>
      <path id="Path_34576" data-name="Path 34576" d="M610.576,183.362a.905.905,0,0,0-.789-.365.822.822,0,0,0-.584.274.529.529,0,0,0-.069.6.61.61,0,0,0,.646.2,1.91,1.91,0,0,0,.657-.365.545.545,0,0,0,.15-.139.164.164,0,0,0,0-.186" transform="translate(-595.083 -170.225)" fill="#6f4439"/>
      <path id="Path_34577" data-name="Path 34577" d="M609.73,181.46c.08,0,.055.54.5.949s1.022.365,1.026.453-.135.1-.365.095a1.344,1.344,0,0,1-.858-.365,1.172,1.172,0,0,1-.365-.792C609.628,181.588,609.694,181.456,609.73,181.46Z" transform="translate(-595.453 -169.251)" fill="#263238"/>
      <path id="Path_34578" data-name="Path 34578" d="M606.485,164.494c-.069.128-.551,0-1.143-.029s-1.1.066-1.139-.066c-.026-.062.073-.175.281-.278a1.99,1.99,0,0,1,1.742.073C606.427,164.315,606.518,164.435,606.485,164.494Z" transform="translate(-591.989 -158.137)" fill="#263238"/>
      <path id="Path_34579" data-name="Path 34579" d="M619.882,163.77c-.091.11-.431-.026-.843-.051s-.767.037-.843-.088c-.033-.058.029-.168.186-.27a1.187,1.187,0,0,1,.7-.15,1.161,1.161,0,0,1,.665.263C619.882,163.6,619.944,163.715,619.882,163.77Z" transform="translate(-600.869 -157.662)" fill="#263238"/>
      <path id="Path_34580" data-name="Path 34580" d="M592.333,161.2s2.556.8,4.016-5.514a8.713,8.713,0,0,1,2.5-3.907l-.811-.245s-5.042,1.42-5.112,1.486-1.274,2.607-1.274,2.607Z" transform="translate(-584.022 -150.249)" fill="#263238"/>
      <path id="Path_34581" data-name="Path 34581" d="M590.682,175.573c0-.267-.27-.92-.533-.975a1.569,1.569,0,0,0-2.089,1.65,1.853,1.853,0,0,0,2.37,2.026C590.437,178.2,590.634,176.5,590.682,175.573Z" transform="translate(-581.739 -164.857)" fill="#ae7461"/>
      <path id="Path_34582" data-name="Path 34582" d="M590.822,178.677a1.3,1.3,0,0,1-.121.055.427.427,0,0,1-.321,0,1.07,1.07,0,0,1-.438-.982,1.406,1.406,0,0,1,.157-.606.489.489,0,0,1,.34-.31.215.215,0,0,1,.248.131c.029.069,0,.117.022.124s.055-.04.044-.142a.27.27,0,0,0-.091-.161.325.325,0,0,0-.234-.077.6.6,0,0,0-.467.365,1.46,1.46,0,0,0-.19.679,1.124,1.124,0,0,0,.566,1.1.478.478,0,0,0,.4-.04C590.814,178.735,590.829,178.68,590.822,178.677Z" transform="translate(-582.828 -166.234)" fill="#6f4439"/>
      <path id="Path_34583" data-name="Path 34583" d="M586.963,169.859a.638.638,0,0,1-.026-.117,3.443,3.443,0,0,0-.062-.365c-.055-.318-.128-.767-.223-1.34h.058l.04.288h0l.051.11-.062.022a23.743,23.743,0,0,1-.792-3.965,24.613,24.613,0,0,1-.15-2.556,11.685,11.685,0,0,1,.245-2.812,4.421,4.421,0,0,1,.449-1.121,6.207,6.207,0,0,1,.679-.949c.5-.581,1.044-1.077,1.537-1.57l2.647-2.607c.73-.73,1.362-1.329,1.789-1.745l.493-.475.128-.12.047-.037a.287.287,0,0,1-.04.047l-.121.128-.475.486-1.767,1.775-2.629,2.622c-.493.5-1.033,1-1.526,1.57a4.863,4.863,0,0,0-1.1,2.023,11.767,11.767,0,0,0-.245,2.786,23.511,23.511,0,0,0,.142,2.556,24.8,24.8,0,0,0,.752,3.962l-.062.022-.047-.113h0l-.036-.292h.058c.084.577.15,1.026.193,1.344.022.15.036.267.047.365a.5.5,0,0,1,0,.08Z" transform="translate(-580.303 -149.595)" fill="#455a64"/>
      <path id="Path_34584" data-name="Path 34584" d="M584.54,156.622a.392.392,0,0,1,.044-.106l.142-.288c.124-.252.321-.606.581-1.037s.588-.931.975-1.461.851-1.1,1.362-1.68a17.228,17.228,0,0,1,1.523-1.53c.489-.435.957-.825,1.358-1.125s.73-.537.971-.69l.27-.172a.389.389,0,0,1,.1-.055.6.6,0,0,1-.084.073l-.263.19c-.226.161-.551.405-.946.73s-.847.694-1.336,1.139-1,.964-1.508,1.53-.964,1.136-1.362,1.665a16.242,16.242,0,0,0-.99,1.461c-.259.438-.475.77-.61,1.015l-.164.277A.39.39,0,0,1,584.54,156.622Z" transform="translate(-579.508 -148.313)" fill="#455a64"/>
      <path id="Path_34585" data-name="Path 34585" d="M604.568,207.078c0-.088-3.684-7.3-3.684-7.3l-1.172-1.676-.022.8-.537,3.045-7.032-4.334s-.573,1.1-.661,1.234l4.279,13.346,2.337,13.766,1.355,2.165,7.35-.544-.424-9.9.493-3.031S604.568,207.162,604.568,207.078Z" transform="translate(-583.901 -179.504)" fill="#fff"/>
      <path id="Path_34586" data-name="Path 34586" d="M578.222,202.308,573.8,203.97l4.462,19.874s-.927,3.242-1.789,5.4a61.39,61.39,0,0,0-3.9,13.061l12.572.942s3.494-15.58,3.264-19.1-.749-8.42-2.1-11.892-6.766-11.995-6.766-11.995Z" transform="translate(-571.909 -181.186)" fill="#f8951d"/>
      <path id="Path_34587" data-name="Path 34587" d="M614.61,199.23l2,1.654,5.506.818s2.6,9.435,2.121,13.145a57.549,57.549,0,0,0,.19,10.132l3,16.953-4.8.2s-1.515-18.3-1.607-18.107c0,0-.256-8.789-.833-11.392s-4.71-10.936-4.71-10.936Z" transform="translate(-598.599 -180.532)" fill="#f8951d"/>
      <path id="Path_34588" data-name="Path 34588" d="M638.054,227.011s2.216-1.011,2.216-2.987-1.347-4.772-1.636-5.842-6.854-12.327-7.518-12.185l-.675.142,3.469,15.23-5.13,1.424,2.191,5.7Z" transform="translate(-607.595 -184.828)" fill="#f8951d"/>
      <path id="Path_34589" data-name="Path 34589" d="M635.66,238.227l.975-3.151.164-2.143,2.289-1.523s.617.069.424.548a6.09,6.09,0,0,1-1.117,1.333l-.548,1.526.891-1.552,1.3-.643,1.285.095s.237.573-.365.6h-.643l-.975.785-.61,1.461.92-1.428,1.355-.486.858.223s.237.365-.19.427a4.21,4.21,0,0,1-.73.047l-.778.475-.69,1.461,1.212-1,1.574-.19a.325.325,0,0,1-.146.522,13.17,13.17,0,0,0-1.212.573l-.88,1.07Z" transform="translate(-611.963 -200.962)" fill="#ae7461"/>
      <path id="Path_34590" data-name="Path 34590" d="M597.747,231.328a.476.476,0,0,1-.022-.073l-.055-.208c-.051-.194-.117-.467-.2-.818-.179-.73-.431-1.738-.73-3s-.686-2.771-1.117-4.44c-.215-.836-.445-1.712-.694-2.614-.124-.453-.256-.913-.394-1.377-.069-.23-.146-.46-.223-.694a6.347,6.347,0,0,0-.281-.679c-.811-1.625-1.639-3.158-2.388-4.575l-2.041-3.808v-.029l.026-.022q.223-.2.449-.383a1.789,1.789,0,0,1,.23-.172.084.084,0,0,1,.036,0h0a.036.036,0,0,0,0,.04h-1.223v-.022c-.318-.814-.566-1.461-.73-1.91-.08-.219-.142-.387-.19-.508l-.047-.131a.237.237,0,0,1,0-.047l.022.044.058.128c.047.121.117.288.2.5.183.449.442,1.1.767,1.9h-.029c.314,0,.65-.018,1.008-.018h.106a.747.747,0,0,1,.077,0h0a.047.047,0,0,1,0,.04v.022h-.047c-.073.047-.146.11-.219.168-.15.12-.3.248-.445.383v-.051l2.056,3.8c.756,1.413,1.585,2.943,2.4,4.575a5.2,5.2,0,0,1,.288.69c.077.234.153.467.223.7q.208.7.394,1.38c.248.906.475,1.782.686,2.614.427,1.672.792,3.184,1.1,4.451l.7,3.009.186.818.044.215C597.747,231.3,597.751,231.328,597.747,231.328Z" transform="translate(-581.798 -184.741)" fill="#263238"/>
      <path id="Path_34591" data-name="Path 34591" d="M625.033,219.28a.708.708,0,0,1,0-.172,3.594,3.594,0,0,1,.026-.482,3.47,3.47,0,0,1,.022-.365v-.416c0-.3,0-.639-.022-1.015a21.18,21.18,0,0,0-1.139-5.736,19.844,19.844,0,0,0-.927-2.278h0a19.968,19.968,0,0,0-1.07-2.081c-.365-.613-.679-1.147-.949-1.588s-.489-.781-.646-1.03l-.172-.277a.948.948,0,0,1-.055-.1.428.428,0,0,1,.069.088c.051.069.11.157.186.267.161.234.391.577.672,1.015s.613.968.975,1.577a20.016,20.016,0,0,1,1.1,2.089h0a18.735,18.735,0,0,1,.938,2.293,20.3,20.3,0,0,1,1.1,5.769c.026.365,0,.73,0,1.019v.42a3.025,3.025,0,0,1-.033.347,4.09,4.09,0,0,1-.047.486A1.059,1.059,0,0,1,625.033,219.28Z" transform="translate(-602.084 -183.395)" fill="#263238"/>
      <path id="Path_34592" data-name="Path 34592" d="M638.523,253.02a.688.688,0,0,1-.135.04l-.4.091-1.493.325-5.221,1.1h-.044v-.044c-.442-1.3-.924-2.717-1.428-4.206l-.522-1.548-.022-.058h.062l3.914-.924,1.691-.394.763-.179a3.623,3.623,0,0,1,.73-.12,2.691,2.691,0,0,1,1.212.245,3.184,3.184,0,0,1,.778.508,2.761,2.761,0,0,1,.391.434l.084.128a.234.234,0,0,1,.026.044,3.682,3.682,0,0,0-.526-.573,3.014,3.014,0,0,0-.774-.486,2.611,2.611,0,0,0-1.187-.226,3.319,3.319,0,0,0-.7.128l-.763.183-1.691.405-3.925.938.04-.073.522,1.548,1.42,4.21-.062-.033,5.232-1.07,1.5-.3.4-.073Z" transform="translate(-607.899 -210.921)" fill="#263238"/>
      <path id="Path_34593" data-name="Path 34593" d="M581.872,284.03l7.233.665-1.245,2.213-7.62-.741Z" transform="translate(-576.778 -234.369)" fill="#f8951d"/>
      <path id="Path_34594" data-name="Path 34594" d="M581.777,284l-.026.04-.08.117-.318.427-1.179,1.574-.026-.062,7.354.7.27.026-.055.029,1.245-2.213.044.08-5.174-.5-1.508-.153-.405-.044a.809.809,0,0,1-.142-.022h.135l.4.029,1.5.121,5.2.456h.08l-.04.073-1.241,2.216v.033h-.036l-.27-.026-7.35-.73h-.069l.044-.055,1.216-1.559.329-.416Z" transform="translate(-576.683 -234.35)" fill="#263238"/>
      <path id="Path_34595" data-name="Path 34595" d="M638.05,285.489l1.132,2.136,2.432-.5-1.289-1.968Z" transform="translate(-613.48 -235.086)" fill="#f8951d"/>
      <path id="Path_34596" data-name="Path 34596" d="M638.031,285.406l.15-.029.453-.077c.394-.066.968-.164,1.665-.27h.029v.026l1.3,1.964.044.069h-.08l-.124.026-2.308.467h-.036l-.011-.007c-.34-.654-.613-1.2-.8-1.577l-.215-.435a1.366,1.366,0,0,1-.069-.15,1.012,1.012,0,0,1,.095.161l.245.435c.208.365.5.891.836,1.519l-.055-.026,2.308-.478.124-.026-.036.088-1.282-1.972.047.018c-.672.095-1.234.161-1.636.212l-.471.055A1.38,1.38,0,0,1,638.031,285.406Z" transform="translate(-613.461 -235.004)" fill="#263238"/>
      <g id="Group_8636" data-name="Group 8636" transform="translate(4.046 50.694)" opacity="0.3">
        <path id="Path_34597" data-name="Path 34597" d="M582.139,288.047l-.3.657,7.514.69.562-2.534-1.041,1.844Z" transform="translate(-581.84 -286.86)"/>
      </g>
      <g id="Group_8637" data-name="Group 8637" transform="translate(5.894 42.128)" opacity="0.3">
        <path id="Path_34598" data-name="Path 34598" d="M586.9,263.4s1.179,2.472,2.713,3.195c2.092.99,7.328.343,7.328.343v-1.5l-6.069.347Z" transform="translate(-586.9 -263.4)"/>
      </g>
      <path id="Path_34599" data-name="Path 34599" d="M572.928,210.08s-2.118.142-2.169,5.685,6.459,14.846,7.569,15.759,2.373,1.534,5.714,1.037c4.188-.621,7.105-1.179,7.105-1.179l-.584-5.061-7.471-.34-6.072-12.48S575,209.839,572.928,210.08Z" transform="translate(-570.759 -187.413)" fill="#f8951d"/>
      <g id="Group_8638" data-name="Group 8638" transform="translate(9.494 40.656)" opacity="0.3">
        <path id="Path_34600" data-name="Path 34600" d="M608.9,259.745a6.766,6.766,0,0,0-2.625-.365h-3.538a8.946,8.946,0,0,0-2.275.19,3.02,3.02,0,0,0-1.851,1.245l-1.848,1.526a12.239,12.239,0,0,0,7.127-.416,8.7,8.7,0,0,1,1.738-.566c1.6-.252,3.213.675,4.8.365A2.318,2.318,0,0,0,608.9,259.745Z" transform="translate(-596.76 -259.368)"/>
      </g>
      <path id="Path_34601" data-name="Path 34601" d="M592.372,246.3a16.23,16.23,0,0,0,2.121.686,13.185,13.185,0,0,1,2.629.836,17.808,17.808,0,0,1,1.753.807l1.1,3.881a7.945,7.945,0,0,1-3.943,1.1c-2.089-.058-3.94.617-4.21.427s-.3-.518,0-.668a10.254,10.254,0,0,1,1.566-.329l1.1-.445a33.189,33.189,0,0,1-4.016.179c-.281-.15-.6-.365-.478-.686a.464.464,0,0,1,.416-.329s-.807.029-.774-.3a1.029,1.029,0,0,1,.445-.686c.12-.062,1.687-.7,1.687-.7l2.016-.4-1.935-.077-1.691.471s-.675.077-.526-.489,2.213-1.2,2.213-1.2l2.629-.179s-2.03-.3-2.242-.924A.968.968,0,0,1,592.372,246.3Z" transform="translate(-582.721 -210.415)" fill="#ae7461"/>
      <path id="Path_34602" data-name="Path 34602" d="M615,252.286h.128l5.13-.226,1.537,4.477-5.682-.369Z" transform="translate(-598.846 -214.072)" fill="#ae7461"/>
      <path id="Path_34603" data-name="Path 34603" d="M595.388,259.592a4.337,4.337,0,0,1-.628.051c-.387.022-.92.066-1.5.157s-1.1.2-1.482.3a4.773,4.773,0,0,1-.613.139,2.652,2.652,0,0,1,.592-.215,11.071,11.071,0,0,1,3.005-.456A3.221,3.221,0,0,1,595.388,259.592Z" transform="translate(-583.711 -218.832)" fill="#ff9a6c"/>
      <path id="Path_34604" data-name="Path 34604" d="M583.491,217.56a1.492,1.492,0,0,1-.168-.248c-.106-.161-.252-.394-.445-.679a24.018,24.018,0,0,0-1.588-2.147,12.207,12.207,0,0,0-1.891-1.877,9.961,9.961,0,0,0-.927-.6,1.416,1.416,0,0,1,.278.113,2.748,2.748,0,0,1,.31.168,3.505,3.505,0,0,1,.387.256,10.824,10.824,0,0,1,1.932,1.866,19.6,19.6,0,0,1,1.57,2.191c.183.292.321.533.413.7A1.522,1.522,0,0,1,583.491,217.56Z" transform="translate(-575.655 -188.646)" fill="#263238"/>
      <path id="Path_34605" data-name="Path 34605" d="M596.495,236.345a1.4,1.4,0,0,1-.117-.248c-.073-.186-.168-.416-.281-.694-.234-.581-.562-1.388-.946-2.267s-.73-1.669-1.015-2.238l-.314-.676a1.23,1.23,0,0,1-.1-.252,1.458,1.458,0,0,1,.142.234c.084.153.2.365.347.661.285.562.661,1.347,1.044,2.227s.7,1.694.92,2.286c.106.3.194.537.245.7A1.4,1.4,0,0,1,596.495,236.345Z" transform="translate(-585.336 -200.048)" fill="#263238"/>
      <path id="Path_34606" data-name="Path 34606" d="M634.239,211.46l-.172-.091.026-.018c.135.486.522,2.067.96,3.943.267,1.143.5,2.191.665,2.921.077.365.142.665.19.895a2.268,2.268,0,0,1,.055.329,1.729,1.729,0,0,1-.1-.321c-.058-.226-.131-.526-.223-.884-.186-.73-.431-1.778-.7-2.921-.438-1.877-.792-3.465-.884-3.962v-.04l.033.022C634.2,211.416,634.243,211.452,634.239,211.46Z" transform="translate(-610.947 -188.201)" fill="#263238"/>
      <path id="Path_34607" data-name="Path 34607" d="M595.754,263.09a.545.545,0,0,1-.135.044l-.387.106c-.336.088-.829.2-1.442.314a17.523,17.523,0,0,1-2.191.263,10.019,10.019,0,0,1-2.677-.179,5.27,5.27,0,0,1-1.318-.46,4.449,4.449,0,0,1-.57-.343,4.154,4.154,0,0,1-.471-.435,16.772,16.772,0,0,1-1.351-1.723c-.365-.508-.635-.931-.825-1.223-.084-.139-.157-.252-.212-.34a1.145,1.145,0,0,1-.066-.124.627.627,0,0,1,.088.11l.226.329c.2.285.486.7.851,1.2a18.432,18.432,0,0,0,1.366,1.7,3.846,3.846,0,0,0,.456.42,4.251,4.251,0,0,0,.559.332,5.251,5.251,0,0,0,1.293.449,10.258,10.258,0,0,0,2.647.186,18.762,18.762,0,0,0,2.165-.237c.61-.1,1.1-.2,1.442-.281l.394-.084A1.056,1.056,0,0,1,595.754,263.09Z" transform="translate(-579.235 -218.472)" fill="#263238"/>
      <g id="Group_8639" data-name="Group 8639" transform="translate(6.518 21.637)" opacity="0.3">
        <path id="Path_34608" data-name="Path 34608" d="M588.61,207.28l.573,2.72.467-.288-.27.646,5.857,10.622-.76-2.424-4.56-8.628.723-.577h-1.212Z" transform="translate(-588.61 -207.28)"/>
      </g>
      <circle id="Ellipse_3237" data-name="Ellipse 3237" cx="1.048" cy="1.048" r="1.048" transform="translate(7.036 12.753)" fill="#455a64"/>
    </g>
    <g id="freepik--character-2--inject-12" transform="translate(140.463 62.259)">
      <path id="Path_34609" data-name="Path 34609" d="M381.186,158.89a5.353,5.353,0,0,1,1.873,4.586c-.088.829-.343,1.771.179,2.421s1.566.654,2.063,1.314c.581.778.044,1.9.234,2.848a1.928,1.928,0,0,0,2,1.49,7.511,7.511,0,0,1-3.765,1.508c-.336-.456-.672-.909-1-1.366a1.38,1.38,0,0,1-.142,1.691,3.155,3.155,0,0,1-1.581.876,9.519,9.519,0,0,1-8.307-1.592" transform="translate(-356.368 -153.997)" fill="#263238"/>
      <path id="Path_34610" data-name="Path 34610" d="M352.254,157.544a18.879,18.879,0,0,0,.749-1.862c.343-1.4-.3-3.009.42-4.257a4.018,4.018,0,0,1,2.556-1.574,6.438,6.438,0,0,0,2.8-1.2c.551-.511.876-1.227,1.424-1.742a4.554,4.554,0,0,1,2.987-.993,6.437,6.437,0,0,1,3.21.613,3.524,3.524,0,0,1,1.913,2.538,11.522,11.522,0,0,0,.142,1.6,11.566,11.566,0,0,0,.854,1.545,2.826,2.826,0,0,1-.8,3.363l-7.818,9.53c-1.6.555-5.422-.277-6.613-1.482S351.681,159.139,352.254,157.544Z" transform="translate(-343.269 -145.75)" fill="#263238"/>
      <path id="Path_34611" data-name="Path 34611" d="M375.67,161.051c-.248-2.22-1.855-4.882-4.064-4.542L364.76,158.6a1.307,1.307,0,0,0-1.1,1.38l1.545,16.066s-.511.4-.836.267a.091.091,0,0,0-.113.131c.781,1.209,4.48,6.485,8.486,5.021.895-.329,0-3.144.128-4.177l-.04-2.64c-.051-1.351-.077-1.906-.077-1.891s2.823-.61,3.231-4.352A38.879,38.879,0,0,0,375.67,161.051Z" transform="translate(-350.604 -152.467)" fill="#ffbf9d"/>
      <path id="Path_34612" data-name="Path 34612" d="M392.348,177.543a.478.478,0,0,1-.438.5.456.456,0,0,1-.511-.405.478.478,0,0,1,.435-.5.46.46,0,0,1,.515.409Z" transform="translate(-368.213 -165.577)" fill="#263238"/>
      <path id="Path_34613" data-name="Path 34613" d="M379.354,177.968a.475.475,0,0,1-.435.5.456.456,0,0,1-.511-.405.478.478,0,0,1,.435-.5.453.453,0,0,1,.511.405Z" transform="translate(-359.966 -165.85)" fill="#263238"/>
      <path id="Path_34614" data-name="Path 34614" d="M392,173.067c-.055.084-.489-.208-1.044-.142s-.92.435-.99.365,0-.179.168-.365a1.292,1.292,0,0,1,.785-.387,1.267,1.267,0,0,1,.843.212C391.95,172.9,392.027,173.031,392,173.067Z" transform="translate(-367.286 -162.658)" fill="#263238"/>
      <path id="Path_34615" data-name="Path 34615" d="M378.093,173.683c-.069.077-.493-.252-1.1-.245s-1.026.336-1.1.256.033-.172.223-.325a1.46,1.46,0,0,1,.873-.3,1.406,1.406,0,0,1,.869.288C378.06,173.508,378.115,173.647,378.093,173.683Z" transform="translate(-358.362 -163)" fill="#263238"/>
      <path id="Path_34616" data-name="Path 34616" d="M385.977,177.119a3.4,3.4,0,0,1,.811-.179c.128-.022.252-.055.27-.142a.679.679,0,0,0-.106-.383l-.438-.979a17.884,17.884,0,0,1-.993-2.556,19.557,19.557,0,0,1,1.2,2.476c.146.343.288.672.42.986a.73.73,0,0,1,.091.511.318.318,0,0,1-.2.2.935.935,0,0,1-.219.04A3.286,3.286,0,0,1,385.977,177.119Z" transform="translate(-364.479 -162.879)" fill="#263238"/>
      <path id="Path_34617" data-name="Path 34617" d="M379.8,199.145a9.464,9.464,0,0,1-5.035-1.1s1.373,2.556,5.075,2.016Z" transform="translate(-357.65 -178.859)" fill="#ff9a6c"/>
      <path id="Path_34618" data-name="Path 34618" d="M382.149,187.824a.8.8,0,0,1,.27-.3.665.665,0,0,1,.445-.033,1.044,1.044,0,0,1,.57.31.613.613,0,0,1,.128.617h0c-.062.212-.383.321-.6.365a.986.986,0,0,1-.635-.153.566.566,0,0,1-.314-.431A.73.73,0,0,1,382.149,187.824Z" transform="translate(-362.253 -172.138)" fill="#ff9a6c"/>
      <path id="Path_34619" data-name="Path 34619" d="M382.619,186.49c.084,0,.113.548.606.92s1.1.281,1.1.365-.124.117-.365.135a1.406,1.406,0,0,1-.909-.27,1.216,1.216,0,0,1-.475-.77C382.528,186.629,382.583,186.49,382.619,186.49Z" transform="translate(-362.6 -171.52)" fill="#263238"/>
      <path id="Path_34620" data-name="Path 34620" d="M377.953,168.676c-.044.142-.559.1-1.157.2s-1.074.292-1.161.168c-.037-.055.04-.19.23-.336a2.052,2.052,0,0,1,1.767-.281C377.844,168.5,377.953,168.61,377.953,168.676Z" transform="translate(-358.2 -159.997)" fill="#263238"/>
      <path id="Path_34621" data-name="Path 34621" d="M391.385,168.014c-.095.12-.5,0-.99.037s-.895.124-.993,0c-.044-.055,0-.175.19-.3a1.526,1.526,0,0,1,.8-.226,1.5,1.5,0,0,1,.8.194C391.367,167.838,391.437,167.955,391.385,168.014Z" transform="translate(-366.937 -159.481)" fill="#263238"/>
      <path id="Path_34622" data-name="Path 34622" d="M361.9,158.827a3.038,3.038,0,0,1,1.574-.979,34.132,34.132,0,0,1,7.909-1.778,1.378,1.378,0,0,1-.526,1.691,6.178,6.178,0,0,1-1.782.73,2.407,2.407,0,0,0-1.5,1.128c-.267.588-.08,1.38-.329,2.019-.431,1.1-1.99,1.413-2.417,2.512-.321.833.142,1.742.237,2.629a3.188,3.188,0,0,1-3.231,3.542q-.142-4.787-.281-9.57A3.173,3.173,0,0,1,361.9,158.827Z" transform="translate(-349.256 -152.207)" fill="#263238"/>
      <path id="Path_34623" data-name="Path 34623" d="M343.027,170.45c.515-.438,1.157-.807,1.377-1.461.318-.935-.405-2.059.1-2.9.467-.767,1.771-.694,2.191-1.461.34-.613,0-1.172.124-1.716a1.493,1.493,0,0,1,1.482-.92l4.17,6.426c.343,2.125.73,3.264.23,4.488a9.857,9.857,0,0,0-.73,2.037,2.053,2.053,0,0,0,.617,1.968c-2.607.131-5.006-1.3-7.222-2.68l-2.344-1.461a1.771,1.771,0,0,1-.639-.566C342.066,171.619,342.508,170.889,343.027,170.45Z" transform="translate(-337.028 -155.966)" fill="#263238"/>
      <path id="Path_34624" data-name="Path 34624" d="M350.66,165.784a1.06,1.06,0,0,0,.274.062,2.348,2.348,0,0,0,.811-.033,2.508,2.508,0,0,0,1.15-.577,2.468,2.468,0,0,0,.785-1.5,2.581,2.581,0,0,0-.055-1,4.053,4.053,0,0,0-.456-.982,3.9,3.9,0,0,1-.471-1.015,1.3,1.3,0,0,1,.172-1.1c.245-.31.686-.365,1.1-.529a1.187,1.187,0,0,0,.566-.394,1.15,1.15,0,0,0,.2-.675,7.59,7.59,0,0,0-.256-1.366,1.46,1.46,0,0,1,0-.665.924.924,0,0,1,.391-.515,2.556,2.556,0,0,1,1.325-.314,2.859,2.859,0,0,0,1.351-.365,2.531,2.531,0,0,0,.946-.968,4.225,4.225,0,0,0,.365-1.238,5.748,5.748,0,0,1,.288-1.161,2.6,2.6,0,0,1,.639-.906,2.921,2.921,0,0,1,3.421-.365,3.622,3.622,0,0,1,.979.789,4.486,4.486,0,0,1,.6.906.193.193,0,0,0-.022-.069c-.022-.047-.044-.11-.084-.194a3.571,3.571,0,0,0-1.428-1.508,3.053,3.053,0,0,0-1.647-.413,3.093,3.093,0,0,0-1.9.778,2.742,2.742,0,0,0-.675.946,6.147,6.147,0,0,0-.3,1.187,4.069,4.069,0,0,1-.365,1.194,2.4,2.4,0,0,1-.895.909,2.684,2.684,0,0,1-1.285.336,2.731,2.731,0,0,0-1.4.336,1.1,1.1,0,0,0-.449.6,1.6,1.6,0,0,0-.018.73,7.753,7.753,0,0,1,.259,1.336,1.022,1.022,0,0,1-.172.592,1.011,1.011,0,0,1-.5.365c-.2.077-.409.128-.613.208a1.227,1.227,0,0,0-.544.365,1.413,1.413,0,0,0-.19,1.216,3.975,3.975,0,0,0,.489,1.052,3.994,3.994,0,0,1,.453.946,2.429,2.429,0,0,1,.062.953,2.4,2.4,0,0,1-.73,1.461,2.475,2.475,0,0,1-1.1.581A2.735,2.735,0,0,1,350.66,165.784Z" transform="translate(-342.35 -148.159)" fill="#455a64"/>
      <path id="Path_34625" data-name="Path 34625" d="M403.52,169.138a1.012,1.012,0,0,1-.026.679.909.909,0,0,1-.559.533.935.935,0,0,1-.946-.288.858.858,0,0,1-.208-.548,1.826,1.826,0,0,1,.117-.657,3.784,3.784,0,0,0,.42-1.482,2.1,2.1,0,0,0-.73-1.526,2.531,2.531,0,0,0-.8-.449,3.6,3.6,0,0,0-.92-.161,4.72,4.72,0,0,1-.9-.117,1.2,1.2,0,0,1-.686-.456,1.46,1.46,0,0,1-.23-.778,2.8,2.8,0,0,1,.088-.8,6.1,6.1,0,0,0,.277-1.515,2.268,2.268,0,0,0-.431-1.274,2.922,2.922,0,0,0-.825-.73,5.36,5.36,0,0,1-.665-.486,1.676,1.676,0,0,1-.409-.562v.047a1.007,1.007,0,0,0,.047.128,1.4,1.4,0,0,0,.314.427,5.047,5.047,0,0,0,.657.515,2.943,2.943,0,0,1,.785.73,2.191,2.191,0,0,1,.391,1.216,6.111,6.111,0,0,1-.285,1.482,2.983,2.983,0,0,0-.1.836,1.625,1.625,0,0,0,.252.854,1.336,1.336,0,0,0,.77.515,4.975,4.975,0,0,0,.924.128,3.5,3.5,0,0,1,.887.15,2.377,2.377,0,0,1,.752.42,1.975,1.975,0,0,1,.7,1.417,3.875,3.875,0,0,1-.4,1.439,1.873,1.873,0,0,0-.117.7.964.964,0,0,0,.245.617,1.019,1.019,0,0,0,1.052.3.946.946,0,0,0,.588-.592.956.956,0,0,0,.04-.529.529.529,0,0,0-.08-.179Z" transform="translate(-371.192 -153.762)" fill="#263238"/>
      <path id="Path_34626" data-name="Path 34626" d="M353.118,147.939s-.153.179-.489.613a4.284,4.284,0,0,1-1.53.957c-.332.131-1.639.442-2.191.632a4.075,4.075,0,0,0-1.384.931,2.537,2.537,0,0,0-.73,1.409,4.446,4.446,0,0,0,.044,1.325,1.884,1.884,0,0,1-.365.975c-.226.42-1.282.6-1.753.895s-.387.869-.409,1.132a7.539,7.539,0,0,0,.135,1.041,2.554,2.554,0,0,1,0,.686,1.625,1.625,0,0,1-.292.69,4.506,4.506,0,0,1-.73.69l-.46.383c-.515.435-.917,1.121-.584,1.709a1.771,1.771,0,0,0,.639.566h0a4.037,4.037,0,0,0,1.826-1.99,7.186,7.186,0,0,0,.617-3.264c0-1.3,1.431-1.234,1.935-2.191.9-1.712.062-2.519,1.2-3.348,1.325-.964,1.859.131,4.1-2.063,1.687-1.65,1.873-2.479,3.947-3.169,2.158-.73,4.495.73,4.495.73a4.065,4.065,0,0,0-1-.73,6.437,6.437,0,0,0-3.21-.613,4.554,4.554,0,0,0-2.987.993,4.176,4.176,0,0,0-.467.518l-.08.106" transform="translate(-337.016 -145.763)" fill="#fff" opacity="0.5"/>
      <path id="Path_34627" data-name="Path 34627" d="M396.182,160.783c.7.909,1.749.982,1.749,2.348a7.167,7.167,0,0,0,1.227,3.147v.489a7.471,7.471,0,0,0,1.9-1.055,1.928,1.928,0,0,1-2-1.486c-.19-.953.347-2.074-.234-2.852-.5-.661-1.548-.672-2.063-1.314s-.267-1.592-.179-2.421a5.375,5.375,0,0,0-1.183-3.9.163.163,0,0,1,0-.026c.124.1.27.2.427.314a3,3,0,0,1,.785.73,2.191,2.191,0,0,1,.391,1.216,6.047,6.047,0,0,1-.285,1.482,3,3,0,0,0-.1.836,1.625,1.625,0,0,0,.252.854,1.362,1.362,0,0,0,.77.518,4.97,4.97,0,0,0,.924.124,3.652,3.652,0,0,1,.887.15,2.377,2.377,0,0,1,.752.42,1.979,1.979,0,0,1,.7,1.417,3.855,3.855,0,0,1-.4,1.439,1.873,1.873,0,0,0-.117.7.964.964,0,0,0,.245.617,1.03,1.03,0,0,0,1.052.3,1,1,0,0,0,.628-1.125.53.53,0,0,0-.069-.172,1.011,1.011,0,0,1-.026.679.9.9,0,0,1-.559.533.938.938,0,0,1-.946-.285.877.877,0,0,1-.208-.551,1.851,1.851,0,0,1,.117-.657,3.784,3.784,0,0,0,.42-1.482,2.1,2.1,0,0,0-.73-1.526,2.53,2.53,0,0,0-.8-.449,3.6,3.6,0,0,0-.92-.157,5.028,5.028,0,0,1-.9-.121,1.2,1.2,0,0,1-.686-.456,1.461,1.461,0,0,1-.23-.774,2.966,2.966,0,0,1,.088-.8,6.1,6.1,0,0,0,.278-1.512,2.278,2.278,0,0,0-.431-1.278,3.016,3.016,0,0,0-.825-.73,6.292,6.292,0,0,1-.566-.405,2.464,2.464,0,0,1-.208-.471,10.132,10.132,0,0,1-.142-1.6,3.217,3.217,0,0,0-.917-1.793,6.719,6.719,0,0,1,.756,3.83c-.117.6.971,1.143,1.1,2.691S395.832,160.323,396.182,160.783Z" transform="translate(-369.897 -148.157)" fill="#fff" opacity="0.5"/>
      <path id="Path_34628" data-name="Path 34628" d="M375.987,148.919a3.091,3.091,0,0,0-.135-.555,3.045,3.045,0,0,0-.832-1.285,5.521,5.521,0,0,0-2-1.1,5.776,5.776,0,0,0-2.775-.234,5.065,5.065,0,0,0-2.512,1.179,4.356,4.356,0,0,0-.8.938,3.258,3.258,0,0,1-.73.833,4.017,4.017,0,0,1-1.439.672,3.647,3.647,0,0,1-.424.08h-.15s.2-.047.551-.161a4.239,4.239,0,0,0,1.377-.7,3.122,3.122,0,0,0,.675-.818,4.641,4.641,0,0,1,.814-.971,5.2,5.2,0,0,1,2.6-1.238,5.9,5.9,0,0,1,2.866.256,5.579,5.579,0,0,1,2.041,1.168,2.921,2.921,0,0,1,.807,1.362,2.4,2.4,0,0,1,.073.427C376,148.868,375.995,148.919,375.987,148.919Z" transform="translate(-350.94 -145.491)" fill="#fff"/>
      <path id="Path_34629" data-name="Path 34629" d="M401.353,171.711a.868.868,0,0,1-.062-.113,1.5,1.5,0,0,1-.1-.365,6.258,6.258,0,0,1,0-1.329,3.238,3.238,0,0,0-.062-.887,1.314,1.314,0,0,0-.577-.774,9.626,9.626,0,0,0-1.011-.533,1.972,1.972,0,0,1-.964-.843,2.143,2.143,0,0,1-.066-1.278,6.878,6.878,0,0,0,.157-1.136,5.2,5.2,0,0,0-.292-1.9,6.959,6.959,0,0,0-.847-1.574.516.516,0,0,1,.095.084,2.553,2.553,0,0,1,.234.277,4.723,4.723,0,0,1,.643,1.165,5.149,5.149,0,0,1,.343,1.95,6.774,6.774,0,0,1-.146,1.161,1.987,1.987,0,0,0,.051,1.168,1.825,1.825,0,0,0,.876.759,8.67,8.67,0,0,1,1.03.555,1.461,1.461,0,0,1,.628.88,3.287,3.287,0,0,1,.044.931,7.666,7.666,0,0,0-.055,1.311C401.3,171.543,401.375,171.7,401.353,171.711Z" transform="translate(-372.106 -155.324)" fill="#fff"/>
      <path id="Path_34630" data-name="Path 34630" d="M353.531,156.309a6.807,6.807,0,0,0-1.632.522,3.582,3.582,0,0,0-1.362,1.187,2.8,2.8,0,0,0-.405.99,6.127,6.127,0,0,0-.04,1.172,1.954,1.954,0,0,1-.3,1.19,1.877,1.877,0,0,1-1,.573,2.155,2.155,0,0,0-.862.413,1.4,1.4,0,0,0-.383.73,2.922,2.922,0,0,0,.069,1.23,2.377,2.377,0,0,1,.095.456,1.923,1.923,0,0,1-.168-.434,2.812,2.812,0,0,1-.128-1.278,1.5,1.5,0,0,1,.405-.811,2.245,2.245,0,0,1,.92-.467,1.723,1.723,0,0,0,.9-.515,1.793,1.793,0,0,0,.259-1.1,6.052,6.052,0,0,1,.047-1.2,2.921,2.921,0,0,1,.442-1.048,3.611,3.611,0,0,1,1.461-1.223,4.173,4.173,0,0,1,1.223-.365A1.742,1.742,0,0,1,353.531,156.309Z" transform="translate(-340.277 -152.355)" fill="#fff"/>
      <path id="Path_34631" data-name="Path 34631" d="M392.847,167.966a1.825,1.825,0,0,1-.04-.424c0-.314-.033-.7-.055-1.154-.051-.971-.131-2.315-.292-3.79a7.325,7.325,0,0,0-1.2-3.524,5.966,5.966,0,0,0-1.1-1.1,1.519,1.519,0,0,1,.365.212,3.7,3.7,0,0,1,.84.807,7.058,7.058,0,0,1,1.285,3.582c.161,1.482.223,2.83.237,3.808v1.154A1.762,1.762,0,0,1,392.847,167.966Z" transform="translate(-367.427 -153.42)" fill="#fff"/>
      <path id="Path_34632" data-name="Path 34632" d="M361.94,431.661l.88,10.078,4.422-.544.577-9.9Z" transform="translate(-349.512 -326.941)" fill="#263238"/>
      <path id="Path_34633" data-name="Path 34633" d="M365.4,452.94s-3.027,2.424-4.623.537l-.365.971-1.461,6.865a.909.909,0,0,0,.544,1.063.847.847,0,0,0,.9-.223c1.234-1.314,5.74-6.171,5.667-6.8l-.088-1.661a.847.847,0,0,0-.559-.756Z" transform="translate(-347.598 -340.68)" fill="#263238"/>
      <path id="Path_34634" data-name="Path 34634" d="M360.845,465.628l6.39-7.628v.365a1.044,1.044,0,0,1-.285.818,64.961,64.961,0,0,1-5.349,6.207.862.862,0,0,1-.77.263Z" transform="translate(-348.807 -343.892)" fill="#455a64"/>
      <path id="Path_34635" data-name="Path 34635" d="M362.714,466.772c-.047.026-.256-.416-.763-.635a2.512,2.512,0,0,0-.971-.142c0-.022.095-.095.288-.131a1.355,1.355,0,0,1,1.344.6C362.714,466.633,362.733,466.764,362.714,466.772Z" transform="translate(-348.902 -348.874)" fill="#fafafa"/>
      <path id="Path_34636" data-name="Path 34636" d="M361.461,470.6c-.04.04-.318-.226-.756-.336a6.442,6.442,0,0,0-.825-.069.935.935,0,0,1,.869-.113C361.249,470.2,361.5,470.57,361.461,470.6Z" transform="translate(-348.204 -351.522)" fill="#fafafa"/>
      <path id="Path_34637" data-name="Path 34637" d="M364.462,462.592a8.584,8.584,0,0,0-1.136-.6,8.964,8.964,0,0,0-1.256-.241,1.873,1.873,0,0,1,1.318.062A1.92,1.92,0,0,1,364.462,462.592Z" transform="translate(-349.594 -346.216)" fill="#fafafa"/>
      <path id="Path_34638" data-name="Path 34638" d="M364.971,457.991c0,.051-.489-.124-1.1-.12s-1.1.175-1.1.124a1.647,1.647,0,0,1,1.1-.314A1.628,1.628,0,0,1,364.971,457.991Z" transform="translate(-350.045 -343.686)" fill="#263238"/>
      <path id="Path_34639" data-name="Path 34639" d="M362.782,455.5a.818.818,0,0,1,.033-.325,2.315,2.315,0,0,1,.365-.807,1,1,0,0,1,.482-.416.336.336,0,0,1,.365.135.58.58,0,0,1,.08.4,1.231,1.231,0,0,1-1.216.99,1.4,1.4,0,0,1-1.263-.938.507.507,0,0,1,.033-.416.332.332,0,0,1,.365-.131,1.161,1.161,0,0,1,.508.365,2.556,2.556,0,0,1,.475.73.752.752,0,0,1,.088.314,4.068,4.068,0,0,0-.654-.96,1.2,1.2,0,0,0-.453-.31.179.179,0,0,0-.2.073.365.365,0,0,0,0,.274,1.256,1.256,0,0,0,1.1.8,1.07,1.07,0,0,0,1.044-.829.416.416,0,0,0-.044-.281.179.179,0,0,0-.2-.077.9.9,0,0,0-.416.343,3.47,3.47,0,0,0-.478,1.063Z" transform="translate(-349.294 -341.313)" fill="#fafafa"/>
      <path id="Path_34640" data-name="Path 34640" d="M407.494,446.737c-.095-.157-.924-3.545-.924-3.545l5.744-1.391.672,4.867Z" transform="translate(-377.846 -333.607)" fill="#263238"/>
      <path id="Path_34641" data-name="Path 34641" d="M413.357,452.126v.387s6.207,2.735,6.247,3.98l-12.415-.263.263-4.33A6.792,6.792,0,0,0,413.357,452.126Z" transform="translate(-378.239 -340.019)" fill="#263238"/>
      <path id="Path_34642" data-name="Path 34642" d="M407.21,461.951l.062-1.041,11.863.632s.548.263.475.672Z" transform="translate(-378.252 -345.74)" fill="#455a64"/>
      <path id="Path_34643" data-name="Path 34643" d="M422.187,453.572c0,.066-.307.088-.61.285s-.467.464-.522.435.044-.391.413-.624S422.2,453.514,422.187,453.572Z" transform="translate(-387.033 -341.041)" fill="#fafafa"/>
      <path id="Path_34644" data-name="Path 34644" d="M426.242,455.255c0,.062-.252.168-.464.431s-.278.548-.34.544-.088-.365.179-.69S426.242,455.2,426.242,455.255Z" transform="translate(-389.799 -342.133)" fill="#fafafa"/>
      <path id="Path_34645" data-name="Path 34645" d="M429.514,457.936c-.055,0-.131-.307.033-.654s.449-.478.471-.424-.153.234-.285.522S429.576,457.929,429.514,457.936Z" transform="translate(-392.37 -343.16)" fill="#fafafa"/>
      <path id="Path_34646" data-name="Path 34646" d="M382.042,280.84s3.651,16.5,5.864,32.837c1.826,13.441,2.366,27.947,2.366,27.947l-6.452.2s-3.454-16.7-6.174-28.714a154.072,154.072,0,0,0-4.63-16.913L371.3,280Z" transform="translate(-355.454 -230.886)" fill="#263238"/>
      <path id="Path_34647" data-name="Path 34647" d="M345,279.54s-5.864,7.471-5.616,15.463c.15,4.78,8.278,47.467,8.278,47.467h6.51l-1.008-45.142,2.355-14.686Z" transform="translate(-335.188 -230.594)" fill="#263238"/>
      <path id="Path_34648" data-name="Path 34648" d="M424.408,200.45a8.034,8.034,0,0,1-.394,1.716,8.44,8.44,0,0,1-.573,1.665,16.064,16.064,0,0,1,.968-3.381Z" transform="translate(-388.556 -180.382)" fill="#fff"/>
      <path id="Path_34649" data-name="Path 34649" d="M421.724,200.087l-1.125,3.728-.416.632s-.31,2.063-.321,2.5a22.936,22.936,0,0,0,.639,2.709l-1.2,2.081,3.567,1.23a15.568,15.568,0,0,1,1.15-2.114,2.275,2.275,0,0,0,.475-1.241c.051-.409.493-2.844.493-2.844s1.461-2.72.814-2.833a2.283,2.283,0,0,0-.489.026s-.88,1.789-1.132,1.826l-.365-.194s.643-2.709.661-3.213-.095-.854-.486-.9c0,0-.285.128-.307.256a18.308,18.308,0,0,1-.818,3.1c-.168-.051-.1-.325-.1-.325s.851-3.651.8-3.87a.57.57,0,0,0-.6-.478l-.679,2.019s.292-1.691,0-1.979A.467.467,0,0,0,421.724,200.087Z" transform="translate(-385.927 -180.122)" fill="#ffbf9d"/>
      <path id="Path_34650" data-name="Path 34650" d="M424.769,212.52c-.029,0-.018-.314-.153-.811a3.173,3.173,0,0,0-1.154-1.658l-.051-.033v-.058c.055-.267.11-.551.164-.84V209.1h0c.058-.091.117-.194.172-.3a3.2,3.2,0,0,0,.365-1.073,1.176,1.176,0,0,0-.026-.5.365.365,0,0,0-.278-.263l.058-.026c-.405.416-.749.763-.99,1a2.432,2.432,0,0,1-.4.365,2.232,2.232,0,0,1,.332-.416c.223-.256.548-.613.942-1.041l.026-.029h.033a.515.515,0,0,1,.435.365,1.4,1.4,0,0,1,.04.577,3.311,3.311,0,0,1-.365,1.139c-.058.11-.117.215-.183.314v-.033c-.062.288-.117.57-.172.84l-.04-.091a3.093,3.093,0,0,1,1.165,1.778,2.555,2.555,0,0,1,.069.613C424.788,212.443,424.78,212.52,424.769,212.52Z" transform="translate(-387.946 -184.426)" fill="#ff9a6c"/>
      <path id="Path_34651" data-name="Path 34651" d="M428.47,214.27a2.5,2.5,0,0,1,1.136.449,2.556,2.556,0,0,1,.917.807,10.634,10.634,0,0,1-1.015-.65A11.259,11.259,0,0,1,428.47,214.27Z" transform="translate(-391.749 -189.156)" fill="#ff9a6c"/>
      <path id="Path_34652" data-name="Path 34652" d="M401.693,224.6a1.1,1.1,0,0,1,.026.237c0,.175.018.4.029.683.029.592.037,1.461.026,2.512-.018,2.121-.2,5.05-.5,8.27s-.57,6.138-.668,8.252c-.055,1.059-.088,1.917-.095,2.508a6.072,6.072,0,0,1-.022.683,1.234,1.234,0,0,1-.018.237.946.946,0,0,1-.018-.237v-.683c0-.6,0-1.461.037-2.512.066-2.121.31-5.046.613-8.267s.508-6.138.562-8.256c.026-1.059.036-1.917.029-2.508v-.683A1.094,1.094,0,0,1,401.693,224.6Z" transform="translate(-373.958 -195.714)" fill="#263238"/>
      <path id="Path_34653" data-name="Path 34653" d="M404.351,217.185l-1.5,4.973-2.366-9.063a3.169,3.169,0,0,0-2.008-2.169l-2.1-.537,1.826,18.049.486,1.366a3.6,3.6,0,0,0,1.778,1.884,3.987,3.987,0,0,0,5.594-2.278l3.323-10.684Z" transform="translate(-371.376 -186.693)" fill="#f8951d"/>
      <path id="Path_34654" data-name="Path 34654" d="M357.46,212.2l1.059,20.513,13.4.489,1.227,1.322.106-16.468-4.312-11.849h0a2.737,2.737,0,0,1-2.921,1.223,7.589,7.589,0,0,1-3.14-.825L361.1,204.84Z" transform="translate(-346.667 -183.169)" fill="#fff"/>
      <path id="Path_34655" data-name="Path 34655" d="M347.165,202.16l-1.461,1.629-7.131,2.585,3.739,21.068-3.527,8.033a19.839,19.839,0,0,0-.938,2.6l-2.257,7.894s8.1,3.505,9.928,2.516,4.1-11.973,4.827-14.357,1.015-9.972.654-13.787-1-9.439-1.347-11.385A48.776,48.776,0,0,0,347.165,202.16Z" transform="translate(-332.783 -181.468)" fill="#f8951d"/>
      <path id="Path_34656" data-name="Path 34656" d="M389,204.44l.975,1.607,4.217,1.194a71.27,71.27,0,0,1,.917,7.164c-.044,1.534-1.157,18.516-1.179,19.319s3.94,13.043,3.651,13.7c-.168.387-1.975.405-3.089.7a1.278,1.278,0,0,1-1.592-1.114c-.3-3.045-1.139-10.111-1.066-12.579.088-3.2.365-10.954-.175-14.857S389,206.017,389,206.017Z" transform="translate(-366.691 -182.916)" fill="#f8951d"/>
      <path id="Path_34657" data-name="Path 34657" d="M393.784,239.152a.281.281,0,0,1,0-.08v-.234c0-.219.022-.518.04-.9.04-.8.1-1.917.168-3.286.142-2.786.365-6.634.555-10.885.022-.533.044-1.055.051-1.574s-.022-1.022-.047-1.523c-.051-1-.106-1.968-.172-2.888s-.15-1.789-.263-2.6a11.134,11.134,0,0,0-.559-2.191,29.359,29.359,0,0,0-1.315-3.023l-.405-.8c-.044-.084-.08-.153-.106-.208s-.036-.073-.033-.073a.366.366,0,0,1,.047.066l.121.2c.1.175.252.438.435.785a24.911,24.911,0,0,1,1.369,3.005,10.852,10.852,0,0,1,.584,2.213c.124.814.208,1.691.281,2.611s.128,1.888.183,2.888c.022.5.069,1.011.051,1.537s-.033,1.044-.051,1.577c-.19,4.254-.431,8.1-.606,10.885-.095,1.38-.168,2.5-.223,3.286-.029.365-.055.675-.069.895,0,.095-.018.172-.022.234A.314.314,0,0,1,393.784,239.152Z" transform="translate(-368.404 -185.741)" fill="#263238"/>
      <path id="Path_34658" data-name="Path 34658" d="M367.777,231.846a1.129,1.129,0,0,1-.033-.252c0-.164-.026-.405-.036-.73-.022-.628-.033-1.537,0-2.662.026-.562.066-1.176.128-1.826a8.284,8.284,0,0,0-.19-2.07,35.359,35.359,0,0,0-1.406-4.6c-.6-1.6-1.22-3.115-1.8-4.48a18.485,18.485,0,0,1-.767-1.972,16.772,16.772,0,0,1-.383-1.8c-.183-1.1-.274-2.016-.332-2.644-.029-.31-.047-.555-.055-.73a1.018,1.018,0,0,1,0-.252,1.578,1.578,0,0,1,.036.248l.088.73c.077.624.186,1.526.365,2.629a18.13,18.13,0,0,0,.4,1.786,19.076,19.076,0,0,0,.774,1.95c.588,1.366,1.216,2.874,1.826,4.484a33.886,33.886,0,0,1,1.4,4.634,8.517,8.517,0,0,1,.179,2.114c-.069.657-.117,1.271-.15,1.826-.066,1.117-.069,2.026-.069,2.655v.73A.946.946,0,0,0,367.777,231.846Z" transform="translate(-350.12 -185.061)" fill="#263238"/>
      <path id="Path_34659" data-name="Path 34659" d="M403.675,225.33a1.674,1.674,0,0,1,.022.219,5.3,5.3,0,0,0,.029.628c.026.548.033,1.344.022,2.322-.018,1.961-.186,4.666-.467,7.642s-.526,5.671-.617,7.624c-.051.979-.08,1.771-.088,2.319l-.018.628a.112.112,0,1,1-.018,0v-.628c0-.548,0-1.344.033-2.322.062-1.961.288-4.659.57-7.635s.464-5.674.515-7.628c.026-.979.037-1.771.029-2.319v-.632A.942.942,0,0,1,403.675,225.33Z" transform="translate(-375.287 -196.178)" fill="#263238"/>
      <path id="Path_34660" data-name="Path 34660" d="M348.027,226.128a2.066,2.066,0,0,1,0-.438c0-.281,0-.69-.022-1.194a20.914,20.914,0,0,0-.537-3.889,20.449,20.449,0,0,0-1.271-3.713c-.2-.46-.383-.825-.515-1.1a2.169,2.169,0,0,1-.183-.4,2.043,2.043,0,0,1,.241.365c.15.241.343.6.566,1.059a18.317,18.317,0,0,1,1.329,3.724,18.573,18.573,0,0,1,.489,3.925c0,.508,0,.917-.033,1.2A2.188,2.188,0,0,1,348.027,226.128Z" transform="translate(-339.074 -189.874)" fill="#263238"/>
      <path id="Path_34661" data-name="Path 34661" d="M340.027,313.892a14.908,14.908,0,0,1,1.826,1.68,13.979,13.979,0,0,0,1.727,2.629.471.471,0,0,1-.756.3,5.316,5.316,0,0,1-1.588-1.461c-.252-.409-.533-.183-.559.168s.208,2.724.208,2.724.665,2.647.456,2.939a.478.478,0,0,1-.752,0c-.1-.139-.865-2.359-.865-2.359l-.183-1.2s.321,3.8.073,4.086a.413.413,0,0,1-.665,0,8.406,8.406,0,0,1-.285-1.826l-.329-2.246-.047,4.261s-.058.4-.365.409-.518-.467-.518-.467l-.329-4.389a13.309,13.309,0,0,1-.088,2.556c-.168.113-.424.1-.489-.088a24.274,24.274,0,0,1-.288-2.585l-.084-4.181-.157-2.016,3.914-.146Z" transform="translate(-333.024 -251.633)" fill="#ffbf9d"/>
      <path id="Path_34662" data-name="Path 34662" d="M337.252,225.231,334.047,213.7a13.6,13.6,0,0,0-2.461,4.382c-.975,3.651-3.261,15.438-3.126,17.793s1.406,15.891,1.406,15.891l6.05-1.194-.65-15.423Z" transform="translate(-328.253 -188.794)" fill="#f8951d"/>
      <path id="Path_34663" data-name="Path 34663" d="M384,248.9a2.92,2.92,0,0,0,.471-.7,11.687,11.687,0,0,0,.632-1.972,13.48,13.48,0,0,0,.31-2.052,6.7,6.7,0,0,1,.066-.862,3.617,3.617,0,0,1,.047.869,10.11,10.11,0,0,1-.267,2.081,9.2,9.2,0,0,1-.686,1.986A1.322,1.322,0,0,1,384,248.9Z" transform="translate(-363.517 -207.593)" fill="#263238"/>
      <path id="Path_34664" data-name="Path 34664" d="M406.069,200.65a.57.57,0,0,0-.6-.478l-.679,2.023s.292-1.691,0-1.983a.467.467,0,0,0-.573-.12l-1.125,3.728-.037.055c-.051.062-.077.1-.069.106l-.31.471s-.31,2.063-.321,2.5a22.937,22.937,0,0,0,.639,2.709l-.7,1.216-.9-.277-1.5,4.973-2.366-9.063a3.2,3.2,0,0,0-1.581-1.979v-.08l-4.217-1.194s4.272,1.6,4.973,3.045c.931,1.913,1.986,9.059,2.863,9.859s2.242-4.933,2.242-4.933l2,.095-.665-4.966.175-1.826,1.285-1.88s.153.055.332-.15.551-1.906.683-1.906A3.1,3.1,0,0,1,406.069,200.65Z" transform="translate(-368.424 -180.123)" fill="#fff" opacity="0.5"/>
      <path id="Path_34665" data-name="Path 34665" d="M333.934,209.215h0s-.044.044-.12.139-.194.23-.336.42a15.338,15.338,0,0,0-1.143,1.72,11.021,11.021,0,0,0-.65,1.344,13.357,13.357,0,0,0-.5,1.705c-.3,1.238-.613,2.655-.935,4.225s-.661,3.286-.993,5.145-.676,3.838-.906,5.948a10.794,10.794,0,0,0-.073,1.618c.047.54.095,1.1.142,1.639.095,1.1.2,2.231.3,3.377s1.008,9.592,1.1,10.768l-.142-7.818c-.183-3.074-.833-7.054.57-12.243s3.509-13.817,4.192-15.591,6.616-4.98,6.616-4.98Z" transform="translate(-328.14 -184.306)" fill="#fff" opacity="0.5"/>
      <path id="Path_34666" data-name="Path 34666" d="M404.837,214.335a5.327,5.327,0,0,0-.632-1.336,5.4,5.4,0,0,0-1.1-.979.858.858,0,0,1,.431.146,2.633,2.633,0,0,1,1.293,1.716A.848.848,0,0,1,404.837,214.335Z" transform="translate(-375.649 -187.728)" fill="#fff"/>
      <path id="Path_34667" data-name="Path 34667" d="M420.927,211.36a16.388,16.388,0,0,0-.161,2.665,16.094,16.094,0,0,0,.482,2.625,2.329,2.329,0,0,1-.318-.73,7.8,7.8,0,0,1-.365-1.888,7.628,7.628,0,0,1,.124-1.913A2.555,2.555,0,0,1,420.927,211.36Z" transform="translate(-386.722 -187.309)" fill="#fff"/>
      <path id="Path_34668" data-name="Path 34668" d="M340.827,206.62l-.1.044-.3.113-1.143.413c-.993.365-2.432.865-4.2,1.526l-.676.259a6.024,6.024,0,0,0-.668.288,6.8,6.8,0,0,0-1.022,1.212,11.684,11.684,0,0,0-1.461,3.195,17.059,17.059,0,0,0-.4,1.851q-.186.964-.365,1.964c-.256,1.333-.522,2.717-.792,4.13-.533,2.83-1.1,5.528-1.519,7.975a13.146,13.146,0,0,0,0,3.513c.11,1.1.212,2.132.3,3.074l.427,4.451c.047.515.084.92.11,1.209a1.334,1.334,0,0,0,.022.318.391.391,0,0,1,0,.106.366.366,0,0,1-.011-.084l-.044-.314c-.033-.288-.08-.694-.142-1.2-.117-1.066-.281-2.578-.486-4.447-.1-.938-.212-1.964-.329-3.067a13.284,13.284,0,0,1-.022-3.556c.435-2.468.971-5.152,1.508-7.985.274-1.413.537-2.793.8-4.126q.19-1,.365-1.964a16.684,16.684,0,0,1,.431-1.873,11.735,11.735,0,0,1,1.479-3.235,7.091,7.091,0,0,1,1.052-1.23,4.747,4.747,0,0,1,.73-.314l.679-.256c1.775-.643,3.224-1.132,4.225-1.461l1.154-.365.3-.095A.521.521,0,0,1,340.827,206.62Z" transform="translate(-327.902 -184.3)" fill="#fff"/>
      <path id="Path_34669" data-name="Path 34669" d="M349.729,253.91l2.392,5.806-3.071,4.692,1.811-4.111Z" transform="translate(-341.328 -214.322)" fill="#fff" opacity="0.3"/>
      <path id="Path_34670" data-name="Path 34670" d="M339.686,247.44a.773.773,0,0,1-.018.175c-.022.128-.051.3-.088.5-.084.456-.2,1.1-.365,1.884l-1.285,6.572h0c.08,1.869.168,3.932.263,6.105.142,3.516.27,6.755.365,9.318v.066H338.5l-4.327.829-1.2.219-.318.051a.4.4,0,0,1-.11,0,.482.482,0,0,1,.106-.033l.31-.073,1.194-.259,4.349-.9-.062.08c-.113-2.556-.256-5.8-.413-9.318-.088-2.173-.172-4.236-.248-6.105v-.022c.551-2.669,1.019-4.94,1.351-6.572.168-.789.3-1.42.4-1.873.047-.2.084-.365.113-.5A.9.9,0,0,1,339.686,247.44Z" transform="translate(-330.846 -210.215)" fill="#263238"/>
      <path id="Path_34671" data-name="Path 34671" d="M348.2,299a1.1,1.1,0,0,1,.3.069l.8.252c.683.223,1.65.548,2.779.935l-.113.047c.256-.624.529-1.3.818-2.016l.318-.767.055.124c-1.461-.5-2.724-.957-3.651-1.289l-1.07-.4a2.015,2.015,0,0,1-.383-.168,1.993,1.993,0,0,1,.405.1l1.1.347c.924.3,2.191.73,3.651,1.23l.095.033-.037.091-.314.77c-.3.708-.573,1.388-.833,2.012l-.033.077-.08-.026c-1.121-.4-2.078-.73-2.753-1l-.785-.3A1.458,1.458,0,0,1,348.2,299Z" transform="translate(-340.693 -240.911)" fill="#263238"/>
      <path id="Path_34672" data-name="Path 34672" d="M411.995,241.73a5.376,5.376,0,0,1-.274.84c-.175.511-.4,1.227-.592,2.03a20.817,20.817,0,0,0-.365,2.085,4.947,4.947,0,0,1-.128.873,3.224,3.224,0,0,1,0-.887,13.179,13.179,0,0,1,.321-2.114,13.023,13.023,0,0,1,.654-2.034A3.287,3.287,0,0,1,411.995,241.73Z" transform="translate(-380.408 -206.59)" fill="#263238"/>
      <path id="Path_34673" data-name="Path 34673" d="M351.26,394.98a1.2,1.2,0,0,1-.062-.256l-.142-.73-.508-2.724c-.438-2.3-1.1-5.477-1.8-8.964s-1.344-6.675-1.745-8.982c-.2-1.154-.365-2.089-.449-2.735-.044-.31-.08-.559-.106-.73a1.149,1.149,0,0,1-.022-.259,1.825,1.825,0,0,1,.062.256c.033.186.08.435.139.73.124.661.3,1.588.508,2.72.438,2.3,1.1,5.477,1.8,8.968s1.34,6.675,1.742,8.979c.2,1.154.365,2.089.449,2.739.044.307.08.555.106.73A2,2,0,0,1,351.26,394.98Z" transform="translate(-339.664 -287.77)" fill="#fff"/>
    </g>
    <g id="freepik--character-1--inject-12" transform="translate(46.138 57.517)">
      <path id="Path_34674" data-name="Path 34674" d="M75.629,164.641l.237,4.228.281.778s-.2,2.26-.3,2.724a25.783,25.783,0,0,1-1.362,2.706l.73,2.5-4.09.394a16.834,16.834,0,0,0-.675-2.527,2.475,2.475,0,0,1-.19-1.435c.051-.449.2-3.133.2-3.133s-.862-3.253-.139-3.206h.058a.683.683,0,0,1,.54.526,6.032,6.032,0,0,0,.639,1.844l.435-.117s0-3.027.117-3.564.318-.88.73-.829c0,0,.27.208.259.365a19.789,19.789,0,0,0,.08,3.483c.19-.011.186-.318.186-.318s.033-4.093.142-4.3a.621.621,0,0,1,.756-.365l.2,2.308s.124-1.859.5-2.1A.508.508,0,0,1,75.629,164.641Z" transform="translate(-69.868 -152.739)" fill="#ffbf9d"/>
      <path id="Path_34675" data-name="Path 34675" d="M76.71,177.834c.033,0,.1-.325.365-.818a3.41,3.41,0,0,1,1.639-1.461l.062-.026v-.062c0-.3.026-.61.04-.931v-.022h0c-.037-.11-.073-.234-.106-.365a3.512,3.512,0,0,1-.117-1.23,1.285,1.285,0,0,1,.15-.522.383.383,0,0,1,.365-.2l-.058-.044c.325.548.6,1,.8,1.307a2.636,2.636,0,0,0,.332.478,2.414,2.414,0,0,0-.245-.526c-.172-.329-.424-.789-.73-1.344v-.033h-.04a.551.551,0,0,0-.548.274,1.424,1.424,0,0,0-.19.6,3.651,3.651,0,0,0,.113,1.307,3.589,3.589,0,0,0,.117.365v-.036q0,.482-.033.931l.066-.088a3.345,3.345,0,0,0-1.683,1.585,2.856,2.856,0,0,0-.23.632.749.749,0,0,0-.066.237Z" transform="translate(-74.103 -157.596)" fill="#ff9a6c"/>
      <path id="Path_34676" data-name="Path 34676" d="M74.76,179.343a2.7,2.7,0,0,0-1.314.186,2.742,2.742,0,0,0-1.176.621,11.893,11.893,0,0,0,1.238-.431A11.918,11.918,0,0,0,74.76,179.343Z" transform="translate(-71.285 -162.23)" fill="#ff9a6c"/>
      <path id="Path_34677" data-name="Path 34677" d="M129.245,133.78a1.559,1.559,0,0,0-1.6-.825,2.129,2.129,0,0,0-2.622,0,1.891,1.891,0,0,0-2.888,1.486,1.585,1.585,0,0,0-1.435,2.64,1.519,1.519,0,0,0,.577,2.969l7.668-4.495A1.563,1.563,0,0,0,129.245,133.78Z" transform="translate(-101.338 -132.504)" fill="#263238"/>
      <path id="Path_34678" data-name="Path 34678" d="M122.472,143.626a6.452,6.452,0,0,1,6.551-5.8h.336c3.6.285,5.364,3.5,4.98,7.087l-.763,11.991-.526,1.5-6.207,7.766-1.559-7-.033-3.25a4.154,4.154,0,0,1-3.421-4.071C121.848,150.18,122.155,146.737,122.472,143.626Z" transform="translate(-102.748 -135.883)" fill="#ffbf9d"/>
      <path id="Path_34679" data-name="Path 34679" d="M131.23,185.245A8.4,8.4,0,0,0,135.761,184a4.222,4.222,0,0,1-4.528,2.1Z" transform="translate(-108.716 -165.197)" fill="#ff9a6c"/>
      <path id="Path_34680" data-name="Path 34680" d="M127.8,162.24a.493.493,0,0,0,.467.508.475.475,0,0,0,.518-.435.493.493,0,0,0-.467-.508.471.471,0,0,0-.518.435Z" transform="translate(-106.538 -151.105)" fill="#263238"/>
      <path id="Path_34681" data-name="Path 34681" d="M140.8,162.239a.5.5,0,0,0,.467.508.471.471,0,0,0,.518-.435.493.493,0,0,0-.464-.508.471.471,0,0,0-.522.435Z" transform="translate(-114.792 -151.104)" fill="#263238"/>
      <path id="Path_34682" data-name="Path 34682" d="M125.4,158c.062.066.442-.2.975-.19s.916.285.975.223-.033-.146-.2-.274a1.355,1.355,0,0,0-.778-.259,1.307,1.307,0,0,0-.774.234C125.427,157.857,125.368,157.97,125.4,158Z" transform="translate(-105.009 -148.372)" fill="#263238"/>
      <path id="Path_34683" data-name="Path 34683" d="M139.979,158.74c.062.066.442-.2.975-.19s.916.285.975.223-.033-.146-.2-.274a1.355,1.355,0,0,0-.778-.259,1.307,1.307,0,0,0-.774.234C140,158.6,139.939,158.71,139.979,158.74Z" transform="translate(-114.263 -148.842)" fill="#263238"/>
      <path id="Path_34684" data-name="Path 34684" d="M132.008,161.959a3.443,3.443,0,0,0-.862-.175c-.135,0-.263-.047-.285-.139a.7.7,0,0,1,.1-.4c.135-.325.274-.668.424-1.026a17.828,17.828,0,0,0,.957-2.687,17.961,17.961,0,0,0-1.172,2.6l-.405,1.033a.785.785,0,0,0-.08.533.332.332,0,0,0,.219.2.788.788,0,0,0,.23.037A3.629,3.629,0,0,0,132.008,161.959Z" transform="translate(-108.359 -148.391)" fill="#263238"/>
      <path id="Path_34685" data-name="Path 34685" d="M139.683,155.008c.058.139.522.026,1.077.047s1.019.146,1.1,0c.026-.062-.062-.19-.256-.314a1.672,1.672,0,0,0-.822-.234,1.588,1.588,0,0,0-.822.194C139.745,154.818,139.657,154.943,139.683,155.008Z" transform="translate(-114.08 -146.473)" fill="#263238"/>
      <path id="Path_34686" data-name="Path 34686" d="M125.813,154.08c.08.131.456.044.895.084s.8.164.9.047c.044-.058,0-.186-.153-.314a1.238,1.238,0,0,0-.708-.274,1.263,1.263,0,0,0-.73.168C125.838,153.9,125.776,154.018,125.813,154.08Z" transform="translate(-105.271 -145.91)" fill="#263238"/>
      <path id="Path_34687" data-name="Path 34687" d="M124.587,141.291s.957-2.147,2.012-2.633c1.278-.588,1.8.814,3.009.5s2.435-.873,3.651.084c1.329,1.048.679,1.753.73,3.286.208,6.233,1.311,8.033,1.694,5.094.04-.321.938-.559,1.1-1.913a15.341,15.341,0,0,0-.047-5.152,4.922,4.922,0,0,0-1.957-2.625,8.219,8.219,0,0,0-5.6-1.249C127.6,136.811,124.5,138.575,124.587,141.291Z" transform="translate(-104.498 -135.129)" fill="#263238"/>
      <path id="Path_34688" data-name="Path 34688" d="M154.107,164.909a.938.938,0,0,1,1.033-.887c.643.077,1.355.456,1.285,1.789a1.784,1.784,0,0,1-2.476,1.687C153.95,167.432,154.045,165.895,154.107,164.909Z" transform="translate(-123.14 -152.51)" fill="#ffbf9d"/>
      <path id="Path_34689" data-name="Path 34689" d="M155.486,167.967a.712.712,0,0,0,.11.069.416.416,0,0,0,.307.022,1.019,1.019,0,0,0,.518-.891,1.362,1.362,0,0,0-.084-.6.471.471,0,0,0-.292-.332.2.2,0,0,0-.248.1c-.036.066-.026.113-.036.117s-.051-.044-.026-.139a.245.245,0,0,1,.1-.142.321.321,0,0,1,.23-.051.588.588,0,0,1,.413.391,1.373,1.373,0,0,1,.106.668,1.07,1.07,0,0,1-.654.99.446.446,0,0,1-.365-.084C155.486,168.025,155.479,167.971,155.486,167.967Z" transform="translate(-124.114 -153.845)" fill="#ff9a6c"/>
      <path id="Path_34690" data-name="Path 34690" d="M138.4,141.533a2.242,2.242,0,0,1-1.011.442.77.77,0,0,1-.847-.559c-.022-.164.022-.365-.084-.486s-.365-.113-.566-.095a1.508,1.508,0,0,1-1.545-1.117.639.639,0,0,1-.854.066,3.513,3.513,0,0,1-.628-.7.986.986,0,0,0-.8-.424,2.19,2.19,0,0,1-.518.1c-.31-.033-.456-.4-.5-.708s-.069-.672-.329-.843a1.238,1.238,0,0,0-.847-.04c-.285.037-.654-.04-.73-.321a.577.577,0,0,1,.117-.427,1.534,1.534,0,0,1,1.826-.544,2.078,2.078,0,0,1,3.827-.321,2.107,2.107,0,0,1,3.352.836,1.53,1.53,0,0,1,1.68,2.26,1.461,1.461,0,0,1,.774,1.172.833.833,0,0,1-.96.829.847.847,0,0,1-1.461.814" transform="translate(-107.388 -133.724)" fill="#263238"/>
      <path id="Path_34691" data-name="Path 34691" d="M135.439,172a.2.2,0,0,1,.157-.026.183.183,0,0,1,.091.11,1.194,1.194,0,0,1-.131,1.143h0a.8.8,0,0,1-1.34-.172l-.186-.4Z" transform="translate(-110.494 -157.556)" fill="#ff9a6c"/>
      <path id="Path_34692" data-name="Path 34692" d="M134.423,173.106a.742.742,0,0,0,.584.3.657.657,0,0,0,.365-.055.792.792,0,0,0,.332-.241,1.406,1.406,0,0,0,.234-.862,1.364,1.364,0,0,0,0-.241.365.365,0,0,0-.139-.237.274.274,0,0,0-.274,0l-.183.091-.624.325a2.724,2.724,0,0,0-.559.336,2.826,2.826,0,0,0,.606-.237l.639-.3c.117-.047.267-.146.314-.1a.638.638,0,0,1,.084.347,1.355,1.355,0,0,1-.2.778.639.639,0,0,1-.267.2.53.53,0,0,1-.288.066A1.336,1.336,0,0,1,134.423,173.106Z" transform="translate(-110.576 -157.407)" fill="#263238"/>
      <path id="Path_34693" data-name="Path 34693" d="M152.675,151.47a.566.566,0,0,1-.157.449.759.759,0,0,1-.478.274.818.818,0,0,1-.672-.208h.1a2.359,2.359,0,0,1-.482.581,1.337,1.337,0,0,1-.438.259,1.044,1.044,0,0,1-1.154-.365,1.351,1.351,0,0,1-.179-.5.471.471,0,0,1,0-.19,1.55,1.55,0,0,1,.066.179,1.533,1.533,0,0,0,.208.453.964.964,0,0,0,1.42.066,2.359,2.359,0,0,0,.464-.544l.044-.069.058.055a.7.7,0,0,0,1-.022,1.15,1.15,0,0,0,.2-.42Z" transform="translate(-120.127 -144.545)" fill="#455a64"/>
      <path id="Path_34694" data-name="Path 34694" d="M135.751,134.8a.413.413,0,0,0-.172.058.8.8,0,0,0-.365.3l-.029.044-.033-.044a2.954,2.954,0,0,0-1.125-.949,2.238,2.238,0,0,0-.927-.223,1.91,1.91,0,0,0-1.008.263,1.943,1.943,0,0,0-.61.555,1.621,1.621,0,0,0-.274.708v.073h-.069a1.326,1.326,0,0,0-.986.1,1.3,1.3,0,0,0-.551.566,1.672,1.672,0,0,0-.161.7.413.413,0,0,1-.026-.194,1.293,1.293,0,0,1,.117-.536,1.351,1.351,0,0,1,.57-.625,1.4,1.4,0,0,1,1.074-.128l-.08.051a1.691,1.691,0,0,1,.288-.77,2.081,2.081,0,0,1,.65-.6,2,2,0,0,1,1.1-.277,2.319,2.319,0,0,1,.975.248,2.841,2.841,0,0,1,1.136,1.015h-.062a.792.792,0,0,1,.424-.3C135.685,134.79,135.751,134.794,135.751,134.8Z" transform="translate(-107.563 -133.375)" fill="#455a64"/>
      <path id="Path_34695" data-name="Path 34695" d="M113.932,434.68l-.047,6.5s-6.627,2.136-6.755,3.341l12.612.544.486-10.132Z" transform="translate(-93.416 -324.345)" fill="#263238"/>
      <path id="Path_34696" data-name="Path 34696" d="M135.259,451.434a.511.511,0,0,1,.329.6.493.493,0,0,1-.6.332.548.548,0,0,1-.365-.639.522.522,0,0,1,.661-.277" transform="translate(-110.865 -334.972)" fill="#e0e0e0"/>
      <path id="Path_34697" data-name="Path 34697" d="M119.718,461.1v-1.022l-12.1-.142s-.57.219-.526.621Z" transform="translate(-93.393 -340.382)" fill="#455a64"/>
      <path id="Path_34698" data-name="Path 34698" d="M125.08,452.2c0,.062.307.106.6.314s.442.478.5.456,0-.365-.365-.632S125.069,452.144,125.08,452.2Z" transform="translate(-104.811 -335.434)" fill="#fff"/>
      <path id="Path_34699" data-name="Path 34699" d="M121.39,453.6c0,.058.248.175.445.442s.245.548.307.548.117-.365-.135-.675S121.394,453.541,121.39,453.6Z" transform="translate(-102.469 -336.345)" fill="#fff"/>
      <path id="Path_34700" data-name="Path 34700" d="M118.358,456c.055,0,.153-.288,0-.632s-.427-.489-.453-.442.139.241.256.522S118.3,455.991,118.358,456Z" transform="translate(-100.255 -337.192)" fill="#fff"/>
      <path id="Path_34701" data-name="Path 34701" d="M125.557,447.9c.026.055.31-.018.657.022s.613.161.646.11-.215-.285-.624-.321S125.527,447.85,125.557,447.9Z" transform="translate(-105.113 -332.615)" fill="#fff"/>
      <path id="Path_34702" data-name="Path 34702" d="M164.806,438.47l.686,7.861-1.249,6.357a.807.807,0,0,0,.69.957h0a.81.81,0,0,0,.694-.256c1.125-1.227,5.24-5.758,5.159-6.328-.095-.665-.172-8.321-.172-8.321Z" transform="translate(-129.666 -326.751)" fill="#263238"/>
      <path id="Path_34703" data-name="Path 34703" d="M166.135,467.626l5.82-7.116.018.336a1.223,1.223,0,0,1-.234.8c-.464.617-1.775,2.3-4.889,5.722a.807.807,0,0,1-.73.256Z" transform="translate(-130.867 -340.744)" fill="#455a64"/>
      <g id="Group_8640" data-name="Group 8640" transform="translate(39.137 117.237)" opacity="0.6">
        <path id="Path_34704" data-name="Path 34704" d="M176.93,453.677a.489.489,0,0,0-.091.643.471.471,0,0,0,.639.1.518.518,0,0,0,.1-.683.486.486,0,0,0-.676-.029" transform="translate(-176.758 -453.584)" fill="#fff"/>
      </g>
      <path id="Path_34705" data-name="Path 34705" d="M167.607,468.824a2.384,2.384,0,0,0-.73-.566,2.416,2.416,0,0,0-.916-.117c0-.018.088-.084.27-.124a1.271,1.271,0,0,1,.712.08,1.238,1.238,0,0,1,.559.449C167.607,468.7,167.629,468.816,167.607,468.824Z" transform="translate(-130.765 -345.497)" fill="#fff"/>
      <path id="Path_34706" data-name="Path 34706" d="M166.514,472.349a6.492,6.492,0,0,0-.73-.292,5.974,5.974,0,0,0-.774-.051.9.9,0,0,1,.814-.12C166.306,471.991,166.551,472.324,166.514,472.349Z" transform="translate(-130.162 -347.935)" fill="#fff"/>
      <path id="Path_34707" data-name="Path 34707" d="M169.128,464.994a8.426,8.426,0,0,0-1.1-.526,7.642,7.642,0,0,0-1.183-.2,2.191,2.191,0,0,1,2.26.73Z" transform="translate(-131.33 -343.085)" fill="#fff"/>
      <path id="Path_34708" data-name="Path 34708" d="M169.5,459.352c0,.047-.464-.106-1.03-.091s-1.008.183-1.026.135A2,2,0,0,1,169.5,459.352Z" transform="translate(-131.705 -339.841)" fill="#fff"/>
      <path id="Path_34709" data-name="Path 34709" d="M169.036,452.968a3.979,3.979,0,0,0-1.07-.12,3.776,3.776,0,0,0-1.026.329c0-.018.066-.12.241-.237a1.764,1.764,0,0,1,1.574-.153C168.948,452.862,169.047,452.949,169.036,452.968Z" transform="translate(-131.387 -335.765)" fill="#fff"/>
      <path id="Path_34710" data-name="Path 34710" d="M167.447,449.242a.606.606,0,0,1-.029-.3,2,2,0,0,1,.186-.792.9.9,0,0,1,.365-.464.325.325,0,0,1,.365.051.529.529,0,0,1,.146.365,1.139,1.139,0,0,1-.931,1.1,1.322,1.322,0,0,1-1.34-.606.456.456,0,0,1-.044-.365.318.318,0,0,1,.321-.19,1.143,1.143,0,0,1,.533.237,2.3,2.3,0,0,1,.577.577c.106.157.146.259.135.263a3.651,3.651,0,0,0-.781-.73,1.011,1.011,0,0,0-.471-.194.168.168,0,0,0-.175.1.3.3,0,0,0,.047.245,1.168,1.168,0,0,0,1.168.515.99.99,0,0,0,.8-.938.365.365,0,0,0-.091-.245.172.172,0,0,0-.2-.029.814.814,0,0,0-.314.383A3.049,3.049,0,0,0,167.447,449.242Z" transform="translate(-130.883 -332.583)" fill="#fff"/>
      <path id="Path_34711" data-name="Path 34711" d="M106.307,283.946a27.94,27.94,0,0,0-.61,8.219c.135,1.745,6.028,50.074,6.028,50.074h7.96l-2.242-45.434.654.142s4.345,19.37,4.7,22.507c.318,2.822,4.221,24.979,4.221,24.979l7.507-.08-2.793-28.6-2.706-25.994-.993-7.566Z" transform="translate(-92.458 -227.534)" fill="#263238"/>
      <path id="Path_34712" data-name="Path 34712" d="M134.27,298.414a1.461,1.461,0,0,1-.332.186,3.786,3.786,0,0,1-.986.347,2.054,2.054,0,0,1-.73,0,1.508,1.508,0,0,1-.767-.365,1.826,1.826,0,0,1-.464-.814c-.095-.31-.146-.632-.212-.957-.256-1.311-.427-2.508-.526-3.378-.051-.435-.084-.785-.1-1.03a1.712,1.712,0,0,1,0-.383,1.961,1.961,0,0,1,.077.365c.04.274.091.617.153,1.022.131.862.321,2.052.573,3.359a3.145,3.145,0,0,0,.621,1.691,1.665,1.665,0,0,0,1.373.365,4.664,4.664,0,0,0,.979-.288A2.077,2.077,0,0,1,134.27,298.414Z" transform="translate(-108.025 -233.775)" fill="#263238"/>
      <path id="Path_34713" data-name="Path 34713" d="M133.891,292.577a.313.313,0,0,1,.164-.047.73.73,0,0,1,.445.142.8.8,0,0,1,.336.613.752.752,0,0,1-.511.686.73.73,0,0,1-.833-.183.781.781,0,0,1-.153-.683.73.73,0,0,1,.226-.405c.088-.066.153-.077.157-.069a.9.9,0,0,0-.281.493.69.69,0,0,0,.15.559.646.646,0,0,0,1.073-.4.7.7,0,0,0-.252-.518.884.884,0,0,0-.522-.186Z" transform="translate(-110.041 -234.099)" fill="#263238"/>
      <path id="Path_34714" data-name="Path 34714" d="M158.745,297.108a1.915,1.915,0,0,1-.27.044,5.307,5.307,0,0,1-.73,0,7.139,7.139,0,0,1-2.4-.555,7.211,7.211,0,0,1-2.07-1.325,4.591,4.591,0,0,1-.515-.54.931.931,0,0,1-.161-.223c.022-.022.277.27.752.672a8.007,8.007,0,0,0,4.382,1.855C158.354,297.1,158.745,297.079,158.745,297.108Z" transform="translate(-122.283 -235.354)" fill="#263238"/>
      <path id="Path_34715" data-name="Path 34715" d="M109.685,293.058a3.258,3.258,0,0,1-.365.811,8.994,8.994,0,0,1-1.23,1.712,8.265,8.265,0,0,1-1.559,1.333,2.852,2.852,0,0,1-.73.391,7.946,7.946,0,0,1,.679-.493,10.45,10.45,0,0,0,1.508-1.351,11.272,11.272,0,0,0,1.245-1.654C109.524,293.347,109.663,293.036,109.685,293.058Z" transform="translate(-92.572 -234.433)" fill="#263238"/>
      <path id="Path_34716" data-name="Path 34716" d="M127.4,188.08l-4.016,3.158-2.132,1.57-.811.044-.544-1.731-.672-2.636-1.1,1.1-2.782,5.93-3.133,28.652a55.949,55.949,0,0,0,8.292,1.8,39.641,39.641,0,0,0,7.339-.584V210.291l1.585-14.938-1.935-5.722Z" transform="translate(-96.641 -167.787)" fill="#f5f5f5"/>
      <path id="Path_34717" data-name="Path 34717" d="M131.455,237.135v-.314c0-.215.018-.522.033-.909.026-.8.066-1.935.113-3.341.095-2.819.252-6.711.475-11.009s.471-8.19.665-11.005c.095-1.4.175-2.538.23-3.334.026-.387.047-.69.062-.906V206a.313.313,0,0,0,0,.08.863.863,0,0,1-.026.234c0,.215-.044.518-.08.906-.069.785-.164,1.924-.27,3.33-.215,2.815-.475,6.7-.7,11.005s-.365,8.194-.438,11.016c-.04,1.409-.066,2.556-.077,3.341v1.143A.644.644,0,0,0,131.455,237.135Z" transform="translate(-108.85 -179.164)" fill="#263238"/>
      <path id="Path_34718" data-name="Path 34718" d="M151.763,190.389l.935,1.285,7.639,4.016-4.254,12.97-1.143,7.27,4.3,17.271s-5.21,1.793-5.667,1.22a23.752,23.752,0,0,1-1.311-2.841,30.583,30.583,0,0,1-2.191-8.486,55.583,55.583,0,0,1-.4-9.227c.4-4.747,1.033-12.593,1.1-14.656s.424-9.84.424-9.84Z" transform="translate(-120.38 -168.606)" fill="#263238"/>
      <path id="Path_34719" data-name="Path 34719" d="M109.026,189.37l-2.333,1.117-6.467,1.322-.854,7.5.73,14.85-3.772,18.37s2.746.971,3.834.57,2.578-2.859,2.636-4.349,2.191-15.916,2.191-15.916l1.8-16.96a13.923,13.923,0,0,1,1.34-4.655Z" transform="translate(-86.559 -168.606)" fill="#263238"/>
      <path id="Path_34720" data-name="Path 34720" d="M119.738,194.09a.8.8,0,0,0-.106.117l-.281.365c-.252.31-.606.756-1.052,1.314l-.022.029.029.022.891.675v-.073l-1.044.329h-.033v.033c.022,1.862.047,4.206.073,6.748.044,3.1.088,5.908.117,7.953,0,1.011.037,1.826.047,2.41V211.6c0-2.045-.047-4.853-.08-7.953-.037-2.556-.069-4.885-.095-6.748l-.033.047,1.041-.343.08-.022-.066-.051-.9-.665v.051l1.022-1.336c.113-.15.2-.27.27-.365A1.3,1.3,0,0,0,119.738,194.09Z" transform="translate(-100.393 -171.603)" fill="#455a64"/>
      <path id="Path_34721" data-name="Path 34721" d="M150.428,212.853a.124.124,0,0,1,.022-.055l.055-.168.208-.643c.183-.555.453-1.358.8-2.348l.581-1.614a18.452,18.452,0,0,0,.584-1.88,42.89,42.89,0,0,0,.822-4.436c.285-2.063.467-4.016.577-5.681V196h-.018l-.9-.869v.073c.3-.234.584-.449.851-.65l.033-.026-.022-.033-1.541-2.092c-.183-.237-.321-.427-.424-.562l-.113-.146c-.026-.033-.04-.047-.044-.047l.033.055.1.153.405.577,1.512,2.11v-.058l-.858.643-.044.033.04.036.895.876v-.04c-.124,1.669-.31,3.615-.6,5.674a43.792,43.792,0,0,1-.807,4.425c-.172.668-.365,1.3-.573,1.873s-.394,1.125-.566,1.621c-.34.99-.6,1.8-.767,2.359-.084.281-.146.5-.186.65l-.044.172C150.428,212.831,150.424,212.853,150.428,212.853Z" transform="translate(-120.904 -170.054)" fill="#455a64"/>
      <path id="Path_34722" data-name="Path 34722" d="M104.076,276.233l-.683,2.121L99.53,278l1.2-2.026Z" transform="translate(-88.591 -223.586)" fill="#263238"/>
      <path id="Path_34723" data-name="Path 34723" d="M103.95,276.144a1.492,1.492,0,0,0-.23-.029l-.675-.066c-.584-.058-1.428-.139-2.432-.219h-.033v.029l-1.212,2.023-.047.08h.095l.2.018,3.651.325h.037v-.033c.208-.665.365-1.2.478-1.574l.124-.42a.709.709,0,0,0,.037-.142,1.056,1.056,0,0,0-.058.157c-.04.11-.088.252-.15.424-.128.365-.3.9-.518,1.526l.047-.033-3.651-.365-.2-.018.044.088,1.2-2.026-.051.026c.979.069,1.8.124,2.4.157l.694.044A1.152,1.152,0,0,0,103.95,276.144Z" transform="translate(-88.458 -223.497)" fill="#455a64"/>
      <path id="Path_34724" data-name="Path 34724" d="M117.175,201.77l-.635.88s.175,13.327.854,16.636Z" transform="translate(-99.39 -176.478)" opacity="0.3"/>
      <path id="Path_34725" data-name="Path 34725" d="M175.092,229.772a22.882,22.882,0,0,0,.424-2.72,15.334,15.334,0,0,0-.135-2.344c-.318-2.647-4.645-18-4.645-18l-4.352,11.962,2.278,7.945-2.592,15.9,6.058,1.216S174.238,233.383,175.092,229.772Z" transform="translate(-130.835 -179.615)" fill="#263238"/>
      <path id="Path_34726" data-name="Path 34726" d="M164.215,231.363c.055,0,.818-3.943,1.709-8.825s1.566-8.847,1.512-8.858-.818,3.94-1.705,8.825S164.16,231.352,164.215,231.363Z" transform="translate(-129.655 -184.04)" fill="#455a64"/>
      <path id="Path_34727" data-name="Path 34727" d="M168.51,261.23a.917.917,0,0,0-.055.219c-.033.168-.073.365-.124.639l-.413,2.344c-.336,2.012-.792,4.747-1.3,7.774-.285,1.771-.551,3.443-.789,4.9v.084h.084l4.382.843,1.245.223a2.331,2.331,0,0,0,.445.062,2.957,2.957,0,0,0-.435-.117l-1.234-.27-4.382-.913.069.1c.241-1.461.518-3.133.811-4.9.482-3.027.916-5.769,1.238-7.785l.365-2.362c.037-.259.062-.475.088-.643A1.055,1.055,0,0,0,168.51,261.23Z" transform="translate(-130.683 -214.228)" fill="#455a64"/>
      <path id="Path_34728" data-name="Path 34728" d="M75.459,198.483v-1.329l-5.367-.124-.022,1.333Z" transform="translate(-69.888 -173.469)" fill="#e0e0e0"/>
      <path id="Path_34729" data-name="Path 34729" d="M83.238,196.05c-.8.445-1.628,1.4-3.363,4.524l-4.261,4.9-.245-7.62-5.765-.11s-.073,8.581,0,10.753c.088,2.706.854,5.919,4.871,5.634,3.79-.267,8.942-6.715,8.942-6.715Z" transform="translate(-69.571 -172.847)" fill="#263238"/>
      <path id="Path_34730" data-name="Path 34730" d="M103.327,209.45c.051,0,.365,3.739.7,8.358s.566,8.373.511,8.376-.365-3.739-.7-8.362S103.276,209.454,103.327,209.45Z" transform="translate(-90.997 -181.354)" fill="#455a64"/>
      <path id="Path_34731" data-name="Path 34731" d="M85.47,224.84a21.319,21.319,0,0,0,.27-2.556c0-1.42-.2-2.556-.135-2.574a2.633,2.633,0,0,1,.183.73,10.443,10.443,0,0,1,.142,1.826,8.457,8.457,0,0,1-.215,1.826A2.355,2.355,0,0,1,85.47,224.84Z" transform="translate(-79.665 -187.868)" fill="#455a64"/>
      <path id="Path_34732" data-name="Path 34732" d="M143.393,195.678a1.515,1.515,0,0,1-.241.281c-.164.172-.4.42-.7.73-.6.6-1.435,1.424-2.37,2.322l-.617.6-.106.1-.047-.131c-.31-.847-.592-1.61-.822-2.242l.11.026c-.329.3-.6.544-.789.708a1.559,1.559,0,0,1-.307.241,2.515,2.515,0,0,1,.256-.3c.175-.179.427-.438.73-.752l.073-.073.04.095.869,2.224-.153-.033.617-.6c.935-.9,1.785-1.705,2.41-2.282.31-.288.566-.518.73-.676A1.009,1.009,0,0,1,143.393,195.678Z" transform="translate(-112.697 -172.611)" fill="#263238"/>
      <path id="Path_34733" data-name="Path 34733" d="M130.185,198.415a8.032,8.032,0,0,1-.566-1.22l.124.022a8.5,8.5,0,0,0-1.1,1.924c-.051.12-.095.237-.135.365l-.1.277-.077-.285a9.35,9.35,0,0,1-.332-2.278,3.286,3.286,0,0,1,.058-.931,8.049,8.049,0,0,1,.069.927,11.731,11.731,0,0,0,.365,2.231h-.179c.044-.113.088-.234.139-.365a7.668,7.668,0,0,1,1.172-1.946l.08-.1.044.117A8.815,8.815,0,0,1,130.185,198.415Z" transform="translate(-106.66 -172.999)" fill="#263238"/>
      <path id="Path_34734" data-name="Path 34734" d="M132.15,201.852l.756,1.114h1.136l.606-1.114-.577-1.22-.99-.142Z" transform="translate(-109.3 -175.666)" fill="#f8951d"/>
      <path id="Path_34735" data-name="Path 34735" d="M128.151,205.72l-3.421,25.833,2.928,3.962,2.925-4.2-1.3-25.592Z" transform="translate(-104.59 -178.986)" fill="#f8951d"/>
      <path id="Path_34736" data-name="Path 34736" d="M103.436,282.63a3.012,3.012,0,0,1-.037.57l-.172,1.545c-.08.665-.179,1.435-.281,2.289a13.714,13.714,0,0,1-.69,2.749,4.56,4.56,0,0,1-1.6,2.337,2.45,2.45,0,0,1-1.223.292,6.152,6.152,0,0,1-1.1-.091,10.423,10.423,0,0,1-1.512-.365,2.78,2.78,0,0,1-.533-.208,4.251,4.251,0,0,1,.551.135,12.47,12.47,0,0,0,1.515.314,6.058,6.058,0,0,0,1.055.062,2.209,2.209,0,0,0,1.139-.285,4.292,4.292,0,0,0,1.512-2.249,23.3,23.3,0,0,0,1.015-4.991c.095-.621.175-1.139.234-1.534a3.626,3.626,0,0,1,.124-.57Z" transform="translate(-86.534 -227.814)" fill="#455a64"/>
      <path id="Path_34737" data-name="Path 34737" d="M165.155,325.606s-.759-7.471-2.5-8.314-4.159-1.406-4.831-.292a13.2,13.2,0,0,0-1.643,4.575,28.246,28.246,0,0,0-.146,4.513l1.99-.208s-.04-7.449.573-8.544,3.673-.19,4,1.139,1.019,7.277,1.019,7.277Z" transform="translate(-124.443 -249.24)" fill="#455a64"/>
      <path id="Path_34738" data-name="Path 34738" d="M161.217,345.672c-.069-3.082-.314-9.859-.424-12.856a1.515,1.515,0,0,0-1.512-1.461l-18.308-.026a1.519,1.519,0,0,0-1.519,1.461L139,345.45a1.519,1.519,0,0,0,1.5,1.57l19.18.219a1.515,1.515,0,0,0,1.537-1.566Z" transform="translate(-113.648 -258.732)" fill="#455a64"/>
      <path id="Path_34739" data-name="Path 34739" d="M143.666,343.479v8.431a.913.913,0,0,0,.1.486.832.832,0,0,0,.365.365,1.066,1.066,0,0,0,.508.077h2.1l4.615.026,5.112.026h4.447a1.568,1.568,0,0,0,.365-.018.84.84,0,0,0,.573-.46.8.8,0,0,0,.08-.318V350q0-1.183-.033-2.333c-.022-1.526-.04-3.009-.062-4.422v-.066h-.069c-5.262.281-9.775.336-12.966.325-1.6,0-2.866-.022-3.732-.033h-.99l.986.037c.869.029,2.136.058,3.735.073,3.195.033,7.708,0,12.973-.277l-.066-.062c.018,1.413.037,2.892.055,4.422q0,1.143.033,2.33v1.789a1.186,1.186,0,0,1-.069.562.694.694,0,0,1-.482.383,1.382,1.382,0,0,1-.332.018h-4.447l-5.112-.018h-6.715a.964.964,0,0,1-.464-.066.731.731,0,0,1-.332-.3.818.818,0,0,1-.091-.438v-.464c-.018-2.45-.033-4.436-.044-5.817,0-.683,0-1.22-.018-1.588v-.416A.488.488,0,0,0,143.666,343.479Z" transform="translate(-116.61 -266.255)" fill="#263238"/>
      <path id="Path_34740" data-name="Path 34740" d="M155.031,354.546a1.73,1.73,0,0,1-.318-.044,1.629,1.629,0,0,1-.789-.445,1.669,1.669,0,0,1-.438-1.336v-3.085a1.625,1.625,0,0,1,.332-1.117,1.508,1.508,0,0,1,1.1-.566h7.6a1.512,1.512,0,0,1,1.3.73,1.461,1.461,0,0,1,.212.73v3.049a6.576,6.576,0,0,1,0,.73,1.523,1.523,0,0,1-1.325,1.289H159.7l-3.425.026h6.445a1.659,1.659,0,0,0,.654-.223,1.629,1.629,0,0,0,.781-1.165,7.094,7.094,0,0,0,.022-.73v-3.052a1.621,1.621,0,0,0-.23-.792,1.661,1.661,0,0,0-1.417-.8h-7.609a1.625,1.625,0,0,0-1.172.617,1.694,1.694,0,0,0-.365,1.187c0,.394,0,.774,0,1.136v1.95a3.934,3.934,0,0,0,0,.42,1.592,1.592,0,0,0,.091.383,1.654,1.654,0,0,0,.365.57,1.592,1.592,0,0,0,.822.435A1.1,1.1,0,0,0,155.031,354.546Z" transform="translate(-122.775 -269.15)" fill="#263238"/>
      <g id="Group_8641" data-name="Group 8641" transform="translate(27.94 86.499)" opacity="0.3">
        <path id="Path_34741" data-name="Path 34741" d="M162.853,369.484a29.244,29.244,0,0,1-16.763-.084Z" transform="translate(-146.09 -369.4)"/>
      </g>
      <path id="Path_34742" data-name="Path 34742" d="M162.653,351.4h2.162a.613.613,0,0,0,.613-.613h0a.613.613,0,0,0-.617-.61h-2.158a.613.613,0,0,0-.613.613h0a.61.61,0,0,0,.613.61Z" transform="translate(-128.276 -270.699)" fill="#e0e0e0"/>
      <path id="Path_34743" data-name="Path 34743" d="M160.025,312.06a6.459,6.459,0,0,0-.927,1.2,18.023,18.023,0,0,0-.548,2.5s.394.307.979-.792a9.856,9.856,0,0,0,.73-1.643Z" transform="translate(-126.061 -246.498)" fill="#ffbf9d"/>
      <path id="Path_34744" data-name="Path 34744" d="M160.657,311.642l.65-3.7,1.961-2.439,4.524.814-.73,4.495a14.007,14.007,0,0,1-1.431,2.081c-.387.3-.964-.095-.964-.095-.449.464-1.344.084-1.344.084-.566.453-1.176-.2-1.176-.2s-.73.449-1.022.365a.573.573,0,0,1-.263-.252A1.6,1.6,0,0,1,160.657,311.642Z" transform="translate(-127.379 -242.333)" fill="#ffbf9d"/>
      <path id="Path_34745" data-name="Path 34745" d="M172.262,323c-.037-.022-.183.153-.321.394s-.219.453-.179.475.183-.15.321-.391S172.3,323.037,172.262,323Z" transform="translate(-134.442 -253.44)" fill="#ff9a6c"/>
      <path id="Path_34746" data-name="Path 34746" d="M168.8,322.26a2.706,2.706,0,0,0-.365.639c-.183.358-.365.635-.314.665s.267-.219.46-.588A1.318,1.318,0,0,0,168.8,322.26Z" transform="translate(-132.134 -252.973)" fill="#ff9a6c"/>
      <path id="Path_34747" data-name="Path 34747" d="M165.418,321.86a2.124,2.124,0,0,0-.27.592c-.131.329-.252.588-.212.61s.23-.208.365-.548A1.075,1.075,0,0,0,165.418,321.86Z" transform="translate(-130.11 -252.719)" fill="#ff9a6c"/>
      <path id="Path_34748" data-name="Path 34748" d="M161.1,315.38a6.306,6.306,0,0,0-.34,1.388,5.908,5.908,0,0,0-.179,1.417,6.427,6.427,0,0,0,.343-1.388A6.007,6.007,0,0,0,161.1,315.38Z" transform="translate(-127.35 -248.606)" fill="#ff9a6c"/>
      <path id="Path_34749" data-name="Path 34749" d="M173.729,321.052c-.018,0,0,.069.073.135a.515.515,0,0,0,.686,0c.069-.066.088-.124.069-.139a1.449,1.449,0,0,1-.413.106C173.922,321.154,173.761,321.03,173.729,321.052Z" transform="translate(-135.693 -252.203)" fill="#ff9a6c"/>
      <path id="Path_34750" data-name="Path 34750" d="M169.89,320.91a.179.179,0,0,0,.095.135.639.639,0,0,0,.365.117.628.628,0,0,0,.365-.117c.08-.062.11-.12.095-.139a2.155,2.155,0,0,1-.467.088C170.087,320.99,169.93,320.877,169.89,320.91Z" transform="translate(-133.26 -252.112)" fill="#ff9a6c"/>
      <path id="Path_34751" data-name="Path 34751" d="M162.781,318.753c0-.026-.124.077-.051.256a.8.8,0,0,0,.5.365,1,1,0,0,0,.613-.018c.15-.058.219-.135.208-.153a1.928,1.928,0,0,1-.774,0,.935.935,0,0,1-.442-.27C162.759,318.841,162.814,318.764,162.781,318.753Z" transform="translate(-128.7 -250.745)" fill="#ff9a6c"/>
    </g>
  </g>
</svg>
