<svg xmlns="http://www.w3.org/2000/svg" width="250" height="268.575" viewBox="0 0 250 268.575"><g transform="translate(-35.384 -36.76)"><g transform="translate(44.911 296.367)"><path d="M291.144,469.246c0,.084-53.707.156-119.941.156S51.25,469.33,51.25,469.246s53.7-.156,119.953-.156S291.144,469.162,291.144,469.246Z" transform="translate(-51.25 -469.09)" fill="#263238"/></g><g transform="translate(35.384 59.976)"><path d="M65.681,103.738l-1.333-4.48a15.523,15.523,0,1,0-3.717,4.137h0Z" transform="translate(-35.473 -75.493)" fill="#fafafa"/><path d="M65.592,103.668H65.28l-.961-.048-3.789-.228a.066.066,0,0,1-.066-.066v-.042h0l.09.1a15.606,15.606,0,1,1-15.12-26.92,15.9,15.9,0,0,1,7.146-.967A15.583,15.583,0,0,1,64.289,99.224v-.036c.42,1.453.739,2.576.961,3.351.1.36.18.643.24.847a2.215,2.215,0,0,1,.072.282l-.1-.3-.27-.859c-.234-.757-.6-1.861-1.021-3.285a.06.06,0,0,1,0-.054,15.432,15.432,0,0,0-11.6-23.359,15.613,15.613,0,0,0-7.008.955,15.2,15.2,0,0,0-6.065,4.239,15.36,15.36,0,0,0,9.139,25.262,15.186,15.186,0,0,0,4.918,0,15.534,15.534,0,0,0,6.942-3,.06.06,0,0,1,.09,0,.066.066,0,0,1,0,.084h0l-.054-.108,3.741.276.973.078Z" transform="translate(-35.384 -75.422)" fill="#263238"/><path d="M52.1,100.453a1.579,1.579,0,1,1-1.573-1.573A1.579,1.579,0,0,1,52.1,100.453Z" transform="translate(-40.8 -84.794)" fill="#263238"/><path d="M62.6,100.453a1.573,1.573,0,1,1-.463-1.115A1.579,1.579,0,0,1,62.6,100.453Z" transform="translate(-44.994 -84.794)" fill="#263238"/><path d="M73.2,99.653a1.567,1.567,0,1,1-.949-.75,1.573,1.573,0,0,1,.949.75Z" transform="translate(-49.314 -84.78)" fill="#263238"/></g><g transform="translate(204.51 136.457)"><path d="M425.8,420.043a19.065,19.065,0,1,1-22.938-14.165A19.065,19.065,0,0,1,425.8,420.043Z" transform="translate(-345.456 -283.72)" fill="#f8951d"/><g transform="translate(42.7 122.158)" opacity="0.1"><path d="M402.847,406.22a19.059,19.059,0,0,0-14.189,22.932s13.175-2.5,15.072-8.485S402.847,406.22,402.847,406.22Z" transform="translate(-388.144 -406.22)" fill="#fff"/></g><path d="M423.789,423.765a14.5,14.5,0,1,1-17.414-10.773A14.5,14.5,0,0,1,423.789,423.765Z" transform="translate(-348.256 -286.613)" fill="#f8951d"/><g transform="translate(46.928 125.993)" opacity="0.2"><path d="M423.789,423.765a14.5,14.5,0,1,1-17.414-10.773A14.5,14.5,0,0,1,423.789,423.765Z" transform="translate(-395.184 -412.605)"/></g><path d="M424.938,424.671a14.3,14.3,0,1,1-17.2-10.629A14.3,14.3,0,0,1,424.938,424.671Z" transform="translate(-348.87 -287.033)" fill="#f8951d"/><g transform="translate(47.851 126.623)" opacity="0.2"><path d="M424.938,424.671a14.3,14.3,0,1,1-17.2-10.629A14.3,14.3,0,0,1,424.938,424.671Z" transform="translate(-396.722 -413.656)" fill="#fff"/></g><path d="M416.971,430.09l-.841-3.561h0a7.544,7.544,0,0,1,2.006.048,6.381,6.381,0,0,1,1.021.348v-.12l.246-1.411.06-.324-.793-.516-.276.21a6.93,6.93,0,0,0-2.75-.138l-.462-1.958-.727-.348.114.492-.835.2L414.2,425c-2.69.913-3.6,2.792-3.195,4.594.6,2.45,2.828,2.588,4.894,2.6l.835,3.531a6.942,6.942,0,0,1-3.843-.51l-.372,1.97a7.95,7.95,0,0,0,4.666.444l.348,1.477-.685.174.8.306,1.447-.342-.468-1.976c2.7-.937,3.663-2.8,3.237-4.6C421.312,430.216,419.037,430.1,416.971,430.09Zm-1.537-.03c-1.093-.06-1.94-.264-2.144-1.111s.2-1.537,1.405-2.03ZM416.13,426.523Zm2.078,8.815-.739-3.122c1.129.048,2,.27,2.2,1.135C419.853,434.138,419.445,434.846,418.208,435.339Z" transform="translate(-354.541 -290.494)" fill="#f8951d"/><g transform="translate(56.374 131.826)" opacity="0.3"><path d="M416.971,430.09l-.841-3.561h0a7.544,7.544,0,0,1,2.006.048,6.381,6.381,0,0,1,1.021.348v-.12l.246-1.411.06-.324-.793-.516-.276.21a6.93,6.93,0,0,0-2.75-.138l-.462-1.958-.727-.348.114.492-.835.2L414.2,425c-2.69.913-3.6,2.792-3.195,4.594.6,2.45,2.828,2.588,4.894,2.6l.835,3.531a6.942,6.942,0,0,1-3.843-.51l-.372,1.97a7.95,7.95,0,0,0,4.666.444l.348,1.477-.685.174.8.306,1.447-.342-.468-1.976c2.7-.937,3.663-2.8,3.237-4.6C421.312,430.216,419.037,430.1,416.971,430.09Zm-1.537-.03c-1.093-.06-1.94-.264-2.144-1.111s.2-1.537,1.405-2.03ZM416.13,426.523Zm2.078,8.815-.739-3.122c1.129.048,2,.27,2.2,1.135C419.853,434.138,419.445,434.846,418.208,435.339Z" transform="translate(-410.915 -422.32)"/></g><path d="M417.491,436.924l.462,1.976-1.441.342-.462-1.958a7.872,7.872,0,0,1-4.672-.444l.372-1.97a6.954,6.954,0,0,0,3.849.51l-.835-3.531c-2.072,0-4.323-.15-4.9-2.6-.426-1.8.51-3.681,3.195-4.594l-.468-1.994,1.447-.342.462,1.958a7.806,7.806,0,0,1,3.813.252l-.306,1.952a7.53,7.53,0,0,0-3.08-.276l.841,3.567c2.072,0,4.354.126,4.93,2.576C421.148,434.138,420.193,435.987,417.491,436.924Zm-3.231-7.206-.751-3.141c-1.2.492-1.585,1.249-1.4,2.024S413.167,429.658,414.26,429.718Zm4.239,3.3c-.2-.865-1.075-1.087-2.2-1.135l.739,3.123C418.277,434.5,418.68,433.777,418.5,433.015Z" transform="translate(-354.082 -290.494)" fill="#f8951d"/><path d="M421.209,441.961l.114-.042.33-.1.534-.162a5.569,5.569,0,0,0,.727-.252l.889-.36a4.109,4.109,0,0,0,.492-.24l.522-.276c.174-.1.372-.186.552-.312l.564-.372c.186-.132.4-.252.6-.4l.6-.474a15.732,15.732,0,0,0,2.33-2.4l.516-.763c.09-.132.18-.258.264-.39l.234-.42c.15-.282.324-.564.468-.859l.4-.925.1-.234c.03-.078.054-.162.078-.24l.162-.5.162-.5a4.888,4.888,0,0,0,.126-.51c.072-.348.162-.7.222-1.057s.09-.721.132-1.087a14.2,14.2,0,0,0-2.072-8.755c-.2-.312-.4-.6-.6-.919a8.578,8.578,0,0,0-.673-.841c-.12-.138-.216-.282-.342-.4l-.372-.378-.36-.366c-.066-.06-.12-.126-.186-.18l-.192-.168-.775-.643c-.258-.2-.54-.378-.8-.564l-.39-.27-.414-.228-.8-.444a15.227,15.227,0,0,0-3.165-1.123l-.733-.162c-.24-.048-.48-.066-.709-.1l-.721-.1a4,4,0,0,0-.6,0h-.6a4.1,4.1,0,0,0-.546,0l-.955.066a5.784,5.784,0,0,0-.757.1l-.552.1-.342.06h-.12l.114-.03.342-.066.552-.108a5.572,5.572,0,0,1,.757-.12l.961-.084a4.082,4.082,0,0,1,.546,0h1.237l.679.078c.228.03.468.042.709.09l.745.162a15.01,15.01,0,0,1,3.189,1.111l.817.444c.138.078.282.15.414.234l.4.27c.264.186.546.36.811.564l.781.649.2.162.186.186.366.372.372.372c.132.126.234.276.348.408.222.282.462.552.679.853s.408.6.6.925a14.279,14.279,0,0,1,2.09,8.839c-.042.366-.09.733-.132,1.1s-.156.709-.228,1.063a4.632,4.632,0,0,1-.126.516c-.06.168-.114.336-.168.5l-.162.5c-.03.084-.054.168-.084.246l-.1.234-.408.919c-.144.3-.318.6-.474.865l-.234.426c-.084.132-.18.258-.27.39l-.528.763a15.133,15.133,0,0,1-2.354,2.4l-.6.474c-.192.15-.4.27-.6.4l-.57.366a5.14,5.14,0,0,1-.558.306l-.528.276a4.655,4.655,0,0,1-.5.234l-.895.354a5.335,5.335,0,0,1-.733.234l-.54.15-.33.09Z" transform="translate(-355.993 -286.908)" fill="#263238"/><path d="M393.91,447.345a.866.866,0,0,1-.12-.12l-.324-.372c-.144-.162-.312-.36-.492-.6s-.4-.516-.6-.841l-.33-.5c-.114-.174-.216-.366-.33-.558-.24-.384-.444-.823-.673-1.273a18.945,18.945,0,0,1-1.765-6.329c-.036-.5-.084-.985-.084-1.441v-1.249a9.714,9.714,0,0,1,.084-1.033c.03-.3.066-.564.1-.775l.09-.486a.522.522,0,0,1,.036-.162.711.711,0,0,1,0,.168c0,.126-.036.288-.06.492s-.06.468-.078.769-.06.649-.06,1.027V435.3c0,.45.054.925.1,1.429a21.544,21.544,0,0,0,.6,3.213,21.15,21.15,0,0,0,1.141,3.068c.228.456.426.889.661,1.273.108.192.21.384.318.564l.324.5a8.9,8.9,0,0,0,.6.847c.192.246.336.456.468.6l.306.39a.9.9,0,0,1,.09.15Z" transform="translate(-345.861 -294.202)" fill="#fff"/><path d="M411.68,433.543a1.255,1.255,0,0,1-.51-.312,2.252,2.252,0,0,1-.528-2.66,1.411,1.411,0,0,1,.348-.48,3.6,3.6,0,0,0-.252.522,2.327,2.327,0,0,0,.5,2.552C411.487,433.411,411.692,433.519,411.68,433.543Z" transform="translate(-354.342 -293.598)" fill="#fff"/><path d="M415.451,424.829a1.3,1.3,0,0,1-.21-.558,1.412,1.412,0,0,1-.066-.6A2.654,2.654,0,0,1,415.451,424.829Z" transform="translate(-356.24 -291.033)" fill="#fff"/><path d="M409.124,412.14a2.585,2.585,0,0,1-.456.09,2.779,2.779,0,0,0-.54.1c-.21.048-.444.084-.7.156s-.54.138-.841.234-.6.21-.943.324a16.85,16.85,0,0,0-2.072.985,15.615,15.615,0,0,0-1.9,1.291c-.27.228-.534.432-.763.654s-.438.414-.6.6-.348.366-.492.522-.264.3-.354.414a2.556,2.556,0,0,1-.312.348,4.487,4.487,0,0,1,.264-.384c.09-.12.2-.264.342-.426s.288-.354.48-.546.384-.408.6-.6.486-.438.757-.667a15.617,15.617,0,0,1,1.91-1.309,14.784,14.784,0,0,1,2.1-.985c.336-.114.654-.234.961-.318s.6-.162.847-.216.5-.1.715-.138a4.669,4.669,0,0,1,.54-.078,4.382,4.382,0,0,1,.462-.054Z" transform="translate(-349.841 -286.427)" fill="#fff"/><path d="M424.819,465.52a1.8,1.8,0,0,1-.306.168c-.2.1-.5.228-.883.378a14.035,14.035,0,0,1-3.074.763,13.774,13.774,0,0,1-3.159.048c-.408-.042-.733-.1-.955-.138a2.628,2.628,0,0,1-.342-.084,1.416,1.416,0,0,1,.354,0c.222.03.546.06.949.09a15.354,15.354,0,0,0,6.191-.8c.378-.132.685-.246.895-.336A1.3,1.3,0,0,1,424.819,465.52Z" transform="translate(-356.612 -307.753)" fill="#fff"/><path d="M425.748,420.017l-.084-.3c-.06-.192-.126-.492-.252-.871a19.059,19.059,0,0,0-2.63-5.368,18.776,18.776,0,0,0-1.91-2.3,19.292,19.292,0,0,0-5.951-4.149,19.008,19.008,0,0,0-13.439-.745,19.53,19.53,0,0,0-2.4.931,21.842,21.842,0,0,0-2.306,1.291,19.065,19.065,0,0,0-7.068,8.479,18.3,18.3,0,0,0-.937,2.786,17.75,17.75,0,0,0-.5,2.936,18.993,18.993,0,0,0,2.75,11.673c.258.432.552.835.835,1.243a12.362,12.362,0,0,0,.931,1.165,18.8,18.8,0,0,0,2.078,2.072,19.089,19.089,0,0,0,10.124,4.414,19.457,19.457,0,0,0,2.636.126,19.933,19.933,0,0,0,2.564-.24,19.028,19.028,0,0,0,11.679-6.683,19.307,19.307,0,0,0,3.465-6.371,19.638,19.638,0,0,0,.889-5.4,19.291,19.291,0,0,0-.264-3.471c-.054-.4-.132-.691-.168-.889l-.054-.306s.108.4.252,1.2a18.391,18.391,0,0,1,.084,6,18.078,18.078,0,0,1-.667,2.93,19.215,19.215,0,0,1-3.459,6.407,18.837,18.837,0,0,1-3.044,2.972,18.567,18.567,0,0,1-3.957,2.366,19.54,19.54,0,0,1-7.3,1.633,20.92,20.92,0,0,1-2.66-.12,19.167,19.167,0,0,1-10.208-4.444,18.563,18.563,0,0,1-2.1-2.084c-.33-.372-.6-.775-.937-1.171a7.388,7.388,0,0,1-.841-1.255,19.071,19.071,0,0,1-2.774-11.758,17.417,17.417,0,0,1,.5-2.96,19.45,19.45,0,0,1,.937-2.8,19.215,19.215,0,0,1,7.128-8.533,21.108,21.108,0,0,1,2.324-1.3,19.823,19.823,0,0,1,2.4-.937,18.938,18.938,0,0,1,19.5,4.936,17.846,17.846,0,0,1,1.909,2.318,18.61,18.61,0,0,1,1.3,2.162,18.3,18.3,0,0,1,1.3,3.237C425.664,419.609,425.748,420.017,425.748,420.017Z" transform="translate(-345.406 -283.694)" fill="#263238"/><path d="M405.009,221.819a16.609,16.609,0,1,1-14.093-18.8A16.609,16.609,0,0,1,405.009,221.819Z" transform="translate(-338.976 -202.812)" fill="#f8951d"/><g transform="translate(33.132 0.037)" opacity="0.1"><path d="M391.005,203.018a16.615,16.615,0,0,0-18.8,14.093s11.481,2.174,14.928-2.084S391.005,203.018,391.005,203.018Z" transform="translate(-372.21 -202.849)" fill="#fff"/></g><path d="M403.306,223.408a12.61,12.61,0,1,1-2.39-9.369,12.61,12.61,0,0,1,2.39,9.369Z" transform="translate(-341.476 -205.265)" fill="#f8951d"/><g transform="translate(36.738 3.725)" opacity="0.2"><path d="M403.306,223.408a12.61,12.61,0,1,1-2.39-9.369,12.61,12.61,0,0,1,2.39,9.369Z" transform="translate(-378.214 -208.99)"/></g><path d="M404.013,224.535a12.46,12.46,0,1,1-10.575-14.1,12.46,12.46,0,0,1,10.575,14.1Z" transform="translate(-341.877 -205.792)" fill="#f8951d"/><g transform="translate(37.34 4.517)" opacity="0.2"><path d="M404.013,224.535a12.46,12.46,0,1,1-10.575-14.1,12.46,12.46,0,0,1,10.575,14.1Z" transform="translate(-379.216 -210.309)" fill="#fff"/></g><path d="M397.1,224.628l.45-3.153h0a6.726,6.726,0,0,1,1.609.679,5.582,5.582,0,0,1,.721.6l.054-.09.649-1.069.15-.24-.48-.673-.288.084a5.968,5.968,0,0,0-2.192-.991l.252-1.735-.48-.51-.06.432-.745-.1-.252,1.765c-2.474-.114-3.831,1.111-4.059,2.708-.306,2.174,1.471,3,3.147,3.669l-.444,3.129a6.107,6.107,0,0,1-2.96-1.633l-.931,1.477a6.936,6.936,0,0,0,3.645,1.843l-.186,1.309-.6-.072.552.5,1.285.186.246-1.753c2.492.1,3.861-1.1,4.089-2.7C400.614,226.117,398.8,225.3,397.1,224.628Zm-1.2-.51c-.871-.4-1.489-.835-1.381-1.585s.648-1.2,1.8-1.2ZM397.587,221.475Zm-1.117,7.806.4-2.762c.9.4,1.537.853,1.423,1.621-.108.679-.667,1.141-1.831,1.147Z" transform="translate(-346.68 -208.677)" fill="#f8951d"/><g transform="translate(44.56 8.853)" opacity="0.3"><path d="M397.1,224.628l.45-3.153h0a6.726,6.726,0,0,1,1.609.679,5.582,5.582,0,0,1,.721.6l.054-.09.649-1.069.15-.24-.48-.673-.288.084a5.968,5.968,0,0,0-2.192-.991l.252-1.735-.48-.51-.06.432-.745-.1-.252,1.765c-2.474-.114-3.831,1.111-4.059,2.708-.306,2.174,1.471,3,3.147,3.669l-.444,3.129a6.107,6.107,0,0,1-2.96-1.633l-.931,1.477a6.936,6.936,0,0,0,3.645,1.843l-.186,1.309-.6-.072.552.5,1.285.186.246-1.753c2.492.1,3.861-1.1,4.089-2.7C400.614,226.117,398.8,225.3,397.1,224.628Zm-1.2-.51c-.871-.4-1.489-.835-1.381-1.585s.648-1.2,1.8-1.2ZM397.587,221.475Zm-1.117,7.806.4-2.762c.9.4,1.537.853,1.423,1.621-.108.679-.667,1.141-1.831,1.147Z" transform="translate(-391.24 -217.53)"/></g><path d="M395.46,230.365l-.252,1.753-1.279-.186.246-1.735a6.936,6.936,0,0,1-3.645-1.844l.931-1.477a6.113,6.113,0,0,0,2.954,1.621l.45-3.129c-1.675-.667-3.453-1.5-3.147-3.675.228-1.591,1.585-2.816,4.059-2.7l.252-1.771,1.285.186-.252,1.735a6.69,6.69,0,0,1,3.038,1.411l-.883,1.5a6.659,6.659,0,0,0-2.4-1.2l-.45,3.159c1.675.673,3.489,1.489,3.177,3.663C399.321,229.26,397.952,230.467,395.46,230.365Zm-.324-6.876.4-2.78c-1.135,0-1.681.5-1.8,1.2s.534,1.183,1.405,1.579Zm2.4,4.029c.114-.769-.522-1.2-1.423-1.627l-.4,2.768c1.153-.006,1.7-.468,1.807-1.141Z" transform="translate(-346.397 -208.553)" fill="#f8951d"/><path d="M396.62,235.1h.4l.486.036a4.565,4.565,0,0,0,.667.03h.835a3.356,3.356,0,0,0,.48-.036l.51-.06a2.531,2.531,0,0,0,.546-.072l.6-.126a5.845,5.845,0,0,0,.6-.138l.6-.2a13.469,13.469,0,0,0,2.66-1.2l.661-.45.342-.234.324-.264c.21-.18.438-.354.649-.552l.6-.6.162-.156c.048-.054.09-.114.138-.174l.288-.348.294-.354a4.246,4.246,0,0,0,.264-.378c.168-.258.354-.51.516-.781l.456-.841a12.55,12.55,0,0,0,1.111-7.764c-.072-.312-.138-.6-.2-.937a8.262,8.262,0,0,0-.276-.895,3.771,3.771,0,0,0-.15-.438l-.18-.42c-.054-.138-.114-.276-.174-.414l-.09-.2-.108-.2-.42-.769c-.15-.246-.318-.474-.474-.709l-.234-.348-.258-.318-.51-.6a13.5,13.5,0,0,0-2.21-1.916l-.546-.366c-.18-.114-.366-.2-.54-.3l-.522-.282a4.616,4.616,0,0,0-.5-.222l-.474-.2a4.463,4.463,0,0,0-.444-.168l-.8-.246a4.984,4.984,0,0,0-.649-.156l-.48-.1-.294-.06-.1-.03h.1l.294.048.48.09a4.156,4.156,0,0,1,.655.15l.8.234a3.716,3.716,0,0,1,.45.162l.48.2a5.274,5.274,0,0,1,.51.222l.522.276c.174.1.366.186.546.3l.552.366a13.377,13.377,0,0,1,2.234,1.922l.522.6c.084.108.18.21.264.324l.234.348c.156.234.33.462.48.715l.426.775.108.192c.036.072.06.138.09.21l.18.42.186.42c.066.144.1.294.15.444.09.294.2.6.282.9l.2.949a13.311,13.311,0,0,1,.078,4.005,13.812,13.812,0,0,1-1.2,3.831l-.462.847c-.162.276-.348.528-.522.793a4.311,4.311,0,0,1-.27.378c-.1.12-.192.24-.294.354l-.288.354-.144.174-.162.156-.6.6c-.216.2-.444.372-.661.552l-.324.264c-.114.084-.234.156-.342.234l-.673.456a13.4,13.4,0,0,1-2.684,1.2l-.63.2c-.21.06-.414.09-.6.132l-.6.12c-.186.042-.372.048-.552.072l-.51.054a4.473,4.473,0,0,1-.48.03h-.841a3.735,3.735,0,0,1-.667-.042l-.486-.048-.3-.036Z" transform="translate(-348.83 -205.721)" fill="#263238"/><path d="M373.759,230.559a.706.706,0,0,1-.06-.138l-.144-.4c-.06-.174-.132-.39-.2-.649s-.162-.546-.222-.871c-.036-.168-.072-.336-.108-.516s-.06-.366-.09-.558c-.072-.39-.1-.811-.144-1.249a16.286,16.286,0,0,1,.6-5.693c.126-.426.246-.829.39-1.2.072-.18.132-.36.2-.528l.21-.48a6.847,6.847,0,0,1,.4-.811,5.053,5.053,0,0,1,.33-.6l.222-.366.084-.126a.29.29,0,0,1-.06.138l-.2.378a6,6,0,0,0-.312.6c-.114.24-.258.5-.378.817l-.2.48c-.066.162-.126.342-.192.528-.138.366-.252.769-.378,1.2a18.336,18.336,0,0,0-.528,2.8,19.161,19.161,0,0,0-.054,2.852c.036.438.066.853.132,1.237a3.29,3.29,0,0,0,.078.558c.03.174.072.348.1.51.054.33.138.6.2.877s.126.474.18.655l.12.408a.469.469,0,0,1,.024.144Z" transform="translate(-339.294 -208.214)" fill="#fff"/><path d="M393.653,225.12a1.153,1.153,0,0,1-.312-.414,2,2,0,0,1-.18-1.231,1.946,1.946,0,0,1,.6-1.093,1.075,1.075,0,0,1,.432-.282,3.087,3.087,0,0,0-.372.342,2.03,2.03,0,0,0-.4,2.228A2.985,2.985,0,0,0,393.653,225.12Z" transform="translate(-347.436 -210.503)" fill="#fff"/><path d="M399.751,219.137a1.2,1.2,0,0,1,0-.522c.042-.282.1-.51.138-.5a1.285,1.285,0,0,1,0,.522C399.847,218.915,399.787,219.143,399.751,219.137Z" transform="translate(-350.069 -208.909)" fill="#fff"/><path d="M397.568,208.632a3.132,3.132,0,0,1-.4-.072,4.527,4.527,0,0,0-.462-.09c-.186,0-.39-.072-.6-.1s-.48-.066-.757-.078-.564,0-.871-.036a13.109,13.109,0,0,0-3.939.6c-.294.1-.6.186-.829.288s-.486.2-.7.294-.4.186-.564.27-.306.156-.42.222a2.759,2.759,0,0,1-.36.186,1.8,1.8,0,0,1,.336-.228,3.847,3.847,0,0,1,.414-.24c.162-.09.348-.2.558-.294s.444-.21.7-.306.534-.2.829-.3a14.111,14.111,0,0,1,1.964-.456,13.247,13.247,0,0,1,2.012-.126,5.26,5.26,0,0,1,.883.048c.282.048.528.054.757.09s.444.078.6.114.336.078.462.114Z" transform="translate(-345.25 -204.937)" fill="#fff"/><path d="M394.268,255.75a1.4,1.4,0,0,1-.3.036,8.132,8.132,0,0,1-.841,0,11.944,11.944,0,0,1-5.314-1.327c-.312-.162-.558-.306-.727-.414a1.685,1.685,0,0,1-.246-.174,1.858,1.858,0,0,1,.27.132c.174.1.426.228.745.378a13.42,13.42,0,0,0,2.57.931,13.924,13.924,0,0,0,2.708.39h.829A1.746,1.746,0,0,1,394.268,255.75Z" transform="translate(-344.923 -223.196)" fill="#fff"/><path d="M404.94,221.794v-.27c0-.18.06-.438.078-.787a17.008,17.008,0,0,0-.048-3.032,16.348,16.348,0,0,0-.378-2.156,15.7,15.7,0,0,0-.817-2.48,16.748,16.748,0,0,0-3.5-5.254,16.582,16.582,0,0,0-23.635.048,16.13,16.13,0,0,0-1.645,1.958,15.43,15.43,0,0,0-1.339,2.228,16.55,16.55,0,0,0-1.483,10.346c.072.432.18.853.276,1.279a10.923,10.923,0,0,0,.384,1.237,16.021,16.021,0,0,0,1.033,2.342,16.591,16.591,0,0,0,6.8,6.8,17.268,17.268,0,0,0,2.108.943,15.823,15.823,0,0,0,2.15.6,16.213,16.213,0,0,0,4.263.372,16.033,16.033,0,0,0,3.939-.649,16.215,16.215,0,0,0,3.4-1.423,16.778,16.778,0,0,0,4.84-4.065,15.616,15.616,0,0,0,1.471-2.15,16.45,16.45,0,0,0,.973-1.964,16.768,16.768,0,0,0,.895-2.9c.078-.336.114-.6.15-.775s.048-.264.048-.264-.042.366-.174,1.045a16.089,16.089,0,0,1-.877,2.912,15.127,15.127,0,0,1-.961,1.976,16.061,16.061,0,0,1-1.471,2.162,16.608,16.608,0,0,1-16.525,5.831,16.1,16.1,0,0,1-2.168-.6,17.358,17.358,0,0,1-2.114-.943,16.723,16.723,0,0,1-7.9-9.211c-.15-.4-.264-.823-.384-1.243a11.661,11.661,0,0,1-.282-1.285,16.7,16.7,0,0,1-.1-5.332A16.951,16.951,0,0,1,373.541,212a15.011,15.011,0,0,1,1.357-2.24,15.9,15.9,0,0,1,1.651-1.976,16.759,16.759,0,0,1,8.5-4.654,17.968,17.968,0,0,1,2.294-.312,17.071,17.071,0,0,1,6.479.859,16.171,16.171,0,0,1,3.6,1.747,16.429,16.429,0,0,1,2.876,2.336,16.872,16.872,0,0,1,4.708,9.95,16.147,16.147,0,0,1,0,3.044C404.988,221.434,404.94,221.794,404.94,221.794Z" transform="translate(-338.907 -202.787)" fill="#263238"/><rect width="42.202" height="7.662" transform="translate(50.793 113.577) rotate(180)" fill="#f8951d"/><path d="M394.61,386.942a41.573,41.573,0,0,0,0-7.6,40.191,40.191,0,0,0,0,7.6Z" transform="translate(-347.955 -273.323)" fill="#263238"/><path d="M398.454,386.942a41.573,41.573,0,0,0,0-7.6A41.573,41.573,0,0,0,398.454,386.942Z" transform="translate(-349.493 -273.323)" fill="#263238"/><path d="M386.164,386.942a41.573,41.573,0,0,0,0-7.6A41.567,41.567,0,0,0,386.164,386.942Z" transform="translate(-344.583 -273.323)" fill="#263238"/><path d="M390.01,386.942a41.567,41.567,0,0,0,0-7.6,19.929,19.929,0,0,0-.18,3.8A22.605,22.605,0,0,0,390.01,386.942Z" transform="translate(-346.117 -273.323)" fill="#263238"/><path d="M377.72,386.942a41.573,41.573,0,0,0,0-7.6A40.2,40.2,0,0,0,377.72,386.942Z" transform="translate(-341.207 -273.323)" fill="#263238"/><path d="M381.564,386.942a41.573,41.573,0,0,0,0-7.6A41.573,41.573,0,0,0,381.564,386.942Z" transform="translate(-342.745 -273.323)" fill="#263238"/><path d="M369.274,386.942a40.192,40.192,0,0,0,0-7.6A41.57,41.57,0,0,0,369.274,386.942Z" transform="translate(-337.835 -273.323)" fill="#263238"/><path d="M373.12,386.942a41.567,41.567,0,0,0,0-7.6A40.2,40.2,0,0,0,373.12,386.942Z" transform="translate(-339.369 -273.323)" fill="#263238"/><path d="M360.884,386.942a41.573,41.573,0,0,0,0-7.6A41.573,41.573,0,0,0,360.884,386.942Z" transform="translate(-334.483 -273.323)" fill="#263238"/><path d="M364.674,386.942a40.19,40.19,0,0,0,0-7.6A41.573,41.573,0,0,0,364.674,386.942Z" transform="translate(-335.997 -273.323)" fill="#263238"/><path d="M352.384,386.942a40.191,40.191,0,0,0,0-7.6,41.573,41.573,0,0,0,0,7.6Z" transform="translate(-331.087 -273.323)" fill="#263238"/><path d="M356.234,386.942a41.57,41.57,0,0,0,0-7.6A41.57,41.57,0,0,0,356.234,386.942Z" transform="translate(-332.625 -273.323)" fill="#263238"/><path d="M343.944,386.942a41.573,41.573,0,0,0,0-7.6A41.573,41.573,0,0,0,343.944,386.942Z" transform="translate(-327.715 -273.323)" fill="#263238"/><path d="M347.784,386.942a40.184,40.184,0,0,0,0-7.6,41.573,41.573,0,0,0,0,7.6Z" transform="translate(-329.25 -273.323)" fill="#263238"/><path d="M335.5,386.942a41.567,41.567,0,0,0,0-7.6,40.191,40.191,0,0,0,0,7.6Z" transform="translate(-324.339 -273.323)" fill="#263238"/><path d="M339.344,386.942a41.573,41.573,0,0,0,0-7.6A41.573,41.573,0,0,0,339.344,386.942Z" transform="translate(-325.878 -273.323)" fill="#263238"/><path d="M331.33,379.06c0,.1,9.494.174,21.2.174s21.2-.078,21.2-.174-9.488-.18-21.2-.18S331.33,378.952,331.33,379.06Z" transform="translate(-322.745 -273.139)" fill="#263238"/><rect width="42.202" height="7.662" transform="translate(53.555 121.366) rotate(180)" fill="#f8951d"/><path d="M399.21,399.942a41.573,41.573,0,0,0,0-7.6,40.191,40.191,0,0,0,0,7.6Z" transform="translate(-349.793 -278.517)" fill="#263238"/><path d="M403.054,399.942a41.567,41.567,0,0,0,0-7.6A41.573,41.573,0,0,0,403.054,399.942Z" transform="translate(-351.331 -278.517)" fill="#263238"/><path d="M390.764,399.942a41.57,41.57,0,0,0,0-7.6A41.57,41.57,0,0,0,390.764,399.942Z" transform="translate(-346.421 -278.517)" fill="#263238"/><path d="M394.61,399.942a41.573,41.573,0,0,0,0-7.6,40.191,40.191,0,0,0,0,7.6Z" transform="translate(-347.955 -278.517)" fill="#263238"/><path d="M382.32,399.942a41.57,41.57,0,0,0,0-7.6,40.192,40.192,0,0,0,0,7.6Z" transform="translate(-343.045 -278.517)" fill="#263238"/><path d="M386.164,399.942a41.573,41.573,0,0,0,0-7.6A41.567,41.567,0,0,0,386.164,399.942Z" transform="translate(-344.583 -278.517)" fill="#263238"/><path d="M373.884,399.942a40.192,40.192,0,0,0,0-7.6,41.573,41.573,0,0,0,0,7.6Z" transform="translate(-339.677 -278.517)" fill="#263238"/><path d="M377.72,399.942a41.573,41.573,0,0,0,0-7.6A40.2,40.2,0,0,0,377.72,399.942Z" transform="translate(-341.207 -278.517)" fill="#263238"/><path d="M365.434,399.942a41.573,41.573,0,0,0,0-7.6A41.573,41.573,0,0,0,365.434,399.942Z" transform="translate(-336.301 -278.517)" fill="#263238"/><path d="M369.274,399.942a40.192,40.192,0,0,0,0-7.6,41.573,41.573,0,0,0,0,7.6Z" transform="translate(-337.835 -278.517)" fill="#263238"/><path d="M356.984,399.942a40.191,40.191,0,0,0,0-7.6,41.573,41.573,0,0,0,0,7.6Z" transform="translate(-332.925 -278.517)" fill="#263238"/><path d="M360.884,399.942a41.573,41.573,0,0,0,0-7.6A41.573,41.573,0,0,0,360.884,399.942Z" transform="translate(-334.483 -278.517)" fill="#263238"/><path d="M348.544,399.942a41.567,41.567,0,0,0,0-7.6A41.573,41.573,0,0,0,348.544,399.942Z" transform="translate(-329.553 -278.517)" fill="#263238"/><path d="M352.384,399.942a40.191,40.191,0,0,0,0-7.6,41.573,41.573,0,0,0,0,7.6Z" transform="translate(-331.087 -278.517)" fill="#263238"/><path d="M340.1,399.942a41.573,41.573,0,0,0,0-7.6,40.191,40.191,0,0,0,0,7.6Z" transform="translate(-326.177 -278.517)" fill="#263238"/><path d="M343.944,399.942a41.573,41.573,0,0,0,0-7.6A41.573,41.573,0,0,0,343.944,399.942Z" transform="translate(-327.715 -278.517)" fill="#263238"/><path d="M335.93,392.024c0,.1,9.494.174,21.2.174s21.2-.078,21.2-.174-9.488-.174-21.2-.174S335.93,391.94,335.93,392.024Z" transform="translate(-324.583 -278.321)" fill="#263238"/><rect width="42.202" height="7.662" transform="translate(50.102 129.082) rotate(180)" fill="#f8951d"/><path d="M393.464,412.782a40.19,40.19,0,0,0,0-7.6A41.568,41.568,0,0,0,393.464,412.782Z" transform="translate(-347.499 -283.646)" fill="#263238"/><path d="M397.31,412.782a41.568,41.568,0,0,0,0-7.6A40.2,40.2,0,0,0,397.31,412.782Z" transform="translate(-349.034 -283.646)" fill="#263238"/><path d="M385.024,412.782a41.573,41.573,0,0,0,0-7.6A41.573,41.573,0,0,0,385.024,412.782Z" transform="translate(-344.128 -283.646)" fill="#263238"/><path d="M388.884,412.782a40.2,40.2,0,0,0,0-7.6A41.573,41.573,0,0,0,388.884,412.782Z" transform="translate(-345.67 -283.646)" fill="#263238"/><path d="M376.574,412.782a40.191,40.191,0,0,0,0-7.6A41.573,41.573,0,0,0,376.574,412.782Z" transform="translate(-340.752 -283.646)" fill="#263238"/><path d="M380.424,412.782a41.573,41.573,0,0,0,0-7.6A41.573,41.573,0,0,0,380.424,412.782Z" transform="translate(-342.29 -283.646)" fill="#263238"/><path d="M368.134,412.782a41.571,41.571,0,0,0,0-7.6,41.579,41.579,0,0,0,0,7.6Z" transform="translate(-337.38 -283.646)" fill="#263238"/><path d="M371.974,412.782a40.185,40.185,0,0,0,0-7.6A41.573,41.573,0,0,0,371.974,412.782Z" transform="translate(-338.914 -283.646)" fill="#263238"/><path d="M359.69,412.782a41.571,41.571,0,0,0,0-7.6,40.188,40.188,0,0,0,0,7.6Z" transform="translate(-334.004 -283.646)" fill="#263238"/><path d="M363.534,412.782a41.571,41.571,0,0,0,0-7.6A41.576,41.576,0,0,0,363.534,412.782Z" transform="translate(-335.542 -283.646)" fill="#263238"/><path d="M351.244,412.782a41.573,41.573,0,0,0,0-7.6A41.573,41.573,0,0,0,351.244,412.782Z" transform="translate(-330.632 -283.646)" fill="#263238"/><path d="M355.09,412.782a41.573,41.573,0,0,0,0-7.6,19.927,19.927,0,0,0-.18,3.8A17.825,17.825,0,0,0,355.09,412.782Z" transform="translate(-332.166 -283.646)" fill="#263238"/><path d="M342.8,412.782a41.573,41.573,0,0,0,0-7.6,40.188,40.188,0,0,0,0,7.6Z" transform="translate(-327.256 -283.646)" fill="#263238"/><path d="M346.644,412.782a41.573,41.573,0,0,0,0-7.6A41.573,41.573,0,0,0,346.644,412.782Z" transform="translate(-328.794 -283.646)" fill="#263238"/><path d="M334.354,412.782a40.19,40.19,0,0,0,0-7.6A41.573,41.573,0,0,0,334.354,412.782Z" transform="translate(-323.884 -283.646)" fill="#263238"/><path d="M338.2,412.782a41.573,41.573,0,0,0,0-7.6A40.19,40.19,0,0,0,338.2,412.782Z" transform="translate(-325.418 -283.646)" fill="#263238"/><path d="M330.19,404.884c0,.1,9.518.174,21.251.174s21.269-.084,21.269-.174-9.512-.174-21.245-.174S330.19,404.782,330.19,404.884Z" transform="translate(-322.29 -283.459)" fill="#263238"/><rect width="42.202" height="7.662" transform="translate(53.411 136.684) rotate(180)" fill="#f8951d"/><path d="M398.974,425.442a41.573,41.573,0,0,0,0-7.6A41.573,41.573,0,0,0,398.974,425.442Z" transform="translate(-349.701 -288.704)" fill="#263238"/><path d="M402.82,425.442a41.57,41.57,0,0,0,0-7.6,40.188,40.188,0,0,0,0,7.6Z" transform="translate(-351.235 -288.704)" fill="#263238"/><path d="M390.53,425.442a41.573,41.573,0,0,0,0-7.6,40.189,40.189,0,0,0,0,7.6Z" transform="translate(-346.325 -288.704)" fill="#263238"/><path d="M394.374,425.442a41.573,41.573,0,0,0,0-7.6A41.573,41.573,0,0,0,394.374,425.442Z" transform="translate(-347.863 -288.704)" fill="#263238"/><path d="M382.084,425.442a40.189,40.189,0,0,0,0-7.6A41.573,41.573,0,0,0,382.084,425.442Z" transform="translate(-342.953 -288.704)" fill="#263238"/><path d="M385.93,425.442a41.573,41.573,0,0,0,0-7.6A40.189,40.189,0,0,0,385.93,425.442Z" transform="translate(-344.487 -288.704)" fill="#263238"/><path d="M373.644,425.442a41.573,41.573,0,0,0,0-7.6A41.573,41.573,0,0,0,373.644,425.442Z" transform="translate(-339.581 -288.704)" fill="#263238"/><path d="M377.484,425.442a40.189,40.189,0,0,0,0-7.6,41.57,41.57,0,0,0,0,7.6Z" transform="translate(-341.115 -288.704)" fill="#263238"/><path d="M365.194,425.442a40.2,40.2,0,0,0,0-7.6,41.573,41.573,0,0,0,0,7.6Z" transform="translate(-336.205 -288.704)" fill="#263238"/><path d="M369.044,425.442a41.567,41.567,0,0,0,0-7.6A41.573,41.573,0,0,0,369.044,425.442Z" transform="translate(-337.743 -288.704)" fill="#263238"/><path d="M356.754,425.442a41.573,41.573,0,0,0,0-7.6A41.573,41.573,0,0,0,356.754,425.442Z" transform="translate(-332.833 -288.704)" fill="#263238"/><path d="M360.594,425.442a40.191,40.191,0,0,0,0-7.6,41.573,41.573,0,0,0,0,7.6Z" transform="translate(-334.367 -288.704)" fill="#263238"/><path d="M348.31,425.442a41.573,41.573,0,0,0,0-7.6,40.191,40.191,0,0,0,0,7.6Z" transform="translate(-329.457 -288.704)" fill="#263238"/><path d="M352.154,425.442a41.567,41.567,0,0,0,0-7.6A41.567,41.567,0,0,0,352.154,425.442Z" transform="translate(-330.995 -288.704)" fill="#263238"/><path d="M339.884,425.442a41.573,41.573,0,0,0,0-7.6A41.573,41.573,0,0,0,339.884,425.442Z" transform="translate(-326.093 -288.704)" fill="#263238"/><path d="M343.71,425.442a41.573,41.573,0,0,0,0-7.6,40.191,40.191,0,0,0,0,7.6Z" transform="translate(-327.62 -288.704)" fill="#263238"/><path d="M335.7,417.534c0,.1,9.494.174,21.2.174s21.2-.078,21.2-.174-9.488-.174-21.2-.174S335.7,417.438,335.7,417.534Z" transform="translate(-324.491 -288.512)" fill="#263238"/><rect width="42.202" height="7.662" transform="translate(49.177 144.454) rotate(180)" fill="#f8951d"/><path d="M391.934,438.388a41.639,41.639,0,0,0,0-7.608A41.633,41.633,0,0,0,391.934,438.388Z" transform="translate(-346.888 -293.874)" fill="#263238"/><path d="M395.774,438.388a40.235,40.235,0,0,0,0-7.608A41.636,41.636,0,0,0,395.774,438.388Z" transform="translate(-348.422 -293.874)" fill="#263238"/><path d="M383.484,438.388a40.255,40.255,0,0,0,0-7.608A41.639,41.639,0,0,0,383.484,438.388Z" transform="translate(-343.512 -293.874)" fill="#263238"/><path d="M387.334,438.388a41.639,41.639,0,0,0,0-7.608A41.639,41.639,0,0,0,387.334,438.388Z" transform="translate(-345.05 -293.874)" fill="#263238"/><path d="M375.044,438.388a41.633,41.633,0,0,0,0-7.608,41.636,41.636,0,0,0,0,7.608Z" transform="translate(-340.14 -293.874)" fill="#263238"/><path d="M378.884,438.388a40.262,40.262,0,0,0,0-7.608A41.636,41.636,0,0,0,378.884,438.388Z" transform="translate(-341.674 -293.874)" fill="#263238"/><path d="M366.6,438.388a41.639,41.639,0,0,0,0-7.608,40.255,40.255,0,0,0,0,7.608Z" transform="translate(-336.764 -293.874)" fill="#263238"/><path d="M370.444,438.388a41.639,41.639,0,0,0,0-7.608A41.628,41.628,0,0,0,370.444,438.388Z" transform="translate(-338.303 -293.874)" fill="#263238"/><path d="M358.154,438.388a41.633,41.633,0,0,0,0-7.608,41.636,41.636,0,0,0,0,7.608Z" transform="translate(-333.392 -293.874)" fill="#263238"/><path d="M362,438.388a41.633,41.633,0,0,0,0-7.608,20.021,20.021,0,0,0-.18,3.807A23.392,23.392,0,0,0,362,438.388Z" transform="translate(-334.927 -293.874)" fill="#263238"/><path d="M349.71,438.388a41.636,41.636,0,0,0,0-7.608,40.231,40.231,0,0,0,0,7.608Z" transform="translate(-330.017 -293.874)" fill="#263238"/><path d="M353.554,438.388a41.628,41.628,0,0,0,0-7.608A41.639,41.639,0,0,0,353.554,438.388Z" transform="translate(-331.555 -293.874)" fill="#263238"/><path d="M341.264,438.388a40.235,40.235,0,0,0,0-7.608A41.639,41.639,0,0,0,341.264,438.388Z" transform="translate(-326.645 -293.874)" fill="#263238"/><path d="M345.11,438.388a41.639,41.639,0,0,0,0-7.608,40.233,40.233,0,0,0,0,7.608Z" transform="translate(-328.179 -293.874)" fill="#263238"/><path d="M332.824,438.388a41.639,41.639,0,0,0,0-7.608A41.639,41.639,0,0,0,332.824,438.388Z" transform="translate(-323.273 -293.874)" fill="#263238"/><path d="M336.664,438.388a40.233,40.233,0,0,0,0-7.608A41.639,41.639,0,0,0,336.664,438.388Z" transform="translate(-324.807 -293.874)" fill="#263238"/><path d="M328.66,430.474c0,.1,9.488.18,21.2.18s21.2-.078,21.2-.18-9.488-.174-21.2-.174S328.66,430.378,328.66,430.474Z" transform="translate(-321.679 -293.682)" fill="#263238"/><rect width="42.202" height="7.662" transform="translate(51.831 152.212) rotate(180)" fill="#f8951d"/><path d="M396.34,451.292a41.573,41.573,0,0,0,0-7.6,40.191,40.191,0,0,0,0,7.6Z" transform="translate(-348.646 -299.032)" fill="#263238"/><path d="M400.184,451.292a41.567,41.567,0,0,0,0-7.6A41.573,41.573,0,0,0,400.184,451.292Z" transform="translate(-350.184 -299.032)" fill="#263238"/><path d="M387.884,451.292a41.573,41.573,0,0,0,0-7.6A41.573,41.573,0,0,0,387.884,451.292Z" transform="translate(-345.27 -299.032)" fill="#263238"/><path d="M391.74,451.292a41.57,41.57,0,0,0,0-7.6,40.188,40.188,0,0,0,0,7.6Z" transform="translate(-346.808 -299.032)" fill="#263238"/><path d="M379.45,451.292a41.573,41.573,0,0,0,0-7.6A40.2,40.2,0,0,0,379.45,451.292Z" transform="translate(-341.898 -299.032)" fill="#263238"/><path d="M383.294,451.292a41.573,41.573,0,0,0,0-7.6A41.573,41.573,0,0,0,383.294,451.292Z" transform="translate(-343.436 -299.032)" fill="#263238"/><path d="M371,451.292a41.573,41.573,0,0,0,0-7.6A41.573,41.573,0,0,0,371,451.292Z" transform="translate(-338.526 -299.032)" fill="#263238"/><path d="M374.88,451.292a41.573,41.573,0,0,0,0-7.6,19.981,19.981,0,0,0-.18,3.8A18.353,18.353,0,0,0,374.88,451.292Z" transform="translate(-340.072 -299.032)" fill="#263238"/><path d="M362.564,451.292a41.573,41.573,0,0,0,0-7.6A41.573,41.573,0,0,0,362.564,451.292Z" transform="translate(-335.154 -299.032)" fill="#263238"/><path d="M366.4,451.292a41.573,41.573,0,0,0,0-7.6A41.573,41.573,0,0,0,366.4,451.292Z" transform="translate(-336.689 -299.032)" fill="#263238"/><path d="M354.114,451.292a40.191,40.191,0,0,0,0-7.6A41.573,41.573,0,0,0,354.114,451.292Z" transform="translate(-331.778 -299.032)" fill="#263238"/><path d="M357.964,451.292a41.567,41.567,0,0,0,0-7.6A41.573,41.573,0,0,0,357.964,451.292Z" transform="translate(-333.317 -299.032)" fill="#263238"/><path d="M345.674,451.292a41.567,41.567,0,0,0,0-7.6A41.573,41.573,0,0,0,345.674,451.292Z" transform="translate(-328.407 -299.032)" fill="#263238"/><path d="M349.514,451.292a40.2,40.2,0,0,0,0-7.6A41.573,41.573,0,0,0,349.514,451.292Z" transform="translate(-329.941 -299.032)" fill="#263238"/><path d="M337.23,451.292a41.573,41.573,0,0,0,0-7.6,40.191,40.191,0,0,0,0,7.6Z" transform="translate(-325.031 -299.032)" fill="#263238"/><path d="M341.074,451.292a41.573,41.573,0,0,0,0-7.6A41.573,41.573,0,0,0,341.074,451.292Z" transform="translate(-326.569 -299.032)" fill="#263238"/><path d="M333.06,443.384c0,.1,9.518.18,21.251.18s21.251-.078,21.251-.18-9.512-.174-21.251-.174S333.06,443.288,333.06,443.384Z" transform="translate(-323.437 -298.84)" fill="#263238"/><rect width="42.202" height="7.662" transform="translate(55.134 159.815) rotate(180)" fill="#f8951d"/><path d="M401.884,463.942a40.191,40.191,0,0,0,0-7.6,41.57,41.57,0,0,0,0,7.6Z" transform="translate(-350.863 -304.086)" fill="#263238"/><path d="M405.694,463.942a41.573,41.573,0,0,0,0-7.6A41.573,41.573,0,0,0,405.694,463.942Z" transform="translate(-352.385 -304.086)" fill="#263238"/><path d="M393.4,463.942a41.573,41.573,0,0,0,0-7.6A41.573,41.573,0,0,0,393.4,463.942Z" transform="translate(-347.475 -304.086)" fill="#263238"/><path d="M397.244,463.942a40.191,40.191,0,0,0,0-7.6A41.573,41.573,0,0,0,397.244,463.942Z" transform="translate(-349.01 -304.086)" fill="#263238"/><path d="M384.96,463.942a41.567,41.567,0,0,0,0-7.6,40.2,40.2,0,0,0,0,7.6Z" transform="translate(-344.1 -304.086)" fill="#263238"/><path d="M388.8,463.942a41.564,41.564,0,0,0,0-7.6A41.57,41.57,0,0,0,388.8,463.942Z" transform="translate(-345.638 -304.086)" fill="#263238"/><path d="M376.514,463.942a41.573,41.573,0,0,0,0-7.6A41.573,41.573,0,0,0,376.514,463.942Z" transform="translate(-340.728 -304.086)" fill="#263238"/><path d="M380.36,463.942a41.573,41.573,0,0,0,0-7.6,40.191,40.191,0,0,0,0,7.6Z" transform="translate(-342.262 -304.086)" fill="#263238"/><path d="M368.07,463.942a41.567,41.567,0,0,0,0-7.6A40.2,40.2,0,0,0,368.07,463.942Z" transform="translate(-337.352 -304.086)" fill="#263238"/><path d="M371.884,463.942a41.573,41.573,0,0,0,0-7.6,41.575,41.575,0,0,0,0,7.6Z" transform="translate(-338.878 -304.086)" fill="#263238"/><path d="M359.624,463.942a40.2,40.2,0,0,0,0-7.6A41.573,41.573,0,0,0,359.624,463.942Z" transform="translate(-333.98 -304.086)" fill="#263238"/><path d="M363.47,463.942a41.573,41.573,0,0,0,0-7.6,40.187,40.187,0,0,0,0,7.6Z" transform="translate(-335.514 -304.086)" fill="#263238"/><path d="M351.184,463.942a41.573,41.573,0,0,0,0-7.6,41.575,41.575,0,0,0,0,7.6Z" transform="translate(-330.608 -304.086)" fill="#263238"/><path d="M355.024,463.942a40.2,40.2,0,0,0,0-7.6A41.573,41.573,0,0,0,355.024,463.942Z" transform="translate(-332.142 -304.086)" fill="#263238"/><path d="M342.734,463.942a40.191,40.191,0,0,0,0-7.6,41.57,41.57,0,0,0,0,7.6Z" transform="translate(-327.232 -304.086)" fill="#263238"/><path d="M346.584,463.942a41.573,41.573,0,0,0,0-7.6A41.573,41.573,0,0,0,346.584,463.942Z" transform="translate(-328.77 -304.086)" fill="#263238"/><path d="M338.57,456.044c0,.1,9.494.18,21.2.18s21.2-.078,21.2-.18-9.494-.174-21.2-.174S338.57,455.948,338.57,456.044Z" transform="translate(-325.638 -303.898)" fill="#263238"/><g transform="translate(11.101 121.426)" opacity="0.3"><path d="M374.521,405a64.419,64.419,0,0,1-19.5,1.411c-6.473-.432-13.013-1.381-19.5-1.3Z" transform="translate(-335.52 -405)"/></g><g transform="translate(10.722 113.793)" opacity="0.3"><path d="M373.891,392.29a64.615,64.615,0,0,1-19.5,1.417c-6.473-.432-13.012-1.387-19.5-1.3Z" transform="translate(-334.89 -392.29)"/></g><g transform="translate(8.699 129.1)" opacity="0.3"><path d="M370.5,417.78a64.377,64.377,0,0,1-19.474,1.417c-6.479-.432-13.018-1.381-19.5-1.3Z" transform="translate(-331.52 -417.78)"/></g><g transform="translate(10.332 136.75)" opacity="0.3"><path d="M373.241,430.52a64.42,64.42,0,0,1-19.5,1.417c-6.473-.432-13.013-1.381-19.5-1.3Z" transform="translate(-334.24 -430.52)"/></g><g transform="translate(9.834 144.37)" opacity="0.3"><path d="M372.405,443.21a64.377,64.377,0,0,1-19.492,1.417c-6.479-.432-13.018-1.381-19.5-1.3Z" transform="translate(-333.41 -443.21)"/></g><g transform="translate(11.893 152.134)" opacity="0.3"><path d="M375.841,456.14a64.42,64.42,0,0,1-19.5,1.417c-6.473-.426-13.013-1.381-19.5-1.3Z" transform="translate(-336.84 -456.14)"/></g><path d="M400.2,385.1a12.281,12.281,0,0,0,0-4.2A12.7,12.7,0,0,0,400.2,385.1Z" transform="translate(-350.191 -273.946)" fill="#fff"/><path d="M404.64,398.544a14.646,14.646,0,0,0,0-4.5,14.163,14.163,0,0,0,0,4.5Z" transform="translate(-351.962 -279.196)" fill="#fff"/><path d="M398.334,412.013a11.537,11.537,0,0,0,0-3.993A11.537,11.537,0,0,0,398.334,412.013Z" transform="translate(-349.445 -284.781)" fill="#fff"/><path d="M404.809,424.373a9.314,9.314,0,0,0,0-3.6,9.007,9.007,0,0,0,0,3.6Z" transform="translate(-352.029 -289.875)" fill="#fff"/><path d="M379.19,393.074c0,.1,3.117.174,6.96.174s6.96-.078,6.96-.174-3.117-.174-6.96-.174A63.768,63.768,0,0,0,379.19,393.074Z" transform="translate(-341.866 -278.74)" fill="#fff"/><path d="M371.69,380.8c0,.1,3.141.174,7.008.174s7.014-.078,7.014-.174a69.631,69.631,0,0,0-7.014-.18A67.391,67.391,0,0,0,371.69,380.8Z" transform="translate(-338.87 -273.834)" fill="#fff"/><path d="M360.44,380.97a15.312,15.312,0,0,0,4.606,0A14.809,14.809,0,0,0,360.44,380.97Z" transform="translate(-334.375 -273.902)" fill="#fff"/><path d="M397.852,439a34.108,34.108,0,0,0,0-5.861A32.565,32.565,0,0,0,397.852,439Z" transform="translate(-349.269 -294.817)" fill="#fff"/><path d="M344.53,429c0,.072,7.674.126,17.138.126s17.144-.054,17.144-.126-7.674-.132-17.144-.132S344.53,428.948,344.53,429Z" transform="translate(-328.019 -293.111)" fill="#fff"/><path d="M356,454.782c0,.072,6.065.126,13.547.126s13.547-.054,13.547-.126-6.065-.132-13.547-.132S356,454.71,356,454.782Z" transform="translate(-332.601 -303.41)" fill="#fff"/><path d="M407.792,464.261a11,11,0,0,0,0-3.321A10.5,10.5,0,0,0,407.792,464.261Z" transform="translate(-353.24 -305.923)" fill="#fff"/><path d="M358.16,467.486c0,.072,6.287.132,14.045.132s14.039-.06,14.039-.132-6.287-.126-14.039-.126S358.16,467.414,358.16,467.486Z" transform="translate(-333.464 -308.488)" fill="#fff"/><path d="M404.915,448.443a.433.433,0,0,0,0-.138V447.9c0-.378,0-.895.03-1.549,0-1.369,0-3.291.042-5.639v-.1h-3.1l.114.114v-7.782h-2.918l.126.132v-7.776l-.114.12h4.179v-.1c0-2.33-.036-4.239-.048-5.59v-1.934a.36.36,0,0,0,0-.138.433.433,0,0,0,0,.138v.4c0,.378,0,.889-.03,1.537,0,1.351,0,3.261-.042,5.59l.1-.1H399v8.016h2.924l-.132-.126v7.764h.114l3-.042-.1-.1c0,2.348.036,4.269.048,5.639v1.958a.361.361,0,0,0,.06.126Z" transform="translate(-349.781 -288.628)" fill="#263238"/><path d="M324.988,273.411c4.1,4.8,10.665,5.891,14.652,2.474s3.915-10.052-.2-14.856-10.665-5.9-14.658-2.474S320.881,268.619,324.988,273.411Z" transform="translate(-318.956 -224.271)" fill="#f8951d"/><g transform="translate(2.889 32.291)" opacity="0.2"><path d="M324.988,273.411c4.1,4.8,10.665,5.891,14.652,2.474s3.915-10.052-.2-14.856-10.665-5.9-14.658-2.474S320.881,268.619,324.988,273.411Z" transform="translate(-321.844 -256.563)"/></g><ellipse cx="9.518" cy="11.415" rx="9.518" ry="11.415" transform="translate(0 39.248) rotate(-40.61)" fill="#f8951d"/><g transform="translate(4.85 31.089)" opacity="0.1"><path d="M325.11,260.013a8.215,8.215,0,0,1,2.372-3.465c3.993-3.423,10.551-2.312,14.658,2.474a12.929,12.929,0,0,1,3,6.455,19.72,19.72,0,0,1-8.107,1.771,11.043,11.043,0,0,1-7.494-2.582C328.094,263.394,326.113,261.868,325.11,260.013Z" transform="translate(-325.11 -254.561)" fill="#fff"/></g><path d="M330.71,271.119c3.153,3.681,8.149,4.57,11.163,1.994s2.894-7.662-.258-11.337-8.155-4.57-11.169-1.988S327.552,267.444,330.71,271.119Z" transform="translate(-321.519 -224.97)" fill="#f8951d"/><g transform="translate(6.742 33.342)" opacity="0.2"><path d="M330.71,271.119c3.153,3.681,8.149,4.57,11.163,1.994s2.894-7.662-.258-11.337-8.155-4.57-11.169-1.988S327.552,267.444,330.71,271.119Z" transform="translate(-328.261 -258.312)"/></g><path d="M330.534,272.006c3.074,3.6,7.932,4.474,10.851,1.976s2.786-7.44-.294-11.031-7.932-4.474-10.851-1.976S327.453,268.415,330.534,272.006Z" transform="translate(-321.469 -225.467)" fill="#f8951d"/><g transform="translate(6.665 34.088)" opacity="0.2"><path d="M330.534,272.006c3.074,3.6,7.932,4.474,10.851,1.976s2.786-7.44-.294-11.031-7.932-4.474-10.851-1.976S327.453,268.415,330.534,272.006Z" transform="translate(-328.134 -259.555)" fill="#fff"/></g><path d="M337.2,272.242a2.222,2.222,0,0,0,3.086.408l.817.961.558-.48.072-.45-.27.216-.6-.715a3.453,3.453,0,0,0,1.057-2.132l-1.051-.6a3.063,3.063,0,0,1-.8,1.8l-1.465-1.711c.558-.877,1.1-1.88.084-3.062a2.21,2.21,0,0,0-3.074-.42l-.823-.967-.324.276-.2-.24v.438l.811.949a2.9,2.9,0,0,0-.685,1.2l-.174.036.036.528.168.1.745.438.066.042a2.96,2.96,0,0,1,.108-.564,3.075,3.075,0,0,1,.522-.865h0l1.477,1.723C336.754,270.032,336.19,271.041,337.2,272.242Zm-.8-5.242a1,1,0,0,1,1.357.186c.348.408.216.847-.054,1.333ZM335.805,267.45Zm2.312,4.125c-.36-.42-.228-.871.054-1.369l1.321,1.5a.985.985,0,0,1-1.351-.144Z" transform="translate(-323.9 -227.678)" fill="#f8951d"/><g transform="translate(10.32 37.412)" opacity="0.3"><path d="M337.2,272.242a2.222,2.222,0,0,0,3.086.408l.817.961.558-.48.072-.45-.27.216-.6-.715a3.453,3.453,0,0,0,1.057-2.132l-1.051-.6a3.063,3.063,0,0,1-.8,1.8l-1.465-1.711c.558-.877,1.1-1.88.084-3.062a2.21,2.21,0,0,0-3.074-.42l-.823-.967-.324.276-.2-.24v.438l.811.949a2.9,2.9,0,0,0-.685,1.2l-.174.036.036.528.168.1.745.438.066.042a2.96,2.96,0,0,1,.108-.564,3.075,3.075,0,0,1,.522-.865h0l1.477,1.723C336.754,270.032,336.19,271.041,337.2,272.242Zm-.8-5.242a1,1,0,0,1,1.357.186c.348.408.216.847-.054,1.333ZM335.805,267.45Zm2.312,4.125c-.36-.42-.228-.871.054-1.369l1.321,1.5a.985.985,0,0,1-1.351-.144Z" transform="translate(-334.22 -265.09)"/></g><path d="M337.2,271.516c-1.021-1.2-.45-2.192.1-3.068l-1.447-1.723a3.236,3.236,0,0,0-.709,1.405l-1.015-.6a3.249,3.249,0,0,1,.931-1.705l-.811-.949.552-.474.829.961a2.21,2.21,0,0,1,3.074.426c1.015,1.2.468,2.186-.084,3.063l1.465,1.711a3.063,3.063,0,0,0,.8-1.8l1.045.6a3.441,3.441,0,0,1-1.051,2.132l.811.949-.558.48-.817-.961a2.222,2.222,0,0,1-3.117-.444Zm2.288-.522-1.3-1.513c-.282.5-.414.949-.054,1.369A.985.985,0,0,0,339.486,270.993Zm-1.735-4.534a1,1,0,0,0-1.351-.192l1.3,1.525c.27-.486.4-.925.048-1.333Z" transform="translate(-323.864 -227.403)" fill="#f8951d"/><path d="M330.21,271.76s.042.252.126.709a8.546,8.546,0,0,0,.6,1.844,9.32,9.32,0,0,0,1.585,2.4,9.654,9.654,0,0,0,1.261,1.135,8.938,8.938,0,0,0,1.561.931,9.7,9.7,0,0,0,3.387.907,5.572,5.572,0,0,0,2.792-.492,5.872,5.872,0,0,0,1.579-1.111c.162-.168.276-.3.36-.39s.132-.132.138-.126a1.626,1.626,0,0,1-.114.144c-.078.1-.186.24-.342.408a5.4,5.4,0,0,1-4.42,1.711,9.787,9.787,0,0,1-3.441-.913,9.445,9.445,0,0,1-1.591-.949,9.172,9.172,0,0,1-1.273-1.165,9.007,9.007,0,0,1-1.579-2.438,7.566,7.566,0,0,1-.552-1.886,3.8,3.8,0,0,1-.06-.528A1.522,1.522,0,0,1,330.21,271.76Z" transform="translate(-322.298 -230.343)" fill="#263238"/><path d="M335.43,285.389c0-.03.564.378,1.561.823l.4.168.438.156c.3.114.63.192.979.288a12.394,12.394,0,0,0,2.318.294,11.852,11.852,0,0,0,2.33-.2,8.836,8.836,0,0,0,.991-.252l.444-.132.4-.156c1.015-.4,1.579-.787,1.6-.757a3.483,3.483,0,0,1-.4.264,4.668,4.668,0,0,1-.486.276,7.172,7.172,0,0,1-.673.318l-.4.162c-.138.054-.288.1-.444.144a10.067,10.067,0,0,1-1,.27,10.592,10.592,0,0,1-4.7-.1,8.028,8.028,0,0,1-.991-.306c-.15-.054-.3-.1-.438-.162l-.4-.18a5.582,5.582,0,0,1-.661-.342,4.205,4.205,0,0,1-.474-.294,2.639,2.639,0,0,1-.384-.282Z" transform="translate(-324.383 -235.787)" fill="#263238"/><path d="M350.042,260.512s-.306-.384-.817-.967a13.751,13.751,0,0,0-2.252-2.042,14.151,14.151,0,0,0-2.642-1.5c-.721-.306-1.2-.444-1.2-.468a1.484,1.484,0,0,1,.336.072c.21.06.51.156.877.3a12.059,12.059,0,0,1,2.7,1.471,12.268,12.268,0,0,1,2.24,2.09c.252.306.438.564.558.745a2.276,2.276,0,0,1,.2.294Z" transform="translate(-327.46 -223.863)" fill="#fff"/><path d="M354.947,266.207a2.654,2.654,0,0,1-.558-.679,2.612,2.612,0,0,1-.438-.769,2.516,2.516,0,0,1,.558.679,2.612,2.612,0,0,1,.438.769Z" transform="translate(-331.782 -227.546)" fill="#fff"/><path d="M330.11,262.793a2.7,2.7,0,0,1,.156-.258,2.6,2.6,0,0,1,.21-.282,3.611,3.611,0,0,1,.306-.348,6.1,6.1,0,0,1,.925-.781,6.492,6.492,0,0,1,2.75-1.075,6.209,6.209,0,0,1,1.2-.054,4.59,4.59,0,0,1,.462.048,3,3,0,0,1,.348.066.847.847,0,0,1,.282.084c0,.03-.42-.072-1.1-.09a6.608,6.608,0,0,0-1.2.084,6.713,6.713,0,0,0-2.7,1.051,6.379,6.379,0,0,0-.925.745C330.368,262.456,330.134,262.811,330.11,262.793Z" transform="translate(-322.258 -225.639)" fill="#fff"/><path d="M340.149,266.573a1.992,1.992,0,0,0-.54-.54,2.259,2.259,0,0,0-.739-.21.507.507,0,0,1,.24-.072,1.081,1.081,0,0,1,.985.6A.713.713,0,0,1,340.149,266.573Z" transform="translate(-325.758 -227.942)" fill="#fff"/><path d="M346.991,272.718c-.036,0-.054-.084-.108-.144s-.114-.084-.126-.126,0-.042.072-.048a.2.2,0,0,1,.168.078.21.21,0,0,1,.054.174C347.04,272.7,347.01,272.724,346.991,272.718Z" transform="translate(-328.907 -230.599)" fill="#fff"/><path d="M388.3,311.893c-4.161-.943-10.557-.03-17.282,2.522s-12.106,6.113-14.6,9.578l-2.876,1.093,1.639,4.318c1.8,4.684,11.643,5.278,22.032,1.333s17.378-10.935,15.613-15.613l-1.639-4.323Z" transform="translate(-331.619 -245.94)" fill="#f8951d"/><g transform="translate(21.921 64.86)" opacity="0.3"><path d="M388.3,311.893c-4.161-.943-10.557-.03-17.282,2.522s-12.106,6.113-14.6,9.578l-2.876,1.093,1.639,4.318c1.8,4.684,11.643,5.278,22.032,1.333s17.378-10.935,15.613-15.613l-1.639-4.323Z" transform="translate(-353.54 -310.8)"/></g><path d="M375.582,324.311c-10.388,3.939-20.248,3.351-22.026-1.327s5.212-11.667,15.613-15.613,20.254-3.357,22.032,1.321S385.976,320.366,375.582,324.311Z" transform="translate(-331.515 -243.527)" fill="#f8951d"/><g transform="translate(23.711 61.239)" opacity="0.1"><path d="M363.822,317.02a44.073,44.073,0,0,0,6.233-.114,23.261,23.261,0,0,0,17.552-11.679c-4.233-1.021-10.587-.342-17.156,2.156-6.287,2.4-11.325,5.885-13.931,9.314C358.952,316.876,361.384,316.972,363.822,317.02Z" transform="translate(-356.52 -304.769)" fill="#fff"/></g><path d="M377.926,322.344c-7.986,3-15.012,3.933-16.213.793-1.267-3.333,3.915-9.139,11.9-12.172s15.426-2.942,16.615.2a3.931,3.931,0,0,1-.186,3.477C388.771,317.582,383.955,320.056,377.926,322.344Z" transform="translate(-334.808 -245.12)" fill="#f8951d"/><g transform="translate(26.715 63.628)" opacity="0.3"><path d="M377.926,322.344c-7.986,3-15.012,3.933-16.213.793-1.267-3.333,3.915-9.139,11.9-12.172s15.426-2.942,16.615.2a3.931,3.931,0,0,1-.186,3.477C388.771,317.582,383.955,320.056,377.926,322.344Z" transform="translate(-361.523 -308.748)"/></g><path d="M378.142,324.786c-7.806,2.954-15.078,2.81-16.273-.33s4.161-8.089,11.956-11.049,15.078-2.8,16.267.336S385.936,321.826,378.142,324.786Z" transform="translate(-334.88 -246.133)" fill="#f8951d"/><g transform="translate(26.823 65.15)" opacity="0.2"><path d="M378.142,324.786c-7.806,2.954-15.078,2.81-16.273-.33s4.161-8.089,11.956-11.049,15.078-2.8,16.267.336S385.936,321.826,378.142,324.786Z" transform="translate(-361.702 -311.284)" fill="#fff"/></g><path d="M382,321.31l3.453-1.363h0a3.332,3.332,0,0,1-.042,1.3,3.843,3.843,0,0,1-.336.733h.12l1.369-.168.318-.042.5-.6-.2-.126a3.122,3.122,0,0,0,.126-1.8l1.9-.751.336-.546-.474.186-.2-.492-1.934.763c-.895-1.513-2.72-1.675-4.468-.991a3.421,3.421,0,0,0-2.516,3.753l-3.423,1.351a3.567,3.567,0,0,1,.48-2.588l-1.91.216a3.873,3.873,0,0,0-.42,3.1l-1.435.57-.174-.4-.294.6.336.853,1.922-.757c.913,1.519,2.726,1.7,4.474,1.009A3.48,3.48,0,0,0,382,321.31Zm0-.991a1.651,1.651,0,0,1,1.075-1.639,1.549,1.549,0,0,1,1.97.432ZM385.434,319.941Zm-8.563,3.381,3.032-1.2a1.687,1.687,0,0,1-1.1,1.681,1.513,1.513,0,0,1-1.91-.48Z" transform="translate(-339.301 -248.428)" fill="#f8951d"/><g transform="translate(33.469 68.599)" opacity="0.3"><path d="M382,321.31l3.453-1.363h0a3.332,3.332,0,0,1-.042,1.3,3.843,3.843,0,0,1-.336.733h.12l1.369-.168.318-.042.5-.6-.2-.126a3.122,3.122,0,0,0,.126-1.8l1.9-.751.336-.546-.474.186-.2-.492-1.934.763c-.895-1.513-2.72-1.675-4.468-.991a3.421,3.421,0,0,0-2.516,3.753l-3.423,1.351a3.567,3.567,0,0,1,.48-2.588l-1.91.216a3.873,3.873,0,0,0-.42,3.1l-1.435.57-.174-.4-.294.6.336.853,1.922-.757c.913,1.519,2.726,1.7,4.474,1.009A3.48,3.48,0,0,0,382,321.31Zm0-.991a1.651,1.651,0,0,1,1.075-1.639,1.549,1.549,0,0,1,1.97.432ZM385.434,319.941Zm-8.563,3.381,3.032-1.2a1.687,1.687,0,0,1-1.1,1.681,1.513,1.513,0,0,1-1.91-.48Z" transform="translate(-372.77 -317.026)"/></g><path d="M375.35,323l-1.958.637-.282-.871,1.94-.63a3.909,3.909,0,0,1,.6-3.068l1.922-.1a3.6,3.6,0,0,0-.643,2.552l3.5-1.135a3.479,3.479,0,0,1,2.75-3.6c1.8-.6,3.6-.3,4.4,1.267l1.982-.643.282.871-1.946.63a3.6,3.6,0,0,1-.372,2.5l-1.91.138a3.567,3.567,0,0,0,.39-2.024l-3.537,1.147a3.445,3.445,0,0,1-2.72,3.6C377.968,324.867,376.172,324.6,375.35,323Zm3.807,0a1.681,1.681,0,0,0,1.2-1.609l-3.111.985a1.507,1.507,0,0,0,1.91.606Zm3.4-3.285,3.117-1.015a1.543,1.543,0,0,0-1.94-.552,1.645,1.645,0,0,0-1.177,1.549Z" transform="translate(-339.437 -248.214)" fill="#f8951d"/><path d="M393.769,321.21a1.428,1.428,0,0,1-.156.186l-.486.5c-.2.222-.468.486-.787.781s-.673.637-1.087.985a27.117,27.117,0,0,1-7.206,4.5,36.246,36.246,0,0,1-8.179,2.288c-1.075.162-1.946.288-2.552.342l-.7.072a.733.733,0,0,1-.24,0,1.1,1.1,0,0,1,.234-.054l.739-.12c.6-.084,1.471-.228,2.54-.414a38.647,38.647,0,0,0,8.113-2.342,28.223,28.223,0,0,0,7.206-4.408c.42-.336.781-.667,1.1-.955s.6-.54.811-.751l.51-.474A.944.944,0,0,1,393.769,321.21Z" transform="translate(-339.146 -250.099)" fill="#263238"/><path d="M371.224,337.8a.469.469,0,0,0-.186.066,2.553,2.553,0,0,1-.54.138c-.468.108-1.153.258-2.006.408a33.26,33.26,0,0,1-6.743.558,15.727,15.727,0,0,1-3.705-.51,7.693,7.693,0,0,1-2.756-1.3,4.833,4.833,0,0,1-1.339-1.567,3.511,3.511,0,0,1-.228-.51,1.089,1.089,0,0,1-.06-.186,6.99,6.99,0,0,0,.366.655,5.062,5.062,0,0,0,1.357,1.483,7.848,7.848,0,0,0,2.714,1.237,16.633,16.633,0,0,0,3.657.48,37.106,37.106,0,0,0,6.707-.492c.853-.132,1.543-.252,2.018-.336a5.781,5.781,0,0,1,.745-.12Z" transform="translate(-331.667 -255.564)" fill="#263238"/><path d="M359.4,319.74a13.8,13.8,0,0,1-1.147,1.2,18.736,18.736,0,0,0-2.534,3,8.473,8.473,0,0,0-1.357,3.639,10.6,10.6,0,0,0,0,1.627,1.538,1.538,0,0,1-.108-.432,5.14,5.14,0,0,1-.048-1.2,8.047,8.047,0,0,1,1.321-3.747,16.29,16.29,0,0,1,2.618-3c.378-.348.685-.6.9-.8a1.8,1.8,0,0,1,.354-.288Z" transform="translate(-331.88 -249.512)" fill="#fff"/><path d="M376.822,322.6a7.2,7.2,0,0,1-.342,1.075,7.664,7.664,0,0,1-.288,1.087,1.886,1.886,0,0,1,.072-1.153,1.952,1.952,0,0,1,.558-1.009Z" transform="translate(-340.645 -250.654)" fill="#fff"/><path d="M359.688,343.426a3.248,3.248,0,0,1-1.729-.865,3.206,3.206,0,0,1-1.1-1.591,12.8,12.8,0,0,0,1.243,1.423A11.647,11.647,0,0,0,359.688,343.426Z" transform="translate(-332.945 -257.993)" fill="#fff"/></g><g transform="translate(105.86 36.76)"><path d="M294.909,108.29H257.8c0-18.675-15.288-34.33-33.969-34.33S189.89,89.615,189.89,108.29H152.75c0-39.194,31.886-71.53,71.079-71.53S294.909,69.1,294.909,108.29Z" transform="translate(-152.75 -36.76)" fill="#e0e0e0"/><path d="M257.195,44.46a66.618,66.618,0,0,0-20.975,3.375l9.115,28.331a37.23,37.23,0,0,1,24.71.348l9.482-28.223a66.654,66.654,0,0,0-22.332-3.831Z" transform="translate(-186.098 -39.836)" fill="#f8951d"/><path d="M359.19,131.2A66.557,66.557,0,0,0,347.943,94.11L324.05,111.968a36.942,36.942,0,0,1,5.4,19.216Z" transform="translate(-221.187 -59.672)" fill="#f8951d"/><path d="M159.73,130.9H189.5a36.9,36.9,0,0,1,5.452-19.354L171.3,93.36A66.522,66.522,0,0,0,159.73,130.9Z" transform="translate(-155.539 -59.373)" fill="#f8951d"/><path d="M179,76.069l23.665,18.189a37.314,37.314,0,0,1,19.816-15.847L213.36,50.08A67.206,67.206,0,0,0,179,76.069Z" transform="translate(-163.237 -42.082)" fill="#f8951d"/><path d="M302.032,50.85,292.55,79.073a37.386,37.386,0,0,1,18.915,15.613l23.893-17.858A67.29,67.29,0,0,0,302.032,50.85Z" transform="translate(-208.602 -42.389)" fill="#f8951d"/><g transform="translate(4.191 33.987)" opacity="0.5"><path d="M159.73,130.9H189.5a36.9,36.9,0,0,1,5.452-19.354L171.3,93.36A66.522,66.522,0,0,0,159.73,130.9Z" transform="translate(-159.73 -93.36)" fill="#fff"/></g><g transform="translate(15.763 7.998)" opacity="0.3"><path d="M179,76.069l23.665,18.189a37.314,37.314,0,0,1,19.816-15.847L213.36,50.08A67.206,67.206,0,0,0,179,76.069Z" transform="translate(-179 -50.08)" fill="#fff"/></g><g transform="translate(83.948 8.461)" opacity="0.3"><path d="M302.032,50.85,292.55,79.073a37.386,37.386,0,0,1,18.915,15.613l23.893-17.858A67.29,67.29,0,0,0,302.032,50.85Z" transform="translate(-292.55 -50.85)"/></g><g transform="translate(102.863 34.438)" opacity="0.5"><path d="M359.19,131.2A66.557,66.557,0,0,0,347.943,94.11L324.05,111.968a36.942,36.942,0,0,1,5.4,19.216Z" transform="translate(-324.05 -94.11)"/></g><path d="M282.219,74.21s.5.751,1.441,2.234a67.56,67.56,0,0,1,3.657,6.785c.348.763.727,1.567,1.075,2.438.18.432.366.877.552,1.333l.528,1.417c.378.961.685,2,1.045,3.062.156.54.318,1.087.48,1.651.084.276.162.564.246.847s.144.6.222.877a63.737,63.737,0,0,1,1.477,7.656,69.777,69.777,0,0,1,.6,8.791v.072H263.61v-.09A36.852,36.852,0,0,0,255.4,88.076a37.668,37.668,0,0,0-10.316-8.857,38.646,38.646,0,0,0-6.461-2.948,37.116,37.116,0,0,0-21.948-.649,36.545,36.545,0,0,0-7.164,2.84,36.1,36.1,0,0,0-6.521,4.335A36.936,36.936,0,0,0,189.558,111.3v.114H159.54V111.3a67.154,67.154,0,0,1,24.866-52.038,69.846,69.846,0,0,1,6.329-4.564,67.14,67.14,0,0,1,13.457-6.545,65.452,65.452,0,0,1,13.679-3.285A66.546,66.546,0,0,1,261.8,54.394a62.632,62.632,0,0,1,6.87,4.9,66.962,66.962,0,0,1,5.242,4.744c1.489,1.513,2.756,2.912,3.807,4.161l1.429,1.741c.414.546.793,1.045,1.123,1.489s.6.841.865,1.2l.6.877.486.709s-.174-.234-.5-.7l-.6-.871c-.24-.342-.522-.745-.865-1.2a67.313,67.313,0,0,0-6.377-7.362,68.392,68.392,0,0,0-5.26-4.72,64.768,64.768,0,0,0-6.864-4.882,66.612,66.612,0,0,0-43.835-9.446,65,65,0,0,0-13.661,3.285,66.762,66.762,0,0,0-13.415,6.533,70.635,70.635,0,0,0-6.311,4.552A67.188,67.188,0,0,0,159.762,111.3l-.114-.108H189.42l-.114.108A37.243,37.243,0,0,1,238.66,76.084a38.6,38.6,0,0,1,6.5,2.966,37.831,37.831,0,0,1,10.4,8.905,37.05,37.05,0,0,1,8.233,23.335l-.084-.084h29.76l-.066.066a69.584,69.584,0,0,0-.6-8.773,63.955,63.955,0,0,0-1.459-7.65c-.078-.294-.15-.6-.222-.871s-.162-.6-.24-.853l-.48-1.645c-.354-1.063-.661-2.1-1.033-3.056L288.842,87c-.186-.45-.372-.895-.546-1.327-.348-.877-.727-1.681-1.069-2.444a71.447,71.447,0,0,0-3.6-6.8c-.456-.745-.823-1.3-1.057-1.681S282.219,74.21,282.219,74.21Z" transform="translate(-155.463 -39.773)" fill="#263238"/><path d="M261.872,146.645a5.332,5.332,0,1,1,7.164-2.354A5.332,5.332,0,0,1,261.872,146.645Z" transform="translate(-195.176 -76.629)" fill="#263238"/><path d="M297.46,93.414h0a1.333,1.333,0,0,0-1.916-.048l-32.2,29.754,3.789,4.45,30.306-32.312A1.333,1.333,0,0,0,297.46,93.414Z" transform="translate(-196.932 -59.222)" fill="#263238"/><path d="M261.872,146.645a5.332,5.332,0,1,1,7.164-2.354A5.332,5.332,0,0,1,261.872,146.645Z" transform="translate(-195.176 -76.629)" fill="#263238"/><path d="M297.46,93.414h0a1.333,1.333,0,0,0-1.916-.048l-32.2,29.754,3.789,4.45,30.306-32.312A1.333,1.333,0,0,0,297.46,93.414Z" transform="translate(-196.932 -59.222)" fill="#263238"/><path d="M341,135.766h1.063v2.048a3.489,3.489,0,0,1-2.036.643,2.612,2.612,0,1,1,0-5.218,2.708,2.708,0,0,1,2.114.871l-.751.7a1.7,1.7,0,0,0-1.3-.57,1.615,1.615,0,1,0,0,3.225,1.8,1.8,0,0,0,.907-.216Z" transform="translate(-226.477 -75.303)" fill="#fff"/><path d="M346.517,135.642a2.762,2.762,0,1,1,2.756,2.612,2.606,2.606,0,0,1-2.756-2.612Zm4.336,0a1.579,1.579,0,1,0-1.579,1.615,1.537,1.537,0,0,0,1.579-1.615Z" transform="translate(-230.161 -75.101)" fill="#fff"/><path d="M356.647,135.642a2.762,2.762,0,1,1,2.756,2.612,2.606,2.606,0,0,1-2.756-2.612Zm4.336,0a1.579,1.579,0,1,0-1.579,1.615,1.537,1.537,0,0,0,1.579-1.615Z" transform="translate(-234.208 -75.101)" fill="#fff"/><path d="M367.3,133.39h2.294a2.531,2.531,0,1,1,0,5.038H367.3Zm2.234,4.083a1.567,1.567,0,1,0,0-3.129h-1.063v3.129Z" transform="translate(-238.466 -75.365)" fill="#fff"/><path d="M174.232,129.8c0,1.123-.847,1.8-2.192,1.8h-1.015v1.387H169.86V128h2.18C173.385,128,174.232,128.691,174.232,129.8Zm-1.2,0c0-.552-.36-.877-1.075-.877h-.931v1.747h.949c.715.018,1.075-.306,1.075-.871Z" transform="translate(-159.586 -73.212)" fill="#fff"/><path d="M178.107,130.242a2.762,2.762,0,1,1,2.762,2.612,2.612,2.612,0,0,1-2.762-2.612Zm4.336,0a1.579,1.579,0,1,0-1.573,1.615,1.531,1.531,0,0,0,1.573-1.615Z" transform="translate(-162.879 -72.944)" fill="#fff"/><path d="M188.237,130.242A2.762,2.762,0,1,1,191,132.854a2.612,2.612,0,0,1-2.762-2.612Zm4.336,0A1.579,1.579,0,1,0,191,131.858a1.531,1.531,0,0,0,1.573-1.615Z" transform="translate(-166.926 -72.944)" fill="#fff"/><path d="M202.113,133.032l-.973-1.429h-1.075v1.405H198.9V128h2.18c1.345,0,2.192.7,2.192,1.8a1.639,1.639,0,0,1-1.039,1.591l1.129,1.621Zm-1.1-4.089h-.949V130.7h.949c.715,0,1.075-.336,1.075-.883S201.728,128.943,201.014,128.943Z" transform="translate(-171.188 -73.212)" fill="#fff"/></g><g transform="translate(51.127 53.078)"><path d="M135.673,434.95l-.721,13.133s13.1,5.14,13.211,7.578l-25.5-.48.282-20.5Z" transform="translate(-85.996 -212.053)" fill="#263238"/><path d="M129.5,454.88a1.039,1.039,0,0,0-.739,1.2,1,1,0,0,0,1.159.745,1.1,1.1,0,0,0,.781-1.285,1.039,1.039,0,0,0-1.291-.642" transform="translate(-88.424 -220.111)" fill="#e0e0e0"/><path d="M122.65,467.436l.108-2.066,24.416,1.231s1.123.516.979,1.315Z" transform="translate(-85.992 -224.314)" fill="#455a64"/><path d="M142.258,456.714c0,.126-.6.174-1.249.558s-.955.907-1.069.859.084-.769.847-1.2S142.288,456.6,142.258,456.714Z" transform="translate(-92.887 -220.816)" fill="#fff"/><path d="M147.093,458.675c0,.12-.516.324-.949.841s-.564,1.075-.691,1.069-.186-.715.366-1.351S147.093,458.554,147.093,458.675Z" transform="translate(-95.068 -221.618)" fill="#fff"/><path d="M150.578,462.672c-.114,0-.27-.6.06-1.279s.919-.937.973-.829-.318.462-.6,1.021S150.7,462.66,150.578,462.672Z" transform="translate(-97.094 -222.385)" fill="#fff"/><path d="M141.785,451.457c-.06.114-.6-.072-1.333-.036s-1.255.246-1.315.138.468-.54,1.3-.57S141.845,451.361,141.785,451.457Z" transform="translate(-92.577 -218.568)" fill="#fff"/><path d="M84.87,433l-1.381,15.847,2.522,12.85a1.627,1.627,0,0,1-1.393,1.928h0a1.621,1.621,0,0,1-1.405-.51c-2.27-2.48-10.587-11.637-10.424-12.79.192-1.339.348-16.814.348-16.814Z" transform="translate(-66.07 -211.382)" fill="#263238"/><path d="M84.635,474.412,72.877,460l-.042.673a2.4,2.4,0,0,0,.474,1.627c.931,1.249,3.6,4.642,9.872,11.565a1.627,1.627,0,0,0,1.453.51Z" transform="translate(-66.087 -222.169)" fill="#455a64"/><g transform="translate(8.902 232.768)" opacity="0.6"><path d="M77.9,451.737a.991.991,0,0,1,.186,1.3.943.943,0,0,1-1.291.2,1.039,1.039,0,0,1-.186-1.381.985.985,0,0,1,1.363-.03" transform="translate(-76.427 -451.568)" fill="#fff"/></g><path d="M87.18,470.891a4.99,4.99,0,0,1,1.471-1.141,4.857,4.857,0,0,1,1.849-.234c0-.036-.18-.174-.546-.252a2.534,2.534,0,0,0-1.441.162,2.582,2.582,0,0,0-1.129.907C87.18,470.662,87.138,470.891,87.18,470.891Z" transform="translate(-71.815 -225.854)" fill="#fff"/><path d="M88.835,475a14.168,14.168,0,0,1,1.453-.6,12.48,12.48,0,0,1,1.561-.1,1.8,1.8,0,0,0-1.639-.24C89.255,474.283,88.757,474.949,88.835,475Z" transform="translate(-72.479 -227.744)" fill="#fff"/><path d="M84,466.169a16.969,16.969,0,0,1,2.18-1.063,15.26,15.26,0,0,1,2.4-.4,3.567,3.567,0,0,0-2.492.06,3.633,3.633,0,0,0-2.09,1.4Z" transform="translate(-70.55 -223.972)" fill="#fff"/><path d="M84,458.839c.036.1.937-.21,2.084-.18s2.03.366,2.066.27a2.957,2.957,0,0,0-2.06-.6,3.171,3.171,0,0,0-2.09.51Z" transform="translate(-70.55 -221.494)" fill="#fff"/><path d="M84.479,451.023a8.017,8.017,0,0,1,2.162-.246,8.048,8.048,0,0,1,2.072.667c0-.036-.132-.246-.486-.48a3.537,3.537,0,0,0-3.177-.312C84.659,450.813,84.455,450.987,84.479,451.023Z" transform="translate(-70.741 -218.338)" fill="#fff"/><path d="M86.736,447.4a1.507,1.507,0,0,0,.06-.6,4.294,4.294,0,0,0-.378-1.6,1.8,1.8,0,0,0-.739-.931.655.655,0,0,0-.745.1,1.057,1.057,0,0,0-.294.7,2.306,2.306,0,0,0,1.874,2.258,2.666,2.666,0,0,0,2.708-1.231.907.907,0,0,0,.1-.763.637.637,0,0,0-.649-.384,2.336,2.336,0,0,0-1.081.474,4.8,4.8,0,0,0-1.165,1.165,1.411,1.411,0,0,0-.276.534,7.321,7.321,0,0,1,1.579-1.5,2.132,2.132,0,0,1,.949-.39.342.342,0,0,1,.354.2.642.642,0,0,1-.09.5,2.4,2.4,0,0,1-2.36,1.033,1.994,1.994,0,0,1-1.621-1.892.823.823,0,0,1,.186-.5.366.366,0,0,1,.414-.06,1.669,1.669,0,0,1,.637.781,6.209,6.209,0,0,1,.54,2.1Z" transform="translate(-70.806 -215.855)" fill="#fff"/><path d="M128.067,249.175a56.446,56.446,0,0,1,1.2,16.609c-.27,3.531-12.184,101.188-12.184,101.188H101.033l4.522-91.784-1.315.288s-8.785,39.14-9.5,45.481c-.643,5.7-8.047,47.084-8.047,47.084L72,368.209l4.7-54.74,5.464-52.53,2.06-15.288Z" transform="translate(-65.756 -136.533)" fill="#263238"/><path d="M123.66,270.652a3.148,3.148,0,0,0,.667.378,7.94,7.94,0,0,0,1.994.7,4.366,4.366,0,0,0,1.483,0,3.05,3.05,0,0,0,1.549-.745,3.681,3.681,0,0,0,.937-1.645,19.7,19.7,0,0,0,.432-1.934c.51-2.648.859-5.068,1.063-6.822.1-.883.168-1.591.2-2.084a3.927,3.927,0,0,0,0-.769,3.188,3.188,0,0,0-.156.751c-.084.558-.186,1.249-.312,2.066-.264,1.747-.643,4.149-1.159,6.791-.258,1.309-.432,2.636-1.249,3.417a3.357,3.357,0,0,1-2.78.721,8.909,8.909,0,0,1-1.976-.6A3.4,3.4,0,0,0,123.66,270.652Z" transform="translate(-86.395 -141.359)" fill="#263238"/><path d="M130.45,258.452a.654.654,0,0,0-.33-.1,1.459,1.459,0,0,0-.9.294,1.535,1.535,0,1,0,2.342.877,1.441,1.441,0,0,0-.486-.811c-.18-.138-.306-.156-.312-.144a1.88,1.88,0,0,1,.564,1,1.393,1.393,0,0,1-.306,1.129,1.3,1.3,0,0,1-2.168-.811,1.411,1.411,0,0,1,.516-1.051A1.8,1.8,0,0,1,130.45,258.452Z" transform="translate(-88.345 -141.606)" fill="#263238"/><path d="M89.27,266.04a1.723,1.723,0,0,0,.552.084,9.861,9.861,0,0,0,1.507,0,14.574,14.574,0,0,0,9.007-3.8,10.535,10.535,0,0,0,1.039-1.093c.222-.276.342-.432.324-.45s-.564.552-1.525,1.363a16.213,16.213,0,0,1-8.887,3.741C90.063,266.022,89.276,265.98,89.27,266.04Z" transform="translate(-72.656 -142.577)" fill="#263238"/><path d="M154.38,259a7.548,7.548,0,0,0,.745,1.639,18.076,18.076,0,0,0,2.486,3.459,16.922,16.922,0,0,0,3.147,2.708,6,6,0,0,0,1.483.787,15.825,15.825,0,0,0-1.369-1,21.448,21.448,0,0,1-3.05-2.726,23.07,23.07,0,0,1-2.516-3.351C154.752,259.6,154.422,259,154.38,259Z" transform="translate(-98.668 -141.866)" fill="#263238"/><path d="M231.869,180.571c1.705-.643,3.6-1.291,3.6-1.291l1.675-.667a1.452,1.452,0,0,1,0,.36,1.435,1.435,0,0,0,0,.679,1.087,1.087,0,0,0,1.117.5,2.642,2.642,0,0,0,2.156-1.471,2.606,2.606,0,0,0-.186-2.5,1.97,1.97,0,0,0,0-.745c-.384-1.651-2.69-2.528-2.69-2.528l.552-.312s1.964-.234,3.747,2.534a2.029,2.029,0,0,0,1.165.871,1.015,1.015,0,0,0,.871-.09c.661-.45.51-1.033-.6-2.774s-2.714-3.068-4.1-3.183a13.139,13.139,0,0,0-1.922-.066s4.846-3.135,5.146-3.351c.865-.6,1.315-1.5.961-2.114-.228-.4-.8-.721-1.831-.042-.895.6-10.779,5.452-10.779,5.452l-4.245,2.4-3.183,2.552,4.161,5.657.486.168A5.633,5.633,0,0,0,231.869,180.571Z" transform="translate(-126.215 -103.91)" fill="#ffbf9d"/><path d="M230.1,177.008a1.507,1.507,0,0,0,1.537.841,17.9,17.9,0,0,0,1.855-.324c1.874-.2,3.693,1.081,5.548.787.258-.042.564-.174.6-.432s-.24-.4-.45-.516l-5.548-2.852" transform="translate(-128.92 -108.111)" fill="#ffbf9d"/><path d="M233.624,174.51a2.348,2.348,0,0,1,.6.246c.4.18.961.45,1.657.793l2.438,1.2.7.354c.216.132.552.2.709.6a.516.516,0,0,1-.186.552,1.093,1.093,0,0,1-.468.2,4.287,4.287,0,0,1-.919.048,25.062,25.062,0,0,1-3.273-.745,4.761,4.761,0,0,0-1.405-.108c-.432.042-.841.156-1.231.222a2.192,2.192,0,0,1-1.831-.3c-.366-.3-.378-.6-.36-.6a1.663,1.663,0,0,0,.438.474,2.156,2.156,0,0,0,1.705.162,12.144,12.144,0,0,1,1.249-.264,4.7,4.7,0,0,1,1.5.078,29.69,29.69,0,0,0,3.231.709,3.782,3.782,0,0,0,.829-.036c.258-.048.45-.186.39-.318a1.229,1.229,0,0,0-.528-.4l-.7-.366-2.4-1.279c-.685-.372-1.231-.673-1.609-.895A2.443,2.443,0,0,1,233.624,174.51Z" transform="translate(-128.9 -108.111)" fill="#ff9a6c"/><path d="M246.91,178.47a2.69,2.69,0,0,1,1.141-.294,1.952,1.952,0,0,1,1.165.432,5.272,5.272,0,0,1,1.057,1.165,7.585,7.585,0,0,0,1.021,1.273,2.564,2.564,0,0,0,1.2.673,1.015,1.015,0,0,0,.889-.2c.168-.144.21-.258.2-.264s-.09.078-.258.192a.955.955,0,0,1-.8.114,2.522,2.522,0,0,1-1.069-.667,8.792,8.792,0,0,1-.985-1.249,4.8,4.8,0,0,0-1.117-1.2,2.108,2.108,0,0,0-1.291-.426,1.868,1.868,0,0,0-.883.246A.762.762,0,0,0,246.91,178.47Z" transform="translate(-135.635 -109.513)" fill="#ff9a6c"/><path d="M251.355,167.83a6.563,6.563,0,0,0-.967.6l-2.294,1.543-2.312,1.561a5.737,5.737,0,0,0-.943.649,5.3,5.3,0,0,0,1.027-.516c.6-.348,1.453-.859,2.36-1.453s1.693-1.171,2.258-1.6a5.2,5.2,0,0,0,.871-.781Z" transform="translate(-134.808 -105.442)" fill="#ff9a6c"/><path d="M245.769,181.76s.1.084.294.21a1.039,1.039,0,0,1,.528.709.564.564,0,0,1-.234.51,2.792,2.792,0,0,1-.655.366,1.3,1.3,0,0,0-.679.6,1.093,1.093,0,0,0,.108.979,1.261,1.261,0,0,0,.829.534,1.591,1.591,0,0,0,.907-.09,5.176,5.176,0,0,0,1.2-.829,2.931,2.931,0,0,0,.6-.769.685.685,0,0,0,.1-.348s-.06.12-.18.306a3.716,3.716,0,0,1-.661.691,5.458,5.458,0,0,1-1.2.757,1.237,1.237,0,0,1-1.459-.372.859.859,0,0,1-.1-.775,1.1,1.1,0,0,1,.564-.51,2.792,2.792,0,0,0,.685-.408.733.733,0,0,0,.27-.673,1.1,1.1,0,0,0-.643-.769A.912.912,0,0,0,245.769,181.76Z" transform="translate(-134.854 -111.008)" fill="#ff9a6c"/><path d="M246.5,186.609a.523.523,0,0,0-.258.2,1,1,0,0,0-.12.883,1.333,1.333,0,0,0,1.027.829,2.2,2.2,0,0,0,1.585-.366,2.594,2.594,0,0,0,1.009-1.255,2.474,2.474,0,0,0,.12-1.309,2.216,2.216,0,0,0-.312-.823c-.108-.18-.192-.258-.2-.252a3.874,3.874,0,0,1,.354,1.1,2.4,2.4,0,0,1-.156,1.2,2.48,2.48,0,0,1-.937,1.147,2.06,2.06,0,0,1-1.417.348,1.2,1.2,0,0,1-.919-.685.943.943,0,0,1,.048-.775A1.962,1.962,0,0,1,246.5,186.609Z" transform="translate(-135.3 -112.11)" fill="#ff9a6c"/><path d="M236.523,183.539a1.277,1.277,0,0,0-.312-.45,2.144,2.144,0,0,0-1.279-.6l.06.192a6.685,6.685,0,0,0,.6-.534,4.852,4.852,0,0,0,1.345-2.306,12.142,12.142,0,0,1-1.513,2.15c-.186.192-.372.366-.546.522l-.2.168h.258a2.222,2.222,0,0,1,1.2.48C236.379,183.419,236.5,183.581,236.523,183.539Z" transform="translate(-130.749 -110.241)" fill="#ff9a6c"/><path d="M251.377,177.2a1.026,1.026,0,0,0-.174.919c.1.54.444.853.486.8s-.18-.372-.264-.841S251.437,177.218,251.377,177.2Z" transform="translate(-137.34 -109.186)" fill="#ff9a6c"/><path d="M105.167,69.751c.282-2.438,1.874-3.861,4.053-4.99a7.668,7.668,0,0,1,7.074.078c1.441.793,2.666,2.072,4.281,2.4,2.66.5,5.338-1.843,7.926-1.075a3.489,3.489,0,0,1-.649,6.815c1.741.348,2.606,2.624,1.868,4.239a4.644,4.644,0,0,1-4.414,2.4,9.77,9.77,0,0,1-4.918-1.861c-1.483-.973-2.852-2.126-4.408-3a7.59,7.59,0,0,0-5.1-1.051,6.98,6.98,0,0,0-4.858,4.87,18.093,18.093,0,0,0-.39,7.146,30.461,30.461,0,0,1,.186,7.206.877.877,0,0,1-.378.715c-.366.18-.757-.18-1-.5A35.11,35.11,0,0,1,98.5,80.769c-.667-2.588-.973-5.086.138-7.518s4.522-4.612,6.521-3.483" transform="translate(-76.105 -63.935)" fill="#263238"/><path d="M105.02,83.666l2.546,24.4c.474,4.558,4.69,12.4,11.86,11.319l-.18-.39c6.155-1.405,4.6-8.707,4.119-14.117h0s6.755-1.357,6.539-8.161c-.1-3.285-.865-10.04-1.621-16.147a12.682,12.682,0,0,0-13.127-11.091l-.655.03C107.428,70.233,104.1,76.628,105.02,83.666Z" transform="translate(-78.889 -66.146)" fill="#ffbf9d"/><path d="M129.7,126.954a16.447,16.447,0,0,1-8.971-2.234s2.4,5.182,9.127,4.269Z" transform="translate(-85.225 -88.219)" fill="#ff9a6c"/><path d="M138.113,98.44a.967.967,0,0,1-.895,1.015.925.925,0,0,1-1.039-.829.973.973,0,0,1,.889-1.021.931.931,0,0,1,1.045.835Z" transform="translate(-91.396 -77.383)" fill="#263238"/><path d="M139.1,93c-.12.132-.877-.384-1.922-.336s-1.8.6-1.91.486.054-.288.378-.546a2.69,2.69,0,0,1,1.519-.546,2.546,2.546,0,0,1,1.537.426C139.033,92.713,139.153,92.941,139.1,93Z" transform="translate(-91.019 -75.169)" fill="#263238"/><path d="M122.713,99.091a.979.979,0,0,1-.895,1.021.925.925,0,0,1-1.039-.835.973.973,0,0,1,.889-1.021.943.943,0,0,1,1.045.835Z" transform="translate(-85.244 -77.644)" fill="#263238"/><path d="M122,94.071c-.114.132-.871-.384-1.916-.336s-1.8.6-1.91.48.054-.282.378-.54a2.69,2.69,0,0,1,1.519-.546,2.558,2.558,0,0,1,1.537.426C121.943,93.783,122.063,94.011,122,94.071Z" transform="translate(-84.192 -75.597)" fill="#263238"/><path d="M130.872,101.549a6.743,6.743,0,0,1,1.687-.384c.264-.036.51-.1.552-.282a1.369,1.369,0,0,0-.216-.787c-.276-.637-.57-1.3-.877-1.994a38.244,38.244,0,0,1-2.006-5.242,33.886,33.886,0,0,1,2.4,5.068c.3.7.6,1.369.847,2.012a1.525,1.525,0,0,1,.186,1.039.673.673,0,0,1-.42.408,1.723,1.723,0,0,1-.45.084,6.869,6.869,0,0,1-1.705.078Z" transform="translate(-88.93 -75.49)" fill="#263238"/><path d="M121.549,87.391c-.1.288-1.141.2-2.36.4s-2.2.6-2.4.336c-.078-.12.084-.4.468-.691A4.041,4.041,0,0,1,119,86.743a3.939,3.939,0,0,1,1.861.132C121.351,87.037,121.585,87.253,121.549,87.391Z" transform="translate(-83.642 -73.025)" fill="#263238"/><path d="M138.414,87.952c-.174.246-.907,0-1.771.054s-1.591.228-1.8,0c-.078-.114,0-.36.336-.6a2.456,2.456,0,0,1,1.423-.456,2.4,2.4,0,0,1,1.429.42C138.378,87.58,138.486,87.832,138.414,87.952Z" transform="translate(-90.851 -73.129)" fill="#263238"/><path d="M103.481,101.345c-.12-.042-4.738-1.2-4.384,3.465s4.936,3.333,4.936,3.2S103.481,101.345,103.481,101.345Z" transform="translate(-76.574 -78.818)" fill="#ffbf9d"/><path d="M103.278,107.382a1.756,1.756,0,0,1-.21.132.8.8,0,0,1-.6.06,2,2,0,0,1-1.063-1.723,2.6,2.6,0,0,1,.138-1.2.937.937,0,0,1,.558-.667.414.414,0,0,1,.5.186c.072.126.048.222.072.228s.1-.09.042-.276a.5.5,0,0,0-.2-.276.6.6,0,0,0-.456-.084,1.135,1.135,0,0,0-.793.781,2.774,2.774,0,0,0-.18,1.315c.1.937.643,1.8,1.333,1.916a.847.847,0,0,0,.727-.18C103.278,107.5,103.3,107.388,103.278,107.382Z" transform="translate(-77.368 -79.84)" fill="#ff9a6c"/><path d="M127.573,73.47a8.893,8.893,0,0,0-3-3.165,15.156,15.156,0,0,0-8.923-2.756,12.31,12.31,0,0,0-8.509,3.645,13,13,0,0,0-3.3,6.725,19.216,19.216,0,0,0,.282,7.542,5.789,5.789,0,0,0,1.393,3,1.486,1.486,0,0,0,1.874.33,1.874,1.874,0,0,0,.492-1.1c.739-3.6,1.453-7.518,0-10.917a10.682,10.682,0,0,1,3.074-3.086,5.536,5.536,0,0,1,4.2-.763c2.1.552,3.465,2.51,5.182,3.843a9.848,9.848,0,0,0,8.809,1.585Z" transform="translate(-78.377 -65.378)" fill="#263238"/><path d="M130.567,111.575a4.509,4.509,0,0,1-.42,1.249,1.567,1.567,0,0,1-1,.8,1.417,1.417,0,0,1-1.267-.462,2.234,2.234,0,0,1-.528-1.285c-.042-.42.072-.949.48-1.063a1.057,1.057,0,0,1,.528.036l2.324.558" transform="translate(-87.868 -82.658)" fill="#ff9a6c"/><path d="M129.754,113.373a3.116,3.116,0,0,1-1.2.036,1.7,1.7,0,0,1-1-.673,1.8,1.8,0,0,1-.246-1.429,1.417,1.417,0,0,1,.144-.354c.072-.108.054-.1.15-.1a2.877,2.877,0,0,1,.372.084l.384.1c.5.12.949.222,1.327.3a3.921,3.921,0,0,0,1.249.18,4.005,4.005,0,0,0-1.2-.45c-.372-.114-.817-.246-1.309-.384l-.378-.108a3.529,3.529,0,0,1-.426-.1.51.51,0,0,0-.324.06.534.534,0,0,0-.21.228,1.975,1.975,0,0,0-.186.45,2.072,2.072,0,0,0,.33,1.741,1.9,1.9,0,0,0,1.249.733,1.8,1.8,0,0,0,.955-.1C129.676,113.487,129.766,113.4,129.754,113.373Z" transform="translate(-87.661 -82.523)" fill="#263238"/><path d="M135.012,69.32a1.308,1.308,0,0,1,.072.306,3.2,3.2,0,0,1,0,.913,4.2,4.2,0,0,1-1.8,2.732,6.293,6.293,0,0,1-4.8.709,24.5,24.5,0,0,1-5.585-2.282,10.636,10.636,0,0,0-5.7-1.345,7.284,7.284,0,0,0-4.239,2.12,9.542,9.542,0,0,0-1.988,2.66c-.336.7-.462,1.117-.492,1.1a1.009,1.009,0,0,1,.072-.306,8.277,8.277,0,0,1,.312-.853,9.386,9.386,0,0,1,1.868-2.75,7.428,7.428,0,0,1,4.36-2.24,10.753,10.753,0,0,1,5.861,1.351,25.207,25.207,0,0,0,5.518,2.282,6.143,6.143,0,0,0,4.648-.6,4.2,4.2,0,0,0,1.837-2.582,4.738,4.738,0,0,0,.066-1.219Z" transform="translate(-81.126 -66.086)" fill="#455a64"/><path d="M99.62,86.011a3.423,3.423,0,0,1,.252-1.261,7.968,7.968,0,0,1,1.555-2.7,8.113,8.113,0,0,1,1.273-1.165,2.918,2.918,0,0,1,1.3-.6,1.519,1.519,0,0,1,.961.168c.2.114.27.228.258.24a1.8,1.8,0,0,0-1.2-.2,5.549,5.549,0,0,0-2.4,1.747,9.205,9.205,0,0,0-1.579,2.57A8.648,8.648,0,0,1,99.62,86.011Z" transform="translate(-76.791 -70.461)" fill="#455a64"/><path d="M101.28,92.487a3.531,3.531,0,0,1,.336-1.255A8.551,8.551,0,0,1,103.3,88.6a8.665,8.665,0,0,1,2.528-1.861,3.6,3.6,0,0,1,1.2-.414,12.7,12.7,0,0,1-1.135.6,9.86,9.86,0,0,0-4.119,4.4A11.459,11.459,0,0,1,101.28,92.487Z" transform="translate(-77.454 -72.878)" fill="#455a64"/><path d="M105.751,130l8.149,6.383,5.158,6.551,1.892-6.791,1.351-5.326,2.216,2.2,5.627,12.01,6.329,57.9s-11.037,3.231-16.754,3.6-14.826-1.171-14.826-1.171V174.892l-3.243-30.168,3.909-11.559Z" transform="translate(-77.602 -90.329)" fill="#f5f5f5"/><path d="M133.755,214.985v-.637c0-.438-.042-1.051-.066-1.837-.06-1.609-.132-3.909-.228-6.749-.2-5.693-.51-13.565-.961-22.218s-.955-16.549-1.345-22.218c-.2-2.834-.354-5.128-.468-6.737-.054-.781-.1-1.393-.12-1.831a2.134,2.134,0,0,0-.03-.474.552.552,0,0,1,0-.162.685.685,0,0,1,0,.162,1.875,1.875,0,0,0,.048.474c.042.432.1,1.045.168,1.8.144,1.591.33,3.891.546,6.731.438,5.687.961,13.547,1.411,22.218s.739,16.555.895,22.254c.078,2.852.126,5.158.15,6.755v2.312a.834.834,0,0,1,0,.156Z" transform="translate(-89.14 -99.166)" fill="#263238"/><path d="M94.844,133.642l-1.892,2.6L77.52,144.366l8.593,26.193,2.312,14.724-8.677,34.888s10.526,3.6,11.451,2.462a49.008,49.008,0,0,0,2.648-5.741,61.85,61.85,0,0,0,4.42-17.144c.643-5.939,1.231-13.517.8-18.645-.8-9.608-2.078-25.449-2.2-29.616s-.853-19.888-.853-19.888Z" transform="translate(-67.962 -90.968)" fill="#f8951d"/><path d="M137.85,132.46l5.11,3,16.537,5.4L158.17,152.6l-.757,30.264,5.206,36.323s-5.554,1.97-7.752,1.159-5.206-5.783-5.32-8.791-4.4-32.192-4.4-32.192l-4.167-39.218Z" transform="translate(-92.064 -91.312)" fill="#f8951d"/><path d="M146.88,137.4a2.444,2.444,0,0,1,.21.234l.6.7,2.126,2.654.042.06-.06.042-1.8,1.369v-.15l2.108.667h.066v.066c-.036,3.765-.09,8.5-.144,13.637-.09,6.269-.174,11.938-.234,16.069-.042,2.042-.072,3.7-.1,4.864,0,.564-.03,1-.042,1.327v-6.2c.042-4.125.1-9.8.162-16.069.078-5.134.144-9.866.2-13.631l.066.09-2.108-.685-.156-.054.132-.1,1.8-1.345v.1l-2.15-2.7-.54-.727a2.818,2.818,0,0,1-.18-.234Z" transform="translate(-95.672 -93.285)" fill="#263238"/><path d="M107.682,177.24a.554.554,0,0,1-.042-.108l-.108-.342-.426-1.3c-.366-1.123-.913-2.744-1.621-4.744q-.528-1.5-1.165-3.255c-.432-1.165-.829-2.45-1.2-3.807a83.947,83.947,0,0,1-1.657-8.959c-.6-4.173-.943-8.1-1.2-11.487v-.078l1.8-1.753v.144l-1.723-1.315-.072-.048.054-.072,3.111-4.2c.366-.48.649-.865.859-1.141l.228-.288c.048-.066.078-.1.084-.1a1.153,1.153,0,0,1-.066.108l-.21.306-.709,1.153-3.05,4.263v-.12l1.735,1.3.084.066-.078.078-1.8,1.765.036-.078c.24,3.375.6,7.3,1.2,11.463a88.381,88.381,0,0,0,1.633,8.947c.348,1.351.733,2.618,1.159,3.789l1.141,3.267c.685,2.006,1.2,3.639,1.549,4.8.174.564.3,1.009.378,1.309l.09.342C107.682,177.2,107.688,177.24,107.682,177.24Z" transform="translate(-77.047 -92.082)" fill="#263238"/><g transform="translate(17.383 100.981)" opacity="0.3"><path d="M90.55,237.889l8.977,3.519.6-2,3.05,2.792.546-4.852-2.816-5.248-9.7,3.147Z" transform="translate(-90.55 -232.1)"/></g><path d="M126.356,234.033l-3.645-2.21-3.171-2.9a8.185,8.185,0,0,0,2.486,1.357,2.06,2.06,0,0,0,2.318-.883s-1.309-.823-1.759-1.075-5-3.639-6.149-3.891-8.743-1.8-8.743-1.8l-.12.39-3.753,8,3.333.895a21.809,21.809,0,0,1,1.705,2.8c.745,1.5,4.39,3,5.789,3.717s3-.552,3-.552a1.709,1.709,0,0,0,2.012-1.363,2.478,2.478,0,0,0,2.006-2.264,43.745,43.745,0,0,0,4.4,1.483.636.636,0,0,0,.769-.4A1.075,1.075,0,0,0,126.356,234.033Z" transform="translate(-78.469 -127.336)" fill="#ffbf9d"/><path d="M130.837,240.46a9.085,9.085,0,0,1-2.12-.955,6.869,6.869,0,0,1-1.9-1.357c.042-.054.889.54,2.012,1.153a14.352,14.352,0,0,1,2.006,1.159Z" transform="translate(-87.658 -133.534)" fill="#ff9a6c"/><path d="M123.68,241.51a9.361,9.361,0,0,1,2.1,1.237,19.969,19.969,0,0,1,1.97,1.423,9.212,9.212,0,0,1-2.108-1.2,18.893,18.893,0,0,1-1.958-1.459Z" transform="translate(-86.403 -134.879)" fill="#ff9a6c"/><path d="M121.27,244.079c.042-.042.745.54,1.687,1.2a9.1,9.1,0,0,1,1.645,1.243,8.748,8.748,0,0,1-1.8-1.051A5.4,5.4,0,0,1,121.27,244.079Z" transform="translate(-85.44 -135.904)" fill="#ff9a6c"/><path d="M122.83,227.8a1.969,1.969,0,0,1,.811.174,6.1,6.1,0,0,1,1.747.979,7.915,7.915,0,0,1,1.405,1.423,2.359,2.359,0,0,1,.444.7c-.066.054-.793-.985-1.994-1.934A10.978,10.978,0,0,0,122.83,227.8Z" transform="translate(-86.064 -129.401)" fill="#ff9a6c"/><path d="M63.216,196.8a3.423,3.423,0,0,1-1.609-2.78,31.4,31.4,0,0,1,.276-4.738c.643-5.344,9.386-36.365,9.386-36.365l8.8,24.176-3,10.527,15.4,7.38L88.178,207.09S67.7,199.59,63.216,196.8Z" transform="translate(-61.602 -99.486)" fill="#f8951d"/><path d="M171.027,146.48l14.123,26.854.378.552,15.4-7.878,5.074,10.262-20.729,12.61a5.17,5.17,0,0,1-6.942-1.567l-9.157-13.679L166.71,162.4Z" transform="translate(-103.594 -96.913)" fill="#f8951d"/><path d="M170.76,159.24a1.8,1.8,0,0,1,0,.336c0,.246,0,.564.036.967,0,.871.036,2.084.066,3.6.036,3,.054,7.206,0,11.782s-.138,8.767-.234,11.782c-.06,1.489-.1,2.7-.138,3.567,0,.4-.036.727-.048.973a1.231,1.231,0,0,1-.036.336,2.053,2.053,0,0,1,0-.336v-.973c0-.871.036-2.084.06-3.573.054-3,.12-7.206.168-11.775s.054-8.767.06-11.782v-4.54A1.321,1.321,0,0,1,170.76,159.24Z" transform="translate(-105.068 -102.011)" fill="#263238"/><path d="M83.38,164.09a1.393,1.393,0,0,1,.1.27l.234.793.829,2.912c.685,2.462,1.627,5.867,2.588,9.656s1.711,7.236,2.192,9.752c.234,1.255.414,2.276.522,3,.054.33.09.6.126.817a1.429,1.429,0,0,1,0,.282,1.472,1.472,0,0,1-.072-.276c-.042-.21-.1-.474-.168-.8-.144-.733-.348-1.741-.6-2.972-.516-2.5-1.3-5.945-2.258-9.728s-1.874-7.206-2.516-9.668c-.312-1.2-.6-2.21-.751-2.93-.084-.33-.144-.6-.192-.8a1.586,1.586,0,0,1-.03-.3Z" transform="translate(-70.303 -103.948)" fill="#263238"/><path d="M72.78,222.06l.1.03.288.1,1.111.414,4.137,1.585,14.243,5.554-.15.066,2.87-8.113,1.411-3.981.06.144-15.21-7.344h0a9.007,9.007,0,0,0-3.6-.408,8.8,8.8,0,0,0-2.66.673,11.658,11.658,0,0,0-1.543.811l-.378.252c-.09.054-.132.084-.138.078l.12-.1.366-.27a10.105,10.105,0,0,1,1.537-.859,8.8,8.8,0,0,1,2.678-.721,9.007,9.007,0,0,1,3.657.378h0l15.258,7.3.1.048-.036.1-1.411,3.981c-1,2.84-1.976,5.578-2.876,8.113l-.042.108-.108-.042L78.34,224.33l-4.113-1.651-1.093-.45-.282-.12Z" transform="translate(-66.068 -122.263)" fill="#263238"/><path d="M197.476,191.66a3.6,3.6,0,0,1,.036,1.057,16.721,16.721,0,0,1-.354,2.522c-.2.973-.414,1.843-.552,2.474a4.983,4.983,0,0,1-.258,1.021,4.125,4.125,0,0,1,.09-1.051c.1-.643.282-1.525.486-2.492s.348-1.85.42-2.492A6.516,6.516,0,0,1,197.476,191.66Z" transform="translate(-115.433 -114.963)" fill="#263238"/><path d="M197.1,192.74a11.616,11.616,0,0,1-.739,2.438,18.785,18.785,0,0,1-.967,2.354,10.808,10.808,0,0,1,.745-2.438,17.768,17.768,0,0,1,.961-2.354Z" transform="translate(-115.052 -115.394)" fill="#263238"/><path d="M121.523,145.874a4.26,4.26,0,0,1-.432-.4l-1.147-1.135-3.873-3.963h.168a4.744,4.744,0,0,0-1,2.126,4.7,4.7,0,0,0-.1,1.249v.264l-.2-.168c-1.964-1.585-3.549-3.147-4.738-4.2-.6-.534-1.063-.961-1.4-1.255a5.116,5.116,0,0,1-.5-.462,3.4,3.4,0,0,1,.558.4c.354.27.847.679,1.453,1.2,1.2,1.039,2.828,2.576,4.8,4.143l-.192.1a4.8,4.8,0,0,1,.1-1.3,4.954,4.954,0,0,1,1.057-2.234l.084-.1.084.09,3.819,4.017,1.1,1.2A2.779,2.779,0,0,1,121.523,145.874Z" transform="translate(-80.259 -93.497)" fill="#263238"/><path d="M135.748,136.74a1.483,1.483,0,0,1,0,.366,8.568,8.568,0,0,1-.048,1.015,21.457,21.457,0,0,1-.6,3.495l-.072.288-.132-.264a8.509,8.509,0,0,0-1.5-2.072c-.174-.174-.348-.342-.522-.492l.192-.06a32.737,32.737,0,0,1-1.4,4.624c-.222.6-.42,1.027-.564,1.333a2.594,2.594,0,0,1-.24.462,2.024,2.024,0,0,1,.162-.5l.492-1.351a40.169,40.169,0,0,0,1.315-4.624l.048-.192.144.132a6.893,6.893,0,0,1,.54.5,8.6,8.6,0,0,1,1.531,2.138h-.21a25.03,25.03,0,0,0,.655-3.453A8.462,8.462,0,0,1,135.748,136.74Z" transform="translate(-89.272 -93.022)" fill="#263238"/><path d="M162.36,237.768l1.375,4.287,7.806-.727-2.432-4.089Z" transform="translate(-101.856 -133.173)" fill="#f8951d"/><path d="M162.36,237.7a2.941,2.941,0,0,1,.462-.06l1.369-.138c1.2-.108,2.882-.27,4.912-.438h.066l.03.054,2.444,4.089.1.162h-.192l-.4.036-7.4.661h-.078v-.072c-.42-1.339-.745-2.4-.967-3.171l-.252-.853a2.4,2.4,0,0,1-.072-.288s.048.114.12.312.18.51.3.865l1.045,3.08-.1-.066,7.4-.691.4-.036-.1.18-2.4-4.1.1.048c-1.97.15-3.645.252-4.84.324l-1.4.084C162.552,237.7,162.366,237.7,162.36,237.7Z" transform="translate(-101.856 -133.101)" fill="#263238"/><rect width="8.389" height="2.708" transform="translate(55.646 70.608)" fill="#f8951d"/><path d="M162.6,184.126a.973.973,0,0,1,0-.2v-.54c0-.492,0-1.153-.042-1.97l.078.078c-2,0-5.02.042-8.407.042l.12-.12h0v2.7l-.114-.114c2.4,0,4.468,0,5.963.048l1.765.036a6.318,6.318,0,0,1,.661.03s-.2,0-.6.03h-1.741c-1.489,0-3.6.048-6.041.054h-.114V181.43h0l.12-.12c3.369,0,6.389,0,8.407.042h.078v.078c0,.835-.036,1.507-.042,2.018S162.609,184.156,162.6,184.126Z" transform="translate(-98.568 -110.828)" fill="#263238"/><g transform="translate(53.916 49.783)" opacity="0.3"><path d="M151.828,146.84l1.291,1.8s-.36,26.926-1.729,33.627Z" transform="translate(-151.39 -146.84)"/></g></g></g></svg>