<svg xmlns="http://www.w3.org/2000/svg" width="250" height="228.559" viewBox="0 0 250 228.559"><g transform="translate(-15.28 -49.78)"><g transform="translate(15.28 56.331)"><path d="M330.659,235.539A33.243,33.243,0,0,1,338.79,232l1.672-8.043,13.594-.24,1.956,7.983a33.237,33.237,0,0,1,8.251,3.246l6.879-4.519,9.781,9.447-4.256,7.021a33.329,33.329,0,0,1,3.519,8.119l8.043,1.672.24,13.594-7.983,1.956a33.33,33.33,0,0,1-3.24,8.245l4.5,6.874L372.3,297.14l-7.021-4.262a33.15,33.15,0,0,1-8.13,3.535l-1.672,8.043-13.594.24-1.956-7.983a33.117,33.117,0,0,1-8.245-3.246l-6.874,4.508-9.781-9.447,4.262-7.021a33.15,33.15,0,0,1-3.535-8.13L307.71,271.7l-.24-13.594,7.983-1.956a33.118,33.118,0,0,1,3.235-8.24l-4.5-6.874,9.442-9.781,7.021,4.262Zm7.245,18.108a14.578,14.578,0,1,0,10.237-4.459A14.583,14.583,0,0,0,337.9,253.646Z" transform="translate(-147.817 -135.23)" fill="#e0e0e0"/><path d="M401.9,376.443a13.7,13.7,0,0,1,3.344-1.453l.688-3.311,5.6-.1.8,3.278a13.758,13.758,0,0,1,3.393,1.339l2.825-1.852,4.027,3.885-1.754,2.869a13.661,13.661,0,0,1,1.453,3.349l3.311.688.1,5.59-3.278.809a13.7,13.7,0,0,1-1.333,3.388l1.852,2.83-3.885,4.021-2.89-1.748a13.917,13.917,0,0,1-3.344,1.453l-.688,3.306-5.6.1-.8-3.278a13.449,13.449,0,0,1-3.393-1.333l-2.83,1.852-4.022-3.885,1.754-2.89a13.521,13.521,0,0,1-1.459-3.322l-3.311-.688-.1-5.59,3.278-.809a13.82,13.82,0,0,1,1.333-3.393l-1.852-2.825L399,374.694l2.89,1.754Zm2.983,7.453a6.01,6.01,0,1,0,8.48-.153,6.01,6.01,0,0,0-8.48.153Z" transform="translate(-186.323 -202.3)" fill="#e0e0e0"/><path d="M26.951,254.655a16.828,16.828,0,0,1,4.093-1.776l.841-4.049,6.846-.12.984,4.016a16.84,16.84,0,0,1,4.153,1.639l3.459-2.268,4.918,4.754-2.147,3.53a16.829,16.829,0,0,1,1.776,4.093l4.049.841.12,6.841-4.016.989a16.719,16.719,0,0,1-1.639,4.147l2.268,3.459L47.9,285.669l-3.535-2.142a16.852,16.852,0,0,1-4.093,1.781l-.841,4.049-6.819.126-.994-4.005a16.627,16.627,0,0,1-4.153-1.639l-3.459,2.268-4.918-4.754,2.142-3.524a16.55,16.55,0,0,1-1.781-4.093l-4.049-.841-.12-6.841,4.016-.984a16.972,16.972,0,0,1,1.639-4.153l-2.268-3.459,4.754-4.918,3.535,2.142Zm3.65,9.114a7.344,7.344,0,1,0,10.382-.18A7.344,7.344,0,0,0,30.6,263.769Z" transform="translate(-15.28 -146.566)" fill="#e0e0e0"/><path d="M429.684,183.816a11.567,11.567,0,0,1,2.8-1.218l.579-2.776,4.688-.082.678,2.732a11.736,11.736,0,0,1,2.847,1.12l2.366-1.552,3.377,3.278-1.47,2.426a11.361,11.361,0,0,1,1.218,2.8l2.776.579.082,4.688-2.732.678a11.272,11.272,0,0,1-1.093,2.841l1.557,2.371-3.278,3.377-2.426-1.47a11.568,11.568,0,0,1-2.8,1.218l-.6,2.776-4.688.082-.678-2.732a11.519,11.519,0,0,1-2.847-1.093l-2.371,1.557-3.371-3.278,1.47-2.421a11.4,11.4,0,0,1-1.218-2.809l-2.776-.574-.082-4.694,2.732-.672a11.474,11.474,0,0,1,1.093-2.847l-1.552-2.371,3.278-3.371,2.426,1.464Zm2.5,6.251a5.032,5.032,0,1,0,7.1-.126A5.032,5.032,0,0,0,432.186,190.067Z" transform="translate(-199.627 -115.281)" fill="#e0e0e0"/><path d="M132.076,72.146a29.506,29.506,0,0,1,7.141-3.1l1.47-7.065,11.939-.208,1.721,7.01a29.3,29.3,0,0,1,7.234,2.847l6.01-3.956,8.589,8.294-3.71,6.147a29.363,29.363,0,0,1,3.1,7.141l7.065,1.47.208,11.944-7.01,1.716a29.3,29.3,0,0,1-2.847,7.245l3.95,6.01-8.289,8.595-6.169-3.688a29.364,29.364,0,0,1-7.141,3.1l-1.47,7.065-11.961.213-1.716-7.01a29.091,29.091,0,0,1-7.245-2.847l-6.01,3.956-8.595-8.305,3.737-6.169a29.271,29.271,0,0,1-3.12-7.147l-7.065-1.47L111.69,92l7.01-1.721a29.09,29.09,0,0,1,2.847-7.245l-3.956-6.01,8.311-8.611Zm6.366,15.906a479.571,479.571,0,1,0-.005,0Z" transform="translate(-59.012 -61.77)" fill="#e0e0e0"/></g><g transform="translate(26 278.028)"><path d="M267.251,467.652h2.71v.06c-11.376.066-59.077.109-116.17.109l-84.069-.044-25.479-.066-6.928-.027h0l6.928-.087,25.479-.044,84.069-.044c57.093,0,104.794.049,116.17.115v.06h-2.033Z" transform="translate(-34.9 -467.51)" fill="#263238"/></g><g transform="translate(21.732 66.766)"><circle cx="27.702" cy="27.702" r="27.702" transform="matrix(0.163, -0.987, 0.987, 0.163, 0, 54.664)" fill="#fff"/><path d="M89.862,116a2.661,2.661,0,0,1-.055-.448c0-.322-.049-.76-.093-1.317,0-.29-.038-.612-.06-.967s-.115-.738-.18-1.153a20.215,20.215,0,0,0-.585-2.852,26.452,26.452,0,0,0-3.076-7.333,27.489,27.489,0,0,0-33-11.7,28.413,28.413,0,0,0-3.579,1.579A27.267,27.267,0,0,0,45.866,94a30.145,30.145,0,0,0-3.109,2.645,30.725,30.725,0,0,0-2.688,3.18,26.566,26.566,0,0,0-3.923,7.557,27.172,27.172,0,0,0,0,17.31,26.724,26.724,0,0,0,3.918,7.562,25.191,25.191,0,0,0,5.8,5.83,28.6,28.6,0,0,0,3.366,2.186,28.363,28.363,0,0,0,3.579,1.574,27.461,27.461,0,0,0,33-11.715,26.489,26.489,0,0,0,3.076-7.327,20.461,20.461,0,0,0,.585-2.858c.066-.415.142-.8.18-1.153s.044-.678.06-.967c.044-.546.071-.994.093-1.311a2.54,2.54,0,0,1,.055-.448,3.43,3.43,0,0,1,0,.448c0,.322,0,.76-.044,1.317,0,.3,0,.617-.033.973s-.1.749-.153,1.169a20.216,20.216,0,0,1-.546,2.88,26.282,26.282,0,0,1-3.022,7.437,27.839,27.839,0,0,1-33.423,11.972,28.961,28.961,0,0,1-3.65-1.6,30.126,30.126,0,0,1-3.431-2.186,31.358,31.358,0,0,1-3.175-2.694,31.391,31.391,0,0,1-2.732-3.24,27.189,27.189,0,0,1-4.005-7.7,27.73,27.73,0,0,1,0-17.654,26.992,26.992,0,0,1,4.011-7.7,30.681,30.681,0,0,1,2.732-3.24,30.6,30.6,0,0,1,3.18-2.7A28.686,28.686,0,0,1,49,91.353a28.212,28.212,0,0,1,3.65-1.6A27.826,27.826,0,0,1,86.075,101.8a26.282,26.282,0,0,1,3.022,7.437,20.266,20.266,0,0,1,.546,2.885c.055.421.12.8.153,1.164s0,.678.033.973c0,.546.033.994.044,1.317a3.558,3.558,0,0,1-.011.426Z" transform="translate(-30.314 -84.149)" fill="#263238"/><path d="M138.418,177.454a3.869,3.869,0,1,1-1.131-2.739A3.874,3.874,0,0,1,138.418,177.454Z" transform="translate(-74.073 -122.921)" fill="#fff"/><path d="M138.212,177.261c-.049,0-.049-.344-.224-.918a3.863,3.863,0,0,0-1.421-2.005,3.7,3.7,0,0,0-3.459-.475,3.628,3.628,0,0,0,0,6.8,3.7,3.7,0,0,0,3.459-.475,3.885,3.885,0,0,0,1.421-2.005c.175-.546.175-.918.224-.918a1.863,1.863,0,0,1,0,.973,3.825,3.825,0,0,1-1.393,2.257,4.054,4.054,0,0,1-3.863.645,4.109,4.109,0,0,1,0-7.748,4.038,4.038,0,0,1,3.863.645,3.825,3.825,0,0,1,1.393,2.257A1.88,1.88,0,0,1,138.212,177.261Z" transform="translate(-73.867 -122.728)" fill="#263238"/><circle cx="2.475" cy="2.475" r="2.475" transform="translate(19.562 29.737)" fill="#263238"/><circle cx="2.475" cy="2.475" r="2.475" transform="translate(29.37 29.737)" fill="#263238"/><circle cx="2.475" cy="2.475" r="2.475" transform="translate(39.178 29.737)" fill="#263238"/></g><g transform="translate(52.616 49.78)"><path d="M93.668,211.237a14.43,14.43,0,0,1,3.459-1.5l.716-3.42,5.786-.1.831,3.4a13.939,13.939,0,0,1,3.492,1.4l2.929-1.912,4.174,3.989-1.809,2.989a14.337,14.337,0,0,1,1.5,3.459l3.42.716.1,5.786-3.4.82a13.938,13.938,0,0,1-1.377,3.508l1.912,2.929-4.016,4.158-2.989-1.809a14.337,14.337,0,0,1-3.459,1.5l-.716,3.42-5.786.1-.831-3.4a14.151,14.151,0,0,1-3.508-1.377l-2.923,1.912-4.164-4.016,1.809-2.978a14.337,14.337,0,0,1-1.5-3.459l-3.415-.716-.109-5.792,3.388-.825a14.152,14.152,0,0,1,1.377-3.508l-1.923-2.923,4.016-4.164,2.989,1.809Zm3.087,7.71a6.207,6.207,0,1,0,8.775-.153,6.207,6.207,0,0,0-8.775.153Z" transform="translate(-83.696 -120.737)" fill="#f5f5f5"/><path d="M93.668,211.237a14.43,14.43,0,0,1,3.459-1.5l.716-3.42,5.786-.1.831,3.4a13.939,13.939,0,0,1,3.492,1.4l2.929-1.912,4.174,3.989-1.809,2.989a14.337,14.337,0,0,1,1.5,3.459l3.42.716.1,5.786-3.4.82a13.938,13.938,0,0,1-1.377,3.508l1.912,2.929-4.016,4.158-2.989-1.809a14.337,14.337,0,0,1-3.459,1.5l-.716,3.42-5.786.1-.831-3.4a14.151,14.151,0,0,1-3.508-1.377l-2.923,1.912-4.164-4.016,1.809-2.978a14.337,14.337,0,0,1-1.5-3.459l-3.415-.716-.109-5.792,3.388-.825a14.152,14.152,0,0,1,1.377-3.508l-1.923-2.923,4.016-4.164,2.989,1.809Zm3.087,7.71a6.207,6.207,0,1,0,8.775-.153,6.207,6.207,0,0,0-8.775.153Z" transform="translate(-83.696 -120.737)" fill="none"/><path d="M105.99,227.875a4.721,4.721,0,0,1,1.164-1.005,6.278,6.278,0,0,1,6.775.033,6.349,6.349,0,0,1,2.186,2.5,5.912,5.912,0,0,1,.546,1.732,6.01,6.01,0,0,1,.033,1.9,6.3,6.3,0,0,1-5.213,5.393,5.857,5.857,0,0,1-1.9.038,6.009,6.009,0,0,1-1.683-.5,6.344,6.344,0,0,1-2.579-2.125,6.187,6.187,0,0,1-.29-6.77,4.694,4.694,0,0,1,.962-1.2,11.508,11.508,0,0,0-.869,1.251,6.169,6.169,0,0,0-.694,3.983,6.01,6.01,0,0,0,1.065,2.6,6.1,6.1,0,0,0,2.486,2.022,5.573,5.573,0,0,0,1.683.47,5.661,5.661,0,0,0,1.82-.038,6.086,6.086,0,0,0,4.431-8.639,6.114,6.114,0,0,0-4.737-3.393,6.185,6.185,0,0,0-3.961.841,11.9,11.9,0,0,0-1.224.9Z" transform="translate(-92.931 -129.665)" fill="#263238"/><path d="M93.582,211.164a1.637,1.637,0,0,1-.191-.1l-.574-.333-2.246-1.333h.055l-4,4.185v-.093L88.56,216.4v.087a14.348,14.348,0,0,0-1.366,3.491v.055H87.14l-3.4.836.082-.1c.033,1.82.071,3.754.109,5.786l-.087-.109,3.426.71h.066v.071a13.938,13.938,0,0,0,1.5,3.426l.038.066-.038.06-1.809,2.994v-.158l4.164,4.016h-.164l2.923-1.918.071-.044.071.038a14.356,14.356,0,0,0,3.475,1.366h.082v.082c.257,1.093.546,2.224.831,3.4l-.137-.109,5.786-.1-.137.109c.224-1.093.464-2.246.71-3.426v-.082h.087a14.207,14.207,0,0,0,3.42-1.486h0l.076-.044.071.044,2.989,1.814h-.175l4.022-4.158v.175l-1.918-2.929-.044-.071.038-.071a13.994,13.994,0,0,0,1.371-3.475v-.082h.076l3.4-.831-.1.131q-.049-2.962-.1-5.786l.109.126L114.6,219.6h-.076v-.071a13.879,13.879,0,0,0-1.486-3.431l-.038-.066.038-.066,1.82-2.983v.148L110.7,209.1h.131l-2.923,1.912-.055.033H107.8a14.124,14.124,0,0,0-3.481-1.382h-.055v-.055c-.3-1.235-.546-2.35-.82-3.4l.082.06-5.786.082.06-.049c-.29,1.366-.546,2.486-.727,3.42h0a14.49,14.49,0,0,0-2.645,1.027c-.284.137-.486.251-.623.328a1.821,1.821,0,0,1-.208.1l.2-.126c.131-.082.333-.2.612-.35a13.56,13.56,0,0,1,2.639-1.093l-.033.038c.191-.934.421-2.06.694-3.431v-.049h.055l5.781-.12h.071v.066c.257,1.049.546,2.186.841,3.4l-.071-.071a14.376,14.376,0,0,1,3.541,1.382h-.109l2.923-1.923.071-.049.06.06c1.322,1.268,2.7,2.6,4.169,4.016l.071.066-.049.076-1.809,2.994v-.126a14.163,14.163,0,0,1,1.519,3.486l-.093-.087,3.42.7h.1v.1c.038,1.885.071,3.825.109,5.786v.109l-.1.027-3.4.836.1-.1a14.25,14.25,0,0,1-1.393,3.546V230.2l1.918,2.923.06.1-.076.076-4.016,4.164-.082.082-.1-.055-2.989-1.814h.175a14.354,14.354,0,0,1-3.492,1.519l.1-.109c-.246,1.175-.486,2.344-.71,3.426v.109H104.2l-5.786.1H98.3v-.109c-.29-1.175-.546-2.333-.831-3.4l.1.1a14.29,14.29,0,0,1-3.541-1.4h.137l-2.923,1.918-.087.055-.076-.071L86.916,233.8l-.076-.071.055-.087,1.814-2.989v.126a14.1,14.1,0,0,1-1.579-3.448l.087.087L83.79,226.7H83.7v-.087c-.033-2.033-.06-3.967-.093-5.786v-.082h.082l3.41-.885-.071.071a14.294,14.294,0,0,1,1.388-3.524v.087l-1.907-2.929-.033-.049.038-.044L90.56,209.3h.033l2.186,1.366.546.355Z" transform="translate(-83.61 -120.664)" fill="#263238"/><path d="M318.976,116.594a24.691,24.691,0,0,1,6.01-2.6l1.235-5.928,10.016-.175,1.443,5.879a24.674,24.674,0,0,1,6.054,2.377l5.06-3.317L356,119.785l-3.136,5.174a24.479,24.479,0,0,1,2.6,6.01l5.928,1.235.175,10.016-5.879,1.442a24.445,24.445,0,0,1-2.377,6.071l3.317,5.06L349.673,162l-5.174-3.136a24.638,24.638,0,0,1-6.01,2.6l-1.235,5.928-10.01.175-1.443-5.879a24.587,24.587,0,0,1-6.07-2.377l-5.065,3.317-7.207-6.961,3.142-5.174a24.318,24.318,0,0,1-2.606-6.01l-5.928-1.235-.175-10.016,5.879-1.437a24.712,24.712,0,0,1,2.377-6.071l-3.278-5.06,6.956-7.207L319,116.594Zm5.338,13.343a10.748,10.748,0,1,0,15.2-.268A10.748,10.748,0,0,0,324.314,129.937Z" transform="translate(-182.622 -76.139)" fill="#f5f5f5"/><path d="M318.976,116.594a24.691,24.691,0,0,1,6.01-2.6l1.235-5.928,10.016-.175,1.443,5.879a24.674,24.674,0,0,1,6.054,2.377l5.06-3.317L356,119.785l-3.136,5.174a24.479,24.479,0,0,1,2.6,6.01l5.928,1.235.175,10.016-5.879,1.442a24.445,24.445,0,0,1-2.377,6.071l3.317,5.06L349.673,162l-5.174-3.136a24.638,24.638,0,0,1-6.01,2.6l-1.235,5.928-10.01.175-1.443-5.879a24.587,24.587,0,0,1-6.07-2.377l-5.065,3.317-7.207-6.961,3.142-5.174a24.318,24.318,0,0,1-2.606-6.01l-5.928-1.235-.175-10.016,5.879-1.437a24.712,24.712,0,0,1,2.377-6.071l-3.278-5.06,6.956-7.207L319,116.594Zm5.338,13.343a10.748,10.748,0,1,0,15.2-.268A10.748,10.748,0,0,0,324.314,129.937Z" transform="translate(-182.622 -76.139)" fill="none"/><path d="M340.346,145.451l.12-.126.366-.361a4.78,4.78,0,0,1,.623-.546,7.928,7.928,0,0,1,.929-.661,10.054,10.054,0,0,1,2.847-1.268,10.688,10.688,0,0,1,4.114-.328,10.8,10.8,0,0,1,4.7,1.683,10.928,10.928,0,0,1,3.792,4.295,10.279,10.279,0,0,1,.956,2.978,12.024,12.024,0,0,1,.164,1.612,11.875,11.875,0,0,1-.109,1.639,10.928,10.928,0,0,1-2.94,6.1,11.551,11.551,0,0,1-2.792,2.082,10.6,10.6,0,0,1-3.2,1.093,12.893,12.893,0,0,1-1.639.164,13.18,13.18,0,0,1-1.639-.1,10.279,10.279,0,0,1-3.011-.858,10.8,10.8,0,0,1-6.092-12.381,10.278,10.278,0,0,1,1.164-2.89,7.252,7.252,0,0,1,.634-.945,4.878,4.878,0,0,1,.546-.65l.35-.372a1.47,1.47,0,0,1,.12-.126.771.771,0,0,1-.1.142l-.322.393a5.7,5.7,0,0,0-.5.661,7.817,7.817,0,0,0-.6.951,10.348,10.348,0,0,0-1.093,2.874,10.637,10.637,0,0,0-.137,4.054,10.513,10.513,0,0,0,1.847,4.535,10.622,10.622,0,0,0,4.338,3.535,9.955,9.955,0,0,0,2.934.825,11.673,11.673,0,0,0,1.579.1,11.357,11.357,0,0,0,1.6-.164,10.567,10.567,0,0,0,8.71-9.016,12.326,12.326,0,0,0,.1-1.606,11.475,11.475,0,0,0-.153-1.574,9.994,9.994,0,0,0-.923-2.907,10.655,10.655,0,0,0-12.321-5.65,10.278,10.278,0,0,0-2.83,1.208,8.328,8.328,0,0,0-.934.634,5.232,5.232,0,0,0-.639.546l-.382.339C340.384,145.418,340.351,145.456,340.346,145.451Z" transform="translate(-198.653 -91.652)" fill="#263238"/><path d="M318.935,116.508s-.109-.055-.333-.186l-.989-.59-3.874-2.322h.055c-1.77,1.841-4.1,4.278-6.939,7.223v-.087c1.005,1.53,2.126,3.235,3.328,5.054v.087a24.588,24.588,0,0,0-2.371,6.06v.055h-.055l-5.879,1.448.077-.1c.06,3.153.12,6.5.186,10.016l-.087-.109,5.928,1.229h.066v.066a24.544,24.544,0,0,0,2.606,5.983l.038.06-.038.087-3.136,5.174V155.5l7.207,6.95h-.164l5.06-3.317.071-.044.071.038a24.587,24.587,0,0,0,6.043,2.377h.082v.082c.454,1.841.945,3.852,1.443,5.879l-.137-.1,10.016-.18-.137.115c.388-1.874.809-3.9,1.235-5.928v-.082l.082-.027a24.331,24.331,0,0,0,5.978-2.584h0l.077-.044.071.044,5.174,3.136h-.175l6.956-7.207v.175l-3.317-5.06-.044-.071.038-.077a24.381,24.381,0,0,0,2.382-6.038v-.082h.082l5.885-1.437-.1.131q-.093-5.12-.175-10.016l.1.131-5.923-1.24h-.077v-.071a24.484,24.484,0,0,0-2.6-6l-.038-.066.038-.087,3.142-5.169v.148l-7.185-6.945h.131l-5.065,3.311-.049.038-.055-.033a24.364,24.364,0,0,0-6.049-2.388h-.055v-.055l-1.432-5.879.082.066-10.016.153.066-.049c-.5,2.371-.912,4.311-1.251,5.923h-.027a24.485,24.485,0,0,0-4.579,1.792c-.486.24-.836.443-1.093.546a1.328,1.328,0,0,0-.355.191s.115-.076.344-.213.579-.344,1.06-.6a24.091,24.091,0,0,1,4.573-1.77h-.055c.333-1.639.732-3.557,1.218-5.928V107.9h.049l10.016-.2h.066v.066c.448,1.82.923,3.743,1.453,5.879l-.071-.066a24.8,24.8,0,0,1,6.1,2.388h-.1l5.06-3.322.071-.049.06.06,7.213,6.95.071.066-.049.082-3.136,5.18V124.8a24.494,24.494,0,0,1,2.623,6.01l-.1-.093,5.928,1.235h.1v.109q.093,4.885.18,10.016v.1h-.109l-5.879,1.443.1-.1a24.719,24.719,0,0,1-2.4,6.109v-.142l3.317,5.06.066.093-.082.082-6.906,7.284-.076.082-.1-.06L344.37,158.9h.158a24.686,24.686,0,0,1-6.01,2.612l.1-.1c-.426,2.033-.847,4.054-1.235,5.923v.115h-.115l-10.016.175h-.109l-.027-.109c-.5-2.027-.989-4.038-1.443-5.879l.1.1a24.816,24.816,0,0,1-6.109-2.41h.137l-5.06,3.317-.093.06-.077-.076-7.2-6.961-.071-.071.055-.087,3.136-5.169v.148a24.758,24.758,0,0,1-2.606-6.01l.087.082-5.928-1.24h-.087v-.087q-.093-5.278-.164-10.016v-.082h.082l5.879-1.432-.066.066a24.7,24.7,0,0,1,2.41-6.092v.087l-3.278-5.071-.033-.049.038-.038c2.847-2.934,5.2-5.355,6.978-7.191h.055l3.825,2.355.984.607Z" transform="translate(-182.581 -76.052)" fill="#263238"/><path d="M257.928,55.5a15.708,15.708,0,0,1,3.825-1.639l.787-3.792,6.4-.109.923,3.759a15.606,15.606,0,0,1,3.885,1.524l3.235-2.12,4.606,4.448-2.005,3.306a15.845,15.845,0,0,1,1.639,3.825l3.787.787.115,6.4-3.759.923a15.709,15.709,0,0,1-1.53,3.885l2.12,3.235-4.442,4.6-3.278-2.005a15.725,15.725,0,0,1-3.825,1.639l-.787,3.787-6.4.115-.918-3.759a15.752,15.752,0,0,1-3.885-1.53L255.18,84.9l-4.606-4.442,2.005-3.311a15.583,15.583,0,0,1-1.639-3.825l-3.787-.787L247,66.139l3.759-.918a15.524,15.524,0,0,1,1.524-3.885l-2.12-3.235,4.448-4.606Zm3.415,8.524a6.562,6.562,0,1,0-.027,0Z" transform="translate(-157.724 -49.862)" fill="#f5f5f5"/><path d="M257.928,55.5a15.708,15.708,0,0,1,3.825-1.639l.787-3.792,6.4-.109.923,3.759a15.606,15.606,0,0,1,3.885,1.524l3.235-2.12,4.606,4.448-2.005,3.306a15.845,15.845,0,0,1,1.639,3.825l3.787.787.115,6.4-3.759.923a15.709,15.709,0,0,1-1.53,3.885l2.12,3.235-4.442,4.6-3.278-2.005a15.725,15.725,0,0,1-3.825,1.639l-.787,3.787-6.4.115-.918-3.759a15.752,15.752,0,0,1-3.885-1.53L255.18,84.9l-4.606-4.442,2.005-3.311a15.583,15.583,0,0,1-1.639-3.825l-3.787-.787L247,66.139l3.759-.918a15.524,15.524,0,0,1,1.524-3.885l-2.12-3.235,4.448-4.606Zm3.415,8.524a6.562,6.562,0,1,0-.027,0Z" transform="translate(-157.724 -49.862)" fill="none"/><path d="M271.511,73.889A5.262,5.262,0,0,1,272.8,72.8a6.933,6.933,0,0,1,9.955,2.8,6.673,6.673,0,0,1,.623,1.923,6.458,6.458,0,0,1,.038,2.1,6.988,6.988,0,0,1-5.775,6.01,7.1,7.1,0,0,1-4.049-.546,6.977,6.977,0,0,1-4.038-5.349,6.863,6.863,0,0,1,.891-4.5,5.4,5.4,0,0,1,1.093-1.328,15.409,15.409,0,0,0-.956,1.393,6.83,6.83,0,0,0-.765,4.4,6.7,6.7,0,0,0,1.175,2.863,6.8,6.8,0,0,0,2.732,2.235,6.712,6.712,0,0,0,9.365-5.224,6.355,6.355,0,0,0-.027-2.011,6.278,6.278,0,0,0-.585-1.874,6.754,6.754,0,0,0-5.234-3.748,6.846,6.846,0,0,0-4.371.923,16.5,16.5,0,0,0-1.355,1.022Z" transform="translate(-167.919 -59.726)" fill="#263238"/><path d="M257.815,55.419,257.6,55.3l-.634-.366-2.486-1.475h.066L250.1,58.1v-.109l2.136,3.229.033.049-.033.055a15.584,15.584,0,0,0-1.5,3.858v.066h-.066l-3.781.934.093-.12c.038,2.016.082,4.153.126,6.4l-.1-.126,3.787.781h.082v.082a15.977,15.977,0,0,0,1.639,3.792l.044.071-.044.076-2,3.311-.027-.186,4.612,4.442h-.2l3.235-2.12.082-.055.082.049a15.846,15.846,0,0,0,3.825,1.508h.1v.1c.29,1.175.607,2.459.923,3.754l-.164-.126,6.4-.115-.158.137c.246-1.2.514-2.486.787-3.787v-.1h.1a15.364,15.364,0,0,0,3.781-1.639h0l.087-.055.087.055,3.306,2.005h-.208L281.6,79.7v.208l-2.016-3.235-.055-.082.049-.087a15.572,15.572,0,0,0,1.514-3.825v-.1h.1l3.759-.918-.126.158c-.033-2.186-.071-4.322-.1-6.4l.12.153-3.787-.792h-.087l-.027-.087A15.6,15.6,0,0,0,279.3,60.9l-.049-.076.049-.076,2.011-3.278v.169l-4.6-4.453h.164l-3.213,2.06-.06.038-.066-.033a15.414,15.414,0,0,0-3.852-1.53h-.066v-.066c-.328-1.366-.628-2.6-.907-3.759l.1.076-6.4.087.077-.06c-.328,1.514-.59,2.732-.809,3.787v.033h-.033a16.529,16.529,0,0,0-2.923,1.131c-.311.153-.546.279-.688.361a2.575,2.575,0,0,1-.229.12l.219-.142c.142-.087.366-.224.672-.388a15.337,15.337,0,0,1,2.912-1.175l-.038.044c.208-1.038.459-2.278.765-3.792v-.06h.06l6.4-.137h.082v.076l.967,3.732-.082-.082a15.78,15.78,0,0,1,3.907,1.53h-.126l3.229-2.131.087-.055.071.071,4.612,4.437.082.082-.055.093-1.994,3.295v-.153a16.222,16.222,0,0,1,1.683,3.863l-.115-.1,3.787.781.12.027v.12q.06,3.125.115,6.4v.126l-.126.033-3.721.923.12-.12a15.92,15.92,0,0,1-1.563,3.945V76.5l2.12,3.235.071.109-.093.1-4.442,4.606-.093.1-.115-.071-3.306-2.005h.169a15.55,15.55,0,0,1-3.868,1.677l.12-.126c-.268,1.3-.546,2.59-.787,3.787l-.027.131h-.137l-6.4.109h-.131l-.033-.126c-.317-1.3-.634-2.584-.918-3.759l.12.12a15.966,15.966,0,0,1-3.923-1.546h.164l-3.235,2.115-.1.071-.093-.087L250.323,80.5l-.087-.082.066-.1,2.005-3.278v.148a15.971,15.971,0,0,1-1.672-3.863l.109.1-3.787-.8h-.109v-.1c-.033-2.246-.066-4.371-.1-6.4v-.153h.093l3.759-.912-.082.082a15.928,15.928,0,0,1,1.546-3.907v.1l-2.1-3.235-.038-.06.049-.049,4.47-4.584h.066l2.442,1.514.623.393A2.094,2.094,0,0,1,257.815,55.419Z" transform="translate(-157.61 -49.78)" fill="#263238"/><path d="M105.695,294.353a25.68,25.68,0,0,1,6.245-2.732l1.29-6.185,10.453-.186,1.5,6.136a25.594,25.594,0,0,1,6.344,2.5l5.284-3.464,7.518,7.262-3.278,5.4a25.758,25.758,0,0,1,2.732,6.256l6.185,1.284.186,10.453-6.142,1.5a25.363,25.363,0,0,1-2.492,6.344l3.459,5.284-7.267,7.535-5.4-3.278a25.72,25.72,0,0,1-6.251,2.732l-1.284,6.185-10.453.186-1.508-6.169a25.409,25.409,0,0,1-6.338-2.492l-5.284,3.464-7.518-7.245,3.278-5.4a25.424,25.424,0,0,1-2.732-6.251l-6.174-1.284-.186-10.453L94,310.248a25.593,25.593,0,0,1,2.5-6.344l-3.464-5.284,7.262-7.518,5.4,3.278Zm5.568,13.922A11.212,11.212,0,1,0,127.108,308a11.212,11.212,0,0,0-15.846.279Z" transform="translate(-85.538 -156.589)" fill="#f5f5f5"/><path d="M105.695,294.353a25.68,25.68,0,0,1,6.245-2.732l1.29-6.185,10.453-.186,1.5,6.136a25.594,25.594,0,0,1,6.344,2.5l5.284-3.464,7.518,7.262-3.278,5.4a25.758,25.758,0,0,1,2.732,6.256l6.185,1.284.186,10.453-6.142,1.5a25.363,25.363,0,0,1-2.492,6.344l3.459,5.284-7.267,7.535-5.4-3.278a25.72,25.72,0,0,1-6.251,2.732l-1.284,6.185-10.453.186-1.508-6.169a25.409,25.409,0,0,1-6.338-2.492l-5.284,3.464-7.518-7.245,3.278-5.4a25.424,25.424,0,0,1-2.732-6.251l-6.174-1.284-.186-10.453L94,310.248a25.593,25.593,0,0,1,2.5-6.344l-3.464-5.284,7.262-7.518,5.4,3.278Zm5.568,13.922A11.212,11.212,0,1,0,127.108,308a11.212,11.212,0,0,0-15.846.279Z" transform="translate(-85.538 -156.589)" fill="none"/><path d="M127.992,324.5a1.3,1.3,0,0,1,.126-.131l.377-.377a5.819,5.819,0,0,1,.656-.546,8.133,8.133,0,0,1,.967-.688,10.506,10.506,0,0,1,2.972-1.322,11.327,11.327,0,0,1,9.2,1.421,11.125,11.125,0,0,1,4.956,7.584,12.2,12.2,0,0,1,.169,1.683,13.114,13.114,0,0,1-.109,1.721,10.955,10.955,0,0,1-1.005,3.377,12.021,12.021,0,0,1-2.065,2.983,12.167,12.167,0,0,1-2.912,2.186,11.146,11.146,0,0,1-3.339,1.12,13.116,13.116,0,0,1-1.716.169,12.347,12.347,0,0,1-1.688-.109,11.536,11.536,0,0,1-1.639-.328,11.269,11.269,0,0,1-7.879-13.485,10.507,10.507,0,0,1,1.218-3.016,7.955,7.955,0,0,1,.656-.989,4.851,4.851,0,0,1,.546-.672l.361-.393.131-.131a1.381,1.381,0,0,1-.109.148l-.339.41a6.179,6.179,0,0,0-.546.688,9.364,9.364,0,0,0-.628.994,10.879,10.879,0,0,0-1.158,3,11.1,11.1,0,0,0,6.316,12.66,10.169,10.169,0,0,0,1.481.546,11.619,11.619,0,0,0,1.585.317,13.57,13.57,0,0,0,1.639.1,12.49,12.49,0,0,0,1.672-.175,10.61,10.61,0,0,0,3.278-1.093,11,11,0,0,0,4.857-5.027,10.874,10.874,0,0,0,.978-3.278,13.454,13.454,0,0,0,.115-1.677,12.511,12.511,0,0,0-.164-1.639,10.381,10.381,0,0,0-.967-3.033,11.266,11.266,0,0,0-12.846-5.945,10.732,10.732,0,0,0-2.956,1.262,7.656,7.656,0,0,0-.973.667,5.209,5.209,0,0,0-.672.546l-.4.355C128.047,324.472,128,324.51,127.992,324.5Z" transform="translate(-102.267 -172.818)" fill="#263238"/><path d="M105.617,294.29s-.12-.06-.35-.2l-1.016-.612-4.043-2.426h.055l-7.256,7.529V298.5c1.055,1.6,2.224,3.377,3.475,5.278v.082a25.877,25.877,0,0,0-2.47,6.327v.055h-.055l-6.131,1.514.076-.1c.06,3.278.126,6.781.191,10.447l-.087-.1,6.169,1.3h.071v.071a25.68,25.68,0,0,0,2.732,6.218l.038.06-.038.066c-1.011,1.677-2.131,3.519-3.278,5.4v-.158l7.524,7.256h-.164l5.278-3.464.071-.044.071.038a25.415,25.415,0,0,0,6.311,2.481h.076v.082c.47,1.918.984,4.016,1.508,6.136l-.142-.109,10.453-.186-.137.115c.41-1.956.847-4.065,1.29-6.185v-.087h.082a25.425,25.425,0,0,0,6.213-2.7h0l.071-.044.077.044,5.4,3.278h-.175l7.262-7.518v.175q-1.743-2.672-3.464-5.284l-.044-.071.044-.077a25.5,25.5,0,0,0,2.481-6.305v-.077h.077l6.142-1.5-.1.131q-.087-5.349-.18-10.447l.1.126-6.185-1.295h-.076v-.077a25.594,25.594,0,0,0-2.7-6.267l-.044-.066.044-.06c1.12-1.852,2.213-3.645,3.278-5.4v.148l-7.513-7.267h.137l-5.289,3.459-.049.033-.055-.033a25.528,25.528,0,0,0-6.316-2.492H125v-.06c-.546-2.229-1.033-4.24-1.5-6.136l.082.066-10.453.164.06-.055c-.546,2.475-.945,4.5-1.3,6.185v.038h0a26.091,26.091,0,0,0-4.781,1.869c-.5.257-.869.464-1.093.6a4.032,4.032,0,0,1-.366.2l.355-.224c.24-.142.607-.361,1.093-.623a25.681,25.681,0,0,1,4.776-1.912l-.033.033c.344-1.683.765-3.71,1.273-6.191v-.049h.055l10.453-.2h.066v.066c.464,1.9.962,3.9,1.514,6.131l-.071-.066a25.68,25.68,0,0,1,6.371,2.5h-.1l5.278-3.464.071-.049.066.06,7.524,7.256.071.066-.049.076-3.278,5.4v-.126a25.681,25.681,0,0,1,2.732,6.278l-.093-.087,6.185,1.284h.1v.1q.093,5.1.186,10.453v.12l-.109.027-6.136,1.508.1-.1a25.555,25.555,0,0,1-2.508,6.376v-.142q1.71,2.617,3.464,5.284l.06.093-.076.082-7.262,7.518-.077.082-.1-.06-5.4-3.278h.142a25.784,25.784,0,0,1-6.284,2.732l.1-.109c-.443,2.125-.885,4.235-1.29,6.185v.115h-.115l-10.453.18h-.109l-.027-.109-1.5-6.136.1.1a26.122,26.122,0,0,1-6.371-2.508h.137l-5.3,3.475-.087.055-.076-.071-7.513-7.267-.076-.066.055-.087,3.278-5.4v.126a25.878,25.878,0,0,1-2.732-6.284l.087.082-6.174-1.306h-.087v-.093c-.06-3.666-.115-7.158-.169-10.453v-.082h.082l6.136-1.5-.066.066a25.62,25.62,0,0,1,2.513-6.355v.082L92.9,298.584l-.033-.044.044-.044,7.278-7.5v-.027h.027l4.005,2.453,1.027.634Z" transform="translate(-85.461 -156.526)" fill="#263238"/></g><g transform="translate(55.102 90.942)"><path d="M271.9,366.375c-1.224-.792-17.545-4.185-17.545-4.185l-39.341,1.027-14.092,2.6s-2.612,43.712-2.224,44.515,29.4.311,30.167,1.093,27.555,3.666,27.555,3.666l24.79-44.482Z" transform="translate(-138.282 -232.651)" fill="#f5bdab"/><path d="M258.91,378.589c-8.934-7.584-44.258-14-46.236-14,0,0-2.732,22.009-27.32,22.009-20.911,0-25.9-21.31-25.9-21.31l-15.266,2.4c-2.35.448-23.227,5.338-26.653,6.311-7.131,2.022-21.741,7.2-25.976,22.637-1.563,5.715-1.519,16-3.393,24.211h37.188s120.061.1,120.071,0l40.368.033S268.385,386.626,258.91,378.589Z" transform="translate(-88.16 -233.74)" fill="#f8951d"/><path d="M142.517,452.462c-.076,0-1.639-4.071-3.53-9.147s-3.339-9.218-3.278-9.245,1.639,4.065,3.53,9.147S142.588,452.434,142.517,452.462Z" transform="translate(-109.727 -265.256)" fill="#263238"/><path d="M366.253,453.188a3.351,3.351,0,0,1-.055-.672c0-.492-.027-1.093-.044-1.836,0-1.612-.055-3.721-.087-6.054s-.153-4.5-.268-6.043c-.055-.727-.1-1.339-.137-1.825a3.73,3.73,0,0,1-.027-.678,2.734,2.734,0,0,1,.137.661c.071.432.148,1.055.23,1.825.164,1.546.3,3.688.35,6.054s.033,4.508,0,6.06c0,.727-.033,1.344-.049,1.836a2.908,2.908,0,0,1-.049.672Z" transform="translate(-214.021 -266.168)" fill="#263238"/><g transform="translate(69.617 149.086)" opacity="0.3"><path d="M227.547,436.106c1.683-7.218,3.563-14.376,4.054-22.277a13.568,13.568,0,0,1,.612-3.983c.984-2.59,3.732-4.508,3.825-7.278.066-2.9-3.278-5.065-6.109-4.519s-4.983,3.082-5.95,5.819-.989,5.7-1.093,8.6c-.306,7.365-5.639,16.463-7.316,23.637" transform="translate(-215.57 -397.965)"/></g><path d="M186.762,134.16c-12.616,3.049-24.457,15.25-29.751,26.888s-5.584,22.648-3.967,35.292c.978,7.65,3.125,15.447,4.519,22.741,1.448,7.595-2.186,18.228-6.316,24.8-1.574,2.481-3.672,5.163-2.918,7.988.694,2.617,3.573,4.032,6.234,4.726a29.254,29.254,0,0,0,16.654-.585l-.71,5.617c14.365-.29,28.2-5.032,41.75-9.72,4.541-1.568,9.289-3.278,12.474-6.808a26.775,26.775,0,0,0,4.027-6.693,293.706,293.706,0,0,0,11.83-29.183" transform="translate(-115.381 -129.217)" fill="#263238"/><path d="M260.192,148.165c-10.928-13.327-25.55-21-42.767-21.282-9.715-.164-13.731,1.858-20.73,3.743s-13.3,5.639-17.485,11.567c-4.956,7.032-9.119,14.911-10.059,23.5-.962,8.786-1.923,17.632-1.262,26.451s3.06,17.692,8.251,24.845l22.4,3.9c12.387.421,24.943.825,37.013-2s23.8-9.322,30.26-19.894C274.808,184.271,271.082,161.5,260.192,148.165Z" transform="translate(-124.226 -125.912)" fill="#263238"/><path d="M244.364,155.7l-29.9-11.884-7.814.907c-17.578.066-29.7,19.446-29.817,33.686-.126,15.813.344,35.128,2.852,46.788,5.054,23.441,25.063,25.391,25.063,25.391s-.41,12.491-.546,20.364l45.783-3.306,2.3-103.914a8.333,8.333,0,0,0-7.923-8.032Z" transform="translate(-128.374 -133.599)" fill="#f5bdab"/><path d="M198.46,239.866a3.033,3.033,0,0,0,3.093,2.9,2.9,2.9,0,0,0,2.972-2.907,3.038,3.038,0,0,0-3.087-2.9,2.907,2.907,0,0,0-2.978,2.907Z" transform="translate(-138.192 -175.846)" fill="#263238"/><path d="M185.941,225.6c.4.361,2.672-1.366,6.01-1.5s5.863,1.328,6.207.929c.169-.175-.257-.841-1.355-1.524a8.934,8.934,0,0,0-4.994-1.213,8.5,8.5,0,0,0-4.765,1.639C186.029,224.732,185.712,225.431,185.941,225.6Z" transform="translate(-132.481 -169.187)" fill="#263238"/><path d="M217.986,245.8c0-.186-2.044-.426-5.349-.667-.841-.038-1.639-.158-1.809-.721a4.849,4.849,0,0,1,.421-2.5l2.115-6.48c2.929-9.223,4.994-16.785,4.623-16.9s-3.043,7.267-5.972,16.49q-1.049,3.41-2.011,6.513a4.778,4.778,0,0,0-.251,3.278,2.087,2.087,0,0,0,1.437,1.142,5.676,5.676,0,0,0,1.426.12C215.953,246.106,217.986,245.986,217.986,245.8Z" transform="translate(-143.216 -167.486)" fill="#263238"/><path d="M227.77,330.725a60.243,60.243,0,0,0,31.2-10.185S251.44,337.4,227.65,336.484Z" transform="translate(-151.433 -213.759)" fill="#6f4439"/><path d="M187.413,209.65c.59.765,3.06.1,6.01.18,2.934,0,5.393.716,6.01-.038.268-.366-.093-1.126-1.147-1.869a9.289,9.289,0,0,0-9.666-.12C187.522,208.525,187.151,209.279,187.413,209.65Z" transform="translate(-133.145 -162.033)" fill="#263238"/><path d="M262.6,238.761a3.038,3.038,0,0,1-2.874,3.114,2.907,2.907,0,0,1-3.18-2.683,3.038,3.038,0,0,1,2.874-3.114,2.9,2.9,0,0,1,3.18,2.683Z" transform="translate(-164.541 -175.441)" fill="#263238"/><path d="M259.9,223.008c-.388.459-3.005-1.273-6.584-1.093s-6.1,2.142-6.519,1.721c-.2-.186.18-.994,1.273-1.891a9.136,9.136,0,0,1,5.191-1.918,8.742,8.742,0,0,1,5.273,1.4C259.681,222.035,260.1,222.8,259.9,223.008Z" transform="translate(-160.094 -168.069)" fill="#263238"/><path d="M251.575,201.97c-.628.754-3.164.027-6.2.044-3.033-.076-5.59.6-6.2-.169-.268-.372.126-1.126,1.235-1.847a9.371,9.371,0,0,1,5.016-1.3,9.2,9.2,0,0,1,4.967,1.4C251.488,200.845,251.854,201.593,251.575,201.97Z" transform="translate(-156.627 -158.49)" fill="#263238"/><path d="M310.372,163.757C299.8,142.24,283.937,127.9,255.59,126.87l22.5,54.809c10.578,15.359,10.573,33.986,4.989,51.782-1.563,4.983-3.672,10.748-.743,15.07s9.7,4.437,14.119,1.606c3.994-2.563,6.524-6.77,8.781-10.988a3.606,3.606,0,0,0,2.071,3.825c1.956.787,4.278-.164,5.677-1.748a13.568,13.568,0,0,0,2.579-5.721,108.43,108.43,0,0,0,2.989-22C319.355,196.531,317.852,179.008,310.372,163.757Z" transform="translate(-164.106 -125.91)" fill="#263238"/><path d="M307.477,247.358c-.093-1.765,1.716-6.01,3.437-6.393,4.606-.978,13-1.093,13.72,10.726.994,16.113-15.392,13.786-15.452,13.327C309.138,264.657,307.794,253.44,307.477,247.358Z" transform="translate(-187.641 -177.481)" fill="#f5bdab"/><path d="M318.072,263.256c.066-.055.3.18.781.366a2.8,2.8,0,0,0,2.1-.082c1.639-.732,2.929-3.524,2.83-6.431a9.288,9.288,0,0,0-1.033-3.972,3.228,3.228,0,0,0-2.246-2.027,1.437,1.437,0,0,0-1.639.874c-.186.464-.066.776-.148.809s-.366-.246-.273-.918a1.765,1.765,0,0,1,.546-1.055,2.186,2.186,0,0,1,1.53-.5,3.958,3.958,0,0,1,3.087,2.317,9.672,9.672,0,0,1,1.251,4.437c.093,3.251-1.382,6.393-3.672,7.212a3.032,3.032,0,0,1-2.6-.273C318.127,263.665,318.029,263.31,318.072,263.256Z" transform="translate(-192.444 -181.904)" fill="#6f4439"/><path d="M269.683,195.032l-4.1,4.918c-38.625-23.3-52.236-59.962-50.307-57.432,0,0,12.114-4.983,25.26-2.732s38.09,8.819,37.7,24.326S269.683,195.032,269.683,195.032Z" transform="translate(-145.738 -131.504)" fill="#263238"/><g transform="translate(71.281 82.256)"><path d="M220.041,284.228c-.546-.246-.8-2.022-.634-2.732a2.005,2.005,0,0,1,1.2-1.4,3.048,3.048,0,0,1,1.639-.066,18.516,18.516,0,0,1,3.912,1.218c1.333.546,3.218,1.8,4.519,2.475a21.614,21.614,0,0,1-7.01,1.754,3.333,3.333,0,0,1-2.3-.4" transform="translate(-218.951 -279.945)" fill="#de7676"/><path d="M221.006,276.109a1.546,1.546,0,0,0-.6,1.825,2.448,2.448,0,0,0,1.47,1.388,6.012,6.012,0,0,0,2.049.3,10.846,10.846,0,0,0,4.371-1.093,9.835,9.835,0,0,0,3.967-2.874c-3.825.322-7.322,1.153-11.24.443" transform="translate(-219.386 -271.694)" fill="#de7676"/><path d="M219.4,279.9c-.033-.033-.29.109-.546.546a2.781,2.781,0,0,0-.027,2.186,3.508,3.508,0,0,0,2.448,1.983,10,10,0,0,0,3.732.148,33.784,33.784,0,0,0,6.47-1.366,7.712,7.712,0,0,0,2.541-1.027,10,10,0,0,0-2.694.443,57.9,57.9,0,0,1-6.4,1.093,10.442,10.442,0,0,1-3.448-.055,3.016,3.016,0,0,1-2.093-1.448,2.732,2.732,0,0,1-.2-1.776C219.3,280.188,219.448,279.975,219.4,279.9Z" transform="translate(-218.615 -279.264)" fill="#263238"/></g><path d="M233.861,300.8c-.071.066-.617-.6-1.732-1.339a8.923,8.923,0,0,0-9.8-.224c-1.147.7-1.721,1.333-1.792,1.262s.426-.776,1.568-1.6a8.573,8.573,0,0,1,10.261.229A4.532,4.532,0,0,1,233.861,300.8Z" transform="translate(-148.202 -203.224)" fill="#6f4439"/><circle cx="5.677" cy="5.677" r="5.677" transform="translate(119.831 84.433)" fill="#455a64"/><path d="M218.046,130.057c-.306.869,14.665-2.251,21.009,1.6s11.261,9.633,15.54,15.687c8.633,12.223,15.622,26.358,16.392,41.3,1.683-.688,6.3-.393,8.562,1.044,0,0,7.934-48.3-39.314-63.6C240.257,126.084,220.833,122.172,218.046,130.057Z" transform="translate(-147.074 -125.114)" fill="#455a64"/><path d="M225.54,127.6a5.207,5.207,0,0,1,.88-.311,17.375,17.375,0,0,1,2.612-.612c.579-.06,1.218-.2,1.929-.208l1.093-.06h1.2a28.571,28.571,0,0,1,5.573.787,40.374,40.374,0,0,1,13.217,6.152,59.093,59.093,0,0,1,13.092,12.218,61.584,61.584,0,0,1,8.983,15.452c.47,1.295.967,2.541,1.382,3.781s.738,2.459,1.093,3.634l.787,3.459c.246,1.093.366,2.186.546,3.218.071.546.175,1.016.219,1.508s.087.973.131,1.443c.071.934.175,1.814.208,2.639,0,1.639.082,3.076.027,4.235s-.131,2.049-.175,2.672a5.183,5.183,0,0,1-.1.929,6.508,6.508,0,0,1,0-.934c0-.628.038-1.524.066-2.672s-.082-2.574-.126-4.213c-.049-.82-.164-1.694-.251-2.623-.049-.459-.1-.94-.148-1.426s-.158-.984-.24-1.5c-.186-1.016-.322-2.093-.574-3.191s-.546-2.24-.814-3.42-.727-2.366-1.093-3.606-.918-2.459-1.393-3.737a62.344,62.344,0,0,0-8.939-15.3,59.771,59.771,0,0,0-12.9-12.119,40.773,40.773,0,0,0-13.021-6.2,29.025,29.025,0,0,0-5.464-.858l-1.268-.011-1.093.033c-.7,0-1.339.115-1.912.158a21.857,21.857,0,0,0-2.612.5,6.629,6.629,0,0,1-.918.175Z" transform="translate(-150.476 -125.702)" fill="#263238"/><path d="M201.979,397.374s4.2-16.337,5.879-23.053a12.474,12.474,0,0,0,.23-4.885l-.443-2.934a6.864,6.864,0,0,0,4.011-1.972h0a2.688,2.688,0,0,0,2.781-1.53c.678-1.322,1.524-3.563,2.344-5.65a41.219,41.219,0,0,0,2.022-9.136s2.574-4.8,2.421-6.841a22.572,22.572,0,0,0-1.6-5.377s.366-3.278-.246-4.617a4.8,4.8,0,0,0-5.814-2.464c-2.12.59-12.518,2.688-12.518,2.688l-1.94-2.022-.5-7.245,5.874-2.033s3.825,1.683,6.617.623a5.267,5.267,0,0,0,2.475-1.8,1.344,1.344,0,0,0-.508-1.978c-2.442-1.213-8.065-3.929-9.879-4.1-2.339-.229-11.376,4.12-12.1,5.464-.153.273-1.262,16.234-1.262,16.234a9.8,9.8,0,0,0-2.421,6.114c0,3.552-.9,30.052-.9,30.052l-13.3,26.457" transform="translate(-126.734 -210.354)" fill="#ae7461"/><path d="M173.2,397.271s.066-.158.219-.464l.667-1.361c.6-1.2,1.475-2.967,2.606-5.245l9.72-19.441v.038c.148-5.092.311-10.764.492-16.938q.131-4.623.279-9.595c0-.825.049-1.639.077-2.5a16.239,16.239,0,0,1,.18-2.557,10.158,10.158,0,0,1,2.295-4.688l-.033.082q.382-5.36.8-11.048c.071-.945.148-1.9.224-2.852.044-.481.082-.962.126-1.443.027-.246.044-.47.082-.738a1.219,1.219,0,0,1,.049-.213l.126-.158a1.328,1.328,0,0,1,.273-.279,16.183,16.183,0,0,1,2.486-1.6c.863-.481,1.754-.912,2.656-1.339a28.31,28.31,0,0,1,5.677-2.005,3.355,3.355,0,0,1,1.563,0,13.226,13.226,0,0,1,1.475.464c.967.355,1.918.754,2.863,1.169s1.885.858,2.825,1.306l1.41.683.7.344a1.552,1.552,0,0,1,.656.546,1.459,1.459,0,0,1,.038,1.639,4.771,4.771,0,0,1-1.142,1.153,6.317,6.317,0,0,1-1.432.76,6.12,6.12,0,0,1-1.59.339,9.643,9.643,0,0,1-2.634-.2,13.959,13.959,0,0,1-2.508-.76h.1l-5.868,2.033.115-.186q.257,3.661.5,7.245l-.038-.087,1.94,2.022-.126-.038c4.164-.858,8.256-1.639,12.2-2.606a5.972,5.972,0,0,1,3.054-.153,4.841,4.841,0,0,1,2.574,1.579,4.3,4.3,0,0,1,.76,1.322,6.584,6.584,0,0,1,.235,1.475,19.257,19.257,0,0,1-.087,2.923v-.066a30.128,30.128,0,0,1,1.131,3.147,14.1,14.1,0,0,1,.388,1.612,4.251,4.251,0,0,1,0,1.639,16.509,16.509,0,0,1-1.005,3.065c-.415.978-.869,1.918-1.35,2.841v-.044a45.648,45.648,0,0,1-1.126,6.273,44.284,44.284,0,0,1-2.016,5.7c-.366.907-.732,1.8-1.153,2.661a3.459,3.459,0,0,1-.863,1.158,2.645,2.645,0,0,1-1.295.6,2.847,2.847,0,0,1-.716.027h-.005l-.033.027-.131.109-.268.219a9.261,9.261,0,0,1-1.093.787,6.841,6.841,0,0,1-2.508.836l.076-.109c.175,1.218.377,2.393.546,3.568a12.71,12.71,0,0,1-.131,3.42c-.213,1.093-.546,2.12-.77,3.136l-.749,2.923c-.973,3.77-1.8,7.01-2.486,9.655l-1.574,6.07c-.186.688-.322,1.213-.415,1.574s-.153.546-.153.546.038-.186.126-.546l.388-1.579,1.524-6.087c.667-2.65,1.486-5.89,2.437-9.66l.743-2.929c.24-1.011.546-2.049.754-3.125a12.4,12.4,0,0,0,.12-3.377c-.142-1.153-.35-2.339-.546-3.557v-.093h.093a6.733,6.733,0,0,0,2.442-.82,9.665,9.665,0,0,0,1.093-.776l.257-.213.131-.109h.033l.087-.027h.1a2.409,2.409,0,0,0,.656-.027,2.7,2.7,0,0,0,2.005-1.639c.415-.847.776-1.738,1.137-2.645a43.663,43.663,0,0,0,2-5.672,47.1,47.1,0,0,0,1.093-6.245h0c.481-.913.929-1.858,1.339-2.825a15.8,15.8,0,0,0,.989-3.011,4.12,4.12,0,0,0,0-1.574,14.76,14.76,0,0,0-.383-1.579,29.221,29.221,0,0,0-1.126-3.12v-.164a18.06,18.06,0,0,0,.082-2.88,5.886,5.886,0,0,0-.224-1.415,4.082,4.082,0,0,0-.7-1.229,4.584,4.584,0,0,0-2.437-1.486,5.617,5.617,0,0,0-2.923.158c-3.961.945-8.043,1.754-12.212,2.612h-.076l-.055-.055-1.94-2.027-.033-.033v-.055q-.246-3.584-.5-7.24v-.109l.1-.033,5.868-2.038h.1a11.649,11.649,0,0,0,5.005.94,5.848,5.848,0,0,0,1.508-.322,5.934,5.934,0,0,0,1.366-.721,4.453,4.453,0,0,0,1.093-1.093,1.186,1.186,0,0,0-.027-1.328,1.256,1.256,0,0,0-.546-.437l-.7-.35-1.535-.623c-.934-.448-1.874-.885-2.814-1.3s-1.885-.82-2.841-1.169a4.968,4.968,0,0,0-2.9-.47,28.253,28.253,0,0,0-5.617,2.027c-.9.426-1.787.852-2.645,1.328a15.678,15.678,0,0,0-2.431,1.568,1.093,1.093,0,0,0-.24.235l-.1.126a1.1,1.1,0,0,0,0,.142c-.027.213-.055.47-.076.7-.044.481-.087.956-.126,1.437q-.115,1.437-.229,2.852c-.279,3.781-.546,7.469-.809,11.043v.044l-.033.038a9.835,9.835,0,0,0-2.24,4.551,16.752,16.752,0,0,0-.18,2.513c0,.841-.049,1.677-.076,2.5q-.148,4.978-.3,9.6c-.191,6.158-.372,11.83-.546,16.938h0c-4.158,8.234-7.491,14.846-9.8,19.4-1.147,2.273-2.044,4.027-2.65,5.224-.3.59-.546,1.044-.694,1.35S173.2,397.271,173.2,397.271Z" transform="translate(-126.734 -210.262)" fill="#6f4439"/><path d="M223.588,390.242a8.476,8.476,0,0,0,1.863-.585,6.607,6.607,0,0,0,1.836-1.339,17.543,17.543,0,0,0,1.9-2.371,30.053,30.053,0,0,0,3.333-7.169,14.556,14.556,0,0,0,1.093-4.508,5.164,5.164,0,0,0-.475-2.35,4.972,4.972,0,0,0-1.639-1.852,9.939,9.939,0,0,0-4.677-1.541c-1.606-.175-3.191-.208-4.683-.5a18.193,18.193,0,0,1-4.027-1.421,11.617,11.617,0,0,0-3.5-1.049,5.566,5.566,0,0,0-1.579.077,7.819,7.819,0,0,0-1.35.448,9.611,9.611,0,0,0-1.978,1.142,3.589,3.589,0,0,0-.967,1.055,1.474,1.474,0,0,0-.142.344.2.2,0,0,1-.038.126.476.476,0,0,1,0-.131,1.159,1.159,0,0,1,.115-.366,3.421,3.421,0,0,1,.951-1.093,9.247,9.247,0,0,1,1.983-1.2,7.651,7.651,0,0,1,1.377-.486,5.541,5.541,0,0,1,1.639-.093,11.6,11.6,0,0,1,3.579,1.027,18.032,18.032,0,0,0,3.983,1.382c1.464.279,3.038.306,4.666.486a10.081,10.081,0,0,1,4.808,1.585,5.1,5.1,0,0,1,1.71,1.962,5.382,5.382,0,0,1,.5,2.475,14.714,14.714,0,0,1-1.093,4.6,29.243,29.243,0,0,1-3.415,7.2,17.392,17.392,0,0,1-1.951,2.366,6.622,6.622,0,0,1-1.907,1.328,6.238,6.238,0,0,1-1.4.426l-.382.049A.548.548,0,0,1,223.588,390.242Z" transform="translate(-142.77 -234.088)" fill="#6f4439"/><path d="M233.2,403.147a15.968,15.968,0,0,1-.519-1.836c-.3-1.137-.754-2.7-1.339-4.371s-1.169-3.213-1.6-4.317a12.635,12.635,0,0,1-.639-1.8,12.565,12.565,0,0,1,.825,1.727c.475,1.093,1.093,2.59,1.683,4.3a43.166,43.166,0,0,1,1.262,4.442c.126.579.219,1.049.268,1.371A1.64,1.64,0,0,1,233.2,403.147Z" transform="translate(-152.095 -245.638)" fill="#6f4439"/><path d="M228.25,388.155a.706.706,0,0,0,.257,0,.923.923,0,0,0,.475-.546,5.1,5.1,0,0,0,.437-1.093,2.606,2.606,0,0,0,0-1.475l-.076-.24.235.093a42.314,42.314,0,0,0,4.322,1.361l.481.131.224.06-.158.175a2.776,2.776,0,0,0-.607,2.623l.033.109-.1.049a5.12,5.12,0,0,0-2.415,2.371,12.3,12.3,0,0,0-.475,1.262,1.2,1.2,0,0,1,.033-.361,4.186,4.186,0,0,1,.3-.967,5.1,5.1,0,0,1,2.448-2.541l-.066.153a3.005,3.005,0,0,1,.645-2.9l.066.235-.481-.131a34.258,34.258,0,0,1-4.333-1.415l.158-.142a2.776,2.776,0,0,1-.033,1.6,4.655,4.655,0,0,1-.5,1.093.962.962,0,0,1-.574.546C228.332,388.237,228.244,388.188,228.25,388.155Z" transform="translate(-151.705 -242.907)" fill="#6f4439"/><path d="M205.31,359.56a1.639,1.639,0,0,1,.257-.279,4.555,4.555,0,0,1,.88-.634,9.1,9.1,0,0,1,3.825-.978c3.355-.169,7.972-.268,13.086-.421,1.279,0,2.519-.082,3.737-.071a7.42,7.42,0,0,1,3.426.743,5.546,5.546,0,0,1,2.186,2.289,7.912,7.912,0,0,1,.836,2.634,15.087,15.087,0,0,1-.087,3.978c-.06.464-.12.82-.158,1.065a3.007,3.007,0,0,1-.076.372,1.639,1.639,0,0,1,0-.377c.033-.279.066-.634.109-1.093a16.081,16.081,0,0,0,0-3.934,7.688,7.688,0,0,0-.841-2.552,5.339,5.339,0,0,0-2.115-2.186,7.207,7.207,0,0,0-3.278-.694c-1.2,0-2.448.055-3.726.082-5.1.148-9.742.219-13.081.333a9.289,9.289,0,0,0-3.825.874A6.905,6.905,0,0,0,205.31,359.56Z" transform="translate(-141.299 -230.377)" fill="#6f4439"/><path d="M241.81,343.185a1.892,1.892,0,0,1,.486-.076,5.838,5.838,0,0,1,1.339,0,7.677,7.677,0,0,1,3.994,1.819,11,11,0,0,1,2.694,3.486,7.236,7.236,0,0,1,.317.688,5.233,5.233,0,0,1,.208.546,1.71,1.71,0,0,1,.126.475c-.049,0-.284-.639-.825-1.612a12.141,12.141,0,0,0-2.7-3.36,8.048,8.048,0,0,0-3.825-1.841C242.515,343.152,241.815,343.25,241.81,343.185Z" transform="translate(-157.856 -223.978)" fill="#6f4439"/><path d="M203.62,349.9a3.018,3.018,0,0,1,.366-.355,7.3,7.3,0,0,1,1.142-.792,10.037,10.037,0,0,1,1.9-.825,17.742,17.742,0,0,1,2.47-.546c1.77-.257,3.371-.377,4.519-.546a18.855,18.855,0,0,1,1.869-.268,1.583,1.583,0,0,1-.481.164c-.317.093-.776.191-1.355.306-1.147.219-2.732.377-4.513.634a18.986,18.986,0,0,0-2.431.514,11.135,11.135,0,0,0-1.874.749C204.2,349.465,203.653,349.94,203.62,349.9Z" transform="translate(-140.533 -225.56)" fill="#6f4439"/></g></g></svg>