<svg xmlns="http://www.w3.org/2000/svg" width="250" height="297.29" viewBox="0 0 250 297.29"><g transform="translate(-59 -18.03)"><g transform="translate(59 313.161)"><path d="M309,469.16c0,.092-55.975.17-125,.17s-125-.079-125-.17,55.962-.17,125-.17S309,469.062,309,469.16Z" transform="translate(-59 -468.99)" fill="#263238"/></g><g transform="translate(81.434 264.835)"><path d="M121.779,414.933c1.355,1.891,3.927,1.237,5.124.065a9.572,9.572,0,0,0,2.127-4.47c1.021-3.678,2.048-7.539,1.23-11.263a6.3,6.3,0,0,0-1.466-3.05,3.272,3.272,0,0,0-3.109-.995c-1.309.353-2.1,1.643-2.677,2.866a26.912,26.912,0,0,0-2.539,11.531,9.208,9.208,0,0,0,1.309,5.314" transform="translate(-102.674 -395.148)" fill="#f8951d"/><path d="M128.88,439.4a11.538,11.538,0,0,1,7.16-.942A5.968,5.968,0,0,1,139.594,440a2.551,2.551,0,0,1,.065,3.534,3.4,3.4,0,0,1-2.225.589c-1.891,0-4-.321-5.5.838-.857.654-1.42,1.741-2.448,2.068a2.435,2.435,0,0,1-2.7-1.165,4.169,4.169,0,0,1-.334-3.076,4.7,4.7,0,0,1,2.421-3.39Z" transform="translate(-104.691 -410.042)" fill="#f8951d"/><path d="M108.751,421.031a6.924,6.924,0,0,0,1.021-6.381,12.324,12.324,0,0,0-3.829-5.439,20.2,20.2,0,0,0-6.8-3.927,7.244,7.244,0,0,0-3.043-.491,3.194,3.194,0,0,0-2.533,1.571c-.7,1.361,0,3,.746,4.339a51.865,51.865,0,0,0,4.509,6.715,11.81,11.81,0,0,0,4.921,4.136c2.035.759,4.136.654,5.236-.772" transform="translate(-93.279 -398.477)" fill="#f8951d"/><path d="M122.737,459.952a4.364,4.364,0,0,0,.111-.87c.052-.654.124-1.42.209-2.363a32.329,32.329,0,0,1,.491-3.475,25.994,25.994,0,0,1,1.217-4.1,15.051,15.051,0,0,1,2.048-3.717,7.762,7.762,0,0,1,2.618-2.219,7.4,7.4,0,0,1,2.212-.713,4.581,4.581,0,0,0,.864-.131,3.925,3.925,0,0,0-.877,0,6.6,6.6,0,0,0-2.31.622,7.788,7.788,0,0,0-2.762,2.238,14.9,14.9,0,0,0-2.127,3.8,25.267,25.267,0,0,0-1.211,4.162,29.952,29.952,0,0,0-.425,3.508c-.065,1-.085,1.819-.092,2.376a4.045,4.045,0,0,0,.033.884Z" transform="translate(-103.443 -411.456)" fill="#263238"/><path d="M122.865,445.861a1.57,1.57,0,0,0,0-.4V440.1c.059-3.56.314-8.508.857-13.881s1.309-10.268,1.963-13.743c.164-.877.327-1.662.484-2.356s.268-1.309.393-1.767.19-.825.255-1.119a2.1,2.1,0,0,0,.072-.4,1.825,1.825,0,0,0-.137.38l-.321,1.106c-.144.478-.295,1.067-.458,1.754s-.353,1.479-.53,2.349a131,131,0,0,0-2.088,13.783c-.537,5.412-.759,10.347-.746,13.914,0,1.78.046,3.226.1,4.221,0,.465.059.844.079,1.145A1.505,1.505,0,0,0,122.865,445.861Z" transform="translate(-103.414 -399.184)" fill="#263238"/><path d="M116.048,438a9.242,9.242,0,0,0,0-1.2c-.052-.772-.17-1.885-.4-3.272a42.3,42.3,0,0,0-1.106-4.719,41,41,0,0,0-2.029-5.576,29.849,29.849,0,0,0-5.89-8.992,14.39,14.39,0,0,0-1.381-1.257c-.209-.177-.4-.353-.589-.491l-.53-.36a7.916,7.916,0,0,0-1.014-.654,36.078,36.078,0,0,1,3.331,2.919,31.29,31.29,0,0,1,5.759,8.972,44.04,44.04,0,0,1,2.042,5.524c.537,1.734.9,3.331,1.171,4.673s.412,2.448.51,3.213a7.521,7.521,0,0,0,.124,1.217Z" transform="translate(-96.676 -400.791)" fill="#263238"/><path d="M375.324,411.669a7.2,7.2,0,0,1,2.768,4.935,12.866,12.866,0,0,1-.72,5.726c-1.2,3.554-4.064,6.793-6.924,9.228-2.493-3.344-2.192-8.168-1.885-10.609.478-3.855,3.7-10.53,6.76-9.28" transform="translate(-188.333 -400.803)" fill="#455a64"/><path d="M375.3,449.583a6.165,6.165,0,0,1,2.788-5.524,8.181,8.181,0,0,1,6.243-1.027,3.436,3.436,0,0,1,2.461,1.544,2.618,2.618,0,0,1-.334,2.651,5.269,5.269,0,0,1-2.232,1.656c-2.932,1.309-6.008,2.048-8.927.7" transform="translate(-190.729 -411.617)" fill="#455a64"/><path d="M365.58,461.286a2.783,2.783,0,0,1,.255-.746c.19-.471.478-1.145.864-1.963a26.492,26.492,0,0,1,3.711-6.041,13.285,13.285,0,0,1,5.8-4.038,8.607,8.607,0,0,1,2.12-.425,2.343,2.343,0,0,1,.792,0,17.944,17.944,0,0,0-2.814.654,13.914,13.914,0,0,0-5.582,4.031,30.949,30.949,0,0,0-3.77,5.89A23.833,23.833,0,0,1,365.58,461.286Z" transform="translate(-187.372 -413.424)" fill="#263238"/><path d="M372.408,420a7.932,7.932,0,0,1-.151,1.309c-.124.831-.321,2.022-.582,3.495-.524,2.945-1.309,7-2.291,11.459s-1.963,8.508-2.723,11.368c-.38,1.446-.7,2.618-.936,3.416a8.4,8.4,0,0,1-.406,1.237,7.79,7.79,0,0,1,.242-1.309c.209-.883.484-2.042.812-3.442.687-2.912,1.623-6.931,2.618-11.387s1.806-8.508,2.4-11.42c.288-1.407.53-2.579.713-3.469a7.334,7.334,0,0,1,.3-1.257Z" transform="translate(-187.282 -403.735)" fill="#263238"/><path d="M361,447.361a14.4,14.4,0,0,0-5.236-12.1c-.9-.733-2.16-1.368-3.181-.811s-1.158,1.963-.995,3.128a12.323,12.323,0,0,0,9.254,10.065" transform="translate(-182.518 -408.655)" fill="#455a64"/><path d="M357.349,441.13a3,3,0,0,1,.622.425,6.248,6.248,0,0,1,.654.569,9.771,9.771,0,0,1,.831.825A15.132,15.132,0,0,1,361.3,445.4a17.505,17.505,0,0,1,1.558,3.416,17.775,17.775,0,0,1,.726,3.685,14.832,14.832,0,0,1-.072,3.056,9.212,9.212,0,0,1-.2,1.158,5.71,5.71,0,0,1-.216.864,2.755,2.755,0,0,1-.262.707c-.085,0,.236-1.054.38-2.755a17.742,17.742,0,0,0,0-3,18.82,18.82,0,0,0-.746-3.593,18.527,18.527,0,0,0-1.486-3.344,16.756,16.756,0,0,0-1.728-2.448C358.147,441.85,357.3,441.2,357.349,441.13Z" transform="translate(-184.527 -411.037)" fill="#263238"/></g><g transform="translate(96.418 18.03)"><path d="M310.342,240.169a3.865,3.865,0,0,0-5.962-1.544l-.713.9a3.672,3.672,0,1,0,6.675.641Z" transform="translate(-180.822 -93.965)" fill="#f8951d"/><g transform="translate(122.178 143.569)" opacity="0.7"><path d="M310.439,239.96a4.126,4.126,0,0,0-6.368-1.656l-.766.969a3.921,3.921,0,1,0,7.134.687Z" transform="translate(-302.862 -237.403)" fill="#fff"/></g><path d="M328.428,211.68c-1.309-3.966-7.166-5.484-10.255-2.657l-1.23,1.551c-2.062,3.645.72,8.992,4.889,9.391S329.75,215.652,328.428,211.68Z" transform="translate(-185.309 -83.526)" fill="#f8951d"/><g transform="translate(130.764 123.888)" opacity="0.7"><path d="M328.5,211.545c-1.368-4.071-7.363-5.622-10.537-2.723l-1.27,1.564c-2.114,3.737.746,9.215,5.026,9.627S329.861,215.622,328.5,211.545Z" transform="translate(-315.981 -207.331)" fill="#fff"/></g><path d="M227.465,21.278c-11.78-6.2-29.038-.137-36.23,12.592a33.757,33.757,0,0,0-47.042,32.723,40.841,40.841,0,0,0-25.661,33.593,39.944,39.944,0,0,0,61.139,37.52c4.391,13.678,20.661,21.381,34.745,18.514s25.327-14.463,30.55-27.853c12.546,6.891,29.882,1.636,37.6-10.425s5.8-29.025-3.4-40c-1.486-1.767-3.187-3.495-3.776-5.726-.713-2.7.347-5.491,1.086-8.181A36.906,36.906,0,0,0,265.4,27.273,36.961,36.961,0,0,0,227.439,21.3" transform="translate(-116.931 -18.196)" fill="#f8951d"/><g opacity="0.7"><path d="M226.7,20.851c-11.944-6.257-29.123-.654-36.414,12.205-10.609-4.535-23.835-2.749-33.318,3.815a34.64,34.64,0,0,0-14.634,29.653,41.228,41.228,0,0,0-25.995,33.868,40.452,40.452,0,0,0,61.937,37.84c4.45,13.8,20.942,21.6,35.2,18.671s25.661-14.581,30.949-28.089c12.716,6.95,30.281,1.656,38.1-10.51s5.89-29.274-3.449-40.34c-1.505-1.78-3.233-3.527-3.829-5.779-.72-2.716.353-5.537,1.106-8.246a37.106,37.106,0,0,0-11.224-37.075A37.54,37.54,0,0,0,226.7,20.851" transform="translate(-116.174 -18.03)" fill="#fff"/></g><path d="M266.222,109.531a27.742,27.742,0,1,0-39.562,25.1v7H250.98s.144-3.927.2-7.435a27.729,27.729,0,0,0,15.046-24.66Z" transform="translate(-148.849 -40.061)" fill="#f8951d"/><path d="M248.947,156.218v-.347c0-.229.065-.569.118-1,.1-.877.262-2.173.5-3.835s.576-3.7,1.106-6.034a40.645,40.645,0,0,1,2.52-7.716,26.359,26.359,0,0,1,2.277-4.156,5.138,5.138,0,0,1,1.9-1.7,2.853,2.853,0,0,1,2.618.085,1.9,1.9,0,0,1,.883,1.1,1.963,1.963,0,0,1-.118,1.427,3.986,3.986,0,0,1-2.14,1.846,7.592,7.592,0,0,1-5.772-.412,7.67,7.67,0,0,1-3.927-4.627,5.766,5.766,0,0,1-.164-3.2,2.493,2.493,0,0,1,2.52-1.924,1.78,1.78,0,0,1,1.414.975,2.539,2.539,0,0,1,.223,1.708,5.458,5.458,0,0,1-1.963,2.762,8.285,8.285,0,0,1-6.466,1.872,7.2,7.2,0,0,1-5.366-4,4.2,4.2,0,0,1-.19-3.357,2.147,2.147,0,0,1,1.217-1.23,2.1,2.1,0,0,1,1.708.157,2.768,2.768,0,0,1,1.171,1.217,4.359,4.359,0,0,1,.425,1.6,7.945,7.945,0,0,1-.425,3.168,8.239,8.239,0,0,1-3.927,4.653,8.41,8.41,0,0,1-5.74.785,4.392,4.392,0,0,1-2.5-1.309,2.14,2.14,0,0,1-.151-2.67,1.774,1.774,0,0,1,1.243-.609,2.618,2.618,0,0,1,1.309.255,4.025,4.025,0,0,1,1.7,1.9c.694,1.505,1.257,2.965,1.819,4.359,2.219,5.6,3.8,10.2,4.849,13.39.524,1.6.916,2.847,1.178,3.691.124.412.216.733.288.962a2.187,2.187,0,0,1,.085.334s-.046-.1-.118-.321l-.321-.956c-.288-.851-.707-2.081-1.237-3.665-1.093-3.181-2.7-7.768-4.948-13.344-.569-1.387-1.145-2.866-1.832-4.332a3.737,3.737,0,0,0-1.584-1.774,1.67,1.67,0,1,0-2.075,2.618,4.169,4.169,0,0,0,2.343,1.217,8.063,8.063,0,0,0,5.524-.779,7.919,7.919,0,0,0,3.75-4.476,7.572,7.572,0,0,0,.4-3.037,3.017,3.017,0,0,0-1.42-2.552,1.754,1.754,0,0,0-1.433-.137,1.793,1.793,0,0,0-1.021,1.047,3.861,3.861,0,0,0,.183,3.089,6.891,6.891,0,0,0,5.111,3.8,7.958,7.958,0,0,0,6.2-1.8,5.118,5.118,0,0,0,1.832-2.572,2.14,2.14,0,0,0-.19-1.479,1.453,1.453,0,0,0-1.145-.8,1.963,1.963,0,0,0-1.381.445,2.4,2.4,0,0,0-.792,1.243,5.484,5.484,0,0,0,.157,3.01,7.369,7.369,0,0,0,3.75,4.444,7.284,7.284,0,0,0,5.517.412,3.691,3.691,0,0,0,1.963-1.688,1.649,1.649,0,0,0-.654-2.16,2.618,2.618,0,0,0-2.369-.079,4.843,4.843,0,0,0-1.8,1.61,26.052,26.052,0,0,0-2.277,4.1,41.491,41.491,0,0,0-2.552,7.664c-.543,2.323-.89,4.346-1.158,6.008s-.439,2.938-.569,3.829c-.065.425-.111.759-.144.995S248.947,156.218,248.947,156.218Z" transform="translate(-155.612 -54.765)" fill="#263238"/><rect width="24.012" height="3.135" rx="1.567" transform="translate(77.811 102.932)" fill="#263238"/><path d="M257.464,182.188H236.587a1.571,1.571,0,1,0,0,3.135h2.31l3.043,5.785a2,2,0,0,0,1.78,1.073h7.461a2,2,0,0,0,1.787-1.093l2.945-5.753h1.558a1.571,1.571,0,0,0,0-3.135Z" transform="translate(-157.205 -74.754)" fill="#263238"/><g transform="translate(64.973 46.814)" opacity="0.2"><path d="M233.821,89.849c.118.5-1.963,1.25-4.817,3.148a22.794,22.794,0,0,0-10.4,22.376c.386,3.384,1.171,5.471.707,5.707-.2.1-.654-.288-1.257-1.158a14.829,14.829,0,0,1-1.813-4.071,20.472,20.472,0,0,1-.766-6.63,21.086,21.086,0,0,1,6.813-14.679,20.379,20.379,0,0,1,5.556-3.691,14.529,14.529,0,0,1,4.28-1.243C233.173,89.5,233.769,89.6,233.821,89.849Z" transform="translate(-215.453 -89.562)" fill="#fff"/></g><g transform="translate(86.511 44.874)" opacity="0.2"><path d="M255.37,88.6c-.19.929-1.747,1.394-3.508,1.394s-3.3-.5-3.488-1.427c-.079-.465.249-.956.884-1.309a5.2,5.2,0,0,1,2.618-.654,5.124,5.124,0,0,1,2.618.654C255.128,87.64,255.449,88.17,255.37,88.6Z" transform="translate(-248.362 -86.598)" fill="#fff"/></g><path d="M256.655,195.9c0,.052-.55-.19-1.433-.445a11.852,11.852,0,0,0-3.541-.445,12.206,12.206,0,0,0-3.514.654,12.593,12.593,0,0,1-1.407.524,4.581,4.581,0,0,1,1.309-.746,10.17,10.17,0,0,1,7.2-.209A4.274,4.274,0,0,1,256.655,195.9Z" transform="translate(-161.298 -79.071)" fill="#455a64"/><path d="M258.152,187c0,.092-3.77.17-8.423.17s-8.429-.079-8.429-.17,3.77-.17,8.429-.17S258.152,186.9,258.152,187Z" transform="translate(-159.411 -76.359)" fill="#455a64"/><path d="M257.627,190.839a11.689,11.689,0,0,1-2.055.209c-1.276.079-3.037.151-4.98.183s-3.711,0-4.98-.046a11.3,11.3,0,0,1-2.062-.151,13.087,13.087,0,0,1,2.062-.085l4.974-.065,4.974-.079a13.174,13.174,0,0,1,2.068.033Z" transform="translate(-160.189 -77.724)" fill="#455a64"/><path d="M294.308,82.259h0a9.221,9.221,0,0,1-9.228-9.221h0a9.228,9.228,0,0,1,9.228-9.228h0a9.221,9.221,0,0,1,9.221,9.228h0A9.221,9.221,0,0,1,294.308,82.259Z" transform="translate(-174.539 -33.85)" fill="#455a64"/><path d="M301.561,74.935a4.967,4.967,0,0,0-9.928-.092v.216a4.895,4.895,0,0,0,.707,2.546l-.89,2.618,2.749-.87a5.033,5.033,0,0,0,2.4.609,4.948,4.948,0,0,0,4.967-4.928.794.794,0,0,0-.007-.1ZM296.6,79.2a4.13,4.13,0,0,1-2.3-.654l-1.61.517.524-1.545a4.1,4.1,0,0,1-.8-2.428V74.68a4.175,4.175,0,0,1,8.318.085v.321A4.162,4.162,0,0,1,296.6,79.2Z" transform="translate(-176.741 -36.022)" fill="#fff" fill-rule="evenodd"/><path d="M300.333,77.474c-.124-.059-.726-.353-.838-.393s-.19-.059-.275.059a5.152,5.152,0,0,1-.386.471c-.072.085-.137.092-.262,0a3.2,3.2,0,0,1-.982-.6,3.632,3.632,0,0,1-.654-.831c-.072-.124,0-.19.052-.249s.124-.144.183-.209l.046-.059.079-.144a.229.229,0,0,0,0-.216l-.373-.9c-.1-.242-.2-.2-.275-.2h-.236a.478.478,0,0,0-.327.151,1.355,1.355,0,0,0-.425,1.008,1.434,1.434,0,0,0,.065.412,2.788,2.788,0,0,0,.432.838,5.039,5.039,0,0,0,2.081,1.826c1.243.484,1.243.321,1.466.3a1.2,1.2,0,0,0,.818-.576.962.962,0,0,0,.072-.576Z" transform="translate(-178.195 -37.441)" fill="#fff" fill-rule="evenodd"/><path d="M193.238,125.781l-.537.236-1.571.654c-1.381.582-3.416,1.459-6,2.651s-5.733,2.7-9.3,4.62a86.793,86.793,0,0,0-11.643,7.336,27.4,27.4,0,0,0-2.919,2.565,12.52,12.52,0,0,0-1.309,1.531,4.889,4.889,0,0,0-.812,1.793,2.389,2.389,0,0,0,.471,1.885,4.993,4.993,0,0,0,1.6,1.309,14.8,14.8,0,0,0,4.143,1.355,49.213,49.213,0,0,0,9.221.687c3.181,0,6.466-.2,9.817-.51a265.874,265.874,0,0,0,43-8.148,259.74,259.74,0,0,0,41.322-14.47c3.05-1.42,5.982-2.906,8.743-4.5a47.117,47.117,0,0,0,7.6-5.236,13.088,13.088,0,0,0,2.814-3.312,4.338,4.338,0,0,0,.563-1.963,2.618,2.618,0,0,0-.753-1.8,7.657,7.657,0,0,0-3.567-1.734,26.65,26.65,0,0,0-3.835-.654,64.139,64.139,0,0,0-7.251-.229c-2.3.039-4.457.157-6.473.3-4.038.294-7.5.654-10.327,1.041s-5.02.654-6.505.883l-1.688.249-.576.072.569-.111,1.688-.275c1.479-.242,3.665-.576,6.492-.949s6.3-.785,10.334-1.1c2.016-.151,4.182-.281,6.479-.327a62.958,62.958,0,0,1,7.278.209,26.361,26.361,0,0,1,3.874.654,7.952,7.952,0,0,1,3.7,1.8,2.834,2.834,0,0,1,.831,1.963,4.424,4.424,0,0,1-.6,2.107,13.089,13.089,0,0,1-2.86,3.4,47.428,47.428,0,0,1-7.644,5.308c-2.768,1.6-5.707,3.089-8.763,4.516a261.514,261.514,0,0,1-41.361,14.516,260,260,0,0,1-43.063,8.135c-3.357.3-6.649.484-9.817.5a49.4,49.4,0,0,1-9.28-.713,14.581,14.581,0,0,1-4.215-1.394,5.112,5.112,0,0,1-1.682-1.4,3.553,3.553,0,0,1-.484-.988,5.414,5.414,0,0,0-.079-.556,1.387,1.387,0,0,1,.052-.543,5.111,5.111,0,0,1,.9-1.9,13.3,13.3,0,0,1,1.309-1.564,27.881,27.881,0,0,1,2.958-2.618,85.858,85.858,0,0,1,11.682-7.271c3.573-1.9,6.728-3.4,9.326-4.581s4.64-2.029,6.034-2.618l1.584-.654C193.048,125.847,193.238,125.781,193.238,125.781Z" transform="translate(-130.924 -49.675)" fill="#263238"/><path d="M213.763,85.689H212l-5.059-.072a135.544,135.544,0,0,0-18.521.543,45.53,45.53,0,0,0-6.034,1.086,18.482,18.482,0,0,0-3.056,1.08,7.591,7.591,0,0,0-1.407.864,3.03,3.03,0,0,0-.995,1.27,2.133,2.133,0,0,0,.085,1.59A4.974,4.974,0,0,0,178,93.444a14.68,14.68,0,0,0,2.88,2.12,45.237,45.237,0,0,0,6.859,3.128,125.594,125.594,0,0,0,15.6,4.49c5.491,1.243,11.237,2.284,17.153,3.128a204.478,204.478,0,0,0,33.573,2.238,64.838,64.838,0,0,0,14.548-1.728,14.8,14.8,0,0,0,3.122-1.217,6.074,6.074,0,0,0,1.309-.942,2.618,2.618,0,0,0,.713-1.309,2.172,2.172,0,0,0-.373-1.42,6.389,6.389,0,0,0-.995-1.178A15.374,15.374,0,0,0,269.981,99a55.437,55.437,0,0,0-9.627-4.293c-2.932-1.041-5.5-1.806-7.6-2.408s-3.757-1.021-4.876-1.309l-1.27-.327-.432-.118.438.085,1.309.288c1.126.268,2.775.654,4.889,1.25s4.692,1.309,7.637,2.356a54.922,54.922,0,0,1,9.686,4.26,14.981,14.981,0,0,1,2.454,1.78,6.543,6.543,0,0,1,1.034,1.2,2.454,2.454,0,0,1,.419,1.59,2.971,2.971,0,0,1-.779,1.486,6.1,6.1,0,0,1-1.361.995,15.053,15.053,0,0,1-3.187,1.257,64.754,64.754,0,0,1-14.607,1.767,203.44,203.44,0,0,1-33.639-2.212c-5.89-.851-11.682-1.891-17.186-3.148a123.434,123.434,0,0,1-15.628-4.522,46.021,46.021,0,0,1-6.885-3.148,15.144,15.144,0,0,1-2.965-2.205,5.235,5.235,0,0,1-1.041-1.486,2.382,2.382,0,0,1-.092-1.8,3.377,3.377,0,0,1,1.086-1.394,7.854,7.854,0,0,1,1.466-.883,18.326,18.326,0,0,1,3.109-1.093A45.341,45.341,0,0,1,188.4,85.9a129.053,129.053,0,0,1,18.547-.412l5.046.137,1.309.039Z" transform="translate(-137.032 -41.284)" fill="#263238"/><path d="M152.342,177.485h0a12.526,12.526,0,0,1-6.859-16.361h0a12.533,12.533,0,0,1,16.361-6.859h0a12.539,12.539,0,0,1,6.859,16.361h0a12.533,12.533,0,0,1-16.361,6.859Z" transform="translate(-125.977 -64.782)" fill="#f8951d"/><path d="M154.9,171.542a2.762,2.762,0,0,0,1.178,0,2.65,2.65,0,0,0,.929-.4,2.768,2.768,0,0,0,1.027-1.2,2.559,2.559,0,0,0,.255-1.42,2.16,2.16,0,0,0-.654-1.23,2.4,2.4,0,0,0,.89-.183,2.16,2.16,0,0,0,.995-1.093,2.461,2.461,0,0,0,.216-1.505,2.932,2.932,0,0,0-1.819-1.963l-4.182-1.963-4.025,8.658,3.927,1.813a7.021,7.021,0,0,0,1.263.491Zm-.131-8.619,1.885.877a3.586,3.586,0,0,1,.962.609.851.851,0,0,1,.092,1.014.916.916,0,0,1-.707.6,1.924,1.924,0,0,1-1.014-.216l-2.1-.975Zm-2.618,5.654,1.073-2.31,2.127.988a2.336,2.336,0,0,1,.8.55,1.028,1.028,0,0,1,.124,1.185,1.217,1.217,0,0,1-1.073.818,2.291,2.291,0,0,1-.949-.255Z" transform="translate(-127.762 -67.288)" fill="#fff"/><path d="M163.09,176.251a3.822,3.822,0,0,0,1.891,1.832,3.416,3.416,0,0,0,2.84.19,2.323,2.323,0,0,0,1.158-.87l-1.708-.792a1.663,1.663,0,0,1-.55.275,1.564,1.564,0,0,1-1.067-.137,1.846,1.846,0,0,1-.812-.654,1.688,1.688,0,0,1-.039-1.662l4.66,2.166a8.773,8.773,0,0,0,.537-1.309,3.462,3.462,0,0,0,.1-1.564,2.886,2.886,0,0,0-.654-1.459,3.927,3.927,0,0,0-1.368-.995,3.37,3.37,0,0,0-2.7-.177,3.776,3.776,0,0,0-2.068,2.14A3.429,3.429,0,0,0,163.09,176.251Zm3.174-3.7a1.479,1.479,0,0,1,1.165.1,1.662,1.662,0,0,1,.838.812,1.544,1.544,0,0,1,0,1.217l-2.886-1.309a1.963,1.963,0,0,1,.884-.818Z" transform="translate(-132.301 -70.852)" fill="#fff"/><rect width="0.962" height="4.149" transform="matrix(0.421, -0.907, 0.907, 0.421, 34.113, 98.772)" fill="#fff"/><path d="M354.13,117.459h0a10.74,10.74,0,0,1-10.74-10.733h0A10.74,10.74,0,0,1,354.129,96h0a10.739,10.739,0,0,1,10.733,10.74h0A10.733,10.733,0,0,1,354.13,117.459Z" transform="translate(-194.688 -44.973)" fill="#f8951d"/><path d="M351.06,113.519a6.675,6.675,0,0,0,10.268-5.929,4.686,4.686,0,0,0,1.171-1.211,4.954,4.954,0,0,1-1.348.366,2.33,2.33,0,0,0,1.027-1.309,4.7,4.7,0,0,1-1.486.569,2.349,2.349,0,0,0-4.005,2.14,6.662,6.662,0,0,1-4.836-2.454,2.349,2.349,0,0,0,.726,3.135,2.317,2.317,0,0,1-1.06-.295,2.343,2.343,0,0,0,1.878,2.33,2.3,2.3,0,0,1-1.06.039,2.343,2.343,0,0,0,2.192,1.63,4.692,4.692,0,0,1-3.469.988Z" transform="translate(-197.339 -48.172)" fill="#fff"/><path d="M203.11,81.35h0a11.78,11.78,0,0,1-11.78-11.78h0a11.78,11.78,0,0,1,11.78-11.78h0a11.78,11.78,0,0,1,11.78,11.78h0a11.78,11.78,0,0,1-11.78,11.78Z" transform="translate(-142.144 -31.769)" fill="#f8951d"/><path d="M202.675,73.182a.281.281,0,0,0,.406-.2,4.551,4.551,0,0,1,.164-.654.386.386,0,0,0-.118-.445,2.317,2.317,0,0,1-.53-1.584,3.809,3.809,0,0,1,3.966-3.855,3.01,3.01,0,0,1,3.351,3.089c0,2.323-1.027,4.28-2.559,4.28a1.243,1.243,0,0,1-1.27-1.564,17.268,17.268,0,0,0,.713-2.86,1.08,1.08,0,0,0-1.086-1.211c-.864,0-1.551.9-1.551,2.088a3.135,3.135,0,0,0,.255,1.309s-.884,3.73-1.034,4.385a8.967,8.967,0,0,0,0,3.063.1.1,0,0,0,.19.046,8.555,8.555,0,0,0,1.453-2.618c.1-.353.569-2.212.569-2.212a2.3,2.3,0,0,0,1.963,1c2.618,0,4.346-2.356,4.346-5.517a4.788,4.788,0,0,0-5.1-4.581c-3.842-.092-5.8,2.677-5.8,4.967A3.114,3.114,0,0,0,202.675,73.182Z" transform="translate(-145.486 -34.308)" fill="#fff"/><path d="M303.912,155.917h0a7.585,7.585,0,0,1-7.592-7.585h0a7.592,7.592,0,0,1,7.592-7.592h0a7.592,7.592,0,0,1,7.592,7.592h0A7.592,7.592,0,0,1,303.912,155.917Z" transform="translate(-178.423 -60.433)" fill="#455a64"/><path d="M305.736,146.726h1.682a2.3,2.3,0,0,1,.772.144,1.309,1.309,0,0,1,.478.314,1.23,1.23,0,0,1,.308.478,2.106,2.106,0,0,1,.144.772V151.8a2.141,2.141,0,0,1-.144.773,1.342,1.342,0,0,1-.785.785,2.3,2.3,0,0,1-.772.144h-3.364a2.259,2.259,0,0,1-.772-.144,1.23,1.23,0,0,1-.478-.308,1.309,1.309,0,0,1-.314-.478,2.3,2.3,0,0,1-.144-.772c0-.438,0-.576,0-1.682v-1.682a2.258,2.258,0,0,1,.144-.772,1.414,1.414,0,0,1,.792-.792,2.258,2.258,0,0,1,.772-.144h1.682m0-.746h-1.715a3.213,3.213,0,0,0-1.014.19,1.963,1.963,0,0,0-.733.484,2.015,2.015,0,0,0-.484.733,3.212,3.212,0,0,0-.19,1.014v3.429a3.129,3.129,0,0,0,.19,1.008,2.043,2.043,0,0,0,.484.74,2,2,0,0,0,.733.478,3.024,3.024,0,0,0,1.014.2h3.429a2.945,2.945,0,0,0,1.008-.2,2.094,2.094,0,0,0,1.217-1.217,2.945,2.945,0,0,0,.2-1.008V148.4a3.023,3.023,0,0,0-.2-1.014,2,2,0,0,0-.478-.733,1.964,1.964,0,0,0-.74-.484,3.128,3.128,0,0,0-1.008-.19h-1.715" transform="translate(-180.248 -62.243)" fill="#fff"/><path d="M306.787,149.07a2.134,2.134,0,1,0,1.511.627,2.14,2.14,0,0,0-1.511-.627m0,3.527a1.387,1.387,0,1,1,1.387-1.387,1.387,1.387,0,0,1-1.387,1.387" transform="translate(-181.298 -63.311)" fill="#fff"/><path d="M311.551,148.677a.51.51,0,0,1-.5.5.5.5,0,0,1-.5-.5.5.5,0,0,1,.5-.5.5.5,0,0,1,.5.5" transform="translate(-183.341 -63.004)" fill="#fff"/><path d="M177.068,126.989h0a6.368,6.368,0,0,1-6.368-6.348h0a6.368,6.368,0,0,1,6.368-6.361h0a6.361,6.361,0,0,1,6.361,6.361h0a6.368,6.368,0,0,1-6.361,6.348Z" transform="translate(-135.015 -51.289)" fill="#455a64"/><path d="M178.515,125.79h1.551v-3.881h1.106l.118-1.309h-1.2v-.74c0-.308.065-.425.36-.425h.838V118.1h-1.1c-1.152,0-1.675.5-1.675,1.479v1.034h-.8v1.309h.8Z" transform="translate(-137.438 -52.609)" fill="#fff"/><path d="M327,83.89l.6,1.093,1.086.6-1.086.589-.6,1.086-.589-1.086-1.093-.589,1.093-.6Z" transform="translate(-188.444 -40.788)" fill="#f8951d"/><path d="M285.882,176.04l.6,1.093,1.086.6-1.086.589-.6,1.093-.6-1.093-1.086-.589,1.086-.6Z" transform="translate(-174.235 -72.631)" fill="#f8951d"/><path d="M148.38,127.34l.883,1.61,1.6.877-1.6.877-.883,1.61-.877-1.61-1.6-.877,1.6-.877Z" transform="translate(-126.446 -55.802)" fill="#f8951d"/><path d="M263.747,46.46l.877,1.6,1.61.884-1.61.877-.877,1.6-.877-1.6-1.61-.877,1.61-.884Z" transform="translate(-166.308 -27.854)" fill="#f8951d"/><path d="M335.764,151.12l1.374,2.507,2.5,1.368-2.5,1.374-1.374,2.507-1.368-2.507-2.507-1.374,2.507-1.368Z" transform="translate(-190.715 -64.019)" fill="#f8951d"/></g><g transform="translate(124.826 145.372)"><path d="M224.754,222.819c9.817-12.886,20.1-11.067,27.258-7.952a19.686,19.686,0,0,1,11.492,18.75c-.131,2.055-.569,4.221.268,6.106,1.348,3.03,5.236,3.887,7.533,6.3,3.1,3.312,2.415,8.547,1.368,12.958s-2.153,9.45.445,13.168c2.376,3.4,6.9,4.319,10.641,6.132a19.5,19.5,0,0,1,10.334,12.166,16.662,16.662,0,0,1-3.534,15.373c-3.632,3.927-9.09,5.707-14.4,6.492a53.043,53.043,0,0,1-60.707-55.17" transform="translate(-178.865 -212.609)" fill="#263238"/><path d="M293.976,307.584c0-.033.334-.321.884-.995a9,9,0,0,0,1.741-3.331,12.33,12.33,0,0,0,.052-5.923,14.437,14.437,0,0,0-3.632-6.918,17.545,17.545,0,0,0-3.541-2.919A29.081,29.081,0,0,0,285,285.293a33.287,33.287,0,0,1-4.935-2.336A15.367,15.367,0,0,1,275.809,279a20.347,20.347,0,0,1-3.783-11.728,31.358,31.358,0,0,1,.556-6.544c.4-2.186.955-4.359,1.374-6.577a24.564,24.564,0,0,0,.543-4.673,12.8,12.8,0,0,0-1.027-4.437c-.569-1.42-1.237-2.8-1.774-4.241a20.552,20.552,0,0,1-.923-4.431c-.177-1.479-.177-2.938-.34-4.319a24.87,24.87,0,0,0-.792-4.058,21.355,21.355,0,0,0-3.272-7h0a14.5,14.5,0,0,0-10.1-6.544,13.848,13.848,0,0,0-9.162,1.918,14.784,14.784,0,0,0-4.5,4.175c-.818,1.178-1.119,1.885-1.158,1.865a9.3,9.3,0,0,1,1.021-1.963,14.339,14.339,0,0,1,4.47-4.352A14.117,14.117,0,0,1,256.352,214a14.98,14.98,0,0,1,10.51,6.669h0a21.86,21.86,0,0,1,3.423,7.2,25.792,25.792,0,0,1,.825,4.143c.177,1.44.177,2.886.36,4.319a19.6,19.6,0,0,0,.9,4.287c.524,1.394,1.191,2.768,1.774,4.221a13.553,13.553,0,0,1,1.08,4.653,25.8,25.8,0,0,1-.55,4.817c-.432,2.238-.988,4.411-1.381,6.544a30.639,30.639,0,0,0-.556,6.42,19.79,19.79,0,0,0,3.626,11.387,14.994,14.994,0,0,0,4.084,3.829,33.378,33.378,0,0,0,4.836,2.323,28.8,28.8,0,0,1,4.581,2.251,17.759,17.759,0,0,1,3.613,3.037,14.725,14.725,0,0,1,3.652,7.147,12.435,12.435,0,0,1-.164,6.073,8.737,8.737,0,0,1-1.885,3.344,5.71,5.71,0,0,1-1.1.923Z" transform="translate(-187.871 -213.048)" fill="#455a64"/><path d="M268.038,357.078c-3.089-17.8-8.658-26.525-10.576-28.626-6.688-7.323-27.814-6.224-27.814-6.224l-29.5,3.593s-21.512,2.232-27.435,19.457L168.13,365.77l23.678.942.465,3.927c.576,2.1,1.309,4.581,2.094,6.623,1.309,3.39,4.463,10.55,2.618,13.868-4.725,8.357-9.306,28.226-9.306,28.226h0l67.86-.884-8.089-49.391,20.6-12" transform="translate(-162.535 -250.468)" fill="#f8951d"/><path d="M218.771,233.979a4.339,4.339,0,0,0-3.6,4.653h0l4.647,59.6c.543,6.924,6.918,11.97,14.326,11.335h0c7.474-.654,13.187-6.832,12.755-13.829-.452-7.349-.792-15.092-.792-15.092s9.359-2.179,10.524-14.653c.576-6.2-.38-16.237-1.427-24.431a13.089,13.089,0,0,0-15.164-11.23Z" transform="translate(-178.785 -218.67)" fill="#b78876"/><path d="M268.405,257.58a1.6,1.6,0,0,1-1.427,1.7,1.512,1.512,0,0,1-1.721-1.309,1.577,1.577,0,0,1,1.42-1.7,1.518,1.518,0,0,1,1.728,1.309Z" transform="translate(-196.096 -227.691)" fill="#263238"/><path d="M270.221,255.032c-.183.223-1.44-.589-3.148-.471s-2.893,1.047-3.1.844c-.092-.085.079-.471.6-.9a4.391,4.391,0,0,1,2.461-.936,4.221,4.221,0,0,1,2.52.654C270.11,254.574,270.306,254.934,270.221,255.032Z" transform="translate(-195.647 -226.759)" fill="#263238"/><path d="M242.826,259.9a1.584,1.584,0,0,1-1.427,1.7,1.512,1.512,0,0,1-1.721-1.309,1.59,1.59,0,0,1,1.42-1.7,1.518,1.518,0,0,1,1.728,1.309Z" transform="translate(-187.257 -228.493)" fill="#263238"/><path d="M244.693,257.222c-.183.223-1.44-.589-3.141-.478s-2.9,1.047-3.1.851c-.1-.085.072-.471.6-.9a4.391,4.391,0,0,1,2.461-.936,4.215,4.215,0,0,1,2.52.654C244.562,256.731,244.765,257.091,244.693,257.222Z" transform="translate(-186.827 -227.516)" fill="#263238"/><path d="M257.757,269.178a10.943,10.943,0,0,1,2.736-.654c.432-.072.838-.183.89-.484a2.179,2.179,0,0,0-.373-1.276c-.478-1.021-.975-2.1-1.5-3.226-2.088-4.581-3.632-8.4-3.449-8.508s2.035,3.58,4.123,8.181c.5,1.139.988,2.219,1.446,3.272a2.52,2.52,0,0,1,.34,1.688,1.106,1.106,0,0,1-.654.654,2.866,2.866,0,0,1-.733.151A11.161,11.161,0,0,1,257.757,269.178Z" transform="translate(-192.915 -227.266)" fill="#263238"/><path d="M253.569,305.568a31.479,31.479,0,0,1-16.819-3.338s4.581,8.22,16.839,6.263Z" transform="translate(-186.247 -243.578)" fill="#aa6550"/><path d="M243.922,247.14c-.137.471-1.852.36-3.835.733s-3.567,1.021-3.855.622c-.131-.2.118-.654.746-1.139a6.8,6.8,0,0,1,5.857-1.034C243.575,246.571,243.968,246.911,243.922,247.14Z" transform="translate(-186.056 -224.168)" fill="#263238"/><path d="M269.006,247.505c-.275.406-1.473.079-2.886.157s-2.618.425-2.893.039c-.131-.19.033-.589.53-.988a3.992,3.992,0,0,1,2.3-.785,3.927,3.927,0,0,1,2.349.654C268.954,246.923,269.13,247.283,269.006,247.505Z" transform="translate(-195.381 -224.121)" fill="#263238"/><path d="M254.353,279.12a5.176,5.176,0,0,1,3.128,1.093,1.963,1.963,0,0,1,.8.8,1.662,1.662,0,0,1-.17,1.479A2.984,2.984,0,0,1,255.3,284a2.749,2.749,0,0,1-2.369-2.1,2.539,2.539,0,0,1,1.427-2.781" transform="translate(-191.821 -235.592)" fill="#aa6550"/><path d="M258.11,282.379c0,.131-.425.327-1.165.281a6.368,6.368,0,0,1-2.67-.87A7.316,7.316,0,0,1,252.142,280c-.445-.569-.582-1.021-.471-1.093.229-.144,1.348,1.027,3.109,1.963a13.584,13.584,0,0,0,2.3,1.054C257.685,282.163,258.1,282.235,258.11,282.379Z" transform="translate(-191.39 -235.513)" fill="#263238"/><path d="M213.361,292.17c8.508-3,9.372-21.7,3.573-30.648a14.313,14.313,0,0,0,1.931-16.073,11.865,11.865,0,0,0,7.421-16.728s-4.954-2.821-9.653-1.538-8.056,4.935-10.236,13.743-.151,16.505-3.822,22.022-8.259,9.627-7.709,15.465,4.476,17.814,4.476,17.814Z" transform="translate(-171.759 -217.53)" fill="#263238"/><path d="M196.229,285.183a11.859,11.859,0,0,1-.465-2.493,16.707,16.707,0,0,1,6.872-15.046,19.04,19.04,0,0,0,4.4-4.051,9.91,9.91,0,0,0,1.263-2.867,16.822,16.822,0,0,0,.471-3.226c.131-2.212,0-4.391.19-6.505a15.891,15.891,0,0,1,.51-3.076,10.636,10.636,0,0,1,.51-1.433,8.386,8.386,0,0,1,.694-1.309,17.31,17.31,0,0,1,3.809-3.979c1.309-1.08,2.618-2.029,3.685-3.017a11.416,11.416,0,0,0,3.639-5.7,7.238,7.238,0,0,0,.039-2.5.449.449,0,0,0,.046.157l.1.484a6.315,6.315,0,0,1-.059,1.885,11.3,11.3,0,0,1-3.593,5.851c-1.073,1.008-2.356,1.963-3.678,3.063a16.813,16.813,0,0,0-3.717,3.927,7.382,7.382,0,0,0-.654,1.309,9.957,9.957,0,0,0-.491,1.387,15.71,15.71,0,0,0-.491,3.017c-.17,2.088-.052,4.267-.183,6.505a17.22,17.22,0,0,1-.484,3.272,10.156,10.156,0,0,1-1.309,2.965,19.148,19.148,0,0,1-4.483,4.11,16.7,16.7,0,0,0-3.829,3.822,16.885,16.885,0,0,0-2.166,4.2,17.762,17.762,0,0,0-.877,3.809,17.017,17.017,0,0,0-.052,2.958,15.431,15.431,0,0,0,.229,1.859c.039.2.065.353.085.484A.518.518,0,0,1,196.229,285.183Z" transform="translate(-172.061 -218.612)" fill="#455a64"/><g transform="translate(66.616 106.198)" opacity="0.2"><path d="M275.3,419.867a9.141,9.141,0,0,1-8.318-1.859,14.476,14.476,0,0,1-4.548-7.48,36.559,36.559,0,0,1-1.014-8.815c-.223-8.946.3-17.893.9-26.832Z" transform="translate(-261.37 -374.88)"/></g><path d="M210.936,407.69a8.292,8.292,0,0,1-.5-1.028c-.3-.654-.726-1.636-1.23-2.84a74.7,74.7,0,0,1-3.39-9.653,37.094,37.094,0,0,1-1.309-10.144,23.906,23.906,0,0,1,.249-3.1c.046-.366.1-.654.144-.831a1.577,1.577,0,0,1,.072-.288,8.86,8.86,0,0,1-.085,1.132c-.072.726-.144,1.78-.144,3.082a39.828,39.828,0,0,0,1.394,10.052,88.809,88.809,0,0,0,3.272,9.653c.458,1.178.844,2.147,1.132,2.886A6.3,6.3,0,0,1,210.936,407.69Z" transform="translate(-175.106 -270.385)" fill="#263238"/><path d="M255.052,368.926a3.45,3.45,0,0,1-.654.654,4.776,4.776,0,0,1-.929.589,2.657,2.657,0,0,1-1.446.268,1.833,1.833,0,0,1-1.492-.975,10.308,10.308,0,0,1-.543-1.963c-.314-1.374-.654-2.873-1.008-4.45-.707-3.161-1.309-6.027-1.76-8.1-.2-.995-.366-1.819-.491-2.467a4.367,4.367,0,0,1-.137-.91,4.7,4.7,0,0,1,.262.883l.6,2.441c.491,2.062,1.152,4.921,1.859,8.082.347,1.577.654,3.076.982,4.457a11.126,11.126,0,0,0,.484,1.885,1.577,1.577,0,0,0,1.309.864,3.272,3.272,0,0,0,2.264-.72,6.081,6.081,0,0,1,.7-.537Z" transform="translate(-189.647 -260.627)" fill="#263238"/><path d="M251.808,354.2a.748.748,0,0,1,.366-.157,1.649,1.649,0,0,1,1.08.2,1.819,1.819,0,0,1,.949,1.342,1.8,1.8,0,0,1-3.024,1.374,1.845,1.845,0,0,1-.393-1.59,1.675,1.675,0,0,1,.563-.956c.209-.157.353-.183.36-.17s-.111.092-.275.268a1.662,1.662,0,0,0-.406.9,1.616,1.616,0,0,0,.38,1.309,1.512,1.512,0,0,0,2.48-1.132,1.636,1.636,0,0,0-.753-1.165,1.7,1.7,0,0,0-.949-.275C251.945,354.177,251.814,354.229,251.808,354.2Z" transform="translate(-191.082 -261.474)" fill="#263238"/><path d="M255.441,366.473a.761.761,0,0,1,.373-.164,1.649,1.649,0,0,1,1.08.2,1.833,1.833,0,0,1,.949,1.342,1.806,1.806,0,0,1-3.024,1.381,1.859,1.859,0,0,1-.393-1.6,1.636,1.636,0,0,1,.563-.949c.2-.164.353-.19.36-.177s-.111.1-.275.275a1.728,1.728,0,0,0,0,2.232,1.512,1.512,0,0,0,2.48-1.132,1.61,1.61,0,0,0-.759-1.165,1.682,1.682,0,0,0-.942-.281C255.612,366.447,255.481,366.5,255.441,366.473Z" transform="translate(-192.34 -265.714)" fill="#263238"/><path d="M266.657,354.078c0,.092-20.733,2.035-46.315,4.346S174,362.534,174,362.429s20.726-2.042,46.322-4.346S266.651,353.987,266.657,354.078Z" transform="translate(-164.564 -261.492)" fill="#fafafa"/><path d="M266.7,359c0,.092-21.211,2.081-47.382,4.437s-47.408,4.2-47.415,4.1,21.2-2.081,47.382-4.444S266.684,358.907,266.7,359Z" transform="translate(-163.838 -263.193)" fill="#fafafa"/><path d="M201.62,333.81a5.665,5.665,0,0,1,.321,1.008c.19.654.425,1.6.654,2.781a72.838,72.838,0,0,1,1.433,9.365,71.987,71.987,0,0,1,.2,9.463c-.052,1.211-.124,2.192-.2,2.867a5.889,5.889,0,0,1-.144,1.041,6.392,6.392,0,0,1,0-1.047c0-.654.065-1.656.085-2.866a90.159,90.159,0,0,0-.3-9.431,88.344,88.344,0,0,0-1.309-9.339c-.229-1.185-.432-2.147-.582-2.8A6.63,6.63,0,0,1,201.62,333.81Z" transform="translate(-174.108 -254.49)" fill="#263238"/><path d="M239.54,309.093s11.348-8.213,11.78-7.984,6.08,1.492,6.08,1.492l.923-4.935s-1.61-9.162,0-9.987,1.963,0,1.963.8,1.832,7.343,1.832,7.343l.707,8.959,2.408,2.179v17.67l-11.08,3.017-2.7-5.425L251,318.9s-2.068.8-2.408.347a11.267,11.267,0,0,1-.687-2.618l-.465,3.1s-3.1.923-3.442.347,1.034-8.148,1.034-8.148l3.671-5.052s-4.509,2.749-5.38,3.069A4.342,4.342,0,0,1,239.54,309.093Z" transform="translate(-187.211 -238.431)" fill="#b78876"/><path d="M261.34,346.985c0,.654,1.715,36.649,2.107,39.267s.615,26.99,14.64,28.861c0,0,7.022-.085,7.683-.654h0a32.31,32.31,0,0,0,12.991-23.979l1.459-25.694s-8.05,1.041-18.488,1.963V373.5s-2.428-6.793-2.821-8.691-6.171-20.406-6.171-20.406Z" transform="translate(-194.744 -258.149)" fill="#b78876"/><path d="M272.138,304.643a3.275,3.275,0,0,1-.1-.654l-.2-1.9c-.157-1.675-.38-3.992-.654-6.728h0c-.458-2.369-.995-5.1-1.564-8v-.118l.144.137-1.093-.157h.1a3.757,3.757,0,0,0-1.754,2.526,7.67,7.67,0,0,0,0,2.991c.151.956.366,1.859.5,2.723a12.438,12.438,0,0,1,.137,2.415,11.87,11.87,0,0,1-.654,3.416c-.137.386-.255.654-.347.87s-.144.294-.157.288.151-.419.38-1.2a12.951,12.951,0,0,0,.524-3.384,12.761,12.761,0,0,0-.183-2.369c-.137-.844-.36-1.741-.524-2.716a7.854,7.854,0,0,1,0-3.109,4.1,4.1,0,0,1,1.911-2.755h.1l1.093.151h.124v.236c.556,2.906,1.073,5.641,1.531,8.01h0c.209,2.742.38,5.059.51,6.741q.065,1.178.118,1.9A4.78,4.78,0,0,1,272.138,304.643Z" transform="translate(-196.523 -238.287)" fill="#aa6550"/><path d="M248.723,314.016a3.579,3.579,0,0,1-.615.419c-.412.255-1.021.654-1.793,1.08s-1.7.995-2.8,1.571a3.482,3.482,0,0,1-.91.373,2.061,2.061,0,0,1-1.054-.059,4.287,4.287,0,0,1-1.832-1.243l-.118-.124.151-.1,5.445-3.691,6.132-4.116.059-.039h.065L258,309.723l1.846.491a4.337,4.337,0,0,1,.654.2,3.531,3.531,0,0,1-.654-.111l-1.865-.406-6.544-1.525h.118l-6.113,4.143-5.458,3.671.033-.236a3.959,3.959,0,0,0,1.675,1.165,1.761,1.761,0,0,0,.916.065,3.271,3.271,0,0,0,.844-.334c1.1-.55,2.042-1.073,2.827-1.5l1.832-1A4.856,4.856,0,0,1,248.723,314.016Z" transform="translate(-187.232 -245.599)" fill="#aa6550"/><path d="M250.52,323.124a1.309,1.309,0,0,1,0,.353c0,.268-.065.6-.1,1-.118.923-.275,2.166-.471,3.671v.033h0a2.677,2.677,0,0,1-1.656,1.028,3.1,3.1,0,0,1-2.134-.5l-.085-.052v-.1c.308-1.819.654-3.835,1-5.949q.177-.982.334-1.963V320.6h0a17.3,17.3,0,0,1,1.551-1.852c.524-.569,1.041-1.106,1.531-1.617.995-1.021,1.9-1.963,2.709-2.729h.026a15.374,15.374,0,0,1,1.9-.5,1.61,1.61,0,0,1,.825.1,6.7,6.7,0,0,1,.654.268,8.367,8.367,0,0,0,.851.373,2.011,2.011,0,0,1,.308.111,2.971,2.971,0,0,1-1.211-.36c-.19-.078-.393-.164-.622-.236a1.525,1.525,0,0,0-.753-.072c-.556.092-1.158.347-1.872.55h.059c-.785.818-1.675,1.754-2.657,2.768l-1.512,1.623a18.83,18.83,0,0,0-1.5,1.8v-.052c-.1.654-.216,1.309-.327,1.963-.367,2.114-.72,4.13-1.034,5.949l-.065-.151a2.84,2.84,0,0,0,1.918.478,2.434,2.434,0,0,0,1.5-.9v.059c.236-1.492.432-2.729.576-3.652l.177-.995A1.426,1.426,0,0,1,250.52,323.124Z" transform="translate(-189.468 -247.606)" fill="#aa6550"/><path d="M261.053,325.6a7.953,7.953,0,0,1-1.126.1l-3.082.157.1-.059a5.72,5.72,0,0,1-1.623,1.688l.065-.124a9.776,9.776,0,0,1-.327,2.618,2.787,2.787,0,0,1-.295.654,1.381,1.381,0,0,1-.654.5,2.663,2.663,0,0,1-1.551.065h-.124V325.28l.033-.046,3-3.874.039-.046h.065l3.973-.144h1.479a1.506,1.506,0,0,1-.38.059l-1.093.092-3.966.262.1-.052-2.952,3.927.039-.1v5.726l-.124-.164a2.33,2.33,0,0,0,1.309-.046,1.021,1.021,0,0,0,.484-.373,2.539,2.539,0,0,0,.255-.589,9.816,9.816,0,0,0,.353-2.507v-.079l.065-.039a5.569,5.569,0,0,0,1.564-1.571l.033-.059h.065l3.089-.052A6.876,6.876,0,0,1,261.053,325.6Z" transform="translate(-191.669 -250.122)" fill="#aa6550"/><path d="M260.067,343.208a4.882,4.882,0,0,1-.988-1.191,14.109,14.109,0,0,1-2.389-7,4.646,4.646,0,0,1,.059-1.544,19.234,19.234,0,0,0,3.318,9.738Z" transform="translate(-193.124 -254.372)" fill="#aa6550"/><path d="M262.356,334.506a4.247,4.247,0,0,0-4.326-1.44c0-.039.223-.2.654-.314a3.273,3.273,0,0,1,1.806.079,3.338,3.338,0,0,1,1.492,1.014C262.3,334.192,262.4,334.486,262.356,334.506Z" transform="translate(-193.6 -254.093)" fill="#aa6550"/><path d="M264.742,328.53a7.284,7.284,0,0,1-.039,2.173,7.114,7.114,0,0,1-.38,2.127,6.78,6.78,0,0,1,.039-2.173,6.938,6.938,0,0,1,.38-2.127Z" transform="translate(-195.751 -252.665)" fill="#aa6550"/><path d="M294.578,402.524a7.3,7.3,0,0,0,1.054-2.134,8.292,8.292,0,0,0,.295-2.768,13.189,13.189,0,0,0-.772-3.619c-.445-1.309-1.073-2.69-1.662-4.208s-1.224-3.148-1.872-4.863c-1.257-3.449-2.572-7.258-3.927-11.276-2.651-8.043-4.889-15.373-6.466-20.687-.792-2.657-1.414-4.817-1.832-6.309-.2-.726-.36-1.309-.471-1.721-.052-.183-.085-.327-.118-.452a.4.4,0,0,1,0-.157.6.6,0,0,1,.059.151l.151.438.53,1.708c.471,1.505,1.126,3.645,1.963,6.27,1.636,5.3,3.927,12.618,6.544,20.654,1.309,4.012,2.618,7.821,3.874,11.27.654,1.715,1.23,3.357,1.839,4.869s1.191,2.912,1.63,4.234a13.507,13.507,0,0,1,.74,3.691,8.39,8.39,0,0,1-.366,2.814,5.629,5.629,0,0,1-.785,1.61A2.71,2.71,0,0,1,294.578,402.524Z" transform="translate(-200.777 -258.125)" fill="#aa6550"/><path d="M227.1,426.192l-43.685-6.505,5.438-29.941-23.109-.956-5.838,32.978a18.063,18.063,0,0,0,17.618,21.479l50.936-.563Z" transform="translate(-159.582 -273.488)" fill="#b78876"/><path d="M257.93,444.741c.432.144,10.02-4.431,10.02-4.431l16.859.857s-.425,2.867-1.715,3.58-9.162,0-9.162,0l4.005,2.86,6.865-.576,1.721-1.433s.177,4.738-1.113,5.6-4.987,1.165-4.987,1.165a12.378,12.378,0,0,1-.295,2.166c-.229.746-2.238,1.492-2.238,1.492a26.917,26.917,0,0,1-1.793,3.207,18.792,18.792,0,0,1-4,1.374,17.172,17.172,0,0,1-9.542-.072l-4.627-1.381v-14.1" transform="translate(-193.566 -291.291)" fill="#b78876"/><path d="M292.034,445.783a1.933,1.933,0,0,1-.209.17,6.172,6.172,0,0,1-.654.412,9.642,9.642,0,0,1-2.709,1.054,10.648,10.648,0,0,1-4.444.059,9.986,9.986,0,0,1-2.579-.89c-.864-.419-1.649-1.047-2.585-1.394l-.753-.275.8-.033a31.062,31.062,0,0,1,3.927.268,10.269,10.269,0,0,0,4.084-.242,4,4,0,0,0,2.978-3.377l.164.17-12.219-.713-3.573-.242-.955-.078a1.215,1.215,0,0,1-.334-.046,1.905,1.905,0,0,1,.334,0h.962l3.58.144,12.219.589h.164v.164a3.691,3.691,0,0,1-1,2.3,4.98,4.98,0,0,1-2.212,1.387,10.6,10.6,0,0,1-4.208.249,31.294,31.294,0,0,0-3.874-.281l.052-.308A27.521,27.521,0,0,1,281.6,446.3a9.818,9.818,0,0,0,2.493.89,10.615,10.615,0,0,0,7.048-.936C291.72,445.973,292.021,445.764,292.034,445.783Z" transform="translate(-198.763 -291.398)" fill="#aa6550"/><path d="M292.431,458.16a17.842,17.842,0,0,1-3.874.7,17.122,17.122,0,0,1-3.927.15,32.973,32.973,0,0,1,3.927-.484,32.065,32.065,0,0,1,3.874-.367Z" transform="translate(-202.792 -297.459)" fill="#aa6550"/><path d="M288.6,463.13a7.854,7.854,0,0,1-2.088.995,7.7,7.7,0,0,1-2.205.654,7.854,7.854,0,0,1,2.081-.988,8.2,8.2,0,0,1,2.212-.661Z" transform="translate(-202.681 -299.176)" fill="#aa6550"/><g transform="translate(62.283 102.782)" opacity="0.2"><path d="M255.031,370.125a1.531,1.531,0,1,0,2.932-.465,1.754,1.754,0,0,1-3.213.151" transform="translate(-254.75 -369.66)"/></g><g transform="translate(59.999 94.811)" opacity="0.2"><path d="M251.535,357.945a1.531,1.531,0,1,0,2.932-.465,1.754,1.754,0,0,1-3.207.151" transform="translate(-251.26 -357.48)"/></g><g transform="translate(29.508 109.916)" opacity="0.2"><path d="M205.455,380.56c.8,6.014,4.326,11.544,4.306,17.611,0,.6-.131,1.309-.694,1.538-.72.268-1.309-.556-1.649-1.257a32.467,32.467,0,0,1-2.4-17.808" transform="translate(-204.67 -380.56)"/></g><path d="M291,346.31a5.454,5.454,0,0,1,.17,1.021c.085.654.2,1.6.308,2.781.229,2.356.465,5.622.576,9.234s.072,6.885,0,9.247c-.039,1.185-.092,2.14-.137,2.8a6.546,6.546,0,0,1-.1,1.021,5.472,5.472,0,0,1,0-1.027v-2.8c0-2.363,0-5.628-.085-9.234s-.308-6.859-.478-9.221c-.078-1.132-.144-2.068-.2-2.788A6.825,6.825,0,0,1,291,346.31Z" transform="translate(-204.992 -258.809)" fill="#263238"/></g></g></svg>