<svg xmlns="http://www.w3.org/2000/svg" width="250" height="229.514" viewBox="0 0 250 229.514">
  <g id="Easy_Funding_Bank_Loans" data-name="Easy Funding Bank Loans" transform="translate(-23.24 -62.41)">
    <g id="freepik--Floor--inject-5" transform="translate(23.24 282.538)">
      <path id="Path_37431" data-name="Path 37431" d="M273.24,461.883c0,.077-55.968.143-124.995.143s-125.006-.094-125.006-.143,55.957-.143,125.006-.143S273.24,461.773,273.24,461.883Z" transform="translate(-23.24 -461.74)" fill="#263238"/>
    </g>
    <g id="freepik--Wallet--inject-5" transform="translate(28.087 206.659)">
      <rect id="Rectangle_5578" data-name="Rectangle 5578" width="86.683" height="75.978" rx="8.76" transform="translate(2.457)" fill="#455a64"/>
      <g id="Group_8811" data-name="Group 8811" transform="translate(2.457 47.616)" opacity="0.3">
        <path id="Path_37432" data-name="Path 37432" d="M36.49,412.675H68.065a2.2,2.2,0,0,0,2.2-2.2H36.578Z" transform="translate(-36.49 -410.47)"/>
      </g>
      <rect id="Rectangle_5579" data-name="Rectangle 5579" width="37.396" height="19.718" rx="4.99" transform="translate(0.136 28.18)" fill="#455a64"/>
      <path id="Path_37433" data-name="Path 37433" d="M66.815,394.842a3.307,3.307,0,0,0,1.069-.248,2.9,2.9,0,0,0,1.064-.821,2.756,2.756,0,0,0,.551-1.687c0-2.756-.028-6.786-.044-11.73v-1.9a7.944,7.944,0,0,0-.033-.965,2.569,2.569,0,0,0-.3-.91,2.635,2.635,0,0,0-1.494-1.229,3.087,3.087,0,0,0-1.014-.127H34.9a2.607,2.607,0,0,0-2.2,1.251,2.475,2.475,0,0,0-.375,1.251v14.6a2.618,2.618,0,0,0,1.2,1.968,2.668,2.668,0,0,0,1.1.38c.375.039.794,0,1.191,0H50.779l11.73.05H65.7l-3.192.028-11.753.182H34.584a2.811,2.811,0,0,1-1.2-.424,2.877,2.877,0,0,1-1.34-2.133c-.033-.865,0-1.692,0-2.558V377.737a2.833,2.833,0,0,1,.413-1.389A2.9,2.9,0,0,1,34.92,375H66.628a3.308,3.308,0,0,1,1.1.138,2.866,2.866,0,0,1,1.621,1.345,2.811,2.811,0,0,1,.32.981,7.669,7.669,0,0,1,.033,1q0,.976,0,1.9c0,4.961-.039,8.952-.05,11.736a2.756,2.756,0,0,1-2.519,2.756Z" transform="translate(-32.033 -346.934)" fill="#263238"/>
      <g id="Group_8812" data-name="Group 8812" transform="translate(22.776 34.64)" opacity="0.3">
        <circle id="Ellipse_3267" data-name="Ellipse 3267" cx="5.534" cy="5.534" r="5.534"/>
      </g>
      <circle id="Ellipse_3268" data-name="Ellipse 3268" cx="5.534" cy="5.534" r="5.534" transform="translate(20.484 38.246) rotate(-45)" fill="#ebebeb"/>
      <path id="Path_37434" data-name="Path 37434" d="M84.322,388.868a10.429,10.429,0,0,0-.232-1.34,5.512,5.512,0,0,0-2.018-2.977,5.408,5.408,0,0,0-5.132-.755,5.1,5.1,0,0,0-1.362.733,5.033,5.033,0,0,0-1.141,1.152,5.38,5.38,0,0,0,0,6.378,5.459,5.459,0,0,0,9.669-1.852,13.4,13.4,0,0,0,.232-1.339,4.41,4.41,0,0,1-.121,1.367,5.479,5.479,0,0,1-2.007,3.115,5.562,5.562,0,0,1-2.365,1.075,5.672,5.672,0,0,1-2.977-.232,5.337,5.337,0,0,1-1.439-.766,5.4,5.4,0,0,1-1.2-1.2,5.634,5.634,0,0,1,0-6.709,5.286,5.286,0,0,1,1.2-1.2,5.352,5.352,0,0,1,1.439-.772,5.672,5.672,0,0,1,2.977-.226,5.568,5.568,0,0,1,4.371,4.189A4.41,4.41,0,0,1,84.322,388.868Z" transform="translate(-50.472 -350.622)" fill="#263238"/>
    </g>
    <g id="freepik--Coins--inject-5" transform="translate(210.855 150.571)">
      <circle id="Ellipse_3269" data-name="Ellipse 3269" cx="19.227" cy="19.227" r="19.227" transform="translate(0 50.804) rotate(-9.95)" fill="#f8951d"/>
      <g id="Group_8813" data-name="Group 8813" transform="translate(3.043 48.465)" opacity="0.1">
        <path id="Path_37435" data-name="Path 37435" d="M381.424,310.26A19.216,19.216,0,0,0,370.4,335.1s12.827-4.283,13.908-10.529S381.424,310.26,381.424,310.26Z" transform="translate(-369.108 -310.26)" fill="#fff"/>
      </g>
      <circle id="Ellipse_3270" data-name="Ellipse 3270" cx="14.579" cy="14.579" r="14.579" transform="translate(2.714 56.328) rotate(-21.161)" fill="#f8951d"/>
      <g id="Group_8814" data-name="Group 8814" transform="translate(2.714 45.803)" opacity="0.2">
        <circle id="Ellipse_3271" data-name="Ellipse 3271" cx="14.579" cy="14.579" r="14.579" transform="translate(0 10.526) rotate(-21.161)"/>
      </g>
      <path id="Path_37436" data-name="Path 37436" d="M406.4,326.223a14.421,14.421,0,1,1-18.632-8.269A14.421,14.421,0,0,1,406.4,326.223Z" transform="translate(-370.291 -264.815)" fill="#f8951d"/>
      <g id="Group_8815" data-name="Group 8815" transform="translate(8.235 52.174)" opacity="0.2">
        <path id="Path_37437" data-name="Path 37437" d="M406.4,326.223a14.421,14.421,0,1,1-18.632-8.269A14.421,14.421,0,0,1,406.4,326.223Z" transform="translate(-378.526 -316.988)" fill="#fff"/>
      </g>
      <path id="Path_37438" data-name="Path 37438" d="M399.748,334.6l-1.323-3.44h0a7.715,7.715,0,0,1,2.018-.226,6.331,6.331,0,0,1,1.064.215v-.127l.055-1.444v-.331l-.86-.408-.248.243a6.956,6.956,0,0,0-2.756.243l-.733-1.9-.772-.248.182.474-.8.314.739,1.929c-2.563,1.279-3.241,3.307-2.574,5.022.915,2.37,3.181,2.2,5.253,1.935l1.312,3.412a7,7,0,0,1-3.914,0l-.1,2.018a7.972,7.972,0,0,0,4.724-.187l.551,1.428-.661.27.838.193,1.4-.551-.733-1.913c2.574-1.3,3.274-3.307,2.607-5.038C404.114,334.137,401.821,334.335,399.748,334.6Zm-1.532.182c-1.1.088-1.979,0-2.3-.821s0-1.566,1.13-2.2ZM398.425,331.154Zm3.28,8.533-1.163-3.021c1.136-.1,2.04,0,2.359.832C403.183,338.238,402.879,339.021,401.705,339.688Z" transform="translate(-377.008 -269.388)" fill="#f8951d"/>
      <g id="Group_8816" data-name="Group 8816" transform="translate(16.486 57.792)" opacity="0.3">
        <path id="Path_37439" data-name="Path 37439" d="M399.748,334.6l-1.323-3.44h0a7.715,7.715,0,0,1,2.018-.226,6.331,6.331,0,0,1,1.064.215v-.127l.055-1.444v-.331l-.86-.408-.248.243a6.956,6.956,0,0,0-2.756.243l-.733-1.9-.772-.248.182.474-.8.314.739,1.929c-2.563,1.279-3.241,3.307-2.574,5.022.915,2.37,3.181,2.2,5.253,1.935l1.312,3.412a7,7,0,0,1-3.914,0l-.1,2.018a7.972,7.972,0,0,0,4.724-.187l.551,1.428-.661.27.838.193,1.4-.551-.733-1.913c2.574-1.3,3.274-3.307,2.607-5.038C404.114,334.137,401.821,334.335,399.748,334.6Zm-1.532.182c-1.1.088-1.979,0-2.3-.821s0-1.566,1.13-2.2ZM398.425,331.154Zm3.28,8.533-1.163-3.021c1.136-.1,2.04,0,2.359.832C403.183,338.238,402.879,339.021,401.705,339.688Z" transform="translate(-393.494 -327.18)"/>
      </g>
      <path id="Path_37440" data-name="Path 37440" d="M401.061,341.3l.739,1.913-1.4.551-.728-1.9a7.952,7.952,0,0,1-4.73.193l.1-2.018a7.045,7.045,0,0,0,3.914,0l-1.312-3.412c-2.073.265-4.338.43-5.248-1.94-.673-1.742,0-3.743,2.569-5.022l-.739-1.929,1.4-.551.728,1.9a7.823,7.823,0,0,1,3.859-.292l-.039,2a7.612,7.612,0,0,0-3.12.138l1.328,3.451c2.073-.27,4.366-.469,5.275,1.907C404.341,338.005,403.647,340,401.061,341.3Zm-4.206-6.764-1.169-3.043c-1.141.656-1.417,1.466-1.1,2.2s1.169.932,2.271.838Zm4.691,2.723c-.325-.838-1.224-.943-2.359-.838l1.163,3.021c1.169-.667,1.477-1.45,1.2-2.183Z" transform="translate(-376.408 -269.393)" fill="#f8951d"/>
      <path id="Path_37441" data-name="Path 37441" d="M376.739,356.406s-.05-.033-.138-.1l-.375-.331q-.289-.262-.551-.551c-.209-.22-.469-.458-.717-.755l-.4-.458c-.138-.16-.265-.342-.408-.518-.287-.353-.551-.761-.843-1.18a20.78,20.78,0,0,1-1.577-2.927,21.362,21.362,0,0,1-1.047-3.159c-.1-.5-.215-.976-.276-1.428-.033-.226-.072-.441-.094-.65s-.039-.408-.061-.6c-.044-.386-.044-.739-.055-1.042a7.447,7.447,0,0,1,0-.788v-.5a.088.088,0,1,1,.033,0V342.7a7.362,7.362,0,0,0,.083,1.036c0,.193.044.391.066.6s.066.419.1.645c.066.447.182.915.292,1.411a20.664,20.664,0,0,0,1.047,3.131,21.5,21.5,0,0,0,1.555,2.916c.287.419.551.827.827,1.18.138.176.265.358.4.518l.386.463c.243.3.491.551.7.766s.391.408.551.551l.358.347C376.7,356.356,376.745,356.4,376.739,356.406Z" transform="translate(-366.524 -275.699)" fill="#fff"/>
      <path id="Path_37442" data-name="Path 37442" d="M394.451,339.779a1.251,1.251,0,0,1-.551-.243,2.3,2.3,0,0,1-.876-1.141,2.261,2.261,0,0,1,0-1.444,1.18,1.18,0,0,1,.281-.551,3.822,3.822,0,0,0-.182.551,2.387,2.387,0,0,0,.044,1.367,2.431,2.431,0,0,0,.8,1.1A5.508,5.508,0,0,0,394.451,339.779Z" transform="translate(-376.744 -273.526)" fill="#fff"/>
      <path id="Path_37443" data-name="Path 37443" d="M397.231,329.993a1.385,1.385,0,0,1-.281-.551c-.116-.325-.187-.551-.149-.584s.16.226.281.551S397.27,329.982,397.231,329.993Z" transform="translate(-378.488 -270.14)" fill="#fff"/>
      <path id="Path_37444" data-name="Path 37444" d="M388.227,316.25a2.365,2.365,0,0,1-.441.154,4.723,4.723,0,0,0-.524.171c-.2.072-.436.143-.684.254s-.524.209-.8.347-.59.287-.9.452a15.651,15.651,0,0,0-1.935,1.268,16.6,16.6,0,0,0-1.72,1.544c-.243.265-.474.507-.673.755s-.386.474-.551.695-.3.413-.419.59-.221.331-.3.463a2.658,2.658,0,0,1-.265.391,3,3,0,0,1,.215-.419,5,5,0,0,1,.281-.48c.116-.176.243-.391.4-.606s.331-.463.551-.711.43-.5.667-.766a15.221,15.221,0,0,1,1.731-1.571,15.87,15.87,0,0,1,1.962-1.268c.32-.16.617-.32.915-.447s.551-.237.821-.336.485-.165.689-.232a4.946,4.946,0,0,1,.551-.149A2.96,2.96,0,0,1,388.227,316.25Z" transform="translate(-370.509 -264.483)" fill="#fff"/>
      <path id="Path_37445" data-name="Path 37445" d="M412.841,372.16a1.6,1.6,0,0,1-.287.209,8.672,8.672,0,0,1-.832.5,13.848,13.848,0,0,1-6.119,1.654h-.97a2.076,2.076,0,0,1-.353-.033,1.655,1.655,0,0,1,.353,0c.232,0,.551,0,.965-.033a16.324,16.324,0,0,0,3.126-.513,15.986,15.986,0,0,0,2.955-1.136c.358-.182.65-.342.843-.452a1.765,1.765,0,0,1,.32-.193Z" transform="translate(-381.849 -289.573)" fill="#fff"/>
      <rect id="Rectangle_5580" data-name="Rectangle 5580" width="40.704" height="8.208" transform="translate(44.272 92.597) rotate(180)" fill="#f8951d"/>
      <path id="Path_37446" data-name="Path 37446" d="M439.006,375.68a44.989,44.989,0,0,0,0,7.96,23.026,23.026,0,0,0,.176-3.98A22.387,22.387,0,0,0,439.006,375.68Z" transform="translate(-397.353 -291.153)" fill="#263238"/>
      <path id="Path_37447" data-name="Path 37447" d="M432.166,375.68a44.989,44.989,0,0,0,0,7.96,22.382,22.382,0,0,0,.176-3.98A23.02,23.02,0,0,0,432.166,375.68Z" transform="translate(-394.284 -291.153)" fill="#263238"/>
      <path id="Path_37448" data-name="Path 37448" d="M425.4,375.68a44.989,44.989,0,0,0,0,7.96,44.989,44.989,0,0,0,0-7.96Z" transform="translate(-391.246 -291.153)" fill="#263238"/>
      <path id="Path_37449" data-name="Path 37449" d="M418.666,375.68a44.989,44.989,0,0,0,0,7.96,22.382,22.382,0,0,0,.176-3.98A21.777,21.777,0,0,0,418.666,375.68Z" transform="translate(-388.226 -291.153)" fill="#263238"/>
      <path id="Path_37450" data-name="Path 37450" d="M411.936,375.68a44.989,44.989,0,0,0,0,7.96,44.989,44.989,0,0,0,0-7.96Z" transform="translate(-385.205 -291.153)" fill="#263238"/>
      <path id="Path_37451" data-name="Path 37451" d="M405.206,375.68a44.989,44.989,0,0,0,0,7.96,44.989,44.989,0,0,0,0-7.96Z" transform="translate(-382.185 -291.153)" fill="#263238"/>
      <path id="Path_37452" data-name="Path 37452" d="M398.476,375.68a44.989,44.989,0,0,0,0,7.96,44.981,44.981,0,0,0,0-7.96Z" transform="translate(-379.165 -291.153)" fill="#263238"/>
      <path id="Path_37453" data-name="Path 37453" d="M391.746,375.68a44.981,44.981,0,0,0,0,7.96,44.989,44.989,0,0,0,0-7.96Z" transform="translate(-376.145 -291.153)" fill="#263238"/>
      <path id="Path_37454" data-name="Path 37454" d="M385.016,375.68a44.981,44.981,0,0,0,0,7.96,44.989,44.989,0,0,0,0-7.96Z" transform="translate(-373.125 -291.153)" fill="#263238"/>
      <path id="Path_37455" data-name="Path 37455" d="M378.286,375.68a44.989,44.989,0,0,0,0,7.96,44.989,44.989,0,0,0,0-7.96Z" transform="translate(-370.105 -291.153)" fill="#263238"/>
      <path id="Path_37456" data-name="Path 37456" d="M371.556,375.68a44.989,44.989,0,0,0,0,7.96,22.382,22.382,0,0,0,.176-3.98A23.024,23.024,0,0,0,371.556,375.68Z" transform="translate(-367.085 -291.153)" fill="#263238"/>
      <g id="Group_8817" data-name="Group 8817" transform="translate(4.218 84.4)" opacity="0.3">
        <path id="Path_37457" data-name="Path 37457" d="M410.637,375.45a148.465,148.465,0,0,1-39.4,0Z" transform="translate(-371.24 -375.45)"/>
      </g>
      <path id="Path_37458" data-name="Path 37458" d="M370,375.336c0,.1,9.1.176,20.313.176s20.319-.077,20.319-.176-9.1-.176-20.319-.176S370,375.237,370,375.336Z" transform="translate(-366.465 -290.92)" fill="#263238"/>
      <rect id="Rectangle_5581" data-name="Rectangle 5581" width="40.704" height="8.208" transform="translate(43.357 100.667) rotate(180)" fill="#f8951d"/>
      <path id="Path_37459" data-name="Path 37459" d="M437.356,390.33a44.919,44.919,0,0,0,0,7.954,22.387,22.387,0,0,0,.176-3.98A22.933,22.933,0,0,0,437.356,390.33Z" transform="translate(-396.613 -297.727)" fill="#263238"/>
      <path id="Path_37460" data-name="Path 37460" d="M430.506,390.33a44.927,44.927,0,0,0,0,7.954,44.927,44.927,0,0,0,0-7.954Z" transform="translate(-393.539 -297.727)" fill="#263238"/>
      <path id="Path_37461" data-name="Path 37461" d="M423.736,390.33a44.919,44.919,0,0,0,0,7.954,23.026,23.026,0,0,0,.176-3.98A22.3,22.3,0,0,0,423.736,390.33Z" transform="translate(-390.501 -297.727)" fill="#263238"/>
      <path id="Path_37462" data-name="Path 37462" d="M417.006,390.33a44.919,44.919,0,0,0,0,7.954,44.927,44.927,0,0,0,0-7.954Z" transform="translate(-387.481 -297.727)" fill="#263238"/>
      <path id="Path_37463" data-name="Path 37463" d="M410.276,390.33a44.919,44.919,0,0,0,0,7.954,44.927,44.927,0,0,0,0-7.954Z" transform="translate(-384.46 -297.727)" fill="#263238"/>
      <path id="Path_37464" data-name="Path 37464" d="M403.546,390.33a44.927,44.927,0,0,0,0,7.954,44.919,44.919,0,0,0,0-7.954Z" transform="translate(-381.44 -297.727)" fill="#263238"/>
      <path id="Path_37465" data-name="Path 37465" d="M396.856,390.33a44.927,44.927,0,0,0,0,7.954,22.382,22.382,0,0,0,.176-3.98A25.084,25.084,0,0,0,396.856,390.33Z" transform="translate(-378.438 -297.727)" fill="#263238"/>
      <path id="Path_37466" data-name="Path 37466" d="M390.086,390.33a44.919,44.919,0,0,0,0,7.954,44.927,44.927,0,0,0,0-7.954Z" transform="translate(-375.4 -297.727)" fill="#263238"/>
      <path id="Path_37467" data-name="Path 37467" d="M383.356,390.33a44.927,44.927,0,0,0,0,7.954,44.919,44.919,0,0,0,0-7.954Z" transform="translate(-372.38 -297.727)" fill="#263238"/>
      <path id="Path_37468" data-name="Path 37468" d="M376.626,390.33a44.919,44.919,0,0,0,0,7.954,22.39,22.39,0,0,0,.176-3.98A19.577,19.577,0,0,0,376.626,390.33Z" transform="translate(-369.36 -297.727)" fill="#263238"/>
      <path id="Path_37469" data-name="Path 37469" d="M369.856,390.33a44.927,44.927,0,0,0,0,7.954,22.382,22.382,0,0,0,.176-3.98A20.063,20.063,0,0,0,369.856,390.33Z" transform="translate(-366.322 -297.727)" fill="#263238"/>
      <g id="Group_8818" data-name="Group 8818" transform="translate(3.303 92.47)" opacity="0.3">
        <path id="Path_37470" data-name="Path 37470" d="M408.983,390.09a148.5,148.5,0,0,1-39.4,0Z" transform="translate(-369.58 -390.09)"/>
      </g>
      <path id="Path_37471" data-name="Path 37471" d="M368.38,389.976c0,.1,9.1.176,20.319.176s20.313-.077,20.313-.176-9.09-.176-20.313-.176S368.38,389.91,368.38,389.976Z" transform="translate(-365.738 -297.489)" fill="#263238"/>
      <rect id="Rectangle_5582" data-name="Rectangle 5582" width="40.704" height="8.208" transform="translate(47.226 108.611) rotate(180)" fill="#f8951d"/>
      <path id="Path_37472" data-name="Path 37472" d="M444.366,404.73a44.989,44.989,0,0,0,0,7.96,22.382,22.382,0,0,0,.176-3.98A23.024,23.024,0,0,0,444.366,404.73Z" transform="translate(-399.759 -304.189)" fill="#263238"/>
      <path id="Path_37473" data-name="Path 37473" d="M437.516,404.73a44.981,44.981,0,0,0,0,7.96,44.989,44.989,0,0,0,0-7.96Z" transform="translate(-396.685 -304.189)" fill="#263238"/>
      <path id="Path_37474" data-name="Path 37474" d="M430.746,404.73a44.989,44.989,0,0,0,0,7.96,23.02,23.02,0,0,0,.176-3.98A22.382,22.382,0,0,0,430.746,404.73Z" transform="translate(-393.647 -304.189)" fill="#263238"/>
      <path id="Path_37475" data-name="Path 37475" d="M424.016,404.73a44.981,44.981,0,0,0,0,7.96,23.03,23.03,0,0,0,.176-3.98A22.39,22.39,0,0,0,424.016,404.73Z" transform="translate(-390.626 -304.189)" fill="#263238"/>
      <path id="Path_37476" data-name="Path 37476" d="M417.286,404.73a44.989,44.989,0,0,0,0,7.96,23.02,23.02,0,0,0,.176-3.98A22.382,22.382,0,0,0,417.286,404.73Z" transform="translate(-387.606 -304.189)" fill="#263238"/>
      <path id="Path_37477" data-name="Path 37477" d="M410.556,404.73a44.989,44.989,0,0,0,0,7.96,23.02,23.02,0,0,0,.176-3.98A22.382,22.382,0,0,0,410.556,404.73Z" transform="translate(-384.586 -304.189)" fill="#263238"/>
      <path id="Path_37478" data-name="Path 37478" d="M403.856,404.73a44.981,44.981,0,0,0,0,7.96,22.387,22.387,0,0,0,.176-3.98A24.43,24.43,0,0,0,403.856,404.73Z" transform="translate(-381.579 -304.189)" fill="#263238"/>
      <path id="Path_37479" data-name="Path 37479" d="M397.1,404.73a44.989,44.989,0,0,0,0,7.96,44.981,44.981,0,0,0,0-7.96Z" transform="translate(-378.546 -304.189)" fill="#263238"/>
      <path id="Path_37480" data-name="Path 37480" d="M390.366,404.73a44.989,44.989,0,0,0,0,7.96,44.981,44.981,0,0,0,0-7.96Z" transform="translate(-375.526 -304.189)" fill="#263238"/>
      <path id="Path_37481" data-name="Path 37481" d="M383.636,404.73a44.989,44.989,0,0,0,0,7.96,22.387,22.387,0,0,0,.176-3.98A20.144,20.144,0,0,0,383.636,404.73Z" transform="translate(-372.506 -304.189)" fill="#263238"/>
      <path id="Path_37482" data-name="Path 37482" d="M376.906,404.73a44.989,44.989,0,0,0,0,7.96,44.981,44.981,0,0,0,0-7.96Z" transform="translate(-369.485 -304.189)" fill="#263238"/>
      <g id="Group_8819" data-name="Group 8819" transform="translate(7.167 100.414)" opacity="0.3">
        <path id="Path_37483" data-name="Path 37483" d="M415.993,404.5a148.5,148.5,0,0,1-39.4,0Z" transform="translate(-376.59 -404.5)"/>
      </g>
      <path id="Path_37484" data-name="Path 37484" d="M375.39,404.386c0,.1,9.1.176,20.319.176s20.313-.077,20.313-.176-9.09-.176-20.313-.176S375.39,404.293,375.39,404.386Z" transform="translate(-368.884 -303.956)" fill="#263238"/>
      <rect id="Rectangle_5583" data-name="Rectangle 5583" width="40.704" height="7.894" transform="translate(42.458 116.444) rotate(180)" fill="#f8951d"/>
      <path id="Path_37485" data-name="Path 37485" d="M435.716,419.51a41.574,41.574,0,0,0,0,7.651,20.717,20.717,0,0,0,.176-3.826A23.314,23.314,0,0,0,435.716,419.51Z" transform="translate(-395.877 -310.822)" fill="#263238"/>
      <path id="Path_37486" data-name="Path 37486" d="M428.856,419.51a41.574,41.574,0,0,0,0,7.651,20.717,20.717,0,0,0,.176-3.826A20.157,20.157,0,0,0,428.856,419.51Z" transform="translate(-392.798 -310.822)" fill="#263238"/>
      <path id="Path_37487" data-name="Path 37487" d="M422.1,419.51a41.574,41.574,0,0,0,0,7.651,21.308,21.308,0,0,0,.176-3.826A20.716,20.716,0,0,0,422.1,419.51Z" transform="translate(-389.765 -310.822)" fill="#263238"/>
      <path id="Path_37488" data-name="Path 37488" d="M415.366,419.51a41.567,41.567,0,0,0,0,7.651,21.313,21.313,0,0,0,.176-3.826A20.721,20.721,0,0,0,415.366,419.51Z" transform="translate(-386.745 -310.822)" fill="#263238"/>
      <path id="Path_37489" data-name="Path 37489" d="M408.636,419.51a41.574,41.574,0,0,0,0,7.651,21.317,21.317,0,0,0,.176-3.826A18.645,18.645,0,0,0,408.636,419.51Z" transform="translate(-383.725 -310.822)" fill="#263238"/>
      <path id="Path_37490" data-name="Path 37490" d="M401.906,419.51a41.574,41.574,0,0,0,0,7.651,41.574,41.574,0,0,0,0-7.651Z" transform="translate(-380.704 -310.822)" fill="#263238"/>
      <path id="Path_37491" data-name="Path 37491" d="M395.176,419.51a41.574,41.574,0,0,0,0,7.651,41.567,41.567,0,0,0,0-7.651Z" transform="translate(-377.684 -310.822)" fill="#263238"/>
      <path id="Path_37492" data-name="Path 37492" d="M388.446,419.51a41.567,41.567,0,0,0,0,7.651,41.574,41.574,0,0,0,0-7.651Z" transform="translate(-374.664 -310.822)" fill="#263238"/>
      <path id="Path_37493" data-name="Path 37493" d="M381.716,419.51a41.567,41.567,0,0,0,0,7.651,20.721,20.721,0,0,0,.176-3.826A23.32,23.32,0,0,0,381.716,419.51Z" transform="translate(-371.644 -310.822)" fill="#263238"/>
      <path id="Path_37494" data-name="Path 37494" d="M374.986,419.51a41.574,41.574,0,0,0,0,7.651,41.567,41.567,0,0,0,0-7.651Z" transform="translate(-368.624 -310.822)" fill="#263238"/>
      <path id="Path_37495" data-name="Path 37495" d="M368.256,419.51a41.567,41.567,0,0,0,0,7.651,41.574,41.574,0,0,0,0-7.651Z" transform="translate(-365.604 -310.822)" fill="#263238"/>
      <g id="Group_8820" data-name="Group 8820" transform="translate(2.399 108.561)" opacity="0.3">
        <path id="Path_37496" data-name="Path 37496" d="M407.343,419.28a116.461,116.461,0,0,1-39.4,0Z" transform="translate(-367.94 -419.28)"/>
      </g>
      <path id="Path_37497" data-name="Path 37497" d="M366.74,419.171c0,.1,9.1.176,20.319.176s20.313-.077,20.313-.176S398.3,419,387.059,419,366.74,419.072,366.74,419.171Z" transform="translate(-365.002 -310.593)" fill="#263238"/>
      <rect id="Rectangle_5584" data-name="Rectangle 5584" width="40.704" height="7.894" transform="translate(45.071 124.343) rotate(180)" fill="#f8951d"/>
      <path id="Path_37498" data-name="Path 37498" d="M440.456,433.83a41.633,41.633,0,0,0,0,7.657,20.991,20.991,0,0,0,.182-3.826A20.5,20.5,0,0,0,440.456,433.83Z" transform="translate(-398.004 -317.248)" fill="#263238"/>
      <path id="Path_37499" data-name="Path 37499" d="M433.616,433.83a41.626,41.626,0,0,0,0,7.657,20.721,20.721,0,0,0,.176-3.826A21.405,21.405,0,0,0,433.616,433.83Z" transform="translate(-394.934 -317.248)" fill="#263238"/>
      <path id="Path_37500" data-name="Path 37500" d="M426.856,433.83a41.633,41.633,0,0,0,0,7.657,20.716,20.716,0,0,0,.176-3.826A21.4,21.4,0,0,0,426.856,433.83Z" transform="translate(-391.901 -317.248)" fill="#263238"/>
      <path id="Path_37501" data-name="Path 37501" d="M420.116,433.83a41.626,41.626,0,0,0,0,7.657,41.633,41.633,0,0,0,0-7.657Z" transform="translate(-388.876 -317.248)" fill="#263238"/>
      <path id="Path_37502" data-name="Path 37502" d="M413.386,433.83a41.626,41.626,0,0,0,0,7.657,41.633,41.633,0,0,0,0-7.657Z" transform="translate(-385.856 -317.248)" fill="#263238"/>
      <path id="Path_37503" data-name="Path 37503" d="M406.656,433.83a41.626,41.626,0,0,0,0,7.657,20.721,20.721,0,0,0,.176-3.826A19.707,19.707,0,0,0,406.656,433.83Z" transform="translate(-382.836 -317.248)" fill="#263238"/>
      <path id="Path_37504" data-name="Path 37504" d="M399.926,433.83a41.633,41.633,0,0,0,0,7.657,41.626,41.626,0,0,0,0-7.657Z" transform="translate(-379.816 -317.248)" fill="#263238"/>
      <path id="Path_37505" data-name="Path 37505" d="M393.2,433.83a41.626,41.626,0,0,0,0,7.657,41.633,41.633,0,0,0,0-7.657Z" transform="translate(-376.796 -317.248)" fill="#263238"/>
      <path id="Path_37506" data-name="Path 37506" d="M386.466,433.83a41.626,41.626,0,0,0,0,7.657,41.633,41.633,0,0,0,0-7.657Z" transform="translate(-373.776 -317.248)" fill="#263238"/>
      <path id="Path_37507" data-name="Path 37507" d="M379.736,433.83a41.633,41.633,0,0,0,0,7.657,41.626,41.626,0,0,0,0-7.657Z" transform="translate(-370.755 -317.248)" fill="#263238"/>
      <path id="Path_37508" data-name="Path 37508" d="M373.006,433.83a41.626,41.626,0,0,0,0,7.657,20.724,20.724,0,0,0,.176-3.826A21.405,21.405,0,0,0,373.006,433.83Z" transform="translate(-367.735 -317.248)" fill="#263238"/>
      <g id="Group_8821" data-name="Group 8821" transform="translate(5.018 116.461)" opacity="0.3">
        <path id="Path_37509" data-name="Path 37509" d="M412.087,433.61a103.082,103.082,0,0,1-39.4,0Z" transform="translate(-372.69 -433.61)"/>
      </g>
      <path id="Path_37510" data-name="Path 37510" d="M371.49,433.5c0,.1,9.1.176,20.313.176s20.319-.077,20.319-.176-9.1-.176-20.319-.176S371.49,433.4,371.49,433.5Z" transform="translate(-367.134 -317.019)" fill="#263238"/>
      <rect id="Rectangle_5585" data-name="Rectangle 5585" width="40.704" height="7.894" transform="translate(42.745 132.132) rotate(180)" fill="#f8951d"/>
      <path id="Path_37511" data-name="Path 37511" d="M436.246,448a20.721,20.721,0,0,0-.176,3.826,21.241,21.241,0,0,0,.176,3.859,41.925,41.925,0,0,0,0-7.684Z" transform="translate(-396.115 -323.607)" fill="#263238"/>
      <path id="Path_37512" data-name="Path 37512" d="M429.4,448a20.718,20.718,0,0,0-.176,3.826,21.238,21.238,0,0,0,.176,3.859,20.947,20.947,0,0,0,.176-3.859A20.431,20.431,0,0,0,429.4,448Z" transform="translate(-393.041 -323.607)" fill="#263238"/>
      <path id="Path_37513" data-name="Path 37513" d="M422.626,448a21.308,21.308,0,0,0-.176,3.826,21.845,21.845,0,0,0,.176,3.859,21.546,21.546,0,0,0,.176-3.859A17.954,17.954,0,0,0,422.626,448Z" transform="translate(-390.003 -323.607)" fill="#263238"/>
      <path id="Path_37514" data-name="Path 37514" d="M415.856,448a20.724,20.724,0,0,0-.176,3.826,21.245,21.245,0,0,0,.176,3.859,20.942,20.942,0,0,0,.176-3.859A18.4,18.4,0,0,0,415.856,448Z" transform="translate(-386.965 -323.607)" fill="#263238"/>
      <path id="Path_37515" data-name="Path 37515" d="M409.166,448a20.724,20.724,0,0,0-.176,3.826,21.245,21.245,0,0,0,.176,3.859,20.942,20.942,0,0,0,.176-3.859A20.426,20.426,0,0,0,409.166,448Z" transform="translate(-383.962 -323.607)" fill="#263238"/>
      <path id="Path_37516" data-name="Path 37516" d="M402.436,448a20.718,20.718,0,0,0-.176,3.826,21.238,21.238,0,0,0,.176,3.859,20.947,20.947,0,0,0,.176-3.859A20.427,20.427,0,0,0,402.436,448Z" transform="translate(-380.942 -323.607)" fill="#263238"/>
      <path id="Path_37517" data-name="Path 37517" d="M395.706,448a20.718,20.718,0,0,0-.176,3.826,21.238,21.238,0,0,0,.176,3.859,20.947,20.947,0,0,0,.176-3.859A22.279,22.279,0,0,0,395.706,448Z" transform="translate(-377.922 -323.607)" fill="#263238"/>
      <path id="Path_37518" data-name="Path 37518" d="M388.976,448a20.724,20.724,0,0,0-.176,3.826,21.245,21.245,0,0,0,.176,3.859,20.942,20.942,0,0,0,.176-3.859A20.426,20.426,0,0,0,388.976,448Z" transform="translate(-374.902 -323.607)" fill="#263238"/>
      <path id="Path_37519" data-name="Path 37519" d="M382.246,448a20.72,20.72,0,0,0-.176,3.826,21.24,21.24,0,0,0,.176,3.859,20.947,20.947,0,0,0,.176-3.859A20.431,20.431,0,0,0,382.246,448Z" transform="translate(-371.882 -323.607)" fill="#263238"/>
      <path id="Path_37520" data-name="Path 37520" d="M375.516,448a20.718,20.718,0,0,0-.176,3.826,21.238,21.238,0,0,0,.176,3.859,20.947,20.947,0,0,0,.176-3.859A20.431,20.431,0,0,0,375.516,448Z" transform="translate(-368.862 -323.607)" fill="#263238"/>
      <path id="Path_37521" data-name="Path 37521" d="M368.786,448a20.721,20.721,0,0,0-.176,3.826,21.241,21.241,0,0,0,.176,3.859,20.942,20.942,0,0,0,.176-3.859A20.426,20.426,0,0,0,368.786,448Z" transform="translate(-365.842 -323.607)" fill="#263238"/>
      <g id="Group_8822" data-name="Group 8822" transform="translate(2.719 124.25)" opacity="0.3">
        <path id="Path_37522" data-name="Path 37522" d="M407.923,447.74a116.461,116.461,0,0,1-39.4,0Z" transform="translate(-368.52 -447.74)"/>
      </g>
      <path id="Path_37523" data-name="Path 37523" d="M367.27,447.626c0,.094,9.1.176,20.319.176s20.313-.083,20.313-.176-9.1-.176-20.313-.176S367.27,447.527,367.27,447.626Z" transform="translate(-365.24 -323.36)" fill="#263238"/>
      <path id="Path_37524" data-name="Path 37524" d="M440.771,423.16v-2.067c0-1.356-.028-3.307-.044-5.716v-.088h2.332l-.094.1v-7.9l.121.121H440.33v-8.092h4.9l-.132.132v-8.362l.121.127h-3.98v-7.872h1.1l-.088.094v-8.043a.735.735,0,0,1,0-.143.5.5,0,0,1,0,.143c0,.1,0,.243,0,.419,0,.386,0,.921.039,1.61,0,1.428.061,3.467.1,6.009v.094h-1.1l.094-.094c0,2.2,0,4.8.028,7.651l-.121-.116h3.985v8.621h-4.906l.138-.132v7.833l-.127-.127h2.756v8.12H440.8l.088-.088c0,2.42-.028,4.36-.039,5.716v1.935A.412.412,0,0,1,440.771,423.16Z" transform="translate(-398.026 -291.05)" fill="#263238"/>
      <path id="Path_37525" data-name="Path 37525" d="M440.922,238.5A16.747,16.747,0,1,1,423.6,222.352,16.747,16.747,0,0,1,440.922,238.5Z" transform="translate(-383.266 -222.341)" fill="#f8951d"/>
      <g id="Group_8823" data-name="Group 8823" transform="translate(24.174 0.01)" opacity="0.1">
        <path id="Path_37526" data-name="Path 37526" d="M423.6,222.36a16.747,16.747,0,0,0-16.146,17.326s11.775.116,14.437-4.724S423.6,222.36,423.6,222.36Z" transform="translate(-407.441 -222.36)" fill="#fff"/>
      </g>
      <path id="Path_37527" data-name="Path 37527" d="M439.683,241.45a12.728,12.728,0,1,1-13.169-12.276A12.728,12.728,0,0,1,439.683,241.45Z" transform="translate(-386.316 -225.404)" fill="#f8951d"/>
      <g id="Group_8824" data-name="Group 8824" transform="translate(27.918 3.762)" opacity="0.2">
        <path id="Path_37528" data-name="Path 37528" d="M439.683,241.45a12.728,12.728,0,1,1-13.169-12.276A12.728,12.728,0,0,1,439.683,241.45Z" transform="translate(-414.234 -229.165)"/>
      </g>
      <path id="Path_37529" data-name="Path 37529" d="M440.64,242.511a12.557,12.557,0,1,1-3.98-8.756A12.557,12.557,0,0,1,440.64,242.511Z" transform="translate(-386.898 -225.947)" fill="#f8951d"/>
      <g id="Group_8825" data-name="Group 8825" transform="translate(28.634 4.429)" opacity="0.2">
        <path id="Path_37530" data-name="Path 37530" d="M440.64,242.511a12.557,12.557,0,1,1-3.98-8.756A12.557,12.557,0,0,1,440.64,242.511Z" transform="translate(-415.533 -230.376)" fill="#fff"/>
      </g>
      <path id="Path_37531" data-name="Path 37531" d="M435.047,245.382l-.11-3.208h0a6.422,6.422,0,0,1,1.72.386,5.056,5.056,0,0,1,.816.474l.039-.1.458-1.174.1-.27-.6-.584-.27.138a5.838,5.838,0,0,0-2.348-.59l-.061-1.77-.551-.424v.447h-.755l.061,1.8c-2.47.325-3.6,1.781-3.544,3.4.077,2.2,2,2.718,3.776,3.087l.11,3.181a6.063,6.063,0,0,1-3.225-1.1l-.662,1.654a6.946,6.946,0,0,0,3.963,1.169l.044,1.334-.617.033.634.4,1.306-.05-.066-1.781c2.492-.342,3.633-1.786,3.578-3.407C438.773,246.242,436.827,245.751,435.047,245.382Zm-1.318-.287c-.932-.237-1.626-.551-1.654-1.328s.436-1.29,1.555-1.5ZM434.937,242.168Zm.276,7.954-.1-2.811c.965.237,1.681.551,1.709,1.356.022.684-.452,1.24-1.61,1.455Z" transform="translate(-393.394 -229.485)" fill="#f8951d"/>
      <g id="Group_8826" data-name="Group 8826" transform="translate(36.613 8.775)" opacity="0.3">
        <path id="Path_37532" data-name="Path 37532" d="M435.047,245.382l-.11-3.208h0a6.422,6.422,0,0,1,1.72.386,5.056,5.056,0,0,1,.816.474l.039-.1.458-1.174.1-.27-.6-.584-.27.138a5.838,5.838,0,0,0-2.348-.59l-.061-1.77-.551-.424v.447h-.755l.061,1.8c-2.47.325-3.6,1.781-3.544,3.4.077,2.2,2,2.718,3.776,3.087l.11,3.181a6.063,6.063,0,0,1-3.225-1.1l-.662,1.654a6.946,6.946,0,0,0,3.963,1.169l.044,1.334-.617.033.634.4,1.306-.05-.066-1.781c2.492-.342,3.633-1.786,3.578-3.407C438.773,246.242,436.827,245.751,435.047,245.382Zm-1.318-.287c-.932-.237-1.626-.551-1.654-1.328s.436-1.29,1.555-1.5ZM434.937,242.168Zm.276,7.954-.1-2.811c.965.237,1.681.551,1.709,1.356.022.684-.452,1.24-1.61,1.455Z" transform="translate(-430.007 -238.26)"/>
      </g>
      <path id="Path_37533" data-name="Path 37533" d="M434.283,251.431l.061,1.786-1.306.044-.061-1.764a7.045,7.045,0,0,1-3.947-1.185l.662-1.654a6.174,6.174,0,0,0,3.225,1.1l-.11-3.186c-1.781-.364-3.693-.871-3.771-3.081-.061-1.654,1.069-3.081,3.544-3.407l-.066-1.8,1.306-.044.061,1.769a6.847,6.847,0,0,1,3.263.854l-.6,1.654a6.615,6.615,0,0,0-2.607-.772l.116,3.214c1.781.369,3.726.86,3.8,3.07C437.916,249.651,436.769,251.089,434.283,251.431Zm-1.543-6.764-.1-2.833c-1.1.215-1.582.8-1.56,1.5s.728,1.091,1.659,1.328Zm3.087,3.572c-.028-.777-.739-1.1-1.7-1.356l.1,2.817C435.375,249.485,435.849,248.923,435.827,248.24Z" transform="translate(-392.955 -229.476)" fill="#f8951d"/>
      <path id="Path_37534" data-name="Path 37534" d="M437.982,255.511h.1l.3-.033.491-.044a4.707,4.707,0,0,0,.667-.094l.827-.16a3.093,3.093,0,0,0,.469-.121l.5-.149a5.35,5.35,0,0,0,.551-.171l.551-.22a5.049,5.049,0,0,0,.551-.248l.59-.309a13.445,13.445,0,0,0,2.42-1.681l.579-.551c.1-.094.2-.187.292-.287l.276-.325c.176-.215.375-.43.551-.661s.336-.48.507-.722l.127-.187a2.231,2.231,0,0,0,.116-.193l.221-.4.226-.4a3.736,3.736,0,0,0,.2-.424c.121-.287.259-.551.375-.865l.3-.921a12.508,12.508,0,0,0-.276-7.894q-.182-.458-.364-.893c-.132-.292-.292-.551-.435-.843a3.661,3.661,0,0,0-.226-.408c-.083-.127-.165-.259-.254-.386l-.248-.38-.127-.187-.138-.171-.551-.689c-.187-.221-.4-.419-.6-.623l-.292-.3-.314-.27-.617-.551a13.3,13.3,0,0,0-2.536-1.5l-.6-.27c-.2-.083-.4-.138-.6-.2l-.551-.187c-.182-.061-.369-.088-.551-.132l-.507-.11a3.09,3.09,0,0,0-.474-.088l-.838-.1A5.058,5.058,0,0,0,438,230.1h0a4.923,4.923,0,0,1,.673.028l.843.094a3.9,3.9,0,0,1,.474.083l.513.11c.171.044.358.066.551.127l.551.182c.193.072.4.121.6.2l.612.265a13.435,13.435,0,0,1,2.558,1.5l.628.551c.1.088.215.176.314.27l.3.3c.2.2.413.4.6.623l.551.695.143.176.127.187c.083.127.171.254.254.386l.259.386c.088.127.149.276.226.413.143.276.3.551.441.843s.243.6.369.9a13.781,13.781,0,0,1,.783,3.963,13.544,13.544,0,0,1-.507,4.013c-.1.309-.2.617-.3.921a9.552,9.552,0,0,1-.38.876,4.325,4.325,0,0,1-.2.43l-.226.4-.226.4-.116.2-.132.182-.507.733c-.176.232-.375.447-.551.661l-.276.325-.3.292-.59.551a13.136,13.136,0,0,1-2.448,1.681l-.59.309c-.193.094-.4.16-.584.243l-.551.22a5.37,5.37,0,0,1-.551.165l-.5.149a4.147,4.147,0,0,1-.469.116l-.832.149a4.666,4.666,0,0,1-.673.077l-.491.039h-.3Z" transform="translate(-396.577 -225.821)" fill="#263238"/>
      <path id="Path_37535" data-name="Path 37535" d="M410.628,256.207a.864.864,0,0,1-.083-.127l-.215-.375c-.094-.16-.2-.364-.32-.606s-.254-.513-.375-.827c-.061-.16-.127-.32-.2-.491s-.121-.353-.187-.551c-.138-.375-.243-.783-.358-1.213a16.537,16.537,0,0,1-.43-5.755c.05-.441.094-.865.176-1.251.033-.2.061-.386.1-.551s.083-.353.127-.518c.066-.325.171-.617.243-.871a6.2,6.2,0,0,1,.226-.65c.072-.176.116-.3.154-.4a.551.551,0,0,1,.066-.138.714.714,0,0,1-.039.149c-.039.1-.083.243-.138.408s-.132.4-.2.65-.165.551-.232.876q-.055.248-.116.513c-.039.182-.061.369-.1.551-.072.386-.11.8-.165,1.246a19.843,19.843,0,0,0-.028,2.878A19.1,19.1,0,0,0,409,251.99c.116.424.215.832.347,1.207.061.187.116.369.182.551l.187.491c.116.314.248.584.358.827s.209.452.3.617l.193.386A.552.552,0,0,1,410.628,256.207Z" transform="translate(-383.688 -231.109)" fill="#fff"/>
      <path id="Path_37536" data-name="Path 37536" d="M430.453,247.622a1.064,1.064,0,0,1-.38-.353,2,2,0,0,1-.4-1.191,2.023,2.023,0,0,1,.4-1.191,1.059,1.059,0,0,1,.386-.358,2.68,2.68,0,0,0-.314.408,2.051,2.051,0,0,0,0,2.282C430.315,247.479,430.469,247.606,430.453,247.622Z" transform="translate(-393.243 -232.299)" fill="#fff"/>
      <path id="Path_37537" data-name="Path 37537" d="M435.861,240.249a1.168,1.168,0,0,1-.083-.518,1.185,1.185,0,0,1,.044-.551c.039,0,.072.232.083.524A1.152,1.152,0,0,1,435.861,240.249Z" transform="translate(-395.977 -229.898)" fill="#fff"/>
      <path id="Path_37538" data-name="Path 37538" d="M430.767,228.436a2,2,0,0,1-.413,0h-1.108a3.461,3.461,0,0,0-.766.061c-.276.061-.551.072-.871.116a14.885,14.885,0,0,0-1.951.491,14.26,14.26,0,0,0-1.858.788c-.27.149-.551.281-.766.43s-.452.281-.645.413-.364.259-.513.369-.281.209-.38.292a1.748,1.748,0,0,1-.325.248,2.905,2.905,0,0,1,.292-.281c.1-.094.22-.2.369-.314s.309-.254.507-.386.4-.287.639-.43.5-.292.766-.447a13.7,13.7,0,0,1,1.869-.8,13.859,13.859,0,0,1,1.973-.485c.314-.044.606-.094.882-.11s.551-.039.772-.044.452,0,.639,0h.48Z" transform="translate(-389.428 -225.036)" fill="#fff"/>
      <path id="Path_37539" data-name="Path 37539" d="M436.246,280.964a1.758,1.758,0,0,1-.292.088,7.215,7.215,0,0,1-.827.171,12.126,12.126,0,0,1-2.756.132,12.288,12.288,0,0,1-2.756-.5c-.336-.11-.612-.2-.794-.287a1.709,1.709,0,0,1-.281-.127,1.218,1.218,0,0,1,.3.083c.187.066.463.149.8.243a13.781,13.781,0,0,0,2.718.469,14.073,14.073,0,0,0,2.756-.094c.353-.05.634-.1.832-.132A1.1,1.1,0,0,1,436.246,280.964Z" transform="translate(-392.736 -248.413)" fill="#fff"/>
    </g>
    <g id="freepik--Device--inject-5" transform="translate(106.83 62.41)">
      <path id="Path_37540" data-name="Path 37540" d="M265.736,282.488l-74.666-.358a16.267,16.267,0,0,1-16.19-16.339l.788-187.18a16.273,16.273,0,0,1,16.366-16.2l74.644.325a16.267,16.267,0,0,1,16.19,16.333l-.788,187.2a16.262,16.262,0,0,1-16.344,16.218Z" transform="translate(-174.88 -62.41)" fill="#263238"/>
      <path id="Path_37541" data-name="Path 37541" d="M270.622,74.5l-14.454-.066-42.286-.2h-5.088l-12.679-.055a11.389,11.389,0,0,0-11.444,11.339L183.9,268.245a11.389,11.389,0,0,0,11.339,11.438l74.523.342a11.389,11.389,0,0,0,11.427-11.356l.772-182.726A11.389,11.389,0,0,0,270.622,74.5Z" transform="translate(-178.928 -67.691)" fill="#fafafa"/>
      <path id="Path_37542" data-name="Path 37542" d="M340.7,104.122a.932.932,0,1,1-.926-.932.932.932,0,0,1,.926.932Z" transform="translate(-248.458 -80.71)" fill="#263238"/>
      <path id="Path_37543" data-name="Path 37543" d="M340.683,110.237a.932.932,0,1,1-.932-.937.932.932,0,0,1,.932.937Z" transform="translate(-248.449 -83.452)" fill="#263238"/>
      <path id="Path_37544" data-name="Path 37544" d="M340.654,116.292a.937.937,0,1,1-.932-.932A.937.937,0,0,1,340.654,116.292Z" transform="translate(-248.431 -86.171)" fill="#263238"/>
      <rect id="Rectangle_5586" data-name="Rectangle 5586" width="79.434" height="50.395" rx="4.3" transform="translate(18.461 55.257)" fill="#ebebeb"/>
      <rect id="Rectangle_5587" data-name="Rectangle 5587" width="79.434" height="50.395" rx="4.3" transform="translate(16.278 51.983)" fill="#e0e0e0"/>
      <rect id="Rectangle_5588" data-name="Rectangle 5588" width="79.434" height="50.395" rx="4.3" transform="translate(13.759 49.265)" fill="#f8951d"/>
      <path id="Path_37545" data-name="Path 37545" d="M220.788,170.452c0,.645-.513,1.02-1.494,1.02H217.37V167.74h1.819c.932,0,1.411.391,1.411.97a.9.9,0,0,1-.5.821A.915.915,0,0,1,220.788,170.452Zm-2.563-2.062v.882h.86c.419,0,.65-.149.65-.441s-.232-.441-.65-.441Zm1.7,1.973c0-.314-.243-.463-.689-.463h-1.009v.921h1.009C219.68,170.821,219.922,170.684,219.922,170.364Z" transform="translate(-193.947 -109.677)" fill="#fff"/>
      <path id="Path_37546" data-name="Path 37546" d="M226.809,170.673h-1.731l-.331.8h-.887l1.654-3.732h.854l1.654,3.732h-.9Zm-.27-.656-.6-1.428-.59,1.428Z" transform="translate(-196.86 -109.677)" fill="#fff"/>
      <path id="Path_37547" data-name="Path 37547" d="M235.573,167.74v3.732h-.711L233,169.206v2.266h-.854V167.74h.717l1.852,2.266V167.74Z" transform="translate(-200.58 -109.677)" fill="#fff"/>
      <path id="Path_37548" data-name="Path 37548" d="M241.334,170.028l-.5.551v.943H240V167.79h.86v1.742l1.654-1.742h.959l-1.543,1.654,1.654,2.067h-1.009Z" transform="translate(-204.103 -109.7)" fill="#fff"/>
      <path id="Path_37549" data-name="Path 37549" d="M219.886,198.735H219.2v.9h-.353v-.9H216.92v-.254l1.814-2.271h.391l-1.747,2.2h1.483v-.788h.342v.788h.684Z" transform="translate(-193.746 -122.453)" fill="#fff"/>
      <path id="Path_37550" data-name="Path 37550" d="M224.845,198.652c0,.551-.413,1.014-1.24,1.014a1.781,1.781,0,0,1-1.235-.441l.176-.281a1.483,1.483,0,0,0,1.058.4c.551,0,.882-.265.882-.689s-.292-.678-.926-.678h-.243v-.259l.948-1.191h-1.753v-.314h2.2v.254l-.965,1.218C224.481,197.748,224.845,198.106,224.845,198.652Z" transform="translate(-196.191 -122.453)" fill="#fff"/>
      <path id="Path_37551" data-name="Path 37551" d="M229.87,198.63c0,.579-.4,1.036-1.24,1.036a1.775,1.775,0,0,1-1.229-.441l.176-.281a1.455,1.455,0,0,0,1.047.4c.584,0,.893-.281.893-.7s-.276-.711-1.147-.711h-.728l.176-1.72h1.874v.314h-1.566l-.121,1.1h.441C229.478,197.616,229.87,198.024,229.87,198.63Z" transform="translate(-198.449 -122.453)" fill="#fff"/>
      <path id="Path_37552" data-name="Path 37552" d="M235.264,198.59a1.069,1.069,0,0,1-1.169,1.053c-.91,0-1.406-.634-1.406-1.714,0-1.163.634-1.769,1.566-1.769a1.56,1.56,0,0,1,.81.187l-.143.281a1.191,1.191,0,0,0-.661-.16c-.739,0-1.213.474-1.213,1.406v.276a1.1,1.1,0,0,1,1.047-.584,1.036,1.036,0,0,1,1.169,1.025Zm-.347,0c0-.452-.336-.739-.86-.739a.794.794,0,0,0-.882.744c0,.38.314.739.9.739a.75.75,0,0,0,.838-.733Z" transform="translate(-200.822 -122.43)" fill="#fff"/>
      <path id="Path_37553" data-name="Path 37553" d="M249.119,200.329l-.816-1.075-.821,1.075h-.391l1.02-1.317-.97-1.251h.391l.772,1,.772-1h.386l-.97,1.235,1.025,1.317Z" transform="translate(-207.285 -123.149)" fill="#fff"/>
      <path id="Path_37554" data-name="Path 37554" d="M253.845,200.329l-.832-1.075-.821,1.075H251.8l1.02-1.317-.97-1.251h.391l.772,1,.772-1h.38l-.948,1.235,1.025,1.317Z" transform="translate(-209.398 -123.149)" fill="#fff"/>
      <path id="Path_37555" data-name="Path 37555" d="M258.6,200.329l-.816-1.075-.821,1.075h-.391l1.014-1.317-.97-1.251h.391l.777,1,.772-1h.38l-.97,1.235L259,200.312Z" transform="translate(-211.539 -123.149)" fill="#fff"/>
      <path id="Path_37556" data-name="Path 37556" d="M263.335,200.329l-.816-1.075-.838,1.075h-.391l1.02-1.317-.97-1.251h.391l.772,1,.772-1h.386l-.965,1.235,1.025,1.317Z" transform="translate(-213.657 -123.149)" fill="#fff"/>
      <path id="Path_37557" data-name="Path 37557" d="M279.689,200.315l-.816-1.075-.821,1.075h-.391l1.014-1.334-.965-1.251h.391l.772,1,.772-1h.408l-1,1.251,1.031,1.317Z" transform="translate(-221.003 -123.135)" fill="#fff"/>
      <path id="Path_37558" data-name="Path 37558" d="M284.419,200.329l-.816-1.075-.821,1.075h-.391l1.02-1.317-.97-1.251h.391l.772,1,.772-1h.386l-.97,1.235,1.025,1.317Z" transform="translate(-223.126 -123.149)" fill="#fff"/>
      <path id="Path_37559" data-name="Path 37559" d="M289.159,200.315l-.816-1.075-.821,1.075h-.391l1.031-1.334-.97-1.251h.391l.772,1,.772-1h.38l-.976,1.251,1.025,1.317Z" transform="translate(-225.253 -123.135)" fill="#fff"/>
      <path id="Path_37560" data-name="Path 37560" d="M293.9,200.329l-.816-1.075-.821,1.075h-.391l1.014-1.317-.943-1.251h.391l.777,1,.772-1h.38l-1,1.235,1.031,1.317Z" transform="translate(-227.38 -123.149)" fill="#fff"/>
      <path id="Path_37561" data-name="Path 37561" d="M309.293,196.21v3.423h-.353v-3.109h-.81v-.314Z" transform="translate(-234.677 -122.453)" fill="#fff"/>
      <path id="Path_37562" data-name="Path 37562" d="M313.805,198.652c0,.551-.413,1.014-1.24,1.014a1.781,1.781,0,0,1-1.235-.441l.176-.281a1.472,1.472,0,0,0,1.058.4c.551,0,.882-.265.882-.689s-.292-.678-.926-.678h-.243v-.259l.948-1.191h-1.753v-.314h2.2v.254l-.965,1.218C313.441,197.748,313.805,198.106,313.805,198.652Z" transform="translate(-236.113 -122.453)" fill="#fff"/>
      <path id="Path_37563" data-name="Path 37563" d="M319.581,198.735h-.689v.9h-.347v-.9H316.61v-.254l1.814-2.271h.391l-1.747,2.2h1.483v-.788h.342v.788h.689Z" transform="translate(-238.482 -122.453)" fill="#fff"/>
      <path id="Path_37564" data-name="Path 37564" d="M324.748,199.314v.309h-2.4v-.232L323.767,198c.386-.38.463-.612.463-.843,0-.4-.281-.639-.8-.639a1.147,1.147,0,0,0-.932.38l-.254-.215a1.543,1.543,0,0,1,1.213-.491c.695,0,1.136.353,1.136.926a1.4,1.4,0,0,1-.551,1.069l-1.163,1.147Z" transform="translate(-241.009 -122.443)" fill="#fff"/>
      <path id="Path_37565" data-name="Path 37565" d="M213.73,214.622a.838.838,0,0,1,.887-.843.849.849,0,0,1,.667.287l-.243.226a.518.518,0,0,0-.408-.193.524.524,0,0,0,0,1.047.518.518,0,0,0,.408-.193l.243.22a.821.821,0,0,1-.673.292.838.838,0,0,1-.882-.843Z" transform="translate(-192.314 -130.337)" fill="#fff"/>
      <path id="Path_37566" data-name="Path 37566" d="M217.86,215.1H217.1l-.149.347h-.386l.728-1.654h.375l.728,1.654h-.391Zm-.116-.287-.259-.628-.259.628Z" transform="translate(-193.589 -130.342)" fill="#fff"/>
      <path id="Path_37567" data-name="Path 37567" d="M221.252,215.444l-.32-.452h-.347v.452h-.375V213.79h.706c.435,0,.711.226.711.59a.551.551,0,0,1-.336.518l.364.524Zm-.358-1.323h-.309v.551h.309c.232,0,.347-.1.347-.287S221.125,214.121,220.894,214.121Z" transform="translate(-195.222 -130.342)" fill="#fff"/>
      <path id="Path_37568" data-name="Path 37568" d="M223.09,215.279l.127-.287a.937.937,0,0,0,.551.171c.226,0,.314-.072.314-.171,0-.309-.948-.1-.948-.706,0-.276.226-.507.689-.507a1.1,1.1,0,0,1,.551.143l-.116.287a.97.97,0,0,0-.452-.127c-.226,0-.314.083-.314.187,0,.3.954.094.954.689,0,.276-.232.507-.695.507A1.18,1.18,0,0,1,223.09,215.279Z" transform="translate(-196.514 -130.338)" fill="#fff"/>
      <path id="Path_37569" data-name="Path 37569" d="M228.779,213.83v1.654h-.38v-.667h-.744v.667h-.375V213.83h.375v.645h.744v-.645Z" transform="translate(-198.395 -130.36)" fill="#fff"/>
      <path id="Path_37570" data-name="Path 37570" d="M230.469,214.543a.893.893,0,1,1,.893.843.843.843,0,0,1-.893-.843Zm1.406,0a.513.513,0,1,0-.513.524.5.5,0,0,0,.5-.524Z" transform="translate(-199.825 -130.257)" fill="#fff"/>
      <path id="Path_37571" data-name="Path 37571" d="M234.23,213.83h.38v1.323h.816v.309h-1.2Z" transform="translate(-201.514 -130.36)" fill="#fff"/>
      <path id="Path_37572" data-name="Path 37572" d="M236.79,213.83h.744a.827.827,0,1,1,0,1.654h-.744Zm.728,1.323a.507.507,0,1,0,0-1.014h-.347v1.014Z" transform="translate(-202.662 -130.36)" fill="#fff"/>
      <path id="Path_37573" data-name="Path 37573" d="M241.562,215.141v.3H240.3V213.79h1.229v.3h-.843v.364h.755v.3h-.755v.375Z" transform="translate(-204.237 -130.342)" fill="#fff"/>
      <path id="Path_37574" data-name="Path 37574" d="M244.152,215.444l-.32-.452h-.347v.452h-.375V213.79h.706c.435,0,.711.226.711.59a.551.551,0,0,1-.336.518l.364.524Zm-.358-1.323h-.309v.551h.309c.232,0,.347-.1.347-.287s-.1-.265-.331-.265Z" transform="translate(-205.499 -130.342)" fill="#fff"/>
      <rect id="Rectangle_5589" data-name="Rectangle 5589" width="24.227" height="2.095" rx="1.047" transform="translate(21.041 89.164)" fill="#fff"/>
      <rect id="Rectangle_5590" data-name="Rectangle 5590" width="13.461" height="2.095" rx="1.047" transform="translate(71.855 89.164)" fill="#fff"/>
      <g id="Group_8827" data-name="Group 8827" transform="translate(13.759 49.265)" opacity="0.2">
        <path id="Path_37575" data-name="Path 37575" d="M276.645,151.78h-74.17a2.635,2.635,0,0,0-2.635,2.629v13.307c4.686,3.269,11.124,3.859,16.835,2.651,6.731-1.406,12.827-4.851,19.1-7.673s13.164-5.082,19.938-3.919c6.4,1.1,11.852,5.077,17.64,8.026a34.215,34.215,0,0,0,5.931,2.392V154.409a2.635,2.635,0,0,0-2.635-2.629Z" transform="translate(-199.84 -151.78)" fill="#fff"/>
      </g>
      <rect id="Rectangle_5591" data-name="Rectangle 5591" width="20.622" height="20.622" rx="8.78" transform="translate(15.418 119.295)" fill="#f8951d"/>
      <path id="Path_37576" data-name="Path 37576" d="M218.528,297.25h-4.509a.259.259,0,0,1-.254-.2l-1.654-6.615h-1.566a.276.276,0,0,1,0-.551h1.781a.27.27,0,0,1,.259.2l1.654,6.615h4.3a.276.276,0,1,1,0,.551Z" transform="translate(-190.761 -164.488)" fill="#fff"/>
      <circle id="Ellipse_3272" data-name="Ellipse 3272" cx="0.843" cy="0.843" r="0.843" transform="translate(23.268 133.192)" fill="#f8951d"/>
      <path id="Path_37577" data-name="Path 37577" d="M217.722,305.775a1.1,1.1,0,1,1,1.1-1.1A1.1,1.1,0,0,1,217.722,305.775Zm0-1.687a.551.551,0,1,0,.551.579A.584.584,0,0,0,217.722,304.088Z" transform="translate(-193.611 -170.632)" fill="#fff"/>
      <circle id="Ellipse_3273" data-name="Ellipse 3273" cx="0.843" cy="0.843" r="0.843" transform="translate(27.959 133.192)" fill="#f8951d"/>
      <path id="Path_37578" data-name="Path 37578" d="M226.232,305.775a1.1,1.1,0,1,1,1.1-1.1A1.1,1.1,0,0,1,226.232,305.775Zm0-1.687a.551.551,0,1,0,.418.161A.551.551,0,0,0,226.232,304.088Z" transform="translate(-197.43 -170.632)" fill="#fff"/>
      <path id="Path_37579" data-name="Path 37579" d="M222.018,296.885H215.6a.265.265,0,0,1-.27-.265.27.27,0,0,1,.27-.265h6.174l.706-3.974h-8.076a.276.276,0,1,1,0-.551h8.417a.275.275,0,0,1,.2.094.259.259,0,0,1,.055.221l-.8,4.5a.265.265,0,0,1-.265.237Z" transform="translate(-192.494 -165.363)" fill="#fff"/>
      <rect id="Rectangle_5592" data-name="Rectangle 5592" width="41.834" height="4.978" rx="2.489" transform="translate(42.881 122.917)" fill="#e0e0e0"/>
      <rect id="Rectangle_5593" data-name="Rectangle 5593" width="21.146" height="4.978" rx="2.489" transform="translate(42.881 132.701)" fill="#e0e0e0"/>
      <path id="Path_37580" data-name="Path 37580" d="M280.929,264.613c0,.077-21.769.143-48.614.143s-48.625-.066-48.625-.143,21.769-.143,48.625-.143S280.929,264.536,280.929,264.613Z" transform="translate(-178.833 -153.085)" fill="#e0e0e0"/>
      <rect id="Rectangle_5594" data-name="Rectangle 5594" width="63.415" height="21.383" rx="10.691" transform="translate(22.287 148.18)" fill="#f8951d"/>
      <path id="Path_37581" data-name="Path 37581" d="M267.1,347.357c0,1.1-.8,1.742-2.095,1.742h-.827v1.235H262.84V345.61H265C266.291,345.61,267.1,346.283,267.1,347.357Zm-1.345,0c0-.435-.281-.695-.832-.695h-.744v1.367h.744C265.469,348.03,265.751,347.793,265.751,347.357Z" transform="translate(-214.352 -189.498)" fill="#fff"/>
      <path id="Path_37582" data-name="Path 37582" d="M274.012,349.419h-2l-.375.915H270.28l2.084-4.724h1.317l2.089,4.724h-1.389Zm-.391-.987-.606-1.51-.606,1.51Z" transform="translate(-217.691 -189.498)" fill="#fff"/>
      <path id="Path_37583" data-name="Path 37583" d="M282.447,348.642v1.692h-1.334V348.62l-1.8-3.01h1.411l1.1,1.88,1.1-1.88h1.3Z" transform="translate(-221.743 -189.498)" fill="#fff"/>
      <circle id="Ellipse_3274" data-name="Ellipse 3274" cx="4.118" cy="4.118" r="4.118" transform="matrix(0.231, -0.973, 0.973, 0.231, 11.732, 31.33)" fill="#f8951d"/>
      <rect id="Rectangle_5595" data-name="Rectangle 5595" width="30.837" height="3.611" rx="1.805" transform="translate(38.058 26.151)" fill="#e0e0e0"/>
      <rect id="Rectangle_5596" data-name="Rectangle 5596" width="62.947" height="4.206" transform="translate(25.638 175.731)" fill="#263238"/>
      <path id="Path_37584" data-name="Path 37584" d="M226.8,385c.551.187,7.927.187,7.927,14.746s-.369,32.623,7.37,33.174,48.471,0,48.471,0V396.383a11.075,11.075,0,0,0-11.025-11.074Z" transform="translate(-198.179 -207.174)" fill="#fafafa"/>
      <path id="Path_37585" data-name="Path 37585" d="M226.787,385l30.616.094,15.534.055h4.256a24.773,24.773,0,0,1,4.41.215,11.31,11.31,0,0,1,8.991,9.647,19.921,19.921,0,0,1,.1,2.431v35.627h-.143c-14.244.171-27.788.3-40.1.2-1.538,0-3.054-.039-4.553-.066a37.33,37.33,0,0,1-4.449-.243,4.961,4.961,0,0,1-2-.937,7.3,7.3,0,0,1-1.433-1.626,14.574,14.574,0,0,1-1.654-3.859,42.6,42.6,0,0,1-1.312-7.811c-.226-2.525-.325-4.961-.38-7.282-.121-4.647,0-8.847-.083-12.53a22.62,22.62,0,0,0-1.775-9.178,10.038,10.038,0,0,0-1.973-2.784,7.491,7.491,0,0,0-2.078-1.384,10.2,10.2,0,0,0-1.99-.551l.524.083a6.8,6.8,0,0,1,1.488.43,7.536,7.536,0,0,1,2.117,1.378,10.082,10.082,0,0,1,2.012,2.795,22.458,22.458,0,0,1,1.836,9.222c.088,3.682,0,7.888.127,12.53.061,2.315.165,4.746.4,7.271a42.814,42.814,0,0,0,1.317,7.762,14.41,14.41,0,0,0,1.621,3.787,7.058,7.058,0,0,0,1.384,1.566,4.856,4.856,0,0,0,1.891.888c1.411.187,2.916.176,4.41.226s3.015.055,4.553.066c12.3.083,25.853-.055,40.1-.226l-.143.143V397.425a19.145,19.145,0,0,0-.088-2.4,10.9,10.9,0,0,0-8.781-9.371,24.979,24.979,0,0,0-4.344-.22l-4.239-.028-15.435-.121Z" transform="translate(-198.166 -207.174)" fill="#263238"/>
      <path id="Path_37586" data-name="Path 37586" d="M254.89,446.748s6.372,0,7.717-9.4c1.626-11.2,0-21.013,8.66-21.383s31.884,0,31.884,0v30.781Z" transform="translate(-210.785 -220.997)" fill="#e0e0e0"/>
      <path id="Path_37587" data-name="Path 37587" d="M282.67,416.039s6.984-.843,6.984,10.766.182,19.294,7.921,20.148,55.3,0,55.3,0-7.558-3.561-8.109-14.068-2.756-16.912-10.325-17.116S282.67,416.039,282.67,416.039Z" transform="translate(-223.251 -220.959)" fill="#fafafa"/>
      <path id="Path_37588" data-name="Path 37588" d="M282.661,415.986H284.5l5.3-.083,19.486-.209,13.472-.094h7.513c1.29,0,2.6,0,3.93.039a11.179,11.179,0,0,1,3.991.766,8.081,8.081,0,0,1,3.241,2.6,13.506,13.506,0,0,1,1.913,3.809,37.483,37.483,0,0,1,1.45,8.632c.05.744.088,1.488.171,2.2l.11,1.1.21,1.1.1.551.154.551.309,1.1a19.294,19.294,0,0,0,.876,2.095,15.154,15.154,0,0,0,6.2,6.659l.48.265h-1.869c-12.761.209-24.916.347-35.974.342-5.512,0-10.788,0-15.7-.232a22.4,22.4,0,0,1-3.616-.391,7.326,7.326,0,0,1-3.137-1.582,7.685,7.685,0,0,1-1.94-2.756,14.573,14.573,0,0,1-.932-3.087,38.26,38.26,0,0,1-.6-5.942c-.072-1.885-.077-3.66-.077-5.325,0-.827,0-1.654-.039-2.4a7.645,7.645,0,0,0-.055-1.13c-.055-.369-.088-.728-.132-1.075l-.066-.524c-.033-.171-.072-.336-.11-.5-.072-.331-.149-.656-.215-.97l-.309-.893-.149-.424-.2-.4a6.72,6.72,0,0,0-1.83-2.453,5.4,5.4,0,0,0-1.962-1.1,5.252,5.252,0,0,0-1.367-.248h-.474a1.07,1.07,0,0,1,.116,0,3.125,3.125,0,0,1,.358,0,5.193,5.193,0,0,1,1.384.226,5.353,5.353,0,0,1,2,1.075,6.824,6.824,0,0,1,1.88,2.47c1.1,2.111,1.34,5.06,1.328,8.362,0,1.654,0,3.44.1,5.319a39.2,39.2,0,0,0,.612,5.909,14.405,14.405,0,0,0,.926,3.043,7.47,7.47,0,0,0,1.907,2.641,7,7,0,0,0,3.043,1.521,21.5,21.5,0,0,0,3.572.375c4.912.2,10.165.209,15.694.209,11.052,0,23.207-.16,35.969-.364l1.317-.028-.061.276a15.435,15.435,0,0,1-6.328-6.791,20,20,0,0,1-.887-2.133l-.314-1.1-.154-.551-.1-.551-.209-1.1-.11-1.1c-.083-.755-.121-1.494-.171-2.2a37.066,37.066,0,0,0-1.433-8.572,13.19,13.19,0,0,0-1.863-3.787,7.811,7.811,0,0,0-3.131-2.525,11.026,11.026,0,0,0-3.892-.755c-1.328,0-2.635-.033-3.925-.044h-7.513l-13.472.055-19.486.121-5.3.028h-1.378Z" transform="translate(-223.242 -220.906)" fill="#263238"/>
      <path id="Path_37589" data-name="Path 37589" d="M271.878,416.238c0,.033-.551,0-1.543.116a6.676,6.676,0,0,0-3.71,1.8,10.564,10.564,0,0,0-2.756,5.474,45.376,45.376,0,0,0-.645,7.646,37.948,37.948,0,0,1-.893,7.668,18.112,18.112,0,0,1-1.141,3.181,11.721,11.721,0,0,1-1.5,2.536,6.344,6.344,0,0,1-1.858,1.571,6.561,6.561,0,0,1-1.742.6,7.113,7.113,0,0,1-1.152.1,2.249,2.249,0,0,1-.4,0,1.947,1.947,0,0,1,.4-.05,7.466,7.466,0,0,0,1.1-.154,6.444,6.444,0,0,0,1.681-.634,6.1,6.1,0,0,0,1.786-1.56,11.892,11.892,0,0,0,1.444-2.5,19,19,0,0,0,1.1-3.148,38.9,38.9,0,0,0,.86-7.618,45.73,45.73,0,0,1,.673-7.684,10.627,10.627,0,0,1,2.872-5.568,6.615,6.615,0,0,1,3.831-1.764,5.146,5.146,0,0,1,.667-.05,4.632,4.632,0,0,1,.491,0,2.1,2.1,0,0,1,.435.033Z" transform="translate(-210.623 -221.174)" fill="#263238"/>
      <path id="Path_37590" data-name="Path 37590" d="M295.608,400.2c0,.077-8.93.143-19.944.143s-19.944-.066-19.944-.143,8.925-.143,19.944-.143S295.608,400.121,295.608,400.2Z" transform="translate(-211.157 -213.932)" fill="#e0e0e0"/>
      <path id="Path_37591" data-name="Path 37591" d="M298.167,410.963c0,.077-8.638.143-19.294.143s-19.294-.066-19.294-.143,8.632-.143,19.294-.143S298.167,410.886,298.167,410.963Z" transform="translate(-212.89 -218.761)" fill="#e0e0e0"/>
      <path id="Path_37592" data-name="Path 37592" d="M346.438,431.883c0,.083-8.93.143-19.944.143s-19.944-.061-19.944-.143,8.93-.143,19.944-.143S346.438,431.812,346.438,431.883Z" transform="translate(-233.968 -228.149)" fill="#e0e0e0"/>
      <path id="Path_37593" data-name="Path 37593" d="M350.022,444.453c0,.077-8.191.143-18.3.143s-18.3-.066-18.3-.143,8.191-.143,18.3-.143S350.022,444.376,350.022,444.453Z" transform="translate(-237.055 -233.79)" fill="#e0e0e0"/>
      <rect id="Rectangle_5597" data-name="Rectangle 5597" width="7.354" height="7.354" rx="3.15" transform="translate(74.016 56.249)" fill="#fff"/>
    </g>
    <g id="freepik--speech-bubble--inject-5" transform="translate(25.093 84.424)">
      <path id="Path_37594" data-name="Path 37594" d="M52.146,128.567l-3.644-.441a14.007,14.007,0,1,1,3.605-3.489h0Z" transform="translate(-26.651 -102.403)" fill="#fff"/>
      <path id="Path_37595" data-name="Path 37595" d="M52.1,128.51V127.48c0-.673-.033-1.654-.055-2.905l.083.039h0a.05.05,0,0,1-.072,0,.061.061,0,0,1,0-.066,13.869,13.869,0,0,0,2.453-6.229,14.112,14.112,0,0,0-.116-4.41,13.969,13.969,0,0,0-1.8-4.669A14.228,14.228,0,0,0,48.81,105.2a13.555,13.555,0,0,0-5.479-2.365,14.145,14.145,0,0,0-6.339.27,13.588,13.588,0,0,0-5.777,3.307,13.98,13.98,0,0,0-2.2,2.629c-.281.491-.551.976-.816,1.477l-.331.772-.16.38-.127.4a14.233,14.233,0,0,0-.551,6.383,13.55,13.55,0,0,0,2.161,5.628,13.935,13.935,0,0,0,8.555,5.942l1.158.2c.38.061.761.066,1.1.1a12.486,12.486,0,0,0,2.139-.044,13.935,13.935,0,0,0,6.3-2.2h.033l2.685.353.706.1.248.039h-.232l-.695-.072-2.723-.3h.033a13.908,13.908,0,0,1-6.334,2.31,12.222,12.222,0,0,1-2.166.055c-.375-.033-.755-.039-1.141-.094l-1.174-.2a14.1,14.1,0,0,1-4.708-2,14.476,14.476,0,0,1-4.013-4.068,13.732,13.732,0,0,1-2.2-5.716,14.415,14.415,0,0,1,.551-6.5l.127-.4.165-.391c.116-.259.226-.551.336-.783.248-.518.551-1.009.827-1.51a14.486,14.486,0,0,1,2.2-2.679,13.781,13.781,0,0,1,5.876-3.341,14.332,14.332,0,0,1,6.521-.292,13.688,13.688,0,0,1,5.568,2.42,14.332,14.332,0,0,1,3.8,4.112,14.068,14.068,0,0,1,1.814,4.746,14.432,14.432,0,0,1,.094,4.471,13.935,13.935,0,0,1-2.53,6.268l-.077-.066h0a.05.05,0,0,1,.072,0,.039.039,0,0,1,0,.033v3.688C52.1,128.461,52.1,128.51,52.1,128.51Z" transform="translate(-26.601 -102.346)" fill="#263238"/>
      <path id="Path_37596" data-name="Path 37596" d="M40.97,124.792l1.747-1.874,3.605,2.993,6.642-6.841,1.742,1.753-8.522,8.594Z" transform="translate(-33.049 -109.851)" fill="#f8951d"/>
    </g>
    <g id="freepik--Character--inject-5" transform="translate(45.359 79.013)">
      <path id="Path_37597" data-name="Path 37597" d="M95.475,110.153a10.578,10.578,0,0,1,11.223-8.936l.551.039c5.865.772,8.484,6.19,7.552,12.034l-2.045,20.738-.1,4.283-13.974,1.268.3-9.051s-5.6-1.29-5.259-6.957C93.871,120.83,94.692,115.219,95.475,110.153Z" transform="translate(-76.984 -96.416)" fill="#ffbf9d"/>
      <path id="Path_37598" data-name="Path 37598" d="M103.19,153.044a13.726,13.726,0,0,0,7.58-1.654s-1.968,4.09-7.58,3.17Z" transform="translate(-81.237 -118.944)" fill="#ff9a6c"/>
      <path id="Path_37599" data-name="Path 37599" d="M100.888,127.146a.81.81,0,0,0,.722.871.783.783,0,0,0,.888-.667.81.81,0,0,0-.722-.876.783.783,0,0,0-.888.673Z" transform="translate(-80.203 -107.759)" fill="#263238"/>
      <path id="Path_37600" data-name="Path 37600" d="M98.742,122.035c.094.11.739-.3,1.61-.232s1.477.551,1.577.447-.039-.243-.3-.463a2.244,2.244,0,0,0-1.257-.491,2.205,2.205,0,0,0-1.29.314C98.8,121.8,98.7,121.985,98.742,122.035Z" transform="translate(-79.237 -105.437)" fill="#263238"/>
      <path id="Path_37601" data-name="Path 37601" d="M115.687,128.555a.8.8,0,0,0,.717.871.772.772,0,0,0,.888-.667.816.816,0,0,0-.717-.876.772.772,0,0,0-.887.673Z" transform="translate(-86.844 -108.39)" fill="#263238"/>
      <path id="Path_37602" data-name="Path 37602" d="M114.242,123.458c.094.116.739-.292,1.61-.232s1.477.551,1.577.452-.039-.243-.3-.469a2.205,2.205,0,0,0-1.251-.485,2.111,2.111,0,0,0-1.29.314C114.3,123.226,114.2,123.424,114.242,123.458Z" transform="translate(-86.192 -106.077)" fill="#263238"/>
      <path id="Path_37603" data-name="Path 37603" d="M105.909,129.462a5.854,5.854,0,0,0-1.395-.358c-.221-.039-.43-.1-.458-.254a1.152,1.152,0,0,1,.2-.645l.783-1.654a27.329,27.329,0,0,0,1.8-4.322,29.7,29.7,0,0,0-2.144,4.167c-.259.551-.513,1.1-.75,1.654a1.29,1.29,0,0,0-.182.865.551.551,0,0,0,.342.347,1.542,1.542,0,0,0,.375.083A5.684,5.684,0,0,0,105.909,129.462Z" transform="translate(-81.487 -105.857)" fill="#263238"/>
      <path id="Path_37604" data-name="Path 37604" d="M109.837,136.78c-.138,0-.209.926-1.064,1.538a4.672,4.672,0,0,1-1.874.551c-.017.116.209.2.634.243a2.359,2.359,0,0,0,1.56-.419,2.045,2.045,0,0,0,.832-1.3C109.992,137.023,109.9,136.78,109.837,136.78Z" transform="translate(-82.901 -112.387)" fill="#263238"/>
      <path id="Path_37605" data-name="Path 37605" d="M114.288,117.412c.072.243.948.193,1.957.391s1.819.551,1.973.331c.066-.1-.061-.331-.38-.584A3.489,3.489,0,0,0,114.85,117C114.464,117.12,114.26,117.3,114.288,117.412Z" transform="translate(-86.216 -103.455)" fill="#263238"/>
      <path id="Path_37606" data-name="Path 37606" d="M99.656,117.463c.138.209.75.05,1.472.088s1.323.232,1.477.033c.072-.094,0-.3-.265-.507a2.161,2.161,0,0,0-2.381-.1C99.695,117.165,99.6,117.363,99.656,117.463Z" transform="translate(-79.643 -103.362)" fill="#263238"/>
      <path id="Path_37607" data-name="Path 37607" d="M129.2,131.881a1.532,1.532,0,0,1,1.764-1.356c1.053.176,2.2.86,1.951,3.037-.4,3.859-4.2,2.657-4.195,2.547S129.012,133.5,129.2,131.881Z" transform="translate(-92.694 -109.572)" fill="#ffbf9d"/>
      <path id="Path_37608" data-name="Path 37608" d="M130.525,135.792a1.176,1.176,0,0,0,.171.121.678.678,0,0,0,.5.061,1.654,1.654,0,0,0,.926-1.411,2.293,2.293,0,0,0-.088-.981.783.783,0,0,0-.452-.551.353.353,0,0,0-.419.143c-.061.1-.044.182-.066.187s-.077-.072,0-.226a.4.4,0,0,1,.176-.226.5.5,0,0,1,.386-.061.948.948,0,0,1,.612.628,2.265,2.265,0,0,1,.116,1.1,1.708,1.708,0,0,1-1.152,1.56.711.711,0,0,1-.606-.165C130.519,135.891,130.508,135.8,130.525,135.792Z" transform="translate(-93.501 -110.616)" fill="#ff9a6c"/>
      <path id="Path_37609" data-name="Path 37609" d="M115.374,110.908c-.32,1.1-.2,2.949-1.191,2.7-1.968-.5-1.494,3.533-2.437,3.137s-1.753-1.532-1.814-4.013c-.072-3.142,1.191-5.413-.044-9.018a4.768,4.768,0,0,0-3.98-2.464,4.851,4.851,0,0,0-4.173,2.2c-.176-1.1-.711-2.756-1.687-3.307a2.844,2.844,0,0,0-3.126.259,2.31,2.31,0,0,0-.408,3,1.1,1.1,0,0,1-1.235-.441,1.852,1.852,0,0,0,.491,1.411,1.714,1.714,0,0,1-1-.695c.1.458.193.91.292,1.362-1.654.044-3.274-1.56-3.737-2.982a7.38,7.38,0,0,1,1.053-6.273,6.8,6.8,0,0,1,5.645-3.258,5.207,5.207,0,0,1,5.049,3.192,7.329,7.329,0,0,1,6.108-.656,5.308,5.308,0,0,1,3.026,4.206,3.164,3.164,0,0,1,3.131.606l.209.182a4.73,4.73,0,0,1,1.373,4.355c-.121.634-.342,1.284-.469,1.792C116.074,107.733,115.374,110.908,115.374,110.908Z" transform="translate(-75.776 -92.53)" fill="#263238"/>
      <path id="Path_37610" data-name="Path 37610" d="M97.359,106.666s-.05,0-.132-.1a2.415,2.415,0,0,1-.325-.353,3.307,3.307,0,0,1-.65-1.654,3.142,3.142,0,0,1,.772-2.475,3.385,3.385,0,0,1,2.955-1.1,3.8,3.8,0,0,1,1.566.617,5.077,5.077,0,0,1,1.174,1.036,6.157,6.157,0,0,1,1.378,4.107,1.285,1.285,0,0,1-.05.48.667.667,0,0,1-.033.165,7.392,7.392,0,0,0-.226-2.376,6.224,6.224,0,0,0-1.191-2.277,4.322,4.322,0,0,0-2.624-1.6,3.258,3.258,0,0,0-2.817,1.053,3.048,3.048,0,0,0-.766,2.359,3.351,3.351,0,0,0,.584,1.615C97.2,106.49,97.37,106.655,97.359,106.666Z" transform="translate(-78.112 -96.309)" fill="#455a64"/>
      <path id="Path_37611" data-name="Path 37611" d="M95.61,107.44a.921.921,0,0,1-.116-.187c-.072-.127-.176-.314-.3-.551a12.491,12.491,0,0,1-.91-2.161,6.152,6.152,0,0,1-.254-1.6,4.41,4.41,0,0,1,.336-1.836,3.594,3.594,0,0,1,1.329-1.582,4.344,4.344,0,0,1,2.1-.695,5.358,5.358,0,0,1,2.2.347,6.935,6.935,0,0,1,1.792,1.025,5.314,5.314,0,0,1,1.957,2.833,3.859,3.859,0,0,1-.116,2.326,2.79,2.79,0,0,1-.287.551.739.739,0,0,1-.138.176,4.533,4.533,0,0,0,.364-.766,3.908,3.908,0,0,0,.061-2.271,5.281,5.281,0,0,0-1.94-2.756,5.9,5.9,0,0,0-3.859-1.323,4.184,4.184,0,0,0-2.023.667,3.467,3.467,0,0,0-1.273,1.5,4.355,4.355,0,0,0-.336,1.775,6,6,0,0,0,.226,1.571,13.054,13.054,0,0,0,.854,2.161l.276.551A1.042,1.042,0,0,1,95.61,107.44Z" transform="translate(-77.124 -95.351)" fill="#455a64"/>
      <path id="Path_37612" data-name="Path 37612" d="M132.72,115.4a7.255,7.255,0,0,0,.832-.849,5.843,5.843,0,0,0,1.235-2.525,5.755,5.755,0,0,0-.132-2.806c-.209-.7-.447-1.1-.419-1.1a1.1,1.1,0,0,1,.182.265,5.223,5.223,0,0,1,.353.8,5.452,5.452,0,0,1-1.13,5.446,5.216,5.216,0,0,1-.645.6A1.058,1.058,0,0,1,132.72,115.4Z" transform="translate(-94.489 -99.526)" fill="#455a64"/>
      <path id="Path_37613" data-name="Path 37613" d="M126.33,115.956a3.872,3.872,0,0,0,.5-.3,2.817,2.817,0,0,0,.976-1.174l.16-.369-.033.4c-.05.551-.1,1.174-.165,1.852l-.127-.077a5.071,5.071,0,0,0,2.128-3.274,5.26,5.26,0,0,0,0-1.819,7.283,7.283,0,0,0-.551-1.6.671.671,0,0,1,.072.094,2.758,2.758,0,0,1,.171.3,4.813,4.813,0,0,1,.424,1.185,5.082,5.082,0,0,1-2.15,5.253l-.143.094v-.171c.072-.678.138-1.306.2-1.847l.127.033a2.811,2.811,0,0,1-1.058,1.185,3.082,3.082,0,0,1-.391.193A.413.413,0,0,1,126.33,115.956Z" transform="translate(-91.621 -100.19)" fill="#455a64"/>
      <path id="Path_37614" data-name="Path 37614" d="M118.7,104.75a3.666,3.666,0,0,0-.893-1.1,3.247,3.247,0,0,0-1.395-.645,3.412,3.412,0,0,0-1.858.165,4,4,0,0,0-1.56,1.058,4.79,4.79,0,0,0-.843,1.306,9.03,9.03,0,0,0-.419,1.384,1.24,1.24,0,0,1,.028-.391,4.906,4.906,0,0,1,.281-1.042,4.741,4.741,0,0,1,.832-1.367,4.079,4.079,0,0,1,1.621-1.1,3.534,3.534,0,0,1,1.951-.16,3.263,3.263,0,0,1,1.439.706,2.921,2.921,0,0,1,.678.843,2.594,2.594,0,0,1,.116.27C118.7,104.711,118.709,104.744,118.7,104.75Z" transform="translate(-85.07 -97.131)" fill="#455a64"/>
      <path id="Path_37615" data-name="Path 37615" d="M117.795,100.473a5.4,5.4,0,0,0-1.064-.413,3.9,3.9,0,0,0-2.657.375,4.824,4.824,0,0,0-1.88,1.957c-.336.628-.447,1.064-.474,1.053a.965.965,0,0,1,.055-.309,4.8,4.8,0,0,1,.309-.8,4.691,4.691,0,0,1,1.907-2.051,3.815,3.815,0,0,1,2.756-.342,2.96,2.96,0,0,1,.788.336.987.987,0,0,1,.259.193Z" transform="translate(-85.065 -95.804)" fill="#455a64"/>
      <path id="Path_37616" data-name="Path 37616" d="M91.724,432.121l.391,10.6s-10.645,3.958-10.766,5.926h20.583l.072-16.537Z" transform="translate(-71.436 -244.919)" fill="#263238"/>
      <path id="Path_37617" data-name="Path 37617" d="M111.616,449.722a.838.838,0,0,1,.584.959.81.81,0,0,1-.948.584.888.888,0,0,1-.606-1.02.832.832,0,0,1,1.047-.5" transform="translate(-84.575 -252.813)" fill="#e0e0e0"/>
      <path id="Path_37618" data-name="Path 37618" d="M101.927,460.734l-.055-1.654-19.712.639s-.921.4-.816,1.047Z" transform="translate(-71.429 -257.022)" fill="#263238"/>
      <path id="Path_37619" data-name="Path 37619" d="M100.27,451.1c0,.1.507.143,1,.463s.755.75.849.706-.055-.617-.661-1S100.247,451,100.27,451.1Z" transform="translate(-79.926 -253.399)" fill="#fff"/>
      <path id="Path_37620" data-name="Path 37620" d="M96.36,452.76c0,.1.413.265.755.695s.441.871.551.865.16-.551-.27-1.1S96.36,452.661,96.36,452.76Z" transform="translate(-78.172 -254.163)" fill="#fff"/>
      <path id="Path_37621" data-name="Path 37621" d="M93.508,456.076c.088,0,.232-.485,0-1.031s-.728-.772-.772-.689.248.38.452.832S93.431,456.065,93.508,456.076Z" transform="translate(-76.544 -254.895)" fill="#fff"/>
      <path id="Path_37622" data-name="Path 37622" d="M100.6,446.48c.044.094.5-.044,1.069,0s1.014.215,1.064.127-.375-.441-1.042-.48S100.547,446.4,100.6,446.48Z" transform="translate(-80.072 -251.208)" fill="#fff"/>
      <path id="Path_37623" data-name="Path 37623" d="M141.791,433.89l.816,12.811-2.271,10.319a1.317,1.317,0,0,0,1.1,1.582h0a1.3,1.3,0,0,0,1.136-.386c1.88-1.957,8.765-9.195,8.649-10.126-.127-1.1.033-13.566.033-13.566Z" transform="translate(-97.893 -245.718)" fill="#263238"/>
      <path id="Path_37624" data-name="Path 37624" d="M142.342,469.458l9.752-11.378v.551a1.979,1.979,0,0,1-.419,1.3c-.772.987-2.971,3.677-8.18,9.145a1.312,1.312,0,0,1-1.174.386Z" transform="translate(-98.797 -256.573)" fill="#263238"/>
      <g id="Group_8828" data-name="Group 8828" transform="translate(50.211 197.341)" opacity="0.6">
        <path id="Path_37625" data-name="Path 37625" d="M154.754,450.659a.788.788,0,0,0-.176,1.047.766.766,0,0,0,1.036.182.838.838,0,0,0,.176-1.1.788.788,0,0,0-1.1-.072" transform="translate(-154.452 -450.523)" fill="#fff"/>
      </g>
      <path id="Path_37626" data-name="Path 37626" d="M145.1,467.207a4.068,4.068,0,0,0-1.169-.954,3.963,3.963,0,0,0-1.488-.22c0-.033.149-.138.447-.193a2.078,2.078,0,0,1,2.051.91C145.1,467.02,145.125,467.191,145.1,467.207Z" transform="translate(-98.851 -260.045)" fill="#fff"/>
      <path id="Path_37627" data-name="Path 37627" d="M143.76,470.814a11.029,11.029,0,0,0-1.158-.507,12.382,12.382,0,0,0-1.262-.11,1.477,1.477,0,0,1,1.328-.16C143.435,470.224,143.826,470.776,143.76,470.814Z" transform="translate(-98.357 -261.898)" fill="#fff"/>
      <path id="Path_37628" data-name="Path 37628" d="M147.2,463.107a13.27,13.27,0,0,0-1.736-.9,13.81,13.81,0,0,0-1.918-.364,3.589,3.589,0,0,1,3.655,1.268Z" transform="translate(-99.349 -258.216)" fill="#fff"/>
      <path id="Path_37629" data-name="Path 37629" d="M147.627,456.734c-.033.077-.755-.193-1.654-.187s-1.654.259-1.654.176a3.263,3.263,0,0,1,3.352,0Z" transform="translate(-99.694 -255.756)" fill="#fff"/>
      <path id="Path_37630" data-name="Path 37630" d="M147.268,449.851a4.178,4.178,0,0,0-3.418.259,1.235,1.235,0,0,1,.4-.375,2.889,2.889,0,0,1,1.262-.4,2.812,2.812,0,0,1,1.306.209C147.13,449.7,147.284,449.824,147.268,449.851Z" transform="translate(-99.483 -252.644)" fill="#fff"/>
      <path id="Path_37631" data-name="Path 37631" d="M145.189,446.467a1.07,1.07,0,0,1-.039-.485,3.451,3.451,0,0,1,.331-1.284,1.533,1.533,0,0,1,.612-.739.551.551,0,0,1,.6.094.821.821,0,0,1,.226.551,1.858,1.858,0,0,1-1.555,1.786,2.166,2.166,0,0,1-2.166-1.042.766.766,0,0,1-.061-.617.551.551,0,0,1,.551-.3,1.814,1.814,0,0,1,.86.4,3.76,3.76,0,0,1,.915.965c.176.259.232.424.215.43A5.915,5.915,0,0,0,144.434,445a1.693,1.693,0,0,0-.761-.336.276.276,0,0,0-.287.16.551.551,0,0,0,.061.408,1.924,1.924,0,0,0,1.885.876,1.61,1.61,0,0,0,1.345-1.494.612.612,0,0,0-.143-.4.276.276,0,0,0-.325-.061,1.35,1.35,0,0,0-.551.617,4.96,4.96,0,0,0-.469,1.7Z" transform="translate(-99.147 -250.214)" fill="#fff"/>
      <path id="Path_37632" data-name="Path 37632" d="M82.7,267.948a45.566,45.566,0,0,0-1.3,13.373c.149,2.855,9.316,85.277,9.316,85.277l11.653-1.047-2.012-77.064.485.435s6.946,32.424,7.409,37.551c.413,4.6,5.953,41.613,5.953,41.613l11.312-.551-2.563-46.79L119.526,278.3l-1.373-12.37Z" transform="translate(-71.433 -170.344)" fill="#263238"/>
      <path id="Path_37633" data-name="Path 37633" d="M114.6,286.215a2.755,2.755,0,0,1-.551.292,6.25,6.25,0,0,1-1.621.524,3.505,3.505,0,0,1-1.2,0A2.519,2.519,0,0,1,110,286.4a3.049,3.049,0,0,1-.728-1.345c-.138-.507-.215-1.036-.309-1.571-.364-2.144-.6-4.1-.733-5.512-.066-.706-.1-1.284-.127-1.681a2.619,2.619,0,0,1,0-.623,3.07,3.07,0,0,1,.11.612c.055.452.127,1.014.209,1.654.182,1.417.447,3.363.81,5.512a4.974,4.974,0,0,0,.948,2.756,2.679,2.679,0,0,0,2.2.634,7.607,7.607,0,0,0,1.61-.43,2.475,2.475,0,0,1,.606-.193Z" transform="translate(-83.434 -174.715)" fill="#455a64"/>
      <path id="Path_37634" data-name="Path 37634" d="M112.466,276.357a.529.529,0,0,1,.27-.077,1.2,1.2,0,0,1,.722.254,1.24,1.24,0,1,1-1.9.684,1.1,1.1,0,0,1,.408-.645c.149-.11.248-.121.254-.11a1.444,1.444,0,0,0-.474.794,1.1,1.1,0,0,0,.226.915.965.965,0,0,0,1.069.226.981.981,0,0,0,.695-.838,1.147,1.147,0,0,0-.4-.86,1.472,1.472,0,0,0-.871-.342Z" transform="translate(-84.973 -174.989)" fill="#455a64"/>
      <path id="Path_37635" data-name="Path 37635" d="M142.223,283.374a1.5,1.5,0,0,1-.447.055,8.269,8.269,0,0,1-1.218,0,11.808,11.808,0,0,1-7.21-3.236,8.424,8.424,0,0,1-.821-.9c-.176-.226-.265-.358-.248-.369s.441.458,1.2,1.13a13.081,13.081,0,0,0,7.1,3.186A11.73,11.73,0,0,1,142.223,283.374Z" transform="translate(-94.29 -176.174)" fill="#455a64"/>
      <path id="Path_37636" data-name="Path 37636" d="M87.374,276.39a5.705,5.705,0,0,1-.728,1.306,14.823,14.823,0,0,1-2.315,2.756,14.631,14.631,0,0,1-2.905,2.106,5.605,5.605,0,0,1-1.356.606,13.866,13.866,0,0,1,1.257-.772,19,19,0,0,0,2.817-2.139,18.742,18.742,0,0,0,2.343-2.651A12.735,12.735,0,0,1,87.374,276.39Z" transform="translate(-70.862 -175.038)" fill="#455a64"/>
      <path id="Path_37637" data-name="Path 37637" d="M68.307,191.93c-1.731,5.055-1.538,4.619-4.779,19.723-.6,2.789.458,7.166,2.971,8.489s6.979-.132,8.473-2.558l2.4-22.794Z" transform="translate(-63.365 -137.136)" fill="#ffbf9d"/>
      <path id="Path_37638" data-name="Path 37638" d="M111.274,204.71,111.2,192.7l.05-1.18,12.188-2.844s-2.392-7.883-4.586-16.355a13.108,13.108,0,0,0-6.5-7.883h0l-.226-.1h0l-11.73-4.961c-2.37,2.525-5.821,4.553-9.145,3.583a10.413,10.413,0,0,1-4.829-3.307l-7.9,2.718h0a10.3,10.3,0,0,0-5.468,4.41c-1.654,2.949-6.94,16.372-7.05,16.648l9.79.876s-1.736,31.763-1.1,37.435c0,0,2.381,1.654,8.379,1.929,12.171.551,30.28-.292,30.28-.292-.287-1.83-.584-4.89-.75-6.439Z" transform="translate(-64.548 -122.525)" fill="#f8951d"/>
      <path id="Path_37639" data-name="Path 37639" d="M83.321,183.18c.05,0-.209,7.574-.579,16.912S82.031,217,82,217s.209-7.574.551-16.918S83.271,183.174,83.321,183.18Z" transform="translate(-71.725 -133.21)" fill="#263238"/>
      <path id="Path_37640" data-name="Path 37640" d="M145.687,187c-.083,0,.16,6.725.551,15.01s.777,15,.865,14.994-.16-6.72-.551-15.01S145.775,187,145.687,187Z" transform="translate(-100.3 -134.924)" fill="#263238"/>
      <path id="Path_37641" data-name="Path 37641" d="M151.929,215.217c-.4-2.982-.728-5.617-.728-5.617l-9.746,2.266.419,1.571-7.536-7.657-1.2.1-3.793,3.941a95.361,95.361,0,0,0,5.231,9.7c2.5,3.539,6.433,8.93,11.819,8.478C151.378,227.587,152.64,220.564,151.929,215.217Z" transform="translate(-92.976 -143.352)" fill="#ffbf9d"/>
      <path id="Path_37642" data-name="Path 37642" d="M156.915,223.389a8.269,8.269,0,0,0-2.139-1.968,8.66,8.66,0,0,0-2.547-1.411c-.044.083,1.1.733,2.359,1.654S156.854,223.455,156.915,223.389Z" transform="translate(-103.243 -149.737)" fill="#ff9a6c"/>
      <path id="Path_37643" data-name="Path 37643" d="M114.53,186.269l3.352-1.709,4.344,1.378,2.15,1.984,3.307,8.335,2.651,3.357-4.68,6.064-2.96-5.4a9.378,9.378,0,0,1-3.517-2.679c-1.009-1.577-1.455-2.448-1.455-2.448s-1.45-.695-1.72-1.367a3.208,3.208,0,0,1-.254-1.185l.733-1.075a2.7,2.7,0,0,1,.22-1.367,1.34,1.34,0,0,1,.551-.458s-.215-.9.121-1.229a10.656,10.656,0,0,1,2.007-.915h0l-1.461-.832S114.712,187.752,114.53,186.269Z" transform="translate(-86.326 -133.829)" fill="#ffbf9d"/>
      <path id="Path_37644" data-name="Path 37644" d="M121.755,193.118c0,.044-.513.055-1.1.187s-1.1.32-1.1.281a2.635,2.635,0,0,1,1.1-.419A2.5,2.5,0,0,1,121.755,193.118Z" transform="translate(-88.579 -137.652)" fill="#ff9a6c"/>
      <path id="Path_37645" data-name="Path 37645" d="M120.159,196.487a8.82,8.82,0,0,1-.97.127,8.155,8.155,0,0,1-.959.165,2.111,2.111,0,0,1,.937-.309,2.205,2.205,0,0,1,.992.017Z" transform="translate(-87.986 -139.152)" fill="#ff9a6c"/>
      <path id="Path_37646" data-name="Path 37646" d="M119.11,201.164c-.039,0-.066-.193-.061-.43s.039-.424.077-.424.066.193.066.43S119.149,201.164,119.11,201.164Z" transform="translate(-88.354 -140.897)" fill="#ff9a6c"/>
      <path id="Path_37647" data-name="Path 37647" d="M119.521,202.462a1.874,1.874,0,0,0-.309-.772,2.089,2.089,0,0,0-.673-.491.681.681,0,0,1,.265,0,1.1,1.1,0,0,1,.551.375,1.147,1.147,0,0,1,.237.6C119.576,202.363,119.538,202.462,119.521,202.462Z" transform="translate(-88.125 -141.291)" fill="#ff9a6c"/>
      <path id="Path_37648" data-name="Path 37648" d="M123.948,197.98a2.04,2.04,0,0,0-.584-.551,2.205,2.205,0,0,0-.794-.2.54.54,0,0,1,.254-.072,1.147,1.147,0,0,1,1.058.59C123.959,197.876,123.965,197.975,123.948,197.98Z" transform="translate(-89.934 -139.482)" fill="#ff9a6c"/>
      <path id="Path_37649" data-name="Path 37649" d="M126.794,194.594a2.038,2.038,0,0,0-.551-.551,2.569,2.569,0,0,0-.733-.254.531.531,0,0,1,.243-.05,1.169,1.169,0,0,1,.551.182,1.1,1.1,0,0,1,.4.435C126.805,194.5,126.811,194.589,126.794,194.594Z" transform="translate(-91.253 -137.949)" fill="#ff9a6c"/>
      <path id="Path_37650" data-name="Path 37650" d="M128.834,192.461a1.44,1.44,0,0,0-.039-.287,1.312,1.312,0,0,0-.243-.612,1.329,1.329,0,0,0-.518-.413c-.16-.072-.27-.094-.265-.116s.121-.033.3,0a1.158,1.158,0,0,1,.6.419,1.185,1.185,0,0,1,.226.695C128.894,192.356,128.85,192.466,128.834,192.461Z" transform="translate(-92.267 -136.725)" fill="#ff9a6c"/>
      <path id="Path_37651" data-name="Path 37651" d="M124.638,189.643c0,.05-.7.061-1.543.187a14.46,14.46,0,0,0-1.5.391,3.478,3.478,0,0,1,1.483-.551,6.714,6.714,0,0,1,1.1-.083A1.328,1.328,0,0,1,124.638,189.643Z" transform="translate(-89.494 -136.085)" fill="#ff9a6c"/>
      <g id="Group_8829" data-name="Group 8829" transform="translate(10.399 67.864)" opacity="0.3">
        <path id="Path_37652" data-name="Path 37652" d="M97.439,220.155a5.943,5.943,0,0,0-.827-2.756c-.981-1.384-2.905-1.654-4.592-1.593s-3.451.413-5.038-.165l-4.752,14.1a7.05,7.05,0,0,0,4.283-3.137,7.679,7.679,0,0,1,1.571-2.266c1.014-.777,2.414-.667,3.693-.678a14.884,14.884,0,0,0,3.941-.579,2.629,2.629,0,0,0,1.45-.827A2.829,2.829,0,0,0,97.439,220.155Z" transform="translate(-82.23 -215.64)"/>
      </g>
      <path id="Path_37653" data-name="Path 37653" d="M87.616,192.108,89.094,207.8a2.2,2.2,0,0,0,.97,1.8l9.52-.2a3.787,3.787,0,0,0,.728-2.668l-1.058-15.021c-.061-.9-.4-1.555-.8-1.566l-10.027-.232C87.908,189.909,87.512,190.989,87.616,192.108Z" transform="translate(-74.241 -136.234)" fill="#263238"/>
      <path id="Path_37654" data-name="Path 37654" d="M84.894,197.635a1.373,1.373,0,0,1,.033-1.7,2.106,2.106,0,0,1,1.654-.728,4.619,4.619,0,0,1,1.786.413,11.653,11.653,0,0,1,1.973,1.064,1.924,1.924,0,0,1,.987,1.207c.077.551-.513,1.1-.97.843a2.255,2.255,0,0,1,1.279,1.6c.083.667-.287,1.02-.937,1.2a1.014,1.014,0,0,1,.551,1.306,1.158,1.158,0,0,1-1.461.408,3.357,3.357,0,0,1-1.24-1.1,3.809,3.809,0,0,1,.171,2.392c-1.422-.551-2.822-2.1-2.4-3.6a2.034,2.034,0,0,1-.551-2.431,1.99,1.99,0,0,1-1.147-1.692" transform="translate(-72.902 -138.608)" fill="#ffbf9d"/>
      <path id="Path_37655" data-name="Path 37655" d="M76.834,197.13l-.116,6.709-1.742,2.618L67,213.6s1.18,9.7,4.785,8.638,4.471-1.747,6.615-5.656c1.136-2.1,1.841-5.512,2.5-7.458.386-1.147.05-4.84.05-4.84Z" transform="translate(-64.996 -139.47)" fill="#ffbf9d"/>
      <path id="Path_37656" data-name="Path 37656" d="M92.042,205.425a5.088,5.088,0,0,1-.612-.491,4.167,4.167,0,0,0-1.61-.871,2.249,2.249,0,0,0-.992,0,1.819,1.819,0,0,0-.733.347,2.393,2.393,0,0,0-.485.579.529.529,0,0,1,.061-.2,1.422,1.422,0,0,1,.353-.463,1.857,1.857,0,0,1,.772-.4,2.293,2.293,0,0,1,1.058,0,3.859,3.859,0,0,1,1.654.943A3.075,3.075,0,0,1,92.042,205.425Z" transform="translate(-74.245 -142.489)" fill="#ff9a6c"/>
      <path id="Path_37657" data-name="Path 37657" d="M91.454,200.749a3.306,3.306,0,0,1-.744-.331c-.22-.11-.485-.248-.788-.369a6.874,6.874,0,0,0-1.025-.287,3.087,3.087,0,0,0-1.047-.039,1.935,1.935,0,0,0-.777.32,2,2,0,0,0-.551.59.551.551,0,0,1,.066-.209,1.427,1.427,0,0,1,.386-.469,1.88,1.88,0,0,1,.827-.369,2.844,2.844,0,0,1,1.1,0,5.859,5.859,0,0,1,1.047.309,7.017,7.017,0,0,1,.794.4,6.24,6.24,0,0,1,.711.452Z" transform="translate(-73.756 -140.548)" fill="#ff9a6c"/>
      <path id="Path_37658" data-name="Path 37658" d="M68.264,222.741a6.411,6.411,0,0,1-.1-2.5,7.563,7.563,0,0,1,.943-2.541,12.375,12.375,0,0,1,2.106-2.58c.86-.832,1.742-1.555,2.53-2.2a27.173,27.173,0,0,0,2.018-1.9,12.034,12.034,0,0,0,1.163-1.5,3.071,3.071,0,0,0,.331-.6,4.751,4.751,0,0,0-.413.551,14.366,14.366,0,0,1-1.218,1.395c-.551.551-1.24,1.18-2.04,1.847s-1.654,1.389-2.552,2.2a12.022,12.022,0,0,0-2.133,2.651,7.48,7.48,0,0,0-.943,2.646,5.22,5.22,0,0,0,.066,1.874,3.538,3.538,0,0,0,.143.491A1.327,1.327,0,0,0,68.264,222.741Z" transform="translate(-65.4 -144.756)" fill="#ff9a6c"/>
    </g>
  </g>
</svg>
