<svg xmlns="http://www.w3.org/2000/svg" width="250" height="146.881" viewBox="0 0 250 146.881"><g transform="translate(-62.794 -71.679)"><g transform="translate(62.794 79.724)"><path d="M80.528,222.359a1.234,1.234,0,0,0,.58-.206,1.078,1.078,0,0,0,.411-.6,1.79,1.79,0,0,0,.037-.481v-.556c0-1.588.037-3.868.062-6.678q0-1.058.025-2.21v-1.177a3.4,3.4,0,0,0,0-.584.992.992,0,0,0-.259-.494.914.914,0,0,0-.494-.267,4.357,4.357,0,0,0-.621,0H64.122a.983.983,0,0,0-.959.905l-.025,1.572c0,1.049-.033,2.057-.049,3.094-.029,2.029-.058,3.983-.086,5.847v.7a1.008,1.008,0,0,0,.148.6.922.922,0,0,0,.461.387,1.621,1.621,0,0,0,.625.066h7.18l6.674.033,1.815.021h.634a.793.793,0,0,1-.16,0H78.092l-6.674.037H64.225a1.843,1.843,0,0,1-.691-.07,1.148,1.148,0,0,1-.56-.465,1.206,1.206,0,0,1-.177-.708v-.7c.025-1.864.049-3.819.074-5.847,0-1.012.029-2.057.045-3.094,0-.527,0-1.053.025-1.588a1.2,1.2,0,0,1,1.173-1H80.264a5.077,5.077,0,0,1,.654.025,1.082,1.082,0,0,1,.588.321,1.185,1.185,0,0,1,.3.58,3.542,3.542,0,0,1,0,.621v1.177c0,.769-.025,1.51-.037,2.214-.058,2.81-.1,5.086-.132,6.674v.56a1.917,1.917,0,0,1-.049.494,1.152,1.152,0,0,1-.453.625,1.025,1.025,0,0,1-.444.165A.473.473,0,0,1,80.528,222.359Z" transform="translate(-62.794 -160.472)" fill="#455a64"/><path d="M84.305,220.676l2.247,1.362-2.3,1.35-2.3,1.346.049-2.712.049-2.712Z" transform="translate(-74.074 -166.607)" fill="#455a64"/><path d="M581.239,115.542a4.148,4.148,0,0,0,2.469-3.839,3.9,3.9,0,1,0-7.789-.037,4.144,4.144,0,0,0,2.469,3.876c-5.991.905-5.72,7.407-5.72,7.407l14.167.066S587.18,116.455,581.239,115.542Z" transform="translate(-362.86 -100.823)" fill="#f8951d"/><rect width="23.08" height="15.558" transform="translate(111.432 2.247) rotate(-5.42)" fill="#fff"/><path d="M357.925,106.772a1.684,1.684,0,0,0-.037-.288l-.086-.823c-.074-.728-.181-1.778-.317-3.123-.267-2.691-.65-6.551-1.111-11.25l.091.078L333.495,93.6l.095-.115h0v.247l.025.255.049.518.1,1.025.189,2.029q.189,2.012.374,3.959c.243,2.592.477,5.086.7,7.444l-.107-.086,16.542-1.523,4.736-.411,1.263-.111.329-.025h.033l-.317.033-1.234.132-4.707.473-16.6,1.621h-.1v-.1c-.226-2.362-.465-4.851-.716-7.444q-.185-1.942-.374-3.959c-.066-.671-.132-1.35-.193-2.029l-.1-1.025-.062-.5-.025-.255V93.51h0l.1-.119,22.977-2.16h.086v.086c.411,4.724.782,8.6,1.029,11.316.115,1.333.21,2.378.272,3.1.029.346.049.617.066.823S357.925,106.772,357.925,106.772Z" transform="translate(-222.049 -91.23)" fill="#455a64"/><path d="M356.589,91.4a1.262,1.262,0,0,1-.181.247l-.543.63c-.49.56-1.177,1.341-2.025,2.3l-6.8,7.6-.062.066-.074-.049-.613-.391-9-5.761-2.7-1.794-.732-.49a1.769,1.769,0,0,1-.247-.181,1.56,1.56,0,0,1,.272.144l.753.457,2.749,1.712,9.028,5.716.613.411h-.14l6.839-7.559,2.078-2.255.568-.6a2.211,2.211,0,0,1,.21-.2Z" transform="translate(-222.179 -91.33)" fill="#455a64"/><path d="M247.6,127.463a11.107,11.107,0,0,0-.235-1.49,5.793,5.793,0,0,0-.687-1.613,6.062,6.062,0,0,0-7.271-2.568,6.09,6.09,0,0,0-2.8,2.1,6,6,0,0,0,0,7.127,6.049,6.049,0,0,0,10.069-.461,5.794,5.794,0,0,0,.687-1.613,11.247,11.247,0,0,0,.235-1.485.359.359,0,0,1,0,.1v.292a3.081,3.081,0,0,1-.037.473,4.447,4.447,0,0,1-.115.642,5.888,5.888,0,0,1-.662,1.646,6.172,6.172,0,0,1-7.444,2.691,5.761,5.761,0,0,1-1.58-.823,5.831,5.831,0,0,1-1.321-1.321,6.2,6.2,0,0,1,0-7.378,5.83,5.83,0,0,1,1.321-1.321,5.761,5.761,0,0,1,1.58-.823,6.172,6.172,0,0,1,5.88.918,6.111,6.111,0,0,1,1.56,1.774,5.79,5.79,0,0,1,.667,1.646,4.448,4.448,0,0,1,.115.642,3.079,3.079,0,0,1,.037.473v.292a.412.412,0,0,1,0,.078Z" transform="translate(-164.27 -108.909)" fill="#263238"/><path d="M271.635,152.024c-.033.049-2.206-1.35-4.847-3.123s-4.761-3.255-4.728-3.292,2.2,1.35,4.847,3.127S271.668,151.975,271.635,152.024Z" transform="translate(-180.064 -123.232)" fill="#263238"/><path d="M322.656,174.535l-4.806-5.172,1.555-1.444,3.321,3.568,6.966-6.855,1.49,1.514Z" transform="translate(-212.898 -134.427)" fill="#f8951d"/></g><g transform="translate(75.097 71.679)"><path d="M615.006,176.552h.518l.411.053a5.283,5.283,0,0,1,2.407,1.053,5.4,5.4,0,0,1,2.02,3.6c.041.411.041.844.041,1.28V191.9a6.294,6.294,0,0,1-.181,1.823,5.4,5.4,0,0,1-4.061,3.909,9.489,9.489,0,0,1-2.057.128H595.736l.074-.029-4.144,4.144-.185.185v-4.386l.107.107a9.492,9.492,0,0,1-1.362-.049,5.393,5.393,0,0,1-4.613-4.308,7,7,0,0,1-.107-1.3v-8.695a19.032,19.032,0,0,1,.074-2.374,5.4,5.4,0,0,1,4.53-4.506,16.764,16.764,0,0,1,2.119-.066h7.67l11.077.037h0l-11.077.037h-7.67a16.137,16.137,0,0,0-2.09.07,5.205,5.205,0,0,0-4.366,4.354,18.379,18.379,0,0,0-.066,2.345v7.415a15.354,15.354,0,0,0,.1,2.543,5.406,5.406,0,0,0,1.094,2.292,5.209,5.209,0,0,0,3.349,1.848,9.519,9.519,0,0,0,1.333.045h.107v4.325l-.181-.078,4.148-4.144.029-.029H614.1a9.225,9.225,0,0,0,2.037-.123,5.2,5.2,0,0,0,1.806-.77,5.25,5.25,0,0,0,2.136-3,6.171,6.171,0,0,0,.185-1.728v-9.361c0-.44,0-.864-.029-1.267a5.321,5.321,0,0,0-1.963-3.551,5.251,5.251,0,0,0-2.366-1.074l-.391-.066h-.284Z" transform="translate(-382.714 -133.349)" fill="#263238"/><path d="M614.029,202.176s-.025-.1-.078-.28a1.181,1.181,0,0,0-.436-.6,1.111,1.111,0,0,0-1.037-.136,1.082,1.082,0,0,0,0,2.033,1.111,1.111,0,0,0,1.037-.136,1.181,1.181,0,0,0,.436-.6c.053-.173.058-.28.078-.28a.571.571,0,0,1,0,.3,1.136,1.136,0,0,1-.411.7,1.234,1.234,0,0,1-1.2.206,1.276,1.276,0,0,1,0-2.407,1.234,1.234,0,0,1,1.2.2,1.14,1.14,0,0,1,.411.7A.56.56,0,0,1,614.029,202.176Z" transform="translate(-398.057 -147.728)" fill="#263238"/><path d="M627.279,202.076a2.375,2.375,0,0,1-.074-.276,1.2,1.2,0,0,0-.436-.6,1.115,1.115,0,0,0-1.041-.136,1.09,1.09,0,0,0,0,2.037,1.127,1.127,0,0,0,1.041-.14,1.206,1.206,0,0,0,.436-.6,2.636,2.636,0,0,1,.074-.28.634.634,0,0,1,0,.3,1.173,1.173,0,0,1-.411.7,1.234,1.234,0,0,1-1.2.206,1.276,1.276,0,0,1,0-2.407,1.234,1.234,0,0,1,1.2.2,1.181,1.181,0,0,1,.411.7C627.316,201.969,627.291,202.076,627.279,202.076Z" transform="translate(-405.854 -147.669)" fill="#263238"/><path d="M640.539,202.076a2.841,2.841,0,0,1-.078-.276,1.185,1.185,0,0,0-.411-.6,1.115,1.115,0,0,0-1.041-.136,1.09,1.09,0,0,0,0,2.037,1.127,1.127,0,0,0,1.041-.14,1.193,1.193,0,0,0,.411-.6c.058-.173.062-.28.078-.28s.037.107,0,.3a1.173,1.173,0,0,1-.411.7,1.234,1.234,0,0,1-1.2.206,1.276,1.276,0,0,1,0-2.407,1.235,1.235,0,0,1,1.2.2,1.181,1.181,0,0,1,.411.7C640.576,201.969,640.551,202.076,640.539,202.076Z" transform="translate(-413.658 -147.669)" fill="#263238"/><path d="M141.106,128.639c0-3.531-3.7-5.761-7.493-4a4.308,4.308,0,0,0-1.992,1.909,6.319,6.319,0,0,0,.329,5.7l2.946,7.464a1.271,1.271,0,0,0,2.366,0l2.88-7.506A9.165,9.165,0,0,0,141.106,128.639Zm-3.555,3.078c-2.543,1.477-5.119-1.255-3.728-3.954a2.086,2.086,0,0,1,.823-.856c2.543-1.481,5.123,1.255,3.728,3.95A2.094,2.094,0,0,1,137.551,131.717Z" transform="translate(-115.282 -102.485)" fill="#f8951d"/><path d="M131.6,120.847h0a.312.312,0,0,0,.053.136,2.8,2.8,0,0,1,.136.411l.51,1.555c.449,1.37,1.1,3.382,1.942,5.962l.025.082h-.082l-8.3-1.518h-.053v-.058h0l.111.053a20.731,20.731,0,0,1-12.55,4.123,22.861,22.861,0,0,1-3.057-.255,22.192,22.192,0,0,1-3.1-.7l-1.535-.56a5.551,5.551,0,0,1-.757-.329l-.749-.358a21.324,21.324,0,0,1-5.539-4.016,20.43,20.43,0,0,1-4.07-5.925,20.752,20.752,0,1,1,39.577-9.958,19.632,19.632,0,0,1-.564,6.329,20.034,20.034,0,0,1-1.366,3.786c-.2.411-.362.728-.477.926l-.177.313.156-.313c.111-.218.267-.531.461-.946a20.624,20.624,0,0,0,1.325-3.786,19.706,19.706,0,0,0,.523-6.3,20.581,20.581,0,1,0-39.252,9.859,20.311,20.311,0,0,0,4.024,5.872,21.163,21.163,0,0,0,5.481,3.979l.745.358a5.045,5.045,0,0,0,.749.329l1.514.556a21.863,21.863,0,0,0,3.074.7,23.145,23.145,0,0,0,3.029.259,20.574,20.574,0,0,0,12.447-4.09l.111-.082v.14h0l-.053-.07,8.283,1.555-.058.066-1.893-5.979-.49-1.564c-.053-.173-.091-.309-.119-.411s-.041-.14-.041-.14Z" transform="translate(-92.692 -82.496)" fill="#263238"/><path d="M478.082,105.683a3.023,3.023,0,0,1-.082-.728,6.232,6.232,0,0,0-.1-.881,8.532,8.532,0,0,0-.23-1.177,10.983,10.983,0,0,0-1.234-3.037,11.345,11.345,0,0,0-2.823-3.251,11.18,11.18,0,0,0-4.7-2.189,11.3,11.3,0,0,0-5.9.366,10.51,10.51,0,0,0-2.88,1.465,10.312,10.312,0,0,0-2.42,2.321,11.151,11.151,0,0,0-.321,13.225,12.366,12.366,0,0,0,1.086,1.329,12.666,12.666,0,0,0,1.234,1.115,10.562,10.562,0,0,0,2.794,1.6,11.312,11.312,0,0,0,5.876.654,11.2,11.2,0,0,0,4.8-1.963,11.332,11.332,0,0,0,2.979-3.107,11.109,11.109,0,0,0,1.37-2.975,8.675,8.675,0,0,0,.288-1.165,5.786,5.786,0,0,0,.14-.872,3.124,3.124,0,0,1,.119-.728,3.252,3.252,0,0,1,0,.737,5.551,5.551,0,0,1-.082.893,8.392,8.392,0,0,1-.235,1.2,10.919,10.919,0,0,1-1.309,3.094,11.694,11.694,0,0,1-7.991,5.4,11.834,11.834,0,0,1-6.172-.63,11.2,11.2,0,0,1-2.95-1.646,13.507,13.507,0,0,1-1.317-1.169,13.794,13.794,0,0,1-1.127-1.395,11.715,11.715,0,0,1,.342-13.958,12.756,12.756,0,0,1,1.193-1.337,12.347,12.347,0,0,1,1.366-1.123,10.966,10.966,0,0,1,3.029-1.523,11.676,11.676,0,0,1,13.916,5.432,10.834,10.834,0,0,1,1.16,3.173,7.848,7.848,0,0,1,.177,1.234,5.475,5.475,0,0,1,.041.893,3.29,3.29,0,0,1-.033.716Z" transform="translate(-305.769 -84.602)" fill="#455a64"/><path d="M480.02,104.822c.025.037-.185.218-.584.514l-.741.531c-.144.1-.3.214-.469.321l-.568.3a12.978,12.978,0,0,1-6.761,1.7l-1.025-.045-.979-.156c-.16-.025-.321-.045-.477-.078l-.461-.123c-.3-.082-.6-.152-.885-.243a14.9,14.9,0,0,1-2.88-1.325,6.624,6.624,0,0,1-2.234-1.831c.058-.053.9.638,2.469,1.444a17.376,17.376,0,0,0,2.827,1.152c.272.082.56.144.852.218l.44.107.457.07.938.14.975.037a13.991,13.991,0,0,0,6.547-1.469l.576-.251c.173-.091.333-.185.486-.272l.782-.411C479.736,104.9,479.991,104.789,480.02,104.822Z" transform="translate(-310.007 -90.926)" fill="#455a64"/><path d="M461.137,134.616c-.025-.033.185-.214.584-.514l.741-.531c.144-.1.3-.214.469-.321l.568-.3a12.978,12.978,0,0,1,6.761-1.7l1.025.045.979.152c.16.029.321.049.477.082l.461.119c.3.086.6.156.885.247a14.662,14.662,0,0,1,2.88,1.321,6.658,6.658,0,0,1,2.234,1.835c-.058.053-.9-.638-2.469-1.444a17,17,0,0,0-2.827-1.156c-.276-.078-.564-.14-.852-.214l-.44-.111-.457-.07-.938-.136-.975-.041a13.991,13.991,0,0,0-6.551,1.473l-.556.259c-.173.091-.333.189-.486.272l-.782.436C461.421,134.542,461.162,134.653,461.137,134.616Z" transform="translate(-309.526 -106.737)" fill="#455a64"/><path d="M478.52,122.552c0,.177-5.156.193-11.522.037s-11.493-.411-11.489-.6,5.152-.189,11.522-.033S478.524,122.38,478.52,122.552Z" transform="translate(-306.215 -101.204)" fill="#455a64"/><path d="M482,117.27c-.173,0-.189-5.152-.037-11.5s.411-11.493.6-11.489.189,5.156.037,11.522S482.171,117.274,482,117.27Z" transform="translate(-321.721 -84.98)" fill="#455a64"/><path d="M474.016,117.248a9.342,9.342,0,0,1-2.773-2.736,15.52,15.52,0,0,1-2.057-3.732,13.805,13.805,0,0,1-.889-5.152,13.168,13.168,0,0,1,1.16-5.1,15.716,15.716,0,0,1,2.247-3.617,9.508,9.508,0,0,1,2.88-2.634c.058.066-1.095,1.012-2.518,2.909a17.068,17.068,0,0,0-2.057,3.572,13.216,13.216,0,0,0-1.066,4.88,14.011,14.011,0,0,0,.823,4.938,16.6,16.6,0,0,0,1.872,3.675A36.684,36.684,0,0,0,474.016,117.248Z" transform="translate(-313.738 -84.975)" fill="#455a64"/><path d="M483.365,94.285a9.233,9.233,0,0,1,2.773,2.736,15.521,15.521,0,0,1,2.057,3.732,13.99,13.99,0,0,1,.889,5.156,13.221,13.221,0,0,1-1.16,5.1,16,16,0,0,1-2.247,3.617,9.491,9.491,0,0,1-2.88,2.634c-.054-.07,1.095-1.012,2.514-2.909a17.075,17.075,0,0,0,2.057-3.572,13.3,13.3,0,0,0,1.062-4.88,14.011,14.011,0,0,0-.823-4.938,16.685,16.685,0,0,0-1.876-3.675A37.454,37.454,0,0,0,483.365,94.285Z" transform="translate(-322.273 -84.981)" fill="#455a64"/><path d="M442.449,109.61h0l-.14.037-.411.1-1.6.374-6.115,1.4-.082.021.025-.082,2.247-8.123v-.058h.078l-.066.107a20.653,20.653,0,0,1-3.09-9.909,21.5,21.5,0,0,1,.066-2.946,23.112,23.112,0,0,1,.527-3.02,22.033,22.033,0,0,1,.967-3.024c.23-.49.461-.983.7-1.477a5.351,5.351,0,0,1,.411-.724c.14-.239.28-.477.411-.716a21.426,21.426,0,0,1,4.489-5.16,20.434,20.434,0,0,1,6.263-3.526,20.761,20.761,0,1,1,6.4,40.326,19.669,19.669,0,0,1-6.255-1.123,20.285,20.285,0,0,1-3.646-1.7,7.838,7.838,0,0,1-.881-.56l-.3-.206.3.185c.206.128.506.313.9.543A20.986,20.986,0,0,0,447.3,112a19.752,19.752,0,0,0,6.23,1.082,20.585,20.585,0,1,0-6.341-39.992,20.357,20.357,0,0,0-6.213,3.485,21.2,21.2,0,0,0-4.444,5.115c-.14.235-.28.473-.411.708a6.037,6.037,0,0,0-.391.716l-.7,1.457a21.318,21.318,0,0,0-.963,3,22.837,22.837,0,0,0-.531,2.992,21.188,21.188,0,0,0-.07,2.926,20.513,20.513,0,0,0,3.037,9.839l.074.119h-.14l.074-.049c-.885,3.131-1.646,5.872-2.288,8.115l-.058-.066,6.123-1.362,1.6-.346.411-.086a1.234,1.234,0,0,1,.144-.025h0Z" transform="translate(-293.129 -71.679)" fill="#263238"/></g><g transform="translate(221.164 116.858)"><path d="M487.56,187.184c-2.012.469-3.292,2.506-3.732,4.526s-.218,4.115-.411,6.172-.914,4.242-2.646,5.349l1.724.5a4.7,4.7,0,0,1-2.025,2.592,3.839,3.839,0,0,0,2.354.8,1.761,1.761,0,0,0-.732,2.6,4.218,4.218,0,0,0,2.642,1.564,6.925,6.925,0,0,0,3.662.111,5.913,5.913,0,0,0,3.551-3.584,15.534,15.534,0,0,0,.823-5.131,46.144,46.144,0,0,0-1.234-12.978,4.54,4.54,0,0,0-1.51-2.7c-.868-.6-2.35-.358-2.613.662" transform="translate(-466.972 -184.539)" fill="#f8951d"/><path d="M513.736,296.388c-.477-1.819-3.259-12.065-5.761-18.756-2.761-7.427-8.456-8.962-8.456-8.962-12.818-4.374-24.335-4.4-36.622-.136a10.641,10.641,0,0,0-1.144.411h-.037c-9.123,3.58-10.065,13.217-10.065,13.217L447.8,305.539a5.3,5.3,0,0,0-.09.56l-.037.222h0a5.473,5.473,0,0,0,3.136,5.279,17.972,17.972,0,0,0,14.863.066l-3.193,4.65H500.5L498,310.181l.823-3.7,5.888,7.086a5.477,5.477,0,0,0,2.712,1.765c6.79.79,7.888-9.32,6.613-15.2h0" transform="translate(-447.666 -230.843)" fill="#455a64"/><path d="M520.251,265.578s-6.135,30.862-8.3,30.623-12.3-30.039-12.3-30.039S512.614,262.706,520.251,265.578Z" transform="translate(-478.265 -230.299)" fill="#ffbe9d"/><path d="M498.642,223.965c-.033-3.551-.132-7.292-.132-7.292s-4.58-.728-5.567-6.695c-.938-5.687-.078-18.842-.078-18.842h0a17.159,17.159,0,0,1,19.109,4.259h0l-.21,28.853a6.189,6.189,0,0,1-6.51,5.942h0A6.526,6.526,0,0,1,498.642,223.965Z" transform="translate(-474.054 -186.41)" fill="#ffbe9d"/><path d="M497.07,216.153a.765.765,0,0,0,.741.769.732.732,0,0,0,.786-.7.765.765,0,0,0-.741-.769.732.732,0,0,0-.786.7Z" transform="translate(-476.741 -201.472)" fill="#263238"/><path d="M494.6,214.67c.095.1.671-.333,1.494-.337s1.432.411,1.522.3-.058-.222-.321-.411a2.107,2.107,0,0,0-1.234-.366,2.058,2.058,0,0,0-1.189.411C494.638,214.444,494.551,214.625,494.6,214.67Z" transform="translate(-475.28 -200.532)" fill="#263238"/><path d="M517.32,217.124a.765.765,0,0,0,.741.769.732.732,0,0,0,.774-.7.765.765,0,0,0-.741-.769.732.732,0,0,0-.774.7Z" transform="translate(-488.658 -202.044)" fill="#263238"/><path d="M515.493,215.27c.1.1.675-.333,1.5-.337s1.432.411,1.518.3-.053-.222-.317-.411a2.107,2.107,0,0,0-1.234-.366,2.008,2.008,0,0,0-1.189.411C515.535,215.044,515.448,215.225,515.493,215.27Z" transform="translate(-487.577 -200.886)" fill="#263238"/><path d="M505.348,221.5a5.52,5.52,0,0,0-1.341-.23c-.21,0-.411-.062-.444-.206a1.062,1.062,0,0,1,.136-.625l.613-1.6a27.337,27.337,0,0,0,1.37-4.2,27.286,27.286,0,0,0-1.708,4.082c-.2.564-.411,1.1-.584,1.613a1.21,1.21,0,0,0-.1.823.519.519,0,0,0,.346.3,1.543,1.543,0,0,0,.358.049A5.35,5.35,0,0,0,505.348,221.5Z" transform="translate(-480.381 -200.986)" fill="#263238"/><path d="M507.1,251.881a15.2,15.2,0,0,0,7.983-2.181s-1.918,4.115-7.9,3.592Z" transform="translate(-482.644 -221.625)" fill="#eb996e"/><path d="M509.095,235.329a1.506,1.506,0,0,1,1.329-.56,1.362,1.362,0,0,1,.938.5.86.86,0,0,1,.07.983.992.992,0,0,1-1.078.276,3.086,3.086,0,0,1-1.053-.621.893.893,0,0,1-.239-.243.267.267,0,0,1,0-.3" transform="translate(-483.77 -212.834)" fill="#eb996e"/><path d="M510.5,232.67c-.136,0-.132.889-.893,1.527s-1.716.547-1.72.671c0,.058.214.173.617.181a2.226,2.226,0,0,0,1.436-.51,1.905,1.905,0,0,0,.687-1.28C510.663,232.888,510.565,232.666,510.5,232.67Z" transform="translate(-483.109 -211.603)" fill="#263238"/><path d="M507.772,185.648c-2.127,3.152-7.855,6.46-11.982,7.275.473-.646,2.991-2.259,3.461-2.9-1.852,1.432-4.526,3.354-7,3.526a1.51,1.51,0,0,1-.86-.119,1.156,1.156,0,0,1-.453-.93,25.045,25.045,0,0,1,.078-5.411,5.983,5.983,0,0,1,2.086-3.9c1.576-1.263,3.852-1.6,6-1.7a13.682,13.682,0,0,1,5.325.621,4.981,4.981,0,0,1,3.362,3.424" transform="translate(-473.07 -181.473)" fill="#f8951d"/><path d="M536.232,202.13a33.109,33.109,0,0,0,.527-4c.123-3.086,1.045-14.213-9.559-13.11l.6,2.992s-1.979,6.929,2.576,11.6c0,0-1.3,9.76,1.872,12.912,0,0,3.4-7.069,3.983-10.4" transform="translate(-494.473 -183.516)" fill="#f8951d"/><path d="M534.308,219.223a3.584,3.584,0,0,1,1.922.111,2.489,2.489,0,0,1,1.416,1.271,2.584,2.584,0,0,1,.029,1.905,4.4,4.4,0,0,1-1.078,1.613,3.012,3.012,0,0,1-1.156.778,1.44,1.44,0,0,1-1.329-.2" transform="translate(-498.54 -203.641)" fill="#ffbe9d"/><path d="M535.485,224.367c-.07.025.21.411.79.251a1.263,1.263,0,0,0,.72-.634,2.828,2.828,0,0,0,.309-1.062,1.646,1.646,0,0,0-.276-1.123,1.1,1.1,0,0,0-.823-.49c-.6,0-.786.411-.716.411a1.086,1.086,0,0,1,.671-.078,1.074,1.074,0,0,1,.675,1.234,1.765,1.765,0,0,1-.667,1.411C535.818,224.441,535.526,224.314,535.485,224.367Z" transform="translate(-499.342 -204.918)" fill="#eb996e"/><path d="M483.6,327.106c-.058,0-.107-2.424-.107-5.415s.049-5.411.107-5.411.107,2.424.107,5.411S483.655,327.106,483.6,327.106Z" transform="translate(-468.749 -260.809)" fill="#263238"/><path d="M512.941,315.629s-5.349.062-5.674,1.234c-.56,1.959.44,12.711.44,12.711l4.917,1.646s2.37-.547,1.276-5.111a33.3,33.3,0,0,0-3.251-8.205s6.534.181,6.353-1.28S512.941,315.629,512.941,315.629Z" transform="translate(-482.642 -260.384)" fill="#ffbe9d"/><path d="M516.14,323.168c.292-.058,6.823-.6,6.415.449s-6.415,1.3-6.415,1.3Z" transform="translate(-487.964 -264.751)" fill="#ffbe9d"/><path d="M534.479,285.02l-.807,20.393-2.979,7.831-18.3.379-.741-25.261Z" transform="translate(-485.321 -242.412)" fill="#263238"/><path d="M475.136,333.2a1.043,1.043,0,0,1-.222.115l-.658.3-2.44,1.041-8.073,3.37-4.44,1.831a26.207,26.207,0,0,0-3.555,1.646,6.937,6.937,0,0,0-1.992,1.7,8.11,8.11,0,0,0-.535.823.892.892,0,0,1,.1-.235,3.571,3.571,0,0,1,.37-.621,6.608,6.608,0,0,1,1.975-1.774,24.639,24.639,0,0,1,3.563-1.691l4.448-1.843,8.1-3.312,2.469-.979.675-.255a.989.989,0,0,1,.218-.107Z" transform="translate(-450.935 -270.766)" fill="#263238"/><path d="M503.711,352.62a3.433,3.433,0,0,1-.411.49c-.267.309-.667.741-1.181,1.255-1.025,1.037-2.506,2.4-4.21,3.827s-3.292,2.65-4.477,3.506c-.588.411-1.07.765-1.407,1a3.577,3.577,0,0,1-.535.333,3.432,3.432,0,0,1,.486-.411l1.366-1.049c1.152-.885,2.728-2.123,4.432-3.547s3.193-2.761,4.238-3.769c.527-.5.942-.918,1.234-1.2A3.664,3.664,0,0,1,503.711,352.62Z" transform="translate(-473.457 -282.195)" fill="#263238"/><path d="M571.259,364.507c-.045.041-2.728-3.037-6-6.872s-5.88-6.971-5.835-7,2.728,3.029,6,6.855S571.3,364.47,571.259,364.507Z" transform="translate(-513.44 -281.03)" fill="#263238"/><path d="M580.952,336.878a3.846,3.846,0,0,1-.593-.21c-.379-.148-.922-.379-1.584-.675-1.325-.6-3.127-1.485-5.045-2.6s-3.592-2.226-4.769-3.078c-.588-.411-1.057-.782-1.374-1.037a3.437,3.437,0,0,1-.477-.411,3.488,3.488,0,0,1,.527.342c.366.251.844.58,1.411.979,1.2.823,2.88,1.909,4.79,3.016s3.7,2.016,5,2.642l1.551.737A3.535,3.535,0,0,1,580.952,336.878Z" transform="translate(-517.96 -268.218)" fill="#263238"/><path d="M575.969,323.508c-.058,0-.379-2.169-.716-4.86s-.564-4.884-.506-4.888.383,2.169.72,4.86S576.031,323.5,575.969,323.508Z" transform="translate(-522.45 -259.326)" fill="#263238"/><path d="M536.132,228.649a1.533,1.533,0,0,1-.169.259l-.523.7-1.9,2.469v-.132l3.09,2.428.276.222h-.148l2.675-3.35v.123l-2.012-1.646-.551-.465a1.114,1.114,0,0,1-.185-.181,1.751,1.751,0,0,1,.218.14l.58.411,2.057,1.58.07.053-.058.07c-.761.979-1.667,2.132-2.642,3.374l-.066.086-.086-.066-.263-.173c-1.115-.889-2.164-1.728-3.074-2.448l-.074-.062.058-.07,1.959-2.411.56-.671C536.049,228.719,536.123,228.641,536.132,228.649Z" transform="translate(-498.092 -209.236)" fill="#263238"/><path d="M539.064,327.821a73.144,73.144,0,0,1-8.839-.946c-3.461-.551-3.424-.868-3.292-1.263.329-1.062,6.123.741,5.082-.374s-7.316-1.378-6.925-2.469c.51-1.428,6.543.572,7.065.7s.708-.621.23-.716c-.683-.136-7.855-1.72-7.37-3.127.272-.782,1.621-.128,1.621-.128s6.613,1.983,6.822,1.309-3.633-1.979-4.963-2.321-1.7-1.107-1.078-1.568c.411-.313,4.526.646,5.806,1.02s4.864,1.453,3.506-.514l-.058-.095c-1.391-1.9-1.831-3.827-1.58-4.473a.823.823,0,0,1,1.465,0,.851.851,0,0,1,.136.317,1.529,1.529,0,0,0,.049.169,11.719,11.719,0,0,0,1.2,2.094,6.386,6.386,0,0,0,1.5,1.551c.675.49,2.383,2.292,2.88,2.613" transform="translate(-493.174 -258.532)" fill="#ffbe9d"/></g><g transform="translate(95.403 117.284)"><path d="M241.76,232.1h0a7.222,7.222,0,0,1-7.086-7c-.1-3.205-.173-6.3-.173-6.3s-5.888-.547-6.32-6.374-.247-19.278-.247-19.278h0a20.311,20.311,0,0,1,20.525,1.3l.905.613-.251,29.874a7.222,7.222,0,0,1-7.353,7.152Z" transform="translate(-192.566 -187.492)" fill="#b78876"/><path d="M240.572,224.369a3.793,3.793,0,0,0-1.317-.2c-.214,0-.379-.045-.411-.156a1.169,1.169,0,0,1,.115-.613l.543-1.658a21.786,21.786,0,0,0,1.107-4.374,21.126,21.126,0,0,0-1.547,4.238c-.173.58-.337,1.136-.5,1.683a1.333,1.333,0,0,0-.062.881.56.56,0,0,0,.383.313,1.445,1.445,0,0,0,.362.025A4.17,4.17,0,0,0,240.572,224.369Z" transform="translate(-198.781 -203.025)" fill="#263238"/><path d="M244.538,236.14a19.418,19.418,0,0,1-3.868,1.387,2.226,2.226,0,0,0,2.675.724C245.048,237.5,244.538,236.14,244.538,236.14Z" transform="translate(-200.085 -214.072)" fill="#fff"/><path d="M243.92,254.629A13.579,13.579,0,0,0,251.388,252s-1.539,4.308-7.407,4.14Z" transform="translate(-201.998 -223.406)" fill="#a36957"/><path d="M279.218,217.153a.881.881,0,0,1,.823-.885c1.09-.029,2.88.411,3.037,3.4.239,4.292-3.889,3.222-3.9,3.1S279.206,218.819,279.218,217.153Z" transform="translate(-222.745 -202.376)" fill="#b78876"/><path d="M281.514,223.106a1.1,1.1,0,0,0,.206.1.753.753,0,0,0,.56,0,1.85,1.85,0,0,0,.761-1.708,2.42,2.42,0,0,0-.267-1.058.86.86,0,0,0-.593-.543.383.383,0,0,0-.432.23c-.049.123,0,.206-.041.214s-.095-.066-.07-.247a.481.481,0,0,1,.152-.276.56.56,0,0,1,.411-.132,1.053,1.053,0,0,1,.823.621,2.535,2.535,0,0,1,.333,1.152,1.948,1.948,0,0,1-.988,1.913.794.794,0,0,1-.687-.078C281.526,223.2,281.5,223.106,281.514,223.106Z" transform="translate(-224.12 -204.388)" fill="#a36957"/><path d="M232.43,219.153a.794.794,0,0,0,.823.741.753.753,0,0,0,.761-.77.79.79,0,0,0-.823-.745.757.757,0,0,0-.761.774Z" transform="translate(-195.235 -203.619)" fill="#263238"/><path d="M229.13,216.972c.107.095.675-.411,1.523-.449s1.506.321,1.588.214-.07-.23-.354-.411a2.185,2.185,0,0,0-1.284-.3,2.057,2.057,0,0,0-1.2.481C229.155,216.738,229.064,216.927,229.13,216.972Z" transform="translate(-193.281 -202.233)" fill="#263238"/><path d="M253,218.8a.79.79,0,0,0,.823.741.757.757,0,0,0,.765-.769.794.794,0,0,0-.823-.741.761.761,0,0,0-.765.769Z" transform="translate(-207.341 -203.413)" fill="#263238"/><path d="M250.107,216.972c.107.095.675-.411,1.522-.449s1.5.321,1.588.214-.07-.23-.358-.411a2.164,2.164,0,0,0-1.28-.3,2.057,2.057,0,0,0-1.2.481C250.132,216.738,250.054,216.927,250.107,216.972Z" transform="translate(-205.629 -202.233)" fill="#263238"/><path d="M263.222,189.13a5.1,5.1,0,0,0,.971,5.473,20.121,20.121,0,0,1,1.794,1.708c1.029,1.37.86,3.255,1.025,4.958a3.346,3.346,0,0,0,.823,2.169,1.4,1.4,0,0,0,2.057-.1,2.124,2.124,0,0,0,.214-.687q.539-2.852,1.07-5.7a12.258,12.258,0,0,0,.292-4.321,6.09,6.09,0,0,0-7.617-4.839" transform="translate(-213.119 -185.488)" fill="#263238"/><path d="M236.321,184.946a17.344,17.344,0,0,1-4.489-1.646,6.584,6.584,0,0,0-4.461-.506,11.066,11.066,0,0,1-2.963.868,10.425,10.425,0,0,1-2.905-.922,5.185,5.185,0,0,0-4.028.411,3.448,3.448,0,0,0-1.9,2.621c-.082,1.152.946,2.341,1.979,2.012a2.251,2.251,0,0,0-.979,3.02,2.765,2.765,0,0,0,2.876,1.37,5.238,5.238,0,0,0,2.905-1.773,2.39,2.39,0,0,0,2.506,2.148,6.037,6.037,0,0,0,3.255-1.49,8.745,8.745,0,0,1,3.148-1.8c.823-.181,1.646-.082,2.469-.181a2.634,2.634,0,0,0,2.107-1.234c.4-.778,1.979-1.691,1.152-1.716" transform="translate(-185.313 -182.509)" fill="#263238"/><path d="M237.5,197.73a4.725,4.725,0,0,0,.44.235,2.094,2.094,0,0,0,1.321,0,3.517,3.517,0,0,0,.848-.374c.288-.173.58-.411.893-.621a7.4,7.4,0,0,1,1.033-.658,2.971,2.971,0,0,1,1.292-.325c.918,0,1.745.23,2.494.165a2.255,2.255,0,0,0,1.679-.913A2.469,2.469,0,0,0,248,194c.033-.321,0-.5.021-.5s.021.041.037.128a1.809,1.809,0,0,1,.025.379,2.378,2.378,0,0,1-.461,1.317,2.445,2.445,0,0,1-.712.675,2.4,2.4,0,0,1-1.07.346c-.8.078-1.646-.165-2.506-.148a4.067,4.067,0,0,0-2.218.93c-.317.222-.613.44-.918.613a3.408,3.408,0,0,1-.9.366,2.086,2.086,0,0,1-1.391-.062,1.292,1.292,0,0,1-.321-.214Q237.5,197.738,237.5,197.73Z" transform="translate(-198.219 -188.978)" fill="#263238"/><path d="M264.286,183.49a8.758,8.758,0,0,0,.119,1.366,8.186,8.186,0,0,0,.539,1.263,2.362,2.362,0,0,1-.658-2.629Z" transform="translate(-213.892 -183.087)" fill="#263238"/><path d="M267.756,183.27c.045.045-.486.547-.881,1.337s-.506,1.506-.568,1.494a2.67,2.67,0,0,1,.374-1.592A2.745,2.745,0,0,1,267.756,183.27Z" transform="translate(-215.168 -182.957)" fill="#263238"/><path d="M320.773,331.55l8.958,23.047H316.02l-6.39-16.41Z" transform="translate(-240.669 -270.222)" fill="#b78876"/><path d="M173.589,241.426s-11.814,12.159-16.916,12.159c-1.671,0-2.979-20.253-3-26.092h0a7.654,7.654,0,0,1,1.148-2.094,9.876,9.876,0,0,1,1.485-1.646,10.185,10.185,0,0,1,2.317-1.494c.8-.28.864-1.37.136-1.588s-2.942.5-4.938,2.383-1.391-2.329-1.2-3.864.547-6.32.119-6.74c-.625-.617-1.42-.045-1.576,1.494s-.909,6.139-1.732,6.02.272-7.933.272-7.933.5-1.646-.411-1.811c-1.679-.3-2.2,8.077-2.23,8.876,0,.556-.905.461-.852-.136s1.234-7.777-.457-8.1c-1.3-.247-.494,6.892-1.568,8.263s-.062-5.493-1.321-5.679c-.469-.066-.823-.053-.823,3.954,0,2.156.823,5.411.5,9.559h0c.543,12.246-.058,46.634,13.579,42.56a68.727,68.727,0,0,0,25.22-14.3Z" transform="translate(-142.04 -198.812)" fill="#b78876"/><path d="M299.086,312.55a2.389,2.389,0,0,1,.132.486c.074.313.169.769.276,1.337.21,1.136.461,2.712.654,4.461s.292,3.341.333,4.493c0,.576.029,1.045.025,1.366a2,2,0,0,1-.025.5,2.627,2.627,0,0,1-.058-.5c-.025-.366-.058-.823-.095-1.362-.078-1.148-.2-2.732-.411-4.477s-.411-3.321-.593-4.461c-.082-.535-.148-.983-.206-1.346A2.162,2.162,0,0,1,299.086,312.55Z" transform="translate(-234.462 -259.04)" fill="#263238"/><path d="M195.282,319.108l37.742.189-1.271-7.966a61.432,61.432,0,0,0-.053-11.361l1.913,5.181,15.6-7.818s-5.67-15.118-10.419-20.241c-6-6.473-16.789-5.827-16.789-5.827l-7.292,4.938L208,271.474a32.619,32.619,0,0,0-10.369,3.016l-.346.1v.074c-3.958,2.057-9.608,7.106-14.986,12l6.209,6.045,6.876,6.407a5.6,5.6,0,0,1,1.177-.049C196.677,299.772,195.282,319.108,195.282,319.108Z" transform="translate(-165.734 -234.732)" fill="#455a64"/><path d="M299.305,306.68l5.131,18.295L302.379,326l-1.909-5.181S298.606,309.976,299.305,306.68Z" transform="translate(-234.5 -255.585)" opacity="0.2"/><path d="M243.74,267.909v-1.975s5.893-.457,7.086,6.506c0,0,1.922-6.506,7.641-7.16l.823,3.041s-2.712,8.473-3.1,8.547-5.349,1.518-5.349,1.518l-2.88-.65-3.189-3.633Z" transform="translate(-201.892 -231.221)" fill="#455a64"/><path d="M271.412,272.11a2.253,2.253,0,0,1-.329.342c-.214.218-.527.523-.9.922a21.18,21.18,0,0,0-2.555,3.358c-.181.3-.346.588-.5.872l-.095.173-.091-.173c-.654-1.234-1.234-2.3-1.679-3.14a1.386,1.386,0,0,0-.374-.411.823.823,0,0,0-.411-.144.988.988,0,0,0-.358.062.448.448,0,0,1,.362-.136.823.823,0,0,1,.453.128,1.453,1.453,0,0,1,.436.444c.465.778,1.058,1.868,1.745,3.115h-.165c.156-.288.321-.588.506-.885a17.95,17.95,0,0,1,2.629-3.354c.387-.387.716-.679.951-.876A1.67,1.67,0,0,1,271.412,272.11Z" transform="translate(-213.886 -235.241)" fill="#263238"/><path d="M242.81,273a1.569,1.569,0,0,1,.28.3c.173.2.411.494.7.86.588.728,1.387,1.745,2.259,2.88l.14.181h-.181a7,7,0,0,0,.486-1.835,2.2,2.2,0,0,1,.823-1.374,1.21,1.21,0,0,1,1.062-.136.879.879,0,0,1,.251.16c.045.053.062.082.058.086a1.7,1.7,0,0,0-.333-.169,1.161,1.161,0,0,0-.955.181,2.078,2.078,0,0,0-.7,1.3,7.192,7.192,0,0,1-.49,1.893l-.078.144-.1-.132-.14-.181c-.872-1.132-1.646-2.164-2.21-2.917-.276-.374-.5-.683-.65-.9a1.585,1.585,0,0,1-.222-.337Z" transform="translate(-201.344 -235.764)" fill="#263238"/><path d="M252.994,325.919a.412.412,0,0,1,0-.115v-.325c0-.3.037-.724.066-1.259.07-1.107.173-2.683.292-4.621.272-3.917.642-9.3,1.049-15.246l1.107-15.225c.152-1.938.276-3.51.362-4.617.045-.535.082-.955.111-1.255a2.751,2.751,0,0,1,.033-.329.41.41,0,0,1,0-.107.288.288,0,0,1,0,.111v.325c0,.3-.041.724-.07,1.259-.07,1.107-.169,2.683-.292,4.621-.267,3.917-.638,9.3-1.045,15.246s-.823,11.328-1.111,15.225c-.152,1.938-.272,3.51-.358,4.617q-.074.8-.111,1.259a2.763,2.763,0,0,1-.033.325.346.346,0,0,1,0,.111Z" transform="translate(-207.336 -241.544)" fill="#263238"/><path d="M218.249,298.6a3.7,3.7,0,0,1-.037.654c-.033.457-.082,1.053-.14,1.778-.111,1.5-.226,3.576-.354,5.872s-.267,4.37-.411,5.872c-.074.749-.148,1.358-.21,1.773a3.6,3.6,0,0,1-.119.646,3.7,3.7,0,0,1,.037-.654c.037-.457.082-1.058.14-1.778.115-1.5.226-3.58.358-5.872s.263-4.374.411-5.876c.074-.749.148-1.354.21-1.773A3.872,3.872,0,0,1,218.249,298.6Z" transform="translate(-186.14 -250.83)" fill="#263238"/><path d="M257.486,280.26s-2.025,2.646-1.728,3.041l1.728,2.308h1.234s1.152-3.234.856-3.646A18.075,18.075,0,0,0,257.486,280.26Z" transform="translate(-208.947 -240.037)" fill="#f8951d"/><path d="M264.3,278.53l-2.234,1.745.856,1.642,2.3-1.7Z" transform="translate(-212.679 -239.019)" fill="#f8951d"/><path d="M251.55,278.415l2.037,1.7,1.127-1.7-2.572-1.955Z" transform="translate(-206.488 -237.801)" fill="#f8951d"/><path d="M255.5,292.779,252.39,320.62l3.057,9.678,4.078-9.592-2.683-28.257Z" transform="translate(-206.982 -247.211)" fill="#f8951d"/><path d="M304.008,279.865a2.724,2.724,0,0,0-.411-.276,1.745,1.745,0,0,0-1.28-.074,3.966,3.966,0,0,0-1.592,1.123,9.566,9.566,0,0,0-1.457,1.946,9.876,9.876,0,0,0-1.234,4.218c-.066,1.14.078,1.843.033,1.848a2.653,2.653,0,0,1-.107-.49,8.048,8.048,0,0,1-.074-1.362,9.37,9.37,0,0,1,1.2-4.321,9.2,9.2,0,0,1,1.5-1.979,3.954,3.954,0,0,1,1.691-1.128,1.757,1.757,0,0,1,1.362.144,1.189,1.189,0,0,1,.292.239C303.991,279.82,304.012,279.861,304.008,279.865Z" transform="translate(-233.754 -239.469)" fill="#263238"/></g><g transform="translate(161.343 121.547)"><path d="M372.324,197a14.14,14.14,0,0,0-5.555,7.213,36.45,36.45,0,0,0-1.819,9.053,176.472,176.472,0,0,0-.852,24.471c9.97,1.259,20.019,2.526,30.039,1.843-1.741-11.452-2.843-22.891-1.448-34.392" transform="translate(-338.602 -195.3)" fill="#263238"/><path d="M360.827,339.651l-7.271-14.682,2.773-10.74c.325,2.276.613,4.251.613,4.251l15.575-.823a.988.988,0,0,0,.926-1.127l-3.016-21.48s-.975-9.966-10.411-13.67h-.045c-.379-.148-.774-.28-1.181-.411-12.719-4.411-24.632-4.382-37.886.14,0,0-5.888,1.584-8.744,9.267s-5.761,18.974-5.761,18.974l13.209,4.679.086-2.234,2.922,11.176-6.407,16.278,22.364.551Z" transform="translate(-304.708 -242.786)" fill="#f8951d"/><path d="M303.993,354.28l-1.485,7a10.973,10.973,0,0,0,9.312,12.912l32.553,3.341a12.941,12.941,0,0,0,14.34-11.727h0l-41.042-3.909.255-3.942Z" transform="translate(-302.289 -287.862)" fill="#f8951d"/><path d="M405.072,361.434l2.527-.469s5.991-6.555,7.115-6.646c.926-.078,6.024-.029,7.818,0a.617.617,0,0,1,.609.617h0a.617.617,0,0,1-.6.617l-6.02.235-.029.486,6.028.078c.617.049,1.008,1.02-.955,1.2l-5.045.177v.313l5.115.716c.259.037.938.169.942.432,0,0,.313.638-1.148.823-.5.062-4.938-.086-4.938-.086l.169.411,4.6.992a.65.65,0,0,1,.506.728h0a.65.65,0,0,1-.708.56l-4.909-.453-4.823,3.847h-6.46Z" transform="translate(-362.659 -287.86)" fill="#ffbe9d"/><path d="M366.48,276.753s6.341,32.425,8.575,32.191,12.715-31.08,12.715-31.08S374.376,273.786,366.48,276.753Z" transform="translate(-340.066 -241.6)" fill="#fafafa"/><path d="M434.517,340.3c-.058,0-.107-2.238-.107-5s.049-4.991.107-4.991.107,2.234.107,4.991S434.579,340.3,434.517,340.3Z" transform="translate(-380.044 -273.755)" fill="#263238"/><path d="M340.07,341.142a9.961,9.961,0,0,1,.132-1.436c.111-.889.276-2.107.473-3.452s.383-2.568.531-3.444a9.748,9.748,0,0,1,.284-1.42,9.987,9.987,0,0,1-.132,1.44c-.111.885-.276,2.107-.473,3.452s-.383,2.559-.531,3.44a9.748,9.748,0,0,1-.284,1.42Z" transform="translate(-324.524 -274.391)" fill="#263238"/><path d="M384.578,386.342a1.308,1.308,0,0,1,0-.3v-.86c0-.749,0-1.831.029-3.168.049-2.675.193-6.366.379-10.439s.35-7.765.44-10.439c.037-1.317.07-2.391.095-3.164a8.531,8.531,0,0,1,.025-.86,1.429,1.429,0,0,1,.025-.3,1.705,1.705,0,0,1,0,.3q0,.325,0,.864c0,.745,0,1.827-.025,3.164-.049,2.675-.2,6.366-.379,10.444s-.354,7.765-.44,10.435c-.041,1.321-.074,2.395-.095,3.164a7.235,7.235,0,0,1-.029.86A2.444,2.444,0,0,1,384.578,386.342Z" transform="translate(-350.712 -289.35)" fill="#263238"/><path d="M399.581,280.87s.021.14.07.411a5.844,5.844,0,0,0,.325,1.119,12,12,0,0,0,.823,1.646,23.338,23.338,0,0,1,1.164,2.173,5.234,5.234,0,0,1,.494,2.946,3.8,3.8,0,0,1-.663,1.551,10.378,10.378,0,0,1-1.16,1.341,20.987,20.987,0,0,0-2.469,2.831,6.744,6.744,0,0,0-1.272,3.728,4.6,4.6,0,0,0,.436,1.95,17.486,17.486,0,0,1,.8,1.848,2.721,2.721,0,0,1,.128,1,2.057,2.057,0,0,1-.309.946,5.115,5.115,0,0,1-1.37,1.284l-5.156,3.8-3.485,2.543-.955.687-.251.173-.091.053a.749.749,0,0,1,.078-.074l.239-.189.93-.716,3.428-2.6,5.127-3.835a4.877,4.877,0,0,0,1.313-1.234,1.835,1.835,0,0,0,.28-.852,2.579,2.579,0,0,0-.123-.926,16.839,16.839,0,0,0-.794-1.819,4.769,4.769,0,0,1-.453-2.033,6.917,6.917,0,0,1,1.313-3.843,20.543,20.543,0,0,1,2.5-2.856,5.367,5.367,0,0,0,1.786-2.786,5.045,5.045,0,0,0-.457-2.852,22.89,22.89,0,0,0-1.132-2.177,12.077,12.077,0,0,1-.794-1.683,5.2,5.2,0,0,1-.288-1.144,2.884,2.884,0,0,1-.029-.3A.322.322,0,0,1,399.581,280.87Z" transform="translate(-351.931 -244.659)" fill="#263238"/><path d="M369.25,310.234h-.1l-.292-.054a9.23,9.23,0,0,1-1.1-.3,10.962,10.962,0,0,1-3.617-2.057,10.736,10.736,0,0,1-3.321-5.185,11.011,11.011,0,0,1-.411-3.646,11.887,11.887,0,0,1,.259-1.926,4.482,4.482,0,0,0,.054-1.926,1.593,1.593,0,0,0-.5-.778,2.646,2.646,0,0,0-.848-.411c-.3-.1-.621-.185-.93-.313a2.6,2.6,0,0,1-.823-.543,3.242,3.242,0,0,1-.848-1.7,6.721,6.721,0,0,1-.1-1.806,24.569,24.569,0,0,1,1.35-6.053,25.226,25.226,0,0,1,1.728-3.806c.243-.411.44-.757.584-.971l.16-.247a.334.334,0,0,1,.062-.082.18.18,0,0,1-.041.091l-.144.259c-.132.222-.317.56-.551.992a27.569,27.569,0,0,0-1.646,3.814,25.689,25.689,0,0,0-1.3,6.016,6.828,6.828,0,0,0,.107,1.753,3.1,3.1,0,0,0,.79,1.592,2.469,2.469,0,0,0,.77.494c.288.119.6.2.918.309a2.774,2.774,0,0,1,.914.461,1.794,1.794,0,0,1,.568.885,4.633,4.633,0,0,1-.049,2.02,12.349,12.349,0,0,0-.259,1.9,10.983,10.983,0,0,0,.411,3.58,10.666,10.666,0,0,0,3.23,5.123,11.337,11.337,0,0,0,3.547,2.111c.461.165.823.272,1.082.337l.284.074Z" transform="translate(-334.285 -243.223)" fill="#263238"/><path d="M389.879,370.521l-27.269-.881.041,9.053,18.056,3.967,12.7,2.029A13.225,13.225,0,0,0,406.4,369.644h-.033Z" transform="translate(-337.789 -296.901)" fill="#f8951d"/><path d="M397.4,370.367a2,2,0,0,1-.354.025l-1.012.029-3.728.066c-3.148.049-7.5.1-12.3.054s-9.156-.218-12.3-.411c-1.572-.107-2.839-.206-3.7-.3l-1.008-.1a2.1,2.1,0,0,1-.354-.049,2.108,2.108,0,0,1,.354,0l1.012.062c.881.062,2.152.14,3.7.226,3.144.173,7.489.325,12.3.37s9.147,0,12.3,0h4.744A2.392,2.392,0,0,1,397.4,370.367Z" transform="translate(-337.806 -296.92)" fill="#263238"/><path d="M336.232,361.434l-2.527-.469s-5.991-6.555-7.119-6.646c-.922-.078-6.02-.029-7.8,0a.617.617,0,0,0-.609.617h0a.617.617,0,0,0,.593.617l6.024.235.029.486-6.032.078c-.613.049-1.008,1.02.959,1.2l5.045.177v.313l-5.115.716c-.259.037-.938.169-.946.432,0,0-.309.638,1.148.823.5.062,4.938-.086,4.938-.086l-.173.411-4.6.992a.658.658,0,0,0-.51.728h0a.654.654,0,0,0,.708.56l4.913-.453,4.823,3.847h6.444Z" transform="translate(-311.641 -287.86)" fill="#ffbe9d"/><path d="M393.577,397.528a1.345,1.345,0,0,1-.309,0l-.881-.095c-.77-.086-1.872-.226-3.238-.411-2.732-.379-6.493-.975-10.62-1.782s-7.818-1.679-10.509-2.362c-1.333-.337-2.411-.625-3.152-.823l-.852-.247a2.111,2.111,0,0,1-.3-.1,1.48,1.48,0,0,1,.3.058l.864.206,3.168.774c2.679.642,6.39,1.485,10.513,2.3s7.88,1.428,10.6,1.843l3.226.481.876.136A2.662,2.662,0,0,1,393.577,397.528Z" transform="translate(-338.442 -309.89)" fill="#263238"/><path d="M362.48,378.995a6.922,6.922,0,0,1-.239-1.288c-.107-.823-.222-1.918-.288-3.148s-.062-2.354-.037-3.164a7.109,7.109,0,0,1,.1-1.3,8.849,8.849,0,0,1,.049,1.309c0,.823.037,1.918.1,3.148s.156,2.337.226,3.14a9.876,9.876,0,0,1,.086,1.309Z" transform="translate(-337.371 -297.166)" fill="#263238"/><path d="M369.371,379.525a1.394,1.394,0,0,1-.119-.346c-.062-.222-.144-.551-.226-.959a23.454,23.454,0,0,1-.411-6.493c.033-.411.074-.753.111-.983a1.2,1.2,0,0,1,.074-.354,11.465,11.465,0,0,1-.033,1.346c-.033.823-.045,1.975.033,3.238s.226,2.4.358,3.218A10.874,10.874,0,0,1,369.371,379.525Z" transform="translate(-341.282 -297.343)" fill="#263238"/><path d="M364.017,373.4c.025.025-.132.136-.128.411a.5.5,0,0,0,.165.37.447.447,0,0,0,.675-.411.494.494,0,0,0-.235-.329c-.218-.132-.411-.053-.411-.086s.169-.177.477-.045a.617.617,0,0,1,.362.411.625.625,0,0,1-1,.572.613.613,0,0,1-.189-.523C363.783,373.456,364.017,373.374,364.017,373.4Z" transform="translate(-338.447 -299.03)" fill="#263238"/><path d="M338.609,395.733a1.138,1.138,0,0,1-.28,0h-.8a21.718,21.718,0,0,0-2.926.276,43.164,43.164,0,0,0-4.259.946c-1.592.411-3.329.926-5.193,1.333a22.275,22.275,0,0,1-5.349.58,13.525,13.525,0,0,1-4.308-.823,9.814,9.814,0,0,1-2.576-1.453,6.5,6.5,0,0,1-.6-.539,1.237,1.237,0,0,1-.189-.206s.284.263.823.679a10.155,10.155,0,0,0,2.576,1.374,13.549,13.549,0,0,0,4.288.778,22.632,22.632,0,0,0,5.288-.593c1.852-.411,3.592-.905,5.189-1.317a40.774,40.774,0,0,1,4.288-.905,19.393,19.393,0,0,1,2.946-.206,4.7,4.7,0,0,1,.8.037A1.493,1.493,0,0,1,338.609,395.733Z" transform="translate(-308.081 -312.214)" fill="#263238"/><path d="M386.316,237.316c.646-3.613,1.395-7.407,1.395-7.407s4.8.045,6.835-5.864c1.942-5.637,3.345-19.2,3.345-19.2h0a17.743,17.743,0,0,0-20.22,1.033h0l-4.781,29.454a6.4,6.4,0,0,0,5.609,7.185h0A6.747,6.747,0,0,0,386.316,237.316Z" transform="translate(-343.793 -198.344)" fill="#ffbe9d"/><path d="M422.834,232.132a.79.79,0,0,1-.889.654.753.753,0,0,1-.683-.844.794.794,0,0,1,.893-.654.757.757,0,0,1,.679.844Z" transform="translate(-372.302 -215.475)" fill="#263238"/><path d="M424.141,230.167c-.115.086-.63-.457-1.469-.6s-1.527.165-1.6.045c-.037-.049.095-.218.411-.366a2.2,2.2,0,0,1,1.3-.165,2.111,2.111,0,0,1,1.148.609C424.141,229.932,424.194,230.13,424.141,230.167Z" transform="translate(-372.19 -214.16)" fill="#263238"/><path d="M401.9,228.807a.794.794,0,0,1-.889.654.757.757,0,0,1-.683-.823.8.8,0,0,1,.893-.658A.761.761,0,0,1,401.9,228.807Z" transform="translate(-359.983 -213.528)" fill="#263238"/><path d="M402.731,227.163c-.115.082-.63-.457-1.469-.6s-1.527.169-1.6.049c-.037-.053.091-.222.411-.37a2.173,2.173,0,0,1,1.3-.16,2.082,2.082,0,0,1,1.148.6C402.731,226.925,402.784,227.126,402.731,227.163Z" transform="translate(-359.59 -212.391)" fill="#263238"/><path d="M411.86,235.091a5.906,5.906,0,0,1,1.407,0c.218,0,.411,0,.49-.132a1.111,1.111,0,0,0-.029-.658c-.111-.556-.226-1.136-.346-1.745a27.5,27.5,0,0,1-.671-4.526,28.267,28.267,0,0,1,1.033,4.452c.111.613.218,1.193.317,1.749a1.271,1.271,0,0,1-.037.86.539.539,0,0,1-.411.251,1.37,1.37,0,0,1-.374,0A5.435,5.435,0,0,1,411.86,235.091Z" transform="translate(-366.773 -213.561)" fill="#263238"/><path d="M397.9,264.419a15.748,15.748,0,0,1-7.761-3.609s1.234,4.526,7.407,5.028Z" transform="translate(-353.99 -232.853)" fill="#eb996e"/><path d="M406.416,248.816a1.547,1.547,0,0,0-1.259-.823,1.391,1.391,0,0,0-1.041.346.881.881,0,0,0-.243.988,1.033,1.033,0,0,0,1.049.473,3.263,3.263,0,0,0,1.185-.453.95.95,0,0,0,.284-.206.28.28,0,0,0,.053-.313" transform="translate(-362.036 -225.307)" fill="#eb996e"/><path d="M405.254,245.549c.136,0-.025.926.642,1.712s1.646.852,1.646.983c0,.058-.247.136-.658.074a2.288,2.288,0,0,1-1.374-.765,2.016,2.016,0,0,1-.51-1.407C405.048,245.734,405.192,245.532,405.254,245.549Z" transform="translate(-362.734 -223.871)" fill="#263238"/><path d="M394.61,196.059c1.625,3.584,6.892,7.946,10.958,9.493-.37-.741-2.654-2.823-3.024-3.559,1.646,1.782,4.012,4.2,6.518,4.806a1.555,1.555,0,0,0,.9.029,1.21,1.21,0,0,0,.621-.868,25.925,25.925,0,0,0,.856-5.534,6.172,6.172,0,0,0-1.44-4.333c-1.387-1.56-3.65-2.3-5.827-2.769a14.178,14.178,0,0,0-5.539-.288,5.144,5.144,0,0,0-4.02,2.909" transform="translate(-356.621 -192.869)" fill="#263238"/><path d="M371.037,210.019a34.288,34.288,0,0,1,.156-4.168c.411-3.164,1.395-14.674,12.015-11.711l-1.127,2.95s.823,7.407-4.637,11.382c0,0,.025,7.407-3.753,10.061,0,0-2.634-5.012-2.654-8.51" transform="translate(-342.742 -193.332)" fill="#263238"/><path d="M381.4,228.048a3.7,3.7,0,0,0-1.979-.218,2.572,2.572,0,0,0-1.646,1.049,2.683,2.683,0,0,0-.358,1.938,4.527,4.527,0,0,0,.823,1.831,3.087,3.087,0,0,0,1.033.983,1.473,1.473,0,0,0,1.391.029" transform="translate(-346.474 -213.416)" fill="#ffbe9d"/><path d="M382.305,233.215c.07.037-.28.383-.848.115a1.292,1.292,0,0,1-.621-.77,2.844,2.844,0,0,1-.132-1.136,1.724,1.724,0,0,1,.473-1.1,1.152,1.152,0,0,1,.946-.354c.613.095.728.551.654.551a1.237,1.237,0,0,0-.671-.193,1.111,1.111,0,0,0-.9,1.136,1.834,1.834,0,0,0,.432,1.555C381.968,233.235,382.276,233.153,382.305,233.215Z" transform="translate(-348.431 -214.702)" fill="#eb996e"/><path d="M369.912,242.06c-1.646,9.839-.309,19.9,0,29.87a5.6,5.6,0,0,1-.411,2.806,4.263,4.263,0,0,1-3.629,2,30.448,30.448,0,0,1-4.316-.366c-.156-.955-.309-1.913-.465-2.88q-.722,1.654-1.44,3.292.951-10.493,2.082-20.986" transform="translate(-336.047 -221.819)" fill="#263238"/></g></g></svg>