<svg xmlns="http://www.w3.org/2000/svg" width="250" height="186.28" viewBox="0 0 250 186.28"><g transform="translate(0 -55)"><g transform="translate(0 55)"><rect width="250" height="0.125" transform="translate(0 163.7)" fill="#ebebeb"/><rect width="12.435" height="0.125" transform="translate(45.23 168.46)" fill="#ebebeb"/><rect width="13.75" height="0.125" transform="translate(76.165 167.105)" fill="#ebebeb"/><rect width="29.055" height="0.125" transform="translate(23.835 173.105)" fill="#ebebeb"/><rect width="10.8" height="0.125" transform="translate(214.15 172.265)" fill="#ebebeb"/><rect width="13.965" height="0.125" transform="translate(107.395 168.07)" fill="#ebebeb"/><rect width="35.11" height="0.125" transform="translate(150.335 170.155)" fill="#ebebeb"/><path d="M137.6,196.4H41.06a2.855,2.855,0,0,1-2.85-2.855V57.83A2.855,2.855,0,0,1,41.06,55H137.6a2.855,2.855,0,0,1,2.855,2.855v135.69A2.855,2.855,0,0,1,137.6,196.4ZM41.06,55.1a2.73,2.73,0,0,0-2.725,2.73V193.545a2.73,2.73,0,0,0,2.725,2.73H137.6a2.735,2.735,0,0,0,2.73-2.73V57.83a2.735,2.735,0,0,0-2.73-2.73Z" transform="translate(-19.105 -55)" fill="#ebebeb"/><path d="M353.9,196.4h-96.55a2.86,2.86,0,0,1-2.855-2.855V57.83A2.86,2.86,0,0,1,257.355,55H353.9a2.855,2.855,0,0,1,2.845,2.83V193.545A2.855,2.855,0,0,1,353.9,196.4ZM257.355,55.1a2.735,2.735,0,0,0-2.73,2.73V193.545a2.735,2.735,0,0,0,2.73,2.73H353.9a2.735,2.735,0,0,0,2.73-2.73V57.83a2.735,2.735,0,0,0-2.73-2.73Z" transform="translate(-127.25 -55)" fill="#ebebeb"/><rect width="76.17" height="94.87" transform="translate(29.83 14.255)" fill="#e6e6e6"/><rect width="77.065" height="94.87" transform="translate(30.615 14.255)" fill="#f5f5f5"/><path d="M61.095,79.585h76.12a.67.67,0,0,0,.67-.67h0a.67.67,0,0,0-.67-.665H61.095a.67.67,0,0,0-.665.665h0a.67.67,0,0,0,.665.67Z" transform="translate(-30.215 -66.625)" fill="#e6e6e6"/><rect width="76.17" height="1.32" transform="translate(29.83 109.125)" fill="#e6e6e6"/><rect width="73.37" height="1.32" transform="translate(42.03 109.125)" fill="#f5f5f5"/><rect width="88.73" height="72.34" transform="translate(105.32 17.325) rotate(90)" fill="#fafafa"/><path d="M116.21,178.38l5.58-88.73h10.035l-5.58,88.73Z" transform="translate(-58.105 -72.325)" fill="#fff"/><path d="M141.96,178.38l5.58-88.73h4.655l-5.58,88.73Z" transform="translate(-70.98 -72.325)" fill="#fff"/><rect width="59.725" height="0.3" transform="translate(105.32 16.91) rotate(90)" fill="#e6e6e6"/><g transform="translate(28.055 10.275)" opacity="0.4"><path d="M56.11,82.445v85.6h0c4.435,0,8.44-4.115,10.255-10.5,3.845-13.465,9.77-35.5,11.6-75.575.28-6.19-1-6.42-2.69-6.42H57.965C56.94,75.565,56.11,78.645,56.11,82.445Z" transform="translate(-56.11 -75.55)" fill="#e6e6e6"/></g><g transform="translate(87.721 10.275)" opacity="0.4"><path d="M197.336,82.445v85.6h0c-4.43,0-8.435-4.115-10.255-10.5-3.84-13.465-9.765-35.5-11.6-75.575-.28-6.19,1-6.42,2.69-6.42h17.31C196.506,75.565,197.336,78.645,197.336,82.445Z" transform="translate(-175.443 -75.55)" fill="#e6e6e6"/></g><rect width="8.835" height="38.635" transform="translate(81.08 125.06)" fill="#e6e6e6"/><path d="M172.09,375.99h3.825v-6.41H172Z" transform="translate(-86 -212.29)" fill="#f5f5f5"/><rect width="8.835" height="38.635" transform="translate(30.155 125.06)" fill="#e6e6e6"/><rect width="54.265" height="36.43" transform="translate(35.65 125.06)" fill="#f5f5f5"/><path d="M75.125,375.99H71.3v-6.41h3.92Z" transform="translate(-35.65 -212.29)" fill="#f5f5f5"/><rect width="48.33" height="13.435" transform="translate(38.62 128.125)" fill="#f0f0f0"/><path d="M121.64,321.44a3.925,3.925,0,1,1,3.92-3.92A3.925,3.925,0,0,1,121.64,321.44Zm0-7.43a3.5,3.5,0,1,0,3.5,3.5,3.5,3.5,0,0,0-3.5-3.5Z" transform="translate(-58.855 -184.295)" fill="#fff"/><rect width="48.33" height="13.435" transform="translate(38.62 144.81)" fill="#f0f0f0"/><path d="M121.64,354.81a3.925,3.925,0,1,1,3.92-3.925A3.925,3.925,0,0,1,121.64,354.81Zm0-7.435a3.5,3.5,0,1,0,3.5,3.5A3.5,3.5,0,0,0,121.64,347.375Z" transform="translate(-58.855 -200.98)" fill="#fff"/><rect width="30.15" height="44.685" transform="translate(179.18 163.7) rotate(180)" fill="#e6e6e6"/><rect width="39.625" height="44.685" transform="translate(179.18 119.01)" fill="#f0f0f0"/><rect width="69.77" height="4.63" transform="translate(218.805 119.835) rotate(180)" fill="#e6e6e6" opacity="0.7"/><rect width="31.67" height="4.28" transform="translate(179.18 119.01) rotate(180)" fill="#e6e6e6"/><rect width="41.145" height="4.28" transform="translate(179.18 114.735)" fill="#f0f0f0"/><rect width="24.665" height="27.58" transform="translate(137.535 163.7) rotate(180)" fill="#ebebeb"/><rect width="32.415" height="27.58" transform="translate(137.535 136.115)" fill="#f5f5f5"/><rect width="57.08" height="3.785" transform="translate(169.95 136.79) rotate(180)" fill="#e6e6e6" opacity="0.7"/><rect width="25.91" height="3.5" transform="translate(137.535 136.115) rotate(180)" fill="#ebebeb"/><rect width="33.66" height="3.5" transform="translate(137.535 132.615)" fill="#f5f5f5"/><rect width="50.28" height="77.785" transform="translate(156.025 21.36)" fill="#e6e6e6"/><rect width="53.85" height="77.785" transform="translate(156.755 21.36)" fill="#f5f5f5"/><rect width="70.92" height="46.985" rx="5.4" transform="translate(207.175 24.795) rotate(90)" fill="#fff"/><rect width="3.98" height="24.395" transform="translate(190.899 50.221) rotate(45)" fill="#f5f5f5"/><rect width="3.98" height="24.395" transform="translate(183.804 43.127) rotate(45)" fill="#f5f5f5"/><rect width="3.98" height="24.395" transform="translate(197.994 57.319) rotate(45)" fill="#f5f5f5"/></g><g transform="translate(28.055 229.96)"><ellipse cx="96.945" cy="5.66" rx="96.945" ry="5.66" fill="#f5f5f5"/></g><g transform="translate(74.841 69.364)"><path d="M214.36,343.545l.565-1.935h-27.5L177.06,376.925h5l5-17h6.64l5,17h5.88l5-17h6.6l5,17h3ZM187.45,358.6l2.925-9.96,2.92,9.96Zm13.155,14.71-3.92-13.36h7.845Zm4.32-14.71h-8.64l-4.415-15.05.17-.585h17.49Zm5,0,2.925-9.96,2.92,9.96Z" transform="translate(-163.371 -212.669)" fill="#f8951d"/><path d="M214.36,343.545l.565-1.935h-27.5L177.06,376.925h5l5-17h6.64l5,17h5.88l5-17h6.6l5,17h3ZM187.45,358.6l2.925-9.96,2.92,9.96Zm13.155,14.71-3.92-13.36h7.845Zm4.32-14.71h-8.64l-4.415-15.05.17-.585h17.49Zm5,0,2.925-9.96,2.92,9.96Z" transform="translate(-163.371 -212.669)" opacity="0.2"/><path d="M229.375,341.61H203.9l10.365,35.315h3l-5-17h19.5l5,17h3Zm-17.5,17-4.59-15.635h19.5l4.585,15.635Z" transform="translate(-176.791 -212.669)" fill="#f8951d"/><path d="M229.375,341.61H203.9l10.365,35.315h3l-5-17h19.5l5,17h3M211.9,358.6l-4.59-15.635h19.5L231.4,358.6Z" transform="translate(-176.791 -212.669)" fill="#fff" opacity="0.4"/><path d="M250.137,85.824s1.1-2.625,7.125-2c4.375.455,7.035,5.165,6.7,11.83s-3.065,9.54-3.065,9.54l-14.35-7.46S245.572,86.7,250.137,85.824Z" transform="translate(-198.073 -83.728)" fill="#263238"/><path d="M279.67,102v10.335C281.92,103.03,279.67,102,279.67,102Z" transform="translate(-214.676 -92.864)" fill="#263238"/><path d="M278.114,92.919l2.34,10.065C279.934,91.714,277.509,91.194,278.114,92.919Z" transform="translate(-213.85 -87.953)" fill="#263238"/><path d="M273.615,144.19c.365.97.75,2,1.16,3s.82,2,1.265,3,.92,1.93,1.415,2.85c.255.455.5.9.78,1.33.13.23.275.415.415.63l.185.27a.9.9,0,0,0,.09.115,2,2,0,0,0,.765.45,5.844,5.844,0,0,0,1.265.275,15.5,15.5,0,0,0,3,0,30.605,30.605,0,0,0,3.18-.415c1.065-.175,2.15-.41,3.185-.645l.675,1.885a31.317,31.317,0,0,1-6.61,2.16,16.96,16.96,0,0,1-3.66.36,9.08,9.08,0,0,1-2.035-.28,5.47,5.47,0,0,1-2.175-1.09,5.035,5.035,0,0,1-.5-.5c-.09-.1-.125-.15-.175-.21l-.145-.18c-.185-.245-.395-.5-.56-.735l-.5-.745-.5-.755a35,35,0,0,1-1.7-3.07c-.5-1.045-1-2.09-1.44-3.15s-.85-2.115-1.22-3.25Z" transform="translate(-209.726 -113.959)" fill="#ffc3bd"/><path d="M309.53,167.695l2.5.645.425-3.39s-2.535-.03-3.745,1.085Z" transform="translate(-229.196 -124.339)" fill="#ffc3bd"/><path d="M318.425,168.535l-.355-2.5-2.34-1.085-.42,3.39Z" transform="translate(-232.496 -124.339)" fill="#ffc3bd"/><path d="M318.845,169.125l-.355-2.5-1.065-.495-1.275,2.825Z" transform="translate(-232.916 -124.929)" opacity="0.2"/><path d="M263.534,134.967a29.308,29.308,0,0,0,1.87,5.68c.56,1.35,1,2.365,1,2.365l.745-.28,6.19-2.335c-.315-3.36-.9-7.03-4.445-8.88C266.694,130.352,263.259,132.642,263.534,134.967Z" transform="translate(-206.601 -107.465)" fill="#f8951d"/><path d="M267.29,147.79c.56,1.35,1,2.365,1,2.365l.745-.28c-.04-1.32-.2-3.41-.865-4.385A5.715,5.715,0,0,0,267.29,147.79Z" transform="translate(-208.486 -114.609)" opacity="0.3"/><path d="M220.68,324.34l4.01.38,1.075-9.25-4.005-.38Z" transform="translate(-185.181 -199.409)" fill="#ffc3bd"/><path d="M154.67,305.125l3.23,2.435,6.425-6.78-3.23-2.43Z" transform="translate(-152.176 -191.039)" fill="#ffc3bd"/><path d="M156.041,312.028l-2.315-3.915a.315.315,0,0,0-.4-.13l-3.275,1.445a.67.67,0,0,0-.275.94c.835,1.345,1.3,1.955,2.32,3.675.625,1.06,1.86,3.5,2.725,4.955s2.32.655,2.085-.035a12.156,12.156,0,0,1-.73-6.225A1.055,1.055,0,0,0,156.041,312.028Z" transform="translate(-149.683 -195.842)" fill="#263238"/><path d="M223.628,332h-4.775a.38.38,0,0,0-.365.29l-.935,3.775a.615.615,0,0,0,.605.76c1.68,0,2.5-.12,4.58-.12,1.29,0,4.63.125,6.415.125s2.06-1.765,1.335-1.925c-3.26-.715-5.15-1.7-6.175-2.645A1,1,0,0,0,223.628,332Z" transform="translate(-183.609 -207.864)" fill="#263238"/><path d="M226.24,315.47l-.555,4.77H221.63l.6-5.15Z" transform="translate(-185.656 -199.409)" opacity="0.2"/><path d="M164.2,298.35l3.225,2.435-3.31,3.49-3.23-2.435Z" transform="translate(-155.286 -191.039)" opacity="0.2"/><path d="M225.5,141.12l15.215,6c11.62-20.775,10.145-22,10.145-22s-2.4-1.6-4.915-2.965c-.38-.205-.765-.4-1.145-.6a52.563,52.563,0,0,0-6.9-2.725c-.35-.12-.7-.23-1.045-.34a48.861,48.861,0,0,0-5.73-1.35c-.36,2.96-.7,5.46-1.05,7.63-.45,2.83-.9,5.09-1.38,7.04A61.082,61.082,0,0,1,225.5,141.12Z" transform="translate(-187.591 -100.434)" fill="#f8951d"/><path d="M231.88,137.68c1.58-2.04,3.215-6.89,2.925-8.77l-1.545,1.73C232.81,133.455,232.36,135.73,231.88,137.68Z" transform="translate(-190.781 -106.319)" opacity="0.3"/><path d="M259.27,122.1c-.635-3.39-10.91-5.9-10.91-5.9l5.82,10.1.92.37S259.68,124.35,259.27,122.1Z" transform="translate(-199.021 -99.959)" fill="#f8951d"/><path d="M259.27,122.1c-.635-3.39-10.91-5.9-10.91-5.9l5.82,10.1.92.37S259.68,124.35,259.27,122.1Z" transform="translate(-199.021 -99.959)" opacity="0.3"/><path d="M253.046,110.859c-.59,1.925-1.5,3.805-2.805,4.36,0,0-.705,5,3.9,9.785,5.215-3.16,3-7.06,3-7.06-2.265-1.575-1.71-3.255-.035-5.76l-1.7-1.54a1.28,1.28,0,0,0-2.365.215Z" transform="translate(-199.943 -96.837)" fill="#ffc3bd"/><path d="M247.2,117.94l.285-1.75a8.787,8.787,0,0,1,3.36,3.35c.985,2.07-.54,5.97-.54,5.97l-3.69-3.525Z" transform="translate(-198.151 -99.959)" fill="#f8951d"/><path d="M258.325,110.635a1.285,1.285,0,0,0-2.3.045,8.4,8.4,0,0,0,2.6,4.36,8.639,8.639,0,0,1,1.4-2.86Z" transform="translate(-202.851 -96.834)" opacity="0.2"/><path d="M252.622,92.4c.11,4.03.075,5.735,2,7.9,2.9,3.27,7.735,2.36,8.81-1.6.965-3.56.62-9.55-3.19-11.365a5.3,5.3,0,0,0-7.62,5.06Z" transform="translate(-201.148 -85.265)" fill="#ffc3bd"/><path d="M253.208,88.32c3,3.17,8.71,1.25,8.71,1.25l3,1.815-1.59-3.61-3.5-2.055S251.673,86.695,253.208,88.32Z" transform="translate(-201.349 -84.724)" fill="#263238"/><path d="M252.189,88.42a9.62,9.62,0,0,1,2.415,3.665c1,2.5-3,4.415-3,4.415S248.354,93.085,252.189,88.42Z" transform="translate(-200.001 -86.074)" fill="#263238"/><path d="M250.567,103.661a3,3,0,0,0,1.25,1.88c.855.575,1.575-.115,1.585-1.095,0-.88-.425-2.24-1.4-2.42A1.28,1.28,0,0,0,250.567,103.661Z" transform="translate(-200.108 -92.865)" fill="#ffc3bd"/><path d="M238.11,172.19s-2.695,20.31-4.665,35.93c-1.565,12.415-7.3,36.345-7.3,36.345l-5.855-.58s2.445-27.155,4.69-35.87c-1.385-17.925-5-35.28.9-40.735Z" transform="translate(-184.986 -125.504)" fill="#263238"/><path d="M218.42,317.64l7.72.235-.42,2.635-7.225-.11Z" transform="translate(-184.051 -200.684)" fill="#f8951d"/><path d="M230.833,193.22l-5.86-4.87c-.205,6.265.82,14.365,1.685,23C229.624,205.14,231.678,198.495,230.833,193.22Z" transform="translate(-187.315 -136.039)" opacity="0.3"/><path d="M206.29,169.85s-10.84,22.6-15.18,37.665c-5.42,11.915-23.63,29-23.63,29l-4.15-3.7s14.555-24.405,19.5-28.545c2.37-17.455,4.225-34.215,11.58-39.145Z" transform="translate(-156.506 -124.424)" fill="#263238"/><path d="M165.845,303.695l-5.385-4.465,1.4-2.41L167.765,302Z" transform="translate(-155.071 -190.274)" fill="#f8951d"/><path d="M224.479,163.07l-1.185,1.1c-.09.085,0,.245.17.31l15.955,6.295c.14.055.275.035.315-.05l.64-1.32c.04-.09-.05-.22-.2-.28l-15.405-6.08A.29.29,0,0,0,224.479,163.07Z" transform="translate(-186.471 -123.374)" fill="#f8951d"/><path d="M224.479,163.07l-1.185,1.1c-.09.085,0,.245.17.31l15.955,6.295c.14.055.275.035.315-.05l.64-1.32c.04-.09-.05-.22-.2-.28l-15.405-6.08A.29.29,0,0,0,224.479,163.07Z" transform="translate(-186.471 -123.374)" fill="#fff" opacity="0.2"/><path d="M228.055,166.16l-.415-.165c-.08-.03-.125-.1-.105-.15l.845-1.705c.025-.05.11-.065.19-.035l.415.165c.08.03.13.1.1.15l-.825,1.71A.183.183,0,0,1,228.055,166.16Z" transform="translate(-188.607 -123.908)" fill="#263238"/><path d="M252.634,175.856l-.415-.165c-.08-.03-.13-.1-.1-.15l.84-1.71c0-.05.115-.065.2-.03l.415.16c.08.035.13.1.105.15l-.845,1.71C252.8,175.891,252.714,175.891,252.634,175.856Z" transform="translate(-200.895 -128.755)" fill="#263238"/><path d="M240.344,171.006l-.415-.165c-.08-.03-.13-.1-.1-.15l.84-1.71c.025-.05.115-.065.195-.03l.415.165c.08.03.13.095.105.15l-.84,1.7C240.514,171.021,240.409,171.036,240.344,171.006Z" transform="translate(-194.75 -126.33)" fill="#263238"/><path d="M264.18,100.31c0,.33.155.6.365.615s.39-.245.4-.57-.155-.605-.365-.615S264.195,99.985,264.18,100.31Z" transform="translate(-206.931 -91.734)" fill="#263238"/><path d="M271.45,100.72c0,.325.155.6.365.615s.385-.245.4-.575-.155-.6-.365-.61S271.465,100.395,271.45,100.72Z" transform="translate(-210.566 -91.939)" fill="#263238"/><path d="M272.07,99.99l.78-.18S272.43,100.405,272.07,99.99Z" transform="translate(-210.876 -91.769)" fill="#263238"/><path d="M270.555,102.21a9.055,9.055,0,0,0,1.08,2.15,1.355,1.355,0,0,1-1.155.155Z" transform="translate(-210.081 -92.969)" fill="#ed847e"/><path d="M265.178,107.974a.12.12,0,0,0,.06-.09.1.1,0,0,0-.1-.1,2.6,2.6,0,0,1-2.04-1.13.1.1,0,0,0-.13-.035.1.1,0,0,0-.035.135,2.785,2.785,0,0,0,2.2,1.225Z" transform="translate(-206.305 -95.168)" fill="#263238"/><path d="M263.294,97.321a.155.155,0,0,0,.08-.06,1.47,1.47,0,0,1,1.23-.57.2.2,0,0,0,.21-.17.2.2,0,0,0-.17-.215,1.82,1.82,0,0,0-1.565.71.2.2,0,0,0,.215.305Z" transform="translate(-206.36 -90.015)" fill="#263238"/><path d="M274.155,97.655a.2.2,0,0,0-.07-.265,1.85,1.85,0,0,0-1.725-.14.194.194,0,0,0,.175.345,1.5,1.5,0,0,1,1.365.125.18.18,0,0,0,.255-.065Z" transform="translate(-210.972 -90.414)" fill="#263238"/><path d="M162.706,318.624l.06.025a.525.525,0,0,0,.5-.135.325.325,0,0,0,.13-.305c-.065-.5-1.355-1.155-1.5-1.225a.085.085,0,0,0-.1,0,.1.1,0,0,0-.03.1C161.926,317.594,162.251,318.429,162.706,318.624Zm-.68-1.365c.5.275,1.155.705,1.185.975a.135.135,0,0,1-.06.135.36.36,0,0,1-.335.095C162.556,318.384,162.266,317.939,162.026,317.259Z" transform="translate(-155.722 -200.348)" fill="#f8951d"/><path d="M161.915,316.725c.44.2,1.415.32,1.725.025a.335.335,0,0,0,.06-.415.5.5,0,0,0-.315-.285c-.55-.17-1.53.435-1.57.465a.1.1,0,0,0,0,.165Zm1.455-.475a.32.32,0,0,1,.16.165.238.238,0,0,1,0,.2,1.956,1.956,0,0,1-1.44-.025,2.13,2.13,0,0,1,1.255-.35Z" transform="translate(-155.726 -199.874)" fill="#f8951d"/><path d="M232.613,332.518a1.56,1.56,0,0,0,.925-.225.58.58,0,0,0,.23-.46.285.285,0,0,0-.125-.26c-.445-.29-2.05.445-2.365.6a.085.085,0,0,0-.05.1.1.1,0,0,0,.075.085,6.585,6.585,0,0,0,1.31.165Zm.735-.825a.325.325,0,0,1,.19.04.1.1,0,0,1,.04.09.4.4,0,0,1-.16.32,2.634,2.634,0,0,1-1.79.08A5.8,5.8,0,0,1,233.348,331.693Z" transform="translate(-190.455 -207.617)" fill="#f8951d"/><path d="M231.3,331.4h.035c.535-.225,1.6-1.1,1.5-1.545,0-.1-.085-.22-.33-.25-.955-.115-1.3,1.61-1.32,1.685a.08.08,0,0,0,.035.09A.09.09,0,0,0,231.3,331.4Zm1.14-1.6h.065c.1,0,.155.04.165.085.04.265-.69.95-1.23,1.25C231.557,330.71,231.872,329.8,232.442,329.8Z" transform="translate(-190.433 -206.663)" fill="#f8951d"/><path d="M264.8,99.585l.78-.185S265.16,99.99,264.8,99.585Z" transform="translate(-207.241 -91.564)" fill="#263238"/><path d="M223.558,127.19c-1.615,1.5-3.245,3.055-4.8,4.615-.78.785-1.535,1.585-2.255,2.39a22.209,22.209,0,0,0-1.945,2.425,4.371,4.371,0,0,0-.5.93h0a1.149,1.149,0,0,0,0,.185,2.144,2.144,0,0,0,.08.4,4.675,4.675,0,0,0,1.53,1.9,22.71,22.71,0,0,0,5.52,3.045l-.5,1.945c-.625-.09-1.185-.21-1.77-.35a17.912,17.912,0,0,1-1.73-.5,16.065,16.065,0,0,1-3.38-1.545,9.376,9.376,0,0,1-1.61-1.24,6.5,6.5,0,0,1-1.35-1.865,5,5,0,0,1-.395-1.23,4.848,4.848,0,0,1-.075-.66,3.243,3.243,0,0,1,0-.435,2.127,2.127,0,0,1,.06-.415,5.555,5.555,0,0,1,.41-1.225,8.137,8.137,0,0,1,.5-.93,25.359,25.359,0,0,1,2.17-3c.76-.915,1.55-1.78,2.35-2.625,1.6-1.7,3.245-3.285,5-4.84Z" transform="translate(-180.024 -103.949)" fill="#ffc3bd"/><path d="M228.84,163.319l2,2.62,2-2.755s-1.875-1.7-3.5-1.665Z" transform="translate(-189.261 -122.623)" fill="#ffc3bd"/><path d="M234.46,169.315l1.39-2.1-1.035-2.36-2,2.755Z" transform="translate(-191.246 -124.289)" fill="#ffc3bd"/><path d="M230.575,117.1c-2-.23-6.165,4.5-6.165,4.5l3.735,6.6s5.535-3.915,5.33-6.42C233.3,119.577,233.12,117.392,230.575,117.1Z" transform="translate(-187.046 -100.411)" fill="#f8951d"/></g><g transform="translate(54 90.675)"><rect width="2.4" height="0.5" transform="matrix(0.5, -0.866, 0.866, 0.5, 109.198, 59.561)" fill="#f8951d"/><rect width="8.69" height="0.5" transform="matrix(0.5, -0.866, 0.866, 0.5, 111.633, 55.365)" fill="#f8951d"/><path d="M300.635,126.35,265.86,142.165h13.465l-46.065,79.73h24.345l46.065-79.73h13.465Z" transform="translate(-170.63 -126.35)" fill="#f8951d"/><path d="M241.045,288.77H216.7L200.14,260.1h24.34Z" transform="translate(-154.07 -193.225)" fill="#f8951d"/><path d="M241.045,288.77H216.7L200.14,260.1h24.34Z" transform="translate(-154.07 -193.225)" opacity="0.3"/><path d="M178.415,260.1h-24.35L108,339.835h24.345Z" transform="translate(-108 -193.225)" fill="#f8951d"/></g></g></svg>