<svg xmlns="http://www.w3.org/2000/svg" width="250" height="208.955" viewBox="0 0 250 208.955"><g transform="translate(-181.014 -66.47)"><g transform="translate(189.749 66.47)"><path d="M472.753,134.64H282.342a5.942,5.942,0,0,0-5.942,5.947V275.078a5.942,5.942,0,0,0,5.942,5.942h73.08s4.651,14.374-9.763,21.816h68.333s-16.259-5.582-12.088-21.816h70.849a5.942,5.942,0,0,0,5.942-5.942V140.587A5.942,5.942,0,0,0,472.753,134.64Z" transform="translate(-237.43 -100.546)" fill="#263238"/><path d="M477.425,397.868a3.668,3.668,0,0,1-5.166,5.166,1.28,1.28,0,0,1-.315-.32,3.667,3.667,0,0,1,5.166-5.161,1.345,1.345,0,0,1,.315.315Z" transform="translate(-334.766 -231.558)" fill="#455a64"/><path d="M287.826,139.57h186.05a4.851,4.851,0,0,1,4.851,4.851V258.882H283V144.421a4.851,4.851,0,0,1,4.826-4.851Z" transform="translate(-240.729 -103.01)" fill="#fff"/><rect width="6.422" height="71.699" transform="translate(58.831 63.492)" fill="#f8951d"/><rect width="6.422" height="47.348" transform="translate(71.224 87.844)" fill="#f8951d"/><rect width="6.422" height="63.152" transform="translate(83.617 72.404)" fill="#f8951d"/><rect width="6.422" height="68.928" transform="translate(96.016 66.263)" fill="#f8951d"/><rect width="6.422" height="45.887" transform="translate(108.409 89.304)" fill="#f8951d"/><rect width="6.422" height="36.89" transform="translate(120.802 98.301)" fill="#f8951d"/><rect width="6.422" height="64.337" transform="translate(133.196 70.854)" fill="#f8951d"/><rect width="6.422" height="52.739" transform="translate(145.589 82.452)" fill="#f8951d"/><rect width="6.422" height="62.007" transform="translate(157.987 73.185)" fill="#f8951d"/><rect width="6.422" height="42.246" transform="translate(170.381 92.945)" fill="#f8951d"/><rect width="6.422" height="64.337" transform="translate(195.102 70.854)" fill="#f8951d"/><rect width="6.422" height="22.016" transform="translate(221.424 112.25)" fill="#f8951d"/><rect width="6.422" height="42.246" transform="translate(208.591 92.945)" fill="#f8951d"/><rect width="6.422" height="50.283" transform="translate(182.774 84.908)" fill="#f8951d"/><path d="M490.47,210.216a4,4,0,0,1-.56-.09l-1.635-.335a25.571,25.571,0,0,0-2.671-.425,33.007,33.007,0,0,0-3.676-.305,42.566,42.566,0,0,0-10.053.86,44.371,44.371,0,0,0-12.463,4.721A50.879,50.879,0,0,0,446.783,224.7c-3.931,4.311-7.247,9.638-10.638,15.274s-6.912,11.688-11.958,16.91a31.3,31.3,0,0,1-8.807,6.587,18.355,18.355,0,0,1-5.431,1.66,17.4,17.4,0,0,1-5.757-.2,23.493,23.493,0,0,1-10.028-5.256,46.681,46.681,0,0,1-7.427-8.107c-4.311-5.8-7.372-12.053-10.648-17.75s-6.562-11.058-10.638-15.234a28.932,28.932,0,0,0-6.577-5.171,27.665,27.665,0,0,0-3.556-1.725,28.929,28.929,0,0,0-3.626-1.075,26.382,26.382,0,0,0-13.179.37,29.728,29.728,0,0,0-9.047,4.351,32.949,32.949,0,0,0-4.751,4.261l-1.115,1.235a3.5,3.5,0,0,1-.4.41,2.862,2.862,0,0,1,.34-.455l1.055-1.3a30.907,30.907,0,0,1,4.7-4.386,29.507,29.507,0,0,1,9.1-4.5,26.632,26.632,0,0,1,13.4-.5,27.8,27.8,0,0,1,14.074,8.052c4.106,4.231,7.527,9.6,10.788,15.319s6.372,11.938,10.638,17.665a46.32,46.32,0,0,0,7.322,8,22.8,22.8,0,0,0,9.713,5.1,16.74,16.74,0,0,0,5.5.185,17.834,17.834,0,0,0,5.226-1.6,30.677,30.677,0,0,0,8.627-6.447c4.976-5.116,8.457-11.158,11.9-16.754s6.762-11,10.763-15.334A51.434,51.434,0,0,1,459.161,214.2a44.277,44.277,0,0,1,12.633-4.666,41.626,41.626,0,0,1,10.143-.75,30.92,30.92,0,0,1,3.7.375,22.579,22.579,0,0,1,2.671.5l1.62.405a3.566,3.566,0,0,1,.545.155Z" transform="translate(-260.823 -137.582)" fill="#263238"/><path d="M301.735,255.494c-.145,0-.265-20.445-.265-45.662s.12-45.662.265-45.662.265,20.44.265,45.662S301.87,255.494,301.735,255.494Z" transform="translate(-249.961 -115.307)" fill="#263238"/><path d="M482.046,346.505c0,.145-38.51.26-86.023.26S310,346.65,310,346.505s38.51-.265,86.023-.265S482.046,346.36,482.046,346.505Z" transform="translate(-254.225 -206.318)" fill="#263238"/><path d="M324.9,357.785a42.943,42.943,0,0,1-9.528,0,42.938,42.938,0,0,1,9.528,0Z" transform="translate(-256.909 -211.956)" fill="#263238"/><path d="M354.618,358.36a61.3,61.3,0,0,1-11.388,0,30.741,30.741,0,0,1,5.7-.26A31.191,31.191,0,0,1,354.618,358.36Z" transform="translate(-270.836 -212.246)" fill="#263238"/><path d="M381.618,358.36a61.3,61.3,0,0,1-11.388,0,30.741,30.741,0,0,1,5.7-.26A31.191,31.191,0,0,1,381.618,358.36Z" transform="translate(-284.332 -212.246)" fill="#263238"/><path d="M408.538,358.36a61.3,61.3,0,0,1-11.388,0,30.741,30.741,0,0,1,5.7-.26A31.191,31.191,0,0,1,408.538,358.36Z" transform="translate(-297.788 -212.246)" fill="#263238"/><path d="M435.488,358.36a61.3,61.3,0,0,1-11.388,0,30.741,30.741,0,0,1,5.7-.26A31.191,31.191,0,0,1,435.488,358.36Z" transform="translate(-311.26 -212.246)" fill="#263238"/><path d="M462.448,358.36a61.3,61.3,0,0,1-11.388,0,30.663,30.663,0,0,1,5.692-.26A31.27,31.27,0,0,1,462.448,358.36Z" transform="translate(-324.736 -212.246)" fill="#263238"/><path d="M489.4,358.36a61.3,61.3,0,0,1-11.388,0,30.663,30.663,0,0,1,5.692-.26A31.271,31.271,0,0,1,489.4,358.36Z" transform="translate(-338.208 -212.246)" fill="#263238"/><path d="M516.348,358.36a61.3,61.3,0,0,1-11.388,0,30.707,30.707,0,0,1,5.692-.26A31.315,31.315,0,0,1,516.348,358.36Z" transform="translate(-351.679 -212.246)" fill="#263238"/><path d="M543.3,358.36a61.3,61.3,0,0,1-11.388,0,30.741,30.741,0,0,1,5.7-.26A31.191,31.191,0,0,1,543.3,358.36Z" transform="translate(-365.15 -212.246)" fill="#263238"/><path d="M570.248,358.36a61.3,61.3,0,0,1-11.388,0,30.741,30.741,0,0,1,5.7-.26A31.191,31.191,0,0,1,570.248,358.36Z" transform="translate(-378.622 -212.246)" fill="#263238"/><path d="M595.318,358.37a61.3,61.3,0,0,1-11.388,0,30.707,30.707,0,0,1,5.692-.26A31.316,31.316,0,0,1,595.318,358.37Z" transform="translate(-391.153 -212.251)" fill="#263238"/><path d="M620.388,358.38a61.289,61.289,0,0,1-11.388,0,62.463,62.463,0,0,1,11.388,0Z" transform="translate(-403.685 -212.256)" fill="#263238"/><path d="M645.448,358.385a61.289,61.289,0,0,1-11.388,0,61.289,61.289,0,0,1,11.388,0Z" transform="translate(-416.212 -212.256)" fill="#263238"/><path d="M430.481,259.865c0-.11.79.165,1.04,1.24a2.641,2.641,0,0,1-.2,1.851,1.6,1.6,0,0,1-.935.79,1.72,1.72,0,0,1-1.305-.155,2.186,2.186,0,0,1-1.115-2.046,2.291,2.291,0,0,1,.9-1.655,1.465,1.465,0,0,1,1.225-.3c.3.09.4.235.38.265a1.431,1.431,0,0,0-1.28.425,1.886,1.886,0,0,0-.56,1.29,1.59,1.59,0,0,0,.8,1.39.95.95,0,0,0,1.33-.34,2.34,2.34,0,0,0,.27-1.425A3.119,3.119,0,0,0,430.481,259.865Z" transform="translate(-313.19 -162.989)" fill="#263238"/><path d="M599.658,212.769c0-.04.205-.105.56,0a2.161,2.161,0,0,1,1.145,1,2.846,2.846,0,0,1,.28,2.251,2.366,2.366,0,0,1-2.2,1.755,1.871,1.871,0,0,1-1.4-.725,3,3,0,0,1-.59-1.25,2.851,2.851,0,0,1,.36-2.236c.79-1.115,1.766-1.06,1.73-1,.045.105-.77.26-1.3,1.235a2.5,2.5,0,0,0-.155,1.815c.17.66.68,1.415,1.37,1.42a1.766,1.766,0,0,0,1.545-1.245,2.461,2.461,0,0,0-.105-1.805A2.591,2.591,0,0,0,599.658,212.769Z" transform="translate(-397.874 -139.484)" fill="#263238"/><rect width="128.839" height="100.272" transform="translate(0.1 0.17)" fill="#fff"/><path d="M327.42,166.912c0-1-.045-39.761-.12-100.272l.12.12H198.6l.145-.145V166.887l-.13-.13,128.839.13-128.839.13h-.13V66.47h129.1v.12C327.47,127.151,327.425,165.912,327.42,166.912Z" transform="translate(-198.48 -66.47)" fill="#263238"/><rect width="20.856" height="1.16" transform="translate(6.387 13.344)" fill="#263238"/><rect width="10.308" height="1.16" transform="translate(6.387 16.059)" fill="#263238"/><rect width="3.776" height="1.09" transform="translate(18.275 86.033)" fill="#263238"/><rect width="4.831" height="1.09" transform="translate(26.822 91.855)" fill="#263238"/><rect width="4.831" height="1.09" transform="translate(43.642 91.855)" fill="#263238"/><rect width="4.831" height="1.09" transform="translate(60.461 91.855)" fill="#263238"/><rect width="4.831" height="1.09" transform="translate(77.281 91.855)" fill="#263238"/><rect width="4.831" height="1.09" transform="translate(94.1 91.855)" fill="#263238"/><rect width="4.831" height="1.09" transform="translate(110.92 91.855)" fill="#263238"/><rect width="3.776" height="1.09" transform="translate(18.275 71.494)" fill="#263238"/><rect width="3.776" height="1.09" transform="translate(18.275 44.127)" fill="#263238"/><rect width="3.776" height="1.09" transform="translate(18.275 30.373)" fill="#263238"/><rect width="3.776" height="1.09" transform="translate(18.47 57.81)" fill="#263238"/><path d="M337.98,175.372h-1.6l-4.571.025-16.81.045-55.47.035H246.26v-.13c0-18.55.035-34.874.045-46.567,0-5.842.03-10.5.04-13.754v0c0,3.231,0,7.912.04,13.754,0,11.693.025,28.008.045,46.567l-.13-.13h13.234l55.47.04,16.81.04,4.571.025h1.19Z" transform="translate(-222.364 -88.249)" fill="#263238"/><path d="M342.8,183.02c0,.07-19.925.13-44.512.13s-44.512-.06-44.512-.13,19.92-.13,44.512-.13S342.8,182.945,342.8,183.02Z" transform="translate(-226.123 -124.664)" fill="#263238"/><path d="M342.8,155.66c0,.07-19.925.13-44.512.13s-44.512-.06-44.512-.13,19.92-.13,44.512-.13S342.8,155.59,342.8,155.66Z" transform="translate(-226.123 -110.988)" fill="#263238"/><path d="M342.8,128.16c0,.075-19.925.13-44.512.13s-44.512-.055-44.512-.13,19.92-.13,44.512-.13S342.8,128.09,342.8,128.16Z" transform="translate(-226.123 -97.242)" fill="#263238"/><path d="M342.8,210.38c0,.07-19.925.13-44.512.13s-44.512-.06-44.512-.13,19.92-.13,44.512-.13S342.8,210.31,342.8,210.38Z" transform="translate(-226.123 -138.341)" fill="#263238"/><path d="M255.66,173.461V161.323l7.567-11.758,5.136,3.941L278.9,137.137l6.217,4.376,8.647-15.1,7,5.727,10.578-20.025L322.7,134.5l9.152-11.2,10.808-3.1v53.259Z" transform="translate(-227.062 -89.284)" fill="#455a64"/><path d="M343.764,119.6a1.4,1.4,0,0,1-.19,0h-2.756l-8.3.035.055-.03-8.892,11.663-.035.04H301.342l.11-.06-9.358,15.574c-3.186,5.3-6.272,10.428-9.187,15.269l-.1.165-.11-.155-12.063-16.569h.175l-10.963,17.145-3.056,4.741c-.35.54-.62.955-.81,1.24s-.285.42-.285.42.085-.15.26-.435l.78-1.255c.7-1.105,1.71-2.721,3-4.776l10.9-17.19.085-.13.1.125,12.088,16.549h-.21L291.86,146.7l9.368-15.574.035-.06h.1l22.256.025-.08.04,8.947-11.573v-.03h.035l8.3.035h2.756Z" transform="translate(-227.082 -92.993)" fill="#263238"/><path d="M291.291,178.37a.855.855,0,1,1-.855-.82A.84.84,0,0,1,291.291,178.37Z" transform="translate(-244.019 -121.995)" fill="#263238"/><path d="M342.651,149.18a.855.855,0,1,1-.85-.82A.835.835,0,0,1,342.651,149.18Z" transform="translate(-269.692 -107.404)" fill="#263238"/><ellipse cx="0.855" cy="0.82" rx="0.855" ry="0.82" transform="translate(91.209 37.38)" fill="#263238"/><path d="M207.451,74.06a1,1,0,1,1-1-1A1,1,0,0,1,207.451,74.06Z" transform="translate(-201.964 -69.764)" fill="#263238"/><path d="M213.211,74.06a1,1,0,1,1-1-1A1,1,0,0,1,213.211,74.06Z" transform="translate(-204.843 -69.764)" fill="#263238"/><path d="M219,74.06a1,1,0,1,1-1-1A1,1,0,0,1,219,74.06Z" transform="translate(-207.738 -69.764)" fill="#263238"/><path d="M327.574,82.74c0,.07-28.788.13-64.292.13S199,82.805,199,82.74s28.783-.13,64.3-.13S327.574,82.665,327.574,82.74Z" transform="translate(-198.74 -74.538)" fill="#263238"/></g><g transform="translate(206.674 107.835)"><path d="M243.234,462.37l-.86,3.621s-5.927,7.7-7.752,7.317c-1.2-.245.275-2.251,2.5-8.1l.5-2.411Z" transform="translate(-233.256 -305.732)" fill="#455a64"/><path d="M234.568,474.952a.73.73,0,0,0,.315.305,1.1,1.1,0,0,0,1.135-.16,33.931,33.931,0,0,0,2.946-2.791c1.1-1.15,2-2.261,2.666-3.076l.755-.975c.075-.1.145-.18.205-.265a.609.609,0,0,1,.08-.09.609.609,0,0,1-.08.09l-.19.28c-.165.24-.415.58-.73,1a37.749,37.749,0,0,1-2.651,3.1,29.2,29.2,0,0,1-3,2.786,1.375,1.375,0,0,1-.67.245,1,1,0,0,1-.525-.115.631.631,0,0,1-.25-.23.336.336,0,0,1-.005-.105Z" transform="translate(-233.443 -308.496)" fill="#263238"/><path d="M236.24,476.933a.94.94,0,0,1,.5-.055,2.541,2.541,0,0,1,1.115.385,2.035,2.035,0,0,1,.81.86,1.04,1.04,0,0,1,.13.475,2.7,2.7,0,0,0-.2-.44,2.171,2.171,0,0,0-.8-.8,2.762,2.762,0,0,0-1.07-.405,4.709,4.709,0,0,0-.49-.02Z" transform="translate(-234.279 -312.978)" fill="#263238"/><path d="M247.241,469.779a.539.539,0,0,1-.075-.175,3.936,3.936,0,0,1-.115-.5,2.726,2.726,0,0,1,.275-1.65,2.566,2.566,0,0,1,1.2-1.16,1.734,1.734,0,0,1,.5-.15.574.574,0,0,1,.185,0,4,4,0,0,0-.645.23,2.625,2.625,0,0,0-1.135,1.145,2.835,2.835,0,0,0-.3,1.59C247.176,469.518,247.256,469.773,247.241,469.779Z" transform="translate(-239.669 -307.614)" fill="#263238"/><path d="M250.99,463.6s-.11.5-.22,1.155a3.966,3.966,0,0,1-.31,1.14s.1-.5.205-1.16a3.751,3.751,0,0,1,.325-1.135Z" transform="translate(-241.388 -306.347)" fill="#263238"/><path d="M239.89,469.018a1.42,1.42,0,0,1,.76,0,1.33,1.33,0,0,1,.685.325c0,.03-.31-.13-.71-.22S239.895,469.053,239.89,469.018Z" transform="translate(-236.104 -309.029)" fill="#263238"/><path d="M239.65,470.255a.955.955,0,0,1,.64,0,.9.9,0,0,1,.56.31c0,.025-.255-.13-.585-.205S239.655,470.29,239.65,470.255Z" transform="translate(-235.984 -309.645)" fill="#263238"/><path d="M238.7,471.749a.815.815,0,0,1,.665-.085.8.8,0,0,1,.56.365,2.572,2.572,0,0,0-.585-.26,2.606,2.606,0,0,0-.64-.02Z" transform="translate(-235.509 -310.36)" fill="#263238"/><path d="M240.71,467.06a6.98,6.98,0,0,0,.7-.235,5.679,5.679,0,0,0,.715-.345c.125-.075.26-.16.39-.25a.484.484,0,0,0,.25-.36c-.005-.14-.18-.22-.315-.185a.86.86,0,0,0-.365.245c-.22.205-.405.4-.555.57a4.984,4.984,0,0,1-.5.555.725.725,0,0,1,.1-.17c.07-.1.18-.255.325-.435a7.746,7.746,0,0,1,.545-.59.93.93,0,0,1,.41-.275.345.345,0,0,1,.445.28.6.6,0,0,1-.29.45,4.1,4.1,0,0,1-.41.25,4.5,4.5,0,0,1-.735.33,4,4,0,0,1-.525.145C240.78,467.065,240.71,467.07,240.71,467.06Z" transform="translate(-236.514 -307.33)" fill="#263238"/><path d="M240.252,466.464a6.5,6.5,0,0,1-.11-.66,2.857,2.857,0,0,0-.2-.685,1.5,1.5,0,0,0-.22-.35c-.09-.1-.23-.19-.34-.125s-.125.23-.11.365a1.715,1.715,0,0,0,.115.4,2.4,2.4,0,0,0,.385.6,5.014,5.014,0,0,0,.5.465c0,.015-.06,0-.155-.09a2.725,2.725,0,0,1-.38-.32,2.286,2.286,0,0,1-.42-.61,1.836,1.836,0,0,1-.13-.425.45.45,0,0,1,.165-.465.39.39,0,0,1,.465.145,1.535,1.535,0,0,1,.235.38,2.65,2.65,0,0,1,.185.715c.025.205.035.375.04.5a.636.636,0,0,1-.025.17Z" transform="translate(-235.746 -306.81)" fill="#263238"/><path d="M299.877,460.791l.025-4.831-9.027-.11-.125,7.077.56.045c2.5.17,12.7.68,14.374.2C307.555,462.617,299.877,460.791,299.877,460.791Z" transform="translate(-261.527 -302.473)" fill="#455a64"/><path d="M290.5,469.57h.155l.45.035,1.64.09c1.39.07,3.311.135,5.431.165s4.041,0,5.431,0l1.645-.045h-7.072c-2.121,0-4.036-.085-5.426-.13l-1.645-.06h-.445Z" transform="translate(-261.402 -309.331)" fill="#263238"/><path d="M314.863,468.97a4,4,0,0,1,.315-.78,3.842,3.842,0,0,1,.57-.62,1.19,1.19,0,0,0-.66.56A1.21,1.21,0,0,0,314.863,468.97Z" transform="translate(-273.577 -308.331)" fill="#263238"/><path d="M309.564,466.849a1.166,1.166,0,0,0,.285-.345c.13-.205.225-.385.2-.405s-.155.14-.29.345S309.534,466.828,309.564,466.849Z" transform="translate(-270.929 -307.595)" fill="#263238"/><path d="M308.108,466.3c0,.025.165-.07.32-.205s.27-.27.25-.3-.165.075-.32.21S308.088,466.276,308.108,466.3Z" transform="translate(-270.203 -307.442)" fill="#263238"/><path d="M307.21,465.031a1.08,1.08,0,0,0,.47.07,1.105,1.105,0,0,0,.5-.045,1.07,1.07,0,0,0-.5-.065A1.1,1.1,0,0,0,307.21,465.031Z" transform="translate(-269.755 -307.037)" fill="#263238"/><path d="M306.9,463.88a1,1,0,0,0,.525.16.905.905,0,0,0,.545-.07,3.092,3.092,0,0,0-.52-.03,2.835,2.835,0,0,0-.55-.06Z" transform="translate(-269.6 -306.487)" fill="#263238"/><path d="M310.2,465.205a1.771,1.771,0,0,0,.58,0,3,3,0,0,0,.62-.125,1.608,1.608,0,0,0,.355-.145.31.31,0,0,0,.15-.175.23.23,0,0,0-.085-.235,1.07,1.07,0,0,0-1.325.3,1.025,1.025,0,0,0-.2.385.31.31,0,0,0,0,.155,1.626,1.626,0,0,1,.27-.5,1.05,1.05,0,0,1,.5-.315.885.885,0,0,1,.7.055c.09.07.055.175-.05.235a1.5,1.5,0,0,1-.33.135,3.89,3.89,0,0,1-.6.15A2.864,2.864,0,0,1,310.2,465.205Z" transform="translate(-271.25 -306.751)" fill="#263238"/><path d="M309.733,464.955a.565.565,0,0,0,.07-.405.93.93,0,0,0-.15-.425.59.59,0,0,0-.5-.305.24.24,0,0,0-.185.27.67.67,0,0,0,.1.26,1.78,1.78,0,0,0,.27.355.87.87,0,0,0,.33.24,3.022,3.022,0,0,1-.27-.3,1.848,1.848,0,0,1-.24-.35c-.08-.125-.13-.345,0-.37s.3.135.38.25a.97.97,0,0,1,.16.38A2.453,2.453,0,0,1,309.733,464.955Z" transform="translate(-270.632 -306.457)" fill="#263238"/><path d="M290.94,464.553s.255,0,.665.03a2.836,2.836,0,0,1,2.346,1.921c.135.39.145.65.165.65a.585.585,0,0,0,0-.185,2.145,2.145,0,0,0-.09-.5,2.746,2.746,0,0,0-2.411-1.971,2.653,2.653,0,0,0-.5,0A.5.5,0,0,0,290.94,464.553Z" transform="translate(-261.622 -306.79)" fill="#263238"/><path d="M292.778,457.12a15.092,15.092,0,0,0-.1,1.855,15.834,15.834,0,0,0,0,1.861,15.9,15.9,0,0,0,.1-1.861,16.464,16.464,0,0,0,.005-1.856Z" transform="translate(-262.475 -303.107)" fill="#263238"/><path d="M299.61,468.182a5.387,5.387,0,0,0,1.32.145,4.891,4.891,0,0,0,1.325-.09c0-.03-.6,0-1.32,0S299.615,468.147,299.61,468.182Z" transform="translate(-265.956 -308.633)" fill="#263238"/><path d="M296.065,468.135c-.025,0,.045.125.105.26s.09.255.12.255.05-.14,0-.3S296.085,468.111,296.065,468.135Z" transform="translate(-264.181 -308.611)" fill="#263238"/><path d="M294.75,466.455a.565.565,0,0,0,.13.21c.1.1.185.155.205.135s-.035-.115-.125-.21S294.775,466.43,294.75,466.455Z" transform="translate(-263.527 -307.771)" fill="#263238"/><path d="M292.849,465.619c0,.03.125.03.26.08s.225.12.25.1-.05-.145-.215-.205S292.839,465.594,292.849,465.619Z" transform="translate(-262.576 -307.33)" fill="#263238"/><path d="M291.49,465.278c0,.025.04.075.115.105s.145.03.155,0-.04-.075-.11-.105S291.505,465.247,291.49,465.278Z" transform="translate(-261.897 -307.174)" fill="#263238"/><path d="M276.787,280.76l-3.471,90.679-14.094.3,2.341-78.566-15.844,79.166h-13.4l17.26-91.389Z" transform="translate(-232.32 -214.951)" fill="#263238"/><path d="M293.8,287.36a8.9,8.9,0,0,1-.16,1.5c-.13.915-.33,2.186-.565,3.576a15.4,15.4,0,0,1-.4,1.971,2.811,2.811,0,0,1-.92,1.385,2.16,2.16,0,0,1-1.025.455.825.825,0,0,1-.41,0,2.686,2.686,0,0,0,1.32-.585,2.73,2.73,0,0,0,.815-1.32,17.623,17.623,0,0,0,.375-1.941c.235-1.4.46-2.656.635-3.566a9.5,9.5,0,0,1,.335-1.475Z" transform="translate(-261.312 -218.25)" fill="#455a64"/><path d="M291.241,287.983a.821.821,0,0,0,0,.405.5.5,0,0,0,.235.305.425.425,0,0,0,.555-.5.465.465,0,0,0-.27-.27c-.23-.1-.39,0-.405-.035s.13-.205.46-.135a.635.635,0,0,1,.43.36.642.642,0,0,1-.88.775.63.63,0,0,1-.3-.475C291.031,288.083,291.231,287.953,291.241,287.983Z" transform="translate(-261.683 -218.438)" fill="#455a64"/><path d="M276.095,288.321a2.656,2.656,0,0,1,.27-2.5c.065.03-.14.565-.205,1.25A11.136,11.136,0,0,1,276.095,288.321Z" transform="translate(-254.104 -217.48)" fill="#455a64"/><path d="M279.447,287.976a2.185,2.185,0,0,1-.205-1.33,2.241,2.241,0,0,1,.39-1.3c.065,0-.1.6-.14,1.31A12.5,12.5,0,0,1,279.447,287.976Z" transform="translate(-255.761 -217.245)" fill="#455a64"/><path d="M308.8,288.616a7.723,7.723,0,0,1,.08-1.36,8.4,8.4,0,0,1,.06-1.365,2.546,2.546,0,0,1,.185,1.375,2.586,2.586,0,0,1-.325,1.35Z" transform="translate(-270.546 -217.515)" fill="#455a64"/><path d="M312.466,288.361c-.07-.03.15-.625.2-1.385s-.08-1.375,0-1.4a2.941,2.941,0,0,1-.19,2.781Z" transform="translate(-272.376 -217.36)" fill="#455a64"/><path d="M280.575,182.56l8.7-.7c.055-1,0-4.941,0-4.941a4.348,4.348,0,0,0,3.666-4.181c.045-3.616-.585-11.928-.585-11.928h0a12.578,12.578,0,0,0-12.673,1.575l-.535.415Z" transform="translate(-255.729 -154.476)" fill="#ffbe9d"/><path d="M294.626,192.66a8.372,8.372,0,0,1-4.716-1.34s1.115,2.606,4.726,2.281Z" transform="translate(-261.107 -170.243)" fill="#eb996e"/><path d="M301.635,172.724a.5.5,0,1,1-.171-.344A.5.5,0,0,1,301.635,172.724Z" transform="translate(-266.451 -160.714)" fill="#263238"/><path d="M302.078,171.455c-.065.065-.455-.225-1-.225s-.965.28-1.025.215.035-.155.215-.285a1.45,1.45,0,0,1,.82-.25,1.36,1.36,0,0,1,.805.26C302.053,171.315,302.108,171.455,302.078,171.455Z" transform="translate(-266.168 -160.041)" fill="#263238"/><path d="M290.405,172.984a.5.5,0,1,1-.171-.344A.5.5,0,0,1,290.405,172.984Z" transform="translate(-260.837 -160.844)" fill="#263238"/><path d="M291.148,171.69c-.065.07-.455-.22-1-.22s-.965.28-1.025.21.035-.15.215-.28a1.375,1.375,0,0,1,.82-.25,1.36,1.36,0,0,1,.805.26C291.123,171.54,291.183,171.66,291.148,171.69Z" transform="translate(-260.704 -160.16)" fill="#263238"/><path d="M296.975,175.851a3.826,3.826,0,0,1,.9-.165c.145,0,.28-.04.3-.14a.705.705,0,0,0-.1-.42q-.2-.5-.42-1.08a18.562,18.562,0,0,1-.94-2.826,18.862,18.862,0,0,1,1.17,2.746c.14.375.27.74.4,1.085a.825.825,0,0,1,.07.56.36.36,0,0,1-.235.21.9.9,0,0,1-.24.035,3.671,3.671,0,0,1-.91-.005Z" transform="translate(-264.511 -160.196)" fill="#263238"/><path d="M293.883,181.25c.09,0,.09.6.605,1.025s1.16.365,1.165.445-.145.12-.415.125a1.5,1.5,0,0,1-.97-.335,1.345,1.345,0,0,1-.5-.865C293.753,181.395,293.818,181.245,293.883,181.25Z" transform="translate(-263.035 -165.209)" fill="#263238"/><path d="M290.943,167.461c-.055.15-.61.075-1.26.155s-1.18.26-1.27.12c-.035-.065.055-.205.265-.35a2.216,2.216,0,0,1,1.931-.215C290.848,167.266,290.968,167.386,290.943,167.461Z" transform="translate(-260.355 -158.107)" fill="#263238"/><path d="M301.8,168.243c-.1.125-.5,0-.94,0s-.85.085-.94-.05,0-.19.2-.31a1.28,1.28,0,0,1,.765-.205,1.335,1.335,0,0,1,.75.25C301.785,168.048,301.841,168.178,301.8,168.243Z" transform="translate(-266.091 -158.424)" fill="#263238"/><path d="M277.593,173.227c-.06-.025-2.5-.735-2.406,1.74a1.865,1.865,0,0,0,2.551,1.815C277.743,176.713,277.593,173.227,277.593,173.227Z" transform="translate(-253.747 -161.142)" fill="#ffbe9d"/><path d="M277.637,176.657a.786.786,0,0,1-.11.065.43.43,0,0,1-.325,0,1.065,1.065,0,0,1-.5-.94,1.41,1.41,0,0,1,.1-.625.5.5,0,0,1,.31-.34.225.225,0,0,1,.26.11c.035.07,0,.12.035.125s.05-.045.03-.145a.3.3,0,0,0-.105-.155.345.345,0,0,0-.24-.055.6.6,0,0,0-.435.4,1.431,1.431,0,0,0-.13.7,1.11,1.11,0,0,0,.665,1.045.46.46,0,0,0,.39-.075C277.637,176.717,277.647,176.662,277.637,176.657Z" transform="translate(-254.416 -161.932)" fill="#eb996e"/><path d="M290.917,152.39a3.826,3.826,0,0,0-5.942-1.145,3.746,3.746,0,0,0-6.157-.8c-.7.79-1.055,1.856-1.866,2.5-.705.575-1.655.765-2.366,1.33a2.731,2.731,0,0,0,.975,4.761,2.936,2.936,0,0,0,1.445,4l.36-.15a5.151,5.151,0,0,0,.75-5.682,1.127,1.127,0,0,0,.13,0,2.881,2.881,0,0,0,3.761-.86,3.206,3.206,0,0,0,3.451.145,1.321,1.321,0,0,1,.5-.235,1.23,1.23,0,0,1,.645.2,3.041,3.041,0,0,0,1.755.35,1.68,1.68,0,0,0,1.31-.94h.045a1.94,1.94,0,0,0,1.445-1.4A2.876,2.876,0,0,0,290.917,152.39Z" transform="translate(-252.937 -149.177)" fill="#263238"/><path d="M283.56,218.606l.32-16.3c-2.9-2.846-4.441-3.7-8.472-4.171l-1.1-.125-.345-2.686-9.883-.56.5,3.191h0a23.954,23.954,0,0,0-3.836.735,9.6,9.6,0,0,0-7.372,6.117c-.635,2.126-4.691,17.885-4.691,17.885l-.825,4.756,9.072-3.291v16.009H284.44C284.535,237.161,283.56,218.606,283.56,218.606Z" transform="translate(-240.088 -171.963)" fill="#f8951d"/><g transform="translate(7.772 22.797)" opacity="0.2"><path d="M283.56,218.606l.32-16.3c-2.9-2.846-4.441-3.7-8.472-4.171l-1.1-.125-.345-2.686-9.883-.56.5,3.191h0a23.954,23.954,0,0,0-3.836.735,9.6,9.6,0,0,0-7.372,6.117c-.635,2.126-4.691,17.885-4.691,17.885l-.825,4.756,9.072-3.291v16.009H284.44C284.535,237.161,283.56,218.606,283.56,218.606Z" transform="translate(-247.86 -194.76)"/></g><path d="M251.971,249.126,265.54,247.2l2.581,4.621-12.613,5.687a5.5,5.5,0,0,1-2.241.5h0a5.446,5.446,0,0,1-5.036-3.406l-.41-1Z" transform="translate(-240.068 -198.176)" fill="#f8951d"/><g transform="translate(7.752 49.024)" opacity="0.2"><path d="M251.971,249.126,265.54,247.2l2.581,4.621-12.613,5.687a5.5,5.5,0,0,1-2.241.5h0a5.446,5.446,0,0,1-5.036-3.406l-.41-1Z" transform="translate(-247.82 -247.2)"/></g><path d="M309.476,203.49a10,10,0,0,1,5.446,5c1.05,2.411,2.6,14,2.6,14l1.945,3.756a6.307,6.307,0,0,1,.71,2.916v.575a6.327,6.327,0,0,1-1.42,4h0a6.327,6.327,0,0,1-4.351,2.311c-1.946.175-4.3.25-4.8-.32A23.8,23.8,0,0,1,307.39,232l5.667-3-2.441-4.5Z" transform="translate(-269.845 -176.326)" fill="#f8951d"/><g transform="translate(37.545 27.164)" opacity="0.2"><path d="M309.476,203.49a10,10,0,0,1,5.446,5c1.05,2.411,2.6,14,2.6,14l1.945,3.756a6.307,6.307,0,0,1,.71,2.916v.575a6.327,6.327,0,0,1-1.42,4h0a6.327,6.327,0,0,1-4.351,2.311c-1.946.175-4.3.25-4.8-.32A23.8,23.8,0,0,1,307.39,232l5.667-3-2.441-4.5Z" transform="translate(-307.39 -203.49)"/></g><path d="M260.2,257a1.812,1.812,0,0,1,.22-.125l.65-.315,2.436-1.14,8.312-3.8-.055.175-1.59-2.851-1-1.77.12.06-9.943.975-2.951.265-.8.06a.915.915,0,0,1-.28,0,1.6,1.6,0,0,1,.275-.05l.8-.1,2.946-.34,9.943-1.05h.08l.04.07,1,1.77,1.585,2.851.065.115-.12.055-8.347,3.716-2.466,1.07-.67.28A1.372,1.372,0,0,1,260.2,257Z" transform="translate(-243.817 -198.076)" fill="#263238"/><path d="M269.775,237.543c-.07,0-.125-2.426-.125-5.416s.055-5.416.125-5.416.125,2.426.125,5.416S269.825,237.543,269.775,237.543Z" transform="translate(-250.98 -187.933)" fill="#263238"/><path d="M313.3,255.538a2.044,2.044,0,0,1,.41-.065,3.841,3.841,0,0,1,1.145.065,1.35,1.35,0,0,1,.715.41,1.815,1.815,0,0,1,.375.86,2,2,0,0,1-.09,1.035,1.93,1.93,0,0,1-.685.88,5.1,5.1,0,0,1-1.966.7,9.052,9.052,0,0,1-1.685.165,3.041,3.041,0,0,1-1.525-.265,8.165,8.165,0,0,0,1.525.09,10,10,0,0,0,1.64-.215,5.072,5.072,0,0,0,1.866-.675,1.716,1.716,0,0,0,.7-1.675,1.691,1.691,0,0,0-.305-.77,1.225,1.225,0,0,0-.605-.37,4.681,4.681,0,0,0-1.1-.14A1.786,1.786,0,0,1,313.3,255.538Z" transform="translate(-271.145 -202.303)" fill="#263238"/><path d="M315.521,266.1a2.826,2.826,0,0,1-1,.115,6.153,6.153,0,0,1-2.346-.385,5.053,5.053,0,0,1-1.165-.625,2.731,2.731,0,0,1-.72-.81,2.146,2.146,0,0,1-.35-.925c.04,0,.17.34.5.83a2.927,2.927,0,0,0,.71.725,5.333,5.333,0,0,0,1.12.57,7.143,7.143,0,0,0,2.256.445,7.006,7.006,0,0,1,1,.06Z" transform="translate(-271.12 -206.308)" fill="#263238"/><path d="M321.531,245.23a5.116,5.116,0,0,1-.67.805c-.435.475-1.05,1.125-1.74,1.83s-1.32,1.34-1.79,1.785a4.45,4.45,0,0,1-.79.69,4.339,4.339,0,0,1,.665-.81c.435-.5,1.05-1.13,1.735-1.835A23.318,23.318,0,0,1,321.531,245.23Z" transform="translate(-274.419 -197.191)" fill="#263238"/><path d="M314.019,233.977a38.452,38.452,0,0,1,0-6.2,38.457,38.457,0,0,1,0,6.2Z" transform="translate(-273.088 -188.468)" fill="#263238"/><path d="M290.937,207.56c0,.07-6.107.13-13.639.13s-13.639-.06-13.639-.13,6.107-.13,13.639-.13S290.937,207.485,290.937,207.56Z" transform="translate(-247.986 -178.296)" fill="#fafafa"/><path d="M290.807,201.262a42.91,42.91,0,0,1-4.706.105,41.279,41.279,0,0,1-4.7-.16,86.811,86.811,0,0,1,9.408.055Z" transform="translate(-256.853 -175.123)" fill="#263238"/><path d="M291.024,218.575c0,.07-7.412.13-16.559.13s-16.564-.06-16.564-.13,7.417-.135,16.564-.135S291.024,218.5,291.024,218.575Z" transform="translate(-245.107 -183.799)" fill="#fafafa"/><path d="M290.4,229.87c0,.075-8,.13-17.9.13s-17.9-.055-17.9-.13,8-.13,17.9-.13S290.4,229.815,290.4,229.87Z" transform="translate(-243.457 -189.448)" fill="#fafafa"/><path d="M289.7,240.92c0,.07-8.457.13-18.89.13s-18.89-.06-18.89-.13,8.457-.13,18.89-.13S289.7,240.845,289.7,240.92Z" transform="translate(-242.117 -194.971)" fill="#fafafa"/><path d="M290.581,258.87c0,.07-9.4.13-21.006.13s-21.006-.06-21.006-.13,9.4-.13,21.006-.13S290.581,258.79,290.581,258.87Z" transform="translate(-240.443 -203.944)" fill="#fafafa"/><path d="M292.837,271.44c0,.07-6.2.13-13.849.13s-13.849-.06-13.849-.13,6.2-.13,13.849-.13S292.837,271.365,292.837,271.44Z" transform="translate(-248.726 -210.227)" fill="#fafafa"/><path d="M295.588,241.184l-.3-.22a6.772,6.772,0,0,0-5.341-1.235h0a9.3,9.3,0,0,0-4.156,1.951l-2.326,1.915,2.471,4.431,1.685-2.356s1.57,2.131,1.85,1.906a3.61,3.61,0,0,0,.615-.9l-1.12-1.57,2.691.56,3.926-1.8-1.685-2.131,1.685.56Z" transform="translate(-257.888 -194.38)" fill="#ffbe9d"/><path d="M290.777,239.951l-8.637,10.458.665.715,14.014-2.136,6.952-10.458-.645-.58Z" transform="translate(-257.223 -193.552)" fill="#263238"/><path d="M304.345,247.47h0a1.33,1.33,0,0,0-1.245.85,2.916,2.916,0,0,1-.85,1.355,3.021,3.021,0,0,1-2.266.335c-.565-.275-2.831-2.316-3.226-2.091s-.735.735-.34,1.19,2.5,1.81,2.1,2.266-4.816-1.54-5.5-1.365-1.075.59-.68.865,3.4,1.405,3.566,1.8c0,0-4.531-1.19-4.7-.905s-.45.735,0,.905,4.361,1.19,4.7,1.36a8.237,8.237,0,0,0,1.745.5,18.733,18.733,0,0,1,1.826.575,3.961,3.961,0,0,0,2.816-.075l.46-.185a1.8,1.8,0,0,0,1.115-1.775l-.09-1.54.5-1.275Z" transform="translate(-261.629 -198.311)" fill="#ffbe9d"/><path d="M304.506,239.3a1.09,1.09,0,0,1-.26.065l-.75.13-2.761.445-4.1.625-2.421.365a4.651,4.651,0,0,0-2.346.95,15.4,15.4,0,0,0-1.705,1.966c-.535.66-1.045,1.3-1.535,1.911l-2.606,3.226-1.775,2.171-.5.58a1.166,1.166,0,0,1-.185.19,1.644,1.644,0,0,1,.145-.22l.455-.61,1.71-2.211,2.566-3.266,1.5-1.921a15.568,15.568,0,0,1,1.74-2,4.886,4.886,0,0,1,2.466-1l2.426-.35,4.111-.575,2.776-.365.755-.085a.89.89,0,0,1,.3-.02Z" transform="translate(-257.933 -194.222)" fill="#455a64"/><path d="M311.865,243.88a1.26,1.26,0,0,0-.39.315.405.405,0,0,0,0,.47.44.44,0,0,0,.58,0,.55.55,0,0,0,.22-.335.4.4,0,0,0-.115-.375.31.31,0,0,0-.38,0" transform="translate(-271.849 -196.516)" fill="#fafafa"/></g><g transform="translate(181.014 108.884)"><path d="M205.779,174.074l-2.541-4.5a12,12,0,1,0-2.871,3.2h0Z" transform="translate(-181.014 -151.275)" fill="#f8951d"/><path d="M196.73,170.7a1.582,1.582,0,1,1,1.575,1.77A1.585,1.585,0,0,1,196.73,170.7Zm2.236,0c0-.685-.265-1-.66-1s-.66.34-.66,1,.27,1,.66,1S198.966,171.386,198.966,170.7Zm3.111-1.7h1.075l-4.321,6.417h-1.075Zm-1.04,4.721a1.58,1.58,0,1,1,1.565,1.77,1.588,1.588,0,0,1-1.565-1.77Zm2.226,0c0-.68-.265-1-.66-1s-.66.33-.66,1,.27,1,.66,1,.66-.32.66-1Z" transform="translate(-188.87 -160.1)" fill="#fff"/></g></g></svg>