<svg xmlns="http://www.w3.org/2000/svg" width="251.244" height="301.737" viewBox="0 0 251.244 301.737"><g transform="translate(-52.548 -18.369)"><g transform="translate(80.143 307.832)"><ellipse cx="93.759" cy="6.137" rx="93.759" ry="6.137" transform="translate(0)" fill="#263238"/></g><g transform="translate(78.047 256.708)"><path d="M115.7,401.978a15.621,15.621,0,0,0,4.507.5s-.682-2.093-.743-2.223c-.682-1.466-2.918-3.887-4.725-3.641a2.155,2.155,0,0,0-1.732,2.728A4.519,4.519,0,0,0,115.7,401.978Z" transform="translate(-112.925 -387.342)" fill="#263238"/><path d="M116.954,406.915a15.526,15.526,0,0,0,4.439-.682,38.084,38.084,0,0,0,1.725,4.773c.4.907.818,1.814,1.255,2.728-.259-.375-.5-.682-.539-.764-1.064-1.227-3.839-2.98-5.516-2.264a2.155,2.155,0,0,0-.955,3.062,4.491,4.491,0,0,0,3.307,1.855,13.848,13.848,0,0,0,4.31-.682l.5,1.03c.832,1.65,1.657,3.287,2.428,4.916.266.573.511,1.152.764,1.725-.232-.341-.43-.621-.464-.682-1.064-1.227-3.846-2.98-5.523-2.271a2.162,2.162,0,0,0-.955,3.062,4.51,4.51,0,0,0,3.307,1.862,13.47,13.47,0,0,0,4.194-.627c.232.593.471,1.193.682,1.78.123.409.28.784.382,1.2s.225.811.341,1.214c.184.777.382,1.582.546,2.339.116.532.218,1.043.327,1.555-.266-.58-.8-1.691-.859-1.78-.866-1.364-3.348-3.532-5.107-3.082a2.162,2.162,0,0,0-1.412,2.884,4.5,4.5,0,0,0,2.987,2.339c1.275.389,4.091,0,4.46,0,.17.846.327,1.671.464,2.448.307,1.718.532,3.266.682,4.569h1.193c-.211-1.364-.484-2.959-.839-4.773-.17-.859-.368-1.773-.58-2.728a22.816,22.816,0,0,0,2.489-1.173,15.923,15.923,0,0,0,3.628,2.346c-.327.8-.648,1.568-.968,2.3-.682,1.521-1.282,2.864-1.841,4.009h1.3c.47-1.057,1-2.257,1.541-3.594.334-.8.682-1.677,1.016-2.578a14.968,14.968,0,0,0,4.453.348,4.509,4.509,0,0,0,3.143-2.114,2.148,2.148,0,0,0-1.186-2.973c-1.725-.58-4.357,1.364-5.326,2.687-.055.075-.58.982-.9,1.562.136-.368.273-.723.409-1.1.273-.75.525-1.507.8-2.325.116-.4.239-.8.361-1.2s.211-.839.32-1.262c.239-.989.423-2,.593-3.021a14.473,14.473,0,0,0,4.228.975,4.4,4.4,0,0,0,3.409-1.609,2.155,2.155,0,0,0-.723-3.123c-1.623-.839-4.521.682-5.673,1.848-.075.075-.8.989-1.2,1.5.1-.614.2-1.227.273-1.855.225-1.807.4-3.641.573-5.455.055-.559.116-1.118.177-1.677a14.911,14.911,0,0,0,4.364,1.023,4.408,4.408,0,0,0,3.409-1.6,2.155,2.155,0,0,0-.73-3.123c-1.616-.839-4.514.682-5.666,1.848-.089.089-1.146,1.4-1.364,1.752.13-1.227.273-2.455.464-3.655a37.074,37.074,0,0,1,1.05-4.773,15.2,15.2,0,0,0,4.391,1.036,4.446,4.446,0,0,0,3.409-1.609A2.155,2.155,0,0,0,152,402.2c-1.623-.839-4.521.682-5.673,1.848-.089.089-1.227,1.514-1.412,1.787a1.112,1.112,0,0,1,.075-.286A27.658,27.658,0,0,1,146.9,401c.416-.811.852-1.562,1.3-2.284a14.572,14.572,0,0,0,4.16,1.466,4.413,4.413,0,0,0,3.587-1.221,2.155,2.155,0,0,0-.375-3.184c-1.521-1.009-4.575.2-5.844,1.214-.068.055-.682.682-1.173,1.166.211-.32.416-.682.621-.961.764-1.146,1.527-2.155,2.216-3.034.4-.5.764-.941,1.111-1.364a14.132,14.132,0,0,0,4.337-.614,4.474,4.474,0,0,0,2.625-2.728,2.162,2.162,0,0,0-1.8-2.653c-1.814-.191-3.962,2.291-4.623,3.771-.061.13-.723,2.243-.682,2.243h.041c-.348.389-.682.8-1.091,1.275-.682.873-1.507,1.862-2.291,2.993a37.79,37.79,0,0,0-2.373,3.784,27.575,27.575,0,0,0-2.046,4.562v.061c0-.532,0-2.046-.034-2.141-.2-1.616-1.555-4.6-3.348-4.937a2.148,2.148,0,0,0-2.482,2.046,4.616,4.616,0,0,0,1.725,3.409,14.839,14.839,0,0,0,4.091,1.862,39.152,39.152,0,0,0-1.2,4.95c-.17.975-.314,1.957-.45,2.953V412.7c-.211-1.616-1.562-4.6-3.355-4.937a2.148,2.148,0,0,0-2.482,2.046,4.513,4.513,0,0,0,1.725,3.375,14.32,14.32,0,0,0,3.962,1.827l-.143,1.139c-.218,1.827-.43,3.648-.682,5.455-.089.627-.2,1.241-.314,1.862v-.811c-.2-1.609-1.555-4.6-3.348-4.937a2.162,2.162,0,0,0-2.482,2.046,4.477,4.477,0,0,0,1.725,3.368,13.563,13.563,0,0,0,3.846,1.793c-.13.627-.266,1.255-.423,1.855-.116.409-.2.811-.341,1.214s-.259.8-.382,1.2c-.273.75-.552,1.527-.839,2.257-.191.5-.389.982-.586,1.466.1-.621.266-1.848.273-1.957a8.4,8.4,0,0,0-1.125-4.091,2.761,2.761,0,0,0,0-.477,2.155,2.155,0,0,0-2.639-1.827c-1.759.464-2.871,3.553-2.953,5.175,0,.1.055,1.146.1,1.8-.089-.382-.17-.75-.266-1.146-.184-.777-.389-1.548-.607-2.38l-.368-1.207c-.109-.4-.28-.818-.423-1.227-.348-.955-.75-1.9-1.173-2.843a14.609,14.609,0,0,0,4.091-1.521,4.631,4.631,0,0,0,1.937-3.341,2.155,2.155,0,0,0-2.325-2.209c-1.807.2-3.409,3.082-3.709,4.671,0,.1-.13,1.268-.17,1.916-.259-.566-.518-1.132-.8-1.7-.811-1.63-1.677-3.253-2.537-4.875-.266-.5-.525-1-.784-1.5a14.9,14.9,0,0,0,4.207-1.555,4.462,4.462,0,0,0,1.977-3.232,2.155,2.155,0,0,0-2.325-2.2c-1.807.191-3.409,3.075-3.709,4.671,0,.116-.177,1.8-.2,2.23-.566-1.1-1.125-2.2-1.63-3.3a38.52,38.52,0,0,1-1.78-4.589,13.62,13.62,0,0,0,4.235-1.562,4.53,4.53,0,0,0,1.977-3.232,2.162,2.162,0,0,0-2.332-2.209c-1.807.2-3.409,3.082-3.7,4.671,0,.13-.191,1.937-.2,2.264a1.187,1.187,0,0,0-.1-.273,27.685,27.685,0,0,1-.921-4.841c-.1-.907-.15-1.773-.17-2.625a14.476,14.476,0,0,0,4.275-1.071,4.439,4.439,0,0,0,2.318-3,2.155,2.155,0,0,0-2.046-2.448c-1.821,0-3.7,2.693-4.2,4.235,0,.089-.211.975-.334,1.623v-1.146c0-1.364.089-2.639.17-3.757.055-.634.116-1.207.184-1.739a14.4,14.4,0,0,0,3.28-2.912,4.5,4.5,0,0,0,.682-3.73,2.155,2.155,0,0,0-2.966-1.214c-1.616.832-2.046,4.091-1.773,5.694a20.057,20.057,0,0,0,.682,2.243h0c-.068.511-.136,1.064-.2,1.671-.109,1.111-.225,2.373-.259,3.757a38.58,38.58,0,0,0,.109,4.466,28.331,28.331,0,0,0,.825,4.923v.061c-.286-.45-1.132-1.684-1.207-1.773-1.064-1.227-3.839-2.98-5.516-2.264a2.155,2.155,0,0,0-.955,3.062A4.327,4.327,0,0,0,116.954,406.915Z" transform="translate(-113.078 -383.025)" fill="#263238"/><path d="M162.339,401.741s.58-2.127.6-2.264c.225-1.609-.286-4.855-1.93-5.646a2.155,2.155,0,0,0-2.932,1.3,4.508,4.508,0,0,0,.777,3.709A16.044,16.044,0,0,0,162.339,401.741Z" transform="translate(-127.239 -386.403)" fill="#263238"/><path d="M348.59,410.454a13.271,13.271,0,0,0,3.907.43s-.593-1.814-.648-1.923c-.607-1.268-2.53-3.368-4.091-3.157a1.862,1.862,0,0,0-1.5,2.339A3.926,3.926,0,0,0,348.59,410.454Z" transform="translate(-187.13 -390.267)" fill="#263238"/><path d="M349.69,414.767a12.819,12.819,0,0,0,3.839-.607,34.09,34.09,0,0,0,1.5,4.153c.341.791.682,1.568,1.091,2.353-.232-.334-.43-.627-.464-.682-.927-1.071-3.334-2.584-4.773-1.971a1.868,1.868,0,0,0-.825,2.653,3.877,3.877,0,0,0,2.864,1.616,12.625,12.625,0,0,0,3.737-.573l.443.893c.682,1.425,1.432,2.843,2.1,4.262.232.5.443,1,.682,1.493l-.4-.573c-.927-1.064-3.334-2.584-4.773-1.971a1.868,1.868,0,0,0-.825,2.659,3.891,3.891,0,0,0,2.864,1.609,11.685,11.685,0,0,0,3.634-.546c.2.518.409,1.036.58,1.548.116.348.245.682.341,1.036s.191.682.293,1.05c.157.682.327,1.364.47,2.046.1.464.191.9.28,1.364-.225-.5-.682-1.466-.736-1.541-.75-1.193-2.9-3.055-4.432-2.666a1.862,1.862,0,0,0-1.221,2.5,3.967,3.967,0,0,0,2.584,2.046,13.083,13.083,0,0,0,3.873,0c.143.73.28,1.446.4,2.121.266,1.493.464,2.83.614,3.962h1.036c-.184-1.166-.416-2.564-.73-4.132-.143-.743-.314-1.541-.5-2.353a20.921,20.921,0,0,0,2.155-1.016,13.741,13.741,0,0,0,3.15,2.046c-.286.682-.566,1.364-.839,1.991-.573,1.316-1.118,2.489-1.6,3.478h1.118c.409-.914.866-1.957,1.364-3.116.293-.682.586-1.459.88-2.237a12.769,12.769,0,0,0,3.859.3,3.885,3.885,0,0,0,2.728-1.827,1.875,1.875,0,0,0-1.036-2.584c-1.493-.5-3.778,1.2-4.616,2.332-.048.068-.5.852-.784,1.364.123-.32.239-.627.361-.961.239-.648.457-1.3.682-2.012.1-.348.2-.682.314-1.043s.184-.73.28-1.1c.2-.852.368-1.725.511-2.612a12.4,12.4,0,0,0,3.662.839,3.981,3.981,0,0,0,2.98-1.364,1.868,1.868,0,0,0-.627-2.728c-1.4-.723-3.921.607-4.916,1.6-.068.061-.682.859-1.043,1.3.082-.539.17-1.071.239-1.609.191-1.568.341-3.157.5-4.773.048-.484.1-.968.15-1.452a12.86,12.86,0,0,0,3.784.886,3.968,3.968,0,0,0,2.98-1.364,1.868,1.868,0,0,0-.634-2.728c-1.364-.723-3.914.607-4.916,1.6-.075.075-.989,1.221-1.207,1.521.116-1.064.239-2.127.4-3.164a32.311,32.311,0,0,1,.907-4.173,13.151,13.151,0,0,0,3.8.893,3.957,3.957,0,0,0,2.98-1.364,1.868,1.868,0,0,0-.627-2.728c-1.4-.723-3.921.607-4.916,1.6-.082.082-1.064,1.309-1.227,1.548a1.079,1.079,0,0,1,.061-.245,24.252,24.252,0,0,1,1.657-3.941c.355-.682.736-1.364,1.125-1.984a12.471,12.471,0,0,0,3.607,1.268,3.838,3.838,0,0,0,3.109-1.057,1.875,1.875,0,0,0-.327-2.762c-1.316-.873-3.962.177-5.066,1.057-.055.048-.614.6-1.009,1.009.177-.28.355-.573.532-.832.682-1,1.364-1.868,1.923-2.632.341-.436.682-.818.961-1.173a12.246,12.246,0,0,0,3.764-.539,3.879,3.879,0,0,0,2.277-2.373,1.875,1.875,0,0,0-1.568-2.3c-1.568-.17-3.409,1.978-4,3.266-.055.116-.627,1.943-.6,1.943h.034c-.293.334-.614.682-.948,1.1-.614.757-1.3,1.616-1.984,2.6a32.853,32.853,0,0,0-2.046,3.28,24.758,24.758,0,0,0-1.759,3.962.17.17,0,0,1,0,.048v-1.855c-.184-1.364-1.364-4-2.912-4.282a1.868,1.868,0,0,0-2.148,1.759,3.8,3.8,0,0,0,1.493,2.925,13.027,13.027,0,0,0,3.546,1.616,32.82,32.82,0,0,0-1.043,4.289c-.15.846-.273,1.7-.389,2.557v-.8c-.184-1.4-1.364-4-2.9-4.282a1.868,1.868,0,0,0-2.155,1.759,3.873,3.873,0,0,0,1.5,2.918,12.952,12.952,0,0,0,3.409,1.589l-.123.989c-.191,1.582-.375,3.164-.6,4.712-.075.546-.177,1.077-.273,1.609v-.682c-.177-1.364-1.364-4-2.9-4.282a1.868,1.868,0,0,0-2.155,1.759,3.9,3.9,0,0,0,1.5,2.918,11.892,11.892,0,0,0,3.334,1.555c-.116.545-.232,1.091-.368,1.609-.1.355-.17.682-.293,1.057s-.225.682-.334,1.036c-.239.648-.477,1.323-.723,1.957-.17.436-.341.852-.511,1.275.089-.546.232-1.609.239-1.7a7.249,7.249,0,0,0-.975-3.525,2.783,2.783,0,0,0,0-.416,1.868,1.868,0,0,0-2.284-1.582c-1.527.4-2.5,3.082-2.564,4.487,0,.082.048.989.1,1.562-.082-.334-.15-.682-.232-1q-.245-1.023-.532-2.046c-.1-.341-.211-.682-.314-1.043s-.245-.682-.368-1.064c-.307-.825-.648-1.65-1.016-2.468a12.364,12.364,0,0,0,3.519-1.316,3.886,3.886,0,0,0,1.712-2.8,1.868,1.868,0,0,0-2.046-1.916c-1.568.171-2.932,2.673-3.212,4.05,0,.089-.116,1.1-.15,1.657-.225-.484-.45-.982-.682-1.466-.682-1.412-1.459-2.823-2.2-4.228-.232-.436-.45-.866-.682-1.3a12.71,12.71,0,0,0,3.648-1.364,3.92,3.92,0,0,0,1.712-2.8,1.868,1.868,0,0,0-2.046-1.916c-1.568.17-2.932,2.673-3.219,4.05,0,.1-.15,1.562-.164,1.937-.5-.955-.982-1.9-1.418-2.864A32.9,32.9,0,0,1,354,414.228a12.265,12.265,0,0,0,3.669-1.364,3.9,3.9,0,0,0,1.712-2.8,1.868,1.868,0,0,0-2.046-1.916c-1.568.17-2.932,2.673-3.212,4.05,0,.109-.164,1.684-.17,1.964,0-.075-.061-.157-.082-.232a24.146,24.146,0,0,1-.8-4.2c-.089-.784-.13-1.541-.15-2.277a12.594,12.594,0,0,0,3.7-.927,3.844,3.844,0,0,0,2.012-2.6,1.862,1.862,0,0,0-1.793-2.121c-1.582,0-3.2,2.332-3.641,3.675,0,.075-.184.839-.286,1.4v-.989c0-1.193.082-2.284.157-3.253.041-.552.1-1.05.15-1.514a12.44,12.44,0,0,0,2.844-2.523,3.88,3.88,0,0,0,.593-3.232,1.875,1.875,0,0,0-2.577-1.057c-1.4.723-1.766,3.546-1.534,4.937,0,.123.546,1.964.573,1.95h0c-.061.443-.123.921-.177,1.446-.1.968-.2,2.046-.225,3.259a32.736,32.736,0,0,0,.089,3.873,23.953,23.953,0,0,0,.723,4.275.169.169,0,0,0,0,.048c-.252-.389-.982-1.459-1.043-1.534-.927-1.064-3.334-2.584-4.773-1.971a1.875,1.875,0,0,0-.825,2.659A3.85,3.85,0,0,0,349.69,414.767Z" transform="translate(-187.268 -386.554)" fill="#263238"/><path d="M389.032,410.246s.5-1.841.518-1.957c.191-1.364-.252-4.214-1.671-4.9a1.868,1.868,0,0,0-2.543,1.125,3.87,3.87,0,0,0,.682,3.212A12.879,12.879,0,0,0,389.032,410.246Z" transform="translate(-199.54 -389.452)" fill="#263238"/><path d="M303.367,421.215a9.792,9.792,0,0,0,2.857.314s-.436-1.33-.47-1.4c-.443-.934-1.855-2.468-3-2.318a1.364,1.364,0,0,0-1.1,1.718,2.891,2.891,0,0,0,1.711,1.691Z" transform="translate(-172.947 -394.086)" fill="#263238"/><path d="M304.146,424.348a9.6,9.6,0,0,0,2.809-.443,24.317,24.317,0,0,0,1.1,3.041q.382.859.8,1.718c-.164-.245-.314-.457-.341-.484-.682-.784-2.434-1.9-3.5-1.439a1.364,1.364,0,0,0-.607,1.937,2.836,2.836,0,0,0,2.093,1.18,8.944,8.944,0,0,0,2.728-.416l.327.682c.525,1.043,1.05,2.046,1.534,3.116.17.361.327.73.484,1.1-.143-.218-.273-.4-.293-.423-.682-.777-2.441-1.889-3.5-1.439a1.364,1.364,0,0,0-.607,1.943,2.857,2.857,0,0,0,2.093,1.18,8.619,8.619,0,0,0,2.659-.4c.15.382.3.757.43,1.132.082.259.177.5.245.764s.143.511.211.771c.123.491.245,1,.348,1.487.075.334.143.682.2.982-.164-.368-.5-1.077-.539-1.132-.552-.873-2.127-2.237-3.246-1.95a1.364,1.364,0,0,0-.893,1.827,2.864,2.864,0,0,0,1.9,1.48,9.328,9.328,0,0,0,2.83,0c.109.539.211,1.064.293,1.555.191,1.091.341,2.046.45,2.9h.75c-.13-.859-.307-1.882-.532-3.028-.109-.546-.232-1.125-.368-1.725a14.7,14.7,0,0,0,1.582-.743,10.009,10.009,0,0,0,2.3,1.487c-.2.5-.409,1-.607,1.459-.423.961-.818,1.821-1.173,2.55h.846c.307-.682.634-1.439.982-2.284.211-.511.43-1.064.641-1.636a9.239,9.239,0,0,0,2.83.218,2.87,2.87,0,0,0,2-1.364,1.364,1.364,0,0,0-.757-1.889c-1.1-.368-2.768.873-3.409,1.7-.034.048-.368.621-.573.989.089-.232.177-.457.266-.682.17-.471.334-.955.5-1.473.075-.252.157-.5.232-.764s.136-.532.2-.8c.15-.627.273-1.268.375-1.916a9.088,9.088,0,0,0,2.68.614,2.851,2.851,0,0,0,2.182-1.016,1.364,1.364,0,0,0-.464-1.984c-1.023-.525-2.864.45-3.594,1.173-.048.048-.511.627-.764.955.061-.389.123-.777.17-1.18.143-1.146.252-2.3.368-3.464.034-.361.068-.716.109-1.064a9.547,9.547,0,0,0,2.768.648,2.884,2.884,0,0,0,2.182-1.023,1.364,1.364,0,0,0-.464-1.977c-1.023-.532-2.864.443-3.594,1.173-.061.055-.73.893-.886,1.112.082-.777.17-1.555.293-2.318a24.263,24.263,0,0,1,.682-3.055,9.6,9.6,0,0,0,2.789.682,2.857,2.857,0,0,0,2.175-1.023,1.364,1.364,0,0,0-.457-1.984c-1.03-.525-2.871.45-3.6,1.18-.055.055-.777.955-.893,1.125a.26.26,0,0,1,.048-.177,17.177,17.177,0,0,1,1.207-2.884c.259-.511.539-.989.825-1.446a9.24,9.24,0,0,0,2.639.927,2.885,2.885,0,0,0,2.278-.777,1.364,1.364,0,0,0-.239-2.046c-.968-.641-2.9.13-3.709.771-.041.034-.45.436-.743.736.13-.2.266-.416.4-.607.484-.73.968-1.364,1.4-1.93l.682-.859a9.142,9.142,0,0,0,2.728-.389,2.837,2.837,0,0,0,1.664-1.739,1.364,1.364,0,0,0-1.139-1.684c-1.152-.123-2.516,1.452-2.939,2.393,0,.082-.457,1.425-.43,1.425h0c-.218.252-.45.518-.682.811-.443.552-.948,1.18-1.452,1.9a26.186,26.186,0,0,0-1.507,2.4,18.155,18.155,0,0,0-1.234,2.857v-1.33c-.136-1.023-1-2.919-2.127-3.13a1.364,1.364,0,0,0-1.582,1.282,2.871,2.871,0,0,0,1.1,2.141,9.635,9.635,0,0,0,2.591,1.186,23.925,23.925,0,0,0-.757,3.137c-.109.621-.2,1.241-.286,1.875v-.593c-.136-1.023-1-2.925-2.128-3.13a1.364,1.364,0,0,0-1.582,1.289,2.837,2.837,0,0,0,1.1,2.141,9.131,9.131,0,0,0,2.509,1.159,6.532,6.532,0,0,1-.089.723c-.143,1.159-.273,2.318-.443,3.45-.055.4-.13.791-.2,1.18v-.511c-.13-1.023-.989-2.925-2.127-3.137a1.364,1.364,0,0,0-1.575,1.289,2.864,2.864,0,0,0,1.1,2.141,8.713,8.713,0,0,0,2.441,1.132c-.089.4-.17.8-.273,1.18-.068.259-.123.518-.211.771l-.245.764c-.177.477-.348.968-.532,1.432-.123.32-.245.62-.368.927.061-.4.164-1.173.17-1.241a5.339,5.339,0,0,0-.682-2.578,1.167,1.167,0,0,0,0-.307,1.364,1.364,0,0,0-1.671-1.159c-1.111.3-1.821,2.257-1.875,3.287,0,.061.034.723.068,1.146-.055-.245-.109-.484-.17-.73-.116-.491-.245-.982-.389-1.514-.075-.245-.15-.5-.232-.764s-.177-.518-.266-.777c-.218-.607-.477-1.207-.743-1.807a8.98,8.98,0,0,0,2.578-.961,2.891,2.891,0,0,0,1.255-2.046,1.364,1.364,0,0,0-1.48-1.4c-1.146.123-2.148,1.95-2.353,2.959,0,.068-.082.8-.109,1.214-.164-.355-.327-.716-.5-1.077-.511-1.03-1.064-2.046-1.609-3.089l-.5-.948a9.682,9.682,0,0,0,2.666-.989,2.857,2.857,0,0,0,1.255-2.046,1.364,1.364,0,0,0-1.473-1.4c-1.152.123-2.148,1.95-2.353,2.959,0,.082-.116,1.146-.123,1.418-.361-.682-.716-1.364-1.036-2.093a23.28,23.28,0,0,1-1.132-2.912,9.619,9.619,0,0,0,2.687-1,2.837,2.837,0,0,0,1.255-2.046,1.364,1.364,0,0,0-1.48-1.4c-1.146.13-2.141,1.957-2.353,2.966,0,.082-.116,1.227-.123,1.439a1.824,1.824,0,0,0-.061-.177,17.627,17.627,0,0,1-.58-3.075c-.068-.573-.1-1.125-.116-1.657a9.3,9.3,0,0,0,2.728-.682,2.857,2.857,0,0,0,1.473-1.9,1.364,1.364,0,0,0-1.316-1.555c-1.152,0-2.346,1.7-2.659,2.687,0,.055-.136.614-.211,1.03v-.73c0-.873.055-1.671.109-2.38.034-.4.075-.771.116-1.1a9.136,9.136,0,0,0,1.971-1.841,2.857,2.857,0,0,0,.43-2.366,1.364,1.364,0,0,0-1.882-.777c-1.023.532-1.3,2.6-1.125,3.614,0,.089.4,1.439.423,1.425h0c-.041.327-.089.682-.13,1.064-.068.682-.143,1.507-.164,2.387a25.234,25.234,0,0,0,.068,2.83,18.183,18.183,0,0,0,.525,3.13v.034c-.184-.286-.716-1.071-.764-1.125-.682-.777-2.441-1.889-3.5-1.439a1.364,1.364,0,0,0-.607,1.943A2.857,2.857,0,0,0,304.146,424.348Z" transform="translate(-173.023 -391.349)" fill="#263238"/><path d="M332.976,421.063s.368-1.364.382-1.439c.143-1.016-.184-3.075-1.227-3.58a1.364,1.364,0,0,0-1.855.825,2.864,2.864,0,0,0,.491,2.353,9.852,9.852,0,0,0,2.209,1.841Z" transform="translate(-182.044 -393.491)" fill="#263238"/></g><g transform="translate(53.099 37.379)"><path d="M389.251,69.806A11.149,11.149,0,0,0,406.83,81.4l4.316,4.132a2.666,2.666,0,0,0,.723,2.543l9.376,9.185a2.669,2.669,0,1,0,3.716-3.832l-9.4-9.192a2.673,2.673,0,0,0-2.6-.641l-4.221-4.064a10.965,10.965,0,0,0,2.141-4.269,11.157,11.157,0,0,0-21.636-5.455Zm19.7,4.95a9.158,9.158,0,1,1-6.642-11.115,9.158,9.158,0,0,1,6.642,11.115Z" transform="translate(-175.772 -61.375)" fill="none" stroke="#263238" stroke-miterlimit="10" stroke-width="1"/><path d="M83.609,271.8a8.38,8.38,0,0,0-1.6,15.745l-1.255,4.316a2,2,0,0,0-1.446,1.364l-2.9,9.458a2.015,2.015,0,1,0,3.866,1.139l2.878-9.458a1.984,1.984,0,0,0-.477-1.957l1.241-4.241a8.387,8.387,0,1,0-.286-16.365Zm3.532,14.865a5.71,5.71,0,1,1,.027,0Z" transform="translate(-76.339 -128.238)" fill="none" stroke="#263238" stroke-miterlimit="10" stroke-width="1"/></g><g transform="translate(58.521 19.06)"><path d="M408.916,179.75H389.141a4.841,4.841,0,0,0-4.841,4.841v10.944a4.841,4.841,0,0,0,4.841,4.841h13.774l-.682,6.819,6.41-6.819h.273a4.841,4.841,0,0,0,4.841-4.841V184.591a4.841,4.841,0,0,0-4.841-4.841Z" transform="translate(-179.727 -80.713)" fill="none" stroke="#263238" stroke-miterlimit="10" stroke-width="1"/><path d="M87.57,217.75h13.4a3.28,3.28,0,0,1,3.28,3.28v7.412a3.28,3.28,0,0,1-3.28,3.28H91.641l.484,4.61-4.371-4.61H87.57a3.28,3.28,0,0,1-3.28-3.28V221.03A3.28,3.28,0,0,1,87.57,217.75Z" transform="translate(-84.29 -92.801)" fill="none" stroke="#263238" stroke-miterlimit="10" stroke-width="1"/><path d="M232.82,34.51h13.4a3.28,3.28,0,0,1,3.28,3.28V45.2a3.28,3.28,0,0,1-3.28,3.28h-9.328l.484,4.61L233,48.482h-.184a3.28,3.28,0,0,1-3.28-3.28V37.79A3.28,3.28,0,0,1,232.82,34.51Z" transform="translate(-130.496 -34.51)" fill="none" stroke="#263238" stroke-miterlimit="10" stroke-width="1"/></g><g transform="translate(54.433 23.786)"><path d="M184.41,41.14,217.2,132.758l70.4-90.173" transform="translate(-96.205 -30.81)" fill="none" stroke="#263238" stroke-miterlimit="10" stroke-width="1"/><path d="M330.859,128.83,232.49,160.654l66.061,74.257" transform="translate(-111.5 -58.705)" fill="none" stroke="#263238" stroke-miterlimit="10" stroke-width="1"/><path d="M108.647,238.767l75.7-71.366L81.16,150.04" transform="translate(-63.36 -65.453)" fill="none" stroke="#263238" stroke-miterlimit="10" stroke-width="1"/><circle cx="9.969" cy="9.969" r="9.969" transform="translate(205.489 74.621) rotate(-62.37)" fill="#263238" stroke="#263238" stroke-miterlimit="10" stroke-width="0.5"/><path d="M400.116,143.69h-6.5a2.3,2.3,0,0,0-2.3,2.3v5.455a8.926,8.926,0,0,0,11.094-.089v-5.366a2.3,2.3,0,0,0-2.3-2.3Z" transform="translate(-177.873 -73.968)" fill="#f8951d" stroke="#263238" stroke-miterlimit="10" stroke-width="1"/><path d="M397.747,139.134a3.307,3.307,0,1,0-3.307-3.307A3.307,3.307,0,0,0,397.747,139.134Z" transform="translate(-178.865 -70.414)" fill="#f8951d" stroke="#263238" stroke-miterlimit="10" stroke-width="1"/><circle cx="9.969" cy="9.969" r="9.969" transform="matrix(0.386, -0.922, 0.922, 0.386, 175.019, 178.012)" fill="#263238" stroke="#263238" stroke-miterlimit="10" stroke-width="0.5"/><path d="M354.9,293.69h-6.5a2.291,2.291,0,0,0-2.3,2.291v5.455a8.926,8.926,0,0,0,11.094-.089v-5.366a2.291,2.291,0,0,0-2.3-2.291Z" transform="translate(-163.488 -121.685)" fill="#f8951d" stroke="#263238" stroke-miterlimit="10" stroke-width="1"/><path d="M352.457,289.124a3.307,3.307,0,1,0-3.307-3.307A3.307,3.307,0,0,0,352.457,289.124Z" transform="translate(-164.458 -118.128)" fill="#f8951d" stroke="#263238" stroke-miterlimit="10" stroke-width="1"/><circle cx="7.078" cy="7.078" r="7.078" transform="translate(80.698 2.611)" fill="#263238" stroke="#263238" stroke-miterlimit="10" stroke-width="0.5"/><path d="M207.549,55h-4.61a1.63,1.63,0,0,0-1.63,1.63v3.825a6.348,6.348,0,0,0,7.869-.061V56.6a1.63,1.63,0,0,0-1.63-1.6Z" transform="translate(-117.428 -45.754)" fill="#f8951d" stroke="#263238" stroke-miterlimit="10" stroke-width="1"/><path d="M205.906,51.711a2.346,2.346,0,1,0-2.346-2.346A2.346,2.346,0,0,0,205.906,51.711Z" transform="translate(-118.144 -43.216)" fill="#f8951d" stroke="#263238" stroke-miterlimit="10" stroke-width="1"/><circle cx="7.078" cy="7.078" r="7.078" transform="translate(34.943 175.964) rotate(-67.35)" fill="#263238" stroke="#263238" stroke-miterlimit="10" stroke-width="0.5"/><path d="M143.646,293.21h-4.61a1.63,1.63,0,0,0-1.637,1.637v3.866a6.328,6.328,0,0,0,7.876-.061v-3.8a1.63,1.63,0,0,0-1.63-1.637Z" transform="translate(-97.097 -121.532)" fill="#f8951d" stroke="#263238" stroke-miterlimit="10" stroke-width="1"/><path d="M141.966,289.971a2.346,2.346,0,1,0-2.346-2.346A2.346,2.346,0,0,0,141.966,289.971Z" transform="translate(-97.804 -119.009)" fill="#f8951d" stroke="#263238" stroke-miterlimit="10" stroke-width="1"/><circle cx="7.078" cy="7.078" r="7.078" transform="matrix(0.364, -0.931, 0.931, 0.364, 182.092, 13.184)" fill="#263238" stroke="#263238" stroke-miterlimit="10" stroke-width="0.5"/><path d="M359.336,54.19H354.72a1.63,1.63,0,0,0-1.63,1.63v3.873a6.355,6.355,0,0,0,7.876-.061V55.82A1.63,1.63,0,0,0,359.336,54.19Z" transform="translate(-165.711 -45.497)" fill="#f8951d" stroke="#263238" stroke-miterlimit="10" stroke-width="1"/><path d="M357.656,50.951a2.346,2.346,0,1,0-2.346-2.346,2.346,2.346,0,0,0,2.346,2.346Z" transform="translate(-166.417 -42.974)" fill="#f8951d" stroke="#263238" stroke-miterlimit="10" stroke-width="1"/><circle cx="12.922" cy="12.922" r="12.922" transform="translate(0 89.777) rotate(-67.12)" fill="#263238" stroke="#263238" stroke-miterlimit="10" stroke-width="0.5"/><path d="M104.091,161.73H95.67a2.98,2.98,0,0,0-2.98,2.973v7.064a11.592,11.592,0,0,0,14.374-.109V164.7A2.973,2.973,0,0,0,104.091,161.73Z" transform="translate(-82.874 -79.706)" fill="#f8951d" stroke="#263238" stroke-miterlimit="10" stroke-width="1"/><path d="M101,155.814a4.282,4.282,0,1,0-4.282-4.282A4.282,4.282,0,0,0,101,155.814Z" transform="translate(-84.156 -75.1)" fill="#f8951d" stroke="#263238" stroke-miterlimit="10" stroke-width="1"/></g><g transform="translate(69.513 27.415)"><path d="M144.3,77.445v-.123a9.3,9.3,0,0,0-6.307-7.814,8.9,8.9,0,0,0-5.305-.13,10.748,10.748,0,1,0-21.05-3.457h-.47A10.753,10.753,0,0,0,100.41,76.675a10.611,10.611,0,0,0,.382,2.85,5.96,5.96,0,0,0,5.762,4.3h31.762a5.967,5.967,0,0,0,5.98-6.382Z" transform="translate(-100.41 -49.571)" fill="none" stroke="#263238" stroke-miterlimit="10" stroke-width="1"/><path d="M392.942,242.131a.259.259,0,0,1,0-.068,5.026,5.026,0,0,0-3.409-4.228,4.773,4.773,0,0,0-2.864-.068A5.825,5.825,0,1,0,375.3,235.9h-.252a5.81,5.81,0,0,0-5.8,5.81,6,6,0,0,0,.2,1.534,3.218,3.218,0,0,0,3.109,2.332H389.7a3.218,3.218,0,0,0,3.246-3.444Z" transform="translate(-185.928 -105.107)" fill="none" stroke="#263238" stroke-miterlimit="10" stroke-width="1"/><path d="M171.846,319.266V319.2a5.019,5.019,0,0,0-3.409-4.228,4.773,4.773,0,0,0-2.864-.068,5.783,5.783,0,0,0,.211-2.182,5.864,5.864,0,0,0-5.639-5.257,5.8,5.8,0,0,0-5.932,5.571h-.252a5.8,5.8,0,0,0-5.81,5.81,5.707,5.707,0,0,0,.211,1.534,3.2,3.2,0,0,0,3.109,2.332h17.136a3.219,3.219,0,0,0,3.239-3.45Z" transform="translate(-115.597 -129.696)" fill="none" stroke="#263238" stroke-miterlimit="10" stroke-width="1"/><path d="M314.939,58.714a.192.192,0,0,0,0-.061,5.005,5.005,0,0,0-3.409-4.228,4.773,4.773,0,0,0-2.864-.075,5.612,5.612,0,0,0,.211-2.175,5.8,5.8,0,0,0-11.592.314h-.252a5.816,5.816,0,0,0-5.6,7.344,3.218,3.218,0,0,0,3.109,2.332h17.143a3.212,3.212,0,0,0,3.253-3.45Z" transform="translate(-161.113 -46.762)" fill="none" stroke="#263238" stroke-miterlimit="10" stroke-width="1"/></g><g transform="translate(70.168 19.076)"><circle cx="74.101" cy="74.101" r="74.101" transform="translate(0 104.795) rotate(-45)" fill="#fff" stroke="#263238" stroke-miterlimit="10" stroke-width="1"/><path d="M232.289,119.339l7.037,3.164,1.93,3.164,3.171,1.234.348,3.341-1.227,1.93-2.462.532-5.278-2.114v-.682l2.987-1.234-1.05-3.689-4.773-1.759-2.107-2.816Zm44.323,81.247-5.626-2.284-6.86-2.462h-5.455l-5.1-1.057-5.632,1.227-3.164.177h-1.93l-3.7,2.114-3.546,1.4-4.773-2.987,1.227-4.93-2.987-1.227h-3.519l-.525-1.582.348-3.171-1.227-1.752-2.462.348L221,186.164l-2.987.177-2.639-3.164-1.057-4.221,2.639-4.93,5.1.355,1.412,1.234h2.107l2.639-1.589,2.284.682,3.164,5.455,1.234-.177-.355-4.044-.989-2.087.348-3.341,6.505-2.816.88-6.505,2.816-2.291,2.284-4.044,1.759-.348,4.044-2.639.177-1.4-2.809.17-.532-1.4H247.1l-2.993.682,1.4-2.284,6.137-1.759,1.4-1.582,2.462,3.866,1.589,1.582,2.462-.682-1.057-2.284-3.7-2.639-4.221-4.773-4.391-2.993-4.221-.682-2.114-2.107-2.816-.682-.348.682-.355,5.1.682,1.752-1.582,5.632-3.5-2.8.525-2.462-3.682-1.773-1.6-1.9.88-4.391,5.1-3.7.355-4.221-1.937.177-1.234-1.582-.525-2.639-1.234-.177-.682,2.816-1.93.348-.88-6.137-1.432-.955-2.462-1.057-2.809,1.4,3.512,3.341.682,2.993-6.335-4.773-4.4-4.773-.348-4.773-4.548-1.309-3.519,2.291a28.581,28.581,0,0,1-2.618,1.4,28.974,28.974,0,0,1-4.221.682l-.682,2.993-4.044.17.355,1.937,6.505,1.057,3.341,3.689v6.137l-1.937,5.455.355,5.8-4.923,8.612-1.057,12.84,1.534,7.426,2.284,5.632,2.639.348-.88-2.809-1.4-2.114-.88-3.866,1.582-.355,2.462,6.335,1.759,5.626v4.569l3.341,4.05,5.98,4.391,9.144,2.468,2.816,2.632L227,197.947l3.171,1.937,3.866,1.05,3.866-.17s-.17,1.759-.17,2.639-2.462,3.866-2.462,3.866l-1.93,3.5,1.4,3.866,3.873,1.582,5.455,5.632,2.462,1.05v2.639l.307,1.227a73.793,73.793,0,0,0,36.876-17.361l.1-1.275,4.773-8.619-2.284-1.582Zm18.315-69.464-1.937-3.348-2.462-3.866-.682-5.278,3.164.532.177-1.759-2.291-.177,1.937-.88,2.114-1.227v-1.759l-2.114-2.816-.45-3.784a74.121,74.121,0,0,0-86.961-21.07l4.05,2.871-2.509,3.164-3.341.682-.348,4.773-1.412.525L200.1,99.626l.177,3.164,2.993.355-1.234,2.987h2.993l5.094-6.505.532-2.816,4.923-.348,1.227-2.114,5.1-.525.532-2.993,3.689-.17a18.4,18.4,0,0,1,3.171-1.412,21.493,21.493,0,0,1,2.987.88l2.639,2.114h3.7l3.164-1.937,4.044.355a4.357,4.357,0,0,0,1.937.682,15.531,15.531,0,0,0,3.519-1.234l5.094,3.164,2.114,1.589v2.632l2.639.355.88-1.582,2.284,1.057-.177,1.4-5.271,1.4L261.835,104l6.328,3.519,2.639,3.512,3.873.355.88-1.759,1.4-.355-4.575-3.512-2.809-.355,2.284-.682-2.107-2.993,2.987-.17,3.866,2.107.88,4.221,1.937,2.284,1.582,5.1,3.873,2.816v5.8l4.044,2.639-.177,1.937-.525,2.284,1.05,3.164.355,1.582,2.987.532,1.411-2.993Zm2.284-17.729V114.4l-.921,2.823.525,2.462,1.937.682v3.341l-2.107-.88-.518,9.526-2.107,3.866,1.4,4.93,2.284,2.107v9.5L300,160.143l2.462,5.626,4.044,1.057,1.4-3.519.573-.45a74.574,74.574,0,0,0,.573-9.212A73.773,73.773,0,0,0,297.184,113.4Zm-40.627-1.1-11.592-5.1-5.1.177-1.227,3.341-2.114-2.291-3.866.88-.355,5.81,3.164,2.284,2.291-3.341,2.591,2.618,5.455,4.773,1.057,5.1,4.569,5.8,7.392-1.227-.177-2.639-1.582-2.993-.348-7.03,1.759-2.993Zm9.5,3.866-2.639-.682-2.284,1.937,1.227,5.1h2.291Zm16.365,3.341-5.98-3.164-1.234-2.107-1.4.525,1.227,3.519,1.057,4.569,2.639,1.057.525-.682L277.7,120.58l4.575,1.759ZM231.1,182.993l-.682.682,5.278,1.582,2.114,2.462,3.341.355,1.227-1.937-4.044-.682Zm15.683,3.341-3.7,1.057.532,1.4h4.569l.88-1.4-1.582.17Z" transform="translate(-130.163 -48.848)" fill="#f8951d" stroke="#263238" stroke-miterlimit="10" stroke-width="1"/></g><g transform="translate(131.285 105.299)"><path d="M332,322.243a18.908,18.908,0,0,0,.682,5.68c.811,2.591,1.616,5.025,2.427,6s2.114-.648.975-2.6-.484-4.05.164-4.05,5.837,3.239,6.648,4.378,3.246,4.057,3.246,2.107-3.73-6-4.378-7.139-4.221-6-4.221-6Z" transform="translate(-235.849 -211.764)" fill="#fff" stroke="#263238" stroke-linejoin="round" stroke-width="1"/><path d="M309.407,298.74l3.246,4.385-6.164,3.4-2.918-3.566Z" transform="translate(-210.963 -194.269)" fill="#f8951d" stroke="#263238" stroke-linejoin="round" stroke-width="1"/><path d="M279.717,446.048s-2.434,5.353-3.409,6.819A4.731,4.731,0,0,1,272.9,455.3c-1.623.327-4.378.648-4.378,1.943a4.473,4.473,0,0,0,.682,2.271s7.623,1.623,10.228.975,5.189-4.221,5.189-4.221l1.623.975,4.7-4.541a14.879,14.879,0,0,0-1.643-4.548c-1.459-2.918-2.271-5.026-2.271-5.026S283.447,446.048,279.717,446.048Z" transform="translate(-215.66 -250.737)" fill="#616161" stroke="#263238" stroke-linejoin="round" stroke-width="1"/><path d="M290,452.47c-1.7,1.6-5.646,5.455-6.723,6.4-1.364,1.207-4.159,3.621-6.3,3.621-1.541,0-5.844-.621-8.183-.975a4.221,4.221,0,0,0,.436.961s7.624,1.623,10.228.975,5.189-4.221,5.189-4.221l1.623.975,4.705-4.541A12.384,12.384,0,0,0,290,452.47Z" transform="translate(-215.746 -253.708)" fill="none" stroke="#263238" stroke-linejoin="round" stroke-width="1"/><path d="M266.39,404.709a67.991,67.991,0,0,0,6.137,10.378c3.055,3.894,6.485,12.656,6.485,12.656s2.762.975,4.705-.491a7.964,7.964,0,0,0,2.6-3.887s-3.894-12.008-5.353-17.2-5.032-16.549-6.655-19.3A62.941,62.941,0,0,0,270.284,381s-1.787,10.706-2.6,14.756S266.39,404.709,266.39,404.709Z" transform="translate(-214.983 -230.972)" fill="#263238" stroke="#263238" stroke-linejoin="round" stroke-width="1"/><path d="M244.647,304.673l.164,10.378s-2.728,19.147-.484,28.878,5.837,20.457,5.837,20.457-1.78,17.845-2.434,22.223a105.973,105.973,0,0,1-3.409,12.656s4.705,2.434,5.516,2.434h1.623s4.862-13.14,5.837-15.09,4.378-5.673,5.516-13.788,1.466-16.556,1.466-16.556,8.108-10.385,10.058-13.638,5.026-9.9,5.026-9.9,3.573-9.246,3.082-18.165-3.239-13.46-3.239-13.46-15.9,3.73-23.361,3.73S244.647,304.673,244.647,304.673Z" transform="translate(-207.682 -205.555)" fill="#263238" stroke="#263238" stroke-linejoin="round" stroke-width="1"/><path d="M235.771,215.1s3.15,3.15,2.673,4.248-8.646,1.575-10.378,3.621-9.124,28-9.124,28-8.81-2.523-9.594-3.15-1.732-.157-2.2,1.732-5.189,6.137-4.562,7.235,9.28,5.346,13.529,6.451a53.677,53.677,0,0,0,7.876,1.412l-.627,8.026s8.019,4.562,23.593,2.516,22.039-5.346,22.039-5.346l-1.882-16.2s10.228,19.188,11.953,22.5,3.928,8.183,5.816,8.81,8.653-3.778,8.81-5.66-5.66-11.012-10.228-18.875-10.856-30.044-11.8-34.776-3.464-8.653-6.137-9.28-9.908-.634-13.058-1.262-7.548-5.816-9.594-12.424Z" transform="translate(-194.667 -174.246)" fill="#f8951d" stroke="#263238" stroke-miterlimit="10" stroke-width="1"/><path d="M243,241.043c.8-1.691,1.411-2.843,1.411-2.843" transform="translate(-207.542 -185.546)" fill="none" stroke="#263238" stroke-miterlimit="10" stroke-width="1"/><path d="M234,278.551s1.889-20.286,2.673-25.162a34.006,34.006,0,0,1,2.257-7.01" transform="translate(-204.679 -188.148)" fill="none" stroke="#263238" stroke-miterlimit="10" stroke-width="1"/><path d="M289.277,248.623c-.232-1.118-.45-2.216-.627-3.273" transform="translate(-222.064 -187.82)" fill="none" stroke="#263238" stroke-miterlimit="10" stroke-width="1"/><path d="M295.09,270.164s-2.612-7.739-4.5-15.554" transform="translate(-222.681 -190.766)" fill="none" stroke="#263238" stroke-miterlimit="10" stroke-width="1"/><path d="M249,220.7c.757,1.623,3.184,4.9,10.542,4.773a14.646,14.646,0,0,0,13.9-9.785,55.79,55.79,0,0,1-6.2-.6c-3.143-.627-7.548-5.816-9.594-12.424l-7.1,12.438s3.15,3.15,2.673,4.248C253.01,219.857,251.114,220.239,249,220.7Z" transform="translate(-209.451 -174.24)" fill="#fff" stroke="#263238" stroke-miterlimit="10" stroke-width="1"/><path d="M257.165,209.25l-2.141,1.364-3.744,6.56a17.394,17.394,0,0,1,2.359,2.953C257.165,215.932,257.165,209.25,257.165,209.25Z" transform="translate(-210.176 -176.336)" fill="#263238" stroke="#263238" stroke-linejoin="round" stroke-width="1"/><path d="M224.53,191.59a64.116,64.116,0,0,1,3.771,7.548,12.465,12.465,0,0,0,6.137,6.607c2.83,1.255,4.248,2.359,6.764,2.516,3.607.225,6.287-4.875,7.705-8.81a23.356,23.356,0,0,0,1.418-4.562,14.115,14.115,0,0,0,2.2-6.764c0-3.464-3.928-7.392-8.333-9.437s-7.392-5.032-11.953-.941S224.53,191.59,224.53,191.59Z" transform="translate(-201.666 -165.666)" fill="#fff" stroke="#263238" stroke-miterlimit="10" stroke-width="1"/><path d="M236.06,206.37a10.911,10.911,0,0,1,.627,2.83c0,1.1,1.418,1.575,2.673-.784" transform="translate(-205.334 -175.42)" fill="none" stroke="#263238" stroke-miterlimit="10" stroke-width="1"/><path d="M241.36,212.091s3.934.627,4.719-4.091" transform="translate(-207.02 -175.938)" fill="none" stroke="#263238" stroke-miterlimit="10" stroke-width="1"/><path d="M241.8,197.986c.368.627.382,1.3,0,1.514s-.941-.136-1.309-.764-.375-1.309,0-1.514S241.431,197.359,241.8,197.986Z" transform="translate(-206.655 -172.491)" fill="#263238"/><path d="M232.492,202.615c.368.627.382,1.309,0,1.514s-.941-.136-1.3-.764-.382-1.309,0-1.514S232.131,201.974,232.492,202.615Z" transform="translate(-203.696 -173.963)" fill="#263238"/><path d="M235.93,194.277s.682-2.468,5.107-2.141" transform="translate(-205.293 -170.882)" fill="none" stroke="#263238" stroke-miterlimit="10" stroke-width="1"/><path d="M230.011,198.92s-2.468,0-2.3,1.977" transform="translate(-202.674 -173.05)" fill="none" stroke="#263238" stroke-miterlimit="10" stroke-width="1"/><path d="M231.965,175.573s-2.046,2.359-4.4,4.719-6.287,5.823-6.287,10.065a28.893,28.893,0,0,0,.157,4.719s-6.764-3.457-8.653-8.183,2.359-15.574,7.548-20.457,11.326-5.816,18.09-5.346,13.529,7.235,15.261,14-1.732,14.156-2.837,15.411-4.562,1.418-4.562,1.418a15.923,15.923,0,0,0,.477-7.392c-.791-3.621-2.993-2.83-3.307-1.261s-.471,2.2-.471,2.2-3.143-2.2-6.451-4.562a14.108,14.108,0,0,1-4.562-5.332Z" transform="translate(-197.782 -160.981)" fill="#263238" stroke="#263238" stroke-linejoin="round" stroke-width="1"/><path d="M174.07,257.194l4.241-6.294,2.046,2.046Z" transform="translate(-169.767 -179.05)" fill="#f8951d" stroke="#263238" stroke-linejoin="round" stroke-width="1"/><path d="M187.057,238.058l-9.881.041-9.417-18.138,9.881-.041Z" transform="translate(-167.76 -169.195)" fill="#263238" stroke="#263238" stroke-linejoin="round" stroke-width="1"/><path d="M193.39,248.283s2.516,2.359,2.673,3.464,1.412,5.346,2.046,7.392a12.628,12.628,0,0,0,2.987,4.248l2.046-2.046-.791-3.464a30.167,30.167,0,0,1,2.359-1.889c.948-.627,2.046-2.359,1.418-2.359a8.454,8.454,0,0,0-1.418.164s1.418-2.2.477-2.359a12.652,12.652,0,0,0-1.889-.164s1.568-1.882.314-2.046-5.666,2.2-5.666,2.2l-1.882-2.837a3.409,3.409,0,0,0-2.673-.307Z" transform="translate(-191.76 -188.707)" fill="#fff" stroke="#263238" stroke-linejoin="round" stroke-width="1"/><path d="M194,245.019a.955.955,0,0,0,.43,1.657,1.78,1.78,0,0,0,1.725-.307c.784-.941,3.928-3.457,3.928-4.719s-1.411.157-2.046.477A32.138,32.138,0,0,0,194,245.019Z" transform="translate(-191.848 -186.48)" fill="#fff" stroke="#263238" stroke-linejoin="round" stroke-width="1"/><path d="M205.35,252.73s-4.719,2.359-5.51,3.307" transform="translate(-193.812 -190.168)" fill="none" stroke="#263238" stroke-linejoin="round" stroke-width="1"/><path d="M207.652,256.43s-3.771,1.725-5.032,3.143" transform="translate(-194.696 -191.345)" fill="none" stroke="#263238" stroke-linejoin="round" stroke-width="1"/><path d="M206.27,267.769l-2.2-1.889-6.764,6.607,4.562,3.464S206.113,271.86,206.27,267.769Z" transform="translate(-193.007 -194.351)" fill="#f8951d" stroke="#263238" stroke-linejoin="round" stroke-width="1"/><path d="M267.881,322.28s-7.3,17.19-8.926,24.357-4.705,20.763-4.705,21.575" transform="translate(-211.121 -212.292)" fill="none" stroke="#757575" stroke-linejoin="round" stroke-width="1"/><line x2="4.221" y2="4.862" transform="translate(46.211 114.856)" fill="none" stroke="#757575" stroke-linejoin="round" stroke-width="1"/><path d="M236.717,444.32s-.975,2.107-5.68,3.075-9.083-.8-9.894-.648-1.623,1.623-1.623,2.925,5.68,4.862,7.951,6a19.529,19.529,0,0,0,5.68,1.459h.8l-.157,1.623a30.63,30.63,0,0,0,4.05,1.3,12.787,12.787,0,0,0,3.737,0,30.237,30.237,0,0,0,.811-6.328,19.421,19.421,0,0,1,1.459-6.485Z" transform="translate(-200.073 -251.115)" fill="#616161" stroke="#263238" stroke-linejoin="round" stroke-width="1"/><path d="M242.077,459.764c-3.2-.416-9.1-1.364-12.676-2.728a48.633,48.633,0,0,1-9.84-5.646,3.235,3.235,0,0,0-.041.511c0,1.3,5.68,4.862,7.951,6a19.528,19.528,0,0,0,5.68,1.459h.8l-.157,1.623a30.63,30.63,0,0,0,4.05,1.3,12.785,12.785,0,0,0,3.737,0S241.845,461.243,242.077,459.764Z" transform="translate(-200.073 -253.364)" fill="none" stroke="#263238" stroke-linejoin="round" stroke-width="1"/></g></g></svg>