<svg xmlns="http://www.w3.org/2000/svg" width="250" height="196.599" viewBox="0 0 250 196.599"><g transform="translate(-69.41 -110.72)"><g transform="translate(69.41 110.72)"><path d="M159.054,127.969a.755.755,0,0,1-.754-.728v-9.067a.754.754,0,1,1,1.509,0v9.067a.754.754,0,0,1-.755.728Z" transform="translate(-98.419 -112.907)" fill="#f8951d"/><path d="M161.35,125.641h-9.04a.754.754,0,1,1,0-1.5h9.04a.754.754,0,1,1,0,1.5Z" transform="translate(-96.195 -115.098)" fill="#f8951d"/><path d="M399.094,289.222a.754.754,0,0,1-.754-.754v-7.033a.754.754,0,0,1,1.509,0v7.033A.754.754,0,0,1,399.094,289.222Z" transform="translate(-176.755 -166.186)" fill="#f8951d"/><path d="M400.907,287.409h-7.033a.754.754,0,0,1,0-1.509h7.033a.754.754,0,1,1,0,1.509Z" transform="translate(-175.051 -167.889)" fill="#f8951d"/><path d="M91.634,301.619a.755.755,0,0,1-.755-.754v-4.52a.754.754,0,1,1,1.509,0v4.52a.754.754,0,0,1-.754.754Z" transform="translate(-76.417 -171.051)" fill="#f8951d"/><path d="M92.72,300.451H88.2a.755.755,0,1,1,0-1.5h4.52a.754.754,0,1,1,0,1.5Z" transform="translate(-75.273 -172.146)" fill="#f8951d"/><path d="M118.426,141.685a.754.754,0,0,1-.748-.754v-4.52a.754.754,0,1,1,1.5,0v4.52A.754.754,0,0,1,118.426,141.685Z" transform="translate(-85.161 -118.834)" fill="#f8951d"/><path d="M119.595,140.549h-4.52a.754.754,0,1,1,0-1.509h4.52a.754.754,0,1,1,0,1.509Z" transform="translate(-84.066 -119.962)" fill="#f8951d"/><path d="M290.258,325.5a.755.755,0,0,1-.748-.754v-4.52a.755.755,0,0,1,1.5,0v4.52A.755.755,0,0,1,290.258,325.5Z" transform="translate(-141.239 -178.869)" fill="#f8951d"/><path d="M291.445,324.269h-4.52a.754.754,0,1,1,0-1.509h4.52a.755.755,0,1,1,0,1.509Z" transform="translate(-140.149 -179.918)" fill="#f8951d"/><path d="M391.412,178.864a2.762,2.762,0,1,1,2.762-2.762A2.762,2.762,0,0,1,391.412,178.864Zm0-4.042a1.25,1.25,0,1,1,0,.02Z" transform="translate(-173.592 -131.156)" fill="#f8951d"/><path d="M303.706,125.7a3.766,3.766,0,1,1,3.766-3.766,3.766,3.766,0,0,1-3.766,3.766Zm0-6.022a2.257,2.257,0,1,0,1.6.659,2.263,2.263,0,0,0-1.6-.659Z" transform="translate(-144.642 -113.151)" fill="#f8951d"/><path d="M206.8,309.091a3.766,3.766,0,1,1,3.766-3.766A3.766,3.766,0,0,1,206.8,309.091Zm0-6.029a2.263,2.263,0,1,0,2.263,2.263,2.263,2.263,0,0,0-2.263-2.263Z" transform="translate(-113.016 -173)" fill="#f8951d"/><g transform="translate(12.102 4.513)" opacity="0.5"><path d="M159.054,127.969a.755.755,0,0,1-.754-.728v-9.067a.754.754,0,1,1,1.509,0v9.067a.754.754,0,0,1-.755.728Z" transform="translate(-110.521 -117.42)" fill="#fff"/><path d="M161.35,125.641h-9.04a.754.754,0,1,1,0-1.5h9.04a.754.754,0,1,1,0,1.5Z" transform="translate(-108.296 -119.611)" fill="#fff"/><path d="M399.094,289.222a.754.754,0,0,1-.754-.754v-7.033a.754.754,0,0,1,1.509,0v7.033A.754.754,0,0,1,399.094,289.222Z" transform="translate(-188.857 -170.699)" fill="#fff"/><path d="M400.907,287.409h-7.033a.754.754,0,0,1,0-1.509h7.033a.754.754,0,1,1,0,1.509Z" transform="translate(-187.153 -172.403)" fill="#fff"/><path d="M91.634,301.619a.755.755,0,0,1-.755-.754v-4.52a.754.754,0,1,1,1.509,0v4.52a.754.754,0,0,1-.754.754Z" transform="translate(-88.518 -175.565)" fill="#fff"/><path d="M92.72,300.451H88.2a.755.755,0,1,1,0-1.5h4.52a.754.754,0,1,1,0,1.5Z" transform="translate(-87.374 -176.66)" fill="#fff"/><path d="M118.426,141.685a.754.754,0,0,1-.748-.754v-4.52a.754.754,0,1,1,1.5,0v4.52A.754.754,0,0,1,118.426,141.685Z" transform="translate(-97.263 -123.348)" fill="#fff"/><path d="M119.595,140.549h-4.52a.754.754,0,1,1,0-1.509h4.52a.754.754,0,1,1,0,1.509Z" transform="translate(-96.168 -124.476)" fill="#fff"/><path d="M290.258,325.5a.755.755,0,0,1-.748-.754v-4.52a.755.755,0,0,1,1.5,0v4.52A.755.755,0,0,1,290.258,325.5Z" transform="translate(-153.34 -183.383)" fill="#fff"/><path d="M291.445,324.269h-4.52a.754.754,0,1,1,0-1.509h4.52a.755.755,0,1,1,0,1.509Z" transform="translate(-152.25 -184.432)" fill="#fff"/><path d="M391.412,178.864a2.762,2.762,0,1,1,2.762-2.762A2.762,2.762,0,0,1,391.412,178.864Zm0-4.042a1.25,1.25,0,1,1,0,.02Z" transform="translate(-185.694 -135.669)" fill="#fff"/><path d="M303.706,125.7a3.766,3.766,0,1,1,3.766-3.766,3.766,3.766,0,0,1-3.766,3.766Zm0-6.022a2.257,2.257,0,1,0,1.6.659,2.263,2.263,0,0,0-1.6-.659Z" transform="translate(-156.744 -117.665)" fill="#fff"/><path d="M206.8,309.091a3.766,3.766,0,1,1,3.766-3.766A3.766,3.766,0,0,1,206.8,309.091Zm0-6.029a2.263,2.263,0,1,0,2.263,2.263,2.263,2.263,0,0,0-2.263-2.263Z" transform="translate(-125.118 -177.513)" fill="#fff"/></g><path d="M210.574,113.974l-1.058-3.254-1.058,3.254H205.03l2.769,2.014-1.058,3.26,2.775-2.014,2.769,2.014-1.058-3.26L214,113.974Z" transform="translate(-113.669 -110.72)" fill="#f8951d"/><path d="M227.551,113.974l-1.064-3.254-1.058,3.254H222l2.775,2.014-1.058,3.26,2.769-2.014,2.775,2.014-1.058-3.26,2.769-2.014Z" transform="translate(-119.207 -110.72)" fill="#f8951d"/><path d="M244.524,113.974l-1.058-3.254-1.058,3.254H238.98l2.769,2.014-1.058,3.26,2.775-2.014,2.769,2.014-1.058-3.26,2.775-2.014Z" transform="translate(-124.748 -110.72)" fill="#f8951d"/><path d="M261.5,113.974l-1.058-3.254-1.064,3.254H255.96l2.769,2.014-1.058,3.26,2.775-2.014,2.769,2.014-1.058-3.26,2.769-2.014Z" transform="translate(-130.29 -110.72)" fill="#f8951d"/><path d="M281.9,113.974h-3.429l-1.058-3.254-1.058,3.254H272.93l2.775,2.014-1.058,3.26,2.769-2.014,2.775,2.014-1.064-3.26Z" transform="translate(-135.828 -110.72)" fill="#f8951d"/><g transform="translate(91.361)" opacity="0.5"><path d="M210.574,113.974l-1.058-3.254-1.058,3.254H205.03l2.769,2.014-1.058,3.26,2.775-2.014,2.769,2.014-1.058-3.26L214,113.974Z" transform="translate(-205.03 -110.72)" fill="#fff"/><path d="M227.551,113.974l-1.064-3.254-1.058,3.254H222l2.775,2.014-1.058,3.26,2.769-2.014,2.775,2.014-1.058-3.26,2.769-2.014Z" transform="translate(-210.568 -110.72)" fill="#fff"/><path d="M244.524,113.974l-1.058-3.254-1.058,3.254H238.98l2.769,2.014-1.058,3.26,2.775-2.014,2.769,2.014-1.058-3.26,2.775-2.014Z" transform="translate(-216.109 -110.72)" fill="#fff"/><path d="M261.5,113.974l-1.058-3.254-1.064,3.254H255.96l2.769,2.014-1.058,3.26,2.775-2.014,2.769,2.014-1.058-3.26,2.769-2.014Z" transform="translate(-221.651 -110.72)" fill="#fff"/><path d="M281.9,113.974h-3.429l-1.058-3.254-1.058,3.254H272.93l2.775,2.014-1.058,3.26,2.769-2.014,2.775,2.014-1.064-3.26Z" transform="translate(-227.189 -110.72)" fill="#fff"/></g><path d="M404.535,301.026a17.086,17.086,0,0,0-7.181-2.3,29.916,29.916,0,0,1,12.348.99s-4.042-2.964-6.891-2.964-7.464-.33-7.464-.33c1.725-1.974,8.037-4.278,8.037-4.278a60.2,60.2,0,0,0-6.6.33c-2.021.33-2.58,2.634-2.58,2.634s-.579-1.347-4.884-2.3-5.45,2.3-5.45,2.3h4.042c1.435,0,3.442,1.974,3.442,1.974s-4.588,0-6.312.99c-1.482.849-3.368,4.372-3.887,5.342a112.944,112.944,0,0,1,5.012-17.825l.115-.088a35.463,35.463,0,0,0,4.042-3.24l4.85,8.084-.4-6.878s4.042,1.219,5.261,2.432,4.857,5.255,4.857,5.255-1.617-6.063-3.644-8.084a46.2,46.2,0,0,0-5.665-4.446s4.453,0,6.063.808,6.474,4.042,6.474,4.042-3.234-5.659-5.665-6.878-8.9-1.213-8.9-1.213,2.836-2.425,4.857-2.425h5.665s-1.623-4.042-7.686-2.829-6.878,2.829-6.878,2.829a4.741,4.741,0,0,0-3.644-3.24c-2.829-.411-9.3-.4-9.3-.4s8.9,2.836,11.324,5.261c0,0-6.474.4-10.516.4s-9.707,3.644-9.707,3.644a47.777,47.777,0,0,1,17.394-1.213s-6.063.4-10.1,2.829-8.084,8.084-8.084,8.084a20.762,20.762,0,0,1,8.5-4.857c4.85-1.213,11.728-2.829,11.728-2.829s-6.878,5.665-7.686,8.495a60.918,60.918,0,0,1-3.234,7.686,126.268,126.268,0,0,1,9.061-10.442,109.166,109.166,0,0,0-6.541,33.252c-1.2-4.911-4.716-15.07-13.85-20.156,1.731.472,4.231,1.159,6.245,1.738a14.5,14.5,0,0,1,6.029,3.948s-2.87-4.608-5.74-6.582a17.043,17.043,0,0,0-7.174-2.3,29.77,29.77,0,0,1,12.341.99s-4.042-2.964-6.892-2.964-7.464-.33-7.464-.33c1.725-1.974,8.043-4.278,8.043-4.278a61.615,61.615,0,0,0-6.609.323c-2.021.33-2.58,2.634-2.58,2.634s-.573-1.314-4.877-2.3-5.457,2.3-5.457,2.3h4.042c1.442,0,3.449,1.981,3.449,1.981s-4.594,0-6.319.984-4.042,5.6-4.042,5.6,3.442-2.634,4.594-3.294,4.3-.674,4.3-.674a33.868,33.868,0,0,0-4.042,3.618c-1.435,1.644-2.58,6.588-2.58,6.588s2.58-3.294,3.442-4.284,3.732-1.974,3.732-1.974l-.29,5.6,3.449-6.588a25.981,25.981,0,0,0,2.87,2.634c2.021,1.65,7.174,9.222,7.174,9.222a53.776,53.776,0,0,1-2.3-6.258c-.472-1.9-3.86-5.389-5.039-6.514,11.7,5.49,14.82,19.314,15.359,22.507h-4.85l1.071,9.431h8.542l1.064-9.431h-5.019a42.231,42.231,0,0,1,4.19-12.8c-.141.546-.229.9-.229.9s2.587-3.294,3.449-4.278,3.732-1.981,3.732-1.981l-.29,5.6,3.442-6.582a26.868,26.868,0,0,0,2.87,2.634c2.021,1.644,7.181,9.216,7.181,9.216a53.49,53.49,0,0,1-2.3-6.251c-.573-2.311-5.457-6.918-5.457-6.918s4.884,1.347,8.326,2.3a14.194,14.194,0,0,1,6.029,3.954S407.425,303.006,404.535,301.026Zm-25.228,17.751a102.035,102.035,0,0,1,1.785-15.191c.539-.411,3.456-2.621,4.493-3.213,1.152-.674,4.3-.674,4.3-.674a34.03,34.03,0,0,0-4.042,3.618,11.215,11.215,0,0,0-1.63,3.321,38.009,38.009,0,0,0-4.891,12.139Z" transform="translate(-160.274 -162.475)" fill="#f8951d"/><path d="M404.535,301.026a17.086,17.086,0,0,0-7.181-2.3,29.916,29.916,0,0,1,12.348.99s-4.042-2.964-6.891-2.964-7.464-.33-7.464-.33c1.725-1.974,8.037-4.278,8.037-4.278a60.2,60.2,0,0,0-6.6.33c-2.021.33-2.58,2.634-2.58,2.634s-.579-1.347-4.884-2.3-5.45,2.3-5.45,2.3h4.042c1.435,0,3.442,1.974,3.442,1.974s-4.588,0-6.312.99c-1.482.849-3.368,4.372-3.887,5.342a112.944,112.944,0,0,1,5.012-17.825l.115-.088a35.463,35.463,0,0,0,4.042-3.24l4.85,8.084-.4-6.878s4.042,1.219,5.261,2.432,4.857,5.255,4.857,5.255-1.617-6.063-3.644-8.084a46.2,46.2,0,0,0-5.665-4.446s4.453,0,6.063.808,6.474,4.042,6.474,4.042-3.234-5.659-5.665-6.878-8.9-1.213-8.9-1.213,2.836-2.425,4.857-2.425h5.665s-1.623-4.042-7.686-2.829-6.878,2.829-6.878,2.829a4.741,4.741,0,0,0-3.644-3.24c-2.829-.411-9.3-.4-9.3-.4s8.9,2.836,11.324,5.261c0,0-6.474.4-10.516.4s-9.707,3.644-9.707,3.644a47.777,47.777,0,0,1,17.394-1.213s-6.063.4-10.1,2.829-8.084,8.084-8.084,8.084a20.762,20.762,0,0,1,8.5-4.857c4.85-1.213,11.728-2.829,11.728-2.829s-6.878,5.665-7.686,8.495a60.918,60.918,0,0,1-3.234,7.686,126.268,126.268,0,0,1,9.061-10.442,109.166,109.166,0,0,0-6.541,33.252c-1.2-4.911-4.716-15.07-13.85-20.156,1.731.472,4.231,1.159,6.245,1.738a14.5,14.5,0,0,1,6.029,3.948s-2.87-4.608-5.74-6.582a17.043,17.043,0,0,0-7.174-2.3,29.77,29.77,0,0,1,12.341.99s-4.042-2.964-6.892-2.964-7.464-.33-7.464-.33c1.725-1.974,8.043-4.278,8.043-4.278a61.615,61.615,0,0,0-6.609.323c-2.021.33-2.58,2.634-2.58,2.634s-.573-1.314-4.877-2.3-5.457,2.3-5.457,2.3h4.042c1.442,0,3.449,1.981,3.449,1.981s-4.594,0-6.319.984-4.042,5.6-4.042,5.6,3.442-2.634,4.594-3.294,4.3-.674,4.3-.674a33.868,33.868,0,0,0-4.042,3.618c-1.435,1.644-2.58,6.588-2.58,6.588s2.58-3.294,3.442-4.284,3.732-1.974,3.732-1.974l-.29,5.6,3.449-6.588a25.981,25.981,0,0,0,2.87,2.634c2.021,1.65,7.174,9.222,7.174,9.222a53.776,53.776,0,0,1-2.3-6.258c-.472-1.9-3.86-5.389-5.039-6.514,11.7,5.49,14.82,19.314,15.359,22.507h-4.85l1.071,9.431h8.542l1.064-9.431h-5.019a42.231,42.231,0,0,1,4.19-12.8c-.141.546-.229.9-.229.9s2.587-3.294,3.449-4.278,3.732-1.981,3.732-1.981l-.29,5.6,3.442-6.582a26.868,26.868,0,0,0,2.87,2.634c2.021,1.644,7.181,9.216,7.181,9.216a53.49,53.49,0,0,1-2.3-6.251c-.573-2.311-5.457-6.918-5.457-6.918s4.884,1.347,8.326,2.3a14.194,14.194,0,0,1,6.029,3.954S407.425,303.006,404.535,301.026Zm-25.228,17.751a102.035,102.035,0,0,1,1.785-15.191c.539-.411,3.456-2.621,4.493-3.213,1.152-.674,4.3-.674,4.3-.674a34.03,34.03,0,0,0-4.042,3.618,11.215,11.215,0,0,0-1.63,3.321,38.009,38.009,0,0,0-4.891,12.139Z" transform="translate(-160.274 -162.475)" fill="#fff" opacity="0.4"/><path d="M126.125,301.026a17.086,17.086,0,0,0-7.181-2.3,29.917,29.917,0,0,1,12.348.99s-4.042-2.964-6.891-2.964-7.464-.33-7.464-.33c1.725-1.974,8.037-4.278,8.037-4.278a60.2,60.2,0,0,0-6.6.33c-2.021.33-2.58,2.634-2.58,2.634s-.579-1.347-4.884-2.3-5.457,2.3-5.457,2.3h4.042c1.435,0,3.442,1.974,3.442,1.974s-4.588,0-6.312.99c-1.482.849-3.368,4.372-3.887,5.342a112.21,112.21,0,0,1,5.012-17.825l.115-.088a36.3,36.3,0,0,0,4.042-3.24l4.85,8.084-.4-6.878s4.042,1.219,5.261,2.432,4.857,5.255,4.857,5.255-1.624-6.063-3.644-8.084a46.194,46.194,0,0,0-5.665-4.446s4.453,0,6.063.808,6.474,4.042,6.474,4.042-3.234-5.659-5.665-6.878-8.9-1.213-8.9-1.213,2.829-2.425,4.857-2.425h5.665s-1.624-4.042-7.693-2.829-6.871,2.829-6.871,2.829a4.741,4.741,0,0,0-3.644-3.24c-2.829-.411-9.3-.4-9.3-.4s8.9,2.836,11.324,5.261c0,0-6.474.4-10.516.4s-9.714,3.644-9.714,3.644a47.826,47.826,0,0,1,17.4-1.213s-6.063.4-10.1,2.829-8.084,8.084-8.084,8.084a20.762,20.762,0,0,1,8.5-4.857c4.85-1.213,11.728-2.829,11.728-2.829s-6.878,5.665-7.686,8.495a60.914,60.914,0,0,1-3.234,7.686,126.27,126.27,0,0,1,9.061-10.442,109.165,109.165,0,0,0-6.555,33.252c-1.2-4.911-4.716-15.07-13.85-20.156,1.731.472,4.231,1.159,6.245,1.738a14.739,14.739,0,0,1,6.063,3.948s-2.87-4.608-5.74-6.582a17.043,17.043,0,0,0-7.174-2.3A29.769,29.769,0,0,1,98.1,297.287s-4.042-2.964-6.891-2.964-7.451-.3-7.451-.3c1.725-1.974,8.037-4.278,8.037-4.278a61.5,61.5,0,0,0-6.6.323c-2.007.3-2.587,2.607-2.587,2.607s-.573-1.314-4.884-2.3-5.443,2.3-5.443,2.3h4.042c1.435,0,3.449,1.981,3.449,1.981s-4.594,0-6.319.984-4.042,5.6-4.042,5.6,3.442-2.634,4.594-3.294,4.3-.674,4.3-.674a33.867,33.867,0,0,0-4.042,3.618c-1.435,1.644-2.58,6.588-2.58,6.588s2.58-3.294,3.442-4.284,3.732-1.974,3.732-1.974l-.3,5.6,3.449-6.588a25.169,25.169,0,0,0,2.87,2.634c2.021,1.65,7.174,9.222,7.174,9.222a53.771,53.771,0,0,1-2.3-6.258c-.472-1.9-3.86-5.389-5.046-6.514,11.708,5.49,14.82,19.314,15.366,22.507h-4.85l1.071,9.431h8.542l1.064-9.431H100.89a42.232,42.232,0,0,1,4.19-12.8c-.141.546-.229.9-.229.9s2.587-3.294,3.449-4.278,3.732-1.981,3.732-1.981l-.29,5.6,3.442-6.582a26.857,26.857,0,0,0,2.87,2.634c2.021,1.644,7.181,9.216,7.181,9.216a53.485,53.485,0,0,1-2.3-6.251c-.573-2.311-5.457-6.918-5.457-6.918s4.884,1.347,8.326,2.3a14.426,14.426,0,0,1,6.063,3.954S128.995,303.006,126.125,301.026ZM100.9,318.776a102.029,102.029,0,0,1,1.785-15.191c.539-.411,3.456-2.621,4.493-3.213,1.152-.674,4.3-.674,4.3-.674a34.032,34.032,0,0,0-4.042,3.618,11.216,11.216,0,0,0-1.63,3.321,38.008,38.008,0,0,0-4.911,12.139Z" transform="translate(-69.41 -162.475)" fill="#f8951d"/><path d="M126.125,301.026a17.086,17.086,0,0,0-7.181-2.3,29.917,29.917,0,0,1,12.348.99s-4.042-2.964-6.891-2.964-7.464-.33-7.464-.33c1.725-1.974,8.037-4.278,8.037-4.278a60.2,60.2,0,0,0-6.6.33c-2.021.33-2.58,2.634-2.58,2.634s-.579-1.347-4.884-2.3-5.457,2.3-5.457,2.3h4.042c1.435,0,3.442,1.974,3.442,1.974s-4.588,0-6.312.99c-1.482.849-3.368,4.372-3.887,5.342a112.21,112.21,0,0,1,5.012-17.825l.115-.088a36.3,36.3,0,0,0,4.042-3.24l4.85,8.084-.4-6.878s4.042,1.219,5.261,2.432,4.857,5.255,4.857,5.255-1.624-6.063-3.644-8.084a46.194,46.194,0,0,0-5.665-4.446s4.453,0,6.063.808,6.474,4.042,6.474,4.042-3.234-5.659-5.665-6.878-8.9-1.213-8.9-1.213,2.829-2.425,4.857-2.425h5.665s-1.624-4.042-7.693-2.829-6.871,2.829-6.871,2.829a4.741,4.741,0,0,0-3.644-3.24c-2.829-.411-9.3-.4-9.3-.4s8.9,2.836,11.324,5.261c0,0-6.474.4-10.516.4s-9.714,3.644-9.714,3.644a47.826,47.826,0,0,1,17.4-1.213s-6.063.4-10.1,2.829-8.084,8.084-8.084,8.084a20.762,20.762,0,0,1,8.5-4.857c4.85-1.213,11.728-2.829,11.728-2.829s-6.878,5.665-7.686,8.495a60.914,60.914,0,0,1-3.234,7.686,126.27,126.27,0,0,1,9.061-10.442,109.165,109.165,0,0,0-6.555,33.252c-1.2-4.911-4.716-15.07-13.85-20.156,1.731.472,4.231,1.159,6.245,1.738a14.739,14.739,0,0,1,6.063,3.948s-2.87-4.608-5.74-6.582a17.043,17.043,0,0,0-7.174-2.3A29.769,29.769,0,0,1,98.1,297.287s-4.042-2.964-6.891-2.964-7.451-.3-7.451-.3c1.725-1.974,8.037-4.278,8.037-4.278a61.5,61.5,0,0,0-6.6.323c-2.007.3-2.587,2.607-2.587,2.607s-.573-1.314-4.884-2.3-5.443,2.3-5.443,2.3h4.042c1.435,0,3.449,1.981,3.449,1.981s-4.594,0-6.319.984-4.042,5.6-4.042,5.6,3.442-2.634,4.594-3.294,4.3-.674,4.3-.674a33.867,33.867,0,0,0-4.042,3.618c-1.435,1.644-2.58,6.588-2.58,6.588s2.58-3.294,3.442-4.284,3.732-1.974,3.732-1.974l-.3,5.6,3.449-6.588a25.169,25.169,0,0,0,2.87,2.634c2.021,1.65,7.174,9.222,7.174,9.222a53.771,53.771,0,0,1-2.3-6.258c-.472-1.9-3.86-5.389-5.046-6.514,11.708,5.49,14.82,19.314,15.366,22.507h-4.85l1.071,9.431h8.542l1.064-9.431H100.89a42.232,42.232,0,0,1,4.19-12.8c-.141.546-.229.9-.229.9s2.587-3.294,3.449-4.278,3.732-1.981,3.732-1.981l-.29,5.6,3.442-6.582a26.857,26.857,0,0,0,2.87,2.634c2.021,1.644,7.181,9.216,7.181,9.216a53.485,53.485,0,0,1-2.3-6.251c-.573-2.311-5.457-6.918-5.457-6.918s4.884,1.347,8.326,2.3a14.426,14.426,0,0,1,6.063,3.954S128.995,303.006,126.125,301.026ZM100.9,318.776a102.029,102.029,0,0,1,1.785-15.191c.539-.411,3.456-2.621,4.493-3.213,1.152-.674,4.3-.674,4.3-.674a34.032,34.032,0,0,0-4.042,3.618,11.216,11.216,0,0,0-1.63,3.321,38.008,38.008,0,0,0-4.911,12.139Z" transform="translate(-69.41 -162.475)" fill="#fff" opacity="0.4"/></g><g transform="translate(89.04 143.989)"><ellipse cx="19.085" cy="7.531" rx="19.085" ry="7.531" transform="translate(4.345 139.233)" fill="#f8951d"/><ellipse cx="19.085" cy="7.531" rx="19.085" ry="7.531" transform="translate(4.345 139.233)" fill="#fff" opacity="0.5"/><path d="M108.325,197.2a6.561,6.561,0,0,0-2.183,2.189c-.728,1.347-4.978,13.588-6.312,16.377s-1.94,3.759-.243,4.716,3.887-.485,5.342-3.153a96.439,96.439,0,0,0,4.608-11.769C110.022,203.862,111.72,197.443,108.325,197.2Z" transform="translate(-98.55 -172.212)" fill="#f8951d" stroke="#263238" stroke-linecap="round" stroke-linejoin="round" stroke-width="1"/><path d="M151.241,360.65l1,7.188-.674.33-2-3.84Z" transform="translate(-115.2 -225.553)" fill="#263238" stroke="#263238" stroke-linecap="round" stroke-linejoin="round" stroke-width="1"/><path d="M121.29,296.17s2.176,10.354,4.345,17.037,9.189,22.231,9.694,24.925-.168,2.695-.168,4.844-3,4.513-3.173,5.679,2.169,1.347,4.345.674S140,346.822,140,345.286s2.021-4.177,2.021-5.679-2.506-1.671-2.695-4.513-1.172-13.028-2.843-19.044-3.368-9.189-4.675-10.859-3-5.517-2.695-6.851S121.29,296.17,121.29,296.17Z" transform="translate(-105.971 -204.51)" fill="#fff" stroke="#263238" stroke-linecap="round" stroke-linejoin="round" stroke-width="1"/><path d="M145.189,365.608c0-1.5,2.021-4.177,2.021-5.679,0-.633-.445-1.031-.977-1.489-.741,1.987-2.25,5.43-4.54,7.336-1.421,1.192-2.358,1.172-2.951.829a7.7,7.7,0,0,0-1.556,2.344c-.168,1.172,2.169,1.347,4.345.674S145.189,367.117,145.189,365.608Z" transform="translate(-111.156 -224.832)" fill="#263238" stroke="#263238" stroke-linecap="round" stroke-linejoin="round" stroke-width="1"/><path d="M122.717,299.64s-.674,5.51-.674,9.02-2.021,26.65-2.695,31.076c-.626,4.3-1.839,6.184-2.506,8.522s-1.347,4.85-2.506,5.517,0,1.347,2.021,1.165,4.042-1.165,4.177-3,1.758-3.456,2.843-4.177c2.021-1.347-.5-5.349,2.338-14.039,1.253-3.813,4.345-8.852,5.012-14.7s-.5-11.2-.5-12.53a56.184,56.184,0,0,1,1.172-6.353Z" transform="translate(-103.552 -205.643)" fill="#fff" stroke="#263238" stroke-linecap="round" stroke-linejoin="round" stroke-width="1"/><path d="M123.906,369.206c2.169-.829.593-2.695.411-4.716-1.745,1.691-4.076,6.063-5.436,7.41a2.85,2.85,0,0,1-2.971.626,4.577,4.577,0,0,1-1.536,2.385c-1.172.674,0,1.347,2.021,1.165s4.042-1.165,4.177-3S122.687,369.67,123.906,369.206Z" transform="translate(-103.562 -226.806)" fill="#263238" stroke="#263238" stroke-linecap="round" stroke-linejoin="round" stroke-width="1"/><path d="M128.261,369.076l.519,7.356h-1.347l-1.172-5.012S127.432,368.915,128.261,369.076Z" transform="translate(-107.593 -228.3)" fill="#263238" stroke="#263238" stroke-linecap="round" stroke-linejoin="round" stroke-width="1"/><path d="M120.308,195.389l-5.093,1.94a76.593,76.593,0,0,0-3.759,11.526c-.97,4.85.364,9.829,1.347,12.86s2.183,20.506,2.695,27.175,1.415,16.289,1.415,16.289a16.432,16.432,0,0,0,6.555,2.553c4.372.849,10.556-.485,10.556-.485s3.638-10.556,4.365-16.747-5.342-16.255-7.282-20.621-2.695-11.4-2.3-13.473,4.972-17.71,3.368-18.445S124.923,195.119,120.308,195.389Z" transform="translate(-102.652 -171.613)" fill="#263238" stroke="#263238" stroke-linecap="round" stroke-linejoin="round" stroke-width="1"/><path d="M123.228,189.1s-.485,3.368-.849,4.85-3.153,6.555-2.061,8.758,4.716,2.183,6.312-1.576A21.011,21.011,0,0,0,127.978,193l.606-3.638S124.69,190.676,123.228,189.1Z" transform="translate(-105.572 -169.568)" fill="#fff" stroke="#263238" stroke-linecap="round" stroke-linejoin="round" stroke-width="1"/><path d="M138.236,174.3a2.519,2.519,0,0,0-2.9-1.132c2.2-1.812,3.584-4.749,1.435-8.939-2.695-5.221-8.973-4-8.973-4a6.629,6.629,0,0,0-5.948,3.153c-2.183,3.516-.97,8.367.849,9.707,1.684,1.226,6.966,2.553,10.159,1.516-1.866,1.933-3.072,4.716-1.347,7.141a4.042,4.042,0,0,0,6.5.438C140.176,179.638,139.57,176.607,138.236,174.3Z" transform="translate(-105.773 -160.107)" fill="#263238" stroke="#263238" stroke-linecap="round" stroke-linejoin="round" stroke-width="1"/><path d="M123.382,179.134s-1.462-2.412-1.832-.748a3.228,3.228,0,0,0,.815,3.227,1.347,1.347,0,0,0,.957.2" transform="translate(-106.022 -165.881)" fill="#fff" stroke="#263238" stroke-linecap="round" stroke-linejoin="round" stroke-width="1"/><path d="M123.84,171.644s-2.189,8.98.849,12.126,6.427-1.94,9.216-5.82l.849-2.546a32.814,32.814,0,0,0-2.3-3.644A14.073,14.073,0,0,1,130.388,168S127.236,172.042,123.84,171.644Z" transform="translate(-106.554 -162.683)" fill="#fff" stroke="#263238" stroke-linecap="round" stroke-linejoin="round" stroke-width="1"/><path d="M137.391,182.622s2.526-1.26,1.947.344a3.235,3.235,0,0,1-2.4,2.3,1.4,1.4,0,0,1-.923-.344" transform="translate(-110.775 -167.301)" fill="#fff" stroke="#263238" stroke-linecap="round" stroke-linejoin="round" stroke-width="1"/><path d="M131.76,177.956a2.8,2.8,0,0,1,3.328-.115" transform="translate(-109.388 -165.734)" fill="none" stroke="#263238" stroke-miterlimit="10" stroke-width="0.5"/><path d="M127.924,175.929s-1.26-1.347-2.634-.8" transform="translate(-107.277 -164.966)" fill="none" stroke="#263238" stroke-miterlimit="10" stroke-width="0.5"/><line x2="0.802" y2="0.35" transform="translate(20.189 16.696)" fill="none" stroke="#263238" stroke-miterlimit="10" stroke-width="0.5"/><path d="M126.65,186.77a3.907,3.907,0,0,0,2.984.458" transform="translate(-107.72 -168.808)" fill="none" stroke="#263238" stroke-miterlimit="10" stroke-width="0.5"/><path d="M127.4,178.965a2.021,2.021,0,1,1-1.165-2.459A1.927,1.927,0,0,1,127.4,178.965Z" transform="translate(-106.676 -165.409)" fill="none" stroke="#263238" stroke-miterlimit="10" stroke-width="0.5"/><path d="M134.385,180.844a2.021,2.021,0,1,1-1.159-2.459,1.927,1.927,0,0,1,1.159,2.459Z" transform="translate(-108.954 -166.021)" fill="none" stroke="#263238" stroke-miterlimit="10" stroke-width="0.5"/><line x2="0.957" y2="0.276" transform="translate(20.762 13.024)" fill="none" stroke="#263238" stroke-miterlimit="10" stroke-width="0.5"/><line x2="1.947" y2="0.229" transform="translate(25.471 14.405)" fill="none" stroke="#263238" stroke-miterlimit="10" stroke-width="0.5"/><path d="M118.265,196.3a57.887,57.887,0,0,0-4.379,12.375c-1.213,6.063-1.091,17.353-.849,21.719s0,16.841,0,16.841l-5.578-2.425a105.083,105.083,0,0,1,1.213-12.981,72.593,72.593,0,0,0,.97-14.315c-.121-2.789-1.347-6.8-.606-10.556s1.819-9.707,2.183-10.1S118.265,196.3,118.265,196.3Z" transform="translate(-101.458 -171.918)" fill="#f8951d" stroke="#263238" stroke-linecap="round" stroke-linejoin="round" stroke-width="1"/><path d="M129.932,195.94s-2.183,8.616-3.516,16.5,1.94,34.356,1.94,34.356a55.447,55.447,0,0,0,7.033-.849,23.072,23.072,0,0,0,7.888-2.425s-3.153-8.01-5.221-12.126-3.638-7.41-3.638-7.41a25.1,25.1,0,0,1,.606-9.431c1.347-4.978,4.978-15.164,3.516-16.383S129.932,195.94,129.932,195.94Z" transform="translate(-107.54 -171.801)" fill="#f8951d" stroke="#263238" stroke-linecap="round" stroke-linejoin="round" stroke-width="1"/><path d="M130.594,203.068s-1.347,6.063-1.819,8.852-1.455,6.918-1.455,6.918-8.495.364-10.556.242-4.244-.121-4.244-.121l.728,3.88a86.733,86.733,0,0,0,11.041,3.153c4.251.728,6.548,1.826,7.275.492s3.159-15.049,4.042-20.264,1.455-6.427-2.189-7.41" transform="translate(-103.109 -172.737)" fill="none" stroke="#263238" stroke-linecap="round" stroke-linejoin="round" stroke-width="1"/><path d="M126.558,223.505s4.608-.606,4.972-.728,5.093,1.94,5.093,1.94-.243.606-.606.728-3.274-1.347-3.274-1.347l-.485.121,3.638,2.425s.485.606,0,.849-4.365-2.3-4.365-2.3l3.368,3.274a1.192,1.192,0,0,1-1.347,0c-.606-.485-1.94-1.819-1.94-1.819s1.455,1.7.728,1.819-2.061-1.94-2.061-1.94l-2.183-.364-2.3-.243Z" transform="translate(-107.44 -180.557)" fill="#fff" stroke="#263238" stroke-linecap="round" stroke-linejoin="round" stroke-width="1"/><path d="M111.823,221.216s-3.058-3.5-3.247-3.833-5.106-1.913-5.106-1.913a1.415,1.415,0,0,0,0,.95c.2.33,3.368,1.165,3.368,1.165l.283.411-4.338-.586s-.761.135-.559.633,4.8,1.159,4.8,1.159l-4.716.216a1.192,1.192,0,0,0,1,.882c.775.034,2.654-.081,2.654-.081s-2.216.31-1.745.882,2.829-.094,2.829-.094l1.879,1.172,1.886,1.347Z" transform="translate(-99.738 -178.174)" fill="#fff" stroke="#263238" stroke-linecap="round" stroke-linejoin="round" stroke-width="1"/><path d="M102.1,223.14s11.89.364,13.473.364a12.988,12.988,0,0,1,2.189.121l-.849,5.942a73.871,73.871,0,0,1-8.98.364c-6.433,0-9.344.364-9.1-2.061S102.1,223.14,102.1,223.14Z" transform="translate(-98.638 -180.677)" fill="#f8951d" stroke="#263238" stroke-linecap="round" stroke-linejoin="round" stroke-width="1"/></g><g transform="translate(116.674 138.334)"><ellipse cx="19.085" cy="7.531" rx="19.085" ry="7.531" transform="translate(10.859 149.908)" fill="#f8951d"/><ellipse cx="19.085" cy="7.531" rx="19.085" ry="7.531" transform="translate(10.859 149.908)" fill="#fff" opacity="0.5"/><path d="M173.557,155.274s-3.961.249-6.508,5.052-1.347,13.473-.431,16.168,5.1,15.46,7.5,24.386,6.737,16.875,14.49,16.592,18.189-3.887,14.82-16.956-10.684-18.445-12.126-21.779-1.752-6.784-2.391-14.039a14.2,14.2,0,0,0-10.576-12.712C173.368,150.538,173.557,155.274,173.557,155.274Z" transform="translate(-148.039 -151.711)" fill="#263238" stroke="#263238" stroke-linecap="round" stroke-linejoin="round" stroke-width="1"/><path d="M199.11,188.11c1.266,1.172,1.765,1.206,1.765,1.206" transform="translate(-159.001 -163.59)" fill="none" stroke="#fff" stroke-linecap="round" stroke-linejoin="round" stroke-width="0.5"/><path d="M182.48,158.35s.108,5.207,5.632,13.177a54.322,54.322,0,0,0,4.561,5.854" transform="translate(-153.573 -153.878)" fill="none" stroke="#fff" stroke-linecap="round" stroke-linejoin="round" stroke-width="0.5"/><path d="M184.37,163.55s5,11.688,10.738,14.982" transform="translate(-154.19 -155.575)" fill="none" stroke="#fff" stroke-linecap="round" stroke-linejoin="round" stroke-width="0.5"/><path d="M206.46,207.56s8.178,9.431,8.286,16.168-4.143,9.566-4.567,9.566" transform="translate(-161.399 -169.937)" fill="none" stroke="#fff" stroke-linecap="round" stroke-linejoin="round" stroke-width="0.5"/><path d="M212.56,209.64c2.27,4.392,4.783,10.442,4.177,14.753" transform="translate(-163.39 -170.616)" fill="none" stroke="#fff" stroke-linecap="round" stroke-linejoin="round" stroke-width="0.5"/><path d="M207.72,201.25s.808,1.226,1.9,3.139" transform="translate(-161.81 -167.878)" fill="none" stroke="#fff" stroke-linecap="round" stroke-linejoin="round" stroke-width="0.5"/><path d="M169.92,172.39s-3.119,6.353-2.782,10.826" transform="translate(-148.558 -158.46)" fill="none" stroke="#fff" stroke-linecap="round" stroke-linejoin="round" stroke-width="0.5"/><path d="M169.069,177.91s-.1,3.927,1.064,6.063" transform="translate(-149.196 -160.261)" fill="none" stroke="#fff" stroke-linecap="round" stroke-linejoin="round" stroke-width="0.5"/><path d="M210.129,266.609a21.7,21.7,0,0,0-1.509,4.332c0,.963.189,5.086.754,4.332s0-3.577.754-3.766,1.347.377.566,2.634-1.347,4.52.189,3.368,1.5-2.641,2.068-6.029a15.07,15.07,0,0,0-.189-6.029Z" transform="translate(-162.104 -188.829)" fill="#fff" stroke="#263238" stroke-linecap="round" stroke-linejoin="round" stroke-width="1"/><path d="M200.666,193.37l3.011,27.68,5.463,21.092-4.716,2.075s-6.211-17.326-7.72-20.526a19.192,19.192,0,0,1-2.075-7.161C194.63,215.21,200.666,193.37,200.666,193.37Z" transform="translate(-157.539 -165.306)" fill="#f8951d" stroke="#263238" stroke-linecap="round" stroke-linejoin="round" stroke-width="1"/><path d="M163.06,307.905s.748,3.766.936,5.645-.377,8.663.566,15.07,5.868,25.228,5.868,25.228-4.9,4.325-4.9,6.4,1.509,1.7,3.954.189,4.9-4.9,5.086-7.154-1.886-15.447-1.132-21.281-.377-16.006-.377-20.149V307.71Z" transform="translate(-147.236 -202.621)" fill="#fff" stroke="#263238" stroke-linecap="round" stroke-linejoin="round" stroke-width="1"/><path d="M169.7,381.083c-.674-.323-.29-1.617.128-2.634-1.4,1.442-3.139,3.476-3.139,4.716,0,2.068,1.509,1.7,3.954.189a12.974,12.974,0,0,0,4.615-5.443C173.15,380.207,170.564,381.514,169.7,381.083Z" transform="translate(-148.42 -225.53)" fill="#263238" stroke="#263238" stroke-linecap="round" stroke-linejoin="round" stroke-width="1"/><path d="M176.74,309.666s-.189,6.784.566,9.606,5.463,17.326,6.218,21.658a104.548,104.548,0,0,1,1.5,13.743c0,3.018,2.829,9.795,4.716,10.172s3.018.377,2.452-2.634-4.143-7.727-4.143-7.727,1.873-19.179,1.118-25.242-2.829-12.045-2.829-12.6.943-7.538.943-7.538Z" transform="translate(-151.693 -203.074)" fill="#fff" stroke="#263238" stroke-linecap="round" stroke-linejoin="round" stroke-width="1"/><path d="M195.045,382.1c-.229.95-.674,1.765-1.435,1.765-1.88,0-3.766-3.2-3.766-3.2l-.094.162c.882,3.2,2.823,7.087,4.237,7.37,1.886.377,3.018.377,2.452-2.634A12.854,12.854,0,0,0,195.045,382.1Z" transform="translate(-155.946 -226.431)" fill="#263238" stroke="#263238" stroke-linecap="round" stroke-linejoin="round" stroke-width="1"/><path d="M168.134,188.285s-13.372,2.823-13.561,3.577,4.332,24.292,4.332,25.235-5.275,13.183-5.652,20.715,2.452,32.578,2.452,32.578a32.382,32.382,0,0,0,11.109,2.452,134.232,134.232,0,0,0,14.686-1.347s4.52-14.5,4.9-26.744-5.086-27.492-5.086-27.492,5.841-24.669,5.841-25.6S174.723,187.53,168.134,188.285Z" transform="translate(-144.024 -163.61)" fill="#263238" stroke="#263238" stroke-linecap="round" stroke-linejoin="round" stroke-width="1"/><path d="M181.958,217.3s5.841-24.669,5.841-25.6-12.429-4.143-19.017-3.368c0,0-13.372,2.823-13.561,3.577s4.332,24.292,4.332,25.235c0,.674-2.695,7.08-4.352,13.433a41.62,41.62,0,0,0,7.74,3.139c5.841,1.7,8.084-.754,8.084-.754s-.566,1.347,2.823,1.7c3,.33,8.084.216,12.072-2.169a107.872,107.872,0,0,0-3.961-15.191Z" transform="translate(-144.671 -163.623)" fill="#f8951d" stroke="#263238" stroke-linecap="round" stroke-linejoin="round" stroke-width="1"/><path d="M178.942,245.92c-.269,1.846-.472,3.072-.472,3.072" transform="translate(-152.265 -182.456)" fill="none" stroke="#263238" stroke-linecap="round" stroke-linejoin="round" stroke-width="1"/><path d="M180.482,209a87.576,87.576,0,0,1,.364,13.473c-.182,2.263-.505,4.951-.835,7.41" transform="translate(-152.767 -170.407)" fill="none" stroke="#263238" stroke-linecap="round" stroke-linejoin="round" stroke-width="1"/><path d="M173.115,186.061a19.832,19.832,0,0,0-5.248,2.627c-1.617,1.415-4.237,3.833-4.237,3.833l6.662.4,4.844,8.508,3.429-8.272h4.042a7.181,7.181,0,0,1,3.234.808s-4.641-6.258-7.269-7.471A8.757,8.757,0,0,0,173.115,186.061Z" transform="translate(-147.422 -162.841)" fill="#fff" stroke="#263238" stroke-linecap="round" stroke-linejoin="round" stroke-width="1"/><path d="M174.42,181.709s.606,8.475,2.216,10.7,3.833-3.631,3.833-6.258.2-6.258.2-6.258Z" transform="translate(-150.943 -160.907)" fill="#fff" stroke="#263238" stroke-linecap="round" stroke-linejoin="round" stroke-width="1"/><path d="M151.314,193.65s-8.084,26.946-8.084,28.812a3.07,3.07,0,0,0,4.52,2.634c2.263-1.32,6.777-13.931,6.777-13.931Z" transform="translate(-140.764 -165.398)" fill="#f8951d" stroke="#263238" stroke-linecap="round" stroke-linejoin="round" stroke-width="1"/><path d="M139.57,217.905l9.04,17.515,12.429,1.314L153.7,215.46Z" transform="translate(-139.57 -172.515)" fill="#fff" stroke="#263238" stroke-linecap="round" stroke-linejoin="round" stroke-width="1"/><path d="M155.79,231.918l3.368-6.211,3.954-1.347.566.755-2.263,1.347s2.829.182,3.584.182.559,1.132.559,1.132l-.371.754s.371,2.445.371,3.2-8.286,3.2-8.286,3.2Z" transform="translate(-144.863 -175.42)" fill="#fff" stroke="#263238" stroke-linecap="round" stroke-linejoin="round" stroke-width="1"/><path d="M151.428,232.82l2.553,6.9s-4.8,2.243-8.246,2.243-5.241-4.493-3.894-6.737S151.428,232.82,151.428,232.82Z" transform="translate(-140.165 -178.181)" fill="#f8951d" stroke="#263238" stroke-linecap="round" stroke-linejoin="round" stroke-width="1"/><path d="M176.433,160.1l-6.285,7.585s-.216,5.8,2.654,10.26c3.941,6.144,9.074-6.063,9.074-6.063Z" transform="translate(-149.548 -154.449)" fill="#fff" stroke="#263238" stroke-linecap="round" stroke-linejoin="round" stroke-width="1"/><path d="M175.2,173.652c.067.546-.1,1.017-.371,1.051s-.546-.384-.613-.923.094-1.017.371-1.051S175.129,173.113,175.2,173.652Z" transform="translate(-150.87 -158.57)" fill="#263238"/><path d="M180.52,174.047c0,.546-.229.99-.505.99s-.485-.451-.485-1,.229-.99.5-.99S180.52,173.5,180.52,174.047Z" transform="translate(-152.611 -158.675)" fill="#263238"/><path d="M175.35,181.621a4.675,4.675,0,0,0,3.065-.081" transform="translate(-151.247 -161.446)" fill="none" stroke="#263238" stroke-linecap="round" stroke-linejoin="round" stroke-width="0.5"/><path d="M178.62,170.806a1.906,1.906,0,0,1,2.479.121" transform="translate(-152.314 -157.812)" fill="none" stroke="#263238" stroke-linecap="round" stroke-linejoin="round" stroke-width="0.5"/><path d="M174.842,171.133a1.347,1.347,0,0,0-2.1-.128" transform="translate(-150.395 -157.863)" fill="none" stroke="#263238" stroke-linecap="round" stroke-linejoin="round" stroke-width="0.5"/><path d="M176.417,173.26A2.7,2.7,0,0,1,176.3,175c-.371,1.125-.869,1.745-.5,2.021a2.54,2.54,0,0,0,1.118.249" transform="translate(-151.35 -158.744)" fill="none" stroke="#263238" stroke-linecap="round" stroke-linejoin="round" stroke-width="0.5"/></g><g transform="translate(236.51 144.396)"><ellipse cx="26.111" cy="7.531" rx="26.111" ry="7.531" transform="translate(0 137.816)" fill="#f8951d"/><ellipse cx="26.111" cy="7.531" rx="26.111" ry="7.531" transform="translate(0 137.816)" fill="#fff" opacity="0.5"/><path d="M350.6,175.124s-1.293-1.664-1.913-.95,1.347,5.133,2.189,4.756S350.6,175.124,350.6,175.124Z" transform="translate(-327.611 -165.046)" fill="#fff" stroke="#263238" stroke-linecap="round" stroke-linejoin="round" stroke-width="1"/><path d="M366.7,175.482s1.226-1.617,1.873-.876-1.112,5.086-1.987,4.675S366.7,175.482,366.7,175.482Z" transform="translate(-333.374 -165.181)" fill="#fff" stroke="#263238" stroke-linecap="round" stroke-linejoin="round" stroke-width="1"/><path d="M352.611,191.463s-2.2.957-2.452,2.641.674,37.725.674,37.725l15.11.815-.674-39a14.955,14.955,0,0,0-6.063-2.519,17.461,17.461,0,0,0-6.6.344Z" transform="translate(-328.117 -170.58)" fill="#fff" stroke="#263238" stroke-linecap="round" stroke-linejoin="round" stroke-width="1"/><path d="M334.5,249.52l23.14.829s2.1,17.171,3.092,28.4,2.493,21.611,2.338,29.419.034,19.5.074,19.906,2.452,2.115,3.981,3.429,4.763,2.56,3.692,3.308-2.459.95-4.9.512a22.852,22.852,0,0,1-6.022-2.493l-.748-.384-.04,1.118-2.789-1.118s-.472-.532-.849-3.166S354.5,318.469,354.2,315s-3.516-28.381-4.716-34.168-3.671-15.844-3.671-15.844-9.431,32.632-10.6,36.728-6.157,26.2-6.238,26.9-1.347,2.3-1.314,2.695-1.253,1.873-2.27,3.173-5.295,2.486-6.427,2.54-1.617-2.29.633-4.042a47.753,47.753,0,0,0,4.318-3.968s1.064-16.626,1.017-21.914,3.079-22.709,3.658-24.13,3.8-20.937,3.8-20.937Z" transform="translate(-317.638 -189.693)" fill="#263238" stroke="#263238" stroke-linecap="round" stroke-linejoin="round" stroke-width="1"/><path d="M347.315,196.071s2.452,14.969,2.735,16.552-3.516,32.895-3.516,32.895a11.755,11.755,0,0,1-5.8-.62c-3.368-1.152-6.413-2.412-6.413-2.412l6.427-19.832L334.94,196.1a21.758,21.758,0,0,1,4.837-2.021,52.186,52.186,0,0,1,7.6-1.6Z" transform="translate(-322.962 -171.078)" fill="#f8951d" stroke="#263238" stroke-linecap="round" stroke-linejoin="round" stroke-width="1"/><path d="M357,200.35l1.65,2.358-2.176,28.381,3.415,3.894,1.671-3.766-1.617-28.091,1.7-3.065-2.412-3.611Z" transform="translate(-330.191 -172.374)" fill="#263238" stroke="#263238" stroke-linecap="round" stroke-linejoin="round" stroke-width="1"/><path d="M365.749,191.84s-1.624,12.025-1.583,12.968-.371,8.859-.337,9.6,3.368,30.88,3.368,30.88a19.158,19.158,0,0,0,6.42.094,24.137,24.137,0,0,0,7.68-2.971l-7.478-19.805,2.863-27.8S367.911,192.258,365.749,191.84Z" transform="translate(-332.592 -170.869)" fill="#f8951d" stroke="#263238" stroke-linecap="round" stroke-linejoin="round" stroke-width="1"/><path d="M357.883,195.812l-3.085,2.964s-2.021-6.851-2.021-7.909a3.368,3.368,0,0,1,1.583-3.058c1.152-.633,5.766-.115,6.865.411s1.947,3.052,1.947,3.052l-2.466,8.023Z" transform="translate(-328.984 -169.458)" fill="#fff" stroke="#263238" stroke-linecap="round" stroke-linejoin="round" stroke-width="1"/><path d="M354.63,184.51a21.792,21.792,0,0,0,1.307,5.692c.936,1.9,2.243,4.844,2.553,4.628s2.816-4.217,2.883-5.066.249-4.217.249-4.217Z" transform="translate(-329.59 -168.477)" fill="#fff" stroke="#263238" stroke-linecap="round" stroke-linejoin="round" stroke-width="1"/><path d="M353.713,165.5s-2.1,1.246-2.391,2.418-.094,7.188,1.165,9.8,3.6,4.763,4.756,4.776,3.813-1.785,4.183-4.439a39.791,39.791,0,0,0,.586-7.242c-.135-1.778,1.314-.984-.889-3.314S355,164.364,353.713,165.5Z" transform="translate(-328.471 -162.107)" fill="#fff" stroke="#263238" stroke-linecap="round" stroke-linejoin="round" stroke-width="1"/><path d="M356.941,177.694c0,.418-.175.761-.384.761s-.377-.344-.377-.761.168-.754.377-.754S356.941,177.277,356.941,177.694Z" transform="translate(-330.096 -166.007)" fill="#263238"/><path d="M362.275,177.694c0,.418-.168.761-.377.761s-.377-.344-.377-.761.168-.754.377-.754S362.275,177.277,362.275,177.694Z" transform="translate(-331.839 -166.007)" fill="#263238"/><path d="M354.78,175.982a1.172,1.172,0,0,1,1.7-.283" transform="translate(-329.639 -165.52)" fill="none" stroke="#263238" stroke-linecap="round" stroke-linejoin="round" stroke-width="0.5"/><path d="M360.82,175.76s.754-1.233,2.082.189" transform="translate(-331.61 -165.459)" fill="none" stroke="#263238" stroke-linecap="round" stroke-linejoin="round" stroke-width="0.5"/><path d="M359.757,177.92l.189,3.314-1.516-.189" transform="translate(-330.83 -166.326)" fill="none" stroke="#263238" stroke-linecap="round" stroke-linejoin="round" stroke-width="0.5"/><path d="M357.73,184.341a4.614,4.614,0,0,0,3.368-.1" transform="translate(-330.602 -168.389)" fill="none" stroke="#263238" stroke-linecap="round" stroke-linejoin="round" stroke-width="0.5"/><path d="M351.524,165.519a1.721,1.721,0,0,0-2.4,1.347c-.344,2.082,1.428,5.9,1.428,5.9s.283-.95.768-2.109,1.529-1.8,1.132-3.483S351.524,165.519,351.524,165.519Z" transform="translate(-327.777 -162.238)" fill="#263238" stroke="#263238" stroke-linecap="round" stroke-linejoin="round" stroke-width="1"/><path d="M352.826,165.25a5.493,5.493,0,0,0,3.941,2.1c2.9.411,4.385,0,4.716.519a14.69,14.69,0,0,1,.364,3.476s.97.317,1.031-.842a4.116,4.116,0,0,1,1.179-2.425c.31-.317,1.873-1.273.155-3.907s-3.887-3.469-7.632-3.463S350.576,162.623,352.826,165.25Z" transform="translate(-328.709 -160.71)" fill="#263238" stroke="#263238" stroke-linecap="round" stroke-linejoin="round" stroke-width="1"/><path d="M381.816,196.24s5.389,18.6,5.733,20.546-1.846,3.065-4.136,2.237-3.793-12.8-3.793-12.8Z" transform="translate(-337.746 -172.305)" fill="#f8951d" stroke="#263238" stroke-linecap="round" stroke-linejoin="round" stroke-width="1"/><path d="M376.17,220.029s-8.67-1.516-10.927-1.509-13.089,1-13.089,1l-.4,3.759s16.531,3.725,19.792,4.136,6.5.263,6.838-1.826a4.094,4.094,0,0,0-.418-3.058" transform="translate(-328.65 -179.576)" fill="#f8951d" stroke="#263238" stroke-linecap="round" stroke-linejoin="round" stroke-width="1"/><path d="M335.24,197.85s.222,10.778.472,16.592,1.873,7.949,4.837,7.942.559-16.707.559-16.707" transform="translate(-323.262 -172.83)" fill="#f8951d" stroke="#263238" stroke-linecap="round" stroke-linejoin="round" stroke-width="1"/><path d="M348.284,219.465a10.519,10.519,0,0,0-3.429-1.1c-1.266,0-4.978,2.378-4.965,2.8s2.021.97,4.547.674a16.013,16.013,0,0,1,4.089,0Z" transform="translate(-324.78 -179.524)" fill="#fff" stroke="#263238" stroke-linecap="round" stroke-linejoin="round" stroke-width="1"/><path d="M374,215.624a17.182,17.182,0,0,1,3.227-.424c1.408,0,3.079,2.775,3.079,2.775l-5.484.431Z" transform="translate(-335.912 -178.493)" fill="#fff" stroke="#263238" stroke-linecap="round" stroke-linejoin="round" stroke-width="1"/><path d="M339.816,221.127l21.328-6.171s.4-.418,1.152.552a5.888,5.888,0,0,1,.822,2.782s-12.591,5.868-16.471,7.545-5.174,4.325-7.255,1.826-.761-4.594-.761-4.594" transform="translate(-324.234 -178.384)" fill="#f8951d" stroke="#263238" stroke-linecap="round" stroke-linejoin="round" stroke-width="1"/></g><g transform="translate(216.422 139.898)"><ellipse cx="19.085" cy="7.531" rx="19.085" ry="7.531" transform="translate(0 148.848)" fill="#f8951d"/><ellipse cx="19.085" cy="7.531" rx="19.085" ry="7.531" transform="translate(0 148.848)" fill="#fff" opacity="0.5"/><path d="M316.544,164.574a10.388,10.388,0,0,0,2.735-5.672c.3-3.247-3.442-4.965-5.975-4.864a7.976,7.976,0,0,0-4.359,1.617s-5.908-.3-10.334,3.072-3.853,13.379-3.55,17.124a56.682,56.682,0,0,1-.2,8.616,43.356,43.356,0,0,0,9.728,2.634c5.167.707,12.159-.505,12.867-.674s-2.021-.815-2.432-4.763.606-8.515,1.017-10.644-.3-6.278-.3-6.278Z" transform="translate(-289.996 -154.034)" fill="#263238" stroke="#263238" stroke-linecap="round" stroke-linejoin="round" stroke-width="1"/><path d="M325.473,156.45s-1.031,3.557-1.6,4.938" transform="translate(-299.464 -154.822)" fill="none" stroke="#fff" stroke-linecap="round" stroke-linejoin="round" stroke-width="0.5"/><path d="M314.054,158.67s.916,2.978-2.3,8.144-9.748,10.671-9.977,14.457" transform="translate(-292.255 -155.547)" fill="none" stroke="#fff" stroke-linecap="round" stroke-linejoin="round" stroke-width="0.5"/><path d="M302.617,179.44s-4.042,6.77-2.29,10.9" transform="translate(-291.637 -162.325)" fill="none" stroke="#fff" stroke-linecap="round" stroke-linejoin="round" stroke-width="0.5"/><path d="M318.78,196.75s5.47,2.836,6.278,3.139,1.522,1.017,2.129,2.836,3.954,15,4.257,16.417-2.533,2.836-4.359,2.937-4.156-1.516-4.156-2.735S318.78,196.75,318.78,196.75Z" transform="translate(-297.802 -167.974)" fill="#f8951d" stroke="#263238" stroke-linecap="round" stroke-linejoin="round" stroke-width="1"/><path d="M322.09,225.976a38.87,38.87,0,0,1,3.645-4.156c1.213-1.01,3.745-1.826,5.268-1.01s1.219,2.223.606,2.432a12.158,12.158,0,0,0-3.139.808,18.885,18.885,0,0,1-3.746,2.021A6.116,6.116,0,0,1,322.09,225.976Z" transform="translate(-298.883 -175.717)" fill="#fff" stroke="#263238" stroke-linecap="round" stroke-linejoin="round" stroke-width="1"/><path d="M297.6,376.63l-.094,5.457h.64l.815-3.732Z" transform="translate(-290.861 -226.677)" fill="#263238" stroke="#263238" stroke-linecap="round" stroke-linejoin="round" stroke-width="1"/><path d="M320.671,307.664s-1,13.561-3.638,22.352-7.909,22.466-8.037,24.6a42.364,42.364,0,0,0,4.392,3.766c1.125.626,2.021.505,1.26,1.132a5.365,5.365,0,0,1-4.52.377c-1.63-.626-2.89-2.513-3.766-3.011s-2.021-1.132-2.135-2.263,1.63-2.762,1.63-2.762,4.143-9.29,3.645-15.191.748-12.55,2.021-14.942a31.476,31.476,0,0,0,2.021-4.891L310,308.412S317.155,306.283,320.671,307.664Z" transform="translate(-293.051 -204.018)" fill="#fff" stroke="#263238" stroke-linecap="round" stroke-linejoin="round" stroke-width="1"/><path d="M313.392,380.618a5.864,5.864,0,0,1-.525-.35c-.674.31-2.331.943-3.618-.148-1.442-1.226-2.984-3.429-4.453-4.79a2.466,2.466,0,0,0-.566,1.522c.121,1.132,1.253,1.758,2.135,2.263s2.129,2.385,3.766,3.011a5.358,5.358,0,0,0,4.52-.377C315.406,381.123,314.523,381.251,313.392,380.618Z" transform="translate(-293.054 -226.253)" fill="#263238" stroke="#263238" stroke-linecap="round" stroke-linejoin="round" stroke-width="1"/><path d="M316.661,305.987s2.452,7.343,2.452,9.229-11.863,28.624-12.995,31.258-2.829,7.531-2.829,7.531a6.238,6.238,0,0,0,2.452,3.577c2.068,1.509,2.823,2.829,1.88,3.207s-5.268.754-6.4-.755-2.257-4.716-3.368-5.652,0-3.011.754-3.577a17.574,17.574,0,0,0,2.068-2.257s2.823-6.029,2.823-11.3.943-10.354,3.772-14.686a33.32,33.32,0,0,0,3.766-7.343L308.018,309S312.915,305.63,316.661,305.987Z" transform="translate(-290.819 -203.614)" fill="#fff" stroke="#263238" stroke-linecap="round" stroke-linejoin="round" stroke-width="1"/><path d="M305.878,379.718c-1.1.532-1.873.93-4.264-1.785a51.427,51.427,0,0,1-3.557-4.493c-.606.862-1.085,2.257-.209,2.984,1.132.943,2.257,4.143,3.368,5.652s5.463,1.132,6.4.754S307.851,381.187,305.878,379.718Z" transform="translate(-290.815 -225.636)" fill="#263238" stroke="#263238" stroke-linecap="round" stroke-linejoin="round" stroke-width="1"/><path d="M304.584,195s-12.463,1.92-12.874,2.634,3.853,24.11,4.258,25.936-2.432,6.588-4.042,15.8.317,11.452,3.052,18.027,10.388,16.417,10.388,16.417l11.957-2.129s2.735-21.375,1.415-31.709a55.111,55.111,0,0,0-5.268-17.63l.3-5.477s3.368-2.075,3.5-4.716-1.772-6.433-3.5-9.876S307.278,195,304.584,195Z" transform="translate(-288.847 -167.403)" fill="#f8951d" stroke="#263238" stroke-linecap="round" stroke-linejoin="round" stroke-width="1"/><path d="M310.052,192.69s-2.634.3-3.038.808-1.623,7.484-1.623,7.484,4.763-1.415,5.268-1.415,4.662,4.864,4.662,4.864v-4.258l3.644,2.735a36.935,36.935,0,0,0-2.634-5.874A8.006,8.006,0,0,0,310.052,192.69Z" transform="translate(-293.433 -166.649)" fill="#fff" stroke="#263238" stroke-linecap="round" stroke-linejoin="round" stroke-width="1"/><path d="M312.383,183.67s-.808,7.8-.3,8.71,3.948,6.184,3.948,6.184-.4-4.042-.4-6.588a30.989,30.989,0,0,1,1.118-6.487Z" transform="translate(-295.562 -163.705)" fill="#fff" stroke="#263238" stroke-linecap="round" stroke-linejoin="round" stroke-width="1"/><path d="M319.537,164.56s-1.927,4.763-3.853,6.487a18.073,18.073,0,0,1-3.543,2.533s-.2,3.368.3,3.853,4.662,4.756,6.063,4.15,3.55-4.561,3.752-7.7a25.6,25.6,0,0,0-.909-7.094Z" transform="translate(-295.623 -157.469)" fill="#fff" stroke="#263238" stroke-linecap="round" stroke-linejoin="round" stroke-width="1"/><path d="M324.731,173.31a1.347,1.347,0,0,0-.8,1.381c0,1.145,1.031,2.061,1.031,2.634s-1.26.923-1.26.923" transform="translate(-299.408 -160.324)" fill="none" stroke="#263238" stroke-linecap="round" stroke-linejoin="round" stroke-width="0.5"/><path d="M321.342,173.675a1.959,1.959,0,0,0-2.412-.916" transform="translate(-297.851 -160.117)" fill="none" stroke="#263238" stroke-linecap="round" stroke-linejoin="round" stroke-width="0.5"/><path d="M322.077,183.083a2.641,2.641,0,0,1-2.3-.573" transform="translate(-298.129 -163.327)" fill="none" stroke="#263238" stroke-linecap="round" stroke-linejoin="round" stroke-width="0.5"/><path d="M320.523,175.022c0,.478-.128.862-.283.862s-.29-.384-.29-.862.128-.862.29-.862S320.523,174.551,320.523,175.022Z" transform="translate(-298.184 -160.602)" fill="#263238"/><path d="M324.953,175.582c0,.472-.128.862-.29.862s-.283-.391-.283-.862.128-.862.283-.862S324.953,175.131,324.953,175.582Z" transform="translate(-299.63 -160.785)" fill="#263238"/><path d="M293.193,198.558a5.955,5.955,0,0,0-3.368.909c-1.421,1.01-1.112,4.965-.4,9.222s4.561,16.107,5.47,18.135a5.719,5.719,0,0,0,4.965,3.368c1.927,0,14.591-6.79,14.591-6.79l-1.118-3.139s-10.812,2.708-11.587,2.843-4.359-18.034-4.359-18.034" transform="translate(-288.027 -168.563)" fill="#f8951d" stroke="#263238" stroke-linecap="round" stroke-linejoin="round" stroke-width="1"/><path d="M308,231.748s-4.156-.108-4.763-.108-3.442,3.247-4.156,4.042.1,1.01.411,1.118a9.179,9.179,0,0,0,2.223-.714S300,239.454,300.4,240.04s1.415,1.01,1.826.606a4.17,4.17,0,0,1,1.92-.909,2.445,2.445,0,0,0,2.021-.916c.815-.909,2.129-4.554,2.129-4.554l2.021-.613v-1.5Z" transform="translate(-291.281 -179.36)" fill="#fff" stroke="#263238" stroke-linecap="round" stroke-linejoin="round" stroke-width="1"/><path d="M311.86,229.555l1.112,6.79s13.884-3.847,15.6-4.662.714-5.167-.606-6.278S311.86,229.555,311.86,229.555Z" transform="translate(-295.544 -177.275)" fill="#f8951d" stroke="#263238" stroke-linecap="round" stroke-linejoin="round" stroke-width="1"/><path d="M305.334,292.445l11.957-2.129s2.735-21.375,1.415-31.709a56.828,56.828,0,0,0-1.179-6.3,32.443,32.443,0,0,1-9.249,2.243c-7.848.869-13.1-1.388-15.1-2.472-.472,1.731-.93,3.692-1.347,5.915-1.617,9.222.317,11.452,3.052,18.027S305.334,292.445,305.334,292.445Z" transform="translate(-288.816 -186.031)" fill="#263238" stroke="#263238" stroke-linecap="round" stroke-linejoin="round" stroke-width="1"/><path d="M315.27,274.85a41.093,41.093,0,0,1,4.487,11.088" transform="translate(-296.657 -193.462)" fill="none" stroke="#fff" stroke-linecap="round" stroke-linejoin="round" stroke-width="0.75"/><path d="M309.82,267.26a25.345,25.345,0,0,1,2.317,2.991" transform="translate(-294.878 -190.985)" fill="none" stroke="#fff" stroke-linecap="round" stroke-linejoin="round" stroke-width="0.75"/></g><g transform="translate(162.186 132.111)"><ellipse cx="30.759" cy="7.531" rx="30.759" ry="7.531" transform="translate(0 160.145)" fill="#f8951d"/><ellipse cx="30.759" cy="7.531" rx="30.759" ry="7.531" transform="translate(0 160.145)" fill="#fff" opacity="0.5"/><path d="M248.256,162.123s-1.132-2.068-1.96-1.347.519,6,1.549,5.686S248.256,162.123,248.256,162.123Z" transform="translate(-219.827 -148.397)" fill="#fff" stroke="#263238" stroke-linecap="round" stroke-linejoin="round" stroke-width="1"/><path d="M218.21,258.119a70.9,70.9,0,0,0,19.812,5.127c10.947,1.1,23.7-6.79,23.7-6.79s-12.752-19.677-12.887-20.1-15.38-.97-15.38-.97Z" transform="translate(-210.746 -172.797)" fill="#263238" stroke="#263238" stroke-linecap="round" stroke-linejoin="round" stroke-width="1"/><path d="M226.162,244.81s-5.086,21.658-5.086,29.378,0,13.931-.377,20.149-2.445,18.263-1.691,24.481,1.691,18.458,1.691,18.458-6.588,5.268-6.588,7.154,3.954,1.347,7.343-.755,4.332-3.577,4.332-3.577l.754.754,1.132-1.132.377-4.143,3.766-33.9L237.088,268l9.222,40.487,8.084,28.064,1.886.755.377,1.691,1.879,1.132,1.886.189L262.3,342s6.029,1.886,7.161,1.509,1.125-1.88-1.886-4.143-8.084-3.577-8.084-3.577-.566-19.024-1.879-30.133-3.018-20.526-3.018-28.435-2.627-30.941-2.627-30.941Z" transform="translate(-209.408 -175.871)" fill="#263238" stroke="#263238" stroke-linecap="round" stroke-linejoin="round" stroke-width="1"/><path d="M244.489,181.864l-14.059,5.389,1.125,38.668s4.776,2.385,13.183,2.263,14.147-.472,14.147-.472L262.22,185.5l-13.561-3.139A9.693,9.693,0,0,0,244.489,181.864Z" transform="translate(-214.734 -155.298)" fill="#fff" stroke="#263238" stroke-linecap="round" stroke-linejoin="round" stroke-width="1"/><path d="M250.152,190.146l1.5,3.894-4.264,30.254,2.257,5.025,3.766-5.773-.5-29.257,1.758-3.894-2.014-4.015Z" transform="translate(-220.269 -156.803)" fill="#263238" stroke="#263238" stroke-linecap="round" stroke-linejoin="round" stroke-width="1"/><path d="M250.227,179.123l-2.277,2.695.418,8.38,4.756-3.826,3.826,5.585s1.549-7.343.93-9.62-2.789-3.725-3.927-3.516S250.227,179.123,250.227,179.123Z" transform="translate(-220.451 -154.329)" fill="#fff" stroke="#263238" stroke-linecap="round" stroke-linejoin="round" stroke-width="1"/><path d="M250.41,173.45a3.362,3.362,0,0,0,.04.438c.128,1.381.525,5.625.788,7.006.31,1.657,2.479,3.516,3.308,3.207a9.246,9.246,0,0,0,3-3.618c.2-.822,1.037-4.655,1.037-4.655a14.909,14.909,0,0,1-3.826,1.24C253.623,177.068,250.41,173.45,250.41,173.45Z" transform="translate(-221.254 -152.583)" fill="#fff" stroke="#263238" stroke-linecap="round" stroke-linejoin="round" stroke-width="1"/><path d="M265.944,164.94s1.684-1.657,2.263-.728-2.21,5.6-3.112,5.005S265.944,164.94,265.944,164.94Z" transform="translate(-225.962 -149.476)" fill="#fff" stroke="#263238" stroke-linecap="round" stroke-linejoin="round" stroke-width="1"/><path d="M253.021,151.933s-2.58,1.1-3.139,2.4-1.475,8.084-.552,11.25,3.139,5.9,4.426,6.063,4.615-1.475,5.537-4.426a46.558,46.558,0,0,0,2.021-8.084c.182-2.021,1.657-.923-.37-3.874S254.658,150.828,253.021,151.933Z" transform="translate(-220.773 -145.442)" fill="#fff" stroke="#263238" stroke-linecap="round" stroke-linejoin="round" stroke-width="1"/><path d="M255.756,164.563c0,.505-.182.916-.431.923s-.472-.4-.485-.9.182-.916.438-.923S255.742,164.037,255.756,164.563Z" transform="translate(-222.7 -149.388)" fill="#263238"/><path d="M261.086,164.893c0,.505-.182.923-.431.93s-.472-.4-.485-.9.182-.923.431-.93S261.072,164.387,261.086,164.893Z" transform="translate(-224.439 -149.496)" fill="#263238"/><path d="M253.46,161.2a1.792,1.792,0,0,1,2.223-.626" transform="translate(-222.25 -148.328)" fill="none" stroke="#263238" stroke-linecap="round" stroke-linejoin="round" stroke-width="0.5"/><path d="M259.7,161.13s1.172-.566,2.479.957" transform="translate(-224.286 -148.529)" fill="none" stroke="#263238" stroke-linecap="round" stroke-linejoin="round" stroke-width="0.5"/><path d="M255.13,172.38a4.359,4.359,0,0,0,2.823.317" transform="translate(-222.795 -152.234)" fill="none" stroke="#263238" stroke-linecap="round" stroke-linejoin="round" stroke-width="0.5"/><path d="M258.447,163.07s.626,4.372.155,4.608-1.482-.317-1.482-.317" transform="translate(-223.444 -149.195)" fill="none" stroke="#263238" stroke-linecap="round" stroke-linejoin="round" stroke-width="0.5"/><path d="M249.214,148.74s-3.516.721-3.415,2.58a24.091,24.091,0,0,0,1.347,5.174s1.24.721,1.031,1.549-.1,2.587.626,1.967.31-2.9.62-3.207a2.654,2.654,0,0,0,1.24-2.068c0-1.24-.728-2.378-.519-2.695s3.826.1,5.585.93,4.136,2.169,3.516,3.516a1.718,1.718,0,0,0,.209,2.068s-.728,1.967-.209,2.486,1.138-1.758,1.138-1.758a1.7,1.7,0,0,0,1.347-1.448,13.533,13.533,0,0,0,.411-5.073c-.31-1.65-3.725-4.446-7.444-4.547A16.747,16.747,0,0,0,249.214,148.74Z" transform="translate(-219.749 -144.344)" fill="#263238" stroke="#263238" stroke-linecap="round" stroke-linejoin="round" stroke-width="1"/><path d="M250.408,148.655s4.244,3.719,7.862,5.167,8.272-1.24,8.481-3.308-3.308-5.066-4.237-5.174.512-1.347-2.9-2.378-10.967-.411-11.378,1.657S250.408,148.655,250.408,148.655Z" transform="translate(-220.531 -142.474)" fill="#263238" stroke="#263238" stroke-linecap="round" stroke-linejoin="round" stroke-width="1"/><path d="M237.265,182.813s-.5,23.854-3.368,32.012-6.528,16.323-9.667,19.213-8.663,12.052-8.663,12.052-1.886-3.644-1.886-4.769,8.758-9.168,9.546-9.923,1.132-4.641,1.132-10.415-1.381-32.895-1.381-33.4S234.88,182.187,237.265,182.813Z" transform="translate(-209.268 -155.62)" fill="#f8951d" stroke="#263238" stroke-linecap="round" stroke-linejoin="round" stroke-width="1"/><path d="M221.552,189.92l-.276.418a89.6,89.6,0,0,0-4.561,9.815c-2.331,5.672-8.475,15.07-7.154,16.949s4.716,3.011,6.777.754,7.154-11.863,7.154-11.863S222.8,191.927,221.552,189.92Z" transform="translate(-207.863 -157.958)" fill="#f8951d" stroke="#263238" stroke-linecap="round" stroke-linejoin="round" stroke-width="1"/><path d="M262.3,183.21s.249,16.451.748,27.748,2.021,15.568,3.267,17.7,10.421,16.323,10.421,16.323,2.135-4.4,1.88-6.157-6.9-12.927-6.9-13.554,2.89-37.664,2.385-38.668S262.3,183.21,262.3,183.21Z" transform="translate(-225.134 -155.768)" fill="#f8951d" stroke="#263238" stroke-linecap="round" stroke-linejoin="round" stroke-width="1"/><path d="M242.894,185.08l-3.644,9.04,2.89,2.883L239,200.52l1.758,13.433" transform="translate(-217.531 -156.378)" fill="none" stroke="#263238" stroke-linecap="round" stroke-linejoin="round" stroke-width="1"/><path d="M264.721,185.26l3.4,8.037-3.766,2.257,3.766,5.908L264.471,211" transform="translate(-225.803 -156.437)" fill="none" stroke="#263238" stroke-linecap="round" stroke-linejoin="round" stroke-width="1"/><path d="M229.468,256.27l.633,1.644-4.473,3.449-1.408-3.193Z" transform="translate(-212.707 -179.611)" fill="#fff" stroke="#263238" stroke-linecap="round" stroke-linejoin="round" stroke-width="1"/><path d="M215.323,225.263l8.845,20.149-6.588,5.086S208,230.343,208,228.652s2.075-5.086,3.011-5.652" transform="translate(-207.414 -168.753)" fill="#f8951d" stroke="#263238" stroke-linecap="round" stroke-linejoin="round" stroke-width="1"/><path d="M230.783,258.71l1.536.768-4.224,5.753-1.785-3.072Z" transform="translate(-213.389 -180.407)" fill="#fff" stroke="#263238" stroke-linecap="round" stroke-linejoin="round" stroke-width="1"/><path d="M267.355,256.7l-.795,1.576,4.109,3.88,1.718-3.038Z" transform="translate(-226.525 -179.751)" fill="#fff" stroke="#263238" stroke-linecap="round" stroke-linejoin="round" stroke-width="1"/><path d="M279.262,188.25a9.135,9.135,0,0,1,2.2,3.981c.256,1.913,7.033,24.427,7.289,25.451s-2.3,2.695-4.864,3.072-5.753-9.593-5.753-9.593Z" transform="translate(-230.301 -157.413)" fill="#f8951d" stroke="#263238" stroke-linecap="round" stroke-linejoin="round" stroke-width="1"/><path d="M278.559,227.372,267.74,246.538l6.063,5.719s11.567-19.091,11.735-20.776-1.549-5.268-2.432-5.921" transform="translate(-226.91 -169.589)" fill="#f8951d" stroke="#263238" stroke-linecap="round" stroke-linejoin="round" stroke-width="1"/><path d="M265.783,259.04l-1.6.606,3.624,6.15,2.088-2.877Z" transform="translate(-225.748 -180.515)" fill="#fff" stroke="#263238" stroke-linecap="round" stroke-linejoin="round" stroke-width="1"/></g></g></svg>