<svg xmlns="http://www.w3.org/2000/svg" width="250" height="241.469" viewBox="0 0 250 241.469">
  <g id="foregin-dontaions" transform="translate(-18.789 -42.01)">
    <g id="freepik--Floor--inject-24" transform="translate(19.182 274.384)">
      <path id="Path_34394" data-name="Path 34394" d="M255.488,463.143H19.776a.276.276,0,0,1,0-.553H255.488a.276.276,0,0,1,0,.553Z" transform="translate(-19.5 -462.59)" fill="#263238"/>
      <path id="Path_34395" data-name="Path 34395" d="M463.342,463.143h-8.9a.276.276,0,0,1,0-.553h8.9a.276.276,0,0,1,0,.553Z" transform="translate(-214.011 -462.59)" fill="#263238"/>
    </g>
    <g id="freepik--Plant--inject-24" transform="translate(18.789 172.159)">
      <path id="Path_34396" data-name="Path 34396" d="M29.8,320.056s-1.282,3.519-4.006,4-7.525-4.8-4.481-7.525S28.514,318.133,29.8,320.056Z" transform="translate(-19.48 -294.613)" fill="#f8951d"/>
      <path id="Path_34397" data-name="Path 34397" d="M25.208,324.137c-1.785,0-3.973-1.856-4.879-3.718a3.462,3.462,0,0,1,.553-4.321,3.531,3.531,0,0,1,2.912-.917c2.42.309,4.923,2.856,6.011,4.492a.282.282,0,0,1,.033.249c-.055.149-1.37,3.68-4.216,4.182A2.493,2.493,0,0,1,25.208,324.137ZM23.3,315.706a2.9,2.9,0,0,0-2.47,4.47c.967,1.995,3.243,3.635,4.691,3.381,2.249-.4,3.486-3.077,3.74-3.7-1.039-1.5-3.376-3.868-5.525-4.127A2.678,2.678,0,0,0,23.3,315.706Z" transform="translate(-19.257 -294.385)" fill="#263238"/>
      <path id="Path_34398" data-name="Path 34398" d="M42.747,291.091s-4.006,9.774-2.4,14.575,11.525,8.326,14.409,2.083-3.525-15.056-5.928-16.979S43.543,289.495,42.747,291.091Z" transform="translate(-28.265 -282.947)" fill="#f8951d"/>
      <path id="Path_34399" data-name="Path 34399" d="M48.984,311.164h-.508c-3.8-.21-7.663-2.724-8.625-5.608-1.613-4.846,2.243-14.365,2.409-14.769h0a3.122,3.122,0,0,1,2.21-1.558,5.2,5.2,0,0,1,4.31,1.144c2.464,1.972,8.951,10.923,6.006,17.31A6.008,6.008,0,0,1,48.984,311.164Zm-6.216-20.156c-.144.354-3.923,9.785-2.392,14.365.878,2.641,4.6,5.039,8.127,5.232a5.637,5.637,0,0,0,5.774-3.177c2.818-6.111-3.464-14.741-5.851-16.647a4.635,4.635,0,0,0-3.868-1.033A2.58,2.58,0,0,0,42.768,291.008Z" transform="translate(-28.038 -282.748)" fill="#263238"/>
      <path id="Path_34400" data-name="Path 34400" d="M81.012,298.729s-6.884,6.243-7.685,12.492,3.84,8.487,8.647,7.685,7.183-12.973,5.763-18.575S81.012,298.729,81.012,298.729Z" transform="translate(-43.154 -286.419)" fill="#f8951d"/>
      <path id="Path_34401" data-name="Path 34401" d="M79.9,319.129a7.52,7.52,0,0,1-5.3-1.89c-1.5-1.448-2.111-3.613-1.774-6.271.807-6.293,7.492-12.371,7.79-12.658h0c.11-.083,2.7-2.022,4.862-1.271a3.923,3.923,0,0,1,2.3,3.022c1.044,4.061.111,12.072-2.658,16.321a5.2,5.2,0,0,1-3.315,2.6A11.272,11.272,0,0,1,79.9,319.129Zm1.066-20.4c-.293.265-6.823,6.343-7.591,12.31-.315,2.475.243,4.481,1.608,5.8,1.519,1.464,3.967,2.039,6.724,1.58a4.7,4.7,0,0,0,2.956-2.354c2.691-4.138,3.6-11.934,2.586-15.885a3.4,3.4,0,0,0-1.945-2.635C83.485,296.941,81.131,298.6,80.965,298.731Z" transform="translate(-42.93 -286.205)" fill="#263238"/>
      <path id="Path_34402" data-name="Path 34402" d="M83.13,362.46s-7.685.32-8.006,4,3.359,4.486,7.044,1.282S86.335,362.62,83.13,362.46Z" transform="translate(-43.99 -315.557)" fill="#f8951d"/>
      <path id="Path_34403" data-name="Path 34403" d="M77.6,369.8a3.177,3.177,0,0,1-1.47-.332,3.037,3.037,0,0,1-1.47-3.254c.337-3.868,7.945-4.243,8.288-4.254h0c1.315.066,2.1.431,2.326,1.105.354,1.011-.669,2.542-3.116,4.674A7.509,7.509,0,0,1,77.6,369.8Zm5.321-7.266c-.343,0-7.442.414-7.735,3.752A2.555,2.555,0,0,0,76.365,369c1.337.685,3.464,0,5.415-1.658,2.923-2.542,3.111-3.647,2.961-4.078C84.558,362.706,83.68,362.535,82.923,362.535Z" transform="translate(-43.783 -315.334)" fill="#263238"/>
      <path id="Path_34404" data-name="Path 34404" d="M75.392,368.689l-.232-.5c.249-.116,6.122-2.8,8.84-3.276l.1.553C81.448,365.927,75.447,368.662,75.392,368.689Z" transform="translate(-44.015 -316.654)" fill="#263238"/>
      <path id="Path_34405" data-name="Path 34405" d="M84.806,403.267s-5.647-5.227-8.487-2.856-.807,5.525,4.061,5.9S86.95,405.648,84.806,403.267Z" transform="translate(-43.953 -332.264)" fill="#f8951d"/>
      <path id="Path_34406" data-name="Path 34406" d="M81.9,406.426a15.487,15.487,0,0,1-1.768-.072c-2.845-.2-4.973-1.37-5.486-3.044a3.084,3.084,0,0,1,1.271-3.343c2.995-2.5,8.614,2.647,8.84,2.868h0c.884.978,1.171,1.8.867,2.42C85.284,406.045,84.041,406.426,81.9,406.426Zm-3.989-6.586a2.5,2.5,0,0,0-1.658.552,2.586,2.586,0,0,0-1.105,2.763c.459,1.431,2.42,2.481,5,2.669,3.868.282,4.774-.365,4.973-.779.243-.5-.282-1.249-.774-1.8-.171-.2-3.735-3.409-6.437-3.409Z" transform="translate(-43.729 -332.036)" fill="#263238"/>
      <path id="Path_34407" data-name="Path 34407" d="M84.672,406.146c-2.21-1.558-8.376-3.868-8.442-3.906l.2-.519c.254.1,6.293,2.376,8.558,3.973Z" transform="translate(-44.493 -333.126)" fill="#263238"/>
      <path id="Path_34408" data-name="Path 34408" d="M37.8,399.421s7.785-7.183,11.7-3.934,1.111,7.641-5.591,8.133S34.848,402.708,37.8,399.421Z" transform="translate(-26.737 -329.959)" fill="#f8951d"/>
      <path id="Path_34409" data-name="Path 34409" d="M41.262,403.773c-2.89,0-4.553-.508-5.055-1.53-.4-.823,0-1.906,1.171-3.221h0c.326-.3,8.011-7.326,12.061-3.945,1.613,1.343,2.21,2.939,1.724,4.492-.729,2.265-3.6,3.868-7.475,4.133C42.809,403.74,42,403.773,41.262,403.773ZM37.782,399.4c-.7.779-1.442,1.856-1.105,2.6.287.586,1.575,1.519,6.962,1.105,3.6-.26,6.337-1.735,6.984-3.746.431-1.326-.122-2.713-1.547-3.9C45.478,392.452,38.086,399.121,37.782,399.4Z" transform="translate(-26.516 -329.742)" fill="#263238"/>
      <path id="Path_34410" data-name="Path 34410" d="M40.14,403.382l-.32-.453c3.116-2.21,11.431-5.326,11.785-5.459l.193.514C51.71,398.017,43.2,401.227,40.14,403.382Z" transform="translate(-28.2 -331.224)" fill="#263238"/>
      <path id="Path_34411" data-name="Path 34411" d="M47.254,373.777s-.8,3.84-3.685,5.282-7.995-1.619-5.282-6.243S45.812,371.854,47.254,373.777Z" transform="translate(-27.17 -319.189)" fill="#f8951d"/>
      <path id="Path_34412" data-name="Path 34412" d="M41.723,379.462A5.055,5.055,0,0,1,38.1,377.9c-1.37-1.459-1.481-3.453-.3-5.459a4.246,4.246,0,0,1,3.448-2.381c2.442-.155,4.973,1.961,5.978,3.315a.282.282,0,0,1,.05.221c-.033.16-.862,3.995-3.834,5.475a3.868,3.868,0,0,1-1.718.387Zm-.238-8.84h-.193a3.747,3.747,0,0,0-3.006,2.105c-1.044,1.785-.961,3.536.227,4.807a4.267,4.267,0,0,0,4.7,1.055c2.448-1.227,3.315-4.326,3.508-4.973-1.028-1.309-3.227-3.006-5.232-3.006Z" transform="translate(-26.932 -318.956)" fill="#263238"/>
      <path id="Path_34413" data-name="Path 34413" d="M32.424,353.157s-1.437-3.2-7.045-1.105-7.846,5.288-4.321,6.4S32.424,353.157,32.424,353.157Z" transform="translate(-19.047 -310.581)" fill="#f8951d"/>
      <path id="Path_34414" data-name="Path 34414" d="M21.668,358.625a3.265,3.265,0,0,1-1-.144c-1.53-.486-1.867-1.293-1.879-1.884-.039-1.658,2.392-3.63,6.194-5.044,5.779-2.144,7.376,1.232,7.393,1.265a.282.282,0,0,1-.077.332C32.022,353.393,25.563,358.625,21.668,358.625Zm6.84-7.243a9.647,9.647,0,0,0-3.315.691c-4.05,1.5-5.862,3.392-5.835,4.508,0,.746.823,1.16,1.5,1.376,3.055.972,9.741-4.155,10.929-5.094a3.625,3.625,0,0,0-3.254-1.481Z" transform="translate(-18.789 -310.358)" fill="#263238"/>
      <path id="Path_34415" data-name="Path 34415" d="M24.5,357.727l-.359-.425c3.238-2.763,9.05-3.4,9.3-3.431l.061.553C33.455,354.428,27.6,355.086,24.5,357.727Z" transform="translate(-21.184 -311.713)" fill="#263238"/>
      <path id="Path_34416" data-name="Path 34416" d="M72,281.955s.961,2.243,2.884,1.763,2.4-3.365,5.442-2.564,5.608,4.321,5.608,2.724-3.868-5.768-8.172-5.768S72.133,279.872,72,281.955Z" transform="translate(-42.601 -277.812)" fill="#f8951d"/>
      <path id="Path_34417" data-name="Path 34417" d="M85.429,284.322c-.37,0-.856-.37-1.624-.956a12.118,12.118,0,0,0-3.812-2.21c-1.729-.453-2.531.365-3.387,1.232a4.182,4.182,0,0,1-1.917,1.332c-1.7.425-2.84-1.072-3.2-1.923a.249.249,0,0,1,0-.127c.21-2.718,2.243-4.1,6.039-4.1,4.365,0,8.448,4.155,8.448,6.044a.641.641,0,0,1-.3.635.514.514,0,0,1-.243.072ZM79.064,280.5a4.347,4.347,0,0,1,1.072.144,12.228,12.228,0,0,1,4.006,2.282,6.37,6.37,0,0,0,1.243.84.624.624,0,0,0,0-.127c0-1.348-3.553-5.492-7.9-5.492-3.47,0-5.265,1.149-5.481,3.519.16.337,1.011,1.923,2.53,1.542a3.79,3.79,0,0,0,1.658-1.182A3.949,3.949,0,0,1,79.064,280.5Z" transform="translate(-42.366 -277.57)" fill="#263238"/>
      <path id="Path_34418" data-name="Path 34418" d="M53.141,363.085a20.4,20.4,0,0,0-.713-2.315c-2.751-7.332-9.183-6.227-9.453-6.16l-.1-.553c.072,0,7.183-1.276,10.078,6.509a21.384,21.384,0,0,1,.729,2.37Z" transform="translate(-29.565 -311.762)" fill="#263238"/>
      <path id="Path_34419" data-name="Path 34419" d="M95.05,339.729s1.442-3.2,7.044-1.1,7.851,5.282,4.326,6.4S95.05,339.729,95.05,339.729Z" transform="translate(-52.915 -304.573)" fill="#f8951d"/>
      <path id="Path_34420" data-name="Path 34420" d="M105.309,345.2c-3.868,0-10.332-5.232-10.63-5.475a.282.282,0,0,1-.077-.326c0-.033,1.619-3.414,7.4-1.265,3.8,1.409,6.232,3.387,6.194,5.039,0,.591-.354,1.4-1.884,1.89A3.39,3.39,0,0,1,105.309,345.2ZM95.2,339.441c1.182.934,7.879,6.078,10.929,5.089.674-.215,1.481-.624,1.5-1.37,0-1.105-1.79-3.011-5.835-4.514C97.243,336.96,95.6,338.844,95.2,339.441Z" transform="translate(-52.704 -304.351)" fill="#263238"/>
      <path id="Path_34421" data-name="Path 34421" d="M105.631,344.582c-2.608-3.221-8.216-2.95-8.288-2.945l-.033-.552c.243,0,5.951-.293,8.735,3.149Z" transform="translate(-53.926 -305.99)" fill="#263238"/>
      <path id="Path_34422" data-name="Path 34422" d="M86.431,341.812l-.221-.508a9.116,9.116,0,0,1,4.939-.669l-.1.553A8.674,8.674,0,0,0,86.431,341.812Z" transform="translate(-48.959 -305.75)" fill="#263238"/>
      <path id="Path_34423" data-name="Path 34423" d="M38.27,327.183a13.674,13.674,0,0,0-6.564-3.9c-.033-.028-4.834-1.249-6.63.392l-.376-.409c2.011-1.845,6.906-.58,7.116-.525a13.181,13.181,0,0,1,6.84,4.05Z" transform="translate(-21.434 -297.574)" fill="#263238"/>
      <rect id="Rectangle_5359" data-name="Rectangle 5359" width="0.553" height="1.37" transform="translate(17.147 10.398) rotate(-12.62)" fill="#263238"/>
      <path id="Path_34424" data-name="Path 34424" d="M58.995,370.6h-.553c0-.276.713-27.659,0-35.913s-4.017-18.045-4.05-18.15L51,301.282l.553-.122L54.967,316.4c0,.066,3.359,9.906,4.072,18.233S59.006,370.329,58.995,370.6Z" transform="translate(-33.203 -288.126)" fill="#263238"/>
      <rect id="Rectangle_5360" data-name="Rectangle 5360" width="1.459" height="0.553" transform="translate(39.499 17.465) rotate(-64.94)" fill="#263238"/>
      <path id="Path_34425" data-name="Path 34425" d="M68.053,375.387H67.5c0-.254.254-25.255,1.2-32.372s4.763-18.365,4.8-18.476l5.879-12.619.5.232-5.868,12.586c-.028.083-3.823,11.277-4.763,18.349S68.058,375.133,68.053,375.387Z" transform="translate(-40.587 -292.941)" fill="#263238"/>
      <path id="Path_34426" data-name="Path 34426" d="M70.653,401.972l-.553-.033c.95-16.089,2.619-30.565,2.635-30.708l.553.066C73.266,371.44,71.6,385.894,70.653,401.972Z" transform="translate(-41.75 -319.482)" fill="#263238"/>
      <path id="Path_34427" data-name="Path 34427" d="M53.376,403.769h-.553c0-.232.47-22.99-.464-26.023-.32-1.039-.751-1.658-1.243-1.812a1.044,1.044,0,0,0-.878.2l-.061.055h-.083c-.044,0-4.321.552-5.835,2.961l-.47-.293c1.558-2.492,5.525-3.122,6.16-3.2a1.569,1.569,0,0,1,1.315-.26c.691.2,1.238.939,1.619,2.182C53.851,380.679,53.4,402.829,53.376,403.769Z" transform="translate(-29.977 -321.323)" fill="#263238"/>
      <path id="Path_34428" data-name="Path 34428" d="M62.786,402.972l-.553-.028c0-.227,1.138-22.454-.094-29.355l.553-.1C63.925,380.457,62.8,402.745,62.786,402.972Z" transform="translate(-38.188 -320.493)" fill="#263238"/>
      <path id="Path_34429" data-name="Path 34429" d="M72.263,389.476c0-1.365-.3-33.466,2.558-41.085a10.365,10.365,0,0,1,3.74-5.061l.315.453a9.813,9.813,0,0,0-3.536,4.8c-2.818,7.525-2.531,40.554-2.525,40.886Z" transform="translate(-42.714 -306.997)" fill="#263238"/>
      <path id="Path_34430" data-name="Path 34430" d="M59.834,384.464l-.553-.077c.68-4.939-.663-33.6-4.531-44.648a22.427,22.427,0,0,0-4.011-7.249l.425-.359a23.206,23.206,0,0,1,4.138,7.426C59.138,350.672,60.514,379.5,59.834,384.464Z" transform="translate(-33.087 -301.985)" fill="#263238"/>
      <path id="Path_34431" data-name="Path 34431" d="M68.053,392.909H67.5c0-.282.171-28.084.4-41.819h.553C68.224,364.853,68.058,392.633,68.053,392.909Z" transform="translate(-40.587 -310.469)" fill="#263238"/>
      <path id="Path_34432" data-name="Path 34432" d="M68.833,317.59H68.28c.188-11.089.37-18.835.553-23.018.4-10.8.989-11.791,1.271-11.984.265-.6,1.547-2.807,6.078-2.519l-.039.552c-4.669-.3-5.525,2.177-5.58,2.282l-.133.414-.094-.094c-.2.6-.652,2.845-.978,11.354C69.23,298.755,69.02,306.5,68.833,317.59Z" transform="translate(-40.936 -278.677)" fill="#263238"/>
      <path id="Path_34433" data-name="Path 34433" d="M55.437,361.076s-4.006-3.569-2.4-5.326,11.531-3.044,14.415-.762-3.525,5.525-5.928,6.2S56.238,361.629,55.437,361.076Z" transform="translate(-33.944 -311.665)" fill="#f8951d"/>
      <path id="Path_34434" data-name="Path 34434" d="M58.112,361.636a5.932,5.932,0,0,1-3.05-.608h0c-.111-.1-2.763-2.486-2.868-4.42a1.707,1.707,0,0,1,.442-1.3c1.735-1.906,11.774-3.177,14.791-.8a1.829,1.829,0,0,1,.8,1.834c-.42,2.16-4.973,4.315-6.823,4.851a11.823,11.823,0,0,1-3.293.442ZM55.4,360.591c.718.508,3.47.762,5.834.066,2.006-.586,6.078-2.68,6.437-4.42a1.282,1.282,0,0,0-.608-1.293c-2.718-2.155-12.514-.939-14.034.729a1.155,1.155,0,0,0-.3.9C52.808,358.21,55.222,360.431,55.4,360.591Z" transform="translate(-33.735 -311.418)" fill="#263238"/>
      <path id="Path_34435" data-name="Path 34435" d="M64.273,362.705H63.72a7.415,7.415,0,0,1,.088-1.105l.553.088A6.922,6.922,0,0,0,64.273,362.705Z" transform="translate(-38.895 -315.173)" fill="#263238"/>
      <path id="Path_34436" data-name="Path 34436" d="M65.043,356.756l-.553-.155a19.092,19.092,0,0,1,1.044-2.7l.5.249A17.973,17.973,0,0,0,65.043,356.756Z" transform="translate(-39.24 -311.727)" fill="#263238"/>
      <path id="Path_34437" data-name="Path 34437" d="M55.437,403.286s-4.006-3.569-2.4-5.326,11.531-3.044,14.415-.762-3.525,5.525-5.928,6.2S56.238,403.872,55.437,403.286Z" transform="translate(-33.944 -330.554)" fill="#f8951d"/>
      <path id="Path_34438" data-name="Path 34438" d="M58.113,403.888a5.932,5.932,0,0,1-3.05-.608h0c-.111-.1-2.763-2.492-2.868-4.42a1.724,1.724,0,0,1,.448-1.3c1.735-1.9,11.78-3.177,14.791-.79a1.829,1.829,0,0,1,.8,1.834c-.42,2.16-4.973,4.315-6.823,4.851A11.825,11.825,0,0,1,58.113,403.888ZM55.4,402.844c.718.508,3.47.757,5.834.066,2.006-.586,6.078-2.68,6.437-4.42a1.293,1.293,0,0,0-.608-1.3c-2.718-2.149-12.514-.939-14.034.735a1.149,1.149,0,0,0-.3.9C52.809,400.462,55.223,402.683,55.4,402.844Z" transform="translate(-33.736 -330.327)" fill="#263238"/>
      <path id="Path_34439" data-name="Path 34439" d="M64.273,401.509H63.72a14.622,14.622,0,0,1,1.492-5.359l.5.249A14.424,14.424,0,0,0,64.273,401.509Z" transform="translate(-38.895 -330.633)" fill="#263238"/>
      <path id="Path_34440" data-name="Path 34440" d="M61.552,387.321s-2.718-2.426-1.63-3.613,7.829-2.066,9.785-.519-2.392,3.735-4.022,4.216A6.273,6.273,0,0,1,61.552,387.321Z" transform="translate(-37.08 -324.462)" fill="#f8951d"/>
      <path id="Path_34441" data-name="Path 34441" d="M63.317,387.755a4.177,4.177,0,0,1-2.133-.425h0c-.077-.066-1.912-1.713-1.978-3.055a1.249,1.249,0,0,1,.326-.95c1.193-1.309,8.094-2.21,10.161-.552a1.32,1.32,0,0,1,.553,1.332c-.315,1.591-3.6,3.039-4.7,3.365a8.287,8.287,0,0,1-2.232.287Zm-1.8-.84a6.22,6.22,0,0,0,3.868.033c1.343-.4,4.083-1.79,4.3-2.939.039-.182.039-.464-.376-.8-1.823-1.442-8.387-.63-9.393.486a.735.735,0,0,0-.182.553C59.781,385.142,61.03,386.446,61.516,386.915Z" transform="translate(-36.874 -324.244)" fill="#263238"/>
      <path id="Path_34442" data-name="Path 34442" d="M67.553,386.08H67a10,10,0,0,1,1.022-3.68l.492.249A9.729,9.729,0,0,0,67.553,386.08Z" transform="translate(-40.363 -324.48)" fill="#263238"/>
      <rect id="Rectangle_5361" data-name="Rectangle 5361" width="10.84" height="24.029" transform="translate(20.714 78.467)" fill="#263238"/>
      <path id="Path_34443" data-name="Path 34443" d="M66.891,443.677H56.056a.276.276,0,0,1-.276-.276V419.366a.276.276,0,0,1,.276-.276H66.891a.276.276,0,0,1,.276.276V443.4A.276.276,0,0,1,66.891,443.677Zm-10.558-.553H66.615V419.643H56.333Z" transform="translate(-35.342 -340.899)" fill="#263238"/>
    </g>
    <g id="freepik--Board--inject-24" transform="translate(58.079 42.01)">
      <rect id="Rectangle_5362" data-name="Rectangle 5362" width="161.642" height="127.149" transform="translate(1.823 0.276)" fill="#263238"/>
      <path id="Path_34444" data-name="Path 34444" d="M254.624,169.712H92.976a.282.282,0,0,1-.276-.276V42.286a.276.276,0,0,1,.276-.276H254.624a.276.276,0,0,1,.276.276V169.435a.282.282,0,0,1-.276.276Zm-161.371-.553h161.1V42.557H93.253Z" transform="translate(-91.153 -42.01)" fill="#263238"/>
      <rect id="Rectangle_5363" data-name="Rectangle 5363" width="156.841" height="123.37" transform="translate(4.227 2.166)" fill="#fff"/>
      <path id="Path_34445" data-name="Path 34445" d="M254.167,169.352H97.326a.276.276,0,0,1-.276-.276V45.706a.276.276,0,0,1,.276-.276H254.167a.276.276,0,0,1,.276.276v123.37A.276.276,0,0,1,254.167,169.352ZM97.6,168.8H253.891V45.983H97.6Z" transform="translate(-93.1 -43.54)" fill="#263238"/>
      <rect id="Rectangle_5364" data-name="Rectangle 5364" width="164.736" height="3.221" transform="translate(0.276 127.392)" fill="#263238"/>
      <path id="Path_34446" data-name="Path 34446" d="M254.918,275.854H90.176a.276.276,0,0,1-.276-.276v-3.221a.276.276,0,0,1,.276-.276H254.918a.276.276,0,0,1,.276.276v3.221A.276.276,0,0,1,254.918,275.854ZM90.453,275.3H254.642v-2.669H90.453Z" transform="translate(-89.9 -144.964)" fill="#263238"/>
    </g>
    <g id="freepik--chart-2--inject-24" transform="translate(139.612 135.268)">
      <path id="Path_34447" data-name="Path 34447" d="M250.631,210.8a13.161,13.161,0,1,0,13.161,13.161A13.161,13.161,0,0,0,250.631,210.8Zm0,19.669a6.509,6.509,0,1,1,6.5-6.509A6.509,6.509,0,0,1,250.631,230.469Z" transform="translate(-237.47 -210.8)" fill="#f8951d"/>
      <path id="Path_34448" data-name="Path 34448" d="M242.63,216.088l5.166,4.2a6.486,6.486,0,0,1,3.591-2.332l-1.558-6.475a13.139,13.139,0,0,0-7.2,4.608Z" transform="translate(-239.779 -211.104)" fill="#9c9c9c"/>
      <path id="Path_34449" data-name="Path 34449" d="M240.324,219.82a13.161,13.161,0,0,0,6.078,20.636l2.127-6.31a6.5,6.5,0,0,1-3.028-10.128Z" transform="translate(-237.473 -214.836)" fill="#263238"/>
    </g>
    <g id="freepik--chart-1--inject-24" transform="translate(74.284 137.318)">
      <path id="Path_34450" data-name="Path 34450" d="M220.772,246.033H210.136a.276.276,0,1,1,0-.553h10.636a.276.276,0,0,1,0,.553Z" transform="translate(-159.786 -228.369)" fill="#263238"/>
      <path id="Path_34451" data-name="Path 34451" d="M220.772,250.732H210.136a.276.276,0,1,1,0-.553h10.636a.276.276,0,0,1,0,.553Z" transform="translate(-159.786 -230.472)" fill="#263238"/>
      <path id="Path_34452" data-name="Path 34452" d="M220.772,255.433H210.136a.276.276,0,1,1,0-.553h10.636a.276.276,0,0,1,0,.553Z" transform="translate(-159.786 -232.575)" fill="#263238"/>
      <rect id="Rectangle_5365" data-name="Rectangle 5365" width="5.188" height="23.614" fill="#f8951d"/>
      <rect id="Rectangle_5366" data-name="Rectangle 5366" width="5.188" height="14.012" transform="translate(7.011 9.603)" fill="#263238"/>
      <rect id="Rectangle_5367" data-name="Rectangle 5367" width="5.188" height="9.343" transform="translate(14.017 14.277)" fill="#f8951d"/>
      <rect id="Rectangle_5368" data-name="Rectangle 5368" width="5.188" height="15.829" transform="translate(21.023 7.785)" fill="#263238"/>
      <rect id="Rectangle_5369" data-name="Rectangle 5369" width="5.188" height="12.326" transform="translate(28.029 11.288)" fill="#f8951d"/>
      <rect id="Rectangle_5370" data-name="Rectangle 5370" width="5.188" height="14.509" transform="translate(35.035 9.105)" fill="#263238"/>
      <rect id="Rectangle_5371" data-name="Rectangle 5371" width="5.188" height="4.928" transform="translate(42.046 18.686)" fill="#f8951d"/>
    </g>
    <g id="freepik--Map--inject-24" transform="translate(72.002 49.834)">
      <path id="Path_34453" data-name="Path 34453" d="M148.693,103.176C149.985,102.225,148.941,104.767,148.693,103.176Zm-1.05.094a.441.441,0,0,0,.486-.553C148.013,102.8,147.052,103.27,147.643,103.27Zm2.1-7.735a2.022,2.022,0,0,1,.762-.359c-.486-.5-1.149-.409-1.774-.4a.713.713,0,0,0,1.011.729Zm60.936,34.112c-.227.32-.066,2.077.553,1.475.326-.359-.436-1.37-.553-1.5Zm24.863,22.548a1.934,1.934,0,0,0,.978,1.282.475.475,0,0,0,0-.3h.337c0-.442.127-.553.127-.956-.3.094-1.475-.26-1.442,0,.006.022-.017-.077-.017-.05Zm1.249-.641a.436.436,0,0,0,.348.414c0-.337-.133-.414-.348-.414-.017,0,.011-.028-.017-.028Zm-1.464-.11c-.227.122-.083.309.077.376,0-.039.05-.431-.077-.376-.055-.017.006-.039-.017-.028Zm9.658,3.641c.652,0,.8-1.343,1.591-1.519-.348-.8.967-.674,0-1.3-.746-.492-.448.348-.89.884s-1.105.6-1.414,1.155c-.215.431-.144.9.691.785Zm-.508.215a.668.668,0,0,0-.138.166h.32c0-.116,0-.3-.182-.166-.044-.006.011-.055-.017-.028Zm2.564-4.973v.84c0-.05-.315,0-.32.232s.232,0,.282.188c0,0,.331.8.525.74.072,0,.265-.425.381-.553.6-.624,1.017-1.37-.2-1.105,0-.365-.138-.923-.365-.376-.249-.177-.287-.74-.553-1.061-.564-.635.232.862.232,1.083Zm-3.989-7.868c.3.519.553.945,1.221,1.017a2.282,2.282,0,0,0-1.238-1.028Zm-13.006-3.95c-.514.1.26.221.442.2v-.171a4.365,4.365,0,0,1-.459-.039Zm4.553.227c-.6.818.21,2.818-1.105,2.42,0,0-1.227-.867-1.249-.934-.232-.553.243-.851.4-1.287a15.565,15.565,0,0,0-1.995-.481c.127.127.111.221.343.37-.116-.083-.807.425-.989.553-.553.381.3.459-.6.652-.3.061-.436-.4-.928-.2-.4.166-.453.757-.912.757a5.51,5.51,0,0,0,.166.553h-.354v-.3c-.553-.033-.713,1.216-1.321,1.536-.459.243-1.166.315-1.658.553-.221.088-.365.884-.63.215a2.16,2.16,0,0,0,.1,1.912c-.807-.4.066.967.232,1.453.337.989.669,1.658,0,2.271.464,0,.735.553,1.332.464.343-.05.508-.5.89-.586s.619.232.873.16.282-.326.508-.425.453-.359.7-.475.315.193.519.116c.724-.3,1.542-.762,2.381-.276.508.3.995,2.42,1.536.514.381.138,0,.436.039.8.475-.309.293.127.26.6.785-.166.431.591,1.011,1.105a4.11,4.11,0,0,0,.923.309c.4,0,.271-.431.525-.442s.254.519.414.481a2.513,2.513,0,0,0,1.95-1.348,10.432,10.432,0,0,1,.553-1.658,3.868,3.868,0,0,0,.16-3.586,2.21,2.21,0,0,0-.481-.6c-.133-.16-.133-.442-.221-.553a3.076,3.076,0,0,1-.553-.271c-.133-.133-.122-.464-.26-.624s-.669-.348-.818-.553a18.657,18.657,0,0,1-.74-1.934c-.083-.149-.332-.26-.464-.486s-.072-.95-.442-1.05a1.584,1.584,0,0,0-.111.265Zm6.779-.867c.111.193.238.133.387.066C241.685,137.719,241.255,137.586,241.376,137.868Zm-1.972-1.492c0,.188.387.425.5.4-.1-.271-.387-.442-.387-.7a.326.326,0,0,0-.16,0,.768.768,0,0,1,.033.293Zm-2.326-.265c.044.553,1.525.293,1.387-.6-.072,0-1.387.812-1.387.6-.011.061-.017-.044-.017-.011Zm-6.757,1.105c0,.083.58.188.3-.425a.326.326,0,0,0-.32.425Zm-2.077-.271c.044.232.265.182.442.094-.166-.149-.249-.044-.459-.094Zm3.409-.884a.674.674,0,0,0-.243.492c-.017.359.768-.873.215-.492Zm-.553-.713c.365-.182.834.171,1.188.354s.6.066.807.47c.282.553-.039.4,0,.713,0,.077-.4.066-.221.431.077.166.553-.215.7-.171.508.155.707.657,1.337.442.381-.122.365-.735,1-.486.249.1.309.436.553.553a1.426,1.426,0,0,0,.79.337c.878.221.586.287.155-.376-.061-.1-.486-.044-.553-.111a3.871,3.871,0,0,0-.182-.553c0-.066-.553-.492.133-.425a3.868,3.868,0,0,0-1.066-.956,6.547,6.547,0,0,0-1.707-.718c-.928-.332-.879-.133-1.613,0-.459.083-.961-.16-1.6,0,.072.276.166.553.287.47-.033.022-.033.039-.033.028Zm-3.2-.956c-.354.088.315.182.442.155-.028-.254-.276-.193-.47-.155Zm4.171-.337a2.121,2.121,0,0,1,.039.475h.4c-.061-.21-.171-.111-.171-.475h-.271c-.022.033.077-.011-.028,0Zm-1.7,0a.276.276,0,0,0-.26.094c.42.265.873.652,1.431.37-.47-.912-.773-.26-1.2-.436Zm-.094-.149c.553-.613-.95-.2,0,0,.033-.05-.061.017-.028.028Zm-.409.553c.149.072.21.486.271-.039-.232.061-.254.077-.3.061Zm-.718.514c0,.16.84.309,1.105.309-.1-.475-1.061-.343-1.133-.287Zm-.326.061-.332-.083C228.685,135.47,228.906,135.089,228.823,135.033Zm.5-2.409c-.287.436-.492.5-.47,1.105.039.878.238-.188.718-.1,0-.293-.111-.553-.348-.553a1.525,1.525,0,0,0,.1-.486c-.066.111-.028.111-.028.061Zm-3.785,2.37a5.636,5.636,0,0,1,.359.514,5.424,5.424,0,0,0,.083.553c.287-.21.221-.845.221-1.193h.243c.028.144.464,1.216.635,1.105.3-.149-.26-1.326-.436-1.58,1.84.061-1.133-1.144-1.133.624Zm2.337-1.884c-.315.127-2.1-.138-2.017.685a4.116,4.116,0,0,1,1.37-.376c.193-.05.254.193.486.088.122-.061.6-.6.16-.4Zm-.42,4.768c0,.387,1.359-.348,1.508-.514-.564-.249-1.448.359-1.536.536Zm-.166.376c-.166,0-.2.088-.122.221h.238c.028-.111,0-.271-.116-.221s0,.006-.028.022Zm-1.271-.906c.354.387,1.453.066,1.856-.122a5.073,5.073,0,0,0-1.884.144Zm-.144.287c-.5.166.42.442.586.431C226.392,137.978,226.049,137.6,225.873,137.636Zm-1.006-.381a4.892,4.892,0,0,0,.928.094c-.061,0-.072,0-.039-.122a4.309,4.309,0,0,0-.89,0Zm-4.376-.751a3.365,3.365,0,0,0,1.9.608,8.111,8.111,0,0,0,2.072.326.818.818,0,0,0-1.006-.431c.028-.315.232-.166.442-.3a15.874,15.874,0,0,0-3.437-.177Zm-1.232-.641C219.176,136.067,219.231,136.166,219.259,135.862Zm2.868-3.022c-.553.414-.2,1.155.1,1.591.436.657.619.591,1.453.74s.553.4,1.05-.376a6.08,6.08,0,0,1,.2-.823c.122-.227.586-.326.724-.663-.553-.381-.387-.481-.5-1.321.409,0,.282-.276.685-.431a3.868,3.868,0,0,1-.884-.779c-.32,0-.553.619-.8.867-.58.564-1.552,1.63-2.05,1.216Zm-4.254,1.315a1.691,1.691,0,0,0,.724,1.077c-.055-.4-.724-1.05-.724-1.077-.022.088-.028-.022-.028.022Zm-.646-.983c.1.215.293.276.387.492a.552.552,0,0,0-.326-.553c-.1.21-.028.1-.088.083Zm-.3-.58c0-.066-.122-.254-.122-.055a.26.26,0,0,0,.243.287c.022-.088-.017-.166-.149-.21Zm.144-1.017c-.227,0-.348-.249-.553-.215.094.514.834,1.028,1.105,1.376.387.553.713,1.315,1.105,1.912.282.392.95,1.47,1.332,1.475.84,0,.365-.867,1.028-1.105-.072-.553-.553-.79-.972-.464a6.757,6.757,0,0,0-3.039-2.995Zm10.426-1.536c-.436.05-.818.376-.586.912.354-.934.867.138,1.431.409-.2-.47.155-.553.166-.58s.171-1.227-.182-1.227-.425.79-.829.486c-.088.039,0,.05-.028.022Zm-1.193-2.055c0,.16.453,1.42.79,1.354-.171.409.431.691.282-.116a2.343,2.343,0,0,0-1.072-1.238c-.033.083-.005.033-.028.022Zm.586-.066c.5.387.84,1.133,1.387,1.249,0-.68-.553-.834-.553-1.442-.332,0-.492.193-.812.193.011.072.011.022-.05.022Zm-.768.4c-.3.635-1.072,1.271-1.227,1.8.669,0,1.227-1.066,1.227-1.8-.017.05-.017.094-.017.022Zm.315-2.6a1.222,1.222,0,0,0,.232,1.928c-.055-.4.807-1.906-.26-1.906Zm.392-2.8c0-.215-.8.5-.685,1.32h.243c-.028-.525.414-.8.414-1.3Zm10.288-9.945c-.4.077-.663.442-1.193.486a2.022,2.022,0,0,1-1.453-.448c0,.2-.26,1.713-.5,1.16-.1.2-.47,1.166.122.856v.227c-.359.072-.553,1.332-.928,1.823v-.359a1.4,1.4,0,0,0-.4.663c-.088-.138-.238.1-.177-.287a1.171,1.171,0,0,0-.4.912,1.994,1.994,0,0,0-2.453,1.326h.464c0,.431-.431.619.166.807,0-.453.663-1.105,0-1.171.144-.459,1.149-.459,1.575-.553-.464.315-1.2,0-1.028.867a3.443,3.443,0,0,0,.983-.624c.188.475.707.1.624-.309,1.6-.2,1.293-.282,1.658-1.751.21-.812.459-1.448-.238-2.083.47-.1,1.26.387,1.232-.182.343.083,1.934-.884,1.934-1.37-.039.05-.011.072-.011.05Zm.746-.425c-.171.033-.254.16-.409.249.254.16.32,0,.409-.249-.055.044-.061.127-.028.039Zm1.972-2.37a1.8,1.8,0,0,1-.243.508.431.431,0,0,0,.215-.47Zm4.823-2.337c-.039,0-.116-.221-.221-.127a.768.768,0,0,0,0,.254c.017.055.271.088.193-.088Zm-.553.072c-.077-.249-.055-.409-.265-.553,0,.238.044.442.061.674.144.044.249.05.2-.094-.033-.022-.005.039-.022.011Zm-1.05-2.409c.149,0,.254-.2.265-.32-.354-.149-.387.088-.525.32a.685.685,0,0,0,.238.039Zm9.315-3.089a4.166,4.166,0,0,0,1.149.171c-.287-.619-.912-.144-1.149-.171.039.044-.055.028-.022.039Zm-3.613-5.4a6.316,6.316,0,0,0,1.431-.1,1.039,1.039,0,0,0-.8-.47c-.1,0-.972.481-.635.553Zm-12.6-3.392c.392.171,1.7.7,1.7-.116-.553,0-1.414.055-1.658-.37-.039.039-.182.425-.055.486.055.006-.006-.022.033,0Zm-2.426,1.42a6.437,6.437,0,0,1,1.392.155c-.138-.757-.9-.564-1.37-.155Zm.4-.553c.265,0-.227-.249-.381-.243.022.265.188.238.4.238Zm-1.486-1.017c.436.7,2.9.514,3.061-.37-.387-.083-.884-.343-.884.365a.6.6,0,0,0-.243,0c.425-.983-.5-.425-.818-.431C233.138,93.021,232.983,92.684,232.646,93.468Zm-.425-.177a.365.365,0,0,1,0-.265c-.448-.066-.221.448,0,.265-.006-.017-.044.044,0,.011Zm-.221.956c.138.359.122.553.519.519a2.718,2.718,0,0,0-.519-.508Zm-10.73-3.26a.519.519,0,0,0-.68-.177c.055.072.773.442.68.177-.017-.028.011.044,0,.011Zm-4.7,1.039a1.221,1.221,0,0,1,.425,0c-.05-.547-.265-.1-.425.011Zm1.751-.768c.083,0,1.989-.448,2.039-.508.47-.68-.945-.613-1.05-.663.094-.111.133-.116.166-.249C218.646,89.661,218.237,91.258,218.325,91.258Zm-1.287-2.21c-1.4.227-1.21,1.105.088,1.227.978.1,1.044.127.995-.519-.061-.878,0-.442-.74-.442a.552.552,0,0,0,.1-.26C217.331,89.048,217.187,89.048,217.038,89.048Zm-1.21.088c.553.326,1.348-.553,1.658-.757a1.724,1.724,0,0,0-2.321.42,3.907,3.907,0,0,0,.652.337Zm-.16.2c-.271,0-.459-.171-.74-.111C214.961,90.153,216.032,89.335,215.668,89.335Zm-.829-1.448c-.608,0-.138.282-.182.359C214.535,88.462,215.441,87.888,214.839,87.888ZM199.1,98.3c-.348-.066-.934-.525-.68.4.227,0,.641-.127.68-.4-.022-.006-.006.028,0,0Zm1.558-3.216c-.359-.039-1.105.989-1.105,1.53.21-.05.348-.193.47.088a.144.144,0,0,0,.077-.177c.459.254.144.553.392.663a3.658,3.658,0,0,0,1.3.1c-.044-.553-.591-.707-.624-1.21-.044-.619.425-.978.768-1.354a5.166,5.166,0,0,1,2.763-1.658c.343-.094,1.807-.425,1.658-.84-.227-.608-1.072.072-1.37.171-.735.26-3.166.332-3.166,1.315a1.188,1.188,0,0,0-.442,0c.376.707-.945.68-.829,1.155.138-.033.177-.088.326-.066-.077.2.122.337-.2.309Zm6.078.2a.956.956,0,0,0,.58-.265c.16-.1-1.111.265-.591.265Zm-2.879-7.033c.453.751.757.039,1.265-.066-.481-.293-.834.227-1.276.066Zm-.989,0c0,.26-.166.182-.282.4a2.088,2.088,0,0,0,1.105.055c-.326-.464-.293-.8-.834-.453Zm-.155.8a1.072,1.072,0,0,1-.32.066c.055.3.238.133.464.088C202.861,89.081,202.861,89.009,202.717,89.048Zm-1.409-.133c.188.177.215.453.5.044,0,.492.586,0,.663-.044a.4.4,0,0,0,0-.182,2.663,2.663,0,0,0-1.166.182Zm-1.155.044a1.7,1.7,0,0,1,1.558-.4c-.122-.8.663.282.762-.464a2.546,2.546,0,0,1-.5,0c.066-.11.2-.365.243-.42-.276,0-.459.193-.608.243a4.7,4.7,0,0,0-.553.177c-.149.1-.2.326-.4.486s-.409.05-.519.381Zm-1.608-.6c-.6,0-.746.232-1.309.11.028.475.768.155,1.105.155-.7.553.481.7.829.2.558-.818.033-.464-.624-.464Zm-11.553.757c.127.365.862-.127,1.006.287h-.608c.365,1.105,2.381.122,2.845-.177-.453-.553-1.105-.094-1.492-.227.072-.166.177-.133.144-.331-.481.2-.354,0-.63.553-.177-.508-1.475-.624-1.265-.111.011.044-.022-.061,0,.006Zm-.812,1.658c0,.122-1.077.05-1.21.553.265-.061,1.077-.265,1.188-.11-.166.116-1.044.276-1.055.354s.768.553.934.823a2.917,2.917,0,0,0,1.022-1.879,2.21,2.21,0,0,1,.553,0c-.066.553.055.16.265.47.155.227-.166.42-.166.657.553-.381.613.122.829.088s.619-.3.845-.359c-.243-.354-.492.055-.492-.464A6.249,6.249,0,0,1,187,89.728a.348.348,0,0,1-.326,0,1.785,1.785,0,0,0,.149-.354c-.608-.315-.624.05-.906.138.138-.044-.215.37-.254.387.088-.039-.155-.553-.193-.553a4.608,4.608,0,0,1-.663.3c.077-.138.111-.287.182-.4-.359.088-1.862.481-.669.669a3.173,3.173,0,0,1,0,.729c-.221-.122-.193-.332-.464-.4.111.238.553,1.017.553.315.254,0,.271.442.63.309.138-.05.221-.337.354-.354,0,0,.757-.077.8.265-.011.033-.022-.077-.011.017Zm49.892,14.365c1.011,0,1.182-.475,1.879-.309.387.077-.077.37.32.486.553.149.387-.475.884-.05.044-.3.221-.066.448-.088-.127-.553-.32-.066-.122-.646a3.022,3.022,0,0,1,.8-.939c.652-.4,1.2-.243,1.2.553.878-.182,1.105-1.5,1.934-1.32-.553.5-.746,1.287-1.365,1.851-.785.707-1.774,1.105-2.055,2.033a5.4,5.4,0,0,0-.061,2.26c.166.851.077.989.657.652s.669-1.9,1.658-1.619c-.26-.553-.066-1.282.5-.89a3.493,3.493,0,0,1-.077-1.105c-.033-.138-.271-.039-.365,0a4.2,4.2,0,0,1,.464-1.2c.337-.337.376-.144.8-.249.227-.05.144.171.293.16s.271-.392.442-.4a6.14,6.14,0,0,0,.641.044c.508-.066.094.337.492.42,0-1.05,2.276-1.7,2.923-1.906s.646.553.442-.4c-.182-.862-.58-.519-1.105-.89-.287-.238,1.2-.177,1.193-.171a.613.613,0,0,0,.365-.934c.3,0,.343.32.442.332a6.25,6.25,0,0,1,.762.177c.409.21.309.348.829.486.713.2.166.138.553,0s.061-.459.243-.635,1.249.348.807-.514a2.038,2.038,0,0,0-1.558-.4c.249.188.315.63-.1.309-.149-.116.061-.553-.133-.729-.1-.094-.293,0-.381-.1a6.11,6.11,0,0,0-.735-.514c-.42-.243-.685-.414-1.105-.652-.912-.486-2.868-.856-3.448-.2,1.011.453-1.6.856-.2-.138-.42-.343-.774.133-1.193.193a3.625,3.625,0,0,1-1.856-.1,3.124,3.124,0,0,0,0,.508c-.641-.779-.6-1.658-1.934-1.6a5.072,5.072,0,0,1-1.475.094c-.652-.149-.774-.514-1.348-.553.122-.166-.094-.1.2-.265-.856-.553-1.84.8-1.47-.287-.425,0-.856-.26-1.3-.271-.851,0-.652.133-1.437.271,0,.381.4.359.4.774a4.779,4.779,0,0,0-.945-.166c.072.116.271.287.2.475-.387-.083-.459-.409-.823-.481h-1.011c-.553.149-.436.718-.845.718a8.019,8.019,0,0,1-.807-.884c-.072-.193.221-.823,0-1.105-.348-.448-.63.039-.989-.066-.8-.232-1.05-.829-1.05.381a3.05,3.05,0,0,1-1.536-.182c-.2-.094-.326-.392-.58-.464a8.861,8.861,0,0,0-1.89.116v-.343c-.188.066-.486.271-.657.088.044,0,.9-.459.508-.553s-.7.646-1.287.553c.083.553-.8.553-1.276.553a8.216,8.216,0,0,0,2.807-1.862c.215-1.337-2.083-1.221-2.6-1.006.1-.133.177-.166.177-.37a7.942,7.942,0,0,1-.884-.072,3.181,3.181,0,0,1,.348-.481c-1.171-.1-1.216.343-1.939.751a.348.348,0,0,1,.1.238c-.8-.2-.862.392-1.53.475-.243,0-.685-.3-1.05-.249a10.036,10.036,0,0,1-1.188.5,7.453,7.453,0,0,0-1.022.282,3.917,3.917,0,0,0-.912.459c-.337.552.619.177.028.652s-1.856-.149-2.514.492c.177.459,1.348,1.2.691,1.265-.188,0-.436-.381-.553-.42a2,2,0,0,0-1.348-.094c.182.1.425.077.425.376-1.5-.1.243.276.171.8-.243-.414-.89-.144-1.182-.553-.1-.138,0-.845-.1-1.105a.16.16,0,0,1-.16.044c0,.818-.442.492-.525.978,0,0,.127,1.359.155,1.409.431.774.309.072.84.3.652.282.619.657.619,1.105,0,.171.508.26.591.271-.84.608-.674-1.691-1.812-.669a2.543,2.543,0,0,1-.044.757,1.3,1.3,0,0,1-.553.519c-.613.381-.6.227-1.381.166.171-.276.807-.227,1.105-.553a1.442,1.442,0,0,0,.5-1.105c-.464.044-.63-1.984-.58-2.553h.26c.138-.74-.972-.928-1.453-.553-.061.055-.829,1.414-.845,1.475.133-.4.138.961,0,.718.1.238.3.177.442.5.094.21.553.2.442.553-.133.553-.663-.21-.685-.221-.591-.171-1.044-.409-1.608-.619a12.113,12.113,0,0,0-1.53-.685c-.746.122,1.4,1.061-.039,1.658,0-1.232-2.337.9-1.906-.508-.613.4-1.321.42-1.945.878-.1.077-1.448,1.431-1.359.066,1.022.039-.171-.718-.746-.718.254.276.436,1.691.177,1.862.066-.039-.6-.21-.785-.166s-.553.553-.845.553a1.708,1.708,0,0,1,.282.691c-.414-.238-.9,0-1.249-.492-.834.492.42.553.42.845s-.63.116-.68.083c-.624-.32-.309-.243-.591-.746s-.729-.995-1.105-1.536c.337.066,3.868,1.608,3.448-.2-.1-.436-1.061-.834-1.425-.989-.58-.238-1.442-.061-1.7-.238.293-.68-.9-.459-1.171-.735.453,0,.221-.232,0-.365-.586-.343-.348.083-.757.083a2.763,2.763,0,0,0,.122-.431,1.547,1.547,0,0,0-.553,0,4.507,4.507,0,0,0,0,.553c-.1-.282-.193-.227-.392-.425-.077.486-.276.691-.276.066a.868.868,0,0,1,.293,0v-.287c-.171,0-1.265.669-.867.2-.845-.094-.773.414-.326.685-.243-.1-.553,0-.823-.11,0,.26.044.326-.122.47a.7.7,0,0,0-.7-.553c.111.442-.271,1.105-.343.486-.492.553-.033.155-.2.729-.414-.182-.32-.055-.442-.508-.171.066-.265.265-.553.4.077.149.066.077.066.221a.934.934,0,0,0-.807.486c.42-.144,1.039-.553,1.486-.331a3.059,3.059,0,0,0-1.591,2.066,1.464,1.464,0,0,0-.669.414h.326c-.044.436-.967.878-1.249.807a.613.613,0,0,0,.039.332c-1.105.249-1.232.95-1.448,1.823.906-.033-.326.6.5.674,0,.249-.133.287-.1.553.89,0,1.221.111,1.818-.713.392.072.685,1.608,1.033,2.039.094.127-.221.343.028.442.553.249.326-.21.553-.309a10.491,10.491,0,0,1,1.05-.436.32.32,0,0,0,0-.227.552.552,0,0,1-.4-.088c.127-.215.646-.934.691-1.044.127-.37.624-.691-.122-.691,0-.586-.459-1.105.1-1.84.276-.359.79-.381,1.044-.751.171-.249.177-.95.553-1.221.309-.21,1.011.144,1.061.553.122.856-2.409,1.337-1.249,2.823.818,1.044,2.249-.221,3.2.381-.553.6-1.3.337-1.934.425a9.945,9.945,0,0,0-1.105.376c.088.033.16.083.243.122a1.486,1.486,0,0,0-.5.138c.221.635.641-.1.785,0,.282.149.3.309.553.492-.691.967-.646-.166-1.05,0-.486.193-.453,1.354-.464,1.658-.414,0-.95-.249-.6.376-.624-.7-.967.05-1.658.116-.232,0-1.227-.624-1.3.083a1.293,1.293,0,0,1-.658-.243c.077-.768,1.072.32.972-1.044a2.21,2.21,0,0,1-.729.227,2.4,2.4,0,0,1,.122-.475.26.26,0,0,1-.238,0c.088-.724-.083-.856-.591-.282-.359.4-.094.829-.116,1.216-.039,1,.227.453-.475.9a3.039,3.039,0,0,1-1.381.459c.514.735-.486.657-.867.978-.039.028-.354.823-.464.862-.381.127-.613-.254-.867-.227.591,1.105-.553.337-.928.635s.116.238.249.453a4.7,4.7,0,0,1,.635.9c1.149,2.514-1.658.961-2.763,1.486.215.8-.1,1.746.083,2.525s-.05.271.5.663c.354.249.553,0,.867.47.077-.094.066-.138-.039-.133a4.973,4.973,0,0,0,1.757-.956c.188-.193.282.05.42-.166.088-.133-.171-.354-.16-.365.072-.1.122-.553.265-.735s1-.514,1.144-.646-.122-.475.188-.685.718.221,1.006.166c.1,0,.641-.724.928-.674.392.072.785.89,1.105,1.177.978.834,2.7,1.978.265,1.978.652,1.254,1.658-.05,1.956-.79h-.343a1.106,1.106,0,0,1,0-.238,3.685,3.685,0,0,0,.729.155,2.459,2.459,0,0,0-1.553-1.243c.061-.414-.553-.939-.851-.917.083-1.4.9-.155,1.525.343.425.343.983.58,1.221,1.061.149.3.354,1.105.5,1.425-.166-.055-.21-.094-.359-.061.127.376.309.553.553.26.243,1.37,1.072-.1,1.53-.182-.072-.144-.166-.26-.32-.26a.354.354,0,0,1,0,.26c-.238,0-.74-.818-.663-.989.243.149.376.238.646.1a.138.138,0,0,0-.144-.1c.912-1.481,1.42,2.359,1.558,2.359s.127-.5.127-.553a1.238,1.238,0,0,0,.912.315c-.287-.044.464-.21.448-.21.293,0,.42.387.89.26a3.012,3.012,0,0,1,0-.387c.884.2.956.553.63,1.575a2.21,2.21,0,0,1-.8,1.105c-.348.166-.674-.221-.995-.033.5.26.856,1.928,1.431,1.282.856.989,1.066,2.337,1.624,3.37.359.652,1.105,1.16,1.4,1.912.414,1.011-.138,1.619,1.028,1.658.519,0,1.138-.553,1.658-.785s.878-.553,1.354-.774c.6-.309.967-.177,1.387-.713.2-.238.608-.851.867-.729,0-.624,0-.652.425-.845-.044-.3-.5-.635-.707-.823-.365-.343,0-.7-.553-.127-.055-.271-.127-.856-.32-1.022a1.1,1.1,0,0,0-.326.8c-.8-.077-2.061-.044-.58-.337a8.584,8.584,0,0,0-1.216-.486,3.039,3.039,0,0,1-.762-1.105c-.149-1.022.3-.685.845-.26a5.359,5.359,0,0,0,1.713,1.033c.138.055.459-.05.646,0s.177.4.37.486a5.525,5.525,0,0,0,1.658.3,2.988,2.988,0,0,1,2.017.431c.42.26.459.591,1.105.724-1.105,0,.166.635.42.729.42.149.2-.624.646.066.221.326.05.751.1,1.105a9.759,9.759,0,0,0,.586,1.945c.155.453.448,1.923.845,2.21s.834-.21,1.066-.74a3.686,3.686,0,0,0,.2-1.166,5.07,5.07,0,0,1,0-.774c.2-.591.16,0,.553-.436a17.8,17.8,0,0,1,2.343-2.431,7.234,7.234,0,0,1,1.47-.425,4.663,4.663,0,0,1,.746,1.746c.7,0-.1.635.4,1.072.343.293.729-.331.79-.309.553.16.912,1.724.9,2.365,0,.343-.481.7-.271,1.293.122.348.613.674.79,1.105.21.553.646,2.464,1.58,1.972-.32-.608-.32-1.658-.641-2.122-.47-.619-1.022-.586-1.149-1.486-.033-.2-.21-1.105.094-1.387.492-.442.083-.1.553.182s.376.238.751.751c.088.116.392.21.436.282.138.254-.039.47.16.851.4-.624,1.017-.785,1.332-1.265a1.866,1.866,0,0,0-.26-2.315c-.729-1.05-.923-2.321.768-2.321.1.553-.624,1.105-.343,1.4.691.674.84-1.3.823-1.287.3-.3.95-.32,1.293-.436a2.862,2.862,0,0,0,1.105-.641,5.2,5.2,0,0,0,1.8-2.4c.1-.635-.2-.243-.26-.674-.033-.238.177-.188.1-.613-.094-.508-.74-1.149-.729-1.514,0-.707.674-.47.906-.845s.2-.309-.392-.553c-.271-.1-.2.343-.553.343.1-.829-.89-.249-.453-1.022a5.789,5.789,0,0,0,.829-.365c.884-.37.624-.486.26.552.26-.16.961-.553,1.254-.425.619.309.127.414.182.978.95-.436.663,1.221.553,1.724a1.249,1.249,0,0,0,1.437-1.138c0-.652-.762-.724-.608-1.658.033-.182.337-.044.365-.133a5.936,5.936,0,0,1,.166-.8,2.121,2.121,0,0,1,.619-.751c.144-.066.68.061.95,0a1.5,1.5,0,0,0,.74-.492,9.392,9.392,0,0,0,1.359-1.751c.359-.591.26-1.066.5-1.658.785-2.022.431,1.967.431,2.525.149-.166.26-.077.392-.4.182.188,0,.337.409.359-.111-.812-.9-1.53.2-1.53.028,0-.525-2.763-.553-3.083h-.155c0,.663-.166.613-.166,1.221-.459-.3-.37-.945-1.21-1.221-.094.674-.392.448-.646,0a.951.951,0,0,1,0,.354c-.354-.055,0-.3-.26-.553-.553.624,0-.32.2-.553.315-.387.652-.646.995-1.105a2.651,2.651,0,0,1,2.6-1.166Zm-58.787.414a.79.79,0,0,0-.42.508c.166-.05.729-.553.42-.508-.072.072.028.022,0,.022Zm.431,4.973c.4,0,.713-.315.945-.359.359-.061.862.127,1.149,0a1.105,1.105,0,0,0,.553-1.309c-.088-.326-.309.193-.32.177-.133-.155-.11-.409-.221-.508s-.431-.586-.669-.9c-.365-.464-.409-.354-.464-.729-.033-.249.9-1.221-.481-.774.11-.215.127-.4.343-.553-.453-.5-.652.276-.823.425-.028,0-.945.365-.227.5-.061.232-.293.553-.282.713.238.033.553.243.6-.044-.055.867.359.387.652,1.105.337.807-.354.254-.707.735a2.824,2.824,0,0,0,.4.044c0,.243-.553.343-.359.553.11.144.68-.072.867.127-.088.1-1.193.812-.956.812Zm-.348-2.287c.9-.144-1.425-1.409-.884-.221-.425.083-1,.74-.3.7-.906,1.448.359.486,1.105.674a6.281,6.281,0,0,0,.083-1.133Zm21.581,33.791c0-.856.553-2.613-.365-3.017a2.663,2.663,0,0,1-.519,1.16c-.343.348-.867.2-1.216.553s.033,1.182,0,1.42c-.061.448-.238.5-.326,1.066-.1.729.05,1.807.934,1.6s.553-.492.724-1.332c0-.1.227-1.05.243-1.066.05-.066.525-.215.525-.359Zm-6.7-21.172c-.381-1.011-.6-.624-1.448-.735a28.493,28.493,0,0,1-3.315-.884c0,1.221,0,.995-.724,1.006.149,0-.657-.26-.58-.221h-.591a1.055,1.055,0,0,1-.116-.359c-.359-.133-1.437-.326-1.658-.652-.414-.613.464-.724-.282-1.254.2-.182.177-.21.448-.271-.381-.713-1.425-.05-1.984-.039a3.814,3.814,0,0,0-1.972.088,3.2,3.2,0,0,1-1.53.553c-.818,0-1.254-.635-1.254.553h-.608c.276,1.105-.442.381-.6.74-.26.553-.171,1.238-.4,1.6-.144.21-.674.5-.89.8s-.514.829-.768,1.238-1.271,1.459-1.105,2.083c.039.177.613-.072.7.138s-.11.249-.077.348a5.162,5.162,0,0,1-.144,1.691,1.956,1.956,0,0,0,.486,1.707c.608.7,1.177,1.282,1.856,1.934.232.227.348.735.845.845s.635-.149,1.166-.221.818.16,1.138.149c.669,0,.624-.3,1.166-.514a3.315,3.315,0,0,1,1.658,0c.4.2.3.525.9.674,1.033.254.978-.309,1,.89a2.641,2.641,0,0,1-.486,1.6c1.293.448,2.144,3.354,1.934,4.741s-.967,1.453-.315,2.934a12.223,12.223,0,0,1,.768,2.481c.232,1.05.972,1.762,1.243,2.713.232.807-.122,1.066.249,1.508.972,1.171,3.553-.215,4.315-1.105a6.7,6.7,0,0,0,.961-1.376c.171-.409-.055-.995.039-1.243s.729-.326.934-.624c.553-.79-.282-1.105-.122-1.95.127-.669,1.249-1.011,1.575-1.332a2.9,2.9,0,0,0,.646-2.856c-.116-.663-.68-1.658-.448-2.47.309-1.105,1.58-2.144,2.337-2.884a7.183,7.183,0,0,0,1.492-1.906,2.442,2.442,0,0,0,.486-1.2c.1-1.044.254-.8-.553-.8-1.133,0-1.47.47-2.26-.481-.453-.553-1.182-1.072-1.613-1.691a14.54,14.54,0,0,1-1.105-2.707,11.663,11.663,0,0,0-1.337-3.2c-.083-.088-.006.05-.055-.011Zm-41.013,33.99c-.16-.039-.149-.309-.26-.309.05,0-.365.525-.365.519a5.47,5.47,0,0,0,.807.746.238.238,0,0,0-.044.182c-1.293,0-.26,1.254-.464,1.768a1.105,1.105,0,0,1,.326,0,.182.182,0,0,1-.182.21c.21.243.1.1.3.155a9.57,9.57,0,0,0,1.006,1.37,3.024,3.024,0,0,0,2.243.21c-.039-.265-.961-.553-1.155-1.061s-.6-1.746.144-1.658c0-.508.934-1.105.867-1.453s-1.011-.177-.685-1.044c.1-.271.613-.122.724-.271s-.033-.365.1-.525c-.094.11.475-.972.4-.553.133-.713-.481,0-.343-1.033.945.414,1.133.033.989-.934.785,0,1.724.055,2.083-.779s-.348-.685-.492-1.459c.873.122,1.2.459,1.879-.2.315-.315.553-1.569.923-1.514-.05.177-.077.193-.039.359,1.039-.553.746-2.21,1.315-2.928a2.63,2.63,0,0,1,1.4-.884c.829-.265,1.055-.2,1.525-1.105.553-1.055.32-2.652.762-3.5.326-.613,1.033-.983,1.221-1.7a1.149,1.149,0,0,0,0-.878c-.238-.95-.227-.326-.768-.79a2.691,2.691,0,0,0-1.547-.762c-.392-.088-1.774,0-1.2-.315a2.558,2.558,0,0,0-.845-.459c-.707-.149-.553,0-1.044.26a6.188,6.188,0,0,0,.26-.635,4.325,4.325,0,0,1-.63-.188c-.182-.061-.083.448-.459.4.072-.182.807-1.2.116-1.2.122-1.348-1.017-1.414-1.768-1.624-.613-.166-1.967-.851-1.967-1.608-.348.133-.967-.044-.425-.309-.359-.508-1.105.2-1.309.2-.774-.033-1.144-.74-1.879-.89,0,.436-.271.332-.5.6-.039.039.066.635.039.735a1.006,1.006,0,0,1,.116-1.459c-.68-.21-2.586,1.177-2.7,2.122-.066.525.436,1.072.11,1.8a3.691,3.691,0,0,1-1.309,1.376c.066.674-.188.8.442.845-.26.5-.873.8-.519,1.619.083.2.481.249.646.5a6.828,6.828,0,0,1,.431.912,9.349,9.349,0,0,0,.774,2.05,10.782,10.782,0,0,0,1.658,1.3c1.017.878.641,2.763.475,4.122-.088.751-.343,1.464-.425,2.16a9.576,9.576,0,0,1-.3,2.459,12.972,12.972,0,0,0-.519,2.332v.464c0,.149-.276.3-.215.486.282.928.553-.464.812-.486a8.509,8.509,0,0,0-.365,1.934c-.16-.293-.2-.133-.26-.553C150.958,154.073,151.251,154.681,151.234,154.846Zm1.011-28.642a21.308,21.308,0,0,0,2.42-.309c-.315-.425-1.271-.287-1.862-.376-.376-.05-1.144-.553-1.21.116a.519.519,0,0,0,.652.553C152.323,126.188,152.19,126.221,152.245,126.2Zm-1.9-.138a.785.785,0,0,0-.845-.309c.21.309.6.58.845.309C150.317,126.016,150.284,126.144,150.35,126.066Zm.724-.989c-.3-.553-1.564-.867-2.1-1.105-.343-.138-1.105-.492-1.564-.215s-.359.348.155.619c.221.122.348-.26.553-.215.3.05.486.332.641.392a5.409,5.409,0,0,0,2.315.525ZM170.555,101c.37-.066.5-.055.6.354a1.984,1.984,0,0,0-.807,0,2.278,2.278,0,0,0,.039.271c.823-.149.188.359.608.553.088,0,1.039.138,1.105.127.729-.033.79-.2,1.414-.553.525-.32.757.122.923-.492.066-.243-.315-.249-.4-.265.177-1.105-1.188-.122-1.867-.221a5.515,5.515,0,0,1-.591-.088c-.293,0,0-.5-.287-.088-.735-.271-.917.486-.718.442Zm-12.415,8.873a7.609,7.609,0,0,0-1.028,1.9c.144.265.641,0,.912.1a6.115,6.115,0,0,1,.923.553c.63-1.044.039-1.409-.884-1.735,0,0,.553-1.105.077-.8C158.08,109.916,158.179,109.85,158.141,109.878Zm-2.21.978c-.4-.144-.553-.332-.972-.265.37.243.608.84.972.265C155.9,110.839,155.93,110.889,155.93,110.856Zm11.382-11.934c.116-.044.238.133.332.166.713.249.713-.05,1.3-.3s1.812-.553,1.995-1.066c-.7.608-2.359-.807-.6-.724-.072,0,.79.995.989.127.072-.315-.646-1.105-.873-1.221.122-.122.917.514.68-.309-.116-.387-.32-.392-.785-.221.094-.155.182-.144.238-.287a1.049,1.049,0,0,1-.238-.116c.254,0,.989.392,1.326.138.785-.553-.481-.37-.481-.646,0-.066,1.193-.133,1.271-.287-.249-.271-.906-.74-.122-.812,0-.718-.961-.713-.845-1.105.044-.166.519-.232.646-.182.514.221.088.265.32.779.144-.923.464-1.144-.553-1.144.276-.337,0-.094.481-.343-.287-.475-.983,0-.989,0-.718-.635,1.823-2.37,2.061-2.7a9.147,9.147,0,0,1-.956-.05,3.58,3.58,0,0,0,1.6-.553c.155-.11.967,0,.6-.6-.066-.1-.912-.055-.989-.05a11.6,11.6,0,0,0-1.619.332,17.6,17.6,0,0,1-1.751.8c.729-1,1.105-1.155-.2-1.37,0,.553-.376.553-.89.619.088-.475.381-.287.685-.442-.746-.613-2.122.332-2.939.193.221-.724,3.58-.785,4.354-.884v-.21a7.735,7.735,0,0,1-1.713-.243c-.9-.166-1.768.066-2.641-.033.641-.486,1.945-.271,2.862-.271-.1-.785-4.133-.459-4.658-.276s-.055.4-.751.492c-.409.05-.751-.215-1.171-.238a4.531,4.531,0,0,0-1.58.249c.133.282.436.16.436.553-.166-.138-.89-.475-.657,0-.055-.122,1.282.746.9.746-.851,0-1.492-.751-2.392-.751,0,.21.553.553.635.9-.553-.166-.9-.707-1.481-.768.149.32.193,1.105-.282.79,0,0,.227-.641-.094-.834s-1.586.586-1.84.442a2.763,2.763,0,0,1,.961.553c-.387,0-.707-.293-1.105-.348-.26-.039-.193-.271-.553-.088s-.066.453-.155.508c-.32.2-.978.282-1.58.635-.238.138-.818.127-.779.58a2.414,2.414,0,0,0,.845,0c.232,0,0,.834-.061.878s-.613.077-.768.122a5.634,5.634,0,0,0-1.58.343c-1.365.884,1.16.956,1.9.956-.144.68-1.658.177-1.658.553,0,.193.669.4.807.431-.111,0-.122,0-.16.094.2.177.6.553.9.431,0-.044-.155-.177-.088-.227a4.468,4.468,0,0,1,2.945.309,3.868,3.868,0,0,1,1.448,2.707h.193c-.774,1.519,1.105.271,1.608,1.658-.5,0-.967-.37-1.431-.16.116.381-.3.995.4,1.011.613,0,.812-.464.1-.586,1.017-.133.768.3,1.055,1.105-.453-.028-.812.061-.8.553-1.011-.144.05,1.3.116,1.536,0-.061.3-.149.359,0s-.326.26-.227.359c-.16-.16.182.624.144.514a1.315,1.315,0,0,1,.464-.249,2.343,2.343,0,0,0,.685,2.442,4.485,4.485,0,0,0,2.061.751c.331-.2.243-.961.381-1.3.083-.2-.2-.271-.094-.514.055-.133.359-.044.453-.243.409-.823.16-1.608,1.182-1.707-.028-.553,0-.149.282-.332-.039,1.4,2.127-1.547,2.138-1.553Zm-21.99-6.862c.431.735,2.37.47,3.089.337.193.553,1.337.2,1.293-.492l-.326.155-.1-.326c.459-.094.436-.227.32-.669.58.171,1.066.077.663-.508-.061-.088.608,0,.608-.11,0-.613-1.028-.414-1.287-.16a.844.844,0,0,0-.077-.215c.657-.508,1.37.193,1.989-.425l-.359-.287a1.707,1.707,0,0,0,1.271,0c-.2-.171-.171-.3-.425-.42.956.249,2.077-.9,2.961-1.155-.282-.309-1.044,0-1.53-.072.4-.553,2.6,0,2.763-.8.088-.553-1.917-.624-2.4-.486a3.194,3.194,0,0,0-1.437-.492c-.188.74-2.354-.343-2.21.514-.608-.249-1.945-.387-2.409.332a1.337,1.337,0,0,1,1.321.553c-.514-.149-1.193-.5-1.658-.6a1.752,1.752,0,0,0-.978.193c-.486.072-1.459.354-2.05.492v.2c.5.171.553.492,1.105.674.79.271.823-.2,1.508-.3-1.381.884.757.553,1.133.475.774-.21,1.3-.7,2.116-.674a1.569,1.569,0,0,0-.89.442,4.608,4.608,0,0,1,.829.044,5.727,5.727,0,0,1-2.3.486v.221c.392.182.624.5,1.105.492-.685.2-1.713-.553-2.486-.646.066.724,1.238,1.3,1.9,1.271-.149.193-.221.343-.343.5-1.155-1.243-2.879.685-.746.271l-.343.2c.249.448.707.3,1.05-.088-.392,1.149-1.553.061-2.26.16C145.985,91.661,145.726,91.866,145.322,92.059Zm.182-1.442c.116-.149.32-.055.26-.464,1.287.215.989-.657.188-1.21.044.033-2.6-1.431-2.542-1.006.188.044.359-.1.4.155a3.663,3.663,0,0,1-.79.133c.166.122.215.3.287.376a4.421,4.421,0,0,0-.553,0,2.64,2.64,0,0,0-.138.691c.481.553,1.188.077,1.713.553a8.485,8.485,0,0,0-.928.249,1.9,1.9,0,0,0,2.1.525Zm-1.05.757c-.055.1-.116.2-.182.315a1.05,1.05,0,0,0,.912-.072c-.188-.359-.376-.315-.729-.243Zm.326,2.685c.4-.094,4.851.309,4.194-.818-.392-.68-2.149.05-2.685.033-1.133-.028-1.282-1.315-2.293-.989C144.372,92.993,143.98,93.755,144.781,94.059Zm-2.8.088h.282C142.118,93.816,142.118,94.081,141.98,94.148Zm.619-.553c.21.2,1.309.757,1.193,0C143.7,92.916,142.786,93.236,142.6,93.6Zm.995-.956c.448-.514-.21-.878-.685-.8C141.924,92.01,143.14,92.645,143.593,92.639Zm-.829-1.066a4.321,4.321,0,0,0,1.066-.149V91.2C143.383,91.131,142.9,91.092,142.764,91.573Zm.083-.553c1.006-.271-.68-.774-.989-.663C142,90.882,142.322,91.2,142.847,91.021Zm-1.105-1.658c-.144-.3-.249-.475-.624-.4v.265a.84.84,0,0,0,.6.127Zm-.287,1.9c.3-1.105-1.7-1.658-2.442-1.332a2.414,2.414,0,0,1,.646.58h-.343C139.615,90.96,140.88,91.021,141.455,91.258Zm-.762.044c-.26-.1-.337-.271-.646-.177.116.387.315.26.646.182Zm-.188,1.934c.414-.227.663-.05.746.464.553,0,.945-.232.878-.862s-.707-.4-1.282-.646a1.862,1.862,0,0,1,.553.619,5.525,5.525,0,0,0-.956-.4c.039.188.05.365.1.553-.376-.315-.553-.829-1.066-.89-.083.68.47,1.017,1.022,1.166Zm-1.171.177c.044.033.442.553.442,0,0-.271-.387.006-.42.006Zm.144-1.658a1.282,1.282,0,0,0-.586-.553C138.913,91.623,139.112,91.871,139.477,91.755Zm10.5,7.962c.287.094,1.105,0,.807-.519a.481.481,0,0,0-.8.519Zm-6.514-3.752c.116-.238.315-.149.3-.508.553.221.8-.326,1.105-.774-.414-.171-1.287-.486-1.658-.2s-.475,1.707.26,1.481Zm-1.779.691c.934,0,1.105-.923.221-1.376.68-.238.149-.7-.238-.834-.066,0-.613.3-.928.238.553.652.127,1.066-.5.685.044.448,1.083,1.072,1.459,1.287Zm-2.254-1.4c.166-.608-.553-.729-.867-.4.326.326.547.547.878.4Zm-1.337-.508C138.129,94.783,138.35,95.065,138.09,94.75Zm-1.945-4.044h1.437C137.333,90.12,136.537,90.291,136.145,90.706Zm.409.978c.4,0,.917-.055.553-.486.171-.088.232,0,.343-.227a1.823,1.823,0,0,0-1.332.265c.094.3.232.343.436.453Zm-.707-.4c-.127-.287-.16-.475-.553-.4.1.376.271.332.553.4Zm-.4,1.105c-.553.182-1.144.834-.74,1.188s1.658,0,2.111.033c-.149.2-1.105,0-1.028.365s.785.16,1.017.11c.5-.1,2.343-.365,2.21-1.105.05.293-1.216-.768-1.105-.729-.591-.193-.812.182-.508.774.116.05.3-.028.337.127.055.232-1.995-.635-2.293-.751Zm.122-.42c.127.061.166.293.486.221v-.221a.829.829,0,0,1-.486.011Zm-1.613.95-.2.265c.442,0,.359.088.591-.376Zm.646-.553a.923.923,0,0,0,.552-.84c-1.221-.326-1.613.906-2.724,1.039.519.878,1.3.083,1.774-.392C134.333,92.562,134.465,92.286,134.6,92.363Zm.276,5.79c.873-.077.9.425,1.58.624s1.188-.32,1.79-.442c.365-.072,2.763.359,1.917-.376.337,0,.442-.193.646-.293-.74-.553-1.05-.553-1.425-1.337-.138-.3-.768-1.774-1.282-1.072-.232.326.624,1.105,0,1.039-.32-.033-.3-.983-.906-1.022.077.138.133.3.2.442a2.669,2.669,0,0,1-.641.221,3.65,3.65,0,0,0,.138-.436,1.2,1.2,0,0,0-1.105.083c.2-.829-.514-.431-.884-.254-.663.326-.685.486-.983,1.055.442.188.917-.122,1.326.221a1.6,1.6,0,0,0-.884.381c.448.265,1.9-.138,2.138.309.083.16-1.6.249-1.856.414Zm3.37.867c.365-.1.591-.188.669-.553a3.033,3.033,0,0,0-1.072.448Zm-5.625-2.392c.713.116,1.006-.934,1.619-1.282,1.006-.553,1.249-.735-.039-1.028-.326-.072-1.989-.5-2.337-.182-.193.177-.249,1.481-.674,2.006a1.238,1.238,0,0,1,1.105.8Zm-16.8,8.039C115.4,104.06,114.967,104.745,115.818,104.667Zm6.779-.486c.1-.707.956.16,1.4.3.553.188,1.105.05,1.658.249.983.348,1.658,1.337,2.647,1.525a2.21,2.21,0,0,0,.315.624c.05.061.475.271.553.37.337.553.553,1.105.834,1.553a3.652,3.652,0,0,0,1.459,1.326,1.994,1.994,0,0,1,1.105,1.768c-.6-.812-1.227-1.928-2.254-1.8.481.641,1.2.862,1.5,1.658s-.088,1.624-.088,2.309a7.044,7.044,0,0,0,1.37,4.017c.459.553,1.166.58,1.586,1.3.343.553.63,1.293.95,1.879.1.188-.133.282.111.674.149.238.553.448.757.674a5.1,5.1,0,0,1,.851,1.337c.624-.7-1.812-3.149-1.879-4.149.68-.094,1.459,1.613,1.956,2.21.641.757,1.221,1.779,1.879,2.6-.95.713,2.829,2.26,3.448,2.359.188.033.4-.221.746-.11s.553.586.89.79a3.5,3.5,0,0,0,1.387.359c.553.42.829,1.254,1.105,1.558a7.929,7.929,0,0,0,1.972,1.033c-.166-1.105.95-.1.995-.47.094-.74-1.4-.276-1.812-.553-1-.74.066-1.564-.442-2.381-.436-.691-1.553-.144-2.088-.4.475-.553,1.188-2.4.16-2.326-.934.066-.481.779-1.05,1.276a1.374,1.374,0,0,1-1.8-.232c-.906-.878-.873-3.315-.326-4.182.746-1.21,1.939-.039,2.763-.326-.2-.762.586-.646,1.072-.613-.044,0,1.105.238.961.127.365.282.956,2.37,1.337,2.332s-.354-2.818.265-3.6c.4-.508,1.232-.63,1.47-1.232.2-.508-.094-.762-.221-1.4.337.1.16-.2.519.2a7.305,7.305,0,0,1,.619-1.359c.254-.249.912-.3,1.337-.431-.619-1.287,1.729-2.21,2.6-1.984a1.7,1.7,0,0,0-.945.514c-.3.685.553.1.553.094a2.293,2.293,0,0,0,1.762-1.42c-.58.3-.746.812-1.453.4-.939-.553-.033-1.061-.249-1.431-.6-1.011-2.094.823-2.718,1.26a2.923,2.923,0,0,1,.646-.873l-.464-.133c.79.193,1.243-.89,1.917-1.105a7.4,7.4,0,0,1,1.525,0c.707-.072.635-.16,1.238-.448s1.425-.343,1.16-1.105-1.2-.232-1.762-.171c.265-.5.812-.392,1.227-.774a2.365,2.365,0,0,1-1.751-1.105c.436-.293-.807-1.768-1.028-2.309-.359.436-.359,1.144-.928,1.287s-.486-.508-1.105-.326c.392-1.486-.7-1.995-1.746-2.287-1.188-.343-1.984.32-1.138,1.685h-.282c-.094.227-.033.37-.16.624,1.105.508.862,2.376-.425,2.326.37.436.7,2.066-.122,2.144s-.978-1.658-.906-2.276a6.321,6.321,0,0,1-2.271-.768c-.348-.193-.762-.337-1.077-.475s-.343.149-.58,0-.21-.553-.332-.724c-.409-.553-.619-.238-.553-1.144a2.713,2.713,0,0,1,.608-1.238c.265-.287.878-.37.812-.79-.044-.271-1.044-.431-1.243-.508.553.055,1.492.591,1.658-.133.613.4.9-.055,1.066-.624a2.718,2.718,0,0,1-1.453-.508c.365,0,2.453.553,1.6-.425.928-.077.293,1.558-.122,1.735a1.006,1.006,0,0,0,.989.492,3.066,3.066,0,0,1,.624-.293c.182-.033.376.2.553.182,1.16-.221-1.105-1.105-1.309-1.558.519,0,.2,0,.42-.309a.9.9,0,0,0,.624-1.53c1.105-.2-.254-.983-.641-1.177.663-.116,1.37.232,2.077-.05l-.326-.332a5.884,5.884,0,0,1,1.9,1.26c.271.227.779.553.8,1.011,0,.608-1.017.553-.553,1.348-.387.094-1.757-.238-1.7.508s1.066-.066,1.32-.033c.812.111.873.729,1.392,1.193s1.32.392,1.928.751c0-.553-.762-.84-1.05-1.337a17.377,17.377,0,0,1,1.569.912,5.969,5.969,0,0,0,.221-.751,13.662,13.662,0,0,1-1.547-1.658c.37-.6.508-.182.939.066.7.4.392.63.945.464-.039,0,.68-.624.674-.619.232-.481.271-.122-.039-.553s-3.392-1.376-1.856-1.729c-.155-.05-.3-.088-.464-.133.133-.11.1-.122.282-.2-.238-.1-.326-.3-.624-.37l.144-.249c-.553-.133-.834-.271-1.348-.42l.276-.2c-1.022,0-1.105-.669-1.79-.912-.553-.188-1.6.481-1.829.348-.359-.21.094-.42-.138-.79-.4-.63-.343-.553-.989-.42-.978.2-.923,1.061-.431,1.774-1.022.144-.878-1.536-.149-1.928-.774-.033-1.5.061-1.812.967-.42,1.249.42.68.829,1.343-.3-.083-.475.05-.746.039.249.392,1.376.553,1.856.685-.3.133-.448,2.315-1.232,1.867-.354-.2,0-.807,0-.823-.309-.381-.6-.232-.7-.3a2.426,2.426,0,0,1-.961-.674c-.32-.525-.409-1.972-1.392-1.216s.995,1.995-.094,1.746c.166.5.508.47.89.088,0,.762-.917.5-.646,1.376-.453-.343-.343-.2-.32-.713-.425-.127-.077,0-.3-.376h.238a.818.818,0,0,0-.729-.884c-.111.122-.376.442-.481.553.21.094.376.331.586.425-.481.961-1.42.553-2.21.32-.519-.127-.58-.354-1.105-.122-.74.348-.392.4-.5,1.221-.326-1.293-1.884-.856-2.823-.956.077-.05.171-.271.442-.37a8.548,8.548,0,0,0-2.569-1.077c-.685-.144-1.354.635-1.613-.282-.2.74-.337.271-.657.254-.1,0-.215-.5-.453-.553s-.116.221-.293.26a10.387,10.387,0,0,0-1.74.928c.365-.553.967-.459,1.326-.928a11.989,11.989,0,0,0-2.166.553c-1.149.265-1.608-.26-2.763-.4-.878-.1-1.685-.3-2.6-.387A9.184,9.184,0,0,0,119.857,97l.1-.243a4.478,4.478,0,0,0-1.989.486c-.746.249-.8.746-1.32,1.105-.74.5-1.271-.033-.674.834.376.553,1.188.619,1.459,1.326-.425.155-.884.133-.906-.4-.486.381-1.028.249-1.431.779.519.232.514.7.961.829s1.2-.243,1.658-.293c.072,1.619-1.658.47-1.9,1.906-.061.387.751,2.011,1.271,1.061a1,1,0,0,1,.238,1.061c.514-.111,1.105.083,1.337-.26.155,0,.365.05.553.044-.376,1.856-2.3,1.553-3.2,2.685,1.309.354,3.475-1.84,4.6-2.531-.1-.16-.2-.326-.3-.486.685-.249.939-1.5,1.735-.939a.751.751,0,0,0-.713,1.028,2.945,2.945,0,0,1,1.354-.553A2.214,2.214,0,0,0,122.6,104.181Zm-1.658,1.812v-.37c-.409.326-1,.414-.669,1a1.525,1.525,0,0,0,.674-.63Z" transform="translate(-115.1 -69.252)" fill="#f8951d"/>
      <path id="Path_34454" data-name="Path 34454" d="M134.506,143.942a.276.276,0,0,1-.276-.276v-7a.276.276,0,0,1,.171-.254l8.564-3.636a.276.276,0,0,1,.215.508l-8.4,3.564v6.823A.276.276,0,0,1,134.506,143.942Z" transform="translate(-123.66 -90.442)" fill="#263238"/>
      <path id="Path_34455" data-name="Path 34455" d="M129.648,158.673H119.006a.282.282,0,0,1-.276-.276.276.276,0,0,1,.276-.276h10.641a.276.276,0,0,1,0,.553Z" transform="translate(-116.724 -101.792)" fill="#263238"/>
      <path id="Path_34456" data-name="Path 34456" d="M129.648,163.373H119.006a.282.282,0,0,1-.276-.276.276.276,0,0,1,.276-.276h10.641a.276.276,0,0,1,0,.553Z" transform="translate(-116.724 -103.895)" fill="#263238"/>
      <path id="Path_34457" data-name="Path 34457" d="M129.648,168.063H119.006a.276.276,0,0,1-.276-.276.282.282,0,0,1,.276-.276h10.641a.276.276,0,0,1,0,.553Z" transform="translate(-116.724 -105.994)" fill="#263238"/>
      <path id="Path_34458" data-name="Path 34458" d="M335.848,71.773H325.206a.276.276,0,0,1-.276-.276.282.282,0,0,1,.276-.276h10.641a.276.276,0,0,1,0,.553Z" transform="translate(-208.997 -62.905)" fill="#263238"/>
      <path id="Path_34459" data-name="Path 34459" d="M335.848,76.473H325.206a.276.276,0,0,1,0-.553h10.641a.276.276,0,0,1,0,.553Z" transform="translate(-208.997 -65.008)" fill="#263238"/>
      <path id="Path_34460" data-name="Path 34460" d="M335.848,81.173H325.206a.282.282,0,0,1-.276-.276.276.276,0,0,1,.276-.276h10.641a.276.276,0,1,1,0,.553Z" transform="translate(-208.997 -67.111)" fill="#263238"/>
      <path id="Path_34461" data-name="Path 34461" d="M302.2,90.368a.276.276,0,0,1-.276-.276V74.776a.276.276,0,0,1,.276-.276h10.122a.276.276,0,0,1,0,.553h-9.846V90.086a.276.276,0,0,1-.276.282Z" transform="translate(-198.7 -64.372)" fill="#263238"/>
      <rect id="Rectangle_5372" data-name="Rectangle 5372" width="38.714" height="2.735" transform="translate(51.306 0.276)" fill="#263238"/>
      <path id="Path_34462" data-name="Path 34462" d="M246.452,59.457H207.776a.276.276,0,0,1-.276-.276V56.446a.276.276,0,0,1,.276-.276h38.676a.276.276,0,0,1,.276.276v2.735A.276.276,0,0,1,246.452,59.457ZM208.014,58.9h38.162V56.723H208.03Z" transform="translate(-156.448 -56.17)" fill="#263238"/>
      <path id="Path_34463" data-name="Path 34463" d="M285.308,188.482H274.666a.276.276,0,0,1-.276-.276.282.282,0,0,1,.276-.276h10.641a.276.276,0,1,1,0,.553Z" transform="translate(-186.381 -115.131)" fill="#263238"/>
      <path id="Path_34464" data-name="Path 34464" d="M285.308,193.183H274.666a.276.276,0,0,1,0-.553h10.641a.276.276,0,0,1,0,.553Z" transform="translate(-186.381 -117.235)" fill="#263238"/>
      <path id="Path_34465" data-name="Path 34465" d="M285.308,197.883H274.666a.282.282,0,0,1-.276-.276.276.276,0,0,1,.276-.276h10.641a.276.276,0,1,1,0,.553Z" transform="translate(-186.381 -119.338)" fill="#263238"/>
      <path id="Path_34466" data-name="Path 34466" d="M283.306,164.652a.282.282,0,0,1-.276-.276V140.236a.282.282,0,0,1,.276-.276.276.276,0,0,1,.276.276v24.139A.276.276,0,0,1,283.306,164.652Z" transform="translate(-190.247 -93.665)" fill="#263238"/>
    </g>
    <g id="freepik--Text--inject-24" transform="translate(70.593 53.977)">
      <path id="Path_34467" data-name="Path 34467" d="M123.468,64.223H112.826a.276.276,0,0,1-.276-.276.282.282,0,0,1,.276-.276h10.641a.276.276,0,0,1,0,.553Z" transform="translate(-112.55 -63.67)" fill="#263238"/>
      <path id="Path_34468" data-name="Path 34468" d="M137.037,68.923H112.826a.276.276,0,0,1,0-.553h24.211a.276.276,0,0,1,0,.553Z" transform="translate(-112.55 -65.773)" fill="#263238"/>
      <path id="Path_34469" data-name="Path 34469" d="M115.392,78.719v-.641a1.309,1.309,0,0,1-1.022-.436A2.011,2.011,0,0,1,114,76.42l.934-.16a2.867,2.867,0,0,0,.072.553.724.724,0,0,0,.171.331.392.392,0,0,0,.287.1.309.309,0,0,0,.287-.133.6.6,0,0,0,.072-.3.956.956,0,0,0-.155-.553,2.5,2.5,0,0,0-.425-.464l-.553-.481a4.238,4.238,0,0,1-.348-.365,1.453,1.453,0,0,1-.238-.425,1.586,1.586,0,0,1-.094-.553A1.3,1.3,0,0,1,114.37,73a1.442,1.442,0,0,1,.95-.392V72h.337v.608a1.226,1.226,0,0,1,.591.16.967.967,0,0,1,.343.359,1.658,1.658,0,0,1,.177.47,4.164,4.164,0,0,1,.066.492l-.95.144a3.205,3.205,0,0,0-.039-.436.553.553,0,0,0-.122-.293.293.293,0,0,0-.265-.1.326.326,0,0,0-.282.144.553.553,0,0,0-.094.309.79.79,0,0,0,.144.492,3.359,3.359,0,0,0,.332.359l.553.475a3.724,3.724,0,0,1,.4.431,1.84,1.84,0,0,1,.3.514,1.691,1.691,0,0,1,.11.646,1.437,1.437,0,0,1-.16.641,1.216,1.216,0,0,1-.414.47,1.354,1.354,0,0,1-.63.21v.624Z" transform="translate(-113.198 -67.398)" fill="#263238"/>
      <path id="Path_34470" data-name="Path 34470" d="M120,78.518V77.8l1.32-2,.276-.431a2.707,2.707,0,0,0,.21-.42,1.282,1.282,0,0,0,.083-.464.652.652,0,0,0-.1-.392.337.337,0,0,0-.282-.138.425.425,0,0,0-.309.11.591.591,0,0,0-.144.287,1.785,1.785,0,0,0-.039.392V75H120v-.265a2.271,2.271,0,0,1,.149-.851,1.193,1.193,0,0,1,.47-.58,1.519,1.519,0,0,1,.845-.21,1.282,1.282,0,0,1,1.425,1.414,1.79,1.79,0,0,1-.1.6,2.641,2.641,0,0,1-.265.553c-.1.166-.221.343-.348.553l-1.033,1.558h1.619v.807Z" transform="translate(-115.884 -67.883)" fill="#263238"/>
      <path id="Path_34471" data-name="Path 34471" d="M127.706,78.605a1.47,1.47,0,0,1-.8-.2,1.216,1.216,0,0,1-.481-.553,1.928,1.928,0,0,1-.155-.807v-2.4a2.132,2.132,0,0,1,.149-.829,1.243,1.243,0,0,1,.47-.553,1.53,1.53,0,0,1,.818-.2,1.492,1.492,0,0,1,.807.2,1.194,1.194,0,0,1,.464.553,2.034,2.034,0,0,1,.155.829v2.4a1.929,1.929,0,0,1-.16.807,1.238,1.238,0,0,1-.475.553A1.47,1.47,0,0,1,127.706,78.605Zm0-.9a.309.309,0,0,0,.26-.11.7.7,0,0,0,.1-.271,1.859,1.859,0,0,0,.028-.287V74.688a2,2,0,0,0-.028-.3.635.635,0,0,0-.1-.276.3.3,0,0,0-.265-.116.309.309,0,0,0-.271.116.641.641,0,0,0-.1.276,1.967,1.967,0,0,0,0,.3v2.37a1.359,1.359,0,0,0,0,.287.624.624,0,0,0,.111.271.309.309,0,0,0,.265.088Z" transform="translate(-118.689 -67.875)" fill="#263238"/>
      <path id="Path_34472" data-name="Path 34472" d="M132.789,83.054l-.077-.337a.879.879,0,0,0,.309-.182.519.519,0,0,0,.138-.4h-.519V81.17h.961v.856a1.2,1.2,0,0,1-.21.707.84.84,0,0,1-.6.32Z" transform="translate(-121.54 -71.501)" fill="#263238"/>
      <path id="Path_34473" data-name="Path 34473" d="M136.942,78.605a1.47,1.47,0,0,1-.8-.2,1.216,1.216,0,0,1-.481-.553,1.928,1.928,0,0,1-.16-.807v-2.4a2.133,2.133,0,0,1,.155-.829,1.21,1.21,0,0,1,.47-.553,1.531,1.531,0,0,1,.818-.2,1.492,1.492,0,0,1,.807.2,1.194,1.194,0,0,1,.464.553,2.033,2.033,0,0,1,.155.829v2.4a1.929,1.929,0,0,1-.16.807,1.238,1.238,0,0,1-.475.553A1.47,1.47,0,0,1,136.942,78.605Zm0-.9a.309.309,0,0,0,.26-.11.7.7,0,0,0,.1-.271,1.862,1.862,0,0,0,0-.287V74.688a2,2,0,0,0,0-.3.636.636,0,0,0-.1-.276.3.3,0,0,0-.265-.116.309.309,0,0,0-.271.116.641.641,0,0,0-.1.276,1.965,1.965,0,0,0,0,.3v2.37a1.359,1.359,0,0,0,.028.287.624.624,0,0,0,.11.271.309.309,0,0,0,.238.088Z" transform="translate(-122.82 -67.875)" fill="#263238"/>
      <path id="Path_34474" data-name="Path 34474" d="M143.456,78.605a1.5,1.5,0,0,1-.8-.2,1.238,1.238,0,0,1-.475-.553,1.928,1.928,0,0,1-.16-.807v-2.4a2.033,2.033,0,0,1,.155-.829,1.177,1.177,0,0,1,.47-.553,1.5,1.5,0,0,1,.812-.2,1.481,1.481,0,0,1,.807.2,1.243,1.243,0,0,1,.47.553,2.133,2.133,0,0,1,.149.829v2.4a1.929,1.929,0,0,1-.155.807,1.249,1.249,0,0,1-.481.553A1.459,1.459,0,0,1,143.456,78.605Zm0-.9a.3.3,0,0,0,.26-.11.619.619,0,0,0,.1-.271,1.359,1.359,0,0,0,.028-.287V74.688a1.967,1.967,0,0,0,0-.3.641.641,0,0,0-.1-.276.293.293,0,0,0-.265-.116.3.3,0,0,0-.265.116.552.552,0,0,0-.1.276,2,2,0,0,0,0,.3v2.37a1.858,1.858,0,0,0,0,.287.552.552,0,0,0,.116.271A.309.309,0,0,0,143.456,77.7Z" transform="translate(-125.737 -67.875)" fill="#263238"/>
      <path id="Path_34475" data-name="Path 34475" d="M149.976,78.605a1.486,1.486,0,0,1-.8-.2,1.238,1.238,0,0,1-.475-.553,1.845,1.845,0,0,1-.16-.807v-2.4a2.133,2.133,0,0,1,.149-.829,1.243,1.243,0,0,1,.47-.553,1.53,1.53,0,0,1,.818-.2,1.492,1.492,0,0,1,.807.2,1.193,1.193,0,0,1,.464.553,2.033,2.033,0,0,1,.155.829v2.4a1.929,1.929,0,0,1-.16.807,1.238,1.238,0,0,1-.475.553A1.47,1.47,0,0,1,149.976,78.605Zm0-.9a.3.3,0,0,0,.26-.11.7.7,0,0,0,.1-.271,1.862,1.862,0,0,0,0-.287V74.688a3.022,3.022,0,0,0,0-.3.641.641,0,0,0-.1-.276.3.3,0,0,0-.265-.116.315.315,0,0,0-.271.116.641.641,0,0,0-.1.276,1.965,1.965,0,0,0,0,.3v2.37a1.861,1.861,0,0,0,.028.287.624.624,0,0,0,.11.271.32.32,0,0,0,.243.088Z" transform="translate(-128.655 -67.875)" fill="#263238"/>
      <path id="Path_34476" data-name="Path 34476" d="M155.019,83.054l-.1-.32a.834.834,0,0,0,.309-.182.553.553,0,0,0,.144-.4h-.553V81.17h.961v.856a1.2,1.2,0,0,1-.2.724.862.862,0,0,1-.558.3Z" transform="translate(-131.465 -71.501)" fill="#263238"/>
      <path id="Path_34477" data-name="Path 34477" d="M159.216,78.605a1.486,1.486,0,0,1-.8-.2,1.249,1.249,0,0,1-.481-.553,1.928,1.928,0,0,1-.155-.807v-2.4a2.133,2.133,0,0,1,.149-.829,1.243,1.243,0,0,1,.47-.553,1.53,1.53,0,0,1,.818-.2,1.492,1.492,0,0,1,.807.2,1.194,1.194,0,0,1,.464.553,2.033,2.033,0,0,1,.155.829v2.4a1.928,1.928,0,0,1-.16.807,1.238,1.238,0,0,1-.475.553,1.47,1.47,0,0,1-.79.193Zm0-.9a.3.3,0,0,0,.26-.11.7.7,0,0,0,.1-.271,1.861,1.861,0,0,0,.028-.287V74.688a3.031,3.031,0,0,0,0-.3.641.641,0,0,0-.1-.276.3.3,0,0,0-.265-.116.315.315,0,0,0-.271.116.641.641,0,0,0-.1.276,1.965,1.965,0,0,0,0,.3v2.37a1.863,1.863,0,0,0,.028.287.624.624,0,0,0,.11.271.321.321,0,0,0,.215.088Z" transform="translate(-132.789 -67.875)" fill="#263238"/>
      <path id="Path_34478" data-name="Path 34478" d="M165.732,78.605a1.5,1.5,0,0,1-.807-.2,1.238,1.238,0,0,1-.475-.553,1.928,1.928,0,0,1-.16-.807v-2.4a2.033,2.033,0,0,1,.155-.829,1.21,1.21,0,0,1,.47-.553,1.519,1.519,0,0,1,.818-.2,1.47,1.47,0,0,1,.8.2,1.21,1.21,0,0,1,.47.553,2.133,2.133,0,0,1,.155.829v2.4a1.928,1.928,0,0,1-.16.807,1.216,1.216,0,0,1-.481.553A1.453,1.453,0,0,1,165.732,78.605Zm0-.9a.293.293,0,0,0,.254-.11.7.7,0,0,0,.111-.271,1.813,1.813,0,0,0,0-.287V74.688a1.967,1.967,0,0,0,0-.3.712.712,0,0,0-.1-.276.3.3,0,0,0-.265-.116.309.309,0,0,0-.271.116.641.641,0,0,0-.1.276,1.967,1.967,0,0,0,0,.3v2.37a1.81,1.81,0,0,0,0,.287.63.63,0,0,0,.116.271A.309.309,0,0,0,165.732,77.7Z" transform="translate(-135.703 -67.875)" fill="#263238"/>
      <path id="Path_34479" data-name="Path 34479" d="M172.246,78.606a1.486,1.486,0,0,1-.8-.2,1.238,1.238,0,0,1-.475-.553,1.845,1.845,0,0,1-.16-.807v-2.4a2.133,2.133,0,0,1,.149-.829,1.221,1.221,0,0,1,.475-.553,1.746,1.746,0,0,1,1.619,0,1.243,1.243,0,0,1,.47.553,2.133,2.133,0,0,1,.149.829v2.4a1.845,1.845,0,0,1-.16.807,1.238,1.238,0,0,1-.475.553A1.459,1.459,0,0,1,172.246,78.606Zm0-.9a.3.3,0,0,0,.26-.111.619.619,0,0,0,.1-.271,1.861,1.861,0,0,0,.028-.287V74.689a1.967,1.967,0,0,0,0-.3.641.641,0,0,0-.1-.276.293.293,0,0,0-.265-.116.3.3,0,0,0-.265.116.646.646,0,0,0-.11.276,3.022,3.022,0,0,0,0,.3v2.37a1.863,1.863,0,0,0,.028.287.624.624,0,0,0,.11.271A.32.32,0,0,0,172.246,77.706Z" transform="translate(-138.62 -67.876)" fill="#263238"/>
    </g>
    <g id="freepik--Character--inject-24" transform="translate(151.644 86.532)">
      <path id="Path_34480" data-name="Path 34480" d="M348.827,273.262l-1.619,21.924s1.945,31.311,3.078,37.963-.646,23.205.16,26.764a41.019,41.019,0,0,1,.486,9.083s-1.293,1.785-.807,2.763a8.676,8.676,0,0,1,.646,2.431l-2.111,2.111c-.807.812-5.188,4.216-6.16,5.028s-1.138,1.459,1.133,2.111a29.693,29.693,0,0,0,9.249.16c1.138-.326,3.569-2.105,5.84-2.6s4.055-.486,4.542-.972,0-5.674,0-5.674a15.771,15.771,0,0,0,.32-3.409c-.166-.812-1.779-5.188-1.779-5.188s1.293-10.547.972-16.548.486-17.028.486-17.028-.171-8.757.155-9.73,2.6,11.509,3.249,13.619,6.63,34.9,6.978,35.709a6.331,6.331,0,0,1,.32,1.945,1.685,1.685,0,0,0-.807,1.138,14.585,14.585,0,0,0,0,2.763,15.16,15.16,0,0,1-1.138,3.083c-.646,1.105-4.7,3.243-3.4,4.862s5.028,1.138,9.393.652a18.218,18.218,0,0,0,8.111-3.448,2.947,2.947,0,0,0,.486-2.6c-.326-1.785-.807-2.105-.807-2.591a33.382,33.382,0,0,0,.16-4.707c-.16-1.945-1.3-3.752-1.624-5.525s-.972-4.7-.807-6,.486-12.155,0-15.409-1.624-10.708-1.785-13.625,2.105-33.9,2.105-33.9l-1.536-25.228Z" transform="translate(-296.199 -189.983)" fill="#263238"/>
      <path id="Path_34481" data-name="Path 34481" d="M372.116,386.71c-1.818,0-3.2-.3-3.939-1.227-1.05-1.315.68-2.763,2.072-3.912a6.946,6.946,0,0,0,1.315-1.26,14.839,14.839,0,0,0,1.105-2.973,14.124,14.124,0,0,1,0-2.763,1.962,1.962,0,0,1,.8-1.232,5.7,5.7,0,0,0-.3-1.7c-.149-.37-1.2-5.939-2.917-14.99-1.74-9.183-3.713-19.6-4.066-20.736-.254-.829-.751-3.2-1.276-5.729-.5-2.409-1.149-5.525-1.553-6.995-.111,1.845-.088,5.928-.033,8.746,0,.133-.807,11.105-.486,17.017.3,5.713-.862,15.619-.967,16.531.2.553,1.613,4.387,1.774,5.166a14.976,14.976,0,0,1-.32,3.475c.149,1.619.436,5.343-.083,5.862a4.744,4.744,0,0,1-2.354.652c-.685.1-1.464.21-2.326.392a16.246,16.246,0,0,0-3.961,1.7,10.906,10.906,0,0,1-1.856.89,29.755,29.755,0,0,1-9.393-.16c-1.276-.365-1.89-.751-2-1.265s.348-.978.762-1.32c.315-.26.978-.79,1.763-1.414,1.619-1.293,3.84-3.061,4.381-3.6l2.011-2.017a8.072,8.072,0,0,0-.6-2.21c-.508-1.011.519-2.591.785-2.972a39.8,39.8,0,0,0-.481-8.929c-.376-1.658-.215-5.873-.028-10.763.227-5.812.475-12.4-.138-16.023-1.105-6.586-3.066-37.676-3.083-37.991l1.619-21.935a.276.276,0,0,1,.276-.254l33.5-.083h0a.276.276,0,0,1,.276.26l1.536,25.222c0,.348-2.265,31.04-2.111,33.908.155,2.763,1.2,9.741,1.707,13.094l.077.508c.5,3.315.155,14.271,0,15.47a21.68,21.68,0,0,0,.613,4.884c.072.37.138.724.2,1.033a13.2,13.2,0,0,0,.729,2.326,12.155,12.155,0,0,1,.9,3.238,24.043,24.043,0,0,1-.11,4.028c0,.332-.05.553-.05.7a1.282,1.282,0,0,0,.166.5,7.818,7.818,0,0,1,.641,2.044,3.394,3.394,0,0,1-.553,2.845,18.326,18.326,0,0,1-8.288,3.481l-.5.055A50.006,50.006,0,0,1,372.116,386.71Zm-8.868-64.842h0c.381,0,.552.354,2.21,8.194.525,2.508,1.017,4.873,1.265,5.674.359,1.171,2.337,11.6,4.078,20.8,1.348,7.122,2.763,14.481,2.89,14.918a6.343,6.343,0,0,1,.343,2.044.276.276,0,0,1-.149.249,1.4,1.4,0,0,0-.663.939,14.817,14.817,0,0,0,0,2.68.26.26,0,0,1,0,.094,15.56,15.56,0,0,1-1.16,3.149,6.852,6.852,0,0,1-1.442,1.414c-1.481,1.232-2.652,2.321-1.989,3.144,1.149,1.442,4.636,1.05,8.663.6l.5-.055a18.09,18.09,0,0,0,7.973-3.348,2.652,2.652,0,0,0,.381-2.332,6.894,6.894,0,0,0-.6-1.912,1.719,1.719,0,0,1-.215-.729,5.032,5.032,0,0,1,.05-.746,23.632,23.632,0,0,0,.11-3.934,11.7,11.7,0,0,0-.862-3.094,14.416,14.416,0,0,1-.757-2.42c-.055-.309-.122-.657-.193-1.028a21.839,21.839,0,0,1-.619-5.055c.149-1.2.492-12.05,0-15.338l-.077-.5c-.5-3.365-1.553-10.354-1.707-13.144-.166-2.906,2.011-32.675,2.105-33.941l-1.519-24.929-32.979.083-1.619,21.625c0,.276,1.956,31.333,3.072,37.891.63,3.674.376,10.293.149,16.133-.177,4.652-.348,9.039,0,10.619a40.091,40.091,0,0,1,.492,9.161.226.226,0,0,1-.05.144c-.331.459-1.1,1.8-.79,2.475a8.9,8.9,0,0,1,.68,2.525.287.287,0,0,1-.077.226l-2.111,2.105c-.553.552-2.707,2.271-4.42,3.641-.779.619-1.442,1.149-1.751,1.409-.42.343-.608.608-.552.779s.287.47,1.608.851a29.739,29.739,0,0,0,9.094.16,11.147,11.147,0,0,0,1.746-.84,16.3,16.3,0,0,1,4.111-1.757c.878-.188,1.658-.3,2.365-.4a5.251,5.251,0,0,0,2.039-.5c.232-.332.144-3.094-.077-5.459a.318.318,0,0,1,0-.072,14.735,14.735,0,0,0,.32-3.315c-.127-.635-1.21-3.641-1.768-5.149a.249.249,0,0,1,0-.127c0-.105,1.293-10.592.972-16.5s.475-16.957.486-17.067c0-.878-.16-8.807.166-9.8a.326.326,0,0,1,.282-.238Zm-12.531,46.88Z" transform="translate(-295.978 -189.764)" fill="#263238"/>
      <path id="Path_34482" data-name="Path 34482" d="M290.535,230.259s-3.105-2.829-3.735-3.37-3.166-.453-3.166-.453-5.785.724-6.326.63-1.9-.724-1.989.182a1.9,1.9,0,0,0,1.359,1.9c.63.094,4.337.818,4.337.818s-5.155,2.619-4.973,2.89a43.673,43.673,0,0,0,6.078,4.973c1.47.724,8.05.376,8.05.376Z" transform="translate(-266.438 -169.058)" fill="#fff"/>
      <path id="Path_34483" data-name="Path 34483" d="M286.6,238.327a15.347,15.347,0,0,1-4.834-.486,44.594,44.594,0,0,1-6.166-5.066.392.392,0,0,1-.039-.249c.033-.122.122-.47,4.42-2.68-1.105-.215-3.1-.6-3.536-.657a2.21,2.21,0,0,1-1.6-2.21.768.768,0,0,1,.32-.586c.414-.282,1.072-.094,1.6.061.149.039.287.083.392.1.37.061,4.028-.359,6.249-.635.293,0,2.685-.077,3.376.519s3.613,3.26,3.741,3.376a.3.3,0,0,1,.094.215l-.387,7.94a.287.287,0,0,1-.265.265C289.849,238.249,288.313,238.327,286.6,238.327Zm-10.4-5.735a45.828,45.828,0,0,0,5.812,4.735c1.105.553,5.68.453,7.663.359l.365-7.558c-.525-.481-3.072-2.8-3.63-3.282a6.764,6.764,0,0,0-2.973-.381c-.95.116-5.829.718-6.381.63a2.134,2.134,0,0,1-.459-.116c-.348-.1-.928-.265-1.105-.133a.23.23,0,0,0-.083.182,1.658,1.658,0,0,0,1.105,1.6c.63.088,4.2.785,4.348.818a.276.276,0,0,1,.221.232.265.265,0,0,1-.149.282A50.478,50.478,0,0,0,276.2,232.592Z" transform="translate(-266.228 -168.827)" fill="#263238"/>
      <path id="Path_34484" data-name="Path 34484" d="M275.5,232.611a.929.929,0,0,1-.3-.044L261.733,228.5c-.552-.16-2.138-1.144-1.972-1.658s2.022-.431,2.558-.265l13.47,4.044a1.017,1.017,0,0,1-.293,1.989Z" transform="translate(-259.471 -169.067)" fill="#fff"/>
      <path id="Path_34485" data-name="Path 34485" d="M275.271,232.64a1.237,1.237,0,0,1-.376-.055l-13.47-4.066a5.431,5.431,0,0,1-1.332-.74c-.663-.5-.934-.917-.823-1.287a.635.635,0,0,1,.337-.376,4.7,4.7,0,0,1,2.569-.072l13.465,4.066a1.293,1.293,0,0,1-.37,2.53Zm-14.365-6.188c-.553,0-1.033.066-1.105.2-.039.254,1.149,1.144,1.785,1.332l13.47,4.044a.751.751,0,0,0,.923-.492.74.74,0,0,0-.5-.923l-13.465-4.066a4.244,4.244,0,0,0-1.116-.1Z" transform="translate(-259.247 -168.82)" fill="#263238"/>
      <path id="Path_34486" data-name="Path 34486" d="M272.975,233.42s-.227,1.519.553,1.9,1.9,0,2.05-.553l.149-.553Z" transform="translate(-265.376 -172.186)" fill="#fff"/>
      <path id="Path_34487" data-name="Path 34487" d="M274,235.5a1.884,1.884,0,0,1-.834-.182c-.912-.453-.707-2.006-.68-2.21a.276.276,0,0,1,.127-.193.271.271,0,0,1,.227-.033l2.735.84a.265.265,0,0,1,.182.337l-.149.552a1.188,1.188,0,0,1-.713.7,2.292,2.292,0,0,1-.9.188Zm-.995-1.961c0,.448.044,1.105.409,1.287a1.569,1.569,0,0,0,1.254,0,.674.674,0,0,0,.409-.343l.077-.271Z" transform="translate(-265.155 -171.94)" fill="#263238"/>
      <path id="Path_34488" data-name="Path 34488" d="M277.923,235.065a19.634,19.634,0,0,0-2.763,1.972,2.138,2.138,0,0,0,1.144,1.448c.453.072,5.089-1.978,5.16-2.508s-.912-1.6-1.658-1.6A4.972,4.972,0,0,0,277.923,235.065Z" transform="translate(-266.368 -172.616)" fill="#fff"/>
      <path id="Path_34489" data-name="Path 34489" d="M276.142,238.547h-.055c-.5-.083-.983-.8-1.077-.934a1.2,1.2,0,0,1-.282-.851c0-.111.1-.409,2.856-2.138h0a5.2,5.2,0,0,1,2.044-.724,2.21,2.21,0,0,1,1.486.834,1.575,1.575,0,0,1,.459,1.105c0,.16-.149.309-.414.508A20.409,20.409,0,0,1,276.142,238.547Zm-.873-1.658a2.3,2.3,0,0,0,.912,1.105c.5,0,4.575-1.84,4.857-2.315a1.337,1.337,0,0,0-.337-.591,1.691,1.691,0,0,0-1.072-.646,4.542,4.542,0,0,0-1.757.646,22.444,22.444,0,0,0-2.6,1.818Z" transform="translate(-266.173 -172.401)" fill="#263238"/>
      <path id="Path_34490" data-name="Path 34490" d="M278.51,239.958s.762,1.746,1.37,1.9,3.8-1.972,4.326-2.508a1.072,1.072,0,0,0-.613-1.834C282.538,237.378,278.51,239.958,278.51,239.958Z" transform="translate(-267.867 -174.017)" fill="#fff"/>
      <path id="Path_34491" data-name="Path 34491" d="M279.7,241.933a.355.355,0,0,1-.111,0c-.691-.171-1.365-1.613-1.558-2.055a.287.287,0,0,1,.1-.343c.42-.271,4.155-2.63,5.271-2.481a1.282,1.282,0,0,1,1.105.856,1.431,1.431,0,0,1-.326,1.448C283.785,239.734,280.68,241.933,279.7,241.933Zm-1.061-2.077c.337.724.818,1.459,1.105,1.53.481.044,3.464-1.834,4.066-2.437a.9.9,0,0,0,.193-.879.718.718,0,0,0-.646-.486C282.664,237.491,280.216,238.883,278.641,239.856Z" transform="translate(-267.645 -173.81)" fill="#263238"/>
      <path id="Path_34492" data-name="Path 34492" d="M282.36,243.426s1.519,1.658,1.9,1.519,3.188-2.354,3.188-2.961-1.519-1.144-1.519-1.144Z" transform="translate(-269.59 -175.507)" fill="#fff"/>
      <path id="Path_34493" data-name="Path 34493" d="M283.991,245.01c-.243,0-.785-.215-2.061-1.624a.271.271,0,0,1,.044-.409l3.569-2.58a.276.276,0,0,1,.254-.039c.4.138,1.7.658,1.7,1.4,0,.829-3.077,3.1-3.365,3.216A.337.337,0,0,1,283.991,245.01Zm-1.442-1.768a5.4,5.4,0,0,0,1.437,1.21c.376-.166,2.89-2.21,2.961-2.7,0-.215-.608-.591-1.2-.818Z" transform="translate(-269.364 -175.284)" fill="#263238"/>
      <path id="Path_34494" data-name="Path 34494" d="M293.635,237.63a4.593,4.593,0,0,1-3.868-2.663.277.277,0,1,1,.5-.243s1.171,2.354,3.392,2.354a.277.277,0,1,1-.022.553Z" transform="translate(-272.892 -172.7)" fill="#263238"/>
      <path id="Path_34495" data-name="Path 34495" d="M334.929,189.84l-6.5,24.4s-2.21-1.105-2.7-.32l-.475.8-16.984-.635-.8,10s17.3,3.492,19.205,4.282,7.464.635,7.464.635l3.315-35.869Z" transform="translate(-280.831 -152.685)" fill="#f8951d"/>
      <path id="Path_34496" data-name="Path 34496" d="M332.753,229.054c-1.757,0-4.973-.088-6.393-.674-1.856-.774-18.979-4.232-19.15-4.265a.276.276,0,0,1-.221-.293l.79-10a.265.265,0,0,1,.287-.254l16.818.63.392-.658c.486-.807,2.033-.249,2.763.072l6.409-24.067a.265.265,0,0,1,.216-.2.271.271,0,0,1,.271.1l2.553,3.276a.287.287,0,0,1,.061.2l-3.315,35.869a.276.276,0,0,1-.265.249C333.874,229.043,333.416,229.054,332.753,229.054Zm-25.206-5.437c2.177.442,17.205,3.5,19.017,4.254,1.6.669,6.017.641,7.1.619l3.315-35.515-2.144-2.763-6.354,23.857a.271.271,0,0,1-.155.182.276.276,0,0,1-.238,0c-.834-.414-2.111-.8-2.337-.42l-.475.8a.287.287,0,0,1-.249.133l-16.719-.624Z" transform="translate(-280.611 -152.461)" fill="#263238"/>
      <path id="Path_34497" data-name="Path 34497" d="M342.064,239.586a.271.271,0,0,1-.243-.144l-2.624-4.685a.276.276,0,0,1,.481-.271l2.624,4.691a.276.276,0,0,1-.1.376.293.293,0,0,1-.133.033Z" transform="translate(-295.011 -172.606)" fill="#263238"/>
      <path id="Path_34498" data-name="Path 34498" d="M348.2,239.337a.282.282,0,0,1-.216-.1l-1.542-1.89a.276.276,0,1,1,.425-.348l1.547,1.89a.273.273,0,0,1-.215.448Z" transform="translate(-298.23 -173.733)" fill="#263238"/>
      <path id="Path_34499" data-name="Path 34499" d="M304.82,242h0l-3.166-.088a.31.31,0,0,1-.2-.094.265.265,0,0,1-.066-.2l.553-8.5a.276.276,0,0,1,.287-.26l3.354.182a.293.293,0,0,1,.193.094.276.276,0,0,1,.066.2l-.729,8.4A.276.276,0,0,1,304.82,242Zm-2.868-.635,2.613.077.685-7.862-2.8-.149Z" transform="translate(-278.105 -171.935)" fill="#263238"/>
      <path id="Path_34500" data-name="Path 34500" d="M372.2,180.139l-4.591-.459s-12.42,51.582-11.542,51.875,19.283,1.022,19.283,1.022L386.3,177.089l-3.359-.729Z" transform="translate(-302.552 -146.652)" fill="#fff"/>
      <path id="Path_34501" data-name="Path 34501" d="M375.183,232.631h0c-1.89-.072-18.465-.74-19.338-1.033-.387-.133-.785-.265,5.26-26.377,2.961-12.785,6.078-25.7,6.105-25.83a.271.271,0,0,1,.293-.21l4.531.453,10.674-3.763a.293.293,0,0,1,.155,0l3.359.729a.276.276,0,0,1,.21.32L375.448,232.41A.276.276,0,0,1,375.183,232.631Zm-19.051-1.53c1.442.215,11.774.691,18.824.967l10.851-54.991-3.017-.657-10.658,3.757a.293.293,0,0,1-.122,0l-4.348-.431c-4.729,19.625-11.547,48.886-11.536,51.356Z" transform="translate(-302.388 -146.429)" fill="#263238"/>
      <path id="Path_34502" data-name="Path 34502" d="M373.057,187.626l.89,4.757-10.067,41.09,3.868,7.061,6.2-6.752,1.326-41.4,2.989-4.868-2.547-4.315Z" transform="translate(-306.069 -149.713)" fill="#9c9c9c"/>
      <path id="Path_34503" data-name="Path 34503" d="M367.522,240.591h-.033a.287.287,0,0,1-.21-.144l-3.868-7.061a.276.276,0,0,1-.028-.2l10.05-41.029-.873-4.7a.3.3,0,0,1,.033-.193l2.658-4.42a.282.282,0,0,1,.238-.133h0a.276.276,0,0,1,.238.133l2.547,4.321a.287.287,0,0,1,0,.282l-2.95,4.818L374,233.585a.287.287,0,0,1-.077.182l-6.194,6.752a.287.287,0,0,1-.2.072Zm-3.575-7.376,3.63,6.63,5.868-6.393,1.326-41.295a.3.3,0,0,1,.039-.138l2.906-4.729-2.21-3.768-2.392,3.939.867,4.652a.276.276,0,0,1,0,.116Z" transform="translate(-305.844 -149.494)" fill="#263238"/>
      <path id="Path_34504" data-name="Path 34504" d="M384.64,180.778l3.354,6.321,10.183-12.172-1.685-1.807Z" transform="translate(-315.359 -145.203)" fill="#fff"/>
      <path id="Path_34505" data-name="Path 34505" d="M387.792,187.151h0a.287.287,0,0,1-.216-.144l-3.354-6.326a.271.271,0,0,1,.094-.359l11.851-7.658a.276.276,0,0,1,.354.044l1.685,1.8a.276.276,0,0,1,0,.37l-10.183,12.155a.254.254,0,0,1-.232.116Zm-2.989-6.5,3.039,5.735,9.763-11.675-1.365-1.453Z" transform="translate(-315.158 -144.978)" fill="#263238"/>
      <path id="Path_34506" data-name="Path 34506" d="M381.351,184.483l-4.061,4.663,2.558-7.746Z" transform="translate(-312.07 -148.908)" fill="#fff"/>
      <path id="Path_34507" data-name="Path 34507" d="M377.064,189.207a.249.249,0,0,1-.138-.039.276.276,0,0,1-.127-.326l2.564-7.735a.265.265,0,0,1,.243-.188.282.282,0,0,1,.265.155l1.5,3.083a.276.276,0,0,1-.039.3l-4.061,4.663a.287.287,0,0,1-.21.083Zm2.608-7.293-1.917,5.8,3.039-3.492Z" transform="translate(-311.844 -148.693)" fill="#263238"/>
      <path id="Path_34508" data-name="Path 34508" d="M366.291,180s-4.729,12.017-6.337,21.36-11.68,45.416-12.266,47.9.293,3.216-.586,2.486-.729-4.973-.436-9.641,2.044-15.47,2.044-15.47l2.923-25.846s0-14.752.729-15.332S366.291,180,366.291,180Z" transform="translate(-298.264 -148.281)" fill="#f8951d"/>
      <path id="Path_34509" data-name="Path 34509" d="M347.251,252.046c-.144,0-.293-.122-.553-.337-.917-.762-.89-4.194-.552-9.868.287-4.63,2.028-15.4,2.05-15.5l2.917-25.835c0-4.42.077-14.918.829-15.52s12.658-4.973,14.012-5.486a.276.276,0,0,1,.354.359c-.05.122-4.741,12.1-6.326,21.31-1.227,7.144-7.487,30.211-10.5,41.295-.95,3.5-1.658,6.033-1.774,6.63a6.74,6.74,0,0,0-.177,2.359c0,.26.039.464-.16.552a.3.3,0,0,1-.122.044Zm.083-.553Zm18.233-71.274c-5.282,1.95-12.791,4.8-13.26,5.194-.453.658-.624,9.625-.624,15.117L348.759,226.4c0,.122-1.757,10.862-2.044,15.47-.171,2.735-.553,8.337.265,9.332a7.68,7.68,0,0,1,.21-2.26c.138-.591.8-3,1.779-6.63,3.006-11.05,9.26-34.129,10.5-41.245,1.381-8.111,5.166-18.343,6.122-20.846Z" transform="translate(-298.037 -148.048)" fill="#263238"/>
      <path id="Path_34510" data-name="Path 34510" d="M368.9,203.372h0a.276.276,0,0,1-.26-.293l.608-10.431a.3.3,0,0,1,.033-.122l2.564-4.42-1.061-1.061a.287.287,0,0,1-.055-.32l2.293-4.691a.277.277,0,1,1,.5.243l-2.21,4.514,1.072,1.105a.276.276,0,0,1,.044.332l-2.635,4.553-.6,10.365A.276.276,0,0,1,368.9,203.372Z" transform="translate(-308.199 -149.122)" fill="#263238"/>
      <path id="Path_34511" data-name="Path 34511" d="M397.543,176.39s-7.4,13.26-9.884,21-4.818,22.338-4.381,25.261,6.282,27.747,6.862,28.476a7.735,7.735,0,0,0,2.044,1.459s7.608,1.558,12.155.243A22.252,22.252,0,0,0,412.494,248s-7.017-16.89-7.459-20.249-.58-5.84-.58-5.84,8.47-38.847,8.028-39.72S397.543,176.39,397.543,176.39Z" transform="translate(-314.725 -146.666)" fill="#f8951d"/>
      <path id="Path_34512" data-name="Path 34512" d="M399.509,253.439a42.892,42.892,0,0,1-7.6-.779h-.066a8.038,8.038,0,0,1-2.138-1.536c-.674-.845-6.547-26.134-6.917-28.609-.453-3.028,1.923-17.68,4.387-25.388s9.835-20.929,9.906-21.062a.282.282,0,0,1,.332-.127c3.431,1.171,14.647,5.055,15.1,5.962s-6,30.686-8,39.869c0,.32.177,2.7.58,5.785.425,3.282,7.37,20.006,7.442,20.178a.282.282,0,0,1-.066.3,22.664,22.664,0,0,1-8.288,4.884A17.125,17.125,0,0,1,399.509,253.439Zm-7.453-1.315c.552.116,7.735,1.475,11.962.243a22.425,22.425,0,0,0,7.929-4.625c-.8-1.917-6.989-16.934-7.4-20.145-.436-3.315-.586-5.835-.586-5.857a.182.182,0,0,1,0-.077c3.315-15.155,8.138-38.046,8.039-39.543-.68-.691-9.15-3.757-14.548-5.608-.939,1.7-7.475,13.653-9.752,20.763-2.448,7.63-4.818,22.156-4.37,25.134s6.188,27.366,6.812,28.355a7.238,7.238,0,0,0,1.917,1.359Z" transform="translate(-314.504 -146.458)" fill="#263238"/>
      <path id="Path_34513" data-name="Path 34513" d="M389.957,223.108a.309.309,0,0,1-.149-.044.276.276,0,0,1-.083-.381l1.79-2.8a.276.276,0,1,1,.464.3l-1.807,2.8a.265.265,0,0,1-.215.122Z" transform="translate(-317.615 -166.068)" fill="#263238"/>
      <path id="Path_34514" data-name="Path 34514" d="M395.467,200.338a.309.309,0,0,1-.149-.044.276.276,0,0,1-.083-.381l7.183-11.111-2.166-2.514a.287.287,0,0,1-.061-.254.265.265,0,0,1,.177-.188l3.752-1.287,1.536-4.973a.276.276,0,0,1,.525.16l-1.575,5.1a.282.282,0,0,1-.177.177l-3.492,1.2,2.033,2.359a.276.276,0,0,1,0,.332L395.7,200.2A.276.276,0,0,1,395.467,200.338Z" transform="translate(-320.08 -148.022)" fill="#263238"/>
      <path id="Path_34515" data-name="Path 34515" d="M409.992,195.535l1.751,20.062s-1.022.144-1.315.873l-.293.729-9.636,1.763.729,10.221,16.5-2.337s4.525,0,6.133-1.171a9.007,9.007,0,0,0,2.917-5.984,35.658,35.658,0,0,0-1.332-6.238l-3.194-22.73a7.571,7.571,0,0,0-.144-5.254c-1.166-2.492-11.1-4.089-11.1-4.089" transform="translate(-322.456 -148.899)" fill="#f8951d"/>
      <path id="Path_34516" data-name="Path 34516" d="M401.005,229.242a.271.271,0,0,1-.171-.061.287.287,0,0,1-.105-.2L400,218.761a.282.282,0,0,1,.227-.293l9.487-1.724.238-.586a1.879,1.879,0,0,1,1.271-.995l-1.729-19.813a.276.276,0,0,1,.254-.3.271.271,0,0,1,.3.249l1.751,20.056a.282.282,0,0,1-.238.3s-.867.138-1.105.707l-.287.729a.287.287,0,0,1-.21.171l-9.393,1.707.691,9.68,16.211-2.3c.083,0,4.492,0,6.006-1.105a8.8,8.8,0,0,0,2.807-5.763,36.171,36.171,0,0,0-1.321-6.155l-3.2-22.774a.27.27,0,0,1,0-.133,7.43,7.43,0,0,0-.133-5.044c-.912-1.928-8.172-3.492-10.9-3.934a.271.271,0,0,1-.227-.315.276.276,0,0,1,.315-.232c.414.066,10.089,1.658,11.3,4.249a7.776,7.776,0,0,1,.177,5.4l3.182,22.653a34.334,34.334,0,0,1,1.337,6.277,9.448,9.448,0,0,1-3.033,6.21c-1.68,1.238-6.105,1.221-6.293,1.221l-16.465,2.332Z" transform="translate(-322.232 -148.682)" fill="#263238"/>
      <path id="Path_34517" data-name="Path 34517" d="M425.074,207.573a.249.249,0,0,1-.138-.039.276.276,0,0,1-.105-.376c1.658-2.95,3.967-6.735,5.5-7.995a.276.276,0,1,1,.348.425c-1.138.939-3.044,3.724-5.365,7.84A.282.282,0,0,1,425.074,207.573Z" transform="translate(-333.328 -156.821)" fill="#263238"/>
      <path id="Path_34518" data-name="Path 34518" d="M421.948,218.172a.327.327,0,0,1-.122,0,.276.276,0,0,1-.122-.376s.414-.8,1.061-1.984a.276.276,0,0,1,.376-.11.282.282,0,0,1,.11.376c-.641,1.171-1.055,1.972-1.055,1.972A.276.276,0,0,1,421.948,218.172Z" transform="translate(-331.931 -164.243)" fill="#263238"/>
      <path id="Path_34519" data-name="Path 34519" d="M422.478,209a.216.216,0,0,1-.1,0,.276.276,0,0,1-.155-.359,33.169,33.169,0,0,1,3.249-4.884.282.282,0,0,1,.392-.05.287.287,0,0,1,.044.392,33.051,33.051,0,0,0-3.171,4.752.282.282,0,0,1-.26.149Z" transform="translate(-332.169 -158.862)" fill="#263238"/>
      <path id="Path_34520" data-name="Path 34520" d="M428.6,244.82h-.066l-6.133-1.464a.284.284,0,1,1,.133-.553l6.133,1.459a.287.287,0,0,1,.2.337A.276.276,0,0,1,428.6,244.82Z" transform="translate(-332.16 -176.382)" fill="#263238"/>
      <path id="Path_34521" data-name="Path 34521" d="M398.254,249.4l-2.774.293.873,9.05,2.486-.293Z" transform="translate(-320.21 -179.337)" fill="#fff"/>
      <path id="Path_34522" data-name="Path 34522" d="M396.137,258.808a.282.282,0,0,1-.276-.249L395,249.52a.271.271,0,0,1,.243-.3l2.763-.293a.276.276,0,0,1,.3.254l.58,9.056a.271.271,0,0,1-.243.293l-2.481.293Zm-.552-9.083.823,8.5,1.945-.227-.591-8.475Z" transform="translate(-319.994 -179.126)" fill="#263238"/>
      <path id="Path_34523" data-name="Path 34523" d="M384.173,247.5s-6.669-2.812-7.409-2.961a3.381,3.381,0,0,0-1.851.3,14.69,14.69,0,0,1-3.254,1.182c-.961.077-1.624.37-1.4.89s1.481,1.033,1.481,1.033-1.332,1.105-1.332,1.4a5.116,5.116,0,0,0,1.033,2,3.22,3.22,0,0,1,.812.293s1.332,2.663,1.7,3.315,1.553.812,2,.812a16.289,16.289,0,0,0,3.7.293,24.678,24.678,0,0,0,5.177-1.475Z" transform="translate(-308.903 -177.151)" fill="#fff"/>
      <path id="Path_34524" data-name="Path 34524" d="M378.71,256.161a13.264,13.264,0,0,1-2.37-.243,4.608,4.608,0,0,0-.553-.083c-.586,0-1.818-.2-2.21-.956-.332-.6-1.431-2.79-1.658-3.254a2.634,2.634,0,0,0-.608-.227c-.553,0-1.309-2.066-1.309-2.276,0-.094,0-.37,1.105-1.332a2.69,2.69,0,0,1-1.221-1,.691.691,0,0,1,.028-.641c.271-.436,1.022-.586,1.608-.63a11.6,11.6,0,0,0,2.8-.995l.381-.171a3.625,3.625,0,0,1,2.006-.309c.74.149,6.774,2.691,7.459,2.978a.271.271,0,0,1,.166.232l.657,7.094a.276.276,0,0,1-.177.282,24.623,24.623,0,0,1-5.254,1.5A7.889,7.889,0,0,1,378.71,256.161Zm-7.365-5.31a3.509,3.509,0,0,1,.856.32.259.259,0,0,1,.122.122c0,.028,1.332,2.663,1.7,3.315.282.508,1.3.674,1.751.674a4.682,4.682,0,0,1,.663.088,11.493,11.493,0,0,0,3.017.21,23.423,23.423,0,0,0,4.906-1.387l-.624-6.724c-1.956-.823-6.63-2.763-7.183-2.884a3.121,3.121,0,0,0-1.691.282l-.354.16a11.836,11.836,0,0,1-2.984,1.044c-.74.055-1.105.232-1.177.365a.162.162,0,0,0,0,.138,3.138,3.138,0,0,0,1.332.89.282.282,0,0,1,.166.215.265.265,0,0,1-.094.249,6.725,6.725,0,0,0-1.238,1.232,7.317,7.317,0,0,0,.834,1.691Z" transform="translate(-308.728 -176.927)" fill="#263238"/>
      <path id="Path_34525" data-name="Path 34525" d="M372.778,248.918a.265.265,0,0,1-.227-.127.271.271,0,0,1,.077-.381c.348-.221,3.414-2.21,4.475-2.332a.279.279,0,0,1,.077.552,21.388,21.388,0,0,0-4.249,2.249A.265.265,0,0,1,372.778,248.918Z" transform="translate(-309.928 -177.849)" fill="#263238"/>
      <path id="Path_34526" data-name="Path 34526" d="M373.676,255.309a.249.249,0,0,1-.171-.061.271.271,0,0,1-.044-.387,20.057,20.057,0,0,1,1.53-1.751,11.053,11.053,0,0,1,1.155-.63c.271-.144.553-.287.63-.337a.282.282,0,0,1,.387.077.276.276,0,0,1-.077.381c-.1.066-.326.182-.691.37s-.917.47-1.072.586a19.694,19.694,0,0,0-1.431,1.658A.276.276,0,0,1,373.676,255.309Z" transform="translate(-310.328 -180.544)" fill="#263238"/>
      <path id="Path_34527" data-name="Path 34527" d="M375.418,258.52a.271.271,0,0,1-.227-.122.276.276,0,0,1,.077-.387s1.326-.884,1.613-1.1,1.6-.845,1.746-.917a.282.282,0,0,1,.37.133.276.276,0,0,1-.133.37,17.49,17.49,0,0,0-1.658.856c-.3.227-1.586,1.105-1.658,1.105a.3.3,0,0,1-.133.066Z" transform="translate(-311.109 -182.274)" fill="#263238"/>
      <path id="Path_34528" data-name="Path 34528" d="M376.776,262.233a.271.271,0,0,1-.227-.122.276.276,0,0,1,.072-.387,12.762,12.762,0,0,1,3.2-1.591.271.271,0,0,1,.332.2.276.276,0,0,1-.2.332,12.443,12.443,0,0,0-3.017,1.514.26.26,0,0,1-.155.05Z" transform="translate(-311.716 -184.136)" fill="#263238"/>
      <path id="Path_34529" data-name="Path 34529" d="M370.975,129.977s-2.95,5.033-2.729,5.785a27.257,27.257,0,0,1,.42,2.939s-3.464,3.564-3.044,4.3,2.519,1.658,2.519,1.658a23.791,23.791,0,0,0,.42,4.823c.42,1.155-.21,3.569,1.26,3.779a18.284,18.284,0,0,0,3.564,0l2.729,5.138,11.851-7.658-.84-4.718s1.365-.1,1.658-.84,1.89-2.414,1.995-2.939,2.829-4.613,2.519-7.028-3.674-9.022-5.249-10.277-11.221-2.21-13.636-1.658-5.453,3.984-5.453,4.508S370.975,129.977,370.975,129.977Z" transform="translate(-306.832 -122.828)" fill="#fff"/>
      <path id="Path_34530" data-name="Path 34530" d="M375.9,158.479h-.072a.254.254,0,0,1-.171-.138l-2.641-4.973a17.393,17.393,0,0,1-3.448,0c-1.2-.171-1.265-1.508-1.309-2.586a5.028,5.028,0,0,0-.171-1.37,21.764,21.764,0,0,1-.436-4.741,6.824,6.824,0,0,1-2.481-1.718c-.448-.779,1.658-3.138,2.995-4.536a25.2,25.2,0,0,0-.4-2.763c-.21-.735,1.685-4.144,2.635-5.785-.685-.6-1.912-1.724-1.912-2.265,0-.735,3.243-4.254,5.669-4.779s12.155.354,13.868,1.729c1.624,1.3,5.022,7.945,5.348,10.465.249,1.9-1.26,4.707-2.066,6.216a8.162,8.162,0,0,0-.453.9,5.607,5.607,0,0,1-1.028,1.58,9.469,9.469,0,0,0-.984,1.409,2.073,2.073,0,0,1-1.608.967l.79,4.42a.287.287,0,0,1-.127.282l-11.851,7.641a.293.293,0,0,1-.149.044Zm-2.729-5.691a.271.271,0,0,1,.243.144l2.591,4.873,11.442-7.393-.807-4.542a.276.276,0,0,1,.055-.215.265.265,0,0,1,.193-.1c.337-.028,1.243-.2,1.448-.674a9.537,9.537,0,0,1,1.055-1.536,7.419,7.419,0,0,0,.923-1.348,5.835,5.835,0,0,1,.5-1.05c.785-1.453,2.238-4.16,2.011-5.884-.309-2.376-3.63-8.89-5.144-10.1s-10.978-2.155-13.4-1.624c-2.332.5-5.149,3.807-5.238,4.254a8.671,8.671,0,0,0,1.9,1.978.276.276,0,0,1,.061.348c-1.359,2.332-2.763,5.116-2.7,5.558a27,27,0,0,1,.431,2.984.276.276,0,0,1-.077.215c-1.735,1.79-3.105,3.608-3,3.978a7.033,7.033,0,0,0,2.392,1.558.282.282,0,0,1,.16.254,23.436,23.436,0,0,0,.4,4.729,5.526,5.526,0,0,1,.2,1.536c.05,1.182.138,1.961.834,2.061a18.184,18.184,0,0,0,3.5,0Z" transform="translate(-306.619 -122.627)" fill="#263238"/>
      <path id="Path_34531" data-name="Path 34531" d="M390.819,124.947c-1.575-1.26-11.221-2.21-13.636-1.658s-5.453,3.984-5.453,4.508,1.995,2.21,1.995,2.21a35.511,35.511,0,0,0,4.928.1c.735-.21,4.194-2.1,3.774-1.26s-3.564,3.149-3.459,3.669a9.423,9.423,0,0,0,1.47,3.149,23.45,23.45,0,0,0,2.619,1.89s.21,2.514.84,2.514,1.155-1.658,1.155-1.658,1.575-1.89,2.624.1,1.359,4.613.21,5.453a5.525,5.525,0,0,1-2.834.84,9.144,9.144,0,0,0,2.519,1.47,5.575,5.575,0,0,0,2.3-.21s1.365-.1,1.658-.84,1.89-2.414,1.995-2.939,2.829-4.613,2.519-7.028S392.394,126.2,390.819,124.947Z" transform="translate(-309.582 -122.832)" fill="#263238"/>
      <path id="Path_34532" data-name="Path 34532" d="M387.944,146.332a2.906,2.906,0,0,1-.663-.066,9.326,9.326,0,0,1-2.63-1.519.276.276,0,0,1,.171-.492,5.254,5.254,0,0,0,2.669-.785c.923-.674.785-3.055-.293-5.105a1.234,1.234,0,0,0-.862-.762,1.8,1.8,0,0,0-1.265.669c-.16.492-.663,1.812-1.4,1.812s-1.006-1.586-1.105-2.63A21.207,21.207,0,0,1,380,135.6a9.466,9.466,0,0,1-1.542-3.287c-.083-.4.431-.9,1.8-2.144a17.1,17.1,0,0,0,1.508-1.453c-.508.16-1.42.586-1.972.834a13.421,13.421,0,0,1-1.3.553,33.073,33.073,0,0,1-5.028-.094.276.276,0,0,1-.16-.066c-.624-.552-2.089-1.823-2.089-2.414,0-.735,3.243-4.254,5.669-4.779s12.155.354,13.868,1.729c1.624,1.3,5.022,7.945,5.348,10.465.249,1.9-1.26,4.707-2.066,6.216a8.164,8.164,0,0,0-.453.9,5.608,5.608,0,0,1-1.028,1.58,9.472,9.472,0,0,0-.983,1.409c-.354.823-1.624.983-1.879,1.006A6.851,6.851,0,0,1,387.944,146.332Zm-2.37-1.586a6.52,6.52,0,0,0,1.829.983,5.393,5.393,0,0,0,2.166-.2h.055c.337-.028,1.243-.2,1.448-.674a9.537,9.537,0,0,1,1.055-1.536,7.422,7.422,0,0,0,.923-1.348,5.837,5.837,0,0,1,.5-1.05c.785-1.453,2.238-4.16,2.011-5.884-.309-2.376-3.63-8.89-5.144-10.1h0c-1.453-1.166-10.978-2.155-13.4-1.624-2.332.5-5.149,3.807-5.238,4.254a8.28,8.28,0,0,0,1.829,1.917,31.176,31.176,0,0,0,4.741.11,10.135,10.135,0,0,0,1.227-.553c1.95-.9,2.558-1.105,2.84-.834a.4.4,0,0,1,.033.492,9.85,9.85,0,0,1-1.807,1.873,9.382,9.382,0,0,0-1.63,1.658,9.471,9.471,0,0,0,1.392,2.967,24.408,24.408,0,0,0,2.575,1.851.265.265,0,0,1,.127.21,5.03,5.03,0,0,0,.553,2.265c.227,0,.652-.785.873-1.486a.2.2,0,0,1,.055-.094,2.388,2.388,0,0,1,1.785-.9,1.7,1.7,0,0,1,1.293,1.05c1.105,2.055,1.437,4.857.127,5.807a5.21,5.21,0,0,1-2.216.851Z" transform="translate(-309.354 -122.592)" fill="#263238"/>
      <path id="Path_34533" data-name="Path 34533" d="M375.185,150.735c0,.635-.309,1.149-.685,1.149s-.68-.514-.68-1.149.3-1.155.68-1.155S375.185,150.094,375.185,150.735Z" transform="translate(-310.517 -134.669)" fill="#263238"/>
      <path id="Path_34534" data-name="Path 34534" d="M371.7,166.4a.276.276,0,1,1,0-.553,6.9,6.9,0,0,0,3.2-.79.276.276,0,1,1,.3.459A7.355,7.355,0,0,1,371.7,166.4Z" transform="translate(-309.443 -141.569)" fill="#263238"/>
      <path id="Path_34535" data-name="Path 34535" d="M375.4,146.912a.271.271,0,0,1-.177-.066c-1.188-1.006-2.763,0-2.818,0a.276.276,0,1,1-.3-.464c.077-.05,1.972-1.249,3.475,0a.32.32,0,0,1-.182.53Z" transform="translate(-309.688 -132.984)" fill="#263238"/>
      <path id="Path_34536" data-name="Path 34536" d="M379.7,177.085l3.884-.735L381.17,179.7Z" transform="translate(-313.148 -146.648)" fill="#263238"/>
      <path id="Path_34537" data-name="Path 34537" d="M380.966,179.757h0a.282.282,0,0,1-.227-.138l-1.464-2.624a.276.276,0,0,1,0-.254.265.265,0,0,1,.2-.149l3.868-.735a.276.276,0,0,1,.276.431l-2.409,3.354A.271.271,0,0,1,380.966,179.757Zm-1.039-2.718,1.066,1.906,1.757-2.442Z" transform="translate(-312.944 -146.425)" fill="#263238"/>
    </g>
  </g>
</svg>
