<svg xmlns="http://www.w3.org/2000/svg" width="250" height="236.022" viewBox="0 0 250 236.022"><g transform="translate(-23.61 -47.266)"><g transform="translate(36.447 256.421)"><ellipse cx="71.227" cy="10.248" rx="71.227" ry="10.248" transform="translate(46.607 6.372)" fill="#ebebeb"/><path d="M122.923,433.353c0,4.02-17.028,7.283-38.032,7.283s-38.032-3.263-38.032-7.283,17.028-7.283,38.032-7.283S122.923,429.344,122.923,433.353Z" transform="translate(-46.86 -426.07)" fill="#ebebeb"/></g><g transform="translate(182.208 133.265)"><rect width="16.553" height="53.945" transform="translate(21.76 55.259)" fill="#f8951d"/><g transform="translate(34.52 55.259)" opacity="0.1"><rect width="3.788" height="53.945"/></g><rect width="16.553" height="71.492" transform="translate(43.564 37.706)" fill="#f8951d"/><g transform="translate(56.33 37.706)" opacity="0.1"><rect width="3.788" height="71.492"/></g><rect width="16.553" height="43.487" transform="translate(0 65.716)" fill="#f8951d"/><g transform="translate(12.76 65.716)" opacity="0.1"><rect width="3.788" height="43.487"/></g><rect width="16.553" height="94.858" transform="translate(65.374 14.339)" fill="#f8951d"/><g transform="translate(78.134 14.339)" opacity="0.1"><rect width="3.788" height="94.858"/></g><path d="M310.85,288.636v-8.365s56.319-4.8,79.089-67.2h2.413S377.085,277.632,310.85,288.636Z" transform="translate(-310.85 -207.521)" fill="#c7c7c7"/><path d="M456.237,211.252l-7.117-2.358,5.9-5.875Z" transform="translate(-372.775 -203.02)" fill="#c7c7c7"/></g><g transform="translate(23.61 242.192)"><path d="M23.61,400.571l31.251-.133,31.251-.05,62.5-.088,62.5.088,31.251.05,31.251.133-31.251.138-31.251.05-62.5.088-62.5-.088-31.251-.05Z" transform="translate(-23.61 -400.3)" fill="#263238"/></g><g transform="translate(41.091 217.809)"><rect width="34.774" height="7.686" transform="translate(127.876 47.788)" fill="#f8951d"/><g transform="translate(129.036 48.511)" opacity="0.1"><path d="M289.246,444a17.237,17.237,0,0,1,0,6.145A17.239,17.239,0,0,1,289.246,444Z" transform="translate(-288.97 -444)"/><path d="M293.936,444a17.239,17.239,0,0,1,0,6.145A17.237,17.237,0,0,1,293.936,444Z" transform="translate(-291.07 -444)"/><path d="M296.225,444a17.237,17.237,0,0,1,0,6.145,14.858,14.858,0,0,1-.276-3.075,15.194,15.194,0,0,1,.276-3.07Z" transform="translate(-292.095 -444)"/><path d="M308.776,444a17.237,17.237,0,0,1,0,6.145A17.237,17.237,0,0,1,308.776,444Z" transform="translate(-297.717 -444)"/><path d="M312.2,444a15.6,15.6,0,0,1,.276,3.07,15.246,15.246,0,0,1-.276,3.075,14.856,14.856,0,0,1-.276-3.075A15.193,15.193,0,0,1,312.2,444Z" transform="translate(-299.251 -444)"/><path d="M326.275,444a15.6,15.6,0,0,1,.276,3.07,15.246,15.246,0,0,1-.276,3.075A14.856,14.856,0,0,1,326,447.07,15.606,15.606,0,0,1,326.275,444Z" transform="translate(-305.553 -444)"/><path d="M329.525,444a15.6,15.6,0,0,1,.276,3.07,14.858,14.858,0,0,1-.276,3.075,15.244,15.244,0,0,1-.276-3.075A15.6,15.6,0,0,1,329.525,444Z" transform="translate(-307.009 -444)"/><path d="M335.495,444a15.6,15.6,0,0,1,.276,3.07,15.246,15.246,0,0,1-.276,3.075,14.858,14.858,0,0,1-.276-3.075,15.606,15.606,0,0,1,.276-3.07Z" transform="translate(-309.682 -444)"/><path d="M323.555,444a15.193,15.193,0,0,1,.276,3.07,14.854,14.854,0,0,1-.276,3.075,15.246,15.246,0,0,1-.276-3.075,15.606,15.606,0,0,1,.276-3.07Z" transform="translate(-304.335 -444)"/><path d="M300.386,444a17.585,17.585,0,0,1,0,6.145A17.237,17.237,0,0,1,300.386,444Z" transform="translate(-293.959 -444)"/><path d="M316.686,444a17.239,17.239,0,0,1,0,6.145A17.237,17.237,0,0,1,316.686,444Z" transform="translate(-301.259 -444)"/><path d="M319.025,444a15.193,15.193,0,0,1,.276,3.07,14.856,14.856,0,0,1-.276,3.075,15.244,15.244,0,0,1-.276-3.075,15.606,15.606,0,0,1,.276-3.07Z" transform="translate(-302.306 -444)"/><path d="M343.275,444a15.2,15.2,0,0,1,.276,3.07,14.863,14.863,0,0,1-.276,3.075A15.242,15.242,0,0,1,343,447.07,15.6,15.6,0,0,1,343.275,444Z" transform="translate(-313.167 -444)"/><path d="M346.775,444a15.6,15.6,0,0,1,.276,3.07,15.246,15.246,0,0,1-.276,3.075,14.854,14.854,0,0,1-.276-3.075A15.193,15.193,0,0,1,346.775,444Z" transform="translate(-314.734 -444)"/><path d="M338.265,444a15.2,15.2,0,0,1,.276,3.07,14.858,14.858,0,0,1-.276,3.075,15.244,15.244,0,0,1-.276-3.075A15.608,15.608,0,0,1,338.265,444Z" transform="translate(-310.923 -444)"/><path d="M306.085,444a17.237,17.237,0,0,1,0,6.145,14.856,14.856,0,0,1-.276-3.075A15.2,15.2,0,0,1,306.085,444Z" transform="translate(-296.511 -444)"/></g><path d="M321.644,442.69v1.634l-34.774,1.093V442.69Z" transform="translate(-158.994 -394.902)" opacity="0.1"/><rect width="34.774" height="7.686" transform="translate(124.977 40.108)" fill="#f8951d"/><g transform="translate(126.13 40.809)" opacity="0.1"><path d="M341.536,436.2a17.265,17.265,0,0,1,0-6.151A17.265,17.265,0,0,1,341.536,436.2Z" transform="translate(-309.483 -430.05)"/><path d="M336.846,436.2a17.265,17.265,0,0,1,0-6.151A17.265,17.265,0,0,1,336.846,436.2Z" transform="translate(-307.383 -430.05)"/><path d="M334.555,436.2a15.7,15.7,0,0,1-.276-3.075,15.243,15.243,0,0,1,.276-3.075,14.858,14.858,0,0,1,.276,3.075A15.284,15.284,0,0,1,334.555,436.2Z" transform="translate(-306.356 -430.05)"/><path d="M321.976,436.2a17.265,17.265,0,0,1,0-6.151A17.266,17.266,0,0,1,321.976,436.2Z" transform="translate(-300.723 -430.05)"/><path d="M318.575,436.2a15.7,15.7,0,0,1-.276-3.075,15.244,15.244,0,0,1,.276-3.075,14.856,14.856,0,0,1,.276,3.075A15.692,15.692,0,0,1,318.575,436.2Z" transform="translate(-299.199 -430.05)"/><path d="M304.5,436.2a15.7,15.7,0,0,1-.276-3.075,14.859,14.859,0,0,1,.276-3.076,14.856,14.856,0,0,1,.276,3.075A15.7,15.7,0,0,1,304.5,436.2Z" transform="translate(-292.898 -430.05)"/><path d="M301.255,436.2a15.286,15.286,0,0,1-.276-3.075,14.858,14.858,0,0,1,.276-3.075,15.244,15.244,0,0,1,.276,3.075A15.7,15.7,0,0,1,301.255,436.2Z" transform="translate(-291.442 -430.05)"/><path d="M295.285,436.2a15.7,15.7,0,0,1-.276-3.075,14.858,14.858,0,0,1,.276-3.075,15.244,15.244,0,0,1,.276,3.075A15.7,15.7,0,0,1,295.285,436.2Z" transform="translate(-288.768 -430.05)"/><path d="M307.225,436.2a15.284,15.284,0,0,1-.276-3.075,14.855,14.855,0,0,1,.276-3.076A17.265,17.265,0,0,1,307.225,436.2Z" transform="translate(-294.116 -430.05)"/><path d="M330.4,436.2a17.265,17.265,0,0,1,0-6.151A17.265,17.265,0,0,1,330.4,436.2Z" transform="translate(-304.494 -430.05)"/><path d="M314.1,436.2a17.265,17.265,0,0,1,0-6.151A17.266,17.266,0,0,1,314.1,436.2Z" transform="translate(-297.194 -430.05)"/><path d="M311.775,436.2a15.286,15.286,0,0,1-.276-3.075,14.862,14.862,0,0,1,.276-3.075A17.265,17.265,0,0,1,311.775,436.2Z" transform="translate(-296.154 -430.05)"/><path d="M287.5,436.2a15.284,15.284,0,0,1-.276-3.075,14.859,14.859,0,0,1,.276-3.076,17.266,17.266,0,0,1,0,6.151Z" transform="translate(-285.284 -430.05)"/><path d="M283.985,436.2a15.7,15.7,0,0,1-.276-3.075,15.242,15.242,0,0,1,.276-3.076,14.857,14.857,0,0,1,.276,3.076A15.284,15.284,0,0,1,283.985,436.2Z" transform="translate(-283.708 -430.05)"/><path d="M292.515,436.2a15.284,15.284,0,0,1-.276-3.075,14.858,14.858,0,0,1,.276-3.075A17.265,17.265,0,0,1,292.515,436.2Z" transform="translate(-287.528 -430.05)"/><path d="M324.7,436.2a15.7,15.7,0,0,1-.276-3.075,15.246,15.246,0,0,1,.276-3.075,14.856,14.856,0,0,1,.276,3.075,15.279,15.279,0,0,1-.276,3.075Z" transform="translate(-301.94 -430.05)"/></g><path d="M316.384,428.78v1.629l-34.774,1.1V428.78Z" transform="translate(-156.638 -388.672)" opacity="0.1"/><rect width="34.774" height="7.686" transform="translate(127.655 32.483)" fill="#f8951d"/><g transform="translate(128.809 33.189)" opacity="0.1"><path d="M288.836,416.25a17.239,17.239,0,0,1,0,6.145A17.237,17.237,0,0,1,288.836,416.25Z" transform="translate(-288.56 -416.25)"/><path d="M293.526,416.25a17.237,17.237,0,0,1,0,6.145A17.237,17.237,0,0,1,293.526,416.25Z" transform="translate(-290.66 -416.25)"/><path d="M295.826,416.25a17.585,17.585,0,0,1,0,6.145A17.237,17.237,0,0,1,295.826,416.25Z" transform="translate(-291.69 -416.25)"/><path d="M308.4,416.25a17.237,17.237,0,0,1,0,6.145A17.237,17.237,0,0,1,308.4,416.25Z" transform="translate(-297.32 -416.25)"/><path d="M311.776,416.25a17.237,17.237,0,0,1,0,6.145A17.237,17.237,0,0,1,311.776,416.25Z" transform="translate(-298.834 -416.25)"/><path d="M325.876,416.25a17.239,17.239,0,0,1,0,6.145A17.237,17.237,0,0,1,325.876,416.25Z" transform="translate(-305.149 -416.25)"/><path d="M329.126,416.25a17.239,17.239,0,0,1,0,6.145A17.239,17.239,0,0,1,329.126,416.25Z" transform="translate(-306.604 -416.25)"/><path d="M335.1,416.25a17.237,17.237,0,0,1,0,6.145A17.237,17.237,0,0,1,335.1,416.25Z" transform="translate(-309.278 -416.25)"/><path d="M323.155,416.25a17.239,17.239,0,0,1,0,6.145,14.808,14.808,0,0,1-.276-3.07A15.21,15.21,0,0,1,323.155,416.25Z" transform="translate(-303.929 -416.25)"/><path d="M299.976,416.25a15.21,15.21,0,0,1,.276,3.075,14.81,14.81,0,0,1-.276,3.07A17.237,17.237,0,0,1,299.976,416.25Z" transform="translate(-293.549 -416.25)"/><path d="M316.276,416.25a17.237,17.237,0,0,1,0,6.145A17.237,17.237,0,0,1,316.276,416.25Z" transform="translate(-300.849 -416.25)"/><path d="M318.625,416.25a17.239,17.239,0,0,1,0,6.145,14.808,14.808,0,0,1-.276-3.07A15.213,15.213,0,0,1,318.625,416.25Z" transform="translate(-301.9 -416.25)"/><path d="M342.876,416.25a17.237,17.237,0,0,1,0,6.145A17.237,17.237,0,0,1,342.876,416.25Z" transform="translate(-312.762 -416.25)"/><path d="M346.4,416.25a17.239,17.239,0,0,1,0,6.145,17.239,17.239,0,0,1,0-6.145Z" transform="translate(-314.339 -416.25)"/><path d="M337.865,416.25a17.237,17.237,0,0,1,0,6.145,14.81,14.81,0,0,1-.276-3.07A15.215,15.215,0,0,1,337.865,416.25Z" transform="translate(-310.517 -416.25)"/><path d="M305.681,416.25a17.239,17.239,0,0,1,0,6.145,17.585,17.585,0,0,1,0-6.145Z" transform="translate(-296.106 -416.25)"/></g><path d="M321.239,414.97V416.6l-34.769,1.1V414.97Z" transform="translate(-158.815 -382.487)" opacity="0.1"/><rect width="34.774" height="7.686" transform="translate(24.266 38.357)" fill="#f8951d"/><g transform="translate(25.426 39.048)" opacity="0.1"><path d="M101.6,426.88a17.266,17.266,0,0,1,0,6.151,17.265,17.265,0,0,1,0-6.151Z" transform="translate(-101.32 -426.869)"/><path d="M106.286,426.88a17.265,17.265,0,0,1,0,6.151A17.265,17.265,0,0,1,106.286,426.88Z" transform="translate(-103.42 -426.869)"/><path d="M108.576,426.88a17.266,17.266,0,0,1,0,6.151A17.265,17.265,0,0,1,108.576,426.88Z" transform="translate(-104.446 -426.869)"/><path d="M121.156,426.88a17.614,17.614,0,0,1,0,6.151A17.265,17.265,0,0,1,121.156,426.88Z" transform="translate(-110.08 -426.869)"/><path d="M124.555,426.88a17.266,17.266,0,0,1,0,6.151,14.858,14.858,0,0,1-.276-3.075,15.284,15.284,0,0,1,.276-3.075Z" transform="translate(-111.601 -426.869)"/><path d="M138.625,426.88a17.265,17.265,0,0,1,0,6.151,14.858,14.858,0,0,1-.276-3.075,15.285,15.285,0,0,1,.276-3.075Z" transform="translate(-117.903 -426.869)"/><path d="M141.875,426.88a15.7,15.7,0,0,1,.276,3.075,15.244,15.244,0,0,1-.276,3.075,14.859,14.859,0,0,1-.276-3.075A15.7,15.7,0,0,1,141.875,426.88Z" transform="translate(-119.358 -426.869)"/><path d="M147.845,426.88a15.7,15.7,0,0,1,.276,3.075,15.244,15.244,0,0,1-.276,3.075,14.858,14.858,0,0,1-.276-3.075A15.284,15.284,0,0,1,147.845,426.88Z" transform="translate(-122.032 -426.869)"/><path d="M135.905,426.88a15.7,15.7,0,0,1,.276,3.075,14.858,14.858,0,0,1-.276,3.075,15.245,15.245,0,0,1-.276-3.075A15.7,15.7,0,0,1,135.905,426.88Z" transform="translate(-116.685 -426.869)"/><path d="M112.776,426.871a17.266,17.266,0,0,1,0,6.14,17.266,17.266,0,0,1,0-6.151Z" transform="translate(-106.327 -426.86)"/><path d="M129.036,426.88a17.614,17.614,0,0,1,0,6.151A17.265,17.265,0,0,1,129.036,426.88Z" transform="translate(-113.609 -426.869)"/><path d="M131.375,426.88a15.7,15.7,0,0,1,.276,3.075,14.858,14.858,0,0,1-.276,3.075,15.243,15.243,0,0,1-.276-3.075A15.7,15.7,0,0,1,131.375,426.88Z" transform="translate(-114.656 -426.869)"/><path d="M155.625,426.88a15.7,15.7,0,0,1,.276,3.075,14.858,14.858,0,0,1-.276,3.075,14.857,14.857,0,0,1-.276-3.075,15.7,15.7,0,0,1,.276-3.075Z" transform="translate(-125.516 -426.869)"/><path d="M159.146,426.88a17.266,17.266,0,0,1,0,6.151A17.265,17.265,0,0,1,159.146,426.88Z" transform="translate(-127.094 -426.869)"/><path d="M150.615,426.88a15.7,15.7,0,0,1,.276,3.075,14.859,14.859,0,0,1-.276,3.075,15.243,15.243,0,0,1-.276-3.075A15.7,15.7,0,0,1,150.615,426.88Z" transform="translate(-123.273 -426.869)"/><path d="M118.436,426.88a17.265,17.265,0,0,1,0,6.151A17.265,17.265,0,0,1,118.436,426.88Z" transform="translate(-108.862 -426.869)"/></g><path d="M133.989,425.61v1.634L99.22,428.338V425.61Z" transform="translate(-74.954 -387.253)" opacity="0.1"/><rect width="34.774" height="7.686" transform="translate(21.886 30.672)" fill="#f8951d"/><g transform="translate(23.044 31.395)" opacity="0.1"><path d="M97.285,413a17.238,17.238,0,0,1,0,6.145,14.809,14.809,0,0,1-.276-3.07A15.212,15.212,0,0,1,97.285,413Z" transform="translate(-97.007 -413)"/><path d="M101.975,413a17.238,17.238,0,0,1,0,6.145,14.808,14.808,0,0,1-.276-3.07,15.212,15.212,0,0,1,.276-3.075Z" transform="translate(-99.108 -413)"/><path d="M104.265,413a15.62,15.62,0,0,1,.276,3.075,14.808,14.808,0,0,1-.276,3.07,14.808,14.808,0,0,1-.276-3.07,15.62,15.62,0,0,1,.276-3.076Z" transform="translate(-100.133 -413)"/><path d="M116.846,413a17.238,17.238,0,0,1,0,6.145,17.238,17.238,0,0,1,0-6.145Z" transform="translate(-105.768 -413)"/><path d="M120.245,413a15.212,15.212,0,0,1,.276,3.075,14.808,14.808,0,0,1-.276,3.07,15.2,15.2,0,0,1-.276-3.07,15.62,15.62,0,0,1,.276-3.076Z" transform="translate(-107.29 -413)"/><path d="M134.315,413a15.212,15.212,0,0,1,.276,3.075,14.808,14.808,0,0,1-.276,3.07,15.2,15.2,0,0,1-.276-3.07,15.619,15.619,0,0,1,.276-3.076Z" transform="translate(-113.592 -413)"/><path d="M137.566,413a17.238,17.238,0,0,1,0,6.145A17.237,17.237,0,0,1,137.566,413Z" transform="translate(-115.048 -413)"/><path d="M143.536,413a15.21,15.21,0,0,1,.276,3.075,14.809,14.809,0,0,1-.276,3.07A17.238,17.238,0,0,1,143.536,413Z" transform="translate(-117.722 -413)"/><path d="M131.6,413a17.238,17.238,0,0,1,0,6.145A17.238,17.238,0,0,1,131.6,413Z" transform="translate(-112.374 -413)"/><path d="M108.426,413a17.238,17.238,0,0,1,0,6.145A17.237,17.237,0,0,1,108.426,413Z" transform="translate(-101.998 -413)"/><path d="M124.775,413a17.238,17.238,0,0,1,0,6.145,14.808,14.808,0,0,1-.276-3.07,15.211,15.211,0,0,1,.276-3.075Z" transform="translate(-109.319 -413)"/><path d="M127.066,413a17.238,17.238,0,0,1,0,6.145A17.238,17.238,0,0,1,127.066,413Z" transform="translate(-110.346 -413)"/><path d="M151.316,413a17.239,17.239,0,0,1,0,6.145,17.237,17.237,0,0,1,0-6.145Z" transform="translate(-121.206 -413)"/><path d="M154.835,413a15.621,15.621,0,0,1,.276,3.075,14.808,14.808,0,0,1-.276,3.07,15.2,15.2,0,0,1-.276-3.07,15.621,15.621,0,0,1,.276-3.075Z" transform="translate(-122.782 -413)"/><path d="M146.306,413a17.237,17.237,0,0,1,0,6.145A17.238,17.238,0,0,1,146.306,413Z" transform="translate(-118.962 -413)"/><path d="M114.125,413a15.619,15.619,0,0,1,.276,3.075,15.2,15.2,0,0,1-.276,3.07,14.808,14.808,0,0,1-.276-3.07,15.619,15.619,0,0,1,.276-3.075Z" transform="translate(-104.549 -413)"/></g><path d="M129.684,411.69v1.634l-34.774,1.1V411.69Z" transform="translate(-73.024 -381.018)" opacity="0.1"/><rect width="34.774" height="7.686" transform="translate(27.259 15.372)" fill="#f8951d"/><g transform="translate(28.418 16.073)" opacity="0.1"><path d="M107.016,385.25a17.238,17.238,0,0,1,0,6.145A17.238,17.238,0,0,1,107.016,385.25Z" transform="translate(-106.74 -385.25)"/><path d="M111.706,385.25a17.238,17.238,0,0,1,0,6.145,17.238,17.238,0,0,1,0-6.145Z" transform="translate(-108.84 -385.25)"/><path d="M113.995,385.25a15.659,15.659,0,0,1,.276,3.075,15.2,15.2,0,0,1-.276,3.07,14.808,14.808,0,0,1-.276-3.07A15.659,15.659,0,0,1,113.995,385.25Z" transform="translate(-109.865 -385.25)"/><path d="M126.576,385.25a17.238,17.238,0,0,1,0,6.145A17.238,17.238,0,0,1,126.576,385.25Z" transform="translate(-115.5 -385.25)"/><path d="M129.975,385.25a15.657,15.657,0,0,1,.276,3.075,14.81,14.81,0,0,1-.276,3.07,15.2,15.2,0,0,1-.276-3.07A15.659,15.659,0,0,1,129.975,385.25Z" transform="translate(-117.022 -385.25)"/><path d="M144.045,385.25a15.246,15.246,0,0,1,.276,3.075,14.81,14.81,0,0,1-.276,3.07,15.2,15.2,0,0,1-.276-3.07A15.659,15.659,0,0,1,144.045,385.25Z" transform="translate(-123.323 -385.25)"/><path d="M147.3,385.25a15.246,15.246,0,0,1,.276,3.075,14.81,14.81,0,0,1-.276,3.07,17.237,17.237,0,0,1,0-6.145Z" transform="translate(-124.78 -385.25)"/><path d="M153.265,385.25a15.243,15.243,0,0,1,.276,3.075,14.81,14.81,0,0,1-.276,3.07,15.2,15.2,0,0,1-.276-3.07A15.659,15.659,0,0,1,153.265,385.25Z" transform="translate(-127.452 -385.25)"/><path d="M141.326,385.25a17.239,17.239,0,0,1,0,6.145,17.237,17.237,0,0,1,0-6.145Z" transform="translate(-122.106 -385.25)"/><path d="M118.156,385.25a17.238,17.238,0,0,1,0,6.145A17.238,17.238,0,0,1,118.156,385.25Z" transform="translate(-111.729 -385.25)"/><path d="M134.456,385.25a17.239,17.239,0,0,1,0,6.145A17.237,17.237,0,0,1,134.456,385.25Z" transform="translate(-119.029 -385.25)"/><path d="M136.776,385.25a17.237,17.237,0,0,1,0,6.145A17.239,17.239,0,0,1,136.776,385.25Z" transform="translate(-120.068 -385.25)"/><path d="M161.046,385.25a17.237,17.237,0,0,1,0,6.145,17.238,17.238,0,0,1,0-6.145Z" transform="translate(-130.938 -385.25)"/><path d="M164.565,385.25a15.659,15.659,0,0,1,.276,3.075,14.81,14.81,0,0,1-.276,3.07,14.809,14.809,0,0,1-.276-3.07A15.659,15.659,0,0,1,164.565,385.25Z" transform="translate(-132.513 -385.25)"/><path d="M156.036,385.25a17.238,17.238,0,0,1,0,6.145A17.239,17.239,0,0,1,156.036,385.25Z" transform="translate(-128.694 -385.25)"/><path d="M123.855,385.25a15.659,15.659,0,0,1,.276,3.075,15.2,15.2,0,0,1-.276,3.07,14.808,14.808,0,0,1-.276-3.07,15.244,15.244,0,0,1,.276-3.076Z" transform="translate(-114.281 -385.25)"/></g><path d="M139.414,383.98v1.629l-34.774,1.1V383.98Z" transform="translate(-77.381 -368.608)" opacity="0.1"/><rect width="34.774" height="7.686" transform="translate(26.381 7.686)" fill="#f8951d"/><g transform="translate(27.54 8.387)" opacity="0.1"><path d="M162.975,377.481a15.66,15.66,0,0,1-.276-3.075,14.908,14.908,0,0,1,.276-3.075,14.907,14.907,0,0,1,.276,3.075A15.66,15.66,0,0,1,162.975,377.481Z" transform="translate(-130.923 -371.33)"/><path d="M158.285,377.481a15.66,15.66,0,0,1-.276-3.075,14.908,14.908,0,0,1,.276-3.075,14.908,14.908,0,0,1,.276,3.075A15.659,15.659,0,0,1,158.285,377.481Z" transform="translate(-128.822 -371.33)"/><path d="M155.995,377.481a15.244,15.244,0,0,1-.276-3.075,14.908,14.908,0,0,1,.276-3.075,17.266,17.266,0,0,1,0,6.151Z" transform="translate(-127.797 -371.33)"/><path d="M143.415,377.481a15.658,15.658,0,0,1-.276-3.075,15.282,15.282,0,0,1,.276-3.075,14.908,14.908,0,0,1,.276,3.075A15.66,15.66,0,0,1,143.415,377.481Z" transform="translate(-122.163 -371.33)"/><path d="M140.016,377.481a17.265,17.265,0,0,1,0-6.151,17.265,17.265,0,0,1,0,6.151Z" transform="translate(-120.641 -371.33)"/><path d="M125.946,377.481a17.265,17.265,0,0,1,0-6.151,17.266,17.266,0,0,1,0,6.151Z" transform="translate(-114.34 -371.33)"/><path d="M122.7,377.481a17.266,17.266,0,0,1,0-6.151A17.266,17.266,0,0,1,122.7,377.481Z" transform="translate(-112.884 -371.33)"/><path d="M116.776,377.481a17.265,17.265,0,0,1,0-6.151A17.266,17.266,0,0,1,116.776,377.481Z" transform="translate(-110.233 -371.33)"/><path d="M128.666,377.481a17.266,17.266,0,0,1,0-6.151A17.613,17.613,0,0,1,128.666,377.481Z" transform="translate(-115.558 -371.33)"/><path d="M151.835,377.481a15.658,15.658,0,0,1-.276-3.075,15.284,15.284,0,0,1,.276-3.075,14.908,14.908,0,0,1,.276,3.075A15.245,15.245,0,0,1,151.835,377.481Z" transform="translate(-125.934 -371.33)"/><path d="M135.535,377.481a15.66,15.66,0,0,1-.276-3.075,15.284,15.284,0,0,1,.276-3.075,14.908,14.908,0,0,1,.276,3.075A15.657,15.657,0,0,1,135.535,377.481Z" transform="translate(-118.634 -371.33)"/><path d="M133.2,377.481a17.266,17.266,0,0,1,0-6.151A17.613,17.613,0,0,1,133.2,377.481Z" transform="translate(-117.587 -371.33)"/><path d="M108.946,377.481a17.266,17.266,0,0,1,0-6.151A17.266,17.266,0,0,1,108.946,377.481Z" transform="translate(-106.726 -371.33)"/><path d="M105.426,377.481a17.266,17.266,0,0,1,0-6.151A17.266,17.266,0,0,1,105.426,377.481Z" transform="translate(-105.15 -371.33)"/><path d="M113.956,377.481a17.266,17.266,0,0,1,0-6.151,17.613,17.613,0,0,1,0,6.151Z" transform="translate(-108.97 -371.33)"/><path d="M146.135,377.481a15.245,15.245,0,0,1-.276-3.075,14.908,14.908,0,0,1,.276-3.075A17.266,17.266,0,0,1,146.135,377.481Z" transform="translate(-123.381 -371.33)"/></g><path d="M137.824,370.06v1.634l-34.774,1.093V370.06Z" transform="translate(-76.669 -362.374)" opacity="0.1"/><rect width="34.774" height="7.686" transform="translate(24.266)" fill="#f8951d"/><g transform="translate(25.426 0.707)" opacity="0.1"><path d="M101.6,357.42a17.238,17.238,0,0,1,0,6.145A17.238,17.238,0,0,1,101.6,357.42Z" transform="translate(-101.32 -357.42)"/><path d="M106.286,357.42a17.238,17.238,0,0,1,0,6.145A17.238,17.238,0,0,1,106.286,357.42Z" transform="translate(-103.42 -357.42)"/><path d="M108.575,357.42a15.62,15.62,0,0,1,.276,3.075,15.194,15.194,0,0,1-.276,3.07,14.809,14.809,0,0,1-.276-3.07A15.212,15.212,0,0,1,108.575,357.42Z" transform="translate(-104.445 -357.42)"/><path d="M121.156,357.42a17.238,17.238,0,0,1,0,6.145A17.238,17.238,0,0,1,121.156,357.42Z" transform="translate(-110.08 -357.42)"/><path d="M124.555,357.42a15.62,15.62,0,0,1,.276,3.075,15.194,15.194,0,0,1-.276,3.07,14.809,14.809,0,0,1-.276-3.07A15.62,15.62,0,0,1,124.555,357.42Z" transform="translate(-111.601 -357.42)"/><path d="M138.625,357.42a15.62,15.62,0,0,1,.276,3.075,15.194,15.194,0,0,1-.276,3.07,14.81,14.81,0,0,1-.276-3.07A15.621,15.621,0,0,1,138.625,357.42Z" transform="translate(-117.903 -357.42)"/><path d="M141.875,357.42a15.214,15.214,0,0,1,.276,3.075,14.809,14.809,0,0,1-.276,3.07,15.2,15.2,0,0,1-.276-3.07A15.621,15.621,0,0,1,141.875,357.42Z" transform="translate(-119.359 -357.42)"/><path d="M147.845,357.42a15.621,15.621,0,0,1,.276,3.075,14.809,14.809,0,0,1-.276,3.07,15.2,15.2,0,0,1-.276-3.07A15.621,15.621,0,0,1,147.845,357.42Z" transform="translate(-122.032 -357.42)"/><path d="M135.906,357.42a15.214,15.214,0,0,1,.276,3.075,14.808,14.808,0,0,1-.276,3.07A17.238,17.238,0,0,1,135.906,357.42Z" transform="translate(-116.686 -357.42)"/><path d="M112.776,357.42a17.238,17.238,0,0,1,0,6.145A17.238,17.238,0,0,1,112.776,357.42Z" transform="translate(-106.327 -357.42)"/><path d="M129.036,357.42a17.239,17.239,0,0,1,0,6.145,17.237,17.237,0,0,1,0-6.145Z" transform="translate(-113.609 -357.42)"/><path d="M131.376,357.42a15.21,15.21,0,0,1,.276,3.075,14.808,14.808,0,0,1-.276,3.07A17.237,17.237,0,0,1,131.376,357.42Z" transform="translate(-114.657 -357.42)"/><path d="M155.625,357.42a15.212,15.212,0,0,1,.276,3.075,14.808,14.808,0,0,1-.276,3.07,15.2,15.2,0,0,1-.276-3.07,15.618,15.618,0,0,1,.276-3.075Z" transform="translate(-125.517 -357.42)"/><path d="M159.145,357.42a15.619,15.619,0,0,1,.276,3.075,15.194,15.194,0,0,1-.276,3.07,14.809,14.809,0,0,1-.276-3.07A15.211,15.211,0,0,1,159.145,357.42Z" transform="translate(-127.093 -357.42)"/><path d="M150.616,357.42a15.209,15.209,0,0,1,.276,3.075,14.809,14.809,0,0,1-.276,3.07A17.239,17.239,0,0,1,150.616,357.42Z" transform="translate(-123.274 -357.42)"/><path d="M118.435,357.42a17.237,17.237,0,0,1,0,6.145,14.808,14.808,0,0,1-.276-3.07,15.211,15.211,0,0,1,.276-3.075Z" transform="translate(-108.861 -357.42)"/></g><path d="M133.994,356.14v1.634l-34.774,1.1V356.14Z" transform="translate(-74.954 -356.14)" opacity="0.1"/><rect width="34.774" height="7.686" transform="translate(24.266 23.052)" fill="#f8951d"/><g transform="translate(25.426 23.759)" opacity="0.1"><path d="M159.145,405.315a15.211,15.211,0,0,1-.276-3.075,14.809,14.809,0,0,1,.276-3.07A17.238,17.238,0,0,1,159.145,405.315Z" transform="translate(-127.093 -399.17)"/><path d="M154.455,405.315a15.213,15.213,0,0,1-.276-3.075,14.81,14.81,0,0,1,.276-3.07A17.237,17.237,0,0,1,154.455,405.315Z" transform="translate(-124.992 -399.17)"/><path d="M152.166,405.315a17.237,17.237,0,0,1,0-6.145,17.238,17.238,0,0,1,0,6.145Z" transform="translate(-123.968 -399.17)"/><path d="M139.585,405.315a15.209,15.209,0,0,1-.276-3.075,14.81,14.81,0,0,1,.276-3.07,15.2,15.2,0,0,1,.276,3.07A15.619,15.619,0,0,1,139.585,405.315Z" transform="translate(-118.333 -399.17)"/><path d="M136.186,405.315a17.238,17.238,0,0,1,0-6.145A17.237,17.237,0,0,1,136.186,405.315Z" transform="translate(-116.811 -399.17)"/><path d="M122.116,405.315a17.238,17.238,0,0,1,0-6.145A17.585,17.585,0,0,1,122.116,405.315Z" transform="translate(-110.51 -399.17)"/><path d="M118.856,405.315a17.238,17.238,0,0,1,0-6.145A17.238,17.238,0,0,1,118.856,405.315Z" transform="translate(-109.05 -399.17)"/><path d="M112.891,405.315a17.586,17.586,0,0,1,0-6.145A17.238,17.238,0,0,1,112.891,405.315Z" transform="translate(-106.381 -399.17)"/><path d="M124.826,405.315a17.238,17.238,0,0,1,0-6.145A17.238,17.238,0,0,1,124.826,405.315Z" transform="translate(-111.724 -399.17)"/><path d="M148,405.315a15.21,15.21,0,0,1-.276-3.075,14.809,14.809,0,0,1,.276-3.07,15.194,15.194,0,0,1,.276,3.07,15.62,15.62,0,0,1-.276,3.075Z" transform="translate(-122.104 -399.17)"/><path d="M131.7,405.315a15.213,15.213,0,0,1-.276-3.075,14.809,14.809,0,0,1,.276-3.07,15.2,15.2,0,0,1,.276,3.07A15.619,15.619,0,0,1,131.7,405.315Z" transform="translate(-114.804 -399.17)"/><path d="M129.356,405.315a17.237,17.237,0,0,1,0-6.145,17.238,17.238,0,0,1,0,6.145Z" transform="translate(-113.752 -399.17)"/><path d="M105.106,405.315a17.238,17.238,0,0,1,0-6.145A17.238,17.238,0,0,1,105.106,405.315Z" transform="translate(-102.892 -399.17)"/><path d="M101.6,405.315a17.238,17.238,0,0,1,0-6.145A17.238,17.238,0,0,1,101.6,405.315Z" transform="translate(-101.32 -399.17)"/><path d="M110.116,405.315a17.238,17.238,0,0,1,0-6.145A17.237,17.237,0,0,1,110.116,405.315Z" transform="translate(-105.136 -399.17)"/><path d="M142.306,405.315a17.238,17.238,0,0,1,0-6.145A17.238,17.238,0,0,1,142.306,405.315Z" transform="translate(-119.552 -399.17)"/></g><path d="M133.994,397.89v1.634l-34.774,1.1V397.89Z" transform="translate(-74.954 -374.838)" opacity="0.1"/><path d="M78.269,385.718c22.886,4.108,16.846,38.015-6.074,33.9S55.339,381.588,78.269,385.718Z" transform="translate(-56.377 -369.231)" fill="#f8951d"/><path d="M78.269,385.718c22.886,4.108,16.846,38.015-6.074,33.9S55.339,381.588,78.269,385.718Z" transform="translate(-56.377 -369.231)" opacity="0.1"/><path d="M75,385.015c21.815,3.915,15.764,37.822-6.074,33.9S53.161,381.094,75,385.015Z" transform="translate(-55.271 -368.931)" fill="#f8951d"/><path d="M60.46,405.291c.116,6.046,3.611,11.921,11.341,13.274,18.132,3.252,23.151-24.891,5.047-28.159-.116,0-.237-.044-.353-.055,16.973,3.4,12.109,30.031-5.179,26.928A12.552,12.552,0,0,1,60.46,405.291Z" transform="translate(-57.595 -371.461)" opacity="0.1"/><g transform="translate(8.75 22.444)" opacity="0.1"><path d="M80.953,396.828a.552.552,0,0,1,.42.7l-.232.933a7.818,7.818,0,0,1,3.716,2.661.657.657,0,0,1,.188.613.613.613,0,0,1-.751.431.552.552,0,0,1-.375-.265,6.825,6.825,0,0,0-3.114-2.385l-1.623,6.515c3.352,1.656,4.511,3.313,3.937,5.6C82.5,414.1,80,415.325,77.043,414.7l-.453,1.811a.569.569,0,0,1-1.1-.276l.458-1.839a9,9,0,0,1-4.671-3.561.607.607,0,1,1,.972-.723,7.758,7.758,0,0,0,4.009,3.252l1.656-6.626c-3.313-1.656-4.417-3.28-3.865-5.6s3.081-3.633,5.936-2.993l.221-.883a.552.552,0,0,1,.751-.425Zm-2.722,8.713,1.585-6.355c-2.269-.514-4.091.464-4.511,2.137C74.918,402.907,75.415,404.083,78.231,405.541ZM78.9,407.2l-1.6,6.421c2.341.552,4.191-.436,4.627-2.209.409-1.585-.16-2.766-3.02-4.2Z" transform="translate(-71.118 -396.788)"/></g></g><g transform="translate(94.44 71.759)"><path d="M298.913,385.609c-1.264.409-37.358-.061-38.722-.955-.525-.326-.762-5.588-.867-11.959v-.2c-.028-1.314-.044-2.661-.044-4.031v-.552l1.75-18.723,24.145.243-2.385,18.547-.028.734-.144,3.865v.392s13.737,6.361,15.134,7.5S300.183,385.206,298.913,385.609Z" transform="translate(-199.986 -206.977)" fill="#f7a9a0"/><path d="M298.913,400.8c-1.264.409-37.358-.061-38.722-.955-.525-.326-.762-5.588-.867-11.959v-.2c-.028-1.314-.044-2.661-.044-4.031V383.1l23.51.066-.028.734-.144,3.865v.392s13.737,6.361,15.134,7.5S300.183,400.393,298.913,400.8Z" transform="translate(-199.986 -222.164)" fill="#ebebeb"/><path d="M298.963,404.508c-.652.21-10.458.188-20.043,0-1.927-.039-3.865-.083-5.671-.133-6.836-.188-12.484-.469-13.008-.812s-.756-5.444-.861-11.694V391.4h.028l23.262.044v.4s13.737,6.355,15.129,7.493S300.228,404.1,298.963,404.508Z" transform="translate(-200.031 -225.881)" fill="#37474f"/><path d="M300.588,412.27c-6.074-.226-30.638-.552-36.668-.337-.05,0-.05.033,0,.039,6.024.359,30.578.5,36.662.4C300.715,412.369,300.715,412.275,300.588,412.27Z" transform="translate(-202.047 -235.045)" fill="#263238"/><path d="M300.384,391.5c-2.385-.48-5.323-.149-7.178,1.535-.072.061,0,.166.1.138a33.68,33.68,0,0,1,7.062-1.369.155.155,0,0,0,.017-.3Z" transform="translate(-215.167 -225.834)" fill="#263238"/><path d="M303.494,393.42c-2.391-.475-5.323-.144-7.178,1.535-.072.066,0,.166.1.144a33.68,33.68,0,0,1,7.056-1.375.155.155,0,0,0,.022-.3Z" transform="translate(-216.56 -226.697)" fill="#263238"/><path d="M306.594,395.349c-2.385-.475-5.323-.149-7.178,1.535-.072.066,0,.166.1.144a33.713,33.713,0,0,1,7.062-1.375.155.155,0,0,0,.017-.3Z" transform="translate(-217.948 -227.561)" fill="#263238"/><path d="M260.869,307.456H232.544s6.151-55.91,5.947-56.97c-.1-.552-5.2-8.238-11.247-17.232-3.385-5.036-7.067-10.491-10.342-15.305-5.411-7.973-9.712-14.267-9.712-14.267h27.734s3.733,4.505,8.625,10.883c6.924,9.033,16.172,21.815,20.429,30.859C267.269,252.445,260.869,307.456,260.869,307.456Z" transform="translate(-176.657 -141.81)" fill="#455a64"/><path d="M275.52,251.622a27.061,27.061,0,0,0-3.622-8.547c-3.186-5.6-17.547-26.939-21.534-31.969l-1.529-1.91c-.033-.044-.1,0-.072.044,3.9,5.041,18.132,26.188,21.324,31.688a49.227,49.227,0,0,1,4.345,8.426c1.066,3.147.917,6.493.751,9.767q-.513,10.132-1.226,20.253Q273.234,289.6,272.3,299.8c-.077.834-.155,1.656-.226,2.507-.028.265.237.293.265,0,.651-6.786,1.369-13.505,1.877-20.3s.955-13.682,1.325-20.529C275.724,258.22,276.072,254.874,275.52,251.622Z" transform="translate(-195.272 -144.271)" fill="#263238"/><path d="M283.375,383.443c-3.97-.083-2.827-.116-6.8-.155-1.944,0-14.715-.127-16.531.171-.039,0-.039.077,0,.083,1.817.3,14.588.188,16.531.171,3.97-.039,2.827-.072,6.8-.155a.058.058,0,0,0,0-.116Z" transform="translate(-200.316 -222.236)" fill="#263238"/><path d="M236.161,246.67c-7.255-11.2-28.971-42.99-28.971-42.99h14.532Z" transform="translate(-176.657 -141.81)" fill="#263238"/><path d="M152.465,428.213c1.27.4,37.358-.442,38.711-1.347.519-.337.7-5.6.745-11.97v-.2c0-1.309,3.026-23.367,3.026-23.367l-23.588.48L168.632,415v.4s-13.655,6.477-15.024,7.625S151.195,427.821,152.465,428.213Z" transform="translate(-151.891 -225.85)" fill="#f7a9a0"/><path d="M152.465,443.431c1.27.4,37.358-.442,38.711-1.347.519-.337.7-5.6.745-11.971v-.2s.552-4.417.552-4.6l-23.289.414-.525,4.472v.4s-13.682,6.5-15.051,7.647S151.195,443.039,152.465,443.431Z" transform="translate(-151.891 -241.068)" fill="#ebebeb"/><path d="M152.465,447.167c1.27.4,37.358-.442,38.711-1.347.519-.337.7-5.6.745-11.97v-.2l-23.289.282v.4s-13.655,6.5-15.024,7.647S151.195,446.774,152.465,447.167Z" transform="translate(-151.891 -244.803)" fill="#37474f"/><path d="M153.533,454.976c6.074-.293,30.627-.889,36.662-.712.05,0,.05.033,0,.039-6.018.42-30.572.817-36.662.773C153.406,455.076,153.406,454.982,153.533,454.976Z" transform="translate(-152.584 -254.021)" fill="#263238"/><path d="M177.42,434.21c2.385-.5,5.317-.2,7.178,1.458.072.066,0,.171-.1.144a33.757,33.757,0,0,0-7.073-1.3.155.155,0,0,1-.006-.3Z" transform="translate(-163.269 -244.955)" fill="#263238"/><path d="M174.33,436.17c2.385-.5,5.323-.2,7.178,1.458.072.066,0,.166-.1.144a33.336,33.336,0,0,0-7.073-1.3.155.155,0,0,1-.006-.3Z" transform="translate(-161.886 -245.832)" fill="#263238"/><path d="M171.231,438.13c2.38-.5,5.317-.2,7.178,1.458.072.066,0,.166-.1.144a33.762,33.762,0,0,0-7.073-1.3.149.149,0,1,1-.006-.3Z" transform="translate(-160.487 -246.71)" fill="#263238"/><path d="M222.662,203.68s-3.313,20.258-3.55,20.91c0,0-1.237.585-3.467,1.612L205.8,331.253l-25.989.1L194.3,203.68Z" transform="translate(-164.395 -141.81)" fill="#455a64"/><path d="M206.325,426.252c-3.97-.066-2.827-.1-6.8-.127-1.938,0-14.709-.066-16.526.243-.039,0-.039.072,0,.083,1.822.293,14.588.127,16.531.1,3.97-.055,2.827-.083,6.8-.182a.061.061,0,1,0,0-.116Z" transform="translate(-165.809 -241.43)" fill="#263238"/><path d="M209.044,210.705c-1.01,14.472-2.054,28.943-3.236,43.4s-2.6,29-4.345,43.459c-.977,8.072-2.043,19.447-3.213,27.491,0,.055.077.077.083,0,2.424-14.3,4.13-32.024,5.593-46.469s2.628-28.888,3.655-43.354q.828-12.274,1.656-24.554C209.232,210.584,209.05,210.589,209.044,210.705Z" transform="translate(-172.653 -144.915)" fill="#263238"/><path d="M246.935,240.4a47.833,47.833,0,0,0-7.432,3.893.084.084,0,1,0,.077.149c2.507-1.215,5.069-2.391,7.5-3.744a.167.167,0,0,0-.149-.3Z" transform="translate(-191.108 -158.245)" fill="#263238"/><path d="M248.038,219.355c-.409,2.424-.635,4.886-.906,7.327-.066.585-.138,1.176-.2,1.761a3.407,3.407,0,0,1-.425,1.54,4.865,4.865,0,0,1-2.325,1.574c-.1.044-.061.2.05.166a5.648,5.648,0,0,0,2.474-1.309c.779-.823.751-2.071.872-3.131a66.721,66.721,0,0,0,.552-7.918C248.148,219.306,248.049,219.289,248.038,219.355Z" transform="translate(-193.199 -148.811)" fill="#263238"/><path d="M245.276,220.7c-.088,1.745-.282,3.49-.431,5.234-.072.856-.133,1.723-.182,2.584s-.155,1.772-.127,2.645a.055.055,0,0,0,.1,0c.144-.828.166-1.69.232-2.529s.133-1.767.182-2.65c.1-1.761.144-3.539.3-5.3A.042.042,0,0,0,245.276,220.7Z" transform="translate(-193.381 -149.413)" fill="#263238"/><path d="M241.52,214.563l-10.651,1.353-16.012,2.032-12.147,1.54L204.5,203.68h28.364S236.65,208.185,241.52,214.563Z" transform="translate(-174.651 -141.81)" fill="#263238"/><path d="M247.549,146.588c4.881,10.038,15.189,20.567,21.064,20.567,5.521,0,19.4-10.877,25.9-17.271,1.48-1.458-12.02-12.981-13.472-11.291-3.39,3.948-11.319,12.517-13.859,12.517-2.264,0-9.386-5.135-15.62-10.226C244,134.706,245.605,142.607,247.549,146.588Z" transform="translate(-194.008 -112.585)" fill="#f7a9a0"/><path d="M324.738,137.747a50.239,50.239,0,0,0,10.193-9.513c1.574-2,5.488-8.2,4.053-9.53s-2.761.386-2.761.386,1.259-2.871-.309-4.075-3.512,1.529-3.512,1.529,1.1-3.042-.552-4.13S328.7,114.4,328.7,114.4s1.1-2.761-.618-3.059c-2.093-.392-3.583,4.886-5.433,7-.425.486-9.221,9.144-9.221,9.144Z" transform="translate(-224.237 -100.447)" fill="#f7a9a0"/><path d="M336.75,116.881c-1.1,3.865-2.258,5.378-5.218,8.023-.055.055,0,.155.072.1,3.136-2.33,4.853-4.009,5.339-8.089C336.959,116.693,336.8,116.665,336.75,116.881Z" transform="translate(-232.334 -102.87)" fill="#263238"/><path d="M343.418,120.452a21.5,21.5,0,0,1-5.632,8.569c-.044.039,0,.116.072.077,3.086-2.705,4.765-4.417,5.748-8.542C343.644,120.369,343.478,120.27,343.418,120.452Z" transform="translate(-235.137 -104.492)" fill="#263238"/><path d="M349.445,125.867a19.006,19.006,0,0,1-6.19,8.111.077.077,0,0,0,.088.121,13.535,13.535,0,0,0,6.212-8.166C349.627,125.668,349.555,125.613,349.445,125.867Z" transform="translate(-237.586 -106.887)" fill="#263238"/><rect width="40.759" height="29.402" transform="matrix(1, -0.01, 0.01, 1, 94.922, 0.492)" fill="#ebebeb"/><rect width="2.971" height="16.288" transform="matrix(1, -0.01, 0.01, 1, 102.405, 6.462)" fill="#f8951d"/><path d="M349.375,123.094l-2.971.033-.1-11.8,2.965-.028Z" transform="translate(-238.958 -100.437)" fill="#f8951d"/><rect width="2.971" height="9.088" transform="matrix(1, -0.01, 0.01, 1, 112.221, 13.563)" fill="#f8951d"/><rect width="2.971" height="7.283" transform="matrix(1, -0.01, 0.01, 1, 117.109, 15.319)" fill="#f8951d"/><rect width="2.971" height="11.799" transform="matrix(1, -0.01, 0.01, 1, 121.932, 10.754)" fill="#f8951d"/><rect width="2.971" height="14.047" transform="translate(126.789 8.43) rotate(-0.59)" fill="#f8951d"/><path d="M333.618,100.06c.1,3.015.2,6.029.26,9.05s.138,6.035.171,9.05l-.248-.248,7.835-.1,7.829-.05h7.84c2.617,0,5.223.033,7.835.077q-3.92.138-7.835.232c-2.612.055-5.223.133-7.835.166l-7.829.11-7.857.066h-.254v-.248c-.028-3.02,0-6.035,0-9.055S333.569,103.075,333.618,100.06Z" transform="translate(-233.234 -95.403)" fill="#c7c7c7"/><path d="M332,102.937a7.132,7.132,0,0,1,.972-.077,6.311,6.311,0,0,1,.966.061,6.835,6.835,0,0,1-1.938,0Z" transform="translate(-232.554 -96.656)" fill="#c7c7c7"/><path d="M332,105.937a7.177,7.177,0,0,1,.972-.077,6.311,6.311,0,0,1,.966.061,6.835,6.835,0,0,1-1.938,0Z" transform="translate(-232.554 -98)" fill="#c7c7c7"/><path d="M332,109a6.4,6.4,0,0,1,.972-.077,6.311,6.311,0,0,1,.966.061,6.836,6.836,0,0,1-1.938,0Z" transform="translate(-232.554 -99.37)" fill="#c7c7c7"/><path d="M332.06,112.024a6.875,6.875,0,0,1,1.944,0A6.874,6.874,0,0,1,332.06,112.024Z" transform="translate(-232.581 -100.73)" fill="#c7c7c7"/><path d="M332.09,115.044a6.875,6.875,0,0,1,1.944,0,6.875,6.875,0,0,1-1.944,0Z" transform="translate(-232.594 -102.083)" fill="#c7c7c7"/><path d="M332.12,118.064a6.875,6.875,0,0,1,1.944,0A6.875,6.875,0,0,1,332.12,118.064Z" transform="translate(-232.608 -103.435)" fill="#c7c7c7"/><path d="M332.16,121.077a6.278,6.278,0,0,1,.966-.077,6.382,6.382,0,0,1,.972.061,6.407,6.407,0,0,1-.972.077,6.312,6.312,0,0,1-.966-.061Z" transform="translate(-232.626 -104.78)" fill="#c7c7c7"/><path d="M332.19,124.1a6.836,6.836,0,0,1,1.938,0,6.4,6.4,0,0,1-.972.077A6.31,6.31,0,0,1,332.19,124.1Z" transform="translate(-232.639 -106.14)" fill="#c7c7c7"/><path d="M332.22,127.124a6.836,6.836,0,0,1,1.938,0,6.4,6.4,0,0,1-.972.077A6.311,6.311,0,0,1,332.22,127.124Z" transform="translate(-232.652 -107.493)" fill="#c7c7c7"/><path d="M332.25,130.144a6.836,6.836,0,0,1,1.938,0,7.123,7.123,0,0,1-.966.077,6.336,6.336,0,0,1-.972-.077Z" transform="translate(-232.666 -108.845)" fill="#c7c7c7"/><path d="M349.24,98.91c1.066-.1,2.126-.149,3.186-.193s2.126-.066,3.191-.083,2.126,0,3.186,0,2.126.05,3.191.127c-1.066.1-2.126.149-3.186.193s-2.126.061-3.191.077-2.126,0-3.186,0S350.306,98.982,349.24,98.91Z" transform="translate(-240.275 -94.761)" fill="#c7c7c7"/><path d="M353.6,101.567a38.429,38.429,0,0,1,7.967-.083,33.128,33.128,0,0,1-3.981.248A34.381,34.381,0,0,1,353.6,101.567Z" transform="translate(-242.228 -95.965)" fill="#c7c7c7"/><path d="M333.84,137.275v-1.9h1.9v1.91Zm.259-1.656v1.358h1.353v-1.353Z" transform="translate(-233.378 -111.217)" fill="#c7c7c7"/><path d="M339.78,135.367c1.618-.072,3.236-.121,4.859-.16l4.853-.077h4.853c1.623,0,3.241,0,4.859.061-1.618.066-3.236.121-4.853.155l-4.859.083h-4.853Q342.209,135.417,339.78,135.367Z" transform="translate(-236.038 -111.109)" fill="#c7c7c7"/><path d="M339.8,136.831c1.828-.133,3.655-.155,5.483-.193s3.661,0,5.488.083c-1.828.133-3.655.16-5.483.193S341.628,136.947,339.8,136.831Z" transform="translate(-236.047 -111.778)" fill="#c7c7c7"/><path d="M339.81,138.332c2.242-.133,4.489-.166,6.731-.2s4.483,0,6.731.066c-2.242.138-4.483.171-6.731.21S342.057,138.426,339.81,138.332Z" transform="translate(-236.052 -112.445)" fill="#c7c7c7"/><path d="M333.94,104.061a7.57,7.57,0,0,1,2.175-.508,4.6,4.6,0,0,1,2.242.287,6.443,6.443,0,0,1,1.794,1.391c.525.552,1,1.1,1.469,1.7.939,1.154,1.811,2.358,2.816,3.423a8.238,8.238,0,0,0,3.506,2.424,4.461,4.461,0,0,0,2.071.127,6.962,6.962,0,0,0,2-.756,24.594,24.594,0,0,0,3.572-2.562c1.148-.939,2.258-1.933,3.445-2.838a14.029,14.029,0,0,1,1.872-1.231,6.336,6.336,0,0,1,1.027-.458,3.744,3.744,0,0,1,1.1-.166,4.516,4.516,0,0,0-2.059.751,14.2,14.2,0,0,0-1.778,1.314c-1.137.944-2.209,1.966-3.313,2.948a21.429,21.429,0,0,1-3.611,2.683,7.36,7.36,0,0,1-2.142.834,5.041,5.041,0,0,1-2.33-.116,8.735,8.735,0,0,1-3.716-2.612,43.686,43.686,0,0,1-2.761-3.506c-.447-.591-.9-1.176-1.391-1.723a6.235,6.235,0,0,0-1.656-1.386,4.417,4.417,0,0,0-2.109-.381,8.459,8.459,0,0,0-2.231.359Z" transform="translate(-233.423 -96.952)" fill="#263238"/><path d="M307.71,133.939a44.983,44.983,0,0,1,4.853-5.406c1.772-1.419,10.336-4.285,11.043-2.468.933,2.341-3.683,4.969-6.112,5.958,0,0,2.164,5.411-.74,8.012S307.71,133.939,307.71,133.939Z" transform="translate(-221.675 -106.788)" fill="#f7a9a0"/><path d="M331.134,127.856c-.69,2.761-3.964,3.865-6.245,4.969a.232.232,0,0,0-.072.375c.751,2.33,1.143,5.836-.42,7.9a.057.057,0,1,0,.083.077c1.977-1.982,1.877-5.455.889-7.956,2.358-1.1,5.593-2.369,5.792-5.367Z" transform="translate(-229.142 -107.849)" fill="#263238"/><path d="M249.839,139.746c4.08,2.728,14.047,11.418,16.769,10.723s11.463-10,11.463-10l13.77,13.025s-15.609,14.842-24.239,14.3-17.58-13.8-20.429-19.513S243.042,135.213,249.839,139.746Z" transform="translate(-193.532 -112.545)" fill="#f8951d"/><path d="M270.415,160.364a2.314,2.314,0,0,1,0-1.574A2.314,2.314,0,0,1,270.415,160.364Zm13.031-9.635a2.065,2.065,0,0,0-.138-.784,2.065,2.065,0,0,0-.138.784,2.175,2.175,0,0,0,.138.784A2.176,2.176,0,0,0,283.445,150.729Zm1.656,12.28a2.176,2.176,0,0,0-.138-.784,2.3,2.3,0,0,0,0,1.568A2.177,2.177,0,0,0,285.1,163.009Zm-28.535-5.759a1.944,1.944,0,0,0-.138-.784,2.3,2.3,0,0,0,0,1.568A2.065,2.065,0,0,0,256.567,157.25ZM281,161.209a2.065,2.065,0,0,0-.138-.784,2.3,2.3,0,0,0,0,1.568,2.065,2.065,0,0,0,.138-.784Zm-15.46-8.923a2.208,2.208,0,0,0,.784-.138,1.977,1.977,0,0,0-.784-.138,2.043,2.043,0,0,0-.784.138,2.153,2.153,0,0,0,.8.138Zm.994,11.4a2.176,2.176,0,0,0,.784-.138,2.3,2.3,0,0,0-1.568,0,2.153,2.153,0,0,0,.8.138Zm9.872-5.521a2.081,2.081,0,0,0,.784-.138,2.082,2.082,0,0,0-.784-.138,2.209,2.209,0,0,0-.79.138,2.209,2.209,0,0,0,.8.144Zm11.877,1.165a2.065,2.065,0,0,0,.784-.138,2.3,2.3,0,0,0-1.568,0,2.043,2.043,0,0,0,.8.144Zm-6.626-13.251a2.153,2.153,0,0,0,.784-.138,1.944,1.944,0,0,0-.784-.138,2.082,2.082,0,0,0-.784.138,2.208,2.208,0,0,0,.773.155Zm-25.531,2.242a2.159,2.159,0,0,0-.657-.458,2.07,2.07,0,0,0,.458.652,2.043,2.043,0,0,0,.651.458,2.119,2.119,0,0,0-.464-.635Zm5.687,12.219a2.131,2.131,0,0,0-.652-.458,2.319,2.319,0,0,0,1.1,1.1,2.132,2.132,0,0,0-.464-.629Zm13.566,2.761a2.092,2.092,0,0,0-.657-.458,2.242,2.242,0,0,0,1.1,1.1,2.208,2.208,0,0,0-.458-.635Zm7.454-7.1a2.043,2.043,0,0,0-.652-.458,2.319,2.319,0,0,0,1.1,1.1A2.131,2.131,0,0,0,282.832,156.2Zm-10.126-2.7a2.12,2.12,0,0,0-.652-.453,2.319,2.319,0,0,0,1.1,1.1,2.159,2.159,0,0,0-.453-.635Zm-1.96,13.7a2.131,2.131,0,0,0-.458.652,2.07,2.07,0,0,0,.652-.458,2.043,2.043,0,0,0,.458-.652A2.131,2.131,0,0,0,270.746,167.2Zm8.409-1.021a2.054,2.054,0,0,0-.453.652,2.319,2.319,0,0,0,1.1-1.1,2.159,2.159,0,0,0-.663.453Zm-14.245-9.386a2.043,2.043,0,0,0-.458.652,2.044,2.044,0,0,0,.652-.458,2.07,2.07,0,0,0,.458-.652,2.071,2.071,0,0,0-.663.42Zm24.057-3.55a2.027,2.027,0,0,0-.453.652,2.131,2.131,0,0,0,.652-.458,2.208,2.208,0,0,0,.458-.652,2.159,2.159,0,0,0-.657.458Zm-29.1,0a2.131,2.131,0,0,0-.458.652,2.319,2.319,0,0,0,1.1-1.1,2.131,2.131,0,0,0-.635.453Zm17.531-2.054a2.131,2.131,0,0,0-.458.652,2.092,2.092,0,0,0,.657-.458,2.209,2.209,0,0,0,.458-.652,2.16,2.16,0,0,0-.646.458ZM252.453,144.9a2.176,2.176,0,0,0-.138-.784,1.961,1.961,0,0,0-.138.784,2.043,2.043,0,0,0,.138.784,2.153,2.153,0,0,0,.149-.784Zm.271,8.437a2.209,2.209,0,0,0,.79-.138,1.988,1.988,0,0,0-.79-.138,2.082,2.082,0,0,0-.784.138,2.208,2.208,0,0,0,.8.138Z" transform="translate(-196.699 -115.135)" fill="#fff"/><path d="M313.158,159.613a16.891,16.891,0,0,0-1.414-1.463c-.469-.486-.961-.955-1.452-1.419-.95-.9-1.91-1.789-2.871-2.667l-2.9-2.634c-1-.906-1.977-1.877-3.048-2.7a.045.045,0,1,0-.061.066c.894,1,1.932,1.91,2.91,2.844l2.888,2.761q1.441,1.375,2.915,2.728c.486.442.972.872,1.469,1.3a18.423,18.423,0,0,0,1.518,1.264C313.152,159.718,313.191,159.652,313.158,159.613Z" transform="translate(-218.847 -117.195)" fill="#263238"/><path d="M266.466,168.059c-8.282-1.552-16.564-13.9-19.325-19.358-1.833-3.65-2.993-7.967-1.817-9.431C248.676,143.82,260.393,159.8,266.466,168.059Z" transform="translate(-193.523 -112.963)" fill="#263238"/><path d="M239.89,182.884c-.552.624-37.8.679-37.988.453-.513-.618,8.31-38.705,16.564-45.331,1.772-1.425,8.575-1.209,9.5-.845,1.06.4,4.053,5.466,5.417,9.591C236.1,155.006,240.376,182.337,239.89,182.884Z" transform="translate(-174.279 -111.897)" fill="#f8951d"/><path d="M226.722,162.006a2.176,2.176,0,0,1-.138-.784,2.043,2.043,0,0,1,.138-.784,2.043,2.043,0,0,1,.138.784A2.175,2.175,0,0,1,226.722,162.006Zm4.715,8.172a2.209,2.209,0,0,0-.138-.79,1.988,1.988,0,0,0-.138.79,2.081,2.081,0,0,0,.138.784A2.209,2.209,0,0,0,231.437,170.177ZM231.3,143.9a2.176,2.176,0,0,0-.138-.784,1.96,1.96,0,0,0-.138.784,2.043,2.043,0,0,0,.138.784,2.153,2.153,0,0,0,.138-.784Zm-11.385,26.575a2.153,2.153,0,0,0-.138-.784,1.943,1.943,0,0,0-.138.784,2.065,2.065,0,0,0,.138.784,2.176,2.176,0,0,0,.138-.784Zm19.452,3.716a2.093,2.093,0,0,0-.138-.79,2.093,2.093,0,0,0-.138.79,2.209,2.209,0,0,0,.138.784,2.081,2.081,0,0,0,.138-.784Zm-13.434,5.367a2.065,2.065,0,0,0-.138-.784,2.064,2.064,0,0,0-.138.784,2.153,2.153,0,0,0,.138.784,2.043,2.043,0,0,0,.138-.784ZM215,183.252a2.175,2.175,0,0,0-.138-.784,2.3,2.3,0,0,0,0,1.568,2.176,2.176,0,0,0,.138-.784Zm8.967-32.262a2.082,2.082,0,0,0-.138-.784,2.314,2.314,0,0,0,0,1.574,2.093,2.093,0,0,0,.138-.79Zm-7.073-4.461a2.154,2.154,0,0,0-.138-.784,2.3,2.3,0,0,0,0,1.568A2.176,2.176,0,0,0,216.893,146.529Zm-.138,13.334a2.209,2.209,0,0,0-.138-.784,2.313,2.313,0,0,0,0,1.574A2.208,2.208,0,0,0,216.755,159.863Zm-7.443,14.356a1.944,1.944,0,0,0-.138-.784,2.153,2.153,0,0,0-.138.784,2.209,2.209,0,0,0,.138.784,2.082,2.082,0,0,0,.138-.812ZM235.4,156.274a1.944,1.944,0,0,0-.138-.784,2.3,2.3,0,0,0,0,1.568,2.065,2.065,0,0,0,.138-.812Zm-13.577,2.413a2.209,2.209,0,0,0,.784-.138,2.313,2.313,0,0,0-1.574,0,2.209,2.209,0,0,0,.79.11Zm-.79,17.481a2.209,2.209,0,0,0,.79-.138,2.314,2.314,0,0,0-1.574,0,2.208,2.208,0,0,0,.784.11Zm4.251,8.845a2.043,2.043,0,0,0,.784-.138,2.153,2.153,0,0,0-.784-.138,2.209,2.209,0,0,0-.784.138A2.082,2.082,0,0,0,225.286,185.014Zm9.767-23.317a2.175,2.175,0,0,0,.784-.138,2.3,2.3,0,0,0-1.568,0,2.153,2.153,0,0,0,.767.149Zm-19.325-9.558a2.065,2.065,0,0,0,.784-.138,2.065,2.065,0,0,0-.784-.138,2.176,2.176,0,0,0-.784.138,2.065,2.065,0,0,0,.756.149Zm9.707-7.178a2.176,2.176,0,0,0,.784-.138,1.96,1.96,0,0,0-.784-.138,2.043,2.043,0,0,0-.784.138,2.153,2.153,0,0,0,.756.133Zm-9.79,20.727a2.176,2.176,0,0,0,.784-.138,1.96,1.96,0,0,0-.784-.138,2.043,2.043,0,0,0-.784.138,2.153,2.153,0,0,0,.784.138Zm-5.477,13.864a2.081,2.081,0,0,0,.784-.138,2.313,2.313,0,0,0-1.574,0,2.092,2.092,0,0,0,.79.144Zm21.4-27.221a2.208,2.208,0,0,0,.79-.138,1.988,1.988,0,0,0-.79-.138,2.082,2.082,0,0,0-.784.138,2.209,2.209,0,0,0,.784.144Zm-5.129,14.621a2.043,2.043,0,0,0,.784-.138,2.3,2.3,0,0,0-1.568,0,2.065,2.065,0,0,0,.784.144Zm11.209,16.956a2.043,2.043,0,0,0,.784-.138,2.3,2.3,0,0,0-1.568,0,2.065,2.065,0,0,0,.784.138Zm-6.488-7.609a2.209,2.209,0,0,0,.784-.138,2.314,2.314,0,0,0-1.574,0,2.209,2.209,0,0,0,.79.116Zm.094,6.234a2.131,2.131,0,0,0-.652-.458,2.07,2.07,0,0,0,.458.652,2.043,2.043,0,0,0,.652.458,2.131,2.131,0,0,0-.458-.674Zm-20.981-13.909a2.131,2.131,0,0,0-.652-.458,2.071,2.071,0,0,0,.458.652,2.131,2.131,0,0,0,.652.458,2.131,2.131,0,0,0-.469-.674Zm11.429-4.539a2.01,2.01,0,0,0-.657-.458,2.132,2.132,0,0,0,.458.652,2.159,2.159,0,0,0,.657.458,2.209,2.209,0,0,0-.469-.674Zm-6.283,11.976a2.132,2.132,0,0,0-.652-.458,2.319,2.319,0,0,0,1.1,1.1,2.132,2.132,0,0,0-.464-.668Zm-10.082,6.51a2.082,2.082,0,0,0-.657-.453,2.132,2.132,0,0,0,.458.652,2.159,2.159,0,0,0,.657.458,2.258,2.258,0,0,0-.469-.679Zm8.415-26.4a2.07,2.07,0,0,0-.652-.458,2.159,2.159,0,0,0,.458.657,2.12,2.12,0,0,0,.652.453,2.043,2.043,0,0,0-.469-.674Zm13.069-.972a2.01,2.01,0,0,0-.657-.458,2.131,2.131,0,0,0,.458.652,2.159,2.159,0,0,0,.657.458A2.208,2.208,0,0,0,226.821,155.2Zm8.68,18.11a2.131,2.131,0,0,0-.652-.458,2.07,2.07,0,0,0,.458.652,2.043,2.043,0,0,0,.652.458A2.131,2.131,0,0,0,235.5,173.308Zm-14.356-25.4a2.043,2.043,0,0,0-.652-.458,2.319,2.319,0,0,0,1.1,1.1,2.131,2.131,0,0,0-.464-.663Zm10.347,16.47a2.131,2.131,0,0,0-.652-.458,2.092,2.092,0,0,0,.458.657,2.208,2.208,0,0,0,.652.458,2.159,2.159,0,0,0-.469-.674Zm-.193-6.261a2.071,2.071,0,0,0-.458.652,2.319,2.319,0,0,0,1.1-1.1,2.043,2.043,0,0,0-.657.436Zm-17.183,13.058a2.043,2.043,0,0,0-.458.652,2.12,2.12,0,0,0,.652-.453,2.159,2.159,0,0,0,.458-.657,2.131,2.131,0,0,0-.663.442Zm21.616-3.109a2.071,2.071,0,0,0-.458.652,2.159,2.159,0,0,0,.657-.458,2.12,2.12,0,0,0,.453-.652,2.1,2.1,0,0,0-.663.442ZM220.648,181.7a2.131,2.131,0,0,0-.458.652,2.081,2.081,0,0,0,.657-.453,2.258,2.258,0,0,0,.458-.657A2.159,2.159,0,0,0,220.648,181.7Zm-.972-26.773a2.071,2.071,0,0,0-.458.652,2.319,2.319,0,0,0,1.1-1.1,2.131,2.131,0,0,0-.646.425Zm5.88,18.409a2.121,2.121,0,0,0-.453.652,2.043,2.043,0,0,0,.652-.458,2.07,2.07,0,0,0,.458-.652,2.159,2.159,0,0,0-.657.431Zm9.939,5.924a2.043,2.043,0,0,0-.458.652,2.319,2.319,0,0,0,1.1-1.1,2.131,2.131,0,0,0-.646.425Zm-23.969-16.708a2.131,2.131,0,0,0-.458.652,2.159,2.159,0,0,0,.657-.458,2.12,2.12,0,0,0,.453-.652,2.131,2.131,0,0,0-.652.431Zm16.614-13.522a2.132,2.132,0,0,0-.458.652,2.319,2.319,0,0,0,1.1-1.1,2.131,2.131,0,0,0-.646.425Zm-8.216-6.7a2.054,2.054,0,0,0-.453.657,2.131,2.131,0,0,0,.652-.458,2.208,2.208,0,0,0,.458-.652,2.142,2.142,0,0,0-.657.425Z" transform="translate(-175.533 -114.132)" fill="#fff"/><path d="M247.177,152.592l.541-2.385-2.2-2.4-1.7,3.009,1.193,2.054-1.038,24.372,4.566,8.061,2.374-9.072Z" transform="translate(-193.062 -116.788)" fill="#263238"/><path d="M223.224,137.28,206.35,172.131c3.12-11.965,8.735-29.634,14.1-33.951A6.167,6.167,0,0,1,223.224,137.28Z" transform="translate(-176.281 -112.072)" fill="#263238"/><path d="M203.206,146.97c-2.347,4.207-16.255,19.877-16.608,21.429s2.706,5.659,2.728,6.278c.077,2.518-2.722,19.176-5.085,17.751-3.109-1.883-16.465-15.9-15.593-23s27.861-26.111,32.146-28.088S205.525,142.8,203.206,146.97Z" transform="translate(-159.377 -113.635)" fill="#f7a9a0"/><path d="M203.874,222.718c1.3-1.5-1.209-2.175-1.209-2.175s3.865.1,4.6-1.96-2.352-2.706-2.573-2.761c.2,0,3.749,0,4.285-2.142s-2.645-2.424-2.849-2.435c.193-.055,2.761-.85,2.761-2.579.061-2.971-7.421-1.32-9.469-2.579,0,0-.248-3.832-.221-3.948a4.351,4.351,0,0,1-1.629,2.347c-1.48.878-2.849,1.524-3.313,2.463a2.17,2.17,0,0,0,.431,2.562s-2.087.3-2.562,1.988c-.243.861.922,2.015.922,2.015a2.6,2.6,0,0,0-1.988,1.833,2.563,2.563,0,0,0,.944,2.209s-1.452,1.038-1.32,2.369C190.965,222.58,201.08,225.926,203.874,222.718Z" transform="translate(-169.26 -141.12)" fill="#f7a9a0"/><path d="M193.406,230.347a.028.028,0,1,0-.028.05A18.475,18.475,0,0,0,204,233.224a.111.111,0,0,0,0-.221A37.75,37.75,0,0,1,193.406,230.347Z" transform="translate(-170.465 -153.751)" fill="#263238"/><path d="M194.888,222.75c-.039,0-.066.044,0,.072a17.351,17.351,0,0,0,11.783,2.363c.138,0,.243-.193.077-.177C203.926,225.317,198.051,224.108,194.888,222.75Z" transform="translate(-171.129 -150.35)" fill="#263238"/><path d="M209.732,217.141a23.786,23.786,0,0,1-11.562-1.491.045.045,0,0,0-.028.083,15.459,15.459,0,0,0,6.145,2.048,10.618,10.618,0,0,0,5.461-.5C209.821,217.257,209.815,217.13,209.732,217.141Z" transform="translate(-172.596 -147.17)" fill="#263238"/><path d="M191.91,217.876a2.548,2.548,0,0,1-1.248-2.374,1.91,1.91,0,0,1,.663-1.171,3.313,3.313,0,0,1,1.474-.552,2.518,2.518,0,0,1-.767-2.761,1.883,1.883,0,0,1,1.016-.9,6,6,0,0,1,1.6-.359,2.209,2.209,0,0,1-.961-1.75,2.413,2.413,0,0,1,1.01-1.949,11.284,11.284,0,0,1,2.352-1.248,5.754,5.754,0,0,0,1.182-.69,2.5,2.5,0,0,0,.756-1.2c0-.088.121-.061.1,0a2.722,2.722,0,0,1-.447.933,4.057,4.057,0,0,1-.718.79,17.725,17.725,0,0,1-2.209,1.336,3.451,3.451,0,0,0-1.48,1.656,2.06,2.06,0,0,0,.491,2.109c.033.028,0,.083-.039.088a6.075,6.075,0,0,0-1.364.552,2.048,2.048,0,0,0-.823.872,2.639,2.639,0,0,0,.552,2.579,4.539,4.539,0,0,0-1.375.779,1.943,1.943,0,0,0-.5.961,2.286,2.286,0,0,0,.845,2.242.028.028,0,0,1,0,.028h0a.077.077,0,0,1,0,.033h0s-.458.348-.486.359,0,0,0-.028a3.643,3.643,0,0,1,.37-.337Z" transform="translate(-169.245 -141.446)" fill="#263238"/><path d="M177.27,187.358l11.043-15.852s-1.828-3.092-1.656-4.1,14.273-16.443,16.829-21.76,3.153-8.575-2.849-5.759-31.124,22.191-32.577,27.3S172.588,180.412,177.27,187.358Z" transform="translate(-159.033 -112.777)" fill="#f8951d"/><path d="M194.69,154.815a2.313,2.313,0,0,1,0-1.574,2.313,2.313,0,0,1,0,1.574Zm6.725-8.282a2.153,2.153,0,0,0-.138-.784,2.3,2.3,0,0,0,0,1.568,2.175,2.175,0,0,0,.138-.806Zm-15.609,13.334a2.082,2.082,0,0,0-.138-.784,2.313,2.313,0,0,0,0,1.574,2.093,2.093,0,0,0,.138-.812Zm-10.943,5.383a2.065,2.065,0,0,0-.138-.784,2.3,2.3,0,0,0,0,1.568,2.044,2.044,0,0,0,.138-.806Zm9.182,3.893a2.176,2.176,0,0,0-.138-.784,2.3,2.3,0,0,0,0,1.568,2.175,2.175,0,0,0,.138-.806Zm-8.906,5.422a2.093,2.093,0,0,0-.138-.79,2.314,2.314,0,0,0,0,1.574,2.082,2.082,0,0,0,.138-.806Zm8.906,2.683a2.176,2.176,0,0,0-.138-.784,2.3,2.3,0,0,0,0,1.568,2.175,2.175,0,0,0,.138-.806Zm15.2-33.681a2.082,2.082,0,0,0,.784-.138,2.209,2.209,0,0,0-.784-.138,2.153,2.153,0,0,0-.784.138,2.043,2.043,0,0,0,.784.155Zm.977,8.575a2.065,2.065,0,0,0,.784-.138,2.065,2.065,0,0,0-.784-.138,2.175,2.175,0,0,0-.784.138,2.065,2.065,0,0,0,.784.127Zm-10.1-.679a2.065,2.065,0,0,0,.784-.138,2.065,2.065,0,0,0-.784-.138,2.153,2.153,0,0,0-.784.138,2.043,2.043,0,0,0,.784.127Zm3.71,7.029a2.209,2.209,0,0,0,.79-.138,2.313,2.313,0,0,0-1.574,0A2.209,2.209,0,0,0,193.835,158.493Zm-11.932-.6a2.175,2.175,0,0,0,.784-.138,2.3,2.3,0,0,0-1.568,0,2.153,2.153,0,0,0,.784.149Zm-1.977,9.177a2.065,2.065,0,0,0,.784-.138,2.3,2.3,0,0,0-1.568,0,2.043,2.043,0,0,0,.784.149Zm-2.694,17.669a1.943,1.943,0,0,0,.784-.138,2.3,2.3,0,0,0-1.568,0,2.065,2.065,0,0,0,.784.155Zm1.91-8.492a2.209,2.209,0,0,0,.784-.138,2.082,2.082,0,0,0-.784-.138,2.043,2.043,0,0,0-.784.138,2.153,2.153,0,0,0,.784.155Zm-8.238-3.153a2.093,2.093,0,0,0,.79-.138,2.314,2.314,0,0,0-1.574,0,2.081,2.081,0,0,0,.784.155ZM185.63,154.2a2.131,2.131,0,0,0-.652-.458,2.065,2.065,0,0,0,.458.657,2.121,2.121,0,0,0,.652.453,2.131,2.131,0,0,0-.458-.635ZM182,162.833a2.159,2.159,0,0,0-.657-.458,2.319,2.319,0,0,0,1.1,1.1,2.12,2.12,0,0,0-.447-.629Zm-7.874,16.592a2.054,2.054,0,0,0-.652-.453,2.319,2.319,0,0,0,1.1,1.1,2.065,2.065,0,0,0-.453-.635Zm8.017,1.342a2.071,2.071,0,0,0-.652-.458,2.071,2.071,0,0,0,.458.652,2.043,2.043,0,0,0,.652.458,2.131,2.131,0,0,0-.458-.635Zm-10.585-11.9a2.093,2.093,0,0,0-.657-.458,2.07,2.07,0,0,0,.458.652,2.1,2.1,0,0,0,.652.458,2.12,2.12,0,0,0-.453-.635Zm9.248,2.661a2.12,2.12,0,0,0-.652-.453,2.027,2.027,0,0,0,.453.652,2.159,2.159,0,0,0,.657.458,2.258,2.258,0,0,0-.458-.64Zm12.639-23.118a2.159,2.159,0,0,0-.657-.458,2.159,2.159,0,0,0,.458.657,2.12,2.12,0,0,0,.652.453,2.12,2.12,0,0,0-.453-.635Zm-2.761,13.864a2.07,2.07,0,0,0-.652-.458,2.159,2.159,0,0,0,.458.657,2.12,2.12,0,0,0,.652.453,2.042,2.042,0,0,0-.464-.635Zm6.675-13.307a2.043,2.043,0,0,0-.458.652,2.319,2.319,0,0,0,1.1-1.1,2.071,2.071,0,0,0-.652.469Zm-7.564,7.145a2.043,2.043,0,0,0-.458.652,2.12,2.12,0,0,0,.652-.453,2.159,2.159,0,0,0,.458-.657,2.131,2.131,0,0,0-.657.475Zm-12.661,5.461a2.121,2.121,0,0,0-.453.652,2.12,2.12,0,0,0,.652-.453,2.159,2.159,0,0,0,.458-.657,2.159,2.159,0,0,0-.663.475Zm-1.2,8.564a2.092,2.092,0,0,0-.458.657,2.242,2.242,0,0,0,1.1-1.1,2.308,2.308,0,0,0-.652.464Zm9.508,3.136a2.043,2.043,0,0,0-.48.679,2.043,2.043,0,0,0,.652-.458,2.07,2.07,0,0,0,.453-.646,2.131,2.131,0,0,0-.629.442Zm-7.515,6.94a1.982,1.982,0,0,0-.458.652,2.319,2.319,0,0,0,1.1-1.1,2.131,2.131,0,0,0-.652.469Zm8.553-14.908a2.131,2.131,0,0,0-.458.652,2.319,2.319,0,0,0,1.1-1.1,2.131,2.131,0,0,0-.652.447Zm17.972-23.013a2.054,2.054,0,0,0-.453.657,2.131,2.131,0,0,0,.652-.458,2.209,2.209,0,0,0,.458-.652,2.142,2.142,0,0,0-.663.447Z" transform="translate(-160.055 -114.114)" fill="#fff"/><path d="M183.06,208.935c.469-.486.845-1.066,1.264-1.59s.823-1.1,1.22-1.656c.762-1.06,1.513-2.131,2.258-3.2s1.491-2.148,2.209-3.225,1.6-2.209,2.275-3.374a.05.05,0,1,0-.077-.055c-.878,1.021-1.656,2.17-2.429,3.258s-1.574,2.148-2.352,3.225-1.557,2.164-2.319,3.252c-.375.552-.74,1.1-1.1,1.656s-.756,1.1-1.055,1.656C182.978,208.946,183.027,208.968,183.06,208.935Z" transform="translate(-165.801 -138.28)" fill="#263238"/><path d="M241.5,135.961c-1.955.7-5.748-1.977-7.393-4.307-.11-.16-.05-1.988-.088-4.213-.028-1.347-.088-2.849-.243-4.213-.033-.282.983.121.983.121l1.817.226,6.007.756a21.81,21.81,0,0,0-.232,5.339,2.845,2.845,0,0,0,.121.552v.088C242.79,131.368,243.392,135.282,241.5,135.961Z" transform="translate(-188.565 -105.734)" fill="#f7a9a0"/><path d="M242.87,130.6v.088a4.921,4.921,0,0,1-.878.149c-5.781.552-7.332-6.731-7.332-6.731l2.291-.16,6.007.756a21.81,21.81,0,0,0-.232,5.339A2.845,2.845,0,0,0,242.87,130.6Z" transform="translate(-188.96 -106.102)" fill="#263238"/><path d="M230.052,99.953c-.806,3.092,1.182,11.849,3.44,13.721,3.269,2.722,8.437,2.761,10.7-1.1,2.209-3.771-.6-15.134-3.1-16.818C237.406,93.256,231.233,95.382,230.052,99.953Z" transform="translate(-186.814 -92.999)" fill="#f7a9a0"/><path d="M243.564,113.7s-.044.039-.033.061c.149.585.221,1.281-.271,1.6v.033C243.906,115.152,243.8,114.23,243.564,113.7Z" transform="translate(-192.811 -101.512)" fill="#263238"/><path d="M242.134,112.786c-.961.138-.613,2.06.282,1.933S242.946,112.67,242.134,112.786Z" transform="translate(-192.05 -101.1)" fill="#263238"/><path d="M250.32,112.32s.05,0,.055.044c.088.6.293,1.27.861,1.369v.033C250.568,113.8,250.309,112.9,250.32,112.32Z" transform="translate(-195.973 -100.893)" fill="#263238"/><path d="M250.736,110.982c.939-.248,1.364,1.656.491,1.888S249.941,111.2,250.736,110.982Z" transform="translate(-195.97 -100.284)" fill="#263238"/><path d="M240.435,110.21a6.656,6.656,0,0,0,.7-.4c.265-.155.5-.248.635-.552a.4.4,0,0,0-.155-.475,1.021,1.021,0,0,0-1.033.077,1.508,1.508,0,0,0-.74.8.442.442,0,0,0,.6.552Z" transform="translate(-191.267 -99.263)" fill="#263238"/><path d="M250.7,108.062a7.692,7.692,0,0,1-.8-.055,1.286,1.286,0,0,1-.806-.221.409.409,0,0,1-.066-.5,1.021,1.021,0,0,1,.966-.37,1.518,1.518,0,0,1,1.01.4.442.442,0,0,1-.309.745Z" transform="translate(-195.373 -98.468)" fill="#263238"/><path d="M244.864,123.675c.171.116.348.282.552.26a1.535,1.535,0,0,0,.607-.265h.033a.806.806,0,0,1-.7.458.646.646,0,0,1-.552-.442C244.8,123.681,244.842,123.659,244.864,123.675Z" transform="translate(-193.504 -105.976)" fill="#263238"/><path d="M245.445,114.638a2.043,2.043,0,0,0,1.518.657,2.584,2.584,0,0,0,.734-.1l.138-.039.121-.044a.149.149,0,0,0,.1-.155h0V114.9h0v-.05c-.066-.464-.237-1.148-.237-1.148.182.05,1.1.282,1.049.044a31.212,31.212,0,0,0-1.9-5.991.055.055,0,0,0-.1.033c.381,1.9,1.1,3.727,1.518,5.632a3.528,3.528,0,0,0-1.01-.116c-.061,0,.353,1.325.37,1.535h0a2.855,2.855,0,0,1-2.209-.271C245.44,114.549,245.4,114.6,245.445,114.638Z" transform="translate(-193.782 -98.833)" fill="#263238"/><path d="M247.316,120.68a2.385,2.385,0,0,1-.867.878,1.06,1.06,0,0,1-.657.133c-.491-.061-.552-.5-.552-.883a2.86,2.86,0,0,1,.138-.607A3.153,3.153,0,0,0,247.316,120.68Z" transform="translate(-193.698 -104.423)" fill="#263238"/><path d="M246.419,122.044a1.06,1.06,0,0,1-.657.133c-.491-.061-.552-.5-.552-.883A1.137,1.137,0,0,1,246.419,122.044Z" transform="translate(-193.685 -104.909)" fill="#ff9abb"/><path d="M228.7,105.244c2.026-.4,1.717-4.147,1.717-4.147s3.368-1.231,3.374-3.948c0,0,3.7,1.48,6.118.044s1.436-4.594,1.021-5.163c-.944-1.3-2.761.95-2.761.95a12.886,12.886,0,0,0-7.288-.282,6.461,6.461,0,0,0-3.937,4.009s-1.557.657-1.866,1.894S227.415,105.492,228.7,105.244Z" transform="translate(-184.658 -91.625)" fill="#263238"/><path d="M233.244,105.106c2.761-.155,4.2-2.286,4.1-4.936h.05c.381,2.418-1.347,5.521-4.152,5.069a.066.066,0,0,1,.006-.133Z" transform="translate(-188.295 -95.452)" fill="#263238"/><path d="M226.774,100.72s.05.033,0,.05a5.284,5.284,0,0,0-1.9,1.706,3.35,3.35,0,0,0,.282,2.91c.652,1.386,1.761,3.136,3.23,3.744.088.039,0,.16-.055.133-1.739-.624-3.12-2.91-3.666-4.588C224.085,102.8,225.073,101.476,226.774,100.72Z" transform="translate(-184.409 -95.698)" fill="#263238"/><path d="M246.346,97.476a3.766,3.766,0,0,0,4.086-.889c1.215-1.358.585-3.075-.3-4.417-.044-.066.039-.166.1-.1a3.672,3.672,0,0,1,.552,4.456,3.989,3.989,0,0,1-4.522,1.171C246.148,97.625,246.225,97.426,246.346,97.476Z" transform="translate(-194.131 -91.814)" fill="#263238"/><path d="M231.05,115.412s-2.175-2.728-3.423-1.938.508,4.831,2.065,5.3a1.546,1.546,0,0,0,2.015-.961Z" transform="translate(-185.62 -101.346)" fill="#f7a9a0"/><path d="M228.93,115.67v.039a3.891,3.891,0,0,1,2.175,2.319.856.856,0,0,0-1.292-.155c-.028,0,0,.061.033.055a.95.95,0,0,1,1.066.265,4.3,4.3,0,0,1,.552.812c.055.094.226.033.182-.072h0C231.575,117.547,230.4,115.714,228.93,115.67Z" transform="translate(-186.393 -102.394)" fill="#263238"/><path d="M241.294,135.75l-1.866,5.3-6.753-6.311-1.745,2.209s6.78,10.193,6.8,9.718l1.949-4.577,3.236,2.987-.591-7.824Z" transform="translate(-187.289 -110.934)" fill="#f8951d"/><path d="M243.09,143.233c-.144-1.292-.248-2.6-.447-3.865,0-.044-.083-.061-.088,0-.2,1.259.359,6.184.4,7.371h0c-.133-.127-2.987-2.623-3.015-2.579-.431.734-1.866,4.069-1.96,4.367-1.077-1.618-5.168-7.5-6.421-9.017a.046.046,0,0,0-.077.05c.961,1.717,6.388,9.635,6.46,9.613a50.242,50.242,0,0,0,2.043-4.842,33.71,33.71,0,0,0,3.385,3.186,41.962,41.962,0,0,0-.282-4.285Z" transform="translate(-187.534 -112.989)" fill="#263238"/></g><g transform="translate(163.148 47.266)"><path d="M300.438,58.687a11.192,11.192,0,0,1-17.889,8.989l-5.488,1.4,2.286-5.107a11.2,11.2,0,1,1,21.07-5.284Z" transform="translate(-276.657 -47.366)" fill="#fff"/><path d="M300.111,58.587a11.26,11.26,0,0,1-1.658,5.882,12.756,12.756,0,0,1-.888,1.268,12.11,12.11,0,0,1-1.071,1.1,11.3,11.3,0,0,1-5.455,2.816,10.491,10.491,0,0,1-1.546.193,9.844,9.844,0,0,1-1.563,0,11.3,11.3,0,0,1-5.814-2.137l.166.033L276.816,69.2l-.486.133.2-.464,2.264-5.118v.237a11.336,11.336,0,1,1,21.307-5.411Zm0,0a11.093,11.093,0,0,0-18.3-8.4,11.551,11.551,0,0,0-2.9,3.97A11.043,11.043,0,0,0,277.992,59a11.247,11.247,0,0,0,1.286,4.748l.061.116-.05.116-2.308,5.1-.282-.337,5.521-1.353h.094l.072.061a11.043,11.043,0,0,0,5.6,2.209,9.435,9.435,0,0,0,1.529.028,10.81,10.81,0,0,0,1.518-.16,11,11,0,0,0,2.9-.955,10.43,10.43,0,0,0,2.534-1.723,13.535,13.535,0,0,0,1.077-1.1,12.641,12.641,0,0,0,.894-1.259A11.264,11.264,0,0,0,300.111,58.587Z" transform="translate(-276.33 -47.266)" fill="#263238"/><path d="M295.228,61.515V57.379a5.206,5.206,0,0,1,2.291.988.751.751,0,0,0,.5.177.693.693,0,0,0,.37-1.309,6.626,6.626,0,0,0-3.125-1.193v-.414a.718.718,0,0,0-1.43,0V56c-2.236.149-3.826,1.5-3.826,3.313s1.16,2.761,3.865,3.363V66.9a5.836,5.836,0,0,1-3.1-1.419.762.762,0,0,0-.513-.188.734.734,0,0,0-.729.7.685.685,0,0,0,.3.552,7.432,7.432,0,0,0,4,1.656v1.066a.718.718,0,0,0,1.43,0V68.24c2.313-.16,3.9-1.513,3.9-3.352C299.176,63.116,297.95,62.078,295.228,61.515Zm-1.358-.287c-1.993-.491-2.385-1.1-2.385-2.01,0-1.021.988-1.794,2.385-1.91Zm3.815,3.7c0,1.1-1,1.866-2.457,1.982V62.934C297.271,63.4,297.685,64.027,297.685,64.927Z" transform="translate(-282.242 -50.718)" fill="#f8951d"/></g></g></svg>