<svg xmlns="http://www.w3.org/2000/svg" width="250" height="186.668" viewBox="0 0 250 186.668"><g transform="translate(-56.11 -138.015)"><g transform="translate(56.11 310.087)"><ellipse cx="125" cy="7.298" rx="125" ry="7.298" fill="#f5f5f5"/></g><g transform="translate(262.192 256.86)"><path d="M404.375,371.578h-.645c0-.87.722-21.307,4.281-24.769,3.675-3.572,7.988-.052,8.033,0l-.413.5c-.161-.135-3.913-3.185-7.169,0C405.084,350.535,404.381,371.372,404.375,371.578Z" transform="translate(-385.703 -330.477)" fill="#f8951d"/><path d="M400.28,372.931l-.645-.064c0-.245,2.3-24.789-6.6-34.988l.49-.419C402.607,347.865,400.383,371.913,400.28,372.931Z" transform="translate(-381.905 -327.724)" fill="#f8951d"/><path d="M404.484,369.252c-.077-1.16-1.792-28.463,5.054-34.762l.438.471c-6.621,6.092-4.867,33.963-4.848,34.246Z" transform="translate(-385.884 -326.668)" fill="#f8951d"/><path d="M396.185,376.013c0-.187-.213-18.509-5.061-21.275a3.049,3.049,0,0,0-2.8-.3c-2.837,1.173-4.352,6.6-4.365,6.66l-.645-.174c.064-.232,1.612-5.8,4.745-7.092a3.694,3.694,0,0,1,3.372.329c5.158,2.959,5.377,21.069,5.383,21.836Z" transform="translate(-378.448 -333.449)" fill="#f8951d"/><path d="M406.337,376.5c-.032-.587-.787-14.5,3.159-19.657A4.051,4.051,0,0,1,413,354.9c2.817.2,5,4.01,5.087,4.171l-.561.316c0-.039-2.1-3.668-4.571-3.868a3.491,3.491,0,0,0-2.94,1.689c-3.8,4.964-3.043,19.083-3.03,19.225Z" transform="translate(-386.602 -333.918)" fill="#f8951d"/><path d="M404.024,369.681l-.645-.052c0-.335,2.482-33.447-1.6-38.959l.516-.38C406.518,336,404.127,368.308,404.024,369.681Z" transform="translate(-385.01 -325.176)" fill="#f8951d"/><path d="M384.3,358.018s2.521.928,1.773,3.127-8.736,5.8-8.736,5.8-3.34-3.062-.271-8.046S384.2,356.445,384.3,358.018Z" transform="translate(-375.768 -334.298)" fill="#f8951d"/><path d="M384.3,358.018s2.521.928,1.773,3.127-8.736,5.8-8.736,5.8-3.34-3.062-.271-8.046S384.2,356.445,384.3,358.018Z" transform="translate(-375.768 -334.298)" fill="#fff" opacity="0.5"/><path d="M404.431,352.1s-2.688-.11-2.843,2.2,5.8,8.723,5.8,8.723,4.268-1.541,3.346-7.317S405.076,350.679,404.431,352.1Z" transform="translate(-384.941 -332.568)" fill="#f8951d"/><path d="M404.431,352.1s-2.688-.11-2.843,2.2,5.8,8.723,5.8,8.723,4.268-1.541,3.346-7.317S405.076,350.679,404.431,352.1Z" transform="translate(-384.941 -332.568)" fill="#fff" opacity="0.5"/><path d="M408.59,333.722s-1.786-.193-1.644-1.289,6.963-3.9,10.992.645c0,0-2.579,4.423-6.305,4.481S408.59,333.722,408.59,333.722Z" transform="translate(-386.843 -325.275)" fill="#f8951d"/><path d="M408.59,333.722s-1.786-.193-1.644-1.289,6.963-3.9,10.992.645c0,0-2.579,4.423-6.305,4.481S408.59,333.722,408.59,333.722Z" transform="translate(-386.843 -325.275)" fill="#fff" opacity="0.5"/><path d="M400.144,328.155s1.618.787,2.076-.219-3.868-6.995-9.67-5.267c0,0-.155,5.119,2.978,7.143S400.144,328.155,400.144,328.155Z" transform="translate(-381.73 -322.358)" fill="#f8951d"/><path d="M400.144,328.155s1.618.787,2.076-.219-3.868-6.995-9.67-5.267c0,0-.155,5.119,2.978,7.143S400.144,328.155,400.144,328.155Z" transform="translate(-381.73 -322.358)" fill="#fff" opacity="0.5"/><path d="M417.028,356.864s-1.238-1,.1-1.489,7.878-.348,7.949,6.137c0,0-7.627,1.289-8.568-1.2S417.028,356.864,417.028,356.864Z" transform="translate(-390.13 -334.028)" fill="#f8951d"/><path d="M417.028,356.864s-1.238-1,.1-1.489,7.878-.348,7.949,6.137c0,0-7.627,1.289-8.568-1.2S417.028,356.864,417.028,356.864Z" transform="translate(-390.13 -334.028)" fill="#fff" opacity="0.5"/><path d="M388.926,334.3s1.238-1-.1-1.483-7.885-.355-7.949,6.137c0,0,7.627,1.289,8.568-1.206S388.926,334.3,388.926,334.3Z" transform="translate(-377.584 -326.013)" fill="#f8951d"/><path d="M388.926,334.3s1.238-1-.1-1.483-7.885-.355-7.949,6.137c0,0,7.627,1.289,8.568-1.206S388.926,334.3,388.926,334.3Z" transform="translate(-377.584 -326.013)" fill="#fff" opacity="0.5"/><path d="M397.8,342.85s.1-1.218-.877-.741-4.39,4.158-.851,7.653c0,0,4.764-3.526,3.9-5.364S397.8,342.85,397.8,342.85Z" transform="translate(-382.425 -329.336)" fill="#f8951d"/><path d="M397.8,342.85s.1-1.218-.877-.741-4.39,4.158-.851,7.653c0,0,4.764-3.526,3.9-5.364S397.8,342.85,397.8,342.85Z" transform="translate(-382.425 -329.336)" fill="#fff" opacity="0.5"/><path d="M418.62,345.4s-.741-.967.342-1.09,5.938,1.173,4.809,6.021c0,0-5.912-.445-6.17-2.456S418.62,345.4,418.62,345.4Z" transform="translate(-390.619 -330.153)" fill="#f8951d"/><path d="M418.62,345.4s-.741-.967.342-1.09,5.938,1.173,4.809,6.021c0,0-5.912-.445-6.17-2.456S418.62,345.4,418.62,345.4Z" transform="translate(-390.619 -330.153)" fill="#fff" opacity="0.5"/><path d="M387.016,404.023H407.3l2.192-22.2H384.83Z" transform="translate(-378.988 -343.485)" fill="#263238"/><path d="M387.016,404.023H407.3l2.192-22.2H384.83Z" transform="translate(-378.988 -343.485)" fill="#fff" opacity="0.2"/><rect width="26.826" height="4.9" transform="translate(31.585 40.785) rotate(180)" fill="#263238"/><rect width="26.826" height="4.9" transform="translate(31.585 40.785) rotate(180)" fill="#fff" opacity="0.4"/></g><g transform="translate(63.402 264.079)"><path d="M97.81,339.674c-.135.948,2.431,1.567,4.513,1.934a8.976,8.976,0,0,1-2.895,5.08c-1.986-1.122-4.829-2.579-5.351-2.237s2.334,2.276,4.152,3.378a36.783,36.783,0,0,1-4.12,3.12c-.89-.832-1.934-1.56-2.579-1.167s-.471,1.7-.155,2.85c-2.16,1.289-3.784,2.031-3.784,2.031a43.518,43.518,0,0,1-1.444-6.144c.11-.219.219-.438.316-.645.348-.806,0-1.154-.567-1.289a21.216,21.216,0,0,1,0-4.429c2.45-.509,5.428-1.463,4.313-2.933-.645-.883-1.934-.986-3.223-.761a5.552,5.552,0,0,1,.606-.825c4.461-4.913,7.569,0,7.569,0,2.579-2.16,6.228-1.573,7.014,1.8C100.75,339.029,97.978,338.488,97.81,339.674Z" transform="translate(-73.943 -334.229)" fill="#f8951d"/><path d="M97.81,339.674c-.135.948,2.431,1.567,4.513,1.934a8.976,8.976,0,0,1-2.895,5.08c-1.986-1.122-4.829-2.579-5.351-2.237s2.334,2.276,4.152,3.378a36.783,36.783,0,0,1-4.12,3.12c-.89-.832-1.934-1.56-2.579-1.167s-.471,1.7-.155,2.85c-2.16,1.289-3.784,2.031-3.784,2.031a43.518,43.518,0,0,1-1.444-6.144c.11-.219.219-.438.316-.645.348-.806,0-1.154-.567-1.289a21.216,21.216,0,0,1,0-4.429c2.45-.509,5.428-1.463,4.313-2.933-.645-.883-1.934-.986-3.223-.761a5.552,5.552,0,0,1,.606-.825c4.461-4.913,7.569,0,7.569,0,2.579-2.16,6.228-1.573,7.014,1.8C100.75,339.029,97.978,338.488,97.81,339.674Z" transform="translate(-73.943 -334.229)" fill="#fff" opacity="0.3"/><path d="M95.541,377.472l.645-.052c0-.329-2.643-33.215,4.739-36.316a2.5,2.5,0,0,1,2.237.052c2.669,1.393,3.946,7.15,3.958,7.208l.645-.142c-.058-.245-1.354-6.105-4.294-7.633a3.146,3.146,0,0,0-2.785-.077C92.865,343.761,95.431,376.073,95.541,377.472Z" transform="translate(-77.238 -335.924)" fill="#f8951d"/><path d="M89.357,374.367c.129-1.483,3.14-36.277-2.489-39.971-1.354-.883-2.579-1.077-3.578-.554-2.663,1.341-3.011,7.034-3.03,7.272l.645.039c0-.058.342-5.564,2.675-6.737a2.894,2.894,0,0,1,2.933.522c5.312,3.481,2.231,39.01,2.2,39.372Z" transform="translate(-71.982 -333.555)" fill="#f8951d"/><path d="M85.88,384.444c.045-1.135.973-27.767-4.158-30.1a3.6,3.6,0,0,0-3.049,0c-3.52,1.547-5.693,8.1-5.8,8.381l.612.2c0-.064,2.173-6.563,5.428-7.994a2.94,2.94,0,0,1,2.527,0c3.933,1.792,4.062,21.92,3.778,29.488Z" transform="translate(-69.356 -340.821)" fill="#f8951d"/><path d="M94.321,381.3l.645-.071c-.9-7.93-2.63-29.05.193-31.59a1.1,1.1,0,0,1,1.154-.361c1.889.729,3.043,7.6,3.327,10.186l.645-.071c-.11-.993-1.141-9.716-3.739-10.715a1.728,1.728,0,0,0-1.818.477C91.046,352.434,94.186,380.13,94.321,381.3Z" transform="translate(-76.489 -338.899)" fill="#f8951d"/><path d="M99,376.02H75.84l1.934,25.943h19.3Z" transform="translate(-70.412 -348.643)" fill="#f8951d"/><path d="M91.964,376.02l-.645,25.943H77.774L75.84,376.02Z" transform="translate(-70.412 -348.643)" fill="#fff" opacity="0.2"/><path d="M102.976,359.837c.245.645,2.044.135,3.456-.367a6.471,6.471,0,0,1-.045,4.133c-1.612,0-3.868.045-4.068.451s2.218.6,3.72.645a25.818,25.818,0,0,1-1.47,3.34c-.838-.206-1.728-.3-1.979.155s.3,1.212.883,1.812c-.9,1.515-1.638,2.547-1.638,2.547a31.017,31.017,0,0,1-3-3.294c0-.168,0-.342,0-.516-.058-.645-.387-.716-.78-.587a15.233,15.233,0,0,1-1.573-2.675c1.335-1.16,2.843-2.766,1.65-3.288a2.186,2.186,0,0,0-2.224.645,4.343,4.343,0,0,1,.09-.716c1.064-4.558,4.668-2.579,4.668-2.579.857-2.224,3.3-3.107,4.945-1.289C104.588,358.445,102.679,359.031,102.976,359.837Z" transform="translate(-77.543 -341.982)" fill="#f8951d"/><path d="M102.976,359.837c.245.645,2.044.135,3.456-.367a6.471,6.471,0,0,1-.045,4.133c-1.612,0-3.868.045-4.068.451s2.218.6,3.72.645a25.818,25.818,0,0,1-1.47,3.34c-.838-.206-1.728-.3-1.979.155s.3,1.212.883,1.812c-.9,1.515-1.638,2.547-1.638,2.547a31.017,31.017,0,0,1-3-3.294c0-.168,0-.342,0-.516-.058-.645-.387-.716-.78-.587a15.233,15.233,0,0,1-1.573-2.675c1.335-1.16,2.843-2.766,1.65-3.288a2.186,2.186,0,0,0-2.224.645,4.343,4.343,0,0,1,.09-.716c1.064-4.558,4.668-2.579,4.668-2.579.857-2.224,3.3-3.107,4.945-1.289C104.588,358.445,102.679,359.031,102.976,359.837Z" transform="translate(-77.543 -341.982)" fill="#fff" opacity="0.3"/><path d="M75.659,362.632a8.7,8.7,0,0,1,2.115.445,4.745,4.745,0,0,0,.309-1.528c.148-4.674-3.223-2.708-4.964-4.074a3.778,3.778,0,0,0-2.953-.928,7.093,7.093,0,0,1,.4.8.735.735,0,0,1-.567,1,2.121,2.121,0,0,1-1.289-.155,2.151,2.151,0,0,1-.342-.239,6.447,6.447,0,0,0-.645,1.567,8.658,8.658,0,0,0-.3,2,6.689,6.689,0,0,1,.78.219.722.722,0,0,1,.29,1.109,3.294,3.294,0,0,1-.961.677,10.96,10.96,0,0,0,.587,2.192l.239.032a4.8,4.8,0,0,1,.5.129,2.1,2.1,0,0,1,.284.1.735.735,0,0,1,.432.567.716.716,0,0,1-.271.677,2.8,2.8,0,0,1-.348.213,5.157,5.157,0,0,0,1.85,1.87,19.389,19.389,0,0,0,1.934-1.044c-.142-.187-.277-.374-.406-.567a1.057,1.057,0,0,1-.2-.729.993.993,0,0,1,.38-.645,1.006,1.006,0,0,1,1.393.181,6.5,6.5,0,0,0,.49.645,12.14,12.14,0,0,0,2.424-2.276h-.071a7.006,7.006,0,0,0-1.289-.219.995.995,0,0,1,.258-1.973Z" transform="translate(-67.42 -341.714)" fill="#f8951d"/><path d="M75.659,362.632a8.7,8.7,0,0,1,2.115.445,4.745,4.745,0,0,0,.309-1.528c.148-4.674-3.223-2.708-4.964-4.074a3.778,3.778,0,0,0-2.953-.928,7.093,7.093,0,0,1,.4.8.735.735,0,0,1-.567,1,2.121,2.121,0,0,1-1.289-.155,2.151,2.151,0,0,1-.342-.239,6.447,6.447,0,0,0-.645,1.567,8.658,8.658,0,0,0-.3,2,6.689,6.689,0,0,1,.78.219.722.722,0,0,1,.29,1.109,3.294,3.294,0,0,1-.961.677,10.96,10.96,0,0,0,.587,2.192l.239.032a4.8,4.8,0,0,1,.5.129,2.1,2.1,0,0,1,.284.1.735.735,0,0,1,.432.567.716.716,0,0,1-.271.677,2.8,2.8,0,0,1-.348.213,5.157,5.157,0,0,0,1.85,1.87,19.389,19.389,0,0,0,1.934-1.044c-.142-.187-.277-.374-.406-.567a1.057,1.057,0,0,1-.2-.729.993.993,0,0,1,.38-.645,1.006,1.006,0,0,1,1.393.181,6.5,6.5,0,0,0,.49.645,12.14,12.14,0,0,0,2.424-2.276h-.071a7.006,7.006,0,0,0-1.289-.219.995.995,0,0,1,.258-1.973Z" transform="translate(-67.42 -341.714)" fill="#fff" opacity="0.5"/><path d="M77.243,339.531a6.215,6.215,0,0,0-1.289-.7,3.423,3.423,0,0,1,.509-.941c1.973-2.521,2.869,0,4.4.039a2.579,2.579,0,0,1,1.934.812,4.775,4.775,0,0,0-.561.245.5.5,0,0,0-.142.774,1.5,1.5,0,0,0,.761.49,1.349,1.349,0,0,0,.277,0,4.28,4.28,0,0,1-.348,1.1,6.124,6.124,0,0,1-.716,1.18,5.108,5.108,0,0,0-.509-.226.5.5,0,0,0-.645.458,2.185,2.185,0,0,0,.206.78,7.926,7.926,0,0,1-1.289.89l-.142-.084c-.1-.058-.213-.11-.316-.155a.779.779,0,0,0-.193-.071.5.5,0,0,0-.645.58,1.826,1.826,0,0,0,.09.264,3.546,3.546,0,0,1-1.792.168,12.722,12.722,0,0,1-.574-1.412l.464-.116a.742.742,0,0,0,.445-.245.722.722,0,0,0,.09-.516.683.683,0,0,0-.812-.516c-.181.052-.367.1-.554.135a8.168,8.168,0,0,1-.232-2.25H75.7a4.845,4.845,0,0,1,.787.464.69.69,0,0,0,.754-1.154Z" transform="translate(-70.345 -334.699)" fill="#f8951d"/><path d="M77.243,339.531a6.215,6.215,0,0,0-1.289-.7,3.423,3.423,0,0,1,.509-.941c1.973-2.521,2.869,0,4.4.039a2.579,2.579,0,0,1,1.934.812,4.775,4.775,0,0,0-.561.245.5.5,0,0,0-.142.774,1.5,1.5,0,0,0,.761.49,1.349,1.349,0,0,0,.277,0,4.28,4.28,0,0,1-.348,1.1,6.124,6.124,0,0,1-.716,1.18,5.108,5.108,0,0,0-.509-.226.5.5,0,0,0-.645.458,2.185,2.185,0,0,0,.206.78,7.926,7.926,0,0,1-1.289.89l-.142-.084c-.1-.058-.213-.11-.316-.155a.779.779,0,0,0-.193-.071.5.5,0,0,0-.645.58,1.826,1.826,0,0,0,.09.264,3.546,3.546,0,0,1-1.792.168,12.722,12.722,0,0,1-.574-1.412l.464-.116a.742.742,0,0,0,.445-.245.722.722,0,0,0,.09-.516.683.683,0,0,0-.812-.516c-.181.052-.367.1-.554.135a8.168,8.168,0,0,1-.232-2.25H75.7a4.845,4.845,0,0,1,.787.464.69.69,0,0,0,.754-1.154Z" transform="translate(-70.345 -334.699)" fill="#fff" opacity="0.3"/><path d="M104.913,345.976c.135.948-2.437,1.573-4.513,1.934A8.991,8.991,0,0,0,103.295,353c1.992-1.122,4.829-2.579,5.351-2.244s-2.334,2.276-4.152,3.385a37.4,37.4,0,0,0,4.12,3.12c.89-.838,1.934-1.567,2.579-1.173s.471,1.7.155,2.85c2.166,1.289,3.784,2.031,3.784,2.031a43.518,43.518,0,0,0,1.444-6.144c-.11-.213-.219-.432-.316-.645-.348-.806,0-1.148.567-1.289a21.159,21.159,0,0,0,0-4.423c-2.443-.516-5.422-1.463-4.307-2.933.645-.89,1.9-.986,3.185-.767a5.549,5.549,0,0,0-.606-.825c-4.455-4.906-7.569,0-7.569,0-2.579-2.153-6.228-1.573-7.014,1.8C101.96,345.363,104.745,344.809,104.913,345.976Z" transform="translate(-79.138 -336.469)" fill="#f8951d"/><path d="M104.913,345.976c.135.948-2.437,1.573-4.513,1.934A8.991,8.991,0,0,0,103.295,353c1.992-1.122,4.829-2.579,5.351-2.244s-2.334,2.276-4.152,3.385a37.4,37.4,0,0,0,4.12,3.12c.89-.838,1.934-1.567,2.579-1.173s.471,1.7.155,2.85c2.166,1.289,3.784,2.031,3.784,2.031a43.518,43.518,0,0,0,1.444-6.144c-.11-.213-.219-.432-.316-.645-.348-.806,0-1.148.567-1.289a21.159,21.159,0,0,0,0-4.423c-2.443-.516-5.422-1.463-4.307-2.933.645-.89,1.9-.986,3.185-.767a5.549,5.549,0,0,0-.606-.825c-4.455-4.906-7.569,0-7.569,0-2.579-2.153-6.228-1.573-7.014,1.8C101.96,345.363,104.745,344.809,104.913,345.976Z" transform="translate(-79.138 -336.469)" fill="#fff" opacity="0.5"/></g><g transform="translate(168.738 138.015)"><path d="M274.2,186.75c-.168.967-.342,1.773-.554,2.643s-.438,1.7-.69,2.534a44.98,44.98,0,0,1-1.766,4.983,27.679,27.679,0,0,1-6.041,9.342,14.558,14.558,0,0,1-2.456,1.9c-.226.129-.477.284-.683.393l-.593.3c-.4.2-.787.387-1.186.561-1.579.716-3.14,1.36-4.726,1.934a93.11,93.11,0,0,1-9.6,3.03l-1.212-3.082c2.869-1.612,5.8-3.165,8.639-4.719,1.418-.787,2.843-1.554,4.2-2.366.335-.2.645-.393,1-.6l.49-.3c.148-.1.245-.174.367-.258a8.613,8.613,0,0,0,1.373-1.231,23.548,23.548,0,0,0,4.255-7.433c.567-1.412,1.038-2.888,1.489-4.371.219-.748.426-1.5.645-2.25s.374-1.541.509-2.192Z" transform="translate(-235.742 -154.911)" fill="#ce7a63"/><path d="M269.58,193.963l6.963,5.2s.271-.3.709-.806c.322-.374.741-.87,1.218-1.451,2.708-3.3,6.666-9.316,6.7-12.249.045-4.4-4.513-5.042-9.632-.548-2.211,1.934-3.365,5.158-4.513,7.15-.374.645-.683,1.238-.928,1.683C269.773,193.576,269.58,193.963,269.58,193.963Z" transform="translate(-244.585 -153.299)" fill="#f8951d"/><path d="M288.3,187.284c-1.573-1.038-2.721,1.657-5.835,3.933-1.386,1.012-4.423,7.627-4.178,9.084l1.347,1S288.337,191.668,288.3,187.284Z" transform="translate(-247.676 -155.439)" opacity="0.3"/><path d="M243.437,224.091l-5.757-1.521.406,5.706s5.622.567,6.144-1.122Z" transform="translate(-233.251 -168.058)" fill="#ce7a63"/><path d="M230.81,225.523l1.309,3.894,3.526-1.141-.406-5.706Z" transform="translate(-230.81 -168.058)" fill="#ce7a63"/><path d="M282.268,218.911h23.577c.161-2.1-.322-8.955.039-17.671a112.619,112.619,0,0,1,2.34-19.231l.329-1.418s-1.193-.245-2.908-.5c-1.418-.206-3.224-.419-4.951-.5a87.961,87.961,0,0,0-10.019,0,39.928,39.928,0,0,0-4.242.645c-1.534.309-2.443.574-2.443.574S278.187,194.129,282.268,218.911Z" transform="translate(-248.577 -152.736)" fill="#f8951d"/><path d="M318.307,202.634a112.553,112.553,0,0,1,2.34-19.225c-1.573-.142-4.268,0-4.713,2.579C315.451,188.7,316.057,195.136,318.307,202.634Z" transform="translate(-261 -154.13)" opacity="0.3"/><path d="M305.554,164l-2.682,2.224-3.649,3.03a13.712,13.712,0,0,1,.232,1.476c.193,1.979-.316,2.663-3.223,3.352,0,0-3.456,2.289,1.67,2.708a6.9,6.9,0,0,0,.258,1.644,6.448,6.448,0,0,1,1.65-1.592c5.609-.1,6.35-2.695,6.35-2.695C303.968,171.975,304.813,167.223,305.554,164Z" transform="translate(-253.65 -147.248)" fill="#ce7a63"/><path d="M301.5,170.45a13.711,13.711,0,0,1,.232,1.476c1.36-.271,3.178-1.721,3.372-3.114a6.577,6.577,0,0,0,.045-1.393Z" transform="translate(-255.926 -148.463)" opacity="0.2"/><path d="M283.076,403.3l-4.958.522-.251-2.875-.677-7.82,4.958-.529.754,8.645Z" transform="translate(-247.289 -228.47)" fill="#9f5b53"/><path d="M321.843,402.161h-4.8l-.045-1.09-.006-.135-.245-6.969-.006-.142-.1-2.675h4.816Z" transform="translate(-261.306 -227.955)" fill="#9f5b53"/><path d="M282.148,392.6l.754,8.645-5.035-.3-.677-7.82Z" transform="translate(-247.289 -228.47)" opacity="0.2"/><path d="M321.87,403.237h-.006l-4.816-.612h-.006l-.251-6.724h.006l4.822.38.245,6.743Z" transform="translate(-261.359 -229.643)" opacity="0.2"/><path d="M311.292,407.779h5.8a.419.419,0,0,1,.413.329l.948,4.281a.709.709,0,0,1-.548.838h-.155c-1.889-.032-3.269-.148-5.641-.148-1.457,0-5.867.148-7.885.148s-2.282-1.992-1.457-2.173c3.707-.806,6.492-1.934,7.678-2.991a1.167,1.167,0,0,1,.845-.284Z" transform="translate(-256.222 -233.862)" fill="#263238"/><path d="M272.893,407.54h5.841a.419.419,0,0,1,.413.329l.948,4.281a.709.709,0,0,1-.548.838h-.155c-1.889,0-3.269-.148-5.641-.148-1.463,0-5.867.155-7.885.155s-2.282-1.992-1.457-2.179c3.707-.806,6.492-1.934,7.678-2.991A1.16,1.16,0,0,1,272.893,407.54Z" transform="translate(-242.592 -233.778)" fill="#263238"/><path d="M307.1,346.854h-6.956s-5.609-30-7.827-45.283c-.342-2.372-.716-5.486-1.09-9.11-.587-5.867-1.193-12.894-1.734-19.663-1.663,4.474-2.933,10.863-3.913,18.116-3.488,25.981-3.133,55.328-3.133,55.328h-7.053c-5.441-41.576,1.824-92.739,4.249-105.582h23.57c.039,3.056,1.335,46.418,2.244,62.748C306.272,318.43,307.1,346.854,307.1,346.854Z" transform="translate(-245.948 -174.485)" fill="#263238"/><path d="M275.25,401.35l.348,1.986h8.329V401.5Z" transform="translate(-246.6 -231.579)" fill="#f8951d"/><path d="M313.62,402.53l.8,1.837h6.989l.458-1.837Z" transform="translate(-260.233 -231.998)" fill="#f8951d"/><path d="M304.226,155.154s1.431.709,1.863-.11,0-2.082.7-2.321,2.224-.271,2.127-1.128-1.064-1.547-.4-2.1,2.024-1.341,1.418-2.011-1.167-1.773-.645-2.173-.161-2.688-1.515-2.534-1.128-.954-1.1-1.934-1.986-1.8-2.463-.825-1.515-.264-1.8-1.128-.864-1.16-2.082-.554-1.4,2.65-2.024,1.47-2.011-1.934-2.688-1.289-.271,1.5-1.335,1.451-2.54,1.883-2.018,2.179.445.825-.271,1.405-1.547,1.521-.612,1.934.877,1.1.6,1.373.561,1.625,1.818,1.547S304.226,155.154,304.226,155.154Z" transform="translate(-252.187 -138.015)" fill="#263238"/><path d="M293.819,145.72s-2.4,5.693.168,8.768,5.351-7.949,5.351-7.949Z" transform="translate(-252.836 -140.753)" fill="#263238"/><path d="M301.645,161.415a5.531,5.531,0,0,1-6.692.522,6.137,6.137,0,0,1-2.714-3.643,6.3,6.3,0,0,1-.142-.645c-.645-4.01.471-10.463,4.9-11.869a6.015,6.015,0,0,1,7.788,6.634C304.153,156.779,304,159.358,301.645,161.415Z" transform="translate(-252.526 -140.671)" fill="#ce7a63"/><path d="M300.9,156.955c0,.355-.239.645-.477.612s-.393-.322-.367-.683.239-.645.471-.606S300.929,156.594,300.9,156.955Z" transform="translate(-255.413 -144.503)" fill="#263238"/><path d="M294.653,156.465c0,.355-.245.645-.471.612s-.4-.322-.374-.683.245-.645.471-.606S294.679,156.13,294.653,156.465Z" transform="translate(-253.193 -144.329)" fill="#263238"/><path d="M296.014,157.27a12.617,12.617,0,0,1-1.934,2.914,2.063,2.063,0,0,0,1.689.451Z" transform="translate(-253.29 -144.856)" fill="#ba4d3c"/><path d="M292.943,153.725a.206.206,0,0,0,.219,0,1.708,1.708,0,0,1,1.509-.161.206.206,0,1,0,.174-.374h0a2.1,2.1,0,0,0-1.9.187.213.213,0,0,0-.077.284h0A.368.368,0,0,0,292.943,153.725Z" transform="translate(-252.85 -143.355)" fill="#263238"/><path d="M301.771,154.411a.2.2,0,0,0,.122,0,.213.213,0,0,0,0-.3h0a2.1,2.1,0,0,0-1.805-.645.213.213,0,0,0-.161.251h0a.213.213,0,0,0,.245.161h0a1.7,1.7,0,0,1,1.425.529A.206.206,0,0,0,301.771,154.411Z" transform="translate(-255.366 -143.5)" fill="#263238"/><path d="M307.234,147.39l-.484.774c1.38.645.883,2.289.5,3a5.263,5.263,0,0,0,.89,5.312s.122-.7.7-.458,0,3.223,0,3.223.5.857,1.966-2.843c1.354-3.423,1.844-6.35,1.289-7.814Z" transform="translate(-257.792 -141.346)" fill="#263238"/><path d="M311.947,160.4a4.133,4.133,0,0,1-2.547,1.934c-1.425.361-2.1-.922-1.67-2.244.387-1.173,1.592-2.811,3-2.579a1.863,1.863,0,0,1,1.212,2.888Z" transform="translate(-258.095 -144.933)" fill="#ce7a63"/><path d="M297,163.011a13.049,13.049,0,0,1,.9,1.683l.322-.09c1.463-.4,2.011-1.07,2.173-1.689a1.934,1.934,0,0,0,0-.928,2.017,2.017,0,0,0-.187-.5,7.091,7.091,0,0,1-2.708,1.38C297.187,162.966,297,163.011,297,163.011Z" transform="translate(-254.328 -146.356)" fill="#263238"/><path d="M297.76,162.87l.277.49a4.542,4.542,0,0,0,2.617-1.373,2.019,2.019,0,0,0-.187-.5,7.091,7.091,0,0,1-2.708,1.38Z" transform="translate(-254.598 -146.356)" fill="#fff"/><path d="M298.88,165.389c1.463-.4,2.011-1.07,2.173-1.689a4.893,4.893,0,0,0-1.534.767A1.812,1.812,0,0,0,298.88,165.389Z" transform="translate(-254.996 -147.141)" fill="#de5753"/><path d="M299.673,143.237a6.8,6.8,0,0,0-3.572.986c-1.206.986-2.018,2.514-1.586,2.656s1.67-.567,1.992-.413.322,2.031,1.515,1.393.522-.645,1.489-.877,1.515.967,1.934.883a2.463,2.463,0,0,0,.845-.4s-1.289-.426-1.36-.838-1.289-.645-1.289-.645,1.541-.522,2.018-.09.2,1.386,1.457,1.36,3.223,1.077,3.4-.522S302.522,142.18,299.673,143.237Z" transform="translate(-253.403 -139.791)" fill="#263238"/><path d="M307.841,176.32l-6,2.579-2,3.894,2-1.315,2.456,2.36,5.2-5.209Z" transform="translate(-255.337 -151.625)" fill="#f8951d"/><path d="M297.15,182.793l-.645-3.449a3,3,0,0,1,1.418-2l-2.14-1.025s-3.314,3.984-3.514,6.447l2.9-1.934Z" transform="translate(-252.647 -151.625)" fill="#f8951d"/><path d="M307.841,176.32l-6,2.579-2,3.894,2-1.315,2.456,2.36,5.2-5.209Z" transform="translate(-255.337 -151.625)" fill="#fff" opacity="0.2"/><path d="M297.15,182.793l-.645-3.449a3,3,0,0,1,1.418-2l-2.14-1.025s-3.314,3.984-3.514,6.447l2.9-1.934Z" transform="translate(-252.647 -151.625)" fill="#fff" opacity="0.2"/><path d="M272.9,407.683a.554.554,0,0,1,.052-.567.367.367,0,0,1,.316-.206c.574-.032,1.5,1.16,1.605,1.289a.11.11,0,0,1,0,.116.116.116,0,0,1-.1.052,5.538,5.538,0,0,1-1.167-.213A1.18,1.18,0,0,1,272.9,407.683Zm.38-.567a.168.168,0,0,0-.155.1.374.374,0,0,0-.045.367c.135.258.677.464,1.476.554C274.17,407.677,273.59,407.1,273.28,407.116Z" transform="translate(-245.745 -233.554)" fill="#f8951d"/><path d="M275.456,407.979a2.285,2.285,0,0,1-.432-1.889.38.38,0,0,1,.451-.181.5.5,0,0,1,.367.271c.29.542-.193,1.715-.213,1.766a.109.109,0,0,1-.077.064H275.5Zm0-1.87c-.148-.032-.206,0-.232.084a2.07,2.07,0,0,0,.3,1.5,2.263,2.263,0,0,0,.155-1.418.3.3,0,0,0-.181-.155Z" transform="translate(-246.49 -233.193)" fill="#f8951d"/><path d="M311.31,407.683a.554.554,0,0,1,.052-.567.368.368,0,0,1,.316-.206c.58-.032,1.5,1.16,1.605,1.289a.11.11,0,0,1,0,.116.116.116,0,0,1-.1.052,5.614,5.614,0,0,1-1.167-.213,1.2,1.2,0,0,1-.709-.471Zm.38-.567a.168.168,0,0,0-.155.1.374.374,0,0,0-.045.367c.135.258.677.464,1.476.554C312.58,407.677,312,407.1,311.69,407.116Z" transform="translate(-259.392 -233.554)" fill="#f8951d"/><path d="M313.873,407.979a2.4,2.4,0,0,1-.432-1.889.38.38,0,0,1,.451-.181.5.5,0,0,1,.367.271c.29.542-.193,1.715-.213,1.766a.11.11,0,0,1-.077.064h-.052Zm0-1.87c-.148-.032-.206,0-.232.084a2.069,2.069,0,0,0,.3,1.5,2.263,2.263,0,0,0,.155-1.418.29.29,0,0,0-.18-.155Z" transform="translate(-260.145 -233.193)" fill="#f8951d"/><path d="M295.875,285.262c-1.663,4.474-2.933,10.863-3.913,18.116-2.366-9.67,3.3-27.638,3.3-27.638Z" transform="translate(-252.332 -186.949)" opacity="0.3"/><path d="M345.508,237.31c1.986.729,2.579,4.042,1.354,7.408s-3.868,5.486-5.8,4.758-2.579-4.049-1.354-7.408S343.542,236.575,345.508,237.31Z" transform="translate(-269.28 -173.243)" fill="#263238"/><path d="M335.205,228.949a1.882,1.882,0,0,0-.986-1c-1.934-.716-5.054,2.85-6.937,7.962s-1.824,9.838.122,10.554a1.85,1.85,0,0,0,1.386-.11,1.509,1.509,0,0,0,.567.387,1.8,1.8,0,0,0,1.373-.122,1.541,1.541,0,0,0,.58.4,1.773,1.773,0,0,0,1.367-.148,1.4,1.4,0,0,0,.58.419,1.708,1.708,0,0,0,1.373-.161,1.367,1.367,0,0,0,.58.438c1.618.6,4.2-2.366,5.8-6.615s1.515-8.181-.1-8.781a1.289,1.289,0,0,0-.729-.039,1.721,1.721,0,0,0-.935-1.012,1.406,1.406,0,0,0-.716-.058,1.767,1.767,0,0,0-.961-.986,1.425,1.425,0,0,0-.7-.071,1.8,1.8,0,0,0-.961-.986A1.515,1.515,0,0,0,335.205,228.949Z" transform="translate(-264.598 -169.937)" fill="#263238"/><path d="M335.205,228.949a1.882,1.882,0,0,0-.986-1c-1.934-.716-5.054,2.85-6.937,7.962s-1.824,9.838.122,10.554a1.85,1.85,0,0,0,1.386-.11,1.509,1.509,0,0,0,.567.387,1.8,1.8,0,0,0,1.373-.122,1.541,1.541,0,0,0,.58.4,1.773,1.773,0,0,0,1.367-.148,1.4,1.4,0,0,0,.58.419,1.708,1.708,0,0,0,1.373-.161,1.367,1.367,0,0,0,.58.438c1.618.6,4.2-2.366,5.8-6.615s1.515-8.181-.1-8.781a1.289,1.289,0,0,0-.729-.039,1.721,1.721,0,0,0-.935-1.012,1.406,1.406,0,0,0-.716-.058,1.767,1.767,0,0,0-.961-.986,1.425,1.425,0,0,0-.7-.071,1.8,1.8,0,0,0-.961-.986A1.515,1.515,0,0,0,335.205,228.949Z" transform="translate(-264.598 -169.937)" fill="#fff" opacity="0.2"/><path d="M304.931,207.176a17.458,17.458,0,1,0,2.8,31.435,2.875,2.875,0,0,1,2.695-.142.781.781,0,0,0,.129.058c1.979.729,5.158-2.888,7.047-8.084s1.857-9.993-.122-10.721l-.135-.039a2.908,2.908,0,0,1-1.973-1.876A17.407,17.407,0,0,0,304.931,207.176Z" transform="translate(-248.797 -162.205)" fill="#f8951d"/><path d="M304.931,207.176a17.458,17.458,0,1,0,2.8,31.435,2.875,2.875,0,0,1,2.695-.142.781.781,0,0,0,.129.058c1.979.729,5.158-2.888,7.047-8.084s1.857-9.993-.122-10.721l-.135-.039a2.908,2.908,0,0,1-1.973-1.876A17.407,17.407,0,0,0,304.931,207.176Z" transform="translate(-248.797 -162.205)" fill="#fff" opacity="0.7"/><path d="M311.631,239.994a.216.216,0,0,1-.2-.284l1.09-2.953-1.857-1.747a.213.213,0,0,1-.058-.213.219.219,0,0,1,.174-.148l4.113-.6-2.746-3.12a.213.213,0,0,1-.032-.219.206.206,0,0,1,.174-.129l4.564-.432-3.223-3.288a.2.2,0,0,1-.045-.219.219.219,0,0,1,.187-.135l2.54-.122,1.09-2.953a.206.206,0,0,1,.213-.142.213.213,0,0,1,.187.174c.87,4.88,8.336,8.955,8.413,8.993a.209.209,0,1,1-.2.367c-.3-.161-7.059-3.868-8.465-8.6l-.89,2.43a.213.213,0,0,1-.187.142l-2.218.11,3.178,3.269a.2.2,0,0,1,.045.213.219.219,0,0,1-.174.142l-4.6.426,2.727,3.107a.2.2,0,0,1,.039.213.213.213,0,0,1-.161.135l-4.068.593,1.638,1.541a.213.213,0,0,1,.052.226l-.961,2.617c1.567-.645,6.86-2.579,11.927-.722a.219.219,0,0,1,.122.271.206.206,0,0,1-.271.122c-5.8-2.147-11.991.877-12.056.909a.238.238,0,0,1-.064.026Z" transform="translate(-259.159 -168.313)" fill="#263238"/><path d="M322.5,184.22c.748.561,1.347,1.044,1.986,1.6s1.244,1.09,1.844,1.65a44.478,44.478,0,0,1,3.436,3.61,34.01,34.01,0,0,1,3.03,4.126A21.643,21.643,0,0,1,335.1,200.1c.129.458.271.909.367,1.393a8.939,8.939,0,0,1,.226,1.663,13.009,13.009,0,0,1-.238,2.9,31.129,31.129,0,0,1-1.341,4.874,56.263,56.263,0,0,1-4.01,8.749l-3.049-1.289c.761-2.933,1.528-5.938,2.108-8.839a35.016,35.016,0,0,0,.619-4.2,8.877,8.877,0,0,0-.032-1.741,3.017,3.017,0,0,0-.161-.645,8.606,8.606,0,0,0-.29-.838,23.789,23.789,0,0,0-4.513-6.66c-.954-1.064-1.992-2.076-3.049-3.075-.529-.5-1.07-.986-1.618-1.463s-1.135-.967-1.618-1.354Z" transform="translate(-261.967 -154.432)" fill="#ce7a63"/><path d="M315.387,190.277a83.312,83.312,0,0,0,6.009,7.659c.471.548.9,1.038,1.251,1.431.645.69,1,1.1,1,1.1l7.35-7.092s-.206-.335-.567-.89c-.271-.419-.645-.973-1.051-1.6-2.508-3.707-7.42-10.225-10.412-9.9C314.5,181.535,312.26,185.584,315.387,190.277Z" transform="translate(-260.343 -153.281)" fill="#f8951d"/><path d="M333.7,237.163l-2.25,4.339-2.933-5.345s2.682-3.475,4.365-1.934Z" transform="translate(-265.527 -172.058)" fill="#ce7a63"/><path d="M325.021,243.932l-2.211-4.526,3.681-1.966,2.933,5.338Z" transform="translate(-263.498 -173.341)" fill="#ce7a63"/></g><g transform="translate(125.264 152.019)"><path d="M201.672,281.26l28.837,4.287.232,23.338-7.188,6.744-31.113-5.764,1.393-24.885Z" transform="translate(-173.703 -202.914)" fill="#f8951d"/><path d="M230.738,308.885l-2.8,2.63-.625.58-3.765,3.533-31.119-5.764,1.4-24.885,3.346-1.586,1.032-.49,3.462-1.644,28.837,4.287Z" transform="translate(-173.699 -202.914)" opacity="0.4"/><path d="M194.6,284.98l28.425,4.584,8.252-4.016-28.837-4.287Z" transform="translate(-174.47 -202.914)" fill="#fff" opacity="0.2"/><path d="M238.69,291.926l1.3,26.065,7.188-6.744-.232-23.338Z" transform="translate(-190.136 -205.277)" fill="#fff" opacity="0.1"/><path d="M230.555,312.422l-.625.58-1.115-24.389L199.79,284.3l1.031-.49,28.631,4.481Z" transform="translate(-176.314 -203.82)" fill="#263238"/><path d="M215.12,285.655l1.8-.825,7.3.986-1.657,1Z" transform="translate(-181.761 -204.183)" fill="#263238"/><path d="M210.74,281.269s2.024-7.33,2.385-7.736,10.554,1.148,11.321,1.244,1.689,8.162,1.689,8.162l-.825.645-1.934-.348s-.348-6.827-.542-7.047a76.5,76.5,0,0,0-8.323-1.289c-.258.084-1.244,5.867-1.244,5.867l-.922.7Z" transform="translate(-180.205 -200.145)" fill="#263238"/><path d="M248.881,315.591l-2.843,1.986v-.587l-.213-4.61v-.554l-.045-.986s.374.851.928,1.857a9.1,9.1,0,0,0,2.173,2.895Z" transform="translate(-192.655 -213.424)" fill="#f8951d"/><path d="M248.17,316.116l-2.147,1.418-.213-4.61v-.554A8.718,8.718,0,0,0,248.17,316.116Z" transform="translate(-192.666 -213.968)" fill="#fff" opacity="0.2"/><path d="M246.628,312.7c-.29-.122-.587-.226-.857-.316l-.071-1.541S246.074,311.691,246.628,312.7Z" transform="translate(-192.627 -213.424)" opacity="0.2"/><path d="M251.227,308.977l-.825,3.829a8.936,8.936,0,0,0-4.68-2.237V310l-.161-3.572v-.374A12.614,12.614,0,0,1,251.227,308.977Z" transform="translate(-192.577 -211.722)" fill="#f8951d"/><path d="M249.205,296.836a14.828,14.828,0,0,1-4.01,2.843v-.432l-.039-1.135-.064-1.889-.032-.915v-.264a16.343,16.343,0,0,0,2.037-1.934Z" transform="translate(-192.399 -207.125)" fill="#f8951d"/><path d="M241.477,287.093a7.866,7.866,0,0,0-1.463,1.6l-.458-.064-.645-.1-1-.142-.961-.142-.342-.052a6.208,6.208,0,0,1,2.746-3.365Z" transform="translate(-189.397 -204.183)" fill="#f8951d"/><path d="M239.446,285.57a6.384,6.384,0,0,0-2.276,2.94l.961.142a.645.645,0,0,1-.11-.367.677.677,0,1,1,1.354,0,.645.645,0,0,1-.245.509l.645.1a9.98,9.98,0,0,1,1.289-1.625Z" transform="translate(-189.596 -204.446)" fill="#fff" opacity="0.2"/><path d="M245.52,306.63l.161,3.572a12.8,12.8,0,0,1,4.513,2.127l.741-3.082a11.675,11.675,0,0,0-5.415-2.617Zm2.895,2.521a1.141,1.141,0,1,1-.7-1.218,1.006,1.006,0,0,1,.7,1.219Z" transform="translate(-192.563 -211.928)" fill="#fff" opacity="0.2"/><path d="M246.963,294.14a7.7,7.7,0,0,1-1.883,1.534l.032.915h.045a.954.954,0,0,1,0,1.9l.039,1.135a18.142,18.142,0,0,0,3.443-2.411Z" transform="translate(-192.406 -207.491)" fill="#fff" opacity="0.2"/><path d="M208.579,202.25c3.7,2.45,4.042,18.774,4.377,23.364s3.223,17.342,3.223,17.342l-3.062,1.109s-3.378-12.185-4.552-19.128C208.134,222.255,208.579,202.25,208.579,202.25Z" transform="translate(-179.366 -174.842)" fill="#263238"/><path d="M216.187,242.963l-3.056,1.1s-3.378-12.178-4.552-19.128a7.434,7.434,0,0,1-.077-.793c-.135-1.934-.142-6.241-.1-10.515.052-5.706.181-11.379.181-11.379,2.153,1.425,3.172,7.549,3.707,13.319.2,2.153.335,4.261.438,6.054.1,1.67.168,3.069.232,3.991C213.292,230.21,216.187,242.963,216.187,242.963Z" transform="translate(-179.366 -174.842)" fill="#fff" opacity="0.2"/><path d="M212.725,227.894a27.381,27.381,0,0,1-4.223,2.521c-.135-1.934-.142-6.241-.1-10.515l1.006,2.3,2.882-.355C212.486,223.994,212.647,226.1,212.725,227.894Z" transform="translate(-179.366 -181.113)" opacity="0.2"/><path d="M223.746,224.28l4.448-2.45.845,4.8s-4.513,1.631-5.319.342Z" transform="translate(-184.817 -181.799)" fill="#ffb573"/><path d="M234.941,223.358l-.284,3.494-3.153-.219-.845-4.8Z" transform="translate(-187.283 -181.799)" fill="#ffb573"/><path d="M175.22,163.71s1.373-4.545,8.549-3.913,9.026,7.092,7.092,12.211a12.1,12.1,0,0,0,.174,9.258,2.92,2.92,0,0,1-1.618-1.934,4.7,4.7,0,0,0,.426,2.579s-9.425,1.87-14.183.471a5.389,5.389,0,0,0,.909-3.662s-.239,2.108-1.09,2.817a8.625,8.625,0,0,0,.425-4.216c-.471-1.741-3.314-1.934-3.823-6.544S173.286,163.239,175.22,163.71Z" transform="translate(-166.437 -159.737)" fill="#263238"/><path d="M198.426,247.376s3.359,26.11,3.069,42.692c1.16,15.544,2.134,48.185,3.907,51.711-.064.793-2.334,1.148-3.082.645,0,0-12.127-27.135-10.56-52.382-10.683-26.336-10.044-42.692-10.044-42.692Z" transform="translate(-169.89 -190.866)" fill="#ffb573"/><path d="M187.368,247.39s-7.633,29.469-10.657,43.942c-3.178,15.2-6.447,33.524-6.479,50.834-.851.5-1.141,1.393-2.862.864,0,0-8.091-34.762-1.238-51.028-3.011-36,6.511-44.613,6.511-44.613Z" transform="translate(-163.377 -190.88)" fill="#ffb573"/><path d="M165.425,286.5a6.53,6.53,0,0,0,1.773,1.38,10.51,10.51,0,0,1,1.051-4.893,16.208,16.208,0,0,0,.516,5.66c5.093,2.153,14.912,3.578,27.187.567,0-14.4-2.85-38.643-3.043-41.009,0,0-14.564.387-20.476.387C165.96,256.314,164.226,281.077,165.425,286.5Z" transform="translate(-163.979 -191.172)" fill="#263238"/><path d="M168.443,395.74s-1.812.49-2.011,3.172a93.189,93.189,0,0,0,.561,10.057h.677s-.193-6.685.071-7.891c.213,3.494,2.714,7.891,6.021,7.891,1.18,0-1.38-5.338-1.8-8.587s-.542-4.384-.542-4.384Z" transform="translate(-164.45 -243.59)" fill="#263238"/><path d="M172.478,392.47l-2.908,2.108c.155,3.617,1.438,8.246,3.133,9.748a.69.69,0,0,0,1.09-.683,54.8,54.8,0,0,1-1.315-11.172Z" transform="translate(-165.577 -242.428)" fill="#ffb573"/><path d="M213.448,395.74s-1.812.49-2,3.172A94.936,94.936,0,0,0,212,408.969h.645a78.86,78.86,0,0,1,.071-7.891c.206,3.494,2.708,7.891,6.021,7.891,1.173,0-1.386-5.338-1.8-8.587a37.576,37.576,0,0,0-.8-4.642Z" transform="translate(-180.443 -243.59)" fill="#263238"/><path d="M216.3,391.9c-.316-.845-2.862,1.631-2.862,1.631.155,3.623,2.166,9.026,3.868,10.554a.69.69,0,0,0,1.09-.683C217.089,398.047,217.224,394.314,216.3,391.9Z" transform="translate(-181.164 -242.164)" fill="#ffb573"/><path d="M165.425,286.5a6.53,6.53,0,0,0,1.773,1.38,10.51,10.51,0,0,1,1.051-4.893,16.208,16.208,0,0,0,.516,5.66c5.093,2.153,14.912,3.578,27.187.567,0-14.4-2.85-38.643-3.043-41.009,0,0-14.564.387-20.476.387C165.96,256.314,164.226,281.077,165.425,286.5Z" transform="translate(-163.979 -191.172)" fill="#fff" opacity="0.2"/><path d="M174.115,214.434h22.352a79.292,79.292,0,0,0,.1-8.059,7.237,7.237,0,0,0-6.4-6.64c-.973-.129-1.992-.245-2.979-.329a67.243,67.243,0,0,0-9.026,0c-.857.039-1.7.1-2.482.174-2.959.284-5,2.991-3.978,5.686A44.567,44.567,0,0,1,174.115,214.434Z" transform="translate(-166.241 -173.778)" fill="#f8951d"/><path d="M174.115,214.434h22.352a79.292,79.292,0,0,0,.1-8.059,7.237,7.237,0,0,0-6.4-6.64c-.973-.129-1.992-.245-2.979-.329a67.243,67.243,0,0,0-9.026,0c-.857.039-1.7.1-2.482.174-2.959.284-5,2.991-3.978,5.686A44.567,44.567,0,0,1,174.115,214.434Z" transform="translate(-166.241 -173.778)" fill="#fff" opacity="0.7"/><path d="M177.72,198.93l9.548,11.65s1.857-6,.877-11.16c0,0,4.2-.045,6.969,1.65,0,0,4.036,6.621,0,25.324l1.173,8.923-6.776,2.044-2.224-6.479L184.6,237.7l-13.016-3.662,3.655-6.879s-1.186-15.808-4.758-23.035C170.506,204.132,171.073,198.859,177.72,198.93Z" transform="translate(-165.9 -173.662)" fill="#263238"/><path d="M195.549,208.189l-4.79,3.223.845,3.037c-3.359-5.267-9.844-6.26-9.844-6.26l2.031-2.753h-5.022c-.11-3.5,2.379-7.182,2.379-7.182l.883-.155a74.881,74.881,0,0,0,8.117,11.508s1.934-7.781-.967-11.044a11.437,11.437,0,0,1,6.8,6.021l-3.049.941Z" transform="translate(-168.844 -173.367)" fill="#263238"/><path d="M195.549,208.189l-4.79,3.223.845,3.037c-3.359-5.267-9.844-6.26-9.844-6.26l2.031-2.753h-5.022c-.11-3.5,2.379-7.182,2.379-7.182l.883-.155a74.881,74.881,0,0,0,8.117,11.508s1.934-7.781-.967-11.044a11.437,11.437,0,0,1,6.8,6.021l-3.049.941Z" transform="translate(-168.844 -173.367)" fill="#fff" opacity="0.2"/><path d="M182.691,183.7c.787,2.914,1.754,8.246-.142,10.186,0,0-1.354,2.579,6.331,2.327.645,1.6,1.966,4.513,1.966,4.513s.1-3.449-.438-4.616c4.945-.425,1.193-2.244,1.193-2.244-3.3-.774-3.4-3.185-3-5.441Z" transform="translate(-170.156 -168.251)" fill="#ffb573"/><path d="M186.524,186.7l3.5,2.8a9.1,9.1,0,0,0-.161,1.605c-1.251-.174-3.056-1.541-3.288-2.837A4.449,4.449,0,0,1,186.524,186.7Z" transform="translate(-171.584 -169.317)" opacity="0.2"/><path d="M178.919,170.517c.883,4.706,1.16,6.7,3.868,8.961,4.036,3.391,9.58,1.6,10.109-3.223.477-4.313-1.051-11.276-5.893-12.829a6.131,6.131,0,0,0-8.084,7.092Z" transform="translate(-168.847 -160.916)" fill="#ffb573"/><path d="M182.029,167.771c-2.579,3.346,2.734,7.195-2.579,6.969s-3.165-7.736,0-9.458S182.029,167.771,182.029,167.771Z" transform="translate(-167.941 -161.56)" fill="#263238"/><path d="M181.23,164.4c.645,3.223,1.186,4.042,4.036,3.172a3.346,3.346,0,0,1-.535-2.186,3.223,3.223,0,0,0,1.6,1.766,11.166,11.166,0,0,1,2.379-.729,3.068,3.068,0,0,1-.142-1.386,3.017,3.017,0,0,0,1.077,1.289,8.072,8.072,0,0,1,2.579.451C192.2,163.416,186.478,159.774,181.23,164.4Z" transform="translate(-169.72 -160.616)" fill="#263238"/><path d="M190.5,175.434c.058.4.309.7.567.683s.413-.355.355-.754-.309-.7-.561-.683S190.446,175.034,190.5,175.434Z" transform="translate(-173.011 -165.046)" fill="#263238"/><path d="M197.989,174.994c.058.4.309.7.567.683s.413-.355.355-.754-.309-.7-.561-.683S197.905,174.594,197.989,174.994Z" transform="translate(-175.668 -164.889)" fill="#263238"/><path d="M198.35,174.1l.9-.348S198.872,174.556,198.35,174.1Z" transform="translate(-175.803 -164.716)" fill="#263238"/><path d="M196,176.57a11.72,11.72,0,0,0,1.754,2.437,1.6,1.6,0,0,1-1.347.374Z" transform="translate(-174.968 -165.718)" fill="#ed893e"/><path d="M192.251,182.735a3.746,3.746,0,0,0,.645,0,.116.116,0,0,0,.1-.129.135.135,0,0,0-.135-.11,3.307,3.307,0,0,1-2.688-1.044.123.123,0,0,0-.168,0,.11.11,0,0,0,0,.161,3.507,3.507,0,0,0,2.25,1.122Z" transform="translate(-172.824 -167.44)" fill="#263238"/><path d="M178.105,180.092a3.307,3.307,0,0,0,2,1.747c1.1.29,1.573-.961,1.206-2.218-.329-1.128-1.289-2.637-2.36-2.36S177.557,179.015,178.105,180.092Z" transform="translate(-168.516 -165.951)" fill="#ffb573"/><path d="M188.29,171.9a.213.213,0,0,0,.168-.071,1.708,1.708,0,0,1,1.521-.58.219.219,0,0,0,.258-.187.264.264,0,0,0-.2-.277,2.166,2.166,0,0,0-1.934.716.245.245,0,0,0,0,.335A.226.226,0,0,0,188.29,171.9Z" transform="translate(-172.139 -163.655)" fill="#263238"/><path d="M198.526,171.169a.219.219,0,0,0,.161-.058.232.232,0,0,0,0-.322,2.456,2.456,0,0,0-1.992-.89.219.219,0,0,0-.187.258.258.258,0,0,0,.271.206,1.979,1.979,0,0,1,1.573.716A.258.258,0,0,0,198.526,171.169Z" transform="translate(-175.147 -163.347)" fill="#263238"/><path d="M190.9,174.538l.9-.348S191.422,174.97,190.9,174.538Z" transform="translate(-173.156 -164.872)" fill="#263238"/><path d="M219.767,273.73l.793-1.257a1.734,1.734,0,0,0,.135-1.579l-.993-2.418a3.223,3.223,0,0,0-2.256-1.934l-.645-.142a10.945,10.945,0,0,0-1.554,5.228l-.129.915a1.444,1.444,0,0,0,1.186,1.67l1.818.277a1.657,1.657,0,0,0,1.644-.761Z" transform="translate(-181.753 -197.635)" fill="#ffb573"/><path d="M196.563,248.441a93.951,93.951,0,0,1-20.5-.039.458.458,0,0,1-.355-.645c.168-.38.329-.767.5-1.148a.432.432,0,0,1,.438-.271,91.612,91.612,0,0,0,19.715,0,.445.445,0,0,1,.477.406c.039.393.077.793.122,1.193A.451.451,0,0,1,196.563,248.441Z" transform="translate(-167.743 -190.506)" fill="#263238"/><path d="M193,197.68a4.541,4.541,0,0,1,1.154,3.417l3.359.709A4.893,4.893,0,0,0,193,197.68Z" transform="translate(-173.902 -173.218)" fill="#f8951d"/><path d="M188.255,200.911s-4.513-2.579-5.493-3.991l-2,1.5s-.645,2.347,2.082,4.448Z" transform="translate(-169.531 -172.948)" fill="#f8951d"/><path d="M193,197.68a4.541,4.541,0,0,1,1.154,3.417l3.359.709A4.893,4.893,0,0,0,193,197.68Z" transform="translate(-173.902 -173.218)" fill="#fff" opacity="0.6"/><path d="M188.255,200.911s-4.513-2.579-5.493-3.991l-2,1.5s-.645,2.347,2.082,4.448Z" transform="translate(-169.531 -172.948)" fill="#fff" opacity="0.6"/><path d="M204.693,221.231a79.845,79.845,0,0,1-9.355,1.6c-1.663.187-3.34.3-5.054.342a26.7,26.7,0,0,1-5.364-.361,10.192,10.192,0,0,1-3.1-1.064l-.419-.264-.277-.187-.554-.374c-.374-.251-.748-.5-1.1-.78a30.629,30.629,0,0,1-3.965-3.572,36.1,36.1,0,0,1-3.32-4.158c-.49-.741-.961-1.5-1.393-2.282-.226-.387-.425-.793-.645-1.193l-.29-.645c-.1-.226-.187-.406-.3-.716-.645-1.541-.161-4.087,1.38-4.706s3.436.864,4.12,2.276l.09.187.187.406.245.471c.161.316.329.645.509.954.348.645.748,1.289,1.148,1.889a30.3,30.3,0,0,0,2.65,3.559A29.955,29.955,0,0,0,183,215.764c.264.251.548.477.838.709l.735.612a5.37,5.37,0,0,0,1.47.593,25.591,25.591,0,0,0,4.345.645c1.534.11,3.12.135,4.7.155a93.069,93.069,0,0,0,9.387-.915Z" transform="translate(-165.474 -175.011)" fill="#263238"/><path d="M204.693,221.231a79.845,79.845,0,0,1-9.355,1.6c-1.663.187-3.34.3-5.054.342a26.7,26.7,0,0,1-5.364-.361,10.192,10.192,0,0,1-3.1-1.064l-.419-.264-.277-.187-.554-.374c-.374-.251-.748-.5-1.1-.78a30.629,30.629,0,0,1-3.965-3.572,36.1,36.1,0,0,1-3.32-4.158c-.49-.741-.961-1.5-1.393-2.282-.226-.387-.425-.793-.645-1.193l-.29-.645c-.1-.226-.187-.406-.3-.716-.645-1.541-.161-4.087,1.38-4.706s3.436.864,4.12,2.276l.09.187.187.406.245.471c.161.316.329.645.509.954.348.645.748,1.289,1.148,1.889a30.3,30.3,0,0,0,2.65,3.559A29.955,29.955,0,0,0,183,215.764c.264.251.548.477.838.709l.735.612a5.37,5.37,0,0,0,1.47.593,25.591,25.591,0,0,0,4.345.645c1.534.11,3.12.135,4.7.155a93.069,93.069,0,0,0,9.387-.915Z" transform="translate(-165.474 -175.011)" fill="#fff" opacity="0.2"/><path d="M221.19,224.924l.355,4.693,1.947-.367-.29-4.39Z" transform="translate(-183.918 -182.875)" fill="#f8951d"/><path d="M221.19,224.924l.355,4.693,1.947-.367-.29-4.39Z" transform="translate(-183.918 -182.875)" fill="#fff" opacity="0.7"/><path d="M219.037,264.87l-4.6,1.012.638,1.876,4.307-.909Z" transform="translate(-181.52 -197.091)" fill="#f8951d"/><path d="M219.037,264.87l-4.6,1.012.638,1.876,4.307-.909Z" transform="translate(-181.52 -197.091)" fill="#fff" opacity="0.7"/></g></g></svg>