<svg xmlns="http://www.w3.org/2000/svg" width="250" height="255.681" viewBox="0 0 250 255.681">
  <g id="global-expansion" transform="translate(-37.63 -50.327)">
    <g id="freepik--Floor--inject-7" transform="translate(37.63 296.644)">
      <path id="Path_37153" data-name="Path 37153" d="M287.63,468.969c0,.082-55.969.153-124.994.153s-125.006-.071-125.006-.153,55.958-.159,125.006-.159S287.63,468.881,287.63,468.969Z" transform="translate(-37.63 -468.81)" fill="#263238"/>
    </g>
    <g id="freepik--Characters--inject-7" transform="translate(81.38 66.608)">
      <path id="Path_37154" data-name="Path 37154" d="M144.623,437l.477,14.644,3.72,11.478a1.5,1.5,0,0,1-1.059,1.919h0a1.5,1.5,0,0,1-1.342-.312c-2.354-2.019-10.966-9.482-10.942-10.553,0-1.248-1.536-15.421-1.536-15.421Z" transform="translate(-121.003 -225.687)" fill="#f8951d"/>
      <path id="Path_37155" data-name="Path 37155" d="M148.781,476.324,136.42,464.47l.035.589a2.26,2.26,0,0,0,.618,1.436c.989,1.036,3.785,3.849,10.306,9.488a1.5,1.5,0,0,0,1.383.312Z" transform="translate(-122.023 -236.988)" fill="#e0e0e0"/>
      <path id="Path_37156" data-name="Path 37156" d="M140.2,456.088a.906.906,0,0,1,.312,1.177.865.865,0,0,1-1.177.324.954.954,0,0,1-.33-1.242.906.906,0,0,1,1.242-.2" transform="translate(-123.042 -233.497)" fill="#fff"/>
      <path id="Path_37157" data-name="Path 37157" d="M151.118,472.812c.082.035.371-.753,1.218-1.213a4.62,4.62,0,0,1,1.666-.418c0-.035-.177-.135-.524-.165a2.319,2.319,0,0,0-1.3.3,2.355,2.355,0,0,0-.93.954C151.088,472.582,151.082,472.8,151.118,472.812Z" transform="translate(-128.062 -239.679)" fill="#263238"/>
      <path id="Path_37158" data-name="Path 37158" d="M153.086,476.478a10.99,10.99,0,0,1,1.26-.706,11.708,11.708,0,0,1,1.419-.259,1.642,1.642,0,0,0-1.53-.041A1.728,1.728,0,0,0,153.086,476.478Z" transform="translate(-128.877 -241.444)" fill="#263238"/>
      <path id="Path_37159" data-name="Path 37159" d="M147.59,468.685a15.788,15.788,0,0,1,1.878-1.213,15.073,15.073,0,0,1,2.142-.63A4.12,4.12,0,0,0,147.59,468.685Z" transform="translate(-126.618 -237.948)" fill="#263238"/>
      <path id="Path_37160" data-name="Path 37160" d="M146.71,461.894c.047.082.836-.3,1.883-.394s1.9.106,1.925,0a2.9,2.9,0,0,0-1.954-.341,2.943,2.943,0,0,0-1.854.736Z" transform="translate(-126.256 -235.607)" fill="#263238"/>
      <path id="Path_37161" data-name="Path 37161" d="M146.288,454.592a7.359,7.359,0,0,1,1.948-.465,7.153,7.153,0,0,1,1.966.383c0-.035-.147-.206-.494-.383a3.2,3.2,0,0,0-1.477-.318,3.255,3.255,0,0,0-1.466.377C146.43,454.38,146.265,454.563,146.288,454.592Z" transform="translate(-126.082 -232.602)" fill="#263238"/>
      <path id="Path_37162" data-name="Path 37162" d="M147.967,451.025a1.289,1.289,0,0,0,0-.589,3.92,3.92,0,0,0-.518-1.424,1.766,1.766,0,0,0-.777-.771.589.589,0,0,0-.671.171.954.954,0,0,0-.194.677,2.119,2.119,0,0,0,1.966,1.854,2.46,2.46,0,0,0,2.354-1.419.859.859,0,0,0,0-.712.589.589,0,0,0-.636-.277,2.078,2.078,0,0,0-.936.553,4.262,4.262,0,0,0-.936,1.177,1.3,1.3,0,0,0-.194.518,6.9,6.9,0,0,1,1.277-1.536,2.007,2.007,0,0,1,.83-.465.318.318,0,0,1,.347.153.589.589,0,0,1-.029.465,2.207,2.207,0,0,1-2.048,1.213,1.848,1.848,0,0,1-1.689-1.554.689.689,0,0,1,.118-.477.318.318,0,0,1,.365-.1,1.536,1.536,0,0,1,.671.642A5.715,5.715,0,0,1,147.967,451.025Z" transform="translate(-125.883 -230.294)" fill="#263238"/>
      <path id="Path_37163" data-name="Path 37163" d="M192.763,440.384,192,451.338s10.883,4.45,10.936,6.475l-21.29-.706.483-17.116Z" transform="translate(-140.631 -226.917)" fill="#f8951d"/>
      <path id="Path_37164" data-name="Path 37164" d="M187.646,457.33a.877.877,0,0,0-.653.983.842.842,0,0,0,.959.642.918.918,0,0,0,.665-1.036.865.865,0,0,0-1.065-.553" transform="translate(-142.825 -234.05)" fill="#e0e0e0"/>
      <path id="Path_37165" data-name="Path 37165" d="M181.65,467.885l.118-1.725,20.371,1.324s.93.447.8,1.107Z" transform="translate(-140.631 -237.683)" fill="#e0e0e0"/>
      <path id="Path_37166" data-name="Path 37166" d="M198.457,459.041c0,.1-.53.13-1.054.447s-.806.747-.9.7.077-.636.718-1.012A1.247,1.247,0,0,1,198.457,459.041Z" transform="translate(-146.732 -234.714)" fill="#263238"/>
      <path id="Path_37167" data-name="Path 37167" d="M202.557,460.767c0,.1-.436.265-.806.695s-.483.889-.589.877-.147-.589.318-1.118S202.557,460.667,202.557,460.767Z" transform="translate(-148.63 -235.446)" fill="#263238"/>
      <path id="Path_37168" data-name="Path 37168" d="M205.5,464.174c-.094,0-.224-.5.065-1.065s.777-.771.818-.683-.265.383-.494.848S205.608,464.169,205.5,464.174Z" transform="translate(-150.397 -236.139)" fill="#263238"/>
      <path id="Path_37169" data-name="Path 37169" d="M198.11,454.546c-.047.094-.518-.065-1.107-.041s-1.054.188-1.107.094.4-.447,1.095-.459S198.163,454.469,198.11,454.546Z" transform="translate(-146.49 -232.738)" fill="#263238"/>
      <path id="Path_37170" data-name="Path 37170" d="M197.608,449.811a1.937,1.937,0,0,1-1.089-.041,4.645,4.645,0,0,1-1.107-.377,4.906,4.906,0,0,1-.589-.347,1.179,1.179,0,0,1-.312-.259.447.447,0,0,1-.029-.553.589.589,0,0,1,.465-.224,1.491,1.491,0,0,1,.394.065,4.122,4.122,0,0,1,.659.253,3.714,3.714,0,0,1,.959.677c.477.477.636.865.589.889s-.283-.3-.771-.695a4.061,4.061,0,0,0-.93-.589,3.867,3.867,0,0,0-.589-.206c-.224-.071-.418-.076-.477,0s-.029.053,0,.118a1.176,1.176,0,0,0,.23.194,6.328,6.328,0,0,0,.553.335,5.61,5.61,0,0,0,1.018.43,8.52,8.52,0,0,1,1.024.33Z" transform="translate(-145.876 -230.216)" fill="#263238"/>
      <path id="Path_37171" data-name="Path 37171" d="M199.434,448.975a1.766,1.766,0,0,1-.247-1.042,3.6,3.6,0,0,1,.477-1.8.877.877,0,0,1,.7-.512.5.5,0,0,1,.436.312,1.36,1.36,0,0,1,.094.394,2.243,2.243,0,0,1,0,.718,2.4,2.4,0,0,1-.489,1.083c-.436.542-.871.653-.883.589s.335-.241.677-.759a2.513,2.513,0,0,0,.371-.989,2.414,2.414,0,0,0,0-.618c-.029-.23-.106-.412-.194-.394a.739.739,0,0,0-.383.341,3.379,3.379,0,0,0-.283.589,3.756,3.756,0,0,0-.241,1.059C199.393,448.569,199.493,448.963,199.434,448.975Z" transform="translate(-147.843 -229.233)" fill="#263238"/>
      <path id="Path_37172" data-name="Path 37172" d="M126.17,254.214l3.143,117.743,16.8-.5,4-121.257Z" transform="translate(-117.806 -148.836)" fill="#263238"/>
      <path id="Path_37173" data-name="Path 37173" d="M173.352,249.86s12.466,49.913,12.849,58.424-2.666,61.732-2.666,61.732H167.089l1.377-60.625L156,258.147l3.02-8.023Z" transform="translate(-130.078 -148.696)" fill="#263238"/>
      <path id="Path_37174" data-name="Path 37174" d="M165.982,260.27a.722.722,0,0,1,0,.165v.465c0,.436-.035,1.03-.065,1.8-.071,1.577-.177,3.826-.3,6.592-.288,5.586-.683,13.267-1.118,21.778s-.895,16.157-1.177,21.743c-.165,2.766-.306,5.009-.4,6.592-.053.759-.094,1.36-.124,1.766a4,4,0,0,1-.041.465.672.672,0,0,1,0,.159.648.648,0,0,1,0-.159v-.465c0-.436.041-1.036.071-1.8.071-1.577.177-3.826.3-6.592.288-5.586.683-13.267,1.112-21.778s.895-16.157,1.207-21.743c.165-2.766.3-5.009.4-6.586.053-.759.094-1.36.124-1.8a4.123,4.123,0,0,1,.041-.465A.424.424,0,0,1,165.982,260.27Z" transform="translate(-132.856 -152.979)" fill="#455a64"/>
      <path id="Path_37175" data-name="Path 37175" d="M151.4,140.042s6.1,30.277,6.192,38.806,3.084,25.2,3.084,25.2h-26.4l-.589-46.128L131.8,144.162l3.967-5.662Z" transform="translate(-120.122 -102.882)" fill="#f5f5f5"/>
      <path id="Path_37176" data-name="Path 37176" d="M165.65,142.63s6.3,1.854,7.97,4.185c1.313,1.842,3.09,36.664,3.09,36.664l2.684,30.678-2.643-.247-3.732-11.483Z" transform="translate(-134.048 -104.581)" fill="#f8951d"/>
      <path id="Path_37177" data-name="Path 37177" d="M179.19,149.74l17.8,16.334,21.9-7.1,4.367,9.2L199.885,178.77c-3.337,1.424-5.433.642-7.752-1.218l-12.26-9.818Z" transform="translate(-139.619 -107.507)" fill="#f8951d"/>
      <path id="Path_37178" data-name="Path 37178" d="M239.086,170.235a.489.489,0,0,1-.2.653.477.477,0,0,1-.647-.2.471.471,0,0,1,.194-.647A.489.489,0,0,1,239.086,170.235Z" transform="translate(-163.887 -115.835)" fill="#263238"/>
      <path id="Path_37179" data-name="Path 37179" d="M238.653,170.964a.407.407,0,0,1-.147,0,.494.494,0,0,1-.294-.241.518.518,0,0,1-.035-.377.506.506,0,0,1,.618-.33.5.5,0,0,1,.294.241.494.494,0,0,1,.035.377.483.483,0,0,1-.241.294.459.459,0,0,1-.23.035Zm0-.959a.494.494,0,0,0-.218.053.477.477,0,0,0-.224.277.464.464,0,0,0,.665.542.447.447,0,0,0,.224-.271.477.477,0,0,0-.035-.359.465.465,0,0,0-.412-.247Z" transform="translate(-163.877 -115.841)" fill="#263238"/>
      <path id="Path_37180" data-name="Path 37180" d="M242.206,169.492a.489.489,0,0,1-.2.653.477.477,0,0,1-.647-.2.471.471,0,0,1,.194-.647.477.477,0,0,1,.653.194Z" transform="translate(-165.17 -115.528)" fill="#263238"/>
      <path id="Path_37181" data-name="Path 37181" d="M241.772,170.223a.407.407,0,0,1-.147,0,.494.494,0,0,1-.294-.241.5.5,0,0,1,.877-.465.5.5,0,0,1,.035.377.5.5,0,0,1-.241.294A.53.53,0,0,1,241.772,170.223Zm0-.965a.506.506,0,0,0-.218.059.465.465,0,0,0-.188.63.441.441,0,0,0,.277.224.465.465,0,1,0,.265-.889.5.5,0,0,0-.141-.024Z" transform="translate(-165.16 -115.535)" fill="#263238"/>
      <path id="Path_37182" data-name="Path 37182" d="M245.168,168.892a.477.477,0,0,1-.194.653.489.489,0,0,1-.653-.2.477.477,0,0,1,.2-.647.471.471,0,0,1,.647.194Z" transform="translate(-166.391 -115.282)" fill="#263238"/>
      <path id="Path_37183" data-name="Path 37183" d="M244.747,169.629a.406.406,0,0,1-.147,0,.494.494,0,0,1-.33-.589.471.471,0,0,1,.241-.288.494.494,0,0,1,.671.2h0a.5.5,0,0,1-.206.671A.53.53,0,0,1,244.747,169.629Zm0-.959a.5.5,0,0,0-.218.053.465.465,0,0,0-.188.63.441.441,0,0,0,.271.224.477.477,0,0,0,.359-.035.465.465,0,0,0,.188-.63h0a.465.465,0,0,0-.418-.241Z" transform="translate(-166.387 -115.294)" fill="#263238"/>
      <path id="Path_37184" data-name="Path 37184" d="M247.01,165.778l1.7-.618,3.891,8.193-1.654.706Z" transform="translate(-167.52 -113.85)" fill="#e0e0e0"/>
      <path id="Path_37185" data-name="Path 37185" d="M180.137,160.71a5.3,5.3,0,0,1,.1.912c.065.647.153,1.483.259,2.5.241,2.16.589,5.038.93,8.24s.642,6.127.771,8.24c.071,1.059.1,1.919.106,2.513a4.455,4.455,0,0,1-.029.918,5.4,5.4,0,0,1-.088-.912c-.041-.589-.106-1.448-.206-2.5-.188-2.107-.5-5.021-.859-8.24s-.665-6.121-.842-8.24c-.088-1.059-.135-1.919-.159-2.513a4.614,4.614,0,0,1,.018-.912Z" transform="translate(-139.995 -112.02)" fill="#263238"/>
      <path id="Path_37186" data-name="Path 37186" d="M185.005,167.65a34.236,34.236,0,0,1-1.118,4.391,34.52,34.52,0,0,1-1.407,4.3,33.55,33.55,0,0,1,1.112-4.391,33.549,33.549,0,0,1,1.413-4.3Z" transform="translate(-140.972 -114.875)" fill="#263238"/>
      <path id="Path_37187" data-name="Path 37187" d="M208.644,182.931a1.86,1.86,0,0,1-.394-.777,5.633,5.633,0,0,1,.259-4.12,1.96,1.96,0,0,1,.489-.724,7.746,7.746,0,0,0-.353,5.621Z" transform="translate(-151.462 -118.849)" fill="#263238"/>
      <path id="Path_37188" data-name="Path 37188" d="M205.074,219.01l2.278.177-.9,9.5-2.2-.247Z" transform="translate(-149.928 -136.005)" fill="#e0e0e0"/>
      <path id="Path_37189" data-name="Path 37189" d="M127.6,139.62l-12.284,7.834a7.97,7.97,0,0,0-2.943,9.047l9.418,29.6L118.4,213l26.922-1.142-.659-11.772-2.284-21.1a41.79,41.79,0,0,0-2.89-11.383Z" transform="translate(-111.96 -103.343)" fill="#f8951d"/>
      <path id="Path_37190" data-name="Path 37190" d="M116.147,163.416l12.284,25.71a7.6,7.6,0,0,0,5.109,4.12l34.091,8.076.871-9.924-26.022-9.765-13.09-25.121a7.475,7.475,0,0,0-10.489-2.943h0A7.469,7.469,0,0,0,116.147,163.416Z" transform="translate(-113.333 -108.64)" fill="#f8951d"/>
      <path id="Path_37191" data-name="Path 37191" d="M170.782,191.759a.46.46,0,0,1-.141-.035l-.4-.135-1.542-.553-5.709-2.1-19.241-7.193H143.7v-.059l-2.266-4.485c-2.131-4.155-4.256-8.07-6.245-11.6-.995-1.766-1.954-3.432-2.861-4.985l-1.318-2.248c-.212-.365-.424-.712-.647-1.036a8.688,8.688,0,0,0-.695-.93,8.181,8.181,0,0,0-3.273-2.354,7.387,7.387,0,0,0-3.019-.542,5.35,5.35,0,0,0-2.531.677.7.7,0,0,1,.141-.1,2.584,2.584,0,0,1,.453-.253,5.392,5.392,0,0,1,1.931-.441,7.475,7.475,0,0,1,3.084.494,8.37,8.37,0,0,1,3.379,2.4,8.824,8.824,0,0,1,.718.942c.235.336.453.683.659,1.048l1.336,2.237q1.377,2.354,2.89,4.98c2,3.532,4.12,7.434,6.274,11.6.783,1.536,1.548,3.049,2.26,4.5l-.082-.077,19.206,7.287,5.674,2.184,1.524.589.394.159Z" transform="translate(-115.613 -109.001)" fill="#263238"/>
      <path id="Path_37192" data-name="Path 37192" d="M195.175,228.763a.483.483,0,1,1-.483-.483.483.483,0,0,1,.483.483Z" transform="translate(-145.798 -139.818)" fill="#263238"/>
      <path id="Path_37193" data-name="Path 37193" d="M194.654,229.249a.494.494,0,1,1,.494-.494.494.494,0,0,1-.494.494Zm0-.959a.465.465,0,1,0,.465.465A.465.465,0,0,0,194.654,228.289Z" transform="translate(-145.777 -139.81)" fill="#263238"/>
      <path id="Path_37194" data-name="Path 37194" d="M198.325,229.583a.483.483,0,1,1-.483-.483.483.483,0,0,1,.483.483Z" transform="translate(-147.094 -140.156)" fill="#263238"/>
      <path id="Path_37195" data-name="Path 37195" d="M197.784,230.069a.494.494,0,1,1,.494-.494A.5.5,0,0,1,197.784,230.069Zm0-.959a.465.465,0,1,0,.465.465.465.465,0,0,0-.465-.465Z" transform="translate(-147.065 -140.147)" fill="#263238"/>
      <circle id="Ellipse_3265" data-name="Ellipse 3265" cx="0.483" cy="0.483" r="0.483" transform="translate(51.944 89.456)" fill="#263238"/>
      <path id="Path_37196" data-name="Path 37196" d="M200.654,230.939a.494.494,0,1,1,.494-.494A.5.5,0,0,1,200.654,230.939Zm0-.959a.465.465,0,1,0,.465.465A.465.465,0,0,0,200.654,229.979Z" transform="translate(-148.246 -140.505)" fill="#263238"/>
      <path id="Path_37197" data-name="Path 37197" d="M169.895,212.383a.512.512,0,0,1-.165,0l-.477-.106-1.836-.441-6.745-1.66c-5.692-1.395-13.538-3.373-22.261-5.392-1.089-.259-2.166-.465-3.231-.753a7.2,7.2,0,0,1-2.914-1.454,8.54,8.54,0,0,1-1.766-2.59l-1.283-2.684-4.432-9.317-2.943-6.286c-.33-.73-.589-1.3-.783-1.713l-.2-.453a.834.834,0,0,1-.059-.153,1.421,1.421,0,0,1,.088.141c.053.094.13.259.224.436l.842,1.7c.724,1.5,1.766,3.62,3.037,6.239s2.784,5.792,4.467,9.282c.418.871.853,1.766,1.289,2.678a8.458,8.458,0,0,0,1.725,2.5,6.863,6.863,0,0,0,2.8,1.383c1.042.283,2.131.489,3.22.747,8.717,2.025,16.563,4.032,22.243,5.48,2.819.742,5.109,1.336,6.722,1.766l1.819.5.471.135Z" transform="translate(-115.597 -119.701)" fill="#263238"/>
      <path id="Path_37198" data-name="Path 37198" d="M148.741,232.72a3.531,3.531,0,0,1-.406.341c-.277.206-.671.489-1.177.83a19.141,19.141,0,0,1-4.238,2.2,9.753,9.753,0,0,1-4.744.477,6.426,6.426,0,0,1-1.4-.406,1.412,1.412,0,0,1-.465-.253,15.356,15.356,0,0,0,1.9.441,10.3,10.3,0,0,0,4.615-.547,23.007,23.007,0,0,0,4.22-2.1,14.25,14.25,0,0,1,1.7-.989Z" transform="translate(-121.978 -141.645)" fill="#263238"/>
      <path id="Path_37199" data-name="Path 37199" d="M150.058,238.52a.865.865,0,0,1,.082.218,5.476,5.476,0,0,1,.159.659,7.4,7.4,0,0,1,0,2.5,7.7,7.7,0,0,1-1.53,3.367,7.552,7.552,0,0,1-8.311,2.354,7.652,7.652,0,0,1-3.055-2.09,7.381,7.381,0,0,1-1.318-2.125,6.207,6.207,0,0,1-.206-.647c-.035-.147-.053-.23-.041-.23a8.947,8.947,0,0,0,1.725,2.855,7.592,7.592,0,0,0,2.99,1.966,7.357,7.357,0,0,0,7.993-2.231,7.593,7.593,0,0,0,1.536-3.231A8.958,8.958,0,0,0,150.058,238.52Z" transform="translate(-121.782 -144.031)" fill="#263238"/>
      <path id="Path_37200" data-name="Path 37200" d="M140.786,92.359l.077,21.931a6.522,6.522,0,0,0,6.869,6.475h0a6.533,6.533,0,0,0,6.18-6.516v-3.2s5.58-.542,5.962-6.068c.188-2.672.118-8.205,0-13.214A10.312,10.312,0,0,0,150.144,81.7h-.536C143.852,81.676,140.615,86.585,140.786,92.359Z" transform="translate(-123.816 -79.515)" fill="#b78876"/>
      <path id="Path_37201" data-name="Path 37201" d="M158.153,129.69a12.9,12.9,0,0,1-7.093-2.46s1.477,4.079,7.022,3.891Z" transform="translate(-128.046 -98.246)" fill="#aa6550"/>
      <path id="Path_37202" data-name="Path 37202" d="M169.793,103.779a.8.8,0,0,1-.812.753.753.753,0,0,1-.771-.759.8.8,0,0,1,.806-.753.759.759,0,0,1,.777.759Z" transform="translate(-135.101 -88.286)" fill="#263238"/>
      <path id="Path_37203" data-name="Path 37203" d="M168.972,102.075c-.1.1-.677-.377-1.524-.424s-1.5.341-1.583.235.065-.23.347-.412a2.2,2.2,0,0,1,1.277-.318,2.06,2.06,0,0,1,1.207.471C168.948,101.84,169.025,102.034,168.972,102.075Z" transform="translate(-134.127 -87.518)" fill="#263238"/>
      <path id="Path_37204" data-name="Path 37204" d="M155.757,103.669a.789.789,0,0,1-.806.753.753.753,0,0,1-.771-.759.789.789,0,0,1,.806-.753.753.753,0,0,1,.771.759Z" transform="translate(-129.329 -88.24)" fill="#263238"/>
      <path id="Path_37205" data-name="Path 37205" d="M154.6,101.754c-.106.094-.677-.383-1.53-.43s-1.5.347-1.583.235.071-.23.353-.412a2.131,2.131,0,0,1,1.271-.312,2.1,2.1,0,0,1,1.212.465C154.567,101.519,154.644,101.707,154.6,101.754Z" transform="translate(-128.21 -87.385)" fill="#263238"/>
      <path id="Path_37206" data-name="Path 37206" d="M161.36,108.784a5.651,5.651,0,0,1,1.395-.171c.218,0,.43-.041.471-.188a1.112,1.112,0,0,0-.106-.647c-.177-.542-.359-1.1-.547-1.7a24.511,24.511,0,0,1-1.177-4.4,26.277,26.277,0,0,1,1.548,4.3c.177.589.353,1.177.518,1.7a1.242,1.242,0,0,1,.065.859.547.547,0,0,1-.377.294,1.419,1.419,0,0,1-.371,0,5.515,5.515,0,0,1-1.419-.047Z" transform="translate(-132.283 -87.734)" fill="#263238"/>
      <path id="Path_37207" data-name="Path 37207" d="M154.643,98.886c-.1.23-.942.071-1.942.135s-1.831.288-1.948.071c-.053-.1.1-.312.436-.518a3.208,3.208,0,0,1,1.466-.418,3.255,3.255,0,0,1,1.5.265C154.514,98.585,154.685,98.78,154.643,98.886Z" transform="translate(-127.915 -86.282)" fill="#263238"/>
      <path id="Path_37208" data-name="Path 37208" d="M168.983,98.6c-.159.182-.736-.053-1.436-.1s-1.307.053-1.436-.153c-.053-.1.053-.288.324-.459a2.1,2.1,0,0,1,2.313.206C168.983,98.31,169.077,98.51,168.983,98.6Z" transform="translate(-134.232 -86.071)" fill="#263238"/>
      <path id="Path_37209" data-name="Path 37209" d="M138.481,106.635c-.094-.047-3.738-1.342-3.832,2.449s3.726,3.1,3.738,3S138.481,106.635,138.481,106.635Z" transform="translate(-121.294 -89.67)" fill="#b78876"/>
      <path id="Path_37210" data-name="Path 37210" d="M137.93,111.466a1.783,1.783,0,0,1-.177.094.647.647,0,0,1-.494,0,1.63,1.63,0,0,1-.718-1.483,2.189,2.189,0,0,1,.206-.942.777.777,0,0,1,.512-.494.33.33,0,0,1,.383.194c.047.106,0,.182.041.188s.082-.065.059-.218a.447.447,0,0,0-.147-.241.488.488,0,0,0-.359-.106.93.93,0,0,0-.706.589,2.225,2.225,0,0,0-.253,1.048,1.707,1.707,0,0,0,.924,1.66.724.724,0,0,0,.589-.082C137.924,111.554,137.948,111.472,137.93,111.466Z" transform="translate(-121.961 -90.522)" fill="#aa6550"/>
      <path id="Path_37211" data-name="Path 37211" d="M137.353,95.671a2,2,0,0,1,1.766,1.036c.212.553.235,1.177.447,1.725a1.342,1.342,0,0,0,1.324.971,1.177,1.177,0,0,0,.842-.818,3.261,3.261,0,0,0,.077-1.218c-.118-1.766-.394-3.532-.359-5.339a9.1,9.1,0,0,1,1.436-5.074,4.98,4.98,0,0,1,4.568-2.237c1.177.165,2.213.836,3.367,1.065a4.638,4.638,0,0,0,3.914-1.059,1.337,1.337,0,0,1,.188-.135,1.018,1.018,0,0,0,.43-1.177,1,1,0,0,0-.2-.377c-2.2-2.272-6.339-3.108-9.418-2.513a11.071,11.071,0,0,0-7.575,5.386c-1.477,2.8-1.318,6.8-.753,9.747" transform="translate(-122.262 -78.953)" fill="#263238"/>
      <path id="Path_37212" data-name="Path 37212" d="M157.891,114.88c.141,0,.141.912.93,1.566s1.766.553,1.766.683-.218.182-.636.188a2.266,2.266,0,0,1-1.483-.512,2,2,0,0,1-.718-1.313C157.7,115.1,157.8,114.874,157.891,114.88Z" transform="translate(-130.792 -93.165)" fill="#263238"/>
      <path id="Path_37213" data-name="Path 37213" d="M247.81,164.883s4.15-3.643,4.932-3.914,7.034-.383,7.452-.071,6.745,3.779,5.7,4.314-5.433-1.978-5.433-1.978l-.736.1a30.5,30.5,0,0,1,4.5,2.825c.677.783.029,1.6-.683,1.26s-4-2.225-4.256-2.154,3.5,2.266,3.844,2.678c.465.542.165,1.6-.559,1.295-.424-.177-3.885-2.472-3.885-2.472a34.619,34.619,0,0,1,2.8,2.56c.306.589-.283,1.124-.889.753-.412-.253-2.2-2.007-2.749-2.354,0,0-.589-.047-1.513.918s-4.462,2.278-4.462,2.278Z" transform="translate(-167.849 -112.02)" fill="#b78876"/>
      <path id="Path_37214" data-name="Path 37214" d="M272.456,166.836a3.332,3.332,0,0,1-1.342-.082,7.817,7.817,0,0,1-1.407-.424c-.489-.235-1.024-.506-1.589-.795l-1.177-.589h.082a20.175,20.175,0,0,1-3.214-.088,18.607,18.607,0,0,1,3.208-.23h.077l1.177.589,1.536.806a9.239,9.239,0,0,0,1.336.471C271.95,166.73,272.462,166.783,272.456,166.836Z" transform="translate(-174.432 -113.631)" fill="#aa6550"/>
      <path id="Path_37215" data-name="Path 37215" d="M250.43,167.578a1.407,1.407,0,0,0,1.56.536c.589-.124,1.1-.436,1.666-.589,1.7-.489,3.59.418,5.262-.153.235-.082.494-.253.471-.494s-.283-.341-.5-.412l-5.58-1.766" transform="translate(-168.927 -113.661)" fill="#b78876"/>
      <path id="Path_37216" data-name="Path 37216" d="M253.295,164.66a2.2,2.2,0,0,1,.624.13c.394.106.959.271,1.66.477l2.449.742.706.218c.224.088.547.106.759.453a.489.489,0,0,1-.088.542,1.012,1.012,0,0,1-.4.265,3.763,3.763,0,0,1-.848.188,22.635,22.635,0,0,1-3.149-.171,4.485,4.485,0,0,0-1.313.124c-.394.106-.759.283-1.107.406a2.06,2.06,0,0,1-1.766,0c-.377-.218-.436-.489-.424-.483a1.766,1.766,0,0,0,.483.371,2.007,2.007,0,0,0,1.636-.118,11.861,11.861,0,0,1,1.118-.453,4.509,4.509,0,0,1,1.4-.165,26.346,26.346,0,0,0,3.1.147,3.862,3.862,0,0,0,.759-.171c.23-.082.388-.247.318-.353a1.177,1.177,0,0,0-.589-.288l-.706-.23-2.425-.812c-.689-.235-1.248-.43-1.63-.589A2.237,2.237,0,0,1,253.295,164.66Z" transform="translate(-168.914 -113.645)" fill="#aa6550"/>
      <path id="Path_37217" data-name="Path 37217" d="M206.155,218.923l6.881-.683s9.1,6.233,8.24,7.6-2.354,0-2.354,0,1.619,2-1,2.619c0,0-.624,1.371-1.619,1.248h-.624s-.589,1.736-1.407,1.36a29.34,29.34,0,0,1-3.379-2.613l-7.063-.624Z" transform="translate(-149.756 -135.688)" fill="#b78876"/>
      <path id="Path_37218" data-name="Path 37218" d="M213.36,231.377s-1.766.677-2.125,1.389-.589,2.354.553,2.678a10.432,10.432,0,0,0,2.007-.065l-.436-1.854a13.113,13.113,0,0,1,1.048-1.083C214.784,232.13,214.372,230.912,213.36,231.377Z" transform="translate(-152.682 -141.049)" fill="#ffbe9d"/>
      <path id="Path_37219" data-name="Path 37219" d="M216.82,232.977s-1.766.677-2.125,1.383a1.554,1.554,0,0,0,1.012,2.2,8.157,8.157,0,0,0,1.819-.059l-.188-.359c-.353-.695-.506-1.26.118-1.725a4.106,4.106,0,0,0,.412-.377.771.771,0,0,0-1.048-1.065Z" transform="translate(-154.159 -141.707)" fill="#ffbe9d"/>
      <path id="Path_37220" data-name="Path 37220" d="M218.948,237.514a1.036,1.036,0,0,1-.141-1.213,1.677,1.677,0,0,1,1.036-.753.771.771,0,0,1,.806.13.694.694,0,0,1,.112.53,2.8,2.8,0,0,1-.718,1.289c-.165.206-.365.43-.63.424s-.459-.253-.589-.477" transform="translate(-155.862 -142.783)" fill="#ffbe9d"/>
      <path id="Path_37221" data-name="Path 37221" d="M155.252,144.263l1.548-.583,1.336,2.4-.748,2.56-1.577.388-1.572-1.984Z" transform="translate(-129.354 -105.013)" fill="#f8951d"/>
      <path id="Path_37222" data-name="Path 37222" d="M156.91,152.488s2.007,11.013,3.673,18.759c0,0,1.371,6.475,1.925,7.934a21.079,21.079,0,0,0,2.525,4.12l1.936.753-1.177-10.883-7.3-21.072Z" transform="translate(-130.453 -108.477)" fill="#f8951d"/>
      <g id="Group_8797" data-name="Group 8797" transform="translate(24.886 38.667)" opacity="0.4">
        <path id="Path_37223" data-name="Path 37223" d="M155.252,144.263l1.548-.583,1.336,2.4-.748,2.56-1.577.388-1.572-1.984Z" transform="translate(-154.24 -143.68)"/>
      </g>
      <g id="Group_8798" data-name="Group 8798" transform="translate(26.457 43.623)" opacity="0.4">
        <path id="Path_37224" data-name="Path 37224" d="M156.91,152.488s2.007,11.013,3.673,18.759c0,0,1.572,6.392,1.925,7.934a25.424,25.424,0,0,0,2.525,4.12l1.936.753-1.177-10.883-7.3-21.072Z" transform="translate(-156.91 -152.1)"/>
      </g>
      <path id="Path_37225" data-name="Path 37225" d="M139.361,133.3l9.288,6.692-2.007,5.521-8.452-8.7Z" transform="translate(-122.751 -100.743)" fill="#f5f5f5"/>
      <path id="Path_37226" data-name="Path 37226" d="M158.59,139.632l2.59-5.792,1.471,4.779-2.042,5.015Z" transform="translate(-131.144 -100.965)" fill="#f5f5f5"/>
      <path id="Path_37227" data-name="Path 37227" d="M148.829,142.132a1.766,1.766,0,0,1-.106.424l-.377,1.177c-.33.983-.812,2.354-1.395,3.991l-.077.224-.165-.177-2.16-2.39c-1.683-1.866-3.2-3.567-4.273-4.809l-1.271-1.483a3.361,3.361,0,0,1-.436-.589,3.532,3.532,0,0,1,.524.494l1.342,1.413c1.124,1.177,2.66,2.884,4.338,4.75.759.848,1.483,1.66,2.154,2.4l-.241.047c.589-1.613,1.118-2.984,1.5-3.955l.453-1.124A1.542,1.542,0,0,1,148.829,142.132Z" transform="translate(-122.907 -102.882)" fill="#263238"/>
      <path id="Path_37228" data-name="Path 37228" d="M162.668,142a6.974,6.974,0,0,1-.436,1.354c-.3.818-.742,1.948-1.248,3.184l-.218.536-.153.371-.13-.377a25.6,25.6,0,0,0-1.854-3.8,3.838,3.838,0,0,1,.777.965,12.791,12.791,0,0,1,1.366,2.737h-.288c.071-.177.147-.353.218-.536.506-1.242.977-2.354,1.33-3.155A6.139,6.139,0,0,1,162.668,142Z" transform="translate(-131.16 -104.322)" fill="#263238"/>
      <path id="Path_37229" data-name="Path 37229" d="M358.961,438.07l3.579,14.209,6.074,10.424a1.5,1.5,0,0,1-.63,2.1h0a1.483,1.483,0,0,1-1.371,0c-2.731-1.472-12.737-6.94-12.949-7.993-.235-1.218-4.773-14.715-4.773-14.715Z" transform="translate(-209.434 -226.127)" fill="#f8951d"/>
      <g id="Group_8799" data-name="Group 8799" transform="translate(144 229.713)" opacity="0.6">
        <path id="Path_37230" data-name="Path 37230" d="M371.184,477.224,356.61,468.26l.165.589a2.26,2.26,0,0,0,.906,1.271c1.177.806,4.52,2.943,12.084,7.063a1.513,1.513,0,0,0,1.419,0Z" transform="translate(-356.61 -468.26)" fill="#fff"/>
      </g>
      <g id="Group_8800" data-name="Group 8800" transform="translate(144.508 224.319)" opacity="0.6">
        <path id="Path_37231" data-name="Path 37231" d="M358.6,459.133a.906.906,0,0,1,.559,1.077.871.871,0,0,1-1.065.559.954.954,0,0,1-.589-1.142.9.9,0,0,1,1.177-.459" transform="translate(-357.474 -459.095)" fill="#fff"/>
      </g>
      <path id="Path_37232" data-name="Path 37232" d="M372.966,472.934a4.538,4.538,0,0,1,.93-1.442,4.709,4.709,0,0,1,1.542-.759c0-.035-.206-.094-.547-.053a2.413,2.413,0,0,0-1.919,1.7C372.884,472.723,372.919,472.934,372.966,472.934Z" transform="translate(-219.319 -239.537)" fill="#263238"/>
      <path id="Path_37233" data-name="Path 37233" d="M375.569,476.155c.088.047.412-.542,1.083-.954a13.451,13.451,0,0,1,1.33-.559,1.666,1.666,0,0,0-1.5.288C375.722,475.414,375.487,476.137,375.569,476.155Z" transform="translate(-220.404 -241.145)" fill="#263238"/>
      <path id="Path_37234" data-name="Path 37234" d="M368.67,469.429a7.687,7.687,0,0,1,3.532-2.649,4.12,4.12,0,0,0-3.532,2.649Z" transform="translate(-217.572 -237.938)" fill="#263238"/>
      <path id="Path_37235" data-name="Path 37235" d="M366.2,463.181c.065.071.753-.471,1.766-.783s1.878-.3,1.884-.394a2.878,2.878,0,0,0-1.984.082A2.943,2.943,0,0,0,366.2,463.181Z" transform="translate(-216.555 -235.917)" fill="#263238"/>
      <path id="Path_37236" data-name="Path 37236" d="M364.237,456.171a7.061,7.061,0,0,1,1.807-.865,7.332,7.332,0,0,1,2-.053c0-.035-.188-.165-.589-.265a3.249,3.249,0,0,0-1.513,0,3.207,3.207,0,0,0-1.348.683C364.325,455.929,364.207,456.135,364.237,456.171Z" transform="translate(-215.746 -233.05)" fill="#263238"/>
      <path id="Path_37237" data-name="Path 37237" d="M365.094,452.318a1.254,1.254,0,0,0-.124-.542,3.879,3.879,0,0,0-.812-1.283,1.731,1.731,0,0,0-.924-.589.589.589,0,0,0-.618.312.948.948,0,0,0-.047.695,2.119,2.119,0,0,0,2.313,1.4,2.472,2.472,0,0,0,1.989-1.889.865.865,0,0,0-.153-.695.589.589,0,0,0-.677-.135,2.1,2.1,0,0,0-.8.742,4.268,4.268,0,0,0-.659,1.366,1.324,1.324,0,0,0-.082.547,6.793,6.793,0,0,1,.924-1.766,1.978,1.978,0,0,1,.712-.63.318.318,0,0,1,.371.077.589.589,0,0,1,.071.459,2.2,2.2,0,0,1-1.766,1.619,1.842,1.842,0,0,1-1.984-1.177.724.724,0,0,1,0-.488.324.324,0,0,1,.341-.177,1.56,1.56,0,0,1,.789.483,5.669,5.669,0,0,1,1.136,1.672Z" transform="translate(-215.043 -230.845)" fill="#263238"/>
      <path id="Path_37238" data-name="Path 37238" d="M283.517,442.3l.759,10.954s-10.877,4.45-10.936,6.475l21.289-.695-.477-17.116Z" transform="translate(-178.352 -227.711)" fill="#f8951d"/>
      <path id="Path_37239" data-name="Path 37239" d="M302.35,459.24a.871.871,0,0,1,.636.977.842.842,0,0,1-.959.647.918.918,0,0,1-.665-1.036.871.871,0,0,1,1.071-.553" transform="translate(-189.875 -234.836)" fill="#e0e0e0"/>
      <path id="Path_37240" data-name="Path 37240" d="M294.621,469.795l-.112-1.725-20.371,1.324s-.936.447-.806,1.112Z" transform="translate(-178.344 -238.469)" fill="#e0e0e0"/>
      <path id="Path_37241" data-name="Path 37241" d="M291.33,460.927c0,.1.53.135,1.048.447s.812.747.906.706-.082-.642-.718-1.018S291.306,460.844,291.33,460.927Z" transform="translate(-185.753 -235.487)" fill="#263238"/>
      <path id="Path_37242" data-name="Path 37242" d="M287.59,462.679c0,.106.436.265.8.695s.489.889.589.883.153-.589-.318-1.124S287.59,462.584,287.59,462.679Z" transform="translate(-184.215 -236.232)" fill="#263238"/>
      <path id="Path_37243" data-name="Path 37243" d="M284.96,466.095c.1,0,.224-.506-.059-1.065s-.783-.771-.824-.683.271.383.5.842S284.86,466.083,284.96,466.095Z" transform="translate(-182.768 -236.929)" fill="#263238"/>
      <path id="Path_37244" data-name="Path 37244" d="M291.507,456.462c.047.088.518-.071,1.107-.047s1.054.188,1.1.1-.4-.447-1.095-.465S291.448,456.379,291.507,456.462Z" transform="translate(-185.824 -233.523)" fill="#263238"/>
      <path id="Path_37245" data-name="Path 37245" d="M291.32,451.737a2.089,2.089,0,0,0,1.065-.041,4.833,4.833,0,0,0,1.1-.383,4.5,4.5,0,0,0,.589-.347,1.178,1.178,0,0,0,.318-.259.453.453,0,0,0,.029-.553.589.589,0,0,0-.465-.224,1.318,1.318,0,0,0-.4.071,3.579,3.579,0,0,0-.653.247,3.715,3.715,0,0,0-.959.677c-.483.477-.636.871-.589.889s.277-.3.765-.695a4.329,4.329,0,0,1,.936-.589,3.668,3.668,0,0,1,.589-.206c.224-.065.412-.077.477,0s0,.053,0,.118a1.036,1.036,0,0,1-.235.194,5.632,5.632,0,0,1-.553.341,6.553,6.553,0,0,1-1.012.43A6.4,6.4,0,0,0,291.32,451.737Z" transform="translate(-185.749 -231.006)" fill="#263238"/>
      <path id="Path_37246" data-name="Path 37246" d="M290.511,450.877a1.679,1.679,0,0,0,.247-1.036,3.532,3.532,0,0,0-.182-1.177,3.245,3.245,0,0,0-.294-.636.889.889,0,0,0-.695-.518.5.5,0,0,0-.436.312,1.39,1.39,0,0,0-.1.394,2.414,2.414,0,0,0,0,.718,2.46,2.46,0,0,0,.494,1.089c.436.536.871.647.877.589a5.69,5.69,0,0,1-.671-.765,2.425,2.425,0,0,1-.371-.989,2.174,2.174,0,0,1,0-.618c0-.224.106-.412.188-.388a.813.813,0,0,1,.388.336,4.212,4.212,0,0,1,.283.589,3.756,3.756,0,0,1,.241,1.059C290.552,450.471,290.458,450.865,290.511,450.877Z" transform="translate(-184.805 -230.011)" fill="#263238"/>
      <path id="Path_37247" data-name="Path 37247" d="M280.76,240.14l3.426,127.466,16.8-.506-1.295-109.4,21.4,112.439,15.168-3.961L316.676,240.387Z" transform="translate(-181.405 -144.698)" fill="#263238"/>
      <path id="Path_37248" data-name="Path 37248" d="M296.293,374.505c-.088,0-.153-26.422-.153-59.013s.065-59.013.153-59.013.153,26.416.153,59.013S296.375,374.505,296.293,374.505Z" transform="translate(-187.732 -151.42)" fill="#455a64"/>
      <path id="Path_37249" data-name="Path 37249" d="M345.385,381.819c-.082,0-4-25.31-8.758-56.57s-8.558-56.617-8.458-56.629,4,25.31,8.758,56.582S345.473,381.807,345.385,381.819Z" transform="translate(-200.908 -156.414)" fill="#455a64"/>
      <path id="Path_37250" data-name="Path 37250" d="M305.47,93.722a25.674,25.674,0,0,0,1.419-4.055c.2-1.059.518-2.643.094-3.632a2.542,2.542,0,0,0-2.749-1.672,6.163,6.163,0,0,0-3.561-4.821,15.6,15.6,0,0,0-5.886-1.53,4.973,4.973,0,0,0-2.207.277,2.831,2.831,0,0,0-1.33,1.43,4.879,4.879,0,0,0-4.326-.689c-1.625.436-3.473,1.313-4.185,2.831a4.762,4.762,0,0,0-.124,3.6c.312.989,1.36,2.543,2.354,2.178" transform="translate(-182.047 -77.987)" fill="#263238"/>
      <path id="Path_37251" data-name="Path 37251" d="M298.858,125.207h0a7.269,7.269,0,0,1-7.11-7.652c.1-2.031.194-3.673.194-3.673s-5.545-.718-5.751-6.239.436-18.211.436-18.211h0A19.188,19.188,0,0,1,305.962,91.4l.83.589-.512,26.081a7.275,7.275,0,0,1-7.422,7.134Z" transform="translate(-183.623 -81.979)" fill="#ffbe9d"/>
      <path id="Path_37252" data-name="Path 37252" d="M295.947,130.535a12.867,12.867,0,0,0,7.146-2.225s-1.7,4.279-7.222,3.92Z" transform="translate(-187.621 -98.69)" fill="#eb996e"/>
      <path id="Path_37253" data-name="Path 37253" d="M320.256,104.607c.094-.041,3.767-1.218,3.738,2.56s-3.808,2.972-3.814,2.861S320.256,104.607,320.256,104.607Z" transform="translate(-197.622 -88.854)" fill="#ffbe9d"/>
      <path id="Path_37254" data-name="Path 37254" d="M322.148,109.448a1.811,1.811,0,0,0,.177.1.636.636,0,0,0,.494,0,1.619,1.619,0,0,0,.765-1.454,2.119,2.119,0,0,0-.182-.942.748.748,0,0,0-.489-.506.33.33,0,0,0-.388.177c-.053.106-.029.177-.047.182s-.082-.059-.053-.218a.43.43,0,0,1,.153-.235.524.524,0,0,1,.365-.094.942.942,0,0,1,.683.589,2.166,2.166,0,0,1,.218,1.054,1.713,1.713,0,0,1-.971,1.625.724.724,0,0,1-.589-.106C322.154,109.542,322.136,109.459,322.148,109.448Z" transform="translate(-198.431 -89.699)" fill="#eb996e"/>
      <path id="Path_37255" data-name="Path 37255" d="M289.39,104.809a.8.8,0,0,0,.783.777.753.753,0,0,0,.795-.73.789.789,0,0,0-.783-.777.759.759,0,0,0-.795.73Z" transform="translate(-184.955 -88.721)" fill="#263238"/>
      <path id="Path_37256" data-name="Path 37256" d="M289.054,103.214c.1.1.689-.353,1.536-.371s1.483.388,1.572.283-.059-.23-.336-.424a2.178,2.178,0,0,0-1.26-.353,2.072,2.072,0,0,0-1.218.43C289.089,102.985,289.019,103.173,289.054,103.214Z" transform="translate(-184.814 -88.009)" fill="#263238"/>
      <path id="Path_37257" data-name="Path 37257" d="M303.51,104.8a.8.8,0,0,0,.783.771.748.748,0,0,0,.795-.73.789.789,0,0,0-.777-.777.765.765,0,0,0-.8.736Z" transform="translate(-190.764 -88.713)" fill="#263238"/>
      <path id="Path_37258" data-name="Path 37258" d="M303.221,103.13c.106.1.689-.359,1.536-.377s1.483.388,1.572.283-.059-.23-.336-.418a2.148,2.148,0,0,0-1.26-.359,2.072,2.072,0,0,0-1.218.43C303.257,102.895,303.174,103.083,303.221,103.13Z" transform="translate(-190.641 -87.972)" fill="#263238"/>
      <path id="Path_37259" data-name="Path 37259" d="M296.735,109.6a5.715,5.715,0,0,0-1.383-.212c-.218,0-.424-.053-.465-.2a1.177,1.177,0,0,1,.129-.647c.194-.53.394-1.083.589-1.666a27.967,27.967,0,0,0,1.33-4.35,28.582,28.582,0,0,0-1.677,4.232l-.589,1.677a1.254,1.254,0,0,0-.094.853.589.589,0,0,0,.365.306,1.483,1.483,0,0,0,.371.041A5.233,5.233,0,0,0,296.735,109.6Z" transform="translate(-187.074 -88.084)" fill="#263238"/>
      <path id="Path_37260" data-name="Path 37260" d="M300.685,115.45c-.141,0-.118.912-.889,1.589s-1.766.589-1.766.724.224.171.642.171a2.272,2.272,0,0,0,1.466-.553,2,2,0,0,0,.689-1.33C300.855,115.667,300.749,115.438,300.685,115.45Z" transform="translate(-188.51 -93.399)" fill="#263238"/>
      <path id="Path_37261" data-name="Path 37261" d="M302.717,97.625c.088.23.936.1,1.931.194s1.813.341,1.936.135c.059-.1-.088-.318-.418-.53a3.2,3.2,0,0,0-1.442-.465,3.261,3.261,0,0,0-1.507.212C302.882,97.33,302.682,97.513,302.717,97.625Z" transform="translate(-190.437 -85.786)" fill="#263238"/>
      <path id="Path_37262" data-name="Path 37262" d="M289.472,99c.153.188.73,0,1.436-.053s1.3.094,1.43-.106c.059-.1-.041-.294-.306-.471a2.078,2.078,0,0,0-2.307.135C289.478,98.705,289.4,98.906,289.472,99Z" transform="translate(-184.979 -86.255)" fill="#263238"/>
      <path id="Path_37263" data-name="Path 37263" d="M306.133,91.477c-.035,1.613.371,3.4.124,4.98-.035.241-.636.895-.689,1.13-.288,1.407-.853,2.019-1.719.589a12,12,0,0,1-.718-2.708L302,90.4a8.87,8.87,0,0,1-4.173,1.1,4.291,4.291,0,0,1-3.638-2.031,4.456,4.456,0,0,1-6.887,1.083,1.854,1.854,0,0,1-2.443.589,2.207,2.207,0,0,1-.959-2.413c.347-1.354,1.766-2.119,3.1-2.549,5.209-1.677,11.048-.589,15.833,2.037a8.005,8.005,0,0,1,1.942,1.389c.553.589,1.318,1.248,1.36,2.048" transform="translate(-182.669 -81.028)" fill="#263238"/>
      <path id="Path_37264" data-name="Path 37264" d="M315,94.9a2.7,2.7,0,0,1,.853.135,2.9,2.9,0,0,1,.789.506c.271.235.536.542.859.842a2.825,2.825,0,0,0,1.071.677,1.919,1.919,0,0,0,1.048,0c.589-.165.812-.483.789-.506a5.919,5.919,0,0,1-.836.283,1.819,1.819,0,0,1-.906-.077,2.666,2.666,0,0,1-.948-.624c-.306-.288-.589-.589-.883-.836a2.725,2.725,0,0,0-.906-.494A1.019,1.019,0,0,0,315,94.9Z" transform="translate(-195.489 -84.882)" fill="#455a64"/>
      <path id="Path_37265" data-name="Path 37265" d="M316.068,97.751c0,.047.283,0,.589.265a3.366,3.366,0,0,1,.483.547,2.461,2.461,0,0,0,.718.665,2.584,2.584,0,0,0,1.719.365c.453-.071.689-.235.671-.271s-.277.035-.695.041a2.76,2.76,0,0,1-1.524-.412c-.542-.3-.812-.877-1.242-1.124S316.026,97.709,316.068,97.751Z" transform="translate(-195.929 -86.089)" fill="#455a64"/>
      <path id="Path_37266" data-name="Path 37266" d="M289.822,79.552a.98.98,0,0,0-.489.047,2.084,2.084,0,0,0-1.059.8,5.051,5.051,0,0,0-.312,4.256,6.01,6.01,0,0,0,2.708,3.326,5.245,5.245,0,0,0,1.207.512,1.26,1.26,0,0,0,.477.082,16.7,16.7,0,0,1-1.554-.795,6.1,6.1,0,0,1-2.513-3.231,5.069,5.069,0,0,1,.188-4.026,2.154,2.154,0,0,1,.918-.806C289.652,79.593,289.822,79.581,289.822,79.552Z" transform="translate(-184.24 -78.626)" fill="#455a64"/>
      <path id="Path_37267" data-name="Path 37267" d="M283.544,83.45a2.442,2.442,0,0,0,.047,1.065,6.6,6.6,0,0,0,2.8,4.2,2.46,2.46,0,0,0,.965.459,10.848,10.848,0,0,1-2.513-2.46A10.859,10.859,0,0,1,283.544,83.45Z" transform="translate(-182.535 -80.234)" fill="#455a64"/>
      <path id="Path_37268" data-name="Path 37268" d="M224.944,214.14l-8.076.406a1.919,1.919,0,0,0-1.819,1.942c.041,1.848.353,4.373,1.766,4.12l.918-4.02,6.7,5.886a4.868,4.868,0,0,0,2.413,1.177l1.577-.165Z" transform="translate(-154.372 -134.001)" fill="#ffbe9d"/>
      <path id="Path_37269" data-name="Path 37269" d="M293.056,139.617l-4.22,1.395-2.1,35.051v31.1l25.916,2.866.3-44.839-1.672-22.314-3.961-4.732Z" transform="translate(-183.865 -102.734)" fill="#e0e0e0"/>
      <path id="Path_37270" data-name="Path 37270" d="M295.26,139.629v-3.4l15.4-2.142-.618,7.822-3.537,6.133-5.786.324-4.179-2.578Z" transform="translate(-187.37 -101.068)" fill="#e0e0e0"/>
      <path id="Path_37271" data-name="Path 37271" d="M297.521,140.666a3.985,3.985,0,0,1-.088-1.554,4.121,4.121,0,0,1,.218-1.542,3.985,3.985,0,0,1,.088,1.554,4.121,4.121,0,0,1-.218,1.542Z" transform="translate(-188.248 -102.5)" fill="#263238"/>
      <path id="Path_37272" data-name="Path 37272" d="M304.078,139.935a5.15,5.15,0,0,1-.053-1.736,4.962,4.962,0,0,1,.259-1.719,5.068,5.068,0,0,1,.047,1.766A4.85,4.85,0,0,1,304.078,139.935Z" transform="translate(-190.956 -102.051)" fill="#263238"/>
      <path id="Path_37273" data-name="Path 37273" d="M310.427,139.139a5.6,5.6,0,0,1,0-1.836,5.533,5.533,0,0,1,.288-1.813,5.8,5.8,0,0,1,0,1.836,5.721,5.721,0,0,1-.288,1.813Z" transform="translate(-193.579 -101.644)" fill="#263238"/>
      <path id="Path_37274" data-name="Path 37274" d="M316.46,138.275a7.063,7.063,0,0,1,.159-3.455,6.434,6.434,0,0,1,0,1.73A6.581,6.581,0,0,1,316.46,138.275Z" transform="translate(-196.034 -101.368)" fill="#263238"/>
      <path id="Path_37275" data-name="Path 37275" d="M308.133,165.86a2.226,2.226,0,0,1-.206.589c-.147.365-.377.883-.677,1.519-.589,1.265-1.489,2.99-2.584,4.826s-2.184,3.449-3.014,4.579c-.412.589-.753,1.018-1,1.324a2.443,2.443,0,0,1-.412.453,20.827,20.827,0,0,1,1.236-1.9c.783-1.177,1.836-2.778,2.943-4.609s2.007-3.532,2.655-4.774a21.782,21.782,0,0,1,1.06-2.007Z" transform="translate(-189.419 -114.138)" fill="#263238"/>
      <path id="Path_37276" data-name="Path 37276" d="M319.766,137.21l4.179,2.013,8.076,1.984a6.728,6.728,0,0,1,5.521,7.481l-4.232,32.961,5.05,31.961-20.012-.589-1.177-11.89V168.17Z" transform="translate(-196.384 -102.352)" fill="#455a64"/>
      <path id="Path_37277" data-name="Path 37277" d="M317.17,176.117a2.833,2.833,0,0,1,.059-.412c.059-.294.135-.677.23-1.177l.889-4.25,3.055-13.991c.336-1.5.659-2.943.971-4.367l.041.141-1.389-1.454-.077-.082.059-.094,2.325-3.867v.112l-2.566-6.216c-.288-.724-.524-1.307-.695-1.766a4.072,4.072,0,0,1-.224-.624,3.2,3.2,0,0,1,.294.589l.765,1.713,2.637,6.221.029.059-.035.059c-.712,1.177-1.483,2.5-2.3,3.891v-.177l1.389,1.442.059.059V152c-.312,1.407-.636,2.866-.965,4.367-1.224,5.445-2.354,10.371-3.143,13.973-.406,1.766-.742,3.2-.983,4.232l-.283,1.142a2.049,2.049,0,0,1-.141.4Z" transform="translate(-196.384 -102.705)" fill="#263238"/>
      <path id="Path_37278" data-name="Path 37278" d="M232.44,183.152l17.7-9.871,8.576-23.138A12.437,12.437,0,0,1,265.59,143l2.278-.948v60.914l.453,14.432-9.594-2.872,4.9-29.006-1.7-14.273-1.677,6.9a9.359,9.359,0,0,1-4.373,5.886l-18.4,9.559Z" transform="translate(-161.526 -104.343)" fill="#455a64"/>
      <path id="Path_37279" data-name="Path 37279" d="M231.759,212.64l-1.489.447,4.191,9.994,1.954-.759Z" transform="translate(-160.633 -133.384)" fill="#e0e0e0"/>
      <path id="Path_37280" data-name="Path 37280" d="M265.7,199.325a12.886,12.886,0,0,0-1.324-2.243,13.142,13.142,0,0,0-1.96-1.713,4.956,4.956,0,0,1,3.284,3.955Z" transform="translate(-173.86 -126.279)" fill="#263238"/>
      <path id="Path_37281" data-name="Path 37281" d="M235.811,212.031a.9.9,0,0,0-.1.288c-.012.171.1.371.335.3a.253.253,0,0,0,.118-.43c-.1-.141-.23-.147-.235-.194s.165-.129.388.035a.53.53,0,0,1,.2.43.518.518,0,0,1-.383.453.5.5,0,0,1-.636-.642C235.6,212.008,235.782,211.973,235.811,212.031Z" transform="translate(-162.772 -133.093)" fill="#263238"/>
      <path id="Path_37282" data-name="Path 37282" d="M238.235,211.011a.81.81,0,0,0-.094.288c-.006.171.1.371.335.3a.259.259,0,0,0,.118-.436c-.1-.135-.23-.147-.241-.188s.165-.135.394.035a.518.518,0,0,1,.2.424.542.542,0,0,1-.959.283.536.536,0,0,1-.059-.471C238.029,210.964,238.235,210.964,238.235,211.011Z" transform="translate(-163.772 -132.673)" fill="#263238"/>
      <path id="Path_37283" data-name="Path 37283" d="M290.725,178.674a1.608,1.608,0,0,1-.077-.371c-.041-.283-.1-.642-.165-1.089-.135-.983-.318-2.354-.542-4-.436-3.414-1.024-8.07-1.677-13.208-.088-.73-.177-1.448-.265-2.16v-.071c.447-1.136.883-2.237,1.295-3.29v.112c-.447-1.018-.877-2-1.277-2.943v-.088c.789-2.831,1.448-5.215,1.919-6.934.235-.812.424-1.46.559-1.942a4.5,4.5,0,0,1,.23-.683,4.667,4.667,0,0,1-.147.7c-.118.489-.283,1.148-.489,1.966-.447,1.725-1.071,4.12-1.807,6.963v-.088l1.3,2.908v.112l-1.289,3.326v-.077c.088.706.177,1.43.271,2.16.589,5.144,1.177,9.8,1.583,13.214.188,1.666.341,3.025.447,4.014l.106,1.089a1.565,1.565,0,0,1,.024.377Z" transform="translate(-184.384 -104.326)" fill="#263238"/>
      <path id="Path_37284" data-name="Path 37284" d="M282.716,196.225a1.524,1.524,0,0,1-.059-.288c-.029-.224-.071-.5-.118-.83-.094-.771-.218-1.807-.377-3.067-.312-2.59-.753-6.163-1.283-10.106s-1.048-7.51-1.424-10.089c-.182-1.254-.335-2.29-.447-3.055-.041-.336-.077-.589-.106-.836a.935.935,0,0,1,0-.294,1.437,1.437,0,0,1,.076.283c.047.224.1.494.165.824.135.718.324,1.766.542,3.043.436,2.572.989,6.133,1.519,10.083s.936,7.528,1.177,10.124c.13,1.295.224,2.354.283,3.072,0,.336.041.589.053.842A.935.935,0,0,1,282.716,196.225Z" transform="translate(-180.636 -114.879)" fill="#263238"/>
      <path id="Path_37285" data-name="Path 37285" d="M281.237,245.212a2.454,2.454,0,0,0,.406.494,1.883,1.883,0,0,0,1.619.365,2.731,2.731,0,0,0,1.766-1.725,10.665,10.665,0,0,0,.494-3.167,7.24,7.24,0,0,0-.324-3.161,5.78,5.78,0,0,0-1.607-2.025,7.5,7.5,0,0,1-1.224-1.336,1.53,1.53,0,0,1-.288-.589,6.458,6.458,0,0,0,.383.53,9.27,9.27,0,0,0,1.277,1.248,5.691,5.691,0,0,1,1.719,2.078,7.187,7.187,0,0,1,.371,3.284,10.448,10.448,0,0,1-.536,3.255,2.943,2.943,0,0,1-1.966,1.825,1.925,1.925,0,0,1-1.766-.483,1.43,1.43,0,0,1-.288-.412C281.237,245.259,281.225,245.212,281.237,245.212Z" transform="translate(-181.599 -142.2)" fill="#263238"/>
      <path id="Path_37286" data-name="Path 37286" d="M270.06,208.985s.589-6.751,5.933-7.375A7.9,7.9,0,0,1,270.06,208.985Z" transform="translate(-177.003 -128.846)" fill="#263238"/>
      <path id="Path_37287" data-name="Path 37287" d="M318.74,239.42,334.308,249.6l1.766-1.407.83-22.82L322.077,214.14l-2.037.7Z" transform="translate(-197.03 -134.001)" fill="#f8951d"/>
      <path id="Path_37288" data-name="Path 37288" d="M322.256,214.69l.606,24.7H319.59l1.095-24.209Z" transform="translate(-197.38 -134.227)" fill="#e0e0e0"/>
      <path id="Path_37289" data-name="Path 37289" d="M329.585,258.44a1.913,1.913,0,0,0,1.766,1.177.2.2,0,0,1,.129.112,1.766,1.766,0,0,0,1.477.918,3.155,3.155,0,0,0,1.672-.483c.812-.494,2.26-3.743,2.26-3.743l3.431-7.652-5.768-1.56-7.334,2.284c0,.135-1.719,7.063-1.719,7.063a1.766,1.766,0,0,0,2.06-1.095,18.983,18.983,0,0,1,1.295-2.425l.547,3.125-2.09.712a1.389,1.389,0,0,0,.895,1.589Z" transform="translate(-199.811 -147.606)" fill="#ffbe9d"/>
      <path id="Path_37290" data-name="Path 37290" d="M336.84,164.483l9.612,17.693-7.822,23.22,8.694,4.9,11.06-25.839a7.352,7.352,0,0,0-.094-5.98l-13.538-29.13Z" transform="translate(-204.477 -107.346)" fill="#455a64"/>
      <path id="Path_37291" data-name="Path 37291" d="M339.312,244.57l-.812,1.8,8.205,4.426.859-1.577Z" transform="translate(-205.16 -146.52)" fill="#e0e0e0"/>
      <path id="Path_37292" data-name="Path 37292" d="M336.687,204.939v-.118a1.935,1.935,0,0,1,.1-.341l.418-1.313c.383-1.177.924-2.819,1.6-4.879,1.389-4.167,3.326-9.971,5.539-16.616v.124c-1.118-1.9-2.272-3.908-3.431-5.98-2.119-3.785-4.061-7.434-5.727-10.807-.824-1.689-1.589-3.3-2.237-4.85a9.671,9.671,0,0,1-.8-4.585,10.525,10.525,0,0,1,.854-3.749,7.346,7.346,0,0,1,1.7-2.354,5.586,5.586,0,0,1,1.53-1.012,3.447,3.447,0,0,1,.589-.218,6.751,6.751,0,0,0-2.048,1.318,7.181,7.181,0,0,0-1.625,2.354,10.5,10.5,0,0,0-.8,3.69,9.582,9.582,0,0,0,.818,4.473c.659,1.536,1.43,3.143,2.26,4.826,1.672,3.361,3.626,7,5.745,10.777,1.177,2.072,2.3,4.079,3.414,5.98l.035.059v.065c-2.26,6.633-4.226,12.425-5.645,16.581l-1.625,4.838c-.2.547-.353.977-.465,1.295l-.129.336a.772.772,0,0,1-.065.106Z" transform="translate(-202.535 -106.889)" fill="#263238"/>
      <path id="Path_37293" data-name="Path 37293" d="M359.639,204.159a7.233,7.233,0,0,1-.948-.336,6.775,6.775,0,0,0-4.668.147,6.953,6.953,0,0,1-.924.394,2.237,2.237,0,0,1,.836-.589,5.8,5.8,0,0,1,2.4-.589,5.745,5.745,0,0,1,2.431.447,2.249,2.249,0,0,1,.871.524Z" transform="translate(-211.166 -129.494)" fill="#263238"/>
      <path id="Path_37294" data-name="Path 37294" d="M333.57,167.91l6.9,23.108.977-7.6Z" transform="translate(-203.131 -114.982)" fill="#263238"/>
      <path id="Path_37295" data-name="Path 37295" d="M352.753,244.983a.811.811,0,0,0-.094.288c-.006.171.1.371.336.3a.259.259,0,0,0,.118-.436c-.1-.135-.23-.147-.235-.188s.159-.13.388.035a.518.518,0,0,1,.2.43.524.524,0,0,1-.388.453.512.512,0,0,1-.589-.177.524.524,0,0,1-.059-.465C352.518,244.953,352.753,244.953,352.753,244.983Z" transform="translate(-210.878 -146.65)" fill="#263238"/>
      <path id="Path_37296" data-name="Path 37296" d="M353.9,242.151a.81.81,0,0,0-.094.294.265.265,0,1,0,.453-.135c-.1-.141-.235-.147-.241-.194s.165-.129.394.035a.53.53,0,0,1,.2.43.524.524,0,1,1-1.018-.188C353.69,242.128,353.9,242.11,353.9,242.151Z" transform="translate(-211.355 -145.485)" fill="#263238"/>
      <path id="Path_37297" data-name="Path 37297" d="M369.24,192.21c-1.03.542-1.389,2.06-1.271,3.22a27.811,27.811,0,0,1,.518,3.443,14.605,14.605,0,0,1-.441,2.454,4.2,4.2,0,0,0,.071,2.454,1.884,1.884,0,0,0,1.948,1.23l.818-1.648a9.082,9.082,0,0,0-.118-8.276Z" transform="translate(-217.253 -124.979)" fill="#263238"/>
    </g>
    <g id="freepik--speech-bubble--inject-7" transform="translate(133.393 50.327)">
      <path id="Path_37298" data-name="Path 37298" d="M217.375,50.376a1.442,1.442,0,0,1,.3,0h.883a9.418,9.418,0,0,1,1.424.135c.283.047.589.077.906.141l1.018.253a16.481,16.481,0,0,1,4.9,2.19,17.027,17.027,0,0,1-2.931,29.912,16.616,16.616,0,0,1-5.674,1.248,16.233,16.233,0,0,1-5.933-.736l-.177-.059h.135L202.307,86.9l-.4.141.124-.412,2.578-8.24.041.2a16.987,16.987,0,0,1-3.979-14.715,16.681,16.681,0,0,1,2.56-6.086,16.9,16.9,0,0,1,3.926-4.12,15.233,15.233,0,0,1,4.032-2.231,13.156,13.156,0,0,1,1.766-.589,11.13,11.13,0,0,1,1.53-.318c.465-.065.877-.135,1.23-.165l.906-.029h.583a.589.589,0,0,1,.188,0,1.241,1.241,0,0,1-.188.029l-.547.041-.895.065c-.353.041-.759.118-1.218.194a11.059,11.059,0,0,0-1.507.347,12.855,12.855,0,0,0-1.766.589,19.426,19.426,0,0,0-1.936.912,17.511,17.511,0,0,0-2.013,1.336,17,17,0,0,0-3.826,4.067,16.41,16.41,0,0,0-2.472,6.01,16.634,16.634,0,0,0,3.944,14.344l.082.088-.035.112q-1.23,3.973-2.56,8.24l-.277-.265,9.906-3.349h.141l.171.053a15.922,15.922,0,0,0,5.78.718,16.34,16.34,0,0,0,5.533-1.207,16.706,16.706,0,0,0-1.848-31.519l-1-.271c-.318-.071-.618-.106-.895-.159a9.364,9.364,0,0,0-1.413-.177l-.877-.071A1.967,1.967,0,0,1,217.375,50.376Z" transform="translate(-200.327 -50.327)" fill="#f8951d"/>
      <path id="Path_37299" data-name="Path 37299" d="M212.35,75.806l2.607-2.613,5.032,4.473,9.883-9.506,2.419,2.613L219.619,82.7Z" transform="translate(-205.274 -57.664)" fill="#f8951d"/>
    </g>
  </g>
</svg>
