<svg xmlns="http://www.w3.org/2000/svg" width="250" height="240.172" viewBox="0 0 250 240.172"><g transform="translate(-6.97 -23.66)"><g transform="translate(23.672 62.628)"><path d="M403.907,156.66c.357-2.584-3.323-4.759-6.092-4.981a15.357,15.357,0,0,1-3.937-.341c-2.708-.94-3.793-4.439-6.433-5.555-1.974-.832-4.253-.093-6.165.873s-3.808,2.175-5.948,2.315c-1.86.119-3.886-.574-5.514.336-1.214.677-1.85,2.067-2.966,2.9a6.737,6.737,0,0,1-3.881,1.033,10.542,10.542,0,0,0-4,.651,3.151,3.151,0,0,0-2,3.209Z" transform="translate(-192.797 -121.471)" fill="#ebebeb"/><path d="M184.152,110.31c.362-2.584-3.323-4.754-6.087-4.981a15.57,15.57,0,0,1-3.937-.336c-2.713-.946-3.793-4.444-6.433-5.56-1.979-.832-4.253-.093-6.165.873s-3.808,2.175-5.953,2.315c-1.86.119-3.881-.574-5.508.336-1.214.677-1.85,2.067-2.966,2.9a6.737,6.737,0,0,1-3.881,1.033,10.43,10.43,0,0,0-4,.656,3.156,3.156,0,0,0-2,3.2Z" transform="translate(-86.599 -99.071)" fill="#ebebeb"/><path d="M86.267,268.49c.357-2.609-3.323-4.759-6.092-4.981a15.339,15.339,0,0,1-3.937-.341c-2.708-.94-3.793-4.439-6.433-5.555-1.979-.832-4.253-.093-6.165.873s-3.829,2.15-5.948,2.284c-1.865.124-3.886-.568-5.514.341-1.214.677-1.85,2.067-2.966,2.9a6.737,6.737,0,0,1-3.881,1.033,10.526,10.526,0,0,0-4,.651,3.158,3.158,0,0,0-2,3.209Z" transform="translate(-39.292 -175.515)" fill="#ebebeb"/><path d="M285.347,204.271c.222-1.6-2.031-2.909-3.72-3.044a9.812,9.812,0,0,1-2.408-.207c-1.654-.579-2.315-2.718-3.932-3.4a4.67,4.67,0,0,0-3.767.517,10.3,10.3,0,0,1-3.617,1.411c-1.137.072-2.372-.346-3.369.207-.739.413-1.126,1.271-1.814,1.772a4.3,4.3,0,0,1-2.367.646,6.583,6.583,0,0,0-2.444.4,1.927,1.927,0,0,0-1.225,1.958Z" transform="translate(-144.347 -146.589)" fill="#ebebeb"/></g><g transform="translate(8.226 263.563)"><path d="M258.144,488.064c0,.072-55.683.134-124.367.134S9.4,488.137,9.4,488.064s55.678-.134,124.377-.134S258.144,487.992,258.144,488.064Z" transform="translate(-9.4 -487.93)" fill="#263238"/></g><g transform="translate(6.97 126.547)"><path d="M319.06,412.95,358.125,451.7l7.627-.021,2.713-38.734Z" transform="translate(-157.793 -314.678)" fill="#e0e0e0"/><path d="M343.715,420.05,304.35,455.136l27.5-.041L355.021,435.6Z" transform="translate(-150.684 -318.109)" fill="#e0e0e0"/><path d="M373.37,224.444l48.521,44.982.853-46.656Z" transform="translate(-184.039 -222.77)" fill="#e0e0e0"/><path d="M313.894,229.77,182.66,363.159h25.857L325.722,244.931Z" transform="translate(-91.875 -226.153)" fill="#e0e0e0"/><path d="M107.07,325.36l46.971,46.6,2.434-46.6Z" transform="translate(-55.345 -272.348)" fill="#e0e0e0"/><path d="M91.3,331.26,6.97,412.206H34.145l68.462-65.392Z" transform="translate(-6.97 -275.2)" fill="#e0e0e0"/><path d="M186.32,294.4l67.051,66.524V294.4Z" transform="translate(-93.644 -257.387)" fill="#f8951d"/><path d="M180.245,297.3c-1.519,1.214-98.045,98.494-98.045,98.494h41.587l75.882-76.332Z" transform="translate(-43.326 -258.788)" fill="#f8951d"/></g><g transform="translate(37.276 35.762)"><circle cx="6.63" cy="6.63" r="6.63" transform="translate(6.009 11.117) rotate(-22.32)" fill="#f8951d"/><path d="M92.074,99.177a25.461,25.461,0,0,1-.083-2.733,25.461,25.461,0,0,1,.072-2.734c.036,0,.067,1.225.067,2.734S92.11,99.177,92.074,99.177Z" transform="translate(-78.36 -69.615)" fill="#f8951d"/><path d="M82.043,90.72c.036,0-.589,1.163-1.39,2.553s-1.483,2.5-1.514,2.48.589-1.157,1.39-2.553A28.945,28.945,0,0,1,82.043,90.72Z" transform="translate(-72.153 -68.17)" fill="#f8951d"/><path d="M74.188,86a15.052,15.052,0,0,1-1.55,1.318A14.943,14.943,0,0,1,71,88.527a15.5,15.5,0,0,1,1.55-1.318A15.2,15.2,0,0,1,74.188,86Z" transform="translate(-68.22 -65.889)" fill="#f8951d"/><path d="M103.85,94.8a4.32,4.32,0,0,1-.176-.672c-.093-.419-.227-1-.4-1.628s-.341-1.194-.47-1.6a4.563,4.563,0,0,1-.186-.672,2.9,2.9,0,0,1,.279.641,16.536,16.536,0,0,1,.517,1.6c.171.636.289,1.219.362,1.643a2.8,2.8,0,0,1,.072.692Z" transform="translate(-83.501 -67.933)" fill="#f8951d"/><path d="M114.419,86.713a22.337,22.337,0,0,1-1.958-1.623,23.251,23.251,0,0,1-1.871-1.721,21.7,21.7,0,0,1,1.958,1.617A23.844,23.844,0,0,1,114.419,86.713Z" transform="translate(-87.353 -64.618)" fill="#f8951d"/><path d="M117.892,76.528a6.076,6.076,0,0,1-.8-.114c-.517-.083-1.173-.191-1.927-.274s-1.437-.14-1.938-.171a4.951,4.951,0,0,1-.8-.072,4.071,4.071,0,0,1,.806-.026,19.152,19.152,0,0,1,1.948.129,19.489,19.489,0,0,1,1.927.315A3.421,3.421,0,0,1,117.892,76.528Z" transform="translate(-88.242 -60.99)" fill="#f8951d"/><path d="M116.974,64.667c0,.036-1.426.419-3.2.853s-3.235.754-3.24.713,1.426-.419,3.2-.853S116.974,64.625,116.974,64.667Z" transform="translate(-87.324 -55.577)" fill="#f8951d"/><path d="M105.489,50.12c.031,0-.656,1.116-1.55,2.449s-1.617,2.392-1.648,2.372a26.824,26.824,0,0,1,1.55-2.449C104.724,51.164,105.458,50.1,105.489,50.12Z" transform="translate(-83.341 -48.549)" fill="#f8951d"/><path d="M93.969,47.08a6.872,6.872,0,0,1,0,.915v2.191c0,.858,0,1.633.026,2.2a6.766,6.766,0,0,1,0,.909,5.25,5.25,0,0,1-.093-.909c-.031-.558-.062-1.338-.062-2.2s0-1.633.057-2.2A5.251,5.251,0,0,1,93.969,47.08Z" transform="translate(-79.258 -47.08)" fill="#f8951d"/><path d="M80.391,56.064a28.313,28.313,0,0,1-1.55-2.418c-.832-1.359-1.473-2.475-1.442-2.5a27.989,27.989,0,0,1,1.55,2.423C79.766,54.932,80.422,56.043,80.391,56.064Z" transform="translate(-71.312 -49.047)" fill="#f8951d"/><path d="M72.321,64.914a3.2,3.2,0,0,1-.708-.1c-.429-.093-1.033-.238-1.664-.429s-1.225-.388-1.633-.548a2.966,2.966,0,0,1-.656-.289,4.236,4.236,0,0,1,.687.2c.419.134,1,.32,1.638.517s1.23.351,1.654.465A3.782,3.782,0,0,1,72.321,64.914Z" transform="translate(-66.606 -55.039)" fill="#f8951d"/><path d="M69.862,76.05a15.763,15.763,0,0,1-2.113.274,15.554,15.554,0,0,1-2.129.134,16.836,16.836,0,0,1,2.113-.274A16.614,16.614,0,0,1,69.862,76.05Z" transform="translate(-65.62 -61.08)" fill="#f8951d"/></g><g transform="translate(40.737 51.907)"><path d="M423.075,350.187c.274-1.964-2.5-3.581-4.583-3.751a11.788,11.788,0,0,1-2.966-.253c-2.041-.713-2.852-3.348-4.842-4.186-1.488-.625-3.2-.067-4.651.656s-2.868,1.638-4.475,1.741c-1.4.093-2.925-.429-4.134.258-.915.517-1.4,1.55-2.237,2.181a5.266,5.266,0,0,1-2.92.791,8.216,8.216,0,0,0-3.013.517,2.37,2.37,0,0,0-1.5,2.413Z" transform="translate(-224.742 -205.618)" fill="#fff"/><path d="M422.965,350.061h-.687l-2.015.036-7.482.114-25.149.3h-.114v-.108a2.108,2.108,0,0,1,.465-1.674,3.1,3.1,0,0,1,1.467-1.033c1.323-.45,2.692-.258,3.943-.491a3.746,3.746,0,0,0,1.71-.713,12.63,12.63,0,0,0,1.281-1.385,3.747,3.747,0,0,1,.729-.641,2.7,2.7,0,0,1,.9-.372,6.332,6.332,0,0,1,1.871-.047,9.3,9.3,0,0,0,1.772.041,6.122,6.122,0,0,0,1.664-.434c1.064-.429,2.026-1.033,3.038-1.488a6.584,6.584,0,0,1,3.142-.7,3.617,3.617,0,0,1,1.488.45,5.277,5.277,0,0,1,1.158.935c.672.7,1.2,1.457,1.814,2.067a3.684,3.684,0,0,0,2.1,1.163c.765.124,1.514.057,2.217.109a6.609,6.609,0,0,1,3.338,1.25,3.385,3.385,0,0,1,1.344,1.793,1.954,1.954,0,0,1,.026.791,2.888,2.888,0,0,0-.078-.775,3.4,3.4,0,0,0-1.354-1.726,6.583,6.583,0,0,0-3.312-1.132c-.687-.041-1.437.031-2.232-.088a3.891,3.891,0,0,1-2.206-1.2c-.636-.625-1.168-1.38-1.829-2.067a5.056,5.056,0,0,0-1.111-.894,3.441,3.441,0,0,0-1.406-.4,6.351,6.351,0,0,0-3.028.7c-.992.45-1.953,1.059-3.044,1.5a6.247,6.247,0,0,1-1.731.46,9.709,9.709,0,0,1-1.819-.041,6.3,6.3,0,0,0-1.793.047,2.744,2.744,0,0,0-1.5.935,12.284,12.284,0,0,1-1.3,1.416,4.015,4.015,0,0,1-1.834.77c-1.307.238-2.661.052-3.9.481a2.862,2.862,0,0,0-1.344.935,1.845,1.845,0,0,0-.413,1.462l-.134-.109,25.061-.191,7.513-.036h2.584A1.261,1.261,0,0,1,422.965,350.061Z" transform="translate(-224.631 -205.492)" fill="#263238"/><path d="M197.367,431.29c.357-2.609-3.323-4.759-6.092-4.981a15.359,15.359,0,0,1-3.937-.341c-2.708-.94-3.793-4.439-6.433-5.555-1.979-.832-4.253-.093-6.165.873s-3.808,2.175-5.948,2.31c-1.865.124-3.886-.568-5.514.341-1.214.677-1.85,2.067-2.966,2.9a6.737,6.737,0,0,1-3.881,1.033,10.527,10.527,0,0,0-4,.651,3.158,3.158,0,0,0-2,3.209Z" transform="translate(-110.049 -243.47)" fill="#fff"/><path d="M197.268,431.175h-.92l-2.682.047-9.947.14-33.386.382h-.114v-.108a2.78,2.78,0,0,1,.6-2.191,4.134,4.134,0,0,1,1.933-1.349c1.747-.594,3.56-.341,5.229-.651a4.992,4.992,0,0,0,2.294-.956,16.132,16.132,0,0,0,1.705-1.845,4.711,4.711,0,0,1,.961-.847,3.747,3.747,0,0,1,1.183-.486,8.635,8.635,0,0,1,2.47-.062,12.568,12.568,0,0,0,2.367.057,8.113,8.113,0,0,0,2.217-.584c1.421-.568,2.7-1.364,4.036-1.979a8.738,8.738,0,0,1,4.134-.925,4.65,4.65,0,0,1,1.964.589,6.765,6.765,0,0,1,1.55,1.235c.889.925,1.592,1.933,2.413,2.749a4.961,4.961,0,0,0,2.8,1.55,29.491,29.491,0,0,0,2.951.14,8.268,8.268,0,0,1,2.522.6,8.95,8.95,0,0,1,1.907,1.033,5.757,5.757,0,0,1,1.23,1.23,3.349,3.349,0,0,1,.553,1.147,2.377,2.377,0,0,1,.067.78v-.01a2.619,2.619,0,0,0-.093-.76,4.511,4.511,0,0,0-1.793-2.3,8.909,8.909,0,0,0-1.891-1.033,8.267,8.267,0,0,0-2.485-.568c-.915-.057-1.912.041-2.966-.119a5.167,5.167,0,0,1-2.956-1.519c-.842-.827-1.55-1.834-2.423-2.739a6.685,6.685,0,0,0-1.488-1.194,4.5,4.5,0,0,0-1.876-.553,8.443,8.443,0,0,0-4.041.92c-1.318.6-2.584,1.411-4.041,1.995a8.459,8.459,0,0,1-2.284.6,13.429,13.429,0,0,1-2.413-.052,8.267,8.267,0,0,0-2.392.057,3.513,3.513,0,0,0-1.1.455,4.649,4.649,0,0,0-.915.8,16.257,16.257,0,0,1-1.731,1.876,5.281,5.281,0,0,1-2.408,1.033c-1.731.315-3.529.072-5.193.641a3.8,3.8,0,0,0-1.8,1.261,2.511,2.511,0,0,0-.558,1.974l-.134-.108,33.3-.274,9.973-.057h3.416A2.364,2.364,0,0,1,197.268,431.175Z" transform="translate(-109.95 -243.356)" fill="#263238"/><path d="M111.929,194.5c.3-2.191-2.79-3.989-5.11-4.18a13.015,13.015,0,0,1-3.307-.284c-2.274-.791-3.183-3.726-5.4-4.651-1.659-.7-3.571-.072-5.167.734s-3.193,1.829-4.992,1.943c-1.55.1-3.255-.481-4.651.284-1.033.568-1.55,1.741-2.491,2.434a5.872,5.872,0,0,1-3.255.884,9.188,9.188,0,0,0-3.359.548,2.631,2.631,0,0,0-1.679,2.692Z" transform="translate(-72.398 -129.919)" fill="#fff"/><path d="M111.849,194.4h-.77l-2.248.041-8.345.124-28.033.331h-.109v-.109a2.341,2.341,0,0,1,.517-1.855,3.5,3.5,0,0,1,1.628-1.142c1.473-.517,3-.284,4.4-.548a4.1,4.1,0,0,0,1.912-.8,13.16,13.16,0,0,0,1.426-1.55,4.134,4.134,0,0,1,.78-.682,3.069,3.069,0,0,1,1-.413,7.43,7.43,0,0,1,2.067-.052,10.629,10.629,0,0,0,1.979.052,6.961,6.961,0,0,0,1.86-.491c1.188-.475,2.258-1.147,3.385-1.659a7.291,7.291,0,0,1,3.493-.78,3.974,3.974,0,0,1,1.659.517,5.808,5.808,0,0,1,1.287,1.033c.749.78,1.333,1.623,2.02,2.3a4.134,4.134,0,0,0,2.346,1.3c.858.134,1.695.062,2.475.119a7.337,7.337,0,0,1,3.72,1.39,3.762,3.762,0,0,1,1.493,1.995,1.892,1.892,0,0,1,.057.661v-.01a2.248,2.248,0,0,0-.083-.636,3.777,3.777,0,0,0-1.5-1.927,7.332,7.332,0,0,0-3.669-1.323c-.765-.046-1.6.036-2.491-.1a4.356,4.356,0,0,1-2.454-1.338c-.7-.692-1.3-1.55-2.036-2.294a5.447,5.447,0,0,0-1.245-1,3.783,3.783,0,0,0-1.55-.465,7.136,7.136,0,0,0-3.379.775c-1.106.517-2.181,1.183-3.39,1.674a7.115,7.115,0,0,1-1.927.517,10.608,10.608,0,0,1-2.026-.041,7.032,7.032,0,0,0-2,.047,3.1,3.1,0,0,0-1.674,1.033,13.728,13.728,0,0,1-1.473,1.571,4.366,4.366,0,0,1-2.036.853c-1.457.269-2.966.062-4.351.543a3.193,3.193,0,0,0-1.509,1.033,2.067,2.067,0,0,0-.46,1.638l-.134-.109,27.94-.217,8.376-.047h3.1Z" transform="translate(-72.318 -129.812)" fill="#263238"/><path d="M392.487,85.985c.233-1.721-2.2-3.137-4.02-3.286a10.158,10.158,0,0,1-2.584-.222c-1.788-.625-2.5-2.935-4.242-3.669a4.988,4.988,0,0,0-4.072.579,10.5,10.5,0,0,1-3.922,1.524c-1.23.078-2.584-.377-3.617.222-.8.45-1.219,1.369-1.958,1.917a4.687,4.687,0,0,1-2.558.692,7.234,7.234,0,0,0-2.641.429,2.083,2.083,0,0,0-1.318,2.119Z" transform="translate(-212.084 -78.443)" fill="#fff"/><path d="M392.35,85.866h-.6l-1.762.036-6.557.1-22.044.274h-.114v-.109a1.865,1.865,0,0,1,.408-1.483,2.775,2.775,0,0,1,1.3-.9,22.339,22.339,0,0,1,3.457-.434,3.157,3.157,0,0,0,1.493-.62,10.512,10.512,0,0,0,1.116-1.214,2.661,2.661,0,0,1,1.442-.889,5.684,5.684,0,0,1,1.643-.041,8.268,8.268,0,0,0,1.55.036,5.4,5.4,0,0,0,1.457-.377c.93-.372,1.772-.9,2.661-1.3a5.684,5.684,0,0,1,2.759-.615,3.1,3.1,0,0,1,1.313.393,4.552,4.552,0,0,1,1.033.822c.584.615,1.033,1.281,1.586,1.814a3.261,3.261,0,0,0,1.829,1.033c.672.109,1.328.047,1.943.093a5.792,5.792,0,0,1,2.93,1.1,2.909,2.909,0,0,1,1.173,1.55,1.71,1.71,0,0,1,.026.692,3.1,3.1,0,0,0-.077-.677,2.94,2.94,0,0,0-1.22-1.468,5.757,5.757,0,0,0-2.878-1.033c-.6-.036-1.256.031-1.958-.072a3.431,3.431,0,0,1-1.938-1.033c-.558-.548-1.033-1.214-1.6-1.809a4.476,4.476,0,0,0-.977-.78,2.9,2.9,0,0,0-1.219-.357,5.56,5.56,0,0,0-2.646.594c-.868.4-1.71.93-2.666,1.318a5.586,5.586,0,0,1-1.519.4,8.719,8.719,0,0,1-1.6-.031,5.467,5.467,0,0,0-1.55.036,2.377,2.377,0,0,0-1.3.816,11.1,11.1,0,0,1-1.147,1.24,3.441,3.441,0,0,1-1.612.677,23.639,23.639,0,0,0-3.416.424,2.522,2.522,0,0,0-1.189.8,1.612,1.612,0,0,0-.357,1.266l-.134-.109,21.961-.155h8.852Z" transform="translate(-211.947 -78.324)" fill="#263238"/></g><g transform="translate(114.816 23.66)"><path d="M239.348,268.608l-.372,8.5s8.511,3.235,8.6,4.811l-16.5-.129.036-13.264Z" transform="translate(-223.116 -141.993)" fill="#455a64"/><path d="M236.056,283.659a.677.677,0,0,0-.475.765.646.646,0,0,0,.754.475.708.708,0,0,0,.517-.811.672.672,0,0,0-.837-.408" transform="translate(-225.291 -149.304)" fill="#e0e0e0"/><g transform="translate(7.954 138.453)" opacity="0.6"><path d="M231.07,292.938l.057-1.338,15.8.625s.734.326.646.842Z" transform="translate(-231.07 -291.6)" fill="#fff"/></g><path d="M245.474,284.931c0,.083-.408.119-.806.372s-.61.594-.687.563.052-.517.517-.8S245.489,284.843,245.474,284.931Z" transform="translate(-229.345 -149.889)" fill="#263238"/><path d="M249.194,286.358c0,.077-.331.212-.61.548s-.357.7-.439.7-.129-.46.222-.878S249.194,286.28,249.194,286.358Z" transform="translate(-231.34 -150.597)" fill="#263238"/><path d="M252.012,289.116c-.072,0-.181-.388.026-.827s.589-.61.625-.543-.2.3-.372.661S252.09,289.111,252.012,289.116Z" transform="translate(-233.192 -151.278)" fill="#263238"/><path d="M245.032,280.947c-.036.072-.4-.041-.863,0s-.811.171-.853.1.3-.351.842-.377S245.069,280.885,245.032,280.947Z" transform="translate(-229.033 -147.863)" fill="#263238"/><path d="M288.973,268.608l-.367,8.5s8.516,3.235,8.6,4.811l-16.5-.129.036-13.264Z" transform="translate(-247.101 -141.993)" fill="#455a64"/><path d="M285.677,283.658a.682.682,0,0,0-.475.765.646.646,0,0,0,.754.475.7.7,0,0,0,.517-.811.667.667,0,0,0-.837-.408" transform="translate(-249.272 -149.302)" fill="#e0e0e0"/><g transform="translate(33.594 138.453)" opacity="0.6"><path d="M280.69,292.938l.057-1.338,15.8.625s.734.326.646.842Z" transform="translate(-280.69 -291.6)" fill="#fff"/></g><path d="M295.1,284.931c0,.083-.408.119-.806.372s-.61.594-.682.563.046-.517.517-.8S295.121,284.843,295.1,284.931Z" transform="translate(-253.331 -149.889)" fill="#263238"/><path d="M298.816,286.358c0,.077-.331.212-.61.548s-.357.7-.439.7-.124-.46.227-.878S298.816,286.28,298.816,286.358Z" transform="translate(-255.321 -150.597)" fill="#263238"/><path d="M301.633,289.116c-.072,0-.181-.388.031-.827s.584-.61.62-.543-.2.3-.367.661S301.716,289.111,301.633,289.116Z" transform="translate(-257.172 -151.278)" fill="#263238"/><path d="M294.657,280.947c-.036.072-.4-.041-.858,0s-.811.171-.853.1.3-.351.837-.377S294.7,280.885,294.657,280.947Z" transform="translate(-253.018 -147.863)" fill="#263238"/><path d="M229.664,41.76a29.645,29.645,0,0,1-1.452-4.857,10.241,10.241,0,0,1,.222-5.017c.078-.243.78-1.881,1.033-1.865.181,0-.233,1.55-.134,1.69a8.686,8.686,0,0,1,1.168,5.017,22.683,22.683,0,0,1-.837,5.017" transform="translate(-221.633 -26.734)" fill="#263238"/><path d="M231.668,48.143l-.615-15.352c-.289-4.232,1.6-8.03,5.844-8.2h.46a7.518,7.518,0,0,1,7.369,7.038c.233,3.689.444,7.782.382,9.761-.119,4.067-4.2,4.651-4.2,4.651s.176,2.951.207,4.134c0,0-.434.315-4.227.45A5.618,5.618,0,0,1,231.668,48.143Z" transform="translate(-223.094 -24.11)" fill="#ffbf9d"/><path d="M245.245,64.519A9.818,9.818,0,0,1,240,62.86s1.24,2.982,5.307,2.687Z" transform="translate(-227.432 -42.604)" fill="#ff9a6c"/><path d="M253.743,44.89a.579.579,0,0,1-.569.579.563.563,0,0,1-.594-.517.584.584,0,0,1,.574-.574A.553.553,0,0,1,253.743,44.89Z" transform="translate(-233.511 -33.672)" fill="#263238"/><path d="M253.391,41.97c-.072.078-.517-.258-1.137-.269s-1.085.295-1.152.217.041-.165.243-.31a1.6,1.6,0,0,1,.93-.269,1.55,1.55,0,0,1,.9.31C253.365,41.8,253.427,41.939,253.391,41.97Z" transform="translate(-232.787 -32.204)" fill="#263238"/><path d="M242.321,44.97c-.072.072-.517-.258-1.132-.269s-1.09.295-1.157.217.041-.171.248-.31a1.55,1.55,0,0,1,.925-.269,1.514,1.514,0,0,1,.9.3C242.295,44.8,242.357,44.933,242.321,44.97Z" transform="translate(-227.437 -33.653)" fill="#263238"/><path d="M247.977,47.219a3.943,3.943,0,0,1,1.033-.165c.16,0,.31-.041.341-.15a.806.806,0,0,0-.1-.475L248.8,45.2A21.657,21.657,0,0,1,247.77,42a20.838,20.838,0,0,1,1.261,3.1l.434,1.23a.9.9,0,0,1,.067.625.393.393,0,0,1-.264.233,1.39,1.39,0,0,1-.274.031,3.891,3.891,0,0,1-1.018,0Z" transform="translate(-231.187 -32.523)" fill="#263238"/><path d="M241.857,41.779c-.077.165-.692.031-1.431.052s-1.349.171-1.431,0c-.036-.072.083-.222.336-.367a2.475,2.475,0,0,1,2.181-.041C241.769,41.557,241.893,41.7,241.857,41.779Z" transform="translate(-226.943 -32.131)" fill="#263238"/><path d="M253.714,37.611c-.093.165-.615.129-1.2.248s-1.07.331-1.214.212c-.067-.062,0-.217.171-.393a1.886,1.886,0,0,1,.93-.444,1.933,1.933,0,0,1,1.033.072C253.668,37.419,253.766,37.549,253.714,37.611Z" transform="translate(-232.878 -30.201)" fill="#263238"/><path d="M229.053,46.116c-.072-.031-2.785-.873-2.744,1.907a2.1,2.1,0,0,0,2.832,2.093C229.146,50.038,229.053,46.116,229.053,46.116Z" transform="translate(-220.815 -34.443)" fill="#ffbf9d"/><path d="M228.8,49.933a.852.852,0,0,1-.134.072.465.465,0,0,1-.362,0,1.2,1.2,0,0,1-.568-1.07,1.6,1.6,0,0,1,.124-.7.574.574,0,0,1,.362-.377.243.243,0,0,1,.284.129c.041.078,0,.134.041.14s.057-.047.031-.165a.315.315,0,0,0-.109-.171.367.367,0,0,0-.269-.067.667.667,0,0,0-.517.439,1.648,1.648,0,0,0-.16.78,1.25,1.25,0,0,0,.729,1.188.517.517,0,0,0,.439-.078C228.8,49.995,228.8,49.933,228.8,49.933Z" transform="translate(-221.404 -35.289)" fill="#ff9a6c"/><path d="M241.467,26.683c.444-.264-.94-1.69-2.067-2.165a9.929,9.929,0,0,0-5.787-.656,6.792,6.792,0,0,0-4.263,3.245,11,11,0,0,0-1.1,5.617,3.349,3.349,0,0,0,.429,1.695c.4.6,1.157.977,1.147,1.824a1.168,1.168,0,0,0,.31.842c.517.517,1.132,0,1.406-.517a8.033,8.033,0,0,0,.651-3.658,8.221,8.221,0,0,0-.238-2.64c-.15-.46-.377-.894-.517-1.364a1.664,1.664,0,0,1,.16-1.4,1.743,1.743,0,0,1,.222-.233,2.909,2.909,0,0,1,2.868-.615c1.581.517,4.279,1.281,4.966.734a4.232,4.232,0,0,0,1.214-1.292Z" transform="translate(-221.742 -23.66)" fill="#263238"/><path d="M246.673,54.3c0,.047-.139.14-.419.171a2,2,0,0,1-1.07-.191,1.969,1.969,0,0,1-.847-.687c-.15-.238-.176-.413-.134-.434a4.485,4.485,0,0,0,1.111.816A13.261,13.261,0,0,0,246.673,54.3Z" transform="translate(-229.455 -37.916)" fill="#263238"/><path d="M322.613,41.651S322.5,41,322.185,41a1.137,1.137,0,0,0-1.033.651C320.929,42.126,322.613,41.651,322.613,41.651Z" transform="translate(-266.64 -32.04)" fill="#ffbf9d"/><path d="M307.462,51.821l.32-5.131,1.033-5.286s.806-.858,1.235-.661.269.909.269.909,1.126-1.219,1.55-.94.269.94.269.94,1.033-1.354,1.5-.982,0,.982,0,.982.636,5.917.315,8.035a3.917,3.917,0,0,1-2.124,2.9l-.853,3.328-4.2-2.284Z" transform="translate(-259.704 -31.849)" fill="#ffbf9d"/><path d="M291.739,46.768l-22.809-.253V44.691l22.809-.641Z" transform="translate(-241.413 -33.514)" fill="#f8951d"/><path d="M329.257,46.885l-32.229-1.359a5.41,5.41,0,0,1,0-3.56l32.037-1.416A5.453,5.453,0,0,1,329.257,46.885Z" transform="translate(-254.846 -31.823)" fill="#f8951d"/><path d="M358.2,41.12a3.935,3.935,0,0,0-.935,2.889A3.784,3.784,0,0,0,358.3,46.82a4.232,4.232,0,0,0,.9-3.1A3.756,3.756,0,0,0,358.2,41.12Z" transform="translate(-284.104 -32.098)" fill="#e0e0e0"/><path d="M355.4,46.958a2.294,2.294,0,0,1-.625-.78,4.537,4.537,0,0,1-.636-2.341,5.167,5.167,0,0,1,.563-2.351,1.969,1.969,0,0,1,.63-.785c.036,0-.212.32-.46.868a5.932,5.932,0,0,0-.465,2.274,5,5,0,0,0,.517,2.248,8.546,8.546,0,0,1,.475.868Z" transform="translate(-282.592 -31.895)" fill="#263238"/><path d="M358.216,40.69c.036.031-.2.331-.46.878a5.069,5.069,0,0,0,.088,4.532,2.465,2.465,0,0,0,.574.775.491.491,0,0,1-.258-.109,1.886,1.886,0,0,1-.481-.574,4.651,4.651,0,0,1-.088-4.713,2.149,2.149,0,0,1,.625-.791Z" transform="translate(-283.971 -31.89)" fill="#263238"/><path d="M359.505,43.528a.781.781,0,0,0-.171-.279.331.331,0,0,0-.3-.1.31.31,0,0,0-.227.222.465.465,0,0,0,.036.32c.119.233.31.45.3.682a6.315,6.315,0,0,0-.047.7.48.48,0,0,0,.077.238.233.233,0,0,0,.217.109c.139,0,.207-.176.238-.31a2.615,2.615,0,0,0-.124-1.576Z" transform="translate(-284.841 -33.075)" fill="#fff"/><path d="M296.88,46.954a3.79,3.79,0,0,1,.078-3.684c.078.031-.222.822-.233,1.84S296.957,46.928,296.88,46.954Z" transform="translate(-254.703 -33.137)" fill="#263238"/><path d="M268.516,47.2h0a.346.346,0,0,1-.346-.346V44.926a.346.346,0,0,1,.346-.346h0a.351.351,0,0,1,.351.346v1.938A.351.351,0,0,1,268.516,47.2Z" transform="translate(-241.045 -33.77)" fill="#f8951d"/><path d="M268.471,47.079a.263.263,0,0,0,.186-.119.3.3,0,0,0,.088-.207v-.362c0-.31,0-.63-.026-.961v-.568a.222.222,0,0,0-.217-.274.227.227,0,0,0-.217.274v.568q0,.517-.031.961v.362a.289.289,0,0,0,.083.207c.093.093.191.1.186.119s-.1.057-.253-.036a.387.387,0,0,1-.165-.274v-.377c0-.31,0-.63-.026-.961v-.568a.517.517,0,0,1,.108-.367.486.486,0,0,1,.372-.176.478.478,0,0,1,.481.543v.568q0,.517-.031.961v.377a.408.408,0,0,1-.171.274C268.553,47.136,268.466,47.09,268.471,47.079Z" transform="translate(-241 -33.644)" fill="#263238"/><path d="M275.732,48.676s-.486-5.989-.341-6.516,1.793-2.377,2.372-2.439.641.579.641.579a3.617,3.617,0,0,1,1.607-.584.878.878,0,0,1,.951.718,1.731,1.731,0,0,1,1.276-.2c.341.062.734.661.734.661s.842-.362,1.245,0a1.989,1.989,0,0,1,.517,1.323,2.548,2.548,0,0,0-1.5.475,31.9,31.9,0,0,1-.532,3.886c-.32,1.281-1.591,2.346-2.02,3.007l-.336,4.428L274.9,51.141Z" transform="translate(-244.298 -31.417)" fill="#ffbf9d"/><path d="M278.865,42.976a2.026,2.026,0,0,1,.45-1.55,2,2,0,0,1,1.307-.956,9.12,9.12,0,0,0-1.085,1.111,10.006,10.006,0,0,0-.672,1.4Z" transform="translate(-246.206 -31.784)" fill="#ff9a6c"/><path d="M283.928,43.094a1.581,1.581,0,0,1,.227-1.421,1.622,1.622,0,0,1,.806-.682c.258-.088.429-.067.434-.036a2.249,2.249,0,0,0-1.008.863A6.614,6.614,0,0,0,283.928,43.094Z" transform="translate(-248.623 -32.005)" fill="#ff9a6c"/><path d="M287.8,43.33c-.072,0,.047-.584.558-1.033a1.445,1.445,0,0,1,1.085-.455c.005.062-.46.243-.9.656S287.895,43.356,287.8,43.33Z" transform="translate(-250.524 -32.437)" fill="#ff9a6c"/><path d="M311.944,53.231c.909-1.07.217-3.948.217-3.948a2.584,2.584,0,0,0,1.607-1.69c.32-1.287-.32-1.5-.32-1.5-.217.109-2.2,1.4-3.219,1.933s-1.338,5.994-1.338,5.994" transform="translate(-260.724 -34.5)" fill="#ffbf9d"/><path d="M308.871,53.837a3.235,3.235,0,0,1,0-.718c.026-.46.072-1.121.171-1.943a11.672,11.672,0,0,1,.641-2.837,2.186,2.186,0,0,1,.217-.382.987.987,0,0,1,.367-.295c.248-.134.517-.279.749-.429l1.55-.956c.269-.165.517-.326.8-.486l.052-.031.052.026a.811.811,0,0,1,.429.517,1.55,1.55,0,0,1,.067.589,2.584,2.584,0,0,1-1.788,2.356l.072-.134a8.035,8.035,0,0,1,.145,2.966,2.5,2.5,0,0,1-.279.785.982.982,0,0,1-.191.222,1.174,1.174,0,0,1,.129-.258,2.7,2.7,0,0,0,.217-.77,8.629,8.629,0,0,0-.238-2.889l-.026-.1.1-.036a2.584,2.584,0,0,0,1.349-1.188,2.428,2.428,0,0,0,.248-.966.842.842,0,0,0-.32-.827h.1c-.243.14-.517.315-.77.475-.517.331-1.033.651-1.55.956-.253.15-.517.295-.76.429a.718.718,0,0,0-.289.222,1.385,1.385,0,0,0-.191.331,11.937,11.937,0,0,0-.677,2.759c-.124.811-.2,1.473-.258,1.927a3.777,3.777,0,0,1-.114.682Z" transform="translate(-260.705 -34.34)" fill="#ff9a6c"/><path d="M230.705,150.217s.636,26.007,0,29.18S229,195.679,229,205.4s.408,11.942.408,11.942h9.441s.672-18.489,3.586-29.2c2.708-9.937,5.824-25.046,5.824-31.6V147.68H231.553Z" transform="translate(-222.116 -83.595)" fill="#263238"/><path d="M269.58,147.68s9.906,27.49,10.541,35.525.661,34.14.661,34.14h-9.777l-1.3-31.521-7.524-20.432V147.68Z" transform="translate(-238.151 -83.595)" fill="#263238"/><path d="M262.665,176.33a4.281,4.281,0,0,1-.124.744c-.1.517-.233,1.209-.393,2.026-.336,1.762-.785,4.1-1.276,6.687s-.982,4.976-1.359,6.676c-.191.853-.357,1.55-.481,2.01a3.933,3.933,0,0,1-.222.729,4.208,4.208,0,0,1,.124-.749c.1-.517.233-1.209.388-2.026.341-1.762.785-4.1,1.281-6.692s.982-4.971,1.359-6.671c.191-.853.357-1.55.481-2.01A3.621,3.621,0,0,1,262.665,176.33Z" transform="translate(-236.522 -97.441)" fill="#455a64"/><path d="M268.3,123.244h2.093s.481-7.234-.729-12.138-7.389-26.188-7.389-26.188l-6.842-11.285L251.76,72l12.05,40.4Z" transform="translate(-233.115 -47.021)" fill="#455a64"/><path d="M266.843,103.24s6.335,18.773,7.384,23.692a110.262,110.262,0,0,1,1.592,11.409h-1.354l-4.976-13.1s-5.167-20.835-4.945-20.783A15.072,15.072,0,0,0,266.843,103.24Z" transform="translate(-239.29 -62.119)" opacity="0.3"/><path d="M229.5,67.737l.568-3.617,10.107,4.537V66.471l4.465,7.451,9.818,27.9c.315.863.7,3.726.124,4.444l-.8,1.033-10.645,1.38L233.045,72.228Z" transform="translate(-222.357 -43.213)" fill="#e0e0e0"/><path d="M232.716,156.637s13.518,1.514,16.287.413a4.7,4.7,0,0,0,2.9-3.932s1.354-9.6,1.261-11.714a41.984,41.984,0,0,0-.878-5.824l-19.6,19.362Z" transform="translate(-223.899 -77.747)" opacity="0.3"/><path d="M252.44,78.832s4.62,15.729,4.583,15.843,5.121,16.1,5.121,16.1l1.033-4.811L256,81.99l-2.889-3.54Z" transform="translate(-233.444 -50.138)" fill="#f8951d"/><path d="M219.818,69.776c-4.738,2.889-4.981,7.369-2.873,12.5.346.853,1.033,2.315,1.488,3.307C220.469,89.924,224.7,97,224.7,98.651c0,3.9-3.488,21.966-3.488,21.966s18.9,2.294,20.607.517,3.018-12.918,2.47-17.9c-.6-5.5-3.436-14.8-4.583-18.241a40.91,40.91,0,0,0-5.684-10.6,30.854,30.854,0,0,0-7.167-6.5L222.83,65.26,222,68.05A14.289,14.289,0,0,1,219.818,69.776Z" transform="translate(-215.678 -43.764)" fill="#455a64"/><path d="M259.29,72.05c.393,0,17.667,5.643,16.665,5.229l.465-.486,6.2-9.384,5.684,3.364s-5.617,10.753-6.547,12.443a5.167,5.167,0,0,1-4.583,2.718c-1.266,0-12.086-1.814-12.086-1.814Z" transform="translate(-236.754 -44.803)" fill="#455a64"/><path d="M272.74,61.677l1.338-2.367,6.015,3.426-.935,2.6Z" transform="translate(-243.254 -40.889)" fill="#e0e0e0"/><path d="M221.53,96.591s11.611,6.454,15.306,7.327,7.813,2.036,7.813,2.036l-1.659-5.281L232.9,94.54Z" transform="translate(-218.506 -57.914)" opacity="0.3"/><path d="M218.809,81.639c-.145-.109,17.419,6.139,21,5.012s4.738-4.651,6.02-6.857c2.341-3.994,6.49-11.942,6.49-11.942L244.889,63.6l-7.4,12.4s-13.1-5.405-14.3-5.756-4.93-.837-6.749,3.519C214.4,78.585,218.809,81.639,218.809,81.639Z" transform="translate(-215.785 -42.962)" fill="#455a64"/><path d="M218.761,81.441a.542.542,0,0,1-.134-.083c-.083-.062-.207-.16-.362-.295a7.751,7.751,0,0,1-1.209-1.328A6.531,6.531,0,0,1,215.9,77.1a5.855,5.855,0,0,1-.1-.878c0-.3.031-.62.041-.951a3.727,3.727,0,0,1,.217-.982,8.678,8.678,0,0,1,.372-1,6.816,6.816,0,0,1,1.25-1.933,5.074,5.074,0,0,1,2.108-1.354,5.684,5.684,0,0,1,2.7-.212,5.912,5.912,0,0,1,1.38.393l1.369.517c3.689,1.452,7.8,3.131,12.226,4.95l-.155.052,7.394-12.4.067-.114.114.067,2.682,1.55,4.769,2.723.114.062-.062.114c-1.462,2.79-2.9,5.493-4.32,8.071-.713,1.292-1.416,2.553-2.129,3.777s-1.261,2.48-2,3.617a8.376,8.376,0,0,1-2.785,2.78,5.823,5.823,0,0,1-1.778.687,8.055,8.055,0,0,1-1.834,0,45.265,45.265,0,0,1-6.459-1.323c-3.886-1.033-6.955-2.067-9.063-2.749s-3.255-1.126-3.255-1.126a.77.77,0,0,1,.217.052l.63.2,2.434.785c2.124.667,5.2,1.654,9.079,2.666a45.152,45.152,0,0,0,6.438,1.287,7.906,7.906,0,0,0,1.783,0,5.731,5.731,0,0,0,1.695-.667,8.128,8.128,0,0,0,2.7-2.718c.734-1.111,1.281-2.377,1.995-3.617s1.406-2.48,2.113-3.767c1.411-2.584,2.852-5.286,4.31-8.077l.057.181-4.785-2.713-2.677-1.55.181-.047c-2.615,4.361-5.116,8.547-7.41,12.4l-.057.093-.1-.041c-4.408-1.824-8.542-3.514-12.2-4.986L223.8,70.4a5.632,5.632,0,0,0-1.338-.393,5.544,5.544,0,0,0-2.615.191,4.93,4.93,0,0,0-2.041,1.3,6.764,6.764,0,0,0-1.235,1.865,8.387,8.387,0,0,0-.372.977c-.1.32-.145.651-.217.961a3.3,3.3,0,0,0-.052.925,5.741,5.741,0,0,0,.088.863,6.526,6.526,0,0,0,1.106,2.609,8.077,8.077,0,0,0,1.173,1.343c.145.14.264.238.346.3Z" transform="translate(-215.737 -42.764)" fill="#263238"/><path d="M237.87,146.657l1.628-3.3,11.389.2-1.266,3.41Z" transform="translate(-226.402 -81.507)" fill="#455a64"/><path d="M237.87,146.56h3.405c2.1.031,5.012.072,8.35.155l-.129.088c.388-1.033.791-2.134,1.209-3.255l.057-.155.124.181c-4.589-.083-8.681-.171-11.368-.248l.077-.047-1.25,2.382c-.14.264-.253.475-.341.651a1.969,1.969,0,0,1-.134.233.486.486,0,0,1,.088-.212c.088-.145.181-.382.3-.646l1.163-2.475v-.052h.067c2.708,0,6.8.072,11.368.155h.191l-.067.176-.057.155-1.209,3.25-.036.088h-.093c-3.4-.1-6.366-.212-8.454-.295l-2.439-.1-.641-.031A1.16,1.16,0,0,1,237.87,146.56Z" transform="translate(-226.402 -81.411)" fill="#263238"/><path d="M240.653,77.92c-.036.067-2.92-1.519-6.444-3.54s-6.345-3.71-6.309-3.772,2.92,1.519,6.444,3.54S240.694,77.858,240.653,77.92Z" transform="translate(-221.584 -46.348)" fill="#263238"/><path d="M248.756,132.137c0,.072-2.744-.041-6.123-.258s-6.118-.45-6.113-.517,2.749.041,6.128.258S248.761,132.064,248.756,132.137Z" transform="translate(-225.75 -75.699)" fill="#263238"/><path d="M305.17,66.093l1.147-1.933,4.547,2.656-.884,2.1Z" transform="translate(-258.926 -43.232)" fill="#e0e0e0"/><path d="M292.562,90.57a4.692,4.692,0,0,1-1.333-3.87c.077,0,.1.93.475,2S292.644,90.524,292.562,90.57Z" transform="translate(-252.173 -54.125)" fill="#263238"/><path d="M272.31,97.76a21.9,21.9,0,0,1,1.07,3.224,21.1,21.1,0,0,1,.811,3.3,22.375,22.375,0,0,1-1.07-3.224,21.111,21.111,0,0,1-.811-3.3Z" transform="translate(-243.046 -59.47)" fill="#263238"/><path d="M257.933,91.443a3.9,3.9,0,0,1-.667-3.963,13.434,13.434,0,0,0,.052,2.031A13.318,13.318,0,0,0,257.933,91.443Z" transform="translate(-235.645 -54.502)" fill="#263238"/><path d="M239.452,146.866l-.2,1,11.792.331.512-4.444-1.266,3.41Z" transform="translate(-227.069 -81.696)" opacity="0.3"/><path d="M249.68,75.478l.124.134,1.3.92.651-.367-.424-1.442-1.375-1.033Z" transform="translate(-232.11 -47.838)" fill="#f8951d"/><path d="M248.127,73.473a6.133,6.133,0,0,1,.295,1.245l.041.222-.191-.134c-.455-.32-1.033-.744-1.7-1.23l.207-.083c-.062.408-.129.837-.2,1.282-.047.269-.088.517-.124.78l-.031.181-.16-.083c-.992-.486-1.855-.92-2.47-1.245a5.21,5.21,0,0,1-.966-.563,4.909,4.909,0,0,1,1.033.408c.636.279,1.519.687,2.511,1.163l-.186.1.119-.78c.072-.444.14-.873.207-1.276l.036-.217.171.129c.651.517,1.225.946,1.659,1.292l-.15.088A6.389,6.389,0,0,1,248.127,73.473Z" transform="translate(-228.799 -47.621)" fill="#263238"/></g></g></svg>