<svg xmlns="http://www.w3.org/2000/svg" width="250" height="299.177" viewBox="0 0 250 299.177"><g transform="translate(-97.81 -108.84)"><g transform="translate(113.772 402.25)"><rect width="19.102" height="0.835" transform="translate(0)" fill="#263238"/><rect width="211.74" height="0.835" transform="translate(22.298)" fill="#263238"/></g><g transform="translate(97.81 108.84)"><path d="M354.189,127.618l-9.389-9.389,9.389-9.389,9.389,9.389Zm-8.212-9.389,8.212,8.2,8.2-8.2-8.2-8.212Z" transform="translate(-138.664 -108.84)" fill="#263238"/><path d="M242.919,347.008l-9.389-9.389,9.389-9.389,9.364,9.389Zm-8.212-9.389,8.212,8.2,8.2-8.2-8.2-8.212Z" transform="translate(-120.259 -145.128)" fill="#263238"/><path d="M102.634,197.578l-4.824-4.824,4.824-4.824,4.824,4.824Zm-3.647-4.824,3.647,3.647,3.639-3.647-3.639-3.639Z" transform="translate(-97.81 -121.922)" fill="#263238"/><path d="M270.474,329.548l-4.824-4.824,4.824-4.824,4.824,4.824Zm-3.647-4.824,3.647,3.639,3.647-3.639-3.647-3.647Z" transform="translate(-125.572 -143.751)" fill="#263238"/></g><g transform="translate(183.893 361.599)"><path d="M203.079,424.379a11.684,11.684,0,0,0,3.455.384s-.526-1.6-.576-1.669c-.534-1.127-2.237-2.979-3.622-2.8a1.669,1.669,0,0,0-1.327,2.07,3.455,3.455,0,0,0,2.07,2.011Z" transform="translate(-200.954 -413.114)" fill="#263238"/><path d="M203.961,430.06a11.592,11.592,0,0,0,3.405-.534,27.641,27.641,0,0,0,1.327,3.664c.3.7.618,1.394.96,2.078l-.409-.584c-.835-.943-2.946-2.287-4.231-1.736a1.669,1.669,0,0,0-.734,2.345,3.438,3.438,0,0,0,2.5,1.427,10.958,10.958,0,0,0,3.338-.509l.392.793c.634,1.26,1.269,2.5,1.861,3.764.209.442.392.885.584,1.327-.175-.259-.334-.476-.359-.509-.835-.943-2.946-2.287-4.231-1.736a1.669,1.669,0,0,0-.726,2.345,3.455,3.455,0,0,0,2.5,1.427,10.8,10.8,0,0,0,3.213-.484c.184.459.367.918.517,1.369.1.309.217.6.3.918s.167.618.259.926c.142.6.292,1.21.417,1.794.092.409.167.835.25,1.193-.2-.442-.618-1.3-.659-1.369-.659-1.052-2.562-2.7-3.914-2.354a1.669,1.669,0,0,0-1.085,2.2,3.48,3.48,0,0,0,2.287,1.794,11.408,11.408,0,0,0,3.422,0c.134.643.25,1.277.359,1.878.075.442.15.835.217,1.277h.835q-.125-.684-.275-1.427c-.125-.659-.275-1.36-.442-2.086a15.761,15.761,0,0,0,1.911-.893,12.2,12.2,0,0,0,2.779,1.794c-.25.609-.492,1.2-.734,1.761l-.384.835h.926c.067-.175.142-.351.217-.526.25-.626.517-1.294.776-1.978a11.61,11.61,0,0,0,3.413.259,3.422,3.422,0,0,0,2.412-1.611,1.669,1.669,0,0,0-.91-2.287c-1.327-.442-3.338,1.06-4.081,2.061,0,.058-.451.751-.693,1.193.1-.275.209-.551.317-.835.209-.576.4-1.16.609-1.778.092-.309.184-.618.284-.926s.159-.643.242-.968c.184-.759.325-1.527.459-2.312a10.773,10.773,0,0,0,3.238.743,3.455,3.455,0,0,0,2.629-1.235,1.669,1.669,0,0,0-.551-2.4c-1.244-.634-3.464.542-4.348,1.419-.058.058-.618.759-.926,1.152.075-.467.15-.943.217-1.419.167-1.385.3-2.8.434-4.173,0-.426.092-.835.134-1.285a11.483,11.483,0,0,0,3.338.785,3.439,3.439,0,0,0,2.637-1.227,1.669,1.669,0,0,0-.559-2.4c-1.235-.643-3.464.534-4.348,1.419-.067.067-.835,1.077-1.068,1.344.1-.943.209-1.886.351-2.8a28.91,28.91,0,0,1,.835-3.689,11.575,11.575,0,0,0,3.338.793,3.472,3.472,0,0,0,2.637-1.227,1.669,1.669,0,0,0-.559-2.4c-1.244-.643-3.464.534-4.348,1.419-.067.067-.943,1.152-1.085,1.36a.288.288,0,0,1,.058-.209,20.934,20.934,0,0,1,1.461-3.489c.317-.626.659-1.2.993-1.753a10.958,10.958,0,0,0,3.188,1.118,3.447,3.447,0,0,0,2.754-.935,1.669,1.669,0,0,0-.284-2.437c-1.168-.776-3.505.15-4.482.926l-.9.893c.159-.242.317-.5.476-.734.584-.885,1.177-1.669,1.669-2.329.3-.384.584-.718.835-1.035a10.981,10.981,0,0,0,3.338-.476,3.489,3.489,0,0,0,2.011-2.095,1.669,1.669,0,0,0-1.252-2.061c-1.385-.15-3.038,1.753-3.547,2.888-.042.1-.551,1.719-.526,1.719h0c-.267.3-.542.618-.835.977-.542.668-1.143,1.427-1.753,2.3a28.146,28.146,0,0,0-1.819,2.9,20.864,20.864,0,0,0-1.552,3.5v-1.619c-.159-1.235-1.193-3.53-2.571-3.789a1.669,1.669,0,0,0-1.9,1.561,3.5,3.5,0,0,0,1.327,2.587,11.836,11.836,0,0,0,3.13,1.427,30.252,30.252,0,0,0-.918,3.789c-.134.751-.242,1.5-.342,2.262v-.709c-.159-1.235-1.193-3.53-2.562-3.789a1.669,1.669,0,0,0-1.911,1.561,3.472,3.472,0,0,0,1.327,2.579,10.923,10.923,0,0,0,3.038,1.4,6.13,6.13,0,0,1-.108.835c-.167,1.4-.334,2.8-.534,4.173-.067.484-.15.96-.242,1.427v-.618c-.159-1.235-1.193-3.53-2.562-3.781a1.669,1.669,0,0,0-1.911,1.552,3.5,3.5,0,0,0,1.327,2.587,10.726,10.726,0,0,0,2.946,1.369c-.1.484-.2.96-.317,1.427-.092.309-.159.618-.267.926s-.192.618-.292.918c-.209.576-.426,1.177-.643,1.728-.15.392-.3.759-.451,1.135.075-.484.209-1.427.209-1.5a6.452,6.452,0,0,0-.835-3.121,1.811,1.811,0,0,0,0-.367,1.669,1.669,0,0,0-2.02-1.4c-1.344.359-2.2,2.729-2.27,3.973,0,.075.05.876.083,1.385-.067-.3-.125-.584-.2-.885-.142-.593-.3-1.185-.467-1.828-.092-.3-.184-.609-.284-.918s-.217-.626-.325-.943c-.267-.734-.568-1.461-.893-2.187a10.942,10.942,0,0,0,3.113-1.16,3.455,3.455,0,0,0,1.511-2.5,1.669,1.669,0,0,0-1.786-1.669c-1.385.15-2.587,2.362-2.838,3.58,0,.075-.1.976-.134,1.469-.2-.434-.4-.835-.609-1.3-.626-1.252-1.294-2.5-1.953-3.739l-.593-1.143a11.535,11.535,0,0,0,3.063-1.093,3.438,3.438,0,0,0,1.519-2.5,1.669,1.669,0,0,0-1.786-1.669c-1.385.15-2.6,2.362-2.846,3.58,0,.092-.134,1.385-.15,1.711-.434-.835-.835-1.669-1.252-2.5a28.566,28.566,0,0,1-1.327-3.622,11.634,11.634,0,0,0,3.247-1.193,3.455,3.455,0,0,0,1.511-2.5,1.669,1.669,0,0,0-1.778-1.669c-1.394.15-2.6,2.362-2.846,3.58,0,.1-.15,1.486-.15,1.736l-.075-.209a21.005,21.005,0,0,1-.7-3.714c-.083-.693-.117-1.36-.134-2.011a11.017,11.017,0,0,0,3.272-.835,3.438,3.438,0,0,0,1.778-2.3,1.669,1.669,0,0,0-1.586-1.878c-1.394,0-2.838,2.061-3.222,3.247,0,.067-.159.751-.25,1.244v-.876c0-1.06.067-2.02.134-2.879.042-.484.092-.926.142-1.335a11.067,11.067,0,0,0,2.5-2.228,3.447,3.447,0,0,0,.517-2.863,1.669,1.669,0,0,0-2.27-.935c-1.244.643-1.569,3.138-1.36,4.365,0,.109.484,1.736.5,1.728h0c-.05.392-.108.835-.159,1.277-.083.835-.167,1.828-.192,2.888a28.241,28.241,0,0,0,.075,3.422,21.59,21.59,0,0,0,.634,3.772.117.117,0,0,1,0,.05,15.759,15.759,0,0,0-.926-1.36c-.835-.943-2.946-2.287-4.223-1.736a1.669,1.669,0,0,0-.734,2.345,3.464,3.464,0,0,0,2.546,1.461Z" transform="translate(-200.993 -411.693)" fill="#263238"/><path d="M232.534,424.609s.442-1.627.459-1.736c.167-1.235-.225-3.722-1.477-4.332a1.669,1.669,0,0,0-2.253.993,3.455,3.455,0,0,0,.6,2.846A11.685,11.685,0,0,0,232.534,424.609Z" transform="translate(-205.622 -412.803)" fill="#263238"/></g><g transform="translate(147.435 122.152)"><rect width="141.18" height="53.982" rx="26.991" transform="translate(0 3.747)" fill="#263238"/><circle cx="30.312" cy="30.312" r="30.312" transform="translate(84.244 0.417)" fill="#f8951d"/><path d="M288.438,186.249a30.73,30.73,0,1,1,30.721-30.727,30.73,30.73,0,0,1-30.721,30.727Zm0-60.617a29.9,29.9,0,1,0,29.887,29.89A29.9,29.9,0,0,0,288.438,125.633Z" transform="translate(-173.882 -124.79)" fill="#263238"/><path d="M206.638,174.891a3.338,3.338,0,0,1-2.362-.976L187.159,156.8a3.338,3.338,0,0,1,4.715-4.715l14.4,14.388L226.4,139.5a3.339,3.339,0,0,1,5.35,4l-22.442,30.045a3.338,3.338,0,0,1-2.437,1.327Z" transform="translate(-162.071 -127.002)" fill="#f8951d"/></g><g transform="translate(187.484 165.782)"><path d="M310.691,193.94s-.334.134-2.5-1.327-5.275-1.494-6.243-.509,2.287,1.577,3.53,2.988,4.674,4.515,6.41,4.749,5.316.334,5.316.334,14.847,19.262,15.206,19.463,6.552-8.713,6.552-8.713l-17.426-13.1s-1.477-6.568-1.561-7.828,0-4.832-1.118-6.485-2.2-2.036-2.145-1.118.676,1.444.734,2.362a8.555,8.555,0,0,1,0,1.494s-1.911-2.863-2.8-4.173a13.354,13.354,0,0,0-3.288-2.771,9.089,9.089,0,0,0-2.412-1.669c-.943-.284-.392,1.06-.392,1.06s-1.385-.142-1.185,1.227,1.6,6.794,2.078,8.713S310.691,193.94,310.691,193.94Z" transform="translate(-301.341 -177.154)" fill="#fff"/><path d="M332.306,219.984a.376.376,0,0,1-.192-.067c-.284-.167-5.4-6.677-15.206-19.413-.785,0-3.63-.134-5.158-.334-2.02-.267-5.65-3.731-6.677-4.891a7.294,7.294,0,0,0-2.053-1.344c-.926-.467-1.669-.835-1.753-1.436a.835.835,0,0,1,.284-.776c1.1-1.118,4.448-1.127,6.777.451A16.4,16.4,0,0,0,310,193.211c-.259-1.11-.759-3.213-1.093-4.582l-.35-1.6c-.6-2.412-1.511-6.051-1.669-7.152a1.452,1.452,0,0,1,.317-1.269,1.419,1.419,0,0,1,.734-.392,1.043,1.043,0,0,1,.167-.918.835.835,0,0,1,.885-.167,8.612,8.612,0,0,1,2.5,1.744,13.171,13.171,0,0,1,3.38,2.871l2.07,3.08v-.134a3.054,3.054,0,0,0-.326-1.035,3.655,3.655,0,0,1-.409-1.327.776.776,0,0,1,.484-.885c.9-.317,2.086,1.252,2.42,1.744,1.027,1.469,1.11,4.24,1.16,5.9v.785c.075,1.11,1.294,6.677,1.511,7.62L339.091,210.5a.426.426,0,0,1,.092.576C333.767,218.924,332.757,219.984,332.306,219.984Zm-28.151-28.226a2.979,2.979,0,0,0-1.995.551.243.243,0,0,0-.058.075,4.532,4.532,0,0,0,1.31.835,7.845,7.845,0,0,1,2.3,1.536c1.285,1.461,4.624,4.407,6.151,4.607,1.669.225,5.233.334,5.266.334a.425.425,0,0,1,.317.167c5.417,7.019,13.454,17.385,14.931,19.2.835-.91,3.522-4.607,5.926-8.062l-17.109-12.861a.392.392,0,0,1-.15-.242c-.067-.267-1.477-6.618-1.569-7.9v-.835c-.05-1.569-.134-4.173-1.018-5.45a4.073,4.073,0,0,0-1.385-1.4h0a2.8,2.8,0,0,0,.334,1.035,3.756,3.756,0,0,1,.4,1.335,9.877,9.877,0,0,1,0,1.577.426.426,0,0,1-.768.175s-1.911-2.863-2.8-4.173a12.71,12.71,0,0,0-3.155-2.646l-.075-.058a8.037,8.037,0,0,0-2.245-1.577h0a1.878,1.878,0,0,0,.125.509.4.4,0,0,1-.05.409.426.426,0,0,1-.376.167.893.893,0,0,0-.626.175.676.676,0,0,0-.1.576c.159,1.052,1.06,4.674,1.669,7.069l.4,1.611c.476,1.92,1.277,5.316,1.277,5.316a.426.426,0,0,1-.25.484c-.167.067-.542.225-2.9-1.369a6.81,6.81,0,0,0-3.772-1.168Z" transform="translate(-301.256 -177.067)" fill="#263238"/><path d="M314.16,189.623a.4.4,0,0,1-.376-.234,37.414,37.414,0,0,1-2.253-5.9,13.72,13.72,0,0,0-2.07-4.423.416.416,0,1,1,.651-.517,14.07,14.07,0,0,1,2.22,4.724,40.062,40.062,0,0,0,2.2,5.759.4.4,0,0,1-.192.551A.342.342,0,0,1,314.16,189.623Z" transform="translate(-302.598 -177.286)" fill="#263238"/><path d="M317.654,188.978a.409.409,0,0,1-.384-.25,23.514,23.514,0,0,1-1-2.754,58.424,58.424,0,0,0-3.48-6.209.417.417,0,0,1,.134-.568.409.409,0,0,1,.576.134c.334.534,3.263,5.275,3.572,6.426a22.329,22.329,0,0,0,.968,2.637.417.417,0,0,1-.217.551A.426.426,0,0,1,317.654,188.978Z" transform="translate(-303.154 -177.409)" fill="#263238"/><path d="M321.04,190.328a.426.426,0,0,1-.4-.3l-.593-2.036a.433.433,0,0,1,.835-.234l.593,2.036a.417.417,0,0,1-.284.517Z" transform="translate(-304.361 -178.783)" fill="#263238"/><path d="M331.419,207.122s-4.607-6.543-6.343-5.842-5.3,5.408-4.882,7.169,3.455,2.746,3.455,2.746Z" transform="translate(-304.383 -181.064)" fill="#f8951d"/><path d="M323.567,211.553h-.134c-.134,0-3.272-1.085-3.731-3.055s3.338-6.9,5.133-7.653,5.717,4.382,6.844,5.984a.392.392,0,0,1,.058.334.409.409,0,0,1-.209.275l-7.77,4.09a.493.493,0,0,1-.192.025Zm1.744-10.015a.342.342,0,0,0-.159,0c-1.669.668-5.008,5.183-4.64,6.677.275,1.177,2.137,2.078,3.021,2.4l7.186-3.781c-1.97-2.646-4.423-5.258-5.408-5.258Z" transform="translate(-304.301 -180.988)" fill="#263238"/><path d="M385.824,233.895s-5.667-.225-8.571.835-8.212-1.978-10.015-2.612c-6.209-2.187-17.526-9.7-22.426-15.857-6.026-7.57-13.5-13.963-18.361-10.666s-4.924,6.585-4.549,7.745,2.245,8.446,18.7,26.156c8.2,8.855,14.839,12.193,21,15.357s12.936,6.293,12.936,6.293Z" transform="translate(-304.648 -181.639)" fill="#f8951d"/><path d="M374.467,261.487a.418.418,0,0,1-.175-.042c-.067,0-6.835-3.163-12.945-6.293l-.267-.142c-5.959-3.063-12.719-6.527-20.806-15.24C329.975,228.7,323.315,219.4,321.52,213.6l-.05-.134c-.134-.426-1.152-4.231,4.715-8.221s14.338,5.008,18.9,10.741c4.816,6.051,16.108,13.537,22.242,15.69.409.142.968.4,1.627.7,2.237,1.01,5.967,2.7,8.087,1.92,2.954-1.11,8.5-.9,8.738-.893a.409.409,0,0,1,.342.192.442.442,0,0,1,0,.384l-11.3,27.249a.367.367,0,0,1-.234.225A.326.326,0,0,1,374.467,261.487ZM329.4,205.111a4.715,4.715,0,0,0-2.721.835c-4.357,2.963-4.807,5.967-4.382,7.269l.042.142c1.761,5.684,8.346,14.864,18.57,25.872,8,8.6,14.388,11.885,20.573,15.064l.275.142c5.241,2.687,10.983,5.383,12.519,6.1l10.85-26.29c-1.519,0-5.567,0-7.812.835-2.437.91-6.218-.835-8.721-1.936-.643-.292-1.193-.542-1.561-.676-6.243-2.187-17.718-9.8-22.617-15.949-2.971-3.756-9.723-11.409-15.014-11.409Z" transform="translate(-304.575 -181.564)" fill="#263238"/><path d="M384.991,191.438s-7.152,4.54-7.845,6.877-1.1,4.54-2.2,5.775-4.54,1.669-4.807,2.754,1.786,4.265,1.786,4.265,1.511,5.642,1.786,7.428,2.061,4.54,3.439,4.54a35.713,35.713,0,0,0,4.957-.835,95.647,95.647,0,0,1,.835,9.907c-.125,2.479-.417,2.888.96,2.888s6.743-3.856,7.294-4.265,1.92-10.733,3.021-14.58.551-15.682-1.786-19.538S386.919,190.336,384.991,191.438Z" transform="translate(-312.645 -179.401)" fill="#fff"/><path d="M383.806,235.383a1.577,1.577,0,0,1-1.219-.351c-.342-.376-.309-.918-.225-2,0-.284.042-.609.067-.976a86.22,86.22,0,0,0-.768-9.372,30.2,30.2,0,0,1-4.6.734c-1.669,0-3.564-3-3.848-4.891-.259-1.669-1.594-6.677-1.769-7.328-.426-.659-2.095-3.338-1.8-4.532.2-.835,1.269-1.2,2.5-1.669a6.735,6.735,0,0,0,2.4-1.252c.835-.918,1.235-2.454,1.728-4.231.125-.459.25-.918.384-1.385.718-2.42,7.278-6.677,8.02-7.119h0c2.07-1.177,5.358,1.027,8,5.375,2.4,3.956,2.971,15.857,1.828,19.863-.526,1.844-1.127,5.241-1.669,8.237-.943,5.325-1.168,6.3-1.519,6.568C391.293,231.077,385.45,235.383,383.806,235.383Zm-1.786-13.629a.392.392,0,0,1,.234.075.417.417,0,0,1,.175.292c0,.3.968,7.511.835,10.015a4.573,4.573,0,0,1-.067.993,3.68,3.68,0,0,0,0,1.369,1.263,1.263,0,0,0,.6.083c1.035,0,5.458-2.988,7.044-4.173.184-.334.726-3.338,1.193-6.042.534-3.013,1.143-6.435,1.669-8.346,1.077-3.764.517-15.473-1.744-19.2s-5.25-5.992-6.852-5.091c-1.961,1.252-7.136,4.849-7.662,6.677-.134.467-.259.918-.384,1.369-.517,1.878-.96,3.505-1.9,4.565a7.144,7.144,0,0,1-2.729,1.486c-.835.326-1.9.726-1.995,1.093-.159.634.918,2.687,1.736,3.939a.494.494,0,0,1,.05.117c.067.234,1.527,5.684,1.8,7.47s1.995,4.173,3.021,4.173a35.179,35.179,0,0,0,4.857-.835Z" transform="translate(-312.562 -179.321)" fill="#263238"/><path d="M375.706,215.98a4.758,4.758,0,0,1-1.168-.125.409.409,0,0,1-.3-.5.417.417,0,0,1,.5-.309,4.9,4.9,0,0,0,4.323-1.21.417.417,0,0,1,.593,0,.409.409,0,0,1,0,.584,5.609,5.609,0,0,1-3.948,1.561Z" transform="translate(-313.325 -183.129)" fill="#263238"/><path d="M381.06,205.139c-.217.768-.651,1.319-.985,1.227s-.426-.793-.209-1.561.651-1.319.976-1.227S381.269,204.371,381.06,205.139Z" transform="translate(-314.239 -181.451)" fill="#263238"/><path d="M383.738,200.763a.409.409,0,0,1-.376-.234,2.046,2.046,0,0,0-1.277-1.235,1.836,1.836,0,0,0-1.36.517.417.417,0,1,1-.584-.593,2.621,2.621,0,0,1,2.07-.751,2.721,2.721,0,0,1,1.895,1.669.409.409,0,0,1-.184.559.384.384,0,0,1-.184.067Z" transform="translate(-314.279 -180.606)" fill="#263238"/><path d="M375.76,325.249l1.728,9.064s-1.427,10.975,2.387,28.86a54.8,54.8,0,0,0,6.318,16.875c.351,1.077,2.445,19.254,2.8,24.979s2.5,15.206,2.5,17.176a15.873,15.873,0,0,1-2.145,7.152c-1.077,1.427-5.9,6.084-7.336,6.8s-3.4,1.97-1.427,2.679a16.8,16.8,0,0,0,8.588.359,27.59,27.59,0,0,0,8.58-4.29c2.32-1.611,5.008-1.611,5.55-3.756s-2.687-7.161-2.687-11.81,1.494-24.988,1.319-33.567-2.5-10.916-2.5-10.916l1.01-8.463,8.229,12.344c1.786,2.679,4.832,12.878,10.015,19.671s10.733,23.077,10.916,23.611-1.794,11.993-2.687,14.313-.534,5.55,5.191,5.55,8.046-2.863,7.328-6.977-1.778-7.161-1.778-10.391-3.038-18.962-3.756-23.077-2.145-16.992-4.115-22.184-5.542-9.656-7.695-12.344-3.756-12.7-4.29-16.992-1.611-17.351-3.038-24.328-1.97-7.511-1.97-7.511l-.893-1.97s-12.168,3.756-19.321,3.939-17.176.893-17.176.893Z" transform="translate(-313.522 -200.066)" fill="#263238"/><path d="M432.036,442.235c-2.654,0-4.457-.676-5.358-1.995a4.482,4.482,0,0,1-.225-4.123c.935-2.412,2.746-13.353,2.671-14.071-.042-.117-5.609-16.6-10.85-23.444-3.414-4.482-5.9-10.391-7.712-14.706a37.9,37.9,0,0,0-2.32-5.008l-7.595-11.4-.835,7.169c.526.668,2.329,3.489,2.5,11.033.109,5.3-.417,15.023-.835,22.843-.259,4.807-.484,8.955-.484,10.733a21.611,21.611,0,0,0,1.669,7.069c.793,2.187,1.3,3.706,1.018,4.841-.384,1.561-1.761,2.128-3.2,2.729a12.627,12.627,0,0,0-2.5,1.269,27.222,27.222,0,0,1-8.73,4.357,17.242,17.242,0,0,1-8.822-.376c-.709-.25-1.077-.626-1.1-1.1s.2-1.2,2.5-2.345c1.352-.676,6.143-5.283,7.186-6.677a15.432,15.432,0,0,0,2.061-6.9,55.533,55.533,0,0,0-.835-5.583c-.643-3.664-1.452-8.229-1.669-11.567-.351-5.659-2.437-23.853-2.779-24.871a7.826,7.826,0,0,0-.534-1.027,53.7,53.7,0,0,1-5.842-15.857c-3.63-17.026-2.5-27.967-2.4-28.927l-1.719-9.005L374.95,321a.417.417,0,0,1,.092-.309.426.426,0,0,1,.292-.142c.1,0,10.107-.718,17.193-.893s19.079-3.881,19.2-3.923a.409.409,0,0,1,.5.225l.885,1.945c.242.384.835,1.895,2.011,7.628,1.043,5.116,1.886,13.3,2.5,19.279.217,2.1.4,3.931.551,5.083.634,5.074,2.228,14.313,4.173,16.784,2.162,2.7,5.767,7.2,7.762,12.452,1.5,3.956,2.7,12.344,3.48,17.894.259,1.8.476,3.338.651,4.365.15.835.392,2.178.693,3.789,1.143,6.268,3.071,16.759,3.071,19.363a28.55,28.55,0,0,0,.96,6.3c.284,1.252.568,2.545.835,4a6.109,6.109,0,0,1-1.1,5.108C437.377,441.418,435.082,442.235,432.036,442.235Zm-31.664-76.324a.434.434,0,0,1,.351.184l8.221,12.344a36.943,36.943,0,0,1,2.4,5.133c1.8,4.273,4.256,10.132,7.612,14.522,5.308,6.952,10.916,23.569,10.975,23.736.267.793-1.895,12.519-2.687,14.589a3.681,3.681,0,0,0,.125,3.338c.734,1.06,2.345,1.627,4.674,1.627,2.788,0,4.866-.718,6-2.07a5.208,5.208,0,0,0,.918-4.423c-.25-1.427-.534-2.712-.835-3.956a29.31,29.31,0,0,1-.976-6.485c0-2.5-1.92-12.97-3.063-19.2-.292-1.619-.542-2.954-.684-3.8-.175-1.018-.4-2.579-.659-4.39-.784-5.508-1.97-13.846-3.438-17.71-1.945-5.133-5.5-9.573-7.628-12.235-2.571-3.213-4.173-15.774-4.382-17.2-.142-1.16-.326-2.988-.542-5.1-.576-5.625-1.452-14.121-2.5-19.2-1.319-6.435-1.87-7.311-1.895-7.344a.6.6,0,0,1-.05-.083l-.743-1.627c-2.053.609-12.627,3.681-19.079,3.847-6.234.15-14.756.726-16.734.835l.326,3.847,1.719,9.047a.351.351,0,0,1,0,.134c0,.108-1.377,11.117,2.379,28.71a52.041,52.041,0,0,0,5.709,15.665,8.736,8.736,0,0,1,.6,1.168c.4,1.21,2.5,19.738,2.821,25.088a113.646,113.646,0,0,0,1.669,11.476,52.707,52.707,0,0,1,.835,5.725,16.2,16.2,0,0,1-2.228,7.4c-1.185,1.561-5.984,6.176-7.511,6.919-1.628.835-2.045,1.377-2.028,1.552s.117.209.551.367a16.266,16.266,0,0,0,8.346.342,26.436,26.436,0,0,0,8.446-4.223,13.759,13.759,0,0,1,2.654-1.352c1.36-.567,2.437-1.01,2.721-2.162.225-.893-.342-2.5-.993-4.357a21.823,21.823,0,0,1-1.669-7.353c0-1.8.225-5.959.484-10.783.417-7.8.943-17.526.835-22.776-.175-8.246-2.362-10.608-2.387-10.633a.4.4,0,0,1-.117-.342l1.01-8.463a.426.426,0,0,1,.317-.359Z" transform="translate(-313.445 -200.001)" fill="#263238"/><path d="M398.623,454.68c2.329-1.611,5.008-1.611,5.55-3.756s-2.687-7.161-2.687-11.81c0-.835.058-2.028.159-3.455a15.957,15.957,0,0,1-10.24,0,62.826,62.826,0,0,1,.96,6.3,15.873,15.873,0,0,1-2.145,7.152c-1.077,1.427-5.9,6.084-7.336,6.8s-3.4,1.97-1.427,2.679a16.8,16.8,0,0,0,8.588.359A27.2,27.2,0,0,0,398.623,454.68Z" transform="translate(-314.384 -219.84)" fill="#fff"/><path d="M386.364,459.7a15.857,15.857,0,0,1-5.133-.776c-.709-.25-1.077-.626-1.1-1.1s.2-1.2,2.5-2.345c1.352-.676,6.143-5.283,7.186-6.677a15.432,15.432,0,0,0,2.061-6.9,55.582,55.582,0,0,0-.835-5.592l-.109-.643a.392.392,0,0,1,.134-.384.426.426,0,0,1,.409-.083,15.5,15.5,0,0,0,9.965,0,.442.442,0,0,1,.392.058.451.451,0,0,1,.167.367c-.108,1.569-.159,2.662-.159,3.422a21.61,21.61,0,0,0,1.669,7.069c.793,2.187,1.3,3.706,1.018,4.841-.384,1.561-1.761,2.128-3.2,2.729a12.627,12.627,0,0,0-2.5,1.269h0a27.222,27.222,0,0,1-8.73,4.357A16.5,16.5,0,0,1,386.364,459.7Zm5.483-23.5a52.251,52.251,0,0,1,.835,5.7,16.2,16.2,0,0,1-2.228,7.4c-1.185,1.561-5.984,6.176-7.511,6.919-1.627.835-2.045,1.377-2.028,1.552s.117.209.551.367a16.266,16.266,0,0,0,8.346.342,26.433,26.433,0,0,0,8.446-4.223h0a13.764,13.764,0,0,1,2.654-1.352c1.36-.568,2.437-1.01,2.721-2.162.225-.893-.342-2.5-.993-4.357a21.823,21.823,0,0,1-1.669-7.353c0-.676.042-1.594.117-2.863A16.467,16.467,0,0,1,391.847,436.2Zm6.677,18.4Z" transform="translate(-314.302 -219.76)" fill="#263238"/><path d="M437.315,434.571c1.419,3.639,2.354,6.376,2.429,6.585a97.086,97.086,0,0,1-2.687,14.313c-.893,2.32-.534,5.55,5.191,5.55s8.046-2.863,7.328-6.977-1.778-7.161-1.778-10.391a117.786,117.786,0,0,0-1.719-11.851C443.767,433.736,440.512,434.471,437.315,434.571Z" transform="translate(-323.657 -219.202)" fill="#fff"/><path d="M442.165,461.357c-2.654,0-4.457-.676-5.358-1.995a4.482,4.482,0,0,1-.225-4.123c.935-2.412,2.746-13.353,2.671-14.071h0s-.943-2.771-2.412-6.518a.45.45,0,0,1,0-.384.426.426,0,0,1,.334-.192c3.706-.142,6.56-1.035,8.5-2.654a.4.4,0,0,1,.409-.075.434.434,0,0,1,.267.317,106.891,106.891,0,0,1,1.728,11.926,28.553,28.553,0,0,0,.96,6.3c.284,1.252.567,2.545.835,4a6.109,6.109,0,0,1-1.1,5.108C447.506,460.539,445.211,461.357,442.165,461.357Zm-4.332-26.473c1.36,3.505,2.212,6.042,2.22,6.068.267.793-1.895,12.519-2.687,14.589a3.681,3.681,0,0,0,.125,3.338c.734,1.06,2.345,1.627,4.674,1.627,2.788,0,4.866-.718,6-2.07a5.208,5.208,0,0,0,.918-4.423c-.25-1.427-.534-2.712-.835-3.956a29.31,29.31,0,0,1-.976-6.485,100.347,100.347,0,0,0-1.594-11.1,14.965,14.965,0,0,1-7.845,2.412Z" transform="translate(-323.574 -219.122)" fill="#263238"/><path d="M402.242,371.163a.417.417,0,0,1-.359-.209,83.578,83.578,0,0,1-5.759-12.778c-2.178-6.218-2.863-8.346-3.013-8.847l-6.718-6.184a.419.419,0,1,1,.568-.618l6.8,6.259a.568.568,0,0,1,.117.192s.568,1.869,3.03,8.922a82.878,82.878,0,0,0,5.692,12.636.409.409,0,0,1-.15.568A.376.376,0,0,1,402.242,371.163Z" transform="translate(-315.316 -204.417)" fill="#fff"/><path d="M416.261,333.548h-.05c-3.247-.409-5.542-1.511-6.835-3.272a5.517,5.517,0,0,1-1.035-4.014.409.409,0,0,1,.484-.334.417.417,0,0,1,.334.484,4.782,4.782,0,0,0,.9,3.38c1.152,1.569,3.255,2.554,6.251,2.929a.418.418,0,0,1-.05.835Z" transform="translate(-318.96 -201.689)" fill="#fff"/><path d="M390.038,460.786a27.592,27.592,0,0,0,8.58-4.29c2.32-1.611,5.008-1.611,5.55-3.756.309-1.235-.626-3.413-1.469-5.926a27.819,27.819,0,0,1-5.684,2.5s-1.97-2.679-3.405-2.679a6.011,6.011,0,0,0-1.753.317,12.984,12.984,0,0,1-1.669,3.973c-1.068,1.435-5.9,6.084-7.336,6.8s-3.4,1.97-1.427,2.679a16.8,16.8,0,0,0,8.613.376Z" transform="translate(-314.379 -221.656)" fill="#fff"/><path d="M386.364,461.517a15.858,15.858,0,0,1-5.133-.776c-.709-.25-1.077-.626-1.1-1.1s.2-1.2,2.5-2.345c1.352-.676,6.143-5.283,7.186-6.677a12.261,12.261,0,0,0,1.569-3.831.434.434,0,0,1,.284-.292,6.333,6.333,0,0,1,1.878-.334c1.377,0,3,1.895,3.555,2.612a27.543,27.543,0,0,0,5.316-2.387.417.417,0,0,1,.359-.042.426.426,0,0,1,.25.259c.15.451.309.885.459,1.31.726,2.078,1.3,3.714,1.018,4.849-.384,1.561-1.761,2.128-3.2,2.729a12.627,12.627,0,0,0-2.5,1.269,27.222,27.222,0,0,1-8.73,4.357h0A16.492,16.492,0,0,1,386.364,461.517Zm3.6-.835Zm2.162-13.479a12.67,12.67,0,0,1-1.669,3.889c-1.135,1.519-5.984,6.176-7.511,6.919-1.627.835-2.045,1.377-2.028,1.552s.117.209.551.367a16.266,16.266,0,0,0,8.346.342h0a26.433,26.433,0,0,0,8.446-4.223,13.761,13.761,0,0,1,2.654-1.352c1.36-.568,2.437-1.01,2.721-2.162.225-.893-.342-2.5-1-4.373l-.292-.835a28.536,28.536,0,0,1-5.333,2.3.426.426,0,0,1-.459-.15c-.709-.968-2.17-2.5-3.063-2.5a5.1,5.1,0,0,0-1.36.259Z" transform="translate(-314.302 -221.577)" fill="#263238"/><path d="M449.575,456.394c-.576-3.338-1.369-5.934-1.669-8.5l-.835,2.061s-1.252-3.931-4.465-3.931c-2.011,0-3.113,1.8-3.664,3.163a72.316,72.316,0,0,1-1.886,8.638c-.893,2.329-.534,5.55,5.191,5.55S450.3,460.509,449.575,456.394Z" transform="translate(-323.657 -221.554)" fill="#fff"/><path d="M442.165,463.706c-2.654,0-4.457-.676-5.358-1.995a4.482,4.482,0,0,1-.225-4.123,71.234,71.234,0,0,0,1.87-8.555v-.083c.626-1.569,1.844-3.43,4.048-3.43,2.454,0,3.839,2.011,4.457,3.255l.459-1.127a.442.442,0,0,1,.442-.259.409.409,0,0,1,.359.367,44.91,44.91,0,0,0,.835,4.5c.275,1.244.568,2.5.835,3.981a6.109,6.109,0,0,1-1.1,5.108C447.506,462.888,445.211,463.706,442.165,463.706Zm-2.9-14.447a73.493,73.493,0,0,1-1.9,8.671,3.68,3.68,0,0,0,.125,3.338c.734,1.06,2.345,1.627,4.674,1.627,2.788,0,4.866-.718,6-2.07a5.208,5.208,0,0,0,.918-4.423h0c-.25-1.419-.534-2.7-.835-3.939-.234-1.052-.459-2.061-.634-3.055l-.259.643a.409.409,0,0,1-.4.259.426.426,0,0,1-.384-.292s-1.2-3.639-4.073-3.639C440.8,446.355,439.8,447.9,439.269,449.259Z" transform="translate(-323.574 -221.471)" fill="#263238"/><path d="M373.87,324.764s0,4.457,1.486,5.2,9.464.926,20.79-.376a105.662,105.662,0,0,0,18.361-3.547l-1.97-7.511Z" transform="translate(-313.267 -200.466)" fill="#f8951d"/><path d="M381.5,330.835c-3.338,0-5.625-.225-6.41-.618-1.669-.835-1.719-5.091-1.719-5.575a.417.417,0,0,1,.351-.409L412.387,318a.409.409,0,0,1,.467.309l1.97,7.511a.426.426,0,0,1-.275.509,108.28,108.28,0,0,1-18.444,3.564,133.079,133.079,0,0,1-14.605.943Zm-7.286-5.842c.05,1.669.4,4.039,1.252,4.465,1.319.668,9.181.893,20.548-.409a110.274,110.274,0,0,0,17.9-3.422l-1.769-6.76Z" transform="translate(-313.184 -200.377)" fill="#263238"/><path d="M392.317,232.963S378,240.357,371.327,249.9s-3.814,27.667-3.338,37.682.476,17.176-.476,20.272,3.572,3.822,7.386,5.008,9.548-2.863,12.644-2.153,9.781.96,12.4.242,6.677-3.58,7.395-3.58h4.29a99.259,99.259,0,0,0-3.572-31.715c-4.774-16.216-6.443-34.1-9.539-39.109S392.317,232.963,392.317,232.963Z" transform="translate(-312.126 -186.282)" fill="#f8951d"/><path d="M376.411,313.459a5.491,5.491,0,0,1-1.669-.242c-.559-.175-1.135-.334-1.669-.5-2.571-.734-5.008-1.427-5.842-2.954a2.6,2.6,0,0,1-.142-2.07c.835-2.763.985-8.972.459-20.13-.083-1.669-.225-3.547-.384-5.558-.785-10.257-1.861-24.3,3.8-32.391,6.677-9.514,20.99-16.984,21.14-17.059h0c.142-.067,3.472-1.527,6.727,3.731,1.669,2.754,2.938,9.055,4.507,17.042,1.344,6.877,2.871,14.664,5.083,22.175a100.451,100.451,0,0,1,3.589,31.873.409.409,0,0,1-.417.384H407.3a14.36,14.36,0,0,0-2.112,1.093,25.783,25.783,0,0,1-5.174,2.5c-2.687.734-9.489.484-12.6-.234-1.3-.3-3.213.351-5.241,1.043a18.921,18.921,0,0,1-5.759,1.294ZM392.419,233.3c-.476.25-14.363,7.57-20.823,16.8-5.492,7.837-4.423,21.7-3.647,31.848.159,2.011.3,3.914.384,5.575.534,11.267.384,17.526-.5,20.414a1.769,1.769,0,0,0,.083,1.427c.659,1.218,3.03,1.9,5.316,2.554.576.167,1.16.334,1.719.509,1.986.584,4.49-.25,6.919-1.085,2.137-.726,4.173-1.419,5.692-1.06,3.03.693,9.615.943,12.2.242a25.966,25.966,0,0,0,5.008-2.4,7.967,7.967,0,0,1,2.5-1.2h3.881a99.826,99.826,0,0,0-3.58-31.189c-2.22-7.511-3.756-15.357-5.1-22.25-1.494-7.586-2.779-14.138-4.4-16.759C395.3,232.194,392.619,233.213,392.419,233.3Z" transform="translate(-312.052 -186.206)" fill="#263238"/><path d="M421.128,333.235a78.269,78.269,0,0,1-1.027,9.014c-.643,2.7-1.294,3.088.25,3.088s2.061-4.373,2.061-4.373l1.8,1.669s3.088,6.568,4.248,7.086,1.669,0,1.035-1.669-1.8-5.149-1.8-5.149l.9.517s3.213,5.408,3.989,5.926,1.419,1.027,1.544-.259-3.088-5.926-3.088-5.926l4.373,5.008s.9,1.027,1.294,0-2.579-5.283-2.579-5.283l-.517-.9a27.125,27.125,0,0,0,2.445,1.669c.392.125,1.419.643,1.936.384s-.517-1.544-1.419-2.571a39.047,39.047,0,0,1-4.115-4.766c-.9-1.544-2.2-3.739-2.2-3.739Z" transform="translate(-320.798 -202.853)" fill="#fff"/><path d="M429.116,350.248a2.345,2.345,0,0,1-.9-.225c-1.21-.543-3.822-5.942-4.423-7.219l-1.16-1.077c-.25,1.419-.9,3.948-2.354,3.948-.509,0-.985,0-1.235-.359s-.125-.835.117-1.627c.125-.409.292-.935.451-1.619a77.474,77.474,0,0,0,1.043-8.938.426.426,0,0,1,.409-.392l9.181-.259a.459.459,0,0,1,.367.209s1.294,2.187,2.2,3.739a24.321,24.321,0,0,0,3.046,3.6c.409.434.776.835,1.027,1.1,1.3,1.486,1.744,2.228,1.669,2.754a.643.643,0,0,1-.359.467,2.712,2.712,0,0,1-1.995-.267l-.25-.1a5.362,5.362,0,0,1-.835-.492c.943,1.444,2.354,3.839,2.011,4.749a.985.985,0,0,1-.743.718,1.5,1.5,0,0,1-1.243-.584L433.94,347a4.649,4.649,0,0,1,.634,2.036,1.31,1.31,0,0,1-.568,1.11c-.476.217-.968-.109-1.5-.467l-.125-.083c-.7-.467-2.863-3.973-3.789-5.508.392,1.16.951,2.754,1.319,3.722s.417,1.786,0,2.178A.934.934,0,0,1,429.116,350.248Zm-6.794-9.781a.392.392,0,0,1,.284.108l1.8,1.669a.368.368,0,0,1,.1.125c1.486,3.155,3.4,6.593,4.039,6.877.459.209.643.159.668.134s.134-.4-.2-1.277c-.643-1.669-1.794-5.133-1.811-5.166a.417.417,0,0,1,.609-.492l.9.517a.484.484,0,0,1,.15.142,41.332,41.332,0,0,0,3.864,5.792l.125.083a2.94,2.94,0,0,0,.693.392,3.2,3.2,0,0,0,.075-.426c.083-.785-1.711-3.772-3.013-5.642a.419.419,0,0,1,.659-.517l4.373,5.008c.167.184.4.326.476.309s.058-.05.108-.184c.167-.442-.993-2.687-2.5-4.891l-.551-.935a.409.409,0,0,1,.083-.517.417.417,0,0,1,.526,0,25.813,25.813,0,0,0,2.329,1.611l.3.117a3.521,3.521,0,0,0,1.2.326,7.753,7.753,0,0,0-1.427-1.961l-1-1.068a23.923,23.923,0,0,1-3.171-3.756c-.726-1.252-1.719-2.938-2.061-3.522l-8.513.242a71.551,71.551,0,0,1-1.018,8.7c-.167.693-.326,1.244-.459,1.669a4.1,4.1,0,0,0-.225.9,2.778,2.778,0,0,1,.542,0c.793,0,1.452-2.387,1.669-4.006a.4.4,0,0,1,.267-.342Zm-2.6,4.39Z" transform="translate(-320.716 -202.774)" fill="#263238"/><path d="M417.46,324.249s.643,7.086,1.419,7.728,11.968-.125,12.519-.125,0-9.181,0-9.181-8.237-.643-9.531-.384a25.994,25.994,0,0,0-4.407,1.961Z" transform="translate(-320.477 -201.078)" fill="#f8951d"/><path d="M421.625,332.577c-2.095,0-2.838-.142-3.1-.359-.835-.676-1.369-5.842-1.569-8a.434.434,0,0,1,.217-.409,26.1,26.1,0,0,1,4.5-1.97c1.3-.267,8.788.309,9.64.376a.417.417,0,0,1,.384.392c.492,8.83.067,9.289-.075,9.439a.559.559,0,0,1-.342.15l-1.068.05C426.074,332.477,423.378,332.577,421.625,332.577Zm-3.8-8.162c.3,3.188.835,6.76,1.244,7.169.351.175,2.579.309,11.108-.175l.835-.042a69.267,69.267,0,0,0-.134-8.346,83.768,83.768,0,0,0-9.047-.367A22.66,22.66,0,0,0,417.828,324.415ZM431.29,331.359Z" transform="translate(-320.394 -201.001)" fill="#263238"/><path d="M394.773,248.572s9.3,34.819,10.733,43.883,1.669,16.458,4.766,17.894,12.168-1.193,12.168-1.193,3.814,1.9,6.677.476,3.1-5.008,1.669-10.975S416.472,260.023,412.9,254.3s-9.781-17.885-11.451-18.845-8.112-1.9-9.539,2.629" transform="translate(-316.251 -186.593)" fill="#f8951d"/><path d="M412.867,311.091a7.077,7.077,0,0,1-2.854-.459c-2.662-1.227-3.338-6.084-4.231-12.8-.234-1.728-.476-3.514-.776-5.4-1.419-8.939-10.6-43.491-10.724-43.841a.417.417,0,0,1,.3-.509.409.409,0,0,1,.509.292c.092.351,9.322,34.944,10.741,43.925.3,1.895.542,3.689.776,5.425.835,6.209,1.511,11.117,3.756,12.152,2.921,1.352,11.784-1.185,11.876-1.21a.376.376,0,0,1,.3,0s3.672,1.794,6.3.476c2.5-1.244,2.921-4.382,1.452-10.5s-14.363-38.683-17.835-44.233c-1.294-2.07-2.954-5.008-4.557-7.879-2.712-4.816-5.775-10.266-6.744-10.85a9,9,0,0,0-6.385-.284,4.106,4.106,0,0,0-2.554,2.671.416.416,0,0,1-.793-.25,4.891,4.891,0,0,1,3.038-3.2,9.7,9.7,0,0,1,7.111.334c1.085.618,3.388,4.624,7.052,11.133,1.6,2.846,3.255,5.792,4.54,7.845,3.5,5.592,16.433,38.224,17.935,44.492,1.577,6.568,1.018,10.015-1.886,11.442-2.721,1.352-6.143-.058-6.9-.409A41.9,41.9,0,0,1,412.867,311.091Z" transform="translate(-316.167 -186.501)" fill="#263238"/><path d="M383.878,192.822l7.011,17.268s-1.669,8.346-5.358,12.728-7.036,8.346-6.368,13.737,3.013,3.338,3.013,3.338,12.869-17.585,20.915-8.738l7.687,14.655s8.93,1.2,9.6-8.513-2.212-17.435-5.842-27.683c-2.137-6.076-1.953-13.621-6.677-19.646-3.522-4.523-13.354-8.112-20.239-5.8a6.51,6.51,0,0,0-3.739,8.655Z" transform="translate(-314.128 -178.122)" fill="#263238"/><path d="M411.637,246.214a7.172,7.172,0,0,1-1-.058.434.434,0,0,1-.317-.217l-7.653-14.605a6.568,6.568,0,0,0-5.325-2.3c-7.019.376-14.831,10.942-14.906,11.042l-.067.075a1.928,1.928,0,0,1-1.811.359c-.985-.376-1.6-1.669-1.894-3.981-.693-5.592,2.779-9.706,6.468-14.055,3.338-3.939,5.008-11.384,5.241-12.427L383.411,192.9h0a7.119,7.119,0,0,1,.117-5.625,6.677,6.677,0,0,1,3.939-3.572c7.061-2.379,17.092,1.3,20.7,5.942,3.18,4.081,4.173,8.78,5.083,13.354a50.917,50.917,0,0,0,1.627,6.451l.417,1.185c3.388,9.631,6.068,17.234,5.417,26.665-.217,3.113-1.277,5.467-3.163,7.011a9.481,9.481,0,0,1-5.909,1.9Zm-.684-.835a8.989,8.989,0,0,0,6.068-1.728,8.735,8.735,0,0,0,2.854-6.418c.643-9.256-2.011-16.792-5.366-26.331l-.417-1.185a51.938,51.938,0,0,1-1.669-6.56c-.918-4.448-1.861-9.047-4.924-12.978-3.414-4.4-13.212-7.87-19.772-5.659a5.842,5.842,0,0,0-3.447,3.13,6.318,6.318,0,0,0-.109,4.957l7.019,17.268a.452.452,0,0,1,0,.234c-.067.351-1.736,8.538-5.45,12.919-3.564,4.215-6.927,8.187-6.268,13.42.317,2.5.985,3.163,1.36,3.338a1.043,1.043,0,0,0,.935-.192c.651-.885,8.262-10.958,15.507-11.334a7.286,7.286,0,0,1,6.017,2.612.3.3,0,0,1,.058.083Z" transform="translate(-314.045 -178.042)" fill="#263238"/><path d="M413.64,190.905a5.842,5.842,0,0,1,5.9-1.669c3.722.993,7.2,11.175,7.695,17.376s.25,10.424,1.736,10.674a4.74,4.74,0,0,0,2.979-.743s1.244,3.222-2.979,5.208-11.684-.492-12.16-8.187S413.64,190.905,413.64,190.905Z" transform="translate(-319.845 -179.043)" fill="#263238"/><path d="M425.776,222.735a9.464,9.464,0,0,1-9.464-9.239c-.492-7.586-3.138-22.459-3.163-22.609a.4.4,0,0,1,.083-.334,6.2,6.2,0,0,1,6.335-1.811c3.906,1.043,7.511,11.325,8,17.743.125,1.527.2,2.929.267,4.173.175,3.2.326,5.976,1.118,6.109a4.415,4.415,0,0,0,2.687-.684.434.434,0,0,1,.35-.05.442.442,0,0,1,.267.25s1.327,3.614-3.188,5.742a7.753,7.753,0,0,1-3.3.709ZM414,190.945c.326,1.819,2.687,15.357,3.146,22.534a8.7,8.7,0,0,0,4.173,7.236,8.121,8.121,0,0,0,7.361.6c2.921-1.369,3.021-3.338,2.888-4.173a4.757,4.757,0,0,1-2.779.526c-1.452-.242-1.586-2.6-1.819-6.885-.067-1.244-.142-2.646-.267-4.173-.484-6.042-3.873-16.066-7.386-17A5.45,5.45,0,0,0,414,190.945Z" transform="translate(-319.762 -178.958)" fill="#263238"/></g></g></svg>