<svg xmlns="http://www.w3.org/2000/svg" width="251.003" height="162.56" viewBox="0 0 251.003 162.56"><g transform="translate(-42.569 -39.47)"><g transform="translate(43.07 200.879)"><line x2="13.307" y2="0.035" transform="translate(236.693 0.615)" fill="none" stroke="#263238" stroke-linecap="round" stroke-linejoin="round" stroke-width="1"/><line x2="231.966" y2="0.603" fill="none" stroke="#263238" stroke-linecap="round" stroke-linejoin="round" stroke-width="1"/></g><g transform="translate(47.963 59.256)"><g transform="translate(0)" opacity="0.3"><rect width="11.32" height="4.738" transform="translate(184.907)" fill="none" stroke="#000" stroke-linecap="round" stroke-linejoin="round" stroke-width="1"/><rect width="11.32" height="4.738" transform="translate(178.854 6.056)" fill="none" stroke="#000" stroke-linecap="round" stroke-linejoin="round" stroke-width="1"/><rect width="11.32" height="4.738" transform="translate(191.489 6.056)" fill="none" stroke="#000" stroke-linecap="round" stroke-linejoin="round" stroke-width="1"/><rect width="11.32" height="4.738" transform="translate(6.984 86.899)" fill="none" stroke="#000" stroke-linecap="round" stroke-linejoin="round" stroke-width="1"/><path d="M61.554,335.118H58.13V330.38H69.45v4.738H64.677" transform="translate(-57.202 -237.424)" fill="none" stroke="#000" stroke-linecap="round" stroke-linejoin="round" stroke-width="1"/><rect width="11.32" height="4.738" transform="translate(13.562 92.956)" fill="none" stroke="#000" stroke-linecap="round" stroke-linejoin="round" stroke-width="1"/><rect width="11.32" height="4.738" transform="translate(218.176 52.517)" fill="none" stroke="#000" stroke-linecap="round" stroke-linejoin="round" stroke-width="1"/><path d="M609.811,246.158H604.57V241.42h11.317v4.738H612" transform="translate(-392.446 -182.847)" fill="none" stroke="#000" stroke-linecap="round" stroke-linejoin="round" stroke-width="1"/><rect width="11.32" height="4.738" transform="translate(224.758 58.573)" fill="none" stroke="#000" stroke-linecap="round" stroke-linejoin="round" stroke-width="1"/><rect width="11.32" height="4.738" transform="translate(44.895 52.517)" fill="none" stroke="#000" stroke-linecap="round" stroke-linejoin="round" stroke-width="1"/><path d="M160.466,246.158H156.23V241.42h11.317v4.738h-3.954" transform="translate(-117.387 -182.847)" fill="none" stroke="#000" stroke-linecap="round" stroke-linejoin="round" stroke-width="1"/><rect width="11.32" height="4.738" transform="translate(51.477 58.573)" fill="none" stroke="#000" stroke-linecap="round" stroke-linejoin="round" stroke-width="1"/><rect width="11.32" height="4.738" transform="translate(218.246 85.16)" fill="none" stroke="#000" stroke-linecap="round" stroke-linejoin="round" stroke-width="1"/><rect width="11.32" height="4.738" transform="translate(212.193 91.213)" fill="none" stroke="#000" stroke-linecap="round" stroke-linejoin="round" stroke-width="1"/><path d="M645.908,325.87h2.852v4.738H637.44V325.87h5.654" transform="translate(-412.612 -234.657)" fill="none" stroke="#000" stroke-linecap="round" stroke-linejoin="round" stroke-width="1"/><rect width="11.32" height="4.738" transform="translate(113.676 85.16)" fill="none" stroke="#000" stroke-linecap="round" stroke-linejoin="round" stroke-width="1"/><path d="M337.738,330.608H334.19V325.87h11.32v4.738h-5.117" transform="translate(-226.567 -234.657)" fill="none" stroke="#000" stroke-linecap="round" stroke-linejoin="round" stroke-width="1"/><rect width="11.32" height="4.738" transform="translate(120.258 91.213)" fill="none" stroke="#000" stroke-linecap="round" stroke-linejoin="round" stroke-width="1"/><path d="M357.653,387.47h3.517v4.738H349.85V387.47h4.99" transform="translate(-236.174 -272.449)" fill="none" stroke="#000" stroke-linecap="round" stroke-linejoin="round" stroke-width="1"/><rect width="11.32" height="4.738" transform="translate(107.623 121.077)" fill="none" stroke="#000" stroke-linecap="round" stroke-linejoin="round" stroke-width="1"/><rect width="11.32" height="4.738" transform="translate(120.258 121.077)" fill="none" stroke="#000" stroke-linecap="round" stroke-linejoin="round" stroke-width="1"/><rect width="11.32" height="4.738" transform="translate(88.515 115.021)" fill="none" stroke="#000" stroke-linecap="round" stroke-linejoin="round" stroke-width="1"/><rect width="11.32" height="4.738" transform="translate(82.459 121.077)" fill="none" stroke="#000" stroke-linecap="round" stroke-linejoin="round" stroke-width="1"/><path d="M306.447,407.878H301.77V403.14h11.32v4.738h-3.521" transform="translate(-206.677 -282.063)" fill="none" stroke="#000" stroke-linecap="round" stroke-linejoin="round" stroke-width="1"/><rect width="11.32" height="4.738" transform="translate(165.825 6.056)" fill="none" stroke="#000" stroke-linecap="round" stroke-linejoin="round" stroke-width="1"/><rect width="11.32" height="4.738" transform="translate(159.769 12.109)" fill="none" stroke="#000" stroke-linecap="round" stroke-linejoin="round" stroke-width="1"/><rect width="11.32" height="4.738" transform="translate(172.404 12.109)" fill="none" stroke="#000" stroke-linecap="round" stroke-linejoin="round" stroke-width="1"/><rect width="11.32" height="4.738" transform="translate(6.053 10.068)" fill="none" stroke="#000" stroke-linecap="round" stroke-linejoin="round" stroke-width="1"/><rect width="11.32" height="4.738" transform="translate(0 16.125)" fill="none" stroke="#000" stroke-linecap="round" stroke-linejoin="round" stroke-width="1"/><path d="M95.91,131.59h3.826v4.738H88.42V131.59h4.99" transform="translate(-75.785 -115.465)" fill="none" stroke="#000" stroke-linecap="round" stroke-linejoin="round" stroke-width="1"/><rect width="11.32" height="4.738" transform="translate(165.825 29.586)" fill="none" stroke="#000" stroke-linecap="round" stroke-linejoin="round" stroke-width="1"/><rect width="11.32" height="4.738" transform="translate(159.769 35.643)" fill="none" stroke="#000" stroke-linecap="round" stroke-linejoin="round" stroke-width="1"/><rect width="11.32" height="4.738" transform="translate(172.404 35.643)" fill="none" stroke="#000" stroke-linecap="round" stroke-linejoin="round" stroke-width="1"/><rect width="11.32" height="4.738" transform="translate(218.246 97.296)" fill="none" stroke="#000" stroke-linecap="round" stroke-linejoin="round" stroke-width="1"/><rect width="11.32" height="4.738" transform="translate(212.193 103.349)" fill="none" stroke="#000" stroke-linecap="round" stroke-linejoin="round" stroke-width="1"/><path d="M642.94,362.008h-5.5V357.27h11.32v4.738h-3.946" transform="translate(-412.612 -253.921)" fill="none" stroke="#000" stroke-linecap="round" stroke-linejoin="round" stroke-width="1"/></g></g><g transform="translate(201.391 79.781)"><path d="M507,259.534a59.634,59.634,0,0,1,6.114,13.554c1.279,4.738,1.337,38.557,1.337,38.557s.089-52.312,6.509-63.115" transform="translate(-486.015 -207.734)" fill="none" stroke="#263238" stroke-linecap="round" stroke-linejoin="round" stroke-width="1"/><path d="M524.043,186s-6.184,10-7.931,20.391-3.316,65.754-3.316,65.754c-.1-5.411.259-54.747-1.473-63.308a64.128,64.128,0,0,0-4.893-14.776" transform="translate(-485.665 -169.371)" fill="none" stroke="#263238" stroke-linecap="round" stroke-linejoin="round" stroke-width="1"/><path d="M474.818,177.763s5.2.243,7.629-3.664.835-7.637-1.449-7.912-3.277,2.551-4.124,1.2,2.431-3.907-1.241-6.253-5.38,1.02-6.543-.182-.325-4.329-2.744-5.724-3.556.336-4.9.386-5.566-2.218-7.251-.433,2.346,6.114.452,6.242-2.667,3.822-1.125,6.215,6.493,3.335,5.527,4.584-5.7,1.159-3.772,3.962,8.472,2.976,9.415,3.3-3.015,1.059-2.346,3.672,6.107,2.937,9.6,1.256S474.818,177.763,474.818,177.763Z" transform="translate(-452.705 -150.042)" fill="#f8951d"/><path d="M471.08,169.13s11.05,7.224,15.011,17.613" transform="translate(-463.978 -159.021)" fill="none" stroke="#263238" stroke-linecap="round" stroke-linejoin="round" stroke-width="1"/><path d="M469.68,173.613l7.405.723-1.8-6.145" transform="translate(-463.119 -158.445)" fill="none" stroke="#263238" stroke-linecap="round" stroke-linejoin="round" stroke-width="1"/><path d="M485.1,193.576h7.409l.541-6.686" transform="translate(-472.579 -169.917)" fill="none" stroke="#263238" stroke-linecap="round" stroke-linejoin="round" stroke-width="1"/><path d="M537.976,161.846s-4.224.2-6.184-2.972-.676-6.2,1.159-6.424,2.655,2.072,3.343.97-1.971-3.169,1.009-5.075,4.367.827,5.314-.147.263-3.529,2.23-4.638,2.887.274,3.973.321,4.518-1.8,5.886-.348-1.905,4.963-.367,5.063,2.164,3.092.912,5.024-5.272,2.705-4.487,3.722,4.638.951,3.061,3.22-6.876,2.416-7.641,2.682,2.447.858,1.905,2.98-4.959,2.385-7.8,1.02S537.976,161.846,537.976,161.846Z" transform="translate(-500.623 -142.975)" fill="#f8951d"/><path d="M561.532,154.81s-8.967,5.863-12.182,14.3" transform="translate(-511.997 -150.236)" fill="none" stroke="#263238" stroke-linecap="round" stroke-linejoin="round" stroke-width="1"/><path d="M572.464,158.448l-6.014.587,1.469-4.986" transform="translate(-522.488 -149.77)" fill="none" stroke="#263238" stroke-linecap="round" stroke-linejoin="round" stroke-width="1"/><path d="M559.244,174.656h-6.014l-.441-5.426" transform="translate(-514.108 -159.083)" fill="none" stroke="#263238" stroke-linecap="round" stroke-linejoin="round" stroke-width="1"/><path d="M490.492,265.311s3.424.158,5.024-2.412.549-5.024-.955-5.21-2.157,1.681-2.705.773,1.6-2.574-.819-4.12-3.544.672-4.309-.12-.213-2.86-1.809-3.768-2.342.22-3.227.259-3.664-1.461-4.773-.282,1.546,4.023.3,4.108-1.755,2.516-.742,4.093,4.278,2.2,3.641,3.019-3.753.773-2.481,2.609,5.577,1.96,6.184,2.176-1.987.7-1.546,2.419,4.02,1.932,6.323.827S490.492,265.311,490.492,265.311Z" transform="translate(-466.956 -208.622)" fill="#f8951d"/><path d="M488,259.64s7.278,4.758,9.887,11.595" transform="translate(-474.359 -214.55)" fill="none" stroke="#263238" stroke-linecap="round" stroke-linejoin="round" stroke-width="1"/><path d="M487.1,262.591l4.878.475-1.19-4.047" transform="translate(-473.806 -214.169)" fill="none" stroke="#263238" stroke-linecap="round" stroke-linejoin="round" stroke-width="1"/><path d="M497.26,275.742h4.878l.356-4.4" transform="translate(-480.04 -221.728)" fill="none" stroke="#263238" stroke-linecap="round" stroke-linejoin="round" stroke-width="1"/><path d="M512.326,321.647s-4.251.2-6.25-3-.68-6.253,1.19-6.478,2.682,2.091,3.374.982-1.99-3.2,1.016-5.121,4.406.835,5.357-.151.267-3.556,2.253-4.684,2.91.278,4.008.325,4.557-1.817,5.937-.356-1.932,5.005-.387,5.109,2.18,3.131.92,5.086-5.318,2.736-4.526,3.757,4.665.958,3.092,3.243-6.957,2.435-7.707,2.705,2.466.862,1.932,3-5,2.4-7.865,1.028S512.326,321.647,512.326,321.647Z" transform="translate(-484.836 -240.906)" fill="#f8951d"/><path d="M536.121,314.56s-9.048,5.913-12.291,14.424" transform="translate(-496.34 -248.243)" fill="none" stroke="#263238" stroke-linecap="round" stroke-linejoin="round" stroke-width="1"/><path d="M547.154,318.237l-6.064.591,1.476-5.028" transform="translate(-506.93 -247.777)" fill="none" stroke="#263238" stroke-linecap="round" stroke-linejoin="round" stroke-width="1"/><path d="M533.812,334.583h-6.068l-.445-5.473" transform="translate(-498.469 -257.17)" fill="none" stroke="#263238" stroke-linecap="round" stroke-linejoin="round" stroke-width="1"/><path d="M528.074,221.748s-5.164-.7-6.853-4.97.549-7.664,2.841-7.525,2.767,3.092,3.842,1.913-1.689-4.275,2.342-5.929,5.109,1.967,6.47.989,1.1-4.213,3.73-5.137,3.436.966,4.746,1.264,5.875-1.187,7.212.873-3.405,5.593-1.546,6.056,1.932,4.251,0,6.315-6.984,2.122-6.257,3.521,5.411,2.172,3,4.576-8.889,1.411-9.856,1.546,2.779,1.581,1.654,4.031-6.536,1.8-9.662-.479S528.074,221.748,528.074,221.748Z" transform="translate(-494.377 -178.474)" fill="#f8951d"/><path d="M557.808,217.05s-12.163,5.129-17.918,14.644" transform="translate(-506.193 -188.42)" fill="none" stroke="#263238" stroke-linecap="round" stroke-linejoin="round" stroke-width="1"/><path d="M573.517,220.118,566.1,219.5l2.875-5.724" transform="translate(-522.273 -186.414)" fill="none" stroke="#263238" stroke-linecap="round" stroke-linejoin="round" stroke-width="1"/><path d="M554.615,236.337l-7.285-1.322.661-6.675" transform="translate(-510.758 -195.347)" fill="none" stroke="#263238" stroke-linecap="round" stroke-linejoin="round" stroke-width="1"/><path d="M503.444,406.1c-.386.993-.584,9.446-.584,10.567,0,7.436,4.1,9.16,9.16,9.16s9.16-1.326,9.16-9.16c0-1.121-.213-9.573-.58-10.567Z" transform="translate(-483.475 -304.404)" fill="#263238" stroke="#263238" stroke-linecap="round" stroke-linejoin="round" stroke-width="1"/></g><g transform="translate(83.922 39.97)"><g transform="translate(0 0)" opacity="0.3"><rect width="51.195" height="64.278" fill="none" stroke="#000" stroke-linecap="round" stroke-linejoin="round" stroke-width="1"/><path d="M156.01,93.511V49.06h21.976" transform="translate(-153.212 -45.547)" fill="none" stroke="#000" stroke-linecap="round" stroke-linejoin="round" stroke-width="1"/><path d="M182.265,49.06h19.344v57.251h-45.6V96.962" transform="translate(-153.212 -45.547)" fill="none" stroke="#000" stroke-linecap="round" stroke-linejoin="round" stroke-width="1"/><path d="M208.636,104.5v10.625H186.95V87.9h21.686v12.878" transform="translate(-172.194 -69.375)" fill="none" stroke="#000" stroke-linecap="round" stroke-linejoin="round" stroke-width="1"/></g></g><g transform="translate(67.396 127.207)"><path d="M208.92,350.82l5.828,40.242a.576.576,0,0,0,.572.495h0a.576.576,0,0,0,.572-.645L211.1,351.2Z" transform="translate(-169.146 -317.915)" fill="#263238" stroke="#263238" stroke-linecap="round" stroke-linejoin="round" stroke-width="1"/><path d="M147.437,337.995a63.984,63.984,0,0,1,11.927-.089c2.381.255,10.779.912,10.509,2.887a3.336,3.336,0,0,1-2.419,2.779c-.359,0-33.9,2.319-34.437,1.793a2.667,2.667,0,0,1-.719-2.512C132.654,342.134,147.437,337.995,147.437,337.995Z" transform="translate(-122.067 -309.84)" fill="#b8b8b8" stroke="#263238" stroke-linecap="round" stroke-linejoin="round" stroke-width="1"/><path d="M107.706,265.694A.9.9,0,0,0,106.7,266.8c1.349,5.666,7.475,31.229,8.116,31.882.738.734,3.83,2.207,5.156,2.06a31.858,31.858,0,0,0,12.519-6.184c4.715-3.977,7.8-8.248,7.51-10.9s-1.932-5.005-3.386-5.3-7.367.147-12.519-1.473-9.427-4.271-11.78-7.51C110.554,266.965,109.039,265.93,107.706,265.694Z" transform="translate(-106.415 -265.684)" fill="#b8b8b8" stroke="#263238" stroke-linecap="round" stroke-linejoin="round" stroke-width="1"/><path d="M113.245,317.278l1.426,15.1-8.646,37.768a.5.5,0,0,0,.479.622h0a.5.5,0,0,0,.479-.367l9.975-37.834,5.024-.189v-1.024l-5.117-.387L114,317.135a.386.386,0,0,0-.332-.309h0a.387.387,0,0,0-.425.452Z" transform="translate(-106.01 -297.058)" fill="#263238" stroke="#263238" stroke-linecap="round" stroke-linejoin="round" stroke-width="1"/><path d="M465.234,350.82l-5.817,40.242a.576.576,0,0,1-.568.495h0a.576.576,0,0,1-.576-.645l4.785-39.708Z" transform="translate(-322.123 -317.915)" fill="#263238" stroke="#263238" stroke-linecap="round" stroke-linejoin="round" stroke-width="1"/><path d="M477.936,337.995a63.984,63.984,0,0,0-11.927-.089c-2.381.255-10.779.912-10.509,2.887a3.341,3.341,0,0,0,2.419,2.779c.356,0,33.9,2.319,34.437,1.793a2.658,2.658,0,0,0,.719-2.512C492.715,342.134,477.936,337.995,477.936,337.995Z" transform="translate(-320.42 -309.84)" fill="#b8b8b8" stroke="#263238" stroke-linecap="round" stroke-linejoin="round" stroke-width="1"/><path d="M524.577,265.694a.9.9,0,0,1,1.013,1.109c-1.353,5.666-7.479,31.229-8.116,31.882-.738.734-3.83,2.207-5.156,2.06a31.826,31.826,0,0,1-12.515-6.184c-4.711-3.977-7.807-8.248-7.513-10.9s1.932-5.005,3.39-5.3,7.363.147,12.515-1.473,9.427-4.271,11.784-7.51C521.729,266.966,523.248,265.93,524.577,265.694Z" transform="translate(-342.983 -265.684)" fill="#b8b8b8" stroke="#263238" stroke-linecap="round" stroke-linejoin="round" stroke-width="1"/><path d="M546.612,317.3l-1.43,15.1,8.646,37.768a.5.5,0,0,1-.479.622h0a.5.5,0,0,1-.479-.367l-9.975-37.818-5.024-.189v-1.024l5.117-.386,2.864-13.833a.387.387,0,0,1,.332-.309h0a.386.386,0,0,1,.429.437Z" transform="translate(-370.958 -297.082)" fill="#263238" stroke="#263238" stroke-linecap="round" stroke-linejoin="round" stroke-width="1"/></g><g transform="translate(95.169 134.078)"><path d="M193.51,358.273h-2.678L189.49,295.8h5.361Z" transform="translate(-184.999 -291.031)" fill="#fff" stroke="#263238" stroke-linecap="round" stroke-linejoin="round" stroke-width="1"/><path d="M189.575,299.719h5.191l.085-3.919H189.49Z" transform="translate(-184.999 -291.031)" fill="#263238" stroke="#263238" stroke-linecap="round" stroke-linejoin="round" stroke-width="1"/><path d="M486.92,358.273h-2.678L482.9,295.8h5.361Z" transform="translate(-365.008 -291.031)" fill="#fff" stroke="#263238" stroke-linecap="round" stroke-linejoin="round" stroke-width="1"/><path d="M482.985,299.719h5.191l.085-3.919H482.9Z" transform="translate(-365.008 -291.031)" fill="#263238" stroke="#263238" stroke-linecap="round" stroke-linejoin="round" stroke-width="1"/><rect width="122.244" height="6.505" transform="translate(2.663 0)" fill="#fff" stroke="#263238" stroke-linecap="round" stroke-linejoin="round" stroke-width="1"/><rect width="122.244" height="3.254" transform="translate(2.663 0)" fill="#263238" stroke="#263238" stroke-linecap="round" stroke-linejoin="round" stroke-width="1"/><rect width="127.57" height="2.474" transform="translate(0 0)" fill="#f8951d" stroke="#263238" stroke-linecap="round" stroke-linejoin="round" stroke-width="1"/></g><g transform="translate(115.53 46.663)"><path d="M361.28,212.761a13.8,13.8,0,0,0,1.932,1.523c.41.139,1.2.321,1.2.321l.877.186-1.932-2.81Z" transform="translate(-310.754 -152.192)" fill="#fff" stroke="#263238" stroke-linecap="round" stroke-linejoin="round" stroke-width="1"/><path d="M340.03,186.181l17.945,18.8,5.678-2.5L351.691,185.57Z" transform="translate(-297.717 -135.99)" fill="#b8b8b8" stroke="#263238" stroke-linecap="round" stroke-linejoin="round" stroke-width="1"/><path d="M344.84,187.79l11.548,12.627,7.023-.9-9.175-12.4Z" transform="translate(-300.668 -136.934)" fill="#fff" stroke="#263238" stroke-linecap="round" stroke-linejoin="round" stroke-width="1"/><path d="M355.223,203.629a4.783,4.783,0,0,1-.433-.727,9.7,9.7,0,0,1,.22-1.453c.066-.2.267-.267.441.131a1.932,1.932,0,0,1,.155.928,4.641,4.641,0,0,0,.178.68l-.441.618Z" transform="translate(-306.772 -145.634)" fill="#fff" stroke="#263238" stroke-linecap="round" stroke-linejoin="round" stroke-width="1"/><path d="M356.768,206.232a7.168,7.168,0,0,1-.858-1.159,8.416,8.416,0,0,1,.522-1.2c.023-.07,1.159-.135,1.333-.2s.564-.112.471.182a.966.966,0,0,1-.541.634,3,3,0,0,0-.564.313l-.07.317.317.452" transform="translate(-307.459 -147.063)" fill="#fff" stroke="#263238" stroke-linecap="round" stroke-linejoin="round" stroke-width="1"/><path d="M358.282,207.686a7.329,7.329,0,0,1-.962-1.318,10.1,10.1,0,0,1,.58-1.341c.027-.077,1.291-.151,1.5-.228s.634-.128.533.2a1.086,1.086,0,0,1-.611.711,3.312,3.312,0,0,0-.634.356l-.073.352.352.506" transform="translate(-308.324 -147.752)" fill="#fff" stroke="#263238" stroke-linecap="round" stroke-linejoin="round" stroke-width="1"/><path d="M360.459,210.212a12.641,12.641,0,0,1-1.159-1.345,11.832,11.832,0,0,1,.607-1.264s2.358-.387,2.485-.356.2.178-.178.529a2.852,2.852,0,0,1-1.159.51c-.151.05-.178.707-.178.707l.711.885" transform="translate(-309.539 -149.288)" fill="#fff" stroke="#263238" stroke-linecap="round" stroke-linejoin="round" stroke-width="1"/><path d="M332.464,214.31a10.755,10.755,0,0,0-1.913.916c-.75.5-2,1.159-2,1.159l-1.283,4.387a5.411,5.411,0,0,1,2.783.943,5.6,5.6,0,0,0,4.58.251c.669-.414,1.581-3.664.746-4.414S332.464,214.31,332.464,214.31Z" transform="translate(-289.888 -153.622)" fill="#fff" stroke="#263238" stroke-linecap="round" stroke-linejoin="round" stroke-width="1"/><path d="M344.868,219.793l-2.319-.75s-1.751-1.159-2.168-1.33a9.234,9.234,0,0,0-1.913-.166s-4,5.743-4.163,6.161-.251,1.333.332,1.5a5.1,5.1,0,0,0,2-.332,4.472,4.472,0,0,0,2.164.5,17.712,17.712,0,0,0,3.332-1.932l2.914-.081Z" transform="translate(-294.129 -155.607)" fill="#fff" stroke="#263238" stroke-linecap="round" stroke-linejoin="round" stroke-width="1"/><path d="M339.106,215.321s1.832,2.829,2.5,2.914,1.333-.332.831-1.248-1.082-2.319-1.415-3.092-1.666-.746-2.249.5" transform="translate(-296.944 -153.048)" fill="#fff" stroke="#263238" stroke-linecap="round" stroke-linejoin="round" stroke-width="1"/><path d="M352.163,229.194a1.26,1.26,0,0,0-.1,1.457c.2.344.433.7.518.7a.835.835,0,0,0,.812-.866C353.345,229.917,352.824,228.452,352.163,229.194Z" transform="translate(-304.983 -162.627)" fill="#fff" stroke="#263238" stroke-linecap="round" stroke-linejoin="round" stroke-width="1"/><path d="M349.639,231.942a1.268,1.268,0,0,0-.1,1.457c.2.344.433.7.518.7a.835.835,0,0,0,.812-.866C350.822,232.664,350.3,231.2,349.639,231.942Z" transform="translate(-303.437 -164.312)" fill="#fff" stroke="#263238" stroke-linecap="round" stroke-linejoin="round" stroke-width="1"/><path d="M346.827,234.745a1.028,1.028,0,0,0-.081,1.159c.166.278.352.568.417.568a.676.676,0,0,0,.657-.7C347.785,235.341,347.364,234.158,346.827,234.745Z" transform="translate(-301.75 -166.06)" fill="#fff" stroke="#263238" stroke-linecap="round" stroke-linejoin="round" stroke-width="1"/><path d="M344.338,236.011a.773.773,0,0,0-.062.9c.124.213.267.433.321.433a.514.514,0,0,0,.5-.533C345.068,236.459,344.747,235.539,344.338,236.011Z" transform="translate(-300.25 -166.855)" fill="#fff" stroke="#263238" stroke-linecap="round" stroke-linejoin="round" stroke-width="1"/><path d="M326.71,217.539l-1.059,5.689-2.021-.085,1.233-6.134Z" transform="translate(-287.655 -155.278)" fill="#f8951d" stroke="#263238" stroke-linecap="round" stroke-linejoin="round" stroke-width="1"/><path d="M312.771,208.847s-.97,7.1-1.5,7.73-7.653-1.318-8-1.407.441-10.2.441-10.2S311.963,208.479,312.771,208.847Z" transform="translate(-275.107 -147.892)" fill="#f8951d" stroke="#263238" stroke-linecap="round" stroke-linejoin="round" stroke-width="1"/><path d="M385.72,87.651a17.662,17.662,0,0,0-1.295,4.193,15.456,15.456,0,0,1-.2,3.865c-.309.912-1.813,1.449-1.449,2.226a3.181,3.181,0,0,0,1.4,1.245s.727,3.73,1.14,4.87,1.09,1.295,1.708,1.19,2.23-.518,2.23-.518l1.19,6.161,7.819-4.348-1.295-4.039s2.226-3.884-.155-9.322S389.295,84.493,385.72,87.651Z" transform="translate(-323.904 -75.154)" fill="#fff" stroke="#263238" stroke-linecap="round" stroke-linejoin="round" stroke-width="1"/><path d="M389.16,104.243a.9.9,0,0,1,1.229-.414" transform="translate(-327.858 -85.779)" fill="none" stroke="#263238" stroke-linecap="round" stroke-linejoin="round" stroke-width="1"/><ellipse cx="0.359" cy="0.777" rx="0.359" ry="0.777" transform="translate(61.766 19.333)" fill="#263238"/><path d="M389.82,119.585a4.251,4.251,0,0,0,2.953-1.295" transform="translate(-328.263 -94.713)" fill="none" stroke="#263238" stroke-linecap="round" stroke-linejoin="round" stroke-width="1"/><path d="M407.639,134.35s-8.913,5.411-9.245,5.832a13.667,13.667,0,0,0-.584,3.165L408.968,136Z" transform="translate(-333.165 -104.566)" fill="#fff" stroke="#263238" stroke-linecap="round" stroke-linejoin="round" stroke-width="1"/><path d="M387.184,325.62s-.727,5.268-.452,6.717,9.075,28.214,9.168,29.134.908,5.086.908,5.086a33.75,33.75,0,0,0-2.18,4.449A7.6,7.6,0,0,1,392,374.1c-.634.46-2.725,1.272-3,1.635s.642.29,1.229.417a20.671,20.671,0,0,0,2.763.035,14.9,14.9,0,0,0,3.27-.182c.727-.274,1.724-3,2.18-3.54a2.5,2.5,0,0,1,1.179-.727l-.815,4.638h1.268s.908-3.722,1.272-4.994.819-1.994.274-3.266a18.983,18.983,0,0,0-1.635-2.814s-.363-10.169-.274-10.621-.634-9.353-.9-11.711-2.273-8.619-2.361-9.164.545-6.717.545-6.717Z" transform="translate(-326.33 -221.911)" fill="#b8b8b8" stroke="#263238" stroke-linecap="round" stroke-linejoin="round" stroke-width="1"/><path d="M399.394,328.151s1.032,7.653,1.619,10.868,2.945,24.465,2.794,26.39a23.354,23.354,0,0,1-.332,2.733,66.953,66.953,0,0,1-3.177,6.041c-.591.63-1.6,1.952-2.207,2.068s-2.876.491-2.354,1.082,6.076.649,7.278.317,2.752-2.9,3.25-3.216l.495-.317.387,3.424,1.31-.035a20.068,20.068,0,0,0,.974-5.179,10.531,10.531,0,0,0-1.322-4.205s1.337-6.9,2.122-11.568,2.211-8.136,1.21-11.746a43.5,43.5,0,0,1-1.38-6.427c0-.3.6-10.822.6-10.822S402.053,329.5,399.394,328.151Z" transform="translate(-331.846 -223.101)" fill="#fff" stroke="#263238" stroke-linecap="round" stroke-linejoin="round" stroke-width="1"/><path d="M409.439,438.776a8.673,8.673,0,0,0-.7-2.906c-.131.046-.267.093-.414.151-1.565.622-3.942,3.683-5.9,5.318a5.283,5.283,0,0,1-4,1.272l-.05-.031a.823.823,0,0,1-.282.12c-.6.12-2.876.491-2.354,1.082s6.076.649,7.278.317,2.752-2.9,3.25-3.216l.495-.317.387,3.424,1.31-.035A19.95,19.95,0,0,0,409.439,438.776Z" transform="translate(-331.846 -289.55)" fill="#263238" stroke="#263238" stroke-linecap="round" stroke-linejoin="round" stroke-width="1"/><path d="M380.815,247.722l.808,8.2L379.4,279.956s8.078,3.405,14.741,3.019,10.3-2.319,10.3-2.319-.908-17.678-.808-18.687,1.314-4.947.305-9.388a23.99,23.99,0,0,0-2.021-6.161S387.884,250.045,380.815,247.722Z" transform="translate(-321.87 -173.321)" fill="#263238" stroke="#263238" stroke-linecap="round" stroke-linejoin="round" stroke-width="1"/><path d="M398.5,136.29s-10.822,7.081-12.159,8.746-4.414,9.744-4.414,11.158,1.832,16.07,1.832,16.07l-2.582,9.164s1.666,2.412,10.327,1.747,12.99-2.748,12.99-2.748-3.981-9.245-4.062-10.493,2.748-13.141,2.914-15.738-1.229-9.662-2.079-11.827A66.479,66.479,0,0,0,398.5,136.29Z" transform="translate(-322.962 -105.756)" fill="#f8951d" stroke="#263238" stroke-linecap="round" stroke-linejoin="round" stroke-width="1"/><path d="M388.329,73.87s-3.3,1.268-3.212,2.454,1.859,4.483,3.3,5.836,5.411,4.479,5.751,7.274-.421,5.5-1.523,5.581l-1.1.085s.421,2.029,4.228,2.62,8.116.506,10.234-3.131,1.6-11.668-.51-15.39-7.343-6.006-10.234-6.427S388.329,73.87,388.329,73.87Z" transform="translate(-325.377 -66.743)" fill="#263238" stroke="#263238" stroke-linecap="round" stroke-linejoin="round" stroke-width="1"/><path d="M391.72,153.008a21.254,21.254,0,0,1,1.689-2.114,14.818,14.818,0,0,1,3.579-2.582l.916-1.5.835.332s2.319-1.5,4.081-2.833a12.218,12.218,0,0,0,2.5-2.412" transform="translate(-329.429 -109.198)" fill="none" stroke="#263238" stroke-linecap="round" stroke-linejoin="round" stroke-width="1"/><path d="M387.25,174.6s.464-.73,1.1-1.658" transform="translate(-326.686 -128.241)" fill="none" stroke="#263238" stroke-linecap="round" stroke-linejoin="round" stroke-width="1"/><path d="M380.226,160.74s-2.582,3.162-2.829,4.251-1.987,13.871-1.987,13.871-1.252,0-1.418.336a20.348,20.348,0,0,0-.414,2.582s-.669.746-1,.831l-12.658,2,.584,5s8.078,0,10.327-.251,5.16,0,6.57-.584a8.38,8.38,0,0,0,3.83-2.319l1.125-2.705s4.371-11.208,4.537-13.438a8.7,8.7,0,0,0-.17-2.926" transform="translate(-309.919 -120.756)" fill="#f8951d" stroke="#263238" stroke-linecap="round" stroke-linejoin="round" stroke-width="1"/><path d="M281.88,74.261a15.474,15.474,0,0,1,1.573,4.375c.07,1.5-.549,3.212-.344,4.441s1.5,1.708,1.229,2.528-1.5,1.094-1.5,1.094-.615,2.8-1.09,4.441a2.709,2.709,0,0,1-2.8,1.844,12.422,12.422,0,0,1-2.462-.545l-.819,4.731-9.222-6.694.75-4.031,1.5-2.8s-1.979-4.441-.2-7.583,4.85-4.166,8.267-4.576S281.88,74.261,281.88,74.261Z" transform="translate(-252.569 -65.974)" fill="#fff" stroke="#263238" stroke-linecap="round" stroke-linejoin="round" stroke-width="1"/><path d="M275.81,104.54a1.341,1.341,0,0,0,.889,1.028,2.613,2.613,0,0,0,1.639-.274s-.684,2.8.545,4.371" transform="translate(-258.317 -86.277)" fill="none" stroke="#263238" stroke-linecap="round" stroke-linejoin="round" stroke-width="1"/><path d="M297,108.61s.545,2.048,2.319,2.048" transform="translate(-271.317 -88.774)" fill="none" stroke="#263238" stroke-linecap="round" stroke-linejoin="round" stroke-width="1"/><path d="M301.62,89.292s.885-.75,2.118.344" transform="translate(-274.152 -76.769)" fill="none" stroke="#263238" stroke-linecap="round" stroke-linejoin="round" stroke-width="1"/><ellipse cx="1.855" cy="2.593" rx="1.855" ry="2.593" transform="translate(27.171 13.281)" fill="none" stroke="#263238" stroke-linecap="round" stroke-linejoin="round" stroke-width="1"/><path d="M305.269,98.644c0,.472-.186.854-.41.854s-.41-.386-.41-.854.182-.854.41-.854S305.269,98.153,305.269,98.644Z" transform="translate(-275.888 -82.136)" fill="#263238"/><line x1="7.243" y1="0.17" transform="translate(19.816 16.01)" fill="none" stroke="#263238" stroke-linecap="round" stroke-linejoin="round" stroke-width="1"/><path d="M288.954,123.7a3.7,3.7,0,0,1-1.159-.549c-.41-.34-1.024-.75-1.024-.75l1.708,4.1Z" transform="translate(-265.041 -97.234)" fill="#263238" stroke="#263238" stroke-miterlimit="10" stroke-width="1"/><path d="M280,65.575s-1.983-1.828-3.629-1.295-2.118,1.364-1.368,3,.479,3.212-.271,3.691-3.142.889-3.417,1.368a4.689,4.689,0,0,1-.819.955s-.615-1.844-1.643-1.3-1.295,2.667-.68,3.552L265.3,77.738a15.845,15.845,0,0,0-.955-5.875c-1.094-2.6-1.635-8.337.429-10.049s4.638-1.364,5.411-2.048.684-2.257,3.092-2.462,3.417,1.573,4.441,1.983,1.434-1.024,3.142.135,3.092,2.8,2.528,4.51S280,65.575,280,65.575Z" transform="translate(-250.692 -57.288)" fill="#263238" stroke="#263238" stroke-linecap="round" stroke-linejoin="round" stroke-width="1"/><path d="M253.371,372.945s-1.38,9.531-1.38,11.545-.209,8.3-.209,8.3a19.313,19.313,0,0,0-.742,2.752c0,.529.1,1.8.1,1.8l.425,5.616h5.082a64.071,64.071,0,0,0,1.8-14.725c-.213-6.675-3.919-19.1-3.919-19.1Z" transform="translate(-243.121 -248.605)" fill="#263238" stroke="#263238" stroke-linecap="round" stroke-linejoin="round" stroke-width="1"/><path d="M245.58,245.63s.259,12.387,1.044,15.259,2.6,6.389,2.6,7.3,1.159,11.595,1.956,14.478-2.218,11.738-1.434,16.824,3,17.871,3,17.871-.522-.128-.522,1.7v3.784l.131,4.433h5.608s-.386-.912.912-.912,2.087.773,2.74.912,9.129,0,9.129,0,.653-1.044.387-1.7-1.159-.649-2.868-1.565a25.173,25.173,0,0,1-4.437-3c-.653-.653-.912-2.346-1.3-3.131a8.206,8.206,0,0,1-1.044-2.215c0-.522.773-12.526.773-19.572s1.044-11.347,2.218-17.868,1.044-18.652,1.159-22.173.387-9.662.387-9.662Z" transform="translate(-239.771 -172.837)" fill="#263238" stroke="#263238" stroke-linecap="round" stroke-linejoin="round" stroke-width="1"/><path d="M292.177,142.18s2.218,2.412,1.836,4.05a11.048,11.048,0,0,0-.29,2.991s2.319,3.865,2.508,10.9,1.445,16.886,1.445,16.886l-2.218,4.823-2.705-5.307s.773-12.832.87-16.016a39.163,39.163,0,0,0-.193-7.815,29.012,29.012,0,0,1-.483-3.571l-1.546-5.6Z" transform="translate(-267.882 -109.37)" fill="#263238" stroke="#263238" stroke-linecap="round" stroke-linejoin="round" stroke-width="1"/><path d="M263.1,116.8l11.7,8.433-1.4,5.33L262.04,119.54Z" transform="translate(-249.869 -93.799)" fill="#f8951d" stroke="#263238" stroke-linecap="round" stroke-linejoin="round" stroke-width="1"/><path d="M248.734,123.89s-6.883,9.662-7.846,13.632-.29,11.382-.193,12.368.483,21.516.966,22.386,3.277,1.159,3.277,1.159h17.949a2.843,2.843,0,0,0,1.252-2.8c-.1-2.122-.387-4.437-.387-4.437s.1-20.84-.1-23.638-3.567-8.889-3.567-8.889Z" transform="translate(-236.578 -98.149)" fill="#f8951d" stroke="#263238" stroke-linecap="round" stroke-linejoin="round" stroke-width="1"/><path d="M255.253,303.943a.773.773,0,0,1-.773-.773v-3.134a1.739,1.739,0,0,1,1.747-1.735h2.439a.773.773,0,0,1,0,1.546h-2.439a.189.189,0,0,0-.189.189v3.134a.773.773,0,0,1-.785.773Z" transform="translate(-245.231 -205.15)" fill="#fff" stroke="#263238" stroke-linecap="round" stroke-linejoin="round" stroke-width="1"/><path d="M263.623,282.508a11.9,11.9,0,0,0,1.48,1.894c.472.348.653,1.009,1.187,2.319a7.677,7.677,0,0,1,.591,2.13,6.958,6.958,0,0,1,.472,1.546c0,.414-1.894,1.245-1.894,1.245s.058.773-.3.947a2.284,2.284,0,0,1-1.546.178,9.087,9.087,0,0,1-1.422-1.125,6.871,6.871,0,0,1-1.716-.356,4.363,4.363,0,0,1-2.133-1.129c-.475-.653-.649-1.125-.472-2.663s1.063-5.094,1.063-5.094Z" transform="translate(-247.27 -195.395)" fill="#fff" stroke="#263238" stroke-linecap="round" stroke-linejoin="round" stroke-width="1"/><path d="M259.53,275.78s.12,2.845.414,3.022a6.759,6.759,0,0,0,3.092.591,8.658,8.658,0,0,0,2.489-.711l-.062-2.783S260.535,276.313,259.53,275.78Z" transform="translate(-248.329 -191.334)" fill="#f8951d" stroke="#263238" stroke-linecap="round" stroke-linejoin="round" stroke-width="1"/><path d="M251.664,146.05s-2.906,5.921-3.015,8.615,1.187,18.088,1.187,24.438,1.4,16.043,1.932,17.006a3.114,3.114,0,0,0,2.8,1.183c.966,0,4.093.537,4.738-.862s0-15.719,0-18.088,3.66-16.043,2.261-24.117" transform="translate(-241.65 -111.744)" fill="#f8951d" stroke="#263238" stroke-linecap="round" stroke-linejoin="round" stroke-width="1"/><path d="M280.151,298.3h-2.435a.773.773,0,0,0-.406.116v1.314a.773.773,0,0,0,.406.12h2.435a.189.189,0,0,1,.189.189v3.134a.773.773,0,0,0,1.546,0v-3.134a1.735,1.735,0,0,0-1.735-1.739Z" transform="translate(-259.238 -205.15)" fill="#fff" stroke="#263238" stroke-linecap="round" stroke-linejoin="round" stroke-width="1"/><rect width="31.727" height="22.973" rx="4.82" transform="translate(0 97.969)" fill="#f8951d" stroke="#263238" stroke-linecap="round" stroke-linejoin="round" stroke-width="1"/><line x2="0.066" y2="2.354" transform="translate(17.945 92.794)" fill="none" stroke="#263238" stroke-linecap="round" stroke-linejoin="round" stroke-width="1"/></g></g></svg>