<svg xmlns="http://www.w3.org/2000/svg" width="250" height="218.52" viewBox="0 0 250 218.52"><g transform="translate(-44.64 -111.489)"><g transform="translate(44.64 327.068)"><path d="M294.64,465.818c0,.091-55.969.158-124.994.158S44.64,465.91,44.64,465.818s55.957-.158,125.006-.158S294.64,465.733,294.64,465.818Z" transform="translate(-44.64 -465.66)" fill="#263238"/></g><g transform="translate(185.795 234.117)"><path d="M318.184,402.165s-2.684-18.431-2.435-29.156,0-22.789,0-22.789h1.217s-.84,21.3.073,34.123,3.305,17.822,3.305,17.822H318.2" transform="translate(-291.877 -327.535)" fill="#263238"/><path d="M324.948,314.9a3.287,3.287,0,0,0-1.126-1.65,3.242,3.242,0,0,0-2.69,0c-3.731,1.321-7.036,8.284-8.522,11.942l4.955,16.7C326.482,333.61,328.065,322.72,324.948,314.9Z" transform="translate(-290.655 -312.952)" fill="#455a64"/><path d="M326.695,314.55a.9.9,0,0,1-.073.219c-.061.158-.14.359-.243.609-.213.523-.517,1.29-.883,2.24-.73,1.893-1.662,4.547-2.49,7.529s-1.4,5.74-1.753,7.742c-.177,1-.31,1.826-.4,2.374-.043.262-.073.475-.1.645a.937.937,0,0,1-.049.225.906.906,0,0,1,0-.225c0-.177.043-.39.073-.657.055-.566.17-1.382.329-2.386a72.429,72.429,0,0,1,1.692-7.773,71.313,71.313,0,0,1,2.556-7.529c.383-.943.706-1.7.943-2.216l.28-.609A1.264,1.264,0,0,1,326.695,314.55Z" transform="translate(-293.82 -313.577)" fill="#263238"/><path d="M312.167,351.427a15.12,15.12,0,0,1-7.639-12.7c-.176-3.7.962-7.341,2.252-10.816a1.376,1.376,0,0,1,.523-.785,1.327,1.327,0,0,1,1.266.195c3.372,1.923,5.417,5.588,6.507,9.313a18.822,18.822,0,0,1,.767,7.663,12.728,12.728,0,0,1-3.652,7.128" transform="translate(-287.485 -318.467)" fill="#455a64"/><path d="M314.993,353.177a1.107,1.107,0,0,1,0-.225v-.639c0-.554,0-1.363-.067-2.356a65.083,65.083,0,0,0-.864-7.712c-.517-2.989-1.144-5.667-1.6-7.6-.231-.95-.414-1.723-.554-2.295-.055-.256-.1-.463-.14-.609a.967.967,0,0,1-.037-.219,1.216,1.216,0,0,1,.073.213l.183.609c.152.536.365,1.315.609,2.276.493,1.93,1.144,4.608,1.662,7.6a56.245,56.245,0,0,1,.8,7.742v3.007A1.219,1.219,0,0,1,314.993,353.177Z" transform="translate(-290.31 -320.218)" fill="#263238"/><g transform="translate(17.025 8.58)" opacity="0.3"><path d="M312.167,351.427a15.12,15.12,0,0,1-7.639-12.7c-.176-3.7.962-7.341,2.252-10.816a1.376,1.376,0,0,1,.523-.785,1.327,1.327,0,0,1,1.266.195c3.372,1.923,5.417,5.588,6.507,9.313a18.822,18.822,0,0,1,.767,7.663,12.728,12.728,0,0,1-3.652,7.128" transform="translate(-304.51 -327.047)"/></g><path d="M325.7,413.185c4.571,1,8.333,4.224,12.746,5.795,2.916,1.035,6.221,1.406,8.522,3.445a7.2,7.2,0,0,0-3.171-3.159,57.182,57.182,0,0,0-11.565-5.515c-2.076-.712-4.328-1.315-6.44-.724" transform="translate(-295.777 -352.019)" fill="#455a64"/><path d="M303.621,416.246c-5.728-.1-11.754-4.967-17.451-5.259,5.965-1.923,14.5-.353,17.451,5.259" transform="translate(-280.308 -351.008)" fill="#455a64"/><path d="M318.508,393.091a18.626,18.626,0,0,1,9.13-.609,55.565,55.565,0,0,1,8.936,2.435c-.292-1.984-1.9-3.482-3.409-4.8a23.739,23.739,0,0,0-3.591-2.757,8.028,8.028,0,0,0-4.3-1.217,6.793,6.793,0,0,0-4.748,2.4,7.876,7.876,0,0,0-2.033,4.571" transform="translate(-292.956 -341.591)" fill="#455a64"/><path d="M290.339,385.424c-3.6-3.08-9.063-2.776-13.8-2.672a112.321,112.321,0,0,1,21.4,13.336C298.124,392.74,294.892,389.307,290.339,385.424Z" transform="translate(-276.54 -340.242)" fill="#455a64"/><g transform="translate(0 42.45)" opacity="0.3"><path d="M290.339,385.424c-3.6-3.08-9.063-2.776-13.8-2.672a112.321,112.321,0,0,1,21.4,13.336C298.124,392.74,294.892,389.307,290.339,385.424Z" transform="translate(-276.54 -382.692)"/></g><path d="M321.152,370.688a39.719,39.719,0,0,1,5.539-3.22c1.9-.864,3.652-2.24,5.478-3.232a60.366,60.366,0,0,0,6.616-4.669,17.074,17.074,0,0,1,7.243-3.457,14.316,14.316,0,0,0-6.592.383,42.28,42.28,0,0,0-6.209,2.435,30.127,30.127,0,0,0-7.968,4.62c-2.295,2.057-4.376,4.084-4.133,7.158" transform="translate(-293.98 -329.755)" fill="#455a64"/><path d="M335.318,417.377a.836.836,0,0,1-.183-.079l-.5-.262c-.432-.225-1.053-.566-1.826-.962-.383-.2-.81-.414-1.272-.609s-.962-.45-1.491-.682a22.088,22.088,0,0,0-3.524-1.217,7.615,7.615,0,0,0-3.652-.091,9.74,9.74,0,0,0-1.558.469,7.782,7.782,0,0,0-1.254.639,8.072,8.072,0,0,0-1.583,1.309c-.329.353-.493.572-.505.56a.731.731,0,0,1,.1-.17c.073-.1.189-.256.347-.444a7.25,7.25,0,0,1,1.558-1.37,7.538,7.538,0,0,1,1.272-.682,10.189,10.189,0,0,1,1.577-.493,7.609,7.609,0,0,1,3.762.079,20.924,20.924,0,0,1,3.555,1.254c.53.231,1.029.463,1.485.7s.889.444,1.266.657c.773.414,1.388.773,1.826,1.023l.481.292a.792.792,0,0,1,.116.079Z" transform="translate(-292.752 -352.139)" fill="#263238"/><path d="M307.82,415.47a.963.963,0,0,1,.359.1,7.745,7.745,0,0,1,.937.4,11.438,11.438,0,0,1,2.733,1.942,11.2,11.2,0,0,1,2.045,2.654,7.862,7.862,0,0,1,.444.919,1.357,1.357,0,0,1,.122.353c-.036,0-.25-.469-.688-1.217a12.679,12.679,0,0,0-4.723-4.541C308.3,415.7,307.808,415.5,307.82,415.47Z" transform="translate(-288.78 -353.068)" fill="#263238"/><path d="M287,386.7a1.136,1.136,0,0,1,.243.073l.688.243,1.083.4c.426.158.883.39,1.4.609a33.047,33.047,0,0,1,7.456,4.754,37.127,37.127,0,0,1,3.476,3.421,38.006,38.006,0,0,1,2.465,3.129c.651.925,1.15,1.692,1.491,2.228l.39.609a1.217,1.217,0,0,1,.128.219.912.912,0,0,1-.158-.195c-.1-.134-.25-.335-.426-.609-.359-.517-.876-1.278-1.54-2.191s-1.5-1.966-2.49-3.08a38.48,38.48,0,0,0-3.47-3.4,35.109,35.109,0,0,0-7.383-4.772c-.511-.237-.968-.475-1.382-.645l-1.065-.426-.676-.28A.918.918,0,0,1,287,386.7Z" transform="translate(-280.633 -341.81)" fill="#263238"/><path d="M326.612,392a1.692,1.692,0,0,1-.457-.055l-.536-.11c-.207-.043-.444-.043-.706-.067a7.189,7.189,0,0,0-3.932.773,7.071,7.071,0,0,0-1.8,1.333,8.29,8.29,0,0,0-1.15,1.418,12.5,12.5,0,0,0-.785,1.5,1.521,1.521,0,0,1,.116-.444,6.129,6.129,0,0,1,.548-1.132,7.857,7.857,0,0,1,1.138-1.479,7,7,0,0,1,5.874-2.118c.262.037.505.049.712.1l.523.134a1.98,1.98,0,0,1,.45.146Z" transform="translate(-292.47 -343.717)" fill="#263238"/><path d="M332.2,363a1.12,1.12,0,0,1-.213.134l-.639.347c-.56.3-1.357.736-2.325,1.309s-2.106,1.3-3.317,2.161a27.548,27.548,0,0,0-3.707,3.1,9.522,9.522,0,0,0-1.516,1.96c-.371.718-.73,1.412-1.059,2.082a38.373,38.373,0,0,0-1.595,3.622,23.645,23.645,0,0,0-.773,2.55c-.146.609-.195.962-.219.956a1.163,1.163,0,0,1,0-.256,4.151,4.151,0,0,1,.122-.718,18.521,18.521,0,0,1,.712-2.581,35.45,35.45,0,0,1,1.558-3.652c.329-.676.682-1.376,1.053-2.094a9.55,9.55,0,0,1,1.546-2.015,26.937,26.937,0,0,1,3.743-3.11c1.217-.864,2.374-1.564,3.354-2.13s1.8-.98,2.362-1.26l.657-.31A.981.981,0,0,1,332.2,363Z" transform="translate(-292.305 -332.536)" fill="#263238"/><path d="M313.253,383.784a2.045,2.045,0,0,1-.116-.487c-.067-.353-.152-.791-.25-1.321a38.132,38.132,0,0,0-1.083-4.3,36.728,36.728,0,0,0-1.637-4.115c-.219-.493-.408-.9-.554-1.217a1.668,1.668,0,0,1-.183-.457,2.363,2.363,0,0,1,.25.42c.152.28.365.694.609,1.217a30.469,30.469,0,0,1,1.7,4.121,29.828,29.828,0,0,1,1.029,4.334c.091.56.158,1.017.189,1.339A2.47,2.47,0,0,1,313.253,383.784Z" transform="translate(-289.41 -336.015)" fill="#263238"/><path d="M304.935,359.407a15.625,15.625,0,0,0-1.826-6.166A20.409,20.409,0,0,0,289.28,342.93l12.782,19.082,1.656,3.409A9.831,9.831,0,0,0,304.935,359.407Z" transform="translate(-281.525 -324.683)" fill="#455a64"/><rect width="29.771" height="5.277" transform="translate(12.022 72.354)" fill="#f8951d"/><path d="M299.94,438.76l2.538,16.38h19.764l3.025-16.38Z" transform="translate(-285.697 -362.182)" fill="#f8951d"/><path d="M325.886,440.43c0,.055-6.7.1-15,.1s-15-.049-15-.1,6.7-.11,15-.11S325.886,440.369,325.886,440.43Z" transform="translate(-284.112 -362.793)" fill="#263238"/></g><g transform="translate(90.109 111.489)"><rect width="140.254" height="59.651" rx="29.826" transform="translate(6.896 28.445)" fill="#e0e0e0"/><path d="M241.015,217.765l.895-.061,1.108-.061a12.591,12.591,0,0,0,1.522-.134l1.923-.3.542-.085.554-.14,1.181-.31c.414-.116.846-.2,1.278-.347l1.327-.487c.45-.177.937-.329,1.412-.542l1.443-.7a27.187,27.187,0,0,0,3.043-1.717,15.593,15.593,0,0,0,1.522-1.09l.779-.609.4-.3.371-.335,1.516-1.382c.511-.475.956-1.035,1.455-1.558.237-.274.493-.542.73-.822s.444-.609.67-.895l.682-.913.347-.469.3-.5a28.383,28.383,0,0,0,3.9-9.13,30.154,30.154,0,0,0,.511-11.127,29.649,29.649,0,0,0-13.507-20.884l-1.485-.9c-.5-.3-1.047-.523-1.564-.785a13.262,13.262,0,0,0-1.607-.737l-1.674-.609c-.286-.1-.56-.219-.846-.292l-.87-.225-1.753-.45c-.609-.11-1.217-.189-1.826-.286a14.005,14.005,0,0,0-1.826-.213c-2.435-.183-4.961-.11-7.5-.122H160.418a33.4,33.4,0,0,0-8.8,1.327,32.784,32.784,0,0,0-7.913,3.816,32.326,32.326,0,0,0-6.355,5.856,31.652,31.652,0,0,0-4.364,7.3,32.6,32.6,0,0,0-2.076,8.1c-.079.682-.085,1.376-.128,2.063l-.055,1.035a9.738,9.738,0,0,0,.037,1.029c.037.682.067,1.363.1,2.045s.2,1.351.3,2.021l.152,1,.25.986c.164.651.335,1.3.505,1.954s.463,1.26.688,1.887c.122.31.213.609.359.931l.432.9a29.467,29.467,0,0,0,4.261,6.6l1.3,1.436.329.359.353.323.712.651a29.123,29.123,0,0,0,2.97,2.386,6.517,6.517,0,0,0,.785.523l.81.493.8.487.4.243.42.2a27.961,27.961,0,0,0,3.4,1.5c.578.2,1.144.444,1.729.609l1.765.457.876.219.895.14,1.777.274c.609.079,1.187.073,1.771.116s1.181.073,1.771.073h29.3l37.349.049,10.153.03h0l-10.153.03-37.349.055H160.674c-.609,0-1.187-.049-1.783-.073s-1.217-.037-1.79-.116l-1.8-.274-.9-.134-.883-.225-1.783-.457c-.609-.164-1.163-.414-1.747-.609a28.49,28.49,0,0,1-3.433-1.5l-.426-.207-.4-.243-.81-.493-.816-.493a7.166,7.166,0,0,1-.791-.53,29.125,29.125,0,0,1-3.007-2.435l-.718-.657-.359-.323-.329-.359c-.438-.487-.876-.968-1.321-1.449a29.63,29.63,0,0,1-4.261-6.7l-.438-.907c-.146-.3-.237-.609-.359-.943-.237-.609-.469-1.272-.7-1.905s-.341-1.315-.517-1.978l-.25-.992-.152-1.017c-.1-.676-.225-1.351-.3-2.039s-.067-1.376-.1-2.07c0-.347-.049-.694-.037-1.041l.055-1.041c.043-.694.043-1.394.128-2.088a30.964,30.964,0,0,1,.755-3.969,31.41,31.41,0,0,1,1.321-4.048,31.871,31.871,0,0,1,4.407-7.383,32.492,32.492,0,0,1,6.446-5.916,33.271,33.271,0,0,1,7.986-3.859,33.8,33.8,0,0,1,8.887-1.339h75.526c2.538,0,5.04-.055,7.523.128a15.607,15.607,0,0,1,1.826.219c.609.1,1.217.177,1.826.292l1.771.457.877.225c.292.079.566.2.852.3l1.686.609c.566.195,1.083.5,1.625.743a15.884,15.884,0,0,1,1.576.791l1.5.913a29.412,29.412,0,0,1,9.392,9.489,29.764,29.764,0,0,1,4.2,11.565,30.384,30.384,0,0,1-.536,11.2,28.608,28.608,0,0,1-3.944,9.2l-.3.5-.347.469-.688.919-.676.9c-.243.28-.5.548-.743.822-.5.53-.95,1.09-1.467,1.564l-1.528,1.382-.377.335-.4.3-.779.609a16.566,16.566,0,0,1-1.54,1.09,28.3,28.3,0,0,1-3.043,1.71l-1.455.7c-.475.207-.962.359-1.418.53l-1.333.487c-.438.14-.87.231-1.278.341l-1.217.3-.554.14-.548.079-1.923.286a12.551,12.551,0,0,1-1.534.122l-1.108.043Z" transform="translate(-123.69 -129.668)" fill="#263238"/><path d="M268.3,210.68c-.207.158-5.2,3.086-5.2,3.086l-3.585,3.043,1.643-4.87s-.335-1.248-1.266.177-4.212,6.9-4.212,6.9l-2.891,4.036,3.81,5.515s2.812-1.619,4.133-2.161a13.05,13.05,0,0,1,5.028-.8c.834.207,4.87-.1,5.028-.572s-.444-.907-1.534-.822-4.8-.1-4.936-.834,6.781-1.723,7.3-2.149.609-1.217-1.217-1.163-5.509.87-6.087.177,1.053-1.12,1.26-1.278,4.066-1.576,4.87-2.4c.505-.523-.043-1.583-1.132-1.272s-5.259,2.435-6.056,2.283,1.1-1.826,1.4-2.021c2.015-1.357,4.139-2.374,4.169-3.737A1.394,1.394,0,0,0,268.3,210.68Z" transform="translate(-171.561 -150.303)" fill="#ffbf9d"/><path d="M251.94,236.545l-10.2,4.656-.858-8.382,7.249-1.79Z" transform="translate(-166.9 -158.267)" fill="#ffbf9d"/><path d="M231.416,226.2c-3.756,1.917-6.531.73-8.016-1.37-1.637-2.313-7.14-33.873-7.14-33.873l.876-3.33s4.364,1.394,5.478,3.737,8.254,20.294,8.254,20.294l5.983-.834a68.73,68.73,0,0,0,5.131,8.936Z" transform="translate(-157.266 -141.284)" fill="#f8951d"/><g transform="translate(84.504 30.472)" opacity="0.3"><circle cx="28.261" cy="28.261" r="28.261"/></g><circle cx="28.261" cy="28.261" r="28.261" transform="translate(88.205 30.009)" fill="#f8951d"/><path d="M320.667,188.985a3.711,3.711,0,0,0-.043-.457l-.085-1.339c0-.3-.037-.609-.055-.992s-.116-.749-.177-1.181l-.219-1.376c-.061-.493-.243-.992-.365-1.54a27.074,27.074,0,0,0-3.129-7.5,28.109,28.109,0,0,0-7.158-7.986l-1.217-.907c-.426-.28-.876-.542-1.327-.816a12.707,12.707,0,0,0-1.37-.791l-1.461-.7-.743-.353-.779-.286-1.583-.578c-.542-.177-1.1-.292-1.662-.444a14.306,14.306,0,0,0-1.7-.383,27.137,27.137,0,0,0-3.555-.414c-.609,0-1.217-.079-1.826-.067l-1.856.1a5.011,5.011,0,0,0-.943.061l-.937.14c-.609.1-1.26.177-1.887.31a29.877,29.877,0,0,0-3.75,1.1l-.937.347-.463.17-.45.219-1.826.876c-.609.323-1.163.7-1.747,1.047a9.586,9.586,0,0,0-.87.548l-.828.609a31.811,31.811,0,0,0-3.19,2.709l-1.43,1.57-.359.4-.323.432-.639.858-.645.864-.566.925-.566.931-.286.469c-.085.158-.158.329-.237.487-.317.663-.639,1.321-.956,1.984s-.511,1.388-.761,2.082a27.817,27.817,0,0,0,0,17.737l.767,2.082.95,1.978.243.493.28.469.566.931.566.925.645.864.645.864.323.426.359.4,1.43,1.57a31.094,31.094,0,0,0,3.19,2.715l.828.609c.274.213.578.365.87.554.609.347,1.156.724,1.747,1.041l1.826.877.45.219c.152.067.31.116.463.177l.937.341a29.911,29.911,0,0,0,3.75,1.1c.609.128,1.266.2,1.887.3l.937.146c.316.043.609.037.943.061l1.863.1c.609,0,1.217-.049,1.826-.073a25.2,25.2,0,0,0,3.555-.414,13.533,13.533,0,0,0,1.686-.353c.554-.152,1.12-.268,1.656-.444l1.583-.578.779-.28.743-.353,1.461-.7c.487-.225.919-.536,1.376-.8s.895-.53,1.321-.81l1.217-.907a28.127,28.127,0,0,0,7.158-7.992,27.074,27.074,0,0,0,3.129-7.5c.122-.542.3-1.047.365-1.54l.219-1.376c.061-.426.14-.816.177-1.181s.043-.694.055-.986l.067-1.339a1.939,1.939,0,0,1,.043-.457v.457c0,.3,0,.761-.049,1.345,0,.3-.03.609-.043.992a11.293,11.293,0,0,1-.164,1.187c-.061.426-.128.889-.2,1.382a15.594,15.594,0,0,1-.359,1.552,26.741,26.741,0,0,1-3.08,7.542,28.171,28.171,0,0,1-7.176,8.077l-1.217.919c-.426.286-.883.542-1.327.822a8.973,8.973,0,0,1-1.382.8l-1.479.712-.749.359-.785.286-1.595.609c-.542.183-1.114.3-1.674.45a13.506,13.506,0,0,1-1.716.4,26.678,26.678,0,0,1-3.591.426c-.609,0-1.217.079-1.826.073l-1.881-.091a5.044,5.044,0,0,1-.943-.061l-.95-.146c-.609-.1-1.278-.177-1.911-.3a29.823,29.823,0,0,1-3.792-1.108l-.943-.341-.469-.177-.457-.219-1.826-.883c-.609-.329-1.175-.706-1.771-1.059a10.11,10.11,0,0,1-.876-.554l-.84-.609a32.536,32.536,0,0,1-3.226-2.739l-1.443-1.589-.365-.4-.329-.432-.651-.87-.694-.9-.572-.937-.572-.943-.286-.469-.243-.5-.968-2c-.256-.7-.511-1.4-.773-2.106a28.134,28.134,0,0,1,0-17.932c.262-.706.517-1.406.773-2.106l.968-2c.079-.17.158-.335.243-.5l.286-.469.572-.943.572-.937.657-.87.651-.87.323-.432.365-.4,1.449-1.589a31.608,31.608,0,0,1,3.22-2.733l.84-.609c.28-.207.609-.365.877-.554.609-.353,1.175-.73,1.771-1.053l1.826-.883.457-.219c.152-.067.317-.116.469-.177l.943-.347a29.821,29.821,0,0,1,3.792-1.1c.609-.134,1.278-.207,1.911-.31l.943-.14c.316-.043.639-.043.95-.061l1.881-.091c.609,0,1.217.049,1.826.073a26.671,26.671,0,0,1,3.591.426,14.615,14.615,0,0,1,1.716.39c.56.158,1.126.274,1.668.457l1.6.609.785.286.749.359,1.467.712c.493.225.925.542,1.382.8s.9.542,1.333.822l1.217.919a28.17,28.17,0,0,1,7.176,8.077,26.782,26.782,0,0,1,3.092,7.56,15.6,15.6,0,0,1,.359,1.552c.073.493.14.956.2,1.382s.134.822.164,1.187.03.694.043.992c0,.609.037,1.035.049,1.345A1.233,1.233,0,0,0,320.667,188.985Z" transform="translate(-175.939 -130.714)" fill="#263238"/><path d="M196.5,119.1a3.742,3.742,0,0,1-1.047-4.711,5.77,5.77,0,0,1,4.261-2.812,8.132,8.132,0,0,1,7.006,2.325c.962.992,1.747,2.283,3.043,2.739,1.15.4,2.435.037,3.652.195a5.478,5.478,0,0,1,3.829,2.757,11.772,11.772,0,0,1,1.357,4.656c.177,1.485.292,3.11,1.321,4.194s2.593,1.284,3.841,2.033a5.259,5.259,0,0,1,1.564,7.176c-.5.724-1.217,1.382-1.266,2.258a6.043,6.043,0,0,0,.706,2.264,3.555,3.555,0,0,1-3.043,4.407c-1.035.055-2.143-.347-3.074.116s-1.266,1.57-1.826,2.435a4.45,4.45,0,0,1-5.411,1.4,5.855,5.855,0,0,0-2.368-1c-.852,0-1.51.779-2.343.943a3.036,3.036,0,0,1-2.77-1.491,15.705,15.705,0,0,0-1.923-2.7c-1.09-.968-2.611-1.217-3.981-1.68a11.218,11.218,0,0,1-6.343-15.728" transform="translate(-147.166 -111.489)" fill="#263238"/><path d="M225.927,155.429a3.086,3.086,0,0,1,1.217-.791h-.091a1.979,1.979,0,0,1,.262-.049,1.181,1.181,0,0,1,.943.122h0a2.216,2.216,0,0,1,1.217,1.065,2.654,2.654,0,0,1-.31,2.727,2.027,2.027,0,0,1-3.719-.694A2.526,2.526,0,0,1,225.927,155.429Z" transform="translate(-160.816 -128.336)" fill="#455a64"/><path d="M192.977,159.325l-1.589-29.1a2.471,2.471,0,0,1,2.143-2.563l13-3.689c4.182-.56,7.122,4.529,7.505,8.729.426,4.675.767,10.39.31,13.9-.913,7.055-6.7,8.12-6.7,8.12s-.043,7.183,0,9.739l1.607,7.913Z" transform="translate(-147.532 -116.357)" fill="#ffbf9d"/><path d="M224.459,147.912a.907.907,0,0,1-.84.937.864.864,0,0,1-.95-.785.907.907,0,0,1,.84-.937.864.864,0,0,1,.95.785Z" transform="translate(-159.774 -125.433)" fill="#263238"/><path d="M224.387,142.714c-.11.122-.8-.365-1.777-.335s-1.662.536-1.771.42.055-.268.359-.5a2.435,2.435,0,0,1,1.412-.481,2.38,2.38,0,0,1,1.418.414C224.332,142.452,224.442,142.659,224.387,142.714Z" transform="translate(-159.044 -123.357)" fill="#263238"/><path d="M210.735,147.927a.907.907,0,0,1-.846.962.864.864,0,0,1-.95-.785.907.907,0,0,1,.84-.937A.864.864,0,0,1,210.735,147.927Z" transform="translate(-154.401 -125.448)" fill="#263238"/><path d="M208.747,143.424c-.11.122-.8-.359-1.771-.335s-1.668.536-1.777.42.055-.262.359-.5a2.526,2.526,0,0,1,1.418-.481,2.374,2.374,0,0,1,1.412.414C208.716,143.181,208.8,143.424,208.747,143.424Z" transform="translate(-152.924 -123.635)" fill="#263238"/><path d="M216.727,150.5a6.465,6.465,0,0,1,1.57-.329c.243,0,.475-.085.511-.256a1.217,1.217,0,0,0-.183-.73l-.779-1.863a32.357,32.357,0,0,1-1.783-4.869,33.469,33.469,0,0,1,2.173,4.73c.262.651.511,1.278.755,1.875a1.455,1.455,0,0,1,.152.968.609.609,0,0,1-.4.371,1.691,1.691,0,0,1-.42.073,6.239,6.239,0,0,1-1.6.03Z" transform="translate(-157.185 -123.604)" fill="#263238"/><path d="M212.285,173.054a16.8,16.8,0,0,1-9.045-2.264s2.027,5.223,9.039,4.37Z" transform="translate(-152.171 -134.694)" fill="#ff9a6c"/><path d="M214.8,158.829a2.4,2.4,0,0,0-2-.98,1.546,1.546,0,0,0-1.23.7,1.51,1.51,0,0,0,.067,1.57,1.491,1.491,0,0,0,1.589.517,3.531,3.531,0,0,0,1.4-.919,1.1,1.1,0,0,0,.3-.371.493.493,0,0,0-.055-.493" transform="translate(-155.361 -129.63)" fill="#ff9a6c"/><path d="M212.418,156.91c.158,0,.189,1.035,1.114,1.759s2.033.572,2.045.718-.243.213-.712.237a2.617,2.617,0,0,1-1.71-.542,2.277,2.277,0,0,1-.864-1.479C212.236,157.166,212.345,156.9,212.418,156.91Z" transform="translate(-155.707 -129.262)" fill="#263238"/><path d="M208.735,137.045c-.091.268-1.059.17-2.191.341s-2.045.505-2.2.274c-.067-.116.085-.365.45-.609a3.652,3.652,0,0,1,1.619-.609,3.615,3.615,0,0,1,1.723.152C208.558,136.717,208.771,136.924,208.735,137.045Z" transform="translate(-152.596 -121.237)" fill="#263238"/><path d="M223.874,137.2c-.164.225-.834,0-1.637,0s-1.479.189-1.643-.037c-.073-.11,0-.335.323-.554a2.283,2.283,0,0,1,1.321-.4,2.24,2.24,0,0,1,1.321.408C223.832,136.861,223.929,137.086,223.874,137.2Z" transform="translate(-158.952 -121.162)" fill="#263238"/><path d="M222.457,128.94a4.76,4.76,0,0,0-1.826-2.654c-.505-.335-1.09-.536-1.564-.913-1.01-.816-1.248-2.24-1.875-3.384a5.32,5.32,0,0,0-4.036-2.684c-1.394-.14-2.824.28-4.182-.061-1-.256-1.881-.907-2.891-1.1-1.978-.371-3.816,1.047-5.253,2.435,0,1.412,1.126,2.362,2.21,3.269a4.93,4.93,0,0,0,3.975,1.053c1.077-.2,2.264-.749,3.2-.17s1.023,2.088,1.893,2.843c1.248,1.083,3.232.067,4.815.536,1.217.365,1.984,1.534,2.794,2.514s2.027,1.917,3.25,1.558A14.329,14.329,0,0,0,222.457,128.94Z" transform="translate(-151.228 -114.068)" fill="#263238"/><path d="M196.75,123.315c-.889-.256-2.7-.828-3.177-1.595A5.4,5.4,0,0,0,188.837,119a4.48,4.48,0,0,0-4.03,3.536,6.434,6.434,0,0,0-5.527,3.555,6.6,6.6,0,0,0-.347.828,4.869,4.869,0,0,0-.329,4.1c.3.8.828,1.692.42,2.435s-1.479.791-2.307,1.071a3.238,3.238,0,0,0-2.045,3.652,3.877,3.877,0,0,1,.256,1.6,3.518,3.518,0,0,1-.956,1.382,4.048,4.048,0,0,0,2.374,6.58,5.113,5.113,0,0,1,1.826.426c.609.383.9,1.138,1.345,1.723a3.5,3.5,0,0,0,3.841,1.187,3.147,3.147,0,0,0,.755-.383,2.52,2.52,0,0,0,2.222.98l-.262-14.8a1.217,1.217,0,0,0,.9.706c2.374.536,2.721-4.358,2.191-5.685a13.671,13.671,0,0,0,2.38-2.508,9.928,9.928,0,0,0,1.1-4.8C193.475,124.63,197.121,123.425,196.75,123.315Z" transform="translate(-140.349 -114.428)" fill="#263238"/><path d="M192.645,149.4c-.079-1.5-1.917-1.826-3.22-1.071-.718.414-1.266,1.217-1.217,2.843.177,4.261,4.413,3.208,4.419,3.08S192.731,151.164,192.645,149.4Z" transform="translate(-146.288 -125.751)" fill="#ffbf9d"/><path d="M191.981,153.593a1.394,1.394,0,0,1-.195.116.718.718,0,0,1-.554.037,1.826,1.826,0,0,1-.919-1.613,2.544,2.544,0,0,1,.164-1.071.852.852,0,0,1,.536-.609.377.377,0,0,1,.444.183c.061.122.043.207.061.213s.091-.079.049-.25a.457.457,0,0,0-.177-.262.566.566,0,0,0-.414-.091,1.041,1.041,0,0,0-.749.694,2.471,2.471,0,0,0-.213,1.217,1.929,1.929,0,0,0,1.163,1.79.773.773,0,0,0,.67-.14C191.975,153.7,191.993,153.6,191.981,153.593Z" transform="translate(-146.993 -126.651)" fill="#ff9a6c"/><path d="M195.8,124.2a2.569,2.569,0,0,0-.852.712,3.957,3.957,0,0,0-.317,2.946v.11h-.1a4.121,4.121,0,0,0-2.745,2.435,3.385,3.385,0,0,0-.219,1.041,6.226,6.226,0,0,0,.134,1.126,9.236,9.236,0,0,1,.164,1.217,2.021,2.021,0,0,1-.341,1.254,5.131,5.131,0,0,1-2.112,1.589,7.188,7.188,0,0,0-1.978,1.3,5.314,5.314,0,0,0-1.589,3.567,5.551,5.551,0,0,0,.56,2.636c.28.578.517.858.493.877a1.011,1.011,0,0,1-.177-.195,4.2,4.2,0,0,1-.42-.609,5.387,5.387,0,0,1-.67-2.7,5.478,5.478,0,0,1,1.607-3.756,7.207,7.207,0,0,1,2.039-1.363,4.967,4.967,0,0,0,2-1.491,2.954,2.954,0,0,0,.134-2.252,6.374,6.374,0,0,1-.128-1.181,3.482,3.482,0,0,1,.243-1.138,4.352,4.352,0,0,1,2.952-2.532l-.079.134a3.95,3.95,0,0,1,.426-3.043,1.826,1.826,0,0,1,.67-.542A.986.986,0,0,1,195.8,124.2Z" transform="translate(-145.28 -116.463)" fill="#455a64"/><path d="M190.256,157.8a3.044,3.044,0,0,1,1.217-.8h-.091a1.951,1.951,0,0,1,.262-.043,1.217,1.217,0,0,1,.943.116h0a2.264,2.264,0,0,1,1.217,1.065,2.66,2.66,0,0,1-.31,2.733,2.027,2.027,0,0,1-3.719-.694A2.508,2.508,0,0,1,190.256,157.8Z" transform="translate(-146.857 -129.264)" fill="#455a64"/><path d="M204.89,443.39l13.549.98a36.752,36.752,0,0,0-1.692,5.971,19.669,19.669,0,0,1-12.667-.56Z" transform="translate(-152.5 -241.366)" fill="#ffbf9d"/><path d="M216.815,451.478v.81s13.744,5.326,13.921,7.913l-27.166.189.3-9.039A15.581,15.581,0,0,0,216.815,451.478Z" transform="translate(-152.3 -244.481)" fill="#f8951d"/><path d="M208.147,456.054a1.108,1.108,0,0,0-.761,1.272,1.065,1.065,0,0,0,1.254.761,1.163,1.163,0,0,0,.8-1.345,1.1,1.1,0,0,0-1.394-.651" transform="translate(-153.786 -246.311)" fill="#fff"/><path d="M203.59,464.813l.073-2.173,26.009.609s1.217.517,1.083,1.37Z" transform="translate(-152.308 -248.899)" fill="#263238"/><path d="M223.917,452.919c0,.134-.663.195-1.315.609s-.992.992-1.114.937.067-.816.864-1.327S223.947,452.8,223.917,452.919Z" transform="translate(-159.299 -245.045)" fill="#263238"/><path d="M229.049,454.877c.03.128-.542.359-.992.925s-.572,1.156-.7,1.15-.225-.755.347-1.443S229.043,454.749,229.049,454.877Z" transform="translate(-161.57 -245.84)" fill="#263238"/><path d="M232.791,459.021c-.122,0-.31-.609,0-1.363s.956-1.023,1.01-.913-.323.505-.609,1.108S232.919,459,232.791,459.021Z" transform="translate(-163.669 -246.583)" fill="#263238"/><path d="M126.427,429.48c-.846,3.536-4.157,14.213-4.157,14.213l12.064,1.217c.292-1.777,5.022-9.13,5.783-11.4Z" transform="translate(-120.487 -235.923)" fill="#ffbf9d"/><path d="M134.043,450.756l-.14.791s12.472,7.864,12.174,10.439l-26.7-5,2.514-8.163C123.9,450.81,129.125,451.76,134.043,450.756Z" transform="translate(-119.356 -243.491)" fill="#f8951d"/><path d="M125.6,453.28a1.114,1.114,0,0,0-.992,1.1,1.071,1.071,0,0,0,1.09.992,1.169,1.169,0,0,0,1.035-1.175,1.1,1.1,0,0,0-1.217-.9" transform="translate(-121.402 -245.236)" fill="#fff"/><path d="M119.34,460.9l.487-2.124,25.413,5.576s1.09.743.8,1.552Z" transform="translate(-119.34 -247.388)" fill="#263238"/><path d="M141.626,453.352c-.03.128-.694.067-1.412.365s-1.163.779-1.278.706.225-.791,1.108-1.138S141.675,453.237,141.626,453.352Z" transform="translate(-127 -245.174)" fill="#263238"/><path d="M146.252,456.2c0,.134-.609.25-1.144.718s-.785,1.029-.913,1-.073-.785.609-1.351S146.276,456.082,146.252,456.2Z" transform="translate(-129.044 -246.346)" fill="#263238"/><path d="M149.134,460.93c-.122,0-.183-.682.286-1.333s1.132-.822,1.169-.7-.414.426-.791.968S149.268,460.942,149.134,460.93Z" transform="translate(-130.965 -247.419)" fill="#263238"/><path d="M186.651,194.064c.286.523,10.5,23.526,10.5,23.526l19.3-6.829,5.04,8.911s-21.84,14.359-27.616,14-6.769-1.467-8.9-6c-2.617-5.557-10.555-25.985-10.555-25.985s-2.5-11.285,5.1-12.052C184.29,189.158,186.651,194.064,186.651,194.064Z" transform="translate(-140.738 -142.057)" fill="#f8951d"/><path d="M209.751,270.648s19.892,52.378,18.869,59.085-13.142,46.711-13.142,46.711l-17.457-1.181,9.337-46.492-15.728-32.26,2.715-32.711,16.435,1.692Z" transform="translate(-147.628 -171.09)" fill="#263238"/><path d="M154.465,259.5l-1.382,3.652c-2.63,3.488-6.945,10.074-8.278,14.085-1.881,5.667-.828,23.544-.828,23.544l-1.826,26.32s-5.137,10.238-7.913,15.99c-2.374,4.973-9.958,27.208-9.958,27.208l15.083,4.474s21.03-36.3,22.911-41,5.959-42.462,5.959-42.462l6.817-28.468Z" transform="translate(-121.273 -169.407)" fill="#263238"/><path d="M165.88,273.425c0-.067.925.189,2.435.3a16.1,16.1,0,0,0,2.63-.037,15.6,15.6,0,0,0,6.087-1.923,15.064,15.064,0,0,0,2.173-1.473c1.169-.943,1.765-1.674,1.826-1.631a2.337,2.337,0,0,1-.39.536,5.683,5.683,0,0,1-.517.578,8.637,8.637,0,0,1-.749.706,13.785,13.785,0,0,1-2.173,1.564,15.887,15.887,0,0,1-3.007,1.333,16.56,16.56,0,0,1-3.226.609,14.231,14.231,0,0,1-2.678-.037,9.745,9.745,0,0,1-1.017-.158,4.976,4.976,0,0,1-.755-.177A2.434,2.434,0,0,1,165.88,273.425Z" transform="translate(-137.552 -172.991)" fill="#455a64"/><path d="M217.92,370.655a11.4,11.4,0,0,1,3.524-2.106,11.565,11.565,0,0,1,3.975-1.059c0,.1-1.771.505-3.835,1.382S217.969,370.746,217.92,370.655Z" transform="translate(-157.916 -211.665)" fill="#455a64"/><path d="M154.16,370.36a5.179,5.179,0,0,1,2.264.73,5.07,5.07,0,0,1,1.905,1.418,20.424,20.424,0,0,1-2.063-1.108A20.318,20.318,0,0,1,154.16,370.36Z" transform="translate(-132.966 -212.788)" fill="#455a64"/><path d="M207.63,268.2a2.486,2.486,0,0,1-.11.444l-.383,1.217-1.449,4.541-2.191,6.7c-.219.609-.408,1.278-.663,1.942a10.414,10.414,0,0,1-1,1.911,9.571,9.571,0,0,1-1.43,1.71l-1.6,1.613-2.776,2.776.049-.091c-.639,5.15-1.217,9.684-1.607,12.965-.207,1.6-.377,2.891-.5,3.823-.067.426-.116.767-.152,1.029a1.455,1.455,0,0,1-.073.353,2.631,2.631,0,0,1,0-.359c0-.268.055-.609.091-1.035.1-.931.243-2.228.414-3.835.377-3.287.9-7.822,1.5-12.977v-.055l.037-.036,2.763-2.776,1.607-1.613a9.476,9.476,0,0,0,1.4-1.662,10.608,10.608,0,0,0,.974-1.857c.25-.609.444-1.3.663-1.917l2.258-6.7,1.546-4.5.438-1.217A2.886,2.886,0,0,1,207.63,268.2Z" transform="translate(-148.454 -172.812)" fill="#455a64"/><g transform="translate(78.667 58.8)" opacity="0.3"><path d="M266.67,221.579a1.083,1.083,0,0,0-.779-.371l-4.644-.791a2.526,2.526,0,0,1,1.826-1.406,14.37,14.37,0,0,0,2.343-.609,1.893,1.893,0,0,0,1.217-1.887,13.72,13.72,0,0,1-6.616-.542l4.991-1.881a3.354,3.354,0,0,0,1.023-.536,1.1,1.1,0,0,0,.4-1.035c-.17-.712-1.132-.852-1.826-.7-.913.189-1.765.609-2.66.834a3.725,3.725,0,0,1-2.715-.134,13.015,13.015,0,0,0,2.958-1.613,4.34,4.34,0,0,0,1.7-2.818c-3.123,1.053-5.685,3.3-8.01,5.636s-4.541,4.833-7.3,6.6l1.747,5.977c3.043-1.491,6.209-3.013,9.6-3.2,1.942-.1,3.926.237,5.795-.28a1.826,1.826,0,0,0,.816-.414A.718.718,0,0,0,266.67,221.579Z" transform="translate(-248.58 -208.09)"/></g><path d="M264.189,204.65c-.2.158-5.2,3.086-5.2,3.086l-3.585,3.043,1.643-4.87s-.335-1.217-1.266.177-4.212,6.9-4.212,6.9l-2.891,4.054,3.81,5.515s2.818-1.619,4.133-2.161a13.034,13.034,0,0,1,5.028-.8c.834.207,4.869-.1,5.034-.578s-.45-.907-1.54-.816-4.8-.11-4.936-.834,6.781-1.723,7.3-2.149.639-1.217-1.217-1.163-5.478.87-6.087.177,1.059-1.12,1.26-1.278,4.066-1.577,4.87-2.4c.505-.523-.043-1.589-1.132-1.272s-5.259,2.4-6.056,2.283,1.1-1.826,1.4-2.021c2.015-1.363,4.139-2.38,4.17-3.737a1.382,1.382,0,0,0-.53-1.157Z" transform="translate(-169.952 -147.944)" fill="#ffbf9d"/><path d="M247.83,230.515l-10.2,4.656-.858-8.382,7.249-1.79Z" transform="translate(-165.292 -155.907)" fill="#ffbf9d"/><path d="M184.754,175.78l11.973,5.874,3.7,5.083s5.21,23.952,4.559,27.756S200.2,231.3,199.74,231.207l-26.886-4.468v-.061a7.718,7.718,0,0,1,.712-5.113L176,216.854l-4.541-21.742s-.877-6.336,2.021-9.337c3.007-3.129,9.739-7.134,9.739-7.134Z" transform="translate(-139.686 -136.647)" fill="#f8951d"/><path d="M206.984,188.08a7.257,7.257,0,0,1-.773-.9c-.511-.639-1.175-1.485-1.966-2.483l.225-.043c-.219.834-.463,1.747-.724,2.733l-.043.158-.158-.061c-1.035-.4-2.155-.87-3.3-1.406a54.218,54.218,0,0,1-6.659-3.707c-.822-.536-1.461-.992-1.9-1.315a4.207,4.207,0,0,1-.657-.536,4.129,4.129,0,0,1,.724.432c.463.292,1.12.724,1.948,1.217a67.986,67.986,0,0,0,6.7,3.6c1.138.536,2.252,1.01,3.275,1.424l-.2.1c.28-.98.536-1.893.773-2.721l.073-.256.152.213,1.875,2.55a6.124,6.124,0,0,1,.639,1Z" transform="translate(-147.393 -138.501)" fill="#263238"/><path d="M216.642,189.88l.037,3.482L214,234.1h5.478s7.475-17.567,7.262-23.13c-.158-4.036-3.275-11.51-4.778-16.167a49.694,49.694,0,0,0-2.2-5.277c-1.163-1.041-1.394-1.217-1.394-1.473l.493-2.24-2.435-2.234v4.194Z" transform="translate(-156.382 -139.699)" fill="#f8951d"/><path d="M219.591,236.886a3.33,3.33,0,0,1,.164-.432c.14-.3.316-.706.536-1.217s.511-1.163.816-1.911l.493-1.217c.158-.432.323-.883.493-1.363a38.134,38.134,0,0,0,2.356-15.582,48.043,48.043,0,0,0-1.491-8.6,68.921,68.921,0,0,0-2.277-6.775c-.383-.943-.724-1.8-1.035-2.55l-.852-1.893-.53-1.217a3.515,3.515,0,0,1-.164-.426,1.912,1.912,0,0,1,.231.4c.146.3.341.694.609,1.175s.56,1.157.913,1.875.682,1.6,1.083,2.532a63.906,63.906,0,0,1,2.356,6.787,46.869,46.869,0,0,1,1.5,8.723,37.233,37.233,0,0,1-2.435,15.692l-.523,1.363-.523,1.217c-.323.743-.609,1.382-.87,1.887l-.609,1.175a2.119,2.119,0,0,1-.243.365Z" transform="translate(-157.986 -143.659)" fill="#263238"/><path d="M225.708,198.25a2.842,2.842,0,0,1,.4.609c.243.408.56,1.023.937,1.8a42.913,42.913,0,0,1,2.362,6.239,36.43,36.43,0,0,1,1.339,6.549,19.976,19.976,0,0,1,.1,2.021,2.91,2.91,0,0,1-.067.743c-.055,0-.049-1.053-.274-2.739a44.529,44.529,0,0,0-1.43-6.47,55.493,55.493,0,0,0-2.252-6.245C226.14,199.212,225.659,198.274,225.708,198.25Z" transform="translate(-160.962 -145.439)" fill="#263238"/><path d="M186.179,194.062c.286.523,10.5,23.526,10.5,23.526l19.3-6.829,5.04,8.911s-21.84,14.359-27.616,14-6.769-1.467-8.9-6c-1.948-4.133-7.4-15.576-10.062-21.158a16.434,16.434,0,0,1-1.51-9.039c.426-3.536,1.875-7.432,6.148-7.846C183.823,189.181,186.179,194.062,186.179,194.062Z" transform="translate(-140.266 -142.055)" fill="#f8951d"/><path d="M185.052,192.3a12.343,12.343,0,0,0-1.589-1.09,9.4,9.4,0,0,0-4.48-.877,8.078,8.078,0,0,0-4.206,1.716,10.067,10.067,0,0,0-1.357,1.363,1.461,1.461,0,0,1,.243-.469,5.649,5.649,0,0,1,.968-1.065,7.724,7.724,0,0,1,4.328-1.863,8.936,8.936,0,0,1,4.614,1,5.126,5.126,0,0,1,1.144.876C184.961,192.134,185.07,192.286,185.052,192.3Z" transform="translate(-140.502 -142.214)" fill="#263238"/><path d="M204.4,242.029a3.932,3.932,0,0,1,.377-1.169,14.485,14.485,0,0,1,1.424-2.587,14.291,14.291,0,0,1,1.917-2.246,3.993,3.993,0,0,1,.956-.767c.067.073-1.327,1.315-2.611,3.2S204.491,242.065,204.4,242.029Z" transform="translate(-152.625 -159.922)" fill="#263238"/><path d="M175.52,209.413s.055.091.146.28.237.475.414.828l1.564,3.22,5.691,11.875q.9,1.881,1.881,3.932a29.285,29.285,0,0,0,2.21,4.139,5.563,5.563,0,0,0,1.771,1.637,7.651,7.651,0,0,0,2.386.791,24.1,24.1,0,0,0,2.611.31,7.244,7.244,0,0,0,2.63-.335,34.792,34.792,0,0,0,5.21-2.057c1.735-.816,3.476-1.723,5.229-2.678,3.5-1.911,7.055-4.023,10.646-6.257,1.388-.864,2.757-1.735,4.1-2.611l-.049.213q-2.6-4.6-5.058-8.942l.183.073-19.3,6.805-.116.037-.049-.11-7.584-17.128c-.895-2.045-1.6-3.652-2.082-4.76l-.542-1.217c-.116-.286-.17-.438-.17-.438l.207.414c.134.292.323.706.572,1.217.5,1.1,1.217,2.7,2.149,4.723,1.826,4.109,4.486,9.976,7.688,17.1l-.158-.067,19.283-6.854.122-.043.067.116,5.064,8.929.073.128-.122.085q-2.015,1.315-4.1,2.611c-3.6,2.24-7.158,4.352-10.67,6.263-1.759.956-3.5,1.863-5.247,2.678a35.243,35.243,0,0,1-5.259,2.063,7.475,7.475,0,0,1-2.733.341,25.048,25.048,0,0,1-2.642-.323,7.913,7.913,0,0,1-2.435-.828,5.837,5.837,0,0,1-1.826-1.723,29.01,29.01,0,0,1-2.216-4.188l-1.936-3.975-5.6-11.9c-.651-1.394-1.163-2.483-1.51-3.238l-.383-.846C175.557,209.51,175.52,209.413,175.52,209.413Z" transform="translate(-141.324 -144.958)" fill="#263238"/><g transform="translate(106.885 49.676)" opacity="0.3"><path d="M305.142,210.289,294.94,203l2.55-3.555,6.836,4.888,9.045-11.23,3.409,2.745Z" transform="translate(-294.94 -193.1)"/></g></g></g></svg>