<svg xmlns="http://www.w3.org/2000/svg" width="250" height="173.34" viewBox="0 0 250 173.34">
  <g id="Industry-specific" transform="translate(-217.755 -134.808)">
    <g id="freepik--Chair--inject-24" transform="translate(333.494 229.692)">
      <path id="Path_36685" data-name="Path 36685" d="M449.261,323.1a8.6,8.6,0,0,1,8.394-7.224c18.12-.241,64.255-.656,66.732,1.306,3.085,2.45,4.722,3.7,4.454,7.591-.226,3.567-4.113,65.205-4.113,65.205H438.37Z" transform="translate(-438.37 -315.669)" fill="#455a64"/>
      <path id="Path_36686" data-name="Path 36686" d="M583.691,394.33a1.312,1.312,0,0,1-.026-.184,2.592,2.592,0,0,0-.042-.525c-.037-.483-.089-1.175-.152-2.051s-.136-1.988-.178-3.258-.126-2.718-.126-4.318c0-.8,0-1.642-.026-2.513s0-1.784.031-2.723c0-1.883.11-3.893.2-6.007.241-4.228.64-8.866,1.285-13.708s1.527-9.443,2.424-13.561c.477-2.062.918-4.024,1.411-5.844.241-.908.456-1.789.7-2.623s.477-1.642.7-2.413c.43-1.542.9-2.912,1.275-4.129s.74-2.245,1.049-3.09.525-1.479.693-1.941l.189-.525c.042-.11.068-.168.068-.168a.829.829,0,0,1-.042.178l-.163.525c-.152.467-.367,1.123-.645,1.962s-.635,1.883-1,3.1-.818,2.592-1.233,4.134c-.22.771-.446,1.574-.682,2.419s-.446,1.726-.682,2.623c-.483,1.815-.913,3.783-1.385,5.839-.887,4.134-1.726,8.709-2.4,13.546s-1.049,9.443-1.306,13.682c-.094,2.1-.21,4.118-.226,6,0,.939-.047,1.847-.047,2.718v2.508c0,1.6.058,3.048.089,4.318s.079,2.361.126,3.253.079,1.574.1,2.062v.525a.983.983,0,0,1,.021.189Z" transform="translate(-507.186 -319.986)" fill="#263238"/>
      <path id="Path_36687" data-name="Path 36687" d="M489.489,375.148a.306.306,0,0,0,.131-.052,1.272,1.272,0,0,1,.4,0,1.8,1.8,0,0,1,1.264.745,2.062,2.062,0,0,1,.126,2.151A2.754,2.754,0,0,1,490.57,379a2.623,2.623,0,0,1-1.338.467,2.172,2.172,0,0,1-1.38-.362,1.721,1.721,0,0,1-.714-1.123,2.345,2.345,0,0,1,.661-2.067c.971-.829,1.826-.855,1.81-.776s-.047,0-.131,0a2.183,2.183,0,0,0-.367.126,3.793,3.793,0,0,0-1.175.761,2.182,2.182,0,0,0-.551,1.883,1.464,1.464,0,0,0,.619.95,1.9,1.9,0,0,0,1.207.31,2.355,2.355,0,0,0,1.2-.414,2.387,2.387,0,0,0,.771-.9,1.878,1.878,0,0,0-.058-1.931,1.789,1.789,0,0,0-1.117-.75A4.189,4.189,0,0,0,489.489,375.148Z" transform="translate(-461.537 -343.912)" fill="#263238"/>
      <path id="Path_36688" data-name="Path 36688" d="M506.726,360.129c0,.058-.892-.1-2.319.026a10.629,10.629,0,0,0-8.709,6.122c-.614,1.3-.761,2.182-.818,2.172a2.476,2.476,0,0,1,.1-.624,8.918,8.918,0,0,1,.525-1.626,10.335,10.335,0,0,1,8.882-6.217,9.311,9.311,0,0,1,1.716.047A2.406,2.406,0,0,1,506.726,360.129Z" transform="translate(-465.234 -336.726)" fill="#263238"/>
      <path id="Path_36689" data-name="Path 36689" d="M469.72,386.821a1.816,1.816,0,0,1,.2-.446,6.7,6.7,0,0,1,.761-1.091,8.1,8.1,0,0,1,7.964-2.717,7.158,7.158,0,0,1,1.27.4,1.9,1.9,0,0,1,.435.226c0,.052-.65-.247-1.742-.441a8.436,8.436,0,0,0-7.785,2.655C470.087,386.229,469.767,386.848,469.72,386.821Z" transform="translate(-453.273 -347.38)" fill="#263238"/>
      <path id="Path_36690" data-name="Path 36690" d="M498,389.383a3.347,3.347,0,0,1-.887-.64,9.9,9.9,0,0,1-1.716-2.02,9.672,9.672,0,0,1-1.117-2.4,3.148,3.148,0,0,1-.215-1.075,19.37,19.37,0,0,0,1.574,3.326A20.306,20.306,0,0,0,498,389.383Z" transform="translate(-464.849 -347.796)" fill="#263238"/>
      <path id="Path_36691" data-name="Path 36691" d="M545.063,376.536a.58.58,0,0,1,.131-.052,1.272,1.272,0,0,1,.4,0,1.82,1.82,0,0,1,1.264.745,2.1,2.1,0,0,1,.131,2.151,2.769,2.769,0,0,1-.845,1.013,2.623,2.623,0,0,1-1.338.467,2.172,2.172,0,0,1-1.38-.362,1.742,1.742,0,0,1-.713-1.123,2.345,2.345,0,0,1,.656-2.1c.971-.824,1.826-.855,1.81-.776s-.047,0-.131.026a2.183,2.183,0,0,0-.367.126,3.793,3.793,0,0,0-1.175.761,2.182,2.182,0,0,0-.525,1.883,1.485,1.485,0,0,0,.619.95,1.9,1.9,0,0,0,1.207.31,2.356,2.356,0,0,0,1.2-.414,2.387,2.387,0,0,0,.771-.9,1.878,1.878,0,0,0-.058-1.931,1.789,1.789,0,0,0-1.117-.75A4.2,4.2,0,0,0,545.063,376.536Z" transform="translate(-487.953 -344.57)" fill="#263238"/>
      <path id="Path_36692" data-name="Path 36692" d="M562.275,361.5c0,.058-.892-.1-2.319.026a10.629,10.629,0,0,0-8.7,6.1c-.614,1.3-.761,2.182-.818,2.172a2.479,2.479,0,0,1,.1-.624,8.917,8.917,0,0,1,.525-1.626,10.335,10.335,0,0,1,8.871-6.217,9.313,9.313,0,0,1,1.715.047A2.409,2.409,0,0,1,562.275,361.5Z" transform="translate(-491.646 -337.367)" fill="#263238"/>
      <path id="Path_36693" data-name="Path 36693" d="M525.3,388.214a1.817,1.817,0,0,1,.2-.446,7.055,7.055,0,0,1,.761-1.091,8.121,8.121,0,0,1,7.964-2.718,7.39,7.39,0,0,1,1.275.4,1.573,1.573,0,0,1,.43.231c0,.047-.651-.252-1.742-.446a8.426,8.426,0,0,0-7.78,2.655C525.667,387.621,525.347,388.24,525.3,388.214Z" transform="translate(-479.695 -348.043)" fill="#263238"/>
      <path id="Path_36694" data-name="Path 36694" d="M553.585,390.8a3.346,3.346,0,0,1-.887-.64,10.07,10.07,0,0,1-1.716-2.02,9.676,9.676,0,0,1-1.117-2.4,3.148,3.148,0,0,1-.215-1.049,19.417,19.417,0,0,0,1.574,3.321A20.3,20.3,0,0,0,553.585,390.8Z" transform="translate(-491.27 -348.48)" fill="#263238"/>
    </g>
    <g id="freepik--Cushion--inject-24" transform="translate(337.166 189.58)">
      <path id="Path_36695" data-name="Path 36695" d="M535.206,267.655c-23.241-22.963-52.179-28.445-52.179-28.445-17.208,10.262-28.817,27.485-37.657,48.155,14.826,13.719,33.89,26.871,50.206,28.078C521.377,308.922,535.206,267.655,535.206,267.655Z" transform="translate(-445.37 -239.21)" fill="#f8951d"/>
      <g id="Group_8770" data-name="Group 8770" opacity="0.4">
        <path id="Path_36696" data-name="Path 36696" d="M535.206,267.655c-23.241-22.963-52.179-28.445-52.179-28.445-17.208,10.262-28.817,27.485-37.657,48.155,14.826,13.719,33.89,26.871,50.206,28.078C521.377,308.922,535.206,267.655,535.206,267.655Z" transform="translate(-445.37 -239.21)"/>
      </g>
      <path id="Path_36697" data-name="Path 36697" d="M553.7,291.538a.831.831,0,0,1-.058-.157l-.147-.472c-.131-.43-.315-1.049-.556-1.847l-2.041-6.941.1.058-11.4,3.672.073-.068a.339.339,0,0,1-.031.058c-.031.042-.11.063-.136.042a.147.147,0,0,1-.073-.073.47.47,0,0,1,0-.084v-7.67c0-1.375-.058-2.77-.136-4.2a37.632,37.632,0,0,0-.451-4.349l.163.1-10.424,2.419-6.3,1.464-.136.031v-.136c-.934-4.9-1.826-9.553-2.623-13.845l.157.1a93.464,93.464,0,0,1-16.557,2.891h-.084v-.084c-.435-3.567-.782-6.4-1.018-8.357-.115-.96-.2-1.71-.262-2.224-.026-.247-.042-.435-.058-.577a1.839,1.839,0,0,1,0-.194.688.688,0,0,1,.037.189,5.236,5.236,0,0,0,.089.572c.068.525.173,1.264.3,2.224.257,1.952.63,4.785,1.1,8.347l-.094-.079a95.124,95.124,0,0,0,16.41-2.912l.131-.037v.131c.824,4.291,1.721,8.945,2.66,13.839l-.163-.1,6.3-1.469,10.367-2.4.136-.031v.136a36.345,36.345,0,0,1,.446,4.381c.079,1.432.11,2.838.131,4.2s0,2.707,0,4v3.662h0c-.026,0-.052,0-.068.026h0l-.068-.042-.058-.026.131-.042L550.954,282l.079-.026v.084L553,289.02l.525,1.857.126.477A.589.589,0,0,1,553.7,291.538Z" transform="translate(-472.151 -244.862)" fill="#f8951d"/>
      <path id="Path_36698" data-name="Path 36698" d="M541.737,306.632a.615.615,0,0,1-.052-.121c-.037-.094-.084-.215-.142-.372l-.525-1.448c-.451-1.28-1.1-3.148-1.931-5.514l.089.047-13.588,3.63-.126.031v-.126c-.325-2.5-.687-5.183-1.086-8.011s-.824-5.808-1.369-8.866l.163.1L513.2,288.3l-6.736,1.574-.136.031v-.142c-.934-4.895-1.82-9.548-2.623-13.839l.157.094a93.527,93.527,0,0,1-16.557,2.9h-.084v-.079c-.435-3.567-.782-6.406-1.018-8.357-.11-.965-.2-1.71-.257-2.23-.026-.241-.047-.435-.063-.572a1.145,1.145,0,0,1,0-.2,1.263,1.263,0,0,1,.037.194,5.01,5.01,0,0,0,.084.572c.068.525.173,1.259.3,2.219.257,1.957.63,4.785,1.1,8.347l-.094-.073a95.122,95.122,0,0,0,16.468-2.964l.131-.037v.131c.824,4.291,1.721,8.919,2.665,13.839l-.163-.11,6.731-1.574,9.968-2.3.136-.031v.136c.525,3.069.96,6.049,1.359,8.877s.745,5.514,1.049,8.016l-.142-.094,13.609-3.552h.063l.026.063c.8,2.377,1.427,4.249,1.862,5.535.2.635.367,1.123.483,1.464.047.157.089.278.115.372Z" transform="translate(-464.628 -252.649)" fill="#fafafa"/>
      <path id="Path_36699" data-name="Path 36699" d="M525.542,327.166v-.435c0-.283.058-.719.1-1.264.1-1.123.241-2.754.425-4.842l.089.073-14.091,4.68-.121.042v-.126c-1.112-5.771-2.424-12.591-3.851-19.983l.163.1-8.62,1.988-8.063,1.868-.136.031-.026-.136c-.934-4.9-1.82-9.553-2.623-13.839l.152.094a93.693,93.693,0,0,1-16.557,2.9H472.3v-.084c-.435-3.567-.782-6.406-1.018-8.357-.11-.965-.2-1.71-.257-2.224-.026-.247-.047-.435-.063-.572a1.133,1.133,0,0,1,0-.2.778.778,0,0,0,.037.194c.037.126.047.325.084.572.068.525.173,1.259.3,2.219.257,1.952.624,4.779,1.1,8.347l-.094-.073a95.216,95.216,0,0,0,16.5-2.959l.131-.037.026.131c.824,4.286,1.721,8.919,2.665,13.834l-.163-.1,8.063-1.873,8.609-1.978.136-.031v.142c1.406,7.392,2.707,14.217,3.8,19.988l-.142-.084,14.118-4.6.094-.031v.1q-.315,3.148-.488,4.832c-.058.525-.1.965-.136,1.264A2.417,2.417,0,0,1,525.542,327.166Z" transform="translate(-457.536 -261.871)" fill="#f8951d"/>
      <path id="Path_36700" data-name="Path 36700" d="M500.991,348.041l-.031-.1-.084-.3c-.068-.278-.168-.666-.3-1.159-.252-1.049-.619-2.529-1.086-4.417s-1-4.2-1.626-6.82-1.3-5.608-1.931-8.871l.147.1L479.4,330.356l-.142.037-.026-.142c-.084-.456-.178-.95-.273-1.443-.829-4.328-1.626-8.5-2.371-12.4l.163.1a92.979,92.979,0,0,1-16.557,2.9H460.1v-.094c-.425-3.51-.771-6.348-1.007-8.315-.115-.971-.2-1.726-.262-2.251-.026-.247-.047-.441-.058-.588a.95.95,0,0,1,0-.2.916.916,0,0,1,.042.2l.084.577c.073.525.178,1.28.31,2.245.262,1.967.635,4.8,1.1,8.31l-.1-.084a95.058,95.058,0,0,0,16.5-2.959l.131-.037.031.136c.745,3.9,1.548,8.069,2.382,12.4.094.493.189.986.273,1.443l-.163-.1,16.688-3.861.121-.026.026.126c.614,3.253,1.3,6.222,1.889,8.866s1.128,4.947,1.574,6.857.782,3.389,1.018,4.428c.115.525.2.892.262,1.175l.063.3C500.991,348,501,348.041,500.991,348.041Z" transform="translate(-451.74 -271.892)" fill="#fafafa"/>
      <path id="Path_36701" data-name="Path 36701" d="M509.106,371.947a4.425,4.425,0,0,1-.194-.724l-.451-2.025c-.367-1.715-.871-4.118-1.422-6.82l.163.1-1.574.367c-3.069.713-5.855,1.343-7.869,1.784l-2.392.525a6.058,6.058,0,0,1-.887.152,5.177,5.177,0,0,1,.86-.257l2.377-.593c2-.493,4.785-1.154,7.869-1.868l1.574-.362.136-.031v.136c.525,2.723,1.007,5.131,1.333,6.857.147.834.273,1.516.367,2.041A4.77,4.77,0,0,1,509.106,371.947Z" transform="translate(-468.716 -297.677)" fill="#f8951d"/>
      <path id="Path_36702" data-name="Path 36702" d="M475.554,353.323a4.593,4.593,0,0,1-.194-.74c-.115-.525-.262-1.217-.435-2.041-.357-1.721-.829-4.108-1.338-6.747-.026-.163-.058-.32-.089-.472l.173.1c-2.5.677-4.764,1.159-6.406,1.453-.818.152-1.485.257-1.946.32a3.622,3.622,0,0,1-.719.073,4.123,4.123,0,0,1,.7-.173l1.925-.4c1.632-.346,3.882-.855,6.369-1.532l.142-.037.026.142.094.472c.525,2.623.944,5.031,1.254,6.762.142.829.257,1.521.352,2.057A4.055,4.055,0,0,1,475.554,353.323Z" transform="translate(-454.512 -288.611)" fill="#f8951d"/>
      <path id="Path_36703" data-name="Path 36703" d="M447.983,330.736a10.305,10.305,0,0,1-.42-3.326,5.288,5.288,0,0,1,.346,1.647A5.125,5.125,0,0,1,447.983,330.736Z" transform="translate(-446.409 -281.139)" fill="#f8951d"/>
      <path id="Path_36704" data-name="Path 36704" d="M564.3,278.62a.436.436,0,0,1-.031-.131,2.93,2.93,0,0,0-.079-.383c-.063-.352-.152-.85-.273-1.5-.236-1.322-.572-3.242-1-5.666l.089.063-7.927,1.27h-.1v-.1c-.8-4.769-1.752-10.492-2.807-16.788l.157.1L541.5,258.013l-5.514,1.275-.131.031-.031-.131c-1.17-4.764-2.261-9.275-3.08-13.436l.136.1-16.1,2.471H516.7v-.084c-.31-2.581-.556-4.622-.729-6.033-.073-.692-.136-1.228-.178-1.605a3.3,3.3,0,0,0-.042-.409.412.412,0,0,1,0-.142v.136l.063.409.22,1.6c.189,1.411.462,3.447.8,6.023l-.089-.068,16.085-2.56h.115l.026.115c.829,4.15,1.925,8.661,3.1,13.42l-.163-.1,5.514-1.28,10.818-2.508.136-.031v.136c1.049,6.3,1.967,12.066,2.749,16.788l-.115-.084,7.932-1.217h.079v.073c.4,2.429.714,4.354.929,5.676.1.651.184,1.149.236,1.506.026.163.042.289.058.388a.494.494,0,0,1,.047.147Z" transform="translate(-478.826 -239.609)" fill="#fafafa"/>
      <path id="Path_36705" data-name="Path 36705" d="M578.783,292.68a.646.646,0,0,1-.147.058l-.435.131c-.378.126-.95.252-1.663.525a34.314,34.314,0,0,0-5.834,2.623,40.786,40.786,0,0,0-7.649,5.566,52.741,52.741,0,0,0-7.6,8.745,78.152,78.152,0,0,0-5.818,10.052c-1.574,3.205-2.843,6.17-3.872,8.672s-1.826,4.543-2.382,5.949c-.278.687-.493,1.233-.651,1.621-.068.168-.126.31-.173.414a.8.8,0,0,1-.068.142.7.7,0,0,1,.042-.152c.037-.11.089-.252.152-.425q.21-.588.6-1.637c.525-1.422,1.3-3.468,2.3-5.986s2.256-5.488,3.824-8.714a77.088,77.088,0,0,1,5.823-10.1,51.844,51.844,0,0,1,7.654-8.777,39.971,39.971,0,0,1,7.722-5.545,31.908,31.908,0,0,1,5.9-2.529c.719-.247,1.3-.357,1.684-.467l.441-.1A.951.951,0,0,1,578.783,292.68Z" transform="translate(-491.539 -264.629)" fill="#263238"/>
    </g>
    <g id="freepik--Character--inject-24" transform="translate(226.768 136.904)">
      <path id="Path_36796" data-name="Path 36796" d="M243.745,447.21c-.173.037-.913.787.142,1.978s7.413,4.449,8.583,2.5-1.653-3.3-1.653-3.3Z" transform="translate(-238.927 -285.414)" fill="#ffbe9d"/>
      <path id="Path_36797" data-name="Path 36797" d="M246.736,425.515s6.558-.724,9.233-.383a9.509,9.509,0,0,0,7.806-3.1,10.493,10.493,0,0,0,2.3-4.638l4.2-2.917s.451-9.921-6.164-8.32l-7.728.273s-15.214,2.518-17.564,4.412c0,0-2.864,2.786-3.7,3.861-.315.409-.582,4.5,2.324,5.891,0,0-1.716,2.188-.2,3.426l.708.525s-.981,2.188-.058,2.812,8.221,2.838,10.293,1.4-.331-3.106-1.427-3.253" transform="translate(-234.935 -265.817)" fill="#ffbe9d"/>
      <path id="Path_36798" data-name="Path 36798" d="M241.261,433.1a6.61,6.61,0,0,1,.855.094c.551.068,1.348.168,2.34.241.493.031,1.049.063,1.616.073s1.2,0,1.868.047a3.841,3.841,0,0,1,2.009.635,2.224,2.224,0,0,1,.981,2.02,1.716,1.716,0,0,1-.588,1.049,2.948,2.948,0,0,1-.992.551,8.953,8.953,0,0,1-2.051.383,18.494,18.494,0,0,1-3.51-.068c-.992-.1-1.784-.236-2.329-.331a4.724,4.724,0,0,1-.85-.178,6.006,6.006,0,0,1,.86.073c.556.063,1.354.163,2.34.241a19.894,19.894,0,0,0,3.462,0,8.985,8.985,0,0,0,1.988-.383,2.817,2.817,0,0,0,.9-.5,1.469,1.469,0,0,0,.493-.876,1.967,1.967,0,0,0-.866-1.768,3.714,3.714,0,0,0-1.873-.6c-.64-.058-1.27-.037-1.852-.068s-1.133-.058-1.632-.11c-.992-.094-1.784-.22-2.335-.325A4.2,4.2,0,0,1,241.261,433.1Z" transform="translate(-237.633 -278.706)" fill="#eb996e"/>
      <path id="Path_36799" data-name="Path 36799" d="M240.483,424.07a5.527,5.527,0,0,1,.855.094c.525.073,1.343.178,2.324.262s2.156.152,3.462.152a4.638,4.638,0,0,1,2.072.31,1.653,1.653,0,0,1,.787.845,2.136,2.136,0,0,1,.11,1.175,2.823,2.823,0,0,1-1.327,1.82,4.553,4.553,0,0,1-1.994.645,19.793,19.793,0,0,1-3.489-.163l-2.329-.236a4.971,4.971,0,0,1-.855-.126,5.639,5.639,0,0,1,.86,0l2.34.152a21.775,21.775,0,0,0,3.447.1,4.333,4.333,0,0,0,1.878-.624,2.545,2.545,0,0,0,1.2-1.637,1.574,1.574,0,0,0-.75-1.736,4.4,4.4,0,0,0-1.946-.294,31.038,31.038,0,0,1-3.478-.21c-.986-.11-1.778-.247-2.324-.352A4.873,4.873,0,0,1,240.483,424.07Z" transform="translate(-237.39 -274.413)" fill="#eb996e"/>
      <path id="Path_36800" data-name="Path 36800" d="M246.172,422.989a8.594,8.594,0,0,1-.593-1.212,7.476,7.476,0,0,1-.63-1.191c.052-.052.525.378.871,1.049a2.261,2.261,0,0,1,.351,1.353Z" transform="translate(-239.696 -272.755)" fill="#eb996e"/>
      <path id="Path_36801" data-name="Path 36801" d="M263.294,403.477l-6.2-.824s-17.522-3.573-17.7-3.111-1.049.624-.388,2.5,10.76,3.541,11.211,4.139.776,4.076,4.722,5.676,6.432,1.049,6.432,1.049" transform="translate(-236.756 -262.734)" fill="#ffbe9d"/>
      <path id="Path_36802" data-name="Path 36802" d="M261.281,412.813l-.131.037-.4.058a9.443,9.443,0,0,1-1.574,0,13.7,13.7,0,0,1-2.429-.43,13.384,13.384,0,0,1-3.048-1.186,7.083,7.083,0,0,1-2.733-2.854,16,16,0,0,1-.839-2.041,1.9,1.9,0,0,0-.115-.231.557.557,0,0,0-.184-.115,5.339,5.339,0,0,0-.525-.184c-.367-.115-.745-.215-1.133-.315-1.542-.4-3.174-.792-4.842-1.28-.834-.247-1.679-.525-2.518-.855a8.4,8.4,0,0,1-1.233-.609,2.981,2.981,0,0,1-.567-.446,1.264,1.264,0,0,1-.215-.32c-.058-.121-.073-.231-.115-.341a2.55,2.55,0,0,1-.084-1.432,1.684,1.684,0,0,1,.378-.619,1.176,1.176,0,0,0,.173-.241l.042-.068a.184.184,0,0,1,.1-.063.588.588,0,0,1,.115,0h.184c.913.058,1.778.21,2.623.346,1.716.283,3.363.588,4.931.887,3.148.593,5.949,1.159,8.315,1.647.588.115,1.154.252,1.684.341l1.521.21,2.429.346,1.537.231.4.068.136.031a.413.413,0,0,1-.142,0l-.4-.037-1.548-.184-2.44-.3-1.527-.194c-.525-.084-1.1-.21-1.689-.32l-8.326-1.574c-1.574-.289-3.216-.593-4.926-.871-.855-.131-1.736-.283-2.623-.341h-.21a.09.09,0,0,0-.026-.063h0c.2.073.052,0,.1.047h0a1.075,1.075,0,0,1-.215.31,1.453,1.453,0,0,0-.325.525,2.308,2.308,0,0,0,.089,1.27,1.18,1.18,0,0,0,.273.556,2.76,2.76,0,0,0,.525.4,8.654,8.654,0,0,0,1.191.588c.824.336,1.658.6,2.492.85,1.658.493,3.284.881,4.827,1.291.388.1.771.21,1.144.325a4.4,4.4,0,0,1,.556.2.656.656,0,0,1,.283.2,1.265,1.265,0,0,1,.142.278,15.829,15.829,0,0,0,.824,2.025,6.852,6.852,0,0,0,2.623,2.791,13.422,13.422,0,0,0,2.99,1.207,13.794,13.794,0,0,0,2.4.467,10.6,10.6,0,0,0,1.542.053h.4Z" transform="translate(-236.642 -262.626)" fill="#eb996e"/>
      <path id="Path_36803" data-name="Path 36803" d="M248.1,442.609a2.02,2.02,0,0,1,.645.031,6.2,6.2,0,0,1,1.689.5,5.561,5.561,0,0,1,1.049.63,1.868,1.868,0,0,1,.776,1.217,1.506,1.506,0,0,1-.776,1.385,2.911,2.911,0,0,1-1.668.346,31.288,31.288,0,0,1-5.724-.845,14.768,14.768,0,0,1-1.679-.525,2.972,2.972,0,0,1-.593-.257,3.007,3.007,0,0,1,.624.152c.4.115.971.273,1.689.43a37.128,37.128,0,0,0,5.692.761,2.686,2.686,0,0,0,1.516-.3,1.254,1.254,0,0,0,.666-1.138,1.642,1.642,0,0,0-.666-1.049,5.248,5.248,0,0,0-1-.63A9.159,9.159,0,0,0,248.1,442.609Z" transform="translate(-238.208 -283.22)" fill="#eb996e"/>
      <path id="Path_36804" data-name="Path 36804" d="M314.494,320.556s7.77-12.79,9.517-21.231,10.77-21.835,13.7-25.329,14.558-7.565,14.558-7.565l4.291-2.319,33.256-2.922s22.123,2.329,28.823,8.441,11.93,20.088,11.93,27.07,6.762,67.487,6.762,67.487l-81.951-.1,1.836-29.83s-9.9-6.694-12.517-12.517-1.165-2.912-1.165-2.912-9.291,19.752-12.491,22.081-40.422,13.75-40.422,13.75l-5.094-19.532Z" transform="translate(-258.987 -196.983)" fill="#f8951d"/>
      <path id="Path_36805" data-name="Path 36805" d="M476.876,281.477c-.9.278-12,28.949-12.78,31.556s0,19.038,0,19.038l3.672,6.783s-1.049,4.952-.262,7.3L451.075,349.3s-4.171-2.87-8.084,0l-19.411,1.642s5.692.063,4,8.793c-1.658,8.551-2.922,10.429-2.922,10.429l68.122-1.574s7.57-.378,6.416-14.931-4.4-54.7-4.4-54.7S489.829,277.458,476.876,281.477Z" transform="translate(-324.613 -206.389)" fill="#f8951d"/>
      <path id="Path_36806" data-name="Path 36806" d="M496.794,340.158a1.511,1.511,0,0,1-.163-.352l-.414-1.049c-.178-.446-.393-1-.6-1.653s-.488-1.385-.708-2.219-.525-1.742-.729-2.733-.451-2.051-.661-3.148a57.973,57.973,0,0,1-.8-7.392,59.485,59.485,0,0,1,.226-7.434c.136-1.133.247-2.214.43-3.216.084-.525.152-.986.247-1.453s.189-.9.278-1.327c.168-.845.383-1.574.556-2.266s.336-1.228.488-1.689.257-.787.341-1.049a3.836,3.836,0,0,1,.136-.367,1.574,1.574,0,0,1-.084.383c-.073.268-.173.624-.294,1.049s-.294,1.049-.441,1.7-.362,1.416-.525,2.266c-.084.425-.168.866-.257,1.327s-.152.944-.231,1.443c-.173,1-.278,2.1-.4,3.211a55.736,55.736,0,0,0,.572,14.752c.2,1.123.393,2.188.635,3.148s.467,1.9.693,2.733.472,1.574.672,2.224.393,1.212.556,1.663l.367,1.049a3.143,3.143,0,0,1,.121.4Z" transform="translate(-357.462 -216.769)" fill="#263238"/>
      <path id="Path_36807" data-name="Path 36807" d="M526.8,420.192a2.058,2.058,0,0,1-.178-.2l-.451-.6c-.194-.268-.435-.588-.729-.944s-.614-.782-1.007-1.217-.808-.923-1.291-1.411-1.007-1.007-1.574-1.537a38.925,38.925,0,0,0-3.924-3.148,39.354,39.354,0,0,0-4.323-2.56c-.7-.336-1.354-.666-1.994-.923s-1.228-.525-1.773-.708-1.049-.362-1.5-.525-.824-.262-1.138-.346l-.724-.215a.952.952,0,0,1-.252-.094,1.166,1.166,0,0,1,.262.042l.74.163c.32.073.708.168,1.159.3s.96.273,1.511.483,1.165.4,1.8.677,1.312.577,2.015.908a36.293,36.293,0,0,1,4.37,2.56,37.392,37.392,0,0,1,3.935,3.179c.561.525,1.1,1.049,1.574,1.574s.9.992,1.275,1.443.693.881.981,1.249a10.845,10.845,0,0,1,.692.976c.168.273.3.462.414.635A1.08,1.08,0,0,1,526.8,420.192Z" transform="translate(-363.77 -265.709)" fill="#263238"/>
      <path id="Path_36808" data-name="Path 36808" d="M543.353,420.789c-.042.037-.645-.651-1.778-1.574a18.017,18.017,0,0,0-2.1-1.469,19.977,19.977,0,0,0-2.828-1.369,19.75,19.75,0,0,0-3.022-.85,18.209,18.209,0,0,0-2.55-.3c-1.464-.058-2.371.052-2.377,0a2.822,2.822,0,0,1,.635-.1,6.476,6.476,0,0,1,.75-.068,9,9,0,0,1,1,0,16.7,16.7,0,0,1,2.592.247,18.166,18.166,0,0,1,3.069.845,17.975,17.975,0,0,1,2.865,1.406,16.569,16.569,0,0,1,2.1,1.532,9.656,9.656,0,0,1,.729.682,5.89,5.89,0,0,1,.525.525A2.935,2.935,0,0,1,543.353,420.789Z" transform="translate(-374.585 -270.12)" fill="#263238"/>
      <path id="Path_36809" data-name="Path 36809" d="M529.042,404.761c-.031.047-.834-.593-2.3-1.317a11.928,11.928,0,0,0-1.228-.525c-.441-.189-.934-.33-1.448-.493a16.609,16.609,0,0,0-6.962-.477c-.525.089-1.049.163-1.5.289a12.429,12.429,0,0,0-1.291.367c-1.574.525-2.434,1.049-2.461.986a3.423,3.423,0,0,1,.614-.372,6.186,6.186,0,0,1,.75-.378,10.771,10.771,0,0,1,1.049-.42,11.181,11.181,0,0,1,1.3-.4,14.582,14.582,0,0,1,1.521-.325,15.991,15.991,0,0,1,7.067.488,12.806,12.806,0,0,1,1.464.525,10.87,10.87,0,0,1,1.233.572,10.311,10.311,0,0,1,.965.561,5.577,5.577,0,0,1,.693.472A3.036,3.036,0,0,1,529.042,404.761Z" transform="translate(-366.575 -263.688)" fill="#263238"/>
      <path id="Path_36810" data-name="Path 36810" d="M464.188,431.676a24.532,24.532,0,0,0,.483-2.917,18.846,18.846,0,0,0-.026-3.205,25.577,25.577,0,0,0-.682-3.866,27.111,27.111,0,0,0-1.306-3.672,20.281,20.281,0,0,0-1.574-2.8,26.758,26.758,0,0,0-1.852-2.314,5.02,5.02,0,0,1,.6.525,6.7,6.7,0,0,1,.64.693l.378.446c.131.168.252.346.388.525a18.172,18.172,0,0,1,1.626,2.807,22.685,22.685,0,0,1,2.015,7.649,17.742,17.742,0,0,1-.031,3.242c-.026.231-.052.446-.073.656l-.115.577a6,6,0,0,1-.22.913,5,5,0,0,1-.252.745Z" transform="translate(-341.56 -269.103)" fill="#263238"/>
      <path id="Path_36811" data-name="Path 36811" d="M442.9,357.077a.526.526,0,0,1-.031-.152,3.361,3.361,0,0,0-.073-.446c-.058-.414-.142-.992-.247-1.726-.215-1.5-.493-3.672-.818-6.369-.645-5.377-1.416-12.827-2.02-21.074s-.918-15.739-1.049-21.147c-.073-2.707-.11-4.9-.121-6.416v-2.2a.079.079,0,1,1,.031,0v.456c0,.414.031,1,.058,1.742.047,1.532.115,3.72.2,6.411.194,5.414.525,12.89,1.138,21.137s1.343,15.686,1.941,21.069c.3,2.676.556,4.847.729,6.374.084.74.147,1.317.194,1.736a4.006,4.006,0,0,0,.047.451A.836.836,0,0,1,442.9,357.077Z" transform="translate(-331.696 -214.194)" fill="#263238"/>
      <path id="Path_36812" data-name="Path 36812" d="M387.139,353.591a5.988,5.988,0,0,1-.357-.8c-.21-.525-.525-1.275-.918-2.2-.787-1.852-1.962-4.375-3.368-7.114s-2.676-5.168-3.625-6.993c-.456-.9-.824-1.632-1.049-2.14a5.734,5.734,0,0,1-.351-.808,4.861,4.861,0,0,1,.446.755l1.138,2.1c.955,1.773,2.3,4.2,3.7,6.962s2.555,5.283,3.3,7.161c.372.939.661,1.705.839,2.24A5.563,5.563,0,0,1,387.139,353.591Z" transform="translate(-302.693 -231.372)" fill="#263238"/>
      <path id="Path_36813" data-name="Path 36813" d="M378.046,348.4a1.6,1.6,0,0,1-.477-.089c-.3-.073-.729-.2-1.259-.372a31.074,31.074,0,0,1-7.754-3.84c-.456-.315-.818-.582-1.049-.776a1.869,1.869,0,0,1-.357-.32,17.11,17.11,0,0,1,1.527.934,41.144,41.144,0,0,0,3.756,2.1c1.511.74,2.917,1.322,3.95,1.71a17.766,17.766,0,0,1,1.663.656Z" transform="translate(-297.787 -235.874)" fill="#263238"/>
      <path id="Path_36814" data-name="Path 36814" d="M360.5,382.18a2.829,2.829,0,0,1-.567-.341c-.346-.236-.86-.572-1.506-.96a31.026,31.026,0,0,0-10.97-4.108c-.745-.131-1.348-.215-1.768-.268a2.886,2.886,0,0,1-.651-.11,2.905,2.905,0,0,1,.661,0,14.565,14.565,0,0,1,1.789.178,27.568,27.568,0,0,1,5.771,1.469,27.892,27.892,0,0,1,5.3,2.665c.635.42,1.133.776,1.464,1.049A3.594,3.594,0,0,1,360.5,382.18Z" transform="translate(-287.277 -251.74)" fill="#263238"/>
      <path id="Path_36815" data-name="Path 36815" d="M461.718,261.28a4.237,4.237,0,0,1-.031.425c-.037.3-.084.708-.142,1.217-.136,1.049-.325,2.581-.645,4.459a56.508,56.508,0,0,1-1.469,6.526,30.429,30.429,0,0,1-3.289,7.492,22.967,22.967,0,0,1-2.733,3.5l-.1.115-.1-.131a13.877,13.877,0,0,0-4.979-4.129,13.231,13.231,0,0,0-2.623-.965,11.611,11.611,0,0,0-2.387-.32,9.848,9.848,0,0,0-3.4.477c-.761.268-1.165.467-1.175.441a1.891,1.891,0,0,1,.289-.152,7.113,7.113,0,0,1,.855-.378,9.526,9.526,0,0,1,3.436-.561,11.588,11.588,0,0,1,2.434.294,13.373,13.373,0,0,1,2.676.955,13.982,13.982,0,0,1,5.089,4.2h-.2a23.333,23.333,0,0,0,2.7-3.462,30.906,30.906,0,0,0,3.289-7.418,61.574,61.574,0,0,0,1.521-6.484c.346-1.868.561-3.394.729-4.444.079-.525.147-.908.194-1.207a1.867,1.867,0,0,1,.073-.451Z" transform="translate(-331.772 -197.026)" fill="#263238"/>
      <path id="Path_36816" data-name="Path 36816" d="M457.752,255.839l-5.052-6.7-5.493.173-17.848,9.427Z" transform="translate(-327.361 -191.255)" fill="#f8951d"/>
      <path id="Path_36817" data-name="Path 36817" d="M427.33,284.727a1.207,1.207,0,0,1-.289,0,6.393,6.393,0,0,1-.824-.136,10.225,10.225,0,0,1-2.817-1.207,6.179,6.179,0,0,0-1.915-.792,5.639,5.639,0,0,0-2.371,0,5.545,5.545,0,0,0-3.961,3.447l-.283.766v-1.458c.063-4.134.068-7.869.236-10.592.079-1.354.184-2.45.3-3.2.047-.378.1-.666.147-.86a1.806,1.806,0,0,1,.073-.294c.026,0-.047.414-.115,1.17s-.157,1.841-.21,3.195c-.121,2.707-.089,6.448-.157,10.587V286l-.262-.052a5.771,5.771,0,0,1,4.165-3.594,5.886,5.886,0,0,1,4.428.876,11.084,11.084,0,0,0,2.749,1.27C426.931,284.675,427.335,284.7,427.33,284.727Z" transform="translate(-320.473 -201.362)" fill="#263238"/>
      <path id="Path_36818" data-name="Path 36818" d="M436.076,168.355v40.238a9.758,9.758,0,0,1-2.293,6.3h0a29.616,29.616,0,0,1-8.079,6.689l-8.111,4.569-6.715-6.012a9.774,9.774,0,0,1-3.247-6.9c-.115-2.927-.115-5.881-.115-5.881s-11.368-.818-12.439-12.03c-.525-5.278-.661-16.09-.687-26.058A21.814,21.814,0,0,1,414.4,147.481l.32-.026a20.848,20.848,0,0,1,21.352,20.9Z" transform="translate(-310.737 -142.913)" fill="#ffbe9d"/>
      <path id="Path_36819" data-name="Path 36819" d="M419.35,256.452a26.1,26.1,0,0,0,14.291-5.372s-2.791,8.362-14.076,8.279Z" transform="translate(-322.602 -192.177)" fill="#eb996e"/>
      <path id="Path_36820" data-name="Path 36820" d="M401.59,201.962a1.611,1.611,0,0,0,1.679,1.49,1.537,1.537,0,0,0,1.532-1.574,1.605,1.605,0,0,0-1.674-1.49,1.537,1.537,0,0,0-1.537,1.574Z" transform="translate(-314.159 -168.079)" fill="#263238"/>
      <path id="Path_36821" data-name="Path 36821" d="M399.821,195.873c.215.189,1.354-.808,3.08-.944s3.064.619,3.232.393c.084-.1-.147-.462-.734-.818a4.391,4.391,0,0,0-2.623-.572,4.2,4.2,0,0,0-2.429,1.012C399.863,195.4,399.716,195.784,399.821,195.873Z" transform="translate(-313.303 -165.001)" fill="#263238"/>
      <path id="Path_36822" data-name="Path 36822" d="M432.87,200.632a1.611,1.611,0,0,0,1.679,1.49,1.542,1.542,0,0,0,1.537-1.574,1.611,1.611,0,0,0-1.679-1.49,1.542,1.542,0,0,0-1.537,1.574Z" transform="translate(-329.029 -167.447)" fill="#263238"/>
      <path id="Path_36823" data-name="Path 36823" d="M432.187,193.81c.215.189,1.359-.808,3.08-.944s3.064.619,3.232.388c.084-.1-.147-.462-.734-.813a4.428,4.428,0,0,0-2.623-.577,4.228,4.228,0,0,0-2.429,1.013C432.229,193.327,432.072,193.72,432.187,193.81Z" transform="translate(-328.688 -164.018)" fill="#263238"/>
      <path id="Path_36824" data-name="Path 36824" d="M418.254,207.917a11.248,11.248,0,0,0-2.843-.278c-.441,0-.866-.058-.965-.352a2.267,2.267,0,0,1,.184-1.333c.331-1.1.671-2.251,1.049-3.462,1.411-4.926,2.4-8.961,2.2-9.013s-1.506,3.893-2.917,8.814c-.341,1.217-.666,2.371-.971,3.478a2.534,2.534,0,0,0-.084,1.747,1.1,1.1,0,0,0,.776.588,2.964,2.964,0,0,0,.755.042A14.794,14.794,0,0,0,418.254,207.917Z" transform="translate(-319.958 -164.795)" fill="#263238"/>
      <path id="Path_36825" data-name="Path 36825" d="M427.53,222.429c-.283,0-.131,1.878-1.626,3.342s-3.5,1.422-3.494,1.684c0,.115.477.325,1.322.278a4.664,4.664,0,0,0,2.922-1.3,4.05,4.05,0,0,0,1.243-2.791C427.9,222.854,427.656,222.408,427.53,222.429Z" transform="translate(-324.057 -178.557)" fill="#263238"/>
      <path id="Path_36826" data-name="Path 36826" d="M430.287,181.308c.21.456,1.915.089,3.956.168s3.73.493,3.961.047c.1-.21-.215-.624-.913-1.049a6.894,6.894,0,0,0-6.033-.163C430.539,180.694,430.2,181.093,430.287,181.308Z" transform="translate(-327.795 -158.242)" fill="#263238"/>
      <path id="Path_36827" data-name="Path 36827" d="M400.22,186.14c.336.367,1.49-.136,2.917-.273s2.66.042,2.906-.388c.1-.21-.115-.588-.677-.913a4.071,4.071,0,0,0-2.429-.446,4.008,4.008,0,0,0-2.261.981C400.2,185.558,400.079,185.978,400.22,186.14Z" transform="translate(-313.482 -160.331)" fill="#263238"/>
      <path id="Path_36828" data-name="Path 36828" d="M448.68,159.021l.063.042a8.882,8.882,0,0,1,3.777,5.44l.047.226c.7,3.148.9,6.427,1.632,9.585s.6,5.571,3.762,6.3a4.2,4.2,0,0,0,4.4-1.789,2.7,2.7,0,0,0,.278-1.5c-.037-7.775,1.527-10.8.839-18.886a6.82,6.82,0,0,0-3.284-5.309c-1.794-1.075-3.966-2.161-5.771-1.117s-3.95,4.769-5.288,6.385" transform="translate(-336.545 -144.879)" fill="#263238"/>
      <path id="Path_36829" data-name="Path 36829" d="M467.43,197.043c.189-.094,7.523-2.917,7.917,4.779s-7.418,6.495-7.439,6.3S467.43,197.043,467.43,197.043Z" transform="translate(-345.459 -166.213)" fill="#ffbe9d"/>
      <path id="Path_36830" data-name="Path 36830" d="M472.534,207.277c.031-.026.136.089.367.178a1.333,1.333,0,0,0,1-.031c.8-.336,1.416-1.663,1.385-3.053a4.411,4.411,0,0,0-.472-1.9,1.542,1.542,0,0,0-1.049-.976.677.677,0,0,0-.771.409c-.094.22-.037.367-.079.383s-.168-.121-.126-.441a.882.882,0,0,1,.278-.5,1.049,1.049,0,0,1,.734-.231,1.889,1.889,0,0,1,1.458,1.123,4.528,4.528,0,0,1,.572,2.1c.031,1.574-.687,3.043-1.784,3.421a1.432,1.432,0,0,1-1.238-.142C472.555,207.46,472.508,207.292,472.534,207.277Z" transform="translate(-347.882 -168.425)" fill="#eb996e"/>
      <path id="Path_36831" data-name="Path 36831" d="M420.3,147.091c1.637-3.226-3.9-7.208-7.791-8.09s-8.724,1.38-12.386,2.943c-2.314.986-4.59,2.282-7.1,2.382a16.834,16.834,0,0,1-4.968-.834,12.358,12.358,0,0,0-4.989-.561,4.637,4.637,0,0,0-3.824,2.9c-.5,1.611.577,3.672,2.261,3.756a3.78,3.78,0,1,0-.425,7.067c-1.159-.74-2.723.766-2.471,2.1a4.047,4.047,0,0,0,2.859,2.691c3.321,1.138,7.014.383,10.235-1.007s6.143-3.379,9.328-4.847,8.509-4.071,11.9-3.184c2.5.656,4.428,3.441,5.771,2.681a4.722,4.722,0,0,0,2.14-3.672,13.484,13.484,0,0,0-.525-4.354" transform="translate(-302.08 -138.803)" fill="#263238"/>
      <path id="Path_36832" data-name="Path 36832" d="M384.507,151.4c.063-.042.441.525,1.343,1.364a10.6,10.6,0,0,0,4.491,2.387,9.753,9.753,0,0,0,7.292-.9c2.513-1.385,4.554-3.914,6.941-6.327a16.154,16.154,0,0,1,8.284-4.858A8.885,8.885,0,0,1,420.4,145a6.741,6.741,0,0,1,2.156,4.816,5.34,5.34,0,0,1-.215,1.443c-.115.31-.189.467-.215.456a11.969,11.969,0,0,0,.131-1.889,6.626,6.626,0,0,0-2.214-4.428,8.414,8.414,0,0,0-7.061-1.642,15.631,15.631,0,0,0-7.869,4.722c-2.324,2.392-4.444,4.958-7.135,6.406a10.492,10.492,0,0,1-12.334-1.894,7.512,7.512,0,0,1-.9-1.128C384.565,151.569,384.486,151.417,384.507,151.4Z" transform="translate(-306.037 -140.759)" fill="#455a64"/>
      <path id="Path_36833" data-name="Path 36833" d="M464.571,178.8c-.026.026-.352-.184-.693-.771a5.162,5.162,0,0,1-.609-2.749c-.037-2.487,1.931-5.32,1.925-8.756a7.743,7.743,0,0,0-1.228-4.512,5.918,5.918,0,0,0-3.059-2.23,5,5,0,0,0-2.592-.136c-.609.152-.923.32-.96.262s.252-.294.876-.525a4.847,4.847,0,0,1,2.822-.1,6.238,6.238,0,0,1,3.483,2.345,8.169,8.169,0,0,1,1.417,4.921,14.019,14.019,0,0,1-1.081,4.958,14.643,14.643,0,0,0-1.049,3.824A5.747,5.747,0,0,0,464.571,178.8Z" transform="translate(-340.669 -148.461)" fill="#455a64"/>
      <rect id="Rectangle_5569" data-name="Rectangle 5569" width="3.95" height="9.144" rx="1.975" transform="translate(126.286 33.027) rotate(42.82)" fill="#263238"/>
      <path id="Path_36834" data-name="Path 36834" d="M495.255,332.17a2.287,2.287,0,0,0,.031.31c.031.2.037.525.068.9.058.8.136,1.983.247,3.515.21,3.085.525,7.591.9,13.3s.824,12.633,1.348,20.539q.189,2.964.4,6.112c.079,1.049.121,2.1.168,3.2a15.379,15.379,0,0,1,0,1.632,15.851,15.851,0,0,1-.089,1.653l-.2,1.668c-.121.551-.241,1.107-.357,1.663a16.074,16.074,0,0,1-.525,1.642,8.555,8.555,0,0,1-.724,1.574,9.468,9.468,0,0,1-5.2,4.722h-67.8l.047-.173c.5-1.773.992-3.525,1.479-5.272q.372-1.306.729-2.623a18.112,18.112,0,0,0,.609-2.586,11.242,11.242,0,0,0-.451-5.152,6.3,6.3,0,0,0-1.228-2.214,3.609,3.609,0,0,0-2.1-1.233l-1.075-.168,1.049-.089,19.385-1.626h-.058a6.621,6.621,0,0,1,4.2-1.285,8.394,8.394,0,0,1,4.045,1.291h-.089l16.436-3.1-.073.126a6.891,6.891,0,0,1-.283-1.936,15.788,15.788,0,0,1,.052-1.873,28.989,28.989,0,0,1,.5-3.546v.063c-1.317-2.46-2.523-4.722-3.641-6.789v-.031c-.257-6.049-.352-10.818-.3-14.07,0-1.626.079-2.875.163-3.714a6.354,6.354,0,0,1,.142-.944c.047-.21.073-.315.073-.315a1.484,1.484,0,0,1-.052.32,6.962,6.962,0,0,0-.121.944c-.073.839-.121,2.1-.126,3.709,0,3.253.094,8.021.372,14.065v-.031c1.117,2.072,2.335,4.318,3.672,6.773h0v.031a29.658,29.658,0,0,0-.5,3.546,15.587,15.587,0,0,0-.047,1.857,6.756,6.756,0,0,0,.278,1.878l.031.1h-.1L450.1,373.694h-.042l-.042-.026a8.105,8.105,0,0,0-3.924-1.238,6.337,6.337,0,0,0-4.024,1.243H442l-19.379,1.647v-.257a3.845,3.845,0,0,1,2.266,1.312,6.616,6.616,0,0,1,1.28,2.308,11.484,11.484,0,0,1,.467,5.272,17.96,17.96,0,0,1-.614,2.623l-.729,2.623q-.734,2.623-1.474,5.246l-.131-.173h16.263l51.324.037h0a7.869,7.869,0,0,0,2.975-1.836,11.078,11.078,0,0,0,2.072-2.775c.278-.525.477-1.049.714-1.574a13.881,13.881,0,0,0,.525-1.621c.168-.54.236-1.1.357-1.642s.136-1.107.2-1.653a15.652,15.652,0,0,0,.094-1.637,15.214,15.214,0,0,0,0-1.621c-.047-1.075-.084-2.135-.163-3.184q-.194-3.148-.388-6.117c-.525-7.906-.939-14.831-1.3-20.549s-.635-10.22-.829-13.3c-.089-1.532-.163-2.718-.21-3.52,0-.393-.037-.693-.047-.9S495.255,332.17,495.255,332.17Z" transform="translate(-323.639 -230.726)" fill="#263238"/>
      <path id="Path_36835" data-name="Path 36835" d="M519.811,277.68a10.043,10.043,0,0,1-.934.582A21.843,21.843,0,0,0,516.448,280a28.5,28.5,0,0,0-6.3,7.523,62.139,62.139,0,0,0-4.2,8.919l-1.091,2.791-.3.761a1.106,1.106,0,0,1-.121.257,1.05,1.05,0,0,1,.068-.278c.068-.2.157-.462.257-.776.231-.672.567-1.637,1.013-2.828a56.23,56.23,0,0,1,4.139-9,27.324,27.324,0,0,1,6.4-7.534,18.6,18.6,0,0,1,2.5-1.679c.3-.184.561-.294.724-.378A1.31,1.31,0,0,1,519.811,277.68Z" transform="translate(-363.052 -204.822)" fill="#263238"/>
      <g id="Group_8773" data-name="Group 8773" transform="translate(125.802 92.851)" opacity="0.3">
        <path id="Path_36836" data-name="Path 36836" d="M485.155,315.832a34.824,34.824,0,0,0-2.938,15.691c.2,5.33.839,10.676.315,15.99s-2.366,10.734-6.327,14.306a5.147,5.147,0,0,0-1.28,1.422,1.443,1.443,0,0,0,.247,1.757,2.1,2.1,0,0,0,1.647.173c3.793-.661,7.633-1.133,11.431-1.789.813-.142,3.546-.677,3.546-.677a14.832,14.832,0,0,1-.231-3.148c.121-.95.493-4.2.493-4.2a5.582,5.582,0,0,0-.729-1.354,31.03,31.03,0,0,1-3.148-8.074,36.762,36.762,0,0,1-2.481-7.791c-1.663-6.878-1.616-13.64-.556-22.354" transform="translate(-474.732 -315.79)"/>
      </g>
      <g id="Group_8774" data-name="Group 8774" transform="translate(94.565 81.273)" opacity="0.3">
        <path id="Path_36837" data-name="Path 36837" d="M415.263,297.509c.31.787.624,1.574.934,2.366a.955.955,0,0,0,.451.593c.467.178.839-.393,1.049-.845a6.059,6.059,0,0,1,4.653-3.268c1.574-.184,3.232.278,4.8-.047a21.267,21.267,0,0,0-4.333-2.156,7.187,7.187,0,0,0-4.758-.047,4.391,4.391,0,0,0-2.87,3.583" transform="translate(-415.19 -293.722)"/>
      </g>
      <g id="Group_8775" data-name="Group 8775" transform="translate(107.308 71.347)" opacity="0.3">
        <path id="Path_36838" data-name="Path 36838" d="M439.779,286.525a25.56,25.56,0,0,1,5.556.525,8.666,8.666,0,0,1,4.758,2.738c1.27,1.548,1.742,3.578,2.256,5.509.1.372.278.813.656.855a.934.934,0,0,0,.63-.247,18.3,18.3,0,0,0,6.348-9.564,41.864,41.864,0,0,0,1.458-11.542c-1.5,2.681-2.151,5.734-3.148,8.641s-2.45,5.834-5.021,7.513a2.508,2.508,0,0,0-.588-1.841,5.5,5.5,0,0,0-1.527-1.249,14.584,14.584,0,0,0-11.678-1.432" transform="translate(-439.48 -274.8)"/>
      </g>
      <path id="Path_36839" data-name="Path 36839" d="M389.226,410.628H382.8s-14.5-5.246-17.475-4.722c-2.686.451-12.512,6.977-14.437,8.273a1.212,1.212,0,0,0-.467.593h0a2.1,2.1,0,0,0,1.175,2.676l.2.084-.084.294a3.478,3.478,0,0,0-.152,1.175,1.416,1.416,0,0,0,2.623.609l-.367.661a1.574,1.574,0,0,0-.2.881l.031.593a1.616,1.616,0,0,0,1.112,1.448h0a1.611,1.611,0,0,0,1.679-.467c1.249-1.369,3.94-4.113,5.771-4.417a42.568,42.568,0,0,1,5.949-.3,2.02,2.02,0,0,1,1.873,1.285h0c-1.081.079-8.614,4.008-11.279,5.414a2.838,2.838,0,0,0-1.548,2.146c-.1.834.32,1.705,1.973,1.322a73.19,73.19,0,0,0,9.915-3.756s3.284-.939,5.414.561c3,2.1,4.37,2.891,6.941,2.036a21.8,21.8,0,0,0,4.47-2.1l5.068-.525S395.779,412.464,389.226,410.628Z" transform="translate(-289.771 -265.761)" fill="#ffbe9d"/>
      <path id="Path_36840" data-name="Path 36840" d="M373.458,419.035c0,.058-1.049-.268-2.723-.378a14.049,14.049,0,0,0-11.715,5,27.1,27.1,0,0,0-1.611,2.23,3.2,3.2,0,0,1,.32-.672,12.184,12.184,0,0,1,1.138-1.679,13.609,13.609,0,0,1,11.883-5.068,12.594,12.594,0,0,1,2,.336,3.412,3.412,0,0,1,.708.231Z" transform="translate(-293.157 -271.723)" fill="#eb996e"/>
      <path id="Path_36841" data-name="Path 36841" d="M369.916,412.229a11.017,11.017,0,0,0-9.443,1.375,26.418,26.418,0,0,0-5.3,4.5l-1.458,1.532a3.74,3.74,0,0,1-.556.525,5.054,5.054,0,0,1,.477-.619c.32-.388.792-.939,1.4-1.605a24.417,24.417,0,0,1,5.314-4.6,12.066,12.066,0,0,1,6.741-1.826,8.1,8.1,0,0,1,2.1.388,4.722,4.722,0,0,1,.525.2Z" transform="translate(-291.137 -268.438)" fill="#eb996e"/>
    </g>
    <g id="freepik--speech-bubble--inject-24" transform="translate(367.416 134.808)">
      <path id="Path_36842" data-name="Path 36842" d="M525.18,135.11a21.446,21.446,0,0,0-17.6,33.717l-2.576,8,7.869-2.681a21.452,21.452,0,1,0,12.287-39.037Z" transform="translate(-503.362 -134.952)" fill="#fff"/>
      <path id="Path_36843" data-name="Path 36843" d="M530.484,173.954a1.852,1.852,0,1,1-1.794-1.9,1.852,1.852,0,0,1,1.794,1.9Z" transform="translate(-514.321 -152.512)" fill="#263238"/>
      <path id="Path_36844" data-name="Path 36844" d="M544.645,174.384a1.852,1.852,0,1,1-1.794-1.9A1.852,1.852,0,0,1,544.645,174.384Z" transform="translate(-521.052 -152.716)" fill="#263238"/>
      <path id="Path_36845" data-name="Path 36845" d="M558.915,173.886a1.847,1.847,0,1,1-1.095-.9A1.852,1.852,0,0,1,558.915,173.886Z" transform="translate(-527.941 -152.921)" fill="#263238"/>
      <path id="Path_36846" data-name="Path 36846" d="M525.51,134.82a1.537,1.537,0,0,1,.372,0l1.1.063a4.01,4.01,0,0,1,.808.058l.965.168,1.128.194,1.254.351a20.581,20.581,0,0,1,6.044,2.859,21.619,21.619,0,0,1,9.443,16.552,22.4,22.4,0,0,1,0,2.964c-.052.5-.058,1.007-.147,1.511s-.184,1.007-.273,1.521a21.831,21.831,0,0,1-2.272,5.97,23.33,23.33,0,0,1-4.1,5.3,22.786,22.786,0,0,1-5.8,3.908,20.7,20.7,0,0,1-6.977,1.915,13.643,13.643,0,0,1-1.852.1,17.068,17.068,0,0,1-1.868,0,22.556,22.556,0,0,1-3.72-.582,21.908,21.908,0,0,1-7.345-3.358l.226.031-7.665,2.812-.456.168.142-.462,2.471-8.032.031.2a21.677,21.677,0,0,1-3.762-9.37,19.6,19.6,0,0,1-.152-4.753,15.294,15.294,0,0,1,.283-2.266l.2-1.107c.079-.362.2-.708.3-1.049a21.667,21.667,0,0,1,8.819-12.066,20.77,20.77,0,0,1,5.11-2.5l1.144-.372,1.086-.241.992-.21c.315-.052.619-.079.908-.11.577-.058,1.081-.142,1.521-.147h1.794a.876.876,0,0,1,.231,0,.992.992,0,0,1-.231,0l-.677.037-1.117.037a14.742,14.742,0,0,0-1.506.184,21.536,21.536,0,0,0-17.706,15.455c-.089.346-.21.693-.283,1.049s-.131.724-.2,1.086a15.5,15.5,0,0,0-.268,2.23,19.6,19.6,0,0,0,.168,4.653,21.368,21.368,0,0,0,3.714,9.176l.068.089-.037.11q-1.186,3.9-2.45,8.037l-.315-.3,7.665-2.817.121-.047.1.073a21.326,21.326,0,0,0,7.177,3.274,21.045,21.045,0,0,0,3.636.572,16.3,16.3,0,0,0,1.826.026,13.774,13.774,0,0,0,1.8-.1,20.187,20.187,0,0,0,6.82-1.862,22.375,22.375,0,0,0,5.682-3.814,22.753,22.753,0,0,0,4.024-5.178,21.253,21.253,0,0,0,2.214-5.839c.094-.525.184-1,.278-1.485s.094-1,.147-1.485a22.567,22.567,0,0,0,.042-2.912,21.415,21.415,0,0,0-9.191-16.347,20.575,20.575,0,0,0-5.949-2.9l-1.238-.367-1.112-.22-.955-.184c-.294-.042-.567-.058-.8-.084l-1.091-.115A2.621,2.621,0,0,1,525.51,134.82Z" transform="translate(-503.03 -134.808)" fill="#263238"/>
    </g>
    <g id="freepik--Cat--inject-24" transform="translate(381.098 259.945)">
      <path id="Path_36847" data-name="Path 36847" d="M631.119,447.49a5.288,5.288,0,0,0-3.484,1.936,3.83,3.83,0,0,0-.488,3.856,3.027,3.027,0,0,0,3.384,1.658,1.915,1.915,0,0,0,3.824.063,2.282,2.282,0,0,0,4-1.668c-.042-.6-.32-1.165-.388-1.757a18.966,18.966,0,0,1,.073-1.967,1.668,1.668,0,0,0-.923-1.605" transform="translate(-575.567 -408.587)" fill="#263238"/>
      <path id="Path_36848" data-name="Path 36848" d="M582.894,451.371a22.768,22.768,0,0,1,6.694-2.676,9.337,9.337,0,0,1,5.178-.247,5.11,5.11,0,0,1,3.274,3.452,2.528,2.528,0,0,1-.084,1.841,3.043,3.043,0,0,1-2.1,1.28c-.619.157-1.416.2-1.763-.336a2.4,2.4,0,0,1-3.52.273,2.324,2.324,0,0,1-4.428-1.3,2.56,2.56,0,0,1-2.24,1.107,2.1,2.1,0,0,1-1.852-1.574,1.784,1.784,0,0,1,1.243-2.02" transform="translate(-554.266 -408.912)" fill="#263238"/>
      <path id="Path_36849" data-name="Path 36849" d="M546.121,435.109a5.771,5.771,0,0,1,2.235-6c2.1-1.516,3.588-3.279,6.327-4.91a40.78,40.78,0,0,1,6.7-2.88c5.377-1.784,9.013-2.235,11.222-3.394,2.418-1.264,5.65-3.258,5.65-3.258L605.7,416.8s3.3,20.271-1.694,22.254c0,0-23.262.241-25.087-.567-1.983-.876-32.248-.86-32.159-.661Z" transform="translate(-537.124 -392.985)" fill="#263238"/>
      <path id="Path_36850" data-name="Path 36850" d="M553.112,446.25a86.245,86.245,0,0,1-14.742,1.186,26.416,26.416,0,0,0-5.194.336,5.686,5.686,0,0,0-2.833,1.317,2.791,2.791,0,0,0-.8,2.885A1.882,1.882,0,0,0,532.116,453a2.1,2.1,0,0,0,3.83.74,1.773,1.773,0,0,0,1.684.525,6.958,6.958,0,0,0,1.721-.666c2.392-1.117,4.937-.839,7.581-.824,4.617.031,9.842,0,7.917,0" transform="translate(-529.258 -407.998)" fill="#263238"/>
      <path id="Path_36851" data-name="Path 36851" d="M554.7,452.781a3.153,3.153,0,0,1,.388-.026h0v.047h-1.1l-4.2.047h-2.948c-1.049,0-2.214-.052-3.421,0a11.017,11.017,0,0,0-3.73.666,19.4,19.4,0,0,1-1.9.8,2.461,2.461,0,0,1-1.107.063,1.647,1.647,0,0,1-1-.572h.22a2.23,2.23,0,0,1-4.082-.782l.21.089a1.915,1.915,0,0,1-2.177-.268,2.04,2.04,0,0,1-.719-1.28,2.77,2.77,0,0,1,.184-1.432,3.751,3.751,0,0,1,1.946-1.936,8.693,8.693,0,0,1,2.555-.693,20.758,20.758,0,0,1,2.518-.178c3.268,0,6.206-.031,8.667-.215s4.449-.43,5.818-.6l1.574-.2.409-.047h.142l-.136.037-.409.073-1.574.252c-1.369.2-3.352.493-5.818.693s-5.419.247-8.677.273a21.284,21.284,0,0,0-2.487.184,8.555,8.555,0,0,0-2.476.677,3.468,3.468,0,0,0-1.81,1.8,2.051,2.051,0,0,0,.462,2.4,1.632,1.632,0,0,0,1.852.247l.168-.11.037.2a1.962,1.962,0,0,0,3.588.693l.1-.157.115.147a1.737,1.737,0,0,0,1.831.425,20.141,20.141,0,0,0,1.883-.787,11.044,11.044,0,0,1,3.814-.661c1.222-.026,2.366.042,3.431.047l2.943.026,4.2.031h1.1v.047h0a2,2,0,0,1-.378-.01Z" transform="translate(-529.111 -408.003)" fill="#455a64"/>
      <path id="Path_36852" data-name="Path 36852" d="M637.758,451.613a1.447,1.447,0,0,1,.31.4,2.356,2.356,0,0,1,.252,1.417,2.44,2.44,0,0,1-.351.986,2.1,2.1,0,0,1-.939.808,2.476,2.476,0,0,1-2.791-.6l.189-.037a2.146,2.146,0,0,1-4.071,0l.157.084a3.322,3.322,0,0,1-3.672-2.1,3.961,3.961,0,0,1,.226-3.331,5.409,5.409,0,0,1,2.193-2.24,7.549,7.549,0,0,1,2.707-.855,11.879,11.879,0,0,1,2.466-.042,33.074,33.074,0,0,1,3.51.525l.944.184a2.53,2.53,0,0,1,.325.079,1.247,1.247,0,0,1-.336,0l-.955-.136c-.829-.121-2.02-.352-3.5-.456a9.081,9.081,0,0,0-5.031.923,5.147,5.147,0,0,0-2.1,2.14,3.672,3.672,0,0,0-.215,3.106,3.114,3.114,0,0,0,3.379,1.936h.121l.037.115a1.946,1.946,0,0,0,1.9,1.312,1.983,1.983,0,0,0,1.71-1.285l.063-.184.126.147a2.282,2.282,0,0,0,2.55.577,2.1,2.1,0,0,0,1.233-1.647A2.34,2.34,0,0,0,638,452.08C637.863,451.754,637.742,451.623,637.758,451.613Z" transform="translate(-575.444 -407.91)" fill="#455a64"/>
      <path id="Path_36853" data-name="Path 36853" d="M650.058,445.4c-.031.031-.315-.247-.866-.525a4.292,4.292,0,0,0-4.575.231c-.525.357-.771.661-.808.63a2.141,2.141,0,0,1,.693-.782,4.1,4.1,0,0,1,4.79-.247,2.131,2.131,0,0,1,.766.693Z" transform="translate(-583.637 -406.952)" fill="#455a64"/>
      <path id="Path_36854" data-name="Path 36854" d="M582.51,445.549a1.177,1.177,0,0,1-.2-.136,2.36,2.36,0,0,1-.451-.525,3.253,3.253,0,0,1-.294-2.523,5.12,5.12,0,0,1,2.466-2.854,41.019,41.019,0,0,1,4.265-1.826,14.605,14.605,0,0,0,7.345-7.654,7.008,7.008,0,0,1,.367-.86,1.128,1.128,0,0,1-.052.236c-.047.152-.1.383-.215.661a12.476,12.476,0,0,1-1.107,2.308,14.164,14.164,0,0,1-6.232,5.561,39.129,39.129,0,0,0-4.249,1.789,5,5,0,0,0-2.408,2.691,3.19,3.19,0,0,0,.2,2.419A3.707,3.707,0,0,0,582.51,445.549Z" transform="translate(-553.982 -399.878)" fill="#455a64"/>
      <path id="Path_36855" data-name="Path 36855" d="M597.832,454.322a2.623,2.623,0,0,0,.6.467,2.272,2.272,0,0,0,1.962.031,2.623,2.623,0,0,0,1.359-2.481,3.441,3.441,0,0,0-.477-1.684,4.5,4.5,0,0,0-1.306-1.385,6.3,6.3,0,0,0-3.531-1.049,11.275,11.275,0,0,0-3.043.467c-.85.241-1.527.483-1.994.64a4.932,4.932,0,0,1-.74.231,3.744,3.744,0,0,1,.7-.331c.462-.189,1.128-.456,1.983-.724a10.714,10.714,0,0,1,3.1-.525,6.39,6.39,0,0,1,3.672,1.091,4.632,4.632,0,0,1,1.385,1.474,3.672,3.672,0,0,1,.5,1.82,2.775,2.775,0,0,1-1.532,2.655,2.324,2.324,0,0,1-2.1-.11,1.7,1.7,0,0,1-.441-.383A1.045,1.045,0,0,1,597.832,454.322Z" transform="translate(-558.37 -408.82)" fill="#455a64"/>
      <path id="Path_36856" data-name="Path 36856" d="M598.5,458a2.328,2.328,0,0,0,.876.567,2.554,2.554,0,0,0,1.091.184,1.453,1.453,0,0,0,1.049-.708,1.663,1.663,0,0,0,.11-1.291,3.216,3.216,0,0,0-.525-1,8.306,8.306,0,0,1-.672-.845,2.912,2.912,0,0,1,.818.724,3,3,0,0,1,.614,1.049,1.894,1.894,0,0,1-.11,1.5,1.7,1.7,0,0,1-1.27.824,2.508,2.508,0,0,1-1.2-.257,2,2,0,0,1-.666-.477C598.5,458.1,598.48,458,598.5,458Z" transform="translate(-562.093 -412.11)" fill="#455a64"/>
      <path id="Path_36857" data-name="Path 36857" d="M589.971,456.653a3.4,3.4,0,0,1,0,.414,2.037,2.037,0,0,0,.289,1.049,1.9,1.9,0,0,0,1.254.913,2.24,2.24,0,0,0,1.841-.425,2.549,2.549,0,0,0,.9-1.7,2.811,2.811,0,0,0-.3-1.574A5.079,5.079,0,0,0,593,454.14a1.391,1.391,0,0,1,.367.215,3.069,3.069,0,0,1,.755.887,2.859,2.859,0,0,1,.388,1.689,2.739,2.739,0,0,1-.981,1.883,2.471,2.471,0,0,1-2.1.462,2.051,2.051,0,0,1-1.364-1.049,1.946,1.946,0,0,1-.226-1.144A.819.819,0,0,1,589.971,456.653Z" transform="translate(-557.975 -411.749)" fill="#455a64"/>
      <path id="Path_36858" data-name="Path 36858" d="M607.341,400.266s5.808,6.4,13.011,5.587,12.764-7.8,12.764-7.8a5.912,5.912,0,0,0,.3-4.916,16.728,16.728,0,0,1-1.013-4.019,12.209,12.209,0,0,1,.808-3.447,32.354,32.354,0,0,0,1-7.869c.047-1.138,0-2.492-.976-3.1a2.182,2.182,0,0,0-2.03-.037,6.044,6.044,0,0,0-1.679,1.264,71.664,71.664,0,0,0-6.1,6.642,7.932,7.932,0,0,0-9.842.792c-3.079-1.291-4.1-5.608-7.25-6.715a2.266,2.266,0,0,0-2.1.152,3.057,3.057,0,0,0-.782,2.649c.131,4.318.289,8.761,2.046,12.706a8.525,8.525,0,0,0,1.668,7.754" transform="translate(-564.449 -373.859)" fill="#263238"/>
      <path id="Path_36859" data-name="Path 36859" d="M631,424.259a2.9,2.9,0,0,1,3.578-1.018.97.97,0,0,1,.4.289.414.414,0,0,1,.037.467.357.357,0,0,0-.525,0,.844.844,0,0,0-.184.572,1.973,1.973,0,0,1-.068.609.75.75,0,0,1-.525.451.74.74,0,0,1-.666-.226,2.346,2.346,0,0,1-.315-.561.719.719,0,0,0-.456-.425,1,1,0,0,0-.525.11.666.666,0,0,1-.5.047c-.157-.073-.231-.32-.089-.414" transform="translate(-577.547 -396.94)" fill="#455a64"/>
      <path id="Path_36860" data-name="Path 36860" d="M636,426.93c.042,0,.031.231.115.572a2.1,2.1,0,0,0,1.915,1.621c.352.026.577-.026.588,0s-.2.152-.588.178a2.067,2.067,0,0,1-1.406-.477,2.025,2.025,0,0,1-.7-1.306C635.887,427.15,635.96,426.925,636,426.93Z" transform="translate(-579.884 -398.813)" fill="#455a64"/>
      <path id="Path_36861" data-name="Path 36861" d="M633.564,426.28a1.1,1.1,0,0,1,.194.708,2.151,2.151,0,0,1-2.366,2.214c-.467-.047-.708-.22-.693-.247s.273.058.7.052a2.1,2.1,0,0,0,2.167-2.025C633.6,426.558,633.516,426.29,633.564,426.28Z" transform="translate(-577.404 -398.505)" fill="#455a64"/>
      <path id="Path_36862" data-name="Path 36862" d="M650.262,429.582a13.908,13.908,0,0,0-7.812-.976,3.674,3.674,0,0,1,1.144-.31,10.3,10.3,0,0,1,5.634.7,3.573,3.573,0,0,1,1.034.588Z" transform="translate(-582.99 -399.404)" fill="#455a64"/>
      <path id="Path_36863" data-name="Path 36863" d="M653.057,427.253c0,.042-.661-.121-1.716-.3a25.749,25.749,0,0,0-8.32-.142c-1.049.152-1.71.289-1.721.247a1.637,1.637,0,0,1,.446-.152c.289-.089.714-.184,1.243-.289a21.3,21.3,0,0,1,8.394.142c.525.121.95.236,1.238.331A1.6,1.6,0,0,1,653.057,427.253Z" transform="translate(-582.443 -398.497)" fill="#455a64"/>
      <path id="Path_36864" data-name="Path 36864" d="M654.787,420.866c0,.042-.8,0-2.1,0a27.347,27.347,0,0,0-4.947.409,17.6,17.6,0,0,0-4.722,1.537c-1.138.572-1.773,1.049-1.8,1.007a2.1,2.1,0,0,1,.425-.362,12.175,12.175,0,0,1,1.285-.818A16.084,16.084,0,0,1,647.652,421a23.469,23.469,0,0,1,5-.331,13.481,13.481,0,0,1,1.511.1A2.524,2.524,0,0,1,654.787,420.866Z" transform="translate(-582.405 -395.829)" fill="#455a64"/>
      <path id="Path_36865" data-name="Path 36865" d="M609.74,433.846a2.987,2.987,0,0,1,.31-.3,10.146,10.146,0,0,1,.934-.708,14.558,14.558,0,0,1,7.255-2.45,9.678,9.678,0,0,1,1.17,0,1.448,1.448,0,0,1,.43.052c0,.047-.609.047-1.574.142A16.993,16.993,0,0,0,611.1,433C610.254,433.484,609.771,433.846,609.74,433.846Z" transform="translate(-567.44 -400.447)" fill="#455a64"/>
      <path id="Path_36866" data-name="Path 36866" d="M608.9,429.946a2.62,2.62,0,0,1,.4-.21c.262-.115.651-.268,1.138-.435a19.033,19.033,0,0,1,7.958-.855c.525.058.923.121,1.2.178a1.511,1.511,0,0,1,.435.121c0,.042-.635-.042-1.658-.11a24.322,24.322,0,0,0-3.971.084,24.07,24.07,0,0,0-3.9.766,16.465,16.465,0,0,1-1.6.462Z" transform="translate(-567.041 -399.484)" fill="#455a64"/>
      <path id="Path_36867" data-name="Path 36867" d="M601.93,427.588a2.5,2.5,0,0,1,.525-.252,15.071,15.071,0,0,1,1.548-.525,22.281,22.281,0,0,1,10.666-.372,16.045,16.045,0,0,1,1.574.409,2.215,2.215,0,0,1,.561.21c0,.047-.829-.189-2.177-.43a25.228,25.228,0,0,0-10.561.4C602.743,427.342,601.967,427.63,601.93,427.588Z" transform="translate(-563.728 -398.354)" fill="#455a64"/>
      <path id="Path_36868" data-name="Path 36868" d="M623.518,414.033a1.81,1.81,0,0,1-.808.577,3.588,3.588,0,0,1-4.365-1.133,1.826,1.826,0,0,1-.425-.9c.042,0,.194.331.577.776a3.7,3.7,0,0,0,4.139,1.076C623.208,414.227,623.491,414,623.518,414.033Z" transform="translate(-571.329 -391.992)" fill="#455a64"/>
      <path id="Path_36869" data-name="Path 36869" d="M646.434,410.55a1.4,1.4,0,0,1-.089.95,2.907,2.907,0,0,1-1.6,1.637,5.6,5.6,0,0,1-2.256.414,3.059,3.059,0,0,1-.939-.073,3.42,3.42,0,0,1,.934-.121,6.648,6.648,0,0,0,2.146-.467,2.98,2.98,0,0,0,1.537-1.464,8.34,8.34,0,0,0,.267-.876Z" transform="translate(-582.562 -391.027)" fill="#455a64"/>
      <path id="Path_36870" data-name="Path 36870" d="M608.8,389.291a5.694,5.694,0,0,0,.876-1.112,2.492,2.492,0,0,0,.325-1.453,3.148,3.148,0,0,0-.666-1.427,13.717,13.717,0,0,0-2.88-2.922s-.829-.63-1.2,0c-.252.42-.094,7.308.866,7.749S608.8,389.291,608.8,389.291Z" transform="translate(-565.257 -377.501)" fill="#455a64"/>
      <path id="Path_36871" data-name="Path 36871" d="M653.926,376.946c-1.532,1.2-2.1,3.268-3.268,4.842a4.627,4.627,0,0,0-.525.9,1.5,1.5,0,0,0-.089,1.023,1.968,1.968,0,0,0,.661.85,7.871,7.871,0,0,0,2.03,1.233s1.574.488,2.009-.955S654.954,376.159,653.926,376.946Z" transform="translate(-586.576 -375.024)" fill="#455a64"/>
      <path id="Path_36872" data-name="Path 36872" d="M548.62,405c-1.847.283-6.112-.425-7.345-1.71s-.9-3.3-.22-5.036a41.748,41.748,0,0,1,2.623-4.947,20,20,0,0,0,2.655-8.887,11.628,11.628,0,0,0-3.148-8.546,8.311,8.311,0,0,0-8.6-2.067c-2.392.929-4.244,3.672-3.321,6.086.582,1.5,2.036,2.45,3.059,3.672a7.576,7.576,0,0,1,1.511,6.4c-.525,2.408-2.251,4.407-2.9,6.789-.981,3.63.8,7.659,3.8,9.936a14.872,14.872,0,0,0,10.713,2.513" transform="translate(-530.018 -373.336)" fill="#263238"/>
      <path id="Path_36873" data-name="Path 36873" d="M636.13,430.51s.226,1.406-.257,1.978a1.191,1.191,0,0,1-2.067-.22,3.2,3.2,0,0,1-.336-1.437s1.249-.451,1.427-1.18A2,2,0,0,0,636.13,430.51Z" transform="translate(-578.721 -400.107)" fill="#f8951d"/>
      <path id="Path_36874" data-name="Path 36874" d="M637.753,432.378a2.506,2.506,0,0,1-.409.462,9.442,9.442,0,0,1-1.3,1.049,10.644,10.644,0,0,1-10.6.855,9.963,9.963,0,0,1-1.453-.845,2.854,2.854,0,0,1-.477-.388c.031-.047.724.5,2.009,1.049a11.017,11.017,0,0,0,10.419-.808C637.119,432.987,637.717,432.336,637.753,432.378Z" transform="translate(-573.986 -401.403)" fill="#455a64"/>
      <path id="Path_36875" data-name="Path 36875" d="M634.269,450.39c0,.042-.362.236-.839.713a4.055,4.055,0,0,0-.75,4.806c.31.6.619.9.582.934a2.24,2.24,0,0,1-.75-.839,3.966,3.966,0,0,1,.787-5.042A2.193,2.193,0,0,1,634.269,450.39Z" transform="translate(-577.993 -409.966)" fill="#455a64"/>
      <path id="Path_36876" data-name="Path 36876" d="M643.288,451.5a5.7,5.7,0,0,0-1.049.283,3.211,3.211,0,0,0-1.626,1.841,4.669,4.669,0,0,0-.037,2.518c.157.64.336,1.049.294,1.049a2.543,2.543,0,0,1-.477-.986,4.3,4.3,0,0,1-.037-2.66,3.148,3.148,0,0,1,1.81-1.931,1.611,1.611,0,0,1,1.123-.115Z" transform="translate(-581.903 -410.47)" fill="#455a64"/>
      <path id="Path_36877" data-name="Path 36877" d="M614.958,445.079a2.472,2.472,0,0,1-.43.75,8.722,8.722,0,0,1-1.406,1.574,6.979,6.979,0,0,1-1.789,1.1,2.282,2.282,0,0,1-.834.247,18.984,18.984,0,0,0,2.45-1.574C614.171,446.128,614.885,445.037,614.958,445.079Z" transform="translate(-567.801 -407.441)" fill="#455a64"/>
      <path id="Path_36878" data-name="Path 36878" d="M578.16,415a1.733,1.733,0,0,1-.3.231c-.2.147-.525.346-.9.6a31.3,31.3,0,0,1-3.5,1.868,53.1,53.1,0,0,1-5.493,2.125c-2.1.687-4.449,1.338-6.867,2.14a40.4,40.4,0,0,0-6.621,2.749,22.5,22.5,0,0,0-4.753,3.384,16.963,16.963,0,0,0-2.539,3.006c-.525.782-.734,1.249-.761,1.233a1.708,1.708,0,0,1,.152-.341,9.856,9.856,0,0,1,.525-.95,15.74,15.74,0,0,1,2.5-3.09,21.97,21.97,0,0,1,4.763-3.463,39.179,39.179,0,0,1,6.652-2.786c2.429-.808,4.779-1.448,6.883-2.125a56.218,56.218,0,0,0,5.488-2.062,37.61,37.61,0,0,0,3.531-1.778c.4-.236.714-.425.923-.556A2.4,2.4,0,0,1,578.16,415Z" transform="translate(-537.339 -393.142)" fill="#455a64"/>
      <path id="Path_36879" data-name="Path 36879" d="M609.882,416.852a3.624,3.624,0,0,1-.818-.929,9.441,9.441,0,0,1-1.317-2.691,9.645,9.645,0,0,1-.42-2.964,3.836,3.836,0,0,1,.152-1.228,15.421,15.421,0,0,0,.525,4.113A15.239,15.239,0,0,0,609.882,416.852Z" transform="translate(-566.292 -390.309)" fill="#455a64"/>
    </g>
    <g id="freepik--Device--inject-24" transform="translate(217.755 252.697)">
      <path id="Path_36880" data-name="Path 36880" d="M235.584,411.085l-17.407-43.7a5.713,5.713,0,0,1,5.288-7.869H277.69A5.713,5.713,0,0,1,283.1,363.4l14.952,44.069,17.465.084c1.416,0,2.565,2.1,2.565,3.5h0l-19.222-.22Z" transform="translate(-217.755 -359.52)" fill="#263238"/>
      <path id="Path_36881" data-name="Path 36881" d="M246.627,378.745a6.064,6.064,0,0,0-3.5.939,4.563,4.563,0,0,0-.955.792,6.852,6.852,0,0,0-1.925,6.243c.661,3.169,2.7,3.6,3.672,3.709s7.617-1.789,7.617-1.789,2.413-2.051,1.574-4.748A7.234,7.234,0,0,0,246.627,378.745Z" transform="translate(-228.373 -368.657)" fill="#f8951d"/>
      <path id="Path_36882" data-name="Path 36882" d="M246.49,396.771s.241,1.695,1.091,2.1a6.4,6.4,0,0,0,3.672.047c1.238-.3,3.022-1,3.232-1.936a3.95,3.95,0,0,0-.1-2.209,5.535,5.535,0,0,0-4.47-.414A5.907,5.907,0,0,0,246.49,396.771Z" transform="translate(-231.415 -375.943)" fill="#f5f5f5"/>
      <g id="Group_8776" data-name="Group 8776" transform="translate(14.189 10.323)" opacity="0.4">
        <path id="Path_36883" data-name="Path 36883" d="M251.085,381.612a3.19,3.19,0,1,1-3.872-2.319A3.19,3.19,0,0,1,251.085,381.612Z" transform="translate(-244.801 -379.197)" fill="#fff"/>
      </g>
      <g id="Group_8777" data-name="Group 8777" transform="translate(11.756 14.417)" opacity="0.4">
        <path id="Path_36884" data-name="Path 36884" d="M240.828,392.246a4.092,4.092,0,0,0,.908-2.707A3.987,3.987,0,0,0,240.549,387a7.827,7.827,0,0,0-.346,3.226,5.828,5.828,0,0,0,.624,2.02Z" transform="translate(-240.163 -387)" fill="#fff"/>
      </g>
      <g id="Group_8778" data-name="Group 8778" transform="translate(22.448 11.914)" opacity="0.4">
        <path id="Path_36885" data-name="Path 36885" d="M262.987,386.857a4.055,4.055,0,0,1-2.072-1.957,3.6,3.6,0,0,1-.2-2.67,8.861,8.861,0,0,1,1.81,2.544A3.833,3.833,0,0,1,262.987,386.857Z" transform="translate(-260.545 -382.23)" fill="#fff"/>
      </g>
      <path id="Path_36886" data-name="Path 36886" d="M293.131,408.9a3.525,3.525,0,1,1-3.525-3.52A3.525,3.525,0,0,1,293.131,408.9Z" transform="translate(-250.235 -381.321)" fill="#f5f5f5"/>
    </g>
    <g id="freepik--Desk--inject-24" transform="translate(217.755 303.868)">
      <path id="Path_36887" data-name="Path 36887" d="M330.29,457.2c0,.073-55.969.136-125,.136s-125-.063-125-.136,55.957-.136,125-.136S330.29,457.118,330.29,457.2Z" transform="translate(-80.29 -457.06)" fill="#263238"/>
    </g>
  </g>
</svg>
