<svg xmlns="http://www.w3.org/2000/svg" width="250" height="122.457" viewBox="0 0 250 122.457">
  <g id="Legal_Requirements" data-name="Legal Requirements" transform="translate(-17.7 -110.788)">
    <g id="freepik--Floor--inject-14" transform="translate(17.7 233.063)">
      <path id="Path_36519" data-name="Path 36519" d="M267.7,460.391c0,.049-55.975.091-124.993.091S17.7,460.44,17.7,460.391s55.975-.091,125.007-.091S267.7,460.338,267.7,460.391Z" transform="translate(-17.7 -460.3)" fill="#263238"/>
    </g>
    <g id="freepik--character-3--inject-14" transform="translate(180.001 119.097)">
      <path id="Path_36520" data-name="Path 36520" d="M531.306,187.114c-.175-.539-5.626-36.832-3.747-39.452,4.083-5.692,38.549-4.6,42.006-.455s-3.554,39.907-3.554,39.907Z" transform="translate(-511.232 -140.522)" fill="#f8951d"/>
      <g id="Group_8764" data-name="Group 8764" transform="translate(18.787 4.178)" opacity="0.3">
        <path id="Path_36521" data-name="Path 36521" d="M570.1,166.479a32.668,32.668,0,0,0-8.358-4.695,11.342,11.342,0,0,0,3.124-5.675,12.015,12.015,0,0,1,.591-2.386,16.747,16.747,0,0,1,1.889-2.652c.812-1.141,1.224-2.907.154-3.817a2.368,2.368,0,0,0-3.149.5A7.133,7.133,0,0,0,563.017,151a9.1,9.1,0,1,0-15.719,9.169,2.8,2.8,0,0,1,.385,1.445c-.067,2.1-.973,2.18-1.844,2.449-3.149.987-6.024,2.466-7.641,5.335a27.615,27.615,0,0,0-2.879,8.4l39.029-3.051C574.391,171.566,572.537,168.564,570.1,166.479Z" transform="translate(-535.32 -146.483)"/>
      </g>
      <path id="Path_36522" data-name="Path 36522" d="M536.07,223.227s1.844-7.795,2.064-7.872-3.432-7.644-4.642-7.252c-1.63.525-7,12.052-7.641,13.263-2.7,5-1.3,7.375-1.3,7.375l14.025.658c.661-.154,3.1-5.559,3.1-5.559Z" transform="translate(-509.296 -182.357)" fill="#263238"/>
      <path id="Path_36523" data-name="Path 36523" d="M561.6,194.663c-.217.084-10.845,4.4-10.845,4.4s1.42,13.707,1.42,13.931.647,4.824.647,4.824l26.4-.5-1.445-14.036,2.033-5.314L569.75,194.25Z" transform="translate(-526.565 -173.361)" fill="#263238"/>
      <path id="Path_36524" data-name="Path 36524" d="M572.77,261.029a24.225,24.225,0,0,1,4.139-2.778,48.628,48.628,0,0,1,4.835-1.312c.833-.143,4.59-.619,4.59-.619a1.968,1.968,0,0,1,1.91,1.966,2.277,2.277,0,0,1-1.84,2.183s-1.949.035-2.054.073a2.706,2.706,0,0,1-1.809.728,11.711,11.711,0,0,1-2.365-.7,26.09,26.09,0,0,1-2.536,1.018,4.148,4.148,0,0,1-1.6-.29,1.847,1.847,0,0,1-1.21.493.833.833,0,0,1-.7-.35S573.144,261.456,572.77,261.029Z" transform="translate(-540.882 -213.716)" fill="#ffbf9d"/>
      <path id="Path_36525" data-name="Path 36525" d="M607.52,222.8a7.256,7.256,0,0,1,1.777-1.151c.612-.161,5.3-.371,5.3-.371l1.627-1.011-.875-2.575-1.011-6.759,2.4-6.059a8.16,8.16,0,0,1,2.764,2.246c.815,1.277,6.3,12.72,6.353,14.424s-1.581,4.9-1.581,4.9-16.443,1.1-16.443.871S607.52,222.8,607.52,222.8Z" transform="translate(-563.474 -180.265)" fill="#263238"/>
      <path id="Path_36526" data-name="Path 36526" d="M633.18,238.426a3.966,3.966,0,0,1,.455-.889,10.468,10.468,0,0,1,1.5-1.889,10.065,10.065,0,0,1,1.9-1.49,3.77,3.77,0,0,1,.892-.448,8.853,8.853,0,0,1-.822.556,12.455,12.455,0,0,0-1.837,1.511,13.3,13.3,0,0,0-1.522,1.83A8.353,8.353,0,0,1,633.18,238.426Z" transform="translate(-580.157 -199.016)" fill="#455a64"/>
      <path id="Path_36527" data-name="Path 36527" d="M627.58,229.21a3.249,3.249,0,0,1,.154.521l.35,1.441c.3,1.217.7,2.9,1.12,4.768a.608.608,0,0,0,.039.157l-.112-.066a5.146,5.146,0,0,1,5.521,2.2,3.081,3.081,0,0,1,.2.35.537.537,0,0,1,.056.126,7.311,7.311,0,0,0-1.294-1.462,5.16,5.16,0,0,0-1.861-.976,5.066,5.066,0,0,0-2.564-.045l-.091.021-.021-.091-.039-.161c-.427-1.861-.8-3.554-1.049-4.779l-.3-1.452A2.733,2.733,0,0,1,627.58,229.21Z" transform="translate(-576.516 -196.09)" fill="#455a64"/>
      <path id="Path_36528" data-name="Path 36528" d="M550.93,208.56a.589.589,0,0,1,.094.112l.248.35.917,1.319c.794,1.154,1.907,2.8,3.236,4.719l-.066-.035h7.322l10.765.028,3.261.028.889.018a2.1,2.1,0,0,1,.308,0,1.606,1.606,0,0,1-.308.017l-.889.017-3.261.031-10.765.024h-7.368l-.021-.035-3.18-4.758-.882-1.333-.227-.35A.626.626,0,0,1,550.93,208.56Z" transform="translate(-526.682 -182.664)" fill="#455a64"/>
      <path id="Path_36529" data-name="Path 36529" d="M552.49,217.856a2.029,2.029,0,0,1,.493-.906,2.078,2.078,0,0,1,.766-.7,5.11,5.11,0,0,1-.623.8A5.428,5.428,0,0,1,552.49,217.856Z" transform="translate(-527.696 -187.664)" fill="#455a64"/>
      <path id="Path_36530" data-name="Path 36530" d="M550.46,215.269a1.452,1.452,0,0,1,.472-.987,1.424,1.424,0,0,1,.948-.542,7.968,7.968,0,0,0-.815.665C550.67,214.828,550.512,215.286,550.46,215.269Z" transform="translate(-526.377 -186.032)" fill="#455a64"/>
      <path id="Path_36531" data-name="Path 36531" d="M538.15,244.927a.624.624,0,0,1,.1-.045,2.263,2.263,0,0,1,.315-.087,4.352,4.352,0,0,1,1.21-.084,4.717,4.717,0,0,1,1.749.465,4.855,4.855,0,0,1,1.749,1.424l-.056-.035c.245.046.493.1.752.161,1.749.4,3.3.787,4.436,1.071l1.343.35a2.722,2.722,0,0,1,.486.14,2.645,2.645,0,0,1-.5-.07c-.322-.063-.784-.157-1.354-.283l-4.429-1.029c-.255-.059-.507-.119-.742-.161h-.035l-.021-.028a4.821,4.821,0,0,0-1.686-1.4,4.9,4.9,0,0,0-1.7-.49A6.3,6.3,0,0,0,538.15,244.927Z" transform="translate(-518.373 -206.16)" fill="#455a64"/>
      <path id="Path_36532" data-name="Path 36532" d="M569.331,236.64c-.049,0-.091-1.959-.091-4.377s.042-4.373.091-4.373.091,1.959.091,4.373S569.38,236.64,569.331,236.64Z" transform="translate(-538.586 -195.232)" fill="#455a64"/>
      <path id="Path_36533" data-name="Path 36533" d="M595.521,236.036c-.052,0-.091-1.907-.091-4.261s.039-4.265.091-4.265.108,1.921.108,4.265S595.57,236.036,595.521,236.036Z" transform="translate(-555.614 -194.985)" fill="#455a64"/>
      <path id="Path_36534" data-name="Path 36534" d="M612.411,236.825c-.049,0-.091-1.858-.091-4.153s.042-4.153.091-4.153.094,1.861.094,4.153S612.463,236.825,612.411,236.825Z" transform="translate(-566.595 -195.641)" fill="#455a64"/>
      <path id="Path_36535" data-name="Path 36535" d="M633.224,216.5c-.045.031-.311-.29-.7-.6s-.773-.493-.756-.542a1.494,1.494,0,0,1,.868.4,1.539,1.539,0,0,1,.588.745Z" transform="translate(-579.24 -187.085)" fill="#455a64"/>
      <path id="Path_36536" data-name="Path 36536" d="M635.086,213.216c-.042.035-.385-.35-.906-.668s-1.011-.465-1-.518a1.865,1.865,0,0,1,1.095.35A1.91,1.91,0,0,1,635.086,213.216Z" transform="translate(-580.157 -184.92)" fill="#455a64"/>
      <path id="Path_36537" data-name="Path 36537" d="M581.031,194.858a4.891,4.891,0,0,0-.35,2.683c.22,2.036,5.059,6.832,5.059,6.832s3.365-5.248,3.719-6.647a6.624,6.624,0,0,0-.259-3.177Z" transform="translate(-546.001 -173.556)" fill="#fff"/>
      <path id="Path_36538" data-name="Path 36538" d="M590.635,209.972l1.5-.042.721.959-.91,1.462.626.738-.808,1.284c-.35-.35-.749-.756-1.165-1.21l.595-.766-1.291-1.529Z" transform="translate(-552.019 -183.555)" fill="#f8951d"/>
      <path id="Path_36539" data-name="Path 36539" d="M592.263,210.734a4.513,4.513,0,0,1-.595-.665l-.609-.752a2.448,2.448,0,0,0-.35-.413.864.864,0,0,0-.511-.182.665.665,0,0,0-.486.21c-.14.129-.266.273-.388.406l-.626.731a5.193,5.193,0,0,1-.6.665,3.692,3.692,0,0,1,.5-.745c.164-.22.35-.479.6-.759a5.429,5.429,0,0,1,.392-.427.833.833,0,0,1,.609-.262,1.008,1.008,0,0,1,.619.224,2.558,2.558,0,0,1,.385.448l.577.777A4.521,4.521,0,0,1,592.263,210.734Z" transform="translate(-550.848 -182.651)" fill="#263238"/>
      <path id="Path_36540" data-name="Path 36540" d="M565.859,250.816l2.886-.948a36.947,36.947,0,0,1,3.341-2.036c.385-.073,3.754.836,4.24,1.49s1.914,2.62,1.914,2.62.1.766-.591.511c0,0-.175.763-.868.763a1.749,1.749,0,0,1-1.049-.28s.1.644-.451.682a20.045,20.045,0,0,1-3.229-.885h-.976a17.759,17.759,0,0,1-2.855,1.886c-.455.038-3.894,0-3.894,0s-.7-.238-.14-1.7a4.4,4.4,0,0,1,1.672-2.1Z" transform="translate(-535.16 -208.195)" fill="#ffbf9d"/>
      <path id="Path_36541" data-name="Path 36541" d="M583.933,252.1a.993.993,0,0,1,.154.168l.4.5,1.4,1.823h0v.021a.581.581,0,0,1-.665.644l.1-.094a.623.623,0,0,1-.2.563.836.836,0,0,1-.577.21c-.42,0-.8-.2-1.179-.189l.049-.161a.49.49,0,0,1,0,.728.808.808,0,0,1-.724.161c-1.05-.283-2.012-.588-2.9-.85a2.491,2.491,0,0,0-.64-.133,1.074,1.074,0,0,0-.57.154,8.657,8.657,0,0,0-.9.7,7.279,7.279,0,0,1-1.427.871c-.178.08-.322.136-.416.171a.407.407,0,0,1-.154.042c0-.007.2-.1.539-.28a8.2,8.2,0,0,0,1.378-.906,8.4,8.4,0,0,1,.9-.721,1.266,1.266,0,0,1,.647-.182,2.645,2.645,0,0,1,.7.133c.889.252,1.875.556,2.89.833a.623.623,0,0,0,.567-.115.315.315,0,0,0,0-.455l-.21-.157h.262c.451,0,.822.2,1.182.2a.654.654,0,0,0,.469-.157.458.458,0,0,0,.157-.409l-.024-.126.122.031a.43.43,0,0,0,.483-.465v.031l-1.361-1.861c-.147-.206-.266-.381-.35-.521a.72.72,0,0,1-.091-.192Z" transform="translate(-542.767 -210.972)" fill="#ff9a6c"/>
      <path id="Path_36542" data-name="Path 36542" d="M592.29,252.55a1.851,1.851,0,0,1,.7.129,4.813,4.813,0,0,1,1.5.8,5.111,5.111,0,0,1,1.148,1.266,1.783,1.783,0,0,1,.3.637,8.3,8.3,0,0,0-1.56-1.749,7.718,7.718,0,0,0-2.092-1.085Z" transform="translate(-553.572 -211.264)" fill="#ff9a6c"/>
      <path id="Path_36543" data-name="Path 36543" d="M587.6,256.074a1.179,1.179,0,0,1,.616,0,3.526,3.526,0,0,1,1.354.616,6.517,6.517,0,0,1,1.085,1.011,1.8,1.8,0,0,1,.35.49,2.372,2.372,0,0,1-.458-.4,9.8,9.8,0,0,0-1.095-.952,4.167,4.167,0,0,0-1.28-.637C587.831,256.112,587.6,256.1,587.6,256.074Z" transform="translate(-550.523 -213.529)" fill="#ff9a6c"/>
      <path id="Path_36544" data-name="Path 36544" d="M552.67,237.485a.86.86,0,0,1,.052-.29c.045-.182.126-.444.241-.763a25.065,25.065,0,0,1,1.05-2.428c.451-.934.826-1.774,1.081-2.4s.385-1.015.413-1.008a.852.852,0,0,1-.052.29,7.881,7.881,0,0,1-.241.763c-.224.64-.6,1.5-1.032,2.428s-.826,1.774-1.081,2.4A8.3,8.3,0,0,1,552.67,237.485Z" transform="translate(-527.813 -196.994)" fill="#455a64"/>
      <path id="Path_36545" data-name="Path 36545" d="M616.38,248.92a1.091,1.091,0,0,1-.28.22,4.132,4.132,0,0,1-.892.406,6.462,6.462,0,0,1-1.424.276c-.542.052-1.137.059-1.749.077a10.869,10.869,0,0,0-1.749.164,5.139,5.139,0,0,0-1.336.458,4.83,4.83,0,0,0-1.049.78.976.976,0,0,1,.213-.287,3.148,3.148,0,0,1,.77-.609,4.809,4.809,0,0,1,1.361-.507,9.815,9.815,0,0,1,1.749-.182,15.381,15.381,0,0,0,1.749-.063,7.28,7.28,0,0,0,1.4-.231A7,7,0,0,0,616.38,248.92Z" transform="translate(-563.721 -208.905)" fill="#455a64"/>
      <path id="Path_36546" data-name="Path 36546" d="M625.835,212.969c-.046,0,.525-1.721,1.277-3.806s1.4-3.761,1.445-3.743-.521,1.721-1.273,3.806S625.891,212.969,625.835,212.969Z" transform="translate(-575.38 -180.623)" fill="#455a64"/>
      <path id="Path_36547" data-name="Path 36547" d="M583.639,140.442a9.645,9.645,0,0,0-7.294-4.048,10.423,10.423,0,0,0-3.642.493,5.377,5.377,0,0,0-3.149,1.882,8.961,8.961,0,0,0-1.935,4.013,12.8,12.8,0,0,0,.049,4.279,16.95,16.95,0,0,0,2.082,5.136l2.585.43a24.143,24.143,0,0,0,6.472-.059,8.34,8.34,0,0,0,5.433-3.233C585.909,146.841,585.437,142.842,583.639,140.442Z" transform="translate(-537.431 -135.733)" fill="#263238"/>
      <path id="Path_36548" data-name="Path 36548" d="M581.315,143.165l-5.122-2.305-1.368.1c-3.068-.126-5.332,3.149-5.465,5.643a44.462,44.462,0,0,0,.133,8.183,5.305,5.305,0,0,0,4.174,4.621l-.112,1.224,4.454,3.8,3.743-4.317.882-15.484A1.452,1.452,0,0,0,581.315,143.165Z" transform="translate(-538.588 -138.649)" fill="#ffbf9d"/>
      <path id="Path_36549" data-name="Path 36549" d="M584.152,177.229a.857.857,0,0,0-.276-.549.882.882,0,0,0-1.074-.108,1.189,1.189,0,0,0-.5,1.1h0a1.088,1.088,0,0,0,.756.483.958.958,0,0,0,.143,0,.969.969,0,0,0,.668-.231A.854.854,0,0,0,584.152,177.229Z" transform="translate(-547.072 -161.78)" fill="#ff9a6c"/>
      <path id="Path_36550" data-name="Path 36550" d="M574.85,166.02a.528.528,0,0,0,.514.532.5.5,0,0,0,.542-.483.532.532,0,0,0-.514-.532.5.5,0,0,0-.542.483Z" transform="translate(-542.234 -154.692)" fill="#263238"/>
      <path id="Path_36551" data-name="Path 36551" d="M572.067,160.27c.067.066.465-.234,1.05-.238s.99.276,1.05.206-.039-.157-.224-.287a1.462,1.462,0,0,0-.843-.252,1.4,1.4,0,0,0-.822.276C572.091,160.113,572.039,160.238,572.067,160.27Z" transform="translate(-540.42 -150.897)" fill="#263238"/>
      <path id="Path_36552" data-name="Path 36552" d="M579.305,165.714a3.982,3.982,0,0,0-.927-.157c-.147,0-.283-.038-.311-.14a.728.728,0,0,1,.094-.43l.42-1.116a19.43,19.43,0,0,0,.938-2.911,19.383,19.383,0,0,0-1.172,2.83c-.14.388-.273.763-.4,1.12a.818.818,0,0,0-.07.57.35.35,0,0,0,.241.213.967.967,0,0,0,.248.031A3.52,3.52,0,0,0,579.305,165.714Z" transform="translate(-544.187 -151.717)" fill="#263238"/>
      <path id="Path_36553" data-name="Path 36553" d="M581.733,191.012a10.538,10.538,0,0,0,5.524-1.532s-1.466,2.869-5.6,2.526Z" transform="translate(-546.661 -170.259)" fill="#ff9a6c"/>
      <path id="Path_36554" data-name="Path 36554" d="M571.828,155.376c.1.14.532.042,1.05.077s.938.168,1.05.042c.052-.063,0-.2-.185-.35a1.546,1.546,0,0,0-.829-.283,1.5,1.5,0,0,0-.854.189C571.856,155.18,571.786,155.309,571.828,155.376Z" transform="translate(-540.262 -147.749)" fill="#263238"/>
      <path id="Path_36555" data-name="Path 36555" d="M590.237,166.082a.528.528,0,0,1-.525.521.507.507,0,0,1-.532-.493.528.528,0,0,1,.525-.521.507.507,0,0,1,.532.493Z" transform="translate(-551.551 -154.726)" fill="#263238"/>
      <path id="Path_36556" data-name="Path 36556" d="M590.189,160.593c-.066.066-.462-.241-1.049-.255s-.994.262-1.05.189.038-.154.224-.283a1.48,1.48,0,0,1,.85-.234,1.4,1.4,0,0,1,.819.287C590.168,160.435,590.224,160.565,590.189,160.593Z" transform="translate(-550.832 -151.098)" fill="#263238"/>
      <path id="Path_36557" data-name="Path 36557" d="M587.68,154.878c-.112.129-.553,0-1.081-.021s-.976.077-1.081-.059c-.042-.066.028-.2.227-.315a1.634,1.634,0,0,1,.882-.206,1.669,1.669,0,0,1,.861.269C587.673,154.692,587.733,154.825,587.68,154.878Z" transform="translate(-549.162 -147.37)" fill="#263238"/>
      <path id="Path_36558" data-name="Path 36558" d="M604.6,169.245c0-.308.35-1.05.651-1.088.812-.136,2.274-.084,2.309,1.977a2.12,2.12,0,0,1-2.8,2.2C604.761,172.257,604.61,170.308,604.6,169.245Z" transform="translate(-561.576 -156.367)" fill="#ffbf9d"/>
      <path id="Path_36559" data-name="Path 36559" d="M607.234,173.029a.737.737,0,0,0,.133.07.5.5,0,0,0,.35,0,1.218,1.218,0,0,0,.542-1.1,1.6,1.6,0,0,0-.147-.7.57.57,0,0,0-.378-.371.248.248,0,0,0-.287.14c-.035.08,0,.136-.031.14s-.063-.045-.042-.164a.311.311,0,0,1,.126-.185.35.35,0,0,1,.269-.073.7.7,0,0,1,.521.427,1.662,1.662,0,0,1,.182.784,1.256,1.256,0,0,1-.7,1.228.511.511,0,0,1-.448-.066C607.238,173.1,607.224,173.036,607.234,173.029Z" transform="translate(-563.287 -158.101)" fill="#ff9a6c"/>
      <path id="Path_36560" data-name="Path 36560" d="M589.577,149.639l-.749.7c-4.611-2.75-9.523-10.569-8.333-10.292a8.977,8.977,0,0,1,4.429-.283c2.274.493,6.574,1.837,6.388,4.548A13.975,13.975,0,0,1,589.577,149.639Z" transform="translate(-545.787 -137.835)" fill="#263238"/>
      <path id="Path_36561" data-name="Path 36561" d="M606.165,135.03c-1.049.7-1.952,2.589-1.455,3.75a3.708,3.708,0,0,0,4.908,3.932,3.561,3.561,0,0,0,1.938-1.637,4.282,4.282,0,0,0,.308-3,4.761,4.761,0,0,0-2.1-3.03A3.5,3.5,0,0,0,606.165,135.03Z" transform="translate(-561.556 -134.54)" fill="#263238"/>
      <path id="Path_36562" data-name="Path 36562" d="M592.874,150.357a2.5,2.5,0,0,1-.521-.2c-.332-.143-.8-.35-1.378-.658a20.226,20.226,0,0,1-4.167-2.8,13.492,13.492,0,0,1-3.1-3.95,9.34,9.34,0,0,1-.584-1.4,2.657,2.657,0,0,1-.14-.542c.042,0,.252.759.857,1.882a14.466,14.466,0,0,0,3.11,3.848,22.643,22.643,0,0,0,4.086,2.827c.56.311,1.022.549,1.34.7A2.852,2.852,0,0,1,592.874,150.357Z" transform="translate(-547.52 -138.616)" fill="#455a64"/>
      <path id="Path_36563" data-name="Path 36563" d="M609.357,147.323c-.038,0-.077-.525-.269-1.343a10.656,10.656,0,0,0-3.331-5.542c-.63-.556-1.078-.84-1.05-.871s.126.049.332.171a6.7,6.7,0,0,1,.822.584,9.712,9.712,0,0,1,3.38,5.626,7.1,7.1,0,0,1,.126,1A1.049,1.049,0,0,1,609.357,147.323Z" transform="translate(-561.645 -137.804)" fill="#455a64"/>
      <path id="Path_36564" data-name="Path 36564" d="M606.391,178.915a1.05,1.05,0,1,1-.341-.734A1.05,1.05,0,0,1,606.391,178.915Z" transform="translate(-561.376 -162.735)" fill="#263238"/>
      <path id="Path_36565" data-name="Path 36565" d="M581.83,177.015c0-.1.672,0,1.217-.521s.563-1.221.658-1.214c.042,0,.108.175.077.472a1.661,1.661,0,0,1-.511,1.018,1.438,1.438,0,0,1-1.015.4C581.977,177.155,581.823,177.061,581.83,177.015Z" transform="translate(-546.771 -161.027)" fill="#263238"/>
      <rect id="Rectangle_5560" data-name="Rectangle 5560" width="73.03" height="4.524" rx="2.262" transform="translate(73.03 50.899) rotate(180)" fill="#f8951d"/>
      <rect id="Rectangle_5561" data-name="Rectangle 5561" width="66.677" height="63.07" transform="translate(68.657 113.969) rotate(180)" fill="#f8951d"/>
      <path id="Path_36566" data-name="Path 36566" d="M515.116,342v-.633c0-.42,0-1.05-.025-1.868-.024-1.648-.052-4.058-.094-7.13-.07-6.164-.171-14.984-.3-25.616v-.077h43.1V341.9h-.08L526.9,342l-8.687.021h-2.27l2.305-.021,8.7-.063,30.786-.182-.08.08V306.788l.091.091H514.812l.077-.077c.091,10.611.164,19.413.217,25.567.024,3.082.042,5.5.052,7.147V341.4A2.969,2.969,0,0,1,515.116,342Z" transform="translate(-503.127 -246.457)" fill="#263238"/>
      <path id="Path_36567" data-name="Path 36567" d="M519.922,343.53v-8.652c0-5.545-.025-13.476-.042-23.041v-.077h39.75v31.86h-.08l-28.666-.042-8.088-.021h.035l8.106-.021,28.614-.042-.081.08V311.882l.091.091h0l-39.638-.059.077-.077c0,9.547-.031,17.461-.042,22.992v8.116A3.72,3.72,0,0,1,519.922,343.53Z" transform="translate(-506.495 -249.76)" fill="#263238"/>
      <path id="Path_36568" data-name="Path 36568" d="M514.87,307.92a3.5,3.5,0,0,1,.945.637,3.655,3.655,0,0,1,.85.791,7.267,7.267,0,0,1-1.777-1.42Z" transform="translate(-503.238 -247.264)" fill="#263238"/>
      <path id="Path_36569" data-name="Path 36569" d="M634.944,306.9a3.676,3.676,0,0,1-.64.945,3.5,3.5,0,0,1-.784.833,3.678,3.678,0,0,1,.64-.945A3.571,3.571,0,0,1,634.944,306.9Z" transform="translate(-580.378 -246.6)" fill="#263238"/>
      <path id="Path_36570" data-name="Path 36570" d="M634.729,404.151a6.7,6.7,0,0,1-1.539-1.581,3.419,3.419,0,0,1,.833.728A3.463,3.463,0,0,1,634.729,404.151Z" transform="translate(-580.164 -308.801)" fill="#263238"/>
      <path id="Path_36571" data-name="Path 36571" d="M515.89,404.347a3.5,3.5,0,0,1,.637-.945,3.751,3.751,0,0,1,.784-.833,3.726,3.726,0,0,1-.64.948A3.628,3.628,0,0,1,515.89,404.347Z" transform="translate(-503.901 -308.801)" fill="#263238"/>
      <path id="Path_36572" data-name="Path 36572" d="M488.09,279.831c0-.049,15.043-.091,33.585-.091s33.585.042,33.585.091-15.043.091-33.585.091S488.09,279.894,488.09,279.831Z" transform="translate(-485.826 -228.942)" fill="#263238"/>
      <path id="Path_36573" data-name="Path 36573" d="M483.576,267.081a1.952,1.952,0,0,0-1.956,1.952v.619a1.952,1.952,0,0,0,1.956,1.952h0l.028,63.067h5.279l.024-67.6Z" transform="translate(-481.62 -220.705)" opacity="0.3"/>
    </g>
    <g id="freepik--character-1--inject-14" transform="translate(32.103 117.764)">
      <path id="Path_36574" data-name="Path 36574" d="M150.427,187.114c.175-.539,5.626-36.832,3.747-39.452-4.079-5.692-38.546-4.6-42.006-.455s3.554,39.907,3.554,39.907Z" transform="translate(-92.898 -139.188)" fill="#f8951d"/>
      <g id="Group_8765" data-name="Group 8765" transform="translate(24.748 7.347)" opacity="0.3">
        <path id="Path_36575" data-name="Path 36575" d="M145.9,168.071q-1.984-8.046-3.974-16.093l-4.443-.248c-.812,3.624,1.767,7.515.507,11.01-.742,2.061-2.638,3.439-4.387,4.758s-3.561,2.876-3.988,5.024a97.579,97.579,0,0,0,13.9-1.154c.966-.175,2.071-.49,2.449-1.4A3.145,3.145,0,0,0,145.9,168.071Z" transform="translate(-129.61 -151.73)"/>
      </g>
      <path id="Path_36576" data-name="Path 36576" d="M197.984,223.226s-1.931-7.795-2.162-7.872,3.589-7.648,4.859-7.252c1.7.525,7.308,12.052,7.994,13.263,2.823,5,1.357,7.375,1.357,7.375l-14.694.661c-.7-.154-3.24-5.559-3.24-5.559Z" transform="translate(-145.49 -181.024)" fill="#263238"/>
      <path id="Path_36577" data-name="Path 36577" d="M148.876,194.864c.227.084,11.223,4.356,11.223,4.356s-1.487,13.707-1.487,13.931-.679,4.824-.679,4.824l-27.638-.5,1.511-14.036-2.127-5.314,10.289-3.631Z" transform="translate(-104.907 -172.183)" fill="#263238"/>
      <path id="Path_36578" data-name="Path 36578" d="M163.52,261.029a25.382,25.382,0,0,0-4.331-2.778,51.583,51.583,0,0,0-5.055-1.312c-.875-.147-4.8-.619-4.8-.619s-2.036.112-2,1.966a2.331,2.331,0,0,0,1.931,2.183s2.036.035,2.145.073a2.9,2.9,0,0,0,1.893.728,12.593,12.593,0,0,0,2.473-.7,28.055,28.055,0,0,0,2.655,1.018,4.533,4.533,0,0,0,1.676-.29,1.952,1.952,0,0,0,1.263.493.871.871,0,0,0,.738-.35S163.132,261.456,163.52,261.029Z" transform="translate(-116.382 -212.383)" fill="#ae7461"/>
      <path id="Path_36579" data-name="Path 36579" d="M121.629,222.8a7.657,7.657,0,0,0-1.861-1.151c-.64-.161-5.538-.371-5.538-.371l-1.707-1.011.917-2.575,1.067-6.759-2.512-6.059a8.471,8.471,0,0,0-2.89,2.246c-.85,1.277-6.595,12.72-6.647,14.424s1.651,4.9,1.651,4.9,17.205,1.1,17.205.871S121.629,222.8,121.629,222.8Z" transform="translate(-87.208 -178.932)" fill="#263238"/>
      <path id="Path_36580" data-name="Path 36580" d="M121.184,238.426a9.313,9.313,0,0,1-.595-.826,12.9,12.9,0,0,0-3.516-3.341,9.135,9.135,0,0,1-.854-.549,4.173,4.173,0,0,1,.92.441,10.589,10.589,0,0,1,1.977,1.48,10.81,10.81,0,0,1,1.581,1.9,3.992,3.992,0,0,1,.486.9Z" transform="translate(-96.156 -197.683)" fill="#455a64"/>
      <path id="Path_36581" data-name="Path 36581" d="M122.045,229.21a2.9,2.9,0,0,1-.094.546c-.084.381-.192.878-.325,1.476-.28,1.245-.682,2.963-1.137,4.856v.052l-.021.087-.087-.018a5.573,5.573,0,0,0-2.659.038,5.394,5.394,0,0,0-1.952.966,7.294,7.294,0,0,0-1.378,1.48.532.532,0,0,1,.059-.129,2.777,2.777,0,0,1,.213-.35,5.355,5.355,0,0,1,1.025-1.106,5.412,5.412,0,0,1,1.991-1.025,5.6,5.6,0,0,1,2.739-.056l-.108.066v-.052c.455-1.893.875-3.607,1.189-4.842.154-.595.28-1.088.378-1.462A3.423,3.423,0,0,1,122.045,229.21Z" transform="translate(-94.967 -194.757)" fill="#455a64"/>
      <path id="Path_36582" data-name="Path 36582" d="M164,208.56a.567.567,0,0,1-.073.126l-.238.35c-.224.322-.535.773-.924,1.343l-3.331,4.758-.024.035h-7.826l-11.185,0-3.387-.031-.92-.017h-.238a.262.262,0,0,1-.084,0h.322l.92-.018,3.387-.028,11.2-.063h7.788l-.066.035,3.383-4.723.959-1.315.259-.35a.592.592,0,0,1,.084-.1Z" transform="translate(-108.867 -181.331)" fill="#455a64"/>
      <path id="Path_36583" data-name="Path 36583" d="M212.382,217.875a5.247,5.247,0,0,1-.665-.794,5.792,5.792,0,0,1-.658-.8A3.128,3.128,0,0,1,212.382,217.875Z" transform="translate(-157.817 -186.35)" fill="#455a64"/>
      <path id="Path_36584" data-name="Path 36584" d="M214.237,215.269a8.7,8.7,0,0,0-.637-.868,8.523,8.523,0,0,0-.85-.661,1.511,1.511,0,0,1,.983.532A1.49,1.49,0,0,1,214.237,215.269Z" transform="translate(-158.916 -184.699)" fill="#455a64"/>
      <path id="Path_36585" data-name="Path 36585" d="M206.311,244.9a6.811,6.811,0,0,0-1.683-.1,5.205,5.205,0,0,0-1.774.483,5.052,5.052,0,0,0-1.788,1.4l-.021.028h-.035c-.252.045-.521.1-.791.164l-4.646,1.015c-.595.126-1.078.22-1.4.283a2.8,2.8,0,0,1-.525.07,3.188,3.188,0,0,1,.511-.14l1.4-.35c1.186-.28,2.82-.668,4.635-1.067.273-.059.539-.119.8-.164l-.056.031a5.055,5.055,0,0,1,1.861-1.431,5.143,5.143,0,0,1,1.833-.455,4.66,4.66,0,0,1,1.252.084c.147.028.255.07.329.087S206.314,244.894,206.311,244.9Z" transform="translate(-146.498 -204.801)" fill="#455a64"/>
      <path id="Path_36586" data-name="Path 36586" d="M196.831,236.64c-.052,0-.091-1.959-.091-4.377s.038-4.373.091-4.373.091,1.959.091,4.373S196.894,236.64,196.831,236.64Z" transform="translate(-148.507 -193.899)" fill="#455a64"/>
      <path id="Path_36587" data-name="Path 36587" d="M169.471,236.036c-.052,0-.091-1.907-.091-4.261s.038-4.265.091-4.265.091,1.91.091,4.265S169.52,236.036,169.471,236.036Z" transform="translate(-130.719 -193.652)" fill="#455a64"/>
      <path id="Path_36588" data-name="Path 36588" d="M151.831,236.825c-.052,0-.091-1.858-.091-4.153s.038-4.153.091-4.153.091,1.861.091,4.153S151.866,236.825,151.831,236.825Z" transform="translate(-119.25 -194.308)" fill="#455a64"/>
      <path id="Path_36589" data-name="Path 36589" d="M127.53,216.5a2.18,2.18,0,0,1,1.532-1.144,8.922,8.922,0,0,1-.791.542C127.855,216.21,127.575,216.539,127.53,216.5Z" transform="translate(-103.51 -185.752)" fill="#455a64"/>
      <path id="Path_36590" data-name="Path 36590" d="M124.71,213.216a2.613,2.613,0,0,1,1.994-1.186c0,.052-.5.189-1.05.518S124.748,213.254,124.71,213.216Z" transform="translate(-101.676 -183.587)" fill="#455a64"/>
      <path id="Path_36591" data-name="Path 36591" d="M167.655,194.89a5.015,5.015,0,0,1,.262,2.638c-.231,2.036-5.3,6.832-5.3,6.832s-3.5-5.248-3.89-6.647a7.524,7.524,0,0,1,.031-3.184Z" transform="translate(-123.687 -172.209)" fill="#fff"/>
      <path id="Path_36592" data-name="Path 36592" d="M169.229,209.972l-1.567-.042-.752.959.952,1.462-.658.752.843,1.284c.374-.35.787-.756,1.221-1.21l-.619-.773,1.35-1.529Z" transform="translate(-129.113 -182.222)" fill="#f8951d"/>
      <path id="Path_36593" data-name="Path 36593" d="M165.11,210.734a4.591,4.591,0,0,1,.525-.749l.605-.78.178-.224a1.151,1.151,0,0,1,.227-.224,1.05,1.05,0,0,1,.637-.217.9.9,0,0,1,.626.252,5.764,5.764,0,0,1,.409.43c.248.28.462.542.637.763a3.813,3.813,0,0,1,.521.749,5.9,5.9,0,0,1-.623-.668l-.658-.731c-.126-.133-.259-.276-.406-.409a.721.721,0,0,0-.507-.2.924.924,0,0,0-.532.178,2.231,2.231,0,0,0-.378.409l-.64.756A4.23,4.23,0,0,1,165.11,210.734Z" transform="translate(-127.942 -181.318)" fill="#263238"/>
      <path id="Path_36594" data-name="Path 36594" d="M173.083,250.816l-3.019-.948a38.662,38.662,0,0,0-3.5-2.036c-.406-.073-3.925.836-4.436,1.49s-2,2.62-2,2.62-.112.766.616.511a.99.99,0,0,0,.91.763,1.879,1.879,0,0,0,1.092-.28s-.108.644.472.682a21.851,21.851,0,0,0,3.383-.885h1.018a18.684,18.684,0,0,0,2.988,1.886c.476.038,4.072,0,4.072,0s.728-.238.147-1.7A4.454,4.454,0,0,0,173.083,250.816Z" transform="translate(-124.7 -206.861)" fill="#ae7461"/>
      <path id="Path_36595" data-name="Path 36595" d="M161.969,252.1a.935.935,0,0,1-.126.192l-.385.521c-.35.469-.84,1.1-1.424,1.861v-.031a.441.441,0,0,0,.507.465l.122-.028-.024.122a.448.448,0,0,0,.175.416.724.724,0,0,0,.493.15c.378,0,.763-.2,1.228-.2h.273l-.224.161a.311.311,0,0,0,.042.472.752.752,0,0,0,.626.084l2.995-.829a2.7,2.7,0,0,1,.7-.126,1.368,1.368,0,0,1,.665.182,8.85,8.85,0,0,1,.952.724,8.687,8.687,0,0,0,1.438.906c.35.182.567.266.563.276s-.056,0-.157-.042-.248-.087-.437-.171a7.635,7.635,0,0,1-1.487-.864,9.38,9.38,0,0,0-.941-.7,1.245,1.245,0,0,0-.595-.154,2.428,2.428,0,0,0-.661.129c-.924.259-1.924.553-3,.843a.92.92,0,0,1-.777-.122.483.483,0,0,1-.035-.759l.049.164c-.4,0-.791.185-1.221.185a.878.878,0,0,1-.6-.2.612.612,0,0,1-.224-.574l.1.094a.595.595,0,0,1-.7-.647v-.017h0l1.473-1.823.416-.5A.906.906,0,0,1,161.969,252.1Z" transform="translate(-124.536 -209.639)" fill="#6f4439"/>
      <path id="Path_36596" data-name="Path 36596" d="M166.1,252.548a8.4,8.4,0,0,0-2.173,1.05,8.285,8.285,0,0,0-1.644,1.77,1.882,1.882,0,0,1,.325-.647,5.154,5.154,0,0,1,2.778-2.061A1.883,1.883,0,0,1,166.1,252.548Z" transform="translate(-126.102 -209.929)" fill="#6f4439"/>
      <path id="Path_36597" data-name="Path 36597" d="M171.449,256.084c0,.028-.238.038-.605.14a4.376,4.376,0,0,0-1.336.63,9.8,9.8,0,0,0-1.154.955,2.333,2.333,0,0,1-.483.406,2.01,2.01,0,0,1,.392-.5,6.61,6.61,0,0,1,1.14-1.015,3.8,3.8,0,0,1,1.4-.605A1.256,1.256,0,0,1,171.449,256.084Z" transform="translate(-129.737 -212.206)" fill="#6f4439"/>
      <path id="Path_36598" data-name="Path 36598" d="M209.163,237.485c-.028,0-.164-.388-.434-1.008s-.672-1.462-1.123-2.393-.847-1.788-1.085-2.428c-.119-.318-.2-.581-.252-.766a1.018,1.018,0,0,1-.059-.29c.028,0,.164.388.434,1.008s.672,1.466,1.123,2.4.847,1.784,1.085,2.424c.119.318.2.581.252.766A1.049,1.049,0,0,1,209.163,237.485Z" transform="translate(-154.664 -195.661)" fill="#455a64"/>
      <path id="Path_36599" data-name="Path 36599" d="M131.49,248.92a7.631,7.631,0,0,0,1.27.5,7.83,7.83,0,0,0,1.459.231c.56.042,1.175.045,1.826.063a10.652,10.652,0,0,1,1.837.178,5.247,5.247,0,0,1,1.427.5,3.32,3.32,0,0,1,.815.609,1.067,1.067,0,0,1,.231.294,5.063,5.063,0,0,0-1.106-.787,5.479,5.479,0,0,0-1.4-.455,11.437,11.437,0,0,0-1.809-.161c-.647-.017-1.27-.024-1.837-.077a7.269,7.269,0,0,1-1.48-.273,4.283,4.283,0,0,1-.934-.409A1.169,1.169,0,0,1,131.49,248.92Z" transform="translate(-106.084 -207.571)" fill="#455a64"/>
      <path id="Path_36600" data-name="Path 36600" d="M132.786,212.969c-.045.017-.721-1.658-1.508-3.743a38.349,38.349,0,0,1-1.336-3.806,39.742,39.742,0,0,1,1.508,3.74C132.237,211.241,132.835,212.941,132.786,212.969Z" transform="translate(-105.075 -179.289)" fill="#455a64"/>
      <path id="Path_36601" data-name="Path 36601" d="M154.776,151.612a29.514,29.514,0,0,1-1.4-4.863,10.261,10.261,0,0,1,.283-5c.084-.241.808-1.868,1.05-1.847.182,0-.252,1.525-.157,1.679a8.7,8.7,0,0,1,1.1,5.038,22.9,22.9,0,0,1-.9,5" transform="translate(-120.194 -136.691)" fill="#263238"/>
      <path id="Path_36602" data-name="Path 36602" d="M158.2,153.933l-.483-13.714c-.238-4.226,1.7-7.99,5.947-8.109h.462a7.5,7.5,0,0,1,7.256,7.116c.185,3.68.35,7.77.259,9.743-.175,4.055-4.254,4.548-4.254,4.548l.021,1.025s-4.457,3.932-4.845,3.95S158.2,153.933,158.2,153.933Z" transform="translate(-123.121 -131.627)" fill="#ae7461"/>
      <path id="Path_36603" data-name="Path 36603" d="M175.6,190.185a9.824,9.824,0,0,1-5.248-1.725s1.2,2.991,5.248,2.75Z" transform="translate(-131.349 -168.263)" fill="#6f4439"/>
      <path id="Path_36604" data-name="Path 36604" d="M189.418,161.761a.581.581,0,0,1-.577.567.553.553,0,0,1-.581-.542.577.577,0,0,1,.574-.567.556.556,0,0,1,.584.542Z" transform="translate(-142.993 -150.552)" fill="#263238"/>
      <path id="Path_36605" data-name="Path 36605" d="M189.479,157.651c-.073.073-.5-.266-1.13-.283s-1.088.283-1.154.2.045-.168.248-.308a1.585,1.585,0,0,1,.931-.255,1.529,1.529,0,0,1,.892.318C189.454,157.48,189.514,157.62,189.479,157.651Z" transform="translate(-142.288 -147.813)" fill="#263238"/>
      <path id="Path_36606" data-name="Path 36606" d="M173.848,161.761a.577.577,0,0,1-.577.567.556.556,0,0,1-.581-.542.584.584,0,0,1,.577-.567.553.553,0,0,1,.581.542Z" transform="translate(-132.871 -150.552)" fill="#263238"/>
      <path id="Path_36607" data-name="Path 36607" d="M173.177,157.7c-.073.073-.5-.262-1.127-.28s-1.092.28-1.154.2.042-.168.248-.308a1.6,1.6,0,0,1,.927-.255,1.525,1.525,0,0,1,.9.322C173.153,157.53,173.216,157.67,173.177,157.7Z" transform="translate(-131.692 -147.846)" fill="#263238"/>
      <path id="Path_36608" data-name="Path 36608" d="M182.459,163.085a4.139,4.139,0,0,1,1.018-.15c.161,0,.315-.038.35-.147a.815.815,0,0,0-.091-.476c-.14-.392-.283-.8-.434-1.228a18.869,18.869,0,0,1-.962-3.2A18.8,18.8,0,0,1,183.557,161c.143.43.283.84.413,1.235a.9.9,0,0,1,.063.626.392.392,0,0,1-.266.224,1.185,1.185,0,0,1-.273.031A4.111,4.111,0,0,1,182.459,163.085Z" transform="translate(-139.137 -148.381)" fill="#263238"/>
      <path id="Path_36609" data-name="Path 36609" d="M172.013,152.329c-.066.168-.7.073-1.42.14s-1.333.255-1.427.1c-.038-.073.066-.231.311-.388a2.382,2.382,0,0,1,1.05-.35,2.34,2.34,0,0,1,1.1.157C171.9,152.112,172.041,152.252,172.013,152.329Z" transform="translate(-130.574 -144.44)" fill="#263238"/>
      <path id="Path_36610" data-name="Path 36610" d="M189.886,151.652c-.119.147-.626.024-1.228.045s-1.1.143-1.228,0c-.052-.07.021-.213.234-.35a1.949,1.949,0,0,1,.99-.28,1.865,1.865,0,0,1,.99.241C189.865,151.438,189.938,151.582,189.886,151.652Z" transform="translate(-142.443 -143.951)" fill="#263238"/>
      <path id="Path_36611" data-name="Path 36611" d="M153.3,163.535c-.07-.035-2.764-.913-2.76,1.865a2.091,2.091,0,0,0,2.8,2.124C153.339,167.443,153.3,163.535,153.3,163.535Z" transform="translate(-118.47 -151.955)" fill="#ae7461"/>
      <path id="Path_36612" data-name="Path 36612" d="M153.685,168.142a.946.946,0,0,1-.129.073.5.5,0,0,1-.35,0,1.2,1.2,0,0,1-.556-1.074,1.634,1.634,0,0,1,.133-.7.556.556,0,0,1,.35-.371.245.245,0,0,1,.287.133c.035.077.017.133.035.136s.059-.045.035-.161a.294.294,0,0,0-.108-.175.378.378,0,0,0-.269-.07.679.679,0,0,0-.5.43,1.69,1.69,0,0,0-.168.777,1.267,1.267,0,0,0,.7,1.2.507.507,0,0,0,.441-.073C153.685,168.212,153.685,168.149,153.685,168.142Z" transform="translate(-119.704 -153.616)" fill="#6f4439"/>
      <path id="Path_36613" data-name="Path 36613" d="M166.841,133.826c.444-.252-.92-1.693-2.029-2.183a9.862,9.862,0,0,0-5.765-.731,6.693,6.693,0,0,0-4.293,3.18,10.933,10.933,0,0,0-1.168,5.6,3.309,3.309,0,0,0,.409,1.693c.392.612,1.141.99,1.12,1.837a1.158,1.158,0,0,0,.294.847c.514.535,1.133.021,1.4-.49a8.132,8.132,0,0,0,.7-3.642,8.046,8.046,0,0,0-.2-2.641c-.14-.462-.35-.9-.476-1.364a1.4,1.4,0,0,1,.406-1.62,2.9,2.9,0,0,1,2.869-.577c1.567.539,4.247,1.336,4.94.8a4.263,4.263,0,0,0,1.231-1.273Z" transform="translate(-120.437 -130.729)" fill="#263238"/>
      <path id="Path_36614" data-name="Path 36614" d="M177.364,174.9c0,.049-.171.1-.451.059a1.952,1.952,0,0,1-.983-.448,2.019,2.019,0,0,1-.619-.892c-.084-.266-.066-.441-.021-.451.1-.024.29.591.875,1.05S177.367,174.8,177.364,174.9Z" transform="translate(-134.536 -158.321)" fill="#263238"/>
      <path id="Path_36615" data-name="Path 36615" d="M153.252,151.987l4,1.217.042-1.942L153.3,149.72A10.354,10.354,0,0,0,153.252,151.987Z" transform="translate(-120.199 -143.076)" fill="#e0e0e0"/>
      <path id="Path_36616" data-name="Path 36616" d="M170.785,165.024c0-.017.15-.017.406-.08a1.973,1.973,0,0,0,1.361-1.165c.024-.063.045-.129.066-.2a1.1,1.1,0,0,0,.038-.185.108.108,0,0,0-.08-.091h-4.069a.1.1,0,0,0-.073.1,1.952,1.952,0,0,0,.35.77,1.931,1.931,0,0,0,.549.511,2.043,2.043,0,0,0,1.05.3,1.725,1.725,0,0,1,.416.035,1.725,1.725,0,0,1-.416.035,1.987,1.987,0,0,1-1.116-.262,2.026,2.026,0,0,1-.987-1.4.269.269,0,0,1,.2-.262.561.561,0,0,1,.143,0h3.757a1.7,1.7,0,0,1,.255,0,.269.269,0,0,1,.2.231,1.428,1.428,0,0,1-.129.455A2,2,0,0,1,171.219,165a1.4,1.4,0,0,1-.311.024C170.823,165.034,170.785,165.031,170.785,165.024Z" transform="translate(-130.003 -151.792)" fill="#263238"/>
      <path id="Path_36617" data-name="Path 36617" d="M187.6,165.03c0-.018.15-.018.406-.08a2,2,0,0,0,.945-.539,1.913,1.913,0,0,0,.413-.623,1.859,1.859,0,0,0,.07-.2,1.1,1.1,0,0,0,.038-.185.108.108,0,0,0-.08-.091h-4.069a.1.1,0,0,0-.073.1,1.9,1.9,0,0,0,.35.77,1.931,1.931,0,0,0,.549.511,2.043,2.043,0,0,0,1.05.3,1.725,1.725,0,0,1,.416.035,1.725,1.725,0,0,1-.416.035,1.987,1.987,0,0,1-1.116-.262,2.026,2.026,0,0,1-.987-1.4.269.269,0,0,1,.2-.262.559.559,0,0,1,.143,0H189.2a1.641,1.641,0,0,1,.252,0,.269.269,0,0,1,.2.231,1.427,1.427,0,0,1-.129.455,2.1,2.1,0,0,1-.462.661,1.966,1.966,0,0,1-1.022.518,1.4,1.4,0,0,1-.311.024C187.64,165.041,187.6,165.037,187.6,165.03Z" transform="translate(-140.939 -151.799)" fill="#263238"/>
      <path id="Path_36618" data-name="Path 36618" d="M182.576,162.986a1.543,1.543,0,0,0-1.651,0c-.017,0,.038-.112.182-.213a1.109,1.109,0,0,1,.647-.2,1.14,1.14,0,0,1,.644.21C182.541,162.874,182.593,162.972,182.576,162.986Z" transform="translate(-138.222 -151.431)" fill="#263238"/>
      <path id="Path_36619" data-name="Path 36619" d="M174.875,165.444c-.031-.042.213-.294.549-.567s.633-.465.665-.427-.213.294-.549.567S174.917,165.483,174.875,165.444Z" transform="translate(-134.289 -152.65)" fill="#fff"/>
      <path id="Path_36620" data-name="Path 36620" d="M174.291,165.627c-.035-.035.024-.154.133-.262s.227-.168.262-.133-.024.154-.133.262S174.326,165.662,174.291,165.627Z" transform="translate(-133.905 -153.154)" fill="#fff"/>
      <path id="Path_36621" data-name="Path 36621" d="M155.88,163.168a13.752,13.752,0,0,1,2.208-.038,13.092,13.092,0,0,1,2.208.143,13.785,13.785,0,0,1-2.211.038A13.029,13.029,0,0,1,155.88,163.168Z" transform="translate(-121.941 -151.777)" fill="#263238"/>
      <rect id="Rectangle_5562" data-name="Rectangle 5562" width="73.03" height="4.524" rx="2.262" transform="translate(0 47.709)" fill="#f8951d"/>
      <rect id="Rectangle_5563" data-name="Rectangle 5563" width="66.677" height="63.07" transform="translate(4.373 52.232)" fill="#f8951d"/>
      <path id="Path_36622" data-name="Path 36622" d="M253.548,267.1H249v67.59h4.548V271.613h0a1.952,1.952,0,0,0,1.952-1.952v-.619a1.952,1.952,0,0,0-1.952-1.942Z" transform="translate(-182.484 -219.391)" opacity="0.3"/>
      <path id="Path_36623" data-name="Path 36623" d="M154.119,341.919v-2.533c0-1.651.031-4.065.052-7.147.052-6.154.129-14.956.217-25.567l.077.077h-42.93l.091-.091V341.71l-.08-.08,30.786.182,8.7.063,2.305.021h-2.271l-8.683-.021-30.825-.1h-.08V306.55h43.1v.077c-.122,10.632-.227,19.451-.3,25.616-.038,3.072-.07,5.482-.091,7.13,0,.815-.021,1.441-.028,1.868A6.2,6.2,0,0,1,154.119,341.919Z" transform="translate(-93.075 -245.04)" fill="#263238"/>
      <path id="Path_36624" data-name="Path 36624" d="M155.569,343.406v-2.277c0-1.483,0-3.656-.017-6.423,0-5.531-.024-13.445-.038-22.992l.073.077H115.973l.091-.091v31.693l-.084-.08,28.614.042,8.109.021h.035l-8.092.021-28.666.042h-.08V311.57h39.784v.15c0,9.565-.031,17.492-.038,23.041,0,2.76-.017,4.926-.021,6.406v1.679A2.049,2.049,0,0,1,155.569,343.406Z" transform="translate(-95.948 -248.303)" fill="#263238"/>
      <path id="Path_36625" data-name="Path 36625" d="M231.067,307.92a3.628,3.628,0,0,1-.829.78,3.726,3.726,0,0,1-.948.64,3.75,3.75,0,0,1,.833-.784A3.5,3.5,0,0,1,231.067,307.92Z" transform="translate(-169.669 -245.93)" fill="#263238"/>
      <path id="Path_36626" data-name="Path 36626" d="M111.66,306.9a3.6,3.6,0,0,1,.78.833,3.677,3.677,0,0,1,.64.945,3.656,3.656,0,0,1-.784-.833A3.5,3.5,0,0,1,111.66,306.9Z" transform="translate(-93.192 -245.267)" fill="#263238"/>
      <path id="Path_36627" data-name="Path 36627" d="M111.66,404.151a3.307,3.307,0,0,1,.7-.854,3.419,3.419,0,0,1,.833-.728,3.243,3.243,0,0,1-.7.854,3.418,3.418,0,0,1-.833.728Z" transform="translate(-93.192 -307.467)" fill="#263238"/>
      <path id="Path_36628" data-name="Path 36628" d="M230.714,404.347a3.5,3.5,0,0,1-.784-.829,3.726,3.726,0,0,1-.64-.948,3.576,3.576,0,0,1,.784.833A3.677,3.677,0,0,1,230.714,404.347Z" transform="translate(-169.669 -307.467)" fill="#263238"/>
      <path id="Path_36629" data-name="Path 36629" d="M136.32,279.831c0,.052-15.043.091-33.585.091s-33.585-.038-33.585-.091,15.043-.091,33.585-.091S136.32,279.792,136.32,279.831Z" transform="translate(-65.554 -227.609)" fill="#263238"/>
    </g>
    <g id="freepik--character-2--inject-14" transform="translate(99.984 110.788)">
      <path id="Path_36630" data-name="Path 36630" d="M320.562,170.3c-.192-.584-6.066-39.708-4.041-42.534,4.4-6.133,41.555-4.961,45.284-.49s-3.848,43.031-3.848,43.031Z" transform="translate(-293.988 -119.08)" fill="#f8951d"/>
      <g id="Group_8766" data-name="Group 8766" transform="translate(44.934 5.217)" opacity="0.3">
        <path id="Path_36631" data-name="Path 36631" d="M396.9,145.046c-1.242-.878-2.732-1.532-3.526-2.83a6.757,6.757,0,0,1-.7-3.561,46.576,46.576,0,0,0,.077-7.088c-.311-2.344-1.42-4.751-3.5-5.867l-7.917,24.678a39.411,39.411,0,0,1,19.882,4.051,10.516,10.516,0,0,0-4.317-9.383Z" transform="translate(-381.34 -125.7)"/>
      </g>
      <path id="Path_36632" data-name="Path 36632" d="M319.467,209.257s2.082-8.4,2.33-8.487-3.859-8.239-5.237-7.8c-1.837.567-7.882,12.993-8.62,14.3-3.044,5.391-1.462,7.949-1.462,7.949l15.82.7c.749-.168,3.5-5.993,3.5-5.993Z" transform="translate(-287.466 -164.207)" fill="#263238"/>
      <path id="Path_36633" data-name="Path 36633" d="M348.158,178.656c-.245.091-12.1,4.695-12.1,4.695s1.6,14.774,1.6,15.015.731,5.2.731,5.2l29.779-.546-1.63-15.127,2.292-5.727-11.1-3.918Z" transform="translate(-306.967 -154.649)" fill="#263238"/>
      <path id="Path_36634" data-name="Path 36634" d="M360.87,250.009a27.424,27.424,0,0,1,4.667-2.991,56.242,56.242,0,0,1,5.451-1.4c.941-.157,5.178-.668,5.178-.668s2.2.119,2.159,2.12a2.506,2.506,0,0,1-2.082,2.351s-2.194.038-2.312.08a3.129,3.129,0,0,1-2.04.784,13.773,13.773,0,0,1-2.666-.745s-2.277.98-2.865,1.1a4.884,4.884,0,0,1-1.8-.315,2.137,2.137,0,0,1-1.364.532.948.948,0,0,1-.8-.374A2.717,2.717,0,0,1,360.87,250.009Z" transform="translate(-323.097 -198.014)" fill="#ffbf9d"/>
      <path id="Path_36635" data-name="Path 36635" d="M400.06,208.772a8.2,8.2,0,0,1,2-1.238c.689-.171,5.972-.4,5.972-.4l1.837-1.092-.987-2.774-1.151-7.287,2.708-6.532a9.2,9.2,0,0,1,3.117,2.421c.917,1.371,7.109,13.71,7.168,15.547s-1.781,5.283-1.781,5.283-18.542,1.182-18.542.938S400.06,208.772,400.06,208.772Z" transform="translate(-348.577 -161.93)" fill="#263238"/>
      <path id="Path_36636" data-name="Path 36636" d="M429,225.608a.963.963,0,0,1,.119-.269c.087-.171.224-.409.409-.7a11.662,11.662,0,0,1,1.707-2.04,11.544,11.544,0,0,1,2.127-1.6,7.486,7.486,0,0,1,.7-.374c.171-.077.273-.115.276-.1s-.35.22-.924.584a13.682,13.682,0,0,0-3.792,3.6,10.423,10.423,0,0,1-.623.9Z" transform="translate(-367.392 -182.132)" fill="#455a64"/>
      <path id="Path_36637" data-name="Path 36637" d="M422.68,215.68a3.631,3.631,0,0,1,.175.574c.1.4.241.934.409,1.578.35,1.333.787,3.177,1.277,5.22v.056l-.108-.066a6.07,6.07,0,0,1,2.953.059,5.843,5.843,0,0,1,2.141,1.1,5.779,5.779,0,0,1,1.106,1.189c.108.157.185.287.234.374s.07.136.063.14-.122-.171-.35-.472a6.165,6.165,0,0,0-1.13-1.13,5.9,5.9,0,0,0-2.1-1.05,5.979,5.979,0,0,0-2.865-.042l-.087.021-.025-.087v-.059c-.49-2.04-.924-3.89-1.228-5.248-.143-.647-.262-1.186-.35-1.592A4.4,4.4,0,0,1,422.68,215.68Z" transform="translate(-363.283 -178.984)" fill="#455a64"/>
      <path id="Path_36638" data-name="Path 36638" d="M336.23,193.42a.714.714,0,0,1,.1.122l.276.371,1.032,1.42c.889,1.245,2.145,3,3.645,5.094l-.063-.035h8.4l12.045.028,3.652.028.994.018h.259a.3.3,0,0,1,.087,0h-.346l-.994.018-3.652.031-12.045.025h-8.438l-.025-.035-3.593-5.129c-.42-.616-.756-1.1-1-1.448l-.255-.385A.678.678,0,0,1,336.23,193.42Z" transform="translate(-307.077 -164.511)" fill="#455a64"/>
      <path id="Path_36639" data-name="Path 36639" d="M338,203.468a2.326,2.326,0,0,1,.567-.976,2.382,2.382,0,0,1,.854-.742,89.22,89.22,0,0,1-1.42,1.718Z" transform="translate(-308.228 -169.927)" fill="#455a64"/>
      <path id="Path_36640" data-name="Path 36640" d="M335.7,200.648a1.63,1.63,0,0,1,.549-1.067A1.676,1.676,0,0,1,337.3,199a9.158,9.158,0,0,0-.92.7A8.354,8.354,0,0,0,335.7,200.648Z" transform="translate(-306.733 -168.139)" fill="#455a64"/>
      <path id="Path_36641" data-name="Path 36641" d="M321.81,232.63a.7.7,0,0,1,.119-.045,3.311,3.311,0,0,1,.35-.094,5.044,5.044,0,0,1,1.35-.091,5.563,5.563,0,0,1,1.977.493,5.426,5.426,0,0,1,2,1.543l-.056-.035c.283.052.57.115.864.178,1.956.43,3.719.847,5,1.151l1.508.35a4.868,4.868,0,0,1,.553.147,2.664,2.664,0,0,1-.567-.077c-.35-.066-.882-.171-1.522-.3l-5.006-1.1c-.294-.063-.584-.129-.854-.178h-.035l-.021-.025a5.374,5.374,0,0,0-1.931-1.508,5.573,5.573,0,0,0-1.914-.518A7.287,7.287,0,0,0,321.81,232.63Z" transform="translate(-297.702 -189.846)" fill="#455a64"/>
      <path id="Path_36642" data-name="Path 36642" d="M357,223.688c-.052,0-.094-2.1-.094-4.712s.042-4.716.094-4.716.091,2.1.091,4.716S357.053,223.688,357,223.688Z" transform="translate(-320.523 -178.061)" fill="#455a64"/>
      <path id="Path_36643" data-name="Path 36643" d="M386.541,223.044c-.049,0-.091-2.061-.091-4.6s.042-4.6.091-4.6.091,2.057.091,4.6S386.593,223.044,386.541,223.044Z" transform="translate(-339.728 -177.794)" fill="#455a64"/>
      <path id="Path_36644" data-name="Path 36644" d="M405.6,223.893c-.049,0-.091-2-.091-4.475s.042-4.478.091-4.478.091,2,.091,4.478S405.653,223.893,405.6,223.893Z" transform="translate(-352.12 -178.503)" fill="#455a64"/>
      <path id="Path_36645" data-name="Path 36645" d="M429.03,201.985c-.042.031-.35-.322-.794-.658s-.875-.525-.857-.577a1.749,1.749,0,0,1,.966.434A1.725,1.725,0,0,1,429.03,201.985Z" transform="translate(-366.338 -169.277)" fill="#455a64"/>
      <path id="Path_36646" data-name="Path 36646" d="M431.151,198.44c-.042.035-.43-.381-1.022-.728s-1.141-.5-1.13-.553a2.893,2.893,0,0,1,2.152,1.28Z" transform="translate(-367.392 -166.943)" fill="#455a64"/>
      <path id="Path_36647" data-name="Path 36647" d="M370.025,178.656a5.346,5.346,0,0,0-.283,2.844c.248,2.194,5.71,7.364,5.71,7.364s3.792-5.65,4.2-7.182a8.407,8.407,0,0,0-.031-3.432Z" transform="translate(-328.834 -154.649)" fill="#fff"/>
      <path id="Path_36648" data-name="Path 36648" d="M380.94,194.915l1.693-.045.808,1.032-1.025,1.578.7.794-.91,1.4c-.406-.367-.85-.815-1.315-1.308l.668-.826L380.1,195.9Z" transform="translate(-335.6 -165.454)" fill="#f8951d"/>
      <path id="Path_36649" data-name="Path 36649" d="M363.574,113.888a3.834,3.834,0,0,0-2.666-2.771,4.587,4.587,0,0,0-4.2.406,9.192,9.192,0,0,1-2.449,1.627c-1.56.43-3.275-.826-4.782-.238a2.1,2.1,0,0,0,.728,4.03,1.853,1.853,0,0,0-.9,2.624,2.784,2.784,0,0,0,2.75,1.21,5.842,5.842,0,0,0,2.837-1.357c.836-.658,1.6-1.4,2.477-2a4.482,4.482,0,0,1,2.991-.882,4.191,4.191,0,0,1,3.149,2.655,10.578,10.578,0,0,1,.595,4.244,17.581,17.581,0,0,0,.252,4.293c.038.164.1.35.259.409.231.087.444-.147.574-.35a21.169,21.169,0,0,0,2.914-7.672,6.543,6.543,0,0,0-.462-4.475c-.784-1.392-2.928-2.522-4.065-1.749" transform="translate(-314.858 -110.788)" fill="#e0e0e0"/>
      <path id="Path_36650" data-name="Path 36650" d="M372.107,139.033l.287-14.694c.192-4.24-2.117-7.886-6.36-7.959h-.392a7.585,7.585,0,0,0-7.273,7.273c-.143,3.677-.259,7.742-.154,9.708.217,4.069,4.314,4.548,4.314,4.548h0c0,.465-.017.959-.028,1.459l4.852,4.219Z" transform="translate(-321.344 -114.424)" fill="#ffbf9d"/>
      <path id="Path_36651" data-name="Path 36651" d="M370.63,174.684a9.831,9.831,0,0,0,5.248-1.784,5.073,5.073,0,0,1-5.227,3.009Z" transform="translate(-329.443 -151.17)" fill="#ff9a6c"/>
      <path id="Path_36652" data-name="Path 36652" d="M363.89,147.259a.577.577,0,0,0,.584.563.56.56,0,0,0,.577-.549.577.577,0,0,0-.584-.563.556.556,0,0,0-.577.549Z" transform="translate(-325.061 -134.142)" fill="#263238"/>
      <path id="Path_36653" data-name="Path 36653" d="M361.452,141.644c.077.07.5-.273,1.13-.3s1.1.273,1.158.192-.045-.168-.252-.308a1.6,1.6,0,0,0-.934-.245,1.529,1.529,0,0,0-.892.329C361.477,141.469,361.417,141.609,361.452,141.644Z" transform="translate(-323.47 -130.42)" fill="#263238"/>
      <path id="Path_36654" data-name="Path 36654" d="M380.66,147.259a.581.581,0,0,0,.584.563.556.556,0,0,0,.577-.549.577.577,0,0,0-.584-.563.56.56,0,0,0-.577.549Z" transform="translate(-335.964 -134.142)" fill="#263238"/>
      <path id="Path_36655" data-name="Path 36655" d="M379.051,141.254c.073.073.5-.269,1.127-.294s1.1.269,1.161.189-.046-.168-.255-.3a1.585,1.585,0,0,0-.931-.248,1.532,1.532,0,0,0-.9.329C379.072,141.086,379.03,141.223,379.051,141.254Z" transform="translate(-334.914 -130.167)" fill="#263238"/>
      <path id="Path_36656" data-name="Path 36656" d="M370.121,146.3a4.061,4.061,0,0,0-1.022-.14c-.161,0-.315-.035-.35-.143a.819.819,0,0,1,.087-.479c.136-.392.276-.8.423-1.235a20.934,20.934,0,0,0,.931-3.222A21.053,21.053,0,0,0,369,144.228c-.143.43-.276.847-.4,1.238a.92.92,0,0,0-.06.633.4.4,0,0,0,.273.22,1.144,1.144,0,0,0,.273.028,4.11,4.11,0,0,0,1.032-.049Z" transform="translate(-328.066 -130.482)" fill="#263238"/>
      <path id="Path_36657" data-name="Path 36657" d="M378.3,134.526c.066.168.7.063,1.427.122s1.336.234,1.427.077c.042-.073-.066-.231-.315-.385a2.334,2.334,0,0,0-1.071-.325,2.376,2.376,0,0,0-1.106.175C378.4,134.309,378.27,134.449,378.3,134.526Z" transform="translate(-334.427 -125.884)" fill="#e0e0e0"/>
      <path id="Path_36658" data-name="Path 36658" d="M361.885,136.362c.115.136.539-.028,1.05-.056s.962.056,1.05-.1c.042-.073-.035-.213-.231-.35a1.543,1.543,0,0,0-1.7.122C361.888,136.145,361.832,136.292,361.885,136.362Z" transform="translate(-323.744 -126.957)" fill="#e0e0e0"/>
      <path id="Path_36659" data-name="Path 36659" d="M398.23,147.51c.07-.031,2.764-.941,2.8,1.844a2.1,2.1,0,0,1-2.781,2.159C398.244,151.436,398.23,147.51,398.23,147.51Z" transform="translate(-347.387 -134.555)" fill="#ffbf9d"/>
      <path id="Path_36660" data-name="Path 36660" d="M400.645,152.13a1.179,1.179,0,0,0,.133.07.483.483,0,0,0,.35,0,1.2,1.2,0,0,0,.546-1.081,1.589,1.589,0,0,0-.14-.7.556.556,0,0,0-.371-.35.245.245,0,0,0-.283.136c-.039.077-.018.133-.035.136s-.059-.045-.038-.161a.332.332,0,0,1,.378-.248.7.7,0,0,1,.511.427,1.683,1.683,0,0,1,.175.777,1.238,1.238,0,0,1-.7,1.207.514.514,0,0,1-.444-.07C400.652,152.2,400.634,152.134,400.645,152.13Z" transform="translate(-348.955 -136.236)" fill="#ff9a6c"/>
      <path id="Path_36661" data-name="Path 36661" d="M356.86,118.722a5.3,5.3,0,0,1,1.627-2.04,9.072,9.072,0,0,1,5.181-2.1,7.385,7.385,0,0,1,5.248,1.749,7.784,7.784,0,0,1,2.3,3.848,11.446,11.446,0,0,1,.213,4.51,3.439,3.439,0,0,1-.682,1.847.887.887,0,0,1-1.1.29,1.13,1.13,0,0,1-.35-.63c-.623-2.124-1.245-4.412-.542-6.511a6.388,6.388,0,0,0-1.991-1.683,3.3,3.3,0,0,0-2.54-.245c-1.224.434-1.938,1.672-2.9,2.55a5.877,5.877,0,0,1-5.171,1.4Z" transform="translate(-320.035 -113.246)" fill="#e0e0e0"/>
      <path id="Path_36662" data-name="Path 36662" d="M349.416,117.978a.792.792,0,0,0-.028.185,1.9,1.9,0,0,0,.059.542,2.543,2.543,0,0,0,1.228,1.539,3.792,3.792,0,0,0,2.918.178,14.734,14.734,0,0,0,3.215-1.644,6.356,6.356,0,0,1,3.331-1.088,4.342,4.342,0,0,1,2.634,1.05,5.822,5.822,0,0,1,1.273,1.48c.234.4.332.644.35.637a.626.626,0,0,0-.059-.178,5.053,5.053,0,0,0-.227-.49,5.6,5.6,0,0,0-1.252-1.546,4.436,4.436,0,0,0-2.715-1.12,6.456,6.456,0,0,0-3.425,1.1,15.081,15.081,0,0,1-3.173,1.637,3.666,3.666,0,0,1-2.8-.129,2.53,2.53,0,0,1-1.224-1.445A2.85,2.85,0,0,1,349.416,117.978Z" transform="translate(-315.631 -115.164)" fill="#fff"/>
      <path id="Path_36663" data-name="Path 36663" d="M397.5,129.413a2.029,2.029,0,0,0-.213-.738,4.782,4.782,0,0,0-1.049-1.529,4.733,4.733,0,0,0-.819-.633,1.77,1.77,0,0,0-.8-.287.909.909,0,0,0-.56.147c-.115.08-.15.15-.143.157a1.05,1.05,0,0,1,.7-.175,3.146,3.146,0,0,1,1.508.92,5.559,5.559,0,0,1,1.071,1.452A5.606,5.606,0,0,0,397.5,129.413Z" transform="translate(-344.577 -120.824)" fill="#e0e0e0"/>
      <path id="Path_36664" data-name="Path 36664" d="M372.39,160.379c0,.042.126.147.4.213a2.04,2.04,0,0,0,1.956-.672c.171-.217.217-.388.178-.413a4.814,4.814,0,0,1-1.182.675A11.821,11.821,0,0,1,372.39,160.379Z" transform="translate(-330.587 -142.463)" fill="#263238"/>
      <path id="Path_36665" data-name="Path 36665" d="M373.485,156.538c.077.07.161.15.136.245s-.2.171-.35.2a49.7,49.7,0,0,0-4.877,1.165.406.406,0,0,1-.192.021c-.15-.031-.178-.2-.161-.322a2,2,0,0,1,.7-1.266,3.089,3.089,0,0,1,1.452-.665S372.292,155.408,373.485,156.538Z" transform="translate(-327.757 -140.053)" fill="#e0e0e0"/>
      <path id="Path_36666" data-name="Path 36666" d="M382.839,195.778a5.38,5.38,0,0,1-.668-.724l-.7-.815a2.49,2.49,0,0,0-.409-.444,1.018,1.018,0,0,0-.577-.192c-.441-.018-.7.388-.99.661a8.56,8.56,0,0,0-.7.794,6.728,6.728,0,0,1-.665.721,4.319,4.319,0,0,1,.567-.8c.189-.238.416-.518.7-.822.133-.15.276-.308.441-.462a.976.976,0,0,1,.672-.269,1.162,1.162,0,0,1,.7.231,1.235,1.235,0,0,1,.245.241l.192.241c.234.3.455.584.654.84A5.148,5.148,0,0,1,382.839,195.778Z" transform="translate(-334.319 -164.511)" fill="#263238"/>
      <path id="Path_36667" data-name="Path 36667" d="M353.071,239.006l3.257-1.022s3.334-2.1,3.764-2.2,4.233.9,4.786,1.609,2.159,2.823,2.159,2.823.115.826-.668.549a1.067,1.067,0,0,1-.98.826,2.015,2.015,0,0,1-1.179-.3s.119.7-.507.735a23.873,23.873,0,0,1-3.635-.969l-1.1.021a20.154,20.154,0,0,1-3.219,2.033c-.507.038-4.394,0-4.394,0s-.784-.255-.157-1.833A4.831,4.831,0,0,1,353.071,239.006Z" transform="translate(-316.652 -192.053)" fill="#ffbf9d"/>
      <path id="Path_36668" data-name="Path 36668" d="M373.505,240.36a1.524,1.524,0,0,1,.168.178l.448.539,1.585,1.966h0v.021a.63.63,0,0,1-.735.7l.094-.094a.658.658,0,0,1-.238.616.962.962,0,0,1-.647.21c-.458,0-.882-.217-1.315-.2l.049-.161a.511.511,0,0,1-.038.8.99.99,0,0,1-.829.133c-1.161-.315-2.239-.63-3.236-.913a2.673,2.673,0,0,0-.7-.136,1.28,1.28,0,0,0-.644.168,10.5,10.5,0,0,0-1.018.749,8.191,8.191,0,0,1-1.6.934,4.493,4.493,0,0,1-.469.189.6.6,0,0,1-.171.046s.22-.1.609-.3a9.537,9.537,0,0,0,1.553-.973,9.522,9.522,0,0,1,1.025-.78,1.424,1.424,0,0,1,.7-.2,2.96,2.96,0,0,1,.759.136l3.229.9a.819.819,0,0,0,.679-.094.35.35,0,0,0,.046-.521l-.22-.157h.294c.5,0,.917.213,1.326.21a.78.78,0,0,0,.535-.168.493.493,0,0,0,.192-.451l-.028-.126.122.031a.486.486,0,0,0,.556-.511v.035l-1.536-2.008-.416-.56a.9.9,0,0,1-.129-.21Z" transform="translate(-325.269 -195.03)" fill="#ff9a6c"/>
      <path id="Path_36669" data-name="Path 36669" d="M382.867,240.84a2.351,2.351,0,0,1,.77.14,5.6,5.6,0,0,1,1.686.854,5.674,5.674,0,0,1,1.3,1.364,2.3,2.3,0,0,1,.35.7,7.053,7.053,0,0,0-4.118-3.054Z" transform="translate(-337.394 -195.342)" fill="#ff9a6c"/>
      <path id="Path_36670" data-name="Path 36670" d="M377.59,244.662a1.515,1.515,0,0,1,.7.021,4.065,4.065,0,0,1,1.518.654,7.309,7.309,0,0,1,1.231,1.092,2.251,2.251,0,0,1,.423.532,2.906,2.906,0,0,1-.514-.441,10.444,10.444,0,0,0-1.242-1.032,4.772,4.772,0,0,0-1.445-.679C377.849,244.7,377.59,244.694,377.59,244.662Z" transform="translate(-333.968 -197.806)" fill="#ff9a6c"/>
      <path id="Path_36671" data-name="Path 36671" d="M341.69,227.1a4.872,4.872,0,0,1,.238-.973c.175-.595.441-1.4.752-2.291s.581-1.637.8-2.274a6.3,6.3,0,0,1,.35-.934,4.813,4.813,0,0,1-.238.973c-.175.595-.441,1.4-.752,2.295s-.581,1.634-.8,2.27a6.111,6.111,0,0,1-.35.934Z" transform="translate(-310.627 -182.202)" fill="#455a64"/>
      <path id="Path_36672" data-name="Path 36672" d="M410.074,236.93a1.27,1.27,0,0,1-.322.234,4.513,4.513,0,0,1-1.008.437,7.829,7.829,0,0,1-1.6.294c-.609.056-1.277.063-1.977.084a12.723,12.723,0,0,0-1.949.175,5.723,5.723,0,0,0-1.511.49,5.248,5.248,0,0,0-1.189.854,1.26,1.26,0,0,1,.248-.315,3.709,3.709,0,0,1,.882-.654,5.657,5.657,0,0,1,1.536-.539,11.588,11.588,0,0,1,1.98-.192c.7-.021,1.368-.021,1.966-.07a8.641,8.641,0,0,0,1.578-.248,7.678,7.678,0,0,0,1.364-.549Z" transform="translate(-348.876 -192.8)" fill="#455a64"/>
      <path id="Path_36673" data-name="Path 36673" d="M420.725,198.141c-.049-.018.6-1.854,1.448-4.1s1.574-4.041,1.62-4.041-.6,1.854-1.448,4.1S420.771,198.158,420.725,198.141Z" transform="translate(-362.011 -162.288)" fill="#455a64"/>
      <rect id="Rectangle_5564" data-name="Rectangle 5564" width="80.258" height="67.594" transform="translate(3.17 54.685)" fill="#f8951d"/>
      <path id="Path_36674" data-name="Path 36674" d="M261.831,328.095c-.052,0-.091-12.78-.091-28.544s.024-28.551.091-28.551.091,12.776.091,28.54S261.866,328.095,261.831,328.095Z" transform="translate(-258.647 -214.95)" fill="#263238"/>
      <path id="Path_36675" data-name="Path 36675" d="M358.439,335.963v-.8c0-.528,0-1.308.017-2.326,0-2.036.039-5.02.066-8.823.07-7.606.164-18.482.28-31.6l.077.077H305.829l.091-.091V335.7l-.08-.08,38.025.217,10.751.07,2.848.025h-2.82l-10.733.007-38.06-.14h-.08V292.32h53.215v.077c-.15,13.137-.273,24.031-.35,31.644-.046,3.8-.084,6.776-.108,8.809,0,1.011-.025,1.788-.031,2.312A5.538,5.538,0,0,1,358.439,335.963Z" transform="translate(-287.274 -228.812)" fill="#263238"/>
      <path id="Path_36676" data-name="Path 36676" d="M360.181,337.83v-2.82c0-1.83,0-4.513-.017-7.935,0-6.832-.024-16.614-.038-28.414l.073.077H311.255l.091-.091v39.162l-.08-.08,35.359.038,10.016.024h.024l-10,.021-35.432.091h-.084V298.57h.1l48.943.017h.077v.073c0,11.818-.031,21.617-.038,28.463,0,3.411-.017,6.091-.021,7.917v2.075A6.939,6.939,0,0,1,360.181,337.83Z" transform="translate(-290.771 -232.875)" fill="#263238"/>
      <path id="Path_36677" data-name="Path 36677" d="M453.484,293.83a5.42,5.42,0,0,1-1.05.948,5.482,5.482,0,0,1-1.154.808,5.552,5.552,0,0,1,1.05-.948A5.481,5.481,0,0,1,453.484,293.83Z" transform="translate(-381.878 -229.793)" fill="#263238"/>
      <path id="Path_36678" data-name="Path 36678" d="M306,292.58a10.927,10.927,0,0,1,1.749,2.194,5.458,5.458,0,0,1-.948-1.05A5.6,5.6,0,0,1,306,292.58Z" transform="translate(-287.423 -228.981)" fill="#263238"/>
      <path id="Path_36679" data-name="Path 36679" d="M306,412.723a5.218,5.218,0,0,1,.885-1.05,5.1,5.1,0,0,1,1.018-.913,5.172,5.172,0,0,1-.889,1.05A5.246,5.246,0,0,1,306,412.723Z" transform="translate(-287.423 -305.816)" fill="#263238"/>
      <path id="Path_36680" data-name="Path 36680" d="M453.056,412.974a5.693,5.693,0,0,1-.948-1.05,5.481,5.481,0,0,1-.808-1.155,10.756,10.756,0,0,1,1.749,2.2Z" transform="translate(-381.891 -305.822)" fill="#263238"/>
      <rect id="Rectangle_5565" data-name="Rectangle 5565" width="88.403" height="5.835" rx="2.918" transform="translate(0 50.221)" fill="#f8951d"/>
      <path id="Path_36681" data-name="Path 36681" d="M261.24,271c0-.052,18.07-.094,40.355-.094s40.376.031,40.376.094-18.066.091-40.358.091S261.24,271.053,261.24,271Z" transform="translate(-258.322 -214.892)" fill="#263238"/>
      <g id="Group_8767" data-name="Group 8767" transform="translate(27.617 70.391)" opacity="0.4">
        <path id="Path_36682" data-name="Path 36682" d="M365.653,331.752,360.3,314.26l.087-.028a.878.878,0,0,0,.539-.745h1.959v-.675H360.7a.83.83,0,0,0-.255-.192.843.843,0,0,0-.4-.091.875.875,0,0,0-.451.126.824.824,0,0,0-.192.157h-9.393a1.2,1.2,0,0,0-.087-.2,1.179,1.179,0,0,0-.3-.35,1.235,1.235,0,0,0-.514-.245,1.165,1.165,0,0,0-.651.056,1.05,1.05,0,0,0-.308.175,1.185,1.185,0,0,0-.259.269,1.322,1.322,0,0,0-.157.3H339.3v-.042a.721.721,0,0,0-.063-.2.854.854,0,0,0-.4-.42.941.941,0,0,0-.4-.091.878.878,0,0,0-.451.129.843.843,0,0,0-.2.161.783.783,0,0,0-.147.22.763.763,0,0,0-.073.245H336v.675h1.749a.773.773,0,0,0,.1.112.9.9,0,0,0,.22.147l.063.024-6.3,17.912h.038a5.759,5.759,0,0,0,4.044,1.683h4.719s2.421-.143,3.53-1.6h.038l-5.5-17.979.077-.024a.868.868,0,0,0,.329-.238l.028-.039h8.561a.7.7,0,0,0,.035.147,1.326,1.326,0,0,0,.168.35,1.263,1.263,0,0,0,.259.269,1.114,1.114,0,0,0,.15.1l-.556,15.785.539.857-1.672,2.361h0l1.662,2.229h0A1.558,1.558,0,0,0,347.8,338h0c-.049-.049-.073-.077-.077-.073a.7.7,0,0,0,.07.091,5.741,5.741,0,0,1-2.781,2.473h-.024q-.066.021-.073,0a3.268,3.268,0,0,1-2.515,1.949h0v.672h13.081v-.675a3.27,3.27,0,0,1-2.519-1.949h-.1a5.786,5.786,0,0,1-2.8-2.487.65.65,0,0,0,.021-.119,1.313,1.313,0,0,0,.084-.133.329.329,0,0,0,.045-.108s-.028.049-.08.126a1.557,1.557,0,0,0,.231-.812,1.525,1.525,0,0,0-.875-1.4h.007l1.655-2.222h0l-1.672-2.361.532-.847h0l-.553-15.785a1.3,1.3,0,0,0,.161-.108,1.179,1.179,0,0,0,.3-.35,1.271,1.271,0,0,0,.126-.329V313.5h9.1a1,1,0,0,0,0,.1.868.868,0,0,0,.273.479.793.793,0,0,0,.2.136l-6.1,17.454h.038a5.65,5.65,0,0,0,3.967,1.665h4.628s2.379-.14,3.464-1.574h0Zm-21.544.028-12.21-.08,6.3-17.9a.569.569,0,0,0,.1.025.822.822,0,0,0,.308,0Zm9.488-.094,6.133-17.443a.881.881,0,0,0,.493.038l5.349,17.492Z" transform="translate(-331.84 -311.995)"/>
      </g>
      <g id="Group_8768" data-name="Group 8768" transform="translate(9.327 56.008)" opacity="0.1">
        <path id="Path_36683" data-name="Path 36683" d="M279.56,270.939l74.1,54.1V314.523L291.812,270.88Z" transform="translate(-279.56 -270.88)" fill="#fff"/>
      </g>
      <g id="Group_8769" data-name="Group 8769" transform="translate(29.975 56.113)" opacity="0.1">
        <path id="Path_36684" data-name="Path 36684" d="M338.58,271.18l53.453,37.976v-3.292L342.911,271.18Z" transform="translate(-338.58 -271.18)" fill="#fff"/>
      </g>
    </g>
  </g>
</svg>
