<svg xmlns="http://www.w3.org/2000/svg" width="250" height="254.53" viewBox="0 0 250 254.53">
  <g id="Legal-recognition" transform="translate(-32.159 -17.07)">
    <g id="freepik--Plants--inject-36" transform="translate(32.159 118.009)">
      <path id="Path_34204" data-name="Path 34204" d="M93.351,419.115c-.095-1.834-2.018-5.49-2.018-5.5s-2.023,2-2.135,2.146c-1.293,1.672-2.787,5.612-1.494,7.557a2.787,2.787,0,0,0,4.119.446C93.095,422.7,93.429,420.687,93.351,419.115Z" transform="translate(-56.529 -290.899)" fill="#263238"/>
      <path id="Path_34205" data-name="Path 34205" d="M59.632,355.7c0-.039-2.787.557-2.965.613-1.99.663-5.445,3.127-5.417,5.478a2.787,2.787,0,0,0,3.2,2.642c1.672-.19,3.037-1.672,3.84-3.037C59.22,359.812,59.632,355.7,59.632,355.7Z" transform="translate(-40.61 -265.258)" fill="#263238"/>
      <path id="Path_34206" data-name="Path 34206" d="M32.3,337.033c.814,2.229,4.921,3.266,7.022,3.177.178,0,3-.457,2.982-.5v-.045c.646.173,1.343.346,2.107.524,1.41.318,3.015.669,4.782.925a49.817,49.817,0,0,0,5.735.557,36.9,36.9,0,0,0,6.448-.284h.078c-.624.3-2.335,1.181-2.458,1.265-1.744,1.17-4.425,4.459-3.779,6.716a2.787,2.787,0,0,0,3.773,1.705c1.544-.613,2.491-2.424,2.9-3.94.468-1.705-.145-5.49-.2-5.791a50.224,50.224,0,0,0,6.387-1.46c1.226-.362,2.452-.764,3.673-1.176-.529.273-1,.518-1.064.557-1.744,1.17-4.425,4.459-3.773,6.716a2.787,2.787,0,0,0,3.773,1.705c1.538-.619,2.486-2.43,2.9-3.94s-.039-4.776-.173-5.629l1.4-.49c2.229-.8,4.459-1.611,6.688-2.335.78-.256,1.561-.479,2.335-.708l-.92.49c-1.744,1.17-4.425,4.459-3.779,6.716a2.787,2.787,0,0,0,3.773,1.711c1.544-.619,2.491-2.43,2.9-3.946s0-4.459-.145-5.473c.8-.206,1.605-.418,2.391-.585.557-.1,1.053-.234,1.6-.307l1.605-.24c1.025-.117,2.084-.245,3.093-.334.7-.067,1.36-.117,2.034-.167-.78.245-2.3.758-2.413.814a10.762,10.762,0,0,0-4.063,3.639,3.383,3.383,0,0,0-.557.312,2.787,2.787,0,0,0-.6,4.1c1.555,1.767,5.768,1.276,7.691.44.111-.05,1.287-.725,2.017-1.165-.39.323-.775.63-1.176.97-.791.663-1.561,1.343-2.4,2.079-.39.368-.786.736-1.182,1.115s-.78.8-1.182,1.2c-.9.947-1.761,1.956-2.614,2.993-.557-.7-2.675-3.127-4.091-3.818s-3.4-1.176-4.877-.424a2.787,2.787,0,0,0-1.215,3.963c1.271,1.978,5.512,2.135,7.541,1.594.128-.033,1.538-.557,2.313-.9-.507.624-1.014,1.248-1.5,1.895-1.421,1.873-2.787,3.812-4.18,5.746-.424.591-.853,1.176-1.276,1.761-.206-.251-2.636-3.193-4.224-3.968-1.41-.691-3.394-1.176-4.877-.424a2.787,2.787,0,0,0-1.209,3.963c1.271,1.978,5.512,2.135,7.541,1.594.15-.039,2.185-.83,2.692-1.059-.942,1.293-1.889,2.569-2.876,3.79a48.288,48.288,0,0,1-4.286,4.7c-.095-.117-2.619-3.2-4.241-4-1.41-.686-3.394-1.17-4.877-.418A2.787,2.787,0,0,0,65.08,366.9c1.271,1.984,5.506,2.135,7.535,1.6.134-.033,1.672-.641,2.413-.942l.072.111a35.319,35.319,0,0,1-5.088,3.9c-.986.635-1.962,1.193-2.926,1.711-.412-.624-2.324-3.45-3.706-4.325s-3.249-1.538-4.8-.953a2.787,2.787,0,0,0-1.633,3.8c1.042,2.107,5.239,2.725,7.312,2.419.117,0,1.243-.318,2.062-.557-.435.229-.886.468-1.31.68-1.594.786-3.1,1.416-4.459,1.956-.764.3-1.46.557-2.118.8-.719-.4-3.65-1.978-5.256-2.118s-3.589.134-4.7,1.365a2.787,2.787,0,0,0,.3,4.13c1.895,1.388,5.908,0,7.607-1.226.145-.106,2.229-2.04,2.229-2.056h-.045c.635-.212,1.315-.446,2.051-.719,1.354-.518,2.876-1.115,4.5-1.867a50.8,50.8,0,0,0,5.1-2.7,36.449,36.449,0,0,0,5.217-3.79l.056-.056c-.357.591-1.293,2.274-1.349,2.413-.808,1.934-1.232,6.131.557,7.685a2.787,2.787,0,0,0,4.091-.663c.947-1.365.736-3.4.245-4.888-.557-1.672-3.149-4.5-3.344-4.726a49.8,49.8,0,0,0,4.537-4.754c.825-.975,1.622-1.984,2.413-3.01a8.713,8.713,0,0,0-.557,1.059c-.808,1.934-1.232,6.158.557,7.685a2.787,2.787,0,0,0,4.091-.658c.942-1.365.736-3.4.245-4.893s-2.664-3.963-3.249-4.6l.9-1.187c1.421-1.9,2.837-3.807,4.28-5.629.513-.646,1.037-1.26,1.56-1.878-.262.463-.474.858-.5.92-.808,1.939-1.232,6.158.557,7.685a2.787,2.787,0,0,0,4.091-.658c.942-1.365.736-3.4.245-4.893s-2.452-3.717-3.143-4.486c.557-.613,1.115-1.232,1.672-1.8.4-.385.752-.78,1.165-1.142l1.209-1.087c.791-.663,1.605-1.354,2.391-1.984.557-.44,1.076-.847,1.605-1.265-.513.635-1.494,1.9-1.56,2.012-1.115,1.795-2.151,5.9-.619,7.685a2.787,2.787,0,0,0,4.141-.033c1.143-1.2,1.243-3.249.986-4.793-.284-1.705-2.33-4.771-2.586-5.155.881-.68,1.744-1.338,2.564-1.945,2.826-2.09,5.261-3.723,6.989-4.849l-.713-1.427-.111.078c-1.728,1.176-4.169,2.892-7,5.088-.9.686-1.845,1.443-2.787,2.229a30.181,30.181,0,0,0-2.787-2.229,20.342,20.342,0,0,0,.613-5.54c1.115-.089,2.2-.156,3.216-.206,3.506-.184,6.437-.206,8.5-.2l-.78-1.566c-2.017.045-4.687.139-7.8.368-1.115.084-2.33.19-3.567.312-.117-.435-1.07-4-2.162-5.345-.992-1.215-2.592-2.486-4.252-2.424a2.787,2.787,0,0,0-2.759,3.088c.323,2.33,4.107,4.247,6.175,4.609.123,0,1.471.106,2.324.145-.5.056-.992.1-1.51.162-1.031.111-2.051.256-3.149.407l-1.6.279c-.557.084-1.115.234-1.644.351-1.276.3-2.553.658-3.834,1.053-.1-.9-.507-4.085-1.31-5.445s-2.185-2.848-3.834-3.043a2.787,2.787,0,0,0-3.193,2.636c-.033,2.352,3.416,4.821,5.406,5.5.123.039,1.605.362,2.424.524-.769.24-1.533.479-2.3.747-2.229.78-4.459,1.644-6.654,2.491l-2.034.764c-.033-.323-.44-4.119-1.332-5.64-.8-1.349-2.185-2.853-3.834-3.043a2.787,2.787,0,0,0-3.193,2.636c-.033,2.352,3.416,4.821,5.4,5.49.15.05,2.285.513,2.831.6-1.494.557-2.993,1.115-4.459,1.577a49.417,49.417,0,0,1-6.164,1.555c0-.15-.418-4.113-1.338-5.673-.8-1.349-2.185-2.853-3.834-3.043a2.787,2.787,0,0,0-3.193,2.636c-.033,2.352,3.416,4.821,5.406,5.49.128.045,1.756.4,2.53.557v.134a36.037,36.037,0,0,1-6.381.424c-1.17,0-2.3-.089-3.389-.189,0-.747-.033-4.158-.7-5.651s-1.861-3.071-3.478-3.444a2.787,2.787,0,0,0-3.539,2.257c-.29,2.335,2.87,5.166,4.771,6.052.106.05,1.209.424,2.023.68-.49-.05-1-.095-1.471-.156-1.767-.217-3.344-.529-4.782-.814-.808-.173-1.533-.34-2.229-.507-.379-.73-1.956-3.662-3.216-4.659s-3.065-1.873-4.67-1.46a2.787,2.787,0,0,0-2.006,3.584Z" transform="translate(-32.159 -250.95)" fill="#263238"/>
      <path id="Path_34207" data-name="Path 34207" d="M69.864,290.705c1.471-1.115,3.416-4.748,3.422-4.748s-2.787-.557-2.971-.557c-2.1-.139-6.231.814-7.1,3a2.787,2.787,0,0,0,1.939,3.662C66.748,292.5,68.593,291.647,69.864,290.705Z" transform="translate(-45.832 -234.133)" fill="#263238"/>
      <path id="Path_34208" data-name="Path 34208" d="M104.9,227.265c.039,0-2.018-2.006-2.162-2.112-1.672-1.276-5.646-2.787-7.574-1.421a2.787,2.787,0,0,0-.4,4.124c1.076,1.26,3.1,1.577,4.665,1.482C101.258,229.216,104.9,227.265,104.9,227.265Z" transform="translate(-59.547 -206.601)" fill="#263238"/>
      <path id="Path_34209" data-name="Path 34209" d="M79.763,197.167c-1.371,1.912.056,5.908,1.3,7.6.111.145,2.062,2.229,2.084,2.19v-.039c.217.63.463,1.3.741,2.04.557,1.349,1.115,2.865,1.917,4.459a49,49,0,0,0,2.742,5.072,36.749,36.749,0,0,0,3.851,5.183l.05.05c-.591-.346-2.285-1.265-2.424-1.326-1.945-.786-6.17-1.165-7.68.635a2.787,2.787,0,0,0,.7,4.085c1.377.931,3.405.7,4.893.2,1.672-.557,4.459-3.2,4.687-3.405a49.922,49.922,0,0,0,4.8,4.459c.986.814,2,1.605,3.032,2.38a10.1,10.1,0,0,0-1.064-.557c-1.945-.791-6.17-1.17-7.674.635a2.787,2.787,0,0,0,.7,4.08c1.377.931,3.405.7,4.893.2s3.935-2.7,4.57-3.288c.4.29.791.591,1.193.881,1.912,1.41,3.834,2.787,5.674,4.23.646.5,1.265,1.02,1.889,1.538-.463-.256-.858-.463-.92-.49-1.945-.786-6.17-1.17-7.68.635a2.787,2.787,0,0,0,.7,4.08c1.371.931,3.405.7,4.888.2s3.7-2.491,4.459-3.188c.624.557,1.248,1.115,1.822,1.672.39.39.786.741,1.154,1.154l1.115,1.2c.674.786,1.371,1.588,2.006,2.374.446.557.864,1.064,1.282,1.588-.641-.507-1.912-1.477-2.029-1.544a10.773,10.773,0,0,0-5.289-1.321,3.439,3.439,0,0,0-.557-.273,2.787,2.787,0,0,0-3.728,1.806c-.591,2.274,2.174,5.49,3.951,6.615.1.067,1.315.663,2.09,1.02l-1.46-.429c-.992-.284-1.99-.557-3.065-.825l-1.583-.351c-.557-.134-1.115-.2-1.672-.307-1.293-.212-2.608-.362-3.94-.49.245-.869,1.087-3.968.864-5.529s-.931-3.472-2.38-4.275a2.787,2.787,0,0,0-3.957,1.215c-.931,2.162,1.315,5.757,2.9,7.139.1.084,1.343.947,2.04,1.41-.8-.067-1.6-.139-2.413-.184-2.346-.128-4.726-.178-7.1-.245l-2.174-.067c.089-.312,1.17-3.974.92-5.724-.217-1.549-.931-3.467-2.38-4.275a2.787,2.787,0,0,0-3.957,1.215c-.931,2.162,1.315,5.757,2.9,7.139.117.106,1.912,1.343,2.385,1.639-1.594-.056-3.188-.128-4.754-.262a48.354,48.354,0,0,1-6.287-.914c.045-.145,1.182-3.963.931-5.752-.217-1.555-.931-3.472-2.38-4.28a2.787,2.787,0,0,0-3.963,1.221c-.925,2.157,1.321,5.757,2.9,7.139.106.089,1.477,1.037,2.135,1.471l-.05.123a35.953,35.953,0,0,1-6.058-2.045c-1.081-.463-2.09-.964-3.06-1.471.284-.691,1.555-3.857,1.5-5.49s-.557-3.556-1.895-4.514a2.787,2.787,0,0,0-4.068.775c-1.165,2.045.674,5.869,2.1,7.412.078.089.959.853,1.605,1.4-.435-.234-.886-.474-1.3-.708-1.544-.875-2.909-1.772-4.107-2.58-.68-.463-1.282-.9-1.845-1.3-.072-.825-.407-4.135-1.193-5.54s-2.118-2.9-3.762-3.132a2.787,2.787,0,0,0-3.255,2.564c-.089,2.352,3.3,4.893,5.278,5.612.173.061,2.948.725,2.948.686v-.05c.557.407,1.115.836,1.744,1.287,1.187.836,2.53,1.767,4.068,2.681a47.877,47.877,0,0,0,5.088,2.714,35.85,35.85,0,0,0,6.064,2.2H78.3c-.691.033-2.608.2-2.753.229-2.062.418-5.8,2.43-6.058,4.765a2.787,2.787,0,0,0,2.837,3.021c1.672,0,3.227-1.293,4.185-2.536,1.115-1.4,1.967-5.133,2.034-5.428a49.3,49.3,0,0,0,6.482,1.115c1.271.139,2.558.234,3.845.318l-1.2.111c-2.057.418-5.791,2.43-6.058,4.765a2.787,2.787,0,0,0,2.837,3.021c1.672,0,3.227-1.293,4.191-2.536s1.789-4.425,1.99-5.267l1.488.084c2.374.111,4.743.217,7.061.39.819.061,1.622.15,2.424.24-.524.045-.97.089-1.037.1-2.057.418-5.791,2.43-6.052,4.765a2.787,2.787,0,0,0,2.837,3.021c1.672,0,3.227-1.293,4.185-2.536s1.705-4.119,1.956-5.116c.819.117,1.672.229,2.43.373.557.117,1.064.184,1.6.329l1.577.39c.992.284,2.017.557,2.982.875.669.2,1.3.412,1.945.619-.814-.072-2.408-.173-2.541-.167-2.1.095-6.092,1.521-6.688,3.79a2.787,2.787,0,0,0,2.346,3.416c1.639.268,3.389-.791,4.525-1.873,1.254-1.193,2.647-4.6,2.82-5.016,1.059.346,2.084.691,3.049,1.037,3.31,1.17,6.03,2.268,7.931,3.071l.786-1.388-.128-.05c-1.945-.775-4.737-1.834-8.137-2.954-1.076-.357-2.229-.713-3.416-1.07a30.461,30.461,0,0,0,.262-3.545,20.249,20.249,0,0,0,4.938-2.6c.691.875,1.354,1.733,1.973,2.547,2.118,2.787,3.773,5.222,4.921,6.939l.858-1.527c-1.165-1.672-2.736-3.806-4.676-6.259-.7-.892-1.466-1.828-2.263-2.787.3-.34,2.72-3.132,3.216-4.787.451-1.5.613-3.539-.368-4.882a2.787,2.787,0,0,0-4.107-.557c-1.744,1.572-1.215,5.779-.357,7.7.05.111.736,1.276,1.182,2.006-.329-.39-.641-.769-.981-1.165-.669-.786-1.36-1.555-2.1-2.38l-1.115-1.17c-.368-.4-.808-.775-1.215-1.165-.959-.892-1.973-1.744-3.015-2.586.686-.585,3.1-2.709,3.773-4.13s1.115-3.411.373-4.882a2.787,2.787,0,0,0-3.974-1.17c-1.967,1.293-2.079,5.529-1.521,7.557.039.123.6,1.533.925,2.3-.63-.5-1.254-1-1.912-1.482-1.889-1.4-3.84-2.753-5.785-4.119l-1.778-1.26c.251-.206,3.171-2.67,3.9-4.263.674-1.416,1.115-3.405.368-4.877a2.787,2.787,0,0,0-3.968-1.17c-1.967,1.287-2.079,5.529-1.521,7.552.039.15.853,2.179,1.087,2.681-1.3-.925-2.586-1.861-3.818-2.837a48.489,48.489,0,0,1-4.743-4.236c.117-.095,3.177-2.647,3.951-4.28.674-1.416,1.115-3.411.373-4.882a2.787,2.787,0,0,0-3.974-1.17c-1.967,1.293-2.079,5.529-1.521,7.557.033.128.652,1.672.964,2.4l-.111.072a36.31,36.31,0,0,1-3.9-5.049c-.646-.981-1.209-1.951-1.739-2.915.619-.412,3.422-2.352,4.286-3.745s1.5-3.26.908-4.81a2.787,2.787,0,0,0-3.823-1.6c-2.1,1.064-2.675,5.267-2.341,7.34,0,.111.329,1.237.557,2.057-.234-.435-.479-.881-.7-1.3-.8-1.588-1.443-3.088-2-4.42-.312-.764-.557-1.46-.819-2.112.4-.725,1.939-3.673,2.062-5.272s-.167-3.589-1.41-4.687a2.787,2.787,0,0,0-4.135.357Z" transform="translate(-41.397 -194.587)" fill="#263238"/>
      <path id="Path_34210" data-name="Path 34210" d="M421.282,288.084c-1.471-1.115-3.422-4.743-3.422-4.748s2.787-.557,2.971-.557c2.1-.145,6.225.814,7.1,3a2.787,2.787,0,0,1-1.94,3.656C424.392,289.879,422.536,289.026,421.282,288.084Z" transform="translate(-200.294 -232.972)" fill="#263238"/>
      <path id="Path_34211" data-name="Path 34211" d="M385.74,224.647c-.033,0,2.023-2,2.168-2.112,1.672-1.276,5.64-2.787,7.574-1.416a2.787,2.787,0,0,1,.4,4.124c-1.081,1.26-3.1,1.572-4.665,1.477C389.379,226.609,385.745,224.653,385.74,224.647Z" transform="translate(-186.51 -205.443)" fill="#263238"/>
      <path id="Path_34212" data-name="Path 34212" d="M360.321,194.547c1.365,1.912-.056,5.9-1.31,7.591-.106.145-2.057,2.229-2.079,2.2v-.045c-.223.635-.463,1.31-.747,2.04-.557,1.349-1.115,2.87-1.912,4.459a49.738,49.738,0,0,1-2.748,5.077,35.926,35.926,0,0,1-3.845,5.177.523.523,0,0,1-.056.056c.6-.351,2.291-1.271,2.424-1.326,1.945-.791,6.17-1.17,7.68.635a2.787,2.787,0,0,1-.7,4.08c-1.371.931-3.405.7-4.888.2-1.672-.557-4.459-3.193-4.693-3.405a49.946,49.946,0,0,1-4.8,4.492c-.986.814-2.006,1.6-3.037,2.38a10.739,10.739,0,0,1,1.064-.557c1.945-.791,6.17-1.17,7.68.63a2.787,2.787,0,0,1-.7,4.085c-1.371.931-3.405.7-4.888.2s-3.935-2.7-4.57-3.294c-.4.3-.791.6-1.193.886-1.917,1.4-3.834,2.787-5.674,4.224-.652.507-1.271,1.025-1.895,1.538.468-.251.858-.463.925-.485,1.945-.791,6.17-1.17,7.68.63a2.787,2.787,0,0,1-.7,4.085c-1.377.931-3.405.7-4.893.2s-3.7-2.491-4.459-3.188c-.619.557-1.243,1.115-1.822,1.672-.385.39-.78.741-1.148,1.154s-.736.8-1.115,1.193c-.669.786-1.365,1.594-2.006,2.374-.446.557-.858,1.064-1.282,1.594.641-.513,1.917-1.477,2.029-1.544a10.84,10.84,0,0,1,5.295-1.326,3.154,3.154,0,0,1,.557-.268,2.787,2.787,0,0,1,3.728,1.8c.591,2.279-2.174,5.5-3.946,6.621-.106.067-1.321.658-2.1,1.02.49-.145.959-.29,1.46-.429,1-.29,2-.557,3.065-.825l1.588-.357c.524-.128,1.115-.2,1.672-.3,1.287-.212,2.608-.368,3.94-.49-.251-.869-1.115-3.968-.869-5.529s.931-3.472,2.385-4.28a2.787,2.787,0,0,1,3.957,1.221c.925,2.157-1.315,5.757-2.9,7.139-.1.084-1.349.947-2.04,1.41.8-.072,1.6-.145,2.413-.189,2.346-.123,4.726-.178,7.095-.24.73,0,1.455-.045,2.179-.072-.095-.307-1.17-3.974-.925-5.718.223-1.555.931-3.472,2.385-4.28a2.787,2.787,0,0,1,3.957,1.221c.931,2.157-1.315,5.757-2.9,7.139-.123.1-1.917,1.343-2.391,1.633,1.6-.056,3.188-.123,4.754-.256a49.268,49.268,0,0,0,6.287-.931c-.045-.139-1.187-3.963-.936-5.752.223-1.549.931-3.467,2.385-4.275a2.787,2.787,0,0,1,3.957,1.215c.931,2.162-1.315,5.757-2.9,7.139-.106.095-1.471,1.037-2.135,1.471a1.2,1.2,0,0,1,.056.123,35.953,35.953,0,0,0,6.058-2.045c1.081-.457,2.09-.959,3.06-1.466-.29-.691-1.56-3.857-1.51-5.5s.557-3.55,1.9-4.509a2.787,2.787,0,0,1,4.068.775c1.159,2.045-.68,5.869-2.1,7.412-.078.084-.959.853-1.611,1.4.435-.24.886-.474,1.3-.708,1.549-.881,2.909-1.778,4.113-2.58.674-.468,1.282-.9,1.845-1.31.072-.825.407-4.135,1.187-5.54s2.123-2.9,3.767-3.127a2.787,2.787,0,0,1,3.255,2.558c.084,2.352-3.3,4.9-5.283,5.618-.167.061-2.948.725-2.943.68a.189.189,0,0,1,0-.05c-.557.407-1.115.836-1.75,1.293-1.182.836-2.53,1.767-4.063,2.681a51.212,51.212,0,0,1-5.088,2.714,36.226,36.226,0,0,1-6.08,2.2.343.343,0,0,1-.072,0c.686.039,2.608.206,2.753.234,2.056.412,5.791,2.43,6.052,4.765a2.787,2.787,0,0,1-2.831,3.015c-1.672,0-3.232-1.293-4.191-2.53-1.081-1.4-1.962-5.133-2.034-5.434a48.233,48.233,0,0,1-6.482,1.115c-1.271.134-2.553.234-3.84.312.591.05,1.115.1,1.2.117,2.056.412,5.791,2.43,6.052,4.765a2.787,2.787,0,0,1-2.837,3.015c-1.672,0-3.227-1.293-4.185-2.53s-1.789-4.431-2-5.272c-.5.028-.986.061-1.482.084-2.374.117-4.743.223-7.067.4-.814.061-1.622.15-2.424.24.557.045.97.084,1.037.1,2.062.412,5.8,2.43,6.058,4.765a2.787,2.787,0,0,1-2.837,3.015c-1.672,0-3.227-1.293-4.185-2.53s-1.711-4.119-1.956-5.116c-.825.111-1.644.223-2.435.373-.557.111-1.064.184-1.594.329l-1.577.39c-.992.284-2.023.557-2.982.869-.674.206-1.31.412-1.951.619.814-.067,2.413-.173,2.547-.167,2.1.1,6.092,1.521,6.688,3.8a2.787,2.787,0,0,1-2.346,3.411c-1.639.273-3.383-.791-4.525-1.867-1.248-1.193-2.647-4.6-2.814-5.016-1.059.351-2.09.7-3.049,1.037-3.316,1.17-6.03,2.274-7.931,3.071l-.786-1.388.128-.05c1.945-.769,4.732-1.828,8.137-2.948,1.07-.357,2.229-.719,3.416-1.076a31.21,31.21,0,0,1-.268-3.545,20.413,20.413,0,0,1-4.932-2.592c-.7.875-1.36,1.728-1.973,2.547-2.118,2.787-3.779,5.216-4.921,6.933l-.847-1.549c1.165-1.672,2.736-3.812,4.676-6.264.7-.892,1.466-1.828,2.257-2.787-.3-.34-2.72-3.127-3.216-4.787-.451-1.5-.608-3.539.373-4.877a2.787,2.787,0,0,1,4.1-.557c1.75,1.572,1.221,5.779.362,7.7-.056.117-.741,1.282-1.187,2.006.329-.385.641-.769.981-1.165.674-.786,1.365-1.549,2.107-2.374.368-.39.747-.78,1.115-1.17s.8-.775,1.209-1.165c.959-.892,1.973-1.75,3.015-2.586-.686-.585-3.093-2.709-3.773-4.135s-1.115-3.405-.373-4.877a2.787,2.787,0,0,1,3.974-1.17c1.967,1.287,2.079,5.529,1.522,7.552-.033.128-.6,1.533-.925,2.3.635-.5,1.26-1,1.912-1.482,1.889-1.4,3.846-2.759,5.791-4.119.6-.418,1.182-.842,1.772-1.26-.245-.212-3.166-2.67-3.9-4.264-.674-1.416-1.115-3.411-.373-4.882a2.787,2.787,0,0,1,3.974-1.17c1.967,1.293,2.079,5.529,1.521,7.557-.045.15-.858,2.174-1.115,2.681,1.3-.931,2.592-1.867,3.823-2.837a49.785,49.785,0,0,0,4.743-4.236c-.117-.095-3.177-2.653-3.951-4.286-.674-1.416-1.142-3.405-.373-4.877a2.787,2.787,0,0,1,3.974-1.17c1.967,1.287,2.079,5.529,1.521,7.552-.039.134-.658,1.672-.97,2.4l.111.072a35.439,35.439,0,0,0,3.9-5.044c.646-.981,1.215-1.956,1.744-2.915-.619-.418-3.428-2.357-4.286-3.751s-1.51-3.26-.908-4.81a2.787,2.787,0,0,1,3.823-1.6c2.1,1.07,2.67,5.272,2.341,7.345,0,.111-.329,1.237-.557,2.057.229-.44.479-.886.691-1.31.808-1.583,1.449-3.082,2.006-4.42.306-.758.557-1.455.814-2.107-.39-.725-1.939-3.673-2.062-5.278s.167-3.589,1.416-4.687a2.787,2.787,0,0,1,4.152.362Z" transform="translate(-153.684 -193.422)" fill="#263238"/>
      <path id="Path_34213" data-name="Path 34213" d="M451.176,348.528c-1.516,1.115-3.556,4.76-3.556,4.765s2.82.613,3,.624c2.129.184,6.342-.719,7.245-2.926a2.826,2.826,0,0,0-1.906-3.745C454.38,346.755,452.48,347.6,451.176,348.528Z" transform="translate(-213.468 -261.453)" fill="#263238"/>
      <path id="Path_34214" data-name="Path 34214" d="M414.1,412.848c-.039,0,2.018,2.068,2.162,2.179,1.672,1.321,5.685,2.893,7.669,1.566a2.826,2.826,0,0,0,.479-4.18c-1.076-1.3-3.121-1.672-4.715-1.583C417.828,410.919,414.105,412.842,414.1,412.848Z" transform="translate(-198.629 -289.659)" fill="#263238"/>
      <path id="Path_34215" data-name="Path 34215" d="M388.517,394.59c1.421-1.923.039-6-1.2-7.736-.111-.15-2.057-2.3-2.079-2.263l-.028.045c-.212-.646-.446-1.338-.719-2.084-.513-1.382-1.115-2.931-1.867-4.581a50.886,50.886,0,0,0-2.709-5.194,36.675,36.675,0,0,0-3.818-5.328l-.056-.056c.6.362,2.3,1.326,2.441,1.388,1.962.83,6.248,1.287,7.8-.518a2.831,2.831,0,0,0-.641-4.158c-1.382-.97-3.45-.769-4.966-.279-1.711.557-4.592,3.171-4.821,3.383a49.929,49.929,0,0,0-4.8-4.642c-.992-.842-2.012-1.672-3.043-2.469.524.3,1,.557,1.07.591,1.962.836,6.248,1.293,7.8-.513a2.826,2.826,0,0,0-.641-4.158c-1.382-.97-3.45-.769-4.966-.284s-4.041,2.686-4.693,3.271c-.4-.307-.8-.619-1.2-.92-1.923-1.46-3.845-2.909-5.69-4.386-.652-.524-1.276-1.059-1.9-1.594.468.262.869.485.931.513,1.962.83,6.248,1.287,7.8-.518a2.831,2.831,0,0,0-.641-4.158c-1.382-.97-3.45-.769-4.966-.279s-3.8,2.469-4.576,3.16c-.624-.557-1.248-1.115-1.822-1.711-.385-.4-.786-.764-1.148-1.187l-1.115-1.232c-.669-.808-1.365-1.639-2-2.447-.446-.557-.858-1.115-1.276-1.633.641.524,1.917,1.527,2.034,1.6a11.04,11.04,0,0,0,5.35,1.432,3.106,3.106,0,0,0,.557.279,2.826,2.826,0,0,0,3.818-1.767c.635-2.3-2.118-5.612-3.9-6.788-.106-.067-1.332-.691-2.107-1.07l1.477.463c1,.307,2.012.585,3.1.886l1.6.385c.557.145,1.115.223,1.672.34,1.31.234,2.642.412,4,.557-.268.881-1.176,4.013-.975,5.6s.886,3.539,2.346,4.381A2.826,2.826,0,0,0,372,347.747c.981-2.179-1.237-5.874-2.826-7.3-.095-.089-1.349-.986-2.045-1.466.814.084,1.622.167,2.447.229,2.38.162,4.8.256,7.206.362l2.229.111c-.095.312-1.254,4.013-1.031,5.791.2,1.583.886,3.539,2.346,4.386a2.831,2.831,0,0,0,4.041-1.17c.981-2.179-1.237-5.874-2.82-7.3-.123-.106-1.923-1.393-2.4-1.7,1.622.084,3.238.178,4.826.34a50.3,50.3,0,0,1,6.37,1.037c-.045.145-1.271,4.007-1.042,5.83.2,1.577.886,3.539,2.346,4.381a2.826,2.826,0,0,0,4.041-1.17c.981-2.179-1.237-5.869-2.826-7.3-.1-.089-1.477-1.076-2.14-1.527a1.2,1.2,0,0,0,.056-.123,35.972,35.972,0,0,1,6.13,2.179c1.115.485,2.107,1.009,3.082,1.544-.3.691-1.644,3.9-1.622,5.573s.5,3.611,1.85,4.615a2.831,2.831,0,0,0,4.146-.719c1.215-2.062-.591-5.974-2.006-7.568-.078-.084-.959-.881-1.605-1.449.435.245.892.5,1.3.741,1.555.914,2.926,1.85,4.13,2.686.686.485,1.287.931,1.856,1.36.056.836.34,4.208,1.115,5.646s2.107,2.982,3.767,3.238a2.82,2.82,0,0,0,3.344-2.547c.128-2.385-3.271-5.016-5.267-5.791-.173-.061-2.982-.786-2.982-.741v.05c-.557-.418-1.115-.864-1.75-1.338-1.193-.869-2.547-1.834-4.085-2.787A51.78,51.78,0,0,0,397.055,343a36.785,36.785,0,0,0-6.131-2.33h-.078c.7,0,2.653-.162,2.787-.184,2.1-.39,5.924-2.374,6.231-4.743a2.826,2.826,0,0,0-2.831-3.11c-1.672-.05-3.3,1.26-4.291,2.5-1.115,1.4-2.084,5.177-2.157,5.478a50.443,50.443,0,0,0-6.565-1.215c-1.287-.162-2.592-.279-3.9-.385l1.215-.095c2.1-.39,5.924-2.374,6.231-4.743a2.826,2.826,0,0,0-2.831-3.11c-1.672-.05-3.3,1.26-4.3,2.5s-1.889,4.459-2.112,5.317l-1.5-.106c-2.408-.156-4.815-.307-7.167-.518-.83-.078-1.644-.184-2.458-.284.557-.039.986-.072,1.053-.084,2.1-.39,5.924-2.374,6.231-4.743a2.826,2.826,0,0,0-2.831-3.11c-1.672-.045-3.3,1.26-4.3,2.5s-1.8,4.158-2.068,5.166c-.836-.134-1.672-.262-2.469-.424-.557-.123-1.076-.206-1.611-.357l-1.6-.424c-1-.307-2.04-.613-3.015-.936-.674-.217-1.315-.44-1.967-.663.825.089,2.447.217,2.58.212,2.135-.061,6.214-1.443,6.877-3.74a2.826,2.826,0,0,0-2.324-3.506c-1.672-.3-3.455.747-4.626,1.828-1.293,1.187-2.787,4.626-2.948,5.06-1.07-.373-2.107-.741-3.082-1.115-3.344-1.243-6.08-2.408-8-3.255l-.819,1.4.134.056c1.956.814,4.776,1.934,8.209,3.132,1.087.379,2.229.764,3.455,1.142a31.04,31.04,0,0,0-.329,3.595,20.6,20.6,0,0,0-5.055,2.553c-.691-.9-1.349-1.778-1.962-2.619-2.1-2.881-3.751-5.361-4.882-7.123L341,334.053c1.154,1.672,2.714,3.9,4.642,6.437.7.914,1.46,1.878,2.229,2.865-.312.34-2.814,3.132-3.344,4.8-.479,1.521-.674,3.589.3,4.966a2.826,2.826,0,0,0,4.158.63c1.8-1.566,1.332-5.852.49-7.8-.05-.111-.725-1.31-1.165-2.057.323.4.635.791.975,1.2.669.814,1.354,1.6,2.1,2.452l1.115,1.209c.362.407.8.8,1.209,1.2.959.92,1.978,1.806,3.021,2.675-.708.585-3.193,2.7-3.9,4.135s-1.215,3.439-.463,4.949a2.831,2.831,0,0,0,4.018,1.254c2.018-1.276,2.229-5.573,1.672-7.646-.033-.128-.557-1.572-.9-2.352.635.518,1.26,1.037,1.917,1.538,1.895,1.455,3.857,2.865,5.807,4.28.6.429,1.193.869,1.783,1.31-.256.206-3.26,2.653-4.057,4.263-.708,1.427-1.215,3.439-.457,4.949a2.826,2.826,0,0,0,4.013,1.254c2.018-1.276,2.2-5.573,1.672-7.646-.039-.156-.836-2.229-1.064-2.742,1.31.964,2.6,1.934,3.834,2.943a49.707,49.707,0,0,1,4.743,4.38c-.117.095-3.266,2.642-4.08,4.286-.708,1.427-1.215,3.444-.463,4.949a2.831,2.831,0,0,0,4.018,1.254c2.018-1.276,2.2-5.573,1.672-7.646-.033-.134-.635-1.711-.936-2.452l.111-.072a36.185,36.185,0,0,1,3.9,5.189c.641,1.009,1.2,2.006,1.717,2.987-.635.412-3.517,2.335-4.414,3.734s-1.583,3.288-1,4.871a2.82,2.82,0,0,0,3.851,1.672c2.146-1.048,2.787-5.306,2.5-7.418,0-.111-.312-1.26-.557-2.1.228.446.468.9.68,1.338.791,1.622,1.421,3.16,1.962,4.52.3.78.557,1.488.8,2.157-.412.73-2.034,3.7-2.185,5.322s.111,3.65,1.36,4.787a2.826,2.826,0,0,0,4.236-.3Z" transform="translate(-166.27 -252.92)" fill="#263238"/>
    </g>
    <g id="freepik--Character--inject-36" transform="translate(87.437 31.739)">
      <rect id="Rectangle_5315" data-name="Rectangle 5315" width="138.293" height="218.315" transform="translate(0 0)" fill="#fff" stroke="#263238" stroke-miterlimit="10" stroke-width="1"/>
      <rect id="Rectangle_5316" data-name="Rectangle 5316" width="131.488" height="207.704" transform="translate(3.4 5.306)" fill="#263238" stroke="#263238" stroke-miterlimit="10" stroke-width="1"/>
      <rect id="Rectangle_5317" data-name="Rectangle 5317" width="92.086" height="27.615" transform="translate(23.101 174.961)" fill="#636363"/>
      <g id="Group_8634" data-name="Group 8634" transform="translate(25.765 174.961)" opacity="0.2">
        <path id="Path_34216" data-name="Path 34216" d="M290.841,352.56H277.51L249.9,380.175h13.325Z" transform="translate(-208.302 -352.56)" fill="#fff"/>
        <path id="Path_34217" data-name="Path 34217" d="M175.26,380.175h5.367l27.61-27.615H202.87Z" transform="translate(-175.26 -352.56)" fill="#fff"/>
      </g>
      <path id="Path_34236" data-name="Path 34236" d="M229.669,357.44l.908,2.787H233.5l-2.369,1.722.908,2.781-2.374-1.717L227.3,364.73l.908-2.781-2.369-1.722h2.926Z" transform="translate(-171.886 -179.759)" fill="#fff"/>
      <path id="Path_34237" data-name="Path 34237" d="M250.784,357.44l.9,2.787h2.931l-2.374,1.722.908,2.781-2.369-1.717-2.369,1.717.9-2.781-2.369-1.722h2.926Z" transform="translate(-181.231 -179.759)" fill="#fff"/>
      <path id="Path_34238" data-name="Path 34238" d="M271.894,357.44l.908,2.787h2.926l-2.369,1.722.9,2.781-2.369-1.717-2.369,1.717.9-2.781-2.369-1.722h2.931Z" transform="translate(-190.576 -179.759)" fill="#fff"/>
      <circle id="Ellipse_3224" data-name="Ellipse 3224" cx="1.338" cy="1.338" r="1.338" transform="translate(109.881 177.809)" fill="#fff"/>
      <circle id="Ellipse_3225" data-name="Ellipse 3225" cx="1.338" cy="1.338" r="1.338" transform="translate(109.881 197.455)" fill="#fff"/>
      <circle id="Ellipse_3226" data-name="Ellipse 3226" cx="1.338" cy="1.338" r="1.338" transform="translate(25.391 177.809)" fill="#fff"/>
      <circle id="Ellipse_3227" data-name="Ellipse 3227" cx="1.338" cy="1.338" r="1.338" transform="translate(25.391 197.455)" fill="#fff"/>
      <rect id="Rectangle_5318" data-name="Rectangle 5318" width="116.842" height="150.85" transform="translate(10.723 11.057)" fill="#fff" stroke="#263238" stroke-miterlimit="10" stroke-width="1"/>
      <path id="Path_34239" data-name="Path 34239" d="M219.311,121.845s-2.664-6.621-2.865-10.923.1-10.806,1.6-11.9,7.006-4,8.5-5.807,3.5-6.2,15.4-4.1,15.009,11.107,18.314,17.009-.5,6.688-1,7.507-1.8,2.6-1.8,4a13.623,13.623,0,0,0,.3,2.7s-.908,3.584-2.58,2.1-4.6-10.907-4.6-10.907-13.376.6-19.205-3.706l-5.807-4.3s-3.8,10.405-3.8,12.818.2,6.2-1.115,6.3S219.311,121.845,219.311,121.845Z" transform="translate(-167.703 -63.382)" fill="#6e6e6e" stroke="#263238" stroke-miterlimit="10" stroke-width="1"/>
      <path id="Path_34240" data-name="Path 34240" d="M271.07,121.19a17.8,17.8,0,0,0,7.245,1.672" transform="translate(-191.908 -77.293)" fill="none" stroke="#263238" stroke-miterlimit="10" stroke-width="1"/>
      <path id="Path_34241" data-name="Path 34241" d="M247.57,104.22a49.7,49.7,0,0,0,11.514,8.694" transform="translate(-181.505 -70.318)" fill="none" stroke="#263238" stroke-miterlimit="10" stroke-width="1"/>
      <path id="Path_34242" data-name="Path 34242" d="M291.77,122.51a5.5,5.5,0,0,1,1.388,1.945" transform="translate(-201.072 -77.867)" fill="none" stroke="#263238" stroke-miterlimit="10" stroke-width="1"/>
      <path id="Path_34243" data-name="Path 34243" d="M249.88,94.249c.245,0,.507-.033.791-.039,4.865-.084,16.72,9.775,21.708,14.875" transform="translate(-182.528 -65.887)" fill="none" stroke="#263238" stroke-miterlimit="10" stroke-width="1"/>
      <path id="Path_34244" data-name="Path 34244" d="M244.229,98.06a2,2,0,0,1,1.3-3.31" transform="translate(-179.803 -66.126)" fill="none" stroke="#263238" stroke-miterlimit="10" stroke-width="1"/>
      <path id="Path_34245" data-name="Path 34245" d="M218.753,120a3.411,3.411,0,0,0-.613,1.672c0,3.171,1.115,8.861,1.421,8.967" transform="translate(-168.477 -76.751)" fill="none" stroke="#263238" stroke-miterlimit="10" stroke-width="1"/>
      <path id="Path_34246" data-name="Path 34246" d="M225.514,109.62a34.365,34.365,0,0,0-5.194,4.949" transform="translate(-169.442 -72.709)" fill="none" stroke="#263238" stroke-miterlimit="10" stroke-width="1"/>
      <path id="Path_34247" data-name="Path 34247" d="M233.8,105.4s-.725.507-1.778,1.31" transform="translate(-174.622 -70.841)" fill="none" stroke="#263238" stroke-miterlimit="10" stroke-width="1"/>
      <path id="Path_34248" data-name="Path 34248" d="M225.74,118.15s-2.954,2.731-2.842,3.717a5.975,5.975,0,0,0,.658,1.967" transform="translate(-170.582 -75.958)" fill="none" stroke="#263238" stroke-miterlimit="10" stroke-width="1"/>
      <path id="Path_34249" data-name="Path 34249" d="M255.589,214.692c-2.658-3.545-32.592-21.54-32.592-21.54l-16.073-1.36v-.061l-.368.033-.368-.033v.061l-16.073,1.36s-29.939,18-32.614,21.54-9.441,56.289-9.441,56.289H265.019S258.237,218.236,255.589,214.692Z" transform="translate(-137.454 -107.448)" fill="#f8951d" stroke="#263238" stroke-miterlimit="10" stroke-width="1"/>
      <path id="Path_34250" data-name="Path 34250" d="M294.737,276.957l-1.377,18.3,4.815-7.2,4.158,7.245-2.352-19.194Z" transform="translate(-201.776 -144.658)" fill="#263238" stroke="#263238" stroke-miterlimit="10" stroke-width="1"/>
      <path id="Path_34251" data-name="Path 34251" d="M300.905,259.278l.4-2.809-2.513-1.321-1.332-2.5-2.814.407-2.552-1.243-2.029,1.984-2.8.5-.474,2.8-1.978,2.045,1.265,2.541-.4,2.814,2.513,1.321,1.332,2.5,2.815-.407,2.552,1.243,2.029-1.984,2.8-.5.479-2.8,1.973-2.045Z" transform="translate(-197.991 -134.099)" fill="#fff" stroke="#263238" stroke-miterlimit="10" stroke-width="1"/>
      <circle id="Ellipse_3228" data-name="Ellipse 3228" cx="6.019" cy="6.019" r="6.019" transform="matrix(0.577, -0.817, 0.817, 0.577, 87.114, 127.836)" fill="#fff" stroke="#263238" stroke-miterlimit="10" stroke-width="1"/>
      <path id="Path_34252" data-name="Path 34252" d="M173.21,273.611c1.115-7.117,2.614-14.334,4.5-19.261" transform="translate(-148.588 -135.189)" fill="none" stroke="#263238" stroke-miterlimit="10" stroke-width="1"/>
      <path id="Path_34253" data-name="Path 34253" d="M168.25,315.2s.713-9.653,2.268-20.4" transform="translate(-146.392 -152.779)" fill="none" stroke="#263238" stroke-miterlimit="10" stroke-width="1"/>
      <path id="Path_34254" data-name="Path 34254" d="M326.1,263.63c1.009,9.335,2.971,29.354,2.307,37.987" transform="translate(-216.269 -139.052)" fill="none" stroke="#263238" stroke-miterlimit="10" stroke-width="1"/>
      <path id="Path_34255" data-name="Path 34255" d="M325.11,254.75s.117,1.02.312,2.759" transform="translate(-215.831 -135.486)" fill="none" stroke="#263238" stroke-miterlimit="10" stroke-width="1"/>
      <path id="Path_34256" data-name="Path 34256" d="M233.452,208.572l6.376,11.052L230.76,274.9h17.717l-5.105-55,8.789-13.041-10.489-6.236Z" transform="translate(-174.064 -111.352)" fill="#636363" stroke="#263238" stroke-miterlimit="10" stroke-width="1"/>
      <path id="Path_34257" data-name="Path 34257" d="M235.59,209.705l4.381,7.591,11.949-5.763L254.3,208l-8.092-4.81-7.736,3.734Z" transform="translate(-176.202 -112.957)" fill="#263238" stroke="#263238" stroke-miterlimit="10" stroke-width="1"/>
      <path id="Path_34258" data-name="Path 34258" d="M246.889,303.17l-14.462,6.978L230.76,320.3h3.634l13.482-6.5Z" transform="translate(-174.064 -156.454)" fill="#263238" stroke="#263238" stroke-miterlimit="10" stroke-width="1"/>
      <path id="Path_34259" data-name="Path 34259" d="M248.625,281.118l-.981-10.628-9.385,4.525L236.28,287.07Z" transform="translate(-176.507 -142.235)" fill="#263238" stroke="#263238" stroke-miterlimit="10" stroke-width="1"/>
      <path id="Path_34260" data-name="Path 34260" d="M249.632,248.438l-.986-10.628-4.3,2.079-1.973,12.055Z" transform="translate(-179.203 -128.029)" fill="#263238" stroke="#263238" stroke-miterlimit="10" stroke-width="1"/>
      <path id="Path_34261" data-name="Path 34261" d="M221.521,185.876s-2.837,3.26-2.976,6.944,1.984,15.454,2.692,16.87,1.421-1.276,3.684-3.968,9.218-7.518,9.218-7.518h6.521s5.1,3.4,6.236,6.1,1.555,6.944,2.831,6.515,6.688-13.465,7.089-17-3.26-7.942-3.26-7.942-10.773,5.813-17.009,5.389S221.521,185.876,221.521,185.876Z" transform="translate(-168.654 -105.358)" fill="#f8951d" stroke="#263238" stroke-miterlimit="10" stroke-width="1"/>
      <path id="Path_34262" data-name="Path 34262" d="M218.368,143.807s-1.783-4.381-4.052-2.107-.646,6.158.323,8.917a19.674,19.674,0,0,0,2.6,4.86Z" transform="translate(-166.275 -85.902)" fill="#fff" stroke="#263238" stroke-miterlimit="10" stroke-width="1"/>
      <path id="Path_34263" data-name="Path 34263" d="M286.68,143.989s1.115-4.1,3.6-1.115-.3,8.5-1.3,10.2l-1.3,2.2Z" transform="translate(-198.819 -86.227)" fill="#fff" stroke="#263238" stroke-miterlimit="10" stroke-width="1"/>
      <path id="Path_34264" data-name="Path 34264" d="M232.755,107.29s1.945,11.18,21.875,11.018c0,0,2.274,12.317,3.082,16.368s1.3,9.564-1.3,14.914-6.788,8.427-11.018,11.826-9.4,3.9-13.125,1.46-11.347-10.032-12.818-15.555.652-13.13.975-17.182S221.57,109.882,232.755,107.29Z" transform="translate(-168.831 -71.081)" fill="#fff" stroke="#263238" stroke-miterlimit="10" stroke-width="1"/>
      <ellipse id="Ellipse_3229" data-name="Ellipse 3229" cx="0.903" cy="1.549" rx="0.903" ry="1.549" transform="translate(61.946 54.921)" fill="#263238"/>
      <path id="Path_34265" data-name="Path 34265" d="M267.48,142.269c0,.858-.407,1.549-.9,1.549s-.9-.691-.9-1.549.4-1.549.9-1.549S267.48,141.433,267.48,142.269Z" transform="translate(-189.522 -85.799)" fill="#263238"/>
      <path id="Path_34266" data-name="Path 34266" d="M245.57,178.24s1.6,2.4,6.905.4" transform="translate(-180.62 -102.155)" fill="none" stroke="#263238" stroke-miterlimit="10" stroke-width="1"/>
      <path id="Path_34267" data-name="Path 34267" d="M232.46,189.91s6.008,5.8,8.2,6.2,6.8.3,8.209-.5,4.9-5.2,4.9-5.2" transform="translate(-174.816 -107.215)" fill="none" stroke="#263238" stroke-miterlimit="10" stroke-width="1"/>
      <path id="Path_34268" data-name="Path 34268" d="M230.307,134.14a6.532,6.532,0,0,1,5.016-2.4c3.115.1,4.9.7,4.5,1.115s-1.5.7-4.5,1.115S230.207,134.942,230.307,134.14Z" transform="translate(-173.862 -81.884)" fill="#6e6e6e" stroke="#263238" stroke-miterlimit="10" stroke-width="1"/>
      <path id="Path_34269" data-name="Path 34269" d="M270.915,134.14a6.545,6.545,0,0,0-5.016-2.4c-3.11.1-4.9.7-4.5,1.115s1.5.7,4.5,1.115S271.01,134.942,270.915,134.14Z" transform="translate(-187.601 -81.884)" fill="#6e6e6e" stroke="#263238" stroke-miterlimit="10" stroke-width="1"/>
      <path id="Path_34270" data-name="Path 34270" d="M232.46,169.08a34.546,34.546,0,0,0,1.3,3.606" transform="translate(-174.816 -98.154)" fill="none" stroke="#263238" stroke-miterlimit="10" stroke-width="1"/>
      <path id="Path_34271" data-name="Path 34271" d="M271.551,169.62a30.791,30.791,0,0,1-2.1,4.9" transform="translate(-191.191 -98.383)" fill="none" stroke="#263238" stroke-miterlimit="10" stroke-width="1"/>
      <path id="Path_34272" data-name="Path 34272" d="M240.546,163.7s-3.2,1.5-4.9,1.5-3.706-2.1-3.9.3,5.7,4.5,9.2,4.9a30.975,30.975,0,0,0,10.3-.8,7.669,7.669,0,0,0,4.2-3.7c.7-1.605.6-1.9-.5-1.705s-1.705.7-2.9.6a42.917,42.917,0,0,1-4.7-.9Z" transform="translate(-174.498 -95.797)" fill="#6e6e6e" stroke="#263238" stroke-miterlimit="10" stroke-width="1"/>
      <path id="Path_34273" data-name="Path 34273" d="M246.04,154.2s-1.7,2.7-1.4,3.506,2.6,3.3,5.105,3.1,5.3-2.3,5.4-3.4-2.1-3.405-2.1-3.405" transform="translate(-180.193 -91.571)" fill="#fff" stroke="#263238" stroke-miterlimit="10" stroke-width="1"/>
      <path id="Path_34274" data-name="Path 34274" d="M231.086,136.95h9.123a1.672,1.672,0,0,1,1.672,1.672v1.839a5.573,5.573,0,0,1-5.573,5.573h-1.365a5.573,5.573,0,0,1-5.573-5.573v-1.811a1.672,1.672,0,0,1,1.717-1.7Z" transform="translate(-173.448 -84.137)" fill="none" stroke="#263238" stroke-miterlimit="10" stroke-width="1"/>
      <path id="Path_34275" data-name="Path 34275" d="M258.372,136.949h9.118a1.672,1.672,0,0,1,1.672,1.672v1.839a5.573,5.573,0,0,1-5.573,5.573h-1.365a5.573,5.573,0,0,1-5.573-5.573v-1.811a1.672,1.672,0,0,1,1.722-1.7Z" transform="translate(-185.525 -84.137)" fill="none" stroke="#263238" stroke-miterlimit="10" stroke-width="1"/>
      <path id="Path_34276" data-name="Path 34276" d="M251.67,140.513s1.7-1.605,2.7,0" transform="translate(-183.32 -85.405)" fill="none" stroke="#263238" stroke-miterlimit="10" stroke-width="1"/>
      <line id="Line_624" data-name="Line 624" x2="4.102" transform="translate(83.76 55.921)" fill="none" stroke="#263238" stroke-miterlimit="10" stroke-width="1"/>
      <line id="Line_625" data-name="Line 625" x2="4.102" transform="translate(51.942 55.921)" fill="none" stroke="#263238" stroke-miterlimit="10" stroke-width="1"/>
      <path id="Path_34277" data-name="Path 34277" d="M245.338,146.28s0,2.1-3,3" transform="translate(-179.19 -88.222)" fill="none" stroke="#263238" stroke-miterlimit="10" stroke-width="1"/>
      <path id="Path_34278" data-name="Path 34278" d="M260.108,145.74s-.2,2.2,2.7,2.9" transform="translate(-187.054 -87.987)" fill="none" stroke="#263238" stroke-miterlimit="10" stroke-width="1"/>
      <line id="Line_626" data-name="Line 626" x1="21.033" y2="24.333" transform="translate(99.665 21.841)" fill="none" stroke="#263238" stroke-miterlimit="10" stroke-width="1"/>
      <line id="Line_627" data-name="Line 627" x1="2.77" y2="3.199" transform="translate(123.14 15.811)" fill="none" stroke="#263238" stroke-miterlimit="10" stroke-width="1"/>
      <line id="Line_628" data-name="Line 628" x1="4.146" y2="4.804" transform="translate(99.292 69.983)" fill="none" stroke="#263238" stroke-miterlimit="10" stroke-width="1"/>
      <line id="Line_629" data-name="Line 629" x1="5.947" y2="6.883" transform="translate(105.01 61.187)" fill="none" stroke="#263238" stroke-miterlimit="10" stroke-width="1"/>
      <line id="Line_630" data-name="Line 630" x1="11.665" y2="13.493" transform="translate(29.187 147.433)" fill="none" stroke="#263238" stroke-miterlimit="10" stroke-width="1"/>
      <path id="Path_34305" data-name="Path 34305" d="M-36,0h-4.17V-7h1.577v5.723H-36Zm5.283-2.061h-3.262Q-33.9-.972-32.6-.972a2.679,2.679,0,0,0,1.45-.391V-.249a3.81,3.81,0,0,1-1.8.371,2.536,2.536,0,0,1-1.88-.671,2.537,2.537,0,0,1-.669-1.873,2.676,2.676,0,0,1,.723-1.973,2.408,2.408,0,0,1,1.777-.728,2.185,2.185,0,0,1,1.692.649,2.5,2.5,0,0,1,.6,1.763Zm-1.431-.947q0-1.074-.869-1.074a.83.83,0,0,0-.642.308,1.4,1.4,0,0,0-.33.767ZM-24.9-.571A2.829,2.829,0,0,1-25.7,1.584a3.265,3.265,0,0,1-2.334.764,3.7,3.7,0,0,1-1.6-.288V.762a3.067,3.067,0,0,0,1.558.449A1.678,1.678,0,0,0-26.868.8a1.481,1.481,0,0,0,.43-1.121v-.4h-.02a1.723,1.723,0,0,1-1.558.84,1.874,1.874,0,0,1-1.519-.674A2.733,2.733,0,0,1-30.1-2.358a3.044,3.044,0,0,1,.625-2.017,2.04,2.04,0,0,1,1.646-.747,1.518,1.518,0,0,1,1.367.7h.02V-5H-24.9ZM-26.418-2.4v-.4a1.215,1.215,0,0,0-.281-.808.908.908,0,0,0-.73-.334.944.944,0,0,0-.806.4,1.883,1.883,0,0,0-.293,1.128,1.589,1.589,0,0,0,.278.989.907.907,0,0,0,.762.364.944.944,0,0,0,.774-.369A1.512,1.512,0,0,0-26.418-2.4ZM-19.446,0h-1.46V-.718h-.02a1.63,1.63,0,0,1-1.489.84A1.558,1.558,0,0,1-23.56-.291a1.478,1.478,0,0,1-.417-1.1q0-1.455,1.724-1.68l1.357-.181q0-.82-.889-.82a3.033,3.033,0,0,0-1.7.532V-4.7A3.823,3.823,0,0,1-22.6-5a4.633,4.633,0,0,1,1.018-.127,1.888,1.888,0,0,1,2.139,2.134ZM-20.9-2.031v-.337l-.908.117q-.752.1-.752.679a.561.561,0,0,0,.183.432.7.7,0,0,0,.5.168.913.913,0,0,0,.708-.3A1.085,1.085,0,0,0-20.9-2.031ZM-16.682,0h-1.543V-7.4h1.543Zm7.319-3.608a1.338,1.338,0,0,0-.649-.151.936.936,0,0,0-.786.369,1.608,1.608,0,0,0-.283,1V0h-1.543V-5h1.543v.928h.02A1.335,1.335,0,0,1-9.744-5.088a.994.994,0,0,1,.381.059Zm5.171,1.548H-7.454Q-7.375-.972-6.082-.972a2.679,2.679,0,0,0,1.45-.391V-.249a3.81,3.81,0,0,1-1.8.371,2.536,2.536,0,0,1-1.88-.671,2.537,2.537,0,0,1-.669-1.873,2.676,2.676,0,0,1,.723-1.973,2.408,2.408,0,0,1,1.777-.728,2.185,2.185,0,0,1,1.692.649,2.5,2.5,0,0,1,.6,1.763Zm-1.431-.947q0-1.074-.869-1.074a.83.83,0,0,0-.642.308,1.4,1.4,0,0,0-.33.767ZM.515-.181a3.051,3.051,0,0,1-1.509.3,2.552,2.552,0,0,1-1.865-.7,2.412,2.412,0,0,1-.713-1.8,2.657,2.657,0,0,1,.764-2.009A2.824,2.824,0,0,1-.764-5.122a2.622,2.622,0,0,1,1.279.234v1.309A1.759,1.759,0,0,0-.564-3.94a1.422,1.422,0,0,0-1.052.388A1.448,1.448,0,0,0-2-2.48a1.425,1.425,0,0,0,.371,1.042A1.364,1.364,0,0,0-.613-1.06,2.037,2.037,0,0,0,.515-1.421Zm3.394.3a2.688,2.688,0,0,1-1.965-.7,2.54,2.54,0,0,1-.715-1.9A2.54,2.54,0,0,1,1.97-4.421a2.8,2.8,0,0,1,2.007-.7,2.655,2.655,0,0,1,1.953.7,2.491,2.491,0,0,1,.708,1.853A2.644,2.644,0,0,1,5.908-.6,2.718,2.718,0,0,1,3.909.122ZM3.948-3.94a1.029,1.029,0,0,0-.85.376A1.658,1.658,0,0,0,2.8-2.5q0,1.44,1.162,1.44,1.108,0,1.108-1.479Q5.066-3.94,3.948-3.94ZM12.542-.571a2.829,2.829,0,0,1-.806,2.156A3.265,3.265,0,0,1,9.4,2.349a3.7,3.7,0,0,1-1.6-.288V.762a3.067,3.067,0,0,0,1.558.449A1.678,1.678,0,0,0,10.569.8,1.481,1.481,0,0,0,11-.322v-.4h-.02a1.723,1.723,0,0,1-1.558.84A1.874,1.874,0,0,1,7.9-.552a2.733,2.733,0,0,1-.562-1.807,3.044,3.044,0,0,1,.625-2.017,2.04,2.04,0,0,1,1.646-.747,1.518,1.518,0,0,1,1.367.7H11V-5h1.543ZM11.018-2.4v-.4a1.215,1.215,0,0,0-.281-.808.908.908,0,0,0-.73-.334.944.944,0,0,0-.806.4,1.883,1.883,0,0,0-.293,1.128,1.589,1.589,0,0,0,.278.989.907.907,0,0,0,.762.364.944.944,0,0,0,.774-.369A1.512,1.512,0,0,0,11.018-2.4ZM18.66,0H17.122V-2.778q0-1.162-.83-1.162a.824.824,0,0,0-.659.308,1.172,1.172,0,0,0-.259.781V0H13.831V-5h1.543v.791h.02A1.768,1.768,0,0,1,17-5.122q1.66,0,1.66,2.061Zm2-5.791a.9.9,0,0,1-.64-.232.747.747,0,0,1-.249-.569.721.721,0,0,1,.249-.566.931.931,0,0,1,.64-.22.929.929,0,0,1,.642.22.724.724,0,0,1,.247.566.744.744,0,0,1-.247.576A.917.917,0,0,1,20.662-5.791ZM21.423,0H19.88V-5h1.543Zm4.321-.059a2.281,2.281,0,0,1-1.03.181q-1.631,0-1.631-1.694v-2.29h-.811V-5h.811V-6.079l1.538-.439V-5h1.123v1.138H24.622v2.021q0,.781.62.781a1.045,1.045,0,0,0,.5-.142ZM27.4-5.791a.9.9,0,0,1-.64-.232.747.747,0,0,1-.249-.569.721.721,0,0,1,.249-.566.931.931,0,0,1,.64-.22.929.929,0,0,1,.642.22.724.724,0,0,1,.247.566.744.744,0,0,1-.247.576A.917.917,0,0,1,27.4-5.791ZM28.157,0H26.614V-5h1.543Zm3.682.122a2.688,2.688,0,0,1-1.965-.7,2.54,2.54,0,0,1-.715-1.9A2.54,2.54,0,0,1,29.9-4.421a2.8,2.8,0,0,1,2.007-.7,2.655,2.655,0,0,1,1.953.7,2.491,2.491,0,0,1,.708,1.853A2.644,2.644,0,0,1,33.838-.6,2.718,2.718,0,0,1,31.838.122Zm.039-4.062a1.029,1.029,0,0,0-.85.376,1.658,1.658,0,0,0-.3,1.064q0,1.44,1.162,1.44Q33-1.06,33-2.539,33-3.94,31.877-3.94ZM40.4,0H38.86V-2.778q0-1.162-.83-1.162a.824.824,0,0,0-.659.308,1.172,1.172,0,0,0-.259.781V0H35.569V-5h1.543v.791h.02a1.768,1.768,0,0,1,1.606-.913q1.66,0,1.66,2.061Z" transform="translate(69.722 194.332)" fill="#fff"/>
    </g>
    <g id="freepik--Confetti--inject-36" transform="translate(33.69 17.07)">
      <path id="Path_34279" data-name="Path 34279" d="M83.1,219.234l-1.778,5.339s8.917,3.115,12.9-2.67l-.446-4.893S86.659,224.144,83.1,219.234Z" transform="translate(-55.452 -104.365)" fill="#bdbdbd"/>
      <path id="Path_34280" data-name="Path 34280" d="M315.408,453.164,313.63,458.5s8.917,3.115,12.9-2.67l-.446-4.893S318.969,458.057,315.408,453.164Z" transform="translate(-156.512 -206.481)" fill="#bdbdbd"/>
      <path id="Path_34281" data-name="Path 34281" d="M400.115,255.249,399,258.565s5.523,1.934,8.009-1.672l-.279-3.043S402.344,258.286,400.115,255.249Z" transform="translate(-193.476 -120.468)" fill="#bdbdbd"/>
      <path id="Path_34282" data-name="Path 34282" d="M416.789,79.554,415,84.893s8.917,3.115,12.9-2.67l-.446-4.893S420.35,84.447,416.789,79.554Z" transform="translate(-200.559 -43.746)" fill="#bdbdbd"/>
      <path id="Path_34283" data-name="Path 34283" d="M95.509,75.624,91.351,71.84S84.9,78.712,88.565,84.714l4.659,1.577S89.6,76.9,95.509,75.624Z" transform="translate(-58.16 -41.316)" fill="#bdbdbd"/>
      <path id="Path_34284" data-name="Path 34284" d="M434,345.46l-4.163-3.79s-6.448,6.877-2.787,12.88l4.659,1.572S428.083,346.73,434,345.46Z" transform="translate(-205.393 -158.741)" fill="#bdbdbd"/>
      <path id="Path_34285" data-name="Path 34285" d="M306.768,75.177l-3.06-2.787s-4.737,5.055-2.045,9.474l3.422,1.159S302.421,76.113,306.768,75.177Z" transform="translate(-150.98 -41.559)" fill="#bdbdbd"/>
      <path id="Path_34286" data-name="Path 34286" d="M211.768,267.577l-3.06-2.787s-4.737,5.055-2.045,9.474l3.422,1.154S207.421,268.513,211.768,267.577Z" transform="translate(-109.514 -125.212)" fill="#bdbdbd"/>
      <path id="Path_34287" data-name="Path 34287" d="M60.886,298.707l-3.06-2.787s-4.743,5.055-2.045,9.474l3.422,1.159S56.539,299.643,60.886,298.707Z" transform="translate(-43.779 -138.801)" fill="#bdbdbd"/>
      <path id="Path_34288" data-name="Path 34288" d="M97.906,394.99l-4.163-3.79s-6.448,6.877-2.787,12.88l4.654,1.577S91.987,396.244,97.906,394.99Z" transform="translate(-59.22 -180.035)" fill="#bdbdbd"/>
      <path id="Path_34289" data-name="Path 34289" d="M55.329,133.59l-4.158-3.79s-6.454,6.877-2.787,12.88l4.659,1.572S49.416,134.86,55.329,133.59Z" transform="translate(-40.374 -66.271)" fill="#f8951d"/>
      <path id="Path_34290" data-name="Path 34290" d="M415.374,171.11l-4.163-3.79s-6.454,6.877-2.787,12.88l4.654,1.572S409.456,172.38,415.374,171.11Z" transform="translate(-197.149 -82.646)" fill="#f8951d"/>
      <path id="Path_34291" data-name="Path 34291" d="M451.892,313.387l3.344-4.514s-7.479-5.735-13.091-1.494l-1.115,4.787S450.036,307.629,451.892,313.387Z" transform="translate(-212.082 -143.143)" fill="#f8951d"/>
      <path id="Path_34292" data-name="Path 34292" d="M176.187,445.19l-4.4,3.506s5.768,7.457,12.261,4.787l2.291-4.347S176.51,451.215,176.187,445.19Z" transform="translate(-94.622 -203.936)" fill="#f8951d"/>
      <path id="Path_34293" data-name="Path 34293" d="M151.153,173.84l-2.753,2.2s3.611,4.67,7.685,3l1.438-2.72S151.354,177.624,151.153,173.84Z" transform="translate(-84.435 -85.527)" fill="#f8951d"/>
      <path id="Path_34294" data-name="Path 34294" d="M220.824,17.46l-3.506-.39s-.741,5.857,3.344,7.552l2.92-.9S218.288,20.28,220.824,17.46Z" transform="translate(-114.502 -17.07)" fill="#f8951d"/>
      <path id="Path_34295" data-name="Path 34295" d="M434.768,437.38l-3.5-.39s-.741,5.857,3.344,7.552l2.937-.914S432.238,440.2,434.768,437.38Z" transform="translate(-207.737 -200.306)" fill="#f8951d"/>
      <path id="Path_34296" data-name="Path 34296" d="M38.436,439.407,34.958,439s-.741,5.857,3.344,7.552l2.937-.914S35.9,442.227,38.436,439.407Z" transform="translate(-34.906 -201.196)" fill="#f8951d"/>
      <path id="Path_34297" data-name="Path 34297" d="M93.135,164.34l-6.225,3.115L91.8,171.9Z" transform="translate(-57.927 -81.372)" fill="#bdbdbd"/>
      <path id="Path_34298" data-name="Path 34298" d="M101.14,459.21l4.793,5.055,2.831-5.974Z" transform="translate(-64.226 -209.735)" fill="#bdbdbd"/>
      <path id="Path_34299" data-name="Path 34299" d="M416,26.015l4.793,5.049,2.831-5.974Z" transform="translate(-201.001 -20.62)" fill="#bdbdbd"/>
      <path id="Path_34300" data-name="Path 34300" d="M416.169,402.671l-.139-6.961-6.119,2.513Z" transform="translate(-198.305 -182.032)" fill="#f8951d"/>
      <path id="Path_34301" data-name="Path 34301" d="M92.369,316.881l-.145-6.961-6.114,2.514Z" transform="translate(-57.573 -144.94)" fill="#f8951d"/>
      <path id="Path_34302" data-name="Path 34302" d="M176.989,89.356l-.139-6.966-6.119,2.519Z" transform="translate(-94.19 -45.986)" fill="#f8951d"/>
      <path id="Path_34303" data-name="Path 34303" d="M80.617,22.73,74.28,25.622l4.737,4.62Z" transform="translate(-52.336 -19.576)" fill="#f8951d"/>
      <path id="Path_34304" data-name="Path 34304" d="M445.969,130.871l-.145-6.961-6.114,2.514Z" transform="translate(-211.497 -63.721)" fill="#f8951d"/>
    </g>
  </g>
</svg>
