<svg xmlns="http://www.w3.org/2000/svg" width="250" height="186.28" viewBox="0 0 250 186.28">
  <g id="limited-risk" transform="translate(0 -55)">
    <g id="freepik--background-complete--inject-2" transform="translate(0 55)">
      <rect id="Rectangle_5674" data-name="Rectangle 5674" width="250" height="0.125" transform="translate(0 163.7)" fill="#ebebeb"/>
      <rect id="Rectangle_5675" data-name="Rectangle 5675" width="16.56" height="0.125" transform="translate(208.39 171.745)" fill="#ebebeb"/>
      <rect id="Rectangle_5676" data-name="Rectangle 5676" width="4.345" height="0.125" transform="translate(161.265 173.105)" fill="#ebebeb"/>
      <rect id="Rectangle_5677" data-name="Rectangle 5677" width="9.595" height="0.125" transform="translate(198.295 167.105)" fill="#ebebeb"/>
      <rect id="Rectangle_5678" data-name="Rectangle 5678" width="21.595" height="0.125" transform="translate(26.23 167.945)" fill="#ebebeb"/>
      <rect id="Rectangle_5679" data-name="Rectangle 5679" width="3.165" height="0.125" transform="translate(52.28 167.945)" fill="#ebebeb"/>
      <rect id="Rectangle_5680" data-name="Rectangle 5680" width="46.84" height="0.125" transform="translate(65.735 170.055)" fill="#ebebeb"/>
      <path id="Path_38748" data-name="Path 38748" d="M137.6,196.4H41.06a2.855,2.855,0,0,1-2.85-2.855V57.83A2.855,2.855,0,0,1,41.06,55H137.6a2.855,2.855,0,0,1,2.855,2.855v135.69A2.855,2.855,0,0,1,137.6,196.4ZM41.06,55.1a2.73,2.73,0,0,0-2.725,2.73V193.545a2.73,2.73,0,0,0,2.725,2.73H137.6a2.735,2.735,0,0,0,2.73-2.73V57.83a2.735,2.735,0,0,0-2.73-2.73Z" transform="translate(-19.105 -55)" fill="#ebebeb"/>
      <path id="Path_38749" data-name="Path 38749" d="M353.9,196.4h-96.55a2.86,2.86,0,0,1-2.855-2.855V57.83A2.86,2.86,0,0,1,257.355,55H353.9a2.855,2.855,0,0,1,2.845,2.83V193.545A2.855,2.855,0,0,1,353.9,196.4ZM257.355,55.1a2.735,2.735,0,0,0-2.73,2.73V193.545a2.735,2.735,0,0,0,2.73,2.73H353.9a2.735,2.735,0,0,0,2.73-2.73V57.83a2.735,2.735,0,0,0-2.73-2.73Z" transform="translate(-127.25 -55)" fill="#ebebeb"/>
      <rect id="Rectangle_5681" data-name="Rectangle 5681" width="145.895" height="68.26" transform="translate(50.645 10.58)" fill="#e6e6e6"/>
      <rect id="Rectangle_5682" data-name="Rectangle 5682" width="147.065" height="68.26" transform="translate(51.67 10.58)" fill="#f0f0f0"/>
      <rect id="Rectangle_5683" data-name="Rectangle 5683" width="145.895" height="3.48" transform="translate(50.645 78.84)" fill="#e6e6e6"/>
      <rect id="Rectangle_5684" data-name="Rectangle 5684" width="147.065" height="3.48" transform="translate(55.33 78.84)" fill="#f0f0f0"/>
      <rect id="Rectangle_5685" data-name="Rectangle 5685" width="62.105" height="140.91" transform="translate(195.66 13.66) rotate(90)" fill="#fafafa"/>
      <path id="Path_38750" data-name="Path 38750" d="M139.73,144.425l8.565-62.105H161.66L153.1,144.425Z" transform="translate(-69.865 -68.66)" fill="#fff"/>
      <path id="Path_38751" data-name="Path 38751" d="M112.12,143.14a.22.22,0,0,1-.22-.22V86.1a.22.22,0,0,1,.44,0v56.84A.215.215,0,0,1,112.12,143.14Z" transform="translate(-55.95 -70.44)" fill="#f0f0f0"/>
      <path id="Path_38752" data-name="Path 38752" d="M172.2,144.425l8.565-62.105h5.21l-8.565,62.105Z" transform="translate(-86.1 -68.66)" fill="#fff"/>
      <rect id="Rectangle_5686" data-name="Rectangle 5686" width="62.105" height="0.39" transform="translate(195.66 13.66) rotate(90)" fill="#e6e6e6"/>
      <path id="Path_38753" data-name="Path 38753" d="M252.745,88.155H106.855l-.285-3.445H252.465Z" transform="translate(-53.285 -69.855)" fill="#ebebeb" opacity="0.6"/>
      <path id="Path_38754" data-name="Path 38754" d="M252.745,99.445H106.855L106.57,96H252.465Z" transform="translate(-53.285 -75.5)" fill="#ebebeb" opacity="0.6"/>
      <path id="Path_38755" data-name="Path 38755" d="M252.745,110.745H106.855l-.285-3.445H252.465Z" transform="translate(-53.285 -81.15)" fill="#ebebeb" opacity="0.6"/>
      <path id="Path_38756" data-name="Path 38756" d="M252.745,122.035H106.855l-.285-3.445H252.465Z" transform="translate(-53.285 -86.795)" fill="#ebebeb" opacity="0.6"/>
      <path id="Path_38757" data-name="Path 38757" d="M252.745,133.335H106.855l-.285-3.445H252.465Z" transform="translate(-53.285 -92.445)" fill="#ebebeb" opacity="0.6"/>
      <path id="Path_38758" data-name="Path 38758" d="M252.745,144.625H106.855l-.285-3.445H252.465Z" transform="translate(-53.285 -98.09)" fill="#ebebeb" opacity="0.6"/>
      <rect id="Rectangle_5687" data-name="Rectangle 5687" width="22.265" height="67.7" transform="translate(197.235 96)" fill="#e6e6e6"/>
      <path id="Path_38759" data-name="Path 38759" d="M420.875,373.055h5.945V363.71H414.64Z" transform="translate(-207.32 -209.355)" fill="#fafafa"/>
      <rect id="Rectangle_5688" data-name="Rectangle 5688" width="22.265" height="67.7" transform="translate(136.53 96)" fill="#e6e6e6"/>
      <rect id="Rectangle_5689" data-name="Rectangle 5689" width="65.895" height="64.485" transform="translate(153.605 96)" fill="#fafafa"/>
      <path id="Path_38760" data-name="Path 38760" d="M313.155,373.055H307.21V363.71h12.18Z" transform="translate(-153.605 -209.355)" fill="#fafafa"/>
      <rect id="Rectangle_5690" data-name="Rectangle 5690" width="56.67" height="16.135" transform="translate(158.215 120.03)" fill="#f0f0f0"/>
      <rect id="Rectangle_5691" data-name="Rectangle 5691" width="56.67" height="16.135" transform="translate(158.215 139.615)" fill="#f0f0f0"/>
      <path id="Path_38761" data-name="Path 38761" d="M334.24,292.26h38.88v.785a2.335,2.335,0,0,1-2.335,2.335h-34.2a2.335,2.335,0,0,1-2.335-2.335v-.785Z" transform="translate(-167.12 -173.63)" fill="#fafafa"/>
      <rect id="Rectangle_5692" data-name="Rectangle 5692" width="56.67" height="16.135" transform="translate(158.215 100.44)" fill="#f0f0f0"/>
      <path id="Path_38762" data-name="Path 38762" d="M334.24,253.09h38.88v.785a2.335,2.335,0,0,1-2.335,2.335h-34.2a2.335,2.335,0,0,1-2.335-2.335v-.785Z" transform="translate(-167.12 -154.045)" fill="#fafafa"/>
      <path id="Path_38763" data-name="Path 38763" d="M334.24,331.43h38.88v.785a2.335,2.335,0,0,1-2.335,2.335h-34.2a2.335,2.335,0,0,1-2.335-2.335v-.785Z" transform="translate(-167.12 -193.215)" fill="#fafafa"/>
      <path id="Path_38764" data-name="Path 38764" d="M47.046,201.237c1.24-3.565,11,1.28,15,7.18a30.486,30.486,0,0,1,5,13.76c-.09-6.43-.19-13.335-.29-19.855-.805-1.625-2.64-5.375-3.955-8.345-4.4-9.91-14.86-13.6-18.5-19.855-4.735-8.2-4.705-20.5-.675-24.93,3.5-3.86,15.1,22.215,16.41,25.13a77.087,77.087,0,0,1,6.64,24.66c-.1-6.125-.185-11.745-.26-16.085-.245-14.15-.555-18.7-.7-20.1-.5-.685-1.055-1.5-1.39-1.91-2.8-3.615-9.035-7.915-12.145-13.17-4.545-7.67-3.81-16.85-.625-20.27,3.36-3.575,9.275,4.855,12.38,13.245s1.79,16.38,2.67,23.335c.185,1.36.37,6.54.55,13.725.95-7.73,2.84-12.91,6.34-17.735,4.31-5.935,8.03-13.16,11.58-12.225s1.64,10.5-1.17,17.21c-2.5,5.975-14.84,11.94-16.66,16.745.215,9.74.4,22.075.545,33.56.97-5.935.3-6.43,4.29-15.5,2.37-5.4,12.085-12.055,13.245-8.345s-.605,10.72-4.27,15.63c-2.96,3.965-9.5,3.96-11.045,6.415-.355.575-1.5,2.775-2.195,4.035.155,14.025.23,26.4.15,30.62l-.64.045c.035-1.09-.045-8.225-.17-17.665-1.6-5-12.325-7.95-15.64-13.175C48.051,211.887,45.556,205.507,47.046,201.237Z" transform="translate(-20.336 -90.802)" fill="#e6e6e6"/>
      <path id="Path_38765" data-name="Path 38765" d="M69.8,373.295H90.4a2.37,2.37,0,0,0,2.32-1.9l1.46-7.21H66l1.5,7.21A2.37,2.37,0,0,0,69.8,373.295Z" transform="translate(-33 -209.595)" fill="#f0f0f0"/>
      <path id="Path_38766" data-name="Path 38766" d="M62.877,361.685h29.34a1.385,1.385,0,0,0,1.375-1.23l.6-5.33a1.385,1.385,0,0,0-1.375-1.535H62.277a1.385,1.385,0,0,0-1.375,1.535l.6,5.33A1.385,1.385,0,0,0,62.877,361.685Z" transform="translate(-30.447 -204.295)" fill="#f0f0f0"/>
      <rect id="Rectangle_5693" data-name="Rectangle 5693" width="17.605" height="32.39" transform="translate(71.315 131.31)" fill="#e0e0e0"/>
      <path id="Path_38767" data-name="Path 38767" d="M202.44,338.45H143.495L137.3,294.5h58.945Z" transform="translate(-68.65 -174.75)" fill="#e6e6e6"/>
      <path id="Path_38768" data-name="Path 38768" d="M213.385,338.45H148.18l-6.19-43.95h65.2Z" transform="translate(-70.995 -174.75)" fill="#f0f0f0"/>
      <path id="Path_38769" data-name="Path 38769" d="M161.915,338.45,156.7,308.24h51.465l5.215,30.21Z" transform="translate(-78.35 -181.62)" fill="#fff"/>
      <path id="Path_38770" data-name="Path 38770" d="M193.87,338.45l-17.49-30.21h5.485l17.495,30.21Z" transform="translate(-88.19 -181.62)" fill="#fafafa"/>
      <path id="Path_38771" data-name="Path 38771" d="M209.495,338.45,192,308.24h9.36l17.49,30.21Z" transform="translate(-96 -181.62)" fill="#fafafa"/>
    </g>
    <g id="freepik--Shadow--inject-2" transform="translate(28.055 229.96)">
      <ellipse id="freepik--path--inject-2" cx="96.945" cy="5.66" rx="96.945" ry="5.66" fill="#f5f5f5"/>
    </g>
    <g id="freepik--Warning--inject-2" transform="translate(37.31 104.5)">
      <path id="Path_38772" data-name="Path 38772" d="M75.945,207.764a.215.215,0,0,1-.215-.2l-1.11-13.35a.21.21,0,0,1,.19-.22.215.215,0,0,1,.23.195l1.11,13.35a.215.215,0,0,1-.195.23Z" transform="translate(-74.619 -173.999)" fill="#f8951d"/>
      <path id="Path_38773" data-name="Path 38773" d="M78.039,232.924a.215.215,0,0,1-.215-.195l-.335-4.04a.213.213,0,1,1,.425-.035l.335,4.04a.215.215,0,0,1-.195.23Z" transform="translate(-76.054 -191.229)" fill="#f8951d"/>
      <path id="Path_38774" data-name="Path 38774" d="M189.3,233.895H86.058a5.315,5.315,0,0,1-5.185-4.79l-5.815-69.9a4.35,4.35,0,0,1,4.39-4.79H182.683a5.32,5.32,0,0,1,5.19,4.79l5.815,69.885a4.355,4.355,0,0,1-4.39,4.8Z" transform="translate(-74.827 -154.209)" fill="#fff"/>
      <path id="Path_38775" data-name="Path 38775" d="M189.1,233.885H85.861a5.5,5.5,0,0,1-5.385-4.97l-5.815-69.89a4.6,4.6,0,0,1,1.185-3.525,4.55,4.55,0,0,1,3.4-1.5H182.486a5.5,5.5,0,0,1,5.39,5l5.81,69.885a4.545,4.545,0,0,1-4.585,5ZM79.251,154.42A4.15,4.15,0,0,0,75.056,159l5.815,69.88a5.11,5.11,0,0,0,5,4.605H189.1a4.15,4.15,0,0,0,4.19-4.57l-5.815-69.89a5.1,5.1,0,0,0-5-4.6Z" transform="translate(-74.63 -154)" fill="#f8951d"/>
      <path id="Path_38776" data-name="Path 38776" d="M182.684,154.44H79.449a4.35,4.35,0,0,0-4.39,4.78H187.874a5.32,5.32,0,0,0-5.19-4.78Z" transform="translate(-74.828 -154.219)" fill="#f8951d"/>
      <path id="Path_38777" data-name="Path 38777" d="M86.62,158.195a.935.935,0,0,1-.945,1.035,1.15,1.15,0,0,1-1.12-1.035.94.94,0,0,1,.945-1.035A1.14,1.14,0,0,1,86.62,158.195Z" transform="translate(-79.585 -155.58)" fill="#fff"/>
      <path id="Path_38778" data-name="Path 38778" d="M95.04,158.195a.935.935,0,0,1-.945,1.035,1.15,1.15,0,0,1-1.1-1.035.94.94,0,0,1,.945-1.035A1.14,1.14,0,0,1,95.04,158.195Z" transform="translate(-83.805 -155.58)" fill="#fff"/>
      <path id="Path_38779" data-name="Path 38779" d="M103.42,158.195a.935.935,0,0,1-.945,1.035,1.15,1.15,0,0,1-1.12-1.035.94.94,0,0,1,.945-1.035A1.14,1.14,0,0,1,103.42,158.195Z" transform="translate(-87.985 -155.58)" fill="#fff"/>
      <path id="Path_38780" data-name="Path 38780" d="M190.6,238.72h-86.82a4.225,4.225,0,0,1-4.125-3.8l-4.08-48.72a3.46,3.46,0,0,1,3.5-3.8h86.835a4.225,4.225,0,0,1,4.125,3.8l4.055,48.745a3.46,3.46,0,0,1-3.49,3.78Z" transform="translate(-85.087 -168.194)" fill="#f0f0f0"/>
      <path id="Path_38781" data-name="Path 38781" d="M203.242,196.617l-26.9,32.39a7.695,7.695,0,0,0,4.29,12.44l43.65,9.435a7.695,7.695,0,0,0,8.775-10.38l-16.735-41.83a7.695,7.695,0,0,0-13.08-2.055Z" transform="translate(-124.592 -173.912)" fill="#263238" opacity="0.1"/>
      <path id="Path_38782" data-name="Path 38782" d="M102.5,205.319l-9.37,25.255a4.86,4.86,0,0,0,5.03,6.5l27.365-2.685a4.86,4.86,0,0,0,3.325-7.87l-18-22.55a4.86,4.86,0,0,0-8.35,1.35Z" transform="translate(-83.727 -178.074)" fill="#263238" opacity="0.1"/>
      <path id="Path_38783" data-name="Path 38783" d="M223.9,179.589l-25.15,36.5a8.09,8.09,0,0,0,5.6,12.61l46.23,6.155a8.09,8.09,0,0,0,8.32-11.6l-21.08-42.67a8.09,8.09,0,0,0-13.92-.99Z" transform="translate(-135.972 -165.039)" fill="#f8951d"/>
      <path id="Path_38784" data-name="Path 38784" d="M209.138,228.942a5.11,5.11,0,0,1-3.91-2.835,4.5,4.5,0,0,1,.235-4.6l25.215-36.61a4.24,4.24,0,0,1,4.145-1.76,5.1,5.1,0,0,1,3.91,2.835l21.12,42.775a4.5,4.5,0,0,1-.235,4.6,4.235,4.235,0,0,1-4.145,1.765Z" transform="translate(-139.663 -168.542)" fill="#fff"/>
      <path id="Path_38785" data-name="Path 38785" d="M256.848,209.03l2.945.39a3.785,3.785,0,0,1,3.255,3.85l-.2,3.84a2.849,2.849,0,0,1-.045.415L260.708,229.1a3.115,3.115,0,0,1-3.555,2.5h0a3.805,3.805,0,0,1-3.255-3.435l-.845-11.96a2.88,2.88,0,0,1,0-.415l.195-3.845a3.1,3.1,0,0,1,3.6-2.915Zm-.235,25.78.8.1a3.39,3.39,0,0,1,2.915,3.445h0a2.785,2.785,0,0,1-3.225,2.625l-.8-.11a3.385,3.385,0,0,1-2.915-3.44h0a2.78,2.78,0,0,1,3.225-2.625Z" transform="translate(-163.832 -181.495)" fill="#f8951d"/>
      <path id="Path_38786" data-name="Path 38786" d="M124.437,190.624l-6.9,26.185a4.86,4.86,0,0,0,5.635,6l26.785-5.225a4.86,4.86,0,0,0,2.6-8.09l-19.86-20.975a4.865,4.865,0,0,0-8.25,2.1Z" transform="translate(-95.996 -170.494)" fill="#f8951d"/>
      <path id="Path_38787" data-name="Path 38787" d="M125.3,222.634a2.965,2.965,0,0,1-2.71-.91,2.9,2.9,0,0,1-.75-2.74l6.92-26.255a2.5,2.5,0,0,1,1.96-1.825,2.97,2.97,0,0,1,2.71.915l19.93,21a2.91,2.91,0,0,1,.755,2.74,2.5,2.5,0,0,1-1.96,1.82Z" transform="translate(-98.189 -172.429)" fill="#fff"/>
      <path id="Path_38788" data-name="Path 38788" d="M140.75,206.566l1.705-.335a2.26,2.26,0,0,1,2.54,1.635l.61,2.285a2.317,2.317,0,0,1,.055.255l1.085,7.195a1.865,1.865,0,0,1-1.5,2.155h0a2.25,2.25,0,0,1-2.46-1.39l-2.77-6.84a2,2,0,0,1-.085-.245l-.63-2.29a1.88,1.88,0,0,1,1.45-2.425Zm4.825,15.14.465-.09a2,2,0,0,1,2.275,1.46h0a1.68,1.68,0,0,1-1.28,2.15l-.465.09a2,2,0,0,1-2.275-1.455h0a1.685,1.685,0,0,1,1.28-2.155Z" transform="translate(-106.914 -180.101)" fill="#f8951d"/>
    </g>
  </g>
</svg>
