<svg xmlns="http://www.w3.org/2000/svg" width="250.006" height="165.824" viewBox="0 0 250.006 165.824">
  <g id="limited-liability" transform="translate(-50.704 -36.235)">
    <g id="freepik--background-complete--inject-14" transform="translate(52.347 40.123)">
      <path id="Path_41711" data-name="Path 41711" d="M297.128,47.885c2.443-2.851,8.8-1.061,13.157,1.275,0,0,3,1.412,4.111,2.145h.038l10.183-1.271a4.145,4.145,0,0,1,2.408.424l.836.424a.561.561,0,0,1-.034,1.011l-7.5,3.206v.092l7.4,4.863.111.073a6.6,6.6,0,0,0,4.714.935l3.958-.679a1.05,1.05,0,0,1,.6.05,1,1,0,0,1,.263,1.695l-4.58,3.84a2.424,2.424,0,0,1-2.573.344l-2.149-.989-10.89-5.2,1.248,6.2a.408.408,0,0,1-.416.481H317.5a2.034,2.034,0,0,1-1.691-1.023l-4.386-8.393L298.594,51.27C296.884,50.48,296.273,49.015,297.128,47.885Z" transform="translate(-204.474 -46.419)" fill="#e0e0e0"/>
      <rect id="Rectangle_5948" data-name="Rectangle 5948" width="37.154" height="29.497" transform="translate(155.289 57.446) rotate(14.12)" fill="#fff"/>
      <rect id="Rectangle_5949" data-name="Rectangle 5949" width="37.154" height="7.722" transform="translate(155.288 57.446) rotate(14.12)" fill="#ebebeb"/>
      <path id="Path_41712" data-name="Path 41712" d="M461.661,227.2s.023-.145.076-.382.145-.634.24-1.065c.21-.908.511-2.191.886-3.718l.072.122-5.168-1.294.137-.084h0v.084l-.023.088-.046.176-.088.347c-.057.233-.118.462-.176.691-.115.454-.229.9-.336,1.332-.221.859-.431,1.676-.626,2.424l-.073-.122c1.527.382,2.79.74,3.691.985l1.05.294a3.191,3.191,0,0,1,.382.118,1.588,1.588,0,0,1-.355-.065l-1.042-.237c-.9-.206-2.21-.511-3.779-.9l-.1-.027.023-.1.592-2.412c.107-.431.218-.878.332-1.332.057-.225.115-.458.172-.687l.088-.351.046-.176.023-.088v-.084h0l.145-.084,5.176,1.275.1.027-.027.1c-.4,1.565-.763,2.859-1,3.752q-.172.63-.286,1.031a1.551,1.551,0,0,1-.106.362Z" transform="translate(-303.184 -154.154)" fill="#e0e0e0"/>
      <path id="Path_41713" data-name="Path 41713" d="M479.356,231.638q.029-.193.076-.382.092-.412.24-1.065c.21-.908.511-2.187.886-3.714l.073.122-5.157-1.286c-.031.019.267-.156.141-.08h0v.065l-.019.088-.046.179-.088.347c-.061.233-.118.462-.176.687-.115.454-.229.9-.34,1.332-.221.863-.431,1.676-.622,2.428l-.073-.122c1.527.382,2.79.737,3.691.985l1.05.29a3.978,3.978,0,0,1,.382.122,2.458,2.458,0,0,1-.355-.065l-1.042-.237c-.9-.21-2.21-.515-3.779-.9l-.1-.023.027-.1c.187-.763.382-1.569.6-2.431.111-.435.221-.878.336-1.332l.172-.691.088-.347.046-.176.019-.092v-.065h0c-.126.073.172-.1.141-.088l5.149,1.317.1.023-.027.1c-.4,1.561-.763,2.859-1,3.752q-.172.63-.286,1.031A2.672,2.672,0,0,1,479.356,231.638Z" transform="translate(-314.134 -156.892)" fill="#e0e0e0"/>
      <path id="Path_41714" data-name="Path 41714" d="M497.026,236.131a2.284,2.284,0,0,1,.076-.382q.092-.416.24-1.065c.21-.908.511-2.191.886-3.718l.073.122-5.157-1.283.141-.084h0v.084l-.023.088-.042.176-.088.351c-.061.229-.118.458-.176.687-.115.454-.229.9-.34,1.332-.221.859-.431,1.676-.622,2.428l-.073-.122c1.527.382,2.79.737,3.691.981l1.05.294a2.574,2.574,0,0,1,.382.122,2.251,2.251,0,0,1-.355-.069l-1.042-.237c-.9-.206-2.21-.511-3.779-.9l-.1-.027.027-.1c.183-.763.382-1.569.6-2.435.111-.431.221-.878.332-1.332.057-.225.114-.458.176-.687l.088-.351.042-.176.023-.088v-.065h0l.141-.084,5.149,1.3.1.027-.023.1c-.4,1.565-.763,2.859-1,3.756-.118.416-.214.763-.286,1.027a2.6,2.6,0,0,1-.111.33Z" transform="translate(-325.06 -159.682)" fill="#e0e0e0"/>
      <path id="Path_41715" data-name="Path 41715" d="M514.671,240.531a2.415,2.415,0,0,1,.076-.382c.061-.275.141-.63.241-1.061.21-.912.508-2.191.882-3.718l.076.122-5.172-1.3.141-.084h0v.08l-.023.088-.042.176-.092.347-.172.691c-.118.45-.229.9-.34,1.328-.221.863-.431,1.676-.626,2.428l-.073-.122c1.527.382,2.794.737,3.691.985l1.053.29a3.289,3.289,0,0,1,.382.122,1.957,1.957,0,0,1-.359-.065l-1.042-.237c-.9-.21-2.206-.515-3.779-.9l-.1-.023.023-.1.6-2.431c.107-.435.218-.878.332-1.332.057-.229.115-.458.176-.691l.088-.347.042-.176.023-.088v-.08h0l.141-.084,5.145,1.313.1.023-.023.1c-.408,1.565-.763,2.859-1,3.752q-.176.63-.286,1.031A2.408,2.408,0,0,1,514.671,240.531Z" transform="translate(-335.961 -162.384)" fill="#e0e0e0"/>
      <path id="Path_41716" data-name="Path 41716" d="M532.368,244.991a3.765,3.765,0,0,1,.076-.382c.065-.279.145-.63.244-1.065.21-.908.508-2.191.882-3.714l.073.122-5.153-1.3.141-.084h0v.084l-.023.088-.046.176-.088.351c-.057.229-.115.462-.176.687-.115.454-.225.9-.336,1.332-.221.863-.431,1.676-.626,2.428l-.072-.122c1.527.382,2.79.737,3.691.981l1.053.294a2.249,2.249,0,0,1,.382.122,2.352,2.352,0,0,1-.355-.069l-1.042-.233c-.9-.21-2.21-.515-3.779-.9l-.1-.023.023-.1.6-2.435c.107-.431.218-.878.332-1.332q.088-.34.172-.687l.088-.351.046-.176.023-.088v-.076h0l.145-.084,5.145,1.313.1.027-.027.1c-.4,1.565-.763,2.863-1,3.756-.115.416-.21.763-.286,1.027a1.678,1.678,0,0,1-.107.338Z" transform="translate(-346.917 -165.141)" fill="#e0e0e0"/>
      <path id="Path_41717" data-name="Path 41717" d="M457.316,244.52a2.426,2.426,0,0,1,.076-.382q.092-.412.24-1.065c.21-.908.508-2.187.882-3.714l.073.122-5.153-1.282.141-.084h0v.076l-.023.092-.046.176-.088.347q-.084.351-.172.687c-.118.454-.229.9-.34,1.332-.221.863-.431,1.676-.626,2.428l-.072-.122c1.527.382,2.79.737,3.691.985l1.053.29a3.279,3.279,0,0,1,.382.122,2.536,2.536,0,0,1-.359-.065l-1.042-.237c-.9-.21-2.206-.515-3.779-.9l-.1-.023.023-.1.6-2.431c.107-.435.218-.878.332-1.332l.164-.7.088-.347.046-.176.023-.088v-.08h0c-.126.073.172-.1.141-.088l5.145,1.317.1.023-.027.1c-.4,1.565-.763,2.859-1,3.752q-.177.63-.286,1.031a2.656,2.656,0,0,1-.087.336Z" transform="translate(-300.507 -164.849)" fill="#e0e0e0"/>
      <path id="Path_41718" data-name="Path 41718" d="M474.976,248.975a3.756,3.756,0,0,1,.076-.382q.1-.42.24-1.065c.21-.908.511-2.191.885-3.714l.073.118-5.153-1.3.137-.084h0v.084l-.023.088-.046.176-.088.351c-.057.229-.115.462-.176.687-.115.454-.225.9-.336,1.332-.221.863-.431,1.676-.626,2.428l-.073-.122c1.527.382,2.79.737,3.691.981l1.05.294a2.238,2.238,0,0,1,.382.122,2.353,2.353,0,0,1-.355-.069l-1.042-.233c-.9-.21-2.21-.515-3.779-.9l-.1-.023.023-.1.6-2.435c.107-.431.218-.878.332-1.332q.084-.34.172-.687l.088-.351.046-.176.023-.088v-.084h0l.145-.084,5.164,1.313.1.027-.027.1c-.4,1.565-.763,2.863-1,3.756-.115.416-.21.763-.286,1.027a1.667,1.667,0,0,1-.126.347Z" transform="translate(-311.426 -167.602)" fill="#e0e0e0"/>
      <path id="Path_41719" data-name="Path 41719" d="M492.658,253.431s.023-.145.076-.382.145-.63.24-1.061c.21-.912.511-2.191.886-3.718l.073.122-5.153-1.3.141-.084h0v.069l-.019.088-.046.176-.088.347c-.057.233-.118.462-.176.691-.114.454-.229.9-.34,1.328-.221.863-.428,1.679-.622,2.428l-.073-.122c1.527.382,2.79.737,3.691.985l1.05.294a3.5,3.5,0,0,1,.382.118,1.956,1.956,0,0,1-.355-.065l-1.042-.237c-.9-.206-2.21-.515-3.779-.9l-.1-.023.023-.1c.187-.763.382-1.569.6-2.431.111-.435.221-.878.336-1.332l.172-.691.088-.347.046-.176v-.156h0l.141-.084,5.149,1.313.1.027-.027.1c-.4,1.565-.763,2.859-1,3.752q-.172.63-.286,1.031a1.884,1.884,0,0,1-.088.34Z" transform="translate(-322.364 -170.36)" fill="#e0e0e0"/>
      <path id="Path_41720" data-name="Path 41720" d="M510.316,257.941a2.835,2.835,0,0,1,.076-.382c.061-.279.141-.63.24-1.065.21-.908.511-2.191.885-3.714l.073.122-5.157-1.286.141-.084h0v.084l-.023.088-.042.176-.088.351c-.061.233-.118.462-.176.687-.115.454-.229.9-.34,1.332-.221.863-.431,1.676-.622,2.428l-.073-.122c1.527.382,2.79.737,3.691.985l1.05.29a3.27,3.27,0,0,1,.382.122,2.252,2.252,0,0,1-.355-.069l-1.042-.233c-.9-.21-2.21-.515-3.779-.9l-.1-.023.027-.1c.183-.763.382-1.569.6-2.431.111-.435.221-.878.332-1.336.057-.225.118-.454.176-.687l.088-.351.042-.176.023-.088v-.065h0l.141-.084,5.149,1.317.1.023-.023.1c-.4,1.561-.763,2.859-1,3.752q-.177.63-.286,1.027A2.605,2.605,0,0,1,510.316,257.941Z" transform="translate(-333.277 -173.167)" fill="#e0e0e0"/>
      <path id="Path_41721" data-name="Path 41721" d="M527.986,262.353a2.365,2.365,0,0,1,.076-.382q.092-.42.24-1.065c.21-.908.508-2.191.882-3.718l.076.122-5.157-1.282.141-.084h0v.08l-.023.088-.042.176-.092.347-.172.691c-.118.454-.229.9-.34,1.328-.221.863-.431,1.679-.626,2.427l-.073-.122c1.527.382,2.794.74,3.691.985l1.053.294a3.893,3.893,0,0,1,.382.118,1.6,1.6,0,0,1-.359-.065l-1.042-.237c-.9-.206-2.206-.511-3.775-.9l-.1-.027.023-.1.6-2.435c.107-.431.217-.878.332-1.332.057-.229.114-.458.175-.687l.088-.351.042-.176.023-.088v-.1h0l.141-.084,5.164,1.313.1.027-.023.1c-.4,1.565-.763,2.859-1,3.752q-.176.63-.286,1.031a2.382,2.382,0,0,1-.126.355Z" transform="translate(-344.203 -175.869)" fill="#e0e0e0"/>
      <rect id="Rectangle_5950" data-name="Rectangle 5950" width="5.313" height="5.313" transform="translate(150.086 84.545) rotate(-75.88)" fill="#e0e0e0"/>
      <path id="Path_41722" data-name="Path 41722" d="M470.9,265.165a2.352,2.352,0,0,1,.076-.382q.092-.416.24-1.065c.21-.908.508-2.191.886-3.718l.072.122-5.157-1.282.141-.084h0v.069l-.023.088-.042.176-.088.347c-.061.233-.118.462-.176.691-.115.454-.229.9-.34,1.332-.221.859-.431,1.676-.622,2.424l-.073-.122c1.527.382,2.79.74,3.691.985l1.05.294a3.882,3.882,0,0,1,.382.118,1.555,1.555,0,0,1-.355-.065l-1.042-.237c-.9-.206-2.21-.511-3.779-.9l-.1-.027.027-.1c.183-.763.382-1.569.6-2.435.111-.431.221-.878.332-1.332.057-.225.115-.458.176-.687l.088-.351.042-.176.023-.088v-.084h0l.141-.084,5.149,1.313.1.027-.023.1c-.4,1.565-.763,2.859-1,3.752q-.176.63-.286,1.031a2.4,2.4,0,0,1-.11.35Z" transform="translate(-308.904 -177.613)" fill="#e0e0e0"/>
      <path id="Path_41723" data-name="Path 41723" d="M488.566,269.648a2.348,2.348,0,0,1,.076-.382q.092-.412.24-1.065c.21-.908.508-2.187.882-3.714l.076.122-5.157-1.286c-.031.019.267-.156.141-.08h0v.076l-.023.088-.042.179-.092.347q-.084.351-.172.687c-.118.454-.229.9-.34,1.332-.221.863-.431,1.676-.626,2.428l-.073-.122c1.527.382,2.79.737,3.691.985l1.053.29a3.289,3.289,0,0,1,.382.122,2.539,2.539,0,0,1-.359-.065l-1.042-.237c-.9-.21-2.206-.515-3.779-.9l-.1-.023.023-.1.6-2.431c.107-.435.218-.878.332-1.332l.172-.691.092-.347.042-.176.023-.092v-.076h0c-.126.073.172-.1.141-.088l5.145,1.317.1.023-.027.1c-.4,1.565-.763,2.859-1,3.752q-.178.63-.286,1.031a2.661,2.661,0,0,1-.107.328Z" transform="translate(-319.829 -180.394)" fill="#e0e0e0"/>
      <path id="Path_41724" data-name="Path 41724" d="M506.238,274.11a3.781,3.781,0,0,1,.076-.382q.1-.42.24-1.065c.214-.908.511-2.191.886-3.718l.073.122-5.153-1.282.141-.084h0v.084l-.023.088-.046.176-.088.351c-.057.229-.115.458-.176.687-.115.454-.225.9-.336,1.332l-.626,2.427-.073-.122c1.527.382,2.79.737,3.691.981l1.053.294a2.247,2.247,0,0,1,.382.122,2.364,2.364,0,0,1-.355-.069l-1.042-.233c-.9-.21-2.21-.515-3.779-.9l-.1-.027.023-.1.6-2.435c.107-.431.218-.878.332-1.332l.172-.687.088-.351.046-.176.023-.088v-.084h0l.145-.084,5.141,1.313.1.027-.027.1c-.4,1.565-.763,2.859-1,3.756-.115.416-.21.763-.286,1.027a1.657,1.657,0,0,1-.1.332Z" transform="translate(-330.761 -183.153)" fill="#e0e0e0"/>
      <path id="Path_41725" data-name="Path 41725" d="M523.9,278.566s.023-.145.076-.382.145-.63.24-1.061c.21-.912.511-2.191.886-3.718l.072.122-5.157-1.282.141-.084h0v.069l-.023.088-.046.176-.088.347c-.057.233-.118.462-.176.691-.115.454-.229.9-.34,1.328-.221.863-.428,1.676-.622,2.428l-.073-.122c1.527.382,2.79.737,3.691.985l1.05.294a3.183,3.183,0,0,1,.382.118,1.964,1.964,0,0,1-.355-.065l-1.042-.237c-.9-.206-2.21-.515-3.779-.9l-.1-.023.023-.1.6-2.431c.107-.435.218-.878.332-1.332l.172-.691.088-.347.046-.176.019-.088V272.1h0l.141-.084,5.149,1.313.1.023-.027.1c-.4,1.565-.763,2.859-1,3.752q-.172.63-.286,1.031a1.877,1.877,0,0,1-.094.331Z" transform="translate(-341.674 -185.911)" fill="#e0e0e0"/>
      <rect id="Rectangle_5951" data-name="Rectangle 5951" width="1.641" height="4.874" rx="0.821" transform="matrix(0.97, 0.245, -0.245, 0.97, 162.569, 56.801)" fill="#e0e0e0"/>
      <rect id="Rectangle_5952" data-name="Rectangle 5952" width="1.641" height="4.874" rx="0.821" transform="matrix(0.97, 0.245, -0.245, 0.97, 172.918, 59.418)" fill="#e0e0e0"/>
      <rect id="Rectangle_5953" data-name="Rectangle 5953" width="1.641" height="4.874" rx="0.821" transform="translate(183.265 62.03) rotate(14.12)" fill="#e0e0e0"/>
      <path id="Path_41726" data-name="Path 41726" d="M478.44,234.9s.038-.187.126-.542.214-.882.382-1.561c.34-1.366.832-3.363,1.462-5.909,1.271-5.084,3.088-12.355,5.275-21.123l.073.118-36.028-9.065h0l.141-.088c-2.672,10.523-5.168,20.458-7.351,29.111l-.076-.126,26,6.611,7.367,1.886,1.954.5.5.134.176.05a.639.639,0,0,1-.168-.034l-.5-.118-1.939-.477-7.355-1.828-26.092-6.527-.1-.023.027-.1c2.179-8.653,4.679-18.592,7.328-29.111l.031-.115.111.027h0l36.016,9.1.1.023-.023.1-5.389,21.153c-.649,2.531-1.145,4.515-1.527,5.878l-.382,1.527C478.478,234.737,478.44,234.9,478.44,234.9Z" transform="translate(-294.466 -139.253)" fill="#e0e0e0"/>
      <rect id="Rectangle_5954" data-name="Rectangle 5954" width="7.355" height="22.978" transform="translate(4.878 36.52)" fill="#e0e0e0"/>
      <rect id="Rectangle_5955" data-name="Rectangle 5955" width="7.355" height="17.729" transform="translate(15.863 41.769)" fill="#e0e0e0"/>
      <rect id="Rectangle_5956" data-name="Rectangle 5956" width="7.355" height="10.527" transform="translate(26.031 48.971)" fill="#e0e0e0"/>
      <path id="Path_41727" data-name="Path 41727" d="M93.986,157.048H91.073l-7.939.031-26.191.031H55v-.1c0-9.809.023-18.6.031-24.959,0-3.168.027-5.725.034-7.5h0c0,1.775,0,4.332.031,7.5,0,6.355,0,15.149.031,24.959l-.1-.1h1.851l26.191.031,7.939.031,2.16.019h.561Z" transform="translate(-55 -93.034)" fill="#e0e0e0"/>
      <path id="Path_41728" data-name="Path 41728" d="M190.292,386.92a14.573,14.573,0,1,1-17.241-11.248,14.573,14.573,0,0,1,17.241,11.248Z" transform="translate(-120.825 -249.806)" fill="#f5f5f5"/>
      <path id="Path_41729" data-name="Path 41729" d="M192.511,393.236a11.107,11.107,0,1,1-13.138-8.573,11.107,11.107,0,0,1,13.138,8.573Z" transform="translate(-126.436 -255.411)" fill="#ebebeb"/>
      <path id="Path_41730" data-name="Path 41730" d="M192.064,392.222a7.291,7.291,0,0,1-.557-1.248,11.89,11.89,0,0,0-1.95-3.054,11.6,11.6,0,0,0-1.855-1.676,11.142,11.142,0,0,0-2.512-1.347,10.863,10.863,0,0,0-1.477-.443,10.309,10.309,0,0,0-1.592-.237,10.536,10.536,0,0,0-1.664,0,10.766,10.766,0,0,0-4.8,1.569,10.493,10.493,0,0,0-1.305.935,10.971,10.971,0,0,0-1.111,1.073,11.239,11.239,0,0,0-1.618,2.347,11.449,11.449,0,0,0-.882,2.336,11.79,11.79,0,0,0-.328,3.622,6.649,6.649,0,0,1,.073,1.363c-.065.011-.244-.443-.4-1.324a10.236,10.236,0,0,1,.073-3.794,11.069,11.069,0,0,1,2.481-5.084,11.337,11.337,0,0,1,2.569-2.2,11.589,11.589,0,0,1,1.592-.824,11.973,11.973,0,0,1,1.756-.58,11.218,11.218,0,0,1,9.561,2.027A11.191,11.191,0,0,1,190,387.535a10.3,10.3,0,0,1,1.8,3.34,2.948,2.948,0,0,1,.264,1.347Z" transform="translate(-126.066 -254.737)" fill="#e0e0e0"/>
      <path id="Path_41731" data-name="Path 41731" d="M194.037,407.168l.424,1.886-1.687.382-.416-1.84a8.187,8.187,0,0,1-4.5-.408l.466-2.263a6.951,6.951,0,0,0,3.538.462l-.63-2.813c-1.973-.034-4.2-.191-4.744-2.6-.382-1.786.553-3.611,3.149-4.512l-.42-1.87,1.687-.382.412,1.836a7.791,7.791,0,0,1,3.649.26l-.382,2.263a7.033,7.033,0,0,0-2.775-.3l.641,2.863c1.969.019,4.168.183,4.7,2.561C197.552,404.451,196.61,406.252,194.037,407.168Zm-3.355-7.073-.538-2.386c-.847.382-1.092.969-.966,1.527s.71.791,1.5.864Zm3.817,3.412c-.134-.592-.691-.8-1.473-.893l.519,2.328c.794-.363,1.069-.9.947-1.435Z" transform="translate(-136.249 -260.844)" fill="#e0e0e0"/>
      <path id="Path_41732" data-name="Path 41732" d="M201.821,223.123a9.122,9.122,0,1,1-10.794-7.042,9.122,9.122,0,0,1,10.794,7.042Z" transform="translate(-134.621 -151.201)" fill="#f5f5f5"/>
      <path id="Path_41733" data-name="Path 41733" d="M203.21,227.1a6.954,6.954,0,1,1-8.225-5.344,6.954,6.954,0,0,1,8.225,5.344Z" transform="translate(-138.136 -154.736)" fill="#ebebeb"/>
      <path id="Path_41734" data-name="Path 41734" d="M202.951,226.389a3.913,3.913,0,0,1-.351-.763,7.417,7.417,0,0,0-1.221-1.908,7.252,7.252,0,0,0-1.145-1.05,7.032,7.032,0,0,0-1.576-.844,6.485,6.485,0,0,0-.924-.275,6.022,6.022,0,0,0-1-.149,6.783,6.783,0,0,0-1.042,0,7.248,7.248,0,0,0-1.057.168,7.444,7.444,0,0,0-1.023.332,7.06,7.06,0,0,0-.927.473,6.839,6.839,0,0,0-3.092,4.191,7.271,7.271,0,0,0-.206,2.267,4.127,4.127,0,0,1,.061.817,2.149,2.149,0,0,1-.248-.832,6.408,6.408,0,0,1,.042-2.374,6.973,6.973,0,0,1,1.565-3.172,6.688,6.688,0,0,1,.737-.733,6.765,6.765,0,0,1,.87-.645,7.256,7.256,0,0,1,1-.515,6.99,6.99,0,0,1,1.1-.382,7.468,7.468,0,0,1,1.145-.183,6.922,6.922,0,0,1,1.126,0,6.488,6.488,0,0,1,1.069.172,6.643,6.643,0,0,1,.989.317,7.113,7.113,0,0,1,1.66.947,6.98,6.98,0,0,1,1.183,1.145,6.432,6.432,0,0,1,1.145,2.088,2.045,2.045,0,0,1,.12.908Z" transform="translate(-137.923 -154.234)" fill="#e0e0e0"/>
      <path id="Path_41735" data-name="Path 41735" d="M204.189,235.853l.267,1.183-1.057.233-.256-1.145a5.111,5.111,0,0,1-2.817-.256l.29-1.416a4.409,4.409,0,0,0,2.218.29l-.382-1.763c-1.233,0-2.63-.118-2.97-1.626-.248-1.118.347-2.26,1.973-2.824l-.263-1.172,1.053-.237.26,1.145a4.962,4.962,0,0,1,2.29.164l-.237,1.416a4.489,4.489,0,0,0-1.737-.187l.382,1.794c1.233,0,2.607.115,2.939,1.6C206.391,234.135,205.8,235.265,204.189,235.853Zm-2.1-4.428-.336-1.5c-.531.252-.683.607-.607.954s.447.485.943.527Zm2.386,2.137c-.084-.382-.435-.5-.924-.561l.328,1.458c.5-.247.672-.575.6-.9Z" transform="translate(-144.302 -158.148)" fill="#e0e0e0"/>
      <path id="Path_41736" data-name="Path 41736" d="M656.057,133.249a14.733,14.733,0,1,1-17.432-11.374A14.733,14.733,0,0,1,656.057,133.249Z" transform="translate(-408.616 -92.877)" fill="#f5f5f5"/>
      <path id="Path_41737" data-name="Path 41737" d="M658.3,139.637a11.229,11.229,0,1,1-13.283-8.668,11.229,11.229,0,0,1,13.283,8.668Z" transform="translate(-414.289 -98.547)" fill="#ebebeb"/>
      <path id="Path_41738" data-name="Path 41738" d="M657.844,138.625a7.5,7.5,0,0,1-.565-1.26,11.966,11.966,0,0,0-1.973-3.107,11.661,11.661,0,0,0-1.874-1.691,11.322,11.322,0,0,0-2.542-1.363,10.765,10.765,0,0,0-1.492-.45,10.516,10.516,0,0,0-1.607-.237,10.781,10.781,0,0,0-1.683,0,12.075,12.075,0,0,0-1.71.275,11.732,11.732,0,0,0-1.649.538,11.058,11.058,0,0,0-1.5.763,10.73,10.73,0,0,0-1.321.947,11.168,11.168,0,0,0-3.649,5.821,11.833,11.833,0,0,0-.332,3.66,6.84,6.84,0,0,1,.073,1.382c-.065.015-.248-.45-.408-1.344a10.446,10.446,0,0,1,.073-3.817,11.523,11.523,0,0,1,.844-2.542,11.727,11.727,0,0,1,1.683-2.584,11.192,11.192,0,0,1,1.187-1.183,10.719,10.719,0,0,1,1.408-1.038,11.117,11.117,0,0,1,1.615-.836,12.247,12.247,0,0,1,1.775-.588,12.38,12.38,0,0,1,1.847-.29,11.486,11.486,0,0,1,1.813,0,10.609,10.609,0,0,1,1.729.279,10.972,10.972,0,0,1,1.6.511,11.222,11.222,0,0,1,4.58,3.4,10.446,10.446,0,0,1,1.821,3.378A3.217,3.217,0,0,1,657.844,138.625Z" transform="translate(-413.911 -97.879)" fill="#e0e0e0"/>
      <path id="Path_41739" data-name="Path 41739" d="M659.842,153.7l.428,1.908-1.7.382-.416-1.855a8.3,8.3,0,0,1-4.55-.412l.469-2.29a7.061,7.061,0,0,0,3.576.469l-.637-2.847c-1.992-.034-4.248-.191-4.794-2.626-.4-1.809.561-3.653,3.183-4.561l-.424-1.908,1.7-.382.416,1.859a7.835,7.835,0,0,1,3.7.263l-.382,2.29a7.206,7.206,0,0,0-2.809-.3l.653,2.9c1.989.019,4.2.183,4.748,2.584C663.4,150.958,662.446,152.779,659.842,153.7Zm-3.393-7.149-.553-2.42c-.859.408-1.1.981-.977,1.546s.729.808,1.53.876Zm3.851,3.435c-.134-.6-.7-.809-1.489-.9l.527,2.351c.809-.363,1.084-.889.962-1.435Z" transform="translate(-424.211 -104.021)" fill="#e0e0e0"/>
      <path id="Path_41740" data-name="Path 41740" d="M525.073,400.783l-21.489-2.057a1.145,1.145,0,0,1-1.069-1.221l3.721-33.589a1.672,1.672,0,0,1,1.866-1.408l20.485,1.962a1.611,1.611,0,0,1,1.527,1.733l-3.721,33.589a1.179,1.179,0,0,1-1.32.992Z" transform="translate(-331.702 -241.851)" fill="#e0e0e0"/>
      <path id="Path_41741" data-name="Path 41741" d="M519.393,400.244,497.9,398.187a1.145,1.145,0,0,1-1.069-1.221l3.721-33.589a1.676,1.676,0,0,1,1.867-1.408l20.485,1.962a1.618,1.618,0,0,1,1.527,1.733l-3.721,33.589A1.179,1.179,0,0,1,519.393,400.244Z" transform="translate(-328.19 -241.518)" fill="#f5f5f5"/>
      <path id="Path_41742" data-name="Path 41742" d="M513.4,440.479l-6.256-.6a.859.859,0,0,1-.8-.924l.179-1.634a.893.893,0,0,1,.992-.763l6.252.6a.859.859,0,0,1,.8.924l-.179,1.634a.889.889,0,0,1-.988.763Z" transform="translate(-334.065 -287.643)" fill="#e0e0e0"/>
      <path id="Path_41743" data-name="Path 41743" d="M528.759,381.233l-20.409-1.954.824-7.439,20.409,1.954Z" transform="translate(-335.312 -247.63)" fill="#fafafa"/>
      <path id="Path_41744" data-name="Path 41744" d="M528.7,381.221a1.116,1.116,0,0,1,0-.134l.038-.382c.038-.34.092-.84.16-1.481.137-1.282.34-3.141.588-5.447l.023.027L509.1,371.858h0l.038-.027c-.286,2.6-.565,5.115-.824,7.439l-.031-.034,14.63,1.431,4.248.416,1.145.111.294.031h0l-.29-.027-1.145-.1-4.241-.382-14.649-1.389h-.031V379.3c.256-2.324.534-4.836.821-7.439v-.034h.038l20.42,1.939h.027v.038c-.263,2.313-.473,4.172-.618,5.458-.072.641-.13,1.145-.168,1.473-.019.168-.034.294-.046.382a.306.306,0,0,1-.018.108Z" transform="translate(-335.25 -247.618)" fill="#e0e0e0"/>
      <path id="Path_41745" data-name="Path 41745" d="M512.39,402.988l-1.909-.187a.737.737,0,0,1-.695-.79l.2-1.79a.763.763,0,0,1,.851-.641l1.908.183a.736.736,0,0,1,.695.79l-.2,1.79A.763.763,0,0,1,512.39,402.988Z" transform="translate(-336.199 -264.778)" fill="#e0e0e0"/>
      <path id="Path_41746" data-name="Path 41746" d="M510.986,402.849l-1.908-.183a.737.737,0,0,1-.691-.794l.2-1.786a.763.763,0,0,1,.851-.645l1.909.183a.74.74,0,0,1,.71.79l-.2,1.786a.763.763,0,0,1-.87.649Z" transform="translate(-335.332 -264.692)" fill="#ebebeb"/>
      <path id="Path_41747" data-name="Path 41747" d="M512.949,402.081l-.149,1.344-.332-.031.118-1.1-.286-.027.027-.252Z" transform="translate(-337.754 -266.291)" fill="#fff"/>
      <path id="Path_41748" data-name="Path 41748" d="M525.06,404.2l-1.909-.183a.741.741,0,0,1-.7-.794l.2-1.786a.763.763,0,0,1,.855-.645l1.908.183a.737.737,0,0,1,.691.794l-.2,1.786a.763.763,0,0,1-.85.645Z" transform="translate(-344.033 -265.526)" fill="#e0e0e0"/>
      <path id="Path_41749" data-name="Path 41749" d="M523.621,404.044l-1.909-.187a.737.737,0,0,1-.718-.805l.2-1.79a.763.763,0,0,1,.851-.641l1.909.183a.737.737,0,0,1,.695.79l-.2,1.79a.763.763,0,0,1-.828.66Z" transform="translate(-343.128 -265.422)" fill="#ebebeb"/>
      <path id="Path_41750" data-name="Path 41750" d="M525.9,404.474l-.031.252-1.092-.1.023-.2.611-.435c.141-.1.172-.168.179-.233s-.061-.176-.214-.191a.381.381,0,0,0-.313.107l-.229-.168a.7.7,0,0,1,.6-.2c.321.031.519.2.492.447,0,.13-.065.248-.29.4l-.363.26Z" transform="translate(-345.47 -267.081)" fill="#fff"/>
      <path id="Path_41751" data-name="Path 41751" d="M538.2,405.468l-1.908-.187a.737.737,0,0,1-.695-.79l.2-1.79a.763.763,0,0,1,.851-.641l1.908.183a.74.74,0,0,1,.7.79l-.2,1.79a.764.764,0,0,1-.851.645Z" transform="translate(-352.157 -266.312)" fill="#e0e0e0"/>
      <path id="Path_41752" data-name="Path 41752" d="M536.786,405.319l-1.908-.183a.733.733,0,0,1-.691-.79l.2-1.79a.763.763,0,0,1,.851-.645l1.908.187a.729.729,0,0,1,.691.79l-.2,1.79a.763.763,0,0,1-.851.641Z" transform="translate(-351.285 -266.219)" fill="#ebebeb"/>
      <path id="Path_41753" data-name="Path 41753" d="M538.953,405.575c-.027.229-.237.416-.649.382a1.028,1.028,0,0,1-.534-.2l.156-.225a.7.7,0,0,0,.4.16c.164,0,.275-.034.286-.145s-.061-.172-.252-.191h-.153l.023-.206.332-.282-.615-.061.027-.248,1.012.1-.019.2-.382.313C538.858,405.216,538.972,405.377,538.953,405.575Z" transform="translate(-353.502 -267.862)" fill="#fff"/>
      <path id="Path_41754" data-name="Path 41754" d="M551.335,406.718l-1.908-.187a.729.729,0,0,1-.691-.79l.2-1.79a.763.763,0,0,1,.851-.641l1.908.183a.733.733,0,0,1,.691.79l-.2,1.79A.763.763,0,0,1,551.335,406.718Z" transform="translate(-360.281 -267.085)" fill="#e0e0e0"/>
      <path id="Path_41755" data-name="Path 41755" d="M549.966,406.578l-1.908-.183a.737.737,0,0,1-.691-.794l.195-1.786a.763.763,0,0,1,.855-.645l1.908.183a.737.737,0,0,1,.691.794l-.2,1.786a.763.763,0,0,1-.85.645Z" transform="translate(-359.434 -266.998)" fill="#ebebeb"/>
      <path id="Path_41756" data-name="Path 41756" d="M551.59,407.421l-1.55-.149.015-.122,1.55.149Z" transform="translate(-361.089 -269.463)" fill="#fff"/>
      <path id="Path_41757" data-name="Path 41757" d="M552.113,405.507a.248.248,0,0,1-.279.206.241.241,0,0,1-.225-.256.252.252,0,0,1,.279-.21.241.241,0,0,1,.225.26Z" transform="translate(-362.059 -268.285)" fill="#fff"/>
      <path id="Path_41758" data-name="Path 41758" d="M551.749,408.793a.244.244,0,0,1-.275.21.237.237,0,0,1-.225-.256.248.248,0,0,1,.275-.21.237.237,0,0,1,.225.256Z" transform="translate(-361.836 -270.32)" fill="#fff"/>
      <path id="Path_41759" data-name="Path 41759" d="M511.02,415.359l-1.908-.183a.74.74,0,0,1-.7-.794l.2-1.786a.763.763,0,0,1,.851-.645l1.909.183a.74.74,0,0,1,.7.794l-.2,1.786a.763.763,0,0,1-.852.645Z" transform="translate(-335.352 -272.427)" fill="#e0e0e0"/>
      <path id="Path_41760" data-name="Path 41760" d="M509.6,415.228l-1.908-.187a.733.733,0,0,1-.7-.79l.2-1.79a.763.763,0,0,1,.851-.641l1.908.183a.733.733,0,0,1,.691.79l-.195,1.79a.763.763,0,0,1-.847.645Z" transform="translate(-334.473 -272.347)" fill="#ebebeb"/>
      <path id="Path_41761" data-name="Path 41761" d="M511.274,415.616l-.237-.023-.031.282-.324-.031.031-.282-.763-.076.023-.206.763-.79.351.034-.721.763.382.038.027-.252.317.031-.027.252.233.023Z" transform="translate(-336.301 -274.001)" fill="#fff"/>
      <path id="Path_41762" data-name="Path 41762" d="M523.69,416.569l-1.908-.183a.737.737,0,0,1-.695-.79l.2-1.79a.763.763,0,0,1,.851-.645l1.908.187a.737.737,0,0,1,.7.79l-.2,1.79a.763.763,0,0,1-.851.641Z" transform="translate(-343.186 -273.175)" fill="#e0e0e0"/>
      <path id="Path_41763" data-name="Path 41763" d="M522.286,416.429l-1.908-.183a.736.736,0,0,1-.691-.794l.2-1.786a.763.763,0,0,1,.836-.672l1.908.183a.741.741,0,0,1,.7.794l-.2,1.786a.763.763,0,0,1-.84.672Z" transform="translate(-342.32 -273.074)" fill="#ebebeb"/>
      <path id="Path_41764" data-name="Path 41764" d="M524.077,416.594c-.027.24-.24.427-.653.382a1.038,1.038,0,0,1-.534-.2l.16-.225a.714.714,0,0,0,.382.16c.164,0,.275-.038.29-.149s-.057-.179-.321-.206l-.382-.034.156-.763.882.088-.027.248-.6-.057-.05.252h.115C523.944,416.163,524.077,416.358,524.077,416.594Z" transform="translate(-344.302 -274.663)" fill="#fff"/>
      <path id="Path_41765" data-name="Path 41765" d="M536.785,417.828l-1.908-.183a.737.737,0,0,1-.691-.794l.2-1.786a.763.763,0,0,1,.851-.645l1.908.183a.74.74,0,0,1,.71.8l-.2,1.79a.763.763,0,0,1-.87.635Z" transform="translate(-351.285 -273.954)" fill="#e0e0e0"/>
      <path id="Path_41766" data-name="Path 41766" d="M535.426,417.7l-1.908-.183a.737.737,0,0,1-.691-.794l.2-1.79a.764.764,0,0,1,.851-.641l1.909.183a.736.736,0,0,1,.691.794l-.2,1.786a.763.763,0,0,1-.852.645Z" transform="translate(-350.444 -273.874)" fill="#ebebeb"/>
      <path id="Path_41767" data-name="Path 41767" d="M537.462,417.911a.5.5,0,0,1-.6.382.592.592,0,0,1-.569-.729.691.691,0,0,1,.817-.653.81.81,0,0,1,.382.13l-.149.218a.512.512,0,0,0-.263-.1.382.382,0,0,0-.447.351.519.519,0,0,1,.382-.084.443.443,0,0,1,.447.481Zm-.328,0a.217.217,0,0,0-.221-.225.225.225,0,0,0-.271.179c0,.115.069.206.229.221a.214.214,0,0,0,.263-.191Z" transform="translate(-352.58 -275.491)" fill="#fff"/>
      <path id="Path_41768" data-name="Path 41768" d="M549.966,419.088l-1.908-.183a.737.737,0,0,1-.691-.794l.195-1.786a.763.763,0,0,1,.855-.645l1.908.183a.737.737,0,0,1,.691.794l-.2,1.786a.763.763,0,0,1-.85.645Z" transform="translate(-359.434 -274.733)" fill="#e0e0e0"/>
      <path id="Path_41769" data-name="Path 41769" d="M548.56,418.958l-1.908-.187a.737.737,0,0,1-.7-.79l.2-1.79a.763.763,0,0,1,.851-.641l1.908.183a.737.737,0,0,1,.7.79l-.2,1.79a.763.763,0,0,1-.851.645Z" transform="translate(-358.563 -274.653)" fill="#ebebeb"/>
      <path id="Path_41770" data-name="Path 41770" d="M549.1,419.712l-.08-.1,1.221-.9.084.1Z" transform="translate(-360.458 -276.617)" fill="#fff"/>
      <path id="Path_41771" data-name="Path 41771" d="M550.285,419.648l-.985-1.122.1-.076.985,1.122Z" transform="translate(-360.631 -276.45)" fill="#fff"/>
      <path id="Path_41772" data-name="Path 41772" d="M509.66,427.628l-1.908-.183a.737.737,0,0,1-.695-.79l.2-1.79a.763.763,0,0,1,.851-.645l1.908.187a.737.737,0,0,1,.7.79l-.2,1.79a.763.763,0,0,1-.851.641Z" transform="translate(-334.511 -280.014)" fill="#e0e0e0"/>
      <path id="Path_41773" data-name="Path 41773" d="M508.255,427.469l-1.908-.183a.737.737,0,0,1-.691-.794l.2-1.786a.763.763,0,0,1,.851-.645l1.909.183a.737.737,0,0,1,.691.794l-.2,1.786A.763.763,0,0,1,508.255,427.469Z" transform="translate(-333.645 -279.915)" fill="#ebebeb"/>
      <path id="Path_41774" data-name="Path 41774" d="M509.875,426.7l-.019.2-.664,1.092-.382-.034.641-1.042-.481-.046-.023.221-.3-.031.054-.473Z" transform="translate(-335.497 -281.483)" fill="#fff"/>
      <path id="Path_41775" data-name="Path 41775" d="M522.33,428.848l-1.909-.183a.74.74,0,0,1-.7-.794l.2-1.786a.763.763,0,0,1,.851-.645l1.908.183a.74.74,0,0,1,.7.79l-.2,1.786a.763.763,0,0,1-.85.649Z" transform="translate(-342.345 -280.768)" fill="#e0e0e0"/>
      <path id="Path_41776" data-name="Path 41776" d="M520.926,428.709l-1.908-.183a.737.737,0,0,1-.691-.79l.2-1.79a.763.763,0,0,1,.851-.645l1.908.187a.737.737,0,0,1,.7.79l-.2,1.79a.764.764,0,0,1-.855.641Z" transform="translate(-341.479 -280.682)" fill="#ebebeb"/>
      <path id="Path_41777" data-name="Path 41777" d="M522.934,428.977c-.027.256-.286.382-.656.355s-.588-.218-.561-.469a.355.355,0,0,1,.256-.3.3.3,0,0,1-.137-.294c.027-.233.271-.359.6-.328s.542.2.515.435a.317.317,0,0,1-.2.263.324.324,0,0,1,.183.336Zm-.336-.042c0-.118-.084-.2-.252-.218s-.275.046-.29.168.084.2.248.218.282-.05.282-.168Zm-.431-.618c0,.1.069.176.2.187s.237-.042.248-.141-.073-.179-.21-.191S522.178,428.214,522.167,428.317Z" transform="translate(-343.575 -282.317)" fill="#fff"/>
      <path id="Path_41778" data-name="Path 41778" d="M535.466,430.108l-1.909-.187a.733.733,0,0,1-.691-.79l.2-1.79a.763.763,0,0,1,.851-.641l1.909.183a.737.737,0,0,1,.695.79l-.2,1.79a.763.763,0,0,1-.855.645Z" transform="translate(-350.469 -281.547)" fill="#e0e0e0"/>
      <path id="Path_41779" data-name="Path 41779" d="M534.066,429.968l-1.908-.183a.737.737,0,0,1-.691-.794l.195-1.786a.763.763,0,0,1,.855-.645l1.908.183a.737.737,0,0,1,.691.794l-.2,1.786a.763.763,0,0,1-.85.645Z" transform="translate(-349.603 -281.46)" fill="#ebebeb"/>
      <path id="Path_41780" data-name="Path 41780" d="M536.052,429.914a.695.695,0,0,1-.821.653.824.824,0,0,1-.382-.13l.149-.218a.512.512,0,0,0,.263.1.382.382,0,0,0,.45-.355.512.512,0,0,1-.382.088.443.443,0,0,1-.45-.466.5.5,0,0,1,.6-.382.592.592,0,0,1,.573.714Zm-.351-.271c0-.115-.069-.206-.229-.221a.214.214,0,0,0-.263.176.249.249,0,0,0,.492.046Z" transform="translate(-351.697 -283.089)" fill="#fff"/>
      <path id="Path_41781" data-name="Path 41781" d="M548.606,431.358l-1.908-.183a.733.733,0,0,1-.691-.79l.2-1.79a.763.763,0,0,1,.855-.645l1.909.187a.733.733,0,0,1,.691.79l-.2,1.79a.763.763,0,0,1-.851.641Z" transform="translate(-358.594 -282.319)" fill="#e0e0e0"/>
      <path id="Path_41782" data-name="Path 41782" d="M547.2,431.229l-1.908-.183a.741.741,0,0,1-.7-.794l.2-1.786a.763.763,0,0,1,.851-.645l1.908.183a.74.74,0,0,1,.7.794l-.2,1.786a.763.763,0,0,1-.851.645Z" transform="translate(-357.722 -282.24)" fill="#ebebeb"/>
      <path id="Path_41783" data-name="Path 41783" d="M548.87,432.211l-1.55-.149.011-.122,1.55.149Z" transform="translate(-359.407 -284.791)" fill="#fff"/>
      <path id="Path_41784" data-name="Path 41784" d="M534.095,442.468l-1.908-.187a.729.729,0,0,1-.691-.79l.2-1.79a.764.764,0,0,1,.851-.641l1.908.183a.733.733,0,0,1,.691.79l-.2,1.79a.763.763,0,0,1-.851.645Z" transform="translate(-349.621 -289.189)" fill="#e0e0e0"/>
      <path id="Path_41785" data-name="Path 41785" d="M532.69,442.382l-1.908-.183a.741.741,0,0,1-.7-.79l.2-1.79a.763.763,0,0,1,.836-.626l1.927.187a.733.733,0,0,1,.691.79l-.2,1.79a.763.763,0,0,1-.851.622Z" transform="translate(-348.751 -289.149)" fill="#ebebeb"/>
      <path id="Path_41786" data-name="Path 41786" d="M547.23,443.748l-1.908-.187a.737.737,0,0,1-.695-.79l.2-1.79a.763.763,0,0,1,.851-.641l1.908.183a.737.737,0,0,1,.7.79l-.2,1.79a.763.763,0,0,1-.851.645Z" transform="translate(-357.741 -289.981)" fill="#e0e0e0"/>
      <path id="Path_41787" data-name="Path 41787" d="M545.83,443.608l-1.908-.183a.74.74,0,0,1-.7-.794l.2-1.786a.763.763,0,0,1,.851-.645l1.908.183a.74.74,0,0,1,.7.794l-.2,1.786a.763.763,0,0,1-.851.645Z" transform="translate(-356.875 -289.894)" fill="#ebebeb"/>
      <path id="Path_41788" data-name="Path 41788" d="M547.55,444.131l-1.55-.149.011-.122,1.55.145Z" transform="translate(-358.591 -292.161)" fill="#fff"/>
      <path id="Path_41789" data-name="Path 41789" d="M547.39,445.561l-1.55-.149.015-.122,1.546.149Z" transform="translate(-358.492 -293.045)" fill="#fff"/>
      <path id="Path_41790" data-name="Path 41790" d="M511.156,440.279l-6.508-.634a.885.885,0,0,1-.832-.95l.176-1.584a.92.92,0,0,1,1.023-.763l6.5.626a.885.885,0,0,1,.832.95l-.176,1.584a.912.912,0,0,1-1.015.771Z" transform="translate(-332.507 -287.512)" fill="#ebebeb"/>
      <path id="Path_41791" data-name="Path 41791" d="M514.148,440.233a.637.637,0,0,1,.7-.637.615.615,0,0,1,.542.763.63.63,0,0,1-.7.634.607.607,0,0,1-.538-.76Zm.9.088c.031-.3-.069-.447-.237-.462s-.294.1-.328.4.069.443.233.462.3-.1.336-.4Z" transform="translate(-338.884 -289.523)" fill="#fff"/>
      <path id="Path_41792" data-name="Path 41792" d="M534.574,442.97l-.134-.015.183-1.435.134.011Z" transform="translate(-351.443 -290.714)" fill="#fff"/>
      <path id="Path_41793" data-name="Path 41793" d="M534.36,443.331l-1.55-.149.015-.122,1.546.149Z" transform="translate(-350.435 -291.667)" fill="#fff"/>
    </g>
    <g id="freepik--Table--inject-14" transform="translate(73.279 201.799)">
      <path id="Path_41794" data-name="Path 41794" d="M312.257,470.1c0,.053-45.318.1-101.2.1s-101.212-.046-101.212-.1,45.306-.1,101.209-.1S312.257,470.038,312.257,470.1Z" transform="translate(-109.84 -470)" fill="#263238"/>
    </g>
    <g id="freepik--Character--inject-14" transform="translate(131.44 56.775)">
      <path id="Path_41795" data-name="Path 41795" d="M383.786,123.19a14,14,0,0,1,4.634,12.11c-.279,2.168-1,4.618.336,6.351s4.073,1.8,5.344,3.557c1.485,2.069,0,4.962.458,7.473a5.046,5.046,0,0,0,5.172,4,19.672,19.672,0,0,1-9.947,3.748l-2.554-3.634a3.614,3.614,0,0,1-.458,4.416,8.257,8.257,0,0,1-4.2,2.221A24.966,24.966,0,0,1,360.9,158.81" transform="translate(-323.234 -110.539)" fill="#263238"/>
      <path id="Path_41796" data-name="Path 41796" d="M310.524,119.914a50.218,50.218,0,0,0,2.069-4.84c.969-3.649-.626-7.886,1.328-11.119,1.389-2.29,4.157-3.324,6.76-3.989s5.393-1.2,7.4-2.989c1.469-1.313,2.363-3.176,3.817-4.492,2.088-1.878,5.065-2.4,7.87-2.439a16.79,16.79,0,0,1,8.37,1.782,9.23,9.23,0,0,1,4.874,6.752,27.383,27.383,0,0,0,.286,4.2c.408,1.489,1.508,2.672,2.153,4.1a7.393,7.393,0,0,1-2.29,8.779l-20.993,24.535c-4.225,1.363-14.18-1.023-17.233-4.244S308.944,124.063,310.524,119.914Z" transform="translate(-291.813 -90.045)" fill="#263238"/>
      <path id="Path_41797" data-name="Path 41797" d="M371.12,128.836c-.531-5.828-4.6-12.886-10.4-12.111l-18.039,5.1a3.435,3.435,0,0,0-2.966,3.557l3.16,43.757-.126.031s4.454,12.248,16.367,8.168c2.363-.809,3.382-3.435,3.786-6.134l.031-6.924c-.057-3.538-.1-4.989-.1-4.962s7.428-1.447,8.7-11.222C372.188,143.241,371.723,135.309,371.12,128.836Z" transform="translate(-310.132 -106.505)" fill="#ffbe9d"/>
      <path id="Path_41798" data-name="Path 41798" d="M376.287,170.226a1.256,1.256,0,0,1-1.172,1.294,1.195,1.195,0,0,1-1.317-1.092,1.244,1.244,0,0,1,1.168-1.29,1.2,1.2,0,0,1,1.321,1.088Z" transform="translate(-331.209 -138.945)" fill="#263238"/>
      <path id="Path_41799" data-name="Path 41799" d="M410.147,169.111a1.256,1.256,0,0,1-1.172,1.294,1.2,1.2,0,0,1-1.317-1.092,1.252,1.252,0,0,1,1.168-1.294,1.2,1.2,0,0,1,1.321,1.092Z" transform="translate(-352.145 -138.254)" fill="#263238"/>
      <path id="Path_41800" data-name="Path 41800" d="M410.472,157.582c-.145.221-1.267-.569-2.725-.428s-2.435,1.088-2.618.893c-.088-.084.046-.469.469-.908a3.351,3.351,0,0,1,2.069-.969,3.309,3.309,0,0,1,2.2.6C410.354,157.124,410.549,157.483,410.472,157.582Z" transform="translate(-350.565 -130.923)" fill="#263238"/>
      <path id="Path_41801" data-name="Path 41801" d="M374.466,159.54c-.183.2-1.282-.683-2.84-.691s-2.71.817-2.878.611c-.084-.092.1-.458.6-.844a3.782,3.782,0,0,1,2.29-.737,3.664,3.664,0,0,1,2.26.8C374.39,159.07,374.558,159.452,374.466,159.54Z" transform="translate(-328.074 -131.988)" fill="#263238"/>
      <path id="Path_41802" data-name="Path 41802" d="M395.232,168.751a9.011,9.011,0,0,1,2.172-.454c.343-.046.664-.122.714-.359a1.7,1.7,0,0,0-.256-1.008q-.515-1.229-1.088-2.584a42.939,42.939,0,0,1-2.466-6.767,45.486,45.486,0,0,1,3.008,6.554l1.042,2.6a1.955,1.955,0,0,1,.218,1.34.867.867,0,0,1-.55.519,2.406,2.406,0,0,1-.58.1,8.179,8.179,0,0,1-2.214.059Z" transform="translate(-343.882 -131.801)" fill="#263238"/>
      <path id="Path_41803" data-name="Path 41803" d="M379.064,223.385a24.81,24.81,0,0,1-13.134-3.115s3.47,6.741,13.184,5.557Z" transform="translate(-326.344 -170.565)" fill="#eb996e"/>
      <path id="Path_41804" data-name="Path 41804" d="M389.048,193.977a2.427,2.427,0,0,0-2.2-.836,2.2,2.2,0,0,0-1.5.859,1.4,1.4,0,0,0-.061,1.607,1.6,1.6,0,0,0,1.771.382,5.138,5.138,0,0,0,1.691-1.069,1.5,1.5,0,0,0,.382-.408.447.447,0,0,0,0-.5" transform="translate(-338.176 -153.775)" fill="#f8951d"/>
      <path id="Path_41805" data-name="Path 41805" d="M386.128,189.57c.218,0,.263,1.439,1.527,2.443s2.825.794,2.844,1c.023.088-.34.29-1,.328a3.637,3.637,0,0,1-2.366-.763,3.156,3.156,0,0,1-1.2-2.05C385.876,189.933,386.029,189.566,386.128,189.57Z" transform="translate(-338.706 -151.582)" fill="#263238"/>
      <path id="Path_41806" data-name="Path 41806" d="M374.069,151.225c-.122.382-1.47.233-3.054.466s-2.832.7-3.053.382c-.1-.157.114-.5.618-.874a5.344,5.344,0,0,1,4.66-.637C373.824,150.771,374.122,151.05,374.069,151.225Z" transform="translate(-327.586 -127.295)" fill="#263238"/>
      <path id="Path_41807" data-name="Path 41807" d="M407.761,143.466c-.263.313-1.328.023-2.6.046s-2.344.267-2.6-.042c-.114-.153.046-.462.508-.763a4.011,4.011,0,0,1,2.1-.557,3.928,3.928,0,0,1,2.092.557C407.719,143,407.876,143.313,407.761,143.466Z" transform="translate(-348.972 -122.261)" fill="#263238"/>
      <path id="Path_41808" data-name="Path 41808" d="M335.418,122.46a7.94,7.94,0,0,1,4.168-2.481A89.472,89.472,0,0,1,360.4,115.75c.8,1.485-.1,3.408-1.473,4.393a16.3,16.3,0,0,1-4.7,1.832c-1.607.515-3.275,1.344-4,2.87-.763,1.622-.282,3.611-.973,5.267-1.191,2.855-5.29,3.592-6.462,6.454-.885,2.16.275,4.58.477,6.9a8.351,8.351,0,0,1-8.638,9.1q-.111-12.538-.221-25.077C334.372,125.743,334.4,123.861,335.418,122.46Z" transform="translate(-306.848 -105.939)" fill="#263238"/>
      <path id="Path_41809" data-name="Path 41809" d="M287.112,150.859c1.374-1.115,3.073-2.053,3.683-3.718.882-2.42-.95-5.4.431-7.584,1.26-1.985,4.672-1.714,5.851-3.748.924-1.588.027-3.076.416-4.492a3.908,3.908,0,0,1,3.931-2.328L312,146.042c.786,5.588,1.706,8.584.359,11.764a26.467,26.467,0,0,0-2.019,5.3,5.37,5.37,0,0,0,1.508,5.191c-6.832.2-13.038-3.672-18.764-7.4l-6.057-3.95a4.55,4.55,0,0,1-1.645-1.527C284.539,153.867,285.737,151.974,287.112,150.859Z" transform="translate(-276.366 -114.104)" fill="#263238"/>
      <path id="Path_41810" data-name="Path 41810" d="M305.78,140.884a3.161,3.161,0,0,0,.721.176,6.21,6.21,0,0,0,2.126-.046,6.542,6.542,0,0,0,3.034-1.447,6.439,6.439,0,0,0,2.141-3.882,6.648,6.648,0,0,0-.1-2.622,10.717,10.717,0,0,0-1.145-2.592,10.068,10.068,0,0,1-1.176-2.672,3.384,3.384,0,0,1,.5-2.87c.656-.786,1.821-.947,2.908-1.324a3.122,3.122,0,0,0,1.5-1,3.076,3.076,0,0,0,.557-1.763,19.421,19.421,0,0,0-.6-3.584,3.857,3.857,0,0,1,.076-1.737,2.416,2.416,0,0,1,1.05-1.332,6.923,6.923,0,0,1,3.489-.763,7.4,7.4,0,0,0,3.557-.863,6.588,6.588,0,0,0,2.527-2.485A10.833,10.833,0,0,0,328,106.861a15.368,15.368,0,0,1,.817-3.027,6.794,6.794,0,0,1,1.721-2.336,7.653,7.653,0,0,1,8.985-.817,9.367,9.367,0,0,1,2.523,2.126,12.464,12.464,0,0,1,1.508,2.4,1.031,1.031,0,0,0-.057-.179,4.947,4.947,0,0,0-.21-.511,9.159,9.159,0,0,0-1.122-1.809,9.284,9.284,0,0,0-2.531-2.218,7.993,7.993,0,0,0-4.294-1.172,8.111,8.111,0,0,0-5.019,1.931,7.168,7.168,0,0,0-1.824,2.443,15.486,15.486,0,0,0-.855,3.092,10.56,10.56,0,0,1-1.015,3.107,6.263,6.263,0,0,1-2.389,2.332,6.985,6.985,0,0,1-3.386.8,7.134,7.134,0,0,0-3.683.813,2.824,2.824,0,0,0-1.214,1.527,4.244,4.244,0,0,0-.088,1.908,19.554,19.554,0,0,1,.6,3.515,2.672,2.672,0,0,1-.473,1.527,2.783,2.783,0,0,1-1.328.878c-.519.191-1.073.309-1.611.508a3.24,3.24,0,0,0-1.447.939,3.719,3.719,0,0,0-.569,3.176,10.355,10.355,0,0,0,1.229,2.775,10.38,10.38,0,0,1,1.145,2.5,6.425,6.425,0,0,1,.118,2.5,6.252,6.252,0,0,1-2.012,3.76,6.488,6.488,0,0,1-2.92,1.466,7.309,7.309,0,0,1-2.819.064Z" transform="translate(-289.153 -95.778)" fill="#455a64"/>
      <path id="Path_41811" data-name="Path 41811" d="M282.982,128.114a1.435,1.435,0,0,0-.252.546,2.439,2.439,0,0,0,.21,1.7,2.606,2.606,0,0,0,.824.958,2.748,2.748,0,0,0,1.435.458,3.4,3.4,0,0,0,3.073-1.748,4.481,4.481,0,0,0,.588-2.042,6.363,6.363,0,0,0-.382-2.271c-.469-1.5-1.378-2.985-1.317-4.706a3.153,3.153,0,0,1,.9-2.29,3.46,3.46,0,0,1,2.512-.653,7.933,7.933,0,0,0,2.962-.16,2.584,2.584,0,0,0,1.263-.962,3.668,3.668,0,0,0,.569-1.477,12.107,12.107,0,0,0-.1-3.053,6.6,6.6,0,0,1,.294-2.794,7.08,7.08,0,0,1,3.37-4,10.076,10.076,0,0,1,4.771-.847,14.5,14.5,0,0,0,4.344-.466,9.069,9.069,0,0,0,3.145-1.771,8.872,8.872,0,0,0,1.775-2.065,6.46,6.46,0,0,0,.916-2.118,12.641,12.641,0,0,1-1.046,2.034,9.08,9.08,0,0,1-1.79,1.981,8.882,8.882,0,0,1-3.084,1.668,13.811,13.811,0,0,1-4.26.408,10.171,10.171,0,0,0-4.939.851,7.447,7.447,0,0,0-3.573,4.2,7.069,7.069,0,0,0-.321,2.954,11.721,11.721,0,0,1,.1,2.939,2.575,2.575,0,0,1-1.576,2.134,8.548,8.548,0,0,1-2.817.141,3.865,3.865,0,0,0-2.779.763,3.519,3.519,0,0,0-1,2.574,6.7,6.7,0,0,0,.5,2.565c.29.786.626,1.527.87,2.252a6.03,6.03,0,0,1,.382,2.157,4.287,4.287,0,0,1-.523,1.908,3.172,3.172,0,0,1-2.824,1.664,2.561,2.561,0,0,1-1.336-.382,2.5,2.5,0,0,1-1.065-2.485C282.886,128.3,283,128.126,282.982,128.114Z" transform="translate(-274.858 -95.18)" fill="#263238"/>
      <path id="Path_41812" data-name="Path 41812" d="M440.236,150.443a2.672,2.672,0,0,1-.111,1.779,2.336,2.336,0,0,1-1.485,1.366,2.458,2.458,0,0,1-2.462-.8,2.245,2.245,0,0,1-.515-1.454,4.645,4.645,0,0,1,.344-1.71c.416-1.145,1.218-2.351,1.176-3.859a5.477,5.477,0,0,0-1.874-4.034,6.389,6.389,0,0,0-2.065-1.221,9.445,9.445,0,0,0-2.408-.466,13.026,13.026,0,0,1-2.34-.363,3.134,3.134,0,0,1-1.775-1.229,3.863,3.863,0,0,1-.565-2.046,7.659,7.659,0,0,1,.279-2.092,15.846,15.846,0,0,0,.8-3.95,6.027,6.027,0,0,0-1.053-3.366,7.828,7.828,0,0,0-2.126-1.985,14.5,14.5,0,0,1-1.714-1.309,4.536,4.536,0,0,1-1.046-1.489.509.509,0,0,0,.023.122,2.009,2.009,0,0,0,.122.34,3.6,3.6,0,0,0,.79,1.145,13.31,13.31,0,0,0,1.695,1.386,7.688,7.688,0,0,1,2.023,1.958,5.836,5.836,0,0,1,.958,3.21,15.894,15.894,0,0,1-.832,3.859,7.912,7.912,0,0,0-.3,2.191,4.2,4.2,0,0,0,.618,2.252,3.507,3.507,0,0,0,1.985,1.393,13.044,13.044,0,0,0,2.416.382,9.133,9.133,0,0,1,2.313.443,6.154,6.154,0,0,1,1.943,1.145,5.145,5.145,0,0,1,1.771,3.748c.05,1.382-.691,2.55-1.122,3.741a4.993,4.993,0,0,0-.344,1.832,2.546,2.546,0,0,0,.611,1.63,2.691,2.691,0,0,0,2.737.824,2.6,2.6,0,0,0,1.7-2.9,1.47,1.47,0,0,0-.172-.468Z" transform="translate(-360.58 -109.933)" fill="#263238"/>
      <path id="Path_41813" data-name="Path 41813" d="M319.858,119.956c-.653,2.16-2.565,3.664-3.817,5.542-1.767,2.649-2.176,5.97-2.214,9.161a17.587,17.587,0,0,0-.8-4.42,10.886,10.886,0,0,1,7.317-12.489" transform="translate(-293.501 -107.175)" fill="#263238"/>
      <path id="Path_41814" data-name="Path 41814" d="M331.689,242.555c1.282-.359-6.328,2.55-6.489,2.6l6.794,11.069,26.336,5.607,9.924-16.107-20.039-5.973Z" transform="translate(-301.16 -182.609)" fill="#ffbe9d"/>
      <path id="Path_41815" data-name="Path 41815" d="M330.949,284.018l16.058-6.9s-6.107-21.2-7.71-23.443-18.176-7.393-18.176-7.393-5.725,9.542-15.523,10.2-13.508-.382-15.435-8.886c0,0-16.413,3.786-17.687,5.233s-9.924,25.253-9.924,25.253,17.019,4.817,17.665,5.138,1.763,25.531,1.763,25.531-7.6,19.646-7.909,23.18l62.356-.16-6.435-37.15Z" transform="translate(-262.423 -186.647)" fill="#455a64"/>
      <path id="Path_41816" data-name="Path 41816" d="M296.27,295.07a5.913,5.913,0,0,1,.256.763c.153.531.363,1.233.611,2.084.508,1.763,1.2,4.2,1.939,6.9.382,1.347.718,2.634,1.038,3.817.153.584.317,1.145.447,1.668s.233,1.019.321,1.469c.176.9.294,1.634.382,2.141a4.841,4.841,0,0,1,.1.79.885.885,0,0,1-.061-.2c-.034-.156-.08-.347-.134-.576-.111-.538-.263-1.256-.447-2.122-.1-.45-.21-.939-.347-1.458s-.3-1.073-.466-1.653c-.324-1.172-.683-2.458-1.057-3.817-.744-2.7-1.4-5.145-1.87-6.92l-.542-2.1A4.753,4.753,0,0,1,296.27,295.07Z" transform="translate(-283.272 -216.814)" fill="#263238"/>
      <path id="Path_41817" data-name="Path 41817" d="M361.241,381.78a1.179,1.179,0,0,1-.183.179l-.557.473c-.481.412-1.2.989-2.1,1.676a72.967,72.967,0,0,1-15.268,8.931c-1.042.45-1.908.79-2.492,1.011l-.683.248a1.14,1.14,0,0,1-.248.073,1.234,1.234,0,0,1,.229-.115c.176-.08.382-.176.672-.29.584-.244,1.424-.611,2.458-1.076a83.543,83.543,0,0,0,15.248-8.912c.912-.672,1.645-1.225,2.141-1.615l.584-.443a.858.858,0,0,1,.2-.141Z" transform="translate(-310.132 -270.428)" fill="#263238"/>
      <g id="Group_10887" data-name="Group 10887" transform="translate(19.391 92.634)" opacity="0.2">
        <path id="Path_41818" data-name="Path 41818" d="M357.353,343.031c-3.034-3.607-7.275-6-11.634-7.8-4.424-1.821-9.279-3.107-13.974-2.187-4.332.851-8.073,3.477-11.641,6.073A14.5,14.5,0,0,0,316.883,342a13.557,13.557,0,0,0-1.908,4.248c-1.221,3.863-1.107,8.355-1.954,12.317l.034.706c.817.248,1.183-.134,1.935-.538,4.473-2.431,6.286-8.779,11.225-10.012a24.5,24.5,0,0,1,2.748-.382,15.618,15.618,0,0,0,6.66-2.519,5.653,5.653,0,0,1,2.6-1.244,5.5,5.5,0,0,1,2.863,1.008,29.523,29.523,0,0,0,8.321,3.149,2.671,2.671,0,0,1,1.107.408,2.611,2.611,0,0,1,.74,1.282,29.17,29.17,0,0,0,4.557,8.809,14.624,14.624,0,0,0,8.176,5.344C363.334,356.959,362.25,348.871,357.353,343.031Z" transform="translate(-313.02 -332.741)"/>
      </g>
      <g id="Group_10888" data-name="Group 10888" transform="translate(33.361 114.783)" opacity="0.2">
        <path id="Path_41819" data-name="Path 41819" d="M349.62,402.076c3.435,1.2,9.183-.382,12.371-2.145a15.009,15.009,0,0,0,6.748-9.161C363.368,394.247,355.49,399.476,349.62,402.076Z" transform="translate(-349.62 -390.77)"/>
      </g>
      <g id="Group_10889" data-name="Group 10889" transform="translate(13.052 80.363)" opacity="0.2">
        <path id="Path_41820" data-name="Path 41820" d="M298.927,307.7c-.744-2.317-1.3-4.79-2.038-7.107H296.8a22.981,22.981,0,0,0,.023,8.577,13.42,13.42,0,0,0,4.309,7.336A66.925,66.925,0,0,0,298.927,307.7Z" transform="translate(-296.412 -300.59)"/>
      </g>
      <path id="Path_41821" data-name="Path 41821" d="M292.781,269.825a11.41,11.41,0,0,1-1.061-2.645,11.11,11.11,0,0,1-.588-2.79c.061-.011.355,1.225.813,2.721S292.846,269.8,292.781,269.825Z" transform="translate(-280.088 -197.844)" fill="#263238"/>
      <path id="Path_41822" data-name="Path 41822" d="M446.97,278.14c.065,0-.725,5.5-1.763,12.248S443.28,302.6,443.215,302.6s.725-5.493,1.763-12.248S446.9,278.132,446.97,278.14Z" transform="translate(-374.127 -206.346)" fill="#263238"/>
      <path id="Path_41823" data-name="Path 41823" d="M342.5,242.239c-7.519-4.386-21.462-2.168-21.462-2.168a9.036,9.036,0,0,0-8.9-3.229,1.164,1.164,0,0,0-.947,1.145l.1,5.725c-5.725,2.351-7.057,9.7-7.057,9.7l-2.573.721a2.13,2.13,0,0,0-1.553,2.084l.1,5.538a2.126,2.126,0,0,0,1.676,2.046l2.538.546c3.008,4.687,5.962,7.218,9.924,8.546l.1,4.931,8.115-.134,1.882-3.435,9.161-.24,1.5,3.721,8.432-.408.088-5.8c5.786-4.721,7.359-7.744,7.489-14.061S349.772,246.488,342.5,242.239Z" transform="translate(-285.64 -180.709)" fill="#f8951d"/>
      <path id="Path_41824" data-name="Path 41824" d="M322.2,276.324a1.248,1.248,0,1,0,.305-.092" transform="translate(-298.848 -205.157)" fill="#263238"/>
      <path id="Path_41825" data-name="Path 41825" d="M332.382,245.367a7.921,7.921,0,0,1-.118-1.008,15.252,15.252,0,0,0-1.275-4.672,7.637,7.637,0,0,1-.408-.927,3.979,3.979,0,0,1,.542.855,11.748,11.748,0,0,1,.886,2.29,12.09,12.09,0,0,1,.4,2.428,3.645,3.645,0,0,1-.027,1.034Z" transform="translate(-304.487 -181.997)" fill="#263238"/>
      <g id="Group_10890" data-name="Group 10890" transform="translate(37.903 61.562)" opacity="0.3">
        <path id="Path_41826" data-name="Path 41826" d="M361.52,252l.527.97a31.446,31.446,0,0,1,10.393-.172l-1.008-1.1a24.914,24.914,0,0,0-9.912.305Z" transform="translate(-361.52 -251.334)"/>
      </g>
      <path id="Path_41827" data-name="Path 41827" d="M304.536,293.324c0,.576-.2,1.046-.469,1.05s-.5-.458-.508-1.034.2-1.046.469-1.05S304.525,292.748,304.536,293.324Z" transform="translate(-287.779 -215.095)" fill="#263238"/>
      <path id="Path_41828" data-name="Path 41828" d="M302.721,291.885a2.25,2.25,0,0,0,.462.076,1.454,1.454,0,0,0,1.126-.435,3.135,3.135,0,0,0,.508-.7,4.3,4.3,0,0,0,.309-.954,9.1,9.1,0,0,0,.282-2.29,8.718,8.718,0,0,0-.3-2.29,2.672,2.672,0,0,0-1.061-1.485,2.023,2.023,0,0,0-1.2-.324c-.3.019-.454.1-.462.076s.034-.027.111-.061a1.28,1.28,0,0,1,.344-.1,2.016,2.016,0,0,1,1.275.286,2.729,2.729,0,0,1,1.164,1.546,8.466,8.466,0,0,1,.324,2.347,8.881,8.881,0,0,1-.3,2.351,4.407,4.407,0,0,1-.344.985,3.053,3.053,0,0,1-.553.725,1.336,1.336,0,0,1-.664.382,1.68,1.68,0,0,1-.569.038,1.1,1.1,0,0,1-.347-.088C302.751,291.92,302.717,291.893,302.721,291.885Z" transform="translate(-287.055 -209.592)" fill="#263238"/>
      <path id="Path_41829" data-name="Path 41829" d="M365.955,330.27a1.987,1.987,0,0,1-.256.073l-.74.172c-.645.149-1.588.332-2.752.531s-2.565.382-4.118.561-3.275.275-5.08.321-3.531,0-5.092-.073-2.97-.21-4.145-.351-2.122-.279-2.771-.382l-.763-.134a1.874,1.874,0,0,1-.237-.057,1.269,1.269,0,0,1,.267.019l.763.1c.653.1,1.6.21,2.775.332s2.576.233,4.137.309,3.275.1,5.076.057,3.515-.164,5.069-.3,2.947-.332,4.115-.515,2.111-.344,2.76-.469l.763-.134a1.14,1.14,0,0,1,.229-.055Z" transform="translate(-310.311 -238.579)" fill="#263238"/>
      <path id="Path_41830" data-name="Path 41830" d="M342.653,245.46a1.527,1.527,0,0,1-.057.408,6.7,6.7,0,0,1-.332,1.069,7.336,7.336,0,0,1-5.531,4.481,6.662,6.662,0,0,1-1.115.1,1.586,1.586,0,0,1-.408-.031c0-.038.584-.019,1.5-.21a7.634,7.634,0,0,0,5.428-4.4C342.516,246.048,342.615,245.452,342.653,245.46Z" transform="translate(-307.349 -186.14)" fill="#263238"/>
      <path id="Path_41831" data-name="Path 41831" d="M318.843,257c.019.031-.45.351-1.145.943a15.389,15.389,0,0,0-4.168,5.706c-.355.84-.515,1.386-.55,1.374a1.593,1.593,0,0,1,.08-.382c.065-.252.179-.607.34-1.038a13.741,13.741,0,0,1,4.2-5.76,9.4,9.4,0,0,1,.886-.637,1.642,1.642,0,0,1,.357-.206Z" transform="translate(-293.604 -193.275)" fill="#fff"/>
      <path id="Path_41832" data-name="Path 41832" d="M304.46,282.021a3.707,3.707,0,0,1,1.019-.3,3.819,3.819,0,0,1,1.042-.21,2.336,2.336,0,0,1-.992.4,2.407,2.407,0,0,1-1.069.111Z" transform="translate(-288.336 -208.43)" fill="#fff"/>
      <path id="Path_41833" data-name="Path 41833" d="M300.778,291.5a3.168,3.168,0,0,1-.172-.866,17.258,17.258,0,0,1,0-4.256,3.574,3.574,0,0,1,.172-.866c.061,0-.107,1.34-.107,3S300.836,291.491,300.778,291.5Z" transform="translate(-285.872 -210.903)" fill="#fff"/>
      <path id="Path_41834" data-name="Path 41834" d="M329.675,239.33c.061,0-.073,1.313-.042,2.924s.2,2.908.141,2.92a3.179,3.179,0,0,1-.179-.844,16.512,16.512,0,0,1-.16-2.073,16.139,16.139,0,0,1,.092-2.08,3.369,3.369,0,0,1,.148-.847Z" transform="translate(-303.776 -182.35)" fill="#fff"/>
      <path id="Path_41835" data-name="Path 41835" d="M338.145,238.925a11.641,11.641,0,0,0-6.435-1.221,3.344,3.344,0,0,1,.969-.172,8.851,8.851,0,0,1,4.626.878,3.476,3.476,0,0,1,.84.515Z" transform="translate(-305.185 -181.22)" fill="#fff"/>
      <path id="Path_41836" data-name="Path 41836" d="M373.32,255.6c0,.031-.584-.073-1.527-.191a27.889,27.889,0,0,0-7.367.038c-.935.126-1.527.237-1.527.206a1.411,1.411,0,0,1,.382-.118c.256-.069.634-.145,1.1-.229a23.177,23.177,0,0,1,3.7-.321,22.841,22.841,0,0,1,3.7.286c.469.076.847.149,1.107.214a1.818,1.818,0,0,1,.432.115Z" transform="translate(-324.471 -192.032)" fill="#fff"/>
      <path id="Path_41837" data-name="Path 41837" d="M372.475,245.8a3.171,3.171,0,0,1-.576-.1c-.382-.076-.9-.183-1.565-.3a35.75,35.75,0,0,0-10.47-.29c-.668.076-1.21.153-1.58.21a3.556,3.556,0,0,1-.584.069,3.1,3.1,0,0,1,.569-.145c.382-.08.908-.176,1.576-.275a31.9,31.9,0,0,1,5.271-.3,31.52,31.52,0,0,1,5.241.592c.664.134,1.2.259,1.561.363a3.622,3.622,0,0,1,.557.176Z" transform="translate(-321.255 -185.646)" fill="#fff"/>
      <path id="Path_41838" data-name="Path 41838" d="M326.861,318.915a1.324,1.324,0,0,1-.382-.046,9.077,9.077,0,0,1-1-.248,12.527,12.527,0,0,1-5.7-3.626,9.3,9.3,0,0,1-.645-.8,1.36,1.36,0,0,1-.2-.321c.027-.023.351.408.95,1.031a14.141,14.141,0,0,0,5.641,3.6C326.342,318.766,326.869,318.88,326.861,318.915Z" transform="translate(-297.283 -228.437)" fill="#fff"/>
      <path id="Path_41839" data-name="Path 41839" d="M404.2,310.64a3.617,3.617,0,0,1-.324.538,5.774,5.774,0,0,1-.427.6c-.179.225-.382.5-.618.763a11.207,11.207,0,0,1-.821.859,12.9,12.9,0,0,1-1.023.9,15.176,15.176,0,0,1-5.546,2.809,13.187,13.187,0,0,1-1.332.29,11.321,11.321,0,0,1-1.179.156c-.359.046-.691.038-.977.05a5.691,5.691,0,0,1-.74,0,3.468,3.468,0,0,1-.626-.057,3.705,3.705,0,0,1,.63-.019c.2,0,.447,0,.733-.023s.611-.023.966-.08a11.406,11.406,0,0,0,1.164-.176c.416-.069.855-.191,1.313-.3a17.213,17.213,0,0,0,2.878-1.122,16.836,16.836,0,0,0,2.6-1.656,12.27,12.27,0,0,0,1.023-.878c.3-.3.588-.569.832-.832s.45-.519.634-.737a5.972,5.972,0,0,0,.45-.576A3.751,3.751,0,0,1,404.2,310.64Z" transform="translate(-341.585 -226.441)" fill="#fff"/>
      <path id="Path_41840" data-name="Path 41840" d="M265.81,332.17s-3.1,17.916-3.5,20.962.424,9.985,2.908,12.069,4.58,2.611,6.34,2.29,7.294-6.107,9.378-8.42,12.554-21.153,12.554-21.153l-9.664-4.286-5.653,6.87,1.275-4.344Z" transform="translate(-262.217 -239.754)" fill="#ffbe9d"/>
      <path id="Path_41841" data-name="Path 41841" d="M284.77,353.36a3.58,3.58,0,0,1-.382.55c-.279.382-.645.866-1.084,1.454s-1.023,1.332-1.672,2.111a24.82,24.82,0,0,1-2.248,2.42,15.688,15.688,0,0,1-2.71,1.908c-.87.519-1.649.989-2.263,1.439a12.286,12.286,0,0,0-1.821,1.653.817.817,0,0,1,.088-.149,4.259,4.259,0,0,1,.3-.382,8.28,8.28,0,0,1,1.332-1.244,26.565,26.565,0,0,1,2.252-1.5,16.305,16.305,0,0,0,2.672-1.908,26.592,26.592,0,0,0,2.241-2.386c.657-.763,1.225-1.481,1.706-2.076l1.145-1.408a3.434,3.434,0,0,1,.444-.482Z" transform="translate(-268.631 -252.856)" fill="#eb996e"/>
      <path id="Path_41842" data-name="Path 41842" d="M314.937,318.69s3.012-2.534,3.962-1.8,1.008,1.416.611,1.927-2.672,3.4-2.672,3.4l1.683,1.592,3-.977,1.286-.309s3.084.073,2.428,2.145c0,0,3.187-1.015,3.763-1.065.882-.073,3.1-.294,2.783.855a2.492,2.492,0,0,1-1.527,1.557,1.045,1.045,0,0,1,.565,1.7,3.71,3.71,0,0,1-2.019,1.527l-5.023,2.012a2.725,2.725,0,0,1-1.908.038l-1.618-.569-3.118,1.363s-6.3-1.817-7.2-7.317l.817-1.7.538-1.008s-.744-4.7-.763-5.344a21.461,21.461,0,0,0-1.443-3.66.718.718,0,0,1,.763-1.008,4.626,4.626,0,0,1,2.256,1.172,6.648,6.648,0,0,1,2.431,3.71l.458,1.844" transform="translate(-291.149 -227.312)" fill="#ffbe9d"/>
      <path id="Path_41843" data-name="Path 41843" d="M317.838,328.411s.21-.172.569-.5.844-.84,1.466-1.462a13.784,13.784,0,0,1,1.073-.95,6.6,6.6,0,0,1,1.382-.92,2.379,2.379,0,0,1,.889-.237,1.736,1.736,0,0,1,.485.042.946.946,0,0,1,.244.076,2,2,0,0,1,.214.13,1.435,1.435,0,0,1,.382.363.849.849,0,0,1,.088.256l.069.229a.973.973,0,0,1,.046.542,4.193,4.193,0,0,1-.168.481,7.634,7.634,0,0,1-1.061,1.66,14.624,14.624,0,0,1-1.229,1.351,8.431,8.431,0,0,1-2.538,1.8,2.462,2.462,0,0,1-2.053-.031,1.5,1.5,0,0,1-.454-.344.531.531,0,0,1-.118-.16,2.21,2.21,0,0,0,2.569.382,8.674,8.674,0,0,0,2.42-1.809,15.351,15.351,0,0,0,1.2-1.34,7.315,7.315,0,0,0,1.027-1.611,3.257,3.257,0,0,0,.16-.458.791.791,0,0,0-.042-.42l-.069-.233a.661.661,0,0,0-.065-.2,1.112,1.112,0,0,0-.309-.3,1.323,1.323,0,0,0-.183-.114.716.716,0,0,0-.2-.061,1.439,1.439,0,0,0-.424-.038,2.228,2.228,0,0,0-.817.21,6.49,6.49,0,0,0-1.351.878c-.4.321-.763.618-1.08.92-.63.6-1.145,1.107-1.527,1.412-.191.157-.347.267-.454.34a.6.6,0,0,0-.141.116Z" transform="translate(-296.164 -234.914)" fill="#eb996e"/>
      <path id="Path_41844" data-name="Path 41844" d="M320.644,329.547a7.133,7.133,0,0,1-2.5,0,7.385,7.385,0,0,1,2.5,0Z" transform="translate(-296.795 -238.066)" fill="#eb996e"/>
      <path id="Path_41845" data-name="Path 41845" d="M324.583,341.679a1.143,1.143,0,0,1,.225-.111l.656-.279,2.431-.981a17.343,17.343,0,0,1,1.706-.622,4.744,4.744,0,0,1,2.1-.179,3.085,3.085,0,0,1,1.088.382,1.4,1.4,0,0,1,.744.973,1.344,1.344,0,0,1-.542,1.145,4.226,4.226,0,0,1-1.145.576l-4.435,1.733a12.979,12.979,0,0,1-1.985.656,4.073,4.073,0,0,1-1.832,0,1.882,1.882,0,0,1-1.214-.893,2.8,2.8,0,0,1-.317-1.1,4.862,4.862,0,0,1-.019-.714,1.394,1.394,0,0,1,.023-.248c.023,0,0,.344.08.954a2.761,2.761,0,0,0,.34,1.042,1.763,1.763,0,0,0,1.145.8,3.982,3.982,0,0,0,1.756-.042,12.975,12.975,0,0,0,1.95-.668l4.428-1.748a4.177,4.177,0,0,0,1.084-.542,1.145,1.145,0,0,0,.466-.954,1.2,1.2,0,0,0-.641-.817,2.818,2.818,0,0,0-1.011-.382,4.642,4.642,0,0,0-2.012.153,17.622,17.622,0,0,0-1.7.6l-2.454.916-.672.24A.905.905,0,0,1,324.583,341.679Z" transform="translate(-299.204 -244.262)" fill="#eb996e"/>
      <path id="Path_41846" data-name="Path 41846" d="M339.422,343.173a1.1,1.1,0,0,1,.214-.1l.63-.252a15.25,15.25,0,0,1,2.382-.737,7.353,7.353,0,0,1,1.721-.164,5.21,5.21,0,0,1,.973.107.889.889,0,0,1,.469.282.847.847,0,0,1,.187.538,1.313,1.313,0,0,1-.492,1,6.225,6.225,0,0,1-.935.637,15.9,15.9,0,0,1-2.107,1.038,41.561,41.561,0,0,1-4.3,1.408l-1.908.546a17.079,17.079,0,0,1-1.668.427,3.2,3.2,0,0,1-1.435-.042,2.1,2.1,0,0,1-.928-.565,1.443,1.443,0,0,1-.34-.592.742.742,0,0,1-.034-.237,1.74,1.74,0,0,0,.435.763,2.034,2.034,0,0,0,.9.508,3.126,3.126,0,0,0,1.374,0c.508-.1,1.053-.275,1.645-.45l1.889-.561a41.068,41.068,0,0,0,4.271-1.42,16.24,16.24,0,0,0,2.084-1.019,6.25,6.25,0,0,0,.9-.611,1.114,1.114,0,0,0,.431-.84.634.634,0,0,0-.511-.641,5.078,5.078,0,0,0-.924-.107,7.636,7.636,0,0,0-1.691.13,18.047,18.047,0,0,0-2.382.668l-.641.214a.951.951,0,0,1-.209.072Z" transform="translate(-305.272 -245.779)" fill="#eb996e"/>
      <path id="Path_41847" data-name="Path 41847" d="M411.17,338.016s11.019,27.814,17.241,28.543c6.63.763,13.061-5.1,11.855-15.245-.462-3.889-3.176-22.214-3.176-22.214l-13.8,5.935,3.664,7.6-5.435-8.489Z" transform="translate(-354.316 -237.855)" fill="#ffbe9d"/>
      <path id="Path_41848" data-name="Path 41848" d="M454.877,368.029c-.023,0,0-.355-.042-.992a11.1,11.1,0,0,0-.427-2.672,6.982,6.982,0,0,0-2.1-3.317c-.55-.5-1.26-.893-1.87-1.466a19.038,19.038,0,0,1-1.8-1.832,61.523,61.523,0,0,1-5.233-7.29c-.611-.973-1.1-1.763-1.427-2.313l-.382-.637a1.03,1.03,0,0,1-.118-.229,1.368,1.368,0,0,1,.156.206l.416.611,1.489,2.271a69.44,69.44,0,0,0,5.267,7.229,20.571,20.571,0,0,0,1.779,1.813c.6.565,1.29.954,1.866,1.477a7.1,7.1,0,0,1,2.111,3.435,10.134,10.134,0,0,1,.355,2.7c0,.321,0,.573-.019.74a1.236,1.236,0,0,1-.023.263Z" transform="translate(-373.057 -249.096)" fill="#eb996e"/>
      <path id="Path_41849" data-name="Path 41849" d="M397.974,314.48c.592.981,1.928,4,1.928,4s3.584,5.138,3.412,8.527c-.034.66-2.1,2-2.1,2s-6.542,4.909-8.115,5.237-3.924-1.179-4.2-1.244-9.1-5.7-9.138-6.489a1.656,1.656,0,0,1,.954-1.71l10.016-.569,4.763-3.729-.214-2.767" transform="translate(-334.887 -228.816)" fill="#ffbe9d"/>
      <path id="Path_41850" data-name="Path 41850" d="M404.8,340.26a3.53,3.53,0,0,1-.538.4l-1.527,1.027c-.649.427-1.389.931-2.29,1.492a1.774,1.774,0,0,1-.809.118,7.317,7.317,0,0,0-.813.031c-.553.031-1.122.076-1.71.126a29.955,29.955,0,0,1-3.324.149,3.435,3.435,0,0,1-1.443-.313,1.283,1.283,0,0,1-.74-1.053,1.527,1.527,0,0,1,.344-1.011,2.063,2.063,0,0,1,.63-.5,2.708,2.708,0,0,1,.462-.191.5.5,0,0,1,.172-.034c0,.019-.225.084-.592.3a2.106,2.106,0,0,0-.576.5,1.409,1.409,0,0,0-.286.924,1.145,1.145,0,0,0,.668.9,3.32,3.32,0,0,0,1.366.271,31.865,31.865,0,0,0,3.3-.164c.588-.05,1.145-.1,1.718-.122.279,0,.553-.023.821-.027a1.618,1.618,0,0,0,.725-.088l2.29-1.443,1.55-.969a4.548,4.548,0,0,1,.6-.328Z" transform="translate(-342.221 -244.756)" fill="#eb996e"/>
      <path id="Path_41851" data-name="Path 41851" d="M398.858,345.814a.612.612,0,0,1-.2.053l-.573.122-2.115.382-3.145.561-1.859.328c-.324.05-.645.122-.992.156a1.71,1.71,0,0,1-1.053-.21,8.25,8.25,0,0,1-.855-.592,9.052,9.052,0,0,0-.824-.546,11.22,11.22,0,0,0-1.66-.851c-.55-.229-1.107-.363-1.607-.576a4.436,4.436,0,0,1-1.263-.821c-.344-.309-.634-.6-.882-.866a1.321,1.321,0,0,1-.382-.855.763.763,0,0,1,.206-.557.351.351,0,0,1,.179-.1.617.617,0,0,0-.145.134.763.763,0,0,0-.156.527c0,.515.637,1,1.294,1.6a4.316,4.316,0,0,0,1.233.763c.485.2,1.046.328,1.611.557a10.755,10.755,0,0,1,1.7.859c.282.172.561.355.84.55s.55.412.836.58c.569.351,1.263.118,1.908.031l1.859-.313,3.153-.519,2.126-.328.584-.08A.68.68,0,0,1,398.858,345.814Z" transform="translate(-335.939 -245.485)" fill="#eb996e"/>
      <path id="Path_41852" data-name="Path 41852" d="M409.642,361.08a3.88,3.88,0,0,1-.9.271,19.885,19.885,0,0,1-2.244.382,17.329,17.329,0,0,1-2.271.122,1.339,1.339,0,0,1-.912-.256,3.552,3.552,0,0,0,.912.1c.573-.027,1.374-.088,2.248-.187s1.664-.218,2.237-.309a4.671,4.671,0,0,1,.935-.126Z" transform="translate(-349.456 -257.629)" fill="#eb996e"/>
      <path id="Path_41853" data-name="Path 41853" d="M417.993,349.75a.76.76,0,0,1-.023.153,1.825,1.825,0,0,1-.153.408,3.054,3.054,0,0,1-1.118,1.145,4.824,4.824,0,0,1-1.008.469c-.183.065-.347.145-.382.309a4.086,4.086,0,0,1-.141.63,2.366,2.366,0,0,1-.844,1.168,3.817,3.817,0,0,1-1.424.561,6.219,6.219,0,0,0-1.4.416c-.4.221-.805.485-1.183.706-.191.115-.382.229-.573.332a1.762,1.762,0,0,1-.622.16,3.138,3.138,0,0,1-1.115-.122,8.873,8.873,0,0,1-1.489-.584,3.027,3.027,0,0,1-.515-.275,2.751,2.751,0,0,1,.55.191,11.86,11.86,0,0,0,1.492.511,3.182,3.182,0,0,0,1.057.088,1.66,1.66,0,0,0,.553-.153c.172-.088.359-.214.546-.328.382-.233.763-.485,1.2-.733a6.489,6.489,0,0,1,1.454-.439,3.614,3.614,0,0,0,1.34-.519,2.183,2.183,0,0,0,.763-1.046c.076-.2.076-.382.153-.634a.729.729,0,0,1,.523-.42,5.038,5.038,0,0,0,.989-.431,3.145,3.145,0,0,0,1.122-1.053C417.924,349.948,417.97,349.742,417.993,349.75Z" transform="translate(-351.12 -250.623)" fill="#eb996e"/>
      <path id="Path_41854" data-name="Path 41854" d="M414.481,327.64a31.752,31.752,0,0,1-2.9,2.458,32.108,32.108,0,0,1-3.053,2.29,32.054,32.054,0,0,1,2.9-2.458,31.592,31.592,0,0,1,3.05-2.29Z" transform="translate(-352.684 -236.953)" fill="#eb996e"/>
    </g>
    <g id="freepik--credit-card--inject-14" transform="translate(216.943 106.189)">
      <circle id="Ellipse_3442" data-name="Ellipse 3442" cx="27.054" cy="27.054" r="27.054" transform="translate(21.845 53.439) rotate(-80.98)" fill="#f5f5f5"/>
      <path id="Path_41855" data-name="Path 41855" d="M607.6,256.583s0-.149-.023-.439,0-.721-.061-1.286A27,27,0,0,0,578.573,229.7a26.286,26.286,0,0,0-3.615.5,29.005,29.005,0,0,0-3.607,1.031,27.02,27.02,0,0,0-14.733,12.939,25.18,25.18,0,0,0-1.649,3.9,26.964,26.964,0,0,0,0,17.02c.214.679.485,1.336.763,1.992s.573,1.29.9,1.908a26.141,26.141,0,0,0,2.2,3.538,27.028,27.028,0,0,0,12.512,9.4,28.971,28.971,0,0,0,3.607,1.027,27.363,27.363,0,0,0,10.569.126,26.935,26.935,0,0,0,11.363-5.038,27.351,27.351,0,0,0,6.87-7.668,25.945,25.945,0,0,0,1.882-3.817,26.921,26.921,0,0,0,1.115-3.393,27.259,27.259,0,0,0,.763-4.878c.053-.565.042-1,.061-1.286s.023-.439.023-.439,0,.6-.042,1.729a26.389,26.389,0,0,1-1.84,8.3,25.869,25.869,0,0,1-1.874,3.817,27.081,27.081,0,0,1-28.919,12.7,29.507,29.507,0,0,1-3.63-1.031,27.154,27.154,0,0,1-14.848-13.027c-.336-.622-.618-1.275-.912-1.909a19.628,19.628,0,0,1-.763-2,27.154,27.154,0,0,1,0-17.149,25.125,25.125,0,0,1,1.664-3.924,26.751,26.751,0,0,1,2.214-3.565,27.191,27.191,0,0,1,12.63-9.458,28.685,28.685,0,0,1,3.63-1.034,26.7,26.7,0,0,1,3.638-.5,27.032,27.032,0,0,1,7,.382A27.763,27.763,0,0,1,596.965,235a27.435,27.435,0,0,1,6.87,7.722,26.084,26.084,0,0,1,1.874,3.817,26.389,26.389,0,0,1,1.84,8.306C607.618,255.977,607.6,256.583,607.6,256.583Z" transform="translate(-527.75 -225.635)" fill="#263238"/>
      <rect id="Rectangle_5957" data-name="Rectangle 5957" width="33.848" height="22.821" rx="7.28" transform="translate(37.44 20.177)" fill="#f8951d"/>
      <g id="Group_10891" data-name="Group 10891" transform="translate(37.44 25.109)" opacity="0.3">
        <rect id="Rectangle_5958" data-name="Rectangle 5958" width="33.848" height="4.783" fill="#fff"/>
      </g>
      <path id="Path_41856" data-name="Path 41856" d="M603.475,318.629c0,.057-2.76.1-6.164.1s-6.16-.042-6.16-.1,2.756-.1,6.16-.1S603.475,318.576,603.475,318.629Z" transform="translate(-551.103 -280.734)" fill="#263238"/>
      <path id="Path_41857" data-name="Path 41857" d="M606.07,315.769c0,.053-3.34.1-7.462.1s-7.458-.046-7.458-.1,3.34-.1,7.458-.1S606.07,315.716,606.07,315.769Z" transform="translate(-551.103 -278.965)" fill="#263238"/>
      <ellipse id="Ellipse_3443" data-name="Ellipse 3443" cx="1.985" cy="1.989" rx="1.985" ry="1.989" transform="translate(62.097 32.002)" fill="#fff"/>
      <path id="Path_41858" data-name="Path 41858" d="M657.8,307.4a2.008,2.008,0,1,1,2-2.008,2.008,2.008,0,0,1-2,2.008Zm0-3.634a1.626,1.626,0,1,0,1.622,1.626A1.626,1.626,0,0,0,657.8,303.771Z" transform="translate(-591.071 -271.373)" fill="#fff"/>
      <path id="Path_41859" data-name="Path 41859" d="M512.33,302.689c0,.057-5.844.1-13.05.1s-13.05-.042-13.05-.1,5.844-.1,13.05-.1S512.33,302.636,512.33,302.689Z" transform="translate(-486.23 -270.878)" fill="#263238"/>
    </g>
    <g id="freepik--House--inject-14" transform="translate(208.022 36.237)">
      <circle id="Ellipse_3444" data-name="Ellipse 3444" cx="27.054" cy="27.054" r="27.054" transform="translate(8.123 0.07)" fill="#f5f5f5"/>
      <path id="Path_41860" data-name="Path 41860" d="M538.059,63.361v-.439A11.227,11.227,0,0,0,538,61.636a27.027,27.027,0,0,0-21.989-24.783,27.363,27.363,0,0,0-10.569.126,28.465,28.465,0,0,0-3.6,1.031A27.02,27.02,0,0,0,487.1,50.949a25.17,25.17,0,0,0-1.679,3.9,26.967,26.967,0,0,0,0,17.019c.214.679.481,1.336.74,1.992a18.174,18.174,0,0,0,.9,1.908,26.51,26.51,0,0,0,2.2,3.538,27.024,27.024,0,0,0,12.538,9.4,29.108,29.108,0,0,0,3.6,1.031,26.426,26.426,0,0,0,3.618.5,26.718,26.718,0,0,0,6.954-.382,26.311,26.311,0,0,0,6.206-1.954,26.719,26.719,0,0,0,5.157-3.08,27.372,27.372,0,0,0,6.87-7.672,26.127,26.127,0,0,0,1.882-3.817,26.621,26.621,0,0,0,1.111-3.393,27.361,27.361,0,0,0,.763-4.878c.05-.565.042-1,.061-1.286a2.547,2.547,0,0,0,0-.439s0,.6-.038,1.725a26.913,26.913,0,0,1-.74,4.9,26.407,26.407,0,0,1-1.1,3.408,25.857,25.857,0,0,1-1.874,3.817,27.4,27.4,0,0,1-6.87,7.725,26.573,26.573,0,0,1-5.157,3.137,26.306,26.306,0,0,1-6.237,1.981,27.032,27.032,0,0,1-7,.382,26.693,26.693,0,0,1-3.637-.5,28.75,28.75,0,0,1-3.634-1.034,27.192,27.192,0,0,1-12.63-9.462,26.292,26.292,0,0,1-2.214-3.565c-.336-.622-.622-1.271-.912-1.908a20.594,20.594,0,0,1-.763-2.008,27.1,27.1,0,0,1,0-17.145,25.669,25.669,0,0,1,1.66-3.928A26.5,26.5,0,0,1,489.1,47.3a27.234,27.234,0,0,1,12.626-9.462,29.394,29.394,0,0,1,3.634-1.031A27.615,27.615,0,0,1,516,36.7a27.081,27.081,0,0,1,11.42,5.088,27.443,27.443,0,0,1,6.87,7.722,26.074,26.074,0,0,1,1.9,3.813,26.433,26.433,0,0,1,1.092,3.435,26.864,26.864,0,0,1,.74,4.9C538.074,62.766,538.059,63.361,538.059,63.361Z" transform="translate(-475.828 -36.237)" fill="#263238"/>
      <path id="Path_41861" data-name="Path 41861" d="M548.958,74.54l-10.588.038v.073l-1.55,26.676,22.607-.08L559.37,84.93Z" transform="translate(-508.59 -59.92)" fill="#f8951d"/>
      <g id="Group_10892" data-name="Group 10892" transform="translate(28.23 14.62)" opacity="0.3">
        <path id="Path_41862" data-name="Path 41862" d="M548.958,74.54l-10.588.038v.073l-1.55,26.676,22.607-.08L559.37,84.93Z" transform="translate(-536.82 -74.54)"/>
      </g>
      <path id="Path_41863" data-name="Path 41863" d="M523.79,74.64l-10.55,9.943.057,16.836,21.172-.073-.057-16.481Z" transform="translate(-494.01 -59.982)" fill="#f8951d"/>
      <g id="Group_10893" data-name="Group 10893" transform="translate(32.762 26.396)" opacity="0.3">
        <rect id="Rectangle_5959" data-name="Rectangle 5959" width="4.512" height="4.512" transform="translate(0 0.016) rotate(-0.2)" fill="#fff"/>
      </g>
      <g id="Group_10894" data-name="Group 10894" transform="translate(21.758 26.43)" opacity="0.3">
        <rect id="Rectangle_5960" data-name="Rectangle 5960" width="4.512" height="4.512" transform="translate(0 0.016) rotate(-0.2)" fill="#fff"/>
      </g>
      <rect id="Rectangle_5961" data-name="Rectangle 5961" width="2.256" height="6.691" transform="translate(21.723 16.484) rotate(-0.2)" fill="#f8951d"/>
      <g id="Group_10895" data-name="Group 10895" transform="translate(26.289 33.103)" opacity="0.3">
        <rect id="Rectangle_5962" data-name="Rectangle 5962" width="5.244" height="8.286" transform="translate(0 0.018) rotate(-0.2)"/>
      </g>
      <path id="Path_41864" data-name="Path 41864" d="M533.345,74.4l.053.046.149.137.569.55,2.145,2.115,7.561,7.493.153.153h-.218l-10.378-.115h-.042l-.027-.027-1.817-1.779L522.715,74.5h.088l-8.1,7.618-2.29,2.141-.618.561-.16.141-.057.046a.254.254,0,0,1,.05-.057l.149-.153c.145-.137.344-.332.6-.58.538-.511,1.3-1.248,2.29-2.179l8.073-7.66.061-.057.061.057,8.813,8.47,1.817,1.748-.069-.027,10.382.137-.065.153-7.542-7.542c-.9-.916-1.611-1.637-2.107-2.137l-.55-.573-.141-.149C533.357,74.427,533.341,74.408,533.345,74.4Z" transform="translate(-492.978 -59.784)" fill="#263238"/>
      <path id="Path_41865" data-name="Path 41865" d="M536.947,131.137a.65.65,0,0,1,0-.16,4.246,4.246,0,0,0-.019-.462c0-.431,0-1.015-.027-1.729,0-1.5-.023-3.557-.034-5.92l.1.1H531.73l.1-.1c0,2.366-.027,4.428-.038,5.931,0,.718-.019,1.3-.027,1.733V131a.555.555,0,0,1-.019.16.694.694,0,0,1,0-.16v-.466c0-.431-.019-1.015-.031-1.733,0-1.5,0-3.565-.034-5.931v-.1h5.409v.088c0,2.363-.023,4.42-.034,5.92,0,.718,0,1.3-.027,1.729v.462a.522.522,0,0,1-.082.168Z" transform="translate(-505.412 -89.741)" fill="#263238"/>
      <path id="Path_41866" data-name="Path 41866" d="M483.631,167.31c.046.027-4.561,7.771-10.306,17.294s-10.42,17.226-10.466,17.2,4.561-7.771,10.306-17.3S483.585,167.279,483.631,167.31Z" transform="translate(-462.859 -117.281)" fill="#263238"/>
    </g>
    <g id="freepik--Invoice--inject-14" transform="translate(79.241 37.107)">
      <circle id="Ellipse_3445" data-name="Ellipse 3445" cx="27.054" cy="27.054" r="27.054" transform="translate(0.118 0.078)" fill="#f5f5f5"/>
      <path id="Path_41867" data-name="Path 41867" d="M179.686,65.648V65.21a11.235,11.235,0,0,0-.061-1.286A27.03,27.03,0,0,0,157.64,39.14a27.379,27.379,0,0,0-10.573.126,28.469,28.469,0,0,0-3.6,1.031A27.02,27.02,0,0,0,128.72,53.236a25.17,25.17,0,0,0-1.649,3.9,26.966,26.966,0,0,0,0,17.019c.214.679.481,1.336.74,1.992a18.2,18.2,0,0,0,.908,1.908,26.114,26.114,0,0,0,2.2,3.538,27.024,27.024,0,0,0,12.523,9.4,28.981,28.981,0,0,0,3.607,1.031,27.287,27.287,0,0,0,10.569.122,26.261,26.261,0,0,0,6.222-1.947,26.718,26.718,0,0,0,5.157-3.08,27.371,27.371,0,0,0,6.87-7.672,26.128,26.128,0,0,0,1.882-3.817,26.626,26.626,0,0,0,1.111-3.393,27.006,27.006,0,0,0,.763-4.878c.053-.565.042-1,.061-1.286a2.542,2.542,0,0,0,0-.439s0,.6-.038,1.725a26.385,26.385,0,0,1-1.84,8.306,25.856,25.856,0,0,1-1.874,3.817,27.393,27.393,0,0,1-6.87,7.725A27.392,27.392,0,0,1,147,92.177a28.685,28.685,0,0,1-3.63-1.034,27.184,27.184,0,0,1-12.634-9.462,26.672,26.672,0,0,1-2.214-3.565c-.336-.622-.622-1.271-.912-1.908a20.587,20.587,0,0,1-.763-2.008,27.142,27.142,0,0,1,0-17.145,25.473,25.473,0,0,1,1.66-3.924,26.307,26.307,0,0,1,2.218-3.565,27.226,27.226,0,0,1,12.649-9.439,29.314,29.314,0,0,1,3.63-1.031,27.627,27.627,0,0,1,10.638-.111,27.1,27.1,0,0,1,11.416,5.088,27.443,27.443,0,0,1,6.87,7.722,26.074,26.074,0,0,1,1.874,3.817,26.386,26.386,0,0,1,1.84,8.306C179.7,65.038,179.686,65.648,179.686,65.648Z" transform="translate(-125.46 -38.517)" fill="#263238"/>
      <path id="Path_41868" data-name="Path 41868" d="M165.23,63.754V96.332h22.432a3.844,3.844,0,0,0,3.817-3.844V69.644l-7.916-7.924H167.268a2.038,2.038,0,0,0-2.038,2.034Z" transform="translate(-150.05 -52.864)" fill="#fff"/>
      <path id="Path_41869" data-name="Path 41869" d="M165.088,63.662v-.088a1.524,1.524,0,0,1,.023-.256,1.969,1.969,0,0,1,.4-.928,2.053,2.053,0,0,1,1.416-.786c.656-.023,1.4,0,2.244,0l14.248-.034h.031l.023.023,7.935,7.916.023.027V92.548a3.939,3.939,0,0,1-.481,1.756,4.146,4.146,0,0,1-1.233,1.355,3.939,3.939,0,0,1-1.573.626,11.07,11.07,0,0,1-1.66.057H165V96.25c0-9.653.027-17.8.034-23.531,0-2.863,0-5.122.027-6.672V63.673a1.232,1.232,0,0,1,0,.156v2.217c0,1.55,0,3.817.023,6.672,0,5.725.023,13.878.038,23.531l-.092-.088h21.459a11.54,11.54,0,0,0,1.63-.053,3.717,3.717,0,0,0,1.489-.6,3.871,3.871,0,0,0,1.172-1.29,3.737,3.737,0,0,0,.458-1.664V69.589l.027.061-7.9-7.973.053.023-14.248-.031h-2.237a2,2,0,0,0-1.389.763,2.057,2.057,0,0,0-.416.9C165.088,63.543,165.1,63.662,165.088,63.662Z" transform="translate(-149.908 -52.771)" fill="#263238"/>
      <path id="Path_41870" data-name="Path 41870" d="M213.26,61.72l7.916,7.924h-6.584a1.332,1.332,0,0,1-1.332-1.336Z" transform="translate(-179.748 -52.864)" fill="#e0e0e0"/>
      <path id="Path_41871" data-name="Path 41871" d="M154.28,139.94h0a4.756,4.756,0,0,0,4.76,4.756h21.936a5.16,5.16,0,0,1-2.9-4.5v-.256Z" transform="translate(-143.28 -101.228)" fill="#e0e0e0"/>
      <path id="Path_41872" data-name="Path 41872" d="M179.178,80.09a40.514,40.514,0,0,1-5.668,0A40.518,40.518,0,0,1,179.178,80.09Z" transform="translate(-155.17 -64.153)" fill="#263238"/>
      <path id="Path_41873" data-name="Path 41873" d="M192.314,89.469c0,.053-3.8.1-8.485.1s-8.489-.046-8.489-.1,3.8-.1,8.489-.1S192.314,89.412,192.314,89.469Z" transform="translate(-156.301 -69.96)" fill="#263238"/>
      <path id="Path_41874" data-name="Path 41874" d="M192.314,97.709c0,.053-3.8.1-8.485.1s-8.489-.046-8.489-.1,3.8-.1,8.489-.1S192.314,97.652,192.314,97.709Z" transform="translate(-156.301 -75.055)" fill="#263238"/>
      <path id="Path_41875" data-name="Path 41875" d="M192.314,105.949c0,.053-3.8.1-8.485.1s-8.489-.046-8.489-.1,3.8-.1,8.489-.1S192.314,105.907,192.314,105.949Z" transform="translate(-156.301 -80.15)" fill="#263238"/>
      <path id="Path_41876" data-name="Path 41876" d="M192.314,114.189c0,.053-3.8.1-8.485.1s-8.489-.046-8.489-.1,3.8-.1,8.489-.1S192.314,114.132,192.314,114.189Z" transform="translate(-156.301 -85.245)" fill="#263238"/>
      <path id="Path_41877" data-name="Path 41877" d="M192.314,122.429c0,.053-3.8.1-8.485.1s-8.489-.046-8.489-.1,3.8-.1,8.489-.1S192.314,122.372,192.314,122.429Z" transform="translate(-156.301 -90.34)" fill="#263238"/>
      <path id="Path_41878" data-name="Path 41878" d="M192.314,130.669c0,.053-3.8.1-8.485.1s-8.489-.046-8.489-.1,3.8-.1,8.489-.1S192.314,130.612,192.314,130.669Z" transform="translate(-156.301 -95.434)" fill="#263238"/>
      <path id="Path_41879" data-name="Path 41879" d="M223.531,100.046a7.019,7.019,0,1,1-6.84-7.18,7.019,7.019,0,0,1,6.84,7.18Z" transform="translate(-177.42 -72.12)" fill="#f8951d"/>
      <g id="Group_10896" data-name="Group 10896" transform="translate(36.718 24.063)" opacity="0.3">
        <path id="Path_41880" data-name="Path 41880" d="M224.557,108.449v.931h-.832v-.9a3.977,3.977,0,0,1-2.065-.691l.469-1.008a3.366,3.366,0,0,0,1.607.607V106c-.92-.233-1.947-.553-1.935-1.744,0-.882.66-1.63,1.977-1.767v-.924h.832v.908a3.752,3.752,0,0,1,1.683.523l-.412,1.027a3.511,3.511,0,0,0-1.267-.447l-.019,1.416c.924.225,1.935.546,1.908,1.718C226.507,107.564,225.866,108.3,224.557,108.449Zm-.79-3.668V103.6c-.439.1-.618.336-.622.611s.255.429.622.57Zm1.408,2.019c0-.29-.237-.45-.592-.58v1.145c.4-.1.588-.317.592-.584Z" transform="translate(-221.66 -101.56)"/>
      </g>
      <g id="Group_10897" data-name="Group 10897" transform="translate(33.689 21.792)" opacity="0.3">
        <path id="Path_41881" data-name="Path 41881" d="M224.44,101.1a3.527,3.527,0,0,1-.122-.645,5.763,5.763,0,0,0-.565-1.645,5.621,5.621,0,0,0-.683-.989,5.21,5.21,0,0,0-1.031-.908,4.787,4.787,0,0,0-.641-.382,4.963,4.963,0,0,0-.721-.286,5.251,5.251,0,0,0-.763-.179A5.376,5.376,0,0,0,219.09,96a5.905,5.905,0,0,0-.824.069,5.273,5.273,0,0,0-.763.191,5.379,5.379,0,0,0-.714.294,4.662,4.662,0,0,0-.641.382,5.289,5.289,0,0,0-1.019.92,5.447,5.447,0,0,0-1.225,2.672,2.964,2.964,0,0,1-.118.645,1.56,1.56,0,0,1-.042-.664,4.962,4.962,0,0,1,.454-1.771,5.442,5.442,0,0,1,1.733-2.1,5.224,5.224,0,0,1,.679-.42,4.937,4.937,0,0,1,.763-.328,5.518,5.518,0,0,1,.84-.21,5.269,5.269,0,0,1,.886-.076,6.214,6.214,0,0,1,.889.065,5.391,5.391,0,0,1,.84.2,4.612,4.612,0,0,1,.763.321,5.1,5.1,0,0,1,.687.408,5.44,5.44,0,0,1,1.756,2.08,4.928,4.928,0,0,1,.473,1.767,1.458,1.458,0,0,1-.067.65Z" transform="translate(-213.723 -95.61)"/>
      </g>
      <path id="Path_41882" data-name="Path 41882" d="M224.525,102.209a.359.359,0,0,1,0-.088v-.256a2.513,2.513,0,0,0-.034-.412,4.02,4.02,0,0,0-.1-.557,5.216,5.216,0,0,0-.553-1.447,5.321,5.321,0,0,0-3.519-2.634,5.241,5.241,0,0,0-2.8.168,5.928,5.928,0,0,0-.7.294,5.39,5.39,0,0,0-.657.412,5.046,5.046,0,0,0-1.145,1.118,5.343,5.343,0,0,0-.763,1.454,5.84,5.84,0,0,0-.313,1.676,5.92,5.92,0,0,0,.225,1.687,5.243,5.243,0,0,0,.71,1.5,5.065,5.065,0,0,0,1.084,1.176,5.953,5.953,0,0,0,.637.443,4.874,4.874,0,0,0,.683.328,5.221,5.221,0,0,0,5.057-.641,5.419,5.419,0,0,0,1.386-1.5,5.258,5.258,0,0,0,.622-1.412,3.956,3.956,0,0,0,.126-.553,3,3,0,0,0,.061-.412.822.822,0,0,1,.023-.256.338.338,0,0,1,0-.088.261.261,0,0,1,0,.088v.26a2.8,2.8,0,0,1-.046.416,4.4,4.4,0,0,1-.115.557,5.217,5.217,0,0,1-.615,1.439,5.344,5.344,0,0,1-6.55,2.218,6.229,6.229,0,0,1-.7-.336,5.868,5.868,0,0,1-.653-.454,5.141,5.141,0,0,1-1.115-1.2,5.449,5.449,0,0,1-.725-1.527,5.946,5.946,0,0,1-.233-1.729,6.028,6.028,0,0,1,.321-1.718,5.394,5.394,0,0,1,.8-1.489,5.107,5.107,0,0,1,1.172-1.145,5.22,5.22,0,0,1,.676-.42,5.842,5.842,0,0,1,.718-.3,5.369,5.369,0,0,1,6.928,4.023,3.955,3.955,0,0,1,.088.565,2.4,2.4,0,0,1,.023.416v.256A.294.294,0,0,1,224.525,102.209Z" transform="translate(-180.081 -74.429)" fill="#263238"/>
      <path id="Path_41883" data-name="Path 41883" d="M216.171,122.343a.9.9,0,0,1-.214-.038,4.291,4.291,0,0,1-.557-.187,6.105,6.105,0,0,1-2.912-2.492,4.012,4.012,0,0,1-.275-.523.74.74,0,0,1-.073-.2c.023,0,.156.263.427.676A7.092,7.092,0,0,0,213.831,121a7,7,0,0,0,1.607,1.027C215.9,122.232,216.178,122.324,216.171,122.343Z" transform="translate(-179.055 -88.219)" fill="#fff"/>
      <path id="Path_41884" data-name="Path 41884" d="M224.723,128.506c0,.034-.149.038-.317,0s-.294-.1-.286-.13.149-.038.317,0S224.73,128.468,224.723,128.506Z" transform="translate(-186.462 -94.061)" fill="#fff"/>
      <path id="Path_41885" data-name="Path 41885" d="M180.975,144.591a.286.286,0,0,1-.1-.038l-.279-.141-.2-.107-.229-.156-.267-.183-.275-.237a4.851,4.851,0,0,1-1.122-1.5,5.283,5.283,0,0,1-.519-2.4l.076.084-8.935.023-10.5-.031-3.179-.031h-.866a2.643,2.643,0,0,1-.3-.019,1.525,1.525,0,0,1,.3-.023h.866l3.179-.034,10.5-.027h9.019v.088a5.179,5.179,0,0,0,.481,2.336,4.817,4.817,0,0,0,1.065,1.485,8.077,8.077,0,0,0,1.285.911Z" transform="translate(-143.28 -101.123)" fill="#263238"/>
      <path id="Path_41886" data-name="Path 41886" d="M213.106,61.72a3.776,3.776,0,0,1,.038.6c0,.424,0,.973.031,1.637s0,1.527.023,2.428V67.82a5.2,5.2,0,0,0,.027.737,1.237,1.237,0,0,0,.34.626,1.263,1.263,0,0,0,.626.34,5.178,5.178,0,0,0,.737.027h1.435l2.428.023,1.637.031a3.777,3.777,0,0,1,.6.038,3.274,3.274,0,0,1-.6.038l-1.637.034h-3.863a5.4,5.4,0,0,1-.763-.027,1.443,1.443,0,0,1-1.122-1.122,5.4,5.4,0,0,1-.027-.763V63.938c0-.7.023-1.214.034-1.637a3.275,3.275,0,0,1,.057-.58Z" transform="translate(-179.594 -52.864)" fill="#263238"/>
      <path id="Path_41887" data-name="Path 41887" d="M254.686,200.436c-.046.031-4.706-6.794-10.409-15.241s-10.306-15.325-10.248-15.355,4.706,6.79,10.412,15.241S254.732,200.4,254.686,200.436Z" transform="translate(-192.589 -119.715)" fill="#263238"/>
    </g>
    <g id="freepik--Car--inject-14" transform="translate(50.71 110.644)">
      <circle id="Ellipse_3446" data-name="Ellipse 3446" cx="27.054" cy="27.054" r="27.054" transform="translate(0.115 0.081)" fill="#f5f5f5"/>
      <path id="Path_41888" data-name="Path 41888" d="M104.936,258.313s0-.149-.023-.439,0-.721-.061-1.286a26.519,26.519,0,0,0-1.886-8.275,26.125,26.125,0,0,0-1.882-3.817,27.359,27.359,0,0,0-6.87-7.668,26.936,26.936,0,0,0-11.363-5.038,27.364,27.364,0,0,0-10.569.126,28.326,28.326,0,0,0-3.607,1.027,27.066,27.066,0,0,0-12.512,9.42,26.527,26.527,0,0,0-2.2,3.538,25.283,25.283,0,0,0-1.664,3.912,26.978,26.978,0,0,0,0,17.023c.214.679.485,1.336.744,1.992a18.17,18.17,0,0,0,.9,1.908,27.008,27.008,0,0,0,14.733,12.947,29.176,29.176,0,0,0,3.607,1.031,27.509,27.509,0,0,0,10.569.122,26.936,26.936,0,0,0,11.37-5.036,27.3,27.3,0,0,0,6.87-7.668,25.777,25.777,0,0,0,1.882-3.817,26.451,26.451,0,0,0,1.886-8.271c.053-.561.042-1,.061-1.282s.023-.439.023-.439,0,.6-.042,1.725a26.5,26.5,0,0,1-.74,4.893,27.014,27.014,0,0,1-1.1,3.412,26.668,26.668,0,0,1-1.878,3.817,27.387,27.387,0,0,1-6.87,7.725,26.425,26.425,0,0,1-5.187,3.126,26.75,26.75,0,0,1-6.248,1.962,27.18,27.18,0,0,1-7,.382,27.912,27.912,0,0,1-3.641-.5,28.866,28.866,0,0,1-3.63-1.034,27.2,27.2,0,0,1-12.63-9.462,26.782,26.782,0,0,1-2.21-3.557c-.336-.622-.618-1.271-.912-1.908a20,20,0,0,1-.763-2.008,27.142,27.142,0,0,1,0-17.145,25.161,25.161,0,0,1,1.664-3.928,26.483,26.483,0,0,1,2.214-3.561A27.2,27.2,0,0,1,68.6,232.8a29.5,29.5,0,0,1,3.63-1.031,27.315,27.315,0,0,1,3.637-.508,27.045,27.045,0,0,1,28.26,20.443,26.5,26.5,0,0,1,.74,4.893C104.952,257.717,104.936,258.313,104.936,258.313Z" transform="translate(-50.71 -231.178)" fill="#263238"/>
      <rect id="Rectangle_5963" data-name="Rectangle 5963" width="42.909" height="6.298" transform="translate(4.599 26.547)" fill="#f8951d"/>
      <g id="Group_10898" data-name="Group 10898" transform="translate(4.599 26.547)" opacity="0.5">
        <rect id="Rectangle_5964" data-name="Rectangle 5964" width="42.909" height="6.298"/>
      </g>
      <path id="Path_41889" data-name="Path 41889" d="M67,310.4a4.138,4.138,0,1,0,4.2-4.076A4.138,4.138,0,0,0,67,310.4Z" transform="translate(-60.782 -277.638)" fill="#263238"/>
      <path id="Path_41890" data-name="Path 41890" d="M67,316.93h0a4.138,4.138,0,1,0,8.275.118h0Z" transform="translate(-60.782 -284.199)" fill="#263238"/>
      <path id="Path_41891" data-name="Path 41891" d="M70.26,312.362a2.9,2.9,0,1,0,.879-2.043,2.9,2.9,0,0,0-.879,2.043Z" transform="translate(-62.797 -279.605)" fill="#fafafa"/>
      <path id="Path_41892" data-name="Path 41892" d="M73.227,309.51a2.9,2.9,0,0,0-2.947,2.863l5.809.084a2.9,2.9,0,0,0-2.863-2.947Z" transform="translate(-62.81 -279.611)" fill="#e0e0e0"/>
      <path id="Path_41893" data-name="Path 41893" d="M73.23,314.224a1.771,1.771,0,1,0,.538-1.245,1.771,1.771,0,0,0-.538,1.245Z" transform="translate(-64.634 -281.448)" fill="#263238"/>
      <circle id="Ellipse_3447" data-name="Ellipse 3447" cx="4.138" cy="4.138" r="4.138" transform="translate(37.59 28.966) rotate(-4.073)" fill="#263238"/>
      <path id="Path_41894" data-name="Path 41894" d="M149.929,316.93h0a4.138,4.138,0,1,0,8.275.118h0Z" transform="translate(-112.058 -284.199)" fill="#263238"/>
      <path id="Path_41895" data-name="Path 41895" d="M153.15,312.362a2.9,2.9,0,1,0,.88-2.044,2.9,2.9,0,0,0-.88,2.044Z" transform="translate(-114.049 -279.605)" fill="#fafafa"/>
      <path id="Path_41896" data-name="Path 41896" d="M156.1,309.51a2.908,2.908,0,0,0-2.947,2.863l5.809.084a2.9,2.9,0,0,0-2.862-2.947Z" transform="translate(-114.05 -279.611)" fill="#e0e0e0"/>
      <path id="Path_41897" data-name="Path 41897" d="M156.13,314.224a1.767,1.767,0,1,0,.535-1.244A1.767,1.767,0,0,0,156.13,314.224Z" transform="translate(-115.892 -281.448)" fill="#263238"/>
      <path id="Path_41898" data-name="Path 41898" d="M69.585,283.5s-6.107.45-8.351.958c-1.592.355-4.66.973-4.622,2.9l.24,1.385a2.084,2.084,0,0,0-1.145,1.847c0,1.324-.279,3.386,2.378,3.466h1.271s-.489-5.657,4.7-5.825c5.286-.168,4.935,5.783,4.935,5.783H91.066s-.9-5.8,4.786-5.8,4.828,5.836,4.828,5.836a3.32,3.32,0,0,0,3.054-1.58,4.943,4.943,0,0,0,.721-3.015l-.034-1.111a.718.718,0,0,0-.691-.7h0s.382-2.8-.2-3.286-3.783-3.412-3.783-3.412l.149-.1a.355.355,0,0,0-.073-.641l-4.2-1.443a1.022,1.022,0,0,0-.26-.057c-.34-.023-1.294-.084-3.054-.1-2.137-.023-10.607,0-10.607,0a18.24,18.24,0,0,0-4.542.954C75.5,280.31,69.585,283.5,69.585,283.5Z" transform="translate(-53.794 -260.495)" fill="#f8951d"/>
      <g id="Group_10899" data-name="Group 10899" transform="translate(2.529 29.911)" opacity="0.4">
        <path id="Path_41899" data-name="Path 41899" d="M58.272,309.576a.939.939,0,0,0-.729.1.691.691,0,0,0-.179.458,2.076,2.076,0,0,0,0,.687.855.855,0,0,0,.382.546.534.534,0,0,0,.634-.076.828.828,0,0,0,.156-.6,4.787,4.787,0,0,0-.034-.844.465.465,0,0,0-.076-.172.229.229,0,0,0-.176-.1" transform="translate(-57.335 -309.543)"/>
      </g>
      <path id="Path_41900" data-name="Path 41900" d="M58.312,302.659c.649,0,1.275-.034,1.908-.08a.328.328,0,0,0,.2-.057.317.317,0,0,0,.065-.237,1.21,1.21,0,0,0-.275-.966,1.072,1.072,0,0,0-.592-.2,3.9,3.9,0,0,0-1.557.156Z" transform="translate(-55.255 -274.41)" fill="#fafafa"/>
      <path id="Path_41901" data-name="Path 41901" d="M94.2,295.133v-.183l-.019-.534c0-.469-.031-1.145-.057-2.027s-.053-1.931-.088-3.149q0-.454-.023-.939a3.051,3.051,0,0,1,0-.492,1.961,1.961,0,0,1,.038-.248c.011-.084.034-.164.05-.248a4.939,4.939,0,0,1,.344-.992,4.776,4.776,0,0,1,.569-.939h0l3.817-2.408,1.034-.653a8.638,8.638,0,0,1,1.092-.611,11.158,11.158,0,0,1,1.187-.473c.2-.069.412-.13.618-.191s.42-.111.634-.157a14.476,14.476,0,0,1,2.466-.309,22.562,22.562,0,0,1,2.386,0h.023v.023l-1.031,4.58h0a4.933,4.933,0,0,0-.462.989,2.718,2.718,0,0,0-.156,1.023c.027.34.038.672.046.992s0,.637,0,.939c0,1.214.023,2.29.023,3.145v2.744a.417.417,0,0,0,0-.046v-2.687c0-.882,0-1.931-.034-3.145V288.2c0-.324-.019-.653-.046-.992a2.7,2.7,0,0,1,.156-1.034,5.092,5.092,0,0,1,.462-1h0l1.027-4.58v.023a23.491,23.491,0,0,0-2.378,0,14.352,14.352,0,0,0-2.458.313c-.214.042-.424.1-.634.153s-.416.122-.618.191a11,11,0,0,0-1.179.473,8.116,8.116,0,0,0-1.088.607L98.865,283l-3.817,2.4h0a5.149,5.149,0,0,0-.908,1.908,7.306,7.306,0,0,0-.084,1.908c.031,1.214.057,2.29.076,3.149s.038,1.557.05,2.027v.534a1.311,1.311,0,0,0,0,.137.21.21,0,0,1,.018.07Z" transform="translate(-77.479 -261.704)" fill="#263238"/>
      <path id="Path_41902" data-name="Path 41902" d="M121.057,297.374h.061a.382.382,0,0,0,.164-.065.408.408,0,0,0,.164-.214.481.481,0,0,0,.023-.172.488.488,0,0,0-.05-.183.4.4,0,0,0-.355-.218h-1.733a.416.416,0,0,0-.271.107.4.4,0,0,0-.13.252.447.447,0,0,0,.05.275.4.4,0,0,0,.2.176.638.638,0,0,0,.256.031h-.1a.445.445,0,0,1-.137-.031.458.458,0,0,1-.218-.191.5.5,0,0,1-.053-.3.428.428,0,0,1,.141-.279.439.439,0,0,1,.3-.114h1.718a.435.435,0,0,1,.382.237.534.534,0,0,1,.023.382.447.447,0,0,1-.179.221.466.466,0,0,1-.172.061Z" transform="translate(-92.884 -271.536)" fill="#263238"/>
      <path id="Path_41903" data-name="Path 41903" d="M150.993,297.392h.061a.433.433,0,0,0,.328-.279.484.484,0,0,0,0-.172.4.4,0,0,0-.4-.4h-1.7a.42.42,0,0,0-.275.107.4.4,0,0,0-.13.252.473.473,0,0,0,.05.275.42.42,0,0,0,.2.176.646.646,0,0,0,.26.031h-.134a.447.447,0,0,1-.141-.031.435.435,0,0,1-.214-.191.473.473,0,0,1-.057-.3.439.439,0,0,1,.443-.382H151a.431.431,0,0,1,.382.237.408.408,0,0,1,.05.2.538.538,0,0,1-.027.179.435.435,0,0,1-.347.282Z" transform="translate(-111.378 -271.555)" fill="#263238"/>
      <path id="Path_41904" data-name="Path 41904" d="M175.7,294h-2.29a.836.836,0,0,0-.744.45h0a.836.836,0,0,0-.027.733l.9,2.038,2.29-.019S176.319,294.607,175.7,294Z" transform="translate(-126.058 -270.022)" fill="#fafafa"/>
      <path id="Path_41905" data-name="Path 41905" d="M97.48,285.286l11.832-.218,7.687-.141,2.534-1.462a.382.382,0,0,0,.118-.58l-1.58-2.073a.878.878,0,0,0-.691-.347l-8.634-.069a12.011,12.011,0,0,0-5.786,1.24,53.94,53.94,0,0,0-5.48,3.65Z" transform="translate(-79.628 -261.605)" fill="#263238"/>
      <path id="Path_41906" data-name="Path 41906" d="M99.452,281s.592.271.206.519-6.37,4.023-6.37,4.023l-1.378-.622C94.349,283.55,96.811,282.233,99.452,281Z" transform="translate(-76.184 -261.983)" fill="#455a64"/>
      <path id="Path_41907" data-name="Path 41907" d="M170.4,284.54s-.527.592-.321,1.023a15.389,15.389,0,0,0,2.351,1.95l1.553.294Z" transform="translate(-124.49 -264.172)" fill="#455a64"/>
      <path id="Path_41908" data-name="Path 41908" d="M131.661,281.77l-.351,3.779,6.26-.179,2.523-1.466-1.634-2.134Z" transform="translate(-100.546 -262.46)" fill="#455a64"/>
      <path id="Path_41909" data-name="Path 41909" d="M101.37,285.727a38.092,38.092,0,0,1,5.263-3.267,9.6,9.6,0,0,1,3.538-.7c1.29-.034,2.076,0,2.076,0l-1,3.84Z" transform="translate(-82.034 -262.447)" fill="#455a64"/>
      <path id="Path_41910" data-name="Path 41910" d="M99.92,290.139h0a.672.672,0,0,1,.336-.58l.866-.485a1.638,1.638,0,0,1,.813-.214h0a1.65,1.65,0,0,1,.511.084.939.939,0,0,1,.634.863h0a.954.954,0,0,1-.954.992H100.6a.66.66,0,0,1-.679-.66Z" transform="translate(-81.137 -266.843)" fill="#f8951d"/>
      <path id="Path_41911" data-name="Path 41911" d="M99.918,290.108a.725.725,0,0,0,0,.084.653.653,0,0,0,.344.485.686.686,0,0,0,.221.073h1.592a1.01,1.01,0,0,0,.382-.061.9.9,0,0,0,.328-.206.927.927,0,0,0,.279-.744.939.939,0,0,0-.382-.7,1.052,1.052,0,0,0-.359-.149,1.591,1.591,0,0,0-.382-.046,1.689,1.689,0,0,0-.679.145c-.1.046-.191.1-.282.153l-.26.141-.443.248a.672.672,0,0,0-.267.26.706.706,0,0,0-.084.313.51.51,0,0,1,0-.088.706.706,0,0,1,.073-.233.667.667,0,0,1,.267-.271l.447-.252.256-.149c.092-.05.179-.107.282-.153a1.768,1.768,0,0,1,.7-.153,1.627,1.627,0,0,1,.382.046,1.07,1.07,0,0,1,.382.156.973.973,0,0,1,.408.721,1.076,1.076,0,0,1-.061.427.943.943,0,0,1-.233.347.977.977,0,0,1-.34.218,1.109,1.109,0,0,1-.382.061H100.51a.835.835,0,0,1-.233-.076.7.7,0,0,1-.267-.275.622.622,0,0,1-.073-.233.454.454,0,0,1-.019-.094Z" transform="translate(-81.135 -266.813)" fill="#263238"/>
      <path id="Path_41912" data-name="Path 41912" d="M121.945,296.254a5.816,5.816,0,0,1-.679.019,5.731,5.731,0,0,1-.676-.019,5.716,5.716,0,0,1,.676,0,5.827,5.827,0,0,1,.679,0Z" transform="translate(-93.918 -271.409)" fill="#fff"/>
      <path id="Path_41913" data-name="Path 41913" d="M150.535,296.088s-.469.023-1.05.031-1.046,0-1.046,0,.466-.023,1.046-.031S150.535,296.077,150.535,296.088Z" transform="translate(-111.138 -271.308)" fill="#fff"/>
      <path id="Path_41914" data-name="Path 41914" d="M102.449,289.479a.506.506,0,0,0-.073-.073.535.535,0,0,0-.256-.1,1.085,1.085,0,0,0-.412.046,3.06,3.06,0,0,0-.489.164,3.107,3.107,0,0,0-.79.492c-.187.156-.282.267-.29.263l.069-.08a1.656,1.656,0,0,1,.2-.2,2.973,2.973,0,0,1,.794-.511,3.231,3.231,0,0,1,.492-.164,1.062,1.062,0,0,1,.427-.034.5.5,0,0,1,.26.118.33.33,0,0,1,.053.061Z" transform="translate(-81.273 -267.096)" fill="#fff"/>
      <path id="Path_41915" data-name="Path 41915" d="M217.582,295.039c0,.057-5.523.1-12.336.1s-12.336-.042-12.336-.1,5.519-.1,12.336-.1S217.582,294.986,217.582,295.039Z" transform="translate(-138.634 -270.603)" fill="#263238"/>
    </g>
  </g>
</svg>
