<svg xmlns="http://www.w3.org/2000/svg" width="250" height="244.503" viewBox="0 0 250 244.503">
  <g id="limited-compliance" transform="translate(-19.86 -32.44)">
    <g id="freepik--Floor--inject-27" transform="translate(19.86 276.661)">
      <path id="Path_38177" data-name="Path 38177" d="M269.86,482.221c0,.081-55.944.141-124.995.141S19.86,482.3,19.86,482.221s55.944-.141,125.005-.141S269.86,482.145,269.86,482.221Z" transform="translate(-19.86 -482.08)" fill="#263238"/>
    </g>
    <g id="freepik--Clipboard--inject-27" transform="translate(83.338 32.44)">
      <rect id="Rectangle_5636" data-name="Rectangle 5636" width="124.164" height="176.235" rx="9.24" transform="translate(0.087 10.629)" fill="#e0e0e0"/>
      <path id="Path_38178" data-name="Path 38178" d="M255.967,228.136l.386-.027a5.375,5.375,0,0,0,1.086-.217,4.983,4.983,0,0,0,3.476-4.481c.027-.543,0-1.13,0-1.738V207.73c0-14.985,0-36.668-.038-63.456V56.756a4.888,4.888,0,0,0-3.8-4.628A6.518,6.518,0,0,0,255.446,52h-113.6a4.893,4.893,0,0,0-4.894,4.655V223.334a4.856,4.856,0,0,0,.891,2.618,4.986,4.986,0,0,0,2.173,1.716,5.328,5.328,0,0,0,1.331.342c.456.038.923.027,1.39.033h26.511l63.451.038,17.25.027h0l-17.25.027-63.451.038H141.271a5.366,5.366,0,0,1-1.385-.358,5.1,5.1,0,0,1-3.156-4.5V56.664a5.144,5.144,0,0,1,5.138-4.888H255.424a7.316,7.316,0,0,1,1.678.13,5.111,5.111,0,0,1,3.981,4.834q0,3.259,0,6.518v81.016c0,26.788,0,48.471-.038,63.456v15.686a4.888,4.888,0,0,1-.337,1.532,5.1,5.1,0,0,1-1.526,2.086,5.354,5.354,0,0,1-1.629.885,5.639,5.639,0,0,1-1.124.206Z" transform="translate(-136.73 -41.271)" fill="#263238"/>
      <g id="Group_8878" data-name="Group 8878" transform="translate(10.923 149.67)" opacity="0.3">
        <path id="Path_38179" data-name="Path 38179" d="M156.84,341.213H261.048L259.9,319.536V308L156.84,324.1Z" transform="translate(-156.84 -308)"/>
      </g>
      <g id="Group_8879" data-name="Group 8879" transform="translate(93.199 10.988)" opacity="0.3">
        <path id="Path_38180" data-name="Path 38180" d="M308.624,52.67l2.368,7.028v3.438H308.32Z" transform="translate(-308.32 -52.67)"/>
      </g>
      <path id="Path_38181" data-name="Path 38181" d="M147.09,65.01V226.9H260.179V65.01Z" transform="translate(-141.463 -47.32)" fill="#fff"/>
      <path id="Path_38182" data-name="Path 38182" d="M260.129,197.759v-9.625c0-6.279,0-15.463-.033-27.125,0-23.355,0-56.569-.043-96.191l.109.109H147.072l.119-.119v.147c0,62.234,0,119.063-.033,161.744l-.087-.092,61.74.043h0l-61.74.038h-.092V64.59H260.291v.223c0,39.65-.033,72.858-.043,96.191,0,11.661,0,20.846-.027,27.125v9.005A1.666,1.666,0,0,1,260.129,197.759Z" transform="translate(-141.413 -47.128)" fill="#263238"/>
      <path id="Path_38183" data-name="Path 38183" d="M206.963,43.93h50.35a3.438,3.438,0,0,1,3.438,3.438v13.16H203.53V47.368a3.438,3.438,0,0,1,3.433-3.438Z" transform="translate(-167.248 -37.689)" fill="#263238"/>
      <path id="Path_38184" data-name="Path 38184" d="M257.362,32.44H242.8l1.7,12.482h10.972Z" transform="translate(-185.188 -32.44)" fill="#263238"/>
      <path id="Path_38185" data-name="Path 38185" d="M260.166,43.829c0,.065-11.167.119-24.936.119s-24.93-.054-24.93-.119,11.162-.119,24.93-.119S260.166,43.764,260.166,43.829Z" transform="translate(-170.341 -37.589)" fill="#455a64"/>
      <path id="Path_38186" data-name="Path 38186" d="M205.785,60.738c-.071,0-.125-2.346-.125-5.247s.054-5.241.125-5.241.12,2.346.12,5.241S205.845,60.738,205.785,60.738Z" transform="translate(-168.221 -40.577)" fill="#455a64"/>
      <path id="Path_38187" data-name="Path 38187" d="M305.356,59.261a45.853,45.853,0,0,1-.119-4.758,46.009,46.009,0,0,1,.119-4.763c.065,0,.12,2.135.12,4.763S305.421,59.261,305.356,59.261Z" transform="translate(-213.705 -40.344)" fill="#455a64"/>
      <path id="Path_38188" data-name="Path 38188" d="M257.332,71.235c0,.065-11.46.119-25.593.119s-25.6-.054-25.6-.119,11.455-.125,25.6-.125S257.332,71.164,257.332,71.235Z" transform="translate(-168.44 -50.106)" fill="#455a64"/>
      <rect id="Rectangle_5637" data-name="Rectangle 5637" width="62.457" height="3.84" transform="translate(41.942 48.758)" fill="#e0e0e0"/>
      <rect id="Rectangle_5638" data-name="Rectangle 5638" width="28.336" height="3.813" transform="translate(41.942 56.601)" fill="#e0e0e0"/>
      <rect id="Rectangle_5639" data-name="Rectangle 5639" width="14.442" height="14.442" rx="3.86" transform="translate(21.15 47.123)" fill="#f8951d"/>
      <path id="Path_38189" data-name="Path 38189" d="M185.176,133.036l-4.046-3.123,1.092-1.412,2.71,2.1,3.856-4.438,1.347,1.168Z" transform="translate(-157.014 -75.256)" fill="#fff"/>
      <rect id="Rectangle_5640" data-name="Rectangle 5640" width="62.457" height="3.84" transform="translate(41.942 72.532)" fill="#e0e0e0"/>
      <rect id="Rectangle_5641" data-name="Rectangle 5641" width="28.336" height="3.813" transform="translate(41.942 80.37)" fill="#e0e0e0"/>
      <rect id="Rectangle_5642" data-name="Rectangle 5642" width="14.442" height="14.442" rx="3.86" transform="translate(21.15 70.892)" fill="#f8951d"/>
      <path id="Path_38190" data-name="Path 38190" d="M185.176,176.8l-4.046-3.123,1.092-1.412,2.71,2.1,3.856-4.438,1.347,1.168Z" transform="translate(-157.014 -95.248)" fill="#fff"/>
      <rect id="Rectangle_5643" data-name="Rectangle 5643" width="62.457" height="3.84" transform="translate(41.942 98)" fill="#e0e0e0"/>
      <rect id="Rectangle_5644" data-name="Rectangle 5644" width="28.336" height="3.813" transform="translate(41.942 105.838)" fill="#e0e0e0"/>
      <rect id="Rectangle_5645" data-name="Rectangle 5645" width="62.457" height="3.84" transform="translate(41.942 121.54)" fill="#e0e0e0"/>
      <rect id="Rectangle_5646" data-name="Rectangle 5646" width="28.336" height="3.813" transform="translate(41.942 129.383)" fill="#e0e0e0"/>
      <rect id="Rectangle_5647" data-name="Rectangle 5647" width="14.442" height="14.442" rx="3.86" transform="translate(21.15 96.36)" fill="#f8951d"/>
      <path id="Path_38191" data-name="Path 38191" d="M185.176,223.686l-4.046-3.123,1.092-1.412,2.71,2.1,3.856-4.437,1.347,1.168Z" transform="translate(-157.014 -116.67)" fill="#fff"/>
      <path id="Path_38192" data-name="Path 38192" d="M188.007,268.906H177.35a2.14,2.14,0,0,1-2.14-2.135V256.115a2.14,2.14,0,0,1,2.14-2.135h10.657a2.135,2.135,0,0,1,2.135,2.135v10.657a2.135,2.135,0,0,1-2.135,2.135ZM177.35,254.469a1.629,1.629,0,0,0-1.629,1.629v10.657a1.629,1.629,0,0,0,1.629,1.629h10.657a1.629,1.629,0,0,0,1.629-1.629v-10.64a1.629,1.629,0,0,0-1.629-1.629Z" transform="translate(-154.31 -133.651)" fill="#f8951d"/>
      <rect id="Rectangle_5648" data-name="Rectangle 5648" width="62.457" height="3.84" transform="translate(41.942 148.475)" fill="#e0e0e0"/>
      <rect id="Rectangle_5649" data-name="Rectangle 5649" width="28.336" height="3.813" transform="translate(41.942 156.318)" fill="#e0e0e0"/>
      <path id="Path_38193" data-name="Path 38193" d="M188.007,318.491H177.35a2.173,2.173,0,0,1-2.14-2.135V305.7a2.173,2.173,0,0,1,2.14-2.14h10.657a2.14,2.14,0,0,1,2.135,2.14v10.657a2.14,2.14,0,0,1-2.135,2.135ZM177.35,304.049a1.629,1.629,0,0,0-1.629,1.629v10.657a1.629,1.629,0,0,0,1.629,1.629h10.657a1.629,1.629,0,0,0,1.629-1.629V305.7a1.629,1.629,0,0,0-1.629-1.629Z" transform="translate(-154.31 -156.302)" fill="#f8951d"/>
      <rect id="Rectangle_5650" data-name="Rectangle 5650" width="62.266" height="5.334" transform="translate(34.425 33.898)" fill="#f8951d"/>
    </g>
    <g id="freepik--Plant--inject-27" transform="translate(110.115 211.809)">
      <path id="Path_38194" data-name="Path 38194" d="M218.438,428.21s-1.874-12.889-1.716-20.384,0-15.936,0-15.936h.864s-.581,14.882.054,23.86,2.314,12.46,2.314,12.46h-1.5" transform="translate(-200.047 -376.024)" fill="#263238"/>
      <path id="Path_38195" data-name="Path 38195" d="M222.906,364.048a2.265,2.265,0,0,0-.788-1.157,2.173,2.173,0,0,0-1.874,0c-2.613.923-4.926,5.79-5.975,8.348l3.46,11.71C223.981,377.127,225.068,369.518,222.906,364.048Z" transform="translate(-198.932 -362.679)" fill="#455a64"/>
      <path id="Path_38196" data-name="Path 38196" d="M224.825,363.94a.5.5,0,0,1-.049.152c-.043.114-.1.255-.168.429-.152.364-.364.9-.619,1.564-.511,1.325-1.162,3.177-1.744,5.269s-.978,4.008-1.222,5.431c-.125.7-.217,1.266-.277,1.662-.027.179-.054.331-.071.451a.8.8,0,0,1-.038.158.924.924,0,0,1,0-.163,1.672,1.672,0,0,1,.049-.456c.043-.4.12-.967.234-1.667a48.641,48.641,0,0,1,1.184-5.432,50.431,50.431,0,0,1,1.782-5.269c.272-.657.494-1.189.663-1.548.081-.168.147-.31.2-.418A1.2,1.2,0,0,1,224.825,363.94Z" transform="translate(-201.839 -363.255)" fill="#263238"/>
      <path id="Path_38197" data-name="Path 38197" d="M213.312,390.788a10.591,10.591,0,0,1-5.323-8.88,19.344,19.344,0,0,1,1.575-7.561.983.983,0,0,1,.364-.543.929.929,0,0,1,.885.141,10.658,10.658,0,0,1,4.552,6.518,13.171,13.171,0,0,1,.543,5.355,8.919,8.919,0,0,1-2.575,4.986" transform="translate(-196.056 -367.736)" fill="#455a64"/>
      <path id="Path_38198" data-name="Path 38198" d="M215.894,392.383v-.608c0-.386,0-.951-.049-1.629a45.619,45.619,0,0,0-.6-5.393c-.364-2.091-.8-3.96-1.124-5.317-.158-.657-.288-1.2-.38-1.6-.043-.174-.076-.32-.1-.435a.489.489,0,0,1,0-.158.385.385,0,0,0,.049.152,3.9,3.9,0,0,1,.13.429c.1.375.25.918.429,1.591.342,1.347.8,3.221,1.162,5.317a39.673,39.673,0,0,1,.543,5.432v2.08A.6.6,0,0,1,215.894,392.383Z" transform="translate(-198.638 -369.331)" fill="#263238"/>
      <g id="Group_8880" data-name="Group 8880" transform="translate(11.92 6.013)" opacity="0.3">
        <path id="Path_38199" data-name="Path 38199" d="M213.312,390.788a10.591,10.591,0,0,1-5.323-8.88,19.344,19.344,0,0,1,1.575-7.561.983.983,0,0,1,.364-.543.929.929,0,0,1,.885.141,10.658,10.658,0,0,1,4.552,6.518,13.171,13.171,0,0,1,.543,5.355,8.919,8.919,0,0,1-2.575,4.986" transform="translate(-207.976 -373.749)"/>
      </g>
      <path id="Path_38200" data-name="Path 38200" d="M224.55,441.188c3.2.7,5.828,2.955,8.913,4.052,2.037.728,4.345.983,5.975,2.412a5.153,5.153,0,0,0-2.216-2.211,40.092,40.092,0,0,0-8.077-3.856,7.691,7.691,0,0,0-4.5-.505" transform="translate(-203.628 -398.419)" fill="#455a64"/>
      <path id="Path_38201" data-name="Path 38201" d="M205.739,443.108c-4-.065-8.218-3.471-12.2-3.677,4.166-1.342,10.141-.244,12.2,3.677" transform="translate(-189.461 -397.494)" fill="#455a64"/>
      <path id="Path_38202" data-name="Path 38202" d="M218.92,424.9a13.036,13.036,0,0,1,6.4-.435,38.708,38.708,0,0,1,6.252,1.7c-.206-1.39-1.331-2.433-2.39-3.357a16.216,16.216,0,0,0-2.509-1.928,5.556,5.556,0,0,0-3.009-.853,4.769,4.769,0,0,0-3.319,1.673,5.54,5.54,0,0,0-1.423,3.2" transform="translate(-201.056 -388.88)" fill="#455a64"/>
      <path id="Path_38203" data-name="Path 38203" d="M195.682,419.24c-2.52-2.173-6.339-1.944-9.652-1.868a78.4,78.4,0,0,1,14.964,9.326C201.13,424.356,198.865,421.956,195.682,419.24Z" transform="translate(-186.03 -387.644)" fill="#455a64"/>
      <g id="Group_8881" data-name="Group 8881" transform="translate(0 29.681)" opacity="0.3">
        <path id="Path_38204" data-name="Path 38204" d="M195.682,419.24c-2.52-2.173-6.339-1.944-9.652-1.868a78.4,78.4,0,0,1,14.964,9.326C201.13,424.356,198.865,421.956,195.682,419.24Z" transform="translate(-186.03 -417.326)"/>
      </g>
      <path id="Path_38205" data-name="Path 38205" d="M220.98,406.683a27.776,27.776,0,0,1,3.873-2.254c1.325-.6,2.564-1.564,3.845-2.254a46.638,46.638,0,0,0,4.628-3.259,12.348,12.348,0,0,1,5.062-2.417,9.907,9.907,0,0,0-4.611.266,29.225,29.225,0,0,0-4.345,1.689,21.246,21.246,0,0,0-5.573,3.226c-1.608,1.434-3.058,2.857-2.89,5.008" transform="translate(-201.986 -378.058)" fill="#455a64"/>
      <path id="Path_38206" data-name="Path 38206" d="M230.618,444.122l-.125-.054-.348-.179c-.3-.163-.733-.4-1.282-.674-.266-.141-.543-.293-.891-.445s-.673-.315-1.043-.473a15.169,15.169,0,0,0-2.46-.858,5.241,5.241,0,0,0-2.569-.065,7.11,7.11,0,0,0-1.086.32,6.029,6.029,0,0,0-.88.451,5.561,5.561,0,0,0-1.086.912c-.234.25-.348.4-.358.4a.818.818,0,0,1,.071-.12q.081-.114.244-.31a5.082,5.082,0,0,1,1.086-.961,5.621,5.621,0,0,1,.885-.478,7.715,7.715,0,0,1,1.086-.342,5.366,5.366,0,0,1,2.634.054,14.422,14.422,0,0,1,2.482.88c.369.163.717.326,1.037.489s.625.31.891.462c.543.282.967.543,1.26.712l.337.206C230.586,444.09,230.624,444.117,230.618,444.122Z" transform="translate(-200.859 -398.508)" fill="#263238"/>
      <path id="Path_38207" data-name="Path 38207" d="M210.55,443a.863.863,0,0,1,.25.071,5.835,5.835,0,0,1,.652.288,8.038,8.038,0,0,1,1.912,1.352,7.854,7.854,0,0,1,1.428,1.858,5.348,5.348,0,0,1,.31.641,1.087,1.087,0,0,1,.087.25s-.174-.331-.483-.836a8.962,8.962,0,0,0-1.439-1.809,9.271,9.271,0,0,0-1.863-1.369C210.881,443.163,210.539,443.027,210.55,443Z" transform="translate(-197.232 -399.374)" fill="#263238"/>
      <path id="Path_38208" data-name="Path 38208" d="M194.24,420.48a.68.68,0,0,1,.168.049l.483.168.755.282c.3.109.619.272.978.429a23.172,23.172,0,0,1,5.214,3.319,26.064,26.064,0,0,1,2.428,2.4c.69.793,1.271,1.537,1.727,2.173s.8,1.189,1.043,1.564l.272.429a.949.949,0,0,1,.087.152.74.74,0,0,1-.109-.136c-.071-.1-.174-.234-.3-.418-.25-.364-.608-.891-1.086-1.532s-1.054-1.374-1.744-2.173a25.837,25.837,0,0,0-2.422-2.368,24.141,24.141,0,0,0-5.165-3.34c-.358-.163-.674-.331-.961-.451l-.739-.261-.467-.2Z" transform="translate(-189.781 -389.085)" fill="#263238"/>
      <path id="Path_38209" data-name="Path 38209" d="M224.509,424.6a1.288,1.288,0,0,1-.32-.043l-.364-.065c-.147-.027-.315-.027-.494-.049a5.078,5.078,0,0,0-2.748.543,4.991,4.991,0,0,0-1.255.929,5.56,5.56,0,0,0-.8.994,7.607,7.607,0,0,0-.543,1.054.912.912,0,0,1,.081-.315,4.3,4.3,0,0,1,.38-.788,5.431,5.431,0,0,1,.8-1.037,4.888,4.888,0,0,1,4.106-1.477,2.179,2.179,0,0,1,.494.065l.369.092A1.449,1.449,0,0,1,224.509,424.6Z" transform="translate(-200.626 -390.834)" fill="#263238"/>
      <path id="Path_38210" data-name="Path 38210" d="M228.349,401.86l-.152.092-.445.244c-.391.212-.951.516-1.629.918s-1.472.9-2.319,1.51a19.47,19.47,0,0,0-2.585,2.173,6.42,6.42,0,0,0-1.059,1.374c-.266.5-.516.989-.744,1.456a26.611,26.611,0,0,0-1.113,2.531,16.031,16.031,0,0,0-.543,1.781c-.1.429-.136.674-.152.668a.7.7,0,0,1,0-.174,3.12,3.12,0,0,1,.081-.505,12.888,12.888,0,0,1,.505-1.8,24.273,24.273,0,0,1,1.086-2.558c.228-.467.478-.956.739-1.461A6.354,6.354,0,0,1,221.1,406.7a18.565,18.565,0,0,1,2.613-2.173c.858-.6,1.662-1.086,2.346-1.488s1.255-.684,1.629-.88l.456-.217A.847.847,0,0,1,228.349,401.86Z" transform="translate(-200.453 -380.579)" fill="#263238"/>
      <path id="Path_38211" data-name="Path 38211" d="M214.472,417.176a1.456,1.456,0,0,1-.076-.342c-.049-.244-.109-.543-.179-.923a26.54,26.54,0,0,0-.755-3,25.7,25.7,0,0,0-1.146-2.879l-.386-.858a1.413,1.413,0,0,1-.13-.32,1.6,1.6,0,0,1,.179.3c.1.2.255.478.429.836a20.4,20.4,0,0,1,1.189,2.879,21.256,21.256,0,0,1,.722,3.031c.06.391.1.712.13.934a1.661,1.661,0,0,1,.022.348Z" transform="translate(-197.803 -383.772)" fill="#263238"/>
      <path id="Path_38212" data-name="Path 38212" d="M206.966,397.711a10.863,10.863,0,0,0-1.3-4.345A14.274,14.274,0,0,0,196,386.18l8.951,13.34,1.157,2.384a6.887,6.887,0,0,0,.858-4.193Z" transform="translate(-190.585 -373.415)" fill="#455a64"/>
      <rect id="Rectangle_5651" data-name="Rectangle 5651" width="20.813" height="3.688" transform="translate(8.408 50.589)" fill="#f8951d"/>
      <path id="Path_38213" data-name="Path 38213" d="M204.37,461.27l1.771,11.444h13.818l2.118-11.444Z" transform="translate(-194.409 -407.72)" fill="#f8951d"/>
      <path id="Path_38214" data-name="Path 38214" d="M222.171,462.561c0,.043-4.7.076-10.488.076s-10.483-.033-10.483-.076,4.693-.071,10.483-.071S222.171,462.523,222.171,462.561Z" transform="translate(-192.96 -408.278)" fill="#263238"/>
    </g>
    <g id="freepik--speech-bubble-2--inject-27" transform="translate(193.987 117.255)">
      <path id="Path_38215" data-name="Path 38215" d="M362.875,205.537l-1.086-2.623a10.858,10.858,0,1,0-1.841,3.454h0Z" transform="translate(-340.541 -188.701)" fill="#fff"/>
      <path id="Path_38216" data-name="Path 38216" d="M362.784,205.429l-.179.06-.543.163-2.173.635a.049.049,0,0,1-.065-.033.092.092,0,0,1,0-.038h0l.092.054a10.863,10.863,0,0,1-4.128,3.259,11.406,11.406,0,0,1-3.351.885,10.95,10.95,0,0,1-3.932-.337,11.146,11.146,0,0,1-3.884-1.972,10.635,10.635,0,0,1-2.993-3.634,11.189,11.189,0,0,1-1.179-4.888,10.8,10.8,0,0,1,1.238-5.106,10.684,10.684,0,0,1,3.52-3.97,11.2,11.2,0,0,1,4.725-1.82,10.694,10.694,0,0,1,4.736.429,11.085,11.085,0,0,1,3.835,2.135A10.863,10.863,0,0,1,361,194.338l.4.831c.125.277.212.543.315.831a9.341,9.341,0,0,1,.418,1.629,10.744,10.744,0,0,1-.375,5.209v-.033c.342.842.614,1.5.8,1.966.087.212.152.38.2.505a.981.981,0,0,1,.06.168s-.033-.065-.087-.179l-.223-.505c-.2-.451-.478-1.086-.842-1.917a.033.033,0,0,1,0-.033,10.777,10.777,0,0,0,.315-5.154,9.565,9.565,0,0,0-.429-1.6c-.1-.266-.19-.543-.315-.815s-.261-.543-.4-.815a10.738,10.738,0,0,0-2.46-3.02,11.031,11.031,0,0,0-3.769-2.069,10.4,10.4,0,0,0-4.633-.407,10.918,10.918,0,0,0-4.617,1.782,10.727,10.727,0,0,0-4.644,8.87,10.863,10.863,0,0,0,1.141,4.758,10.488,10.488,0,0,0,2.922,3.568,10.934,10.934,0,0,0,3.8,1.944,10.641,10.641,0,0,0,3.851.353,11.075,11.075,0,0,0,3.3-.847,10.863,10.863,0,0,0,4.085-3.167.049.049,0,0,1,.071,0,.06.06,0,0,1,0,.06h0l-.06-.071,2.173-.57.576-.147A1.016,1.016,0,0,1,362.784,205.429Z" transform="translate(-340.449 -188.594)" fill="#263238"/>
      <circle id="Ellipse_3282" data-name="Ellipse 3282" cx="1.184" cy="1.184" r="1.184" transform="translate(6.04 10.024)" fill="#263238"/>
      <path id="Path_38217" data-name="Path 38217" d="M361.278,208.234a1.184,1.184,0,1,1-1.184-1.184A1.184,1.184,0,0,1,361.278,208.234Z" transform="translate(-348.883 -197.026)" fill="#263238"/>
      <circle id="Ellipse_3283" data-name="Ellipse 3283" cx="1.184" cy="1.184" r="1.184" transform="translate(13.905 10.024)" fill="#263238"/>
    </g>
    <g id="freepik--speech-bubble-1--inject-27" transform="translate(71.677 93.28)">
      <path id="Path_38218" data-name="Path 38218" d="M116.237,163.048l.543-3.025a10.26,10.26,0,1,1,2.368,2.824h0Z" transform="translate(-115.342 -144.562)" fill="#fff"/>
      <path id="Path_38219" data-name="Path 38219" d="M116.157,162.941h.722l2.173-.119a.049.049,0,0,0,.038-.049h0l-.065.06a10.179,10.179,0,0,0,6.083,2.39h.842a3.829,3.829,0,0,0,.435,0l.44-.049a10.32,10.32,0,0,0,8.908-12.492,10.7,10.7,0,0,0-.82-2.363,10.543,10.543,0,0,0-1.412-2.124,10.672,10.672,0,0,0-1.868-1.814,10.32,10.32,0,0,0-2.173-1.179,10.206,10.206,0,0,0-4.687-.712,10.352,10.352,0,0,0-9.505,10.624,10.211,10.211,0,0,0,1.374,4.818V159.9c-.158.983-.277,1.738-.364,2.265l-.087.576a1.245,1.245,0,0,0,0,.19.765.765,0,0,1,.043-.206c.043-.136.06-.331.109-.581.092-.516.228-1.266.407-2.227a.071.071,0,0,0,0-.033,10.217,10.217,0,0,1,8.071-15.208,10.021,10.021,0,0,1,4.6.706,9.875,9.875,0,0,1,3.949,2.841,10.472,10.472,0,0,1,1.385,2.075,10.353,10.353,0,0,1,.8,2.314,10.129,10.129,0,0,1-8.718,12.291l-.435.049h-1.26a9.554,9.554,0,0,1-1.564-.19,10.32,10.32,0,0,1-4.47-2.118.038.038,0,0,0-.06,0,.049.049,0,0,0,0,.054h0v-.065l-2.129.168-.543.049Z" transform="translate(-115.262 -144.454)" fill="#263238"/>
      <path id="Path_38220" data-name="Path 38220" d="M126.12,162.069l1.13-1.135,2.189,1.944,4.291-4.128,1.054,1.13-5.508,5.187Z" transform="translate(-120.222 -150.985)" fill="#f8951d"/>
    </g>
    <g id="freepik--character-2--inject-27" transform="translate(165.766 123.306)">
      <path id="Path_38221" data-name="Path 38221" d="M429.769,339.053a1.844,1.844,0,0,1,.027-.386c.114-2.439-.88-4.785-1.836-7.061-2.564-6.04-5.04-12.449-4.345-18.967.956-8.62,7.294-15.751,9.554-24.083a2.26,2.26,0,0,1,2.173-1.657h0a2.259,2.259,0,0,1,2.173,2.933c-2.52,7.794-8.272,14.632-9.174,22.812-.722,6.518,1.76,12.927,4.318,18.967.956,2.254,1.95,4.6,1.841,7.061s-1.684,5.013-4.1,5.431H394.416a2.265,2.265,0,0,1-2.276-2.265v-.489a2.27,2.27,0,0,1,2.276-2.265Z" transform="translate(-335.843 -239.557)" fill="#455a64"/>
      <path id="Path_38222" data-name="Path 38222" d="M428.774,441.036H376.5a2.3,2.3,0,0,1-1.863-.983,2.813,2.813,0,0,1-.38-2.526l14.882-45.6.771.255L375.035,437.81a2,2,0,0,0,.266,1.792,1.5,1.5,0,0,0,1.2.646h52.273a1.467,1.467,0,0,0,1.184-.619,1.993,1.993,0,0,0,.31-1.738L417.5,392.169l.788-.223,12.791,45.7a2.814,2.814,0,0,1-.451,2.455A2.292,2.292,0,0,1,428.774,441.036Z" transform="translate(-327.608 -287.54)" fill="#e0e0e0"/>
      <path id="Path_38223" data-name="Path 38223" d="M339.77,323.915s1.906-4.628,3.8-5.605a24.21,24.21,0,0,1,4.275-1.629h8.343l.081,5.431a3.7,3.7,0,0,1-2.868.983c-1.629-.228-5.8-1.249-5.8-1.249l-2.042.109-1.868,2.412s-1.532.462-.989-.983l.777-2.08s-1.809,2.808-2.5,2.938A1.543,1.543,0,0,1,339.77,323.915Z" transform="translate(-311.917 -253.162)" fill="#6f4439"/>
      <path id="Path_38224" data-name="Path 38224" d="M388.052,297.85l-6.664,9.581-11.52.652-.158,5.258,8.69,1.711a13.981,13.981,0,0,0,12.449-3.7h0l1.287-11.591Z" transform="translate(-325.596 -244.56)" fill="#ae7461"/>
      <path id="Path_38225" data-name="Path 38225" d="M394,437.765l7.74,7.577s-5.605,10.8-4.318,12.335l16.164-15.208L402.033,430.15Z" transform="translate(-336.692 -305.001)" fill="#263238"/>
      <path id="Path_38226" data-name="Path 38226" d="M415.89,448.151a.858.858,0,0,1,1.13.282.869.869,0,0,1-.331,1.13.9.9,0,0,1-1.195-.3.918.918,0,0,1,.478-1.146" transform="translate(-346.487 -313.177)" fill="#e0e0e0"/>
      <path id="Path_38227" data-name="Path 38227" d="M416.239,451.825l-1.217-1.195-15.045,15.029s-.44.972.1,1.374Z" transform="translate(-339.346 -314.357)" fill="#455a64"/>
      <path id="Path_38228" data-name="Path 38228" d="M407.6,457.758c.071.071.5-.266,1.113-.391s1.119,0,1.162-.109-.478-.418-1.222-.25S407.52,457.7,407.6,457.758Z" transform="translate(-342.901 -317.249)" fill="#fff"/>
      <path id="Path_38229" data-name="Path 38229" d="M405.635,462.231c.049.092.511-.1,1.086-.043s.961.326,1.037.244-.272-.543-.978-.608S405.57,462.161,405.635,462.231Z" transform="translate(-342.005 -319.468)" fill="#fff"/>
      <path id="Path_38230" data-name="Path 38230" d="M405.666,467.071c.087-.049-.158-.543-.75-.744a1.182,1.182,0,0,0-1.086.065c0,.065.462.1.945.282S405.579,467.141,405.666,467.071Z" transform="translate(-341.183 -321.489)" fill="#fff"/>
      <path id="Path_38231" data-name="Path 38231" d="M404.709,453.581c.1.038.364-.407.836-.8s.945-.587.929-.69-.608-.049-1.157.418S404.616,453.559,404.709,453.581Z" transform="translate(-341.573 -315.006)" fill="#fff"/>
      <path id="Path_38232" data-name="Path 38232" d="M356.808,344.8c-1.418,0-35.907,10.048-39.65,13.443s-6.518,45.429-6.518,45.429l14.464,4.959s3.047-20.526,4.888-27.157a33.85,33.85,0,0,0,1.135-10.189l28.635-12.492Z" transform="translate(-298.609 -266.009)" fill="#263238"/>
      <path id="Path_38233" data-name="Path 38233" d="M373.033,343.568c-.641.282-25.7,10.982-28.059,18.152-1.917,5.844.31,10.988,2.993,15.007,3.025,4.535,25.224,24.795,25.224,24.795l12.53-8.962L364.24,370.377s11.27-6.952,11.656-6.952,12.1-.777,15.816-1.195c3.471-.4,5.366-5.366,5.366-5.366l3.091-14.258-23.241-5.366Z" transform="translate(-313.966 -262.555)" fill="#263238"/>
      <path id="Path_38234" data-name="Path 38234" d="M373,343.549l.244-.418.739-1.217,2.879-4.715h.027l23.247,5.328h.076v.076c-.929,4.285-1.966,9.1-3.08,14.258h0a12.493,12.493,0,0,1-2.211,3.585,6.441,6.441,0,0,1-1.7,1.352,2.5,2.5,0,0,1-.505.234,2.9,2.9,0,0,1-.543.168c-.179.038-.364.081-.543.1l-.543.06c-2.933.293-5.975.505-9.092.733l-4.747.326-1.206.071h-.2l-.06.027-.266.13-.543.293c-.706.4-1.412.82-2.118,1.238-2.819,1.689-5.687,3.449-8.609,5.247v-.163c5.366,5.546,11.026,11.363,16.81,17.337l4.709,4.861.087.087-.1.071q-6.4,4.584-12.53,8.956l-.065.049-.065-.054q-6.735-6.159-12.883-12.042c-2.042-1.955-4.03-3.884-5.942-5.8s-3.769-3.8-5.431-5.746c-.217-.234-.4-.505-.6-.755a5.76,5.76,0,0,1-.543-.782c-.342-.543-.674-1.086-.978-1.629a22.483,22.483,0,0,1-1.559-3.351,16.522,16.522,0,0,1-.864-3.476,14.427,14.427,0,0,1,0-3.454,12.414,12.414,0,0,1,.782-3.259,9.337,9.337,0,0,1,1.847-2.618,31.107,31.107,0,0,1,4.622-3.8,89.29,89.29,0,0,1,8.772-5.252c2.64-1.412,4.948-2.542,6.838-3.438s3.367-1.559,4.345-2l1.141-.494.391-.158s-.125.065-.38.179l-1.135.505c-.994.451-2.466,1.124-4.345,2.031s-4.188,2.048-6.822,3.465a91.08,91.08,0,0,0-8.745,5.269,30.636,30.636,0,0,0-4.59,3.8,9.114,9.114,0,0,0-1.814,2.575,12.635,12.635,0,0,0-.766,3.2,14.4,14.4,0,0,0,.027,3.416,16.192,16.192,0,0,0,.864,3.438,21.886,21.886,0,0,0,1.548,3.324q.456.815.978,1.629a7.682,7.682,0,0,0,.543.771c.2.25.369.511.592.75,1.662,1.944,3.525,3.8,5.431,5.73s3.9,3.829,5.947,5.785q6.138,5.861,12.883,12.036h-.13l12.53-8.956v.158l-4.709-4.888-16.767-17.321-.092-.092.109-.071q4.383-2.716,8.614-5.241c.712-.418,1.412-.836,2.124-1.238l.543-.293c.092-.049.179-.1.277-.141l.081-.033h.25l1.206-.071,4.747-.32c3.118-.228,6.154-.44,9.081-.728a4.855,4.855,0,0,0,2.069-.543,6.251,6.251,0,0,0,1.629-1.314,12.243,12.243,0,0,0,2.173-3.514h0l3.107-14.252.054.087-23.236-5.4h.043l-2.917,4.7-.75,1.2C373.1,343.419,373,343.549,373,343.549Z" transform="translate(-313.936 -262.537)" fill="#455a64"/>
      <path id="Path_38235" data-name="Path 38235" d="M399.081,212.193a2.352,2.352,0,0,1-1.39-4.465,2.444,2.444,0,0,1,1.765-4.291,2.928,2.928,0,0,1,4.188-2.775,3.3,3.3,0,0,1,4.03-.429,2.336,2.336,0,0,1,2.4,3.775" transform="translate(-337.732 -199.736)" fill="#263238"/>
      <path id="Path_38236" data-name="Path 38236" d="M410.478,204.816l-.516.043a9.972,9.972,0,0,0-9.092,10.01c.038,4.834.141,10.173.4,12.748.543,5.323,5.942,5.681,5.942,5.681l.119,6.442,12.9-1.543-.907-23.328C419.31,209.292,416.051,204.648,410.478,204.816Z" transform="translate(-339.831 -202.055)" fill="#ae7461"/>
      <path id="Path_38237" data-name="Path 38237" d="M412.53,255.017a12.976,12.976,0,0,0,6.773-2.667s-1.374,4.079-6.735,4.068Z" transform="translate(-345.158 -223.773)" fill="#6f4439"/>
      <path id="Path_38238" data-name="Path 38238" d="M404.41,231.794a.766.766,0,0,0,.8.706.733.733,0,0,0,.722-.755.766.766,0,0,0-.8-.706.733.733,0,0,0-.722.755Z" transform="translate(-341.448 -214.036)" fill="#263238"/>
      <path id="Path_38239" data-name="Path 38239" d="M403.388,227.207c.1.087.641-.391,1.461-.456s1.456.282,1.537.174-.071-.217-.348-.386a2.129,2.129,0,0,0-1.244-.266,2.026,2.026,0,0,0-1.151.489C403.409,226.951,403.339,227.136,403.388,227.207Z" transform="translate(-340.975 -211.855)" fill="#263238"/>
      <path id="Path_38240" data-name="Path 38240" d="M418,231.014a.771.771,0,0,0,.8.706.733.733,0,0,0,.722-.755.76.76,0,0,0-.8-.706.733.733,0,0,0-.728.755Z" transform="translate(-347.657 -213.68)" fill="#263238"/>
      <path id="Path_38241" data-name="Path 38241" d="M418.238,226.127c.1.092.646-.386,1.461-.456s1.456.282,1.537.174-.071-.217-.348-.386a2.173,2.173,0,0,0-1.244-.266,2.026,2.026,0,0,0-1.151.489C418.259,225.9,418.189,226.084,418.238,226.127Z" transform="translate(-347.759 -211.362)" fill="#263238"/>
      <path id="Path_38242" data-name="Path 38242" d="M411.973,232.833a5.236,5.236,0,0,0-1.352-.125c-.212,0-.413-.027-.462-.168a1.086,1.086,0,0,1,.087-.63l.478-1.629a32.5,32.5,0,0,0,1.021-4.291,31.694,31.694,0,0,0-1.363,4.2c-.158.576-.31,1.124-.451,1.629a1.2,1.2,0,0,0-.038.831.543.543,0,0,0,.369.277,1.39,1.39,0,0,0,.358,0,5.622,5.622,0,0,0,1.352-.092Z" transform="translate(-343.927 -211.73)" fill="#263238"/>
      <path id="Path_38243" data-name="Path 38243" d="M416.419,220.353c.125.2.809-.087,1.673-.2s1.6,0,1.662-.244c0-.109-.147-.282-.473-.418a2.553,2.553,0,0,0-1.32-.158,2.466,2.466,0,0,0-1.217.494C416.473,220.049,416.364,220.261,416.419,220.353Z" transform="translate(-346.928 -208.679)" fill="#263238"/>
      <path id="Path_38244" data-name="Path 38244" d="M402.752,220.878c.19.174.847-.081,1.662-.163s1.51,0,1.629-.212c.06-.1-.065-.282-.38-.429a2.613,2.613,0,0,0-1.38-.185,2.672,2.672,0,0,0-1.293.489C402.746,220.6,402.665,220.8,402.752,220.878Z" transform="translate(-340.675 -208.932)" fill="#263238"/>
      <path id="Path_38245" data-name="Path 38245" d="M401.365,211.854s1.086-3.465,2.656-4.383c1.863-1.119,2.89.945,4.7.266s3.59-1.754,5.616-.489c2.216,1.39,1.342,2.58,1.678,4.932,1.369,9.543,3.357,12.1,3.46,7.539,0-.5,1.347-1.016,1.363-3.123.027-2.716-.163-6.034-.934-7.908a7.664,7.664,0,0,0-3.444-3.7c-2.792-1.716-6.393-1.439-8.81-.978S400.773,207.693,401.365,211.854Z" transform="translate(-340.033 -201.527)" fill="#263238"/>
      <path id="Path_38246" data-name="Path 38246" d="M434.108,231.712a1.445,1.445,0,0,1,1.439-1.532c1,0,2.173.473,2.27,2.531.206,3.655-3.5,3.107-3.514,3S434.178,233.254,434.108,231.712Z" transform="translate(-355.015 -213.644)" fill="#ae7461"/>
      <path id="Path_38247" data-name="Path 38247" d="M435.788,235.326a1.438,1.438,0,0,0,.174.081.636.636,0,0,0,.478,0,1.58,1.58,0,0,0,.652-1.456,2.091,2.091,0,0,0-.234-.9.744.744,0,0,0-.505-.462.326.326,0,0,0-.364.2c-.043.109,0,.179-.038.185s-.081-.054-.06-.206a.407.407,0,0,1,.13-.239.5.5,0,0,1,.348-.114.9.9,0,0,1,.7.543,2.129,2.129,0,0,1,.282,1,1.629,1.629,0,0,1-.842,1.629.673.673,0,0,1-.587-.065C435.8,235.413,435.777,235.331,435.788,235.326Z" transform="translate(-355.782 -214.662)" fill="#6f4439"/>
      <path id="Path_38248" data-name="Path 38248" d="M420.19,211.528a3.454,3.454,0,0,1-1.483.847,1.189,1.189,0,0,1-1.39-.717c-.071-.25-.033-.543-.217-.733s-.581-.109-.88-.049a2.9,2.9,0,0,1-2.754-1.863.956.956,0,0,1-1.249.375,3.5,3.5,0,0,1-.945-.7,1.521,1.521,0,0,0-1.309-.543,3.8,3.8,0,0,1-.777.244c-.483,0-.766-.543-.88-1.01s-.217-1.016-.646-1.238a1.928,1.928,0,0,0-1.309.081c-.435.1-1.01.049-1.162-.375a.9.9,0,0,1,.1-.673,2.374,2.374,0,0,1,2.716-1.141,3.21,3.21,0,0,1,5.823-1.141,3.259,3.259,0,0,1,5.3.728,2.363,2.363,0,0,1,2.955,3.188,2.227,2.227,0,0,1,1.385,1.673,1.282,1.282,0,0,1-1.331,1.434,1.309,1.309,0,0,1-2.14,1.5" transform="translate(-341.793 -200.521)" fill="#263238"/>
      <path id="Path_38249" data-name="Path 38249" d="M410.059,208.3a.306.306,0,0,0,0,.065,1.489,1.489,0,0,0,.038.2,2.46,2.46,0,0,0,.326.679,2.607,2.607,0,0,0,.885.788,2.412,2.412,0,0,0,1.532.293l-.071-.071a1.314,1.314,0,0,0,.163,1,3.8,3.8,0,0,0,.7.836,2.845,2.845,0,0,0,.445.386,1.347,1.347,0,0,0,.6.163,1.325,1.325,0,0,0,1.135-.543l-.136-.027A2.716,2.716,0,0,0,417,213.856a2.059,2.059,0,0,0,1.233.288,3.661,3.661,0,0,0,1.151-.364l-.1-.038a2.8,2.8,0,0,0,.961,1.048,1.515,1.515,0,0,0,1.3.234,2,2,0,0,0,1.407-1.705l-.076.043a1.879,1.879,0,0,0,1.266.076,2.058,2.058,0,0,0,.842-.467,1.722,1.722,0,0,0,.369-.483,2.086,2.086,0,0,0,.076-.2,2.253,2.253,0,0,1-.489.635,2.042,2.042,0,0,1-.82.424,1.825,1.825,0,0,1-1.2-.087l-.071-.033v.076a1.9,1.9,0,0,1-1.336,1.586,1.38,1.38,0,0,1-1.179-.228,2.716,2.716,0,0,1-.907-.994l-.033-.065-.071.033a3.529,3.529,0,0,1-1.086.348,1.868,1.868,0,0,1-1.141-.272,2.607,2.607,0,0,1-1.255-1.684l-.038-.168-.1.141a1.179,1.179,0,0,1-1,.462,1.087,1.087,0,0,1-.543-.141,2.131,2.131,0,0,1-.418-.358,3.524,3.524,0,0,1-.69-.8,1.2,1.2,0,0,1-.158-.9v-.087H412.8a2.373,2.373,0,0,1-1.461-.255,2.683,2.683,0,0,1-.88-.75A2.9,2.9,0,0,1,410.059,208.3Z" transform="translate(-344.028 -203.648)" fill="#455a64"/>
      <path id="Path_38250" data-name="Path 38250" d="M413.9,241.391c0-.141.918-.033,1.662-.733s.76-1.689.885-1.678.152.234.114.646a2.281,2.281,0,0,1-.69,1.412,2.02,2.02,0,0,1-1.385.543C414.1,241.582,413.883,241.451,413.9,241.391Z" transform="translate(-345.783 -217.665)" fill="#263238"/>
      <path id="Path_38251" data-name="Path 38251" d="M303.812,443.23l-1.684,11.694s-13.106,2.026-13.638,4.15l23.8,4.443,3.411-18.1Z" transform="translate(-288.49 -310.977)" fill="#263238"/>
      <path id="Path_38252" data-name="Path 38252" d="M326.379,465.423a.945.945,0,0,1,.483,1.179.956.956,0,0,1-1.211.435.994.994,0,0,1-.505-1.249,1.01,1.01,0,0,1,1.32-.32" transform="translate(-305.207 -321.079)" fill="#e0e0e0"/>
      <path id="Path_38253" data-name="Path 38253" d="M312.291,476.03l.266-1.836-22.915-3.574s-1.141.239-1.151.967Z" transform="translate(-288.49 -323.49)" fill="#455a64"/>
      <path id="Path_38254" data-name="Path 38254" d="M312.92,464.373c0,.109.543.266,1.086.728s.728.978.842.956.06-.69-.543-1.238S312.915,464.265,312.92,464.373Z" transform="translate(-299.651 -320.611)" fill="#fff"/>
      <path id="Path_38255" data-name="Path 38255" d="M308,465.338c-.049.1.424.38.733.923s.331,1.048.451,1.086.3-.587-.1-1.255S308,465.235,308,465.338Z" transform="translate(-297.4 -321.065)" fill="#fff"/>
      <path id="Path_38256" data-name="Path 38256" d="M303.943,468.343c.1.043.364-.478.174-1.135s-.69-1-.755-.918.212.467.359,1.01S303.829,468.3,303.943,468.343Z" transform="translate(-295.28 -321.506)" fill="#fff"/>
      <path id="Path_38257" data-name="Path 38257" d="M314.2,459.4c.033.109.592.054,1.244.223s1.124.456,1.2.369-.342-.543-1.086-.75S314.161,459.305,314.2,459.4Z" transform="translate(-300.234 -318.259)" fill="#fff"/>
      <path id="Path_38258" data-name="Path 38258" d="M401.255,263.359l.489-2.211,13-6.458,1.135,1.8s4.861,3.96,6.724,7.392-.342,31.568-.657,35.674c-.625,8.272-3.715,19.1-3.715,19.1s-4.171-2.906-16.441-7.941-12.927-7.322-12.927-7.322l7.229-9.168Z" transform="translate(-334.344 -224.842)" fill="#f8951d"/>
      <path id="Path_38259" data-name="Path 38259" d="M406.975,272.08c-.071.407-5.975,14.513-5.975,14.513s3.052,1.706,3.482,1.787S406.975,272.08,406.975,272.08Z" transform="translate(-339.89 -232.786)" fill="#f8951d"/>
      <path id="Path_38260" data-name="Path 38260" d="M408.863,276.34c.06,0-.462,3.59-1.162,8.006s-1.314,7.979-1.374,7.973.462-3.6,1.162-8.011S408.781,276.329,408.863,276.34Z" transform="translate(-342.322 -234.733)" fill="#263238"/>
      <path id="Path_38261" data-name="Path 38261" d="M335,322.014s3.5-5.165,5.589-6.072a25.9,25.9,0,0,1,4.7-1.4l8.8,1.179-.158,5.258a3.959,3.959,0,0,1-3.145.836c-1.754-.369-6.1-1.771-6.1-1.771l-2.2-.033-2.173,2.444s-1.667.38-.983-1.124l.989-2.173s-2.173,2.873-2.9,2.96a15.242,15.242,0,0,1-2.417-.1Z" transform="translate(-309.738 -252.184)" fill="#ae7461"/>
      <path id="Path_38262" data-name="Path 38262" d="M396.9,290.2l-6.1,14.187-20.895.2-.158,5.258s20.151,7.1,25.528,5.725,14.263-20.352,14.263-20.352Z" transform="translate(-325.609 -241.065)" fill="#ae7461"/>
      <path id="Path_38263" data-name="Path 38263" d="M421,266.605c-.543.516-2.46,2.716-4.476,7.555s-4.845,10.461-4.845,10.461l14.41,5.741s3.259-7.555,4.807-10.917c1.162-2.558,1.972-7.6.918-10.032S426.014,262.054,421,266.605Z" transform="translate(-344.77 -229.436)" fill="#f8951d"/>
      <path id="Path_38264" data-name="Path 38264" d="M420.891,266.564a1.6,1.6,0,0,1,.13-.125c.092-.081.223-.206.407-.353a7.12,7.12,0,0,1,1.776-1.048,5.388,5.388,0,0,1,3.232-.239A7.74,7.74,0,0,1,430.13,267a9.012,9.012,0,0,1,1.5,2.031,6.719,6.719,0,0,1,.625,2.667,19.011,19.011,0,0,1-.75,5.975,22.292,22.292,0,0,1-1.19,3.042q-.652,1.5-1.369,3.134-1.39,3.167-2.873,6.518l-.043.092-.1-.038-.206-.081-14.192-5.676-.1-.038.043-.092c1.347-2.716,2.542-5.209,3.558-7.463s1.809-4.275,2.656-5.861a24.51,24.51,0,0,1,2.194-3.547,10.278,10.278,0,0,1,.712-.842,3.681,3.681,0,0,1,.282-.261l-.065.071-.19.212c-.168.185-.4.473-.69.858a25.334,25.334,0,0,0-2.173,3.563c-.831,1.581-1.591,3.612-2.613,5.871s-2.173,4.78-3.53,7.485l-.049-.136,14.2,5.649.212.087-.136.054c.983-2.238,1.95-4.427,2.879-6.518q.7-1.591,1.374-3.107a22.372,22.372,0,0,0,1.189-3.014,19.009,19.009,0,0,0,.76-5.909,6.485,6.485,0,0,0-.6-2.6,8.956,8.956,0,0,0-1.467-2,7.6,7.6,0,0,0-3.612-2.173,5.377,5.377,0,0,0-3.177.2,7.6,7.6,0,0,0-1.776,1c-.19.141-.326.261-.418.337Z" transform="translate(-344.66 -229.394)" fill="#263238"/>
      <path id="Path_38265" data-name="Path 38265" d="M348.633,319.351a6.665,6.665,0,0,0-2.227.543,6.464,6.464,0,0,0-1.776,1.461,1.537,1.537,0,0,1,.358-.6,4.209,4.209,0,0,1,1.32-1.048,4.129,4.129,0,0,1,1.629-.44A1.63,1.63,0,0,1,348.633,319.351Z" transform="translate(-314.138 -254.34)" fill="#6f4439"/>
      <path id="Path_38266" data-name="Path 38266" d="M394.186,302.45a.545.545,0,0,1-.049.147l-.158.413c-.158.38-.375.9-.641,1.553-.57,1.347-1.363,3.259-2.308,5.459v.054h-.065l-6.344.071-10.293.071h-3.965a1.087,1.087,0,0,1-.293,0h1.141l3.118-.065,10.287-.13,6.349-.054-.087.06,2.379-5.431.684-1.526c.081-.163.141-.3.19-.407A.961.961,0,0,0,394.186,302.45Z" transform="translate(-325.76 -246.661)" fill="#6f4439"/>
    </g>
    <g id="freepik--Table--inject-27" transform="translate(35.215 197.215)">
      <rect id="Rectangle_5652" data-name="Rectangle 5652" width="4.025" height="78.708" transform="translate(10.048 0.777)" fill="#455a64"/>
      <rect id="Rectangle_5653" data-name="Rectangle 5653" width="4.025" height="78.164" transform="translate(175.165 1.331)" fill="#455a64"/>
      <rect id="Rectangle_5654" data-name="Rectangle 5654" width="183.171" height="4.747" transform="translate(0)" fill="#455a64"/>
      <path id="Path_38267" data-name="Path 38267" d="M301.814,344.469c0,.06-21.373.1-47.737.1s-47.737-.043-47.737-.1,21.367-.109,47.737-.109S301.814,344.409,301.814,344.469Z" transform="translate(-120.409 -339.716)" fill="#263238"/>
    </g>
    <g id="freepik--Device--inject-27" transform="translate(163.175 169.414)">
      <path id="Path_38268" data-name="Path 38268" d="M284.443,284.645h0a.891.891,0,0,1,1.059.728l4.959,26.267h24.1a.652.652,0,0,1,.652.652h0a.652.652,0,0,1-.652.652H288.978v-.1h-.12l-5.122-27.157a.885.885,0,0,1,.706-1.037Z" transform="translate(-283.721 -284.626)" fill="#263238"/>
    </g>
    <g id="freepik--character-1--inject-27" transform="translate(35.942 101.784)">
      <path id="Path_38269" data-name="Path 38269" d="M61.032,166.771a13.084,13.084,0,0,1,9.652-5.926,14.035,14.035,0,0,1,4.97.445A7.284,7.284,0,0,1,80,163.653a12.194,12.194,0,0,1,2.868,5.328,17.511,17.511,0,0,1,.19,5.806,23.067,23.067,0,0,1-2.493,7.1l-3.454.728a33.286,33.286,0,0,1-8.777.31,11.277,11.277,0,0,1-7.566-4.063C58.338,175.6,58.74,170.128,61.032,166.771Z" transform="translate(-53.878 -160.411)" fill="#263238"/>
      <path id="Path_38270" data-name="Path 38270" d="M69.882,168.113l6.811-3.433,1.863.049c4.15-.358,7.419,3.965,7.745,7.322a59.965,59.965,0,0,1,.315,11.107,7.2,7.2,0,0,1-5.383,6.518s.782,6.572.972,8.424l-11.3-3.454-2.716-24.48A1.972,1.972,0,0,1,69.882,168.113Z" transform="translate(-58.02 -162.198)" fill="#ffbf9d"/>
      <path id="Path_38271" data-name="Path 38271" d="M86.62,196.709a1.179,1.179,0,0,1,.342-.766,1.211,1.211,0,0,1,1.456-.212,1.629,1.629,0,0,1,.744,1.461h0a1.488,1.488,0,0,1-.994.7h-.2a1.32,1.32,0,0,1-.918-.272A1.162,1.162,0,0,1,86.62,196.709Z" transform="translate(-66.442 -176.314)" fill="#ff9a6c"/>
      <path id="Path_38272" data-name="Path 38272" d="M98.344,186.981a.717.717,0,0,1-.668.75.69.69,0,0,1-.766-.625.728.728,0,0,1,.668-.75.69.69,0,0,1,.766.625Z" transform="translate(-71.142 -172.099)" fill="#263238"/>
      <path id="Path_38273" data-name="Path 38273" d="M97.113,181.281c-.087.092-.646-.288-1.418-.261s-1.331.435-1.418.342.043-.212.282-.4a2.031,2.031,0,0,1,1.13-.391,1.917,1.917,0,0,1,1.135.326C97.069,181.069,97.156,181.237,97.113,181.281Z" transform="translate(-69.928 -169.456)" fill="#263238"/>
      <path id="Path_38274" data-name="Path 38274" d="M90.909,188.4a5.176,5.176,0,0,1,1.249-.266c.2,0,.38-.076.413-.212a1.048,1.048,0,0,0-.152-.581q-.31-.712-.635-1.483a26.077,26.077,0,0,1-1.45-3.894,24.441,24.441,0,0,1,1.76,3.769l.608,1.494a1.141,1.141,0,0,1,.13.771.489.489,0,0,1-.315.3,1.422,1.422,0,0,1-.337.06,4.889,4.889,0,0,1-1.271.043Z" transform="translate(-68.135 -170.092)" fill="#263238"/>
      <path id="Path_38275" data-name="Path 38275" d="M85.824,209.2a14.252,14.252,0,0,1-7.6-1.743s2.129,3.8,7.729,3.1Z" transform="translate(-62.604 -181.742)" fill="#ff9a6c"/>
      <path id="Path_38276" data-name="Path 38276" d="M97.128,176.981c-.125.2-.722.087-1.412.168s-1.26.282-1.418.119c-.071-.081,0-.266.234-.467a2.091,2.091,0,0,1,1.086-.435,2.015,2.015,0,0,1,1.168.206C97.073,176.7,97.182,176.888,97.128,176.981Z" transform="translate(-69.938 -167.53)" fill="#263238"/>
      <path id="Path_38277" data-name="Path 38277" d="M84.92,187.99a.722.722,0,0,0,.744.674.69.69,0,0,0,.7-.7.717.717,0,0,0-.744-.673.69.69,0,0,0-.7.7Z" transform="translate(-65.665 -172.527)" fill="#263238"/>
      <path id="Path_38278" data-name="Path 38278" d="M80.268,182.277c.092.087.608-.353,1.38-.407s1.369.293,1.445.19-.065-.206-.326-.369a1.944,1.944,0,0,0-1.162-.266,1.847,1.847,0,0,0-1.086.44C80.289,182.081,80.219,182.277,80.268,182.277Z" transform="translate(-63.533 -169.844)" fill="#263238"/>
      <path id="Path_38279" data-name="Path 38279" d="M82.125,177.253c.163.168.75-.049,1.466-.092s1.331.043,1.461-.147c.06-.092-.049-.266-.32-.418a2.346,2.346,0,0,0-2.363.2C82.13,176.993,82.043,177.177,82.125,177.253Z" transform="translate(-64.375 -167.536)" fill="#263238"/>
      <path id="Path_38280" data-name="Path 38280" d="M68.158,190.652c0-.418-.543-1.385-.945-1.439-1.086-.13-3.091,0-3.014,2.824.109,3.8,3.927,2.928,3.932,2.819S68.212,192.1,68.158,190.652Z" transform="translate(-56.197 -173.39)" fill="#ffbf9d"/>
      <path id="Path_38281" data-name="Path 38281" d="M67.95,194.541a1.244,1.244,0,0,1-.174.1.684.684,0,0,1-.5,0,1.662,1.662,0,0,1-.8-1.461,2.216,2.216,0,0,1,.158-.961.771.771,0,0,1,.489-.543.348.348,0,0,1,.4.168c.054.109.027.185.049.19s.081-.065.049-.223a.44.44,0,0,0-.158-.234.489.489,0,0,0-.375-.087.929.929,0,0,0-.679.608,2.308,2.308,0,0,0-.2,1.086,1.733,1.733,0,0,0,1.016,1.629.7.7,0,0,0,.608-.119C67.945,194.633,67.966,194.546,67.95,194.541Z" transform="translate(-57.114 -174.444)" fill="#ff9a6c"/>
      <path id="Path_38282" data-name="Path 38282" d="M67.209,177.528l1.054.929c6.089-4.019,12.27-14.92,10.684-14.475a12.167,12.167,0,0,0-6.018-.114c-3.058.8-8.8,2.884-8.386,6.518A19.558,19.558,0,0,0,67.209,177.528Z" transform="translate(-56.345 -161.679)" fill="#263238"/>
      <path id="Path_38283" data-name="Path 38283" d="M59.71,160.664c1.483.869,2.8,3.395,2.173,5a5.035,5.035,0,0,1-6.409,5.627,4.856,4.856,0,0,1-2.716-2.1,5.85,5.85,0,0,1-.6-4.052,6.447,6.447,0,0,1,2.683-4.231A4.758,4.758,0,0,1,59.71,160.664Z" transform="translate(-50.639 -160.11)" fill="#263238"/>
      <path id="Path_38284" data-name="Path 38284" d="M65.55,177.9a3.471,3.471,0,0,0,.7-.3c.44-.212,1.086-.543,1.825-.972a27.413,27.413,0,0,0,5.486-4.057,18.375,18.375,0,0,0,3.97-5.54,13.177,13.177,0,0,0,.706-1.95,3.188,3.188,0,0,0,.158-.744c-.054,0-.293,1.043-1.048,2.607a19.678,19.678,0,0,1-3.987,5.431,31.035,31.035,0,0,1-5.393,4.079c-.744.451-1.352.8-1.776,1.048A4,4,0,0,0,65.55,177.9Z" transform="translate(-56.816 -162.038)" fill="#455a64"/>
      <path id="Path_38285" data-name="Path 38285" d="M59.377,174.918c.054,0,.076-.712.288-1.836a14.518,14.518,0,0,1,4.182-7.718c.82-.793,1.407-1.2,1.38-1.244a1.819,1.819,0,0,0-.44.25,9.775,9.775,0,0,0-1.086.842,13.193,13.193,0,0,0-2.8,3.552,13,13,0,0,0-1.439,4.285,9.309,9.309,0,0,0-.114,1.363,1.684,1.684,0,0,0,.033.505Z" transform="translate(-53.978 -161.942)" fill="#455a64"/>
      <path id="Path_38286" data-name="Path 38286" d="M66.89,199.154a1.434,1.434,0,1,0,1.434-1.434A1.434,1.434,0,0,0,66.89,199.154Z" transform="translate(-57.428 -177.292)" fill="#263238"/>
      <path id="Path_38287" data-name="Path 38287" d="M89.412,196.869c0-.136-.912,0-1.678-.63s-.842-1.629-.967-1.629-.136.244-.076.646a2.254,2.254,0,0,0,.755,1.352,1.983,1.983,0,0,0,1.4.473C89.222,197.07,89.428,196.929,89.412,196.869Z" transform="translate(-66.458 -175.871)" fill="#263238"/>
      <path id="Path_38288" data-name="Path 38288" d="M52.012,286.486s-4.275,15.072-1.738,23.258c1.526,4.888,22.894,31.953,23.9,33.132.717.809-9.136,26.359-10.939,31.682l11.33,5.491s14.176-30.145,15.045-35.43c1.086-6.784-14.833-35.8-14.252-36.2l5.736-11.949-4.72-12.335s-20.053.217-24.143.543Z" transform="translate(-49.469 -216.773)" fill="#263238"/>
      <path id="Path_38289" data-name="Path 38289" d="M93.2,304.82s27.635,9.809,30.753,11.466c3.395,1.809,5.975,8.147,3.129,13.552s-27.7,20.846-27.7,20.846l-6.181-9.44,17.978-14.165-19.488-4.584-6.317-7.517Z" transform="translate(-65.871 -226.221)" fill="#263238"/>
      <path id="Path_38290" data-name="Path 38290" d="M111.349,356.536a10.17,10.17,0,0,0,0-1.917,21.459,21.459,0,0,0-1.4-5.051c-.4-1.037-.869-2.173-1.363-3.373-.255-.6-.494-1.244-.744-1.89s-.543-1.3-.826-1.982c-1.179-2.716-2.52-5.638-3.932-8.723-2.281-4.959-4.383-9.538-6.078-13.209v-.076c.717-2.976,1.352-5.431,1.83-7.1.244-.842.451-1.494.608-1.934a4.722,4.722,0,0,1,.206-.489c.065-.109.1-.158.1-.152s0,.06-.071.168a2.9,2.9,0,0,0-.174.494c-.141.445-.32,1.086-.543,1.95-.44,1.689-1.037,4.133-1.733,7.115v-.076c1.722,3.65,3.856,8.223,6.132,13.188,1.412,3.091,2.716,6.034,3.911,8.739.288.679.576,1.336.82,2s.478,1.282.728,1.89c.489,1.211.951,2.341,1.331,3.389a20.7,20.7,0,0,1,1.325,5.111A5.6,5.6,0,0,1,111.349,356.536Z" transform="translate(-71.188 -228.88)" fill="#455a64"/>
      <path id="Path_38291" data-name="Path 38291" d="M98.965,315.27c-.054.2,0,7.262,0,7.262l3.53,6.013-2.835-.668-2.52-5.247Z" transform="translate(-71.248 -230.995)" opacity="0.3"/>
      <path id="Path_38292" data-name="Path 38292" d="M125.115,307.784c-.8-.782-3.134-2.976-4.78-4.519a.956.956,0,0,1,.635-1.629l18.929-.386a.934.934,0,0,1,.739.32l3.954,4.443a.961.961,0,0,1-.69,1.6l-18.092.478a.951.951,0,0,1-.7-.3Z" transform="translate(-81.718 -224.59)" fill="#455a64"/>
      <path id="Path_38293" data-name="Path 38293" d="M106.293,299.946a16.543,16.543,0,0,1,4.4-1.195c2.173-.217,3.3.706,4.476.6s4.4.206,4.4,1.086-4.476,1.179-4.476,1.179l3.927,1.255s4.476-.543,4.557,0-4.008,1.086-5.893,1.336-12.807.391-14.377,0-12.726-7.148-12.726-7.148l5.345-5.5Z" transform="translate(-68.251 -220.163)" fill="#ffbf9d"/>
      <path id="Path_38294" data-name="Path 38294" d="M62.715,216.486a9.179,9.179,0,0,0-6.893,6.382c-1.461,4.649,1.325,23.763,2.509,27.217S72.268,264.641,73.393,263.7s7.322-6.442,7.322-6.442l-9.967-11.8s.543-14-.13-16.647S65.506,216.219,62.715,216.486Z" transform="translate(-52.183 -185.863)" fill="#f8951d"/>
      <path id="Path_38295" data-name="Path 38295" d="M55.226,236.65c.728,6.643-.7,9.494-.7,9.494a5.154,5.154,0,0,0-1.858,3.4.967.967,0,0,0,1,1.086l24.143-.543s3.378.32,3.308-2.884c-.081-3.574.9-16.137-.4-21.08-.445-1.705-5.975-10.016-5.975-10.016L63.243,209.59l-1.222,3.139s-3.65,1.331-5.317,3.482A12.058,12.058,0,0,0,54.4,220.9C53.391,224.326,54.835,233.092,55.226,236.65Z" transform="translate(-50.93 -182.715)" fill="#f8951d"/>
      <path id="Path_38296" data-name="Path 38296" d="M155.846,238.939s-.206-.19-.94.043-2.813,1.26-3.759,1.5-2.993,1.032-2.993,1.032a4.1,4.1,0,0,0-2.585.869c-1.445,1-5.529,3.693-5.529,3.693l1.4,3.976a8.148,8.148,0,0,1,2.026-.13,6.333,6.333,0,0,0,2.895-.12c1.086-.337,2.613-.934,2.613-.934s1.461.12,1.847-.413,0-1.488,0-1.488h0s1.434-1.32.82-2.059-1.385-1.564-1.385-1.564,4.258-2.26,5.062-2.857S156.258,239.427,155.846,238.939Z" transform="translate(-90.847 -196.09)" fill="#ffbf9d"/>
      <path id="Path_38297" data-name="Path 38297" d="M124.388,252.18l-13.253,4.459-5.355,2.7L113.3,263.4l12.492-7.246Z" transform="translate(-75.195 -202.172)" fill="#ffbf9d"/>
      <path id="Path_38298" data-name="Path 38298" d="M154.368,246.15a6.588,6.588,0,0,1-.163,3.411l-.065.212-.109-.179c.88.158,1.662.31,2.227.44s.885.358.853.386a7.643,7.643,0,0,0-.891-.2c-.543-.076-1.358-.2-2.238-.353l-.152-.027.043-.152a1.058,1.058,0,0,1,.054-.206,18.027,18.027,0,0,0,.44-3.335Z" transform="translate(-97.147 -199.418)" fill="#ff9a6c"/>
      <path id="Path_38299" data-name="Path 38299" d="M154.7,249.611c0-.027.119,0,.272.087a1.086,1.086,0,0,1,.435.619l-.147-.1a5.175,5.175,0,0,1,.755-.071,2.884,2.884,0,0,1,1.689.348c0,.076-.766-.087-1.684-.065a3.8,3.8,0,0,0-.722.043h-.119v-.109C155.051,249.856,154.66,249.655,154.7,249.611Z" transform="translate(-97.542 -200.994)" fill="#ff9a6c"/>
      <path id="Path_38300" data-name="Path 38300" d="M157.338,247.731c.049.071-.31.369-.63.831s-.494.891-.57.874,0-.543.337-1.037S157.305,247.666,157.338,247.731Z" transform="translate(-98.189 -200.135)" fill="#ff9a6c"/>
      <path id="Path_38301" data-name="Path 38301" d="M92.9,216.21l1.331,3.579c1.445,1.369,5.051,5.231,5.736,7.887.9,3.476,4.937,12.21,4.937,12.21s9.157-3.905,9.777-3.259,3.84,8.147,2.786,9.744-10.39,5.714-14.192,4.78-7.371-6.4-7.371-6.4Z" transform="translate(-69.311 -185.739)" fill="#f8951d"/>
      <path id="Path_38302" data-name="Path 38302" d="M103.991,237.39a5.627,5.627,0,0,1,.3.815,7.6,7.6,0,0,1,.272.983,12.453,12.453,0,0,1,.272,1.32,24.063,24.063,0,0,1,.315,3.5c0,1.325,0,2.775-.119,4.3-.206,3.042-.424,5.785-.4,7.772v1.342c0,.391.033.739.054,1.016a4.7,4.7,0,0,1,.038.864,5.311,5.311,0,0,1-.147-.853c-.038-.277-.081-.619-.1-1.016s-.071-.847-.071-1.347c-.076-2,.109-4.763.315-7.794.1-1.515.152-2.96.141-4.275a27.113,27.113,0,0,0-.25-3.476C104.339,238.574,103.91,237.406,103.991,237.39Z" transform="translate(-74.373 -195.416)" fill="#263238"/>
      <path id="Path_38303" data-name="Path 38303" d="M114.651,264.862a25.056,25.056,0,0,1,.076-5.312,12.324,12.324,0,0,1,.1,2.656A12.031,12.031,0,0,1,114.651,264.862Z" transform="translate(-79.2 -205.539)" fill="#263238"/>
      <path id="Path_38304" data-name="Path 38304" d="M83.151,236.24a1.369,1.369,0,0,1,0,.32v.918c0,.836.027,1.982.043,3.378.033,2.852.185,6.795.065,11.151a6.268,6.268,0,0,0,.543,3.025,13.519,13.519,0,0,0,1.792,2.3l3.373,3.759,2.173,2.575.592.706a1.741,1.741,0,0,1,.19.255,1.709,1.709,0,0,1-.234-.217l-.63-.673-2.276-2.5-3.346-3.731a13.577,13.577,0,0,1-1.841-2.346,6.485,6.485,0,0,1-.6-3.156c.119-4.345,0-8.294,0-11.145,0-1.428,0-2.585.043-3.384,0-.4.033-.706.043-.918A1.352,1.352,0,0,1,83.151,236.24Z" transform="translate(-64.782 -194.89)" fill="#263238"/>
      <path id="Path_38305" data-name="Path 38305" d="M62.1,216.49c0,.033-.543.19-1.456.684a10.064,10.064,0,0,0-3.259,2.862,9.63,9.63,0,0,0-1.4,2.651,8.929,8.929,0,0,0-.4,1.629c-.076.57-.125,1.168-.163,1.782a31.253,31.253,0,0,0,0,3.84c.087,1.325.272,2.716.413,4.112.3,2.824.581,5.513.842,7.963a40.828,40.828,0,0,0,.956,6.436,11.249,11.249,0,0,0,1.874,3.922,9.237,9.237,0,0,0,.793.9,3.762,3.762,0,0,1,.293.293s-.033,0-.092-.054-.141-.109-.239-.2a6.83,6.83,0,0,1-.836-.864,10.787,10.787,0,0,1-1.982-3.938,38.608,38.608,0,0,1-1.027-6.463c-.266-2.45-.543-5.138-.864-7.957-.141-1.412-.32-2.786-.407-4.128a30.634,30.634,0,0,1,0-3.873c.043-.619.092-1.217.179-1.8a9.234,9.234,0,0,1,.424-1.657,9.967,9.967,0,0,1,4.829-5.535,7.605,7.605,0,0,1,1.086-.467,3.457,3.457,0,0,1,.435-.13Z" transform="translate(-52.036 -185.867)" fill="#263238"/>
      <path id="Path_38306" data-name="Path 38306" d="M82.639,219.51a2.716,2.716,0,0,1-.543-.337l-1.472-1,.152-.076v2.8l-.19-.092-3.047-1.532c-2.08-1.054-3.954-2.026-5.307-2.716l-1.629-.853a3.715,3.715,0,0,1-.543-.348,2.607,2.607,0,0,1,.619.25l1.629.777c1.374.668,3.259,1.629,5.339,2.667l3.042,1.553-.19.114c.033-.972.065-1.852.087-2.6v-.19l.152.109,1.418,1.086a2.852,2.852,0,0,1,.483.386Z" transform="translate(-58.876 -185.351)" fill="#263238"/>
      <path id="Path_38307" data-name="Path 38307" d="M87.581,441.793l-4.465,9.348s8.571,7.854,7.925,9.668L71.52,452.482,77.842,437.6Z" transform="translate(-59.543 -286.882)" fill="#263238"/>
      <path id="Path_38308" data-name="Path 38308" d="M81.613,456.3a.815.815,0,0,0-.918.619.826.826,0,0,0,.668.907.864.864,0,0,0,.972-.663.874.874,0,0,0-.8-.874" transform="translate(-63.732 -295.421)" fill="#e0e0e0"/>
      <path id="Path_38309" data-name="Path 38309" d="M71.52,463.762l.7-1.472,18.467,8.555s.712.728.364,1.266Z" transform="translate(-59.543 -298.162)" fill="#455a64"/>
      <path id="Path_38310" data-name="Path 38310" d="M91.658,462.306c-.043.092-.543-.071-1.13,0s-1.01.364-1.086.288.293-.543,1.016-.625S91.712,462.236,91.658,462.306Z" transform="translate(-67.726 -298.01)" fill="#fff"/>
      <path id="Path_38311" data-name="Path 38311" d="M95.1,465.556c0,.1-.494.076-.983.315s-.755.608-.847.543.065-.576.679-.869S95.138,465.469,95.1,465.556Z" transform="translate(-69.468 -299.581)" fill="#fff"/>
      <path id="Path_38312" data-name="Path 38312" d="M96.969,469.809c-.092,0-.033-.543.424-.913s.989-.4,1-.3-.38.239-.755.543S97.045,469.841,96.969,469.809Z" transform="translate(-71.153 -301.02)" fill="#fff"/>
    </g>
  </g>
</svg>
