<svg xmlns="http://www.w3.org/2000/svg" width="250" height="201.685" viewBox="0 0 250 201.685"><g transform="translate(-56.11 -114.172)"><g transform="translate(56.11 301.261)"><ellipse cx="125" cy="7.298" rx="125" ry="7.298" fill="#f5f5f5"/></g><g transform="translate(104.088 197.033)"><rect width="42.563" height="112.003" transform="translate(55.876 0)" fill="#f8951d"/><rect width="31.738" height="112.003" transform="translate(66.836 0)" opacity="0.5"/><rect width="42.563" height="73.811" transform="translate(111.481 38.185)" fill="#f8951d"/><rect width="31.738" height="73.992" transform="translate(122.305 38.011)" opacity="0.3"/><rect width="42.563" height="92.024" transform="translate(0 19.973)" fill="#f8951d"/><rect width="31.738" height="92.249" transform="translate(10.824 19.747)" opacity="0.4"/></g><g transform="translate(91.433 243.876)"><path d="M156.23,415.453c-.058,1.373,4.281,2.669,9.67,2.9s9.844-.7,9.9-2.069-4.281-2.663-9.67-2.895S156.288,414.087,156.23,415.453Z" transform="translate(-127.006 -350.177)" fill="#f8951d"/><rect width="2.482" height="19.612" transform="translate(29.224 65.268) rotate(-87.57)" fill="#f8951d"/><path d="M156.39,411.6c-.058,1.373,4.281,2.669,9.67,2.9s9.844-.7,9.9-2.069-4.281-2.663-9.67-2.895S156.448,410.237,156.39,411.6Z" transform="translate(-127.063 -348.809)" fill="#f8951d"/><path d="M156.39,411.6c-.058,1.373,4.281,2.669,9.67,2.9s9.844-.7,9.9-2.069-4.281-2.663-9.67-2.895S156.448,410.237,156.39,411.6Z" transform="translate(-127.063 -348.809)" fill="#fff" opacity="0.4"/><path d="M158.33,411.944a.4.4,0,0,0,.084.245c.645-.806,4.236-1.289,8.516-1.1s7.82.961,8.381,1.818a.348.348,0,0,0,.1-.239c.039-.928-3.752-1.857-8.478-2.057S158.369,411.015,158.33,411.944Z" transform="translate(-127.752 -349.188)" fill="#f8951d"/><path d="M158.33,411.944a.4.4,0,0,0,.084.245c.645-.806,4.236-1.289,8.516-1.1s7.82.961,8.381,1.818a.348.348,0,0,0,.1-.239c.039-.928-3.752-1.857-8.478-2.057S158.369,411.015,158.33,411.944Z" transform="translate(-127.752 -349.188)" fill="#f8951d" opacity="0.4"/><path d="M158.46,412.45c.587.857,4.113,1.631,8.381,1.812s7.872-.29,8.516-1.1c-.574-.857-4.1-1.631-8.381-1.818S159.118,411.644,158.46,412.45Z" transform="translate(-127.798 -349.45)" fill="#f8951d" opacity="0.4"/><path d="M153,409.623c-.058,1.373,4.281,2.669,9.67,2.9s9.844-.7,9.9-2.063-4.281-2.669-9.67-2.9S153.083,408.257,153,409.623Z" transform="translate(-125.858 -348.106)" fill="#f8951d"/><rect width="2.482" height="19.612" transform="translate(27.167 61.523) rotate(-87.57)" fill="#f8951d"/><path d="M153.2,405.78c-.058,1.367,4.281,2.663,9.67,2.895s9.844-.7,9.9-2.063-4.281-2.669-9.67-2.9S153.258,404.407,153.2,405.78Z" transform="translate(-125.929 -346.738)" fill="#f8951d"/><path d="M153.2,405.78c-.058,1.367,4.281,2.663,9.67,2.895s9.844-.7,9.9-2.063-4.281-2.669-9.67-2.9S153.258,404.407,153.2,405.78Z" transform="translate(-125.929 -346.738)" fill="#fff" opacity="0.4"/><path d="M155.14,406.113a.368.368,0,0,0,.084.245c.645-.806,4.236-1.289,8.516-1.1s7.82.954,8.381,1.812a.4.4,0,0,0,.1-.232c.039-.928-3.752-1.863-8.478-2.063S155.179,405.185,155.14,406.113Z" transform="translate(-126.619 -347.117)" fill="#f8951d"/><path d="M155.14,406.113a.368.368,0,0,0,.084.245c.645-.806,4.236-1.289,8.516-1.1s7.82.954,8.381,1.812a.4.4,0,0,0,.1-.232c.039-.928-3.752-1.863-8.478-2.063S155.179,405.185,155.14,406.113Z" transform="translate(-126.619 -347.117)" fill="#f8951d" opacity="0.4"/><path d="M155.27,406.625c.58.857,4.113,1.631,8.381,1.812s7.872-.29,8.516-1.1c-.574-.857-4.1-1.631-8.381-1.812S155.921,405.819,155.27,406.625Z" transform="translate(-126.665 -347.383)" fill="#f8951d" opacity="0.4"/><path d="M153.45,402.6c-.058,1.373,4.281,2.669,9.67,2.9s9.844-.7,9.9-2.069-4.281-2.663-9.67-2.895S153.508,401.237,153.45,402.6Z" transform="translate(-126.018 -345.612)" fill="#f8951d"/><rect width="2.482" height="19.612" transform="translate(27.434 56.992) rotate(-87.57)" fill="#f8951d"/><path d="M153.61,398.753c-.058,1.373,4.281,2.669,9.67,2.9s9.838-.7,9.9-2.063-4.281-2.669-9.67-2.9S153.668,397.387,153.61,398.753Z" transform="translate(-126.075 -344.244)" fill="#f8951d"/><path d="M153.61,398.753c-.058,1.373,4.281,2.669,9.67,2.9s9.838-.7,9.9-2.063-4.281-2.669-9.67-2.9S153.668,397.387,153.61,398.753Z" transform="translate(-126.075 -344.244)" fill="#fff" opacity="0.4"/><path d="M155.55,399.094a.4.4,0,0,0,.084.245c.645-.806,4.236-1.289,8.516-1.1s7.82.954,8.381,1.812a.335.335,0,0,0,.1-.232c.039-.928-3.752-1.863-8.478-2.063S155.589,398.165,155.55,399.094Z" transform="translate(-126.764 -344.622)" fill="#f8951d"/><path d="M155.55,399.094a.4.4,0,0,0,.084.245c.645-.806,4.236-1.289,8.516-1.1s7.82.954,8.381,1.812a.335.335,0,0,0,.1-.232c.039-.928-3.752-1.863-8.478-2.063S155.589,398.165,155.55,399.094Z" transform="translate(-126.764 -344.622)" fill="#f8951d" opacity="0.4"/><path d="M155.68,399.605c.587.857,4.113,1.631,8.381,1.812s7.872-.29,8.516-1.1c-.574-.857-4.1-1.631-8.381-1.812S156.338,398.812,155.68,399.605Z" transform="translate(-126.811 -344.889)" fill="#f8951d" opacity="0.4"/><path d="M150.26,396.78c-.058,1.367,4.281,2.663,9.67,2.895s9.844-.7,9.9-2.063-4.281-2.669-9.67-2.9S150.318,395.407,150.26,396.78Z" transform="translate(-124.885 -343.54)" fill="#f8951d"/><rect width="2.482" height="19.612" transform="translate(25.371 53.221) rotate(-87.57)" fill="#f8951d"/><path d="M150.42,392.93c-.058,1.367,4.281,2.663,9.67,2.895s9.844-.7,9.9-2.063-4.281-2.669-9.67-2.9S150.478,391.583,150.42,392.93Z" transform="translate(-124.941 -342.173)" fill="#f8951d"/><path d="M150.42,392.93c-.058,1.367,4.281,2.663,9.67,2.895s9.844-.7,9.9-2.063-4.281-2.669-9.67-2.9S150.478,391.583,150.42,392.93Z" transform="translate(-124.941 -342.173)" fill="#fff" opacity="0.4"/><path d="M152.36,393.244a.355.355,0,0,0,.084.245c.645-.806,4.236-1.289,8.516-1.1s7.82.954,8.381,1.812a.4.4,0,0,0,.1-.232c.039-.928-3.752-1.863-8.478-2.063S152.4,392.328,152.36,393.244Z" transform="translate(-125.631 -342.544)" fill="#f8951d"/><path d="M152.36,393.244a.355.355,0,0,0,.084.245c.645-.806,4.236-1.289,8.516-1.1s7.82.954,8.381,1.812a.4.4,0,0,0,.1-.232c.039-.928-3.752-1.863-8.478-2.063S152.4,392.328,152.36,393.244Z" transform="translate(-125.631 -342.544)" fill="#f8951d" opacity="0.4"/><path d="M152.49,393.775c.58.857,4.113,1.631,8.381,1.812s7.872-.29,8.516-1.1c-.574-.857-4.1-1.631-8.381-1.812S153.141,392.969,152.49,393.775Z" transform="translate(-125.677 -342.817)" fill="#f8951d" opacity="0.4"/><path d="M155.13,391.84c-.058,1.367,4.281,2.663,9.67,2.895s9.844-.7,9.9-2.063-4.281-2.669-9.67-2.9S155.188,390.467,155.13,391.84Z" transform="translate(-126.615 -341.785)" fill="#f8951d"/><rect width="2.482" height="19.612" transform="translate(28.518 50.052) rotate(-87.57)" fill="#f8951d"/><path d="M155.3,387.99c-.058,1.367,4.281,2.663,9.67,2.895s9.844-.7,9.9-2.063-4.281-2.669-9.67-2.9S155.358,386.6,155.3,387.99Z" transform="translate(-126.675 -340.417)" fill="#f8951d"/><path d="M155.3,387.99c-.058,1.367,4.281,2.663,9.67,2.895s9.844-.7,9.9-2.063-4.281-2.669-9.67-2.9S155.358,386.6,155.3,387.99Z" transform="translate(-126.675 -340.417)" fill="#fff" opacity="0.4"/><path d="M157.23,388.323a.432.432,0,0,0,.084.245c.645-.806,4.242-1.289,8.516-1.1s7.827.954,8.381,1.812a.374.374,0,0,0,.11-.232c.039-.928-3.752-1.863-8.478-2.063S157.275,387.4,157.23,388.323Z" transform="translate(-127.361 -340.796)" fill="#f8951d"/><path d="M157.23,388.323a.432.432,0,0,0,.084.245c.645-.806,4.242-1.289,8.516-1.1s7.827.954,8.381,1.812a.374.374,0,0,0,.11-.232c.039-.928-3.752-1.863-8.478-2.063S157.275,387.4,157.23,388.323Z" transform="translate(-127.361 -340.796)" fill="#f8951d" opacity="0.4"/><path d="M157.36,388.835c.587.857,4.113,1.631,8.381,1.812s7.878-.29,8.516-1.1c-.567-.857-4.1-1.631-8.381-1.812S158.018,388.029,157.36,388.835Z" transform="translate(-127.408 -341.062)" fill="#f8951d" opacity="0.4"/><path d="M151.94,386.009c-.058,1.367,4.281,2.669,9.67,2.895s9.844-.7,9.9-2.063-4.281-2.669-9.67-2.9S151.978,384.61,151.94,386.009Z" transform="translate(-125.482 -339.713)" fill="#f8951d"/><rect width="2.482" height="19.612" transform="translate(26.455 46.287) rotate(-87.57)" fill="#f8951d"/><path d="M152.1,382.16c-.058,1.367,4.281,2.669,9.67,2.895s9.844-.69,9.9-2.063-4.281-2.669-9.67-2.9S152.158,380.787,152.1,382.16Z" transform="translate(-125.538 -338.346)" fill="#f8951d"/><path d="M152.1,382.16c-.058,1.367,4.281,2.669,9.67,2.895s9.844-.69,9.9-2.063-4.281-2.669-9.67-2.9S152.158,380.787,152.1,382.16Z" transform="translate(-125.538 -338.346)" fill="#fff" opacity="0.4"/><path d="M154,382.492a.374.374,0,0,0,.084.245c.645-.806,4.236-1.289,8.516-1.1s7.82.954,8.381,1.818a.361.361,0,0,0,.1-.239c.039-.928-3.752-1.857-8.478-2.063S154.064,381.564,154,382.492Z" transform="translate(-126.214 -338.723)" fill="#f8951d"/><path d="M154,382.492a.374.374,0,0,0,.084.245c.645-.806,4.236-1.289,8.516-1.1s7.82.954,8.381,1.818a.361.361,0,0,0,.1-.239c.039-.928-3.752-1.857-8.478-2.063S154.064,381.564,154,382.492Z" transform="translate(-126.214 -338.723)" fill="#f8951d" opacity="0.4"/><path d="M154.17,383c.587.857,4.113,1.631,8.381,1.818s7.872-.29,8.516-1.1c-.574-.864-4.1-1.638-8.381-1.818S154.828,382.2,154.17,383Z" transform="translate(-126.274 -338.991)" fill="#f8951d" opacity="0.4"/><path d="M110.91,413.594c-.064,1.373,4.274,2.669,9.67,2.895s9.838-.69,9.9-2.063-4.274-2.669-9.67-2.895S110.968,412.221,110.91,413.594Z" transform="translate(-110.903 -349.517)" fill="#f8951d"/><rect width="2.482" height="19.612" transform="translate(0 64.063) rotate(-87.57)" fill="#f8951d"/><path d="M111.07,409.744c-.058,1.373,4.281,2.669,9.67,2.9s9.844-.7,9.9-2.069-4.281-2.669-9.67-2.895S111.128,408.371,111.07,409.744Z" transform="translate(-110.96 -348.149)" fill="#f8951d"/><path d="M111.07,409.744c-.058,1.373,4.281,2.669,9.67,2.9s9.844-.7,9.9-2.069-4.281-2.669-9.67-2.895S111.128,408.371,111.07,409.744Z" transform="translate(-110.96 -348.149)" fill="#fff" opacity="0.4"/><path d="M113,410.077a.342.342,0,0,0,.084.245c.645-.806,4.236-1.289,8.516-1.1s7.82.961,8.381,1.818a.419.419,0,0,0,.1-.239c.039-.928-3.752-1.857-8.478-2.057S113.045,409.149,113,410.077Z" transform="translate(-111.646 -348.527)" fill="#f8951d"/><path d="M113,410.077a.342.342,0,0,0,.084.245c.645-.806,4.236-1.289,8.516-1.1s7.82.961,8.381,1.818a.419.419,0,0,0,.1-.239c.039-.928-3.752-1.857-8.478-2.057S113.045,409.149,113,410.077Z" transform="translate(-111.646 -348.527)" fill="#f8951d" opacity="0.4"/><path d="M113.14,410.586c.58.857,4.113,1.638,8.381,1.818s7.872-.29,8.516-1.1c-.574-.857-4.1-1.638-8.381-1.818S113.791,409.805,113.14,410.586Z" transform="translate(-111.696 -348.791)" fill="#f8951d" opacity="0.4"/><path d="M124.12,410.424c-.322,1.335,3.694,3.43,8.961,4.68s9.8,1.186,10.115-.148-3.7-3.43-8.968-4.68S124.436,409.089,124.12,410.424Z" transform="translate(-115.591 -348.765)" fill="#f8951d"/><rect width="2.482" height="19.612" transform="matrix(0.231, -0.973, 0.973, 0.231, 8.528, 61.672)" fill="#f8951d"/><path d="M124.99,406.662c-.322,1.335,3.694,3.43,8.961,4.687s9.8,1.186,10.115-.148-3.681-3.41-8.955-4.7S125.319,405.327,124.99,406.662Z" transform="translate(-115.9 -347.42)" fill="#f8951d"/><path d="M124.99,406.662c-.322,1.335,3.694,3.43,8.961,4.687s9.8,1.186,10.115-.148-3.681-3.41-8.955-4.7S125.319,405.327,124.99,406.662Z" transform="translate(-115.9 -347.42)" fill="#fff" opacity="0.4"/><path d="M126.925,407.222a.368.368,0,0,0,.039.258c.793-.645,4.4-.451,8.568.542s7.5,2.424,7.9,3.372a.38.38,0,0,0,.148-.213c.213-.9-3.333-2.534-7.936-3.63S127.145,406.319,126.925,407.222Z" transform="translate(-116.591 -347.787)" fill="#f8951d"/><path d="M126.925,407.222a.368.368,0,0,0,.039.258c.793-.645,4.4-.451,8.568.542s7.5,2.424,7.9,3.372a.38.38,0,0,0,.148-.213c.213-.9-3.333-2.534-7.936-3.63S127.145,406.319,126.925,407.222Z" transform="translate(-116.591 -347.787)" fill="#f8951d" opacity="0.4"/><path d="M127,407.78c.413.954,3.726,2.385,7.9,3.372s7.781,1.212,8.568.542c-.4-.948-3.72-2.379-7.9-3.372S127.787,407.077,127,407.78Z" transform="translate(-116.621 -348.055)" fill="#f8951d" opacity="0.4"/><circle cx="8.832" cy="8.832" r="8.832" transform="translate(24.563 27.813)" fill="#f8951d"/><circle cx="8.832" cy="8.832" r="8.832" transform="translate(25.62 27.813)" fill="#f8951d"/><circle cx="8.832" cy="8.832" r="8.832" transform="translate(25.62 27.813)" fill="#fff" opacity="0.5"/><circle cx="6.615" cy="6.615" r="6.615" transform="translate(25.1 36.645) rotate(-45)" fill="#f8951d"/><path d="M164.5,372.3a2.753,2.753,0,0,1-2.069.838,2.875,2.875,0,0,1-2.759-1.8h3.559v-.761h-3.752a3.143,3.143,0,0,1,0-.348,3.06,3.06,0,0,1,0-.348h3.746v-.761h-3.552a2.875,2.875,0,0,1,2.766-1.8,2.753,2.753,0,0,1,2.069.832l.1.1.716-.7-.1-.1a3.739,3.739,0,0,0-2.83-1.122,3.868,3.868,0,0,0-3.868,2.792h-1.257v.761h1.109v.7H157.26v.761h1.257a3.868,3.868,0,0,0,3.868,2.792,3.746,3.746,0,0,0,2.83-1.135l.1-.1-.716-.7Z" transform="translate(-127.372 -333.467)" fill="#fff" opacity="0.3"/><path d="M345.469,416.913c-.052,1.367-4.474,2.321-9.89,2.127s-9.754-1.463-9.709-2.83,4.481-2.327,9.89-2.134S345.52,415.54,345.469,416.913Z" transform="translate(-187.28 -350.425)" fill="#f8951d"/><rect width="2.482" height="19.612" transform="matrix(0.036, -0.999, 0.999, 0.036, 138.582, 65.762)" fill="#f8951d"/><path d="M345.609,413.063c-.052,1.367-4.474,2.321-9.89,2.128s-9.754-1.463-9.709-2.83,4.474-2.327,9.89-2.134S345.66,411.69,345.609,413.063Z" transform="translate(-187.33 -349.057)" fill="#f8951d"/><path d="M345.609,413.063c-.052,1.367-4.474,2.321-9.89,2.128s-9.754-1.463-9.709-2.83,4.474-2.327,9.89-2.134S345.66,411.69,345.609,413.063Z" transform="translate(-187.33 -349.057)" fill="#fff" opacity="0.4"/><path d="M345.064,413.3a.361.361,0,0,1-.1.239c-.587-.857-4.12-1.612-8.381-1.76s-7.872.342-8.51,1.148a.38.38,0,0,1-.09-.239c.039-.928,3.868-1.56,8.613-1.393S345.1,412.385,345.064,413.3Z" transform="translate(-188.03 -349.436)" fill="#f8951d"/><path d="M345.064,413.3a.361.361,0,0,1-.1.239c-.587-.857-4.12-1.612-8.381-1.76s-7.872.342-8.51,1.148a.38.38,0,0,1-.09-.239c.039-.928,3.868-1.56,8.613-1.393S345.1,412.385,345.064,413.3Z" transform="translate(-188.03 -349.436)" fill="#f8951d" opacity="0.4"/><path d="M345.011,413.806c-.645.806-4.229,1.289-8.51,1.148s-7.827-.9-8.381-1.76c.645-.806,4.216-1.289,8.51-1.148S344.424,412.949,345.011,413.806Z" transform="translate(-188.079 -349.704)" fill="#f8951d" opacity="0.4"/><path d="M349.109,411.353c-.052,1.367-4.474,2.321-9.89,2.128s-9.754-1.463-9.709-2.837,4.481-2.321,9.89-2.128S349.167,409.98,349.109,411.353Z" transform="translate(-188.573 -348.449)" fill="#f8951d"/><rect width="2.482" height="19.612" transform="matrix(0.036, -0.999, 0.999, 0.036, 140.949, 62.215)" fill="#f8951d"/><path d="M349.248,407.5c-.052,1.367-4.474,2.321-9.89,2.127s-9.761-1.463-9.709-2.837,4.474-2.321,9.89-2.128S349.294,406.162,349.248,407.5Z" transform="translate(-188.623 -347.081)" fill="#f8951d"/><path d="M349.248,407.5c-.052,1.367-4.474,2.321-9.89,2.127s-9.761-1.463-9.709-2.837,4.474-2.321,9.89-2.128S349.294,406.162,349.248,407.5Z" transform="translate(-188.623 -347.081)" fill="#fff" opacity="0.4"/><path d="M348.7,407.74a.335.335,0,0,1-.1.232c-.587-.851-4.12-1.605-8.381-1.754s-7.878.342-8.51,1.148a.38.38,0,0,1-.09-.239c.039-.928,3.868-1.56,8.613-1.393S348.737,406.812,348.7,407.74Z" transform="translate(-189.323 -347.46)" fill="#f8951d"/><path d="M348.7,407.74a.335.335,0,0,1-.1.232c-.587-.851-4.12-1.605-8.381-1.754s-7.878.342-8.51,1.148a.38.38,0,0,1-.09-.239c.039-.928,3.868-1.56,8.613-1.393S348.737,406.812,348.7,407.74Z" transform="translate(-189.323 -347.46)" fill="#f8951d" opacity="0.4"/><path d="M348.691,408.24c-.645.812-4.229,1.289-8.51,1.154s-7.827-.9-8.381-1.76c.645-.806,4.216-1.289,8.51-1.148S348.079,407.389,348.691,408.24Z" transform="translate(-189.387 -347.728)" fill="#f8951d" opacity="0.4"/><path d="M349.248,404.316c-.052,1.373-4.481,2.327-9.89,2.134s-9.761-1.463-9.709-2.837,4.474-2.321,9.89-2.128S349.294,402.95,349.248,404.316Z" transform="translate(-188.623 -345.951)" fill="#f8951d"/><rect width="2.482" height="19.612" transform="matrix(0.036, -0.999, 0.999, 0.036, 141.032, 57.681)" fill="#f8951d"/><path d="M349.388,400.426c-.052,1.373-4.481,2.327-9.89,2.134s-9.761-1.463-9.709-2.837,4.474-2.321,9.883-2.128S349.434,399.085,349.388,400.426Z" transform="translate(-188.673 -344.569)" fill="#f8951d"/><path d="M349.388,400.426c-.052,1.373-4.481,2.327-9.89,2.134s-9.761-1.463-9.709-2.837,4.474-2.321,9.883-2.128S349.434,399.085,349.388,400.426Z" transform="translate(-188.673 -344.569)" fill="#fff" opacity="0.4"/><path d="M348.848,400.71a.4.4,0,0,1-.1.232c-.593-.851-4.126-1.605-8.381-1.76s-7.872.342-8.51,1.154a.374.374,0,0,1-.084-.245c0-.928,3.868-1.554,8.613-1.386S348.88,399.782,348.848,400.71Z" transform="translate(-189.376 -344.962)" fill="#f8951d"/><path d="M348.848,400.71a.4.4,0,0,1-.1.232c-.593-.851-4.126-1.605-8.381-1.76s-7.872.342-8.51,1.154a.374.374,0,0,1-.084-.245c0-.928,3.868-1.554,8.613-1.386S348.88,399.782,348.848,400.71Z" transform="translate(-189.376 -344.962)" fill="#f8951d" opacity="0.4"/><path d="M348.791,401.207c-.645.812-4.229,1.289-8.51,1.154s-7.827-.9-8.381-1.76c.645-.812,4.216-1.289,8.51-1.154S348.2,400.356,348.791,401.207Z" transform="translate(-189.422 -345.228)" fill="#f8951d" opacity="0.4"/><path d="M352.888,398.756c-.052,1.373-4.481,2.327-9.89,2.134s-9.761-1.463-9.709-2.837,4.474-2.321,9.89-2.127S352.934,397.39,352.888,398.756Z" transform="translate(-189.916 -343.976)" fill="#f8951d"/><rect width="2.482" height="19.612" transform="matrix(0.036, -0.999, 0.999, 0.036, 143.357, 54.064)" fill="#f8951d"/><path d="M353.022,394.906c-.045,1.373-4.474,2.327-9.883,2.134s-9.761-1.463-9.709-2.837,4.474-2.321,9.883-2.128S353.074,393.54,353.022,394.906Z" transform="translate(-189.966 -342.608)" fill="#f8951d"/><path d="M353.022,394.906c-.045,1.373-4.474,2.327-9.883,2.134s-9.761-1.463-9.709-2.837,4.474-2.321,9.883-2.128S353.074,393.54,353.022,394.906Z" transform="translate(-189.966 -342.608)" fill="#fff" opacity="0.4"/><path d="M352.488,395.15a.4.4,0,0,1-.1.232c-.593-.851-4.126-1.605-8.381-1.76s-7.872.342-8.51,1.154a.374.374,0,0,1-.084-.245c.032-.928,3.868-1.554,8.613-1.386S352.552,394.222,352.488,395.15Z" transform="translate(-190.669 -342.987)" fill="#f8951d"/><path d="M352.488,395.15a.4.4,0,0,1-.1.232c-.593-.851-4.126-1.605-8.381-1.76s-7.872.342-8.51,1.154a.374.374,0,0,1-.084-.245c.032-.928,3.868-1.554,8.613-1.386S352.552,394.222,352.488,395.15Z" transform="translate(-190.669 -342.987)" fill="#f8951d" opacity="0.4"/><path d="M352.431,395.647c-.645.812-4.229,1.289-8.51,1.154s-7.827-.9-8.381-1.76c.645-.812,4.216-1.289,8.51-1.154S351.838,394.8,352.431,395.647Z" transform="translate(-190.716 -343.252)" fill="#f8951d" opacity="0.4"/><path d="M243,413.054c-.058,1.373,4.274,2.669,9.67,2.9s9.838-.7,9.9-2.069-4.274-2.669-9.67-2.895S243.038,411.688,243,413.054Z" transform="translate(-157.836 -349.325)" fill="#f8951d"/><rect width="2.482" height="19.612" transform="translate(85.132 63.719) rotate(-87.57)" fill="#f8951d"/><path d="M243.13,409.2c-.058,1.373,4.281,2.669,9.67,2.9s9.845-.7,9.9-2.069-4.281-2.669-9.67-2.895S243.188,407.838,243.13,409.2Z" transform="translate(-157.882 -347.958)" fill="#f8951d"/><path d="M243.13,409.2c-.058,1.373,4.281,2.669,9.67,2.9s9.845-.7,9.9-2.069-4.281-2.669-9.67-2.895S243.188,407.838,243.13,409.2Z" transform="translate(-157.882 -347.958)" fill="#fff" opacity="0.4"/><path d="M245.07,409.543a.342.342,0,0,0,.084.239c.645-.806,4.236-1.289,8.516-1.1s7.82.961,8.381,1.818a.419.419,0,0,0,.1-.239c.039-.928-3.752-1.857-8.478-2.057S245.109,408.615,245.07,409.543Z" transform="translate(-158.571 -348.335)" fill="#f8951d"/><path d="M245.07,409.543a.342.342,0,0,0,.084.239c.645-.806,4.236-1.289,8.516-1.1s7.82.961,8.381,1.818a.419.419,0,0,0,.1-.239c.039-.928-3.752-1.857-8.478-2.057S245.109,408.615,245.07,409.543Z" transform="translate(-158.571 -348.335)" fill="#f8951d" opacity="0.4"/><path d="M245.2,410.044c.58.864,4.113,1.638,8.381,1.818s7.872-.29,8.516-1.1c-.574-.857-4.1-1.631-8.381-1.818S245.851,409.238,245.2,410.044Z" transform="translate(-158.618 -348.597)" fill="#f8951d" opacity="0.4"/><path d="M239.77,407.224c-.058,1.373,4.281,2.669,9.67,2.9s9.844-.7,9.9-2.069-4.281-2.669-9.67-2.895S239.828,405.858,239.77,407.224Z" transform="translate(-156.688 -347.254)" fill="#f8951d"/><rect width="2.482" height="19.612" transform="translate(83.082 59.979) rotate(-87.57)" fill="#f8951d"/><path d="M239.94,403.373c-.058,1.373,4.281,2.669,9.67,2.9s9.845-.7,9.9-2.069-4.281-2.663-9.67-2.895S239.978,402.007,239.94,403.373Z" transform="translate(-156.748 -345.885)" fill="#f8951d"/><path d="M239.94,403.373c-.058,1.373,4.281,2.669,9.67,2.9s9.845-.7,9.9-2.069-4.281-2.663-9.67-2.895S239.978,402.007,239.94,403.373Z" transform="translate(-156.748 -345.885)" fill="#fff" opacity="0.4"/><path d="M241.87,403.713a.451.451,0,0,0,.084.245c.645-.806,4.242-1.289,8.516-1.1s7.827.961,8.381,1.818a.387.387,0,0,0,.11-.239c.039-.928-3.752-1.857-8.478-2.057S241.915,402.765,241.87,403.713Z" transform="translate(-157.434 -346.264)" fill="#f8951d"/><path d="M241.87,403.713a.451.451,0,0,0,.084.245c.645-.806,4.242-1.289,8.516-1.1s7.827.961,8.381,1.818a.387.387,0,0,0,.11-.239c.039-.928-3.752-1.857-8.478-2.057S241.915,402.765,241.87,403.713Z" transform="translate(-157.434 -346.264)" fill="#f8951d" opacity="0.4"/><path d="M242,404.22c.587.857,4.113,1.631,8.381,1.812s7.878-.29,8.516-1.1c-.567-.857-4.1-1.631-8.381-1.818S242.645,403.414,242,404.22Z" transform="translate(-157.481 -346.526)" fill="#f8951d" opacity="0.4"/><path d="M240.19,400.2c-.058,1.373,4.281,2.669,9.67,2.9s9.844-.7,9.9-2.069-4.281-2.669-9.67-2.895S240.248,398.838,240.19,400.2Z" transform="translate(-156.837 -344.76)" fill="#f8951d"/><rect width="2.482" height="19.612" transform="translate(83.348 55.442) rotate(-87.57)" fill="#f8951d"/><path d="M240.35,396.354c-.058,1.373,4.281,2.669,9.67,2.9s9.845-.7,9.9-2.069-4.281-2.669-9.67-2.895S240.408,394.988,240.35,396.354Z" transform="translate(-156.894 -343.392)" fill="#f8951d"/><path d="M240.35,396.354c-.058,1.373,4.281,2.669,9.67,2.9s9.845-.7,9.9-2.069-4.281-2.669-9.67-2.895S240.408,394.988,240.35,396.354Z" transform="translate(-156.894 -343.392)" fill="#fff" opacity="0.4"/><path d="M242.29,396.693a.342.342,0,0,0,.084.239c.645-.8,4.236-1.289,8.516-1.1s7.82.961,8.381,1.818a.419.419,0,0,0,.1-.239c.039-.928-3.752-1.857-8.478-2.057S242.329,395.759,242.29,396.693Z" transform="translate(-157.583 -343.77)" fill="#f8951d"/><path d="M242.29,396.693a.342.342,0,0,0,.084.239c.645-.8,4.236-1.289,8.516-1.1s7.82.961,8.381,1.818a.419.419,0,0,0,.1-.239c.039-.928-3.752-1.857-8.478-2.057S242.329,395.759,242.29,396.693Z" transform="translate(-157.583 -343.77)" fill="#f8951d" opacity="0.4"/><path d="M242.42,397.194c.58.864,4.113,1.638,8.381,1.818s7.872-.29,8.516-1.1c-.574-.857-4.1-1.631-8.381-1.818S243.071,396.394,242.42,397.194Z" transform="translate(-157.63 -344.032)" fill="#f8951d" opacity="0.4"/><path d="M237,394.373c-.058,1.373,4.281,2.669,9.67,2.9s9.844-.7,9.9-2.069-4.281-2.663-9.67-2.895S237.051,393.007,237,394.373Z" transform="translate(-155.704 -342.688)" fill="#f8951d"/><rect width="2.482" height="19.612" transform="translate(81.285 51.678) rotate(-87.57)" fill="#f8951d"/><path d="M237.16,390.523c-.058,1.373,4.281,2.669,9.67,2.9s9.845-.7,9.9-2.069-4.281-2.663-9.67-2.895S237.218,389.157,237.16,390.523Z" transform="translate(-155.761 -341.32)" fill="#f8951d"/><path d="M237.16,390.523c-.058,1.373,4.281,2.669,9.67,2.9s9.845-.7,9.9-2.069-4.281-2.663-9.67-2.895S237.218,389.157,237.16,390.523Z" transform="translate(-155.761 -341.32)" fill="#fff" opacity="0.4"/><path d="M239.1,390.863a.393.393,0,0,0,.077.245c.645-.806,4.242-1.289,8.523-1.1s7.82.954,8.381,1.812a.4.4,0,0,0,.1-.239c.039-.922-3.752-1.857-8.478-2.057S239.139,389.935,239.1,390.863Z" transform="translate(-156.45 -341.698)" fill="#f8951d"/><path d="M239.1,390.863a.393.393,0,0,0,.077.245c.645-.806,4.242-1.289,8.523-1.1s7.82.954,8.381,1.812a.4.4,0,0,0,.1-.239c.039-.922-3.752-1.857-8.478-2.057S239.139,389.935,239.1,390.863Z" transform="translate(-156.45 -341.698)" fill="#f8951d" opacity="0.4"/><path d="M239.22,391.375c.587.857,4.113,1.631,8.381,1.812s7.878-.29,8.523-1.1c-.574-.857-4.107-1.631-8.381-1.812S239.878,390.569,239.22,391.375Z" transform="translate(-156.493 -341.965)" fill="#f8951d" opacity="0.4"/><path d="M241.87,389.433c-.058,1.373,4.281,2.669,9.67,2.9s9.844-.7,9.9-2.069-4.281-2.663-9.67-2.895S241.953,388.067,241.87,389.433Z" transform="translate(-157.434 -340.932)" fill="#f8951d"/><rect width="2.482" height="19.612" transform="translate(84.439 48.502) rotate(-87.57)" fill="#f8951d"/><path d="M242,385.583c-.058,1.373,4.281,2.669,9.67,2.9s9.844-.7,9.9-2.069-4.281-2.663-9.67-2.895S242.077,384.217,242,385.583Z" transform="translate(-157.48 -339.564)" fill="#f8951d"/><path d="M242,385.583c-.058,1.373,4.281,2.669,9.67,2.9s9.844-.7,9.9-2.069-4.281-2.663-9.67-2.895S242.077,384.217,242,385.583Z" transform="translate(-157.48 -339.564)" fill="#fff" opacity="0.4"/><path d="M244,385.923a.4.4,0,0,0,.084.245c.645-.806,4.236-1.289,8.516-1.1s7.82.954,8.381,1.812a.335.335,0,0,0,.1-.239c.039-.922-3.752-1.857-8.478-2.057S244,385,244,385.923Z" transform="translate(-158.191 -339.943)" fill="#f8951d"/><path d="M244,385.923a.4.4,0,0,0,.084.245c.645-.806,4.236-1.289,8.516-1.1s7.82.954,8.381,1.812a.335.335,0,0,0,.1-.239c.039-.922-3.752-1.857-8.478-2.057S244,385,244,385.923Z" transform="translate(-158.191 -339.943)" fill="#f8951d" opacity="0.4"/><path d="M244.1,386.435c.587.857,4.113,1.631,8.381,1.812s7.872-.29,8.516-1.1c-.574-.857-4.1-1.631-8.381-1.812S244.758,385.629,244.1,386.435Z" transform="translate(-158.227 -340.209)" fill="#f8951d" opacity="0.4"/><path d="M238.68,383.61c-.058,1.367,4.281,2.663,9.67,2.895s9.838-.7,9.9-2.063-4.281-2.669-9.67-2.9S238.738,382.237,238.68,383.61Z" transform="translate(-156.301 -338.861)" fill="#f8951d"/><rect width="2.482" height="19.612" transform="translate(82.369 44.737) rotate(-87.57)" fill="#f8951d"/><path d="M238.84,379.76c-.058,1.367,4.281,2.663,9.67,2.895s9.845-.7,9.9-2.063-4.281-2.669-9.67-2.9S238.9,378.387,238.84,379.76Z" transform="translate(-156.357 -337.493)" fill="#f8951d"/><path d="M238.84,379.76c-.058,1.367,4.281,2.663,9.67,2.895s9.845-.7,9.9-2.063-4.281-2.669-9.67-2.9S238.9,378.387,238.84,379.76Z" transform="translate(-156.357 -337.493)" fill="#fff" opacity="0.4"/><path d="M240.78,380.094a.355.355,0,0,0,.084.245c.645-.806,4.236-1.289,8.516-1.1s7.82.954,8.381,1.812a.4.4,0,0,0,.1-.232c.039-.928-3.752-1.863-8.478-2.063S240.818,379.165,240.78,380.094Z" transform="translate(-157.047 -337.872)" fill="#f8951d"/><path d="M240.78,380.094a.355.355,0,0,0,.084.245c.645-.806,4.236-1.289,8.516-1.1s7.82.954,8.381,1.812a.4.4,0,0,0,.1-.232c.039-.928-3.752-1.863-8.478-2.063S240.818,379.165,240.78,380.094Z" transform="translate(-157.047 -337.872)" fill="#f8951d" opacity="0.4"/><path d="M240.91,380.605c.58.857,4.113,1.631,8.381,1.812s7.872-.29,8.516-1.1c-.574-.857-4.1-1.631-8.381-1.812S241.561,379.812,240.91,380.605Z" transform="translate(-157.093 -338.138)" fill="#f8951d" opacity="0.4"/><path d="M261.452,379.47c.058,1.367-4.281,2.669-9.67,2.895s-9.832-.722-9.922-2.063,4.274-2.669,9.67-2.9S261.387,378.1,261.452,379.47Z" transform="translate(-157.43 -337.39)" fill="#f8951d"/><rect width="19.612" height="2.482" transform="matrix(1, -0.04, 0.04, 1, 83.866, 41.029)" fill="#f8951d"/><path d="M261.293,375.62c.058,1.367-4.281,2.669-9.67,2.895s-9.844-.69-9.9-2.063,4.281-2.669,9.67-2.9S261.241,374.247,261.293,375.62Z" transform="translate(-157.381 -336.022)" fill="#f8951d"/><path d="M261.293,375.62c.058,1.367-4.281,2.669-9.67,2.895s-9.844-.69-9.9-2.063,4.281-2.669,9.67-2.9S261.241,374.247,261.293,375.62Z" transform="translate(-157.381 -336.022)" fill="#fff" opacity="0.4"/><path d="M260.724,375.957a.342.342,0,0,1-.084.245c-.645-.806-4.236-1.289-8.516-1.1s-7.82.954-8.381,1.818a.439.439,0,0,1-.1-.239c-.039-.928,3.752-1.857,8.478-2.057S260.686,375.029,260.724,375.957Z" transform="translate(-158.063 -336.404)" fill="#f8951d"/><path d="M260.724,375.957a.342.342,0,0,1-.084.245c-.645-.806-4.236-1.289-8.516-1.1s-7.82.954-8.381,1.818a.439.439,0,0,1-.1-.239c-.039-.928,3.752-1.857,8.478-2.057S260.686,375.029,260.724,375.957Z" transform="translate(-158.063 -336.404)" fill="#f8951d" opacity="0.4"/><path d="M260.687,376.465c-.58.857-4.113,1.631-8.381,1.818s-7.872-.29-8.516-1.1c.574-.864,4.1-1.638,8.381-1.818S260.043,375.659,260.687,376.465Z" transform="translate(-158.117 -336.667)" fill="#f8951d" opacity="0.4"/><path d="M264.653,373.644c.058,1.373-4.281,2.669-9.67,2.895s-9.845-.69-9.9-2.063,4.281-2.669,9.67-2.895S264.595,372.271,264.653,373.644Z" transform="translate(-158.575 -335.323)" fill="#f8951d"/><rect width="19.612" height="2.482" transform="translate(86.379 36.664) rotate(-2.43)" fill="#f8951d"/><path d="M264.486,369.844c.058,1.373-4.274,2.669-9.67,2.9s-9.838-.7-9.9-2.069,4.274-2.669,9.67-2.895S264.428,368.438,264.486,369.844Z" transform="translate(-158.518 -333.972)" fill="#f8951d"/><path d="M264.486,369.844c.058,1.373-4.274,2.669-9.67,2.9s-9.838-.7-9.9-2.069,4.274-2.669,9.67-2.895S264.428,368.438,264.486,369.844Z" transform="translate(-158.518 -333.972)" fill="#fff" opacity="0.4"/><path d="M263.924,370.127a.419.419,0,0,1-.084.245c-.645-.806-4.242-1.289-8.516-1.1s-7.827.961-8.381,1.818a.348.348,0,0,1-.1-.239c-.045-.928,3.752-1.857,8.471-2.057S263.879,369.2,263.924,370.127Z" transform="translate(-159.2 -334.333)" fill="#f8951d"/><path d="M263.924,370.127a.419.419,0,0,1-.084.245c-.645-.806-4.242-1.289-8.516-1.1s-7.827.961-8.381,1.818a.348.348,0,0,1-.1-.239c-.045-.928,3.752-1.857,8.471-2.057S263.879,369.2,263.924,370.127Z" transform="translate(-159.2 -334.333)" fill="#f8951d" opacity="0.4"/><path d="M263.9,370.635c-.587.857-4.113,1.638-8.381,1.818s-7.878-.29-8.516-1.1c.567-.857,4.1-1.638,8.381-1.818S263.24,369.822,263.9,370.635Z" transform="translate(-159.257 -334.595)" fill="#f8951d" opacity="0.4"/><path d="M264.216,366.62c.058,1.367-4.274,2.669-9.67,2.895s-9.838-.69-9.9-2.063,4.274-2.669,9.67-2.9S264.171,365.247,264.216,366.62Z" transform="translate(-158.422 -332.824)" fill="#f8951d"/><rect width="19.612" height="2.482" transform="translate(86.11 32.147) rotate(-2.43)" fill="#f8951d"/><path d="M264.073,362.774c.058,1.373-4.281,2.669-9.67,2.895s-9.844-.69-9.9-2.063,4.281-2.669,9.67-2.895S264.015,361.4,264.073,362.774Z" transform="translate(-158.369 -331.461)" fill="#f8951d"/><path d="M264.073,362.774c.058,1.373-4.281,2.669-9.67,2.895s-9.844-.69-9.9-2.063,4.281-2.669,9.67-2.895S264.015,361.4,264.073,362.774Z" transform="translate(-158.369 -331.461)" fill="#fff" opacity="0.4"/><path d="M263.5,363.107a.342.342,0,0,1-.084.245c-.645-.806-4.236-1.289-8.516-1.1s-7.82.961-8.381,1.818a.438.438,0,0,1-.1-.239c-.039-.928,3.752-1.857,8.478-2.057S263.466,362.179,263.5,363.107Z" transform="translate(-159.051 -331.838)" fill="#f8951d"/><path d="M263.5,363.107a.342.342,0,0,1-.084.245c-.645-.806-4.236-1.289-8.516-1.1s-7.82.961-8.381,1.818a.438.438,0,0,1-.1-.239c-.039-.928,3.752-1.857,8.478-2.057S263.466,362.179,263.5,363.107Z" transform="translate(-159.051 -331.838)" fill="#f8951d" opacity="0.4"/><path d="M263.477,363.615c-.58.857-4.113,1.638-8.381,1.818s-7.872-.29-8.516-1.1c.574-.857,4.1-1.638,8.381-1.818S262.826,362.816,263.477,363.615Z" transform="translate(-159.108 -332.102)" fill="#f8951d" opacity="0.4"/><path d="M267.433,360.844c.058,1.373-4.281,2.669-9.67,2.9s-9.845-.7-9.9-2.069,4.281-2.669,9.67-2.895S267.375,359.438,267.433,360.844Z" transform="translate(-159.562 -330.774)" fill="#f8951d"/><rect width="19.612" height="2.482" transform="translate(88.154 28.395) rotate(-2.43)" fill="#f8951d"/><path d="M267.263,356.945c.058,1.373-4.281,2.669-9.67,2.9s-9.844-.7-9.9-2.069,4.281-2.669,9.67-2.895S267.23,355.591,267.263,356.945Z" transform="translate(-159.502 -329.39)" fill="#f8951d"/><path d="M267.263,356.945c.058,1.373-4.281,2.669-9.67,2.9s-9.844-.7-9.9-2.069,4.281-2.669,9.67-2.895S267.23,355.591,267.263,356.945Z" transform="translate(-159.502 -329.39)" fill="#fff" opacity="0.4"/><path d="M266.7,357.244a.413.413,0,0,1-.084.239c-.645-.806-4.242-1.289-8.516-1.1s-7.827.961-8.381,1.818a.387.387,0,0,1-.11-.239c-.039-.928,3.752-1.857,8.478-2.057S266.656,356.342,266.7,357.244Z" transform="translate(-160.184 -329.754)" fill="#f8951d"/><path d="M266.7,357.244a.413.413,0,0,1-.084.239c-.645-.806-4.242-1.289-8.516-1.1s-7.827.961-8.381,1.818a.387.387,0,0,1-.11-.239c-.039-.928,3.752-1.857,8.478-2.057S266.656,356.342,266.7,357.244Z" transform="translate(-160.184 -329.754)" fill="#f8951d" opacity="0.4"/><path d="M266.687,357.785c-.587.864-4.113,1.638-8.381,1.818s-7.878-.29-8.516-1.1c.567-.857,4.1-1.638,8.381-1.818S266.043,356.979,266.687,357.785Z" transform="translate(-160.248 -330.03)" fill="#f8951d" opacity="0.4"/><path d="M262.56,355.848c.058,1.373-4.281,2.669-9.67,2.9s-9.89-.69-9.89-2.063,4.281-2.669,9.67-2.895S262.5,354.488,262.56,355.848Z" transform="translate(-157.836 -329.002)" fill="#f8951d"/><rect width="19.612" height="2.482" transform="translate(85.03 25.198) rotate(-2.43)" fill="#f8951d"/><path d="M262.393,352c.058,1.373-4.281,2.669-9.67,2.9s-9.844-.7-9.9-2.069,4.281-2.669,9.67-2.895S262.335,350.611,262.393,352Z" transform="translate(-157.772 -327.634)" fill="#f8951d"/><path d="M262.393,352c.058,1.373-4.281,2.669-9.67,2.9s-9.844-.7-9.9-2.069,4.281-2.669,9.67-2.895S262.335,350.611,262.393,352Z" transform="translate(-157.772 -327.634)" fill="#fff" opacity="0.4"/><path d="M261.824,352.344a.342.342,0,0,1-.084.239c-.645-.806-4.236-1.289-8.516-1.1s-7.82.961-8.381,1.818a.38.38,0,0,1-.1-.238c-.039-.928,3.752-1.857,8.478-2.057S261.786,351.415,261.824,352.344Z" transform="translate(-158.454 -328.012)" fill="#f8951d"/><path d="M261.824,352.344a.342.342,0,0,1-.084.239c-.645-.806-4.236-1.289-8.516-1.1s-7.82.961-8.381,1.818a.38.38,0,0,1-.1-.238c-.039-.928,3.752-1.857,8.478-2.057S261.786,351.415,261.824,352.344Z" transform="translate(-158.454 -328.012)" fill="#f8951d" opacity="0.4"/><path d="M261.8,352.844c-.587.864-4.113,1.638-8.381,1.818s-7.872-.29-8.516-1.1c.574-.857,4.1-1.631,8.381-1.818S261.14,352.038,261.8,352.844Z" transform="translate(-158.511 -328.274)" fill="#f8951d" opacity="0.4"/><path d="M265.756,350.024c.058,1.373-4.281,2.669-9.67,2.9s-9.838-.7-9.9-2.069,4.274-2.669,9.67-2.895S265.692,348.658,265.756,350.024Z" transform="translate(-158.969 -326.931)" fill="#f8951d"/><rect width="19.612" height="2.482" transform="translate(87.081 21.452) rotate(-2.43)" fill="#f8951d"/><path d="M265.583,346.173c.058,1.373-4.281,2.669-9.67,2.9s-9.844-.7-9.9-2.069,4.281-2.663,9.67-2.895S265.525,344.807,265.583,346.173Z" transform="translate(-158.905 -325.562)" fill="#f8951d"/><path d="M265.583,346.173c.058,1.373-4.281,2.669-9.67,2.9s-9.844-.7-9.9-2.069,4.281-2.663,9.67-2.895S265.525,344.807,265.583,346.173Z" transform="translate(-158.905 -325.562)" fill="#fff" opacity="0.4"/><path d="M265.014,346.513a.368.368,0,0,1-.084.245c-.645-.806-4.236-1.289-8.516-1.1s-7.82.961-8.381,1.818a.419.419,0,0,1-.1-.239c-.039-.928,3.752-1.857,8.478-2.057S264.976,345.585,265.014,346.513Z" transform="translate(-159.587 -325.941)" fill="#f8951d"/><path d="M265.014,346.513a.368.368,0,0,1-.084.245c-.645-.806-4.236-1.289-8.516-1.1s-7.82.961-8.381,1.818a.419.419,0,0,1-.1-.239c-.039-.928,3.752-1.857,8.478-2.057S264.976,345.585,265.014,346.513Z" transform="translate(-159.587 -325.941)" fill="#f8951d" opacity="0.4"/><path d="M264.987,347.02c-.58.857-4.113,1.631-8.381,1.812s-7.872-.29-8.516-1.1c.574-.857,4.1-1.631,8.381-1.818S264.336,346.214,264.987,347.02Z" transform="translate(-159.644 -326.202)" fill="#f8951d" opacity="0.4"/><circle cx="8.832" cy="8.832" r="8.832" transform="translate(84.15 6.846) rotate(-20.55)" fill="#f8951d"/><circle cx="8.832" cy="8.832" r="8.832" transform="matrix(0.648, -0.762, 0.762, 0.648, 84.045, 13.452)" fill="#f8951d"/><circle cx="8.832" cy="8.832" r="8.832" transform="matrix(0.648, -0.762, 0.762, 0.648, 84.045, 13.452)" fill="#fff" opacity="0.4"/><path d="M262.953,333.738a6.608,6.608,0,1,1-3.281-8.755,6.608,6.608,0,0,1,3.281,8.755Z" transform="translate(-160.44 -318.568)" fill="#f8951d"/><path d="M261.329,334.062a1.992,1.992,0,0,0-.645-1.032,1.786,1.786,0,0,0,.941-.316,1.863,1.863,0,0,0,.645-.774,1.676,1.676,0,0,0-.077-1.6,3.017,3.017,0,0,0-1.115-1.038l.226-.5-.761-.342-.206.458-.761-.348.206-.458-.761-.348-.206.464-1.65-.754-3.095,6.814,1.644.754-.219.484.761.342.219-.484.761.348-.219.484.761.342.232-.5a3.449,3.449,0,0,0,1.831.277,1.728,1.728,0,0,0,1.289-1.057A1.87,1.87,0,0,0,261.329,334.062Zm-3.12-4.681,1.567.716a1.753,1.753,0,0,1,.793.6.729.729,0,0,1,0,.735.716.716,0,0,1-.574.464,1.7,1.7,0,0,1-.98-.193l-1.567-.716Zm.851,5.5a1.9,1.9,0,0,1-1.032-.226l-1.837-.832.761-1.689,1.844.838c.832.38,1.122.857.87,1.418a.774.774,0,0,1-.606.516Z" transform="translate(-161.769 -319.666)" fill="#fff" opacity="0.3"/><path d="M383.362,410.292c-.2.806-2.933.812-6.105,0s-5.583-2.1-5.383-2.895,2.94-.812,6.112,0S383.556,409.505,383.362,410.292Z" transform="translate(-203.621 -347.846)" fill="#f8951d"/><rect width="1.502" height="11.843" transform="matrix(0.243, -0.97, 0.97, 0.243, 168.26, 59.577)" fill="#f8951d"/><path d="M383.932,408.07c-.206.806-2.94.812-6.112,0s-5.577-2.089-5.377-2.895,2.933-.812,6.105,0S384.132,407.245,383.932,408.07Z" transform="translate(-203.824 -347.056)" fill="#f8951d"/><path d="M383.932,408.07c-.206.806-2.94.812-6.112,0s-5.577-2.089-5.377-2.895,2.933-.812,6.105,0S384.132,407.245,383.932,408.07Z" transform="translate(-203.824 -347.056)" fill="#fff" opacity="0.4"/><path d="M383.641,408.017a.2.2,0,0,1-.09.129c-.239-.58-2.231-1.47-4.738-2.1s-4.693-.786-5.158-.387a.322.322,0,0,1,0-.155c.142-.548,2.495-.432,5.267.258S383.783,407.476,383.641,408.017Z" transform="translate(-204.255 -347.267)" fill="#f8951d"/><path d="M383.641,408.017a.2.2,0,0,1-.09.129c-.239-.58-2.231-1.47-4.738-2.1s-4.693-.786-5.158-.387a.322.322,0,0,1,0-.155c.142-.548,2.495-.432,5.267.258S383.783,407.476,383.641,408.017Z" transform="translate(-204.255 -347.267)" fill="#f8951d" opacity="0.4"/><path d="M383.543,408.3c-.484.393-2.656.239-5.158-.387s-4.513-1.521-4.745-2.1c.484-.4,2.656-.245,5.158.387S383.31,407.721,383.543,408.3Z" transform="translate(-204.253 -347.422)" fill="#f8951d" opacity="0.4"/><path d="M391.74,415.618c.039.825-2.579,1.612-5.854,1.747s-5.944-.419-5.976-1.244,2.579-1.612,5.854-1.754S391.708,414.767,391.74,415.618Z" transform="translate(-206.48 -350.529)" fill="#f8951d"/><rect width="11.843" height="1.502" transform="translate(173.351 64.104) rotate(-2.43)" fill="#f8951d"/><path d="M391.64,413.3c.039.832-2.579,1.612-5.847,1.754s-5.944-.419-5.983-1.251,2.579-1.612,5.854-1.747S391.608,412.471,391.64,413.3Z" transform="translate(-206.445 -349.71)" fill="#f8951d"/><path d="M391.64,413.3c.039.832-2.579,1.612-5.847,1.754s-5.944-.419-5.983-1.251,2.579-1.612,5.854-1.747S391.608,412.471,391.64,413.3Z" transform="translate(-206.445 -349.71)" fill="#fff" opacity="0.4"/><path d="M391.3,413.552a.187.187,0,0,1-.052.148c-.393-.484-2.579-.774-5.158-.645s-4.726.58-5.074,1.1a.219.219,0,0,1-.058-.142c0-.561,2.263-1.122,5.119-1.244S391.3,412.959,391.3,413.552Z" transform="translate(-206.854 -349.959)" fill="#f8951d"/><path d="M391.3,413.552a.187.187,0,0,1-.052.148c-.393-.484-2.579-.774-5.158-.645s-4.726.58-5.074,1.1a.219.219,0,0,1-.058-.142c0-.561,2.263-1.122,5.119-1.244S391.3,412.959,391.3,413.552Z" transform="translate(-206.854 -349.959)" fill="#f8951d" opacity="0.4"/><path d="M391.275,413.811c-.348.516-2.482.986-5.067,1.1s-4.751-.174-5.158-.645c.348-.516,2.482-.986,5.074-1.1S390.882,413.328,391.275,413.811Z" transform="translate(-206.886 -350.102)" fill="#f8951d" opacity="0.4"/><circle cx="8.832" cy="8.832" r="8.832" transform="translate(159.419 59.825) rotate(-56.72)" fill="#f8951d"/><path d="M380.118,406.374a8.832,8.832,0,1,1-.716-12.468,8.832,8.832,0,0,1,.716,12.468Z" transform="translate(-201.074 -342.471)" fill="#f8951d"/><path d="M380.118,406.374a8.832,8.832,0,1,1-.716-12.468,8.832,8.832,0,0,1,.716,12.468Z" transform="translate(-201.074 -342.471)" fill="#fff" opacity="0.4"/><path d="M379.633,406.12a6.608,6.608,0,1,1,1.667-4.779A6.615,6.615,0,0,1,379.633,406.12Z" transform="translate(-202.277 -343.693)" fill="#f8951d"/><g transform="translate(167.788 53.859)" opacity="0.3"><path d="M377.052,406.056c-.786,1.289-2.186,1.322-3.636.232l-.825.883-.825-.729.832-.883a6.06,6.06,0,0,1-1.438-2.411l1.289-.69a5.041,5.041,0,0,0,1.135,2.057l1.289-1.354c-.6-.941-1.218-2.044-.509-3.191.78-1.257,2.2-1.289,3.668-.187l.832-.883.819.735-.832.89a5.525,5.525,0,0,1,1.173,1.889l-1.231.722a4.3,4.3,0,0,0-.915-1.586l-1.322,1.418C377.123,403.9,377.723,404.96,377.052,406.056Zm-1.135-4.042L377,400.86c-.535-.316-.98-.258-1.212.1a1.064,1.064,0,0,0,.129,1.051Zm-.348,3.107a.986.986,0,0,0-.122-.993l-1.032,1.1c.509.284.928.245,1.154-.11Z" transform="translate(-371.16 -398.9)" fill="#fff"/></g><path d="M208.78,416.889c-.032.825,2.579,1.612,5.854,1.747s5.944-.419,5.976-1.244-2.579-1.612-5.847-1.754S208.819,416.057,208.78,416.889Z" transform="translate(-145.677 -350.981)" fill="#f8951d"/><rect width="1.502" height="11.843" transform="translate(63.107 65.913) rotate(-87.57)" fill="#f8951d"/><path d="M208.88,414.563c-.039.832,2.579,1.612,5.854,1.754s5.944-.419,5.976-1.251-2.579-1.612-5.854-1.747S208.912,413.751,208.88,414.563Z" transform="translate(-145.713 -350.158)" fill="#f8951d"/><path d="M208.88,414.563c-.039.832,2.579,1.612,5.854,1.754s5.944-.419,5.976-1.251-2.579-1.612-5.854-1.747S208.912,413.751,208.88,414.563Z" transform="translate(-145.713 -350.158)" fill="#fff" opacity="0.4"/><path d="M210.05,414.777a.245.245,0,0,0,.052.148c.393-.484,2.579-.774,5.158-.645s4.719.58,5.067,1.1a.258.258,0,0,0,.064-.148c0-.561-2.269-1.122-5.119-1.238S210.076,414.217,210.05,414.777Z" transform="translate(-146.129 -350.397)" fill="#f8951d"/><path d="M210.05,414.777a.245.245,0,0,0,.052.148c.393-.484,2.579-.774,5.158-.645s4.719.58,5.067,1.1a.258.258,0,0,0,.064-.148c0-.561-2.269-1.122-5.119-1.238S210.076,414.217,210.05,414.777Z" transform="translate(-146.129 -350.397)" fill="#f8951d" opacity="0.4"/><path d="M210.13,415.077c.355.522,2.482.986,5.067,1.1s4.758-.174,5.158-.645c-.348-.522-2.476-.986-5.067-1.1S210.523,414.593,210.13,415.077Z" transform="translate(-146.157 -350.549)" fill="#f8951d" opacity="0.4"/><path d="M206.85,413.369c0,.825,2.579,1.612,5.854,1.747s5.944-.419,5.976-1.244-2.579-1.612-5.847-1.754S206.889,412.544,206.85,413.369Z" transform="translate(-144.992 -349.73)" fill="#f8951d"/><rect width="1.502" height="11.843" transform="translate(61.851 63.624) rotate(-87.57)" fill="#f8951d"/><path d="M207,411.043c0,.832,2.579,1.612,5.854,1.754s5.944-.419,5.976-1.251-2.579-1.612-5.847-1.747S207,410.218,207,411.043Z" transform="translate(-145.045 -348.907)" fill="#f8951d"/><path d="M207,411.043c0,.832,2.579,1.612,5.854,1.754s5.944-.419,5.976-1.251-2.579-1.612-5.847-1.747S207,410.218,207,411.043Z" transform="translate(-145.045 -348.907)" fill="#fff" opacity="0.4"/><path d="M208.12,411.254a.245.245,0,0,0,.052.148c.393-.484,2.579-.767,5.158-.645s4.719.574,5.067,1.1a.258.258,0,0,0,.064-.148c0-.554-2.269-1.122-5.119-1.238S208.146,410.693,208.12,411.254Z" transform="translate(-145.443 -349.143)" fill="#f8951d"/><path d="M208.12,411.254a.245.245,0,0,0,.052.148c.393-.484,2.579-.767,5.158-.645s4.719.574,5.067,1.1a.258.258,0,0,0,.064-.148c0-.554-2.269-1.122-5.119-1.238S208.146,410.693,208.12,411.254Z" transform="translate(-145.443 -349.143)" fill="#f8951d" opacity="0.4"/><path d="M208.2,411.561c.355.522,2.482.986,5.067,1.1s4.758-.174,5.158-.645c-.348-.522-2.476-.986-5.067-1.1S208.593,411.078,208.2,411.561Z" transform="translate(-145.471 -349.302)" fill="#f8951d" opacity="0.4"/><path d="M207.1,409.129c0,.825,2.579,1.612,5.854,1.747s5.944-.419,5.976-1.244-2.579-1.612-5.847-1.754S207.139,408.3,207.1,409.129Z" transform="translate(-145.08 -348.224)" fill="#f8951d"/><rect width="1.502" height="11.843" transform="translate(62.009 60.891) rotate(-87.57)" fill="#f8951d"/><path d="M207.2,406.8c0,.832,2.579,1.612,5.854,1.754s5.944-.419,5.976-1.251-2.579-1.612-5.847-1.747S207.239,405.978,207.2,406.8Z" transform="translate(-145.116 -347.4)" fill="#f8951d"/><path d="M207.2,406.8c0,.832,2.579,1.612,5.854,1.754s5.944-.419,5.976-1.251-2.579-1.612-5.847-1.747S207.239,405.978,207.2,406.8Z" transform="translate(-145.116 -347.4)" fill="#fff" opacity="0.4"/><path d="M208.37,407.014a.245.245,0,0,0,.052.148c.393-.484,2.579-.767,5.158-.645s4.719.574,5.067,1.1a.258.258,0,0,0,.064-.148c0-.554-2.269-1.122-5.119-1.238S208.4,406.46,208.37,407.014Z" transform="translate(-145.532 -347.637)" fill="#f8951d"/><path d="M208.37,407.014a.245.245,0,0,0,.052.148c.393-.484,2.579-.767,5.158-.645s4.719.574,5.067,1.1a.258.258,0,0,0,.064-.148c0-.554-2.269-1.122-5.119-1.238S208.4,406.46,208.37,407.014Z" transform="translate(-145.532 -347.637)" fill="#f8951d" opacity="0.4"/><path d="M208.45,407.321c.355.522,2.482.986,5.067,1.1s4.758-.174,5.158-.645c-.348-.522-2.476-.986-5.067-1.1S208.843,406.838,208.45,407.321Z" transform="translate(-145.56 -347.796)" fill="#f8951d" opacity="0.4"/><path d="M205.17,405.608c0,.825,2.579,1.612,5.854,1.747s5.944-.419,5.983-1.244-2.579-1.612-5.854-1.754S205.209,404.764,205.17,405.608Z" transform="translate(-144.395 -346.973)" fill="#f8951d"/><rect width="1.502" height="11.843" transform="translate(60.772 58.627) rotate(-87.57)" fill="#f8951d"/><path d="M205.27,403.3c-.032.832,2.579,1.612,5.854,1.754s5.944-.419,5.976-1.251-2.579-1.605-5.847-1.747S205.309,402.464,205.27,403.3Z" transform="translate(-144.43 -346.155)" fill="#f8951d"/><path d="M205.27,403.3c-.032.832,2.579,1.612,5.854,1.754s5.944-.419,5.976-1.251-2.579-1.605-5.847-1.747S205.309,402.464,205.27,403.3Z" transform="translate(-144.43 -346.155)" fill="#fff" opacity="0.4"/><path d="M206.44,403.494a.245.245,0,0,0,.052.148c.4-.484,2.579-.767,5.158-.645s4.726.574,5.067,1.1a.219.219,0,0,0,.064-.142c0-.561-2.269-1.128-5.119-1.244S206.466,402.94,206.44,403.494Z" transform="translate(-144.846 -346.386)" fill="#f8951d"/><path d="M206.44,403.494a.245.245,0,0,0,.052.148c.4-.484,2.579-.767,5.158-.645s4.726.574,5.067,1.1a.219.219,0,0,0,.064-.142c0-.561-2.269-1.128-5.119-1.244S206.466,402.94,206.44,403.494Z" transform="translate(-144.846 -346.386)" fill="#f8951d" opacity="0.4"/><path d="M206.52,403.8c.355.522,2.482.986,5.067,1.1s4.758-.174,5.158-.645c-.342-.522-2.476-.986-5.067-1.1S206.92,403.318,206.52,403.8Z" transform="translate(-144.874 -346.545)" fill="#f8951d" opacity="0.4"/><path d="M208.12,402.628c-.039.825,2.579,1.612,5.854,1.747s5.944-.419,5.976-1.244-2.579-1.612-5.854-1.754S208.152,401.771,208.12,402.628Z" transform="translate(-145.443 -345.914)" fill="#f8951d"/><rect width="1.502" height="11.843" transform="translate(62.666 56.697) rotate(-87.57)" fill="#f8951d"/><path d="M208.22,400.3c-.039.832,2.579,1.612,5.847,1.754s5.944-.419,5.983-1.251-2.579-1.612-5.854-1.747S208.252,399.478,208.22,400.3Z" transform="translate(-145.478 -345.091)" fill="#f8951d"/><path d="M208.22,400.3c-.039.832,2.579,1.612,5.847,1.754s5.944-.419,5.983-1.251-2.579-1.612-5.854-1.747S208.252,399.478,208.22,400.3Z" transform="translate(-145.478 -345.091)" fill="#fff" opacity="0.4"/><path d="M209.389,400.552a.187.187,0,0,0,.052.148c.393-.484,2.579-.774,5.158-.645s4.726.58,5.074,1.1a.219.219,0,0,0,.058-.142c0-.561-2.263-1.122-5.119-1.244S209.409,399.966,209.389,400.552Z" transform="translate(-145.894 -345.34)" fill="#f8951d"/><path d="M209.389,400.552a.187.187,0,0,0,.052.148c.393-.484,2.579-.774,5.158-.645s4.726.58,5.074,1.1a.219.219,0,0,0,.058-.142c0-.561-2.263-1.122-5.119-1.244S209.409,399.966,209.389,400.552Z" transform="translate(-145.894 -345.34)" fill="#f8951d" opacity="0.4"/><path d="M209.47,400.821c.348.516,2.482.986,5.067,1.1s4.751-.174,5.158-.645c-.348-.516-2.482-.986-5.074-1.1S209.863,400.338,209.47,400.821Z" transform="translate(-145.923 -345.486)" fill="#f8951d" opacity="0.4"/><path d="M195.174,415.45c.2.806,2.94.812,6.112,0s5.577-2.089,5.377-2.895-2.933-.812-6.105,0S194.974,414.651,195.174,415.45Z" transform="translate(-140.839 -349.678)" fill="#f8951d"/><rect width="11.843" height="1.502" transform="matrix(0.97, -0.243, 0.243, 0.97, 53.973, 64.315)" fill="#f8951d"/><path d="M194.613,413.205c.2.8,2.933.812,6.105,0s5.583-2.089,5.377-2.888-2.933-.812-6.105,0S194.407,412.4,194.613,413.205Z" transform="translate(-140.639 -348.883)" fill="#f8951d"/><path d="M194.613,413.205c.2.8,2.933.812,6.105,0s5.583-2.089,5.377-2.888-2.933-.812-6.105,0S194.407,412.4,194.613,413.205Z" transform="translate(-140.639 -348.883)" fill="#fff" opacity="0.4"/><path d="M195.727,413.186a.213.213,0,0,0,.09.123c.239-.574,2.231-1.463,4.745-2.1s4.687-.787,5.158-.387a.213.213,0,0,0,0-.155c-.135-.542-2.495-.432-5.261.264S195.591,412.638,195.727,413.186Z" transform="translate(-141.037 -349.102)" fill="#f8951d"/><path d="M195.727,413.186a.213.213,0,0,0,.09.123c.239-.574,2.231-1.463,4.745-2.1s4.687-.787,5.158-.387a.213.213,0,0,0,0-.155c-.135-.542-2.495-.432-5.261.264S195.591,412.638,195.727,413.186Z" transform="translate(-141.037 -349.102)" fill="#f8951d" opacity="0.4"/><path d="M195.87,413.512c.484.4,2.663.245,5.158-.387s4.513-1.515,4.745-2.1c-.484-.4-2.656-.239-5.158.387S196.109,412.906,195.87,413.512Z" transform="translate(-141.09 -349.274)" fill="#f8951d" opacity="0.4"/><path d="M186.67,416.889c0,.825,2.579,1.612,5.854,1.747s5.944-.419,5.976-1.244-2.579-1.612-5.847-1.754S186.709,416.057,186.67,416.889Z" transform="translate(-137.822 -350.981)" fill="#f8951d"/><rect width="1.502" height="11.843" transform="translate(48.842 65.894) rotate(-87.57)" fill="#f8951d"/><path d="M186.77,414.563c-.032.832,2.579,1.612,5.854,1.754s5.944-.419,5.976-1.251-2.579-1.612-5.847-1.747S186.809,413.751,186.77,414.563Z" transform="translate(-137.857 -350.158)" fill="#f8951d"/><path d="M186.77,414.563c-.032.832,2.579,1.612,5.854,1.754s5.944-.419,5.976-1.251-2.579-1.612-5.847-1.747S186.809,413.751,186.77,414.563Z" transform="translate(-137.857 -350.158)" fill="#fff" opacity="0.4"/><path d="M187.94,414.777a.245.245,0,0,0,.052.148c.393-.484,2.579-.774,5.158-.645s4.719.58,5.067,1.1a.258.258,0,0,0,.064-.148c0-.561-2.269-1.122-5.119-1.238S187.979,414.217,187.94,414.777Z" transform="translate(-138.273 -350.397)" fill="#f8951d"/><path d="M187.94,414.777a.245.245,0,0,0,.052.148c.393-.484,2.579-.774,5.158-.645s4.719.58,5.067,1.1a.258.258,0,0,0,.064-.148c0-.561-2.269-1.122-5.119-1.238S187.979,414.217,187.94,414.777Z" transform="translate(-138.273 -350.397)" fill="#f8951d" opacity="0.4"/><path d="M188,415.077c.355.522,2.482.986,5.067,1.1s4.758-.174,5.158-.645c-.348-.522-2.476-.986-5.067-1.1S188.406,414.593,188,415.077Z" transform="translate(-138.294 -350.549)" fill="#f8951d" opacity="0.4"/><path d="M281.46,416.757c-.039.851,2.656,1.657,6.015,1.8s6.112-.432,6.15-1.289-2.663-1.65-6.021-1.8S281.492,415.906,281.46,416.757Z" transform="translate(-171.501 -350.92)" fill="#f8951d"/><rect width="1.541" height="12.178" transform="translate(109.945 65.816) rotate(-87.57)" fill="#f8951d"/><path d="M281.56,414.367c-.039.851,2.656,1.657,6.015,1.8s6.112-.432,6.15-1.289-2.656-1.65-6.021-1.8S281.592,413.516,281.56,414.367Z" transform="translate(-171.536 -350.071)" fill="#f8951d"/><path d="M281.56,414.367c-.039.851,2.656,1.657,6.015,1.8s6.112-.432,6.15-1.289-2.656-1.65-6.021-1.8S281.592,413.516,281.56,414.367Z" transform="translate(-171.536 -350.071)" fill="#fff" opacity="0.4"/><path d="M282.76,414.573a.277.277,0,0,0,.052.155c.406-.5,2.63-.793,5.293-.683s4.855.593,5.209,1.128a.219.219,0,0,0,.064-.148c0-.574-2.327-1.154-5.261-1.289S282.786,414,282.76,414.573Z" transform="translate(-171.963 -350.303)" fill="#f8951d"/><path d="M282.76,414.573a.277.277,0,0,0,.052.155c.406-.5,2.63-.793,5.293-.683s4.855.593,5.209,1.128a.219.219,0,0,0,.064-.148c0-.574-2.327-1.154-5.261-1.289S282.786,414,282.76,414.573Z" transform="translate(-171.963 -350.303)" fill="#f8951d" opacity="0.4"/><path d="M282.84,414.9c.367.529,2.579,1.012,5.216,1.128s4.887-.181,5.286-.683c-.355-.535-2.547-1.012-5.209-1.128S283.246,414.4,282.84,414.9Z" transform="translate(-171.991 -350.474)" fill="#f8951d" opacity="0.4"/><path d="M279.47,413.137c-.032.851,2.663,1.657,6.021,1.805s6.112-.432,6.144-1.289-2.656-1.657-6.015-1.805S279.509,412.286,279.47,413.137Z" transform="translate(-170.794 -349.634)" fill="#f8951d"/><rect width="1.541" height="12.178" transform="translate(108.675 63.499) rotate(-87.57)" fill="#f8951d"/><path d="M279.58,410.747c-.039.851,2.656,1.657,6.015,1.805s6.112-.432,6.15-1.289-2.663-1.657-6.021-1.805S279.612,409.9,279.58,410.747Z" transform="translate(-170.833 -348.784)" fill="#f8951d"/><path d="M279.58,410.747c-.039.851,2.656,1.657,6.015,1.805s6.112-.432,6.15-1.289-2.663-1.657-6.021-1.805S279.612,409.9,279.58,410.747Z" transform="translate(-170.833 -348.784)" fill="#fff" opacity="0.4"/><path d="M280.78,410.953a.277.277,0,0,0,.052.155c.406-.5,2.63-.793,5.287-.683s4.861.593,5.216,1.128a.258.258,0,0,0,.064-.148c0-.574-2.334-1.154-5.267-1.289S280.806,410.38,280.78,410.953Z" transform="translate(-171.259 -349.017)" fill="#f8951d"/><path d="M280.78,410.953a.277.277,0,0,0,.052.155c.406-.5,2.63-.793,5.287-.683s4.861.593,5.216,1.128a.258.258,0,0,0,.064-.148c0-.574-2.334-1.154-5.267-1.289S280.806,410.38,280.78,410.953Z" transform="translate(-171.259 -349.017)" fill="#f8951d" opacity="0.4"/><path d="M280.86,411.28c.361.529,2.579,1.012,5.209,1.128s4.893-.181,5.293-.683c-.355-.535-2.547-1.012-5.216-1.128S281.266,410.777,280.86,411.28Z" transform="translate(-171.288 -349.188)" fill="#f8951d" opacity="0.4"/><path d="M283.73,410.468c-.039.845,2.656,1.65,6.015,1.8s6.112-.432,6.15-1.289-2.663-1.657-6.021-1.8S283.762,409.617,283.73,410.468Z" transform="translate(-172.307 -348.686)" fill="#f8951d"/><rect width="1.541" height="12.178" transform="translate(111.41 61.764) rotate(-87.57)" fill="#f8951d"/><path d="M283.83,408.071c-.039.851,2.656,1.657,6.015,1.805s6.112-.432,6.15-1.289-2.663-1.657-6.021-1.8S283.862,407.227,283.83,408.071Z" transform="translate(-172.343 -347.837)" fill="#f8951d"/><path d="M283.83,408.071c-.039.851,2.656,1.657,6.015,1.805s6.112-.432,6.15-1.289-2.663-1.657-6.021-1.8S283.862,407.227,283.83,408.071Z" transform="translate(-172.343 -347.837)" fill="#fff" opacity="0.4"/><path d="M285,408.274a.277.277,0,0,0,.052.155c.406-.5,2.63-.793,5.286-.683s4.861.593,5.216,1.128a.258.258,0,0,0,.064-.148c0-.574-2.334-1.154-5.267-1.289S285.045,407.7,285,408.274Z" transform="translate(-172.759 -348.065)" fill="#f8951d"/><path d="M285,408.274a.277.277,0,0,0,.052.155c.406-.5,2.63-.793,5.286-.683s4.861.593,5.216,1.128a.258.258,0,0,0,.064-.148c0-.574-2.334-1.154-5.267-1.289S285.045,407.7,285,408.274Z" transform="translate(-172.759 -348.065)" fill="#f8951d" opacity="0.4"/><path d="M285.11,408.609c.361.535,2.579,1.012,5.209,1.128s4.893-.18,5.293-.683c-.355-.535-2.547-1.012-5.216-1.128S285.516,408.1,285.11,408.609Z" transform="translate(-172.798 -348.239)" fill="#f8951d" opacity="0.4"/><path d="M283.78,406.848c-.039.851,2.656,1.657,6.015,1.8s6.112-.432,6.15-1.289-2.663-1.657-6.021-1.8S283.812,406,283.78,406.848Z" transform="translate(-172.325 -347.4)" fill="#f8951d"/><rect width="1.541" height="12.178" transform="matrix(0.04, -1, 1, 0.04, 111.225, 58.651)" fill="#f8951d"/><path d="M283.88,404.458c-.039.851,2.656,1.657,6.015,1.8s6.112-.432,6.15-1.289-2.663-1.657-6.021-1.8S283.912,403.607,283.88,404.458Z" transform="translate(-172.361 -346.55)" fill="#f8951d"/><path d="M283.88,404.458c-.039.851,2.656,1.657,6.015,1.8s6.112-.432,6.15-1.289-2.663-1.657-6.021-1.8S283.912,403.607,283.88,404.458Z" transform="translate(-172.361 -346.55)" fill="#fff" opacity="0.4"/><path d="M285.08,404.66a.258.258,0,0,0,.052.148c.406-.5,2.63-.793,5.286-.683s4.861.6,5.216,1.128a.219.219,0,0,0,.064-.148c0-.574-2.327-1.154-5.267-1.289S285.106,404.08,285.08,404.66Z" transform="translate(-172.787 -346.779)" fill="#f8951d"/><path d="M285.08,404.66a.258.258,0,0,0,.052.148c.406-.5,2.63-.793,5.286-.683s4.861.6,5.216,1.128a.219.219,0,0,0,.064-.148c0-.574-2.327-1.154-5.267-1.289S285.106,404.08,285.08,404.66Z" transform="translate(-172.787 -346.779)" fill="#f8951d" opacity="0.4"/><path d="M285.16,404.98c.361.535,2.579,1.012,5.216,1.128s4.887-.181,5.286-.683c-.355-.529-2.547-1.012-5.216-1.128S285.566,404.477,285.16,404.98Z" transform="translate(-172.816 -346.95)" fill="#f8951d" opacity="0.4"/><path d="M279.9,403.888c-.039.851,2.656,1.657,6.015,1.8s6.112-.432,6.15-1.289-2.656-1.657-6.015-1.8S279.964,403.037,279.9,403.888Z" transform="translate(-170.946 -346.348)" fill="#f8951d"/><rect width="1.541" height="12.178" transform="translate(108.959 57.553) rotate(-87.56)" fill="#f8951d"/><path d="M280,401.5c-.039.851,2.656,1.657,6.015,1.8s6.112-.432,6.15-1.289-2.656-1.657-6.015-1.8S280.038,400.647,280,401.5Z" transform="translate(-170.982 -345.499)" fill="#f8951d"/><path d="M280,401.5c-.039.851,2.656,1.657,6.015,1.8s6.112-.432,6.15-1.289-2.656-1.657-6.015-1.8S280.038,400.647,280,401.5Z" transform="translate(-170.982 -345.499)" fill="#fff" opacity="0.4"/><path d="M281.2,401.7a.258.258,0,0,0,.052.148c.413-.5,2.637-.793,5.293-.677s4.855.593,5.209,1.122a.206.206,0,0,0,.064-.142c0-.58-2.327-1.154-5.261-1.289S281.226,401.123,281.2,401.7Z" transform="translate(-171.409 -345.73)" fill="#f8951d"/><path d="M281.2,401.7a.258.258,0,0,0,.052.148c.413-.5,2.637-.793,5.293-.677s4.855.593,5.209,1.122a.206.206,0,0,0,.064-.142c0-.58-2.327-1.154-5.261-1.289S281.226,401.123,281.2,401.7Z" transform="translate(-171.409 -345.73)" fill="#f8951d" opacity="0.4"/><path d="M281.28,402.024c.367.535,2.579,1.019,5.216,1.128s4.887-.181,5.286-.683c-.355-.529-2.547-1.012-5.209-1.122S281.693,401.528,281.28,402.024Z" transform="translate(-171.437 -345.903)" fill="#f8951d" opacity="0.4"/><path d="M304.239,411.622c-.355.754,1.76,2.489,4.719,3.868s5.648,1.934,6,1.16-1.76-2.482-4.719-3.868S304.587,410.874,304.239,411.622Z" transform="translate(-179.58 -349.44)" fill="#f8951d"/><rect width="1.502" height="11.843" transform="translate(124.661 62.207) rotate(-64.83)" fill="#f8951d"/><path d="M305.229,409.521c-.355.748,1.76,2.482,4.719,3.868s5.648,1.934,6,1.16-1.76-2.489-4.719-3.868S305.577,408.767,305.229,409.521Z" transform="translate(-179.932 -348.693)" fill="#f8951d"/><path d="M305.229,409.521c-.355.748,1.76,2.482,4.719,3.868s5.648,1.934,6,1.16-1.76-2.489-4.719-3.868S305.577,408.767,305.229,409.521Z" transform="translate(-179.932 -348.693)" fill="#fff" opacity="0.4"/><path d="M306.332,410.02a.213.213,0,0,0,0,.155c.548-.29,2.656.277,5,1.38s4.133,2.36,4.255,2.972a.226.226,0,0,0,.11-.11c.239-.509-1.657-1.934-4.242-3.127S306.571,409.517,306.332,410.02Z" transform="translate(-180.333 -348.928)" fill="#f8951d"/><path d="M306.332,410.02a.213.213,0,0,0,0,.155c.548-.29,2.656.277,5,1.38s4.133,2.36,4.255,2.972a.226.226,0,0,0,.11-.11c.239-.509-1.657-1.934-4.242-3.127S306.571,409.517,306.332,410.02Z" transform="translate(-180.333 -348.928)" fill="#f8951d" opacity="0.4"/><path d="M306.33,410.319c.122.645,1.934,1.87,4.249,2.972s4.455,1.676,5,1.38c-.122-.612-1.934-1.87-4.255-2.972S306.878,410.028,306.33,410.319Z" transform="translate(-180.337 -349.072)" fill="#f8951d" opacity="0.4"/><path d="M294.61,415.239c-.032.825,2.579,1.605,5.854,1.747s5.944-.419,5.983-1.244-2.579-1.612-5.854-1.754S294.649,414.407,294.61,415.239Z" transform="translate(-176.173 -350.394)" fill="#f8951d"/><rect width="1.502" height="11.843" transform="translate(118.429 64.822) rotate(-87.57)" fill="#f8951d"/><path d="M294.71,412.913c0,.825,2.579,1.612,5.854,1.754s5.944-.426,5.976-1.251-2.579-1.612-5.847-1.747S294.749,412.088,294.71,412.913Z" transform="translate(-176.209 -349.571)" fill="#f8951d"/><path d="M294.71,412.913c0,.825,2.579,1.612,5.854,1.754s5.944-.426,5.976-1.251-2.579-1.612-5.847-1.747S294.749,412.088,294.71,412.913Z" transform="translate(-176.209 -349.571)" fill="#fff" opacity="0.4"/><path d="M295.88,413.123a.245.245,0,0,0,.052.148c.4-.49,2.579-.774,5.158-.645s4.726.58,5.067,1.1a.206.206,0,0,0,.064-.142c0-.561-2.269-1.122-5.119-1.244S295.906,412.562,295.88,413.123Z" transform="translate(-176.624 -349.807)" fill="#f8951d"/><path d="M295.88,413.123a.245.245,0,0,0,.052.148c.4-.49,2.579-.774,5.158-.645s4.726.58,5.067,1.1a.206.206,0,0,0,.064-.142c0-.561-2.269-1.122-5.119-1.244S295.906,412.562,295.88,413.123Z" transform="translate(-176.624 -349.807)" fill="#f8951d" opacity="0.4"/><path d="M296,413.43c.355.516,2.482.986,5.067,1.1s4.758-.174,5.158-.645c-.342-.516-2.476-.986-5.067-1.1S296.374,412.914,296,413.43Z" transform="translate(-176.667 -349.966)" fill="#f8951d" opacity="0.4"/></g><g transform="translate(89.183 143.072)"><path d="M132.93,159v3.868a11.6,11.6,0,0,1,6.608,2.74l2.753-2.753A15.473,15.473,0,0,0,132.93,159Z" transform="translate(-116.477 -159)" fill="#f8951d"/><path d="M121.988,195.21a11.637,11.637,0,0,1-10.67-10.67H107.45A15.524,15.524,0,0,0,121.988,199.1Z" transform="translate(-107.424 -168.074)" fill="#f8951d"/><path d="M111.317,173.608a11.65,11.65,0,0,1,10.657-10.67V159.07a15.531,15.531,0,0,0-14.564,14.564Z" transform="translate(-107.41 -159.025)" fill="#f8951d"/><path d="M111.317,173.608a11.65,11.65,0,0,1,10.657-10.67V159.07a15.531,15.531,0,0,0-14.564,14.564Z" transform="translate(-107.41 -159.025)" opacity="0.2"/><path d="M143.619,167.1l-2.753,2.753a11.643,11.643,0,0,1-7.936,19.154v3.868a15.531,15.531,0,0,0,10.689-25.788Z" transform="translate(-116.477 -161.874)" fill="#f8951d"/><g transform="translate(16.453 0)" opacity="0.8"><path d="M132.93,159v3.868a11.6,11.6,0,0,1,6.608,2.74l2.753-2.753A15.473,15.473,0,0,0,132.93,159Z" transform="translate(-132.93 -159)" fill="#fff"/></g><g transform="translate(0.026 16.466)" opacity="0.6"><path d="M121.988,195.21a11.637,11.637,0,0,1-10.67-10.67H107.45A15.524,15.524,0,0,0,121.988,199.1Z" transform="translate(-107.45 -184.54)" fill="#fff"/></g><g transform="translate(0 0.045)" opacity="0.7"><path d="M111.317,173.608a11.65,11.65,0,0,1,10.657-10.67V159.07a15.531,15.531,0,0,0-14.564,14.564Z" transform="translate(-107.41 -159.07)" fill="#fff"/></g><path d="M143.619,167.1l-2.753,2.753a11.643,11.643,0,0,1-7.936,19.154v3.868a15.531,15.531,0,0,0,10.689-25.788Z" transform="translate(-116.477 -161.874)" fill="#fff" opacity="0.5"/></g><g transform="translate(132.951 119.083)"><path d="M175.3,141.692l4.932,6.692,28.418-11.8,27.7,9.851,25.1-16.227,1.8,2.385,5.963-9.761-13.365-1.044,2.05,2.7L232.781,140.57l-27.29-9.683Z" transform="translate(-175.3 -121.79)" fill="#f8951d"/><g opacity="0.5"><path d="M175.3,141.692l4.932,6.692,28.418-11.8,27.7,9.851,25.1-16.227,1.8,2.385,5.963-9.761-13.365-1.044,2.05,2.7L232.781,140.57l-27.29-9.683Z" transform="translate(-175.3 -121.79)" fill="#fff"/></g></g><g transform="translate(243.194 143.15)"><path d="M352.554,159.12a6.254,6.254,0,1,0,6.254,6.254A6.254,6.254,0,0,0,352.554,159.12Zm0,9.38a3.127,3.127,0,1,1,3.12-3.127A3.127,3.127,0,0,1,352.554,168.5Z" transform="translate(-346.3 -159.12)" fill="#f8951d"/><path d="M377,187.58a6.254,6.254,0,1,0,6.247,6.254A6.254,6.254,0,0,0,377,187.58Zm0,9.374a3.127,3.127,0,1,1,3.12-3.12,3.127,3.127,0,0,1-3.12,3.12Z" transform="translate(-354.984 -169.232)" fill="#f8951d"/><path d="M357.338,189.975H353.18l14.448-30.855h4.158Z" transform="translate(-348.744 -159.12)" fill="#f8951d"/><g opacity="0.5"><path d="M352.554,159.12a6.254,6.254,0,1,0,6.254,6.254A6.254,6.254,0,0,0,352.554,159.12Zm0,9.38a3.127,3.127,0,1,1,3.12-3.127A3.127,3.127,0,0,1,352.554,168.5Z" transform="translate(-346.3 -159.12)" fill="#fff"/><path d="M377,187.58a6.254,6.254,0,1,0,6.247,6.254A6.254,6.254,0,0,0,377,187.58Zm0,9.374a3.127,3.127,0,1,1,3.12-3.12,3.127,3.127,0,0,1-3.12,3.12Z" transform="translate(-354.984 -169.232)" fill="#fff"/><path d="M357.338,189.975H353.18l14.448-30.855h4.158Z" transform="translate(-348.744 -159.12)" fill="#fff"/></g></g><g transform="translate(153.994 114.172)"><g transform="translate(0 4.158)"><path d="M245,162.561c.168.8.329,1.5.516,2.224s.387,1.412.6,2.147c.419,1.412.9,2.817,1.438,4.242A35,35,0,0,0,251.9,179.5a15.893,15.893,0,0,0,1.779,2.005,10.083,10.083,0,0,0,2.456,1.734,10.96,10.96,0,0,0,5.564,1.077,15.544,15.544,0,0,0,4.88-1.148,20.938,20.938,0,0,0,2.14-1.019,10.87,10.87,0,0,0,1.006-.645c.322-.239.645-.438,1.006-.7l-1.721-3.037-.9.239-.948.226c-.645.142-1.289.264-1.934.348a13.358,13.358,0,0,1-3.514.071,5.757,5.757,0,0,1-2.617-.941,5.983,5.983,0,0,1-.928-.825,11.886,11.886,0,0,1-.941-1.289,22.946,22.946,0,0,1-1.708-3.223c-.529-1.167-.993-2.4-1.431-3.662s-.832-2.579-1.225-3.868l-.554-1.934c-.174-.645-.367-1.328-.5-1.889Z" transform="translate(-221.108 -134.976)" fill="#ff8b7b"/><path d="M243.4,156.21c2.927-3.72,7.362-2.36,9.857,3.559a57.952,57.952,0,0,1,3.275,9.754l-10.405,3.655C243.393,167.588,240.4,160.02,243.4,156.21Z" transform="translate(-220.094 -132.531)" fill="#f8951d"/><path d="M243.4,156.21c2.927-3.72,7.362-2.36,9.857,3.559a57.952,57.952,0,0,1,3.275,9.754l-10.405,3.655C243.393,167.588,240.4,160.02,243.4,156.21Z" transform="translate(-220.094 -132.531)" opacity="0.1"/><path d="M248.943,166.964c-.851-.58-2.611,2.8-3.423,6.789.574,1.393,1.186,2.727,1.8,3.965l6.26-2.2C252.554,171.774,250.871,168.254,248.943,166.964Z" transform="translate(-221.292 -137.065)" opacity="0.3"/><path d="M282.068,183.944l2.276-1.244.8,5.08s-3.8,2.3-4.893.4l.116-1.289A4.178,4.178,0,0,1,282.068,183.944Z" transform="translate(-233.632 -142.679)" fill="#ff8b7b"/><path d="M289.445,182.31l1.992,4.087-4.068,1.251-.8-5.087Z" transform="translate(-235.878 -142.54)" fill="#ff8b7b"/><path d="M234.38,151.767,229.067,151l-6.634.58a4.616,4.616,0,0,0-4.139,3.765,118.06,118.06,0,0,0-1.322,14.628,143.259,143.259,0,0,0,1.289,21l22.165-2.682c.213-19.341,1.676-25.33,1.857-30.455a4.6,4.6,0,0,0-3.223-4.552Z" transform="translate(-211.132 -131.416)" fill="#f8951d"/><path d="M254.42,294.846l4.719,1.309,4.223-11.082-4.706-1.3Z" transform="translate(-224.455 -178.589)" fill="#ff8b7b"/><path d="M260.352,299.667a2.463,2.463,0,0,0-1.515-.922l-4.855-.941a.445.445,0,0,0-.522.3l-1.489,4.429a.98.98,0,0,0,.593,1.238h.052c1.792.709,3,.464,5.8,1.006,1.721.335,5.345,1.483,7.736,1.386s2.418-2.495,1.4-2.676A12.342,12.342,0,0,1,260.352,299.667Z" transform="translate(-223.566 -183.572)" fill="#263238"/><g transform="translate(32.016 105.181)" opacity="0.2"><path d="M264.492,285.079l-2.25,5.893-4.642-1.489,2.179-5.712Z" transform="translate(-257.6 -283.77)"/></g><path d="M267.435,231.752a32.6,32.6,0,0,1-.954,5.2c-1.244,4.809-3.372,9.709-5.158,14.486-3.456,9.438-6.486,17.639-6.486,17.639l-6.447-2.231s5.8-27.309,9.716-30.1h-24a9.961,9.961,0,0,1-1.341-.09c4.133-.535,10.573-3.082,16.549-5.628,5.28-2.256,10.218-4.513,12.894-5.364h0C265.488,227.059,267.687,229,267.435,231.752Z" transform="translate(-216.762 -157.943)" fill="#263238"/><path d="M267.435,231.752a32.6,32.6,0,0,1-.954,5.2c-1.244,4.809-3.372,9.709-5.158,14.486-3.456,9.438-6.486,17.639-6.486,17.639l-6.447-2.231s5.8-27.309,9.716-30.1h-24a9.961,9.961,0,0,1-1.341-.09c4.133-.535,10.573-3.082,16.549-5.628,5.28-2.256,10.218-4.513,12.894-5.364h0C265.488,227.059,267.687,229,267.435,231.752Z" transform="translate(-216.762 -157.943)" opacity="0.1"/><path d="M258.56,221.4c-2.682.87-7.62,3.107-12.894,5.364-5.976,2.547-12.417,5.093-16.549,5.628-6.963-.928-9.58-9.226-2.3-18.793,4.726,0,9.477,4.513,9.477,4.513S250.579,218.042,258.56,221.4Z" transform="translate(-213.102 -153.658)" opacity="0.6"/><path d="M303.276,278.882h5.274l-5.525-13.242-3.585,6.079Z" transform="translate(-240.45 -172.148)" fill="#ff8b7b"/><path d="M308.228,283.454l-6.2-1.412a.425.425,0,0,0-.516.277l-1.728,4.764a.954.954,0,0,0,.645,1.18h.032c2.173.458,3.223.567,5.963,1.18,1.676.387,5.918,1.5,8.233,2.024s2.92-1.741,2-2.173c-4.126-1.934-6.37-3.739-7.569-5.3A1.483,1.483,0,0,0,308.228,283.454Z" transform="translate(-240.561 -177.97)" fill="#263238"/><g transform="translate(58.99 93.492)" opacity="0.2"><path d="M303.025,265.64l2.353,5.641-4.751,2.65-1.186-2.211Z" transform="translate(-299.44 -265.64)"/></g><path d="M276.139,249.066l-5.8,3.514s-4.842-10.167-9.471-21.636a32.586,32.586,0,0,0,.954-5.2c.251-2.753-1.934-4.693-5.209-6.06h0c-2.682.87-7.62,3.107-12.894,5.364-5.976,2.547-12.417,5.093-16.549,5.628a11.683,11.683,0,0,1-1.431.1c-7.943,0-10.683-6.963-7.478-18.774,4.726,0,12.817-.509,12.817-.509s15.615-3.752,26.852-2.476a12.681,12.681,0,0,1,10.96,10.154C271.781,233.516,276.139,249.066,276.139,249.066Z" transform="translate(-211.14 -151.938)" fill="#263238"/><path d="M276.139,249.066l-5.8,3.514s-4.842-10.167-9.471-21.636a32.586,32.586,0,0,0,.954-5.2c.251-2.753-1.934-4.693-5.209-6.06h0c-2.682.87-7.62,3.107-12.894,5.364-5.976,2.547-12.417,5.093-16.549,5.628a11.683,11.683,0,0,1-1.431.1c-7.943,0-10.683-6.963-7.478-18.774,4.726,0,12.817-.509,12.817-.509s15.615-3.752,26.852-2.476a12.681,12.681,0,0,1,10.96,10.154C271.781,233.516,276.139,249.066,276.139,249.066Z" transform="translate(-211.14 -151.938)" fill="#263238"/><path d="M234.38,151.767,229.067,151l-6.634.58a4.616,4.616,0,0,0-4.139,3.765,118.06,118.06,0,0,0-1.322,14.628,143.259,143.259,0,0,0,1.289,21l22.165-2.682c.213-19.341,1.676-25.33,1.857-30.455a4.6,4.6,0,0,0-3.223-4.552Z" transform="translate(-211.132 -131.416)" fill="#f8951d"/><path d="M218.594,210.283l-.574,1.8c-.071.135.084.284.322.29l22.126-1.322c.181,0,.335-.084.348-.2l.239-1.805c0-.129-.142-.239-.335-.245l-21.771,1.335a.38.38,0,0,0-.355.148Z" transform="translate(-211.515 -151.952)" fill="#263238"/><path d="M218.594,210.283l-.574,1.8c-.071.135.084.284.322.29l22.126-1.322c.181,0,.335-.084.348-.2l.239-1.805c0-.129-.142-.239-.335-.245l-21.771,1.335a.38.38,0,0,0-.355.148Z" transform="translate(-211.515 -151.952)" opacity="0.1"/><path d="M220.2,154.917c4.416-.774,4.2,9.264,2.186,16.607-.58,2.127-3.095,1.238-3.946.683C215.647,170.428,214.706,158.127,220.2,154.917Z" transform="translate(-210.876 -132.792)" opacity="0.3"/><path d="M217.309,176.655c.168,4.339-1.212,6.615,1.1,8.065s15.988,5.983,16.324,5.415c-.645,1.044-1.289,1.934-1.934,2.991q-5.912-.89-11.83-1.644c-2.882-.361-7.53-1.1-9.786-2.933-2.05-1.65-1.683-8.9-1.335-14.119C211.662,173.354,217.309,176.655,217.309,176.655Z" transform="translate(-208.522 -139.664)" fill="#ff8b7b"/><path d="M215.547,152.049c4.513-1.335,6.26,2.3,4.88,8.549a56.976,56.976,0,0,1-2.985,9.857l-9.5-3C208.972,161.326,210.893,153.415,215.547,152.049Z" transform="translate(-207.94 -131.691)" fill="#f8951d"/><path d="M229.984,150.839a3.868,3.868,0,0,0,.69,2.727,11.6,11.6,0,0,0,1.934,2.108c.9.819,1.966,1.7,3.178,1.541a2.516,2.516,0,0,0,2.2-2.037c.954,1.541,1,2.308,2.05,2.4a2.36,2.36,0,0,0,1.747-.922,3.816,3.816,0,0,0,1.373-2.579c.251-1.934-1.328-3.752-3.172-4.442a23.209,23.209,0,0,0-5.8-1.148C232.466,148.311,230.3,148.847,229.984,150.839Z" transform="translate(-215.762 -130.513)" fill="#f8951d"/><path d="M229.984,150.839a3.868,3.868,0,0,0,.69,2.727,11.6,11.6,0,0,0,1.934,2.108c.9.819,1.966,1.7,3.178,1.541a2.516,2.516,0,0,0,2.2-2.037c.954,1.541,1,2.308,2.05,2.4a2.36,2.36,0,0,0,1.747-.922,3.816,3.816,0,0,0,1.373-2.579c.251-1.934-1.328-3.752-3.172-4.442a23.209,23.209,0,0,0-5.8-1.148C232.466,148.311,230.3,148.847,229.984,150.839Z" transform="translate(-215.762 -130.513)" opacity="0.3"/><path d="M236.009,137.64l2.4,2.779,3.269,3.778a4.223,4.223,0,0,0-.645,1.341,2.314,2.314,0,0,0,.909,2.895c.5.232.754,2.843-2.534,2.579a6.821,6.821,0,0,1-4.958-2.263c-.6-.806-.761-1.238-.142-2.121C236.067,144.132,236.209,140.515,236.009,137.64Z" transform="translate(-217.171 -126.669)" fill="#ff8b7b"/><path d="M243.442,144.857l-2.063-2.727a1.152,1.152,0,0,1-.077.258,7.2,7.2,0,0,0-.206,1.173c-.122,1.354,1.148,3.088,2.385,3.829l.1-.271a5.1,5.1,0,0,1,.645-1.289.245.245,0,0,1,.058-.058Z" transform="translate(-219.717 -128.264)" opacity="0.2"/><path d="M237.336,126.481c-.374,4.481-.787,7.092,1.135,9.632,2.908,3.868,8.7,2.489,10.386-1.818,1.521-3.868,1.837-10.554-2.276-12.894a6.241,6.241,0,0,0-8.478,2.443A6.163,6.163,0,0,0,237.336,126.481Z" transform="translate(-218.272 -120.622)" fill="#ff8b7b"/><path d="M235.02,130.912l1.934.832h0a1.66,1.66,0,0,0,.748-1.76c-.193-2.734,4.739-6.073,4.739-6.073s-5.216-1.715-6.782-1.973c-.548-.09-2.521,1.341-2.824,1.934a5.158,5.158,0,0,0,.645,5.4A11.6,11.6,0,0,0,235.02,130.912Z" transform="translate(-216.614 -121.088)" fill="#263238"/><path d="M233.925,133.514a4.12,4.12,0,0,0,1.289,2.617c.954.877,2.121-.077,2.263-1.354.116-1.135-.458-2.792-1.618-3.172S233.815,132.264,233.925,133.514Z" transform="translate(-217.169 -124.497)" fill="#ff8b7b"/><path d="M247.93,133.564c-.071.367.064.709.3.761s.464-.2.561-.567a.6.6,0,0,0-.309-.761C248.246,132.945,247.968,133.19,247.93,133.564Z" transform="translate(-222.142 -125.016)" fill="#263238"/><path d="M254.34,134.977c-.071.374.064.716.309.767s.484-.206.554-.567-.071-.709-.309-.761S254.411,134.61,254.34,134.977Z" transform="translate(-224.419 -125.521)" fill="#263238"/><path d="M251.8,135.26a12.345,12.345,0,0,0,.787,3.069,1.792,1.792,0,0,1-1.528-.148Z" transform="translate(-223.261 -125.823)" fill="#ff5652"/><path d="M248.409,141.977a3.185,3.185,0,0,1-1.863-1.708.11.11,0,0,1,.058-.142.122.122,0,0,1,.148.064,3.062,3.062,0,0,0,2.121,1.7.11.11,0,0,1,.1.122.116.116,0,0,1-.129.1h0a2.418,2.418,0,0,1-.432-.135Z" transform="translate(-221.654 -127.55)" fill="#263238"/><path d="M246.975,131.081a.148.148,0,0,1-.09-.058.219.219,0,0,1,0-.309,2.1,2.1,0,0,1,1.934-.471.219.219,0,0,1,.148.271h0a.219.219,0,0,1-.277.135,1.708,1.708,0,0,0-1.509.38A.2.2,0,0,1,246.975,131.081Z" transform="translate(-221.755 -124.016)" fill="#263238"/><path d="M255.076,131.44a.206.206,0,0,1,0-.11.219.219,0,0,1,.271-.155,2.121,2.121,0,0,1,1.483,1.289.226.226,0,0,1-.148.277.219.219,0,0,1-.271-.148,1.689,1.689,0,0,0-1.18-1.025A.213.213,0,0,1,255.076,131.44Z" transform="translate(-224.685 -124.369)" fill="#263238"/></g><path d="M256.282,200.488l28.289.084a2.024,2.024,0,0,0,1.979-1.805l1.289-14.325a1.644,1.644,0,0,0-1.657-1.818l-28.289-.084a2.031,2.031,0,0,0-1.979,1.812l-1.289,14.319a1.644,1.644,0,0,0,1.657,1.818Z" transform="translate(-224.524 -138.464)" fill="#f8951d"/><path d="M256.282,200.488l28.289.084a2.024,2.024,0,0,0,1.979-1.805l1.289-14.325a1.644,1.644,0,0,0-1.657-1.818l-28.289-.084a2.031,2.031,0,0,0-1.979,1.812l-1.289,14.319a1.644,1.644,0,0,0,1.657,1.818Z" transform="translate(-224.524 -138.464)" opacity="0.3"/><path d="M257.575,200.4l28.289.084a2.024,2.024,0,0,0,1.979-1.812l1.289-14.319a1.638,1.638,0,0,0-1.65-1.818l-28.289-.084a2.037,2.037,0,0,0-1.979,1.812l-1.289,14.319a1.638,1.638,0,0,0,1.65,1.818Z" transform="translate(-224.986 -138.432)" fill="#f8951d"/><path d="M257.575,200.4l28.289.084a2.024,2.024,0,0,0,1.979-1.812l1.289-14.319a1.638,1.638,0,0,0-1.65-1.818l-28.289-.084a2.037,2.037,0,0,0-1.979,1.812l-1.289,14.319a1.638,1.638,0,0,0,1.65,1.818Z" transform="translate(-224.986 -138.432)" fill="#fff" opacity="0.2"/><path d="M282.573,195.536a2,2,0,1,1-1.786-2.192A2,2,0,0,1,282.573,195.536Z" transform="translate(-233.041 -142.299)" fill="#fff"/><path d="M285.97,210.322c0,.857-.509,1.554-1.128,1.554h0l-29.2-.116c-.316,0-.574-.348-.574-.774s.258-.787.574-.787Z" transform="translate(-224.685 -148.291)" fill="#f8951d"/><path d="M285.97,210.322c0,.857-.509,1.554-1.128,1.554h0l-29.2-.116c-.316,0-.574-.348-.574-.774s.258-.787.574-.787Z" transform="translate(-224.685 -148.291)" opacity="0.3"/><path d="M247.188,211.767H233.134a1.354,1.354,0,0,1-1.354-1.354h0a.206.206,0,0,1,.206-.213h15.2a.78.78,0,0,1,.78.787h0A.78.78,0,0,1,247.188,211.767Z" transform="translate(-216.41 -148.291)" fill="#f8951d"/><path d="M242.1,195.423l2.334-.683-.213,5.744s-5.067,1.193-5.383-1.141l.645-1.257C240.046,197,240.819,195.739,242.1,195.423Z" transform="translate(-218.919 -142.798)" fill="#ff8b7b"/><path d="M250.9,196.332l-.69,3.223-3.017.922.213-5.738Z" transform="translate(-221.886 -142.798)" fill="#ff8b7b"/><path d="M254.37,286.543l9.67,3.281,1.979-4-10.7-3.4Z" transform="translate(-224.437 -173.955)" fill="#f8951d"/><path d="M296.131,272.932l8.916-4.977-1.638-4.145-9.69,5.66Z" transform="translate(-238.418 -167.339)" fill="#f8951d"/><path d="M248.846,124.144a2.056,2.056,0,0,0,1.708-2.314,3.443,3.443,0,0,0-1.5-2.147,3.552,3.552,0,0,0-1.747-3.952,4.448,4.448,0,0,0-3.868-.284c0-1.167-2.147-1.934-3.526-.477a3.1,3.1,0,0,0-3.694.329,1.289,1.289,0,0,0-.413,1.244,3.049,3.049,0,0,0-2.5,4.739c.432.645,1.457.645,2.231.477a3.1,3.1,0,0,0,1.992,1.463c2.547.845,6.047.052,6.666,0a2.579,2.579,0,0,1,1.786.355,1.354,1.354,0,0,1-1.012.561,3.817,3.817,0,0,1-1.148-.058,4.016,4.016,0,0,0,2.927.6,13.632,13.632,0,0,1,1.341-.587A7.251,7.251,0,0,1,248.846,124.144Z" transform="translate(-216.772 -114.172)" fill="#263238"/></g></g></svg>