<svg xmlns="http://www.w3.org/2000/svg" width="250" height="219.1" viewBox="0 0 250 219.1"><g transform="translate(-56.11 -87.71)"><g transform="translate(56.11 292.214)"><ellipse cx="125" cy="7.298" rx="125" ry="7.298" fill="#f5f5f5"/></g><g transform="translate(124.045 87.71)"><path d="M321.592,191.474H167.51a5.963,5.963,0,0,1-6.009-6.4l5.648-90.954a6.931,6.931,0,0,1,6.8-6.408H328.032a5.97,5.97,0,0,1,6.009,6.408l-5.648,90.954A6.93,6.93,0,0,1,321.592,191.474Z" transform="translate(-161.485 -87.71)" fill="#f8951d"/><path d="M321.592,191.474H167.51a5.963,5.963,0,0,1-6.009-6.4l5.648-90.954a6.931,6.931,0,0,1,6.8-6.408H328.032a5.97,5.97,0,0,1,6.009,6.408l-5.648,90.954A6.93,6.93,0,0,1,321.592,191.474Z" transform="translate(-161.485 -87.71)" fill="#fff" opacity="0.8"/><path d="M190.407,121.741H172.059a1.683,1.683,0,0,1-1.7-1.812l.522-8.381a1.934,1.934,0,0,1,1.934-1.818h18.348Z" transform="translate(-164.636 -95.534)" fill="#fff" opacity="0.4"/><path d="M330.656,90.2H196.308a5.158,5.158,0,0,0-5.1,4.8l-1.289,20.869H171.565a1.934,1.934,0,0,0-1.934,1.818l-.484,7.865a1.683,1.683,0,0,0,1.7,1.818H189.2l-3.636,58.583a4.461,4.461,0,0,0,4.513,4.8H324.422a5.158,5.158,0,0,0,5.1-4.8L335.169,95a4.455,4.455,0,0,0-4.513-4.8Z" transform="translate(-164.205 -88.594)" fill="#fff"/><path d="M187.958,161.021H169.636a1.689,1.689,0,0,1-1.708-1.818l.49-7.865a1.934,1.934,0,0,1,1.934-1.818H188.7Z" transform="translate(-163.772 -109.671)" fill="#fff" opacity="0.4"/><path d="M186.774,180.521H168.426a1.689,1.689,0,0,1-1.708-1.818l.49-7.872a1.934,1.934,0,0,1,1.934-1.812h18.348Z" transform="translate(-163.342 -116.6)" fill="#fff" opacity="0.4"/><path d="M185.564,200.018H167.216a1.7,1.7,0,0,1-1.708-1.818l.49-7.872a1.966,1.966,0,0,1,1.934-1.818H186.28Z" transform="translate(-162.913 -123.524)" fill="#fff" opacity="0.4"/><path d="M184.353,219.5H166.037a1.689,1.689,0,0,1-1.741-1.837l.49-7.865a1.934,1.934,0,0,1,1.934-1.818h18.354Z" transform="translate(-162.481 -130.442)" fill="#fff" opacity="0.4"/><path d="M172.22,140.864a.729.729,0,0,1-.741-.793l.425-6.9a.954.954,0,0,1,.928-.877h15.55a.729.729,0,0,1,.741.793l-.426,6.911a.954.954,0,0,1-.928.87Z" transform="translate(-165.035 -103.549)" fill="#f8951d" opacity="0.2"/><path d="M239.167,103.6h-22.2a2.882,2.882,0,0,1-2.895-3.088h0a3.333,3.333,0,0,1,3.275-3.082h22.184a2.875,2.875,0,0,1,2.895,3.082h0A3.346,3.346,0,0,1,239.167,103.6Z" transform="translate(-180.168 -91.163)" fill="#f8951d" opacity="0.3"/><path d="M413.6,100.522a3.333,3.333,0,0,1-3.275,3.088,2.875,2.875,0,0,1-2.895-3.088A3.327,3.327,0,0,1,410.7,97.44a2.869,2.869,0,0,1,2.895,3.082Z" transform="translate(-248.866 -91.167)" fill="#f8951d"/><path d="M280.285,164.565H214.829a5.693,5.693,0,0,1-5.738-6.118l1.966-31.816a6.6,6.6,0,0,1,6.492-6.112h65.475a5.68,5.68,0,0,1,5.731,6.112l-1.973,31.809A6.615,6.615,0,0,1,280.285,164.565ZM217.53,120.791a6.312,6.312,0,0,0-6.208,5.847l-1.973,31.809a5.435,5.435,0,0,0,5.486,5.847H280.3a6.312,6.312,0,0,0,6.208-5.847l1.979-31.816a5.441,5.441,0,0,0-5.486-5.847Z" transform="translate(-178.394 -99.367)" fill="#f8951d" opacity="0.4"/><path d="M230.33,147.534l9.393,6.079a21.275,21.275,0,0,1,7.3-6.621L241.98,137A34.046,34.046,0,0,0,230.33,147.534Z" transform="translate(-185.946 -105.223)" fill="#f8951d"/><path d="M230.33,147.534l9.393,6.079a21.275,21.275,0,0,1,7.3-6.621L241.98,137A34.046,34.046,0,0,0,230.33,147.534Z" transform="translate(-185.946 -105.223)" fill="#fff" opacity="0.8"/><path d="M221.55,169.625h11.5a20.314,20.314,0,0,1,3.552-10.206l-9.393-6.079a32.415,32.415,0,0,0-5.66,16.285Z" transform="translate(-182.826 -111.028)" fill="#263238"/><path d="M263.833,130.76a32.119,32.119,0,0,0-15.473,4.01l5.048,10.006a20.186,20.186,0,0,1,9.67-2.508,17.961,17.961,0,0,1,18.135,19.341h11.5A28.58,28.58,0,0,0,263.833,130.76Z" transform="translate(-192.352 -103.006)" fill="#f8951d"/><path d="M241.895,205.046H208.177a.548.548,0,0,1-.548-.587l.148-2.372a.645.645,0,0,1,.645-.587H242.14Z" transform="translate(-177.88 -128.14)" fill="#f8951d"/><path d="M260.78,205.046h42.55a.645.645,0,0,0,.645-.587l.148-2.372a.548.548,0,0,0-.548-.587h-42.55Z" transform="translate(-196.765 -128.14)" fill="#f8951d" opacity="0.2"/><path d="M264.474,219.559h-57.2a.542.542,0,0,1-.548-.587l.148-2.366a.645.645,0,0,1,.645-.587h57.2Z" transform="translate(-177.56 -133.299)" fill="#f8951d"/><path d="M296.3,219.559h19.07a.645.645,0,0,0,.645-.587l.148-2.366a.542.542,0,0,0-.548-.587h-19.1Z" transform="translate(-209.385 -133.299)" fill="#f8951d" opacity="0.2"/><path d="M213.095,234.046h-6.718a.548.548,0,0,1-.548-.587l.148-2.372a.645.645,0,0,1,.645-.587h6.718Z" transform="translate(-177.24 -138.444)" fill="#f8951d"/><path d="M217.1,234.046h69.563a.645.645,0,0,0,.645-.587l.148-2.372a.548.548,0,0,0-.554-.587H217.319Z" transform="translate(-181.245 -138.444)" fill="#f8951d" opacity="0.2"/><path d="M348.631,195.188a.245.245,0,0,1-.251-.264L353,120.584a.284.284,0,0,1,.284-.264.245.245,0,0,1,.245.264L348.908,194.9A.284.284,0,0,1,348.631,195.188Z" transform="translate(-227.889 -99.296)" fill="#f8951d"/><path d="M354.866,149.959a1.934,1.934,0,0,1-1.889,1.779,1.657,1.657,0,0,1-1.67-1.779,1.934,1.934,0,0,1,1.9-1.779,1.644,1.644,0,0,1,1.663,1.779Z" transform="translate(-228.928 -109.195)" fill="#fff"/><path d="M352.812,151.854a1.934,1.934,0,0,1-1.934-2.044,2.211,2.211,0,0,1,2.173-2.05,1.934,1.934,0,0,1,1.934,2.05A2.2,2.2,0,0,1,352.812,151.854Zm.219-3.559a1.631,1.631,0,0,0-1.605,1.515,1.405,1.405,0,0,0,1.418,1.509,1.631,1.631,0,0,0,1.605-1.509,1.405,1.405,0,0,0-1.418-1.515Z" transform="translate(-228.776 -109.046)" fill="#f8951d"/><path d="M353.326,174.792a1.934,1.934,0,0,1-1.889,1.779,1.657,1.657,0,0,1-1.67-1.779A1.934,1.934,0,0,1,351.656,173a1.65,1.65,0,0,1,1.67,1.792Z" transform="translate(-228.381 -118.014)" fill="#fff"/><path d="M351.272,176.744a1.934,1.934,0,0,1-1.934-2.044,2.211,2.211,0,0,1,2.173-2.05,1.934,1.934,0,0,1,1.934,2.05A2.2,2.2,0,0,1,351.272,176.744Zm.219-3.559a1.631,1.631,0,0,0-1.605,1.515,1.4,1.4,0,0,0,1.418,1.509,1.631,1.631,0,0,0,1.605-1.509,1.405,1.405,0,0,0-1.418-1.547Z" transform="translate(-228.229 -117.889)" fill="#f8951d"/><path d="M350.483,187.86l-2.353,3.681h4.255Z" transform="translate(-227.801 -123.294)" fill="#fff"/><path d="M352.214,191.681h-4.255a.251.251,0,0,1-.219-.129.271.271,0,0,1,0-.271l2.36-3.681a.271.271,0,0,1,.458,0l1.934,3.681a.284.284,0,0,1-.258.4Zm-3.759-.529h3.307l-1.483-2.888Z" transform="translate(-227.649 -123.157)" fill="#f8951d"/><path d="M398.311,195.188a.245.245,0,0,1-.251-.264l4.616-74.34a.284.284,0,0,1,.284-.264.245.245,0,0,1,.251.264L398.595,194.9a.29.29,0,0,1-.284.29Z" transform="translate(-245.541 -99.296)" fill="#f8951d"/><path d="M401.706,195.729a1.65,1.65,0,0,0-1.663-1.779,1.934,1.934,0,0,0-1.9,1.779,1.657,1.657,0,0,0,1.67,1.779,1.934,1.934,0,0,0,1.889-1.779Z" transform="translate(-245.571 -125.457)" fill="#fff"/><path d="M399.652,197.627a1.934,1.934,0,0,1-1.934-2.044,2.2,2.2,0,0,1,2.173-2.044,1.934,1.934,0,0,1,1.934,2.044A2.2,2.2,0,0,1,399.652,197.627Zm.219-3.559a1.637,1.637,0,0,0-1.605,1.515,1.412,1.412,0,0,0,1.418,1.515,1.638,1.638,0,0,0,1.605-1.515,1.412,1.412,0,0,0-1.418-1.515Z" transform="translate(-245.419 -125.312)" fill="#f8951d"/><path d="M405.563,133.619a1.65,1.65,0,0,0-1.67-1.779,1.934,1.934,0,0,0-1.9,1.779,1.657,1.657,0,0,0,1.67,1.779A1.934,1.934,0,0,0,405.563,133.619Z" transform="translate(-246.939 -103.389)" fill="#fff"/><path d="M403.5,135.514a1.9,1.9,0,0,1-1.934-2.044,2.211,2.211,0,0,1,2.173-2.05,1.934,1.934,0,0,1,1.934,2.05,2.211,2.211,0,0,1-2.173,2.044Zm.226-3.559a1.631,1.631,0,0,0-1.605,1.515,1.4,1.4,0,0,0,1.418,1.509,1.631,1.631,0,0,0,1.605-1.509,1.405,1.405,0,0,0-1.418-1.515Z" transform="translate(-246.785 -103.24)" fill="#f8951d"/><path d="M401.6,166.888l-1.9-3.688h4.249Z" transform="translate(-246.124 -114.532)" fill="#fff"/><path d="M401.423,167.006a.245.245,0,0,1-.219-.135l-1.9-3.681a.277.277,0,0,1,0-.264.284.284,0,0,1,.239-.135H403.8a.251.251,0,0,1,.226.135.277.277,0,0,1,0,.264l-2.347,3.681A.3.3,0,0,1,401.423,167.006Zm-1.431-3.681,1.483,2.882,1.844-2.882Z" transform="translate(-245.97 -114.386)" fill="#f8951d"/><path d="M373.471,195.188a.245.245,0,0,1-.251-.264l4.616-74.34a.284.284,0,0,1,.284-.264.239.239,0,0,1,.245.264l-4.61,74.314a.29.29,0,0,1-.284.29Z" transform="translate(-236.715 -99.296)" fill="#f8951d"/><path d="M379.276,157.019a1.934,1.934,0,0,1-1.9,1.779,1.644,1.644,0,0,1-1.663-1.779,1.934,1.934,0,0,1,1.889-1.779,1.657,1.657,0,0,1,1.67,1.779Z" transform="translate(-237.601 -111.703)" fill="#fff"/><path d="M377.212,158.944a1.934,1.934,0,0,1-1.934-2.05,2.2,2.2,0,0,1,2.173-2.044,1.934,1.934,0,0,1,1.934,2.044A2.211,2.211,0,0,1,377.212,158.944Zm.219-3.565a1.637,1.637,0,0,0-1.605,1.515,1.412,1.412,0,0,0,1.418,1.515,1.638,1.638,0,0,0,1.605-1.515,1.405,1.405,0,0,0-1.418-1.515Z" transform="translate(-237.445 -111.565)" fill="#f8951d"/><path d="M375.846,212.279a1.934,1.934,0,0,1-1.889,1.779,1.65,1.65,0,0,1-1.67-1.779,1.934,1.934,0,0,1,1.889-1.779,1.657,1.657,0,0,1,1.67,1.779Z" transform="translate(-236.382 -131.338)" fill="#fff"/><path d="M373.782,214.174a1.934,1.934,0,0,1-1.934-2.044,2.211,2.211,0,0,1,2.173-2.05,1.934,1.934,0,0,1,1.934,2.05A2.2,2.2,0,0,1,373.782,214.174Zm.219-3.559a1.631,1.631,0,0,0-1.605,1.515,1.405,1.405,0,0,0,1.418,1.509,1.631,1.631,0,0,0,1.605-1.509A1.405,1.405,0,0,0,374,210.615Z" transform="translate(-236.227 -131.188)" fill="#f8951d"/><path d="M379.16,126.12l-2.36,3.688h4.255Z" transform="translate(-237.987 -101.357)" fill="#fff"/><path d="M380.886,129.932h-4.249a.251.251,0,0,1-.226-.135.277.277,0,0,1,0-.264l2.353-3.681a.277.277,0,0,1,.464,0l1.9,3.681a.258.258,0,0,1,0,.264A.3.3,0,0,1,380.886,129.932Zm-3.752-.535h3.327l-1.489-2.85Z" transform="translate(-237.837 -101.217)" fill="#f8951d"/></g><g transform="translate(61.493 91.042)"><path d="M102.752,151.232l-.645,3.14-.645,3.223c-.425,2.14-.787,4.281-1.115,6.382-.168,1.051-.3,2.089-.406,3.114s-.206,2.018-.258,2.979a25.791,25.791,0,0,0,0,2.63c0,.754.168,1.4.135,1.47l-.432-.741c-.193-.193-.548-.374-.606-.29s.168.232.58.342a8.708,8.708,0,0,0,1.618.226,19.17,19.17,0,0,0,2.076-.052,42.449,42.449,0,0,0,4.661-.645c.806-.155,1.625-.316,2.437-.5l2.411-.522.322-.071a3.385,3.385,0,0,1,2.734,6.021l-1.206.89-1.186.812c-.812.516-1.631,1.019-2.482,1.483a35.649,35.649,0,0,1-5.454,2.437,26.487,26.487,0,0,1-3.14.845,17.046,17.046,0,0,1-3.668.348,13,13,0,0,1-4.513-.864,10.586,10.586,0,0,1-4.642-3.617,4.872,4.872,0,0,1-.335-.554l-.1-.187a18.051,18.051,0,0,1-1.644-5.158,30.431,30.431,0,0,1-.413-4.268q-.071-2.018,0-3.933T87.1,162.4c.219-2.476.587-4.887,1.006-7.279.219-1.193.438-2.379.709-3.559.129-.593.258-1.186.406-1.779l.477-1.824a6.75,6.75,0,0,1,13.145,3.049Z" transform="translate(-72.399 -110.66)" fill="#f8951d"/><path d="M102.752,151.232l-.645,3.14-.645,3.223c-.425,2.14-.787,4.281-1.115,6.382-.168,1.051-.3,2.089-.406,3.114s-.206,2.018-.258,2.979a25.791,25.791,0,0,0,0,2.63c0,.754.168,1.4.135,1.47l-.432-.741c-.193-.193-.548-.374-.606-.29s.168.232.58.342a8.708,8.708,0,0,0,1.618.226,19.17,19.17,0,0,0,2.076-.052,42.449,42.449,0,0,0,4.661-.645c.806-.155,1.625-.316,2.437-.5l2.411-.522.322-.071a3.385,3.385,0,0,1,2.734,6.021l-1.206.89-1.186.812c-.812.516-1.631,1.019-2.482,1.483a35.649,35.649,0,0,1-5.454,2.437,26.487,26.487,0,0,1-3.14.845,17.046,17.046,0,0,1-3.668.348,13,13,0,0,1-4.513-.864,10.586,10.586,0,0,1-4.642-3.617,4.872,4.872,0,0,1-.335-.554l-.1-.187a18.051,18.051,0,0,1-1.644-5.158,30.431,30.431,0,0,1-.413-4.268q-.071-2.018,0-3.933T87.1,162.4c.219-2.476.587-4.887,1.006-7.279.219-1.193.438-2.379.709-3.559.129-.593.258-1.186.406-1.779l.477-1.824a6.75,6.75,0,0,1,13.145,3.049Z" transform="translate(-72.399 -110.66)" opacity="0.2"/><path d="M78.5,406.144s-6.1-5.531-5.951-7.285l-5.067-2.579-3.017,5.209,2.8,1.567.774-.251.509.883c2.527,1.289,8.046,3.81,9.973,3.739A1.238,1.238,0,0,0,78.5,406.144Z" transform="translate(-64.46 -200.679)" fill="#263238"/><path d="M80.33,278.977c3.688-26.432,2.482-42.466,6.357-55.482l23.983-1.934S100.038,263.465,95.2,280.911s-20.134,57-20.134,57L68.39,334.5S73.838,299.413,80.33,278.977Z" transform="translate(-65.856 -138.6)" fill="#263238"/><path d="M114.6,251.87c-1.631,3.771-4.816,27.993-4.8,40.087a1.151,1.151,0,0,1,.077-.271c1.708-6.131,4.139-15.292,6.563-24.582Z" transform="translate(-80.569 -149.369)" opacity="0.2"/><path d="M136.5,410.788s-9.948-2.256-10.405-3.868h-6.312l-.522,6.015h3.507l.645-.554.787.554c2.837,0,11.037,0,12.8-1.031C137.015,410.988,136.5,410.788,136.5,410.788Z" transform="translate(-83.931 -204.459)" fill="#263238"/><path d="M116.967,279.626C111.7,243.839,111.7,221.68,111.7,221.68l23.467-.38s-2.817,42.679-3.8,60.556c-1.012,18.587-6.814,59.5-6.814,59.5h-8.149S114.472,302.609,116.967,279.626Z" transform="translate(-81.245 -138.508)" fill="#263238"/><path d="M113.433,117.67c-1.115,7.021-3.14,10.786-4.513,14.274a19.789,19.789,0,0,0,12.546,4.861c5.112-.071,4.184-3.533,2.811-5.319-3.668-1.85-3.81-3.72-2.914-5.357Z" transform="translate(-80.257 -101.687)" fill="#7f3e3b"/><path d="M102.32,138.783s3.262-3.836,4.552-4.481,11.044.645,13.345,1.109,5.106,3.868,5.106,3.868Z" transform="translate(-77.912 -107.534)" fill="#263238"/><path d="M140.983,116.357c-.1.464.058.89.361.954s.645-.258.735-.722-.058-.89-.361-.954S141.073,115.867,140.983,116.357Z" transform="translate(-91.638 -100.961)" fill="#263238"/><path d="M140.17,117.75a16.814,16.814,0,0,0,1.328,4.429,2.742,2.742,0,0,1-2.308-.064Z" transform="translate(-91.012 -101.716)" fill="#630f0f"/><path d="M141.977,112.2a.264.264,0,0,1-.258,0,2.186,2.186,0,0,0-2.005.064.271.271,0,0,1-.38-.077.277.277,0,0,1,.077-.387,2.727,2.727,0,0,1,2.527-.116.277.277,0,0,1,.142.367A.245.245,0,0,1,141.977,112.2Z" transform="translate(-91.046 -99.471)" fill="#263238"/><path d="M116.655,105.7c-.922,5.751-1.76,9.071.464,12.6,3.34,5.312,10.96,4.229,13.584-1.148,2.372-4.835,3.488-13.429-1.58-16.885a8.033,8.033,0,0,0-12.468,5.428Z" transform="translate(-82.667 -95.009)" fill="#7f3e3b"/><path d="M125.091,109.074c4.655,1.006,3.3-4.745,2.186-5.319,2.8,1.676,4.655-.271,4.513-2.024,2.14-.355,2.031-3.868.561-3.978-.928-2.43-5.267-4.474-6.073-2.972-2.34-2.721-8.607-2.256-7.7-.284-2.379-.464-7.446-.251-5.751,3.333-3.617.464-3.443,6.653-1.083,7.3-2.469,1.367-.077,6.034.986,8.961S124.4,114.412,125.091,109.074Z" transform="translate(-80.652 -92.879)" fill="#263238"/><path d="M129.245,115.871a4.906,4.906,0,0,0,.761,3.514c.909,1.289,2.314.484,2.862-1.07.49-1.393.606-3.739-.69-4.442S129.483,114.3,129.245,115.871Z" transform="translate(-87.455 -100.262)" fill="#7f3e3b"/><path d="M98.731,139.988a104.113,104.113,0,0,1,26.645.413,8.491,8.491,0,0,1,6.988,7.685c.928,11.392-1.592,31.3-3.771,51.344-17.568,5.893-35.4-.084-35.4-.084-.393-4.042,1.786-17.291,3.146-24.363-1-7.3-3.533-15.66-4.958-25.362a8.478,8.478,0,0,1,7.35-9.632Z" transform="translate(-73.994 -109.383)" fill="#f8951d"/><path d="M139.84,165.09c1.2,6.86,5,15.034,8.471,20.443.477-4.739.877-9.251,1.128-13.416Z" transform="translate(-91.243 -118.536)" opacity="0.2"/><path d="M219.3,139.455A11.457,11.457,0,0,0,207.015,158.8c-1.148,1.547-4.513,6.092-5.538,7.846-1.289,2.121-1.934,4.029-1.044,4.558s2.244-.973,3.5-3.095c1.044-1.747,3.443-6.866,4.249-8.62A11.456,11.456,0,0,0,219.3,139.461Zm2.753,14.976a10.012,10.012,0,1,1,1.106-7.593A10.019,10.019,0,0,1,222.056,154.431Z" transform="translate(-112.625 -108.792)" fill="#f8951d"/><path d="M224.1,155.3a10.567,10.567,0,1,1-3.681-14.48A10.567,10.567,0,0,1,224.1,155.3Z" transform="translate(-114.198 -109.385)" fill="#f8951d" opacity="0.2"/><path d="M204.083,178.676l-1.4-1.238a2.166,2.166,0,0,0-1.934-.49l-3.223.735a4.049,4.049,0,0,0-2.837,2.4l-.309.748c2.173,2.211,6.15,3,6.15,3l1.115.348a1.8,1.8,0,0,0,2.3-1.135l.729-2.186a2.108,2.108,0,0,0-.593-2.186Z" transform="translate(-110.621 -122.729)" fill="#7f3e3b"/><path d="M147.271,146.923l1.289,2.83,1.36,2.888c.909,1.934,1.87,3.8,2.83,5.622q.729,1.367,1.5,2.65c.5.857,1.006,1.683,1.521,2.443a25.045,25.045,0,0,0,1.515,2.011c.451.554.915.954.928,1.019l-.8-.329a7.736,7.736,0,0,0,2.811.709,27.759,27.759,0,0,0,4.107.052c1.47-.064,2.985-.219,4.513-.4.767-.1,1.547-.187,2.327-.3l2.308-.309.316-.045a3.391,3.391,0,0,1,2.321,6.189l-1.173.774-1.154.7c-.78.445-1.567.877-2.379,1.289s-1.631.78-2.476,1.128-1.715.645-2.579.961a29.658,29.658,0,0,1-5.738,1.289,18.226,18.226,0,0,1-7-.426,3.1,3.1,0,0,1-.484-.181l-.309-.148a17.207,17.207,0,0,1-4.423-3.056,30.258,30.258,0,0,1-2.888-3.107,53.556,53.556,0,0,1-4.345-6.215c-1.289-2.082-2.411-4.2-3.475-6.318-.522-1.07-1.044-2.134-1.521-3.223-.239-.542-.484-1.09-.709-1.638l-.7-1.721a6.749,6.749,0,1,1,12.392-5.352Z" transform="translate(-89.242 -110.555)" fill="#f8951d"/></g><g transform="translate(229.24 198.712)"><path d="M350.979,342.006c-.993-7.794,3.352-14.08,7.556-20.166,4.945-7.156,10.057-14.551,7.034-24.7a21.275,21.275,0,0,0-4.068-7.588,26.355,26.355,0,0,1-8.865,11.6c-5.609,4.178-12.249,5.493-16.872,3.359-2.611-1.2-5.8-4.029-6.286-10.657-.477-6.782,3.462-11.6,10.528-12.894a24.126,24.126,0,0,1,21.275,7.356,28.038,28.038,0,0,0,1.186-13.055l.645-.09a28.516,28.516,0,0,1-1.335,13.693,21.882,21.882,0,0,1,4.41,8.117c3.114,10.444-2.089,17.974-7.124,25.253-4.326,6.26-8.381,12.172-7.446,19.715Zm-7.3-60.73a20.117,20.117,0,0,0-3.552.309c-6.711,1.218-10.451,5.8-10.006,12.2.348,5,2.392,8.5,5.918,10.115,4.429,2.037,10.8.748,16.221-3.288a25.736,25.736,0,0,0,8.768-11.6A23.718,23.718,0,0,0,343.675,281.275Z" transform="translate(-326.356 -265.318)" fill="#263238"/><path d="M379.083,272c-5.106-4.558-5.693-10.573-2.7-11.843C380.527,258.393,382.074,265.717,379.083,272Z" transform="translate(-342.391 -259.888)" fill="#f8951d"/><path d="M374.046,339.526c-3.649-5.8-3.868-13.036.587-13.539C378.688,325.51,379.577,332.382,374.046,339.526Z" transform="translate(-341.229 -283.365)" fill="#f8951d"/><path d="M381.674,277.759c-.7-4.326,1.425-7.549,3.423-6.976C387.863,271.576,385.7,275.838,381.674,277.759Z" transform="translate(-344.866 -263.736)" fill="#f8951d"/><path d="M365.568,308.957c-2.237-4.822-.806-9.29,1.721-9.277C370.783,299.706,369.629,305.4,365.568,308.957Z" transform="translate(-338.797 -274.026)" fill="#f8951d"/><path d="M348.712,281.518c-4.6.78-8.059-1.47-7.459-3.6C342.084,274.955,346.642,277.25,348.712,281.518Z" transform="translate(-330.529 -265.818)" fill="#f8951d"/><path d="M351.429,281.757c-2.824-1.509-3.223-3.752-1.779-4.352C351.681,276.574,352.648,279.275,351.429,281.757Z" transform="translate(-333.247 -266.057)" fill="#f8951d"/><path d="M387.037,311.505c-1.115-3.011.064-4.964,1.554-4.442C390.66,307.792,389.6,310.448,387.037,311.505Z" transform="translate(-346.664 -276.62)" fill="#f8951d"/><path d="M328.817,308.882c-3.191.348-4.8-1.289-3.926-2.579C326.1,304.459,328.424,306.142,328.817,308.882Z" transform="translate(-324.656 -276.104)" fill="#f8951d"/><rect width="11.295" height="0.645" transform="matrix(0.135, -0.991, 0.991, 0.135, 43.547, 87.798)" fill="#f8951d"/><rect width="5.461" height="0.645" transform="matrix(0.135, -0.991, 0.991, 0.135, 42.394, 96.053)" fill="#f8951d"/><path d="M343.99,369.986l3.733,27.3A1.992,1.992,0,0,0,349.7,399h20.153a1.992,1.992,0,0,0,1.973-1.721l3.733-27.3a1.992,1.992,0,0,0-1.973-2.256H345.924a1.992,1.992,0,0,0-1.934,2.256Z" transform="translate(-331.519 -298.205)" fill="#f8951d"/></g></g></svg>