<svg xmlns="http://www.w3.org/2000/svg" width="250" height="184.513" viewBox="0 0 250 184.513"><g transform="translate(-31.86 -57.332)"><g transform="translate(179.537 64.244)"><path d="M310.169,106.628a18.569,18.569,0,1,1,18.569-18.569A18.569,18.569,0,0,1,310.169,106.628Zm0-36.57a18,18,0,1,0,18,18A18,18,0,0,0,310.169,70.059Z" transform="translate(-291.6 -69.49)" fill="#263238"/><path d="M312.124,106.008a16,16,0,1,1,16-16A16,16,0,0,1,312.124,106.008Zm0-31.43a15.435,15.435,0,1,0,0-.006Z" transform="translate(-293.554 -71.44)" fill="#263238"/><path d="M317.785,108.325a.324.324,0,0,1-.142-.034.29.29,0,0,1-.1-.392l3.542-6.106a.284.284,0,0,1,.244-.142h10.9a.284.284,0,1,1,0,.569H321.51l-3.463,5.97A.29.29,0,0,1,317.785,108.325Z" transform="translate(-302.776 -83.365)" fill="#263238"/></g><g transform="translate(60.777 78.219)"><path d="M113.706,121.418H83a.284.284,0,0,1-.284-.284V94.354A.284.284,0,0,1,83,94.07h30.7a.284.284,0,0,1,.284.284v26.779A.284.284,0,0,1,113.706,121.418Zm-30.435-.569H113.4V94.639H83.272Z" transform="translate(-82.72 -94.07)" fill="#263238"/><path d="M90.983,111.565H88.464a.284.284,0,0,1-.284-.284v-2.5a.29.29,0,0,1,.284-.284h2.519a.284.284,0,0,1,.284.284V111.3A.284.284,0,0,1,90.983,111.565ZM88.749,111H90.7v-1.95h-1.95Z" transform="translate(-85.076 -100.296)" fill="#263238"/><path d="M97.523,111.565H95a.284.284,0,0,1-.284-.284v-2.5A.29.29,0,0,1,95,108.5h2.519a.284.284,0,0,1,.284.284V111.3A.284.284,0,0,1,97.523,111.565ZM95.289,111h1.95v-1.95h-1.95Z" transform="translate(-87.897 -100.296)" fill="#263238"/><path d="M104.063,111.565h-2.519a.284.284,0,0,1-.284-.284v-2.5a.29.29,0,0,1,.284-.284h2.519a.284.284,0,0,1,.284.284V111.3A.284.284,0,0,1,104.063,111.565ZM101.829,111h1.95v-1.95h-1.95Z" transform="translate(-90.719 -100.296)" fill="#263238"/><path d="M110.6,111.565h-2.519a.284.284,0,0,1-.284-.284v-2.5a.29.29,0,0,1,.284-.284H110.6a.284.284,0,0,1,.284.284V111.3A.284.284,0,0,1,110.6,111.565ZM108.369,111h1.95v-1.95h-1.95Z" transform="translate(-93.541 -100.296)" fill="#263238"/><path d="M117.143,111.565h-2.519a.284.284,0,0,1-.284-.284v-2.5a.29.29,0,0,1,.284-.284h2.519a.284.284,0,0,1,.284.284V111.3A.284.284,0,0,1,117.143,111.565ZM114.909,111h1.95v-1.95h-1.95Z" transform="translate(-96.362 -100.296)" fill="#263238"/><path d="M123.683,111.565h-2.519a.284.284,0,0,1-.284-.284v-2.5a.29.29,0,0,1,.284-.284h2.519a.284.284,0,0,1,.284.284V111.3A.284.284,0,0,1,123.683,111.565ZM121.449,111h1.95v-1.95h-1.95Z" transform="translate(-99.184 -100.296)" fill="#263238"/><path d="M130.223,111.565H127.7a.284.284,0,0,1-.284-.284v-2.5a.29.29,0,0,1,.284-.284h2.519a.284.284,0,0,1,.284.284V111.3A.284.284,0,0,1,130.223,111.565ZM127.989,111h1.95v-1.95h-1.95Z" transform="translate(-102.006 -100.296)" fill="#263238"/><path d="M90.983,118.857H88.464a.284.284,0,0,1-.284-.284v-2.519a.284.284,0,0,1,.284-.284h2.519a.284.284,0,0,1,.284.284v2.519A.284.284,0,0,1,90.983,118.857Zm-2.234-.569H90.7v-1.95h-1.95Z" transform="translate(-85.076 -103.432)" fill="#263238"/><path d="M97.523,118.857H95a.284.284,0,0,1-.284-.284v-2.519A.284.284,0,0,1,95,115.77h2.519a.284.284,0,0,1,.284.284v2.519A.284.284,0,0,1,97.523,118.857Zm-2.234-.569h1.95v-1.95h-1.95Z" transform="translate(-87.897 -103.432)" fill="#263238"/><path d="M104.063,118.857h-2.519a.284.284,0,0,1-.284-.284v-2.519a.284.284,0,0,1,.284-.284h2.519a.284.284,0,0,1,.284.284v2.519A.284.284,0,0,1,104.063,118.857Zm-2.234-.569h1.95v-1.95h-1.95Z" transform="translate(-90.719 -103.432)" fill="#263238"/><path d="M110.6,118.857h-2.519a.284.284,0,0,1-.284-.284v-2.519a.284.284,0,0,1,.284-.284H110.6a.284.284,0,0,1,.284.284v2.519A.284.284,0,0,1,110.6,118.857Zm-2.234-.569h1.95v-1.95h-1.95Z" transform="translate(-93.541 -103.432)" fill="#263238"/><path d="M117.143,118.857h-2.519a.284.284,0,0,1-.284-.284v-2.519a.284.284,0,0,1,.284-.284h2.519a.284.284,0,0,1,.284.284v2.519A.284.284,0,0,1,117.143,118.857Zm-2.234-.569h1.95v-1.95h-1.95Z" transform="translate(-96.362 -103.432)" fill="#263238"/><path d="M123.683,118.857h-2.519a.284.284,0,0,1-.284-.284v-2.519a.284.284,0,0,1,.284-.284h2.519a.284.284,0,0,1,.284.284v2.519A.284.284,0,0,1,123.683,118.857Zm-2.234-.569h1.95v-1.95h-1.95Z" transform="translate(-99.184 -103.432)" fill="#263238"/><path d="M130.223,118.857H127.7a.284.284,0,0,1-.284-.284v-2.519a.284.284,0,0,1,.284-.284h2.519a.284.284,0,0,1,.284.284v2.519A.284.284,0,0,1,130.223,118.857Zm-2.234-.569h1.95v-1.95h-1.95Z" transform="translate(-102.006 -103.432)" fill="#263238"/><path d="M90.983,126.167H88.464a.29.29,0,0,1-.284-.284v-2.519a.284.284,0,0,1,.284-.284h2.519a.284.284,0,0,1,.284.284v2.513a.284.284,0,0,1-.284.29Zm-2.234-.569H90.7v-1.95h-1.95Z" transform="translate(-85.076 -106.586)" fill="#263238"/><path d="M97.523,126.167H95a.29.29,0,0,1-.284-.284v-2.519A.284.284,0,0,1,95,123.08h2.519a.284.284,0,0,1,.284.284v2.513a.284.284,0,0,1-.284.29Zm-2.234-.569h1.95v-1.95h-1.95Z" transform="translate(-87.897 -106.586)" fill="#263238"/><path d="M104.063,126.167h-2.519a.29.29,0,0,1-.284-.284v-2.519a.284.284,0,0,1,.284-.284h2.519a.284.284,0,0,1,.284.284v2.513a.284.284,0,0,1-.284.29Zm-2.234-.569h1.95v-1.95h-1.95Z" transform="translate(-90.719 -106.586)" fill="#263238"/><path d="M110.6,126.167h-2.519a.29.29,0,0,1-.284-.284v-2.519a.284.284,0,0,1,.284-.284H110.6a.284.284,0,0,1,.284.284v2.513a.284.284,0,0,1-.284.29Zm-2.234-.569h1.95v-1.95h-1.95Z" transform="translate(-93.541 -106.586)" fill="#263238"/><path d="M117.143,126.167h-2.519a.29.29,0,0,1-.284-.284v-2.519a.284.284,0,0,1,.284-.284h2.519a.284.284,0,0,1,.284.284v2.513a.284.284,0,0,1-.284.29Zm-2.234-.569h1.95v-1.95h-1.95Z" transform="translate(-96.362 -106.586)" fill="#263238"/><path d="M123.683,126.167h-2.519a.29.29,0,0,1-.284-.284v-2.519a.284.284,0,0,1,.284-.284h2.519a.284.284,0,0,1,.284.284v2.513a.284.284,0,0,1-.284.29Zm-2.234-.569h1.95v-1.95h-1.95Z" transform="translate(-99.184 -106.586)" fill="#263238"/><path d="M130.223,126.167H127.7a.29.29,0,0,1-.284-.284v-2.519a.284.284,0,0,1,.284-.284h2.519a.284.284,0,0,1,.284.284v2.513a.284.284,0,0,1-.284.29Zm-2.234-.569h1.95v-1.95h-1.95Z" transform="translate(-102.006 -106.586)" fill="#263238"/><path d="M90.983,133.467H88.464a.284.284,0,0,1-.284-.284v-2.519a.29.29,0,0,1,.284-.284h2.519a.284.284,0,0,1,.284.284v2.519A.284.284,0,0,1,90.983,133.467Zm-2.234-.569H90.7v-1.95h-1.95Z" transform="translate(-85.076 -109.736)" fill="#263238"/><path d="M97.523,133.467H95a.284.284,0,0,1-.284-.284v-2.519A.29.29,0,0,1,95,130.38h2.519a.284.284,0,0,1,.284.284v2.519A.284.284,0,0,1,97.523,133.467Zm-2.234-.569h1.95v-1.95h-1.95Z" transform="translate(-87.897 -109.736)" fill="#263238"/><path d="M104.063,133.467h-2.519a.284.284,0,0,1-.284-.284v-2.519a.29.29,0,0,1,.284-.284h2.519a.284.284,0,0,1,.284.284v2.519A.284.284,0,0,1,104.063,133.467Zm-2.234-.569h1.95v-1.95h-1.95Z" transform="translate(-90.719 -109.736)" fill="#263238"/><path d="M110.6,133.467h-2.519a.284.284,0,0,1-.284-.284v-2.519a.29.29,0,0,1,.284-.284H110.6a.284.284,0,0,1,.284.284v2.519A.284.284,0,0,1,110.6,133.467Zm-2.234-.569h1.95v-1.95h-1.95Z" transform="translate(-93.541 -109.736)" fill="#263238"/><path d="M117.143,133.467h-2.519a.284.284,0,0,1-.284-.284v-2.519a.29.29,0,0,1,.284-.284h2.519a.284.284,0,0,1,.284.284v2.519A.284.284,0,0,1,117.143,133.467Zm-2.234-.569h1.95v-1.95h-1.95Z" transform="translate(-96.362 -109.736)" fill="#263238"/><path d="M123.683,133.467h-2.519a.284.284,0,0,1-.284-.284v-2.519a.29.29,0,0,1,.284-.284h2.519a.284.284,0,0,1,.284.284v2.519A.284.284,0,0,1,123.683,133.467Zm-2.234-.569h1.95v-1.95h-1.95Z" transform="translate(-99.184 -109.736)" fill="#263238"/><path d="M130.223,133.467H127.7a.284.284,0,0,1-.284-.284v-2.519a.29.29,0,0,1,.284-.284h2.519a.284.284,0,0,1,.284.284v2.519A.284.284,0,0,1,130.223,133.467Zm-2.234-.569h1.95v-1.95h-1.95Z" transform="translate(-102.006 -109.736)" fill="#263238"/><path d="M112.932,101.479H88.484a.284.284,0,0,1-.284-.284.29.29,0,0,1,.284-.284h24.448a.29.29,0,0,1,.284.284A.284.284,0,0,1,112.932,101.479Z" transform="translate(-85.084 -97.021)" fill="#263238"/><path d="M404.236,242.4H385.6a.29.29,0,0,1-.284-.284V225.874a.284.284,0,0,1,.284-.284h18.632a.284.284,0,0,1,.284.284v16.238a.29.29,0,0,1-.284.284Zm-18.347-.569h18.063V226.159H385.889Z" transform="translate(-213.275 -150.813)" fill="#263238"/><path d="M390.468,236.408h-1.524a.284.284,0,0,1-.284-.284v-1.529a.284.284,0,0,1,.284-.284h1.524a.284.284,0,0,1,.284.284v1.529A.284.284,0,0,1,390.468,236.408Zm-1.239-.569h.955v-.961h-.955Z" transform="translate(-214.716 -154.576)" fill="#263238"/><path d="M394.434,236.408H392.9a.284.284,0,0,1-.284-.284v-1.529a.29.29,0,0,1,.284-.284h1.529a.284.284,0,0,1,.284.284v1.529A.284.284,0,0,1,394.434,236.408Zm-1.245-.569h.961v-.961h-.961Z" transform="translate(-216.424 -154.576)" fill="#263238"/><path d="M398.4,236.408h-1.524a.284.284,0,0,1-.284-.284v-1.529a.284.284,0,0,1,.284-.284H398.4a.284.284,0,0,1,.284.284v1.529A.284.284,0,0,1,398.4,236.408Zm-1.239-.569h.955v-.961h-.955Z" transform="translate(-218.137 -154.576)" fill="#263238"/><path d="M402.364,236.408h-1.529a.284.284,0,0,1-.284-.284v-1.529a.29.29,0,0,1,.284-.284h1.529a.284.284,0,0,1,.284.284v1.529A.284.284,0,0,1,402.364,236.408Zm-1.245-.569h.961v-.961h-.961Z" transform="translate(-219.846 -154.576)" fill="#263238"/><path d="M406.319,236.408h-1.535a.284.284,0,0,1-.284-.284v-1.529a.284.284,0,0,1,.284-.284h1.524a.284.284,0,0,1,.284.284v1.529A.284.284,0,0,1,406.319,236.408Zm-1.239-.569h.955v-.961h-.955Z" transform="translate(-221.55 -154.576)" fill="#263238"/><path d="M410.3,236.408h-1.518a.284.284,0,0,1-.284-.284v-1.529a.29.29,0,0,1,.284-.284h1.529a.284.284,0,0,1,.284.284v1.529a.284.284,0,0,1-.3.284Zm-1.245-.569h.961v-.961h-.961Z" transform="translate(-223.276 -154.576)" fill="#263238"/><path d="M414.28,236.408h-1.5a.284.284,0,0,1-.284-.284v-1.529a.284.284,0,0,1,.284-.284h1.524a.284.284,0,0,1,.284.284v1.529a.284.284,0,0,1-.313.284Zm-1.239-.569H414v-.961h-.955Z" transform="translate(-225.001 -154.576)" fill="#263238"/><path d="M390.468,240.838h-1.524a.284.284,0,0,1-.284-.284v-1.529a.284.284,0,0,1,.284-.284h1.524a.284.284,0,0,1,.284.284v1.529A.284.284,0,0,1,390.468,240.838Zm-1.239-.569h.955v-.961h-.955Z" transform="translate(-214.716 -156.487)" fill="#263238"/><path d="M394.434,240.838H392.9a.284.284,0,0,1-.284-.284v-1.529a.29.29,0,0,1,.284-.284h1.529a.284.284,0,0,1,.284.284v1.529A.284.284,0,0,1,394.434,240.838Zm-1.245-.569h.961v-.961h-.961Z" transform="translate(-216.424 -156.487)" fill="#263238"/><path d="M398.4,240.838h-1.524a.284.284,0,0,1-.284-.284v-1.529a.284.284,0,0,1,.284-.284H398.4a.284.284,0,0,1,.284.284v1.529A.284.284,0,0,1,398.4,240.838Zm-1.239-.569h.955v-.961h-.955Z" transform="translate(-218.137 -156.487)" fill="#263238"/><path d="M402.364,240.838h-1.529a.284.284,0,0,1-.284-.284v-1.529a.29.29,0,0,1,.284-.284h1.529a.284.284,0,0,1,.284.284v1.529A.284.284,0,0,1,402.364,240.838Zm-1.245-.569h.961v-.961h-.961Z" transform="translate(-219.846 -156.487)" fill="#263238"/><path d="M406.319,240.838h-1.535a.284.284,0,0,1-.284-.284v-1.529a.284.284,0,0,1,.284-.284h1.524a.284.284,0,0,1,.284.284v1.529A.284.284,0,0,1,406.319,240.838Zm-1.239-.569h.955v-.961h-.955Z" transform="translate(-221.55 -156.487)" fill="#263238"/><path d="M410.3,240.838h-1.518a.284.284,0,0,1-.284-.284v-1.529a.29.29,0,0,1,.284-.284h1.529a.284.284,0,0,1,.284.284v1.529a.284.284,0,0,1-.3.284Zm-1.245-.569h.961v-.961h-.961Z" transform="translate(-223.276 -156.487)" fill="#263238"/><path d="M414.28,240.838h-1.5a.284.284,0,0,1-.284-.284v-1.529a.284.284,0,0,1,.284-.284h1.524a.284.284,0,0,1,.284.284v1.529a.284.284,0,0,1-.313.284Zm-1.239-.569H414v-.961h-.955Z" transform="translate(-225.001 -156.487)" fill="#263238"/><path d="M390.468,245.268h-1.524a.284.284,0,0,1-.284-.284v-1.529a.284.284,0,0,1,.284-.284h1.524a.284.284,0,0,1,.284.284v1.529A.284.284,0,0,1,390.468,245.268Zm-1.239-.569h.955v-.961h-.955Z" transform="translate(-214.716 -158.398)" fill="#263238"/><path d="M394.434,245.268H392.9a.284.284,0,0,1-.284-.284v-1.529a.29.29,0,0,1,.284-.284h1.529a.284.284,0,0,1,.284.284v1.529A.284.284,0,0,1,394.434,245.268Zm-1.245-.569h.961v-.961h-.961Z" transform="translate(-216.424 -158.398)" fill="#263238"/><path d="M398.4,245.268h-1.524a.284.284,0,0,1-.284-.284v-1.529a.284.284,0,0,1,.284-.284H398.4a.284.284,0,0,1,.284.284v1.529A.284.284,0,0,1,398.4,245.268Zm-1.239-.569h.955v-.961h-.955Z" transform="translate(-218.137 -158.398)" fill="#263238"/><path d="M402.364,245.268h-1.529a.284.284,0,0,1-.284-.284v-1.529a.29.29,0,0,1,.284-.284h1.529a.284.284,0,0,1,.284.284v1.529A.284.284,0,0,1,402.364,245.268Zm-1.245-.569h.961v-.961h-.961Z" transform="translate(-219.846 -158.398)" fill="#263238"/><path d="M406.319,245.268h-1.535a.284.284,0,0,1-.284-.284v-1.529a.284.284,0,0,1,.284-.284h1.524a.284.284,0,0,1,.284.284v1.529A.284.284,0,0,1,406.319,245.268Zm-1.239-.569h.955v-.961h-.955Z" transform="translate(-221.55 -158.398)" fill="#263238"/><path d="M410.3,245.268h-1.518a.284.284,0,0,1-.284-.284v-1.529a.29.29,0,0,1,.284-.284h1.529a.284.284,0,0,1,.284.284v1.529a.284.284,0,0,1-.3.284Zm-1.245-.569h.961v-.961h-.961Z" transform="translate(-223.276 -158.398)" fill="#263238"/><path d="M414.28,245.268h-1.5a.284.284,0,0,1-.284-.284v-1.529a.284.284,0,0,1,.284-.284h1.524a.284.284,0,0,1,.284.284v1.529a.284.284,0,0,1-.313.284Zm-1.239-.569H414v-.961h-.955Z" transform="translate(-225.001 -158.398)" fill="#263238"/><path d="M390.468,249.7h-1.524a.284.284,0,0,1-.284-.284v-1.529a.284.284,0,0,1,.284-.284h1.524a.284.284,0,0,1,.284.284v1.529A.284.284,0,0,1,390.468,249.7Zm-1.239-.569h.955v-.961h-.955Z" transform="translate(-214.716 -160.31)" fill="#263238"/><path d="M394.434,249.7H392.9a.284.284,0,0,1-.284-.284v-1.529a.29.29,0,0,1,.284-.284h1.529a.284.284,0,0,1,.284.284v1.529A.284.284,0,0,1,394.434,249.7Zm-1.245-.569h.961v-.961h-.961Z" transform="translate(-216.424 -160.31)" fill="#263238"/><path d="M398.4,249.7h-1.524a.284.284,0,0,1-.284-.284v-1.529a.284.284,0,0,1,.284-.284H398.4a.284.284,0,0,1,.284.284v1.529A.284.284,0,0,1,398.4,249.7Zm-1.239-.569h.955v-.961h-.955Z" transform="translate(-218.137 -160.31)" fill="#263238"/><path d="M402.364,249.7h-1.529a.284.284,0,0,1-.284-.284v-1.529a.29.29,0,0,1,.284-.284h1.529a.284.284,0,0,1,.284.284v1.529A.284.284,0,0,1,402.364,249.7Zm-1.245-.569h.961v-.961h-.961Z" transform="translate(-219.846 -160.31)" fill="#263238"/><path d="M406.319,249.7h-1.535a.284.284,0,0,1-.284-.284v-1.529a.284.284,0,0,1,.284-.284h1.524a.284.284,0,0,1,.284.284v1.529A.284.284,0,0,1,406.319,249.7Zm-1.239-.569h.955v-.961h-.955Z" transform="translate(-221.55 -160.31)" fill="#263238"/><path d="M410.3,249.7h-1.518a.284.284,0,0,1-.284-.284v-1.529a.29.29,0,0,1,.284-.284h1.529a.284.284,0,0,1,.284.284v1.529a.284.284,0,0,1-.3.284Zm-1.245-.569h.961v-.961h-.961Z" transform="translate(-223.276 -160.31)" fill="#263238"/><path d="M414.28,249.7h-1.5a.284.284,0,0,1-.284-.284v-1.529a.284.284,0,0,1,.284-.284h1.524a.284.284,0,0,1,.284.284v1.529a.284.284,0,0,1-.313.284Zm-1.239-.569H414v-.961h-.955Z" transform="translate(-225.001 -160.31)" fill="#263238"/><path d="M403.772,230.3H388.944a.284.284,0,0,1,0-.569h14.828a.29.29,0,0,1,.284.284A.284.284,0,0,1,403.772,230.3Z" transform="translate(-214.716 -152.6)" fill="#263238"/></g><g transform="translate(43.47 91.905)"><path d="M67.949,212.869A15.669,15.669,0,1,1,83.619,197.2a15.669,15.669,0,0,1-15.669,15.669Zm0-30.77a15.1,15.1,0,1,0,15.1,15.1A15.1,15.1,0,0,0,67.949,182.1Z" transform="translate(-52.28 -145.489)" fill="#263238"/><path d="M69.52,212.36a13.6,13.6,0,1,1,13.6-13.6A13.6,13.6,0,0,1,69.52,212.36Zm0-26.631a13.028,13.028,0,1,1,0,.006Z" transform="translate(-53.85 -147.055)" fill="#263238"/><path d="M77.338,211.7H76.024v-1.518a4.258,4.258,0,0,1-3.292-1.569,6.715,6.715,0,0,1-1.262-3.832v-.233l2.746-.739v.347a8.984,8.984,0,0,0,.29,1.763,2.985,2.985,0,0,0,.682,1.313,1.654,1.654,0,0,0,1.262.466,1.609,1.609,0,0,0,1.245-.443,1.939,1.939,0,0,0,.415-1.353,2.894,2.894,0,0,0-.489-1.763,9.961,9.961,0,0,0-1.3-1.438l-2.974-2.621a6.823,6.823,0,0,1-1-1.137,4.548,4.548,0,0,1-.608-1.347,6.5,6.5,0,0,1-.193-1.637,4.276,4.276,0,0,1,1.137-3.167,4.389,4.389,0,0,1,2.843-1.194V190.12h1.308v1.49a4.605,4.605,0,0,1,1.444.387,3.571,3.571,0,0,1,1.262.961,4.7,4.7,0,0,1,.79,1.478,8.38,8.38,0,0,1,.375,1.984v.233l-2.661.722v-.341a8.272,8.272,0,0,0-.256-1.581,2.149,2.149,0,0,0-.608-1.08,1.552,1.552,0,0,0-1.194-.318,2.069,2.069,0,0,0-1.262.455,1.558,1.558,0,0,0-.421,1.211,2.536,2.536,0,0,0,.239,1.188,3.98,3.98,0,0,0,.83,1.012l2.991,2.615a11.689,11.689,0,0,1,1.274,1.365,6.971,6.971,0,0,1,.978,1.706,5.612,5.612,0,0,1,.381,2.121,4.941,4.941,0,0,1-.489,2.24,3.815,3.815,0,0,1-1.382,1.541,4.452,4.452,0,0,1-1.78.648Zm-.745-.569h.176v-1.5l.256-.028a4.026,4.026,0,0,0,1.791-.569,3.349,3.349,0,0,0,1.177-1.359,4.378,4.378,0,0,0,.426-1.984,5.2,5.2,0,0,0-.335-1.91,6.413,6.413,0,0,0-.921-1.541,10.881,10.881,0,0,0-1.2-1.291l-3-2.621a4.48,4.48,0,0,1-.921-1.166,3.07,3.07,0,0,1-.307-1.456,2.1,2.1,0,0,1,.608-1.637,2.6,2.6,0,0,1,1.6-.569,2.081,2.081,0,0,1,1.626.466,2.746,2.746,0,0,1,.768,1.353,9.313,9.313,0,0,1,.239,1.336l1.546-.415a7.352,7.352,0,0,0-.341-1.643,3.98,3.98,0,0,0-.694-1.3,2.934,2.934,0,0,0-1.069-.807,4.515,4.515,0,0,0-1.507-.358h-.267v-1.461h-.193v1.456H75.78a3.934,3.934,0,0,0-2.718,1.04,3.741,3.741,0,0,0-.989,2.763,5.634,5.634,0,0,0,.176,1.49,4.014,4.014,0,0,0,.529,1.177,5.879,5.879,0,0,0,.91,1.04l2.974,2.621a11.116,11.116,0,0,1,1.416,1.524,3.411,3.411,0,0,1,.6,2.1,2.468,2.468,0,0,1-.569,1.74,2.149,2.149,0,0,1-1.66.625,2.183,2.183,0,0,1-1.672-.648,3.474,3.474,0,0,1-.824-1.558,9.484,9.484,0,0,1-.273-1.524l-1.637.443a5.976,5.976,0,0,0,1.137,3.286,3.759,3.759,0,0,0,3.127,1.359h.279Z" transform="translate(-60.559 -149.195)" fill="#263238"/><path d="M391.881,136.9a9.381,9.381,0,1,1,9.381-9.381,9.381,9.381,0,0,1-9.381,9.381Zm0-18.194a8.813,8.813,0,1,0,8.813,8.813A8.813,8.813,0,0,0,391.881,118.709Z" transform="translate(-194.751 -118.14)" fill="#263238"/><path d="M392.809,136.618a8.159,8.159,0,1,1,8.159-8.159A8.159,8.159,0,0,1,392.809,136.618Zm0-15.749a7.593,7.593,0,1,0,0-.006Z" transform="translate(-195.679 -119.072)" fill="#263238"/><path d="M397.541,136.2h-1.006v-.9a2.587,2.587,0,0,1-1.922-.967A4.048,4.048,0,0,1,393.84,132v-.227l1.848-.5v.347a5.431,5.431,0,0,0,.165,1.018,1.649,1.649,0,0,0,.381.728,1.046,1.046,0,0,0,1.308,0,1.035,1.035,0,0,0,.216-.722,1.587,1.587,0,0,0-.267-.978,5.41,5.41,0,0,0-.773-.83l-1.763-1.552a4.031,4.031,0,0,1-.608-.7,2.678,2.678,0,0,1-.375-.83,3.865,3.865,0,0,1-.119-1,2.638,2.638,0,0,1,.716-1.956,2.7,2.7,0,0,1,1.637-.728v-.87h1.023v.9a2.746,2.746,0,0,1,.785.222,2.166,2.166,0,0,1,.785.6,2.8,2.8,0,0,1,.495.91,5.424,5.424,0,0,1,.227,1.2v.239l-1.8.489-.028-.347a5.442,5.442,0,0,0-.142-.91,1.228,1.228,0,0,0-.33-.569.779.779,0,0,0-.62-.154,1.058,1.058,0,0,0-.677.239.79.79,0,0,0-.21.625,1.314,1.314,0,0,0,.131.648,2.241,2.241,0,0,0,.461.569l1.768,1.546a7.022,7.022,0,0,1,.768.819,4.343,4.343,0,0,1,.6,1.035,3.508,3.508,0,0,1,.233,1.3,3.071,3.071,0,0,1-.3,1.382,2.365,2.365,0,0,1-.859.955,2.723,2.723,0,0,1-1,.387Zm-3.116-3.98a3.411,3.411,0,0,0,.637,1.785,2.1,2.1,0,0,0,1.763.756h.4a2.178,2.178,0,0,0,1.006-.33,1.808,1.808,0,0,0,.66-.739,2.45,2.45,0,0,0,.239-1.137,2.843,2.843,0,0,0-.193-1.08,3.575,3.575,0,0,0-.512-.9,6.744,6.744,0,0,0-.7-.745l-1.768-1.552a2.781,2.781,0,0,1-.569-.722,1.9,1.9,0,0,1-.193-.915,1.336,1.336,0,0,1,.4-1.052,1.66,1.66,0,0,1,1.018-.381,1.313,1.313,0,0,1,1.046.307,1.745,1.745,0,0,1,.489.853,4.922,4.922,0,0,1,.131.677l.688-.188a4.623,4.623,0,0,0-.176-.83,2.166,2.166,0,0,0-.392-.728,1.586,1.586,0,0,0-.569-.449,2.474,2.474,0,0,0-.853-.2h-.421a2.16,2.16,0,0,0-1.529.569,2.081,2.081,0,0,0-.569,1.552,3.216,3.216,0,0,0,.1.853,2.233,2.233,0,0,0,.3.66,3.529,3.529,0,0,0,.517.6l1.757,1.546a6,6,0,0,1,.853.921,2.115,2.115,0,0,1,.381,1.313,1.563,1.563,0,0,1-.364,1.1,1.382,1.382,0,0,1-1.069.409,1.41,1.41,0,0,1-1.075-.421,2.2,2.2,0,0,1-.517-.967,7.088,7.088,0,0,1-.148-.785Z" transform="translate(-199.644 -120.323)" fill="#263238"/></g><g transform="translate(241.077 179.872)"><rect width="26.802" height="61.393" transform="translate(0.284 0.296)" fill="#fff"/><path d="M426.926,334.833h-26.8a.284.284,0,0,1-.284-.284v-61.4a.284.284,0,0,1,.284-.284h26.8a.284.284,0,0,1,.284.284v61.4A.284.284,0,0,1,426.926,334.833Zm-26.517-.569h26.245V273.429H400.409Z" transform="translate(-399.84 -272.86)" fill="#263238"/><rect width="21.264" height="23.231" transform="translate(2.854 3.252)" fill="#fff"/><path d="M425.914,301.914h-21.27a.29.29,0,0,1-.284-.284V278.364a.29.29,0,0,1,.284-.284h21.27a.29.29,0,0,1,.284.284V301.6a.29.29,0,0,1-.284.313Zm-20.985-.569h20.7v-22.7h-20.7Z" transform="translate(-401.79 -275.112)" fill="#263238"/><rect width="21.264" height="21.781" transform="translate(2.854 37.553)" fill="#fff"/><path d="M425.914,360.76h-21.27a.284.284,0,0,1-.284-.284V338.694a.29.29,0,0,1,.284-.284h21.27a.29.29,0,0,1,.284.284v21.781A.284.284,0,0,1,425.914,360.76Zm-20.985-.569h20.7V338.979h-20.7Z" transform="translate(-401.79 -301.141)" fill="#263238"/><path d="M441.2,327.766a1.666,1.666,0,1,0-.474,1.2A1.666,1.666,0,0,0,441.2,327.766Z" transform="translate(-416.248 -295.847)" fill="#fff"/><path d="M439.311,329.482a1.956,1.956,0,1,1,1.95-1.956A1.956,1.956,0,0,1,439.311,329.482Zm0-3.337a1.387,1.387,0,1,0,1.382,1.382,1.387,1.387,0,0,0-1.382-1.382Z" transform="translate(-416.023 -295.601)" fill="#263238"/></g><g transform="translate(211.012 195.308)"><rect width="21.418" height="45.854" transform="translate(0.284 0.284)" fill="#fff"/><path d="M368.656,346.433H347.244a.284.284,0,0,1-.284-.284V300.294a.284.284,0,0,1,.284-.284h21.412a.284.284,0,0,1,.284.284v45.854A.284.284,0,0,1,368.656,346.433Zm-21.128-.569h20.843V300.573H347.551Z" transform="translate(-346.96 -300.01)" fill="#263238"/><rect width="6.175" height="45.854" transform="translate(15.522 0.284)" fill="#263238"/><path d="M380.219,346.433h-6.174a.29.29,0,0,1-.284-.284V300.294a.284.284,0,0,1,.284-.284h6.174a.284.284,0,0,1,.284.284v45.854A.284.284,0,0,1,380.219,346.433Zm-5.89-.569h5.606V300.573h-5.606Z" transform="translate(-358.523 -300.01)" fill="#263238"/><path d="M362.159,314.576H348.724a.284.284,0,0,1-.284-.284v-10.6a.29.29,0,0,1,.284-.284h13.435a.29.29,0,0,1,.284.284v10.6A.284.284,0,0,1,362.159,314.576Zm-13.151-.569h12.866V303.979H349.009Z" transform="translate(-347.599 -301.477)" fill="#263238"/><rect width="2.297" height="1.939" transform="translate(6.573 6.612)" fill="#263238"/><path d="M360.619,313.647h-2.274a.284.284,0,0,1-.284-.284v-1.939a.284.284,0,0,1,.284-.284h2.274a.284.284,0,0,1,.284.284v1.939A.284.284,0,0,1,360.619,313.647Zm-2.013-.569h1.706v-1.37h-1.706Z" transform="translate(-351.749 -304.812)" fill="#263238"/><path d="M362.159,336.856H348.724a.284.284,0,0,1-.284-.284v-10.6a.29.29,0,0,1,.284-.284h13.435a.29.29,0,0,1,.284.284v10.6A.284.284,0,0,1,362.159,336.856Zm-13.151-.569h12.866V326.259H349.009Z" transform="translate(-347.599 -311.089)" fill="#263238"/><rect width="2.297" height="1.939" transform="translate(6.573 19.28)" fill="#263238"/><path d="M360.619,335.927h-2.274a.284.284,0,0,1-.284-.284V333.7a.284.284,0,0,1,.284-.284h2.274a.284.284,0,0,1,.284.284v1.939A.284.284,0,0,1,360.619,335.927Zm-2.013-.569h1.706v-1.37h-1.706Z" transform="translate(-351.749 -314.425)" fill="#263238"/><rect width="13.429" height="10.598" transform="translate(1.126 27.552)" fill="#fff"/><path d="M362.159,359.136H348.724a.284.284,0,0,1-.284-.284v-10.6a.29.29,0,0,1,.284-.284h13.435a.29.29,0,0,1,.284.284v10.6A.284.284,0,0,1,362.159,359.136Zm-13.151-.569h12.866V348.556H349.009Z" transform="translate(-347.599 -320.702)" fill="#263238"/><rect width="2.297" height="1.939" transform="translate(6.573 31.947)" fill="#263238"/><path d="M360.619,358.207h-2.274a.284.284,0,0,1-.284-.284v-1.939a.284.284,0,0,1,.284-.284h2.274a.284.284,0,0,1,.284.284v1.939A.284.284,0,0,1,360.619,358.207Zm-2.013-.569h1.706v-1.37h-1.706Z" transform="translate(-351.749 -324.037)" fill="#263238"/></g><g transform="translate(151.916 180.116)"><rect width="35.495" height="24.618" transform="translate(0.284 0.284)" fill="#fff"/><path d="M278.828,298.477H243.3a.284.284,0,0,1-.284-.284V273.574a.29.29,0,0,1,.284-.284h35.523a.284.284,0,0,1,.284.284v24.619A.284.284,0,0,1,278.828,298.477Zm-35.211-.569h34.926v-24.05H243.577Z" transform="translate(-243.02 -273.29)" fill="#263238"/><rect width="32.146" height="22.293" transform="translate(1.962 1.444)" fill="#bfbfbf"/><path d="M278.395,298.2H246.254a.284.284,0,0,1-.284-.284v-22.3a.284.284,0,0,1,.284-.284h32.141a.29.29,0,0,1,.284.284v22.3A.29.29,0,0,1,278.395,298.2Zm-31.839-.569h31.578V275.9H246.556Z" transform="translate(-244.293 -274.17)" fill="#263238"/><rect width="4.583" height="5.777" transform="translate(4.713 5.072)" fill="#fff"/><path d="M255.677,288.055h-4.583a.284.284,0,0,1-.284-.284v-5.777a.284.284,0,0,1,.284-.284h4.583a.284.284,0,0,1,.284.284v5.777A.284.284,0,0,1,255.677,288.055Zm-4.3-.569h4.014v-5.208h-4.014Z" transform="translate(-246.381 -276.923)" fill="#263238"/><rect width="5.18" height="8.17" transform="translate(15.669 8.062)" fill="#f8951d"/><path d="M275.544,295.7h-5.18a.284.284,0,0,1-.284-.284v-8.164a.284.284,0,0,1,.284-.284h5.18a.284.284,0,0,1,.284.284v8.164A.284.284,0,0,1,275.544,295.7Zm-4.9-.569h4.611v-7.579h-4.611Z" transform="translate(-254.695 -279.192)" fill="#263238"/><rect width="2.593" height="2.593" transform="translate(4.912 16.028)" fill="#f8951d"/><path d="M254.031,304.141h-2.587a.284.284,0,0,1-.284-.284v-2.593a.284.284,0,0,1,.284-.284h2.587a.284.284,0,0,1,.284.284v2.57a.284.284,0,0,1-.284.307Zm-2.274-.569h2.018V301.56h-2.018Z" transform="translate(-246.532 -285.237)" fill="#263238"/><rect width="2.189" height="2.991" transform="translate(25.432 8.659)" fill="#fff"/><path d="M289.723,291.573h-2.189a.284.284,0,0,1-.284-.284V288.3a.284.284,0,0,1,.284-.284h2.189a.284.284,0,0,1,.284.284v2.985A.284.284,0,0,1,289.723,291.573Zm-1.9-.569h1.62v-2.428h-1.62Z" transform="translate(-262.103 -279.645)" fill="#263238"/><rect width="1.791" height="1.592" transform="translate(18.455 3.281)" fill="#fff"/><path d="M277.061,280.721h-1.8a.284.284,0,0,1-.284-.284v-1.592a.284.284,0,0,1,.284-.284h1.8a.284.284,0,0,1,.284.284v1.592A.284.284,0,0,1,277.061,280.721Zm-1.512-.569h1.228v-1.023H275.56Z" transform="translate(-256.809 -275.564)" fill="#263238"/><rect width="3.389" height="4.981" transform="translate(22.64 14.834)" fill="#fff"/><path d="M286,304.429h-3.411a.284.284,0,0,1-.284-.284v-4.981a.284.284,0,0,1,.284-.284H286a.284.284,0,0,1,.284.284v4.981A.284.284,0,0,1,286,304.429Zm-3.1-.569h2.843v-4.412h-2.843Z" transform="translate(-259.967 -284.331)" fill="#263238"/><rect width="2.593" height="3.986" transform="translate(29.013 12.042)" fill="#f8951d"/><path d="M296.427,298.548h-2.593a.284.284,0,0,1-.284-.284v-3.98a.29.29,0,0,1,.284-.284h2.593a.284.284,0,0,1,.284.284v3.98A.284.284,0,0,1,296.427,298.548Zm-2.308-.569h2.024v-3.411h-2.024Z" transform="translate(-264.821 -282.225)" fill="#263238"/></g><g transform="translate(162.133 215.128)"><rect width="10.621" height="23.589" transform="translate(2.917 2.729)" fill="#263238"/><path d="M276.525,363.328H265.9a.284.284,0,0,1-.284-.284V339.454a.284.284,0,0,1,.284-.284h10.621a.284.284,0,0,1,.284.284v23.589A.29.29,0,0,1,276.525,363.328Zm-10.336-.569h10.052V339.739H266.189Z" transform="translate(-262.988 -336.725)" fill="#263238"/><path d="M307.742,336.888H261.274a.284.284,0,0,1-.284-.284v-1.45a.284.284,0,0,1,.284-.284h46.468a.284.284,0,0,1,.284.284v1.45A.284.284,0,0,1,307.742,336.888Zm-46.184-.569h45.9v-.881H261.564Z" transform="translate(-260.99 -334.87)" fill="#263238"/><path d="M334.833,336.888H324.064a.29.29,0,0,1-.284-.284v-1.45a.284.284,0,0,1,.284-.284h10.768a.284.284,0,0,1,.284.284v1.45A.284.284,0,0,1,334.833,336.888Zm-10.484-.569h10.2v-.881h-10.2Z" transform="translate(-288.08 -334.87)" fill="#263238"/><path d="M263.64,337.88v24.607h1.8V340.825H285.1v21.662h23.083V337.88Z" transform="translate(-262.133 -336.169)" fill="#fff"/><path d="M307.976,362.556h-23.1a.29.29,0,0,1-.284-.284V340.894H265.517v21.378a.29.29,0,0,1-.284.284h-1.808a.284.284,0,0,1-.284-.284V337.664a.284.284,0,0,1,.284-.284h44.552a.29.29,0,0,1,.284.284v24.607A.29.29,0,0,1,307.976,362.556Zm-22.8-.569h22.521V337.949H263.709v24.039h1.239V340.609a.284.284,0,0,1,.284-.284h19.644a.284.284,0,0,1,.284.284Z" transform="translate(-261.918 -335.953)" fill="#263238"/><rect width="10.621" height="24.607" transform="translate(35.427 1.711)" fill="#263238"/><path d="M333.716,362.556H323.084a.284.284,0,0,1-.284-.284V337.664a.284.284,0,0,1,.284-.284h10.632a.29.29,0,0,1,.284.284v24.607A.29.29,0,0,1,333.716,362.556Zm-10.336-.569h10.052V337.949H323.369Z" transform="translate(-287.658 -335.953)" fill="#263238"/><rect width="9.785" height="4.941" transform="translate(24.198 4.85)" fill="#fff"/><path d="M313.119,348.4h-9.785a.284.284,0,0,1-.284-.284v-4.935a.284.284,0,0,1,.284-.284h9.785a.284.284,0,0,1,.284.284v4.935A.284.284,0,0,1,313.119,348.4Zm-9.5-.569h9.216v-4.367h-9.216Z" transform="translate(-279.137 -338.335)" fill="#263238"/><path d="M312.2,347.639h-2.183a.284.284,0,0,1,0-.569H312.2a.284.284,0,0,1,0,.569Z" transform="translate(-282.019 -340.134)" fill="#263238"/><rect width="9.785" height="4.941" transform="translate(24.198 11.212)" fill="#fff"/><path d="M313.119,359.6h-9.785a.284.284,0,0,1-.284-.284v-4.941a.284.284,0,0,1,.284-.284h9.785a.29.29,0,0,1,.284.284v4.941A.284.284,0,0,1,313.119,359.6Zm-9.5-.569h9.216v-4.372h-9.216Z" transform="translate(-279.137 -343.162)" fill="#263238"/><path d="M312.2,359.169h-2.183a.284.284,0,0,1,0-.569H312.2a.284.284,0,0,1,0,.569Z" transform="translate(-282.019 -345.108)" fill="#263238"/><rect width="9.785" height="4.941" transform="translate(24.198 17.58)" fill="#fff"/><path d="M313.119,370.824h-9.785a.284.284,0,0,1-.284-.284V365.6a.284.284,0,0,1,.284-.284h9.785a.284.284,0,0,1,.284.284v4.935A.284.284,0,0,1,313.119,370.824Zm-9.5-.569h9.216v-4.367h-9.216Z" transform="translate(-279.137 -348.007)" fill="#263238"/><path d="M312.2,370.569h-2.183a.284.284,0,0,1,0-.569H312.2a.284.284,0,0,1,0,.569Z" transform="translate(-282.019 -350.027)" fill="#263238"/></g><g transform="translate(142.478 201.738)"><rect width="1.274" height="9.751" transform="translate(9.313 23.743)" fill="#263238"/><path d="M243.835,362.9h-1.251a.284.284,0,0,1-.284-.284v-9.751a.284.284,0,0,1,.284-.284h1.251a.284.284,0,0,1,.284.284v9.751A.284.284,0,0,1,243.835,362.9Zm-.989-.569h.705v-9.182h-.682Z" transform="translate(-233.271 -329.121)" fill="#263238"/><circle cx="1.018" cy="1.018" r="1.018" transform="translate(0.705 37.388)" fill="#263238"/><path d="M228.453,379.175a1.308,1.308,0,1,1,1.3-1.3,1.308,1.308,0,0,1-1.3,1.3Zm0-2.041a.739.739,0,1,0,.733.739A.739.739,0,0,0,228.453,377.134Z" transform="translate(-226.731 -339.467)" fill="#263238"/><circle cx="1.018" cy="1.018" r="1.018" transform="translate(17.102 37.388)" fill="#263238"/><path d="M257.293,379.175a1.308,1.308,0,1,1,1.3-1.3,1.308,1.308,0,0,1-1.3,1.3Zm0-2.041a.739.739,0,1,0,.733.739.739.739,0,0,0-.733-.739Z" transform="translate(-239.173 -339.467)" fill="#263238"/><path d="M237.09,370.23l-.569.085-.569-.085-9.023,3.787v.756h1.512l.341-.756L236.522,372l7.744,2.018.335.756h1.512v-.756Z" transform="translate(-226.64 -336.736)" fill="#263238"/><path d="M245.893,374.851h-1.518a.284.284,0,0,1-.262-.165l-.279-.637-7.539-1.961-7.539,1.961-.279.637a.284.284,0,0,1-.262.165H226.7a.284.284,0,0,1-.284-.284v-.756a.284.284,0,0,1,.176-.262l9.023-3.787a.261.261,0,0,1,.148,0l.529.074.529-.074a.261.261,0,0,1,.148,0L246,373.549a.284.284,0,0,1,.176.262v.756a.284.284,0,0,1-.279.284Zm-1.33-.569h1.046V374l-8.773-3.679-.495.074h-.08l-.495-.074L226.994,374v.284h1.046l.262-.569a.279.279,0,0,1,.188-.159l7.738-2.018a.222.222,0,0,1,.148,0l7.738,2.018a.279.279,0,0,1,.188.159Z" transform="translate(-226.42 -336.53)" fill="#263238"/><rect width="1.302" height="4.89" transform="translate(9.313 33.494)" fill="#263238"/><path d="M243.886,375.188h-1.3a.284.284,0,0,1-.284-.284v-4.89a.284.284,0,0,1,.284-.284h1.3a.284.284,0,0,1,.284.284v4.89A.284.284,0,0,1,243.886,375.188Zm-1.018-.569h.733V370.3h-.733Z" transform="translate(-233.271 -336.521)" fill="#263238"/><rect width="1.194" height="1.62" transform="translate(9.324 38.088)" fill="#263238"/><path d="M243.8,380H242.6a.284.284,0,0,1-.284-.284v-1.62a.284.284,0,0,1,.284-.284H243.8a.284.284,0,0,1,.284.284v1.62A.284.284,0,0,1,243.8,380Zm-.91-.569h.625v-1.052h-.625Z" transform="translate(-233.28 -340.007)" fill="#263238"/><path d="M234.131,311.82h0a5.521,5.521,0,0,1,5.521,5.521v16.244H228.61V317.341A5.521,5.521,0,0,1,234.131,311.82Z" transform="translate(-227.365 -311.536)" fill="#bfbfbf"/><path d="M239.419,333.647H228.394a.284.284,0,0,1-.284-.284V317.125a5.8,5.8,0,0,1,11.61,0v16.238a.284.284,0,0,1-.3.284Zm-10.757-.569h10.473V317.125a5.236,5.236,0,1,0-10.473,0Z" transform="translate(-227.149 -311.32)" fill="#263238"/><path d="M243.024,333.579H232V317.341a5.521,5.521,0,0,1,5.521-5.521h0a5.521,5.521,0,0,1,5.521,5.521Z" transform="translate(-228.827 -311.536)" fill="#bfbfbf"/><path d="M242.809,333.647H231.784a.284.284,0,0,1-.284-.284V317.125a5.8,5.8,0,0,1,11.61,0v16.238a.284.284,0,0,1-.3.284Zm-10.757-.569h10.473V317.125a5.236,5.236,0,1,0-10.473,0Z" transform="translate(-228.612 -311.32)" fill="#263238"/><rect width="19.001" height="2.439" transform="translate(1.245 19.604)" fill="#bfbfbf"/><path d="M247.378,348.308H228.394a.284.284,0,0,1-.284-.284v-2.439a.284.284,0,0,1,.284-.284h18.984a.284.284,0,0,1,.284.284v2.439A.284.284,0,0,1,247.378,348.308Zm-18.717-.569h18.433v-1.871H228.679Z" transform="translate(-227.149 -325.98)" fill="#263238"/><rect width="9.66" height="2.439" transform="translate(10.587 19.604)" fill="#bfbfbf"/><path d="M254.45,348.308h-9.665a.284.284,0,0,1-.284-.284v-2.439a.284.284,0,0,1,.284-.284h9.665a.284.284,0,0,1,.284.284v2.439A.284.284,0,0,1,254.45,348.308Zm-9.376-.569h9.1v-1.871h-9.1Z" transform="translate(-234.221 -325.98)" fill="#263238"/><rect width="6.794" height="1.484" transform="translate(6.766 22.151)" fill="#263238"/><path d="M244.877,351.833h-6.823a.284.284,0,0,1-.284-.284v-1.484a.284.284,0,0,1,.284-.284h6.823a.284.284,0,0,1,.284.284v1.484A.284.284,0,0,1,244.877,351.833Zm-6.51-.569h6.254v-.915h-6.254Z" transform="translate(-231.317 -327.913)" fill="#263238"/></g><g transform="translate(116.228 208.395)"><rect width="7.164" height="10.859" transform="translate(3.354 22.192)" fill="#263238"/><path d="M193.1,372.988h-7.164a.284.284,0,0,1-.284-.284V361.844a.284.284,0,0,1,.284-.284H193.1a.284.284,0,0,1,.284.284V372.7A.284.284,0,0,1,193.1,372.988Zm-6.88-.569h6.6V362.129h-6.6Z" transform="translate(-182.58 -339.652)" fill="#263238"/><path d="M191.354,331.79s-1.888-5.526-1.461-7.107a1.564,1.564,0,0,1,2.979-.125C193.3,325.894,191.354,331.79,191.354,331.79Z" transform="translate(-184.383 -323.243)" fill="#f8951d"/><path d="M191.142,331.859a.284.284,0,0,1-.273-.188c-.074-.233-1.9-5.634-1.461-7.277a1.774,1.774,0,0,1,1.706-1.365,1.848,1.848,0,0,1,1.808,1.228c.438,1.387-1.319,6.794-1.524,7.391a.29.29,0,0,1-.267.193Zm.028-8.261h-.028a1.211,1.211,0,0,0-1.188.944c-.279,1.046.6,4.247,1.183,6.112.722-2.32,1.512-5.413,1.251-6.226a1.239,1.239,0,0,0-1.217-.847Z" transform="translate(-184.171 -323.028)" fill="#263238"/><path d="M192.314,347.878a.284.284,0,0,1-.284-.284v-19.03a.284.284,0,0,1,.569,0v19.03A.284.284,0,0,1,192.314,347.878Z" transform="translate(-185.332 -325.294)" fill="#263238"/><path d="M192.61,355.678a9.16,9.16,0,0,1,2.8-4.014c1.825-1.217,3.77-.119,3.77.91S194.68,353.671,192.61,355.678Z" transform="translate(-185.583 -335.152)" fill="#f8951d"/><path d="M192.4,355.743a.307.307,0,0,1-.154-.04.3.3,0,0,1-.114-.335,9.315,9.315,0,0,1,2.905-4.156,3.121,3.121,0,0,1,3.2-.25,1.706,1.706,0,0,1,1.012,1.4c0,.694-1,.978-2.388,1.37a10.37,10.37,0,0,0-4.264,1.933A.261.261,0,0,1,192.4,355.743Zm4.486-4.548a2.729,2.729,0,0,0-1.529.489,7.477,7.477,0,0,0-2.274,2.883,14.658,14.658,0,0,1,3.61-1.393c.836-.233,1.979-.569,1.979-.819a1.183,1.183,0,0,0-.711-.9,2.337,2.337,0,0,0-1.075-.256Z" transform="translate(-185.369 -334.938)" fill="#263238"/><path d="M187.311,355.678a9.16,9.16,0,0,0-2.8-4.014c-1.825-1.217-3.764-.119-3.764.91S185.247,353.671,187.311,355.678Z" transform="translate(-180.466 -335.152)" fill="#f8951d"/><path d="M187.1,355.743a.278.278,0,0,1-.2-.08,10.326,10.326,0,0,0-4.258-1.933c-1.416-.4-2.388-.677-2.388-1.37a1.706,1.706,0,0,1,1.006-1.4,3.121,3.121,0,0,1,3.2.25c1.882,1.257,2.843,4.037,2.905,4.156a.273.273,0,0,1-.267.375Zm-4.48-4.548a2.343,2.343,0,0,0-1.092.262,1.183,1.183,0,0,0-.705.9c0,.262,1.137.569,1.973.819a14.783,14.783,0,0,1,3.616,1.393,7.476,7.476,0,0,0-2.274-2.883,2.746,2.746,0,0,0-1.518-.483Z" transform="translate(-180.25 -334.938)" fill="#263238"/><path d="M192.61,347.658a9.16,9.16,0,0,1,2.8-4.014c1.825-1.217,3.77-.119,3.77.915S194.68,345.651,192.61,347.658Z" transform="translate(-185.583 -331.692)" fill="#f8951d"/><path d="M192.4,347.73a.318.318,0,0,1-.154-.045.3.3,0,0,1-.114-.335,9.309,9.309,0,0,1,2.905-4.15,3.116,3.116,0,0,1,3.2-.256,1.706,1.706,0,0,1,1.012,1.4c0,.688-1,.972-2.388,1.365a10.308,10.308,0,0,0-4.264,1.939A.284.284,0,0,1,192.4,347.73Zm4.486-4.548a2.729,2.729,0,0,0-1.529.489,7.517,7.517,0,0,0-2.274,2.883,14.5,14.5,0,0,1,3.61-1.387c.836-.239,1.979-.569,1.979-.819a1.183,1.183,0,0,0-.711-.9,2.337,2.337,0,0,0-1.075-.262Z" transform="translate(-185.369 -331.479)" fill="#263238"/><path d="M187.311,347.658a9.16,9.16,0,0,0-2.8-4.014c-1.825-1.217-3.764-.119-3.764.915S185.247,345.651,187.311,347.658Z" transform="translate(-180.466 -331.692)" fill="#f8951d"/><path d="M187.1,347.73a.307.307,0,0,1-.2-.08,10.264,10.264,0,0,0-4.258-1.939c-1.416-.4-2.388-.677-2.388-1.365a1.706,1.706,0,0,1,1.006-1.4,3.116,3.116,0,0,1,3.2.256c1.882,1.251,2.843,4.037,2.905,4.15a.285.285,0,0,1-.267.381Zm-4.48-4.548a2.274,2.274,0,0,0-1.086.261,1.183,1.183,0,0,0-.711.9c0,.256,1.137.569,1.973.819a14.538,14.538,0,0,1,3.616,1.387,7.516,7.516,0,0,0-2.274-2.883,2.746,2.746,0,0,0-1.518-.489Z" transform="translate(-180.25 -331.479)" fill="#263238"/><path d="M192.61,339.638a9.16,9.16,0,0,1,2.8-4.014c1.825-1.217,3.77-.119,3.77.915S194.68,337.631,192.61,339.638Z" transform="translate(-185.583 -328.231)" fill="#f8951d"/><path d="M192.4,339.71a.318.318,0,0,1-.154-.045.3.3,0,0,1-.114-.335,9.309,9.309,0,0,1,2.905-4.15,3.116,3.116,0,0,1,3.2-.256,1.706,1.706,0,0,1,1.012,1.4c0,.688-1,.972-2.388,1.365a10.307,10.307,0,0,0-4.264,1.939A.284.284,0,0,1,192.4,339.71Zm4.486-4.548a2.723,2.723,0,0,0-1.529.483,7.488,7.488,0,0,0-2.274,2.888,14.213,14.213,0,0,1,3.61-1.393c.836-.239,1.979-.569,1.979-.819a1.137,1.137,0,0,0-.711-.9,2.274,2.274,0,0,0-1.075-.256Z" transform="translate(-185.369 -328.019)" fill="#263238"/><path d="M187.311,339.638a9.16,9.16,0,0,0-2.8-4.014c-1.825-1.217-3.764-.119-3.764.915S185.247,337.631,187.311,339.638Z" transform="translate(-180.466 -328.231)" fill="#f8951d"/><path d="M187.1,339.71a.307.307,0,0,1-.2-.08,10.264,10.264,0,0,0-4.258-1.939c-1.416-.4-2.388-.677-2.388-1.365a1.706,1.706,0,0,1,1.006-1.4,3.116,3.116,0,0,1,3.2.256c1.882,1.251,2.843,4.037,2.905,4.15a.279.279,0,0,1-.114.335A.284.284,0,0,1,187.1,339.71Zm-4.48-4.548a2.275,2.275,0,0,0-1.092.262,1.166,1.166,0,0,0-.705.9c0,.256,1.137.569,1.973.819a14.338,14.338,0,0,1,3.616,1.393,7.488,7.488,0,0,0-2.274-2.888,2.735,2.735,0,0,0-1.518-.478Z" transform="translate(-180.25 -328.019)" fill="#263238"/></g><g transform="translate(31.974 184.215)"><rect width="20.076" height="25.233" transform="translate(0.284 0.284)" fill="#fff"/><path d="M52.426,306.3H32.344a.284.284,0,0,1-.284-.284V280.784a.284.284,0,0,1,.284-.284H52.426a.284.284,0,0,1,.284.284v25.233A.284.284,0,0,1,52.426,306.3Zm-19.8-.569H52.141V281.069H32.629Z" transform="translate(-32.06 -280.5)" fill="#263238"/><rect width="16.295" height="20.479" transform="translate(2.178 2.661)" fill="#fff"/><path d="M51.969,305.737H35.674a.284.284,0,0,1-.284-.284V284.984a.284.284,0,0,1,.284-.284H51.969a.284.284,0,0,1,.284.284v20.468A.284.284,0,0,1,51.969,305.737Zm-16.011-.569H51.685v-19.9H35.959Z" transform="translate(-33.497 -282.312)" fill="#263238"/><rect width="7.061" height="8.875" transform="translate(6.794 8.466)" fill="#f8951d"/><path d="M50.851,304.334H43.784a.284.284,0,0,1-.284-.284v-8.875a.284.284,0,0,1,.284-.284h7.067a.284.284,0,0,1,.284.284v8.875A.284.284,0,0,1,50.851,304.334Zm-6.777-.569h6.493v-8.307H44.074Z" transform="translate(-36.996 -286.708)" fill="#263238"/></g><g transform="translate(54.688 191.669)"><rect width="22.162" height="16.323" transform="translate(17.58 0.284)" fill="#fff"/><path d="M124.868,310.5H102.694a.284.284,0,0,1-.284-.284V293.894a.284.284,0,0,1,.284-.284h22.174a.284.284,0,0,1,.284.284v16.323a.284.284,0,0,1-.284.284Zm-21.878-.569H124.6V294.179H102.99Z" transform="translate(-85.126 -293.61)" fill="#263238"/><rect width="22.162" height="16.323" transform="translate(16.886 0.284)" fill="#fff"/><path d="M123.648,310.5H101.474a.284.284,0,0,1-.284-.284V293.894a.284.284,0,0,1,.284-.284h22.174a.284.284,0,0,1,.284.284v16.323a.284.284,0,0,1-.284.284Zm-21.878-.569h21.605V294.179H101.77Z" transform="translate(-84.6 -293.61)" fill="#263238"/><rect width="18.842" height="13.878" transform="translate(18.546 1.507)" fill="#fff"/><path d="M123.256,310.207H104.414a.284.284,0,0,1-.284-.284V296.044a.284.284,0,0,1,.284-.284h18.842a.284.284,0,0,1,.284.284v13.878A.284.284,0,0,1,123.256,310.207Zm-18.558-.569h18.273v-13.31H104.7Z" transform="translate(-85.868 -294.538)" fill="#263238"/><rect width="4.429" height="6.112" transform="translate(26.654 16.625)" fill="#fff"/><path d="M123.109,329.031h-4.435a.29.29,0,0,1-.284-.284v-6.112a.284.284,0,0,1,.284-.284h4.435a.284.284,0,0,1,.284.284v6.112A.284.284,0,0,1,123.109,329.031Zm-4.15-.569h3.866v-5.543h-3.866Z" transform="translate(-92.02 -306.01)" fill="#263238"/><rect width="4.429" height="6.112" transform="translate(25.75 16.625)" fill="#fff"/><path d="M121.519,329.031h-4.435a.29.29,0,0,1-.284-.284v-6.112a.284.284,0,0,1,.284-.284h4.435a.284.284,0,0,1,.284.284v6.112A.284.284,0,0,1,121.519,329.031Zm-4.15-.569h3.866v-5.543h-3.866Z" transform="translate(-91.334 -306.01)" fill="#263238"/><rect width="10.609" height="1.075" transform="translate(22.663 22.6)" fill="#fff"/><path d="M122.264,334.5H111.654a.284.284,0,0,1-.284-.284v-1.075a.284.284,0,0,1,.284-.284h10.609a.284.284,0,0,1,.284.284v1.075A.284.284,0,0,1,122.264,334.5Zm-10.325-.569h10.024v-.506H111.939Z" transform="translate(-88.992 -310.544)" fill="#263238"/><rect width="10.621" height="23.589" transform="translate(2.917 26.188)" fill="#263238"/><path d="M87.545,363.328H76.924a.284.284,0,0,1-.284-.284V339.454a.284.284,0,0,1,.284-.284H87.545a.284.284,0,0,1,.284.284v23.589A.29.29,0,0,1,87.545,363.328Zm-10.336-.569H87.261V339.739H77.209Z" transform="translate(-74.008 -313.267)" fill="#263238"/><path d="M118.762,336.888H72.294a.284.284,0,0,1-.284-.284v-1.45a.284.284,0,0,1,.284-.284h46.468a.284.284,0,0,1,.284.284v1.45A.284.284,0,0,1,118.762,336.888Zm-46.184-.569h45.9v-.881H72.573Z" transform="translate(-72.01 -311.411)" fill="#263238"/><path d="M145.853,336.888H135.084a.29.29,0,0,1-.284-.284v-1.45a.284.284,0,0,1,.284-.284h10.768a.284.284,0,0,1,.284.284v1.45A.284.284,0,0,1,145.853,336.888Zm-10.484-.569h10.2v-.881h-10.2Z" transform="translate(-99.1 -311.411)" fill="#263238"/><path d="M74.66,337.88v24.607h1.808V340.825H96.112v21.662H119.2V337.88Z" transform="translate(-73.153 -312.71)" fill="#fff"/><path d="M118.985,362.556H95.9a.29.29,0,0,1-.284-.284V340.894H76.537v21.378a.29.29,0,0,1-.284.284H74.444a.284.284,0,0,1-.284-.284V337.664a.284.284,0,0,1,.284-.284h44.541a.29.29,0,0,1,.284.284v24.607A.29.29,0,0,1,118.985,362.556Zm-22.8-.569H118.7V337.949H74.729v24.039h1.239V340.609a.284.284,0,0,1,.284-.284H95.9a.284.284,0,0,1,.284.284Z" transform="translate(-72.938 -312.494)" fill="#263238"/><rect width="10.621" height="24.607" transform="translate(35.427 25.17)" fill="#263238"/><path d="M144.725,362.556H134.1a.284.284,0,0,1-.284-.284V337.664a.284.284,0,0,1,.284-.284h10.621a.29.29,0,0,1,.284.284v24.607A.29.29,0,0,1,144.725,362.556Zm-10.336-.569h10.052V337.949H134.389Z" transform="translate(-98.678 -312.494)" fill="#263238"/><rect width="9.785" height="4.941" transform="translate(24.198 28.308)" fill="#fff"/><path d="M124.139,348.4h-9.785a.284.284,0,0,1-.284-.284v-4.935a.284.284,0,0,1,.284-.284h9.785a.284.284,0,0,1,.284.284v4.935A.284.284,0,0,1,124.139,348.4Zm-9.5-.569h9.216v-4.367h-9.216Z" transform="translate(-90.157 -314.876)" fill="#263238"/><path d="M123.218,347.639h-2.183a.284.284,0,1,1,0-.569h2.183a.284.284,0,1,1,0,.569Z" transform="translate(-93.039 -316.675)" fill="#263238"/><rect width="9.785" height="4.941" transform="translate(24.198 34.671)" fill="#fff"/><path d="M124.139,359.6h-9.785a.284.284,0,0,1-.284-.284v-4.941a.284.284,0,0,1,.284-.284h9.785a.29.29,0,0,1,.284.284v4.941A.284.284,0,0,1,124.139,359.6Zm-9.5-.569h9.216v-4.372h-9.216Z" transform="translate(-90.157 -319.704)" fill="#263238"/><path d="M123.218,359.169h-2.183a.284.284,0,1,1,0-.569h2.183a.284.284,0,1,1,0,.569Z" transform="translate(-93.039 -321.65)" fill="#263238"/><rect width="9.785" height="4.941" transform="translate(24.198 41.038)" fill="#fff"/><path d="M124.139,370.824h-9.785a.284.284,0,0,1-.284-.284V365.6a.284.284,0,0,1,.284-.284h9.785a.284.284,0,0,1,.284.284v4.935A.284.284,0,0,1,124.139,370.824Zm-9.5-.569h9.216v-4.367h-9.216Z" transform="translate(-90.157 -324.549)" fill="#263238"/><path d="M123.218,370.569h-2.183a.284.284,0,0,1,0-.569h2.183a.284.284,0,0,1,0,.569Z" transform="translate(-93.039 -326.568)" fill="#263238"/></g><g transform="translate(31.86 57.332)"><path d="M205.508,58.646s-6.851,1.9-10.66,5.333a17.3,17.3,0,0,0-5.583,11.672c-.125,3.411-5.839,22.594-4.548,26.779S199.442,110.3,203,110.555s11.292,1.393,18.524-1.4S233.834,101.038,234.34,99s.506-4.821-1.524-9.137-.381-13.7-6.726-22.208S210.71,56.218,205.508,58.646Z" transform="translate(-97.727 -57.544)" fill="#263238"/><path d="M210.23,111.076c-2.342,0-4.446-.188-6.089-.335l-1.416-.119c-3.411-.239-17.17-3.855-18.524-8.318-.847-2.78,1.222-11.633,2.888-18.762a73.049,73.049,0,0,0,1.666-8.13,17.693,17.693,0,0,1,5.686-11.877c3.741-3.372,10.234-5.248,10.751-5.39,5.157-2.371,14.373.387,20.883,9.1,4.19,5.612,4.918,11.519,5.509,16.266A21.806,21.806,0,0,0,232.83,89.5c1.706,3.667,2.217,6.629,1.541,9.33-.5,2-5.538,7.471-12.992,10.348a30.935,30.935,0,0,1-11.149,1.9Zm-.955-53.16a9.177,9.177,0,0,0-3.872.779h-.045c-.068,0-6.823,1.922-10.547,5.265a17.1,17.1,0,0,0-5.487,11.473,66.664,66.664,0,0,1-1.706,8.244c-1.558,6.669-3.7,15.806-2.9,18.444,1.183,3.889,14.282,7.653,18.023,7.92.421.028.9.068,1.421.119,3.98.353,10.66.944,16.983-1.5,7.278-2.809,12.173-8.051,12.645-9.961.642-2.559.165-5.4-1.5-8.943a21.762,21.762,0,0,1-1.3-6.169c-.569-4.679-1.3-10.5-5.4-15.993-4.9-6.573-11.354-9.683-16.318-9.683Zm-3.98.517Z" transform="translate(-97.502 -57.332)" fill="#263238"/><path d="M240.832,214.237,233.816,191.7l-4.048-48.469L210.6,144.322l-1.245,47.224-4.031,22.691Z" transform="translate(-106.698 -94.392)" fill="#fff"/><path d="M240.614,214.3H205.1a.3.3,0,0,1-.222-.1.318.318,0,0,1-.063-.233l4.031-22.691,1.245-47.19a.279.279,0,0,1,.267-.279l19.172-1.092a.284.284,0,0,1,.3.262l4.054,48.441,7,22.532a.284.284,0,0,1-.045.25A.279.279,0,0,1,240.614,214.3Zm-35.177-.569h34.79l-6.9-22.174a.2.2,0,0,1,0-.063L229.306,143.3l-18.632,1.058-1.245,46.963Z" transform="translate(-106.481 -94.167)" fill="#263238"/><path d="M214.15,154.661l11.428-5.475-6.328-4.526-4.844.279Z" transform="translate(-110.508 -95.009)" fill="#263238"/><path d="M213.934,154.729a.324.324,0,0,1-.159-.046.284.284,0,0,1-.125-.244l.256-9.722a.279.279,0,0,1,.267-.279l4.844-.279a.3.3,0,0,1,.182.057l6.328,4.548a.267.267,0,0,1,.119.256.279.279,0,0,1-.159.233l-11.434,5.475A.307.307,0,0,1,213.934,154.729Zm.534-9.739-.239,9,10.575-5.072-5.839-4.185Z" transform="translate(-110.292 -94.793)" fill="#263238"/><path d="M240.832,232.862l-7.016-22.538-2-23.925-21.867.876-.6,22.9-4.031,22.691Z" transform="translate(-106.698 -113.017)" fill="#fff"/><path d="M240.614,232.931H205.1a.3.3,0,0,1-.222-.1.318.318,0,0,1-.063-.233l4.031-22.691.62-22.85a.29.29,0,0,1,.273-.279L231.6,185.9a.279.279,0,0,1,.3.262l2,23.879,6.988,22.538a.284.284,0,0,1-.045.25A.279.279,0,0,1,240.614,232.931Zm-35.177-.569h34.79l-6.9-22.174a.2.2,0,0,1,0-.063l-1.973-23.652-21.321.859-.6,22.629Z" transform="translate(-106.481 -112.801)" fill="#263238"/><path d="M299.039,151.16l10.524,41.624-6.55,21.821-9.194-8.574Z" transform="translate(-144.881 -97.813)" fill="#f8951d"/><path d="M302.8,214.617a.313.313,0,0,1-.193-.074l-9.2-8.6a.307.307,0,0,1-.091-.239l5.219-54.871a.285.285,0,1,1,.569-.045l10.518,41.652a.324.324,0,0,1,0,.148l-6.55,21.821a.279.279,0,0,1-.193.193Zm-8.9-8.972,8.761,8.164,6.391-21.3-10.1-39.958Z" transform="translate(-144.665 -97.541)" fill="#263238"/><path d="M342.217,228.826,343,217l-4.2,3.764Z" transform="translate(-164.287 -126.219)" fill="#263238"/><path d="M342.007,228.9a.279.279,0,0,1-.262-.171l-3.411-8.068a.284.284,0,0,1,.074-.318l4.2-3.764a.3.3,0,0,1,.313-.045.273.273,0,0,1,.159.279l-.785,11.826a.29.29,0,0,1-.239.262Zm-3.076-8.273L341.8,227.4l.66-9.938Z" transform="translate(-164.077 -126.007)" fill="#263238"/><path d="M338.5,200.6s7.795-8.1,8.727-8.415,12.315,0,12.315,0,2.809-.466,4.367-.625,5.117-2.337,4.827-.779-2.8,2.03-3.269,2.183,6.078,0,6.078,0,2.337-.779,1.245.932-6.391,6.55-8.574,7-18.074,2.183-18.074,2.183L340.53,210.4Z" transform="translate(-164.158 -114.664)" fill="#fff"/><path d="M340.31,210.492h-.04a.279.279,0,0,1-.216-.222L338,200.446a.3.3,0,0,1,.074-.256c1.313-1.359,7.892-8.17,8.847-8.489s11.24-.045,12.406,0c0,0,2.78-.466,4.332-.625a10.007,10.007,0,0,0,2.1-.66c1.467-.569,2.394-.893,2.843-.512a.694.694,0,0,1,.188.733,2.889,2.889,0,0,1-1.939,1.91c1.285,0,3.1-.034,4.418-.068.364-.114,1.37-.381,1.745.1s-.074,1.063-.21,1.274c-1.137,1.768-6.476,6.652-8.75,7.141-2.1.449-16.4,2-17.989,2.172l-5.538,7.232A.279.279,0,0,1,340.31,210.492ZM338.6,200.48l1.871,9.063,5.231-6.823a.312.312,0,0,1,.193-.108c.159,0,15.92-1.706,18.052-2.178s7.334-5.225,8.392-6.885c.267-.426.256-.569.239-.62a2.094,2.094,0,0,0-1.137.1.227.227,0,0,1-.085,0c-6.322.148-6.334.085-6.391-.222a.33.33,0,0,1,.216-.335l.273-.074c.705-.193,2.57-.7,2.809-1.893a.319.319,0,0,0,0-.188c-.222-.182-1.507.313-2.274.608a10.416,10.416,0,0,1-2.274.7c-1.535.153-4.321.614-4.349.62-4.605-.119-11.616-.227-12.269,0s-5.5,5.111-8.506,8.233Z" transform="translate(-163.939 -114.458)" fill="#263238"/><path d="M394.06,194.815s2.985-2.433,3.32-3.98-.443-4.975-1.217-4.094-.779,2.877-.995,3.656S394.06,194.815,394.06,194.815Z" transform="translate(-188.129 -113.103)" fill="#fff"/><path d="M393.843,194.89a.318.318,0,0,1-.154-.045.284.284,0,0,1-.125-.307c.04-.148.893-3.667,1.137-4.435a8.532,8.532,0,0,0,.154-.9,5.608,5.608,0,0,1,.9-2.843.569.569,0,0,1,.722-.182c.83.415,1.257,3.258.989,4.548-.353,1.626-3.292,4.042-3.411,4.145A.318.318,0,0,1,393.843,194.89Zm2.359-8.216-.045.04a5.461,5.461,0,0,0-.762,2.559,8.776,8.776,0,0,1-.171.984c-.154.529-.62,2.422-.893,3.548.972-.881,2.354-2.274,2.553-3.241C397.18,189.164,396.566,186.822,396.2,186.674Z" transform="translate(-187.911 -112.893)" fill="#263238"/><path d="M398.15,194.428s2.985-2.433,3.315-3.98-.438-4.975-1.217-4.088-.773,2.843-.995,3.65S398.15,194.428,398.15,194.428Z" transform="translate(-189.893 -112.938)" fill="#fff"/><path d="M397.933,194.5a.29.29,0,0,1-.279-.353c.034-.148.887-3.667,1.109-4.435a7.285,7.285,0,0,0,.154-.9,5.667,5.667,0,0,1,.9-2.843.569.569,0,0,1,.716-.182c.836.415,1.262,3.258.989,4.52-.347,1.626-3.292,4.042-3.411,4.145A.29.29,0,0,1,397.933,194.5Zm2.354-8.216-.04.04a5.46,5.46,0,0,0-.762,2.559,7.505,7.505,0,0,1-.176.984c-.148.529-.614,2.422-.893,3.553.972-.887,2.354-2.308,2.553-3.246C401.259,188.782,400.651,186.451,400.287,186.286Z" transform="translate(-189.677 -112.727)" fill="#263238"/><path d="M387.9,199.144l5.828-3.173s1.99-3.65,1.768-5.31-1.734-.569-1.882.222-2.433,4.094-2.763,4.548S387.9,199.144,387.9,199.144Z" transform="translate(-185.471 -114.481)" fill="#fff"/><path d="M387.685,199.211a.284.284,0,0,1-.222-.461c0-.034,2.615-3.286,2.945-3.718a28.069,28.069,0,0,0,2.712-4.418,1.768,1.768,0,0,1,1.512-1.325c.233,0,.8.131.932,1.137.227,1.734-1.706,5.333-1.808,5.487a.273.273,0,0,1-.114.114l-5.822,3.173a.3.3,0,0,1-.136.011Zm6.919-9.353a1.245,1.245,0,0,0-.927.859c-.176.955-2.792,4.622-2.814,4.656-.21.279-1.291,1.632-2.081,2.632l4.52-2.462c.273-.517,1.888-3.639,1.706-5.06-.034-.284-.131-.62-.381-.625Z" transform="translate(-185.256 -114.264)" fill="#263238"/><path d="M348.71,199.435s1.9-1.9,3.8-1.9,14.555,1.9,14.555,1.9,9.489-8.284,9.489-6.521-4.617,6.789-5.566,7.471a10.122,10.122,0,0,1-3.8,2.035c-1.5.273-7.334.569-7.334.569" transform="translate(-168.563 -115.721)" fill="#fff"/><path d="M359.642,203.043a.284.284,0,1,1,0-.569c.057,0,5.839-.273,7.3-.54a9.347,9.347,0,0,0,3.366-1.757l.324-.233c.915-.654,5.39-5.538,5.447-7.2-.853,0-5.208,3.36-9.034,6.7a.284.284,0,0,1-.233.068c-.125,0-12.633-1.9-14.492-1.9-1.757,0-3.582,1.8-3.6,1.819a.285.285,0,1,1-.4-.4c.08-.08,2.007-1.984,3.98-1.984,1.819,0,13.031,1.672,14.447,1.888,2.6-2.274,8.483-7.2,9.6-6.7a.5.5,0,0,1,.284.483c0,2-4.833,7.09-5.686,7.7l-.318.227a9.356,9.356,0,0,1-3.6,1.854c-1.5.273-7.135.54-7.391.569Z" transform="translate(-168.357 -115.514)" fill="#263238"/><path d="M308.04,220.785,323,208.47l3.588,16.676s-16.21,16.056-17.625,15.743-6.391-5.612-6.391-5.612" transform="translate(-148.656 -122.539)" fill="#f8951d"/><path d="M308.762,240.972H308.7c-1.444-.324-6.015-5.145-6.533-5.686a.279.279,0,0,1,0-.4.284.284,0,0,1,.4,0c1.979,2.1,5.276,5.31,6.254,5.526,1.137-.028,11.127-9.506,17.239-15.556l-3.451-16.067-14.6,12.014a.29.29,0,0,1-.4-.034.3.3,0,0,1,.04-.4l14.964-12.309a.267.267,0,0,1,.273-.051.284.284,0,0,1,.182.21l3.588,16.676a.3.3,0,0,1-.08.262C322.794,228.884,310.467,240.972,308.762,240.972Z" transform="translate(-148.446 -122.332)" fill="#263238"/><path d="M298.426,218.97l.927,19.649-2.223-1.484Z" transform="translate(-146.309 -127.069)" fill="#263238"/><path d="M299.1,238.658a.324.324,0,0,1-.159-.045l-2.223-1.484a.284.284,0,0,1-.125-.256l1.3-18.165a.285.285,0,0,1,.569.006l.927,19.649a.29.29,0,0,1-.142.262.307.307,0,0,1-.142.034Zm-1.927-1.91,1.615,1.08-.671-14.3Z" transform="translate(-146.076 -126.841)" fill="#263238"/><path d="M256.528,214.22h18.546c.762-8.892,4.611-63.911,4.185-66.521-.472-2.809-4.213-3.588-4.213-3.588l-26.876-.921s-.472,49.408.154,51.9C248.864,197.22,254.732,210.234,256.528,214.22Z" transform="translate(-125.112 -94.375)" fill="#f8951d"/><path d="M274.871,214.306H256.313a.29.29,0,0,1-.262-.171c-1.791-3.951-7.687-17.017-8.216-19.155-.625-2.5-.188-49.948-.165-51.972a.267.267,0,0,1,.085-.2.284.284,0,0,1,.2-.08l26.881.921c.21.04,3.98.859,4.48,3.826.443,2.661-3.457,58.124-4.179,66.567A.284.284,0,0,1,274.871,214.306Zm-18.364-.569h18.1c.824-9.836,4.577-63.678,4.162-66.169-.426-2.576-3.951-3.349-3.98-3.354l-26.54-.9c-.034,4.082-.432,49.2.148,51.534.523,2.052,6.237,14.76,8.108,18.893Z" transform="translate(-124.897 -94.176)" fill="#263238"/><path d="M252.239,164.262l7.169-5.612-6.436-15.8-4.782.216s-.472,49.408.154,51.9c0,0,12.622-24.311,12.781-25.4S252.239,164.262,252.239,164.262Z" transform="translate(-125.121 -94.228)" fill="#f8951d"/><path d="M248.129,195.022h-.034a.279.279,0,0,1-.239-.216c-.625-2.5-.188-49.948-.165-51.972a.279.279,0,0,1,.267-.279l4.787-.216a.267.267,0,0,1,.273.182l6.442,15.794a.29.29,0,0,1-.091.335l-6.823,5.322c3.474,1.632,8.784,4.315,8.625,5.4s-11.5,23.009-12.81,25.5a.273.273,0,0,1-.233.148Zm.125-51.909c-.034,3.7-.387,43.83.051,50.664,5.032-9.665,12.173-23.652,12.321-24.482-.119-.631-4.617-3.093-8.722-5a.273.273,0,0,1-.159-.222.284.284,0,0,1,.1-.256l7-5.481-6.283-15.408Z" transform="translate(-124.905 -94.007)" fill="#263238"/><path d="M143.154,184.021l1.183,31.271h22.538c1.74-3.883,7.988-18.109,7.988-22.4,0-4.986-4.025-47.19-4.025-47.19s-19.752,3.445-25.119,4.793c-2.445.614-5.344-.421-9.421,4.952-.517.688-25.477,36.661-25.477,36.661l23.009,6.9Z" transform="translate(-65.927 -95.458)" fill="#f8951d"/><path d="M166.66,215.39H144.122a.29.29,0,0,1-.284-.279L142.7,184.767l-8.841,14.214a.284.284,0,0,1-.324.125l-23.009-6.9a.3.3,0,0,1-.188-.182.279.279,0,0,1,.04-.256c1.018-1.467,24.965-35.984,25.483-36.666,3.286-4.332,5.9-4.6,7.994-4.816a12.208,12.208,0,0,0,1.586-.239c5.316-1.336,24.943-4.764,25.136-4.8a.3.3,0,0,1,.222.051.313.313,0,0,1,.114.2c.04.426,4.025,42.261,4.025,47.19,0,4.315-6.129,18.325-8.011,22.515a.29.29,0,0,1-.267.188Zm-22.265-.569h22.083c1.95-4.332,7.909-17.978,7.909-22.117,0-4.691-3.627-43.006-3.98-46.838-2.513.438-19.86,3.5-24.795,4.736a11.984,11.984,0,0,1-1.666.25c-2.092.216-4.457.461-7.6,4.6-.483.637-22.742,32.737-25.25,36.325l22.43,6.726,9.211-14.828a.284.284,0,0,1,.523.136Z" transform="translate(-65.713 -95.26)" fill="#263238"/><path d="M166,201l-.551-15.942-1.672,19.467Z" transform="translate(-88.776 -112.439)" fill="#263238"/><path d="M163.563,204.587a.255.255,0,0,1-.091,0,.284.284,0,0,1-.193-.3l1.672-19.49a.273.273,0,0,1,.29-.262.29.29,0,0,1,.279.279l.569,15.92a.256.256,0,0,1-.04.159l-2.229,3.519a.279.279,0,0,1-.256.171Zm1.552-15.027-1.171,13.6L165.5,200.7Z" transform="translate(-88.559 -112.214)" fill="#263238"/><path d="M281.576,268.189H32.144a.284.284,0,0,1,0-.569H281.576a.284.284,0,1,1,0,.569Z" transform="translate(-31.86 -148.059)" fill="#263238"/><path d="M208.377,145.75l-5.06.9c-1.768,3.94-5.657,12.8-4.912,13.077.961.387,7.1,6.328,7.1,6.328l-7.67,5.993s12.656,22.623,13.424,24.351a2.916,2.916,0,0,0,.364.569,16.289,16.289,0,0,0,.785-4.031C212.4,187.965,208.377,145.75,208.377,145.75Z" transform="translate(-103.467 -95.479)" fill="#f8951d"/><path d="M211.41,197.028a.3.3,0,0,1-.227-.108,3.623,3.623,0,0,1-.387-.637c-.751-1.706-13.281-24.1-13.412-24.329a.29.29,0,0,1,.074-.364l7.391-5.742c-2.456-2.371-6.123-5.782-6.766-6.038a.409.409,0,0,1-.227-.233c-.307-.756,1.37-5.214,4.981-13.247a.3.3,0,0,1,.21-.165l5.06-.9a.3.3,0,0,1,.222.051.313.313,0,0,1,.114.2c.04.426,4.025,42.261,4.025,47.19a16.488,16.488,0,0,1-.8,4.111.29.29,0,0,1-.222.2Zm-13.418-25.142c1.365,2.445,12.582,22.515,13.316,24.164h0a13.964,13.964,0,0,0,.6-3.343c0-4.691-3.627-43.006-3.98-46.838-.66.114-2.371.415-4.605.819-3.758,8.358-4.992,12-4.924,12.622,1.177.62,6.493,5.748,7.107,6.345a.29.29,0,0,1,.085.222.307.307,0,0,1-.108.21Z" transform="translate(-103.259 -95.269)" fill="#263238"/><path d="M201.4,115.53l-1.836,2.638s0,4.133,3.326,5.276Z" transform="translate(-104.213 -82.441)" fill="#fff"/><path d="M202.67,123.571h-.091c-3.48-1.2-3.519-5.5-3.519-5.549a.267.267,0,0,1,.051-.159l1.836-2.638a.279.279,0,0,1,.29-.119.3.3,0,0,1,.222.227l1.49,7.914a.279.279,0,0,1-.091.267A.284.284,0,0,1,202.67,123.571Zm-3.042-5.475c.028.569.267,3.565,2.667,4.73l-1.268-6.732Z" transform="translate(-103.997 -82.255)" fill="#263238"/><path d="M254.71,115.5l2.1,1.313s1.08,4.929-1.939,6.737Z" transform="translate(-128.007 -82.428)" fill="#fff"/><path d="M254.659,123.614a.256.256,0,0,1-.142-.04.273.273,0,0,1-.142-.239l-.165-8.051a.29.29,0,0,1,.148-.256.279.279,0,0,1,.29,0l2.1,1.319a.3.3,0,0,1,.125.182c.045.21,1.086,5.151-2.075,7.039A.313.313,0,0,1,254.659,123.614Zm.131-7.818.142,6.993c2.075-1.706,1.535-5.327,1.41-6.021Z" transform="translate(-127.791 -82.207)" fill="#263238"/><path d="M215.393,81.82s0,2.411-5.072,7.994S201.56,95.9,201.56,95.9s1.956,12.395,2.524,14.447c1.706,6.1,10.4,12.946,13.327,13.452a6.889,6.889,0,0,0,5.686-1.137c1.376-.881,8.71-7.931,9.262-14.72.125-1.524-1.012-11.041-1.012-11.041s-2.03-.381-5.333-3.047-4.059-4.44-4.059-4.44l1.268,4.7S216.286,87.4,215.393,81.82Z" transform="translate(-105.076 -67.897)" fill="#fff"/><path d="M218.942,124.062a10.046,10.046,0,0,1-1.78-.171c-3.19-.569-11.826-7.516-13.549-13.645-.569-2.07-2.468-14-2.547-14.5a.273.273,0,0,1,.051-.21.284.284,0,0,1,.188-.114c.04,0,3.661-.569,8.591-6s5-7.784,5-7.806a.29.29,0,0,1,.267-.279.284.284,0,0,1,.3.239c.688,4.338,5.208,9.466,7.027,11.371l-.995-3.644a.284.284,0,0,1,.182-.341.279.279,0,0,1,.387.148s.79,1.763,3.98,4.332,5.185,2.985,5.2,2.991a.273.273,0,0,1,.227.244c.051.392,1.137,9.563,1.018,11.1-.569,6.874-7.96,14-9.393,14.936A7.056,7.056,0,0,1,218.942,124.062ZM201.67,95.924c.29,1.819,1.967,12.3,2.49,14.163,1.706,6.055,10.336,12.77,13.077,13.253a6.668,6.668,0,0,0,5.509-1.1c1.438-.915,8.591-7.835,9.137-14.5.108-1.359-.83-9.427-.995-10.8a15.463,15.463,0,0,1-5.248-3.053,20.729,20.729,0,0,1-3.133-3.07l.819,3.025a.29.29,0,0,1-.131.318.284.284,0,0,1-.341-.04c-.273-.256-6.169-5.987-7.693-11.309-.478,1.251-1.706,3.519-4.844,6.982C205.968,94.577,202.642,95.685,201.67,95.924Z" transform="translate(-104.862 -67.685)" fill="#263238"/><path d="M216.718,120.776a6.607,6.607,0,0,1-2.78-.688.284.284,0,0,1,.267-.5c.131.068,3.127,1.643,4.986-.443a.273.273,0,0,1,.4,0,.279.279,0,0,1,0,.4A3.741,3.741,0,0,1,216.718,120.776Z" transform="translate(-110.352 -83.963)" fill="#263238"/><path d="M210.725,112.625a.569.569,0,0,1-.426-.949c2.217-2.49,7.039-1.74,7.243-1.706a.57.57,0,1,1-.182,1.126c-.04,0-4.412-.682-6.209,1.336A.569.569,0,0,1,210.725,112.625Z" transform="translate(-108.783 -79.985)" fill="#263238"/><path d="M241.878,118.707a4.23,4.23,0,0,1-2.541-.955.279.279,0,0,1,0-.4.29.29,0,0,1,.4-.028,3.138,3.138,0,0,0,4.429-.239.284.284,0,0,1,.4,0,.29.29,0,0,1,0,.4A3.718,3.718,0,0,1,241.878,118.707Z" transform="translate(-121.338 -83.076)" fill="#263238"/><path d="M243.243,110.044a.569.569,0,0,1-.353-.125c-2.718-2.155-6.209-.461-6.254-.443a.57.57,0,0,1-.512-1.018c.171-.085,4.173-2.035,7.465.569a.569.569,0,0,1-.358,1.018Z" transform="translate(-119.854 -79.052)" fill="#263238"/><path d="M229.8,132.514a5.6,5.6,0,0,1-2.809-1.08c-.6-.455-.517-1.774-.495-2.03a.3.3,0,0,1,.313-.262.29.29,0,0,1,.256.313c-.045.5,0,1.33.267,1.524.506.375,2.155,1.285,3,.859a6.709,6.709,0,0,0,1.865-1.848l-.119-1.04a.286.286,0,1,1,.569-.063l.125,1.137a.267.267,0,0,1-.045.188,7.392,7.392,0,0,1-2.138,2.132,1.746,1.746,0,0,1-.79.171Z" transform="translate(-115.827 -88.094)" fill="#263238"/><path d="M227.816,138.789a9.529,9.529,0,0,1-4.293-1.177.29.29,0,0,1-.1-.392.3.3,0,0,1,.392-.1c.028,0,2.968,1.706,5.606.864a8.034,8.034,0,0,0,3.792-2.308.284.284,0,1,1,.455.341,8.4,8.4,0,0,1-4.077,2.513A5.856,5.856,0,0,1,227.816,138.789Z" transform="translate(-114.491 -91.083)" fill="#263238"/><path d="M186.17,275.964l6.868-3.6-5.271-4.685Z" transform="translate(-98.436 -148.085)" fill="#263238"/><path d="M185.954,276.031a.278.278,0,0,1-.171-.057.284.284,0,0,1-.108-.284l1.6-8.284a.284.284,0,0,1,.466-.159l5.271,4.685a.284.284,0,0,1-.057.466l-6.868,3.6A.261.261,0,0,1,185.954,276.031Zm1.78-8.028-1.387,7.215,5.981-3.133Z" transform="translate(-98.22 -147.868)" fill="#263238"/><path d="M194.206,254.79s18.592,12.218,20.224,13.577,3.7,12.787,3.7,12.787a1.865,1.865,0,0,1-1.49.273c-.682-.273-5.344-7.63-5.481-8.039s-2.143,3.883-2.274,4.7a35.966,35.966,0,0,0,.785,7.522c.4.813,2.843,7.329,3.121,8.011s-.131,1.353-.569,1.353a19.676,19.676,0,0,1-2.985-1.353l-5.43-2.718a46.185,46.185,0,0,1-2.843-4.207,31,31,0,0,1-1.49-2.843s0,7.6-.569,8.528-1.9-.409-1.9-1.222-.273-6.925-.273-8.011-3.934-17.239-3.934-17.239l-2.172-.949Z" transform="translate(-100.36 -142.524)" fill="#fff"/><path d="M212.075,295.062a16.641,16.641,0,0,1-3.121-1.387l-5.424-2.712a.335.335,0,0,1-.1-.085,46.458,46.458,0,0,1-2.871-4.236c-.421-.733-.739-1.325-.972-1.774,0,2.24-.125,6.7-.569,7.477a.859.859,0,0,1-1.012.432,2.206,2.206,0,0,1-1.421-1.8c0-.375-.057-1.9-.119-3.514-.074-1.922-.154-3.906-.154-4.5,0-.853-2.78-12.451-3.895-17.057l-2.041-.893a.29.29,0,0,1-.159-.353l3.531-10.183a.284.284,0,0,1,.176-.176.279.279,0,0,1,.25.034c.762.495,18.632,12.241,20.252,13.589s3.6,11.78,3.815,12.963a.284.284,0,0,1-.125.284,2.132,2.132,0,0,1-1.757.3c-.819-.33-4.548-6.339-5.435-7.869a24.478,24.478,0,0,0-1.939,4.31,36.225,36.225,0,0,0,.762,7.346c.307.608,1.706,4.258,2.524,6.447.307.8.534,1.4.608,1.581a1.455,1.455,0,0,1-.125,1.336.841.841,0,0,1-.682.432Zm-8.233-4.548,5.373,2.684a19.55,19.55,0,0,0,2.843,1.325.324.324,0,0,0,.21-.159.893.893,0,0,0,.063-.807c-.074-.182-.3-.785-.608-1.592-.83-2.172-2.212-5.811-2.5-6.4-.443-.876-.955-6.857-.813-7.693.045-.29,1.859-4.912,2.5-4.958a.341.341,0,0,1,.324.216c.267.665,4.708,7.522,5.327,7.875a1.433,1.433,0,0,0,1.063-.159c-.608-3.292-2.337-11.371-3.582-12.429-1.484-1.234-17.472-11.763-19.9-13.355l-3.326,9.592,1.933.841a.273.273,0,0,1,.159.193c.4,1.66,3.946,16.221,3.946,17.307,0,.569.08,2.649.154,4.475.063,1.62.119,3.15.119,3.536a1.672,1.672,0,0,0,1,1.245.29.29,0,0,0,.37-.165c.37-.642.506-5.5.506-8.409a.29.29,0,0,1,.569-.114,30.217,30.217,0,0,0,1.478,2.843,46.683,46.683,0,0,0,2.792,4.054Z" transform="translate(-100.177 -142.309)" fill="#263238"/><path d="M221.735,312.449a.267.267,0,0,1-.222-.108c-.165-.2-3.98-5.089-4.634-6.374s-4.111-10.569-4.253-10.962a.284.284,0,1,1,.529-.2c.04.1,3.61,9.665,4.236,10.9s4.548,6.254,4.548,6.283a.279.279,0,0,1-.222.455Z" transform="translate(-109.837 -159.696)" fill="#263238"/><path d="M216.1,312.219a.267.267,0,0,1-.182-.068c-.171-.142-4.185-3.5-5.242-4.548s-3.889-9.068-4.207-9.978a.284.284,0,0,1,.176-.358.273.273,0,0,1,.358.171c.853,2.433,3.241,8.932,4.077,9.768,1.04,1.04,5.162,4.492,5.2,4.548a.29.29,0,0,1,.034.4A.279.279,0,0,1,216.1,312.219Z" transform="translate(-107.188 -160.842)" fill="#263238"/><path d="M126.2,214.062l32.84,20.229-7.875,15.2-45.883-26.336a2.723,2.723,0,0,1,0-2.172c.569-.949,11.542-14.657,11.542-14.657" transform="translate(-63.439 -121.616)" fill="#f8951d"/><path d="M150.96,249.561a.268.268,0,0,1-.142-.04l-45.883-26.336a.256.256,0,0,1-.114-.131,2.945,2.945,0,0,1,0-2.428c.569-.955,11.115-14.134,11.564-14.7a.285.285,0,1,1,.443.358c-3.8,4.736-11.093,13.884-11.513,14.623a2.337,2.337,0,0,0,0,1.831L150.857,248.9l7.613-14.709-32.624-20.1a.284.284,0,0,1,.3-.483l32.851,20.224a.29.29,0,0,1,.1.375l-7.869,15.2a.313.313,0,0,1-.176.142Z" transform="translate(-63.226 -121.398)" fill="#263238"/><rect width="22.162" height="16.323" transform="translate(182.944 57.793)" fill="#fff"/><path d="M375.568,175.38H353.394a.284.284,0,0,1-.284-.284V158.784a.284.284,0,0,1,.284-.284h22.174a.29.29,0,0,1,.284.284v16.323A.284.284,0,0,1,375.568,175.38Zm-21.878-.569H375.3V159.057H353.69Z" transform="translate(-170.461 -100.98)" fill="#263238"/><rect width="22.162" height="16.323" transform="translate(182.251 57.793)" fill="#fff"/><path d="M374.348,175.38H352.174a.284.284,0,0,1-.284-.284V158.784a.284.284,0,0,1,.284-.284h22.174a.284.284,0,0,1,.284.284v16.323A.284.284,0,0,1,374.348,175.38Zm-21.878-.569h21.605V159.057H352.47Z" transform="translate(-169.935 -100.98)" fill="#263238"/><rect width="18.842" height="13.878" transform="translate(183.911 59.015)" fill="#fff"/><path d="M373.956,175.054H355.114a.284.284,0,0,1-.284-.284V160.914a.284.284,0,0,1,.284-.284h18.842a.284.284,0,0,1,.284.284v13.878A.284.284,0,0,1,373.956,175.054Zm-18.558-.569h18.29V161.2H355.4Z" transform="translate(-171.203 -101.899)" fill="#263238"/><rect width="4.429" height="6.112" transform="translate(192.019 74.133)" fill="#fff"/><path d="M373.809,193.918h-4.435a.29.29,0,0,1-.284-.284V187.5a.284.284,0,0,1,.284-.284h4.435a.284.284,0,0,1,.284.284v6.112a.284.284,0,0,1-.284.3Zm-4.15-.569h3.866v-5.543h-3.866Z" transform="translate(-177.356 -113.371)" fill="#263238"/><rect width="4.429" height="6.112" transform="translate(191.115 74.133)" fill="#fff"/><path d="M372.219,193.918h-4.435a.29.29,0,0,1-.284-.284V187.5a.284.284,0,0,1,.284-.284h4.435a.284.284,0,0,1,.284.284v6.112a.284.284,0,0,1-.284.3Zm-4.15-.569h3.866v-5.543h-3.866Z" transform="translate(-176.67 -113.371)" fill="#263238"/><rect width="10.609" height="1.075" transform="translate(188.027 80.109)" fill="#fff"/><path d="M372.964,199.373H362.354a.284.284,0,0,1-.284-.284v-1.075a.29.29,0,0,1,.284-.284h10.609a.284.284,0,0,1,.284.284v1.075A.284.284,0,0,1,372.964,199.373Zm-10.325-.569h10.041V198.3H362.639Z" transform="translate(-174.327 -117.906)" fill="#263238"/></g></g></svg>