<svg xmlns="http://www.w3.org/2000/svg" width="250" height="215.652" viewBox="0 0 250 215.652"><g transform="translate(-50.69 -88.382)"><g transform="translate(54.136 289.64)"><ellipse cx="123.277" cy="7.197" rx="123.277" ry="7.197" fill="#f5f5f5"/></g><g transform="translate(50.69 89.773)"><path d="M265.663,109.937l-27.181,41.385-1.2,1.825-2.365,1.094-84.13,39.1,8.31,28.478,1.9,6.511-6.587,5.443L97.657,288.923H50.69L135.609,218.4l-5.144-28-1.4-7.623,6.574-3.026L225.3,138.465l29.2-36.127-7.833-1.551L271.3,90.57,270.031,117.2Z" transform="translate(-50.69 -90.57)" fill="#263238"/><path d="M265.663,109.937l-27.181,41.385-1.2,1.825-2.365,1.094-84.13,39.1,8.31,28.478,1.9,6.511-6.587,5.443L97.657,288.923H50.69L135.609,218.4l-5.144-28-1.4-7.623,6.574-3.026L225.3,138.465l29.2-36.127-7.833-1.551L271.3,90.57,270.031,117.2Z" transform="translate(-50.69 -90.57)" fill="#fafafa" opacity="0.6"/></g><g transform="translate(146.468 88.382)"><rect width="46.617" height="11.864" rx="1.26" transform="translate(59.168 197.169)" fill="#f8951d"/><rect width="1.844" height="10.599" transform="translate(61.254 197.856)" opacity="0.2"/><rect width="1.342" height="10.599" transform="translate(65.946 197.805)" opacity="0.2"/><rect width="0.674" height="10.599" transform="translate(70.473 197.856)" opacity="0.2"/><rect width="0.337" height="10.599" transform="translate(76.011 197.805)" opacity="0.2"/><rect width="1.844" height="10.599" transform="translate(103.7 208.404) rotate(180)" opacity="0.2"/><rect width="1.342" height="10.599" transform="translate(99.008 208.455) rotate(180)" opacity="0.2"/><rect width="0.668" height="10.599" transform="translate(94.481 208.404) rotate(180)" opacity="0.2"/><rect width="0.337" height="10.599" transform="translate(88.943 208.455) rotate(180)" opacity="0.2"/><rect width="0.165" height="10.599" transform="translate(82.56 208.455) rotate(180)" opacity="0.2"/><path d="M340.209,400.689H296.18a.559.559,0,0,1-.56-.56h0a.566.566,0,0,1,.559-.56h44.03a.559.559,0,0,1,.56.56h0a.553.553,0,0,1-.56.56Z" transform="translate(-235.67 -201.714)" fill="#fff" opacity="0.2"/><rect width="46.617" height="11.864" rx="1.26" transform="translate(60.44 185.337)" fill="#f8951d"/><rect width="1.844" height="10.599" transform="translate(62.525 186.023)" opacity="0.2"/><rect width="1.342" height="10.599" transform="translate(67.224 185.973)" opacity="0.2"/><rect width="0.668" height="10.599" transform="translate(71.751 186.023)" opacity="0.2"/><rect width="0.337" height="10.599" transform="translate(77.283 185.973)" opacity="0.2"/><rect width="1.844" height="10.599" transform="translate(104.978 196.565) rotate(180)" opacity="0.2"/><rect width="1.342" height="10.599" transform="translate(100.28 196.616) rotate(180)" opacity="0.2"/><rect width="0.674" height="10.599" transform="translate(95.753 196.565) rotate(180)" opacity="0.2"/><rect width="0.337" height="10.599" transform="translate(90.215 196.616) rotate(180)" opacity="0.2"/><rect width="0.165" height="10.599" transform="translate(83.831 196.616) rotate(180)" opacity="0.2"/><path d="M342.209,382.079H298.18a.566.566,0,0,1-.56-.56h0a.559.559,0,0,1,.559-.56h44.03a.553.553,0,0,1,.56.56h0A.56.56,0,0,1,342.209,382.079Z" transform="translate(-236.398 -194.937)" fill="#fff" opacity="0.2"/><rect width="46.617" height="11.864" rx="1.26" transform="translate(60.44 173.504)" fill="#f8951d"/><rect width="1.844" height="10.599" transform="translate(62.525 174.185)" opacity="0.2"/><rect width="1.342" height="10.599" transform="translate(67.224 174.134)" opacity="0.2"/><rect width="0.668" height="10.599" transform="translate(71.751 174.185)" opacity="0.2"/><rect width="0.337" height="10.599" transform="translate(77.283 174.134)" opacity="0.2"/><rect width="1.844" height="10.599" transform="translate(104.978 184.733) rotate(180)" opacity="0.2"/><rect width="1.342" height="10.599" transform="translate(100.28 184.784) rotate(180)" opacity="0.2"/><rect width="0.674" height="10.599" transform="translate(95.753 184.733) rotate(180)" opacity="0.2"/><rect width="0.337" height="10.599" transform="translate(90.215 184.784) rotate(180)" opacity="0.2"/><rect width="0.165" height="10.599" transform="translate(83.831 184.784) rotate(180)" opacity="0.2"/><path d="M342.209,363.459H298.18a.56.56,0,0,1-.56-.56h0a.566.566,0,0,1,.559-.56h44.03a.56.56,0,0,1,.56.56h0a.553.553,0,0,1-.56.56Z" transform="translate(-236.398 -188.155)" fill="#fff" opacity="0.2"/><rect width="46.617" height="11.864" rx="1.26" transform="translate(59.168 161.666)" fill="#f8951d"/><rect width="1.844" height="10.599" transform="translate(61.254 162.352)" opacity="0.2"/><rect width="1.342" height="10.599" transform="translate(65.946 162.301)" opacity="0.2"/><rect width="0.674" height="10.599" transform="translate(70.473 162.352)" opacity="0.2"/><rect width="0.337" height="10.599" transform="translate(76.011 162.301)" opacity="0.2"/><rect width="1.844" height="10.599" transform="translate(103.7 172.894) rotate(180)" opacity="0.2"/><rect width="1.342" height="10.599" transform="translate(99.008 172.945) rotate(180)" opacity="0.2"/><rect width="0.668" height="10.599" transform="translate(94.481 172.894) rotate(180)" opacity="0.2"/><rect width="0.337" height="10.599" transform="translate(88.943 172.945) rotate(180)" opacity="0.2"/><rect width="0.165" height="10.599" transform="translate(82.56 172.945) rotate(180)" opacity="0.2"/><path d="M340.209,344.849H296.18a.566.566,0,0,1-.56-.56h0a.56.56,0,0,1,.56-.56h44.03a.553.553,0,0,1,.56.56h0A.56.56,0,0,1,340.209,344.849Z" transform="translate(-235.67 -181.378)" fill="#fff" opacity="0.2"/><rect width="46.617" height="11.864" rx="1.26" transform="translate(57.261 149.833)" fill="#f8951d"/><rect width="1.844" height="10.599" transform="translate(59.346 150.513)" opacity="0.2"/><rect width="1.342" height="10.599" transform="translate(64.039 150.463)" opacity="0.2"/><rect width="0.668" height="10.599" transform="translate(68.566 150.513)" opacity="0.2"/><rect width="0.337" height="10.599" transform="translate(74.104 150.463)" opacity="0.2"/><rect width="1.844" height="10.599" transform="translate(101.793 161.062) rotate(180)" opacity="0.2"/><rect width="1.342" height="10.599" transform="translate(97.094 161.112) rotate(180)" opacity="0.2"/><rect width="0.668" height="10.599" transform="translate(92.574 161.062) rotate(180)" opacity="0.2"/><rect width="0.337" height="10.599" transform="translate(87.042 161.112) rotate(180)" opacity="0.2"/><rect width="0.165" height="10.599" transform="translate(80.652 161.112) rotate(180)" opacity="0.2"/><path d="M337.209,326.229h-44.03a.553.553,0,0,1-.56-.56h0a.559.559,0,0,1,.56-.56h44.03a.559.559,0,0,1,.56.56h0a.553.553,0,0,1-.56.56Z" transform="translate(-234.577 -174.597)" fill="#fff" opacity="0.2"/><rect width="46.617" height="11.864" rx="1.26" transform="translate(59.168 137.994)" fill="#f8951d"/><rect width="1.844" height="10.599" transform="translate(61.254 138.681)" opacity="0.2"/><rect width="1.342" height="10.599" transform="translate(65.946 138.63)" opacity="0.2"/><rect width="0.674" height="10.599" transform="translate(70.473 138.681)" opacity="0.2"/><rect width="0.337" height="10.599" transform="translate(76.011 138.63)" opacity="0.2"/><rect width="1.844" height="10.599" transform="translate(103.7 149.223) rotate(180)" opacity="0.2"/><rect width="1.342" height="10.599" transform="translate(99.008 149.274) rotate(180)" opacity="0.2"/><rect width="0.668" height="10.599" transform="translate(94.481 149.223) rotate(180)" opacity="0.2"/><rect width="0.337" height="10.599" transform="translate(88.943 149.274) rotate(180)" opacity="0.2"/><rect width="0.165" height="10.599" transform="translate(82.56 149.274) rotate(180)" opacity="0.2"/><path d="M340.209,307.619H296.18a.56.56,0,0,1-.56-.56h0a.56.56,0,0,1,.56-.56h44.03a.553.553,0,0,1,.56.56h0a.553.553,0,0,1-.56.56Z" transform="translate(-235.67 -167.819)" fill="#fff" opacity="0.2"/><rect width="46.617" height="11.864" rx="1.26" transform="translate(59.168 126.162)" fill="#f8951d"/><rect width="1.844" height="10.599" transform="translate(61.254 126.842)" opacity="0.2"/><rect width="1.342" height="10.599" transform="translate(65.946 126.791)" opacity="0.2"/><rect width="0.674" height="10.599" transform="translate(70.473 126.842)" opacity="0.2"/><rect width="0.337" height="10.599" transform="translate(76.011 126.791)" opacity="0.2"/><rect width="1.844" height="10.599" transform="translate(103.7 137.39) rotate(180)" opacity="0.2"/><rect width="1.342" height="10.599" transform="translate(99.008 137.441) rotate(180)" opacity="0.2"/><rect width="0.668" height="10.599" transform="translate(94.481 137.39) rotate(180)" opacity="0.2"/><rect width="0.337" height="10.599" transform="translate(88.943 137.441) rotate(180)" opacity="0.2"/><rect width="0.165" height="10.599" transform="translate(82.56 137.441) rotate(180)" opacity="0.2"/><path d="M340.209,289.005H296.18a.566.566,0,0,1-.56-.566h0a.566.566,0,0,1,.56-.56h44.03a.56.56,0,0,1,.56.56h0a.56.56,0,0,1-.56.566Z" transform="translate(-235.67 -161.038)" fill="#fff" opacity="0.2"/><rect width="46.617" height="11.864" rx="1.26" transform="translate(61.076 114.323)" fill="#f8951d"/><rect width="1.844" height="10.599" transform="translate(63.161 115.01)" opacity="0.2"/><rect width="1.342" height="10.599" transform="translate(67.86 114.959)" opacity="0.2"/><rect width="0.674" height="10.599" transform="translate(72.387 115.01)" opacity="0.2"/><rect width="0.337" height="10.599" transform="translate(77.918 114.959)" opacity="0.2"/><rect width="1.844" height="10.599" transform="translate(105.614 125.552) rotate(180)" opacity="0.2"/><rect width="1.342" height="10.599" transform="translate(100.916 125.609) rotate(180)" opacity="0.2"/><rect width="0.668" height="10.599" transform="translate(96.389 125.552) rotate(180)" opacity="0.2"/><rect width="0.337" height="10.599" transform="translate(90.851 125.609) rotate(180)" opacity="0.2"/><rect width="0.165" height="10.599" transform="translate(84.474 125.609) rotate(180)" opacity="0.2"/><path d="M343.209,270.359H299.186a.56.56,0,0,1-.566-.56h0a.56.56,0,0,1,.566-.56h44.023a.56.56,0,0,1,.566.56h0a.56.56,0,0,1-.566.56Z" transform="translate(-236.762 -154.249)" fill="#fff" opacity="0.2"/><rect width="46.617" height="11.864" rx="1.26" transform="translate(57.897 102.491)" fill="#f8951d"/><rect width="1.844" height="10.599" transform="translate(59.982 103.178)" opacity="0.2"/><rect width="1.342" height="10.599" transform="translate(64.674 103.12)" opacity="0.2"/><rect width="0.668" height="10.599" transform="translate(69.201 103.178)" opacity="0.2"/><rect width="0.337" height="10.599" transform="translate(74.739 103.12)" opacity="0.2"/><rect width="1.844" height="10.599" transform="translate(102.429 113.719) rotate(180)" opacity="0.2"/><rect width="1.342" height="10.599" transform="translate(97.73 113.77) rotate(180)" opacity="0.2"/><rect width="0.668" height="10.599" transform="translate(93.21 113.719) rotate(180)" opacity="0.2"/><rect width="0.337" height="10.599" transform="translate(87.672 113.77) rotate(180)" opacity="0.2"/><rect width="0.165" height="10.599" transform="translate(81.288 113.77) rotate(180)" opacity="0.2"/><path d="M338.209,251.779H294.18a.566.566,0,0,1-.56-.56h0a.56.56,0,0,1,.56-.56h44.03a.553.553,0,0,1,.559.56h0A.559.559,0,0,1,338.209,251.779Z" transform="translate(-234.941 -147.482)" fill="#fff" opacity="0.2"/><rect width="46.617" height="11.864" rx="1.26" transform="translate(56.625 90.652)" fill="#f8951d"/><rect width="1.844" height="10.599" transform="translate(58.711 91.339)" opacity="0.2"/><rect width="1.342" height="10.599" transform="translate(63.403 91.288)" opacity="0.2"/><rect width="0.674" height="10.599" transform="translate(67.93 91.339)" opacity="0.2"/><rect width="0.337" height="10.599" transform="translate(73.468 91.288)" opacity="0.2"/><rect width="1.844" height="10.599" transform="translate(101.157 101.88) rotate(180)" opacity="0.2"/><rect width="1.342" height="10.599" transform="translate(96.459 101.938) rotate(180)" opacity="0.2"/><rect width="0.668" height="10.599" transform="translate(91.932 101.88) rotate(180)" opacity="0.2"/><rect width="0.337" height="10.599" transform="translate(86.406 101.938) rotate(180)" opacity="0.2"/><rect width="0.165" height="10.599" transform="translate(80.017 101.938) rotate(180)" opacity="0.2"/><path d="M336.209,233.159h-44.03a.553.553,0,0,1-.559-.56h0a.553.553,0,0,1,.56-.56h44.03a.553.553,0,0,1,.56.56h0a.553.553,0,0,1-.56.56Z" transform="translate(-234.213 -140.701)" fill="#fff" opacity="0.2"/><rect width="46.617" height="11.864" rx="1.26" transform="translate(1.914 197.169)" fill="#f8951d"/><rect width="1.844" height="10.599" transform="translate(3.993 197.856)" opacity="0.2"/><rect width="1.342" height="10.599" transform="translate(8.692 197.805)" opacity="0.2"/><rect width="0.668" height="10.599" transform="translate(13.218 197.856)" opacity="0.2"/><rect width="0.337" height="10.599" transform="translate(18.75 197.805)" opacity="0.2"/><rect width="1.844" height="10.599" transform="translate(46.446 208.404) rotate(180)" opacity="0.2"/><rect width="1.342" height="10.599" transform="translate(41.747 208.455) rotate(180)" opacity="0.2"/><rect width="0.668" height="10.599" transform="translate(37.22 208.404) rotate(180)" opacity="0.2"/><rect width="0.337" height="10.599" transform="translate(31.689 208.455) rotate(180)" opacity="0.2"/><rect width="0.165" height="10.599" transform="translate(25.305 208.455) rotate(180)" opacity="0.2"/><path d="M250.159,400.689h-44.03a.553.553,0,0,1-.56-.56h0a.56.56,0,0,1,.56-.56h44.03a.566.566,0,0,1,.56.56h0A.56.56,0,0,1,250.159,400.689Z" transform="translate(-202.874 -201.714)" fill="#fff" opacity="0.2"/><rect width="46.617" height="11.864" rx="1.26" transform="translate(0 185.337)" fill="#f8951d"/><rect width="1.844" height="10.599" transform="translate(2.085 186.023)" opacity="0.2"/><rect width="1.342" height="10.599" transform="translate(6.784 185.973)" opacity="0.2"/><rect width="0.668" height="10.599" transform="translate(11.311 186.023)" opacity="0.2"/><rect width="0.337" height="10.599" transform="translate(16.843 185.973)" opacity="0.2"/><rect width="1.844" height="10.599" transform="translate(44.538 196.565) rotate(180)" opacity="0.2"/><rect width="1.342" height="10.599" transform="translate(39.84 196.616) rotate(180)" opacity="0.2"/><rect width="0.668" height="10.599" transform="translate(35.313 196.565) rotate(180)" opacity="0.2"/><rect width="0.337" height="10.599" transform="translate(29.775 196.616) rotate(180)" opacity="0.2"/><rect width="0.165" height="10.599" transform="translate(23.391 196.616) rotate(180)" opacity="0.2"/><path d="M247.149,382.079H203.12a.566.566,0,0,1-.56-.56h0a.559.559,0,0,1,.56-.56h44.03a.553.553,0,0,1,.559.56h0A.559.559,0,0,1,247.149,382.079Z" transform="translate(-201.778 -194.937)" fill="#fff" opacity="0.2"/><rect width="46.617" height="11.864" rx="1.26" transform="translate(1.914 173.504)" fill="#f8951d"/><rect width="1.844" height="10.599" transform="translate(3.993 174.185)" opacity="0.2"/><rect width="1.342" height="10.599" transform="translate(8.692 174.134)" opacity="0.2"/><rect width="0.668" height="10.599" transform="translate(13.218 174.185)" opacity="0.2"/><rect width="0.337" height="10.599" transform="translate(18.75 174.134)" opacity="0.2"/><rect width="1.844" height="10.599" transform="translate(46.446 184.733) rotate(180)" opacity="0.2"/><rect width="1.342" height="10.599" transform="translate(41.747 184.784) rotate(180)" opacity="0.2"/><rect width="0.668" height="10.599" transform="translate(37.22 184.733) rotate(180)" opacity="0.2"/><rect width="0.337" height="10.599" transform="translate(31.689 184.784) rotate(180)" opacity="0.2"/><rect width="0.165" height="10.599" transform="translate(25.305 184.784) rotate(180)" opacity="0.2"/><path d="M250.159,363.459h-44.03a.553.553,0,0,1-.56-.56h0a.56.56,0,0,1,.56-.56h44.03a.566.566,0,0,1,.56.56h0A.56.56,0,0,1,250.159,363.459Z" transform="translate(-202.874 -188.155)" fill="#fff" opacity="0.2"/><rect width="46.617" height="11.864" rx="1.26" transform="translate(0.636 161.666)" fill="#f8951d"/><rect width="1.844" height="10.599" transform="translate(2.721 162.352)" opacity="0.2"/><rect width="1.342" height="10.599" transform="translate(7.42 162.301)" opacity="0.2"/><rect width="0.668" height="10.599" transform="translate(11.947 162.352)" opacity="0.2"/><rect width="0.337" height="10.599" transform="translate(17.478 162.301)" opacity="0.2"/><rect width="1.844" height="10.599" transform="translate(45.174 172.894) rotate(180)" opacity="0.2"/><rect width="1.342" height="10.599" transform="translate(40.476 172.945) rotate(180)" opacity="0.2"/><rect width="0.674" height="10.599" transform="translate(35.949 172.894) rotate(180)" opacity="0.2"/><rect width="0.337" height="10.599" transform="translate(30.411 172.945) rotate(180)" opacity="0.2"/><rect width="0.165" height="10.599" transform="translate(24.034 172.945) rotate(180)" opacity="0.2"/><path d="M248.149,344.849H204.126a.566.566,0,0,1-.566-.56h0a.559.559,0,0,1,.566-.56h44.023a.56.56,0,0,1,.566.56h0a.566.566,0,0,1-.566.56Z" transform="translate(-202.142 -181.378)" fill="#fff" opacity="0.2"/><rect width="46.617" height="11.864" rx="1.26" transform="translate(0.636 149.833)" fill="#f8951d"/><rect width="1.844" height="10.599" transform="translate(2.721 150.513)" opacity="0.2"/><rect width="1.342" height="10.599" transform="translate(7.42 150.463)" opacity="0.2"/><rect width="0.668" height="10.599" transform="translate(11.947 150.513)" opacity="0.2"/><rect width="0.337" height="10.599" transform="translate(17.478 150.463)" opacity="0.2"/><rect width="1.844" height="10.599" transform="translate(45.174 161.062) rotate(180)" opacity="0.2"/><rect width="1.342" height="10.599" transform="translate(40.476 161.112) rotate(180)" opacity="0.2"/><rect width="0.674" height="10.599" transform="translate(35.949 161.062) rotate(180)" opacity="0.2"/><rect width="0.337" height="10.599" transform="translate(30.411 161.112) rotate(180)" opacity="0.2"/><rect width="0.165" height="10.599" transform="translate(24.034 161.112) rotate(180)" opacity="0.2"/><path d="M248.149,326.229H204.126a.56.56,0,0,1-.566-.56h0a.566.566,0,0,1,.566-.56h44.023a.566.566,0,0,1,.566.56h0a.56.56,0,0,1-.566.56Z" transform="translate(-202.142 -174.596)" fill="#fff" opacity="0.2"/><rect width="46.617" height="11.864" rx="1.26" transform="translate(0.636 137.994)" fill="#f8951d"/><rect width="1.844" height="10.599" transform="translate(2.721 138.681)" opacity="0.2"/><rect width="1.342" height="10.599" transform="translate(7.42 138.63)" opacity="0.2"/><rect width="0.668" height="10.599" transform="translate(11.947 138.681)" opacity="0.2"/><rect width="0.337" height="10.599" transform="translate(17.478 138.63)" opacity="0.2"/><rect width="1.844" height="10.599" transform="translate(45.174 149.223) rotate(180)" opacity="0.2"/><rect width="1.342" height="10.599" transform="translate(40.476 149.274) rotate(180)" opacity="0.2"/><rect width="0.674" height="10.599" transform="translate(35.949 149.223) rotate(180)" opacity="0.2"/><rect width="0.337" height="10.599" transform="translate(30.411 149.274) rotate(180)" opacity="0.2"/><rect width="0.165" height="10.599" transform="translate(24.034 149.274) rotate(180)" opacity="0.2"/><path d="M248.149,307.619H204.126a.56.56,0,0,1-.566-.56h0a.56.56,0,0,1,.566-.56h44.023a.559.559,0,0,1,.566.56h0a.56.56,0,0,1-.566.56Z" transform="translate(-202.142 -167.819)" fill="#fff" opacity="0.2"/><rect width="46.617" height="11.864" rx="1.26" transform="translate(1.189 114.196)" fill="#f8951d"/><rect width="1.844" height="10.599" transform="translate(3.274 114.883)" opacity="0.2"/><rect width="1.342" height="10.599" transform="translate(7.973 114.832)" opacity="0.2"/><rect width="0.668" height="10.599" transform="translate(12.5 114.883)" opacity="0.2"/><rect width="0.337" height="10.599" transform="translate(18.032 114.832)" opacity="0.2"/><rect width="1.844" height="10.599" transform="translate(45.727 125.424) rotate(180)" opacity="0.2"/><rect width="1.342" height="10.599" transform="translate(41.029 125.482) rotate(180)" opacity="0.2"/><rect width="0.668" height="10.599" transform="translate(36.502 125.424) rotate(180)" opacity="0.2"/><rect width="0.337" height="10.599" transform="translate(30.964 125.482) rotate(180)" opacity="0.2"/><rect width="0.165" height="10.599" transform="translate(24.587 125.482) rotate(180)" opacity="0.2"/><path d="M249.019,270.189H205a.56.56,0,0,1-.566-.56h0a.566.566,0,0,1,.566-.56h44.023a.566.566,0,0,1,.566.56h0a.56.56,0,0,1-.566.56Z" transform="translate(-202.459 -154.187)" fill="#fff" opacity="0.2"/><rect width="46.617" height="11.864" rx="1.26" transform="translate(1.914 126.162)" fill="#f8951d"/><rect width="1.844" height="10.599" transform="translate(3.993 126.842)" opacity="0.2"/><rect width="1.342" height="10.599" transform="translate(8.692 126.791)" opacity="0.2"/><rect width="0.668" height="10.599" transform="translate(13.218 126.842)" opacity="0.2"/><rect width="0.337" height="10.599" transform="translate(18.75 126.791)" opacity="0.2"/><rect width="1.844" height="10.599" transform="translate(46.446 137.39) rotate(180)" opacity="0.2"/><rect width="1.342" height="10.599" transform="translate(41.747 137.441) rotate(180)" opacity="0.2"/><rect width="0.668" height="10.599" transform="translate(37.22 137.39) rotate(180)" opacity="0.2"/><rect width="0.337" height="10.599" transform="translate(31.689 137.441) rotate(180)" opacity="0.2"/><rect width="0.165" height="10.599" transform="translate(25.305 137.441) rotate(180)" opacity="0.2"/><path d="M250.159,289.005h-44.03a.56.56,0,0,1-.56-.566h0a.56.56,0,0,1,.56-.56h44.03a.566.566,0,0,1,.56.56h0a.566.566,0,0,1-.56.566Z" transform="translate(-202.874 -161.038)" fill="#fff" opacity="0.2"/><path d="M246.981,255.778l-1.424,2.785-1.45,2.829-2.537-.928,1.272-2.486,1.6-3.128Z" transform="translate(-215.985 -149.008)" fill="#ffc2bc"/><path d="M247.709,255.778l-1.424,2.785-2.715-.585,1.6-3.128Z" transform="translate(-216.713 -149.008)" opacity="0.2"/><path d="M326.409,179.4a.312.312,0,0,1-.312-.273c-.089-.636-8.444-62.945-18.527-90.285a.318.318,0,1,1,.591-.223c10.116,27.391,18.483,89.8,18.566,90.437a.324.324,0,0,1-.273.362Z" transform="translate(-240.009 -88.382)" fill="#263238"/><path d="M311.9,225.067l2.7-.108.528-6.269-2.709.108Z" transform="translate(-241.599 -135.839)" fill="#ffc2bc"/><path d="M314.35,226.245l-2.95-.1a.254.254,0,0,0-.242.178l-.636,2.378a.394.394,0,0,0,.369.5c1.068,0,2.613,0,3.955.038,1.564.051,2.543,0,4.4.032,1.106.032,1.462-1.075,1-1.189-2.1-.528-3.472-.432-5.252-1.609a1.272,1.272,0,0,0-.642-.229Z" transform="translate(-241.092 -138.556)" fill="#263238"/><path d="M315.276,218.69,315,221.92l-2.7.114.267-3.236Z" transform="translate(-241.744 -135.839)" opacity="0.2"/><path d="M294.655,184.715c.687,1.316.738,15.113.738,18.616h4.673c.6-3.63,3.592-23.124-.636-25.909-4.654-3.071-16.455-2.016-16.455-2.016l-.852-1.723-1.7-3.433-9.766,3.656-2.13.788-.877.331h-.076v.261h0c.032.381.121,1.151.28,2.111a26.887,26.887,0,0,0,.776,3.408c.9,2.944,2.505,5.722,5.29,4.794.121-.038.242-.089.362-.14.229-.1.477-.2.731-.292a29.947,29.947,0,0,1,6.879-1.354C287.789,183.252,294.134,183.7,294.655,184.715Z" transform="translate(-225.454 -118.198)" fill="#263238"/><path d="M315.863,221.853,310.4,222l-.032-1.761,6-.248Z" transform="translate(-241.041 -136.313)" fill="#f8951d"/><path d="M243.956,263h-3.293a.235.235,0,0,0-.229.184l-.56,2.4a.394.394,0,0,0,.388.483c1.062,0,1.837-.083,3.179-.083.82,0,3.293.089,4.451.089s1.272-1.125.827-1.227a10.6,10.6,0,0,1-4.3-1.679A.636.636,0,0,0,243.956,263Z" transform="translate(-215.364 -151.976)" fill="#263238"/><path d="M268.941,176.915l-.566,1.952c-.3,1.043-.712,2.461-1.2,4.107l-1.208,4.114c-2.06,6.962-4.68,15.654-6.129,19.78-2.887,8.189-12.544,22.756-12.544,22.756l-4.648-1.7s7.134-13.721,9.474-22.024c1.634-5.8,4.2-16.219,5.881-23.22l.807-3.357c.273-1.144.5-2.079.636-2.734s.254-1.075.254-1.075l1.876.286Z" transform="translate(-216.378 -120.114)" fill="#263238"/><path d="M247.618,259.017l-5.468-2.009.617-1.628,5.83,1.768Z" transform="translate(-216.196 -149.201)" fill="#f8951d"/><path d="M281.851,173.677l-4.126,4.813-.566-1.539-.636-1.679-.579,5.786-7.592-.248-1.583-.051.807-3.357c-.159-.96-.248-1.729-.28-2.111h0l.051-.286.877-.331c.165-.687.254-1.075.254-1.075l1.876.286,9.785-3.637Z" transform="translate(-225.163 -118.198)" opacity="0.2"/><path d="M285.552,191.045a26.9,26.9,0,0,0-7.63,1.647c-.121.051-.242.1-.362.14l.553-2.721S282.875,189.888,285.552,191.045Z" transform="translate(-229.092 -125.425)" opacity="0.2"/><path d="M232.525,178.767l-1.659,2.2-1.405-2.677s1.6-1.876,2.543-1.011Z" transform="translate(-211.575 -120.675)" fill="#ffc2bc"/><path d="M227.443,182.663l-.413-2.74,1.545-.973,1.405,2.709Z" transform="translate(-210.69 -121.366)" fill="#ffc2bc"/><path d="M234.331,178.363l-.464.235-.687-1.742.738-.356Z" transform="translate(-212.929 -120.474)" fill="#fff"/><path d="M253.036,152.563q-.362.636-.744,1.221-.96,1.564-2.009,3.077l-.579.833c-.585.839-1.2,1.659-1.863,2.48-.331.407-.668.82-1.043,1.227a14.36,14.36,0,0,1-1.2,1.208,26.251,26.251,0,0,1-5.328,3.516,41.146,41.146,0,0,1-5.722,2.429l-.827-1.857c.827-.5,1.685-1.017,2.505-1.551s1.653-1.062,2.448-1.621,1.577-1.125,2.314-1.717a21.567,21.567,0,0,0,2.06-1.837,33.454,33.454,0,0,0,3.287-4.54c1.062-1.647,2.4-4.533,3.452-6.18Z" transform="translate(-213.126 -110.55)" fill="#263238"/><path d="M261.779,155.958q-.96,1.564-2.009,3.077a8.9,8.9,0,0,1,1.087-3.815A1.761,1.761,0,0,1,261.779,155.958Z" transform="translate(-222.613 -112.724)" opacity="0.2"/><path d="M319.214,143.432l-1.844,1.717.261,1.59c.674.89,2.225-.21,2.588-.49a1.075,1.075,0,0,1,.184-.108l.979-.394a.833.833,0,0,0,.5-.9l-.191-1.17a.82.82,0,0,0-.979-.674l-1.1.223A.789.789,0,0,0,319.214,143.432Z" transform="translate(-243.591 -108.267)" fill="#ffc2bc"/><path d="M316.7,146.337l.509-.127.292,1.844-.8.191Z" transform="translate(-243.347 -109.443)" fill="#fff"/><path d="M303.6,144.746a41.51,41.51,0,0,1-6.129.827,25.844,25.844,0,0,1-6.358-.292,14.288,14.288,0,0,1-1.653-.42c-.534-.165-1.03-.343-1.526-.528-.985-.362-1.907-.75-2.867-1.176l-1.125-.509c-.852-.394-1.691-.8-2.543-1.227-.636-.305-1.227-.636-1.837-.966l1.634-3.885c1.748.877,3.815,2.066,5.57,2.937a32.23,32.23,0,0,0,5.144,2.213,20.841,20.841,0,0,0,2.709.528c.941.134,1.907.216,2.867.292s1.952.121,2.931.134,1.984.045,2.95.057Z" transform="translate(-229.821 -105.932)" fill="#263238"/><path d="M284.774,144.393c-.852-.394-1.691-.8-2.543-1.227l-.331-1.806A6.358,6.358,0,0,1,284.774,144.393Z" transform="translate(-230.673 -107.676)" opacity="0.2"/><path d="M259.88,144.566a51.206,51.206,0,0,1,2.505,7.973c.458,1.907,2.079,3.815,2.359,5.563a48.858,48.858,0,0,0,1.144,5.722c1.939-1.043,7.808-2.333,11.743-4.451.165-15.844-4.088-22.024-4.088-22.024a26.793,26.793,0,0,0-3.179,1.024l-.687.286a60.757,60.757,0,0,0-5.531,2.969c-.35.21-.7.426-1.036.636C261.38,143.4,259.88,144.566,259.88,144.566Z" transform="translate(-222.653 -106.216)" fill="#f8951d"/><path d="M259.88,144.566a51.206,51.206,0,0,1,2.505,7.973c.458,1.907,2.079,3.815,2.359,5.563a48.858,48.858,0,0,0,1.144,5.722c1.939-1.043,7.808-2.333,11.743-4.451.165-15.844-4.088-22.024-4.088-22.024a26.793,26.793,0,0,0-3.179,1.024l-.687.286a60.757,60.757,0,0,0-5.531,2.969c-.35.21-.7.426-1.036.636C261.38,143.4,259.88,144.566,259.88,144.566Z" transform="translate(-222.653 -106.216)" fill="#fff" opacity="0.7"/><path d="M275.476,147.352l.242-1.469-1.011-.064-.617.68Z" transform="translate(-227.829 -109.301)" fill="#f8951d"/><path d="M271.808,141.238c-1.869,1.043-3.719-.172-4.915-1l-.127-.089a4.415,4.415,0,0,0,.407-3.09,17.579,17.579,0,0,0-1.043-3.815l4.279,2.454c0,.292-.051.553-.064.782-.057.553-.064.928.242,1.17a2.81,2.81,0,0,0,1.558.35C272.634,138.562,273.092,140.52,271.808,141.238Z" transform="translate(-224.93 -104.719)" fill="#ffc2bc"/><path d="M262.829,142a110.943,110.943,0,0,0,9.327,8.679s-.292-9.938-2.073-12.576l3.662-1.532s3.522,7.782,4.025,20.778l1.59,3.274-4.451,4.527-1.431-3.357-.96,5.57-9.181.814,1.125-6.358-5.423-17.167Z" transform="translate(-222.347 -105.932)" fill="#263238"/><path d="M275.51,147.567a29.019,29.019,0,0,1,1.183,6.651l1.64.852.292-1.272s-1.443-5.589-2.772-6.568Z" transform="translate(-228.346 -109.814)" fill="#f8951d"/><path d="M264.535,142.387s6.727,7.382,9.1,9.143c0,0-.693-9.995-2.238-12.506,0,0,1.062-.731,3.325,1.475l-1.132,2.1,2.009,1.386s-.687,7.49-2.009,11.044a15.948,15.948,0,0,0,.127-2.263l-7.89-4.374.35-2.416-2.982-.127S263.531,142.991,264.535,142.387Z" transform="translate(-223.863 -106.783)" fill="#263238"/><path d="M264.535,142.387s6.727,7.382,9.1,9.143c0,0-.693-9.995-2.238-12.506,0,0,1.062-.731,3.325,1.475l-1.132,2.1,2.009,1.386s-.687,7.49-2.009,11.044a15.948,15.948,0,0,0,.127-2.263l-7.89-4.374.35-2.416-2.982-.127S263.531,142.991,264.535,142.387Z" transform="translate(-223.863 -106.783)" fill="#fff" opacity="0.2"/><path d="M298.168,89.767s-3.815-.432-5.945.572-4.273,4.279-7.731,4.591-4.152-.814-4.152-.814,3.046,5.4,8.9,5.347,8.9-1.024,12.354,1.151C301.608,100.614,298.95,91.452,298.168,89.767Z" transform="translate(-230.105 -88.853)" fill="#f8951d"/><path d="M270.951,139.446a3.383,3.383,0,0,1-3.332,2.632,2.2,2.2,0,0,1-.362,0l-.127-.089a4.415,4.415,0,0,0,.407-3.09,4.247,4.247,0,0,1,3.179-.591C270.652,138.83,270.646,139.2,270.951,139.446Z" transform="translate(-225.294 -106.532)" opacity="0.2"/><path d="M272,144.644a4.5,4.5,0,0,1-.477,2.219c-1.176-.165-4.692-1.907-4.87-3.363a1.869,1.869,0,0,1,.547-.909A8.374,8.374,0,0,0,272,144.644Z" transform="translate(-225.119 -108.124)" fill="#fff"/><path d="M274.335,143.564a4.66,4.66,0,0,1,1.787.909c.331-1.367-1.036-4.654-1.386-4.832a3.249,3.249,0,0,0-1.666.28S274.99,141.714,274.335,143.564Z" transform="translate(-227.457 -107.045)" fill="#fff"/><path d="M260.247,130.733c-.07,1.087.636,3.122,1.857,2.1S260.368,128.863,260.247,130.733Z" transform="translate(-222.785 -103.585)" fill="#263238"/><path d="M268.1,128.92c.788,2.543,1.38,4.018.6,5.767a3.585,3.585,0,0,1-6.263.343c-1.386-2.047-2.448-5.888-.356-7.789a3.694,3.694,0,0,1,6.021,1.679Z" transform="translate(-223.024 -102.186)" fill="#ffc2bc"/><path d="M270.919,124.633c-.254-1.666-2.232-1.431-3.389-.553h0v3.287a7.959,7.959,0,0,0,1.272-.757s.451,2.461,1.958,3.179C272.68,127.927,272.839,125.053,270.919,124.633Z" transform="translate(-225.439 -101.135)" fill="#263238"/><path d="M273.657,132.474a2.543,2.543,0,0,1-.636,1.825c-.6.636-1.38.223-1.6-.6s-.134-1.952.636-2.3a1.157,1.157,0,0,1,1.6,1.075Z" transform="translate(-226.817 -104.016)" fill="#ffc2bc"/><path d="M266.342,133.563a.376.376,0,0,1-.108.458c-.108.051-.305-.076-.382-.28a.376.376,0,0,1,.108-.458C266.069,133.233,266.259,133.36,266.342,133.563Z" transform="translate(-224.817 -104.731)" fill="#263238"/><path d="M262.7,134.893c.083.2.032.407-.1.458s-.305-.076-.382-.28-.032-.407.1-.458S262.619,134.69,262.7,134.893Z" transform="translate(-223.492 -105.215)" fill="#263238"/><path d="M264,134.8a7.451,7.451,0,0,1-.362,2.041,1.272,1.272,0,0,0,1.036-.191Z" transform="translate(-224.023 -105.287)" fill="#ed893e"/><path d="M267.261,137.639l-.261.114a.064.064,0,1,1-.045-.121,1.723,1.723,0,0,0,1.087-1.113.064.064,0,0,1,.076-.051.057.057,0,0,1,.045.076,1.787,1.787,0,0,1-.9,1.094Z" transform="translate(-225.215 -105.895)" fill="#263238"/><path d="M266.613,131.9a.14.14,0,0,1-.134,0,1.017,1.017,0,0,0-.922-.114.128.128,0,0,1-.1-.235,1.272,1.272,0,0,1,1.164.134.134.134,0,0,1,.038.178.146.146,0,0,1-.044.038Z" transform="translate(-224.656 -104.074)" fill="#263238"/><path d="M260.89,133.734a.108.108,0,0,1-.076,0,.127.127,0,0,1-.114-.14,1.272,1.272,0,0,1,.636-.992.129.129,0,0,1,.121.229.985.985,0,0,0-.477.788A.127.127,0,0,1,260.89,133.734Z" transform="translate(-222.952 -104.482)" fill="#263238"/><path d="M264.873,126.257s-1.609,1.659-3.179,1.577a3.885,3.885,0,0,0,1.138-.788s-3.071,1.329-4.584.636-1.342-1.443-1.342-1.443.172.439,1.64.394c0,0-1.272-.833-.757-2.009a.941.941,0,0,0,.757.5,5.926,5.926,0,0,1,4.54-2.683c3.3-.375,3.967.928,4.114,1.907S264.873,126.257,264.873,126.257Z" transform="translate(-221.568 -100.763)" fill="#263238"/></g><g transform="translate(87.675 160.526)"><rect width="46.617" height="11.864" rx="1.26" transform="translate(3.446 125.025)" fill="#f8951d"/><rect width="1.844" height="10.599" transform="translate(5.532 125.712)" opacity="0.2"/><rect width="1.342" height="10.599" transform="translate(10.224 125.661)" opacity="0.2"/><rect width="0.668" height="10.599" transform="translate(14.751 125.712)" opacity="0.2"/><rect width="0.337" height="10.599" transform="translate(20.282 125.661)" opacity="0.2"/><rect width="1.844" height="10.599" transform="translate(47.978 136.26) rotate(180)" opacity="0.2"/><rect width="1.342" height="10.599" transform="translate(43.286 136.311) rotate(180)" opacity="0.2"/><rect width="0.668" height="10.599" transform="translate(38.753 136.26) rotate(180)" opacity="0.2"/><rect width="0.337" height="10.599" transform="translate(33.221 136.311) rotate(180)" opacity="0.2"/><rect width="0.165" height="10.599" transform="translate(26.837 136.311) rotate(180)" opacity="0.2"/><path d="M160.1,400.689h-44.03a.553.553,0,0,1-.56-.56h0a.56.56,0,0,1,.56-.56H160.1a.56.56,0,0,1,.56.56h0a.553.553,0,0,1-.56.56Z" transform="translate(-111.282 -273.858)" fill="#fff" opacity="0.2"/><rect width="46.617" height="11.864" rx="1.26" transform="translate(4.082 113.193)" fill="#f8951d"/><rect width="1.844" height="10.599" transform="translate(6.167 113.88)" opacity="0.2"/><rect width="1.342" height="10.599" transform="translate(10.86 113.829)" opacity="0.2"/><rect width="0.668" height="10.599" transform="translate(15.387 113.88)" opacity="0.2"/><rect width="0.337" height="10.599" transform="translate(20.924 113.829)" opacity="0.2"/><rect width="1.844" height="10.599" transform="translate(48.614 124.421) rotate(180)" opacity="0.2"/><rect width="1.342" height="10.599" transform="translate(43.915 124.472) rotate(180)" opacity="0.2"/><rect width="0.668" height="10.599" transform="translate(39.388 124.421) rotate(180)" opacity="0.2"/><rect width="0.337" height="10.599" transform="translate(33.857 124.472) rotate(180)" opacity="0.2"/><rect width="0.165" height="10.599" transform="translate(27.473 124.472) rotate(180)" opacity="0.2"/><path d="M161.1,382.079h-44.03a.56.56,0,0,1-.56-.56h0a.553.553,0,0,1,.56-.56H161.1a.553.553,0,0,1,.56.56h0A.56.56,0,0,1,161.1,382.079Z" transform="translate(-111.646 -267.08)" fill="#fff" opacity="0.2"/><rect width="46.617" height="11.864" rx="1.26" transform="translate(1.539 101.361)" fill="#f8951d"/><rect width="1.844" height="10.599" transform="translate(3.618 102.041)" opacity="0.2"/><rect width="1.342" height="10.599" transform="translate(8.316 101.99)" opacity="0.2"/><rect width="0.668" height="10.599" transform="translate(12.843 102.041)" opacity="0.2"/><rect width="0.337" height="10.599" transform="translate(18.375 101.99)" opacity="0.2"/><rect width="1.844" height="10.599" transform="translate(46.064 112.589) rotate(180)" opacity="0.2"/><rect width="1.342" height="10.599" transform="translate(41.378 112.64) rotate(180)" opacity="0.2"/><rect width="0.668" height="10.599" transform="translate(36.845 112.589) rotate(180)" opacity="0.2"/><rect width="0.337" height="10.599" transform="translate(31.314 112.64) rotate(180)" opacity="0.2"/><rect width="0.165" height="10.599" transform="translate(24.93 112.64) rotate(180)" opacity="0.2"/><path d="M157.1,363.459h-44.03a.553.553,0,0,1-.56-.56h0a.56.56,0,0,1,.56-.56H157.1a.566.566,0,0,1,.56.56h0A.56.56,0,0,1,157.1,363.459Z" transform="translate(-110.189 -260.299)" fill="#fff" opacity="0.2"/><path d="M140.783,348.431l-1.278,3.147-.966,2.378-2.429-.865.871-2.136,1.373-3.4Z" transform="translate(-118.784 -254.916)" fill="#e4897b"/><path d="M222.478,319.243l-2.066,1.532-.757-1.679-1.755-3.878,2.066-1.539,1.659,3.675Z" transform="translate(-148.571 -242.578)" fill="#e4897b"/><path d="M138.853,347.56l2.429.871L140,351.578l-2.524-.623Z" transform="translate(-119.283 -254.916)" opacity="0.2"/><path d="M221.626,317.355l-1.971,1.742-1.755-3.878,2.066-1.539Z" transform="translate(-148.571 -242.578)" opacity="0.2"/><path d="M172.109,211.623c.07.2.229.318.356.273s.178-.242.108-.439-.229-.318-.356-.273A.323.323,0,0,0,172.109,211.623Z" transform="translate(-131.881 -205.246)" fill="#263238"/><path d="M172.46,212.39a7.407,7.407,0,0,0,1.526,1.342,1.176,1.176,0,0,1-.871.509Z" transform="translate(-132.023 -205.689)" fill="#de5753"/><path d="M170.33,210.162a.159.159,0,0,1-.089,0,.121.121,0,0,1,0-.165,1.221,1.221,0,0,1,.966-.547.127.127,0,0,1,.121.127.121.121,0,0,1-.127.121h0a.954.954,0,0,0-.763.439A.14.14,0,0,1,170.33,210.162Z" transform="translate(-131.203 -204.618)" fill="#263238"/><path d="M163.739,216.92c.032,1.907-.21,5.379-1.729,6.39,0,0,.172,1.971,3.618,2.581,3.815.68,2.149-1.558,2.149-1.558-1.977-.858-1.653-2.384-1.036-3.764Z" transform="translate(-128.217 -207.338)" fill="#e4897b"/><path d="M161.463,212.054c.992,2.352,1.456,3.815,3.109,4.591a3.391,3.391,0,0,0,4.788-3.541c-.242-2.346-1.831-5.8-4.527-5.926a3.484,3.484,0,0,0-3.37,4.877Z" transform="translate(-127.911 -203.789)" fill="#e4897b"/><path d="M161.591,214.657c1.119.451,4.635-2.066,3.433-4.966a5.814,5.814,0,0,0,.769-3.815c-.432-1.876-1.844-2.441-3.179-1.831-1.183.534-1.055,1.2-1.055,1.2s-5.722,1.5-4.158,3.694C155.385,211.84,160.186,214.1,161.591,214.657Z" transform="translate(-126.361 -202.564)" fill="#263238"/><path d="M168.13,213.348a2.912,2.912,0,0,0,1.24,1.38c.738.4,1.164-.159,1.011-.9s-.68-1.685-1.443-1.78S167.838,212.649,168.13,213.348Z" transform="translate(-130.408 -205.56)" fill="#e4897b"/><path d="M160.4,226.116c-.267-.534-.56-1.144.089-1.31s5.252-.432,6.568,0c-.432.718.235,1.634.235,1.634Z" transform="translate(-127.519 -210.125)" fill="#f8951d"/><path d="M160.4,226.116c-.267-.534-.56-1.144.089-1.31s5.252-.432,6.568,0c-.432.718.235,1.634.235,1.634Z" transform="translate(-127.519 -210.125)" fill="#fafafa" opacity="0.5"/><path d="M138.159,356h-2.81a.222.222,0,0,0-.216.178l-.509,2.289a.369.369,0,0,0,.369.458c1.011,0,2.48-.076,3.751-.076,1.494,0,2.778.083,4.527.083,1.062,0,1.354-1.068.909-1.164-2.016-.445-3.656-.49-5.4-1.564a1.227,1.227,0,0,0-.623-.2Z" transform="translate(-118.239 -257.99)" fill="#263238"/><path d="M157.158,262.746s-.8,5.4-1.774,11.6c-.426,2.658-.884,5.462-1.335,8.056-.5,2.906-.992,5.538-1.4,7.394-1.774,8.075-11.19,30.328-11.19,30.328l-4.61-1s6.587-17.313,8.056-28.611c1.138-8.666,3.37-27.778,3.37-27.778Z" transform="translate(-119.054 -224.026)" fill="#263238"/><path d="M142.367,350l-.858,1.666-5.188-1.125.432-1.539Z" transform="translate(-118.861 -255.441)" fill="#f8951d"/><path d="M142.367,350l-.858,1.666-5.188-1.125.432-1.539Z" transform="translate(-118.861 -255.441)" opacity="0.3"/><path d="M164.707,280.916c-.426,2.658-.884,5.462-1.335,8.056a24.209,24.209,0,0,1-.858-8.2Z" transform="translate(-128.377 -230.592)" opacity="0.2"/><path d="M149.1,232.742c-1.24,1.17-2.543,2.41-3.726,3.65a50.752,50.752,0,0,0-3.4,3.815,17.632,17.632,0,0,0-1.227,2.06c-.394.769-.795,1.551-1.176,2.353l-2.333,4.819-1.831-.636c.394-1.787.9-3.529,1.443-5.277.286-.871.591-1.742.928-2.613a17.3,17.3,0,0,1,1.3-2.7,34.364,34.364,0,0,1,3.472-4.451,46.917,46.917,0,0,1,3.942-3.929Z" transform="translate(-118.529 -212.04)" fill="#dc897c"/><path d="M133.941,265.624l.935-1.659-2.848-.865a2.982,2.982,0,0,0,.051,2.416Z" transform="translate(-117.213 -224.157)" fill="#e4897b"/><path d="M136.051,260.291l-1.825-.591-2.066,2.162,2.848.865Z" transform="translate(-117.346 -222.918)" fill="#e4897b"/><path d="M223.67,321.316l-2.321,1.723a.229.229,0,0,0-.07.273l.954,2.143a.369.369,0,0,0,.572.14c.8-.636,1.164-.954,2.181-1.71.636-.464,2.085-1.488,2.956-2.13s.343-1.59-.07-1.4a7.107,7.107,0,0,1-3.77.839A.636.636,0,0,0,223.67,321.316Z" transform="translate(-149.795 -245)" fill="#263238"/><path d="M151.693,227.378c-2.473-.153-6.123,5.195-6.123,5.195l3.6,4.915a10.6,10.6,0,0,0,3.815-3.815C154.694,230.786,154.217,227.537,151.693,227.378Z" transform="translate(-122.229 -211.146)" fill="#f8951d"/><path d="M151.693,227.378c-2.473-.153-6.123,5.195-6.123,5.195l3.6,4.915a10.6,10.6,0,0,0,3.815-3.815C154.694,230.786,154.217,227.537,151.693,227.378Z" transform="translate(-122.229 -211.146)" fill="#fafafa" opacity="0.6"/><path d="M154.362,235.14c-1.621.871-2.7,3.014-3.383,4.953l.159.223a10.6,10.6,0,0,0,3.815-3.815c.1-.165.2-.343.286-.515Z" transform="translate(-124.2 -213.974)" opacity="0.2"/><path d="M169.235,226.061s1.481,3.726-1.113,22.889H154.357c-.1-2.117,1.233-12.43-.807-22.387a35.535,35.535,0,0,1,4.61-.585c1.761-.083,7.63-1.272,9.181-1.125C169.382,225.031,169.235,226.061,169.235,226.061Z" transform="translate(-125.136 -210.223)" fill="#f8951d"/><path d="M169.56,234.507c-.165,3.389-.579,8.056-1.437,14.433H154.357c-.1-2.117,1.233-12.43-.807-22.387a35.535,35.535,0,0,1,4.61-.585c1.761-.083,7.63-1.272,9.181-1.125,2.041.184,1.907,1.214,1.907,1.214a12.374,12.374,0,0,1,.394,3.471C169.674,230.756,169.668,232.377,169.56,234.507Z" transform="translate(-125.136 -210.219)" fill="#fafafa" opacity="0.6"/><path d="M168.04,261l2.721,6.358s13.18,1.653,16.919,6.186,10.809,22.927,10.809,22.927l-3.522,2.995s-10.109-18.591-12.939-20.835-18.934-2.238-22.533-3.58-4.635-12.958-4.635-12.958Z" transform="translate(-125.613 -223.392)" fill="#263238"/><path d="M216.76,319.085l4.247-3.255.547,1.049-4.069,3.211Z" transform="translate(-148.156 -243.36)" fill="#f8951d"/><path d="M216.76,319.085l4.247-3.255.547,1.049-4.069,3.211Z" transform="translate(-148.156 -243.36)" opacity="0.3"/><path d="M164.186,206.26s-.159-3.777-2.155-3.9a5,5,0,0,0-3.567,1.679,2.073,2.073,0,0,0-1.609-.776c-1.132-.064-3.1,1.863-3.1,1.863s2.461-1.513,3.5-.82c0,0-2.791.776-3.5,2.543a6.358,6.358,0,0,1-1.462,2.4h1.462l-.96,1.634s2.022,1.952,3.548,1.628l-.49.928s2.995,1.094,4.215.757.064-6.415.064-6.415Z" transform="translate(-124.677 -202.032)" fill="#263238"/><path d="M177.321,236.838c-2.5-1.7-2.461-5.608-2.461-5.608l2.543.636C177.435,233.087,177.429,234.708,177.321,236.838Z" transform="translate(-132.897 -212.55)" opacity="0.2"/><path d="M130.236,268.775l-16.982-2.855-4.393,13.072,2.81,5.106,18.54,2.441,3.758-14.242Z" transform="translate(-108.86 -225.184)" fill="#f8951d"/><path d="M108.86,278.992l1.094,1.99.248.439,1.469,2.677,18.54,2.441,3.758-14.242-1.6-1.5-.49-.464-1.64-1.558-16.989-2.855Z" transform="translate(-108.86 -225.184)" opacity="0.4"/><path d="M136.485,272.3l-16.811-2.613-3.9-3.764,16.989,2.855Z" transform="translate(-111.377 -225.184)" fill="#fff" opacity="0.2"/><path d="M117.157,269.684,111.67,284.1l-2.81-5.106,4.393-13.072Z" transform="translate(-108.86 -225.184)" fill="#fff" opacity="0.1"/><path d="M110.58,281.958l.248.439,5.08-13.5L133,271.773l-.49-.464L115.6,268.6Z" transform="translate(-109.486 -226.16)" fill="#263238"/><path d="M133.877,270.73l-.858-.795-4.279-.776.75.865Z" transform="translate(-116.1 -226.364)" fill="#263238"/><path d="M134.292,268.6s.2-4.489.076-4.788-6.142-1.272-6.593-1.367-2.435,4.279-2.435,4.279l.343.528,1.138.153s1.443-3.77,1.59-3.866a44.593,44.593,0,0,1,4.908.8,30.634,30.634,0,0,1-.369,3.529l.388.56Z" transform="translate(-114.862 -223.919)" fill="#263238"/><path d="M110.67,282.155l1.272,1.634.121-.324.96-2.543.114-.305.2-.547s-.362.407-.858.871a5.354,5.354,0,0,1-1.812,1.214Z" transform="translate(-109.519 -230.337)" fill="#f8951d"/><path d="M111.32,282.589l.947,1.189.96-2.543.114-.305A5.373,5.373,0,0,1,111.32,282.589Z" transform="translate(-109.756 -230.65)" fill="#fff" opacity="0.2"/><path d="M113.47,280.942h.54l.318-.852S113.966,280.478,113.47,280.942Z" transform="translate(-110.539 -230.344)" opacity="0.2"/><path d="M109.805,277.954l-.235,2.3a5.264,5.264,0,0,1,3.039-.407l.121-.318.738-1.977.083-.2a7.432,7.432,0,0,0-3.745.6Z" transform="translate(-109.119 -229.333)" fill="#f8951d"/><path d="M113.74,271.193a8.825,8.825,0,0,0,1.729,2.327l.089-.242.229-.636.381-1.049.184-.509.051-.146a9.678,9.678,0,0,1-.788-1.469Z" transform="translate(-110.637 -226.477)" fill="#f8951d"/><path d="M119.86,267.014a4.6,4.6,0,0,1,.534,1.17l.267.045.369.057.591.108.566.1.2.032a3.65,3.65,0,0,0-.928-2.391Z" transform="translate(-112.866 -225.26)" fill="#f8951d"/><path d="M120.42,267.245a5.672,5.672,0,0,1,.445,1.151l.369.057a.394.394,0,0,1-.045-.331.4.4,0,0,1,.509-.254.394.394,0,0,1,.254.5.407.407,0,0,1-.127.191l.566.1a3.707,3.707,0,0,0-.744-2.066Z" transform="translate(-113.07 -225.428)" fill="#fff" opacity="0.2"/><path d="M110.1,278.151l-.146,1.863a7.535,7.535,0,0,1,2.918-.375l.738-1.977a6.911,6.911,0,0,0-3.51.49Zm2.041-.153a.528.528,0,1,1-.551.25.528.528,0,0,1,.551-.25Z" transform="translate(-109.257 -229.441)" fill="#fff" opacity="0.2"/><path d="M114.25,271.521a10.522,10.522,0,0,0,1.494,1.984l.229-.636a.54.54,0,0,1-.305-.687.547.547,0,0,1,.636-.375h0l.184-.509a4.394,4.394,0,0,1-.776-1.208Z" transform="translate(-110.823 -226.702)" fill="#fff" opacity="0.2"/><path d="M203.73,206.924l.979-1.634,2.162,2.047a2.988,2.988,0,0,1-2.124,1.151Z" transform="translate(-143.411 -203.103)" fill="#e4897b"/><path d="M206.783,201.85l1.532,2.155-.884,2.079-2.162-2.047Z" transform="translate(-143.972 -201.85)" fill="#e4897b"/><path d="M177.12,218.815a53.219,53.219,0,0,0,5.214-1.348,20.919,20.919,0,0,0,4.718-2.06,3.642,3.642,0,0,0,.388-.28l.439-.407c.305-.292.636-.636.922-.941.6-.674,1.227-1.367,1.825-2.079,1.227-1.411,2.422-2.88,3.656-4.311l1.609,1.068c-.884,1.723-1.863,3.363-2.9,5-.528.807-1.068,1.621-1.666,2.416-.3.394-.636.795-.954,1.2-.165.2-.375.4-.56.6a8.555,8.555,0,0,1-.718.636,21.127,21.127,0,0,1-5.512,2.836,34.776,34.776,0,0,1-5.786,1.545Z" transform="translate(-133.72 -203.868)" fill="#dc897c"/><path d="M174.515,229.832c2.677,2.321,8.558-1.659,8.558-1.659l-2.346-5.792a34.036,34.036,0,0,0-6.358,1.367C170.649,225.012,172.468,228.064,174.515,229.832Z" transform="translate(-131.935 -209.327)" fill="#f8951d"/><path d="M174.515,229.832c2.677,2.321,8.558-1.659,8.558-1.659l-2.346-5.792a34.036,34.036,0,0,0-6.358,1.367C170.649,225.012,172.468,228.064,174.515,229.832Z" transform="translate(-131.935 -209.327)" fill="#fafafa" opacity="0.6"/></g></g></svg>