<svg xmlns="http://www.w3.org/2000/svg" width="250" height="165.303" viewBox="0 0 250 165.303"><g transform="translate(-56.11 -171.155)"><g transform="translate(56.11 321.862)"><ellipse cx="125" cy="7.298" rx="125" ry="7.298" fill="#f5f5f5"/></g><g transform="translate(62.776 185.928)"><rect width="113.479" height="142.349" transform="translate(113.486 142.355) rotate(180)" fill="#f8951d"/><rect width="113.544" height="141.981" fill="#fff" opacity="0.5"/><rect width="89.993" height="26.22" transform="translate(20.134 4.468)" opacity="0.2"/><rect width="5.112" height="21.978" transform="translate(20.134 8.716)" fill="#fff" opacity="0.5"/><rect width="5.112" height="21.978" transform="translate(44.851 8.716)" fill="#fff" opacity="0.5"/><rect width="5.112" height="21.978" transform="matrix(0.985, -0.17, 0.17, 0.985, 72.991, 9.031)" fill="#fff" opacity="0.5"/><rect width="5.112" height="19.083" transform="translate(26.465 11.611)" fill="#fff" opacity="0.5"/><rect width="5.112" height="19.083" transform="translate(38.218 11.611)" fill="#fff" opacity="0.5"/><rect width="5.112" height="19.083" transform="translate(67.88 11.611)" fill="#fff" opacity="0.5"/><rect width="5.112" height="19.083" transform="translate(51.694 12.059) rotate(-12.53)" fill="#fff" opacity="0.5"/><rect width="2.553" height="23.067" transform="translate(33.447 7.627)" fill="#fff" opacity="0.5"/><rect width="2.553" height="23.067" transform="translate(63.851 7.627)" fill="#fff" opacity="0.5"/><rect width="89.993" height="26.22" transform="translate(110.127 61.066) rotate(180)" opacity="0.2"/><rect width="5.112" height="21.978" transform="translate(110.127 61.066) rotate(180)" fill="#fff" opacity="0.5"/><rect width="5.112" height="21.978" transform="translate(85.403 61.066) rotate(180)" fill="#fff" opacity="0.5"/><rect width="5.112" height="21.978" transform="matrix(-0.985, -0.17, 0.17, -0.985, 53.538, 61.062)" fill="#fff" opacity="0.5"/><rect width="5.112" height="19.083" transform="translate(103.796 61.066) rotate(180)" fill="#fff" opacity="0.5"/><rect width="5.112" height="19.083" transform="translate(92.037 61.066) rotate(180)" fill="#fff" opacity="0.5"/><rect width="5.112" height="19.083" transform="translate(62.381 61.066) rotate(180)" fill="#fff" opacity="0.5"/><rect width="5.112" height="19.083" transform="translate(74.44 61.06) rotate(-167.47)" fill="#fff" opacity="0.5"/><rect width="2.553" height="23.067" transform="translate(96.814 61.066) rotate(180)" fill="#fff" opacity="0.5"/><rect width="2.553" height="23.067" transform="translate(66.41 61.066) rotate(180)" fill="#fff" opacity="0.5"/><rect width="5.112" height="21.978" transform="translate(20.134 39.088)" fill="#fff" opacity="0.5"/><rect width="5.112" height="19.083" transform="translate(26.465 41.983)" fill="#fff" opacity="0.5"/><rect width="5.112" height="19.083" transform="translate(38.218 41.983)" fill="#fff" opacity="0.5"/><rect width="2.553" height="23.067" transform="translate(33.447 37.998)" fill="#fff" opacity="0.5"/><rect width="89.993" height="26.22" transform="translate(20.134 65.217)" opacity="0.2"/><g transform="translate(19.814 68.37)" opacity="0.5"><rect width="5.112" height="21.978" transform="translate(51.973 1.096)" fill="#fff"/><rect width="5.112" height="21.978" transform="matrix(0.985, -0.17, 0.17, 0.985, 80.112, 1.407)" fill="#fff"/><rect width="5.112" height="19.083" transform="translate(33.586 3.991)" fill="#fff"/><rect width="5.112" height="19.083" transform="translate(45.339 3.991)" fill="#fff"/><rect width="5.112" height="19.083" transform="translate(74.995 3.991)" fill="#fff"/><rect width="5.112" height="19.083" transform="translate(58.814 4.433) rotate(-12.53)" fill="#fff"/><rect width="2.553" height="23.067" transform="translate(40.561)" fill="#fff"/><rect width="2.553" height="23.067" transform="translate(70.972)" fill="#fff"/><rect width="5.112" height="21.978" transform="matrix(0.985, -0.17, 0.17, 0.985, 21.3, 1.412)" fill="#fff"/><rect width="5.112" height="19.083" transform="translate(16.179 3.991)" fill="#fff"/><rect width="5.112" height="19.083" transform="translate(0 4.441) rotate(-12.53)" fill="#fff"/><rect width="2.553" height="23.067" transform="translate(12.156)" fill="#fff"/></g><rect width="16.704" height="142.349" transform="translate(16.711 142.355) rotate(180)" opacity="0.2"/><rect width="42.595" height="40.339" transform="translate(66.861 96.092)" opacity="0.1"/><rect width="43.33" height="40.339" transform="translate(20.134 96.092)" opacity="0.1"/><path d="M158.61,370.1a2.05,2.05,0,1,1-2.05-2.05A2.05,2.05,0,0,1,158.61,370.1Z" transform="translate(-97.738 -255.886)" opacity="0.2"/><path d="M177.61,370.1a2.05,2.05,0,1,1-2.05-2.05,2.05,2.05,0,0,1,2.05,2.05Z" transform="translate(-104.489 -255.886)" opacity="0.2"/></g><g transform="translate(170.047 179.726)"><path d="M348.47,215.35h-8.284l2.2,23.718-13.1,1.966v1.65h27.593v-1.65l-5.654-1.966Z" transform="translate(-267.109 -195.429)" fill="#263238"/><path d="M309.14,219.425a2.579,2.579,0,0,0,2.579,2.882h50.19a3.223,3.223,0,0,0,3.14-2.882l2.978-32.106a2.631,2.631,0,0,0-.064-.935,2.579,2.579,0,0,0-2.534-1.934h-50.17a3.223,3.223,0,0,0-3.14,2.882Z" transform="translate(-259.943 -184.45)" fill="#263238"/><path d="M362.8,221.575a1.605,1.605,0,0,0,1.534-1.418l2.979-32.106a1.1,1.1,0,0,0,0-.393.941.941,0,0,0-.967-.728h-50.2a1.6,1.6,0,0,0-1.528,1.418l-2.978,32.106a1.038,1.038,0,0,0,.245.812.967.967,0,0,0,.748.309Z" transform="translate(-260.837 -185.33)" fill="#f8951d"/><path d="M362.8,221.575a1.605,1.605,0,0,0,1.534-1.418l2.979-32.106a1.1,1.1,0,0,0,0-.393.941.941,0,0,0-.967-.728h-50.2a1.6,1.6,0,0,0-1.528,1.418l-2.978,32.106a1.038,1.038,0,0,0,.245.812.967.967,0,0,0,.748.309Z" transform="translate(-260.837 -185.33)" fill="#fff" opacity="0.6"/><path d="M336.854,213.829s-1.019-17.948,3.4-22.049,10.38-2.908,13.539-.716,6.628,7.885,3.481,24.8Z" transform="translate(-269.761 -186.088)" fill="#263238"/><path d="M355.907,235.041a.324.324,0,0,1,0-.084q.574-1.837,1.289-3.965c.355-1.077.735-2.218,1.16-3.423a54.684,54.684,0,0,0-7.736-1.863,59.307,59.307,0,0,0-8.342-.877c-3.617-.032-7.769.374-7.769.374s-.593.142-.961,3.978c-.129,1.38-.258,3.294-.329,5.86Z" transform="translate(-268.505 -198.796)" fill="#f8951d"/><path d="M355.932,235.041a.324.324,0,0,1,0-.084q.574-1.837,1.289-3.965c.355-1.077.735-2.218,1.16-3.423a54.684,54.684,0,0,0-7.736-1.863,59.307,59.307,0,0,0-8.342-.877c-3.617-.032-7.769.374-7.769.374s-.593.142-.961,3.978c-.116,1.238-.226,3.223-.284,5.86Z" transform="translate(-268.53 -198.796)" fill="#f8951d"/><g transform="translate(64.715 26.031)" opacity="0.2"><path d="M355.907,235.041a.324.324,0,0,1,0-.084q.574-1.837,1.289-3.965c.355-1.077.735-2.218,1.16-3.423a54.684,54.684,0,0,0-7.736-1.863,59.307,59.307,0,0,0-8.342-.877c-3.617-.032-7.769.374-7.769.374s-.593.142-.961,3.978c-.129,1.38-.258,3.294-.329,5.86Z" transform="translate(-333.22 -224.827)"/><path d="M355.932,235.041a.324.324,0,0,1,0-.084q.574-1.837,1.289-3.965c.355-1.077.735-2.218,1.16-3.423a54.684,54.684,0,0,0-7.736-1.863,59.307,59.307,0,0,0-8.342-.877c-3.617-.032-7.769.374-7.769.374s-.593.142-.961,3.978c-.116,1.238-.226,3.223-.284,5.86Z" transform="translate(-333.245 -224.827)"/></g><path d="M330.751,235.248h0l-.322-5.325-.277-4.513c-1.109.219-4.055,5.267-6.511,9.838Z" transform="translate(-265.102 -199.003)" fill="#fff"/><path d="M332.684,237.735h0l-.322-5.325a21.721,21.721,0,0,0-3.281,5.332Z" transform="translate(-267.035 -201.49)" opacity="0.2"/><path d="M373.971,236.552c-1.973-5.77-3.191-7.472-3.191-7.472l-2.65,7.472Z" transform="translate(-280.909 -200.307)" fill="#fff"/><path d="M348.85,225.661c4.577-.587,5.957-2.54,5.957-2.54-2.908-2.74-.49-7.491-.49-7.491l-5.512,1.025a16.329,16.329,0,0,1,.213,2.321c.039,3.346-1.47,3.385-1.47,3.385C346.581,224.172,348.85,225.661,348.85,225.661Z" transform="translate(-273.511 -195.528)" fill="#eec1bb"/><path d="M349.63,216.655a16.329,16.329,0,0,1,.213,2.321,6.134,6.134,0,0,0,5.3-3.346Z" transform="translate(-274.336 -195.528)" opacity="0.2"/><path d="M350.323,193.3c-4.79-.258-6.447,2.224-7.092,7.143-.774,6.144.355,10.605,6.447,9.612C357.879,208.715,358.285,193.745,350.323,193.3Z" transform="translate(-271.986 -187.588)" fill="#eec1bb"/><path d="M347.342,204.23a9.977,9.977,0,0,1-1.5,1.934,1.328,1.328,0,0,0,1.231.645Z" transform="translate(-272.989 -191.478)" fill="#d4827d"/><path d="M353.11,198.747a2.488,2.488,0,0,1,2.037.838" transform="translate(-275.572 -189.527)" fill="none" stroke="#263238" stroke-linecap="round" stroke-linejoin="round" stroke-width="0.725"/><path d="M346.664,198.083a2.25,2.25,0,0,0-1.934.284" transform="translate(-272.595 -189.257)" fill="none" stroke="#263238" stroke-linecap="round" stroke-linejoin="round" stroke-width="0.725"/><path d="M348.68,210.736a11.994,11.994,0,0,1,.464,1.7h.309c1.405-.064,2.037-.554,2.308-1.083a1.747,1.747,0,0,0,.181-.838,1.674,1.674,0,0,0-.058-.49,6.447,6.447,0,0,1-2.727.7C348.886,210.736,348.68,210.736,348.68,210.736Z" transform="translate(-273.998 -193.535)" fill="#263238"/><path d="M349.42,210.7l.148.5a4.178,4.178,0,0,0,2.637-.7,1.674,1.674,0,0,0-.058-.49A6.447,6.447,0,0,1,349.42,210.7Z" transform="translate(-274.261 -193.528)" fill="#fff"/><path d="M349.88,213.143c1.405-.064,2.037-.554,2.308-1.083a4.429,4.429,0,0,0-1.541.38A1.715,1.715,0,0,0,349.88,213.143Z" transform="translate(-274.425 -194.26)" fill="#de5753"/><path d="M355.285,200.652s-2.024-4.062-1.521-7.092c0,0-9.284-4.4-10.276,5.216,0,0-.458-8.607,7.788-8.349s7.556,12.307,3.1,15.666C354.376,206.1,356.536,203.185,355.285,200.652Z" transform="translate(-272.152 -186.571)" fill="#263238"/><path d="M360.466,206.789a2.115,2.115,0,0,1,2.366-1.8c1.476.245,2.018,3.333-1.715,3.868C360.582,208.929,360.311,208.394,360.466,206.789Z" transform="translate(-278.171 -191.741)" fill="#eec1bb"/><path d="M351.21,203.652s1.186-1.038,2.089-.187A10.522,10.522,0,0,1,351.21,203.652Z" transform="translate(-274.897 -191.087)" fill="#263238"/><path d="M346.563,203.492s-1.077-1.148-2.063-.393a10.856,10.856,0,0,0,2.063.393Z" transform="translate(-272.513 -190.984)" fill="#263238"/><path d="M356.075,226.841s-5.383,4.365-10.386,4.294-6.769-5.706-6.769-5.706A28.818,28.818,0,0,1,356.075,226.841Z" transform="translate(-270.531 -198.764)" fill="#eec1bb"/><path d="M366.208,235.728c.484-2.579,1.038-5.158,1.676-7.472l-4.777-1.5A34.259,34.259,0,0,0,360,235.728Z" transform="translate(-278.021 -199.483)" fill="#fff"/><path d="M336.029,235.042c.574-4.719.612-10.212.612-10.212l-3.836.374a37.583,37.583,0,0,0-1.7,9.838Z" transform="translate(-267.756 -198.797)" fill="#fff"/><path d="M348.073,191.58a6.447,6.447,0,0,0-5.693,4.8,7.35,7.35,0,0,1,4.668-.961,12.089,12.089,0,0,1,1.025-1.741,5.531,5.531,0,0,0-.561,1.786,16.711,16.711,0,0,1,2.579.5,6.222,6.222,0,0,1,.883-1.289,4.725,4.725,0,0,0-.29,1.483,17.679,17.679,0,0,1,1.889.677,8.446,8.446,0,0,1,1.444-3.314S352.8,191.142,348.073,191.58Z" transform="translate(-271.76 -186.964)" fill="#263238"/><path d="M361.753,208.632a.548.548,0,0,1-.045-.064,1.212,1.212,0,0,1-.135-.767c.071-.561.909-1.934,1.56-1.135a1.077,1.077,0,0,1,.193.722,2.256,2.256,0,0,1-.277,1,.948.948,0,0,1-.683.542A.7.7,0,0,1,361.753,208.632Z" transform="translate(-278.574 -192.256)" fill="#f8951d"/><path d="M361.753,208.632a.548.548,0,0,1-.045-.064,1.212,1.212,0,0,1-.135-.767c.071-.561.909-1.934,1.56-1.135a1.077,1.077,0,0,1,.193.722,2.256,2.256,0,0,1-.277,1,.948.948,0,0,1-.683.542A.7.7,0,0,1,361.753,208.632Z" transform="translate(-278.574 -192.256)" opacity="0.2"/><path d="M361.069,207.921s.574-1.212.961-.986.232,1.289-.142,1.5a1.135,1.135,0,0,0-.5.606s-1.592,1.934-2.011,1.734v-.542A5.157,5.157,0,0,0,361.069,207.921Z" transform="translate(-277.8 -192.429)" fill="#f8951d"/><path d="M346.24,363.713h3.952l7.1-98.793h-5.241Z" transform="translate(-273.132 -213.041)" fill="#263238"/><path d="M346.24,363.8h3.952l6.75-93.887.348-4.751h-5.241l-.284,4.751Z" transform="translate(-273.132 -213.126)" fill="#fff" opacity="0.4"/><path d="M354.81,269.673h5.177l.348-4.513h-5.241Z" transform="translate(-276.177 -213.126)" opacity="0.2"/><path d="M300.925,363.713h3.952l.645-98.793H300.28Z" transform="translate(-256.802 -213.041)" fill="#263238"/><path d="M300.28,265.16l.1,15.943.542,82.7h3.952l.542-82.7.1-15.943Z" transform="translate(-256.802 -213.126)" fill="#fff" opacity="0.5"/><path d="M300.28,265.16l.1,16.117h5.035l.1-16.117Z" transform="translate(-256.802 -213.126)" opacity="0.2"/><path d="M236.24,363.713h3.952l7.1-98.793h-5.241Z" transform="translate(-234.048 -213.041)" fill="#263238"/><path d="M236.24,363.8h3.952l6.75-93.887.348-4.751h-5.241l-.284,4.751Z" transform="translate(-234.048 -213.126)" fill="#fff" opacity="0.5"/><path d="M244.81,269.673h5.177l.348-4.513h-5.241Z" transform="translate(-237.093 -213.126)" opacity="0.2"/><path d="M412.412,363.713h3.952l-5.8-98.793H405.32Z" transform="translate(-294.123 -213.041)" fill="#263238"/><path d="M405.32,265.16l.348,4.751,6.75,93.887h3.946l-5.519-93.887-.284-4.751Z" transform="translate(-294.123 -213.126)" fill="#fff" opacity="0.5"/><path d="M410.561,265.16H405.32l.348,4.513h5.177Z" transform="translate(-294.123 -213.126)" opacity="0.2"/><path d="M1.412,0H115.349a1.393,1.393,0,0,1,1.393,1.393V4.945H0V1.393A1.393,1.393,0,0,1,1.412,0Z" transform="translate(120.584 54.348) rotate(180)" fill="#f8951d"/><path d="M1.412,0H115.349a1.393,1.393,0,0,1,1.393,1.393V4.945H0V1.393A1.393,1.393,0,0,1,1.412,0Z" transform="translate(120.584 54.348) rotate(180)" fill="#fff" opacity="0.6"/><rect width="116.741" height="2.476" transform="translate(120.584 51.872) rotate(180)" opacity="0.2"/><path d="M234.233,260.542H355.88a1.393,1.393,0,0,0,1.393-1.393h0a1.4,1.4,0,0,0-1.393-1.4H234.233a1.4,1.4,0,0,0-1.393,1.4h0a1.393,1.393,0,0,0,1.393,1.393Z" transform="translate(-232.84 -210.494)" fill="#f8951d"/><path d="M234.233,260.542H355.88a1.393,1.393,0,0,0,1.393-1.393h0a1.4,1.4,0,0,0-1.393-1.4H234.233a1.4,1.4,0,0,0-1.393,1.4h0a1.393,1.393,0,0,0,1.393,1.393Z" transform="translate(-232.84 -210.494)" fill="#fff" opacity="0.6"/><path d="M324.665,256.428l-.638-2.4H297.884l-12.036,1.2-.458,1.2Z" transform="translate(-251.511 -209.172)" fill="#263238"/><path d="M304.77,254.03v2.4h26.781l-.638-2.4Z" transform="translate(-258.397 -209.172)" opacity="0.4"/><path d="M405.547,250.388a7.969,7.969,0,0,1-.645,3.507H377.18v-.645h.561v-5.706h-.561V246.9H404.9a8.188,8.188,0,0,1,.645,3.488Z" transform="translate(-284.125 -206.639)" fill="#263238"/><path d="M405.547,250.388a7.969,7.969,0,0,1-.645,3.507H377.18v-.645h.561v-5.706h-.561V246.9H404.9a8.188,8.188,0,0,1,.645,3.488Z" transform="translate(-284.125 -206.639)" fill="#fff" opacity="0.2"/><path d="M390.719,250.388a7.969,7.969,0,0,1-.645,3.507H377.18v-.645h.561v-5.706h-.561V246.9h12.894a8.188,8.188,0,0,1,.645,3.488Z" transform="translate(-284.125 -206.639)" opacity="0.2"/><path d="M389.665,250.736a6.486,6.486,0,0,1-.522,2.85H378.06V247.88h11.082a6.673,6.673,0,0,1,.522,2.856Z" transform="translate(-284.437 -206.987)" fill="#fff" opacity="0.8"/><path d="M410.982,250.374a7.969,7.969,0,0,1-.645,3.507H405.18a7.969,7.969,0,0,0,.645-3.507,8.188,8.188,0,0,0-.645-3.514h5.158a8.188,8.188,0,0,1,.645,3.514Z" transform="translate(-294.073 -206.624)" fill="#fff" opacity="0.6"/><path d="M409.367,239.494a7.969,7.969,0,0,1-.645,3.507H381v-.645h.561v-5.712H381V236h27.722A8.188,8.188,0,0,1,409.367,239.494Z" transform="translate(-285.482 -202.766)" fill="#f8951d"/><path d="M394.539,239.494a7.968,7.968,0,0,1-.645,3.507H381v-.645h.561v-5.712H381V236h12.894A8.188,8.188,0,0,1,394.539,239.494Z" transform="translate(-285.482 -202.766)" opacity="0.2"/><path d="M393.495,239.85a6.486,6.486,0,0,1-.522,2.85H381.89V237h11.082a6.672,6.672,0,0,1,.522,2.85Z" transform="translate(-285.798 -203.121)" fill="#fff" opacity="0.8"/><path d="M414.8,239.484a7.969,7.969,0,0,1-.645,3.507H409a7.968,7.968,0,0,0,.645-3.507A8.188,8.188,0,0,0,409,235.97h5.158A8.188,8.188,0,0,1,414.8,239.484Z" transform="translate(-295.43 -202.755)" opacity="0.2"/></g><g transform="translate(160.854 171.155)"><path d="M344.306,240.5l-7.956,7.362,1.1.9,7.7-7.343a.645.645,0,0,0,0-.89h0a.645.645,0,0,0-.845-.026Z" transform="translate(-260.424 -195.742)" fill="#f8951d"/><path d="M331.32,248.44l4.674-2.128s3.913-.729,5.525-.367,5.19,5.216,5.106,5.8-6.2,2.044-6.331,2.044-2.779-1.5-2.779-1.5l-4.326,1.5Z" transform="translate(-258.637 -197.693)" fill="#e4897b"/><path d="M268.53,400.823l5.132-.7.716-12.211-5.132.709Z" transform="translate(-236.327 -248.169)" fill="#ebb376"/><path d="M269.42,388.623l5.132-.7-.413,6.982-5.119.445Z" transform="translate(-236.502 -248.173)" opacity="0.2"/><path d="M251.391,291.347,250.1,283.5l-28.792-1.721s-3.062,16.33-.709,20.682c4.2,7.769,26.832,3.868,33.453,4.616-3.958,16.188-3.572,47.824-3.572,47.824l9.458.722s7.279-34.091,8.749-50.286C269.713,294.4,260.661,294.68,251.391,291.347Z" transform="translate(-218.982 -210.461)" fill="#f8951d"/><path d="M265.688,393.3l11.366.748.974-4.867-12.488-.58Z" transform="translate(-235.265 -248.414)" fill="#f8951d"/><path d="M265.688,393.3l11.366.748.974-4.867-12.488-.58Z" transform="translate(-235.265 -248.414)" fill="#fff" opacity="0.2"/><path d="M273.358,405.69l-5.8-.361a.361.361,0,0,0-.4.322h0l-.567,4.577a.922.922,0,0,0,.845.973c2.031.09,3,.032,5.557.174a47.99,47.99,0,0,0,6.814.219c2.166-.213,1.9-2.34.967-2.443a14.254,14.254,0,0,1-6.537-3.114A1.438,1.438,0,0,0,273.358,405.69Z" transform="translate(-235.637 -254.357)" fill="#263238"/><path d="M286.9,401.375l5.17.38,3.243-11.791-5.164-.374Z" transform="translate(-242.854 -248.766)" fill="#ebb376"/><path d="M295.985,407.689v.039h.045a6.447,6.447,0,0,0,1.289.542,1.425,1.425,0,0,0,1.006,0,.645.645,0,0,0,.322-.612.471.471,0,0,0-.174-.406,2.089,2.089,0,0,0-1.451-.039,1.934,1.934,0,0,0,.767-1.051.451.451,0,0,0-.316-.464.58.58,0,0,0-.516,0c-.645.342-.877,1.792-.9,1.87h0a.385.385,0,0,1-.084,0A.09.09,0,0,0,295.985,407.689Zm.38-.29-.116.039c.122-.477.387-1.257.761-1.457a.348.348,0,0,1,.277-.039h.058c.161.064.181.161.168.232-.013.342-.612.948-1.122,1.225Zm0,.271c.683-.213,1.631-.393,1.934-.18a.206.206,0,0,1,.084.2.425.425,0,0,1-.193.393c-.271.161-.915.006-1.779-.413Z" transform="translate(-246.073 -254.467)" fill="#f8951d"/><path d="M290.949,389.59l5.158.38-1.85,6.737-5.106-.625Z" transform="translate(-243.654 -248.766)" opacity="0.2"/><path d="M278.1,361.958l-9.1-2.676s5.435-30.675,10.96-41.312c-.413-.135-.961-.309-1.638-.509-1.219-.367-2.837-.825-4.739-1.354-13.229-3.668-40.042-10.547-40.042-10.547l12.249-11.43s48.791,7.44,49.8,20.3C296.063,320.608,278.1,361.958,278.1,361.958Z" transform="translate(-223.895 -214.849)" fill="#f8951d"/><path d="M286.72,392.959l10.96,3.095,1.966-4.558-12.094-3.165Z" transform="translate(-242.79 -248.318)" fill="#f8951d"/><path d="M286.72,392.959l10.96,3.095,1.966-4.558-12.094-3.165Z" transform="translate(-242.79 -248.318)" fill="#fff" opacity="0.2"/><path d="M291.531,406.777l-5.615-1.567a.374.374,0,0,0-.464.239h0l-1.47,4.365a.909.909,0,0,0,.645,1.122c1.934.516,2.927.645,5.4,1.328a48.455,48.455,0,0,0,6.621,1.638c2.16.245,2.347-1.9,1.451-2.192a14.19,14.19,0,0,1-5.738-4.41,1.476,1.476,0,0,0-.825-.522Z" transform="translate(-241.806 -254.31)" fill="#263238"/><path d="M277.265,405.688h.1a1.334,1.334,0,0,1,.135.052h.045A6.39,6.39,0,0,0,278.9,406a1.36,1.36,0,0,0,.986-.193.645.645,0,0,0,.187-.645.471.471,0,0,0-.258-.361,2.153,2.153,0,0,0-1.444.322,1.812,1.812,0,0,0,.509-1.18.484.484,0,0,0-.438-.393.754.754,0,0,0-.574.135c-.542.464-.645,1.934-.645,2.018h0Zm.554-.3-.11.058a2.643,2.643,0,0,1,.438-1.586.361.361,0,0,1,.264-.1h.058a.2.2,0,0,1,.219.187A2.489,2.489,0,0,1,277.82,405.391Zm.071.251c.645-.342,1.515-.722,1.844-.567a.206.206,0,0,1,.122.174.445.445,0,0,1-.11.426c-.258.226-.941.206-1.857-.032Z" transform="translate(-239.415 -253.724)" fill="#f8951d"/><path d="M292.89,192.914c-.122.271-.258.542-.4.793a8.381,8.381,0,0,1-3.6,3.417,8.486,8.486,0,0,1-1.186.484,7.543,7.543,0,0,1-8.671-2.92c-2.469-3.507-1.8-6.956-1.141-12.894a8.162,8.162,0,0,1,12.462-6.15C295.74,178.976,295.056,187.847,292.89,192.914Z" transform="translate(-239.438 -172.307)" fill="#e4897b"/><path d="M291.065,208.474a8.486,8.486,0,0,1-1.186.484,7.614,7.614,0,0,1-6.479-.806,8.878,8.878,0,0,1,1.386-1.812,11.753,11.753,0,0,1,6.279,2.134Z" transform="translate(-241.611 -183.657)" opacity="0.2"/><path d="M271.19,205c1.019,3.829,7.588,6.9,7.588,6.9s4.429,1.405,4.4-.284c-1.979-1.8-2.385-3.526-1.973-5.158a7.807,7.807,0,0,1,1.412-2.682,15.972,15.972,0,0,1,1.1-1.289l-3.868-10.347C278.449,196.44,275.31,203.919,271.19,205Z" transform="translate(-237.273 -178.611)" fill="#e4897b"/><path d="M290.089,178.791s1.663,5.6-4.081,9.625c0,0-2.411,5.158-3.759,5.8s-4.39.258-5.415,0-6.331-4.655-4.8-15,10.212-7.092,10.212-7.092,2.966-2.579,8.478.645C295.33,175.446,294.428,180.435,290.089,178.791Z" transform="translate(-237.476 -171.155)" fill="#263238"/><path d="M292.642,191.8a3.868,3.868,0,0,0,1.515,2.933c1.109.709,2.179-.838,2.3-2.63.1-1.592-.335-3.933-1.663-3.868S292.493,190.154,292.642,191.8Z" transform="translate(-244.889 -177.225)" fill="#e4897b"/><path d="M271.9,219.14s-8.149-9.129-19.038-8.188-21.765,9.355-27.225,22.571-7.059,33.2-7.059,33.2,17.62,5.048,35.536.445A190.656,190.656,0,0,1,271.9,219.14Z" transform="translate(-218.58 -185.271)" fill="#263238"/><path d="M296.707,223.69c2.753,2.856,10.612,15.95,12.849,16.44s5.493-1.521,8.039-.754,5.158,3.088,4.577,4.577-6.576,5.454-14.009,5.667c-6.363.187-19.773-15.66-19.773-15.66C288.39,227.835,296.707,223.69,296.707,223.69Z" transform="translate(-243.384 -189.821)" fill="#263238"/><path d="M300.3,203.259v-.645a1.141,1.141,0,0,0,1.1-1.212c0-.961-2.385-3.037-3.868-4.12l.374-.522c.425.3,4.171,3.043,4.165,4.642a1.779,1.779,0,0,1-1.773,1.857Z" transform="translate(-246.631 -180.253)" fill="#263238"/><path d="M297.41,190.759c0,2.669-1.56,4.835-3.475,4.835s-3.475-2.166-3.475-4.835,1.554-4.829,3.475-4.829S297.41,188.09,297.41,190.759Z" transform="translate(-244.119 -176.405)" fill="#f8951d"/><path d="M297.41,190.759c0,2.669-1.56,4.835-3.475,4.835s-3.475-2.166-3.475-4.835,1.554-4.829,3.475-4.829S297.41,188.09,297.41,190.759Z" transform="translate(-244.119 -176.405)" opacity="0.2"/><ellipse cx="2.289" cy="3.185" rx="2.289" ry="3.185" transform="translate(48.745 11.169)" fill="#f8951d"/><path d="M293.745,183.33s.181-13.938-10.315-11.534c0,0,7.846.948,8.381,11.914Z" transform="translate(-241.622 -171.284)" fill="#f8951d"/><rect width="1.199" height="0.954" rx="0.477" transform="translate(52.977 22.318) rotate(-9.81)" fill="#263238"/></g><g transform="translate(138.509 210.697)"><path d="M209.623,317.18h43.143a3.223,3.223,0,0,1,3.223,3.223v4.313H206.4V320.4A3.223,3.223,0,0,1,209.623,317.18Z" transform="translate(-191.907 -262.581)" fill="#f8951d"/><path d="M209.623,317.18h43.143a3.223,3.223,0,0,1,3.223,3.223v4.313H206.4V320.4A3.223,3.223,0,0,1,209.623,317.18Z" transform="translate(-191.907 -262.581)" opacity="0.3"/><rect width="36.528" height="25.736" rx="12.868" transform="translate(36.528 25.736) rotate(180)" fill="#f8951d"/><g transform="translate(0)" opacity="0.3"><rect width="36.528" height="25.736" rx="12.868" transform="translate(36.528 25.736) rotate(180)"/></g><path d="M207.532,380.028l18.58-1.824V352.1h7.362v26.1l18.645,1.831a3.617,3.617,0,0,1,3.269,3.6v2.792H204.27v-2.792A3.617,3.617,0,0,1,207.532,380.028Z" transform="translate(-191.15 -274.988)" fill="#263238"/><path d="M207.532,380.028l18.58-1.824V352.1h7.362v26.1l18.645,1.831a3.617,3.617,0,0,1,3.269,3.6v2.792H204.27v-2.792A3.617,3.617,0,0,1,207.532,380.028Z" transform="translate(-191.15 -274.988)" fill="#fff" opacity="0.2"/><circle cx="4.816" cy="4.816" r="4.816" transform="translate(56.76 110.901) rotate(-9.22)" fill="#263238"/><circle cx="4.816" cy="4.816" r="4.816" transform="translate(8.28 114.893) rotate(-45)" fill="#263238"/><path d="M2.663,0H7.233A2.663,2.663,0,0,1,9.9,2.663V23.254H0V2.669A2.663,2.663,0,0,1,2.663,0Z" transform="translate(43.588 82.721) rotate(180)" fill="#263238"/><path d="M2.663,0H7.233A2.663,2.663,0,0,1,9.9,2.663V23.254H0V2.669A2.663,2.663,0,0,1,2.663,0Z" transform="translate(43.588 82.721) rotate(180)" fill="#fff" opacity="0.3"/><path d="M211.4,261.44s-1.405,34.814,8.284,40.8H208.622s-8.574-11.856-6.15-40.8Z" transform="translate(-190.358 -242.776)" fill="#263238"/><path d="M211.4,261.44s-1.405,34.814,8.284,40.8H208.622s-8.574-11.856-6.15-40.8Z" transform="translate(-190.358 -242.776)" fill="#fff" opacity="0.3"/><rect width="53.722" height="3.765" rx="1.883" transform="translate(12.43 58.371)" fill="#263238"/><rect width="53.722" height="3.765" rx="1.883" transform="translate(12.43 58.371)" fill="#fff" opacity="0.6"/><rect width="20.637" height="14.538" rx="7.269" transform="translate(5.86 7.82)" fill="#263238"/><rect width="20.637" height="14.538" rx="7.269" transform="translate(5.86 7.82)" fill="#fff" opacity="0.2"/></g></g></svg>