<svg xmlns="http://www.w3.org/2000/svg" width="250" height="201.78" viewBox="0 0 250 201.78">
  <g id="Minimal_Requirements" data-name="Minimal Requirements" transform="translate(-19.85 -78.528)">
    <g id="freepik--Floor--inject-53" transform="translate(19.85 277.329)">
      <path id="Path_37659" data-name="Path 37659" d="M269.85,444.7c0,.076-55.942.141-124.995.141S19.85,444.8,19.85,444.7s55.942-.141,125.005-.141S269.85,444.625,269.85,444.7Z" transform="translate(-19.85 -444.56)" fill="#263238"/>
    </g>
    <g id="freepik--Screens--inject-53" transform="translate(32.966 114.489)">
      <rect id="Rectangle_5598" data-name="Rectangle 5598" width="78.905" height="52.835" transform="translate(144.422 0.212)" fill="#fff"/>
      <path id="Path_37660" data-name="Path 37660" d="M388.737,197.781v-3.748c0-2.444,0-6.034-.033-10.624,0-9.184-.033-22.377-.06-38.459l.114.109-78.9.033h0l.141-.141v52.83l-.13-.13,56.849.065,16.239.033h.054l-16.212.033-56.93.065h-.13V144.74h.147l78.9.033h.114v.114c0,16.114-.043,29.329-.06,38.524,0,4.584,0,8.147-.027,10.6v2.77A5.47,5.47,0,0,1,388.737,197.781Z" transform="translate(-165.41 -144.74)" fill="#f8951d"/>
      <path id="Path_37661" data-name="Path 37661" d="M309.91,153.691c0-.081,17.652-.141,39.42-.141s39.42.06,39.42.141-17.646.141-39.42.141S309.91,153.794,309.91,153.691Z" transform="translate(-165.488 -148.765)" fill="#f8951d"/>
      <g id="Group_8830" data-name="Group 8830" transform="translate(146.263 1.912)" opacity="0.3">
        <path id="Path_37662" data-name="Path 37662" d="M314.571,148.9a.63.63,0,1,1-.183-.449A.635.635,0,0,1,314.571,148.9Z" transform="translate(-313.3 -148.26)" fill="#f8951d"/>
      </g>
      <g id="Group_8831" data-name="Group 8831" transform="translate(148.43 1.912)" opacity="0.3">
        <path id="Path_37663" data-name="Path 37663" d="M318.561,148.9a.63.63,0,1,1-.183-.449.635.635,0,0,1,.183.449Z" transform="translate(-317.29 -148.26)" fill="#f8951d"/>
      </g>
      <g id="Group_8832" data-name="Group 8832" transform="translate(150.565 1.912)" opacity="0.3">
        <path id="Path_37664" data-name="Path 37664" d="M322.491,148.9a.63.63,0,1,1-.183-.449A.635.635,0,0,1,322.491,148.9Z" transform="translate(-321.22 -148.26)" fill="#f8951d"/>
      </g>
      <rect id="Rectangle_5599" data-name="Rectangle 5599" width="21.046" height="21.046" transform="translate(151.206 10.433)" fill="#f8951d"/>
      <path id="Path_37665" data-name="Path 37665" d="M404.422,174.781c0,.081-8.212.141-18.336.141s-18.336-.06-18.336-.141,8.212-.141,18.336-.141S404.422,174.705,404.422,174.781Z" transform="translate(-191.914 -158.401)" fill="#f8951d"/>
      <path id="Path_37666" data-name="Path 37666" d="M404.422,181.991c0,.076-8.212.141-18.336.141s-18.336-.065-18.336-.141,8.212-.141,18.336-.141S404.422,181.931,404.422,181.991Z" transform="translate(-191.914 -161.695)" fill="#f8951d"/>
      <path id="Path_37667" data-name="Path 37667" d="M404.422,189.191c0,.076-8.212.141-18.336.141s-18.336-.065-18.336-.141,8.212-.141,18.336-.141S404.422,189.11,404.422,189.191Z" transform="translate(-191.914 -164.984)" fill="#f8951d"/>
      <path id="Path_37668" data-name="Path 37668" d="M389.426,196.391a4.66,4.66,0,0,1-.853.054l-2.325.043c-1.961.027-4.671.043-7.658.043s-5.7,0-7.663-.043l-2.325-.043a4.66,4.66,0,0,1-.853-.054,4.66,4.66,0,0,1,.853-.054l2.325-.043c1.961-.027,4.671-.043,7.663-.043s5.7,0,7.658.043l2.325.043A4.66,4.66,0,0,1,389.426,196.391Z" transform="translate(-191.914 -168.274)" fill="#f8951d"/>
      <g id="Group_8833" data-name="Group 8833" transform="translate(152.52 38.578)" opacity="0.3">
        <rect id="Rectangle_5600" data-name="Rectangle 5600" width="9.89" height="9.89" fill="#f8951d"/>
      </g>
      <rect id="Rectangle_5601" data-name="Rectangle 5601" width="9.89" height="9.89" transform="translate(170.459 38.578)" fill="#f8951d"/>
      <rect id="Rectangle_5602" data-name="Rectangle 5602" width="9.89" height="9.89" transform="translate(188.399 38.578)" fill="#f8951d"/>
      <rect id="Rectangle_5603" data-name="Rectangle 5603" width="9.89" height="9.89" transform="translate(206.338 38.578)" fill="#f8951d"/>
      <g id="Group_8834" data-name="Group 8834" transform="translate(151.206 10.433)" opacity="0.3">
        <rect id="Rectangle_5604" data-name="Rectangle 5604" width="21.046" height="21.046" fill="#fff"/>
      </g>
      <g id="Group_8835" data-name="Group 8835" transform="translate(170.459 38.578)" opacity="0.3">
        <rect id="Rectangle_5605" data-name="Rectangle 5605" width="9.89" height="9.89" fill="#fff"/>
      </g>
      <g id="Group_8836" data-name="Group 8836" transform="translate(188.399 38.578)" opacity="0.3">
        <rect id="Rectangle_5606" data-name="Rectangle 5606" width="9.89" height="9.89" fill="#fff"/>
      </g>
      <g id="Group_8837" data-name="Group 8837" transform="translate(206.338 38.578)" opacity="0.3">
        <rect id="Rectangle_5607" data-name="Rectangle 5607" width="9.89" height="9.89" fill="#fff"/>
      </g>
      <rect id="Rectangle_5608" data-name="Rectangle 5608" width="70.291" height="28.552" transform="translate(0.114 19.243)" fill="#fff"/>
      <path id="Path_37669" data-name="Path 37669" d="M114.405,208.644V200.97c0-4.926,0-12.057-.043-20.878l.076.076-70.286.033h0l.114-.109v28.552l-.109-.109,50.4.049,14.621.033h.049l-14.594.027-50.473.049H44V180h.114l70.286.038h.081v.076c0,8.842-.033,15.984-.043,20.927v7.131A2.323,2.323,0,0,1,114.405,208.644Z" transform="translate(-44 -160.849)" fill="#f8951d"/>
      <path id="Path_37670" data-name="Path 37670" d="M44.34,187.164c0-.06,15.713-.114,35.086-.114s35.1.054,35.1.114-15.713.109-35.1.109S44.34,187.224,44.34,187.164Z" transform="translate(-44.155 -164.07)" fill="#f8951d"/>
      <g id="Group_8838" data-name="Group 8838" transform="translate(2.107 20.861)" opacity="0.3">
        <path id="Path_37671" data-name="Path 37671" d="M48.9,183.661a.511.511,0,1,1-.511-.511A.511.511,0,0,1,48.9,183.661Z" transform="translate(-47.88 -183.15)" fill="#f8951d"/>
      </g>
      <g id="Group_8839" data-name="Group 8839" transform="translate(3.867 20.861)" opacity="0.3">
        <path id="Path_37672" data-name="Path 37672" d="M52.141,183.661a.511.511,0,1,1-.511-.511A.511.511,0,0,1,52.141,183.661Z" transform="translate(-51.12 -183.15)" fill="#f8951d"/>
      </g>
      <g id="Group_8840" data-name="Group 8840" transform="translate(5.578 20.861)" opacity="0.3">
        <path id="Path_37673" data-name="Path 37673" d="M55.291,183.661a.511.511,0,1,1-.511-.511A.511.511,0,0,1,55.291,183.661Z" transform="translate(-54.27 -183.15)" fill="#f8951d"/>
      </g>
      <rect id="Rectangle_5609" data-name="Rectangle 5609" width="16.978" height="16.978" transform="translate(6.088 27.732)" fill="#f8951d"/>
      <path id="Path_37674" data-name="Path 37674" d="M131.849,204.089c0,.06-8.739.114-19.514.114s-19.514-.054-19.514-.114,8.739-.109,19.514-.109S131.849,204.029,131.849,204.089Z" transform="translate(-66.305 -171.805)" fill="#f8951d"/>
      <path id="Path_37675" data-name="Path 37675" d="M131.849,210.454c0,.06-8.739.109-19.514.109s-19.514-.049-19.514-.109,8.739-.114,19.514-.114S131.849,210.394,131.849,210.454Z" transform="translate(-66.305 -174.711)" fill="#f8951d"/>
      <path id="Path_37676" data-name="Path 37676" d="M117.927,216.861a1.875,1.875,0,0,1-.255,0h-.733l-2.688.033-8.886.033-8.88-.033-2.716-.033h-.733a2.013,2.013,0,0,1-.255,0,.885.885,0,0,1,.255,0h.733l2.716-.038,8.88-.033,8.886.033,2.688.038h.733A.852.852,0,0,1,117.927,216.861Z" transform="translate(-66.286 -177.658)" fill="#f8951d"/>
      <g id="Group_8841" data-name="Group 8841" transform="translate(6.088 27.732)" opacity="0.3">
        <rect id="Rectangle_5610" data-name="Rectangle 5610" width="16.978" height="16.978" fill="#f5f5f5"/>
      </g>
    </g>
    <g id="freepik--Rocket--inject-53" transform="translate(114.326 78.528)">
      <path id="Path_37677" data-name="Path 37677" d="M249.293,113.771c-1.179-.788-2.8-.31-3.976.478a19.03,19.03,0,0,1-3.5,2.373c-2.477.961-5.73-.179-7.653,1.629-1.222,1.162-1.347,3.074-2.281,4.481-1.575,2.368-5.355,3.259-5.676,6.083a3.673,3.673,0,0,0,2.716,3.688,5.806,5.806,0,0,0,4.725-.945c1.629-1.086,2.884-2.716,4.72-3.335s4.2-.1,5.681-1.412,1.26-3.726,2.325-5.4a10.863,10.863,0,0,1,2.254-2.205,4.395,4.395,0,0,0,1.695-2.591c.136-1.048-.293-2.835-1.016-2.873" transform="translate(-208.596 -94.445)" fill="#f5f5f5"/>
      <path id="Path_37678" data-name="Path 37678" d="M212.364,326.556c.071-.038.288.179.494.489s.32.6.255.646-.282-.174-.494-.489S212.3,326.6,212.364,326.556Z" transform="translate(-202.272 -191.844)" fill="#263238"/>
      <path id="Path_37679" data-name="Path 37679" d="M208.1,317.54a3.482,3.482,0,0,1,.646,1.206,3.444,3.444,0,0,1,.386,1.309A6.659,6.659,0,0,1,208.1,317.54Z" transform="translate(-200.332 -187.727)" fill="#263238"/>
      <path id="Path_37680" data-name="Path 37680" d="M205.759,307.82a6.61,6.61,0,0,1,.494,2.672,3.357,3.357,0,0,1-.386-1.309A3.433,3.433,0,0,1,205.759,307.82Z" transform="translate(-199.251 -183.286)" fill="#263238"/>
      <path id="Path_37681" data-name="Path 37681" d="M205.273,297.83a6.729,6.729,0,0,1-.038,2.716,3.226,3.226,0,0,1-.125-1.358,3.259,3.259,0,0,1,.163-1.358Z" transform="translate(-198.956 -178.722)" fill="#263238"/>
      <path id="Path_37682" data-name="Path 37682" d="M206.507,288a3.389,3.389,0,0,1-.147,1.358,3.481,3.481,0,0,1-.424,1.3,3.4,3.4,0,0,1,.147-1.358A3.519,3.519,0,0,1,206.507,288Z" transform="translate(-199.337 -174.231)" fill="#263238"/>
      <path id="Path_37683" data-name="Path 37683" d="M209.726,278.648a6.392,6.392,0,0,1-1.086,2.477,3.427,3.427,0,0,1,.429-1.3C209.379,279.137,209.656,278.61,209.726,278.648Z" transform="translate(-200.579 -169.957)" fill="#263238"/>
      <path id="Path_37684" data-name="Path 37684" d="M214.784,270.307a3.443,3.443,0,0,1-.7,1.179,3.915,3.915,0,0,1-.918,1.01c-.076-.049.239-.576.69-1.179S214.7,270.258,214.784,270.307Z" transform="translate(-202.644 -166.145)" fill="#263238"/>
      <path id="Path_37685" data-name="Path 37685" d="M221.289,262.905c.06.054-.315.543-.831,1.086s-.983.934-1.043.885.315-.543.836-1.086S221.234,262.845,221.289,262.905Z" transform="translate(-205.499 -162.763)" fill="#263238"/>
      <path id="Path_37686" data-name="Path 37686" d="M228.3,255.786c.06.054-.326.543-.853,1.086s-1,.923-1.054.869.326-.543.853-1.086S228.248,255.731,228.3,255.786Z" transform="translate(-208.689 -159.51)" fill="#263238"/>
      <path id="Path_37687" data-name="Path 37687" d="M235.037,248.248a3.411,3.411,0,0,1-.755,1.141c-.478.587-.912,1.016-.972.961a3.628,3.628,0,0,1,.755-1.141C234.537,248.655,234.972,248.2,235.037,248.248Z" transform="translate(-211.85 -156.067)" fill="#263238"/>
      <path id="Path_37688" data-name="Path 37688" d="M240.544,239.67a2.955,2.955,0,0,1-.456,1.293,3.009,3.009,0,0,1-.788,1.124,3.878,3.878,0,0,1,.543-1.255,4.03,4.03,0,0,1,.7-1.162Z" transform="translate(-214.587 -152.15)" fill="#263238"/>
      <path id="Path_37689" data-name="Path 37689" d="M243.619,230a2.765,2.765,0,0,1-.027,1.369,2.868,2.868,0,0,1-.418,1.309,4.134,4.134,0,0,1,.141-1.352,4.236,4.236,0,0,1,.3-1.325Z" transform="translate(-216.353 -147.732)" fill="#263238"/>
      <path id="Path_37690" data-name="Path 37690" d="M243.268,220.07a2.786,2.786,0,0,1,.4,1.309,2.862,2.862,0,0,1,0,1.374,4.117,4.117,0,0,1-.293-1.331,4.2,4.2,0,0,1-.109-1.352Z" transform="translate(-216.393 -143.195)" fill="#263238"/>
      <path id="Path_37691" data-name="Path 37691" d="M239.35,210.918c.065-.043.462.429.82,1.086a2.851,2.851,0,0,1,.467,1.293,4.285,4.285,0,0,1-.717-1.157A4.43,4.43,0,0,1,239.35,210.918Z" transform="translate(-214.61 -139.012)" fill="#263238"/>
      <path id="Path_37692" data-name="Path 37692" d="M232.377,203.82a2.873,2.873,0,0,1,1.173.711c.581.489.961.978.907,1.032s-.543-.337-1.086-.815S232.328,203.885,232.377,203.82Z" transform="translate(-211.423 -135.771)" fill="#263238"/>
      <path id="Path_37693" data-name="Path 37693" d="M223.29,199.756a2.83,2.83,0,0,1,1.347.25,2.792,2.792,0,0,1,1.222.63,4.345,4.345,0,0,1-1.314-.364A4.014,4.014,0,0,1,223.29,199.756Z" transform="translate(-207.272 -133.911)" fill="#263238"/>
      <path id="Path_37694" data-name="Path 37694" d="M213.35,199.047a2.716,2.716,0,0,1,1.342-.282,2.786,2.786,0,0,1,1.369.141,4.535,4.535,0,0,1-1.352.141A4.344,4.344,0,0,1,213.35,199.047Z" transform="translate(-202.731 -133.448)" fill="#263238"/>
      <path id="Path_37695" data-name="Path 37695" d="M204.127,201.922c-.049-.065.418-.473,1.086-.831a2.607,2.607,0,0,1,1.3-.451,4.758,4.758,0,0,1-1.168.7A4.535,4.535,0,0,1,204.127,201.922Z" transform="translate(-198.516 -134.318)" fill="#263238"/>
      <path id="Path_37696" data-name="Path 37696" d="M197.26,208.371a2.765,2.765,0,0,1,.668-1.2c.462-.6.94-1,.994-.945a4.361,4.361,0,0,1-.771,1.119C197.7,207.92,197.325,208.409,197.26,208.371Z" transform="translate(-195.38 -136.868)" fill="#263238"/>
      <path id="Path_37697" data-name="Path 37697" d="M193.852,217.3a2.672,2.672,0,0,1,.1-1.369,2.716,2.716,0,0,1,.543-1.271,4.5,4.5,0,0,1-.255,1.336A4.443,4.443,0,0,1,193.852,217.3Z" transform="translate(-193.802 -140.723)" fill="#263238"/>
      <path id="Path_37698" data-name="Path 37698" d="M194.494,227.15a2.716,2.716,0,0,1-.543-1.271,2.645,2.645,0,0,1-.109-1.369,4.915,4.915,0,0,1,.386,1.3A4.719,4.719,0,0,1,194.494,227.15Z" transform="translate(-193.798 -145.224)" fill="#263238"/>
      <path id="Path_37699" data-name="Path 37699" d="M198.816,236.073c-.06.054-.511-.369-.95-.988a2.862,2.862,0,0,1-.635-1.217c.071-.038.429.451.864,1.054A4.181,4.181,0,0,1,198.816,236.073Z" transform="translate(-195.366 -149.498)" fill="#263238"/>
      <path id="Path_37700" data-name="Path 37700" d="M205.729,243.241a3.047,3.047,0,0,1-1.168-.717c-.592-.473-1-.934-.945-.994a4,4,0,0,1,1.119.777C205.316,242.774,205.778,243.176,205.729,243.241Z" transform="translate(-198.282 -153)" fill="#263238"/>
      <path id="Path_37701" data-name="Path 37701" d="M214.142,248.613a6.518,6.518,0,0,1-2.422-1.233,3.519,3.519,0,0,1,1.276.489,3.406,3.406,0,0,1,1.146.744Z" transform="translate(-201.986 -155.672)" fill="#263238"/>
      <path id="Path_37702" data-name="Path 37702" d="M223.484,252.109a2.976,2.976,0,0,1-1.363-.163,2.906,2.906,0,0,1-1.271-.516,4.144,4.144,0,0,1,1.341.244A3.867,3.867,0,0,1,223.484,252.109Z" transform="translate(-206.158 -157.523)" fill="#263238"/>
      <path id="Path_37703" data-name="Path 37703" d="M233.376,253.111a4.948,4.948,0,0,1-2.716.054,3.992,3.992,0,0,1,1.352-.119A4.133,4.133,0,0,1,233.376,253.111Z" transform="translate(-210.64 -158.248)" fill="#263238"/>
      <path id="Path_37704" data-name="Path 37704" d="M243.133,250.62a4.855,4.855,0,0,1-2.553.918,4.062,4.062,0,0,1,1.249-.543,3.987,3.987,0,0,1,1.3-.375Z" transform="translate(-215.172 -157.153)" fill="#263238"/>
      <path id="Path_37705" data-name="Path 37705" d="M251.808,245.15c.054.06-.358.543-.961.978a2.939,2.939,0,0,1-1.189.679c-.043-.071.429-.445,1.021-.9A4.291,4.291,0,0,1,251.808,245.15Z" transform="translate(-219.318 -154.653)" fill="#263238"/>
      <path id="Path_37706" data-name="Path 37706" d="M258.754,237.588a2.944,2.944,0,0,1-.668,1.195c-.451.608-.9,1.027-.961.978a4.188,4.188,0,0,1,.739-1.146C258.308,238.011,258.683,237.544,258.754,237.588Z" transform="translate(-222.728 -151.197)" fill="#263238"/>
      <path id="Path_37707" data-name="Path 37707" d="M263.606,228.59a2.879,2.879,0,0,1-.331,1.331c-.282.706-.614,1.227-.684,1.189a4.04,4.04,0,0,1,.418-1.293A4.176,4.176,0,0,1,263.606,228.59Z" transform="translate(-225.228 -147.088)" fill="#263238"/>
      <path id="Path_37708" data-name="Path 37708" d="M266.088,218.8a5.181,5.181,0,0,1-.369,2.688,8.9,8.9,0,0,1,.369-2.688Z" transform="translate(-226.657 -142.615)" fill="#263238"/>
      <path id="Path_37709" data-name="Path 37709" d="M266.1,208.805a3.259,3.259,0,0,1,.25,1.342,3.486,3.486,0,0,1-.038,1.369,6.73,6.73,0,0,1-.212-2.716Z" transform="translate(-226.805 -138.046)" fill="#263238"/>
      <path id="Path_37710" data-name="Path 37710" d="M264,199.05a3.318,3.318,0,0,1,.494,1.276,3.373,3.373,0,0,1,.217,1.347,3.415,3.415,0,0,1-.494-1.276A3.357,3.357,0,0,1,264,199.05Z" transform="translate(-225.869 -133.592)" fill="#263238"/>
      <path id="Path_37711" data-name="Path 37711" d="M260.14,189.808c.071-.038.4.483.722,1.162a3.341,3.341,0,0,1,.424,1.3A7.984,7.984,0,0,1,260.14,189.808Z" transform="translate(-224.108 -129.368)" fill="#263238"/>
      <path id="Path_37712" data-name="Path 37712" d="M255.22,181.1c.071-.043.429.451.809,1.086a3.346,3.346,0,0,1,.543,1.244,3.492,3.492,0,0,1-.809-1.086,3.53,3.53,0,0,1-.543-1.244Z" transform="translate(-221.86 -125.388)" fill="#263238"/>
      <path id="Path_37713" data-name="Path 37713" d="M250.26,172.408c.071-.038.418.467.782,1.119a3.5,3.5,0,0,1,.543,1.26,3.481,3.481,0,0,1-.782-1.124A3.34,3.34,0,0,1,250.26,172.408Z" transform="translate(-219.594 -121.419)" fill="#263238"/>
      <path id="Path_37714" data-name="Path 37714" d="M246.35,163.21a6.544,6.544,0,0,1,.95,2.547,3.259,3.259,0,0,1-.608-1.227A3.378,3.378,0,0,1,246.35,163.21Z" transform="translate(-217.808 -117.217)" fill="#263238"/>
      <path id="Path_37715" data-name="Path 37715" d="M244.566,153.38a3.8,3.8,0,0,1,.239,1.342,3.958,3.958,0,0,1,.049,1.358,2.884,2.884,0,0,1-.326-1.331A2.971,2.971,0,0,1,244.566,153.38Z" transform="translate(-216.947 -112.726)" fill="#263238"/>
      <path id="Path_37716" data-name="Path 37716" d="M245.08,143.43a4.106,4.106,0,0,1-.1,1.358,3.84,3.84,0,0,1-.3,1.331,3.031,3.031,0,0,1,0-1.374A2.944,2.944,0,0,1,245.08,143.43Z" transform="translate(-217.011 -108.18)" fill="#263238"/>
      <path id="Path_37717" data-name="Path 37717" d="M247.858,134a3.964,3.964,0,0,1-.434,1.293,4.069,4.069,0,0,1-.614,1.217A5.089,5.089,0,0,1,247.858,134Z" transform="translate(-218.018 -103.872)" fill="#263238"/>
      <path id="Path_37718" data-name="Path 37718" d="M252.912,125.707c.06.054-.3.543-.755,1.135s-.842,1.086-.907,1.016a2.878,2.878,0,0,1,.684-1.189C252.4,126.071,252.858,125.658,252.912,125.707Z" transform="translate(-220.047 -100.081)" fill="#263238"/>
      <path id="Path_37719" data-name="Path 37719" d="M260.007,119.13c.043.065-.429.451-1.016.907a4.046,4.046,0,0,1-1.135.755c-.054-.06.364-.543.961-.978A2.955,2.955,0,0,1,260.007,119.13Z" transform="translate(-223.063 -97.078)" fill="#263238"/>
      <path id="Path_37720" data-name="Path 37720" d="M268.621,114.61a4.074,4.074,0,0,1-1.211.625,3.921,3.921,0,0,1-1.282.451c-.038-.071.478-.407,1.173-.706a2.852,2.852,0,0,1,1.32-.369Z" transform="translate(-226.843 -95.013)" fill="#263238"/>
      <path id="Path_37721" data-name="Path 37721" d="M276.876,112.721c0,.076-.277.2-.641.261s-.679.065-.7,0,.272-.2.641-.266S276.876,112.645,276.876,112.721Z" transform="translate(-231.144 -94.124)" fill="#263238"/>
      <path id="Path_37722" data-name="Path 37722" d="M298.38,81.136a17.783,17.783,0,0,1,15.207-1.629s.722,7.31-6.355,13.122" transform="translate(-241.579 -78.528)" fill="#f8951d"/>
      <path id="Path_37723" data-name="Path 37723" d="M261.35,95.791c.272.407,7.2,11.536,7.2,11.536L289.332,94.52a7.278,7.278,0,0,0,2.031-10.526h0a7.272,7.272,0,0,0-9.9-1.705Z" transform="translate(-224.661 -79.68)" fill="#f8951d"/>
      <path id="Path_37724" data-name="Path 37724" d="M274.207,124.432l-.467,7.832s13.469-6.517,10.108-13.774Z" transform="translate(-230.322 -96.786)" fill="#263238"/>
      <path id="Path_37725" data-name="Path 37725" d="M265.072,95.161s-9.135-4.03-16.652,1.879l7.023,4.584Z" transform="translate(-218.754 -85.514)" fill="#263238"/>
      <path id="Path_37726" data-name="Path 37726" d="M268.067,108.079l-13,8.147s.445,1.4.793,1.282,10.064-5.866,13.23-7.74a.978.978,0,0,0,.255-1.461h0A.983.983,0,0,0,268.067,108.079Z" transform="translate(-221.792 -91.963)" fill="#263238"/>
      <circle id="Ellipse_3275" data-name="Ellipse 3275" cx="4.16" cy="4.16" r="4.16" transform="translate(53.23 13.049) rotate(-76.76)" fill="#fafafa"/>
      <path id="Path_37727" data-name="Path 37727" d="M301.515,93.248a7.59,7.59,0,0,0-.185-1,4.117,4.117,0,0,0-1.521-2.227,4.03,4.03,0,0,0-1.711-.744,4.084,4.084,0,0,0-2.118.185,4.019,4.019,0,0,0-1.89,6.164,4.036,4.036,0,0,0,1.868,1.412,4.089,4.089,0,0,0,2.118.185,4.03,4.03,0,0,0,1.711-.744,4.139,4.139,0,0,0,1.521-2.227c.168-.63.152-1,.185-1a.873.873,0,0,1,0,.272,3.35,3.35,0,0,1-.092.76,4.2,4.2,0,0,1-3.3,3.172,4.279,4.279,0,1,1,1.792-7.587,4.144,4.144,0,0,1,1.543,2.379,3.352,3.352,0,0,1,.092.76A.821.821,0,0,1,301.515,93.248Z" transform="translate(-239.126 -83.296)" fill="#263238"/>
      <path id="Path_37728" data-name="Path 37728" d="M311.635,92.136c-.054,0-.114-.809-.435-2.075a16.291,16.291,0,0,0-.722-2.172,15.9,15.9,0,0,0-3.02-4.676,16.069,16.069,0,0,0-1.678-1.553c-1.027-.809-1.738-1.2-1.711-1.249a2.406,2.406,0,0,1,.516.244,6.3,6.3,0,0,1,.581.342c.217.147.472.3.733.505a13.466,13.466,0,0,1,1.743,1.532,14.528,14.528,0,0,1,3.074,4.758,14.072,14.072,0,0,1,.679,2.221c.081.32.114.619.158.88a5.969,5.969,0,0,1,.071.668A2,2,0,0,1,311.635,92.136Z" transform="translate(-244.178 -79.388)" fill="#263238"/>
      <path id="Path_37729" data-name="Path 37729" d="M309.484,93c-.054,0-.119-.82-.445-2.107a16.834,16.834,0,0,0-.733-2.205,17.377,17.377,0,0,0-1.32-2.52,17.608,17.608,0,0,0-1.738-2.249,16.249,16.249,0,0,0-1.705-1.591c-1.037-.831-1.76-1.233-1.733-1.282a2.445,2.445,0,0,1,.543.255,5.569,5.569,0,0,1,.581.353,5.9,5.9,0,0,1,.744.543,14.912,14.912,0,0,1,1.76,1.537,16.176,16.176,0,0,1,1.787,2.276,16.549,16.549,0,0,1,1.32,2.574,14.552,14.552,0,0,1,.69,2.259c.081.326.114.63.158.891a5.277,5.277,0,0,1,.076.679,2.63,2.63,0,0,1,.016.587Z" transform="translate(-243.146 -79.68)" fill="#263238"/>
    </g>
    <g id="freepik--Plant--inject-53" transform="translate(29.216 190.478)">
      <path id="Path_37730" data-name="Path 37730" d="M78.56,389.914c-.467-1.847.755-3.693,2.118-5.024s2.987-2.52,3.7-4.285c1.157-2.857-.358-6.577,1.629-8.956,1.151-1.4,3.215-1.857,4.236-3.357a7.636,7.636,0,0,0,.934-2.678,27.259,27.259,0,0,1,6.854-12.655,23.6,23.6,0,0,1-2.716,12.215,15.41,15.41,0,0,0-2.042,4.638c-.445,2.716,1.086,5.534.38,8.207-.788,3.052-4.231,5.084-4.416,8.228-.152,2.667,2.172,5.013,1.966,7.674a7.137,7.137,0,0,1-1.2,3.15c-2.129,3.395-5.154,5.735-9.733,5.632l-5.616.163Z" transform="translate(-54.257 -315.859)" fill="#f8951d"/>
      <g id="Group_8842" data-name="Group 8842" transform="translate(20.403 37.101)" opacity="0.3">
        <path id="Path_37731" data-name="Path 37731" d="M78.56,389.914c-.467-1.847.755-3.693,2.118-5.024s2.987-2.52,3.7-4.285c1.157-2.857-.358-6.577,1.629-8.956,1.151-1.4,3.215-1.857,4.236-3.357a7.636,7.636,0,0,0,.934-2.678,27.259,27.259,0,0,1,6.854-12.655,23.6,23.6,0,0,1-2.716,12.215,15.41,15.41,0,0,0-2.042,4.638c-.445,2.716,1.086,5.534.38,8.207-.788,3.052-4.231,5.084-4.416,8.228-.152,2.667,2.172,5.013,1.966,7.674a7.137,7.137,0,0,1-1.2,3.15c-2.129,3.395-5.154,5.735-9.733,5.632l-5.616.163Z" transform="translate(-74.66 -352.96)"/>
      </g>
      <path id="Path_37732" data-name="Path 37732" d="M56.357,386.566a4.378,4.378,0,0,1-1.548-.043,9.453,9.453,0,0,1-1.819-.467,7.849,7.849,0,0,1-2.249-1.249,3.1,3.1,0,0,1-.918-1.238,5.834,5.834,0,0,1-.255-1.678,17.628,17.628,0,0,0-.119-1.819,4.975,4.975,0,0,0-.679-1.809c-.652-1.168-1.749-2.27-2.091-3.856a13.315,13.315,0,0,1,.179-4.915,10.318,10.318,0,0,0-.1-5.279c-.646-1.76-1.814-3.351-2.417-5.333s-.3-4.149-.424-6.273a8.256,8.256,0,0,0-.711-3.123c-.451-.994-1.086-1.934-1.559-2.982a21.9,21.9,0,0,1-1.407-6.871c-.125-1.184-.255-2.384-.38-3.59a17.527,17.527,0,0,0-.608-3.6,31.253,31.253,0,0,0-1.32-3.481,11.406,11.406,0,0,1-.641-1.819,18.123,18.123,0,0,1-.174-1.934,22.708,22.708,0,0,1,.174-3.883c.158-1.293.4-2.58.543-3.878v-.223l.027-.255.228.114a8.608,8.608,0,0,1,3.009,2.569,13.79,13.79,0,0,1,1.841,3.433,42.493,42.493,0,0,1,1.705,7.359,20.366,20.366,0,0,0,2.265,6.805c.614,1,1.352,1.923,2,2.9a8.022,8.022,0,0,1,1.374,3.2c.315,2.379-1,4.459-.744,6.561a7.327,7.327,0,0,0,1.043,2.917c.505.9,1.086,1.733,1.662,2.574a16.126,16.126,0,0,1,1.494,2.6,8.147,8.147,0,0,1,.69,2.824c.125,1.9-.152,3.688,0,5.388a12.345,12.345,0,0,0,1.358,4.622c.668,1.385,1.418,2.64,2.042,3.851a19.011,19.011,0,0,1,.842,1.8,8.575,8.575,0,0,1,.483,1.776,11.139,11.139,0,0,1,0,3.2,8.065,8.065,0,0,1-1.629,4.079,3.7,3.7,0,0,1-.456.489,2.14,2.14,0,0,1-.369.31l-.32.223a7.141,7.141,0,0,0,1.086-1.086,8.147,8.147,0,0,0,1.548-4.046,11.113,11.113,0,0,0-.054-3.161,8.527,8.527,0,0,0-.489-1.738c-.234-.581-.543-1.168-.842-1.771-.635-1.2-1.39-2.449-2.075-3.845a12.59,12.59,0,0,1-1.407-4.7c-.141-1.733.13-3.53,0-5.382a7.9,7.9,0,0,0-.663-2.716A16.125,16.125,0,0,0,52,355.57c-.543-.836-1.162-1.673-1.684-2.591a7.691,7.691,0,0,1-1.054-3.042c-.255-2.243,1.054-4.345.728-6.545a7.6,7.6,0,0,0-1.336-3.052c-.635-.961-1.38-1.879-2.01-2.906a20.309,20.309,0,0,1-2.319-6.919,40.963,40.963,0,0,0-1.695-7.3,13.394,13.394,0,0,0-1.792-3.34,8.283,8.283,0,0,0-2.879-2.46l.261-.147-.027.228c-.152,1.314-.391,2.6-.543,3.878a22.1,22.1,0,0,0-.174,3.829c.033.625.071,1.282.163,1.874a12.058,12.058,0,0,0,.619,1.754,31.651,31.651,0,0,1,1.336,3.519A17.846,17.846,0,0,1,40.2,336c.13,1.206.255,2.406.38,3.59a21.644,21.644,0,0,0,1.363,6.767c.473,1.021,1.086,1.961,1.553,2.993a8.69,8.69,0,0,1,.739,3.259c.109,2.173-.185,4.285.391,6.208s1.787,3.509,2.4,5.328a11.189,11.189,0,0,1,.087,5.4,12.962,12.962,0,0,0-.206,4.828c.337,1.494,1.374,2.607,2.042,3.8a5.154,5.154,0,0,1,.69,1.879,16.837,16.837,0,0,1,.109,1.841,5.545,5.545,0,0,0,.228,1.629,3.01,3.01,0,0,0,.864,1.189,7.728,7.728,0,0,0,2.172,1.249,9.544,9.544,0,0,0,1.792.5,7.688,7.688,0,0,0,1.141.12A4.058,4.058,0,0,1,56.357,386.566Z" transform="translate(-37.095 -299.416)" fill="#263238"/>
      <path id="Path_37733" data-name="Path 37733" d="M40.59,323.15a.706.706,0,0,1,.054.168c.027.136.071.3.119.505.109.445.234,1.113.44,1.95s.722,1.776,1.151,2.938.9,2.488,1.309,3.987.793,3.166,1.179,4.948a20.8,20.8,0,0,0,1.765,5.518c.456.912.967,1.841,1.374,2.851a13.355,13.355,0,0,1,.793,3.226,65.535,65.535,0,0,0,1.168,6.8c1.086,4.606,2.172,8.994,3.1,12.992s1.857,7.571,2.6,10.6,1.309,5.431,1.722,7.148l.451,1.95c.043.206.081.375.109.511a.842.842,0,0,1,0,.174.646.646,0,0,1-.06-.168l-.147-.5c-.125-.467-.3-1.113-.543-1.934l-1.836-7.12c-.76-3.02-1.667-6.6-2.672-10.575s-2.02-8.386-3.134-13a64.837,64.837,0,0,1-1.119-6.849,12.725,12.725,0,0,0-.76-3.15c-.391-.983-.9-1.906-1.352-2.83a21.068,21.068,0,0,1-1.754-5.556c-.375-1.787-.728-3.449-1.13-4.942s-.826-2.835-1.255-3.987a27.551,27.551,0,0,1-1.086-2.976c-.2-.864-.293-1.515-.375-1.966-.038-.206-.065-.38-.087-.516A.7.7,0,0,1,40.59,323.15Z" transform="translate(-38.692 -302.24)" fill="#263238"/>
      <path id="Path_37734" data-name="Path 37734" d="M67.517,371.811c-3.655-2.2-4.671-8.82-3.118-12.8s4.253-7.6,4.687-11.84c.337-3.259-.711-6.615.065-9.776,1.054-4.3,5.274-7.6,5.252-12.036,0-2.482-1.412-4.828-1.287-7.31.158-3.041,2.5-5.431,3.965-8.114,2.238-4.09,2.411-8.94,3.194-13.535s2.564-9.516,6.653-11.753c.581,3.911,1.6,6.594,1.244,11.884-.13,1.9-2.357,5.524-2.683,9.684-.19,2.488-.331,4.98-.494,7.473a23.691,23.691,0,0,1-1.217,7.153c-.673,1.733-1.754,3.3-2.259,5.095-.95,3.373.255,7.033-.543,10.45-.652,2.895-2.672,5.377-3.1,8.31-.6,4.128,2.048,8.429.657,12.362-.69,1.95-2.3,3.509-2.77,5.524-.364,1.564,0,3.221-.315,4.79-.543,2.531-5.377,4.47-7.957,4.3" transform="translate(-49.249 -284.65)" fill="#f8951d"/>
      <path id="Path_37735" data-name="Path 37735" d="M89.119,291.73a1.147,1.147,0,0,1,0,.223,5.77,5.77,0,0,1-.087.641c-.087.543-.185,1.39-.38,2.46s-.777,2.287-1.227,3.742-.95,3.134-1.374,5.018-.788,3.959-1.168,6.2a25.494,25.494,0,0,1-1.923,7.006c-.543,1.168-1.086,2.341-1.542,3.585a16.293,16.293,0,0,0-.8,3.959A79.414,79.414,0,0,1,79.5,333.1c-1.157,5.779-2.254,11.286-3.259,16.294l-2.8,13.274c-.809,3.758-1.466,6.805-1.923,8.94-.234,1.037-.413,1.852-.543,2.428l-.147.63a1.2,1.2,0,0,1-.065.212,1.287,1.287,0,0,1,0-.217c.033-.163.071-.375.114-.641.114-.581.272-1.4.478-2.439.429-2.14,1.048-5.2,1.809-8.967s1.7-8.293,2.716-13.29l3.259-16.294a81.462,81.462,0,0,0,1.124-8.505,16.435,16.435,0,0,1,.826-4.041c.451-1.271,1.043-2.45,1.564-3.606a25.839,25.839,0,0,0,1.928-6.925c.407-2.232.771-4.345,1.222-6.2s.934-3.563,1.428-5.018,1.054-2.667,1.276-3.715.342-1.885.451-2.439c.049-.266.092-.473.119-.635A1.364,1.364,0,0,1,89.119,291.73Z" transform="translate(-52.472 -287.885)" fill="#263238"/>
    </g>
    <g id="freepik--Chart--inject-53" transform="translate(227.66 182.304)">
      <rect id="Rectangle_5611" data-name="Rectangle 5611" width="3.786" height="12.231" transform="translate(0 9.863)" fill="#f8951d"/>
      <rect id="Rectangle_5612" data-name="Rectangle 5612" width="3.786" height="17.26" transform="translate(6.968 4.828)" fill="#f8951d"/>
      <rect id="Rectangle_5613" data-name="Rectangle 5613" width="3.786" height="19.612" transform="translate(14.382 2.477)" fill="#f8951d"/>
      <rect id="Rectangle_5614" data-name="Rectangle 5614" width="3.786" height="22.094" transform="translate(21.801)" fill="#f8951d"/>
    </g>
    <g id="freepik--Gears--inject-53" transform="translate(75.873 177.09)">
      <path id="Path_37736" data-name="Path 37736" d="M163.943,316.9a2.608,2.608,0,0,1,.815.255,3.488,3.488,0,0,1,1.407,5,3.547,3.547,0,0,1-1.559,1.342,3.5,3.5,0,0,1-4.079-.918,3.34,3.34,0,0,1-.543-.9,3.155,3.155,0,0,1-.266-.978,3.509,3.509,0,0,1,.266-1.841,3.449,3.449,0,0,1,3.139-2.08,2.514,2.514,0,0,1,.847.114,3.989,3.989,0,0,0-.842-.038,3.394,3.394,0,0,0-2.08.82,3.329,3.329,0,0,0-.918,1.249,3.416,3.416,0,0,0-.234,1.754,3.178,3.178,0,0,0,.261.923,3.129,3.129,0,0,0,.543.847,3.335,3.335,0,0,0,3.856.864,3.025,3.025,0,0,0,.847-.543,3.112,3.112,0,0,0,.635-.728,3.395,3.395,0,0,0-1.293-4.834A3.67,3.67,0,0,0,163.943,316.9Z" transform="translate(-139.763 -285.945)" fill="#263238"/>
      <path id="Path_37737" data-name="Path 37737" d="M161.306,307.933a.952.952,0,0,1,0-.119v-1.819l.027.033-3.134-.684.054-.027-.826,1.754v.033h-.038a7.828,7.828,0,0,0-2.042.364h-.038l-.027-.027-1.38-1.363h.016L151.2,307.8l.033-.092.652,1.825v.043l-.033.038a7.968,7.968,0,0,0-1.189,1.695v.043h-1.939l.081-.071c-.217.983-.456,2.042-.7,3.128l-.049-.1,1.749.831.049.027v.054a8.147,8.147,0,0,0,.353,2.037v.054l-.043.043L148.8,318.73v-.119l1.716,2.716-.114-.043,1.825-.652h.06l.043.038a7.673,7.673,0,0,0,1.684,1.189h0c.027.038-.049-.087.054.087h0v1.934l-.076-.1,3.128.706-.109.054c.277-.592.543-1.173.831-1.754l.027-.049h.06a7.7,7.7,0,0,0,2.031-.353h.06l.038.038,1.374,1.374h-.119l2.716-1.711-.038.1c-.223-.619-.434-1.227-.652-1.825v-.049l.038-.043a7.821,7.821,0,0,0,1.195-1.689v-.043h1.988l-.076.065c.25-1.086.483-2.14.706-3.134l.043.087-1.749-.836h-.038v-.043a7.719,7.719,0,0,0-.348-2.042v-.065l1.374-1.374v.076l-1.705-2.716h.054l-1.83.635h0a8.527,8.527,0,0,0-1.244-.956l-.337-.2-.109-.071.119.054.342.185a8.088,8.088,0,0,1,1.271.94h-.033l1.819-.663h.033v.033l1.727,2.716v.038l-.033.038-1.363,1.374v-.065a7.777,7.777,0,0,1,.364,2.08l-.038-.06,1.754.826.054.027v.06c-.217.988-.451,2.026-.7,3.128v.065h-2l.076-.043a7.963,7.963,0,0,1-1.217,1.727v-.087c.212.6.434,1.206.652,1.825l.027.071-.065.038-2.716,1.716-.065.043-.054-.054-1.374-1.369h.1a7.885,7.885,0,0,1-2.086.364l.081-.054c-.272.576-.543,1.162-.831,1.749l-.033.071h-.076l-3.128-.7h-.076v-2.086h0c.1.174,0,.049.054.087h0a7.875,7.875,0,0,1-1.727-1.217h.1l-1.825.646-.076.027-.038-.065-1.716-2.716-.043-.065.054-.054,1.369-1.374v.1a8.061,8.061,0,0,1-.364-2.086l.054.076-1.733-.8-.065-.033V314.4l.706-3.128V311.2h2.075l-.071.043a7.868,7.868,0,0,1,1.217-1.722v.081l-.646-1.83v-.06l.054-.033,2.716-1.711.049-.027.043.038,1.369,1.374h-.065A7.838,7.838,0,0,1,157.4,307l-.049.033.842-1.749v-.038h.038l3.123.722h.027v1.809A1.179,1.179,0,0,1,161.306,307.933Z" transform="translate(-134.367 -280.674)" fill="#263238"/>
      <path id="Path_37738" data-name="Path 37738" d="M149.352,262.895a8.779,8.779,0,0,1,1.89,1.331l2.02-.717,1.9,2.993-1.51,1.521a8.847,8.847,0,0,1,.4,2.281l1.934.918-.777,3.443h-2.14a8.8,8.8,0,0,1-1.336,1.89l.722,2.02-3,1.9-1.521-1.461a8.847,8.847,0,0,1-2.276.4l-.918,1.934-3.46-.777v-2.14a8.691,8.691,0,0,1-1.89-1.336l-2.02.722-1.9-3,1.515-1.515a8.929,8.929,0,0,1-.4-2.281l-1.934-.918.771-3.46h2.134a8.645,8.645,0,0,1,1.331-1.89l-.712-2.031,2.993-1.9,1.521,1.515a8.847,8.847,0,0,1,2.281-.4l.918-1.934,3.46.777v2.14Zm-3.052,4.073a3.8,3.8,0,1,0,2.382,1.676,3.8,3.8,0,0,0-2.382-1.676Z" transform="translate(-128.323 -260)" fill="#f8951d" fill-rule="evenodd"/>
      <g id="Group_8843" data-name="Group 8843" transform="translate(6.327)" opacity="0.8">
        <path id="Path_37739" data-name="Path 37739" d="M149.352,262.895a8.779,8.779,0,0,1,1.89,1.331l2.02-.717,1.9,2.993-1.51,1.521a8.847,8.847,0,0,1,.4,2.281l1.934.918-.777,3.443h-2.14a8.8,8.8,0,0,1-1.336,1.89l.722,2.02-3,1.9-1.521-1.461a8.847,8.847,0,0,1-2.276.4l-.918,1.934-3.46-.777v-2.14a8.691,8.691,0,0,1-1.89-1.336l-2.02.722-1.9-3,1.515-1.515a8.929,8.929,0,0,1-.4-2.281l-1.934-.918.771-3.46h2.134a8.645,8.645,0,0,1,1.331-1.89l-.712-2.031,2.993-1.9,1.521,1.515a8.847,8.847,0,0,1,2.281-.4l.918-1.934,3.46.777v2.14Zm-3.052,4.073a3.8,3.8,0,1,0,2.382,1.676,3.8,3.8,0,0,0-2.382-1.676Z" transform="translate(-134.65 -260)" fill="#fff" fill-rule="evenodd"/>
      </g>
      <path id="Path_37740" data-name="Path 37740" d="M131.516,301.435a5.05,5.05,0,0,1,1.086.771l1.179-.418,1.086,1.743-.88.885a5.138,5.138,0,0,1,.234,1.325l1.124.543-.4,2.01H133.7a5.138,5.138,0,0,1-.771,1.086l.418,1.173-1.749,1.086-.88-.88a5.214,5.214,0,0,1-1.331.228l-.543,1.13-2.015-.456v-1.244a4.976,4.976,0,0,1-1.086-.777l-1.179.418-1.086-1.743.88-.885a5.133,5.133,0,0,1-.228-1.325l-1.13-.543.451-2.015h1.179a5.242,5.242,0,0,1,.777-1.086l-.418-1.173,1.743-1.086.885.885a4.915,4.915,0,0,1,1.325-.234l.543-1.124,2.015.451v1.249ZM129.74,303.8a2.216,2.216,0,1,0,1.673,2.645,2.216,2.216,0,0,0-1.673-2.645Z" transform="translate(-123 -278.152)" fill="#f8951d" fill-rule="evenodd"/>
      <g id="Group_8844" data-name="Group 8844" transform="translate(0 21.578)" opacity="0.4">
        <path id="Path_37741" data-name="Path 37741" d="M131.516,301.435a5.05,5.05,0,0,1,1.086.771l1.179-.418,1.086,1.743-.88.885a5.138,5.138,0,0,1,.234,1.325l1.124.543-.4,2.01H133.7a5.138,5.138,0,0,1-.771,1.086l.418,1.173-1.749,1.086-.88-.88a5.214,5.214,0,0,1-1.331.228l-.543,1.13-2.015-.456v-1.244a4.976,4.976,0,0,1-1.086-.777l-1.179.418-1.086-1.743.88-.885a5.133,5.133,0,0,1-.228-1.325l-1.13-.543.451-2.015h1.179a5.242,5.242,0,0,1,.777-1.086l-.418-1.173,1.743-1.086.885.885a4.915,4.915,0,0,1,1.325-.234l.543-1.124,2.015.451v1.249ZM129.74,303.8a2.216,2.216,0,1,0,1.673,2.645,2.216,2.216,0,0,0-1.673-2.645Z" transform="translate(-123 -299.73)" fill="#fff" fill-rule="evenodd"/>
      </g>
    </g>
    <g id="freepik--Character--inject-53" transform="translate(102.057 145.287)">
      <path id="Path_37742" data-name="Path 37742" d="M357.31,244.923a5.312,5.312,0,0,0,3.84-5.3c-.065-1.086-.462-2.1-.418-3.161.071-1.629,1.168-3.047,1.993-4.481s1.374-3.318.413-4.665c-.619-.874-1.722-1.265-2.477-2.026a7.993,7.993,0,0,1-1.488-2.748,4.787,4.787,0,0,0-1.819-2.493,1.909,1.909,0,0,0-2.683.69" transform="translate(-255.028 -209.823)" fill="#263238"/>
      <path id="Path_37743" data-name="Path 37743" d="M314.2,209.752a4.043,4.043,0,0,0,1.135-5.143,6.31,6.31,0,0,0-4.655-3.063,8.875,8.875,0,0,0-7.642,2.531c-1.048,1.086-1.9,2.493-3.324,2.987-1.249.44-2.634.043-3.949.217a5.974,5.974,0,0,0-4.177,3.009,12.84,12.84,0,0,0-1.483,5.078c-.19,1.629-.32,3.395-1.439,4.573s-2.83,1.4-4.187,2.216a5.735,5.735,0,0,0-1.705,7.832c.543.782,1.314,1.5,1.374,2.455a6.618,6.618,0,0,1-.766,2.477,3.867,3.867,0,0,0,3.313,4.8c1.13.065,2.335-.375,3.351.13s1.38,1.716,2.02,2.64a4.85,4.85,0,0,0,5.9,1.521c.831-.407,1.629-1.086,2.536-1.016s1.629.847,2.553,1.021a3.27,3.27,0,0,0,3.02-1.629,16.616,16.616,0,0,1,2.1-2.944c1.184-1.054,2.846-1.309,4.345-1.825a12.247,12.247,0,0,0,6.9-17.152" transform="translate(-221.782 -201.444)" fill="#263238"/>
      <path id="Path_37744" data-name="Path 37744" d="M329.69,217.685a2.6,2.6,0,0,1,2.319,2.645h0l-1.553,35.124c-.065,4.149-6.126,6.479-10.569,6.376h0c-4.486-.1-4.627-2.3-4.687-6.251-.092-6.594-.081-9.07-.087-9.032s-5.665-.95-6.822-8.348c-.576-3.682-.38-9.711-.06-14.637.293-4.437,3.259-9.874,7.664-9.4Z" transform="translate(-233.671 -207.243)" fill="#ffbe9d"/>
      <path id="Path_37745" data-name="Path 37745" d="M311.44,239.58a.956.956,0,0,0,.912.961.907.907,0,0,0,.978-.853.945.945,0,0,0-.907-.961.912.912,0,0,0-.983.853Z" transform="translate(-235.278 -218.477)" fill="#263238"/>
      <path id="Path_37746" data-name="Path 37746" d="M310.827,236.434c.12.125.836-.407,1.857-.4s1.765.516,1.879.391-.065-.277-.391-.516a2.6,2.6,0,0,0-1.5-.467,2.482,2.482,0,0,0-1.477.473C310.876,236.151,310.767,236.38,310.827,236.434Z" transform="translate(-234.99 -216.976)" fill="#263238"/>
      <path id="Path_37747" data-name="Path 37747" d="M330.17,239.58a.956.956,0,0,0,.912.961.907.907,0,0,0,.978-.853.945.945,0,0,0-.912-.961.907.907,0,0,0-.978.853Z" transform="translate(-243.835 -218.477)" fill="#263238"/>
      <path id="Path_37748" data-name="Path 37748" d="M329.3,236.824c.119.125.836-.407,1.857-.4s1.765.543,1.879.391-.065-.277-.391-.516a2.6,2.6,0,0,0-1.5-.467,2.52,2.52,0,0,0-1.477.473C329.346,236.547,329.237,236.77,329.3,236.824Z" transform="translate(-243.429 -217.154)" fill="#263238"/>
      <path id="Path_37749" data-name="Path 37749" d="M320.3,244.43a6.73,6.73,0,0,0-1.629-.3c-.261-.027-.511-.081-.543-.255a1.309,1.309,0,0,1,.179-.771c.244-.63.505-1.293.771-1.982a33.126,33.126,0,0,0,1.743-5.187,34.621,34.621,0,0,0-2.172,5.029c-.255.7-.505,1.363-.739,2a1.488,1.488,0,0,0-.141,1.021.646.646,0,0,0,.429.38,1.8,1.8,0,0,0,.445.065,6.723,6.723,0,0,0,1.657.005Z" transform="translate(-238.154 -217.199)" fill="#263238"/>
      <path id="Path_37750" data-name="Path 37750" d="M321.11,271.612A18.836,18.836,0,0,0,331.022,269s-2.509,5.214-9.912,4.5Z" transform="translate(-239.696 -232.309)" fill="#eb996e"/>
      <path id="Path_37751" data-name="Path 37751" d="M323.137,255.531a1.847,1.847,0,0,1,1.629-.679,1.657,1.657,0,0,1,1.157.625,1.086,1.086,0,0,1,.081,1.217,1.249,1.249,0,0,1-1.342.337,3.975,3.975,0,0,1-1.3-.782,1.272,1.272,0,0,1-.288-.3.342.342,0,0,1,0-.38" transform="translate(-240.566 -225.84)" fill="#f8951d"/>
      <path id="Path_37752" data-name="Path 37752" d="M325.259,252.89c-.168,0-.174,1.086-1.124,1.885s-2.129.657-2.134.815c0,.065.261.212.76.228a2.716,2.716,0,0,0,1.781-.619,2.39,2.39,0,0,0,.869-1.575C325.449,253.161,325.324,252.885,325.259,252.89Z" transform="translate(-240.102 -224.948)" fill="#263238"/>
      <path id="Path_37753" data-name="Path 37753" d="M328.466,233.732c.1.277,1.119.147,2.314.293s2.172.478,2.325.228c.076-.119-.092-.38-.483-.652a4.09,4.09,0,0,0-3.536-.4C328.645,233.379,328.422,233.6,328.466,233.732Z" transform="translate(-243.054 -215.849)" fill="#263238"/>
      <path id="Path_37754" data-name="Path 37754" d="M311.519,230.957c.179.234.885,0,1.727,0s1.564.158,1.727-.081c.076-.119-.038-.353-.353-.57a2.482,2.482,0,0,0-2.781.081C311.541,230.6,311.443,230.843,311.519,230.957Z" transform="translate(-235.303 -214.453)" fill="#263238"/>
      <path id="Path_37755" data-name="Path 37755" d="M337.724,215.147a7.185,7.185,0,0,1,5.86-1.086,4.964,4.964,0,0,1,3.677,4.345c.043,1.3-.543,2.716.06,3.872s1.906,1.575,2.873,2.39A4.41,4.41,0,0,1,351.215,230c-.809,1.483-2.5,2.569-2.645,4.242-.136,1.575,1.189,2.906,1.515,4.454a4.981,4.981,0,0,1-1.944,4.606,15.091,15.091,0,0,1-4.741,2.357,7.369,7.369,0,0,1-4.057.641,4.155,4.155,0,0,1-3.042-3.465,5.654,5.654,0,0,1,1.537-4.464c.951-1.048,2.287-1.934,2.515-3.319.353-2.172-2.211-3.916-2.053-6.088a6.3,6.3,0,0,1,1.532-2.971,3.484,3.484,0,0,0,.826-3.128c-.543-1.369-2.319-1.727-3.405-2.716a3.318,3.318,0,0,1-.907-3.362,3.422,3.422,0,0,1,2.683-2.287" transform="translate(-246.593 -207.111)" fill="#263238"/>
      <path id="Path_37756" data-name="Path 37756" d="M321.409,211.344a5.056,5.056,0,0,1-5.974,5c-1.13-.206-2.368-.777-3.346-.174s-1.086,2.173-1.982,2.971c-1.3,1.135-3.373.071-5.029.543-1.276.38-2.075,1.6-2.927,2.629s-2.118,2-3.4,1.629a15.007,15.007,0,0,1,.511-3.411,5.045,5.045,0,0,1,1.934-2.775,18.649,18.649,0,0,0,1.629-.956c1.086-.853,1.309-2.346,1.961-3.541a5.551,5.551,0,0,1,4.226-2.8c1.456-.147,2.955.288,4.345-.071,1.048-.261,1.966-.94,3.025-1.146,2.069-.391,3.992,1.086,5.491,2.569" transform="translate(-229.48 -204.975)" fill="#263238"/>
      <path id="Path_37757" data-name="Path 37757" d="M354.746,232.215a1.553,1.553,0,0,0,.168-.853,2.172,2.172,0,0,0-1.494-1.711,11.079,11.079,0,0,0-1.629-.44,4.731,4.731,0,0,1-1.841-.76,2.574,2.574,0,0,1-.956-1.977,19.643,19.643,0,0,1,.114-2.325,5.268,5.268,0,0,0-.06-1.141,2.434,2.434,0,0,0-.434-.972,3.726,3.726,0,0,0-1.781-1.021,7.718,7.718,0,0,1-1.814-.782,6.05,6.05,0,0,1-1.336-1.086,6.213,6.213,0,0,1-1.3-2.107,3.8,3.8,0,0,1-.19-.646c-.033-.152-.043-.228-.033-.234s.1.31.32.842a6.577,6.577,0,0,0,4.437,3.775,3.916,3.916,0,0,1,1.912,1.086,2.715,2.715,0,0,1,.5,1.086,5.6,5.6,0,0,1,.065,1.206,21.294,21.294,0,0,0-.119,2.3,2.319,2.319,0,0,0,.842,1.792,4.579,4.579,0,0,0,1.733.733,10.7,10.7,0,0,1,1.629.483,2.639,2.639,0,0,1,1.151.858,2,2,0,0,1,.375,1.016,1.331,1.331,0,0,1-.136.673C354.817,232.16,354.752,232.22,354.746,232.215Z" transform="translate(-249.31 -208.167)" fill="#455a64"/>
      <path id="Path_37758" data-name="Path 37758" d="M284.708,231.4l-.125-.06a.875.875,0,0,1-.277-.277,1.493,1.493,0,0,1,.152-1.461,1.917,1.917,0,0,1,.793-.76,10.177,10.177,0,0,1,1.189-.5,3.709,3.709,0,0,0,1.244-.706,2.715,2.715,0,0,0,.712-1.4c.119-.543.157-1.162.261-1.792a3.905,3.905,0,0,1,.733-1.868c.858-1.13,2.27-1.733,3.324-2.8a5.192,5.192,0,0,0,1.157-1.961,13.664,13.664,0,0,0,.543-2.368,10.448,10.448,0,0,1,1.553-4.932,3.585,3.585,0,0,1,2.232-1.439,7.843,7.843,0,0,1,2.574.06,9.1,9.1,0,0,0,2.406.141,3.128,3.128,0,0,0,1.966-1.016c1.01-1.086,1.586-2.553,2.83-3.3a4.725,4.725,0,0,1,3.737-.516,4.149,4.149,0,0,1,2.455,1.912,4.638,4.638,0,0,1,.641,2.281,4.046,4.046,0,0,1-.234,1.477,2.407,2.407,0,0,1-.223.478s.065-.168.168-.494a4.346,4.346,0,0,0,.179-1.456,4.617,4.617,0,0,0-.663-2.205,3.992,3.992,0,0,0-2.379-1.8,4.519,4.519,0,0,0-3.557.543,5.208,5.208,0,0,0-1.428,1.472,16.982,16.982,0,0,1-1.336,1.809,3.742,3.742,0,0,1-.945.744,3.585,3.585,0,0,1-1.179.364,9.482,9.482,0,0,1-2.477-.136,7.6,7.6,0,0,0-2.482-.065,3.34,3.34,0,0,0-2.058,1.336,6.859,6.859,0,0,0-1.059,2.319,22.981,22.981,0,0,0-.451,2.488,13.627,13.627,0,0,1-.543,2.411,5.361,5.361,0,0,1-1.227,2.053c-1.113,1.086-2.509,1.695-3.324,2.765a3.742,3.742,0,0,0-.706,1.754c-.1.619-.147,1.227-.282,1.8a2.808,2.808,0,0,1-.782,1.488,3.8,3.8,0,0,1-1.309.722,10.321,10.321,0,0,0-1.184.473,1.863,1.863,0,0,0-.76.7,1.472,1.472,0,0,0-.2,1.38A1.277,1.277,0,0,0,284.708,231.4Z" transform="translate(-222.824 -202.734)" fill="#455a64"/>
      <path id="Path_37759" data-name="Path 37759" d="M249.086,324.768l13.116-1.2s8.071-21.263,18.021-26.418l6.447,11.259-13.8,25.923H245.93Z" transform="translate(-205.348 -245.17)" fill="#f8951d"/>
      <path id="Path_37760" data-name="Path 37760" d="M249.086,324.768l13.116-1.2s8.071-21.263,18.021-26.418l6.447,11.259-13.8,25.923H245.93Z" transform="translate(-205.348 -245.17)" opacity="0.3"/>
      <path id="Path_37761" data-name="Path 37761" d="M261.28,355.546a19.632,19.632,0,0,1,2.455-4.106A20.683,20.683,0,0,1,261.28,355.546Z" transform="translate(-212.361 -269.974)" fill="#fafafa"/>
      <path id="Path_37762" data-name="Path 37762" d="M275.877,355.41a20.21,20.21,0,0,1-2.987-3.71,9.443,9.443,0,0,1,1.6,1.765A10.32,10.32,0,0,1,275.877,355.41Z" transform="translate(-217.665 -270.092)" fill="#fafafa"/>
      <path id="Path_37763" data-name="Path 37763" d="M281.241,346.663a10.566,10.566,0,0,1,0-3.443A10.563,10.563,0,0,1,281.241,346.663Z" transform="translate(-221.416 -266.218)" fill="#fafafa"/>
      <path id="Path_37764" data-name="Path 37764" d="M270.887,362.257a3.487,3.487,0,0,1-1.255-.646c-.652-.429-1.141-.826-1.086-.891a3.672,3.672,0,0,1,1.255.652C270.42,361.8,270.931,362.192,270.887,362.257Z" transform="translate(-215.679 -274.213)" fill="#fafafa"/>
      <path id="Path_37765" data-name="Path 37765" d="M284.989,327.57a11.633,11.633,0,0,1-.907,2.368,11.463,11.463,0,0,1-1.162,2.254,11.048,11.048,0,0,1,.9-2.368A11.649,11.649,0,0,1,284.989,327.57Z" transform="translate(-222.248 -259.068)" fill="#fafafa"/>
      <path id="Path_37766" data-name="Path 37766" d="M294.608,311.71c.043.06-.424.494-1.048.972a3.72,3.72,0,0,1-1.222.744c-.043-.065.424-.5,1.048-.972A3.612,3.612,0,0,1,294.608,311.71Z" transform="translate(-226.549 -251.822)" fill="#fafafa"/>
      <path id="Path_37767" data-name="Path 37767" d="M332.64,333.543l6.767-27.325a9.287,9.287,0,0,1,10.667-6.914h0a9.3,9.3,0,0,1,7.539,10.575l-4.139,26.705a13.361,13.361,0,0,1-11.091,10.824l-5.377.836Z" transform="translate(-244.964 -246.086)" fill="#f8951d"/>
      <path id="Path_37768" data-name="Path 37768" d="M360.574,294.793a6.159,6.159,0,0,0-2.417-1.211,6.426,6.426,0,0,0-2.911,0,7.882,7.882,0,0,0-3.166,1.629,15.372,15.372,0,0,0-3.8,5.333c-.364.766-.641,1.4-.836,1.83a4.115,4.115,0,0,1-.331.668,3.862,3.862,0,0,1,.228-.706c.168-.451.413-1.086.755-1.879a21.689,21.689,0,0,1,1.39-2.667,11.9,11.9,0,0,1,2.406-2.8,7.93,7.93,0,0,1,3.286-1.689,6.448,6.448,0,0,1,3.02.038,5.188,5.188,0,0,1,1.836.885,3.338,3.338,0,0,1,.407.375A1.589,1.589,0,0,1,360.574,294.793Z" transform="translate(-251.574 -243.34)" fill="#263238"/>
      <path id="Path_37769" data-name="Path 37769" d="M293.846,307.5a1.446,1.446,0,0,1-.19.255l-.576.7c-.505.6-1.217,1.483-2.031,2.618a27.988,27.988,0,0,0-4.622,9.809,62.211,62.211,0,0,0-1.146,10.862c-.071,1.4-.136,2.536-.2,3.318-.033.369-.06.668-.081.9a2.135,2.135,0,0,1-.043.315,1.086,1.086,0,0,1,0-.315c0-.239,0-.543.027-.907,0-.82.06-1.944.1-3.318a55.771,55.771,0,0,1,1.086-10.917,26.982,26.982,0,0,1,4.731-9.858c.842-1.13,1.58-2,2.107-2.58.261-.293.478-.511.619-.657a1.7,1.7,0,0,1,.212-.223Z" transform="translate(-223.175 -249.898)" fill="#263238"/>
      <path id="Path_37770" data-name="Path 37770" d="M336.819,293.069c-.744-4.888-3.438-6.056-6.235-7.577a74.214,74.214,0,0,0-8.809-2.482c-.337-2.113-.934-5.9-1.086-6.7-.185-1.124-17.793,1.684-18.015,2.107-.147.277-.543,4.665-.809,7.6l-4.215,1.472-5.48,7-2.862,4.063a21.855,21.855,0,0,0-3.547,7.81,42.5,42.5,0,0,0-.788,9.461l-.853,17.923,36.867,10.417,2.824-18.173,9.5-12.937C334.125,307.82,337.732,299.076,336.819,293.069Z" transform="translate(-222.796 -235.527)" fill="#f8951d"/>
      <path id="Path_37771" data-name="Path 37771" d="M322.488,288.3a5.546,5.546,0,0,1-.244-1.244c-.114-.771-.255-1.841-.391-3.025-.065-.587-.125-1.146-.185-1.673a13.576,13.576,0,0,1-.1-1.38,1.63,1.63,0,0,1,.266-.918c.141-.185.261-.234.272-.223s-.081.1-.179.282a1.776,1.776,0,0,0-.158.858c0,.38.1.836.158,1.352s.13,1.086.206,1.667c.136,1.184.244,2.259.31,3.036A5.519,5.519,0,0,1,322.488,288.3Z" transform="translate(-239.906 -237.26)" fill="#263238"/>
      <path id="Path_37772" data-name="Path 37772" d="M331.089,286.568a4.313,4.313,0,0,1-.391-1.141,18,18,0,0,1-.543-5.768,4.432,4.432,0,0,1,.174-1.189c.087,0-.071,1.83.141,4.068S331.176,286.546,331.089,286.568Z" transform="translate(-243.809 -236.635)" fill="#263238"/>
      <path id="Path_37773" data-name="Path 37773" d="M346.844,284.352a18.864,18.864,0,0,0-.1-4.052,18.005,18.005,0,0,0-1.271-3.851,3.536,3.536,0,0,1,.646,1.027,10.319,10.319,0,0,1,.989,5.7A3.912,3.912,0,0,1,346.844,284.352Z" transform="translate(-250.825 -235.712)" fill="#263238"/>
      <path id="Path_37774" data-name="Path 37774" d="M302,316.837a16.836,16.836,0,0,1,3.232-4.307q-1.51,2.231-3.232,4.307Z" transform="translate(-230.965 -252.197)" fill="#fafafa"/>
      <path id="Path_37775" data-name="Path 37775" d="M314.946,305.021a17.381,17.381,0,0,1-2.716-3.541,9.309,9.309,0,0,1,1.461,1.684A8.941,8.941,0,0,1,314.946,305.021Z" transform="translate(-235.639 -247.148)" fill="#fafafa"/>
      <path id="Path_37776" data-name="Path 37776" d="M330.22,300.22a15.58,15.58,0,0,1-1.733,1.754,16.4,16.4,0,0,1-1.8,1.689,8.348,8.348,0,0,1,1.6-1.89A8.147,8.147,0,0,1,330.22,300.22Z" transform="translate(-242.245 -246.572)" fill="#fafafa"/>
      <path id="Path_37777" data-name="Path 37777" d="M326.59,288.781a5.072,5.072,0,0,1-1.352-1.032,5.322,5.322,0,0,1-1.168-1.249,5.4,5.4,0,0,1,1.358,1.037A5.237,5.237,0,0,1,326.59,288.781Z" transform="translate(-241.048 -240.304)" fill="#fafafa"/>
      <path id="Path_37778" data-name="Path 37778" d="M339.575,283.24a6.42,6.42,0,0,1-1.83.543,6.638,6.638,0,0,1-1.885.261,6.547,6.547,0,0,1,1.825-.543,6.665,6.665,0,0,1,1.89-.261Z" transform="translate(-246.435 -238.815)" fill="#fafafa"/>
      <path id="Path_37779" data-name="Path 37779" d="M345.258,302.192a6.383,6.383,0,0,1-.239-1.9,6.594,6.594,0,0,1,.043-1.906,6.381,6.381,0,0,1,.239,1.9A6.593,6.593,0,0,1,345.258,302.192Z" transform="translate(-250.596 -245.736)" fill="#fafafa"/>
      <path id="Path_37780" data-name="Path 37780" d="M339.02,312.24a10.156,10.156,0,0,1-.956-2.172,10.484,10.484,0,0,1-.684-2.3,20.733,20.733,0,0,1,1.629,4.492Z" transform="translate(-247.129 -250.022)" fill="#fafafa"/>
      <path id="Path_37781" data-name="Path 37781" d="M325,319.593a11.266,11.266,0,0,1-1.043-2.3,11.039,11.039,0,0,1-.782-2.406,11.769,11.769,0,0,1,1.043,2.3,11.522,11.522,0,0,1,.782,2.4Z" transform="translate(-240.641 -253.275)" fill="#fafafa"/>
      <path id="Path_37782" data-name="Path 37782" d="M312.705,328.186a19.285,19.285,0,0,1-.945-4.606,9.919,9.919,0,0,1,.608,2.276A10.02,10.02,0,0,1,312.705,328.186Z" transform="translate(-235.424 -257.245)" fill="#fafafa"/>
      <path id="Path_37783" data-name="Path 37783" d="M296.3,328.909a19.3,19.3,0,0,1-2.02-4.149A19.293,19.293,0,0,1,296.3,328.909Z" transform="translate(-227.438 -257.784)" fill="#fafafa"/>
      <path id="Path_37784" data-name="Path 37784" d="M293.851,342.34a12.1,12.1,0,0,1-2.205,1.244,11.323,11.323,0,0,1-2.335.994,11.514,11.514,0,0,1,2.211-1.249A11.363,11.363,0,0,1,293.851,342.34Z" transform="translate(-225.167 -265.816)" fill="#fafafa"/>
      <path id="Path_37785" data-name="Path 37785" d="M296.945,354.633a6.122,6.122,0,0,1-.766-1.982,6.057,6.057,0,0,1-.32-2.091,11.134,11.134,0,0,1,.592,2.02,11.3,11.3,0,0,1,.494,2.053Z" transform="translate(-228.158 -269.572)" fill="#fafafa"/>
      <path id="Path_37786" data-name="Path 37786" d="M291.831,366.523a9.822,9.822,0,0,1-1.771-1.434,8.94,8.94,0,0,1-1.58-1.629,9.817,9.817,0,0,1,1.771,1.434A8.939,8.939,0,0,1,291.831,366.523Z" transform="translate(-224.788 -275.465)" fill="#fafafa"/>
      <path id="Path_37787" data-name="Path 37787" d="M310.615,361.56c0,.081-1.227.44-2.683,1.086s-2.564,1.309-2.612,1.238a8.6,8.6,0,0,1,2.5-1.5,8.468,8.468,0,0,1,2.8-.826Z" transform="translate(-232.482 -274.597)" fill="#fafafa"/>
      <path id="Path_37788" data-name="Path 37788" d="M307.972,352.883a7.445,7.445,0,0,1-.8-1.863,7.245,7.245,0,0,1-.543-1.95,7.343,7.343,0,0,1,.793,1.857,7.154,7.154,0,0,1,.549,1.955Z" transform="translate(-233.08 -268.891)" fill="#fafafa"/>
      <path id="Path_37789" data-name="Path 37789" d="M318.51,342.57a15.846,15.846,0,0,1-1.483,2.623,16.348,16.348,0,0,1-1.727,2.5,32.59,32.59,0,0,1,3.21-5.094Z" transform="translate(-237.041 -265.921)" fill="#fafafa"/>
      <path id="Path_37790" data-name="Path 37790" d="M331.594,339.469A10.939,10.939,0,0,1,329.785,337a11.187,11.187,0,0,1-1.325-2.754c.076-.033.706,1.173,1.57,2.612S331.659,339.425,331.594,339.469Z" transform="translate(-243.054 -262.119)" fill="#fafafa"/>
      <path id="Path_37791" data-name="Path 37791" d="M338.5,330.994a5.377,5.377,0,0,1-2.069.369,5.431,5.431,0,0,1-2.091-.163,13.931,13.931,0,0,1,2.08-.119,14.5,14.5,0,0,1,2.08-.087Z" transform="translate(-245.74 -260.63)" fill="#fafafa"/>
      <path id="Path_37792" data-name="Path 37792" d="M355.961,316.39a31.566,31.566,0,0,1-5.431,2.6,32.667,32.667,0,0,1,5.431-2.6Z" transform="translate(-253.137 -253.96)" fill="#fafafa"/>
      <path id="Path_37793" data-name="Path 37793" d="M361.76,303.435a21.03,21.03,0,0,1,2.172-4.345,10.32,10.32,0,0,1-.956,2.232A10.722,10.722,0,0,1,361.76,303.435Z" transform="translate(-258.268 -246.056)" fill="#fafafa"/>
      <path id="Path_37794" data-name="Path 37794" d="M372.213,310.21a66.839,66.839,0,0,1-1.553-4.97,14.572,14.572,0,0,1,1.553,4.97Z" transform="translate(-262.334 -248.866)" fill="#fafafa"/>
      <path id="Path_37795" data-name="Path 37795" d="M371.254,324.07a8.468,8.468,0,0,1-2.384.869,8.2,8.2,0,0,1-2.509.386,18.38,18.38,0,0,1,2.439-.657A18.577,18.577,0,0,1,371.254,324.07Z" transform="translate(-260.369 -257.469)" fill="#fafafa"/>
      <path id="Path_37796" data-name="Path 37796" d="M355.2,330.864c-.081,0,.152-1.336.217-2.982s-.043-2.982.038-2.993a8.939,8.939,0,0,1,.244,3,8.814,8.814,0,0,1-.5,2.971Z" transform="translate(-255.261 -257.844)" fill="#fafafa"/>
      <path id="Path_37797" data-name="Path 37797" d="M348.22,344.477a13.366,13.366,0,0,1-3.53-4.258c.071-.043.788.961,1.765,2.134a26.072,26.072,0,0,1,1.765,2.124Z" transform="translate(-250.469 -264.846)" fill="#fafafa"/>
      <path id="Path_37798" data-name="Path 37798" d="M367.5,345.476a11,11,0,0,1-2.265,1.086,11.474,11.474,0,0,1-2.373.836,22.844,22.844,0,0,1,4.638-1.939Z" transform="translate(-258.77 -267.242)" fill="#fafafa"/>
      <path id="Path_37799" data-name="Path 37799" d="M364.067,363.364a32.289,32.289,0,0,1,.06-5.974,31.077,31.077,0,0,1-.06,5.974Z" transform="translate(-259.272 -272.692)" fill="#fafafa"/>
      <path id="Path_37800" data-name="Path 37800" d="M348.65,362.012a17.38,17.38,0,0,1,1.5-6.012c.076.027-.337,1.347-.75,3S348.731,362.029,348.65,362.012Z" transform="translate(-252.278 -272.057)" fill="#fafafa"/>
      <path id="Path_37801" data-name="Path 37801" d="M344.316,373.055c0,.081-1.347.212-3,.489a29.883,29.883,0,0,1-3,.5,11.07,11.07,0,0,1,2.949-.782A10.813,10.813,0,0,1,344.316,373.055Z" transform="translate(-247.559 -279.836)" fill="#fafafa"/>
      <path id="Path_37802" data-name="Path 37802" d="M332.2,366.247a11.22,11.22,0,0,1,1.629-1.874,10.7,10.7,0,0,1,1.814-1.673,11.219,11.219,0,0,1-1.629,1.874,10.932,10.932,0,0,1-1.814,1.673Z" transform="translate(-244.762 -275.118)" fill="#fafafa"/>
      <path id="Path_37803" data-name="Path 37803" d="M319.834,376.432a18.343,18.343,0,0,1-.733-2.124,19.221,19.221,0,0,1-.76-2.118A8.69,8.69,0,0,1,319.834,376.432Z" transform="translate(-238.43 -279.454)" fill="#fafafa"/>
      <path id="Path_37804" data-name="Path 37804" d="M334.509,384.228a30.04,30.04,0,0,1-5.339-2.368,15.311,15.311,0,0,1,2.716,1.054A15.858,15.858,0,0,1,334.509,384.228Z" transform="translate(-243.378 -283.872)" fill="#fafafa"/>
      <path id="Path_37805" data-name="Path 37805" d="M307.76,381.143a7.33,7.33,0,0,1,.511-1.988,7.561,7.561,0,0,1,.777-1.9,7.382,7.382,0,0,1-.511,1.988,7.924,7.924,0,0,1-.777,1.9Z" transform="translate(-233.596 -281.77)" fill="#fafafa"/>
      <path id="Path_37806" data-name="Path 37806" d="M322.5,387.394c0,.081-1.559-.168-3.481-.266s-3.481,0-3.487-.109a12.368,12.368,0,0,1,3.5-.174A12.215,12.215,0,0,1,322.5,387.394Z" transform="translate(-237.146 -286.125)" fill="#fafafa"/>
      <path id="Path_37807" data-name="Path 37807" d="M332.633,339.87a.767.767,0,0,1,0-.217,2.006,2.006,0,0,1,.092-.614,1.347,1.347,0,0,1,.587-.809,1.9,1.9,0,0,1,1.325-.217l-.109.065c.592-2.086,1.542-5.127,2.493-8.538.891-3.194,1.494-6.132,1.912-8.266.206-1.027.369-1.879.5-2.526a6.735,6.735,0,0,1,.212-.918,5.368,5.368,0,0,1-.1.94c-.087.6-.228,1.472-.413,2.542a83.562,83.562,0,0,1-1.836,8.3c-.95,3.416-1.933,6.447-2.585,8.516l-.027.081H334.6a1.743,1.743,0,0,0-1.211.163,1.3,1.3,0,0,0-.57.711A6.378,6.378,0,0,0,332.633,339.87Z" transform="translate(-244.957 -254.618)" fill="#263238"/>
      <path id="Path_37808" data-name="Path 37808" d="M346.329,364.393c-.043,0-.38-.717-1.086-1.814a18.743,18.743,0,0,0-7.387-6.713c-1.157-.581-1.923-.847-1.906-.9a2.65,2.65,0,0,1,.543.147,12.144,12.144,0,0,1,1.439.57,16.956,16.956,0,0,1,7.473,6.789,12.28,12.28,0,0,1,.7,1.38,1.813,1.813,0,0,1,.223.538Z" transform="translate(-246.476 -271.586)" fill="#263238"/>
      <g id="Group_8845" data-name="Group 8845" transform="translate(89.648 82.987)" opacity="0.2">
        <path id="Path_37809" data-name="Path 37809" d="M336.422,354.24a18.933,18.933,0,0,1,5.725,1.037,7.357,7.357,0,0,1,4.47,4.084,1.331,1.331,0,0,1-.1,1.407,1,1,0,0,1-1.026.168,2.677,2.677,0,0,1-.9-.619c-1.195-1.086-2.439-2.086-3.672-3.15a10.441,10.441,0,0,0-4.644-2.428" transform="translate(-336.27 -354.24)"/>
      </g>
      <path id="Path_37810" data-name="Path 37810" d="M317.027,344.67a2.471,2.471,0,0,1-.543.326,9.5,9.5,0,0,1-1.667.63,11.14,11.14,0,0,1-10.939-2.841,9.944,9.944,0,0,1-1.151-1.363,2.433,2.433,0,0,1-.337-.543c.043-.033.543.76,1.629,1.781a11.52,11.52,0,0,0,10.743,2.792C316.18,345.072,317,344.616,317.027,344.67Z" transform="translate(-231.143 -265.148)" fill="#263238"/>
      <g id="Group_8846" data-name="Group 8846" transform="translate(71.513 76.133)" opacity="0.2">
        <path id="Path_37811" data-name="Path 37811" d="M302.88,341.62a13.671,13.671,0,0,0,3.726,5.328,5.974,5.974,0,0,0,3.427,1.434c1.814.033,3.373-1.206,4.758-2.379-4.486.706-9.537-1.331-11.911-4.383" transform="translate(-302.88 -341.62)"/>
      </g>
      <path id="Path_37812" data-name="Path 37812" d="M339.185,285.68c-.087,0,0-1.868-.206-4.144s-.668-4.084-.587-4.106a4.369,4.369,0,0,1,.375,1.168,19.948,19.948,0,0,1,.489,2.911,20.352,20.352,0,0,1,.076,2.955,4.676,4.676,0,0,1-.147,1.217Z" transform="translate(-247.587 -236.16)" fill="#263238"/>
      <path id="Path_37813" data-name="Path 37813" d="M198.383,426.44a36.085,36.085,0,0,1-11.172.483c-4.942-.739-16.006.027-16,6.517,0,7.262,14.757,5.469,20.508,4.318s11.487-2.172,11.487-2.172Z" transform="translate(-171.21 -304.239)" fill="#f8951d"/>
      <path id="Path_37814" data-name="Path 37814" d="M195.876,439.266a12.569,12.569,0,0,1-.711-2.526,12.385,12.385,0,0,1-.435-2.591,12.566,12.566,0,0,1,.69,2.526A12.383,12.383,0,0,1,195.876,439.266Z" transform="translate(-181.956 -307.762)" fill="#263238"/>
      <path id="Path_37815" data-name="Path 37815" d="M199.947,439.355a24.408,24.408,0,0,1-.717-5.225,12.3,12.3,0,0,1,.5,2.591,12.7,12.7,0,0,1,.217,2.634Z" transform="translate(-184.012 -307.753)" fill="#263238"/>
      <path id="Path_37816" data-name="Path 37816" d="M203.652,438.512a9.624,9.624,0,0,1-.413-2.265,9.233,9.233,0,0,1-.136-2.3,19.008,19.008,0,0,1,.543,4.562Z" transform="translate(-185.772 -307.67)" fill="#263238"/>
      <path id="Path_37817" data-name="Path 37817" d="M208.911,437.615a5.306,5.306,0,0,1-.755-1.944,5.219,5.219,0,0,1-.217-2.08,15.444,15.444,0,0,1,.489,2.01A14.6,14.6,0,0,1,208.911,437.615Z" transform="translate(-187.979 -307.506)" fill="#263238"/>
      <path id="Path_37818" data-name="Path 37818" d="M211,432.236a2.476,2.476,0,0,1,.771-.054,6.626,6.626,0,0,1,2.069.407,2.448,2.448,0,0,1,.641.342.972.972,0,0,1,.4.722,1.086,1.086,0,0,1-1.336.972A2.759,2.759,0,0,1,212,433.54a4.807,4.807,0,0,1-.223-5.578.782.782,0,0,1,.435-.266.614.614,0,0,1,.494.158,1.325,1.325,0,0,1,.369.793,3.96,3.96,0,0,1-.076,1.472,4.052,4.052,0,0,1-1,1.863,2.908,2.908,0,0,1-.429.386.608.608,0,0,1-.174.1s.206-.185.543-.543a4.242,4.242,0,0,0,.885-1.836,3.835,3.835,0,0,0,.038-1.4,1.119,1.119,0,0,0-.3-.641.38.38,0,0,0-.57.1,4.6,4.6,0,0,0,.244,5.23,2.5,2.5,0,0,0,1.369,1.01.847.847,0,0,0,1.054-.706.75.75,0,0,0-.3-.543,2.125,2.125,0,0,0-.57-.326,7.2,7.2,0,0,0-2-.478C211.247,432.247,211,432.258,211,432.236Z" transform="translate(-189.386 -304.811)" fill="#263238"/>
      <path id="Path_37819" data-name="Path 37819" d="M203.383,434.716l-.147.049-.445.109-1.711.391c-1.488.326-3.65.788-6.333,1.3s-5.887,1.086-9.483,1.591a25.438,25.438,0,0,1-5.7.288,12.489,12.489,0,0,1-2.982-.57,8.445,8.445,0,0,1-1.434-.641,4.346,4.346,0,0,1-1.255-1.01h0a3.008,3.008,0,0,1-.511-.614,3.8,3.8,0,0,1-.3-3.177,5.084,5.084,0,0,1,1.89-2.477,9.777,9.777,0,0,1,2.688-1.331c.473-.136.929-.3,1.4-.4s.929-.217,1.39-.282a58.323,58.323,0,0,1,9.863-.288c1.4.027,2.667,0,3.775-.076a26.219,26.219,0,0,0,2.824-.359l1.021-.217.733-.206.451-.125a.593.593,0,0,1,.158-.033.954.954,0,0,1-.147.06l-.445.152-.728.234-1.016.244a25.314,25.314,0,0,1-2.841.407c-1.113.081-2.384.136-3.8.12a59.922,59.922,0,0,0-9.814.342c-.456.065-.907.19-1.369.288s-.907.266-1.374.4a9.473,9.473,0,0,0-2.612,1.3,4.817,4.817,0,0,0-1.787,2.341,3.547,3.547,0,0,0,.272,2.938,2.754,2.754,0,0,0,.462.543h0a4.279,4.279,0,0,0,1.168.929,8.055,8.055,0,0,0,1.38.619,12.139,12.139,0,0,0,2.917.543,25.729,25.729,0,0,0,5.643-.266c3.585-.473,6.794-1.043,9.478-1.532s4.85-.923,6.349-1.217l1.722-.337.445-.081a.5.5,0,0,1,.206.054Z" transform="translate(-171.969 -304.331)" fill="#263238"/>
      <path id="Path_37820" data-name="Path 37820" d="M188.159,439.4a9.565,9.565,0,0,1-.147-1.51c-.065-.929-.174-2.216-.364-3.623s-.418-2.678-.6-3.6a9.054,9.054,0,0,1-.255-1.494,7.059,7.059,0,0,1,.451,1.45,33.015,33.015,0,0,1,.69,3.6,33.881,33.881,0,0,1,.282,3.65,7.39,7.39,0,0,1-.054,1.521Z" transform="translate(-178.328 -305.491)" fill="#263238"/>
      <path id="Path_37821" data-name="Path 37821" d="M217.89,426.755l3.742,9.369,2.9-.538-5.556-9.146Z" transform="translate(-192.537 -304.239)" opacity="0.4"/>
      <path id="Path_37822" data-name="Path 37822" d="M245.443,366.631c-.6.2-39.257-10.634-54.888-15.028a14.833,14.833,0,0,0-12.09,1.83l-.19.119a14.838,14.838,0,0,0-6.393,15.832h0a14.86,14.86,0,0,0,6.7,9.3c10.319,6.317,32.126,19.6,32.794,19.341.874-.337,28.118-1.043,28.118-1.043L206.719,373.4l15.593,10.08,23.132-16.837Z" transform="translate(-171.34 -269.794)" fill="#263238"/>
      <path id="Path_37823" data-name="Path 37823" d="M246.94,354.5l8.217-4.253,8.06,5.051,30.165.988,4.345,14.664L254.06,360.83s-7.946.706-8.543-1.086S246.94,354.5,246.94,354.5Z" transform="translate(-205.109 -269.43)" fill="#ffbe9d"/>
      <path id="Path_37824" data-name="Path 37824" d="M290.323,392.2l-4.063,13.35.505,4.068h0a20.872,20.872,0,0,0,27.526,1.852h0a20.449,20.449,0,0,0,7.995-16.294l-.06-13.937Z" transform="translate(-223.774 -283.589)" fill="#263238"/>
      <path id="Path_37825" data-name="Path 37825" d="M231.628,388.472c-.043.06-4.758-3.378-10.526-7.68s-10.412-7.843-10.363-7.9,4.758,3.373,10.531,7.674S231.677,388.406,231.628,388.472Z" transform="translate(-189.27 -279.773)" fill="#455a64"/>
      <path id="Path_37826" data-name="Path 37826" d="M255.505,355.15a32.542,32.542,0,0,1-4.019,1.439,33.675,33.675,0,0,1-4.106,1.168,32.132,32.132,0,0,1,4.019-1.439A33.347,33.347,0,0,1,255.505,355.15Z" transform="translate(-206.01 -271.669)" fill="#eb996e"/>
      <path id="Path_37827" data-name="Path 37827" d="M255.53,359.754a7.969,7.969,0,0,1-1.4.266c-.864.141-2.053.353-3.357.652s-2.466.63-3.308.88a8.837,8.837,0,0,1-1.374.375,6.164,6.164,0,0,1,1.309-.543,29.619,29.619,0,0,1,6.7-1.542A6.774,6.774,0,0,1,255.53,359.754Z" transform="translate(-205.421 -273.769)" fill="#eb996e"/>
      <path id="Path_37828" data-name="Path 37828" d="M254.538,364a37.047,37.047,0,0,1-4.524,1.043,38.283,38.283,0,0,1-4.584.766A76.718,76.718,0,0,1,254.538,364Z" transform="translate(-205.119 -275.712)" fill="#eb996e"/>
      <path id="Path_37829" data-name="Path 37829" d="M210.329,321.345l7.577,24.94a.728.728,0,0,0,.635.511l20.639,1.548a.722.722,0,0,1,.673.722v1.287a.722.722,0,0,1-.739.722L182.63,349.99a.722.722,0,0,1-.663-.467l-9.928-26.01a.722.722,0,0,1,.641-.983l36.884-1.722A.728.728,0,0,1,210.329,321.345Z" transform="translate(-171.566 -255.977)" fill="#455a64"/>
      <path id="Path_37830" data-name="Path 37830" d="M212.334,341.48a1.792,1.792,0,0,0-1.119,1.271,1.716,1.716,0,0,0,.733,1.553,1.858,1.858,0,0,0,2.064.076,1.716,1.716,0,0,0,.543-2.08,1.869,1.869,0,0,0-2.238-.82" transform="translate(-189.485 -265.369)" fill="#e0e0e0"/>
      <path id="Path_37831" data-name="Path 37831" d="M225.094,402.722l-5.974-9.82L263,358.506a17.63,17.63,0,0,1,9.586-3.927h0a17.635,17.635,0,0,1,19.172,19.009l-.7,8.391-29.1,9.38Z" transform="translate(-193.099 -271.375)" fill="#263238"/>
      <path id="Path_37832" data-name="Path 37832" d="M286.38,400.36a1.208,1.208,0,0,1-.114.109l-.358.293-1.4,1.119-1.016.8c-.369.293-.809.543-1.26.885l-1.456,1c-.261.174-.543.364-.8.543l-.874.543c-1.189.711-2.477,1.526-3.938,2.265-.722.38-1.461.793-2.238,1.179l-2.428,1.146a118.624,118.624,0,0,1-11.1,4.421c-8.017,2.765-15.425,4.752-20.731,6.36-1.331.391-2.531.76-3.585,1.086s-1.955.6-2.716.853l-1.695.543-.445.136a.776.776,0,0,1-.158.038l.147-.065.435-.163,1.684-.6c.728-.266,1.629-.543,2.683-.9s2.243-.728,3.568-1.13c5.3-1.662,12.7-3.677,20.7-6.436,4.008-1.363,7.74-2.884,11.08-4.388l2.422-1.135c.782-.38,1.521-.788,2.243-1.162,1.461-.728,2.748-1.532,3.943-2.227l.874-.516c.277-.174.543-.358.8-.543l1.515-.983c.451-.31.891-.576,1.265-.864l1.026-.782,1.428-1.086.38-.272Z" transform="translate(-198.106 -292.324)" fill="#455a64"/>
      <path id="Path_37833" data-name="Path 37833" d="M325.356,408.81a1.711,1.711,0,0,1-.44.234c-.293.13-.722.31-1.26.505a31.789,31.789,0,0,1-4.3,1.249,32.383,32.383,0,0,1-4.437.63c-.57.038-1.037.054-1.358.054a1.96,1.96,0,0,1-.5-.027,16.979,16.979,0,0,1,1.841-.228,43.931,43.931,0,0,0,4.394-.706c1.678-.364,3.21-.809,4.3-1.157A17.057,17.057,0,0,1,325.356,408.81Z" transform="translate(-236.018 -296.185)" fill="#455a64"/>
      <path id="Path_37834" data-name="Path 37834" d="M261.265,364.91c.049.065-9.342,7.446-20.975,16.484s-21.106,16.326-21.149,16.261,9.342-7.441,20.975-16.484S261.221,364.85,261.265,364.91Z" transform="translate(-193.108 -276.127)" fill="#455a64"/>
      <path id="Path_37835" data-name="Path 37835" d="M268.036,428.029c-2.1-1.119-4.464-.456-6.479.223-1.342.451-2.716,1.168-4.1.782a6.773,6.773,0,0,1-2.471-1.765,15.5,15.5,0,0,0-11.34-4.068,4.66,4.66,0,0,0-3.118,1.407c-2.069,2.243-.511,5.154,1.342,7.061a20.405,20.405,0,0,0,12.334,5.974,28.532,28.532,0,0,0,13.035-1.8,4.482,4.482,0,0,0,2.379-6.164A3.96,3.96,0,0,0,268.036,428.029Z" transform="translate(-202.432 -302.749)" fill="#f8951d"/>
      <g id="Group_8847" data-name="Group 8847" transform="translate(37.226 122.221)" opacity="0.4">
        <path id="Path_37836" data-name="Path 37836" d="M268.128,431.329c-2.107-1.119-4.47-.456-6.485.223-1.341.451-2.716,1.168-4.1.782a6.774,6.774,0,0,1-2.471-1.765,15.5,15.5,0,0,0-11.34-4.068,4.66,4.66,0,0,0-3.118,1.407,3.65,3.65,0,0,0-.869,1.575,8.207,8.207,0,0,0,2.211,3.672,20.405,20.405,0,0,0,12.334,5.974,28.532,28.532,0,0,0,13.035-1.8,4.763,4.763,0,0,0,2.775-3.308,4.019,4.019,0,0,0-1.993-2.667Z" transform="translate(-239.75 -426.477)"/>
      </g>
      <path id="Path_37837" data-name="Path 37837" d="M270.056,433.92a3.584,3.584,0,0,0-.516-1.249,4.107,4.107,0,0,0-1.124-1.086,4.54,4.54,0,0,0-1.939-.739c-1.559-.185-3.373.473-5.382,1.016a8.815,8.815,0,0,1-3.259.543,4.345,4.345,0,0,1-1.684-.587,10.356,10.356,0,0,1-1.445-1.086,15.093,15.093,0,0,0-5.757-3.422,14.724,14.724,0,0,0-2.862-.663,8.949,8.949,0,0,0-2.553,0,5.665,5.665,0,0,0-1.966.684,5.175,5.175,0,0,0-1.222.983c-.543.679-.744,1.141-.777,1.119a4.443,4.443,0,0,1,.7-1.189,4.888,4.888,0,0,1,1.206-1.086,5.583,5.583,0,0,1,2.026-.75,8.869,8.869,0,0,1,2.607,0,15.135,15.135,0,0,1,2.917.646,17.277,17.277,0,0,1,3.02,1.336,12.369,12.369,0,0,1,1.472.956c.473.369.912.771,1.369,1.162a10.318,10.318,0,0,0,1.407,1.086,4.111,4.111,0,0,0,1.57.543,8.294,8.294,0,0,0,3.166-.494c2-.543,3.845-1.179,5.48-.967a4.524,4.524,0,0,1,3.128,1.982,2.939,2.939,0,0,1,.391.951A1.48,1.48,0,0,1,270.056,433.92Z" transform="translate(-202.442 -304.181)" fill="#263238"/>
      <path id="Path_37838" data-name="Path 37838" d="M270.056,433.92a3.584,3.584,0,0,0-.516-1.249,4.107,4.107,0,0,0-1.124-1.086,4.54,4.54,0,0,0-1.939-.739c-1.559-.185-3.373.473-5.382,1.016a8.815,8.815,0,0,1-3.259.543,4.345,4.345,0,0,1-1.684-.587,10.356,10.356,0,0,1-1.445-1.086,15.093,15.093,0,0,0-5.757-3.422,14.724,14.724,0,0,0-2.862-.663,8.949,8.949,0,0,0-2.553,0,5.665,5.665,0,0,0-1.966.684,5.175,5.175,0,0,0-1.222.983c-.543.679-.744,1.141-.777,1.119a4.443,4.443,0,0,1,.7-1.189,4.888,4.888,0,0,1,1.206-1.086,5.583,5.583,0,0,1,2.026-.75,8.869,8.869,0,0,1,2.607,0,15.135,15.135,0,0,1,2.917.646,17.277,17.277,0,0,1,3.02,1.336,12.369,12.369,0,0,1,1.472.956c.473.369.912.771,1.369,1.162a10.318,10.318,0,0,0,1.407,1.086,4.111,4.111,0,0,0,1.57.543,8.294,8.294,0,0,0,3.166-.494c2-.543,3.845-1.179,5.48-.967a4.524,4.524,0,0,1,3.128,1.982,2.939,2.939,0,0,1,.391.951A1.48,1.48,0,0,1,270.056,433.92Z" transform="translate(-202.442 -304.181)" fill="#263238"/>
      <path id="Path_37839" data-name="Path 37839" d="M247.63,436.2a5.571,5.571,0,0,1,1.086-.744,29.637,29.637,0,0,1,2.786-1.488,30.808,30.808,0,0,1,2.927-1.2,5.722,5.722,0,0,1,1.26-.353,7.063,7.063,0,0,1-1.189.543c-.744.31-1.765.744-2.879,1.265s-2.1,1.032-2.808,1.407a6.566,6.566,0,0,1-1.184.57Z" transform="translate(-206.124 -306.967)" fill="#263238"/>
      <path id="Path_37840" data-name="Path 37840" d="M249,439.865a38.19,38.19,0,0,1,4.111-2.145,38.617,38.617,0,0,1,4.236-1.89,38.2,38.2,0,0,1-4.111,2.145A37.614,37.614,0,0,1,249,439.865Z" transform="translate(-206.75 -308.529)" fill="#263238"/>
      <path id="Path_37841" data-name="Path 37841" d="M256.676,439.707c-.043.065-2.287-1.271-5.008-2.987s-4.888-3.166-4.888-3.232,2.281,1.271,5.008,2.993S256.73,439.642,256.676,439.707Z" transform="translate(-205.736 -307.458)" fill="#263238"/>
      <path id="Path_37842" data-name="Path 37842" d="M261.122,436.607a7.16,7.16,0,0,1-1.086-.733c-.657-.478-1.57-1.135-2.591-1.841s-1.95-1.331-2.629-1.781a6.649,6.649,0,0,1-1.086-.771,6.161,6.161,0,0,1,1.179.6c.706.407,1.667,1.01,2.716,1.716s1.923,1.4,2.553,1.917a5.237,5.237,0,0,1,.945.891Z" transform="translate(-208.911 -306.542)" fill="#263238"/>
    </g>
  </g>
</svg>
