<svg xmlns="http://www.w3.org/2000/svg" width="250" height="242.984" viewBox="0 0 250 242.984"><g transform="translate(-130.144 -72.2)"><g transform="translate(250.77 93.175)"><path d="M614.112,120.3V332.212h-1.641l-16.557-.026h-.1l-31.964-.058h-.711l-10.207-.013L551,332.109h-.1l-27.745-.045-4.218-.019-.717-.006-13.85-.065V120.3Z" transform="translate(-494.557 -110.203)" fill="#455a64"/><path d="M558.436,142.648l-8.062-.078-8.088-.032-16.2-.058h-.581v.588l.1,25.84v.491h.472l16.311-.207,16.066-.278-16.3-.278-15.6-.194v.472l-.478-.478h.478l.1-24.761h-.581l.581-.575v.575l15.614-.052,8.088-.039,7.687-.071V143.1l.407.407h-.407l.071,5.975.1,6.415.239,13,.233-12.81.1-6.46.078-6.512v-.407Z" transform="translate(-502.041 -118.055)" fill="#37474f"/><path d="M628.282,149.573l.078-6.512v-.407h-.413l-8.088-.078-8.062-.039-16.189-.058H595v.588l.1,25.84v.491h.471l16.305-.207,16.066-.278-16.3-.278-15.588-.194v.472l-.485-.478h.485l.1-24.761h-.582l.582-.575v.575l15.607-.052,8.094-.039,7.687-.071V143.1l.4.407h-.4l.071,5.975.1,6.415.233,13,.239-12.81.1-6.46" transform="translate(-526.641 -118.055)" fill="#37474f"/><path d="M558.419,204.858l-32.377-.058h-.581v.575l.071,37.074q0,9.264.078,18.534l.11,18.54v.323h.31l16.253-.149,16.15-.168-16.253-.168-15.814-.142v.317l-.323-.323h.323l.11-18.224q.071-9.264.078-18.534l.071-36.492h-.581l.581-.581v.581L557.9,205.9v-.517l.517.517H557.9c0,5.975,0,11.951.065,17.933l.129,18.488.323,37.209.323-36.938L558.871,224c.052-6.2.039-12.41.064-18.618v-.517Z" transform="translate(-502.023 -140.117)" fill="#37474f"/><path d="M627.946,204.858l-32.371-.058H595v.575l.078,37.074q0,9.264.077,18.534l.11,18.54v.323h.317l16.253-.149,16.15-.168-16.253-.168-15.84-.142v.317l-.317-.323h.317l.11-18.224q.078-9.264.078-18.534l.078-36.492h-.582l.582-.581v.581l31.279-.065v-.517l.51.517h-.51c0,5.975,0,11.951.058,17.933l.136,18.488.317,37.209.329-36.938L628.4,224c.058-6.2.045-12.41.065-18.618v-.517Z" transform="translate(-526.641 -140.117)" fill="#37474f"/><path d="M558.419,341.965l-32.377-.065h-.581v.581l.071,37.074q0,9.264.078,18.534l.065,12.145v.232h.717v-.245l.065-12.138q.071-9.264.078-18.534l.071-36.5h-.581l.581-.575v.575l31.279-.065v-.51l.517.51h-.517c0,5.982,0,11.957.065,17.939l.162,18.508.265,30.743v.375h.1v-.375l.265-30.478.129-18.579c.052-6.208.039-12.416.064-18.624v-.53Z" transform="translate(-502.023 -188.651)" fill="#37474f"/><path d="M627.946,341.965l-32.371-.065H595v.581l.078,37.074q0,9.264.077,18.534l.065,12.054v.413h.711v-.413l.065-12.054q.078-9.263.078-18.534l.077-36.5h-.581l.581-.575v.575l31.279-.065v-.51l.51.51h-.51c0,5.982,0,11.957.058,17.939l.136,18.488.258,30.672v.523h.1v-.523l.271-30.407.123-18.579c.058-6.208.045-12.416.065-18.624v-.517Z" transform="translate(-526.641 -188.651)" fill="#37474f"/><path d="M618.553,104.67V326.66l-9.819.019V114.767H498.993V326.44l-9.813-.045V104.67Z" transform="translate(-489.18 -104.67)" fill="#37474f"/><rect width="9.955" height="27.248" transform="translate(105.691 139.406)" fill="#f8951d"/><path d="M662.3,325.558a4.012,4.012,0,1,1-4.012-4.128A4.07,4.07,0,0,1,662.3,325.558Z" transform="translate(-547.627 -181.404)" opacity="0.1"/></g><g transform="translate(294.246 72.2)"><rect width="42.416" height="15.465" transform="translate(0 0)" fill="#f8951d"/><path d="M567.51,85.584V77.489a.743.743,0,0,1,.756-.749h4.483a.762.762,0,0,1,.756.749.775.775,0,0,1-.756.769h-3.714v2.526h3.191a.762.762,0,1,1,0,1.525h-3.191v2.519h3.714a.762.762,0,0,1,0,1.525H568.3a.756.756,0,0,1-.795-.769Z" transform="translate(-560.385 -73.807)" fill="#fff"/><path d="M586.8,78.093l-2.584,3.54L586.8,85.2a.756.756,0,0,1-.607,1.2.776.776,0,0,1-.614-.317l-2.306-3.165-2.319,3.165a.768.768,0,0,1-.6.317.691.691,0,0,1-.439-.149.756.756,0,0,1-.181-1.047l2.584-3.566-2.584-3.54a.743.743,0,0,1,.181-1.04.711.711,0,0,1,1.04.161l2.319,3.159,2.306-3.159a.73.73,0,0,1,1.053-.162.743.743,0,0,1,.168,1.04Z" transform="translate(-564.664 -73.862)" fill="#fff"/><path d="M594.53,77.489a.743.743,0,0,1,.756-.749.762.762,0,0,1,.769.749v8.094a.762.762,0,0,1-.769.756.743.743,0,0,1-.756-.756Z" transform="translate(-569.95 -73.807)" fill="#fff"/><path d="M606.379,78.258H604.2v7.326a.743.743,0,0,1-.756.756.756.756,0,0,1-.756-.756V78.258h-2.164a.762.762,0,0,1-.756-.769.743.743,0,0,1,.756-.749h5.853a.749.749,0,0,1,.756.749A.775.775,0,0,1,606.379,78.258Z" transform="translate(-571.805 -73.807)" fill="#fff"/></g><g transform="translate(130.144 122.703)"><path d="M376.73,360.13S390.167,409.5,393.4,416.79h52.119c-9-23.553-18.521-54.367-18.792-56.512v-.149Z" transform="translate(-328.745 -224.632)" fill="#37474f"/><path d="M388,370.25c.329,4.005,14.91,46.641,16.15,50.09h.756s-15.833-47.158-16.686-50.09C388.194,370.127,388,370.127,388,370.25Z" transform="translate(-332.735 -228.182)" fill="#263238"/><path d="M419.495,360.123l-6.731,44.322-.239,1.505h0l-.594,4.005-.045.284-.161,1.072h0l-.827,5.459H393.4c-3.23-7.287-16.673-56.66-16.673-56.66Z" transform="translate(-328.745 -224.625)" fill="#263238"/><path d="M335.34,416.765h49.309c0-.213.032-.375.039-.517s.032-.329.032-.329c.271-.155.549-.3.827-.452,2.9-1.576,5.446-2.81,7.539-3.74l1.034-.465c.95-.407,1.8-.756,2.506-1.034,1.815-.717,2.823-1.04,2.823-1.04.065-.149.116-.3.168-.446,7.145-18.185,11.453-45.9,11.854-48.488a1.8,1.8,0,0,1,0-.194H341.057C336.864,373.174,330.553,389.169,335.34,416.765Z" transform="translate(-313.485 -224.607)" fill="#37474f"/><path d="M429.908,434.09a109.494,109.494,0,0,0-17.248,8.03.194.194,0,0,0,.155.355c5.814-2.494,11.738-4.884,17.4-7.694a.381.381,0,0,0-.31-.691Z" transform="translate(-341.426 -250.808)" fill="#263238"/><path d="M435.784,372.278c0-.2-.368-.245-.368,0,0,6.453-.325,12.931-.972,19.382-.274,3.028-2.677,19.565-7.871,18.364-.866-.207-1.292-1.059-1.447-2.371-.168-1.576.426-3.508.685-5.071.581-3.463,1.04-6.938,1.337-10.433a95.233,95.233,0,0,0-.207-19.567.168.168,0,1,0-.336,0,180.458,180.458,0,0,1-1.583,27.015c-.646,4.3-2.817,10.782,1.686,11.441s7.545-10.187,8.107-13.159A99.324,99.324,0,0,0,435.784,372.278Z" transform="translate(-345.454 -228.873)" fill="#263238"/><path d="M427.327,431.241a27.389,27.389,0,0,0-1.163,3.424,7.752,7.752,0,0,0-.484,2.823.194.194,0,0,0,.355.071,9.934,9.934,0,0,0,1.208-2.733c.394-1.059.814-2.112,1.176-3.185a.581.581,0,1,0-1.092-.4Z" transform="translate(-346.073 -249.671)" fill="#263238"/><path d="M380.363,379.529a9.479,9.479,0,0,0-.22-2.145.11.11,0,0,0-.213,0,8.531,8.531,0,0,0-.239,1.861c-.077.711-.168,1.421-.245,2.132a31.511,31.511,0,0,1-.762,4.322,15.361,15.361,0,0,1-3.96,7.106,20.7,20.7,0,0,1-6.705,4.419c-2.784,1.176-5.717,1.615-8.6,2.461a.11.11,0,0,0,.032.213,24.827,24.827,0,0,0,9.315-1.828,19.936,19.936,0,0,0,6.99-4.464,15.569,15.569,0,0,0,4.076-7.326,21.7,21.7,0,0,0,.556-4.335A19.065,19.065,0,0,0,380.363,379.529Z" transform="translate(-322.592 -230.71)" fill="#263238"/><path d="M345.309,418.755a52.211,52.211,0,0,1-2.771-13.2,85.363,85.363,0,0,1-.084-13.566c.239-2.248.407-4.522.795-6.731.187-1.111.323-2.229.549-3.333l.7-3.314c.123-.549.226-1.1.362-1.647l.439-1.634.9-3.23c.316-1.085.717-2.138,1.066-3.23s.736-2.132,1.118-3.185c-.484,2.2-1.092,4.36-1.57,6.55l-.7,3.346-.355,1.634c-.11.549-.187,1.1-.284,1.654l-.575,3.3c-.2,1.1-.3,2.216-.459,3.32-.342,2.209-.5,4.431-.711,6.654a111.263,111.263,0,0,0-.207,13.372c.065,1.111.116,2.229.226,3.34l.149,1.667.207,1.66A52.3,52.3,0,0,0,345.309,418.755Z" transform="translate(-316.53 -226.597)" fill="#263238"/><path d="M376.815,242.484c-14.212,18.618-40,25.478-59.509,11.447-4.49-3.23-8.9-7.513-10.982-12.661a19.955,19.955,0,0,1,.549-15.09c2.5-5.814,7.468-9.632,12.358-13.463,5.465-4.27,18.314-13.869,26.486-31.2,2.739-5.814,4.761-12,8.288-17.351,8.689-13.185,18.088-14.91,28.824-12.08,5.349,1.415,9.754,5.64,12.1,11.35C401.932,180.371,390.3,224.822,376.815,242.484Z" transform="translate(-303.385 -150.571)" fill="#263238"/><path d="M317.524,220.122a106.584,106.584,0,0,0,8.889-7.377A104.515,104.515,0,0,0,353.17,172.9h0a110.879,110.879,0,0,1-32.836,44.115c-6.234,4.994-13.8,9.186-16.014,17.442a18.669,18.669,0,0,0,6.46,19.322c.194.161.478-.1.284-.271-7-6.027-8.928-16.24-3.689-24.115C309.921,225.542,313.855,222.874,317.524,220.122Z" transform="translate(-302.899 -158.351)" fill="#263238"/><path d="M411.263,211.6a115.921,115.921,0,0,0,1.059-31.008c0-.065-.1-.065-.1,0a127.451,127.451,0,0,1-6.828,50.975c-5.517,15.368-15.123,29-30.82,35.013a49.025,49.025,0,0,1-23.9,2.771c-.194,0-.245.317-.045.349a47.584,47.584,0,0,0,39.406-11.848C402.723,246.226,408.5,228.1,411.263,211.6Z" transform="translate(-319.461 -161.058)" fill="#263238"/><path d="M341.242,192.58c5.659-8.094,8.32-17.8,14.541-25.53.058-.071-.032-.174-.1-.1-5.665,5.614-8.146,13.508-12.035,20.291a61.492,61.492,0,0,1-15.7,18.049c-5.814,4.522-12.778,7.474-18.088,12.59a24.276,24.276,0,0,0-7.345,19.231,28,28,0,0,0,9.922,19.057c.155.129.381-.078.233-.226-6.88-6.7-10.982-15.982-8.882-25.633,2.274-10.446,10.9-15.3,19.264-20.581a63,63,0,0,0,18.191-17.145Z" transform="translate(-302.45 -156.235)" fill="#263238"/><path d="M416.164,211.922a117.356,117.356,0,0,0-.226-28.521c0-.09-.155-.1-.142,0,2.345,19.742-.271,40.388-8.527,58.553-4.3,9.444-10.187,17.074-19.38,22.164-8.249,4.574-17.8,7.6-27.306,6.731a.149.149,0,0,0,0,.3c7.229.814,14.315-.775,21.008-3.482,6.835-2.765,13.417-6.654,18.256-12.313,4.987-5.814,8.236-13.178,10.833-20.349A104.17,104.17,0,0,0,416.164,211.922Z" transform="translate(-322.98 -162.044)" fill="#263238"/><path d="M419.227,260.008c3.74,12.39,19.38,52.739,31.725,56.589,8.081,2.526,54.735,6.37,59.935,2.881,3.54-2.377.995-33.869-3.534-33.314s-43.624.058-46.815-1.189-25.245-31.764-33.8-39.619C411.992,231.816,417.211,253.334,419.227,260.008Z" transform="translate(-342.883 -182.449)" fill="#f7a9a0"/><path d="M497.462,284.725v38.6s-42.571-1.454-51.68-8.056-24.283-41.247-30.065-60.258c-5.413-17.791,2.92-19.625,13.4-8.4S460.33,282.7,461.68,283.02,497.462,284.725,497.462,284.725Z" transform="translate(-341.945 -181.959)" fill="#f8951d"/><path d="M530.52,315.044a73.415,73.415,0,0,1,.472,7.539c.11,2.584.142,5.213.187,7.817s-.129,13.023-.174,15.627a.09.09,0,0,1-.181,0c-.116-2.584-.588-12.92-.646-15.5s-.077-5.11-.039-7.668a76.956,76.956,0,0,1,.252-7.817C530.423,315,530.514,315,530.52,315.044Z" transform="translate(-383.046 -208.66)" fill="#263238"/><path d="M485.8,322.679c-13.3-.93-33.966-3.043-39.987-7.409-9.1-6.6-24.289-41.247-30.071-60.258-3.5-11.5-1.253-16.331,3.6-15.278C429.226,252.7,468.606,301.438,485.8,322.679Z" transform="translate(-341.952 -181.961)" opacity="0.1"/><path d="M415.524,315.5l-2.041-22.3s5.956-9.1,5.09-19.851c-.646-7.829-23-35.213-24.438-36.557-5.775-5.388-17.074-1.783-20.207,2.132-15.136,18.96-21.318,41.189-28.8,76.531Z" transform="translate(-317.559 -180.005)" fill="#f8951d"/><path d="M418.337,321.047a64.094,64.094,0,0,1,9.58.142c1.583.168,3.146.4,4.709.646.782.136,1.563.239,2.345.342a9.971,9.971,0,0,0,2.481.1.058.058,0,1,1,0,.116,18.775,18.775,0,0,1-2.326.3,16.732,16.732,0,0,1-2.274-.09c-1.608-.149-3.23-.375-4.806-.543-3.23-.336-6.46-.646-9.722-.775a.136.136,0,0,1,.013-.239Z" transform="translate(-343.447 -210.755)" fill="#263238"/><path d="M406.945,326.15a70.4,70.4,0,0,1,7.752-1.537c1.292-.181,2.584-.284,3.934-.349.646-.032,1.26-.052,1.893-.065s1.389.065,2.08.039a.055.055,0,1,1,0,.11c-.646.045-1.292.194-1.938.278l-1.938.239c-1.292.161-2.584.336-3.915.484-2.616.3-5.22.646-7.829,1.014A.109.109,0,1,1,406.945,326.15Z" transform="translate(-339.406 -211.912)" fill="#263238"/><path d="M318.521,407.92l46.014,7.474c12.435,2.022,12.061-8.249,10.769-19.18s-3.133-27.468-14.244-29.27l-11.944-1.938-11.957-1.938c-11.118-1.809-18.088,13.3-22.784,23.256S306.079,405.9,318.521,407.92Z" transform="translate(-305.129 -225.62)" fill="#f8951d"/><g transform="translate(4.89 137.3)" opacity="0.2"><path d="M318.521,407.92l46.014,7.474c12.435,2.022,12.061-8.249,10.769-19.18s-3.133-27.468-14.244-29.27l-11.944-1.938-11.957-1.938c-11.118-1.809-18.088,13.3-22.784,23.256S306.079,405.9,318.521,407.92Z" transform="translate(-310.019 -362.92)"/></g><path d="M382.9,375.1a3.876,3.876,0,1,0,4.432-3.191A3.876,3.876,0,0,0,382.9,375.1Z" transform="translate(-330.911 -228.786)" opacity="0.1"/><path d="M343.532,368.711a3.876,3.876,0,1,0,4.431-3.2A3.876,3.876,0,0,0,343.532,368.711Z" transform="translate(-316.975 -226.52)" opacity="0.1"/><path d="M384.811,375.986a2.616,2.616,0,1,0,3-2.164A2.616,2.616,0,0,0,384.811,375.986Z" transform="translate(-331.594 -229.467)" fill="#263238"/><path d="M345.441,369.6a2.616,2.616,0,1,0,1.053-1.7A2.616,2.616,0,0,0,345.441,369.6Z" transform="translate(-317.657 -227.204)" fill="#263238"/><path d="M350.292,323.691,349,323.6c0-.4.058-.9.1-1.492,1.99-31.99,8.5-57.494,19.341-75.846a34.857,34.857,0,0,1,11.337-10.982l.646,1.124a33.962,33.962,0,0,0-10.866,10.543c-10.736,18.159-17.183,43.482-19.167,75.265C350.337,322.786,350.292,323.284,350.292,323.691Z" transform="translate(-318.929 -180.434)" fill="#263238"/><path d="M344.958,386.3l26.8,4.593-1.809,10.543-14.406,3.579-12.435-7.933Z" transform="translate(-316.844 -233.896)" opacity="0.1"/><path d="M389.108,328.491l-1.208-.446c.174-.472,17.481-47.158,20.342-61.712,2.817-14.264,3.663-22.494.478-27.888l1.111-.646c3.4,5.756,2.584,14.212-.317,28.8S389.257,328.02,389.108,328.491Z" transform="translate(-332.7 -181.326)" fill="#263238"/><rect width="28.921" height="51.673" transform="translate(101.279 75.737)" fill="#37474f"/><rect width="6.764" height="51.673" transform="translate(94.522 75.737)" fill="#263238"/><rect width="6.764" height="1.88" transform="translate(94.522 89.503)" fill="#37474f"/><rect width="6.764" height="4.335" transform="translate(101.279 98.844) rotate(180)" fill="#37474f"/><rect width="6.764" height="1.88" transform="translate(101.279 113.909) rotate(180)" fill="#37474f"/><rect width="28.921" height="1.88" transform="translate(101.279 89.503)" fill="#455a64"/><rect width="28.921" height="4.335" transform="translate(130.207 98.844) rotate(180)" fill="#455a64"/><rect width="28.921" height="1.88" transform="translate(130.207 113.909) rotate(180)" fill="#455a64"/><path d="M508.674,314.329l-29.516,5.052-7.248-51.059,29.516-5.052Z" transform="translate(-362.44 -190.343)" fill="#f8951d"/><path d="M468.478,323.325l6.9-1.176-7.248-51.059-6.9,1.182Z" transform="translate(-358.659 -193.111)" fill="#f8951d"/><path d="M468.478,323.325l6.9-1.176-7.248-51.059-6.9,1.182Z" transform="translate(-358.659 -193.111)" opacity="0.1"/><path d="M470.083,284.843l-6.906,1.182-.607-4.283,6.906-1.182Z" transform="translate(-359.133 -196.464)" fill="#263238"/><path d="M471.181,292.574l-6.906,1.182-.265-1.854,6.906-1.182Z" transform="translate(-359.643 -200.06)" fill="#263238"/><path d="M470.02,334.182l6.9-1.182.607,4.289-6.9,1.182Z" transform="translate(-361.771 -215.028)" fill="#263238"/><path d="M469.11,327.792l6.906-1.182.258,1.854-6.9,1.182Z" transform="translate(-361.448 -212.766)" fill="#263238"/><path d="M507.763,328.687l-17.448,2.985-1.2-8.417,17.448-2.984Z" transform="translate(-368.532 -210.521)" fill="#fff"/><rect width="32.416" height="51.673" transform="translate(128.03 75.737)" fill="#ebebeb"/><rect width="7.578" height="51.673" transform="translate(120.452 75.737)" fill="#dbdbdb"/><rect width="2.616" height="34.994" transform="translate(122.933 84.077)" fill="#263238"/><rect width="16.214" height="2.106" transform="translate(136.131 84.077)" fill="#fff"/><path d="M555.244,245.212c-8.152,11.04-16.647,23.844-18.734,37.687,0,.207.317.278.362.071a82.869,82.869,0,0,1,3.6-11.085c5.355-1.473,10.614-2.687,13.43-8,2.868-5.465,2.506-12.59,1.938-18.546C555.838,245.032,555.405,245.032,555.244,245.212Z" transform="translate(-385.308 -183.907)" fill="#f8951d"/><path d="M542.782,273.677a92.245,92.245,0,0,1,14.335-23.217c.045-.045.1,0,.071.065a97.986,97.986,0,0,0-9.787,15.381c2.7-2.739,5.652-5.168,8.211-8.094.052-.058.129,0,.084.078-2.539,3.049-5.31,6.357-8.617,8.611-.892,1.634-1.783,3.275-2.687,4.916.22-.123.452-.233.678-.349a.039.039,0,0,1,0,.065c-.252.123-.5.258-.762.368-.426.775-.853,1.557-1.292,2.332C542.95,274,542.7,273.851,542.782,273.677Z" transform="translate(-387.523 -185.802)" fill="#263238"/><path d="M546.981,279.706a47.652,47.652,0,0,0,6.253-4.173c.058-.045.136.032.078.078a33.045,33.045,0,0,1-6.24,4.251.09.09,0,0,1-.09-.155Z" transform="translate(-389.002 -194.679)" fill="#263238"/><path d="M534.749,269.316c0,.168.3.168.3,0,.039-4.554,0-9.134.071-13.714,1.169-2.358,3.676-3.663,5.413-5.549a24.343,24.343,0,0,0,3.23-4.522,32.511,32.511,0,0,0,3.766-12.571c.484-4.877-1.37-20.962-3.424-20.407-1.066.291-4.522,8.262-5.426,10.9a75.788,75.788,0,0,0-3.23,13.353C533.8,247.507,533.935,258.521,534.749,269.316Z" transform="translate(-384.478 -172.384)" fill="#f8951d"/><path d="M534.95,251.2h0c.245-5.769,1.544-11.589,2.765-17.183,1.292-6.027,2.842-11.7,5.943-17.074a.085.085,0,0,1,.149.084,63.745,63.745,0,0,0-4.774,13.107c.213-.323.465-.646.646-.937.084-.123.284,0,.2.116a8.463,8.463,0,0,1-.969,1.37h-.039c-1.066,4.3-1.835,8.708-2.487,13.107l.142-.174a.045.045,0,0,1,.071.052c-.084.149-.174.291-.265.439-.329,2.229-.646,4.457-.943,6.66a31.336,31.336,0,0,0,9.276-12.326h.039c-1.873,5.11-4.832,9.69-9.38,12.758l-.252,1.783c0,.123-.213.09-.213,0,0-.53,0-1.053.052-1.583a.116.116,0,0,1,.039-.2Z" transform="translate(-384.724 -173.929)" fill="#263238"/><path d="M537.909,249.411A91.563,91.563,0,0,0,546,235.476c0-.058.116,0,.1.039a45.847,45.847,0,0,1-8.036,14.012.1.1,0,1,1-.155-.116Z" transform="translate(-385.797 -180.495)" fill="#263238"/><path d="M544.151,230.1c1.292-2.229,2.584-4.393,3.773-6.66,0-.065.116,0,.09.052a34.713,34.713,0,0,1-3.663,6.718C544.268,230.321,544.08,230.25,544.151,230.1Z" transform="translate(-388.008 -176.232)" fill="#263238"/><path d="M543.4,235.25v.039S543.376,235.25,543.4,235.25Z" transform="translate(-387.743 -180.424)" fill="#263238"/><path d="M523.317,259.9a46.581,46.581,0,0,1-1.066,8.979c.045.323.1.646.142.982A43.134,43.134,0,0,0,524,259.9a.31.31,0,0,0,0-.31h0a66.829,66.829,0,0,0-1.008-13.566c-1.415-8.4-4.522-16.415-10.336-22.694a.413.413,0,0,0-.646.129c-2.358,5.995-1.537,13.146.471,19.128a34.951,34.951,0,0,0,4.632,9.083C519.131,254.457,521.69,256.841,523.317,259.9Z" transform="translate(-376.128 -176.168)" fill="#f8951d"/><path d="M514.776,227.648c5.536,8.986,9.386,19.638,9.858,30.252,0,.187-.31.239-.336.045-.129-.95-.278-1.9-.426-2.836h0a36.861,36.861,0,0,1-6.279-7.248.052.052,0,0,1,.077-.065,74.305,74.305,0,0,0,6.1,6.641q-.6-3.514-1.428-6.932c-.149-.168-.291-.342-.433-.51s.058-.278.161-.168l.136.149a81.577,81.577,0,0,0-2.894-9.193c-1.415-1.68-2.991-3.133-4.018-5.168a.045.045,0,0,1,.077-.045,38.288,38.288,0,0,0,2.584,3.4c.375.426.782.827,1.169,1.247a70.992,70.992,0,0,0-4.522-9.451C514.479,227.635,514.692,227.512,514.776,227.648Z" transform="translate(-377.541 -177.711)" fill="#263238"/><path d="M516.547,244.823c1.789,2.41,3.831,4.7,5.491,7.2.052.071-.058.142-.116.09a36.932,36.932,0,0,1-5.5-7.216C516.379,244.817,516.5,244.752,516.547,244.823Z" transform="translate(-378.194 -183.802)" fill="#263238"/><path d="M525.455,256.831l.077.078c.052.052,0,.136-.084.084l-.078-.078C525.319,256.863,525.4,256.779,525.455,256.831Z" transform="translate(-381.359 -188.058)" fill="#263238"/><path d="M501.459,254.136a27.591,27.591,0,0,0,5.814,13.708,14.613,14.613,0,0,0,4.742,3.7c2.048,1.014,4.2,2.183,6.324,3.017a41.613,41.613,0,0,1,2.235,7.952c.071-.233.136-.472.207-.7-1.363-11.705-8.941-21.705-18.624-28.127a.472.472,0,0,0-.7.459Z" transform="translate(-372.899 -186.926)" fill="#f8951d"/><path d="M506.626,259.694a.078.078,0,0,1,.1-.123,39.573,39.573,0,0,1,12.345,15.213c.071.155-.149.3-.239.136q-.646-1.182-1.376-2.306h0a13.406,13.406,0,0,1-5.95-3.45c-.045-.039,0-.1.065-.065a13.425,13.425,0,0,0,2.8,1.938c.9.459,1.867.743,2.81,1.111q-1.23-1.938-2.584-3.76a25.561,25.561,0,0,1-6.641-3.734c-.065-.045,0-.149.058-.1a67.7,67.7,0,0,0,6.182,3.3,54.986,54.986,0,0,0-4.367-5.084c-.749-.4-1.512-.8-2.242-1.221a.065.065,0,0,1,.052-.116,8,8,0,0,1,1.718.846C508.493,261.419,507.588,260.547,506.626,259.694Z" transform="translate(-374.72 -189.028)" fill="#263238"/><path d="M506.94,266a3.019,3.019,0,0,1,.375.265c0,.032,0,.078-.052.058a2.3,2.3,0,0,1-.388-.22C506.785,266.084,506.843,266,506.94,266Z" transform="translate(-374.802 -191.309)" fill="#263238"/><path d="M540.264,321.409H513.72l2.138-24.173.471-5.336h21.324l.472,5.336Z" transform="translate(-377.241 -200.478)" fill="#455a64"/><path d="M539.3,297.236H517.03l.472-5.336h21.324Z" transform="translate(-378.412 -200.478)" fill="#263238"/><rect width="23.857" height="5.278" transform="translate(137.823 87.695)" fill="#455a64"/><rect width="86.602" height="55.006" transform="translate(88.579 93.627) rotate(-0.07)" fill="#f8951d"/><rect width="86.602" height="55.006" transform="translate(88.579 93.627) rotate(-0.07)" opacity="0.2"/><rect width="29.49" height="55.013" transform="translate(118.114 148.632) rotate(179.94)" opacity="0.2"/><path d="M442.81,348.574q3.269-5.872,6.46-11.776l6.4-11.86,6.3-11.886q3.14-5.956,6.208-11.951-3.269,5.872-6.46,11.776l-6.382,11.841-6.3,11.893Q445.878,342.579,442.81,348.574Z" transform="translate(-352.138 -203.735)" fill="#f8951d"/><path d="M442.72,301.17q3.088,5.988,6.234,11.938l6.331,11.873L461.7,336.81q3.23,5.9,6.505,11.77-3.094-5.988-6.234-11.938l-6.331-11.88-6.415-11.828Q446.008,307.036,442.72,301.17Z" transform="translate(-352.106 -203.76)" fill="#f8951d"/><path d="M464.343,309.363h-1.15l-.93-1.176-.859,1.176h-1.079l-.795.006-.3-.42-.388.42h-1.518l-.136-.3-.291.3-.4-.53-.459.53h-.646l-.019-14.083,8.953-.006Z" transform="translate(-356.584 -201.675)" fill="#fff" opacity="0.7"/><path d="M542.425,374.439l-.006-3.786L485.3,363.69l.013,10.8Z" transform="translate(-367.18 -225.892)" opacity="0.1"/><path d="M549.742,307.657H492.617l-7.4-12.4h57.125Z" transform="translate(-367.151 -201.667)" fill="#f8951d"/><path d="M459.613,307.664H430.13l6.1-12.384h29.483Z" transform="translate(-347.649 -201.675)" fill="#f8951d"/><path d="M459.613,307.664H430.13l6.1-12.384h29.483Z" transform="translate(-347.649 -201.675)" opacity="0.2"/><path d="M382.879,251.438c-3.727,20.84-3.876,63.579,2.054,69.548,10.265,10.336,32.119,20.2,44.735,23.624,4.283,1.163,13.036-31.757,8.288-31.925-5.672-.207-30.568-12.41-31.008-13.566-.568-1.55-6.964-26.886-11.363-44.225C390.333,234.17,384.365,243.124,382.879,251.438Z" transform="translate(-329.991 -182.878)" fill="#f7a9a0"/><path d="M451.79,382.824c11.208,4.089,24.916,9.864,38.159,7.422a6.66,6.66,0,0,0,3.876-2.054c5.956-.988,7.274-4.1,7.274-4.1,5.265-2.616,6.182-5.982,6.182-5.982s6.977-1.234,6.932-5.575c-.039-4.871-9.832-2.184-16.15-4-14.412-4.16-33.734-14.1-37.771-15.711Z" transform="translate(-355.317 -222.048)" fill="#f7a9a0"/><path d="M495.21,386.823a94.793,94.793,0,0,0,12.823,2.926,96.619,96.619,0,0,0,14.406.284.116.116,0,1,1,0,.233,51.159,51.159,0,0,1-27.306-3.23C494.958,386.933,495.009,386.765,495.21,386.823Z" transform="translate(-370.623 -234.077)" fill="#263238"/><path d="M489.342,399.724c4.212.879,11.628,2.377,24.929.827.045,0,.065.065,0,.078a45.71,45.71,0,0,1-24.974-.73C489.038,399.846,489.038,399.666,489.342,399.724Z" transform="translate(-368.528 -238.644)" fill="#263238"/><path d="M486.321,406.717c7.216,1.221,11.925,1.079,19.58.523a.039.039,0,1,1,0,.078c-8.637,1.55-11.944,1.13-19.671-.355C485.978,406.9,486.024,406.672,486.321,406.717Z" transform="translate(-367.451 -241.122)" fill="#263238"/><path d="M485.658,360.453c-1.66-1.292-1-2.164,2.733-2.2s18.585,3.043,19.193-2.235-20.323-9.257-26.538-8.727-16.085,3.56-16.085,3.56C468.862,352.449,478.028,357.223,485.658,360.453Z" transform="translate(-359.979 -220.071)" fill="#f7a9a0"/><path d="M436.71,310.935l-12.642,35.53s-39.134-19.981-42.636-27.61c-4.7-10.207-3.676-46.557-.523-64.89s10.814-14.89,14.535,0,10.543,42.965,11.57,43.9S436.71,310.935,436.71,310.935Z" transform="translate(-329.274 -182.626)" fill="#f8951d"/><path d="M451.461,348.877c-.556,2.435-1.479,4.832-2.274,7.2s-1.738,4.91-2.636,7.358-4.8,12.112-5.775,14.522a.09.09,0,0,1-.168-.065c.827-2.474,4.1-12.274,4.987-14.671s1.764-4.806,2.713-7.177a76.919,76.919,0,0,1,3.043-7.2C451.377,348.8,451.474,348.806,451.461,348.877Z" transform="translate(-351.357 -220.627)" fill="#263238"/><path d="M447.064,324.2l.439-1.389v.065c-5.3-2.093-10.568-4.289-15.827-6.46l-7.849-3.4-3.9-1.751c-.646-.3-1.292-.581-1.938-.911l-.245-.129-.129-.065a1.028,1.028,0,0,1-.213-.174,2.531,2.531,0,0,1-.362-.562c-.168-.349-.3-.685-.433-1.027-.975-2.739-1.66-5.5-2.384-8.262s-1.363-5.543-1.938-8.327c-1.247-5.568-2.4-11.15-3.43-16.757l4.115,16.6,2.125,8.269c.736,2.745,1.46,5.517,2.429,8.146a8.764,8.764,0,0,0,.4.93,1.9,1.9,0,0,0,.213.342h0l.11.058.226.11c.614.3,1.292.607,1.938.9l3.876,1.764,7.8,3.482c5.168,2.364,10.388,4.7,15.543,7.106h.045v.045Z" transform="translate(-340.12 -194.513)" fill="#263238"/><path d="M410.7,276.87a8.812,8.812,0,0,1,.168,2.255,8.146,8.146,0,0,1-.388,2.222v-1.124l.039-1.111C410.583,278.369,410.616,277.6,410.7,276.87Z" transform="translate(-340.693 -195.157)" fill="#263238"/><path d="M379.581,276.67c-.155,4.419-.3,8.837-.375,13.256s-.155,8.831-.129,13.249.09,8.831.323,13.23c.116,2.2.271,4.4.523,6.583a35.2,35.2,0,0,0,1.215,6.408,8.4,8.4,0,0,0,.607,1.434c.116.22.284.433.426.646a7.449,7.449,0,0,0,.484.646,23.251,23.251,0,0,0,2.248,2.339,59.786,59.786,0,0,0,5.123,4.121c3.56,2.584,7.293,4.942,11.047,7.261s7.578,4.522,11.428,6.7,7.752,4.289,11.628,6.389c-3.992-1.893-7.933-3.908-11.847-5.963s-7.752-4.225-11.589-6.46-7.558-4.619-11.176-7.2a61.728,61.728,0,0,1-5.233-4.154,23.255,23.255,0,0,1-2.358-2.422,7,7,0,0,1-.53-.678,6.866,6.866,0,0,1-.478-.736,8.714,8.714,0,0,1-.646-1.615,35.42,35.42,0,0,1-1.221-6.6c-.239-2.209-.381-4.425-.485-6.634-.2-4.431-.245-8.857-.174-13.282Q378.548,289.9,379.581,276.67Z" transform="translate(-329.323 -195.087)" fill="#263238"/><path d="M378.861,278.41c.084.82.155,1.628.252,2.435.045.4.1.8.155,1.2s.129.8.181,1.214a7.427,7.427,0,0,1-.646-2.384,8.106,8.106,0,0,1,.058-2.468Z" transform="translate(-329.455 -195.702)" fill="#263238"/><path d="M563.482,306.81c2.526,4.671,8.559,10.336,9.238,14.212a4.522,4.522,0,0,1-2.261,4.91s4.005,1.744,4.031,5.368c0,1.867-2.952,3.534-2.952,3.534s3.146,1.538,2.978,4.768c-.142,2.584-3.094,3.876-3.094,3.876s2.332,2.881,1.35,5.459c-1.983,5.226-24.07,6.376-27.907-1.583-1.79-3.708,3.624-3.7,3.624-3.7s-7.752-1.893-8.133-6.46,6.673-4.108,6.673-4.108-7.519-1.938-7.41-6.654c.11-4.948,7.067-3.307,7.067-3.307s-5.084-3.068-4.167-6.686c1.512-5.975,11.2.93,15.988-.472l2.261-8.146Z" transform="translate(-386.409 -205.756)" fill="#f7a9a0"/><path d="M579.886,307.352c-2-4.632,3.54-10.769,2.261-15.5-1.731-6.363-8.643.323-9.767,9.755l.413,7.474Z" transform="translate(-398.007 -199.573)" fill="#f7a9a0"/><path d="M575.594,363.719a.058.058,0,0,1,.032.11,38.3,38.3,0,0,1-22.823-.168c-.233-.077-.207-.491.071-.452A79.7,79.7,0,0,0,575.594,363.719Z" transform="translate(-391.021 -225.721)" fill="#263238"/><path d="M575.421,349.156a.078.078,0,0,1,0,.155c-7.4,2.171-17.028,2.093-24.89-1.731-.265-.129-.381-.523-.058-.394C555.912,349.337,568.341,350.132,575.421,349.156Z" transform="translate(-390.182 -220.04)" fill="#263238"/><path d="M549.706,331.343c7.674,3.379,15.665,3.953,23.953,3.366.11,0,.11.142,0,.174-3.973,1.4-9.3,1.221-13.43.73a22.132,22.132,0,0,1-10.665-4C549.461,331.524,549.539,331.272,549.706,331.343Z" transform="translate(-389.913 -214.437)" fill="#263238"/><path d="M397.906,224.681c.4,1.4,6.77,9.619,13.243,9,2.106-.2,2.345-11.085,2.345-11.085l.155-.866,2.093-12.074-14.47-8.327-2.087-1.1s-.355,3.346-.756,7.513c0,.187-.039.381-.058.588s-.058.459-.071.646c-.071.646-.136,1.292-.194,1.893-.039.478-.084.95-.11,1.46s-.065,1-.1,1.512A82.2,82.2,0,0,0,397.906,224.681Z" transform="translate(-336.182 -168.026)" fill="#f7a9a0"/><path d="M415.754,209.666l-2.093,12.074-.149.866s0,1.421-.168,3.23c-8.081.917-15.31-7.2-15.594-7.526,0-1.408.071-2.926.155-4.438.039-.51.065-1.008.1-1.518s.071-.975.116-1.454c.052-.646.116-1.292.187-1.893a4.206,4.206,0,0,1,.077-.646c.032-.207.032-.4.052-.594.4-4.167.756-7.506.756-7.506l2.086,1.1Z" transform="translate(-336.187 -168.037)" fill="#263238"/><path d="M377.144,174.864c-2.952,21.318,9.47,25.485,14.07,26.118,4.173.575,18.45,2,23.592-18.889s-3.831-29-13.3-30.814S380.122,153.547,377.144,174.864Z" transform="translate(-328.733 -150.561)" fill="#f7a9a0"/><path d="M387.195,181.213a10.23,10.23,0,0,0,1.473-.207,2.442,2.442,0,0,0,1.46-.5.775.775,0,0,0,.065-.937,1.938,1.938,0,0,0-1.841-.568,2.8,2.8,0,0,0-1.809.866.814.814,0,0,0,.652,1.344Z" transform="translate(-332.149 -160.496)" fill="#263238"/><path d="M409.439,188.765c-.5-.1-.95-.265-1.434-.407a2.4,2.4,0,0,1-1.376-.691.756.756,0,0,1,.065-.93,1.88,1.88,0,0,1,1.893-.317,2.8,2.8,0,0,1,1.68,1.1.814.814,0,0,1-.827,1.24Z" transform="translate(-339.284 -163.093)" fill="#263238"/><path d="M405.662,193.642c0-.058.11.078.1.136-.181,1.46-.142,3.152,1.13,3.76.039,0,.032.09,0,.078C405.287,197.24,405.261,194.992,405.662,193.642Z" transform="translate(-338.911 -165.689)" fill="#263238"/><path d="M407.13,191.48c2.364.032,2.119,4.755-.071,4.722S405.192,191.448,407.13,191.48Z" transform="translate(-338.945 -164.929)" fill="#263238"/><path d="M409.276,191.923c.394.284.775.782,1.292.853s1.034-.381,1.434-.84c.039-.045.078,0,.078.058-.039.911-.433,1.815-1.408,1.9s-1.486-.756-1.667-1.68C408.953,192.046,409.114,191.807,409.276,191.923Z" transform="translate(-340.167 -165.075)" fill="#263238"/><path d="M391.256,191.752c0-.058-.116.071-.116.129.058,1.466-.129,3.152-1.447,3.643-.045,0-.039.09,0,.084C391.321,195.37,391.54,193.128,391.256,191.752Z" transform="translate(-333.323 -165.02)" fill="#263238"/><path d="M389.062,189.4c-2.358-.168-2.519,4.561-.329,4.716S391.039,189.54,389.062,189.4Z" transform="translate(-332.447 -164.19)" fill="#263238"/><path d="M387.113,189.611c-.42.252-.84.711-1.344.743s-.995-.472-1.357-.956c-.039-.052-.078,0-.084.052-.039.9.278,1.841,1.24,2.009s1.544-.646,1.8-1.531C387.416,189.779,387.281,189.508,387.113,189.611Z" transform="translate(-331.434 -164.184)" fill="#263238"/><path d="M401.419,211.3c-.355.342-.711.808-1.24.853a3.921,3.921,0,0,1-1.57-.381c-.045,0-.1.032-.065.071a1.977,1.977,0,0,0,1.854.814,1.557,1.557,0,0,0,1.156-1.292C401.555,211.277,401.419,211.245,401.419,211.3Z" transform="translate(-336.464 -171.935)" fill="#263238"/><path d="M398.331,197.849a11.415,11.415,0,0,1-5.775.381c-.161-.045-.265-.388-.271-.549h0c0-.052.491-2.991.491-2.991-.42.142-2.584.782-2.448.22.9-4.645,1.938-9.806,3.8-14.212a.131.131,0,0,1,.252.071c-.7,4.522-2.177,8.837-2.946,13.346a8.4,8.4,0,0,1,2.351-.388c.142.065-.581,3.275-.594,3.766a20.763,20.763,0,0,0,5.116-.065C399.022,197.293,399.2,197.494,398.331,197.849Z" transform="translate(-333.556 -161.078)" fill="#263238"/><path d="M414.691,184.6a8.857,8.857,0,0,1-4.709-7.377,23.212,23.212,0,0,1-9.154-7.894c.129.446,1.06,3.676,1.583,5.31-13.534-3.01-17.4-13.566-17.4-13.566a23.527,23.527,0,0,0-6.234,8.43s.187-8.359,4.677-13.811c5.491-6.673,23.314-7.92,31.227,1.292C423.205,166.93,414.691,184.6,414.691,184.6Z" transform="translate(-329.471 -150.379)" fill="#263238"/><path d="M395.329,176.676a25.238,25.238,0,0,0,6.906,2.8h0a21.37,21.37,0,0,1-9.78-6.415,20.412,20.412,0,0,1-2.8-4.212,14.064,14.064,0,0,1-1.634-5.258.11.11,0,0,0-.213,0,16.544,16.544,0,0,0,.9,5.407,15.006,15.006,0,0,0,2.875,4.612,17.443,17.443,0,0,0,3.76,3.049" transform="translate(-332.668 -155.028)" fill="#263238"/><path d="M429.286,198.281s5.032-6.46,7.991-4.638-1.072,11.37-4.709,12.513a3.63,3.63,0,0,1-4.767-2.2Z" transform="translate(-346.824 -165.58)" fill="#f7a9a0"/><path d="M437.1,198a.052.052,0,0,1,0,.1c-2.584.885-4,3.14-5.045,5.5a2.012,2.012,0,0,1,3.03-.394c.065.052,0,.155-.078.136a2.229,2.229,0,0,0-2.5.646,11.075,11.075,0,0,0-1.292,1.938c-.129.22-.523.078-.426-.174a.237.237,0,0,1,0-.058C430.921,202.522,433.66,198.168,437.1,198Z" transform="translate(-347.878 -167.237)" fill="#263238"/><path d="M433.076,212.9a1.182,1.182,0,1,1-1.26-1.085A1.182,1.182,0,0,1,433.076,212.9Z" transform="translate(-347.857 -172.128)" fill="#f8951d"/><path d="M411.908,235.65l-2.016,10.1-13.908-9.69-2.584,4.432s14.968,16.757,14.858,15.891l2.358-8.824,6.647,4.587-3.107-14.07Z" transform="translate(-334.647 -180.565)" fill="#ebebeb"/><path d="M416.475,246.444c-.588-2.306-1.118-4.645-1.815-6.919,0-.078-.161-.09-.161,0-.045,2.345,2.261,11.15,2.649,13.288h-.032c-.278-.2-6.111-3.986-6.143-3.876-.6,1.441-2.338,7.875-2.435,8.45-2.364-2.668-11.337-12.274-14.005-14.716-.078-.071-.194,0-.123.1,2.19,2.875,14.1,15.853,14.212,15.782a93.752,93.752,0,0,0,2.448-9.322c1.027.866,7.022,5.252,6.977,4.9A75.6,75.6,0,0,0,416.475,246.444Z" transform="translate(-334.996 -181.915)" fill="#263238"/></g><g transform="translate(220.221 89.171)"><path d="M485.989,120.662a19.826,19.826,0,0,1-33.127,12.545l-9.922,1.453,4.968-8.572a19.826,19.826,0,1,1,38.081-5.426Z" transform="translate(-442.262 -98.582)" fill="#fff"/><path d="M485.617,120.55a19.961,19.961,0,0,1-4,10.052,21.9,21.9,0,0,1-1.8,2.067,23.753,23.753,0,0,1-2.093,1.776,19.624,19.624,0,0,1-4.787,2.661,19.915,19.915,0,0,1-5.336,1.292,18.734,18.734,0,0,1-2.758.052,16.977,16.977,0,0,1-2.739-.284,20.026,20.026,0,0,1-9.813-4.845l.233.071-9.922,1.505-.717.11.362-.646,4.935-8.592v.336A20.034,20.034,0,0,1,463.1,98.658a19.982,19.982,0,0,1,22.519,21.893Zm0,0a19.653,19.653,0,0,0-30.672-18.23,20.387,20.387,0,0,0-5.937,6.46,19.574,19.574,0,0,0-1.118,17.028l.071.174-.1.161-4.994,8.559-.355-.523,9.929-1.389h.142l.1.09a19.451,19.451,0,0,0,9.5,4.89,17.062,17.062,0,0,0,2.687.329,19.016,19.016,0,0,0,2.713,0,19.379,19.379,0,0,0,5.3-1.163,18.579,18.579,0,0,0,4.78-2.584,18.133,18.133,0,0,0,3.876-3.8A19.936,19.936,0,0,0,485.617,120.55Z" transform="translate(-441.89 -98.47)" fill="#263238"/><path d="M463.99,131.376l1.092-6.2a.724.724,0,0,1,.685-.575h1.453a1.641,1.641,0,0,1,1.647,2,2.41,2.41,0,0,1-.607,1.189,1.893,1.893,0,0,1,.724,1.938,2.8,2.8,0,0,1-2.649,2.248h-1.9a.472.472,0,0,1-.446-.6Zm3.876-1.673a.892.892,0,0,0-.892-1.092h-1.292l-.388,2.177h1.292a1.35,1.35,0,0,0,1.227-1.085Zm-.807-3.941h-.891l-.3,1.686h.9a1.053,1.053,0,0,0,.988-.846.685.685,0,0,0-.743-.84Z" transform="translate(-449.707 -107.72)" fill="#263238"/><path d="M476.722,128.493l-.51,2.881a.723.723,0,0,1-.678.575.472.472,0,0,1-.484-.575l.517-2.881-1.654-2.972a.646.646,0,0,1,.265-.807.549.549,0,0,1,.8.123l1.376,2.481,2.248-2.461a.6.6,0,0,1,.827-.123.556.556,0,0,1,0,.807Z" transform="translate(-453.208 -107.718)" fill="#263238"/><path d="M482.922,131.386l1.092-6.2a.73.73,0,0,1,.685-.581h3.437a.478.478,0,0,1,.484.581.73.73,0,0,1-.678.588h-2.849l-.349,1.938H487.2a.465.465,0,0,1,.472.581.7.7,0,0,1-.685.575h-2.448l-.349,1.938h2.849a.478.478,0,0,1,.484.588.743.743,0,0,1-.685.581h-3.424a.478.478,0,0,1-.5-.594Z" transform="translate(-456.41 -107.724)" fill="#263238"/><path d="M493.6,131.11l-.045.233a.717.717,0,0,1-.678.575.478.478,0,0,1-.484-.575l.039-.233a.73.73,0,0,1,.685-.581.478.478,0,0,1,.484.581Zm1.047-5.956-.678,3.876a.743.743,0,0,1-.7.594.478.478,0,0,1-.472-.594l.685-3.876a.73.73,0,0,1,.685-.594.478.478,0,0,1,.478.594Z" transform="translate(-459.765 -107.706)" fill="#263238"/></g></g></svg>