<svg xmlns="http://www.w3.org/2000/svg" width="250" height="161.87" viewBox="0 0 250 161.87">
  <g id="new-juridications" transform="translate(-23.92 -107.535)">
    <g id="freepik--Character--inject-48" transform="translate(47.374 107.535)">
      <path id="Path_36405" data-name="Path 36405" d="M241.34,111.737c-4.5-1.373-9.2,2.657-13.818,1.75-2.814-.563-4.919-2.814-7.419-4.188a14.408,14.408,0,0,0-12.822-.484c-3.816,1.936-6.265,4-6.782,8.246-3.473-1.993-9.259,2.375-11.229,6.591s-1.48,8.567-.36,13.081a61.3,61.3,0,0,0,10.131,21.608c.422.563,1.092,1.2,1.734.906a1.565,1.565,0,0,0,.67-1.25c.659-4.126.135-8.342-.22-12.507s-.563-8.443.782-12.434,4.424-7.593,8.527-8.4a13.239,13.239,0,0,1,8.871,1.9c2.679,1.514,5.066,3.535,7.627,5.257a17.032,17.032,0,0,0,8.533,3.3c3.084.135,6.4-1.323,7.711-4.115s-.158-6.754-3.18-7.413a6.073,6.073,0,0,0,1.244-11.854Z" transform="translate(-119.07 -107.535)" fill="#263238"/>
      <path id="Path_36406" data-name="Path 36406" d="M233.092,188.741l-.439-8.938s11.781-2.251,11.51-14.1c-.129-5.719-1.356-17.449-2.589-28.1a22.075,22.075,0,0,0-22.706-19.52l-1.126.039c-12.293,1.126-18.18,12.237-16.689,24.49l2.814,47.714a14.634,14.634,0,0,0,15.383,13.745h0A14.634,14.634,0,0,0,233.092,188.741Z" transform="translate(-124.707 -112.138)" fill="#ffbe9d"/>
      <path id="Path_36407" data-name="Path 36407" d="M245.291,224.754A27.545,27.545,0,0,1,229.7,220.91s3.94,8.392,15.726,6.912Z" transform="translate(-137.329 -157.096)" fill="#eb996e"/>
      <path id="Path_36408" data-name="Path 36408" d="M261.78,168.226a1.689,1.689,0,0,1-1.576,1.762,1.621,1.621,0,0,1-1.8-1.463,1.689,1.689,0,0,1,1.57-1.762,1.627,1.627,0,0,1,1.8,1.463Z" transform="translate(-149.878 -133.421)" fill="#263238"/>
      <path id="Path_36409" data-name="Path 36409" d="M262.485,161.948c-.2.231-1.52-.675-3.338-.608s-3.118,1.03-3.327.811c-.1-.1.1-.5.664-.946a4.672,4.672,0,0,1,2.657-.917,4.43,4.43,0,0,1,2.662.76C262.378,161.452,262.58,161.846,262.485,161.948Z" transform="translate(-148.736 -130.593)" fill="#263238"/>
      <path id="Path_36410" data-name="Path 36410" d="M230.94,170.185a1.689,1.689,0,0,1-1.57,1.762,1.627,1.627,0,0,1-1.8-1.463,1.689,1.689,0,0,1,1.57-1.762,1.621,1.621,0,0,1,1.8,1.463Z" transform="translate(-136.396 -134.277)" fill="#263238"/>
      <path id="Path_36411" data-name="Path 36411" d="M232.109,163.638c-.2.225-1.514-.675-3.332-.608s-3.124,1.024-3.326.811c-.1-.1.1-.5.664-.946a4.649,4.649,0,0,1,2.651-.917,4.5,4.5,0,0,1,2.668.754C232.008,163.143,232.21,163.537,232.109,163.638Z" transform="translate(-135.46 -131.332)" fill="#263238"/>
      <path id="Path_36412" data-name="Path 36412" d="M248.8,176.739a12.6,12.6,0,0,1,2.933-.636c.467-.062.9-.174.968-.49a2.353,2.353,0,0,0-.36-1.368q-.709-1.689-1.5-3.49c-2.083-4.97-3.608-9.062-3.411-9.146s2.054,3.878,4.143,8.848q.749,1.841,1.441,3.512a2.713,2.713,0,0,1,.3,1.818,1.165,1.165,0,0,1-.743.7,3.157,3.157,0,0,1-.782.141A11.911,11.911,0,0,1,248.8,176.739Z" transform="translate(-145.075 -131.172)" fill="#263238"/>
      <path id="Path_36413" data-name="Path 36413" d="M231.126,157.171c-.174.5-1.993.281-4.126.563s-3.856.884-4.143.445c-.129-.214.169-.681.856-1.171a7.255,7.255,0,0,1,6.3-.765C230.8,156.552,231.2,156.934,231.126,157.171Z" transform="translate(-134.325 -128.653)" fill="#263238"/>
      <path id="Path_36414" data-name="Path 36414" d="M263.509,156.634c-.366.371-1.559-.2-3.056-.405s-2.814-.051-3.039-.518c-.1-.225.146-.608.749-.934a4.5,4.5,0,0,1,4.908.743C263.548,156,263.672,156.448,263.509,156.634Z" transform="translate(-149.434 -128.004)" fill="#263238"/>
      <path id="Path_36415" data-name="Path 36415" d="M197.477,176.968c-.2-.079-8.218-2.122-7.677,5.966s8.55,5.871,8.55,5.629S197.477,176.968,197.477,176.968Z" transform="translate(-119.875 -137.761)" fill="#ffbe9d"/>
      <path id="Path_36416" data-name="Path 36416" d="M197.282,187.784c-.034,0-.135.107-.366.231a1.39,1.39,0,0,1-1.047.1c-.878-.259-1.689-1.565-1.824-3.023a4.654,4.654,0,0,1,.259-2.043,1.621,1.621,0,0,1,.985-1.126.726.726,0,0,1,.861.326c.124.22.079.383.124.394s.163-.146.079-.473a.923.923,0,0,0-.355-.49,1.092,1.092,0,0,0-.794-.152,1.981,1.981,0,0,0-1.385,1.351,4.835,4.835,0,0,0-.338,2.291c.163,1.627,1.1,3.09,2.291,3.377a1.52,1.52,0,0,0,1.272-.3C197.282,187.975,197.316,187.8,197.282,187.784Z" transform="translate(-121.487 -139.87)" fill="#eb996e"/>
      <path id="Path_36417" data-name="Path 36417" d="M242.961,133.494a17.094,17.094,0,0,1-15.315-2.887c-2.966-2.341-5.308-5.775-8.961-6.754a9.647,9.647,0,0,0-7.317,1.266,18.529,18.529,0,0,0-5.392,5.319c2.493,5.938,1.193,12.709-.146,19.008a3.231,3.231,0,0,1-.872,1.9c-.934.771-2.387.242-3.253-.6a10.009,10.009,0,0,1-2.381-5.2,33.294,33.294,0,0,1-.383-13.132,22.706,22.706,0,0,1,5.831-11.662,21.5,21.5,0,0,1,14.865-6.191A26.4,26.4,0,0,1,235.12,119.5a15.414,15.414,0,0,1,5.173,5.55" transform="translate(-123.674 -110.606)" fill="#263238"/>
      <path id="Path_36418" data-name="Path 36418" d="M255.559,117.855a1.768,1.768,0,0,1-.045.7,3.31,3.31,0,0,1-1.075,1.689,5.161,5.161,0,0,1-2.989,1.126,8.442,8.442,0,0,1-2.015-.056,4.249,4.249,0,0,1-2.094-.884,2.859,2.859,0,0,1-1.092-2.251,2.51,2.51,0,0,1,1.649-2.128,3.056,3.056,0,0,1,1.447-.236,2.606,2.606,0,0,1,1.413.563,3.7,3.7,0,0,1,1.306,2.786,4.272,4.272,0,0,1-1.171,3.017,6.507,6.507,0,0,1-2.876,1.767,10.657,10.657,0,0,1-6.946-.512,30.507,30.507,0,0,1-6.113-3.377,38.837,38.837,0,0,0-5.55-3.276,12.04,12.04,0,0,0-5.629-1.159,11.477,11.477,0,0,0-4.8,1.413,14.37,14.37,0,0,0-5.2,5.066,18.942,18.942,0,0,0-.968,1.756,6.386,6.386,0,0,1-.315.625.473.473,0,0,1,.051-.169c.051-.113.1-.276.191-.49a15.2,15.2,0,0,1,.906-1.8,14.19,14.19,0,0,1,5.2-5.24,11.775,11.775,0,0,1,4.919-1.5,12.31,12.31,0,0,1,5.781,1.126,38.759,38.759,0,0,1,5.629,3.287,30.608,30.608,0,0,0,6.039,3.349,10.3,10.3,0,0,0,6.681.507,6.1,6.1,0,0,0,2.707-1.649,3.9,3.9,0,0,0,1.086-2.747,3.332,3.332,0,0,0-1.154-2.522,2.432,2.432,0,0,0-2.516-.3,2.178,2.178,0,0,0-1.463,1.829,2.583,2.583,0,0,0,.968,2.021,4.069,4.069,0,0,0,1.953.85,8.561,8.561,0,0,0,1.953.079,5.015,5.015,0,0,0,2.9-1.008,3.377,3.377,0,0,0,1.1-1.61A5.717,5.717,0,0,0,255.559,117.855Z" transform="translate(-129.81 -110.918)" fill="#455a64"/>
      <path id="Path_36419" data-name="Path 36419" d="M188.18,141.759a13,13,0,0,0,2.493.563,6.974,6.974,0,0,0,2.7-.377,11.82,11.82,0,0,0,2.983-1.565,9.473,9.473,0,0,0,3.439-4.953,19.79,19.79,0,0,0,.45-2.527,2.139,2.139,0,0,1,.068.7,8.151,8.151,0,0,1-.242,1.9,9.253,9.253,0,0,1-3.478,5.2,11.083,11.083,0,0,1-3.107,1.593,6.8,6.8,0,0,1-2.814.31,6.338,6.338,0,0,1-1.857-.5A1.919,1.919,0,0,1,188.18,141.759Z" transform="translate(-119.179 -118.623)" fill="#455a64"/>
      <path id="Path_36420" data-name="Path 36420" d="M189.17,152.062c0-.073.962.1,2.488-.039a11.111,11.111,0,0,0,9.237-6.557c.63-1.4.771-2.353.844-2.336a2.111,2.111,0,0,1-.062.675,9.276,9.276,0,0,1-.523,1.773,10.694,10.694,0,0,1-9.467,6.754,9.044,9.044,0,0,1-1.846-.09A2.082,2.082,0,0,1,189.17,152.062Z" transform="translate(-119.612 -123.095)" fill="#455a64"/>
      <path id="Path_36421" data-name="Path 36421" d="M226.845,178.7a.214.214,0,0,1-.248-.169.2.2,0,1,1,.388-.09.208.208,0,0,1-.141.259Z" transform="translate(-135.965 -138.446)" fill="#eb996e"/>
      <path id="Path_36422" data-name="Path 36422" d="M232.882,177.047a.259.259,0,1,1,.141-.293.236.236,0,0,1-.141.293Z" transform="translate(-138.558 -137.706)" fill="#eb996e"/>
      <path id="Path_36423" data-name="Path 36423" d="M237.128,176.676c-.113,0-.225-.113-.253-.293s.039-.338.146-.355.22.113.253.293S237.235,176.659,237.128,176.676Z" transform="translate(-140.462 -137.476)" fill="#eb996e"/>
      <path id="Path_36424" data-name="Path 36424" d="M230.058,182.619c-.113,0-.2-.051-.208-.124s.084-.129.2-.135.2.051.208.124S230.165,182.613,230.058,182.619Z" transform="translate(-137.394 -140.243)" fill="#eb996e"/>
      <path id="Path_36425" data-name="Path 36425" d="M235.614,180.958a.231.231,0,1,1,.169-.253A.22.22,0,0,1,235.614,180.958Z" transform="translate(-139.787 -139.432)" fill="#eb996e"/>
      <path id="Path_36426" data-name="Path 36426" d="M265.017,176.418a.639.639,0,1,1-.006.017Z" transform="translate(-152.67 -137.459)" fill="#eb996e"/>
      <path id="Path_36427" data-name="Path 36427" d="M269.2,175.831a.247.247,0,0,1-.236-.225.236.236,0,0,1,.169-.276.241.241,0,0,1,.231.225A.236.236,0,0,1,269.2,175.831Z" transform="translate(-154.491 -137.171)" fill="#eb996e"/>
      <path id="Path_36428" data-name="Path 36428" d="M261.3,176.734a.191.191,0,0,1-.236-.124.2.2,0,0,1,.388-.1.191.191,0,0,1-.152.22Z" transform="translate(-151.037 -137.635)" fill="#eb996e"/>
      <path id="Path_36429" data-name="Path 36429" d="M264.5,180.753a.22.22,0,0,1-.281-.124.214.214,0,0,1,.084-.293.231.231,0,0,1,.2.417Z" transform="translate(-152.406 -139.352)" fill="#eb996e"/>
      <path id="Path_36430" data-name="Path 36430" d="M268.2,179.979a.169.169,0,1,1,.175-.038A.169.169,0,0,1,268.2,179.979Z" transform="translate(-154.093 -139.056)" fill="#eb996e"/>
      <path id="Path_36431" data-name="Path 36431" d="M245.808,198.811a8.27,8.27,0,0,1-.642,2.28,2.814,2.814,0,0,1-1.722,1.525,2.493,2.493,0,0,1-2.313-.715,4,4,0,0,1-1.058-2.251c-.118-.754.045-1.689.771-1.947a1.835,1.835,0,0,1,.94,0l4.227.8" transform="translate(-141.848 -146.924)" fill="#eb996e"/>
      <path id="Path_36432" data-name="Path 36432" d="M244.534,202.086a5.8,5.8,0,0,1-2.139.158,3,3,0,0,1-1.863-1.126,3.2,3.2,0,0,1-.563-2.544,2.928,2.928,0,0,1,.225-.647c.118-.2.1-.18.27-.191a3.745,3.745,0,0,1,.67.118l.7.135c.9.169,1.689.31,2.4.422a7.34,7.34,0,0,0,2.251.214,7.491,7.491,0,0,0-2.15-.7c-.675-.174-1.48-.371-2.381-.563l-.687-.158c-.248-.045-.439-.113-.771-.152a.968.968,0,0,0-.563.135,1.125,1.125,0,0,0-.36.428,3.276,3.276,0,0,0-.287.827,3.732,3.732,0,0,0,.743,3.1,3.417,3.417,0,0,0,2.308,1.2,3.259,3.259,0,0,0,1.689-.276C244.4,202.283,244.557,202.114,244.534,202.086Z" transform="translate(-141.486 -146.664)" fill="#263238"/>
      <path id="Path_36433" data-name="Path 36433" d="M193.186,237.773l1.689-4.537,14.556,15.693,15.147-16.6,4.058,5.589s4.469,21.828,4.064,22.239-21.642,13.509-21.642,13.509l-17.629-.619L181.54,250.4Z" transform="translate(-116.276 -162.088)" fill="#ebebeb"/>
      <path id="Path_36434" data-name="Path 36434" d="M86.513,320.743l-.163-30.394s17.691-26.561,20.995-29.865c4.672-4.672,7.824-7.914,9.929-9.569a3.462,3.462,0,0,1,4.255,0h0l30.327-10.548s-4.638,7.627,2.37,17.117a158.946,158.946,0,0,1,12.056,19.346s7.171-11.73,9.946-14.072,12.344-18.051,10.131-22.717l25.149,10.914s1.21-1.818,2.73-1.064,12.889,5.471,17.291,13.813,26.454,40.43,26.454,40.43l-24.045,21.1Z" transform="translate(-74.665 -165.458)" fill="#f8951d"/>
      <path id="Path_36435" data-name="Path 36435" d="M161.96,288.2a1.926,1.926,0,0,1-.22-.2l-.563-.619a12.008,12.008,0,0,1-.872-1.008c-.31-.411-.72-.85-1.1-1.385s-.827-1.126-1.244-1.745-.867-1.34-1.317-2.088a40.459,40.459,0,0,1-2.471-5.066,38.684,38.684,0,0,1-1.689-5.392c-.18-.85-.355-1.655-.456-2.42s-.2-1.48-.27-2.133-.084-1.244-.118-1.762-.034-.968-.028-1.334,0-.619,0-.844a1.5,1.5,0,0,1,0-.293,1.019,1.019,0,0,1,.034.293c0,.225.028.5.045.839a12.616,12.616,0,0,0,.073,1.328c.073.518.068,1.126.163,1.756s.158,1.356.3,2.111.293,1.553.478,2.4a41.43,41.43,0,0,0,1.689,5.342,43.009,43.009,0,0,0,2.437,5.066c.439.743.85,1.452,1.283,2.088s.827,1.227,1.2,1.756.749.991,1.064,1.407.6.76.833,1.036l.529.653A1.541,1.541,0,0,1,161.96,288.2Z" transform="translate(-103.191 -175.018)" fill="#263238"/>
      <path id="Path_36436" data-name="Path 36436" d="M146.649,287.308a5.568,5.568,0,0,1,.068-1.565,14.6,14.6,0,0,1,.979-3.642,14.792,14.792,0,0,1,1.886-3.276,5.539,5.539,0,0,1,1.058-1.126c.034.034-.349.484-.889,1.272a17.37,17.37,0,0,0-2.814,6.827,13.6,13.6,0,0,1-.287,1.508Z" transform="translate(-101.012 -181.921)" fill="#263238"/>
      <path id="Path_36437" data-name="Path 36437" d="M137.324,308.451a2.532,2.532,0,0,1-.152-.45c-.084-.3-.22-.743-.366-1.311-.3-1.126-.7-2.814-1.092-4.891a78.733,78.733,0,0,1-1.323-16.452,42.778,42.778,0,0,1,1-9.051,18.541,18.541,0,0,1,3.068-6.754,13.013,13.013,0,0,1,3.681-3.377,9.393,9.393,0,0,1,1.21-.625,3.647,3.647,0,0,1,.445-.169,2.774,2.774,0,0,1-.422.225,11.286,11.286,0,0,0-1.176.67,13.379,13.379,0,0,0-3.569,3.417,18.473,18.473,0,0,0-2.972,6.7,43.6,43.6,0,0,0-.974,9.006,83.372,83.372,0,0,0,1.233,16.362c.366,2.077.737,3.743,1,4.9.129.563.236,1,.31,1.323A3.549,3.549,0,0,1,137.324,308.451Z" transform="translate(-95.655 -176.531)" fill="#263238"/>
      <path id="Path_36438" data-name="Path 36438" d="M150.755,311.262a2.955,2.955,0,0,1-.141-.67,14.981,14.981,0,0,1-.163-1.857,19.39,19.39,0,0,1,.1-2.769,21.952,21.952,0,0,1,.642-3.338,22.194,22.194,0,0,1,1.2-3.18,18.661,18.661,0,0,1,1.362-2.409,14.079,14.079,0,0,1,1.126-1.5,2.983,2.983,0,0,1,.467-.5c.045.034-.563.782-1.407,2.105a22.23,22.23,0,0,0-1.295,2.42,23.37,23.37,0,0,0-1.154,3.141,23.794,23.794,0,0,0-.664,3.287,21.623,21.623,0,0,0-.158,2.735C150.648,310.294,150.794,311.256,150.755,311.262Z" transform="translate(-102.681 -189.501)" fill="#263238"/>
      <path id="Path_36439" data-name="Path 36439" d="M156.513,321.756a3.527,3.527,0,0,1-.1-.771c-.045-.5-.084-1.216-.113-2.105a57.518,57.518,0,0,1,1.311-13.829c.191-.867.366-1.565.5-2.043a4.138,4.138,0,0,1,.236-.737,3.94,3.94,0,0,1-.124.76c-.113.563-.248,1.238-.411,2.066-.338,1.739-.732,4.165-.985,6.861s-.321,5.145-.321,6.918v2.105a4.729,4.729,0,0,1,0,.777Z" transform="translate(-105.236 -192.661)" fill="#263238"/>
      <path id="Path_36440" data-name="Path 36440" d="M199.458,301.776c0,.079-7.717.146-17.24.146S165,301.838,165,301.776s7.717-.146,17.235-.146S199.458,301.7,199.458,301.776Z" transform="translate(-109.046 -192.381)" fill="#263238"/>
      <path id="Path_36441" data-name="Path 36441" d="M175.576,350.818c-.079,0-.073-10.177,0-22.734s.231-22.734.31-22.734.073,10.177,0,22.734S175.66,350.818,175.576,350.818Z" transform="translate(-113.644 -194.008)" fill="#263238"/>
      <path id="Path_36442" data-name="Path 36442" d="M194.24,350.844v-.484c0-.315.034-.8.056-1.385.062-1.233.146-2.966.253-5.1.248-4.323.563-10.25.951-16.8s.771-12.479,1.041-16.8c.146-2.128.265-3.856.349-5.066.045-.563.079-1.041.107-1.385a2.934,2.934,0,0,1,.056-.478,2.65,2.65,0,0,1,0,.484q0,.512-.051,1.385c-.062,1.233-.152,2.966-.259,5.094-.242,4.323-.563,10.255-.951,16.807s-.771,12.473-1.036,16.8c-.146,2.128-.265,3.856-.349,5.066-.045.563-.079,1.041-.107,1.385A2.493,2.493,0,0,1,194.24,350.844Z" transform="translate(-121.828 -193.133)" fill="#263238"/>
      <path id="Path_36443" data-name="Path 36443" d="M220.456,348.387c-.079,0,.692-10.188,1.722-22.74s1.931-22.723,2.009-22.717-.692,10.188-1.722,22.74S220.535,348.392,220.456,348.387Z" transform="translate(-133.285 -192.95)" fill="#263238"/>
      <path id="Path_36444" data-name="Path 36444" d="M268.158,302.186c0,.079-8.2.146-18.321.146s-18.327-.068-18.327-.146,8.2-.146,18.327-.146S268.158,302.1,268.158,302.186Z" transform="translate(-138.12 -192.561)" fill="#263238"/>
      <path id="Path_36445" data-name="Path 36445" d="M246.967,350.228a2.976,2.976,0,0,1-.051-.45c0-.321-.051-.754-.09-1.295-.079-1.126-.158-2.764-.214-4.784-.118-4.036-.09-9.631.321-15.76s1.126-11.7,1.807-15.687c.332-1.993.625-3.6.856-4.711.107-.529.2-.957.265-1.272a2.06,2.06,0,0,1,.113-.439,2.668,2.668,0,0,1-.056.45c-.051.321-.124.749-.208,1.283-.2,1.126-.462,2.724-.76,4.722-.608,3.991-1.306,9.524-1.722,15.67s-.473,11.724-.405,15.76c.028,2.021.073,3.653.118,4.784a11.906,11.906,0,0,0,.039,1.3A2.814,2.814,0,0,1,246.967,350.228Z" transform="translate(-144.695 -194.217)" fill="#263238"/>
      <path id="Path_36446" data-name="Path 36446" d="M271.41,356.175a.5.5,0,0,1,0-.129,1.973,1.973,0,0,0-.028-.383c0-.36-.045-.844-.079-1.463-.062-1.272-.129-3.107-.18-5.387-.1-4.548-.1-10.835.191-17.775s.839-13.2,1.3-17.708c.242-2.251.462-4.086.636-5.347q.129-.917.2-1.452a1.947,1.947,0,0,1,.062-.377c.017-.1,0-.124.028-.124a.383.383,0,0,1,0,.129,1.629,1.629,0,0,1-.034.377c-.034.36-.084.844-.146,1.458-.135,1.266-.326,3.1-.563,5.358-.433,4.5-.934,10.79-1.233,17.724s-.31,13.21-.259,17.713c.028,2.251.056,4.115.09,5.387v1.841A.619.619,0,0,1,271.41,356.175Z" transform="translate(-155.409 -194.305)" fill="#263238"/>
      <path id="Path_36447" data-name="Path 36447" d="M295.8,284.465a5.438,5.438,0,0,1,.332-.906c.253-.619.563-1.435.985-2.426.822-2.054,1.9-4.919,3.011-8.105s2.094-6.039,2.814-8.178c.371-1.041.681-1.886.9-2.46a7.106,7.106,0,0,1,.372-.889,5.381,5.381,0,0,1-.259.923l-.816,2.493c-.692,2.105-1.638,5.015-2.752,8.206s-2.251,6.051-3.1,8.088c-.439,1.019-.8,1.835-1.069,2.392a6.387,6.387,0,0,1-.422.861Z" transform="translate(-166.224 -174.839)" fill="#263238"/>
      <path id="Path_36448" data-name="Path 36448" d="M296.073,321.06a3.04,3.04,0,0,1-.338-.681c-.2-.439-.462-1.1-.76-1.914a36.9,36.9,0,0,1-1.689-6.58,32.545,32.545,0,0,1-.36-6.788c.051-.872.124-1.576.2-2.054a3.378,3.378,0,0,1,.135-.743,3.5,3.5,0,0,1,0,.754c-.039.484-.079,1.182-.1,2.049a36.943,36.943,0,0,0,.445,6.754,43.009,43.009,0,0,0,1.6,6.54c.27.822.507,1.486.67,1.942a4.308,4.308,0,0,1,.2.72Z" transform="translate(-164.949 -192.674)" fill="#263238"/>
      <path id="Path_36449" data-name="Path 36449" d="M303.245,334.5a2.2,2.2,0,0,1-.124-.315c-.084-.236-.186-.535-.315-.906-.253-.794-.6-1.947-1.008-3.377-.8-2.871-1.812-6.867-2.786-11.313s-1.689-8.5-2.071-11.465c-.186-1.48-.287-2.685-.326-3.518v-.962a2.132,2.132,0,0,1,0-.332,1.2,1.2,0,0,1,.045.332c0,.248.039.563.068.957.073.827.2,2.026.417,3.5.422,2.949,1.193,6.991,2.156,11.432s1.947,8.443,2.7,11.319c.377,1.407.692,2.567.917,3.377.1.377.191.681.259.923a1.2,1.2,0,0,1,.068.355Z" transform="translate(-166.577 -192.679)" fill="#263238"/>
      <path id="Path_36450" data-name="Path 36450" d="M312.414,279.726c-.051,0-.208-.405-.6-1.019a10.132,10.132,0,0,0-1.824-2.139,10.4,10.4,0,0,0-2.319-1.593,11.4,11.4,0,0,1-1.075-.5,3.169,3.169,0,0,1,1.159.3,8.557,8.557,0,0,1,2.443,1.565,8.386,8.386,0,0,1,1.807,2.251A2.843,2.843,0,0,1,312.414,279.726Z" transform="translate(-170.945 -180.513)" fill="#263238"/>
      <path id="Path_36451" data-name="Path 36451" d="M314.581,272.986c-.045,0-.242-.377-.675-.934a9.322,9.322,0,0,0-2.015-1.869,13.93,13.93,0,0,0-3.54-1.655,3.016,3.016,0,0,1,1.159.18,8.944,8.944,0,0,1,2.544,1.233,7.88,7.88,0,0,1,2.021,1.987A2.78,2.78,0,0,1,314.581,272.986Z" transform="translate(-171.71 -177.91)" fill="#263238"/>
      <path id="Path_36452" data-name="Path 36452" d="M80.641,326.64a14.37,14.37,0,0,0-5.15,3.439c-3.017,3.405-8.7,13.441-8.7,13.441s-1.689,19.818-1.058,19.661,30.181,0,30.181,0h35.82s-7.739-17.269-21.057-20.449l-9.439-1.857s-.8-4.081-1.874-4.238S80.641,326.64,80.641,326.64Z" transform="translate(-65.59 -203.314)" fill="#f8951d"/>
      <path id="Path_36453" data-name="Path 36453" d="M313.009,346.464a3.94,3.94,0,0,1,3.135-1.61c2.06,0,9.692-.732,9.692-.732s5.629-4.418,8.409-5.3a5.4,5.4,0,0,1,3.1-4.413c2.313-1.047,8.685-1.9,11.291-2.223a2.645,2.645,0,0,1,2.026.6c2.544,2.144,9.963,8.64,14.072,14.719,4.317,6.405.563,16.914-2.814,18.1H311Z" transform="translate(-172.868 -205.729)" fill="#f8951d"/>
      <g id="Group_8756" data-name="Group 8756" transform="translate(18.839 125.431)" opacity="0.3">
        <path id="Path_36454" data-name="Path 36454" d="M99.06,330.38c4.582.259,8.73.687,12.535,3.248a24.553,24.553,0,0,0,3.636,2.437c1.34.585,2.814.7,4.216,1.176,2.448.85,4.334,2.814,6.118,4.666.563.563,4.5,3.85,4.182,4.1s-4.5-1.807-4.874-1.863l-5.7-.867c-1.424-.214-3.006-.523-3.844-1.689-.445-.619-.614-1.407-1.024-2.049a6.021,6.021,0,0,0-2.572-1.942c-4.61-2.347-8.06-4.874-12.67-7.216" transform="translate(-99.06 -330.38)"/>
      </g>
      <g id="Group_8757" data-name="Group 8757" transform="translate(142.865 125.996)" opacity="0.3">
        <path id="Path_36455" data-name="Path 36455" d="M319.41,344.536c.732-1.261,3.585-2.347,5.066-2.426a11.5,11.5,0,0,0,4.306-.563c1.919-.906,2.814-3.079,4.137-4.739a13.155,13.155,0,0,1,7.261-4.261c2.758-.681,8.1-2.308,12.118.141,0,0-5.353-.445-6.54-.315a24.206,24.206,0,0,0-3.535.884,7.235,7.235,0,0,0-4.942,5.775v.152a65.744,65.744,0,0,0-7.745,4.6c-.113.045-6.7.7-10.1.754" transform="translate(-319.41 -331.384)"/>
      </g>
      <g id="Group_8758" data-name="Group 8758" transform="translate(38.432 90.55)" opacity="0.3">
        <path id="Path_36456" data-name="Path 36456" d="M140.348,268.478A21.49,21.49,0,0,0,136.9,285.4c.5,2.251,1.356,4.4,1.818,6.659a9.984,9.984,0,0,1-.63,6.754,2.7,2.7,0,0,1-.991,1.126,1.266,1.266,0,0,1-1.413-.062,1.964,1.964,0,0,1-.507-1.238c-.833-5.3-1.689-10.694-1.126-16.008s2.584-10.734,6.659-14.223" transform="translate(-133.869 -268.41)"/>
      </g>
      <g id="Group_8759" data-name="Group 8759" transform="translate(135.79 94.006)" opacity="0.3">
        <path id="Path_36457" data-name="Path 36457" d="M306.84,274.55a14.581,14.581,0,0,1,3.574,6.529,31.3,31.3,0,0,0,1,5.533c.315.867.991,1.818,1.9,1.689s1.334-1.221,1.385-2.145a10.357,10.357,0,0,0-1.857-6.191,16.886,16.886,0,0,0-4.39-4.869" transform="translate(-306.84 -274.55)"/>
      </g>
      <g id="Group_8760" data-name="Group 8760" transform="translate(39.277 141.037)" opacity="0.3">
        <path id="Path_36458" data-name="Path 36458" d="M161.8,375.985a2.415,2.415,0,0,1,.259.957l-22.441-.056a5.2,5.2,0,0,1-3-.856,4.5,4.5,0,0,1-1.25-3.54,15.563,15.563,0,0,1,9.1-14.015s.754-1.126,2.814.563S161.8,375.985,161.8,375.985Z" transform="translate(-135.37 -358.107)"/>
      </g>
      <path id="Path_36459" data-name="Path 36459" d="M128.946,345.781a2.432,2.432,0,0,1-.332-.146l-.929-.456a17.331,17.331,0,0,0-3.552-1.323c-1.559-.383-3.467-.518-5.589-.816a12.86,12.86,0,0,1-1.6-.417,9.571,9.571,0,0,1-1.61-.642,3.462,3.462,0,0,1-1.075-1.48,8.118,8.118,0,0,0-.833-1.565h0l.034.028-10.835-6.36-3.27-1.953-.884-.563a1.556,1.556,0,0,1-.293-.208,1.574,1.574,0,0,1,.326.158l.906.5,3.315,1.874,10.886,6.293h0a7.822,7.822,0,0,1,.878,1.632,3.169,3.169,0,0,0,.957,1.357,9.676,9.676,0,0,0,1.548.625,14.344,14.344,0,0,0,1.565.417c2.088.31,4.019.467,5.589.878a16.322,16.322,0,0,1,3.552,1.418c.4.214.7.388.906.512A1.434,1.434,0,0,1,128.946,345.781Z" transform="translate(-79.836 -204.731)" fill="#263238"/>
      <path id="Path_36460" data-name="Path 36460" d="M126.252,314a4.978,4.978,0,0,1,0,.839v2.285c0,1.925.1,4.587.371,7.509s.687,5.555,1.03,7.452c.174.906.315,1.689.422,2.251a3.839,3.839,0,0,1,.129.827,5.065,5.065,0,0,1-.236-.8c-.141-.518-.321-1.278-.518-2.223a68.989,68.989,0,0,1-1.407-15c0-.968.056-1.75.1-2.285a4.5,4.5,0,0,1,.113-.85Z" transform="translate(-92.012 -197.789)" fill="#263238"/>
      <g id="Group_8761" data-name="Group 8761" transform="translate(138.132 141.81)" opacity="0.3">
        <path id="Path_36461" data-name="Path 36461" d="M318.244,377.7a9.569,9.569,0,0,0,1.154-1.947,9.457,9.457,0,0,0,.253-5.094,17.6,17.6,0,0,0-6.788-11.178L311,377.542Z" transform="translate(-311 -359.48)"/>
      </g>
      <path id="Path_36462" data-name="Path 36462" d="M111.9,330.7a2.707,2.707,0,0,1-.141-.642c-.073-.473-.169-1.058-.281-1.756a22.227,22.227,0,0,0-1.638-5.589,12.051,12.051,0,0,0-3.5-4.565,14.368,14.368,0,0,0-2.071-1.25,2.4,2.4,0,0,1,.63.2,8.129,8.129,0,0,1,1.565.878,11.55,11.55,0,0,1,3.642,4.615,19.767,19.767,0,0,1,1.576,5.679c.1.749.158,1.351.2,1.773A3.023,3.023,0,0,1,111.9,330.7Z" transform="translate(-82.498 -199.057)" fill="#263238"/>
      <path id="Path_36463" data-name="Path 36463" d="M340.8,342.913h-1.289a17.575,17.575,0,0,0-3.467.478,16.44,16.44,0,0,0-4.767,1.976c-.839.5-1.655,1.126-2.539,1.739a11.453,11.453,0,0,1-2.955,1.559,22.034,22.034,0,0,1-6.366.766,17.9,17.9,0,0,0-5.128.7,7.773,7.773,0,0,0-3.011,1.689c-.6.563-.833.979-.861.957a1.691,1.691,0,0,1,.169-.293,4.819,4.819,0,0,1,.613-.743,7.5,7.5,0,0,1,3.028-1.807,17.4,17.4,0,0,1,5.178-.771,22.633,22.633,0,0,0,6.287-.771c2.133-.709,3.737-2.251,5.443-3.253A16.423,16.423,0,0,1,336,343.188a16.033,16.033,0,0,1,3.512-.388,9.329,9.329,0,0,1,.957.045A1.127,1.127,0,0,1,340.8,342.913Z" transform="translate(-172.615 -210.378)" fill="#263238"/>
      <path id="Path_36464" data-name="Path 36464" d="M366.537,333.323a3.94,3.94,0,0,1-.732-.051c-.467-.045-1.126-.118-1.976-.186a18.575,18.575,0,0,0-6.456.433,9.355,9.355,0,0,0-5.19,3.63,8.77,8.77,0,0,0-1.064,2.46v-.191a3.635,3.635,0,0,1,.1-.535,6.253,6.253,0,0,1,.788-1.846,9.265,9.265,0,0,1,5.285-3.8,17.28,17.28,0,0,1,6.557-.355c.833.09,1.508.2,1.97.276a3.286,3.286,0,0,1,.72.163Z" transform="translate(-190.406 -205.973)" fill="#263238"/>
      <path id="Path_36465" data-name="Path 36465" d="M340.535,332.847a4.42,4.42,0,0,1-.31-.743l-.754-2.049c-.642-1.728-1.559-4.109-2.651-6.7s-2.161-4.908-2.955-6.574l-.94-1.976a4.337,4.337,0,0,1-.315-.737,4.433,4.433,0,0,1,.417.687c.253.45.608,1.126,1.024,1.936.844,1.644,1.942,3.94,3.039,6.546s1.981,5,2.572,6.754c.3.872.529,1.587.67,2.083A4.152,4.152,0,0,1,340.535,332.847Z" transform="translate(-182.315 -197.819)" fill="#263238"/>
      <path id="Path_36466" data-name="Path 36466" d="M205.24,233.93a1.87,1.87,0,0,1,.27.248l.732.737,2.651,2.764,8.674,9.191,2.1,2.251.231.248h-.338a11.646,11.646,0,0,0-9.113,4.3,12.384,12.384,0,0,0-1.627,2.629c-.3.659-.422,1.041-.445,1.036a1.456,1.456,0,0,1,.073-.287,7.152,7.152,0,0,1,.281-.788,11.3,11.3,0,0,1,1.565-2.707,11.566,11.566,0,0,1,3.585-3.045,11.736,11.736,0,0,1,5.679-1.452l-.1.242-2.105-2.251-8.612-9.253-2.584-2.814-.692-.777A2.09,2.09,0,0,1,205.24,233.93Z" transform="translate(-126.636 -162.787)" fill="#263238"/>
      <path id="Path_36467" data-name="Path 36467" d="M215.66,264.857l3.878,7.6H226.7l4.137-5.629s-2.814-4.2-4.047-4.88l-5.19-.377C221.418,261.3,216.69,263.151,215.66,264.857Z" transform="translate(-131.191 -174.858)" fill="#f8951d"/>
      <path id="Path_36468" data-name="Path 36468" d="M221.142,280.93l-1.812,4.542s4.964,9.726,5.229,9.287,6.191-9.659,6.191-9.659l-2.454-4.16Z" transform="translate(-132.796 -183.333)" fill="#f8951d"/>
      <g id="Group_8762" data-name="Group 8762" transform="translate(84.469 86.685)" opacity="0.3">
        <path id="Path_36469" data-name="Path 36469" d="M215.66,264.857l3.878,7.6H226.7l4.137-5.629s-2.814-4.2-4.047-4.88l-5.19-.377C221.418,261.3,216.69,263.151,215.66,264.857Z" transform="translate(-215.66 -261.543)"/>
      </g>
      <g id="Group_8763" data-name="Group 8763" transform="translate(86.534 97.597)" opacity="0.3">
        <path id="Path_36470" data-name="Path 36470" d="M221.142,280.93l-1.812,4.542s4.964,9.726,5.229,9.287,6.191-9.659,6.191-9.659l-2.454-4.16Z" transform="translate(-219.33 -280.93)"/>
      </g>
      <path id="Path_36471" data-name="Path 36471" d="M229.463,280.975a34.476,34.476,0,0,0-3.467-.49,33.642,33.642,0,0,0-3.5.186,2.994,2.994,0,0,1,1-.3,11.111,11.111,0,0,1,2.51-.18,10.927,10.927,0,0,1,2.482.4,3,3,0,0,1,.968.383Z" transform="translate(-134.181 -183.006)" fill="#263238"/>
      <path id="Path_36472" data-name="Path 36472" d="M230.284,265.088a2.928,2.928,0,0,1-.253.4,10.491,10.491,0,0,1-.816,1,15.76,15.76,0,0,1-7.143,4.469,10.429,10.429,0,0,1-1.25.3,1.649,1.649,0,0,1-.473.051c0-.051.642-.2,1.66-.563a18.36,18.36,0,0,0,7.058-4.413C229.834,265.6,230.284,265.037,230.284,265.088Z" transform="translate(-133.242 -176.406)" fill="#263238"/>
      <path id="Path_36473" data-name="Path 36473" d="M229.3,286.512a17.645,17.645,0,0,1,0-6.152,27.76,27.76,0,0,1,0,3.073,28.1,28.1,0,0,1,0,3.079Z" transform="translate(-137.036 -183.083)" fill="#263238"/>
      <path id="Path_36474" data-name="Path 36474" d="M231.245,288.165c-.084,0-.146-1.61-.31-3.58s-.349-3.574-.27-3.585a15.276,15.276,0,0,1,.563,3.557,15.507,15.507,0,0,1,.017,3.608Z" transform="translate(-137.743 -183.363)" fill="#263238"/>
      <path id="Path_36475" data-name="Path 36475" d="M245.874,232.329s0,.034-.062.09l-.214.248-.827.94-3.135,3.5-10.8,11.927-.146-.231a3.377,3.377,0,0,1,1.891-.079,4.013,4.013,0,0,1,1.587,1.126,15.134,15.134,0,0,1,2.493,3.045,14.449,14.449,0,0,1,2,5.657l-.236-.084a46.041,46.041,0,0,0,6.315-7.182,32.471,32.471,0,0,0,2.145-3.484,28.147,28.147,0,0,0,1.435-3.22,27.616,27.616,0,0,0,1.334-4.869c.113-.563.152-1.036.208-1.34a1.672,1.672,0,0,1,.056-.349.992.992,0,0,1,0-.118v.118a1.822,1.822,0,0,1-.028.355c-.039.3-.062.766-.158,1.351a26.23,26.23,0,0,1-1.255,4.919,29.123,29.123,0,0,1-1.418,3.259,33.805,33.805,0,0,1-2.133,3.524,45.883,45.883,0,0,1-6.332,7.2l-.2.191-.039-.276A14.342,14.342,0,0,0,236.39,253a15.051,15.051,0,0,0-2.448-2.989,3.76,3.76,0,0,0-1.469-1.041,3.118,3.118,0,0,0-1.728.073l-.484.141.338-.371,10.9-11.82,3.191-3.433.867-.912.225-.231C245.874,232.352,245.874,232.324,245.874,232.329Z" transform="translate(-137.574 -162.087)" fill="#263238"/>
      <path id="Path_36476" data-name="Path 36476" d="M231.616,256.6a.242.242,0,0,1-.056.118l-.2.332c-.174.287-.445.715-.811,1.25a49.009,49.009,0,0,1-3.405,4.373c-.383.445-.794.906-1.238,1.379a16.64,16.64,0,0,0-1.311,1.52c-.856,1.126-1.689,2.336-2.617,3.642-1.8,2.617-3.743,5.561-5.786,8.724l-.135.2-.113-.214c-1.03-1.925-2.094-3.94-3.236-5.933s-2.251-3.906-3.478-5.691-2.488-3.422-3.647-5.038a43.341,43.341,0,0,1-3.062-4.739,18.738,18.738,0,0,1-1.807-4.576,16.632,16.632,0,0,1-.214-7.075,13.166,13.166,0,0,1,.7-2.51.664.664,0,0,1-.034.169l-.141.484a18.579,18.579,0,0,0-.417,1.874,17.009,17.009,0,0,0,.3,7.013,18.783,18.783,0,0,0,1.818,4.5,44.084,44.084,0,0,0,3.068,4.694c1.165,1.6,2.437,3.248,3.664,5.038s2.364,3.709,3.5,5.7,2.206,4.019,3.236,5.944h-.248c2.049-3.158,4.008-6.1,5.826-8.707.912-1.306,1.779-2.533,2.645-3.636a16.323,16.323,0,0,1,1.34-1.52c.445-.467.856-.929,1.25-1.368,1.553-1.762,2.7-3.259,3.456-4.312.383-.523.664-.934.856-1.216l.214-.321Z" transform="translate(-124.442 -166.477)" fill="#263238"/>
      <path id="Path_36477" data-name="Path 36477" d="M178.594,335.088l-.754-19,.563-4.261s5.938,1.615,22.79,1.615a198.933,198.933,0,0,0,38.089-4l1.779,3.518h0l-5.938,44.7H180.986Z" transform="translate(-114.659 -195.8)" fill="#fff"/>
      <path id="Path_36478" data-name="Path 36478" d="M144.96,353.766l7.8.884,2.955-4.1,4.047-2.477.253,3.912a45.143,45.143,0,0,0,5.223,1.75c1.964.405,4.328.6,5.488,1.48.85.653.839,2.679-.326,3.039l-2.865.625s9.867.49,10.694.563c2.009.124,2.966,1.362,2.37,2.814-.36.9-1.779,1.2-2.251,1.379l-.45.18s2.088.4,2.15,1.689a1.781,1.781,0,0,1-1.689,2.049c-.563.118-.816.124-2.876.394s-5.105.355-5.105.355a1.165,1.165,0,0,1,.113,1.689c-.732.884-6.282,1.2-6.282,1.2l-4.689.962a18.09,18.09,0,0,1-8.482-.281h0l-3.839-1.852-11.865-.85a19.127,19.127,0,0,1,1.2-6.861A15.972,15.972,0,0,1,144.96,353.766Z" transform="translate(-96.075 -212.682)" fill="#ffbe9d"/>
      <path id="Path_36479" data-name="Path 36479" d="M190.813,366.49a13.413,13.413,0,0,1-3.124.484,12.091,12.091,0,0,1-3.169,0,29.443,29.443,0,0,1,3.141-.293A24.089,24.089,0,0,1,190.813,366.49Z" transform="translate(-117.579 -220.734)" fill="#eb996e"/>
      <path id="Path_36480" data-name="Path 36480" d="M200.933,375.611a12.667,12.667,0,0,1-1.9.039c-1.171,0-2.814-.051-4.582-.113s-3.411-.129-4.587-.2a11.05,11.05,0,0,1-1.891-.174,12.305,12.305,0,0,1,1.9-.034c1.171,0,2.814.051,4.582.113s3.411.129,4.587.2a12.337,12.337,0,0,1,1.891.169Z" transform="translate(-119.087 -224.503)" fill="#eb996e"/>
      <path id="Path_36481" data-name="Path 36481" d="M192.247,383.489a7.078,7.078,0,0,1-1.559.073c-.962,0-2.3-.045-3.76-.129l-3.754-.214a10.126,10.126,0,0,1-1.553-.129,7.318,7.318,0,0,1,1.559-.079c.962,0,2.3.051,3.766.129l3.749.22A8.6,8.6,0,0,1,192.247,383.489Z" transform="translate(-116.311 -227.951)" fill="#eb996e"/>
      <path id="Path_36482" data-name="Path 36482" d="M261.848,359.348s-.895-2.313,1.03-2.983l8.741-3.079.129-1.762,4.008.417a11.55,11.55,0,0,1,2.887-1.278c1.25-.265,2.021-.169,3.175,1.469a38.838,38.838,0,0,0,3.94,4.233l3.743.383s4.115,3.653,5.038,8.387a33.949,33.949,0,0,1,.484,4.818c-.563,1.16-2.7,1.6-5.42,1.689l-3.175.084a1.959,1.959,0,0,1-1.762,1.846c-1.278.191-4.8-.214-5.792.051a19.226,19.226,0,0,1-3.118,0c-2.629-.45-10.036-1.126-10.2-3.9l-8,.163a2.679,2.679,0,0,1-2.477-1.441,1.266,1.266,0,0,1-.129-1,2.189,2.189,0,0,1,.343-.608,2.409,2.409,0,0,1,1.694-.839l10.694-1.193h0a.608.608,0,0,0-.433-1.092c-3.766.49-10.79,1.351-11.494,1.092a2.673,2.673,0,0,1-1.362-2.341c0-1.019,1.745-1.857,3.529-2.206C260.165,359.809,261.848,359.348,261.848,359.348Z" transform="translate(-148.122 -213.766)" fill="#ffbe9d"/>
      <path id="Path_36483" data-name="Path 36483" d="M277.109,361.62a12.724,12.724,0,0,1-1.88.523l-4.57,1.092-4.57,1.086a14.068,14.068,0,0,1-1.908.4,2.037,2.037,0,0,1,.49-.191c.315-.107.782-.248,1.362-.411,1.159-.326,2.769-.743,4.559-1.165s3.411-.777,4.593-1.013A12.7,12.7,0,0,1,277.109,361.62Z" transform="translate(-152.401 -218.605)" fill="#eb996e"/>
      <path id="Path_36484" data-name="Path 36484" d="M284.769,383.953a97.867,97.867,0,0,1-10.6.355,47.737,47.737,0,0,1,5.3-.326A47.22,47.22,0,0,1,284.769,383.953Z" transform="translate(-156.768 -228.341)" fill="#eb996e"/>
      <path id="Path_36485" data-name="Path 36485" d="M289.651,352.31a35.829,35.829,0,0,1-6.191,2.094A37.149,37.149,0,0,1,289.651,352.31Z" transform="translate(-160.829 -214.536)" fill="#eb996e"/>
      <path id="Path_36486" data-name="Path 36486" d="M319.686,377.709a4.556,4.556,0,0,1,.405-.715c.135-.225.3-.5.473-.822a4.625,4.625,0,0,0,.383-1.182,13.875,13.875,0,0,0-.737-7.165,18.142,18.142,0,0,0-3.72-6.225c-1.261-1.385-2.223-2.054-2.19-2.1a4.053,4.053,0,0,1,.681.456,15.754,15.754,0,0,1,1.66,1.5,17.257,17.257,0,0,1,3.844,6.27,13.549,13.549,0,0,1,.664,7.317,4.683,4.683,0,0,1-.439,1.21c-.191.332-.377.6-.523.816A4.612,4.612,0,0,1,319.686,377.709Z" transform="translate(-174.31 -217.679)" fill="#263238"/>
      <path id="Path_36487" data-name="Path 36487" d="M238.095,337.981a3.715,3.715,0,0,1,.034-.411c.034-.27.079-.675.135-1.182.129-1.053.31-2.578.563-4.5.49-3.912,1.188-9.5,2.032-16.255l.146.129c-4.154.872-8.792,1.756-13.779,2.6-2.5.422-5.066.822-7.739,1.182s-5.4.675-8.2.827c-3.208.163-6.349.09-9.389,0s-5.983-.253-8.809-.417c-5.629-.349-10.807-.749-15.276-1.126l.124-.118c.2,5.859.36,10.632.473,13.953.045,1.644.084,2.927.113,3.816v1.334a2.566,2.566,0,0,0-.034-.338c-.034-.225-.028-.563-.051-1-.039-.889-.1-2.173-.174-3.811-.135-3.321-.326-8.094-.563-13.948v-.129h.129c4.463.383,9.625.771,15.27,1.126,2.814.163,5.764.31,8.8.405s6.191.163,9.36,0c2.814-.152,5.522-.467,8.178-.822s5.235-.754,7.728-1.171c4.987-.833,9.625-1.689,13.779-2.555l.169-.034v.163c-.889,6.754-1.621,12.338-2.139,16.244-.259,1.936-.467,3.462-.608,4.5l-.169,1.182C238.134,337.846,238.095,337.981,238.095,337.981Z" transform="translate(-114.598 -198.462)" fill="#263238"/>
      <path id="Path_36488" data-name="Path 36488" d="M241.024,314.429l-.158.045-.467.107-1.8.388c-1.565.343-3.844.777-6.664,1.266-1.413.231-2.961.5-4.627.726s-3.45.467-5.33.692c-3.766.422-7.914.782-12.282.974s-8.533.186-12.321.084c-1.891-.068-3.692-.129-5.37-.248s-3.248-.225-4.672-.343-2.713-.265-3.844-.377-2.105-.236-2.9-.343l-1.824-.248-.478-.073a.562.562,0,0,1-.158-.034h.163l.478.045,1.829.191c.8.084,1.767.2,2.9.293s2.415.242,3.844.338,2.989.231,4.666.3,3.478.158,5.37.219c3.777.084,7.936.073,12.3-.107s8.5-.563,12.265-.951c1.874-.214,3.659-.422,5.325-.664s3.214-.473,4.627-.692c2.814-.456,5.105-.861,6.676-1.165l1.812-.338.473-.079A.6.6,0,0,1,241.024,314.429Z" transform="translate(-114.785 -197.976)" fill="#263238"/>
      <path id="Path_36489" data-name="Path 36489" d="M241.181,311.36a1.317,1.317,0,0,1-.146.073l-.439.186c-.388.169-.968.388-1.728.653a41.369,41.369,0,0,1-6.58,1.615,93.439,93.439,0,0,1-10,1.008c-3.777.214-7.925.439-12.282.608a194.853,194.853,0,0,1-22.346-.265c-2.854-.208-5.15-.473-6.754-.67l-1.824-.253-.473-.073-.163-.034a.512.512,0,0,1,.163,0l.478.039,1.829.2c1.587.158,3.889.394,6.754.563a209.685,209.685,0,0,0,22.317.18c4.357-.169,8.5-.383,12.276-.563a97.557,97.557,0,0,0,9.963-.946,45.1,45.1,0,0,0,6.58-1.52c.76-.248,1.345-.45,1.739-.6l.45-.158A.439.439,0,0,1,241.181,311.36Z" transform="translate(-114.925 -196.635)" fill="#263238"/>
      <path id="Path_36490" data-name="Path 36490" d="M136.527,376.976a.95.95,0,0,1-.152-.18,5.226,5.226,0,0,1-.366-.563,7.013,7.013,0,0,1-.85-2.33,10.39,10.39,0,0,1,.045-3.675,18.789,18.789,0,0,1,1.385-4.278,15.338,15.338,0,0,1,5.274-6.146,16.242,16.242,0,0,1,2.128-1.261c.259-.135.473-.22.614-.281s.214-.084.22-.073a7.9,7.9,0,0,1-.777.456,21.877,21.877,0,0,0-2.066,1.328,15.805,15.805,0,0,0-5.128,6.1,19.324,19.324,0,0,0-1.379,4.21,10.615,10.615,0,0,0-.113,3.591,7.684,7.684,0,0,0,.743,2.308C136.37,376.689,136.55,376.959,136.527,376.976Z" transform="translate(-95.939 -217.104)" fill="#263238"/>
    </g>
    <g id="freepik--Gavel--inject-48" transform="translate(207.946 231.374)">
      <rect id="Rectangle_5559" data-name="Rectangle 5559" width="34.413" height="2.713" transform="translate(26.697 33.314)" fill="#263238"/>
      <path id="Path_36491" data-name="Path 36491" d="M432.547,384.428H400.88a2.972,2.972,0,0,1,2.972-2.978h25.717a2.978,2.978,0,0,1,2.978,2.978Z" transform="translate(-372.731 -351.114)" fill="#455a64"/>
      <path id="Path_36492" data-name="Path 36492" d="M407.665,387.251a7.044,7.044,0,0,0-1.357.062,12.159,12.159,0,0,0-3.107,1.053,13.3,13.3,0,0,1-3.124,1.126,5.227,5.227,0,0,1-1,.084h-.366a3.134,3.134,0,0,1,.366,0,5.72,5.72,0,0,0,.991-.118,14.431,14.431,0,0,0,3.084-1.126,11.516,11.516,0,0,1,3.146-1.03,3.9,3.9,0,0,1,1.368-.051Z" transform="translate(-371.782 -353.633)" fill="#455a64"/>
      <path id="Path_36493" data-name="Path 36493" d="M408.57,389.851a5.594,5.594,0,0,1,.614-.5,8.741,8.741,0,0,1,1.891-1.047,9.455,9.455,0,0,1,3.13-.681,9.243,9.243,0,0,1,2.882.321,3.039,3.039,0,0,1,.5.169.6.6,0,0,1,.36.417.445.445,0,0,1-.326.439,3.549,3.549,0,0,1-.5.152q-.5.135-.979.236a18.136,18.136,0,0,1-1.874.293,17.048,17.048,0,0,1-3.2,0,.608.608,0,0,1-.563-.315.315.315,0,0,1,.045-.315.782.782,0,0,1,.22-.191,2.814,2.814,0,0,1,.872-.338,2.161,2.161,0,0,1,.788-.051h-.2a3.188,3.188,0,0,0-.563.079,3.1,3.1,0,0,0-.844.355c-.146.084-.31.242-.231.422a.563.563,0,0,0,.512.265,18.684,18.684,0,0,0,3.186-.056,17.979,17.979,0,0,0,1.863-.3c.321-.068.642-.146.968-.236a4.389,4.389,0,0,0,.484-.146c.146-.056.276-.174.253-.321a.5.5,0,0,0-.3-.326,2.917,2.917,0,0,0-.473-.158,8.516,8.516,0,0,0-.968-.214,8.915,8.915,0,0,0-1.874-.113,9.636,9.636,0,0,0-3.1.647,9.126,9.126,0,0,0-1.9,1.008c-.214.135-.366.27-.473.349Z" transform="translate(-376.092 -353.807)" fill="#455a64"/>
      <path id="Path_36494" data-name="Path 36494" d="M432.426,386.673c0,.028-.422,0-1.126.1a6.254,6.254,0,0,0-2.443.963,12.949,12.949,0,0,1-2.251,1.441,2.883,2.883,0,0,1-.788.208,1.125,1.125,0,0,1-.3,0,4.312,4.312,0,0,0,1.053-.3,14.684,14.684,0,0,0,2.223-1.458,5.933,5.933,0,0,1,2.5-.946,5.176,5.176,0,0,1,.816-.045,1.429,1.429,0,0,1,.315.034Z" transform="translate(-383.502 -353.381)" fill="#455a64"/>
      <path id="Path_36495" data-name="Path 36495" d="M448.469,388.068a1.447,1.447,0,0,1-.563.2,3.45,3.45,0,0,1-1.565-.124,11.818,11.818,0,0,0-2.251-.467c-.867-.084-1.829-.09-2.814-.118a16.951,16.951,0,0,0-2.814.141,7.883,7.883,0,0,0-2.212.642,5.855,5.855,0,0,0-1.311.827c-.281.242-.416.394-.428.388a3.317,3.317,0,0,1,.4-.422,5.348,5.348,0,0,1,1.306-.867,7.7,7.7,0,0,1,2.251-.675,16.419,16.419,0,0,1,2.848-.152c1.013.028,1.976.039,2.848.129a11.134,11.134,0,0,1,2.28.5,3.491,3.491,0,0,0,1.531.158A3.647,3.647,0,0,0,448.469,388.068Z" transform="translate(-387.432 -353.729)" fill="#455a64"/>
      <path id="Path_36496" data-name="Path 36496" d="M451.45,390.086a2.637,2.637,0,0,1-.4.1,5.3,5.3,0,0,1-1.126.056,20.717,20.717,0,0,1-3.614-.7,8.611,8.611,0,0,0-2-.248,4.943,4.943,0,0,0-1.6.27,3.94,3.94,0,0,0-1.289.777,1.9,1.9,0,0,1,.287-.293,3.439,3.439,0,0,1,.974-.563,4.847,4.847,0,0,1,1.632-.3,9.009,9.009,0,0,1,2.021.242,23.473,23.473,0,0,0,3.6.737,6.591,6.591,0,0,0,1.126,0A3.386,3.386,0,0,1,451.45,390.086Z" transform="translate(-390.452 -354.493)" fill="#455a64"/>
      <path id="Path_36497" data-name="Path 36497" d="M351.038,374.044h0a2.578,2.578,0,0,0,3.3,1.5l43.436-16.087-2.178-4.295L352.569,370.7a2.578,2.578,0,0,0-1.531,3.343Z" transform="translate(-350.869 -339.621)" fill="#455a64"/>
      <path id="Path_36498" data-name="Path 36498" d="M424.208,336.045l1.638,5.336,16.694-5.7-1.463-5.364a3.141,3.141,0,0,0-1.863-2.088c-1.767-.709-4.418-1.126-8.443.107a10.8,10.8,0,0,0-6.332,5.235A3.09,3.09,0,0,0,424.208,336.045Z" transform="translate(-382.86 -327.553)" fill="#455a64"/>
      <path id="Path_36499" data-name="Path 36499" d="M443.858,340.561c.6,1.689-2.657,4.351-7.261,5.994s-8.82,1.627-9.411-.039,2.651-4.351,7.255-5.994S443.261,338.895,443.858,340.561Z" transform="translate(-384.2 -332.688)" fill="#263238"/>
      <path id="Path_36500" data-name="Path 36500" d="M445.558,344.369s-1.9-3.546-9.006-1.126c-5.775,1.987-6.3,4.925-6.293,5.944a2.017,2.017,0,0,0,.028.371l1.351,3.8a2.916,2.916,0,0,0,.912,1.289l.27.22a2.938,2.938,0,0,0,3.006.422l9.484-4.047a2.933,2.933,0,0,0,1.779-2.69h0a2.933,2.933,0,0,0-.242-1.159Z" transform="translate(-385.574 -334.042)" fill="#455a64"/>
      <path id="Path_36501" data-name="Path 36501" d="M435.231,367.472l-2.043-5.854s-.889-4.576,7.317-7.137,10.013,2.921,10.013,2.921l1.689,4.914Z" transform="translate(-386.842 -339.026)" fill="#455a64"/>
      <path id="Path_36502" data-name="Path 36502" d="M453.652,367.032c.664,2.094-2.572,4.987-7.233,6.473s-9.006.985-9.642-1.126,2.572-4.987,7.233-6.467S452.988,364.944,453.652,367.032Z" transform="translate(-388.388 -343.951)" fill="#263238"/>
      <path id="Path_36503" data-name="Path 36503" d="M448.558,354.82a8.364,8.364,0,0,0-2.6-.872,14.989,14.989,0,0,0-6.54.861,11.567,11.567,0,0,0-3.231,1.66,7.593,7.593,0,0,0-1.976,2.2,6.9,6.9,0,0,0-.861,2.589v-.2a4.967,4.967,0,0,1,.039-.563,5.742,5.742,0,0,1,.664-1.947,7.476,7.476,0,0,1,1.993-2.3,11.258,11.258,0,0,1,3.3-1.722,14.149,14.149,0,0,1,6.664-.788,6.277,6.277,0,0,1,1.942.653,3.422,3.422,0,0,1,.473.3C448.513,354.77,448.564,354.809,448.558,354.82Z" transform="translate(-386.925 -338.938)" fill="#263238"/>
      <path id="Path_36504" data-name="Path 36504" d="M431.994,359.525a10.064,10.064,0,0,1-1.024-2.184,10.205,10.205,0,0,1-.76-2.291,10.063,10.063,0,0,1,1.008,2.167A9.57,9.57,0,0,1,431.994,359.525Z" transform="translate(-385.552 -339.573)" fill="#263238"/>
      <path id="Path_36505" data-name="Path 36505" d="M363.19,376.52l-.467.248a8.363,8.363,0,0,0-1.216.771,31.615,31.615,0,0,0-3.422,3.293,10.925,10.925,0,0,1-3.872,2.752,5.258,5.258,0,0,1-1.413.315,3.813,3.813,0,0,1-.529,0,3.854,3.854,0,0,0,.523-.051,5.69,5.69,0,0,0,1.39-.349,11.257,11.257,0,0,0,3.822-2.752,27.7,27.7,0,0,1,3.456-3.281A6.692,6.692,0,0,1,363.19,376.52Z" transform="translate(-351.481 -348.959)" fill="#263238"/>
      <path id="Path_36506" data-name="Path 36506" d="M380.174,372.783s-.152.045-.439.113-.709.18-1.244.332a36.1,36.1,0,0,0-4.475,1.559.923.923,0,0,0-.507.512.456.456,0,0,0,.259.6,1.57,1.57,0,0,0,.8-.056l.844-.2c1.126-.281,2.353-.636,3.6-1.069A38.962,38.962,0,0,0,382.854,373q.979-.467,1.959-1a3.287,3.287,0,0,0,.878-.664,1,1,0,0,0,.281-.985,1.126,1.126,0,0,0-.788-.681,2.365,2.365,0,0,0-1.086,0c-.72.169-1.435.36-2.128.563-1.4.371-2.73.766-3.979,1.2a23.605,23.605,0,0,0-6.248,3.163,15.5,15.5,0,0,0-3.377,3.3c-.332.45-.563.816-.715,1.069s-.231.388-.231.388a10.354,10.354,0,0,1,.889-1.48,15.287,15.287,0,0,1,3.377-3.343,23.64,23.64,0,0,1,6.265-3.2c1.25-.445,2.589-.839,3.979-1.216.7-.186,1.407-.377,2.133-.563a2.448,2.448,0,0,1,1.126,0,1.25,1.25,0,0,1,.872.754,1.126,1.126,0,0,1-.3,1.126,3.439,3.439,0,0,1-.912.687c-.659.355-1.311.687-1.964,1a37.866,37.866,0,0,1-3.856,1.576,36.847,36.847,0,0,1-3.614,1.058l-.844.2a1.688,1.688,0,0,1-.85.051.5.5,0,0,1-.315-.3.625.625,0,0,1,0-.417.985.985,0,0,1,.563-.563,34.62,34.62,0,0,1,4.5-1.531C379.567,372.9,380.174,372.783,380.174,372.783Z" transform="translate(-358.104 -345.891)" fill="#263238"/>
      <path id="Path_36507" data-name="Path 36507" d="M408.792,361.3a6.369,6.369,0,0,0-.929.906,13.153,13.153,0,0,0-1.565,2.73,8.96,8.96,0,0,1-1.728,2.646,3.293,3.293,0,0,1-1.081.743,5.939,5.939,0,0,0,1.024-.8,9.715,9.715,0,0,0,1.689-2.645,12.383,12.383,0,0,1,1.6-2.724A3.624,3.624,0,0,1,408.792,361.3Z" transform="translate(-373.872 -342.305)" fill="#263238"/>
      <path id="Path_36508" data-name="Path 36508" d="M411,366.068a9.358,9.358,0,0,0,.934-.709,7.981,7.981,0,0,0,2.685-4.824c.107-.715.084-1.165.113-1.165a2.361,2.361,0,0,1,0,.315,5.187,5.187,0,0,1-.051.861,7.548,7.548,0,0,1-2.713,4.874,4.953,4.953,0,0,1-.7.5,1.622,1.622,0,0,1-.265.152Z" transform="translate(-377.155 -341.462)" fill="#263238"/>
      <path id="Path_36509" data-name="Path 36509" d="M424.543,359.68a2.122,2.122,0,0,1-.388.056,9.033,9.033,0,0,0-1.041.18,9.743,9.743,0,0,0-5.707,3.754,9,9,0,0,0-.563.889,3.748,3.748,0,0,1-.2.332,6.866,6.866,0,0,1,.715-1.266,9.361,9.361,0,0,1,5.741-3.766A7.163,7.163,0,0,1,424.543,359.68Z" transform="translate(-379.62 -341.597)" fill="#263238"/>
      <path id="Path_36510" data-name="Path 36510" d="M441.124,349.519s-.1.028-.276.062l-.8.158-1.266.242-.788.146a4.537,4.537,0,0,0-.872.2c-.281.1-.591.343-.507.675a.788.788,0,0,0,.811.49,14.84,14.84,0,0,0,2.347-.265,16.567,16.567,0,0,0,2.527-.681c.411-.146.906-.293,1.081-.715a1.064,1.064,0,0,0-.433-1.182,2.252,2.252,0,0,0-1.328-.315c-.467,0-.929.056-1.385.1a17.345,17.345,0,0,0-2.578.428,9.141,9.141,0,0,0-3.912,1.964,6.58,6.58,0,0,0-1.734,2.392,6.3,6.3,0,0,0-.248.777c-.039.18-.068.276-.068.276a4.43,4.43,0,0,1,.27-1.069,6.467,6.467,0,0,1,1.722-2.437,9.135,9.135,0,0,1,3.94-2,16.853,16.853,0,0,1,2.595-.445c.456-.039.917-.084,1.39-.1a2.331,2.331,0,0,1,1.407.338,1.182,1.182,0,0,1,.473,1.317,1.092,1.092,0,0,1-.512.518,4.819,4.819,0,0,1-.642.265,17.083,17.083,0,0,1-2.544.675,15.038,15.038,0,0,1-2.37.253.872.872,0,0,1-.895-.563.563.563,0,0,1,.135-.512,1.126,1.126,0,0,1,.428-.265,4.577,4.577,0,0,1,.884-.2l.794-.141,1.272-.22.8-.135Z" transform="translate(-386.199 -336.586)" fill="#263238"/>
      <path id="Path_36511" data-name="Path 36511" d="M449.723,345.874a4.066,4.066,0,0,1-.371-.231,8.725,8.725,0,0,0-1.047-.563,10.818,10.818,0,0,0-3.788-.844,23.109,23.109,0,0,0-3.906.2l-1.182.141-.321.039h0l.321-.062,1.176-.18a21.176,21.176,0,0,1,3.94-.236,10.266,10.266,0,0,1,3.816.889,5.892,5.892,0,0,1,1.362.844Z" transform="translate(-389.394 -334.799)" fill="#263238"/>
      <path id="Path_36512" data-name="Path 36512" d="M441.609,335.648a4.072,4.072,0,0,0-.535-.484,4.694,4.694,0,0,0-1.767-.839,6.405,6.405,0,0,0-2.893,0,15.2,15.2,0,0,0-3.377,1.244,32.211,32.211,0,0,1-3.3,1.452,8.105,8.105,0,0,1-2.9.5,5.28,5.28,0,0,1-1.942-.388,3.174,3.174,0,0,1-.642-.338l.169.079a4.6,4.6,0,0,0,.49.219,5.493,5.493,0,0,0,1.931.343,8.16,8.16,0,0,0,2.858-.517,32.744,32.744,0,0,0,3.289-1.458,15.163,15.163,0,0,1,3.377-1.244,6.383,6.383,0,0,1,2.932.028,4.565,4.565,0,0,1,1.779.878A2.871,2.871,0,0,1,441.609,335.648Z" transform="translate(-382.947 -330.398)" fill="#263238"/>
      <path id="Path_36513" data-name="Path 36513" d="M437.158,328.279a9.63,9.63,0,0,1-1.2,1.238,13.047,13.047,0,0,1-7.537,3.2,9.879,9.879,0,0,1-1.722,0,.321.321,0,0,1,.124,0h.338a11.8,11.8,0,0,0,1.255-.068,13.632,13.632,0,0,0,7.492-3.18c.4-.343.715-.642.917-.856l.242-.242C437.124,328.3,437.152,328.274,437.158,328.279Z" transform="translate(-384.018 -327.87)" fill="#263238"/>
      <path id="Path_36514" data-name="Path 36514" d="M441.518,337.957s-.208-.135-.6-.338a7.269,7.269,0,0,0-1.767-.619,9.432,9.432,0,0,0-2.769-.135,15.433,15.433,0,0,0-3.321.737c-1.154.377-2.223.811-3.208,1.182s-1.886.681-2.657.895a14.621,14.621,0,0,1-1.841.4,5.621,5.621,0,0,1-.692.062h.174l.507-.079a15.647,15.647,0,0,0,1.829-.433c.765-.22,1.655-.563,2.64-.917s2.054-.811,3.214-1.193a14.787,14.787,0,0,1,3.377-.732,9.142,9.142,0,0,1,2.814.163,6.625,6.625,0,0,1,1.773.659A3.793,3.793,0,0,1,441.518,337.957Z" transform="translate(-383.126 -331.571)" fill="#263238"/>
      <path id="Path_36515" data-name="Path 36515" d="M450.86,360.2l-.281-.208a5.922,5.922,0,0,0-.861-.529,6.006,6.006,0,0,0-3.6-.484,11.179,11.179,0,0,0-4.925,2.291,31.7,31.7,0,0,0-2.454,2.122l-1.25,1.182a4.468,4.468,0,0,1-1.469,1.008,2.038,2.038,0,0,1-1.762-.107,1.689,1.689,0,0,1-.726-1.537,3.631,3.631,0,0,1,.456-1.6,6.113,6.113,0,0,1,3.377-2.9,1.576,1.576,0,0,1,1.334.068.748.748,0,0,1,.31.563,1.266,1.266,0,0,1-.141.6,5.122,5.122,0,0,1-2.876,2.251.974.974,0,0,1-.563.045.349.349,0,0,1-.248-.332.276.276,0,0,1,.1-.242.192.192,0,0,1,.084-.028.236.236,0,0,0-.163.27.321.321,0,0,0,.236.3.94.94,0,0,0,.563-.056,5.206,5.206,0,0,0,1.413-.715,4.706,4.706,0,0,0,1.4-1.531,1.092,1.092,0,0,0,.129-.563.625.625,0,0,0-.276-.5,1.486,1.486,0,0,0-1.244-.051,6.051,6.051,0,0,0-2.42,1.587,4.609,4.609,0,0,0-1.357,2.814,1.582,1.582,0,0,0,.675,1.43,1.891,1.891,0,0,0,1.655.1,4.4,4.4,0,0,0,1.435-.979l1.25-1.182a29.883,29.883,0,0,1,2.471-2.122,11.257,11.257,0,0,1,4.97-2.291,5.415,5.415,0,0,1,4.486,1.092C450.77,360.116,450.86,360.2,450.86,360.2Z" transform="translate(-387.003 -341.205)" fill="#263238"/>
      <path id="Path_36516" data-name="Path 36516" d="M456.883,363.329h-.107l-.3-.1a7.59,7.59,0,0,0-1.126-.293,9.19,9.19,0,0,0-1.689-.169,10.649,10.649,0,0,0-2.077.22,10.351,10.351,0,0,0-1.981.681,9.36,9.36,0,0,0-1.475.872,8.384,8.384,0,0,0-.889.737l-.231.22-.084.068a6.613,6.613,0,0,1,1.126-1.092,8.7,8.7,0,0,1,1.475-.9,9.079,9.079,0,0,1,4.115-.912,8.326,8.326,0,0,1,1.717.2,6.826,6.826,0,0,1,1.531.473Z" transform="translate(-392.857 -342.899)" fill="#263238"/>
      <path id="Path_36517" data-name="Path 36517" d="M443.67,355.866a2.184,2.184,0,0,1,.371.062c.231.045.563.107,1,.174a19.137,19.137,0,0,0,6.67-.068c.422-.073.76-.141,1-.2a2.65,2.65,0,0,1,.366-.068,3.27,3.27,0,0,1-.355.113q-.346.1-1,.236a17.561,17.561,0,0,1-3.36.343,17.9,17.9,0,0,1-3.349-.287c-.422-.079-.766-.152-1-.214A2.713,2.713,0,0,1,443.67,355.866Z" transform="translate(-391.436 -339.888)" fill="#263238"/>
    </g>
    <g id="freepik--Table--inject-48" transform="translate(23.92 267.26)">
      <path id="Path_36518" data-name="Path 36518" d="M273.92,391.456c0,.079-55.971.146-124.994.146s-125.006-.068-125.006-.146,55.96-.146,125.006-.146S273.92,391.372,273.92,391.456Z" transform="translate(-23.92 -391.31)" fill="#263238"/>
    </g>
  </g>
</svg>
