<svg xmlns="http://www.w3.org/2000/svg" width="250" height="236.046" viewBox="0 0 250 236.046"><g transform="translate(-25.046 -57.19)"><g transform="translate(28.462 292.943)"><path d="M277.694,475.886c0,.085-55.2.146-123.287.146s-123.3-.062-123.3-.146,55.2-.146,123.3-.146S277.694,475.791,277.694,475.886Z" transform="translate(-31.11 -475.74)" fill="#263238"/></g><g transform="translate(159.072 177.18)"><rect width="54.501" height="35.942" rx="5.89" transform="translate(0.145 0.289)" fill="#fff"/><path d="M314.327,306.453a3.027,3.027,0,0,0,.451-.051,3.142,3.142,0,0,0,1.228-.445,3.346,3.346,0,0,0,1.357-1.6,8.344,8.344,0,0,0,.225-2.9c0-4.439-.028-10.854-.051-18.774v-7.835a9.367,9.367,0,0,0-.068-1.645,3.194,3.194,0,0,0-2.09-2.371,4.591,4.591,0,0,0-1.69-.18H266.461a3.177,3.177,0,0,0-3.1,2.507,5.238,5.238,0,0,0-.073,1.081v28.473a3.628,3.628,0,0,0,.338,1.842,3.183,3.183,0,0,0,1.245,1.329,3.228,3.228,0,0,0,1.752.434h22.057l18.773.045,5.1.028h-5.1l-18.773.045H266.607a3.56,3.56,0,0,1-1.887-.467,3.475,3.475,0,0,1-1.352-1.442,3.943,3.943,0,0,1-.366-1.96V274.094a5.282,5.282,0,0,1,.079-1.126,3.475,3.475,0,0,1,3.38-2.737H313.69a4.913,4.913,0,0,1,1.78.2,3.436,3.436,0,0,1,2.253,2.557,9.573,9.573,0,0,1,.068,1.69v7.835c0,7.919-.034,14.335-.045,18.773v1.572a3.52,3.52,0,0,1-.253,1.363,3.379,3.379,0,0,1-1.408,1.617,3.042,3.042,0,0,1-1.256.422A2.709,2.709,0,0,1,314.327,306.453Z" transform="translate(-262.992 -270.217)" fill="#263238"/><rect width="2.09" height="8.325" transform="translate(24.574 21.164)" fill="#f8951d"/><rect width="2.09" height="9.53" transform="translate(7.107 19.958)" fill="#f8951d"/><rect width="2.09" height="11.513" transform="translate(11.472 17.97)" fill="#f8951d"/><rect width="2.09" height="10.882" transform="translate(15.838 18.601)" fill="#f8951d"/><rect width="2.09" height="14.566" transform="translate(20.208 14.917)" fill="#f8951d"/><rect width="2.09" height="14.493" transform="translate(28.939 14.99)" fill="#f8951d"/><rect width="2.09" height="9.733" transform="translate(33.31 19.75)" fill="#f8951d"/><rect width="2.09" height="13.856" transform="translate(37.675 15.627)" fill="#f8951d"/><rect width="2.09" height="16.977" transform="translate(42.04 12.506)" fill="#f8951d"/><rect width="2.09" height="13.929" transform="translate(46.411 15.559)" fill="#f8951d"/><path d="M273.876,278.5a1.318,1.318,0,1,1-1.318-1.318A1.318,1.318,0,0,1,273.876,278.5Z" transform="translate(-266.594 -273.258)" fill="#e0e0e0"/><path d="M279.956,278.5a1.312,1.312,0,1,1-.382-.932A1.318,1.318,0,0,1,279.956,278.5Z" transform="translate(-269.25 -273.258)" fill="#e0e0e0"/><path d="M285.956,278.5a1.318,1.318,0,1,1-1.318-1.318A1.318,1.318,0,0,1,285.956,278.5Z" transform="translate(-271.87 -273.258)" fill="#e0e0e0"/></g><g transform="translate(224.98 99.738)"><rect width="46.48" height="72.593" rx="8.43" transform="translate(0.088 0.164)" fill="#fff"/><path d="M421.824,205.486h.152a2.057,2.057,0,0,0,.439-.039,4.906,4.906,0,0,0,1.639-.535,4.827,4.827,0,0,0,1.938-1.983,4.731,4.731,0,0,0,.507-1.69c.045-.636,0-1.329,0-2.056,0-5.824-.028-14.245-.051-24.643s0-22.8-.028-36.55a4.658,4.658,0,0,0-2.253-4.275c-1.487-.958-3.38-.563-5.148-.653H384.84a4.613,4.613,0,0,0-4.36,3.132,8.775,8.775,0,0,0-.242,2.861v59.954c0,.732-.028,1.481,0,2.18a4.641,4.641,0,0,0,3.943,4.151,16.9,16.9,0,0,0,2,.056h1.977l24.643.051,6.7.028h0l-6.7.028-24.643.045H386.2a18.954,18.954,0,0,1-2.028-.056,4.855,4.855,0,0,1-4.146-4.343c-.045-.743,0-1.459,0-2.2v-61.4a4.938,4.938,0,0,1,.259-1.487,4.856,4.856,0,0,1,1.774-2.405,4.917,4.917,0,0,1,2.861-.929H421.8a4.923,4.923,0,0,1,4.438,2.636,5.223,5.223,0,0,1,.451,1.256,6.53,6.53,0,0,1,.1,1.318c0,13.755,0,26.141-.034,36.55s-.034,18.819-.045,24.643c0,.727,0,1.408-.034,2.062a4.664,4.664,0,0,1-.524,1.74,4.889,4.889,0,0,1-1.988,1.988,4.63,4.63,0,0,1-1.69.513A4.236,4.236,0,0,1,421.824,205.486Z" transform="translate(-380.004 -132.729)" fill="#263238"/><circle cx="1.425" cy="1.425" r="1.425" transform="translate(4.926 4.963)" fill="#e0e0e0"/><path d="M398.13,142.965a1.425,1.425,0,1,1-1.425-1.425A1.425,1.425,0,0,1,398.13,142.965Z" transform="translate(-386.676 -136.577)" fill="#e0e0e0"/><circle cx="1.425" cy="1.425" r="1.425" transform="translate(12.282 4.963)" fill="#e0e0e0"/><path d="M425.109,157.236c0,.079-7.362.146-16.442.146s-16.447-.068-16.447-.146,7.362-.146,16.447-.146S425.109,157.152,425.109,157.236Z" transform="translate(-385.339 -143.368)" fill="#263238"/><path d="M425.109,162.376c0,.079-7.362.146-16.442.146s-16.447-.068-16.447-.146,7.362-.146,16.447-.146S425.109,162.292,425.109,162.376Z" transform="translate(-385.339 -145.613)" fill="#263238"/><path d="M425.109,167.516c0,.079-7.362.146-16.442.146s-16.447-.068-16.447-.146,7.362-.146,16.447-.146S425.109,167.432,425.109,167.516Z" transform="translate(-385.339 -147.858)" fill="#263238"/><path d="M425.109,172.652c0,.079-7.362.146-16.442.146s-16.447-.068-16.447-.146,7.362-.152,16.447-.152S425.109,172.568,425.109,172.652Z" transform="translate(-385.339 -150.098)" fill="#263238"/><path d="M425.109,177.786c0,.084-7.362.146-16.442.146s-16.447-.062-16.447-.146,7.362-.146,16.447-.146S425.109,177.708,425.109,177.786Z" transform="translate(-385.339 -152.343)" fill="#263238"/><path d="M425.109,182.886c0,.084-7.362.146-16.442.146s-16.447-.062-16.447-.146,7.362-.146,16.447-.146S425.109,182.83,425.109,182.886Z" transform="translate(-385.339 -154.571)" fill="#263238"/><path d="M425.109,222.256c0,.079-7.362.146-16.442.146s-16.447-.068-16.447-.146,7.362-.146,16.447-.146S425.109,222.172,425.109,222.256Z" transform="translate(-385.339 -171.765)" fill="#263238"/><path d="M425.109,227.886c0,.079-7.362.146-16.442.146s-16.447-.068-16.447-.146,7.362-.146,16.447-.146S425.109,227.785,425.109,227.886Z" transform="translate(-385.339 -174.224)" fill="#263238"/><path d="M425.109,233.446c0,.079-7.362.146-16.442.146s-16.447-.068-16.447-.146,7.362-.146,16.447-.146S425.109,233.362,425.109,233.446Z" transform="translate(-385.339 -176.652)" fill="#263238"/><path d="M425.109,239.036c0,.079-7.362.146-16.442.146s-16.447-.068-16.447-.146,7.362-.146,16.447-.146S425.109,238.952,425.109,239.036Z" transform="translate(-385.339 -179.094)" fill="#263238"/><path d="M425.109,244.626c0,.084-7.362.152-16.442.152s-16.447-.068-16.447-.152,7.362-.146,16.447-.146S425.109,244.548,425.109,244.626Z" transform="translate(-385.339 -181.535)" fill="#263238"/><path d="M425.974,190.349H392.3l.056-.039v11.885l-.056-.045h-.056V190.18h33.734Z" transform="translate(-385.348 -157.82)" fill="#e0e0e0"/><path d="M426.017,193.965s-7.542.045-16.841.045-16.836,0-16.836-.045,7.536-.045,16.836-.045S426.017,193.965,426.017,193.965Z" transform="translate(-385.392 -159.453)" fill="#e0e0e0"/><path d="M426.017,196.905s-7.542.039-16.841.039-16.836,0-16.836-.039,7.536-.045,16.836-.045S426.017,196.877,426.017,196.905Z" transform="translate(-385.392 -160.737)" fill="#e0e0e0"/><path d="M426.017,199.809s-7.542.045-16.841.045-16.836,0-16.836-.045,7.536-.039,16.836-.039S426.017,199.787,426.017,199.809Z" transform="translate(-385.392 -162.008)" fill="#e0e0e0"/><path d="M426.017,202.715s-7.542.039-16.841.039-16.836,0-16.836-.039,7.536-.045,16.836-.045S426.017,202.693,426.017,202.715Z" transform="translate(-385.392 -163.275)" fill="#e0e0e0"/><path d="M426.017,205.619s-7.542.045-16.841.045-16.836,0-16.836-.045,7.536-.039,16.836-.039S426.017,205.6,426.017,205.619Z" transform="translate(-385.392 -164.546)" fill="#e0e0e0"/><path d="M392.34,208.525s7.536-.045,16.836-.045,16.841,0,16.841.045-7.542.045-16.841.045S392.34,208.548,392.34,208.525Z" transform="translate(-385.392 -165.812)" fill="#e0e0e0"/><path d="M400.779,202.545s-.039-2.7-.039-6.033,0-6.033.039-6.033.045,2.7.045,6.033S400.808,202.545,400.779,202.545Z" transform="translate(-389.06 -157.951)" fill="#e0e0e0"/><path d="M409.389,202.545s-.039-2.7-.039-6.033,0-6.033.039-6.033.045,2.7.045,6.033S409.418,202.545,409.389,202.545Z" transform="translate(-392.821 -157.951)" fill="#e0e0e0"/><path d="M417.965,202.545c-.028,0-.045-2.7-.045-6.033s0-6.033.045-6.033.039,2.7.039,6.033S418.01,202.545,417.965,202.545Z" transform="translate(-396.564 -157.951)" fill="#e0e0e0"/><path d="M426.615,202.545s-.045-2.7-.045-6.033,0-6.033.045-6.033.039,2.7.039,6.033S426.638,202.545,426.615,202.545Z" transform="translate(-400.341 -157.951)" fill="#e0e0e0"/><path d="M435.225,202.545c-.028,0-.045-2.7-.045-6.033s0-6.033.045-6.033.039,2.7.039,6.033S435.248,202.545,435.225,202.545Z" transform="translate(-404.102 -157.951)" fill="#e0e0e0"/><path d="M443.555,202.545s-.045-2.7-.045-6.033,0-6.033.045-6.033.045,2.7.045,6.033S443.578,202.545,443.555,202.545Z" transform="translate(-407.74 -157.951)" fill="#e0e0e0"/><path d="M452.169,202.545s-.039-2.7-.039-6.033,0-6.033.039-6.033.045,2.7.045,6.033S452.192,202.545,452.169,202.545Z" transform="translate(-411.504 -157.951)" fill="#e0e0e0"/><path d="M400.819,208.342a.363.363,0,1,1-.3-.27.293.293,0,0,1,.3.27Z" transform="translate(-388.802 -165.629)" fill="#f8951d"/><circle cx="0.293" cy="0.293" r="0.293" transform="translate(16.276 39.147)" fill="#f8951d"/><path d="M418.1,205.4a.3.3,0,1,1-.3-.258.3.3,0,0,1,.3.258Z" transform="translate(-396.382 -164.355)" fill="#f8951d"/><path d="M426.714,199.41a.307.307,0,0,1-.434.434h0a.307.307,0,0,1,.434-.434Z" transform="translate(-400.176 -161.812)" fill="#f8951d"/><path d="M435.424,199.41a.307.307,0,0,1-.434.434h0a.307.307,0,1,1,.434-.434Z" transform="translate(-403.98 -161.812)" fill="#f8951d"/><path d="M443.6,205.122a.3.3,0,0,1-.428.434h0a.3.3,0,0,1,.428-.434Z" transform="translate(-407.552 -164.307)" fill="#f8951d"/><path d="M409.539,196.677a.3.3,0,1,1-.135-.292A.3.3,0,0,1,409.539,196.677Z" transform="translate(-392.644 -160.509)" fill="#455a64"/><path d="M400.881,205.423a.3.3,0,0,1-.3.3.3.3,0,1,1,.3-.3Z" transform="translate(-388.864 -164.349)" fill="#455a64"/><path d="M443.6,208.11a.3.3,0,1,1-.431,0A.3.3,0,0,1,443.6,208.11Z" transform="translate(-407.549 -165.611)" fill="#455a64"/><path d="M435.321,202.519a.3.3,0,0,1-.591,0,.3.3,0,0,1,.3-.3.293.293,0,0,1,.293.3Z" transform="translate(-403.905 -163.078)" fill="#455a64"/><path d="M426.8,202.443a.3.3,0,0,1-.3.3.3.3,0,1,1,.3-.3Z" transform="translate(-400.184 -163.048)" fill="#455a64"/><path d="M396.495,213.965a2.45,2.45,0,0,1-.935,0A2.45,2.45,0,0,1,396.495,213.965Z" transform="translate(-386.798 -168.188)" fill="#e0e0e0"/><path d="M405.275,213.965a2.45,2.45,0,0,1-.935,0A2.45,2.45,0,0,1,405.275,213.965Z" transform="translate(-390.633 -168.188)" fill="#e0e0e0"/><path d="M414.1,213.965a2.45,2.45,0,0,1-.935,0A2.45,2.45,0,0,1,414.1,213.965Z" transform="translate(-394.485 -168.188)" fill="#e0e0e0"/><path d="M422.9,213.965a2.451,2.451,0,0,1-.935,0,2.45,2.45,0,0,1,.935,0Z" transform="translate(-398.328 -168.188)" fill="#e0e0e0"/><path d="M431.7,213.965a2.45,2.45,0,0,1-.935,0A2.45,2.45,0,0,1,431.7,213.965Z" transform="translate(-402.171 -168.188)" fill="#e0e0e0"/><path d="M439.565,213.965a2.451,2.451,0,0,1-.935,0,2.451,2.451,0,0,1,.935,0Z" transform="translate(-405.608 -168.188)" fill="#e0e0e0"/><path d="M447.435,213.965a2.45,2.45,0,0,1-.935,0A2.45,2.45,0,0,1,447.435,213.965Z" transform="translate(-409.046 -168.188)" fill="#e0e0e0"/><path d="M390.515,211.425a1.825,1.825,0,0,1-.755,0A1.605,1.605,0,0,1,390.515,211.425Z" transform="translate(-384.265 -167.079)" fill="#e0e0e0"/><path d="M390.515,208.045a1.824,1.824,0,0,1-.755,0A1.606,1.606,0,0,1,390.515,208.045Z" transform="translate(-384.265 -165.603)" fill="#e0e0e0"/><path d="M390.515,204.665a1.825,1.825,0,0,1-.755,0A1.605,1.605,0,0,1,390.515,204.665Z" transform="translate(-384.265 -164.127)" fill="#e0e0e0"/><path d="M390.515,201.285a1.825,1.825,0,0,1-.755,0A1.606,1.606,0,0,1,390.515,201.285Z" transform="translate(-384.265 -162.65)" fill="#e0e0e0"/><path d="M390.515,197.905a1.825,1.825,0,0,1-.755,0,1.606,1.606,0,0,1,.755,0Z" transform="translate(-384.265 -161.174)" fill="#e0e0e0"/><path d="M390.515,194.525a1.825,1.825,0,0,1-.755,0A1.6,1.6,0,0,1,390.515,194.525Z" transform="translate(-384.265 -159.698)" fill="#e0e0e0"/><path d="M390.515,191.145a1.825,1.825,0,0,1-.755,0A1.605,1.605,0,0,1,390.515,191.145Z" transform="translate(-384.265 -158.222)" fill="#e0e0e0"/><path d="M392.241,206.465l-.051-.152,4.822-1.7,4.872-3.289,4.85,1.605,4.889-3.222,4.895-.011.023.011L421.187,203l4.506-2.98.09.135-4.6,3.042-.051-.034-4.669-3.3-4.793.011-4.912,3.239-4.85-1.605-4.838,3.261Z" transform="translate(-385.326 -161.978)" fill="#f8951d"/><path d="M421.28,202.121l-4.748-3.227h-4.895l-4.895-3.227-4.748-.045-4.85,4.912h-4.8v-.163h4.737l4.855-4.912,4.861.045,4.895,3.227h4.895l4.641,3.16,4.636-8.15.141.079Z" transform="translate(-385.392 -159.375)" fill="#455a64"/></g><g transform="translate(77.256 57.19)"><path d="M136.5,57.45H255.254a4.934,4.934,0,0,1,4.934,4.934v96.763a7.086,7.086,0,0,1-7.086,7.086H139.166a7.086,7.086,0,0,1-7.086-7.086V61.872A4.422,4.422,0,0,1,136.5,57.45Z" transform="translate(-124.002 -57.304)" fill="#fff"/><path d="M135.567,57.45H256.009a4,4,0,0,1,4,4v9.1H132.08V60.937a3.487,3.487,0,0,1,3.487-3.487Z" transform="translate(-124.002 -57.304)" fill="#e0e0e0"/><path d="M260.148,80.586c0,.079-28.6.146-63.868.146s-63.879-.068-63.879-.146,28.591-.146,63.879-.146S260.148,80.5,260.148,80.586Z" transform="translate(-124.141 -67.344)" fill="#263238"/><path d="M142.612,68.641a1.205,1.205,0,1,1-.353-.858A1.211,1.211,0,0,1,142.612,68.641Z" transform="translate(-127.544 -61.662)" fill="#263238"/><path d="M149.452,68.641a1.205,1.205,0,1,1-.351-.856A1.211,1.211,0,0,1,149.452,68.641Z" transform="translate(-130.531 -61.662)" fill="#263238"/><path d="M156.432,68.641a1.205,1.205,0,1,1-.353-.858A1.211,1.211,0,0,1,156.432,68.641Z" transform="translate(-133.579 -61.662)" fill="#263238"/><path d="M251.5,97.886c0,.079-9.237.146-20.632.146s-20.632-.068-20.632-.146,9.237-.146,20.632-.146S251.5,97.824,251.5,97.886Z" transform="translate(-158.137 -74.9)" fill="#263238"/><path d="M211.265,113.366c0,.084-11.057.146-24.688.146s-24.688-.062-24.688-.146,11.051-.146,24.688-.146S211.265,113.288,211.265,113.366Z" transform="translate(-137.021 -81.66)" fill="#263238"/><path d="M211.265,121.656c0,.084-11.057.146-24.688.146s-24.688-.062-24.688-.146,11.051-.146,24.688-.146S211.265,121.578,211.265,121.656Z" transform="translate(-137.021 -85.281)" fill="#263238"/><path d="M211.265,129.946c0,.084-11.057.152-24.688.152s-24.688-.068-24.688-.152,11.051-.146,24.688-.146S211.265,129.868,211.265,129.946Z" transform="translate(-137.021 -88.902)" fill="#263238"/><path d="M211.265,138.242c0,.079-11.057.146-24.688.146s-24.688-.068-24.688-.146,11.051-.152,24.688-.152S211.265,138.158,211.265,138.242Z" transform="translate(-137.021 -92.522)" fill="#263238"/><path d="M211.265,146.532c0,.079-11.057.146-24.688.146s-24.688-.068-24.688-.146,11.051-.152,24.688-.152S211.265,146.448,211.265,146.532Z" transform="translate(-137.021 -96.143)" fill="#263238"/><path d="M211.265,169.566c0,.084-11.057.146-24.688.146s-24.688-.062-24.688-.146,11.051-.146,24.688-.146S211.265,169.488,211.265,169.566Z" transform="translate(-137.021 -106.205)" fill="#263238"/><path d="M211.265,161.216c0,.084-11.057.146-24.688.146s-24.688-.062-24.688-.146,11.051-.146,24.688-.146S211.265,161.138,211.265,161.216Z" transform="translate(-137.021 -102.558)" fill="#263238"/><path d="M295.284,111.79a13.338,13.338,0,1,0,13.332,13.334A13.338,13.338,0,0,0,295.284,111.79Zm.2,21.325a8.187,8.187,0,1,1,.006,0Z" transform="translate(-189.451 -81.036)" fill="#f8951d"/><path d="M287.317,125.728a8.19,8.19,0,0,1,4.855-7.48l-2.05-4.608A13.344,13.344,0,0,0,282,125.93q0,.276,0,.563h5.368A5.829,5.829,0,0,1,287.317,125.728Z" transform="translate(-189.478 -81.844)" fill="#e0e0e0"/><path d="M308.109,165.01c0,.068-4.94.124-11.034.124s-11.034-.056-11.034-.124,4.94-.13,11.034-.13S308.109,164.948,308.109,165.01Z" transform="translate(-191.242 -104.222)" fill="#263238"/><path d="M307,168.61c0,.068-2.737.124-6.117.124s-6.123-.056-6.123-.124,2.743-.13,6.123-.13S307,168.536,307,168.61Z" transform="translate(-195.05 -105.795)" fill="#263238"/><path d="M301.946,132v.563l-1.081,2.529h-.946l1.036-2.383h-.811v.473H299.4V132Z" transform="translate(-197.077 -89.862)" fill="#263238"/><path d="M306.609,134.124c0,.563-.411,1.048-1.341,1.048a2.315,2.315,0,0,1-1.188-.3l.31-.659a1.554,1.554,0,0,0,.851.259c.3,0,.5-.118.5-.327s-.13-.31-.6-.31h-.834l.152-1.8h1.955v.67h-1.25l-.039.451h.2C306.254,133.144,306.609,133.578,306.609,134.124Z" transform="translate(-199.121 -89.88)" fill="#263238"/><path d="M308.837,132.851a.789.789,0,1,1,.783.851.772.772,0,0,1-.783-.851Zm2.6-.811h.631l-2.1,3.07h-.631Zm-1.56.811c0-.31-.107-.434-.259-.434s-.259.124-.259.434.118.434.259.434S309.879,133.144,309.879,132.851Zm1.127,1.448a.789.789,0,1,1,.783.851.772.772,0,0,1-.783-.851Zm1.042,0c0-.31-.113-.434-.259-.434s-.259.124-.259.434.113.434.259.434S312.047,134.614,312.047,134.3Z" transform="translate(-201.197 -89.88)" fill="#263238"/><rect width="3.808" height="8.77" transform="translate(30.181 90.37)" fill="#ebebeb"/><rect width="3.808" height="8.77" transform="translate(43.096 90.37)" fill="#ebebeb"/><rect width="3.808" height="16.757" transform="translate(36.641 82.383)" fill="#f5f5f5"/><rect width="3.808" height="16.757" transform="translate(49.557 82.383)" fill="#f5f5f5"/><rect width="3.808" height="16.278" transform="translate(56.012 82.861)" fill="#ebebeb"/><rect width="3.808" height="16.278" transform="translate(68.927 82.861)" fill="#ebebeb"/><rect width="3.808" height="16.278" transform="translate(81.843 82.861)" fill="#ebebeb"/><rect width="3.808" height="24.823" transform="translate(62.472 74.322)" fill="#f5f5f5"/><rect width="3.808" height="22.39" transform="translate(75.388 76.75)" fill="#f5f5f5"/><rect width="3.808" height="16.278" transform="translate(100.921 82.861)" fill="#ebebeb"/><rect width="3.808" height="13.152" transform="translate(94.466 85.987)" fill="#f5f5f5"/><rect width="3.808" height="24.964" transform="translate(114.428 74.176)" fill="#ebebeb"/><rect width="3.808" height="13.152" transform="translate(107.973 85.987)" fill="#f5f5f5"/><rect width="3.808" height="13.152" transform="translate(120.894 85.987)" fill="#f5f5f5"/><rect width="3.808" height="18.959" transform="translate(88.304 80.18)" fill="#ebebeb"/><circle cx="0.98" cy="0.98" r="0.98" transform="translate(63.081 73.342)" fill="#f8951d"/><path d="M230.09,189.53a1.78,1.78,0,1,1,1.78-1.774,1.78,1.78,0,0,1-1.78,1.774Zm0-3.413a1.639,1.639,0,1,0,1.633,1.639,1.639,1.639,0,0,0-1.633-1.639Z" transform="translate(-166.029 -113.433)" fill="#f8951d"/><path d="M231.8,182.363l-.051-1.926.479.011-.9-1.1-.9,1.1.5.006.051,1.9Z" transform="translate(-166.955 -110.542)" fill="#ebebeb"/><path d="M175.1,209.75a.98.98,0,1,1-.98-.98A.98.98,0,0,1,175.1,209.75Z" transform="translate(-141.934 -123.391)" fill="#f8951d"/><path d="M173.5,210.97a1.774,1.774,0,1,1,1.258-.518,1.78,1.78,0,0,1-1.258.518Zm0-3.413a1.633,1.633,0,1,0,1.161.478,1.639,1.639,0,0,0-1.161-.478Z" transform="translate(-141.314 -122.797)" fill="#f8951d"/><path d="M173.491,199.73l.051,2.005-.5-.006.935,1.138.935-1.149-.518-.006-.051-1.977Z" transform="translate(-141.891 -119.443)" fill="#ebebeb"/><path d="M265.461,192.29l.051,2.005-.5-.006.935,1.138.935-1.149-.518-.006-.051-1.977Z" transform="translate(-182.057 -116.193)" fill="#ebebeb"/><path d="M231.44,208.367l-11.462-10.753c-7.266-3.509-18.481-8.674-19.787-8.607-1.464.09-29.29,11.051-39.862,15.27l-.208-.524c1.56-.62,38.178-15.208,40.037-15.3h.039c2.033,0,18.21,7.79,20.063,8.68l.068.051,11.2,10.5c2.129-1.127,14.312-7.553,14.521-7.643.073-.034.265-.113,17.022-.113v.563c-6.432,0-16.092,0-16.825.079-.636.321-9.778,5.143-14.645,7.705Z" transform="translate(-136.248 -114.516)" fill="#f8951d"/><path d="M266.89,203.12a.98.98,0,1,1-.98-.98A.98.98,0,0,1,266.89,203.12Z" transform="translate(-182.023 -120.495)" fill="#f8951d"/><path d="M265.29,204.34a1.78,1.78,0,1,1,1.78-1.78A1.78,1.78,0,0,1,265.29,204.34Zm0-3.413a.679.679,0,1,0,0-.023Z" transform="translate(-181.402 -119.901)" fill="#f8951d"/><path d="M313.1,208.3a.98.98,0,1,1-.98-.98A.98.98,0,0,1,313.1,208.3Z" transform="translate(-202.204 -122.758)" fill="#f8951d"/><path d="M311.5,209.52a1.78,1.78,0,1,1,1.78-1.78A1.78,1.78,0,0,1,311.5,209.52Zm0-3.413a1.639,1.639,0,1,0,1.633,1.633A1.639,1.639,0,0,0,311.5,206.106Z" transform="translate(-201.584 -122.164)" fill="#f8951d"/><path d="M311.595,198.73l.056,2.005-.5-.011.935,1.143.935-1.155H312.5l-.056-1.977Z" transform="translate(-202.209 -119.006)" fill="#ebebeb"/><path d="M253.324,166.1H254l.513-.079a7.458,7.458,0,0,0,1.408-.417,7.266,7.266,0,0,0,1.729-1.059,6.759,6.759,0,0,0,1.611-1.994,6.894,6.894,0,0,0,.777-2.98v-7.807c0-11.75-.028-28.726-.045-49.742V63a7.5,7.5,0,0,0-.191-2.309,4.461,4.461,0,0,0-1.205-1.949,4.365,4.365,0,0,0-2.022-1.127,10.348,10.348,0,0,0-2.377-.135H135.665a3.943,3.943,0,0,0-3.537,3.9V158.1a12.7,12.7,0,0,0,.118,2.461,6.658,6.658,0,0,0,4.591,5.126,7.384,7.384,0,0,0,2.354.287h46.187l49.742.045,13.518.028H235.12l-49.742.051H139.191a7.761,7.761,0,0,1-2.428-.3,6.906,6.906,0,0,1-4.771-5.317,12.955,12.955,0,0,1-.124-2.512V61.4a4.253,4.253,0,0,1,3.8-4.191c1.031-.051,2.011,0,3.019,0h116.73a5.07,5.07,0,0,1,1.228.141,4.692,4.692,0,0,1,2.135,1.172,4.833,4.833,0,0,1,1.273,2.062,7.983,7.983,0,0,1,.2,2.383V102c0,21-.039,37.992-.051,49.742v7.807a6.759,6.759,0,0,1-2.439,5.019,7.194,7.194,0,0,1-1.746,1.053,7.012,7.012,0,0,1-1.419.406l-.518.073H253.7Z" transform="translate(-123.903 -57.19)" fill="#263238"/><circle cx="5.92" cy="5.92" r="5.92" transform="translate(129.797 59.904) rotate(-76.78)" fill="#f5f5f5"/><path d="M350.309,151.037a11.433,11.433,0,0,0,.237,1.431,5.83,5.83,0,0,0,7.649,4,5.787,5.787,0,0,0,2.687-8.849,5.38,5.38,0,0,0-1.222-1.228,5.21,5.21,0,0,0-1.464-.789,5.8,5.8,0,0,0-5.486.805,5.92,5.92,0,0,0-2.163,3.194,11.832,11.832,0,0,0-.237,1.431,4.4,4.4,0,0,1,.13-1.459,5.864,5.864,0,0,1,2.14-3.329,6.01,6.01,0,0,1,5.711-.9,5.632,5.632,0,0,1,1.538.817,5.909,5.909,0,0,1,1.284,1.284,6.027,6.027,0,0,1,0,7.17,5.91,5.91,0,0,1-1.284,1.284,5.785,5.785,0,0,1-1.538.817,5.979,5.979,0,0,1-7.852-4.23A4.4,4.4,0,0,1,350.309,151.037Z" transform="translate(-219.305 -95.539)" fill="#263238"/><path d="M359,156.1a.282.282,0,0,1-.169-.5l1.521-1.188-1.538-1.16a.283.283,0,0,1,.344-.451l1.825,1.386a.282.282,0,0,1,.113.22.287.287,0,0,1-.107.225l-1.814,1.414A.282.282,0,0,1,359,156.1Z" transform="translate(-222.978 -98.92)" fill="#263238"/><circle cx="5.92" cy="5.92" r="5.92" transform="translate(0 60.264) rotate(-76.78)" fill="#f5f5f5"/><path d="M131.592,151.674a12.358,12.358,0,0,0-.242-1.431,5.88,5.88,0,0,0-2.163-3.194,5.734,5.734,0,0,0-2.445-1.07,5.807,5.807,0,0,0-3.042.259,5.6,5.6,0,0,0-1.464.789,5.5,5.5,0,0,0-1.217,1.234,5.757,5.757,0,0,0,0,6.827,5.475,5.475,0,0,0,1.217,1.228,5.289,5.289,0,0,0,1.464.789,5.807,5.807,0,0,0,3.042.265,5.734,5.734,0,0,0,2.445-1.07,5.92,5.92,0,0,0,2.163-3.194,12.817,12.817,0,0,0,.242-1.431,4.613,4.613,0,0,1-.13,1.459,5.959,5.959,0,0,1-4.675,4.472,6.033,6.033,0,0,1-3.182-.242,6.094,6.094,0,0,1-2.816-2.107,6,6,0,0,1,0-7.17,5.672,5.672,0,0,1,1.284-1.284,5.751,5.751,0,0,1,1.532-.817,6.094,6.094,0,0,1,3.182-.248,6.01,6.01,0,0,1,2.529,1.127,5.892,5.892,0,0,1,2.146,3.329A4.614,4.614,0,0,1,131.592,151.674Z" transform="translate(-118.552 -95.816)" fill="#263238"/><path d="M130.362,156.727a.265.265,0,0,1-.169-.056l-1.831-1.386a.282.282,0,0,1-.113-.22.276.276,0,0,1,.113-.225l1.808-1.414a.282.282,0,1,1,.344.445l-1.521,1.188,1.538,1.16a.282.282,0,0,1-.169.507Z" transform="translate(-122.329 -99.189)" fill="#263238"/></g><g transform="translate(206.407 193.313)"><path d="M420.71,410.706c7.508-3.188,16.205-9.457,20.08-17.146a42.729,42.729,0,0,0-20.08,17.146" transform="translate(-379.209 -340.219)" fill="#263238"/><path d="M423.55,389.531c7.508-3.188,16.2-9.463,20.08-17.151a42.768,42.768,0,0,0-20.08,17.151" transform="translate(-380.449 -330.969)" fill="#263238"/><path d="M427.4,368.926c7.514-3.188,16.205-9.457,20.086-17.146A42.774,42.774,0,0,0,427.4,368.926" transform="translate(-382.131 -321.972)" fill="#263238"/><path d="M432.24,345.316c7.086-4.2,14.983-11.626,17.923-19.776a44.16,44.16,0,0,0-17.923,19.776" transform="translate(-384.245 -310.512)" fill="#263238"/><path d="M437.41,324.364c5.159-6.759,9.975-16.8,9.908-25.5a47.449,47.449,0,0,0-9.908,25.5" transform="translate(-386.502 -298.86)" fill="#263238"/><path d="M426.612,330.7c-1.036-9.136-4.591-20.615-10.612-27.465A55.762,55.762,0,0,0,426.612,330.7" transform="translate(-377.152 -300.773)" fill="#263238"/><path d="M420.2,348.276c-1.842-9.412-6.489-21.055-13.332-27.656A57.9,57.9,0,0,0,420.2,348.276" transform="translate(-373.164 -308.363)" fill="#263238"/><path d="M415.247,369.9c-1.836-9.412-6.483-21.055-13.327-27.656A57.948,57.948,0,0,0,415.247,369.9" transform="translate(-371.003 -317.806)" fill="#263238"/><path d="M411.277,396.442c-1.836-9.412-6.483-21.055-13.327-27.662a57.965,57.965,0,0,0,13.327,27.662" transform="translate(-369.269 -329.397)" fill="#263238"/><path d="M429.609,341a.329.329,0,0,1-.056.141,3.383,3.383,0,0,0-.146.417l-.518,1.633c-.451,1.414-1.065,3.475-1.78,6.033s-1.51,5.633-2.326,9.012-1.617,7.193-2.371,11.175-1.352,7.8-1.847,11.265-.851,6.618-1.127,9.26-.445,4.782-.535,6.263c-.045.727-.085,1.3-.107,1.69v.445a.4.4,0,0,0,0,.152v-.152c0-.1.034-.259.051-.439.039-.411.1-.98.163-1.69.13-1.481.338-3.616.631-6.252s.676-5.773,1.172-9.249,1.127-7.277,1.864-11.265,1.56-7.75,2.349-11.169,1.572-6.478,2.253-9.012,1.267-4.63,1.69-6.055l.467-1.639c.051-.18.084-.321.118-.434A.565.565,0,0,0,429.609,341Z" transform="translate(-378.369 -317.264)" fill="#263238"/><path d="M413.969,414.72c3.188-6.669,5.5-16.047,3.943-23.37a41.473,41.473,0,0,0-3.943,23.37" transform="translate(-376.129 -339.254)" fill="#455a64"/><path d="M404.567,399.39c3.182-6.675,5.5-16.047,3.943-23.37a41.428,41.428,0,0,0-3.943,23.37" transform="translate(-372.022 -332.559)" fill="#455a64"/><path d="M396.138,383.8c3.182-6.675,5.5-16.047,3.943-23.37a41.428,41.428,0,0,0-3.943,23.37" transform="translate(-368.341 -325.75)" fill="#455a64"/><path d="M387.133,366.709c2.366-7.058,3.554-16.678,1.126-23.719a41.681,41.681,0,0,0-1.127,23.719" transform="translate(-364.017 -318.133)" fill="#455a64"/><path d="M377.148,353.923c-.231-7.514-2.445-16.9-7.108-22.463a40.741,40.741,0,0,0,7.108,22.463" transform="translate(-357.079 -313.098)" fill="#455a64"/><path d="M368.507,369.418c-5.526-5.216-13.924-10.392-21.477-11.068a41.681,41.681,0,0,0,21.477,11.068" transform="translate(-347.03 -324.842)" fill="#455a64"/><path d="M373.676,384.615c-6.2-4.906-15.388-9.508-23.336-9.525a43.371,43.371,0,0,0,23.336,9.525" transform="translate(-348.476 -332.153)" fill="#455a64"/><path d="M381.9,401.5c-6.2-4.906-15.388-9.513-23.342-9.53A43.309,43.309,0,0,0,381.9,401.5" transform="translate(-352.066 -339.525)" fill="#455a64"/><path d="M393.456,420.97c-6.2-4.906-15.388-9.513-23.336-9.53a43.292,43.292,0,0,0,23.336,9.53" transform="translate(-357.114 -348.028)" fill="#455a64"/><path d="M381.38,368.92a.386.386,0,0,0,.034.124l.124.349c.13.332.3.783.518,1.352.451,1.172,1.127,2.856,2.028,4.917,1.769,4.129,4.382,9.761,7.638,15.8,1.628,3.013,3.261,5.847,4.793,8.393s2.968,4.793,4.219,6.663,2.253,3.38,3.008,4.388l.845,1.172.225.3a.6.6,0,0,0,.084.1.192.192,0,0,0-.062-.113l-.2-.321-.805-1.2c-.7-1.036-1.69-2.552-2.929-4.433s-2.636-4.151-4.162-6.692-3.137-5.379-4.771-8.393c-3.244-6.027-5.886-11.659-7.7-15.743-.907-2.05-1.622-3.718-2.107-4.878l-.563-1.329c-.062-.141-.113-.253-.158-.344a.5.5,0,0,0-.056-.113Z" transform="translate(-362.032 -329.458)" fill="#263238"/><path d="M387.29,434.27h31.638v6.094h-3.25l-2.737,17.394H393.379l-2.816-17.394H387.29Z" transform="translate(-364.613 -357.999)" fill="#f8951d"/><path d="M387.29,444.756c0-.084,7.03-.146,15.7-.146s15.709.062,15.709.146-7.035.146-15.709.146S387.29,444.83,387.29,444.756Z" transform="translate(-364.613 -362.515)" fill="#263238"/></g><g transform="translate(25.046 116.572)"><path d="M164.72,328.143a18.2,18.2,0,0,0,3.819-.2,8.754,8.754,0,0,0,2.552-1.127s2.777.383,3.222-.237a2.366,2.366,0,0,0,.417-1.329l2.039-.253,1.848.349,1.02,1.245s.766,0,.8-.462c0,0,1.02-.462.924-.783s-.659-1.848-.659-1.848l-.777-1.667s-5.036-.315-5.227-.192-6.568,3.1-6.568,3.1l-2.36.563Z" transform="translate(-86.047 -232.054)" fill="#eb996e"/><path d="M167.949,316.98l7.987-1.791,5.576-.3s4.754,2.208,4.619,4.185l1,.535s-.084,1.476-1.273,1.127a11.777,11.777,0,0,1-1.69-.631l1.279,1.949a1.853,1.853,0,0,1-1.763.034c-.4-.192-3.2-2.315-3.2-2.315l-2.371-.068s-4.4,3.03-6.449,3.38a19.585,19.585,0,0,1-5.526-.372Z" transform="translate(-86.663 -229.12)" fill="#ffbe9d"/><path d="M194.966,321.621c0-.034.2.034.529,0a.676.676,0,0,0,.445-.332,1.38,1.38,0,0,0,.135-.755l.045.079-3.447-2.253-1.036-.676a7.936,7.936,0,0,0-.941-.563h-1.9a11.266,11.266,0,0,1-1.808-.051,10.653,10.653,0,0,1,1.791-.158l.9-.045h.969a.478.478,0,0,1,.124,0,10.133,10.133,0,0,1,1.031.608l1.042.676c1.329.884,2.529,1.69,3.38,2.338l.045.034v.051a1.51,1.51,0,0,1-.2.862.772.772,0,0,1-.563.36.968.968,0,0,1-.417-.039A1.268,1.268,0,0,0,194.966,321.621Z" transform="translate(-95.773 -229.982)" fill="#eb996e"/><path d="M194.916,323.759a5.592,5.592,0,0,1-.834-.969c-.49-.62-1.127-1.493-1.864-2.467h.028l-.1-.073c-.242-.186-.484-.366-.721-.524l-.361-.22a.98.98,0,0,0-.349-.113,11.6,11.6,0,0,0-1.4-.141,6.7,6.7,0,0,1-1.312-.1,4.908,4.908,0,0,1,1.318-.107,9.069,9.069,0,0,1,1.442.079,1.431,1.431,0,0,1,.434.135c.13.068.253.146.377.225.253.163.5.344.749.535l.1.079h0c.715.98,1.346,1.87,1.791,2.523A5.635,5.635,0,0,1,194.916,323.759Z" transform="translate(-96.219 -230.931)" fill="#eb996e"/><path d="M244.657,433.51l.186,14.78s15.017,3.706,15.321,6.432l-28.58,2.461-1.234-23.02Z" transform="translate(-114.71 -280.926)" fill="#f8951d"/><g transform="translate(120.44 166.513)" opacity="0.6"><path d="M239.649,458.279a1.172,1.172,0,0,0-.743,1.374,1.127,1.127,0,0,0,1.357.749,1.234,1.234,0,0,0,.777-1.459,1.172,1.172,0,0,0-1.5-.625" transform="translate(-238.873 -458.239)" fill="#fff"/></g><g transform="translate(116.749 172.524)" opacity="0.6"><path d="M232.444,472.644l-.124-2.321L260,468.91a1.971,1.971,0,0,1,1.183,1.47Z" transform="translate(-232.32 -468.91)" fill="#fff"/></g><path d="M254.936,459.365c0,.141-.693.237-1.357.721s-1.008,1.093-1.126,1.042.028-.89.856-1.453S254.964,459.235,254.936,459.365Z" transform="translate(-124.348 -292.17)" fill="#263238"/><path d="M260.935,461.362c.034.135-.563.4-1,1.014s-.563,1.25-.693,1.25-.27-.789.3-1.538S260.924,461.227,260.935,461.362Z" transform="translate(-127.277 -293.068)" fill="#263238"/><path d="M265.52,465.727c-.124.034-.349-.653-.028-1.436s.958-1.127,1.025-1.008-.321.563-.563,1.188S265.661,465.7,265.52,465.727Z" transform="translate(-129.986 -293.919)" fill="#263238"/><path d="M253.857,453.141c-.056.13-.7-.028-1.493.062s-1.391.372-1.47.253.49-.642,1.419-.738S253.919,453.029,253.857,453.141Z" transform="translate(-123.68 -289.309)" fill="#263238"/><g transform="translate(115.797 155.513)" opacity="0.3"><path d="M244.813,438.71l.039,2.63-14.031,1.5-.191-3.318Z" transform="translate(-230.63 -438.71)"/></g><path d="M252.561,446.536a2.727,2.727,0,0,1-1.436.062,6.565,6.565,0,0,1-1.521-.389,6.716,6.716,0,0,1-.845-.4,1.688,1.688,0,0,1-.451-.315.608.608,0,0,1-.1-.738.755.755,0,0,1,.6-.349,2.022,2.022,0,0,1,.563.045,5.069,5.069,0,0,1,2.253,1.07c.693.563.946,1.093.9,1.127s-.406-.372-1.127-.845a5.7,5.7,0,0,0-1.312-.659,4.815,4.815,0,0,0-.839-.214c-.3-.068-.563-.056-.636.084,0,.051-.028.073.039.158a1.539,1.539,0,0,0,.332.231,7.766,7.766,0,0,0,.777.394,7.934,7.934,0,0,0,1.414.468A8.853,8.853,0,0,1,252.561,446.536Z" transform="translate(-122.474 -285.684)" fill="#263238"/><path d="M255.325,444.987a2.253,2.253,0,0,1-.451-1.369,4.647,4.647,0,0,1,.124-1.577,4.849,4.849,0,0,1,.321-.89,1.194,1.194,0,0,1,.879-.772.67.67,0,0,1,.62.372,2,2,0,0,1,.175.518,3.154,3.154,0,0,1,.045.969,3.2,3.2,0,0,1-.563,1.51c-.524.772-1.1.969-1.127.918a7.213,7.213,0,0,0,.817-1.093,3.318,3.318,0,0,0,.389-1.369,2.956,2.956,0,0,0-.068-.828c-.062-.3-.186-.563-.3-.507a1.125,1.125,0,0,0-.479.5,4.506,4.506,0,0,0-.315.794,5.03,5.03,0,0,0-.208,1.442C255.224,444.447,255.4,444.965,255.325,444.987Z" transform="translate(-125.412 -283.926)" fill="#263238"/><path d="M114.857,336.88s46.525-7.722,48.6-8.043c7.976-1.228,17.078-.253,20.114,5.469a42.875,42.875,0,0,1,2.687,13.214c.383,7.035,3.177,48.711,3.177,48.711l-19.2,3.194-6.32-46.114h0l-10.837,2.033c.608-.073-28.163,5.069-36.849,5.976-6.708.682-14.442-2.935-15.985-8.916-1.014-3.909-3.216-14.791-3.216-14.791Z" transform="translate(-56.484 -235.006)" fill="#263238"/><path d="M220.413,361.34a25.469,25.469,0,0,0-2.574,2.867,26.676,26.676,0,0,0-1.859,3.38,3.509,3.509,0,0,1,.31-1.127,10.994,10.994,0,0,1,1.312-2.433,11.427,11.427,0,0,1,1.864-2.045A3.469,3.469,0,0,1,220.413,361.34Z" transform="translate(-108.434 -249.406)" fill="#455a64"/><path d="M57.61,185.571a6.556,6.556,0,0,0-.946,3.734c0,1.279.879,3.87,3.143,4-.6,3.656,1.74,6.354,5.633,6.359s8.353-6.675,11.964-8.139l10.477-2.771c.918-.214,1.3-1.335,1.279-2.253a7.628,7.628,0,0,1,.073-2.816c.456-1.211,1.864-1.859,2.343-3.064.563-1.369-.3-2.89-1.273-3.994s-2.157-2.157-2.467-3.594c-.287-1.324.225-2.816-.439-4-.811-1.453-2.946-1.639-3.943-2.974-.479-.653-.631-1.5-1.127-2.152a3.981,3.981,0,0,0-3.729-1.256c-1.369.146-2.681.648-4.05.749-1.881.135-3.825-.473-5.633.073-1.994.6-3.2,2.366-4.506,4.078l-1.69,1.983a7.6,7.6,0,0,1-1.127.918,13.517,13.517,0,0,0-2.135,1.369,3.329,3.329,0,0,0,.231,4.8,3.543,3.543,0,0,0-2.388,3.5,2.965,2.965,0,0,0,.912,2.507,2.394,2.394,0,0,0-.6,2.946Z" transform="translate(-38.851 -162.616)" fill="#263238"/><path d="M68.989,194.627a48.123,48.123,0,0,1-2.112-8.1,16.926,16.926,0,0,1,.665-8.269c.146-.394,1.408-3.058,1.825-3.019.3.034-.473,2.518-.321,2.777a14.349,14.349,0,0,1,1.617,8.381,37.739,37.739,0,0,1-1.69,8.229" transform="translate(-43.212 -168.129)" fill="#263238"/><path d="M77.489,215.689c-6.2-.777-6.894-10.7-6.894-10.7l-.282-24.322c-.225-7,3.661-12.955,10.668-13.006l.648.034A12.521,12.521,0,0,1,93.457,179.86c.163,6.072.265,12.786.051,16.025-.439,6.708-7.21,7.4-7.21,7.4s-.18,6.021-.158,8.094c.073,7.142-6.939,4.472-8.674,4.32Z" transform="translate(-44.812 -164.819)" fill="#ffbe9d"/><path d="M92.067,228.523a16.244,16.244,0,0,1-8.607-3.053s1.808,5.283,8.545,5.036Z" transform="translate(-50.558 -190.067)" fill="#eb996e"/><path d="M106.825,198.378a.958.958,0,0,1-.974.918.918.918,0,0,1-.941-.918.958.958,0,0,1,.974-.918.918.918,0,0,1,.941.918Z" transform="translate(-59.926 -177.833)" fill="#263238"/><path d="M105.686,193.265c-.13.118-.822-.462-1.859-.513s-1.814.422-1.921.287.084-.276.428-.5a2.585,2.585,0,0,1,1.543-.389,2.546,2.546,0,0,1,1.47.563C105.653,192.978,105.748,193.192,105.686,193.265Z" transform="translate(-58.601 -175.515)" fill="#263238"/><path d="M89.605,198.378a.958.958,0,0,1-.974.918.918.918,0,0,1-.941-.918.958.958,0,0,1,.974-.918.918.918,0,0,1,.941.918Z" transform="translate(-52.405 -177.833)" fill="#263238"/><path d="M87.706,193.04c-.13.124-.828-.456-1.859-.507s-1.814.422-1.921.287.079-.276.422-.5a2.6,2.6,0,0,1,1.549-.389,2.546,2.546,0,0,1,1.47.563C87.667,192.758,87.762,192.989,87.706,193.04Z" transform="translate(-50.748 -175.418)" fill="#263238"/><path d="M96.442,201.648a6.956,6.956,0,0,1,1.69-.208c.265,0,.513-.056.563-.231a1.341,1.341,0,0,0-.135-.794c-.214-.648-.434-1.329-.67-2.045a34.7,34.7,0,0,1-1.47-5.34,34.325,34.325,0,0,1,1.9,5.21c.22.715.434,1.4.636,2.056a1.509,1.509,0,0,1,.079,1.042.653.653,0,0,1-.451.36,1.69,1.69,0,0,1-.451.039,6.539,6.539,0,0,1-1.69-.09Z" transform="translate(-56.212 -175.899)" fill="#263238"/><path d="M90.847,209.31c.169,0,.113,1.127,1.025,1.966s2.118.789,2.118.946c0,.068-.276.2-.783.186a2.766,2.766,0,0,1-1.769-.721,2.428,2.428,0,0,1-.789-1.645C90.638,209.569,90.779,209.3,90.847,209.31Z" transform="translate(-53.697 -183.009)" fill="#263238"/><path d="M87.331,185.779c-.113.27-1.127.084-2.354.163s-2.219.36-2.366.1c-.062-.124.118-.377.529-.631a4.1,4.1,0,0,1,3.6-.2C87.145,185.413,87.331,185.644,87.331,185.779Z" transform="translate(-50.182 -172.343)" fill="#263238"/><path d="M105.493,187.086c-.2.22-.9-.056-1.746-.118s-1.588.073-1.74-.18c-.068-.124.056-.349.389-.563a2.4,2.4,0,0,1,1.436-.3,2.377,2.377,0,0,1,1.369.563C105.493,186.726,105.577,186.974,105.493,187.086Z" transform="translate(-58.65 -172.788)" fill="#263238"/><path d="M67.22,199.389c-.113-.056-4.54-1.611-4.641,2.985s4.54,3.751,4.551,3.616S67.22,199.389,67.22,199.389Z" transform="translate(-41.437 -178.546)" fill="#ffbe9d"/><path d="M66.666,205.371a1.744,1.744,0,0,1-.22.113.822.822,0,0,1-.6,0,1.986,1.986,0,0,1-.879-1.8,2.721,2.721,0,0,1,.248-1.127.918.918,0,0,1,.62-.6.406.406,0,0,1,.468.231c.056.13,0,.22.051.225s.1-.073.068-.265a.512.512,0,0,0-.175-.293.6.6,0,0,0-.439-.124,1.127,1.127,0,0,0-.856.693,2.816,2.816,0,0,0-.3,1.279,2.073,2.073,0,0,0,1.127,2.011.85.85,0,0,0,.732-.107C66.655,205.478,66.683,205.377,66.666,205.371Z" transform="translate(-42.343 -179.696)" fill="#eb996e"/><path d="M89.151,171.558c.749-.4-1.453-2.816-3.273-3.695-2.749-1.284-6.956-2.112-9.513-1.425a11.139,11.139,0,0,0-7.227,5.1,18.131,18.131,0,0,0-2.146,9.192,5.559,5.559,0,0,0,.614,2.816c.631,1.025,1.853,1.69,1.78,3.081a1.949,1.949,0,0,0,.462,1.408c.828.907,1.87.079,2.354-.755a13.35,13.35,0,0,0,1.29-6,13.563,13.563,0,0,0-.237-4.377c-.214-.766-.563-1.5-.738-2.253a2.766,2.766,0,0,1,.355-2.292,2.958,2.958,0,0,1,.377-.372,4.8,4.8,0,0,1,4.771-.845c2.58.946,6.984,2.371,8.15,1.51a6.878,6.878,0,0,0,2.084-2.062Z" transform="translate(-43.361 -164.177)" fill="#263238"/><path d="M79.009,165.115a10.139,10.139,0,0,1,7.762.524,5.272,5.272,0,0,1,2.732,3.092,3.008,3.008,0,0,1-1.555,3.549l-.09.056a7.008,7.008,0,0,1-5.188-.344c-1.639-.591-3.092-1.628-4.731-2.208a9.339,9.339,0,0,0-5.469-.231,15.253,15.253,0,0,1,6.539-4.439Z" transform="translate(-45.758 -163.474)" fill="#263238"/><path d="M68.55,171.82c.039.034.411-.406,1.16-.924a6.647,6.647,0,0,1,1.391-.743,4.236,4.236,0,0,1,1.87-.315,6.2,6.2,0,0,1,3.2,1.324c.715.563,1.042,1.036,1.087,1s-.051-.141-.2-.355a4.888,4.888,0,0,0-.744-.817A5.959,5.959,0,0,0,73,169.534a4.315,4.315,0,0,0-2,.355,5.936,5.936,0,0,0-1.419.834A3.633,3.633,0,0,0,68.55,171.82Z" transform="translate(-44.046 -165.634)" fill="#455a64"/><path d="M93.43,164.79a12.334,12.334,0,0,0,1.217.456,10.054,10.054,0,0,1,4.72,3.886c.428.67.636,1.127.682,1.127a3.532,3.532,0,0,0-.5-1.222,8.674,8.674,0,0,0-4.833-3.977A3.582,3.582,0,0,0,93.43,164.79Z" transform="translate(-54.912 -163.565)" fill="#455a64"/><path d="M68.631,224l-.811,3.5,18.852,11.71-.845-5.835a28.957,28.957,0,0,0-5.751-4.568A55.155,55.155,0,0,0,68.631,224Z" transform="translate(-43.727 -189.425)" fill="#f5f5f5"/><path d="M61.717,229.873s-5.8,12.3-6.2,16.965,1.172,20.21,1.172,20.21L82.861,296.9l26.118,1.735s-12.364-26-15.129-31.069-12.065-28.045-12.065-28.045a14.459,14.459,0,0,0-3.278-5.069c-3.543-3.757-10.415-6.072-16.6-7.322Z" transform="translate(-38.328 -190.792)" fill="#f8951d"/><path d="M76.442,241.273c3.881.456,8.866,3.38,10.595,10.2l1.69,8.449L97.091,276.9l27.4,7.818-3.56,10.736s-27.177-2.157-30.7-3.1S72.1,270.681,72.1,270.681s-7.322-12.623-5.435-21.922A9.016,9.016,0,0,1,76.442,241.273Z" transform="translate(-43.089 -196.942)" fill="#f8951d"/><path d="M76.384,241.248h-.653a9.734,9.734,0,0,0-1.909.141,8.8,8.8,0,0,0-2.873,1.127A9.13,9.13,0,0,0,68,245.467a9.942,9.942,0,0,0-1.036,2.253,5.88,5.88,0,0,0-.175.636,4.344,4.344,0,0,0-.135.665c-.062.456-.124.918-.192,1.391a24.141,24.141,0,0,0,.4,6.2,39.99,39.99,0,0,0,1.966,6.832,54.342,54.342,0,0,0,3.323,7.2h0c2.118,2.98,4.422,6.123,6.9,9.373a123.936,123.936,0,0,0,8.173,9.846,13.651,13.651,0,0,0,2.529,2.129,4.8,4.8,0,0,0,1.583.434c.563.084,1.127.18,1.69.242,2.253.3,4.6.535,6.962.772,4.709.462,9.575.89,14.5,1.307l6.387.518-.146.1q1.808-5.475,3.554-10.736l.1.186-27.4-7.835h-.056v-.051L88.59,259.931h0q-.563-2.782-1.031-5.278a33.74,33.74,0,0,0-1.07-4.641,13.451,13.451,0,0,0-4.241-6.162,12.02,12.02,0,0,0-4.241-2.219,11.425,11.425,0,0,0-1.205-.276l-.417-.079a2.621,2.621,0,0,1,.422.051,9.226,9.226,0,0,1,1.217.248,11.868,11.868,0,0,1,4.247,2.174,13.557,13.557,0,0,1,4.32,6.2,33.065,33.065,0,0,1,1.127,4.658q.5,2.49,1.053,5.272h0l8.387,16.965-.079-.062,27.408,7.8.141.039-.045.141q-1.74,5.255-3.554,10.741l-.039.107h-.113l-6.387-.518c-4.945-.422-9.789-.845-14.5-1.312-2.36-.237-4.686-.479-6.968-.777-.563-.062-1.127-.158-1.69-.242-.282-.039-.563-.107-.845-.163a2.293,2.293,0,0,1-.834-.3,14.081,14.081,0,0,1-2.568-2.214A122.819,122.819,0,0,1,78.9,280.2c-2.473-3.256-4.771-6.4-6.889-9.4h0a54.637,54.637,0,0,1-3.318-7.238,40.3,40.3,0,0,1-2.028-6.945,24.158,24.158,0,0,1-.377-6.235c.068-.479.135-.952.2-1.408a4.438,4.438,0,0,1,.146-.67,5.746,5.746,0,0,1,.18-.648,9.975,9.975,0,0,1,1.065-2.292,9.13,9.13,0,0,1,3-2.963,8.776,8.776,0,0,1,2.912-1.127,8.623,8.623,0,0,1,1.926-.107C76.165,241.22,76.384,241.248,76.384,241.248Z" transform="translate(-43.032 -196.917)" fill="#263238"/><path d="M112.52,311.122a3.942,3.942,0,0,1,.428-1.127,15.871,15.871,0,0,1,1.5-2.5,16.05,16.05,0,0,1,1.932-2.185,3.942,3.942,0,0,1,.946-.749c.062.068-1.318,1.29-2.642,3.109S112.6,311.161,112.52,311.122Z" transform="translate(-63.249 -224.608)" fill="#263238"/><path d="M87.788,243.846a5.907,5.907,0,0,1-.665-.7c-.2-.237-.451-.518-.76-.828s-.642-.682-1.059-1.053a30.782,30.782,0,0,0-2.963-2.49,35.4,35.4,0,0,0-4.01-2.529,44.193,44.193,0,0,0-8-3.227c-1.059-.315-1.926-.563-2.523-.7a5.56,5.56,0,0,1-.924-.276,6.5,6.5,0,0,1,.952.163c.608.118,1.481.327,2.552.614a39.835,39.835,0,0,1,8.083,3.143,32.535,32.535,0,0,1,4.033,2.568,27.775,27.775,0,0,1,2.946,2.563c.406.377.732.766,1.031,1.087a8.24,8.24,0,0,1,.732.867,6.2,6.2,0,0,1,.58.8Z" transform="translate(-43.317 -192.936)" fill="#263238"/><path d="M212.233,266.459a.946.946,0,0,0-1.177.636l-9.53,31.869L169.6,303.922a1.893,1.893,0,0,0-1.577,2.157L203,300.627h0l9.863-33a.946.946,0,0,0-.625-1.172Z" transform="translate(-87.48 -207.951)" fill="#e0e0e0"/><path d="M212.14,266.443a.9.9,0,0,1,.535.377.98.98,0,0,1,.13.794l-.31,1.076-2.056,7.007-7.407,24.952v.09h-.13l.1-.09h0l-.039.124-.118-.039h.051l-34.291,5.424-.653.1h-.141v-.146a2.039,2.039,0,0,1,1.127-2.146,2.148,2.148,0,0,1,.614-.186l.591-.09,1.177-.186,4.669-.727,9.012-1.4,16.413-2.54-.1.09c3.008-9.987,5.509-18.3,7.266-24.13l2.056-6.759q.175-.563.321-1.031a.969.969,0,0,1,.563-.563.867.867,0,0,1,.636,0,1.042,1.042,0,0,0-.62.051.918.918,0,0,0-.507.535q-.135.451-.3,1.031l-1.988,6.759c-1.729,5.835-4.2,14.16-7.165,24.158v.073h-.079l-16.47,2.6-9.012,1.408-4.669.727-1.177.186a4.286,4.286,0,0,0-1.127.253,1.752,1.752,0,0,0-.969,1.836l-.169-.118.653-.1,34.325-5.317h.028l-.158.084h0v-.079h.079l-.107.146v-.051h0c3.1-10.3,5.689-18.9,7.5-24.93.912-3,1.633-5.362,2.129-6.984l.327-1.07a.946.946,0,0,0-.107-.755A1.081,1.081,0,0,0,212.14,266.443Z" transform="translate(-87.387 -207.935)" fill="#263238"/><path d="M228.96,325.821c-.068.045-.406-.349-.822-.822s-.749-.873-.693-.935.49.248.918.744S229.028,325.776,228.96,325.821Z" transform="translate(-113.439 -233.123)" fill="#455a64"/><path d="M220.5,326.285c0-.034.141-.141.366,0a.422.422,0,0,1,.225.394.479.479,0,0,1-.879.242.428.428,0,0,1-.039-.451c.135-.237.338-.2.327-.163a.6.6,0,0,0-.135.242.248.248,0,0,0,.293.282.231.231,0,0,0,.163-.18.2.2,0,0,0-.073-.192C220.619,326.319,220.518,326.319,220.5,326.285Z" transform="translate(-110.246 -234.066)" fill="#455a64"/><path d="M224.121,325.725c0-.034.141-.141.366,0a.417.417,0,0,1,.225.394.484.484,0,0,1-.355.434.5.5,0,0,1-.524-.192.428.428,0,0,1-.039-.451c.141-.237.338-.2.327-.169a.642.642,0,0,0-.135.242.231.231,0,0,0,.062.208.248.248,0,0,0,.231.079.242.242,0,0,0,.163-.18.2.2,0,0,0-.073-.2C224.25,325.765,224.138,325.765,224.121,325.725Z" transform="translate(-111.827 -233.821)" fill="#455a64"/><path d="M74.521,399.955,61.56,442.532l4.726.045L83.8,399.51Z" transform="translate(-40.993 -266.077)" fill="#263238"/><path d="M183.52,389.249c-.034,0,14.645,48.305,14.645,48.305l4.686.068-9.035-49.342Z" transform="translate(-94.258 -261.172)" fill="#263238"/><path d="M38.319,279.181a5,5,0,0,0-5.345-.929c-3.633,1.549-8.95,4.726-7.756,9.744,1.493,6.275,18.672,47.2,24.215,60.348a6.573,6.573,0,0,0,6.106,4.016l72-.608a5.323,5.323,0,0,0,5.227-6.01L130.068,325.3a14.572,14.572,0,0,0-13.158-12.611L70.351,308.55Z" transform="translate(-25.046 -212.945)" fill="#455a64"/><path d="M60.408,365.877a.693.693,0,0,1-.039-.152,2.6,2.6,0,0,0-.09-.434q-.118-.608-.321-1.69c-.265-1.487-.648-3.594-1.127-6.2s-1.014-5.74-1.622-9.2c-.3-1.729-.62-3.549-.946-5.43-.163-.946-.332-1.9-.5-2.878a7.728,7.728,0,0,1-.079-3.036,3.509,3.509,0,0,1,.693-1.4,4.032,4.032,0,0,1,1.234-.969,8.8,8.8,0,0,1,2.816-.805c1.915-.214,3.751-.321,5.509-.451,3.509-.242,6.669-.4,9.328-.507s4.81-.152,6.3-.175h2.287a.642.642,0,0,1-.152,0h-.445l-1.69.068-6.286.27c-2.659.13-5.818.31-9.322.563-1.746.135-3.6.253-5.486.467a8.4,8.4,0,0,0-2.743.777,3.3,3.3,0,0,0-1.763,2.163,7.413,7.413,0,0,0,.084,2.923q.248,1.464.49,2.873.49,2.816.929,5.435c.563,3.464,1.127,6.579,1.56,9.209s.783,4.72,1.025,6.2c.113.715.2,1.284.265,1.69a2.641,2.641,0,0,0,.062.445A.608.608,0,0,1,60.408,365.877Z" transform="translate(-38.376 -236.837)" fill="#263238"/><path d="M146.07,388.166c0,.079-18.588.146-41.529.146S63,388.245,63,388.166s18.588-.146,41.535-.146S146.07,388.088,146.07,388.166Z" transform="translate(-41.622 -261.059)" fill="#263238"/><path d="M59.332,310.716c-.062.056-5.745-6.483-12.7-14.6S34.1,281.376,34.16,281.32s5.745,6.483,12.7,14.605S59.416,310.666,59.332,310.716Z" transform="translate(-29.026 -214.458)" fill="#263238"/></g></g></svg>