<svg xmlns="http://www.w3.org/2000/svg" width="250" height="206.158" viewBox="0 0 250 206.158"><g transform="translate(-39.63 -98.986)"><g transform="translate(39.63 297.972)"><ellipse cx="125" cy="3.586" rx="125" ry="3.586" fill="#f5f5f5"/></g><g transform="translate(52.343 146.761)"><path d="M66.859,239.051a10.229,10.229,0,0,0-4.83,9.921c1.29,10.345,4.556,35.185,6.666,38.939,2.668,4.754,39.445,1.906,41.357-2.424s-3.167-46.494-6.393-49.935C101.015,232.676,78.39,231.827,66.859,239.051Z" transform="translate(-61.695 -203.076)"/><g transform="translate(0.265 30.371)" opacity="0.6"><path d="M66.859,239.051a10.229,10.229,0,0,0-4.83,9.921c1.29,10.345,4.556,35.185,6.666,38.939,2.668,4.754,39.445,1.906,41.357-2.424s-3.167-46.494-6.393-49.935C101.015,232.676,78.39,231.827,66.859,239.051Z" transform="translate(-61.96 -233.447)" fill="#fff"/></g><g transform="translate(3.946 33.93)" opacity="0.5"><path d="M73.83,291.434c-.046-.285-4.952-28.565-5.492-38.881-.581-10.5,4.742-12.891,4.963-12.984l.232.535c-.052,0-5.149,2.325-4.615,12.42.54,10.281,5.434,38.526,5.486,38.811Z" transform="translate(-68.294 -239.57)" fill="#fff"/></g><rect width="3.255" height="46.227" transform="translate(27.877 100.655)"/><g transform="translate(27.877 100.655)" opacity="0.5"><rect width="3.255" height="46.227" fill="#fff"/></g><path d="M71.054,427.9h-2.6v-1.319a8.718,8.718,0,0,1,8.718-8.718H90.9v2.6H77.173a6.131,6.131,0,0,0-6.12,6.126Z" transform="translate(-64.413 -280.312)"/><g transform="translate(4.037 137.548)" opacity="0.6"><path d="M71.054,427.9h-2.6v-1.319a8.718,8.718,0,0,1,8.718-8.718H90.9v2.6H77.173a6.131,6.131,0,0,0-6.12,6.126Z" transform="translate(-68.45 -417.86)" fill="#fff"/></g><circle cx="4.44" cy="4.44" r="4.44" transform="translate(0 153.436) rotate(-76.72)"/><g transform="translate(0 144.793)" opacity="0.4"><circle cx="4.44" cy="4.44" r="4.44" transform="translate(0 8.643) rotate(-76.72)" fill="#fff"/></g><g transform="translate(3.101 147.911)" opacity="0.5"><circle cx="2.238" cy="2.238" r="2.238" fill="#fff"/></g><circle cx="4.44" cy="4.44" r="4.44" transform="translate(23.225 150.152) rotate(-45)"/><g transform="translate(23.225 143.872)" opacity="0.4"><circle cx="4.44" cy="4.44" r="4.44" transform="translate(0 6.279) rotate(-45)" fill="#fff"/></g><g transform="translate(27.266 147.911)" opacity="0.5"><circle cx="2.238" cy="2.238" r="2.238" fill="#fff"/></g><path d="M139.327,427.889h-2.621v-1.319a6.131,6.131,0,0,0-6.12-6.126H116.87v-2.6H130.6a8.718,8.718,0,0,1,8.718,8.718Z" transform="translate(-84.693 -280.303)"/><g transform="translate(32.177 137.537)" opacity="0.6"><path d="M139.327,427.889h-2.621v-1.319a6.131,6.131,0,0,0-6.12-6.126H116.87v-2.6H130.6a8.718,8.718,0,0,1,8.718,8.718Z" transform="translate(-116.87 -417.84)" fill="#fff"/></g><circle cx="4.44" cy="4.44" r="4.44" transform="translate(47.046 150.306) rotate(-46.27)"/><g transform="translate(47.046 143.889)" opacity="0.4"><circle cx="4.44" cy="4.44" r="4.44" transform="translate(0 6.417) rotate(-46.27)" fill="#fff"/></g><g transform="translate(51.095 147.911)" opacity="0.5"><path d="M149.42,437.928a2.238,2.238,0,1,0,2.238-2.238A2.238,2.238,0,0,0,149.42,437.928Z" transform="translate(-149.42 -435.69)" fill="#fff"/></g><rect width="6.021" height="8.828" transform="translate(26.494 134.753)"/><g transform="translate(26.494 134.753)" opacity="0.6"><rect width="6.021" height="8.828" fill="#fff"/></g><rect width="6.021" height="8.828" transform="translate(26.494 100.161)"/><g transform="translate(26.494 100.161)" opacity="0.6"><rect width="6.021" height="8.828" fill="#fff"/></g><path d="M117,327.47s2.2.349,7.741,1.284c1.848.314,3.656.61,5.231.86a6.532,6.532,0,0,1,5.5,6.457h0a6.538,6.538,0,0,1-6.538,6.544H84.067a10.078,10.078,0,0,1-9.775-7.375,25.874,25.874,0,0,1-.715-7.77Z" transform="translate(-66.541 -242.455)"/><g transform="translate(6.99 85.015)" opacity="0.5"><path d="M117,327.47s2.2.349,7.741,1.284c1.848.314,3.656.61,5.231.86a6.532,6.532,0,0,1,5.5,6.457h0a6.538,6.538,0,0,1-6.538,6.544H84.067a10.078,10.078,0,0,1-9.775-7.375,25.874,25.874,0,0,1-.715-7.77Z" transform="translate(-73.531 -327.47)" fill="#fff"/></g><path d="M125.622,240.93c2.3,3.417,4.516,7.015,6.7,10.5,1.116,1.744,2.174,3.487,3.307,5.161.546.843,1.1,1.662,1.656,2.447s1.11,1.534,1.6,2.139l.581.674s.035.052,0,.041-.11-.041-.11-.029a.2.2,0,0,1,.035.052l.169.093a7.928,7.928,0,0,0,1.064.448l1.331.447c1.86.581,3.888,1.069,5.9,1.592,4.068,1.005,8.224,1.97,12.356,3.086l-.291,3.906a106.062,106.062,0,0,1-13.036.523,61.7,61.7,0,0,1-6.7-.4c-.581-.064-1.162-.139-1.784-.25a17.485,17.485,0,0,1-2-.447l-.581-.18c-.232-.081-.459-.174-.686-.273a8.22,8.22,0,0,1-.814-.418c-.25-.145-.447-.273-.645-.407a18.436,18.436,0,0,1-1.819-1.441,37.029,37.029,0,0,1-2.615-2.639c-.79-.872-1.523-1.744-2.238-2.615-1.389-1.744-2.743-3.487-3.993-5.3a103.612,103.612,0,0,1-6.9-11.089Z" transform="translate(-84.378 -206.21)" fill="#f8951d"/><path d="M130.181,247.54l-2.586-.43s-1.29,6.172-2.325,10.839c.517.761,1.035,1.523,1.569,2.284,1.25,1.8,2.6,3.539,3.993,5.3.715.872,1.447,1.744,2.238,2.615a37.052,37.052,0,0,0,2.615,2.639,18.443,18.443,0,0,0,1.819,1.441c.2.134.4.262.645.407a8.227,8.227,0,0,0,.814.418c.227.1.453.192.686.273l.581.18a17.483,17.483,0,0,0,2,.448c.61.11,1.2.186,1.784.25,2.272.244,4.429.372,6.591.4h1.5c-2.121-.087-8.607-.68-13.367-4.7C132.93,265.063,130.181,247.54,130.181,247.54Z" transform="translate(-88.211 -208.798)" opacity="0.2"/><path d="M95.685,232.11s-11.624,1.162-13.239,7.2c-1.11,4.237-.779,29.059,7.271,44.065,2.278,4.243,32.011-3.057,30.849-5.882-3.26-7.921-10.915-26.821-8.514-36.236,1.685-6.6-10.839-8.9-10.839-8.9Z" transform="translate(-70.08 -202.516)" fill="#f8951d"/><path d="M96.725,257.47s-1.238,5.928.947,9.148,7.044,4.6,9.88,4.975-13.152.378-13.152.378l-2.47-11.4Z" transform="translate(-74.247 -213.137)" opacity="0.2"/><g transform="translate(15.038 57.909)" opacity="0.2"><path d="M93.506,302.316c-2.325-3.1-5.969-20.678-6.126-21.428l.285-.058c.035.18,3.8,18.261,6.079,21.312Z" transform="translate(-87.38 -280.83)" fill="#fff"/></g><g transform="translate(13.928 63.715)" opacity="0.2"><path d="M85.47,290.82s2.052,6.469,10.107,6.974S118.882,294,118.882,294l-.384-1.162Z" transform="translate(-85.47 -290.82)"/></g><path d="M109.9,248.217l1.744,26.659,4.859,4.179,2.487-6.027s-5.649-16.221-7.114-25.9Z" transform="translate(-81.773 -208.806)" fill="#263238"/><path d="M122.682,195.221s2.034,1.511.291,4.83l-2.383-4.911Z" transform="translate(-86.251 -187.032)" fill="#263238"/><path d="M96.863,195.731s-2.563-2.284-2.325-3.255c.262-1.162,1.581-.819,1.581-.819s-.674-4.527.4-5.539c.883-.837,2.214.581,2.214.581s2.947-4.37,4.777-4.295.866,1.6.866,1.6,4.649-3.377,6.259-2.732.674,2.394.674,2.394,3.429-3.028,4.376-1.162-3.144,4.766-3.144,4.766,2.325.511,1.3,2.028a1.993,1.993,0,0,1-2.516.808Z" transform="translate(-75.333 -181.189)" fill="#263238"/><path d="M109.381,226.13a4.955,4.955,0,0,1-3.568,1.744,5.534,5.534,0,0,1-4.923-2.162,35.783,35.783,0,0,0,.116-12l8.195,6.829C108.637,222.526,108.347,224.572,109.381,226.13Z" transform="translate(-78 -194.81)" fill="#ff8b7b"/><g transform="translate(25.709 21.713)" opacity="0.2"><path d="M106.379,218.55l4.853,4.039a12.042,12.042,0,0,0-.465,2.243,6.625,6.625,0,0,1-4.847-3.731c-.436-1.2,0-2.424.459-2.551" transform="translate(-105.74 -218.55)"/></g><path d="M98.735,197.326a7.491,7.491,0,0,1,10.3-7.5c5.37,2.191,6.114,10.328,4.952,15.233-1.3,5.469-8.055,8-12.2,3.772-2.778-2.8-2.7-6.027-3.051-11.507" transform="translate(-77.088 -184.574)" fill="#ff8b7b"/><path d="M113.851,207.666a.215.215,0,0,1-.2-.145.988.988,0,0,0-.639-.692,1.081,1.081,0,0,0-.773.128.215.215,0,0,1-.25.076.221.221,0,0,1-.134-.279c.076-.209.581-.384.93-.384a1.3,1.3,0,0,1,1.279,1.005.221.221,0,0,1-.134.279Z" transform="translate(-82.586 -191.735)" fill="#263238"/><path d="M121.014,207.853h-.052a.215.215,0,0,1-.157-.262c.2-.808.7-.965.988-.982s.843.157.924.355a.221.221,0,0,1-.122.285.227.227,0,0,1-.256-.07.849.849,0,0,0-.651-.11.785.785,0,0,0-.465.628A.209.209,0,0,1,121.014,207.853Z" transform="translate(-86.338 -191.835)" fill="#263238"/><path d="M118.021,215.486a2.639,2.639,0,0,1-1.924,1.627,2.2,2.2,0,0,1-.628.035,2.389,2.389,0,0,1-2.1-1.255,3.655,3.655,0,0,1-.413-1.273.25.25,0,0,1,.337-.262h.035a12.1,12.1,0,0,0,4.452.767.256.256,0,0,1,.169.064.238.238,0,0,1,.07.3Z" transform="translate(-83.054 -195.074)" fill="#263238"/><path d="M116.4,218.2a2.2,2.2,0,0,1-.628.035,2.389,2.389,0,0,1-2.1-1.255,4.2,4.2,0,0,1,1.959.186,1.058,1.058,0,0,1,.767,1.034Z" transform="translate(-83.352 -196.161)" fill="#ff5652"/><path d="M118.22,215.235a.877.877,0,0,1-.169.244c-.442.453-3.987-.285-4.243-.488a.819.819,0,0,1-.209-.581,12.094,12.094,0,0,0,4.452.767A.256.256,0,0,1,118.22,215.235Z" transform="translate(-83.323 -195.103)" fill="#fff"/><path d="M98.575,197.512c0,.256,1.2,2.371,2.691,1.941s.581-4.481.581-4.481,2.906.279,2.046-2.162a3.534,3.534,0,0,0,4.446-.581s3.441,2.121,5.109.843c0,0,.2-4.864-5.312-6.12C105.032,186.272,98.134,188.678,98.575,197.512Z" transform="translate(-77.022 -183.557)" fill="#263238"/><path d="M94.637,208.727a5.231,5.231,0,0,0,2.487,3.1c1.616.86,2.819-.488,2.7-2.214-.1-1.558-1.075-3.882-2.854-4.033a2.314,2.314,0,0,0-2.325,3.15" transform="translate(-75.333 -191.402)" fill="#ff8b7b"/><path d="M122.812,203.379a.227.227,0,0,1-.174-.134,1.127,1.127,0,0,0-.68-.581,1.3,1.3,0,0,0-.883.134.216.216,0,0,1-.221-.372,1.685,1.685,0,0,1,1.22-.186,1.569,1.569,0,0,1,.942.79.215.215,0,0,1-.081.3A.18.18,0,0,1,122.812,203.379Z" transform="translate(-86.317 -189.988)" fill="#263238"/><path d="M111.055,203.679a.273.273,0,0,1-.093,0,.215.215,0,0,1-.1-.291,1.7,1.7,0,0,1,.918-.825,1.552,1.552,0,0,1,1.226.145.221.221,0,0,1-.2.389,1.162,1.162,0,0,0-.889-.122,1.308,1.308,0,0,0-.668.581A.227.227,0,0,1,111.055,203.679Z" transform="translate(-82.167 -190.113)" fill="#263238"/><path d="M112.254,207.93h-.029a2.075,2.075,0,1,1,.029-4.15h0a2.075,2.075,0,0,1-.029,4.15Zm0-3.859a1.784,1.784,0,0,0,0,3.568h0a1.784,1.784,0,0,0,1.784-1.744h0a1.784,1.784,0,0,0-1.744-1.807Z" transform="translate(-81.884 -190.651)" fill="#fff"/><path d="M121.483,207.465h0a2.046,2.046,0,0,1-1.459-.628,2.069,2.069,0,0,1,1.488-3.487h0a2.046,2.046,0,0,1,1.459.628,2.069,2.069,0,0,1,.581,1.47h0a2.075,2.075,0,0,1-.628,1.459A2.051,2.051,0,0,1,121.483,207.465Zm0-3.853a1.784,1.784,0,1,0,1.244,3.057,1.744,1.744,0,0,0,.54-1.25,1.778,1.778,0,0,0-1.744-1.807Z" transform="translate(-85.778 -190.471)" fill="#fff"/><path d="M118.31,206.48a12.856,12.856,0,0,0,2.127,2.54c1.122.936-1.744,1.592-1.744,1.592Z" transform="translate(-85.296 -191.781)" fill="#ff5652"/><path d="M118.43,206.694a.116.116,0,0,1-.076,0,1.162,1.162,0,0,0-1.337-.029.147.147,0,0,1-.186-.227,1.459,1.459,0,0,1,1.68,0,.139.139,0,0,1,.041.2A.145.145,0,0,1,118.43,206.694Z" transform="translate(-84.654 -191.653)" fill="#fff"/><path d="M106.989,206.145a.157.157,0,0,1-.093-.035,3.673,3.673,0,0,0-4.481-.058.145.145,0,0,1-.2-.035.151.151,0,0,1,.035-.2,4.016,4.016,0,0,1,4.835.076.139.139,0,0,1,0,.2A.145.145,0,0,1,106.989,206.145Z" transform="translate(-78.543 -191.179)" fill="#fff"/><path d="M98.286,230.73a4.5,4.5,0,0,0-4.016,3.011l6.922,7.486,1.848-6.2S98.763,233.52,98.286,230.73Z" transform="translate(-75.227 -201.938)" fill="#f8951d"/><path d="M100.992,243.349h-.07c-3.737-1.935-6.585-7.09-6.614-7.143a.146.146,0,1,1,.256-.139c0,.052,2.836,5.132,6.492,7.026a.145.145,0,0,1-.064.273Z" transform="translate(-75.237 -204.142)" fill="#fff"/><path d="M115.886,241.385a.16.16,0,0,1-.116-.262c1.744-1.36,3.208-5.992,3.226-6.038a.145.145,0,0,1,.18-.1.151.151,0,0,1,.1.186c-.064.192-1.482,4.766-3.33,6.184a.145.145,0,0,1-.058.029Z" transform="translate(-84.214 -203.718)" fill="#fff"/><path d="M112.138,231.6s-.756,2.848-2.778,3.778l3.586,3.981s3.284-4.254,2.947-6.393A4.243,4.243,0,0,0,112.138,231.6Z" transform="translate(-81.547 -202.284)" fill="#f8951d"/><path d="M108.028,238.13l-1.848,6.2L109.615,247l2-4.888Z" transform="translate(-80.215 -205.037)" fill="#263238"/><path d="M121.137,312.963s-6.637,15.047,7.6,18.842c9.735,2.6,23.916-3.94,30.192-1.871,0,0-2.737.965-5.9,11.565s-9.3,36.318-9.3,36.318l7.555.308s20.859-47.139,21.265-54.631-36.917-12.844-36.917-12.844Z" transform="translate(-85.832 -235.41)" fill="#263238"/><path d="M149.155,325.645c-.407,7.48-25.822,54.119-25.822,54.119l-6.852-.18h-.3l-2.243-.058s7.677-24.439,10.833-35.016c2.871-9.607,6.55-10.676,7.212-10.793-8.456.889-18.9,1.982-30.309.779-14.756-1.558-8.357-17.691-8.357-17.691l2.534-.331.32-.041,13.367-1.744S149.556,318.165,149.155,325.645Z" transform="translate(-74.249 -237.102)" fill="#263238"/><g transform="translate(21.007 78.14)" opacity="0.2"><path d="M99.888,322.934a10,10,0,0,1-2.238-.273l.064-.285a7.127,7.127,0,0,0,5.812-.8c2.906-1.935,3.574-5.893,3.58-5.934l.285.047c0,.046-.7,4.121-3.7,6.131A6.783,6.783,0,0,1,99.888,322.934Z" transform="translate(-97.65 -315.64)" fill="#fff"/></g><g transform="translate(20.755 79.285)" opacity="0.2"><path d="M137.337,334.342a75.774,75.774,0,0,0-8.939,15.639c-3.847,9.107-9.247,29.111-9.706,30.8v.116a.157.157,0,0,1-.145.11h-.035a.157.157,0,0,1-.1-.18v-.047c.3-1.093,5.812-21.655,9.741-30.93a76.279,76.279,0,0,1,8.968-15.692c1.348-1.877,2.238-3.115,2.069-3.7a.581.581,0,0,0-.389-.366c-.837-.349-4.649.064-9.5.581-9,.976-21.329,2.325-27.507.354a5.928,5.928,0,0,1-3.621-3.04c-1.842-3.621-.511-8.886-.087-10.339l.32-.041c-.355,1.2-1.8,6.66,0,10.252a5.672,5.672,0,0,0,3.452,2.906c6.12,1.947,18.418.61,27.391-.366,5.074-.552,8.718-.947,9.642-.581a.86.86,0,0,1,.581.581C139.65,331.117,138.831,332.262,137.337,334.342Z" transform="translate(-97.216 -317.61)" fill="#fff"/></g><path d="M130.711,426.24l-1.191,6.044h4.923l2.79-5.347Z" transform="translate(-89.991 -283.822)" fill="#ff8b7b"/><path d="M127.922,434.515s-1.127-.174-1.069,1.232-1.162,4.795-1.1,6.1h15.111s.488-3.226-2.255-3.324c-3.673-.128-4.923-2.238-4.923-2.238-.215-1.476-1.273-.982-2.825-.825A5.191,5.191,0,0,1,127.922,434.515Z" transform="translate(-88.41 -287.284)" fill="#f8951d"/><path d="M140.04,439a1.575,1.575,0,0,0-1.04.639" transform="translate(-93.961 -289.166)"/><path d="M138.9,439.7a.128.128,0,0,1-.076,0,.151.151,0,0,1-.046-.2,1.743,1.743,0,0,1,1.162-.692.146.146,0,0,1,.029.291,1.43,1.43,0,0,0-.947.581.14.14,0,0,1-.122.023Z" transform="translate(-93.858 -289.086)"/><path d="M141.238,439.56a1.581,1.581,0,0,0-1.058.628" transform="translate(-94.455 -289.4)"/><path d="M140.087,440.245a.193.193,0,0,1-.076,0,.151.151,0,0,1-.046-.2,1.744,1.744,0,0,1,1.162-.692.146.146,0,0,1,.029.291,1.441,1.441,0,0,0-.947.581.139.139,0,0,1-.122.023Z" transform="translate(-94.356 -289.312)"/><path d="M142.752,440.28a1.575,1.575,0,0,0-1.052.628" transform="translate(-95.092 -289.702)"/><path d="M141.6,440.965a.128.128,0,0,1-.076,0,.151.151,0,0,1-.047-.2,1.744,1.744,0,0,1,1.162-.692.151.151,0,0,1,.163.128.145.145,0,0,1-.128.163,1.43,1.43,0,0,0-.947.581A.145.145,0,0,1,141.6,440.965Z" transform="translate(-94.989 -289.613)"/><path d="M140.717,445.411h-14.9a.145.145,0,1,1,0-.291h14.9a.145.145,0,1,1,0,.291Z" transform="translate(-88.378 -291.729)"/><path d="M138.84,428.152H127.17l.738-3.592h11.664Z" transform="translate(-89.006 -283.118)" fill="#263238"/><g transform="translate(38.164 141.442)" opacity="0.3"><path d="M138.84,428.152H127.17l.738-3.592h11.664Z" transform="translate(-127.17 -424.56)" fill="#fff"/></g><path d="M161.946,426.24l-.936,6.044h4.923l2.1-5.4Z" transform="translate(-103.179 -283.822)" fill="#ff8b7b"/><path d="M159.546,434.515s-1.162-.174-1.023,1.232-.959,4.795-.849,6.1h15.111s.349-3.226-2.4-3.324c-3.673-.128-5.016-2.238-5.016-2.238-.273-1.476-1.313-.982-2.859-.825A5.365,5.365,0,0,1,159.546,434.515Z" transform="translate(-101.779 -287.284)" fill="#f8951d"/><path d="M171.649,439a1.5,1.5,0,0,0-1.029.628" transform="translate(-107.204 -289.166)"/><path d="M170.515,439.7a.128.128,0,0,1-.076,0,.139.139,0,0,1-.046-.2,1.639,1.639,0,0,1,1.162-.7.157.157,0,0,1,.163.128.151.151,0,0,1-.128.163,1.348,1.348,0,0,0-.918.581.157.157,0,0,1-.157.023Z" transform="translate(-107.1 -289.086)"/><path d="M172.879,439.56a1.5,1.5,0,0,0-1.029.628" transform="translate(-107.719 -289.4)"/><path d="M171.748,440.245a.162.162,0,0,1-.07,0,.145.145,0,0,1-.052-.2,1.651,1.651,0,0,1,1.162-.7.151.151,0,0,1,.163.128.145.145,0,0,1-.128.163,1.354,1.354,0,0,0-.918.552A.151.151,0,0,1,171.748,440.245Z" transform="translate(-107.617 -289.312)"/><path d="M174.419,440.28a1.5,1.5,0,0,0-1.029.628" transform="translate(-108.364 -289.702)"/><path d="M173.287,440.965a.128.128,0,0,1-.076,0,.145.145,0,0,1-.046-.2,1.651,1.651,0,0,1,1.133-.7.146.146,0,1,1,.035.291,1.348,1.348,0,0,0-.918.581A.157.157,0,0,1,173.287,440.965Z" transform="translate(-108.261 -289.613)"/><path d="M172.577,445.411h-14.9a.145.145,0,1,1,0-.291h14.9a.145.145,0,1,1,0,.291Z" transform="translate(-101.722 -291.729)"/><path d="M168.817,428.152h-10.4l.517-3.592h10.4Z" transform="translate(-102.095 -283.118)" fill="#263238"/><g transform="translate(56.325 141.442)" opacity="0.3"><path d="M168.817,428.152h-10.4l.517-3.592h10.4Z" transform="translate(-158.42 -424.56)" fill="#fff"/></g><path d="M91.445,248.239l-.232.546-.273.668c-.174.448-.355.907-.523,1.366-.325.924-.645,1.848-.889,2.766a22.132,22.132,0,0,0-.889,5.149,9.484,9.484,0,0,0,.145,1.976,4.521,4.521,0,0,0,.424,1.29,3.452,3.452,0,0,0,.779.918,5.346,5.346,0,0,0,1.569.854,13.234,13.234,0,0,0,2.325.581l.337.058.418.064.837.122,1.68.238q3.365.477,6.753.93c4.51.61,9.09,1.162,13.6,1.837l.11,6.044a130,130,0,0,1-14.1,1.406c-2.354.1-4.708.186-7.073.186H92.816a21.891,21.891,0,0,1-4.411-.7,17.354,17.354,0,0,1-4.719-1.982,14.727,14.727,0,0,1-2.255-1.7,15.149,15.149,0,0,1-1.912-2.174,15.8,15.8,0,0,1-2.36-5.01,19.97,19.97,0,0,1-.68-4.882,30.07,30.07,0,0,1,1.162-8.5,39.52,39.52,0,0,1,1.255-3.813c.238-.616.488-1.232.761-1.842l.43-.918.227-.471.279-.546Z" transform="translate(-67.776 -206.951)" fill="#f8951d"/><g transform="translate(12.388 61.676)" opacity="0.2"><path d="M89.666,292.838a6.729,6.729,0,0,0-1.871-4.336c-1.79-1.633-4.841-.535-4.876-.523l-.1-.273c.134-.047,3.266-1.162,5.167.581a6.852,6.852,0,0,1,1.97,4.545Z" transform="translate(-82.82 -287.312)" fill="#fff"/></g><path d="M158.263,292.759h-5.7l-5.9-.273-.663-4.01s5.556-.482,7.2,0c0,0,4.184,2.022,4.737,2.743A1.9,1.9,0,0,1,158.263,292.759Z" transform="translate(-96.893 -226.033)" fill="#ff8b7b"/><path d="M140.711,292.075a.134.134,0,0,1-.1-.052c-1.122-1.29-1.226-5.353-1.226-5.527a.139.139,0,0,1,.139-.145h0a.145.145,0,0,1,.145.139c0,.041.1,4.132,1.162,5.341a.151.151,0,0,1,0,.209A.157.157,0,0,1,140.711,292.075Z" transform="translate(-94.12 -225.233)" fill="#fff"/><path d="M140.165,292.3a.14.14,0,0,1-.145-.139.145.145,0,0,1,.139-.151l3.656-.157a.145.145,0,0,1,.151.139.14.14,0,0,1-.134.151l-3.661.157Z" transform="translate(-94.388 -227.536)" fill="#fff"/><path d="M202.55,290.58h-6.044l-6.265-.3-.721-4.219s5.893-.517,7.643,0c0,0,4.44,2.15,5.021,2.906A2.017,2.017,0,0,1,202.55,290.58Z" transform="translate(-115.12 -225.017)" fill="#ff8b7b"/></g><g transform="translate(122.791 98.986)"><path d="M217.2,236.44s-.506,44.17,0,55.875c.529,12.2,3.667,54.05,3.7,53.887h7.509s6.224-82.01,6.806-90.635a42.56,42.56,0,0,0-2.249-16.07Z" transform="translate(-197.067 -156.554)" fill="#f8951d"/><path d="M263.079,244.486s3.7,41,4.307,52.666,2.226,52.806,2.226,52.806l-7.985-.453s-14.4-82.527-15.884-91.117.291-13.948.291-13.948Z" transform="translate(-208.867 -159.905)" fill="#f8951d"/><g transform="translate(49.588 87.575)" opacity="0.2"><path d="M273.5,258.068a4.649,4.649,0,0,1-3.522-1.424c-2.238-2.36-1.924-6.771-1.912-6.974h.291c0,.046-.314,4.469,1.837,6.736a4.44,4.44,0,0,0,3.458,1.331v.291Z" transform="translate(-268.043 -249.67)" fill="#fff"/></g><g transform="translate(38.665 87.604)" opacity="0.2"><path d="M250.011,260.745a2.418,2.418,0,0,1-.761-.134l.093-.273a1.668,1.668,0,0,0,2.022-.622,2.981,2.981,0,0,0,.541-1.784V249.72h.291v8.212a3.29,3.29,0,0,1-.581,1.959A1.964,1.964,0,0,1,250.011,260.745Z" transform="translate(-249.25 -249.72)" fill="#fff"/></g><g transform="translate(38.567 86.982)" opacity="0.2"><rect width="0.291" height="15.802" fill="#fff"/></g><g transform="translate(39.965 103.386)" opacity="0.2"><path d="M266.738,363.387a.139.139,0,0,1-.139-.116l-15.111-86.224a.144.144,0,1,1,.285-.047l15.111,86.218a.145.145,0,0,1-.122.169Z" transform="translate(-251.486 -276.876)" fill="#fff"/></g><path d="M230.931,425.97l-.157,6.12h-4.928l-1.116-5.469Z" transform="translate(-200.315 -235.934)" fill="#ce7a63"/><path d="M225.124,434.355s1.162-.18.8,1.244.1,4.859-.25,6.178H210.56s.238-3.266,3-3.365a7.448,7.448,0,0,0,5.422-2.272c.54-1.494,1.494-.988,3.01-.831A6.268,6.268,0,0,0,225.124,434.355Z" transform="translate(-194.38 -239.442)" fill="#263238"/><path d="M223.32,438.92a1.2,1.2,0,0,1,.912.633" transform="translate(-199.725 -241.357)"/><path d="M224.131,439.571a.145.145,0,0,1-.128-.087,1.1,1.1,0,0,0-.8-.581.134.134,0,0,1-.122-.151.145.145,0,0,1,.157-.122,1.331,1.331,0,0,1,1.023.721.139.139,0,0,1-.076.18Z" transform="translate(-199.623 -241.235)" fill="#fff"/><path d="M222,439.46a1.2,1.2,0,0,1,.912.634" transform="translate(-199.172 -241.583)"/><path d="M222.8,440.132a.145.145,0,0,1-.128-.087,1.069,1.069,0,0,0-.8-.546.141.141,0,0,1,.035-.279,1.348,1.348,0,0,1,1.023.721.14.14,0,0,1-.076.18A.087.087,0,0,1,222.8,440.132Z" transform="translate(-199.066 -241.482)" fill="#fff"/><path d="M220.32,440.19a1.215,1.215,0,0,1,.912.633" transform="translate(-198.468 -241.889)"/><path d="M221.131,440.866a.134.134,0,0,1-.128-.087,1.069,1.069,0,0,0-.8-.546.138.138,0,1,1,.035-.273,1.319,1.319,0,0,1,1.023.715.139.139,0,0,1-.076.18A.087.087,0,0,1,221.131,440.866Z" transform="translate(-198.367 -241.792)" fill="#fff"/><path d="M225.915,445.381h-14.9a.139.139,0,1,1,0-.273h14.9a.14.14,0,1,1,0,.273Z" transform="translate(-194.502 -243.948)" fill="#fff"/><path d="M222.071,427.9h9.677l.134-3.632H221.99Z" transform="translate(-199.168 -235.222)" fill="#263238"/><path d="M274.77,425.98l1.575,6.056h4.923l-.145-5.411Z" transform="translate(-221.273 -235.938)" fill="#ce7a63"/><path d="M276.375,434.245s-1.162-.174-.8,1.25-.093,4.853.256,6.178h15.111s-.232-3.272-2.993-3.371a7.454,7.454,0,0,1-5.428-2.267c-.54-1.494-1.488-.994-3-.831A6.182,6.182,0,0,1,276.375,434.245Z" transform="translate(-221.582 -239.397)" fill="#263238"/><path d="M288.628,438.81a1.221,1.221,0,0,0-.918.633" transform="translate(-226.693 -241.311)"/><path d="M287.611,439.485a.139.139,0,0,0,.134-.087,1.064,1.064,0,0,1,.8-.546.134.134,0,0,0,.116-.157.128.128,0,0,0-.151-.116,1.325,1.325,0,0,0-1.029.715.139.139,0,0,0,.076.18A.087.087,0,0,0,287.611,439.485Z" transform="translate(-226.593 -241.213)" fill="#fff"/><path d="M289.962,439.36a1.162,1.162,0,0,0-.912.633" transform="translate(-227.254 -241.542)"/><path d="M288.947,440.032a.145.145,0,0,0,.128-.087,1.064,1.064,0,0,1,.8-.546.141.141,0,1,0-.035-.279,1.343,1.343,0,0,0-1.029.721.139.139,0,0,0,.076.18Z" transform="translate(-227.15 -241.44)" fill="#fff"/><path d="M291.628,440.09a1.2,1.2,0,0,0-.918.633" transform="translate(-227.949 -241.847)"/><path d="M290.611,440.762a.145.145,0,0,0,.134-.087,1.052,1.052,0,0,1,.8-.546.141.141,0,0,0-.035-.279,1.337,1.337,0,0,0-1.029.721.14.14,0,0,0,.076.18Z" transform="translate(-227.85 -241.746)" fill="#fff"/><path d="M275.729,445.279h14.9a.139.139,0,0,0,0-.279h-14.9a.139.139,0,1,0,0,.279Z" transform="translate(-221.616 -243.904)" fill="#fff"/><path d="M281.958,427.9l-10.025.116-.663-3.627,10.56-.122Z" transform="translate(-219.807 -235.222)" fill="#263238"/><path d="M263.459,152.23l1.993,2.487,2.034,2.517c1.354,1.674,2.732,3.319,4.115,4.917s2.778,3.15,4.2,4.51c.7.68,1.389,1.331,2.046,1.854.32.262.633.5.9.68.145.11.238.151.36.238l.116.07.052.035h-.052c-.616-.134-.674,0-.581,0a2.581,2.581,0,0,0,.75-.076,15.421,15.421,0,0,0,2.447-.8,55.558,55.558,0,0,0,5.55-2.7c3.743-2.052,7.555-4.405,11.263-6.707l3.743,4.405a89.947,89.947,0,0,1-10.2,9.508,51.416,51.416,0,0,1-6.009,4.173,23.249,23.249,0,0,1-3.749,1.8,12.973,12.973,0,0,1-2.528.674,8.787,8.787,0,0,1-3.9-.2,14.837,14.837,0,0,1-2.569-1.081,17.741,17.741,0,0,1-1.924-1.162A35.328,35.328,0,0,1,268.335,175a65.6,65.6,0,0,1-5.312-5.01c-1.651-1.709-3.191-3.487-4.69-5.26-.732-.9-1.47-1.8-2.179-2.726l-1.058-1.395-1.046-1.459Z" transform="translate(-212.595 -121.286)" fill="#263238"/><path d="M330.81,161.428a22,22,0,0,0,3.487-3.7c.918-1.511,5.748,3.487,5.812,4.2s-5.55,3.906-5.55,3.906Z" transform="translate(-244.744 -123.469)" fill="#ce7a63"/><path d="M335.89,153.242s4.516-5.667,5.643-6.277-1.778,4.76-1.778,4.76,3.906,2.168,3.993,3.6a2.975,2.975,0,0,1-1.691,3.04,1.744,1.744,0,0,1-1.651-.651Z" transform="translate(-246.871 -119.06)" fill="#ce7a63"/><path d="M332.4,159.5s.372-5.847,1.325-5.975,2.906,2.83,2.906,2.83Z" transform="translate(-245.41 -121.827)" fill="#ce7a63"/><path d="M228.23,145.86s-11.042,3.783-11.757,6.579,1.034,24.659,1.127,28.821-3.319,19.539-.953,22.492c2.534,3.167,34.028,4.905,34.574,1.133.709-4.882-1.052-20.6-.866-26.066s-1.517-27.135-2.72-29.239-12.135-3.231-12.135-3.231Z" transform="translate(-196.579 -118.618)" fill="#263238"/><g transform="translate(21.351 47.386)" opacity="0.2"><path d="M219.732,218.727c-.86-2.325.488-10.88,1.482-17.133.244-1.563.459-2.906.581-3.981.732-5.231-1.3-16.924-1.325-17.046l.285-.046c0,.116,2.063,11.879,1.331,17.133-.151,1.069-.36,2.424-.61,3.987-.93,5.87-2.325,14.745-1.494,16.982Z" transform="translate(-219.458 -180.52)" fill="#fff"/></g><path d="M234.081,111.78s-1.441-4.33-.883-6.091A2.667,2.667,0,0,1,235,103.7s.7-4.684,5.335-4.405,10.014-1.389,11.042,1.023-2.65,3.987-2.65,3.987,1.453,1.744.9,3.15-1.837.093-1.837.093Z" transform="translate(-203.808 -98.986)" fill="#263238"/><path d="M245.739,140.975a4.239,4.239,0,0,1-3.127,2.325c-2.563.343-5.492-2.365-5.812-3.487a32.9,32.9,0,0,0,.581-11.223l3.342,2.784,4.853,4.039h0a.977.977,0,0,1-.081.273c-.029.087-.052.244-.081.366a8.361,8.361,0,0,0-.151.889c-.029.238-.046.477-.052.709a9.17,9.17,0,0,0,.18,2.092,7.916,7.916,0,0,0,.349,1.232Z" transform="translate(-205.37 -111.385)" fill="#ce7a63"/><path d="M241.7,156.351a4.83,4.83,0,0,1-3.109-1.1c-3.04-2.47-3.423-8.189-3.435-8.433a.134.134,0,0,1,.134-.151.139.139,0,0,1,.157.134c0,.058.384,5.812,3.33,8.224a4.649,4.649,0,0,0,3.76.971,3.243,3.243,0,0,0,2.406-1.505c1.6-2.6,0-7.555-.029-7.637a.134.134,0,0,1,.093-.18.139.139,0,0,1,.18.093c.07.209,1.68,5.167,0,7.875a3.487,3.487,0,0,1-2.615,1.639A5.7,5.7,0,0,1,241.7,156.351Z" transform="translate(-204.683 -118.955)" fill="#fff"/><g transform="translate(35.111 22.122)" opacity="0.2"><path d="M248.031,143.286c-1.813-.378-4.068-1.848-4.719-3.69-.43-1.2,0-2.418.465-2.546l4.126,3.435c-.029.238-.046.477-.052.709a9.171,9.171,0,0,0,.18,2.092Z" transform="translate(-243.135 -137.05)"/></g><path d="M235.415,112.2a7.5,7.5,0,0,1,10.31-7.5c5.37,2.174,6.137,10.3,4.969,15.233-1.3,5.475-8.055,8-12.2,3.778-2.772-2.807-2.7-6.033-3.051-11.513" transform="translate(-204.782 -101.146)" fill="#ce7a63"/><g transform="translate(30.378 7.256)" opacity="0.2"><path d="M240.162,112.133s1.052,2.208-.442,2.8,0,3.278,0,3.278l-3.133,1.162a5.98,5.98,0,0,1-1.6-3.952c0-2.377.134-3.952.134-3.952Z" transform="translate(-234.99 -111.47)"/></g><path d="M235,108.674s3.342.93,4.731.279-.744-1.668.325-2.551,7.038-.5,8.718.378.1-3.156-3.237-3.667S235.581,103.345,235,108.674Z" transform="translate(-204.616 -100.657)" fill="#263238"/><path d="M237.978,123.86s-3.185,2.947-.523,7.334c1.685,2.778,6.393,5.167,9.345,4.742,4.179-.581,4.568-9.433,4.568-9.433a2.208,2.208,0,0,0-2.819-.331c-1.587,1.017-3.04-1.064-4.318-1.064s-2.5,1.953-3.487,1.162-.442-3.2-.442-3.2Z" transform="translate(-205.2 -109.073)" fill="#263238"/><path d="M231.332,121.973a5.231,5.231,0,0,0,2.511,3.1c1.61.86,2.813-.488,2.7-2.214-.11-1.558-1.075-3.882-2.854-4.033a2.312,2.312,0,0,0-2.325,3.15" transform="translate(-203.041 -107.29)" fill="#ce7a63"/><path d="M249.88,121.958c0,.448.238.808.529.808s.529-.36.529-.808-.238-.808-.535-.808-.523.36-.523.808" transform="translate(-210.849 -108.269)" fill="#263238"/><path d="M258.29,121.838c0,.448.238.808.535.808s.523-.366.523-.808-.238-.808-.529-.808-.529.36-.529.808" transform="translate(-214.371 -108.218)" fill="#263238"/><path d="M250.52,129.5a8.776,8.776,0,0,0,4.4.5s-.285,1.93-2.057,1.964C250.723,132.017,250.52,129.5,250.52,129.5Z" transform="translate(-211.117 -111.766)" fill="#fff"/><path d="M259.5,118.218a.2.2,0,0,1-.186-.11,1.127,1.127,0,0,0-.68-.581,1.313,1.313,0,0,0-.889.134.216.216,0,1,1-.221-.372,1.744,1.744,0,0,1,1.22-.186,1.552,1.552,0,0,1,.947.8.221.221,0,0,1-.081.3.25.25,0,0,1-.11.023Z" transform="translate(-214.005 -106.557)" fill="#263238"/><path d="M247.742,118.5a.308.308,0,0,1-.1,0,.221.221,0,0,1-.1-.291,1.744,1.744,0,0,1,.924-.825,1.563,1.563,0,0,1,1.22.145.227.227,0,0,1,.1.3.221.221,0,0,1-.3.093,1.122,1.122,0,0,0-.883-.122,1.331,1.331,0,0,0-.674.581A.209.209,0,0,1,247.742,118.5Z" transform="translate(-209.862 -106.665)" fill="#263238"/><path d="M255,121.3a4.835,4.835,0,0,0,1.447,2.325c1.122.936-1.087,1.778-1.087,1.778Z" transform="translate(-212.993 -108.331)" fill="#ba4d3c"/><path d="M212.145,162.479l-9.584,9.694c-1.563,1.633-3.15,3.231-4.649,4.876a59.468,59.468,0,0,0-4.068,4.8c-.285.378-.54.744-.738,1.046s-.331.581-.343.506a1.2,1.2,0,0,1,0-.209V183.1a1.221,1.221,0,0,0,0-.145v-.279a1.447,1.447,0,0,0-.157-.552c-.081-.1-.029.116.116.378a11.623,11.623,0,0,0,1.558,2.028c.674.726,1.424,1.47,2.214,2.208,3.185,2.906,6.87,5.765,10.461,8.514l-2.8,5.056c-2.284-.924-4.423-1.935-6.585-3.04a70.989,70.989,0,0,1-6.393-3.691c-1.052-.7-2.1-1.43-3.144-2.278a21.323,21.323,0,0,1-3.179-3.1,10.246,10.246,0,0,1-1.587-2.662,7.608,7.608,0,0,1-.535-2.249,5.76,5.76,0,0,1,0-.715v-.366l.029-.3a9.934,9.934,0,0,1,.18-1.069,14.263,14.263,0,0,1,.988-2.726c.343-.721.686-1.36,1.035-1.964a62.491,62.491,0,0,1,4.388-6.312c1.529-1.924,3.063-3.789,4.649-5.573s3.22-3.534,4.876-5.231,3.33-3.359,5.143-5Z" transform="translate(-182.721 -122.044)" fill="#263238"/><path d="M216.239,220.22s3.214,2.069,3.423,4-1.226,6.393-2.575,6.184-2.371-.43-2.993-2.377S216.239,220.22,216.239,220.22Z" transform="translate(-195.823 -149.761)" fill="#ce7a63"/><g transform="translate(19.998 86.784)" opacity="0.2"><path d="M217.13,257.493v-.285c5.777-.465,5.6-8.816,5.6-8.9h.291C223,248.386,223.18,257.01,217.13,257.493Z" transform="translate(-217.13 -248.31)" fill="#fff"/></g></g><g transform="translate(101.845 188.182)"><path d="M210.621,278.253H175.367a1.232,1.232,0,0,1-1.162-1.621l7.654-23.317a1.238,1.238,0,0,1,1.162-.854h35.254a1.232,1.232,0,0,1,1.162,1.621L211.784,277.4a1.244,1.244,0,0,1-1.162.849Z" transform="translate(-158.181 -252.46)" fill="#f8951d"/><g transform="translate(15.96)" opacity="0.6"><path d="M210.621,278.253H175.367a1.232,1.232,0,0,1-1.162-1.621l7.654-23.317a1.238,1.238,0,0,1,1.162-.854h35.254a1.232,1.232,0,0,1,1.162,1.621L211.784,277.4a1.244,1.244,0,0,1-1.162.849Z" transform="translate(-174.141 -252.46)" fill="#fff"/></g><g transform="translate(36.45 10.559)" opacity="0.5"><path d="M215.094,273.419a3.487,3.487,0,0,1-3.319,2.784,2.29,2.29,0,0,1-2.325-2.784,3.487,3.487,0,0,1,3.313-2.79,2.325,2.325,0,0,1,2.331,2.79Z" transform="translate(-209.396 -270.629)" fill="#fff"/></g><path d="M154.065,296l-.744,2.243a1.052,1.052,0,0,0,1,1.383h46.692a1.04,1.04,0,0,0,1-.721l.971-2.906Z" transform="translate(-149.439 -270.695)" fill="#f8951d"/><g transform="translate(3.829 25.305)" opacity="0.6"><path d="M154.065,296l-.744,2.243a1.052,1.052,0,0,0,1,1.383h46.692a1.04,1.04,0,0,0,1-.721l.971-2.906Z" transform="translate(-153.268 -296)" fill="#fff"/></g><path d="M211.676,295.991H174.405a.145.145,0,1,1,0-.291h37.271a.145.145,0,0,1,0,.291Z" transform="translate(-158.231 -270.57)" fill="#f8951d"/><path d="M272.7,278.253h35.254a1.232,1.232,0,0,0,1.162-1.621l-7.654-23.317a1.238,1.238,0,0,0-1.162-.854H265.048a1.238,1.238,0,0,0-1.162,1.621L271.54,277.4a1.244,1.244,0,0,0,1.162.849Z" transform="translate(-195.743 -252.46)" fill="#f8951d"/><g transform="translate(68.082)" opacity="0.6"><path d="M272.7,278.253h35.254a1.232,1.232,0,0,0,1.162-1.621l-7.654-23.317a1.238,1.238,0,0,0-1.162-.854H265.048a1.238,1.238,0,0,0-1.162,1.621L271.54,277.4a1.244,1.244,0,0,0,1.162.849Z" transform="translate(-263.825 -252.46)" fill="#fff"/></g><g transform="translate(72.888 2.371)" opacity="0.4"><path d="M279.351,277.59h28.78a1.005,1.005,0,0,0,.953-1.319l-6.242-19.034a1.011,1.011,0,0,0-.959-.7H273.1a1.011,1.011,0,0,0-.959,1.325L278.4,276.9a1,1,0,0,0,.953.692Z" transform="translate(-272.094 -256.54)" fill="#fff"/></g><path d="M326.118,296l.744,2.243a1.052,1.052,0,0,1-1,1.383H279.17a1.04,1.04,0,0,1-1-.721L277.2,296Z" transform="translate(-201.344 -270.695)" fill="#f8951d"/><g transform="translate(75.855 25.305)" opacity="0.4"><path d="M326.118,296l.744,2.243a1.052,1.052,0,0,1-1,1.383H279.17a1.04,1.04,0,0,1-1-.721L277.2,296Z" transform="translate(-277.2 -296)" fill="#fff"/></g><rect width="141.494" height="4.277" transform="translate(3.365 28.902)"/><g transform="translate(3.365 28.902)" opacity="0.8"><rect width="141.494" height="4.277" fill="#fff"/></g><path d="M159.39,309.55l-12.71,79.93,2.551.058,15.75-79.988Z" transform="translate(-146.68 -276.37)"/><g transform="translate(0 33.18)" opacity="0.8"><path d="M159.39,309.55l-12.71,79.924,2.551.064,15.75-79.988Z" transform="translate(-146.68 -309.55)" fill="#fff"/></g><path d="M371.621,309.55l12.71,79.93-2.551.058L366.03,309.55Z" transform="translate(-238.548 -276.37)"/><g transform="translate(127.482 33.18)" opacity="0.8"><path d="M371.621,309.55l12.71,79.924-2.551.064L366.03,309.55Z" transform="translate(-366.03 -309.55)" fill="#fff"/></g><rect width="117.433" height="1.639" transform="translate(12.873 37.602)"/><g transform="translate(12.873 37.602)" opacity="0.8"><rect width="117.433" height="1.639" fill="#fff"/></g></g><g transform="translate(187.567 148.245)"><path d="M359.848,312.971s6.637,15.047-7.6,18.842c-9.735,2.6-23.916-3.94-30.192-1.871,0,0,2.737.965,5.9,11.565s8.6,30.4,8.6,30.4l-7.555.308s-20.19-41.217-20.6-48.7,36.957-12.844,36.957-12.844Z" transform="translate(-300.136 -236.903)" fill="#263238"/><path d="M384.622,316.736s6.393,16.134-8.363,17.691c-11.449,1.209-21.934.1-30.407-.79,0,0,4.15.2,7.317,10.8s9.107,29.175,9.107,29.175h-9.3s-23.782-40.566-24.189-48.046,39.6-10.99,39.6-10.99Z" transform="translate(-308.671 -238.541)" fill="#263238"/><g transform="translate(18.204 85.176)" opacity="0.2"><path d="M341.389,381.223c-.645-1.744-15.889-42.426-15.889-44.995s22.631-5.6,25.212-5.928l.035.291c-10.031,1.279-24.956,3.865-24.956,5.637,0,2.493,15.692,44.472,15.872,44.9Z" transform="translate(-325.5 -330.3)" fill="#fff"/></g><path d="M380.2,417.83l1.186,6.044H376.46l-2.79-5.347Z" transform="translate(-327.47 -281.784)" fill="#b55b52"/><path d="M378.182,426.49c.18,1.465-4.7.25-5.19,1.011s-1.162,3.307-1.912,4.591-5.05,5.411-5.05,5.411h9.154l1.383-1.993.453,1.993h2.528S378.589,427.519,378.182,426.49Z" transform="translate(-324.27 -285.411)" fill="#263238"/><path d="M368.682,419.746h11.67l-.738-3.586H367.95Z" transform="translate(-325.075 -281.084)" fill="#263238"/><g transform="translate(42.875 135.076)" opacity="0.3"><path d="M368.682,419.746h11.67l-.738-3.586H367.95Z" transform="translate(-367.95 -416.16)" fill="#fff"/></g><path d="M352.161,213.473a.267.267,0,0,1-.262-.046.273.273,0,0,1-.035-.384,2.65,2.65,0,0,1,2.255-.988.262.262,0,0,1,.232.3.267.267,0,0,1-.3.238,2.145,2.145,0,0,0-1.778.8.2.2,0,0,1-.116.081" transform="translate(-318.311 -195.598)" fill="#263238"/><path d="M352.528,216.52a11.916,11.916,0,0,1-1.058,3.1,1.906,1.906,0,0,0,1.621,0Z" transform="translate(-318.172 -197.471)" fill="#a02724"/><path d="M353.72,216.275c.122.442,0,.866-.3.953s-.622-.209-.75-.651,0-.866.291-.947.628.2.756.645" transform="translate(-318.656 -197.092)" fill="#263238"/><path d="M352.6,215.62H351.44s.779.668,1.162,0" transform="translate(-318.16 -197.094)" fill="#263238"/><path d="M352.584,204.13s-2.528.645-.453,4.44l1.889-3.882Z" transform="translate(-318.107 -192.282)" fill="#263238"/><path d="M371.82,191.564s-2.15-8.41,4.708-7.788,5.649,6.393,5.649,6.393,4.132.145,2.261,4.882-9.241,1.714-9.241,1.714A8.419,8.419,0,0,1,371.82,191.564Z" transform="translate(-326.562 -183.743)" fill="#263238"/><path d="M373.542,231.926a7.079,7.079,0,0,0-4.173.721c.854-1.616.139-3.446-.819-5.114l4.748-7.143c.291,3.487,1.366,9.677,4.289,11.217C377.587,231.607,378.546,232.438,373.542,231.926Z" transform="translate(-325.326 -199.092)" fill="#b55b52"/><g transform="translate(43.224 24.21)" opacity="0.2"><path d="M371.363,225.4l-2.813,4.225a10.911,10.911,0,0,1,.831,1.744c1.343-.581,2.83-2.685,2.563-4.2a5.138,5.138,0,0,0-.581-1.744" transform="translate(-368.55 -225.4)"/></g><path d="M367.924,204.062c.645,5.475,1.04,7.782-1.162,11.042-3.359,4.928-10.229,4.527-12.5-.645-2.052-4.649-2.766-12.838,2.145-15.953a7.555,7.555,0,0,1,11.548,5.539" transform="translate(-318.685 -189.436)" fill="#b55b52"/><path d="M358.973,195.049s4.987-1.389,8.445,1.744,4.37,11.356-.819,16.854c.163,1.668-7.05,2.5-9.3-2.168-.814-1.7-1.97-2.8-2.511-8.66l-2.092-.5C350.958,201.587,351.133,194.561,358.973,195.049Z" transform="translate(-318.312 -188.35)" fill="#263238"/><path d="M362.811,214.8a4.022,4.022,0,0,1-1.662,2.586c-1.162.8-2.208-.134-2.261-1.476-.047-1.2.5-3.069,1.854-3.33a1.807,1.807,0,0,1,2.069,2.22" transform="translate(-321.278 -195.809)" fill="#b55b52"/><path d="M359.712,220.524a.918.918,0,1,0,.668-1.1A.918.918,0,0,0,359.712,220.524Z" transform="translate(-321.614 -198.674)" fill="#fff"/><path d="M377.825,202.146h0c-6.625-.581-6.561-7.445-6.556-7.515a.145.145,0,0,1,.151-.151.151.151,0,0,1,.151.157c0,.267-.058,6.62,6.283,7.207a.151.151,0,1,1,0,.3Z" transform="translate(-326.465 -188.24)" fill="#f8951d"/><path d="M367.8,196.4h0c-.79-.076-4.766-.511-5.114-1.488a.546.546,0,0,1,.192-.581c1.331-1.308,5.091,1.68,5.231,1.807a.145.145,0,0,1,0,.209.151.151,0,0,1-.209,0h0A.134.134,0,0,1,367.8,196.4Zm-4.022-2.11a.965.965,0,0,0-.709.25c-.157.151-.122.244-.116.273.209.581,2.807,1.064,4.58,1.255C366.556,195.355,364.859,194.291,363.778,194.291Z" transform="translate(-322.861 -188.04)" fill="#f8951d"/><path d="M369.65,193.738a.151.151,0,0,1-.151-.145h0a.14.14,0,0,1-.116-.064c-.459-.651-2.737-3.935-2.226-4.835a.535.535,0,0,1,.581-.244c1.86.145,2.063,4.946,2.075,5.149a.151.151,0,0,1-.145.157Zm-2.005-5.01c-.169,0-.209.07-.227.093-.3.54,1.035,2.819,2.052,4.283-.122-1.529-.581-4.277-1.744-4.376Z" transform="translate(-324.711 -185.708)" fill="#f8951d"/><path d="M384.089,276.881c-3.894,6.84-27.17,5.893-28.449,4.429s3.749-19.336,3.737-23.735h0c-.029-4.376-4.452-9.363-2.824-12.6a13.949,13.949,0,0,1,3.069-3.632,39.892,39.892,0,0,1,3.214-2.592l.209-.145h0c.2-.151.389-.279.552-.389.384-.267.616-.413.616-.413a54.151,54.151,0,0,1,8.038-1.244l.732-.041a18.987,18.987,0,0,1,4.684.262c4.981,1.046,5.812,5.469,5.986,10.409S387.983,270.047,384.089,276.881Z" transform="translate(-319.832 -205.828)" fill="#f8951d"/><g transform="translate(38.185 48.015)" opacity="0.2"><path d="M360.165,294.425h-.285c.285-4.248,5.759-27.827,5.812-28.065l.285.07C365.918,266.645,360.455,290.194,360.165,294.425Z" transform="translate(-359.88 -266.36)" fill="#fff"/></g><g transform="translate(43.015 30.667)" opacity="0.2"><path d="M378.337,236.51v.046c-.232.912-3.278,3.353-6.079,3.26a7.8,7.8,0,0,1-4.068-1.064l.209-.145h0c.2-.151.389-.279.552-.389a12.17,12.17,0,0,0,4.155.517,6.532,6.532,0,0,0,4.492-2.168h0Z" transform="translate(-368.19 -236.51)"/></g><path d="M366.958,252.148a10.057,10.057,0,0,1-7.032,8.944h0c-.029-4.376-4.452-9.363-2.825-12.6a13.948,13.948,0,0,1,3.069-3.632C363.192,245.412,367.312,247.115,366.958,252.148Z" transform="translate(-320.38 -209.34)" fill="#b55b52"/><path d="M346.656,254.167a87.66,87.66,0,0,1-2.493,11.042,47.125,47.125,0,0,1-1.982,5.562,20.156,20.156,0,0,1-1.569,2.981,10.161,10.161,0,0,1-1.418,1.744l-.267.244-.314.256a5.34,5.34,0,0,1-.7.459c-.209.116-.418.221-.633.325l-.529.2c-.186.076-.343.122-.494.169l-.459.134c-.3.076-.581.134-.86.2l-.8.139-.773.11c-1.011.122-1.982.2-2.947.25-1.918.1-3.789.093-5.649.052a100.336,100.336,0,0,1-10.752-.407l-.262-4.068c3.574-.407,7.183-1.25,10.705-1.685,1.744-.227,3.516-.471,5.2-.773.843-.145,1.668-.308,2.441-.494l.581-.145.529-.157.453-.157.186-.076a.858.858,0,0,0,.145-.07l.1-.058h-.035a1.607,1.607,0,0,0-.139.087l-.052.035h0a4.24,4.24,0,0,1,.227-.407,16.682,16.682,0,0,0,.831-1.895c.54-1.465,1.011-3.109,1.447-4.766.866-3.319,1.6-6.835,2.325-10.211Z" transform="translate(-302.374 -212.662)" fill="#b55b52"/><path d="M294.214,292.78l5.591-.273h6.009l.68-3.981s-5.556-.482-7.2,0c0,0-4.185,2.022-4.737,2.743A1.9,1.9,0,0,0,294.214,292.78Z" transform="translate(-294.177 -227.539)" fill="#b55b52"/><path d="M369.538,236.391s-.215-1.232.5-1.621,3.714-2.639,4.905-2.784,2.389,2.714,3.208,2.668S371.566,237.013,369.538,236.391Z" transform="translate(-325.727 -203.946)" fill="#f8951d"/><path d="M416.478,241.463c3.969,1.685,4.708,4.376,4.2,8.427-1.343,10.763-4.748,36.614-6.939,40.52-2.784,4.952-41.781,5.463-43.769.953s4.2-42.56,7.555-46.157C380.288,242.213,405.128,236.628,416.478,241.463Z" transform="translate(-325.76 -207.123)"/><g transform="translate(43.827 32.443)" opacity="0.6"><path d="M416.478,241.463c3.969,1.685,4.708,4.376,4.2,8.427-1.343,10.763-4.748,36.614-6.939,40.52-2.784,4.952-41.781,5.463-43.769.953s4.2-42.56,7.555-46.157C380.288,242.213,405.128,236.628,416.478,241.463Z" transform="translate(-369.587 -239.567)" fill="#fff"/></g><g transform="translate(47.327 35.217)" opacity="0.5"><path d="M376.191,292.671l-.581-.029c0-.238,1.162-24.41,4.882-38.66,2.29-8.718,5.98-9.613,6.131-9.642l.122.581c-.035,0-3.487.889-5.69,9.229C377.336,268.343,376.2,292.427,376.191,292.671Z" transform="translate(-375.61 -244.34)" fill="#fff"/></g><path d="M357.576,327.47s-2.2.349-7.741,1.284c-1.848.314-3.656.61-5.231.86a6.532,6.532,0,0,0-5.5,6.457h0a6.538,6.538,0,0,0,6.538,6.544h44.89a10.078,10.078,0,0,0,9.775-7.375,25.874,25.874,0,0,0,.715-7.77Z" transform="translate(-312.992 -243.939)"/><g transform="translate(26.108 83.531)" opacity="0.5"><path d="M357.576,327.47s-2.2.349-7.741,1.284c-1.848.314-3.656.61-5.231.86a6.532,6.532,0,0,0-5.5,6.457h0a6.538,6.538,0,0,0,6.538,6.544h44.89a10.078,10.078,0,0,0,9.775-7.375,25.874,25.874,0,0,0,.715-7.77Z" transform="translate(-339.1 -327.47)" fill="#fff"/></g><rect width="3.255" height="46.227" transform="translate(64.571 99.17)"/><g transform="translate(64.571 99.17)" opacity="0.5"><rect width="3.255" height="46.227" fill="#fff"/></g><path d="M433.113,427.9h2.6v-1.319A8.718,8.718,0,0,0,427,417.86H413.26v2.6h13.733a6.131,6.131,0,0,1,6.12,6.126Z" transform="translate(-344.051 -281.796)"/><g transform="translate(69.209 136.064)" opacity="0.6"><path d="M433.113,427.9h2.6v-1.319A8.718,8.718,0,0,0,427,417.86H413.26v2.6h13.733a6.131,6.131,0,0,1,6.12,6.126Z" transform="translate(-413.26 -417.86)" fill="#fff"/></g><circle cx="4.44" cy="4.44" r="4.44" transform="translate(84.085 148.666) rotate(-45)"/><g transform="translate(84.085 142.387)" opacity="0.4"><circle cx="4.44" cy="4.44" r="4.44" transform="translate(0 6.279) rotate(-45)" fill="#fff"/></g><g transform="translate(88.126 146.426)" opacity="0.5"><path d="M445.81,437.928a2.238,2.238,0,1,0,2.238-2.238A2.238,2.238,0,0,0,445.81,437.928Z" transform="translate(-445.81 -435.69)" fill="#fff"/></g><circle cx="4.44" cy="4.44" r="4.44" transform="translate(61.103 144.994) rotate(-9.24)"/><g transform="translate(61.103 143.568)" opacity="0.4"><circle cx="4.44" cy="4.44" r="4.44" transform="translate(0 1.426) rotate(-9.24)" fill="#fff"/></g><g transform="translate(63.961 146.426)" opacity="0.5"><circle cx="2.238" cy="2.238" r="2.238" fill="#fff"/></g><path d="M364.84,427.889h2.6v-1.319a6.131,6.131,0,0,1,6.12-6.126H387.3v-2.6H373.563a8.718,8.718,0,0,0-8.718,8.718Z" transform="translate(-323.772 -281.788)"/><g transform="translate(41.068 136.052)" opacity="0.6"><path d="M364.84,427.889h2.6v-1.319a6.131,6.131,0,0,1,6.12-6.126H387.3v-2.6H373.563a8.718,8.718,0,0,0-8.718,8.718Z" transform="translate(-364.84 -417.84)" fill="#fff"/></g><circle cx="4.44" cy="4.44" r="4.44" transform="matrix(0.231, -0.973, 0.973, 0.231, 37.033, 151.972)"/><g transform="translate(37.033 143.331)" opacity="0.4"><circle cx="4.44" cy="4.44" r="4.44" transform="matrix(0.231, -0.973, 0.973, 0.231, 0, 8.641)" fill="#fff"/></g><g transform="translate(40.132 146.426)" opacity="0.5"><circle cx="2.238" cy="2.238" r="2.238" fill="#fff"/></g><rect width="6.021" height="8.828" transform="translate(63.188 133.268)"/><g transform="translate(63.188 133.268)" opacity="0.6"><rect width="6.021" height="8.828" fill="#fff"/></g><rect width="6.021" height="8.828" transform="translate(63.188 98.676)"/><g transform="translate(63.188 98.676)" opacity="0.6"><rect width="6.021" height="8.828" fill="#fff"/></g><path d="M353.227,417.83l1.191,6.044H349.49l-2.79-5.347Z" transform="translate(-316.175 -281.784)" fill="#b55b52"/><path d="M351.242,426.49c.18,1.465-4.7.25-5.2,1.011s-1.162,3.307-1.912,4.591-5.045,5.411-5.045,5.411h9.148l1.383-1.993.453,1.993H352.6S351.632,427.519,351.242,426.49Z" transform="translate(-312.987 -285.411)" fill="#263238"/><path d="M341.712,419.746h11.67l-.732-3.586H340.98Z" transform="translate(-313.779 -281.084)" fill="#263238"/><g transform="translate(27.201 135.076)" opacity="0.3"><path d="M341.712,419.746h11.67l-.732-3.586H340.98Z" transform="translate(-340.98 -416.16)" fill="#fff"/></g></g></g></svg>