<svg xmlns="http://www.w3.org/2000/svg" width="250" height="219.058" viewBox="0 0 250 219.058"><g transform="translate(-19.105 -55)"><g transform="translate(19.105 55)"><rect width="19.677" height="0.149" transform="translate(224.916 204.074)" fill="#ebebeb"/><rect width="5.163" height="0.149" transform="translate(168.92 205.69)" fill="#ebebeb"/><rect width="11.401" height="0.149" transform="translate(212.921 198.561)" fill="#ebebeb"/><rect width="25.66" height="0.149" transform="translate(8.466 199.559)" fill="#ebebeb"/><rect width="3.761" height="0.149" transform="translate(39.42 199.559)" fill="#ebebeb"/><rect width="55.657" height="0.149" transform="translate(55.408 202.066)" fill="#ebebeb"/><path d="M156.315,223.017H41.6a3.392,3.392,0,0,1-3.392-3.392V58.363A3.392,3.392,0,0,1,41.6,55H156.315a3.392,3.392,0,0,1,3.392,3.392V219.625A3.392,3.392,0,0,1,156.315,223.017ZM41.6,55.119a3.25,3.25,0,0,0-3.244,3.244V219.625a3.25,3.25,0,0,0,3.244,3.244H156.315a3.25,3.25,0,0,0,3.244-3.244V58.363a3.25,3.25,0,0,0-3.244-3.244Z" transform="translate(-38.21 -55)" fill="#ebebeb"/><path d="M372.617,223.017H257.892a3.4,3.4,0,0,1-3.392-3.392V58.363A3.4,3.4,0,0,1,257.892,55H372.617A3.392,3.392,0,0,1,376,58.363V219.625A3.392,3.392,0,0,1,372.617,223.017ZM257.892,55.119a3.25,3.25,0,0,0-3.244,3.244V219.625a3.25,3.25,0,0,0,3.244,3.244H372.617a3.25,3.25,0,0,0,3.244-3.244V58.363a3.25,3.25,0,0,0-3.244-3.244Z" transform="translate(-125.998 -55)" fill="#ebebeb"/><path d="M197.214,342.052h5.062a.743.743,0,0,1,.743.743v1.782a.743.743,0,0,0,.743.743h7.415a.743.743,0,0,0,.749-.743v-6.535h0a.743.743,0,0,1,.743-.737h1.58a.743.743,0,0,0,.743-.743V333a.743.743,0,0,1,.743-.743h2.59a.743.743,0,0,1,.743.743v1.052a.743.743,0,0,0,.749.749h.238a.743.743,0,0,0,.743-.743v-3.891a.743.743,0,0,1,.743-.743H224.1a.743.743,0,0,1,.743.743v3.9a.743.743,0,0,0,.743.743h.8a.743.743,0,0,0,.743-.743v-7.926h0V322.2h.154v2.424l.048-.065,5.9-3.387c.125-.137.2,0,.2-.184v-4.848l.4-.291,7.367-5.288v-2.1h.16v1.99h.03v23.557a.743.743,0,0,0,.743.743h.968a.743.743,0,0,0,.743-.743l.232-8.793a.7.7,0,0,1,.059-.244l1.444-3.006h.107v-3.4a.594.594,0,0,1,.594-.594h.291v-2.412h.16v2.412h.149a.594.594,0,0,1,.594.594v.154h.677v-.154a.594.594,0,0,1,.594-.594H249v-2.412h.16v2.412h.178a.594.594,0,0,1,.594.594v3.4h.107l1.444,3.006a.594.594,0,0,1,.059.244l.238,8.787a.743.743,0,0,0,.743.743h1.361a.743.743,0,0,1,.743.743v1.022a.743.743,0,0,0,.743.743h.974a.743.743,0,0,1,.731.594l2.59,13.6a.981.981,0,0,1,0,.137.737.737,0,0,1-.743.743H197.22C197.06,352.33,197.214,342.052,197.214,342.052Z" transform="translate(-102.719 -157.874)" fill="#e0e0e0"/><path d="M178.183,373.248s-27.751-14.057-32.023-14.372-18.78,13.439-18.78,13.439Z" transform="translate(-74.402 -178.335)" fill="#f0f0f0"/><path d="M292.15,370.5s20.883-18.382,28.755-18.691,64.848,17.758,64.848,17.758Z" transform="translate(-141.279 -175.466)" fill="#f0f0f0"/><path d="M122.545,373.648s-40.1-14.057-46.276-14.372S49.13,372.715,49.13,372.715Z" transform="translate(-42.642 -178.497)" fill="#ebebeb"/><ellipse cx="8.098" cy="5.882" rx="8.098" ry="5.882" transform="translate(190.475 148.801) rotate(-53.76)" fill="#e6e6e6"/><path d="M337.7,259.481c8.11-7.664,18.941-8.7,24.193-2.3s2.929,17.794-5.181,25.458-18.941,8.7-24.193,2.305S329.591,267.152,337.7,259.481Z" transform="translate(-156.524 -135.358)" fill="#ebebeb"/><path d="M399.778,262.129c5.763-5.442,13.457-6.173,17.182-1.634s2.085,12.643-3.678,18.085-13.451,6.179-17.182,1.634S394.045,267.577,399.778,262.129Z" transform="translate(-182.662 -137.197)" fill="#e6e6e6"/><ellipse cx="14.396" cy="10.587" rx="14.396" ry="10.587" transform="matrix(0.667, -0.745, 0.745, 0.667, 212.671, 147.494)" fill="#ebebeb"/><path d="M377.014,250.761c7.943-7.51,18.554-8.52,23.7-2.258s2.87,17.431-5.074,24.953-18.554,8.52-23.7,2.258S369.076,258.271,377.014,250.761Z" transform="translate(-172.547 -131.872)" fill="#f0f0f0"/><path d="M353.7,273.646c4.325-4.343,10.1-4.925,12.892-1.3s1.568,10.1-2.757,14.413-10.1,4.925-12.892,1.307S349.376,277.989,353.7,273.646Z" transform="translate(-164.533 -142.25)" fill="#f0f0f0"/><ellipse cx="8.098" cy="5.882" rx="8.098" ry="5.882" transform="translate(218.972 153.638) rotate(-53.76)" fill="#f0f0f0"/><path d="M392.293,308.858l-5.49,4.575c.44,6.464.8,21.341.8,21.341l1.949,10.4-17.2.143s.784-8.781.784-9.262,3.321-17.277,3.321-17.277l1.188-9.429-8.882-2.454-1.616-4.206-6.535-3.309-3.185-4.4,1.23-.267,3.517,4.058,4.105.8-1.782-3.743h1.955l4.925,8.686,6.3,1.159-.826-12.168c6.06,1.711,6.648-1.4,6.648-1.4s2.079,16.368,2.81,18.234l3.244-1.467,3.523-5h1.563Z" transform="translate(-167.775 -151.238)" fill="#e6e6e6"/><path d="M121.345,294.768c-3.03-3.042-7.082-3.452-9.043-.915s-1.1,7.07,1.937,10.1,7.076,3.452,9.043.915S124.375,297.816,121.345,294.768Z" transform="translate(-67.856 -151.27)" fill="#e6e6e6"/><path d="M135.1,264.693c-7.872-7.438-18.382-8.436-23.48-2.234s-2.846,17.271,5.026,24.709,18.382,8.442,23.48,2.234S142.979,272.108,135.1,264.693Z" transform="translate(-66.896 -137.552)" fill="#ebebeb"/><path d="M81.6,267.211c-5.591-5.282-13.071-5.995-16.677-1.586s-2.02,12.269,3.565,17.55,13.071,5.995,16.677,1.586S87.188,272.5,81.6,267.211Z" transform="translate(-48.267 -139.314)" fill="#e6e6e6"/><path d="M71.286,284.611c-5.591-5.282-13.071-5.995-16.677-1.586s-2.026,12.269,3.565,17.55,13.112,5.995,16.677,1.586S76.9,289.9,71.286,284.611Z" transform="translate(-44.081 -146.377)" fill="#ebebeb"/><path d="M97.463,256.178c-7.724-7.29-18.008-8.27-23-2.192s-2.786,16.915,4.925,24.2,18.008,8.27,23,2.192S105.187,263.468,97.463,256.178Z" transform="translate(-51.841 -134.146)" fill="#f0f0f0"/><ellipse cx="7.896" cy="10.872" rx="7.896" ry="10.872" transform="translate(42.745 136.438) rotate(-36.24)" fill="#f0f0f0"/><path d="M74.794,302.668c-3.03-3.042-7.076-3.452-9.043-.915s-1.093,7.07,1.937,10.1,7.082,3.452,9.043.915S77.83,305.716,74.794,302.668Z" transform="translate(-48.962 -154.477)" fill="#f0f0f0"/><path d="M80.665,312.531l5.347,4.45c-.422,6.268-.772,20.711-.772,20.711l-1.9,10.1,16.689.137s-.755-8.526-.755-8.989-3.226-16.8-3.226-16.8l-1.141-9.149,8.609-2.376,1.568-4.076,6.327-3.22,3.089-4.266-1.188-.261-3.41,3.945-3.987.772,1.705-3.624h-1.9l-4.753,8.407-6.108,1.123.8-11.805c-5.882,1.658-6.452-1.366-6.452-1.366s-2.032,15.9-2.739,17.717l-3.149-1.426-3.416-4.842H78.39Z" transform="translate(-54.518 -152.914)" fill="#f5f5f5"/><path d="M316.4,125.874l19.885-1.159a3.624,3.624,0,0,1,2.014.475h0c6.571,5.692,13.665,1.9,16.778-.351a7.676,7.676,0,0,1,4.052-1.456l22.149-1.265c8.318-.481,9.637-12.233,1.628-14.508l-.309-.083c8.264-7.724-11.674-21.881-31.138.44,1.188-7.129-17.045-3.517-22.113,6.417C326.981,108.163,310.078,120.141,316.4,125.874Z" transform="translate(-150.551 -71.619)" fill="#f0f0f0"/><path d="M107.63,157.522l-12.209-.232-1.01.428a20.034,20.034,0,0,1-17.307-.784h0l-10.207-.2s-9.506-3.779-8.068-13.285,15.691-1.289,15.691-1.289S70.4,128.79,84.293,132.83a20.666,20.666,0,0,1,15,17.229S117.688,147.226,107.63,157.522Z" transform="translate(-46.519 -86.281)" fill="#f0f0f0"/><circle cx="9.144" cy="9.144" r="9.144" transform="translate(116.566 32.201)" fill="#f0f0f0"/><path d="M211.95,269.735v.166a9.167,9.167,0,0,1-4.194,7.254,8.769,8.769,0,0,1-6.09,4.456,8.033,8.033,0,0,1-6.9-2.008,6.755,6.755,0,0,1-10.409-7.129,8.455,8.455,0,0,1,.285-.909c.891-2.3,2.971-4.367,5.347-4.664a4.889,4.889,0,0,1-.487-2.335,5.288,5.288,0,0,1,.469-2.02,4.687,4.687,0,0,1,.624-1,5.139,5.139,0,0,1,5.1-1.729,7.2,7.2,0,0,1,5.294-.214,6.167,6.167,0,0,1,3.125,3.767,5.01,5.01,0,0,1,5.811.808,7.165,7.165,0,0,1,2.026,5.555Z" transform="translate(-97.451 -137.876)" fill="#f5f5f5"/><path d="M212.251,269.743a8.912,8.912,0,0,1-3.737,4.872,8.763,8.763,0,0,1-6.09,4.45,8.05,8.05,0,0,1-6.933-2,6.743,6.743,0,0,1-10.581-5.5c.891-2.3,2.971-4.367,5.347-4.664a4.889,4.889,0,0,1-.487-2.335,4.753,4.753,0,0,1,.945-.214,5.026,5.026,0,0,1-.475-1.782,4.688,4.688,0,0,1,.624-1,5.139,5.139,0,0,1,5.1-1.729,7.2,7.2,0,0,1,5.294-.214,6.167,6.167,0,0,1,3.125,3.767,5.01,5.01,0,0,1,5.811.808A7.165,7.165,0,0,1,212.251,269.743Z" transform="translate(-97.753 -137.884)" fill="#e0e0e0"/><path d="M248.569,240.829c-5.038,5.787-14.1,6.535-22.7,2.65a1.349,1.349,0,0,0-1.414.2,6.843,6.843,0,0,1-6.642,1.064,1.26,1.26,0,0,0-1.568.677,5.87,5.87,0,0,1-.962,1.7c-2.376,2.876-6.993,2.715-10.825-.19a1.331,1.331,0,0,0-.814-.261,1.313,1.313,0,0,0-1.016.452c-2.246,2.739-6.565,2.721-10.284.2a1.378,1.378,0,0,0-1.557,0c-5.169,3.654-13.712,2.311-20.289-3.565a22.838,22.838,0,0,1-5.775-7.783c-2.24-5.115-2.032-10.462,1.058-14.009a10.1,10.1,0,0,1,4.058-2.8,2.157,2.157,0,0,0,1.467-2.085,11.092,11.092,0,0,1,2.537-7.985,9.987,9.987,0,0,1,2.685-2.163,8.721,8.721,0,0,0,3.487-3.458,13.784,13.784,0,0,1,1.687-2.43c5.906-6.779,20.141-5.941,28.916,1.26a6.535,6.535,0,0,0,6.274,1c7.254-2.626,17.152-.214,25.042,6.809,5.941,5.347,9.506,12.114,10.1,18.418A15.747,15.747,0,0,1,248.569,240.829Z" transform="translate(-88.953 -112.386)" fill="#e6e6e6"/><path d="M249.571,244.987c-5.038,5.787-14.1,6.535-22.7,2.65a1.349,1.349,0,0,0-1.414.2,6.843,6.843,0,0,1-6.642,1.064,1.26,1.26,0,0,0-1.568.677,5.869,5.869,0,0,1-.962,1.7c-2.376,2.876-6.993,2.715-10.825-.19a1.331,1.331,0,0,0-.814-.261,1.313,1.313,0,0,0-1.016.452c-2.246,2.739-6.565,2.721-10.284.2a1.378,1.378,0,0,0-1.557,0c-5.169,3.654-13.712,2.311-20.289-3.565a22.838,22.838,0,0,1-5.775-7.783,11.069,11.069,0,0,1,2.525-7.908,10.023,10.023,0,0,1,4.052-2.8,2.157,2.157,0,0,0,1.467-2.091,11.086,11.086,0,0,1,2.561-8,9.76,9.76,0,0,1,2.685-2.163,8.758,8.758,0,0,0,3.487-3.458,13.554,13.554,0,0,1,1.693-2.436c5.9-6.773,20.129-5.941,28.916,1.26a6.535,6.535,0,0,0,6.268.98c7.254-2.62,17.152-.214,25.036,6.815a31.81,31.81,0,0,1,8.644,12.286A15.921,15.921,0,0,1,249.571,244.987Z" transform="translate(-89.954 -116.544)" fill="#ebebeb"/><path d="M284.054,254.713a3.529,3.529,0,0,1-3.785.345,3.715,3.715,0,0,1-1.105,3.82,3.054,3.054,0,0,1-3.63-.368c-1.782,2.1-7.557,4.456-12.477,2.573h0a10.243,10.243,0,0,1-5.454-5.127,5.828,5.828,0,0,1,.475-5.775A9.334,9.334,0,0,1,262.511,247a8.549,8.549,0,0,1,6.987-6.268h0l.309-.036c3.268-.285,6.82,1.729,8.716,4.931a2.9,2.9,0,0,1,3.7,2.341,3.909,3.909,0,0,1,2.941,2.887A3.856,3.856,0,0,1,284.054,254.713Z" transform="translate(-127.034 -130.358)" fill="#f5f5f5"/><path d="M282.02,253.9a2.929,2.929,0,0,1-3.41.339c.309,1.4.119,3.268-.826,3.969a2.543,2.543,0,0,1-3.28-.368c-1.527,2.038-6.868,4.622-11.467,3.285h0A10.243,10.243,0,0,1,257.584,256a5.828,5.828,0,0,1,.475-5.775,9.333,9.333,0,0,1,4.432-3.184,8.549,8.549,0,0,1,7-6.268h0c2.656.4,5.377,3.208,6.892,6.054,2.685-.719,3.339,2.115,3.333,2.335C283.832,249.224,282.941,253.056,282.02,253.9Z" transform="translate(-127.026 -130.4)" fill="#f5f5f5"/><path d="M217.356,282.775l6.149,5.715c-.493,8.056-.962,29.67-.962,29.67l-2.186,12.976,19.279.178s-.879-10.962-.879-11.556-3.725-21.59-3.725-21.59l-2.115-20.384,9.934-3.03,1.818-5.24,7.308-4.159,3.565-5.484-1.384-.333-3.939,5.062-4.6,1,1.967-4.664h-2.192l-5.472,10.807-7.058,1.45.677-15.239c-5.644,2.638-7.45-1.753-7.45-1.753s-1.188,26.058-2.032,28.387h0a14.74,14.74,0,0,1-5.822-5.276l-1.782-2.786H214.7Z" transform="translate(-109.844 -136.663)" fill="#ebebeb"/><path d="M244.607,274.053l-1.515.374a3.119,3.119,0,0,1-3.856-3.214l.671-11.229a7.581,7.581,0,0,0,3.565-.814l-.624,14.586v.659Z" transform="translate(-119.8 -137.868)" fill="#f5f5f5"/><path d="M253.74,271.039l-2.65,5.127-10.439,2.816a2.412,2.412,0,0,0-1.782,2.376l.273,14.77s2.252-9.025,2.252-8.621.856,14.669.856,14.669l-2.376,21.769,4.26-14.883L242.2,333.612l7.23.065s-.879-10.962-.879-11.556-3.725-21.59-3.725-21.59l-1.913-18.418a2.424,2.424,0,0,1,1.7-2.561l8.033-2.448,1.818-5.24,7.308-4.159,3.565-5.484-.85-.2c-1.491,2.24-3.565,5.614-3.565,5.614Z" transform="translate(-119.653 -139.025)" fill="#f5f5f5"/></g><g transform="translate(29.74 260.607)"><ellipse cx="115.194" cy="6.725" rx="115.194" ry="6.725" fill="#f5f5f5"/></g><g transform="translate(67.556 197.986)"><path d="M193.5,297.432c-11.223-2.228-23.034-.291-33.562,4.194s-19.838,11.419-28.227,19.238c-5.632,5.27-11.152,11.562-11.882,19.232a18.24,18.24,0,0,0,6.607,15.714c4.634,3.7,21.388,6.09,27.015,4.224,25.82-8.555,44.387.855,71.574-.054,6.078-.2,12.2-.41,18.121-1.782s11.692-4.07,15.815-8.538c6.179-6.69,7.848-16.861,5.222-25.577s-9.138-15.958-16.974-20.6-16.909-6.868-25.981-7.67S202.438,299.2,193.5,297.432Z" transform="translate(-119.76 -295.683)" fill="#263238"/><path d="M193.7,302.431c-11.223-2.228-23.034-.291-33.562,4.194s-19.867,11.419-28.227,19.238c-5.632,5.27-11.152,11.562-11.882,19.232a18.24,18.24,0,0,0,6.642,15.715c4.634,3.7,21.388,6.09,27.015,4.224,25.82-8.555,44.387.855,71.574-.053,6.078-.2,12.2-.41,18.121-1.782s11.692-4.07,15.815-8.538c6.179-6.69,7.848-16.861,5.222-25.577s-9.138-15.958-16.974-20.6-16.909-6.868-25.981-7.67S202.64,304.2,193.7,302.431Z" transform="translate(-119.843 -297.713)" fill="#fff" opacity="0.3"/><path d="M262.55,302.787c-8.24,6.7-26.48,11.882-51.861,13.475-15.168.962-43.466-.481-50.37-5.454a84.247,84.247,0,0,1,16.083-9.191c10.528-4.492,22.333-6.428,33.562-4.2,8.912,1.782,18.679-2.448,27.751-1.646C246.349,296.531,254.987,298.58,262.55,302.787Z" transform="translate(-136.223 -295.668)" fill="#fff" opacity="0.3"/><path d="M262.611,380.878c-.339.434-.7.856-1.075,1.26-4.123,4.468-9.9,7.129-15.815,8.543s-12.043,1.6-18.121,1.782c-27.187.909-45.747-8.5-71.574.059-5.626,1.866-22.381-.529-27.015-4.23a17.177,17.177,0,0,1-2.971-3.089,47.137,47.137,0,0,0,15.774,1.331c9.934-.755,19.5-3.909,29.112-6.6s19.541-4.961,29.439-3.874c7.9.867,15.394,3.82,23.123,5.62A80.592,80.592,0,0,0,262.611,380.878Z" transform="translate(-122.309 -328.184)" opacity="0.2"/><path d="M236.53,345.839a2.307,2.307,0,0,0-1.23,1.723,1.729,1.729,0,0,0,1.283,1.5,4.752,4.752,0,0,0,2.091.036,8.959,8.959,0,0,0,3.8-1.188c1.949-1.3,2.46-3.476-.25-3.5A10.267,10.267,0,0,0,236.53,345.839Z" transform="translate(-166.655 -315.448)" opacity="0.2"/><path d="M255.772,388.64a1.967,1.967,0,0,0,0,1.147.915.915,0,0,0,.594.683.707.707,0,0,0,.541-.255,2.376,2.376,0,0,0,.778-1.188c.273-.992,0-2.3-.677-1.955a2.376,2.376,0,0,0-1.236,1.568Z" transform="translate(-174.93 -332.744)" opacity="0.2"/><path d="M172.033,392.046a2,2,0,0,0,0,1.141.921.921,0,0,0,.594.683.713.713,0,0,0,.547-.256,2.376,2.376,0,0,0,.778-1.188c.273-.992,0-2.3-.677-1.955A2.377,2.377,0,0,0,172.033,392.046Z" transform="translate(-140.943 -334.124)" opacity="0.2"/><path d="M323.4,332.636a2,2,0,0,0,0,1.141.921.921,0,0,0,.594.683.713.713,0,0,0,.547-.255,2.377,2.377,0,0,0,.778-1.188c.273-.992,0-2.3-.677-1.955A2.376,2.376,0,0,0,323.4,332.636Z" transform="translate(-202.381 -310.01)" opacity="0.2"/><path d="M300.993,347.162a2,2,0,0,0,0,1.141.921.921,0,0,0,.594.683.677.677,0,0,0,.547-.255,2.377,2.377,0,0,0,.778-1.188c.273-1,0-2.305-.677-1.961a2.377,2.377,0,0,0-1.242,1.58Z" transform="translate(-193.285 -315.904)" opacity="0.2"/><path d="M219.589,391.375a2.644,2.644,0,0,0-3.529-1,3.891,3.891,0,0,0,2.638,3.488,3.434,3.434,0,0,0,3.8-1.711c.047-.535-.677-.9-1.01-.505Z" transform="translate(-158.846 -333.981)" opacity="0.2"/><g transform="translate(110.696 26.458)" opacity="0.2"><path d="M306.264,340.551c-.059.885-.125,1.782-.184,2.656a1.592,1.592,0,1,0,.861-3.006Z" transform="translate(-306.08 -340.2)"/></g><g transform="translate(34.489 12.484)" opacity="0.2"><path d="M177.994,317.025c-.059.885-.125,1.782-.184,2.662a1.592,1.592,0,1,0,.861-3.006Z" transform="translate(-177.81 -316.68)"/></g><g transform="translate(110.441 10.898)" opacity="0.2"><path d="M305.65,314.717c.333.826.659,1.652.986,2.478a1.592,1.592,0,1,0-.523-3.084Z" transform="translate(-305.65 -314.011)"/></g><g transform="translate(56.297 50.258)" opacity="0.2"><path d="M215.482,380.313c-.594-.279-1.188.594-.879,1.135a1.3,1.3,0,0,0,1.693.345,3.707,3.707,0,0,0,1.3-1.378l-1.337.166Z" transform="translate(-214.518 -380.26)"/></g><g transform="translate(59.292 39.101)" opacity="0.2"><path d="M220.266,361.522c-.422-.208-.873.422-.648.826a.951.951,0,0,0,1.242.255,2.774,2.774,0,0,0,.951-1.01l-.98.125Z" transform="translate(-219.559 -361.481)"/></g><g transform="translate(107.565 15.479)" opacity="0.2"><path d="M301.516,321.762c-.422-.208-.873.422-.648.832a.957.957,0,0,0,1.242.249,2.774,2.774,0,0,0,.951-1.01l-.98.125Z" transform="translate(-300.809 -321.721)"/></g><g transform="translate(50.015 20.386)" opacity="0.2"><path d="M204.649,330.022c-.422-.208-.873.422-.642.832a.945.945,0,0,0,1.236.25,2.774,2.774,0,0,0,.951-1.01l-.98.125Z" transform="translate(-203.944 -329.981)"/></g><g transform="translate(32.59 51.673)" opacity="0.2"><path d="M175.319,382.682c-.416-.208-.873.428-.642.832a.951.951,0,0,0,1.242.25,2.738,2.738,0,0,0,.945-1l-.98.119Z" transform="translate(-174.615 -382.641)"/></g><g transform="translate(87.962 21.759)" opacity="0.2"><path d="M268.519,332.332c-.422-.208-.873.422-.642.826a.945.945,0,0,0,1.236.25,2.757,2.757,0,0,0,.951-1l-.98.119Z" transform="translate(-267.814 -332.291)"/></g><g transform="translate(110.723 44.016)" opacity="0.2"><path d="M306.829,369.793c-.416-.2-.873.428-.642.832a.951.951,0,0,0,1.242.25,2.739,2.739,0,0,0,.945-1l-.98.119Z" transform="translate(-306.125 -369.754)"/></g><g transform="translate(83.358 21.135)" opacity="0.2"><path d="M260.769,331.282c-.416-.208-.873.428-.642.832a.951.951,0,0,0,1.242.25,2.715,2.715,0,0,0,.945-1.01l-.98.125Z" transform="translate(-260.065 -331.241)"/></g><g transform="translate(79.08 15.479)" opacity="0.2"><path d="M253.569,321.762c-.422-.208-.873.422-.642.832a.945.945,0,0,0,1.236.25,2.727,2.727,0,0,0,.951-1.01l-.98.125Z" transform="translate(-252.864 -321.721)"/></g><g transform="translate(75.654 13.459)" opacity="0.2"><path d="M247.806,318.362c-.422-.208-.873.422-.648.832a.957.957,0,0,0,1.242.25,2.775,2.775,0,0,0,.951-1.01l-.98.125Z" transform="translate(-247.099 -318.321)"/></g><path d="M212.463,371.627c-.19-.172-.392.345-.291.671s.368.38.553.208a2.263,2.263,0,0,0,.422-.82l-.434.1Z" transform="translate(-157.257 -326.484)" opacity="0.2"/><g transform="translate(34.363 36.442)" opacity="0.2"><path d="M179.067,357.442c-.149-.624-1.188-.553-1.432.048a1.3,1.3,0,0,0,.814,1.521,3.826,3.826,0,0,0,1.889.119l-.986-.939Z" transform="translate(-177.599 -357.006)"/></g><g transform="translate(45.097 31.527)" opacity="0.2"><path d="M196.744,349.052c-.107-.457-.885-.4-1.052.036a.951.951,0,0,0,.594,1.111,2.786,2.786,0,0,0,1.384.089l-.725-.677Z" transform="translate(-195.666 -348.732)"/></g><g transform="translate(45.098 41.051)" opacity="0.2"><path d="M196.745,365.082c-.107-.457-.885-.4-1.052.036a.957.957,0,0,0,.594,1.111,2.786,2.786,0,0,0,1.384.089l-.725-.677Z" transform="translate(-195.668 -364.762)"/></g><path d="M184.01,349.428c0-.25-.511-.077-.7.208s-.053.529.2.559a2.318,2.318,0,0,0,.9-.2l-.356-.273Z" transform="translate(-145.517 -317.439)" opacity="0.2"/></g><g transform="translate(147.607 189.999)"><path d="M346.571,401.76H269.894l-15.394,6.7H361.959Z" transform="translate(-254.5 -330.742)" fill="#f8951d"/><path d="M346.571,401.76H269.894l-15.394,6.7H361.959Z" transform="translate(-254.5 -330.742)" fill="#fff" opacity="0.7"/><path d="M351.2,360.25l-.677,9.839H332.68V360.25Z" transform="translate(-286.232 -313.894)" fill="#ffb573"/><path d="M348.287,321.363a1.972,1.972,0,0,1,1.61,1.824,85.437,85.437,0,0,1-1.479,18.323,65.472,65.472,0,0,0-.255,7.813l-19.654.1a156.82,156.82,0,0,0-3.909-25.886,1.943,1.943,0,0,1,1.479-2.376C329.566,320.388,337.415,319.283,348.287,321.363Z" transform="translate(-282.928 -297.625)" fill="#f8951d"/><path d="M359.525,322.24c2.478-.1,11.77,11.882,12.3,14.609.416,2.091-4.783,2.549-10.171,2.537-5.632,0-8.508-.1-8.829-1.254-.624-2.264-1.242-6.886,0-7.29.689-.22,2.941.339,3.113,1.907a12.022,12.022,0,0,1-.077,3.119l8.912-1.58a68.974,68.974,0,0,0-4.925-5.71C358.046,326.945,357.731,322.311,359.525,322.24Z" transform="translate(-294.119 -298.466)" fill="#ffb573"/><path d="M343.783,325.756c-6.214.392-9.173-3.684-9.773-5.264a58.732,58.732,0,0,1,14.514.285C348.911,322.34,347.829,325.5,343.783,325.756Z" transform="translate(-286.771 -297.628)" fill="#ffb573"/><path d="M326.068,327.12l1.159.333s1.972,4.432.065,12.334A96.522,96.522,0,0,0,325.51,328.5Z" transform="translate(-283.322 -300.447)" opacity="0.1"/><path d="M340.909,304.1c.523,2.769,1.04,7.825-.909,9.66a21.584,21.584,0,0,0,4.622,4.07,2.8,2.8,0,0,0,4.29-2.858,3.9,3.9,0,0,0-.321-1.046c-3.072-.749-2.971-3.155-2.436-5.311Z" transform="translate(-289.203 -291.104)" fill="#ffb573"/><path d="M347.118,311.525a7.641,7.641,0,0,1,.285-2.305l-4.212-3.63a6.3,6.3,0,0,0-.053,1.889C343.31,309.208,345.413,311.02,347.118,311.525Z" transform="translate(-290.457 -291.709)" opacity="0.2"/><path d="M338.34,292.711c.778,4.278,1.022,6.108,3.464,8.056,3.672,2.929,8.763,1.034,9.268-3.392.463-3.981-.891-10.29-5.347-11.52a5.941,5.941,0,0,0-7.409,6.856Z" transform="translate(-288.475 -283.612)" fill="#ffb573"/><path d="M354.2,299.56a10.284,10.284,0,0,0,2.026,2.068,1.705,1.705,0,0,1-1.3.63Z" transform="translate(-294.966 -289.261)" fill="#ed893e"/><path d="M352.111,306.8a3.308,3.308,0,0,0,.594,0,.113.113,0,0,0,.1-.113h0a.107.107,0,0,0-.113-.089,3.565,3.565,0,0,1-2.727-.838.1.1,0,1,0-.143.149A3.743,3.743,0,0,0,352.111,306.8Z" transform="translate(-293.174 -291.766)" fill="#f8951d"/><path d="M347.238,297.7a.214.214,0,0,0,.143-.089,2.7,2.7,0,0,1,1.64-1.016.208.208,0,0,0,0-.416,3.018,3.018,0,0,0-1.99,1.188.232.232,0,0,0,.2.345Z" transform="translate(-292.044 -287.889)" fill="#263238"/><path d="M350.206,299.592a.142.142,0,0,0,0-.137.113.113,0,0,0-.166,0h0a2.493,2.493,0,0,1-2.46.642.119.119,0,0,0-.143.089.113.113,0,0,0,.089.143,2.679,2.679,0,0,0,2.68-.707Z" transform="translate(-292.219 -289.204)" fill="#263238"/><path d="M358.1,297.715a.131.131,0,0,0,0-.137.125.125,0,0,0-.166,0h0a2.5,2.5,0,0,1-2.466.642.131.131,0,0,0-.143.089.119.119,0,0,0,.089.143,2.692,2.692,0,0,0,2.685-.707Z" transform="translate(-295.423 -288.444)" fill="#263238"/><path d="M357.209,295.691a.208.208,0,0,0,.071-.374h0a2.068,2.068,0,0,0-1.877-.25.22.22,0,0,0-.113.279.208.208,0,0,0,.273.107,1.646,1.646,0,0,1,1.491.208A.178.178,0,0,0,357.209,295.691Z" transform="translate(-295.402 -287.389)" fill="#263238"/><path d="M344.571,367.11c.208,4.129,3.9,7.094,7.872,8.318-5.894,2.864-12.875,7.878-19.012,10.1-5.983-2.133-12.851-7.64-18.032-11.288,4.159-.707,6.832-1.313,9.4-7.094Z" transform="translate(-279.218 -316.678)" fill="#263238"/><path d="M287.107,387.791c-.416-4.022-1.782-7.04,12.257-9.934,3.44-.713,11.229-.594,14.71-.594,6.809-.059,13.8-.148,19.885-.232a146.592,146.592,0,0,1,16.113.5c7.207.832,11.8,4.159,10.266,10.266-2.222,8.8-27.68,6.013-37.982,6.013S288.135,398.015,287.107,387.791Z" transform="translate(-267.637 -320.688)" fill="#263238"/><path d="M291.94,385.613s3.048-3.422,10.041-.7,8.639,6.333,17.954,9.286l-2.733,2.24-16.576-3.173-8.163-4.278Z" transform="translate(-269.696 -323.477)" opacity="0.4"/><path d="M386.2,385.217a11.447,11.447,0,0,0-9.637,0c-5.442,2.347-9.048,6.5-15.762,8.7l.475,1.937,24.68-7.189Z" transform="translate(-297.645 -323.604)" opacity="0.4"/><path d="M345.979,405.391s-5.347,3.256-7.082,6.714c-.38.749-2.376-.339-1.693-2.192,1.135-3.078,1.188-2.3,2.145-4.931.79-2.228,1.254-3.856,1.86-5.656a.54.54,0,0,1,.065-.131.7.7,0,0,1,.974-.22l3.725,2.329,5.169-.945.659,4.783Z" transform="translate(-288.01 -329.566)" fill="#ffb573"/><path d="M345.979,405.391s-5.347,3.256-7.082,6.714c-.38.749-2.376-.339-1.693-2.192,1.135-3.078,1.188-2.3,2.145-4.931.79-2.228,1.254-3.856,1.86-5.656a.54.54,0,0,1,.065-.131.7.7,0,0,1,.974-.22l3.725,2.329,5.169-.945.659,4.783Z" transform="translate(-288.01 -329.566)" opacity="0.2"/><path d="M385.943,386.909c-1.634-1.563-4.159-1.943-9.037,0s-14.087,6.8-21.567,8.448l1.022,4.86s23.408-1.586,28.34-4.29S387.726,388.614,385.943,386.909Z" transform="translate(-295.429 -324.179)" fill="#263238"/><path d="M341.018,405.391s5.347,3.256,7.076,6.714c.38.749,2.376-.339,1.7-2.192-1.141-3.078-1.218-2.3-2.151-4.931-.79-2.228-1.254-3.856-1.86-5.656a.386.386,0,0,0-.065-.131.7.7,0,0,0-.968-.22l-3.731,2.347-5.175-.945-.654,4.783Z" transform="translate(-287.25 -329.567)" fill="#ffb573"/><path d="M289.34,386.909c1.634-1.563,4.159-1.943,9.037,0s14.087,6.8,21.567,8.448l-1.022,4.86s-23.408-1.586-28.34-4.29S287.558,388.614,289.34,386.909Z" transform="translate(-267.869 -324.179)" fill="#263238"/><path d="M319.234,322.691c-3.565,2.115-10.813,11.55-8.532,14.972,1.129,1.693,3.446,2.519,8.585,2.507,5.347,0,15.156-1.028,15.447-2.127.594-2.163,2.537-7.129-.184-7.129-.707,0-1.889-.642-2.376,0-1.028,1.3-.636,5.305-.636,5.305l-15.008-1.147s3-5.305,4.521-6.684C322.769,326.85,322.941,320.511,319.234,322.691Z" transform="translate(-277.135 -298.466)" fill="#ffb573"/><path d="M346.242,287.556a4.676,4.676,0,0,0-3.666,5.008v.042a1.949,1.949,0,0,0,.4,1.129.82.82,0,0,0,1.081.16c.2-.594.327-1.046.523-1.652a1.058,1.058,0,1,0,1.83-.452c.309.137.25.38.362.683a.986.986,0,0,0,1.39.523,1,1,0,0,0,0-1.735s.594,0,1.147,1.022c.226.4.939.267,1.188-.1a.838.838,0,0,0-.267-1.188,4.717,4.717,0,0,0,1.248.861.755.755,0,0,0,1.087-.832,4.248,4.248,0,0,0-1.277-2.246,5.531,5.531,0,0,0-3.565-1.39A5.891,5.891,0,0,0,346.242,287.556Z" transform="translate(-290.24 -284.321)" fill="#263238"/><path d="M346.011,285.049a1.533,1.533,0,0,1-1.361.273,3.731,3.731,0,0,0-1.551-1,4.159,4.159,0,0,1,2.911.731Z" transform="translate(-290.461 -283.062)" fill="#ffb573"/><path d="M335.542,284.336a6.9,6.9,0,0,0-1.628,2.406,29.614,29.614,0,0,0-1.866,6.125,10.161,10.161,0,0,0-.143,4.034,4.343,4.343,0,0,0,2.329,3.137,2.858,2.858,0,0,0,3.565-1.052c1.188,0,1.7-1.592,1.6-2.8a26.323,26.323,0,0,0-1-3.482,6.066,6.066,0,0,1,3.5-6.708C340.848,284.966,337.01,283.011,335.542,284.336Z" transform="translate(-285.862 -282.901)" fill="#263238"/><path d="M353.557,296.451c-.273.345-.873.166-1.1-.208a2.091,2.091,0,0,1-.149-1.283,18.553,18.553,0,0,0,.036-4.3,6.915,6.915,0,0,0-1.729-3.862,4.553,4.553,0,0,0-3.945-1.539,11.042,11.042,0,0,0-4.111-1.871c.725-1.218,2.109-1.592,5-.594a10.694,10.694,0,0,1,5.092,3.493,12.6,12.6,0,0,1,2.258,8.246,4.948,4.948,0,0,1-.541,2.323,2.257,2.257,0,0,1-.927.832.594.594,0,0,1-.826-.731.981.981,0,0,1,.065-.214C352.844,296.891,353.569,296.677,353.557,296.451Z" transform="translate(-290.242 -282.226)" fill="#263238"/><path d="M346,303.968s3.392-2.151,5.614-2.293,2.109.178,2.109.178a5.151,5.151,0,0,1-2.864,6.826s-3.565-.1-4.866-1.343A4.97,4.97,0,0,0,346,303.968Z" transform="translate(-291.634 -290.105)" fill="#f8951d"/><path d="M346,303.968s3.392-2.151,5.614-2.293,2.109.178,2.109.178a5.151,5.151,0,0,1-2.864,6.826s-3.565-.1-4.866-1.343A4.97,4.97,0,0,0,346,303.968Z" transform="translate(-291.634 -290.105)" fill="#fff" opacity="0.5"/><path d="M347.06,305.021s3.624-2.014,5.151-2.032a4.1,4.1,0,0,1,2.145.392,5.713,5.713,0,0,1,.107,1.188s-1.248-1.016-7.337,1.188Z" transform="translate(-292.068 -290.647)" fill="#fff" opacity="0.2"/><path d="M347.125,307.548s5.27-1.866,7.189-.8a6.05,6.05,0,0,1-.945,2.109s-1.812-.992-6.31-.469Z" transform="translate(-292.068 -292.045)" fill="#fff" opacity="0.2"/><path d="M346.787,310.15s4.991-.321,5.7.766l-.838.594a10.585,10.585,0,0,1-4.973-1.052Z" transform="translate(-291.914 -293.542)" fill="#fff" opacity="0.2"/><path d="M344.374,308.416a3.51,3.51,0,0,1-2.971-4.022.481.481,0,0,1,.255-.44c.683-.356,2.6.82,2.81.957l-.119.19c-.558-.351-2.109-1.188-2.59-.945a.279.279,0,0,0-.131.25,3.338,3.338,0,0,0,2.8,3.785Z" transform="translate(-289.768 -291.018)" fill="#263238"/></g><g transform="translate(109.19 129.952)"><path d="M274.994,261.925s-1.254.208,11.259,10.148l3.511-1.5a1.723,1.723,0,0,1,1.83.309h0a1.717,1.717,0,0,1,.392,2.008l-1.117,2.329a1.705,1.705,0,0,1-1.818.951l-4.111-1.705s-11.936-6.393-13.6-10.023C271.34,264.432,273.978,261.182,274.994,261.925Z" transform="translate(-222.918 -213.894)" fill="#ffc3bd"/><path d="M265.586,224.218c2.008.594,3.066,2.531,4.159,11.193s.82,10.724,3.44,12.257c0,0-2.971,3.921-4.753,5.187a26.285,26.285,0,0,1-2.81-5.816c-1.622-4.242-2.971-7.183-3.749-11.021C261.261,233.047,257.316,221.735,265.586,224.218Z" transform="translate(-218.477 -198.491)" fill="#f8951d"/><path d="M265.553,224.218c2.008.594,3.066,2.531,4.159,11.193s.82,10.724,3.44,12.257c0,0-2.971,3.921-4.753,5.187a26.282,26.282,0,0,1-2.81-5.816c-1.622-4.242-2.971-7.183-3.749-11.021C261.228,233.047,257.158,221.735,265.553,224.218Z" transform="translate(-218.444 -198.491)" opacity="0.1"/><path d="M252.166,247.683c-.452,2.893-1.45,7.967-1.782,10.51a45.516,45.516,0,0,0,.594,9.619,132.827,132.827,0,0,1,.891,13.427l-26.539-1.782c.933-12.144,6.844-20.3,6.838-21.982,0-2.3-.909-3.291-3.143-10.694Z" transform="translate(-204.243 -207.792)" fill="#ffc3bd"/><path d="M209.2,261.925s1.254.208-11.259,10.148l-3.511-1.5a1.723,1.723,0,0,0-1.83.309h0a1.717,1.717,0,0,0-.392,2.008l1.117,2.329a1.705,1.705,0,0,0,1.818.951l4.111-1.705s11.936-6.393,13.6-10.023C212.851,264.432,210.213,261.182,209.2,261.925Z" transform="translate(-190.731 -213.894)" fill="#ffc3bd"/><path d="M224.089,224.218c-2.008.594-3.066,2.531-4.159,11.193s-.82,10.724-3.44,12.257c0,0,2.971,3.921,4.753,5.187a26.284,26.284,0,0,0,2.81-5.816c1.622-4.242,2.971-7.183,3.749-11.021C228.414,233.047,232.359,221.735,224.089,224.218Z" transform="translate(-200.656 -198.491)" fill="#f8951d"/><path d="M224.089,224.218c-2.008.594-3.066,2.531-4.159,11.193s-.82,10.724-3.44,12.257c0,0,2.971,3.921,4.753,5.187a26.284,26.284,0,0,0,2.81-5.816c1.622-4.242,2.971-7.183,3.749-11.021C228.414,233.047,232.46,221.735,224.089,224.218Z" transform="translate(-200.656 -198.491)" opacity="0.1"/><path d="M232.048,241.2s-1.188-6.636-2.376-12.007c-.505-2.275.689-5.175,2.971-5.68a2.67,2.67,0,0,1,.38-.065c1.188-.154,2.5-.3,3.838-.368a63.129,63.129,0,0,1,8.995-.036,43.384,43.384,0,0,1,4.373.535c1.58.261,4.159,5.864,4.159,8.472.042,5.347-.291,4.973-.939,9.149Z" transform="translate(-205.959 -198.099)" fill="#f8951d"/><path d="M242.64,206.17c.594,2.887,1.188,8.187-.85,10.1,1.747,2.121,3.909,3.22,6.375,5.5a25.89,25.89,0,0,0,2.62-5.537c-3.226-.755-3.155-3.149-2.6-5.395Z" transform="translate(-210.924 -191.309)" fill="#ffc3bd"/><path d="M244.23,207a12.161,12.161,0,0,0,1.224,4.955c.523,1.063,1.972,1.533,3.434,1.646a7.919,7.919,0,0,1,.273-2.424Z" transform="translate(-211.915 -191.646)" opacity="0.2"/><path d="M235.232,194.238c1.42,4.634,1.889,6.624,4.854,8.472,4.426,2.78,9.809.048,9.821-4.907,0-4.456-2.305-11.288-7.326-12.061a6.6,6.6,0,0,0-7.349,8.5Z" transform="translate(-208.139 -182.983)" fill="#ffc3bd"/><path d="M236.076,182.965c3.1-2.852,6.535-1.705,8.318-.766a7.26,7.26,0,0,1,3.642,4.64,2.652,2.652,0,0,1-1.509,3.066,7.777,7.777,0,0,0-1.729-2.376c-1.123-.891-3.238-1.978-4.076-1.735-.79,1.782-2.02,5.169-4.539,5.941-1.889.594.743,10.272-3.452,6.446-5.127-6.1-2.887-9.375-1.669-12.031S236.076,182.965,236.076,182.965Z" transform="translate(-205.941 -181.157)" fill="#263238"/><path d="M252.967,206.344a.125.125,0,0,0,.042-.125.119.119,0,0,0-.143-.077h0a3.131,3.131,0,0,1-2.775-.511.114.114,0,0,0-.149.172,3.274,3.274,0,0,0,2.971.553Z" transform="translate(-214.217 -191.079)" fill="#263238"/><path d="M247.825,199.268a.113.113,0,0,0-.184-.131h0a2.424,2.424,0,0,1-2.376.624.113.113,0,0,0-.137.083.119.119,0,0,0,.083.143,2.614,2.614,0,0,0,2.6-.689Z" transform="translate(-212.278 -188.435)" fill="#263238"/><path d="M254.143,198.36a.125.125,0,0,1-.036-.125.107.107,0,0,1,.143-.071h0a2.454,2.454,0,0,0,2.418-.481.114.114,0,0,1,.143.178,2.6,2.6,0,0,1-2.632.511Z" transform="translate(-215.922 -187.854)" fill="#263238"/><path d="M245.089,196.465a.285.285,0,0,0,.077-.1,1.818,1.818,0,0,1,1.26-1.093.232.232,0,0,0-.071-.457h0a2.329,2.329,0,0,0-1.616,1.361.238.238,0,0,0,.137.309A.244.244,0,0,0,245.089,196.465Z" transform="translate(-212.114 -186.701)" fill="#263238"/><path d="M255.459,194.126l.03-.03a.238.238,0,0,0,0-.327,2.3,2.3,0,0,0-1.99-.594.226.226,0,0,0-.172.273h0a.232.232,0,0,0,.279.172,1.836,1.836,0,0,1,1.592.5A.238.238,0,0,0,255.459,194.126Z" transform="translate(-215.604 -186.02)" fill="#263238"/><path d="M254.051,202.007a1.687,1.687,0,0,0,1.313-.553,10.937,10.937,0,0,1-2.014-2.174Z" transform="translate(-215.616 -188.513)" fill="#ed893e"/><path d="M247.541,271.2c.208,4.159,3.9,7.094,7.872,8.318-5.894,2.858-12.875,7.872-19.012,10.1-5.983-2.127-12.851-7.634-18.032-11.288,4.159-.707,6.826-1.313,9.4-7.094Z" transform="translate(-201.419 -217.703)" fill="#263238"/><path d="M190.077,291.88c-.416-4.016-1.782-7.04,12.257-9.934,3.44-.707,11.229-.594,14.71-.594,6.809-.053,13.8-.149,19.885-.232a144.662,144.662,0,0,1,16.113.505c7.207.832,11.8,4.159,10.26,10.26-2.222,8.841-27.674,6.024-37.976,6.024S191.122,302.1,190.077,291.88Z" transform="translate(-189.838 -221.712)" fill="#263238"/><path d="M194.91,289.7s3.048-3.422,10.041-.7,8.639,6.339,17.954,9.286l-2.733,2.24-16.582-3.173-8.157-4.272Z" transform="translate(-191.897 -224.502)" opacity="0.4"/><path d="M289.169,289.289a11.474,11.474,0,0,0-9.637,0c-5.442,2.341-9.048,6.535-15.762,8.71l.475,1.937,24.674-7.189Z" transform="translate(-219.845 -224.623)" opacity="0.4"/><path d="M248.909,309.48s-5.347,3.256-7.082,6.714c-.38.755-2.376-.339-1.693-2.192,1.135-3.078,1.188-2.3,2.145-4.931.79-2.228,1.254-3.85,1.86-5.656a.541.541,0,0,1,.065-.131.7.7,0,0,1,.974-.22l3.719,2.329,5.175-.945.659,4.753Z" transform="translate(-210.195 -230.591)" fill="#ffc3bd"/><path d="M248.909,309.48s-5.347,3.256-7.082,6.714c-.38.755-2.376-.339-1.693-2.192,1.135-3.078,1.188-2.3,2.145-4.931.79-2.228,1.254-3.85,1.86-5.656a.541.541,0,0,1,.065-.131.7.7,0,0,1,.974-.22l3.719,2.329,5.175-.945.659,4.753Z" transform="translate(-210.195 -230.591)" opacity="0.2"/><path d="M288.913,291c-1.634-1.563-4.159-1.943-9.037,0s-14.087,6.8-21.567,8.454l1,4.854s23.408-1.586,28.34-4.29S290.7,292.7,288.913,291Z" transform="translate(-217.629 -225.204)" fill="#263238"/><path d="M243.942,309.48s5.347,3.256,7.082,6.714c.38.755,2.376-.339,1.7-2.192-1.141-3.078-1.218-2.3-2.151-4.931-.79-2.228-1.254-3.85-1.86-5.656a.386.386,0,0,0-.065-.131.7.7,0,0,0-.974-.22l-3.719,2.329-5.175-.945-.659,4.753Z" transform="translate(-209.435 -230.591)" fill="#ffc3bd"/><path d="M192.31,291c1.634-1.563,4.159-1.943,9.037,0s14.087,6.8,21.567,8.454l-1.022,4.854s-23.408-1.586-28.34-4.29S190.528,292.7,192.31,291Z" transform="translate(-190.069 -225.204)" fill="#263238"/><path d="M234.4,202.78a6.084,6.084,0,0,1,2.852-.44,11.6,11.6,0,0,1,3.933,1.105,17.17,17.17,0,0,1,4.991-1.266,6.012,6.012,0,0,1,3.529,1.111s1.42,5.347-4.795,7.5c0,0-6.5,1.046-9.928-6.714l.481.285c1.242.992.867,2.6,3.832,4.545,1.283-1.782,1.349-2.78,1.366-4.979a8.852,8.852,0,0,0-3.048-1.188A8.139,8.139,0,0,0,234.4,202.78Z" transform="translate(-207.925 -189.689)" fill="#f8951d"/><path d="M234.4,202.78a6.084,6.084,0,0,1,2.852-.44,11.6,11.6,0,0,1,3.933,1.105,17.17,17.17,0,0,1,4.991-1.266,6.012,6.012,0,0,1,3.529,1.111s1.42,5.347-4.795,7.5c0,0-6.5,1.046-9.928-6.714l.481.285c1.242.992.867,2.6,3.832,4.545,1.283-1.782,1.349-2.78,1.366-4.979a8.852,8.852,0,0,0-3.048-1.188A8.139,8.139,0,0,0,234.4,202.78Z" transform="translate(-207.925 -189.689)" fill="#fff" opacity="0.6"/><path d="M233.6,203.046a3.482,3.482,0,0,0,1.723,2.1c1.1.564,1.9-.351,1.782-1.527-.089-1.046-.766-2.614-1.973-2.7a1.58,1.58,0,0,0-1.652,1.521,1.509,1.509,0,0,0,.119.606Z" transform="translate(-207.551 -189.177)" fill="#ffc3bd"/></g><g transform="translate(35.117 171.149)"><path d="M153.494,403.09H80.548l-15.388,6.7H168.882Z" transform="translate(-65.16 -312.432)" fill="#f8951d"/><path d="M153.494,403.09H80.548l-15.388,6.7H168.882Z" transform="translate(-65.16 -312.432)" fill="#fff" opacity="0.7"/><path d="M154.343,292.754a1.521,1.521,0,0,1,.22-.749c.434-.838,1.141-1.509,1.634-2.311a3.809,3.809,0,0,0,.232-2.59c-.208-1.854.564-3.654,1.26-5.347s1.349-3.606.9-5.412a4.248,4.248,0,0,0-2.228-2.792,3.488,3.488,0,0,0-3.5.3,2.971,2.971,0,0,0-1.046,3.285,12.93,12.93,0,0,1,.915,2.305,7.6,7.6,0,0,1-.119,3.232,18.038,18.038,0,0,0-.731,3.2,3.82,3.82,0,0,0,.945,3.03,8.99,8.99,0,0,1-.452,2.073,4.955,4.955,0,0,0-.137,2.163A2,2,0,0,0,153.6,294.7a1.188,1.188,0,0,0-.291,1.266,1.289,1.289,0,0,0,1.069.832,1.23,1.23,0,0,1-.065-1.159,8.91,8.91,0,0,0,.523-.962.8.8,0,0,0-.279-.968A6.138,6.138,0,0,1,154.343,292.754Z" transform="translate(-100.273 -259.719)" fill="#263238"/><path d="M153.608,280.425s1.664-.778.772-2.151-2.43-.154-2.43-.154l.131.089a3.564,3.564,0,0,1,1.527,2.216Z" transform="translate(-100.386 -261.507)" fill="#f8951d"/><path d="M146.371,358.48l.814,8.983h-20.3V358.48Z" transform="translate(-90.215 -294.326)" fill="#ce7a63"/><path d="M146.913,315.595c-3.684-1.325-11.36-3.1-21.982-.452-1.277.321-2.163,3.22-2.151,4.533a193.632,193.632,0,0,0,2.21,25.719h20.527s.487-14.176,3.2-24.638C149.088,319.3,148.3,316.094,146.913,315.595Z" transform="translate(-88.547 -276.18)" fill="#f8951d"/><path d="M143.228,300.79c-.368,2.757-.707,6.482,1.016,8.448a1.883,1.883,0,0,1,.422,1.782c-.374,1.188-1.782,3.012-6.411,5.127a4.307,4.307,0,0,1-2.905-3.19,3.773,3.773,0,0,1,1.467-3.785,4.079,4.079,0,0,0,1.188-4.753Z" transform="translate(-93.618 -270.91)" fill="#ce7a63"/><path d="M140.125,306.495a5.733,5.733,0,0,0-.255-2.073l4.789-3.321.208,1.3S144.7,305.2,140.125,306.495Z" transform="translate(-95.483 -271.036)" opacity="0.1"/><path d="M144.339,283.534c-.523,4.854-.648,6.916-3.226,9.292-3.874,3.565-9.714,1.866-10.653-3.042-.832-4.42.172-11.639,5.032-13.32a6.654,6.654,0,0,1,8.846,7.07Z" transform="translate(-91.558 -260.879)" fill="#ce7a63"/><path d="M137.365,297.553a.119.119,0,0,0-.184-.143h0a3.208,3.208,0,0,1-2.8.784.119.119,0,0,0-.148.083.125.125,0,0,0,.083.148,3.392,3.392,0,0,0,3.03-.844Z" transform="translate(-93.192 -269.527)" fill="#263238"/><path d="M133.782,291.31A10.771,10.771,0,0,1,132,293.591a1.729,1.729,0,0,0,1.355.481Z" transform="translate(-92.289 -267.063)" fill="#ba4d3c"/><path d="M141.558,288.035a.226.226,0,0,1-.238-.131,2.756,2.756,0,0,0-1.782-1.26.244.244,0,0,1-.19-.273.232.232,0,0,1,.267-.184h0a3.184,3.184,0,0,1,2.151,1.527.232.232,0,0,1-.119.3h0A.107.107,0,0,1,141.558,288.035Z" transform="translate(-95.27 -264.982)" fill="#263238"/><path d="M131.009,286.048a.249.249,0,0,1-.22-.1.244.244,0,0,1,.048-.333,2.293,2.293,0,0,1,2.115-.392.232.232,0,0,1,.143.279h0a.22.22,0,0,1-.291.137h0a1.859,1.859,0,0,0-1.652.333A.238.238,0,0,1,131.009,286.048Z" transform="translate(-91.779 -264.551)" fill="#263238"/><path d="M131.041,289a.178.178,0,0,1,.119.048,1.343,1.343,0,0,0,1.159.357.166.166,0,1,1,.089.321h0a1.652,1.652,0,0,1-1.462-.434.16.16,0,0,1,0-.232h0a.19.19,0,0,1,.1-.059Z" transform="translate(-91.841 -266.125)" fill="#263238"/><path d="M138.443,290.18a.178.178,0,0,1,.119.048,3,3,0,0,0,1.782.4.166.166,0,0,1,.2.119.16.16,0,0,1-.113.2h0a3.208,3.208,0,0,1-2.1-.475.16.16,0,0,1,0-.232h0A.19.19,0,0,1,138.443,290.18Z" transform="translate(-94.841 -266.604)" fill="#263238"/><path d="M122.76,323.71l1.782,1.628a26.682,26.682,0,0,1-1.479,6.179C122.9,328.718,122.76,323.71,122.76,323.71Z" transform="translate(-88.539 -280.213)" opacity="0.2"/><path d="M149.949,260.268,147.81,254.6l-4.67,2.971s1.6,3.018,4.159,3.44Z" transform="translate(-96.81 -252.163)" fill="#ce7a63"/><path d="M144.477,250.7l-2,.731a1.568,1.568,0,0,0-.921,1.984l.879,2.507,4.67-2.971-.665-1.462A1.557,1.557,0,0,0,144.477,250.7Z" transform="translate(-96.133 -250.537)" fill="#ce7a63"/><path d="M153.093,293.65l6.4,5.276c1.658-2.632,6.933-13.825,6.737-23.379-.065-3.125-1.64-3.565-1.64-3.565l-12.738-10.32c-2.715-.446-2.27,1.955-2.27,1.955s10.439,12.34,10.249,13.142C159.717,277.2,153.093,293.65,153.093,293.65Z" transform="translate(-99.414 -255.007)" fill="#f8951d"/><path d="M133.5,260.128l2.163-5.668,4.67,2.971s-1.6,3.018-4.159,3.44Z" transform="translate(-92.898 -252.106)" fill="#ce7a63"/><path d="M139.778,250.6l1.99.743a1.563,1.563,0,0,1,.921,1.984l-.879,2.507-4.67-2.971.665-1.462A1.563,1.563,0,0,1,139.778,250.6Z" transform="translate(-94.375 -250.498)" fill="#ce7a63"/><path d="M123.928,293.11l-.4.594c-.594,2.252-3.19,5.549-5.4,4.806l-.351-.119c-1.646-2.65-7.5-13.409-7.3-22.915.065-3.125,1.64-3.565,1.64-3.565l12.744-10.32c2.715-.446,2.27,1.955,2.27,1.955s-10.445,12.31-10.249,13.118C116.994,277.1,123.928,293.11,123.928,293.11Z" transform="translate(-83.551 -254.978)" fill="#f8951d"/><path d="M140.631,366.71c.208,4.159,3.891,7.094,7.872,8.318-5.894,2.864-12.875,7.878-19.012,10.1-5.983-2.133-12.851-7.64-18.032-11.288,4.159-.707,6.826-1.313,9.4-7.094Z" transform="translate(-83.952 -297.666)" fill="#263238"/><path d="M83.167,387.391c-.416-4.022-1.782-7.04,12.257-9.934,3.44-.713,11.229-.594,14.71-.594,6.809-.059,13.8-.149,19.885-.232a146.584,146.584,0,0,1,16.113.5c7.2.832,11.8,4.159,10.26,10.266-2.222,8.835-27.674,6.018-37.976,6.018S84.218,397.627,83.167,387.391Z" transform="translate(-72.372 -301.675)" fill="#263238"/><path d="M88,385.213s3.054-3.422,10.047-.7,8.639,6.333,17.948,9.286l-2.727,2.24-16.582-3.173-8.157-4.278Z" transform="translate(-74.43 -304.465)" opacity="0.4"/><path d="M182.259,384.817a11.452,11.452,0,0,0-9.637,0c-5.436,2.347-9.048,6.5-15.762,8.7l.475,1.937,24.674-7.189Z" transform="translate(-102.379 -304.592)" opacity="0.4"/><path d="M142.03,404.991s-5.347,3.256-7.076,6.714c-.38.749-2.376-.339-1.7-2.192,1.141-3.078,1.218-2.3,2.151-4.931.79-2.228,1.254-3.856,1.86-5.656a.386.386,0,0,1,.065-.131.7.7,0,0,1,.974-.22l3.719,2.329,5.175-.945.659,4.753Z" transform="translate(-92.742 -310.554)" fill="#ce7a63"/><path d="M142.03,404.991s-5.347,3.256-7.076,6.714c-.38.749-2.376-.339-1.7-2.192,1.141-3.078,1.218-2.3,2.151-4.931.79-2.228,1.254-3.856,1.86-5.656a.386.386,0,0,1,.065-.131.7.7,0,0,1,.974-.22l3.719,2.329,5.175-.945.659,4.753Z" transform="translate(-92.742 -310.554)" opacity="0.2"/><path d="M182,386.509c-1.628-1.563-4.159-1.943-9.031,0s-14.081,6.8-21.567,8.448l1.022,4.86s23.408-1.586,28.34-4.29S183.786,388.214,182,386.509Z" transform="translate(-100.163 -305.167)" fill="#263238"/><path d="M137.026,404.991s5.347,3.256,7.082,6.714c.38.749,2.376-.339,1.693-2.192-1.135-3.078-1.188-2.3-2.145-4.931-.79-2.228-1.254-3.856-1.86-5.656a.54.54,0,0,0-.065-.131.7.7,0,0,0-.974-.22l-3.731,2.329-5.157-.933-.659,4.753Z" transform="translate(-91.968 -310.554)" fill="#ce7a63"/><path d="M85.4,386.509c1.634-1.563,4.159-1.943,9.031,0s14.087,6.8,21.567,8.448l-1.016,4.86s-23.408-1.586-28.34-4.29S83.618,388.214,85.4,386.509Z" transform="translate(-72.603 -305.167)" fill="#263238"/><path d="M161.925,329.257c-2.971-3.565-2.935-8.947-2.935-8.947l6.44-2.87-1.931,3.85C162.917,323.559,162.329,326.9,161.925,329.257Z" transform="translate(-103.244 -277.668)" opacity="0.2"/><path d="M138.456,275.66a16.4,16.4,0,0,0-3.482.665,3.693,3.693,0,0,0-2.341,1.64,6.055,6.055,0,0,0-.422,1.889c-.053.469-.071.737-.071.737,3.612-1.652,6.535-.945,8.609,1.153,1.022,1.016.915,2.442.511,3.826a3.945,3.945,0,0,1,1.378,2.549c.065-1.4,1.26-1.848,2.555-2.376a7.207,7.207,0,0,0-.083-7A7,7,0,0,0,138.456,275.66Z" transform="translate(-92.346 -260.693)" fill="#263238"/><path d="M149.316,295.38a.475.475,0,0,0-.22.594.4.4,0,0,1,.25.481c0,.25-.351.321-.3.79,0,.244.083.25,0,.481s-.273.41-.517.309c.131,0,.2-.178.184-.315a2.334,2.334,0,0,0-.131-.392,1.931,1.931,0,0,0-.119-1.925,2.816,2.816,0,0,1,.725-1.034A1.913,1.913,0,0,1,149.316,295.38Z" transform="translate(-98.97 -268.305)" fill="#263238"/><path d="M129.83,293.78s2.513-2.656,4.058-2.293a68.235,68.235,0,0,1,6.613,2.668s-.63,2.971,0,4.444a7.92,7.92,0,0,1-6.535,2.376C130.02,300.44,129.83,293.78,129.83,293.78Z" transform="translate(-91.408 -267.121)" fill="#f8951d"/><path d="M147.289,299.849h-.226v-.273a2.656,2.656,0,0,0,2.281-.974,3.838,3.838,0,0,0,.766-3.232.808.808,0,0,0-.493-.63c-.867-.327-2.466.79-2.483.8l-.154-.22c.065-.048,1.729-1.188,2.733-.838a1.07,1.07,0,0,1,.659.82,4.117,4.117,0,0,1-.82,3.47A2.9,2.9,0,0,1,147.289,299.849Z" transform="translate(-98.369 -268.324)" fill="#f8951d"/><g transform="translate(38.422 24.332)" opacity="0.2"><path d="M129.83,293.78s2.513-2.656,4.058-2.293a68.235,68.235,0,0,1,6.613,2.668s-.63,2.971,0,4.444a7.92,7.92,0,0,1-6.535,2.376C130.02,300.44,129.83,293.78,129.83,293.78Z" transform="translate(-129.83 -291.453)" fill="#fff"/></g><path d="M133.46,291.47c-1.539.113-3.63,2.317-3.63,2.317s.19,6.66,4.159,7.195a7.728,7.728,0,0,0,.891.059C131.755,296.538,132.676,293.08,133.46,291.47Z" transform="translate(-91.408 -267.128)" fill="#fff" opacity="0.2"/><path d="M153.568,293.537a3.475,3.475,0,0,1-1.866,1.907c-1.135.469-1.854-.511-1.664-1.663.178-1.04.98-2.537,2.18-2.531a1.568,1.568,0,0,1,1.521,1.622A1.515,1.515,0,0,1,153.568,293.537Z" transform="translate(-99.598 -267.038)" fill="#ce7a63"/></g></g></svg>