<svg xmlns="http://www.w3.org/2000/svg" width="250" height="235.899" viewBox="0 0 250 235.899"><g transform="translate(-23.71 -46.098)"><g transform="translate(23.71 281.708)"><path d="M269.429,470.614c0,.078-55.009.144-122.854.144s-122.865-.067-122.865-.144,55-.144,122.865-.144S269.429,470.531,269.429,470.614Z" transform="translate(-23.71 -470.47)" fill="#263238"/></g><g transform="translate(200.829 171.407)"><path d="M373.568,397c-8.328-3.526-17.916-10.46-22.208-18.96A47.252,47.252,0,0,1,373.568,397" transform="translate(-346.569 -319.056)" fill="#263238"/><path d="M370.388,373.23c-8.328-3.52-17.916-10.454-22.208-18.96a47.314,47.314,0,0,1,22.208,18.96" transform="translate(-345.154 -308.483)" fill="#263238"/><path d="M366.058,350.12c-8.328-3.526-17.916-10.46-22.208-18.96a47.338,47.338,0,0,1,22.208,18.96" transform="translate(-343.228 -298.203)" fill="#263238"/><path d="M362.551,323.594c-7.834-4.647-16.567-12.853-19.821-21.864a48.818,48.818,0,0,1,19.821,21.864" transform="translate(-342.73 -285.113)" fill="#263238"/><path d="M363.849,300c-5.707-7.467-11.026-18.577-10.96-28.2a52.439,52.439,0,0,1,10.96,28.2" transform="translate(-347.249 -271.8)" fill="#263238"/><path d="M375.5,307.078c1.155-10.094,5.08-22.763,11.748-30.358A61.661,61.661,0,0,1,375.5,307.078" transform="translate(-357.306 -273.988)" fill="#263238"/><path d="M380.34,326.79c2.032-10.41,7.168-23.279,14.735-30.58a64.07,64.07,0,0,1-14.735,30.58" transform="translate(-359.459 -282.658)" fill="#263238"/><path d="M385.89,351.04c2.032-10.4,7.168-23.279,14.74-30.58a64,64,0,0,1-14.741,30.58" transform="translate(-361.928 -293.444)" fill="#263238"/><path d="M390.35,380.82c2.032-10.41,7.168-23.279,14.735-30.58a64.047,64.047,0,0,1-14.735,30.58" transform="translate(-363.911 -306.69)" fill="#263238"/><path d="M371.923,319a1.228,1.228,0,0,1,.067.155c.039.105.094.272.155.461l.555,1.8c.5,1.566,1.171,3.842,1.965,6.662s1.666,6.213,2.571,9.994,1.788,7.95,2.621,12.353,1.5,8.622,2.043,12.464.944,7.323,1.233,10.243.489,5.285.594,6.929q.072,1.2.117,1.882v.494a.478.478,0,0,1,0,.167.981.981,0,0,1-.028-.167c0-.128-.033-.289-.056-.489-.044-.455-.1-1.083-.178-1.882-.144-1.632-.378-4-.694-6.912s-.755-6.379-1.3-10.221-1.244-8.05-2.065-12.448-1.727-8.567-2.593-12.348-1.738-7.162-2.5-9.994-1.4-5.119-1.865-6.7c-.217-.766-.389-1.377-.516-1.815-.05-.194-.094-.35-.128-.477A.6.6,0,0,1,371.923,319Z" transform="translate(-355.711 -292.795)" fill="#263238"/><path d="M394.71,401.393c-3.52-7.373-6.079-17.766-4.353-25.833a45.726,45.726,0,0,1,4.353,25.833" transform="translate(-363.669 -317.953)" fill="#455a64"/><path d="M405.26,384.193c-3.52-7.373-6.079-17.739-4.353-25.833a45.726,45.726,0,0,1,4.353,25.833" transform="translate(-368.362 -310.302)" fill="#455a64"/><path d="M414.72,366.7c-3.52-7.373-6.079-17.739-4.353-25.833A45.726,45.726,0,0,1,414.72,366.7" transform="translate(-372.569 -302.522)" fill="#455a64"/><path d="M425.813,347.528c-2.621-7.8-3.936-18.444-1.26-26.228a46.125,46.125,0,0,1,1.26,26.228" transform="translate(-378.472 -293.818)" fill="#455a64"/><path d="M434,333.2c.261-8.328,2.7-18.7,7.856-24.834A44.971,44.971,0,0,1,434,333.2" transform="translate(-383.327 -288.066)" fill="#455a64"/><path d="M431.24,350.734c6.107-5.768,15.4-11.487,23.74-12.214a46.009,46.009,0,0,1-23.74,12.214" transform="translate(-382.099 -301.477)" fill="#455a64"/><path d="M423.82,367.8c6.846-5.424,17.011-10.515,25.806-10.549A47.9,47.9,0,0,1,423.82,367.8" transform="translate(-378.799 -309.808)" fill="#455a64"/><path d="M414.55,386.769c6.846-5.424,17.011-10.515,25.806-10.549a47.858,47.858,0,0,1-25.806,10.549" transform="translate(-374.676 -318.246)" fill="#455a64"/><path d="M401.63,408.609c6.846-5.424,17.017-10.515,25.806-10.549a47.836,47.836,0,0,1-25.806,10.549" transform="translate(-368.929 -327.961)" fill="#455a64"/><path d="M414.672,350.389a.381.381,0,0,1-.039.133l-.139.394c-.144.366-.333.861-.555,1.493-.5,1.294-1.26,3.154-2.221,5.435-1.954,4.564-4.847,10.793-8.445,17.466-1.8,3.331-3.6,6.463-5.3,9.277s-3.287,5.308-4.664,7.373-2.515,3.725-3.331,4.847c-.394.555-.705.983-.938,1.3l-.25.333c-.056.072-.089.111-.094.105l.072-.128.222-.35.888-1.327c.783-1.149,1.893-2.82,3.242-4.9s2.909-4.586,4.6-7.4,3.437-5.957,5.236-9.288c3.592-6.662,6.512-12.869,8.517-17.411,1-2.265,1.8-4.114,2.326-5.4.267-.616.477-1.11.627-1.466.072-.155.128-.278.172-.383S414.667,350.384,414.672,350.389Z" transform="translate(-363.178 -306.756)" fill="#263238"/><path d="M400.823,423.69H365.84v6.746h3.592l3.031,19.226h21.625l3.109-19.226h3.625Z" transform="translate(-353.009 -339.361)" fill="#f8951d"/><path d="M401.023,435.451c0-.089-7.773-.161-17.367-.161s-17.367.072-17.367.161,7.773.161,17.367.161S401.023,435.54,401.023,435.451Z" transform="translate(-353.21 -344.521)" fill="#263238"/></g><g transform="translate(73.361 46.098)"><rect width="175.959" height="122.61" rx="6" transform="translate(0.156 0.129)" fill="#e0e0e0"/><path d="M289.254,52.639s0-.128-.028-.378a5.972,5.972,0,0,0-.172-1.11,6.49,6.49,0,0,0-3.731-4.381,6.6,6.6,0,0,0-1.666-.439,14.806,14.806,0,0,0-1.882-.061h-11.9l-62.8.05H120.457a10.955,10.955,0,0,0-1.6.067,6.24,6.24,0,0,0-1.538.411,6.329,6.329,0,0,0-2.532,1.915,6.174,6.174,0,0,0-1.271,2.926,9.827,9.827,0,0,0-.083,1.627V162.413a7.018,7.018,0,0,0,.266,1.827,6.29,6.29,0,0,0,5.38,4.442c.611.044,1.244.028,1.871.028H223.713l49.8.033h8.656a13.171,13.171,0,0,0,1.41-.039,6.7,6.7,0,0,0,1.349-.311,6.313,6.313,0,0,0,3.814-3.7,6.9,6.9,0,0,0,.416-2.665c0-.911,0-1.821,0-2.726V138.5c0-26.516.039-47.975.05-62.8V58.619c0,3.886,0,9.66.028,17.072,0,14.829.028,36.288.044,62.8V162.03a7.14,7.14,0,0,1-.433,2.743,6.5,6.5,0,0,1-3.953,3.836,6.324,6.324,0,0,1-1.4.322,13.775,13.775,0,0,1-1.432.05h-161.1c-.633,0-1.249,0-1.9-.028a7.217,7.217,0,0,1-1.86-.472,6.918,6.918,0,0,1-1.666-.988,7.034,7.034,0,0,1-1.294-1.427,6.957,6.957,0,0,1-.822-1.743,7.162,7.162,0,0,1-.283-1.91V53.333a9.994,9.994,0,0,1,.083-1.666,6.424,6.424,0,0,1,1.332-3.048,6.562,6.562,0,0,1,2.654-2.021,6.4,6.4,0,0,1,1.6-.428,10.837,10.837,0,0,1,1.638-.067h86.616l62.8.044h11.915a15.069,15.069,0,0,1,1.893.067,6.5,6.5,0,0,1,1.666.45,6.834,6.834,0,0,1,1.344.783,6.424,6.424,0,0,1,1.7,1.921,6.2,6.2,0,0,1,.661,1.771,5.856,5.856,0,0,1,.161,1.11C289.249,52.512,289.254,52.639,289.254,52.639Z" transform="translate(-113.14 -46.098)" fill="#263238"/><rect width="114.876" height="146.944" transform="translate(12.709 119.33) rotate(-90)" fill="#fff"/><circle cx="4.703" cy="4.703" r="4.703" transform="translate(162.568 56.237)" fill="#263238"/><rect width="36.926" height="1.943" rx="0.972" transform="translate(5.219 79.9) rotate(-90)" fill="#263238"/><rect width="13.763" height="115.276" transform="translate(12.709 4.054)" fill="#f8951d"/><path d="M137.332,143.74H150.38V155.2H137.332A1.316,1.316,0,0,1,136,153.878v-8.822a1.316,1.316,0,0,1,1.332-1.316Z" transform="translate(-123.308 -89.529)" fill="#fff"/><path d="M146.419,79.236h0a2.51,2.51,0,0,1-2.51-2.515h0a2.515,2.515,0,0,1,2.51-2.521h0a2.515,2.515,0,0,1,2.537,2.521h0a2.515,2.515,0,0,1-2.537,2.515Z" transform="translate(-126.826 -58.598)" fill="#fff"/><path d="M148.56,99.421a17.844,17.844,0,0,1-4.53,0,17.846,17.846,0,0,1,4.53,0Z" transform="translate(-126.88 -69.744)" fill="#fff"/><path d="M149.285,122.4a17.8,17.8,0,0,1-4.525,0,17.8,17.8,0,0,1,4.525,0Z" transform="translate(-127.205 -79.964)" fill="#fff"/><path d="M149.285,180.871a17.8,17.8,0,0,1-4.525,0,17.8,17.8,0,0,1,4.525,0Z" transform="translate(-127.205 -105.973)" fill="#fff"/><path d="M149.285,210.981a17.8,17.8,0,0,1-4.525,0,17.8,17.8,0,0,1,4.525,0Z" transform="translate(-127.205 -119.366)" fill="#fff"/><path d="M149.285,154.239a17.8,17.8,0,0,1-4.525,0,17.8,17.8,0,0,1,4.525,0Z" transform="translate(-127.205 -94.127)" fill="#263238"/><path d="M282.859,168.53c0-.994-.044-45.737-.117-115.276l.117.122H135.925l.144-.144V168.508l-.128-.128,146.916.15-146.961.144h-.128V53.11H282.981v.117C282.909,122.81,282.859,167.553,282.859,168.53Z" transform="translate(-123.206 -49.217)" fill="#263238"/><rect width="1.982" height="6.629" transform="translate(112.95 98.943)" fill="#f8951d"/><rect width="1.982" height="7.59" transform="translate(96.416 97.982)" fill="#f8951d"/><rect width="1.982" height="9.172" transform="translate(100.546 96.4)" fill="#f8951d"/><rect width="1.982" height="8.672" transform="translate(104.683 96.905)" fill="#f8951d"/><rect width="1.982" height="11.604" transform="translate(108.813 93.968)" fill="#f8951d"/><rect width="1.982" height="11.548" transform="translate(117.08 94.024)" fill="#f8951d"/><rect width="1.982" height="7.756" transform="translate(121.216 97.816)" fill="#f8951d"/><rect width="1.982" height="11.037" transform="translate(125.347 94.535)" fill="#f8951d"/><rect width="1.982" height="13.525" transform="translate(129.483 92.047)" fill="#f8951d"/><rect width="1.982" height="11.093" transform="translate(133.614 94.479)" fill="#f8951d"/><path d="M322.59,221.3H273.9a4.025,4.025,0,0,1-4.02-4.02V188.17a4.025,4.025,0,0,1,4.02-4.02H322.59a4.025,4.025,0,0,1,4.02,4.02v29.109a4.025,4.025,0,0,1-4.02,4.02ZM273.9,184.544a3.625,3.625,0,0,0-3.62,3.625v29.109a3.625,3.625,0,0,0,3.62,3.625H322.59a3.631,3.631,0,0,0,3.625-3.625V188.17a3.631,3.631,0,0,0-3.625-3.625Z" transform="translate(-182.858 -107.504)" fill="#e0e0e0"/><path d="M306.892,201.5c0,.056-5.635.105-12.581.105s-12.581-.05-12.581-.105,5.63-.1,12.581-.1S306.892,201.444,306.892,201.5Z" transform="translate(-188.129 -115.177)" fill="#e0e0e0"/><path d="M180.9,184.74v35.955h38.259V184.74Z" transform="translate(-143.28 -107.766)" fill="#f5f5f5"/><path d="M205.594,192.08a11.8,11.8,0,1,0,11.8,11.8A11.8,11.8,0,0,0,205.594,192.08Zm.178,18.877a7.251,7.251,0,1,1,5.131-2.128,7.251,7.251,0,0,1-5.131,2.128Z" transform="translate(-149.013 -111.031)" fill="#263238"/><path d="M215.38,192.09v4.392a7.256,7.256,0,0,1,6.907,9.438l4.281,1.16a11.809,11.809,0,0,0-11.187-14.99Z" transform="translate(-158.616 -111.036)" fill="#f8951d"/><path d="M198.516,204.429a7.251,7.251,0,0,1,4.3-6.624L201,193.73a11.8,11.8,0,0,0-7.218,10.876v.494h4.752A6.713,6.713,0,0,1,198.516,204.429Z" transform="translate(-149.009 -111.765)" fill="#455a64"/><path d="M213.5,222.041a6.967,6.967,0,0,1-1.532-.167c-.183,1.055-.555,3.092-.8,4.7a12,12,0,0,0,2.154.2,11.809,11.809,0,0,0,11.37-8.622l-4.28-1.15A7.251,7.251,0,0,1,213.5,222.041Z" transform="translate(-156.744 -122.116)" fill="#f8951d"/><g transform="translate(54.426 94.884)" opacity="0.3"><path d="M213.5,222.041a6.967,6.967,0,0,1-1.532-.167c-.183,1.055-.555,3.092-.8,4.7a12,12,0,0,0,2.154.2,11.809,11.809,0,0,0,11.37-8.622l-4.28-1.15A7.251,7.251,0,0,1,213.5,222.041Z" transform="translate(-211.17 -217)"/></g><path d="M210.557,212.381h-.439v.555h-.605v-.555H208.07v-.422l1.266-1.7h.65l-1.171,1.61h.722v-.5h.555v.5h.439Z" transform="translate(-155.365 -119.118)" fill="#263238"/><path d="M212.88,211.562c0-.883.489-1.382,1.149-1.382s1.149.5,1.149,1.382-.483,1.388-1.149,1.388S212.88,212.451,212.88,211.562Zm1.666,0c0-.605-.217-.861-.555-.861s-.522.255-.522.861.217.866.522.866.566-.255.566-.866Z" transform="translate(-157.504 -119.082)" fill="#263238"/><path d="M217.477,210.941a.672.672,0,0,1,.672-.744.744.744,0,1,1-.672.744Zm.949,0c0-.289-.111-.428-.278-.428s-.283.144-.283.428.117.422.283.422S218.426,211.224,218.426,210.941Zm1.316-.711h.461l-1.832,2.682h-.461ZM219.3,212.2a.666.666,0,1,1,.164.52A.672.672,0,0,1,219.3,212.2Zm.944,0c0-.283-.111-.422-.283-.422s-.278.139-.278.422.117.428.278.428S220.247,212.485,220.247,212.2Z" transform="translate(-159.547 -119.088)" fill="#263238"/><path d="M217,239.907c0,.061-4.375.111-9.771.111s-9.766-.05-9.766-.111,4.369-.117,9.766-.117S217,239.823,217,239.907Z" transform="translate(-150.646 -132.253)" fill="#263238"/><path d="M216.127,243.107c0,.061-2.426.111-5.419.111s-5.419-.05-5.419-.111,2.426-.117,5.419-.117S216.127,243.046,216.127,243.107Z" transform="translate(-154.128 -133.676)" fill="#263238"/><path d="M293.858,89.651h-8.711l-24.173.1-82.014.05.2-.144v40.563l-.2-.144,81.442.05,23.957.044,6.435.028h-6.435l-23.957.044-81.442.05h-.2V89.44h.2l82.014.05,24.14.044h8.156Z" transform="translate(-142.328 -65.377)" fill="#e0e0e0"/><path d="M294.018,102c0,.078-25.722.144-57.446.144s-57.452-.067-57.452-.144,25.717-.15,57.452-.15S294.018,101.933,294.018,102Z" transform="translate(-142.488 -70.897)" fill="#e0e0e0"/><path d="M294.018,112.06c0,.078-25.722.144-57.446.144s-57.452-.067-57.452-.144,25.717-.15,57.452-.15S294.018,111.96,294.018,112.06Z" transform="translate(-142.488 -75.371)" fill="#e0e0e0"/><path d="M294.018,122.133c0,.078-25.722.144-57.446.144s-57.452-.067-57.452-.144S204.837,122,236.572,122,294.018,122.05,294.018,122.133Z" transform="translate(-142.488 -79.859)" fill="#e0e0e0"/><path d="M294.018,132.167c0,.078-25.722.144-57.446.144s-57.452-.067-57.452-.144S204.837,132,236.572,132,294.018,132.083,294.018,132.167Z" transform="translate(-142.488 -84.307)" fill="#e0e0e0"/><path d="M294.018,142.24c0,.078-25.722.144-57.446.144s-57.452-.067-57.452-.144,25.717-.15,57.452-.15S294.018,142.157,294.018,142.24Z" transform="translate(-142.488 -88.795)" fill="#e0e0e0"/><path d="M179.12,152.294c0-.078,25.722-.144,57.446-.144s57.452.067,57.452.144-25.717.15-57.452.15S179.12,152.378,179.12,152.294Z" transform="translate(-142.488 -93.27)" fill="#e0e0e0"/><path d="M208.334,131.022c-.083,0-.144-9.211-.144-20.576s.061-20.587.144-20.587.15,9.216.15,20.587S208.418,131.022,208.334,131.022Z" transform="translate(-155.418 -65.563)" fill="#e0e0e0"/><path d="M238.14,131.022c-.083,0-.15-9.211-.15-20.576s.067-20.587.15-20.587.144,9.216.144,20.587S238.218,131.022,238.14,131.022Z" transform="translate(-168.673 -65.563)" fill="#e0e0e0"/><path d="M267.944,131.022c-.078,0-.144-9.211-.144-20.576s.067-20.587.144-20.587.15,9.216.15,20.587S268.028,131.022,267.944,131.022Z" transform="translate(-181.933 -65.563)" fill="#e0e0e0"/><path d="M297.75,131.022c-.083,0-.15-9.211-.15-20.576s.067-20.587.15-20.587.144,9.216.144,20.587S297.822,131.022,297.75,131.022Z" transform="translate(-195.188 -65.563)" fill="#e0e0e0"/><path d="M327.554,131.022c-.078,0-.144-9.211-.144-20.576s.067-20.587.144-20.587.15,9.216.15,20.587S327.638,131.022,327.554,131.022Z" transform="translate(-208.448 -65.563)" fill="#e0e0e0"/><path d="M356.41,131.022c-.083,0-.15-9.211-.15-20.576s.067-20.587.15-20.587.144,9.216.144,20.587S356.488,131.022,356.41,131.022Z" transform="translate(-221.28 -65.563)" fill="#e0e0e0"/><path d="M386.214,131.022c-.078,0-.144-9.211-.144-20.576s.067-20.587.144-20.587.15,9.216.15,20.587S386.3,131.022,386.214,131.022Z" transform="translate(-234.54 -65.563)" fill="#e0e0e0"/><path d="M208.651,151.6a1.01,1.01,0,1,1-1.01-1,1.011,1.011,0,0,1,1.01,1Z" transform="translate(-154.724 -92.581)" fill="#f8951d"/><path d="M238.451,131.49a1,1,0,1,1-.292-.714A1.01,1.01,0,0,1,238.451,131.49Z" transform="translate(-167.98 -83.631)" fill="#f8951d"/><path d="M268.261,141.375a1.01,1.01,0,1,1-1.01-1A1.01,1.01,0,0,1,268.261,141.375Z" transform="translate(-181.239 -88.03)" fill="#f8951d"/><path d="M298.072,120.755a1.044,1.044,0,0,1-1.477,1.477h0a1.044,1.044,0,0,1,1.477-1.477Z" transform="translate(-194.605 -79.17)" fill="#f8951d"/><path d="M328.222,120.755a1.044,1.044,0,0,1-1.477,1.477h0a1.044,1.044,0,0,1,1.477-1.477Z" transform="translate(-208.016 -79.17)" fill="#f8951d"/><path d="M356.422,140.495a1.044,1.044,0,0,1-1.477,1.477h0a1.044,1.044,0,0,1,1.477-1.477Z" transform="translate(-220.559 -87.95)" fill="#f8951d"/><path d="M238.451,111.37a1,1,0,1,1-.292-.714,1.01,1.01,0,0,1,.292.714Z" transform="translate(-167.98 -74.682)" fill="#455a64"/><path d="M208.651,141.55a1.01,1.01,0,1,1-1.01-1.01A1.01,1.01,0,0,1,208.651,141.55Z" transform="translate(-154.724 -88.106)" fill="#455a64"/><path d="M356.463,150.874a1.044,1.044,0,1,1-1.436.035A1.044,1.044,0,0,1,356.463,150.874Z" transform="translate(-220.595 -92.583)" fill="#455a64"/><path d="M327.871,131.49a1,1,0,1,1-.294-.716A1.01,1.01,0,0,1,327.871,131.49Z" transform="translate(-207.754 -83.631)" fill="#455a64"/><path d="M298.381,131.195a1.01,1.01,0,1,1-1.01-1A1.01,1.01,0,0,1,298.381,131.195Z" transform="translate(-194.637 -83.502)" fill="#455a64"/><path d="M193.447,171.06a8.883,8.883,0,0,1-3.187,0,8.545,8.545,0,0,1,3.187,0Z" transform="translate(-147.443 -101.615)" fill="#e0e0e0"/><path d="M223.917,171.06a8.883,8.883,0,0,1-3.187,0,8.545,8.545,0,0,1,3.187,0Z" transform="translate(-160.996 -101.615)" fill="#e0e0e0"/><path d="M254.381,171.06a8.839,8.839,0,0,1-3.181,0A8.517,8.517,0,0,1,254.381,171.06Z" transform="translate(-174.549 -101.615)" fill="#e0e0e0"/><path d="M284.847,171.06a8.883,8.883,0,0,1-3.187,0,8.545,8.545,0,0,1,3.187,0Z" transform="translate(-188.098 -101.615)" fill="#e0e0e0"/><path d="M315.307,171.06a8.883,8.883,0,0,1-3.187,0,8.545,8.545,0,0,1,3.187,0Z" transform="translate(-201.647 -101.615)" fill="#e0e0e0"/><path d="M342.557,171.06a8.883,8.883,0,0,1-3.187,0,8.545,8.545,0,0,1,3.187,0Z" transform="translate(-213.768 -101.615)" fill="#e0e0e0"/><path d="M369.8,171.06a8.883,8.883,0,0,1-3.187,0,8.545,8.545,0,0,1,3.187,0Z" transform="translate(-225.884 -101.615)" fill="#e0e0e0"/><path d="M172.751,162.316a3,3,0,0,1-1.283.144,3.037,3.037,0,0,1-1.288-.144,2.893,2.893,0,0,1,1.288-.15,2.859,2.859,0,0,1,1.283.15Z" transform="translate(-138.511 -97.717)" fill="#e0e0e0"/><path d="M172.751,150.616a3,3,0,0,1-1.283.144,3.037,3.037,0,0,1-1.288-.144,2.893,2.893,0,0,1,1.288-.15A2.859,2.859,0,0,1,172.751,150.616Z" transform="translate(-138.511 -92.513)" fill="#e0e0e0"/><path d="M172.751,138.916a3,3,0,0,1-1.283.144,3.037,3.037,0,0,1-1.288-.144,2.893,2.893,0,0,1,1.288-.15A2.859,2.859,0,0,1,172.751,138.916Z" transform="translate(-138.511 -87.309)" fill="#e0e0e0"/><path d="M172.751,127.216a3,3,0,0,1-1.283.144,3.037,3.037,0,0,1-1.288-.144,2.893,2.893,0,0,1,1.288-.15A2.859,2.859,0,0,1,172.751,127.216Z" transform="translate(-138.511 -82.105)" fill="#e0e0e0"/><path d="M172.751,115.516a3,3,0,0,1-1.283.144,3.037,3.037,0,0,1-1.288-.144,2.893,2.893,0,0,1,1.288-.15,2.859,2.859,0,0,1,1.283.15Z" transform="translate(-138.511 -76.901)" fill="#e0e0e0"/><path d="M172.751,103.866a3,3,0,0,1-1.283.144,3.037,3.037,0,0,1-1.288-.144,2.892,2.892,0,0,1,1.288-.15A2.859,2.859,0,0,1,172.751,103.866Z" transform="translate(-138.511 -71.719)" fill="#e0e0e0"/><path d="M172.751,92.122a3,3,0,0,1-1.283.144,3.037,3.037,0,0,1-1.288-.144,2.892,2.892,0,0,1,1.288-.139A2.859,2.859,0,0,1,172.751,92.122Z" transform="translate(-138.511 -66.499)" fill="#e0e0e0"/><path d="M178.773,144.825l-.183-.522,16.451-5.78,16.634-11.232,16.55,5.491,16.673-11,16.7-.044.072.05,15.862,11.2,15.373-10.155.305.466-15.69,10.366-.155-.111L261.42,122.3l-16.356.044-16.756,11.054-16.55-5.485-16.495,11.126Z" transform="translate(-142.252 -79.744)" fill="#f8951d"/><path d="M277.856,129.718l-16.2-11.01H244.966l-16.706-11.026-16.2-.144-16.545,16.75h-16.4v-.555h16.167l16.55-16.756,16.595.15,16.7,11.026h16.695l15.845,10.765,15.818-27.8.483.272Z" transform="translate(-142.488 -70.572)" fill="#455a64"/><path d="M363.431,75.074c0,.083-6.24.144-13.935.144s-13.935-.061-13.935-.144,6.24-.144,13.935-.144S363.431,75,363.431,75.074Z" transform="translate(-212.073 -58.923)" fill="#263238"/><path d="M179.79,73.644h-1.01V73.05h2.776v.594h-1.01v2.565h-.755Z" transform="translate(-142.337 -58.086)" fill="#263238"/><path d="M186.469,76.209l-.594-.883H185.2v.883h-.727V73.05h1.366c.844,0,1.371.439,1.371,1.144a1.027,1.027,0,0,1-.65,1l.711,1.016Zm-.683-2.565h-.6v1.11h.6c.444,0,.672-.205.672-.555s-.228-.555-.672-.555Z" transform="translate(-144.868 -58.086)" fill="#263238"/><path d="M192.868,75.621v.589H190.42V73.05h2.387v.555h-1.666v.688h1.466v.555h-1.466v.733Z" transform="translate(-147.514 -58.086)" fill="#263238"/><path d="M198.769,73.05v3.159h-.611l-1.577-1.921v1.921h-.722V73.05h.633l1.577,1.915V73.05Z" transform="translate(-149.934 -58.086)" fill="#263238"/><path d="M202.427,73.043h1.421a1.588,1.588,0,1,1,0,3.159H202.41Zm1.421,2.559a.983.983,0,1,0,0-1.96h-.666V75.6Z" transform="translate(-152.847 -58.08)" fill="#263238"/></g><g transform="translate(32.505 64.222)"><path d="M124.283,206.4l-1.949,2.437v-4.2h-6.152s-.683,9.616-.555,11.659,2.443,7.906,2.443,7.906a22.652,22.652,0,0,0,6.2-5.419c2.732-3.509,7.273-12.07,7.273-12.07L126.8,203.86Z" transform="translate(-73.383 -134.395)" fill="#ffbe9d"/><path d="M127.019,207.628a6.534,6.534,0,0,1-.8,1.072c-.522.644-1.238,1.527-2.06,2.487a29.094,29.094,0,0,1-2.221,2.371,4.375,4.375,0,0,1-1.049.849,10.2,10.2,0,0,1,.9-.988c.555-.605,1.3-1.466,2.126-2.421A31.787,31.787,0,0,1,127.019,207.628Z" transform="translate(-75.731 -136.07)" fill="#eb996e"/><path d="M121.774,167.458s-1.749-14.352-8.678-15.818l-3.587,13.791,2.981,9.949,9.888-1.332Z" transform="translate(-70.669 -111.167)" fill="#f8951d"/><path d="M49.19,174.9l.328,1.027L56.3,197.256s16.795,6.351,22.824,3.853A22.649,22.649,0,0,0,87.943,195L86.6,149.609l-9.566-1.449-16.495-1.21L49.49,150.5Z" transform="translate(-43.839 -109.081)" fill="#f8951d"/><g transform="translate(5.351 63.436)" opacity="0.3"><path d="M70.01,203.7A71.21,71.21,0,0,1,52.566,193l-3.376,1.8c2.537,5.124,4.653,9.8,8.15,14.324A11.909,11.909,0,0,0,62,212.859a7.773,7.773,0,0,0,7.828-1.588c2.01-1.871,3.52-7.367,2.859-11.848C71.559,199.49,71.054,204.132,70.01,203.7Z" transform="translate(-49.19 -193)"/></g><path d="M115.5,181.8a21.6,21.6,0,0,0-1.11-4.525,21.17,21.17,0,0,0-2.343-4.031,4.736,4.736,0,0,1,.949,1.01,12.77,12.77,0,0,1,1.666,2.909,12.353,12.353,0,0,1,.833,3.248A4.752,4.752,0,0,1,115.5,181.8Z" transform="translate(-71.799 -120.775)" fill="#263238"/><path d="M103.279,110.086a2.46,2.46,0,0,1-2.315-1.027,2.965,2.965,0,0,0,1.777-.1,1,1,0,0,0,.422-1.5c-.328-.339-.872-.278-1.338-.311a2.9,2.9,0,0,1-2.465-1.893,8.015,8.015,0,0,1,.105-3.587,9.882,9.882,0,0,0-4.136-9.139L87.806,88.2A17,17,0,0,0,84.8,100.786a33.139,33.139,0,0,0,4.669,12.348,14.524,14.524,0,0,0,2.271,3.126,5.8,5.8,0,0,0,3.376,1.732,3.481,3.481,0,0,0-.555-3.148,7.6,7.6,0,0,0,5.6-2l-1.616-1.233A5.88,5.88,0,0,0,103.279,110.086Z" transform="translate(-59.603 -82.949)" fill="#263238"/><path d="M66.028,98a7.045,7.045,0,0,1,5.113-6.662l9.438-2.693c4.092-.555,6.979,4.408,7.362,8.522.433,4.569.755,9.394.316,12.825-.877,6.9-6.107,7.939-6.107,7.939s.094,3.265.15,5.274L80.763,132.2,68.31,121.58,66,98.084C66,97.968,66,98.156,66.028,98Z" transform="translate(-51.316 -83.128)" fill="#ffbe9d"/><path d="M101.954,112.9a.883.883,0,0,1-.822.916.838.838,0,0,1-.933-.766.877.877,0,0,1,.816-.916.849.849,0,0,1,.938.766Z" transform="translate(-66.527 -93.594)" fill="#263238"/><path d="M100.983,108.3c-.111.117-.788-.355-1.738-.322s-1.627.555-1.732.411.05-.261.344-.489a2.443,2.443,0,0,1,1.388-.472,2.276,2.276,0,0,1,1.382.4C100.928,108.028,101.033,108.228,100.983,108.3Z" transform="translate(-65.318 -91.501)" fill="#263238"/><path d="M87,112.923a.883.883,0,0,1-.822.916.838.838,0,0,1-.933-.766.877.877,0,0,1,.822-.916.849.849,0,0,1,.933.766Z" transform="translate(-59.877 -93.603)" fill="#263238"/><path d="M84.764,108.731c-.105.122-.788-.355-1.738-.322s-1.627.555-1.732.416.05-.261.35-.494a2.426,2.426,0,0,1,1.382-.472,2.332,2.332,0,0,1,1.388.4C84.708,108.492,84.819,108.681,84.764,108.731Z" transform="translate(-58.104 -91.693)" fill="#263238"/><path d="M92.74,116.373a6.384,6.384,0,0,1,1.532-.328c.239,0,.466-.083.505-.25a1.283,1.283,0,0,0-.183-.716c-.25-.555-.505-1.183-.772-1.821a31.507,31.507,0,0,1-1.76-4.769,31.8,31.8,0,0,1,2.138,4.619l.744,1.832a1.4,1.4,0,0,1,.155.944.605.605,0,0,1-.389.366,1.527,1.527,0,0,1-.411.072A5.946,5.946,0,0,1,92.74,116.373Z" transform="translate(-62.904 -91.974)" fill="#263238"/><path d="M78.52,137.53s2.371,4.658,9.222,3.8l-.044-1.616a17.278,17.278,0,0,1-9.177-2.187Z" transform="translate(-56.885 -104.891)" fill="#eb996e"/><path d="M83.4,102.755c-.083.261-1.038.167-2.143.333s-2,.5-2.154.272c-.067-.105.083-.355.433-.616a3.7,3.7,0,0,1,1.588-.605,3.625,3.625,0,0,1,1.666.144C83.227,102.433,83.444,102.633,83.4,102.755Z" transform="translate(-57.139 -89.132)" fill="#263238"/><path d="M100.488,103c-.161.222-.822,0-1.6.033s-1.449.189-1.6-.033c-.072-.105,0-.322.311-.555a2.321,2.321,0,0,1,2.587,0C100.444,102.678,100.561,102.894,100.488,103Z" transform="translate(-65.217 -89.11)" fill="#263238"/><path d="M86.876,125.221a1.233,1.233,0,0,1,1.249-.972,1.288,1.288,0,0,1,1.033.688,1.588,1.588,0,0,1,.089,1.233v.089a1.4,1.4,0,0,1-1.577.383A1.31,1.31,0,0,1,86.876,125.221Z" transform="translate(-60.594 -98.983)" fill="#eb996e"/><path d="M90.169,125.766c0-.139-.96-.067-1.7-.833s-.716-1.793-.849-1.793-.172.244-.15.677a2.426,2.426,0,0,0,.661,1.5,2.093,2.093,0,0,0,1.421.638C89.98,125.96,90.18,125.838,90.169,125.766Z" transform="translate(-60.861 -98.49)" fill="#263238"/><path d="M71.76,82.672a9.577,9.577,0,0,1,5.524-3.786,5.245,5.245,0,0,1,5.058,1.338,5.6,5.6,0,0,0,2.221,1.31,9.409,9.409,0,0,1,3.248.688c1.749.894,2.515,3.226,3.331,5,1,2.221,2.437,4.269,3.092,6.618s.311,5.236-1.666,6.662c.378-2,.688-4.236-.411-5.952-.838-1.31-2.337-2.038-3.414-3.159-1.3-1.355-1.466-3.17-2.832-4.442C82.8,84,77.334,89.168,71.777,82.677" transform="translate(-53.878 -78.742)" fill="#263238"/><path d="M92.944,95.281a20.048,20.048,0,0,0-3.059-5.552,10.793,10.793,0,0,0-14.33-1.838L75,87.936a9.089,9.089,0,0,0,7.079,3.409c1.616,0,3.365-.422,4.752.411s1.832,2.476,2.931,3.575c.744.744,1.743,1.2,2.471,1.977a8.106,8.106,0,0,1,1.527,2.965C94.238,98.618,93.6,96.869,92.944,95.281Z" transform="translate(-55.319 -81.958)" fill="#263238"/><path d="M68.61,88.731l-4.4-3.886c-3.431-.178-5.635,3.065-6.812,5.552-.877,1.86-1.149,3.942-1.81,5.891s-1.76,3.853-2.376,5.868-.7,4.369.516,6.107l.766-1.41a8.517,8.517,0,0,0,2.293,5.28c.1-.489.2-.977.294-1.471a8.328,8.328,0,0,0,3.331,3.57l2.065,5.513C65.517,110.467,57.678,109.767,68.61,88.731Z" transform="translate(-45.431 -81.453)" fill="#263238"/><path d="M69.716,89.683a20.07,20.07,0,0,1-1.033,3.687A7.073,7.073,0,0,1,66.418,96.4c-1.5,1.11-3.448,1.316-5.258,1.754s-3.736,1.266-4.48,2.97a42.472,42.472,0,0,1,1.543-7.384c.805-2.659,1.965-5.335,4.186-7.04a7.662,7.662,0,0,1,7.218-1.072" transform="translate(-47.17 -81.601)" fill="#263238"/><path d="M68.291,114.841c-.094-.228-4.364-1.632-4.292,2.865.067,4.369,4.442,3.381,4.442,3.253S68.291,114.841,68.291,114.841Z" transform="translate(-50.425 -94.627)" fill="#ffbe9d"/><path d="M67.963,120.456a1.222,1.222,0,0,1-.2.117.755.755,0,0,1-.555,0,1.879,1.879,0,0,1-.9-1.666,2.565,2.565,0,0,1,.194-1.11.872.872,0,0,1,.555-.594.383.383,0,0,1,.455.2c.061.117.033.205.056.217s.094-.078.056-.255a.494.494,0,0,0-.178-.272.588.588,0,0,0-.422-.105,1.11,1.11,0,0,0-.783.694A2.576,2.576,0,0,0,66,118.9a1.97,1.97,0,0,0,1.144,1.865.8.8,0,0,0,.694-.128C67.957,120.561,67.979,120.461,67.963,120.456Z" transform="translate(-51.313 -95.751)" fill="#eb996e"/><path d="M67.915,124.653a.849.849,0,1,0,.205.056" transform="translate(-51.738 -99.16)" fill="#fff"/><path d="M68.018,124.662a1.2,1.2,0,0,1,.405.555.722.722,0,0,1-.15.688.766.766,0,0,1-1.355-.389.744.744,0,0,1,.239-.666,1.16,1.16,0,0,1,.655-.266.418.418,0,0,0-.205-.044.916.916,0,0,0-.555.205.877.877,0,0,0-.328.8.944.944,0,0,0,1.666.483.916.916,0,0,0-.205-1.316C68.1,124.662,68.018,124.651,68.018,124.662Z" transform="translate(-51.635 -99.113)" fill="#263238"/><path d="M62.236,115.271s-.056,0-.139-.1a3.065,3.065,0,0,1-.333-.333,5.252,5.252,0,0,1-.911-1.488,5.13,5.13,0,0,1-.344-2.571A4.392,4.392,0,0,1,62.053,108a10.765,10.765,0,0,1,2.732-1.6c.888-.383,1.666-.716,2.321-1.066A9.538,9.538,0,0,0,69,104a2.015,2.015,0,0,1-.4.5,6.89,6.89,0,0,1-1.394,1.049,25.154,25.154,0,0,1-2.31,1.11,10.793,10.793,0,0,0-2.648,1.577,4.2,4.2,0,0,0-1.482,2.582,5.113,5.113,0,0,0,.278,2.46A7.562,7.562,0,0,0,62.236,115.271Z" transform="translate(-48.856 -89.977)" fill="#455a64"/><path d="M62.714,113.06a1.238,1.238,0,0,1-.194-.428,3.514,3.514,0,0,1-.155-1.271,4.008,4.008,0,0,1,.555-1.827,3.964,3.964,0,0,1,1.71-1.588,22.71,22.71,0,0,1,2.132-.866,5.891,5.891,0,0,0,1.6-.883,3.553,3.553,0,0,0,1-1.338.933.933,0,0,1-.105.455,2.848,2.848,0,0,1-.761,1.038,5.7,5.7,0,0,1-1.632.972c-.65.278-1.394.511-2.1.877a3.886,3.886,0,0,0-1.616,1.466,4.12,4.12,0,0,0-.555,1.71,6.107,6.107,0,0,0,.122,1.682Z" transform="translate(-49.696 -90.359)" fill="#455a64"/><path d="M77.258,89.9A9.606,9.606,0,0,0,73,85a2.421,2.421,0,0,1,.922.366,7.079,7.079,0,0,1,1.854,1.521,6.968,6.968,0,0,1,1.249,2.043A2.471,2.471,0,0,1,77.258,89.9Z" transform="translate(-54.429 -81.526)" fill="#455a64"/><path d="M111.043,114.649a1.938,1.938,0,0,1-.555-.072,11.953,11.953,0,0,1-1.488-.4,6.724,6.724,0,0,1-.983-.439,2.665,2.665,0,0,1-.96-.822,1.693,1.693,0,0,1-.261-.655l-.05-.339a2.555,2.555,0,0,1-.039-.366,4.675,4.675,0,0,1,.267-1.455,5.551,5.551,0,0,0,.305-1.366,2.132,2.132,0,0,0-.344-1.2,9.338,9.338,0,0,0-1.51-1.666,12.255,12.255,0,0,0-1.155-.988,4.5,4.5,0,0,1-.45-.333,5,5,0,0,1,1.766,1.194,8.473,8.473,0,0,1,1.6,1.666,2.382,2.382,0,0,1,.4,1.344,5.585,5.585,0,0,1-.311,1.444,4.441,4.441,0,0,0-.261,1.366,3.007,3.007,0,0,0,.033.322l.044.339a1.488,1.488,0,0,0,.211.555,2.537,2.537,0,0,0,.855.761,7.5,7.5,0,0,0,.938.45C110.266,114.438,111.06,114.6,111.043,114.649Z" transform="translate(-68.138 -90.222)" fill="#455a64"/><path d="M88.8,451.859l.239-6.124,10.682-.405-.167,7.5-3.881,2.343Z" transform="translate(-61.457 -241.801)" fill="#ffbe9d"/><path d="M99.24,456.045v.7s11.859,4.9,11.965,7.156l-23.635-.35.439-7.862a13.5,13.5,0,0,0,11.232.355Z" transform="translate(-60.91 -246.409)" fill="#f8951d"/><g transform="translate(26.66 209.281)" opacity="0.3"><path d="M99.24,456.045v.7s11.859,4.9,11.965,7.156l-23.635-.35.439-7.862a13.5,13.5,0,0,0,11.232.355Z" transform="translate(-87.57 -455.69)"/></g><g transform="translate(28.747 211.835)" opacity="0.6"><path d="M92.029,460.29a.966.966,0,0,0-.683,1.11.927.927,0,0,0,1.077.688,1.022,1.022,0,0,0,.716-1.16.961.961,0,0,0-1.2-.588" transform="translate(-91.329 -460.29)" fill="#fff"/></g><g transform="translate(26.654 215.255)" opacity="0.6"><path d="M87.56,468.338l.105-1.888,22.613,1.022s1.044.472.916,1.216Z" transform="translate(-87.56 -466.45)" fill="#fff"/></g><path d="M106.991,457.642c0,.117-.555.161-1.155.522s-.883.844-.988.8.078-.716.777-1.11S107.019,457.536,106.991,457.642Z" transform="translate(-68.583 -247.24)" fill="#263238"/><path d="M111.9,459.584c0,.117-.477.305-.877.788s-.522.994-.633.988-.183-.661.328-1.249S111.9,459.478,111.9,459.584Z" transform="translate(-71.023 -248.121)" fill="#263238"/><path d="M115.522,463.412c-.105,0-.261-.555.044-1.188s.849-.872.9-.772-.294.427-.555.949S115.633,463.412,115.522,463.412Z" transform="translate(-73.284 -248.963)" fill="#263238"/><path d="M71.5,452.109l.244-6.124,10.676-.405-.161,7.5-3.881,2.343Z" transform="translate(-53.762 -241.912)" fill="#ffbe9d"/><path d="M81.95,456.3v.7s11.859,4.9,11.965,7.156L70.28,463.8l.439-7.862a13.5,13.5,0,0,0,11.232.355Z" transform="translate(-53.22 -246.521)" fill="#f8951d"/><g transform="translate(19.146 211.954)" opacity="0.6"><path d="M74.738,460.525a.961.961,0,0,0-.683,1.11.927.927,0,0,0,1.072.666,1.022,1.022,0,0,0,.716-1.16.961.961,0,0,0-1.2-.589" transform="translate(-74.037 -460.506)" fill="#fff"/></g><g transform="translate(17.055 215.393)" opacity="0.6"><path d="M70.27,468.588l.105-1.888,22.613,1.022s1.044.477.916,1.216Z" transform="translate(-70.27 -466.7)" fill="#fff"/></g><path d="M89.7,457.923c0,.117-.555.161-1.155.522s-.883.844-.988.8.072-.711.777-1.11S89.728,457.8,89.7,457.923Z" transform="translate(-60.892 -247.36)" fill="#263238"/><path d="M94.6,459.834c0,.117-.477.305-.877.788s-.522.994-.638.988-.178-.661.333-1.249S94.6,459.728,94.6,459.834Z" transform="translate(-63.328 -248.233)" fill="#263238"/><path d="M98.225,463.672c-.105,0-.255-.555.05-1.188s.849-.872.9-.772-.294.427-.555.949S98.341,463.661,98.225,463.672Z" transform="translate(-65.591 -249.078)" fill="#263238"/><path d="M42.61,175.073s8.883,13.769,13.547,19.321,12.331.666,13.219-6.884.655-21.547.655-21.547l-6.207-3.692-4.014,19.1-5-9.3Z" transform="translate(-40.912 -115.896)" fill="#ffbe9d"/><path d="M87.027,153.862l2.665-6.662a10.376,10.376,0,0,0,1.571-.911c.394-.366.316-2.776.205-3.2s.433-1.666.05-1.888-1.455,0-1.493-.444c0-.094.555-1.227-.228-1.788a3.426,3.426,0,0,0-1.227-.222l-.433-2.221s-1.777-2.326-2.776-1.11c0,0-3.781,4.553-4.114,5.219s-.428,8.383-.428,9.827" transform="translate(-57.908 -103.795)" fill="#ffbe9d"/><path d="M80.831,150.372a1.738,1.738,0,0,1,0-.4v-1.155c0-1,0-2.454.056-4.253,0-.9.056-1.882.133-2.943a4.484,4.484,0,0,1,.094-.816,1.738,1.738,0,0,1,.389-.783c.333-.466.688-.922,1.06-1.394.738-.938,1.527-1.91,2.348-2.92a3.581,3.581,0,0,1,.716-.744,1.183,1.183,0,0,1,1.083,0,4.8,4.8,0,0,1,1.593,1.371h0v.039c.044.211.089.444.133.677.1.516.205,1.033.305,1.532l-.139-.117a5.8,5.8,0,0,1,.866.089,1.244,1.244,0,0,1,.45.167,1.11,1.11,0,0,1,.311.355,1.41,1.41,0,0,1,.128.894,2.065,2.065,0,0,1-.094.416l-.061.194v.044h0a.044.044,0,0,0,0,.039.427.427,0,0,0,.261.105,2.888,2.888,0,0,0,.383.039,1.455,1.455,0,0,1,.405.039.8.8,0,0,1,.444.183.644.644,0,0,1,.117.466,1.557,1.557,0,0,1-.05.4c-.05.255-.111.5-.139.738a.894.894,0,0,0,0,.322,2.775,2.775,0,0,0,.05.383q0,.378.033.733a9.911,9.911,0,0,1-.072,1.416,1.76,1.76,0,0,1-.211.688,2.037,2.037,0,0,1-.555.411,8.286,8.286,0,0,1-1.11.555l.056-.056-1.993,4.847c-.233.555-.422.994-.555,1.321a3.253,3.253,0,0,1-.211.45,3.037,3.037,0,0,1,.155-.472c.122-.333.294-.783.505-1.344.461-1.183,1.11-2.848,1.9-4.886v-.039h.039c.355-.172.722-.366,1.11-.583a1.971,1.971,0,0,0,.483-.35,1.6,1.6,0,0,0,.161-.589,9.256,9.256,0,0,0,.056-1.371q0-.361-.033-.716a2.138,2.138,0,0,0-.05-.344,1.171,1.171,0,0,1,0-.416c.033-.261.094-.511.139-.755a2.775,2.775,0,0,0,.044-.361.428.428,0,0,0-.05-.272.655.655,0,0,0-.278-.094,1.533,1.533,0,0,1-.383-.033c-.133-.033-.266,0-.411-.039a.655.655,0,0,1-.444-.222.272.272,0,0,1-.061-.15.183.183,0,0,1,0-.111v-.056l.061-.189a3.064,3.064,0,0,0,.083-.378,1.11,1.11,0,0,0-.1-.716.8.8,0,0,0-.233-.261.933.933,0,0,0-.333-.117,5.647,5.647,0,0,0-.833-.033h-.117V138.7c-.1-.5-.205-1.016-.305-1.532-.044-.233-.089-.461-.133-.677v.061a4.569,4.569,0,0,0-1.482-1.283.877.877,0,0,0-.827,0,3.12,3.12,0,0,0-.633.677c-.833,1-1.621,1.971-2.365,2.9-.372.461-.733.922-1.06,1.371a1.477,1.477,0,0,0-.355.683c-.044.261-.072.555-.1.788-.089,1.049-.128,2.038-.167,2.931-.061,1.771-.111,3.215-.144,4.247a9.76,9.76,0,0,1-.039,1.155A2.265,2.265,0,0,1,80.831,150.372Z" transform="translate(-57.907 -103.692)" fill="#eb996e"/><path d="M89.382,141.689a11.722,11.722,0,0,1-1.166.355,8.217,8.217,0,0,0-1.188.555,5.735,5.735,0,0,1-1.616.383,3.126,3.126,0,0,0-2.36,1.4,3.359,3.359,0,0,0-.389,1.11,1.549,1.549,0,0,1,.211-1.221,3.07,3.07,0,0,1,.922-1.022,3.4,3.4,0,0,1,1.571-.555,6.662,6.662,0,0,0,1.555-.339,7.02,7.02,0,0,1,1.233-.555,3.331,3.331,0,0,1,1.227-.117Z" transform="translate(-58.708 -106.735)" fill="#eb996e"/><path d="M91.53,141.183c-.061.05-.305-.178-.372-.555s.1-.677.172-.65.061.294.117.605S91.618,141.133,91.53,141.183Z" transform="translate(-62.499 -105.979)" fill="#eb996e"/><path d="M93.044,145.4a10.344,10.344,0,0,1-3.509.516,3.331,3.331,0,0,0-1.3.128,1.377,1.377,0,0,0-.694.727,7.772,7.772,0,0,0-.255.977,1.566,1.566,0,0,1,.067-1.055,1.549,1.549,0,0,1,.777-.894,3.42,3.42,0,0,1,1.4-.178C91.467,145.6,93.027,145.315,93.044,145.4Z" transform="translate(-60.754 -108.384)" fill="#eb996e"/><path d="M95.6,148.877a1.982,1.982,0,0,1-.844.194c-.555.061-1.271.039-2.071.067a4.559,4.559,0,0,0-1.11.133,1.31,1.31,0,0,0-.705.45,1.266,1.266,0,0,0-.222.761.411.411,0,0,1-.1-.222.977.977,0,0,1,.15-.65,1.482,1.482,0,0,1,.794-.594,4.125,4.125,0,0,1,1.16-.167c.822-.028,1.543,0,2.071,0a3.809,3.809,0,0,1,.877.028Z" transform="translate(-62.23 -109.92)" fill="#eb996e"/><path d="M96.972,152.435c.056,0-.239.516-.949.677l.111-.155.039.378a4.136,4.136,0,0,1,0,1.527,4.092,4.092,0,0,1-.289-1.493l-.033-.378v-.133h.122C96.572,152.746,96.922,152.38,96.972,152.435Z" transform="translate(-64.593 -111.519)" fill="#eb996e"/><path d="M88.284,232s7.9,17.439,7.9,28.348-7.773,46.587-7.773,46.587-1.038,9.866-2.082,23.03a157.329,157.329,0,0,1-3.981,24.429H74.576l-12.642.344s-5.369-21.991-5.025-30.3S58.642,306.6,58.642,306.6s-6.751-27.532-7.967-32.557a52.97,52.97,0,0,1-.727-9.7,63.62,63.62,0,0,1,4.442-24l2.221-5.6Z" transform="translate(-44.174 -146.912)" fill="#263238"/><path d="M94.879,294.85c-.083,0-1.022,19.521-2.093,43.611s-1.9,43.639-1.793,43.639,1.022-19.521,2.093-43.616S94.946,294.85,94.879,294.85Z" transform="translate(-62.429 -174.867)" fill="#455a64"/><path d="M99.657,261.033a5.718,5.718,0,0,0,.172-.966c.094-.622.2-1.532.294-2.654a60.12,60.12,0,0,0-1.188-17.533c-.244-1.11-.472-1.988-.65-2.587a5.6,5.6,0,0,0-.305-.933,6.107,6.107,0,0,0,.189.961c.139.611.333,1.5.555,2.6a69.556,69.556,0,0,1,1.166,8.7,69.153,69.153,0,0,1,.033,8.772c-.067,1.11-.133,2.032-.189,2.659a5.812,5.812,0,0,0-.078.977Z" transform="translate(-65.541 -148.851)" fill="#455a64"/><path d="M53.2,255.837a1.521,1.521,0,0,0,.555.328,3.924,3.924,0,0,0,1.7.289,9.91,9.91,0,0,0,5.219-2.126,12.259,12.259,0,0,0,3.6-4.342,11.176,11.176,0,0,0,.638-1.6,2.348,2.348,0,0,0,.133-.616c-.061,0-.283.855-.966,2.11a12.87,12.87,0,0,1-3.6,4.2,10.255,10.255,0,0,1-5.052,2.149,4.7,4.7,0,0,1-2.237-.389Z" transform="translate(-45.622 -153.926)" fill="#455a64"/><path d="M112,243.59a2,2,0,0,0,.128.555,11.209,11.209,0,0,0,.555,1.455,15.55,15.55,0,0,0,6.907,7.367,10.673,10.673,0,0,0,1.416.638,2.143,2.143,0,0,0,.555.167c0-.056-.733-.35-1.854-.994a17.161,17.161,0,0,1-6.812-7.268C112.294,244.373,112.05,243.573,112,243.59Z" transform="translate(-71.777 -152.067)" fill="#455a64"/><path d="M91.886,241.686s.033-.122.1-.316a1.354,1.354,0,0,1,.505-.672,1.221,1.221,0,1,1,0,1.977,1.355,1.355,0,0,1-.505-.672c-.067-.194-.072-.316-.1-.316s-.05.122,0,.344a1.338,1.338,0,0,0,.489.822,1.455,1.455,0,0,0,1.394.244,1.493,1.493,0,0,0,0-2.82,1.455,1.455,0,0,0-1.394.244,1.338,1.338,0,0,0-.489.822C91.836,241.564,91.87,241.686,91.886,241.686Z" transform="translate(-62.817 -150.557)" fill="#455a64"/><path d="M72.5,365.46a37.954,37.954,0,0,0,4.164,2.521,39.149,39.149,0,0,0,4.342,2.221,37.369,37.369,0,0,0-4.192-2.5A39.965,39.965,0,0,0,72.5,365.46Z" transform="translate(-54.207 -206.275)" fill="#455a64"/><path d="M120.29,166.29c-2.41,3.664-12.175,18.516-15.068,22.907a.683.683,0,0,0,.655,1.049l17.355-2.187a.661.661,0,0,0,.461-.272l16.573-22.652a.677.677,0,0,0-.594-1.077l-17.855,1.321a1.993,1.993,0,0,0-1.527.911Z" transform="translate(-68.713 -116.69)" fill="#e0e0e0"/><path d="M120.182,166.212a1.57,1.57,0,0,1,.139-.211,1.976,1.976,0,0,1,.555-.472,2.448,2.448,0,0,1,1.16-.278l1.61-.133,10.293-.811,3.414-.261,1.81-.139c.161,0,.3-.028.483-.028a.794.794,0,0,1,.627,1.227l-4.8,6.612-11.1,15.135c-.25.344-.477.661-.75,1.016a.755.755,0,0,1-.311.211,1.76,1.76,0,0,1-.333.067l-.611.072-2.432.305-4.747.594-8.972,1.11c-.183,0-.339.05-.555.061a.788.788,0,0,1-.555-.239.833.833,0,0,1-.239-.555.994.994,0,0,1,.211-.555c.389-.555.766-1.16,1.144-1.732q1.11-1.7,2.187-3.331l3.936-5.946,5.707-8.6L119.622,167c.178-.255.311-.455.416-.6s.144-.205.144-.2a1.339,1.339,0,0,1-.122.217l-.389.616-1.521,2.36-5.635,8.65-3.886,5.968-2.176,3.331-1.11,1.738a.655.655,0,0,0-.161.411.555.555,0,0,0,.555.555c.144,0,.344-.044.516-.061l8.972-1.11,4.747-.6,2.426-.305.611-.078a1.411,1.411,0,0,0,.272-.05.6.6,0,0,0,.2-.133c.239-.333.483-.661.727-.988l11.1-15.124,4.836-6.59a.555.555,0,0,0-.439-.861h-.455l-1.81.128-3.414.244-10.3.716-1.616.105a2.509,2.509,0,0,0-1.138.244A2.437,2.437,0,0,0,120.182,166.212Z" transform="translate(-68.605 -116.612)" fill="#263238"/><path d="M141.288,165.995a1.711,1.711,0,0,1-.361.056l-1.055.105-3.92.35-13.325,1.11.105-.061c-.833,1.238-1.693,2.526-2.559,3.859-3.52,5.408-6.59,10.377-8.916,13.919-1.155,1.771-2.11,3.187-2.776,4.164l-.783,1.11a2.222,2.222,0,0,1-.289.378,3.973,3.973,0,0,1,.244-.411c.178-.283.428-.666.733-1.144l2.7-4.214c2.276-3.564,5.324-8.556,8.844-13.969.866-1.332,1.732-2.621,2.571-3.886l.039-.056h.067l13.325-.988,3.931-.266,1.055-.056A2.617,2.617,0,0,1,141.288,165.995Z" transform="translate(-69.735 -117.549)" fill="#263238"/><path d="M149.05,171.86Z" transform="translate(-88.257 -120.161)" fill="#fff"/><path d="M148.99,172.112a.35.35,0,0,0-.428-.261.955.955,0,0,0-.466.261.466.466,0,0,0-.083.594.532.532,0,0,0,.738-.044A.611.611,0,0,0,148.99,172.112Z" transform="translate(-87.764 -120.152)" fill="#fff"/><path d="M132.857,193.917s-.683-1.666,1.055-1.843a60.1,60.1,0,0,1,6.3,0s2.493.261,1.965,2.049c0,0,1.477,1.321.683,2.743s-1.11,1-1.11,1,.211,1.738-1.11,2c0,0-1.427,1.666-2.743,1.582s-6.9-2.776-7.262-3.331-.9-.822-.583-1.41c0,0-.683-1.543.794-1.777C130.859,194.939,130.964,193.662,132.857,193.917Z" transform="translate(-79.737 -129.116)" fill="#ffbe9d"/><path d="M143.194,195.951a5,5,0,0,1-1.171.083h-2.832a16.656,16.656,0,0,1-2.843-.172c-.75-.172-1.044-.611-1.01-.622a2.948,2.948,0,0,0,1.049.422c.688.117,1.7.044,2.809.083s2.1.044,2.826.083A4.853,4.853,0,0,1,143.194,195.951Z" transform="translate(-82.156 -130.561)" fill="#eb996e"/><path d="M140.214,199.109a1.262,1.262,0,0,1-.378.128,4.019,4.019,0,0,1-1.11.072,7.955,7.955,0,0,1-1.582-.289c-.555-.161-1.2-.389-1.854-.589a8.5,8.5,0,0,0-1.871-.383,2.909,2.909,0,0,1-1.593-.322.9.9,0,0,1-.378-.555.738.738,0,0,1,.067-.494c.133-.25.322-.261.316-.25a.625.625,0,0,0-.217.3.677.677,0,0,0,.328.816,2.848,2.848,0,0,0,1.493.228,7.934,7.934,0,0,1,1.938.372l1.849.611a8.76,8.76,0,0,0,1.527.339,9.584,9.584,0,0,0,1.466.017Z" transform="translate(-80.42 -131.088)" fill="#eb996e"/><path d="M137.694,203.241a4.441,4.441,0,0,1-1.171-.228c-.716-.178-1.693-.461-2.776-.805s-2.021-.705-2.7-.983a4.737,4.737,0,0,1-1.083-.511c.033-.078,1.749.522,3.886,1.216A40.474,40.474,0,0,1,137.694,203.241Z" transform="translate(-79.765 -132.993)" fill="#eb996e"/><path d="M139.789,207.038a2.46,2.46,0,0,1-.977-.111,11.492,11.492,0,0,1-2.221-.783c-.838-.383-1.566-.772-2.1-1.049a3.437,3.437,0,0,1-.833-.505,18.422,18.422,0,0,1,3.048,1.294,32.693,32.693,0,0,0,3.081,1.155Z" transform="translate(-81.411 -134.72)" fill="#eb996e"/><path d="M45.2,153.33s-7.14,2.97-5.369,12.42,2.693,12.6,2.693,12.6L56.6,170.946Z" transform="translate(-39.551 -111.919)" fill="#f8951d"/><path d="M58.7,185.34a3,3,0,0,1-.516.333c-.339.2-.838.477-1.455.816-1.233.683-2.948,1.6-4.852,2.6s-3.631,1.893-4.891,2.526c-.627.316-1.138.555-1.493.733a2.892,2.892,0,0,1-.555.239,2.481,2.481,0,0,1,.516-.339c.339-.2.838-.477,1.455-.816,1.233-.677,2.948-1.6,4.852-2.6s3.631-1.893,4.886-2.526l1.5-.738a2.62,2.62,0,0,1,.555-.233Z" transform="translate(-41.948 -126.157)" fill="#263238"/><path d="M65.691,178.112a9.127,9.127,0,0,1-.772-1.3l-1.788-3.187c-.677-1.2-1.294-2.282-1.8-3.181a7.645,7.645,0,0,1-.683-1.355,7.461,7.461,0,0,1,.855,1.249c.5.794,1.171,1.9,1.877,3.148s1.316,2.387,1.721,3.231A7.378,7.378,0,0,1,65.691,178.112Z" transform="translate(-48.936 -118.929)" fill="#263238"/></g></g></svg>