<svg xmlns="http://www.w3.org/2000/svg" width="251" height="217.991" viewBox="0 0 251 217.991"><g transform="translate(-22.5 -60.756)"><g transform="translate(30.929 61.1)"><line x2="230.404" transform="translate(5.168 165.973)" fill="none" stroke="#263238" stroke-miterlimit="10" stroke-width="1"/><line x2="230.404" transform="translate(5.168 122.356)" fill="none" stroke="#263238" stroke-miterlimit="10" stroke-width="1"/><line x2="230.404" transform="translate(5.168 78.733)" fill="none" stroke="#263238" stroke-miterlimit="10" stroke-width="1"/><line x2="230.404" transform="translate(5.168 35.111)" fill="none" stroke="#263238" stroke-miterlimit="10" stroke-width="1"/><line y2="155.741" transform="translate(57.554 10.341)" fill="none" stroke="#263238" stroke-miterlimit="10" stroke-width="1"/><line y2="155.741" transform="translate(196.042 10.341)" fill="none" stroke="#263238" stroke-miterlimit="10" stroke-width="1"/><line x1="1.709" y2="1.806" transform="translate(60.984 68.072)" fill="none" stroke="#263238" stroke-miterlimit="10" stroke-width="1"/><line x1="27.136" y2="28.623" transform="translate(64.762 37.272)" fill="none" stroke="#263238" stroke-miterlimit="10" stroke-width="1"/><line x1="15.246" y2="15.669" transform="translate(78.345 41.931)" fill="none" stroke="#263238" stroke-miterlimit="10" stroke-width="1"/><line x1="1.709" y2="1.806" transform="translate(200.255 68.072)" fill="none" stroke="#263238" stroke-miterlimit="10" stroke-width="1"/><line x1="27.136" y2="28.623" transform="translate(204.034 37.272)" fill="none" stroke="#263238" stroke-miterlimit="10" stroke-width="1"/><line x1="15.246" y2="15.669" transform="translate(217.616 41.931)" fill="none" stroke="#263238" stroke-miterlimit="10" stroke-width="1"/><line x1="1.709" y2="1.806" transform="translate(0 156.164)" fill="none" stroke="#263238" stroke-miterlimit="10" stroke-width="1"/><line x1="27.136" y2="28.628" transform="translate(3.779 125.357)" fill="none" stroke="#263238" stroke-miterlimit="10" stroke-width="1"/><line x1="15.246" y2="15.669" transform="translate(17.361 130.016)" fill="none" stroke="#263238" stroke-miterlimit="10" stroke-width="1"/><line x1="1.715" y2="1.806" transform="translate(22.443 30.806)" fill="none" stroke="#263238" stroke-miterlimit="10" stroke-width="1"/><line x1="27.136" y2="28.623" transform="translate(26.222)" fill="none" stroke="#263238" stroke-miterlimit="10" stroke-width="1"/><line x1="15.246" y2="15.669" transform="translate(39.81 4.659)" fill="none" stroke="#263238" stroke-miterlimit="10" stroke-width="1"/><line x1="1.715" y2="1.806" transform="translate(149.349 30.806)" fill="none" stroke="#263238" stroke-miterlimit="10" stroke-width="1"/><line x1="27.136" y2="28.623" transform="translate(153.128)" fill="none" stroke="#263238" stroke-miterlimit="10" stroke-width="1"/><line x1="15.246" y2="15.669" transform="translate(166.716 4.659)" fill="none" stroke="#263238" stroke-miterlimit="10" stroke-width="1"/><line x1="1.709" y2="1.806" transform="translate(110.111 113.387)" fill="none" stroke="#263238" stroke-miterlimit="10" stroke-width="1"/><line x1="27.136" y2="28.623" transform="translate(113.89 82.586)" fill="none" stroke="#263238" stroke-miterlimit="10" stroke-width="1"/><line x1="15.246" y2="15.669" transform="translate(127.472 87.245)" fill="none" stroke="#263238" stroke-miterlimit="10" stroke-width="1"/></g><g transform="translate(110.663 100.884)"><path d="M196.956,156.68h31.978a10.576,10.576,0,0,1,10.576,10.576v92.327H186.38V167.25a10.576,10.576,0,0,1,10.576-10.57Z" transform="translate(-180.647 -141.826)" fill="#263238" stroke="#263238" stroke-linecap="round" stroke-linejoin="round" stroke-width="1"/><path d="M242.116,392.717l-28.062-8.255v-9.186h-1.583V341.36h-4.985v33.916H205.9v8.941l-28.062,8.5v1.343h.377a2.658,2.658,0,0,0-.326,1.292,2.732,2.732,0,1,0,4.213-2.287l.057-.057,25.724-3.093v3.7a2.732,2.732,0,1,0,4.219,0v-3.7L237.772,393a2.732,2.732,0,1,0,3.8,1.063h.572Z" transform="translate(-176.989 -220.933)" fill="#263238" stroke="#263238" stroke-linecap="round" stroke-linejoin="round" stroke-width="1"/><rect width="57.177" height="12.513" rx="6.257" transform="translate(4.201 117.7)" fill="#fff" stroke="#263238" stroke-linecap="round" stroke-linejoin="round" stroke-width="1"/><rect width="39.713" height="22.083" transform="translate(13.41 97.406)" fill="#fff" stroke="#263238" stroke-linecap="round" stroke-linejoin="round" stroke-width="1"/><path d="M223.622,189.91l-6.082,2.384s2.2,13.668,5.145,20.722,13.668,18.253,13.668,18.253,5.556-8.112,7.494-14.549-.086-24.518-.086-24.518a12.787,12.787,0,0,0-4.5-1.589C236.5,190.173,223.622,189.91,223.622,189.91Z" transform="translate(-193.995 -156.06)" fill="#fff" stroke="#263238" stroke-linecap="round" stroke-linejoin="round" stroke-width="1"/><path d="M237.132,203.753l2.813,5.4-4.665,10.3,7.494,11.284,4.585-10.318L241.8,208.955l2.91-5.031-4.144-4.144Z" transform="translate(-201.593 -160.288)" fill="#263238" stroke="#263238" stroke-linecap="round" stroke-linejoin="round" stroke-width="1"/><path d="M226.886,188.83l-1.944.532-1.852,3.258,4.573,12.965,7.5-7.757,8.2,8.375s.972-13.051.972-14.549-1.321-2.029-2.287-2.287S226.886,188.83,226.886,188.83Z" transform="translate(-196.372 -155.597)" fill="#fff" stroke="#263238" stroke-linecap="round" stroke-linejoin="round" stroke-width="1"/><path d="M205.252,189.76s.84,11.725,5.717,22.043a103.624,103.624,0,0,0,7.231,12.525c0-.263,4.67-14.108,4.848-18.784s1.058-14.64,1.058-14.64,9.044,3.6,11.2,4.853c3.35,1.938,7.58,2.378,7.494,4.67-.034.835.537,6.288,1.263,12.936.114,1.058,5.791,10.13,5.911,11.227,1.218,11.073-2.915,15.738-3.121,15.789-.349.086-7.672,0-7.672,0s3.973,18.076,4.573,19.047l.617.966h-31.5l-1.315-3.967-1.172,3.967H178l4.322-19.665h-4.762s-1.235-2.47.44-11.73,7.323-32.453,7.323-33.242S203.4,191.7,205.252,189.76Z" transform="translate(-176.682 -155.996)" fill="#f8951d" stroke="#263238" stroke-linecap="round" stroke-linejoin="round" stroke-width="1"/><line x1="0.429" y2="20.848" transform="translate(34.876 79.582)" fill="#fff" stroke="#263238" stroke-linecap="round" stroke-linejoin="round" stroke-width="1"/><path d="M241.242,227.568c5.208-4.848,7.5-14.549,7.5-14.549l-4.676-2.029,4.5-2.207-3.887-16.578c-2.2-1.9-3.493-1.846-3.43-1.429,0,0-.88,9.964-1.058,14.64s-4.859,18.539-4.859,18.8a56.551,56.551,0,0,1-7.231-12.525c-4.768-12.839-5.682-20.579-5.819-22.06a.137.137,0,0,0-.217-.1c-.657.389-2.287.709-3.43,1.715-.32,2.287-.732,5.6-1.018,9.249-.526,6.791-.526,9.787-.526,9.787l6.082,1.5-4.322,2.47s4.762,4.848,8.729,8.466a33.056,33.056,0,0,0,6.608,4.933l-5.082,7.814A49.667,49.667,0,0,0,241.242,227.568Z" transform="translate(-193.802 -155.886)" fill="#f8951d" stroke="#263238" stroke-linecap="round" stroke-linejoin="round" stroke-width="1"/><path d="M228.18,178.65v7.586A10.1,10.1,0,0,0,237,193.021c7.231.469,8.466-6.523,8.466-6.523v-6.705S232.079,183.057,228.18,178.65Z" transform="translate(-198.552 -151.237)" fill="#fff" stroke="#263238" stroke-linecap="round" stroke-linejoin="round" stroke-width="1"/><path d="M261.217,158.18s.263-3.43,2.378-3.43,2.121,3.967,1.589,5.556-3.264,2.732-4.144,1.5" transform="translate(-212.628 -140.999)" fill="#fff" stroke="#263238" stroke-linecap="round" stroke-linejoin="round" stroke-width="1"/><path d="M236.513,130.709s-7.792-.286-10.484,1.715-2.127,7.369-2.127,9.066,1.275,16.292,2.127,18.419,7.054,5.362,12.462,4.116,7.083-5.1,7.363-7.083.286-17.15,0-21.105S240.332,131.132,236.513,130.709Z" transform="translate(-196.699 -130.695)" fill="#fff" stroke="#263238" stroke-linecap="round" stroke-linejoin="round" stroke-width="1"/><path d="M245.93,137.386c0-.629-.046-1.143-.08-1.578-.28-3.967-5.522-4.676-9.346-5.1,0,0-7.792-.286-10.484,1.715s-2.127,7.369-2.127,9.066c0,.68.206,3.43.509,6.608a1.006,1.006,0,0,0,1.475-.652c.572-1.561-.28-2.973.429-4.956s.989-3.258,2.692-4.253a14.6,14.6,0,0,1,3.4-1.412s-3.539,4.1,4.253,3.962C241.706,140.673,244.558,139.621,245.93,137.386Z" transform="translate(-196.695 -130.695)" fill="#263238" stroke="#263238" stroke-linecap="round" stroke-linejoin="round" stroke-width="1"/><path d="M246.451,155.05s1.321,6.26.086,6.86-2.024.795-3.087-1.321" transform="translate(-205.093 -141.128)" fill="none" stroke="#263238" stroke-linecap="round" stroke-linejoin="round" stroke-width="1"/><path d="M236.669,166.92s-.269,2.915,5.642,2.47" transform="translate(-202.188 -146.212)" fill="none" stroke="#263238" stroke-linecap="round" stroke-linejoin="round" stroke-width="1"/><path d="M239.053,154.453c0,.606-.257,1.1-.572,1.1s-.572-.5-.572-1.1.257-1.1.572-1.1S239.053,153.842,239.053,154.453Z" transform="translate(-202.72 -140.399)" fill="#263238"/><path d="M254.553,154.453c0,.606-.257,1.1-.572,1.1s-.572-.5-.572-1.1.257-1.1.572-1.1S254.553,153.842,254.553,154.453Z" transform="translate(-209.359 -140.399)" fill="#263238"/><path d="M237.425,156.656h-4.79a1.069,1.069,0,0,1-1.046-.869l-.629-3.367h7.935l-.412,3.3a1.069,1.069,0,0,1-1.058.932Z" transform="translate(-199.743 -140.001)" fill="none" stroke="#263238" stroke-linecap="round" stroke-linejoin="round" stroke-width="2"/><path d="M255.321,156.656h-4.79a1.063,1.063,0,0,1-1.046-.869l-.635-3.367h7.94l-.423,3.3a1.069,1.069,0,0,1-1.046.932Z" transform="translate(-207.406 -140.001)" fill="none" stroke="#263238" stroke-linecap="round" stroke-linejoin="round" stroke-width="2"/><line x2="2.292" transform="translate(39.152 12.419)" fill="none" stroke="#263238" stroke-linecap="round" stroke-linejoin="round" stroke-width="2"/><line x1="3.79" y2="1.675" transform="translate(27.427 12.419)" fill="none" stroke="#263238" stroke-linecap="round" stroke-linejoin="round" stroke-width="2"/><path d="M222.675,158.18s-.263-3.43-2.384-3.43-2.115,3.967-1.583,5.556,3.258,2.732,4.144,1.5" transform="translate(-194.367 -140.999)" fill="#fff" stroke="#263238" stroke-linecap="round" stroke-linejoin="round" stroke-width="1"/><path d="M256.721,234.683a9.9,9.9,0,0,0-4.23-2.361,3.19,3.19,0,0,0-1.595-.126,46.729,46.729,0,0,1-5.1-1.532c-.88-.263-1.412.617-1.143,1.589s2.149,1.795,2.858,1.972.406.194.406.194,1.143,2.824.617,3.882-2.384,3.43-1.766,5.116a3.355,3.355,0,0,0,3.527,2.555c1.938,0,3.087.086,3.527,0s8.289,3.79,7.431,3.882-.354-7.849-.354-7.849Z" transform="translate(-205.576 -173.497)" fill="#fff" stroke="#263238" stroke-linecap="round" stroke-linejoin="round" stroke-width="1"/><path d="M234.66,239.5a28.9,28.9,0,0,0,6.174-4.059c2.029-2.029,2.732-2.555,3.43-2.732s3.527-.972,4.23-1.589,1.235.532.177,1.412a17.244,17.244,0,0,1-2.47,1.675c-.44.269-.88,1.5-.88,1.5s4.322-1.852,5.819-1.412,2.984,1.778,2.893,2.567-.366.412-1.338.32-2.349-.509-3.43-.069-2.287,1.5-2.287,1.944,1.235.7,2.207.617a8.964,8.964,0,0,1,2.641-.177c.966.177,1.766.7,1.852,1.235s-.349.526-1.412.617-2.91.177-3.527.617-3.79,1.938-3.258,2.47.846.532,1.9.532,2.189-.812,2.807-.766c.829.063,1.275.126,1.275.126s1.469.063,1.338.64c-.206.926-.7.955-2.83,1.052a15.318,15.318,0,0,0-3.613.269,14.862,14.862,0,0,1-3.967.7c-2.561.177-7.146-1.058-7.146-1.058Z" transform="translate(-201.328 -173.637)" fill="#fff" stroke="#263238" stroke-linecap="round" stroke-linejoin="round" stroke-width="1"/><path d="M258.163,234.554s-1.784-1.664-2.807-1.715-4.144,2.681-4.573,3.7.572.635,1.4.383,3.064-1.281,3.83-1.595a2.933,2.933,0,0,1,2.018-.212" transform="translate(-208.19 -174.448)" fill="#fff" stroke="#263238" stroke-linecap="round" stroke-linejoin="round" stroke-width="1"/><path d="M262.007,241.613s-2.55-1.275-4.144-.572-3.573,2.109-3.573,2.744.32.514,1.715.446,3.916-.474,4.253-.492a8.855,8.855,0,0,1,1.492.3" transform="translate(-209.736 -177.871)" fill="#fff" stroke="#263238" stroke-linecap="round" stroke-linejoin="round" stroke-width="1"/><path d="M192.843,217.8l-2.207,11.816s19.139-3.8,19.842-3.264,1.343,14.554,1.343,14.554-24.712,4.316-27.622,5.288-5.911,1.143-6.968.263-1.143-3.087-.354-7.431,8.38-35.888,8.38-35.888" transform="translate(-176.351 -161.727)" fill="#f8951d" stroke="#263238" stroke-linecap="round" stroke-linejoin="round" stroke-width="1"/><path d="M278.168,227.4l.795,13.491-6.351-.263L272,251.809s17.5,4.076,18.476,4.573.795-.526,1.938-2.207a14.976,14.976,0,0,0,2.029-6.86c-.091-1.572-3.7-6.86-3.79-6.614" transform="translate(-217.322 -172.119)" fill="#f8951d" stroke="#263238" stroke-linecap="round" stroke-linejoin="round" stroke-width="1"/><line x2="5.911" transform="translate(61.64 68.772)" fill="none" stroke="#263238" stroke-linecap="round" stroke-linejoin="round" stroke-width="1"/><line x1="7.849" y2="2.732" transform="translate(6.436 67.892)" fill="none" stroke="#263238" stroke-linecap="round" stroke-linejoin="round" stroke-width="1"/><path d="M199.823,415.911s-1.281,5.505-3.07,7.431-3.43,3.2-3.327,4.733l.126,1.538h18.419v-4.619c0-2.687-1.143-7.431-1.143-9.335s-11.513.126-11.513.126" transform="translate(-183.664 -252.411)" fill="#263238" stroke="#263238" stroke-linecap="round" stroke-linejoin="round" stroke-width="1"/><path d="M193.868,435.29a2.458,2.458,0,0,0-.44,1.532l.126,1.538h18.419v-3.07Z" transform="translate(-183.665 -261.168)" fill="#586166" stroke="#263238" stroke-linecap="round" stroke-linejoin="round" stroke-width="1"/><path d="M211.552,315.6s1.789-11.382-1.281-16.624-13.817-5.374-19.825-1.8-8.346,9.449-6.174,17,7.2,7.694,7.2,7.694-1.281,10.358-1.281,14.451,4.35,29.549,4.35,29.549h12.674S211.295,320.976,211.552,315.6Z" transform="translate(-179.403 -200.961)" fill="#586166" stroke="#263238" stroke-linecap="round" stroke-linejoin="round" stroke-width="1"/><line y1="10.49" x2="1.275" transform="translate(12.067 110.423)" fill="#fff" stroke="#263238" stroke-linecap="round" stroke-linejoin="round" stroke-width="1"/><path d="M260.648,415.911s1.28,5.505,3.07,7.431,3.43,3.2,3.327,4.733l-.126,1.538H248.5v-4.619c0-2.687,1.143-7.431,1.143-9.335s11.513.126,11.513.126" transform="translate(-207.256 -252.411)" fill="#263238" stroke="#263238" stroke-linecap="round" stroke-linejoin="round" stroke-width="1"/><path d="M266.6,435.29a2.464,2.464,0,0,1,.446,1.532l-.126,1.538H248.5v-3.07Z" transform="translate(-207.256 -261.168)" fill="#586166" stroke="#263238" stroke-linecap="round" stroke-linejoin="round" stroke-width="1"/><path d="M241.392,315.6s-1.789-11.382,1.281-16.624,13.817-5.374,19.825-1.8,8.4,9.449,6.22,17-7.243,7.694-7.243,7.694,1.281,10.358,1.281,14.451-4.35,29.549-4.35,29.549H245.742S241.649,320.976,241.392,315.6Z" transform="translate(-203.989 -200.961)" fill="#586166" stroke="#263238" stroke-linecap="round" stroke-linejoin="round" stroke-width="1"/><line x1="1.28" y1="10.49" transform="translate(56.204 110.423)" fill="#fff" stroke="#263238" stroke-linecap="round" stroke-linejoin="round" stroke-width="1"/></g><g transform="translate(41.562 80.004)"><path d="M285.6,94.17h25.3a2.7,2.7,0,0,1,2.7,2.7V108.61a2.7,2.7,0,0,1-2.7,2.7h-7.6l1.984,5.374-6.248-5.374H285.6a2.7,2.7,0,0,1-2.7-2.7V96.868a2.7,2.7,0,0,1,2.7-2.7Z" transform="translate(-152.889 -94.17)" fill="#263238" stroke="#263238" stroke-linecap="round" stroke-linejoin="round" stroke-width="1"/><circle cx="1.469" cy="1.469" r="1.469" transform="translate(150.224 6.78)" fill="#f8951d"/><circle cx="1.469" cy="1.469" r="1.469" transform="translate(143.187 6.78)" fill="#f8951d"/><circle cx="1.469" cy="1.469" r="1.469" transform="translate(136.156 6.78)" fill="#f8951d"/><path d="M112.342,261.3l-4.442,9.381h12.593l4.442-8.923Z" transform="translate(-77.928 -165.76)" fill="#263238" stroke="#263238" stroke-linecap="round" stroke-linejoin="round" stroke-width="1"/><path d="M143.321,261.3H115.67l4.447,9.381h27.645Z" transform="translate(-81.257 -165.76)" fill="#fff" stroke="#263238" stroke-linecap="round" stroke-linejoin="round" stroke-width="1"/><rect width="6.231" height="80.197" transform="translate(6.694 117.84)" fill="#a3a3a3" stroke="#263238" stroke-linecap="round" stroke-linejoin="round" stroke-width="1"/><rect width="6.231" height="80.197" transform="translate(206.143 118.046)" fill="#a3a3a3" stroke="#263238" stroke-linecap="round" stroke-linejoin="round" stroke-width="1"/><rect width="209.773" height="77.293" transform="translate(5.339 104.664)" fill="#a3a3a3" stroke="#263238" stroke-linecap="round" stroke-linejoin="round" stroke-width="1"/><rect width="209.773" height="8.043" transform="translate(5.339 104.664)" fill="#263238" stroke="#263238" stroke-linecap="round" stroke-linejoin="round" stroke-width="1"/><rect width="220.457" height="4.796" transform="translate(0 104.664)" fill="#fff" stroke="#263238" stroke-linecap="round" stroke-linejoin="round" stroke-width="1"/></g><g transform="translate(33.87 101.99)"><path d="M58.407,286.124s-14.16-30.16-11.079-31.035,9.541,3.933,9.541,3.933S37.925,208.3,42.824,204.389s14.045,16.172,14.045,16.172-9.77-31.035-8.62-42.84,13.56-.434,13.56-.434-9.941-42.4-.715-44.589,8.923,48.522,8.923,48.522,3.03-36.277,6.728-26.227-4.076,43.714-4.076,43.714,5.071-11.364,7.889-.875-5.6,52.883-5.6,52.883,7.157-6.991,7.826,1.749S67.971,288.33,67.971,288.33l-8.758.852Z" transform="translate(-42.014 -132.629)" fill="#f8951d"/><path d="M58.407,286.124s-14.16-30.16-11.079-31.035,9.541,3.933,9.541,3.933S37.925,208.3,42.824,204.389s14.045,16.172,14.045,16.172-9.77-31.035-8.62-42.84,13.56-.434,13.56-.434-9.941-42.4-.715-44.589,8.923,48.522,8.923,48.522,3.03-36.277,6.728-26.227-4.076,43.714-4.076,43.714,5.071-11.364,7.889-.875-5.6,52.883-5.6,52.883,7.157-6.991,7.826,1.749S67.971,288.33,67.971,288.33l-8.758.852Z" transform="translate(-42.014 -132.629)" fill="#fff" opacity="0.6"/><path d="M65.675,307.421s-11.8-20.98-9.615-24.913,8.729,5.231,8.729,5.231-14.863-37.157-12.673-40.644,9.146,11.8,9.146,11.8-2.618-51.14,1.749-49.391,4.836,26.216,4.836,26.216-2.624-58.137,1.315-56.388,3.493,66.437,3.493,66.437,7.883-24.913,9.181-13.525S71.78,274.2,71.78,274.2s10.93-24.038,12.239-11.364-8.741,36.277-8.741,36.277,3.933-9.615,3.933-4.367-3.058,11.8-3.058,11.8" transform="translate(-46.247 -152.617)" fill="none" stroke="#263238" stroke-linecap="round" stroke-linejoin="round" stroke-width="1"/><rect width="24.987" height="21.62" transform="translate(10.384 154.638)" fill="#263238" stroke="#263238" stroke-miterlimit="10" stroke-width="1"/></g><g transform="translate(179.893 99.408)"><path d="M339.382,144.431s-2.561,4.225-2.944,6.14.257,2.687-.257,4.093-2.681,1.412-2.681,2.818,1.532,2.687,2.047,3.07-.389,2.047.509,4.476,1.28,5.5,2.813,5.5a42.879,42.879,0,0,0,4.733-.514l.766,4.67,10.57-.96s-.126-4.573,2.687-6.523,8.38-12.919,5.053-20.082S345.39,138.549,339.382,144.431Z" transform="translate(-312.896 -133.532)" fill="#fff" stroke="#263238" stroke-linecap="round" stroke-linejoin="round" stroke-width="1"/><path d="M337.337,133.708a9.717,9.717,0,0,0-.412,3.476,14.022,14.022,0,0,0,2.047,6.368c1.3,2.155,4.425,3.527,5.2,5.825.252.766.892,2.813,2.681,3.327s1.412.509.9,3.962,1.023,6.906,4.093,7.8a9.146,9.146,0,0,0,8.443-1.789c2.43-1.921,7.031-9.85,7.163-17.012.223-12.673-12.268-18.864-23.535-17.321A7.677,7.677,0,0,0,337.337,133.708Z" transform="translate(-314.355 -128.114)" fill="#263238" stroke="#263238" stroke-linecap="round" stroke-linejoin="round" stroke-width="1"/><path d="M349.877,194.362a12.045,12.045,0,0,0-4.928,1.143c-1.429.755-6.4,5.5-7.677,6.288s-3.71.383-2.287,1.023,2.43.766,4.859-.126S347.39,200,348.922,200s7.163.766,7.677.9,3.836,1.658,3.836,1.658a21.191,21.191,0,0,0-3.579-5.368A9.523,9.523,0,0,0,349.877,194.362Z" transform="translate(-313.346 -156.487)" fill="#fff" stroke="#263238" stroke-linecap="round" stroke-linejoin="round" stroke-width="1"/><path d="M353.366,166.491a1.315,1.315,0,0,0-.817,1.389,17.554,17.554,0,0,1-.086,5.076c-.509,2.172,2.207,2.172,2.8-1.389C355.653,169.213,354.761,165.994,353.366,166.491Z" transform="translate(-320.991 -144.531)" fill="#fff" stroke="#263238" stroke-linecap="round" stroke-linejoin="round" stroke-width="1"/><path d="M310.257,218.11s-1.532.766-1.658,4.476-6.528,29.806-6.911,33.9,1.795,6.774,5.5,8.186,10.747,3.7,12,3.07,3.71-13.817,4.6-19.573-9.85-25.724-10.358-26.473S311.154,218.241,310.257,218.11Z" transform="translate(-299.25 -166.664)" fill="#fff" stroke="#263238" stroke-linecap="round" stroke-linejoin="round" stroke-width="1"/><line x1="7.037" y2="10.49" transform="translate(12.287 82.018)" fill="none" stroke="#263238" stroke-linecap="round" stroke-linejoin="round" stroke-width="1"/><path d="M355,352.253l8.883,49.162a1.1,1.1,0,0,0,1.418.852h0a1.109,1.109,0,0,0,.755-1.195L359.5,351.19Z" transform="translate(-322.105 -223.668)" fill="#fff" stroke="#263238" stroke-linecap="round" stroke-linejoin="round" stroke-width="1"/><path d="M332.687,331.009s-3.327,44.892-3.327,46.172-3.43,14.709-3.43,14.709h9.186a13.369,13.369,0,0,0,.892-5.5c0-3.71.389-11.639.389-12.4s10.233-40.421,10.233-40.421-.514-3.967-5.505-6.288S333.453,329.986,332.687,331.009Z" transform="translate(-309.653 -213.166)" fill="#fff" stroke="#263238" stroke-linecap="round" stroke-linejoin="round" stroke-width="1"/><path d="M336.013,421.444c0-3.39.32-10.29.377-12.05-4.259-2.389-6.9.795-6.9.795h0c-.074,1.143-.12,1.886-.12,2.035,0,1.28-3.43,14.709-3.43,14.709h9.181A13.273,13.273,0,0,0,336.013,421.444Z" transform="translate(-309.657 -248.219)" fill="#263238" stroke="#263238" stroke-linecap="round" stroke-linejoin="round" stroke-width="1"/><path d="M335.84,431.561a13.369,13.369,0,0,0,.892-5.5c0-1.378.057-3.344.12-5.3-.886-1.035-2.8-2.618-4.848-.194-.9,1.058-3.258,7.734-4.385,11Z" transform="translate(-310.377 -252.837)" fill="#4f4f4f" stroke="#263238" stroke-linecap="round" stroke-linejoin="round" stroke-width="1"/><path d="M335.29,420.36l.766,11h2.287l1.926-11.256S337.72,417.033,335.29,420.36Z" transform="translate(-313.662 -252.634)" fill="#263238" stroke="#263238" stroke-linecap="round" stroke-linejoin="round" stroke-width="1"/><path d="M301.814,323.5s-3.967,4.35-4.35,8.06,13.3,42.977,13.3,42.977a10.066,10.066,0,0,1-2.172,4.476c-1.921,2.43-4.608,5.882-4.991,8.186s0,3.07,0,3.07h9.084s3.2-8.186,4.476-10.233.509-6.014.126-7.8-3.836-43.1-3.836-43.1S310.766,320.41,301.814,323.5Z" transform="translate(-297.456 -211.524)" fill="#fff" stroke="#263238" stroke-linecap="round" stroke-linejoin="round" stroke-width="1"/><path d="M321.642,416.931c1.109-1.778.68-5,.292-6.986a4,4,0,0,0-3.487-.817c-2.687.64-3.2,2.287-3.2,2.287a10.067,10.067,0,0,1-2.172,4.476c-1.921,2.43-4.608,5.882-4.991,8.186s0,3.07,0,3.07h9.083S320.362,418.978,321.642,416.931Z" transform="translate(-301.935 -248.44)" fill="#263238" stroke="#263238" stroke-linecap="round" stroke-linejoin="round" stroke-width="1"/><path d="M315.93,432.4h4.67s2.858-7.283,4.242-9.827c-.686-.629-2.761-2.235-4.756-.663-2.43,1.921-2.687,6.654-3.321,8.443C316.462,431.192,316.159,431.889,315.93,432.4Z" transform="translate(-305.369 -253.674)" fill="#4f4f4f" stroke="#263238" stroke-linecap="round" stroke-linejoin="round" stroke-width="1"/><path d="M323.2,421.692l.514,10.49h1.658l2.813-10.233S325.63,419.394,323.2,421.692Z" transform="translate(-308.484 -253.457)" fill="#263238" stroke="#263238" stroke-linecap="round" stroke-linejoin="round" stroke-width="1"/><path d="M313.192,229.2a155.48,155.48,0,0,1,4.036,21.9c0,2.287-6.688,15.509-6.688,15.509s-7.431,3.836-9.209,6.523a7.906,7.906,0,0,0-.509,8.186c1.28,2.555,3.2,3.71,7.431,4.476s43.485,0,43.485,0,4.093-4.991,2.172-12.919c-.892-3.693-1.864-6.9-2.938-11.382a12.087,12.087,0,0,0,7.289-2.435c3.07-2.561,3.2-6.523,3.2-9.461s-1.932-27.508-1.932-29.932-.114-5.5-2.4-7.294-7.706-4.573-12.576-7.157c-3.83-2.018-6.648-1.664-9.718-1.664s-6.78,2.287-6.78,2.287-17.012,4.476-18.293,5.242-.823,1.543-.354,4.367" transform="translate(-298.51 -160.417)" fill="#fff" stroke="#263238" stroke-linecap="round" stroke-linejoin="round" stroke-width="1"/><path d="M388.866,230.64s-5.236,30.423-5.236,32.087,3.19,10.381,3.19,10.381" transform="translate(-334.369 -172.031)" fill="none" stroke="#263238" stroke-linecap="round" stroke-linejoin="round" stroke-width="1"/><path d="M316.954,289c-1.258,4.042-6.414,14.223-6.414,14.223s-7.431,3.836-9.209,6.523a7.906,7.906,0,0,0-.509,8.186c1.28,2.555,3.2,3.71,7.431,4.476s43.485,0,43.485,0,4.093-4.991,2.172-12.919c-.892-3.693-1.864-6.9-2.938-11.382l-3.2-9.106Z" transform="translate(-298.51 -197.029)" fill="#263238" stroke="#263238" stroke-miterlimit="10" stroke-width="1"/><path d="M305.487,352.14l-6.614,49.534a1.1,1.1,0,0,0,1.092,1.24h0a1.092,1.092,0,0,0,1.08-.9l9.044-49.494Z" transform="translate(-298.059 -224.075)" fill="#fff" stroke="#263238" stroke-linecap="round" stroke-linejoin="round" stroke-width="1"/><path d="M383.573,352.14l6.614,49.534a1.1,1.1,0,0,1-1.092,1.24h0a1.092,1.092,0,0,1-1.08-.9L379,352.523Z" transform="translate(-332.385 -224.075)" fill="#fff" stroke="#263238" stroke-linecap="round" stroke-linejoin="round" stroke-width="1"/><path d="M337.037,352.14l-6.614,49.534a1.1,1.1,0,0,0,1.092,1.24h0a1.1,1.1,0,0,0,1.08-.9l9.044-49.494Z" transform="translate(-311.573 -224.075)" fill="#fff" stroke="#263238" stroke-linecap="round" stroke-linejoin="round" stroke-width="1"/><path d="M358.289,253H316.975a110.251,110.251,0,0,0-.509,18.036c.635,8.318,2.047,18.927,1.789,25.724a16.073,16.073,0,0,1-4.093,10.49h-9.209a1.658,1.658,0,0,0-1.663,1.658h0a1.663,1.663,0,0,0,1.663,1.664h49.734a28.32,28.32,0,0,0,4.219-16.241c-.383-9.718-4.219-20.722-2.944-28.525S358.289,253,358.289,253Z" transform="translate(-299.955 -181.609)" fill="#f8951d" stroke="#263238" stroke-linecap="round" stroke-linejoin="round" stroke-width="1"/><path d="M374.505,148.737s-2.555,1.023-2.687,3.43-.892,10.741-3.962,15.475,0,12.279,7.546,13.428,13.685-10.233,10.861-22S377.066,147.714,374.505,148.737Z" transform="translate(-327.107 -136.746)" fill="#263238" stroke="#263238" stroke-linecap="round" stroke-linejoin="round" stroke-width="1"/></g><g transform="translate(23 278.247)"><line x2="250" fill="none" stroke="#263238" stroke-linecap="round" stroke-linejoin="round" stroke-width="1"/></g></g></svg>