<svg xmlns="http://www.w3.org/2000/svg" width="250" height="245.952" viewBox="0 0 250 245.952">
  <g id="reach" transform="translate(-39.53 -36.032)">
    <g id="freepik--background-complete--inject-60" transform="translate(43.186 36.032)">
      <rect id="Rectangle_5407" data-name="Rectangle 5407" width="56.445" height="58.836" transform="translate(168.002 7.703)" fill="#e0e0e0"/>
      <rect id="Rectangle_5408" data-name="Rectangle 5408" width="56.445" height="58.836" transform="translate(164.181 7.703)" fill="#ebebeb"/>
      <rect id="Rectangle_5409" data-name="Rectangle 5409" width="41.268" height="43.02" transform="translate(171.766 15.616)" fill="#fafafa"/>
      <path id="Path_35110" data-name="Path 35110" d="M344.089,140.27a7.913,7.913,0,0,1-1.029,1.17c-.667.69-1.594,1.628-2.634,2.651s-1.99,1.939-2.691,2.589a7.64,7.64,0,0,1-1.176,1.006,7.681,7.681,0,0,1,1.023-1.164c.667-.69,1.594-1.634,2.634-2.657s2-1.939,2.7-2.594A7.349,7.349,0,0,1,344.089,140.27Z" transform="translate(-172.323 -81.351)" fill="#e0e0e0"/>
      <path id="Path_35111" data-name="Path 35111" d="M422.89,140.08a8.2,8.2,0,0,1,1.17,1.034c.69.661,1.628,1.588,2.651,2.628s1.939,1.99,2.589,2.691a7.2,7.2,0,0,1,1.006,1.181,8.445,8.445,0,0,1-1.164-1.029c-.69-.661-1.634-1.594-2.657-2.634s-1.939-2-2.594-2.7A7.348,7.348,0,0,1,422.89,140.08Z" transform="translate(-209.856 -81.268)" fill="#e0e0e0"/>
      <path id="Path_35112" data-name="Path 35112" d="M422.69,58.156a7.912,7.912,0,0,1,1.029-1.17c.667-.69,1.594-1.628,2.634-2.651s1.99-1.939,2.691-2.589a7.643,7.643,0,0,1,1.17-1.006A7.348,7.348,0,0,1,429.19,51.9c-.667.69-1.594,1.634-2.634,2.657s-2,1.939-2.7,2.594a7.349,7.349,0,0,1-1.17,1Z" transform="translate(-209.769 -42.427)" fill="#e0e0e0"/>
      <path id="Path_35113" data-name="Path 35113" d="M343.976,58.259a7.766,7.766,0,0,1-1.17-1.034c-.69-.661-1.628-1.588-2.651-2.628s-1.939-1.99-2.589-2.691a7.644,7.644,0,0,1-1.006-1.176,7.681,7.681,0,0,1,1.164,1.023c.69.661,1.634,1.594,2.657,2.634s1.939,2,2.594,2.7a7.347,7.347,0,0,1,1,1.176Z" transform="translate(-172.323 -42.422)" fill="#e0e0e0"/>
      <path id="Path_35114" data-name="Path 35114" d="M390.97,106.492v-3.126c0-2.035,0-5-.034-8.761,0-7.535-.04-18.274-.068-31.128l.136.136H349.854l.153-.153v43.015l-.136-.13,29.805.068,8.371.034h.045l-8.337.034-29.89.068h-.136V63.24h41.443v.136c-.028,12.893-.051,23.661-.068,31.213,0,3.753-.028,6.709-.04,8.733v2.86A.946.946,0,0,1,390.97,106.492Z" transform="translate(-178.049 -47.861)" fill="#e0e0e0"/>
      <path id="Path_35115" data-name="Path 35115" d="M369.138,95.45s-.882,10.655,10.655,10.655C379.793,100.418,375.1,95.93,369.138,95.45Z" transform="translate(-186.48 -61.865)" fill="#ebebeb"/>
      <path id="Path_35116" data-name="Path 35116" d="M398.3,95.458s-10.649-.887-10.649,10.649C393.331,106.107,397.819,101.41,398.3,95.458Z" transform="translate(-194.535 -61.861)" fill="#ebebeb"/>
      <path id="Path_35117" data-name="Path 35117" d="M384.22,85.15s-8.7,7.812.475,16.477C388.962,97.1,388.6,90.011,384.22,85.15Z" transform="translate(-191.421 -57.387)" fill="#e0e0e0"/>
      <path id="Path_35118" data-name="Path 35118" d="M441.14,432.872a1.544,1.544,0,0,1-.367-.068,8.755,8.755,0,0,0-1.074-.181,30.962,30.962,0,0,0-4.183-.153c-.91,0-1.927,0-3.041-.079a11.662,11.662,0,0,1-3.538-.808,6.523,6.523,0,0,1-3.148-2.7,4.833,4.833,0,0,1-.684-2.2,3.51,3.51,0,0,1,.667-2.329,4.052,4.052,0,0,1,2.069-1.487,2.826,2.826,0,0,1,2.611.43,3.448,3.448,0,0,1,1.238,2.476,4.522,4.522,0,0,1-.74,2.775,8.055,8.055,0,0,1-2.057,2.142,11.523,11.523,0,0,1-2.662,1.481,12.775,12.775,0,0,1-6.263.82,11.751,11.751,0,0,1-6.122-2.555,12.667,12.667,0,0,1-3.917-5.7,11.988,11.988,0,0,1-.254-7.15,9.444,9.444,0,0,1,1.7-3.3,6.67,6.67,0,0,1,3.075-2.182,6.093,6.093,0,0,1,3.77,0,4.522,4.522,0,0,1,2.764,2.47,5.607,5.607,0,0,1,.254,3.651,6.449,6.449,0,0,1-1.786,3.137,9.558,9.558,0,0,1-6.461,2.368,16.957,16.957,0,0,1-6.54-1.2,23.7,23.7,0,0,1-9.711-7.348,31.089,31.089,0,0,1-5.087-9.36,51.62,51.62,0,0,1-2.137-8.546c-.424-2.561-.661-4.782-.837-6.6s-.277-3.228-.35-4.183c-.028-.469-.051-.831-.068-1.091a3.692,3.692,0,0,1,0-.373,2.1,2.1,0,0,0,.051.373c.051.249.062.616.107,1.085.1.972.237,2.374.418,4.177s.464,4.025.9,6.574a52.363,52.363,0,0,0,2.176,8.479A30.981,30.981,0,0,0,397,414.971a23.458,23.458,0,0,0,9.581,7.235,16.8,16.8,0,0,0,6.4,1.153A9.4,9.4,0,0,0,419.2,421.1a6.138,6.138,0,0,0,1.7-2.956,5.206,5.206,0,0,0-.232-3.391,4.188,4.188,0,0,0-2.538-2.261,5.7,5.7,0,0,0-3.527,0,6.218,6.218,0,0,0-2.888,2.052,9.01,9.01,0,0,0-1.622,3.165,11.649,11.649,0,0,0,.237,6.924,12.345,12.345,0,0,0,3.8,5.534,11.35,11.35,0,0,0,5.924,2.487,12.435,12.435,0,0,0,6.093-.78,9.711,9.711,0,0,0,4.578-3.476,4.245,4.245,0,0,0,.707-2.583,3.188,3.188,0,0,0-1.13-2.261,2.566,2.566,0,0,0-2.346-.384,3.764,3.764,0,0,0-1.933,1.368,3.3,3.3,0,0,0-.627,2.159,4.579,4.579,0,0,0,.593,2.069A6.28,6.28,0,0,0,429,431.385a11.408,11.408,0,0,0,3.465.82c1.1.107,2.114.107,3.024.119a26.6,26.6,0,0,1,4.194.226,8.165,8.165,0,0,1,1.453.322Z" transform="translate(-194.796 -187.763)" fill="#e0e0e0"/>
      <path id="Path_35119" data-name="Path 35119" d="M346.474,385.62,334.66,433.208h4.788l12.26-47.588Z" transform="translate(-171.497 -188.019)" fill="#f5f5f5"/>
      <path id="Path_35120" data-name="Path 35120" d="M412.114,385.62l11.814,47.588h-4.782L406.88,385.62Z" transform="translate(-202.895 -188.019)" fill="#f5f5f5"/>
      <rect id="Rectangle_5410" data-name="Rectangle 5410" width="5.568" height="60.532" transform="translate(188.74 184.657)" fill="#f5f5f5"/>
      <rect id="Rectangle_5411" data-name="Rectangle 5411" width="78.602" height="50.357" transform="translate(152.09 136.114)" fill="#e0e0e0"/>
      <rect id="Rectangle_5412" data-name="Rectangle 5412" width="39.454" height="4.861" transform="translate(171.687 196.827)" fill="#f5f5f5"/>
      <path id="Path_35121" data-name="Path 35121" d="M324.162,323.09a5.411,5.411,0,0,1,.057.921h-.107c-.085-2.464-.141-10.627-.141-20.292,0-5.839.04-11.118.057-15,0-1.882.045-3.42.062-4.55,0-.5.028-.91.034-1.232a1.916,1.916,0,0,1,.04-.435,1.577,1.577,0,0,1,.04.435c0,.322,0,.729.04,1.232,0,1.13.034,2.668.057,4.55,0,3.883.04,9.163.057,15,0,9.666-.057,17.828-.136,20.292h-.107a5.993,5.993,0,0,1,.051-.921Z" transform="translate(-166.849 -143.187)" fill="#f5f5f5"/>
      <path id="Path_35122" data-name="Path 35122" d="M334.512,323.09a5.411,5.411,0,0,1,.057.921h-.107c-.085-2.464-.141-10.627-.141-20.292,0-5.839.04-11.118.057-15,0-1.882.045-3.42.062-4.55,0-.5.028-.91.034-1.232a1.918,1.918,0,0,1,.04-.435,1.577,1.577,0,0,1,.04.435c0,.322,0,.729.04,1.232,0,1.13.034,2.668.057,4.55,0,3.883.04,9.163.057,15,0,9.666-.057,17.828-.136,20.292h-.107a6,6,0,0,1,.051-.921Z" transform="translate(-171.349 -143.187)" fill="#f5f5f5"/>
      <path id="Path_35123" data-name="Path 35123" d="M344.852,323.09a5.411,5.411,0,0,1,.057.921H344.8c-.085-2.464-.141-10.627-.141-20.292,0-5.839.04-11.118.057-15,0-1.882.045-3.42.062-4.55,0-.5.028-.91.034-1.232a1.914,1.914,0,0,1,.04-.435,1.578,1.578,0,0,1,.04.435c0,.322,0,.729.04,1.232,0,1.13.034,2.668.057,4.55,0,3.883.04,9.163.057,15,0,9.666-.057,17.828-.136,20.292H344.8a6,6,0,0,1,.051-.921Z" transform="translate(-175.844 -143.187)" fill="#f5f5f5"/>
      <path id="Path_35124" data-name="Path 35124" d="M355.212,323.09a5.408,5.408,0,0,1,.057.921h-.107c-.085-2.464-.141-10.627-.141-20.292,0-5.839.04-11.118.057-15,0-1.882.045-3.42.062-4.55,0-.5,0-.91.034-1.232a1.916,1.916,0,0,1,.04-.435,1.578,1.578,0,0,1,.04.435c0,.322,0,.729.034,1.232,0,1.13.04,2.668.062,4.55,0,3.883.04,9.163.057,15,0,9.666-.057,17.828-.136,20.292h-.107A6,6,0,0,1,355.212,323.09Z" transform="translate(-180.349 -143.187)" fill="#f5f5f5"/>
      <path id="Path_35125" data-name="Path 35125" d="M365.562,323.09a5.408,5.408,0,0,1,.057.921h-.107c-.085-2.464-.141-10.627-.141-20.292,0-5.839.04-11.118.057-15,0-1.882.045-3.42.062-4.55,0-.5.028-.91.034-1.232a1.916,1.916,0,0,1,.04-.435,1.577,1.577,0,0,1,.04.435c0,.322,0,.729.04,1.232,0,1.13.034,2.668.057,4.55,0,3.883.04,9.163.057,15,0,9.666-.057,17.828-.136,20.292h-.107a6,6,0,0,1,.051-.921Z" transform="translate(-184.848 -143.187)" fill="#f5f5f5"/>
      <path id="Path_35126" data-name="Path 35126" d="M375.925,323.09a5.408,5.408,0,0,1,.057.921h-.09c-.085-2.464-.141-10.627-.141-20.292,0-5.839.04-11.118.057-15,0-1.882.045-3.42.062-4.55,0-.5.028-.91.034-1.232a1.914,1.914,0,0,1,.04-.435,1.577,1.577,0,0,1,.04.435c0,.322,0,.729.04,1.232,0,1.13.034,2.668.057,4.55,0,3.883.04,9.163.057,15,0,9.666-.057,17.828-.136,20.292h-.107A6,6,0,0,1,375.925,323.09Z" transform="translate(-189.361 -143.187)" fill="#f5f5f5"/>
      <path id="Path_35127" data-name="Path 35127" d="M386.262,323.09a5.414,5.414,0,0,1,.056.921h-.107c-.085-2.464-.141-10.627-.141-20.292,0-5.839.04-11.118.057-15,0-1.882.045-3.42.062-4.55,0-.5.028-.91.034-1.232a1.914,1.914,0,0,1,.04-.435,1.578,1.578,0,0,1,.04.435c0,.322,0,.729.04,1.232,0,1.13.034,2.668.057,4.55,0,3.883.04,9.163.057,15,0,9.666-.057,17.828-.136,20.292h-.107a6,6,0,0,1,.051-.921Z" transform="translate(-193.848 -143.187)" fill="#f5f5f5"/>
      <path id="Path_35128" data-name="Path 35128" d="M396.612,323.09a5.411,5.411,0,0,1,.057.921h-.107c-.085-2.464-.141-10.627-.141-20.292,0-5.839.04-11.118.057-15,0-1.882.045-3.42.062-4.55,0-.5.028-.91.034-1.232a1.916,1.916,0,0,1,.04-.435,1.577,1.577,0,0,1,.04.435c0,.322,0,.729.04,1.232,0,1.13.034,2.668.057,4.55,0,3.883.04,9.163.057,15,0,9.666-.057,17.828-.136,20.292h-.107a5.993,5.993,0,0,1,.051-.921Z" transform="translate(-198.348 -143.187)" fill="#f5f5f5"/>
      <path id="Path_35129" data-name="Path 35129" d="M406.953,323.09a5.411,5.411,0,0,1,.057.921h-.119c-.085-2.464-.141-10.627-.141-20.292,0-5.839.04-11.118.057-15,0-1.882.045-3.42.062-4.55,0-.5,0-.91.034-1.232a1.916,1.916,0,0,1,.04-.435,1.576,1.576,0,0,1,.04.435c0,.322,0,.729.04,1.232,0,1.13.034,2.668.057,4.55,0,3.883.04,9.163.057,15,0,9.666-.057,17.828-.136,20.292h-.107a6,6,0,0,1,.062-.921Z" transform="translate(-202.839 -143.187)" fill="#f5f5f5"/>
      <path id="Path_35130" data-name="Path 35130" d="M417.312,323.09a5.4,5.4,0,0,1,.057.921h-.107c-.085-2.464-.141-10.627-.141-20.292,0-5.839.04-11.118.057-15,0-1.882.045-3.42.062-4.55,0-.5.028-.91.034-1.232a1.916,1.916,0,0,1,.04-.435,1.577,1.577,0,0,1,.04.435c0,.322,0,.729.04,1.232,0,1.13.034,2.668.057,4.55,0,3.883.04,9.163.057,15,0,9.666-.057,17.828-.136,20.292h-.107a6,6,0,0,1,.051-.921Z" transform="translate(-207.347 -143.187)" fill="#f5f5f5"/>
      <path id="Path_35131" data-name="Path 35131" d="M427.662,323.09a5.408,5.408,0,0,1,.057.921h-.107c-.085-2.464-.141-10.627-.141-20.292,0-5.839.04-11.118.057-15,0-1.882.045-3.42.062-4.55,0-.5.028-.91.034-1.232a2.443,2.443,0,0,1,.04-.435,1.577,1.577,0,0,1,.04.435c0,.322,0,.729.034,1.232,0,1.13.04,2.668.062,4.55,0,3.883.04,9.163.057,15,0,9.666-.057,17.828-.136,20.292h-.107A6,6,0,0,1,427.662,323.09Z" transform="translate(-211.847 -143.187)" fill="#f5f5f5"/>
      <path id="Path_35132" data-name="Path 35132" d="M438.012,323.09a5.407,5.407,0,0,1,.057.921h-.107c-.085-2.464-.141-10.626-.141-20.292,0-5.839.04-11.118.057-15,0-1.882.045-3.42.062-4.55,0-.5.028-.91.034-1.232a1.917,1.917,0,0,1,.04-.435,1.577,1.577,0,0,1,.04.435c0,.322,0,.729.04,1.232,0,1.13.034,2.668.057,4.55,0,3.883.04,9.163.057,15,0,9.666-.057,17.828-.136,20.292h-.107a5.992,5.992,0,0,1,.051-.921Z" transform="translate(-216.347 -143.187)" fill="#f5f5f5"/>
      <path id="Path_35133" data-name="Path 35133" d="M448.362,323.09a5.41,5.41,0,0,1,.057.921h-.107c-.085-2.464-.141-10.626-.141-20.292,0-5.839.04-11.118.057-15,0-1.882.045-3.42.062-4.55,0-.5.028-.91.034-1.232a1.916,1.916,0,0,1,.04-.435,1.578,1.578,0,0,1,.04.435c0,.322,0,.729.04,1.232,0,1.13.034,2.668.057,4.55,0,3.883.04,9.163.057,15,0,9.666-.057,17.828-.136,20.292h-.107a6,6,0,0,1,.051-.921Z" transform="translate(-220.847 -143.187)" fill="#f5f5f5"/>
      <rect id="Rectangle_5413" data-name="Rectangle 5413" width="108.074" height="3.42" transform="translate(1.798 70.597)" fill="#e0e0e0"/>
      <rect id="Rectangle_5414" data-name="Rectangle 5414" width="5.472" height="10.836" transform="translate(20.044 72.304)" fill="#e0e0e0"/>
      <rect id="Rectangle_5415" data-name="Rectangle 5415" width="5.472" height="12.548" transform="translate(84.934 70.597)" fill="#e0e0e0"/>
      <path id="Path_35134" data-name="Path 35134" d="M77.08,120.25,80.618,143.5h20.558l4.771-22.915Z" transform="translate(-59.511 -72.647)" fill="#ebebeb"/>
      <path id="Path_35135" data-name="Path 35135" d="M104.965,146.524c0,.068-5.268.119-11.763.119s-11.763-.051-11.763-.119S86.7,146.4,93.2,146.4,104.965,146.457,104.965,146.524Z" transform="translate(-61.407 -84.016)" fill="#fafafa"/>
      <path id="Path_35136" data-name="Path 35136" d="M104.94,144.5c0,.068-5.3.124-11.87.124s-11.87-.057-11.87-.124,5.3-.119,11.87-.119S104.94,144.437,104.94,144.5Z" transform="translate(-61.303 -83.138)" fill="#fafafa"/>
      <path id="Path_35137" data-name="Path 35137" d="M104.892,142.219c0,.068-5.3.119-11.842.119s-11.87-.051-11.87-.119,5.3-.119,11.87-.119S104.892,142.151,104.892,142.219Z" transform="translate(-61.294 -82.146)" fill="#fafafa"/>
      <path id="Path_35138" data-name="Path 35138" d="M86.733,154.465a36.412,36.412,0,0,1-1.023-5.9,38.131,38.131,0,0,1,1.023,5.9Z" transform="translate(-63.263 -84.959)" fill="#fafafa"/>
      <path id="Path_35139" data-name="Path 35139" d="M89.7,154.222a22.486,22.486,0,0,1-.254-2.826,22.611,22.611,0,0,1-.136-2.866,22.131,22.131,0,0,1,.39,5.692Z" transform="translate(-64.826 -84.942)" fill="#fafafa"/>
      <path id="Path_35140" data-name="Path 35140" d="M93.931,154.061a14.549,14.549,0,0,1-.565-2.928,13.956,13.956,0,0,1-.153-2.973,25.924,25.924,0,0,1,.4,2.945A26.225,26.225,0,0,1,93.931,154.061Z" transform="translate(-66.516 -84.781)" fill="#fafafa"/>
      <path id="Path_35141" data-name="Path 35141" d="M97.419,154.233a14,14,0,0,1-.288-2.973,14.7,14.7,0,0,1,.09-2.99,25.8,25.8,0,0,1,.153,2.979A26.288,26.288,0,0,1,97.419,154.233Z" transform="translate(-68.212 -84.829)" fill="#fafafa"/>
      <path id="Path_35142" data-name="Path 35142" d="M103.057,154.262a16.5,16.5,0,0,1-.215-2.826,16.218,16.218,0,0,1,0-2.826,16.318,16.318,0,0,1,.215,2.826A16.33,16.33,0,0,1,103.057,154.262Z" transform="translate(-70.685 -84.977)" fill="#fafafa"/>
      <path id="Path_35143" data-name="Path 35143" d="M107.27,154.329a17.9,17.9,0,0,1-.1-2.922,18.348,18.348,0,0,1,.141-2.917,17.489,17.489,0,0,1,.1,2.922,17.924,17.924,0,0,1-.147,2.917Z" transform="translate(-72.586 -84.924)" fill="#fafafa"/>
      <path id="Path_35144" data-name="Path 35144" d="M111.2,153.592a19.111,19.111,0,0,1,.175-3.052,20.474,20.474,0,0,1,.413-3.03,19.11,19.11,0,0,1-.175,3.052A20.472,20.472,0,0,1,111.2,153.592Z" transform="translate(-74.342 -84.498)" fill="#fafafa"/>
      <path id="Path_35145" data-name="Path 35145" d="M116.15,153.808a10,10,0,0,1,.345-2.594,10.124,10.124,0,0,1,.763-2.5,22.941,22.941,0,0,1-.531,2.555A22.924,22.924,0,0,1,116.15,153.808Z" transform="translate(-76.497 -85.02)" fill="#fafafa"/>
      <path id="Path_35146" data-name="Path 35146" d="M108.471,39.09V39.2a1.731,1.731,0,0,1-.1.328l-.39,1.255c-.175.565-.384,1.21-.6,1.99s-.5,1.662-.74,2.651-.565,2.069-.8,3.239-.526,2.425-.791,3.742c-.492,2.651-.944,5.585-1.26,8.676s-.441,6.059-.48,8.756c0,1.351,0,2.634.04,3.832s.085,2.312.141,3.329.141,1.939.2,2.747.136,1.5.2,2.069.1.989.136,1.306v.339a.469.469,0,0,1,0,.119.288.288,0,0,1-.028-.113,1.449,1.449,0,0,0-.051-.339c-.045-.317-.107-.752-.181-1.3s-.17-1.26-.243-2.069-.181-1.724-.237-2.747-.141-2.137-.175-3.335-.051-2.487-.057-3.838c.028-2.7.158-5.652.463-8.778s.774-6.042,1.277-8.693c.277-1.323.526-2.583.82-3.748s.565-2.261.831-3.239.565-1.865.774-2.645.452-1.441.644-1.978.328-.938.435-1.244c.045-.13.085-.232.119-.317a.69.69,0,0,1,.057-.107Z" transform="translate(-70.802 -37.362)" fill="#ebebeb"/>
      <path id="Path_35147" data-name="Path 35147" d="M105.8,61.15a7.636,7.636,0,0,1,3.194-4.036,1.826,1.826,0,0,1,1.7-.311c.718.345.78,1.357.565,2.12a5.613,5.613,0,0,1-2.329,3.171,4.765,4.765,0,0,1-3.493.882" transform="translate(-71.837 -45.025)" fill="#ebebeb"/>
      <path id="Path_35148" data-name="Path 35148" d="M103.709,76.683a12.887,12.887,0,0,1,3.793-6.1,2.414,2.414,0,0,1,.865-.458,1,1,0,0,1,.921.2,1.43,1.43,0,0,1,.209,1.334,8.094,8.094,0,0,1-6,6.037" transform="translate(-70.998 -50.836)" fill="#ebebeb"/>
      <path id="Path_35149" data-name="Path 35149" d="M103.26,92.828a11.734,11.734,0,0,1,3.81-4.816,1.82,1.82,0,0,1,1.34-.475c.724.13,1.051,1.017.989,1.752a5.658,5.658,0,0,1-2.481,3.668,15.4,15.4,0,0,1-3.538,1.82" transform="translate(-70.893 -58.423)" fill="#ebebeb"/>
      <path id="Path_35150" data-name="Path 35150" d="M103.6,104.577a11.3,11.3,0,0,1,3.261-3.708,2.34,2.34,0,0,1,.972-.441,1,1,0,0,1,.961.367c.328.48,0,1.13-.333,1.588a9.293,9.293,0,0,1-4.646,3.391" transform="translate(-71.041 -64.022)" fill="#ebebeb"/>
      <path id="Path_35151" data-name="Path 35151" d="M98.694,99.435a36.6,36.6,0,0,0-4.658-4.725c-.266-.22-.6-.458-.927-.35a.7.7,0,0,0-.43.627,1.8,1.8,0,0,0,.181.757,9.044,9.044,0,0,0,6,5.042" transform="translate(-66.294 -61.379)" fill="#ebebeb"/>
      <path id="Path_35152" data-name="Path 35152" d="M98.239,84.722l-3.657-4.46a4.4,4.4,0,0,0-1.187-1.13,1.5,1.5,0,0,0-1.56,0,1.475,1.475,0,0,0-.5,1.47,3.957,3.957,0,0,0,.712,1.47A10.977,10.977,0,0,0,94.712,84.9a4.491,4.491,0,0,0,3.341,1.029" transform="translate(-65.691 -54.676)" fill="#ebebeb"/>
      <path id="Path_35153" data-name="Path 35153" d="M99.53,68.558a12.74,12.74,0,0,0-3.663-5.528,2.216,2.216,0,0,0-.961-.565,1.611,1.611,0,0,0-1.7,1.181,3.024,3.024,0,0,0,.333,2.419,6.291,6.291,0,0,0,1.7,1.82,14.77,14.77,0,0,0,4.07,2.2" transform="translate(-66.473 -47.522)" fill="#ebebeb"/>
      <path id="Path_35154" data-name="Path 35154" d="M102.834,53.106a14.887,14.887,0,0,0-3.261-6.828c-.328-.441-.786-.91-1.328-.825a1.057,1.057,0,0,0-.769.656,2.459,2.459,0,0,0-.141,1.034,7.987,7.987,0,0,0,5.183,7.133" transform="translate(-68.314 -40.123)" fill="#ebebeb"/>
      <path id="Path_35155" data-name="Path 35155" d="M108.747,44.928a21.48,21.48,0,0,1-.136-4,7.178,7.178,0,0,1,1.334-3.725,3.109,3.109,0,0,1,1.328-1.057,1.7,1.7,0,0,1,1.628.215,1.752,1.752,0,0,1,.565,1.436,4.443,4.443,0,0,1-.413,1.532c-.972,2.346-2.6,4.94-4.3,5.6" transform="translate(-73.203 -36.032)" fill="#ebebeb"/>
      <path id="Path_35156" data-name="Path 35156" d="M80.621,57.22a1.4,1.4,0,0,1,0,.328v2.425c0,.577,0,1.238.068,1.961.062,1.458.2,3.188.424,5.087s.565,4,1.012,6.172,1.063,4.251,1.611,6.076,1.13,3.476,1.662,4.833c.249.684.509,1.289.724,1.826s.407,1,.565,1.368.271.644.367.865a2.017,2.017,0,0,1,.113.311,1.538,1.538,0,0,1-.147-.288c-.107-.215-.243-.5-.413-.848s-.384-.82-.61-1.351-.5-1.13-.757-1.82c-.565-1.351-1.13-2.99-1.7-4.833s-1.13-3.895-1.577-6.076-.774-4.285-1-6.218-.333-3.651-.373-5.087c-.04-.729,0-1.39-.034-1.973s0-1.074,0-1.487a7.22,7.22,0,0,1,.034-.938,2.149,2.149,0,0,1,.028-.333Z" transform="translate(-61.017 -45.244)" fill="#e0e0e0"/>
      <path id="Path_35157" data-name="Path 35157" d="M81.69,72.913A5.455,5.455,0,0,1,83,69.465a1.306,1.306,0,0,1,1.08-.565c.565.085.82.757.842,1.328a3.991,3.991,0,0,1-.9,2.657,3.391,3.391,0,0,1-2.187,1.351" transform="translate(-61.516 -50.322)" fill="#e0e0e0"/>
      <path id="Path_35158" data-name="Path 35158" d="M83.885,83.863a9.213,9.213,0,0,1,1.272-4.968,1.7,1.7,0,0,1,.486-.5.7.7,0,0,1,.673-.062,1.017,1.017,0,0,1,.458.859,5.782,5.782,0,0,1-2.826,5.4" transform="translate(-62.467 -54.399)" fill="#e0e0e0"/>
      <path id="Path_35159" data-name="Path 35159" d="M86.74,94.974a8.428,8.428,0,0,1,1.566-4.1,1.289,1.289,0,0,1,.808-.61c.526-.068.938.464,1.051.978a4.033,4.033,0,0,1-.9,3.03,10.938,10.938,0,0,1-2.018,2" transform="translate(-63.711 -59.608)" fill="#e0e0e0"/>
      <path id="Path_35160" data-name="Path 35160" d="M89.31,103.006a8.173,8.173,0,0,1,1.419-3.228,1.7,1.7,0,0,1,.565-.509.729.729,0,0,1,.735.045c.322.254.249.763.113,1.13a6.625,6.625,0,0,1-2.431,3.324" transform="translate(-64.829 -63.491)" fill="#e0e0e0"/>
      <path id="Path_35161" data-name="Path 35161" d="M84.264,101.205a25.684,25.684,0,0,0-4.194-2.227.752.752,0,0,0-.707-.034.5.5,0,0,0-.158.52,1.244,1.244,0,0,0,.288.492,6.466,6.466,0,0,0,5.172,2.142" transform="translate(-60.427 -63.353)" fill="#e0e0e0"/>
      <path id="Path_35162" data-name="Path 35162" d="M80.871,91.121,77.418,88.86a3.126,3.126,0,0,0-1.051-.509.95.95,0,0,0-1.091,1.43,2.826,2.826,0,0,0,.8.848A7.823,7.823,0,0,0,78.5,91.981a3.194,3.194,0,0,0,2.5,0" transform="translate(-58.657 -58.757)" fill="#e0e0e0"/>
      <path id="Path_35163" data-name="Path 35163" d="M78.357,79.826a9.106,9.106,0,0,0-3.7-2.962,1.509,1.509,0,0,0-.774-.175A1.13,1.13,0,0,0,73,77.848a2.159,2.159,0,0,0,.746,1.577,4.612,4.612,0,0,0,1.566.865,10.383,10.383,0,0,0,3.239.622" transform="translate(-57.737 -53.708)" fill="#e0e0e0"/>
      <path id="Path_35164" data-name="Path 35164" d="M77.214,68.713a10.628,10.628,0,0,0-3.691-3.957,1.13,1.13,0,0,0-1.085-.277.763.763,0,0,0-.379.61,1.831,1.831,0,0,0,.124.735,5.7,5.7,0,0,0,5.087,3.742" transform="translate(-57.328 -48.382)" fill="#e0e0e0"/>
      <path id="Path_35165" data-name="Path 35165" d="M80,61.446a14.781,14.781,0,0,1-.95-2.691,5.087,5.087,0,0,1,.1-2.826,2.159,2.159,0,0,1,.673-1.006,1.2,1.2,0,0,1,1.13-.209,1.283,1.283,0,0,1,.69.859,3.3,3.3,0,0,1,.045,1.13c-.158,1.809-.707,3.928-1.7,4.737" transform="translate(-60.303 -44.129)" fill="#e0e0e0"/>
      <path id="Path_35166" data-name="Path 35166" d="M121.6,56.83a2,2,0,0,1,0,.322c0,.243,0,.565.034.938s0,.91,0,1.487,0,1.244-.034,1.973c-.04,1.458-.164,3.194-.373,5.087s-.565,4.019-1,6.218a60.971,60.971,0,0,1-1.577,6.076c-.565,1.843-1.164,3.482-1.7,4.833-.254.684-.531,1.289-.757,1.82s-.435.984-.61,1.351-.305.633-.413.848a1.323,1.323,0,0,1-.158.288,2.017,2.017,0,0,1,.113-.311c.1-.215.215-.5.367-.859s.367-.831.565-1.368.475-1.13.724-1.831c.526-1.357,1.091-3,1.656-4.833s1.1-3.889,1.554-6.065.78-4.262,1.017-6.172.362-3.64.424-5.087c.045-.729.051-1.39.068-1.967s0-1.074,0-1.481v-.938A1.351,1.351,0,0,1,121.6,56.83Z" transform="translate(-76.002 -45.074)" fill="#ebebeb"/>
      <path id="Path_35167" data-name="Path 35167" d="M123.156,72.5a5.421,5.421,0,0,0-1.306-3.437,1.306,1.306,0,0,0-1.085-.565c-.565.085-.82.757-.837,1.328a4.019,4.019,0,0,0,.9,2.657,3.391,3.391,0,0,0,2.187,1.351" transform="translate(-78.139 -50.148)" fill="#ebebeb"/>
      <path id="Path_35168" data-name="Path 35168" d="M121.237,83.463a9.213,9.213,0,0,0-1.272-4.968,1.7,1.7,0,0,0-.486-.5.7.7,0,0,0-.673-.062,1.017,1.017,0,0,0-.43.859,5.782,5.782,0,0,0,2.787,5.4" transform="translate(-77.458 -54.225)" fill="#ebebeb"/>
      <path id="Path_35169" data-name="Path 35169" d="M117.918,94.6a8.377,8.377,0,0,0-1.571-4.07,1.266,1.266,0,0,0-.8-.61c-.526-.068-.938.463-1.057.978a4.061,4.061,0,0,0,.9,3.03,10.937,10.937,0,0,0,2.018,2" transform="translate(-75.75 -59.456)" fill="#ebebeb"/>
      <path id="Path_35170" data-name="Path 35170" d="M115.731,102.605a8.173,8.173,0,0,0-1.419-3.228,1.82,1.82,0,0,0-.565-.509.724.724,0,0,0-.735.045c-.322.254-.254.763-.113,1.13a6.625,6.625,0,0,0,2.431,3.324" transform="translate(-75.033 -63.317)" fill="#ebebeb"/>
      <path id="Path_35171" data-name="Path 35171" d="M118.861,100.793a25.685,25.685,0,0,1,4.194-2.227.752.752,0,0,1,.707-.04.5.5,0,0,1,.158.52,1.317,1.317,0,0,1-.288.492,6.466,6.466,0,0,1-5.172,2.142" transform="translate(-77.502 -63.172)" fill="#ebebeb"/>
      <path id="Path_35172" data-name="Path 35172" d="M121.913,90.726l3.454-2.261a3.126,3.126,0,0,1,1.068-.5.95.95,0,0,1,1.091,1.43,2.736,2.736,0,0,1-.8.848,7.772,7.772,0,0,1-2.425,1.351,3.171,3.171,0,0,1-2.5,0" transform="translate(-78.954 -58.588)" fill="#ebebeb"/>
      <path id="Path_35173" data-name="Path 35173" d="M124.7,79.422a9.106,9.106,0,0,1,3.7-2.968,1.5,1.5,0,0,1,.774-.175,1.13,1.13,0,0,1,.887,1.164,2.159,2.159,0,0,1-.757,1.577,4.612,4.612,0,0,1-1.566.865,10.418,10.418,0,0,1-3.244.622" transform="translate(-80.123 -53.529)" fill="#ebebeb"/>
      <path id="Path_35174" data-name="Path 35174" d="M126.117,68.323a10.628,10.628,0,0,1,3.691-3.957,1.13,1.13,0,0,1,1.085-.277.774.774,0,0,1,.379.61,1.832,1.832,0,0,1-.124.735,5.7,5.7,0,0,1-5.087,3.742" transform="translate(-80.806 -48.213)" fill="#ebebeb"/>
      <path id="Path_35175" data-name="Path 35175" d="M125.166,61.048a15.216,15.216,0,0,0,.95-2.691,5.087,5.087,0,0,0-.1-2.826,2.2,2.2,0,0,0-.673-1.006,1.187,1.187,0,0,0-1.13-.2,1.26,1.26,0,0,0-.69.854,3.165,3.165,0,0,0-.045,1.13c.158,1.809.707,3.957,1.7,4.737" transform="translate(-79.669 -43.956)" fill="#ebebeb"/>
      <path id="Path_35176" data-name="Path 35176" d="M72.91,112.11v4.352a1.7,1.7,0,0,0,1.7,1.7h29.783a1.7,1.7,0,0,0,1.7-1.7V112.11Z" transform="translate(-57.698 -69.108)" fill="#ebebeb"/>
      <path id="Path_35177" data-name="Path 35177" d="M77.47,122.84l.249,1.385,27.465,1.956.7-3.341Z" transform="translate(-59.681 -73.773)" fill="#e0e0e0"/>
      <path id="Path_35178" data-name="Path 35178" d="M153.634,106.407s-4.935,3.759-.209,8.727a.447.447,0,0,0,.317.13l43.105-.249s3.685-4.132.627-8.886Z" transform="translate(-91.813 -66.508)" fill="#ebebeb"/>
      <path id="Path_35179" data-name="Path 35179" d="M196.557,113.495c0,.051-5.37.09-11.989.09s-11.989-.04-11.989-.09,5.364-.085,11.989-.085S196.557,113.45,196.557,113.495Z" transform="translate(-101.031 -69.673)" fill="#e0e0e0"/>
      <path id="Path_35180" data-name="Path 35180" d="M194.415,116.255c0,.051-2.527.09-5.652.09s-5.652-.04-5.652-.09,2.527-.085,5.652-.085S194.415,116.21,194.415,116.255Z" transform="translate(-105.609 -70.873)" fill="#e0e0e0"/>
      <path id="Path_35181" data-name="Path 35181" d="M222.7,114.783c-.028,0,.09-.492.226-1.289a18.292,18.292,0,0,0,.249-3.148,18.476,18.476,0,0,0-.305-3.137c-.153-.8-.283-1.283-.254-1.289a1.249,1.249,0,0,1,.124.328c.073.215.158.565.249.933a15.262,15.262,0,0,1,.362,3.165,15.108,15.108,0,0,1-.305,3.171q-.084.469-.215.927a1.413,1.413,0,0,1-.13.339Z" transform="translate(-122.783 -66.417)" fill="#e0e0e0"/>
      <path id="Path_35182" data-name="Path 35182" d="M228.458,106a1.447,1.447,0,0,1,.192.317,4.022,4.022,0,0,1,.192.384c.068.153.153.328.22.526a9.2,9.2,0,0,1,.407,1.43,9.993,9.993,0,0,1,.187,1.814,10.174,10.174,0,0,1-.158,1.82,8.992,8.992,0,0,1-.384,1.436c-.068.2-.147.373-.215.531s-.124.283-.181.39a1.8,1.8,0,0,1-.187.311c-.034,0,.209-.475.463-1.272a10.566,10.566,0,0,0,.345-1.424,11.052,11.052,0,0,0,.147-1.792,11.594,11.594,0,0,0-.175-1.786,10.455,10.455,0,0,0-.367-1.419C228.673,106.492,228.43,106.034,228.458,106Z" transform="translate(-125.324 -66.451)" fill="#e0e0e0"/>
      <path id="Path_35183" data-name="Path 35183" d="M166.465,115.21a1.7,1.7,0,0,1-.2-.288,2.828,2.828,0,0,1-.2-.362,5.3,5.3,0,0,1-.226-.5,7.275,7.275,0,0,1-.424-1.357,8.8,8.8,0,0,1-.164-1.741,8.625,8.625,0,0,1,.209-1.73,7.751,7.751,0,0,1,.458-1.345c.079-.192.17-.35.243-.492a3.1,3.1,0,0,1,.215-.356,1.94,1.94,0,0,1,.2-.283c.034,0-.243.435-.565,1.176a8.737,8.737,0,0,0-.413,1.334,9.243,9.243,0,0,0-.2,1.7,9.43,9.43,0,0,0,.153,1.7,7.913,7.913,0,0,0,.379,1.345C166.239,114.764,166.5,115.193,166.465,115.21Z" transform="translate(-97.844 -66.782)" fill="#e0e0e0"/>
      <path id="Path_35184" data-name="Path 35184" d="M158.06,116.2a1.657,1.657,0,0,1-.22-.328,4.084,4.084,0,0,1-.226-.407,5.448,5.448,0,0,1-.26-.565,9.044,9.044,0,0,1-.5-1.52,10.741,10.741,0,0,1-.237-1.95,10.112,10.112,0,0,1,.153-1.95,9.043,9.043,0,0,1,.424-1.543c.073-.215.164-.4.237-.565s.147-.305.209-.418a2.357,2.357,0,0,1,.2-.333c.034,0-.243.5-.531,1.357a10.58,10.58,0,0,0-.384,1.532,10.084,10.084,0,0,0,.085,3.832,10.457,10.457,0,0,0,.452,1.515C157.794,115.7,158.088,116.184,158.06,116.2Z" transform="translate(-94.091 -66.721)" fill="#e0e0e0"/>
      <path id="Path_35185" data-name="Path 35185" d="M216.735,145.08v8.247H200.79V145.08Z" transform="translate(-113.296 -83.442)" fill="#ebebeb"/>
      <path id="Path_35186" data-name="Path 35186" d="M137.818,148.6v.215a4.725,4.725,0,0,0,4.748,4.431H190.1v-.6H178.8a4.126,4.126,0,0,1-4.126-4.126h0A4.121,4.121,0,0,1,178.8,144.4h11.3v-.882l-47.554.164a4.754,4.754,0,0,0-4.731,4.918Z" transform="translate(-85.917 -82.764)" fill="#e0e0e0"/>
      <path id="Path_35187" data-name="Path 35187" d="M217.7,152.5c0,.045-3.284.085-7.348.085S203,152.546,203,152.5s3.278-.09,7.348-.09S217.7,152.45,217.7,152.5Z" transform="translate(-114.256 -86.629)" fill="#e0e0e0"/>
      <path id="Path_35188" data-name="Path 35188" d="M217.951,155.79c0,.045-3.109.085-6.936.085s-6.935-.04-6.935-.085,3.1-.09,6.935-.09S217.951,155.74,217.951,155.79Z" transform="translate(-114.726 -88.059)" fill="#e0e0e0"/>
      <path id="Path_35189" data-name="Path 35189" d="M219.435,158.795c0,.051-2.792.09-6.218.09s-6.218-.04-6.218-.09,2.792-.085,6.218-.085S219.435,158.75,219.435,158.795Z" transform="translate(-115.995 -89.368)" fill="#e0e0e0"/>
      <path id="Path_35190" data-name="Path 35190" d="M217.953,149.545c0,.051-3.216.09-7.184.09s-7.179-.04-7.179-.09,3.216-.085,7.179-.085S217.953,149.5,217.953,149.545Z" transform="translate(-114.513 -85.346)" fill="#e0e0e0"/>
      <path id="Path_35191" data-name="Path 35191" d="M218.786,146.59c0,.045-2.866.085-6.393.085s-6.393-.04-6.393-.085,2.866-.09,6.393-.09S218.786,146.54,218.786,146.59Z" transform="translate(-115.561 -84.059)" fill="#e0e0e0"/>
      <path id="Path_35192" data-name="Path 35192" d="M146.256,144.05a11.455,11.455,0,0,0-1.012,1.2,6.1,6.1,0,0,0,.085,7.071,10.57,10.57,0,0,0,1.04,1.176,1.921,1.921,0,0,1-.345-.254,5.294,5.294,0,0,1-.8-.853,6.116,6.116,0,0,1-1.238-3.589,6.184,6.184,0,0,1,1.13-3.623,5.81,5.81,0,0,1,.774-.865A1.843,1.843,0,0,1,146.256,144.05Z" transform="translate(-88.601 -82.994)" fill="#f5f5f5"/>
      <path id="Path_35193" data-name="Path 35193" d="M143.416,143.74a11.089,11.089,0,0,0-1.006,1.2,6.1,6.1,0,0,0,.085,7.065,10.74,10.74,0,0,0,1.034,1.181,2.046,2.046,0,0,1-.339-.254,5.054,5.054,0,0,1-.8-.854,6.014,6.014,0,0,1-.085-7.212,5.578,5.578,0,0,1,.774-.87A1.809,1.809,0,0,1,143.416,143.74Z" transform="translate(-87.366 -82.859)" fill="#f5f5f5"/>
      <path id="Path_35194" data-name="Path 35194" d="M200.566,144.05a11.089,11.089,0,0,0-1.006,1.2,6.251,6.251,0,0,0-1.085,3.544,6.336,6.336,0,0,0,1.164,3.527,11.307,11.307,0,0,0,1.04,1.176,1.921,1.921,0,0,1-.345-.254,5.308,5.308,0,0,1-.791-.854,6.014,6.014,0,0,1-.085-7.212,5.24,5.24,0,0,1,.774-.865A1.723,1.723,0,0,1,200.566,144.05Z" transform="translate(-112.213 -82.994)" fill="#f5f5f5"/>
      <path id="Path_35195" data-name="Path 35195" d="M197.726,143.74a11.457,11.457,0,0,0-1.012,1.2,6.1,6.1,0,0,0,.085,7.065,10.371,10.371,0,0,0,1.04,1.181,1.923,1.923,0,0,1-.345-.254,5.3,5.3,0,0,1-.8-.854,6.116,6.116,0,0,1-1.238-3.589,6.008,6.008,0,0,1,1.927-4.522A1.933,1.933,0,0,1,197.726,143.74Z" transform="translate(-110.978 -82.859)" fill="#f5f5f5"/>
      <path id="Path_35196" data-name="Path 35196" d="M155.653,150.885c0-1.13-.028-2.261-.045-3.352a2.465,2.465,0,0,0-.119-.865.808.808,0,0,0-.633-.537,1.283,1.283,0,0,0-1.374.644,3.261,3.261,0,0,0-.328,1.645,24.416,24.416,0,0,0,.13,2.651,3.041,3.041,0,0,0,.311,1.21,1.017,1.017,0,0,0,1.922-.158A3.391,3.391,0,0,0,155.653,150.885Z" transform="translate(-92.583 -83.889)" fill="#f5f5f5"/>
      <path id="Path_35197" data-name="Path 35197" d="M178.442,152.785c0,.051-3.437.09-7.676.09s-7.676-.04-7.676-.09,3.437-.085,7.676-.085S178.442,152.74,178.442,152.785Z" transform="translate(-96.905 -86.755)" fill="#f5f5f5"/>
      <path id="Path_35198" data-name="Path 35198" d="M151.88,137.457l-.09-7.817h4.256l.147,7.817Z" transform="translate(-91.992 -76.729)" fill="#f5f5f5"/>
      <path id="Path_35199" data-name="Path 35199" d="M155.837,132.021a23.125,23.125,0,0,1-3.957,0,21.683,21.683,0,0,1,3.957,0Z" transform="translate(-92.031 -77.72)" fill="#e0e0e0"/>
      <path id="Path_35200" data-name="Path 35200" d="M155.837,134.157a21.679,21.679,0,0,1-3.957,0,23.125,23.125,0,0,1,3.957,0Z" transform="translate(-92.031 -78.652)" fill="#e0e0e0"/>
      <path id="Path_35201" data-name="Path 35201" d="M155.837,136.291a23.125,23.125,0,0,1-3.957,0,21.683,21.683,0,0,1,3.957,0Z" transform="translate(-92.031 -79.577)" fill="#e0e0e0"/>
      <path id="Path_35202" data-name="Path 35202" d="M155.837,138.427a21.683,21.683,0,0,1-3.957,0,23.125,23.125,0,0,1,3.957,0Z" transform="translate(-92.031 -80.508)" fill="#e0e0e0"/>
      <path id="Path_35203" data-name="Path 35203" d="M155.837,140.561a23.123,23.123,0,0,1-3.957,0,21.68,21.68,0,0,1,3.957,0Z" transform="translate(-92.031 -81.433)" fill="#e0e0e0"/>
      <path id="Path_35204" data-name="Path 35204" d="M151.39,129.27h47.175a22.107,22.107,0,0,1,0,8.45H151.593v-.565h2.871a1.357,1.357,0,0,0,1.351-1.357v-4.68a1.357,1.357,0,0,0-1.351-1.357H151.39Z" transform="translate(-91.818 -76.568)" fill="#ebebeb"/>
      <path id="Path_35205" data-name="Path 35205" d="M170.254,135.482h.786a.187.187,0,0,1,.085,0,.164.164,0,0,1,.085.147.124.124,0,0,1,0,.051.9.9,0,0,1-.051.2,2.346,2.346,0,0,1-.492.893.933.933,0,0,1-.673.345h-.1a.786.786,0,0,1-.537-.39,1.78,1.78,0,0,1-.232-.944,2.544,2.544,0,0,1,.09-.678,2.318,2.318,0,0,1,.469-.91.944.944,0,0,1,.712-.379.661.661,0,0,1,.294.068,1,1,0,0,1,.464.565.181.181,0,0,1,0,.079.158.158,0,0,1,0,.085.164.164,0,0,1-.147.085h-.051a.147.147,0,0,1-.107-.107h0a.645.645,0,0,0-.1-.187.413.413,0,0,0-.633-.13,1.334,1.334,0,0,0-.43.616,2.318,2.318,0,0,0-.187.887,1.6,1.6,0,0,0,.136.7.447.447,0,0,0,.407.305.565.565,0,0,0,.384-.226,2.216,2.216,0,0,0,.4-.735h-.565a.176.176,0,0,1-.187-.192.107.107,0,0,1,0-.057.175.175,0,0,1,.17-.1Z" transform="translate(-99.53 -78.547)" fill="#fafafa"/>
      <path id="Path_35206" data-name="Path 35206" d="M174.593,133.913a.289.289,0,0,1,0,.057c.034.113.215,1.091.565,2.922a.1.1,0,0,1,0,.04.164.164,0,0,1,0,.09.153.153,0,0,1-.141.085h0a.153.153,0,0,1-.13-.119l-.192-.972h-.967l-.464.978h0a.192.192,0,0,1-.147.085.169.169,0,0,1-.09-.028.213.213,0,0,1-.079-.192l.141-.322q1.017-2.221,1.221-2.617a.175.175,0,0,1,.164-.119A.164.164,0,0,1,174.593,133.913Zm-.209.65-.526,1.1h.74Z" transform="translate(-101.19 -78.538)" fill="#fafafa"/>
      <path id="Path_35207" data-name="Path 35207" d="M179.294,137.165H177.87a.17.17,0,0,1-.09-.028.254.254,0,0,1-.079-.175h0c0-.057.13-1.029.39-2.911a.294.294,0,0,1,0-.062.153.153,0,0,1,.153-.1.2.2,0,0,1,.079,0,.164.164,0,0,1,.085.153c0,.13-.045.4-.1.8q-.249,1.865-.254,1.967h1.21a.232.232,0,0,1,.09,0,.158.158,0,0,1,.107.158.175.175,0,0,1,0,.057.2.2,0,0,1-.17.147Z" transform="translate(-103.257 -78.574)" fill="#fafafa"/>
      <path id="Path_35208" data-name="Path 35208" d="M182.739,133.955a.348.348,0,0,1,0,.057c.034.113.22,1.091.565,2.922v.04a.164.164,0,0,1,0,.09.153.153,0,0,1-.141.085h0a.158.158,0,0,1-.13-.119l-.187-.972h-.972l-.464.978h0a.166.166,0,0,1-.237.057.181.181,0,0,1-.068-.192c.034-.068.079-.175.147-.322q1.017-2.221,1.215-2.617a.181.181,0,0,1,.271-.006Zm-.215.65-.526,1.1h.74Z" transform="translate(-104.735 -78.58)" fill="#fafafa"/>
      <path id="Path_35209" data-name="Path 35209" d="M186.972,135.658l.26.712c.147.4.22.616.22.639a.153.153,0,0,1-.028.085.17.17,0,0,1-.141.079.153.153,0,0,1-.141-.113v-.073c-.079-.175-.2-.509-.379-1l-.808,1.1a.17.17,0,0,1-.147.09.181.181,0,0,1-.09,0,.164.164,0,0,1-.079-.141.085.085,0,0,1,0-.04.356.356,0,0,1,.079-.136c.271-.345.565-.763.9-1.244l-.1-.271c-.3-.808-.452-1.227-.452-1.255a.147.147,0,0,1,0-.085.141.141,0,0,1,.136-.085.175.175,0,0,1,.158.09l.475,1.283.95-1.294a.187.187,0,0,1,.153-.079.158.158,0,0,1,.073,0,.164.164,0,0,1,.085.153.22.22,0,0,1,0,.079Z" transform="translate(-106.707 -78.587)" fill="#fafafa"/>
      <path id="Path_35210" data-name="Path 35210" d="M192.324,133.891a.2.2,0,0,1,.079,0,.17.17,0,0,1,.09.147c-.232,1.837-.362,2.826-.384,2.979a1.888,1.888,0,0,1-.305.774,1.107,1.107,0,0,1-1.4.345.989.989,0,0,1-.5-.441.136.136,0,0,1,0-.085.187.187,0,0,1,0-.079.164.164,0,0,1,.147-.085.158.158,0,0,1,.13.068.9.9,0,0,0,.729.413.729.729,0,0,0,.565-.283,1.605,1.605,0,0,0,.311-.9.8.8,0,0,1-.209.226.865.865,0,0,1-.509.164h-.1a.769.769,0,0,1-.565-.384,1.82,1.82,0,0,1-.232-.95v-.531a12.136,12.136,0,0,1,.192-1.227.156.156,0,0,1,.237-.141.141.141,0,0,1,.085.136c0,.085-.028.3-.079.644a9.447,9.447,0,0,0-.113.995,1.961,1.961,0,0,0,.13.769c.1.232.237.35.418.35h.057a.78.78,0,0,0,.43-.339,2.131,2.131,0,0,0,.35-.78l.215-1.622a.158.158,0,0,1,0-.073.147.147,0,0,1,.226-.09Z" transform="translate(-108.56 -78.566)" fill="#fafafa"/>
      <path id="Path_35211" data-name="Path 35211" d="M231.65,137.751c-.051,0-.09-1.944-.09-4.335s.04-4.335.09-4.335.085,1.939.085,4.335S231.7,137.751,231.65,137.751Z" transform="translate(-126.673 -76.486)" fill="#f5f5f5"/>
      <path id="Path_35212" data-name="Path 35212" d="M163.355,137.751c-.045,0-.085-1.944-.085-4.335s.04-4.335.085-4.335.085,1.939.085,4.335S163.406,137.751,163.355,137.751Z" transform="translate(-96.983 -76.486)" fill="#e0e0e0"/>
      <path id="Path_35213" data-name="Path 35213" d="M233.115,137.751c-.045,0-.085-1.944-.085-4.335s.04-4.335.085-4.335.09,1.939.09,4.335S233.166,137.751,233.115,137.751Z" transform="translate(-127.312 -76.486)" fill="#f5f5f5"/>
      <path id="Path_35214" data-name="Path 35214" d="M161.985,137.751c-.045,0-.085-1.944-.085-4.335s.04-4.335.085-4.335.09,1.939.09,4.335S162.036,137.751,161.985,137.751Z" transform="translate(-96.388 -76.486)" fill="#e0e0e0"/>
      <path id="Path_35215" data-name="Path 35215" d="M207.493,131.561h0l4.985,4.019.045.04h-.057l-.661.175-4.217,1.08h0l-3.815-1.617-1.08-.464-.288-.124-.068-.034h.073l.288.113,1.085.452,3.821,1.6h0l4.205-1.13.661-.175v.051L207.5,131.51h0" transform="translate(-113.956 -77.542)" fill="#e0e0e0"/>
      <path id="Path_35216" data-name="Path 35216" d="M219.207,137.59l.271.254.367-.079-.158.339.187.322-.373-.051-.249.277-.068-.362-.345-.153.328-.181Z" transform="translate(-121.143 -80.186)" fill="#e0e0e0"/>
      <path id="Path_35217" data-name="Path 35217" d="M210.865,140.39l.187.153.232-.062-.09.22.136.2-.243-.017-.147.192-.062-.237-.226-.085.2-.124Z" transform="translate(-117.582 -81.403)" fill="#e0e0e0"/>
      <path id="Path_35218" data-name="Path 35218" d="M201.68,136.395l.3.017.181-.232.073.283.277.1-.249.158-.011.3-.226-.192-.288.085.113-.277Z" transform="translate(-113.683 -79.573)" fill="#e0e0e0"/>
      <path id="Path_35219" data-name="Path 35219" d="M223.45,131.555l.294.017.181-.232.073.283.283.1-.254.158-.011.3-.226-.192-.288.085.113-.277Z" transform="translate(-123.147 -77.468)" fill="#e0e0e0"/>
      <path id="Path_35220" data-name="Path 35220" d="M211.05,131.266l.192.011.113-.147.051.181.175.068-.158.1-.006.187-.147-.119-.181.051.068-.175Z" transform="translate(-117.756 -77.377)" fill="#e0e0e0"/>
      <path id="Path_35221" data-name="Path 35221" d="M218.641,131.843s-1.611-.034-3.6-.119-3.6-.17-3.6-.187,1.611.034,3.6.119S218.641,131.826,218.641,131.843Z" transform="translate(-117.926 -77.553)" fill="#e0e0e0"/>
      <path id="Path_35222" data-name="Path 35222" d="M190.18,126.1H142.333a3.965,3.965,0,0,1,0-3.957H190.18A4.635,4.635,0,0,1,190.18,126.1Z" transform="translate(-87.651 -73.469)" fill="#e0e0e0"/>
      <rect id="Rectangle_5416" data-name="Rectangle 5416" width="25.922" height="1.447" transform="translate(64.591 49.785)" fill="#ebebeb"/>
      <path id="Path_35223" data-name="Path 35223" d="M145.363,126.158a1.379,1.379,0,0,1-.379-.48,3.476,3.476,0,0,1-.435-1.413,3.516,3.516,0,0,1,.181-1.47,1.385,1.385,0,0,1,.288-.565,3.847,3.847,0,0,1-.17.565,4.234,4.234,0,0,0-.13,1.419,4.177,4.177,0,0,0,.373,1.374A4.522,4.522,0,0,1,145.363,126.158Z" transform="translate(-88.838 -73.508)" fill="#e0e0e0"/>
      <path id="Path_35224" data-name="Path 35224" d="M147.183,126.158a1.379,1.379,0,0,1-.379-.48,3.476,3.476,0,0,1-.435-1.413,3.516,3.516,0,0,1,.181-1.47,1.481,1.481,0,0,1,.288-.565,3.849,3.849,0,0,1-.17.565,4.109,4.109,0,0,0-.124,1.419,4.047,4.047,0,0,0,.367,1.374A4.523,4.523,0,0,1,147.183,126.158Z" transform="translate(-89.629 -73.508)" fill="#e0e0e0"/>
      <path id="Path_35225" data-name="Path 35225" d="M224,126a5.946,5.946,0,0,0,0-3.895A4.058,4.058,0,0,1,224,126Z" transform="translate(-123.386 -73.455)" fill="#f5f5f5"/>
      <path id="Path_35226" data-name="Path 35226" d="M222.378,126.065c-.057,0,.147-.854.141-1.911s-.2-1.894-.147-1.9a5.856,5.856,0,0,1,0,3.815Z" transform="translate(-122.674 -73.516)" fill="#f5f5f5"/>
      <path id="Path_35227" data-name="Path 35227" d="M66.823,337.309a21.015,21.015,0,0,0-13.046-1.583c-2.368.39-4.833,1.1-6.444,2.877s-1.916,4.906-.068,6.432a6.21,6.21,0,0,0,4.064,1.034c3.448-.045,7.275-.65,10.033,1.424,1.571,1.187,2.617,3.154,4.522,3.736a4.388,4.388,0,0,0,4.889-2.176,7.646,7.646,0,0,0,.565-5.6A8.546,8.546,0,0,0,66.823,337.309Z" transform="translate(-45.998 -166.167)" fill="#ebebeb"/>
      <path id="Path_35228" data-name="Path 35228" d="M86.462,280.074c-2.425,3.465-7.145,2.317-9.332.2s-3.109-5.183-3.957-8.106c-1.933-6.659-3.855-13.69-2.425-20.49a11.406,11.406,0,0,1,2.617-5.573,5.966,5.966,0,0,1,5.652-1.877c2.38.627,3.855,2.956,4.923,5.172a48.8,48.8,0,0,1,4.822,20.965c0,3.391-.384,6.919-2.261,9.705" transform="translate(-56.543 -126.482)" fill="#ebebeb"/>
      <path id="Path_35229" data-name="Path 35229" d="M108.75,293.645c-2.634-3.126-3.137-7.687-1.961-11.6a22.387,22.387,0,0,1,6.873-9.971,36.893,36.893,0,0,1,12.305-7.263,13.079,13.079,0,0,1,5.539-.938,5.761,5.761,0,0,1,4.646,2.826c1.294,2.47.051,5.466-1.294,7.913a93.31,93.31,0,0,1-8.083,12.311c-2.425,3.12-5.2,6.218-8.891,7.614s-7.529,1.249-9.485-1.317" transform="translate(-72.167 -135.079)" fill="#ebebeb"/>
      <path id="Path_35230" data-name="Path 35230" d="M85.312,375.741a7.7,7.7,0,0,1-.22-1.577c-.113-1.13-.249-2.583-.418-4.3a61.357,61.357,0,0,0-.967-6.308,48.316,48.316,0,0,0-2.261-7.439,27.624,27.624,0,0,0-3.8-6.732,14.238,14.238,0,0,0-4.8-4,13.475,13.475,0,0,0-4.047-1.255,7.552,7.552,0,0,1-1.566-.232,7.348,7.348,0,0,1,1.594,0,12.248,12.248,0,0,1,4.217,1.1,14.2,14.2,0,0,1,5.087,4.03,26.623,26.623,0,0,1,3.957,6.868,45.1,45.1,0,0,1,2.261,7.563,53.473,53.473,0,0,1,.837,6.382c.136,1.826.187,3.307.215,4.324A7.349,7.349,0,0,1,85.312,375.741Z" transform="translate(-55.229 -169.865)" fill="#e0e0e0"/>
      <path id="Path_35231" data-name="Path 35231" d="M92.5,339.765a3.024,3.024,0,0,1-.045-.735v-2.086c0-1.814,0-4.443-.09-7.682-.164-6.483-.718-13.458-1.8-23.294-1.023-9.247-2.391-20.009-3.838-27-.311-1.594-.622-3.024-.916-4.279s-.52-2.34-.752-3.216-.356-1.5-.486-2.035a2.934,2.934,0,0,1-.13-.718,3.006,3.006,0,0,1,.254.684c.158.526.362,1.187.6,2s.565,1.944.865,3.2.673,2.679,1.012,4.268a236.389,236.389,0,0,1,4.036,25.051c1.08,9.852,1.566,18.828,1.611,25.328.04,3.244,0,5.878-.113,7.693-.051.848-.1,1.537-.13,2.086a3.1,3.1,0,0,1-.085.735Z" transform="translate(-62.716 -137.196)" fill="#e0e0e0"/>
      <path id="Path_35232" data-name="Path 35232" d="M98.586,326.544a13.464,13.464,0,0,1,0-2.182c.079-1.407.271-3.431.667-5.918a78.57,78.57,0,0,1,1.922-8.614,70.592,70.592,0,0,1,3.606-10.174,54.235,54.235,0,0,1,10.581-16.477,26.369,26.369,0,0,1,2.487-2.312c.384-.328.718-.65,1.063-.9l.967-.661a15,15,0,0,1,1.837-1.181,65.7,65.7,0,0,0-6.02,5.375,57.262,57.262,0,0,0-10.321,16.42,81.053,81.053,0,0,0-3.623,10.1c-.944,3.165-1.571,6.076-2.046,8.529s-.712,4.465-.87,5.856A14.38,14.38,0,0,1,98.586,326.544Z" transform="translate(-68.842 -141.282)" fill="#e0e0e0"/>
      <path id="Path_35233" data-name="Path 35233" d="M102.068,417.8l-1.73,23.757H69.815L68.08,417.8Z" transform="translate(-55.599 -202.01)" fill="#e0e0e0"/>
      <rect id="Rectangle_5417" data-name="Rectangle 5417" width="40.579" height="9.366" transform="translate(8.841 206.424)" fill="#e0e0e0"/>
      <path id="Path_35234" data-name="Path 35234" d="M102.732,458.22v2.594H62.82V458.22Z" transform="translate(-53.312 -219.583)" fill="#ebebeb"/>
      <path id="Path_35235" data-name="Path 35235" d="M100.073,467.383l1.871-4.573H65.39l2.182,4.573Z" transform="translate(-54.429 -221.578)" fill="#e0e0e0"/>
      <path id="Path_35236" data-name="Path 35236" d="M69.08,428.987a.978.978,0,0,0,.141.22l.458.6,1.781,2.261.079.1.073-.107,4.369-6.042h-.249c1.294,1.843,2.741,3.889,4.3,6.088l.136.192.153-.181,5.087-6.065H85.11l.283.35,4.556,5.732.153.192.141-.2c1.543-2.193,2.99-4.239,4.3-6.088H94.29c2.125,2.414,3.923,4.465,5.3,6.037l.1.107.068-.124,1.662-2.787c.175-.3.311-.565.424-.74s.141-.26.13-.266a1.158,1.158,0,0,0-.175.237l-.475.712L99.58,431.96h.17l-5.2-6.1-.13-.158-.119.17-4.352,6.048h.288c-1.441-1.82-2.968-3.742-4.522-5.726l-.288-.333-.147-.181-.147.181-5.087,6.076h.283l-4.347-6.076-.13-.175-.119.175-4.279,6.11h.158l-1.854-2.216-.492-.565Z" transform="translate(-56.033 -205.436)" fill="#f5f5f5"/>
      <path id="Path_35237" data-name="Path 35237" d="M67.33,417.372c0,.107,7.648.192,17.076.192s17.082-.085,17.082-.192-7.642-.192-17.082-.192S67.33,417.265,67.33,417.372Z" transform="translate(-55.272 -201.74)" fill="#f5f5f5"/>
      <path id="Path_35238" data-name="Path 35238" d="M64.6,463.122c0,.1,8.309.187,18.562.187s18.562-.085,18.562-.187-8.309-.192-18.562-.192S64.6,463.015,64.6,463.122Z" transform="translate(-54.086 -221.63)" fill="#f5f5f5"/>
    </g>
    <g id="freepik--Character--inject-60" transform="translate(65.242 68.026)">
      <path id="Path_35239" data-name="Path 35239" d="M128.787,245.36s-5.528,3.154-7.642,6.438-15.216,46.723-15.216,46.723a56.083,56.083,0,0,1-2.645-12.356l-12.509.254s-1.9,14.527-1.9,17.811-.136,33.988,11.842,35.865,21.847-16.675,23.74-22.779,8.925-22.96,8.925-22.96Z" transform="translate(-86.693 -159.034)" fill="#a36957"/>
      <path id="Path_35240" data-name="Path 35240" d="M100.8,260.49a2.741,2.741,0,0,0-.933-2.544,3.086,3.086,0,0,0-2.261-.707c-2.419.17-7.246,4.414-9.163,5a4.546,4.546,0,0,0-3.391,4.669c.277,2.25,3.5,16.392,3.5,16.392v11.989h12.435l.565-3.663a18.812,18.812,0,0,0,2.826-4.522c.661-1.939,0-8.241,0-8.241l2.668-.752a12.346,12.346,0,0,0,2.261-3.832c.514-1.831-.249-3.329-2.086-3.165,0,0,.667-3.081.418-3.911s-.916-1.916-3.165-1.5c0,0,1.164-3.578-.333-4.748a3.736,3.736,0,0,0-3.329-.5Z" transform="translate(-85.019 -164.193)" fill="#a36957"/>
      <path id="Path_35241" data-name="Path 35241" d="M112.86,283.86a22.621,22.621,0,0,1,6.534-1.99,31.952,31.952,0,0,1-3.256,1.029A32.67,32.67,0,0,1,112.86,283.86Z" transform="translate(-97.123 -174.907)" fill="#894536"/>
      <path id="Path_35242" data-name="Path 35242" d="M108.62,273.811a3.2,3.2,0,0,1,.865-.447,18.845,18.845,0,0,1,2.21-.825,9.846,9.846,0,0,1,2.329-.384,3.08,3.08,0,0,1,.984.045c0,.1-1.492.113-3.233.622-.87.254-1.645.565-2.21.74A3.092,3.092,0,0,1,108.62,273.811Z" transform="translate(-95.28 -170.674)" fill="#894536"/>
      <path id="Path_35243" data-name="Path 35243" d="M89.258,270.757a1.368,1.368,0,0,1,0-.667,3.776,3.776,0,0,1,.8-1.639,7.347,7.347,0,0,1,2.114-1.667c.876-.5,1.86-1.012,2.917-1.487a34.743,34.743,0,0,1,5.607-1.978c.74-.187,1.345-.311,1.764-.39a2.453,2.453,0,0,1,.656-.079,3.21,3.21,0,0,1-.633.192c-.407.113-1,.266-1.73.48a42.862,42.862,0,0,0-5.539,2.04c-2.057.984-4.008,1.894-4.985,3.024a3.956,3.956,0,0,0-.842,1.526C89.281,270.52,89.281,270.757,89.258,270.757Z" transform="translate(-86.844 -166.637)" fill="#894536"/>
      <path id="Path_35244" data-name="Path 35244" d="M98.3,283.263a2.065,2.065,0,0,1-.718-.735,3.16,3.16,0,0,1,1.063-4.42,1.7,1.7,0,0,1,.972-.328c0,.051-.367.147-.859.5a3.391,3.391,0,0,0-1.3,1.882,3.324,3.324,0,0,0,.305,2.261C98.038,282.992,98.331,283.223,98.3,283.263Z" transform="translate(-90.265 -173.129)" fill="#894536"/>
      <path id="Path_35245" data-name="Path 35245" d="M108.063,291.742a1.907,1.907,0,0,1-.61-.656,3.154,3.154,0,0,1-.413-2.12,3.216,3.216,0,0,1,1.068-1.882,1.5,1.5,0,0,1,.791-.424c0,.045-.277.2-.65.565a3.228,3.228,0,0,0-.61,3.753C107.865,291.459,108.1,291.708,108.063,291.742Z" transform="translate(-94.576 -176.989)" fill="#894536"/>
      <path id="Path_35246" data-name="Path 35246" d="M115.023,318.25a3.733,3.733,0,0,1,.045.435c.028.283.04.7.09,1.238a43.192,43.192,0,0,0,.65,4.522,59.571,59.571,0,0,0,4.923,14.227c1.328,2.634,2.645,5.138,3.572,7.535a28.263,28.263,0,0,1,1.82,6.568,16.014,16.014,0,0,1,0,4.59,9.746,9.746,0,0,1-.226,1.232,2.075,2.075,0,0,1-.113.418,2.481,2.481,0,0,1,.057-.435c.034-.283.136-.69.17-1.227a16.646,16.646,0,0,0-.113-4.55,28.624,28.624,0,0,0-1.86-6.489c-.933-2.38-2.261-4.861-3.584-7.506a56.919,56.919,0,0,1-4.861-14.318,36.176,36.176,0,0,1-.565-4.556c-.034-.565,0-.967-.04-1.249a2.177,2.177,0,0,1,.034-.435Z" transform="translate(-98.049 -190.723)" fill="#894536"/>
      <path id="Path_35247" data-name="Path 35247" d="M159.49,238.086l26.5-9.134,32.049-.322c.565,0,35.384,11.87,37.634,13.21s-7.947,42.393-7.947,42.393l4.754,57.349s8.049,18.517,1.328,23.989h-6.274l-80.869-.1c-.158-12.074,3.516-43.936,3.516-43.936l-7.687-34.875Z" transform="translate(-117.396 -151.76)" fill="#f8951d"/>
      <path id="Path_35248" data-name="Path 35248" d="M241.858,314.91h-.808l-2.306.057-8.479.141-28.008.35-28.013.266-8.479.051H162.64a.933.933,0,0,1,.2,0h.6l2.312-.057,8.479-.136,28.013-.356,28.013-.266,8.479-.051h3.12Z" transform="translate(-118.765 -189.271)" fill="#fff"/>
      <g id="Group_8661" data-name="Group 8661" transform="translate(67.7 133.829)" opacity="0.3">
        <path id="Path_35249" data-name="Path 35249" d="M206.995,330.462c1.747-1.317,4.16-1.181,6.314-.8,10,1.752,18.862,7.348,27.431,12.78,10.242,6.517,19.105,10.237,29.347,16.754l.492,7.5a33.016,33.016,0,0,1-24.972-4.737c-3.2-2.1-6.178-4.827-9.92-5.652-3.081-.661-6.274.085-9.423.13a21.213,21.213,0,0,1-21.411-19.083C204.621,334.86,204.983,332,206.995,330.462Z" transform="translate(-204.791 -329.399)"/>
      </g>
      <path id="Path_35250" data-name="Path 35250" d="M305.66,339.208c0-.073,5.992,1.781,13.323,4.155s13.26,4.352,13.232,4.431-5.986-1.781-13.323-4.155S305.637,339.288,305.66,339.208Z" transform="translate(-180.945 -199.834)" fill="#894536"/>
      <path id="Path_35251" data-name="Path 35251" d="M180,392.26a2.552,2.552,0,0,1,.464.1l1.323.339,4.844,1.26c4.092,1.051,9.762,2.459,16.053,3.872s12.023,2.561,16.172,3.358l4.918.933,1.34.26a3.448,3.448,0,0,1,.458.107,2.424,2.424,0,0,1-.469-.051l-1.345-.2c-1.17-.181-2.854-.469-4.94-.842-4.16-.74-9.9-1.86-16.2-3.273s-11.955-2.854-16.042-3.957c-2.041-.565-3.685-1.012-4.822-1.351l-1.306-.384a2.831,2.831,0,0,1-.447-.164Z" transform="translate(-126.313 -222.9)" fill="#f8951d"/>
      <path id="Path_35252" data-name="Path 35252" d="M144.005,244.08s-8.253,1.837-11.627,9.92c-3.606,8.631-13.328,36.441-13.328,36.441l25.911,15.951,2.521-12.865Z" transform="translate(-99.814 -158.477)" fill="#f8951d"/>
      <path id="Path_35253" data-name="Path 35253" d="M153.509,280.87c.085,0,3.3,14.131,7.179,31.653s6.969,31.693,6.89,31.727-3.3-14.131-7.179-31.653S153.43,280.887,153.509,280.87Z" transform="translate(-114.795 -174.472)" fill="#263238"/>
      <path id="Path_35254" data-name="Path 35254" d="M194,408.54a.721.721,0,0,1,.136.079l.373.254,1.413.995c.6.441,1.357.972,2.261,1.56s1.877,1.294,3.013,2.007,2.363,1.521,3.719,2.323,2.826,1.656,4.352,2.538c3.1,1.7,6.568,3.51,10.287,5.217s7.348,3.137,10.683,4.352c1.7.565,3.256,1.13,4.765,1.622s2.905.916,4.194,1.289,2.464.684,3.493.961,1.916.5,2.645.673l1.7.418.435.113.147.051a.451.451,0,0,1-.153,0l-.441-.085-1.7-.362c-.735-.153-1.634-.356-2.668-.627s-2.216-.565-3.5-.921-2.708-.763-4.211-1.249-3.1-1.023-4.788-1.6c-3.341-1.21-6.975-2.651-10.711-4.347s-7.2-3.51-10.3-5.245c-1.537-.887-3.007-1.7-4.341-2.566s-2.583-1.617-3.708-2.363-2.114-1.436-3-2.041-1.617-1.13-2.216-1.605l-1.385-1.04-.35-.277Z" transform="translate(-132.399 -229.978)" fill="#263238"/>
      <path id="Path_35255" data-name="Path 35255" d="M291.809,289.26c.073-.034,2.877,5.946,6.263,13.362s6.071,13.453,6,13.487-2.877-5.952-6.263-13.368S291.735,289.294,291.809,289.26Z" transform="translate(-174.922 -178.119)" fill="#263238"/>
      <g id="Group_8662" data-name="Group 8662" transform="translate(38.188 113.582)" opacity="0.3">
        <path id="Path_35256" data-name="Path 35256" d="M161.25,321.514c-4.708-2.289-7.636-7.348-8.416-12.52s.328-10.457,1.978-15.414Z" transform="translate(-152.579 -293.58)"/>
      </g>
      <g id="Group_8663" data-name="Group 8663" transform="translate(65.817 181.694)" opacity="0.3">
        <path id="Path_35257" data-name="Path 35257" d="M249.715,435.2A51.1,51.1,0,0,1,201.46,414.08C216.716,423.587,232.209,431.846,249.715,435.2Z" transform="translate(-201.46 -414.08)"/>
      </g>
      <path id="Path_35258" data-name="Path 35258" d="M255.163,293.91l38,12.079s-8.162-16.33-11.5-24.871c-2.261-5.737.283-24.469,11.87-25.848,0,0,2.2.458,5.438,4.923s21.18,35.768,21.18,35.768,7.71,14.08,10.372,19.834c3.957,8.586-1.492,22-16.957,24.729-12.147,2.142-59.983-26-59.983-26Z" transform="translate(-158.302 -163.342)" fill="#a36957"/>
      <path id="Path_35259" data-name="Path 35259" d="M338.029,284.25l-27.753,18.263L297.49,276.478l3.391-18.088,9.609-8.479h0c4.912-.961,9.338,4.3,11.808,8.648Z" transform="translate(-177.393 -160.963)" fill="#f8951d"/>
      <path id="Path_35260" data-name="Path 35260" d="M290.512,270.206a1.24,1.24,0,0,1,0-.317v-.921a16.242,16.242,0,0,1,.531-3.346,17.763,17.763,0,0,1,16.171-13.374,16.754,16.754,0,0,1,3.391.107c.4.045.7.124.91.158a1.17,1.17,0,0,1,.311.079c0,.028-.441-.045-1.232-.124a18.95,18.95,0,0,0-3.352,0,18.652,18.652,0,0,0-4.844,1.068,17.568,17.568,0,0,0-9.2,7.6,18.788,18.788,0,0,0-2.577,7.851C290.546,269.765,290.535,270.206,290.512,270.206Z" transform="translate(-174.355 -162.011)" fill="#263238"/>
      <path id="Path_35261" data-name="Path 35261" d="M225.814,298.453V282.168a2.628,2.628,0,0,0-2.623-2.628h-18a2.628,2.628,0,0,0-2.628,2.628v34.31a2.628,2.628,0,0,0,2.628,2.623h18a2.623,2.623,0,0,0,2.623-2.623Z" transform="translate(-136.121 -173.894)" fill="#263238"/>
      <path id="Path_35262" data-name="Path 35262" d="M240.11,321.031s-4.742-2.555-5.715-3.646-6.783-8.637-8.145-9.852a14.473,14.473,0,0,0-3.16-2.063v5.472a5.056,5.056,0,0,1-2.487.972c-1.888.367-18.907-3.041-20.123-3.165s-2.555-.119-2.555,1.34a6.28,6.28,0,0,0,2.069,3.77,13.007,13.007,0,0,0,2.917,1.091s-5.262-.447-5.873.288-.972,2.447-.136,2.826c.707.333,4.522,1.86,4.522,1.86s9.88,3.889,10,4.375-5.958.243-6.687,0-3.391-2.069-4.251-2.193a1.7,1.7,0,0,0-1.7,2.47,18.032,18.032,0,0,0,2.679,3.957,1.91,1.91,0,0,0-1.583,1.583,2.4,2.4,0,0,0,.854,2.312,7.287,7.287,0,0,0,4.008,1.458c1.091,0,17.144,3.646,18.359,3.646s5.839-1.215,7.54-1.34,4.132,0,4.132,0Z" transform="translate(-133.448 -185.167)" fill="#a36957"/>
      <path id="Path_35263" data-name="Path 35263" d="M201.43,321.917a4.719,4.719,0,0,1,.87-.09,7.656,7.656,0,0,1,1.023,0h.639l.712.079a46.353,46.353,0,0,1,7.642,1.752,70.942,70.942,0,0,0,7.563,1.961l.7.124.627.079a8.675,8.675,0,0,0,1.012.1,5.939,5.939,0,0,1,.87.079,4.645,4.645,0,0,1-.876.04,8.853,8.853,0,0,1-1.023-.051l-.639-.057-.712-.057a58.683,58.683,0,0,1-7.608-1.888,54.334,54.334,0,0,0-7.586-1.826l-.707-.1-.633-.045a8.516,8.516,0,0,0-.989-.1,5.537,5.537,0,0,1-.887,0Z" transform="translate(-135.63 -192.271)" fill="#894536"/>
      <path id="Path_35264" data-name="Path 35264" d="M229.39,338.88a8.659,8.659,0,0,0,6.9,1.2,2.7,2.7,0,0,1-1.017.367,6.873,6.873,0,0,1-5.053-.876A2.526,2.526,0,0,1,229.39,338.88Z" transform="translate(-147.786 -199.692)" fill="#894536"/>
      <path id="Path_35265" data-name="Path 35265" d="M204.81,345.79a3.031,3.031,0,0,1,.678.192c.43.147,1.051.356,1.82.6a55.462,55.462,0,0,0,6.116,1.549,54.751,54.751,0,0,0,6.257.831c.808.057,1.458.1,1.91.124a2.933,2.933,0,0,1,.7.068,3.647,3.647,0,0,1-.7.045c-.458,0-1.13,0-1.922-.034a43.812,43.812,0,0,1-6.274-.74,44.8,44.8,0,0,1-6.122-1.645c-.769-.271-1.379-.509-1.8-.69a3.487,3.487,0,0,1-.667-.3Z" transform="translate(-137.099 -202.697)" fill="#894536"/>
      <path id="Path_35266" data-name="Path 35266" d="M219.56,288.257a1.357,1.357,0,1,0,1.357-1.357,1.357,1.357,0,0,0-1.357,1.357Z" transform="translate(-143.512 -177.094)" fill="#fff"/>
      <path id="Path_35267" data-name="Path 35267" d="M232.449,157c1.758,4.522,2.826,5.652,5.132,10.395,2.04,4.177.209,9.846-3.194,13-2.221,2.041-5.257,2.866-8.179,3.544-6.54,1.509-13.328,2.617-19.919,1.385a29.291,29.291,0,0,1-16.228-9.106,29.986,29.986,0,0,1-7.512-17.178" transform="translate(-127.421 -120.618)" fill="#455a64"/>
      <g id="Group_8664" data-name="Group 8664" transform="translate(55.129 36.382)" opacity="0.3">
        <path id="Path_35268" data-name="Path 35268" d="M232.449,157c1.758,4.522,2.826,5.652,5.132,10.395,2.04,4.177.209,9.846-3.194,13-2.221,2.041-5.257,2.866-8.179,3.544-6.54,1.509-13.328,2.617-19.919,1.385a29.291,29.291,0,0,1-16.228-9.106,29.986,29.986,0,0,1-7.512-17.178" transform="translate(-182.55 -157)"/>
      </g>
      <path id="Path_35269" data-name="Path 35269" d="M260.2,154.377a96.408,96.408,0,0,0,4.392-16.064,33.566,33.566,0,0,0-1.13-16.465c-.288-.791-2.724-6.122-3.561-6.048-.6.051.876,5.014.565,5.528-2.956,4.935-3.815,10.9-3.425,16.629a75.325,75.325,0,0,0,3.137,16.42" transform="translate(-159.769 -102.706)" fill="#263238"/>
      <path id="Path_35270" data-name="Path 35270" d="M211.821,193.978a15.827,15.827,0,0,0,15.708-15.64l.673-51.861c.622-13.928-6.964-25.9-20.914-26.137l-1.289.051a24.921,24.921,0,0,0-23.881,23.921c-.469,12.074-.837,25.436-.492,31.874.718,13.357,14.171,14.883,14.171,14.883s.034,3.1.028,7.026a15.827,15.827,0,0,0,16,15.883Z" transform="translate(-126.961 -95.985)" fill="#a36957"/>
      <path id="Path_35271" data-name="Path 35271" d="M206.79,220.932a32.312,32.312,0,0,0,17.189-5.862s-3.844,9.9-17.229,9.242Z" transform="translate(-137.943 -145.865)" fill="#894536"/>
      <path id="Path_35272" data-name="Path 35272" d="M192.57,160.612a1.91,1.91,0,0,0,1.916,1.848,1.831,1.831,0,0,0,1.9-1.8,1.9,1.9,0,0,0-1.922-1.848,1.82,1.82,0,0,0-1.894,1.8Z" transform="translate(-131.778 -121.404)" fill="#263238"/>
      <path id="Path_35273" data-name="Path 35273" d="M188.054,150.664c.249.237,1.65-.893,3.7-.972s3.606.887,3.815.622c.107-.113-.153-.565-.831-1.006a5.229,5.229,0,0,0-3.064-.8,5.008,5.008,0,0,0-2.934,1.08C188.128,150.093,187.936,150.556,188.054,150.664Z" transform="translate(-129.8 -116.922)" fill="#263238"/>
      <path id="Path_35274" data-name="Path 35274" d="M226.76,160.612a1.911,1.911,0,0,0,1.922,1.848,1.826,1.826,0,0,0,1.894-1.8,1.911,1.911,0,0,0-1.916-1.848,1.826,1.826,0,0,0-1.9,1.8Z" transform="translate(-146.642 -121.404)" fill="#263238"/>
      <path id="Path_35275" data-name="Path 35275" d="M223.7,150.073c.249.175,1.651-.65,3.7-.707s3.606.65,3.815.464c.107-.085-.153-.407-.831-.74a6.783,6.783,0,0,0-3.064-.594,6.218,6.218,0,0,0-2.934.791C223.784,149.66,223.586,149.994,223.7,150.073Z" transform="translate(-145.3 -116.918)" fill="#263238"/>
      <path id="Path_35276" data-name="Path 35276" d="M207.764,167.594a13.627,13.627,0,0,0-3.391-.469c-.526-.028-1.029-.113-1.13-.469a2.623,2.623,0,0,1,.288-1.566c.441-1.294.9-2.645,1.385-4.058,1.916-5.777,3.284-10.513,3.052-10.593s-1.978,4.522-3.9,10.321q-.69,2.137-1.317,4.075a3.045,3.045,0,0,0-.187,2.074,1.328,1.328,0,0,0,.893.729,3.251,3.251,0,0,0,.893.085A13.521,13.521,0,0,0,207.764,167.594Z" transform="translate(-136.068 -117.765)" fill="#263238"/>
      <path id="Path_35277" data-name="Path 35277" d="M223.239,131.735c.226.565,2.261.2,4.686.39s4.4.769,4.7.254c.13-.243-.226-.757-1.034-1.26a8.151,8.151,0,0,0-7.15-.492C223.567,131.017,223.137,131.475,223.239,131.735Z" transform="translate(-145.105 -108.891)" fill="#263238"/>
      <path id="Path_35278" data-name="Path 35278" d="M189.043,132.388c.379.447,1.775-.1,3.476-.187s3.154.187,3.465-.317c.136-.243-.113-.7-.757-1.13a5.053,5.053,0,0,0-5.6.407C189.048,131.675,188.873,132.167,189.043,132.388Z" transform="translate(-130.217 -108.922)" fill="#263238"/>
      <path id="Path_35279" data-name="Path 35279" d="M262.92,163.707c.226-.107,9.072-3.092,9.157,6.054s-9.112,7.348-9.112,7.088S262.92,163.707,262.92,163.707Z" transform="translate(-162.363 -123.295)" fill="#a36957"/>
      <path id="Path_35280" data-name="Path 35280" d="M267.835,175.633c.04,0,.164.113.435.232a1.56,1.56,0,0,0,1.187,0c.967-.362,1.764-1.9,1.792-3.555a5.279,5.279,0,0,0-.464-2.261,1.837,1.837,0,0,0-1.21-1.21.808.808,0,0,0-.938.447c-.119.254-.062.435-.107.452s-.2-.147-.13-.526a.978.978,0,0,1,.356-.565,1.187,1.187,0,0,1,.876-.243,2.227,2.227,0,0,1,1.7,1.4,5.387,5.387,0,0,1,.565,2.544c-.04,1.848-.967,3.578-2.289,3.957a1.7,1.7,0,0,1-1.458-.226C267.857,175.853,267.806,175.65,267.835,175.633Z" transform="translate(-164.497 -125.572)" fill="#894536"/>
      <path id="Path_35281" data-name="Path 35281" d="M192.855,107.882c-1.481-.82,2.962-5.613,6.6-7.269,5.494-2.5,13.894-4.036,18.964-2.606,6.11,1.73,11.18,4.765,14.25,10.321a36.028,36.028,0,0,1,4.053,18.37,10.931,10.931,0,0,1-1.289,5.59c-1.277,2.024-3.731,3.3-3.618,6.093a3.849,3.849,0,0,1-.95,2.792c-1.7,1.781-3.725.107-4.663-1.566-2.018-3.584-2.261-7.862-2.419-11.966a26.886,26.886,0,0,1,.565-8.7c.447-1.526,1.164-2.968,1.526-4.522a5.486,5.486,0,0,0-.65-4.567,5.6,5.6,0,0,0-.74-.752,9.558,9.558,0,0,0-9.468-1.8c-5.155,1.826-13.95,4.556-16.251,2.826-3.307-2.515-4.1-4.155-4.1-4.155Z" transform="translate(-131.775 -94.732)" fill="#263238"/>
      <path id="Path_35282" data-name="Path 35282" d="M182.137,119.69a43.253,43.253,0,0,1,3.052-7.043c1.521-2.453,6.461-4.522,7.54-4.889s13.385-.294,22.123,1.5,16.816,19.993,16.816,19.993l.983-5.042s-.887-9.745-.887-11.944-3.708-9.468-4.686-10.581-10.372-6.415-11.39-6.936-9.276-2.736-13.232-1.95-14.041,5.5-16.268,7.3-2.86,2.357-4.058,4.522S182.137,119.69,182.137,119.69Zm9.609-15.408.119-1.747c.079-1.159,4.94-7.348,11.989-6.3s9.163,9.5,9.163,9.5Z" transform="translate(-127.009 -92.635)" fill="#455a64"/>
      <path id="Path_35283" data-name="Path 35283" d="M199.154,116.589c0-.045-.215-.136-.43-.43a1.583,1.583,0,0,1-.209-1.345,3.73,3.73,0,0,1,.707-1.289c.243-.305.4-.5.362-.565s-.237.107-.531.39a2.99,2.99,0,0,0-.848,1.351,1.645,1.645,0,0,0,.345,1.577C198.86,116.617,199.154,116.629,199.154,116.589Z" transform="translate(-134.196 -101.466)" fill="#263238"/>
      <path id="Path_35284" data-name="Path 35284" d="M204.036,115.321c-.028.04.107.17.079.418a.458.458,0,0,1-.187.328.362.362,0,0,1-.413,0,.367.367,0,0,1-.187-.367.458.458,0,0,1,.226-.3c.215-.13.39-.057.413-.1s-.153-.22-.5-.107a.673.673,0,0,0-.424.441.69.69,0,0,0,1.068.7.667.667,0,0,0,.232-.565C204.3,115.372,204.047,115.282,204.036,115.321Z" transform="translate(-136.325 -102.425)" fill="#263238"/>
      <path id="Path_35285" data-name="Path 35285" d="M211.225,115.734a.773.773,0,0,1,.073.418.475.475,0,0,1-.181.333.413.413,0,0,1-.6-.4.452.452,0,0,1,.226-.3c.215-.13.39-.057.413-.1s-.153-.22-.5-.107a.661.661,0,0,0-.424.441.69.69,0,0,0,1.063.7.673.673,0,0,0,.237-.565C211.463,115.8,211.225,115.694,211.225,115.734Z" transform="translate(-139.451 -102.595)" fill="#263238"/>
      <path id="Path_35286" data-name="Path 35286" d="M218.3,116.171c-.034.034.107.164.073.413a.475.475,0,0,1-.181.333.418.418,0,0,1-.6-.39.492.492,0,0,1,.232-.305c.215-.13.39-.057.413-.1s-.158-.226-.5-.113a.678.678,0,0,0-.43.447.667.667,0,1,0,1.3.124C218.563,116.222,218.3,116.125,218.3,116.171Z" transform="translate(-142.515 -102.783)" fill="#263238"/>
      <path id="Path_35287" data-name="Path 35287" d="M225.476,116.62c-.034.034.1.164.073.413a.48.48,0,0,1-.187.333.379.379,0,0,1-.413,0,.373.373,0,0,1-.187-.367.492.492,0,0,1,.232-.305c.215-.124.39-.057.407-.1s-.153-.226-.5-.107a.656.656,0,1,0,.644,1.13.667.667,0,0,0,.232-.565C225.741,116.671,225.481,116.575,225.476,116.62Z" transform="translate(-145.657 -102.989)" fill="#263238"/>
      <path id="Path_35288" data-name="Path 35288" d="M232.61,117.034c-.028.034.107.17.079.418a.48.48,0,0,1-.187.328.413.413,0,0,1-.6-.39.481.481,0,0,1,.226-.305c.215-.124.39-.051.413-.1s-.153-.22-.5-.107a.656.656,0,1,0,.644,1.13.678.678,0,0,0,.232-.565C232.876,117.085,232.621,116.994,232.61,117.034Z" transform="translate(-148.762 -103.16)" fill="#263238"/>
      <path id="Path_35289" data-name="Path 35289" d="M209.342,98.923c-.746-.034-1.1-1.08-1.843-1.074a2.142,2.142,0,0,0-1.848,1.085,1.741,1.741,0,0,0-3.324.254,2.527,2.527,0,0,0-1.764-.136c-.565.232-.837,1.1-.339,1.441a2.38,2.38,0,0,0-2.414-.124,1.377,1.377,0,0,0-.226,2.148A1.961,1.961,0,0,0,195.3,105.6a.814.814,0,0,0,.52.311c.379,0,.65-.379.718-.752a4.879,4.879,0,0,1,.187-1.13c.153-.345.633-.565.91-.328-.373.627-.735,1.475-.26,2.041.328.384.661.842,1.164.854,2.877.062,17.364,1.317,20.241,1.379C218.781,107.984,216.255,99.228,209.342,98.923Z" transform="translate(-132.745 -94.89)" fill="#263238"/>
      <path id="Path_35290" data-name="Path 35290" d="M258.537,141.386c.085.769.9,1.244,1.656,1.407a8.651,8.651,0,0,1,2.261.509c.69.362,1.13,1.334.639,1.922a1.7,1.7,0,0,1-1.8.209,8.857,8.857,0,0,1-5.76-6,2.476,2.476,0,0,1-3.177-.842,7.222,7.222,0,0,1-1.074-3.391,6.02,6.02,0,0,1-6.059-5.856c0-1.741.825-3.538.2-5.161a34.428,34.428,0,0,1,6.218,5.89C253.682,132.9,258.537,141.386,258.537,141.386Z" transform="translate(-154.668 -106.349)" fill="#263238"/>
      <path id="Path_35291" data-name="Path 35291" d="M260.939,144.529a.69.69,0,0,1,.69.74,1.057,1.057,0,0,1-.7.848,2.436,2.436,0,0,1-1.13.09,6.732,6.732,0,0,1-3.2-1.249,2.063,2.063,0,0,1-2.216.933,2.962,2.962,0,0,1-1.922-1.605,5.443,5.443,0,0,1-.486-2.51,2.323,2.323,0,0,1-2.657-.1,3.64,3.64,0,0,1-1.362-2.4,8.8,8.8,0,0,1,.113-2.826,1.584,1.584,0,0,1-2.368-.65,2.956,2.956,0,0,1,.384-2.73,2.346,2.346,0,0,1-1.277-3.2,1.306,1.306,0,0,1-1.792-.514,2.775,2.775,0,0,1-.13-2.046,14.571,14.571,0,0,0,.514-2.041,3.538,3.538,0,0,0-.865-2.651,8.592,8.592,0,0,1,4.454,2.549,25.553,25.553,0,0,1,3.114,4.166l7.715,11.915" transform="translate(-153.503 -105.671)" fill="#263238"/>
      <path id="Path_35292" data-name="Path 35292" d="M242.989,122.85a2.322,2.322,0,0,1,.4.514,2.527,2.527,0,0,1,.119,1.775,10.118,10.118,0,0,1-.441,1.244,5.618,5.618,0,0,0-.447,1.526,2.108,2.108,0,0,0,.5,1.758,1.566,1.566,0,0,0,.933.435,1.13,1.13,0,0,0,1.034-.384l-.237-.136a3.482,3.482,0,0,0,.4,3.007,3.538,3.538,0,0,0,2.826,1.735l-.147-.209a4.838,4.838,0,0,0,2.4,5.845l-.09-.124a11.2,11.2,0,0,0,.464,2.193,4.081,4.081,0,0,0,1.13,1.826,2.9,2.9,0,0,0,1.927.644,1.911,1.911,0,0,0,1.639-.9h-.226a4.228,4.228,0,0,0,2.374,2.08,4.024,4.024,0,0,0,2.414.062,3.956,3.956,0,0,0,1.379-.7,2.259,2.259,0,0,0,.3-.266c.062-.068.1-.1.09-.107s-.147.113-.435.311a4.166,4.166,0,0,1-1.368.616,3.906,3.906,0,0,1-2.306-.119,4,4,0,0,1-2.216-2l-.107-.22-.119.209a1.7,1.7,0,0,1-1.43.757,2.606,2.606,0,0,1-1.724-.594,3.815,3.815,0,0,1-1.051-1.7,11.536,11.536,0,0,1-.435-2.137v-.085l-.079-.04a4.522,4.522,0,0,1-2.261-5.449l.073-.2h-.22a3.233,3.233,0,0,1-2.561-1.577,3.188,3.188,0,0,1-.407-2.73l.26-.729-.5.594a1.131,1.131,0,0,1-1.577-.068,1.894,1.894,0,0,1-.447-1.554,24.566,24.566,0,0,1,.82-2.753,2.526,2.526,0,0,0-.2-1.854A1.13,1.13,0,0,0,242.989,122.85Z" transform="translate(-153.522 -105.771)" fill="#455a64"/>
      <path id="Path_35293" data-name="Path 35293" d="M200.013,105.812a.808.808,0,0,1,.04-.531.565.565,0,0,1,.475-.333.616.616,0,0,1,.6.43l.181-.034a2,2,0,0,1,1.04-1.967,1.927,1.927,0,0,1,2.538.876l.2-.2a.48.48,0,0,1-.113-.633.848.848,0,0,1,.69-.4,4.019,4.019,0,0,1,1.922.367,4.522,4.522,0,0,1,2.261,2.261l.209-.2a.622.622,0,0,1-.288-.622.837.837,0,0,1,.35-.633,2.154,2.154,0,0,1,1.458-.305,4.522,4.522,0,0,1,2.414.921,5.539,5.539,0,0,1,1.492,1.82.535.535,0,0,0-.04-.164,3.248,3.248,0,0,0-.192-.435,4.522,4.522,0,0,0-1.13-1.374,4.652,4.652,0,0,0-2.51-1.034,2.4,2.4,0,0,0-1.656.339,1.13,1.13,0,0,0-.475.842.921.921,0,0,0,.447.921l.39.2-.175-.4a4.782,4.782,0,0,0-2.414-2.4,4.211,4.211,0,0,0-2.091-.384,1.13,1.13,0,0,0-.933.565.91.91,0,0,0-.079.565.661.661,0,0,0,.339.48l.413.209-.209-.407a2.137,2.137,0,0,0-4.036,1.249l.181-.04a.763.763,0,0,0-.791-.526.673.673,0,0,0-.565.441C199.826,105.631,200.013,105.829,200.013,105.812Z" transform="translate(-134.97 -97.019)" fill="#455a64"/>
      <path id="Path_35294" data-name="Path 35294" d="M180.343,139.048a3.527,3.527,0,0,1-.774,2.312,15.057,15.057,0,0,0-1.792,2.233,1.834,1.834,0,0,0,.61,2.487,3.827,3.827,0,0,0,2.131,5.929c.192-4.025.1-9.649.124-13.679" transform="translate(-125.248 -112.501)" fill="#263238"/>
      <path id="Path_35295" data-name="Path 35295" d="M207.388,186.858a47.769,47.769,0,0,1,7.393-2.634,2.713,2.713,0,0,1,1.407-.1c1.441.322,1.515,1.639,1.34,2.724a10.174,10.174,0,0,1-1.848,4.369,4.4,4.4,0,0,1-2.549,1.86,5.9,5.9,0,0,1-2.645-.333,4.748,4.748,0,0,1-2.442-1.927,8.846,8.846,0,0,1-1.238-2.826A1.164,1.164,0,0,1,207.388,186.858Z" transform="translate(-137.964 -132.388)" fill="#894536"/>
      <path id="Path_35296" data-name="Path 35296" d="M213.57,192.977a3.83,3.83,0,0,0,.74-.317,5.087,5.087,0,0,0,1.6-1.464,10.3,10.3,0,0,0,1.5-2.866,10.04,10.04,0,0,0,.43-1.86,2.317,2.317,0,0,0-.413-1.854,2,2,0,0,0-1.809-.452c-.622.153-1.266.379-1.854.565-1.187.35-2.261.667-3.137.967s-1.588.565-2.069.78a6.153,6.153,0,0,1-.752.311,1.018,1.018,0,0,1,.17-.124c.119-.073.294-.175.531-.294a20.65,20.65,0,0,1,2.046-.87c.882-.322,1.95-.667,3.131-1.029.6-.17,1.193-.384,1.877-.565a2.261,2.261,0,0,1,2.074.565,1.871,1.871,0,0,1,.48,1.017,3.759,3.759,0,0,1,0,1.068,9.535,9.535,0,0,1-.458,1.911,9.992,9.992,0,0,1-1.594,2.911,4.838,4.838,0,0,1-1.7,1.436,2.59,2.59,0,0,1-.565.192.883.883,0,0,1-.237-.028Z" transform="translate(-138.403 -132.289)" fill="#263238"/>
      <path id="Path_35297" data-name="Path 35297" d="M146.882,299.7c-.028.073-3.595-1.17-7.97-2.781s-7.913-2.979-7.862-3.058,3.595,1.17,7.964,2.781S146.91,299.617,146.882,299.7Z" transform="translate(-105.031 -180.117)" fill="#fff"/>
      <path id="Path_35298" data-name="Path 35298" d="M325.909,274.159c.045.073-5.98,3.906-13.458,8.569s-13.566,8.388-13.611,8.315,5.98-3.9,13.458-8.563S325.864,274.068,325.909,274.159Z" transform="translate(-177.979 -171.553)" fill="#fff"/>
    </g>
    <g id="freepik--Table--inject-60" transform="translate(39.53 281.69)">
      <path id="Path_35299" data-name="Path 35299" d="M277.462,470.787c0,.079-53.268.147-118.96.147s-118.972-.09-118.972-.147,53.257-.147,118.972-.147S277.462,470.7,277.462,470.787Z" transform="translate(-39.53 -470.64)" fill="#263238"/>
    </g>
  </g>
</svg>
