<svg xmlns="http://www.w3.org/2000/svg" width="250" height="247.361" viewBox="0 0 250 247.361"><g transform="translate(-20.54 -11.821)"><g transform="translate(34.423 44.168)"><line y2="8.116" transform="translate(4.061 96.931)" fill="none" stroke="#263238" stroke-miterlimit="10" stroke-width="1"/><line x1="8.116" transform="translate(0 100.987)" fill="none" stroke="#263238" stroke-miterlimit="10" stroke-width="1"/><line y2="5.006" transform="translate(188.666 169.391)" fill="none" stroke="#263238" stroke-miterlimit="10" stroke-width="1"/><line x1="5.001" transform="translate(186.166 171.891)" fill="none" stroke="#263238" stroke-miterlimit="10" stroke-width="1"/><line y2="5.006" transform="translate(215.107 0)" fill="none" stroke="#263238" stroke-miterlimit="10" stroke-width="1"/><line x1="5.006" transform="translate(212.607 2.506)" fill="none" stroke="#263238" stroke-miterlimit="10" stroke-width="1"/><line y2="5.006" transform="translate(147.827 204.317)" fill="none" stroke="#263238" stroke-miterlimit="10" stroke-width="1"/><line x1="5.006" transform="translate(145.327 206.823)" fill="none" stroke="#263238" stroke-miterlimit="10" stroke-width="1"/><line y2="12.144" transform="translate(211.93 193.164)" fill="none" stroke="#263238" stroke-miterlimit="10" stroke-width="1"/><line x1="12.144" transform="translate(205.861 199.233)" fill="none" stroke="#263238" stroke-miterlimit="10" stroke-width="1"/><line y2="12.149" transform="translate(26.29 18.403)" fill="none" stroke="#263238" stroke-miterlimit="10" stroke-width="1"/><line x1="12.149" transform="translate(20.215 24.478)" fill="none" stroke="#263238" stroke-miterlimit="10" stroke-width="1"/><path d="M54.045,172.623a2.193,2.193,0,1,1-2.193-2.193A2.193,2.193,0,0,1,54.045,172.623Z" transform="translate(-47.255 -114.058)" fill="none" stroke="#263238" stroke-miterlimit="10" stroke-width="1"/><path d="M442,400.806a1.516,1.516,0,1,1-1.516-1.516A1.516,1.516,0,0,1,442,400.806Z" transform="translate(-218.801 -214.903)" fill="none" stroke="#263238" stroke-miterlimit="10" stroke-width="1"/><path d="M343.243,419.466a1.516,1.516,0,1,1-.446-1.074,1.521,1.521,0,0,1,.446,1.074Z" transform="translate(-175.279 -223.125)" fill="none" stroke="#263238" stroke-miterlimit="10" stroke-width="1"/><circle cx="4.855" cy="4.855" r="4.855" transform="translate(1.816 69.942) rotate(-65.99)" fill="none" stroke="#263238" stroke-miterlimit="10" stroke-width="1"/><circle cx="4.855" cy="4.855" r="4.855" transform="translate(225.371 100.595)" fill="none" stroke="#263238" stroke-miterlimit="10" stroke-width="1"/><circle cx="4.855" cy="4.855" r="4.855" transform="matrix(0.229, -0.973, 0.973, 0.229, 69.227, 9.886)" fill="none" stroke="#263238" stroke-miterlimit="10" stroke-width="1"/></g><g transform="translate(44.29 77.081)"><path d="M127.755,128.49c-30.032,0-54.465,23.924-54.465,53.324v29.909h15.5V181.814c0-21.021,17.469-38.126,38.943-38.126s38.937,17.105,38.937,38.126v29.909H182.2V181.814C182.2,152.414,157.781,128.49,127.755,128.49Z" transform="translate(-67.534 -128.49)" fill="none" stroke="#263238" stroke-miterlimit="10" stroke-width="1"/><path d="M181.909,358.688v-81.4H105.836m-5.157,0H63v98.369H181.92V364.578m-53.894-35.284L130.2,351.64H113.544l2.176-22.346a12.625,12.625,0,0,1-6.8-11.154,12.948,12.948,0,1,1,25.9,0,12.63,12.63,0,0,1-6.8,11.154Z" transform="translate(-63 -194.057)" fill="none" stroke="#263238" stroke-miterlimit="10" stroke-width="1"/><path d="M164.187,351.273l2.176,22.346H149.716l2.176-22.346a12.625,12.625,0,0,1-6.8-11.154,12.948,12.948,0,1,1,25.9,0A12.63,12.63,0,0,1,164.187,351.273Z" transform="translate(-99.172 -216.037)" fill="none" stroke="#263238" stroke-miterlimit="10" stroke-width="1"/><path d="M164.187,351.273l2.176,22.346H149.716l2.176-22.346a12.625,12.625,0,0,1-6.8-11.154,12.948,12.948,0,1,1,25.9,0A12.63,12.63,0,0,1,164.187,351.273Z" transform="translate(-99.172 -216.037)" fill="none" stroke="#263238" stroke-miterlimit="10" stroke-width="1"/></g><g transform="translate(175.542 11.821)"><path d="M397.152,34.805c-2.377-.447-5.482,2.607-6.517,4.508-.09.162-1.191,2.886-1.147,2.892s4.24.313,6.013-.352c1.51-.559,3.272-1.712,3.759-3.356a2.864,2.864,0,0,0-2.109-3.692Z" transform="translate(-338.115 -21.929)" fill="#263238"/><path d="M318.054,64.658c.157,1.365.336,2.718.559,4.044.117.559.2,1.152.341,1.678s.263,1.085.4,1.622c.308,1.119.587,2.12.9,3.138.157.509.313,1,.47,1.493-.386-.789-1.018-2.03-1.091-2.137-1.186-1.8-4.548-4.587-6.875-3.916a2.858,2.858,0,0,0-1.784,3.865c.621,1.589,2.478,2.579,4.027,3.015,1.717.481,5.471-.078,5.929-.151.268.828.531,1.639.8,2.422h1.5c-.3-.817-.6-1.678-.906-2.528a21.223,21.223,0,0,0,4.978-2.853,29.686,29.686,0,0,0,3.222,1.723c-.347,1.231-.671,2.433-.957,3.558a.645.645,0,0,0,0,.1h1.471c.218-.957.464-1.952.727-2.981.464.09,4.2.755,5.918.33,1.566-.392,3.451-1.326,4.122-2.9a2.858,2.858,0,0,0-1.678-3.916c-2.31-.722-5.75,1.958-7,3.725-.078.112-.867,1.555-1.253,2.3.173-.671.341-1.337.559-2.03.268-1,.559-2.053.884-3.071.179-.52.352-1.046.559-1.583s.4-1.035.593-1.566c.308-.766.666-1.544,1.018-2.316,1,.336,3.966,1.27,5.521,1.119s3.608-.783,4.508-2.237a2.864,2.864,0,0,0-1.052-4.128c-2.176-1.057-5.985,1.074-7.479,2.629-.05.05-.33.414-.66.845.364-.744.733-1.493,1.119-2.237,1.119-2.109,2.344-4.223,3.558-6.349.252-.442.492-.889.744-1.331.845.285,4.044,1.326,5.672,1.175s3.613-.783,4.514-2.237a2.858,2.858,0,0,0-1.079-4.134c-2.17-1.063-5.98,1.068-7.479,2.623-.05.056-.386.487-.761.979.643-1.163,1.27-2.333,1.852-3.513a49.983,49.983,0,0,0,2.6-6.209c.3.1,4.022,1.4,5.834,1.231,1.605-.151,3.613-.789,4.514-2.237a2.864,2.864,0,0,0-1.057-4.128c-2.17-1.057-5.98,1.068-7.473,2.629-.106.106-1.314,1.678-1.723,2.237a.383.383,0,0,1,.028-.073,37.478,37.478,0,0,0,1.438-6.477,50.746,50.746,0,0,0,.453-5.918c.05-1.835,0-3.518-.084-5.006-.045-.805-.1-1.538-.157-2.237l.039.034c.039,0,1-2.752,1.035-2.937.464-2.109.129-6.455-1.958-7.68a2.87,2.87,0,0,0-4,1.443c-.7,1.549-.123,3.574.643,4.989s3.474,3.574,4.145,4.089c.05.716.09,1.477.117,2.327.039,1.482.067,3.16,0,4.989,0,.487-.067,1.007-.1,1.516-.117-.867-.3-2.053-.33-2.17-.559-2.086-2.864-5.789-5.28-5.907a2.858,2.858,0,0,0-2.914,3.1c.084,1.678,1.533,3.233,2.87,4.139s4.838,1.589,5.594,1.723c-.09,1.119-.213,2.271-.414,3.462a37.11,37.11,0,0,1-1.555,6.366c-.045.123-.1.241-.145.358,0-.436-.073-2.853-.1-3.021-.324-2.131-2.237-6.069-4.592-6.455a2.864,2.864,0,0,0-3.244,2.763c-.1,1.678,1.169,3.356,2.4,4.43,1.415,1.208,5.359,2.321,5.5,2.366a50.037,50.037,0,0,1-2.674,5.963c-.75,1.432-1.566,2.853-2.4,4.268,0-.559-.078-2.8-.1-2.976-.324-2.137-2.209-6.069-4.6-6.455a2.864,2.864,0,0,0-3.239,2.763c-.1,1.678,1.169,3.356,2.394,4.43,1.382,1.175,5.157,2.237,5.476,2.355-.38.643-.755,1.287-1.119,1.924-1.259,2.1-2.523,4.19-3.709,6.3-.414.727-.789,1.46-1.175,2.193,0-.856-.078-2.411-.1-2.545-.324-2.137-2.237-6.069-4.6-6.455a2.864,2.864,0,0,0-3.239,2.763c-.1,1.678,1.169,3.356,2.394,4.425s4.385,2.036,5.28,2.3c-.626,1.225-1.219,2.456-1.751,3.692-.213.559-.47,1.074-.649,1.605s-.38,1.052-.559,1.572c-.347,1.085-.677,2.092-.979,3.116-.151.515-.285,1-.431,1.5.112-.873.268-2.237.268-2.383,0-2.159-1.264-6.332-3.563-7.076a2.864,2.864,0,0,0-3.625,2.237,3.356,3.356,0,0,0-.073.626,11.114,11.114,0,0,0-1.768,5.325c0,.134.129,1.773.218,2.612-.224-.66-.453-1.309-.671-1.991-.33-.984-.643-2.036-.956-3.054-.14-.559-.285-1.068-.425-1.611s-.241-1.085-.369-1.639c-.168-.805-.3-1.678-.431-2.495,1.024-.268,4.005-1.119,5.224-2.1s2.579-2.646,2.528-4.352a2.864,2.864,0,0,0-3.205-2.83c-2.4.313-4.4,4.19-4.788,6.315,0,.073-.05.526-.084,1.068-.106-.822-.213-1.645-.291-2.489-.224-2.383-.375-4.816-.559-7.272-.034-.509-.078-1.018-.112-1.521.861-.229,4.1-1.119,5.381-2.148s2.579-2.651,2.528-4.357a2.864,2.864,0,0,0-3.16-2.858c-2.394.313-4.4,4.19-4.788,6.315,0,.073-.05.621-.1,1.231-.106-1.32-.229-2.64-.392-3.916a51.315,51.315,0,0,0-1.247-6.645c.308-.078,4.128-1.052,5.543-2.193,1.259-1.007,2.579-2.646,2.534-4.352a2.864,2.864,0,0,0-3.138-2.909c-2.394.313-4.4,4.19-4.788,6.315-.028.151-.162,2.126-.185,2.836v-.078a36.914,36.914,0,0,0-2.377-6.2,49.846,49.846,0,0,0-2.886-5.18c-.968-1.561-1.947-2.931-2.83-4.134-.481-.649-.929-1.231-1.359-1.773h.05c.045,0-.688-2.842-.755-3.015-.772-2.019-3.457-5.459-5.868-5.325a2.858,2.858,0,0,0-2.573,3.4c.263,1.678,1.863,3.049,3.283,3.809s4.872,1.063,5.717,1.119c.436.559.889,1.18,1.382,1.874.85,1.219,1.8,2.6,2.73,4.173.252.42.5.884.75,1.326-.559-.66-1.382-1.549-1.471-1.628-1.617-1.432-5.594-3.25-7.663-2.019a2.869,2.869,0,0,0-.722,4.2c1.012,1.37,3.065,1.846,4.676,1.868s4.917-1.348,5.594-1.678c.559.99,1.074,2.019,1.566,3.121a36.769,36.769,0,0,1,2.209,6.153c.028.117.045.252.078.375-.229-.375-1.639-2.338-1.751-2.461-1.449-1.605-5.191-3.848-7.395-2.853a2.864,2.864,0,0,0-1.175,4.095c.85,1.477,2.836,2.176,4.441,2.372,1.84.224,5.75-1.018,5.9-1.068a50.444,50.444,0,0,1,1.057,6.455c.168,1.605.268,3.239.358,4.878-.313-.475-1.622-2.3-1.728-2.422-1.449-1.6-5.191-3.843-7.395-2.847a2.864,2.864,0,0,0-1.18,4.095c.856,1.477,2.842,2.17,4.441,2.366,1.8.224,5.549-.951,5.868-1.052.039.744.078,1.488.112,2.237.112,2.439.213,4.889.38,7.272.062.839.151,1.678.235,2.478-.487-.7-1.4-1.969-1.488-2.07-1.449-1.6-5.191-3.843-7.395-2.847a2.858,2.858,0,0,0-1.175,4.095c.856,1.477,2.836,2.17,4.441,2.366A19.262,19.262,0,0,0,318.054,64.658Z" transform="translate(-297.646 -11.821)" fill="#263238"/><path d="M322.969,36.755s3.709-2.075,4.822-3.608c.945-1.309,1.79-3.233,1.287-4.866a2.858,2.858,0,0,0-3.8-1.924c-2.237.934-3.132,5.2-2.948,7.356C322.348,33.9,322.93,36.777,322.969,36.755Z" transform="translate(-308.513 -18.14)" fill="#263238"/></g><g transform="translate(25.701 187.924)"><path d="M133.507,350.584c-2.478-.464-5.717,2.718-6.791,4.7-.1.168-1.242,3.009-1.2,3.015s4.419.33,6.265-.364c1.572-.593,3.412-1.784,3.916-3.49a2.987,2.987,0,0,0-2.193-3.86Z" transform="translate(-71.958 -337.177)" fill="#263238"/><path d="M51.057,381.7c.162,1.421.352,2.83.6,4.212.123.593.207,1.2.358,1.768s.274,1.119.408,1.678c.324,1.147.615,2.237.945,3.272.162.531.324,1.035.487,1.555-.4-.822-1.063-2.114-1.119-2.237-1.236-1.874-4.738-4.777-7.165-4.1a2.981,2.981,0,0,0-1.857,4.033c.649,1.678,2.579,2.685,4.2,3.144,1.784.5,5.694-.084,6.153-.157.28.861.559,1.706.828,2.517h1.566q-.47-1.264-.945-2.635a21.736,21.736,0,0,0,5.185-2.97,31.93,31.93,0,0,0,3.356,1.8c-.364,1.281-.7,2.534-1,3.708v.1h1.51c.229-1,.481-2.036.755-3.1.487.089,4.374.789,6.153.341,1.628-.408,3.6-1.376,4.29-3.015a2.981,2.981,0,0,0-1.734-4.083c-2.405-.75-5.991,2.042-7.272,3.882-.084.123-.906,1.622-1.309,2.4.179-.7.358-1.393.559-2.114.28-1.046.61-2.142.923-3.2l.559-1.65c.179-.559.414-1.085.621-1.633.324-.8.694-1.611,1.063-2.416,1.046.347,4.128,1.32,5.75,1.175s3.764-.822,4.7-2.333a2.976,2.976,0,0,0-1.119-4.3c-2.237-1.119-6.231,1.119-7.792,2.735-.05.056-.347.431-.688.884.386-.777.761-1.555,1.18-2.333,1.175-2.2,2.444-4.4,3.7-6.617.263-.459.52-.923.778-1.387.884.3,4.212,1.382,5.912,1.225s3.764-.817,4.7-2.327a2.981,2.981,0,0,0-1.119-4.3c-2.237-1.119-6.231,1.119-7.792,2.735-.056.056-.408.509-.794,1.018.671-1.214,1.32-2.428,1.93-3.658a53.4,53.4,0,0,0,2.735-6.489c.308.106,4.19,1.454,6.08,1.281,1.678-.157,3.759-.817,4.7-2.333a2.981,2.981,0,0,0-1.119-4.3c-2.265-1.119-6.237,1.119-7.792,2.735-.112.112-1.365,1.756-1.8,2.355a.325.325,0,0,0,.028-.078,38.527,38.527,0,0,0,1.5-6.746,52.678,52.678,0,0,0,.47-6.153c.056-1.913,0-3.669-.084-5.219-.045-.839-.1-1.605-.162-2.321l.039.034c.039,0,1.04-2.87,1.08-3.06.487-2.2.134-6.712-2.042-8a2.981,2.981,0,0,0-4.19,1.471c-.738,1.617-.129,3.72.666,5.2s3.625,3.72,4.324,4.262c.05.744.1,1.538.123,2.416.039,1.549.067,3.3,0,5.2,0,.509-.073,1.052-.106,1.583-.123-.906-.313-2.142-.347-2.237-.559-2.176-2.981-6.035-5.5-6.153a2.987,2.987,0,0,0-3.037,3.239c.089,1.773,1.594,3.356,2.987,4.307s5.034,1.678,5.834,1.8c-.1,1.169-.224,2.372-.431,3.613a38.931,38.931,0,0,1-1.622,6.634c-.045.123-.106.246-.151.369,0-.459-.078-2.97-.106-3.144-.341-2.237-2.3-6.326-4.788-6.712a2.981,2.981,0,0,0-3.356,2.881c-.106,1.773,1.219,3.524,2.5,4.615,1.471,1.259,5.594,2.416,5.739,2.461a52.1,52.1,0,0,1-2.8,6.214c-.778,1.493-1.633,2.976-2.5,4.475,0-.593-.078-2.931-.106-3.1-.336-2.237-2.3-6.321-4.788-6.712a2.981,2.981,0,0,0-3.356,2.881c-.106,1.773,1.219,3.518,2.5,4.609,1.438,1.231,5.37,2.36,5.705,2.456-.4.671-.789,1.342-1.186,2.008-1.309,2.187-2.629,4.369-3.865,6.561-.431.761-.822,1.527-1.219,2.288,0-.889-.084-2.517-.106-2.657-.336-2.237-2.3-6.321-4.788-6.712a2.987,2.987,0,0,0-3.356,2.881c-.1,1.773,1.219,3.524,2.5,4.615s4.57,2.12,5.5,2.394c-.649,1.275-1.27,2.556-1.824,3.848-.224.559-.487,1.119-.671,1.678l-.593,1.639c-.364,1.119-.7,2.181-1.018,3.244-.162.559-.3,1.046-.453,1.572.117-.912.28-2.349.28-2.484,0-2.237-1.314-6.6-3.714-7.372a2.976,2.976,0,0,0-3.77,2.333,3.272,3.272,0,0,0-.078.66,11.567,11.567,0,0,0-1.846,5.543c0,.145.14,1.852.229,2.724-.235-.682-.47-1.359-.7-2.075-.341-1.024-.671-2.12-1-3.177-.145-.559-.3-1.119-.447-1.678s-.252-1.119-.38-1.678c-.173-.845-.313-1.723-.447-2.6,1.063-.28,4.173-1.175,5.443-2.193s2.685-2.758,2.635-4.536a2.981,2.981,0,0,0-3.289-2.981c-2.5.33-4.581,4.369-4.989,6.584,0,.067-.05.559-.09,1.119-.106-.861-.218-1.723-.3-2.6-.229-2.484-.386-5.034-.559-7.563-.034-.531-.078-1.057-.112-1.589.895-.235,4.274-1.169,5.594-2.237s2.685-2.758,2.635-4.536a2.987,2.987,0,0,0-3.289-2.981c-2.5.33-4.587,4.369-4.989,6.584,0,.078-.062.643-.1,1.281-.112-1.376-.241-2.752-.414-4.111a51.725,51.725,0,0,0-1.3-6.925c.319-.078,4.3-1.119,5.778-2.282,1.314-1.052,2.691-2.758,2.635-4.536a2.981,2.981,0,0,0-3.283-2.981c-2.5.33-4.587,4.369-4.989,6.584-.034.157-.173,2.237-.2,2.953v-.078a38.723,38.723,0,0,0-2.472-6.461,52.909,52.909,0,0,0-3.037-5.532c-1.007-1.628-2.03-3.054-2.948-4.307-.5-.677-.973-1.281-1.415-1.846h.045c.05,0-.716-2.965-.789-3.144-.805-2.1-3.6-5.689-6.114-5.549a2.987,2.987,0,0,0-2.685,3.535c.28,1.756,1.947,3.183,3.429,3.971s5.073,1.119,5.957,1.169c.453.593.923,1.236,1.438,1.952.884,1.27,1.874,2.713,2.842,4.357.263.436.52.912.783,1.376-.6-.688-1.443-1.617-1.533-1.678-1.678-1.493-5.817-3.39-7.988-2.1A2.981,2.981,0,0,0,34,346.3c1.057,1.432,3.194,1.924,4.872,1.947s5.124-1.4,5.856-1.723c.559,1.029,1.119,2.1,1.633,3.25a38.849,38.849,0,0,1,2.3,6.427,1.943,1.943,0,0,0,.078.392c-.241-.386-1.706-2.433-1.824-2.562-1.51-1.678-5.409-4.005-7.708-2.97a2.987,2.987,0,0,0-1.225,4.268c.895,1.538,2.959,2.237,4.631,2.467,1.919.235,5.991-1.063,6.153-1.119a52.2,52.2,0,0,1,1.119,6.712c.173,1.678.28,3.356.375,5.085-.324-.5-1.678-2.4-1.8-2.528-1.51-1.678-5.409-4.005-7.708-2.965a2.976,2.976,0,0,0-1.225,4.262c.889,1.538,2.959,2.237,4.626,2.472,1.879.229,5.784-1,6.114-1.119.039.777.084,1.555.117,2.333.117,2.539.218,5.09.4,7.6.062.867.157,1.723.246,2.579-.509-.733-1.454-2.053-1.549-2.154-1.51-1.678-5.409-4.005-7.708-2.97a2.976,2.976,0,0,0-1.247,4.285c.889,1.544,2.959,2.265,4.626,2.472S50.134,381.982,51.057,381.7Z" transform="translate(-29.766 -326.651)" fill="#263238"/><path d="M56.206,352.615s3.865-2.159,5.034-3.759c.99-1.359,1.868-3.356,1.348-5.068a2.981,2.981,0,0,0-3.96-2.008c-2.327.979-3.267,5.42-3.076,7.663C55.557,349.645,56.167,352.638,56.206,352.615Z" transform="translate(-41.117 -333.229)" fill="#263238"/></g><g transform="translate(129.268 55.959)"><path d="M219.87,95.06H352.231V251.8a5.247,5.247,0,0,1-5.247,5.247H225.122a5.247,5.247,0,0,1-5.247-5.247V95.06Z" transform="translate(-217.101 -92.638)" fill="#263238" stroke="#263238" stroke-linecap="round" stroke-linejoin="round" stroke-width="1"/><path d="M214.92,90.73H347.281V247.474a5.247,5.247,0,0,1-5.247,5.247H220.172a5.247,5.247,0,0,1-5.247-5.247V90.73Z" transform="translate(-214.92 -90.73)" fill="#fff" stroke="#263238" stroke-miterlimit="10" stroke-width="1"/><path d="M442.34,90.73V252.72h.28a4.872,4.872,0,0,0,4.872-4.872V90.73Z" transform="translate(-315.131 -90.73)" fill="#fff" stroke="#263238" stroke-miterlimit="10" stroke-width="1"/><rect width="5.152" height="33.455" transform="translate(127.209 43.127)" fill="#fff" stroke="#263238" stroke-miterlimit="10" stroke-width="1"/><rect width="132.361" height="11.456" fill="#263238" stroke="#263238" stroke-miterlimit="10" stroke-width="1"/><path d="M423.039,99.88a1.645,1.645,0,1,0-1.645,1.639,1.645,1.645,0,0,0,1.645-1.639Z" transform="translate(-305.176 -94.035)" fill="#fff" stroke="#263238" stroke-miterlimit="10" stroke-width="1"/><circle cx="1.639" cy="1.639" r="1.639" transform="translate(119.736 4.206)" fill="#fff" stroke="#263238" stroke-miterlimit="10" stroke-width="1"/><circle cx="1.639" cy="1.639" r="1.639" transform="translate(124.894 4.206)" fill="#fff" stroke="#263238" stroke-miterlimit="10" stroke-width="1"/><path d="M293.706,231.922c-12.11-7.272-21.653-16.076-28.354-26.156-5.135-7.725-6.712-13.458-6.986-14.543l-.336-1.354V138.381l41.549-17.771,41.549,17.771v51.506l-.341,1.354c-.263,1.068-1.846,6.8-6.986,14.543-6.712,10.068-16.221,18.878-28.348,26.156l-5.873,3.524Z" transform="translate(-233.916 -103.896)" fill="#cfcfcf" stroke="#fff" stroke-linecap="round" stroke-linejoin="round" stroke-width="1"/><path d="M301.137,231.919c-27.325-16.406-32.532-36.325-32.739-37.164l-.168-.677V147.036l35.844-15.326,35.844,15.326v47.042l-.168.677c-.207.839-5.42,20.758-32.739,37.164l-2.937,1.756Z" transform="translate(-238.411 -108.787)" fill="#fff"/><path d="M308.564,143.14,278.42,155.58v42.858s4.536,18.269,30.144,33.645c25.607-15.394,30.138-33.645,30.138-33.645V155.58Z" transform="translate(-242.901 -113.824)" fill="#f8951d"/><circle cx="21.34" cy="21.34" r="21.34" transform="translate(35.177 65.842) rotate(-45)" fill="#fff"/><circle cx="8.206" cy="8.206" r="8.206" transform="translate(55.414 64.242) rotate(-75.97)" fill="#263238"/><path d="M320.18,231.672a21.256,21.256,0,0,0,14.706-5.879,14.806,14.806,0,0,0-29.405,0A21.255,21.255,0,0,0,320.18,231.672Z" transform="translate(-254.824 -144.49)" fill="#263238"/><path d="M338.183,231.922c12.11-7.272,21.647-16.076,28.348-26.156,5.141-7.725,6.712-13.458,6.986-14.543l.341-1.354V138.381L332.31,120.61V235.446Z" transform="translate(-266.647 -103.896)" opacity="0.19"/></g><g transform="translate(102.524 99.705)"><path d="M190.234,348.1s-.694,10.41.805,15.612,10.991,29.959,10.991,29.959.229,4.391-.117,4.855-1.969,3.009-4.162,4.05-6.824,3.7-5.784,4.044,10.292-.694,11.333-.229,5.666-1.387,6.824-1.851,0-3.356,0-3.356a145.563,145.563,0,0,1-3.468-14.577c-1.04-6.36-2.663-15.147-3.586-19.544a36.432,36.432,0,0,0-2.663-7.831l1.158-10.868Z" transform="translate(-177.227 -247.883)" fill="#fff" stroke="#263238" stroke-miterlimit="10" stroke-width="1"/><path d="M200.624,445.041l-1.186-1.678c-.106.062-.207.117-.313.168-2.2,1.04-6.824,3.7-5.784,4.044s10.292-.694,11.333-.229,5.666-1.387,6.824-1.851,0-3.356,0-3.356-.117-.392-.308-1.068a20.942,20.942,0,0,0-4.436,2.685C204.327,445.853,200.624,445.041,200.624,445.041Z" transform="translate(-178.601 -288.85)" fill="#263238" stroke="#263238" stroke-miterlimit="10" stroke-width="1"/><path d="M196.09,349.1s.923,10.628,2.31,14.342,1.387,28.913,1.387,30.994-3.356,5.437-3.356,5.437-5.784,4.279-7.4,4.743-2.892,1.04-2.086,1.734,8.793.694,11.568.694,6.36.112,6.712-.464a9.342,9.342,0,0,0,.559-2.316,74.611,74.611,0,0,1-.464-9.364c.229-2.892,4.4-20.473,4.05-26.368a55.5,55.5,0,0,0-2.086-11.568c-.112-.464.811-8.441.811-8.441Z" transform="translate(-175.739 -248.069)" fill="#fff" stroke="#263238" stroke-miterlimit="10" stroke-width="1"/><path d="M205.81,446.628s-.034-.274-.078-.738c-5.2.4-11.954.738-11.954.738L193,444.67a21.629,21.629,0,0,1-3.955,2.31c-1.622.459-2.892,1.04-2.086,1.734s8.793.694,11.568.694,6.36.112,6.712-.464a9.341,9.341,0,0,0,.576-2.316Z" transform="translate(-175.743 -290.436)" fill="#263238" stroke="#263238" stroke-miterlimit="10" stroke-width="1"/><path d="M182.616,295.3s-.811,8.34-.464,12.043,1.314,22.083,1.314,22.083,6.561,4.039,12.468,4.385,14.829-2.8,14.829-2.8,1.969-21.815.811-27.627-1.74-8.569-1.74-8.569-15.662-.811-19.689-1.851a24.2,24.2,0,0,1-5.034-1.633l-1.331-.157Z" transform="translate(-173.698 -222.802)" fill="#263238" stroke="#263238" stroke-linecap="round" stroke-linejoin="round" stroke-width="1"/><path d="M187.4,262.387a28.666,28.666,0,0,0,14.94,1.734l-.559-16.909,3.943-25.6-6.371-.229-7.182,2.551-4.285,32.443Z" transform="translate(-176.049 -192.045)" fill="#fff" stroke="#263238" stroke-linecap="round" stroke-linejoin="round" stroke-width="1"/><path d="M196.62,213.66s-1.549,7.009-1.275,7.915,3.093,5.733,5.006,5.37,6.008-7.009,6.556-8.279-.559-3.462-.638-3.915-1.186-5.191-1.186-5.191S200.731,213.3,196.62,213.66Z" transform="translate(-179.535 -186.837)" fill="#fff" stroke="#263238" stroke-linecap="round" stroke-linejoin="round" stroke-width="1"/><path d="M184.8,224.47s-1.678,13.676-1.773,19.018-3.132,29.752-3.132,29.752-.414.727-3.132-.106a8.318,8.318,0,0,1-4.067-2.713s4.693-17.536,4.8-18.369-.833-8.978-.833-8.978l-9.4,8.139s.213-4.385,1.046-5.325,7.1-12.63,7.618-13.777-.106-4.592,1.773-5.638S184.8,224.47,184.8,224.47Z" transform="translate(-167.174 -193.407)" fill="#f8951d" stroke="#263238" stroke-linecap="round" stroke-linejoin="round" stroke-width="1"/><path d="M182.32,292.06l3.971,1.32-.145,1.029-3.535-.878" transform="translate(-173.81 -223.19)" fill="none" stroke="#263238" stroke-linecap="round" stroke-linejoin="round" stroke-width="1"/><path d="M193.345,253.445s-1.678-16.182-1.46-19.835" transform="translate(-178.016 -197.435)" fill="#fff" stroke="#263238" stroke-linecap="round" stroke-linejoin="round" stroke-width="1"/><path d="M211.259,222.38S205.52,242,205.52,246.488s1.119,26.447,1.119,26.447,5.2,1.555,9.269,1.029a45.217,45.217,0,0,0,9.509-2.836l-5.532-16.5s8.838-21.1,8.838-22.559,1.147-4.173,0-4.906-11.064-4.072-12.423-4.7S212.932,220.9,211.259,222.38Z" transform="translate(-184.033 -192.139)" fill="#f8951d" stroke="#263238" stroke-linecap="round" stroke-linejoin="round" stroke-width="1"/><path d="M223.692,295.47l-9.582,1.3.61,1.354,5.443-.587" transform="translate(-187.818 -224.693)" fill="none" stroke="#263238" stroke-linecap="round" stroke-linejoin="round" stroke-width="1"/><path d="M216.706,222.658c-.19-.078-.352-.14-.453-.19-1.359-.626-3.356-1.566-5.034-.1,0,0-5.739,19.622-5.739,24.108,0,.75.062,1.98.168,3.507.47-1.572,1.533-4.027,3.485-9.039C211.694,234.432,215.4,225.734,216.706,222.658Z" transform="translate(-184.016 -192.137)" fill="#f8951d" stroke="#263238" stroke-linecap="round" stroke-linejoin="round" stroke-width="1"/><path d="M184.1,175.493s-5.711,3.8-6.058,6.572a48.649,48.649,0,0,0-.09,7.1c0,2.685-1.471,11.075-.084,14.191s3.356,5.884,6.153,6.662,4.5.09,5.191-.6a7.154,7.154,0,0,0,1.214-1.991s-1.471.173-1.471-1.555,1.645-7.009,1.645-7.009-3.72-1.907-4.413-3.725-2.769-11.422-2.6-12.2,3.289-2.512,3.356-4.671S185.657,174.8,184.1,175.493Z" transform="translate(-171.588 -171.743)" fill="#263238" stroke="#263238" stroke-linecap="round" stroke-linejoin="round" stroke-width="1"/><path d="M187.668,181.475s-1.471,3.205-1.04,5.8,1.3,7.093,1.734,8.911,2.679,3.809,3.8,4.85,3.116,2.506,4.587,2.159,3.636-3.916,3.636-3.916a11.534,11.534,0,0,0,2.165-3.72c.436-1.728-1.04-4.76-1.991-7.96a9.828,9.828,0,0,0-7.182-7.009C189.486,179.657,188.272,180.871,187.668,181.475Z" transform="translate(-175.674 -173.922)" fill="#fff" stroke="#263238" stroke-linecap="round" stroke-linejoin="round" stroke-width="1"/><path d="M194.43,198.84s1.208,1.991,1.119,2.6-.694,3.205-.347,3.356a4.646,4.646,0,0,0,1.555-.089" transform="translate(-179.147 -182.113)" fill="none" stroke="#263238" stroke-linecap="round" stroke-linejoin="round" stroke-width="1"/><path d="M198.6,211.178a4.077,4.077,0,0,0,3.356-1.818" transform="translate(-180.984 -186.749)" fill="none" stroke="#263238" stroke-linecap="round" stroke-linejoin="round" stroke-width="1"/><path d="M191.639,198.569a1.741,1.741,0,0,0-2.159.6" transform="translate(-176.965 -181.927)" fill="none" stroke="#263238" stroke-linecap="round" stroke-linejoin="round" stroke-width="1"/><path d="M197.68,197.457s.257-1.214,2.422-.61" transform="translate(-180.579 -181.161)" fill="none" stroke="#263238" stroke-linecap="round" stroke-linejoin="round" stroke-width="1"/><path d="M201.165,200.475c.157.453.062.895-.213.99s-.615-.2-.772-.649-.062-.895.213-.99S200.986,200.033,201.165,200.475Z" transform="translate(-181.647 -182.54)" fill="#263238"/><path d="M192.819,202.025c.157.453.062.895-.207.99s-.615-.2-.772-.649-.062-.895.207-.99S192.668,201.577,192.819,202.025Z" transform="translate(-177.972 -183.223)" fill="#263238"/><path d="M186.85,175.97s3.457,5.034,6.919,7.272,6.835,2.8,6.925,4.844-1.561,6.751-.257,10.124,3.72,4.587,7.093,3.916a7.676,7.676,0,0,0,4.934-3.809s-1.9,1.3-2.512-.173-1.991-3.636-.257-7.182,2.769-5.191-.431-11.075-7.014-9.28-10.024-10.577S186.76,170.091,186.85,175.97Z" transform="translate(-175.806 -168.937)" fill="#263238" stroke="#263238" stroke-linecap="round" stroke-linejoin="round" stroke-width="1"/><path d="M183.051,264.754l-.4-4.044-1.538,1.538Z" transform="translate(-173.277 -209.376)" fill="#fff" stroke="#263238" stroke-linecap="round" stroke-linejoin="round" stroke-width="1"/><path d="M176.72,245.5l1.678,2.237-1.3,2.008s-.179.241.71,1.678a17.4,17.4,0,0,0,2.131,2.663s2.83-5.957,3.043-7.031-4.732-7.372-4.732-7.372S176.547,242.952,176.72,245.5Z" transform="translate(-171.337 -200.109)" fill="#fff" stroke="#263238" stroke-linecap="round" stroke-linejoin="round" stroke-width="1"/><path d="M168.25,229.558l8.368,9.94,5.549.358L174.23,229.34Z" transform="translate(-167.611 -195.553)" fill="#fff" stroke="#263238" stroke-linecap="round" stroke-linejoin="round" stroke-width="1"/><path d="M175.26,239.83s-1.046.643-.8,1.208a5.679,5.679,0,0,0,3.295,2.008c1.287.162.654-.621.649-1.035S175.26,239.83,175.26,239.83Z" transform="translate(-170.331 -200.175)" fill="#fff" stroke="#263238" stroke-linecap="round" stroke-linejoin="round" stroke-width="1"/><path d="M174.733,243.14s-.805.884-.559,1.527,3.3,1.527,3.86,1.611a.643.643,0,0,0,.4-1.208C177.624,244.5,174.733,243.14,174.733,243.14Z" transform="translate(-170.2 -201.634)" fill="#fff" stroke="#263238" stroke-linecap="round" stroke-linejoin="round" stroke-width="1"/><path d="M175.31,247.31s-.241,1.119.319,1.527,3.172.1,3.6-.067-.7-.654-.7-.654Z" transform="translate(-170.699 -203.471)" fill="#fff" stroke="#263238" stroke-linecap="round" stroke-linejoin="round" stroke-width="1"/><path d="M192.33,248.488l-3.1-2.914s-1-3.356-1.454-4.369a5.933,5.933,0,0,0-1.913-2.277c-1.1-1-1.818-.559-2,.1l-.179.638s-5.28-.274-6.1-.638-1.728-1.186-2.187-.638.185,1.275.912,1.728a10.068,10.068,0,0,0,2.456,1.18c.727.185,1.639.364,1.639.364l-3.82-.559a.867.867,0,0,0,.274.912l1.18,1.18a6.713,6.713,0,0,0,1.186,1.549,6.321,6.321,0,0,0,1.622,1.018c.766.364,1.471.621,1.471.621a12.614,12.614,0,0,1-2.092-.185c-.912-.185-1.734-.638-1.639,0s.727.912,1.728,1.091,5.28.727,5.644.822,5.1,4.475,5.1,4.475Z" transform="translate(-170.693 -199.458)" fill="#fff" stroke="#263238" stroke-linecap="round" stroke-linejoin="round" stroke-width="1"/><path d="M190.33,240.81a9.508,9.508,0,0,1,2.456,1.091" transform="translate(-177.34 -200.607)" fill="#fff" stroke="#263238" stroke-linecap="round" stroke-linejoin="round" stroke-width="1"/><line x2="2.366" y2="0.548" transform="translate(9.712 42.2)" fill="none" stroke="#263238" stroke-linecap="round" stroke-linejoin="round" stroke-width="1"/><path d="M180.24,247.15s3,1,4.553,1.365" transform="translate(-172.894 -203.401)" fill="none" stroke="#263238" stroke-linecap="round" stroke-linejoin="round" stroke-width="1"/><path d="M226.619,233.76a100.069,100.069,0,0,1-2.948,14.8c-2.081,7.182-3.16,13.648-3.591,14.152s-5.1-1.3-8.9-3.6-11.495-7.831-11.495-7.831l3.233-6.181,11.422,6.824s.358-.789.861-.934a3.759,3.759,0,0,0,.861-.358l1.08-13.794" transform="translate(-181.46 -197.501)" fill="#f8951d" stroke="#263238" stroke-linecap="round" stroke-linejoin="round" stroke-width="1"/><path d="M172.848,257.69l4.033,5.733s-1.214,3.72-2.428,5.174-5.174,2.1-6.466.559a4.815,4.815,0,0,1-.241-5.174C168.479,262.691,172.848,257.69,172.848,257.69Z" transform="translate(-167.107 -208.045)" fill="#f8951d" stroke="#263238" stroke-linecap="round" stroke-linejoin="round" stroke-width="1"/></g><g transform="translate(20.54 258.682)"><line x2="250" fill="none" stroke="#263238" stroke-miterlimit="10" stroke-width="1"/></g></g></svg>