<svg xmlns="http://www.w3.org/2000/svg" xmlns:xlink="http://www.w3.org/1999/xlink" width="250" height="216.779" viewBox="0 0 250 216.779"><defs><clipPath id="a"><path d="M169.28,227.851l1.534,3.346s9.432-4.384,11.476-6.963c.522-.645,1.244-1.721,2.024-2.927,1.289-1.992,2.734-4.39,3.739-6.073.748-1.257,1.251-2.115,1.251-2.115l-5.338-8.42c-1.167.9-4.739,15.286-5.377,16.059S169.28,227.851,169.28,227.851Z" transform="translate(-169.28 -204.7)" fill="#f8951d"/></clipPath><clipPath id="b"><path d="M216.7,230.875s3.752-22.854-2.695-33.1c0,0-12.894-.8-21.92,4.429,0,0,3.739,10.173,4.3,28.67Z" transform="translate(-192.09 -197.732)" fill="#f8951d"/></clipPath></defs><g transform="translate(-56.11 -91.31)"><g transform="translate(56.11 293.493)"><ellipse cx="125" cy="7.298" rx="125" ry="7.298" fill="#f5f5f5"/></g><g transform="translate(75.851 91.31)"><rect width="122.505" height="133.297" rx="3.65" transform="translate(106.62 40.261)" fill="#f8951d" opacity="0.5"/><rect width="122.505" height="133.297" rx="3.65" transform="translate(102.752 37.682)" fill="#f8951d"/><rect width="122.505" height="133.297" rx="3.65" transform="translate(102.752 37.682)" fill="#fff" opacity="0.8"/><rect width="64.482" height="113.956" rx="3.65" transform="translate(3.868 37.109)" fill="#f8951d" opacity="0.5"/><rect width="64.482" height="113.956" rx="3.65" transform="translate(0 33.24)" fill="#f8951d"/><rect width="64.482" height="113.956" rx="3.65" transform="translate(0 33.24)" fill="#fff" opacity="0.8"/><rect width="225.772" height="14.996" rx="3.85" transform="translate(0)" fill="#f8951d"/><path d="M398.2,101.327a2.908,2.908,0,1,1-.84-2.064A2.895,2.895,0,0,1,398.2,101.327Z" transform="translate(-195.34 -93.829)" fill="#fff" opacity="0.6"/><path d="M412.239,101.327a2.907,2.907,0,1,1-.84-2.064A2.895,2.895,0,0,1,412.239,101.327Z" transform="translate(-200.328 -93.829)" fill="#fff" opacity="0.6"/><path d="M426.269,101.327a2.895,2.895,0,1,1-2.875-2.927,2.895,2.895,0,0,1,2.875,2.927Z" transform="translate(-205.313 -93.829)" fill="#fff" opacity="0.6"/><rect width="7.44" height="7.524" transform="translate(5.261 3.733)" fill="#fff" opacity="0.6"/></g><g transform="translate(56.568 142.712)"><rect width="69.524" height="13.3" transform="translate(10.218 0)" fill="#f8951d"/><rect width="69.524" height="13.3" transform="translate(10.218 0)" opacity="0.2"/><rect width="5.551" height="5.551" transform="translate(14.673 3.875)" fill="#fff"/><path d="M81.46,180.63l1.038,1.328,2.089-2.688" transform="translate(-65.575 -173.964)" fill="none" stroke="#f8951d" stroke-linecap="round" stroke-linejoin="round" stroke-width="1.5"/><path d="M171.753,182.569H166.17v-3.778h5.583ZM168.962,176a2.373,2.373,0,0,0-2.372,2.366h.645a1.728,1.728,0,0,1,3.449,0h.645A2.372,2.372,0,0,0,168.962,176Z" transform="translate(-95.673 -172.802)" fill="#f8951d"/><rect width="69.524" height="13.3" transform="translate(0 24.589)" fill="#f8951d"/><rect width="69.524" height="13.3" transform="translate(0 24.589)" fill="#fff" opacity="0.4"/><rect width="5.551" height="5.551" transform="translate(4.455 28.457)" fill="#fff"/><rect width="5.583" height="3.771" transform="translate(60.279 30.578)" fill="#fff"/><path d="M155.712,216.526h-.645a1.721,1.721,0,1,0-3.443,0h-.645a2.366,2.366,0,0,1,4.732,0Z" transform="translate(-90.275 -186.361)" fill="#fff"/><rect width="69.524" height="13.3" transform="translate(10.579 50.325)" fill="#f8951d"/><rect width="69.524" height="13.3" transform="translate(10.579 50.325)" fill="#fff" opacity="0.4"/><rect width="5.551" height="5.551" transform="translate(15.034 54.2)" fill="#fff"/><path d="M82.02,258.684l1.038,1.335,2.089-2.688" transform="translate(-65.774 -201.699)" fill="none" stroke="#f8951d" stroke-linecap="round" stroke-linejoin="round" stroke-width="1.5"/><g transform="translate(70.858 53.412)" opacity="0.6"><rect width="5.583" height="3.771" transform="translate(0 2.902)" fill="#fff"/><path d="M172.117,256.384h-.645a1.728,1.728,0,1,0-3.449,0h-.645a2.372,2.372,0,1,1,4.739,0Z" transform="translate(-166.959 -253.888)" fill="#fff"/></g></g><g transform="translate(203.771 178.544)"><rect width="54.29" height="35.31" transform="translate(26.961)" fill="#f8951d"/><rect width="54.29" height="35.31" transform="translate(26.961)" fill="#fff" opacity="0.5"/><rect width="50.318" height="26.922" transform="translate(28.947 6.615)" fill="#f8951d"/><rect width="37.218" height="1.16" transform="translate(33.047 10.637)" fill="#fff"/><rect width="17.858" height="1.16" transform="translate(33.047 14.19)" fill="#fff"/><rect width="22.493" height="1.16" transform="translate(33.047 17.736)" fill="#fff"/><rect width="7.93" height="1.16" transform="translate(33.047 21.281)" fill="#fff"/><rect width="5.132" height="1.16" transform="translate(33.047 24.827)" fill="#fff"/><path d="M397.2,331.7v19.689a2.218,2.218,0,0,1-1.9,2.2,1.934,1.934,0,0,1-.335,0H369.674a2.224,2.224,0,0,1-2.224-2.224V331.7a2.16,2.16,0,0,1,.226-.973,2.224,2.224,0,0,1,2-1.257h9.915a2.282,2.282,0,0,0,1.289-.425,2.257,2.257,0,0,0,.812-1.109,2.231,2.231,0,0,1,2.121-1.541h5.267a2.224,2.224,0,0,1,2.121,1.541,2.231,2.231,0,0,0,2.121,1.534h1.618A2.231,2.231,0,0,1,397.2,331.7Z" transform="translate(-314.392 -262.069)" fill="#f8951d"/><path d="M395.3,335.012v20.959H369.674a2.224,2.224,0,0,1-2.224-2.224V334.083a2.16,2.16,0,0,1,.226-.974H393.4a1.934,1.934,0,0,1,1.9,1.9Z" transform="translate(-314.392 -264.456)" fill="#fff" opacity="0.3"/><path d="M307.6,289.67v24.621l-4.809,4.809H285.15V289.67Z" transform="translate(-285.15 -249.022)" fill="#f8951d"/><path d="M307.6,289.67v24.621l-4.809,4.809H285.15V289.67Z" transform="translate(-285.15 -249.022)" fill="#fff" opacity="0.4"/><path d="M317.319,327.86H312.51v4.809Z" transform="translate(-294.871 -262.591)" fill="#f8951d"/><rect width="16.93" height="0.922" transform="translate(2.798 45.644)" fill="#f8951d"/><rect width="14.241" height="0.922" transform="translate(2.798 48.475)" fill="#f8951d"/><rect width="16.93" height="0.922" transform="translate(2.798 51.298)" fill="#f8951d"/><rect width="6.318" height="0.922" transform="translate(2.798 54.129)" fill="#f8951d"/><rect width="4.094" height="0.922" transform="translate(2.798 56.959)" fill="#f8951d"/></g><g transform="translate(191.554 121.398)"><rect width="45.896" height="37.921" transform="translate(3.9 3.817)" fill="#f8951d"/><path d="M272.25,143.9v37.921h45.9V143.9Zm44.4,36.425h-42.9V145.4h42.9Z" transform="translate(-268.35 -140.083)" fill="#fff" opacity="0.6"/><path d="M274.58,179.074l13.152-9.554,9.774,9.554,9.774-5.583,10.2,6.279v9.658h-42.9Z" transform="translate(-269.177 -149.186)" fill="#fff" opacity="0.3"/><path d="M319.179,157.856a3.14,3.14,0,1,1-.917-2.224,3.14,3.14,0,0,1,.917,2.224Z" transform="translate(-282.793 -143.924)" fill="#fff" opacity="0.6"/><path d="M347.379,205.16v1.289H346.09" transform="translate(-294.585 -161.849)" fill="none" stroke="#263238" stroke-miterlimit="10" stroke-width="1"/><line x1="46.16" transform="translate(3.32 44.606)" fill="none" stroke="#263238" stroke-miterlimit="10" stroke-width="1" stroke-dasharray="4.181 3.136"/><path d="M269.069,206.449H267.78V205.16" transform="translate(-266.761 -161.849)" fill="none" stroke="#263238" stroke-miterlimit="10" stroke-width="1"/><line y1="38.205" transform="translate(1.019 3.243)" fill="none" stroke="#263238" stroke-miterlimit="10" stroke-width="1" stroke-dasharray="3.855 2.891"/><path d="M267.78,140.849V139.56h1.289" transform="translate(-266.761 -138.541)" fill="none" stroke="#263238" stroke-miterlimit="10" stroke-width="1"/><line x2="46.16" transform="translate(4.332 1.019)" fill="none" stroke="#263238" stroke-miterlimit="10" stroke-width="1" stroke-dasharray="4.181 3.136"/><path d="M346.09,139.56h1.289v1.289" transform="translate(-294.585 -138.541)" fill="none" stroke="#263238" stroke-miterlimit="10" stroke-width="1"/><line y2="38.211" transform="translate(52.794 4.171)" fill="none" stroke="#263238" stroke-miterlimit="10" stroke-width="1" stroke-dasharray="3.855 2.891"/><rect width="2.031" height="2.031" transform="translate(51.775 0)" fill="#263238"/><rect width="2.031" height="2.031" transform="translate(51.775 43.588)" fill="#263238"/><rect width="2.031" height="2.031" transform="translate(0 43.588)" fill="#263238"/><rect width="2.031" height="2.031" transform="translate(0 0)" fill="#263238"/><rect width="2.031" height="2.031" transform="translate(25.833 0)" fill="#263238"/><rect width="2.031" height="2.031" transform="translate(25.891 43.588)" fill="#263238"/><rect width="2.031" height="2.031" transform="translate(51.775 21.797)" fill="#263238"/><rect width="2.031" height="2.031" transform="translate(0 21.797)" fill="#263238"/></g><g transform="translate(121.398 134.905)"><path d="M168.739,236.62l-6.86,5.57s-1.676.032-2.2.587-2.579,4.674-2.263,5.235,3.668,1.67,4.384,1.006,1.934-4.474,1.934-4.88l8.768-5.88Z" transform="translate(-157.379 -186.534)" fill="#ebb376"/><path d="M169.28,227.851l1.534,3.346s9.432-4.384,11.476-6.963c.522-.645,1.244-1.721,2.024-2.927,1.289-1.992,2.734-4.39,3.739-6.073.748-1.257,1.251-2.115,1.251-2.115l-5.338-8.42c-1.167.9-4.739,15.286-5.377,16.059S169.28,227.851,169.28,227.851Z" transform="translate(-161.607 -175.193)" fill="#f8951d"/><g transform="translate(7.673 29.507)" clip-path="url(#a)"><path d="M192.6,223.7c1.289-1.992,2.734-4.39,3.739-6.073l-2.482-6.125A73.026,73.026,0,0,0,192.6,223.7Z" transform="translate(-177.563 -207.116)" opacity="0.1"/></g><path d="M260.05,182.9l6.756-5.248s.548-1.586,1.238-1.934,5.228-1,5.673-.554.464,4.01-.387,4.513-4.855.49-5.235.342l-7.382,5.39Z" transform="translate(-193.858 -164.646)" fill="#ebb376"/><path d="M171.53,404.661l4.042.716,1.663-5.519,1.509-5.067-4.661-1.631-1.354,6.086Z" transform="translate(-162.407 -242.153)" fill="#ebb376"/><path d="M173.35,399.389l4.513.593,1.521-5.119-4.661-1.663Z" transform="translate(-163.054 -242.168)" opacity="0.2"/><path d="M213.43,404.868h4.113l.67-5.512.612-5.145-4.88-.741-.271,6.047Z" transform="translate(-177.294 -242.264)" fill="#ebb376"/><path d="M213.81,399.921l4.539-.2.612-5.306-4.88-.825Z" transform="translate(-177.429 -242.306)" opacity="0.2"/><path d="M172.76,341.917l6.653,1.173a447.477,447.477,0,0,0,14.828-42.273c1.818-6.254,3.256-11.811,4.345-16.762l-.284,18.213v41.074h6.711c16.433-78.008,4.79-96.143,4.79-96.143l-19.663-3.288a88.442,88.442,0,0,0-1.644,11.037l-.89,6.518-7.685,39.7Z" transform="translate(-162.844 -189.124)" fill="#263238"/><path d="M180.152,394.97l-8.252-2.74.11,3.514,6.827,2.173Z" transform="translate(-162.538 -241.823)" fill="#f8951d"/><path d="M180.152,394.97l-8.252-2.74.11,3.514,6.827,2.173Z" transform="translate(-162.538 -241.823)" fill="#fff" opacity="0.6"/><path d="M219.47,396.374l-8.6-1.264.716,3.443,7.1.954Z" transform="translate(-176.385 -242.846)" fill="#f8951d"/><path d="M219.47,396.374l-8.6-1.264.716,3.443,7.1.954Z" transform="translate(-176.385 -242.846)" fill="#fff" opacity="0.6"/><path d="M204.73,313.43c.309-1.044.645-2.063.928-3.062,1.65-5.68,2.746-10.779,4.036-15.363h0l.645-8.433s-4.21-9.264-2.637-15.782c-.142.367-2.927,7.472-1.831,14.57a206.587,206.587,0,0,1-1.141,28.07Z" transform="translate(-174.203 -198.675)" opacity="0.2"/><path d="M201.237,182.058a.924.924,0,0,0,.174.1,7.092,7.092,0,0,0,2.675.9c2.746.271,4.513-.329,5.544-1.689h0c1.431-2.024,1.425-5.28.69-9.116a14.667,14.667,0,0,0-1.431-4.4s0-.058,0-.071a.892.892,0,0,0-.09-.155,5.312,5.312,0,0,0-4.294-2.714,10.464,10.464,0,0,0-2.314.045C194.635,165.857,194.887,178.493,201.237,182.058Z" transform="translate(-171.277 -161.042)" fill="#ebb376"/><path d="M204.12,191.129a6.937,6.937,0,0,0,2.663.8c2.746.271,4.513-.419,5.531-1.8a7.575,7.575,0,0,1-4.829.232A3.933,3.933,0,0,0,204.12,191.129Z" transform="translate(-173.986 -170.016)" opacity="0.2"/><path d="M203.006,196.581c-.677,2.1,2.024,3.256,2.024,3.256,4.751-1.5,5.834-3.868,5.834-3.868-3.61-2.36-1.934-7.859-1.934-7.859l-.812.3-5.538.529s1.225,3.043,1.36,3.72h0C204.6,196.253,203.006,196.581,203.006,196.581Z" transform="translate(-173.439 -169.298)" fill="#ebb376"/><path d="M206.644,166.849a7.986,7.986,0,0,1-3.61,8.149s-1.431,5.764-4.59,6.254c-4.3.645-8.9-4.977-8.22-11.424C191.106,161.472,203.3,159.216,206.644,166.849Z" transform="translate(-169.025 -160.087)" fill="#263238"/><path d="M212.047,178.183c-.11-.825-.954-2.121-2.211-1.766s-1.605,3.733,1.747,4.036C212.06,180.5,212.273,179.9,212.047,178.183Z" transform="translate(-175.699 -165.122)" fill="#ebb376"/><path d="M217.2,410h-4.584a.406.406,0,0,0-.406.329l-.941,4.249a.7.7,0,0,0,.542.838.643.643,0,0,0,.155,0c1.876,0,2.031-.142,4.384-.142,1.451,0,5.835.148,7.84.148s2.263-1.979,1.444-2.16c-3.681-.806-6.447-1.934-7.627-2.972a1.16,1.16,0,0,0-.806-.29Z" transform="translate(-176.521 -248.136)" fill="#263238"/><path d="M220.953,410.429a.1.1,0,0,1-.084-.1.11.11,0,0,1,.052-.11c.174-.11,1.715-1.057,2.244-.78a.335.335,0,0,1,.193.316.645.645,0,0,1-.239.606,1.386,1.386,0,0,1-.915.245A5.523,5.523,0,0,1,220.953,410.429Zm.329-.155a2.353,2.353,0,0,0,1.7-.084.464.464,0,0,0,.148-.406c0-.1-.039-.135-.071-.135a.3.3,0,0,0-.148-.032,4.674,4.674,0,0,0-1.638.638Z" transform="translate(-179.937 -247.921)" fill="#f8951d"/><path d="M220.911,409.82a.116.116,0,0,1-.052-.1,3.526,3.526,0,0,1,.645-1.889.606.606,0,0,1,.484-.142.361.361,0,0,1,.361.3c.1.5-.851,1.554-1.347,1.818h-.052A.109.109,0,0,1,220.911,409.82Zm.767-1.857a2.669,2.669,0,0,0-.567,1.5c.5-.374,1.1-1.167,1.044-1.476,0-.032,0-.116-.168-.116h-.052a.381.381,0,0,0-.258.1Z" transform="translate(-179.934 -247.313)" fill="#f8951d"/><path d="M174.769,410h-4.59a.419.419,0,0,0-.406.329l-.941,4.249a.7.7,0,0,0,.542.838.643.643,0,0,0,.155,0c1.883,0,2.031-.142,4.39-.142,1.451,0,5.8.148,7.833.148s2.269-1.979,1.451-2.16c-3.681-.806-6.447-1.934-7.633-2.972a1.147,1.147,0,0,0-.8-.29Z" transform="translate(-161.442 -248.136)" fill="#263238"/><path d="M178.5,410.429a.1.1,0,0,1-.084-.1.116.116,0,0,1,.058-.11c.168-.11,1.708-1.057,2.244-.78a.355.355,0,0,1,.193.316.645.645,0,0,1-.239.606,1.412,1.412,0,0,1-.915.245A5.53,5.53,0,0,1,178.5,410.429Zm.329-.155a2.353,2.353,0,0,0,1.7-.084.471.471,0,0,0,.155-.406c0-.1-.045-.135-.077-.135a.257.257,0,0,0-.142-.032,4.752,4.752,0,0,0-1.638.638Z" transform="translate(-164.855 -247.921)" fill="#f8951d"/><path d="M178.478,409.82a.11.11,0,0,1-.058-.1c0-.064.122-1.438.677-1.889a.58.58,0,0,1,.477-.142.368.368,0,0,1,.367.3c.1.5-.857,1.554-1.347,1.818h-.058Zm.761-1.857a2.663,2.663,0,0,0-.561,1.5c.49-.374,1.1-1.167,1.038-1.476,0-.032,0-.116-.161-.116H179.5a.38.38,0,0,0-.258.1Z" transform="translate(-164.855 -247.312)" fill="#f8951d"/><path d="M216.7,230.875s3.752-22.854-2.695-33.1c0,0-12.894-.8-21.92,4.429,0,0,3.739,10.173,4.3,28.67Z" transform="translate(-169.712 -172.717)" fill="#f8951d"/><g transform="translate(22.378 25.015)" clip-path="url(#b)"><path d="M229.277,214.535c.277-3.1-.645-6.086-.774-8.716a25.422,25.422,0,0,1-4.242-4.829S223.095,210.254,229.277,214.535Z" transform="translate(-203.49 -198.89)" opacity="0.1"/></g><path d="M223.5,192.805s12.759-1.5,14.68-2.3c1.2-.5,10.579-6.634,10.579-6.634l2.2,3.307s-9.593,7.736-11.218,8.639c-3.8,2.089-12.352,5.042-12.352,5.042S222.222,197.235,223.5,192.805Z" transform="translate(-180.799 -167.792)" fill="#f8951d"/><path d="M202.136,169.155s5.306-5.306.3-8.877-10.031,1.09-10.031,1.09-11.966,2.888-9.419,10.85,4.21,8.632.419,12.713-7.659,10.148-3.784,14.016,17.407-.11,21.526-5.944S197.991,174.629,202.136,169.155Z" transform="translate(-164.711 -158.931)" fill="#263238"/><path d="M198.694,247.946l-.084-2.166,20.643.522v2.005Z" transform="translate(-172.029 -189.789)"/><rect width="0.832" height="2.134" transform="translate(32.377 56.14)" fill="#263238"/><rect width="0.735" height="2.334" transform="translate(42.003 56.378)" fill="#263238"/><rect width="0.703" height="2.495" transform="translate(27.149 56.024)" fill="#263238"/></g></g></svg>