<svg xmlns="http://www.w3.org/2000/svg" xmlns:xlink="http://www.w3.org/1999/xlink" width="250" height="165.649" viewBox="0 0 250 165.649"><defs><clipPath id="a"><path d="M341.51,184.053c-2.587-4.266-13.089-20.664-13.089-20.664L330.234,155a.53.53,0,0,0-1.014-.3l-1.34,3.065L326.1,155.51c-.478-.647-2.08-3.427-2.71-3.648-1.23-.42-.245,1.253-.1,1.667.315.9.711,1.474,1.265,3-.4.286-2.249-3.164-2.552-3.566-.128-.163-.286-.431-.524-.449-.95-.07,0,1.533.146,1.906.431,1.072.9,2.133,1.334,3.205-.542-.758-1.165-2.016-1.69-2.768a7.941,7.941,0,0,0-.647-1c-.385-.385-.822-.076-.664.49a12.193,12.193,0,0,0,.874,1.748c.449.862.862,1.346,1.305,2.209-.472-.629-.822-.938-1.288-1.568-.181-.245-.5-.8-.787-.921-1.02-.414.355,1.865.536,2.121.624.9,1.119,1.941,1.783,2.786.087.117,1.305,1.369,1.294,1.381l2.2,2.949.064-.047c.851,2.442,4.021,11.474,5.95,15.816,2.238,5.041,6.538,8.59,7.844,8.963a13.922,13.922,0,0,0,3.176.379l2.424-5.828S342.594,184.782,341.51,184.053Z" transform="translate(-319.68 -151.795)" fill="#fff" stroke="#263238" stroke-linecap="round" stroke-linejoin="round" stroke-width="1"/></clipPath><clipPath id="b"><path d="M380.961,204.984s-.583-2.914-3.176-2.914-18.124,2.29-18.124,2.29l-1.1,7.949s12.051.4,15.227-.064a9.621,9.621,0,0,0,4.9-2.069" transform="translate(-358.56 -202.07)" fill="#fff" stroke="#263238" stroke-linecap="round" stroke-linejoin="round" stroke-width="1"/></clipPath><clipPath id="c"><path d="M379.018,313.84a44.769,44.769,0,0,0-.437,11.364c.653,5.233,12.7,20.455,17.716,27s5.88,10.4,5.88,10.4.921,3.5-1.917,4.79-4.808,2.628-3.281,3.281,4.726.321,6.037.1,4.726-2.949,6.69-3.6,1.381-2.512.291-3.817-3.007-2.652-4.534-5.274A109.045,109.045,0,0,1,398,341.107c-2.838-8.071-9.277-15.2-9.277-15.2l3.386-11.655Z" transform="translate(-378.373 -313.84)" fill="#fff" stroke="#263238" stroke-linecap="round" stroke-linejoin="round" stroke-width="1"/></clipPath><clipPath id="d"><path d="M374.089,302.176s-.291,15.437,1.69,20.239,5.536,14.685,6.748,21.072a123.5,123.5,0,0,1,2.115,18.869s-6.335,4.423-8.6,5.245-.583,1.976,1.7,1.976a85.252,85.252,0,0,0,9.039-.583c.583-.1,1.13-.163,1.562-.2a1.212,1.212,0,0,0,1.1-1.358c-.163-1.358-1.276-3.252-1.276-4.662,0-2.261,1.748-11.544,2.861-20.3s-5-15.152-6.13-22.5.693-17.867.693-17.867Z" transform="translate(-374.074 -302.1)" fill="#fff" stroke="#263238" stroke-linecap="round" stroke-linejoin="round" stroke-width="1"/></clipPath><clipPath id="e"><path d="M387.929,197.684s-4.079,2.914-8.555,5.944-5.8,4.493-5.944,7.244.728,7.1.146,8.409a81.334,81.334,0,0,0-2.651,10.635c-.315,1.8,9.091,1.853,12.879,1.265a2.459,2.459,0,0,0,2.028-1.952c.629-3.164,2.448-11.16,5.286-15.309,3.77-5.507,2.762-10.967,1.6-13.141S390.388,196.245,387.929,197.684Z" transform="translate(-370.917 -197.243)" fill="#fff" stroke="#263238" stroke-linecap="round" stroke-linejoin="round" stroke-width="1"/></clipPath><clipPath id="f"><path d="M390.2,187a13.694,13.694,0,0,1,.723,4.662,10.081,10.081,0,0,1-1.014,3.77l5.944-4.784s-.146-1.6-.437-4.207-1-6.148-1-6.148Z" transform="translate(-389.91 -180.29)" fill="#fff" stroke="#263238" stroke-linecap="round" stroke-linejoin="round" stroke-width="1"/></clipPath><clipPath id="g"><path d="M382.5,162.7s-3.042,1.591-3.91,3.91-.437,3.916-1.165,5.245-2.034,1.451-1.165,2.028,2.028,1.305,2.028,1.305A38.034,38.034,0,0,0,379.3,180.7c.431.845,1.882.583,3.77,0a13.275,13.275,0,0,0,5.087-3.362,13.408,13.408,0,0,0,.513-3.578S381.481,169.075,382.5,162.7Z" transform="translate(-375.966 -162.7)" fill="#fff" stroke="#263238" stroke-linecap="round" stroke-linejoin="round" stroke-width="1"/></clipPath><clipPath id="h"><path d="M167.358,233.879l-7.669-11.789L156,233.256s8.03,8.223,10.186,8.613c5.612,1.02,10.7-.087,16.055-1.7.659-.2,6.061-1.69,9.522-2.826l2.8-1.078c.07-.052.111-.093.111-.128l-.256-3.118s-15.087.227-19.19.705a44.2,44.2,0,0,1-7.867.152Z" transform="translate(-156 -222.09)" fill="#fff" stroke="#263238" stroke-linecap="round" stroke-linejoin="round" stroke-width="1"/></clipPath><clipPath id="i"><path d="M168.579,170.1l1.626,7.494-2.331.763s-.874,8.8-1.492,9.441-6.678-1.585-6.678-1.585l-2.78,4.662-5.093-2.436,1.871-4.207s-3.829-14.1-3.782-17.4,1.812-4.446,6.165-5.4a19.557,19.557,0,0,1,8.106,0s-1.789-2.4,2.914-2.914,7.255,4.242,6.812,6.871S168.579,170.1,168.579,170.1Z" transform="translate(-149.919 -158.484)" fill="#fff" stroke="#263238" stroke-linecap="round" stroke-linejoin="round" stroke-width="1"/></clipPath><clipPath id="j"><path d="M143.8,212.863s1.626,4.831,1.166,13.281-8.869,30.723-8.869,30.723l-1.917-.1a26.626,26.626,0,0,1-14.9-5.53l-3.409-2.64s7.418-21.48,10.262-29.586a14.638,14.638,0,0,1,11.364-9.959C139.419,208.632,143.83,211.7,143.8,212.863Z" transform="translate(-115.87 -209.013)" fill="#fff" stroke="#263238" stroke-linecap="round" stroke-linejoin="round" stroke-width="1"/></clipPath><clipPath id="k"><path d="M138.94,228.771c.746,2.8,11.981,26.037,13.048,26.608s32.751,3.84,32.751,3.84l1.27-2.7-28.176-8.858L148.2,223.13" transform="translate(-138.94 -223.13)" fill="#fff" stroke="#263238" stroke-linecap="round" stroke-linejoin="round" stroke-width="1"/></clipPath></defs><g transform="translate(-38 -149.11)"><g transform="translate(38 287.091)"><ellipse cx="125" cy="9.907" rx="125" ry="9.907" transform="translate(0 7.855)" fill="#f8951d"/><ellipse cx="125" cy="9.907" rx="125" ry="9.907" transform="translate(0 7.855)" fill="#fff" opacity="0.5"/><line x2="64.476" transform="translate(181.818 0)" fill="none" stroke="#263238" stroke-linecap="round" stroke-linejoin="round" stroke-width="1"/><line x2="103.397" transform="translate(68.776 0)" fill="none" stroke="#263238" stroke-linecap="round" stroke-linejoin="round" stroke-width="1"/><line x2="64.231" transform="translate(0.868 0)" fill="none" stroke="#263238" stroke-linecap="round" stroke-linejoin="round" stroke-width="1"/></g><g transform="translate(62.341 163.547)"><path d="M278.945,353.774l2.1-.962-.443-2.535-2.331-.181a10.489,10.489,0,0,0-1.165-2.2l1.206-2.028L276.5,344.06l-2.045,1.212a10.232,10.232,0,0,0-3.9-1.591l-.583-2.331H267.4l-.583,2.331a9.967,9.967,0,0,0-2.331.734l-1.841-1.591-2.1,1.474.868,2.273a10.49,10.49,0,0,0-1.48,1.917l-2.418-.251-.88,2.418,2,1.358a10.278,10.278,0,0,0-.146,1.707,5.944,5.944,0,0,0,.029.723l-2.11,1.165.664,2.483,2.389-.029a10.209,10.209,0,0,0,1.311,2.086l-1.031,2.139,1.97,1.655,1.906-1.369a10.308,10.308,0,0,0,2.3.973l.385,2.3,2.558.221.775-2.179a9.943,9.943,0,0,0,2.465-.536L273.718,365l2.226-1.282-.612-2.214a10.408,10.408,0,0,0,1.713-1.865l2.261.414,1.084-2.331-1.748-1.463A10.386,10.386,0,0,0,278.945,353.774Zm-3.805-.047a6.41,6.41,0,1,1-6.41-6.41,6.41,6.41,0,0,1,6.41,6.41Z" transform="translate(-153.473 -243.547)" fill="#fff"/><path d="M362.917,202.631l2.1-.962-.443-2.529-2.331-.181a10.328,10.328,0,0,0-1.166-2.2l1.218-2-1.818-1.818-2.045,1.212a10.14,10.14,0,0,0-3.9-1.591l-.583-2.331h-2.57l-.583,2.331a10.1,10.1,0,0,0-2.331.734l-1.836-1.591-2.1,1.474.868,2.273a10.321,10.321,0,0,0-1.48,1.917l-2.418-.251-.88,2.413,2,1.364a10.278,10.278,0,0,0-.146,1.707c0,.239,0,.484,0,.723l-2.11,1.165.664,2.483,2.389-.035a9.907,9.907,0,0,0,1.311,2.086l-1.031,2.145,1.987,1.655,1.906-1.364a10.292,10.292,0,0,0,2.331.967l.385,2.3,2.558.227.775-2.18a10.489,10.489,0,0,0,2.465-.536l1.614,1.643,2.226-1.288-.612-2.214a10.21,10.21,0,0,0,1.713-1.865l2.261.42,1.084-2.331-1.748-1.469a10.384,10.384,0,0,0,.268-2.506Zm-3.805-.041a6.41,6.41,0,1,1-6.41-6.41,6.41,6.41,0,0,1,6.41,6.41Z" transform="translate(-188.505 -180.492)" fill="#fff"/><path d="M319.114,337.04l2.11-.962-.443-2.529-2.331-.181a10.23,10.23,0,0,0-1.166-2.209l1.2-2.022-1.83-1.818-2.045,1.212a10.18,10.18,0,0,0-3.9-1.591l-.583-2.331h-2.57l-.583,2.331a10.3,10.3,0,0,0-2.331.734l-1.836-1.591-2.1,1.48.868,2.273a10.085,10.085,0,0,0-1.48,1.917l-2.418-.251-.833,2.424,2,1.364A10.281,10.281,0,0,0,298.7,337a5.9,5.9,0,0,0,.029.717l-2.11,1.165.664,2.488,2.389-.035a9.907,9.907,0,0,0,1.311,2.086l-1.031,2.139,1.97,1.655,1.906-1.369a10.193,10.193,0,0,0,2.3.973l.379,2.3,2.564.227.775-2.185a10.2,10.2,0,0,0,2.465-.53l1.614,1.643,2.226-1.288-.583-2.214a10.209,10.209,0,0,0,1.667-1.871l2.261.42,1.084-2.331-1.748-1.469A10.1,10.1,0,0,0,319.114,337.04Zm-3.8-.041a6.41,6.41,0,1,1-6.41-6.41A6.41,6.41,0,0,1,315.315,337Z" transform="translate(-170.251 -236.562)" fill="#fff"/><path d="M124.572,198.275l4.2-1.911-.886-5.041-4.627-.355a20.111,20.111,0,0,0-2.331-4.388l2.389-4.027-3.619-3.619-4.079,2.413a20.21,20.21,0,0,0-7.751-3.164L106.7,173.52h-5.111l-1.165,4.662a20.443,20.443,0,0,0-4.6,1.463l-3.654-3.164-4.19,2.914,1.748,4.522a20.759,20.759,0,0,0-2.914,3.811l-4.814-.5-1.748,4.808,3.939,2.739a20.331,20.331,0,0,0-.286,3.392,13.151,13.151,0,0,0,.052,1.439l-4.19,2.331,1.3,4.953,4.744-.058a20.2,20.2,0,0,0,2.611,4.143l-2.051,4.26,3.916,3.287,3.8-2.716a20.4,20.4,0,0,0,4.575,1.929l.758,4.58,5.093.443,1.538-4.336a20.123,20.123,0,0,0,4.9-1.061l3.217,3.263,4.429-2.552-1.218-4.406a20.4,20.4,0,0,0,3.4-3.712l4.5.833,2.162-4.662-3.526-2.914a20.275,20.275,0,0,0,.653-4.942ZM117,198.182a9.519,9.519,0,1,1,.012-.006Z" transform="translate(-79.77 -173.52)" fill="#fff"/></g><g transform="translate(55.284 149.619)"><path d="M341.51,184.053c-2.587-4.266-13.089-20.664-13.089-20.664L330.234,155a.53.53,0,0,0-1.014-.3l-1.34,3.065L326.1,155.51c-.478-.647-2.08-3.427-2.71-3.648-1.23-.42-.245,1.253-.1,1.667.315.9.711,1.474,1.265,3-.4.286-2.249-3.164-2.552-3.566-.128-.163-.286-.431-.524-.449-.95-.07,0,1.533.146,1.906.431,1.072.9,2.133,1.334,3.205-.542-.758-1.165-2.016-1.69-2.768a7.941,7.941,0,0,0-.647-1c-.385-.385-.822-.076-.664.49a12.193,12.193,0,0,0,.874,1.748c.449.862.862,1.346,1.305,2.209-.472-.629-.822-.938-1.288-1.568-.181-.245-.5-.8-.787-.921-1.02-.414.355,1.865.536,2.121.624.9,1.119,1.941,1.783,2.786.087.117,1.305,1.369,1.294,1.381l2.2,2.949.064-.047c.851,2.442,4.021,11.474,5.95,15.816,2.238,5.041,6.538,8.59,7.844,8.963a13.922,13.922,0,0,0,3.176.379l2.424-5.828S342.594,184.782,341.51,184.053Z" transform="translate(-172.815 -150.527)" fill="#fff"/><g transform="translate(146.865 1.268)" clip-path="url(#a)"><path d="M344.829,197.4c-2.523-.775-2.914-2.331-2.914-2.331v-8.922c-2.809-4.441-6.031-9.487-7.576-11.929l-2.78,2.051c1.288,3.642,3.706,10.367,5.291,13.928,2.238,5.041,6.538,8.59,7.844,8.963a13.921,13.921,0,0,0,3.176.379l.583-1.463a18.834,18.834,0,0,1-3.625-.676Z" transform="translate(-324.637 -161.152)" fill="#f8951d"/><path d="M344.829,197.4c-2.523-.775-2.914-2.331-2.914-2.331v-8.922c-2.809-4.441-6.031-9.487-7.576-11.929l-2.78,2.051c1.288,3.642,3.706,10.367,5.291,13.928,2.238,5.041,6.538,8.59,7.844,8.963a13.921,13.921,0,0,0,3.176.379l.583-1.463a18.834,18.834,0,0,1-3.625-.676Z" transform="translate(-324.637 -161.152)" fill="#fff" opacity="0.5"/></g><path d="M341.51,184.053c-2.587-4.266-13.089-20.664-13.089-20.664L330.234,155a.53.53,0,0,0-1.014-.3l-1.34,3.065L326.1,155.51c-.478-.647-2.08-3.427-2.71-3.648-1.23-.42-.245,1.253-.1,1.667.315.9.711,1.474,1.265,3-.4.286-2.249-3.164-2.552-3.566-.128-.163-.286-.431-.524-.449-.95-.07,0,1.533.146,1.906.431,1.072.9,2.133,1.334,3.205-.542-.758-1.165-2.016-1.69-2.768a7.941,7.941,0,0,0-.647-1c-.385-.385-.822-.076-.664.49a12.193,12.193,0,0,0,.874,1.748c.449.862.862,1.346,1.305,2.209-.472-.629-.822-.938-1.288-1.568-.181-.245-.5-.8-.787-.921-1.02-.414.355,1.865.536,2.121.624.9,1.119,1.941,1.783,2.786.087.117,1.305,1.369,1.294,1.381l2.2,2.949.064-.047c.851,2.442,4.021,11.474,5.95,15.816,2.238,5.041,6.538,8.59,7.844,8.963a13.922,13.922,0,0,0,3.176.379l2.424-5.828S342.594,184.782,341.51,184.053Z" transform="translate(-172.815 -150.527)" fill="none" stroke="#263238" stroke-linecap="round" stroke-linejoin="round" stroke-width="1"/><path d="M332.136,162s-1.795.659-2.168,1.6.583,2.238.583,2.238" transform="translate(-177.072 -154.785)" fill="none" stroke="#263238" stroke-linecap="round" stroke-linejoin="round" stroke-width="1"/><line y1="2.43" x2="2.803" transform="translate(149.534 6.218)" fill="none" stroke="#263238" stroke-linecap="round" stroke-linejoin="round" stroke-width="1"/><path d="M380.961,204.984s-.583-2.914-3.176-2.914-18.124,2.29-18.124,2.29l-1.1,7.949s12.051.4,15.227-.064a9.621,9.621,0,0,0,4.9-2.069" transform="translate(-189.038 -171.504)" fill="#fff"/><g transform="translate(169.522 30.566)" clip-path="url(#b)"><path d="M381.779,206.233l-2.512-.9-17.483,5.443.583-4.079-1.847,6.993c3.083.082,11.509.274,14.091-.1a9.621,9.621,0,0,0,4.9-2.069l2.3-5.163a.712.712,0,0,0-.023-.122Z" transform="translate(-359.378 -203.43)" fill="#f8951d"/><path d="M381.779,206.233l-2.512-.9-17.483,5.443.583-4.079-1.847,6.993c3.083.082,11.509.274,14.091-.1a9.621,9.621,0,0,0,4.9-2.069l2.3-5.163a.712.712,0,0,0-.023-.122Z" transform="translate(-359.378 -203.43)" fill="#fff" opacity="0.5"/></g><path d="M380.961,204.984s-.583-2.914-3.176-2.914-18.124,2.29-18.124,2.29l-1.1,7.949s12.051.4,15.227-.064a9.621,9.621,0,0,0,4.9-2.069" transform="translate(-189.038 -171.504)" fill="none" stroke="#263238" stroke-linecap="round" stroke-linejoin="round" stroke-width="1"/><path d="M379.018,313.84a44.769,44.769,0,0,0-.437,11.364c.653,5.233,12.7,20.455,17.716,27s5.88,10.4,5.88,10.4.921,3.5-1.917,4.79-4.808,2.628-3.281,3.281,4.726.321,6.037.1,4.726-2.949,6.69-3.6,1.381-2.512.291-3.817-3.007-2.652-4.534-5.274A109.045,109.045,0,0,1,398,341.107c-2.838-8.071-9.277-15.2-9.277-15.2l3.386-11.655Z" transform="translate(-197.305 -218.14)" fill="#fff"/><g transform="translate(181.068 95.7)" clip-path="url(#c)"><path d="M406.6,358.149a109.047,109.047,0,0,1-7.465-16.976c-2.838-8.071-9.277-15.2-9.277-15.2l3.386-11.655-9.779-.32-1.445,3.846s-1.783,4.837-.379,8.788,17.57,24.831,20.245,30.816a12.611,12.611,0,0,1,1.125,4.254,8.715,8.715,0,0,1,.3.95s.921,3.5-1.917,4.79-4.808,2.628-3.281,3.281,4.726.32,6.037.1,4.726-2.949,6.69-3.6,1.381-2.512.291-3.817S408.13,360.772,406.6,358.149Z" transform="translate(-379.513 -313.907)" fill="#f8951d"/><path d="M406.6,358.149a109.047,109.047,0,0,1-7.465-16.976c-2.838-8.071-9.277-15.2-9.277-15.2l3.386-11.655-9.779-.32-1.445,3.846s-1.783,4.837-.379,8.788,17.57,24.831,20.245,30.816a12.611,12.611,0,0,1,1.125,4.254,8.715,8.715,0,0,1,.3.95s.921,3.5-1.917,4.79-4.808,2.628-3.281,3.281,4.726.32,6.037.1,4.726-2.949,6.69-3.6,1.381-2.512.291-3.817S408.13,360.772,406.6,358.149Z" transform="translate(-379.513 -313.907)" fill="#fff" opacity="0.5"/></g><path d="M379.018,313.84a44.769,44.769,0,0,0-.437,11.364c.653,5.233,12.7,20.455,17.716,27s5.88,10.4,5.88,10.4.921,3.5-1.917,4.79-4.808,2.628-3.281,3.281,4.726.321,6.037.1,4.726-2.949,6.69-3.6,1.381-2.512.291-3.817-3.007-2.652-4.534-5.274A109.045,109.045,0,0,1,398,341.107c-2.838-8.071-9.277-15.2-9.277-15.2l3.386-11.655Z" transform="translate(-197.305 -218.14)" fill="none" stroke="#263238" stroke-linecap="round" stroke-linejoin="round" stroke-width="1"/><path d="M422.939,398.622c-.07-.087-.157-.175-.233-.262a31.819,31.819,0,0,1-5.175,2.914l-2.075-1.7h-.221a3.5,3.5,0,0,1-2.034,3.042c-2.832,1.305-4.808,2.628-3.281,3.281s4.726.32,6.037.1,4.726-2.949,6.69-3.6S424.028,399.928,422.939,398.622Z" transform="translate(-210.246 -253.406)" fill="#263238" stroke="#263238" stroke-linecap="round" stroke-linejoin="round" stroke-width="1"/><path d="M374.089,302.176s-.291,15.437,1.69,20.239,5.536,14.685,6.748,21.072a123.5,123.5,0,0,1,2.115,18.869s-6.335,4.423-8.6,5.245-.583,1.976,1.7,1.976a85.252,85.252,0,0,0,9.039-.583c.583-.1,1.13-.163,1.562-.2a1.212,1.212,0,0,0,1.1-1.358c-.163-1.358-1.276-3.252-1.276-4.662,0-2.261,1.748-11.544,2.861-20.3s-5-15.152-6.13-22.5.693-17.867.693-17.867Z" transform="translate(-195.511 -213.242)" fill="#fff"/><g transform="translate(178.563 88.858)" clip-path="url(#d)"><path d="M384.894,319.987c-1.131-7.343.693-17.867.693-17.867l-11.5.064s-.251,13.362,1.311,19.091a20.891,20.891,0,0,0,4.709.793h2.418s4.458,11.591,5.245,18.974-2.162,21.014-1.655,23.054a45.962,45.962,0,0,1,1.445,4.837c.3-.041.583-.07.8-.093a1.212,1.212,0,0,0,1.1-1.358c-.163-1.358-1.276-3.252-1.276-4.662,0-2.261,1.748-11.544,2.861-20.3S386.024,327.336,384.894,319.987Z" transform="translate(-374.074 -302.108)" fill="#f8951d"/><path d="M384.894,319.987c-1.131-7.343.693-17.867.693-17.867l-11.5.064s-.251,13.362,1.311,19.091a20.891,20.891,0,0,0,4.709.793h2.418s4.458,11.591,5.245,18.974-2.162,21.014-1.655,23.054a45.962,45.962,0,0,1,1.445,4.837c.3-.041.583-.07.8-.093a1.212,1.212,0,0,0,1.1-1.358c-.163-1.358-1.276-3.252-1.276-4.662,0-2.261,1.748-11.544,2.861-20.3S386.024,327.336,384.894,319.987Z" transform="translate(-374.074 -302.108)" fill="#fff" opacity="0.5"/></g><path d="M374.089,302.176s-.291,15.437,1.69,20.239,5.536,14.685,6.748,21.072a123.5,123.5,0,0,1,2.115,18.869s-6.335,4.423-8.6,5.245-.583,1.976,1.7,1.976a85.252,85.252,0,0,0,9.039-.583c.583-.1,1.13-.163,1.562-.2a1.212,1.212,0,0,0,1.1-1.358c-.163-1.358-1.276-3.252-1.276-4.662,0-2.261,1.748-11.544,2.861-20.3s-5-15.152-6.13-22.5.693-17.867.693-17.867Z" transform="translate(-195.511 -213.242)" fill="none" stroke="#263238" stroke-linecap="round" stroke-linejoin="round" stroke-width="1"/><path d="M388.989,413.093a1.212,1.212,0,0,0,1.1-1.358,23.923,23.923,0,0,0-1.02-3.269l-4.272.88-1.818-1.165a45.6,45.6,0,0,1-6.282,3.7c-2.261.845-.583,1.976,1.7,1.976a85.234,85.234,0,0,0,9.038-.583C388.027,413.2,388.558,413.133,388.989,413.093Z" transform="translate(-196.157 -257.504)" fill="#263238" stroke="#263238" stroke-linecap="round" stroke-linejoin="round" stroke-width="1"/><path d="M361.3,251.662s-4.7,4.569-9.324,14.977-5.466,24.924-5.466,24.924,9.062,4.749,22.99,4.079,21.061-7.576,21.061-7.576-4.225-20.227-10.8-30.268c-3.817-5.828-5.181-7.7-5.181-7.7S364.645,249.418,361.3,251.662Z" transform="translate(-184.01 -191.504)" fill="#263238" stroke="#263238" stroke-linecap="round" stroke-linejoin="round" stroke-width="1"/><path d="M372.758,254.42a35.59,35.59,0,0,0-2.978,9.114" transform="translate(-193.719 -193.347)" fill="none" stroke="#fff" stroke-linecap="round" stroke-linejoin="round" stroke-width="0.75"/><path d="M381.9,251.93a56.306,56.306,0,0,1,2.331,16.9" transform="translate(-198.776 -192.308)" fill="none" stroke="#fff" stroke-linecap="round" stroke-linejoin="round" stroke-width="0.75"/><path d="M386.89,248.18a28.625,28.625,0,0,1,6.288,9.272" transform="translate(-200.859 -190.744)" fill="none" stroke="#fff" stroke-linecap="round" stroke-linejoin="round" stroke-width="0.75"/><path d="M387.929,197.684s-4.079,2.914-8.555,5.944-5.8,4.493-5.944,7.244.728,7.1.146,8.409a81.334,81.334,0,0,0-2.651,10.635c-.315,1.8,9.091,1.853,12.879,1.265a2.459,2.459,0,0,0,2.028-1.952c.629-3.164,2.448-11.16,5.286-15.309,3.77-5.507,2.762-10.967,1.6-13.141S390.388,196.245,387.929,197.684Z" transform="translate(-194.194 -169.49)" fill="#fff"/><g transform="translate(176.723 27.753)" clip-path="url(#e)"><path d="M393.942,200.26c-1.165-2.179-3.193-4.079-5.653-2.611l-.973.688a5.332,5.332,0,0,0-.839,1.439L385.5,205.6s-5.245,4.854-6.41,8.159.2,9.324-.385,11.655c-.35,1.393-4.027,3.409-6.929,5.181,1.964,1.084,9.178,1.043,12.383.548a2.459,2.459,0,0,0,2.028-1.952c.629-3.164,2.448-11.16,5.286-15.309C395.247,208.377,395.1,202.433,393.942,200.26Z" transform="translate(-371.277 -197.196)" fill="#f8951d"/><path d="M393.942,200.26c-1.165-2.179-3.193-4.079-5.653-2.611l-.973.688a5.332,5.332,0,0,0-.839,1.439L385.5,205.6s-5.245,4.854-6.41,8.159.2,9.324-.385,11.655c-.35,1.393-4.027,3.409-6.929,5.181,1.964,1.084,9.178,1.043,12.383.548a2.459,2.459,0,0,0,2.028-1.952c.629-3.164,2.448-11.16,5.286-15.309C395.247,208.377,395.1,202.433,393.942,200.26Z" transform="translate(-371.277 -197.196)" fill="#fff" opacity="0.5"/></g><path d="M387.929,197.684s-4.079,2.914-8.555,5.944-5.8,4.493-5.944,7.244.728,7.1.146,8.409a81.334,81.334,0,0,0-2.651,10.635c-.315,1.8,9.091,1.853,12.879,1.265a2.459,2.459,0,0,0,2.028-1.952c.629-3.164,2.448-11.16,5.286-15.309,3.77-5.507,2.762-10.967,1.6-13.141S390.388,196.245,387.929,197.684Z" transform="translate(-194.194 -169.49)" fill="none" stroke="#263238" stroke-linecap="round" stroke-linejoin="round" stroke-width="1"/><path d="M379.829,149.626s-5.309.693-5.542,3,2.774,2.774,2.331,3.695-4.848.233-5.082,3.234,8.741,11.486,11.043,11.719,5.589,2.145,9.289.291,7.162-8.083,2.768-15.245S379.829,149.626,379.829,149.626Z" transform="translate(-194.451 -149.619)" fill="#263238" stroke="#263238" stroke-linecap="round" stroke-linejoin="round" stroke-width="1"/><path d="M387.5,154.66a1.591,1.591,0,0,0-1.165,1.445c-.373,2.826,6.777,7.721,12.045,9.6s2.069,5.082.752,5.828" transform="translate(-200.619 -151.723)" fill="none" stroke="#fff" stroke-linecap="round" stroke-linejoin="round" stroke-width="0.75"/><path d="M393.07,155.184a8.158,8.158,0,0,0-1.48-.484" transform="translate(-202.82 -151.739)" fill="none" stroke="#fff" stroke-linecap="round" stroke-linejoin="round" stroke-width="0.75"/><path d="M390.2,187a13.694,13.694,0,0,1,.723,4.662,10.081,10.081,0,0,1-1.014,3.77l5.944-4.784s-.146-1.6-.437-4.207-1-6.148-1-6.148Z" transform="translate(-202.119 -162.417)" fill="#fff"/><g transform="translate(187.791 17.873)" clip-path="url(#f)"><path d="M390.2,187a13.694,13.694,0,0,1,.723,4.662,10.081,10.081,0,0,1-1.014,3.77l5.944-4.784s-.146-1.6-.437-4.207-1-6.148-1-6.148Z" transform="translate(-389.91 -180.29)" fill="#f8951d"/><path d="M390.2,187a13.694,13.694,0,0,1,.723,4.662,10.081,10.081,0,0,1-1.014,3.77l5.944-4.784s-.146-1.6-.437-4.207-1-6.148-1-6.148Z" transform="translate(-389.91 -180.29)" fill="#fff" opacity="0.5"/></g><path d="M390.2,187a13.694,13.694,0,0,1,.723,4.662,10.081,10.081,0,0,1-1.014,3.77l5.944-4.784s-.146-1.6-.437-4.207-1-6.148-1-6.148Z" transform="translate(-202.119 -162.417)" fill="none" stroke="#263238" stroke-linecap="round" stroke-linejoin="round" stroke-width="1"/><path d="M382.5,162.7s-3.042,1.591-3.91,3.91-.437,3.916-1.165,5.245-2.034,1.451-1.165,2.028,2.028,1.305,2.028,1.305A38.034,38.034,0,0,0,379.3,180.7c.431.845,1.882.583,3.77,0a13.275,13.275,0,0,0,5.087-3.362,13.408,13.408,0,0,0,.513-3.578S381.481,169.075,382.5,162.7Z" transform="translate(-196.301 -155.077)" fill="#fff"/><g transform="translate(179.666 7.623)" clip-path="url(#g)"><path d="M385.348,165.86c-.076,1.031-.157,3.805.979,5.6,1.41,2.238,2,6.713.822,8.246-.932,1.218-3.724,1.987-4.178,2.786a7.251,7.251,0,0,0,3.03-.5,13.322,13.322,0,0,0,5.087-3.362,13.409,13.409,0,0,0,.513-3.578S385.761,171.274,385.348,165.86Z" transform="translate(-378.889 -164.018)" fill="#f8951d"/><path d="M386.08,163.083l.536.962a8.039,8.039,0,0,1,.093-1.335S386.459,162.838,386.08,163.083Z" transform="translate(-380.186 -162.704)" fill="#f8951d"/><g transform="translate(4.081 0.006)" opacity="0.5"><path d="M385.348,165.86c-.076,1.031-.157,3.805.979,5.6,1.41,2.238,2,6.713.822,8.246-.932,1.218-3.724,1.987-4.178,2.786a7.251,7.251,0,0,0,3.03-.5,13.322,13.322,0,0,0,5.087-3.362,13.409,13.409,0,0,0,.513-3.578S385.761,171.274,385.348,165.86Z" transform="translate(-382.97 -164.024)" fill="#fff"/><path d="M386.08,163.083l.536.962a8.039,8.039,0,0,1,.093-1.335S386.459,162.838,386.08,163.083Z" transform="translate(-384.268 -162.71)" fill="#fff"/></g></g><path d="M382.5,162.7s-3.042,1.591-3.91,3.91-.437,3.916-1.165,5.245-2.034,1.451-1.165,2.028,2.028,1.305,2.028,1.305A38.034,38.034,0,0,0,379.3,180.7c.431.845,1.882.583,3.77,0a13.275,13.275,0,0,0,5.087-3.362,13.408,13.408,0,0,0,.513-3.578S381.481,169.075,382.5,162.7Z" transform="translate(-196.301 -155.077)" fill="none" stroke="#263238" stroke-linecap="round" stroke-linejoin="round" stroke-width="1"/><path d="M395.288,194.54l-6.667,5.944-1.451,3.765,10.437-7.681Z" transform="translate(-200.975 -168.362)" fill="#fff" stroke="#263238" stroke-linecap="round" stroke-linejoin="round" stroke-width="1"/><path d="M207.865,231.746c-.169-.186-.49-.146-.711-.14-.524,0-4.569.705-4.592.186,1.62-.519,2.331-.583,3.293-.892.431-.146,2.453-.414,1.311-1.166-.583-.379-3.922.093-4.761.1h-3.013l1.667-3.083a.583.583,0,0,0-.9-.647l-5.769,6.911s-15.087.227-19.19.705a44.2,44.2,0,0,1-7.838.152l-7.669-11.789L156,233.256s8.03,8.223,10.186,8.613c5.612,1.02,10.7-.087,16.055-1.7.985-.3,12.477-3.462,12.43-4.033v.082l3.852-.082s1.824.175,1.981.175c1.119,0,2.331-.262,3.444-.326.332,0,3.1-.35,2.1-.927a3.2,3.2,0,0,0-1.27-.058c-.822,0-1.3-.07-2.127-.052,1-.186,1.667-.157,2.669-.344a12.523,12.523,0,0,0,2.028-.42c.583-.233.542-.793-.029-.868a8.856,8.856,0,0,0-1.241.117c-.973.035-2.4.35-3.374.39,1.165-.338,2.331-.629,3.5-.967C206.594,232.743,208.529,232.486,207.865,231.746Z" transform="translate(-104.52 -179.858)" fill="none" stroke="#263238" stroke-linecap="round" stroke-linejoin="round" stroke-width="1"/><path d="M228.393,235.39s.262,2.238.262,3.019-3.135.979-3.135.979" transform="translate(-133.527 -185.407)" fill="none" stroke="#263238" stroke-linecap="round" stroke-linejoin="round" stroke-width="1"/><path d="M167.358,233.879l-7.669-11.789L156,233.256s8.03,8.223,10.186,8.613c5.612,1.02,10.7-.087,16.055-1.7.659-.2,6.061-1.69,9.522-2.826l2.8-1.078c.07-.052.111-.093.111-.128l-.256-3.118s-15.087.227-19.19.705a44.2,44.2,0,0,1-7.867.152Z" transform="translate(-104.52 -179.858)" fill="#fff"/><g transform="translate(51.48 42.232)" clip-path="url(#h)"><path d="M163.445,236s6.41,4.47,5.245,5.245-2.331.39-1.166.775,12.045.583,12.045.583l-1.748,4.662s-8.159,0-9.522-.967-5.629-7.191-5.629-7.191Z" transform="translate(-158.783 -227.894)" fill="#f8951d"/><path d="M163.445,236s6.41,4.47,5.245,5.245-2.331.39-1.166.775,12.045.583,12.045.583l-1.748,4.662s-8.159,0-9.522-.967-5.629-7.191-5.629-7.191Z" transform="translate(-158.783 -227.894)" fill="#fff" opacity="0.5"/></g><path d="M167.358,233.879l-7.669-11.789L156,233.256s8.03,8.223,10.186,8.613c5.612,1.02,10.7-.087,16.055-1.7.659-.2,6.061-1.69,9.522-2.826l2.8-1.078c.07-.052.111-.093.111-.128l-.256-3.118s-15.087.227-19.19.705a44.2,44.2,0,0,1-7.867.152Z" transform="translate(-104.52 -179.858)" fill="none" stroke="#263238" stroke-linecap="round" stroke-linejoin="round" stroke-width="1"/><rect width="88.485" height="103.52" rx="8.29" transform="translate(70.74 5.84)" fill="#fff" stroke="#263238" stroke-linecap="round" stroke-linejoin="round" stroke-width="1"/><path d="M278.486,259.906V165.756a4.662,4.662,0,0,0-.845-2.686l-86.311,100.1a4.662,4.662,0,0,0,3.357,1.416h79.12a4.662,4.662,0,0,0,4.68-4.685Z" transform="translate(-119.261 -155.232)" fill="#263238" stroke="#263238" stroke-linecap="round" stroke-linejoin="round" stroke-width="1"/><line x2="4.103" y2="3.217" transform="translate(90.122 24.499)" fill="none" stroke="#263238" stroke-linecap="round" stroke-linejoin="round" stroke-width="1"/><line x2="1.428" y2="2.145" transform="translate(98.333 21.108)" fill="none" stroke="#263238" stroke-linecap="round" stroke-linejoin="round" stroke-width="1"/><line x2="1.253" y2="3.928" transform="translate(105.653 15.933)" fill="none" stroke="#263238" stroke-linecap="round" stroke-linejoin="round" stroke-width="1"/><line x1="4.108" y2="3.217" transform="translate(132.133 24.499)" fill="none" stroke="#263238" stroke-linecap="round" stroke-linejoin="round" stroke-width="1"/><line x1="1.428" y2="2.145" transform="translate(126.597 21.108)" fill="none" stroke="#263238" stroke-linecap="round" stroke-linejoin="round" stroke-width="1"/><line x1="1.247" y2="3.928" transform="translate(119.458 15.933)" fill="none" stroke="#263238" stroke-linecap="round" stroke-linejoin="round" stroke-width="1"/><path d="M246.612,187h-.239c-13.083.239-22.943,10.245-22.943,22.558a22.512,22.512,0,0,0,2.611,10.554c.74,1.713,2.465,5.909,4.2,11.335a59.663,59.663,0,0,1,2.436,10.8c0,.076,0,.152,0,.233a1.69,1.69,0,0,0,1.684,1.748h23.432a1.684,1.684,0,0,0,1.684-1.748v-.233a59.119,59.119,0,0,1,2.436-10.8c1.748-5.425,3.462-9.621,4.2-11.334A22.576,22.576,0,0,0,246.612,187Z" transform="translate(-132.655 -165.216)" fill="#f8951d" stroke="#263238" stroke-linecap="round" stroke-linejoin="round" stroke-width="1"/><ellipse cx="8.759" cy="8.479" rx="8.759" ry="8.479" transform="translate(111.958 27.302)" fill="#fff" opacity="0.43"/><ellipse cx="4.277" cy="4.138" rx="4.277" ry="4.138" transform="translate(112.529 29.097)" fill="#fff"/><path d="M248.65,192.683a19.229,19.229,0,0,1,2-.763" transform="translate(-143.178 -167.269)" fill="none" stroke="#fff" stroke-linecap="round" stroke-linejoin="round" stroke-width="2"/><path d="M235.75,199.547a15.32,15.32,0,0,1,5.88-4.907" transform="translate(-137.795 -168.404)" fill="none" stroke="#fff" stroke-linecap="round" stroke-linejoin="round" stroke-width="2"/><path d="M236.58,258.81c.839,2.733,1.946,6.527,2.331,8.642.647,3.572.216,5.408,1.62,5.734" transform="translate(-138.142 -195.179)" fill="none" stroke="#fff" stroke-linecap="round" stroke-linejoin="round" stroke-width="2"/><path d="M234.82,253.21s.239.734.583,1.859" transform="translate(-137.407 -192.842)" fill="none" stroke="#fff" stroke-linecap="round" stroke-linejoin="round" stroke-width="2"/><path d="M256.8,265.363V243.8s.892-5.641-2.045-5.641-2.71,2.914.676,6.1,8.578.227,9.26-2.261-1.131-3.607-2.261-1.579,0,25.058,0,25.058" transform="translate(-144.872 -186.563)" fill="none" stroke="#fff" stroke-linecap="round" stroke-linejoin="round" stroke-width="2"/><rect width="24.359" height="5.653" transform="translate(101.241 78.887)" fill="#fff" stroke="#263238" stroke-linecap="round" stroke-linejoin="round" stroke-width="1"/><rect width="24.359" height="5.653" transform="translate(101.241 85.886)" fill="#fff" stroke="#263238" stroke-linecap="round" stroke-linejoin="round" stroke-width="1"/><rect width="24.359" height="1.346" transform="translate(101.241 84.54)" fill="#263238" stroke="#263238" stroke-linecap="round" stroke-linejoin="round" stroke-width="1"/><path d="M260.1,314.663H247.043a5.653,5.653,0,0,1-5.653-5.653h24.359a5.653,5.653,0,0,1-5.653,5.653Z" transform="translate(-140.149 -216.125)" fill="#fff" stroke="#263238" stroke-linecap="round" stroke-linejoin="round" stroke-width="1"/><rect width="24.359" height="1.346" transform="translate(101.241 91.539)" fill="#263238" stroke="#263238" stroke-linecap="round" stroke-linejoin="round" stroke-width="1"/><path d="M393.6,176.5s1.166-3.695,3-2.541,0,4.849-.688,5.082-1.853-.46-1.853-.46" transform="translate(-203.658 -159.682)" fill="#fff" stroke="#263238" stroke-linecap="round" stroke-linejoin="round" stroke-width="1"/><path d="M168.579,170.1l1.626,7.494-2.331.763s-.874,8.8-1.492,9.441-6.678-1.585-6.678-1.585l-2.78,4.662-5.093-2.436,1.871-4.207s-3.829-14.1-3.782-17.4,1.812-4.446,6.165-5.4a19.557,19.557,0,0,1,8.106,0s-1.789-2.4,2.914-2.914,7.255,4.242,6.812,6.871S168.579,170.1,168.579,170.1Z" transform="translate(-101.983 -153.318)" fill="#fff"/><g transform="translate(47.937 5.166)" clip-path="url(#i)"><path d="M153.652,185.106s-3.829-14.1-3.782-17.4,1.812-4.446,6.165-5.4a19.557,19.557,0,0,1,8.106,0,1.568,1.568,0,0,1-.1-1.719,21.276,21.276,0,0,1,3.316.291c1.585.291,3.5.583,5.087.851a6.527,6.527,0,0,1,1.463,4.079l-1.23,2.471a15.106,15.106,0,0,1-4.126,2.7l.315,1.445a18.313,18.313,0,0,1-2.733.781,11.52,11.52,0,0,1-4.254-.659s1.812,2.04.239,3.619a6.451,6.451,0,0,1-3.2,1.83,33.467,33.467,0,0,0-.315,5.361c.157,1.014,5.4,4.079,7.681,5.344-.769.548-6.638-1.608-6.638-1.608l-2.78,4.662-5.093-2.436Z" transform="translate(-149.898 -159.363)" fill="#f8951d"/><path d="M153.652,185.106s-3.829-14.1-3.782-17.4,1.812-4.446,6.165-5.4a19.557,19.557,0,0,1,8.106,0,1.568,1.568,0,0,1-.1-1.719,21.276,21.276,0,0,1,3.316.291c1.585.291,3.5.583,5.087.851a6.527,6.527,0,0,1,1.463,4.079l-1.23,2.471a15.106,15.106,0,0,1-4.126,2.7l.315,1.445a18.313,18.313,0,0,1-2.733.781,11.52,11.52,0,0,1-4.254-.659s1.812,2.04.239,3.619a6.451,6.451,0,0,1-3.2,1.83,33.467,33.467,0,0,0-.315,5.361c.157,1.014,5.4,4.079,7.681,5.344-.769.548-6.638-1.608-6.638-1.608l-2.78,4.662-5.093-2.436Z" transform="translate(-149.898 -159.363)" fill="#fff" opacity="0.5"/></g><path d="M168.579,170.1l1.626,7.494-2.331.763s-.874,8.8-1.492,9.441-6.678-1.585-6.678-1.585l-2.78,4.662-5.093-2.436,1.871-4.207s-3.829-14.1-3.782-17.4,1.812-4.446,6.165-5.4a19.557,19.557,0,0,1,8.106,0s-1.789-2.4,2.914-2.914,7.255,4.242,6.812,6.871S168.579,170.1,168.579,170.1Z" transform="translate(-101.983 -153.318)" fill="none" stroke="#263238" stroke-linecap="round" stroke-linejoin="round" stroke-width="1"/><path d="M149.87,166.823c.041-3.3,1.812-4.446,6.165-5.4a19.557,19.557,0,0,1,8.106,0s-1.789-2.4,2.914-2.914,7.255,4.242,6.812,6.871-5.3,4.7-5.3,4.7-6.148.828-9.528-.717c0,0,2.57,2.483,2.453,4.277a1.748,1.748,0,0,1-1.911,1.684l-.2,2.576s-1.288,1.043-1.69.367-.892-4.108-2.564-2.477-1.387,4.079-.262,4.61,1.748-.122,1.335,1.486-2.535,2.331-2.535,2.331S149.823,170.121,149.87,166.823Z" transform="translate(-101.962 -153.314)" fill="#263238" stroke="#263238" stroke-linecap="round" stroke-linejoin="round" stroke-width="1"/><path d="M153.723,174.438a9.615,9.615,0,0,0-1.6-.2" transform="translate(-102.901 -159.892)" fill="none" stroke="#fff" stroke-linecap="round" stroke-linejoin="round" stroke-width="0.75"/><path d="M167.237,167.052s1.807-2.488,3.415.064-.5,4.487-5.9,4.54a45.273,45.273,0,0,1-5.734-.326" transform="translate(-105.78 -156.439)" fill="none" stroke="#fff" stroke-linecap="round" stroke-linejoin="round" stroke-width="0.75"/><path d="M158.857,180.59a26.643,26.643,0,0,1-7.407.169" transform="translate(-102.621 -162.542)" fill="none" stroke="#fff" stroke-linecap="round" stroke-linejoin="round" stroke-width="0.75"/><path d="M192.983,400.786l.484.519,3.392,3.613s4.307,1.748,4.365,2.8-4.831,1.492-7.331,1.282-5.478-2.523-5.478-2.523-3.17.536-3.665-1.923,1.748-4.231,1.748-4.231Z" transform="translate(-116.485 -254.224)" fill="#fff" stroke="#263238" stroke-linecap="round" stroke-linejoin="round" stroke-width="1"/><path d="M188.416,408.785s2.978,2.331,5.478,2.523,7.4-.216,7.331-1.282a.985.985,0,0,0-.361-.583c-3.916,1.474-9.138.122-11.789-1.585a17.08,17.08,0,0,0-4.382-2,3.737,3.737,0,0,0,.058,1.008C185.246,409.322,188.416,408.785,188.416,408.785Z" transform="translate(-116.487 -256.536)" fill="#fff" stroke="#263238" stroke-linecap="round" stroke-linejoin="round" stroke-width="1"/><path d="M69.956,399s-2.3,9.563-2.3,11.026,8.578,1.259,9.2,0-.624-5.017-1.463-6.9-1.218-2.745-1.218-2.745Z" transform="translate(-67.66 -253.673)" fill="#fff" stroke="#263238" stroke-linecap="round" stroke-linejoin="round" stroke-width="1"/><path d="M76.862,416.446a3.66,3.66,0,0,0,.07-2.016,4.616,4.616,0,0,1-3.625,1.6,9.493,9.493,0,0,1-5.355-1.585,15.187,15.187,0,0,0-.291,2C67.66,417.915,76.238,417.705,76.862,416.446Z" transform="translate(-67.66 -260.111)" fill="#fff" stroke="#263238" stroke-linecap="round" stroke-linejoin="round" stroke-width="1"/><path d="M142.876,306.876c.07-2.331-4.738-5.88-9.878-9.656s-15.9-8.992-15.9-8.992l.519-3.019L97.4,276.94s-2.85,3.607-4.481,12.494c-1.946,10.594-.682,24.476-.321,27.64-.478.326-5.245,3.665-7.22,6.818C83.3,327.214,71.6,348.071,71.6,348.071l4.225,1.381.2-.262s27.115-28.287,28.526-29.749,4.079-18.724,4.079-18.724,20.315,9.476,21.288,10.128,9.382,38,9.382,38l6.5.466S142.8,309.2,142.876,306.876Z" transform="translate(-69.304 -202.744)" fill="#263238" stroke="#263238" stroke-linecap="round" stroke-linejoin="round" stroke-width="1"/><path d="M143.8,308.03l-8.689,5.641,6.5-1.882" transform="translate(-95.803 -215.716)" fill="none" stroke="#fff" stroke-linecap="round" stroke-linejoin="round" stroke-width="1"/><path d="M134.349,287.817a25.163,25.163,0,0,1-18.159-8.077" transform="translate(-87.909 -203.912)" fill="none" stroke="#fff" stroke-linecap="round" stroke-linejoin="round" stroke-width="1"/><line x1="0.589" y2="2.314" transform="translate(40.099 81.329)" fill="none" stroke="#fff" stroke-linecap="round" stroke-linejoin="round" stroke-width="1"/><line x1="0.909" y2="2.11" transform="translate(33.386 78.345)" fill="none" stroke="#fff" stroke-linecap="round" stroke-linejoin="round" stroke-width="1"/><path d="M143.8,212.863s1.626,4.831,1.166,13.281-8.869,30.723-8.869,30.723l-1.917-.1a26.626,26.626,0,0,1-14.9-5.53l-3.409-2.64s7.418-21.48,10.262-29.586a14.638,14.638,0,0,1,11.364-9.959C139.419,208.632,143.83,211.7,143.8,212.863Z" transform="translate(-87.776 -174.401)" fill="#fff"/><g transform="translate(28.094 34.612)" clip-path="url(#j)"><path d="M126.166,219.569a14.5,14.5,0,0,1,8.776-9.219c-1.165.827-4.738,3.613-5.9,7.663-1.387,4.866,2.442,11.235,2.442,11.235s-.052-.39-.122-.979c2.249,4.977,5.868,12.448,8.362,17.226l-3-5.117-1.515-3.427-6.7,3.881,3.141-4.312s-7.034,5.921-8.835,8.2a6.033,6.033,0,0,0-.5,7.383,14.948,14.948,0,0,0,2.914,3.106,26.456,26.456,0,0,1-5.88-3.427l-3.409-2.64S123.322,227.675,126.166,219.569Z" transform="translate(-115.903 -209.571)" fill="#f8951d"/><g transform="translate(0.047 0.779)" opacity="0.5"><path d="M126.166,219.569a14.5,14.5,0,0,1,8.776-9.219c-1.165.827-4.738,3.613-5.9,7.663-1.387,4.866,2.442,11.235,2.442,11.235s-.052-.39-.122-.979c2.249,4.977,5.868,12.448,8.362,17.226l-3-5.117-1.515-3.427-6.7,3.881,3.141-4.312s-7.034,5.921-8.835,8.2a6.033,6.033,0,0,0-.5,7.383,14.948,14.948,0,0,0,2.914,3.106,26.456,26.456,0,0,1-5.88-3.427l-3.409-2.64S123.322,227.675,126.166,219.569Z" transform="translate(-115.95 -210.35)" fill="#fff"/></g></g><path d="M143.8,212.863s1.626,4.831,1.166,13.281-8.869,30.723-8.869,30.723l-1.917-.1a26.626,26.626,0,0,1-14.9-5.53l-3.409-2.64s7.418-21.48,10.262-29.586a14.638,14.638,0,0,1,11.364-9.959C139.419,208.632,143.83,211.7,143.8,212.863Z" transform="translate(-87.776 -174.401)" fill="none" stroke="#263238" stroke-linecap="round" stroke-linejoin="round" stroke-width="1"/><path d="M141.254,243.8s-5.017-3.438-7.494-5.035" transform="translate(-95.24 -186.817)" fill="none" stroke="#263238" stroke-linecap="round" stroke-linejoin="round" stroke-width="0.5"/><path d="M133.958,248.356a12.488,12.488,0,0,1-1.358-.186" transform="translate(-94.756 -190.74)" fill="none" stroke="#263238" stroke-linecap="round" stroke-linejoin="round" stroke-width="0.5"/><path d="M144.31,247.37a35.353,35.353,0,0,1-6.41.711" transform="translate(-96.968 -190.406)" fill="none" stroke="#263238" stroke-linecap="round" stroke-linejoin="round" stroke-width="0.5"/><path d="M150.655,205.41,160,210l-1.876,3.293-8.916-5.262Z" transform="translate(-101.687 -172.898)" fill="#fff" stroke="#263238" stroke-linecap="round" stroke-linejoin="round" stroke-width="1"/><path d="M138.94,228.771c.746,2.8,11.981,26.037,13.048,26.608s32.751,3.84,32.751,3.84l1.27-2.7-28.176-8.858L148.2,223.13" transform="translate(-97.402 -180.292)" fill="#fff"/><g transform="translate(41.538 42.838)" clip-path="url(#k)"><path d="M142.143,237.25c-.233-1.923-.653-5.973-.041-5.3.8.868,3.322,8.438,6.323,13.776s7.436,7.133,6.649,7.418-1.02,2.99-1.02,2.99l31.171,6.667c-1.713-.181-6.41-.67-11.655-1.241l-20.4-2.529-2.669-4.551C148.012,249.7,144.393,242.227,142.143,237.25Z" transform="translate(-140.127 -226.778)" fill="#f8951d"/><path d="M142.143,237.25c-.233-1.923-.653-5.973-.041-5.3.8.868,3.322,8.438,6.323,13.776s7.436,7.133,6.649,7.418-1.02,2.99-1.02,2.99l31.171,6.667c-1.713-.181-6.41-.67-11.655-1.241l-20.4-2.529-2.669-4.551C148.012,249.7,144.393,242.227,142.143,237.25Z" transform="translate(-140.127 -226.778)" fill="#fff" opacity="0.5"/></g><path d="M138.94,228.771c.746,2.8,11.981,26.037,13.048,26.608s32.751,3.84,32.751,3.84l1.27-2.7-28.176-8.858L148.2,223.13" transform="translate(-97.402 -180.292)" fill="none" stroke="#263238" stroke-linecap="round" stroke-linejoin="round" stroke-width="1"/><path d="M217.34,281.086l1.381-2.914,8.45-3.094a.583.583,0,0,1,.455,1.008l-2.99,1.859,2.6,1.521c.734.408,3.858,1.667,4.172,2.29.618,1.212-1.265.431-1.713.344-.979-.192-1.638-.519-3.3-.88-.239.466,3.613,1.882,4.079,2.139.192.111.5.233.548.478.21.979-1.591.227-2,.128-1.165-.291-2.331-.629-3.5-.921.857.455,2.255.9,3.112,1.352a9.107,9.107,0,0,1,1.136.524c.455.35.2.845-.414.763a12.52,12.52,0,0,1-1.964-.653c-.962-.338-1.521-.7-2.483-1.037.723.4,1.09.717,1.818,1.113.28.152.9.4,1.066.682.583,1-1.987-.1-2.284-.251-1.014-.513-2.174-.88-3.147-1.445-.134-.082-1.614-1.165-1.626-1.165Z" transform="translate(-130.114 -201.966)" fill="#fff" stroke="#263238" stroke-linecap="round" stroke-linejoin="round" stroke-width="1"/><path d="M176.47,185.362c0,.49.192.886.42.886s.414-.4.414-.892-.192-.892-.425-.886S176.47,184.89,176.47,185.362Z" transform="translate(-113.061 -164.161)" fill="#263238"/><path d="M176.559,196.433a3.425,3.425,0,0,1-3.019-1.043" transform="translate(-111.838 -168.717)" fill="none" stroke="#263238" stroke-linecap="round" stroke-linejoin="round" stroke-width="1"/><path d="M176.956,180.291a1.865,1.865,0,0,0-1.946.548" transform="translate(-112.452 -162.383)" fill="none" stroke="#263238" stroke-linecap="round" stroke-linejoin="round" stroke-width="1"/><path d="M358.615,234.934l-1.09,1.1a32.835,32.835,0,0,0-7.22.437c-2.844.659-15.21,1.48-15.21,1.48l-3.584.373-6.136-6.026a.53.53,0,0,0-.793.7l1.865,2.774-2.855.291c-.8.064-4.009-.076-4.534.338-1.014.81.927.874,1.352.973.927.221,1.626.2,3.211.542.029.5-3.881.21-4.376.251-.21,0-.519,0-.664.2-.583.763,1.294.828,1.69.9,1.136.216,2.279.385,3.415.583-.921.052-2.331-.111-3.234-.058a9.083,9.083,0,0,0-1.195,0c-.53.122-.507.659.058.828a12.268,12.268,0,0,0,1.964.21c.967.087,1.6,0,2.564.082-.787.058-1.23.192-2.016.245a2.913,2.913,0,0,0-1.195.175c-.9.635,1.748.693,2.075.682,1.09-.041,2.238.093,3.3,0,.152,0,1.859-.367,1.865-.35l3.666-.274v-.058c2.646.256,15.554,1.48,19.866,1.48a48.119,48.119,0,0,0,10.49-1.527l1.748-4.376Z" transform="translate(-172.31 -184.054)" fill="#fff" stroke="#263238" stroke-linecap="round" stroke-linejoin="round" stroke-width="1"/><path d="M369.589,236.93l-.728.728,1.876,3.392s-2.331.583-10.291,1.556c-5.245.635-11.777.857-15.676.932,4.662.437,14.05,1.265,17.6,1.265a48.12,48.12,0,0,0,10.49-1.527l1.748-4.376Z" transform="translate(-183.284 -186.05)" fill="#f8951d" opacity="0.5"/><path d="M358.615,234.934l-1.09,1.1a32.835,32.835,0,0,0-7.22.437c-2.844.659-15.21,1.48-15.21,1.48l-3.584.373-6.136-6.026a.53.53,0,0,0-.793.7l1.865,2.774-2.855.291c-.8.064-4.009-.076-4.534.338-1.014.81.927.874,1.352.973.927.221,1.626.2,3.211.542.029.5-3.881.21-4.376.251-.21,0-.519,0-.664.2-.583.763,1.294.828,1.69.9,1.136.216,2.279.385,3.415.583-.921.052-2.331-.111-3.234-.058a9.083,9.083,0,0,0-1.195,0c-.53.122-.507.659.058.828a12.268,12.268,0,0,0,1.964.21c.967.087,1.6,0,2.564.082-.787.058-1.23.192-2.016.245a2.913,2.913,0,0,0-1.195.175c-.9.635,1.748.693,2.075.682,1.09-.041,2.238.093,3.3,0,.152,0,1.859-.367,1.865-.35l3.666-.274v-.058c2.646.256,15.554,1.48,19.866,1.48a48.119,48.119,0,0,0,10.49-1.527l1.748-4.376Z" transform="translate(-172.31 -184.054)" fill="none" stroke="#263238" stroke-linecap="round" stroke-linejoin="round" stroke-width="1"/><path d="M395.646,203.151s-2.972-.822-4.2,1.538-6.41,17.727-6.41,17.727l5.915,4.784s6.882-10.927,7.96-14.056a9.907,9.907,0,0,0,.4-5.466" transform="translate(-200.087 -171.898)" fill="#fff"/><path d="M399.972,213.118c-.443-1.241-1.795-4.627-3.537-4.79-2.139-.192-3.3,7.191-5.443,11.463s-.583,6.02-.583,6.02l-4.079-2.133,5.216,5.688c.5-.787,6.882-11,7.908-13.986A11.561,11.561,0,0,0,399.972,213.118Z" transform="translate(-200.625 -174.114)" fill="#f8951d" opacity="0.5"/><path d="M395.646,203.151s-2.972-.822-4.2,1.538-6.41,17.727-6.41,17.727l5.915,4.784s6.882-10.927,7.96-14.056a9.907,9.907,0,0,0,.4-5.466" transform="translate(-200.087 -171.898)" fill="none" stroke="#263238" stroke-linecap="round" stroke-linejoin="round" stroke-width="1"/><path d="M389.934,154.312c-.705-.233-9.324-.472-9.324-.472" transform="translate(-198.238 -151.38)" fill="#f8951d"/><path d="M383.029,177.033c0,.437-.146.793-.332.793s-.326-.355-.326-.793.146-.793.326-.793S383.029,176.6,383.029,177.033Z" transform="translate(-198.973 -160.727)" fill="#263238"/><path d="M381.88,184.263a4.071,4.071,0,0,0,2.506-1.323" transform="translate(-198.768 -163.522)" fill="none" stroke="#263238" stroke-linecap="round" stroke-linejoin="round" stroke-width="0.75"/><path d="M381,172.782s1.055-1.317,1.981-.4" transform="translate(-198.401 -158.982)" fill="none" stroke="#263238" stroke-linecap="round" stroke-linejoin="round" stroke-width="0.75"/></g></g></svg>