<svg xmlns="http://www.w3.org/2000/svg" width="250" height="251.308" viewBox="0 0 250 251.308"><g transform="translate(-111.316 -133.102)"><g transform="translate(227.262 133.102)"><path d="M263.323,178.47s-2.521,5.086-6.133,7.26c0,0,5.325.328,10.517-5.663Z" transform="translate(-243.666 -138.204)" fill="#f8951d"/><path d="M263.323,178.47s-2.521,5.086-6.133,7.26c0,0,5.325.328,10.517-5.663Z" transform="translate(-243.666 -138.204)" fill="#fff" opacity="0.7"/><ellipse cx="19.739" cy="20.902" rx="19.739" ry="20.902" transform="matrix(0.194, -0.981, 0.981, 0.194, 0, 38.728)" fill="#f8951d"/><ellipse cx="19.739" cy="20.902" rx="19.739" ry="20.902" transform="matrix(0.194, -0.981, 0.981, 0.194, 0, 38.728)" fill="#fff" opacity="0.7"/><path d="M259.5,171.111a5.024,5.024,0,0,0,.666.825l-.621,1.3,2.006,1.1.763-1.234a4.694,4.694,0,0,0,1.056.115l.488,1.358,2.192-.639-.328-1.411a4.3,4.3,0,0,0,.825-.666l1.314.621,1.092-2.006-1.225-.763a4.686,4.686,0,0,0,.107-1.056l1.367-.488-.648-2.192-1.4.328a4.641,4.641,0,0,0-.675-.825l.621-1.3-2.006-1.1-.763,1.234a4.145,4.145,0,0,0-1.056-.115l-.479-1.367-2.192.648.328,1.411a4.049,4.049,0,0,0-.834.666l-1.3-.621-1.092,2.006,1.225.763a4.7,4.7,0,0,0-.115,1.056l-1.358.488.639,2.192Zm2.139-1.908a1.423,1.423,0,1,0,0-.009Z" transform="translate(-243.695 -136.445)" fill="#fff"/><path d="M268.43,159.2a7.1,7.1,0,0,0,1.243,1.234l-.79,2.263,3.488,1.438,1.038-2.157a7.278,7.278,0,0,0,1.775,0l1.038,2.157,3.488-1.447-.79-2.254a7.888,7.888,0,0,0,1.243-1.251l2.254.79,1.438-3.488-2.148-1.038a7.766,7.766,0,0,0,0-1.775l2.157-1.038-1.447-3.488-2.254.8a7.481,7.481,0,0,0-1.243-1.243l.781-2.263L276.187,145l-1.038,2.157a7.279,7.279,0,0,0-1.775,0L272.353,145l-3.479,1.447.79,2.263a6.861,6.861,0,0,0-1.243,1.243l-2.254-.79-1.447,3.488,2.157,1.038a7.279,7.279,0,0,0,0,1.775L264.72,156.5l1.456,3.488Zm3.169-3.55a2.911,2.911,0,1,1,3.8,1.571A2.911,2.911,0,0,1,271.6,155.651Z" transform="translate(-244.512 -134.44)" fill="#fff"/><path d="M256.6,159.269a2.53,2.53,0,0,0,.515.506l-.328.888,1.429.595.426-.888a3.249,3.249,0,0,0,.719,0l.426.888,1.429-.595-.328-.888a2.733,2.733,0,0,0,.506-.506l.888.32.595-1.429-.888-.426a3.251,3.251,0,0,0,0-.719l.888-.426-.595-1.42-.888.32a3.035,3.035,0,0,0-.506-.506l.319-.888-1.429-.595-.426.888a2.441,2.441,0,0,0-.719,0l-.426-.888-1.42.595.319.888a2.778,2.778,0,0,0-.506.515l-.888-.328-.595,1.429.888.426a2.44,2.44,0,0,0,0,.719l-.888.426.595,1.429Zm1.3-1.429a.91.91,0,1,1,0,.009Z" transform="translate(-243.433 -135.396)" fill="#fff"/></g><g transform="translate(272.444 154.954)"><path d="M344.09,198.2c2.725.7,8.343,21.967,10.216,22.1s15.443-6.062,15.443-6.062,1.775,7.1,1.411,7.047-13.695,9.674-18.266,9.328-12.754-20.005-12.754-20.005Z" transform="translate(-298.175 -162.274)" fill="#f8951d"/><path d="M340.14,210.616s1.047,2.521,2.609,5.778l.5,1.03c.506,1.021,1.047,2.1,1.624,3.186.16.311.328.621.5.932.932,1.7,1.926,3.382,2.9,4.819l.595.888a13.392,13.392,0,0,0,2.53,2.743,2.946,2.946,0,0,0,1.509.683,3.764,3.764,0,0,0,.763,0,6.6,6.6,0,0,0,.888-.169,24.38,24.38,0,0,0,4.917-2.032l.825-.444c1.429-.772,2.885-1.624,4.242-2.467l.808-.506c2.308-1.438,4.242-2.751,5.183-3.355a3.55,3.55,0,0,1,.595-.337c.089,0,.044-.417-.071-1.056-.337-1.97-1.331-5.991-1.331-5.991l-.328.151-.817.364c-1.074.479-2.8,1.251-4.686,2.059l-.834.355c-1.473.63-3.009,1.26-4.384,1.775l-.888.32c-.586.231-1.136.426-1.624.577-.355.115-.675.213-.95.284a3.151,3.151,0,0,1-.976.169c-.355,0-.888-.808-1.411-2.059-.16-.328-.319-.7-.488-1.1-.577-1.385-1.225-3.106-1.891-4.961-.142-.364-.275-.737-.408-1.109-1.225-3.355-2.521-6.95-3.692-9.488a20.274,20.274,0,0,0-1.021-1.988h0c-.47-.8-.888-1.3-1.3-1.393l-2.84,8.875Z" transform="translate(-298.175 -162.282)" fill="#fff" opacity="0.6"/><g transform="translate(44.574 37.311)" opacity="0.2"><path d="M373.037,216.44l-.817.364,1.953,6.87a3.547,3.547,0,0,1,.595-.337c.089,0,.044-.417-.071-1.056Z" transform="translate(-346.357 -201.636)"/><path d="M366,219.525l1.482,8.316.808-.506-1.456-8.165Z" transform="translate(-345.657 -201.943)"/><path d="M360.948,221.59l-.888.32,1.722,9.115.825-.444Z" transform="translate(-344.989 -202.215)"/><path d="M355.38,233.339a6.6,6.6,0,0,0,.888-.169L357.91,222.6c-.355.115-.675.213-.95.284Z" transform="translate(-344.463 -202.328)"/><path d="M353.476,219.55l-4.136,9.2.595.888,4.029-8.946A7.649,7.649,0,0,1,353.476,219.55Z" transform="translate(-343.784 -201.985)"/><path d="M345.47,222.233c.16.311.328.621.5.932l5.148-9.346c-.142-.364-.275-.737-.408-1.109Z" transform="translate(-343.349 -201.216)"/><path d="M343.08,216.561l.5,1.03a32.84,32.84,0,0,0,3.169-15.843,20.271,20.271,0,0,0-1.021-1.988A32.706,32.706,0,0,1,343.08,216.561Z" transform="translate(-343.08 -199.76)"/></g><path d="M340.14,211.743s1.047,2.521,2.609,5.778l.5,1.03c.506,1.021,1.047,2.1,1.624,3.186.16.311.328.621.5.932.932,1.7,1.926,3.382,2.9,4.819l.595.888a13.392,13.392,0,0,0,2.53,2.743c.888-11.245-6.523-21.78-6.523-21.78a13.783,13.783,0,0,0-3.621-1.047Z" transform="translate(-298.175 -163.408)" opacity="0.2"/><path d="M315.505,161.182a6.364,6.364,0,0,1,4.988-3.426c3.6-.355,4.314,2.228,6.87,1.713s5.272.08,5.174,2.521,1.127,5.068,2.8,5.813,1.225,5.263-.79,6.914,1.624,5.778-.888,8.938-.657,3.781-1.109,4.828a1.7,1.7,0,0,1-1.207,1.136s.825-1.056,0-1.58,0-2.37,0-2.37-1.5,1.145-1.207,2.37-8.245,4.136-13.2,3.47-5.325-3.027-5.325-3.027-.586,1.837.382,2.37c0,0-2.192-.888-2.1-2.37s.435-2.37-.888-3.692-2.006-3.035-.888-4.988a3.55,3.55,0,0,0-.888,2.459s-1.7-1.092,0-3.186-.373-3.169,0-7.021,2.13-2.663,3.1-5.955S311.751,159.744,315.505,161.182Z" transform="translate(-294.389 -157.722)" fill="#263238"/><path d="M313.607,408.12H305.92a.577.577,0,0,0-.541.435l-1.243,5.636a.888.888,0,0,0,.719,1.1.806.806,0,0,0,.2,0c2.485-.044,4.3-.2,7.42-.2,1.917,0,7.722.2,10.375.2s3-2.663,1.917-2.867c-4.873-1.065-8.547-2.538-10.109-3.932a1.544,1.544,0,0,0-1.056-.382Z" transform="translate(-294.124 -185.88)" fill="#263238"/><path d="M350.317,407.9h-7.686a.559.559,0,0,0-.541.435l-1.243,5.627a.932.932,0,0,0,.719,1.109h.2c2.485,0,4.3-.2,7.42-.2,1.926,0,7.722.2,10.375.2s3-2.618,1.917-2.867c-4.873-1.056-8.547-2.53-10.1-3.932a1.535,1.535,0,0,0-1.065-.382Z" transform="translate(-298.253 -185.855)" fill="#263238"/><path d="M309.543,247.66h33.532c3.186,17.423,12.319,87.956,5.148,142.9l-11.2,1.225s1.775-84.441-8.281-111.414c-1.154,14.432-2.521,29.786-3.71,37.96-2.885,20.165-9.47,72.531-9.47,72.531l-11.361.311s2.485-50.848,3.55-70.613C308.975,299.111,309.49,252.062,309.543,247.66Z" transform="translate(-294.134 -167.836)" fill="#263238"/><path d="M309.543,247.66h33.532c3.186,17.423,12.319,87.956,5.148,142.9l-11.2,1.225s1.775-84.441-8.281-111.414c-1.154,14.432-2.521,29.786-3.71,37.96-2.885,20.165-9.47,72.531-9.47,72.531l-11.361.311s2.485-50.848,3.55-70.613C308.975,299.111,309.49,252.062,309.543,247.66Z" transform="translate(-294.134 -167.836)" fill="#fff" opacity="0.2"/><path d="M331.89,283.016a89.835,89.835,0,0,1,3.754,14.52c.941-12.843-2.814-26.467-2.814-26.467Z" transform="translate(-297.248 -170.468)" opacity="0.2"/><path d="M344.078,248.11h-33.8v4.021l34.224-.408Z" transform="translate(-294.818 -167.886)" fill="#263238"/><rect width="1.207" height="7.136" transform="translate(27.533 85.558) rotate(180)" fill="#263238"/><rect width="1.207" height="7.136" transform="translate(44.636 85.558) rotate(180)" fill="#263238"/><rect width="6.248" height="4.5" transform="translate(40.11 84.022) rotate(180)" fill="#fff"/><rect width="1.207" height="7.136" transform="translate(27.533 85.558) rotate(180)" fill="#fff" opacity="0.2"/><rect width="1.207" height="7.136" transform="translate(44.636 85.558) rotate(180)" fill="#fff" opacity="0.2"/><path d="M339.867,198.188s-21.354-.825-37.277,2.459c0,0,7.029,25.384,6.763,41.839H343.2S345.405,215.176,339.867,198.188Z" transform="translate(-293.953 -162.262)" fill="#f8951d"/><path d="M302.61,200.676l.16.595c.222.817.648,2.45,1.189,4.66.062.275.133.568.2.888.151.63.311,1.3.47,2,.222.95.462,1.97.692,3.035.062.293.124.577.2.888.257,1.234.533,2.53.8,3.87l.293,1.482c.053.284.107.577.169.888.266,1.429.533,2.893.781,4.376a4.629,4.629,0,0,0,.133.843c.213,1.314.408,2.663.595,3.958.044.293.08.586.115.888.257,1.89.47,3.772.621,5.618a2.6,2.6,0,0,0,.071.737v.142c.133,1.731.222,3.417.249,5.032v1.97H343.2s0-.435.08-1.225c0-.257.044-.55.062-.888.071-1.34.169-3.275.222-5.618v-.888c0-2.032.053-4.331,0-6.8v-.888c0-1.606-.08-3.275-.169-4.988a6.007,6.007,0,0,0-.044-.888c-.08-1.456-.178-2.929-.311-4.438,0-.293-.044-.595-.071-.888q-.253-2.663-.621-5.325l-.133-.888c-.266-1.775-.586-3.55-.967-5.272-.062-.293-.133-.586-.2-.888-.3-1.3-.639-2.565-1.012-3.772l-.213-.675S318.515,197.365,302.61,200.676Z" transform="translate(-293.955 -162.265)" fill="#fff" opacity="0.6"/><g transform="translate(8.655 35.848)" opacity="0.2"><path d="M302.61,200.675l.16.595a86.661,86.661,0,0,1,11.538-1.447s6.266,4.118,11.538,2.982,4.438-4.322,4.438-4.322l9.763.4-.213-.675S318.515,197.365,302.61,200.675Z" transform="translate(-302.61 -198.112)"/><path d="M304.13,206.487c.062.275.133.568.2.888,12.7-2.3,29.129-3.027,37.135-3.257-.062-.293-.133-.586-.2-.888C333.171,203.443,316.813,204.189,304.13,206.487Z" transform="translate(-302.781 -198.687)"/><path d="M305.67,213.159c.062.293.124.577.2.888,13.313-2.21,29.866-2.831,36.878-3.009l-.133-.888C335.5,210.319,318.939,210.949,305.67,213.159Z" transform="translate(-302.954 -199.466)"/><path d="M307.12,220.169c.053.284.107.577.169.888,12.843-2.148,28.872-2.814,36.31-3.009,0-.293-.044-.595-.071-.888C336.054,217.338,320.007,218,307.12,220.169Z" transform="translate(-303.117 -200.254)"/><path d="M308.19,226.087c.044.293.089.577.142.888,12.665-2.086,28.3-2.743,35.742-2.947a6.007,6.007,0,0,0-.044-.888C336.556,223.326,320.909,223.992,308.19,226.087Z" transform="translate(-303.237 -200.926)"/><path d="M309,231.658c.044.293.08.586.115.888,12.426-1.677,27.647-1.917,35.218-1.908v-.888C336.745,229.741,321.523,229.972,309,231.658Z" transform="translate(-303.329 -201.67)"/><path d="M309.85,239.1c0,.293.053.586.08.888a298.224,298.224,0,0,1,34.464-.719v-.888A295.8,295.8,0,0,0,309.85,239.1Z" transform="translate(-303.424 -202.619)"/><path d="M310.22,245.81v.888a299.408,299.408,0,0,1,33.922-.142c0-.257.044-.55.062-.888A304.756,304.756,0,0,0,310.22,245.81Z" transform="translate(-303.466 -203.413)"/></g><path d="M324.5,222.91l-16.3,3.177a4.629,4.629,0,0,0,.133.843c.213,1.314.408,2.663.595,3.958.044.293.08.586.115.888.257,1.89.47,3.772.621,5.618a2.6,2.6,0,0,0,.071.737c14.378-4.163,16.145-11.831,16.145-11.831Z" transform="translate(-294.584 -165.053)" opacity="0.2"/><path d="M304.89,209.792c.222.95.462,1.97.692,3.035.062.293.124.577.2.888.257,1.234.533,2.53.8,3.87a18.106,18.106,0,0,0,.213-10.384Z" transform="translate(-294.212 -163.286)" opacity="0.2"/><path d="M316.65,197.127c3.071,2.787,10.58,1.775,10.58,1.775s4.686-1.278,3.7-2.743c-2.76-.462-4.1-1.775-4.651-3.4a7.988,7.988,0,0,1-.275-3.151,15.018,15.018,0,0,1,.231-1.775L316.961,181C318.168,185.491,319.623,193.843,316.65,197.127Z" transform="translate(-295.534 -160.34)" fill="#ebb376"/><path d="M319.4,185.87c.373,5.574,4.952,7.1,7.189,7.42a7.987,7.987,0,0,1-.275-3.151Z" transform="translate(-295.843 -160.887)" opacity="0.2"/><path d="M333.7,164.68s2.583,8.378-1.473,12.364-6.452-11.991-6.452-11.991Z" transform="translate(-296.56 -158.505)" fill="#263238"/><path d="M318.9,185.714a7.881,7.881,0,0,0,9.39,1.677,8.813,8.813,0,0,0,4.34-4.775,8.645,8.645,0,0,0,.284-.888c1.456-5.574.8-14.849-5.263-17.449a8.538,8.538,0,0,0-11.938,8.29C315.967,178.8,315.807,182.475,318.9,185.714Z" transform="translate(-295.428 -158.38)" fill="#ebb376"/><path d="M325.789,175.713a.8.8,0,0,0,.577.932c.337.044.612-.408.621-.888s-.249-.888-.577-.888S325.8,175.2,325.789,175.713Z" transform="translate(-296.561 -159.65)" fill="#263238"/><path d="M333.119,175.893a.816.816,0,0,0,.586.932c.328.044.612-.408.621-.888s-.257-.888-.586-.888S333.137,175.37,333.119,175.893Z" transform="translate(-297.385 -159.671)" fill="#263238"/><path d="M330.735,176.26a17.946,17.946,0,0,0,2.334,4.385,2.929,2.929,0,0,1-2.45.408Z" transform="translate(-297.105 -159.807)" fill="#d58745"/><path d="M324.346,173.54a.311.311,0,0,0,.293-.106,2.379,2.379,0,0,1,1.926-.959.3.3,0,0,0,.053-.595h0a2.973,2.973,0,0,0-2.45,1.18.293.293,0,0,0,0,.417h0a.453.453,0,0,0,.178.062Z" transform="translate(-296.37 -159.314)" fill="#263238"/><path d="M335.361,173.573a.222.222,0,0,0,.169,0,.3.3,0,0,0,.16-.391h0a2.956,2.956,0,0,0-2.112-1.713.3.3,0,0,0-.337.249h0a.311.311,0,0,0,.257.337h0a2.423,2.423,0,0,1,1.651,1.385A.284.284,0,0,0,335.361,173.573Z" transform="translate(-297.399 -159.268)" fill="#263238"/><path d="M320.066,165.05l.417,2.743a2.033,2.033,0,0,0-.959,2.6c.95,2.29-.266,5.911-2,7.384,0,0-.089-1-.888-.737s-.462,5.467,1.251,7.908a18.239,18.239,0,0,1-4.535-8.1c-1.438-5.024-1.287-8.751-.3-10.739Z" transform="translate(-295.044 -158.546)" fill="#263238"/><path d="M312.5,178.9a5.938,5.938,0,0,0,3.337,3.071c1.961.7,3.089-1.021,2.663-2.947-.382-1.713-1.855-4.189-3.887-4.038A2.663,2.663,0,0,0,312.5,178.9Z" transform="translate(-295.031 -159.663)" fill="#ebb376"/><path d="M330.144,182.945a15.976,15.976,0,0,0-1.287,1.9l-.382-.142c-1.7-.675-2.272-1.544-2.388-2.316a2.556,2.556,0,0,1,.408-1.686,8.68,8.68,0,0,0,3.062,2.041Z" transform="translate(-296.594 -160.306)" fill="#263238"/><path d="M329.575,182.745l-.391.55c-1.606-.639-2.663-1.3-2.964-1.988a2.307,2.307,0,0,1,.284-.577A8.68,8.68,0,0,0,329.575,182.745Z" transform="translate(-296.61 -160.309)" fill="#fff"/><path d="M328.478,184.917c-1.7-.675-2.272-1.544-2.388-2.316a5.991,5.991,0,0,1,1.775,1.127A2.166,2.166,0,0,1,328.478,184.917Z" transform="translate(-296.595 -160.52)" fill="#de5753"/><path d="M313.11,165.62s.586-3.133,6.373-4.367,10.651-.257,12.727,2.459a9.763,9.763,0,0,1,1.731,6.319s.044-.186-1.731-.533-2.8-2.1-3.5-2.663-2.281-.115-2.281-.115a2.778,2.778,0,0,1,1.677.586c.621.586.568,2.219,1.775,2.281a1.58,1.58,0,0,1-2.316-.47c-.817-1.464-4.038-2.166-5.032-1.633s-4.855-.533-5.263-1.775Z" transform="translate(-295.136 -158.06)" fill="#263238"/><path d="M388.172,204.628c-3.337-7.278-12.6-7.438-16.056-2.308s-.825,7.988-3.382,10.331c-3.71,3.364-7.376,4.278-6.213,9.346.888,3.648,8.13,5.751,14.547,3.39C387.5,221.554,392.042,213.034,388.172,204.628Z" transform="translate(-300.668 -162.339)" fill="#263238"/><path d="M388.172,204.628c-3.337-7.278-12.6-7.438-16.056-2.308s-.825,7.988-3.382,10.331c-3.71,3.364-7.376,4.278-6.213,9.346.888,3.648,8.13,5.751,14.547,3.39C387.5,221.554,392.042,213.034,388.172,204.628Z" transform="translate(-300.668 -162.339)" fill="#fff" opacity="0.2"/><path d="M385.487,204.336c-1.473-.257-.728,1.127-1.278,1.385s-.47.32-.151,1.367.8,2.893,2.157,2.379,1.047-1.562,1.429-1.9-.541-.533-.621-1.4A2.121,2.121,0,0,0,385.487,204.336Z" transform="translate(-303.086 -162.96)" fill="#f8951d"/><path d="M384.946,212.746c-1.473-.257-.737,1.127-1.287,1.376s-.47.328-.151,1.376.808,2.885,2.166,2.379,1.038-1.571,1.42-1.9-.541-.541-.621-1.411a2.1,2.1,0,0,0-1.527-1.819Z" transform="translate(-303.024 -163.906)" fill="#f8951d"/><path d="M372.466,220.674c-1.4-.728-1.109.737-1.775.772s-.586.124-.612,1.145-.151,2.814,1.393,2.831,1.571-1.012,2.077-1.172-.382-.657-.169-1.447A1.979,1.979,0,0,0,372.466,220.674Z" transform="translate(-301.54 -164.778)" fill="#f8951d"/><path d="M379.372,204.942c.444-.683-.488-1.846-1.145-1.651s-.639-1.021-1.225-.479-.479,1.243-.533,2.245a3.009,3.009,0,0,0,1.42,2.3c.435.186,1.021.595,1.287-.169S378.813,205.777,379.372,204.942Z" transform="translate(-302.261 -162.777)" fill="#f8951d"/><path d="M378.2,221.664c-.675.435-.124,1.775.6,1.846s.3,1.109,1.065.888.888-.888,1.3-1.775a2.663,2.663,0,0,0-.657-2.5c-.382-.32-.825-.888-1.349-.3S379.053,221.123,378.2,221.664Z" transform="translate(-302.421 -164.676)" fill="#f8951d"/><path d="M374.254,213.889a8.05,8.05,0,0,0,.967-1.953s-2.077-.586-2.663.311a2.263,2.263,0,0,0-.213,1.855S373.846,214.359,374.254,213.889Z" transform="translate(-301.785 -163.797)" fill="#ebb376"/><path d="M319.157,213.15l17.937,4.34,1.518.763-.169.63-1.66-.2-17.733-5.1Z" transform="translate(-295.804 -163.955)" fill="#263238"/><path d="M319.157,213.15l17.937,4.34,1.518.763-.169.63-1.66-.2-17.733-5.1Z" transform="translate(-295.804 -163.955)" fill="#fff" opacity="0.2"/><path d="M343.522,220.485c1.873,0,1.935-1.34,1.935-1.34a2.139,2.139,0,0,1-1.624.16h0a1.065,1.065,0,0,1-.275-.115,5.982,5.982,0,0,0-2.663-.382l-.2.737A3.941,3.941,0,0,0,343.522,220.485Z" transform="translate(-298.238 -164.589)" fill="#263238"/><path d="M343.857,220.53c1.873,0,1.935-1.34,1.935-1.34a2.139,2.139,0,0,1-1.624.16h0c-.257,0-.63.1-.435.479s.888-.124.719.337S343.4,220.051,343.857,220.53Z" transform="translate(-298.573 -164.634)" fill="#f8951d"/><path d="M316.65,225.554l7.207-2.343s1.873-4.562,2.547-4.828,5.37-2.547,6.071-1.926.666,5.325.666,6.213-6.736,4.313-6.736,4.313l-1.509-.115-7.029,2.663Z" transform="translate(-295.534 -164.315)" fill="#ebb376"/><path d="M301.5,201c-4.6,2.8-10.455,29.653-8.112,33.2s27-6.053,27-6.053l-1.207-6.523s-16.349,4.7-17.68,3.266,4.18-12.541,4.18-12.541a36.172,36.172,0,0,0-.763-8.591C304,200.49,301.5,201,301.5,201Z" transform="translate(-292.859 -162.585)" fill="#f8951d"/><path d="M292.87,231.262a10.733,10.733,0,0,0,.053,1.118,4.189,4.189,0,0,0,.47,1.775c.746,1.136,3.772.888,7.544.124l.888-.2c1.775-.408,3.639-.888,5.5-1.491l.888-.257c1.775-.55,3.55-1.127,5.13-1.669l.888-.293c1.873-.657,3.47-1.243,4.571-1.651l.843-.32.754-.284-1.207-6.532-.683.186-.888.249c-1.127.3-2.769.746-4.58,1.2l-.888.213c-1.456.355-2.982.71-4.438.994l-.888.178a30.178,30.178,0,0,1-3.8.515,5.762,5.762,0,0,1-.888,0,1.358,1.358,0,0,1-.612-.177.2.2,0,0,1-.08-.062,1.26,1.26,0,0,1-.2-.888,10.65,10.65,0,0,1,.524-2.494c.1-.3.2-.612.311-.932.213-.621.453-1.269.719-1.917.107-.275.213-.55.328-.825.453-1.1.888-2.157,1.331-3.053.142-.311.266-.595.391-.888.462-.985.772-1.615.772-1.615a43.941,43.941,0,0,0-.249-5.84,17.239,17.239,0,0,0-.515-2.751c-.932-3.231-3.408-2.751-3.408-2.751a1.926,1.926,0,0,0-.328.24c-1.074.888-2.21,3.035-3.284,5.813-.115.293-.222.595-.337.888-.71,1.961-1.393,4.18-2.006,6.488-.071.293-.151.577-.222.888-.533,2.086-.994,4.207-1.376,6.213-.062.3-.115.612-.169.888a49.139,49.139,0,0,0-.861,8.929Z" transform="translate(-292.86 -162.577)" fill="#fff" opacity="0.6"/><g transform="translate(0.01 38.368)" opacity="0.2"><path d="M320.78,224.669c.293,1.7.71,4.163,1.154,6.7l.843-.32c-.426-2.441-.888-4.953-1.136-6.63Z" transform="translate(-296.008 -203.591)"/><path d="M315.508,226.05l-.888.213,1.172,7.234.888-.293Z" transform="translate(-295.316 -203.774)"/><path d="M308.68,227.588l.461,7.988.888-.257-.453-7.908Z" transform="translate(-294.648 -203.927)"/><path d="M304.619,202.708a9.151,9.151,0,0,1,1.873,3.772,17.239,17.239,0,0,0-.515-2.751c-.932-3.231-3.408-2.751-3.408-2.751a1.927,1.927,0,0,0-.328.24A4.917,4.917,0,0,1,304.619,202.708Z" transform="translate(-293.924 -200.952)"/><path d="M305.118,215.553c.142-.311.266-.595.391-.888L298.5,207.76c-.115.293-.222.595-.337.888Z" transform="translate(-293.465 -201.717)"/><path d="M295.65,217l7.526,3.373c.107-.275.213-.55.328-.825l-7.633-3.417C295.8,216.423,295.721,216.707,295.65,217Z" transform="translate(-293.182 -202.659)"/><path d="M293.91,224.952l8.041-.95c.1-.3.2-.612.311-.932l-8.183.967C293.99,224.339,293.99,224.65,293.91,224.952Z" transform="translate(-292.987 -203.439)"/><path d="M303.234,228.17,302,237.356l.888-.2,1.243-8.964a5.763,5.763,0,0,1-.9-.018Z" transform="translate(-293.897 -204.012)"/><path d="M292.87,234.187a10.733,10.733,0,0,0,.053,1.118l8.671-7.455a.2.2,0,0,1-.08-.062,1.26,1.26,0,0,1-.2-.888Z" transform="translate(-292.87 -203.87)"/></g></g><g transform="translate(209.213 175.208)"><path d="M257.49,212.75c3.577.408,11.1,14.423,11.1,14.423l2.015.151s3.976,9.63,1.509,12.088c-1,.994-3.257,1.145-5.867-2.751-3.87-5.734-7.331-12.151-7.331-12.151Z" transform="translate(-225.651 -184.165)" fill="#263238"/><path d="M235.786,184.286s-3.479-7.526-8.538-1.234,3.027,17.467,2.308,23.236-3.284,6.772-3.284,6.772,5.84.825,8.458-3.231S235.786,184.286,235.786,184.286Z" transform="translate(-222.062 -180.543)" fill="#263238"/><path d="M258.064,246.58,227,251.284l.888-25.979,27.221-.666A77.193,77.193,0,0,1,258.064,246.58Z" transform="translate(-222.222 -185.502)" fill="#263238"/><path d="M258.064,246.58,227,251.284l.888-25.979,27.221-.666A77.193,77.193,0,0,1,258.064,246.58Z" transform="translate(-222.222 -185.502)" opacity="0.2"/><path d="M278.593,397.226l4.127-1.127c-1.509-20.8-5.592-45.913-9.062-64.738-.541-2.947-1.065-5.734-1.571-8.334-.249-1.234-.47-2.423-.7-3.55-1.1-5.645-2.033-10.1-2.609-12.852-.417-2.015-.657-3.115-.657-3.115l-14.84,4.3,1.234,3.737,4.083,12.337.462,1.411,2.663,8.148,4.624,13.855C266.975,368.523,278.593,397.226,278.593,397.226Z" transform="translate(-225.177 -194.371)" fill="#ebb376"/><path d="M240.039,396.07l4.26-.417c2.228-22.562,2.316-50.652,2.006-70.17-.044-3.027-.107-5.858-.16-8.414v-.382c-.115-5.077-.249-9.115-.346-11.68l-.124-3.1-15.355,1.713.959,6.39,1.42,9.355.275,1.846.959,6.39,2.565,17.147C233.471,365.769,240.039,396.07,240.039,396.07Z" transform="translate(-222.595 -194.191)" fill="#ebb376"/><path d="M232.818,319.757l13.491-2.325v-.382c-.115-5.077-.249-9.115-.346-11.68l-14.582,5Z" transform="translate(-222.715 -194.58)" opacity="0.2"/><path d="M270.424,314.216l-14.2,2.405-1.553-4.7L268.933,307C269.306,308.775,269.812,311.207,270.424,314.216Z" transform="translate(-225.334 -194.763)" opacity="0.2"/><path d="M230.458,257.807s-9.2,21.505-.6,52.694l16.775-1.917V292.51L250.251,308l16.863-3.373c-5.174-25.313-9.834-36.789-9.834-36.789L256.029,255.1Z" transform="translate(-222.13 -188.927)" fill="#f8951d"/><path d="M230.458,257.807s-9.2,21.505-.6,52.694l16.775-1.917V292.51L250.251,308l16.863-3.373c-5.174-25.313-9.834-36.789-9.834-36.789L256.029,255.1Z" transform="translate(-222.13 -188.927)" fill="#fff" opacity="0.7"/><path d="M239.76,262.717,253,261.546v-4.3l-13.242,1.145Z" transform="translate(-223.657 -189.169)" fill="#263238"/><path d="M237.534,258.65l-6.639.577-.595,4.393,7.234-.648Z" transform="translate(-222.593 -189.326)" fill="#263238"/><path d="M255.82,257.118v4.3l2.973-.266V256.87Z" transform="translate(-225.463 -189.126)" fill="#263238"/><path d="M250.014,257.658a1.535,1.535,0,0,0-1.189-.4l-3.124.266a1.544,1.544,0,0,0-1.42,1.544v2a1.562,1.562,0,0,0,.506,1.145,1.535,1.535,0,0,0,1.047.408h.142l3.124-.275a1.535,1.535,0,0,0,1.411-1.544v-2a1.553,1.553,0,0,0-.5-1.145Zm-.985,3.879-3.124.284a.763.763,0,0,1-.825-.754v-2a.754.754,0,0,1,.692-.746l3.124-.275h.071a.772.772,0,0,1,.506.2.79.79,0,0,1,.24.559v.3h-.124l-.888.071a.533.533,0,0,0,.08,1.056l.888-.062h.044v.657a.737.737,0,0,1-.683.71Z" transform="translate(-224.165 -189.169)" fill="#fff"/><path d="M238.907,406.965c0-.541,6.586-.115,6.586-.115s4.047,4.109,7.988,5.041,1.775,3.284-2.663,3.284H239.937C236.813,415.166,238.765,412.5,238.907,406.965Z" transform="translate(-223.479 -205.973)" fill="#263238"/><path d="M249.956,408.359a8.192,8.192,0,0,1-2.725-.834.055.055,0,0,1-.053-.044h0a.169.169,0,0,1,0-.133c0-.062.577-1.6,1.473-1.97a1.021,1.021,0,0,1,.888,0c.293.142.444.328.426.55s-.488.692-1.021.976a2.743,2.743,0,0,1,1.473.16.719.719,0,0,1,.355.453.639.639,0,0,1-.16.7A.958.958,0,0,1,249.956,408.359Zm-2.121-.941c.967.408,2.174.772,2.485.515,0,0,.107-.089.044-.346a.391.391,0,0,0-.186-.231A4.438,4.438,0,0,0,247.835,407.419Zm1.18-1.775a.71.71,0,0,0-.266.053,2.938,2.938,0,0,0-1.136,1.42c.976-.373,1.917-.888,1.935-1.18,0-.089-.142-.177-.231-.222a.781.781,0,0,0-.3-.107Z" transform="translate(-224.49 -205.814)" fill="#f8951d"/><path d="M280.389,406.965c0-.541,6.594-.115,6.594-.115s4.047,4.109,7.988,5.041,1.775,3.284-2.663,3.284H281.427C278.312,415.166,280.265,412.5,280.389,406.965Z" transform="translate(-228.145 -205.973)" fill="#263238"/><path d="M291.455,408.359a8.122,8.122,0,0,1-2.725-.834.106.106,0,0,1-.062-.044h0a.169.169,0,0,1,0-.133c0-.062.568-1.6,1.464-1.97a1.021,1.021,0,0,1,.888,0c.3.142.444.328.435.55s-.5.692-1.03.976a2.743,2.743,0,0,1,1.473.16.692.692,0,0,1,.355.453.639.639,0,0,1-.16.7A.888.888,0,0,1,291.455,408.359Zm-2.13-.941c.976.408,2.175.772,2.485.515,0,0,.115-.089.044-.346a.364.364,0,0,0-.186-.231A4.438,4.438,0,0,0,289.325,407.419Zm1.18-1.775a.71.71,0,0,0-.266.053,2.876,2.876,0,0,0-1.127,1.42c.976-.373,1.917-.888,1.935-1.18,0-.089-.151-.177-.24-.222a.746.746,0,0,0-.3-.107Z" transform="translate(-229.155 -205.814)" fill="#f8951d"/><path d="M249.2,295.881c2.867-5.929,4.864-10.8,4.864-10.8s.63,14.991-1.243,26.289Z" transform="translate(-224.718 -192.298)" opacity="0.2"/><path d="M230.55,253.045l25.011-2.21s2.432-26.626-1.482-38.085c0,0-.657,0-1.775.08-4.1.222-14.52.994-23.529,3.55-.6.16-1.18.346-1.775.524A135.875,135.875,0,0,1,230.55,253.045Z" transform="translate(-222.222 -184.165)" fill="#f8951d"/><path d="M244.538,219.437c-5.822-.888-7.518-3.426-7.518-3.426,3.79-3.408.888-9.541.888-9.541l6.994,1.482a21.392,21.392,0,0,0-.346,2.956c-.151,4.26,1.775,4.349,1.775,4.349C247.484,217.591,244.538,219.437,244.538,219.437Z" transform="translate(-223.349 -183.458)" fill="#ebb376"/><path d="M244.984,207.952a21.387,21.387,0,0,0-.346,2.956,7.816,7.816,0,0,1-6.648-4.438Z" transform="translate(-223.458 -183.458)" opacity="0.2"/><path d="M235.971,184s-3.55.1-5.121,5.716,1.7,15.514,6.586,14.76S235.971,184,235.971,184Z" transform="translate(-222.61 -180.932)" fill="#263238"/><path d="M235.76,184.334s1-3.044,6.151-2.964c12.248.2,13.358,14.2,10.491,17.946s-8.094,2.92-8.094,2.92Z" transform="translate(-223.207 -180.636)" fill="#263238"/><path d="M249.56,202.89c-.071.2-.142.391-.222.577a5.521,5.521,0,0,1-5.964,3.55,9.368,9.368,0,0,1-1.34-.169c-.275-.053-.577-.115-.888-.2-10.322-2.609-9.186-21.674.976-21.363,6.115.2,7.988,3.55,8.228,9.852a21.638,21.638,0,0,1-.79,7.748Z" transform="translate(-223.002 -181.076)" fill="#ebb376"/><path d="M248,195.9a13.1,13.1,0,0,0,1.7,2.592,1.677,1.677,0,0,1-1.633.639Z" transform="translate(-224.583 -182.27)" fill="#d58745"/><path d="M243.656,195.088c0,.506-.284.888-.612.888s-.612-.408-.6-.888.275-.888.612-.888S243.656,194.582,243.656,195.088Z" transform="translate(-223.958 -182.079)" fill="#263238"/><path d="M243,194.146l1.1-.426S243.524,194.634,243,194.146Z" transform="translate(-224.021 -182.025)" fill="#263238"/><path d="M250.7,195.028c0,.506-.275.888-.612.888s-.6-.408-.6-.888.284-.888.621-.888S250.7,194.522,250.7,195.028Z" transform="translate(-224.75 -182.072)" fill="#263238"/><path d="M250,194.086l1.1-.426S250.559,194.574,250,194.086Z" transform="translate(-224.808 -182.018)" fill="#263238"/><path d="M240.831,191.557a.31.31,0,0,1-.213-.533,3.5,3.5,0,0,1,2.982-.95.324.324,0,1,1-.106.639,2.867,2.867,0,0,0-2.388.728A.3.3,0,0,1,240.831,191.557Z" transform="translate(-223.743 -181.61)" fill="#263238"/><path d="M251.292,191.157a.275.275,0,0,1-.186-.062,2.574,2.574,0,0,0-2.139-.533.323.323,0,0,1-.2-.612,3.2,3.2,0,0,1,2.716.621.328.328,0,0,1,.071.453.311.311,0,0,1-.257.133Z" transform="translate(-224.644 -181.592)" fill="#263238"/><path d="M234.93,195.113s3.018-4.944,2.707-8.875c0,0,12.275-4.571,12.488,7.748,0,0,1.527-10.881-8.982-11.458s-10.943,14.8-5.663,19.526C235.48,202.134,233.057,198.193,234.93,195.113Z" transform="translate(-222.803 -180.764)" fill="#263238"/><path d="M235.8,197.877a2.663,2.663,0,0,0-2.814-2.547c-1.9.151-2.929,4.012,1.775,5.095C235.42,200.584,235.819,199.927,235.8,197.877Z" transform="translate(-222.716 -182.205)" fill="#ebb376"/><path d="M247.089,201.778a3.346,3.346,0,0,1-3.231-1.926.223.223,0,0,1,.417-.16,2.84,2.84,0,0,0,2.8,1.642h.106a.222.222,0,0,1,0,.444Z" transform="translate(-224.116 -182.68)" fill="#263238"/><path d="M229,216.408c.24.231,8.92,8.68,16.242,6.568,6.994-2.024,7.278-9.275,7.287-10.136A117.6,117.6,0,0,0,229,216.408Z" transform="translate(-222.447 -184.175)" fill="#ebb376"/><path d="M224.69,253.435l.888.763.426.373c7.482-14.982,3.683-38.351,3.683-38.351l-2.947,1.092c.2,3.666.2,7.438.107,11.094a228.9,228.9,0,0,1-2.157,25.029Z" transform="translate(-221.962 -184.555)" fill="#263238"/><path d="M253.88,212.75s7.988,17.387,6.062,35.387l1.518-1.216s-.178-26.378-4.376-34.171Z" transform="translate(-225.245 -184.165)" fill="#263238"/><path d="M270.032,228.656l-2.982-4.438s-.639-2.068-1.722-2.512-4.438-.95-5.325-.648-1.322,3.16-1.322,3.16l6.621,2.13,1.837,3.639Z" transform="translate(-225.784 -185.089)" fill="#ebb376"/><path d="M248.284,182.109a8.68,8.68,0,0,0-4.163.2h0a3.843,3.843,0,0,0-2.405.133,14.911,14.911,0,0,0-4.775.6l-2.751,8.157.231.444,3.106-7.677c.994,1.03,3.027,2.663,4.731,2.388,2.263-.311,1.1-2.237.444-3.142a1.225,1.225,0,0,1,1.606-.124,6.151,6.151,0,0,0,4.784,2.663C251.639,185.686,248.284,182.109,248.284,182.109Z" transform="translate(-223.031 -180.701)" fill="#f8951d"/><path d="M248.284,182.109a8.68,8.68,0,0,0-4.163.2h0a3.843,3.843,0,0,0-2.405.133,14.911,14.911,0,0,0-4.775.6l-2.751,8.157.231.444,3.106-7.677c.994,1.03,3.027,2.663,4.731,2.388,2.263-.311,1.1-2.237.444-3.142a1.225,1.225,0,0,1,1.606-.124,6.151,6.151,0,0,0,4.784,2.663C251.639,185.686,248.284,182.109,248.284,182.109Z" transform="translate(-223.031 -180.701)" opacity="0.2"/><g transform="translate(16.769 1.604)" opacity="0.3"><path d="M249.18,182.388l.506,2.991s1.731.426,1.651-.479a6.949,6.949,0,0,0-1.411-2.485,2.814,2.814,0,0,0-.746-.027Z" transform="translate(-241.485 -182.353)" fill="#fff"/><path d="M248.663,182.35l.524,3.018s-.772-.186-.888-.382l-.479-2.574S248.415,182.359,248.663,182.35Z" transform="translate(-241.332 -182.35)" fill="#fff"/><path d="M241.87,183l.5,2.991s1.731.426,1.66-.479a6.8,6.8,0,0,0-1.42-2.485,2.743,2.743,0,0,0-.737-.027Z" transform="translate(-240.663 -182.421)" fill="#fff"/><path d="M241.344,183l.524,3.018s-.763-.178-.888-.382l-.47-2.574S241.1,183,241.344,183Z" transform="translate(-240.51 -182.423)" fill="#fff"/></g><path d="M256.929,227.6a.47.47,0,0,1-.266-.08c-2-1.464-3.275-4.438-4.518-7.26-1.34-3.071-2.609-5.982-4.509-6.444a.435.435,0,0,1-.328-.533.444.444,0,0,1,.533-.328c2.334.559,3.692,3.666,5.121,6.95,1.189,2.743,2.423,5.574,4.225,6.9a.444.444,0,0,1,.1.621A.453.453,0,0,1,256.929,227.6Z" transform="translate(-224.504 -184.187)" fill="#263238"/><rect width="12.905" height="8.769" rx="1.54" transform="translate(40.129 47.1) rotate(180)" fill="#263238"/><rect width="12.905" height="8.769" rx="1.54" transform="translate(40.129 47.1) rotate(180)" fill="#fff" opacity="0.7"/><path d="M251.847,223.73h1.491a1.207,1.207,0,0,0-1.207,1.207v6.355a1.207,1.207,0,0,0,1.207,1.207h-1.491a1.207,1.207,0,0,1-1.207-1.207v-6.355a1.207,1.207,0,0,1,1.207-1.207Z" transform="translate(-224.88 -185.399)" fill="#263238"/><path d="M251.847,223.73h1.491a1.207,1.207,0,0,0-1.207,1.207v6.355a1.207,1.207,0,0,0,1.207,1.207h-1.491a1.207,1.207,0,0,1-1.207-1.207v-6.355a1.207,1.207,0,0,1,1.207-1.207Z" transform="translate(-224.88 -185.399)" fill="#fff" opacity="0.3"/><path d="M257.39,228.623a2.973,2.973,0,0,0,2.982,2.982h1.775a2.982,2.982,0,1,0,0-5.955h-1.775a2.973,2.973,0,0,0-2.982,2.973Z" transform="translate(-225.639 -185.615)" fill="#263238"/><path d="M257.39,228.623a2.973,2.973,0,0,0,2.982,2.982h1.775a2.982,2.982,0,1,0,0-5.955h-1.775a2.973,2.973,0,0,0-2.982,2.973Z" transform="translate(-225.639 -185.615)" fill="#fff" opacity="0.4"/><path d="M259.6,228.663A2.663,2.663,0,1,0,262.263,226a2.663,2.663,0,0,0-2.663,2.663Z" transform="translate(-225.888 -185.655)" fill="#263238"/><path d="M259.6,228.663A2.663,2.663,0,1,0,262.263,226a2.663,2.663,0,0,0-2.663,2.663Z" transform="translate(-225.888 -185.655)" fill="#fff" opacity="0.2"/><path d="M260.2,228.728a2.157,2.157,0,1,0,2.148-2.148,2.157,2.157,0,0,0-2.148,2.148Z" transform="translate(-225.955 -185.72)" fill="#263238"/><rect width="2.237" height="1.393" rx="0.54" transform="translate(30.41 40.354) rotate(180)" fill="#fff"/><path d="M243.22,236.232l9-4.021s1.118-1.047,3.852-.825c.417,0,1.775,1.873,5.556.825a4.225,4.225,0,0,1-.79,3.124c-1.074,1.092-8.157.364-8.157.364l-7.1,4.065Z" transform="translate(-224.046 -186.257)" fill="#ebb376"/><path d="M223.208,218.595c-4.793,2.441,2.316,22.189,7.1,24.124s17.068-6.745,17.068-6.745l-3.009-3.444s-11.245,4.748-12.532,3.994-5.441-19.073-5.441-19.073Z" transform="translate(-221.617 -184.693)" fill="#263238"/><path d="M242.487,229.721a5.76,5.76,0,0,1-.577,0c-3.24-.4-5.521-3.8-6.577-6.852-1.18-3.426-.976-6.594.506-8.086a.453.453,0,0,1,.63,0,.444.444,0,0,1,0,.63c-1.225,1.225-1.349,4.109-.293,7.163.888,2.663,3,5.911,5.84,6.266,2.228.266,4.553-1.358,6.719-4.7a.444.444,0,0,1,.746.479C246.792,228.727,244.28,229.721,242.487,229.721Z" transform="translate(-223.073 -184.379)" fill="#263238"/></g><g transform="translate(111.316 160.95)"><g transform="translate(0 0)"><path d="M190.311,393.748S175.5,311.357,175.32,264.938l15.017-.488s-2.148,42.6,6.435,128.988Z" transform="translate(-118.513 -175.721)" fill="#e4897b"/><path d="M150.417,392.991s-4.047-83.7,1.775-129.751l14.937,1.562s-7.624,41.91-10.269,128.695Z" transform="translate(-115.559 -175.584)" fill="#e4897b"/><path d="M157.67,413.2l-.95-4.287-.16-7.731h-6.417a1.58,1.58,0,0,0-2.574-1.056l-.888,7.1c-1.633,1.464-5.476,3.009-10.588,4.127-1.136.249-.772,3,2.006,3s8.876-.213,10.872-.213c3.275,0,5.174.16,7.775.2a.885.885,0,0,0,.213,0A.967.967,0,0,0,157.67,413.2Z" transform="translate(-114.034 -190.937)" fill="#263238"/><path d="M199.693,413.2l-.95-4.287-1.438-7.731h-6.461a1.58,1.58,0,0,0-2.574-1.056l.382,7.1c-1.633,1.464-5.476,3.009-10.588,4.127-1.136.249-.772,3,2.006,3s8.875-.213,10.881-.213c3.266,0,5.166.16,7.775.2a.885.885,0,0,0,.213,0,.976.976,0,0,0,.754-1.145Z" transform="translate(-118.754 -190.937)" fill="#263238"/><path d="M196.182,251.577l-45.922-3.453S160.511,213.448,163.573,209s13.313-8.591,13.313-8.591l12.861,2.574Z" transform="translate(-115.695 -168.519)" fill="#f8951d"/><path d="M196.182,251.577l-45.922-3.453S160.511,213.448,163.573,209s13.313-8.591,13.313-8.591l12.861,2.574Z" transform="translate(-115.695 -168.519)" opacity="0.2"/><path d="M164.479,304.915c1.216-7.881,2.663-14.742,4.526-19.81.257,3.328,1,10.509,2.015,19.81h20.023c-.648-24.692-1-53.129-1.047-56.705H153.367c-1.589,8.929-4.7,30.274-6.887,56.705Z" transform="translate(-115.27 -173.894)" fill="#263238"/><path d="M164.479,304.915c1.216-7.881,2.663-14.742,4.526-19.81.257,3.328,1,10.509,2.015,19.81h20.023c-.648-24.692-1-53.129-1.047-56.705H153.367c-1.589,8.929-4.7,30.274-6.887,56.705Z" transform="translate(-115.27 -173.894)" fill="#fff" opacity="0.2"/><path d="M171.321,288.074a103.443,103.443,0,0,0-4.092,16.375c-1.03-14.485,3.071-29.839,3.071-29.839Z" transform="translate(-117.585 -176.863)" opacity="0.2"/><path d="M172.83,310.445l.24,2.361,21.559-1.038V309.46Z" transform="translate(-118.233 -180.782)" fill="#f8951d"/><path d="M145.92,310.02l19.3.737-.533,2.112-18.763-1Z" transform="translate(-115.207 -180.845)" fill="#f8951d"/><path d="M151.287,214.38l-9.151,17.085L123.4,230.374a26.954,26.954,0,0,0,1.722,2.787c1.03,1.456,5.476,2.139,5.9,1.775a20.575,20.575,0,0,1,1.775-1.083s13.508,2.538,15.221,2.37,7.1-18.354,7.1-18.354Z" transform="translate(-112.675 -170.09)" fill="#e4897b"/><path d="M123.4,230.363a27.743,27.743,0,0,0,1.722,2.787c1.03,1.456,5.476,2.139,5.9,1.775a19.093,19.093,0,0,1,1.775-1.092s13.508,2.547,15.221,2.37c.666-.062,1.882-2.84,3.115-6.213,1.961-5.325,3.976-12.151,3.976-12.151l-3.843-3.55-3.55,6.63-5.6,10.455Z" transform="translate(-112.675 -170.08)" opacity="0.2"/><path d="M150.82,221c.213,3.444,1.074,6.905,3.311,8.938l.107.089c1.961-5.325,3.976-12.151,3.976-12.151l-3.843-3.55Z" transform="translate(-115.758 -170.085)" opacity="0.2"/><path d="M163.443,199.71c-2.29.506-12.293,14.121-12.293,14.121l7.012,6.071Z" transform="translate(-115.795 -168.44)" fill="#f8951d"/><path d="M163.443,199.71c-2.29.506-12.293,14.121-12.293,14.121l7.012,6.071Z" transform="translate(-115.795 -168.44)" fill="#fff" opacity="0.2"/><path d="M160.6,251.826l-5.059-.062.435-3.6H160.6Z" transform="translate(-116.289 -173.889)"/><path d="M181.86,248.16h10.855v4.021l-10.855-.133Z" transform="translate(-119.249 -173.889)"/><path d="M178.487,252.039l-15.887-.2V248.16h15.887Z" transform="translate(-117.083 -173.889)"/><rect width="6.248" height="4.5" transform="translate(48.828 73.57)" fill="#fff"/><path d="M189.806,242.712H156s-.426-24.106,7.988-43l35.5,5.387a2.45,2.45,0,0,1,1.846,3.47C198.6,214.381,192.629,228.014,189.806,242.712Z" transform="translate(-116.34 -168.44)" fill="#f8951d"/><path d="M189.806,242.712H156s-.426-24.106,7.988-43l35.5,5.387a2.45,2.45,0,0,1,1.846,3.47C198.6,214.381,192.629,228.014,189.806,242.712Z" transform="translate(-116.34 -168.44)" fill="#fff" opacity="0.6"/><path d="M181.437,203.758s7.1,1.287,10.083-1.225c-1.367-1.633-1.6-4.438-1.3-7.376a37.382,37.382,0,0,1,1.172-6.133c.169-.648.355-1.251.524-1.775l-9.062,6.115.053.426c0,.408.08.834.089,1.251a7.748,7.748,0,0,1-.4,2.973c-.328.825-.355,1.456-.746,1.882a3.142,3.142,0,0,1-2.1.754C178.748,201.974,181.437,203.758,181.437,203.758Z" transform="translate(-118.986 -167.039)" fill="#e4897b"/><path d="M182.14,200.1a14.1,14.1,0,0,0,8.37-4.713,37.386,37.386,0,0,1,1.172-6.133l-8.485,4.74c0,.408.08.834.089,1.251a7.748,7.748,0,0,1-.4,2.973C182.557,199.04,182.531,199.679,182.14,200.1Z" transform="translate(-119.28 -167.264)" opacity="0.2"/><path d="M198.987,183.895c-2.192-.24-9.657-4.509-9.657-4.509l4.7-4.216s8.378,7.2,8.556,8.192S198.987,183.895,198.987,183.895Z" transform="translate(-120.089 -165.681)" fill="#f8951d"/><path d="M198.987,183.895c-2.192-.24-9.657-4.509-9.657-4.509l4.7-4.216s8.378,7.2,8.556,8.192S198.987,183.895,198.987,183.895Z" transform="translate(-120.089 -165.681)" opacity="0.2"/><path d="M175.8,170.76s-2.565,8.316,1.456,12.257,6.39-11.884,6.39-11.884Z" transform="translate(-118.476 -165.185)" fill="#263238"/><path d="M189.326,191.608a7.81,7.81,0,0,1-9.31,1.669,8.912,8.912,0,0,1-4.6-5.618c-1.438-5.529-.79-14.716,5.219-17.307a8.467,8.467,0,0,1,11.831,8.219C192.237,184.747,192.388,188.395,189.326,191.608Z" transform="translate(-118.452 -165.06)" fill="#e4897b"/><path d="M184.038,181.758c.044.5-.249.888-.577.888s-.6-.4-.621-.888.249-.888.577-.888S184.02,181.252,184.038,181.758Z" transform="translate(-119.359 -166.322)" fill="#263238"/><path d="M177.628,181.888c.044.5-.249.888-.577.888s-.6-.4-.621-.888.257-.888.586-.888S177.619,181.417,177.628,181.888Z" transform="translate(-118.638 -166.337)" fill="#263238"/><path d="M179.527,182.24a18.017,18.017,0,0,1-2.317,4.358,2.947,2.947,0,0,0,2.432.4Z" transform="translate(-118.726 -166.476)" fill="#de5753"/><path d="M175.356,179.28a.3.3,0,0,0,.311,0,2.379,2.379,0,0,1,2.086-.435.3.3,0,1,0,.2-.559h0a2.982,2.982,0,0,0-2.663.524.293.293,0,0,0-.071.408h0A.514.514,0,0,0,175.356,179.28Z" transform="translate(-118.496 -166.018)" fill="#263238"/><path d="M185.053,179.147a.355.355,0,0,0,.169-.062.293.293,0,0,0,0-.417h0a2.929,2.929,0,0,0-2.618-.648.293.293,0,0,0-.2.373h0a.293.293,0,0,0,.364.2h0a2.37,2.37,0,0,1,2.068.541A.3.3,0,0,0,185.053,179.147Z" transform="translate(-119.309 -165.992)" fill="#263238"/><path d="M189.348,171.13l-.568,1.154c2.024.728,1.553,3.08,1.118,4.145-.941,2.263.257,5.849,1.979,7.313,0,0,.08-.994.888-.737s.462,5.423-1.243,7.846c0,0,2.53-2.166,4.074-7.553,1.42-4.979,1.7-9.16.719-11.121Z" transform="translate(-120.027 -165.227)" fill="#263238"/><path d="M197.1,184.857a5.9,5.9,0,0,1-3.311,3.044c-1.935.692-3.053-1.012-2.663-2.92.382-1.7,1.837-4.154,3.852-4.012a2.663,2.663,0,0,1,2.121,3.887Z" transform="translate(-120.282 -166.332)" fill="#e4897b"/><path d="M175.176,173.116s5.121-1.447,20.92,3.479c0,0,2.405-5.716-3.55-9.843S173.747,163.761,175.176,173.116Z" transform="translate(-118.485 -164.479)" fill="#f8951d"/><path d="M177.432,171.625a20.156,20.156,0,0,1,5.8.888s.817-3.16.355-3.382-5.325-1.447-5.512-4.021a2.929,2.929,0,0,0-.639,3.453,2.787,2.787,0,0,1-2.8-1.58S173.376,169.983,177.432,171.625Z" transform="translate(-118.416 -164.55)" fill="#263238"/><path d="M193.76,176.67l4.669.541s4.713,4.961,5.121,6.213-4.065.648-4.065.648,3.47.053,3.275-.648S193.76,176.67,193.76,176.67Z" transform="translate(-120.587 -165.85)" fill="#f8951d"/><path d="M193.76,176.67l4.669.541s4.713,4.961,5.121,6.213-4.065.648-4.065.648,3.47.053,3.275-.648S193.76,176.67,193.76,176.67Z" transform="translate(-120.587 -165.85)" fill="#fff" opacity="0.2"/><path d="M180.1,190.117h-.47a.213.213,0,0,1-.2-.231.2.2,0,0,1,.231-.2c3.479.186,4.242-1.953,4.278-2.041a.222.222,0,0,1,.275-.142.231.231,0,0,1,.142.284C184.32,187.863,183.539,190.117,180.1,190.117Z" transform="translate(-118.975 -167.066)" fill="#263238"/><path d="M188.78,203.32s.541,40.144,9.994,55.365l10.3-5.13a78.5,78.5,0,0,1-6.115-24.78,46,46,0,0,1,1.5-15.736,32.768,32.768,0,0,1,1.589-4.349c.612-1.376-.817-2.876-2.317-3.106Z" transform="translate(-120.027 -168.846)" fill="#f8951d"/><path d="M196.919,201.47,188.78,203.1l2.024,6.807,7.97-5.29Z" transform="translate(-120.027 -168.638)" fill="#f8951d"/><path d="M196.919,201.47,188.78,203.1l2.024,6.807,7.97-5.29Z" transform="translate(-120.027 -168.638)" fill="#fff" opacity="0.2"/><path d="M174.192,200.7l-3.213,4.6s-9.16,4.438-19.588,48.993l-5.751-4.819s12.568-46.366,17.183-49.756Z" transform="translate(-115.176 -168.44)" fill="#f8951d"/><path d="M179.551,200.247l-5.361,4.97,1.944-5.112,1.944-1.145Z" transform="translate(-118.386 -168.356)" fill="#f8951d"/><path d="M179.551,200.247l-5.361,4.97,1.944-5.112,1.944-1.145Z" transform="translate(-118.386 -168.356)" fill="#fff" opacity="0.2"/><path d="M183.2,184.6a2.494,2.494,0,1,1,2.174-2.476A2.334,2.334,0,0,1,183.2,184.6Zm0-4.509a2.059,2.059,0,1,0,1.731,2.032A1.89,1.89,0,0,0,183.2,180.092Z" transform="translate(-119.083 -166.183)" fill="#263238"/><path d="M176.5,184.371a2.494,2.494,0,1,1,2.174-2.476A2.343,2.343,0,0,1,176.5,184.371Zm0-4.509a2.059,2.059,0,1,0,1.731,2.033,1.9,1.9,0,0,0-1.731-1.961Z" transform="translate(-118.33 -166.157)" fill="#263238"/><path d="M180.961,182.535s-1.065-.728-1.775-.178L178.92,182c.976-.746,2.254.133,2.308.169Z" transform="translate(-118.918 -166.416)" fill="#263238"/><rect width="6.452" height="0.444" transform="matrix(0.98, -0.199, 0.199, 0.98, 66.042, 15.706)" fill="#263238"/><path d="M193.49,227.488s5.077,3.24,10,2.37a46,46,0,0,1,1.5-15.736c-.444-.737-.746-1.172-.746-1.172Z" transform="translate(-120.556 -169.929)" opacity="0.2"/><path d="M191.448,214.38s-8.281,11.627-9.044,12.426-20.369,0-20.369,0-2.734-1.935-3.08-2.166a55.356,55.356,0,0,0-8.707-.231c-.524.231.275,5.325.843,5.929s7.145,1.411,7.864,1.127a5.254,5.254,0,0,1,1.944-.16s21.452,1.917,23.529,1.127,10.5-9.577,10.5-9.577Z" transform="translate(-115.675 -170.09)" fill="#e4897b"/><path d="M206.228,206.614c6.151,4.118-5.592,21.381-5.592,21.381l-9.577-8.8S199.483,202.105,206.228,206.614Z" transform="translate(-120.283 -169.132)" fill="#f8951d"/><path d="M206.228,206.614c6.151,4.118-5.592,21.381-5.592,21.381l-9.577-8.8S199.483,202.105,206.228,206.614Z" transform="translate(-120.283 -169.132)" fill="#fff" opacity="0.2"/><path d="M159.93,233.218l-.106,1.056a1.393,1.393,0,0,1-1.456,1.251l-39.15-3.852a1.464,1.464,0,0,1-1.278-1.509l.106-1.065Z" transform="translate(-112.061 -171.745)" fill="#263238"/><path d="M159.93,233.218l-.106,1.056a1.393,1.393,0,0,1-1.456,1.251l-39.15-3.852a1.464,1.464,0,0,1-1.278-1.509l.106-1.065Z" transform="translate(-112.061 -171.745)" fill="#fff" opacity="0.2"/><path d="M145.312,231.78l-.1,1.065a1.4,1.4,0,0,1-1.456,1.243l-24.541-2.414a1.464,1.464,0,0,1-1.278-1.509l.106-1.065Z" transform="translate(-112.061 -171.745)" fill="#fff" opacity="0.2"/><path d="M143.1,230.5l-25.854-2.538a2.121,2.121,0,0,1-1.775-1.571L111.364,207.2a1.038,1.038,0,0,1,1.136-1.34l25.863,2.538a2.166,2.166,0,0,1,1.775,1.624l4.109,19.162A1.021,1.021,0,0,1,143.1,230.5Z" transform="translate(-111.316 -169.131)" fill="#263238"/><path d="M143.1,230.5l-25.854-2.538a2.121,2.121,0,0,1-1.775-1.571L111.364,207.2a1.038,1.038,0,0,1,1.136-1.34l25.863,2.538a2.166,2.166,0,0,1,1.775,1.624l4.109,19.162A1.021,1.021,0,0,1,143.1,230.5Z" transform="translate(-111.316 -169.131)" fill="#fff" opacity="0.2"/><path d="M142.1,230.4l-24.851-2.441a2.121,2.121,0,0,1-1.775-1.571L111.364,207.2a1.038,1.038,0,0,1,1.136-1.34l24.851,2.441a2.157,2.157,0,0,1,1.775,1.624l4.136,19.136a1.012,1.012,0,0,1-1.163,1.34Z" transform="translate(-111.316 -169.131)" fill="#fff" opacity="0.2"/><path d="M131.06,220.413c.2,1.269-.515,2.21-1.6,2.1a2.947,2.947,0,0,1-2.317-2.494c-.2-1.269.524-2.21,1.6-2.1A2.947,2.947,0,0,1,131.06,220.413Z" transform="translate(-113.092 -170.487)" fill="#fff" opacity="0.2"/></g></g></g></svg>