<svg xmlns="http://www.w3.org/2000/svg" width="250" height="227.746" viewBox="0 0 250 227.746"><g transform="translate(-56.11 -73.749)"><g transform="translate(56.11 286.899)"><ellipse cx="125" cy="7.298" rx="125" ry="7.298" fill="#f5f5f5"/></g><g transform="translate(215.124 117.883)"><path d="M318.188,228.419l-6.847.348-2.624-2.237a1.741,1.741,0,0,0-1.077-.406l-2.43-.064a1.721,1.721,0,0,0-1.393.645l-.69.877a1.7,1.7,0,0,0-.367,1.057v1.141a1.715,1.715,0,0,0,1.025,1.586l3.836,1.683a1.747,1.747,0,0,0,.961.123l2.94-.464,8.143.445Z" transform="translate(-302.76 -171.999)" fill="#b25b52"/><path d="M322.626,218.058a1.65,1.65,0,0,0,1.38,1.605,14.823,14.823,0,0,0,9.741-1.438c5.093-2.972,3.978-20.063,2.927-24.556a49.825,49.825,0,0,1-1.289-8.62c-3.056.593-6.743,3.584-6.911,9.406s1.251,15.157.967,16.691c-.181.986-3.443,1.289-5.751,1.38a1.657,1.657,0,0,0-1.541,2.082A14.015,14.015,0,0,1,322.626,218.058Z" transform="translate(-309.629 -157.429)" fill="#263238"/><path d="M322.626,218.058a1.65,1.65,0,0,0,1.38,1.605,14.823,14.823,0,0,0,9.741-1.438c5.093-2.972,3.978-20.063,2.927-24.556a49.825,49.825,0,0,1-1.289-8.62c-2.521.309-6.743,3.584-6.911,9.406s1.251,15.157.967,16.691c-.181.986-3.443,1.289-5.751,1.38a1.657,1.657,0,0,0-1.541,2.082A14.015,14.015,0,0,1,322.626,218.058Z" transform="translate(-309.629 -157.429)" fill="#fff" opacity="0.5"/><path d="M345.03,405.114h-4.893L339.93,393.8h4.893Z" transform="translate(-315.967 -231.599)" fill="#b25b52"/><path d="M335,410.48h5.345a.4.4,0,0,1,.406.329l.864,4.332a.748.748,0,0,1-.593.864.475.475,0,0,1-.135,0c-1.934-.032-4.706-.148-7.13-.148-2.824,0-3.056.155-6.376.155-2.005,0-2.508-2.024-1.67-2.2,3.868-.838,4.758-.928,8.1-2.972A2.289,2.289,0,0,1,335,410.48Z" transform="translate(-310.775 -237.525)" fill="#263238"/><path d="M339.93,393.81l.11,5.834h4.887l-.1-5.834Z" transform="translate(-315.967 -231.602)" opacity="0.2"/><path d="M336.242,409.826a1.786,1.786,0,0,1-1.167-.3.6.6,0,0,1-.2-.554.355.355,0,0,1,.193-.3c.587-.335,2.5.645,2.721.767a.11.11,0,0,1,.052.148.1.1,0,0,1-.084.058,7.978,7.978,0,0,1-1.515.181Zm-.832-1.006a.5.5,0,0,0-.213.045.135.135,0,0,0-.071.122.393.393,0,0,0,.129.367,3.025,3.025,0,0,0,2.147.129,6.208,6.208,0,0,0-2.011-.664Z" transform="translate(-314.168 -236.858)" fill="#f8951d"/><path d="M338.407,409.032h-.052c-.58-.264-1.7-1.289-1.6-1.85,0-.122.122-.284.438-.316a.819.819,0,0,1,.645.193,3.319,3.319,0,0,1,.7,1.857.1.1,0,0,1-.116.116Zm-1.141-1.934H337.2c-.206,0-.226.1-.232.129-.058.322.7,1.141,1.289,1.5a2.643,2.643,0,0,0-.587-1.489.6.6,0,0,0-.4-.129Z" transform="translate(-314.837 -236.239)" fill="#f8951d"/><path d="M398.749,400.461l-4.668,1.457-3.572-10.741,4.668-1.457Z" transform="translate(-333.938 -230.149)" fill="#b25b52"/><path d="M391.389,406.892l5.1-1.592a.419.419,0,0,1,.49.2l2.108,3.868a.735.735,0,0,1-.3,1l-.129.052c-1.844.542-4.513,1.289-6.847,1.986-2.7.838-2.875,1.057-6.041,2.044-1.934.6-3-1.18-2.25-1.612,3.417-1.934,4.261-2.3,6.847-5.248A2.366,2.366,0,0,1,391.389,406.892Z" transform="translate(-331.368 -235.678)" fill="#263238"/><path d="M390.51,391.187l2.076,6.241,4.668-1.463-2.076-6.234Z" transform="translate(-333.938 -230.153)" opacity="0.2"/><path d="M391.794,408.248a1.76,1.76,0,0,1-1.206.064.645.645,0,0,1-.355-.471.355.355,0,0,1,.1-.342c.458-.49,2.579-.129,2.824-.077a.116.116,0,0,1,.1.122.135.135,0,0,1-.064.09,8.379,8.379,0,0,1-1.392.612Zm-1.07-.7a.431.431,0,0,0-.193.1.123.123,0,0,0-.032.135.4.4,0,0,0,.232.316,2.889,2.889,0,0,0,2.089-.516,6.022,6.022,0,0,0-2.1-.039Z" transform="translate(-333.836 -236.376)" fill="#f8951d"/><path d="M393.644,406.864H393.6c-.645-.077-2.005-.735-2.076-1.289-.039-.122,0-.309.316-.432a.806.806,0,0,1,.645,0c.709.309,1.2,1.515,1.225,1.567a.129.129,0,0,1,0,.11.155.155,0,0,1-.064.045Zm-1.663-1.5h-.071c-.193.065-.181.161-.181.193.045.322,1.012.883,1.676,1.044a2.63,2.63,0,0,0-1-1.244.606.606,0,0,0-.426.006Z" transform="translate(-334.293 -235.605)" fill="#f8951d"/><path d="M335.06,251.392l1.1,57.378.3,34.988a1.753,1.753,0,0,0,1.638,1.812h5.8a1.721,1.721,0,0,0,1.631-1.67c.7-7.852,3.475-20.3,2.231-34.968,0,0,4.178-38.5,4.429-50.254l-.941-10.457Z" transform="translate(-314.236 -179.873)" fill="#263238"/><path d="M335.06,251.392l1.1,57.378.3,34.988a1.753,1.753,0,0,0,1.638,1.812h5.8a1.721,1.721,0,0,0,1.631-1.67c.7-7.852,3.475-20.3,2.231-34.968,0,0,4.178-38.5,4.429-50.254l-.941-10.457Z" transform="translate(-314.236 -179.873)" fill="#fff" opacity="0.1"/><path d="M355.933,270.31a223.422,223.422,0,0,0,.993,29.624s1.405-15.789,2.186-22.113Z" transform="translate(-321.61 -187.722)" opacity="0.1"/><path d="M350.76,253.528l12.307,58.5,11.843,34.085a1.541,1.541,0,0,0,2.018,1.025l6.067-2.231a1.857,1.857,0,0,0,1.012-2.16c-1.715-7.478-3.223-19.889-8.877-32.705,0,0-3.391-37.109-7.956-56.952Z" transform="translate(-319.815 -181.604)" fill="#263238"/><path d="M350.76,253.528l12.307,58.5,11.843,34.085a1.541,1.541,0,0,0,2.018,1.025l6.067-2.231a1.857,1.857,0,0,0,1.012-2.16c-1.715-7.478-3.223-19.889-8.877-32.705,0,0-3.391-37.109-7.956-56.952Z" transform="translate(-319.815 -181.604)" fill="#fff" opacity="0.1"/><path d="M356.263,175.925c-1-3.088-.787-7.511-.458-10.315l-6.685,6.615a8.033,8.033,0,0,1,.419,3.675,1.335,1.335,0,0,1-1.154,1.128l-2.85.89-.335,2.2,1.721.445,2.308,2.36,5.57-2.36,5.963-2.779a10.862,10.862,0,0,0-2.779-.516,2.411,2.411,0,0,1-1.721-1.347Z" transform="translate(-317.839 -150.522)" fill="#b25b52"/><path d="M355.3,170.63l-3.868,3.778a9.148,9.148,0,0,1,.374,2.147,5.788,5.788,0,0,0,3.991-3.623C356.13,171.836,355.717,170.727,355.3,170.63Z" transform="translate(-320.053 -152.305)" opacity="0.2"/><path d="M355.19,153.81c-.284,5.08-.2,8.065-2.759,10.683-3.836,3.939-10.122,1.625-11.347-3.43-1.115-4.584-.445-12.1,4.513-14.138a6.931,6.931,0,0,1,9.587,6.885Z" transform="translate(-316.212 -143.692)" fill="#b25b52"/><path d="M350.161,159.566c-.039.413-.284.729-.554.7s-.458-.38-.419-.793.29-.722.561-.7S350.2,159.14,350.161,159.566Z" transform="translate(-319.254 -148.094)" fill="#263238"/><path d="M342.951,159c-.045.413-.29.729-.561.7s-.451-.374-.413-.787.284-.729.554-.7S342.989,158.59,342.951,159Z" transform="translate(-316.692 -147.892)" fill="#263238"/><path d="M352.307,156.434a.458.458,0,0,0,.116-.052.258.258,0,0,0,0-.348,2.443,2.443,0,0,0-2.14-.574.245.245,0,0,0-.168.3.239.239,0,0,0,.3.168h0a1.9,1.9,0,0,1,1.683.477A.251.251,0,0,0,352.307,156.434Z" transform="translate(-319.582 -146.897)" fill="#263238"/><path d="M340.669,156.052a.232.232,0,0,0,.232,0,1.934,1.934,0,0,1,1.741-.142.239.239,0,0,0,.322-.11.245.245,0,0,0-.1-.329,2.411,2.411,0,0,0-2.218.161.226.226,0,0,0-.09.316h0a.226.226,0,0,0,.116.1Z" transform="translate(-316.176 -146.85)" fill="#263238"/><path d="M354.494,159.383a3.939,3.939,0,0,0-2.792-1.154h-2.334a2.508,2.508,0,0,0-5-.116.748.748,0,0,0-.554,0,2.482,2.482,0,1,0,0,.367.406.406,0,0,1,.516,0,2.508,2.508,0,0,0,5.016.071h2.334a3.6,3.6,0,0,1,2.579,1.064l.754.754.226-.232Zm-13.165,1.206a2.2,2.2,0,1,1,2.2-2.2A2.2,2.2,0,0,1,341.329,160.589Zm5.531,0a2.2,2.2,0,1,1,2.2-2.2,2.2,2.2,0,0,1-2.2,2.2Z" transform="translate(-315.587 -147.041)" fill="#263238"/><path d="M360.352,156a5.841,5.841,0,0,0,0,3.933,1.793,1.793,0,0,1,.754-.193.935.935,0,0,1,.851.348A1.367,1.367,0,0,1,362,161.17q-.593,2.418-1.289,4.8a15.544,15.544,0,0,0,4.455-9.6C363.634,156.232,361.861,156.148,360.352,156Z" transform="translate(-323.102 -147.107)" fill="#263238"/><path d="M364.323,163.336a4.887,4.887,0,0,1-3,2.147c-1.657.361-2.4-1.135-1.863-2.65.484-1.36,1.934-3.223,3.546-2.895A2.175,2.175,0,0,1,364.323,163.336Z" transform="translate(-322.843 -148.493)" fill="#b25b52"/><path d="M345.241,159.83a14.112,14.112,0,0,1-2.43,3.114,2.4,2.4,0,0,0,1.876.729Z" transform="translate(-316.99 -148.468)" fill="#9d2724"/><path d="M357.488,183.79s-.2-.071-.606-.174l-.864-.09-1.289-.3h0c-.426.3-6.6,4.552-8.6,5.4l-.612.11a10.837,10.837,0,0,1-1.779-5.525l-.709.052a1.728,1.728,0,0,1-.812.426l-.6.09-1.837,1.367s-3.868,8.471-4.829,29.521l-.309,15.918h29.888Z" transform="translate(-314.087 -156.775)" fill="#f8951d"/><g transform="translate(30.494 30.322)" opacity="0.4"><path d="M350.06,189.24a.174.174,0,0,0,.032.071l-.032-.064Z" transform="translate(-350.06 -189.24)"/></g><path d="M350.06,189.24a.174.174,0,0,0,.032.071l-.032-.064Z" transform="translate(-319.566 -158.918)" fill="#f8951d"/><path d="M343.3,183.23s-4.236,1.792-5.8,13.236-2.179,32.912-1.7,42.937c.193,4.126.864,8.226-2.244,7.807,0,0-.161-7.807.122-25.743S332.137,183.565,343.3,183.23Z" transform="translate(-313.685 -156.782)" fill="#263238"/><g transform="translate(19.824 26.448)" opacity="0.6"><path d="M343.3,183.23s-4.236,1.792-5.8,13.236-1.515,22.4-1.87,34.395c-.3,10.038,1.792,16.852-2.069,16.349,0,0-.161-7.807.122-25.743S332.137,183.565,343.3,183.23Z" transform="translate(-333.509 -183.23)" fill="#fff"/></g><path d="M365.076,183.23s-5.087,2.83-5.654,20.721-1.412,43.678,4.616,44.245,12.617-2.824,12.617-2.824.612,1.625-.516-6.6c-.941-6.866-2.534-14.938-3.153-21.449-.716-7.53,3.391-28.251.754-30.3S365.076,183.23,365.076,183.23Z" transform="translate(-322.752 -156.782)" fill="#263238"/><path d="M365.076,183.23s-5.087,2.83-5.654,20.721-1.412,43.678,4.616,44.245,12.617-2.824,12.617-2.824.612,1.625-.516-6.6c-.941-6.866-2.534-14.938-3.153-21.449-.716-7.53,3.391-28.251.754-30.3S365.076,183.23,365.076,183.23Z" transform="translate(-322.752 -156.782)" fill="#fff" opacity="0.6"/><g transform="translate(39.527 73.527)" opacity="0.3"><path d="M0,0H8.478V.812A2.108,2.108,0,0,1,6.37,2.92H2.115A2.108,2.108,0,0,1,.006.812V.006Z" transform="translate(0 1.206) rotate(-8.18)"/></g><path d="M363.6,228.781l-6.8.935-2.8-2.011a1.715,1.715,0,0,0-1.1-.316l-2.424.142a1.721,1.721,0,0,0-1.335.767l-.645.935a1.786,1.786,0,0,0-.277,1.083l.09,1.141a1.721,1.721,0,0,0,1.16,1.489l3.965,1.354a1.683,1.683,0,0,0,.961.045l2.895-.709,8.149-.245Z" transform="translate(-318.913 -172.471)" fill="#b25b52"/><path d="M368.386,218.472a1.663,1.663,0,0,0,1.515,1.483,14.813,14.813,0,0,0,9.587-2.25c4.816-3.4,2.269-20.334.845-24.718a9.87,9.87,0,0,0-5.254-6.279c-4.552-2.579-4.726,2.063-4.4,7.878s4.055,14.873,3.9,16.427c-.1.993-3.32,1.573-5.615,1.857a1.657,1.657,0,0,0-1.36,2.2A13.788,13.788,0,0,1,368.386,218.472Z" transform="translate(-325.765 -157.759)" fill="#263238"/><path d="M372.4,198.52l1.657,17.69s5.048,1.567,4.313-3.391-6.028-15.769-6.028-15.769Z" transform="translate(-327.482 -161.693)" opacity="0.2"/><path d="M368.386,218.472a1.663,1.663,0,0,0,1.515,1.483,14.813,14.813,0,0,0,9.587-2.25c4.816-3.4,2.269-20.334.845-24.718a9.87,9.87,0,0,0-5.254-6.279c-4.552-2.579-4.726,2.063-4.4,7.878s4.055,14.873,3.9,16.427c-.1.993-3.32,1.573-5.615,1.857a1.657,1.657,0,0,0-1.36,2.2A13.788,13.788,0,0,1,368.386,218.472Z" transform="translate(-325.765 -157.759)" fill="#fff" opacity="0.6"/><path d="M348.149,168.257a3.449,3.449,0,0,0,2.2-1.592.116.116,0,0,0-.045-.161.122.122,0,0,0-.161.052,3.314,3.314,0,0,1-2.482,1.547.11.11,0,0,0-.11.122.116.116,0,0,0,.122.116h0A3.87,3.87,0,0,0,348.149,168.257Z" transform="translate(-318.674 -150.835)" fill="#263238"/><path d="M359.545,183.25l-9.413,8.9-.361-.645a12.14,12.14,0,0,1-1.218-8.233,10.844,10.844,0,0,0,.883,3.868l1.115-2.7a10.317,10.317,0,0,0,.368,2.14l.645-.645,1.844,1.405C355.967,185.719,359.242,183.463,359.545,183.25Z" transform="translate(-318.942 -156.789)" fill="#f8951d"/><path d="M359.545,183.25l-9.413,8.9-.361-.645a12.14,12.14,0,0,1-1.218-8.233,10.844,10.844,0,0,0,.883,3.868l1.115-2.7a10.317,10.317,0,0,0,.368,2.14l.645-.645,1.844,1.405C355.967,185.719,359.242,183.463,359.545,183.25Z" transform="translate(-318.942 -156.789)" fill="#fff" opacity="0.2"/><path d="M350.2,185.354a21.919,21.919,0,0,0-3.926,2.792c.1-1,.2-2.005.3-3a9.484,9.484,0,0,1,.645-3.12,3.185,3.185,0,0,1,2.4-1.934c.09,0,.264-.187.355-.187A12.307,12.307,0,0,0,350.2,185.354Z" transform="translate(-318.219 -155.599)" fill="#f8951d"/><path d="M350.2,185.354a21.919,21.919,0,0,0-3.926,2.792c.1-1,.2-2.005.3-3a9.484,9.484,0,0,1,.645-3.12,3.185,3.185,0,0,1,2.4-1.934c.09,0,.264-.187.355-.187A12.307,12.307,0,0,0,350.2,185.354Z" transform="translate(-318.219 -155.599)" fill="#fff" opacity="0.6"/><path d="M352.36,184.917l3.5,3.462s5.235-5.963,5.158-7.62l-2.637-2.089Z" transform="translate(-320.383 -155.162)" fill="#f8951d"/><path d="M352.36,184.917l3.5,3.462s5.235-5.963,5.158-7.62l-2.637-2.089Z" transform="translate(-320.383 -155.162)" fill="#fff" opacity="0.6"/><path d="M354.312,151.641a.838.838,0,0,1-.845-.187,1.869,1.869,0,0,1-.374-.935,18.7,18.7,0,0,1-.309-2.824A1.773,1.773,0,0,0,351,145.941a4.732,4.732,0,0,0-2.888,1.064c-.316-.226-1.9,0-2.256-.122,0,0,.426-.98-.438-.89-.928.284-.967.529-1.683,1.367-.181.219-.683,1.128-.883,1.322a.754.754,0,0,0-.226.438,5.4,5.4,0,0,1,2.011-4.223c.812-.561.986-1.9,1.9-2.3,2.4-1.051,5.254.284,7.84.645,8.516,1.231,5.158,9.438,4.416,9.271C357.316,152.8,354.312,151.641,354.312,151.641Z" transform="translate(-316.926 -142.206)" fill="#263238"/></g><g transform="translate(181.316 180.743)"><path d="M282.68,350.6H263.274a4.771,4.771,0,0,1-4.764-4.764V241.61h28.94V345.831A4.771,4.771,0,0,1,282.68,350.6ZM261.089,244.221v101.61a2.186,2.186,0,0,0,2.186,2.186H282.68a2.186,2.186,0,0,0,2.186-2.186V244.189Z" transform="translate(-253.23 -240.385)" fill="#f8951d"/><path d="M269.984,412.432a3.165,3.165,0,1,1-.927-2.245,3.172,3.172,0,0,1,.927,2.245Z" transform="translate(-255.053 -299.952)" fill="#263238"/><path d="M294.984,412.432a3.165,3.165,0,1,1-.925-2.242,3.172,3.172,0,0,1,.925,2.242Z" transform="translate(-263.935 -299.952)" fill="#263238"/><path d="M345.92,350.6H326.514a4.771,4.771,0,0,1-4.764-4.764V241.61h28.934V345.838A4.764,4.764,0,0,1,345.92,350.6ZM324.329,244.189V345.838a2.186,2.186,0,0,0,2.186,2.186H345.92a2.186,2.186,0,0,0,2.186-2.186V244.189Z" transform="translate(-275.699 -240.385)" fill="#f8951d"/><path d="M333.224,412.432a3.166,3.166,0,1,1-.925-2.242,3.172,3.172,0,0,1,.925,2.242Z" transform="translate(-277.522 -299.952)" fill="#263238"/><path d="M358.231,412.432a3.165,3.165,0,1,1-.925-2.242,3.165,3.165,0,0,1,.925,2.242Z" transform="translate(-286.412 -299.952)" fill="#263238"/><path d="M329.779,243.449a3.739,3.739,0,0,1-3.739,3.746h-71.98a3.742,3.742,0,0,1,0-7.485h71.98a3.739,3.739,0,0,1,3.739,3.739Z" transform="translate(-250.32 -239.71)" fill="#263238"/><path d="M352.778,243.449a3.739,3.739,0,0,1-3.739,3.746H318.8a3.742,3.742,0,1,1,0-7.485h30.243a3.739,3.739,0,0,1,3.739,3.739Z" transform="translate(-273.319 -239.71)" fill="#fff" opacity="0.2"/></g><g transform="translate(185.872 152.157)"><path d="M305.514,238.913l-38.759-.264a.857.857,0,0,1-.845-.857h0a.857.857,0,0,1,.857-.851l38.753.271a.845.845,0,0,1,.845.857h0a.845.845,0,0,1-.851.845Z" transform="translate(-260.415 -210.14)" fill="#f8951d"/><path d="M305.514,238.913l-38.759-.264a.857.857,0,0,1-.845-.857h0a.857.857,0,0,1,.857-.851l38.753.271a.845.845,0,0,1,.845.857h0a.845.845,0,0,1-.851.845Z" transform="translate(-260.415 -210.14)" opacity="0.2"/><path d="M300.023,222.421h-.516l-35.246-.213h-.1a2.7,2.7,0,0,1-.606-.1,3.41,3.41,0,0,1-2.463-2.637l-3.649-21.41a2.2,2.2,0,0,1,1.87-2.663,1.858,1.858,0,0,1,.38-.032l35.175.251h.542a3.378,3.378,0,0,1,3.178,2.727l3.643,21.41a2.211,2.211,0,0,1-2.2,2.663Z" transform="translate(-257.387 -195.37)" fill="#f8951d"/><g transform="translate(0 0.013)" opacity="0.6"><path d="M301.293,219.766l-3.649-21.4a3.385,3.385,0,0,0-2.463-2.624,2.733,2.733,0,0,0-.709-.1l-35.162-.245a2.2,2.2,0,0,0-1.87,2.663l3.649,21.41a3.41,3.41,0,0,0,2.495,2.624,2.7,2.7,0,0,0,.606.1h.1l35.245.245a2.211,2.211,0,0,0,1.754-2.663Z" transform="translate(-257.387 -195.39)" fill="#fff"/></g><path d="M286.706,217.008a1.747,1.747,0,0,1,1.7,1.567,1.412,1.412,0,0,1-.116.722,1.605,1.605,0,0,0,.38-.522,2.018,2.018,0,0,0,.193-1.064,2.379,2.379,0,0,0-2.327-2.14,1.934,1.934,0,0,0-1.934,2.14,2.372,2.372,0,0,0,.38,1.064,2.456,2.456,0,0,0,.645.645l-.039-.058a1.612,1.612,0,0,1-.284-.78,1.412,1.412,0,0,1,1.4-1.573Z" transform="translate(-267.053 -202.547)" fill="#fff"/><path d="M324.79,237.949v.116a.857.857,0,0,0,.864.845l21.8-.271a.851.851,0,0,0,.838-.748v-.11a.857.857,0,0,0-.574-.793h0a.767.767,0,0,0-.271-.039l-21.81.258a.832.832,0,0,0-.735.458.735.735,0,0,0-.116.284Z" transform="translate(-281.336 -210.143)" fill="#f8951d"/><path d="M324.79,237.949v.116a.857.857,0,0,0,.864.845l21.8-.271a.851.851,0,0,0,.838-.748v-.11a.857.857,0,0,0-.574-.793h0a.767.767,0,0,0-.271-.039l-21.81.258a.832.832,0,0,0-.735.458.735.735,0,0,0-.116.284Z" transform="translate(-281.336 -210.143)" fill="#fff" opacity="0.6"/></g><g transform="translate(121.979 179.454)"><path d="M190.931,352.782a11.279,11.279,0,0,1-1.721-.116c-24.176-1.554-23.1-47.334-23.041-49.281l1.612.052c0,.458-1.1,46.218,21.572,47.624h.11c.342.064,8.523,1.541,13.474-7.543l.155-.277c4.068-7.092,6.808-24.357,8.381-37.605,2.489-20.849,3.185-53,3.223-53.323.922-9.922,5.725-14.544,15.131-14.6l8.458.058v1.612l-8.452-.058c-8.62.052-12.668,3.965-13.539,13.081,0,.264-.709,32.5-3.223,53.426-2.327,19.489-5.216,32.351-8.594,38.218l-.135.239C200.272,351.789,193.987,352.782,190.931,352.782Z" transform="translate(-161.075 -237.71)" fill="#263238"/><path d="M169.594,350.76a1.934,1.934,0,0,1-1.934,2.082h-6.576a1.934,1.934,0,0,1-1.934-1.812l-.87-12.41h10.476Z" transform="translate(-158.28 -273.564)" fill="#263238"/></g><g transform="translate(71.137 73.749)"><path d="M89.951,73.749h5.022a8.42,8.42,0,0,0-8.51,9.187L97.12,235.388a9.973,9.973,0,0,0,9.812,9.122H101.91a9.973,9.973,0,0,1-9.806-9.155L81.441,82.936a8.42,8.42,0,0,1,8.51-9.187Z" transform="translate(-80.125 -73.749)" fill="#f8951d"/><path d="M89.568,73.749h5.022a8.42,8.42,0,0,0-8.51,9.187L96.737,235.388a9.973,9.973,0,0,0,9.812,9.122h-5.022c-5.054,0-10.148-4.1-10.5-9.155L80.349,82.936C79.995,77.85,84.514,73.749,89.568,73.749Z" transform="translate(-79.742 -73.749)" fill="#263238"/><path d="M104.212,244.528h61.5a8.42,8.42,0,0,0,8.51-9.155L163.563,82.954a9.973,9.973,0,0,0-9.8-9.155H92.285a8.42,8.42,0,0,0-8.523,9.155L94.419,235.405A9.973,9.973,0,0,0,104.212,244.528Z" transform="translate(-80.951 -73.766)" fill="#f8951d"/><g transform="translate(5.507 2.939)" opacity="0.6"><path d="M155.106,78.309a6.943,6.943,0,0,1,6.808,6.37L172.577,237.13a5.551,5.551,0,0,1-5.635,6.06H105.451a6.943,6.943,0,0,1-6.814-6.37L87.986,84.369a5.538,5.538,0,0,1,5.635-6.06Z" transform="translate(-87.961 -78.308)" fill="#fff"/></g><path d="M170.1,216.01H100.21l-6.93-99.07h69.891Z" transform="translate(-84.344 -89.095)" fill="#f8951d"/><path d="M170.1,216.01H100.21l-6.93-99.07h69.891Z" transform="translate(-84.344 -89.095)" fill="#fff" opacity="0.8"/><path d="M125.4,247.8a.967.967,0,0,1,1.032-1.064,1.115,1.115,0,0,1,.838.348l-.232.232a.767.767,0,0,0-.567-.239.645.645,0,0,0-.683.722.767.767,0,0,0,.787.729.645.645,0,0,0,.535-.245l.264.239a.986.986,0,0,1-.8.342A1.135,1.135,0,0,1,125.4,247.8Z" transform="translate(-95.753 -135.212)" fill="#263238"/><path d="M130.677,246.79l.142,2.069h-.38l-.064-.89H129.3l.064.89h-.387l-.142-2.069h.387l.058.851h1.07l-.064-.851Z" transform="translate(-96.978 -135.231)" fill="#263238"/><path d="M134.209,248.537v.322h-1.547l-.142-2.069h1.509v.322h-1.122v.535h1v.316h-1l.039.574Z" transform="translate(-98.286 -135.231)" fill="#263238"/><path d="M135.478,247.8a.973.973,0,0,1,1.032-1.064,1.115,1.115,0,0,1,.845.348l-.232.232a.78.78,0,0,0-.567-.239.645.645,0,0,0-.69.722.774.774,0,0,0,.793.729.645.645,0,0,0,.529-.245l.264.239a.973.973,0,0,1-.793.342,1.148,1.148,0,0,1-1.18-1.064Z" transform="translate(-99.335 -135.212)" fill="#263238"/><path d="M139.723,247.989l-.3.342.039.529h-.387l-.142-2.069h.38l.077,1.057.941-1.057h.432l-.8.922,1,1.148h-.451Z" transform="translate(-100.563 -135.231)" fill="#263238"/><path d="M142.26,246.79h.387l.142,2.069h-.38Z" transform="translate(-101.747 -135.231)" fill="#263238"/><path d="M145.575,246.79l.142,2.069H145.4l-1.238-1.4.1,1.4h-.348l-.148-2.069h.316l1.238,1.4-.1-1.4Z" transform="translate(-102.283 -135.231)" fill="#263238"/><path d="M148.868,247.783h.361l.058.819a1.206,1.206,0,0,1-.793.264,1.148,1.148,0,0,1-1.186-1.064.98.98,0,0,1,1.044-1.064,1.115,1.115,0,0,1,.851.342l-.226.232a.806.806,0,0,0-.58-.232.645.645,0,0,0-.7.722.78.78,0,0,0,.8.729.858.858,0,0,0,.419-.1Z" transform="translate(-103.539 -135.212)" fill="#263238"/><path d="M152.612,247.112l.045.645h1v.329h-.948v.774h-.38l-.148-2.069h1.509v.322Z" transform="translate(-105.271 -135.231)" fill="#263238"/><path d="M155,247.8a.974.974,0,0,1,1.038-1.064,1.154,1.154,0,0,1,1.186,1.064.974.974,0,0,1-1.038,1.064A1.148,1.148,0,0,1,155,247.8Zm1.837,0a.767.767,0,0,0-.78-.722.645.645,0,0,0-.645.722.761.761,0,0,0,.774.729.645.645,0,0,0,.645-.729Z" transform="translate(-106.271 -135.212)" fill="#263238"/><path d="M160.456,248.859l-.464-.606h-.548l.045.606H159.1l-.142-2.069h.845c.548,0,.9.277.935.735a.645.645,0,0,1-.393.645l.522.683Zm-.645-1.747h-.445l.058.825h.445c.335,0,.5-.155.484-.413S160.146,247.112,159.811,247.112Z" transform="translate(-107.68 -135.231)" fill="#263238"/><path d="M163.617,247.957l-.077-1.167h.38l.084,1.154a.528.528,0,0,0,.567.606c.335,0,.509-.181.477-.606l-.077-1.154h.374l.084,1.167a.774.774,0,0,1-.838.928.909.909,0,0,1-.974-.928Z" transform="translate(-109.307 -135.231)" fill="#263238"/><path d="M168.959,247.525c.032.458-.284.735-.832.735h-.464l.039.6h-.38l-.142-2.069h.845C168.573,246.79,168.927,247.067,168.959,247.525Zm-.387,0c0-.258-.206-.413-.542-.413h-.445l.058.825h.445C168.424,247.938,168.592,247.783,168.573,247.525Z" transform="translate(-110.601 -135.231)" fill="#263238"/><path d="M170.45,246.788h.9a1.109,1.109,0,0,1,1.2,1.032.941.941,0,0,1-1.051,1.038h-.9Zm1.006,1.741a.645.645,0,0,0,.709-.709.748.748,0,0,0-.806-.709h-.5l.1,1.418Z" transform="translate(-111.763 -135.229)" fill="#263238"/><path d="M175.573,248.376h-1.032l-.174.484H174l.787-2.069h.374l1.077,2.069h-.4Zm-.148-.3-.451-.909-.329.909Z" transform="translate(-113.024 -135.231)" fill="#263238"/><path d="M177.763,247.112h-.683v-.322h1.754v.322h-.69l.122,1.747h-.38Z" transform="translate(-114.118 -135.231)" fill="#263238"/><path d="M181.866,248.537v.322h-1.554l-.142-2.069h1.509v.322h-1.122l.039.535h.993v.316h-1l.039.574Z" transform="translate(-115.216 -135.231)" fill="#263238"/><path d="M183.185,248.608l.11-.3a1.244,1.244,0,0,0,.7.226c.322,0,.451-.116.438-.271,0-.445-1.238-.155-1.289-.922,0-.335.219-.645.787-.645a1.328,1.328,0,0,1,.7.187l-.1.3a1.2,1.2,0,0,0-.58-.161c-.316,0-.438.122-.426.277,0,.445,1.231.155,1.289.915,0,.329-.232.612-.793.612A1.4,1.4,0,0,1,183.185,248.608Z" transform="translate(-116.271 -135.199)" fill="#263238"/><path d="M163.845,250.122H122.462a4.68,4.68,0,0,1-4.59-4.294,3.991,3.991,0,0,1,4.036-4.339H163.3a4.687,4.687,0,0,1,4.6,4.294h0a4.055,4.055,0,0,1-1.064,3.069A4.01,4.01,0,0,1,163.845,250.122ZM121.9,242.134a3.346,3.346,0,0,0-3.391,3.649,4.023,4.023,0,0,0,3.946,3.694h41.389a3.352,3.352,0,0,0,3.4-3.649,4.029,4.029,0,0,0-3.952-3.694Z" transform="translate(-93.076 -133.348)" fill="#f8951d"/><path d="M132.606,204.409a1.405,1.405,0,0,1,1.5-1.541,1.644,1.644,0,0,1,1.225.5l-.335.342a1.135,1.135,0,0,0-.825-.355.941.941,0,0,0-1,1.057,1.109,1.109,0,0,0,1.141,1.057.974.974,0,0,0,.78-.355l.387.342a1.438,1.438,0,0,1-1.16.5A1.663,1.663,0,0,1,132.606,204.409Z" transform="translate(-98.314 -119.624)" fill="#263238"/><path d="M140.279,202.93l.206,3h-.554l-.09-1.289h-1.554l.09,1.289h-.561l-.206-3h.554l.09,1.238H139.8l-.09-1.238Z" transform="translate(-100.094 -119.647)" fill="#263238"/><path d="M145.421,205.464l.032.471H143.2l-.213-3h2.192l.032.471h-1.631l.052.78h1.451v.458h-1.444l.058.825Z" transform="translate(-102.006 -119.647)" fill="#263238"/><path d="M147.256,204.409a1.405,1.405,0,0,1,1.5-1.541,1.631,1.631,0,0,1,1.218.5l-.335.342a1.115,1.115,0,0,0-.825-.355.941.941,0,0,0-1,1.057,1.115,1.115,0,0,0,1.148,1.057.967.967,0,0,0,.774-.355l.387.342a1.438,1.438,0,0,1-1.16.5A1.663,1.663,0,0,1,147.256,204.409Z" transform="translate(-103.519 -119.624)" fill="#263238"/><path d="M153.42,204.677l-.445.49.052.767h-.554l-.213-3h.561l.1,1.541,1.38-1.541h.645l-1.186,1.335,1.457,1.663h-.645Z" transform="translate(-105.3 -119.647)" fill="#263238"/><path d="M157.11,202.93h.574l.213,3h-.554Z" transform="translate(-107.023 -119.647)" fill="#263238"/><path d="M161.906,202.93l.206,3h-.445l-1.8-2.031.142,2.031h-.548l-.213-3h.458l1.8,2.037-.142-2.037Z" transform="translate(-107.783 -119.647)" fill="#263238"/><path d="M166.749,204.376h.522l.084,1.193a1.766,1.766,0,0,1-1.148.387,1.663,1.663,0,0,1-1.721-1.547A1.412,1.412,0,0,1,166,202.868a1.67,1.67,0,0,1,1.238.484l-.329.348a1.186,1.186,0,0,0-.851-.348.948.948,0,0,0-1.012,1.057,1.122,1.122,0,0,0,1.16,1.057,1.18,1.18,0,0,0,.606-.155Z" transform="translate(-109.641 -119.624)" fill="#263238"/><path d="M169.748,206.884a.309.309,0,0,1,.322-.355.38.38,0,0,1,.38.355.329.329,0,0,1-.329.361A.38.38,0,0,1,169.748,206.884Z" transform="translate(-111.512 -120.926)" fill="#263238"/><path d="M171.369,206.884a.316.316,0,0,1,.329-.355.374.374,0,0,1,.374.355.329.329,0,0,1-.329.361A.38.38,0,0,1,171.369,206.884Z" transform="translate(-112.088 -120.926)" fill="#263238"/><path d="M173,206.884a.316.316,0,0,1,.329-.355.367.367,0,0,1,.374.355.329.329,0,0,1-.329.361.387.387,0,0,1-.374-.361Z" transform="translate(-112.667 -120.926)" fill="#263238"/><path d="M163.93,191.57a3.675,3.675,0,0,1-3.713,4H118.827a4.352,4.352,0,0,1-4.274-4,3.675,3.675,0,0,1,3.713-3.991h41.389A4.345,4.345,0,0,1,163.93,191.57Z" transform="translate(-91.897 -114.193)" fill="#f8951d"/><path d="M148.077,188.3l.484,6.976H119.15a3.8,3.8,0,0,1-3.726-3.488,3.208,3.208,0,0,1,3.243-3.488Z" transform="translate(-92.207 -114.449)" opacity="0.4"/><path d="M172.754,161.119a9.4,9.4,0,0,0,.155-1.463l2.224-.58a4.232,4.232,0,0,0-.058-.857l-2.321-.554a10.2,10.2,0,0,0-.98-2.856l1.554-1.638c-.155-.251-.316-.5-.484-.741l-2.2.645A10.316,10.316,0,0,0,168.39,151l.471-2.256c-.251-.155-.509-.29-.774-.426l-1.5,1.7a9.907,9.907,0,0,0-1.438-.484,9.31,9.31,0,0,0-1.483-.264L162.929,147h-.857l-.393,2.276a8.941,8.941,0,0,0-2.8.787l-1.754-1.67c-.245.135-.484.277-.709.432l.812,2.25a8.472,8.472,0,0,0-1.934,2.1l-2.3-.645c-.129.239-.251.49-.367.741l1.805,1.618a8.823,8.823,0,0,0-.387,1.405,10.172,10.172,0,0,0-.161,1.457l-2.224.587a7.675,7.675,0,0,0,.064.857l2.314.554a9.968,9.968,0,0,0,.986,2.85l-1.554,1.638c.148.251.309.5.484.741l2.2-.645a10.644,10.644,0,0,0,2.25,2.082l-.471,2.256c.251.148.516.29.78.419l1.5-1.689a10.458,10.458,0,0,0,1.438.484,10.006,10.006,0,0,0,1.476.264l.741,2.263h.857l.4-2.282a8.936,8.936,0,0,0,2.8-.78l1.754,1.67c.239-.135.477-.284.709-.438l-.812-2.244a8.478,8.478,0,0,0,1.934-2.108l2.3.645a8.035,8.035,0,0,0,.367-.748l-1.805-1.612a9.237,9.237,0,0,0,.387-1.4Z" transform="translate(-105.086 -99.775)" fill="#f8951d"/><path d="M172.754,161.119a9.4,9.4,0,0,0,.155-1.463l2.224-.58a4.232,4.232,0,0,0-.058-.857l-2.321-.554a10.2,10.2,0,0,0-.98-2.856l1.554-1.638c-.155-.251-.316-.5-.484-.741l-2.2.645A10.316,10.316,0,0,0,168.39,151l.471-2.256c-.251-.155-.509-.29-.774-.426l-1.5,1.7a9.907,9.907,0,0,0-1.438-.484,9.31,9.31,0,0,0-1.483-.264L162.929,147h-.857l-.393,2.276a8.941,8.941,0,0,0-2.8.787l-1.754-1.67c-.245.135-.484.277-.709.432l.812,2.25a8.472,8.472,0,0,0-1.934,2.1l-2.3-.645c-.129.239-.251.49-.367.741l1.805,1.618a8.823,8.823,0,0,0-.387,1.405,10.172,10.172,0,0,0-.161,1.457l-2.224.587a7.675,7.675,0,0,0,.064.857l2.314.554a9.968,9.968,0,0,0,.986,2.85l-1.554,1.638c.148.251.309.5.484.741l2.2-.645a10.644,10.644,0,0,0,2.25,2.082l-.471,2.256c.251.148.516.29.78.419l1.5-1.689a10.458,10.458,0,0,0,1.438.484,10.006,10.006,0,0,0,1.476.264l.741,2.263h.857l.4-2.282a8.936,8.936,0,0,0,2.8-.78l1.754,1.67c.239-.135.477-.284.709-.438l-.812-2.244a8.478,8.478,0,0,0,1.934-2.108l2.3.645a8.035,8.035,0,0,0,.367-.748l-1.805-1.612a9.237,9.237,0,0,0,.387-1.4Z" transform="translate(-105.086 -99.775)" fill="#fff" opacity="0.2"/><ellipse cx="5.809" cy="6.228" rx="5.809" ry="6.228" transform="matrix(0.695, -0.719, 0.719, 0.695, 49.8, 58.804)" opacity="0.3"/><path d="M137.767,143.191l-2.282.039a12.443,12.443,0,0,0-1.148-1.773l1.038-1.934a15.472,15.472,0,0,0-2.173-2.037l-1.883,1.18a12.488,12.488,0,0,0-1.837-1.025l-.123-2.289a14.06,14.06,0,0,0-2.83-.741l-.973,2c-.342,0-.683-.045-1.025-.045a7.648,7.648,0,0,0-1.019.045l-1.251-2a12.694,12.694,0,0,0-2.727.741l.2,2.289a10.844,10.844,0,0,0-1.7,1.025l-2.044-1.225a12.578,12.578,0,0,0-1.889,2.037l1.289,1.934a10.186,10.186,0,0,0-.9,1.773l-2.289-.039a12.648,12.648,0,0,0-.548,2.772l2.076,1.115v1.019a6.835,6.835,0,0,0,.116,1.025l-1.934,1.109a14.519,14.519,0,0,0,.935,2.779l2.289-.039a11.906,11.906,0,0,0,1.148,1.773l-1.038,1.934a15.473,15.473,0,0,0,2.173,2.037l1.882-1.18a12.487,12.487,0,0,0,1.837,1.025l.122,2.289a14.06,14.06,0,0,0,2.869.812l.973-2c.335,0,.645.045,1.025.045a7.361,7.361,0,0,0,1.019-.045l1.251,2a12.694,12.694,0,0,0,2.727-.741l-.2-2.289a10.5,10.5,0,0,0,1.7-1.025l2.044,1.18a12.333,12.333,0,0,0,1.9-2.037l-1.289-1.934a10.186,10.186,0,0,0,.9-1.773l2.289.039a13.015,13.015,0,0,0,.548-2.779l-2.076-1.109v-1.025a6.659,6.659,0,0,0-.116-1.019l1.934-1.115a14.184,14.184,0,0,0-.98-2.8Z" transform="translate(-90.871 -95.373)" fill="#f8951d"/><path d="M137.767,143.191l-2.282.039a12.443,12.443,0,0,0-1.148-1.773l1.038-1.934a15.472,15.472,0,0,0-2.173-2.037l-1.883,1.18a12.488,12.488,0,0,0-1.837-1.025l-.123-2.289a14.06,14.06,0,0,0-2.83-.741l-.973,2c-.342,0-.683-.045-1.025-.045a7.648,7.648,0,0,0-1.019.045l-1.251-2a12.694,12.694,0,0,0-2.727.741l.2,2.289a10.844,10.844,0,0,0-1.7,1.025l-2.044-1.225a12.578,12.578,0,0,0-1.889,2.037l1.289,1.934a10.186,10.186,0,0,0-.9,1.773l-2.289-.039a12.648,12.648,0,0,0-.548,2.772l2.076,1.115v1.019a6.835,6.835,0,0,0,.116,1.025l-1.934,1.109a14.519,14.519,0,0,0,.935,2.779l2.289-.039a11.906,11.906,0,0,0,1.148,1.773l-1.038,1.934a15.473,15.473,0,0,0,2.173,2.037l1.882-1.18a12.487,12.487,0,0,0,1.837,1.025l.122,2.289a14.06,14.06,0,0,0,2.869.812l.973-2c.335,0,.645.045,1.025.045a7.361,7.361,0,0,0,1.019-.045l1.251,2a12.694,12.694,0,0,0,2.727-.741l-.2-2.289a10.5,10.5,0,0,0,1.7-1.025l2.044,1.18a12.333,12.333,0,0,0,1.9-2.037l-1.289-1.934a10.186,10.186,0,0,0,.9-1.773l2.289.039a13.015,13.015,0,0,0,.548-2.779l-2.076-1.109v-1.025a6.659,6.659,0,0,0-.116-1.019l1.934-1.115a14.184,14.184,0,0,0-.98-2.8Z" transform="translate(-90.871 -95.373)" fill="#fff" opacity="0.3"/><path d="M137.09,150.346a8.652,8.652,0,0,1-8.749,9.413,10.244,10.244,0,0,1-10.07-9.413,8.652,8.652,0,0,1,8.749-9.406A10.244,10.244,0,0,1,137.09,150.346Z" transform="translate(-93.212 -97.621)" opacity="0.4"/><path d="M133.647,154.482a1.747,1.747,0,0,1-1.773,1.934,2.069,2.069,0,0,1-2.037-1.934,1.754,1.754,0,0,1,1.773-1.9A2.069,2.069,0,0,1,133.647,154.482Z" transform="translate(-97.33 -101.758)" fill="#263238"/><path d="M170.715,164.114a1.747,1.747,0,0,1-1.773,1.934,2.069,2.069,0,0,1-2.037-1.934,1.754,1.754,0,0,1,1.773-1.934A2.069,2.069,0,0,1,170.715,164.114Z" transform="translate(-110.5 -105.169)" fill="#263238"/><path d="M155.288,243.191h-24.5l20.2-164.881h19.741a6.215,6.215,0,0,1,4.513,1.934Z" transform="translate(-97.671 -75.369)" fill="#fff" opacity="0.2"/><path d="M117.269,243.191H111.75L131.974,78.31h5.519Z" transform="translate(-90.906 -75.369)" fill="#fff" opacity="0.2"/><rect width="6.221" height="0.645" transform="translate(70.672 22.101)" fill="#263238"/><rect width="6.221" height="0.645" transform="translate(70.795 23.945)" fill="#263238"/><rect width="6.221" height="0.645" transform="translate(70.924 25.782)" fill="#263238"/><path d="M191.346,325.979h-6.769l-.477-6.769h6.769Zm-6.17-.645h5.48l-.387-5.48H184.8Z" transform="translate(-116.612 -160.962)" fill="#fff"/><path d="M139.769,326.6l-6.189-3.643,5.68-3.636Zm-4.958-3.662,4.229,2.482-.348-4.971Z" transform="translate(-98.662 -161.001)" fill="#fff"/><path d="M163.662,325.979a3.668,3.668,0,0,1-3.6-3.359,3.153,3.153,0,0,1,3.172-3.41,3.668,3.668,0,0,1,3.6,3.365,3.133,3.133,0,0,1-3.172,3.4Zm-.426-6.125a2.508,2.508,0,0,0-1.863.793,2.54,2.54,0,0,0-.645,1.934,3,3,0,0,0,2.953,2.759,2.5,2.5,0,0,0,2.527-2.714h0a3.011,3.011,0,0,0-2.966-2.772Z" transform="translate(-108.069 -160.962)" fill="#fff"/><path d="M82.418,129.559a.322.322,0,0,1-.322-.3l-1.567-21.385a.323.323,0,0,1,.645-.052l1.592,21.391a.322.322,0,0,1-.3.342Z" transform="translate(-79.813 -85.751)" fill="#f8951d"/><path d="M80.155,98.721a.322.322,0,0,1-.322-.3l-.413-5.615a.323.323,0,1,1,.645-.045l.413,5.641a.322.322,0,0,1-.3.348Z" transform="translate(-79.419 -80.398)" fill="#f8951d"/><path d="M109.044,111.868l.148-.406a1.709,1.709,0,0,0,.961.309c.438,0,.645-.155.6-.367-.045-.645-1.7-.213-1.773-1.289,0-.451.309-.845,1.083-.845a1.889,1.889,0,0,1,.961.251l-.135.413a1.644,1.644,0,0,0-.8-.226c-.438,0-.6.168-.587.387.039.6,1.689.206,1.766,1.244,0,.458-.309.845-1.09.845a1.883,1.883,0,0,1-1.135-.316Z" transform="translate(-89.922 -86.369)" fill="#263238"/><path d="M114.146,111.211l.071,1h-.529l-.071-.993-1.238-1.837h.561l.928,1.38.741-1.38h.516Z" transform="translate(-91.13 -86.409)" fill="#263238"/><path d="M116.968,111.868l.155-.406a1.683,1.683,0,0,0,.954.309c.445,0,.645-.155.606-.367-.045-.645-1.7-.213-1.773-1.289,0-.451.3-.845,1.083-.845a1.934,1.934,0,0,1,.961.251l-.142.413a1.6,1.6,0,0,0-.793-.226c-.438,0-.606.168-.587.387.039.6,1.689.206,1.766,1.244,0,.458-.309.845-1.09.845A1.934,1.934,0,0,1,116.968,111.868Z" transform="translate(-92.74 -86.369)" fill="#263238"/><path d="M121.385,109.825h-.935v-.445h2.4v.445h-.935l.168,2.385h-.529Z" transform="translate(-93.997 -86.409)" fill="#263238"/><path d="M127.029,111.765l.032.445H124.94l-.2-2.83h2.1v.438H125.3l.052.735h1.367v.432h-1.367l.058.78Z" transform="translate(-95.522 -86.409)" fill="#263238"/><path d="M131.748,112.21l-.135-1.876-.825,1.547h-.232l-1.038-1.528.129,1.857h-.5l-.193-2.83h.432l1.257,1.876.967-1.876h.438l.2,2.83Z" transform="translate(-97.017 -86.409)" fill="#263238"/><path d="M136.75,110.972l-.11-1.592h.522l.11,1.573c.045.587.322.832.78.832s.7-.245.645-.832l-.11-1.573h.516l.11,1.592a1.057,1.057,0,0,1-1.148,1.289,1.244,1.244,0,0,1-1.315-1.289Z" transform="translate(-99.75 -86.409)" fill="#263238"/><path d="M144.063,110.386c.045.645-.393,1.006-1.135,1.006h-.645l.058.819h-.529l-.193-2.83h1.16A1.135,1.135,0,0,1,144.063,110.386Zm-.529,0c0-.355-.277-.561-.741-.561h-.612l.077,1.122h.612C143.335,110.947,143.561,110.74,143.535,110.386Z" transform="translate(-101.519 -86.409)" fill="#263238"/><path d="M146.12,109.377h1.212a1.521,1.521,0,0,1,1.644,1.412,1.289,1.289,0,0,1-1.444,1.418h-1.238Zm1.38,2.385a.877.877,0,0,0,.973-.973,1.025,1.025,0,0,0-1.109-.967h-.677l.135,1.934Z" transform="translate(-103.118 -86.406)" fill="#263238"/><path d="M153.116,111.546H151.7l-.232.645h-.542l1.077-2.83h.516L154,112.19h-.554Zm-.2-.413-.645-1.238-.445,1.238Z" transform="translate(-104.827 -86.401)" fill="#263238"/><path d="M156.127,109.825h-.935l-.032-.445h2.4l.032.445h-.935l.161,2.385h-.522Z" transform="translate(-106.33 -86.409)" fill="#263238"/><path d="M161.771,111.765v.445H159.65l-.2-2.83h2.063l.032.438H160l.052.735h1.367l.032.432h-1.367l.052.78Z" transform="translate(-107.854 -86.409)" fill="#263238"/><path d="M96.913,112.406l-2.263-2.263,2.263-2.263.458.451-1.812,1.812,1.812,1.805Z" transform="translate(-84.83 -85.876)" fill="#263238"/><rect width="6.744" height="0.645" transform="translate(10.277 23.945)" fill="#263238"/><path d="M170.379,89.864a1.328,1.328,0,0,1-1.328,1.509,1.65,1.65,0,0,1-1.605-1.476,1.335,1.335,0,0,1,1.347-1.476A1.638,1.638,0,0,1,170.379,89.864Z" transform="translate(-110.692 -78.961)" fill="#fff"/><path d="M170.441,88.354a.3.3,0,0,1-.3-.277c-.064-.677-.922-1.2-1.934-1.2s-1.786.8-1.747,1.2a.251.251,0,0,1-.251.277.309.309,0,0,1-.3-.277c-.064-.787.961-1.747,2.25-1.747a2.454,2.454,0,0,1,2.579,1.747.251.251,0,0,1-.3.277Z" transform="translate(-110.148 -78.219)" fill="#fff"/><path d="M170.471,86.374a.309.309,0,0,1-.3-.277c-.058-.645-1.206-1.2-2.579-1.2s-2.385.845-2.353,1.2a.245.245,0,0,1-.251.277.3.3,0,0,1-.3-.277c-.071-.787,1.231-1.747,2.856-1.747s3.075.754,3.159,1.747a.245.245,0,0,1-.232.277Z" transform="translate(-109.715 -77.515)" fill="#fff"/><path d="M170.527,84.394a.309.309,0,0,1-.3-.271c-.045-.58-1.335-1.206-3.172-1.206s-2.991.9-2.966,1.206a.245.245,0,0,1-.251.271.3.3,0,0,1-.3-.271c-.064-.787,1.515-1.754,3.468-1.754,2.1,0,3.681.735,3.765,1.754a.245.245,0,0,1-.245.271Z" transform="translate(-109.306 -76.812)" fill="#fff"/><path d="M178.64,91.561h-.87l-.219-2.521h.87Z" transform="translate(-114.285 -79.182)" fill="#fff"/><path d="M180.44,91.006h-.87l-.309-3.526h.87Z" transform="translate(-114.893 -78.627)" fill="#fff"/><path d="M182.244,90.452h-.87l-.393-4.532h.87Z" transform="translate(-115.504 -78.073)" fill="#fff"/><path d="M184.044,89.9h-.864l-.49-5.538h.87Z" transform="translate(-116.112 -77.519)" fill="#fff"/><path d="M185.854,89.344h-.87L184.41,82.8h.87Z" transform="translate(-116.723 -76.965)" fill="#fff"/><path d="M194.705,89.749h-3.256l-.509-5.809H194.2Z" transform="translate(-119.043 -77.37)" fill="#fff"/><path d="M193.909,83.706h-2.05l-.039-.426h2.05Z" transform="translate(-119.355 -77.135)" fill="#fff"/></g></g></svg>