<svg xmlns="http://www.w3.org/2000/svg" width="250" height="211.766" viewBox="0 0 250 211.766"><g transform="translate(-35.49 -80.504)"><g transform="translate(35.49 285.113)"><ellipse cx="125" cy="3.579" rx="125" ry="3.579" transform="translate(0 0)" fill="#f0f0f0"/></g><g transform="translate(72.51 145.624)"><path d="M340.415,376.889a21.6,21.6,0,0,1-24.033,28.184,22.034,22.034,0,0,1-4.882-1.433c-.478-.206-.949-.425-1.409-.66a21.51,21.51,0,0,1-5.5-4.033c-.318-.318-.625-.649-.92-.985a21.628,21.628,0,0,1-4.186-7.305c-.083-.254-.165-.507-.236-.767a21.61,21.61,0,0,1,22-27.677c.525.035,1.038.083,1.557.153a21.593,21.593,0,0,1,6.445,1.922c.442.212.884.442,1.315.684a21.521,21.521,0,0,1,9.575,11.162C340.238,376.382,340.326,376.636,340.415,376.889Z" transform="translate(-180.389 -261.216)" fill="#f8951d"/><path d="M340.415,376.889a21.6,21.6,0,0,1-24.033,28.184,22.034,22.034,0,0,1-4.882-1.433c-.478-.206-.949-.425-1.409-.66a21.51,21.51,0,0,1-5.5-4.033c-.318-.318-.625-.649-.92-.985a21.628,21.628,0,0,1-4.186-7.305c-.083-.254-.165-.507-.236-.767a21.61,21.61,0,0,1,22-27.677c.525.035,1.038.083,1.557.153a21.593,21.593,0,0,1,6.445,1.922c.442.212.884.442,1.315.684a21.521,21.521,0,0,1,9.575,11.162C340.238,376.382,340.326,376.636,340.415,376.889Z" transform="translate(-180.389 -261.216)" fill="#f8951d"/><path d="M339.553,382.061c-.159-.407-.33-.8-.519-1.179a17.258,17.258,0,0,0-7.936-8.025,14.4,14.4,0,0,0-1.35-.59,17.188,17.188,0,0,0-6.722-1.179,16.785,16.785,0,0,0-1.716.124,16.983,16.983,0,0,0-3.349.772,17.282,17.282,0,0,0-11.1,21.1l-.265-.743a17.258,17.258,0,1,1,32.713-11.009C339.4,381.56,339.482,381.813,339.553,382.061Z" transform="translate(-183.395 -264.253)" opacity="0.6"/><g transform="translate(122.818 106.818)" opacity="0.3"><path d="M328.819,404.2c-.195.071-.389.13-.59.189h0l-.59.165-.147.041-.649.147h-.094a16.393,16.393,0,0,1-2.123.295c-.242,0-.478.035-.719.035H322.48l-.46-.029h-.248l-.366-.041a2.622,2.622,0,0,1-.59-.071c-.242-.035-.478-.071-.719-.124s-.478-.094-.713-.147-.389-.094-.59-.153l-.377-.106-.3-.088-.348-.118-.56-.2c-.165-.059-.324-.124-.483-.195l-.106-.041c-.224-.1-.454-.195-.678-.3s-.413-.2-.619-.312h-.035l-.371-.2-.36-.212-.348-.206-.371-.236-.348-.236-.342-.242c-.236-.171-.466-.348-.7-.537l-.277-.224q-.336-.283-.654-.59l-.307-.289c-.318-.312-.625-.643-.92-.979l-.236-.277c-.171-.206-.336-.407-.5-.625v-.029c-.159-.212-.318-.43-.466-.654l-.212-.307-.1-.159c-.071-.112-.142-.224-.206-.336l-.035-.053c-.077-.124-.153-.259-.224-.389s-.165-.289-.236-.436-.159-.289-.23-.436-.112-.236-.171-.36a2.488,2.488,0,0,1-.1-.23,3.166,3.166,0,0,1-.142-.324l-.195-.466a17.282,17.282,0,0,1,11.1-21.1,16.981,16.981,0,0,1,3.349-.772,16.777,16.777,0,0,1,1.716-.124,17.188,17.188,0,0,1,6.722,1.179c.46.177.908.377,1.35.59a17.258,17.258,0,0,1,7.936,8.025c.189.389.36.784.519,1.179A17.276,17.276,0,0,1,328.819,404.2Z" transform="translate(-306.575 -372.11)"/></g><g transform="translate(131.161 110.792)" opacity="0.6"><path d="M334.519,399.127l.914,2.718-3.449,1.179-.873-2.594a15.26,15.26,0,0,1-6.869.407l.442-4.841a12.382,12.382,0,0,0,6.185-.336c1.639-.548,2.111-1.091,1.916-1.68-.725-2.152-9.617,2.771-11.763-3.614-.932-2.765.289-5.767,4.127-7.665l-.9-2.671,3.449-1.179.884,2.624a13.451,13.451,0,0,1,5.448-.254l-.33,4.77a11.073,11.073,0,0,0-5.2.336c-1.692.59-2.064,1.238-1.869,1.822.7,2.058,9.593-2.842,11.716,3.473C339.23,394.269,338.092,397.217,334.519,399.127Z" transform="translate(-320.725 -378.85)"/></g><path d="M333.835,397.632l.914,2.718-3.455,1.179-.873-2.594a15.248,15.248,0,0,1-6.869.4L324,394.5a12.482,12.482,0,0,0,6.179-.336c1.645-.554,2.117-1.1,1.916-1.68-.725-2.158-9.617,2.771-11.763-3.62-.932-2.765.295-5.766,4.127-7.665l-.908-2.7,3.455-1.179.879,2.618a13.561,13.561,0,0,1,5.448-.254L333,384.46a11.162,11.162,0,0,0-5.2.33c-1.692.59-2.064,1.238-1.863,1.828.69,2.058,9.587-2.848,11.71,3.473C338.541,392.75,337.409,395.693,333.835,397.632Z" transform="translate(-189.281 -267.431)" fill="#f8951d"/><path d="M140.884,217.411A21.61,21.61,0,0,1,110.5,231.987a21.226,21.226,0,0,1-4.835-3.19,21.817,21.817,0,0,1-3.408-3.779c-.3-.425-.59-.861-.849-1.3a21.639,21.639,0,0,1-2.571-6.315c-.1-.442-.189-.879-.265-1.327a21.5,21.5,0,0,1,.271-8.414c.059-.259.124-.519.2-.772a21.6,21.6,0,0,1,33.255-12.017,14.3,14.3,0,0,1,1.238.943,21.468,21.468,0,0,1,4.481,5.018c.265.413.525.837.761,1.268a21.622,21.622,0,0,1,2.695,10.377,22.129,22.129,0,0,1-.4,4.127C141,216.886,140.943,217.152,140.884,217.411Z" transform="translate(-98.276 -190.947)" fill="#f8951d"/><path d="M140.884,217.411A21.61,21.61,0,0,1,110.5,231.987a21.226,21.226,0,0,1-4.835-3.19,21.817,21.817,0,0,1-3.408-3.779c-.3-.425-.59-.861-.849-1.3a21.639,21.639,0,0,1-2.571-6.315c-.1-.442-.189-.879-.265-1.327a21.5,21.5,0,0,1,.271-8.414c.059-.259.124-.519.2-.772a21.6,21.6,0,0,1,33.255-12.017,14.3,14.3,0,0,1,1.238.943,21.468,21.468,0,0,1,4.481,5.018c.265.413.525.837.761,1.268a21.622,21.622,0,0,1,2.695,10.377,22.129,22.129,0,0,1-.4,4.127C141,216.886,140.943,217.152,140.884,217.411Z" transform="translate(-98.276 -190.947)" fill="#f8951d"/><path d="M139.65,220.565c.077-.425.142-.855.183-1.285a17.252,17.252,0,0,0-2.571-10.991q-.389-.631-.831-1.221a17.217,17.217,0,0,0-5.1-4.54,17.013,17.013,0,0,0-1.527-.79,17.252,17.252,0,0,0-23.774,11.044c.053-.259.106-.519.165-.778A17.258,17.258,0,0,1,139.8,219.8,4.2,4.2,0,0,1,139.65,220.565Z" transform="translate(-101.458 -194.314)" opacity="0.6"/><g transform="translate(4.413 5.863)" opacity="0.3"><path d="M119.021,233.426c-.2-.041-.4-.094-.59-.147h0l-.59-.171-.147-.047-.631-.212-.088-.035a17.2,17.2,0,0,1-1.963-.861c-.212-.112-.425-.224-.631-.348a10.618,10.618,0,0,1-1.179-.755h0l-.371-.265-.206-.153-.289-.224c-.147-.112-.295-.23-.442-.36s-.371-.312-.548-.484-.36-.33-.531-.5-.277-.283-.413-.43-.183-.189-.265-.289-.142-.159-.212-.236l-.236-.283-.371-.466c-.106-.136-.212-.271-.307-.413l-.071-.094c-.142-.2-.283-.407-.419-.59a6.593,6.593,0,0,1-.366-.59v-.029c-.071-.118-.142-.242-.206-.366s-.136-.248-.2-.371l-.189-.36c-.059-.13-.13-.259-.189-.389l-.171-.389c-.059-.124-.112-.254-.165-.383-.112-.265-.212-.537-.312-.82l-.118-.336c-.094-.277-.177-.56-.248-.837-.041-.142-.077-.277-.112-.413-.106-.436-.195-.873-.271-1.315l-.053-.354c-.041-.265-.071-.531-.1-.8v-.041c0-.265-.047-.537-.059-.8v-2a2.254,2.254,0,0,1,.035-.489,3.464,3.464,0,0,1,.047-.4c.047-.13,0-.171,0-.254a3.2,3.2,0,0,1,.047-.348c.018-.118.053-.33.083-.5a17.252,17.252,0,0,1,23.774-11.044,17.017,17.017,0,0,1,1.527.79,17.217,17.217,0,0,1,5.1,4.54q.442.59.831,1.221a17.252,17.252,0,0,1,2.547,10.991c-.041.43-.106.861-.183,1.285a17.282,17.282,0,0,1-20.548,12.152Z" transform="translate(-105.76 -200.891)"/></g><g transform="translate(12.066 10.007)" opacity="0.6"><path d="M128.374,229.583l-.649,2.789-3.526-.82.59-2.665a15.212,15.212,0,0,1-6.05-3.231l2.913-3.886a12.382,12.382,0,0,0,5.442,2.948c1.686.4,2.358.183,2.512-.425.513-2.211-9.64-2.683-8.119-9.251.66-2.842,3.278-4.752,7.535-4.375l.637-2.748,3.538.825-.625,2.695a13.491,13.491,0,0,1,4.77,2.642l-2.783,3.886a11.2,11.2,0,0,0-4.6-2.441c-1.733-.407-2.406-.029-2.547.59-.489,2.117,9.658,2.612,8.154,9.1C134.943,227.9,132.455,229.783,128.374,229.583Z" transform="translate(-118.74 -207.92)"/></g><path d="M128.552,227.9,127.9,230.7l-3.538-.825.59-2.665a15.213,15.213,0,0,1-6.055-3.261l2.913-3.886a12.382,12.382,0,0,0,5.442,2.948c1.686.389,2.358.177,2.512-.425.513-2.217-9.64-2.689-8.119-9.257.66-2.842,3.278-4.752,7.535-4.375l.637-2.742,3.538.82-.625,2.695a13.49,13.49,0,0,1,4.77,2.641l-2.783,3.892a11.132,11.132,0,0,0-4.6-2.447c-1.733-.4-2.406,0-2.547.59-.489,2.111,9.658,2.606,8.154,9.1C135.121,226.239,132.609,228.15,128.552,227.9Z" transform="translate(-106.739 -197.211)" fill="#f8951d"/></g><g transform="translate(48.951 219.11)"><path d="M395.6,349.841l6.356,6.356L360.41,397.748h10.849l36.126-36.126,6.568,6.563L416.6,347.2Z" transform="translate(-182.291 -328.556)" fill="#f8951d"/><g transform="translate(178.119 18.644)" opacity="0.3"><path d="M395.6,349.841l6.356,6.356L360.41,397.748h10.849l36.126-36.126,6.568,6.563L416.6,347.2Z" transform="translate(-360.41 -347.2)" fill="#fff"/></g><path d="M112.158,318.221l6.356,6.362L58.32,384.772H69.163l54.776-54.764,6.568,6.563,2.642-20.991Z" transform="translate(-58.32 -315.58)" fill="#f8951d"/><g opacity="0.3"><path d="M112.158,318.221l6.356,6.362L58.32,384.772H69.163l54.776-54.764,6.568,6.563,2.642-20.991Z" transform="translate(-58.32 -315.58)" fill="#fff"/></g></g><g transform="translate(115.655 102.324)"><path d="M184.038,124.68l1.716-.489-1.1-3.809-1.981.59a5.436,5.436,0,0,0-2.075-1.456v-2h-3.962v2a5.5,5.5,0,0,0-1.686,1.055l-1.769-.849-1.733,3.538,1.739.849v.43a5.43,5.43,0,0,0,.69,2.647h0l-1.3,1.633,3.1,2.471,1.268-1.586a5.448,5.448,0,0,0,1.68.265,5.352,5.352,0,0,0,1.238-.147l1.144,1.61,3.231-2.294-1.114-1.568a5.377,5.377,0,0,0,.92-2.889Zm-8.986-.142a3.538,3.538,0,1,1,3.567,3.538A3.538,3.538,0,0,1,175.053,124.538Z" transform="translate(-171.45 -117.51)" fill="#f8951d"/><path d="M184.038,124.68l1.716-.489-1.1-3.809-1.981.59a5.436,5.436,0,0,0-2.075-1.456v-2h-3.962v2a5.5,5.5,0,0,0-1.686,1.055l-1.769-.849-1.733,3.538,1.739.849v.43a5.43,5.43,0,0,0,.69,2.647h0l-1.3,1.633,3.1,2.471,1.268-1.586a5.448,5.448,0,0,0,1.68.265,5.352,5.352,0,0,0,1.238-.147l1.144,1.61,3.231-2.294-1.114-1.568a5.377,5.377,0,0,0,.92-2.889Zm-8.986-.142a3.538,3.538,0,1,1,3.567,3.538A3.538,3.538,0,0,1,175.053,124.538Z" transform="translate(-171.45 -117.51)" fill="#fff" opacity="0.6"/><path d="M328.806,251.217l1.71-.489-1.091-3.779-1.981.59a5.436,5.436,0,0,0-2.075-1.456V244h-3.98v2a5.431,5.431,0,0,0-1.686,1.055l-1.769-.849-1.733,3.538,1.769.849v.43a5.365,5.365,0,0,0,.69,2.647h0l-1.309,1.633,3.1,2.471,1.268-1.586a5.448,5.448,0,0,0,1.68.265,5.389,5.389,0,0,0,1.238-.147l1.144,1.61,3.231-2.294-1.138-1.527a5.378,5.378,0,0,0,.932-2.883Zm-8.986-.142a3.538,3.538,0,1,1,1.036,2.531A3.538,3.538,0,0,1,319.82,251.075Z" transform="translate(-230.852 -169.419)" fill="#f8951d"/><path d="M328.806,251.217l1.71-.489-1.091-3.779-1.981.59a5.436,5.436,0,0,0-2.075-1.456V244h-3.98v2a5.431,5.431,0,0,0-1.686,1.055l-1.769-.849-1.733,3.538,1.769.849v.43a5.365,5.365,0,0,0,.69,2.647h0l-1.309,1.633,3.1,2.471,1.268-1.586a5.448,5.448,0,0,0,1.68.265,5.389,5.389,0,0,0,1.238-.147l1.144,1.61,3.231-2.294-1.138-1.527a5.378,5.378,0,0,0,.932-2.883Zm-8.986-.142a3.538,3.538,0,1,1,1.036,2.531A3.538,3.538,0,0,1,319.82,251.075Z" transform="translate(-230.852 -169.419)" fill="#fff" opacity="0.6"/></g><g transform="translate(83.597 80.504)"><path d="M288.908,257.18l-2.642,20.985-6.221-6.221-61.48,61.474H155.311l-27.394,27.388H117.08l35.053-35.053h63.261l59.228-59.234-6.7-6.7Z" transform="translate(-117.08 -153.008)" fill="#f8951d"/><path d="M262.46,351.53V360.3l3.538.283,1.733-8.208Z" transform="translate(-176.741 -191.727)" fill="#ff8b7b"/><path d="M264.635,364.138s1.114-2.14,1.769-1.91.926,2.824.926,2.824a36.737,36.737,0,0,0,4.564,1.256c1.026.077,1.8.625,1.934,2.577H261.64s.083-4.4.106-5.153,1.1.189,1.1.189Z" transform="translate(-176.404 -196.11)" fill="#263238"/><path d="M261.848,367.5a1.828,1.828,0,0,1,.666,2.583.094.094,0,1,0,.159.1,2.011,2.011,0,0,0-.7-2.836c-.1-.059-.218.106-.118.165Z" transform="translate(-176.476 -198.215)" fill="#fff"/><path d="M261.785,372.2l9.558.1h2.223c.124,0,.153-.195.029-.195l-9.564-.1h-2.223a.1.1,0,1,0,0,.195Z" transform="translate(-176.432 -200.132)" fill="#fff"/><path d="M270.269,367.8a1.232,1.232,0,0,1,1.769-.318c.088.077.206-.094.118-.165a1.449,1.449,0,0,0-2.052.383c-.083.1.071.2.159.1Z" transform="translate(-179.868 -198.088)" fill="#fff"/><path d="M271.979,368.329a1.238,1.238,0,0,1,1.769-.312c.094.077.212-.094.118-.165a1.444,1.444,0,0,0-2.052.383c-.083.1.071.195.159.094Z" transform="translate(-180.569 -198.308)" fill="#fff"/><path d="M273.751,368.868a1.238,1.238,0,0,1,1.769-.312c.094.071.212-.094.118-.171a1.443,1.443,0,0,0-2.046.389c-.088.1.065.195.153.094Z" transform="translate(-181.298 -198.528)" fill="#fff"/><path d="M258.85,204.152c.1,1.563-.112,6.368.1,8.945.4,4.917.932,11.291,1.356,17.689.5,7.394.849,14.794.672,19.935-.454,13.19-.354,43.09-.354,43.09h5.725s6.722-29.717,7.978-43.09c1.05-11.091.5-39.658.318-46.58Z" transform="translate(-175.259 -131.241)" fill="#263238"/><path d="M259,217.069c.4,4.917.932,11.291,1.356,17.689,2.818-8.337.2-20.937.2-20.937Z" transform="translate(-175.321 -135.214)" opacity="0.2"/><path d="M260.9,354.989h6.716l.489-2.14-7.382-.088Z" transform="translate(-176.027 -192.232)" fill="#f8951d"/><path d="M207.938,348.76l-1.338,8.662,3.455.82,2.966-7.848Z" transform="translate(-153.817 -190.59)" fill="#ff8b7b"/><path d="M208.435,362.04s1.427-1.94,2.04-1.616.483,2.948.483,2.948a36.222,36.222,0,0,0,4.322,1.94c.979.218,1.686.9,1.515,2.842l-12.046-1.863s.755-4.334.89-5.077,1.055.354,1.055.354Z" transform="translate(-153.058 -195.362)" fill="#263238"/><path d="M205.811,364.452a1.828,1.828,0,0,1,.259,2.642c-.077.1.059.224.142.118a2,2,0,0,0-.259-2.907c-.088-.077-.23.071-.141.147Z" transform="translate(-153.482 -196.961)" fill="#fff"/><path d="M205.031,369.1l9.434,1.557,2.193.36c.124,0,.177-.165.053-.183l-9.434-1.562-2.193-.36C204.96,368.91,204.907,369.075,205.031,369.1Z" transform="translate(-153.144 -198.859)" fill="#fff"/><path d="M214.028,366.154a1.238,1.238,0,0,1,1.8-.041c.077.088.218-.059.142-.147a1.456,1.456,0,0,0-2.087.065c-.1.088.041.212.142.124Z" transform="translate(-156.793 -197.483)" fill="#fff"/><path d="M215.638,366.946a1.238,1.238,0,0,1,1.8-.041c.077.088.218-.059.142-.147a1.46,1.46,0,0,0-2.087.071C215.4,366.916,215.537,367.034,215.638,366.946Z" transform="translate(-157.454 -197.809)" fill="#fff"/><path d="M217.3,367.748a1.244,1.244,0,0,1,1.81-.035c.077.083.218-.065.142-.147a1.46,1.46,0,0,0-2.087.065C217.066,367.719,217.207,367.837,217.3,367.748Z" transform="translate(-158.139 -198.14)" fill="#fff"/><path d="M228.387,251.339c-3.538,12.972-15.425,40.979-15.425,40.979l-5.643-.979s5.9-29.163,8.585-42.075c2.441-11.657,5.124-38.432,5.991-46.4l18.927,1.7C239.814,211.392,231.324,240.59,228.387,251.339Z" transform="translate(-154.112 -130.716)" fill="#263238"/><path d="M206.43,351.567l6.621,1.156.849-2.028-7.37-1.344Z" transform="translate(-153.747 -190.832)" fill="#f8951d"/><path d="M230.168,167.428c-.077.831,1.621,2.7,2.453,2.736l29.381.513c.884.041,1.922-.59,1.893-1.45-.3-10.419-2.73-46.256-3.538-48.514-1.008-2.777-6.6-3.779-9.039-4a86,86,0,0,0-11.58,0c-1.881.088-3.6.254-5.024.43a3.844,3.844,0,0,0-3.325,4.428,109.7,109.7,0,0,1,1.238,12.04v.59c.065,1.356.13,2.695.136,4.021v.79C232.656,152.475,230.905,159.084,230.168,167.428Z" transform="translate(-163.488 -95.284)" fill="#fff"/><path d="M240.032,170.819c-3.927.242-14.322,0-14.322-1.639,0-2.736,3.738-21.657,4.092-25.442.053-.59.106-1.362.165-2.3.1-1.769.2-4,.295-6.433.289-7.571.525-16.769.525-16.769s.23-2.081,9.369-1.639a127.84,127.84,0,0,1,2.358,20.884C242.6,147.257,241.37,170.736,240.032,170.819Z" transform="translate(-161.659 -95.291)" fill="#f8951d"/><path d="M266,116.85s4.027,10.654,3.585,26.792-.643,27.889-.643,27.889,9.646.59,10.489-.843c.454-.784-.66-14.858-1.3-23.107-.725-9.393-2.182-24.817-2.73-26.669C274.473,117.711,266,116.85,266,116.85Z" transform="translate(-178.193 -95.42)" fill="#f8951d"/><path d="M317.324,110.2c-2.83,2.488-5.719,4.876-8.709,7.176-1.486,1.179-3.007,2.276-4.558,3.39-.778.554-1.568,1.091-2.388,1.633a27.8,27.8,0,0,1-2.683,1.6,9.186,9.186,0,0,1-2.011.767,13.791,13.791,0,0,1-1.887.312,24.836,24.836,0,0,1-3.267.1,54.678,54.678,0,0,1-5.955-.59c-1.669-.242-3.3-.537-4.923-.873l-1.126-.242c-1.769-.383-3.491-.825-5.248-1.321l1.733-7.665a35.6,35.6,0,0,0,5.531,1.48c1.769.4,3.538.767,5.277,1.091s3.485.59,5.136.761a20.371,20.371,0,0,0,2.317.112,8.076,8.076,0,0,0,.879-.065,2.022,2.022,0,0,0,.59-.165c.654-.259,1.456-.66,2.229-1.061s1.574-.855,2.358-1.291c1.6-.873,3.19-1.81,4.794-2.724,3.2-1.857,6.433-3.721,9.67-5.548Z" transform="translate(-181.71 -91.41)" fill="#f8951d"/><path d="M284.186,132.258l-1.126-.242-.59-4.186Z" transform="translate(-184.952 -99.926)" opacity="0.2"/><path d="M353.363,100a5.146,5.146,0,0,1,.136,2.653c-.389.92-2.229,1.38-2.229,1.38A15.816,15.816,0,0,1,353.363,100Z" transform="translate(-213.186 -88.505)" fill="#ff8b7b"/><path d="M353.363,100a5.146,5.146,0,0,1,.136,2.653c-.389.92-2.229,1.38-2.229,1.38A15.816,15.816,0,0,1,353.363,100Z" transform="translate(-213.186 -88.505)" opacity="0.2"/><path d="M349.861,100.424a7.741,7.741,0,0,0-1.645,2.176c.873.289,2.288-.419,2.606-.065s-.59.955-2.011,1.663c-.749.36-1.008,1.215-2,1.563a8.753,8.753,0,0,1-1.315.348C344.4,105.7,343.21,103,343.21,103l2.618-2a22.011,22.011,0,0,1,3.432-2.2c1.02-.366,3.679-2.1,3.862-1.657C353.381,97.759,351.571,99.163,349.861,100.424Z" transform="translate(-209.879 -87.302)" fill="#ff8b7b"/><path d="M238.158,136.85l-5.218,12.925c.1-1.769.2-4,.295-6.433Z" transform="translate(-164.626 -103.627)" opacity="0.2"/><path d="M260.748,82.466a8.037,8.037,0,0,0-6.327,1.02,3.716,3.716,0,0,0-2.046,3.461,86.2,86.2,0,0,0,2.028,9.434l11.509-7.022s1.716-2.1-.955-4.894A9.706,9.706,0,0,0,260.748,82.466Z" transform="translate(-172.593 -81.206)" fill="#263238"/><path d="M260.01,112.971a6.656,6.656,0,0,1-.118-2.246l.56-2.058v-.041h0l-3.343-3.656-2.3-2.529a24.858,24.858,0,0,1-1.639,8.667C253.341,112.34,259.137,115.642,260.01,112.971Z" transform="translate(-172.928 -89.506)" fill="#ff8b7b"/><g transform="translate(84.028 16.077)" opacity="0.2"><path d="M263.087,110.854l-.56,2.058a5.248,5.248,0,0,1-2.883-3.208c-.206-.979.242-1.887.637-1.934Z" transform="translate(-259.592 -107.77)"/></g><path d="M266.308,97.126c-.124.448-.265.884-.413,1.321-1.309,3.833-6.05,4.127-8.98,1.291h0a7.667,7.667,0,0,1-.731-.831c-1.857-2.482-1.374-4.375-1.055-8.673a5.9,5.9,0,0,1,8.815-4.717C267.517,87.563,267.547,92.651,266.308,97.126Z" transform="translate(-173.608 -82.241)" fill="#ff8b7b"/><path d="M256.8,85.72s4.163,3.119,9,1.7c2.453-.719,2.04-5.749.112-6.722-1.574-.8-2.854,1.138-2.854,1.138a9.3,9.3,0,0,0-5.165-1.114A6,6,0,0,0,253.3,82.73a2.188,2.188,0,0,0-2.164,1.6c-.436,1.48,1.179,4.3,1.179,4.3Z" transform="translate(-172.064 -80.504)" fill="#263238"/><path d="M266.994,97.523c-.047.336.094.631.313.66s.436-.218.483-.554-.094-.631-.318-.66-.43.218-.478.554" transform="translate(-178.597 -87.26)" fill="#263238"/><path d="M268.175,105.514h.118a.13.13,0,0,0,.112-.142.124.124,0,0,0-.141-.112,1.851,1.851,0,0,1-2.011-1.769.124.124,0,0,0-.142-.112.13.13,0,0,0-.112.141,2.111,2.111,0,0,0,2.176,1.993Z" transform="translate(-178.193 -89.891)" fill="#263238"/><path d="M255.214,90.078s1.3.071,1.344,1.179-.065,1.256-.065,1.256l1.574.112s-.884-3.32.23-3.261-.513-2.388,1.026-2.824c1.645-.466,5.9-.66,7.553,1.946a6.574,6.574,0,0,0-2.471-3.956c-2.04-1.392-6.156-1.7-7.83.313S255.214,90.078,255.214,90.078Z" transform="translate(-173.758 -81.696)" fill="#263238"/><path d="M251.56,96.892a4.127,4.127,0,0,0,1.616,2.689c1.179.843,2.241-.077,2.358-1.439.083-1.221-.419-3.131-1.769-3.438A1.84,1.84,0,0,0,251.6,96.9" transform="translate(-172.267 -86.316)" fill="#ff8b7b"/><path d="M272.864,98.2c-.047.336.094.631.313.66s.436-.218.483-.554-.1-.631-.318-.66-.436.218-.478.554" transform="translate(-181.006 -87.539)" fill="#263238"/><path d="M273.968,96.414a.171.171,0,0,1-.124-.112.861.861,0,0,0-.43-.59,1.026,1.026,0,0,0-.7-.041.171.171,0,0,1-.218-.106.177.177,0,0,1,.106-.218,1.368,1.368,0,0,1,.967.059,1.215,1.215,0,0,1,.59.761.165.165,0,0,1-.112.212.153.153,0,0,1-.077.035Z" transform="translate(-180.855 -86.57)" fill="#263238"/><path d="M265.368,95.622a.159.159,0,0,1-.071,0,.165.165,0,0,1-.088-.224,1.386,1.386,0,0,1,.7-.672,1.226,1.226,0,0,1,.967.083.17.17,0,1,1-.147.307.89.89,0,0,0-.7-.065.991.991,0,0,0-.507.489A.177.177,0,0,1,265.368,95.622Z" transform="translate(-177.862 -86.315)" fill="#263238"/><path d="M270.149,98.68a24.958,24.958,0,0,1,1.05,2.86c.053.4-1.209.389-1.209.389Z" transform="translate(-179.831 -87.963)" fill="#ff5652"/><path d="M265,115.8Z" transform="translate(-177.783 -94.989)"/><path d="M223.3,119.6c-1.987,3.455-3.856,6.981-5.678,10.525-.92,1.769-1.81,3.538-2.712,5.307l-1.327,2.653-.66,1.3-.33.631-.153.295a2.462,2.462,0,0,0-.106.23l-.088.212-.065.165-.106.313-.083.277c-.2.7-.307,1.244-.413,1.8s-.189,1.073-.271,1.6c-.159,1.044-.295,2.058-.407,3.078-.23,2.034-.43,4.045-.59,6.061-.307,4.027-.525,8.037-.59,12.081a2.264,2.264,0,0,0,4.458.59h0c.961-3.874,1.834-7.777,2.712-11.645.454-1.928.879-3.862,1.338-5.761.236-.949.46-1.893.7-2.8.118-.46.242-.908.371-1.327a10.93,10.93,0,0,1,.377-1.1.476.476,0,0,1,.035-.077v-.035h0v.1a1.332,1.332,0,0,1-.065.13h0l.059-.094.118-.183.23-.36.814-1.315,1.574-2.577c1.026-1.728,2.052-3.449,3.042-5.183,2-3.467,3.939-6.958,5.755-10.525A4.546,4.546,0,0,0,223.3,119.6Z" transform="translate(-155.097 -95.721)" fill="#f8951d"/><path d="M200.79,215.857v-3.7a.23.23,0,0,1,.23-.23h2.011v-.59h-2a.825.825,0,0,0-.825.825v3.691Z" transform="translate(-151.191 -134.196)" fill="#263238"/><path d="M223.151,212.126v3.726h.59v-3.7a.825.825,0,0,0-.825-.825h-2v.59h2A.236.236,0,0,1,223.151,212.126Z" transform="translate(-159.689 -134.192)" fill="#263238"/><path d="M218.149,220.512v18.632a1.568,1.568,0,0,1-1.568,1.568H189.688a1.574,1.574,0,0,1-1.568-1.568V220.512a1.568,1.568,0,0,1,1.568-1.562h26.893a1.562,1.562,0,0,1,1.568,1.562Z" transform="translate(-146.233 -137.319)" fill="#263238"/><g transform="translate(41.887 81.631)" opacity="0.5"><path d="M218.149,220.512v18.632a1.568,1.568,0,0,1-1.568,1.568H189.688a1.574,1.574,0,0,1-1.568-1.568V220.512a1.568,1.568,0,0,1,1.568-1.562h26.893a1.562,1.562,0,0,1,1.568,1.562Z" transform="translate(-188.12 -218.95)" fill="#fff"/></g><rect width="1.191" height="21.763" transform="translate(66.781 81.631)" fill="#263238"/><rect width="1.191" height="21.763" transform="translate(45.837 81.631)" fill="#263238"/><path d="M216.64,202.22s1.922,4.34,1.71,5.307-1.515-.831-1.515-.831Z" transform="translate(-157.937 -130.454)" fill="#ff8b7b"/><rect width="10.831" height="1.987" transform="translate(51.008 76.413)" fill="#263238"/><rect width="10.831" height="1.987" transform="translate(51.008 76.413)" fill="#fff" opacity="0.3"/><path d="M208.887,200.893l-1.5,4.422c-.3,1.262,3.779,3.107,5.354,2.017,1.244-.855.171-5.985.171-5.985A4.357,4.357,0,0,0,208.887,200.893Z" transform="translate(-154.134 -129.787)" fill="#ff8b7b"/><path d="M207.318,208.6c-.312,1.409-.13,4.169,2.123,4.458a5.306,5.306,0,0,0,1.486.029,2.282,2.282,0,0,0,1.4.118c1.132-.36.713-3.208.713-3.208Z" transform="translate(-154.063 -133.072)" fill="#ff8b7b"/><path d="M251.633,113.435s-3.208-.684-3.9,1.981v8.8l1.846,2.305-1.456,1.45-.041,11.315,3.408,1.179a116.4,116.4,0,0,0-.2-17.152,39.982,39.982,0,0,1,.348-9.882Z" transform="translate(-170.696 -93.986)" fill="#f8951d"/><path d="M251.633,113.435s-3.208-.684-3.9,1.981v8.8l1.846,2.305-1.456,1.45-.041,11.315,3.408,1.179a116.4,116.4,0,0,0-.2-17.152,39.982,39.982,0,0,1,.348-9.882Z" transform="translate(-170.696 -93.986)" opacity="0.3"/><path d="M264.57,115.7a10.67,10.67,0,0,1,2.252,5.018c.749,3.491,2.264,18.756,2.217,20.7l3.373-2.529-1.368-12.123-2-1.238,1.68-2.205s-1.545-5.566-2.541-6.987a5.582,5.582,0,0,0-3.3-1.769Z" transform="translate(-177.607 -94.48)" fill="#f8951d"/><path d="M264.57,115.7a10.67,10.67,0,0,1,2.252,5.018c.749,3.491,2.264,18.756,2.217,20.7l3.373-2.529-1.368-12.123-2-1.238,1.68-2.205s-1.545-5.566-2.541-6.987a5.582,5.582,0,0,0-3.3-1.769Z" transform="translate(-177.607 -94.48)" opacity="0.3"/></g></g></svg>