<svg xmlns="http://www.w3.org/2000/svg" width="250" height="217.868" viewBox="0 0 250 217.868"><g transform="translate(-56.11 -89.62)"><g transform="translate(56.11 292.892)"><ellipse cx="125" cy="7.298" rx="125" ry="7.298" fill="#f5f5f5"/></g><g transform="translate(254.243 235.569)"><path d="M382.593,322.1c.135.948-2.437,1.567-4.513,1.934a8.976,8.976,0,0,0,2.895,5.08c1.992-1.122,4.829-2.579,5.351-2.237s-2.334,2.276-4.152,3.378a37.4,37.4,0,0,0,4.12,3.12c.89-.832,1.934-1.56,2.579-1.167s.471,1.7.148,2.85c2.166,1.289,3.784,2.031,3.784,2.031a43.52,43.52,0,0,0,1.444-6.144c-.11-.219-.213-.438-.316-.645-.348-.806,0-1.154.567-1.289a21.674,21.674,0,0,0,.039-4.429c-2.45-.509-5.428-1.463-4.313-2.933.645-.883,1.9-.986,3.185-.761a5.552,5.552,0,0,0-.606-.825c-4.455-4.913-7.569,0-7.569,0-2.579-2.16-6.228-1.573-7.014,1.8C379.64,321.485,382.425,320.931,382.593,322.1Z" transform="translate(-368.64 -316.672)" fill="#f8951d"/><path d="M386.96,359.882l-.645-.052c0-.329,2.637-33.215-4.745-36.316a2.5,2.5,0,0,0-2.237.052c-2.663,1.393-3.945,7.15-3.958,7.208l-.645-.142c.052-.245,1.354-6.105,4.287-7.633a3.153,3.153,0,0,1,2.785-.077C389.635,326.2,387.076,358.509,386.96,359.882Z" transform="translate(-367.45 -318.361)" fill="#f8951d"/><path d="M394.641,356.817c-.135-1.483-3.146-36.277,2.489-39.971,1.347-.883,2.579-1.077,3.578-.554,2.663,1.341,3.011,7.034,3.024,7.272l-.645.039c0-.058-.342-5.564-2.669-6.737a2.891,2.891,0,0,0-2.933.522c-5.319,3.481-2.237,39.011-2.2,39.372Z" transform="translate(-374.196 -316.005)" fill="#f8951d"/><path d="M396.409,366.894c-.045-1.135-.973-27.767,4.158-30.1a3.6,3.6,0,0,1,3.049,0c3.52,1.547,5.7,8.1,5.8,8.381l-.612.2c0-.064-2.179-6.563-5.435-7.994a2.927,2.927,0,0,0-2.521,0c-3.939,1.792-4.068,21.92-3.784,29.488Z" transform="translate(-375.12 -323.271)" fill="#f8951d"/><path d="M391.143,363.753l-.645-.071c.9-7.93,2.63-29.05-.193-31.59a1.1,1.1,0,0,0-1.154-.361c-1.889.729-3.043,7.6-3.327,10.186l-.645-.071c.11-.993,1.135-9.716,3.733-10.715a1.721,1.721,0,0,1,1.818.477C394.393,334.884,391.279,362.606,391.143,363.753Z" transform="translate(-371.163 -321.348)" fill="#f8951d"/><path d="M377.75,358.47h23.157l-1.934,25.943H379.684Z" transform="translate(-368.523 -331.093)" fill="#263238"/><path d="M380.561,342.266c-.239.645-2.037.135-3.449-.367a6.422,6.422,0,0,0,.039,4.133c1.612,0,3.868.045,4.068.451s-2.218.6-3.72.645a26.733,26.733,0,0,0,1.47,3.34c.838-.206,1.734-.3,1.979.155s-.29,1.212-.883,1.812c.9,1.515,1.638,2.547,1.638,2.547a30.234,30.234,0,0,0,3-3.294,2.808,2.808,0,0,1,.032-.516c.064-.645.387-.716.787-.587a15.194,15.194,0,0,0,1.534-2.714c-1.335-1.16-2.843-2.766-1.65-3.288a2.186,2.186,0,0,1,2.224.645,3.294,3.294,0,0,0-.09-.716c-1.064-4.558-4.668-2.579-4.668-2.579-.857-2.224-3.3-3.107-4.938-1.289C378.955,340.873,380.857,341.486,380.561,342.266Z" transform="translate(-368.181 -324.411)" fill="#f8951d"/><path d="M380.561,342.266c-.239.645-2.037.135-3.449-.367a6.422,6.422,0,0,0,.039,4.133c1.612,0,3.868.045,4.068.451s-2.218.6-3.72.645a26.733,26.733,0,0,0,1.47,3.34c.838-.206,1.734-.3,1.979.155s-.29,1.212-.883,1.812c.9,1.515,1.638,2.547,1.638,2.547a30.234,30.234,0,0,0,3-3.294,2.808,2.808,0,0,1,.032-.516c.064-.645.387-.716.787-.587a15.194,15.194,0,0,0,1.534-2.714c-1.335-1.16-2.843-2.766-1.65-3.288a2.186,2.186,0,0,1,2.224.645,3.294,3.294,0,0,0-.09-.716c-1.064-4.558-4.668-2.579-4.668-2.579-.857-2.224-3.3-3.107-4.938-1.289C378.955,340.873,380.857,341.486,380.561,342.266Z" transform="translate(-368.181 -324.411)" fill="#fff" opacity="0.3"/><path d="M407.978,345.112a9.064,9.064,0,0,0-2.121.445,5.114,5.114,0,0,1-.31-1.528c-.148-4.674,3.224-2.708,4.964-4.074a3.791,3.791,0,0,1,2.959-.928,6.213,6.213,0,0,0-.406.8.741.741,0,0,0,.567,1,2.147,2.147,0,0,0,1.289-.155,2.43,2.43,0,0,0,.335-.239A6.67,6.67,0,0,1,415.9,342a9.026,9.026,0,0,1,.3,2,7.1,7.1,0,0,0-.78.219.729.729,0,0,0-.29,1.109,3.294,3.294,0,0,0,.961.677,11.075,11.075,0,0,1-.587,2.192l-.239.032a4.786,4.786,0,0,0-.5.129,2.01,2.01,0,0,0-.277.1.761.761,0,0,0-.438.567.722.722,0,0,0,.277.645,2.092,2.092,0,0,0,.348.213,5.2,5.2,0,0,1-1.857,1.87,19.387,19.387,0,0,1-1.966-1.044c.142-.187.284-.374.413-.567a1.09,1.09,0,0,0,.193-.729,1.012,1.012,0,0,0-.374-.645,1.038,1.038,0,0,0-.735-.193.98.98,0,0,0-.645.374,6.527,6.527,0,0,1-.5.645,12.32,12.32,0,0,1-2.372-2.3h.071a7.011,7.011,0,0,1,1.289-.219.994.994,0,0,0-.251-1.973Z" transform="translate(-378.398 -324.175)" fill="#f8951d"/><path d="M407.978,345.112a9.064,9.064,0,0,0-2.121.445,5.114,5.114,0,0,1-.31-1.528c-.148-4.674,3.224-2.708,4.964-4.074a3.791,3.791,0,0,1,2.959-.928,6.213,6.213,0,0,0-.406.8.741.741,0,0,0,.567,1,2.147,2.147,0,0,0,1.289-.155,2.43,2.43,0,0,0,.335-.239A6.67,6.67,0,0,1,415.9,342a9.026,9.026,0,0,1,.3,2,7.1,7.1,0,0,0-.78.219.729.729,0,0,0-.29,1.109,3.294,3.294,0,0,0,.961.677,11.075,11.075,0,0,1-.587,2.192l-.239.032a4.786,4.786,0,0,0-.5.129,2.01,2.01,0,0,0-.277.1.761.761,0,0,0-.438.567.722.722,0,0,0,.277.645,2.092,2.092,0,0,0,.348.213,5.2,5.2,0,0,1-1.857,1.87,19.387,19.387,0,0,1-1.966-1.044c.142-.187.284-.374.413-.567a1.09,1.09,0,0,0,.193-.729,1.012,1.012,0,0,0-.374-.645,1.038,1.038,0,0,0-.735-.193.98.98,0,0,0-.645.374,6.527,6.527,0,0,1-.5.645,12.32,12.32,0,0,1-2.372-2.3h.071a7.011,7.011,0,0,1,1.289-.219.994.994,0,0,0-.251-1.973Z" transform="translate(-378.398 -324.175)" fill="#fff" opacity="0.5"/><path d="M408.146,321.981a6.375,6.375,0,0,1,1.289-.7,3.424,3.424,0,0,0-.509-.941c-1.973-2.521-2.862,0-4.4.039a2.579,2.579,0,0,0-1.934.812,4.345,4.345,0,0,1,.561.245.5.5,0,0,1,.142.774,1.515,1.515,0,0,1-.754.49,1.406,1.406,0,0,1-.284,0,4.282,4.282,0,0,0,.348,1.1,6.157,6.157,0,0,0,.722,1.18,4.427,4.427,0,0,1,.5-.226.5.5,0,0,1,.645.458,2.34,2.34,0,0,1-.213.78,7.925,7.925,0,0,0,1.289.89l.142-.084a2.959,2.959,0,0,1,.322-.155.646.646,0,0,1,.187-.071.522.522,0,0,1,.484.1.509.509,0,0,1,.148.477,1.288,1.288,0,0,1-.09.264,3.546,3.546,0,0,0,1.792.168,13.445,13.445,0,0,0,.58-1.412c-.155-.032-.316-.071-.464-.116a.722.722,0,0,1-.426-.3.69.69,0,0,1-.09-.516.645.645,0,0,1,.3-.425.7.7,0,0,1,.509-.09c.187.052.367.1.554.135a8.428,8.428,0,0,0,.239-2.25h-.045a4.9,4.9,0,0,0-.793.464.68.68,0,1,1-.729-1.148Z" transform="translate(-377.232 -317.149)" fill="#f8951d"/><path d="M408.146,321.981a6.375,6.375,0,0,1,1.289-.7,3.424,3.424,0,0,0-.509-.941c-1.973-2.521-2.862,0-4.4.039a2.579,2.579,0,0,0-1.934.812,4.345,4.345,0,0,1,.561.245.5.5,0,0,1,.142.774,1.515,1.515,0,0,1-.754.49,1.406,1.406,0,0,1-.284,0,4.282,4.282,0,0,0,.348,1.1,6.157,6.157,0,0,0,.722,1.18,4.427,4.427,0,0,1,.5-.226.5.5,0,0,1,.645.458,2.34,2.34,0,0,1-.213.78,7.925,7.925,0,0,0,1.289.89l.142-.084a2.959,2.959,0,0,1,.322-.155.646.646,0,0,1,.187-.071.522.522,0,0,1,.484.1.509.509,0,0,1,.148.477,1.288,1.288,0,0,1-.09.264,3.546,3.546,0,0,0,1.792.168,13.445,13.445,0,0,0,.58-1.412c-.155-.032-.316-.071-.464-.116a.722.722,0,0,1-.426-.3.69.69,0,0,1-.09-.516.645.645,0,0,1,.3-.425.7.7,0,0,1,.509-.09c.187.052.367.1.554.135a8.428,8.428,0,0,0,.239-2.25h-.045a4.9,4.9,0,0,0-.793.464.68.68,0,1,1-.729-1.148Z" transform="translate(-377.232 -317.149)" fill="#fff" opacity="0.3"/><path d="M375.482,328.426c-.135.948,2.43,1.573,4.513,1.934a9,9,0,0,1-2.9,5.087c-1.986-1.122-4.829-2.579-5.351-2.244s2.334,2.276,4.152,3.385a37.316,37.316,0,0,1-4.113,3.12c-.9-.838-1.934-1.567-2.579-1.173s-.471,1.7-.155,2.85c-2.16,1.289-3.784,2.031-3.784,2.031a43.512,43.512,0,0,1-1.444-6.144c.11-.213.219-.432.316-.645.348-.806,0-1.148-.567-1.289a21.607,21.607,0,0,1-.032-4.423c2.45-.516,5.428-1.463,4.313-2.933-.645-.89-1.934-.986-3.191-.767a5.548,5.548,0,0,1,.606-.825c4.461-4.906,7.569,0,7.569,0,2.579-2.153,6.228-1.573,7.014,1.8C378.435,327.813,375.65,327.259,375.482,328.426Z" transform="translate(-363.438 -318.919)" fill="#f8951d"/><path d="M375.482,328.426c-.135.948,2.43,1.573,4.513,1.934a9,9,0,0,1-2.9,5.087c-1.986-1.122-4.829-2.579-5.351-2.244s2.334,2.276,4.152,3.385a37.316,37.316,0,0,1-4.113,3.12c-.9-.838-1.934-1.567-2.579-1.173s-.471,1.7-.155,2.85c-2.16,1.289-3.784,2.031-3.784,2.031a43.512,43.512,0,0,1-1.444-6.144c.11-.213.219-.432.316-.645.348-.806,0-1.148-.567-1.289a21.607,21.607,0,0,1-.032-4.423c2.45-.516,5.428-1.463,4.313-2.933-.645-.89-1.934-.986-3.191-.767a5.548,5.548,0,0,1,.606-.825c4.461-4.906,7.569,0,7.569,0,2.579-2.153,6.228-1.573,7.014,1.8C378.435,327.813,375.65,327.259,375.482,328.426Z" transform="translate(-363.438 -318.919)" fill="#fff" opacity="0.5"/></g><g transform="translate(95.496 164.402)"><path d="M171.427,407.809l-16.253-5.983-16.427,5.989A.87.87,0,0,1,137.58,407h0a.877.877,0,0,1,.5-.786l17.091-7.93,16.917,7.93a.857.857,0,0,1,.5.787h0a.864.864,0,0,1-1.167.812Z" transform="translate(-124.442 -274.07)" fill="#263238"/><path d="M171.427,407.809l-16.253-5.983-16.427,5.989A.87.87,0,0,1,137.58,407h0a.877.877,0,0,1,.5-.786l17.091-7.93,16.917,7.93a.857.857,0,0,1,.5.787h0a.864.864,0,0,1-1.167.812Z" transform="translate(-124.442 -274.07)" fill="#fff" opacity="0.3"/><path d="M158.93,403.218l3.829-1.393,3.655,1.347v-3.185l-3.655-1.708-3.829,1.773Z" transform="translate(-132.028 -274.07)" opacity="0.2"/><path d="M163.7,387.886h0a1.444,1.444,0,0,1-1.438-1.289l-.458-4.816V341.81h3.784v39.971l-.458,4.816A1.444,1.444,0,0,1,163.7,387.886Z" transform="translate(-133.048 -254.006)" fill="#263238"/><path d="M163.7,387.886h0a1.444,1.444,0,0,1-1.438-1.289l-.458-4.816V341.81h3.784v39.971l-.458,4.816A1.444,1.444,0,0,1,163.7,387.886Z" transform="translate(-133.048 -254.006)" fill="#fff" opacity="0.3"/><rect width="3.791" height="4.655" transform="translate(28.752 87.771)" opacity="0.2"/><path d="M139.37,277.87a1.612,1.612,0,0,1,1.451.832,56.024,56.024,0,0,1,7.014,38.682,1.418,1.418,0,0,1-1.354,1.257c-1.051.077-19.753,0-20.43,0a1.883,1.883,0,0,1-1.9-2.192,52.3,52.3,0,0,0-6.66-35.968,1.734,1.734,0,0,1,1.567-2.579C119.6,277.857,138.177,277.889,139.37,277.87Z" transform="translate(-117.226 -231.288)" fill="#f8951d"/><path d="M139.37,277.87a1.612,1.612,0,0,1,1.451.832,56.024,56.024,0,0,1,7.014,38.682,1.418,1.418,0,0,1-1.354,1.257c-1.051.077-19.753,0-20.43,0a1.883,1.883,0,0,1-1.9-2.192,52.3,52.3,0,0,0-6.66-35.968,1.734,1.734,0,0,1,1.567-2.579C119.6,277.857,138.177,277.889,139.37,277.87Z" transform="translate(-117.226 -231.288)" opacity="0.2"/><path d="M124.125,316.434a52.3,52.3,0,0,0-6.66-35.968c-1.167-1.934,1.857-3.694,3.017-1.766a56.024,56.024,0,0,1,7.014,38.682c-.4,2.211-3.771,1.289-3.372-.928Z" transform="translate(-117.202 -231.287)" fill="#f8951d"/><g transform="translate(0 46.579)" opacity="0.1"><path d="M124.125,316.434a52.3,52.3,0,0,0-6.66-35.968c-1.167-1.934,1.857-3.694,3.017-1.766a56.024,56.024,0,0,1,7.014,38.682c-.4,2.211-3.771,1.289-3.372-.928Z" transform="translate(-117.202 -277.866)" fill="#fff"/></g><path d="M187.966,335.1a58.9,58.9,0,0,0-13.113-1.805c-4.552-.116-21.6,0-25.646,0a59.027,59.027,0,0,0-14.635,1.824c-3,.767-2.076,5.1.645,5.158h51.95C190,340.377,191.035,335.877,187.966,335.1Z" transform="translate(-122.711 -250.961)" fill="#f8951d"/><path d="M187.966,335.1a58.9,58.9,0,0,0-13.113-1.805c-4.552-.116-21.6,0-25.646,0a59.027,59.027,0,0,0-14.635,1.824c-3,.767-2.076,5.1.645,5.158h51.95C190,340.377,191.035,335.877,187.966,335.1Z" transform="translate(-122.711 -250.961)" opacity="0.3"/><path d="M135.971,340.2a53.671,53.671,0,0,1,26.478,0c3.269.832,4.668-4.229,1.393-5.061a59.505,59.505,0,0,0-29.269,0C131.3,335.974,132.69,341.035,135.971,340.2Z" transform="translate(-122.711 -250.988)" fill="#f8951d"/><g transform="translate(9.997 82.327)" opacity="0.3"><path d="M135.971,340.2a53.671,53.671,0,0,1,26.478,0c3.269.832,4.668-4.229,1.393-5.061a59.505,59.505,0,0,0-29.269,0C131.3,335.974,132.69,341.035,135.971,340.2Z" transform="translate(-132.708 -333.315)" fill="#fff"/></g><rect width="23.08" height="9.251" transform="translate(22.086 63.776)" fill="#263238"/><rect width="23.08" height="9.251" transform="translate(22.086 63.776)" fill="#fff" opacity="0.2"/><path d="M204.857,380.74l-3.037,13.223,3.771,1.457,5.428-13.294Z" transform="translate(-147.267 -267.838)" fill="#b55b52"/><path d="M203.76,401.137l-3.436-1.831a.361.361,0,0,0-.445.084l-2.45,2.83a.6.6,0,0,0,.058.845.645.645,0,0,0,.1.077c1.438.741,2.746,1.341,4.513,2.3,2.089,1.128,1.425,1.09,3.868,2.45,1.47.819,2.65-.722,2.063-1.141a7.963,7.963,0,0,1-3.591-4.861,1.457,1.457,0,0,0-.683-.754Z" transform="translate(-145.655 -274.42)" fill="#263238"/><path d="M158.988,316.559,177.5,315.54s30.758,4.809,30.3,13.41-12.978,35.716-12.978,35.716l-7.343-2.037s5.6-27.264,9.238-31.783c0,0-22.971-2.695-28.721-4.229C164.868,325.778,157.241,327.2,158.988,316.559Z" transform="translate(-131.958 -244.673)" fill="#263238"/><path d="M158.988,316.559,177.5,315.54s30.758,4.809,30.3,13.41-12.978,35.716-12.978,35.716l-7.343-2.037s5.6-27.264,9.238-31.783c0,0-22.971-2.695-28.721-4.229C164.868,325.778,157.241,327.2,158.988,316.559Z" transform="translate(-131.958 -244.673)" fill="#fff" opacity="0.2"/><path d="M193.641,330.7a16.485,16.485,0,0,0-1.412-7.427c-1.708-3.868-15.789-6.176-22.526-7.092l-10.715.587c-1.747,10.644,5.88,9.219,9.026,10.057C172.443,328.03,187.168,329.906,193.641,330.7Z" transform="translate(-131.958 -244.9)" opacity="0.2"/><path d="M186.754,386.39l-.484,13.558,4.081.193,2.714-13.558Z" transform="translate(-141.742 -269.846)" fill="#b55b52"/><path d="M189.352,405.807l-3.958.084a.367.367,0,0,0-.355.29l-.754,3.733a.645.645,0,0,0,.471.729h.129c1.65-.058,3.107-.181,5.158-.213,2.424-.045,1.812.258,4.661.245,1.715,0,1.992-1.934,1.289-2.044a8.1,8.1,0,0,1-5.615-2.521,1.483,1.483,0,0,0-1.025-.3Z" transform="translate(-141.034 -276.743)" fill="#263238"/><path d="M201.99,386.09l9.238,2.572-1.689,3.552-8.42-2.1Z" transform="translate(-147.018 -269.739)" fill="#263238"/><path d="M201.99,386.09l9.238,2.572-1.689,3.552-8.42-2.1Z" transform="translate(-147.018 -269.739)" opacity="0"/><path d="M160.193,317.12s24.782.877,26.239,8.458-6.847,41.544-6.847,41.544h-7.44s.877-30.468,3.359-36.883c0,0-20.411,3.223-25.788-1.425-3.868-3.307.729-11.695.729-11.695Z" transform="translate(-128.204 -245.234)" fill="#263238"/><path d="M160.193,317.12s24.782.877,26.239,8.458-6.847,41.544-6.847,41.544h-7.44s.877-30.468,3.359-36.883c0,0-20.411,3.223-25.788-1.425-3.868-3.307.729-11.695.729-11.695Z" transform="translate(-128.204 -245.234)" fill="#fff" opacity="0.2"/><path d="M184.23,391.74l9.335.438-.877,3.72-8.458-.438Z" transform="translate(-141.017 -271.747)" fill="#263238"/><path d="M184.23,391.74l9.335.438-.877,3.72-8.458-.438Z" transform="translate(-141.017 -271.747)" opacity="0"/><path d="M216.713,269.911l3.971-1.483L217.3,265.16s-3.462,1.541-2.579,3.294Z" transform="translate(-151.799 -226.772)" fill="#b55b52"/><path d="M224.783,264.108l-3.862-1.818-2.121,1.857,3.385,3.262Z" transform="translate(-153.3 -225.753)" fill="#b55b52"/><path d="M210.06,271.4l2.34-2.547,3.127,2.663-2.534,3Z" transform="translate(-150.195 -228.083)" fill="#f8951d"/><path d="M210.06,271.4l2.34-2.547,3.127,2.663-2.534,3Z" transform="translate(-150.195 -228.083)" fill="#fff" opacity="0.8"/><path d="M185.415,248.48s2.443,2.772,5.97,11.856,7.433,6.447,11.721,1.534l3.526,3.223s-6.589,8.22-10.741,8.22c-4.616,0-9.1-7.163-10-12.159S185.415,248.48,185.415,248.48Z" transform="translate(-141.403 -220.846)" fill="#263238"/><path d="M185.744,256.016l-1.289-1.1-.645,3.494c.09,1.012.206,2.005.367,2.9.516,2.856,2.45,6.6,4.513,9.7a116.233,116.233,0,0,0-2.946-15Z" transform="translate(-140.868 -223.134)" opacity="0.4"/><path d="M147.083,274.139l.367,18.915,13.925.471c1.818,0,2.244-1.212,2.624-2.579l.683-2.469.606,2.231c.367,1.367,2.276,1.592,3.655,1.289l6.067-1.5-1.393-18.625s.935-14.029-1.289-23.009a4.816,4.816,0,0,0-3.688-3.314,36.806,36.806,0,0,0-21.771,1.65,2.089,2.089,0,0,0-1.289,2.192Z" transform="translate(-127.28 -219.473)" fill="#263238"/><path d="M174.07,277.68a.58.58,0,1,1-.58-.58.58.58,0,0,1,.58.58Z" transform="translate(-136.995 -231.015)" opacity="0.5"/><path d="M174.95,290.09a.58.58,0,1,1-.58-.58A.58.58,0,0,1,174.95,290.09Z" transform="translate(-137.308 -235.424)" opacity="0.5"/><path d="M175.36,302.37a.58.58,0,1,1-.574-.58A.58.58,0,0,1,175.36,302.37Z" transform="translate(-137.454 -239.787)" opacity="0.5"/><path d="M159.866,243.835a12.3,12.3,0,0,1,6.93-.484l1.425.812.5,1.579-1.8,1.412-4.255.438-3.514-1.457.193-1.56Z" transform="translate(-132.106 -218.921)" fill="#263238"/><path d="M167.8,240.467c-1.412-.38-2.411-2.837-1.251-4.416l-6.163-4.771c.9,8.607.458,7.04-.819,9.516,0,0,.883,2.869,5.854,1.979C168.647,242.195,167.8,240.467,167.8,240.467Z" transform="translate(-132.255 -214.735)" fill="#b55b52"/><path d="M166.982,236.147l-6.2-4.6c.155,1.212.174,1.218.258,2.1.645,1.335,1.986,4.726,5.486,4.829A3.112,3.112,0,0,1,166.982,236.147Z" transform="translate(-132.685 -214.83)" opacity="0.2"/><path d="M159.458,250.306l1.7,5.512,3.933,5.68,3.23,3.359,1.206-4.919-.387-10.27-.064-2.218-.9-1.27-1.431,1.257-1.225.471-1.792.019-4.7-1.431Z" transform="translate(-132.06 -220.029)" fill="#f8951d"/><path d="M159.458,250.306l1.7,5.512,3.933,5.68,3.23,3.359,1.206-4.919-.387-10.27-.064-2.218-.9-1.27-1.431,1.257-1.225.471-1.792.019-4.7-1.431Z" transform="translate(-132.06 -220.029)" fill="#f8951d" opacity="0.8"/><path d="M159.458,250.306l1.7,5.512,3.933,5.68,3.23,3.359,1.206-4.919-.387-10.27-.064-2.218-.9-1.27-1.431,1.257-1.225.471-1.792.019-4.7-1.431Z" transform="translate(-132.06 -220.029)" fill="#fff" opacity="0.5"/><path d="M165.59,250.815a7.517,7.517,0,0,0,1.831,2.334s-.787,5.622.426,9.554l2.8,3.3.819-4.081s-1.289-6.524-2.94-8.993a10.385,10.385,0,0,0,.935-2.695l-1.032-.825s-1.4,1-2.237.3Z" transform="translate(-134.394 -221.176)" fill="#f8951d"/><path d="M159.221,244.769s2.579,2.211,5.2,2.211a2.971,2.971,0,0,0,2.895-2.721l1.1,1.186a7.736,7.736,0,0,1-.9,3.965l-2.714-1.837-1.844,2.656a11.134,11.134,0,0,1-4.3-3.868Z" transform="translate(-131.932 -219.346)" fill="#f8951d"/><path d="M159.221,244.769s2.579,2.211,5.2,2.211a2.971,2.971,0,0,0,2.895-2.721l1.1,1.186a7.736,7.736,0,0,1-.9,3.965l-2.714-1.837-1.844,2.656a11.134,11.134,0,0,1-4.3-3.868Z" transform="translate(-131.932 -219.346)" fill="#fff" opacity="0.8"/><path d="M158.395,243.994s-2.127,6.557,8.381,19.064c0,0,1.883-15.324-1.418-19.547l2.3.909,2.385,3.6-1.747,1.122,2.16.961s-.309,4.971-3.352,14.525a54.937,54.937,0,0,1-11.385-12.514l2.1-1.67-2.8-.445,1.244-4.977Z" transform="translate(-130.635 -219.08)" fill="#263238"/><path d="M158.395,243.994s-2.127,6.557,8.381,19.064c0,0,1.883-15.324-1.418-19.547l2.3.909,2.385,3.6-1.747,1.122,2.16.961s-.309,4.971-3.352,14.525a54.937,54.937,0,0,1-11.385-12.514l2.1-1.67-2.8-.445,1.244-4.977Z" transform="translate(-130.635 -219.08)" opacity="0.3"/><path d="M146.05,254.621l2.727,15.2.316-.393a37.431,37.431,0,0,0-.593-15.254l-.825.445Z" transform="translate(-127.452 -222.867)" opacity="0.4"/><path d="M169.983,213.18s2.966,5.486.683,8.826-6.157-7.472-6.157-7.472Z" transform="translate(-134.011 -208.304)" fill="#263238"/><path d="M169.583,225.294a5.547,5.547,0,0,1-.077.645,6.241,6.241,0,0,1-2.372,3.933,5.725,5.725,0,0,1-3.965,1.186A5.616,5.616,0,0,1,160.351,230c-2.579-1.837-3-4.423-4.036-8.736a6.067,6.067,0,0,1,7.182-7.433C168.106,214.824,169.853,221.2,169.583,225.294Z" transform="translate(-131.031 -208.484)" fill="#b55b52"/><path d="M167.065,225.13c.039.355.3.612.535.567s.374-.367.309-.722-.3-.606-.535-.567S167.02,224.788,167.065,225.13Z" transform="translate(-134.915 -212.291)" fill="#263238"/><path d="M173.3,224.03c.039.355.3.606.535.567s.367-.367.309-.722-.309-.606-.542-.567S173.244,223.688,173.3,224.03Z" transform="translate(-137.13 -211.901)" fill="#263238"/><path d="M171.38,225.05a12.855,12.855,0,0,0,2.231,2.74,2.076,2.076,0,0,1-1.65.645Z" transform="translate(-136.452 -212.521)" fill="#a02724"/><path d="M174,221.048a.245.245,0,0,1-.219,0,1.7,1.7,0,0,0-1.528.09.213.213,0,1,1-.245-.348h0a2.1,2.1,0,0,1,1.934-.135.206.206,0,0,1,.122.271h0A.644.644,0,0,1,174,221.048Z" transform="translate(-136.643 -210.897)" fill="#263238"/><path d="M165.286,222.644a.187.187,0,0,1-.155-.316h0a2.108,2.108,0,0,1,1.766-.8.2.2,0,0,1,.181.232h0a.213.213,0,0,1-.232.187h0a1.721,1.721,0,0,0-1.386.645.232.232,0,0,1-.174.052Z" transform="translate(-134.213 -211.269)" fill="#263238"/><path d="M157.226,216.13l.645,1.85a1.457,1.457,0,0,0-.309,1.934,5.293,5.293,0,0,1-.374,5.428s-.193-.69-.741-.393.432,3.868,1.966,5.345a11.543,11.543,0,0,1-3.92-4.745c-1.7-3.3-2.476-6.2-2.063-7.736Z" transform="translate(-129.68 -209.352)" fill="#263238"/><path d="M154.244,229.83A4.21,4.21,0,0,0,157,231.513c1.463.219,2.011-1.135,1.457-2.424-.509-1.141-1.876-2.669-3.275-2.282a1.876,1.876,0,0,0-.935,3.024Z" transform="translate(-130.205 -213.123)" fill="#b55b52"/><path d="M152.286,215.044s-1.012-2.4,2.508-5.216,8.329-1.509,10.6-3.765,3.868,4.655-1.6,6.653a45.624,45.624,0,0,1-11.508,2.327Z" transform="translate(-129.619 -205.616)" fill="#263238"/><path d="M170.285,231.236a13.376,13.376,0,0,0-1.083,1.586l-.316-.122c-1.425-.567-1.9-1.289-1.992-1.934a2.2,2.2,0,0,1,.342-1.405,7.2,7.2,0,0,0,2.579,1.676A5.047,5.047,0,0,0,170.285,231.236Z" transform="translate(-134.854 -214.052)" fill="#263238"/><path d="M169.868,231.076l-.335.458a4.51,4.51,0,0,1-2.463-1.657,1.935,1.935,0,0,1,.232-.477A7.2,7.2,0,0,0,169.868,231.076Z" transform="translate(-134.92 -214.067)" fill="#fff"/><path d="M168.9,233.474c-1.425-.567-1.9-1.289-1.992-1.934a4.861,4.861,0,0,1,1.457.935,1.87,1.87,0,0,1,.535,1Z" transform="translate(-134.863 -214.827)" fill="#a02724"/><path d="M133.121,269.783a2,2,0,0,0,3.024.993,7.736,7.736,0,0,0,2.669-2.482c.542-.78,1.289-1.934,2.018-3.191,1.592-2.675,3.256-5.648,3.256-5.648a6.112,6.112,0,0,0,1.1-5.357c-.961-2.869-2.147-4.513-3.327-4.668C138.646,250.958,131.916,267.2,133.121,269.783Z" transform="translate(-122.807 -221.183)" fill="#263238"/><path d="M136.707,277.734a7.737,7.737,0,0,0,2.669-2.482c.542-.78,1.289-1.934,2.018-3.191a30.4,30.4,0,0,0-1.9-3.011l-1.618,4.564s-2.85.645-3.3,2.134C134.412,276.309,135.379,277.109,136.707,277.734Z" transform="translate(-123.37 -228.154)" opacity="0.2"/><path d="M137.985,260.712l5.377,20.488a1.051,1.051,0,0,0,1.122.754l14.267-1.9a.774.774,0,0,0,.645-.986l-5.332-20.482a1.051,1.051,0,0,0-1.122-.748l-14.267,1.9a.78.78,0,0,0-.69.98Z" transform="translate(-124.577 -224.168)" fill="#263238"/><path d="M137.983,260.751l5.377,20.488a1.051,1.051,0,0,0,1.122.754l13.616-1.812a.78.78,0,0,0,.645-.993L153.365,258.7a1.044,1.044,0,0,0-1.122-.754l-13.616,1.812a.78.78,0,0,0-.645.993Z" transform="translate(-124.574 -224.207)" fill="#fff" opacity="0.4"/><path d="M152.871,274.415a1.5,1.5,0,0,1,1.605,1.077,1.115,1.115,0,0,1-.954,1.425,1.515,1.515,0,0,1-1.612-1.083,1.115,1.115,0,0,0,.961-1.418Z" transform="translate(-129.534 -230.057)" fill="#fff" opacity="0.3"/><path d="M135.054,284.737c.967.509,3.133-.264,3.791-.522l.206-.077s1.18-3.868-1.9-5.951a.252.252,0,0,0-.071-.039c-.98-.529-4.023.148-4.113,1.18C132.6,283.448,133.913,284.138,135.054,284.737Z" transform="translate(-122.78 -231.322)" fill="#263238"/><path d="M139.016,281.538a4.9,4.9,0,0,0,1.934,2.779l.206-.077s1.18-3.868-1.9-5.951a.252.252,0,0,0-.071-.039C138.913,278.6,138.468,279.514,139.016,281.538Z" transform="translate(-124.86 -231.423)" opacity="0.2"/><path d="M143.589,275.739s-1.979-.084-2.888,0-.645,3.011-.645,3.011l-.78.426a2.206,2.206,0,0,0,.722,2.579l.7-.239a1.934,1.934,0,0,0,.754,1.032c.561.348,3.32-.432,3.32-.432Z" transform="translate(-124.991 -230.518)" fill="#b55b52"/></g><g transform="translate(98.847 202.886)"><path d="M215.475,294.539a.645.645,0,1,0,0-1.289H197.495a.645.645,0,0,0,0,1.289Z" transform="translate(-148.852 -275.237)" fill="#f8951d"/><path d="M215.475,294.539a.645.645,0,1,0,0-1.289H197.495a.645.645,0,0,0,0,1.289Z" transform="translate(-148.852 -275.237)" fill="#fff" opacity="0.5"/><path d="M223.361,283.471l2.392-17.026a1.354,1.354,0,0,1,1.289-1.135h2.3v19.3h-5.009a.961.961,0,0,1-.967-1.135Z" transform="translate(-158.266 -265.31)" fill="#f8951d"/><path d="M223.361,283.471l2.392-17.026a1.354,1.354,0,0,1,1.289-1.135h2.3v19.3h-5.009a.961.961,0,0,1-.967-1.135Z" transform="translate(-158.266 -265.31)" fill="#fff" opacity="0.6"/><path d="M225.872,284.606h20.359a1.354,1.354,0,0,0,1.289-1.135l2.392-17.026a.967.967,0,0,0-.973-1.135H228.58a1.341,1.341,0,0,0-1.289,1.135l-2.4,17.026a.967.967,0,0,0,.98,1.135Z" transform="translate(-158.811 -265.31)" fill="#f8951d"/><path d="M225.872,284.606h20.359a1.354,1.354,0,0,0,1.289-1.135l2.392-17.026a.967.967,0,0,0-.973-1.135H228.58a1.341,1.341,0,0,0-1.289,1.135l-2.4,17.026a.967.967,0,0,0,.98,1.135Z" transform="translate(-158.811 -265.31)" fill="#fff" opacity="0.5"/><path d="M241.657,280.677a1.483,1.483,0,0,0,1.5,1.747,2.089,2.089,0,0,0,2-1.747,1.489,1.489,0,0,0-1.509-1.747A2.076,2.076,0,0,0,241.657,280.677Z" transform="translate(-164.764 -270.149)" fill="#fff" opacity="0.7"/><path d="M129.41,374.1H131.1l2.166-72.315h-2.224Z" transform="translate(-124.891 -278.268)" fill="#263238"/><path d="M129.41,374.1H131.1l2.166-72.315h-2.224Z" transform="translate(-124.891 -278.268)" fill="#fff" opacity="0.6"/><path d="M155.727,301.78V374.1h-1.786l-2.1-69.015H130.32L128.746,374.1H126.98V301.78Z" transform="translate(-124.027 -278.268)" fill="#263238"/><path d="M155.727,301.78V374.1h-1.786l-2.1-69.015H130.32L128.746,374.1H126.98V301.78Z" transform="translate(-124.027 -278.268)" fill="#fff" opacity="0.4"/><path d="M171.57,374.1h1.683l.542-72.315H171.57Z" transform="translate(-139.87 -278.268)" fill="#263238"/><path d="M171.57,374.1h1.683l.542-72.315H171.57Z" transform="translate(-139.87 -278.268)" fill="#fff" opacity="0.6"/><path d="M271.31,374.1h1.683l2.173-72.315h-2.231Z" transform="translate(-175.308 -278.268)" fill="#263238"/><path d="M271.31,374.1h1.683l2.173-72.315h-2.231Z" transform="translate(-175.308 -278.268)" fill="#fff" opacity="0.6"/><path d="M297.621,301.78V374.1h-1.779l-2.1-69.015H272.22L270.646,374.1H268.88V301.78Z" transform="translate(-174.445 -278.268)" fill="#263238"/><path d="M297.621,301.78V374.1h-1.779l-2.1-69.015H272.22L270.646,374.1H268.88V301.78Z" transform="translate(-174.445 -278.268)" fill="#fff" opacity="0.4"/><path d="M313.46,374.1h1.689l.542-72.315H313.46Z" transform="translate(-190.285 -278.268)" fill="#263238"/><path d="M313.46,374.1h1.689l.542-72.315H313.46Z" transform="translate(-190.285 -278.268)" fill="#fff" opacity="0.6"/><rect width="95.267" height="4.158" transform="translate(128.359 23.506) rotate(180)" fill="#263238"/><rect width="95.267" height="4.158" transform="translate(128.359 23.506) rotate(180)" fill="#fff" opacity="0.5"/><rect width="35.677" height="4.158" transform="translate(35.677 23.506) rotate(180)" fill="#263238"/><rect width="35.677" height="4.158" transform="translate(35.677 23.506) rotate(180)" fill="#fff" opacity="0.3"/></g><g transform="translate(173.441 181.162)"><path d="M293,256.615l1.644-2.985,2.224,3.075s-1.625,2.579-2.914,1.683Z" transform="translate(-257.609 -239.435)" fill="#e4897b"/><path d="M298.487,251.03l1,3.281-1.721,1.47-2.2-3.075Z" transform="translate(-258.519 -238.512)" fill="#e4897b"/><path d="M296.81,252.721a9.316,9.316,0,0,0,1.412,3.533l.361-.309-1.135-3.585Z" transform="translate(-258.963 -238.984)" opacity="0.2"/><path d="M292.38,264.056l.413-5.8,2.179.419v5.828Z" transform="translate(-257.389 -241.08)" fill="#e4897b"/><path d="M248.9,370.779l3.333,1.3,2.392-4.513,2.179-4.1-3.694-2.218-2.231,5.042Z" transform="translate(-241.94 -277.673)" fill="#e4897b"/><path d="M251.97,366.292l3.746,1.276,2.179-4.1L254.2,361.25Z" transform="translate(-243.031 -277.673)" opacity="0.2"/><path d="M253.05,341.53l4.513,2.43s17.117-30.088,19.747-29.836,27.593,16.163,35.207,10.283.206-23.564.206-23.564-15.75-4.513-17.458-1.038a26.433,26.433,0,0,0-1.128,3.159c-.335,1.083-.587,2-.587,2h0c-.477-.193-16.034-6.569-22.977-3.153C263.52,305.266,253.05,341.53,253.05,341.53Z" transform="translate(-243.415 -255.375)" fill="#263238"/><path d="M253.05,341.53l4.513,2.43s17.117-30.088,19.747-29.836,27.593,16.163,35.207,10.283.206-23.564.206-23.564-15.75-4.513-17.458-1.038a26.433,26.433,0,0,0-1.128,3.159c-.335,1.083-.587,2-.587,2h0c-.477-.193-16.034-6.569-22.977-3.153C263.52,305.266,253.05,341.53,253.05,341.53Z" transform="translate(-243.415 -255.375)" fill="#fff" opacity="0.3"/><path d="M290.812,397.678l3.552-.406.013-5.009.006-4.6-4.294-.206.38,5.415Z" transform="translate(-256.575 -286.986)" fill="#e4897b"/><path d="M290.487,392.993l3.907-.619v-4.648L290.1,387.5Z" transform="translate(-256.579 -287)" opacity="0.2"/><path d="M259.477,364.874l-6.627-3.314-.69,2.8,5.016,2.592Z" transform="translate(-243.098 -277.783)" fill="#263238"/><path d="M310.118,331.863s-1.09-.129-17.832-3.223c0,0-.38,21.417-1.173,37.392l-5.158.168s-7.395-35.478-6.524-40.8,7.233-6.073,7.233-6.073S297.714,327.917,310.118,331.863Z" transform="translate(-252.763 -262.779)" fill="#263238"/><path d="M310.118,331.863s-1.09-.129-17.832-3.223c0,0-.38,21.417-1.173,37.392l-5.158.168s-7.395-35.478-6.524-40.8,7.233-6.073,7.233-6.073S297.714,327.917,310.118,331.863Z" transform="translate(-252.763 -262.779)" fill="#fff" opacity="0.4"/><path d="M310.118,331.863s-1.09-.129-17.832-3.223c0,0-.38,21.417-1.173,37.392l-5.158.168s-7.395-35.478-6.524-40.8,7.233-6.073,7.233-6.073S297.714,327.917,310.118,331.863Z" transform="translate(-252.763 -262.779)" opacity="0.3"/><path d="M295.184,389.421l-7.034-.161.961,2.9,5.706.052Z" transform="translate(-255.886 -287.625)" fill="#263238"/><path d="M238.45,382.241a4.514,4.514,0,0,1,1.715-.193s2.153-.9,4.745-5.158l2.218.3c1.09.142,2.579,1.393,2.308,2.411-.5,2.147-2.231,3.971-3.153,5.963l-.361-.148,1.135-3.223c.38-1.1-.948-.174-1.65.89s-1.7,2.076-4.068,1.186C238.579,383.2,237.483,382.628,238.45,382.241Z" transform="translate(-238.104 -283.23)" fill="#263238"/><path d="M246.612,375.1s-3.565,5.409-5.312,6.312c0,0,1.934,1.567,4.577-.967,3.378-3.269,3.952-3.114,3.952-3.114a3.224,3.224,0,0,0-.1-.948C249.488,375.139,246.612,375.1,246.612,375.1Z" transform="translate(-239.24 -282.594)" fill="#e4897b"/><path d="M282.848,409.215a4.692,4.692,0,0,1,1.625-.593s1.87-1.386,3.378-6.15l2.224-.245c1.831-.2,2.914.89,2.824,2.211,0,1.683-1.657,6.125-1.657,6.125l-.387-.052.342-3.391c.11-1.154-.961.058-1.393,1.251s-1.16,2.431-3.675,2.121C283.177,410.118,281.985,409.809,282.848,409.215Z" transform="translate(-253.904 -292.224)" fill="#263238"/><path d="M289.152,400.6s-2.179,6.1-3.662,7.388c0,0,2.276,1.057,4.21-2.024,2.508-3.978,3.514-3.868,3.514-3.868a3.912,3.912,0,0,1-.729-1.019C291.924,399.962,289.152,400.6,289.152,400.6Z" transform="translate(-254.941 -291.59)" fill="#e4897b"/><path d="M299.2,243.647a.155.155,0,0,1-.135-.071,2.1,2.1,0,0,0-1.663-.774h0a.161.161,0,1,1,0-.322,2.4,2.4,0,0,1,1.934.922.155.155,0,0,1-.045.219A.142.142,0,0,1,299.2,243.647Z" transform="translate(-259.116 -235.474)" fill="#263238"/><path d="M297.524,247.26a9.127,9.127,0,0,1-1.444,1.657,1.193,1.193,0,0,0,1.09.606Z" transform="translate(-258.703 -237.172)" fill="#de5753"/><path d="M297.346,244.984c-.045.348.11.645.342.69s.464-.232.509-.587-.11-.645-.342-.69S297.391,244.629,297.346,244.984Z" transform="translate(-259.15 -236.153)" fill="#263238"/><path d="M297.879,244.23l-.729-.4S297.453,244.52,297.879,244.23Z" transform="translate(-259.084 -235.953)" fill="#263238"/><path d="M306.629,250.072a.689.689,0,0,1-.142.1,6.4,6.4,0,0,1-2.314,1c-2.424.432-4.042,0-5.054-1.109h0c-1.412-1.7-1.644-4.59-1.289-8.052a12.944,12.944,0,0,1,.954-4.01v-.064a1.139,1.139,0,0,1,.064-.142,4.726,4.726,0,0,1,3.623-2.721,9.367,9.367,0,0,1,2.063-.135C311.335,235.2,312.006,246.462,306.629,250.072Z" transform="translate(-259.272 -232.79)" fill="#e4897b"/><path d="M307.282,258.236a6.254,6.254,0,0,1-2.314.9c-2.418.438-4.029-.052-5.048-1.2a6.789,6.789,0,0,0,4.313-.142A3.526,3.526,0,0,1,307.282,258.236Z" transform="translate(-260.068 -240.857)" opacity="0.2"/><path d="M299.4,237.026a7.117,7.117,0,0,0,3.791,6.982s1.689,5.022,4.513,5.228c3.868.284,7.556-5.061,6.492-10.741C312.827,231.127,301.822,230,299.4,237.026Z" transform="translate(-259.875 -231.863)" fill="#263238"/><path d="M301.862,247.195c.039-.741.7-1.934,1.837-1.728s1.7,3.223-1.289,3.713C302.017,249.251,301.784,248.742,301.862,247.195Z" transform="translate(-260.752 -236.527)" fill="#e4897b"/><path d="M307.107,232.133s-4.474-1.367-7.092.329c-3.024,1.986-4.242,4.132-.948,7.736,0,0,7.736-2.089,10.225-1.444a27.121,27.121,0,0,1,4.268,1.47C314.367,235.2,309.68,231.218,307.107,232.133Z" transform="translate(-259.067 -231.612)" fill="#263238"/><path d="M306,258.112a4.515,4.515,0,0,1,2.353,5.19l8.478-3.514s-4.622-.29-4.39-3.539C312.447,256.236,307.605,254.38,306,258.112Z" transform="translate(-262.228 -240.198)" fill="#e4897b"/><path d="M320.143,239.751s1.676-4.816,5.467-3.984,3.507,4.906.793,6.163S319.885,242.7,320.143,239.751Z" transform="translate(-267.249 -233.054)" fill="#263238"/><path d="M325.075,245.041s3.365,0,2.953,2.862a2.444,2.444,0,0,0-1.051-1.322s1.019.78,0,2.134c0,0,.406-.883-.98-1.5s-5.2-.554-4.513-2.437S325.075,245.041,325.075,245.041Z" transform="translate(-267.7 -236.017)" fill="#263238"/><path d="M316.979,260.793l-2.069-1.483s-6.789.915-6.86,5.248S316.979,260.793,316.979,260.793Z" transform="translate(-262.956 -241.454)" fill="#f8951d"/><path d="M315.89,307.414l6.447,3.223a14.648,14.648,0,0,0-5.886-5.248C316.141,306.5,315.89,307.414,315.89,307.414Z" transform="translate(-265.742 -257.826)" opacity="0.2"/><path d="M316.973,261.564s-5.093-.98-12.178,3.765c0,0-2.372,10.38,7.653,24.5l19.018-1.193S326.315,267.837,316.973,261.564Z" transform="translate(-261.713 -242.225)" fill="#263238"/><path d="M305.366,274.883a34.982,34.982,0,0,0,1.341,4.326,46.464,46.464,0,0,0,5.738,10.586l19.019-1.193s-5.158-20.779-14.493-27.077c0,0-5.087-.974-12.185,3.765A23.2,23.2,0,0,0,305.366,274.883Z" transform="translate(-261.71 -242.211)" fill="#fff" opacity="0.1"/><path d="M305.82,281.6a34.979,34.979,0,0,0,1.341,4.326,53.511,53.511,0,0,1,.961-5.57A13.818,13.818,0,0,0,305.82,281.6Z" transform="translate(-262.164 -248.933)" opacity="0.2"/><path d="M304.467,268.5c-3.365,6.067-6.924,12.024-10.56,17.935a2.92,2.92,0,0,1-5.39-1.715c.245-3.868.548-7.775.883-11.669s.735-7.775,1.238-11.656a1.605,1.605,0,0,1,3.191.11c.471,7.794.574,15.608.561,23.415l-5.486-1.554c2.392-4.571,4.867-9.1,7.388-13.59.857-1.489,1.689-2.991,2.579-4.468a3.225,3.225,0,0,1,5.6,3.191Z" transform="translate(-256.015 -241.704)" fill="#263238"/><path d="M304.467,268.5c-3.365,6.067-6.924,12.024-10.56,17.935a2.92,2.92,0,0,1-5.39-1.715c.245-3.868.548-7.775.883-11.669s.735-7.775,1.238-11.656a1.605,1.605,0,0,1,3.191.11c.471,7.794.574,15.608.561,23.415l-5.486-1.554c2.392-4.571,4.867-9.1,7.388-13.59.857-1.489,1.689-2.991,2.579-4.468a3.225,3.225,0,0,1,5.6,3.191Z" transform="translate(-256.015 -241.704)" fill="#fff" opacity="0.1"/><path d="M296.7,278.118l-1.631,2.933,1.476-6.6Z" transform="translate(-258.345 -246.833)" opacity="0.2"/><path d="M348.556,409.149,332.3,403.166l-16.427,5.989a.87.87,0,0,1-1.167-.812h0a.877.877,0,0,1,.5-.793l17.091-7.93,16.923,7.93a.87.87,0,0,1,.5.787h0a.864.864,0,0,1-1.167.812Z" transform="translate(-265.323 -291.306)" fill="#263238"/><path d="M348.556,409.149,332.3,403.166l-16.427,5.989a.87.87,0,0,1-1.167-.812h0a.877.877,0,0,1,.5-.793l17.091-7.93,16.923,7.93a.87.87,0,0,1,.5.787h0a.864.864,0,0,1-1.167.812Z" transform="translate(-265.323 -291.306)" fill="#fff" opacity="0.3"/><path d="M336.06,404.565l3.829-1.4,3.655,1.347v-3.178l-3.655-1.715L336.06,401.4Z" transform="translate(-272.908 -291.306)" opacity="0.2"/><path d="M340.825,389.226h0a1.444,1.444,0,0,1-1.438-1.289l-.458-4.816V343.15h3.791v39.971l-.458,4.816A1.451,1.451,0,0,1,340.825,389.226Z" transform="translate(-273.928 -271.242)" fill="#263238"/><path d="M340.825,389.226h0a1.444,1.444,0,0,1-1.438-1.289l-.458-4.816V343.15h3.791v39.971l-.458,4.816A1.451,1.451,0,0,1,340.825,389.226Z" transform="translate(-273.928 -271.242)" fill="#fff" opacity="0.3"/><rect width="3.791" height="4.655" transform="translate(65.002 71.882)" opacity="0.2"/><path d="M352.306,336.437a58.9,58.9,0,0,0-13.113-1.805c-4.552-.116-21.6,0-25.646,0a59.312,59.312,0,0,0-14.635,1.824c-3,.767-2.076,5.106.645,5.158h51.95C354.343,341.717,355.375,337.223,352.306,336.437Z" transform="translate(-259.047 -268.197)" fill="#f8951d"/><path d="M352.306,336.437a58.9,58.9,0,0,0-13.113-1.805c-4.552-.116-21.6,0-25.646,0a59.312,59.312,0,0,0-14.635,1.824c-3,.767-2.076,5.106.645,5.158h51.95C354.343,341.717,355.375,337.223,352.306,336.437Z" transform="translate(-259.047 -268.197)" opacity="0.3"/><path d="M300.3,341.514a53.845,53.845,0,0,1,26.484,0c3.269.838,4.668-4.223,1.393-5.061a59.505,59.505,0,0,0-29.269,0C295.643,337.284,297.03,342.352,300.3,341.514Z" transform="translate(-259.047 -268.213)" fill="#f8951d"/><g transform="translate(38 66.412)" opacity="0.3"><path d="M300.3,341.514a53.845,53.845,0,0,1,26.484,0c3.269.838,4.668-4.223,1.393-5.061a59.505,59.505,0,0,0-29.269,0C295.643,337.284,297.03,342.352,300.3,341.514Z" transform="translate(-297.047 -334.625)" fill="#fff"/></g><path d="M356.223,279.21a1.605,1.605,0,0,0-1.444.838,55.972,55.972,0,0,0-7.014,38.682,1.425,1.425,0,0,0,1.347,1.289c1.051.071,19.76,0,20.437,0a1.883,1.883,0,0,0,1.9-2.263,52.291,52.291,0,0,1,6.66-35.961,1.741,1.741,0,0,0-1.573-2.579C376,279.2,357.416,279.236,356.223,279.21Z" transform="translate(-276.748 -248.524)" fill="#f8951d"/><path d="M356.223,279.21a1.605,1.605,0,0,0-1.444.838,55.972,55.972,0,0,0-7.014,38.682,1.425,1.425,0,0,0,1.347,1.289c1.051.071,19.76,0,20.437,0a1.883,1.883,0,0,0,1.9-2.263,52.291,52.291,0,0,1,6.66-35.961,1.741,1.741,0,0,0-1.573-2.579C376,279.2,357.416,279.236,356.223,279.21Z" transform="translate(-276.748 -248.524)" opacity="0.2"/><path d="M351.136,317.746a52.291,52.291,0,0,1,6.66-35.961c1.167-1.934-1.857-3.7-3.017-1.766a55.972,55.972,0,0,0-7.014,38.682c.4,2.218,3.771,1.289,3.372-.928Z" transform="translate(-276.748 -248.514)" fill="#f8951d"/><g transform="translate(70.118 30.667)" opacity="0.2"><path d="M351.136,317.746a52.291,52.291,0,0,1,6.66-35.961c1.167-1.934-1.857-3.7-3.017-1.766a55.972,55.972,0,0,0-7.014,38.682c.4,2.218,3.771,1.289,3.372-.928Z" transform="translate(-346.866 -279.181)" fill="#fff"/></g></g><g transform="translate(217.49 140.055)"><circle cx="12.165" cy="12.165" r="12.165" transform="translate(4.45 8.263) rotate(-11.535)" fill="#263238"/><path d="M328.355,190.046l8.478,8.723a12.159,12.159,0,1,1-8.117-20.882Z" transform="translate(-309.904 -171.414)" fill="#f8951d"/><path d="M334.279,196.75l8.478,8.723a12.159,12.159,0,0,1-9.877,3.359Z" transform="translate(-315.828 -178.118)" fill="#fff" opacity="0.5"/><path d="M329.632,196.75l10.534,6.079a11.863,11.863,0,0,1-1.934,2.521,12.249,12.249,0,0,1-17.2,0,12.489,12.489,0,0,1-1.231-1.438Z" transform="translate(-311.18 -178.118)" fill="#fff" opacity="0.4"/><path d="M326.964,197.78a6.447,6.447,0,1,1,4.568,1.9,6.447,6.447,0,0,1-4.568-1.9Z" transform="translate(-313.058 -174.577)" fill="#fff"/><path d="M386.352,180.968H370.879a.219.219,0,0,1,0-.438h15.473a.219.219,0,0,1,0,.438Z" transform="translate(-329.251 -172.355)" fill="#263238"/><path d="M383.673,188.908H370.779a.219.219,0,0,1,0-.438h12.894a.219.219,0,0,1,0,.438Z" transform="translate(-329.216 -175.176)" fill="#263238"/><path d="M388.948,196.848H370.819a.219.219,0,1,1,0-.438h18.129a.219.219,0,1,1,0,.438Z" transform="translate(-329.23 -177.997)" fill="#263238"/><path d="M386.352,204.758H370.879a.219.219,0,0,1,0-.438h15.473a.219.219,0,0,1,0,.438Z" transform="translate(-329.251 -180.808)" fill="#263238"/><path d="M387.194,212.758H370.819a.219.219,0,1,1,0-.438h16.375a.219.219,0,0,1,0,.438Z" transform="translate(-329.23 -183.65)" fill="#263238"/><rect width="3.12" height="3.037" transform="translate(34.768 6.879)" fill="#263238"/><rect width="3.12" height="3.037" transform="translate(34.768 11.998)" fill="#263238"/><rect width="3.12" height="3.037" transform="translate(34.768 17.117)" fill="#f8951d"/><rect width="3.12" height="3.037" transform="translate(34.768 22.236)" fill="#f8951d"/><rect width="3.12" height="3.037" transform="translate(34.768 27.354)" fill="#f8951d"/><rect width="3.12" height="3.037" transform="translate(34.768 11.998)" fill="#fff" opacity="0.4"/><rect width="3.12" height="3.037" transform="translate(34.768 22.236)" fill="#fff" opacity="0.4"/><rect width="3.12" height="3.037" transform="translate(34.768 27.354)" fill="#fff" opacity="0.6"/><path d="M367.508,203.482H311.865a5.441,5.441,0,0,1-5.435-5.435V173.285a5.441,5.441,0,0,1,5.435-5.435h55.644a5.441,5.441,0,0,1,5.435,5.435v24.763a5.441,5.441,0,0,1-5.435,5.435Zm-55.644-34.988a4.8,4.8,0,0,0-4.79,4.79v24.763a4.8,4.8,0,0,0,4.79,4.79h55.644a4.79,4.79,0,0,0,4.79-4.79V173.285a4.8,4.8,0,0,0-4.79-4.79Z" transform="translate(-306.43 -167.85)" fill="#f8951d"/></g><g transform="translate(150.055 149.08)"><rect width="1.754" height="32.093" transform="translate(14.074 5.557)" fill="#f8951d"/><rect width="1.754" height="32.093" transform="translate(14.074 5.557)" opacity="0.2"/><rect width="1.754" height="24.969" transform="translate(16.988 12.681)" fill="#263238"/><rect width="1.754" height="24.969" transform="translate(16.988 12.681)" fill="#fff" opacity="0.4"/><rect width="1.754" height="13.087" transform="translate(8.246 24.563)" fill="#f8951d"/><rect width="1.754" height="17.839" transform="translate(11.16 19.811)" fill="#f8951d"/><rect width="1.754" height="27.342" transform="translate(19.902 10.309)" fill="#263238"/><rect width="1.754" height="21.752" transform="translate(16.988 15.898)" fill="#fff" opacity="0.4"/><rect width="1.754" height="23.087" transform="translate(19.902 14.564)" fill="#fff" opacity="0.4"/><rect width="1.754" height="29.263" transform="translate(14.074 8.387)" fill="#f8951d"/><rect width="1.754" height="11.508" transform="translate(11.16 26.142)" fill="#fff" opacity="0.4"/><rect width="1.754" height="13.087" transform="translate(8.246 24.563)" fill="#fff" opacity="0.2"/><rect width="1.754" height="10.109" transform="translate(8.246 27.541)" fill="#fff" opacity="0.4"/><path d="M228.386,240.3H213.12a.11.11,0,1,1,0-.219h15.266a.11.11,0,1,1,0,.219Z" transform="translate(-205.802 -202.539)" fill="#263238"/><rect width="1.754" height="24.969" transform="translate(38.482 12.681)" fill="#f8951d"/><rect width="1.754" height="24.969" transform="translate(38.482 12.681)" opacity="0.2"/><rect width="1.754" height="24.279" transform="translate(41.396 13.371)" fill="#263238"/><rect width="1.754" height="24.279" transform="translate(41.396 13.371)" fill="#fff" opacity="0.4"/><rect width="1.754" height="20.14" transform="translate(32.654 17.51)" fill="#f8951d"/><rect width="1.754" height="20.721" transform="translate(35.568 16.93)" fill="#f8951d"/><rect width="1.754" height="18.142" transform="translate(44.31 19.508)" fill="#263238"/><rect width="1.754" height="21.152" transform="translate(41.396 16.498)" fill="#fff" opacity="0.4"/><rect width="1.754" height="15.318" transform="translate(44.31 22.332)" fill="#fff" opacity="0.4"/><rect width="1.754" height="22.764" transform="translate(38.482 14.886)" fill="#f8951d"/><rect width="1.754" height="17.117" transform="translate(35.568 20.534)" fill="#fff" opacity="0.4"/><rect width="1.754" height="20.14" transform="translate(32.654 17.51)" fill="#fff" opacity="0.2"/><rect width="1.754" height="15.556" transform="translate(32.654 22.094)" fill="#fff" opacity="0.4"/><path d="M266.232,240.3H250.94a.11.11,0,0,1,0-.219h15.266a.11.11,0,1,1,0,.219Z" transform="translate(-219.24 -202.539)" fill="#263238"/><path d="M251.136,226.514H207.265a5.441,5.441,0,0,1-5.435-5.435V187.285a5.441,5.441,0,0,1,5.435-5.435h43.872a5.441,5.441,0,0,1,5.435,5.435V221.08a5.441,5.441,0,0,1-5.435,5.435Zm-43.872-44.02a4.8,4.8,0,0,0-4.79,4.79V221.08a4.8,4.8,0,0,0,4.79,4.79h43.872a4.8,4.8,0,0,0,4.79-4.79V187.285a4.8,4.8,0,0,0-4.79-4.79Z" transform="translate(-201.83 -181.85)" fill="#f8951d"/></g><g transform="translate(192.843 89.62)"><g transform="translate(7.072 12.688)" opacity="0.2"><path d="M323.712,134.275H279.17V109.3h.361v24.614h44.181Z" transform="translate(-279.17 -109.3)"/></g><rect width="1.928" height="3.61" transform="translate(9.406 33.518)" opacity="0.2"/><rect width="1.928" height="1.051" transform="translate(9.406 33.518)" fill="#f8951d"/><rect width="1.928" height="9.38" transform="translate(13.332 27.748)" opacity="0.2"/><rect width="1.928" height="2.734" transform="translate(13.332 27.748)" fill="#f8951d"/><rect width="1.928" height="7.214" transform="translate(17.265 29.907)" opacity="0.2"/><rect width="1.928" height="2.102" transform="translate(17.265 29.907)" fill="#f8951d"/><rect width="1.928" height="10.534" transform="translate(21.198 26.594)" opacity="0.2"/><rect width="1.928" height="3.069" transform="translate(21.198 26.594)" fill="#f8951d"/><rect width="1.928" height="13.59" transform="translate(25.124 23.531)" opacity="0.2"/><rect width="1.928" height="3.958" transform="translate(25.124 23.531)" fill="#f8951d"/><rect width="1.928" height="15.911" transform="translate(29.056 21.217)" opacity="0.2"/><rect width="1.928" height="4.629" transform="translate(29.056 21.217)" fill="#f8951d"/><rect width="1.928" height="13.229" transform="translate(32.989 23.892)" opacity="0.2"/><rect width="1.928" height="3.855" transform="translate(32.989 23.892)" fill="#f8951d"/><rect width="1.928" height="13.809" transform="translate(36.915 23.319)" opacity="0.2"/><rect width="1.928" height="4.023" transform="translate(36.915 23.319)" fill="#f8951d"/><rect width="1.928" height="17.329" transform="translate(40.848 19.792)" opacity="0.2"/><rect width="1.928" height="5.048" transform="translate(40.848 19.792)" fill="#f8951d"/><rect width="1.928" height="20.882" transform="translate(44.781 16.24)" opacity="0.2"/><rect width="1.928" height="6.079" transform="translate(44.781 16.24)" fill="#f8951d"/><rect width="1.928" height="23.989" transform="translate(48.713 13.139)" opacity="0.2"/><rect width="1.928" height="6.982" transform="translate(48.713 13.139)" fill="#f8951d"/><rect width="23.834" height="0.993" transform="translate(17.265 8.916)" opacity="0.2"/><path d="M321.123,133.659H273.641a5.448,5.448,0,0,1-5.441-5.435V95.055a5.448,5.448,0,0,1,5.441-5.435h47.482a5.441,5.441,0,0,1,5.435,5.435v33.17a5.441,5.441,0,0,1-5.435,5.435ZM273.641,90.265a4.8,4.8,0,0,0-4.8,4.79v33.17a4.8,4.8,0,0,0,4.8,4.79h47.482a4.79,4.79,0,0,0,4.79-4.79V95.055a4.79,4.79,0,0,0-4.79-4.79Z" transform="translate(-268.2 -89.62)" fill="#f8951d"/></g><g transform="translate(102.535 97.679)"><path d="M147.13,142.4s8.381-13.616,11-13.855,5.68,7.678,7.859,6.956,14.886-23.267,17.794-22.661,7.5,12.739,8.594,12.539,2.54-2.431,5.686,3.771a133.453,133.453,0,0,1,5.718,13.248Z" transform="translate(-134.874 -105.926)" fill="#f8951d"/><path d="M147.13,142.4s8.381-13.616,11-13.855,5.68,7.678,7.859,6.956,14.886-23.267,17.794-22.661,7.5,12.739,8.594,12.539,2.54-2.431,5.686,3.771a133.453,133.453,0,0,1,5.718,13.248Z" transform="translate(-134.874 -105.926)" fill="#fff" opacity="0.4"/><path d="M195.094,145.2s-10.644-23.364-14.035-24.421-7.994,9.3-10.315,11.14-6.021-6.75-7.536-6.872-8.42,13.442-10.747,13.319-2.663-1.883-5.087-2.882-8.594,9.716-8.594,9.716Z" transform="translate(-131.908 -108.723)" fill="#f8951d"/><path d="M197.976,147.151s-5.216-8.774-7.272-10.831-4.964,5.158-7.027,5.415-9.67-14.37-11.862-15.473-6.653,11.862-8.774,12.1-6.447-7.84-8.774-8.278-12.836,17.052-12.836,17.052Z" transform="translate(-132.849 -110.675)" fill="#263238"/><path d="M197.976,147.151s-5.216-8.774-7.272-10.831-4.964,5.158-7.027,5.415-9.67-14.37-11.862-15.473-6.653,11.862-8.774,12.1-6.447-7.84-8.774-8.278-12.836,17.052-12.836,17.052Z" transform="translate(-132.849 -110.675)" fill="#fff" opacity="0.4"/><rect width="64.167" height="0.425" transform="translate(5.441 36.264)" fill="#263238"/><path d="M199,153.627s-2.579-6.447-4.732-6.331-3.024,4.822-5.08,4.577-4.481-7.736-7.569-7.382-3.694,4.842-5.628,5.693-5.731-4.919-8.175-5.706-5.383,6.911-8.065,7.408-3.752-3.159-5.325-2.85-6.021,4.6-6.021,4.6Z" transform="translate(-135.326 -117.15)" fill="#263238"/><path d="M197.67,145.463H133.555a5.441,5.441,0,0,1-5.435-5.435V107.555a5.441,5.441,0,0,1,5.435-5.435H197.67a5.441,5.441,0,0,1,5.435,5.435v32.473a5.441,5.441,0,0,1-5.435,5.435Zm-64.109-42.7a4.79,4.79,0,0,0-4.79,4.79v32.473a4.79,4.79,0,0,0,4.79,4.79H197.67a4.79,4.79,0,0,0,4.79-4.79V107.555a4.79,4.79,0,0,0-4.79-4.79Z" transform="translate(-128.12 -102.12)" fill="#f8951d"/></g></g></svg>