<svg xmlns="http://www.w3.org/2000/svg" width="251" height="153.071" viewBox="0 0 251 153.071"><g transform="translate(-37.28 -44.018)"><g transform="translate(62.105 44.517)"><path d="M568.766,299.247s-5.614-.935-6.365-2.619-1.595-4.037-3.291-4.993c-2.089-1.18-3.864.963-5.885-.437-2.432-1.685-2.619-5.43-8.8-6.177s-5.989,6.177-6.365,7.3-3.929-1.126-5.989.361-1.5,4.5-2.06,5.051-3.182-.559-3.933,0-1.685,1.126-1.685,1.126l-4.3,1.31h51.494Z" transform="translate(-370.397 -198.21)" fill="none" stroke="#263238" stroke-linecap="round" stroke-linejoin="round" stroke-width="1"/><path d="M374.951,54.833s-4.063-.675-4.6-1.891-1.155-2.919-2.378-3.608c-1.512-.851-2.793.7-4.254-.314-1.757-1.216-1.894-3.922-6.357-4.463s-4.33,4.463-4.6,5.275-2.843-.812-4.33.271-1.082,3.247-1.49,3.651-2.3-.4-2.84,0-1.216.812-1.216.812l-3.114.949h37.2Z" transform="translate(-255.143 -44.517)" fill="none" stroke="#263238" stroke-linecap="round" stroke-linejoin="round" stroke-width="1"/><path d="M130.445,229.883s-2.908-.483-3.3-1.357-.826-2.1-1.707-2.591c-1.082-.61-2,.5-3.049-.224-1.263-.877-1.36-2.814-4.564-3.2s-3.1,3.2-3.3,3.785-2.039-.581-3.107.195-.776,2.327-1.082,2.619-1.649-.292-2.039,0-.873.581-.873.581l-2.23.682h26.7Z" transform="translate(-105.2 -158.269)" fill="none" stroke="#263238" stroke-linecap="round" stroke-linejoin="round" stroke-width="1"/><path d="M188.165,392.194s-4.488-.747-5.091-2.093-1.274-3.229-2.63-3.994c-1.671-.942-3.088.769-4.69-.361-1.945-1.349-2.1-4.33-7.036-4.939s-4.788,4.939-5.087,5.834-3.143-.895-4.791.3-1.194,3.608-1.645,4.045-2.544-.451-3.143,0-1.346.895-1.346.895l-3.446,1.05h41.15Z" transform="translate(-133.363 -259.443)" fill="none" stroke="#263238" stroke-linecap="round" stroke-linejoin="round" stroke-width="1"/></g><g transform="translate(49.632 46.354)"><path d="M510.971,169.561l-38.3-36.279h8.789L417.92,94.37l18.61,38.913h8.789l27.955,26.483" transform="translate(-292.617 -78.22)" fill="none" stroke="#263238" stroke-linecap="round" stroke-linejoin="round" stroke-width="1"/><path d="M193.926,307.346l-21.915-20.757H174.6L155.89,275.13l5.481,11.459h2.587l21.912,20.757" transform="translate(-125.128 -193.762)" fill="none" stroke="#263238" stroke-linecap="round" stroke-linejoin="round" stroke-width="1"/><path d="M548.06,109.192l-13.35-8.172,3.911,8.172h3.316L557.57,124h2.807l-15.634-14.811Z" transform="translate(-367.269 -82.471)" fill="#263238"/><path d="M460.886,243.582,447.54,235.41l3.911,8.172h3.312L470.4,258.393H473.2L457.57,243.582Z" transform="translate(-311.55 -168.373)" fill="#263238"/><path d="M83.976,393.912,70.63,385.74l3.907,8.172h3.316l15.634,14.811h2.807L80.66,393.912Z" transform="translate(-70.63 -264.463)" fill="#263238"/><path d="M128.315,65.839,101.81,49.61l7.764,16.229h6.581L147.2,95.248h5.574L121.73,65.839Z" transform="translate(-90.56 -49.61)" fill="#263238"/></g><g transform="translate(215.169 155.722)"><path d="M547.28,413.955c-1.443-.17-2.064,1.609-2.6.758s1.53-2.464-.783-3.944-3.4.642-4.128-.115-.206-2.738-1.732-3.608-2.244.213-3.089.249-3.511-1.4-4.575-.271,1.483,3.853.285,3.936-1.678,2.41-.722,3.918,4.1,2.1,3.485,2.886-3.608.74-2.378,2.5,5.343,1.876,5.935,2.085-1.9.664-1.479,2.313,3.85,1.851,6.058.794,1.8-4.2,1.8-4.2h.112a19.387,19.387,0,0,0-.956-1.869h-4.947a.18.18,0,1,1,0-.361h4.766a26.543,26.543,0,0,0-3.864-4.835l-4.9-.48a.177.177,0,0,1-.162-.195.18.18,0,0,1,.195-.162l4.467.433a32.332,32.332,0,0,0-4.218-3.482.18.18,0,1,1,.195-.3,32.2,32.2,0,0,1,4.113,3.374l-1-3.413a.187.187,0,1,1,.361-.1l1.187,4.034a27.8,27.8,0,0,1,3.709,4.55l.3-3.72a.188.188,0,0,1,.195-.166.18.18,0,0,1,.162.195l-.339,4.207a18.764,18.764,0,0,1,1.169,2.273,5.486,5.486,0,0,0,4.33-2.3C549.727,416.481,548.72,414.117,547.28,413.955Z" transform="translate(-529.432 -387.159)" fill="#263238"/><path d="M569.846,367.655c-1.129-.916-2.6.256-2.6-.75s2.609-1.266,1.443-3.752-3.211-1.266-3.428-2.3,1.288-2.428.458-3.969-2.01-1.014-2.746-1.443-2.223-3.056-3.723-2.67-.8,4.052-1.855,3.482-2.71,1.144-2.692,2.937,2.342,3.969,1.407,4.3-3.435-1.292-3.345.844,3.518,4.438,3.907,4.932-1.963-.451-2.486,1.169,2.269,3.608,4.69,3.9,3.77-2.587,3.77-2.587l.09.058a17.69,17.69,0,0,0,.188-2.089H562.9l-4.185-2.641a.18.18,0,0,1,.195-.3l4.045,2.529a26.754,26.754,0,0,0-.693-6.152l-3.893-3.02a.184.184,0,0,1-.032-.256.2.2,0,0,1,.256-.032l3.539,2.753a32,32,0,0,0-1.7-5.2.181.181,0,0,1,.328-.152,32.49,32.49,0,0,1,1.678,5.051l.971-3.42a.187.187,0,1,1,.361.1l-1.173,4.045a27.755,27.755,0,0,1,.722,5.827l2.241-2.987a.184.184,0,0,1,.253-.036.18.18,0,0,1,.036.253l-2.526,3.377A18.961,18.961,0,0,1,563.1,372a5.445,5.445,0,0,0,4.874.361C570.568,371.1,570.972,368.568,569.846,367.655Z" transform="translate(-544.345 -352.733)" fill="#263238"/><path d="M592.116,438.567c-.628-.509-1.443.144-1.443-.415s1.443-.722.8-2.1-1.8-.722-1.916-1.284.722-1.353.256-2.219-1.122-.566-1.533-.8-1.238-1.707-2.075-1.49-.451,2.259-1.039,1.941-1.512.639-1.5,1.638,1.306,2.215.787,2.4-1.919-.722-1.869.473,1.963,2.479,2.165,2.753-1.082-.253-1.389.653,1.266,2.021,2.623,2.165,2.1-1.443,2.1-1.443l.054.032a10.512,10.512,0,0,0,.1-1.165h0l-2.334-1.472a.1.1,0,0,1,.108-.173l2.251,1.422a14.84,14.84,0,0,0-.386-3.431l-2.165-1.689a.1.1,0,0,1,0-.141.1.1,0,0,1,.141-.018l1.977,1.533a18.1,18.1,0,0,0-.953-2.886.1.1,0,0,1,.047-.134.1.1,0,0,1,.133.051,17.632,17.632,0,0,1,.938,2.818l.541-1.912a.1.1,0,0,1,.126-.069.1.1,0,0,1,.069.126l-.642,2.259a15.359,15.359,0,0,1,.4,3.247l1.252-1.667a.1.1,0,0,1,.162.123l-1.414,1.883a10.5,10.5,0,0,1-.126,1.422,3.049,3.049,0,0,0,2.724.2C592.521,440.49,592.744,439.08,592.116,438.567Z" transform="translate(-563.408 -402.275)" fill="#263238"/><path d="M620.49,397.864c-.722-2.194-3.695-1.916-2.818-3.247s4.575.585,5.174-3.745-3.182-4.474-2.576-6.036,3.817-2.114,4.059-4.9-1.8-3.1-2.414-4.294-.31-5.993-2.645-6.779-4.579,4.69-5.488,3.027-4.6-.823-6.134,1.58-.314,7.3-1.855,6.938-3.453-4.69-5.185-1.775.841,8.959.934,9.955-2.226-2.3-4.33-.6-.112,6.787,2.886,9.269,7.267-.18,7.267-.18l.069.159a29.254,29.254,0,0,0,2.064-2.619.179.179,0,0,1-.029-.043l-3.287-7.14a.287.287,0,1,1,.52-.242l3.168,6.884a42.469,42.469,0,0,0,4.413-8.789l-2.573-7.407a.281.281,0,0,1,.177-.361.3.3,0,0,1,.361.177l2.338,6.733a51.1,51.1,0,0,0,2.226-8.4.289.289,0,0,1,.325-.242.285.285,0,0,1,.242.325,50.947,50.947,0,0,1-2.136,8.179l4.261-3.72a.285.285,0,0,1,.361.433l-5.051,4.395a44.131,44.131,0,0,1-4.1,8.381l5.571-2.039a.289.289,0,0,1,.361.173.285.285,0,0,1-.17.361l-6.3,2.306a30.24,30.24,0,0,1-2.5,3.2c.722,1.36,2.7,4.265,6.184,4.69C618.47,403.073,621.2,400.054,620.49,397.864Z" transform="translate(-572.201 -362.993)" fill="#263238"/><path d="M614.412,454.138l4.665-6.249-.577-.429-4.99,6.678Z" transform="translate(-583.174 -413.282)" fill="#263238"/><path d="M585.814,427.593l-4.73-21.663-.7.152,4.694,21.511Z" transform="translate(-561.998 -386.736)" fill="#263238"/><path d="M573.527,453.6l-5.343-6.985-.574.437,5.008,6.549Z" transform="translate(-553.835 -412.739)" fill="#263238"/></g><g transform="translate(86.172 84.1)"><path d="M442.891,305s.848,1.707,1.2,7.685a167.285,167.285,0,0,0,4.221,24.174c1.407,5.051,3.168,26.151,3.168,26.151H438.814s-.7-4.456-1.173-7.974a100.145,100.145,0,0,0-2.58-11.376c-.585-2-1.642-5.744-1.642-5.744S433.835,320.547,442.891,305Z" transform="translate(-339.064 -250.6)" fill="#f8951d" stroke="#263238" stroke-linecap="round" stroke-linejoin="round" stroke-width="1"/><path d="M442.067,317.619s-1.245,5.192-3.5,13.436a85.858,85.858,0,0,0-2.821,14.566c-.112,1.017-.548,5.383-.548,5.383l-1.584-4.593s.336-10.727,1.353-15.244S442.3,316.49,442.3,316.49Z" transform="translate(-339.186 -257.945)" fill="#263238" stroke="#263238" stroke-linecap="round" stroke-linejoin="round" stroke-width="1"/><path d="M449.66,411.827a63.8,63.8,0,0,0,3.287-14.627" transform="translate(-349.445 -309.535)" fill="none" stroke="#263238" stroke-linecap="round" stroke-linejoin="round" stroke-width="1"/><path d="M445.77,443.6s.361-.722.888-2.064" transform="translate(-346.958 -337.877)" fill="none" stroke="#263238" stroke-linecap="round" stroke-linejoin="round" stroke-width="1"/><path d="M453.344,379.1c-.628,4.752-1.508,11.185-2.064,14.389" transform="translate(-350.48 -297.965)" fill="none" stroke="#263238" stroke-linecap="round" stroke-linejoin="round" stroke-width="1"/><path d="M458.182,363.07s-.206,1.616-.512,3.969" transform="translate(-354.565 -287.719)" fill="none" stroke="#263238" stroke-linecap="round" stroke-linejoin="round" stroke-width="1"/><path d="M257.929,233.844l-1.681-.238s-.6-2.042-1.321-2.28-2.4,0-2.757-.242a23.344,23.344,0,0,0-3.72-2.526c-2.4-1.321-8.638.722-9.6.722s-3.121-1.443-3.121-1.443l-6-5.051a13.233,13.233,0,0,0-3.359-5.279c-2.76-2.879-4.33-4.077-6.361-6.718s-4.2-1.678-6-.96-6.238,8.778-5.264,10.341a68.091,68.091,0,0,0,4.438,5.517c1.191,1.44,6.855,12.238,8.519,12.718a23.936,23.936,0,0,1,3,1.082s4.081,5.877,7.321,8.039a91.5,91.5,0,0,0,8.035,4.557l1.306.967s1.443,20.757,2.641,24.834,1.317,16.8,1.317,16.8l-.134,7.079H287.41l1.562-16.435s1.443-16.676,4.918-24.834,6.148-15.738,5.307-16.821-13.436-6.96-16.077-8.76-4.438-3.117-4.438-3.117l-18.834,1.082Z" transform="translate(-195.371 -189.269)" fill="#f8951d" stroke="#263238" stroke-linecap="round" stroke-linejoin="round" stroke-width="1"/><path d="M348.756,338.183l.123,2.089-5.639,10.2-4.333-6.224-2.266-3.251.166-.963,1.054-6.09,1.061-6.163,1.054-6.094,1.064-6.163,1.05-6.09,1.064-6.162L344.2,297.2l-.007-.018-2.067-4.236-.325-.664,4.319-3.446.87,1.118,2.37,3.045-1.277,1.786-1.725,2.414.231,3.951.31,5.318.31,5.253.31,5.315.307,5.257.314,5.315.307,5.257Z" transform="translate(-277.203 -240.271)" fill="#fff" stroke="#263238" stroke-linecap="round" stroke-linejoin="round" stroke-width="1"/><path d="M346.988,291.94l-4.864,2.991,2.067,4.247,3.889-2.4L349.358,295Zm-.4,11.185-3.435,2.114-1.064,6.163,4.81-2.959Zm.621,10.572-6.17,3.8-1.064,6.163,7.544-4.633Zm.617,10.572-8.89,5.491-1.082,6.163,10.279-6.328Zm.621,10.572-11.64,7.173-.166.963,2.266,3.247,9.85-6.061Z" transform="translate(-277.203 -242.253)" fill="#263238"/><line x2="1.559" y2="5.398" transform="translate(34.484 34.379)" fill="none" stroke="#263238" stroke-linecap="round" stroke-linejoin="round" stroke-width="1"/><path d="M290.094,293.991c-.361-1.465-.635-2.493-.664-2.591" transform="translate(-247.026 -241.907)" fill="none" stroke="#263238" stroke-linecap="round" stroke-linejoin="round" stroke-width="1"/><path d="M282.826,313.454s-1.425-5.7-2.482-9.9l.458,6.245-7.332-1.858Z" transform="translate(-236.825 -249.674)" fill="#263238" stroke="#263238" stroke-linecap="round" stroke-linejoin="round" stroke-width="1"/><path d="M294.246,275.7a16.234,16.234,0,0,0-.826-2.923" transform="translate(-249.577 -230.006)" fill="none" stroke="#263238" stroke-linecap="round" stroke-linejoin="round" stroke-width="1"/><path d="M297.926,299.508s-.415-8.331-1.4-14.2" transform="translate(-251.565 -238.015)" fill="none" stroke="#263238" stroke-linecap="round" stroke-linejoin="round" stroke-width="1"/><path d="M336.771,274.11s-1.082,6,.837,11.16" transform="translate(-277.092 -230.856)" fill="none" stroke="#263238" stroke-linecap="round" stroke-linejoin="round" stroke-width="1"/><path d="M341.63,321.08a11.946,11.946,0,0,0,1.082,1.53" transform="translate(-280.392 -260.879)" fill="none" stroke="#263238" stroke-linecap="round" stroke-linejoin="round" stroke-width="1"/><path d="M332.65,295.4a33.287,33.287,0,0,0,2.569,8.042" transform="translate(-274.652 -244.464)" fill="none" stroke="#263238" stroke-linecap="round" stroke-linejoin="round" stroke-width="1"/><path d="M207,214.4s1.562,2.886,3,3.478a5.084,5.084,0,0,0,5.517-2.039c1.44-2.039,2.28-3.72,1.082-5.159a15.719,15.719,0,0,0-2.526-2.4S208.306,209.6,207,214.4Z" transform="translate(-194.337 -188.777)" fill="#f8951d" stroke="#263238" stroke-linecap="round" stroke-linejoin="round" stroke-width="1"/><path d="M191.631,177.44s-5.026-5.217-6.289-6.494-4.348-3.648-7.083-5.96-5.683-5.964-6.242-4.69,1.05,4.561,2.385,6.664a11.4,11.4,0,0,0,3.788,3.438c.213.141-2.035,2.8-1.826,3.576l.209.772s-1.753,2.1-1.613,2.735a3.51,3.51,0,0,0,.844,1.331s-.985,1.826-.7,2.316,2.735,3.507,3.788,3.576,1.191-.631.841-1.05-1.541-2.035-1.541-2.035,3.507,1.894,4.416,1.963a8.807,8.807,0,0,0,2.385-.361s1.613,1.753,3.3,1.544,3.929-2.666,4.279-4.07S192.659,178.869,191.631,177.44Z" transform="translate(-171.904 -157.937)" fill="#fff" stroke="#263238" stroke-linecap="round" stroke-linejoin="round" stroke-width="1"/><path d="M195.277,196s-4.557,1.681-4.907,2.1a20.166,20.166,0,0,1-3.438,2.735,1.209,1.209,0,0,0,.361,2.1c.924.137,4.138-1.259,4.488-1.4s3.016,0,4-.491" transform="translate(-181.207 -180.928)" fill="none" stroke="#263238" stroke-linecap="round" stroke-linejoin="round" stroke-width="1"/><path d="M203.71,211.71a2.859,2.859,0,0,0,2.594,2.165,5.527,5.527,0,0,0,4.138-.913" transform="translate(-192.234 -190.97)" fill="none" stroke="#263238" stroke-linecap="round" stroke-linejoin="round" stroke-width="1"/><path d="M190.69,189.35a14.257,14.257,0,0,0,3.857.7" transform="translate(-183.912 -176.677)" fill="none" stroke="#263238" stroke-linecap="round" stroke-linejoin="round" stroke-width="1"/><path d="M192.44,189.93s.841,2.666,2.735,3.648" transform="translate(-185.03 -177.048)" fill="none" stroke="#263238" stroke-linecap="round" stroke-linejoin="round" stroke-width="1"/><path d="M184.85,200.82a9.1,9.1,0,0,0,2.6,2.244" transform="translate(-180.179 -184.009)" fill="none" stroke="#263238" stroke-linecap="round" stroke-linejoin="round" stroke-width="1"/><path d="M182.72,212.09a16.422,16.422,0,0,0,6.451,2.666s1.122,0,.981-1.472" transform="translate(-178.817 -191.213)" fill="none" stroke="#263238" stroke-linecap="round" stroke-linejoin="round" stroke-width="1"/><line x1="0.559" y2="1.054" transform="translate(6.287 22.631)" fill="none" stroke="#263238" stroke-linecap="round" stroke-linejoin="round" stroke-width="1"/><path d="M348.418,161.81s-3.168,11.308-4.33,16.272-1.057,8.771.527,11.412a6.2,6.2,0,0,0,2.006,2.114l-.844,5.073s3.171,5.387,4.33,6.134,12.361-8.558,12.361-8.558l1.162-9.828s3.806.213,4.755-1.9.848-4.016.422-4.438l-.422-.422s1.479-5.809,2.219-7.079c.837-1.443,1.934-2.681,1.869-4.441-.159-4.171-3.8-8.385-7.534-9.937-3.644-1.519-8.169-2.468-12.087-1.681C348.1,155.471,345.777,158.96,348.418,161.81Z" transform="translate(-281.465 -154.239)" fill="#fff" stroke="#263238" stroke-linecap="round" stroke-linejoin="round" stroke-width="1"/><path d="M372.034,156.19c-3.644-1.519-8.169-2.468-12.087-1.681-4.755.949-7.079,4.438-4.438,7.288a29.659,29.659,0,0,0,4.229.722c2.219.213,7.288.53,9.085,1.375a12.223,12.223,0,0,1,2.526,1.479s-1.9,3.608-.844,5.5,3.063,2.854,2.746,3.7-1.584,3.7-1.162,4.33,1.692-1.692,2.219-1.692a2.594,2.594,0,0,1,1.162.422s1.479-5.809,2.219-7.079c.837-1.443,1.934-2.681,1.869-4.441C379.408,161.956,375.764,157.753,372.034,156.19Z" transform="translate(-288.556 -154.226)" fill="#263238" stroke="#263238" stroke-linecap="round" stroke-linejoin="round" stroke-width="1"/><path d="M360.1,203.836c-.1.693-.512,1.205-.916,1.144s-.649-.667-.545-1.36.512-1.205.916-1.147S360.2,203.143,360.1,203.836Z" transform="translate(-291.248 -185.062)" fill="#263238"/><path d="M380.368,209.986c-.1.693-.512,1.205-.916,1.147s-.649-.671-.545-1.364.509-1.205.913-1.147S380.451,209.293,380.368,209.986Z" transform="translate(-304.204 -188.993)" fill="#263238"/><path d="M361.36,206a13.252,13.252,0,0,1-1.692,4.438c-1.162,1.584-3.168,2.01-2.641,2.854s3.171,1.162,3.171,1.162" transform="translate(-290.179 -187.32)" fill="none" stroke="#263238" stroke-linecap="round" stroke-linejoin="round" stroke-width="1"/><path d="M358.64,233.49s2.959,1.584,5.6.635" transform="translate(-291.265 -204.891)" fill="none" stroke="#263238" stroke-linecap="round" stroke-linejoin="round" stroke-width="1"/><path d="M363.14,254.28a30.911,30.911,0,0,1-6.134,2.114c-4.128,1.057-6.025-.844-6.025-.844l-.841,5.051C354.177,258.952,363.14,254.28,363.14,254.28Z" transform="translate(-285.832 -218.18)" fill="#263238" stroke="#263238" stroke-linecap="round" stroke-linejoin="round" stroke-width="1"/><path d="M346.081,202.852s-.635-1.162-1.8.318.108,5.7.108,5.7Z" transform="translate(-281.769 -185.03)" fill="none" stroke="#263238" stroke-linecap="round" stroke-linejoin="round" stroke-width="1"/><path d="M356.59,192.858s1.905-.74,3.806,1.371" transform="translate(-289.955 -178.839)" fill="none" stroke="#263238" stroke-linecap="round" stroke-linejoin="round" stroke-width="3"/><path d="M379.44,199.988a4.828,4.828,0,0,1,5.069.318" transform="translate(-304.56 -183.112)" fill="none" stroke="#263238" stroke-linecap="round" stroke-linejoin="round" stroke-width="3"/><circle cx="4.333" cy="4.333" r="4.333" transform="translate(72.448 17.186)" fill="none" stroke="#263238" stroke-linecap="round" stroke-linejoin="round" stroke-width="1"/><circle cx="3.882" cy="3.882" r="3.882" transform="translate(63.413 15.022)" fill="none" stroke="#263238" stroke-linecap="round" stroke-linejoin="round" stroke-width="1"/><path d="M369.19,206.3s1.162-.556,1.689.292" transform="translate(-298.009 -187.4)" fill="none" stroke="#263238" stroke-linecap="round" stroke-linejoin="round" stroke-width="1"/><line x2="3.806" y2="1.375" transform="translate(81.006 22.364)" fill="none" stroke="#263238" stroke-linecap="round" stroke-linejoin="round" stroke-width="1"/><path d="M349.248,276.241l-5.369,7.523-1.919-13.076,2.879-1.559Z" transform="translate(-280.603 -227.672)" fill="#f8951d" stroke="#263238" stroke-linecap="round" stroke-linejoin="round" stroke-width="1"/><path d="M362.16,273.678l4.348,8.363,10.319-14.4-2.306-2.526Z" transform="translate(-293.515 -225.109)" fill="#f8951d" stroke="#263238" stroke-linecap="round" stroke-linejoin="round" stroke-width="1"/></g><g transform="translate(37.78 196.578)"><line x2="250" fill="none" stroke="#263238" stroke-linecap="round" stroke-linejoin="round" stroke-width="1"/></g></g></svg>