<svg xmlns="http://www.w3.org/2000/svg" width="250" height="186.408" viewBox="0 0 250 186.408">
  <g id="Talent_Pool" data-name="Talent Pool" transform="translate(-30 -102.96)">
    <g id="freepik--Table--inject-66" transform="translate(30 289.132)">
      <path id="Path_37031" data-name="Path 37031" d="M31.835,447.151h0Z" transform="translate(-30 -447.15)" fill="#263238"/>
    </g>
    <g id="freepik--speech-bubble-1--inject-66" transform="translate(121.876 102.96)">
      <path id="Path_37040" data-name="Path 37040" d="M198,146.238l7.741-1.691a20.775,20.775,0,1,0-7.538-18.864,20.523,20.523,0,0,0,2.65,13.187h0Z" transform="translate(-197.91 -107.453)" fill="#fff"/>
      <path id="Path_37041" data-name="Path 37041" d="M197.925,146.1l.2-.487c.131-.334.318-.8.547-1.418l2.19-5.441-.148.027h0a.093.093,0,0,0,.126,0,.082.082,0,0,0,0-.1,20.5,20.5,0,0,1,1.8-23.205,21.043,21.043,0,0,1,14.852-7.741,21.465,21.465,0,0,1,9.306,1.5,20.862,20.862,0,0,1,4.3,2.332c.339.23.646.5.974.761a9.442,9.442,0,0,1,.947.838,18.557,18.557,0,0,1,1.735,1.8c.268.323.547.63.81.963l.712,1.024.356.509.307.547.608,1.095c.186.367.339.75.509,1.095a10.618,10.618,0,0,1,.465,1.128,19.713,19.713,0,0,1,.69,2.321,20.7,20.7,0,0,1,0,9.306,20.167,20.167,0,0,1-3.8,7.96,20.983,20.983,0,0,1-13.39,7.8,21.459,21.459,0,0,1-6.739-.066,21.021,21.021,0,0,1-9.547-4.275.093.093,0,0,0-.077,0l-5.715,1.308-1.462.334-.515.12a2.024,2.024,0,0,0,.482-.093l1.473-.3,5.8-1.21h-.071a21.114,21.114,0,0,0,9.635,4.418,21.81,21.81,0,0,0,6.826.1,21.273,21.273,0,0,0,13.592-7.932,20.463,20.463,0,0,0,3.892-8.091,20.956,20.956,0,0,0,0-9.487,19.163,19.163,0,0,0-.7-2.365,11.148,11.148,0,0,0-.476-1.155c-.175-.378-.323-.766-.515-1.139l-.619-1.095-.312-.547-.361-.547-.728-1.04c-.263-.339-.547-.651-.821-.98a20.734,20.734,0,0,0-1.768-1.834,11.327,11.327,0,0,0-.969-.81c-.334-.257-.651-.547-1-.777a21.349,21.349,0,0,0-4.379-2.37,21.722,21.722,0,0,0-9.448-1.511,21.349,21.349,0,0,0-15.087,7.9,20.851,20.851,0,0,0-4.576,13.373,20.621,20.621,0,0,0,2.885,10.122l.142-.109h0a.093.093,0,0,0-.126,0h0c-.9,2.414-1.6,4.275-2.08,5.545-.224.608-.4,1.095-.52,1.407S197.925,146.1,197.925,146.1Z" transform="translate(-197.835 -107.32)" fill="#263238"/>
      <path id="Path_37042" data-name="Path 37042" d="M237.813,133.228a8.211,8.211,0,1,0-11.709,7.292v2.047l7.193.033s.049-1.15.066-2.19A8.113,8.113,0,0,0,237.813,133.228Z" transform="translate(-208.495 -115.267)" fill="#f8951d"/>
      <path id="Path_37043" data-name="Path 37043" d="M233.793,149.494v-.1a.911.911,0,0,1,.038-.29c.033-.257.077-.635.153-1.095s.175-1.095.334-1.763a11.978,11.978,0,0,1,.755-2.255,7.334,7.334,0,0,1,.684-1.215,1.522,1.522,0,0,1,.547-.493.859.859,0,0,1,.783.027.58.58,0,0,1,.257.323.547.547,0,0,1-.038.416,1.16,1.16,0,0,1-.635.547,2.261,2.261,0,0,1-2.858-1.483,1.719,1.719,0,0,1-.044-.942.739.739,0,0,1,.75-.547.547.547,0,0,1,.416.29.717.717,0,0,1,.06.5,1.56,1.56,0,0,1-.58.8,2.458,2.458,0,0,1-1.91.547,2.129,2.129,0,0,1-1.582-1.177,1.215,1.215,0,0,1-.049-.985.608.608,0,0,1,.361-.356.624.624,0,0,1,.5.044.876.876,0,0,1,.345.361,1.275,1.275,0,0,1,.12.465,2.4,2.4,0,0,1-1.292,2.283,2.491,2.491,0,0,1-1.7.224,1.314,1.314,0,0,1-.739-.389.619.619,0,0,1-.038-.783.509.509,0,0,1,.367-.175.75.75,0,0,1,.394.077,1.2,1.2,0,0,1,.5.547c.2.438.367.87.547,1.281.651,1.642,1.095,2.989,1.418,3.925.153.465.263.832.339,1.095l.088.285v.093l-.033-.093-.093-.279c-.088-.246-.208-.613-.361-1.095-.318-.931-.788-2.277-1.445-3.914-.164-.405-.334-.838-.547-1.27a1.1,1.1,0,0,0-.465-.52.489.489,0,0,0-.619.755,1.259,1.259,0,0,0,.69.361,2.441,2.441,0,0,0,1.642-.219,2.359,2.359,0,0,0,1.095-1.308,2.189,2.189,0,0,0,.12-.887.876.876,0,0,0-.416-.75.5.5,0,0,0-.422-.038.547.547,0,0,0-.307.3,1.133,1.133,0,0,0,.049.9,2.053,2.053,0,0,0,1.511,1.122,2.371,2.371,0,0,0,1.834-.547,1.511,1.511,0,0,0,.547-.75.657.657,0,0,0-.055-.432.433.433,0,0,0-.339-.235.591.591,0,0,0-.411.126.755.755,0,0,0-.235.361,1.642,1.642,0,0,0,.044.887,2.19,2.19,0,0,0,2.737,1.429,1.062,1.062,0,0,0,.591-.493.476.476,0,0,0-.186-.63.772.772,0,0,0-.7-.027,1.44,1.44,0,0,0-.547.471,7.983,7.983,0,0,0-.679,1.193,12.359,12.359,0,0,0-.766,2.239c-.164.679-.268,1.27-.35,1.757s-.131.859-.175,1.095a1.557,1.557,0,0,1-.044.3Z" transform="translate(-211.631 -122.205)" fill="#263238"/>
      <path id="Path_37044" data-name="Path 37044" d="M236.515,158.867l-6.169-.027a.465.465,0,0,1-.465-.46h0a.471.471,0,0,1,.465-.46l6.175.033a.454.454,0,0,1,.46.46h0a.454.454,0,0,1-.465.454Z" transform="translate(-212.338 -130.22)" fill="#263238"/>
      <path id="Path_37045" data-name="Path 37045" d="M236.515,160.38H230.34a.46.46,0,1,0,0,.92h.7l.892,1.7a.591.591,0,0,0,.547.318h2.19a.6.6,0,0,0,.547-.318l.881-1.681h.416a.46.46,0,0,0,0-.92Z" transform="translate(-212.338 -131.334)" fill="#263238"/>
      <g id="Group_8793" data-name="Group 8793" transform="translate(13.821 11.283)" opacity="0.2">
        <path id="Path_37046" data-name="Path 37046" d="M223.678,131.313a6.279,6.279,0,0,0-.586,2.348,5.8,5.8,0,0,0,.219,1.938,4.293,4.293,0,0,0,.547,1.193c.175.257.312.372.372.339a14.446,14.446,0,0,0-.2-1.67,6.668,6.668,0,0,1,3.109-6.542c.838-.547,1.462-.766,1.429-.914,0-.066-.192-.093-.5-.066a4.418,4.418,0,0,0-1.265.361,6.284,6.284,0,0,0-3.1,3.011Z" transform="translate(-223.083 -127.931)" fill="#fff"/>
      </g>
      <g id="Group_8794" data-name="Group 8794" transform="translate(20.221 10.737)" opacity="0.2">
        <path id="Path_37047" data-name="Path 37047" d="M236.847,127.518a.471.471,0,0,0-.257-.394,1.681,1.681,0,0,0-1.549,0c-.192.115-.285.257-.263.394.049.274.509.416,1.029.422C235.807,127.917,236.617,127.83,236.847,127.518Z" transform="translate(-234.774 -126.934)" fill="#fff"/>
      </g>
      <path id="Path_37048" data-name="Path 37048" d="M236.949,165.09a3.7,3.7,0,0,1-.422-.131,3.7,3.7,0,0,0-1.051-.131,3.367,3.367,0,0,0-1.035.186,3.2,3.2,0,0,1-.422.148,1.374,1.374,0,0,1,.394-.214,2.989,2.989,0,0,1,1.062-.219,3.071,3.071,0,0,1,1.095.164A1.594,1.594,0,0,1,236.949,165.09Z" transform="translate(-214.212 -133.301)" fill="#455a64"/>
      <path id="Path_37049" data-name="Path 37049" d="M237.092,162.039s-1.095.044-2.491.038-2.491-.033-2.491-.06,1.095-.044,2.491-.038A22.011,22.011,0,0,1,237.092,162.039Z" transform="translate(-213.347 -132.057)" fill="#455a64"/>
      <path id="Path_37050" data-name="Path 37050" d="M237.06,163.41a3.083,3.083,0,0,1-.608.06c-.378,0-.9.038-1.473.044s-1.095,0-1.473,0a3.2,3.2,0,0,1-.608-.049,5.065,5.065,0,0,1,.608,0h2.945A5.432,5.432,0,0,1,237.06,163.41Z" transform="translate(-213.705 -132.705)" fill="#455a64"/>
    </g>
    <g id="freepik--character-2--inject-66" transform="translate(153.991 105.315)">
      <path id="Path_37051" data-name="Path 37051" d="M363.055,115.579a4.927,4.927,0,0,0-5.025-2.562,6.739,6.739,0,0,0-8.211,0,6.131,6.131,0,0,0-5.863-.23,5.989,5.989,0,0,0-3.208,4.861,5.118,5.118,0,0,0-5.25,2.485,5.014,5.014,0,0,0,.734,5.693,4.727,4.727,0,0,0,1.845,9.23l24.015-13.97A4.8,4.8,0,0,0,363.055,115.579Z" transform="translate(-291.069 -111.621)" fill="#263238"/>
      <path id="Path_37052" data-name="Path 37052" d="M339.352,140.706a20.189,20.189,0,0,1,20.583-18.021h1.051c11.3.881,16.85,10.872,15.645,22.028l-2.414,37.225-1.642,4.653-19.466,24.141-4.927-21.749-.071-10.051s-10.839-1.894-10.751-12.656C337.4,161.075,338.367,150.379,339.352,140.706Z" transform="translate(-293.095 -116.625)" fill="#ffbf9d"/>
      <path id="Path_37053" data-name="Path 37053" d="M357,222.27a26.6,26.6,0,0,0,14.233-3.87s-3.493,7.7-14.233,6.542Z" transform="translate(-301.984 -159.947)" fill="#ff9a6c"/>
      <path id="Path_37054" data-name="Path 37054" d="M345.659,172.124a1.533,1.533,0,0,0,1.462,1.582,1.478,1.478,0,0,0,1.642-1.352,1.544,1.544,0,0,0-1.462-1.582,1.478,1.478,0,0,0-1.642,1.352Z" transform="translate(-296.851 -138.387)" fill="#263238"/>
      <path id="Path_37055" data-name="Path 37055" d="M344.821,165.024c.192.208,1.385-.63,3.055-.591s2.879.887,3.066.69c.088-.088-.1-.454-.624-.849a4.336,4.336,0,0,0-2.447-.8,4.139,4.139,0,0,0-2.414.728C344.908,164.575,344.728,164.937,344.821,165.024Z" transform="translate(-296.462 -135.087)" fill="#263238"/>
      <path id="Path_37056" data-name="Path 37056" d="M373,173.644a1.544,1.544,0,0,0,1.462,1.582,1.484,1.484,0,0,0,1.642-1.352,1.544,1.544,0,0,0-1.462-1.582A1.478,1.478,0,0,0,373,173.644Z" transform="translate(-309.225 -139.075)" fill="#263238"/>
      <path id="Path_37057" data-name="Path 37057" d="M374.031,165.2c.192.2,1.385-.635,3.055-.6s2.879.892,3.066.7c.088-.088-.1-.454-.624-.854a4.291,4.291,0,0,0-2.447-.8,4.117,4.117,0,0,0-2.436.723C374.124,164.755,373.938,165.111,374.031,165.2Z" transform="translate(-309.682 -135.167)" fill="#263238"/>
      <path id="Path_37058" data-name="Path 37058" d="M360.052,177.287a11.694,11.694,0,0,0-2.7-.547c-.422-.049-.827-.142-.892-.432a2.146,2.146,0,0,1,.312-1.248l1.33-3.186c1.845-4.544,3.192-8.283,3.005-8.354s-1.834,3.553-3.679,8.1c-.449,1.095-.87,2.19-1.276,3.208a2.414,2.414,0,0,0-.257,1.642,1.062,1.062,0,0,0,.69.63,2.891,2.891,0,0,0,.723.115A10.587,10.587,0,0,0,360.052,177.287Z" transform="translate(-301.462 -135.109)" fill="#263238"/>
      <path id="Path_37059" data-name="Path 37059" d="M374.173,156.563c.192.432,1.642.077,3.389.142s3.2.454,3.383,0c.082-.2-.2-.6-.8-.974a5.272,5.272,0,0,0-2.584-.734,5.085,5.085,0,0,0-2.578.6C374.376,155.972,374.069,156.355,374.173,156.563Z" transform="translate(-309.747 -131.251)" fill="#263238"/>
      <path id="Path_37060" data-name="Path 37060" d="M345.684,156.819c.252.405,1.434.131,2.814.257s2.518.509,2.83.148c.137-.181,0-.575-.482-.98a4.144,4.144,0,0,0-4.549-.323C345.772,156.271,345.569,156.649,345.684,156.819Z" transform="translate(-296.849 -131.43)" fill="#263238"/>
      <path id="Path_37061" data-name="Path 37061" d="M343.105,134.692s3.011-6.679,6.328-8.184c4.013-1.823,5.633,2.529,9.443,1.555s7.664-2.737,11.458.257c4.171,3.285,2.135,5.447,2.3,10.226.657,19.379,4.117,24.924,5.321,15.826.131-1,2.951-1.73,3.454-5.945.651-5.474,1-12.1-.148-16.012-.974-3.285-2.814-5.595-6.142-8.157-5.255-4.045-12.591-4.275-17.578-3.881S342.826,126.246,343.105,134.692Z" transform="translate(-295.693 -115.523)" fill="#263238"/>
      <path id="Path_37062" data-name="Path 37062" d="M405.117,179.723a2.94,2.94,0,0,1,3.246-2.737c2.02.23,4.253,1.418,4.034,5.562-.389,7.352-7.768,5.474-7.768,5.233S404.926,182.816,405.117,179.723Z" transform="translate(-323.54 -141.197)" fill="#ffbf9d"/>
      <path id="Path_37063" data-name="Path 37063" d="M407.843,187.082c.033,0,.126.1.339.208a1.281,1.281,0,0,0,.963.071,3.2,3.2,0,0,0,1.642-2.764,4.182,4.182,0,0,0-.263-1.856,1.478,1.478,0,0,0-.92-1.029.651.651,0,0,0-.783.307c-.11.2-.071.35-.115.361s-.148-.131-.077-.432a.826.826,0,0,1,.318-.443.98.98,0,0,1,.728-.148,1.807,1.807,0,0,1,1.292,1.21,4.325,4.325,0,0,1,.339,2.069c-.126,1.478-.969,2.825-2.058,3.077a1.38,1.38,0,0,1-1.172-.257C407.849,187.262,407.816,187.1,407.843,187.082Z" transform="translate(-324.991 -143.174)" fill="#ff9a6c"/>
      <path id="Path_37064" data-name="Path 37064" d="M381.75,137.741a7.049,7.049,0,0,1-3.181,1.374,2.425,2.425,0,0,1-2.655-1.741c-.077-.515.06-1.095-.274-1.511s-1.144-.345-1.768-.3a4.735,4.735,0,0,1-4.856-3.465,2.008,2.008,0,0,1-2.677.2,10.679,10.679,0,0,1-1.982-2.19,3.076,3.076,0,0,0-2.524-1.319,7.581,7.581,0,0,1-1.642.323c-.974-.109-1.429-1.248-1.555-2.19s-.219-2.08-1.035-2.622-1.757-.235-2.655-.126-2.058-.12-2.272-.991a1.752,1.752,0,0,1,.361-1.33,4.839,4.839,0,0,1,5.721-1.686,6.569,6.569,0,0,1,12.032-1.04,6.793,6.793,0,0,1,5.956-1.418,6.722,6.722,0,0,1,4.582,4.024,4.959,4.959,0,0,1,4.981,1.785,4.828,4.828,0,0,1,.285,5.233,4.524,4.524,0,0,1,2.436,3.646c0,1.527-1.538,3.011-3.011,2.578a2.737,2.737,0,0,1-1.122,3.432,2.77,2.77,0,0,1-3.531-.9" transform="translate(-300.02 -113.448)" fill="#263238"/>
      <path id="Path_37065" data-name="Path 37065" d="M405.571,151a1.746,1.746,0,0,1-.493,1.407,2.419,2.419,0,0,1-1.505.849,2.6,2.6,0,0,1-2.108-.657l.318-.038a7.593,7.593,0,0,1-1.522,1.806,4.38,4.38,0,0,1-1.374.8,2.951,2.951,0,0,1-1.5.1,2.907,2.907,0,0,1-2.119-1.259,4.215,4.215,0,0,1-.547-1.544,1.511,1.511,0,0,1-.049-.6,1.909,1.909,0,0,1,.208.547,4.928,4.928,0,0,0,.657,1.412,3.048,3.048,0,0,0,4.467.2,7.432,7.432,0,0,0,1.451-1.692l.137-.214.181.17a2.255,2.255,0,0,0,1.779.6,2.19,2.19,0,0,0,1.358-.673,3.438,3.438,0,0,0,.662-1.226Z" transform="translate(-319.029 -129.443)" fill="#455a64"/>
      <path id="Path_37066" data-name="Path 37066" d="M373.061,117.336c0,.027-.192.049-.547.181a2.567,2.567,0,0,0-1.171.947l-.093.142-.1-.142a9.24,9.24,0,0,0-3.536-2.951,7.259,7.259,0,0,0-2.912-.7,6.181,6.181,0,0,0-5.08,2.546,5,5,0,0,0-.865,2.19l-.027.23-.224-.066a4.221,4.221,0,0,0-3.093.312,4.024,4.024,0,0,0-1.73,1.757,5.535,5.535,0,0,0-.509,2.19,1.516,1.516,0,0,1-.077-.6,4.04,4.04,0,0,1,.367-1.642,4.242,4.242,0,0,1,1.79-1.943,4.527,4.527,0,0,1,3.367-.394l-.252.164a5.3,5.3,0,0,1,.909-2.392,6.52,6.52,0,0,1,5.436-2.737,7.515,7.515,0,0,1,3.066.772,9.011,9.011,0,0,1,3.564,3.159h-.192a2.5,2.5,0,0,1,1.325-.936A1.171,1.171,0,0,1,373.061,117.336Z" transform="translate(-300.216 -112.892)" fill="#455a64"/>
      <path id="Path_37067" data-name="Path 37067" d="M366.846,193.4s2.146,4.434-2.447,5.474a2.19,2.19,0,0,1-1.2-.066h0a2.19,2.19,0,0,1-1.44-1.533l-.635-2.414C361.333,194.944,366.846,193.4,366.846,193.4Z" transform="translate(-303.849 -148.633)" fill="#ff9a6c"/>
      <path id="Path_37068" data-name="Path 37068" d="M362.144,198.763a4.627,4.627,0,0,1,.6.055,3.953,3.953,0,0,0,1.571-.235,3.449,3.449,0,0,0,2.19-4.2,3.285,3.285,0,0,0-.471-1.035l.153.055c-1.774.449-3.339.832-4.467,1.095l-1.325.3a2.011,2.011,0,0,1-.493.071,2.057,2.057,0,0,1,.465-.17l1.308-.383c1.095-.312,2.666-.728,4.434-1.188h.1l.055.077a3.59,3.59,0,0,1,.515,1.128,3.788,3.788,0,0,1-.438,2.967,3.739,3.739,0,0,1-3.608,1.642A1.565,1.565,0,0,1,362.144,198.763Z" transform="translate(-303.297 -148.511)" fill="#263238"/>
      <path id="Path_37069" data-name="Path 37069" d="M282.721,254s-7.779,4.166-9.366,15.076C272,278.448,263.8,328.69,263.8,328.69l-7.3,30.962h18.93l10.3-54.906Z" transform="translate(-256.5 -176.059)" fill="#f8951d"/>
      <path id="Path_37070" data-name="Path 37070" d="M314.54,347.954l10.642-96.368,9.284-21.251,3.109-2.151,2.239,9.459,3.005,10.7,8.211-10.319L364,227.97l.3,4.96,6.224,18.207-5.162,47.505V347.85Z" transform="translate(-282.768 -164.278)" fill="#fff"/>
      <path id="Path_37071" data-name="Path 37071" d="M356.988,365.083a1.35,1.35,0,0,0,.027-.257,5.832,5.832,0,0,1,.038-.75c0-.684.06-1.642.1-2.885.088-2.535.208-6.159.361-10.625.318-8.972.816-21.349,1.527-35.035s1.516-26.057,2.135-35.035c.318-4.461.547-8.074.75-10.6.082-1.232.148-2.19.2-2.885a4.25,4.25,0,0,1,.038-.75.765.765,0,0,0,0-.257,1.957,1.957,0,0,0-.038.257c0,.186-.044.432-.077.745-.066.684-.153,1.642-.268,2.879-.224,2.5-.52,6.12-.865,10.6-.7,8.95-1.533,21.349-2.25,35.008s-1.172,26.074-1.418,35.035c-.12,4.489-.2,8.118-.241,10.631,0,1.237-.027,2.19-.033,2.89v.75A1.329,1.329,0,0,0,356.988,365.083Z" transform="translate(-301.972 -181.49)" fill="#263238"/>
      <path id="Path_37072" data-name="Path 37072" d="M417.1,297l14.906-46.153-26.38-14.178-5.507-5.967s-1.177,24.76-1.358,31.318-3.071,31.416-4.379,46.531c-.684,8.074-.246,21.568.159,29.172.465,8.72.367,11.605.367,11.605l25.811-.142-8.54-33.984Z" transform="translate(-318.742 -165.514)" fill="#f8951d"/>
      <path id="Path_37073" data-name="Path 37073" d="M314.331,236.331l-17.983,6.9L293.557,310.1l-6.947,38.867,19.839.372c.181-4.735,5.228-44.193,5.228-44.193l6.629-61.749,5.2-13.2Z" transform="translate(-270.127 -165.288)" fill="#f8951d"/>
      <path id="Path_37074" data-name="Path 37074" d="M333.587,240.73a2.473,2.473,0,0,0-.328.367l-.909,1.095-3.378,4.188-.071.088.093.071,2.863,2.151.038-.235-3.356,1.051-.109.033v.109c.066,5.923.148,13.384.235,21.47.142,9.854.274,18.8.372,25.3.066,3.213.115,5.825.153,7.664.027.881.049,1.577.066,2.08v.547a.949.949,0,0,0,0,.186.791.791,0,0,0,0-.186v-2.633c0-1.839,0-4.451-.033-7.664-.071-6.5-.164-15.437-.263-25.3-.115-8.085-.224-15.541-.312-21.464l-.1.142,3.35-1.095.252-.077-.214-.159-2.8-2.1v.159l3.285-4.248.865-1.139A2.936,2.936,0,0,0,333.587,240.73Z" transform="translate(-289.054 -170.053)" fill="#263238"/>
      <path id="Path_37075" data-name="Path 37075" d="M397.65,303a1.128,1.128,0,0,0,.071-.181c.038-.12.1-.312.175-.547l.673-2.042c.586-1.768,1.456-4.325,2.578-7.467.547-1.571,1.188-3.284,1.856-5.135a60.778,60.778,0,0,0,1.883-5.983,133.219,133.219,0,0,0,2.638-14.107c.914-6.569,1.5-12.76,1.861-18.065V249.4l-.055-.055-2.9-2.737v.224l2.737-2.064.1-.082-.077-.1-4.954-6.651-1.363-1.8-.361-.46c-.088-.1-.131-.153-.137-.148a1.214,1.214,0,0,0,.1.17c.088.126.2.285.328.487l1.308,1.834c1.161,1.615,2.819,3.9,4.856,6.717v-.186l-2.737,2.042-.137.1.126.126,2.874,2.781-.049-.126c-.389,5.31-1,11.5-1.905,18.065a139.91,139.91,0,0,1-2.6,14.08,62.432,62.432,0,0,1-1.845,5.967l-1.812,5.129c-1.095,3.159-1.922,5.726-2.469,7.511-.274.9-.476,1.593-.6,2.064-.055.224-.1.4-.142.547A.813.813,0,0,0,397.65,303Z" transform="translate(-320.382 -167.7)" fill="#263238"/>
      <g id="Group_8795" data-name="Group 8795" transform="translate(75.654 160.421)" opacity="0.3">
        <path id="Path_37076" data-name="Path 37076" d="M417.407,413.785l-14.288,5.54-.953-3.148-7.078,5.841L394.7,413.3l6.224-8.633,15.437,4.949Z" transform="translate(-394.7 -404.67)"/>
      </g>
      <path id="Path_37077" data-name="Path 37077" d="M443.553,336.6a5.37,5.37,0,0,0,2.556-4.379,48.261,48.261,0,0,0-.432-7.461c-1.024-8.414-12.306-57.26-12.306-57.26L416.73,305.546l4.806,16.57L397.05,333.721l6.815,19.039S436.437,341,443.553,336.6Z" transform="translate(-320.11 -182.169)" fill="#f8951d"/>
      <path id="Path_37078" data-name="Path 37078" d="M442.811,288.07a2.01,2.01,0,0,0-.153.427l-.378,1.243c-.323,1.128-.766,2.682-1.314,4.587-1.095,3.881-2.589,9.24-4.111,15.2s-2.737,11.4-3.487,15.355c-.383,1.982-.668,3.586-.838,4.7-.082.547-.148.947-.2,1.281a2.506,2.506,0,0,0-.044.449,1.7,1.7,0,0,0,.12-.438c.066-.328.153-.75.263-1.27.235-1.15.547-2.737.958-4.669.821-3.941,2.069-9.366,3.591-15.328s2.978-11.326,4.007-15.218c.493-1.916.9-3.482,1.193-4.62.126-.52.23-.936.307-1.265A1.792,1.792,0,0,0,442.811,288.07Z" transform="translate(-336.059 -191.478)" fill="#263238"/>
      <path id="Path_37079" data-name="Path 37079" d="M435.311,385.113a.651.651,0,0,0-.159.044l-.46.159-1.763.657-6.569,2.5-22.669,8.759.235.109-4.565-12.777c-.761-2.135-1.516-4.232-2.244-6.268l-.093.23,24.2-11.561h0a14.189,14.189,0,0,1,9.947.416,17.862,17.862,0,0,1,2.452,1.281l.608.394a.926.926,0,0,0,.214.12,1.641,1.641,0,0,0-.192-.153l-.586-.427a16.282,16.282,0,0,0-2.441-1.347,14.1,14.1,0,0,0-4.264-1.139,14.632,14.632,0,0,0-5.819.6h0l-24.251,11.468-.153.071.06.159,2.239,6.268,4.582,12.771.06.175.175-.071,22.587-8.874,6.542-2.6,1.741-.706.449-.192Z" transform="translate(-319.97 -226.767)" fill="#263238"/>
      <path id="Path_37080" data-name="Path 37080" d="M366.76,254.134a4.97,4.97,0,0,0,.69-.619l1.823-1.8c1.582-1.593,3.717-3.755,6.164-6.23h-.263a7.833,7.833,0,0,1,1.741,5.3l-.027.422.328-.263c3.12-2.5,5.644-4.927,7.538-6.629.936-.843,1.7-1.516,2.223-1.971a7.361,7.361,0,0,0,.8-.734,6.15,6.15,0,0,0-.892.63c-.547.422-1.341,1.067-2.3,1.889-1.932,1.642-4.5,4.056-7.6,6.525l.3.159a7.544,7.544,0,0,0-.153-2.058,7.725,7.725,0,0,0-1.686-3.509l-.131-.153-.137.142-6.071,6.323q-1.068,1.15-1.752,1.872A5.2,5.2,0,0,0,366.76,254.134Z" transform="translate(-306.401 -170.456)" fill="#263238"/>
      <path id="Path_37081" data-name="Path 37081" d="M351.66,239.58a1.9,1.9,0,0,0-.027.547,14.55,14.55,0,0,0,.071,1.6,34,34,0,0,0,.914,5.474l.115.454.219-.416a13.4,13.4,0,0,1,2.387-3.284,9.65,9.65,0,0,1,.827-.766l-.3-.1a49.775,49.775,0,0,0,2.228,7.286c.35.9.662,1.609.892,2.1a3.637,3.637,0,0,0,.389.734,4.123,4.123,0,0,0-.263-.788c-.208-.547-.471-1.281-.777-2.129a62.084,62.084,0,0,1-2.124-7.188l-.071-.307-.235.2c-.285.241-.575.5-.854.788a13.079,13.079,0,0,0-2.436,3.367l.328.038a40.636,40.636,0,0,1-1.04-5.436C351.759,240.357,351.7,239.58,351.66,239.58Z" transform="translate(-299.551 -169.533)" fill="#263238"/>
      <g id="Group_8796" data-name="Group 8796" transform="translate(37.498 79.583)" opacity="0.3">
        <path id="Path_37082" data-name="Path 37082" d="M327.031,257,325,259.814s.575,42.4,2.737,52.925Z" transform="translate(-325 -257)"/>
      </g>
      <path id="Path_37083" data-name="Path 37083" d="M286.61,373.212a1.11,1.11,0,0,1,.027-.2c.027-.131.06-.339.1-.591.093-.547.235-1.3.411-2.277.378-1.987.914-4.856,1.588-8.408,1.369-7.144,3.284-17.058,5.414-28.209v.027c0-1.494-.033-3.082-.049-4.686-.12-12.448-.23-23.714-.312-31.882,0-4.073-.044-7.368-.06-9.662V284.01a1.049,1.049,0,0,1,0-.23,1.216,1.216,0,0,1,0,.23v.684c0,.613.033,1.494.055,2.628.038,2.294.088,5.589.153,9.662.1,8.168.241,19.433.394,31.876,0,1.609.033,3.191.049,4.686v.033c-2.19,11.146-4.111,21.054-5.507,28.187l-1.642,8.4c-.2.974-.356,1.735-.465,2.266l-.126.586A.763.763,0,0,1,286.61,373.212Z" transform="translate(-270.127 -189.537)" fill="#263238"/>
      <path id="Path_37084" data-name="Path 37084" d="M285.671,371.569c0,.082-1.423-.038-3.159.088s-3.126.427-3.142.345a9.066,9.066,0,0,1,3.12-.63A9.2,9.2,0,0,1,285.671,371.569Z" transform="translate(-266.85 -229.153)" fill="#263238"/>
      <path id="Path_37085" data-name="Path 37085" d="M369.042,390.83s-13.806,2.879-15.875,3.328-10.155,6.536-10.948,6.985-3.142,1.932-3.142,1.932a3.657,3.657,0,0,0,4.182,1.577,14.438,14.438,0,0,0,4.445-2.43l-5.71,5.206-6.5,3.974a1.916,1.916,0,0,0-.81,2.349,1.133,1.133,0,0,0,1.363.722,78.508,78.508,0,0,0,7.839-2.666s.279,3.618,3.58,4.067c0,0,.712,3.1,3.586,2.442,0,0,2.825,2.316,5.321.991s8.994-3.974,10.335-6.668a39.878,39.878,0,0,1,3.033-5.031l5.02-.865Z" transform="translate(-291.823 -237.985)" fill="#ffbf9d"/>
      <path id="Path_37086" data-name="Path 37086" d="M351.609,425.71A16.253,16.253,0,0,0,355.4,424a12.248,12.248,0,0,0,3.378-2.442c-.077-.093-1.587.974-3.586,2.069A25.53,25.53,0,0,0,351.609,425.71Z" transform="translate(-299.544 -251.888)" fill="#ff9a6c"/>
      <path id="Path_37087" data-name="Path 37087" d="M364.857,428.163a17.333,17.333,0,0,0-3.733,2.228,34.628,34.628,0,0,0-3.514,2.551,17.092,17.092,0,0,0,3.755-2.19A26.391,26.391,0,0,0,364.857,428.163Z" transform="translate(-302.259 -254.878)" fill="#ff9a6c"/>
      <path id="Path_37088" data-name="Path 37088" d="M370.643,433.237c-.077-.077-1.33.974-3.011,2.113a15.91,15.91,0,0,0-2.934,2.233,14.608,14.608,0,0,0,3.175-1.883A9.984,9.984,0,0,0,370.643,433.237Z" transform="translate(-305.467 -257.176)" fill="#ff9a6c"/>
      <path id="Path_37089" data-name="Path 37089" d="M366.016,401.17a3.575,3.575,0,0,0-1.451.317,11.092,11.092,0,0,0-3.12,1.752,14.98,14.98,0,0,0-2.507,2.556,4.378,4.378,0,0,0-.788,1.259c.115.093,1.412-1.774,3.558-3.476A21.932,21.932,0,0,1,366.016,401.17Z" transform="translate(-302.505 -242.665)" fill="#ff9a6c"/>
    </g>
    <g id="freepik--character-1--inject-66" transform="translate(38.106 120.307)">
      <path id="Path_37124" data-name="Path 37124" d="M178.508,318.346l7.576-2.19,9.394-3.547,7.461-4.045s.651-.646-.263-1.451-4.971,1.445-4.971,1.445l-3.213,1.2s-2.737.219-2.556-.033,4.379-2.288,4.379-2.288l7.166-3.9s2.02-1.046,1.4-2.387c-.3-.635-1.046-1.013-2.42-.487s-3.542,1.889-4.319,2.19-5.206,2.3-5.206,2.3l9.175-6.284s2.989-1.779,2.031-3.038-2.781.126-3.832.547-6.8,4.084-9.049,5.1c-1.921.876-1.456.148-1.456.148l5.441-3.361c2.4-1.484,4.226-2.956,2.66-3.931-1.018-.635-5.622,1.817-5.622,1.817l-6.8,3.8-3.241,1.434,2.7-2.42a9.181,9.181,0,0,0,2.956-3.679c.947-2.337-.974-2.414-.974-2.414l-11.091,7.587c-1.724,1.505-3.761,8.759-3.761,8.759L150.65,317.8l8.879,12.99Z" transform="translate(-92.71 -208.648)" fill="#ffbf9d"/>
      <path id="Path_37125" data-name="Path 37125" d="M206.505,308a2.651,2.651,0,0,1,.334.389,7.468,7.468,0,0,1,.7,1.2,8.151,8.151,0,0,1-1.193,8.677,6.738,6.738,0,0,1-.991.98,1.718,1.718,0,0,1-.422.285c-.033-.044.547-.476,1.259-1.39a8.419,8.419,0,0,0,1.161-8.5A15.651,15.651,0,0,0,206.505,308Z" transform="translate(-117.275 -215.491)" fill="#ff9a6c"/>
      <path id="Path_37126" data-name="Path 37126" d="M151.978,201.913c.164-.783.964-1.243,1.642-1.713a7.888,7.888,0,0,0,3.17-7.522,8.085,8.085,0,0,0-5.4-6.213,6.219,6.219,0,0,1-1.987-.8c-1.4-1.095-.953-3.252-1.484-4.927-1.128-3.547-6.312-4.248-8.173-7.489-1.133-1.976-.755-4.379-.651-6.662s-.339-4.9-2.348-6.022c-1.095-.608-2.436-.646-3.493-1.3-2.19-1.341-2.091-4.379-2.9-6.777a8.846,8.846,0,0,0-9.6-5.584s1.593-3.4-2.617-5.151c-5.086-2.1-5.409,1.456-7.751-.761a7.806,7.806,0,0,0-9.542-.662,22.18,22.18,0,0,1-2.567,1.916,15.05,15.05,0,0,1-3.832.942A11.177,11.177,0,0,0,85.74,153.8l32.1,54.644c1.095,5.2-2.14,7.527,2.414,10.445.952.608,7.79,2.414,8.917,2.606,1.4.241,4.779.361,6.082-.2,2.83-1.221,7.116-3.077,8.211-5.885a8.063,8.063,0,0,0,9.065-2.036,7.587,7.587,0,0,0,.449-9.065C152.476,203.567,151.791,202.778,151.978,201.913Z" transform="translate(-63.333 -139.009)" fill="#263238"/>
      <path id="Path_37127" data-name="Path 37127" d="M86.443,172.43,86,168.669l22.669-6.41c7.051-1.39,15.432,4.861,16.57,11.786,1.259,7.7,2.491,17.145,2.118,22.992-.75,11.791-9.733,14.107-9.733,14.107L119.7,231.2l-.356,5.157L96.9,216.738Z" transform="translate(-63.451 -149.443)" fill="#ffbf9d"/>
      <path id="Path_37128" data-name="Path 37128" d="M150.947,200.559a1.5,1.5,0,0,1-1.325,1.642,1.473,1.473,0,0,1-1.708-1.2,1.511,1.511,0,0,1,1.325-1.642,1.467,1.467,0,0,1,1.708,1.2Z" transform="translate(-91.469 -166.312)" fill="#263238"/>
      <path id="Path_37129" data-name="Path 37129" d="M149,192.308c-.17.214-1.407-.515-3.049-.361s-2.77,1.095-2.967.887c-.1-.077.06-.443.547-.865a4.237,4.237,0,0,1,2.354-.953,4.111,4.111,0,0,1,2.452.547C148.861,191.875,149.069,192.215,149,192.308Z" transform="translate(-89.229 -162.538)" fill="#263238"/>
      <path id="Path_37130" data-name="Path 37130" d="M123.486,203.19a1.505,1.505,0,0,1-1.325,1.642,1.462,1.462,0,0,1-1.708-1.2,1.494,1.494,0,0,1,1.319-1.642A1.478,1.478,0,0,1,123.486,203.19Z" transform="translate(-79.04 -167.503)" fill="#263238"/>
      <path id="Path_37131" data-name="Path 37131" d="M119.5,195.574c-.17.208-1.412-.52-3.055-.361s-2.77,1.067-2.967.887c-.093-.082.06-.449.547-.87a4.3,4.3,0,0,1,2.348-.953,4.177,4.177,0,0,1,2.458.547C119.38,195.142,119.582,195.476,119.5,195.574Z" transform="translate(-75.875 -164.015)" fill="#263238"/>
      <path id="Path_37132" data-name="Path 37132" d="M135.813,206.385a11.8,11.8,0,0,1,2.628-.717c.416-.077.8-.2.849-.482a2.113,2.113,0,0,0-.4-1.188l-1.549-3.005c-2.162-4.281-3.766-7.812-3.591-7.894s2.075,3.317,4.232,7.6l1.5,3.022a2.365,2.365,0,0,1,.378,1.588,1.046,1.046,0,0,1-.635.662,3.1,3.1,0,0,1-.7.164A10.845,10.845,0,0,1,135.813,206.385Z" transform="translate(-85.055 -163.488)" fill="#263238"/>
      <path id="Path_37133" data-name="Path 37133" d="M129.9,249.606a32.467,32.467,0,0,1-16.768-2.666s4.894,8.162,17.118,5.961Z" transform="translate(-75.729 -187.856)" fill="#ff9a6c"/>
      <path id="Path_37134" data-name="Path 37134" d="M118,184.329c-.12.449-1.785.394-3.69.8s-3.416,1.062-3.712.69c-.131-.175.1-.608.684-1.095a6.7,6.7,0,0,1,5.638-1.139C117.657,183.8,118.051,184.116,118,184.329Z" transform="translate(-74.568 -159.093)" fill="#263238"/>
      <path id="Path_37135" data-name="Path 37135" d="M147.344,183.829c-.257.389-1.423.115-2.786.224s-2.491.476-2.8.12c-.131-.175,0-.547.482-.947a3.865,3.865,0,0,1,2.19-.8,3.92,3.92,0,0,1,2.288.547C147.273,183.282,147.47,183.648,147.344,183.829Z" transform="translate(-88.665 -158.652)" fill="#263238"/>
      <path id="Path_37136" data-name="Path 37136" d="M107.04,163.067a20.5,20.5,0,0,0-11.217-6.2l-19.2,3.033-5.118,3.153c-.422-1.095-.7-1.8-.7-1.8-1.883-1.21-7.012-3.651-11.167.761-1.494,1.593-2.6,5.71-2.524,7.823.033.8.164,1.774-.547,2.244a2.529,2.529,0,0,1-.843.3c-4.856,1.2-8.074,6.377-6.744,10.872a2.289,2.289,0,0,1,.153.909,2.458,2.458,0,0,1-.8,1.215,7.4,7.4,0,0,0-.881,8.824,8.869,8.869,0,0,1,1.456,2.578c.389,1.7-.887,3.285-1.861,4.774-2.918,4.456-3.285,10.768.651,14.55.953.92,2.157,1.724,2.562,2.94a6.76,6.76,0,0,1,.2,1.85c.148,3.142,2.129,6.569,5.474,7.116,1.861.3,4.078-.279,5.474.92a7.407,7.407,0,0,1,1.265,1.916,7.165,7.165,0,0,0,8.113,2.83,6.29,6.29,0,0,0,4.275-6.936,8.6,8.6,0,0,0,5.567-8.567s-2.108-10.948-1.193-14.008-1.582-9.306-2.978-12.35-.318-10.292-.142-13.138a9.656,9.656,0,0,0-.383-2.436h0c-.17-.69-.389-1.467-.64-2.3a19.926,19.926,0,0,1-.192-2.3c-.1-2.7,2.737-4.763,5.556-4.018a7.768,7.768,0,0,0,2.1.263,7.582,7.582,0,0,0,5.825-2.858,11.348,11.348,0,0,0,10.664,2.228,28.259,28.259,0,0,0,5.283,5.162,10.42,10.42,0,0,0,7.193,1.96A17.8,17.8,0,0,0,107.04,163.067Z" transform="translate(-44.808 -147.092)" fill="#263238"/>
      <path id="Path_37137" data-name="Path 37137" d="M130.312,166.5c-.033,0,0-.427-.1-1.182a7.543,7.543,0,0,0-1.139-3.027,7.116,7.116,0,0,0-3.832-2.929,7.631,7.631,0,0,0-5.994.635l-.131.077-.109-.115a11.107,11.107,0,0,0-2.737-2.129A11.463,11.463,0,0,0,109,156.591a11.08,11.08,0,0,0-5.474,2.6,11.315,11.315,0,0,0-2.54,3.186c-.449.854-.613,1.369-.651,1.358a1.642,1.642,0,0,1,.1-.378,8.727,8.727,0,0,1,.411-1.046,10.893,10.893,0,0,1,2.5-3.323,11.184,11.184,0,0,1,5.573-2.737,11.72,11.72,0,0,1,7.511,1.275,11.331,11.331,0,0,1,2.841,2.19l-.246-.033a7.927,7.927,0,0,1,6.3-.63,7.259,7.259,0,0,1,3.958,3.115,7.073,7.073,0,0,1,1.057,3.142,4.48,4.48,0,0,1,0,.892A1.057,1.057,0,0,1,130.312,166.5Z" transform="translate(-69.936 -146.742)" fill="#455a64"/>
      <path id="Path_37138" data-name="Path 37138" d="M54.52,194.037a26.158,26.158,0,0,0,4.6-.788,18.289,18.289,0,0,0,9.175-6.022l.411-.52.055-.071h.088a10.4,10.4,0,0,0,5.419-2.08A10.949,10.949,0,0,0,77.364,181a11.655,11.655,0,0,0,1.254-4.128v.3a6.57,6.57,0,0,1-.055.876,9.262,9.262,0,0,1-.974,3.071,10.948,10.948,0,0,1-3.1,3.684,10.527,10.527,0,0,1-5.611,2.19l.148-.077-.416.547a17.518,17.518,0,0,1-4.7,4.078,18.064,18.064,0,0,1-4.713,1.987,17.035,17.035,0,0,1-3.416.547c-.405.027-.723,0-.942,0A1.138,1.138,0,0,1,54.52,194.037Z" transform="translate(-49.203 -156.144)" fill="#455a64"/>
      <path id="Path_37139" data-name="Path 37139" d="M59.49,228.314a6.623,6.623,0,0,0,.712.5,3.917,3.917,0,0,0,.969.383,4.346,4.346,0,0,0,1.418.088,3.947,3.947,0,0,0,1.642-.547,3.36,3.36,0,0,0,.761-.646,3.285,3.285,0,0,0,.547-.914,3.958,3.958,0,0,0,.181-2.327,3.7,3.7,0,0,0-1.407-2.19l-.208-.148h.257a8.025,8.025,0,0,0,4.04-1.166,10.663,10.663,0,0,0,3.285-3.241c.235-.328.422-.7.63-1.051a10.324,10.324,0,0,0,.547-1.133,11.572,11.572,0,0,0,.7-2.452,18.613,18.613,0,0,0,.115-5.326A52.3,52.3,0,0,0,72,200.357v-.071l.06-.038a19.642,19.642,0,0,0,6.2-7.023,20.885,20.885,0,0,0,1.533-3.717c.153-.608.345-1.182.438-1.752.055-.285.109-.547.159-.832s.071-.547.109-.8a19.439,19.439,0,0,0,0-4.927c-.06-.575-.181-1.007-.219-1.3-.027-.142-.044-.252-.06-.339v-.115a17.462,17.462,0,0,1,.367,1.746,18.646,18.646,0,0,1,.071,4.927c-.033.263-.044.547-.1.81s-.1.547-.153.838c-.088.575-.279,1.155-.432,1.768a20.879,20.879,0,0,1-1.522,3.755,19.707,19.707,0,0,1-6.246,7.116l.044-.109a52.142,52.142,0,0,1,1.681,7.823,18.612,18.612,0,0,1-.115,5.381,11.9,11.9,0,0,1-.717,2.5,11.047,11.047,0,0,1-.547,1.15,10.62,10.62,0,0,1-.646,1.095,10.85,10.85,0,0,1-3.378,3.285,8.157,8.157,0,0,1-4.1,1.161l.049-.148a3.832,3.832,0,0,1,1.456,2.277,4.089,4.089,0,0,1-.2,2.409,3.585,3.585,0,0,1-.586.947,3.757,3.757,0,0,1-.8.662,4.023,4.023,0,0,1-1.719.547,4.451,4.451,0,0,1-1.445-.109,4.083,4.083,0,0,1-.98-.411,2.791,2.791,0,0,1-.547-.394Z" transform="translate(-51.453 -157.307)" fill="#455a64"/>
      <path id="Path_37140" data-name="Path 37140" d="M169.6,234.217a1.144,1.144,0,0,1,.115-.082l.345-.219a6.343,6.343,0,0,0,.547-.378,8.209,8.209,0,0,0,.728-.547,13.177,13.177,0,0,0,3.553-4.637,12.891,12.891,0,0,0,1.095-3.93,11.819,11.819,0,0,0-.438-4.686,12.951,12.951,0,0,0-2.513-4.631,12.662,12.662,0,0,0-4.576-3.465l-.137-.06.109-.109a11.682,11.682,0,0,0,3.186-5.972,11.014,11.014,0,0,0,.235-2.233,10.434,10.434,0,0,0-.2-2.19,10.211,10.211,0,0,0-.624-2.075,10.883,10.883,0,0,0-.985-1.872,11.89,11.89,0,0,0-6.109-4.8l-.1-.033.044-.093a10.554,10.554,0,0,0,.69-7.2,10.308,10.308,0,0,0-2.907-4.85,10.773,10.773,0,0,0-3.082-2.047c-.394-.175-.706-.29-.92-.361l-.235-.082q-.082,0-.082-.033a7.991,7.991,0,0,1,1.259.422,10.647,10.647,0,0,1,3.137,2.025,10.357,10.357,0,0,1,2.978,4.888,10.62,10.62,0,0,1-.673,7.319l-.049-.126a12.1,12.1,0,0,1,6.235,4.834,11.319,11.319,0,0,1,1,1.91,10.667,10.667,0,0,1,.64,2.108,10.554,10.554,0,0,1,.2,2.239,11.051,11.051,0,0,1-.235,2.277,11.813,11.813,0,0,1-3.252,6.076v-.17a12.854,12.854,0,0,1,4.642,3.531,13.138,13.138,0,0,1,2.535,4.7,11.874,11.874,0,0,1,.422,4.757,13.018,13.018,0,0,1-4.8,8.611,8.7,8.7,0,0,1-.744.547,5.389,5.389,0,0,1-.547.361l-.356.208Z" transform="translate(-95.738 -156.488)" fill="#455a64"/>
      <path id="Path_37141" data-name="Path 37141" d="M129.152,222.45a19.419,19.419,0,0,1,4.467,1.215v.038a3.609,3.609,0,0,1-1.27,2.737,2.244,2.244,0,0,1-2.233.077,2.48,2.48,0,0,1-1.3-1.724,5.075,5.075,0,0,1,.339-2.343Z" transform="translate(-82.817 -176.772)" fill="#ff9a6c"/>
      <path id="Path_37142" data-name="Path 37142" d="M131.243,226.484a.74.74,0,0,1-.411.17,1.894,1.894,0,0,1-1.188-.235,2.425,2.425,0,0,1-1.15-1.374,3.739,3.739,0,0,1,0-2.19,3.086,3.086,0,0,1,.2-.58.487.487,0,0,1,.487-.219,2.745,2.745,0,0,1,.279.077l.963.268,1.642.487a5.1,5.1,0,0,1,1.467.547,4.927,4.927,0,0,1-1.56-.224l-1.642-.383-.974-.246-.23-.055v-.082c0,.016.088.082.055.066a4.332,4.332,0,0,0-.142.443,3.564,3.564,0,0,0-.027,1.9,2.19,2.19,0,0,0,.892,1.21A2.666,2.666,0,0,0,131.243,226.484Z" transform="translate(-82.609 -176.591)" fill="#263238"/>
      <path id="Path_37143" data-name="Path 37143" d="M73.915,360.135H139.19l-1.538-25.986-2.31-31.17a32.041,32.041,0,0,0-5.934-16.308l-4.965-6.908-6.137-8.211-3.777-7.4-23.435-9.58-2.9,5.978s-3.41,2.447-5.595,4.314a26.338,26.338,0,0,0-8.151,13.779.253.253,0,0,1-.038.159c-1.369,5.272-.3,12.892-.3,12.892l7.79,37.455A70.262,70.262,0,0,0,76,346.405C75.661,348.069,74.61,354.7,73.915,360.135Z" transform="translate(-57.891 -191.309)" fill="#455a64"/>
      <path id="Path_37144" data-name="Path 37144" d="M132.116,275.483a4.226,4.226,0,0,1-.547-.925l-1.308-2.639h.328c-.706,1.741-1.582,3.9-2.567,6.323l-.093.23-.241-.093-3.706-1.505c-3.832-1.555-7.253-2.994-9.733-4.056l-2.912-1.27A4.629,4.629,0,0,1,110.29,271a5.212,5.212,0,0,1,1.095.35l2.989,1.133c2.518.974,5.983,2.359,9.793,3.914l3.7,1.522-.334.137,2.71-6.268.164-.383.164.378c.46,1.095.843,1.971,1.161,2.7A4.576,4.576,0,0,1,132.116,275.483Z" transform="translate(-74.444 -198.745)" fill="#263238"/>
      <path id="Path_37145" data-name="Path 37145" d="M125.524,407.665a4.547,4.547,0,0,1-1.128-.2c-.717-.159-1.746-.432-3.005-.81a74.558,74.558,0,0,1-18.612-8.529c-1.095-.712-1.976-1.308-2.562-1.746a5.031,5.031,0,0,1-.887-.717,4.411,4.411,0,0,1,1,.547l2.644,1.6A99.979,99.979,0,0,0,112,402.552a98.7,98.7,0,0,0,9.492,3.75l2.945.964A4.926,4.926,0,0,1,125.524,407.665Z" transform="translate(-69.483 -255.164)" fill="#263238"/>
      <path id="Path_37146" data-name="Path 37146" d="M79.19,323.27s12.043,33.009,15.985,38.987,5.912,7.664,11.95,6.64,32.55-9.744,32.55-9.744l-.389-5.409-24.541,5.189-14.162-2.907-12.93-19.915Z" transform="translate(-60.369 -222.401)" opacity="0.3"/>
      <path id="Path_37147" data-name="Path 37147" d="M128.874,313.512l-1.336-2.19-6.481,1.544-9.8,2.19s-5.688-33.163-13.91-38.484-14.233-4.379-19.286,5.009-2.332,14.852-2.332,14.852,13.083,36.551,21.618,44.013,36.677-6.618,36.677-6.618l5.7-4.735Z" transform="translate(-58.469 -199.801)" fill="#455a64"/>
      <path id="Path_37148" data-name="Path 37148" d="M128.64,313.306a2.654,2.654,0,0,1,.2.252l.547.772,2.146,3.011,8.069,11.5.077.109-.1.088-5.688,4.73h0a118.251,118.251,0,0,1-15.076,6.131,65.373,65.373,0,0,1-9.071,2.277,33.035,33.035,0,0,1-4.927.46,15.156,15.156,0,0,1-5.1-.706,7.946,7.946,0,0,1-1.221-.52l-.591-.318c-.186-.126-.361-.263-.547-.4a5.7,5.7,0,0,1-.98-.9l-.931-.969c-.547-.679-1.095-1.418-1.642-2.129s-.985-1.505-1.489-2.261a104.445,104.445,0,0,1-5.283-9.777c-3.285-6.8-6.317-14.069-9.24-21.59-.881-2.283-1.741-4.544-2.54-6.755v.027a12.848,12.848,0,0,1-.635-6.273,23.035,23.035,0,0,1,1.642-5.945,29.808,29.808,0,0,1,2.852-5.332,15.574,15.574,0,0,1,4.089-4.308,9.065,9.065,0,0,1,5.6-1.582,14.815,14.815,0,0,1,5.474,1.56c.821.432,1.642.854,2.409,1.352a9.155,9.155,0,0,1,2.146,1.713,21.349,21.349,0,0,1,2.918,4.407,63.976,63.976,0,0,1,3.673,9.224c.98,3.011,1.8,5.929,2.513,8.715,1.423,5.578,2.458,10.615,3.224,14.972l-.181-.115,10.012-2.19,6.328-1.451h.044v.033l.98,1.642c.214.367.307.547.307.547a6.521,6.521,0,0,1-.356-.547l-1.029-1.642h.06l-6.268,1.544-10,2.277-.148.038-.033-.159c-.794-4.336-1.861-9.366-3.285-14.923-.723-2.781-1.555-5.688-2.546-8.682a63.771,63.771,0,0,0-3.712-9.126,21.147,21.147,0,0,0-2.858-4.3,8.792,8.792,0,0,0-2.053-1.642c-.761-.487-1.566-.9-2.37-1.325a14.421,14.421,0,0,0-5.272-1.5,8.567,8.567,0,0,0-5.294,1.511A14.987,14.987,0,0,0,79.542,279a29.468,29.468,0,0,0-2.8,5.239,22.746,22.746,0,0,0-1.582,5.814,12.432,12.432,0,0,0,.591,5.983v.027c.794,2.19,1.642,4.467,2.535,6.744,2.918,7.511,5.929,14.78,9.213,21.557A103.237,103.237,0,0,0,92.74,334.1c.493.75.936,1.533,1.467,2.244s1.035,1.429,1.6,2.1l.892.936a5.608,5.608,0,0,0,.936.87c.17.126.334.257.5.372l.547.3a7.745,7.745,0,0,0,1.155.5,14.884,14.884,0,0,0,4.927.69,32.419,32.419,0,0,0,4.867-.443,63.576,63.576,0,0,0,9.011-2.234,118.245,118.245,0,0,0,15.049-6.022h-.033l5.731-4.626-.027.2c-3.416-4.965-6.1-8.874-7.954-11.556l-2.08-3.055c-.224-.339-.394-.6-.547-.788A1.774,1.774,0,0,1,128.64,313.306Z" transform="translate(-58.235 -199.595)" fill="#263238"/>
      <path id="Path_37149" data-name="Path 37149" d="M132.629,366.282a9.03,9.03,0,0,1-.153-2.567,26.976,26.976,0,0,1,.9-6.153,27.29,27.29,0,0,1,2.261-5.792,9.529,9.529,0,0,1,1.4-2.19,18.7,18.7,0,0,1-1.062,2.327,35.036,35.036,0,0,0-2.091,5.77,35.582,35.582,0,0,0-1.035,6.022A20.248,20.248,0,0,1,132.629,366.282Z" transform="translate(-84.482 -234.309)" fill="#263238"/>
      <path id="Path_37150" data-name="Path 37150" d="M172.524,366.648A4.249,4.249,0,0,1,171.8,366c-.438-.443-1.051-1.095-1.79-1.938a57.8,57.8,0,0,1-5.261-6.93,36.091,36.091,0,0,1-3.832-7.806,21.052,21.052,0,0,1-.706-2.54,3.508,3.508,0,0,1-.142-.953c.093,0,.416,1.308,1.2,3.367a43.158,43.158,0,0,0,3.92,7.664,78.447,78.447,0,0,0,5.1,6.974A33.445,33.445,0,0,1,172.524,366.648Z" transform="translate(-96.973 -232.612)" fill="#263238"/>
      <path id="Path_37151" data-name="Path 37151" d="M201.278,326.69l7.571-2.19,9.4-3.547,7.456-4.045s.651-.646-.263-1.451-4.971,1.445-4.971,1.445l-3.208,1.193s-2.71.224-2.562-.027,4.352-2.288,4.352-2.288l7.166-3.9s2.025-1.046,1.4-2.387c-.3-.641-1.04-1.018-2.42-.487s-3.542,1.889-4.319,2.19-5.2,2.3-5.2,2.3l9.169-6.284s2.989-1.779,2.031-3.044-2.775.131-3.832.547-6.8,4.084-9.049,5.1c-1.927.876-1.462.148-1.462.148l5.474-3.361c2.4-1.483,4.221-2.956,2.66-3.93-1.018-.641-5.628,1.817-5.628,1.817l-6.815,3.81-3.241,1.434,2.7-2.42a9.142,9.142,0,0,0,2.951-3.679c.947-2.337-.969-2.414-.969-2.414l-11.091,7.587c-1.73,1.505-3.761,8.759-3.761,8.759l-21.4,8.244,9.1,13.138Z" transform="translate(-103.015 -212.427)" fill="#ffbf9d"/>
      <path id="Path_37152" data-name="Path 37152" d="M201.138,326.586l-.318.219-.947.635-3.668,2.425-13.784,9.087-.071.049-.044-.071-9.12-13.138-.077-.11.126-.049,21.388-8.261-.077.082c.422-1.456.9-2.951,1.473-4.461.285-.75.591-1.511.947-2.255a7.478,7.478,0,0,1,1.38-2.113h0L209.453,301h.082a1.642,1.642,0,0,1,.947.389,1.325,1.325,0,0,1,.411.953,4.106,4.106,0,0,1-.58,1.932,9.377,9.377,0,0,1-2.688,3.076h0l-2.682,2.409-.153-.235,3.241-1.434h0l5.748-3.208a30.232,30.232,0,0,1,3.027-1.544c.547-.23,1.051-.449,1.6-.635a5.319,5.319,0,0,1,1.73-.35.974.974,0,0,1,.443.115,1.94,1.94,0,0,1,.339.263.969.969,0,0,1,.318.821,1.642,1.642,0,0,1-.345.777,4.107,4.107,0,0,1-.547.6,17.308,17.308,0,0,1-2.573,1.828l-5.3,3.246.044-.044c-.2.126.29.055.547-.066a8.827,8.827,0,0,0,.942-.4c.613-.3,1.215-.63,1.812-.969,1.2-.673,2.37-1.369,3.536-2.064l1.746-1.029a19.219,19.219,0,0,1,1.79-.958c.6-.252,1.177-.613,1.817-.838a2.705,2.705,0,0,1,1.029-.186,1.385,1.385,0,0,1,.963.443,1.1,1.1,0,0,1,.29,1.029,2.261,2.261,0,0,1-.509.9,7.056,7.056,0,0,1-1.516,1.286c-1.095.723-2.135,1.456-3.191,2.19l-6.2,4.248-.126-.23,4.051-1.79a21.237,21.237,0,0,0,1.954-.914l1.883-1.024a12.958,12.958,0,0,1,1.943-.881,2.96,2.96,0,0,1,1.095-.148,1.434,1.434,0,0,1,1,.482,1.407,1.407,0,0,1,.323,1.051,1.807,1.807,0,0,1-.476.963,4.245,4.245,0,0,1-.8.679c-.3.192-.6.334-.892.5-2.354,1.27-4.62,2.524-6.837,3.7-1.128.547-2.228,1.095-3.285,1.642a6.641,6.641,0,0,0-.734.443v-.027a.06.06,0,0,0,0-.049h.723c.586,0,1.171-.044,1.746-.088H217.1l3.213-1.193h0a17.79,17.79,0,0,1,3.328-1.44,5.156,5.156,0,0,1,.865-.175,1.226,1.226,0,0,1,.881.186,1.505,1.505,0,0,1,.5.728.931.931,0,0,1-.224.859h0l-7.467,4.029h0l-9.41,3.525h0l-5.66,1.6-1.44.405-.487.126.476-.153,1.429-.427,5.649-1.642h0l9.388-3.569h0l7.45-4.056h0a.733.733,0,0,0,.175-.679,1.324,1.324,0,0,0-.438-.635,1.045,1.045,0,0,0-.744-.137,5.1,5.1,0,0,0-.832.17,18.169,18.169,0,0,0-3.284,1.429h0l-3.213,1.2h0c-.58.044-1.166.082-1.763.088h-.449a1.814,1.814,0,0,1-.235,0,.372.372,0,0,1-.137-.038l-.049-.033a.148.148,0,0,1-.044-.1c0-.1.038-.093.055-.115a5.414,5.414,0,0,1,.8-.5c1.068-.547,2.19-1.095,3.285-1.67,2.19-1.171,4.472-2.431,6.826-3.706.29-.164.6-.312.87-.487a3.6,3.6,0,0,0,.744-.635,1.555,1.555,0,0,0,.422-.832,1.182,1.182,0,0,0-.268-.865,1.166,1.166,0,0,0-.827-.394,2.787,2.787,0,0,0-.985.137,12.827,12.827,0,0,0-1.9.87l-1.878,1.024c-.63.361-1.319.624-1.976.925l-4.04,1.8-.131-.224,6.2-4.259c1.057-.717,2.113-1.456,3.191-2.19a7.176,7.176,0,0,0,1.456-1.237,2.042,2.042,0,0,0,.449-.788.794.794,0,0,0-.224-.777,1.474,1.474,0,0,0-1.7-.186c-.6.23-1.171.547-1.806.832-1.182.547-2.332,1.3-3.5,1.971s-2.337,1.4-3.536,2.069c-.6.339-1.2.673-1.834.98a9.528,9.528,0,0,1-.969.411,2.6,2.6,0,0,1-.547.137.454.454,0,0,1-.361-.071.257.257,0,0,1-.082-.241.476.476,0,0,1,.066-.181h.033l5.266-3.257a17.645,17.645,0,0,0,2.535-1.8,4.125,4.125,0,0,0,.515-.547,1.265,1.265,0,0,0,.29-.635.679.679,0,0,0-.235-.591,1.747,1.747,0,0,0-.279-.219.717.717,0,0,0-.378-.027,5.048,5.048,0,0,0-1.642.339,16.556,16.556,0,0,0-1.577.624,30.333,30.333,0,0,0-3.005,1.527l-5.748,3.213h0l-3.252,1.412-.816.361.662-.591,2.7-2.42h0a9.225,9.225,0,0,0,2.606-2.978,3.915,3.915,0,0,0,.547-1.79,1.045,1.045,0,0,0-.323-.761,1.34,1.34,0,0,0-.772-.312l.082-.027-11.1,7.587h0a7.482,7.482,0,0,0-1.314,2.031c-.35.734-.657,1.483-.942,2.233-.547,1.5-1.051,2.994-1.467,4.434v.066h-.06l-21.4,8.211.049-.159,9.082,13.176-.115-.027,13.839-9.022,3.684-2.392.953-.613Z" transform="translate(-102.875 -212.322)" fill="#ff9a6c"/>
    </g>
  </g>
</svg>
