<svg xmlns="http://www.w3.org/2000/svg" width="251.204" height="226.299" viewBox="0 0 251.204 226.299">
  <g id="Tax-exepetions" transform="translate(-12.508 -39.35)">
    <g id="freepik--Floor--inject-105" transform="translate(30.741 243.542)">
      <line id="Line_648" data-name="Line 648" x2="232.472" fill="none" stroke="#263238" stroke-linecap="round" stroke-miterlimit="10" stroke-width="1"/>
    </g>
    <g id="freepik--Calendar--inject-105" transform="translate(166.794 50.015)">
      <rect id="Rectangle_5325" data-name="Rectangle 5325" width="81.187" height="84.356" transform="translate(0 6.339)" fill="#fff" stroke="#263238" stroke-linecap="round" stroke-miterlimit="10" stroke-width="1"/>
      <rect id="Rectangle_5326" data-name="Rectangle 5326" width="81.187" height="16.236" transform="translate(0 6.339)" fill="#f8951d" stroke="#263238" stroke-linecap="round" stroke-miterlimit="10" stroke-width="1"/>
      <rect id="Rectangle_5327" data-name="Rectangle 5327" width="9.294" height="9.294" transform="translate(4.751 32.874)" fill="#fff" stroke="#263238" stroke-linecap="round" stroke-miterlimit="10" stroke-width="1"/>
      <rect id="Rectangle_5328" data-name="Rectangle 5328" width="9.294" height="9.294" transform="translate(17.391 32.874)" fill="#fff" stroke="#263238" stroke-linecap="round" stroke-miterlimit="10" stroke-width="1"/>
      <rect id="Rectangle_5329" data-name="Rectangle 5329" width="9.294" height="9.294" transform="translate(30.025 32.874)" fill="#fff" stroke="#263238" stroke-linecap="round" stroke-miterlimit="10" stroke-width="1"/>
      <rect id="Rectangle_5330" data-name="Rectangle 5330" width="9.294" height="9.294" transform="translate(42.659 32.874)" fill="#fff" stroke="#263238" stroke-linecap="round" stroke-miterlimit="10" stroke-width="1"/>
      <rect id="Rectangle_5331" data-name="Rectangle 5331" width="9.294" height="9.294" transform="translate(55.299 32.874)" fill="#fff" stroke="#263238" stroke-linecap="round" stroke-miterlimit="10" stroke-width="1"/>
      <rect id="Rectangle_5332" data-name="Rectangle 5332" width="9.294" height="9.294" transform="translate(67.933 32.874)" fill="#fff" stroke="#263238" stroke-linecap="round" stroke-miterlimit="10" stroke-width="1"/>
      <rect id="Rectangle_5333" data-name="Rectangle 5333" width="9.294" height="9.294" transform="translate(4.751 45.652)" fill="#fff" stroke="#263238" stroke-linecap="round" stroke-miterlimit="10" stroke-width="1"/>
      <rect id="Rectangle_5334" data-name="Rectangle 5334" width="9.294" height="9.294" transform="translate(17.391 45.652)" fill="#fff" stroke="#263238" stroke-linecap="round" stroke-miterlimit="10" stroke-width="1"/>
      <rect id="Rectangle_5335" data-name="Rectangle 5335" width="9.294" height="9.294" transform="translate(30.025 45.652)" fill="#fff" stroke="#263238" stroke-linecap="round" stroke-miterlimit="10" stroke-width="1"/>
      <rect id="Rectangle_5336" data-name="Rectangle 5336" width="9.294" height="9.294" transform="translate(42.659 45.652)" fill="#fff" stroke="#263238" stroke-linecap="round" stroke-miterlimit="10" stroke-width="1"/>
      <rect id="Rectangle_5337" data-name="Rectangle 5337" width="9.294" height="9.294" transform="translate(55.299 45.652)" fill="#fff" stroke="#263238" stroke-linecap="round" stroke-miterlimit="10" stroke-width="1"/>
      <rect id="Rectangle_5338" data-name="Rectangle 5338" width="9.294" height="9.294" transform="translate(67.933 45.652)" fill="#fff" stroke="#263238" stroke-linecap="round" stroke-miterlimit="10" stroke-width="1"/>
      <rect id="Rectangle_5339" data-name="Rectangle 5339" width="9.294" height="9.294" transform="translate(4.751 58.431)" fill="#fff" stroke="#263238" stroke-linecap="round" stroke-miterlimit="10" stroke-width="1"/>
      <rect id="Rectangle_5340" data-name="Rectangle 5340" width="9.294" height="9.294" transform="translate(17.391 58.431)" fill="#fff" stroke="#263238" stroke-linecap="round" stroke-miterlimit="10" stroke-width="1"/>
      <rect id="Rectangle_5341" data-name="Rectangle 5341" width="9.294" height="9.294" transform="translate(30.025 58.431)" fill="#fff" stroke="#263238" stroke-linecap="round" stroke-miterlimit="10" stroke-width="1"/>
      <rect id="Rectangle_5342" data-name="Rectangle 5342" width="9.294" height="9.294" transform="translate(42.659 58.431)" fill="#fff" stroke="#263238" stroke-linecap="round" stroke-miterlimit="10" stroke-width="1"/>
      <rect id="Rectangle_5343" data-name="Rectangle 5343" width="9.294" height="9.294" transform="translate(55.299 58.431)" fill="#fff" stroke="#263238" stroke-linecap="round" stroke-miterlimit="10" stroke-width="1"/>
      <rect id="Rectangle_5344" data-name="Rectangle 5344" width="9.294" height="9.294" transform="translate(67.933 58.431)" fill="#fff" stroke="#263238" stroke-linecap="round" stroke-miterlimit="10" stroke-width="1"/>
      <rect id="Rectangle_5345" data-name="Rectangle 5345" width="9.294" height="9.294" transform="translate(4.751 71.215)" fill="#fff" stroke="#263238" stroke-linecap="round" stroke-miterlimit="10" stroke-width="1"/>
      <rect id="Rectangle_5346" data-name="Rectangle 5346" width="9.294" height="9.294" transform="translate(17.391 71.215)" fill="#fff" stroke="#263238" stroke-linecap="round" stroke-miterlimit="10" stroke-width="1"/>
      <rect id="Rectangle_5347" data-name="Rectangle 5347" width="9.294" height="9.294" transform="translate(30.025 71.215)" fill="#fff" stroke="#263238" stroke-linecap="round" stroke-miterlimit="10" stroke-width="1"/>
      <rect id="Rectangle_5348" data-name="Rectangle 5348" width="9.294" height="9.294" transform="translate(42.659 71.215)" fill="#fff" stroke="#263238" stroke-linecap="round" stroke-miterlimit="10" stroke-width="1"/>
      <rect id="Rectangle_5349" data-name="Rectangle 5349" width="9.294" height="9.294" transform="translate(55.299 71.215)" fill="#fff" stroke="#263238" stroke-linecap="round" stroke-miterlimit="10" stroke-width="1"/>
      <rect id="Rectangle_5350" data-name="Rectangle 5350" width="9.294" height="9.294" transform="translate(67.933 71.215)" fill="#fff" stroke="#263238" stroke-linecap="round" stroke-miterlimit="10" stroke-width="1"/>
      <path id="Path_34354" data-name="Path 34354" d="M312.882,69.564h0a1.186,1.186,0,0,1-1.192-1.186V60.062a1.192,1.192,0,0,1,1.192-1.192h0a1.186,1.186,0,0,1,1.186,1.192v8.316a1.181,1.181,0,0,1-1.186,1.186Z" transform="translate(-305.752 -58.87)" fill="#fff" stroke="#263238" stroke-linecap="round" stroke-miterlimit="10" stroke-width="1"/>
      <path id="Path_34355" data-name="Path 34355" d="M321.776,69.564h0a1.181,1.181,0,0,1-1.186-1.186V60.062a1.186,1.186,0,0,1,1.186-1.192h0a1.186,1.186,0,0,1,1.17,1.192v8.316A1.181,1.181,0,0,1,321.776,69.564Z" transform="translate(-309.896 -58.87)" fill="#fff" stroke="#263238" stroke-linecap="round" stroke-miterlimit="10" stroke-width="1"/>
      <path id="Path_34356" data-name="Path 34356" d="M330.666,69.564h0a1.181,1.181,0,0,1-1.186-1.186V60.062a1.186,1.186,0,0,1,1.186-1.192h0a1.186,1.186,0,0,1,1.186,1.192v8.316a1.181,1.181,0,0,1-1.186,1.186Z" transform="translate(-314.035 -58.87)" fill="#fff" stroke="#263238" stroke-linecap="round" stroke-miterlimit="10" stroke-width="1"/>
      <path id="Path_34357" data-name="Path 34357" d="M339.556,69.564h0a1.186,1.186,0,0,1-1.186-1.186V60.062a1.192,1.192,0,0,1,1.186-1.192h0a1.192,1.192,0,0,1,1.192,1.192v8.316a1.186,1.186,0,0,1-1.192,1.186Z" transform="translate(-318.173 -58.87)" fill="#fff" stroke="#263238" stroke-linecap="round" stroke-miterlimit="10" stroke-width="1"/>
      <path id="Path_34358" data-name="Path 34358" d="M348.452,69.564h0a1.186,1.186,0,0,1-1.192-1.186V60.062a1.192,1.192,0,0,1,1.192-1.192h0a1.192,1.192,0,0,1,1.186,1.192v8.316a1.186,1.186,0,0,1-1.186,1.186Z" transform="translate(-322.312 -58.87)" fill="#fff" stroke="#263238" stroke-linecap="round" stroke-miterlimit="10" stroke-width="1"/>
      <path id="Path_34359" data-name="Path 34359" d="M357.346,69.564h0a1.181,1.181,0,0,1-1.186-1.186V60.062a1.186,1.186,0,0,1,1.186-1.192h0a1.186,1.186,0,0,1,1.186,1.192v8.316a1.181,1.181,0,0,1-1.186,1.186Z" transform="translate(-326.456 -58.87)" fill="#fff" stroke="#263238" stroke-linecap="round" stroke-miterlimit="10" stroke-width="1"/>
      <path id="Path_34360" data-name="Path 34360" d="M366.236,69.564h0a1.181,1.181,0,0,1-1.186-1.186V60.062a1.186,1.186,0,0,1,1.186-1.192h0a1.186,1.186,0,0,1,1.186,1.192v8.316a1.181,1.181,0,0,1-1.186,1.186Z" transform="translate(-330.595 -58.87)" fill="#fff" stroke="#263238" stroke-linecap="round" stroke-miterlimit="10" stroke-width="1"/>
      <rect id="Rectangle_5351" data-name="Rectangle 5351" width="2.378" height="10.694" rx="1.189" transform="translate(39.207 0)" fill="#fff" stroke="#263238" stroke-linecap="round" stroke-miterlimit="10" stroke-width="1"/>
      <path id="Path_34361" data-name="Path 34361" d="M384.022,69.564h0a1.186,1.186,0,0,1-1.192-1.186V60.062a1.192,1.192,0,0,1,1.192-1.192h0a1.192,1.192,0,0,1,1.186,1.192v8.316a1.186,1.186,0,0,1-1.186,1.186Z" transform="translate(-338.872 -58.87)" fill="#fff" stroke="#263238" stroke-linecap="round" stroke-miterlimit="10" stroke-width="1"/>
      <path id="Path_34362" data-name="Path 34362" d="M392.966,69.564h0a1.181,1.181,0,0,1-1.186-1.186V60.062a1.187,1.187,0,0,1,1.186-1.192h0a1.186,1.186,0,0,1,1.186,1.192v8.316a1.181,1.181,0,0,1-1.186,1.186Z" transform="translate(-343.039 -58.87)" fill="#fff" stroke="#263238" stroke-linecap="round" stroke-miterlimit="10" stroke-width="1"/>
      <path id="Path_34363" data-name="Path 34363" d="M401.806,69.564h0a1.181,1.181,0,0,1-1.186-1.186V60.062a1.186,1.186,0,0,1,1.186-1.192h0a1.186,1.186,0,0,1,1.186,1.192v8.316a1.181,1.181,0,0,1-1.186,1.186Z" transform="translate(-347.154 -58.87)" fill="#fff" stroke="#263238" stroke-linecap="round" stroke-miterlimit="10" stroke-width="1"/>
      <path id="Path_34364" data-name="Path 34364" d="M410.7,69.564h0a1.181,1.181,0,0,1-1.186-1.186V60.062A1.186,1.186,0,0,1,410.7,58.87h0a1.192,1.192,0,0,1,1.213,1.192v8.316a1.186,1.186,0,0,1-1.213,1.186Z" transform="translate(-351.293 -58.87)" fill="#fff" stroke="#263238" stroke-linecap="round" stroke-miterlimit="10" stroke-width="1"/>
      <path id="Path_34365" data-name="Path 34365" d="M419.586,69.564h0a1.186,1.186,0,0,1-1.186-1.186V60.062a1.192,1.192,0,0,1,1.186-1.192h0a1.192,1.192,0,0,1,1.192,1.192v8.316a1.186,1.186,0,0,1-1.192,1.186Z" transform="translate(-355.432 -58.87)" fill="#fff" stroke="#263238" stroke-linecap="round" stroke-miterlimit="10" stroke-width="1"/>
      <path id="Path_34366" data-name="Path 34366" d="M428.482,69.564h0a1.187,1.187,0,0,1-1.192-1.186V60.062a1.192,1.192,0,0,1,1.192-1.192h0a1.186,1.186,0,0,1,1.186,1.192v8.316a1.181,1.181,0,0,1-1.186,1.186Z" transform="translate(-359.571 -58.87)" fill="#fff" stroke="#263238" stroke-linecap="round" stroke-miterlimit="10" stroke-width="1"/>
      <path id="Path_34367" data-name="Path 34367" d="M437.376,69.564h0a1.181,1.181,0,0,1-1.186-1.186V60.062a1.186,1.186,0,0,1,1.186-1.192h0a1.186,1.186,0,0,1,1.186,1.192v8.316a1.181,1.181,0,0,1-1.186,1.186Z" transform="translate(-363.714 -58.87)" fill="#fff" stroke="#263238" stroke-linecap="round" stroke-miterlimit="10" stroke-width="1"/>
    </g>
    <g id="freepik--Money--inject-105" transform="translate(13.213 39.85)">
      <rect id="Rectangle_5352" data-name="Rectangle 5352" width="63.844" height="119.544" transform="translate(61.15)" fill="#fff" stroke="#263238" stroke-linecap="round" stroke-miterlimit="10" stroke-width="1"/>
      <path id="Path_34368" data-name="Path 34368" d="M141.581,59.1a4.689,4.689,0,0,1-.481,0v93.367a3.526,3.526,0,0,1,.481,0,4.66,4.66,0,0,1,4.521,5.943h39.923a4.66,4.66,0,0,1,4.5-5.948V59.1a4.682,4.682,0,0,1-4.682-4.682H146.295a4.682,4.682,0,0,1-4.714,4.682ZM165.8,89.164a17.267,17.267,0,1,0,.021,0Z" transform="translate(-72.752 -46.633)" fill="#f8951d" stroke="#263238" stroke-linecap="round" stroke-miterlimit="10" stroke-width="1"/>
      <rect id="Rectangle_5353" data-name="Rectangle 5353" width="63.844" height="119.544" transform="translate(31.561 20.694) rotate(-15.77)" fill="#fff" stroke="#263238" stroke-linecap="round" stroke-miterlimit="10" stroke-width="1"/>
      <path id="Path_34369" data-name="Path 34369" d="M92.07,82.719c-.16.043-.315.075-.47.107L116.981,172.7a4.221,4.221,0,0,1,.46-.155,4.682,4.682,0,0,1,5.777,3.207,4.81,4.81,0,0,1,.171,1.272l38.437-10.828a4.575,4.575,0,0,1-.534-1.176,4.682,4.682,0,0,1,3.233-5.777l-25.37-89.824a4.676,4.676,0,0,1-5.777-3.207L95.3,76.942a4.682,4.682,0,0,1-3.228,5.777Zm31.479,22.345a17.241,17.241,0,1,1-11.907,21.276A17.241,17.241,0,0,1,123.549,105.064Z" transform="translate(-49.706 -52.122)" fill="#f8951d" stroke="#263238" stroke-linecap="round" stroke-miterlimit="10" stroke-width="1"/>
      <rect id="Rectangle_5354" data-name="Rectangle 5354" width="63.844" height="119.544" transform="translate(15.624 38.419) rotate(-26.17)" fill="#fff" stroke="#263238" stroke-linecap="round" stroke-miterlimit="10" stroke-width="1"/>
      <path id="Path_34370" data-name="Path 34370" d="M65.274,105.686a4.632,4.632,0,0,1-.444.192l41.189,83.811c.134-.08.278-.16.422-.23a4.676,4.676,0,0,1,6.264,2.138,4.526,4.526,0,0,1,.4,1.219l35.808-17.6a4.966,4.966,0,0,1-.722-1.069,4.682,4.682,0,0,1,2.138-6.264L109.189,84.138A4.687,4.687,0,0,1,102.92,82L67.411,99.423a4.671,4.671,0,0,1-2.138,6.264Zm35,16.3A17.241,17.241,0,1,1,92.4,145.064a17.241,17.241,0,0,1,7.872-23.077Z" transform="translate(-37.243 -59.473)" fill="#f8951d" stroke="#263238" stroke-linecap="round" stroke-miterlimit="10" stroke-width="1"/>
      <rect id="Rectangle_5355" data-name="Rectangle 5355" width="63.844" height="119.544" transform="translate(0 65.577) rotate(-39.84)" fill="#fff" stroke="#263238" stroke-linecap="round" stroke-miterlimit="10" stroke-width="1"/>
      <path id="Path_34371" data-name="Path 34371" d="M38.885,143.394a3.279,3.279,0,0,1-.385.289l59.858,71.706a3.487,3.487,0,0,1,.353-.331,4.687,4.687,0,0,1,7.268,1.683l30.65-25.578a4.5,4.5,0,0,1-.951-.86,4.676,4.676,0,0,1,.6-6.59L76.451,112.049a4.682,4.682,0,0,1-6.6-.6L39.478,136.8a4.687,4.687,0,0,1-.593,6.6Zm37.86,7.562a17.241,17.241,0,1,1-2.191,24.285,17.241,17.241,0,0,1,2.191-24.285Z" transform="translate(-24.985 -73.184)" fill="#f8951d" stroke="#263238" stroke-linecap="round" stroke-miterlimit="10" stroke-width="1"/>
    </g>
    <g id="freepik--Tax--inject-105" transform="translate(98.754 103.299)">
      <rect id="Rectangle_5356" data-name="Rectangle 5356" width="112.548" height="154.897" fill="#fff" stroke="#263238" stroke-linecap="round" stroke-miterlimit="10" stroke-width="1"/>
      <rect id="Rectangle_5357" data-name="Rectangle 5357" width="68.419" height="44.968" fill="#263238" stroke="#263238" stroke-linecap="round" stroke-miterlimit="10" stroke-width="1"/>
      <path id="Path_34372" data-name="Path 34372" d="M193.116,198.827V175.964H188.91V172.41h13.174v3.554h-4.142v22.863Z" transform="translate(-180.551 -165.013)" fill="#fff"/>
      <path id="Path_34373" data-name="Path 34373" d="M214.36,198.827l5.28-26.417H224.8l5.28,26.417H225.61l-1.042-6.1h-4.6l-1.069,6.1Zm6.1-9.166h3.586l-1.79-11.09Z" transform="translate(-192.4 -165.013)" fill="#fff"/>
      <path id="Path_34374" data-name="Path 34374" d="M245.36,198.827l5.318-14.024L245.52,172.41h4.505l3.42,8.182,3-8.182h4.174l-5.088,13.308,5.478,13.11h-4.5l-3.741-8.872-3.26,8.872Z" transform="translate(-206.832 -165.013)" fill="#fff"/>
      <line id="Line_649" data-name="Line 649" x2="9.802" transform="translate(96.52 62.786)" fill="none" stroke="#263238" stroke-linecap="round" stroke-miterlimit="10" stroke-width="1"/>
      <line id="Line_650" data-name="Line 650" x2="13.559" transform="translate(81.331 62.786)" fill="none" stroke="#263238" stroke-linecap="round" stroke-miterlimit="10" stroke-width="1"/>
      <line id="Line_651" data-name="Line 651" x2="25.803" transform="translate(53.241 62.786)" fill="none" stroke="#263238" stroke-linecap="round" stroke-miterlimit="10" stroke-width="1"/>
      <line id="Line_652" data-name="Line 652" x2="35.444" transform="translate(16.167 62.786)" fill="none" stroke="#263238" stroke-linecap="round" stroke-miterlimit="10" stroke-width="1"/>
      <line id="Line_653" data-name="Line 653" x2="7.402" transform="translate(6.809 62.786)" fill="none" stroke="#263238" stroke-linecap="round" stroke-miterlimit="10" stroke-width="1"/>
      <line id="Line_654" data-name="Line 654" x2="22.051" transform="translate(84.271 70.188)" fill="none" stroke="#263238" stroke-linecap="round" stroke-miterlimit="10" stroke-width="1"/>
      <line id="Line_655" data-name="Line 655" x2="38.87" transform="translate(43.445 70.188)" fill="none" stroke="#263238" stroke-linecap="round" stroke-miterlimit="10" stroke-width="1"/>
      <line id="Line_656" data-name="Line 656" x2="15.846" transform="translate(24.985 70.188)" fill="none" stroke="#263238" stroke-linecap="round" stroke-miterlimit="10" stroke-width="1"/>
      <line id="Line_657" data-name="Line 657" x2="15.568" transform="translate(6.809 70.188)" fill="none" stroke="#263238" stroke-linecap="round" stroke-miterlimit="10" stroke-width="1"/>
      <line id="Line_658" data-name="Line 658" x2="47.688" transform="translate(58.634 77.596)" fill="none" stroke="#263238" stroke-linecap="round" stroke-miterlimit="10" stroke-width="1"/>
      <line id="Line_659" data-name="Line 659" x2="15.932" transform="translate(40.34 77.596)" fill="none" stroke="#263238" stroke-linecap="round" stroke-miterlimit="10" stroke-width="1"/>
      <line id="Line_660" data-name="Line 660" x2="21.928" transform="translate(16.942 77.596)" fill="none" stroke="#263238" stroke-linecap="round" stroke-miterlimit="10" stroke-width="1"/>
      <line id="Line_661" data-name="Line 661" x2="8.706" transform="translate(6.809 77.596)" fill="none" stroke="#263238" stroke-linecap="round" stroke-miterlimit="10" stroke-width="1"/>
      <rect id="Rectangle_5358" data-name="Rectangle 5358" width="99.513" height="63.973" transform="translate(6.216 83.517)" fill="none" stroke="#263238" stroke-linecap="round" stroke-miterlimit="10" stroke-width="1"/>
      <line id="Line_662" data-name="Line 662" x2="72.444" transform="translate(32.991 95.66)" fill="none" stroke="#263238" stroke-linecap="round" stroke-miterlimit="10" stroke-width="1"/>
      <line id="Line_663" data-name="Line 663" x2="24.023" transform="translate(6.515 95.66)" fill="none" stroke="#263238" stroke-linecap="round" stroke-miterlimit="10" stroke-width="1"/>
      <line id="Line_664" data-name="Line 664" x2="98.92" transform="translate(6.515 104.248)" fill="none" stroke="#263238" stroke-linecap="round" stroke-miterlimit="10" stroke-width="1"/>
      <line id="Line_665" data-name="Line 665" x2="13.158" transform="translate(92.277 112.842)" fill="none" stroke="#263238" stroke-linecap="round" stroke-miterlimit="10" stroke-width="1"/>
      <line id="Line_666" data-name="Line 666" x2="84.618" transform="translate(6.515 112.842)" fill="none" stroke="#263238" stroke-linecap="round" stroke-miterlimit="10" stroke-width="1"/>
      <line id="Line_667" data-name="Line 667" x2="58.398" transform="translate(47.036 121.431)" fill="none" stroke="#263238" stroke-linecap="round" stroke-miterlimit="10" stroke-width="1"/>
      <line id="Line_668" data-name="Line 668" x2="39.052" transform="translate(6.515 121.431)" fill="none" stroke="#263238" stroke-linecap="round" stroke-miterlimit="10" stroke-width="1"/>
      <line id="Line_669" data-name="Line 669" x2="74.897" transform="translate(30.538 130.019)" fill="none" stroke="#263238" stroke-linecap="round" stroke-miterlimit="10" stroke-width="1"/>
      <line id="Line_670" data-name="Line 670" x2="20.923" transform="translate(6.515 130.019)" fill="none" stroke="#263238" stroke-linecap="round" stroke-miterlimit="10" stroke-width="1"/>
      <line id="Line_671" data-name="Line 671" x2="56.603" transform="translate(48.832 138.608)" fill="none" stroke="#263238" stroke-linecap="round" stroke-miterlimit="10" stroke-width="1"/>
      <line id="Line_672" data-name="Line 672" x2="40.356" transform="translate(6.515 138.608)" fill="none" stroke="#263238" stroke-linecap="round" stroke-miterlimit="10" stroke-width="1"/>
      <line id="Line_673" data-name="Line 673" y2="10.496" transform="translate(83.817 136.7)" fill="none" stroke="#263238" stroke-linecap="round" stroke-miterlimit="10" stroke-width="1"/>
      <line id="Line_674" data-name="Line 674" y2="43.605" transform="translate(83.817 91.299)" fill="none" stroke="#263238" stroke-linecap="round" stroke-miterlimit="10" stroke-width="1"/>
      <line id="Line_675" data-name="Line 675" y2="4.414" transform="translate(83.817 84.111)" fill="none" stroke="#263238" stroke-linecap="round" stroke-miterlimit="10" stroke-width="1"/>
    </g>
    <g id="freepik--Character--inject-105" transform="translate(149.934 118.646)">
      <path id="Path_34375" data-name="Path 34375" d="M373.251,450.05l-1.924,1.422s-3.346,1.357-3.848,1.641-1.352.358-1.138,1,1.641.641,3.351.78a13.505,13.505,0,0,0,4.062-.283c1.855-.283,3.276.214,3.987-.144s.786,0,.93-.855a15.072,15.072,0,0,0,.139-1.993Z" transform="translate(-314.32 -309.617)" fill="#fff" stroke="#263238" stroke-linecap="round" stroke-miterlimit="10" stroke-width="1"/>
      <path id="Path_34376" data-name="Path 34376" d="M377.742,456.848c.716-.353.786,0,.93-.855.043-.262.069-.534.091-.823a8.721,8.721,0,0,1-2.87.754c-1.357,0-1.924.358-5.061.572a19.316,19.316,0,0,1-4.516-.251.534.534,0,0,0,.027.251c.214.641,1.641.641,3.351.78a13.5,13.5,0,0,0,4.062-.283C375.61,456.709,377.031,457.217,377.742,456.848Z" transform="translate(-314.322 -312.001)" fill="#fff" stroke="#263238" stroke-linecap="round" stroke-miterlimit="10" stroke-width="1"/>
      <path id="Path_34377" data-name="Path 34377" d="M440.222,448.122s-.428.994-.78,1.849-1.71,2.64-1.924,3.137.139,1,1.138,1.069a16.259,16.259,0,0,0,2.993-.144c.283-.069,3.42-3.773,3.565-5.986a1.8,1.8,0,0,0-1.839-2.138Z" transform="translate(-347.445 -307.69)" fill="#fff" stroke="#263238" stroke-linecap="round" stroke-miterlimit="10" stroke-width="1"/>
      <path id="Path_34378" data-name="Path 34378" d="M445.244,449.072a2.742,2.742,0,0,0-.1-.962,1.751,1.751,0,0,1-.075.3,34.553,34.553,0,0,1-2.373,4.746,2.606,2.606,0,0,1-2.464,1.454,9.315,9.315,0,0,1-2.736-.283c-.059.428.326.812,1.192.876a16.265,16.265,0,0,0,2.993-.144C441.947,455,445.084,451.285,445.244,449.072Z" transform="translate(-347.46 -308.714)" fill="#fff" stroke="#263238" stroke-linecap="round" stroke-miterlimit="10" stroke-width="1"/>
      <path id="Path_34379" data-name="Path 34379" d="M388.571,368.45l-.144,5.061s-8.9,19.737-9.118,20.886,1.208,17.1,1.208,17.1h-2.207l-.069.855,6.125,1.71s1.144-6.91,1.213-7.338,1.283-12.613,1.283-12.613l8.621-11.613s4.345,13.821,4.559,13.9,12.185,14.676,12.185,14.676l-.353.641s-.144.572.641,1,1.422.711,2.207-.075A5.519,5.519,0,0,0,416.4,410c.075-.78-.679-1.993-1.251-3.062s-1.641-2.779-1.641-2.779l-6.627-11.544L405.9,373.65l-.289-3.559Z" transform="translate(-319.876 -271.628)" fill="#263238" stroke="#263238" stroke-linecap="round" stroke-miterlimit="10" stroke-width="1"/>
      <path id="Path_34380" data-name="Path 34380" d="M382.708,322.308a3.244,3.244,0,0,0-1.379,1.577,4.1,4.1,0,0,0,.46,2.672,72.871,72.871,0,0,0,3.538,8.2c1.176,1.833,3.479,3.607,5.515,3.346s2.031-1.833,2.031-1.833,2.164-3.479.46-6.039S384.466,321.191,382.708,322.308Z" transform="translate(-321.265 -250.086)" fill="#fff" stroke="#263238" stroke-linecap="round" stroke-miterlimit="10" stroke-width="1"/>
      <path id="Path_34381" data-name="Path 34381" d="M403.027,317.957s-3.207,8.589-3.42,10.48-3.42,14.12-3.565,14.7,1.379,1.235,1.892,1.384,13.393,1.892,14.772,1.309,1.748-.534,1.748-1.165,2.549-21.982,1.309-24.675-2.587-5.489-3.33-5.585S403.027,317.957,403.027,317.957Z" transform="translate(-328.159 -246.467)" fill="#fff" stroke="#263238" stroke-linecap="round" stroke-miterlimit="10" stroke-width="1"/>
      <path id="Path_34382" data-name="Path 34382" d="M415.969,335.025c1.641-.566,6.91-1.635,6.91-1.635s-5.27,3.346-7.979,4.773" transform="translate(-336.943 -255.305)" fill="none" stroke="#263238" stroke-linecap="round" stroke-miterlimit="10" stroke-width="1"/>
      <line id="Line_676" data-name="Line 676" x1="4.276" y2="3.917" transform="translate(81.805 79.154)" fill="none" stroke="#263238" stroke-linecap="round" stroke-miterlimit="10" stroke-width="1"/>
      <path id="Path_34383" data-name="Path 34383" d="M405.6,282.744s-1.721,2.325-1.379,3.271a2.389,2.389,0,0,1,.171,1.464s-2.138,2.5-1.721,2.752a3.431,3.431,0,0,1,.86,1.122,18.965,18.965,0,0,0,.946,3.875c.412.518,1.726.086,1.726.086l.86-.086.6,4.217L414.206,296V292.8s4.308-4.308,4.222-6.547.086-4.3-.775-5.077a20.467,20.467,0,0,0-6.627-2.672c-1.817-.262-2.843-.534-3.362-.171s-1.374.946-1.374.946,0-2.068-1.037-1.208S404.394,282.07,405.6,282.744Z" transform="translate(-331.226 -229.452)" fill="#fff" stroke="#263238" stroke-linecap="round" stroke-miterlimit="10" stroke-width="1"/>
      <path id="Path_34384" data-name="Path 34384" d="M419.357,281.243a20.467,20.467,0,0,0-6.627-2.672c-1.817-.262-2.843-.534-3.362-.171s-1.374.946-1.374.946,0-2.068-1.037-1.208-.86,3.96.347,4.65l4.046.347a5.656,5.656,0,0,0-.6,1.806c-.086.86,1.464,1.55,1.464,1.55s-.433,2.41-.433,2.838.951.534,1.122.171-.262-1.374,1.117-1.721A1.572,1.572,0,0,1,416,289.591a2.266,2.266,0,0,1-1.208,1.892l-.534.257a4.335,4.335,0,0,1,1.635,1.122s4.308-4.308,4.222-6.547S420.218,282.018,419.357,281.243Z" transform="translate(-332.929 -229.485)" fill="#263238" stroke="#263238" stroke-linecap="round" stroke-miterlimit="10" stroke-width="1"/>
      <path id="Path_34385" data-name="Path 34385" d="M408.564,295.812c0,.406-.15.732-.342.732s-.342-.326-.342-.732.15-.732.342-.732S408.564,295.411,408.564,295.812Z" transform="translate(-333.675 -237.47)" fill="#263238"/>
      <path id="Path_34386" data-name="Path 34386" d="M408.04,315.052l.428,2.587,9.556-5.254-1.117-2.325Z" transform="translate(-333.749 -244.444)" fill="#fff" stroke="#263238" stroke-linecap="round" stroke-miterlimit="10" stroke-width="1"/>
      <path id="Path_34387" data-name="Path 34387" d="M416.78,346.228h0a6.488,6.488,0,0,1-9.315-.823L359.13,285.381l5.189-4.521,52.91,56.026a6.493,6.493,0,0,1-.449,9.342Z" transform="translate(-310.979 -230.85)" fill="#263238" stroke="#263238" stroke-linecap="round" stroke-miterlimit="10" stroke-width="1"/>
      <path id="Path_34388" data-name="Path 34388" d="M371.19,286.968l-6.745,5.879a2.175,2.175,0,0,1-3.073-.208h0a2.186,2.186,0,0,1,.208-3.078l6.745-5.879a2.175,2.175,0,0,1,3.073.208h0a2.175,2.175,0,0,1-.208,3.078Z" transform="translate(-311.773 -231.912)" fill="#f8951d" stroke="#263238" stroke-linecap="round" stroke-miterlimit="10" stroke-width="1"/>
      <path id="Path_34389" data-name="Path 34389" d="M279.571,194.861a30.746,30.746,0,1,0,43.381,2.961,30.746,30.746,0,0,0-43.381-2.961Zm37.764,43.29a26.722,26.722,0,1,1,2.571-37.657,26.722,26.722,0,0,1-2.571,37.657Z" transform="translate(-269.034 -187.285)" fill="#f8951d" stroke="#263238" stroke-linecap="round" stroke-miterlimit="10" stroke-width="1"/>
      <path id="Path_34390" data-name="Path 34390" d="M418,322.5s2.042-4.436,2.624-4.949a3.606,3.606,0,0,1,2.544-.363c.941.069,8.193,6.477,8.193,6.477s5.825,4.366,5.751,5.312-7.482,13.976-7.482,13.976l-3.078-1.892,1.6-10.635-8.808-4.949" transform="translate(-338.386 -247.737)" fill="#fff" stroke="#263238" stroke-linecap="round" stroke-miterlimit="10" stroke-width="1"/>
      <path id="Path_34391" data-name="Path 34391" d="M429.366,361.9l-.8.657a3.128,3.128,0,0,0-1.748-.075,9.754,9.754,0,0,0-1.069.657s-1.235,0-1.454.289-.438.657,0,.946,2.838-.144,3.057,0-.289.877-.727,2.042-1.069,2.036-.727,2.4.946.583,1.235.294l.294-.294s1.6,1.309,2.181,1.165a4.443,4.443,0,0,0,2.33-2.672,16.675,16.675,0,0,0,.508-3.5Z" transform="translate(-341.201 -268.578)" fill="#fff" stroke="#263238" stroke-linecap="round" stroke-miterlimit="10" stroke-width="1"/>
      <path id="Path_34392" data-name="Path 34392" d="M378.112,313.6a6.916,6.916,0,0,0-.374-1.379c-.369-1.154-.909-1.545-.3-1.785s1.112.337,1.288.855a8.5,8.5,0,0,0,.406.973l-.8,1.86Z" transform="translate(-319.374 -244.595)" fill="#fff" stroke="#263238" stroke-linecap="round" stroke-miterlimit="10" stroke-width="1"/>
      <path id="Path_34393" data-name="Path 34393" d="M379.9,310.779a27.123,27.123,0,0,0-1.384,3.795,41.945,41.945,0,0,0,2.971,3.164l-.534,1.245a2.624,2.624,0,0,0,1.112,1.443,1.8,1.8,0,0,0,2.362-.983l-.978-1.411s1.01-2.432,1.069-2.672a47.715,47.715,0,0,0-3.26-4.153S381,310.02,379.9,310.779Z" transform="translate(-320.002 -244.661)" fill="#fff" stroke="#263238" stroke-linecap="round" stroke-miterlimit="10" stroke-width="1"/>
      <line id="Line_677" data-name="Line 677" x1="1.892" y2="4.388" transform="translate(59.401 66.535)" fill="none" stroke="#263238" stroke-linecap="round" stroke-miterlimit="10" stroke-width="1"/>
      <line id="Line_678" data-name="Line 678" x1="1.609" y2="4.249" transform="translate(60.705 67.871)" fill="none" stroke="#263238" stroke-linecap="round" stroke-miterlimit="10" stroke-width="1"/>
      <line id="Line_679" data-name="Line 679" x1="1.587" y2="3.196" transform="translate(61.961 69.507)" fill="none" stroke="#263238" stroke-linecap="round" stroke-miterlimit="10" stroke-width="1"/>
      <line id="Line_680" data-name="Line 680" x2="1.796" y2="0.978" transform="translate(61.485 73.077)" fill="none" stroke="#263238" stroke-linecap="round" stroke-miterlimit="10" stroke-width="1"/>
    </g>
  </g>
</svg>
