<svg xmlns="http://www.w3.org/2000/svg" width="250" height="276.197" viewBox="0 0 250 276.197"><g transform="translate(-39.86 -26.181)"><g transform="translate(39.86 287.871)"><path d="M289.86,457.9c0,.091-55.969.158-124.994.158S39.86,457.983,39.86,457.9s55.957-.158,125.006-.158S289.86,457.807,289.86,457.9Z" transform="translate(-39.86 -457.74)" fill="#263238"/></g><g transform="translate(223.204 26.181)"><circle cx="25.371" cy="25.371" r="25.371" transform="translate(0 49.102) rotate(-75.39)" fill="#f8951d"/><g transform="translate(6.394 5.568)" opacity="0.1"><path d="M383.686,36.18A25.377,25.377,0,0,0,352.76,54.371s17.058,5.245,23.012-.606S383.686,36.18,383.686,36.18Z" transform="translate(-352.76 -35.363)" fill="#fff"/></g><path d="M398.925,68.726a19.289,19.289,0,1,1-13.832-23.51A19.289,19.289,0,0,1,398.925,68.726Z" transform="translate(-349.593 -33.429)" fill="#f8951d"/><g transform="translate(11.366 11.166)" opacity="0.2"><path d="M398.925,68.726a19.289,19.289,0,1,1-13.832-23.51A19.289,19.289,0,0,1,398.925,68.726Z" transform="translate(-360.959 -44.594)"/></g><path d="M399.8,70.446a19.028,19.028,0,1,1-13.644-23.194A19.028,19.028,0,0,1,399.8,70.446Z" transform="translate(-350.14 -34.233)" fill="#f8951d"/><g transform="translate(12.207 12.405)" opacity="0.2"><path d="M399.8,70.446a19.028,19.028,0,1,1-13.644-23.194A19.028,19.028,0,0,1,399.8,70.446Z" transform="translate(-362.346 -46.638)" fill="#fff"/></g><path d="M389.389,68.771l1.213-4.712h0a10.1,10.1,0,0,1,2.341,1.3,8.352,8.352,0,0,1,.982,1.043l.1-.127,1.164-1.51.273-.346-.606-1.1-.449.073a9.2,9.2,0,0,0-3.159-1.868l.667-2.589-.637-.861-.17.649-1.1-.285-.661,2.62c-3.735-.606-6,1.037-6.616,3.414-.843,3.25,1.716,4.809,4.148,6.112l-1.213,4.669a9.229,9.229,0,0,1-4.208-2.983L379.79,74.4A10.56,10.56,0,0,0,385,77.824l-.509,1.959-.94-.249.752.855,1.916.5.679-2.614c3.76.606,6.064-1.025,6.67-3.408C394.434,71.621,391.821,70.068,389.389,68.771Zm-1.789-.988c-1.249-.746-2.122-1.522-1.819-2.644.267-1.025,1.213-1.686,2.911-1.51ZM390.632,64.053ZM387.6,75.726l1.067-4.129c1.3.758,2.189,1.558,1.892,2.7-.273,1.007-1.2,1.613-2.971,1.425Z" transform="translate(-357.006 -38.737)" fill="#f8951d"/><g transform="translate(22.784 19.343)" opacity="0.3"><path d="M389.389,68.771l1.213-4.712h0a10.1,10.1,0,0,1,2.341,1.3,8.352,8.352,0,0,1,.982,1.043l.1-.127,1.164-1.51.273-.346-.606-1.1-.449.073a9.2,9.2,0,0,0-3.159-1.868l.667-2.589-.637-.861-.17.649-1.1-.285-.661,2.62c-3.735-.606-6,1.037-6.616,3.414-.843,3.25,1.716,4.809,4.148,6.112l-1.213,4.669a9.229,9.229,0,0,1-4.208-2.983L379.79,74.4A10.56,10.56,0,0,0,385,77.824l-.509,1.959-.94-.249.752.855,1.916.5.679-2.614c3.76.606,6.064-1.025,6.67-3.408C394.434,71.621,391.821,70.068,389.389,68.771Zm-1.789-.988c-1.249-.746-2.122-1.522-1.819-2.644.267-1.025,1.213-1.686,2.911-1.51ZM390.632,64.053ZM387.6,75.726l1.067-4.129c1.3.758,2.189,1.558,1.892,2.7-.273,1.007-1.2,1.613-2.971,1.425Z" transform="translate(-379.79 -58.08)"/></g><path d="M385.893,77.125l-.679,2.614-1.916-.5.673-2.589a10.587,10.587,0,0,1-5.221-3.426l1.661-2.086a9.29,9.29,0,0,0,4.214,2.989l1.213-4.675c-2.426-1.3-4.984-2.862-4.148-6.106.606-2.383,2.886-4.014,6.622-3.42L389,57.29l1.91.5-.667,2.589a10.351,10.351,0,0,1,4.372,2.656l-1.571,2.11a10.011,10.011,0,0,0-3.456-2.244l-1.213,4.718c2.426,1.3,5.045,2.85,4.2,6.1C391.939,76.094,389.653,77.695,385.893,77.125Zm.673-10.5,1.079-4.154c-1.722-.176-2.644.485-2.911,1.51-.291,1.116.582,1.892,1.831,2.638Zm2.947,6.525c.3-1.146-.606-1.953-1.892-2.711l-1.067,4.136c1.771.176,2.7-.431,2.959-1.431Z" transform="translate(-356.596 -38.426)" fill="#f8951d"/><path d="M385.22,84.321a.7.7,0,0,1,.152,0l.455.079.734.146a7.835,7.835,0,0,0,1.007.158l1.267.121a5.76,5.76,0,0,0,.728,0h.788a7.885,7.885,0,0,0,.843,0l.9-.091c.3-.036.606-.049.946-.109l.982-.194a20.247,20.247,0,0,0,4.245-1.4l1.085-.57c.182-.1.37-.188.558-.3l.534-.346c.352-.243.728-.461,1.079-.728l1.049-.831.267-.212.243-.236.5-.485.5-.485c.17-.158.309-.352.467-.528.3-.364.606-.716.916-1.1L406.292,76a19.094,19.094,0,0,0,2.989-11.612l-.146-1.455c-.067-.473-.176-.94-.267-1.407a6.668,6.668,0,0,0-.152-.691l-.2-.667-.2-.661c-.036-.109-.061-.218-.1-.327l-.127-.315-.509-1.213c-.182-.4-.4-.776-.606-1.158-.1-.188-.2-.376-.3-.564s-.23-.352-.34-.528l-.631-.994a20.2,20.2,0,0,0-3.032-3.281l-.764-.649c-.255-.206-.528-.37-.776-.552l-.752-.509c-.23-.17-.491-.285-.722-.424l-.691-.382a4.707,4.707,0,0,0-.649-.334l-1.17-.509a6.737,6.737,0,0,0-.952-.352l-.709-.23-.437-.146-.152-.061.152.036.443.133.722.212a7.806,7.806,0,0,1,.964.34l1.176.491a5.563,5.563,0,0,1,.661.327l.691.382a7.61,7.61,0,0,1,.734.424l.752.509c.249.176.528.34.782.552l.77.643a20.732,20.732,0,0,1,3.068,3.293l.679,1.031c.115.176.236.352.346.534l.3.57c.2.382.418.764.606,1.164s.34.831.515,1.249l.127.315a3.485,3.485,0,0,1,.1.334l.206.667c.067.224.133.449.206.673s.1.461.152.7c.091.467.2.94.273,1.419l.146,1.467a20.616,20.616,0,0,1-.564,6.1,20.854,20.854,0,0,1-2.468,5.6L405.6,77.36c-.3.388-.606.74-.928,1.11-.158.176-.3.37-.473.534l-.5.485-.5.485c-.085.079-.164.164-.249.236l-.273.218-1.055.837c-.358.267-.74.485-1.1.728l-.54.352c-.182.1-.376.194-.558.3l-1.1.57a20.115,20.115,0,0,1-4.281,1.383l-.988.194c-.321.061-.643.067-.952.1l-.9.079a7.882,7.882,0,0,1-.843,0h-.794a4.851,4.851,0,0,1-.734,0l-1.273-.139a7.629,7.629,0,0,1-1.007-.176l-.728-.158-.449-.1Z" transform="translate(-359.143 -34.368)" fill="#263238"/><path d="M353.353,73.472a1.333,1.333,0,0,1-.061-.218c-.042-.17-.091-.382-.152-.643a9.78,9.78,0,0,1-.2-1.019c-.061-.4-.152-.855-.188-1.364a7.484,7.484,0,0,0-.079-.794c-.03-.273,0-.57-.036-.867-.042-.606,0-1.213,0-1.916a25.225,25.225,0,0,1,1.862-8.544c.267-.606.509-1.213.794-1.74.139-.267.261-.534.4-.776l.4-.691c.243-.449.515-.825.734-1.164s.431-.606.606-.843l.4-.521c.1-.115.146-.176.152-.17a.842.842,0,0,1-.121.194l-.37.54c-.17.23-.37.515-.576.861s-.473.722-.709,1.17c-.121.224-.255.455-.388.7s-.255.5-.388.77c-.273.528-.509,1.122-.776,1.74a29.1,29.1,0,0,0-1.279,4.166,28.158,28.158,0,0,0-.564,4.317c0,.673-.048,1.31,0,1.9a7.79,7.79,0,0,0,.03.861c.03.255.049.54.067.794.03.509.109.964.158,1.364s.109.74.17,1.019.085.479.115.643A.945.945,0,0,1,353.353,73.472Z" transform="translate(-346.311 -36.422)" fill="#fff"/><path d="M385.006,68.257a1.661,1.661,0,0,1-.4-.679,3.032,3.032,0,0,1-.073-1.9,3.092,3.092,0,0,1,1.1-1.558,1.6,1.6,0,0,1,.71-.346,3.794,3.794,0,0,0-.606.455,3.068,3.068,0,0,0-1,3.323C384.866,67.99,385.036,68.239,385.006,68.257Z" transform="translate(-358.825 -40.976)" fill="#fff"/><path d="M395.316,60.164a1.82,1.82,0,0,1,.109-.788,1.776,1.776,0,0,1,.291-.746,1.819,1.819,0,0,1-.109.788C395.5,59.843,395.371,60.176,395.316,60.164Z" transform="translate(-363.114 -38.953)" fill="#fff"/><path d="M393.792,44.625a3.979,3.979,0,0,1-.606-.182c-.188-.067-.418-.139-.691-.212s-.576-.182-.928-.255-.722-.176-1.134-.243-.855-.139-1.316-.206a19.932,19.932,0,0,0-6.064.212c-.461.1-.9.176-1.3.291s-.776.218-1.116.327-.637.218-.9.315-.491.182-.673.261a3.887,3.887,0,0,1-.606.218,4.046,4.046,0,0,1,.552-.285,6.8,6.8,0,0,1,.667-.3c.261-.1.558-.236.9-.34s.71-.243,1.122-.352.843-.212,1.3-.315a21.018,21.018,0,0,1,3.032-.358,21.556,21.556,0,0,1,3.074.146c.473.073.916.133,1.328.224s.794.176,1.14.273.655.194.922.279a6.941,6.941,0,0,1,.685.249,3.547,3.547,0,0,1,.618.249Z" transform="translate(-356.478 -32.88)" fill="#fff"/><path d="M381.113,114.257a2.552,2.552,0,0,1-.467,0,11.425,11.425,0,0,1-1.273-.109,18.331,18.331,0,0,1-7.841-2.917c-.449-.3-.8-.564-1.037-.752a2.512,2.512,0,0,1-.346-.309,2.266,2.266,0,0,1,.394.249c.243.176.606.412,1.061.7a20.375,20.375,0,0,0,7.786,2.9c.528.085.958.139,1.261.164A2.51,2.51,0,0,1,381.113,114.257Z" transform="translate(-353.211 -59.24)" fill="#fff"/><path d="M401.281,67.061a1.512,1.512,0,0,1,.085-.406,10.065,10.065,0,0,0,.249-1.176,26.184,26.184,0,0,0,.418-4.615,24.821,24.821,0,0,0-.212-3.341,24.352,24.352,0,0,0-.813-3.9,25.663,25.663,0,0,0-4.427-8.574,24.652,24.652,0,0,0-3.954-4.008,24.965,24.965,0,0,0-5.148-3.238,25.267,25.267,0,0,0-6.228-1.983,25.941,25.941,0,0,0-3.4-.394,26.244,26.244,0,0,0-3.511.091,25.329,25.329,0,0,0-16.421,8.277,24.1,24.1,0,0,0-2.426,3.153,25.256,25.256,0,0,0-4,15.432c.036.667.127,1.328.206,1.983a16.459,16.459,0,0,0,.376,1.946,25.256,25.256,0,0,0,10.309,15.214,26.076,26.076,0,0,0,3.032,1.783,25.7,25.7,0,0,0,9.563,2.6,25.25,25.25,0,0,0,11.521-1.9,25.662,25.662,0,0,0,8.035-5.348,24.315,24.315,0,0,0,2.6-3.032,23.788,23.788,0,0,0,1.819-2.82,25.233,25.233,0,0,0,1.856-4.245c.176-.5.273-.9.358-1.152s.121-.394.121-.394-.127.546-.443,1.558a25.364,25.364,0,0,1-1.819,4.245,24.864,24.864,0,0,1-1.819,2.838,24.379,24.379,0,0,1-2.6,3.032,25.489,25.489,0,0,1-29.282,4.724A26.4,26.4,0,0,1,362.3,81.6a25.578,25.578,0,0,1-10.418-15.317c-.152-.649-.261-1.3-.376-1.959a16.819,16.819,0,0,1-.206-2,25.468,25.468,0,0,1,4.045-15.475,23.614,23.614,0,0,1,2.426-3.171,25.061,25.061,0,0,1,2.85-2.717,25.541,25.541,0,0,1,13.692-5.615,27.76,27.76,0,0,1,3.541-.085,26.219,26.219,0,0,1,3.42.4A25.481,25.481,0,0,1,396.7,44.94a25.735,25.735,0,0,1,4.427,8.635,24.389,24.389,0,0,1,.813,3.954,24.862,24.862,0,0,1-.285,7.974C401.426,66.521,401.281,67.061,401.281,67.061Z" transform="translate(-345.77 -29.744)" fill="#263238"/></g><g transform="translate(84.816 42.098)"><path d="M237.857,308.965H126.81V96.1h148.7V270.9" transform="translate(-119.041 -69.619)" fill="#fff"/><path d="M275.4,270.741V258.074c0-8.253,0-20.332-.042-35.668,0-30.677,0-74.379-.055-126.474l.139.139h-148.7l.158-.158V96.1c0,81.825,0,156.556-.036,212.677l-.121-.121,81.183.055,22.139.03h0l-22.139.036-81.183.048h-.115v-.115c0-56.121,0-130.852-.042-212.677V95.69h149v.139c0,52.094-.042,95.809-.061,126.474,0,15.335,0,27.415-.036,35.667v11.849A4.539,4.539,0,0,1,275.4,270.741Z" transform="translate(-118.95 -69.458)" fill="#263238"/><rect width="64.95" height="35.013" transform="translate(17.174 39.682)" fill="#f8951d"/><path d="M318.659,131.1c0,.091-11.679.164-26.074.164s-26.075-.073-26.075-.164,11.673-.158,26.075-.158S318.659,131.013,318.659,131.1Z" transform="translate(-174.029 -83.333)" fill="#263238"/><path d="M318.659,141.458c0,.085-11.679.158-26.074.158s-26.075-.073-26.075-.158,11.673-.158,26.075-.158S318.659,141.373,318.659,141.458Z" transform="translate(-174.029 -87.411)" fill="#263238"/><path d="M318.659,151.818c0,.085-11.679.158-26.074.158s-26.075-.073-26.075-.158,11.673-.158,26.075-.158S318.659,151.727,318.659,151.818Z" transform="translate(-174.029 -91.489)" fill="#263238"/><path d="M297.895,162.168c0,.091-7.034.158-15.705.158s-15.7-.067-15.7-.158,7.028-.158,15.7-.158S297.895,162.083,297.895,162.168Z" transform="translate(-174.021 -95.562)" fill="#263238"/><path d="M272.233,187.176c0,.085-28.821.158-64.362.158s-64.362-.073-64.362-.158,28.8-.176,64.362-.176S272.233,187.091,272.233,187.176Z" transform="translate(-125.614 -105.399)" fill="#263238"/><path d="M273.131,193.568c0,.085-28.5.158-63.67.158s-63.67-.073-63.67-.158,28.5-.158,63.67-.158S273.131,193.483,273.131,193.568Z" transform="translate(-126.512 -107.922)" fill="#263238"/><rect width="128.723" height="7.471" transform="translate(17.896 91.885)" fill="#e0e0e0"/><rect width="128.723" height="7.471" transform="translate(16.507 160.352)" fill="#e0e0e0"/><rect width="51.336" height="7.471" transform="translate(17.896 123.563)" fill="#e0e0e0"/><rect width="64.186" height="7.471" transform="translate(81.045 123.563)" fill="#e0e0e0"/><path d="M218.265,227.064c0,.085-16.518.158-36.892.158s-36.892-.073-36.892-.158,16.512-.164,36.892-.164S218.265,226.961,218.265,227.064Z" transform="translate(-125.996 -121.104)" fill="#263238"/><path d="M271.8,236.758c0,.085-28.555.158-63.773.158s-63.779-.073-63.779-.158,28.549-.158,63.779-.158S271.8,236.667,271.8,236.758Z" transform="translate(-125.906 -124.922)" fill="#263238"/><path d="M271.8,245.9c0,.085-28.555.158-63.773.158s-63.779-.073-63.779-.158,28.549-.158,63.779-.158S271.8,245.837,271.8,245.9Z" transform="translate(-125.906 -128.52)" fill="#263238"/><path d="M194.134,275.9c0,.085-11.485.158-25.644.158s-25.65-.073-25.65-.158,11.479-.158,25.65-.158S194.134,275.831,194.134,275.9Z" transform="translate(-125.351 -140.328)" fill="#263238"/><path d="M194.685,285.4c0,.085-11.291.158-25.219.158s-25.226-.073-25.226-.158,11.291-.158,25.226-.158S194.685,285.307,194.685,285.4Z" transform="translate(-125.902 -144.068)" fill="#263238"/><path d="M194.026,295.008c0,.091-11.394.158-25.468.158s-25.468-.067-25.468-.158,11.388-.158,25.468-.158S194.026,294.941,194.026,295.008Z" transform="translate(-125.449 -147.85)" fill="#263238"/><path d="M194.026,304.348c0,.085-11.394.158-25.468.158s-25.468-.073-25.468-.158,11.388-.158,25.468-.158S194.026,304.257,194.026,304.348Z" transform="translate(-125.449 -151.527)" fill="#263238"/><path d="M317.385,278.148c0,.091-11.891.158-26.56.158s-26.566-.067-26.566-.158,11.891-.158,26.566-.158S317.385,278.063,317.385,278.148Z" transform="translate(-173.143 -141.214)" fill="#263238"/><path d="M255.071,278.777a7.462,7.462,0,0,1-.067-1.049c0-.643-.055-1.54-.073-2.607l.139.133h-3.638l.158-.158h0v3.644l-.133-.133c1.067,0,1.959.042,2.607.067a8.951,8.951,0,0,1,1.049.067,5.917,5.917,0,0,1-.964.067c-.637,0-1.571.055-2.692.073h-.139V275.1h0c-.139.139.194-.194.164-.158h3.778v.139c0,1.128-.042,2.056-.067,2.692A5.918,5.918,0,0,1,255.071,278.777Z" transform="translate(-168.036 -140.012)" fill="#263238"/><path d="M317.385,289.738c0,.091-11.891.158-26.56.158s-26.566-.067-26.566-.158,11.891-.158,26.566-.158S317.385,289.653,317.385,289.738Z" transform="translate(-173.143 -145.776)" fill="#263238"/><path d="M255.071,290.382a7.462,7.462,0,0,1-.067-1.049c0-.649-.055-1.54-.073-2.607l.139.133h-3.638l.158-.158h0v3.675l-.133-.139c1.067,0,1.959.048,2.607.073a8.956,8.956,0,0,1,1.049.067,5.92,5.92,0,0,1-.964.067c-.637,0-1.57.055-2.692.067h-.139v-3.784h0c-.139.139.194-.194.164-.158h3.778v.139c0,1.128-.042,2.056-.067,2.692A5.917,5.917,0,0,1,255.071,290.382Z" transform="translate(-168.036 -144.589)" fill="#263238"/><path d="M317.385,301.328c0,.091-11.891.158-26.56.158s-26.566-.067-26.566-.158,11.891-.158,26.566-.158S317.385,301.243,317.385,301.328Z" transform="translate(-173.143 -150.338)" fill="#263238"/><path d="M255.094,301.951a7.57,7.57,0,0,1-.067-1.049c0-.649-.055-1.546-.073-2.607l.139.133h-3.638l.158-.158h0v3.644l-.133-.139c1.067,0,1.959.049,2.607.073a7.575,7.575,0,0,1,1.049.067,5.92,5.92,0,0,1-.964.067c-.637,0-1.571.055-2.692.067h-.139v-3.784h0l.164-.164h3.778v.139c0,1.122-.042,2.056-.067,2.692A5.917,5.917,0,0,1,255.094,301.951Z" transform="translate(-168.058 -149.13)" fill="#263238"/><path d="M269.533,374.688v-9.132c0-5.912-.03-14.553-.055-25.468l.1.1-126.734.061h0l.158-.158v34.6l-.152-.152,90.521.067,26.59.042h.067l-26.547.042-90.63.073h-.158V339.93h.164l126.734.061h.024v.1c0,10.945-.036,19.6-.049,25.535v8.483A4.116,4.116,0,0,1,269.533,374.688Z" transform="translate(-125.291 -165.595)" fill="#263238"/><path d="M269.825,354.448c0,.085-28.294.158-63.191.158s-63.2-.073-63.2-.158,28.294-.158,63.2-.158S269.825,354.357,269.825,354.448Z" transform="translate(-125.583 -171.247)" fill="#263238"/><path d="M269.825,368.618c0,.085-28.294.158-63.191.158s-63.2-.073-63.2-.158,28.294-.158,63.2-.158S269.825,368.527,269.825,368.618Z" transform="translate(-125.583 -176.824)" fill="#263238"/><path d="M269.825,382.9c0,.091-28.294.158-63.191.158s-63.2-.067-63.2-.158,28.294-.158,63.2-.158S269.825,382.837,269.825,382.9Z" transform="translate(-125.583 -182.445)" fill="#263238"/><path d="M167.038,375.054c-.085,0-.158-7.828-.158-17.482s.073-17.482.158-17.482.164,7.828.164,17.482S167.129,375.054,167.038,375.054Z" transform="translate(-134.813 -165.658)" fill="#263238"/><path d="M237.728,374.328c-.091,0-.158-7.477-.158-16.694s.067-16.694.158-16.694.158,7.471.158,16.694S237.831,374.328,237.728,374.328Z" transform="translate(-162.638 -165.992)" fill="#263238"/><path d="M312.208,376.267c-.091,0-.158-7.713-.158-17.221s.067-17.215.158-17.215.158,7.707.158,17.215S312.293,376.267,312.208,376.267Z" transform="translate(-191.954 -166.342)" fill="#263238"/><path d="M309.94,422.433,347.6,384.37H309.94Z" transform="translate(-191.124 -183.087)" fill="#e0e0e0"/><path d="M309.849,422.338c0-1.273-.055-15.736-.139-38.063v-.146h38.166l-.261.267L320.643,411.52l-10.794,10.818,10.812-11L347.4,384.185l.109.261H309.849l.146-.139C309.886,406.6,309.886,421.041,309.849,422.338Z" transform="translate(-191.033 -182.992)" fill="#263238"/><path d="M242.7,409.9c0,.085-22.127.158-49.426.158s-49.432-.073-49.432-.158,22.127-.158,49.432-.158S242.7,409.837,242.7,409.9Z" transform="translate(-125.744 -193.073)" fill="#263238"/><path d="M242.7,418.188c0,.085-22.127.158-49.426.158s-49.432-.073-49.432-.158,22.127-.158,49.432-.158S242.7,418.1,242.7,418.188Z" transform="translate(-125.744 -196.336)" fill="#263238"/><path d="M188.8,426.438c0,.085-10.072.158-22.491.158s-22.5-.073-22.5-.158,10.072-.158,22.5-.158S188.8,426.347,188.8,426.438Z" transform="translate(-125.732 -199.583)" fill="#263238"/><path d="M163.222,136.692H157.54V134h14.553v2.692h-5.682v14.45h-3.184Z" transform="translate(-131.137 -84.537)" fill="#fff"/><path d="M193.617,147.177h-8.574l-1.686,3.966H180.07L187.789,134h3.153l7.737,17.142h-3.329Zm-1.055-2.5-3.232-7.495-3.208,7.495Z" transform="translate(-140.005 -84.537)" fill="#fff"/><path d="M222.348,151.142,217.7,144.63l-4.609,6.513H209.45l6.4-8.744-6.064-8.4h3.638l4.384,6.1,4.324-6.1h3.45l-6,8.277,6.446,8.865Z" transform="translate(-151.569 -84.537)" fill="#fff"/><path d="M272.979,108.218c0,.085-29.234.158-65.289.158s-65.289-.073-65.289-.158,29.228-.158,65.289-.158S272.979,108.133,272.979,108.218Z" transform="translate(-125.177 -74.327)" fill="#e0e0e0"/><path d="M208.138,112.138c0,.085-14.717.158-32.872.158s-32.866-.073-32.866-.158,14.711-.158,32.866-.158S208.138,112.047,208.138,112.138Z" transform="translate(-125.177 -75.87)" fill="#e0e0e0"/><rect width="163.263" height="231.73" rx="10.88" transform="translate(0.117 13.983)" fill="#e0e0e0"/><path d="M270.78,307.1l.509-.03a7.493,7.493,0,0,0,1.467-.285,6.839,6.839,0,0,0,2.159-1.17,6.67,6.67,0,0,0,1.977-2.729,6.184,6.184,0,0,0,.43-2c.036-.722,0-1.486,0-2.286V280.27c0-19.707-.03-48.214-.048-83.438V81.77a6.416,6.416,0,0,0-5.015-6.064,8.659,8.659,0,0,0-2.141-.164H120.73a6.44,6.44,0,0,0-6.44,6.118V300.8a6.367,6.367,0,0,0,1.17,3.444,6.555,6.555,0,0,0,2.814,2.256,7.069,7.069,0,0,0,1.758.449c.606.055,1.213.042,1.819.042H156.78l83.426.048,22.685.03h0l-22.685.03-83.426.055H121.828c-.606,0-1.213,0-1.856-.042a7.234,7.234,0,0,1-1.819-.467,6.779,6.779,0,0,1-2.929-2.341,6.67,6.67,0,0,1-1.213-3.584c-.03-1.267,0-2.529,0-3.8V81.637a6.761,6.761,0,0,1,6.719-6.422H270.07a9.381,9.381,0,0,1,2.207.176,6.707,6.707,0,0,1,5.233,6.361V196.814c0,35.225-.042,63.731-.055,83.438v20.629a6.47,6.47,0,0,1-.443,2.013,6.67,6.67,0,0,1-2.007,2.741,6.379,6.379,0,0,1-3.638,1.431Z" transform="translate(-113.998 -61.396)" fill="#263238"/><g transform="translate(14.361 196.802)" opacity="0.3"><path d="M137.68,420.652H246.914l26.287-28.5V376.98L137.68,398.155Z" transform="translate(-137.68 -376.98)"/></g><g transform="translate(122.552 14.456)" opacity="0.3"><path d="M316.494,76.27l3.111,9.235v4.524h-3.5Z" transform="translate(-316.1 -76.27)"/></g><path d="M237.247,303.665H126.2V90.8H274.9V265.6" transform="translate(-118.801 -67.533)" fill="#fff"/><path d="M274.8,265.488V252.821c0-8.253,0-20.332-.036-35.668,0-30.677-.036-74.379-.061-126.474l.139.139H126.14l.158-.158v.188c0,81.825,0,156.556-.036,212.677l-.121-.121,81.183.055h22.133l-22.133.036-81.225.152h-.121v-.115c0-56.121,0-130.852-.036-212.677V90.51H274.935v.139c0,52.094-.042,95.809-.055,126.473,0,15.335-.03,27.415-.036,35.668v11.849A5.856,5.856,0,0,1,274.8,265.488Z" transform="translate(-118.698 -67.419)" fill="#263238"/><rect width="64.95" height="35.013" transform="translate(16.804 36.468)" fill="#f8951d"/><path d="M318.039,125.8c0,.091-11.679.158-26.074.158s-26.075-.067-26.075-.158,11.679-.158,26.075-.158S318.039,125.713,318.039,125.8Z" transform="translate(-173.785 -81.247)" fill="#263238"/><path d="M318.039,136.158c0,.085-11.679.158-26.074.158s-26.075-.073-26.075-.158S277.569,136,291.965,136,318.039,136.073,318.039,136.158Z" transform="translate(-173.785 -85.324)" fill="#263238"/><path d="M318.039,146.518c0,.085-11.679.158-26.074.158s-26.075-.073-26.075-.158,11.679-.158,26.075-.158S318.039,146.427,318.039,146.518Z" transform="translate(-173.785 -89.402)" fill="#263238"/><path d="M297.275,156.9c0,.091-7.028.158-15.7.158s-15.705-.067-15.705-.158,7.034-.158,15.705-.158S297.275,156.795,297.275,156.9Z" transform="translate(-173.777 -93.488)" fill="#263238"/><path d="M271.613,181.9c0,.085-28.815.158-64.356.158s-64.368-.073-64.368-.158,28.815-.158,64.368-.158S271.613,181.8,271.613,181.9Z" transform="translate(-125.37 -103.329)" fill="#263238"/><path d="M272.511,188.268c0,.085-28.5.158-63.67.158s-63.67-.073-63.67-.158,28.5-.158,63.67-.158S272.511,188.183,272.511,188.268Z" transform="translate(-126.268 -105.836)" fill="#263238"/><rect width="128.723" height="7.471" transform="translate(17.52 88.672)" fill="#e0e0e0"/><rect width="128.723" height="7.471" transform="translate(16.137 157.138)" fill="#e0e0e0"/><rect width="51.336" height="7.471" transform="translate(17.52 120.349)" fill="#e0e0e0"/><rect width="64.186" height="7.471" transform="translate(80.675 120.349)" fill="#e0e0e0"/><path d="M217.651,221.758c0,.091-16.518.164-36.892.164s-36.9-.073-36.9-.164,16.518-.158,36.9-.158S217.651,221.673,217.651,221.758Z" transform="translate(-125.752 -119.018)" fill="#263238"/><path d="M271.2,231.458c0,.085-28.555.158-63.773.158s-63.786-.073-63.786-.158,28.555-.158,63.786-.158S271.2,231.367,271.2,231.458Z" transform="translate(-125.665 -122.836)" fill="#263238"/><path d="M271.2,240.638c0,.085-28.555.158-63.773.158s-63.786-.073-63.786-.158,28.555-.158,63.786-.158S271.2,240.553,271.2,240.638Z" transform="translate(-125.665 -126.45)" fill="#263238"/><path d="M193.52,270.634c0,.085-11.485.158-25.65.158s-25.65-.073-25.65-.158,11.485-.164,25.65-.164S193.52,270.543,193.52,270.634Z" transform="translate(-125.106 -138.254)" fill="#263238"/><path d="M194.075,280.1c0,.085-11.3.158-25.22.158s-25.226-.073-25.226-.158,11.291-.158,25.226-.158S194.075,280.007,194.075,280.1Z" transform="translate(-125.661 -141.982)" fill="#263238"/><path d="M193.426,289.708c0,.091-11.388.158-25.438.158s-25.468-.067-25.468-.158,11.388-.158,25.468-.158S193.426,289.623,193.426,289.708Z" transform="translate(-125.225 -145.764)" fill="#263238"/><path d="M193.426,299.048c0,.085-11.388.158-25.438.158s-25.468-.073-25.468-.158,11.388-.158,25.468-.158S193.426,298.957,193.426,299.048Z" transform="translate(-125.225 -149.441)" fill="#263238"/><path d="M316.771,272.9c0,.091-11.9.158-26.566.158s-26.566-.067-26.566-.158,11.891-.158,26.566-.158S316.771,272.782,316.771,272.9Z" transform="translate(-172.899 -139.148)" fill="#263238"/><path d="M254.474,273.536s-.036-.406-.067-1.049-.055-1.54-.067-2.607l.133.133h-3.638l.158-.158h0V273.5l-.139-.133c1.067,0,1.965.042,2.607.067a8.8,8.8,0,0,1,1.049.067,5.682,5.682,0,0,1-.958.067c-.637,0-1.571.055-2.7.073h-.133V269.9h0l.158-.158h3.778v.139c0,1.128-.042,2.056-.073,2.692A5.131,5.131,0,0,1,254.474,273.536Z" transform="translate(-167.814 -137.967)" fill="#263238"/><path d="M316.771,284.438c0,.091-11.9.158-26.566.158s-26.566-.067-26.566-.158,11.891-.158,26.566-.158S316.771,284.353,316.771,284.438Z" transform="translate(-172.899 -143.69)" fill="#263238"/><path d="M254.474,285.064s-.036-.406-.067-1.049-.055-1.54-.067-2.607l.133.133h-3.638c-.036,0,.3-.3.158-.158h0v3.644l-.139-.139c1.067,0,1.965.048,2.607.073a8.806,8.806,0,0,1,1.049.067,5.682,5.682,0,0,1-.958.067c-.637,0-1.571.055-2.7.067h-.133v-3.784h0l.158-.158h3.778v.139c0,1.128-.042,2.056-.073,2.692A5.132,5.132,0,0,1,254.474,285.064Z" transform="translate(-167.814 -142.485)" fill="#263238"/><path d="M316.771,296.028c0,.091-11.9.158-26.566.158s-26.566-.067-26.566-.158,11.891-.158,26.566-.158S316.771,295.949,316.771,296.028Z" transform="translate(-172.899 -148.252)" fill="#263238"/><path d="M254.451,296.649s-.036-.406-.067-1.049-.055-1.546-.067-2.614l.133.139h-3.638l.158-.158h0v3.644l-.139-.139c1.067,0,1.965.048,2.607.073a7.462,7.462,0,0,1,1.049.067,5.682,5.682,0,0,1-.958.067c-.637,0-1.571.055-2.7.067H250.7v-3.784h0c-.139.139.194-.194.158-.164h3.778v.133c0,1.128-.042,2.062-.073,2.7A5.132,5.132,0,0,1,254.451,296.649Z" transform="translate(-167.792 -147.042)" fill="#263238"/><path d="M268.892,369.438v-9.132c0-5.912-.03-14.553-.055-25.468l.1.1L142.2,335h0l.158-.158v34.6l-.158-.152,90.521.067,26.59.042h.1l-26.554.042-90.63.067H142V334.68h.17l126.734.061h.1v.1c0,10.945-.042,19.6-.055,25.535v8.483A2.324,2.324,0,0,1,268.892,369.438Z" transform="translate(-125.02 -163.528)" fill="#263238"/><path d="M269.215,349.152c0,.085-28.294.158-63.2.158s-63.2-.073-63.2-.158S171.108,349,205.993,349,269.215,349.061,269.215,349.152Z" transform="translate(-125.343 -169.165)" fill="#263238"/><path d="M269.215,363.318c0,.085-28.294.158-63.2.158s-63.2-.073-63.2-.158,28.288-.158,63.2-.158S269.215,363.227,269.215,363.318Z" transform="translate(-125.343 -174.738)" fill="#263238"/><path d="M269.215,377.638c0,.091-28.294.158-63.2.158s-63.2-.067-63.2-.158,28.288-.158,63.2-.158S269.215,377.553,269.215,377.638Z" transform="translate(-125.343 -180.375)" fill="#263238"/><path d="M166.428,369.754c-.085,0-.158-7.828-.158-17.482s.073-17.482.158-17.482.158,7.828.158,17.482S166.513,369.754,166.428,369.754Z" transform="translate(-134.573 -163.571)" fill="#263238"/><path d="M237.108,369.047c-.085,0-.158-7.477-.158-16.694s.073-16.694.158-16.694.158,7.471.158,16.694S237.2,369.047,237.108,369.047Z" transform="translate(-162.394 -163.914)" fill="#263238"/><path d="M311.588,370.967c-.085,0-.158-7.713-.158-17.221s.073-17.215.158-17.215.158,7.707.158,17.215S311.679,370.967,311.588,370.967Z" transform="translate(-191.71 -164.256)" fill="#263238"/><path d="M309.33,417.133l37.65-38.063H309.33Z" transform="translate(-190.884 -181.001)" fill="#e0e0e0"/><path d="M309.236,417.038c0-1.273-.061-15.736-.146-38.063v-.146h38.148l-.261.267L320.023,406.22l-10.788,10.818,10.806-11.018,26.735-27.154.109.261h-37.65l.146-.139C309.3,401.3,309.242,415.765,309.236,417.038Z" transform="translate(-190.789 -180.906)" fill="#263238"/><path d="M242.089,404.638c0,.085-22.133.158-49.426.158s-49.432-.073-49.432-.158,22.127-.158,49.432-.158S242.089,404.553,242.089,404.638Z" transform="translate(-125.504 -191.003)" fill="#263238"/><path d="M242.089,412.9c0,.085-22.133.158-49.426.158s-49.432-.073-49.432-.158,22.127-.158,49.432-.158S242.089,412.8,242.089,412.9Z" transform="translate(-125.504 -194.254)" fill="#263238"/><path d="M188.218,421.138c0,.085-10.072.158-22.5.158s-22.491-.073-22.491-.158,10.066-.158,22.491-.158S188.218,421.047,188.218,421.138Z" transform="translate(-125.504 -197.497)" fill="#263238"/><path d="M162.612,131.392H156.93V128.7h14.553v2.692H165.8v14.468h-3.19Z" transform="translate(-130.897 -82.451)" fill="#fff"/><path d="M193.007,141.889h-8.574l-1.692,3.984H179.46l7.713-17.142h3.135l7.744,17.142h-3.335Zm-1.055-2.5-3.232-7.465-3.208,7.495Z" transform="translate(-139.765 -82.463)" fill="#fff"/><path d="M221.738,145.872l-4.657-6.513-4.6,6.513H208.84l6.367-8.744-6.021-8.4h3.6l4.384,6.1,4.336-6.1h3.456l-6,8.277,6.452,8.865Z" transform="translate(-151.329 -82.463)" fill="#fff"/><path d="M272.365,102.9c0,.085-29.234.158-65.289.158s-65.3-.073-65.3-.158,29.228-.158,65.3-.158S272.365,102.825,272.365,102.9Z" transform="translate(-124.933 -72.233)" fill="#e0e0e0"/><path d="M207.518,106.838c0,.085-14.717.158-32.866.158s-32.872-.073-32.872-.158,14.717-.158,32.872-.158S207.518,106.747,207.518,106.838Z" transform="translate(-124.933 -73.784)" fill="#e0e0e0"/><path d="M196.508,66h67.563a3.838,3.838,0,0,1,3.838,3.838V87.83H192.67V69.814A3.838,3.838,0,0,1,196.508,66Z" transform="translate(-144.964 -57.771)" fill="#263238"/><path d="M258.07,52.43H238.92l2.238,16.415h14.426Z" transform="translate(-163.169 -52.43)" fill="#263238"/><path d="M266.214,65.9c0,.085-14.681.158-32.787.158s-32.787-.073-32.787-.158,14.681-.158,32.787-.158S266.214,65.789,266.214,65.9Z" transform="translate(-148.102 -57.669)" fill="#455a64"/><path d="M195.348,87.2c-.085,0-.158-3.087-.158-6.895s.073-6.895.158-6.895.158,3.086.158,6.895S195.433,87.2,195.348,87.2Z" transform="translate(-145.956 -60.688)" fill="#455a64"/><path d="M312.628,85.332c-.085,0-.158-2.808-.158-6.264s.073-6.258.158-6.258a60.889,60.889,0,0,1,.164,6.258A61.042,61.042,0,0,1,312.628,85.332Z" transform="translate(-192.12 -60.452)" fill="#455a64"/><path d="M263.059,98.138c0,.091-15.069.158-33.654.158s-33.654-.067-33.654-.158,15.063-.158,33.654-.158S263.059,98.053,263.059,98.138Z" transform="translate(-146.177 -70.359)" fill="#455a64"/></g><g transform="translate(129.374 215.33)"><path d="M304.61,341.35v24.874h5.67Z" transform="translate(-233.584 -339.385)" fill="#263238"/><rect width="28.918" height="25.79" transform="translate(42.107 1.965)" fill="#fff"/><rect width="3.954" height="4.166" transform="translate(60.396 13.037)" fill="#f8951d"/><path d="M261.147,369.556a1.555,1.555,0,0,1,0-.285v-.861c0-.776,0-1.892-.03-3.3,0-2.9-.042-7.046-.067-12.079V352.9h24.11c-.03-.03.3.3.158.164h0v16.669h-.146l-17.349-.073-4.912-.036h.048l4.942-.036,17.252-.073-.139.146V353.123h0c-.139-.146.194.188.158.152l-23.982-.03.127-.127c-.03,5-.055,9.1-.067,12,0,1.425,0,2.547-.036,3.335v.885C261.214,369.556,261.147,369.55,261.147,369.556Z" transform="translate(-216.438 -343.93)" fill="#263238"/><rect width="28.918" height="4.972" transform="translate(42.107 1.965)" fill="#f8951d"/><path d="M256.853,367.051v-1.819c0-1.213,0-2.977-.036-5.215,0-4.53-.036-10.988-.067-18.755v-.133H285.8c-.03-.036.3.3.158.158h0v25.941h-.139l-21.035-.1-5.876-.036h.055l5.912-.036,20.89-.073-.139.139v-25.8h0l.158.158H256.865l.133-.133c-.03,7.731-.055,14.159-.067,18.671,0,2.25,0,4.02-.036,5.245v1.389A1.063,1.063,0,0,1,256.853,367.051Z" transform="translate(-214.746 -339.297)" fill="#263238"/><path d="M285.177,359.508c0,.085-5.336.158-11.922.158s-11.915-.073-11.915-.158,5.33-.158,11.915-.158S285.177,359.417,285.177,359.508Z" transform="translate(-216.552 -346.47)" fill="#263238"/><path d="M285.177,366.368c0,.091-5.336.164-11.922.164s-11.915-.073-11.915-.164,5.33-.158,11.915-.158S285.177,366.283,285.177,366.368Z" transform="translate(-216.552 -349.171)" fill="#263238"/><path d="M285.177,373.238c0,.091-5.336.158-11.922.158s-11.915-.067-11.915-.158,5.33-.158,11.915-.158S285.177,373.153,285.177,373.238Z" transform="translate(-216.552 -351.875)" fill="#263238"/><path d="M267.538,369.625c-.085,0-.158-3.681-.158-8.223s.073-8.223.158-8.223.158,3.681.158,8.223S267.629,369.625,267.538,369.625Z" transform="translate(-218.93 -344.042)" fill="#263238"/><path d="M274,369.625c-.085,0-.158-3.681-.158-8.223s.073-8.223.158-8.223.158,3.681.158,8.223S274.083,369.625,274,369.625Z" transform="translate(-221.473 -344.042)" fill="#263238"/><path d="M280.518,369.625c-.085,0-.158-3.681-.158-8.223s.073-8.223.158-8.223.158,3.681.158,8.223S280.609,369.625,280.518,369.625Z" transform="translate(-224.039 -344.042)" fill="#263238"/><path d="M286.978,369.625c-.091,0-.158-3.681-.158-8.223s.067-8.223.158-8.223.158,3.681.158,8.223S287.063,369.625,286.978,369.625Z" transform="translate(-226.582 -344.042)" fill="#263238"/><path d="M293.5,369.625c-.091,0-.158-3.681-.158-8.223s.067-8.223.158-8.223.158,3.681.158,8.223S293.583,369.625,293.5,369.625Z" transform="translate(-229.148 -344.042)" fill="#263238"/><rect width="2.141" height="0.976" transform="translate(66.126 9.49)" fill="#e0e0e0"/><rect width="2.141" height="0.976" transform="translate(66.156 13.71)" fill="#e0e0e0"/><rect width="2.141" height="0.976" transform="translate(66.156 17.925)" fill="#e0e0e0"/><rect width="2.141" height="0.976" transform="translate(66.205 22.139)" fill="#e0e0e0"/><rect width="2.141" height="0.976" transform="translate(57.722 9.49)" fill="#e0e0e0"/><rect width="2.141" height="0.976" transform="translate(57.758 13.71)" fill="#e0e0e0"/><rect width="2.141" height="0.976" transform="translate(57.758 17.925)" fill="#e0e0e0"/><rect width="2.141" height="0.976" transform="translate(57.801 22.139)" fill="#e0e0e0"/><rect width="2.141" height="0.976" transform="translate(49.887 9.49)" fill="#e0e0e0"/><rect width="2.141" height="0.976" transform="translate(49.918 13.71)" fill="#e0e0e0"/><rect width="2.141" height="0.976" transform="translate(49.918 17.925)" fill="#e0e0e0"/><rect width="2.141" height="0.976" transform="translate(49.966 22.139)" fill="#e0e0e0"/><rect width="2.141" height="0.976" transform="translate(53.98 9.49)" fill="#e0e0e0"/><rect width="2.141" height="0.976" transform="translate(54.011 13.71)" fill="#e0e0e0"/><rect width="2.141" height="0.976" transform="translate(54.011 17.925)" fill="#e0e0e0"/><rect width="2.141" height="0.976" transform="translate(54.059 22.139)" fill="#e0e0e0"/><rect width="2.141" height="0.976" transform="translate(46.049 9.49)" fill="#e0e0e0"/><rect width="2.141" height="0.976" transform="translate(46.079 13.71)" fill="#e0e0e0"/><rect width="2.141" height="0.976" transform="translate(46.079 17.925)" fill="#e0e0e0"/><rect width="2.141" height="0.976" transform="translate(46.128 22.139)" fill="#e0e0e0"/><rect width="2.141" height="0.976" transform="translate(61.609 9.49)" fill="#e0e0e0"/><rect width="2.141" height="0.976" transform="translate(61.645 17.925)" fill="#e0e0e0"/><rect width="2.141" height="0.976" transform="translate(61.645 22.139)" fill="#e0e0e0"/><path d="M286.73,356.385A20.338,20.338,0,0,1,288.8,354.2a22.486,22.486,0,0,1,2.159-2.092,10.951,10.951,0,0,1-1.934,2.316A11.356,11.356,0,0,1,286.73,356.385Z" transform="translate(-226.546 -343.621)" fill="#f8951d"/><path d="M291.632,356.627a21.83,21.83,0,0,1-2.85-2.328,21.572,21.572,0,0,1-2.632-2.559,21.96,21.96,0,0,1,2.844,2.322A21.67,21.67,0,0,1,291.632,356.627Z" transform="translate(-226.318 -343.475)" fill="#f8951d"/><path d="M262.5,342.324h0a.528.528,0,0,1-.534-.534V338.65a.534.534,0,0,1,.534-.54h0a.534.534,0,0,1,.534.54v3.129a.528.528,0,0,1-.534.546Z" transform="translate(-216.8 -338.11)" fill="#263238"/><path d="M268.254,342.324h0a.534.534,0,0,1-.534-.534V338.65a.54.54,0,0,1,.534-.54h0a.54.54,0,0,1,.54.54v3.129a.534.534,0,0,1-.54.546Z" transform="translate(-219.064 -338.11)" fill="#263238"/><path d="M274.034,342.324h0a.528.528,0,0,1-.534-.534V338.65a.534.534,0,0,1,.534-.54h0a.54.54,0,0,1,.534.54v3.129a.534.534,0,0,1-.534.546Z" transform="translate(-221.339 -338.11)" fill="#263238"/><path d="M279.8,342.324h0a.528.528,0,0,1-.534-.534V338.65a.534.534,0,0,1,.534-.54h0a.534.534,0,0,1,.534.54v3.129a.528.528,0,0,1-.534.546Z" transform="translate(-223.61 -338.11)" fill="#263238"/><path d="M285.574,342.324h0a.534.534,0,0,1-.534-.534V338.65a.54.54,0,0,1,.534-.54h0a.54.54,0,0,1,.54.54v3.129a.534.534,0,0,1-.54.546Z" transform="translate(-225.881 -338.11)" fill="#263238"/><path d="M291.354,342.324h0a.528.528,0,0,1-.534-.534V338.65a.534.534,0,0,1,.534-.54h0a.534.534,0,0,1,.534.54v3.129a.528.528,0,0,1-.534.546Z" transform="translate(-228.156 -338.11)" fill="#263238"/><path d="M297.124,342.324h0a.528.528,0,0,1-.534-.534V338.65a.534.534,0,0,1,.534-.54h0a.534.534,0,0,1,.534.54v3.129a.528.528,0,0,1-.534.546Z" transform="translate(-230.427 -338.11)" fill="#263238"/><rect width="80.024" height="6.506" transform="translate(0.097 26.839)" fill="#455a64"/><rect width="73.051" height="19.028" transform="translate(2.996 31.781)" fill="#455a64"/><rect width="6.325" height="41.501" transform="translate(2.996 31.198)" fill="#455a64"/><rect width="6.325" height="41.501" transform="translate(69.722 31.198)" fill="#455a64"/><path d="M267.7,393c0,.085-17.961.158-40.106.158s-40.112-.073-40.112-.158,17.955-.158,40.112-.158S267.7,392.937,267.7,393Z" transform="translate(-187.48 -359.653)" fill="#263238"/><path d="M202.866,393.43c.091,0,.139,8.768.115,19.574s-.115,19.58-.2,19.58-.139-8.762-.115-19.574S202.781,393.43,202.866,393.43Z" transform="translate(-193.455 -359.885)" fill="#263238"/><path d="M302.768,393.43c.091,0,.158,8.21.158,18.337s-.067,18.331-.158,18.331-.158-8.2-.158-18.331S302.683,393.43,302.768,393.43Z" transform="translate(-232.797 -359.885)" fill="#263238"/><path d="M262.437,409.615v-3.487c0-2.262,0-5.542-.048-9.7l.091.091-55.993.067h0l.158-.158v13.183l-.158-.152,39.918.067,11.782.049h.073l-11.746.042-40.021.073h-.152v-13.5h.164l55.993.067h.03v.091c0,4.178-.036,7.477-.049,9.751v3.22A1.148,1.148,0,0,1,262.437,409.615Z" transform="translate(-194.904 -360.971)" fill="#263238"/><path d="M252.019,406.79c-.03,0-.036-.152-.115-.406a1.746,1.746,0,0,0-.606-.879,1.625,1.625,0,0,0-1.522-.2,1.589,1.589,0,0,0,0,2.977,1.637,1.637,0,0,0,1.522-.206,1.71,1.71,0,0,0,.606-.873c.079-.255.085-.412.115-.412a.825.825,0,0,1,0,.437,1.686,1.686,0,0,1-.606,1.031,1.819,1.819,0,0,1-1.752.3,1.868,1.868,0,0,1,0-3.523,1.819,1.819,0,0,1,1.752.3,1.692,1.692,0,0,1,.606,1.025A.806.806,0,0,1,252.019,406.79Z" transform="translate(-211.464 -364.41)" fill="#263238"/><path d="M261.4,364.54l6.331,6.088H255.22Z" transform="translate(-214.144 -348.513)" fill="#e0e0e0"/><path d="M251.292,370.628l6.179-6.088H245.24Z" transform="translate(-210.215 -348.513)" fill="#f5f5f5"/><path d="M206.5,369.766l5.391-7.416h17.4l-5.354,7.416Z" transform="translate(-194.967 -347.651)" fill="#f5f5f5"/><path d="M240.6,362.35l6.755,7.416H235.25Z" transform="translate(-206.283 -347.651)" fill="#e0e0e0"/><path d="M259.853,369.628a3.135,3.135,0,0,1-.485-.406l-1.3-1.213-4.633-4.378h.188l-6.161,6.106-.121.115-.109-.121-.606-.643-6.155-6.792h.212l-3.935,5.342-1.116,1.486a3.552,3.552,0,0,1-.418.509,3.948,3.948,0,0,1,.352-.558l1.055-1.528,3.838-5.415.1-.133.115.121,6.191,6.767.576.643h-.224l6.2-6.064.091-.091.1.091,4.554,4.463,1.255,1.255a4.173,4.173,0,0,1,.449.443Z" transform="translate(-206.267 -347.513)" fill="#263238"/><path d="M206.5,369.62a4.493,4.493,0,0,1,.358-.606l1.085-1.577,3.808-5.391.049-.067h4.1c3.638,0,6.967,0,9.363.049l2.838.048a7.109,7.109,0,0,1,1.037.061,6.157,6.157,0,0,1-1.037.061l-2.838.055c-2.4,0-5.706.042-9.363.042H211.86l.121-.061-3.905,5.324c-.473.606-.855,1.128-1.152,1.522A3.549,3.549,0,0,1,206.5,369.62Z" transform="translate(-194.967 -347.506)" fill="#263238"/><path d="M257.662,364.425a52.2,52.2,0,0,1-5.791.158,52.105,52.105,0,0,1-5.791-.158,53.958,53.958,0,0,1,5.791-.158,54.021,54.021,0,0,1,5.791.158Z" transform="translate(-210.546 -348.399)" fill="#263238"/><path d="M224.769,370.7a48.2,48.2,0,0,1-5.567.158,48.351,48.351,0,0,1-5.573-.158,50.059,50.059,0,0,1,5.573-.158A49.891,49.891,0,0,1,224.769,370.7Z" transform="translate(-197.773 -350.867)" fill="#263238"/><path d="M227.205,368.225a48.351,48.351,0,0,1-5.573.158,48.365,48.365,0,0,1-5.573-.158,50.059,50.059,0,0,1,5.573-.158,50.051,50.051,0,0,1,5.573.158Z" transform="translate(-198.73 -349.894)" fill="#263238"/><path d="M229.675,365.755a48.351,48.351,0,0,1-5.573.158,48.351,48.351,0,0,1-5.573-.158,50.051,50.051,0,0,1,5.573-.158A50.052,50.052,0,0,1,229.675,365.755Z" transform="translate(-199.702 -348.922)" fill="#263238"/><rect width="43.284" height="4.724" transform="translate(8.089 22.115)" fill="#f5f5f5"/><rect width="28.979" height="4.724" transform="translate(22.4 22.115)" fill="#e0e0e0"/><path d="M200.792,379.2a1.615,1.615,0,0,1,0-.315v-.922c0-.843,0-2.013-.042-3.487v-.091h.091c4.305-.042,11.315-.067,19.222-.067l16.936.048,5.136.049h1.395a3.064,3.064,0,0,1,.485.03,2.348,2.348,0,0,1-.485.03l-1.395.03-5.136.055-16.936.042c-7.883,0-14.917,0-19.222-.061l.1-.1c0,1.474-.036,2.644-.042,3.487v.922A1.171,1.171,0,0,1,200.792,379.2Z" transform="translate(-192.703 -352.363)" fill="#263238"/></g><g transform="translate(186.374 123.807)"><rect width="5.561" height="36.201" transform="translate(49.396 128.415)" fill="#455a64"/><rect width="5.561" height="35.789" transform="translate(81.65 128.415)" fill="#455a64"/><rect width="29.476" height="4.93" transform="translate(53.162 141.277)" fill="#455a64"/><path d="M421.588,399v2.771c0,1.819,0,4.384.036,7.586,0,6.434,0,15.348.036,25.317v.1H415.87v-.115c.036-9.9.073-18.743.1-25.116,0-3.177.042-5.742.055-7.519,0-.879,0-1.558.03-2.037v-.528a.568.568,0,0,1,0-.176v35.376l-.115-.115H421.5l-.121.115c0-9.969,0-18.883.036-25.317,0-3.2,0-5.791.036-7.586V399.17A.606.606,0,0,1,421.588,399Z" transform="translate(-334.378 -270.555)" fill="#263238"/><path d="M362.791,400.618a.99.99,0,0,1,0,.176v34.491l-.115-.121h5.561l-.121.121c0-10.042,0-19.034.036-25.535,0-3.232,0-5.846.036-7.665v-2.614a.606.606,0,0,1,0-.182v2.8c0,1.819,0,4.433.036,7.665,0,6.5,0,15.493.036,25.535v.115H362.47v-.115c.03-9.7.061-18.386.079-24.631,0-3.111.036-5.615.049-7.355v-2.5A.994.994,0,0,1,362.791,400.618Z" transform="translate(-313.359 -270.669)" fill="#263238"/><rect width="54.126" height="17.1" rx="8.55" transform="translate(41.628 111.691)" fill="#455a64"/><path d="M366.25,399.5c0-.067,8.987-.115,20.059-.115s20.065.049,20.065.115-8.981.115-20.065.115S366.25,399.562,366.25,399.5Z" transform="translate(-314.847 -270.704)" fill="#263238"/><g transform="translate(54.805 109.8)" opacity="0.3"><path d="M403.095,369.027l-22.5-.758a5.575,5.575,0,0,0-3.8.788,5.3,5.3,0,0,0-1.516,3.323l-3.42,16.542.716,1.213a21.363,21.363,0,0,0,9.235-12.158c.382-1.346.813-2.941,2.122-3.426a4.02,4.02,0,0,1,1.819-.091l5.318.534c2.547.255,5.2.5,7.616-.34S403.253,371.586,403.095,369.027Z" transform="translate(-371.86 -368.252)"/></g><path d="M392.844,189.4a3.135,3.135,0,0,1,2.632-.873,1.765,1.765,0,0,0,1.146,0,2.565,2.565,0,0,0,.558-.606,1.577,1.577,0,0,1,2.274,0,1.923,1.923,0,0,0,.437.449c.746.412,1.613-.982,2.353-.558a1.819,1.819,0,0,0-.855.606.807.807,0,0,0,.067,1c.691.637,1.886-.722,2.656-.188.418.285.461,1.013.952,1.14a1.728,1.728,0,0,0,.606,0,1.3,1.3,0,0,1,1.352,1.152c.042.558-.255,1.213.152,1.619a1.213,1.213,0,0,0,.995.17,3.408,3.408,0,0,1-.4,1.473,2.044,2.044,0,0,1,.606,2.753,4.409,4.409,0,0,1,1.14,1.213,1.522,1.522,0,0,1,0,1.6,1.261,1.261,0,0,0-.224.309.787.787,0,0,0,0,.412,6.742,6.742,0,0,1,.285,1.571c-.03.534-.443,1.116-.97,1.055-.127,0-.261-.061-.37,0a.346.346,0,0,0-.133.236,3.682,3.682,0,0,0,.049,1.152,1.51,1.51,0,0,1-.2,1.1.649.649,0,0,1-.988.1c.133.606.273,1.213.412,1.819.079.358.146.788-.121,1.037s-.946.049-1.213-.358-.3-.916-.558-1.322a2.812,2.812,0,0,1-.315-.491c-.055-.146-.067-.321-.182-.418-.236-.206-.606.121-.606.431a1.625,1.625,0,0,0,.455.794.782.782,0,0,1,.17.855c-.079.127-.218.212-.291.34-.267.449.388.9.455,1.419a1.255,1.255,0,0,1-.515.982c-.34.321-.988.57-1.213.146-.067-.146-.036-.321-.091-.473a1.08,1.08,0,0,0-.358-.437,2.516,2.516,0,0,1-.691-1.213c.382.491.782,1.146.491,1.7a2.5,2.5,0,0,1-.534.57c-.364.364-.606.843-.958,1.213a1.213,1.213,0,0,1-1.389.346,1.158,1.158,0,0,1-1.965,1.1,1.085,1.085,0,0,0-.309-.291.831.831,0,0,0-.455,0,2.516,2.516,0,0,1-2.426-1.031l.461-.152a5.827,5.827,0,0,1-2.553-.825,1.989,1.989,0,0,1-.788-2.377c.176-.352.509-.709.37-1.079-.091-.255-.376-.376-.606-.473l-3.19-1.213a3.032,3.032,0,0,1-1.395-.849,1.037,1.037,0,0,1,.115-1.467,2.977,2.977,0,0,0-1.085-1.213c-.528-.334-1.146-.491-1.692-.8a1.7,1.7,0,0,1-.97-1.486c.055-.606.922-1.079,1.34-.606-.061-.94-1.734-1.037-1.856-1.971-.1-.758.879-1.128,1.395-1.7-.1-.267-.358-.443-.461-.7-.218-.552.358-1.079.9-1.322s1.213-.485,1.346-1.055-.346-1.267,0-1.777a.673.673,0,0,1,.885-.2c.455-1.067,2.468-.206,3.086-1.213a.455.455,0,0,0,.079-.261.607.607,0,0,0-.1-.218,4.853,4.853,0,0,0-.885-.709.91.91,0,0,1-.388-.982c.146-.346.813-.321.794.061a.837.837,0,0,1,1.267.346.9.9,0,0,1,1.128-.073,2.589,2.589,0,0,1,.776.934" transform="translate(-321.4 -187.278)" fill="#263238"/><path d="M392.592,189.5s-.109-.176-.364-.5a1.541,1.541,0,0,0-.606-.467.825.825,0,0,0-.928.146l-.061.073v-.091a.776.776,0,0,0-1.164-.315l-.127.1v-.158c0-.188-.255-.273-.455-.2a.4.4,0,0,0-.206.546,1.213,1.213,0,0,0,.479.606,4.395,4.395,0,0,1,.722.552.534.534,0,0,1,.182.5.57.57,0,0,1-.133.236.673.673,0,0,1-.182.188,1.868,1.868,0,0,1-.988.327c-.346.036-.7.036-1.037.1a.97.97,0,0,0-.807.509l-.048.115-.109-.067a.57.57,0,0,0-.606.049.7.7,0,0,0-.182.667c.036.261.133.54.152.855a1.1,1.1,0,0,1-.37.885c-.491.449-1.158.528-1.589.934a.831.831,0,0,0-.34.716c0,.261.34.431.5.806l.03.079-.055.061a11.121,11.121,0,0,1-.952.8.831.831,0,0,0-.358.946c.133.334.534.54.9.758a3.638,3.638,0,0,1,.564.394,1.031,1.031,0,0,1,.352.673v.443l-.279-.334c-.291-.346-.988,0-1.067.467a1.4,1.4,0,0,0,.752,1.31c.473.315,1.073.473,1.637.776a3.165,3.165,0,0,1,1.346,1.413l.061.133-.121.073a.891.891,0,0,0-.073,1.213,2.984,2.984,0,0,0,1.352.8l3.262,1.213a1.388,1.388,0,0,1,.437.249.691.691,0,0,1,.236.521,1.91,1.91,0,0,1-.376.9,1.546,1.546,0,0,0,.079,1.564,2.529,2.529,0,0,0,1.328,1.061,8.4,8.4,0,0,0,1.783.406l.746.115-.716.236-.467.152.091-.273a2.353,2.353,0,0,0,1.213.867,2.316,2.316,0,0,0,.758.133,3.412,3.412,0,0,0,.4-.049.685.685,0,0,1,.534.1c.152.121.224.249.309.315a.952.952,0,0,0,.3.188,1.019,1.019,0,0,0,.709,0,.988.988,0,0,0,.606-1.176l-.133-.455.4.243a.843.843,0,0,0,.825-.055,2.183,2.183,0,0,0,.7-.7,5.293,5.293,0,0,1,.715-.879c.3-.243.491-.467.467-.782a2.219,2.219,0,0,0-.552-1.146l.327-.152a2.244,2.244,0,0,0,.431.9,3.467,3.467,0,0,0,.364.37,1.213,1.213,0,0,1,.2.249.813.813,0,0,1,.091.327c0,.2.042.285.115.334a.5.5,0,0,0,.37,0,1.637,1.637,0,0,0,.734-.606.661.661,0,0,0,.073-.8c-.073-.139-.176-.285-.267-.449a.873.873,0,0,1-.127-.637c.067-.261.291-.388.346-.473a.364.364,0,0,0,.036-.34c-.073-.279-.346-.485-.546-.837a.794.794,0,0,1-.091-.643.661.661,0,0,1,.534-.437.455.455,0,0,1,.376.17.861.861,0,0,1,.139.3.922.922,0,0,0,.2.4c.479.606.449,1.4.9,1.746.218.182.534.255.7.109a.847.847,0,0,0,.115-.764c-.146-.649-.291-1.286-.437-1.922l-.194-.843.5.7a.406.406,0,0,0,.485.073.606.606,0,0,0,.364-.449,4.439,4.439,0,0,0-.048-1.431,1.849,1.849,0,0,1,0-.406.552.552,0,0,1,.255-.437.891.891,0,0,1,.455,0,.455.455,0,0,0,.267-.049,1.067,1.067,0,0,0,.5-1.061,9.776,9.776,0,0,0-.285-1.376.879.879,0,0,1,0-.431,1.176,1.176,0,0,1,.23-.334,1.061,1.061,0,0,0,.224-.552,1.692,1.692,0,0,0-.358-1.17,5.567,5.567,0,0,0-.934-.916l-.109-.091.079-.115a1.886,1.886,0,0,0-.564-2.541l-.121-.073.067-.127a3.171,3.171,0,0,0,.388-1.407l.164.152a1.7,1.7,0,0,1-.91-.073.867.867,0,0,1-.461-.813c0-.606.194-1.1-.1-1.51a1.152,1.152,0,0,0-1.213-.534,1.213,1.213,0,0,1-.424,0,.728.728,0,0,1-.388-.236,4.44,4.44,0,0,1-.4-.655.667.667,0,0,0-.467-.376,1.328,1.328,0,0,0-.637.091,3.475,3.475,0,0,1-1.37.364.74.74,0,0,1-.606-.443.928.928,0,0,1,0-.722,1.686,1.686,0,0,1,.988-.849v.188c-.321-.182-.709.055-1.037.249a1.637,1.637,0,0,1-1.14.37.885.885,0,0,1-.479-.358,1.868,1.868,0,0,0-.352-.37,1.528,1.528,0,0,0-.9-.267,1.468,1.468,0,0,0-.843.267,3.847,3.847,0,0,0-.57.606.922.922,0,0,1-.776.273,5.641,5.641,0,0,1-.709-.109,3.147,3.147,0,0,0-1.965.406,5.857,5.857,0,0,0-.576.418,2.11,2.11,0,0,1,.546-.467,3.141,3.141,0,0,1,2.007-.473c.23,0,.461.085.7.1a.764.764,0,0,0,.667-.243,4.064,4.064,0,0,1,.606-.661,1.643,1.643,0,0,1,.928-.315,1.661,1.661,0,0,1,1.013.3c.321.206.455.606.776.685s.661-.164.988-.364a2.832,2.832,0,0,1,.558-.285.782.782,0,0,1,.685.03l.182.1-.194.085a1.5,1.5,0,0,0-.867.734.788.788,0,0,0,0,.552.546.546,0,0,0,.424.3,3.523,3.523,0,0,0,1.261-.364,1.455,1.455,0,0,1,.764-.1.934.934,0,0,1,.606.485,5.554,5.554,0,0,0,.37.606.54.54,0,0,0,.606.127,1.437,1.437,0,0,1,1.48.655,1.389,1.389,0,0,1,.206.843c0,.285-.067.552-.061.806a.606.606,0,0,0,.3.558,1.4,1.4,0,0,0,.752.042h.176v.176a3.5,3.5,0,0,1-.412,1.54l-.055-.2a2.183,2.183,0,0,1,.667,2.965l-.03-.206a5.529,5.529,0,0,1,.988.97,1.989,1.989,0,0,1,.424,1.395,1.407,1.407,0,0,1-.3.722c-.176.2-.218.279-.182.5.073.443.255.891.3,1.407a1.4,1.4,0,0,1-.691,1.389c-.255.164-.691,0-.716.061a.465.465,0,0,0-.073.188,1.575,1.575,0,0,0,0,.34,4.573,4.573,0,0,1,.042,1.534.873.873,0,0,1-1.461.491l.309-.139c.146.637.291,1.273.443,1.922a2.012,2.012,0,0,1,.042.546.831.831,0,0,1-.273.558.728.728,0,0,1-.606.152,1.213,1.213,0,0,1-.534-.249,1.983,1.983,0,0,1-.552-.946,2.638,2.638,0,0,0-.412-.873,1.3,1.3,0,0,1-.255-.509c-.049-.17-.1-.212-.146-.206a.315.315,0,0,0-.218.2.455.455,0,0,0,.067.346c.133.261.455.5.576.91a.728.728,0,0,1-.091.661c-.152.182-.273.249-.285.346-.061.2.188.5.364.831a1.049,1.049,0,0,1,.146.606,1.213,1.213,0,0,1-.243.576,2.055,2.055,0,0,1-.91.716.794.794,0,0,1-.673,0,.71.71,0,0,1-.3-.606.491.491,0,0,0-.182-.352,3.155,3.155,0,0,1-.394-.406,2.571,2.571,0,0,1-.5-1.043l-.194-.855.515.7a2.553,2.553,0,0,1,.606,1.358,1.091,1.091,0,0,1-.176.637,2.34,2.34,0,0,1-.412.431,4.725,4.725,0,0,0-.667.819,2.541,2.541,0,0,1-.819.806,1.213,1.213,0,0,1-1.182.049l.267-.206a1.334,1.334,0,0,1-1.783,1.607,1.31,1.31,0,0,1-.418-.261c-.127-.115-.206-.243-.279-.291a3.194,3.194,0,0,0-.7,0,2.71,2.71,0,0,1-.879-.127,2.644,2.644,0,0,1-1.383-1.013l-.139-.194.23-.079.461-.146.03.346a8.738,8.738,0,0,1-1.862-.437,2.868,2.868,0,0,1-1.5-1.213,1.892,1.892,0,0,1-.079-1.91,1.855,1.855,0,0,0,.333-.728c0-.206-.194-.352-.455-.455l-3.25-1.213a3.238,3.238,0,0,1-1.5-.916,1.358,1.358,0,0,1-.279-.879,1,1,0,0,1,.437-.831l-.061.206a2.8,2.8,0,0,0-1.213-1.267c-.515-.291-1.122-.449-1.661-.8a1.71,1.71,0,0,1-.879-1.631,1.116,1.116,0,0,1,.606-.752.807.807,0,0,1,.958.146l-.255.109c0-.37-.406-.606-.77-.837a2.177,2.177,0,0,1-1.013-.9.922.922,0,0,1,0-.728,1.625,1.625,0,0,1,.424-.534c.321-.285.673-.5.928-.776v.133c-.073-.249-.431-.443-.5-.855a1.086,1.086,0,0,1,.431-.952c.515-.461,1.213-.534,1.589-.922a.813.813,0,0,0,.3-.691,6.175,6.175,0,0,0-.139-.837.922.922,0,0,1,.273-.873.788.788,0,0,1,.885-.061l-.158.049a1.17,1.17,0,0,1,.97-.606c.37-.061.722-.061,1.055-.091a1.758,1.758,0,0,0,.891-.273.709.709,0,0,0,.249-.327c.042-.109-.036-.218-.133-.334a4.307,4.307,0,0,0-.685-.534,1.346,1.346,0,0,1-.534-.685.715.715,0,0,1,0-.437.467.467,0,0,1,.315-.3.607.607,0,0,1,.406,0,.333.333,0,0,1,.224.334l-.109-.055a.891.891,0,0,1,1.358.388h-.091a.91.91,0,0,1,1.043-.152,1.558,1.558,0,0,1,.606.509,3.123,3.123,0,0,1,.327.534Z" transform="translate(-321.281 -187.178)" fill="#455a64"/><path d="M403.212,207.524a6.8,6.8,0,0,0-2.741-3.778,4.075,4.075,0,0,0-1.765-.879,1.7,1.7,0,0,0-1.746.7l.091,1.11c-.139,1.765,1.213,3.25,1.868,4.9.285.716.509,1.577,1.213,1.886a1.655,1.655,0,0,0,1.182,0A3.424,3.424,0,0,0,403.212,207.524Z" transform="translate(-326.935 -193.339)" fill="#f8951d"/><path d="M390.5,214.76a3.553,3.553,0,0,0-.382-4.542,2.373,2.373,0,0,0-.285-2.874,6.889,6.889,0,0,0-2.607-1.674,4.784,4.784,0,0,0-5.621-3.414c-1.261-1.819-3.9-2.05-6-1.4a5.645,5.645,0,0,1-1.564.364,9.641,9.641,0,0,1-1.17-.146,5.123,5.123,0,0,0-5.069,3.293,4.13,4.13,0,0,1-.443.934,5.583,5.583,0,0,1-1.049.867,3.408,3.408,0,0,0-1.279,2.553,6.037,6.037,0,0,1-.085,2.474,10.765,10.765,0,0,0-.606,1.091c-.382,1.152.9,2.3.685,3.5-.042.243-.152.473-.212.709a2.086,2.086,0,0,0,.152,1.48,3.123,3.123,0,0,1,.479,1.055,3.693,3.693,0,0,1-.164.873c-.133.709,1.437,3.426,2.056,3.8l18.337-.091a3.438,3.438,0,0,0,2.613-2.989,1.274,1.274,0,0,1,.158-.673,1.407,1.407,0,0,1,.5-.334c1.17-.649,1.292-2.274,1.146-3.638a1.722,1.722,0,0,1,0-.558A2.049,2.049,0,0,1,390.5,214.76Z" transform="translate(-314.064 -192.432)" fill="#263238"/><path d="M386.243,217.841a9.811,9.811,0,0,0-5.324-8.489,12.127,12.127,0,0,0-4.7-1.067,7.447,7.447,0,0,0-4.311.97c-1.007.249-4.663,3.693-4.8,7.374a65.514,65.514,0,0,0,.37,12.128c1.122,6.106,5.839,6.767,5.839,6.767v3.42l12.892.388Z" transform="translate(-315.144 -195.477)" fill="#ffbe9d"/><path d="M371,229.307a.788.788,0,0,0,.776.776.758.758,0,0,0,.794-.728.788.788,0,0,0-.776-.776.752.752,0,0,0-.794.728Z" transform="translate(-316.717 -203.474)" fill="#263238"/><path d="M369.7,225.436c.1.1.685-.358,1.534-.376s1.474.388,1.564.285-.061-.23-.333-.418a2.165,2.165,0,0,0-1.261-.358,2.08,2.08,0,0,0-1.213.431C369.738,225.224,369.653,225.436,369.7,225.436Z" transform="translate(-316.2 -201.895)" fill="#263238"/><path d="M376.75,232.258a5.537,5.537,0,0,0-1.383-.212c-.218,0-.424-.055-.461-.2a1.1,1.1,0,0,1,.127-.643c.188-.534.388-1.085.606-1.661a29.381,29.381,0,0,0,1.328-4.342,29.383,29.383,0,0,0-1.674,4.245l-.576,1.674a1.28,1.28,0,0,0-.091.849.57.57,0,0,0,.364.309,1.383,1.383,0,0,0,.37.036A5.289,5.289,0,0,0,376.75,232.258Z" transform="translate(-318.131 -202.144)" fill="#263238"/><path d="M377.366,251.669a15.6,15.6,0,0,0,8.15-2.389s-2.007,4.311-8.156,3.887Z" transform="translate(-319.22 -211.622)" fill="#eb996e"/><path d="M370.131,220.291c.146.2.788.049,1.546.091s1.395.23,1.552.036c.073-.091,0-.291-.279-.491a2.262,2.262,0,0,0-1.213-.4,2.231,2.231,0,0,0-1.267.3C370.168,220,370.04,220.194,370.131,220.291Z" transform="translate(-316.363 -199.909)" fill="#263238"/><path d="M385.261,229.3a.794.794,0,0,1-.77.782.752.752,0,0,1-.8-.722.782.782,0,0,1,.764-.782.758.758,0,0,1,.807.722Z" transform="translate(-321.712 -203.473)" fill="#263238"/><path d="M386.781,225.553c-.1.1-.691-.346-1.534-.352s-1.474.406-1.564.3.061-.23.333-.424a2.153,2.153,0,0,1,1.249-.37,2.086,2.086,0,0,1,1.213.412C386.745,225.322,386.83,225.492,386.781,225.553Z" transform="translate(-321.698 -201.951)" fill="#263238"/><path d="M387,220.835c-.17.188-.819,0-1.607-.036s-1.449.109-1.6-.091c-.061-.1.042-.291.334-.473a2.48,2.48,0,0,1,1.31-.3,2.426,2.426,0,0,1,1.273.406C386.985,220.544,387.07,220.744,387,220.835Z" transform="translate(-321.744 -200.072)" fill="#263238"/><path d="M397.47,232.715c0-.455.491-1.546.94-1.625,1.213-.218,3.371-.176,3.469,2.88.133,4.178-4.093,3.444-4.1,3.329S397.506,234.291,397.47,232.715Z" transform="translate(-327.136 -204.432)" fill="#ffbe9d"/><path d="M399.8,236.641a1.359,1.359,0,0,0,.2.1.746.746,0,0,0,.54,0,1.819,1.819,0,0,0,.782-1.643,2.371,2.371,0,0,0-.237-1.037.819.819,0,0,0-.564-.54.376.376,0,0,0-.424.212c-.049.121,0,.2-.042.206s-.091-.067-.061-.236a.436.436,0,0,1,.152-.267.546.546,0,0,1,.4-.121,1.031,1.031,0,0,1,.782.606,2.462,2.462,0,0,1,.285,1.158,1.892,1.892,0,0,1-1,1.819.788.788,0,0,1-.673-.091C399.8,236.763,399.778,236.647,399.8,236.641Z" transform="translate(-328.049 -205.339)" fill="#eb996e"/><path d="M365.77,215.542a2.426,2.426,0,0,0,1.279-2.274c.564.158,1.11-.606,1.425-1.073s.71-.746.673-1.328a.71.71,0,0,1,.03-.34.728.728,0,0,1,.455-.279,2.8,2.8,0,0,0,1.819-1.989,5.973,5.973,0,0,0,2.874.406,2.262,2.262,0,0,0,3.826-.261,2.043,2.043,0,0,0,1.383.97,6.143,6.143,0,0,0,1.734.055,2.426,2.426,0,0,0,1.643,2.674c.152.042.321.085.394.218a.607.607,0,0,1-.055.467,1.886,1.886,0,0,0,1.322,2.371,1.407,1.407,0,0,0,.182,2.2c.152.091.352.194.334.37a.419.419,0,0,1-.085.182,2.759,2.759,0,0,0-.606,1.395,1.007,1.007,0,0,0,.855,1.1,1.382,1.382,0,0,0-.509.928c0,.364.382.728.716.606.146-.061,2.213-.515,2.3-.643,1.146-1.637-.388-3.371-.552-5.36a12.934,12.934,0,0,0-1.94-5.6,9.544,9.544,0,0,0-1.534-1.977,12.818,12.818,0,0,0-2.335-1.637,11.564,11.564,0,0,0-3.39-1.516c-2.268-.479-4.6.4-6.67,1.419a9.7,9.7,0,0,0-2.244,1.395,8.828,8.828,0,0,0-1.849,2.541,11.121,11.121,0,0,0-1.413,4.317" transform="translate(-314.658 -194.22)" fill="#263238"/><path d="M364.36,212.342a1.575,1.575,0,0,1,.218-.455c.085-.139.206-.3.315-.515a1.819,1.819,0,0,0,.218-.782,6.22,6.22,0,0,0-.042-1.037,4.457,4.457,0,0,1,0-1.213,3.384,3.384,0,0,1,1.019-1.934,5.46,5.46,0,0,1,.649-.509,2.6,2.6,0,0,0,.606-.558,3.685,3.685,0,0,0,.376-.794,5.458,5.458,0,0,1,.976-1.643,5.536,5.536,0,0,1,1.595-1.279,4.742,4.742,0,0,1,.995-.4,4.394,4.394,0,0,1,1.1-.152h.564a3.565,3.565,0,0,1,.558.091,2.662,2.662,0,0,0,1.116,0c.37-.085.734-.224,1.122-.327a6.973,6.973,0,0,1,1.176-.236,6.874,6.874,0,0,1,1.213-.042,6.131,6.131,0,0,1,1.213.2,4.081,4.081,0,0,1,2.134,1.34l.164.2h-.073a4.851,4.851,0,0,1,5.7,3.462l-.036-.042a14.643,14.643,0,0,1,1.48.74,4.529,4.529,0,0,1,1.213,1.043,2.892,2.892,0,0,1,.576,1.431,1.983,1.983,0,0,1-.37,1.419v-.067a3.456,3.456,0,0,1,1.013,2.122,3.565,3.565,0,0,1-.388,2.086,3.306,3.306,0,0,1-.273.418c-.1.133-.2.255-.279.382a.928.928,0,0,0-.139.412,3.509,3.509,0,0,0,0,.437,6.848,6.848,0,0,1,0,1.583,3.244,3.244,0,0,1-.382,1.213,2.037,2.037,0,0,1-.637.691c-.212.146-.4.206-.5.285a1.177,1.177,0,0,0-.152.133.534.534,0,0,1,.139-.146c.1-.085.3-.152.5-.3a1.989,1.989,0,0,0,.606-.691A3.257,3.257,0,0,0,390,217.7a7.17,7.17,0,0,0,0-1.571,2.707,2.707,0,0,1,0-.449,1.031,1.031,0,0,1,.146-.449c.085-.133.188-.261.285-.388a3.035,3.035,0,0,0,.255-.406,3.426,3.426,0,0,0,.37-2.037,3.371,3.371,0,0,0-.988-2.062v-.067a1.868,1.868,0,0,0,.346-1.346,2.771,2.771,0,0,0-.558-1.37,4.208,4.208,0,0,0-1.213-1.013,13.243,13.243,0,0,0-1.467-.734h0v-.03a4.518,4.518,0,0,0-2.025-2.735,4.578,4.578,0,0,0-3.517-.606h-.042V202.4l-.158-.194a3.966,3.966,0,0,0-2.068-1.3,6.338,6.338,0,0,0-1.213-.194,7.185,7.185,0,0,0-1.213.036,6.7,6.7,0,0,0-1.164.23c-.376.1-.74.243-1.128.327a3.031,3.031,0,0,1-.606.079,3.637,3.637,0,0,1-.576-.055l-.558-.085a4.121,4.121,0,0,0-.546-.036,4.2,4.2,0,0,0-1.067.146,4.891,4.891,0,0,0-.976.388,5.524,5.524,0,0,0-2.529,2.856,3.293,3.293,0,0,1-.394.819,2.639,2.639,0,0,1-.649.576,5.373,5.373,0,0,0-.637.5,2.978,2.978,0,0,0-.491.606,3.383,3.383,0,0,0-.521,1.3,4.576,4.576,0,0,0,0,1.213,6.179,6.179,0,0,1,.03,1.043,2.007,2.007,0,0,1-.23.8c-.121.212-.243.376-.334.515a2.154,2.154,0,0,0-.182.321Q364.373,212.315,364.36,212.342Z" transform="translate(-314.103 -192.439)" fill="#455a64"/><path d="M385.586,201.664s-.109-.061-.315-.158a2.887,2.887,0,0,0-.916-.243,2.613,2.613,0,0,0-1.37.23,2.711,2.711,0,0,0-1.213,1.158,2.361,2.361,0,0,0-.2.479.509.509,0,0,0,.042.437l.1.139-.17-.042a1.71,1.71,0,0,0-1.286.182,1.649,1.649,0,0,0-.691.788,1.88,1.88,0,0,0-.152.691v0a1.82,1.82,0,0,1,.121-.722,1.686,1.686,0,0,1,.71-.849,1.819,1.819,0,0,1,1.37-.212l-.061.1a.606.606,0,0,1-.067-.54,2.206,2.206,0,0,1,.212-.509,2.8,2.8,0,0,1,1.286-1.213,2.68,2.68,0,0,1,1.425-.212,2.65,2.65,0,0,1,.934.291,2.25,2.25,0,0,1,.224.139C385.568,201.627,385.592,201.664,385.586,201.664Z" transform="translate(-320.03 -192.676)" fill="#455a64"/><path d="M397.394,209.649a.739.739,0,0,1-.146.152,2.6,2.6,0,0,1-.467.34,2.031,2.031,0,0,1-.825.267,1.51,1.51,0,0,1-1.043-.291h.091l-.121.176-.139.17a2.577,2.577,0,0,1-1.031.673,2.753,2.753,0,0,1-.988.146,2.281,2.281,0,0,1-.661-.139.928.928,0,0,1-.224-.109,3.6,3.6,0,0,0,.885.158,2.736,2.736,0,0,0,.952-.164,2.626,2.626,0,0,0,.976-.649l.133-.158.109-.164.042-.061.048.042a1.437,1.437,0,0,0,.964.279,2.111,2.111,0,0,0,.794-.23C397.134,209.862,397.346,209.631,397.394,209.649Z" transform="translate(-324.919 -196.023)" fill="#455a64"/><path d="M400.542,215.78v.079a.57.57,0,0,1-.085.2,1.1,1.1,0,0,1-.667.461,2.086,2.086,0,0,1-1.213-.1,6.007,6.007,0,0,1-.667-.243,1.176,1.176,0,0,1-.606-.515v-.067h.1a4.792,4.792,0,0,1-1.213.77,2.147,2.147,0,0,1-1.17.146,1.607,1.607,0,0,1-.728-.309,1.3,1.3,0,0,1-.158-.152l-.042-.067a2.175,2.175,0,0,0,.23.176,1.607,1.607,0,0,0,.709.267,2.165,2.165,0,0,0,1.116-.17,4.852,4.852,0,0,0,1.213-.758l.067-.055.03.079v.055a1.025,1.025,0,0,0,.528.455,6.16,6.16,0,0,0,.649.249,2.092,2.092,0,0,0,1.14.127,1.091,1.091,0,0,0,.643-.4A2.318,2.318,0,0,0,400.542,215.78Z" transform="translate(-325.805 -198.302)" fill="#455a64"/><path d="M408.606,191.19a.813.813,0,0,0-.2.036.988.988,0,0,0-.461.315,1.3,1.3,0,0,0-.3.8,3.861,3.861,0,0,0,.182,1.14v.067h-.067a2.359,2.359,0,0,0-1.437.473,1.819,1.819,0,0,0-.758,1.48,1.692,1.692,0,0,0,.637,1.376l.146.109h-.182a2.171,2.171,0,0,0-1.546.758,2.068,2.068,0,0,0-.5,1.3,2.183,2.183,0,0,0,.164.916c.079.206.146.309.139.315a.443.443,0,0,1-.055-.073,1.32,1.32,0,0,1-.127-.224,2.262,2.262,0,0,1-.2-.94,2.153,2.153,0,0,1,.5-1.358,2.274,2.274,0,0,1,1.649-.788l-.036.109a1.819,1.819,0,0,1-.691-1.474,1.9,1.9,0,0,1,.224-.9,2.11,2.11,0,0,1,.606-.673,2.511,2.511,0,0,1,1.51-.485l-.055.067a3.9,3.9,0,0,1-.164-1.164,1.346,1.346,0,0,1,.34-.843.94.94,0,0,1,.5-.3.479.479,0,0,1,.152,0Z" transform="translate(-329.722 -188.757)" fill="#455a64"/><path d="M416.957,205.338l-.073.042c-.042,0-.109.061-.206.1a3,3,0,0,1-.837.212,3.342,3.342,0,0,1-1.316-.127,3.232,3.232,0,0,1-1.431-.891h.1a2.68,2.68,0,0,1-1.849,1.334,2.025,2.025,0,0,1-2.11-1.061h.109a1.674,1.674,0,0,1-.485.716,2.2,2.2,0,0,1-.679.406,3.074,3.074,0,0,1-1.267.164,6.372,6.372,0,0,1-.825-.115,1.7,1.7,0,0,1-.285-.073,1.71,1.71,0,0,1,.291.036,8.1,8.1,0,0,0,.825.079,3.1,3.1,0,0,0,1.213-.182,1.819,1.819,0,0,0,1.091-1.067l.042-.146.067.139a1.9,1.9,0,0,0,1.977.982,2.565,2.565,0,0,0,1.771-1.267l.042-.067.055.061a3.086,3.086,0,0,0,1.37.873,3.323,3.323,0,0,0,1.279.152,4.074,4.074,0,0,0,1.134-.3Z" transform="translate(-330.414 -194.016)" fill="#455a64"/><path d="M413.057,213.791l-.049.079a.406.406,0,0,1-.23.109,1.989,1.989,0,0,1-.928-.133,2.262,2.262,0,0,1-1.425-2.523h0l.091.067a2.7,2.7,0,0,1-1.668.273,3.032,3.032,0,0,1-1.286-.521,3.37,3.37,0,0,1-.679-.606,1.213,1.213,0,0,1-.194-.285,4.793,4.793,0,0,0,.922.843,3.166,3.166,0,0,0,1.249.479,2.68,2.68,0,0,0,1.595-.267l.109-.061v.127h0A2.189,2.189,0,0,0,411.9,213.8a2.038,2.038,0,0,0,.891.17.442.442,0,0,0,.267-.176Z" transform="translate(-330.765 -196.26)" fill="#455a64"/><path d="M396.373,191.77a3.591,3.591,0,0,0-.164,1.292,3.032,3.032,0,0,0,.437,1.316,2.886,2.886,0,0,0,1.3,1.085,2.765,2.765,0,0,0,.958.23h.079v.073a3.638,3.638,0,0,0,.14,2.426,2.27,2.27,0,0,0,.176.364.309.309,0,0,0,.224.17.218.218,0,0,0,.17-.055s.03-.055.036-.055,0,0,0,.067a.224.224,0,0,1-.182.085.37.37,0,0,1-.273-.176,2.111,2.111,0,0,1-.2-.37,3.516,3.516,0,0,1-.3-1.079,3.639,3.639,0,0,1,.109-1.395l.055.079a2.862,2.862,0,0,1-1-.236,2.947,2.947,0,0,1-1.346-1.134,2.9,2.9,0,0,1-.424-1.376,2.96,2.96,0,0,1,.109-.97,1.52,1.52,0,0,1,.1-.243C396.355,191.8,396.367,191.77,396.373,191.77Z" transform="translate(-326.621 -188.986)" fill="#455a64"/><path d="M377.548,257.739s-.606,7.216,5.027,7.762,7.853-4.554,7.883-6.937l-2.686-1.674Z" transform="translate(-319.286 -214.618)" fill="#ffbe9d"/><path d="M378.488,239.629c.067.1,0,.03.1.1a3.4,3.4,0,0,0,1.213.649,1.1,1.1,0,0,0,1.176-.346.94.94,0,0,0-.115-1.079,1.777,1.777,0,0,0-1.073-.606h-.115a1.037,1.037,0,0,0-1.213,1.116.437.437,0,0,0,.03.164Z" transform="translate(-319.65 -207.314)" fill="#eb996e"/><path d="M381.179,238.87a5.943,5.943,0,0,1-1.68.855,5.585,5.585,0,0,1-1.819.564,5.942,5.942,0,0,1,1.68-.855,5.5,5.5,0,0,1,1.819-.564Z" transform="translate(-319.346 -207.525)" fill="#263238"/><path d="M363.095,259.632l7.847-2.613c2.31,5.651,9.823,4.851,13.055-.449l9.35,3.177,5.257,10.515-3.948,22.212,7.222,14.3-19.356,3.638-16.906-7.841-1.443-1.091L361.3,263.64Z" transform="translate(-312.898 -214.492)" fill="#f8951d"/><path d="M351.306,261.62s-6.234,2.589-6.882,9.478c-.255,2.662-2.134,15.129-2.134,15.129l-8.811-1.049-2.128,7.028s9.854,5.136,12.9,5.8c5.251,1.152,7.792-1.819,7.792-1.819Z" transform="translate(-301.11 -216.48)" fill="#f8951d"/><path d="M361.376,275.48a1.382,1.382,0,0,1,0,.346c0,.243,0,.57-.03.976a11.859,11.859,0,0,0,0,1.546c.036.6,0,1.292,0,2.05s.048,1.589.109,2.48.127,1.819.206,2.844c.188,2,.431,4.19.734,6.494.606,4.6,1.213,8.756,1.461,11.788.079.758.127,1.443.164,2.05s.079,1.122.091,1.546,0,.734.03.976a1.383,1.383,0,0,1,0,.346,3.031,3.031,0,0,1-.042-.34l-.073-.976q-.036-.637-.127-1.546c-.055-.606-.115-1.286-.2-2.037-.315-3.032-.922-7.18-1.528-11.782-.3-2.3-.546-4.5-.716-6.5-.073-1.007-.158-1.959-.188-2.85s-.073-1.728-.079-2.492,0-1.449,0-2.05.03-1.128.067-1.552.055-.728.079-.976A2.487,2.487,0,0,1,361.376,275.48Z" transform="translate(-312.853 -221.935)" fill="#263238"/><path d="M334.2,276.149s2.686-2.6,3.711-2.286a5.627,5.627,0,0,1,1.892,1.128s1.025-.606,1.577,0a9.361,9.361,0,0,1,1.1,1.71,1.879,1.879,0,0,1,1.734,1.122c.758,1.261,2.62,5.5,3.317,6.209a6.331,6.331,0,0,0,2.541,1.461c1,.358,9.375,3.184,9.375,3.184l-3.086,7.7s-12.3-7.2-12.777-7.671-4.178-2.917-4.73-4.421-4.657-6.064-4.657-6.064Z" transform="translate(-302.231 -221.288)" fill="#ffbe9d"/><path d="M345.63,281.479a.522.522,0,0,1-.146.291,1.692,1.692,0,0,1-.715.57l.048-.079a2.51,2.51,0,0,1-.382,1.686,2.152,2.152,0,0,1-.34.412.934.934,0,0,1-.54.267.606.606,0,0,1-.564-.321,1.522,1.522,0,0,1-.176-.606c-.1-.7-.188-1.358-.255-1.971a1.213,1.213,0,0,1,.224-.891,1.819,1.819,0,0,1,.637-.467,5.566,5.566,0,0,0,.964-.485c.2-.146.279-.267.3-.255s-.042.146-.243.327a4.706,4.706,0,0,1-.946.564,1.728,1.728,0,0,0-.558.431,1.043,1.043,0,0,0-.158.758c.079.606.17,1.267.267,1.959.036.364.194.746.5.716a1.213,1.213,0,0,0,.716-.564,2.426,2.426,0,0,0,.382-1.54v-.055h.055a1.819,1.819,0,0,0,.709-.485C345.558,281.564,345.618,281.467,345.63,281.479Z" transform="translate(-305.518 -223.568)" fill="#eb996e"/><path d="M348.286,285.535c0,.055-.431-.1-.716-.528s-.291-.861-.23-.867.164.358.424.734S348.334,285.474,348.286,285.535Z" transform="translate(-307.391 -225.344)" fill="#eb996e"/><path d="M347.743,292.5c-.073,0-.042-.776-.34-1.668s-.758-1.5-.7-1.546a2.813,2.813,0,0,1,.922,1.474A2.863,2.863,0,0,1,347.743,292.5Z" transform="translate(-307.152 -227.371)" fill="#eb996e"/><path d="M341.305,280.883a1.006,1.006,0,0,1-.109.376,1.892,1.892,0,0,1-.637.861,1.061,1.061,0,0,1-.752.194,1.049,1.049,0,0,1-.722-.521,3.116,3.116,0,0,1-.34-.885,7.139,7.139,0,0,1-.176-.988,2.887,2.887,0,0,1,.467-1.886,4.8,4.8,0,0,1,1.067-1.164,9.007,9.007,0,0,1,.861-.606,1.329,1.329,0,0,1,.346-.182c0,.036-.437.346-1.1.922a4.888,4.888,0,0,0-.994,1.152,2.783,2.783,0,0,0-.418,1.752,8,8,0,0,0,.17.952,3.032,3.032,0,0,0,.3.831.879.879,0,0,0,.57.443.934.934,0,0,0,.606-.146,1.885,1.885,0,0,0,.643-.764A1.619,1.619,0,0,1,341.305,280.883Z" transform="translate(-303.946 -222.171)" fill="#eb996e"/><g transform="translate(52.191 68.935)" opacity="0.3"><path d="M389.38,310.72a5.311,5.311,0,0,1-2.68,1.716,5.457,5.457,0,0,1-2.777-.528l-15.16-5.761-1.213,1.674a47.984,47.984,0,0,0,18.143,9.484,7.671,7.671,0,0,0,6.179-1.213,9.672,9.672,0,0,0,2.85-4.038,37.977,37.977,0,0,0,3.032-11.194A75.336,75.336,0,0,1,389.38,310.72Z" transform="translate(-367.55 -300.86)"/></g><path d="M391.7,266.6c-.382.406-9.187,19.2-9.187,19.2l-17.082-3.82-1.928,9.4s15.481,6.87,19.532,8.089c2.589.782,4.366.606,6.9-1.819s8.956-17.979,9.7-21.108c.679-2.977,3.135-10.885-5.4-14.772Z" transform="translate(-313.764 -216.539)" fill="#f8951d"/><path d="M330.531,279.855a.976.976,0,0,0,.491-1.437L320.9,261.4a.764.764,0,0,0-.861-.382l-9.672,2.674c-.764.146-.976,1.419-.649,1.959l10.193,16.233a2.031,2.031,0,0,0,1.856.7" transform="translate(-292.535 -216.232)" fill="#263238"/><path d="M330.695,280.195a1.508,1.508,0,0,1-.194-.273l-.509-.819-1.856-3.032-6.064-10.054c-.606-.976-1.158-1.971-1.722-2.85a1.049,1.049,0,0,0-.564-.358,1.177,1.177,0,0,0-.643.055l-1.3.358-4.505,1.213-3.062.819-.831.206a1.213,1.213,0,0,1-.291.055,1.371,1.371,0,0,1,.279-.1l.825-.249,3.032-.879,4.5-1.267,1.3-.37a1.376,1.376,0,0,1,.722-.061,1.261,1.261,0,0,1,.661.418c.606.934,1.146,1.892,1.746,2.874l6.021,10.1c.752,1.286,1.37,2.329,1.819,3.074l.485.843A2.313,2.313,0,0,1,330.695,280.195Z" transform="translate(-292.371 -216.851)" fill="#455a64"/><path d="M320.647,269.416a.534.534,0,1,1-.534-.546.54.54,0,0,1,.534.546Z" transform="translate(-296.477 -219.333)" fill="#fff"/><path d="M320.021,275.57c-.055.333-2.238,6.949-2.565,7.6a3.5,3.5,0,0,0,0,1.9,2.375,2.375,0,0,0,.437,2.674s.091,1.419.728,1.692a3.287,3.287,0,0,1,1.128.928s3.6,4.906,3.984,5.4a27.328,27.328,0,0,0,2.056,1.94s5.088-1.849,2.389-6.67l-1.534-.97.528-3.917s1.255-.988.982-1.649a.606.606,0,0,0-.819-.382s.479-1.364-.691-1.583L322.15,284.7s3.329-3.353,2.838-4.281-.709-.776-.709-.776l-4.311,3.638s1.073-4.014,1.364-5.294C321.877,275.57,320.021,275.57,320.021,275.57Z" transform="translate(-295.547 -221.971)" fill="#ffbe9d"/><path d="M329.368,290a4.936,4.936,0,0,1-.813.879,15.549,15.549,0,0,1-2.292,1.752,15.71,15.71,0,0,1-2.577,1.3,5.024,5.024,0,0,1-1.146.346,7.891,7.891,0,0,1,1.079-.5,22.309,22.309,0,0,0,2.523-1.34,21.7,21.7,0,0,0,2.3-1.686A8.636,8.636,0,0,1,329.368,290Z" transform="translate(-297.642 -227.65)" fill="#eb996e"/><path d="M324.975,282.24a4.05,4.05,0,0,1-.752.843,26.2,26.2,0,0,1-2.056,1.777,16.372,16.372,0,0,1-3.177,2.153,9.128,9.128,0,0,1,.885-.691c.558-.412,1.316-.994,2.147-1.649s1.571-1.261,2.092-1.71A7.541,7.541,0,0,1,324.975,282.24Z" transform="translate(-296.245 -224.596)" fill="#eb996e"/><path d="M330.568,291.655a.279.279,0,0,1,.273-.061.655.655,0,0,1,.467.606,1.619,1.619,0,0,1-.5,1.013c-.261.309-.564.649-.891.988a18.765,18.765,0,0,1-1.789,1.643,3.779,3.779,0,0,1-.825.576c-.042-.055,1.146-1.019,2.426-2.377.327-.34.606-.667.9-.976a1.552,1.552,0,0,0,.5-.867.558.558,0,0,0-.327-.515C330.671,291.625,330.574,291.674,330.568,291.655Z" transform="translate(-299.515 -228.275)" fill="#eb996e"/><path d="M331.213,298.5c-.055.036-.285-.224-.606-.485s-.606-.437-.606-.5.388,0,.74.315S331.273,298.462,331.213,298.5Z" transform="translate(-300.578 -230.601)" fill="#eb996e"/><path d="M330.261,303.7c.03,0,.03.237-.121.564a2.08,2.08,0,0,1-.964,1.007,2.141,2.141,0,0,1-1.389.176c-.358-.085-.54-.224-.528-.249a4.7,4.7,0,0,1,.552.085,2.219,2.219,0,0,0,2.183-1.091C330.17,303.882,330.225,303.694,330.261,303.7Z" transform="translate(-299.499 -233.043)" fill="#eb996e"/><path d="M328.2,287.07a5.716,5.716,0,0,1-1.007.606c-.606.333-1.522.77-2.523,1.213s-1.91.819-2.583,1.073a5.459,5.459,0,0,1-1.1.364,5.779,5.779,0,0,1,1.043-.515l2.553-1.14,2.541-1.146A5.519,5.519,0,0,1,328.2,287.07Z" transform="translate(-297.028 -226.497)" fill="#eb996e"/><path d="M389.906,275.48s-.036.1-.121.291-.212.467-.376.825l-1.48,3.159c-1.3,2.735-3.153,6.67-5.427,11.473l-.036.067H382.4l-17.088-3.8.139-.085c-.606,3.032-1.261,6.161-1.928,9.405l-.067-.133,1.346.606c5.815,2.541,11.364,4.966,16.5,6.925a13.135,13.135,0,0,0,3.838.988,5.342,5.342,0,0,0,3.456-1.176,8.95,8.95,0,0,0,1.34-1.176,4.845,4.845,0,0,0,.534-.673c.158-.243.333-.467.473-.71.291-.491.57-.964.825-1.449s.5-.946.728-1.413c1.819-3.729,3.1-6.852,4-9l1.013-2.48.261-.643c.061-.146.1-.218.1-.218l-.073.224-.243.655c-.218.576-.54,1.419-.97,2.5-.873,2.159-2.116,5.288-3.935,9.035-.23.467-.467.946-.728,1.425s-.534.964-.825,1.455c-.139.249-.315.479-.473.728a5.356,5.356,0,0,1-.552.7,9.569,9.569,0,0,1-1.358,1.213,6.615,6.615,0,0,1-1.649.916,4.9,4.9,0,0,1-1.928.309,13.34,13.34,0,0,1-3.911-.995c-5.148-1.953-10.7-4.372-16.512-6.913l-1.346-.606-.085-.042v-.091c.661-3.238,1.31-6.391,1.928-9.4v-.115l.109.03,17.076,3.838-.1.049,5.506-11.443c.655-1.346,1.164-2.426,1.522-3.135.17-.352.309-.606.4-.813Z" transform="translate(-313.678 -221.935)" fill="#263238"/><path d="M409.568,322.42a2.6,2.6,0,0,1-.424.382c-.279.237-.7.558-1.243.928a22.764,22.764,0,0,1-9.484,3.717c-.649.091-1.176.146-1.546.158a2.176,2.176,0,0,1-.57,0,3.269,3.269,0,0,1,.564-.1c.364-.042.885-.121,1.528-.23a26.48,26.48,0,0,0,4.894-1.376,26.168,26.168,0,0,0,4.524-2.316c.546-.352.982-.649,1.279-.861A2.485,2.485,0,0,1,409.568,322.42Z" transform="translate(-326.675 -240.411)" fill="#263238"/><path d="M353.124,310.769c-.042,0,.073-.576.067-1.5a9.8,9.8,0,0,0-.152-1.619,11,11,0,0,0-.546-1.9,11.115,11.115,0,0,0-.934-1.759,10.047,10.047,0,0,0-1.013-1.267c-.643-.667-1.122-.994-1.1-1.031s.133.061.352.206a3.026,3.026,0,0,1,.382.291,5.452,5.452,0,0,1,.479.418,8.454,8.454,0,0,1,1.079,1.261,9.955,9.955,0,0,1,.964,1.819,9.646,9.646,0,0,1,.546,1.959,8.166,8.166,0,0,1,.1,1.655,4.848,4.848,0,0,1-.049.637,3.57,3.57,0,0,1-.073.473A1.145,1.145,0,0,1,353.124,310.769Z" transform="translate(-308.233 -232.247)" fill="#263238"/><path d="M355.45,308.642c-.042,0-.115-.449-.34-1.146a9.393,9.393,0,0,0-3.25-4.6,11.418,11.418,0,0,1-.97-.7.988.988,0,0,1,.3.115,6.272,6.272,0,0,1,.764.449,8.428,8.428,0,0,1,2.074,2.056,8.271,8.271,0,0,1,1.213,2.638,5.345,5.345,0,0,1,.17.873A.934.934,0,0,1,355.45,308.642Z" transform="translate(-308.801 -232.449)" fill="#263238"/><path d="M412.56,325.41a2.957,2.957,0,0,1-.267.3c-.182.182-.455.431-.8.728a26.958,26.958,0,0,1-2.85,2.141,28,28,0,0,1-3.1,1.752c-.412.194-.752.346-.988.437a1.214,1.214,0,0,1-.376.121,14.124,14.124,0,0,1,1.292-.709,34.22,34.22,0,0,0,3.032-1.819c1.146-.776,2.165-1.51,2.874-2.068A12.4,12.4,0,0,1,412.56,325.41Z" transform="translate(-329.777 -241.588)" fill="#263238"/><path d="M314.763,388.9,304,406.4l8.514,6.409,13.413-16.391Z" transform="translate(-290.344 -266.579)" fill="#ffbe9d"/><path d="M295.907,414.429l-.431.564s-12.5-3.414-13.947-1.674l19.083,14.329,4.505-6.555a13.656,13.656,0,0,1-9.211-6.664Z" transform="translate(-281.5 -275.996)" fill="#f8951d"/><g transform="translate(18.539 145.338)" opacity="0.6"><path d="M313.664,427.2a.982.982,0,0,1-.127,1.3.94.94,0,0,1-1.286-.115,1.031,1.031,0,0,1,.139-1.37.97.97,0,0,1,1.322.267" transform="translate(-312.053 -426.858)" fill="#fff"/></g><g transform="translate(0 136.883)" opacity="0.6"><path d="M300.593,427.683l1.079-1.577-18.713-13.14s-1.128-.267-1.48.406Z" transform="translate(-281.48 -412.914)" fill="#fff"/></g><path d="M304.355,416.4c-.067.1.364.485.606,1.128s.182,1.213.3,1.249.376-.606.079-1.389S304.4,416.294,304.355,416.4Z" transform="translate(-290.481 -277.395)" fill="#263238"/><path d="M299.988,415.292c-.091.073.194.534.218,1.164s-.206,1.122-.109,1.182.552-.412.509-1.213S300.073,415.2,299.988,415.292Z" transform="translate(-288.758 -276.963)" fill="#263238"/><path d="M295.172,416.445c.067.085.546-.285.691-.976s-.139-1.213-.237-1.17-.036.521-.164,1.085S295.057,416.366,295.172,416.445Z" transform="translate(-286.859 -276.575)" fill="#263238"/><path d="M358.34,414.58l.321,26.535,8.95-2.983,3.147-23.892Z" transform="translate(-311.733 -276.553)" fill="#ffbe9d"/><path d="M365.775,451s-5.852,4.881-9.211,1.419l-.606,1.886-2.377,13.225a1.728,1.728,0,0,0,1.213,1.977,1.759,1.759,0,0,0,1.819-.5c2.353-2.614,10.957-12.267,10.757-13.456l-.327-3.165A1.619,1.619,0,0,0,365.83,451Z" transform="translate(-309.848 -291.023)" fill="#f8951d"/><g transform="translate(45.182 163.434)" opacity="0.6"><path d="M356,471.823,368.124,456.7l.061.691a1.928,1.928,0,0,1-.5,1.589c-.952,1.522-3.638,4.978-10.175,12.273a1.752,1.752,0,0,1-1.522.57Z" transform="translate(-355.99 -456.7)" fill="#fff"/></g><g transform="translate(54.837 161.306)" opacity="0.6"><path d="M372.269,453.439a1,1,0,0,0-.17,1.346,1.025,1.025,0,0,0,1.37.17.97.97,0,1,0-1.273-1.449" transform="translate(-371.913 -453.192)" fill="#fff"/></g><path d="M359.041,468.242a5.184,5.184,0,0,0-1.583-1.146,5.355,5.355,0,0,0-1.959-.188c0-.042.182-.188.57-.273a2.759,2.759,0,0,1,1.528.127,2.662,2.662,0,0,1,1.213.9C359.035,467.987,359.084,468.224,359.041,468.242Z" transform="translate(-310.615 -297.155)" fill="#263238"/><path d="M357.606,472.441a14.112,14.112,0,0,0-1.552-.606,13.025,13.025,0,0,0-1.655-.061,1.961,1.961,0,0,1,1.734-.291C357.145,471.689,357.685,472.381,357.606,472.441Z" transform="translate(-310.181 -299.063)" fill="#263238"/><path d="M361.453,463.32a17.857,17.857,0,0,0-2.328-1.037,23.12,23.12,0,0,0-2.535-.352,3.924,3.924,0,0,1,2.644,0,3.832,3.832,0,0,1,2.219,1.389Z" transform="translate(-311.044 -295.235)" fill="#263238"/><path d="M361.659,457.515c-.036.1-.994-.194-2.207-.127s-2.141.424-2.183.327a3.3,3.3,0,0,1,2.171-.691A3.42,3.42,0,0,1,361.659,457.515Z" transform="translate(-311.311 -293.384)" fill="#263238"/><path d="M358.145,455.7a1.256,1.256,0,0,1,.036-.606,4.287,4.287,0,0,1,.667-1.571,1.922,1.922,0,0,1,.928-.837.7.7,0,0,1,.758.218,1.1,1.1,0,0,1,.194.764,2.426,2.426,0,0,1-2.347,2,2.808,2.808,0,0,1-2.62-1.68.952.952,0,0,1,.03-.8.7.7,0,0,1,.746-.285,2.425,2.425,0,0,1,1.049.661,4.747,4.747,0,0,1,1.013,1.37,1.552,1.552,0,0,1,.206.606,7.664,7.664,0,0,0-1.4-1.771,2.171,2.171,0,0,0-.928-.552.364.364,0,0,0-.406.152.649.649,0,0,0,0,.521,2.517,2.517,0,0,0,2.292,1.437,2.11,2.11,0,0,0,2.013-1.668.788.788,0,0,0-.109-.54.388.388,0,0,0-.418-.127,1.819,1.819,0,0,0-.8.691,6.336,6.336,0,0,0-.9,2.019Z" transform="translate(-310.69 -291.673)" fill="#263238"/><path d="M346.589,327.393A9.919,9.919,0,0,0,338,328.424c-3.535,2.11-26.226,38.809-26.226,38.809l14.693,10.078,20.144-29.877,8.247,7.107s17.076,3.462,22.175,1.273,7.883-7.98,7.471-12.934a25.13,25.13,0,0,0-2.1-8.435c-5.882.9-9.872,3.032-17.943-.819Z" transform="translate(-293.403 -242.159)" fill="#263238"/><path d="M357.763,358.634s9.46-4.02,12.364,3.287c.976,2.462.358,13.213-.127,23.273-.479,9.9-.825,19.125-.825,19.125l-15.5-.418L353.07,377.4s.176-9.763,1.7-12.91S357.763,358.634,357.763,358.634Z" transform="translate(-309.659 -254.231)" fill="#263238"/><path d="M331.858,340.964l-.091.152-.291.449-1.134,1.716-4.245,6.428c-3.638,5.506-8.689,13.28-14.335,22.436l-.03-.152,13.007,8.938,1.674,1.146-.164.03,20.174-29.852h0a7.18,7.18,0,0,0,2-2.529,10.012,10.012,0,0,0,.843-2.765,8.38,8.38,0,0,0-2.068-7.016c-.224-.243-.406-.424-.534-.54l-.188-.176a5.651,5.651,0,0,1,.758.685,8.132,8.132,0,0,1,1.6,2.462,8.314,8.314,0,0,1,.576,4.6,9.661,9.661,0,0,1-.837,2.808,7.15,7.15,0,0,1-2.025,2.6h0l-20.114,29.895-.067.1-.1-.067-1.674-1.146L311.6,372.2l-.085-.061.055-.085c5.658-9.181,10.757-16.936,14.4-22.436l4.305-6.4,1.164-1.7.3-.431q.051-.066.109-.127Z" transform="translate(-293.304 -247.028)" fill="#455a64"/><path d="M409.055,350.214a9.387,9.387,0,0,0-.158-2.583,10.388,10.388,0,0,0-3.184-5.263,22.042,22.042,0,0,0-5.27-3.371l-1.728-.825a4.716,4.716,0,0,1-.606-.321,3.325,3.325,0,0,1,.661.237c.418.17,1.025.424,1.759.758a20.775,20.775,0,0,1,5.36,3.347,10.193,10.193,0,0,1,3.19,5.409,7.011,7.011,0,0,1,.115,1.916,3.339,3.339,0,0,1-.073.521C409.11,350.16,409.067,350.214,409.055,350.214Z" transform="translate(-327.387 -246.485)" fill="#455a64"/><path d="M376.54,404.594a4.712,4.712,0,0,1,0-.509c0-.364,0-.849.03-1.461.042-1.292.1-3.117.182-5.36.182-4.548.437-10.788.716-17.676.146-3.456.285-6.743.412-9.732s.485-5.742-.4-7.834a6.064,6.064,0,0,0-1.777-2.389,5.457,5.457,0,0,0-2-1.043,8.487,8.487,0,0,0-1.419-.3c-.327-.036-.5-.042-.5-.055s.042,0,.127,0a2.82,2.82,0,0,1,.382,0,7.086,7.086,0,0,1,1.443.237,5.955,5.955,0,0,1,3.954,3.469,9.326,9.326,0,0,1,.606,3.675c0,1.334-.073,2.753-.127,4.245-.121,3-.249,6.288-.388,9.739-.315,6.889-.606,13.122-.806,17.676-.121,2.238-.218,4.063-.285,5.354-.036.606-.067,1.1-.085,1.455a2.849,2.849,0,0,1-.061.509Z" transform="translate(-317.024 -254.507)" fill="#455a64"/></g></g></svg>