<svg xmlns="http://www.w3.org/2000/svg" width="250" height="171.466" viewBox="0 0 250 171.466"><g transform="translate(-50.66 -37.469)"><g transform="translate(50.66 203.908)"><path d="M300.66,469.43c0,.054-55.967.1-124.992.1s-125.008-.046-125.008-.1,55.956-.1,125.008-.1S300.66,469.372,300.66,469.43Z" transform="translate(-50.66 -469.33)" fill="#263238"/></g><g transform="translate(232.863 138.291)"><path d="M560.923,414.93l-5.253,21.309h4.1l5.423-19.721-3.661-1.048" transform="translate(-543.243 -370.279)" fill="#455a64"/><path d="M630.53,414.93l5.253,21.309h-4.1l-5.423-19.721,3.661-1.048" transform="translate(-586.628 -370.279)" fill="#455a64"/><circle cx="22.191" cy="22.191" r="22.191" transform="translate(0 32.831) rotate(-45)" fill="#f8951d"/><g transform="translate(0 1.448)" opacity="0.3"><circle cx="22.191" cy="22.191" r="22.191" transform="translate(0 31.383) rotate(-45)"/></g><circle cx="22.191" cy="22.191" r="22.191" transform="translate(0.752 20.953) rotate(-28.17)" fill="#f8951d"/><circle cx="14.865" cy="14.865" r="14.865" transform="matrix(0.592, -0.806, 0.806, 0.592, 10.019, 33.224)" fill="#fff"/><path d="M598.986,365.55a7.276,7.276,0,1,1-7.091-7.454,7.276,7.276,0,0,1,7.091,7.454Z" transform="translate(-560.923 -335.348)" fill="#f8951d"/><path d="M643.716,320.225l-.486-4.748,4.948-5.037.22,5.118Z" transform="translate(-597.058 -306.06)" fill="#455a64"/><path d="M655.787,325.9l-4.879-.52-5.018,4.59,4.891.647Z" transform="translate(-598.693 -315.242)" fill="#455a64"/><g transform="translate(31.766 14.767)" opacity="0.3"><path d="M605.85,352.563l17.285-12.529a20.626,20.626,0,0,0-2.058-2.644l-15.2,14.017Z" transform="translate(-605.85 -337.39)"/></g><path d="M623.448,321.491l-7.08,6.733-11.23,10.687-2.582,2.455c-.817.771.385,2.043,1.218,1.264l7.08-6.737,11.23-10.683,2.582-2.459C625.483,321.981,624.28,320.713,623.448,321.491Z" transform="translate(-571.892 -312.702)" fill="#263238"/></g><g transform="translate(82.047 158.392)"><path d="M192.829,381.338A12.9,12.9,0,0,0,179.88,368a13.721,13.721,0,0,0-13.489,13.458,12.992,12.992,0,0,0,7.323,12.078c-.035,1.588-.069,3.376-.069,3.376l11.562-.058s.112-1.9.17-3.588A13.836,13.836,0,0,0,192.829,381.338Z" transform="translate(-153.171 -361.537)" fill="#f8951d"/><path d="M190.078,412.541c0-4.343.328-8.687.274-13.03,0-.879-.039-1.757-.123-2.628a3.556,3.556,0,0,0-1.326-2.914,1.673,1.673,0,0,0-1.468-.17,2.146,2.146,0,0,0-1.064,1.048,5.534,5.534,0,0,0-.493,3.21,5.781,5.781,0,0,0,3.677,4.775,6.016,6.016,0,0,0,6.078-1.222,6.215,6.215,0,0,0,1.769-6.193c-.312-.906-1.071-1.927-2.143-1.8s-1.542,1.156-1.8,2.081a20.425,20.425,0,0,0-.447,3.276c-.116,1.264-.2,2.532-.262,3.8-.143,2.609-.22,5.218-.358,7.831-.031.574-.066,1.156-.1,1.727,0,.2.285.181.3,0,.32-4.625.312-9.25.771-13.874a13.6,13.6,0,0,1,.5-3.083,2.366,2.366,0,0,1,.856-1.233,1.291,1.291,0,0,1,1.445.027,3.332,3.332,0,0,1,1.156,2.917,6.116,6.116,0,0,1-.925,3.11,5.662,5.662,0,0,1-5.457,2.659,5.353,5.353,0,0,1-4.5-3.7,5.9,5.9,0,0,1-.185-3.052c.212-1.014.871-2.443,2.127-2.058s1.457,1.773,1.561,2.883c.073.771.1,1.542.112,2.312.073,4.024-.177,8.051-.254,12.078v1.222c0,.193.3.181.3,0Z" transform="translate(-165.115 -377.277)" fill="#fff"/><g transform="translate(23.571 42.17)"><path d="M193.26,460.662a3.5,3.5,0,0,1,.744.678.771.771,0,0,0,.609.293h2.312a.805.805,0,0,0,.663-.351,1.488,1.488,0,0,1,.805-.632Z" transform="translate(-193.26 -460.65)" fill="#455a64"/></g><path d="M187.05,443.568c0,.046.466,3.734.647,5.141a1.688,1.688,0,0,0,.937,1.333,1.6,1.6,0,0,0,.659.143l5.1-.031s1.33,0,1.653-1.079,1.029-5.565,1.029-5.565Z" transform="translate(-165.872 -407.945)" fill="#263238"/><path d="M196.731,455.8l-8.864.085a.247.247,0,0,1-.247-.254V455.6a.258.258,0,0,1,.254-.258l8.864-.085a.247.247,0,0,1,.251.254v.031a.262.262,0,0,1-.258.254Z" transform="translate(-166.222 -415.167)" fill="#e0e0e0"/><path d="M196.629,455.732a.308.308,0,0,0,.173-.081.258.258,0,0,0,.069-.216.227.227,0,0,0-.181-.22c-.482,0-1.2,0-2.073.027l-6.86.077a.22.22,0,0,0-.177.1.239.239,0,0,0-.035.1.251.251,0,0,0,0,.108.2.2,0,0,0,.135.139,1.477,1.477,0,0,0,.231,0H190.7l3.083-.019h2.077l-2.077.035-3.083.039h-2.91a.417.417,0,0,1-.135,0,.3.3,0,0,1-.193-.2.42.42,0,0,1,0-.139.312.312,0,0,1,.3-.278l6.856-.05H196.7a.266.266,0,0,1,.2.251.289.289,0,0,1-.085.231A.231.231,0,0,1,196.629,455.732Z" transform="translate(-166.121 -415.099)" fill="#263238"/><path d="M196.666,452.78l-9.25.089a.247.247,0,0,1-.247-.254v-.027a.258.258,0,0,1,.254-.258l9.25-.089a.25.25,0,0,1,.251.254v.039A.258.258,0,0,1,196.666,452.78Z" transform="translate(-165.946 -413.311)" fill="#e0e0e0"/><path d="M196.581,452.736a.27.27,0,0,0,.243-.312.235.235,0,0,0-.208-.208l-2.158.031-7.126.081a.216.216,0,0,0-.181.1.235.235,0,0,0-.031.1.262.262,0,0,0,0,.112.2.2,0,0,0,.158.127h3.137l3.2-.023h2.158l-2.158.035-3.2.042-1.892.019h-1.264a.3.3,0,0,1-.22-.185.385.385,0,0,1,0-.146.293.293,0,0,1,.042-.146.308.308,0,0,1,.258-.146l7.122-.054h2.162a.266.266,0,0,1,.231.239.293.293,0,0,1-.081.239.231.231,0,0,1-.193.089Z" transform="translate(-165.861 -413.268)" fill="#263238"/><path d="M196.643,449.76l-9.5.089a.243.243,0,0,1-.247-.251v-.031a.262.262,0,0,1,.254-.258l9.5-.089a.25.25,0,0,1,.25.254v.046A.262.262,0,0,1,196.643,449.76Z" transform="translate(-165.78 -411.455)" fill="#e0e0e0"/><path d="M196.555,449.735a.278.278,0,0,0,.181-.089.3.3,0,0,0,.062-.235.231.231,0,0,0-.224-.2l-2.212.035-7.3.081a.22.22,0,0,0-.185.108.247.247,0,0,0-.027.108.208.208,0,0,0,0,.112.2.2,0,0,0,.166.123h3.21l3.28-.019h2.208l-2.208.035-3.28.039-1.927.023h-1.287a.293.293,0,0,1-.258-.32.3.3,0,0,1,.039-.15.312.312,0,0,1,.262-.154l7.292-.054h2.212a.258.258,0,0,1,.247.227.293.293,0,0,1-.073.25C196.639,449.762,196.551,449.735,196.555,449.735Z" transform="translate(-165.692 -411.43)" fill="#263238"/><path d="M196.588,446.74l-9.882.1a.247.247,0,0,1-.247-.254v-.031a.262.262,0,0,1,.254-.258l9.882-.092a.25.25,0,0,1,.251.254v.027A.258.258,0,0,1,196.588,446.74Z" transform="translate(-165.509 -409.599)" fill="#e0e0e0"/><path d="M196.459,446.7a.27.27,0,0,0,.239-.339.235.235,0,0,0-.251-.181l-2.312.035-7.569.085a.22.22,0,0,0-.189.116.262.262,0,0,0,0,.227.2.2,0,0,0,.185.108H189.9l3.4-.023H195.6l-2.312.035-3.4.042-2.012.019h-1.333a.293.293,0,0,1-.258-.154.358.358,0,0,1-.035-.154.316.316,0,0,1,.039-.154.3.3,0,0,1,.266-.166l7.565-.058h2.312a.258.258,0,0,1,.274.208.316.316,0,0,1-.062.262.266.266,0,0,1-.146.085Z" transform="translate(-165.38 -409.561)" fill="#263238"/><path d="M183.89,435.324c0,.1.162,2.355.247,3.515a1.357,1.357,0,0,0,.605,1.037l.513.339,9.855-.039.52-.339a1.441,1.441,0,0,0,.644-1.06l.362-3.507Z" transform="translate(-163.93 -402.881)" fill="#e0e0e0"/><g transform="translate(21.96 40.644)" opacity="0.3"><path d="M189.08,456.736a12.77,12.77,0,0,0,2.933.216h2.578c.671-.019,1.287-.058,1.954-.089a1.885,1.885,0,0,0,.771-.173Z" transform="translate(-189.08 -456.69)"/></g><g transform="translate(21.633 39.472)" opacity="0.3"><path d="M188.23,453.7a14.576,14.576,0,0,0,3.16.212h2.783c.721-.019,1.384-.054,2.1-.089a2.085,2.085,0,0,0,.84-.177Z" transform="translate(-188.23 -453.65)"/></g><g transform="translate(21.652 38.32)" opacity="0.3"><path d="M188.28,450.714a14.61,14.61,0,0,0,3.164.212h2.779c.725-.019,1.387-.058,2.108-.089a2.174,2.174,0,0,0,.84-.177Z" transform="translate(-188.28 -450.66)"/></g><g transform="translate(21.675 37.168)" opacity="0.3"><path d="M188.34,447.72a14.607,14.607,0,0,0,3.164.216h2.779c.725-.019,1.387-.058,2.108-.092a2.121,2.121,0,0,0,.841-.174Z" transform="translate(-188.34 -447.67)"/></g><path d="M196.594,445.545c0,.023-2.636.058-5.885.077s-5.889,0-5.889,0,2.636-.058,5.889-.077S196.594,445.521,196.594,445.545Z" transform="translate(-164.502 -409.186)" fill="#263238"/><path d="M196.388,435.017c0,.027-2.86.077-6.394.112s-6.394.039-6.394,0,2.86-.077,6.394-.112S196.388,435,196.388,435.017Z" transform="translate(-163.752 -402.713)" fill="#263238"/><g transform="translate(23.976 7.856)" opacity="0.2"><path d="M194.31,374.18a2.312,2.312,0,0,1,.917-1.63,3.923,3.923,0,0,1,2.813-.925,9.016,9.016,0,0,1,7.037,3.469,5.675,5.675,0,0,1,1.414,3.4,2.108,2.108,0,0,1-.7,1.48c-1.125.956-2.671.173-3.573-.836-.844-.94-1.507-2.135-2.663-2.64a11.815,11.815,0,0,0-3.083-.428C195.439,375.918,194.322,375.232,194.31,374.18Z" transform="translate(-194.31 -371.615)" fill="#fff"/></g><g transform="translate(34.545 17.723)" opacity="0.2"><path d="M221.794,398.508a2.016,2.016,0,0,1,2.077-1.283,1.958,1.958,0,0,1,1.318,1.137,1.927,1.927,0,0,1-.459,2.043,1.734,1.734,0,0,1-2.035.235A2.127,2.127,0,0,1,221.794,398.508Z" transform="translate(-221.734 -397.215)" fill="#fff"/></g><path d="M142.725,368.856c-.031.046-2.432-1.453-5.369-3.349s-5.288-3.469-5.257-3.519,2.432,1.453,5.369,3.349S142.756,368.81,142.725,368.856Z" transform="translate(-132.099 -357.841)" fill="#263238"/><path d="M160.08,357.211a68.688,68.688,0,0,1-4.34-5.981,34.01,34.01,0,0,1,2.251,2.933,33.111,33.111,0,0,1,2.089,3.048Z" transform="translate(-146.629 -351.23)" fill="#263238"/><path d="M142.643,391.884a10.323,10.323,0,0,1-1.118-.1c-.7-.081-1.665-.2-2.729-.347s-2.027-.289-2.725-.385c-.347-.058-.628-.112-.821-.154l-.22-.058a.15.15,0,0,1-.062-.027c.023-.039.023,0,.027,0a1.348,1.348,0,0,1,.266.019l.832.089c.7.085,1.661.2,2.729.351A25.632,25.632,0,0,1,142.643,391.884Z" transform="translate(-133.864 -375.547)" fill="#263238"/></g><g transform="translate(176.541 51.261)"><path d="M391.293,140.485a37.838,37.838,0,1,1,57.124-11.4l-10.383-5.619a26.041,26.041,0,1,0-39.311,7.854Z" transform="translate(-377.286 -73.254)" fill="#455a64"/><g transform="translate(16.711 3.521)" opacity="0.3"><path d="M463.358,97.8l.971,1.1,3.469-3.037c-.123-.254-.258-.5-.385-.744v-.042c0-.008,0,0-.031,0a9.637,9.637,0,0,0-.674-1h0a11.3,11.3,0,0,0-1.869-1.873h0c-.239-.193-.486-.385-.744-.559l-3.469,3.037.944,1.075-1.114.979a23.451,23.451,0,0,0-13.3-6.348l.089-2.066,1.734.069.22-5.342c.058-.035.089-.062.085-.069s-.031,0-.081,0h0a12.718,12.718,0,0,0-6.66-.277v.046h-.035s0,.023.031.042l-.22,5.342,1.692.073-.085,2.008a23.413,23.413,0,0,0-14.364,5.091l-1.041-1.318,1.156-.91-2.852-3.607c-.262.108-.516.227-.771.358h-.039s0,0,0,.035a9.4,9.4,0,0,0-1.033.62h0a11.319,11.319,0,0,0-1.973,1.769h0c-.2.227-.385.462-.594.713l2.848,3.607,1.125-.886,1.137,1.441a23.544,23.544,0,1,0,34.8,1.63Z" transform="translate(-420.647 -82.389)"/></g><rect width="2.732" height="4.266" transform="matrix(0.785, -0.62, 0.62, 0.785, 20.093, 16.814)" fill="#263238"/><path d="M428.409,106.951l-4.421,3.488-2.848-3.607a10.726,10.726,0,0,1,4.417-3.492Z" transform="translate(-404.239 -91.745)" fill="#f8951d"/><path d="M425.692,114.279a9.027,9.027,0,0,1-1.623-1.769,9.287,9.287,0,0,1-1.368-1.973,9.312,9.312,0,0,1,1.623,1.769A8.818,8.818,0,0,1,425.692,114.279Z" transform="translate(-405.195 -96.167)" fill="#263238"/><path d="M427.909,112.3a9.735,9.735,0,0,1-1.6-1.861,12.666,12.666,0,0,1-1.376-2.035,7.731,7.731,0,0,1,1.638,1.834A8.806,8.806,0,0,1,427.909,112.3Z" transform="translate(-406.568 -94.853)" fill="#263238"/><path d="M430.813,109.905a9.569,9.569,0,0,1-1.611-1.888,11.287,11.287,0,0,1-1.368-2.07,9.456,9.456,0,0,1,1.63,1.873A9.814,9.814,0,0,1,430.813,109.905Z" transform="translate(-408.35 -93.346)" fill="#263238"/><path d="M433.484,108.029a9.081,9.081,0,0,1-1.611-1.792,8.681,8.681,0,0,1-1.353-1.993,8.686,8.686,0,0,1,1.611,1.792A8.868,8.868,0,0,1,433.484,108.029Z" transform="translate(-410 -92.298)" fill="#263238"/><rect width="2.732" height="4.266" transform="translate(57.038 17.052) rotate(48.68)" fill="#263238"/><path d="M524.069,116.292l-3.719-4.239,3.469-3.033a10.742,10.742,0,0,1,3.719,4.239Z" transform="translate(-465.213 -95.236)" fill="#f8951d"/><path d="M521.925,113.665a9.038,9.038,0,0,1,1.684-1.715,8.669,8.669,0,0,1,1.9-1.468,8.651,8.651,0,0,1-1.684,1.715A8.817,8.817,0,0,1,521.925,113.665Z" transform="translate(-466.179 -96.131)" fill="#263238"/><path d="M523.765,115.776a9.658,9.658,0,0,1,1.781-1.7,12.739,12.739,0,0,1,1.954-1.48c.085.081-.709.859-1.746,1.73A9.42,9.42,0,0,1,523.765,115.776Z" transform="translate(-467.311 -97.436)" fill="#263238"/><path d="M526.215,118.546a9.643,9.643,0,0,1,1.8-1.707,10.675,10.675,0,0,1,2-1.476,17.625,17.625,0,0,1-3.8,3.183Z" transform="translate(-468.816 -99.132)" fill="#263238"/><path d="M528.505,121.115a9.185,9.185,0,0,1,1.7-1.7,8.146,8.146,0,0,1,1.927-1.457,8.194,8.194,0,0,1-1.7,1.7A8.9,8.9,0,0,1,528.505,121.115Z" transform="translate(-470.223 -100.725)" fill="#263238"/><rect width="3.237" height="5.049" transform="matrix(1, 0.04, -0.04, 1, 38.795, 8.564)" fill="#263238"/><path d="M479.49,90.981l-6.66-.277.224-5.438a12.718,12.718,0,0,1,6.66.277Z" transform="translate(-436.007 -80.442)" fill="#f8951d"/><path d="M480.093,86.151a6.1,6.1,0,0,1-3.418.717,6.4,6.4,0,0,1-3.357-.964,14.241,14.241,0,0,0,3.368.64A18.635,18.635,0,0,0,480.093,86.151Z" transform="translate(-436.306 -81.027)" fill="#263238"/><path d="M478.392,92.662a8.366,8.366,0,0,1-.066-2.339,8.5,8.5,0,0,1,.258-2.312,8.5,8.5,0,0,1,.066,2.336A8.518,8.518,0,0,1,478.392,92.662Z" transform="translate(-439.368 -82.323)" fill="#263238"/><path d="M481.673,92.826a8.621,8.621,0,0,1-.066-2.351,8.407,8.407,0,0,1,.262-2.336,8.458,8.458,0,0,1,.065,2.351A8.406,8.406,0,0,1,481.673,92.826Z" transform="translate(-441.386 -82.403)" fill="#263238"/><path d="M484.963,92.906a8.618,8.618,0,0,1-.066-2.351,8.407,8.407,0,0,1,.262-2.336,8.459,8.459,0,0,1,.066,2.351A8.409,8.409,0,0,1,484.963,92.906Z" transform="translate(-443.408 -82.452)" fill="#263238"/><path d="M487.709,92.414a10.13,10.13,0,0,1-.058-2.54,9.9,9.9,0,0,1,.27-2.524,9.938,9.938,0,0,1,.058,2.54A10.116,10.116,0,0,1,487.709,92.414Z" transform="translate(-445.098 -81.918)" fill="#263238"/><path d="M475.289,91.814a10.134,10.134,0,0,1-.058-2.54,9.907,9.907,0,0,1,.27-2.524,9.933,9.933,0,0,1,.058,2.54A10.114,10.114,0,0,1,475.289,91.814Z" transform="translate(-437.464 -81.549)" fill="#263238"/><circle cx="23.544" cy="23.544" r="23.544" transform="translate(8.274 22.3) rotate(-20.94)" fill="#f8951d"/><circle cx="19.775" cy="19.775" r="19.775" transform="translate(10.717 35.694) rotate(-45)" fill="#fff"/><path d="M465.648,135.057a2.883,2.883,0,0,1,0-.32c0-.227,0-.54-.027-.94V133.1c0-.254-.058-.528-.089-.829a14.9,14.9,0,0,0-.331-2.054,18.844,18.844,0,0,0-1.973-5.326,19.752,19.752,0,0,0-12.88-9.781,17.787,17.787,0,0,0-2.467-.385c-.424-.031-.848-.092-1.28-.1h-1.958l-.655.073c-.439.054-.886.089-1.33.158a20.457,20.457,0,0,0-2.648.663,19.956,19.956,0,0,0-2.6,1.017c-.424.2-.832.451-1.253.678a10.5,10.5,0,0,0-1.214.771,22.178,22.178,0,0,0-2.312,1.8,21.822,21.822,0,0,0-2.016,2.193,18.927,18.927,0,0,0-3.025,5.28,19.455,19.455,0,0,0-.516,12.367,18.969,18.969,0,0,0,2.574,5.515,22.375,22.375,0,0,0,1.827,2.351,22.118,22.118,0,0,0,2.147,1.985,9.932,9.932,0,0,0,1.156.863c.385.262.771.54,1.187.771a20.426,20.426,0,0,0,2.513,1.229,20.81,20.81,0,0,0,2.582.879c.435.108.875.177,1.31.27l.647.127c.22.039.439.046.655.069l1.295.123c.428.023.856,0,1.28,0a18.293,18.293,0,0,0,2.494-.185,19.756,19.756,0,0,0,13.647-8.679A18.817,18.817,0,0,0,464.8,139.8a14.077,14.077,0,0,0,.5-2.02c.058-.3.123-.567.158-.821s.05-.478.073-.686q.062-.6.1-.937c.023-.208.046-.316.046-.316v.32c0,.212-.039.536-.069.94,0,.208-.035.439-.058.69s-.092.528-.146.829a13.914,13.914,0,0,1-.5,2.073,18.728,18.728,0,0,1-2.393,5.2,19.863,19.863,0,0,1-13.763,8.864,18.748,18.748,0,0,1-2.524.193c-.432,0-.867.023-1.3,0l-1.314-.119c-.22-.023-.443-.031-.663-.069l-.659-.127c-.439-.092-.886-.162-1.33-.27a20.812,20.812,0,0,1-2.625-.886,20.226,20.226,0,0,1-2.551-1.245c-.412-.243-.805-.524-1.21-.771a10.247,10.247,0,0,1-1.156-.875,21.856,21.856,0,0,1-2.181-2.012,22.256,22.256,0,0,1-1.861-2.389,19.246,19.246,0,0,1-2.621-5.6,19.733,19.733,0,0,1,.524-12.572,19.3,19.3,0,0,1,3.083-5.365,22.54,22.54,0,0,1,2.05-2.228,23.283,23.283,0,0,1,2.339-1.823,11.228,11.228,0,0,1,1.237-.771c.428-.227.844-.478,1.272-.686a20.635,20.635,0,0,1,2.648-1.029,21.168,21.168,0,0,1,2.7-.663c.451-.073.906-.1,1.349-.158l.671-.073h1.985c.436,0,.867.073,1.295.108a18.291,18.291,0,0,1,2.5.385,19.887,19.887,0,0,1,12.961,9.92,18.643,18.643,0,0,1,1.927,5.4,14.3,14.3,0,0,1,.3,2.07c.027.3.065.582.077.836s0,.486,0,.694v.944A1.251,1.251,0,0,1,465.648,135.057Z" transform="translate(-407.205 -98.543)" fill="#263238"/><path d="M516.264,165.892A11.289,11.289,0,0,1,513,165.56a11.283,11.283,0,0,1,3.268-.3c1.8-.031,3.264.116,3.264.328S518.068,165.93,516.264,165.892Z" transform="translate(-460.696 -129.801)" fill="#263238"/><path d="M504.749,193.357a11.226,11.226,0,0,1-2.089-2.528,11.3,11.3,0,0,1,2.532,2.085c1.3,1.245,2.239,2.378,2.089,2.528S506,194.66,504.749,193.357Z" transform="translate(-454.337 -145.512)" fill="#263238"/><path d="M477.125,204.484a11.169,11.169,0,0,1,.293-3.264,11.248,11.248,0,0,1,.331,3.26c.05,1.8-.077,3.268-.289,3.268S477.1,206.288,477.125,204.484Z" transform="translate(-438.645 -151.902)" fill="#263238"/><path d="M443.161,193.265a11.184,11.184,0,0,1,2.505-2.116,11.309,11.309,0,0,1-2.058,2.555c-1.233,1.318-2.351,2.262-2.505,2.116S441.874,194.529,443.161,193.265Z" transform="translate(-416.498 -145.709)" fill="#263238"/><path d="M428.64,165.82a10.9,10.9,0,0,1,3.272.258,11.5,11.5,0,0,1-3.26.385c-1.8.085-3.264-.046-3.272-.258S426.841,165.812,428.64,165.82Z" transform="translate(-406.844 -130.145)" fill="#263238"/><path d="M442.415,131.735a11.34,11.34,0,0,1,2.143,2.482,11.293,11.293,0,0,1-2.578-2.027c-1.333-1.218-2.289-2.312-2.143-2.482S441.139,130.471,442.415,131.735Z" transform="translate(-415.72 -107.939)" fill="#263238"/><path d="M476.184,116.867a11.68,11.68,0,0,1-.224,3.272,11.2,11.2,0,0,1-.4-3.257c-.089-1.8,0-3.264.224-3.272S476.173,115.063,476.184,116.867Z" transform="translate(-437.662 -98.057)" fill="#263238"/><path d="M504.237,130.255a11.351,11.351,0,0,1-2.459,2.174,11.225,11.225,0,0,1,2-2.6c1.206-1.345,2.312-2.312,2.455-2.17S505.5,128.964,504.237,130.255Z" transform="translate(-453.794 -106.682)" fill="#263238"/><path d="M482.875,139.23a68.039,68.039,0,0,1-.624,8.671,10.819,10.819,0,0,1-.771,3.045,4.074,4.074,0,0,1-2.151,2.185,2.54,2.54,0,0,1-2.86-.682Z" transform="translate(-438.244 -113.803)" fill="#e0e0e0"/><path d="M476.72,142.979,484.4,131.19l-4.9,13.47-2.243.57Z" transform="translate(-438.398 -108.862)" fill="#f8951d"/><g transform="translate(40.164 22.328)" opacity="0.4"><path d="M487.339,131.19,481.5,143.322l.94,1.337Z" transform="translate(-481.5 -131.19)"/></g><path d="M476.748,164.026a2.312,2.312,0,1,1-.609-1.664A2.312,2.312,0,0,1,476.748,164.026Z" transform="translate(-435.574 -127.561)" fill="#fafafa"/><path d="M476.492,163.8c-.031,0-.023-.208-.112-.555a2.312,2.312,0,0,0-.8-1.233,2.212,2.212,0,0,0-2.054-.385,2.166,2.166,0,0,0-.166,4.074,2.208,2.208,0,0,0,2.077-.2,2.313,2.313,0,0,0,.9-1.156c.116-.339.127-.547.158-.543a1.156,1.156,0,0,1-.035.578,2.312,2.312,0,0,1-.89,1.314,2.413,2.413,0,0,1-2.312.285,2.451,2.451,0,0,1,.189-4.625,2.424,2.424,0,0,1,2.293.478,2.312,2.312,0,0,1,.771,1.384A1.206,1.206,0,0,1,476.492,163.8Z" transform="translate(-435.318 -127.337)" fill="#263238"/><path d="M477.1,164.94a1.719,1.719,0,1,1-.451-1.237,1.719,1.719,0,0,1,.451,1.237Z" transform="translate(-436.52 -128.502)" fill="#455a64"/><path d="M511.13,180.888l-1.465,25.305a1.422,1.422,0,0,0,1.734,1.472l25.822-5.835a1.426,1.426,0,0,0,.574-2.5l-24.338-19.47a1.422,1.422,0,0,0-2.328,1.029Z" transform="translate(-458.645 -138.573)" fill="#455a64"/></g><g transform="translate(95.396 37.469)"><path d="M166.965,308.08l14.518,18.734a1.106,1.106,0,0,0,1.711.046l15.177-17.59a1.106,1.106,0,0,0-.794-1.827L167.9,306.307a1.1,1.1,0,0,0-.937,1.773Z" transform="translate(-166.736 -202.696)" fill="#f8951d"/><path d="M310.4,391.09a42.987,42.987,0,0,1-35.249,18.4H237.59v11.8h37.561a54.767,54.767,0,0,0,44.037-22.211Z" transform="translate(-210.283 -254.805)" fill="#f8951d"/><path d="M288.491,203.28a54.791,54.791,0,0,0-95.671,36.509h11.8A43,43,0,0,1,279.562,211Z" transform="translate(-182.767 -128.124)" fill="#f8951d"/><path d="M435.53,243.908l-9.25,7.369a42.918,42.918,0,0,1,2.833,44.856l9.2,7.708a54.7,54.7,0,0,0-2.794-59.941Z" transform="translate(-326.252 -164.342)" fill="#f8951d"/><g transform="translate(10.588 101.271)" opacity="0.3"><path d="M194.21,302.934l11.878.432.543-2.655-11.92-.47Z" transform="translate(-194.21 -300.24)"/></g><g transform="translate(54.955 56.846)" opacity="0.3"><path d="M309.33,197.927l1.919-.4,3.742-10.113,11.724-.659-10.976-1.781-2.84.366Z" transform="translate(-309.33 -184.97)"/></g><path d="M315.35,119.615s-.409.177-.474-.385,1.075-1.684,1.441-2.046a1.388,1.388,0,0,1,1.349-.181,12.278,12.278,0,0,1,2.983.7c.628.4,1.592,2.424,1.792,2.521s6.1.385,6.1.385l-.254,4.841s-5.781-1.106-6.937-1.823-1-1-1.322-1.673-.678-1.38-.678-1.38l-.543-.092-.867.482s-.1,1.229-.964,1.195l-.424-.22s-.281.324-.6-.177-.262-.57-.262-.57-.335.416-.7-.1S315.35,119.615,315.35,119.615Z" transform="translate(-257.781 -86.297)" fill="#ae7461"/><path d="M325.109,123.6a.153.153,0,0,0-.062.023,1.157,1.157,0,0,1-.193,0,1.368,1.368,0,0,1-.7-.2,1.839,1.839,0,0,1-.736-.817,3.6,3.6,0,0,1-.3-1.357l.092.058a3.515,3.515,0,0,1-2.312.212.914.914,0,0,1-.447-.208.227.227,0,0,1,0-.285.47.47,0,0,1,.208-.135c.532-.216,1.017-.385,1.434-.509s.771-.212.99-.266a1.834,1.834,0,0,1,.385-.066,1.982,1.982,0,0,1-.355.116c-.231.069-.567.17-.975.308s-.89.316-1.418.536a.385.385,0,0,0-.154.092.092.092,0,0,0,0,.123.8.8,0,0,0,.385.162,3.469,3.469,0,0,0,2.208-.2l.089-.042v.1a3.526,3.526,0,0,0,.277,1.314,1.819,1.819,0,0,0,.674.794,1.461,1.461,0,0,0,.655.224A2.394,2.394,0,0,0,325.109,123.6Z" transform="translate(-261.178 -88.224)" fill="#6f4439"/><path d="M319.4,120.609a.821.821,0,0,1-.555.108,3.952,3.952,0,0,0-.605,0,.821.821,0,0,0-.605.3,3.187,3.187,0,0,1-1.11.8,1.341,1.341,0,0,1-.547.15s.2-.081.5-.239a3.642,3.642,0,0,0,1.056-.805,1.029,1.029,0,0,1,.324-.251.937.937,0,0,1,.385-.085,4.439,4.439,0,0,1,.617.046,2.671,2.671,0,0,0,.536-.027Z" transform="translate(-258.462 -88.555)" fill="#6f4439"/><path d="M318.713,124a2.247,2.247,0,0,1-.752,1.017,2.312,2.312,0,0,1-1.122.59,9.879,9.879,0,0,0,1.033-.694A9.642,9.642,0,0,0,318.713,124Z" transform="translate(-258.99 -90.651)" fill="#6f4439"/><path d="M320.384,125.91a2.143,2.143,0,0,1-1.175,1.607c-.023-.035.351-.293.674-.74S320.341,125.9,320.384,125.91Z" transform="translate(-260.445 -91.825)" fill="#6f4439"/><path d="M346.046,99.44l-5.284,9.539-8.205-.143-.617,4.925,8.467,2.077,3.484-3.827Z" transform="translate(-268.271 -75.557)" fill="#e0e0e0"/><path d="M355.478,125.833c-.042,0-.093-.385-.278-.832s-.416-.771-.385-.771a2.023,2.023,0,0,1,.659,1.619Z" transform="translate(-282.328 -90.793)" fill="#263238"/><path d="M371.282,44.472a1.376,1.376,0,0,1-.632-2.663,1.434,1.434,0,0,1,1.2-2.44,1.715,1.715,0,0,1,2.559-1.449,1.927,1.927,0,0,1,2.359-.092,1.372,1.372,0,0,1,1.253,2.312" transform="translate(-291.495 -37.469)" fill="#263238"/><path d="M378.808,41.91h-.3a5.835,5.835,0,0,0-5.715,5.48c-.173,2.829-.328,5.951-.281,7.465a3.766,3.766,0,0,0,3.245,3.561l-.193,3.769.385,2.875,7.23-3.257.409-13.67C383.787,44.881,382.072,42.037,378.808,41.91Z" transform="translate(-293.198 -40.199)" fill="#ae7461"/><path d="M380.839,82.7a7.612,7.612,0,0,0,4.085-1.283,3.968,3.968,0,0,1-4.1,2.2Z" transform="translate(-298.313 -64.482)" fill="#6f4439"/><path d="M376.2,63.831a.443.443,0,0,0,.439.443.424.424,0,0,0,.455-.412.455.455,0,0,0-.443-.443.428.428,0,0,0-.451.412Z" transform="translate(-295.473 -53.418)" fill="#263238"/><path d="M375.058,59.319c.058.058.385-.2.875-.208s.836.227.89.166-.035-.131-.193-.239a1.214,1.214,0,0,0-.713-.208,1.183,1.183,0,0,0-.694.239C375.078,59.188,375.031,59.28,375.058,59.319Z" transform="translate(-294.767 -50.597)" fill="#263238"/><path d="M387.57,63.831a.443.443,0,0,0,.439.443.424.424,0,0,0,.455-.412.451.451,0,0,0-.439-.443.432.432,0,0,0-.455.412Z" transform="translate(-302.461 -53.418)" fill="#263238"/><path d="M387.348,59.315c.058.058.385-.2.871-.208s.84.227.894.166-.035-.131-.193-.239a1.226,1.226,0,0,0-.713-.2,1.183,1.183,0,0,0-.694.239C387.368,59.184,387.321,59.28,387.348,59.315Z" transform="translate(-302.32 -50.597)" fill="#263238"/><path d="M381.04,63.046a3.192,3.192,0,0,0-.771-.127c-.123,0-.243-.031-.262-.116a.617.617,0,0,1,.073-.366c.112-.3.224-.613.347-.944a16.067,16.067,0,0,0,.771-2.463,16.007,16.007,0,0,0-.964,2.4l-.351.948a.732.732,0,0,0-.054.486.312.312,0,0,0,.2.173.91.91,0,0,0,.212.027,3.16,3.16,0,0,0,.794-.015Z" transform="translate(-297.692 -50.721)" fill="#263238"/><path d="M386.171,54.455c.065.119.478-.019.987-.046s.936.05.979-.077c.019-.062-.073-.17-.258-.266a1.542,1.542,0,0,0-.771-.143,1.48,1.48,0,0,0-.732.239C386.217,54.278,386.144,54.4,386.171,54.455Z" transform="translate(-301.598 -47.579)" fill="#263238"/><path d="M374.885,54.171c.1.108.5,0,.979-.031s.883.058.975-.058c.039-.058-.027-.166-.208-.266a1.542,1.542,0,0,0-.8-.162,1.5,1.5,0,0,0-.771.235C374.892,53.986,374.839,54.1,374.885,54.171Z" transform="translate(-294.655 -47.415)" fill="#263238"/><path d="M373.984,45.35s.771-1.981,1.727-2.455c1.133-.578,1.65.671,2.736.343s2.17-.879,3.3-.054c1.237.9.678,1.542.771,2.948.416,5.631,1.476,7.207,1.715,4.544.027-.293.832-.54.925-1.769a13.784,13.784,0,0,0-.227-4.659,4.52,4.52,0,0,0-1.865-2.312,7.432,7.432,0,0,0-5.107-.925C376.528,41.184,373.787,42.88,373.984,45.35Z" transform="translate(-294.105 -39.592)" fill="#263238"/><path d="M400,64.664a.848.848,0,0,1,.9-.836c.586.042,1.245.362,1.229,1.572a1.611,1.611,0,0,1-2.177,1.611C399.945,66.949,399.969,65.569,400,64.664Z" transform="translate(-310.069 -53.668)" fill="#ae7461"/><path d="M401.186,67.292a.631.631,0,0,0,.1.058.385.385,0,0,0,.281,0,.917.917,0,0,0,.439-.821,1.2,1.2,0,0,0-.1-.536.431.431,0,0,0-.277-.293.189.189,0,0,0-.22.1c-.031.062-.019.1-.031.108s-.042-.039-.027-.127a.25.25,0,0,1,.089-.131.285.285,0,0,1,.208-.054.543.543,0,0,1,.385.339,1.249,1.249,0,0,1,.119.6.975.975,0,0,1-.555.921.42.42,0,0,1-.343-.062C401.186,67.357,401.178,67.292,401.186,67.292Z" transform="translate(-310.828 -54.755)" fill="#6f4439"/><path d="M386.117,45.3a2,2,0,0,1-.9.435.7.7,0,0,1-.771-.474c-.027-.15,0-.324-.092-.439s-.335-.085-.516-.066a1.718,1.718,0,0,1-1.542-1.2.559.559,0,0,1-.744.17,2.009,2.009,0,0,1-.532-.451.886.886,0,0,0-.744-.355,2.019,2.019,0,0,1-.463.112c-.281-.019-.428-.347-.474-.624s-.089-.605-.328-.752a1.156,1.156,0,0,0-.771,0c-.258.046-.594,0-.667-.262a.493.493,0,0,1,.089-.385,1.391,1.391,0,0,1,1.626-.559,1.881,1.881,0,0,1,3.453-.439,1.927,1.927,0,0,1,3.083.64,1.384,1.384,0,0,1,1.6,1.981,1.31,1.31,0,0,1,.713,1.029.771.771,0,0,1-.836.771.771.771,0,0,1-.281,1.01.8.8,0,0,1-1.029-.22" transform="translate(-296.314 -38.443)" fill="#263238"/><path d="M381.667,44.3a.325.325,0,0,0,0,.039.838.838,0,0,0,0,.112,1.252,1.252,0,0,0,.162.412,1.541,1.541,0,0,0,.486.5,1.434,1.434,0,0,0,.883.231l-.039-.046a.771.771,0,0,0,.058.594,2.174,2.174,0,0,0,.385.516,1.475,1.475,0,0,0,.247.243.717.717,0,0,0,.343.119.771.771,0,0,0,.682-.262l-.081-.019a1.619,1.619,0,0,0,.705,1.1,1.156,1.156,0,0,0,.709.216,2.155,2.155,0,0,0,.69-.166l-.058-.023a1.642,1.642,0,0,0,.52.651.879.879,0,0,0,.748.189,1.183,1.183,0,0,0,.894-.94l-.05.023a1.11,1.11,0,0,0,.74.092,1.2,1.2,0,0,0,.509-.239,1.037,1.037,0,0,0,.235-.266.386.386,0,0,0,.05-.112,1.306,1.306,0,0,1-.308.351,1.187,1.187,0,0,1-.5.216,1.06,1.06,0,0,1-.7-.1l-.039-.023v.046a1.121,1.121,0,0,1-.844.875.825.825,0,0,1-.682-.181,1.615,1.615,0,0,1-.489-.617v-.042h-.042a1.927,1.927,0,0,1-.659.158,1.071,1.071,0,0,1-.655-.2,1.542,1.542,0,0,1-.694-1.021v-.1l-.065.081a.7.7,0,0,1-.605.227.678.678,0,0,1-.3-.1,1.832,1.832,0,0,1-.231-.227,2.169,2.169,0,0,1-.366-.5.694.694,0,0,1-.058-.536v-.05h-.054a1.387,1.387,0,0,1-.844-.212,1.48,1.48,0,0,1-.482-.47,1.741,1.741,0,0,1-.2-.536Z" transform="translate(-298.832 -41.668)" fill="#455a64"/><path d="M383.359,71.636c0-.081.54,0,1-.362s.513-.956.586-.944.077.146.039.385a1.33,1.33,0,0,1-.459.794,1.156,1.156,0,0,1-.832.27C383.467,71.744,383.347,71.671,383.359,71.636Z" transform="translate(-299.872 -57.665)" fill="#263238"/><path d="M348.532,111.455l2.216-3.118,3.411-10.317c.7-1.8,1.3-4.074,2.147-5.781a3.989,3.989,0,0,1,1.962-1.861l1.449-.644.863-1.349c-.5,3.129,3.885,3.515,8.544-.385,0,0,1.542,1.041,3.711,2.84a5.81,5.81,0,0,1,2.17,2.952c.651,2.359-2.151,9.346-5.2,15.917-.913,1.966-4.108,9.33-4.108,9.33l-1.068.2s-12.8-2.652-14.78-4.343A4.031,4.031,0,0,1,348.532,111.455Z" transform="translate(-278.454 -68.526)" fill="#e0e0e0"/><path d="M349.6,118.976a.923.923,0,0,1,.116-.135l.351-.385,1.318-1.349h0l.9-2.771c.355-1.048.709-2.208,1.071-3.438.694-2.413,1.357-4.59,1.966-6.124.293-.771.57-1.376.771-1.792l.239-.474a.745.745,0,0,1,.089-.158,1.071,1.071,0,0,1-.066.17c-.054.123-.127.285-.212.486-.181.424-.443,1.033-.728,1.8-.582,1.542-1.226,3.715-1.927,6.128-.358,1.229-.721,2.393-1.079,3.438s-.667,1.981-.933,2.763h0l-1.345,1.314-.385.355a.923.923,0,0,1-.143.17Z" transform="translate(-279.125 -77.345)" fill="#263238"/><path d="M367,100.238l-4.787,19.605-4.964,2.47v-4.794l8.594-17.709Z" transform="translate(-283.826 -75.784)" fill="#f8951d"/><g transform="translate(74.025 42.294)" opacity="0.3"><path d="M358.81,147.21a18.24,18.24,0,0,1,3.773,2.135,23.41,23.41,0,0,0,3.727,2.228,7.13,7.13,0,0,0,4.239.594,4.27,4.27,0,0,0,3.21-2.636Z" transform="translate(-358.81 -147.21)"/></g><path d="M377.59,86.781l1.222-1.869.478,2.563,1.218-1.376,6.047-2.829,1.048,2.247-6.679,3.95-1.85-.139-1.353-1.6Z" transform="translate(-296.327 -65.619)" fill="#e0e0e0"/><path d="M377.589,91.962a1.692,1.692,0,0,1,.089.385c.062.293.131.62.2.987h-.119l.331-.605.509-.913.065-.116.042.123c.108.308.162.563.212.744a1.123,1.123,0,0,1,.062.285.77.77,0,0,1-.127-.266c-.069-.173-.146-.428-.258-.717h.108l-.493.913c-.119.208-.231.409-.335.6l-.089.154-.042-.177a5.584,5.584,0,0,1-.158-1.4Z" transform="translate(-296.327 -70.8)" fill="#263238"/><path d="M380.15,94.686l-.771-.1c-.208.235-.721.717-.929.952v.023c.089.513.181,1.025.274,1.542a5.145,5.145,0,0,1,1.283.1l.705-1.241Z" transform="translate(-296.856 -72.576)" fill="#f8951d"/><path d="M383.02,94.58l.856-.42.289,1.5-.713.062Z" transform="translate(-299.665 -72.312)" fill="#f8951d"/><g transform="translate(84.091 20.473)" opacity="0.3"><path d="M384.93,91.361v3.388l6.3-4.158L385.369,94Z" transform="translate(-384.93 -90.59)"/></g><path d="M390.731,89.1a2.785,2.785,0,0,1-.366.277c-.243.166-.6.385-1.052.674-.9.551-2.189,1.229-3.58,2.027-.59.343-1.156.686-1.642,1.025l-.085.054v-.1c-.193-1.033-.358-1.927-.482-2.609l.069.023-.663.62a1.383,1.383,0,0,1-.25.208,2.81,2.81,0,0,1,.216-.243l.64-.647.054-.054v.077c.139.674.32,1.569.528,2.6l-.1-.039c.5-.347,1.056-.694,1.646-1.037,1.4-.8,2.7-1.465,3.6-1.993.459-.262.821-.482,1.075-.636A2.7,2.7,0,0,1,390.731,89.1Z" transform="translate(-299.456 -69.202)" fill="#263238"/><path d="M379.4,93.957l-.351-.867-.586,1.071.251.389Z" transform="translate(-296.862 -71.654)" fill="#f8951d"/><path d="M380.763,95c.027.027-.385.516-.848,1.156s-.771,1.21-.805,1.191A6.513,6.513,0,0,1,380.763,95Z" transform="translate(-297.262 -72.828)" fill="#263238"/><path d="M380.231,101.053a2.085,2.085,0,0,1-.651-.066,1.981,1.981,0,0,1-.64-.154,1.445,1.445,0,0,1,.663.019,1.329,1.329,0,0,1,.628.2Z" transform="translate(-297.157 -76.395)" fill="#263238"/><path d="M296.263,120.655h0l-3.985-11.261a.436.436,0,0,1,.32-.555l9.2-2.4a.459.459,0,0,1,.532.3l4.189,12.687,13.007,8.533-.632.655-3.322-.809Z" transform="translate(-243.882 -79.849)" fill="#455a64"/><path d="M333.757,128.943a.123.123,0,0,1-.065-.035l-.189-.119-.721-.474-2.632-1.773-8.671-5.835-.686-.466h0v-.023c-1.226-3.692-2.312-7-3.114-9.392-.385-1.187-.7-2.151-.921-2.825-.1-.324-.185-.582-.243-.771l-.058-.2c0-.046-.019-.069,0-.069a.694.694,0,0,1,.027.066l.073.2c.066.181.154.435.266.771.231.671.559,1.626.96,2.81l3.118,9.361-.027-.039.686.466,8.648,5.87,2.609,1.792.709.493.181.131Z" transform="translate(-258.749 -80.178)" fill="#263238"/><path d="M306.77,142.1c0-.039,1.808-.154,4.043-.262s4.047-.158,4.051-.119-1.807.154-4.043.258S306.774,142.14,306.77,142.1Z" transform="translate(-252.801 -101.534)" fill="#263238"/><path d="M308.915,124.8c.162.509.069.994-.2,1.079s-.624-.262-.771-.771-.069-.994.2-1.079S308.753,124.288,308.915,124.8Z" transform="translate(-253.478 -90.661)" fill="#e0e0e0"/><path d="M335.489,123.014s-.343.17-.385-.385c-.05-.486,1.118-1.206,1.542-1.476s1.357-.085,1.827-.023a5.637,5.637,0,0,1,2.586,1.307,19.132,19.132,0,0,1,.979,2.181c.173.139,6.055,2.459,6.055,2.459l-1.337,4.659s-5.4-2.382-6.355-3.341a2.489,2.489,0,0,1-.913-1.927c-.166-.725-.347-1.5-.347-1.5l-.509-.212-.956.274a2.112,2.112,0,0,1-.385.644.748.748,0,0,1-1.122,0h0a.578.578,0,0,1-.721-.385,1.157,1.157,0,0,1-.027-.567s-.435.085-.439-.459A2.559,2.559,0,0,1,335.489,123.014Z" transform="translate(-270.139 -88.814)" fill="#ae7461"/><path d="M340.452,127.745c0,.023-.2,0-.5.081a2.455,2.455,0,0,0-1.064.532,2.389,2.389,0,0,0-.659.987c-.1.289-.119.486-.143.486a1.033,1.033,0,0,1,.05-.516,2.189,2.189,0,0,1,1.8-1.584A1.041,1.041,0,0,1,340.452,127.745Z" transform="translate(-272.043 -92.928)" fill="#6f4439"/><path d="M338.761,125.123c0,.023-.212,0-.536.062a2.443,2.443,0,0,0-1.11.636,5.4,5.4,0,0,0-.771,1.044,2.577,2.577,0,0,1-.3.455,1.8,1.8,0,0,1,.22-.5,4.354,4.354,0,0,1,.771-1.095,2.266,2.266,0,0,1,1.187-.632.906.906,0,0,1,.543.035Z" transform="translate(-270.791 -91.304)" fill="#6f4439"/><path d="M338.652,122.288c0,.023-.185,0-.466.05a2.575,2.575,0,0,0-1.014.455,6.2,6.2,0,0,0-.829.771,1.836,1.836,0,0,1-.343.335,1.711,1.711,0,0,1,.27-.385,4.2,4.2,0,0,1,.821-.825,2.254,2.254,0,0,1,1.079-.439A.829.829,0,0,1,338.652,122.288Z" transform="translate(-270.766 -89.563)" fill="#6f4439"/><path d="M375.1,94.93a4.129,4.129,0,0,1,3.064,3.592c.478,2.574-5.426,14.753-6.529,17.412a5.415,5.415,0,0,1-5.218,3.38c-1.5-.035-11.947-4.945-11.947-4.945l1.542-5.315,9.3,2.763L369,101.447" transform="translate(-282.118 -72.785)" fill="#e0e0e0"/><path d="M368.814,101.459a.5.5,0,0,1-.058.185l-.185.54-.721,2.066c-.632,1.8-1.542,4.394-2.675,7.6v.046h-.046l-9.307-2.752.081-.042q-.734,2.549-1.542,5.315l-.035-.081c2.443,1.137,5.06,2.312,7.785,3.469,1.106.459,2.2.917,3.314,1.272l.416.119c.139.035.274.046.412.073a5.78,5.78,0,0,0,.856-.05,5.626,5.626,0,0,0,1.622-.459,5.1,5.1,0,0,0,2.374-2.189c.258-.47.451-.979.671-1.465l.647-1.438c1.719-3.788,3.245-7.215,4.336-10.163a22.467,22.467,0,0,0,1.195-4.058,3.272,3.272,0,0,0,.019-.886,6,6,0,0,0-.2-.805,5.157,5.157,0,0,0-.636-1.306A3.6,3.6,0,0,0,375.6,95.17,3.391,3.391,0,0,0,375.1,95l-.173-.046.177.035a2.855,2.855,0,0,1,.5.162,3.577,3.577,0,0,1,1.542,1.268,5.229,5.229,0,0,1,.655,1.314,6.264,6.264,0,0,1,.212.813,3.31,3.31,0,0,1-.019.913,22.089,22.089,0,0,1-1.137,4.074c-1.083,2.956-2.6,6.39-4.313,10.178l-.644,1.441c-.22.482-.409.99-.674,1.472a5.218,5.218,0,0,1-2.463,2.243,5.831,5.831,0,0,1-1.661.474,5.5,5.5,0,0,1-.875.046,4.256,4.256,0,0,1-.443-.077l-.424-.119c-1.122-.358-2.216-.813-3.326-1.276-2.729-1.156-5.345-2.339-7.789-3.469l-.05-.027v-.054q.8-2.758,1.542-5.311l.019-.062.062.019,9.3,2.775-.062.031,2.744-7.6c.32-.89.57-1.58.744-2.058l.2-.532Z" transform="translate(-281.952 -72.797)" fill="#263238"/><path d="M384.04,142.646c-.042,0-.185-.925-.6-2s-.921-1.873-.883-1.9a2.548,2.548,0,0,1,.358.5,8.619,8.619,0,0,1,.655,1.345,8.782,8.782,0,0,1,.4,1.438A2.242,2.242,0,0,1,384.04,142.646Z" transform="translate(-299.379 -99.717)" fill="#263238"/><path d="M399.118,95c0,.023-.343.135-.867.385a8.192,8.192,0,0,0-.89.528,8.451,8.451,0,0,0-.971.805,8.667,8.667,0,0,0-.829.956,7.933,7.933,0,0,0-.547.871c-.277.52-.385.871-.424.859a.959.959,0,0,1,.069-.251,4.947,4.947,0,0,1,.266-.651,6.873,6.873,0,0,1,.536-.906,7.215,7.215,0,0,1,.829-.967,7.664,7.664,0,0,1,1-.809,7.212,7.212,0,0,1,.929-.513,5.4,5.4,0,0,1,.659-.254.825.825,0,0,1,.243-.054Z" transform="translate(-306.776 -72.828)" fill="#263238"/><path d="M260.682,174.81l-6.552-4.667s14.314-20.734,15.767-22.353a8.7,8.7,0,0,1,6.332-2.968c2.825.116,8.043,1.9,9.932,2.424s18.353,5.2,20.468,6.891c0,0-1.476,6.378-3.207,7.87-1.357,1.156-6.166,1.372-9.25.52s-18.114-7.75-18.114-7.75Z" transform="translate(-220.449 -103.445)" fill="#263238"/><path d="M281,190.4l7.885,2.817,6.733-24.064,14.341,2.166-12.6-11.828s-6.86,2.043-7.974,2.228c-1.434.243-3.341,3.153-3.966,6.22C284.881,170.616,281,190.4,281,190.4Z" transform="translate(-236.963 -112.464)" fill="#263238"/><path d="M317.986,173.664c-.019.031-3.719-2.077-8.263-4.71s-8.213-4.79-8.194-4.825,3.719,2.073,8.263,4.706S318.006,173.629,317.986,173.664Z" transform="translate(-249.581 -115.315)" fill="#455a64"/><g transform="translate(44.55 52.179)" opacity="0.3"><path d="M282.33,186.43s2.628-12.113,5.08-13.57c0,0-2.355,6.286-2.59,10.329Z" transform="translate(-282.33 -172.86)"/></g><path d="M293.926,166.413a4.274,4.274,0,0,0-.771.069,3.908,3.908,0,0,0-1.854.983,6.667,6.667,0,0,0-1.653,2.652,33.451,33.451,0,0,0-1.095,3.731c-.613,2.7-.967,5.176-1.31,6.937-.162.894-.316,1.611-.424,2.108-.054.235-.1.424-.135.567a1.211,1.211,0,0,1-.054.2.824.824,0,0,1,.027-.2c.027-.143.066-.331.108-.57.092-.5.231-1.218.385-2.112.316-1.784.659-4.266,1.272-6.968a32.557,32.557,0,0,1,1.11-3.742,6.644,6.644,0,0,1,1.707-2.7,3.854,3.854,0,0,1,1.927-.964A2.131,2.131,0,0,1,293.926,166.413Z" transform="translate(-240.423 -116.692)" fill="#455a64"/><path d="M270.1,227.44l-1.7,7.615s-8.247,1.33-8.614,2.729l14.849,2.937,2.42-11.909Z" transform="translate(-223.927 -154.226)" fill="#263238"/><path d="M293.068,247.773a.582.582,0,1,1-.482,1.06c-.74-.362-.143-1.457.532-1.029" transform="translate(-243.874 -166.682)" fill="#e0e0e0"/><path d="M274.639,256.2l.2-1.214-14.31-2.359s-.717.158-.736.636Z" transform="translate(-223.927 -169.708)" fill="#455a64"/><path d="M281.55,246.79c0,.073.343.177.655.478s.439.647.513.632C283.018,247.576,281.854,246.474,281.55,246.79Z" transform="translate(-237.301 -166.084)" fill="#fff"/><path d="M277.176,247.712c-.031.066.258.251.443.609s.193.694.266.7C278.263,248.822,277.558,247.5,277.176,247.712Z" transform="translate(-234.612 -166.671)" fill="#fff"/><path d="M273.4,249.961c.362-.054,0-1.472-.331-1.353A10.99,10.99,0,0,1,273.4,249.961Z" transform="translate(-232.089 -167.232)" fill="#fff"/><path d="M282.79,242.172c.042,0,1.491.362,1.522.385C284.413,242.211,282.871,241.81,282.79,242.172Z" transform="translate(-238.063 -163.192)" fill="#fff"/><path d="M243.178,200.54l-4.9,6.07s-7.982-2.463-8.93-1.372l12.009,9.219,7.126-9.862Z" transform="translate(-205.219 -137.693)" fill="#263238"/><path d="M261.53,221.977a.586.586,0,0,1-.906.736c-.5-.651.52-1.372.94-.686" transform="translate(-224.357 -150.728)" fill="#e0e0e0"/><path d="M241.359,221.478l.713-1L230.29,212s-.713-.177-.94.243Z" transform="translate(-205.219 -144.714)" fill="#455a64"/><path d="M252.132,215.734c-.046.058.227.312.385.721s.108.771.177.794C253.1,217.091,252.544,215.588,252.132,215.734Z" transform="translate(-219.217 -147.025)" fill="#fff"/><path d="M247.812,214.59c-.058.046.119.343.131.744s-.135.705-.077.748C248.309,216.073,248.262,214.566,247.812,214.59Z" transform="translate(-216.558 -146.328)" fill="#fff"/><path d="M243,214.91c.351.112.667-1.314.3-1.36C243.3,213.6,243,214.88,243,214.91Z" transform="translate(-213.608 -145.689)" fill="#fff"/><g transform="translate(52.423 49.273)" opacity="0.3"><path d="M317.5,173.675s-8.7-3.407-11-5.01a21.2,21.2,0,0,1-3.738-3.345Z" transform="translate(-302.76 -165.32)"/></g></g><g transform="translate(62.311 135.644)"><rect width="96.496" height="11.805" transform="translate(58.943 56.505)" fill="#455a64"/><path d="M479.011,444.94l13.065-11.377a.805.805,0,0,0-.039-1.249l-13.489-10.344a.806.806,0,0,0-1.3.655l.412,21.717a.809.809,0,0,0,1.349.6Z" transform="translate(-324.493 -371.855)" fill="#455a64"/><path d="M301.1,297.013l-1.815-.551a4.395,4.395,0,0,0-5.207,1.31,8.152,8.152,0,0,0-1.584,5.357,8.284,8.284,0,0,1-.212,3.638,6.552,6.552,0,0,1-1.222,1.642,4.844,4.844,0,0,0-1.11,1.7,1.8,1.8,0,0,0,.42,1.888,4.332,4.332,0,0,1,.674.536,2.031,2.031,0,0,1,.243,1.156,4.2,4.2,0,0,0,8.059,1.4,9.223,9.223,0,0,0,.385-4,52.244,52.244,0,0,1,1.368-14.086Z" transform="translate(-209.311 -294.614)" fill="#263238"/><path d="M315.078,292.392a6.067,6.067,0,0,0-4.517.725,8.328,8.328,0,0,0-4.309,8.436,6.4,6.4,0,0,0,2.663,4.27,6.47,6.47,0,0,0,6.706.073,8.124,8.124,0,0,0,3.754-5.723,7.781,7.781,0,0,0-.674-4.74,5.916,5.916,0,0,0-3.623-3.041" transform="translate(-219.353 -292.204)" fill="#263238"/><path d="M315.3,297.586a8.8,8.8,0,0,0,.47-1.927,4.316,4.316,0,0,1,3.083-2.817,6.183,6.183,0,0,1,4.239.586,5.739,5.739,0,0,1,2.463,2.062,4.525,4.525,0,0,1,.343,4.139l-7.2-1.946a8.216,8.216,0,0,1-2.4,1.195,1.484,1.484,0,0,1-.771.031.686.686,0,0,1-.513-.536A1.441,1.441,0,0,1,315.3,297.586Z" transform="translate(-224.787 -292.493)" fill="#263238"/><path d="M320.7,300l-6.552.59a1.2,1.2,0,0,0-1.253,1.033l-1.584,13.851a4.328,4.328,0,0,0,.59,2.7l.516.859a3.176,3.176,0,0,0,5.311.239,1.542,1.542,0,0,0,.193-.343c.035-.123.077-.2.1-.3l.285-1.337c.208-1.222.366-2.474.366-2.463s2.659,0,3.731-3.311a36.249,36.249,0,0,0,1.106-6.675C323.7,302.79,322.736,300.089,320.7,300Z" transform="translate(-222.49 -296.996)" fill="#ffbf9d"/><path d="M338.377,318.917a.439.439,0,0,1-.486.385.416.416,0,0,1-.385-.462.435.435,0,0,1,.486-.385.42.42,0,0,1,.385.462Z" transform="translate(-238.605 -308.336)" fill="#263238"/><path d="M338.107,315.031c-.062.046-.351-.247-.817-.32s-.844.1-.886.039.05-.123.216-.208a1.183,1.183,0,0,1,.721-.1,1.156,1.156,0,0,1,.64.324C338.107,314.908,338.138,315.031,338.107,315.031Z" transform="translate(-237.923 -305.86)" fill="#263238"/><path d="M327.6,317.624a.439.439,0,0,1-.489.385.42.42,0,0,1-.385-.459.443.443,0,0,1,.489-.385A.424.424,0,0,1,327.6,317.624Z" transform="translate(-231.981 -307.544)" fill="#263238"/><path d="M326.609,313.372c-.062.046-.355-.247-.817-.32s-.848.1-.886.039.046-.123.216-.208a1.206,1.206,0,0,1,.721-.1,1.156,1.156,0,0,1,.64.324C326.6,313.241,326.64,313.349,326.609,313.372Z" transform="translate(-230.857 -304.841)" fill="#263238"/><path d="M331.88,317.78a3.183,3.183,0,0,1,.771,0c.119,0,.235,0,.27-.077a.605.605,0,0,0-.023-.362c-.066-.308-.135-.628-.208-.964a16.165,16.165,0,0,1-.412-2.5,15.75,15.75,0,0,1,.613,2.459c.066.335.131.659.193.964a.686.686,0,0,1,0,.478.3.3,0,0,1-.224.143.709.709,0,0,1-.2,0A3.084,3.084,0,0,1,331.88,317.78Z" transform="translate(-235.149 -305.526)" fill="#263238"/><path d="M323.522,335.387a8.718,8.718,0,0,1-4.332-1.927,4.433,4.433,0,0,0,4.2,2.74Z" transform="translate(-227.35 -317.56)" fill="#ff9a6c"/><path d="M328.606,326.159a.84.84,0,0,0-.7-.432.771.771,0,0,0-.574.2.489.489,0,0,0-.127.547.574.574,0,0,0,.586.254,1.869,1.869,0,0,0,.651-.262.524.524,0,0,0,.158-.116.162.162,0,0,0,.027-.173" transform="translate(-232.253 -312.806)" fill="#ff9a6c"/><path d="M328,324.279c.073,0,0,.516.385.944s.925.459.917.528-.135.081-.366.05a1.26,1.26,0,0,1-.771-.412,1.106,1.106,0,0,1-.281-.771C327.893,324.391,327.97,324.272,328,324.279Z" transform="translate(-232.696 -311.918)" fill="#263238"/><path d="M326.873,309.242c-.066.119-.524,0-1.079-.039s-1.025.058-1.079-.066c-.023-.062.073-.166.27-.262a1.827,1.827,0,0,1,.832-.15,1.769,1.769,0,0,1,.813.231C326.815,309.069,326.9,309.184,326.873,309.242Z" transform="translate(-230.743 -302.357)" fill="#263238"/><path d="M339.423,309.724c-.1.092-.385-.069-.771-.135s-.725-.046-.771-.166c-.027-.062.042-.158.2-.235a1.118,1.118,0,0,1,.671-.073,1.13,1.13,0,0,1,.6.316C339.438,309.558,339.465,309.678,339.423,309.724Z" transform="translate(-238.834 -302.584)" fill="#263238"/><path d="M311.62,296.433c.894-1.865,4.108-4.174,6.136-3.746l2.995,2.42a3.183,3.183,0,0,1-2.478,2.112c-.605.1-1.306.046-1.719.5s-.32,1.226-.721,1.7c-.555.663-1.788.455-2.235,1.191-.2.324-.177.744-.385,1.06a2.207,2.207,0,0,1-1.95.62c-.455-.22-.339-1.021-.435-1.468a2.228,2.228,0,0,1,.143-1.511C311.316,298.384,311.2,297.324,311.62,296.433Z" transform="translate(-222.166 -292.469)" fill="#263238"/><path d="M311.481,317.69c.039-.25.089-.609-.139-.725-.678-.339-2.112-.59-2.389,1.091a1.748,1.748,0,0,0,2.02,2.147C310.988,320.138,311.346,318.561,311.481,317.69Z" transform="translate(-221.032 -307.271)" fill="#ffbf9d"/><path d="M311.332,320.166a.563.563,0,0,1-.116.042.385.385,0,0,1-.3-.042,1.01,1.01,0,0,1-.312-.967,1.411,1.411,0,0,1,.208-.555.478.478,0,0,1,.355-.258.2.2,0,0,1,.216.15.215.215,0,0,1,0,.119c0,.008.054-.031.05-.131a.251.251,0,0,0-.065-.158.312.312,0,0,0-.212-.1.574.574,0,0,0-.478.289,1.426,1.426,0,0,0-.247.617,1.056,1.056,0,0,0,.42,1.091.436.436,0,0,0,.385,0C311.32,320.224,311.339,320.174,311.332,320.166Z" transform="translate(-221.95 -308.224)" fill="#ff9a6c"/><path d="M335.17,297c.1.967,1.387,2.343,1.927,3.153,1.033,1.542,1.214,2.035.825,5.16a6.663,6.663,0,0,0,1.36-3.241,5.084,5.084,0,0,0-.944-3.469,3.946,3.946,0,0,0-3.168-1.6" transform="translate(-237.171 -295.152)" fill="#263238"/><path d="M310.94,295.88a7.412,7.412,0,0,1,4.486-3.21" transform="translate(-222.279 -292.491)" fill="#263238"/><path d="M307.642,305.192a1.111,1.111,0,0,1-.1-.1c-.062-.073-.143-.189-.243-.339a4.845,4.845,0,0,1-.609-1.4,9.2,9.2,0,0,1-.289-2.247,6.74,6.74,0,0,1,.489-2.729,9.527,9.527,0,0,1,1.341-2.432,8.794,8.794,0,0,1,1.592-1.615,6.487,6.487,0,0,1,1.314-.771c.166-.069.3-.123.385-.15l.139-.042s-.181.085-.5.243a7.143,7.143,0,0,0-1.276.809,9.083,9.083,0,0,0-1.542,1.615,9.758,9.758,0,0,0-1.31,2.4,6.7,6.7,0,0,0-.489,2.675,9.554,9.554,0,0,0,.254,2.228,5.487,5.487,0,0,0,.559,1.4C307.531,305.03,307.654,305.169,307.642,305.192Z" transform="translate(-219.49 -292.915)" fill="#455a64"/><path d="M332.353,397.32s13.231-1.5,15.389-1.865c4.135-.7,8.275-.031,10.02,3.523.8,1.619-.212,4.74-2.636,7.057-1.807,1.73-10.791,10.81-10.791,10.81l-7.708-6.425,9.523-7.407-18.461,2.594Z" transform="translate(-232.574 -355.51)" fill="#263238"/><path d="M355.157,432.321l-4.948,5.226s3.738,6.868,2.921,7.924l-10.66-9.392,7.373-8.479Z" transform="translate(-241.658 -375.419)" fill="#263238"/><path d="M353.742,444.6a.57.57,0,0,0-.732.224.555.555,0,0,0,.227.728.6.6,0,0,0,.771-.239.582.582,0,0,0-.324-.732" transform="translate(-248.1 -385.836)" fill="#e0e0e0"/><path d="M342.47,448.236l.744-.856,10.02,9.384a1.187,1.187,0,0,1-.081.871Z" transform="translate(-241.658 -387.576)" fill="#e0e0e0"/><path d="M360.724,452.917c-.046.05-.328-.158-.728-.22s-.728.035-.771-.027.308-.289.794-.208S360.774,452.879,360.724,452.917Z" transform="translate(-251.953 -390.689)" fill="#fff"/><path d="M362.8,457.018c-.031.058-.335-.054-.7,0s-.62.243-.671.2.173-.366.632-.432S362.836,456.968,362.8,457.018Z" transform="translate(-253.306 -393.348)" fill="#fff"/><path d="M363.6,461.315c-.054-.031.1-.351.478-.513s.721-.058.705,0-.3.077-.609.216S363.661,461.357,363.6,461.315Z" transform="translate(-254.639 -395.772)" fill="#fff"/><path d="M363.843,448.738c-.066.027-.243-.254-.555-.493s-.62-.351-.609-.42.385-.054.771.231S363.9,448.719,363.843,448.738Z" transform="translate(-254.078 -387.828)" fill="#fff"/><path d="M363.954,435.763a.652.652,0,0,1-.1.116l-.293.312-1.1,1.156-3.773,3.808-.046.046-.05-.042-.96-.8-4.725-4-1.426-1.222-.385-.339a.671.671,0,0,1-.127-.123.72.72,0,0,1,.146.1l.385.316,1.457,1.187,4.779,3.962.956.8H358.6l3.792-3.792,1.133-1.11.308-.3a.654.654,0,0,1,.119-.089Z" transform="translate(-246.882 -379.77)" fill="#455a64"/><path d="M408.154,436.39l6.5,5.735,6.444,3.048a.89.89,0,0,1,.385,1.237h0a.894.894,0,0,1-.678.451c-1.823.193-8.525.875-8.976.428-.524-.516-7.257-5.592-7.257-5.592Z" transform="translate(-279.824 -380.821)" fill="#263238"/><path d="M432.371,462.39l-10.1.5.447.385a.9.9,0,0,0,.7.177c.848,0,3.195-.069,8.263-.586a.894.894,0,0,0,.694-.47Z" transform="translate(-290.703 -396.801)" fill="#e0e0e0"/><g transform="translate(131.186 63.604)" opacity="0.6"><path d="M421.658,457.255a.532.532,0,0,1,.628.339.513.513,0,0,1-.331.628.57.57,0,0,1-.667-.362.54.54,0,0,1,.42-.617" transform="translate(-421.281 -457.24)" fill="#fff"/></g><path d="M437.274,456.963a2.655,2.655,0,0,1-.027-1.014,2.7,2.7,0,0,1,.5-.886c0-.019-.135.023-.285.158a1.38,1.38,0,0,0-.385.682,1.349,1.349,0,0,0,.031.771C437.162,456.878,437.254,456.963,437.274,456.963Z" transform="translate(-299.775 -392.295)" fill="#fff"/><path d="M440.851,458.235a7.259,7.259,0,0,1,.208-.829c.181-.428.493-.671.462-.717s-.428.154-.636.644A.979.979,0,0,0,440.851,458.235Z" transform="translate(-302.065 -393.293)" fill="#fff"/><path d="M432.667,455.844a8.867,8.867,0,0,1,.239-1.3,9.2,9.2,0,0,1,.6-1.175,2.428,2.428,0,0,0-.836,2.474Z" transform="translate(-297.049 -391.257)" fill="#fff"/><path d="M427.28,452.838c.054,0,.212-.478.594-.967s.817-.771.79-.821a1.7,1.7,0,0,0-.94.705A1.746,1.746,0,0,0,427.28,452.838Z" transform="translate(-293.782 -389.831)" fill="#fff"/><path d="M423.491,450.3a4.494,4.494,0,0,1,.594-1.029,4.321,4.321,0,0,1,.96-.69c0-.023-.146-.023-.366.058a1.927,1.927,0,0,0-1.156,1.291C423.456,450.151,423.468,450.294,423.491,450.3Z" transform="translate(-291.442 -388.304)" fill="#fff"/><path d="M285,406.5c.131.331-.455,10.965,9.635,11.03,9.061.058,21.243-8.244,22.631-7.708.91.351,16.545,13.932,16.545,13.932l5.642-6.625s-14.468-13.8-15.89-14.8c-3.045-2.131-5.187-2.116-10.2-1.206-4.482.809-15.466,4.459-15.466,4.459l-1.056-.9Z" transform="translate(-206.336 -358.787)" fill="#263238"/><path d="M350.18,402.034l.17-.073.5-.189c.447-.162,1.11-.385,1.977-.632a24.405,24.405,0,0,1,3.218-.678,12.8,12.8,0,0,1,2.054-.143,10.584,10.584,0,0,1,2.293.289,11.1,11.1,0,0,1,4.679,2.42c1.4,1.3,2.852,2.721,4.405,4.2l10.09,9.689.05.046-.042.05-.771.913c-.836.983-1.7,1.985-2.563,2.906s-1.634,1.846-2.424,2.763l.023.05-8.864-7.662-3.8-3.287-1.7-1.48-.8-.694c-.131-.112-.258-.227-.385-.328a2.437,2.437,0,0,0-.424-.239,2.178,2.178,0,0,0-1.784.027l-1.5.736-2.382,1.156-1.5.728-.385.185-.135.062.127-.069.385-.2,1.484-.748,2.374-1.187,1.492-.74a2.262,2.262,0,0,1,1.854-.042,2.515,2.515,0,0,1,.443.25,4.681,4.681,0,0,1,.385.331l.8.69,1.715,1.472,3.8,3.276,8.864,7.646.023.05c.771-.929,1.592-1.881,2.37-2.867s1.542-1.927,2.382-2.9l.771-.9v.1l-10.086-9.689c-1.542-1.48-3-2.91-4.39-4.209a11.042,11.042,0,0,0-4.625-2.409,10.645,10.645,0,0,0-2.27-.3,12.762,12.762,0,0,0-2.043.131,24.7,24.7,0,0,0-3.214.655c-.871.235-1.542.451-1.981.605l-.509.177Z" transform="translate(-246.396 -358.651)" fill="#455a64"/><path d="M330.667,343.53s3.345,1.33,3.742,4.158c.331,2.359-.4,8.641-.385,9.065a1.5,1.5,0,0,0,.355,1.017,2.351,2.351,0,0,1,.632,1.615,2.574,2.574,0,0,1-.2,1.175c-.385.647-4.085,4.937-4.085,4.937l-3.291-6.841s2.158-6.409,2.174-6.575S330.667,343.53,330.667,343.53Z" transform="translate(-232.414 -323.749)" fill="#f8951d"/><path d="M341.046,386.971c.143.019,4.968,3.449,4.968,3.449s1.179-2.278,1.707-2.343a5.8,5.8,0,0,1,2.312.728,1.214,1.214,0,0,0,.771.227c.316.031.883.829.883.829l1.087.809s-.339.636-.432.744-.825-.2-.813-.312.093.713-.47.736a3.1,3.1,0,0,1-1.291-.358l-.189-.956-1.4-.91-.166.917s1.414.293,1.372.771a.725.725,0,0,1-.459.605l-1.156-.027-2.578.617s-6.76-1.491-7.007-2.262S339.065,386.705,341.046,386.971Z" transform="translate(-239.004 -350.437)" fill="#ffbf9d"/><path d="M340.187,382.85a4.7,4.7,0,0,1,1.333,1.858c.3.682,3.523,3.041,3.523,3.041l-2.613,2.116s-5.45.224-5.708-.586.6-4.424.6-4.424Z" transform="translate(-238.095 -347.915)" fill="#f8951d"/><path d="M336.973,400.426h0a.463.463,0,0,0,.547.331l9.473-2.073,8.143-1.484.069-.721-7.785,1.114-10.109,2.258a.462.462,0,0,0-.339.574Z" transform="translate(-238.269 -356.292)" fill="#e0e0e0"/><path d="M368.323,367.743l-4.394,11.219a.617.617,0,0,0,.678.836l9.673-1.784a.609.609,0,0,0,.474-.385l4.4-11.134a.328.328,0,0,0-.335-.447l-9.982,1.307a.613.613,0,0,0-.513.389Z" transform="translate(-254.82 -337.588)" fill="#e0e0e0"/><path d="M370.31,369.44c.035,0-1.014,2.806-2.347,6.24s-2.44,6.2-2.474,6.186,1.014-2.806,2.343-6.24S370.26,369.424,370.31,369.44Z" transform="translate(-255.804 -339.673)" fill="#263238"/><ellipse cx="1.098" cy="0.597" rx="1.098" ry="0.597" transform="matrix(0.45, -0.893, 0.893, 0.45, 116.418, 36.037)" fill="#fff"/><path d="M303.135,363.648a20.765,20.765,0,0,1-.632-3.935c.455-1.754,2.8-6.166,2.605-8.829s-2.571-9.843-2.571-9.843l-2.266-.771c-.917,2-4.471,1.542-7.373-.79l-3.638.736-5.7,17.728L282.6,364.4c-2.312,3.014.351,4.6.351,4.6s4.39,1.38,7.858.771a23.536,23.536,0,0,0,7.226-2.96,9.247,9.247,0,0,1,5.249-1.48Z" transform="translate(-204.284 -321.26)" fill="#f8951d"/><path d="M318.6,402.024l2.374.967s1.318-.771,1.511-.859a27.715,27.715,0,0,1,3.338-.409,6.554,6.554,0,0,0,1.1-.073l-3.137,1.927-1.989,2.648a5.986,5.986,0,0,1-1.692.293,18.319,18.319,0,0,1-2.929-.5Z" transform="translate(-226.114 -359.47)" fill="#ffbf9d"/><path d="M288.166,341.21s-4.166.247-5.631,3.573c-.979,2.22-2.995,11.986-3.291,13.774s0,3.962,1.43,5.087,13.3,6.166,13.3,6.166l2.474-4.767-10.02-6.216H286.1l1.2-7.172" transform="translate(-202.735 -322.323)" fill="#f8951d"/><path d="M287.228,351.666v.123a3.612,3.612,0,0,1-.054.362c-.054.328-.127.8-.227,1.411-.2,1.237-.493,3.029-.859,5.284l-.042-.05h.339L296.4,365l.054.031-.031.054-2.467,4.767-.031.058-.058-.023c-2.409-1.029-4.975-2.151-7.608-3.341q-1.561-.705-3.064-1.426c-.5-.243-1-.486-1.484-.744a6.417,6.417,0,0,1-1.384-.879,3.854,3.854,0,0,1-.9-1.341,5.568,5.568,0,0,1-.385-1.542,7.443,7.443,0,0,1,0-1.542c.05-.509.154-1,.247-1.488.385-1.927.771-3.781,1.156-5.5s.771-3.311,1.156-4.756c.2-.725.385-1.407.617-2.046a5.82,5.82,0,0,1,.91-1.677,6.118,6.118,0,0,1,1.222-1.125,7.207,7.207,0,0,1,1.229-.663,8.372,8.372,0,0,1,1.846-.54c.22-.039.385-.058.5-.069h.173l-.17.023-.493.081a8.744,8.744,0,0,0-1.835.563,7.238,7.238,0,0,0-1.21.667,6.1,6.1,0,0,0-1.2,1.118,5.831,5.831,0,0,0-.886,1.661c-.216.636-.412,1.318-.605,2.043-.385,1.441-.771,3.037-1.156,4.756s-.771,3.553-1.156,5.5c-.089.486-.193.975-.239,1.472a7.181,7.181,0,0,0,0,1.522,4.575,4.575,0,0,0,1.249,2.79,6.418,6.418,0,0,0,1.357.856c.486.254.979.5,1.48.74q1.5.725,3.083,1.426c2.628,1.191,5.191,2.312,7.6,3.341l-.089.031c.859-1.653,1.688-3.249,2.478-4.763l.023.085-10-6.236h-.362v-.05c.385-2.251.694-4.043.9-5.276.108-.609.193-1.083.247-1.407.031-.154.05-.274.069-.362A.287.287,0,0,1,287.228,351.666Z" transform="translate(-202.653 -322.323)" fill="#263238"/><path d="M338.1,354.32s-.054.251-.1.705a6.762,6.762,0,0,0-.027.832,8.974,8.974,0,0,0,.108,1.1,23.841,23.841,0,0,1,.3,2.883,8.938,8.938,0,0,1-.559,3.5c-.459,1.179-1.056,2.228-1.426,3.241a6.721,6.721,0,0,0-.3,2.829c.05.821.127,1.484.173,1.927.023.216.042.385.054.528a1.1,1.1,0,0,1,0,.185.651.651,0,0,1-.039-.181c-.019-.135-.046-.308-.081-.524-.062-.459-.158-1.118-.22-1.927a6.694,6.694,0,0,1,.274-2.879c.385-1.037.967-2.081,1.418-3.249a8.948,8.948,0,0,0,.559-3.469,25.433,25.433,0,0,0-.262-2.871,10.408,10.408,0,0,1-.089-1.11,5.339,5.339,0,0,1,.05-.844,4.187,4.187,0,0,1,.1-.52.845.845,0,0,1,.066-.158Z" transform="translate(-237.637 -330.381)" fill="#263238"/><path d="M300.326,349.384c-.027,0,.1-.385.173-.994a6.162,6.162,0,0,0-1.411-4.494c-.385-.474-.709-.713-.69-.736a1.033,1.033,0,0,1,.224.158,4.651,4.651,0,0,1,.54.513,5.831,5.831,0,0,1,1.214,2.131,6.321,6.321,0,0,1,.254,1.333,5.535,5.535,0,0,1-.05,1.11,3.47,3.47,0,0,1-.081.416,1.893,1.893,0,0,1-.089.308A1.011,1.011,0,0,1,300.326,349.384Z" transform="translate(-214.571 -323.522)" fill="#263238"/><path d="M318.38,374.767a5.886,5.886,0,0,0,1.129-.436,5.165,5.165,0,0,0,.513-.331,5.639,5.639,0,0,0,.524-.462,6.1,6.1,0,0,0,.99-1.264,8.6,8.6,0,0,0,1.056-2.717c.143-.736.15-1.206.181-1.206a1.583,1.583,0,0,1,0,.331,6.408,6.408,0,0,1-.089.894,7.92,7.92,0,0,1-1.033,2.771,5.978,5.978,0,0,1-1.017,1.283,5.715,5.715,0,0,1-.547.462,4.62,4.62,0,0,1-.536.324,3.132,3.132,0,0,1-.474.2,2.072,2.072,0,0,1-.385.1A1.205,1.205,0,0,1,318.38,374.767Z" transform="translate(-226.852 -339.004)" fill="#263238"/><path d="M290.39,388.223a3.349,3.349,0,0,1,1.349-.975,3.388,3.388,0,0,1,1.63-.343,10.613,10.613,0,0,0-1.572.47A9.9,9.9,0,0,0,290.39,388.223Z" transform="translate(-209.649 -350.406)" fill="#263238"/><path d="M332.581,397.971a.428.428,0,0,1-.324.351.491.491,0,0,1-.108,0c-.258,0-.385-.489-.385-.489l-1.179.162s-1.68,2.131-2.274,2.736c-2.332,2.382-2.941.663-2.941.663l.725-2.8,1.491-2.5s-.092.15-.058-.243.725-.459.725-.459c.046-.2.451-.385.451-.385l1.873-.347a1.287,1.287,0,0,1,1.083.293l1.137.975s.671.748.667.971a.385.385,0,0,1-.347.385s.085.6-.058.667a1.237,1.237,0,0,1-.482.031Z" transform="translate(-231.148 -355.163)" fill="#ffbf9d"/><path d="M332.72,401.13c0,.019.243-.077.632-.181a5.888,5.888,0,0,1,1.565-.173,5.333,5.333,0,0,1,.859.092,1.222,1.222,0,0,1,.636.224.243.243,0,0,1,.046.224.343.343,0,0,1-.1.158c-.081.066-.15.058-.15.069s.073.035.177-.035a.324.324,0,0,0,.139-.173.3.3,0,0,0-.042-.3.632.632,0,0,0-.3-.185c-.119-.035-.243-.069-.385-.1a5.14,5.14,0,0,0-.883-.1,4.836,4.836,0,0,0-1.588.212A2.209,2.209,0,0,0,332.72,401.13Z" transform="translate(-235.665 -358.857)" fill="#ff9a6c"/><path d="M333.31,403.665c0,.035.74-.22,1.661-.447s1.684-.335,1.676-.385a1.928,1.928,0,0,0-.5.031,11.457,11.457,0,0,0-1.2.223,11.736,11.736,0,0,0-1.156.355,2.227,2.227,0,0,0-.474.224Z" transform="translate(-236.028 -360.194)" fill="#ff9a6c"/><path d="M337.491,399.851a.634.634,0,0,0-.035-.2,4.068,4.068,0,0,0-.162-.528,2.563,2.563,0,0,0-.162-.355,1.13,1.13,0,0,0-.3-.339,2.567,2.567,0,0,0-.89-.486,3.65,3.65,0,0,0-1-.173,3.215,3.215,0,0,0-.817.119c-.227.062-.385.123-.528.166a.771.771,0,0,0-.189.077,5.57,5.57,0,0,0,.736-.158,3.01,3.01,0,0,1,1.761.085,2.617,2.617,0,0,1,.859.459,1.453,1.453,0,0,1,.451.636C337.4,399.578,337.491,399.859,337.491,399.851Z" transform="translate(-236.089 -357.085)" fill="#ff9a6c"/><path d="M334.62,396.188s.281-.058.728-.143a1.882,1.882,0,0,1,1.665.224,6.357,6.357,0,0,1,1.349,1.137,4.033,4.033,0,0,1,.385.624.486.486,0,0,0-.046-.193,1.924,1.924,0,0,0-.262-.482,5.572,5.572,0,0,0-1.349-1.187,2.072,2.072,0,0,0-.462-.251,1.437,1.437,0,0,0-.486-.069,4.074,4.074,0,0,0-.806.116A2.858,2.858,0,0,0,334.62,396.188Z" transform="translate(-236.833 -355.904)" fill="#ff9a6c"/><path d="M330.624,399.613a.592.592,0,0,0,.081-.116l.231-.335a12.8,12.8,0,0,1,.937-1.183h-.023l1.175-.15-.05-.035a1.267,1.267,0,0,0,.1.266.539.539,0,0,0,.208.231.293.293,0,0,0,.17.023.474.474,0,0,0,.162-.039.49.49,0,0,0,.231-.243.384.384,0,0,0,.027-.081h0l-.058.042h.37l.089-.019a.208.208,0,0,0,.1-.05.385.385,0,0,0,.066-.181v-.173a2.564,2.564,0,0,0-.027-.339l-.05.066a.443.443,0,0,0,.385-.27.385.385,0,0,0,0-.251.936.936,0,0,0-.108-.2,5.981,5.981,0,0,0-.555-.709h0l-.605-.52-.385-.331a2.488,2.488,0,0,0-.4-.308,1.306,1.306,0,0,0-.489-.146,1.692,1.692,0,0,0-.489.046l-1.765.331h0a1.632,1.632,0,0,0-.274.17.54.54,0,0,0-.2.262l.058-.039a.659.659,0,0,0-.574.212.771.771,0,0,0-.146.543v-.027c-.432.713-.771,1.3-1.029,1.715l-.277.47a.955.955,0,0,0-.089.17,1.472,1.472,0,0,0,.112-.158l.3-.455,1.064-1.7v-.027a.678.678,0,0,1,.131-.474.563.563,0,0,1,.486-.173h.065v-.042a.447.447,0,0,1,.166-.2,1.776,1.776,0,0,1,.258-.158h0l1.765-.32a1.542,1.542,0,0,1,.459-.042,1.2,1.2,0,0,1,.443.131,2.263,2.263,0,0,1,.385.3l.385.331.605.52h0a6.552,6.552,0,0,1,.547.694.978.978,0,0,1,.092.177.27.27,0,0,1,0,.173.343.343,0,0,1-.277.2h-.058v.058a2.249,2.249,0,0,1,.023.324.54.54,0,0,1-.042.277l-.042.019h-.416c.054-.039-.069.054-.058.046h0v.027a.359.359,0,0,1-.2.251.343.343,0,0,1-.123.031.189.189,0,0,1-.116,0,.728.728,0,0,1-.266-.432v-.039h-.062l-1.175.17h0a11.6,11.6,0,0,0-.917,1.214c-.1.15-.166.266-.212.347A.8.8,0,0,0,330.624,399.613Z" transform="translate(-232.402 -355.109)" fill="#ff9a6c"/><g transform="translate(92.153 30.618)" opacity="0.3"><path d="M323.673,371.662a8.617,8.617,0,0,1-1.133,2.833,6.965,6.965,0,0,1-2.467,2.135l-.073.031a3.819,3.819,0,0,0,3.673-5.01Z" transform="translate(-320 -371.65)"/></g><g transform="translate(150.375 57.064)" opacity="0.3"><rect width="2.393" height="10.44"/></g><rect width="28.373" height="11.805" transform="translate(0 56.617)" fill="#455a64"/></g></g></svg>