<?xml version="1.0" encoding="utf-8"?>
<!-- Generator: Adobe Illustrator 26.0.1, SVG Export Plug-In . SVG Version: 6.00 Build 0)  -->
<svg version="1.1" id="_x33_0" xmlns="http://www.w3.org/2000/svg" xmlns:xlink="http://www.w3.org/1999/xlink" x="0px" y="0px"
	 viewBox="0 0 512 512" style="enable-background:new 0 0 512 512;" xml:space="preserve">
<style type="text/css">
	.st0{fill:#F8951D;}
	.st1{fill:#FFE3CC;}
	.st2{fill:#FF826E;}
	.st3{fill:#EFEFEF;}
	.st4{fill:#FFFFFF;}
	.st5{fill:#5CD6B3;}
</style>
<g>
	<g>
		<path class="st0" d="M495.8,423c0.1,0.7,0.2,1.4,0.2,2.1c0,8.6-6.2,16.1-14.7,17.6L408,456V304v-32V72c0-4.4-3.6-8-8-8H200V48
			l230.9-31.8c0.7-0.1,1.5-0.2,2.2-0.2c8.5,0,15.6,6.3,16.6,14.8L495.8,423z"/>
		<path class="st1" d="M400,64H96c-4.4,0-8,3.6-8,8v416c0,4.4,3.6,8,8,8h304c4.4,0,8-3.6,8-8v-32V304v-32V72
			C408,67.6,404.4,64,400,64z"/>
		<path class="st2" d="M280,416h96v48h-96V416z"/>
		<g>
			<path class="st3" d="M88,472l-14.1,14.1c-6.3,6.3-15,9.9-24,9.9c-9.4,0-17.8-3.8-24-9.9c-6.1-6.2-9.9-14.6-9.9-24
				c0-9,3.6-17.7,9.9-24L40,424L88,472z"/>
			<path class="st3" d="M194,346l-10,30l-48-48l30-10L194,346z"/>
			<path class="st3" d="M208,304l-14,42l-28-28L208,304z"/>
		</g>
		<path class="st0" d="M184,376l-96,96l-48-48l48-48l48-48L184,376z"/>
		<path class="st4" d="M376,96v144h-24l-5.2-31.3c-1.8-10.6-7.9-20.2-17-26.2c-6.4-4.2-14-6.6-21.7-6.6H304c13.3,0,24-10.7,24-24
			s-10.7-24-24-24s-24,10.7-24,24s10.7,24,24,24h-4.2c-7.7,0-15.3,2.3-21.7,6.6c-9,6-15.2,15.5-17,26.2L256,240h-24V96H376z"/>
		<path class="st5" d="M346.8,208.7L352,240h-96l5.2-31.3c1.8-10.6,7.9-20.2,17-26.2c6.4-4.2,14-6.6,21.7-6.6h4.2h4.2
			c7.7,0,15.3,2.3,21.7,6.6C338.9,188.6,345,198.1,346.8,208.7z"/>
		<circle class="st1" cx="304" cy="152" r="24"/>
	</g>
	<g>
		<path d="M384,248V88H224v160H384z M304,168c-8.8,0-16-7.2-16-16s7.2-16,16-16s16,7.2,16,16S312.8,168,304,168z M282.6,189.2
			c5.1-3.4,11.1-5.2,17.3-5.2h8.3c6.2,0,12.2,1.8,17.3,5.2c7.1,4.8,12,12.4,13.5,20.8l3.7,21.9h-77.1l3.7-21.9
			C270.5,201.6,275.4,194,282.6,189.2z M240,104h128v128h-9.2l-4.1-24.6c-2.1-12.8-9.6-24.3-20.4-31.5c-1.9-1.3-3.9-2.4-6-3.4
			c4.7-5.6,7.7-12.7,7.7-20.5c0-17.6-14.4-32-32-32s-32,14.4-32,32c0,7.9,3,15,7.7,20.5c-2.1,1-4.1,2.1-6,3.4
			c-10.8,7.2-18.2,18.7-20.4,31.5l-4.1,24.6H240L240,104z"/>
		<path d="M112,136h96v16h-96V136z"/>
		<path d="M112,168h96v16h-96V168z"/>
		<path d="M112,200h96v16h-96V200z"/>
		<path d="M112,232h96v16h-96V232z"/>
		<path d="M112,264h272v16H112V264z"/>
		<path d="M272,472h112v-64H272V472z M288,424h80v32h-80V424z"/>
		<path d="M192,456h64v16h-64V456z"/>
		<path d="M192,424h64v16h-64V424z"/>
		<path d="M503.8,422L457.6,29.9c-1.5-13.6-14.3-23.6-27.8-21.6L207.9,38.8C207.3,21.7,193.2,8,176,8h-16c-17.6,0-32,14.4-32,32v16
			H96c-8.8,0-16,7.2-16,16v300.7l-59.7,59.7C12.4,440.3,8,450.9,8,462.1C8,485.2,26.8,504,49.9,504c11.2,0,21.7-4.4,29.7-12.3
			l0.7-0.7c1.4,7.4,7.9,13,15.7,13h304c8.8,0,16-7.2,16-16v-25.3l66.7-12.1c12.3-2.2,21.3-13,21.3-25.5C504,424,503.9,423,503.8,422
			z M144,40c0-8.8,7.2-16,16-16h16c8.8,0,16,7.2,16,16v16h-16V40h-16v16h-16V40z M144,72h16v24c0,4.4-3.6,8-8,8s-8-3.6-8-8V72z
			 M190.5,331.2l-9.7-9.7l14.5-4.8L190.5,331.2z M163.8,327.2l21,21l-4.3,13l-29.7-29.7L163.8,327.2z M136,339.3l36.7,36.7L88,460.7
			L51.3,424L136,339.3z M49.9,488C35.6,488,24,476.4,24,462.1c0-6.9,2.7-13.4,7.6-18.3l8.4-8.4L76.7,472l-8.4,8.4
			C63.4,485.3,56.9,488,49.9,488z M400,488H96v-12.7l95-95l22.8-68.3H384v-16H206.7l-75,25L96,356.7V72h32v24c0,13.2,10.8,24,24,24
			s24-10.8,24-24V72h16v32h16V72h192V488z M479.9,434.8L416,446.4V72c0-8.8-7.2-16-16-16H208v-1l224-30.9c4.8-0.6,9.2,2.8,9.8,7.6
			l46.2,392.2c0,0.4,0.1,0.7,0.1,1.1C488,429.8,484.6,433.9,479.9,434.8L479.9,434.8z"/>
	</g>
</g>
</svg>
