<?xml version="1.0" encoding="utf-8"?>
<!-- Generator: Adobe Illustrator 26.0.1, SVG Export Plug-In . SVG Version: 6.00 Build 0)  -->
<svg version="1.1" id="female" xmlns="http://www.w3.org/2000/svg" xmlns:xlink="http://www.w3.org/1999/xlink" x="0px" y="0px"
	 viewBox="0 0 629.6 522.5" style="enable-background:new 0 0 629.6 522.5;" xml:space="preserve">
<style type="text/css">
	.st0{fill:#673821;stroke:#000000;stroke-width:4;stroke-miterlimit:10;}
	.st1{fill:#373737;stroke:#000000;stroke-width:4;stroke-miterlimit:10;}
	.st2{fill:#FFFFFF;stroke:#000000;stroke-width:4;stroke-miterlimit:10;}
	.st3{fill:#F7B991;stroke:#000000;stroke-width:4;stroke-miterlimit:10;}
	.st4{fill:#E6E6E6;stroke:#000000;stroke-width:4;stroke-miterlimit:10;}
	.st5{fill:#FDCBA8;stroke:#000000;stroke-width:4;stroke-miterlimit:10;}
	.st6{fill:#E62626;stroke:#000000;stroke-width:4;stroke-miterlimit:10;}
	.st7{fill:#464646;stroke:#000000;stroke-width:4;stroke-miterlimit:10;}
	.st8{fill:#FAB141;stroke:#000000;stroke-width:4;stroke-miterlimit:10;}
	.st9{fill:#FFD75A;stroke:#000000;stroke-width:4;stroke-miterlimit:10;}
	.st10{fill:#FFFFFF;}
</style>
<g>
	<path class="st0" d="M251.4,52.5L251.4,52.5c59.6,0,108,48.4,108,108v152c0,59.6-48.4,108-108,108l0,0c-59.6,0-108-48.4-108-108
		v-152C143.4,100.9,191.8,52.5,251.4,52.5z"/>
	<path class="st1" d="M299.4,344.5h-96v-32l48-12l48,12V344.5z"/>
	<path class="st1" d="M251.4,320.5c-83.9,0-152,58.3-152,130.3v69.7h304v-69.7C403.4,378.8,335.4,320.5,251.4,320.5z"/>
	<path class="st2" d="M251.4,320.5c-16.2,0-32.4,2.2-48,6.7l12,193.3h72l12-193.3C283.8,322.7,267.7,320.5,251.4,320.5L251.4,320.5z
		"/>
	<path class="st3" d="M219.4,357.3h64v-64h-64V357.3z"/>
	<path class="st4" d="M275.4,376.5l-24-20l32-40l16,10L275.4,376.5z"/>
	<path class="st4" d="M227.4,376.5l24-20l-32-40l-16,10L227.4,376.5z"/>
	<path class="st3" d="M161.4,189.5h12c13.3,0,24,10.7,24,24l0,0c0,13.3-10.7,24-24,24h-12c-13.3,0-24-10.7-24-24l0,0
		C137.4,200.3,148.2,189.5,161.4,189.5z"/>
	<path class="st3" d="M341.4,237.5h-12c-13.3,0-24-10.7-24-24l0,0c0-13.3,10.7-24,24-24h12c13.3,0,24,10.7,24,24l0,0
		C365.4,226.8,354.7,237.5,341.4,237.5z"/>
	<path class="st5" d="M251.4,112.5l29.1,7.9c34.8,9.5,58.9,41.1,59,77.2v29.5c0,47.1-38.2,85.4-85.4,85.4c0,0,0,0,0,0h-2.2
		c-48.7,0.2-88.2-39.1-88.4-87.8c0-0.1,0-0.2,0-0.2c0-33.6,0-64,0-64c30.4,0,59.3-13.5,78.7-36.9L251.4,112.5z"/>
	<path class="st0" d="M183.1,179.3c12-9.1,28.7-9.1,40.7,0c1.8,1.5,4.4,1.6,6.3,0.2c1.4-2,1-4.8-1.1-6.3c-0.1-0.1-0.3-0.2-0.4-0.2
		c-14.9-11.3-35.4-11.3-50.3,0c-2.2,1.2-2.9,4-1.7,6.1c0.1,0.1,0.2,0.3,0.2,0.4C178.7,180.9,181.3,180.8,183.1,179.3z"/>
	<path class="st0" d="M279.1,179.3c12-9.1,28.7-9.1,40.7,0c1.8,1.5,4.4,1.6,6.3,0.2c1.4-2,1-4.8-1.1-6.3c-0.1-0.1-0.3-0.2-0.4-0.2
		c-14.9-11.3-35.4-11.3-50.3,0c-2.2,1.2-2.9,4-1.7,6.1c0.1,0.1,0.2,0.3,0.2,0.4C274.7,180.9,277.3,180.8,279.1,179.3L279.1,179.3z"
		/>
	<path class="st6" d="M227.4,264.5c0,13.3,10.7,24,24,24c13.3,0,24-10.7,24-24H227.4z"/>
	<path class="st3" d="M251.4,248.5L251.4,248.5c-4.4,0-8-3.6-8-8v-16c0-4.4,3.6-8,8-8l0,0c4.4,0,8,3.6,8,8v16
		C259.4,244.9,255.9,248.5,251.4,248.5z"/>
	<circle class="st0" cx="299.4" cy="200.5" r="12"/>
	<circle class="st0" cx="203.4" cy="200.5" r="12"/>
	<path class="st7" d="M287.4,520.5h8l44-112l-24-28l28-40l-44-28L287.4,520.5z"/>
	<path class="st7" d="M215.4,520.5h-8l-44-112l24-28l-28-40l44-28L215.4,520.5z"/>
	<path class="st1" d="M99.4,450.8v69.7h44V359.1C116.3,382.7,99.4,415.1,99.4,450.8L99.4,450.8z"/>
	<path class="st1" d="M359.4,359.1v161.4h44v-69.7C403.4,415.1,386.6,382.7,359.4,359.1L359.4,359.1z"/>
	<path class="st8" d="M93.4,328.5h12v186h-12V328.5z"/>
	<path class="st8" d="M135.4,430.5h60l0,0c0,16.6-13.4,30-30,30l0,0C148.9,460.5,135.4,447.1,135.4,430.5L135.4,430.5L135.4,430.5z"
		/>
	<path class="st4" d="M165.4,378l-30,52.5h11.7l18.3-32l18.3,32h11.7L165.4,378z"/>
	<path class="st4" d="M33.4,378l-30,52.5h11.7l18.3-32l18.3,32h11.7L33.4,378z"/>
	<path class="st8" d="M3.4,430.5h60l0,0c0,16.6-13.4,30-30,30l0,0C16.9,460.5,3.4,447.1,3.4,430.5L3.4,430.5L3.4,430.5z"/>
	<g>
		<path class="st9" d="M195.4,368.6c0-3.3-2.7-6-6-6c-0.9,0-1.7,0.2-2.5,0.5l-8,3.6c-14.8,6.7-32.1,4-44.2-6.8
			c-20.2-17.9-50.5-17.9-70.7,0c-12.1,10.9-29.4,13.5-44.2,6.8l-8-3.6c-3-1.4-6.6,0-7.9,3c-0.4,0.8-0.5,1.6-0.5,2.5
			c0,2.4,1.4,4.5,3.5,5.5l8,3.6c19.1,8.7,41.6,5.2,57.2-8.8c15.6-13.8,39-13.8,54.6,0c15.6,14.1,38.1,17.5,57.2,8.9l8-3.6
			C194.1,373.1,195.4,371,195.4,368.6L195.4,368.6z"/>
		<path class="st9" d="M36.4,508.5h126v12h-126V508.5z"/>
	</g>
	<g>
		<g id="g1585" transform="translate(15,422.4678)">
			<g id="path1587">
				<path class="st10" d="M389.6-384.5v163.8l52.1-37.1c5.9-4.2,13.1-6.5,20.4-6.5h114.4c15,0,27.1-12.2,27.1-27.1v-120.1H416.7
					C401.7-411.6,389.6-399.4,389.6-384.5z"/>
				<path d="M389.6-209.7c2.2,0,4.5-0.7,6.4-2l52.1-37.1c4.1-2.9,8.9-4.5,14-4.5h114.4c21,0,38.1-17.1,38.1-38.1v-120.1
					c0-6.1-4.9-11-11-11H416.7c-21,0-38.1,17.1-38.1,38.1v163.8c0,4.1,2.3,7.9,6,9.8C386.2-210.1,387.9-209.7,389.6-209.7z
					 M592.6-400.6v109.2c0,8.9-7.2,16.1-16.1,16.1H462c-9.7,0-18.9,3-26.8,8.6L400.5-242v-142.4c0-8.9,7.2-16.1,16.1-16.1h176
					V-400.6z"/>
			</g>
		</g>
		<g>
			<path d="M574.3,73.7H455.7c-6.4,0-11.5-5.1-11.5-11.5s5.1-11.5,11.5-11.5h118.6c6.4,0,11.5,5.1,11.5,11.5S580.7,73.7,574.3,73.7z
				"/>
			<path d="M455.7,98.6h118.6c6.4,0,11.5,5.1,11.5,11.5s-5.1,11.5-11.5,11.5H455.7c-6.4,0-11.5-5.1-11.5-11.5S449.4,98.6,455.7,98.6
				z"/>
		</g>
	</g>
</g>
</svg>
