<svg id="company-reg" xmlns="http://www.w3.org/2000/svg" width="32" height="32" viewBox="0 0 32 32">
  <path id="Path_45013" data-name="Path 45013" d="M91.25,9.082a.469.469,0,0,1-.469-.469V7.347a.469.469,0,0,1,.938,0V8.613a.469.469,0,0,1-.469.469Zm-22.531,0a.469.469,0,0,1-.469-.469V7.347a.469.469,0,0,1,.938,0V8.613a.469.469,0,0,1-.469.469ZM79.984,3.759a.469.469,0,0,1-.469-.469V.469a.469.469,0,1,1,.938,0V3.29a.469.469,0,0,1-.469.469Zm-6.062,5.21H86.047a.938.938,0,0,1,.938.938V31.531h-14V9.906a.937.937,0,0,1,.938-.937Z" transform="translate(-63.984)" fill="#eee"/>
  <path id="Path_45014" data-name="Path 45014" d="M168.167,105.57h9.221a.938.938,0,0,1,.938.938v1.433h-11.1v-1.433A.938.938,0,0,1,168.167,105.57Z" transform="translate(-156.778 -98.972)" fill="#595f74"/>
  <path id="Path_45015" data-name="Path 45015" d="M191.451,55.948H182.23v-1.6a.938.938,0,0,1,.75-.919l3.86-.785,3.86.785a.938.938,0,0,1,.75.919Z" transform="translate(-170.841 -49.35)" fill="#676e87"/>
  <circle id="Ellipse_3377" data-name="Ellipse 3377" cx="4.411" cy="4.411" r="4.411" transform="translate(11.589 11.781)" fill="#66c1ff"/>
  <path id="Path_45016" data-name="Path 45016" d="M189.822,188.5a4.394,4.394,0,0,0-1.993.475,3.076,3.076,0,0,1,.388.2,3.376,3.376,0,0,1,.476.375c.552.531.628,1.719,1.211,1.98.421.188.754-.262,1.754-.569a5.224,5.224,0,0,1,2.019-.2A4.407,4.407,0,0,0,189.822,188.5Zm-.569,8.786a4.5,4.5,0,0,0,.569.036,4.412,4.412,0,0,0,4.032-2.62,3.613,3.613,0,0,1-1.067-.45c-.437-.275-.475-.437-.739-.58a1.946,1.946,0,0,0-2.352.6c-.3.6.279,1.1,0,2.125A2.508,2.508,0,0,1,189.253,197.286Zm-2.1-4.706c-.312-.723.2-1.292-.187-1.891a1.288,1.288,0,0,0-.636-.481,4.411,4.411,0,0,0,.494,5.943,5.443,5.443,0,0,0,.638-.755c.415-.594.817-1.168.688-1.709C188.021,193.11,187.443,193.241,187.158,192.58Z" transform="translate(-173.822 -176.719)" fill="#63ea86"/>
  <path id="Path_45017" data-name="Path 45017" d="M212.2,373.76h4.538a.5.5,0,0,1,.5.5v7.671H211.7V374.26A.5.5,0,0,1,212.2,373.76Z" transform="translate(-198.469 -350.4)" fill="#676e87"/>
  <path id="Path_45018" data-name="Path 45018" d="M30.031,205.3h7.594a.937.937,0,0,1,.938.938V224H30.031Zm-21.594,0h7.594V224H7.5V206.238A.937.937,0,0,1,8.438,205.3Z" transform="translate(-7.031 -192.469)" fill="#f7f7f7"/>
  <path id="Path_45019" data-name="Path 45019" d="M400.944,175.956H395.9v-1.394a.563.563,0,0,1,.563-.562h3.919a.562.562,0,0,1,.563.563Z" transform="translate(-371.156 -163.125)" fill="#676e87"/>
  <path id="Path_45020" data-name="Path 45020" d="M414.069,140.25H410.9v-1.437a.625.625,0,0,1,.513-.615l1.071-.2,1.071.2a.625.625,0,0,1,.513.617Z" transform="translate(-385.219 -129.375)" fill="#595f74"/>
  <path id="Path_45021" data-name="Path 45021" d="M40.444,175.956H35.4v-1.394a.563.563,0,0,1,.563-.562h3.919a.563.563,0,0,1,.563.563Z" transform="translate(-33.188 -163.125)" fill="#676e87"/>
  <path id="Path_45022" data-name="Path 45022" d="M53.569,140.25H50.4v-1.437a.625.625,0,0,1,.513-.615l1.071-.2,1.071.2a.625.625,0,0,1,.513.617Z" transform="translate(-47.25 -129.375)" fill="#595f74"/>
  <rect id="Rectangle_6495" data-name="Rectangle 6495" width="3.844" height="3.544" rx="1.772" transform="translate(25.344 15.644)" fill="#b3e0ff"/>
  <rect id="Rectangle_6496" data-name="Rectangle 6496" width="3.844" height="3.544" rx="1.772" transform="translate(25.344 25.175)" fill="#b3e0ff"/>
  <rect id="Rectangle_6497" data-name="Rectangle 6497" width="3.844" height="3.544" rx="1.772" transform="translate(2.813 15.644)" fill="#b3e0ff"/>
  <rect id="Rectangle_6498" data-name="Rectangle 6498" width="3.844" height="3.544" rx="1.772" transform="translate(2.813 25.175)" fill="#b3e0ff"/>
  <path id="Path_45023" data-name="Path 45023" d="M248.5,373.76h.938v8.171H248.5Z" transform="translate(-232.969 -350.4)" fill="#595f74"/>
  <path id="Path_45024" data-name="Path 45024" d="M41.813,348.337H37.969a.469.469,0,1,1,0-.937h3.844a.469.469,0,0,1,0,.938Zm22.531,0H60.5a.469.469,0,0,1,0-.937h3.844a.469.469,0,1,1,0,.938Z" transform="translate(-35.156 -325.688)" fill="#676e87"/>
  <path id="Path_45025" data-name="Path 45025" d="M2.813,22.65H6.656a.469.469,0,1,0,0-.937H2.813a.469.469,0,0,0,0,.938Zm.625-2.993H6.031a1.1,1.1,0,0,0,1.094-1.094V16.269a1.1,1.1,0,0,0-1.094-1.094H3.438a1.1,1.1,0,0,0-1.094,1.094v2.294a1.1,1.1,0,0,0,1.094,1.094Zm-.156-3.388a.156.156,0,0,1,.156-.156H6.031a.156.156,0,0,1,.156.156v2.294a.157.157,0,0,1-.156.156H3.438a.157.157,0,0,1-.156-.156Zm16.959-2.487a4.875,4.875,0,0,0-6.4-1.963.482.482,0,0,0-.089.046,4.915,4.915,0,0,0-1.569,1.3.432.432,0,0,0-.062.084,4.868,4.868,0,0,0,.537,6.494l.021.024a.481.481,0,0,0,.047.041,4.867,4.867,0,0,0,2.625,1.224c.014,0,.027,0,.041,0a4.865,4.865,0,0,0,5.053-2.812.449.449,0,0,0,.037-.081,4.867,4.867,0,0,0-.2-4.3.47.47,0,0,0-.037-.06ZM16,12.25a3.933,3.933,0,0,1,2.938,1.319,5.489,5.489,0,0,0-1.243.227,6.142,6.142,0,0,0-1.024.428,1.163,1.163,0,0,1-.4.161c-.144-.062-.294-.437-.415-.739a3.231,3.231,0,0,0-.663-1.151c-.047-.046-.1-.089-.144-.13A3.93,3.93,0,0,1,16,12.25Zm-3,6.5a3.932,3.932,0,0,1-.346-4.639.591.591,0,0,1,.1.117c.1.158.087.313.047.613a2.128,2.128,0,0,0,.1,1.207,1.656,1.656,0,0,0,.736.8c.191.119.216.142.237.233.079.338-.275.844-.618,1.334q-.121.172-.26.339Zm3.22,1.381a2.894,2.894,0,0,0,.111-.326,2.854,2.854,0,0,0-.017-1.479c-.069-.307-.087-.426-.023-.552a1.061,1.061,0,0,1,.634-.437,1.506,1.506,0,0,1,1.077.03.836.836,0,0,1,.188.151,3.075,3.075,0,0,0,.526.414,3.916,3.916,0,0,0,.641.327,3.945,3.945,0,0,1-3.134,1.871Zm3.53-2.725a3.071,3.071,0,0,1-.534-.267,2.119,2.119,0,0,1-.379-.3,1.71,1.71,0,0,0-.387-.3,2.42,2.42,0,0,0-1.8-.1,1.93,1.93,0,0,0-1.191.906,1.619,1.619,0,0,0-.056,1.184,1.928,1.928,0,0,1,.026,1.029,1.961,1.961,0,0,1-.213.5,3.92,3.92,0,0,1-1.523-.671q.18-.211.339-.438a2.73,2.73,0,0,0,.762-2.086,1.23,1.23,0,0,0-.656-.812.756.756,0,0,1-.369-.37,1.262,1.262,0,0,1-.034-.712,1.7,1.7,0,0,0-.187-1.25,1.546,1.546,0,0,0-.3-.337,3.969,3.969,0,0,1,.776-.593c.042.024.084.047.125.073a2.875,2.875,0,0,1,.4.312,2.574,2.574,0,0,1,.443.826,2.045,2.045,0,0,0,.9,1.244.945.945,0,0,0,.391.086,1.854,1.854,0,0,0,.816-.266,5.224,5.224,0,0,1,.875-.369,4.691,4.691,0,0,1,1.586-.2,3.933,3.933,0,0,1,.192,2.908ZM3.438,29.188H6.031a1.1,1.1,0,0,0,1.094-1.094V25.8a1.1,1.1,0,0,0-1.094-1.094H3.438A1.1,1.1,0,0,0,2.344,25.8v2.294a1.1,1.1,0,0,0,1.094,1.094ZM3.281,25.8a.157.157,0,0,1,.156-.156H6.031a.157.157,0,0,1,.156.156v2.294a.156.156,0,0,1-.156.156H3.438a.156.156,0,0,1-.156-.156ZM28.563,15.175H25.969a1.1,1.1,0,0,0-1.094,1.094v2.294a1.1,1.1,0,0,0,1.094,1.094h2.594a1.1,1.1,0,0,0,1.094-1.094V16.269a1.1,1.1,0,0,0-1.094-1.094Zm.156,3.387a.157.157,0,0,1-.156.156H25.969a.157.157,0,0,1-.156-.156V16.269a.156.156,0,0,1,.156-.156h2.594a.156.156,0,0,1,.156.156Zm1.875-6.2h-.337v-.924a1.033,1.033,0,0,0-.937-1.026V9.438a1.094,1.094,0,0,0-.9-1.076l-.687-.125V7.347a.469.469,0,1,0-.937,0v.889l-.687.125a1.094,1.094,0,0,0-.9,1.076v.972a1.033,1.033,0,0,0-.938,1.026v.927h-.806V9.906A1.408,1.408,0,0,0,22.063,8.5h-.046V7.536a1.409,1.409,0,0,0-.938-1.326V4.994a1.411,1.411,0,0,0-1.125-1.378l-3.486-.709V.469a.469.469,0,1,0-.937,0V2.906l-3.484.709a1.411,1.411,0,0,0-1.125,1.378V6.21a1.409,1.409,0,0,0-.938,1.326V8.5H9.938A1.408,1.408,0,0,0,8.531,9.906v2.456H7.725v-.925a1.033,1.033,0,0,0-.937-1.026V9.438a1.094,1.094,0,0,0-.9-1.076L5.2,8.236V7.347a.469.469,0,0,0-.937,0v.889l-.688.125a1.094,1.094,0,0,0-.9,1.076v.972a1.033,1.033,0,0,0-.938,1.028v.925H1.406A1.407,1.407,0,0,0,0,13.769V31.531A.469.469,0,0,0,.469,32H31.531A.469.469,0,0,0,32,31.531V13.769a1.407,1.407,0,0,0-1.406-1.406ZM3.619,9.438a.156.156,0,0,1,.131-.153l.987-.18.987.18a.156.156,0,0,1,.126.153V10.4H3.619Zm-.937,2a.094.094,0,0,1,.094-.094H6.694a.094.094,0,0,1,.094.094v.925H2.681Zm5.85,19.625H.938V13.769a.469.469,0,0,1,.469-.469H8.531ZM11.858,4.994a.47.47,0,0,1,.375-.459L16,3.769l3.767.766a.47.47,0,0,1,.375.459V6.129H11.858Zm-.937,2.542a.469.469,0,0,1,.469-.469h9.221a.469.469,0,0,1,.469.469V8.5H10.921Zm4.611,23.527H13.7v-7.2a.031.031,0,0,1,.031-.031h1.8Zm2.769,0H16.469V23.829h1.8a.031.031,0,0,1,.031.031Zm4.231,0H19.237v-7.2a.97.97,0,0,0-.969-.969H13.731a.97.97,0,0,0-.969.969v7.2H9.469V9.906a.469.469,0,0,1,.469-.469H22.063a.469.469,0,0,1,.469.469ZM26.15,9.438a.156.156,0,0,1,.129-.154l.987-.18.984.181a.156.156,0,0,1,.131.153V10.4H26.15Zm-.937,2a.094.094,0,0,1,.094-.094h3.919a.094.094,0,0,1,.094.094v.925H25.213Zm5.85,19.625H23.469V13.3h7.125a.469.469,0,0,1,.469.469Zm-1.875-9.35H25.344a.469.469,0,0,0,0,.938h3.844a.469.469,0,1,0,0-.937Zm-.625,2.993H25.969A1.1,1.1,0,0,0,24.875,25.8v2.294a1.1,1.1,0,0,0,1.094,1.094h2.594a1.1,1.1,0,0,0,1.094-1.094V25.8a1.1,1.1,0,0,0-1.094-1.094Zm.156,3.388a.156.156,0,0,1-.156.156H25.969a.156.156,0,0,1-.156-.156V25.8a.157.157,0,0,1,.156-.156h2.594a.157.157,0,0,1,.156.156Z" fill="#272a33"/>
</svg>
