<svg id="Group_3507" data-name="Group 3507" xmlns="http://www.w3.org/2000/svg" width="45.368" height="45.368" viewBox="0 0 45.368 45.368">
  <path id="Path_19911" data-name="Path 19911" d="M116.849,7.5l-2.658,6.2V48.881a2.658,2.658,0,0,1-2.658,2.658H82.38l2.658-4.811V10.158A2.658,2.658,0,0,1,87.7,7.5Z" transform="translate(-75.08 -6.835)" fill="#fff"/>
  <path id="Path_19912" data-name="Path 19912" d="M78.442,434.5H49.378v3.544a2.658,2.658,0,0,0,2.658,2.658H81.543" transform="translate(-45.003 -395.999)" fill="#dadadc"/>
  <path id="Path_19913" data-name="Path 19913" d="M378.378,434.5v3.411a2.791,2.791,0,0,0,2.791,2.791h0a2.791,2.791,0,0,0,2.791-2.791V434.5" transform="translate(-344.85 -395.999)" fill="#fff"/>
  <path id="Path_19914" data-name="Path 19914" d="M444.186,7.5h0a2.808,2.808,0,0,1,2.808,2.808V13.7h-5.615V10.308A2.808,2.808,0,0,1,444.186,7.5Z" transform="translate(-402.268 -6.835)" fill="#dadadc"/>
  <rect id="Rectangle_3257" data-name="Rectangle 3257" width="14.715" height="6.646" rx="3.323" transform="translate(13.624 4.652)" fill="#c8c5cc"/>
  <path id="Path_19915" data-name="Path 19915" d="M358.781,169.007v15.4c-.106,0-.214.007-.322.007a7.709,7.709,0,1,1,0-15.418C358.567,169,358.674,169,358.781,169.007Z" transform="translate(-319.67 -154.025)" fill="#e1e1e3"/>
  <circle id="Ellipse_2708" data-name="Ellipse 2708" cx="5.937" cy="5.937" r="5.937" transform="translate(32.852 16.747)" fill="#19ac66"/>
  <path id="Path_19916" data-name="Path 19916" d="M427.062,189a5.967,5.967,0,0,0-1.039.093,5.936,5.936,0,0,1,0,11.689A5.936,5.936,0,1,0,427.062,189Z" transform="translate(-388.273 -172.253)" fill="#17a454"/>
  <path id="Path_19917" data-name="Path 19917" d="M26.992,340.05a2.215,2.215,0,0,1-2.215,2.222H9.979a2.215,2.215,0,0,1-2.215-2.208L7.75,335.8a3.1,3.1,0,0,1,2.091-2.931l3.528-1.217a3.089,3.089,0,0,0,1.278-.839c.511-.559,2.142-1.3,2.142-2.092l-1.329-2.22h3.81l-1.329,2.22c0,.759,1.606,1.471,2.078,2.02a3.085,3.085,0,0,0,1.342.911l3.528,1.217a3.1,3.1,0,0,1,2.09,2.931Z" transform="translate(-7.063 -297.569)" fill="#f69531"/>
  <path id="Path_19918" data-name="Path 19918" d="M119.029,335.8a3.1,3.1,0,0,0-2.091-2.931l-3.528-1.217a3.084,3.084,0,0,1-1.342-.911c-.472-.549-2.078-1.261-2.078-2.02l1.329-2.22h-1.329l-1.241,2.072.089.148a.711.711,0,0,1-.086.323c.346.637,1.582,1.227,1.986,1.7a3.085,3.085,0,0,0,1.342.911l3.528,1.217a3.1,3.1,0,0,1,2.09,2.931l.013,4.251a2.215,2.215,0,0,1-2.215,2.222h1.329a2.215,2.215,0,0,0,2.215-2.222Z" transform="translate(-99.114 -297.569)" fill="#f48a31"/>
  <path id="Path_19919" data-name="Path 19919" d="M90.952,330.74l-.14.161a4.069,4.069,0,0,1-2.3.883,3.984,3.984,0,0,1-1.464-.2,4.1,4.1,0,0,1-.722-.329c-.23-.13-.447-.282-.677-.41l-.066-.036a3.1,3.1,0,0,0,.813-2.092V326.5H90.2v2.22a3.1,3.1,0,0,0,.749,2.02Z" transform="translate(-77.997 -297.569)" fill="#fdd8ae"/>
  <path id="Path_19920" data-name="Path 19920" d="M111.341,328.72V326.5h-1.329v2.22a3.1,3.1,0,0,0,.749,2.02l-.14.161a4.1,4.1,0,0,1-1.847.832,3.946,3.946,0,0,0,.874.052,4.069,4.069,0,0,0,2.3-.883l.14-.161A3.1,3.1,0,0,1,111.341,328.72Z" transform="translate(-99.135 -297.569)" fill="#fbbf7d"/>
  <path id="Path_19921" data-name="Path 19921" d="M77.073,253.164l1.329,1.388v2.777a4.076,4.076,0,0,1-8.152,0V255.88l1.329-2.717c0-1.272-.3-.975.975-.975H76.1C77.371,252.189,77.073,251.891,77.073,253.164Z" transform="translate(-64.025 -229.815)" fill="#fdd8ae"/>
  <path id="Path_19922" data-name="Path 19922" d="M90.981,253.163v4.165a4.076,4.076,0,0,1-3.411,4.021,4.075,4.075,0,0,0,4.741-4.021v-2.777Zm-4.519-.975c-.607,0-.857-.067-.952,0Zm3.768,0c.461.071.751.3.751.978C90.981,251.972,91.242,252.157,90.23,252.185Z" transform="translate(-77.933 -229.814)" fill="#fbbf7d"/>
  <path id="Path_19923" data-name="Path 19923" d="M78.4,239.8v1.388l-4.739-1.165a1.24,1.24,0,0,0-1.159.313l-2.254,2.182V239.8a2.3,2.3,0,0,1,2.3-2.3H76.1a2.3,2.3,0,0,1,2.3,2.3Z" transform="translate(-64.025 -216.455)" fill="#787681"/>
  <path id="Path_19924" data-name="Path 19924" d="M122.579,237.5H121.25a2.3,2.3,0,0,1,2.3,2.3v1.061l1.329.327V239.8a2.3,2.3,0,0,0-2.3-2.3Z" transform="translate(-110.506 -216.455)" fill="#57565c"/>
  <path id="Path_19925" data-name="Path 19925" d="M35.161,14.178H13.923a.665.665,0,0,0,0,1.329H35.161a.665.665,0,1,0,0-1.329ZM10.285,38.855a.665.665,0,1,0,.665.665.665.665,0,0,0-.665-.665Zm0,2.658a.665.665,0,1,0,.665.665.665.665,0,0,0-.665-.665Zm0-5.317a.665.665,0,1,0,.665.665.665.665,0,0,0-.665-.665ZM44.7,7.532a.665.665,0,0,0,.665-.665V3.472A3.476,3.476,0,0,0,41.9,0l-.1,0-.05,0H12.594A3.327,3.327,0,0,0,9.271,3.323V20.38H8.507a2.972,2.972,0,0,0-2.968,2.968v4.165a4.739,4.739,0,0,0,2.147,3.965,2.435,2.435,0,0,1-1.619,1.975L2.539,34.671A3.766,3.766,0,0,0,0,38.233L.013,42.5a2.884,2.884,0,0,0,2.88,2.871h14.8c.088,0,.175,0,.261-.012a.667.667,0,0,0,.125.012H36.518a.67.67,0,0,0,.072,0,3.327,3.327,0,0,0,3.162-3.319V29.212a6.6,6.6,0,0,0,0-13.055V7.532ZM6.867,23.349a1.641,1.641,0,0,1,1.639-1.639h3.544a1.641,1.641,0,0,1,1.639,1.639v.54l-3.916-.963a1.9,1.9,0,0,0-1.78.481L6.867,24.5Zm0,4.165V26.347l2.052-1.985a.572.572,0,0,1,.538-.145l4.233,1.041v2.256a3.411,3.411,0,0,1-6.823,0Zm5.169,5.541a3.3,3.3,0,0,1-1.578.5,3.333,3.333,0,0,1-1.926-.517,3.762,3.762,0,0,0,.395-.978,4.726,4.726,0,0,0,2.7,0,3.763,3.763,0,0,0,.406,1Zm6.752,10.529a1.54,1.54,0,0,1-1.1.456h-.9V41.47a.665.665,0,0,0-1.329,0v2.569H5.006V41.47a.665.665,0,0,0-1.329,0v2.569H2.893a1.553,1.553,0,0,1-1.551-1.546l-.013-4.263a2.436,2.436,0,0,1,1.642-2.3L6.5,34.71a3.754,3.754,0,0,0,1.168-.655,4.718,4.718,0,0,0,2.636.829q.107,0,.218-.005a4.653,4.653,0,0,0,2.386-.807,3.753,3.753,0,0,0,1.149.638l3.529,1.218a2.436,2.436,0,0,1,1.642,2.3l.013,4.25a1.541,1.541,0,0,1-.453,1.1Zm1.329.456a2.861,2.861,0,0,0,.453-1.56l-.01-3.314H32.841v2.747a3.438,3.438,0,0,0,.735,2.127ZM38.424,38.5s0,0,0,0v3.411a2.127,2.127,0,1,1-4.253,0V38.5a.665.665,0,0,0-.665-.665l-.044,0-.044,0H20.536a3.765,3.765,0,0,0-2.517-3.165L14.49,33.453a2.435,2.435,0,0,1-1.618-1.975,4.739,4.739,0,0,0,2.147-3.965V23.349a2.972,2.972,0,0,0-2.968-2.968H10.6V3.323a2,2,0,0,1,1.994-1.994H39.167a3.454,3.454,0,0,0-.743,2.143V6.867s0,0,0,0v9.221a6.6,6.6,0,0,0,0,13.185Zm5.615-15.813a5.272,5.272,0,1,1-5.272-5.272,5.272,5.272,0,0,1,5.272,5.272ZM39.753,6.2V3.472a2.143,2.143,0,0,1,4.286,0V6.2Zm-10.4,17.279a.665.665,0,1,0,0-1.329H17.633a.665.665,0,0,0,0,1.329Zm5.807,10.633H21.87a.665.665,0,0,0,0,1.329H35.161a.665.665,0,1,0,0-1.329ZM15.889,30.792a.665.665,0,0,0,.665.665H35.161a.665.665,0,1,0,0-1.329H16.553a.665.665,0,0,0-.665.665ZM36.93,22.573a.665.665,0,1,0-.94.94l1.3,1.3a.665.665,0,0,0,.94,0L41.543,21.5a.665.665,0,0,0-.94-.94L37.759,23.4ZM31.146,18.83a.665.665,0,0,0-.665-.665H13.923a.665.665,0,0,0,0,1.329H30.482a.665.665,0,0,0,.665-.665ZM17.9,27.469H30.482a.665.665,0,1,0,0-1.329H17.9a.665.665,0,0,0,0,1.329ZM14.488,11.962H27.43a1.552,1.552,0,0,0,1.551-1.551V5.538A1.552,1.552,0,0,0,27.43,3.987H14.488a1.552,1.552,0,0,0-1.551,1.551v4.874a1.552,1.552,0,0,0,1.551,1.551Zm-.222-6.424a.222.222,0,0,1,.222-.222H27.43a.222.222,0,0,1,.222.222v4.874a.222.222,0,0,1-.222.222H14.488a.222.222,0,0,1-.222-.222Zm16.044,1.4a.665.665,0,0,0,.665.665h2.236a1.62,1.62,0,0,1-1.475.954h-.761a.665.665,0,0,0-.481,1.124l3.045,3.188a.665.665,0,1,0,.961-.918L32.446,9.8a2.958,2.958,0,0,0,2.162-2.2h.553a.665.665,0,1,0,0-1.329h-.554a2.935,2.935,0,0,0-.41-.954h.964a.665.665,0,1,0,0-1.329H30.975a.665.665,0,0,0,0,1.329h.761a1.62,1.62,0,0,1,1.475.954H30.975a.665.665,0,0,0-.665.665Z" transform="translate(0)" fill="#3c3b41"/>
</svg>
