<?xml version="1.0" encoding="utf-8"?>
<!-- Generator: Adobe Illustrator 26.0.1, SVG Export Plug-In . SVG Version: 6.00 Build 0)  -->
<svg version="1.1"
	 id="Layer_1" image-rendering="optimizeQuality" shape-rendering="geometricPrecision" text-rendering="geometricPrecision" xmlns:xodm="http://www.corel.com/coreldraw/odm/2003"
	 xmlns="http://www.w3.org/2000/svg" xmlns:xlink="http://www.w3.org/1999/xlink" x="0px" y="0px" viewBox="0 0 512 512"
	 style="enable-background:new 0 0 512 512;" xml:space="preserve">
<style type="text/css">
	.st0{fill-rule:evenodd;clip-rule:evenodd;fill:#212121;}
	.st1{fill-rule:evenodd;clip-rule:evenodd;fill:#FFFFFF;}
	.st2{fill-rule:evenodd;clip-rule:evenodd;fill:#F8951D;}
	.st3{fill-rule:evenodd;clip-rule:evenodd;fill:#4682BF;}
	.st4{fill-rule:evenodd;clip-rule:evenodd;fill:#E6E6E6;}
	.st5{fill-rule:evenodd;clip-rule:evenodd;fill:#BABABA;}
	.st6{fill-rule:evenodd;clip-rule:evenodd;fill:#CFCFCF;}
</style>
<g id="Layer_x0020_1">
	<g>
		<path class="st0" d="M442.1,512H140.4c-18.7,0-33.9-15.2-33.9-33.9V91.2c0-18.7,15.2-33.9,33.9-33.9h259c1.6,0,3.1,0.6,4.2,1.8
			l70.5,70.5c1.1,1.1,1.8,2.6,1.8,4.2V478C476,496.7,460.8,512,442.1,512L442.1,512z M140.4,69.3c-12.1,0-21.9,9.8-21.9,21.9V478
			c0,12.1,9.8,21.9,21.9,21.9h301.6c12.1,0,21.9-9.8,21.9-21.9V136.3l-67-67L140.4,69.3L140.4,69.3z"/>
		<path class="st0" d="M470,139.8h-70.5c-3.3,0-6-2.7-6-6V63.3c0-5.3,6.5-8,10.2-4.2l70.5,70.5C478,133.3,475.3,139.8,470,139.8z
			 M405.5,127.8h50l-50-50V127.8z"/>
		<path class="st0" d="M112.5,454.7H69.9c-18.7,0-33.9-15.2-33.9-33.9V34C36,15.3,51.2,0,69.9,0h259c18.7,0,33.9,15.2,33.9,33.9
			v29.3c0,7.9-12,7.9-12,0V34c0-12.1-9.8-21.9-21.9-21.9h-259C57.8,12,48,21.9,48,34v386.8c0,12.1,9.8,21.9,21.9,21.9h42.6
			C120.4,442.7,120.4,454.7,112.5,454.7z"/>
		<path class="st0" d="M352.4,335.2H177c-3.3,0-6-2.7-6-6V204.1c0-7.9,12-7.9,12,0v119.1h163.5V204.1c0-7.9,12-7.9,12,0v125.1
			C358.4,332.5,355.8,335.2,352.4,335.2L352.4,335.2z"/>
		<path class="st0" d="M367,210.1H162.4c-8.4,0-6-12.5-6-24.2c0-1.9,0.9-3.7,2.4-4.8l102.3-76.2c2.1-1.6,5-1.6,7.2,0l102.3,76.2
			c4,3,2.4,14.3,2.4,23C373,207.4,370.3,210.1,367,210.1L367,210.1z M168.4,198.1H361v-9.1l-96.3-71.8l-96.3,71.8V198.1z"/>
		<path class="st0" d="M256,335.2c-3.3,0-6-2.7-6-6v-73.3h-39.4v73.3c0,7.9-12,7.9-12,0v-79.3c0-3.3,2.7-6,6-6H256c3.3,0,6,2.7,6,6
			v79.3C262,332.5,259.3,335.2,256,335.2L256,335.2z"/>
		<path class="st0" d="M221.4,301.3c-7.8,0-6-9.9-6-17.5c0-7.9,12-7.9,12,0C227.4,291.4,229.2,301.3,221.4,301.3L221.4,301.3z"/>
		<path class="st0" d="M328,296.5h-47.6c-3.3,0-6-2.7-6-6v-40.5c0-3.3,2.7-6,6-6H328c3.3,0,6,2.7,6,6v40.5
			C334,293.8,331.3,296.5,328,296.5z M286.4,284.5H322v-28.5h-35.6V284.5z"/>
		<path class="st0" d="M264.1,188.1c-29,0-29-44.1,0-44.1C293.1,144.1,293.1,188.1,264.1,188.1z M264.1,156.1
			c-13.2,0-13.2,20.1,0,20.1C277.4,176.1,277.4,156.1,264.1,156.1z"/>
		<path class="st0" d="M343.1,174.1c-3.3,0-6-2.7-6-6v-50.4h-25.1v22.8c0,7.9-12,7.9-12,0v-28.8c0-3.3,2.7-6,6-6h37.1
			c3.3,0,6,2.7,6,6v56.4C349.1,171.5,346.5,174.1,343.1,174.1z"/>
		<path class="st0" d="M418.7,378.1h-255c-7.9,0-7.9-12,0-12h255C426.6,366.1,426.6,378.1,418.7,378.1z"/>
		<path class="st0" d="M418.7,421.9h-255c-7.9,0-7.9-12,0-12h255C426.6,409.9,426.6,421.9,418.7,421.9z"/>
		<path class="st0" d="M418.7,465.6h-255c-7.9,0-7.9-12,0-12h255C426.6,453.6,426.6,465.6,418.7,465.6z"/>
	</g>
	<path class="st1" d="M264.1,176.1c13.2,0,13.2-20.1,0-20.1C250.9,156.1,250.9,176.1,264.1,176.1z"/>
	<path class="st2" d="M286.2,166.1c0,12.1-9.9,22-22,22c-12.2,0-22-9.9-22-22s9.9-22,22-22C276.3,144.1,286.2,154,286.2,166.1z
		 M177,198.1h184v-9.1l-96.3-71.8l-96.3,71.8v9.1L177,198.1z"/>
	<path class="st3" d="M322,255.9h-35.6v28.5H322V255.9z"/>
	<path class="st1" d="M328,296.5h-47.6c-3.3,0-6-2.7-6-6v-40.5c0-3.3,2.7-6,6-6H328c3.3,0,6,2.7,6,6v40.5
		C334,293.8,331.3,296.5,328,296.5z M262,323.2h84.5V210.1H183v113.1h15.6v-73.3c0-3.3,2.7-6,6-6H256c3.3,0,6,2.7,6,6L262,323.2
		L262,323.2z"/>
	<path class="st1" d="M250,323.2v-67.3h-39.4v67.3H250z M227.4,295.3c0,7.9-12,7.9-12,0c0-7.6-1.8-17.5,6-17.5
		S227.4,287.7,227.4,295.3L227.4,295.3z"/>
	<path class="st1" d="M312.1,137.5l25.1,18.7v-38.4h-25.1V137.5z"/>
	<path class="st4" d="M349.1,111.8v53.4l21.4,16c1.5,1.1,2.4,2.9,2.4,4.8c0,25.2,2.3,24.2-14.5,24.2v119.1c0,3.3-2.7,6-6,6
		c-58.5,0-117,0-175.5,0c-3.3,0-6-2.7-6-6V210.1c-16.8,0-14.5,1-14.5-24.2c0-1.9,0.9-3.7,2.4-4.8l102.3-76.2c2.1-1.6,5-1.6,7.2,0
		l31.8,23.7v-16.8c0-3.3,2.7-6,6-6h37.1C346.5,105.8,349.1,108.5,349.1,111.8L349.1,111.8z M163.8,366.1h255c7.9,0,7.9,12,0,12h-255
		C155.9,378.1,155.9,366.1,163.8,366.1z M118.5,91.2V478c0,12.1,9.8,21.9,21.9,21.9h301.6c12.1,0,21.9-9.8,21.9-21.9V139.8h-64.5
		c-3.3,0-6-2.7-6-6V69.3c-84.3,0-168.7,0-253,0C128.4,69.3,118.5,79.1,118.5,91.2L118.5,91.2z M163.8,409.9h255c7.9,0,7.9,12,0,12
		h-255C155.9,421.9,155.9,409.9,163.8,409.9z M163.8,453.6h255c7.9,0,7.9,12,0,12h-255C155.9,465.6,155.9,453.6,163.8,453.6z"/>
	<path class="st5" d="M405.5,77.8v50h50L405.5,77.8z"/>
	<path class="st6" d="M106.5,442.7V91.2c0-18.7,15.2-33.9,33.9-33.9h210.4V34C350.9,21.9,341,12,329,12h-259C57.8,12,48,21.9,48,34
		v386.8c0,12.1,9.8,21.9,21.9,21.9L106.5,442.7L106.5,442.7z"/>
</g>
</svg>
