<svg xmlns="http://www.w3.org/2000/svg" width="37.102" height="42.046" viewBox="0 0 37.102 42.046">
  <g id="Group_3625" data-name="Group 3625" transform="translate(-189 -302.5)">
    <path id="Path_19936" data-name="Path 19936" d="M39.558,40.972h0a1.794,1.794,0,0,0-2.549-.311L29.3,46.318a1.547,1.547,0,0,0-1.368-1.741s-5.781-.746-7.646-1.305c-1.927-.5-5.346-2.611-7.335-2.8-2.238-.249-8.952,0-8.952,0v8.641a60.55,60.55,0,0,1,7.522.932c3.419.995,10.2,4.911,13.738,4.289,4.352-.746,14.049-10.692,14.049-10.692A1.937,1.937,0,0,0,39.558,40.972Z" transform="translate(186.119 290.143)" fill="#c7d9f9"/>
    <path id="Path_19937" data-name="Path 19937" d="M7.173,50.8H3.878A1.671,1.671,0,0,1,2.2,49.122V36.378A1.671,1.671,0,0,1,3.878,34.7H7.173a1.671,1.671,0,0,1,1.678,1.678V49.122A1.671,1.671,0,0,1,7.173,50.8Z" transform="translate(186.8 292.25)" fill="#e3ecff"/>
    <g id="Group_3624" data-name="Group 3624">
      <path id="Path_19938" data-name="Path 19938" d="M25.1,46.927l6.962.808A1.547,1.547,0,0,0,33.8,46.368h0a1.547,1.547,0,0,0-1.368-1.741s-5.781-.746-7.646-1.305c-1.927-.5-5.346-2.611-7.335-2.8-.373-.062-.932-.062-1.554-.124" transform="translate(181.617 290.093)" fill="none" stroke="#2a3c65" stroke-linecap="round" stroke-linejoin="round" stroke-width="1.5"/>
      <g id="Group_3623" data-name="Group 3623" transform="translate(5 -3)">
        <path id="Path_19940" data-name="Path 19940" d="M32.037,15.562l.586-5.427a.63.63,0,0,0-1.054-.547L28.64,12.01a.665.665,0,0,1-.976-.2L26.376,9.55a.676.676,0,0,0-1.132.039l-1.288,2.264a.665.665,0,0,1-.976.2L20.052,9.628A.654.654,0,0,0,19,10.175l.586,5.427a.667.667,0,0,0,.625.586H31.334A.718.718,0,0,0,32.037,15.562Zm-12.22,2.967v.7a.617.617,0,0,0,.625.625H31.1a.617.617,0,0,0,.625-.625v-.7A.617.617,0,0,0,31.1,17.9H20.481A.626.626,0,0,0,19.817,18.529Z" transform="translate(179.706 299.963)" fill="#fecb4d" stroke="#2a3c65" stroke-width="1"/>
        <circle id="Ellipse_2710" data-name="Ellipse 2710" cx="0.82" cy="0.82" r="0.82" transform="translate(211.939 306)" fill="#fecb4d" stroke="#2a3c65" stroke-width="1"/>
        <circle id="Ellipse_2711" data-name="Ellipse 2711" cx="0.82" cy="0.82" r="0.82" transform="translate(204.716 306)" fill="#fecb4d" stroke="#2a3c65" stroke-width="1"/>
        <circle id="Ellipse_2712" data-name="Ellipse 2712" cx="0.82" cy="0.82" r="0.82" transform="translate(197.455 306)" fill="#fecb4d" stroke="#2a3c65" stroke-width="1"/>
      </g>
      <path id="Path_20233" data-name="Path 20233" d="M.14-9.52h7.7l.294,1.428H4.872V0H3.038V-8.092H.14ZM16.03-5.488,14.252-2.982l-.7.1L11.27-5.81V0H9.464V-9.52h1.148l3.22,4.4,2.926-4.4h1.106V0H16.03Z" transform="translate(201 330)" fill="#f8951d"/>
    </g>
  </g>
</svg>
