<?xml version="1.0" encoding="utf-8"?>
<!-- Generator: Adobe Illustrator 26.0.1, SVG Export Plug-In . SVG Version: 6.00 Build 0)  -->
<svg version="1.1" id="Layer_1" xmlns="http://www.w3.org/2000/svg" xmlns:xlink="http://www.w3.org/1999/xlink" x="0px" y="0px"
	 viewBox="0 0 512 512" style="enable-background:new 0 0 512 512;" xml:space="preserve">
<style type="text/css">
	.st0{fill:#DDF5FF;}
	.st1{fill:#C1E9F4;}
	.st2{fill:#F8951D;}
	.st3{fill:#F76C1E;}
	.st4{fill:#ABDE97;}
	.st5{fill:#82CD64;}
	.st6{fill:#6DC54A;}
	.st7{fill:#5DB33A;}
</style>
<path class="st0" d="M101.2,7.6h371.6v496.9H101.2V7.6z"/>
<path class="st1" d="M446.6,7.6v195.8c0,8.1-9.1,13-15.8,8.4c-14.7-10.3-32.6-16.3-51.9-16.3c-50.1,0-90.9,40.8-90.9,90.9
	c0,0.6,0,1.3,0,1.9c0.1,5.6-4.5,10.2-10.1,10.2H101.2v206H388v-119c0-4.8,3.4-9,8.1-9.9c12.6-2.4,24.3-7.5,34.5-14.6
	c6.7-4.7,15.9,0,15.9,8.2v135.2h26.3V7.6H446.6z"/>
<path class="st2" d="M287,50H184c-11.2,0-20.2,9-20.2,20.2v88.9c0,11.2,9,20.2,20.2,20.2h206c11.2,0,20.2-9,20.2-20.2V70.2
	c0-11.2-9-20.2-20.2-20.2C390,50,287,50,287,50z"/>
<path class="st3" d="M390,50h-19.2C382,50,391,59,391,70.2v88.9c0,11.2-9,20.2-20.2,20.2H390c11.2,0,20.2-9,20.2-20.2V70.2
	C410.2,59,401.2,50,390,50z"/>
<path class="st4" d="M38.6,318.6v185.8h329.2V318.6H38.6z"/>
<path class="st5" d="M350.6,318.6v185.8h17.2V318.6H350.6z"/>
<path class="st6" d="M203.2,473.1H96c0-13.3-10.8-24.1-24.1-24.1v-74c13.3,0,24.1-10.8,24.1-24.1h214.4c0,13.3,10.8,24.1,24.1,24.1
	v74c-13.3,0-24.1,10.8-24.1,24.1H203.2z"/>
<path class="st7" d="M310.4,350.9h-10.9v3.1c0,13.6,7.9,26.1,20.4,31.4c0.4,0.2,0.8,0.3,1.2,0.5v52.2c-9.9,3.8-17.8,11.7-21.6,21.6
	H91.9c2.6,3.8,4.1,8.4,4.1,13.4h214.4c0-13.3,10.8-24.1,24.1-24.1v-74C321.2,375,310.4,364.2,310.4,350.9z"/>
<path class="st2" d="M449.6,286.3c0,39-31.6,70.7-70.7,70.7c-39,0-70.7-31.6-70.7-70.7c0-39,31.6-70.7,70.7-70.7
	C417.9,215.6,449.6,247.3,449.6,286.3z"/>
<path class="st3" d="M421.9,230.2c9.1,11.9,14.6,26.8,14.6,43c0,39-31.7,70.7-70.7,70.7c-16.2,0-31.1-5.4-43-14.6
	c12.9,16.8,33.2,27.7,56.1,27.7c39,0,70.7-31.6,70.7-70.7C449.6,263.4,438.7,243.1,421.9,230.2z"/>
<path d="M472.8,102.5c4.2,0,7.6-3.4,7.6-7.6V7.6c0-4.2-3.4-7.6-7.6-7.6H101.2c-4.2,0-7.6,3.4-7.6,7.6V311h-55
	c-4.2,0-7.6,3.4-7.6,7.6v69.3c0,4.2,3.4,7.6,7.6,7.6s7.6-3.4,7.6-7.6v-61.7h265.4c10.6,17.8,28,31,48.6,36.1v134.6H46.1v-73.8
	c0-4.2-3.4-7.6-7.6-7.6s-7.6,3.4-7.6,7.6v81.4c0,4.2,3.4,7.6,7.6,7.6h434.2c4.2,0,7.6-3.4,7.6-7.6v-374c0-4.2-3.4-7.6-7.6-7.6
	s-7.6,3.4-7.6,7.6V497h-89.9V364.5c1.2,0.1,2.3,0.1,3.5,0.1c43.2,0,78.3-35.1,78.3-78.3S421.9,208,378.7,208s-78.3,35.1-78.3,78.3
	c0,8.6,1.4,17,4,24.7H108.8V15.1h356.5v79.8C465.2,99.1,468.6,102.5,472.8,102.5z M378.9,223.2c34.8,0,63.1,28.3,63.1,63.1
	s-28.3,63.1-63.1,63.1s-63.1-28.3-63.1-63.1S344.1,223.2,378.9,223.2z"/>
<path d="M417.8,159.1V70.2c0-15.3-12.5-27.8-27.8-27.8H246c-4.2,0-7.6,3.4-7.6,7.6s3.4,7.6,7.6,7.6h144c7,0,12.6,5.7,12.6,12.6v88.9
	c0,7-5.7,12.6-12.6,12.6H184c-7,0-12.6-5.7-12.6-12.6V70.2c0-7,5.7-12.6,12.6-12.6h26.5c4.2,0,7.6-3.4,7.6-7.6s-3.4-7.6-7.6-7.6H184
	c-15.3,0-27.8,12.5-27.8,27.8v88.9c0,15.3,12.5,27.8,27.8,27.8h206C405.3,186.8,417.8,174.4,417.8,159.1z"/>
<path d="M88.4,473.1c0,4.2,3.4,7.6,7.6,7.6h214.4c4.2,0,7.6-3.4,7.6-7.6c0-9.1,7.4-16.5,16.5-16.5c4.2,0,7.6-3.4,7.6-7.6v-74
	c0-4.2-3.4-7.6-7.6-7.6c-9.1,0-16.5-7.4-16.5-16.5c0-4.2-3.4-7.6-7.6-7.6H96c-4.2,0-7.6,3.4-7.6,7.6c0,9.1-7.4,16.5-16.5,16.5
	c-4.2,0-7.6,3.4-7.6,7.6v74c0,4.2,3.4,7.6,7.6,7.6C81,456.6,88.4,464,88.4,473.1z M79.5,381.7c11.4-2.8,20.4-11.8,23.2-23.2h201.1
	c2.8,11.4,11.8,20.4,23.2,23.2v60.7c-11.4,2.8-20.4,11.8-23.2,23.2H102.6c-2.8-11.4-11.8-20.4-23.2-23.2v-60.7H79.5z"/>
<path d="M271.4,419.5h25.4c4.2,0,7.6-3.4,7.6-7.6s-3.4-7.6-7.6-7.6h-25.4c-4.2,0-7.6,3.4-7.6,7.6S267.3,419.5,271.4,419.5z"/>
<path d="M160.7,419.5h5.4c3.5,17.3,18.8,30.3,37.1,30.3s33.6-13,37.1-30.3h5.2c4.2,0,7.6-3.4,7.6-7.6s-3.4-7.6-7.6-7.6h-5.2
	c-3.5-17.3-18.8-30.3-37.1-30.3s-33.6,13-37.1,30.3h-5.4c-4.2,0-7.6,3.4-7.6,7.6S156.5,419.5,160.7,419.5z M203.2,389.2
	c12.5,0,22.7,10.2,22.7,22.7s-10.2,22.7-22.7,22.7s-22.7-10.2-22.7-22.7C180.5,399.4,190.7,389.2,203.2,389.2z"/>
<path d="M109.5,419.5h25.4c4.2,0,7.6-3.4,7.6-7.6s-3.4-7.6-7.6-7.6h-25.4c-4.2,0-7.6,3.4-7.6,7.6S105.3,419.5,109.5,419.5z"/>
<path d="M358,281.8c8.8,0,15.9-7.2,15.9-15.9v-7.3c0-8.8-7.2-15.9-15.9-15.9s-15.9,7.2-15.9,15.9v7.3
	C342,274.7,349.2,281.8,358,281.8z"/>
<path d="M383.9,306.7v7.3c0,8.8,7.2,15.9,15.9,15.9s15.9-7.1,15.9-15.9v-7.3c0-8.8-7.2-15.9-15.9-15.9S383.9,297.9,383.9,306.7z"/>
<path d="M356.6,329.1c1.1,0.6,2.3,0.9,3.5,0.9c2.7,0,5.4-1.5,6.7-4.1l37.7-72.2c1.9-3.7,0.5-8.3-3.2-10.2s-8.3-0.5-10.2,3.2
	l-37.7,72.2C351.4,322.6,352.9,327.2,356.6,329.1z"/>
<path d="M300.6,219.6c0-4.2-3.4-7.6-7.6-7.6H163.8c-4.2,0-7.6,3.4-7.6,7.6s3.4,7.6,7.6,7.6h129.3
	C297.2,227.2,300.6,223.8,300.6,219.6z"/>
<path d="M252.7,279.7h-88.9c-4.2,0-7.6,3.4-7.6,7.6s3.4,7.6,7.6,7.6h88.9c4.2,0,7.6-3.4,7.6-7.6S256.8,279.7,252.7,279.7z"/>
<path d="M252.7,245.9h-88.9c-4.2,0-7.6,3.4-7.6,7.6s3.4,7.6,7.6,7.6h88.9c4.2,0,7.6-3.4,7.6-7.6
	C260.2,249.3,256.8,245.9,252.7,245.9z"/>
<g>
	<g>
		<g>
			<path d="M233.3,113.1h13.1c1.5,0,2.6,1.2,2.6,2.6v23.9c0,13.4-6.7,21-19.6,21s-19.6-7.6-19.6-21V96.2c0-13.4,6.7-21,19.6-21
				s19.6,7.6,19.6,21v5.5c0,1.5-1.2,2.6-2.6,2.6h-7.2c-1.5,0-2.6-1.2-2.6-2.6v-6.3c0-6-2.6-8.2-6.8-8.2s-6.8,2.3-6.8,8.2v45.2
				c0,6,2.6,8.1,6.8,8.1s6.8-2.2,6.8-8.1v-12.8c0-1.5-1.2-2.6-2.6-2.6h-0.7c-1.5,0-2.6-1.2-2.6-2.6v-6.7
				C230.7,114.3,231.9,113.1,233.3,113.1z"/>
			<path d="M286,75.1c12.8,0,19.4,7.6,19.4,21l0,0c0,1.5-1.2,2.6-2.6,2.6h-7.2c-1.5,0-2.6-1.2-2.6-2.6v-0.8c0-6-2.4-8.2-6.6-8.2
				s-6.6,2.3-6.6,8.2c0,17.2,25.7,20.4,25.7,44.3c0,13.4-6.7,21-19.6,21s-19.6-7.6-19.6-21v-2.5c0-1.5,1.2-2.6,2.6-2.6h7.2
				c1.5,0,2.6,1.2,2.6,2.6v3.3c0,6,2.6,8.1,6.8,8.1s6.8-2.2,6.8-8.1c0-17.2-25.7-20.4-25.7-44.3C266.7,82.8,273.2,75.1,286,75.1z"/>
			<path d="M322.6,76.1H358c1.5,0,2.6,1.2,2.6,2.6v6.7c0,1.5-1.2,2.6-2.6,2.6h-8.5c-1.5,0-2.6,1.2-2.6,2.6V157
				c0,1.5-1.2,2.6-2.6,2.6h-7.9c-1.5,0-2.6-1.2-2.6-2.6V90.7c0-1.5-1.2-2.6-2.6-2.6h-8.5c-1.5,0-2.6-1.2-2.6-2.6v-6.7
				C320,77.3,321.1,76.1,322.6,76.1z"/>
		</g>
	</g>
</g>
</svg>
