<?xml version="1.0" encoding="utf-8"?>
<!-- Generator: Adobe Illustrator 26.0.1, SVG Export Plug-In . SVG Version: 6.00 Build 0)  -->
<svg version="1.1" id="Layer_1" xmlns="http://www.w3.org/2000/svg" xmlns:xlink="http://www.w3.org/1999/xlink" x="0px" y="0px"
	 viewBox="0 0 512 512" style="enable-background:new 0 0 512 512;" xml:space="preserve">
<style type="text/css">
	.st0{fill:#006DF0;stroke:#000000;stroke-width:2;stroke-miterlimit:10;}
	.st1{fill:#D1E7F8;stroke:#000000;stroke-width:2;stroke-miterlimit:10;}
	.st2{fill:#BDDBFF;stroke:#000000;stroke-width:2;stroke-miterlimit:10;}
	.st3{fill:#FFA733;stroke:#000000;stroke-width:2;stroke-miterlimit:10;}
	.st4{fill:#FFC477;stroke:#000000;stroke-width:2;stroke-miterlimit:10;}
	.st5{fill:#FFB655;stroke:#000000;stroke-width:2;stroke-miterlimit:10;}
	.st6{fill:#FFDAAA;stroke:#000000;stroke-width:2;stroke-miterlimit:10;}
	.st7{fill:#6D6E71;stroke:#000000;stroke-width:2;stroke-miterlimit:10;}
	.st8{fill:#004FAC;stroke:#000000;stroke-width:2;stroke-miterlimit:10;}
	.st9{fill:#58595B;stroke:#000000;stroke-width:2;stroke-miterlimit:10;}
	.st10{fill:#F1F2F2;stroke:#000000;stroke-width:2;stroke-miterlimit:10;}
	.st11{fill:#FF7956;stroke:#000000;stroke-width:2;stroke-miterlimit:10;}
</style>
<g id="Layer_17">
	<path class="st0" d="M41.8,75.2h430.4c19,0,34.4,15.4,34.4,34.4v258.3c0,19-15.4,34.4-34.4,34.4H41.8c-19,0-34.4-15.4-34.4-34.4
		V109.7C7.4,90.6,22.8,75.2,41.8,75.2z"/>
	<path class="st1" d="M41.8,109.7h430.4v241H41.8V109.7z"/>
	<path class="st2" d="M231.2,350.7h241v-241C472.2,242.8,364.3,350.7,231.2,350.7z"/>
	<path class="st3" d="M76.2,281.8c0,19,15.4,34.4,34.4,34.4h155c-19,0-34.4-15.4-34.4-34.4v-17.2h-155V281.8z"/>
	<path class="st4" d="M403.3,350.7h-241c-19,0-34.4-15.4-34.4-34.4h137.7c19,0,34.4-15.4,34.4-34.4v-241c0-19,15.4-34.4,34.4-34.4
		c19,0,34.4,15.4,34.4,34.4v275.5C368.9,335.3,384.3,350.7,403.3,350.7z"/>
	<path class="st5" d="M389.4,350.7h14c-7,0-13.9-2.2-19.6-6.2C385.3,346.8,387.3,348.9,389.4,350.7z"/>
	<path class="st5" d="M136.5,324.9h137.7c19,0,34.4-15.4,34.4-34.4v-241c0-19,15.4-34.4,34.4-34.4c7.1,0,13.9,2.2,19.7,6.2
		c-10.9-15.6-32.3-19.4-47.9-8.5c-9.2,6.4-14.7,16.9-14.7,28.2v241c0,19-15.4,34.4-34.4,34.4H127.9c0,11.3,5.5,21.8,14.8,28.2
		C138.6,338.7,136.5,331.9,136.5,324.9z"/>
	<path class="st6" d="M334.5,6.4c-19,0-34.4,15.4-34.4,34.4v241c0,19-15.4,34.4-34.4,34.4s-34.4-15.4-34.4-34.4v-17.2H127.9V40.8
		c0-19,15.4-34.4,34.4-34.4H334.5z"/>
	<path class="st7" d="M205.3,402.3h103.3V454H205.3V402.3z"/>
	<path class="st8" d="M170.9,454c-19,0-34.4,15.4-34.4,34.4v17.2h241v-17.2c0-19-15.4-34.4-34.4-34.4H170.9z"/>
	<path class="st5" d="M437.8,178.5v137.7c0,19-15.4,34.4-34.4,34.4s-34.4-15.4-34.4-34.4V178.5H437.8z"/>
	<path class="st3" d="M377.5,316.3V178.5h-8.6v137.7c0,19,15.4,34.4,34.4,34.4c1.4-0.1,2.9-0.2,4.3-0.4
		C390.5,348.2,377.5,333.6,377.5,316.3z"/>
	<path class="st9" d="M205.3,402.3h103.3v17.2H205.3V402.3z"/>
	<path class="st10" d="M265.6,367.9h-17.2c-4.8,0-8.6,3.9-8.6,8.6c0,4.8,3.9,8.6,8.6,8.6h17.2c4.8,0,8.6-3.9,8.6-8.6
		C274.2,371.8,270.4,367.9,265.6,367.9z"/>
	<path class="st11" d="M162.3,204.3h60.3c4.8,0,8.6-3.9,8.6-8.6s-3.9-8.6-8.6-8.6h-60.3c-4.8,0-8.6,3.9-8.6,8.6
		S157.6,204.3,162.3,204.3z"/>
	<path class="st11" d="M162.3,238.8h60.3c4.8,0,8.6-3.9,8.6-8.6s-3.9-8.6-8.6-8.6h-60.3c-4.8,0-8.6,3.9-8.6,8.6
		S157.6,238.8,162.3,238.8z"/>
	<path class="st11" d="M265.6,187.1H257c-4.8,0-8.6,3.9-8.6,8.6s3.9,8.6,8.6,8.6h8.6c4.8,0,8.6-3.9,8.6-8.6S270.4,187.1,265.6,187.1
		z"/>
	<path class="st11" d="M162.3,169.9h60.3c4.8,0,8.6-3.9,8.6-8.6s-3.9-8.6-8.6-8.6h-60.3c-4.8,0-8.6,3.9-8.6,8.6
		S157.6,169.9,162.3,169.9z"/>
	<path class="st11" d="M257,169.9h8.6c4.8,0,8.6-3.9,8.6-8.6s-3.9-8.6-8.6-8.6H257c-4.8,0-8.6,3.9-8.6,8.6S252.2,169.9,257,169.9z"
		/>
	<path class="st11" d="M265.6,221.6H257c-4.8,0-8.6,3.9-8.6,8.6s3.9,8.6,8.6,8.6h8.6c4.8,0,8.6-3.9,8.6-8.6S270.4,221.6,265.6,221.6
		z"/>
	<g>
		<path class="st11" d="M343.1,109.7c0-4.8-3.9-8.6-8.6-8.6h-25.8v17.2h25.8C339.2,118.3,343.1,114.4,343.1,109.7z"/>
		<path class="st11" d="M334.5,83.8c4.8,0,8.6-3.9,8.6-8.6c0-4.8-3.9-8.6-8.6-8.6h-25.8v17.2H334.5z"/>
		<path class="st11" d="M343.1,144.1c0-4.8-3.9-8.6-8.6-8.6h-25.8v17.2h25.8C339.2,152.7,343.1,148.8,343.1,144.1z"/>
		<path class="st11" d="M343.1,178.5c0-4.8-3.9-8.6-8.6-8.6h-25.8v17.2h25.8C339.2,187.1,343.1,183.3,343.1,178.5z"/>
		<path class="st11" d="M343.1,247.4c0-4.8-3.9-8.6-8.6-8.6h-25.8V256h25.8C339.2,256,343.1,252.1,343.1,247.4z"/>
		<path class="st11" d="M334.5,290.4c4.8,0,8.6-3.9,8.6-8.6c0-4.8-3.9-8.6-8.6-8.6h-25.8v17.2H334.5z"/>
		<path class="st11" d="M343.1,213c0-4.8-3.9-8.6-8.6-8.6h-25.8v17.2h25.8C339.2,221.6,343.1,217.7,343.1,213z"/>
		<path class="st11" d="M412,247.4c0-4.8-3.9-8.6-8.6-8.6h-25.8V256h25.8C408.1,256,412,252.1,412,247.4z"/>
		<path class="st11" d="M412,213c0-4.8-3.9-8.6-8.6-8.6h-25.8v17.2h25.8C408.1,221.6,412,217.7,412,213z"/>
		<path class="st11" d="M412,281.8c0-4.8-3.9-8.6-8.6-8.6h-25.8v17.2h25.8C408.1,290.4,412,286.6,412,281.8z"/>
	</g>
	<g>
		<path class="st11" d="M228.8,51.5v2.8c0,1.3,1.1,2.4,2.4,2.4h5.9c1.3,0,2.4,1.1,2.4,2.4v8.3c0,1.3-1.1,2.4-2.4,2.4H230
			c-1.1,0-2,0.7-2.3,1.8c-1.5,6.5-4.6,11.6-9.4,15.1c-4.8,3.6-11.6,5.5-20.4,5.8c-1.3,0-2.3,1.1-2.3,2.4v2.7c0,3.2,0.6,5.8,1.9,7.6
			c1.2,1.8,3.4,2.7,6.5,2.7c2.9,0,5-0.9,6.3-2.6c1-1.4,1.6-3.3,1.8-5.7c0.1-1.2,1.1-2.2,2.4-2.2h15c1.4,0,2.5,1.2,2.4,2.6
			c-0.7,7.2-3.1,12.9-7.3,17.1c-4.6,4.7-11.3,7-19.9,7c-9.3,0-16.5-2.4-21.4-7.3c-5-4.9-7.4-12.2-7.4-21.9V80.7
			c0-1.3,1.1-2.4,2.4-2.4c7.5,0,13.1-0.2,16.8-0.6c4.1-0.4,7.2-1.2,9.3-2.4c0.9-0.5,1.7-1.3,2.4-2.1c1.1-1.5,0-3.7-1.9-3.7h-28.9
			c-1.3,0-2.4-1.1-2.4-2.4V59c0-1.3,1.1-2.4,2.4-2.4h30.8c1.3,0,2.4-1.1,2.4-2.4v-2.8c0-1.3-1.1-2.4-2.4-2.4h-30.8
			c-1.3,0-2.4-1.1-2.4-2.4v-9.7c0-1.3,1.1-2.4,2.4-2.4h61.4c1.3,0,2.4,1.1,2.4,2.4v9.7c0,1.3-1.1,2.4-2.4,2.4h-5.9
			C229.9,49.1,228.8,50.2,228.8,51.5z"/>
	</g>
</g>
</svg>
