<svg id="Layer_1" enable-background="new 0 0 512 512" height="512" viewBox="0 0 512 512" width="512" xmlns="http://www.w3.org/2000/svg"><g clip-rule="evenodd" fill-rule="evenodd"><g><g><path d="m99.138 8 313.717 1.641c5.358.028 9.71 4.403 9.71 9.76v410.695c0 5.376-4.385 9.761-9.761 9.761h-313.717c-5.376 0-9.761-4.385-9.761-9.761v-412.335c0-2.697.965-5.018 2.877-6.92s4.238-2.855 6.935-2.841z" fill="#d1d1d6"/><path d="m99.138 8 18.756.098v431.758h-18.807c-5.376 0-9.761-4.385-9.761-9.761v-412.334c0-2.697.965-5.018 2.877-6.92s4.238-2.855 6.935-2.841z" fill="#a0a0a3"/><path d="m46.889 60.249 313.717 1.641c5.358.028 9.71 4.402 9.71 9.76v410.695c0 5.376-4.385 9.761-9.761 9.761h-313.717c-5.376 0-9.761-4.385-9.761-9.761v-412.335c0-2.697.965-5.018 2.877-6.92s4.239-2.855 6.935-2.841z" fill="#eceff1"/><path d="m46.889 60.249 18.756.098v431.758h-18.807c-5.376 0-9.761-4.385-9.761-9.761v-412.334c0-2.697.965-5.018 2.877-6.92s4.238-2.855 6.935-2.841z" fill="#d1d1d6"/><path d="m262.779 60.198h63.003v71.637c0 1.111-.573 2.064-1.553 2.586-.981.522-2.091.464-3.012-.157l-24.002-16.181c-.985-.663-2.197-.682-3.202-.047l-26.742 16.902c-.926.585-2.018.618-2.978.089s-1.515-1.469-1.515-2.565v-72.264z" fill="#ffd064"/><path d="m316.021 61.656v69.104l5.197 3.503c.921.621 2.031.679 3.012.157s1.553-1.474 1.553-2.586v-70.127-1.51h-9.762z" fill="#ffc338"/></g><g><path d="m304.039 492.105-6.372-28.294c-.835-3.708-4.295-6.06-8.096-6.06h-91.094c-3.801 0-7.261 2.354-8.096 6.06l-6.372 28.294z" fill="#837683"/><path d="m304.039 492.105-6.372-28.293c-.835-3.708-4.294-6.061-8.096-6.061h-9.762c3.802 0 7.261 2.352 8.096 6.061l6.372 28.293z" fill="#685e68"/><path d="m325.548 331.281-23.345 23.345 138.645 145.459c2.294 2.407 5.074 3.717 8.263 3.895 3.191.178 5.902-.826 8.06-2.984l14.747-14.747c2.158-2.158 3.162-4.869 2.984-8.06-.178-3.19-1.488-5.97-3.895-8.264z" fill="#e3a76f"/><path d="m325.548 331.28-6.902 6.903 145.46 138.645c2.407 2.293 3.717 5.074 3.895 8.264s-.826 5.901-2.984 8.06l6.903-6.903c2.158-2.158 3.162-4.869 2.984-8.059s-1.488-5.971-3.895-8.264z" fill="#c48958"/><path d="m333.706 339.156c8.433-7.163 18.654-14.926 32.9-25.524l-49.784-49.784c-32.52 43.711-38.339 49.531-82.051 82.051l49.784 49.784c10.599-14.246 18.361-24.467 25.524-32.899 7.652-9.009 14.619-15.976 23.627-23.628z" fill="#c48958"/><path d="m323.725 270.75-6.903-6.902c-32.52 43.711-38.339 49.531-82.051 82.051l6.902 6.902c43.712-32.52 49.532-38.34 82.052-82.051z" fill="#ab7448"/><path d="m319.124 242.36-11.799 11.799c-3.244 3.244-3.244 8.552-.001 11.797l57.175 57.175c3.244 3.244 8.552 3.244 11.797 0l11.799-11.799c3.244-3.244 3.244-8.552 0-11.797l-57.175-57.175c-3.244-3.245-8.553-3.245-11.796 0z" fill="#e3a76f"/><path d="m319.124 242.36-6.902 6.903c3.243-3.244 8.552-3.244 11.796 0l57.175 57.174c3.244 3.245 3.244 8.552 0 11.797l6.902-6.903c3.244-3.244 3.244-8.552 0-11.797l-57.175-57.174c-3.245-3.245-8.553-3.245-11.796 0z" fill="#c48958"/><path d="m225.082 336.402-11.799 11.798c-3.243 3.244-3.244 8.552 0 11.796l57.175 57.175c3.244 3.244 8.552 3.244 11.797-.001l11.799-11.798c3.244-3.244 3.244-8.552 0-11.797l-57.175-57.175c-3.245-3.243-8.553-3.243-11.797.002z" fill="#e3a76f"/><path d="m282.254 417.171 6.902-6.903c-3.244 3.245-8.552 3.245-11.796 0l-57.175-57.174c-3.244-3.245-3.244-8.552 0-11.797l-6.902 6.903c-3.244 3.244-3.244 8.552 0 11.797l57.175 57.174c3.244 3.245 8.552 3.245 11.796 0z" fill="#c48958"/></g></g><path d="m466.89 478.639c-.094-1.159-.519-2.028-1.415-2.919l-131.688-125.401c-4.401 4.081-8.538 8.22-12.632 12.631l125.452 131.621c.896.929 1.745 1.36 2.924 1.419 1.132.061 1.557-.26 1.934-.651l14.765-14.748c.471-.461.707-.922.66-1.952zm-104.602-49.34v54.81h-51.869l-4.962-22.051c-1.627-7.249-8.17-12.299-15.897-12.299h-91.092c-7.731 0-14.269 5.06-15.901 12.299l-4.958 22.051h-132.523v-415.82l209.68 1.091v68.429c0 2.921 1.58 5.6 4.141 7.01 1.198.661 2.529.991 3.859.991 1.49 0 2.971-.411 4.269-1.231l28.444-17.969 25.807 17.4c2.453 1.66 5.623 1.82 8.231.43 2.609-1.389 4.25-4.1 4.25-7.059v-67.592l28.52.151v192.519l-25.732-25.73c-3.076-3.079-7.179-4.78-11.562-4.78-4.368 0-8.467 1.701-11.547 4.78l-11.802 11.8c-6.236 6.241-6.349 16.311-.359 22.71-21.609 28.549-30.609 37.551-59.162 59.161-6.396-5.991-16.468-5.88-22.708.359l-11.797 11.8c-3.08 3.079-4.779 7.181-4.779 11.549 0 4.371 1.698 8.48 4.779 11.561l57.167 57.169c3.194 3.181 7.373 4.781 11.552 4.781 4.189 0 8.368-1.601 11.562-4.781l11.798-11.8c6.241-6.239 6.349-16.3.373-22.699 3.665-4.81 7.137-9.2 10.528-13.28zm-68.27 54.811-4.123-18.301c-.075-.029-.189-.05-.335-.05h-91.092c-.151 0-.259.02-.339.05l-4.123 18.301zm-23.251-360.82 20.571-13c2.679-1.69 6.118-1.64 8.75.129l17.68 11.92v-52.629l-47.001-.251zm75.12 216.46c4.109-3.4 8.51-6.88 13.34-10.569.953.879 1.981 1.64 3.061 2.25v23.939zm-20.647-91.711c-.023-.019-.085-.089-.245-.089-.146 0-.208.07-.236.089l-11.793 11.8c-.118.119-.118.361 0 .48l57.171 57.169c.109.122.359.122.481 0l11.788-11.8c.123-.12.123-.359 0-.479zm-94.031 94.04c-.062-.059-.151-.088-.241-.088s-.179.029-.241.088l-11.797 11.791c-.113.12-.113.359 0 .479l57.167 57.171c.118.12.372.12.481 0l11.802-11.791c.118-.12.118-.368 0-.49zm116.588-24.299c-25.388 19.55-39.581 33.74-59.129 59.13l-35.1-35.109c27.826-21.161 37.958-31.3 59.119-59.12zm-250.469-265.221v-36.559h317.207v389.13l-36.246-34.519v-39.08c1.307-.72 2.538-1.62 3.641-2.731l11.797-11.789c6.368-6.37 6.368-16.74 0-23.11l-15.439-15.44v-216.472c0-4.41-3.552-7.98-7.948-8.001zm380.223 439.351-14.764 14.739c-3.491 3.51-7.972 5.351-12.972 5.351-.378 0-.802-.011-1.179-.03-5.217-.291-9.915-2.491-13.609-6.37l-56.737-59.52v46.031c0 4.409-3.581 7.999-8 7.999h-333.204c-4.42 0-7.995-3.589-7.995-7.999v-431.872c0-2.128.849-4.17 2.358-5.67 1.5-1.489 3.529-2.329 5.637-2.329h.042l44.199.23v-44.47c0-4.42 3.581-8 8-8h333.213c4.42 0 7.995 3.58 7.995 8v412.37l45.931 43.76c3.915 3.7 6.085 8.398 6.415 13.619.283 5.48-1.557 10.371-5.33 14.161zm-372.463-348.14h80.809c4.42 0 8-3.58 8-8.001 0-4.42-3.58-8.001-8-8.001h-80.809c-4.42 0-8 3.58-8 8.001s3.58 8.001 8 8.001zm80.809 274.589h-80.809c-4.42 0-8 3.59-8 8.001 0 4.419 3.58 7.999 8 7.999h80.809c4.42 0 8-3.58 8-7.999 0-4.411-3.58-8.001-8-8.001zm0-58.11h-80.809c-4.42 0-8 3.58-8 8.001 0 4.409 3.58 8.001 8 8.001h80.809c4.42 0 8-3.592 8-8.001 0-4.421-3.58-8.001-8-8.001zm0-58.12h-80.809c-4.42 0-8 3.58-8 8.001 0 4.409 3.58 8 8 8h80.809c4.42 0 8-3.591 8-8 0-4.421-3.58-8.001-8-8.001zm75.709-50.119c0-4.42-3.581-8.001-8-8.001h-148.518c-4.42 0-8 3.581-8 8.001s3.58 8.001 8 8.001h148.518c4.42-.001 8-3.581 8-8.001zm-164.518-58.12c0 4.42 3.58 8.001 8 8.001h197.208c4.42 0 8-3.58 8-8.001 0-4.42-3.58-8.001-8-8.001h-197.208c-4.42 0-8 3.58-8 8.001z"/></g></svg>