<svg xmlns="http://www.w3.org/2000/svg" width="31.992" height="32" viewBox="0 0 31.992 32">
  <g id="llp" transform="translate(0 0.007)">
    <path id="Path_45008" data-name="Path 45008" d="M26.909,23.5H28.5a3,3,0,0,1,3,3v4a1,1,0,0,1-1,1h-10a1,1,0,0,1-1-1v-4a3,3,0,0,1,3-3Z" transform="translate(-0.004 -0.005)" fill="#55bb8c"/>
    <path id="Path_45009" data-name="Path 45009" d="M7.909,23.5H9.5a3,3,0,0,1,3,3v4a1,1,0,0,1-1,1H1.5a1,1,0,0,1-1-1v-4a3,3,0,0,1,3-3Z" transform="translate(0 -0.005)" fill="#82c8ec"/>
    <path id="Path_45010" data-name="Path 45010" d="M5,20.979V23a1.5,1.5,0,1,0,3,0V20.979Zm21.995,0V23a1.5,1.5,0,0,1-1.5,1.5h0A1.5,1.5,0,0,1,24,23V20.979Z" transform="translate(-0.001 -0.005)" fill="#fcc37a"/>
    <circle id="Ellipse_3376" data-name="Ellipse 3376" cx="5.999" cy="5.999" r="5.999" transform="translate(9.998 0.5)" fill="#fedc55"/>
    <path id="Path_45011" data-name="Path 45011" d="M9.561,17.955V19.03a3.47,3.47,0,0,1-2.109,3.192h0a2.269,2.269,0,0,1-1.782,0h0A3.47,3.47,0,0,1,3.562,19.03V17.955A2.455,2.455,0,0,1,6.017,15.5H7.106A2.455,2.455,0,0,1,9.561,17.955Zm19,0V19.03a3.47,3.47,0,0,1-2.109,3.192h0a2.269,2.269,0,0,1-1.782,0h0a3.47,3.47,0,0,1-2.109-3.192V17.955A2.455,2.455,0,0,1,25.013,15.5H26.1A2.455,2.455,0,0,1,28.556,17.955Z" transform="translate(-0.001 -0.004)" fill="#fddaaa"/>
    <path id="Path_45012" data-name="Path 45012" d="M15.5,4h1a1,1,0,0,1,1,1,.5.5,0,0,0,1,0,2,2,0,0,0-2-2V2.5a.5.5,0,1,0-1,0V3a2,2,0,1,0,0,4h1a1,1,0,0,1,0,2h-1a1,1,0,0,1-1-1,.5.5,0,1,0-1,0,2,2,0,0,0,2,2v.5a.5.5,0,0,0,1,0V10a2,2,0,1,0,0-4h-1a1,1,0,1,1,0-2Zm13,19h-1v-.867a3.959,3.959,0,0,0,1.5-3.1V17.952A2.958,2.958,0,0,0,26.038,15H24.95a2.958,2.958,0,0,0-2.955,2.955v1.075a3.959,3.959,0,0,0,1.5,3.1v.869h-1a3.5,3.5,0,0,0-3.5,3.5v4a1.5,1.5,0,0,0,1.5,1.5h10a1.5,1.5,0,0,0,1.5-1.5v-4a3.5,3.5,0,0,0-3.5-3.5Zm-5.5-3.968V17.952A1.958,1.958,0,0,1,24.95,16h1.089a1.958,1.958,0,0,1,1.955,1.956v1.075a2.966,2.966,0,0,1-1.8,2.731,1.77,1.77,0,0,1-1.39,0A2.966,2.966,0,0,1,22.995,19.027Zm3.5,3.679v.289a1,1,0,1,1-2,0v-.289a2.667,2.667,0,0,0,2,0Zm4.5,7.787a.5.5,0,0,1-.5.5h-1.5v-2.5a.5.5,0,1,0-1,0v2.5h-5v-2.5a.5.5,0,1,0-1,0v2.5H20.5a.5.5,0,0,1-.5-.5v-4a2.5,2.5,0,0,1,2.5-2.5h1.278a1.982,1.982,0,0,0,3.442,0h1.279a2.5,2.5,0,0,1,2.5,2.5ZM22.47,6.993c.009,0,.016,0,.025,0h1a1.5,1.5,0,0,1,1.5,1.5v3.8l-.561-.561a.5.5,0,1,0-.707.707l1.413,1.413a.5.5,0,0,0,.708,0l1.413-1.413a.5.5,0,1,0-.707-.707l-.559.561V8.5a2.5,2.5,0,0,0-2.5-2.5h-1a.045.045,0,0,0-.025,0A6.492,6.492,0,0,0,9.523,6H8.5A2.5,2.5,0,0,0,6,8.5v3.8l-.561-.561a.5.5,0,1,0-.707.707l1.414,1.414a.5.5,0,0,0,.708,0l1.413-1.413a.5.5,0,1,0-.707-.707L7,12.3V8.5A1.5,1.5,0,0,1,8.5,7H9.523A6.492,6.492,0,0,0,22.47,6.993ZM16,12a5.5,5.5,0,1,1,5.5-5.5A5.5,5.5,0,0,1,16,12Zm-6.5,11h-1v-.867a3.959,3.959,0,0,0,1.5-3.1V17.952A2.958,2.958,0,0,0,7.042,15H5.955A2.958,2.958,0,0,0,3,17.952v1.075a3.959,3.959,0,0,0,1.5,3.1v.869h-1a3.5,3.5,0,0,0-3.5,3.5v4a1.5,1.5,0,0,0,1.5,1.5h10a1.5,1.5,0,0,0,1.5-1.5v-4A3.5,3.5,0,0,0,9.5,22.995ZM4,19.027V17.952A1.958,1.958,0,0,1,5.955,16H7.042A1.958,1.958,0,0,1,9,17.952v1.075a2.966,2.966,0,0,1-1.8,2.731,1.77,1.77,0,0,1-1.39,0A2.966,2.966,0,0,1,4,19.027Zm3.5,3.679v.289a1,1,0,1,1-2,0v-.289A2.667,2.667,0,0,0,7.5,22.706ZM12,30.493a.5.5,0,0,1-.5.5H10v-2.5a.5.5,0,1,0-1,0v2.5H4v-2.5a.5.5,0,1,0-1,0v2.5H1.5a.5.5,0,0,1-.5-.5v-4a2.5,2.5,0,0,1,2.5-2.5H4.777a1.982,1.982,0,0,0,3.442,0H9.5a2.5,2.5,0,0,1,2.5,2.5Z"/>
  </g>
</svg>
