<?xml version="1.0" encoding="utf-8"?>
<!-- Generator: Adobe Illustrator 26.0.1, SVG Export Plug-In . SVG Version: 6.00 Build 0)  -->
<svg version="1.1" id="Layer_1" xmlns="http://www.w3.org/2000/svg" xmlns:xlink="http://www.w3.org/1999/xlink" x="0px" y="0px"
	 viewBox="0 0 512 512" style="enable-background:new 0 0 512 512;" xml:space="preserve">
<style type="text/css">
	.st0{fill:#333333;}
	.st1{fill:#F8951D;}
	.st2{fill:#191919;}
	.st3{fill:#F76C1E;}
	.st4{fill:#FFFBF3;}
</style>
<g>
	<circle class="st0" cx="248" cy="248" r="128"/>
	<path class="st1" d="M252,341.1c10.9,0.1,21.8,0.8,32.6,2.1c7.6-12,13.3-25,16.8-38.7c-16.3-2.4-32.8-3.7-49.4-3.9L252,341.1z"/>
	<path class="st1" d="M311.2,298c13.6,2.3,27,6.1,39.8,11.2c10.4-17.4,16.2-37.1,16.8-57.3h-51.2C316.4,267.5,314.6,282.9,311.2,298
		L311.2,298z"/>
	<path class="st1" d="M308.6,252H252v40.6c17.2,0.1,34.3,1.5,51.3,4.1C306.6,282,308.3,267,308.6,252L308.6,252z"/>
	<path class="st1" d="M303.4,199.3c-17,2.6-34.2,3.9-51.4,4.1V244h56.6C308.4,229,306.6,214,303.4,199.3z"/>
	<path class="st1" d="M209.9,144.6c25.3,3.2,50.9,3.2,76.2,0c6-0.8,11.6-1.9,17-3.1c-34.6-18-75.7-18-110.3,0
		C198.2,142.7,203.9,143.7,209.9,144.6z"/>
	<path class="st1" d="M252,154.8v40.6c16.5-0.1,33-1.4,49.4-3.9c-3.5-13.7-9.2-26.8-16.8-38.8C273.8,154,262.9,154.7,252,154.8
		L252,154.8z"/>
	<path class="st1" d="M293.2,151.5c7.2,12.1,12.6,25.1,16.2,38.7c12.8-2.2,25.3-5.7,37.4-10.4c-8.9-12.9-20.3-24-33.5-32.5
		C307,149,300.3,150.3,293.2,151.5L293.2,151.5z"/>
	<path class="st1" d="M311.3,198c3.3,15.1,5.1,30.5,5.3,46h51.2c-0.7-20.2-6.4-39.9-16.8-57.3C338.2,191.8,324.9,195.6,311.3,198
		L311.3,198z"/>
	<path class="st1" d="M244,252h-56.6c0.2,15,2,30,5.3,44.7c17-2.6,34.1-4,51.3-4.1V252z"/>
	<path class="st1" d="M244,154.8c-10.9-0.1-21.8-0.8-32.6-2.1c-7.6,12-13.3,25.1-16.8,38.8c16.3,2.4,32.8,3.7,49.4,3.9L244,154.8z"
		/>
	<path class="st1" d="M248,349c-18.6-0.1-37.1,1.7-55.2,5.4c34.6,18.1,75.9,18.1,110.5,0C285.1,350.7,266.6,348.9,248,349L248,349z"
		/>
	<g>
		<path class="st1" d="M145,186.7c-10.4,17.4-16.1,37.1-16.8,57.3h51.2c0.2-15.5,2-30.9,5.3-46C171.1,195.6,157.8,191.8,145,186.7
			L145,186.7z"/>
		<path class="st1" d="M202.8,344.4c-7.2-12-12.7-25-16.2-38.6c-12.7,2.2-25.2,5.6-37.3,10.3c8.9,12.9,20.3,23.9,33.5,32.5
			C189.4,346.9,196,345.5,202.8,344.4L202.8,344.4z"/>
		<path class="st1" d="M244,341.1v-40.5c-16.5,0.1-33,1.4-49.4,3.9c3.5,13.7,9.2,26.8,16.8,38.7C222.2,341.9,233.1,341.2,244,341.1z
			"/>
		<path class="st1" d="M309.4,305.8c-3.5,13.6-9,26.6-16.2,38.6c6.7,1.1,13.4,2.5,20,4.2c13.2-8.5,24.6-19.6,33.5-32.5
			C334.7,311.5,322.2,308,309.4,305.8z"/>
		<path class="st1" d="M244,203.4c-17.2-0.1-34.4-1.5-51.4-4.1c-3.3,14.7-5,29.6-5.2,44.7H244V203.4z"/>
		<path class="st1" d="M184.8,298c-3.3-15.1-5.1-30.6-5.3-46h-51.2c0.6,20.2,6.4,39.9,16.8,57.3C157.9,304.2,171.2,300.4,184.8,298
			L184.8,298z"/>
		<path class="st1" d="M186.7,190.2c3.5-13.6,9-26.6,16.1-38.7c-7.1-1.2-13.8-2.5-20-4.2c-13.2,8.5-24.6,19.6-33.5,32.5
			C161.4,184.5,173.9,188,186.7,190.2L186.7,190.2z"/>
	</g>
	<path class="st1" d="M8,368h144v136H8V368z"/>
	<path class="st2" d="M501.3,260L464,204.1l-37.3,56h29.2c-2.3,110.5-93.7,198.2-204.2,195.9c-17.2-0.4-34.3-2.9-50.8-7.7l-4.4,15.4
		c114.8,32.8,234.4-33.7,267.1-148.4c5.1-18,7.9-36.6,8.3-55.3H501.3z"/>
	<path class="st2" d="M256,56c18.2,0,36.3,2.5,53.8,7.3l4.3-15.4C199.2,15.9,80,83.2,48,198.1c-4.9,17.6-7.5,35.7-7.9,53.9H10.7
		L48,308l37.3-56H56.1C58.4,143.2,147.2,56.1,256,56L256,56z"/>
	<path class="st3" d="M128,368v96c0,8.8-7.2,16-16,16H8v24h144V368H128z"/>
	<path class="st4" d="M96,368v48l-16-6.9L64,416v-48H96z"/>
	<path class="st1" d="M360,8h144v136H360V8z"/>
	<path class="st3" d="M480,8v96c0,8.8-7.2,16-16,16H360v24h144V8H480z"/>
	<path class="st4" d="M448,8v48l-16-6.9L416,56V8H448z"/>
</g>
</svg>
