<svg xmlns="http://www.w3.org/2000/svg" width="32" height="29.5" viewBox="0 0 32 29.5">
  <g id="opc" transform="translate(-23 -28)">
    <path id="Path_45043" data-name="Path 45043" d="M49,77.5,43,68H55Z" transform="translate(-10 -19.999)" fill="#f1f2f2"/>
    <path id="Path_45044" data-name="Path 45044" d="M52,66.154H48l-3-1.876v1.609s0,3.75,5,3.75,5-3.75,5-3.75V64.278Z" transform="translate(-11 -18.139)" fill="#f7b4b4"/>
    <path id="Path_45045" data-name="Path 45045" d="M56.5,38.611a1.14,1.14,0,0,0-1-1.111c-.5,0-.5.556-.5.556V37.5c-.009-4.5-.512-7.5-7-7.5s-6.991,3-7,7.5v4l2,5,2.552,2a1.5,1.5,0,0,0,1.12.5h2.655a1.5,1.5,0,0,0,1.12-.5L53,46.5l1.6-4.008C56.021,42.388,56.5,40.238,56.5,38.611Z" transform="translate(-9 -1)" fill="#fbc8c8"/>
    <path id="Path_45046" data-name="Path 45046" d="M39.5,37.5v.556s0-.556-.5-.556a1.14,1.14,0,0,0-1,1.111c0,1.626.479,3.777,1.9,3.879L41.5,46.5l2.552,2a1.5,1.5,0,0,0,1.12.5H46.5V30C40.012,30,39.509,33,39.5,37.5Z" transform="translate(-7.5 -1)" fill="#fbd7d7"/>
    <g id="Group_9148" data-name="Group 9148" transform="translate(34 43.998)">
      <path id="Path_45047" data-name="Path 45047" d="M46.5,60.014,46.506,60h-.514l.009.017Zm3.5,4H48l-3-1.876v1.609s0,3.75,5,3.75Z" transform="translate(-45 -59.997)" fill="#fbc8c8"/>
    </g>
    <path id="Path_45048" data-name="Path 45048" d="M53.9,31.137a2.756,2.756,0,0,0,.073-.631c0-1.421-.454-2.392-6.476-2.486v-.012c-.317,0-.645-.008-.993-.008-6.256,0-6.521,3.99-6.507,4.84,0,.1.007.161.007.161v3.515l1,2v3.5l.492,3.5,4,2.5h4l4-2.5.492-3.5v-3.5h.015l1-2V34a4.483,4.483,0,0,0-1.1-2.863ZM51.5,44.015H51l-1-3H45l-1,3h-.5l-1.5-3V32.836c1.67,1.123,3.406,1.186,5.5,1.177h0c1.3-.006,3.946.015,5.5-1.394v8.4l-1.5,3Z" transform="translate(-8.5)" fill="#692e19"/>
    <path id="Path_45049" data-name="Path 45049" d="M47.5,34.014V28.008c-.317,0-.644-.008-.992-.008-7,0-6.5,5-6.5,5v3.515l1,2v3.5l.492,3.5,4,2.5h2v-7H45l-1,3h-.5l-1.5-3V32.833C43.095,33.569,43.968,34.028,47.5,34.014Z" transform="translate(-8.5 0)" fill="#84462d"/>
    <path id="Path_45050" data-name="Path 45050" d="M50,46a1,1,0,0,0-1-1h0c0,.011,0,.021,0,.032a1,1,0,0,1-1,1A1,1,0,1,0,50,46Zm5,0a1,1,0,0,0-1-1h0c0,.01,0,.021,0,.031a1,1,0,0,1-1,1A1,1,0,0,0,55,46Z" transform="translate(-12.503 -8.499)" fill="#3e3e3f"/>
    <path id="Path_45051" data-name="Path 45051" d="M43,67.5l1-.5,4.993,2.491L46,72.5Zm12,0L54,67l-4.993,2.491L52,72.5Z" transform="translate(-10 -19.499)" fill="#fff"/>
    <path id="Path_45052" data-name="Path 45052" d="M55,79.489l-1.4-5.1.9-.9-1.509-1.512-1.5,1.5.909.909-1.4,5.1Z" transform="translate(-14 -21.989)" fill="#099686"/>
    <path id="Path_45053" data-name="Path 45053" d="M53,79.489v-7.5l-.009-.009-1.5,1.5.909.909-1.4,5.1Z" transform="translate(-14 -21.989)" fill="#12b2a0"/>
    <path id="Path_45054" data-name="Path 45054" d="M23,77.5,25,72a3,3,0,0,1,1.522-1.492L33,68l6,9.5Zm32,0L53,72a3,3,0,0,0-1.521-1.492L45,68l-6,9.5Z" transform="translate(0 -20)" fill="#3e3e3f"/>
    <path id="Path_45055" data-name="Path 45055" d="M66,80h5v1H66Z" transform="translate(-21.5 -25.999)" fill="#fff"/>
    <path id="Path_45056" data-name="Path 45056" d="M51,57h4a2,2,0,1,1-4,0Z" transform="translate(-14 -14.499)" fill="#fbc8c8"/>
  </g>
</svg>
