<svg xmlns="http://www.w3.org/2000/svg" width="32.035" height="32" viewBox="0 0 32.035 32">
  <g id="partnership-deed" transform="translate(0.25)">
    <path id="Path_45033" data-name="Path 45033" d="M21.277,13.448c-.66-.927-1.281-1.883-1.912-2.829-.463-.7-.927-1.4-1.4-2.119H10.08v9.857a.986.986,0,1,0,1.971,0v1.971a.986.986,0,0,0,1.971,0v.986a.856.856,0,0,0,.1.414.972.972,0,0,0,.887.572.9.9,0,0,0,.365-.079.911.911,0,0,0,.473-.384,1.074,1.074,0,0,0,.059-.108.059.059,0,0,0,.01-.039v-.01l.01-.01a1.084,1.084,0,0,0,.069-.355v-.986a.989.989,0,0,0,.986.986.947.947,0,0,0,.848-.5.263.263,0,0,0,.059-.1.993.993,0,0,0,.079-.384V13.379c.582.522,1.173,1.045,1.755,1.567a1.676,1.676,0,0,0,1.143.591.089.089,0,0,0,.049-.01.943.943,0,0,0,.828-1.1,2.477,2.477,0,0,0-.463-.976Z" transform="translate(-0.148 -0.122)" fill="#ffd9aa"/>
    <rect id="Rectangle_6503" data-name="Rectangle 6503" width="7.885" height="1.971" transform="translate(9.932 6.407)" fill="#e23342"/>
    <path id="Path_45034" data-name="Path 45034" d="M12.051.5h3.943a1.971,1.971,0,0,1,1.971,1.971V6.414H10.08V2.471A1.971,1.971,0,0,1,12.051.5Z" transform="translate(-0.148 -0.007)" fill="#ed456a"/>
    <path id="Path_45035" data-name="Path 45035" d="M17.38,23.25l-.256-.256L16,21.88v-.01" transform="translate(-0.233 -0.313)" fill="#ffd9aa"/>
    <line id="Line_750" data-name="Line 750" x1="1.962" y1="1.962" transform="translate(20.765 15.406)" fill="#ffd9aa"/>
    <path id="Path_45036" data-name="Path 45036" d="M17.979,12.62l4.958,4.958c.039-.779.089-1.567.138-2.346A1.658,1.658,0,0,1,23.459,14a.955.955,0,0,1,1.41.168,2.661,2.661,0,0,1,.365,1.025c.187,1.114.424,2.238.641,3.351.168.818.335,1.646.513,2.484l-5.579,5.579-2.356-2.356L12.4,18.189Z" transform="translate(-0.181 -0.181)" fill="#ffd9aa"/>
    <rect id="Rectangle_6504" data-name="Rectangle 6504" width="7.886" height="1.976" transform="translate(20.628 26.42) rotate(-44.949)" fill="#349ad1"/>
    <path id="Path_45037" data-name="Path 45037" d="M0,0H7.885V3.943A1.971,1.971,0,0,1,5.914,5.914H1.971A1.971,1.971,0,0,1,0,3.943Z" transform="translate(22.027 27.817) rotate(-45)" fill="#82c8ec"/>
    <path id="Path_45038" data-name="Path 45038" d="M14.6,23.258,14.856,23l.582-.582" transform="translate(-0.213 -0.321)" fill="#ffd9aa"/>
    <path id="Path_45039" data-name="Path 45039" d="M16.01,21.86l-.01.01v.01" transform="translate(-0.233 -0.313)" fill="#ffd9aa"/>
    <line id="Line_751" data-name="Line 751" x1="1.124" y2="1.124" transform="translate(8.808 16.244)" fill="#ffd9aa"/>
    <path id="Path_45040" data-name="Path 45040" d="M16.44,21.166l-3.1,3.1-2.356,2.356L5.409,21.046c.174-.844.341-1.666.509-2.488.223-1.115.46-2.231.649-3.351a2.477,2.477,0,0,1,.363-1.017.949.949,0,0,1,1.408-.168,1.676,1.676,0,0,1,.394,1.227c.041.781.091,1.568.132,2.349l2.006-2.006Z" transform="translate(-0.081 -0.197)" fill="#ffd9aa"/>
    <rect id="Rectangle_6505" data-name="Rectangle 6505" width="1.971" height="7.885" transform="translate(3.934 22.243) rotate(-45)" fill="#19a555"/>
    <path id="Path_45041" data-name="Path 45041" d="M1.971,0H5.914A1.971,1.971,0,0,1,7.885,1.971V5.914H0V1.971A1.971,1.971,0,0,1,1.971,0Z" transform="translate(5.326 32) rotate(-135)" fill="#55bb8c"/>
    <path id="Path_45042" data-name="Path 45042" d="M30.743,24.682l-2.789-2.789h0L26.663,20.6q-.184-.874-.359-1.736L26,17.338c-.16-.8-.32-1.61-.457-2.423a3.116,3.116,0,0,0-.451-1.224,1.492,1.492,0,0,0-1.048-.6,1.408,1.408,0,0,0-1.084.355,2.079,2.079,0,0,0-.55,1.57c-.027.416-.049.834-.074,1.252l-.739-.739a1.388,1.388,0,0,0,.205-.177,1.471,1.471,0,0,0,.286-1.136,2.947,2.947,0,0,0-.548-1.183c-.512-.718-1-1.453-1.485-2.187L18.315,8.229V2.464A2.464,2.464,0,0,0,15.851,0H11.908A2.464,2.464,0,0,0,9.444,2.464V16.04l-.232.232-.074-1.315a2.027,2.027,0,0,0-.548-1.5,1.412,1.412,0,0,0-1.1-.36,1.479,1.479,0,0,0-1.04.606A2.95,2.95,0,0,0,6,14.926c-.147.878-.324,1.752-.5,2.625L4.88,20.607,3.6,21.888h0L.8,24.682a2.464,2.464,0,0,0,0,3.484L3.59,30.951a2.464,2.464,0,0,0,3.484,0L9.858,28.17h0l4.879-4.879.008-.012.8-.8a1.411,1.411,0,0,0,.277-.165l.978.971,3.48,3.49h0l1.392,1.38.006.009,2.793,2.785a2.464,2.464,0,0,0,3.484,0l2.789-2.789a2.464,2.464,0,0,0,0-3.484ZM10.43,2.464A1.479,1.479,0,0,1,11.908.986h3.943A1.479,1.479,0,0,1,17.33,2.464v3.45h-6.9ZM17.33,6.9v.986h-6.9V6.9ZM6.378,30.261a1.514,1.514,0,0,1-2.091,0L1.5,27.469a1.479,1.479,0,0,1,0-2.091l2.44-2.44,4.879,4.879Zm3.137-3.135L4.634,22.243l.7-.7,4.879,4.879Zm4.528-4.534-.008.012-3.127,3.124-5.04-5.039.6-2.939c.179-.887.359-1.768.507-2.653a2.09,2.09,0,0,1,.276-.814.493.493,0,0,1,.342-.2.435.435,0,0,1,.342.115c.178.157.2.481.224.887l.132,2.349a.493.493,0,0,0,.335.417.448.448,0,0,0,.114,0,.5.5,0,0,0,.074.015.436.436,0,0,0,.049-.01.493.493,0,0,0,.085-.017.48.48,0,0,0,.215-.118l.283-.283v.8a1.479,1.479,0,0,0,1.479,1.479,1.462,1.462,0,0,0,.493-.091v.584a1.473,1.473,0,0,0,2.028,1.37,1.093,1.093,0,0,0,.085.228,1.436,1.436,0,0,0,.628.671Zm1.808-6.8a.506.506,0,0,0-.493.508v4.895a.5.5,0,0,1-.029.153l-.009.025-.008.022c0,.013-.01.025-.014.036l-.016.029a.466.466,0,0,1-.257.2.48.48,0,0,1-.614-.279.365.365,0,0,1-.039-.179V15.281a.48.48,0,0,0-.493-.478.506.506,0,0,0-.493.508v4.9a.493.493,0,0,1-.986,0V14.292a.493.493,0,1,0-.986,0v3.943a.493.493,0,1,1-.986,0V8.871h7.128L19.233,11.4c.493.744.986,1.488,1.5,2.211a2.07,2.07,0,0,1,.38.773.478.478,0,0,1-.092.371.416.416,0,0,1-.3.164.465.465,0,0,0-.063.01c-.229,0-.465-.211-.756-.467l-1.755-1.567a.493.493,0,0,0-.53-.083.476.476,0,0,0-.247.3.5.5,0,0,0-.014.048.466.466,0,0,0-.031.1v6.95a.534.534,0,0,1-.036.183.512.512,0,0,0-.047.073.478.478,0,0,1-.676.157.493.493,0,0,1-.227-.413V16.264a.48.48,0,0,0-.494-.478Zm1.651,6.8h0l-.944-.938a1.216,1.216,0,0,0,.279.033,1.437,1.437,0,0,0,1.256-.715.665.665,0,0,0,.106-.19,1.486,1.486,0,0,0,.116-.574V14.359l.986.877a2.193,2.193,0,0,0,1.27.664l1.816,1.816c.006.006.014.008.02.014s0,.012.009.016c.023.023.056.027.083.044a.483.483,0,0,0,.069.037.47.47,0,0,0,.375.03.493.493,0,0,0,.315-.435c.039-.777.089-1.563.139-2.359.016-.349.033-.711.223-.879a.431.431,0,0,1,.329-.108.493.493,0,0,1,.345.2,2.239,2.239,0,0,1,.283.824c.136.81.3,1.625.46,2.439l.308,1.532q.165.805.335,1.622L23.9,22.464l-3.272,3.263Zm4.528,4.534-.7-.7,2.445-2.445,2.435-2.436.7.7-4.591,4.591Zm8.016.349-2.789,2.787a1.514,1.514,0,0,1-2.091,0l-2.44-2.44.21-.21,4.673-4.665,2.436,2.436a1.479,1.479,0,0,1,0,2.091Z" transform="translate(-0.005)"/>
  </g>
</svg>
