<svg xmlns="http://www.w3.org/2000/svg" width="28.936" height="33" viewBox="0 0 28.936 33">
  <g id="section8-reg" transform="translate(-4 -988.36)">
    <g id="Group_9147" data-name="Group 9147" transform="translate(4.5 988.86)">
      <path id="Path_45026" data-name="Path 45026" d="M-292.776,1192.05l25.132,13.533m-.028-13.531-25.167,13.552" transform="translate(294.191 -1182.811)" fill="#546e7a" stroke="#455a64" stroke-width="1" stroke-dasharray="1 1" fill-rule="evenodd"/>
      <path id="Path_45027" data-name="Path 45027" d="M-268,1176.86v29" transform="translate(281.968 -1175.336)" fill="none" stroke="#455a64" stroke-width="1" stroke-dasharray="1 1"/>
      <path id="Path_45028" data-name="Path 45028" d="M-294,1197.315v-12.683m.655-1.18,11.89-7.317m1.278-.028,11.9,7.325m.686,1.168v12.746m-.668,1.141-11.878,7.309m-1.324,0-11.921-7.336" transform="translate(294.762 -1174.966)" fill="#546e7a" stroke="#455a64" stroke-width="1" stroke-dasharray="1 1" fill-rule="evenodd"/>
      <circle id="Ellipse_3378" data-name="Ellipse 3378" cx="0.762" cy="0.762" r="0.762" transform="translate(13.206)" fill="none" stroke="#455a64" stroke-linecap="round" stroke-linejoin="round" stroke-width="1"/>
      <circle id="Ellipse_3379" data-name="Ellipse 3379" cx="0.762" cy="0.762" r="0.762" transform="translate(13.206 30.476)" fill="none" stroke="#455a64" stroke-linecap="round" stroke-linejoin="round" stroke-width="1"/>
      <circle id="Ellipse_3380" data-name="Ellipse 3380" cx="0.762" cy="0.762" r="0.762" transform="translate(27.937 9.651) rotate(180)" fill="none" stroke="#455a64" stroke-linecap="round" stroke-linejoin="round" stroke-width="1"/>
      <circle id="Ellipse_3381" data-name="Ellipse 3381" cx="0.762" cy="0.762" r="0.762" transform="translate(1.524 9.651) rotate(180)" fill="none" stroke="#455a64" stroke-linecap="round" stroke-linejoin="round" stroke-width="1"/>
      <circle id="Ellipse_3382" data-name="Ellipse 3382" cx="0.762" cy="0.762" r="0.762" transform="translate(27.937 23.873) rotate(180)" fill="none" stroke="#455a64" stroke-linecap="round" stroke-linejoin="round" stroke-width="1"/>
      <circle id="Ellipse_3383" data-name="Ellipse 3383" cx="0.762" cy="0.762" r="0.762" transform="translate(1.524 23.873) rotate(180)" fill="none" stroke="#455a64" stroke-linecap="round" stroke-linejoin="round" stroke-width="1"/>
    </g>
    <path id="Path_45029" data-name="Path 45029" d="M10.847,1019.36H15.28a1.843,1.843,0,0,1,1.847,1.849v5.264H9v-5.264a1.843,1.843,0,0,1,1.847-1.847Z" transform="translate(-2.214 -15.008)" fill="#263238"/>
    <circle id="Ellipse_3384" data-name="Ellipse 3384" cx="2.54" cy="2.54" r="2.54" transform="translate(8.817 998.765)" fill="#ffc107"/>
    <circle id="Ellipse_3385" data-name="Ellipse 3385" cx="2.54" cy="2.54" r="2.54" transform="translate(23.548 998.765)" fill="#ffc107"/>
    <path id="Path_45030" data-name="Path 45030" d="M40.847,1019.36H45.28a1.843,1.843,0,0,1,1.847,1.849v5.264H39v-5.264a1.843,1.843,0,0,1,1.847-1.847Z" transform="translate(-16.976 -15.008)" fill="#263238"/>
    <circle id="Ellipse_3386" data-name="Ellipse 3386" cx="3.048" cy="3.048" r="3.048" transform="translate(15.421 996.225)" fill="#ffc107"/>
    <path id="Path_45031" data-name="Path 45031" d="M21.114,31a2.8,2.8,0,0,0-.114.786v6.325h1.016V31.786a1.8,1.8,0,0,1,.087-.533A1.832,1.832,0,0,0,21.184,31ZM31.99,31a1.835,1.835,0,0,0-.919.252,1.827,1.827,0,0,1,.087.533v6.326h1.016V31.786A2.791,2.791,0,0,0,32.06,31h-.07Z" transform="translate(-8.119 973.353)" fill="#455a64"/>
    <path id="Path_45032" data-name="Path 45032" d="M24.309,1016.36H29.85a2.3,2.3,0,0,1,2.309,2.309v7.342H22v-7.342a2.3,2.3,0,0,1,2.309-2.309Z" transform="translate(-8.611 -13.532)" fill="#263238"/>
    <rect id="Rectangle_6499" data-name="Rectangle 6499" width="0.508" height="6.603" transform="translate(15.421 1005.876)" fill="#455a64"/>
    <rect id="Rectangle_6500" data-name="Rectangle 6500" width="0.508" height="6.603" transform="translate(21.008 1005.876)" fill="#455a64"/>
    <rect id="Rectangle_6501" data-name="Rectangle 6501" width="0.508" height="4.571" transform="translate(8.31 1006.892)" fill="#455a64"/>
    <rect id="Rectangle_6502" data-name="Rectangle 6502" width="0.508" height="4.571" transform="translate(28.119 1006.892)" fill="#455a64"/>
  </g>
</svg>
