<svg xmlns="http://www.w3.org/2000/svg" fill-rule="evenodd" stroke-linejoin="round" stroke-miterlimit="2" clip-rule="evenodd" viewBox="0 0 356 356"><path fill="#ffb541" fill-rule="nonzero" d="M261.308 81.702v71.234c0 7.998-.703 15.944-2.163 23.741-5.71 30.198-26.364 76.59-86.139 98.751a20.956 20.956 0 0 1-14.551 0c-59.779-22.161-80.433-68.553-86.144-98.751-1.455-7.797-2.158-15.743-2.158-23.741V81.702c55.332 25.154 95.578-25.153 95.578-25.153s40.24 50.307 95.577 25.153Z"/><path fill="#ffd541" fill-rule="nonzero" d="M139.54 266.985c-21.215-11.251-36.184-25.876-46.623-40.992.479-67.099 43.462-124.166 103.339-145.595 16.689 8.347 39.226 13.043 65.052 1.304v7.321c-68.022 32.105-116.359 99.175-121.768 177.962Z"/><path fill="#bbd5f1" fill-rule="nonzero" d="M244.444 300c-21.478 0-38.889-17.411-38.889-38.889v-27.778h77.778v27.778c0 21.478-17.411 38.889-38.889 38.889Z"/><path fill="#e7f2f7" fill-rule="nonzero" d="M272.222 233.333v20.269c0 21.478-17.411 38.889-38.889 38.889a38.745 38.745 0 0 1-15.874-3.377c-7.338-7.072-11.904-17.004-11.904-28.003v-27.778h66.667Z"/><path fill="#ffd541" fill-rule="nonzero" d="M261.308 135.309v17.627c0 .814-.007 1.628-.022 2.442-35.554 24.888-60.258 64.248-65.534 109.5a150.422 150.422 0 0 1-15.808 7.798c-.279-.394-.554-.786-.825-1.179.421-58.9 33.592-110.069 82.189-136.188Z"/><path fill="#1c3d57" d="M251.389 252.778a6.948 6.948 0 0 0-6.945-6.945 6.948 6.948 0 0 0-6.944 6.945 6.947 6.947 0 0 0 6.944 6.944 6.948 6.948 0 0 0 6.945-6.944Zm-8.334 0a1.39 1.39 0 1 1 2.78.002 1.39 1.39 0 0 1-2.78-.002Z"/><path fill="#1c3d57" d="M240.277 250v22.222a4.17 4.17 0 0 0 4.167 4.167c2.3 0 4.167-1.867 4.167-4.167V250c0-2.3-1.867-4.167-4.167-4.167a4.17 4.17 0 0 0-4.167 4.167Z"/><path fill="#1c3d57" d="M244.444 304.167c23.779 0 43.056-19.277 43.056-43.056v-27.778a4.167 4.167 0 0 0-4.167-4.166h-77.778a4.166 4.166 0 0 0-4.166 4.166v27.778c0 23.779 19.276 43.056 43.055 43.056Zm0-8.334c-19.176 0-34.722-15.545-34.722-34.722V237.5h69.444v23.611c0 19.177-15.545 34.722-34.722 34.722Z"/><path fill="#1c3d57" d="M220.833 233.333v-16.666c0-13.038 10.573-23.611 23.611-23.611s23.611 10.573 23.611 23.611v16.666c0 2.3 1.867 4.167 4.167 4.167s4.167-1.867 4.167-4.167v-16.666c0-17.64-14.305-31.945-31.945-31.945S212.5 199.027 212.5 216.667v16.666c0 2.3 1.867 4.167 4.166 4.167 2.3 0 4.167-1.867 4.167-4.167Z"/><path fill="#1c3d57" d="M203.18 256.521c-8.819 6.121-19.017 11.58-30.799 16.043a16.124 16.124 0 0 1-11.427.001v-.001c-57.222-21.668-77.031-66.998-82.495-96.525-1.399-7.618-2.07-15.388-2.07-23.206V87.212c45.223 17.101 79.81-14.202 90.278-25.357 10.467 11.155 45.055 42.458 90.276 25.358.002-.001.002 65.62.002 65.62 0 7.819-.672 15.589-2.071 23.209-.801 4.333-2.429 24.192-23.74 53.019a4.168 4.168 0 0 0 .873 5.827 4.169 4.169 0 0 0 5.828-.874c22.686-30.686 24.381-51.844 25.235-56.462l.001-.005c1.489-8.114 2.207-16.388 2.207-24.714V80.939a4.166 4.166 0 0 0-5.921-3.779c-51.784 24.045-89.41-24.174-89.41-24.174a4.167 4.167 0 0 0-6.56 0s-37.626 48.219-89.41 24.174a4.165 4.165 0 0 0-5.921 3.779v71.894c0 8.326.717 16.6 2.207 24.714a.01.01 0 0 1 .001.005c5.815 31.429 26.829 79.741 87.738 102.806a24.452 24.452 0 0 0 17.329 0h.001c12.473-4.726 23.264-10.511 32.599-16.99a4.169 4.169 0 0 0 1.048-5.799 4.17 4.17 0 0 0-5.799-1.048Z"/><path fill="#68a2fe" d="M183.333 138.889c0-9.199-7.468-16.667-16.667-16.667-9.198 0-16.666 7.468-16.666 16.667 0 9.198 7.468 16.667 16.666 16.667 9.199 0 16.667-7.469 16.667-16.667Z"/><path fill="#1c3d57" d="M187.5 138.889c0-11.498-9.335-20.833-20.834-20.833-11.498 0-20.833 9.335-20.833 20.833 0 11.498 9.335 20.833 20.833 20.833 11.499 0 20.834-9.335 20.834-20.833Zm-8.334 0c0 6.899-5.601 12.5-12.5 12.5s-12.5-5.601-12.5-12.5 5.601-12.5 12.5-12.5 12.5 5.601 12.5 12.5Z"/><path fill="#68a2fe" fill-rule="nonzero" d="M200 191.667h-66.667c0-18.411 14.922-33.334 33.333-33.334 18.411 0 33.334 14.923 33.334 33.334Z"/><path fill="#1c3d57" d="M200 195.833a4.166 4.166 0 0 0 4.166-4.166c0-20.713-16.787-37.5-37.5-37.5-20.712 0-37.5 16.787-37.5 37.5a4.167 4.167 0 0 0 4.167 4.166H200Zm-4.462-8.333h-57.743c2.021-14.135 14.176-25 28.871-25 14.696 0 26.851 10.865 28.872 25.001v-.001Z"/></svg>