<svg xmlns="http://www.w3.org/2000/svg" xmlns:xlink="http://www.w3.org/1999/xlink" width="91.444" height="85.745" xmlns:v="https://vecta.io/nano"><defs><linearGradient id="A" x1=".347" y1=".561" x2="2.986" y2="-.934"><stop offset="0" stop-color="#f05"/><stop offset="1" stop-color="#ff5990"/></linearGradient><linearGradient id="B" x1="-.879" y1="1.389" x2="1.533" y2="-.157" xlink:href="#A"/><linearGradient id="C" x1="-.583" y1="4.812" x2=".753" y2="-.4" xlink:href="#A"/><linearGradient id="D" x1="-.288" y1="1.383" x2="1.169" y2="-.484" xlink:href="#A"/><linearGradient id="E" x1="-.307" y1="1.309" x2="1.474" y2="-.207" xlink:href="#A"/><linearGradient id="F" x1="-.101" y1="1.101" x2="1.181" y2="-.181" xlink:href="#A"/></defs><g transform="translate(-191.62 .012)"><path d="M195.67 45.705q0-1.272.088-2.5l-4.05-.25-.088 2.748a45.5 45.5 0 0 0 21.286 38.624l2.164-3.42a41.46 41.46 0 0 1-19.4-35.202z" fill="url(#A)"/><path d="M278.956 45.705c.016 15.2-8.24 29.204-21.55 36.548l2.017 3.48a45.73 45.73 0 0 0 23.64-40.027z" fill="url(#B)"/><path d="M264 8.6c-13.517-9.726-31.25-11.34-46.3-4.2l1.74 3.655c13.7-6.5 29.87-5.038 42.19 3.816z" fill="url(#C)"/><path d="M243.343 14.625l.775-3.976a35.79 35.79 0 0 0-42.469 32.162l4.035.322c1.132-14.764 12.384-26.75 27.046-28.815a31.93 31.93 0 0 1 10.613.307z" fill="url(#D)"/><path d="M268.678 41.217c2.48 17.305-9.504 33.357-26.8 35.9-1.17.16-2.354.263-3.538.307l.132 4.05a36.45 36.45 0 0 0 3.991-.351c19.52-2.854 33.047-20.973 30.233-40.5z" fill="url(#E)"/><circle cx="24.853" cy="24.853" r="24.853" transform="matrix(.92388 -.382683 .382683 .92388 204.844 32.253)" fill="url(#F)"/><path d="M237.32 73.102a27.4 27.4 0 1 1 27.382-27.387c-.007 15.12-12.262 27.377-27.382 27.387zm0-49.706c-9.03-.006-17.176 5.43-20.636 13.772s-1.553 17.947 4.832 24.334 15.988 8.3 24.332 4.843 13.783-11.6 13.78-20.63c-.003-12.32-9.988-22.3-22.3-22.318zM229.864 55.1c-2.138.163-4.214-.76-5.526-2.456a11.01 11.01 0 0 1-1.827-6.681 11.04 11.04 0 0 1 1.827-6.725 7.31 7.31 0 0 1 11.023 0 11.13 11.13 0 0 1 1.827 6.68 11.1 11.1 0 0 1-1.813 6.725c-1.3 1.7-3.378 2.614-5.5 2.456zm-2.6-13.45a9.49 9.49 0 0 0-.833 4.283 9.44 9.44 0 0 0 .833 4.3c.495.992 1.508 1.62 2.617 1.62s2.122-.627 2.617-1.62c.6-1.348.896-2.82.833-4.3.063-1.473-.223-2.94-.833-4.283-.495-.992-1.508-1.62-2.617-1.62s-2.122.627-2.617 1.62zm12.248-1.124V37.14h10.877v2.748l-3.64 4.137c2.583.293 4.52 2.5 4.474 5.1a5.45 5.45 0 0 1-1.886 4.386 7.31 7.31 0 0 1-4.839 1.579 10.5 10.5 0 0 1-5.979-2.076l1.637-3.158c1.275 1.045 2.843 1.668 4.488 1.784a3.16 3.16 0 0 0 1.974-.585 2 2 0 0 0 .775-1.681 2.06 2.06 0 0 0-.892-1.754 4.09 4.09 0 0 0-2.47-.658 8.42 8.42 0 0 0-2.354.482v-2.92l3.406-4.02z" fill="#fff"/></g></svg>