<svg xmlns="http://www.w3.org/2000/svg" xmlns:xlink="http://www.w3.org/1999/xlink" width="91.756" height="86.093" xmlns:v="https://vecta.io/nano"><defs><linearGradient id="A" x1=".348" y1=".561" x2="2.994" y2="-.934"><stop offset="0" stop-color="#ff6f00"/><stop offset="1" stop-color="#ffd500"/></linearGradient><linearGradient id="B" x1="-.881" y1="1.389" x2="1.537" y2="-.157" xlink:href="#A"/><linearGradient id="C" x1="-.583" y1="4.8" x2=".753" y2="-.399" xlink:href="#A"/><linearGradient id="D" x1="-.291" y1="1.384" x2="1.168" y2="-.485" xlink:href="#A"/><linearGradient id="E" x1="-.308" y1="1.309" x2="1.477" y2="-.207" xlink:href="#A"/><linearGradient id="F" x1="-.101" y1="1.101" x2="1.181" y2="-.181" xlink:href="#A"/></defs><g transform="translate(0 .012)"><path d="M4.066 45.89v-2.5l-3.978-.25C0 44.04 0 44.966 0 45.89a45.68 45.68 0 0 0 21.372 38.781l2.114-3.435a41.63 41.63 0 0 1-19.42-35.346z" fill="url(#A)"/><path d="M87.7 45.89c-.01 15.235-8.297 29.262-21.636 36.623l1.967 3.567c14.638-8.077 23.73-23.472 23.733-40.2z" fill="url(#B)"/><path d="M72.674 8.637a45.93 45.93 0 0 0-46.487-4.228l1.7 3.7c13.778-6.544 30.025-5.076 42.407 3.83z" fill="url(#C)"/><path d="M51.977 14.684l.778-3.993c-10.008-1.917-20.36.505-28.478 6.664s-13.24 15.475-14.1 25.63l4.05.323c1.17-14.766 12.42-26.748 27.082-28.844a32.06 32.06 0 0 1 10.657.22z" fill="url(#D)"/><path d="M77.356 41.385c2.508 17.38-9.53 33.512-26.908 36.05-1.174.16-2.378.264-3.552.308l.073 4.066a36.6 36.6 0 0 0 4.007-.352C70.57 78.586 84.15 60.4 81.334 40.798z" fill="url(#E)"/><circle cx="24.954" cy="24.954" r="24.954" transform="matrix(.22971 -.973259 .973259 .22971 15.859 64.426)" fill="url(#F)"/><path d="M45.886 73.398a27.51 27.51 0 1 1 27.507-27.507c-.001 15.2-12.316 27.506-27.507 27.507zm0-49.907c-9.068-.006-17.246 5.453-20.72 13.83S23.6 55.34 30.022 61.754a22.41 22.41 0 0 0 24.433 4.856c8.377-3.474 13.836-11.65 13.83-20.72-.008-12.368-10.032-22.392-22.4-22.4zm-5.094 31.823a6.4 6.4 0 0 1-5.563-2.461 11.14 11.14 0 0 1-1.835-6.708 11.17 11.17 0 0 1 1.835-6.752 6.4 6.4 0 0 1 5.534-2.51 6.4 6.4 0 0 1 5.534 2.51 11.08 11.08 0 0 1 1.835 6.708c.144 2.387-.5 4.756-1.806 6.752a6.4 6.4 0 0 1-5.534 2.466zm-2.627-13.5c-.613 1.348-.9 2.82-.837 4.3a9.48 9.48 0 0 0 .837 4.316c.497.996 1.514 1.626 2.627 1.626s2.13-.63 2.627-1.626a9.48 9.48 0 0 0 .837-4.316c.063-1.48-.224-2.952-.837-4.3-.497-.996-1.514-1.626-2.627-1.626a2.94 2.94 0 0 0-2.628 1.626zm11.2-4.524h7.222V55.1h-3.83V40.68h-3.4z" fill="#fff"/></g></svg>