<svg xmlns="http://www.w3.org/2000/svg" xmlns:xlink="http://www.w3.org/1999/xlink" width="91.434" height="85.795" xmlns:v="https://vecta.io/nano"><defs><linearGradient id="A" x1=".35" y1=".561" x2="2.989" y2="-.934"><stop offset="0" stop-color="#003575"/><stop offset="1" stop-color="#007dd4"/></linearGradient><linearGradient id="B" x1="-.881" y1="1.386" x2="1.537" y2="-.157" xlink:href="#A"/><linearGradient id="C" x1="-.583" y1="4.8" x2=".753" y2="-.399" xlink:href="#A"/><linearGradient id="D" x1="-.291" y1="1.384" x2="1.168" y2="-.485" xlink:href="#A"/><linearGradient id="E" x1="-.307" y1="1.309" x2="1.475" y2="-.207" xlink:href="#A"/><linearGradient id="F" x1="-.101" y1="1.101" x2="1.181" y2="-.181" xlink:href="#A"/></defs><g transform="translate(-95.76 .012)"><path d="M99.882 45.693v-2.5l-4.034-.248-.088 2.748c-.036 15.68 8.005 30.27 21.28 38.614l2.163-3.42a41.45 41.45 0 0 1-19.321-35.194z" fill="url(#A)"/><path d="M183.145 45.693c.017 15.196-8.238 29.198-21.543 36.54l1.958 3.552a45.72 45.72 0 0 0 23.632-40.019z" fill="url(#B)"/><path d="M168.194 8.6a45.73 45.73 0 0 0-46.287-4.21l1.74 3.654c13.712-6.5 29.867-5.017 42.18 3.844z" fill="url(#C)"/><path d="M147.586 14.62l.775-3.975a35.78 35.78 0 0 0-42.385 32.154l4.034.322a31.53 31.53 0 0 1 27.024-28.719 31.92 31.92 0 0 1 10.552.219z" fill="url(#D)"/><path d="M172.87 41.206c2.483 17.307-9.502 33.36-26.8 35.9a35.67 35.67 0 0 1-3.537.307l.132 4.048c1.335-.044 2.667-.16 4-.35 19.514-2.855 33.034-20.97 30.22-40.49z" fill="url(#E)"/><circle cx="24.846" cy="24.846" r="24.846" transform="matrix(.92388 -.382683 .382683 .92388 109.058 32.251)" fill="url(#F)"/><path d="M141.52 73.084a27.39 27.39 0 1 1 27.376-27.386c-.002 15.12-12.256 27.38-27.376 27.386zm0-49.692a22.32 22.32 0 1 0 22.3 22.313c-.003-12.317-9.983-22.303-22.3-22.313zm-7.628 31.685a6.37 6.37 0 0 1-5.51-2.455 11 11 0 0 1-1.827-6.68 11.04 11.04 0 0 1 1.827-6.68 7.31 7.31 0 0 1 11.02 0 11.12 11.12 0 0 1 1.827 6.679c.12 2.364-.52 4.705-1.827 6.68-1.3 1.7-3.378 2.6-5.5 2.455zm-2.616-13.446a9.18 9.18 0 0 0-.848 4.282 9.24 9.24 0 0 0 .848 4.3c.494.992 1.508 1.62 2.616 1.62a2.92 2.92 0 0 0 2.616-1.62 9.44 9.44 0 0 0 .833-4.3 9.38 9.38 0 0 0-.833-4.282c-.494-.992-1.508-1.62-2.616-1.62a2.92 2.92 0 0 0-2.616 1.62zm19.276 2.41a3.14 3.14 0 0 0 .672-1.842 2.02 2.02 0 0 0-2.046-2.061c-1.125 0-2.178.8-3.172 2.382l-3.186-1.87a9.82 9.82 0 0 1 2.733-2.923 6.72 6.72 0 0 1 3.785-.994c1.478-.023 2.914.497 4.034 1.462a4.9 4.9 0 0 1 1.739 3.975 5.44 5.44 0 0 1-.687 2.63 17.77 17.77 0 0 1-2.587 3.215l-3.2 3.318h7.015v3.552h-12.524v-2.922l5.218-5.335a21.93 21.93 0 0 0 2.207-2.587z" fill="#fff"/></g></svg>