<svg xmlns="http://www.w3.org/2000/svg" width="50.983" height="38.238" xmlns:v="https://vecta.io/nano"><path d="M27.616 24.908C27.616 13.986 35.884 2.562 48.86 0l2.1 4.516c-4.705 1.774-8.844 7.95-9.3 12.206 5.38.854 9.338 5.492 9.338 10.938 0 6.76-5.49 10.577-11.044 10.577-6.41.001-12.327-4.896-12.327-13.33zM0 24.908C0 13.986 8.268 2.562 21.243 0l2.1 4.516c-4.705 1.774-8.843 7.95-9.3 12.206 5.38.854 9.338 5.492 9.338 10.938 0 6.76-5.49 10.577-11.044 10.577C5.918 38.238 0 33.34 0 24.908z" opacity=".15"/></svg>