<svg xmlns="http://www.w3.org/2000/svg" width="51.071" height="38.304" xmlns:v="https://vecta.io/nano"><path d="M23.408 13.353c0 10.94-8.282 22.384-21.28 24.95L.034 33.78c4.713-1.78 8.86-7.963 9.32-12.228C3.968 20.697.002 16.054 0 10.6 0 3.824 5.5 0 11.063 0c6.416 0 12.345 4.905 12.345 13.353zm27.663 0c0 10.94-8.282 22.384-21.28 24.95L27.7 33.78c4.713-1.777 8.86-7.963 9.32-12.227-5.388-.854-9.355-5.498-9.357-10.953 0-6.77 5.5-10.6 11.063-10.6C45.142 0 51.07 4.905 51.07 13.353z" opacity=".15"/></svg>