<svg xmlns="http://www.w3.org/2000/svg" width="404" height="517.998" xmlns:v="https://vecta.io/nano"><path d="M388.152 517.998a47.52 47.52 0 0 1-5.4-15.323c-1.13-7.18-.617-15.687 4.025-21.7 2.9-3.75 6.852-4.53 10.94-6.515a14.96 14.96 0 0 0 6.283-5.95v2.323c-.246.334-.5.663-.766.983-2.8 3.234-6.48 4.153-10.23 5.876-9.78 4.476-10.562 17.586-8.633 26.735a47.5 47.5 0 0 0 5.2 13.56zm-18.922 0c-.615-.99-1.256-1.965-1.912-2.927-2.033-2.993-4.21-5.916-5.955-9.1-5.87-10.777-4.756-23.812.67-34.54a41.59 41.59 0 0 1 4.691-7.3 51.79 51.79 0 0 1 6.27-6.366c4.646-4.083 9.38-8.62 9.78-15.026s-2.77-12.632-7.385-16.95c-4.412-4.14-10-6.73-15.434-9.26l-8.943-4.144c-1.383-.727-2.898-1.17-4.455-1.3-2.598-.117-5.132.83-7.018 2.62-.913.874-1.627 1.936-2.092 3.11-.6 1.5-.836 3.137-1.326 4.673a68.6 68.6 0 0 1-4.262 9.771c-3.084 6.14-6.248 12.54-5.863 19.607.377 6.83 3.8 13.01 7.564 18.653s7.816 11.1 11.557 16.78a219.16 219.16 0 0 1 17.744 31.706h-1.5q-1.392-2.986-2.9-5.912a284.61 284.61 0 0 0-22-35.753c-4.012-5.588-8.14-11.2-10.45-17.7-1.16-3.175-1.717-6.54-1.64-9.92a30.46 30.46 0 0 1 2.258-9.99c2.592-6.634 6.66-12.646 8.477-19.576.282-1.437.753-2.83 1.4-4.144a10.48 10.48 0 0 1 2.516-3.028c1.98-1.627 4.453-2.53 7.014-2.56 3.563-.052 6.9 2.008 10.03 3.46 3.627 1.7 7.355 3.33 10.94 5.18 5.885 3.06 11.473 7.058 14.723 12.956 3.05 5.553 4 12.36 1.168 18.2-2.756 5.658-8.28 9.1-12.535 13.525a40.21 40.21 0 0 0-9.115 15.315c-1.983 5.773-2.495 11.95-1.492 17.97.575 3.11 1.633 6.11 3.135 8.89 1.852 3.184 3.867 6.27 6.037 9.246q1.274 1.9 2.45 3.837zm-23.8 0c-2.255-9.774-6.352-19.03-12.072-27.27a135.6 135.6 0 0 0-12.828-16.032c-2.328-2.52-4.69-4.945-7.182-7.39s-5.346-5.224-8.87-6-6.248 1.505-8.115 4.218c-1.924 2.932-3.6 6.025-4.977 9.246-3.04 6.643-5.37 13.59-6.947 20.723a108.42 108.42 0 0 0-2.652 22.5h-1.172c.017-9.44 1.293-18.84 3.793-27.943 1.93-7.115 4.628-14 8.047-20.53 1.545-2.945 3.072-6.073 5.986-8.178s6.428-1.812 9.477-.166c3.225 1.733 5.895 4.542 8.357 7.005a194.39 194.39 0 0 1 7.2 7.587 130.93 130.93 0 0 1 12.779 16.584 82.61 82.61 0 0 1 9.059 18.754 65.04 65.04 0 0 1 1.811 6.887zm-12.654 0c-.266-.7-.547-1.4-.834-2.087-3.838-9.263-9.168-17.826-14.785-26.114q-2.12-3.11-4.29-6.222c-1.19-1.706-2.586-3.885-4.678-4.516-3.96-1.173-6.795 3.78-8.143 6.65a57.94 57.94 0 0 0-2.547 7.119 144.64 144.64 0 0 0-2.258 7.859 153.97 153.97 0 0 0-3.268 16.177l-.172 1.133h-1.69q.554-4.306 1.348-8.585a148.22 148.22 0 0 1 4.42-17.485c1.46-4.6 3.027-10.08 7-13.192 1.573-1.397 3.74-1.917 5.775-1.387 2.53.744 4.13 2.962 5.56 5.036l9.3 13.648a119.46 119.46 0 0 1 11.314 21.966zm-12.123 0q-.67-3.262-1.432-6.51a10.11 10.11 0 0 0-1.387-3.772 6.71 6.71 0 0 0-2.416-2.074 6.58 6.58 0 0 0-6.143.123 11.66 11.66 0 0 0-2.793 2.529 28.35 28.35 0 0 0-2.523 3.339c-1.294 2-2.363 4.134-3.19 6.367h-1.38a36.21 36.21 0 0 1 .354-.989c1.056-2.922 2.535-5.673 4.39-8.165 1.61-2.157 3.45-4.385 6.127-5.185 2.307-.653 4.784-.275 6.79 1.037a8.14 8.14 0 0 1 2.551 2.656 14.71 14.71 0 0 1 1.379 4.205q.74 3.216 1.4 6.44zm-56.424 0c.562-10.186 2.363-20.266 5.363-30.017 1.98-6.397 4.645-12.562 7.95-18.386a86.6 86.6 0 0 1 12.436-16.321c4.953-5.224 10.135-10.27 14.02-16.352a61.05 61.05 0 0 0 7.648-17.971 66.11 66.11 0 0 0 1.9-19.638 61.85 61.85 0 0 0-1.309-9.762c-.27-1.63-.7-3.232-1.287-4.778-.687-1.536-1.973-1.864-3.246-.5s-1.2 3.277-.88 5.07.857 3.553 1.12 5.356a33.95 33.95 0 0 1 0 9.867c-1.144 6.78-3.715 13.24-7.543 18.95-7.846 12.23-19.9 21.02-28.45 32.708-8.288 11.45-13.76 24.693-15.97 38.654-1.16 7.647-1.61 15.386-1.348 23.116h-1.584c-.307-11.674.54-23.362 3.885-34.607 3.908-13.76 11.077-26.37 20.9-36.768 9.893-10.738 21.418-20.46 26.434-34.572 1.2-3.287 1.953-6.72 2.24-10.208a35.81 35.81 0 0 0-1.047-10.716c-.69-3.015-1.037-6.717 1.9-8.708a3.4 3.4 0 0 1 3.408-.4c1.2.757 2.024 1.983 2.275 3.378 3.764 12.663 3.04 26.853-1.213 39.29a60.11 60.11 0 0 1-9.141 17.253c-4.568 5.9-10.154 10.943-15.078 16.583-9.145 10.475-14.9 23.366-18.18 36.746a128 128 0 0 0-3.375 22.731zm-29.527 0a202.46 202.46 0 0 1 3.891-25.169c2.78-12.78 7.143-25.166 12.986-36.87a126.18 126.18 0 0 1 22.465-31.321c4.992-5.12 10.238-10.1 14.055-16.185 1.028-1.6 1.93-3.275 2.7-5.014a11.09 11.09 0 0 0 1.242-4.481c-.12-1.984-1.44-3.692-3.33-4.3a5.18 5.18 0 0 0-5.395.945 8.99 8.99 0 0 0-1.824 3.417q-1 2.48-2.092 4.923a109.29 109.29 0 0 1-10.523 18.417 101.79 101.79 0 0 1-13.7 15.7 134.1 134.1 0 0 1-16.072 12.217c-5.723 3.9-11.187 8.314-14.084 14.728-3.125 6.93-3.207 14.82-3.383 22.272q-.36 15.365-.723 30.73h-1.574q.217-9.373.424-18.74.144-6.53.3-13.08a104 104 0 0 1 .678-11.617c.45-3.632 1.427-7.178 2.9-10.528 1.5-3.166 3.565-6.032 6.092-8.458 4.908-4.778 10.938-8.073 16.4-12.125 11.356-8.565 20.758-19.45 27.582-31.93 1.78-3.187 3.394-6.463 4.84-9.815.775-1.658 1.37-3.37 2.092-5.027a6.73 6.73 0 0 1 2-2.652c1.666-1.175 3.756-1.578 5.74-1.107a7.07 7.07 0 0 1 4.617 3.562c1.252 2.573.205 5.233-.836 7.67a43.64 43.64 0 0 1-5.75 9.4c-4.45 5.693-9.854 10.528-14.732 15.857-8.74 9.668-15.9 20.653-21.22 32.55a163.59 163.59 0 0 0-11.744 38.457q-1.556 8.743-2.367 17.58zm-34.453 0c-.342-17.857 1.072-35.885 8.27-52.41 9.53-21.878 27.838-37.67 42.256-56.192 14.28-18.312 25.527-41.472 18.807-64.943-5.82-20.386-23.318-36.326-43.674-41.975-25.873-7.18-53.553-.06-78.262 8.23-6.71 2.27-13.3 4.7-19.852 7.255-5.873 2.3-11.8 4.6-17.525 7.255-4.572 2.122-9.193 4.765-12.33 8.83-3.895 5.09-4.3 11.473-2.756 17.524 1.6 6.28 4.9 12.134 7.69 17.79s5.45 11.4 7.666 17.3c4.314 11.565 6.773 24.236 3.574 36.436-3 11.4-10.373 20.828-16.186 30.883a89.59 89.59 0 0 0-10.842 31.15 100.09 100.09 0 0 0 .371 32.856H86.12c-3.035-15.882-2.053-32.27 2.857-47.677 1.677-5.246 3.854-10.318 6.5-15.148 2.9-5.286 6.27-10.27 9.4-15.455a67.5 67.5 0 0 0 7.641-16.579c1.69-6.45 2.02-13.18.97-19.765-1.943-13.087-7.86-25.2-13.73-36.92-5.1-10.178-11.066-23.068-3-33.434 3.05-3.907 7.334-6.6 11.766-8.747 5.64-2.713 11.566-4.953 17.4-7.255a368.29 368.29 0 0 1 39.275-13.276c24.07-6.476 51.492-9.78 74.416 2.293 18.37 9.67 32.17 28.25 33.63 49.112 1.707 24.385-12.715 46.053-28.008 63.766-7.912 9.158-16.28 17.958-23.463 27.72-7.202 9.508-12.56 20.28-15.795 31.762-3.475 12.92-4.223 26.254-3.95 39.6zm-7.676 0a76.8 76.8 0 0 0-.219-9.434c-.5-6.165-1.475-12.24-1.846-18.456-.656-10.92 1.573-21.822 6.463-31.61 4.62-9.443 11.12-17.844 18.2-25.59 14.67-16.032 32.295-30.6 39.81-51.62 3.5-9.8 4.967-20.675 2.406-30.87a38.51 38.51 0 0 0-16.2-22.53c-7.5-5.028-16.232-7.9-25-9.823-10.715-2.398-21.635-3.76-32.61-4.065-11.42-.236-23.187 1.225-33.553 6.218a54.13 54.13 0 0 0-21.178 18.054c-5.802 8.62-8.574 18.926-7.88 29.295a182.11 182.11 0 0 0 2.455 18.741 128.61 128.61 0 0 1 1.686 17.222 113.33 113.33 0 0 1-4.215 33.43c-3.04 10.677-7.832 20.408-13.486 29.92-5.465 9.193-11.162 18.645-12.465 29.443-.72 7.297.02 14.664 2.174 21.672h-1.62a70.87 70.87 0 0 1-1.865-8.708 49.05 49.05 0 0 1-.113-14.146c.806-5.168 2.37-10.188 4.64-14.9 4.65-10.033 11.285-18.933 15.84-29.1 4.73-10.62 7.74-21.925 8.912-33.49.6-5.78.75-11.597.447-17.4a171.6 171.6 0 0 0-2.285-18.351c-1.842-11.4-3.123-23 .98-34.077a51.85 51.85 0 0 1 16.4-22.267 60.2 60.2 0 0 1 27.563-12.024c11.885-2.04 24.035-1.234 35.914.407 17.836 2.464 38.244 6.53 49.957 21.47 13.04 16.645 9.447 40.063-.22 57.4-10.93 19.62-29.6 33.163-43.113 50.783-6.594 8.61-12.133 18.23-14.732 28.8-1.348 5.653-1.84 11.476-1.46 17.275.367 6.354 1.387 12.633 1.9 18.964a86.77 86.77 0 0 1 .145 9.373zm-17.54 0q.756-1.608 1.475-3.23c3.9-8.764 6.957-18.02 7.732-27.628.48-6.03-.22-12.042-.225-18.07a45.47 45.47 0 0 1 1.76-13.306c4.17-14 15.357-24.477 25.912-33.9s22.5-18.885 28.42-32.064a37.4 37.4 0 0 0 2.318-23.755c-2.37-10.165-8.664-19.086-16.14-26.25-13.137-12.57-31.973-21.055-50.5-19.13-8.852.845-17.18 4.58-23.7 10.624-7.23 6.8-11.6 15.98-14.084 25.448-5.623 21.476-2.2 43.673-1.756 65.5.242 11.6-.354 23.388-3.7 34.572-3.416 11.407-10.178 21.4-14.355 32.476-3.38 9.2-5.218 18.914-5.443 28.722h-1.322a106.23 106.23 0 0 1 .863-10.987c.717-5.736 2.044-11.38 3.96-16.833 2.12-5.526 4.56-10.923 7.313-16.163 2.828-5.387 5.222-10.99 7.158-16.76 1.75-5.79 2.88-11.747 3.373-17.774 1.1-12.146.27-24.363-.4-36.5-1.094-20.364-1.764-42.645 8.31-61.145a43.55 43.55 0 0 1 19.725-19.034 47.89 47.89 0 0 1 25.838-3.61c18.895 2.323 36.668 13.3 47.848 28.46 6.12 8.3 10.164 18.28 9.674 28.643a41.52 41.52 0 0 1-6.445 19.94c-7.814 12.55-20.123 21.576-30.8 31.535-5.346 5.028-10.57 10.366-14.627 16.583-4.38 6.474-6.908 14.02-7.312 21.826-.254 6.257.6 12.55.324 18.767-.23 4.824-.964 9.6-2.187 14.282a111.96 111.96 0 0 1-6.949 18.78zm-26.44 0c2.664-3.785 5.783-7.268 8.824-10.795 5.164-6.008 10.27-12.37 12.537-20.093 2.678-9.1 1.36-18.736 1.36-28.06a53.01 53.01 0 0 1 1.482-13.144c.977-3.678 2.413-7.218 4.275-10.537 3.705-6.695 8.848-12.48 14.22-17.9 5.61-5.666 11.656-10.943 16.79-17.065 5.535-6.542 10.3-14.054 12.537-22.346a31.63 31.63 0 0 0-3.209-24.683c-2.286-3.73-4.923-7.236-7.875-10.467a71.48 71.48 0 0 0-8.936-8.777c-6.287-5.11-14.26-8.633-22.4-6.148-7.5 2.293-13.18 8.625-17.086 15.087-8.81 14.575-10.9 32.213-11.5 48.867-.6 17.4.473 34.882-1.28 52.25a143.15 143.15 0 0 1-5.08 25.575c-2.447 8.5-5.443 16.8-8.357 25.1-2.674 7.618-5.285 15.323-7.3 23.147h-1.21c2.98-12.077 7.43-23.812 11.434-35.583 3-8.42 5.444-17.03 7.316-25.772a159.93 159.93 0 0 0 2.727-26.416c.555-17.647-.6-35.35 1.4-52.967a99.07 99.07 0 0 1 5.652-24.455c2.854-7.434 6.822-14.654 12.768-20.1 5.5-5.014 12.61-7.96 20.125-6.507 8.076 1.553 14.785 7.316 20.25 13.11 5.758 6.082 11.5 13.087 13.918 21.13s1.16 16.562-2.092 24.18c-3.526 7.78-8.396 14.876-14.387 20.964-5.39 5.75-11.4 11-16.72 16.767s-10.178 12.155-12.986 19.515c-3.344 8.734-2.875 17.874-2.613 27.046a76.72 76.72 0 0 1-.541 13.836 37.56 37.56 0 0 1-3.969 11.9c-3.756 7.036-9.373 12.83-14.47 18.9-1.225 1.453-2.39 2.932-3.48 4.45zm-65.96 0q-3.72-15.03-5.963-30.4c-2.223-15.12-3.38-30.377-3.46-45.66-.062-14.32 1.21-28.643.4-42.955-.807-13.564-3.72-27.544-12.537-38.344-8.234-10.073-20.21-15.918-32.393-19.865a185.11 185.11 0 0 0-19.852-5.277A48.53 48.53 0 0 0 0 334.379v-1.063c7.242.25 14.443 2.288 21.428 4.194 6.06 1.594 11.994 3.624 17.76 6.073 11.684 5.084 21.975 12.92 28 24.32 6.318 11.92 7.67 25.733 7.846 38.987.188 14.584-.88 29.133-.377 43.725a327.79 327.79 0 0 0 4.939 46.115l.05.27a63.9 63.9 0 0 1 1.553-14.864c1.616-6.4 4.077-12.56 7.316-18.312 6.266-11.8 15.525-24.9 13.145-38.973-1.27-7.513-6.27-13.534-8.852-20.574-2.7-7.368-3.48-15.245-5.488-22.8-3.727-14.072-12.08-26.25-21.68-37.048-4.73-5.338-9.78-10.405-14.848-15.44a116.47 116.47 0 0 0-17.086-14.593c-5.82-3.885-12.633-7.014-19.664-7.067-5.1-.038-9.72 1.684-14.037 4.1v-1.52c2.053-1.144 4.22-2.072 6.463-2.768 13.867-4.187 27.055 4.507 37 13.2 5.455 4.787 10.53 9.972 15.58 15.153a188.26 188.26 0 0 1 14.072 15.971 95.11 95.11 0 0 1 11.225 18.019c3.133 6.852 4.826 13.92 6.29 21.2.692 3.85 1.605 7.655 2.734 11.4 1.305 3.746 2.964 7.358 4.953 10.8 1.828 3.123 3.234 6.475 4.18 9.968.73 3.133.924 6.367.572 9.565-.664 6.6-3.3 12.8-6.27 18.653-3.246 6.415-7.02 12.563-10.082 19.06-5.553 11.878-7.223 25.204-4.773 38.085a66.51 66.51 0 0 0 2.59 9.8zm-14.115 0l-.428-1.344q-3.407-10.66-6.814-21.313c-2.13-6.646-4.322-13.328-6.076-20.115-1.847-6.75-2.975-13.678-3.365-20.666a106.4 106.4 0 0 1 1.168-19.06c1.672-12.536 4.682-24.972 5.014-37.617.242-11.814-2.537-23.794-10.895-32.6-7.377-7.72-17.766-12.064-28.215-13.473-6.282-.775-12.64-.716-18.906.176v-1.25c9.38-1.148 18.854-1.048 28.008 1.726 10.1 3.08 19.27 9.224 24.8 18.28 6.28 10.252 6.98 22.52 5.934 34.2-1.256 12.8-4.336 25.348-5.434 38.155-.616 6.798-.417 13.645.594 20.395 1.177 6.99 2.85 13.9 5.006 20.644L69.608 518zm-7.8 0a159.01 159.01 0 0 0-9.959-22.2 144.95 144.95 0 0 0-8.928-14.282c-1.627-2.372-3.395-4.682-5.225-6.944a35.66 35.66 0 0 1-4.7-6.612c-2.672-5.544-.346-11.223 1.986-16.4l7.44-17.17c4.69-11.578 8.6-23.65 9.508-36.17.43-5.9.512-12.282-1.85-17.826-2.258-5.18-6.7-8.61-11.662-11.027A79.06 79.06 0 0 0 .89 361.825l-.893.03v-.957c3.935-.153 7.877-.02 11.793.4a82.05 82.05 0 0 1 18.254 4.1c5.045 1.76 10.24 3.877 14.357 7.347 4.367 3.7 6.55 8.83 7.24 14.4a65.9 65.9 0 0 1-.66 17.94c-1.89 12.322-6.3 24.105-11.18 35.5l-3.687 8.427a75.89 75.89 0 0 0-3.689 8.952 12.9 12.9 0 0 0 .385 9.482 37.54 37.54 0 0 0 4.975 6.9c7.056 8.816 13.07 18.417 17.924 28.612a161.36 161.36 0 0 1 6.244 15.043zm-13.115 0c-4.594-9.482-11.21-17.84-18.2-25.707-3.6-4.03-7.4-7.876-10.908-11.958a19.91 19.91 0 0 1-3.816-6.043 14.56 14.56 0 0 1-.24-8.029c.617-3.006 1.475-5.968 2.227-8.935l11.515-45.1c1.46-5.905 2.72-11.972 2.332-18.1a24.4 24.4 0 0 0-4.809-13.551 13.78 13.78 0 0 0-12.627-5.268c-4.527.484-8.766 2.355-13.07 3.778v-1.122c2.527-.833 5.023-1.793 7.582-2.55 4.63-1.387 9.6-2.008 14.03.31 3.994 2.074 6.63 6 8.174 10.064 1.772 5.043 2.296 10.44 1.527 15.73-.713 6.082-2.395 12.01-3.9 17.927q-2.317 9.1-4.617 18.19l-6.953 27.326c-.726 2.984-1.2 6.073-.092 9.027 1.038 2.44 2.535 4.655 4.4 6.53l5.55 6.012c3.72 4.083 7.387 8.156 10.826 12.436a99.68 99.68 0 0 1 12.326 19.043zm-21.012 0c-2.552-4.563-5.354-8.982-8.393-13.236-5.05-7.207-10.387-14.068-15.672-21.174L0 480.146v-2.048c2.486 3.56 5.23 6.97 7.793 10.364 5.285 7.014 10.58 14.054 15.346 21.432q2.637 3.95 4.936 8.108zM.057 511.89l.158.34q.794 1.71 1.566 3.43c-.943-1.053-1.545-2.368-1.724-3.77zM147.1 496.085a9.81 9.81 0 0 1-2.59-7.854c.158-2.27 1.34-4.144 2.25-6.218 1.46-3.273 1.95-6.8 3.06-10.187.97-3.148 2.417-6.13 4.287-8.843 1.252-1.72 3.2-3.956 5.588-3.7 3.04.34 4.4 4.157 5.207 6.585.337 1.037.618 2.075.84 3.125a34.76 34.76 0 0 1-4.35 24.687 9.4 9.4 0 0 1-6.979 4.892c-.34.04-.68.058-1.02.057a9.06 9.06 0 0 1-6.292-2.544zm10.84-35.482c-2.236 1.13-3.71 3.7-4.826 5.833a36 36 0 0 0-3.2 8.6 47.84 47.84 0 0 1-1.484 5.386c-.457 1.22-.977 2.413-1.557 3.58a17.07 17.07 0 0 0-1.047 2.6 9.47 9.47 0 0 0-.3 3.194 7.74 7.74 0 0 0 3.5 6.471c2.2 1.44 4.953 1.694 7.37.678 3.053-1.286 4.576-4.415 5.87-7.255a32.84 32.84 0 0 0 1.641-23.418c-.037-.048-.068-.1-.092-.157a21.39 21.39 0 0 0-1.1-2.757c-.73-1.457-1.926-3.08-3.523-3.08-.437.006-.866.116-1.252.32zm-8.184 31.006c-.77-1.566-.166-3.483.324-5.036a38.9 38.9 0 0 0 1.891-6.83c.12-2.228.664-4.412 1.6-6.437.656-1.212 1.793-2.713 3.352-2.66 1.86.06 2.748 2.267 3.23 3.728.018.052.028.107.03.162 1.217 3.96.332 8.607-1.168 12.37a16.55 16.55 0 0 1-2.582 4.516 5.23 5.23 0 0 1-3.133 2.074c-.11.01-.215.013-.32.013a3.68 3.68 0 0 1-3.224-1.9zm6.322-19.72c-1.5.893-2.227 3.015-2.61 4.6-.218 1.025-.368 2.063-.45 3.107a20.73 20.73 0 0 1-.646 3.181c-.52 1.855-1.273 3.65-1.725 5.527-.314 1.326-.43 2.857.89 3.675a2.45 2.45 0 0 0 2.83 0c1.045-.8 1.892-1.828 2.477-3.006a20.3 20.3 0 0 0 1.883-4.538c.9-3.12 1.4-6.734.354-9.845a.53.53 0 0 1-.014-.2c-.354-1.028-1.08-2.748-2.223-2.748-.272.01-.537.095-.763.247zm186.61-3.522c-.508-.2-1.006-.425-1.492-.674-.933-.48-1.798-1.085-2.572-1.794-2.652-2.446-2.822-6-2.088-9.324.814-3.746 2.477-7.237 3.4-10.948a16.59 16.59 0 0 0 .451-5.347c-.216-2.498-.256-5.01-.12-7.513.28-4.415 1.4-9.237 5.063-12.12.035-.046.076-.085.123-.118.758-.585 1.61-1.04 2.516-1.348 3.846-1.3 7.828.726 10.5 3.422 3.2 3.227 5.085 7.532 5.285 12.073.12 3.763-1.062 7.657-2.275 11.193a61.39 61.39 0 0 1-5.557 11.919c-1.926 3.436-4.536 6.44-7.67 8.826-1.264.926-2.72 1.554-4.262 1.838a2.17 2.17 0 0 1-.521.066c-.267-.002-.532-.053-.78-.152zm3.5-47.112c-.014.01-.025.022-.04.03a10.13 10.13 0 0 0-2.092 2.188c-2.607 3.676-2.88 8.63-2.787 13 .04 2.03.385 4.043.25 6.113-.153 1.686-.504 3.348-1.043 4.953-1.045 3.452-2.572 6.8-3.137 10.366a9.73 9.73 0 0 0 .24 4.581 7.42 7.42 0 0 0 3.186 3.781 11.54 11.54 0 0 0 1.445.788c.415.276.902.424 1.4.424.668-.094 1.322-.274 1.943-.538 1.442-.637 2.762-1.52 3.9-2.612a35.4 35.4 0 0 0 6.875-9.324c1.974-3.628 3.573-7.448 4.773-11.4 1.068-3.483 2.018-7.255 1.4-10.913-.693-4.184-2.903-7.967-6.21-10.624-1.668-1.362-3.737-2.14-5.89-2.2a7.01 7.01 0 0 0-4.215 1.395zm-3.15 35.762c-.525-1.8-.035-3.894.332-5.68.438-2.218 1.033-4.393 1.37-6.63.334-2.5-.156-5.006 0-7.526.137-2.757.836-5.75 3.135-7.543a.27.27 0 0 1 .051-.035c2.367-1.71 5.182-1.173 7.355.6a11.12 11.12 0 0 1 3.982 7.916c-.054 2.698-.814 5.335-2.205 7.648a46.47 46.47 0 0 1-5.059 7.544c-.902 1.177-1.87 2.302-2.9 3.37l-1.295 1.348a2.38 2.38 0 0 1-1.309.893c-.24.038-.48.057-.723.057-1.267.097-2.42-.732-2.733-1.963zm5.7-26.722a.49.49 0 0 1-.1.118c-2.447 1.908-2.89 5.238-2.89 8.125-.01 1.37.18 2.726.18 4.1a16.35 16.35 0 0 1-.311 3.023c-.36 2.052-.89 4.043-1.3 6.117-.48 1.627-.58 3.342-.293 5.014a1.52 1.52 0 0 0 .9 1.037 2.43 2.43 0 0 0 .971.105c.543-.044.648-.18 1.047-.573 1.804-1.806 3.49-3.726 5.045-5.75a42.67 42.67 0 0 0 4.5-7.027 12.9 12.9 0 0 0 1.684-7.005 10.13 10.13 0 0 0-3.535-6.559 5.76 5.76 0 0 0-3.6-1.439 4.02 4.02 0 0 0-2.298.718zm1.36 15.27c-.692-.216-1.297-.648-1.725-1.234-.232-.3-.402-.662-.5-1.037a4.67 4.67 0 0 1-.105-.621v-.63c-.105-1.785-.04-4.03 1.5-5.246.77-.582 1.78-.718 2.666-.36.896.4 1.637 1.097 2.113 1.96 1.037 1.814.97 4.056-.172 5.806a3.27 3.27 0 0 1-2.773 1.523c-.34-.001-.68-.056-1.002-.163zm.064-8.13c-.026.045-.06.085-.1.118-1.4 1.09-1.273 3.247-1.156 4.83v.424a2.24 2.24 0 0 0 .115.438 2.2 2.2 0 0 0 .375.608 2.4 2.4 0 0 0 1.3.748c1.056.248 2.136-.306 2.55-1.308a5.2 5.2 0 0 0 .582-2.59c-.066-.745-.33-1.46-.762-2.07a2.98 2.98 0 0 0-2.166-1.4c-.26 0-.513.07-.737.2zm-2.4 5.238h0zm1.14-.2h0zm-19.887-62.746c-14-7.587-27.447-17.04-36.213-30.51-10.02-15.45-11-34.292-18.89-50.635-7.662-15.875-22.455-24.438-39.445-27.65a137.17 137.17 0 0 0-25.078-2.008l-3.334.026c-3.423.145-6.85.012-10.252-.4-4.25-.735-8.284-2.4-11.814-4.88-3.937-2.582-7.5-5.688-11.307-8.436a68.5 68.5 0 0 0-12.256-6.839c-8.44-3.74-17.646-6.572-24.963-12.365a34.66 34.66 0 0 1-12.465-18.9c-1.682-7.368.375-14.164 5.05-20 5.37-6.756 12.527-12.527 11.64-22.053-.525-5.6-4-8.187-9.568-7.845-3.012.188-6.105.477-8.55-1.593-4.03-3.4-3.74-10.055-1.785-14.435 1.38-3.12 3.81-4.5 6.1-6.883 3.364-3.59 5.113-8.402 4.84-13.315-.21-4.292-2.025-8.064-1.13-12.44a15.6 15.6 0 0 1 4.428-8.021c4.953-4.8 12.156-6.49 18.426-8.84 14.658-5.46 24.582-17.743 33.557-29.9 8.777-11.845 17.2-24.7 29.334-33.482 14.154-10.24 32.14-11.98 48.71-7.132 9.28 2.717 17.375 8.427 27.168 9.154 10.46.774 19.287-3.225 27.4-9.443a130.54 130.54 0 0 0 28.893-30.9h.81a132.75 132.75 0 0 1-7.924 10.983 126.96 126.96 0 0 1-18.641 18.653c-6.594 5.338-13.6 10.033-22.05 11.4s-16.426-.477-24.035-4.144c-9.015-4.487-18.904-6.944-28.97-7.2a50.9 50.9 0 0 0-27.838 7.688c-6.424 4.052-11.836 9.482-16.72 15.223-9.775 11.525-17.564 24.678-28.008 35.63a60.25 60.25 0 0 1-16.3 12.488c-6.572 3.273-14.133 4.5-20.3 8.58a15 15 0 0 0-6.957 10.672c-.586 4.55 1.61 8.852 1.266 13.472a19.22 19.22 0 0 1-3.26 9.473c-2.088 3.015-5.594 4.686-7.312 7.95a13.74 13.74 0 0 0-1.045 10.755c1.92 5.338 6.76 4.46 11.44 4.406 6.3-.066 9.254 4.93 9.254 10.716-.04 7.408-4.4 12.62-9.123 17.888-3.26 3.658-6.414 7.482-7.635 12.322-.998 4.38-.67 8.956.94 13.15 7.31 20.075 29.592 22.127 45.523 32.27 7.932 5.058 14.62 12.85 24.24 14.715 4.914.945 10.012.538 14.973.538 4.057.022 8.117.15 12.174.446 14.754 1.037 30.12 4.55 41.494 14.5 13.438 11.76 16.45 29.6 21.428 45.795 2.8 8.913 6.414 17.38 12.207 24.788a83.37 83.37 0 0 0 18.461 16.947c13.455 9.324 28.64 15.45 43.174 23.024 13.906 7.233 27.53 16.212 37.258 28.647 3.15 4.013 5.822 8.38 7.964 13.01v3.375c-12.012-31.868-47.354-43.5-74.98-58.444zM155.47 437.74c-1.53-.37-2.883-1.266-3.824-2.53a5.29 5.29 0 0 1-.6-3.627 36.77 36.77 0 0 1 1.041-4.332 37.81 37.81 0 0 0 .977-5.885c1.055-9.823.854-19.743 2.424-29.513.745-4.377 1.76-8.704 3.04-12.956a108.37 108.37 0 0 1 4.354-12.116 83.06 83.06 0 0 1 13.43-21.843c2.463-2.83 5.5-6.725 9.78-6.218 3.78.446 6.52 3.75 8.605 6.612.026.03.046.063.06.1 1.21 1.685 2.4 3.378 3.547 5.1 4.766 7.12 9.207 14.86 11.11 23.283a29.95 29.95 0 0 1 .438 11.713c-.674 3.775-2.252 7.33-4.6 10.362-4.45 5.77-10.918 9.482-16.824 13.625a54.65 54.65 0 0 0-8.41 6.935c-2.9 3.06-4.72 6.734-6.686 10.414a31.72 31.72 0 0 1-3.4 5.369 16.6 16.6 0 0 1-3.814 3.308c-2.33 1.596-5.06 2.505-7.88 2.62a9.27 9.27 0 0 1-2.761-.422zm24.5-95.28c-2.992 3.034-5.7 6.337-8.086 9.867-4.617 6.856-8.277 14.31-10.88 22.154a106.55 106.55 0 0 0-5.443 25.567c-.4 4.778-.576 9.565-.88 14.343-.158 2.372-.332 4.748-.6 7.1a39.71 39.71 0 0 1-.9 5.649c-.336 1.356-.8 2.726-1.045 4.148a4.56 4.56 0 0 0 .49 3.492 6.6 6.6 0 0 0 4.23 2.2c1.85.24 3.73 0 5.457-.7a16.7 16.7 0 0 0 8.16-6.612c2.328-3.588 3.863-7.627 6.393-11.1 4.117-5.658 10.146-9.377 15.914-13.315s11.617-8.3 14.514-14.838c3.207-7.3 1.934-15.424-.836-22.68-3.014-7.837-7.69-14.97-12.584-21.764a.7.7 0 0 1-.152-.131 22.58 22.58 0 0 0-3.689-4.144c-1.347-1.243-3.1-1.954-4.932-2-2.065.07-3.727 1.364-5.127 2.765zm-18.037 83.867a5.23 5.23 0 0 1-2.922-1.978 4.09 4.09 0 0 1-.469-2.652c.178-1.112.436-2.2.77-3.286a29.62 29.62 0 0 0 .775-4.538c.77-7.42.656-14.925 1.816-22.3 1.076-6.576 2.95-12.997 5.578-19.12a63.41 63.41 0 0 1 10.273-16.706c1.877-2.188 4.188-5.11 7.447-4.756 2.936.324 5.06 2.87 6.678 5.09l2.77 3.977c6.54 9.745 13.635 23.808 5.164 34.615-3.4 4.332-8.266 7.158-12.73 10.27a40.6 40.6 0 0 0-6.424 5.316c-2.2 2.354-3.566 5.18-5.072 7.98a22.7 22.7 0 0 1-2.629 4.069 12.78 12.78 0 0 1-3 2.5c-1.732 1.143-3.746 1.788-5.82 1.864a7.08 7.08 0 0 1-2.2-.342zm22.334-74.324c-1.515.3-2.874 1.126-3.838 2.332a54.74 54.74 0 0 0-6.029 7.482 69.45 69.45 0 0 0-8.117 16.715 82.01 82.01 0 0 0-4.064 19.38c-.293 3.575-.416 7.163-.648 10.738-.082 3.22-.46 6.424-1.13 9.574-.45 1.65-1.6 4.135-.45 5.732.873.96 2.083 1.545 3.377 1.636 1.375.122 2.76-.1 4.03-.643 2.515-1.01 4.64-2.798 6.06-5.106 1.707-2.726 2.9-5.784 4.84-8.384 3.146-4.2 7.617-7 11.977-9.94s8.795-6.28 10.97-11.232c2.447-5.535 1.4-11.722-.69-17.183-2.28-5.946-5.87-11.346-9.592-16.527a.44.44 0 0 1-.064-.118 17.95 17.95 0 0 0-2.734-3.015 5.44 5.44 0 0 0-3.693-1.444c-.068-.001-.135.006-.2.006zm-17.473 64.947a3.17 3.17 0 0 1-2.227-3.566 21.97 21.97 0 0 1 .586-2.424 22.43 22.43 0 0 0 .564-3.409c.6-5.64.482-11.337 1.418-16.947a61.07 61.07 0 0 1 4.254-14.155 46.65 46.65 0 0 1 7.85-12.436c1.422-1.562 3.094-3.46 5.473-3.107 2.092.324 3.62 2.11 4.8 3.72.038.028.072.062.1.1l2.088 3.107c4.922 7.36 10.08 17.835 3.613 25.908-2.586 3.212-6.258 5.316-9.6 7.657-1.708 1.134-3.285 2.454-4.7 3.938-1.505 1.922-2.788 4.008-3.826 6.218a11.37 11.37 0 0 1-4.312 4.612c-1.15.738-2.488 1.13-3.855 1.13-.753.004-1.503-.11-2.22-.342zm17.244-55.045c-.123-.001-.245.005-.367.017a5.04 5.04 0 0 0-2.646 1.72 42.13 42.13 0 0 0-4.473 5.552c-2.524 3.816-4.527 7.953-5.955 12.3-1.595 4.658-2.613 9.494-3.03 14.4-.22 2.652-.312 5.325-.482 8-.065 2.36-.337 4.7-.814 7.023-.3 1.2-1.207 3.08-.385 4.24a3.53 3.53 0 0 0 2.455 1.181c1.057.082 2.117-.103 3.084-.538a9.44 9.44 0 0 0 4.367-3.846c1.234-1.987 2.088-4.2 3.5-6.073 2.34-3.115 5.652-5.2 8.877-7.386s6.523-4.634 8.143-8.292c1.795-4.074 1.068-8.633-.48-12.654-1.825-4.347-4.195-8.445-7.053-12.195-.048-.035-.09-.078-.123-.127a12.24 12.24 0 0 0-2.092-2.341c-.684-.63-1.58-.98-2.508-.98zm-5.31 34.983c-1.58-.04-3.055-.79-4.018-2.043a5.14 5.14 0 0 1-.914-4.384c.4-1.26.898-2.49 1.46-3.69l1.828-4.3 3.26-7.955a.42.42 0 0 1 .01-.346 4.11 4.11 0 0 1 4.145-2.582 4.1 4.1 0 0 1 3.691 3.186c1.016 4.494-.03 9.6-1.754 13.74-.888 2.25-2.076 4.368-3.53 6.3-.965 1.305-2.493 2.075-4.117 2.074zm2.69-22.482a.1.1 0 0 1-.018.044q-1.673 4.09-3.342 8.187l-1.64 4.043c-.5 1.264-1.13 2.53-1.545 3.824-.397 1.3-.128 2.71.72 3.772a4.2 4.2 0 0 0 3.541 1.562c1.725-.092 2.777-1.282 3.68-2.62 1.186-1.773 2.17-3.674 2.932-5.667a23.6 23.6 0 0 0 1.541-12.2c-.17-1.393-1.247-2.503-2.635-2.713a3.2 3.2 0 0 0-.451-.035 3.05 3.05 0 0 0-2.776 1.806zm214.234 8.957c-4.4-2.363-9.363-3.006-14.264-3.452-15.674-1.492-30.008-5.97-42.838-14.965s-22.486-21.025-29.55-34.988-11.818-28.94-18.863-42.9c-7.52-14.912-17.94-27.483-33.967-33.7-15.66-6.082-32.682-6.218-48.973-9.68-13.082-2.78-26.37-8.226-35.775-17.927a41.15 41.15 0 0 1-10.055-17.008c-2.328-7.977-1.973-16.365-1.566-24.56.438-9.15 1.182-18.78-2.086-27.544-2.613-6.975-8.762-13.17-8.625-20.986.21-12.252 14.842-13.752 23.2-18.728s8.418-13.494 10.45-21.94c1.838-7.078 5.3-13.63 10.11-19.14 5.29-6.27 11.684-11.42 18.287-16.343s13.46-9.928 21.326-12.663c14.648-5.072 27.574 2.28 40.225 8.944 6.44 3.387 13.254 6.953 20.63 7.666 8.953.818 15.932-3.658 22.3-9.543s12.594-11.4 19.957-16.032c7.775-4.892 15.967-9.088 23.672-14.116 9.387-6.113 18.05-14.072 23.418-23.76h.762q-.794 1.5-1.707 2.94c-8.725 13.98-22.977 22.22-36.934 30.27-8.28 4.778-16.4 9.762-23.432 16.26-5.514 5.1-10.812 11.1-18.13 13.6-12.89 4.393-25.723-3.982-36.693-9.683-6.646-3.448-13.738-6.88-21.336-7.482-9.936-.788-19 4.065-26.918 9.5-13.822 9.473-29.225 21.06-34.164 37.775-2.05 6.944-1.6 15.16-6.77 20.84-3.89 4.292-9.635 6.148-14.86 8.292-5.75 2.35-11.744 5.544-12.445 12.374-.887 8.62 6.844 15.906 9.215 23.834 5.06 16.912-2.287 35 3.53 51.816 5.06 14.6 18.453 24.022 32.568 29.12 15.018 5.42 31.063 5.7 46.635 9s29.422 10.064 39.246 22.8c9.424 12.2 14.807 26.963 20.643 41.034 6.24 15.07 13.242 29.65 24.736 41.455 11.444 11.87 26.153 20.074 42.264 23.576 8.283 1.667 17.293.85 25.19 4.144 3.8 1.673 7.19 4.152 9.934 7.265v1.525a33.09 33.09 0 0 0-8.343-6.893zm-22.637-25.365c-15.62-2.455-32.088-3.833-43.205-16.417-10.24-11.582-13.98-27.41-19.12-41.555-11-30.28-34.223-56.5-65.828-66.25-17.217-5.308-36.256-3.513-52.742-11.232-12.707-5.9-23.227-17.7-23.7-32.13-.332-10.186 3.793-20 2.184-30.24-.6-3.824-2.184-7.4-2.393-11.285a21.75 21.75 0 0 1 1.482-9.036c2.656-6.848 7.88-10.042 14.146-13.15 3.824-1.96 7.37-4.5 9.46-8.292 2.494-4.476 2.463-9.66 2.37-14.632-.137-7.255.24-14.2 3.93-20.727a37.33 37.33 0 0 1 14.342-13.927c15.057-8.49 32.434-5.544 48.67-2.8 16.584 2.81 32.727 3.588 49.31.28a135.03 135.03 0 0 0 41.744-16.024 149.42 149.42 0 0 0 49.324-47.222 6.95 6.95 0 0 1 .467.905c-15.476 23.953-37.535 42.93-63.53 54.653a130 130 0 0 1-40.648 10.755c-7.073.648-14.19.648-21.262 0-9.7-.87-19.205-3.067-28.857-4.27-16.824-2.07-35 .2-45.98 14.5-5.574 7.233-6.432 15.122-6.266 23.93.135 7.193-.45 14.5-6.135 19.7-2.69 2.242-5.706 4.062-8.943 5.4-3.874 1.715-7.147 4.547-9.4 8.134a20.6 20.6 0 0 0-2.977 11.792c.22 4.144 2 8 2.516 12.138 1.22 9.5-2.332 18.675-2.332 28.157.1 8.46 3.47 16.55 9.408 22.578 12.838 13.547 31.447 14.833 48.92 17.275 15.7 2.2 30.256 7.338 43.3 16.408 12.414 8.695 22.856 19.9 30.643 32.913 8.36 13.9 12.066 29.44 18.215 44.28 2.9 7.088 6.5 13.99 11.867 19.524 6.008 6.218 13.936 9.648 22.3 11.578s16.982 2.568 25.34 4.332c6.71 1.4 13.2 3.69 19.3 6.817q2.593 1.325 5.084 2.825v1.42a83.4 83.4 0 0 0-31.004-11.106zm-4.42-22.022c-6.8-1.273-14.072-1.378-20.645-3.658-5.58-1.946-10.146-6.054-12.668-11.4-2.816-5.732-3.977-12.116-5.225-18.334-1.27-6.763-3.136-13.4-5.578-19.834-4.902-12.504-12.163-23.95-21.39-33.7-8.68-9.274-19.095-16.756-30.654-22.022-5.845-2.62-11.974-4.55-18.264-5.754-6.46-1.243-12.96-.8-19.406-1.78-6.166-.945-9.8-4.787-13.13-9.692-1.842-2.726-3.5-5.627-5.592-8.165-1.912-2.3-4.17-3.325-6.625-4.93-10.125-6.612-15.652-19.734-14.012-31.57a31.56 31.56 0 0 1 6.836-15.656c3.924-4.787 8.975-7.163 14.04-10.458a62.63 62.63 0 0 0 16.072-15.267c4.418-6 7.176-12.62 10.125-19.4 2.62-6.052 6.016-11.464 11.42-15.442a42.84 42.84 0 0 1 16.193-6.913c13.678-3.054 27.97-2.433 41.8-4.28a243 243 0 0 0 49.16-11.884c12.352-4.375 24.332-10.3 34.53-18.592a73.75 73.75 0 0 0 8.428-7.955v1.79c-5.986 6.285-12.86 11.66-20.4 15.958-11.842 6.953-24.87 11.534-38.033 15.245a240.93 240.93 0 0 1-48.766 8.467c-12.725.87-26.52.683-38.012 6.9a31.97 31.97 0 0 0-13.752 14.811c-3.207 6.7-5.55 13.6-9.73 19.813-3.774 5.63-8.4 10.63-13.738 14.82-5.11 4.008-11.377 6.454-16.02 11.013-4.506 4.452-7.496 10.2-8.545 16.457-1.174 7.058.477 13.652 3.613 19.983 1.635 3.418 3.974 6.45 6.865 8.9 2.275 1.886 5.055 2.975 7.313 4.817 4.555 3.71 6.855 9.714 10.53 14.177 2.378 3.064 5.858 5.08 9.7 5.618 3.426.52 6.918.34 10.36.59a80.35 80.35 0 0 1 17.148 3.2c23.527 7.1 43.318 24.2 55.67 45.047 6.7 11.337 10.742 23.423 13.3 36.212 1.3 6.568 2.56 13.468 6.082 19.283 4.3 7.1 11.627 9.482 19.484 10.52 13.385 1.847 26.38 4.53 38.807 10q4.16 1.785 8.113 3.96v1.542c-11.06-6-23.015-10.203-35.407-12.417zm27.115-2.81l-23.926-11.71c-7.014-3.452-15.248-6.537-19.555-13.4s-5.39-15.37-7.6-23.02a197.82 197.82 0 0 0-9.486-26.092c-3.627-8.183-7.816-16.106-12.537-23.71-4.785-7.68-10.252-14.86-15.672-22.114a206.46 206.46 0 0 1-14.732-21.559c-3.5-6.135-6.97-12.527-4.053-19.607a16.43 16.43 0 0 1 5.609-7.066c3.05-2.188 6.52-3.2 9.225-5.938a17.47 17.47 0 0 0 5.109-10.882c.324-4.682-1.422-9.193-2.62-13.647-1.518-5.605-2.34-13.625 2.885-17.774 2.848-2.25 6.248-1.334 9.525-.84a48.52 48.52 0 0 0 8.58.459c12.936-.324 26.893-4.065 37.416-11.722a33.72 33.72 0 0 0 6.773-6.384 15.24 15.24 0 0 0 3.02-4.967c.656-2.546-.44-4.673-3.312-4.144-3.447.6-6.54 2.923-9.408 4.748-3.4 2.157-6.97 4.03-10.676 5.6a101.09 101.09 0 0 1-22.518 6.594c-3.575.624-7.18 1.062-10.8 1.313-1.33.088-2.69.074-4.057.06-2.24-.097-4.485.032-6.7.385-6.773 1.34-12.31 8.694-11.652 15.546.332 3.5 2.31 6.93 3.352 10.292a36.53 36.53 0 0 1 1.943 10.361c.043 4.538-1.824 7.21-5.316 9.832-3.71 2.748-7.793 5.194-11.443 7.93s-7.656 6-9.318 10.366c-2.014 5.264 1.055 9.574 4.4 13.472 3.732 4.332 7.21 8.878 10.607 13.473 7.355 9.9 14.348 20.062 21.2 30.3q3.688 5.513 7.316 11.066c.813 1.2 2.34 2.84 2.682 4.314.303 1.34-.237 2.727-1.365 3.51-1.076.56-2.363.035-3.334-.472a14.29 14.29 0 0 1-1.111-.652.79.79 0 0 1-.529-.2l-1.383-1.22c-.846-.714-1.655-1.47-2.424-2.267q-2.232-2.16-4.3-4.472c-9.29-10.278-16.21-22.82-27.1-31.6-6.166-4.975-13.158-8.8-19.852-13.018-6-3.78-11.85-7.907-14-14.965a22.51 22.51 0 0 1 2.086-17.97c2.867-4.673 7.715-7.6 12.48-9.854s9.984-4.1 14.168-7.443c5.535-4.424 7.04-10.952 5.994-17.774-.664-4.25-2.086-8.287-3.133-12.436a10.65 10.65 0 0 1 .963-7.937 11 11 0 0 1 6.266-5.045c3.295-1.028 6.46.083 9.77.32 17.086 1.225 31.867-8.764 47.334-14.208 16.037-5.627 32.953-4.288 49.47-6.953 4.82-.762 9.534-2.077 14.05-3.92v1.52l-.275.11c-6.662 2.512-13.643 4.078-20.74 4.65-8.266.88-16.605 1.107-24.857 2.144-8.277 1.096-16.364 3.328-24.03 6.633-7.443 3.142-14.707 6.725-22.426 9.15a49.52 49.52 0 0 1-23.156 1.846 9.34 9.34 0 0 0-8.527 2.687 9.18 9.18 0 0 0-2.307 8.576c1.87 7.42 5.076 15.205 2.78 22.915-3.29 11-15.6 13.39-24.416 18.487-5.162 3-9.07 7.264-10.387 13.184a20 20 0 0 0 5.4 18.9c2.816 2.512 5.89 4.72 9.168 6.6l10.2 6.292a77.08 77.08 0 0 1 16.508 13.472c4.486 5.067 8.36 10.633 12.54 15.99a113.1 113.1 0 0 0 15.244 16.583.68.68 0 0 1 .24.407c1.672 1.1 3.164 1.523 3.7.1.167-.492.22-1.016.154-1.53-.01.245-.586-.844-.72-1.04q-2.754-4.266-5.568-8.5c-6.613-10-13.363-19.91-20.365-29.64-3.666-5.084-7.408-10.134-11.338-15.034-3-3.754-7.145-7.316-8.5-12.042-2.6-9.018 6.926-15.774 13.332-20.167 3.553-2.468 7.543-4.6 10.6-7.648 4.463-4.415 1.947-12.3.285-17.48-1.047-3.247-2.867-6.45-3.207-9.867a15.11 15.11 0 0 1 2.086-8.738 15.57 15.57 0 0 1 14.453-8.406 96.9 96.9 0 0 0 45.432-10.62c2.81-1.492 20.574-14.47 19.62-3.286-.27 3.34-3.1 6.454-5.316 8.756-4.312 4.288-9.425 7.686-15.05 10-10.97 4.818-24 7.49-36 5.968-4.314-.56-8.637-1.833-11.293 2.55-2.057 3.4-2.14 7.7-1.387 11.5 1.52 7.64 5.307 14.965 1.94 22.7a19.96 19.96 0 0 1-6.594 8.134c-2.875 2.074-6.28 3.006-8.816 5.575a14.7 14.7 0 0 0-4.275 10.077c0 4.258 2.2 8.06 4.18 11.7 8.566 15.7 20.95 28.962 30.5 44.053a197.93 197.93 0 0 1 22.059 48.425c2.424 8.073 3.47 17.1 7.648 24.56 4.322 7.823 13.52 11.07 21.19 14.82l30.283 15.053v1.227q-4.147-2.2-8.314-4.284zm-29.758-34.414c-5.97-11.958-5.623-25.628-8.13-38.457-1.242-6.4-3.28-12.615-7.02-18.014a63.95 63.95 0 0 0-11.076-11.687c-7.656-6.612-16.434-12.374-22.473-20.6a29.54 29.54 0 0 1-4.441-27.195c3.523-10.23 11.8-18.054 19.06-25.772a99.82 99.82 0 0 0 11.3-13.722c3.72-5.74 5.977-12.2 9.11-18.26 2.865-5.64 6.52-10.646 11.744-14.343 4.652-3.16 9.84-5.445 15.31-6.747 8.082-2.1 16.434-2.644 24.674-3.82v.952l-6.81.877c-12.422 1.47-26.04 3.317-35.63 12.072-9.84 8.988-12.168 23.143-20.08 33.57-12.256 16.133-37.437 32.734-26.633 56.117 4.29 9.294 13.025 15.656 20.783 21.948 7.93 6.415 15.87 13.306 19.953 22.863 5.154 12.072 4.607 25.545 7.45 38.177 2.572 11.4 8.63 21.068 18.316 27.785 6.96 4.828 14.69 8.1 22.648 10.91v1.09c-15.33-5.444-30.45-12.547-38.053-27.747zm23.373 6.953c-2.918-3.37-5-7.49-7.1-11.4q-3.354-6.124-6.424-12.436-6.09-12.53-10.93-25.58c-1.326-3.583-2.543-8.34 1.2-10.952a4.2 4.2 0 0 1 4.781-.144 13.22 13.22 0 0 1 3.41 4.218c3.938 6.393 6.354 13.586 9.05 20.51s5.8 13.823 11.1 19.222a40.44 40.44 0 0 0 9.588 6.993v1.088a41.28 41.28 0 0 1-12.6-9.954c-4.488-5.535-7.19-12.17-9.713-18.736-2.582-6.74-5.006-13.617-8.975-19.7-.932-1.43-2.137-3.4-4.07-3.4a4.36 4.36 0 0 0-3.824 3.159c-.678 2.126-.04 4.323.723 6.458s1.6 4.28 2.424 6.354q4.954 12.5 11.027 24.464 3.023 5.993 6.34 11.836c2.06 3.636 4.19 7.224 7.43 9.96a34.43 34.43 0 0 0 11.236 5.948v1.023c-5.52-1.876-10.836-4.42-14.67-8.947zm-289.748 2.53c-11.332 0-22.5-2.717-33.314-5.8-18.14-5.185-36.04-12.177-51.65-22.885A109.25 109.25 0 0 1 0 267.638v-1.544c10.9 10.727 24.137 18.938 38.178 25.156a212.5 212.5 0 0 0 26.682 9.6c10.9 3.172 22.236 6.034 33.514 6.218s22.043-2.9 32.576-6.6l15.9-5.68c2.6-.884 5.225-1.733 7.88-2.5a34.55 34.55 0 0 0 6.27-1.978c6.21-3.23 9.242-10.42 7.22-17.122-1.077-3.35-3.342-6.192-6.367-8-4.887-3.024-10.05-5.627-15.135-8.288-14.986-7.815-30.44-16.986-39.31-31.837-4.074-6.808-7.5-16.023-5.934-24.044.793-4.074 3.457-6.528 6.8-8.7 1.986-1.308 4.047-2.634 5.223-4.787 1.07-2.1 1.372-4.51.85-6.808-1.8-9.42-10.848-13.57-15.957-20.823a15.62 15.62 0 0 1-3.051-11.127 17.1 17.1 0 0 1 6.082-10.677c1.725-1.41 3.668-2.385 5.15-4.083 1.456-1.688 2.46-3.718 2.914-5.9.6-2.722-.135-5.37-.445-8.073a46.88 46.88 0 0 1-.369-5.969c.066-7.535 2.52-15.774 10.23-18.653 4.512-1.68 9.4-.893 14.072-1.453a27.32 27.32 0 0 0 8.266-2.372 37.9 37.9 0 0 0 13.061-10.983c8.117-10.24 13.408-22.53 19.61-33.933 5.863-10.795 12.73-22.184 23.52-28.778 16.48-10.08 36.072-3.264 53.7-.525 9.426 1.47 19 1.75 28.1-1.505a42.77 42.77 0 0 0 20.86-15.893h1.572c-3.65 5.67-8.607 10.38-14.453 13.74-7.625 4.34-16.308 6.47-25.076 6.156-10.012-.25-19.635-2.77-29.58-4.468s-20.535-2.6-30.043 1.5c-5.784 2.66-10.887 6.6-14.92 11.525-8.893 10.362-14.432 23.12-20.8 34.935-5.592 10.458-12.006 22.04-22.643 28.262-2.385 1.397-4.958 2.444-7.64 3.107-4.02 1.037-8.1.713-12.213 1.037-4.826.372-9.035 2.385-11.494 6.6-2.223 3.815-2.727 8.353-2.635 12.75s1.664 8.93.758 13.284a15.33 15.33 0 0 1-6.887 9.543c-4.203 2.63-6.915 7.09-7.312 12.033-.254 5.054 2.734 9.307 6.152 12.746 5.807 5.864 13.7 11.64 13.2 20.88-.21 4.02-2.53 6.852-5.78 9.05a25.07 25.07 0 0 0-5.225 3.947c-1.657 2.126-2.518 4.766-2.432 7.46-.18 8.988 4.012 18.128 9.4 25.156a78.09 78.09 0 0 0 19.508 17.389c8.31 5.49 17.322 9.688 25.986 14.5 3.574 2.008 7.316 3.81 9.748 7.19 2.696 3.804 3.556 8.61 2.346 13.114-1.217 4.512-4.372 8.253-8.615 10.213a46.6 46.6 0 0 1-5.977 1.807c-2.645.744-5.266 1.593-7.87 2.477-5.328 1.812-10.592 3.81-15.914 5.667-10.143 3.527-20.568 6.633-31.43 6.633zm-16.416-27.6a118.6 118.6 0 0 1-28.109-3.378c-15.385-3.907-29.937-11.608-41.11-22.885A72.57 72.57 0 0 1 .002 234.698v-3.628c6.385 14.79 17.754 26.8 31.688 34.912 15.465 9.027 33.154 12.746 50.916 12.965 5.172.06 10.344-.144 15.506-.55 4.428-.38 9.4-.32 13.582-2.07a14.84 14.84 0 0 0 8.922-13.153 14.5 14.5 0 0 0-2.086-8.112c-1.777-2.914-4.465-4.625-7.43-6.218-8.025-4.314-15.924-8.436-22.31-15.03-5.4-5.575-9.95-12.5-11.44-20.185-.73-3.627-.64-7.37.27-10.957 1.045-3.986 3.408-7.285 5.5-10.755 2.11-3.167 3.238-6.888 3.238-10.694-.127-3.117-.745-6.194-1.83-9.12-2.213-6.428-5.648-12.344-8.1-18.658-2.04-5.233-3.535-11.17-1.348-16.58 2.9-7.18 11.27-9.2 14.93-15.743 3.387-6.038 3-13.586 3-20.268.02-6.4-.084-13.6 3.43-19.244 4.082-6.55 11.385-7.535 18.535-7.027 6.918.494 13.875 1.53 20.3-1.74 10.2-5.255 15.336-17.174 19.787-27.02 4.96-11 9.4-22.858 17.764-31.894a36.35 36.35 0 0 1 17.867-10.541c8.14-2.135 16.72-2.092 25.076-2.634 2.576-.166 5.176-.394 7.748-.753h8.414c-11.244 3.2-23.623 2.227-35.283 4-7.92 1.2-15.35 4.052-21.135 9.688a57.6 57.6 0 0 0-10.326 14.51c-5.9 11.066-9.78 23.2-16.57 33.793-2.854 4.446-6.346 8.633-10.887 11.45-5.584 3.46-11.8 3.824-18.217 3.308-7.74-.635-16.863-1.855-21.615 5.77-3.535 5.72-3.115 13.08-3.137 19.7s.084 13.857-3.238 19.8c-3.74 6.686-12.686 8.756-15.11 16.312-1.867 5.977.71 12.414 3.133 17.866 2.72 6.113 6.02 12.05 7.7 18.548.835 2.97 1.108 6.07.807 9.14a23.91 23.91 0 0 1-4.127 10.086c-2.363 3.7-4.516 7.355-5.1 11.784a25.47 25.47 0 0 0 1.432 11.731c2.854 8.042 8.77 15.035 15.463 20.22a82.41 82.41 0 0 0 11.652 7.172c3.5 1.9 7.47 3.51 10.344 6.37 8.152 8.117 5 22.683-5.723 26.83-3.92 1.514-8.424 1.553-12.54 1.895-5.15.438-10.334.665-15.506.665zm303.48-30.74c-4.494-9.324-8.506-18.964-10.322-29.242-1.506-8.708-1.715-18.4 2.463-26.46 4.36-8.344 12.992-10.5 19.854-16.094 3.98-3.242 5.758-7.876 3.2-12.654-2.14-4-6.1-6.695-8.252-10.707-4.184-7.793 1.754-14.308 9.066-16.7.44-.143.9-.27 1.365-.382v1.616c-2.88.64-5.527 2.067-7.645 4.122-8.367 8.413 4.73 15.58 7.645 23.126v7.2c-1.9 4.725-7.424 7.854-11.906 10.4-4.23 2.424-8.234 4.984-10.908 9.127-2.475 4.1-3.893 8.753-4.127 13.538-.773 10.156 1.764 20.517 5.37 29.96a165.68 165.68 0 0 0 15.547 30.467c1.89 2.928 3.893 5.8 6.025 8.586v2.5a151.91 151.91 0 0 1-17.372-28.402zM20.262 235.854c-7.207-10.943-10.1-23.41-12.19-36.138-1.855-11.023-3.652-22.023-8.072-32.19v-3.44a67.53 67.53 0 0 1 3.895 9.363c4.48 13.5 5.076 27.873 8.764 41.586a67.06 67.06 0 0 0 17.2 30.218c7.684 7.76 17.238 13.407 27.74 16.4a54 54 0 0 0 15.674 2c4.992-.1 11.39-.494 15.44-3.824 2.268-1.895 3.313-4.91 1.22-7.4-1.814-2.13-4.812-3.41-7.2-4.84-4.664-2.7-9.14-5.71-13.4-9.014-4.29-3.29-7.94-7.34-10.764-11.95-2.822-4.897-4.246-10.474-4.117-16.124.127-6.8 2.1-13.42 3.68-19.96s2.65-13.087 1.754-19.813c-1.58-11.775-7.127-22.705-7.994-34.572-.377-5.2.482-10.5 3.44-14.912 3.217-4.8 8.576-7.443 12.1-11.94 4.377-5.53 3.336-12.786 3.877-19.327a28.85 28.85 0 0 1 4.617-13.866c5.225-7.854 13.77-12.746 21.725-17.48 9.035-5.378 18.055-10.935 23.79-19.992 6.865-10.882 9.145-24.145 8.777-36.8l-.074-1.85h1.623c.844 18.715-3.213 37.77-18.32 50.153-7.75 6.375-16.947 10.633-25.152 16.356a42.08 42.08 0 0 0-10.383 9.731 27.85 27.85 0 0 0-4.945 14.776c-.36 6.28.242 13.1-3.578 18.53-3.365 4.787-8.967 7.42-12.33 12.195-6.984 9.95-2.07 23.1.98 33.556 1.896 5.753 3.178 11.7 3.824 17.713.54 6.808-.9 13.328-2.592 20.044s-3.553 13.573-3.02 20.57c.486 5.914 2.743 11.543 6.477 16.155a56.3 56.3 0 0 0 12.541 11.118c2.31 1.588 4.742 3.12 7.084 4.542s4.992 2.8 7.053 4.3 3.645 3.68 3.4 6.332c-.348 2.245-1.642 4.233-3.553 5.46-4.057 2.967-9.666 3.5-14.56 3.732-.857.044-1.715.06-2.572.06-20.9.005-40.574-12.347-51.86-29.478zm16.814-14.956c-1.61-.652-2.484-2.28-3.137-3.76a34.32 34.32 0 0 1-1.867-5.548c-1.988-7.9-1.693-16.155-2.447-24.228a50.52 50.52 0 0 0-2.381-12.033 73.59 73.59 0 0 0-5.223-10.908c-1.973-3.402-3.658-6.963-5.037-10.646a22.49 22.49 0 0 1-1.234-4.892 5.24 5.24 0 0 1 .254-2.477c.64-1.18 1.74-2.044 3.037-2.385a8.32 8.32 0 0 0 3.93-2.66c.68-.99 1.157-2.108 1.4-3.286.232-.828.366-1.68.4-2.538-.057-.363-.174-.713-.346-1.037-.134-.384-.232-.78-.293-1.18-.48-3 .7-6.572 3.545-8.034a6.54 6.54 0 0 1 8.125 2.148c2.22 3.15 1.54 7.272.494 10.716-.564 1.97-1.285 3.894-1.85 5.863a44.08 44.08 0 0 0-1.273 6.065 56.7 56.7 0 0 0-.271 12.208c.67 8.423 2.748 16.623 4.795 24.87 2.035 8.2 4.074 16.444 4.844 24.875a.47.47 0 0 1 .027.118c.123 1.48.001 2.973-.36 4.415-.486 1.95-1.816 4.538-4.02 4.538-.38-.002-.755-.07-1.1-.205zm-8.182-94.955a5.42 5.42 0 0 0-3.186 3.107 7.38 7.38 0 0 0-.346 4.673 7.34 7.34 0 0 0 .438 1.173 2.03 2.03 0 0 1 0 1.142 16.62 16.62 0 0 1-.363 2.236 8.7 8.7 0 0 1-3.137 5.242c-1.217.747-2.5 1.38-3.834 1.9-1.156.488-1.844 1.688-1.68 2.932a16.2 16.2 0 0 0 .906 4.144c.574 1.842 1.273 3.644 2.092 5.39 1.62 3.448 3.574 6.743 5.328 10.134 1.8 3.363 3.214 6.93 4.18 10.624a68.99 68.99 0 0 1 1.6 11.5c.533 7.745.428 15.682 2.738 23.173.473 1.823 1.203 3.57 2.17 5.185.744 1.107 2.123 2.13 3.44 1.282.995-.813 1.666-1.955 1.89-3.22.385-1.433.517-2.922.39-4.4a.46.46 0 0 1 .074-.306c-.174-1.9-.428-3.79-.72-5.68-1.266-8.086-3.44-15.984-5.352-23.93-1.873-7.74-3.553-15.616-3.742-23.6-.113-3.87.21-7.738.963-11.534.73-3.824 2.31-7.42 3.133-11.236.723-3.23.705-7.544-2.63-9.447a5.4 5.4 0 0 0-2.717-.731c-.554.001-1.104.087-1.63.256zm322.154 86.73a11.69 11.69 0 0 1-2.734-2.074 91.6 91.6 0 0 1-7.316-6.55c-1.967-1.964-3.173-4.563-3.4-7.333-.178-3.037.775-6 1.7-8.852 1.374-4.544 3.23-8.93 5.535-13.08 2.37-4.006 5.423-7.566 9.02-10.52 2.14-1.772 4.5-3.25 6.656-5.015 2.075-1.492 3.57-3.657 4.23-6.126.928-4.384-.932-8.852-.646-13.262.11-2.362.95-4.633 2.4-6.5 1.987-2.35 4.145-4.547 6.457-6.577a128.42 128.42 0 0 1 14.322-11.4c4.874-3.48 10.165-6.335 15.748-8.5q.48-.18.967-.345v1.21c-3.828 1.327-7.497 3.077-10.936 5.22a115.49 115.49 0 0 0-14.324 10.283q-3.565 2.934-6.875 6.156c-1.084 1.054-2.152 2.14-3.2 3.242a13.9 13.9 0 0 0-2.453 3.225c-2.078 4.09-.656 8.764-.285 13.066.278 2.07.06 4.178-.635 6.148-1.076 2.28-2.738 4.232-4.816 5.658-2.123 1.636-4.367 3.107-6.406 4.848-1.77 1.496-3.408 3.143-4.893 4.923a42.9 42.9 0 0 0-6.58 11.4c-.92 2.267-1.725 4.6-2.473 6.922-.924 2.85-1.842 5.872-1.383 8.9.617 4.27 4.244 7 7.316 9.67l3.48 2.993c.928.8 1.807 1.755 3.133 1.755a3.39 3.39 0 0 0 2.5-1.041 3.31 3.31 0 0 0 .91-2.525 13.55 13.55 0 0 0-.555-2.074c-.21-.735-.395-1.47-.557-2.22-.333-1.512-.515-3.052-.543-4.6-.077-2.636.58-5.24 1.895-7.526a17.74 17.74 0 0 1 3.908-4.446c3.154-2.643 6.852-4.516 10.164-6.962s6.166-5.557 6.73-9.7c.64-4.7-1.31-9.434-2.687-13.783s-2.62-9.14-.957-13.6c1.814-4.848 6.27-7.955 10.447-10.747.135-.102.318-.115.465-.03a41.59 41.59 0 0 1 7.473-3.811c2.55-1.007 5.186-1.794 7.828-2.56a37.14 37.14 0 0 0 4.311-1.335v1.033q-1.415.51-2.88.88c-2.748.823-5.518 1.558-8.205 2.595-2.992 1.11-5.845 2.563-8.5 4.332a.45.45 0 0 1-.389.066 44.8 44.8 0 0 0-5.873 4.533 14.17 14.17 0 0 0-4.064 6.559 15.98 15.98 0 0 0 .066 7.163c1 4.81 3.207 9.307 3.906 14.186a15.01 15.01 0 0 1-.437 6.914 13.87 13.87 0 0 1-3.137 5.181c-2.844 3.037-6.52 4.975-10.06 7.338s-7.062 5.19-8.363 9.42a17.57 17.57 0 0 0 .141 9.324c.472 1.315.793 2.678.96 4.065-.003.976-.35 1.92-.98 2.665a4.41 4.41 0 0 1-3.387 1.58c-.597-.002-1.188-.125-1.737-.36zm-351.05-91.24q.93-.488 1.877-.94 8.35-4.58 16.217-9.9c21.674-14.704 40.592-33.107 55.89-54.367 8.1-11.2 15.486-23.15 20.71-35.98a97.27 97.27 0 0 0 5.871-20.246h.945c-1.732 12.646-6.8 24.687-12.982 35.845-6.347 11.393-13.703 22.193-21.982 32.27C50.474 87.872 31.108 104.7 9.3 117.856q-3.958 2.382-8.02 4.573-.647.3-1.28.62zm0-21.763a283.7 283.7 0 0 0 36.34-26.176c14.23-12.042 28.043-25.265 38.488-40.81 6.61-9.836 11.88-21.033 13.564-32.68h.9q-.275 2.33-.766 4.638c-3.54 17.266-14.094 32.616-25.8 45.515a279.52 279.52 0 0 1-41.533 37.04Q10.916 94.71-.01 101.266zm0-25.588q6.22-4.145 12.283-8.526C36.16 48.193 57.514 26.398 70.204 0h1.16C56.37 32.212 29.15 55.75-.003 75.3zm0-20.1q5.142-3.6 10.13-7.413a207.86 207.86 0 0 0 35.662-34.769q4.53-5.723 8.54-11.8h1.795a167.82 167.82 0 0 1-13.145 17.4C31.905 30.2 19.38 41.65 5.66 51.546q-2.8 2.034-5.662 4zm0-15.613q5.836-3.31 11.627-6.7a128 128 0 0 0 20.529-14.426c5.554-5.016 10.335-10.825 14.19-17.24h1.344q-1.45 2.455-3.06 4.826a76.95 76.95 0 0 1-17.445 17.958A193.14 193.14 0 0 1 5.895 36.258q-2.947 1.675-5.9 3.344zm138.576-9.99a3.26 3.26 0 0 1-1.559-1.462c-.25-.472-.082-.774.158-1.23l.752-1.422c.984-1.917 1.926-3.855 2.79-5.824a111.56 111.56 0 0 0 4.66-12.436c.613-1.987 1.164-4 1.668-6.008h1.037c-2.114 9.2-5.412 18.066-9.81 26.407 1.133 1.553 3.287.477 4.576-.5 2.05-1.575 3.313-3.916 4.64-6.073 3.83-6.275 7.024-12.918 9.53-19.83h1.6a113.2 113.2 0 0 1-5.93 13.74 90.35 90.35 0 0 1-6.371 10.694c-.97 1.39-2.24 2.55-3.71 3.39-.772.508-1.676.778-2.6.78a4.73 4.73 0 0 1-1.427-.225zM.002 24.238l.07-.032C12.967 18.373 25.36 11.4 35.597 1.506q.773-.742 1.53-1.5h1.56a85.76 85.76 0 0 1-5.391 5.159c-5.25 4.56-10.928 8.6-16.957 12.063Q8.367 21.72.001 25.457zm0-9.876c6.653-4.304 12.97-9.105 18.9-14.36h1.672A158.94 158.94 0 0 1 0 15.654zm113.97-6.62c-1.104-.445-1.948-1.363-2.3-2.5-.183-.75-.212-1.53-.084-2.293q.138-1.47.264-2.95h1.178l-.23 3.045c-.114.646-.078 1.31.105 1.938.36.892 1.147 1.54 2.092 1.72a3.06 3.06 0 0 0 2.621-.6c1.15-.94 1.137-2.774 1.316-4.144.088-.652.162-1.3.227-1.956h1.336c-.08.74-.172 1.475-.275 2.214a17.9 17.9 0 0 1-.543 3.111 4.16 4.16 0 0 1-2.314 2.463c-.52.22-1.077.334-1.64.333-.606 0-1.204-.13-1.755-.382zM.002 6.998a7.07 7.07 0 0 1 .059-.915A79.78 79.78 0 0 0 9.602.001h1.918Q9.938 1.235 8.32 2.36C5.65 4.212 2.873 5.91.006 7.443z" opacity=".05"/></svg>