<svg xmlns="http://www.w3.org/2000/svg" width="47" height="47" viewBox="0 0 47 47"><g id="Group_500" data-name="Group 500" transform="translate(-1876 -717)"><circle id="Ellipse_52" cx="23.5" cy="23.5" r="23.5" fill="#3f3d56" data-name="Ellipse 52" transform="translate(1876 717)"/><path id="Icon_ionic-ios-call" fill="#f4fc40" d="M25.763,21.654a18.4,18.4,0,0,0-3.843-2.572c-1.152-.553-1.574-.542-2.389.046-.679.49-1.118.947-1.9.776a11.328,11.328,0,0,1-3.815-2.823,11.247,11.247,0,0,1-2.823-3.815c-.165-.787.291-1.22.776-1.9.587-.815.6-1.237.046-2.389A18.035,18.035,0,0,0,9.243,5.133C8.4,4.3,8.216,4.478,7.754,4.643a8.469,8.469,0,0,0-1.363.724A4.111,4.111,0,0,0,4.755,7.1c-.325.7-.7,2.007,1.215,5.417A30.229,30.229,0,0,0,11.284,19.6h0l.006.006.006.006h0a30.347,30.347,0,0,0,7.088,5.315c3.41,1.916,4.716,1.54,5.417,1.215A4.041,4.041,0,0,0,25.529,24.5a8.469,8.469,0,0,0,.724-1.363C26.419,22.68,26.607,22.492,25.763,21.654Z" data-name="Icon ionic-ios-call" transform="translate(1884.51 725.497)"/></g></svg>