<svg xmlns="http://www.w3.org/2000/svg" xmlns:xlink="http://www.w3.org/1999/xlink" width="78" height="78" viewBox="0 0 78 78">
  <defs>
    <filter id="Path_35513" x="0" y="0" width="78" height="78" filterUnits="userSpaceOnUse">
      <feOffset dy="3" input="SourceAlpha"/>
      <feGaussianBlur stdDeviation="3" result="blur"/>
      <feFlood flood-color="#dadde1" flood-opacity="0.498"/>
      <feComposite operator="in" in2="blur"/>
      <feComposite in="SourceGraphic"/>
    </filter>
  </defs>
  <g id="Group_9162" data-name="Group 9162" transform="translate(9 6)">
    <g transform="matrix(1, 0, 0, 1, -9, -6)" filter="url(#Path_35513)">
      <path id="Path_35513-2" data-name="Path 35513" d="M30,0A30,30,0,1,1,0,30,30,30,0,0,1,30,0Z" transform="translate(9 6)" fill="#fff"/>
    </g>
    <g id="fingerprint" transform="translate(18.314 13.918)">
      <path id="Path_35514" data-name="Path 35514" d="M23.519,37.164A11.7,11.7,0,0,1,11.833,25.478V16.686A11.7,11.7,0,0,1,23.519,5h.465A11.234,11.234,0,0,1,35.206,16.221a.643.643,0,1,1-1.287,0,9.946,9.946,0,0,0-9.935-9.935h-.465a10.411,10.411,0,0,0-10.4,10.4v8.792a10.406,10.406,0,0,0,14.329,9.631.643.643,0,1,1,.486,1.191A11.621,11.621,0,0,1,23.519,37.164Zm8.759-4.318a.643.643,0,0,1-.51-1.035,10.3,10.3,0,0,0,2.15-6.333V22.127a.643.643,0,1,1,1.287,0v3.351a11.578,11.578,0,0,1-2.416,7.117A.642.642,0,0,1,32.279,32.846Z" transform="translate(-11.833 -5)" fill="#f8951d"/>
      <path id="Path_35515" data-name="Path 35515" d="M24.946,36.017a.643.643,0,0,1,0-1.287A7.835,7.835,0,0,0,32.773,26.9V18.113a7.827,7.827,0,1,0-15.653,0,.643.643,0,0,1-1.287,0,9.113,9.113,0,1,1,18.226,0V26.9A9.124,9.124,0,0,1,24.946,36.017Zm-7.317-4.2a.643.643,0,0,1-.556-.318,9.111,9.111,0,0,1-1.24-4.593v-4.4a.643.643,0,1,1,1.287,0v4.4a7.82,7.82,0,0,0,1.064,3.944.643.643,0,0,1-.555.968Z" transform="translate(-13.26 -6.427)" fill="#f8951d"/>
      <path id="Path_35516" data-name="Path 35516" d="M26.373,34.871a6.548,6.548,0,0,1-6.54-6.54V19.54a6.509,6.509,0,0,1,1.117-3.657.643.643,0,0,1,1.066.72,5.228,5.228,0,0,0-.9,2.937v8.791a5.254,5.254,0,1,0,10.507,0,.643.643,0,0,1,1.287,0A6.548,6.548,0,0,1,26.373,34.871Zm5.9-9.542a.643.643,0,0,1-.643-.643V19.54a5.259,5.259,0,0,0-5.254-5.254.643.643,0,0,1,0-1.287,6.548,6.548,0,0,1,6.54,6.54v5.146A.643.643,0,0,1,32.27,25.33Z" transform="translate(-14.687 -7.854)" fill="#f8951d"/>
      <path id="Path_35517" data-name="Path 35517" d="M27.8,33.725a3.972,3.972,0,0,1-3.967-3.967V26.569a.643.643,0,1,1,1.287,0v3.189a2.681,2.681,0,1,0,5.361,0,.643.643,0,0,1,1.287,0A3.972,3.972,0,0,1,27.8,33.725Zm3.324-7.317a.643.643,0,0,1-.643-.643v-4.8a2.681,2.681,0,0,0-5.361,0,.643.643,0,0,1-1.287,0,3.967,3.967,0,1,1,7.934,0v4.8A.643.643,0,0,1,31.124,26.408Z" transform="translate(-16.114 -9.281)" fill="#f8951d"/>
    </g>
  </g>
</svg>
