<svg xmlns="http://www.w3.org/2000/svg" width="1920.796" height="1480.055" viewBox="0 0 1920.796 1480.055">
  <g id="Group_9793" data-name="Group 9793" transform="translate(-1435.512 277.807)" opacity="0.3">
    <path id="Path_40963" data-name="Path 40963" d="M1436,35.8c105.2,468.391,792.245,525.552,1100.271,478.169C2930.6,453.3,3147.934,333.585,3356,496" transform="translate(0 438.393)" fill="none" stroke="#f8951d" stroke-width="1" fill-rule="evenodd"/>
    <g id="Group_9792" data-name="Group 9792" transform="translate(1436.002 -241.549)">
      <path id="Path_40964" data-name="Path 40964" d="M1436,20.892C1560.312,475.5,2184.155,598.1,2521.64,546.257c396.624-60.982,613.309-210.163,834.358-52.147" transform="translate(-1436.001 659.066)" fill="none" stroke="#f8951d" stroke-width="1" fill-rule="evenodd"/>
      <path id="Path_40965" data-name="Path 40965" d="M1436,5.981C1579.423,446.8,2140.07,634.843,2507.015,578.544,2905.856,517.255,3121.876,338.491,3356,492.1" transform="translate(-1436.001 638.191)" fill="none" stroke="#f8951d" stroke-width="1" fill-rule="evenodd"/>
      <path id="Path_40966" data-name="Path 40966" d="M1436-8.93C1598.532,418.1,2095.982,671.588,2492.383,610.834c401-61.584,616.341-270.06,863.616-120.869" transform="translate(-1436.001 617.316)" fill="none" stroke="#f8951d" stroke-width="1" fill-rule="evenodd"/>
      <path id="Path_40967" data-name="Path 40967" d="M1436-23.841C1617.643,389.408,2051.9,708.334,2477.757,643.121c403.1-61.872,617.745-300.178,878.242-155.4" transform="translate(-1436.001 596.44)" fill="none" stroke="#f8951d" stroke-width="1" fill-rule="evenodd"/>
      <path id="Path_40968" data-name="Path 40968" d="M1436-38.753c200.75,399.466,571.807,783.83,1027.127,714.166,405.152-62.15,619.095-330.384,892.87-190.034" transform="translate(-1436.001 575.563)" fill="none" stroke="#f8951d" stroke-width="1" fill-rule="evenodd"/>
      <path id="Path_40969" data-name="Path 40969" d="M1436-53.664c219.859,385.68,527.721,835.49,1012.5,761.364,407.167-62.426,620.4-360.677,907.5-224.746" transform="translate(-1436.001 554.688)" fill="none" stroke="#f8951d" stroke-width="1" fill-rule="evenodd"/>
      <path id="Path_40970" data-name="Path 40970" d="M1436-68.576c238.968,371.892,483.633,887.145,997.87,808.565C2843.013,677.3,3055.523,348.949,3356,480.457" transform="translate(-1436.001 533.811)" fill="none" stroke="#f8951d" stroke-width="1" fill-rule="evenodd"/>
      <path id="Path_40971" data-name="Path 40971" d="M1436-83.487c258.079,358.109,439.548,938.8,983.241,855.768C2830.331,709.319,3042.107,350.817,3356,477.895" transform="translate(-1436.001 512.936)" fill="none" stroke="#f8951d" stroke-width="1" fill-rule="evenodd"/>
      <path id="Path_40972" data-name="Path 40972" d="M1436-98.4c277.188,344.326,395.46,990.461,968.613,902.969,413.007-63.218,624.049-451.941,951.385-329.3" transform="translate(-1436.001 492.059)" fill="none" stroke="#f8951d" stroke-width="1" fill-rule="evenodd"/>
      <path id="Path_40973" data-name="Path 40973" d="M1436-113.31c296.3,330.54,351.372,1042.118,953.985,950.167,414.9-63.473,625.2-482.467,966.012-364.25" transform="translate(-1436.001 471.184)" fill="none" stroke="#f8951d" stroke-width="1" fill-rule="evenodd"/>
      <path id="Path_40974" data-name="Path 40974" d="M1436-128.222c315.408,316.757,307.286,1093.773,939.357,997.368C2792.133,805.421,3001.679,356.11,3356,469.894" transform="translate(-1436.001 450.307)" fill="none" stroke="#f8951d" stroke-width="1" fill-rule="evenodd"/>
      <path id="Path_40975" data-name="Path 40975" d="M1436-143.133C1770.518,159.836,1699.2,1002.3,2360.73,901.436c418.627-63.974,627.417-543.646,995.268-434.3" transform="translate(-1436.001 429.431)" fill="none" stroke="#f8951d" stroke-width="1" fill-rule="evenodd"/>
      <path id="Path_40976" data-name="Path 40976" d="M1436-158.044c353.628,289.186,219.113,1197.086,910.1,1091.772C2766.565,869.5,2974.6,359.427,3356,464.35" transform="translate(-1436.001 408.556)" fill="none" stroke="#f8951d" stroke-width="1" fill-rule="evenodd"/>
      <path id="Path_40977" data-name="Path 40977" d="M1436-172.955c372.739,275.4,175.025,1248.744,895.471,1138.97C2753.759,901.546,2961.028,361.043,3356,461.528" transform="translate(-1436.001 387.681)" fill="none" stroke="#f8951d" stroke-width="1" fill-rule="evenodd"/>
      <path id="Path_40978" data-name="Path 40978" d="M1436-187.867c391.85,261.614,130.939,1300.4,880.843,1186.171C2740.938,933.593,2947.437,362.623,3356,458.681" transform="translate(-1436.001 366.804)" fill="none" stroke="#f8951d" stroke-width="1" fill-rule="evenodd"/>
      <path id="Path_40979" data-name="Path 40979" d="M1436-202.778c410.957,247.829,86.853,1352.059,866.217,1233.372C2728.1,965.64,2933.833,364.186,3356,455.8" transform="translate(-1436.001 345.928)" fill="none" stroke="#f8951d" stroke-width="1" fill-rule="evenodd"/>
      <path id="Path_40980" data-name="Path 40980" d="M1436-217.69c430.065,234.046,42.763,1403.714,851.587,1280.57C2715.256,997.691,2920.214,365.719,3356,452.9" transform="translate(-1436.001 325.052)" fill="none" stroke="#f8951d" stroke-width="1" fill-rule="evenodd"/>
      <path id="Path_40981" data-name="Path 40981" d="M1436-232.6c449.177,220.258-1.323,1455.372,836.957,1327.771C2702.4,1029.744,2906.579,367.231,3356,449.978" transform="translate(-1436.001 304.176)" fill="none" stroke="#f8951d" stroke-width="1" fill-rule="evenodd"/>
      <path id="Path_40982" data-name="Path 40982" d="M1436-247.513c468.286,206.474-45.411,1507.029,822.333,1374.972,431.2-65.659,634.6-758.736,1097.664-680.419" transform="translate(-1436.001 283.299)" fill="none" stroke="#f8951d" stroke-width="1" fill-rule="evenodd"/>
      <path id="Path_40983" data-name="Path 40983" d="M1436-262.424c487.4,192.689-89.5,1558.687,807.7,1422.175,432.96-65.9,635.57-789.552,1112.295-715.673" transform="translate(-1436.001 262.424)" fill="none" stroke="#f8951d" stroke-width="1" fill-rule="evenodd"/>
    </g>
    <path id="Path_40984" data-name="Path 40984" d="M1436-277.335c506.508,178.9-133.579,1610.34,793.075,1469.373C2663.782,1125.909,2865.61,371.654,3356,441.1" transform="translate(0 0)" fill="none" stroke="#f8951d" stroke-width="1" fill-rule="evenodd"/>
  </g>
</svg>
