<svg xmlns="http://www.w3.org/2000/svg" xmlns:xlink="http://www.w3.org/1999/xlink" width="256" height="436.198" viewBox="0 0 256 436.198">
  <defs>
    <linearGradient id="linear-gradient" x1="-60.431" y1="13.668" x2="91.887" y2="-19.406" gradientUnits="objectBoundingBox">
      <stop offset="0" stop-color="#f8951d"/>
      <stop offset="1" stop-color="#f8951d"/>
    </linearGradient>
  </defs>
  <g id="Group_10893" data-name="Group 10893" transform="translate(-142 -434.272)">
    <rect id="white-paper-texture" width="256" height="434" rx="30" transform="translate(142 436)" fill="#fff8f0"/>
    <g id="Group_10188" data-name="Group 10188" transform="translate(-99.756 645.462)" opacity="0.2">
      <path id="Path_42108" data-name="Path 42108" d="M374.19-118.111l-3.814-2.2v17.566l3.814-2.2Z" transform="translate(123.566 87.304)" fill="url(#linear-gradient)"/>
      <path id="Path_42109" data-name="Path 42109" d="M374.154-96.932l-3.74-2.16v17.3l3.74-2.16Z" transform="translate(123.602 107.692)" fill="url(#linear-gradient)"/>
      <path id="Path_42110" data-name="Path 42110" d="M373.842-139.047l-3.1-1.791v15.1l3.1-1.792Z" transform="translate(123.914 67.586)" fill="url(#linear-gradient)"/>
      <path id="Path_42111" data-name="Path 42111" d="M372.234-100.866l-17.4-10.047,17.4-10.044Z" transform="translate(108.631 86.686)" fill="url(#linear-gradient)"/>
      <path id="Path_42112" data-name="Path 42112" d="M370.739-99.77l-19.4,11.2v-22.4Z" transform="translate(105.28 96.283)" fill="url(#linear-gradient)"/>
      <path id="Path_42113" data-name="Path 42113" d="M372.234-79.71l-17.4-10.047,17.4-10.047Z" transform="translate(108.631 107.008)" fill="url(#linear-gradient)"/>
      <path id="Path_42114" data-name="Path 42114" d="M373.842-75.583l-3.1-1.791v15.1l3.1-1.791Z" transform="translate(123.914 128.556)" fill="url(#linear-gradient)"/>
      <path id="Path_42115" data-name="Path 42115" d="M373.432-159.946l-2.267-1.309v12.2l2.267-1.309Z" transform="translate(124.324 47.972)" fill="url(#linear-gradient)"/>
      <path id="Path_42116" data-name="Path 42116" d="M370.24-124.619l-14.382-8.3,14.382-8.3Z" transform="translate(109.618 67.217)" fill="url(#linear-gradient)"/>
      <path id="Path_42117" data-name="Path 42117" d="M369.085-121.489l-17.4,10.047v-20.094Z" transform="translate(105.606 76.523)" fill="url(#linear-gradient)"/>
      <path id="Path_42118" data-name="Path 42118" d="M357.879-85.118,334.465-98.634l23.414-13.516Z" transform="translate(89.066 95.147)" fill="url(#linear-gradient)"/>
      <path id="Path_42119" data-name="Path 42119" d="M368.905-79.24l-17.186,9.921V-89.163Z" transform="translate(105.642 117.23)" fill="url(#linear-gradient)"/>
      <path id="Path_42120" data-name="Path 42120" d="M370.4-60.941l-14.626-8.445L370.4-77.833Z" transform="translate(109.538 128.116)" fill="url(#linear-gradient)"/>
      <path id="Path_42121" data-name="Path 42121" d="M373.493-54.211,371.1-55.592V-42.96l2.393-1.381Z" transform="translate(124.262 149.482)" fill="url(#linear-gradient)"/>
      <path id="Path_42122" data-name="Path 42122" d="M372.818-180.718,371.8-181.3v7.865l1.013-.585Z" transform="translate(124.938 28.712)" fill="url(#linear-gradient)"/>
      <path id="Path_42123" data-name="Path 42123" d="M367.771-148.986l-10.642-6.147,10.642-6.144Z" transform="translate(110.839 47.95)" fill="url(#linear-gradient)"/>
      <path id="Path_42124" data-name="Path 42124" d="M365.493-143.868l-13.076,7.55v-15.1Z" transform="translate(106.313 57.425)" fill="url(#linear-gradient)"/>
      <path id="Path_42125" data-name="Path 42125" d="M356.082-108.609l-20.692-11.948,20.692-11.948Z" transform="translate(89.955 75.592)" fill="url(#linear-gradient)"/>
      <path id="Path_42126" data-name="Path 42126" d="M356.69-108.891,332.149-94.719v-28.342Z" transform="translate(86.841 84.665)" fill="url(#linear-gradient)"/>
      <path id="Path_42127" data-name="Path 42127" d="M357.095-87.6,332.066-73.145v-28.906Z" transform="translate(86.761 104.85)" fill="url(#linear-gradient)"/>
      <path id="Path_42128" data-name="Path 42128" d="M356.054-66.343l-20.647-11.92,20.647-11.919Z" transform="translate(89.971 116.253)" fill="url(#linear-gradient)"/>
      <path id="Path_42129" data-name="Path 42129" d="M365.8-59.143l-13.451,7.765V-66.908Z" transform="translate(106.252 138.611)" fill="url(#linear-gradient)"/>
      <path id="Path_42130" data-name="Path 42130" d="M368.217-42.633,356.9-49.168,368.217-55.7Z" transform="translate(110.618 149.376)" fill="url(#linear-gradient)"/>
      <path id="Path_42131" data-name="Path 42131" d="M373.023-32.765l-1.433-.828v9.318l1.433-.827Z" transform="translate(124.732 170.618)" fill="url(#linear-gradient)"/>
      <path id="Path_42132" data-name="Path 42132" d="M364.744-174.088l-6.056-3.5,6.056-3.5Z" transform="translate(112.337 28.926)" fill="url(#linear-gradient)"/>
      <path id="Path_42133" data-name="Path 42133" d="M361.516-166.376l-8.282,4.781v-9.564Z" transform="translate(107.097 38.457)" fill="url(#linear-gradient)"/>
      <path id="Path_42134" data-name="Path 42134" d="M351.77-135.388l-14.156-8.174,14.156-8.172Z" transform="translate(92.091 57.119)" fill="url(#linear-gradient)"/>
      <path id="Path_42135" data-name="Path 42135" d="M351.788-131.716l-18.636,10.76v-21.521Z" transform="translate(87.804 66.012)" fill="url(#linear-gradient)"/>
      <path id="Path_42136" data-name="Path 42136" d="M341.847-92.707,314.966-108.23l26.881-15.52Z" transform="translate(70.334 84.003)" fill="url(#linear-gradient)"/>
      <path id="Path_42137" data-name="Path 42137" d="M342.858-96.785,312.909-79.492v-34.583Z" transform="translate(68.357 93.298)" fill="url(#linear-gradient)"/>
      <path id="Path_42138" data-name="Path 42138" d="M343.278-69.691,314.231-86.462l29.047-16.771Z" transform="translate(69.627 103.714)" fill="url(#linear-gradient)"/>
      <path id="Path_42139" data-name="Path 42139" d="M352.968-67.85,332.911-56.269V-79.431Z" transform="translate(87.573 126.58)" fill="url(#linear-gradient)"/>
      <path id="Path_42140" data-name="Path 42140" d="M352.417-49.928l-15.135-8.738L352.417-67.4Z" transform="translate(91.772 138.134)" fill="url(#linear-gradient)"/>
      <path id="Path_42141" data-name="Path 42141" d="M362.288-39.185l-9.213,5.318v-10.64Z" transform="translate(106.944 160.132)" fill="url(#linear-gradient)"/>
      <path id="Path_42142" data-name="Path 42142" d="M365.717-24.739l-7.529-4.346,7.529-4.348Z" transform="translate(111.857 170.771)" fill="url(#linear-gradient)"/>
      <path id="Path_42143" data-name="Path 42143" d="M361.975-198.849l-1.859-1.075L361.975-201Z" transform="translate(113.708 9.789)" fill="url(#linear-gradient)"/>
      <path id="Path_42144" data-name="Path 42144" d="M357.318-188.962l-3.226,1.862v-3.724Z" transform="translate(107.922 19.565)" fill="url(#linear-gradient)"/>
      <path id="Path_42145" data-name="Path 42145" d="M347.559-162.029l-7.776-4.49,7.776-4.493Z" transform="translate(94.175 38.6)" fill="url(#linear-gradient)"/>
      <path id="Path_42146" data-name="Path 42146" d="M345.27-155.094l-10.784,6.226v-12.449Z" transform="translate(89.087 47.912)" fill="url(#linear-gradient)"/>
      <path id="Path_42147" data-name="Path 42147" d="M336.738-120.522,317.6-131.574l19.139-11.051Z" transform="translate(72.863 65.87)" fill="url(#linear-gradient)"/>
      <path id="Path_42148" data-name="Path 42148" d="M337.434-119.789l-23.414,13.517v-27.033Z" transform="translate(69.424 74.823)" fill="url(#linear-gradient)"/>
      <path id="Path_42149" data-name="Path 42149" d="M325.369-79.734,295.7-96.865l29.671-17.128Z" transform="translate(51.822 93.377)" fill="url(#linear-gradient)"/>
      <path id="Path_42150" data-name="Path 42150" d="M342.016-75.918,313.082-59.213V-92.621Z" transform="translate(68.523 113.909)" fill="url(#linear-gradient)"/>
      <path id="Path_42151" data-name="Path 42151" d="M340.188-52.565,315.822-66.632,340.188-80.7Z" transform="translate(71.156 125.362)" fill="url(#linear-gradient)"/>
      <path id="Path_42152" data-name="Path 42152" d="M347.663-48.5,334-40.615v-15.78Z" transform="translate(88.616 148.711)" fill="url(#linear-gradient)"/>
      <path id="Path_42153" data-name="Path 42153" d="M348.7-33.625l-9.5-5.481,9.5-5.484Z" transform="translate(93.613 160.053)" fill="url(#linear-gradient)"/>
      <path id="Path_42154" data-name="Path 42154" d="M358.97-19.162l-5.216,3.011v-6.024Z" transform="translate(107.597 181.586)" fill="url(#linear-gradient)"/>
      <path id="Path_42155" data-name="Path 42155" d="M362.994-7.133,359.59-9.1l3.4-1.967Z" transform="translate(113.203 192.261)" fill="url(#linear-gradient)"/>
      <path id="Path_42156" data-name="Path 42156" d="M355.091-210.875l-.543.312v-.627Z" transform="translate(108.36 0)" fill="url(#linear-gradient)"/>
      <path id="Path_42157" data-name="Path 42157" d="M344.08-187.72l-2.5-1.445,2.5-1.448Z" transform="translate(95.897 19.768)" fill="url(#linear-gradient)"/>
      <path id="Path_42158" data-name="Path 42158" d="M339.981-178.049l-4.411,2.544v-5.09Z" transform="translate(90.128 29.391)" fill="url(#linear-gradient)"/>
      <path id="Path_42159" data-name="Path 42159" d="M330.6-149.681l-9.835-5.681,9.835-5.678Z" transform="translate(75.903 48.179)" fill="url(#linear-gradient)"/>
      <path id="Path_42160" data-name="Path 42160" d="M329.388-143.686l-13.721,7.923v-15.843Z" transform="translate(71.007 57.242)" fill="url(#linear-gradient)"/>
      <path id="Path_42161" data-name="Path 42161" d="M320.33-107.456,298.3-120.178,320.33-132.9Z" transform="translate(54.318 75.213)" fill="url(#linear-gradient)"/>
      <path id="Path_42162" data-name="Path 42162" d="M320.53-108.728,295.409-94.223v-29.008Z" transform="translate(51.545 84.502)" fill="url(#linear-gradient)"/>
      <path id="Path_42163" data-name="Path 42163" d="M325.276-85.956l-30.838,17.8V-103.76Z" transform="translate(50.612 103.207)" fill="url(#linear-gradient)"/>
      <path id="Path_42164" data-name="Path 42164" d="M326.064-57.676,295.341-75.412l30.723-17.736Z" transform="translate(51.479 113.402)" fill="url(#linear-gradient)"/>
      <path id="Path_42165" data-name="Path 42165" d="M336.711-56.57,314.168-43.554V-69.586Z" transform="translate(69.566 136.039)" fill="url(#linear-gradient)"/>
      <path id="Path_42166" data-name="Path 42166" d="M335.074-38.078l-16.616-9.593,16.616-9.591Z" transform="translate(73.687 147.878)" fill="url(#linear-gradient)"/>
      <path id="Path_42167" data-name="Path 42167" d="M342.4-29.143l-7.327,4.23v-8.46Z" transform="translate(89.652 170.828)" fill="url(#linear-gradient)"/>
      <path id="Path_42168" data-name="Path 42168" d="M345.413-16.745l-4.524-2.612,4.524-2.615Z" transform="translate(95.238 181.782)" fill="url(#linear-gradient)"/>
      <path id="Path_42169" data-name="Path 42169" d="M355.777.9l-1.369.787V.114Z" transform="translate(108.225 202.999)" fill="url(#linear-gradient)"/>
      <path id="Path_42170" data-name="Path 42170" d="M361.168,11.642l-.637-.37.637-.367Z" transform="translate(114.108 213.367)" fill="url(#linear-gradient)"/>
      <path id="Path_42171" data-name="Path 42171" d="M336.99-200.223l-.808.467v-.933Z" transform="translate(90.716 10.087)" fill="url(#linear-gradient)"/>
      <path id="Path_42172" data-name="Path 42172" d="M326.383-176.33l-3.449-1.99,3.449-1.993Z" transform="translate(77.988 29.663)" fill="url(#linear-gradient)"/>
      <path id="Path_42173" data-name="Path 42173" d="M322.662-167.129l-5.617,3.244v-6.491Z" transform="translate(72.33 39.21)" fill="url(#linear-gradient)"/>
      <path id="Path_42174" data-name="Path 42174" d="M313.463-137.56l-11.631-6.716,11.631-6.714Z" transform="translate(57.715 57.833)" fill="url(#linear-gradient)"/>
      <path id="Path_42175" data-name="Path 42175" d="M312.194-132.724l-15.077,8.707v-17.411Z" transform="translate(53.186 67.02)" fill="url(#linear-gradient)"/>
      <path id="Path_42176" data-name="Path 42176" d="M301.125-98.032l-20.7-11.948,20.7-11.948Z" transform="translate(37.153 85.753)" fill="url(#linear-gradient)"/>
      <path id="Path_42177" data-name="Path 42177" d="M299.805-98.969,277.582-86.137V-111.8Z" transform="translate(34.418 95.482)" fill="url(#linear-gradient)"/>
      <path id="Path_42178" data-name="Path 42178" d="M306.17-70.3,277.831-86.662l28.339-16.362Z" transform="translate(34.657 103.914)" fill="url(#linear-gradient)"/>
      <path id="Path_42179" data-name="Path 42179" d="M324.124-65.193l-29.451,17V-82.2Z" transform="translate(50.838 123.923)" fill="url(#linear-gradient)"/>
      <path id="Path_42180" data-name="Path 42180" d="M322.347-41.362,297.255-55.849l25.092-14.487Z" transform="translate(53.318 135.318)" fill="url(#linear-gradient)"/>
      <path id="Path_42181" data-name="Path 42181" d="M329.036-38.033l-13.3,7.673V-45.707Z" transform="translate(71.076 158.98)" fill="url(#linear-gradient)"/>
      <path id="Path_42182" data-name="Path 42182" d="M329.654-23.985l-8.405-4.852,8.405-4.854Z" transform="translate(76.369 170.523)" fill="url(#linear-gradient)"/>
      <path id="Path_42183" data-name="Path 42183" d="M338.218-9.413l-2.287,1.319v-2.641Z" transform="translate(90.474 192.577)" fill="url(#linear-gradient)"/>
      <path id="Path_42184" data-name="Path 42184" d="M343.036,1.31l-.923-.532.923-.533Z" transform="translate(96.414 203.125)" fill="url(#linear-gradient)"/>
      <path id="Path_42185" data-name="Path 42185" d="M319.1-189.5l-1.322.763v-1.526Z" transform="translate(73.032 20.104)" fill="url(#linear-gradient)"/>
      <path id="Path_42186" data-name="Path 42186" d="M308.5-165.174l-4.12-2.379,4.12-2.381Z" transform="translate(60.168 39.634)" fill="url(#linear-gradient)"/>
      <path id="Path_42187" data-name="Path 42187" d="M304.6-156.468l-5.924,3.423v-6.842Z" transform="translate(54.68 49.286)" fill="url(#linear-gradient)"/>
      <path id="Path_42188" data-name="Path 42188" d="M294.749-127.495l-11.036-6.373,11.036-6.37Z" transform="translate(40.309 68.163)" fill="url(#linear-gradient)"/>
      <path id="Path_42189" data-name="Path 42189" d="M292.212-122.713l-13.076,7.55v-15.1Z" transform="translate(35.912 77.748)" fill="url(#linear-gradient)"/>
      <path id="Path_42190" data-name="Path 42190" d="M280.314-90.7l-16.92-9.769,16.92-9.766Z" transform="translate(20.787 96.984)" fill="url(#linear-gradient)"/>
      <path id="Path_42191" data-name="Path 42191" d="M304.893-76.083l-28.355,16.37V-92.45Z" transform="translate(33.416 114.073)" fill="url(#linear-gradient)"/>
      <path id="Path_42192" data-name="Path 42192" d="M307.11-47.919,277.347-65.1,307.11-82.29Z" transform="translate(34.192 123.834)" fill="url(#linear-gradient)"/>
      <path id="Path_42193" data-name="Path 42193" d="M317.764-46.206l-21.788,12.58V-58.786Z" transform="translate(52.089 146.414)" fill="url(#linear-gradient)"/>
      <path id="Path_42194" data-name="Path 42194" d="M315.836-28.695l-15.227-8.791,15.227-8.791Z" transform="translate(56.541 158.432)" fill="url(#linear-gradient)"/>
      <path id="Path_42195" data-name="Path 42195" d="M322.257-19.187l-5.13,2.958v-5.919Z" transform="translate(72.41 181.612)" fill="url(#linear-gradient)"/>
      <path id="Path_42196" data-name="Path 42196" d="M325.58-8.142,323.349-9.43l2.232-1.288Z" transform="translate(78.387 192.593)" fill="url(#linear-gradient)"/>
      <path id="Path_42197" data-name="Path 42197" d="M306.32-189.177l-.808-.467.808-.469Z" transform="translate(61.251 20.248)" fill="url(#linear-gradient)"/>
      <path id="Path_42198" data-name="Path 42198" d="M300.9-178.881l-1.469.847v-1.7Z" transform="translate(55.407 30.223)" fill="url(#linear-gradient)"/>
      <path id="Path_42199" data-name="Path 42199" d="M289.9-154.98l-3.682-2.124,3.682-2.121Z" transform="translate(42.712 49.922)" fill="url(#linear-gradient)"/>
      <path id="Path_42200" data-name="Path 42200" d="M285.565-146.133l-5.067,2.924v-5.848Z" transform="translate(37.22 59.69)" fill="url(#linear-gradient)"/>
      <path id="Path_42201" data-name="Path 42201" d="M274.8-119.032l-8.573-4.954,8.573-4.951Z" transform="translate(23.514 79.02)" fill="url(#linear-gradient)"/>
      <path id="Path_42202" data-name="Path 42202" d="M271.559-112.931,261.295-107v-11.851Z" transform="translate(18.771 88.705)" fill="url(#linear-gradient)"/>
      <path id="Path_42203" data-name="Path 42203" d="M278.739-89.327,259.825-78.4V-100.25Z" transform="translate(17.359 106.579)" fill="url(#linear-gradient)"/>
      <path id="Path_42204" data-name="Path 42204" d="M285.3-63.052,260.825-77.18,285.3-91.308Z" transform="translate(18.32 115.171)" fill="url(#linear-gradient)"/>
      <path id="Path_42205" data-name="Path 42205" d="M303.841-55.285,276.755-39.647V-70.923Z" transform="translate(33.624 134.754)" fill="url(#linear-gradient)"/>
      <path id="Path_42206" data-name="Path 42206" d="M302.732-32.473,279.6-45.827l23.131-13.354Z" transform="translate(36.359 146.035)" fill="url(#linear-gradient)"/>
      <path id="Path_42207" data-name="Path 42207" d="M308.52-28.2l-10.65,6.15v-12.3Z" transform="translate(53.909 169.888)" fill="url(#linear-gradient)"/>
      <path id="Path_42208" data-name="Path 42208" d="M309.436-15.887l-5.528-3.189,5.528-3.189Z" transform="translate(59.709 181.5)" fill="url(#linear-gradient)"/>
      <path id="Path_42209" data-name="Path 42209" d="M318.507.69l-.611.349v-.7Z" transform="translate(73.148 203.213)" fill="url(#linear-gradient)"/>
      <path id="Path_42210" data-name="Path 42210" d="M299.78-200.417l-.121.068v-.139Z" transform="translate(55.628 10.281)" fill="url(#linear-gradient)"/>
      <path id="Path_42211" data-name="Path 42211" d="M287.9-178.737l-.653-.375.653-.377Z" transform="translate(43.701 30.454)" fill="url(#linear-gradient)"/>
      <path id="Path_42212" data-name="Path 42212" d="M282.286-168.4l-1.117.642v-1.288Z" transform="translate(37.865 40.485)" fill="url(#linear-gradient)"/>
      <path id="Path_42213" data-name="Path 42213" d="M270.928-145.242l-2.7-1.561,2.7-1.558Z" transform="translate(25.431 60.36)" fill="url(#linear-gradient)"/>
      <path id="Path_42214" data-name="Path 42214" d="M266.091-135.948l-3.677,2.124v-4.249Z" transform="translate(19.847 70.244)" fill="url(#linear-gradient)"/>
      <path id="Path_42215" data-name="Path 42215" d="M255.322-109.973l-6.813-3.934,6.813-3.934Z" transform="translate(6.488 89.68)" fill="url(#linear-gradient)"/>
      <path id="Path_42216" data-name="Path 42216" d="M252.319-102.666l-9.158,5.287v-10.574Z" transform="translate(1.351 99.179)" fill="url(#linear-gradient)"/>
      <path id="Path_42217" data-name="Path 42217" d="M260.928-81.511l-15.305-8.838,15.305-8.838Z" transform="translate(3.715 107.601)" fill="url(#linear-gradient)"/>
      <path id="Path_42218" data-name="Path 42218" d="M283.03-66.712l-24.086,13.9V-80.616Z" transform="translate(16.513 125.442)" fill="url(#linear-gradient)"/>
      <path id="Path_42219" data-name="Path 42219" d="M285.353-41.822,260.8-56l24.557-14.18Z" transform="translate(18.292 135.468)" fill="url(#linear-gradient)"/>
      <path id="Path_42220" data-name="Path 42220" d="M295.77-36.881,278.408-26.858V-46.9Z" transform="translate(35.212 157.828)" fill="url(#linear-gradient)"/>
      <path id="Path_42221" data-name="Path 42221" d="M294.907-21.517l-11.274-6.509,11.274-6.509Z" transform="translate(40.232 169.712)" fill="url(#linear-gradient)"/>
      <path id="Path_42222" data-name="Path 42222" d="M301.648-9.39l-2.371,1.366v-2.735Z" transform="translate(55.261 192.554)" fill="url(#linear-gradient)"/>
      <path id="Path_42223" data-name="Path 42223" d="M306.146.987,305.6.672l.545-.317Z" transform="translate(61.336 203.231)" fill="url(#linear-gradient)"/>
      <path id="Path_42224" data-name="Path 42224" d="M287.477-200.438l-.016-.008.016-.011Z" transform="translate(43.909 10.311)" fill="url(#linear-gradient)"/>
      <path id="Path_42225" data-name="Path 42225" d="M281.412-189.856l-.063.036v-.073Z" transform="translate(38.037 20.459)" fill="url(#linear-gradient)"/>
      <path id="Path_42226" data-name="Path 42226" d="M269.42-168.363l-.414-.238.414-.241Z" transform="translate(26.179 40.683)" fill="url(#linear-gradient)"/>
      <path id="Path_42227" data-name="Path 42227" d="M263.662-157.932l-.75.436v-.868Z" transform="translate(20.325 50.749)" fill="url(#linear-gradient)"/>
      <path id="Path_42228" data-name="Path 42228" d="M251.948-135.523l-1.7-.983,1.7-.984Z" transform="translate(8.157 70.803)" fill="url(#linear-gradient)"/>
      <path id="Path_42229" data-name="Path 42229" d="M247.048-125.619,244.242-124v-3.236Z" transform="translate(2.389 80.653)" fill="url(#linear-gradient)"/>
      <path id="Path_42230" data-name="Path 42230" d="M259.185-79.172,241.756-69.109V-89.234Z" transform="translate(0 117.162)" fill="url(#linear-gradient)"/>
      <path id="Path_42231" data-name="Path 42231" d="M264.389-55.847l-20.55-11.864,20.55-11.864Z" transform="translate(2.001 126.441)" fill="url(#linear-gradient)"/>
      <path id="Path_42232" data-name="Path 42232" d="M279.094-46.9,259.75-35.731V-58.067Z" transform="translate(17.287 147.105)" fill="url(#linear-gradient)"/>
      <path id="Path_42233" data-name="Path 42233" d="M279.423-28.4l-15.573-8.99,15.573-8.993Z" transform="translate(21.227 158.333)" fill="url(#linear-gradient)"/>
      <path id="Path_42234" data-name="Path 42234" d="M286.3-18.955l-5.951,3.433V-22.39Z" transform="translate(37.076 181.379)" fill="url(#linear-gradient)"/>
      <path id="Path_42235" data-name="Path 42235" d="M289.042-8.008l-2.387-1.377,2.387-1.379Z" transform="translate(43.136 192.549)" fill="url(#linear-gradient)"/>
      <path id="Path_42236" data-name="Path 42236" d="M299.689,11.1l-.011.008V11.09Z" transform="translate(55.646 213.544)" fill="url(#linear-gradient)"/>
      <path id="Path_42237" data-name="Path 42237" d="M269.147-189.873h0l0,0Z" transform="translate(26.313 20.476)" fill="url(#linear-gradient)"/>
      <path id="Path_42238" data-name="Path 42238" d="M263.068-179.287l-.034.018v-.039Z" transform="translate(20.442 30.629)" fill="url(#linear-gradient)"/>
      <path id="Path_42239" data-name="Path 42239" d="M250.94-157.992l-.173-.1.173-.1Z" transform="translate(8.657 50.912)" fill="url(#linear-gradient)"/>
      <path id="Path_42240" data-name="Path 42240" d="M244.993-147.472l-.33.194v-.386Z" transform="translate(2.792 61.029)" fill="url(#linear-gradient)"/>
      <path id="Path_42241" data-name="Path 42241" d="M258.894-58.116l-17.078,9.861V-67.977Z" transform="translate(0.058 137.585)" fill="url(#linear-gradient)"/>
      <path id="Path_42242" data-name="Path 42242" d="M261.078-39.006l-15.536-8.969,15.536-8.969Z" transform="translate(3.638 148.183)" fill="url(#linear-gradient)"/>
      <path id="Path_42243" data-name="Path 42243" d="M270.224-28.766l-8.657,5v-9.994Z" transform="translate(19.033 170.452)" fill="url(#linear-gradient)"/>
      <path id="Path_42244" data-name="Path 42244" d="M272.4-16.395l-4.933-2.848,4.933-2.848Z" transform="translate(24.703 181.667)" fill="url(#linear-gradient)"/>
      <path id="Path_42245" data-name="Path 42245" d="M281.777.659l-.5.291V.368Z" transform="translate(37.965 203.243)" fill="url(#linear-gradient)"/>
      <path id="Path_42246" data-name="Path 42246" d="M287.469,11.095l-.005,0h.005Z" transform="translate(43.912 213.547)" fill="url(#linear-gradient)"/>
      <path id="Path_42247" data-name="Path 42247" d="M244.721-168.718h0v0Z" transform="translate(2.846 40.799)" fill="url(#linear-gradient)"/>
      <path id="Path_42248" data-name="Path 42248" d="M252.09-39.281l-8.88,5.124V-44.408Z" transform="translate(1.397 160.227)" fill="url(#linear-gradient)"/>
      <path id="Path_42249" data-name="Path 42249" d="M254.781-26.061l-5.992-3.459,5.992-3.459Z" transform="translate(6.757 171.206)" fill="url(#linear-gradient)"/>
      <path id="Path_42250" data-name="Path 42250" d="M264.23-9.655l-1.434.826v-1.655Z" transform="translate(20.213 192.818)" fill="url(#linear-gradient)"/>
      <path id="Path_42251" data-name="Path 42251" d="M269.359.794l-.323-.186.323-.186Z" transform="translate(26.209 203.295)" fill="url(#linear-gradient)"/>
      <path id="Path_42252" data-name="Path 42252" d="M246.215-20.127l-1.8,1.041v-2.085Z" transform="translate(2.553 182.551)" fill="url(#linear-gradient)"/>
      <path id="Path_42253" data-name="Path 42253" d="M251.288-9.458l-.7-.4.7-.406Z" transform="translate(8.485 193.025)" fill="url(#linear-gradient)"/>
      <path id="Path_42254" data-name="Path 42254" d="M244.723.519l-.005,0V.514Z" transform="translate(2.846 203.383)" fill="url(#linear-gradient)"/>
    </g>
  </g>
</svg>
