<svg xmlns="http://www.w3.org/2000/svg" xmlns:xlink="http://www.w3.org/1999/xlink" width="78" height="78" viewBox="0 0 78 78">
  <defs>
    <filter id="Path_35513" x="0" y="0" width="78" height="78" filterUnits="userSpaceOnUse">
      <feOffset dy="3" input="SourceAlpha"/>
      <feGaussianBlur stdDeviation="3" result="blur"/>
      <feFlood flood-color="#dadde1" flood-opacity="0.498"/>
      <feComposite operator="in" in2="blur"/>
      <feComposite in="SourceGraphic"/>
    </filter>
  </defs>
  <g id="Group_9159" data-name="Group 9159" transform="translate(-20238 5408)">
    <g transform="matrix(1, 0, 0, 1, 20238, -5408)" filter="url(#Path_35513)">
      <path id="Path_35513-2" data-name="Path 35513" d="M30,0A30,30,0,1,1,0,30,30,30,0,0,1,30,0Z" transform="translate(9 6)" fill="#fff"/>
    </g>
    <path id="Icon_awesome-file-signature" data-name="Icon awesome-file-signature" d="M12.163,23.645a.618.618,0,0,0-.567-.363.608.608,0,0,0-.559.345l-.428.855a.892.892,0,0,1-1.643-.117l-.938-2.814-.591,1.777a2.407,2.407,0,0,1-2.286,1.646H4.46a.892.892,0,0,1,0-1.784h.691a.625.625,0,0,0,.593-.427l1.014-3.046a1.338,1.338,0,0,1,2.539,0l.774,2.321a2.5,2.5,0,0,1,3.679.789.633.633,0,0,0,.522.349V18.6l7.136-7.085V8.92H13.826a1.342,1.342,0,0,1-1.338-1.338V0H1.338A1.335,1.335,0,0,0,0,1.338V27.205a1.335,1.335,0,0,0,1.338,1.338H20.069a1.335,1.335,0,0,0,1.338-1.338v-2.23l-7.136-.006A2.394,2.394,0,0,1,12.163,23.645ZM21.407,6.8a1.334,1.334,0,0,0-.39-.942L15.559.39A1.337,1.337,0,0,0,14.612,0h-.34V7.136h7.136ZM16.056,19.343v3.849H19.9l9.013-9.075-3.784-3.784ZM31.7,9.328,29.919,7.552a1.42,1.42,0,0,0-2.008,0L26.392,9.071l3.784,3.784L31.7,11.336A1.419,1.419,0,0,0,31.7,9.328Z" transform="translate(20265 -5386)" fill="#f8951d"/>
  </g>
</svg>
