<svg xmlns="http://www.w3.org/2000/svg" xmlns:xlink="http://www.w3.org/1999/xlink" width="78" height="78" viewBox="0 0 78 78">
  <defs>
    <filter id="Path_35513" x="0" y="0" width="78" height="78" filterUnits="userSpaceOnUse">
      <feOffset dy="3" input="SourceAlpha"/>
      <feGaussianBlur stdDeviation="3" result="blur"/>
      <feFlood flood-color="#dadde1" flood-opacity="0.498"/>
      <feComposite operator="in" in2="blur"/>
      <feComposite in="SourceGraphic"/>
    </filter>
  </defs>
  <g id="Group_9809" data-name="Group 9809" transform="translate(-2207 -628)">
    <g transform="matrix(1, 0, 0, 1, 2207, 628)" filter="url(#Path_35513)">
      <path id="Path_35513-2" data-name="Path 35513" d="M30,0A30,30,0,1,1,0,30,30,30,0,0,1,30,0Z" transform="translate(9 6)" fill="#fff"/>
    </g>
    <path id="forms" d="M8.543,3A2.55,2.55,0,0,0,6,5.543V33.515a2.55,2.55,0,0,0,2.543,2.543H28.886a2.55,2.55,0,0,0,2.543-2.543V9.993s0-.007,0-.01,0-.007,0-.01,0-.03,0-.045l0-.019a.636.636,0,0,0-.248-.432l-6.211-6.21-.01-.013A.636.636,0,0,0,24.436,3Zm0,1.271H23.8V8.086a2.55,2.55,0,0,0,2.543,2.543h3.814V33.515a1.254,1.254,0,0,1-1.271,1.271H8.543a1.254,1.254,0,0,1-1.271-1.271V5.543A1.254,1.254,0,0,1,8.543,4.271Zm16.529.9,4.187,4.187H26.344a1.254,1.254,0,0,1-1.271-1.271ZM11.667,16.986a.668.668,0,1,0,.064,0A.637.637,0,0,0,11.667,16.986Zm2.543,0a.637.637,0,1,0,.064,1.271H25.708a.636.636,0,0,0,0-1.271H14.275a.635.635,0,0,0-.065,0Zm-2.543,2.543a.668.668,0,1,0,.064,0A.637.637,0,0,0,11.667,19.529Zm2.543,0a.637.637,0,0,0,.064,1.271H25.708a.636.636,0,0,0,0-1.271H14.275a.637.637,0,0,0-.065,0Zm-2.543,2.543a.668.668,0,1,0,.064,0Q11.7,22.07,11.667,22.072Zm2.543,0a.637.637,0,0,0,.064,1.271H25.708a.636.636,0,0,0,0-1.271H14.275a.635.635,0,0,0-.065,0Z" transform="translate(2227 644)" fill="#f8951d"/>
  </g>
</svg>
