<svg xmlns="http://www.w3.org/2000/svg" xmlns:xlink="http://www.w3.org/1999/xlink" width="650" height="817" viewBox="0 0 650 817">
  <defs>
    <clipPath id="clip-path">
      <path id="Rectangle_5775" data-name="Rectangle 5775" d="M0,0H650a0,0,0,0,1,0,0V817a0,0,0,0,1,0,0H470A470,470,0,0,1,0,347V0A0,0,0,0,1,0,0Z" transform="translate(21869 -7986)" fill="#f8951d"/>
    </clipPath>
  </defs>
  <g id="Group_10900" data-name="Group 10900" transform="translate(-1270 -105)">
    <path id="Rectangle_5683" data-name="Rectangle 5683" d="M0,0H650a0,0,0,0,1,0,0V817a0,0,0,0,1,0,0H470A470,470,0,0,1,0,347V0A0,0,0,0,1,0,0Z" transform="translate(1270 105)" fill="#f8951d" opacity="0.2"/>
    <g id="Mask_Group_5784" data-name="Mask Group 5784" transform="translate(-20599 8091)" clip-path="url(#clip-path)">
      <path id="Path_35807" data-name="Path 35807" d="M525.519,489.7q-4.007,2.32-8.018,4.63,8.635-4.007,17.251-8.053-4.613,1.716-9.233,3.423m-21.642,11.183q-3.746,2.615-7.494,5.218,8.123-4.6,16.229-9.247Q508.245,498.869,503.877,500.883Zm9.769-6.828q-4.32,3.029-8.643,6.042,5.017-2.3,10.025-4.626,4.572-2.625,9.137-5.268Q518.912,492.139,513.646,494.055Zm-29.928,19.463q-3.523,2.947-7.045,5.881,7.608-5.21,15.2-10.472Q487.8,511.228,483.718,513.518Zm8.982-7.546q-3.992,3.361-7.986,6.712,4.68-2.624,9.346-5.271,4.287-2.973,8.573-5.958Q497.672,503.726,492.7,505.972Zm8.969-7.562q-4.139,3.5-8.278,6.981,5.184-2.355,10.361-4.718,4.509-3.146,9.015-6.3Q507.221,496.4,501.669,498.41Zm-36.733,29.278q-3.245,3.257-6.491,6.5,7.065-5.814,14.12-11.679Q468.755,525.111,464.936,527.688Zm8.251-8.29q-3.673,3.7-7.344,7.381,4.353-2.954,8.7-5.921,4.017-3.343,8.029-6.7Q477.882,516.783,473.187,519.4Zm8.284-8.356q-3.835,3.877-7.668,7.734,4.892-2.717,9.776-5.458,4.15-3.476,8.3-6.973Q486.679,508.7,481.471,511.042Zm8.247-8.355q-3.892,3.946-7.777,7.878,5.319-2.388,10.629-4.8,4.223-3.553,8.447-7.122Q495.374,500.678,489.718,502.687Zm-42.113,40.7q-2.952,3.546-5.9,7.077,6.51-6.42,13.014-12.9Q451.16,540.476,447.6,543.384Zm7.541-9.088q-3.363,4.061-6.726,8.11,4.041-3.295,8.076-6.619,3.689-3.68,7.378-7.379Q459.513,531.363,455.146,534.3Zm7.528-9.1q-3.492,4.227-6.981,8.442,4.547-3.057,9.088-6.138,3.82-3.831,7.639-7.674Q467.552,522.526,462.674,525.2Zm7.508-9.1q-3.546,4.3-7.089,8.594,4.975-2.735,9.943-5.483,3.909-3.938,7.821-7.888C477.3,512.912,473.745,514.513,470.182,516.093Zm7.551-9.173q-3.605,4.384-7.2,8.752,5.406-2.4,10.8-4.833,3.929-3.971,7.861-7.963Q483.468,504.913,477.733,506.92Zm-45.965,53.627q-2.673,3.867-5.346,7.718,5.935-7.016,11.862-14.089Q435.028,557.375,431.768,560.547Zm6.784-9.826q-3.031,4.4-6.059,8.778,3.708-3.624,7.413-7.266,3.362-4.019,6.723-8.057Q442.593,547.463,438.551,550.722Zm6.771-9.845q-3.146,4.578-6.285,9.139,4.2-3.393,8.4-6.8,3.5-4.206,7-8.438Q449.88,537.831,445.322,540.877Zm6.8-9.914q-3.216,4.695-6.428,9.376,4.651-3.094,9.292-6.225,3.556-4.293,7.114-8.6Q457.112,528.25,452.118,530.963Zm6.789-9.914q-3.247,4.742-6.488,9.475,5.052-2.748,10.1-5.519,3.586-4.341,7.173-8.695Q464.306,518.7,458.907,521.05Zm4.269-6.238-4.01,5.859q5.435-2.382,10.864-4.776,3.628-4.4,7.261-8.819-5.794,2.033-11.593,4.05Zm-9.527.447q-2.939,5.187-5.864,10.365,5.485-2.371,10.961-4.769l4.229-6.179,2.34-3.418Q459.489,513.273,453.649,515.259Zm-36.263,64.013q-2.362,4.142-4.724,8.272,5.339-7.591,10.67-15.261Q420.359,575.783,417.386,579.272Zm6.042-10.612q-2.7,4.754-5.4,9.491,3.381-3.962,6.757-7.954,3.039-4.37,6.078-8.761Q427.146,565.06,423.428,568.66Zm6.035-10.638q-2.807,4.953-5.61,9.887,3.869-3.747,7.73-7.521,3.15-4.554,6.3-9.127Q433.677,554.658,429.463,558.022Zm6.03-10.653q-2.856,5.052-5.708,10.085,4.3-3.439,8.586-6.9,3.2-4.652,6.411-9.323Q440.142,544.316,435.493,547.369Zm6.033-10.67q-2.891,5.112-5.77,10.206,4.7-3.093,9.393-6.206,3.247-4.729,6.5-9.481Q446.591,533.966,441.525,536.7Zm.786-1.392-.565,1q5.11-2.744,10.2-5.527,3.264-4.762,6.535-9.543-5.443,2.383-10.9,4.738Q444.947,530.643,442.311,535.307Zm-11.394,7.04q-2.555,5.538-5.1,11.059,4.75-3.091,9.493-6.208,2.9-5.133,5.814-10.287Q436.027,539.647,430.917,542.347Zm5.308-11.484q-2.575,5.565-5.141,11.119,5.136-2.722,10.263-5.465l.752-1.329q2.552-4.516,5.118-9.055Q441.726,528.506,436.225,530.863Zm5.335-11.525q-2.6,5.607-5.184,11.2,5.528-2.356,11.039-4.751,2.941-5.2,5.887-10.405Q447.439,517.374,441.56,519.338Zm-37.045,80.156q-2.059,4.426-4.119,8.832,4.723-8.138,9.443-16.356Q407.178,595.74,404.515,599.495Zm5.265-11.351q-2.347,5.068-4.692,10.118,3.022-4.26,6.041-8.539,2.708-4.722,5.417-9.473Q413.166,584.206,409.78,588.144Zm5.277-11.412q-2.452,5.307-4.9,10.6,3.518-4.086,7.029-8.2,2.809-4.925,5.621-9.873Q418.935,573,415.058,576.732Zm5.283-11.448q-2.5,5.43-5,10.845,3.954-3.792,7.9-7.622,2.857-5.027,5.718-10.077Q424.65,561.871,420.34,565.284Zm3.828-8.3-3.6,7.816q4.359-3.452,8.709-6.935,2.884-5.089,5.773-10.2-4.706,3.094-9.421,6.157Zm-8.449,3.25q-2.2,5.932-4.373,11.837,4.406-3.448,8.8-6.939l3.8-8.249,1.3-2.811Q420.486,557.163,415.719,560.231Zm4.554-12.285q-2.213,5.958-4.414,11.906,4.794-3.081,9.576-6.2,2.559-5.55,5.127-11.118Q425.424,545.257,420.274,547.946Zm4.566-12.279q-2.228,5.976-4.441,11.939,5.172-2.7,10.332-5.435,2.575-5.576,5.162-11.169Q430.373,533.352,424.84,535.667Zm4.586-12.284q-2.247,5.992-4.469,11.971,5.548-2.327,11.088-4.679,2.594-5.611,5.2-11.229Q435.339,521.423,429.425,523.383ZM393.156,621.22q-1.759,4.717-3.515,9.41,4.109-8.674,8.212-17.431Q395.507,617.226,393.156,621.22Zm4.507-12.131q-2.01,5.422-4.018,10.815,2.694-4.6,5.385-9.22,2.349-5.025,4.7-10.081Q400.7,604.866,397.663,609.089Zm4.5-12.164q-2.093,5.659-4.181,11.3,3.162-4.414,6.321-8.852,2.445-5.26,4.894-10.553Q405.686,592.891,402.166,596.925Zm4.506-12.2q-2.136,5.784-4.267,11.551,3.589-4.123,7.171-8.269,2.5-5.4,5.005-10.821Q410.629,580.972,406.672,584.727Zm1.841-4.984-1.65,4.465q4-3.8,8-7.622,2.528-5.474,5.062-10.97c-2.909,2.3-5.818,4.6-8.734,6.885C410.3,574.915,409.4,577.335,408.512,579.742Zm-6.5-.115q-1.816,6.3-3.622,12.571,4.043-3.792,8.078-7.609l1.82-4.931c.843-2.284,1.692-4.583,2.539-6.875Q406.421,576.226,402.008,579.627Zm3.769-13.041q-1.834,6.331-3.655,12.645,4.434-3.428,8.861-6.879,2.2-5.947,4.4-11.9Q410.581,563.531,405.777,566.586Zm3.8-13.078q-1.857,6.37-3.7,12.723,4.827-3.06,9.64-6.161,2.206-5.965,4.431-11.955Q414.768,550.825,409.576,553.508Zm3.827-13.086q-1.876,6.389-3.734,12.766,5.211-2.687,10.407-5.412,2.223-5.985,4.454-11.979Q418.974,538.128,413.4,540.422Zm3.855-13.073q-1.894,6.391-3.768,12.773,5.585-2.307,11.158-4.639,2.236-6,4.482-12Q423.2,525.431,417.258,527.349ZM383.31,644.483q-1.44,4.965-2.882,9.907,3.5-9.2,6.982-18.488Q385.362,640.206,383.31,644.483Zm3.734-12.9q-1.662,5.751-3.321,11.474,2.346-4.9,4.689-9.838,2.017-5.385,4.034-10.791Q389.748,627.026,387.044,631.588Zm3.733-12.942q-1.733,6.019-3.464,12.011,2.814-4.753,5.621-9.541,2.1-5.621,4.19-11.271Q393.954,614.262,390.776,618.645Zm3.735-12.98q-1.772,6.157-3.537,12.291,3.24-4.476,6.473-8.982,2.13-5.746,4.266-11.528Q398.116,601.575,394.511,605.666Zm.62-2.155-.461,1.607q3.643-4.145,7.283-8.318,2.155-5.831,4.319-11.69-4,3.8-8.018,7.548Q396.689,598.092,395.131,603.511Zm-8.313,10.846q-1.423,6.618-2.838,13.211,3.292-4.5,6.574-9.032,1.787-6.208,3.58-12.443Q390.482,610.243,386.818,614.357Zm2.977-13.818q-1.441,6.679-2.872,13.336,3.689-4.145,7.37-8.329l.6-2.1q1.5-5.223,3.009-10.463Q393.856,596.779,389.8,600.538Zm2.993-13.84q-1.459,6.722-2.9,13.424,4.083-3.783,8.154-7.6,1.816-6.311,3.643-12.645Q397.242,583.308,392.789,586.7Zm3.016-13.85q-1.476,6.751-2.936,13.483,4.468-3.408,8.927-6.848,1.83-6.34,3.67-12.7Q400.644,569.84,395.8,572.849ZM398.848,559q-1.494,6.766-2.971,13.518,4.851-3.032,9.692-6.086,1.846-6.376,3.71-12.77Q404.068,556.343,398.848,559Zm3.08-13.868q-1.516,6.786-3.012,13.56,5.234-2.657,10.455-5.35,1.862-6.391,3.743-12.8Q407.526,542.846,401.928,545.13Zm3.121-13.877q-1.541,6.8-3.056,13.589,5.612-2.279,11.209-4.6,1.876-6.4,3.774-12.8Q411.021,529.366,405.049,531.254Zm-30.06,138.037q-1.136,5.234-2.274,10.447,2.892-9.731,5.77-19.564Q376.738,664.743,374.989,669.291Zm2.957-13.669q-1.312,6.078-2.621,12.123,2.012-5.234,4.019-10.51,1.663-5.693,3.325-11.414Q380.309,650.738,377.946,655.622Zm2.953-13.715q-1.371,6.373-2.738,12.716,2.465-5.089,4.92-10.224,1.733-5.973,3.468-11.977Q383.729,637.179,380.9,641.907Zm2.942-13.694q-1.394,6.494-2.783,12.958,2.885-4.82,5.761-9.681,1.768-6.118,3.538-12.265-3.247,4.478-6.5,8.923Zm-6.94,9.38q-1.046,6.992-2.084,13.953,2.933-4.84,5.852-9.73,1.416-6.579,2.834-13.189Q380.2,633.125,376.9,637.593Zm2.188-14.6q-1.061,7.06-2.112,14.093,3.334-4.493,6.652-9.037,1.427-6.647,2.862-13.323Q382.8,618.872,379.089,622.991Zm2.207-14.628q-1.078,7.108-2.142,14.192,3.728-4.133,7.441-8.313,1.44-6.7,2.888-13.417Q385.4,604.61,381.3,608.363Zm2.231-14.646q-1.1,7.142-2.173,14.263,4.117-3.761,8.22-7.57,1.451-6.73,2.917-13.484Q388.015,590.339,383.527,593.716Zm2.26-14.655q-1.112,7.165-2.207,14.311,4.5-3.385,8.991-6.813,1.464-6.754,2.945-13.529Q390.658,576.066,385.787,579.061Zm2.294-14.655q-1.133,7.176-2.244,14.339,4.881-3,9.752-6.048,1.48-6.767,2.977-13.555Q393.333,561.8,388.081,564.406Zm2.333-14.647q-1.155,7.181-2.286,14.351,5.258-2.626,10.506-5.276,1.5-6.79,3.02-13.594Q396.042,547.517,390.414,549.759Zm2.381-14.646q-1.182,7.187-2.335,14.365,5.635-2.247,11.259-4.527,1.52-6.8,3.061-13.614Q398.793,533.236,392.8,535.114ZM368.206,695.647q-.825,5.45-1.65,10.874,2.267-10.152,4.516-20.418Q369.642,690.889,368.206,695.647Zm2.178-14.464q-.96,6.4-1.921,12.771,1.659-5.509,3.311-11.057,1.325-6.049,2.645-12.133Q372.4,675.987,370.384,681.183Zm2.17-14.488q-1,6.72-2.006,13.405,2.107-5.415,4.207-10.882,1.371-6.322,2.743-12.675Q375.029,661.634,372.555,666.695Zm1.928-12.913q-.907,6.078-1.81,12.126,2.528-5.158,5.042-10.364,1.4-6.478,2.8-12.993-2.891,4.82-5.788,9.613Zm-5.968,8.548q-.665,7.357-1.322,14.681,2.569-5.172,5.127-10.388.96-6.423,1.923-12.874l.157-1.05Q371.463,657.533,368.515,662.329Zm1.395-15.383q-.678,7.433-1.344,14.834,2.967-4.831,5.926-9.7,1.048-7.021,2.1-14.073Q373.257,642.5,369.909,646.946Zm1.412-15.407q-.691,7.486-1.369,14.944,3.365-4.474,6.717-8.987,1.058-7.078,2.125-14.182Q375.064,627.447,371.321,631.539Zm1.435-15.424q-.706,7.522-1.4,15.021,3.757-4.107,7.5-8.255,1.07-7.117,2.152-14.258Q376.888,612.383,372.757,616.115Zm1.464-15.437q-.725,7.548-1.431,15.077,4.147-3.735,8.279-7.515,1.082-7.147,2.18-14.314C380.243,596.184,377.236,598.444,374.221,600.678Zm1.5-15.459q-.745,7.575-1.469,15.133c3.022-2.239,6.035-4.506,9.049-6.771q1.1-7.167,2.213-14.352Q380.623,582.238,375.722,585.219Zm1.542-15.459q-.767,7.584-1.512,15.156,4.916-2.98,9.812-6,1.115-7.179,2.25-14.373Q382.546,567.169,377.265,569.761Zm1.589-15.446q-.793,7.588-1.56,15.16,5.291-2.594,10.567-5.231,1.133-7.182,2.291-14.379Q384.51,552.112,378.853,554.314Zm1.644-15.425q-.822,7.581-1.615,15.152,5.662-2.214,11.313-4.456,1.157-7.191,2.339-14.392Q386.524,537.061,380.5,538.889ZM362.982,723.478q-.52,5.672-1.046,11.315,1.666-10.594,3.308-21.307Q364.116,718.5,362.982,723.478Zm1.389-15.21q-.608,6.7-1.219,13.367,1.317-5.8,2.627-11.645.969-6.335,1.934-12.71Q366.046,702.793,364.371,708.268ZM365.752,693q-.636,7.059-1.273,14.083,1.75-5.725,3.489-11.491,1.009-6.677,2.018-13.391C368.578,685.811,367.168,689.42,365.752,693Zm1.157-12.84q-.539,6-1.079,11.973,2.166-5.483,4.319-11.016,1.026-6.836,2.053-13.707-2.53,5.154-5.07,10.271Zm-5.24,8.414q-.282,7.725-.559,15.409,2.207-5.5,4.4-11.043.575-6.386,1.153-12.8l.168-1.855Q364.259,683.458,361.669,688.575Zm.6-16.166q-.291,7.808-.575,15.582,2.608-5.17,5.2-10.377.666-7.392,1.335-14.816Q365.255,667.63,362.264,672.409Zm.611-16.194q-.3,7.867-.593,15.7,3-4.814,6-9.668.672-7.449,1.353-14.931Q366.263,651.794,362.875,656.215ZM363.509,640q-.317,7.91-.617,15.79,3.4-4.45,6.781-8.936.682-7.494,1.376-15.017Q367.288,635.948,363.509,640Zm.663-16.232q-.331,7.94-.649,15.856,3.787-4.078,7.563-8.191.7-7.524,1.4-15.077Q368.341,620.09,364.172,623.769Zm.7-16.238q-.353,7.959-.686,15.9c2.783-2.467,5.565-4.936,8.338-7.432q.709-7.552,1.435-15.127Q369.425,604.227,364.873,607.531Zm.739-16.237q-.375,7.972-.726,15.925,4.558-3.323,9.1-6.674.728-7.575,1.473-15.17Q370.545,588.353,365.611,591.293Zm.79-16.233q-.4,7.978-.775,15.939,4.941-2.942,9.866-5.929.747-7.584,1.517-15.186C373.476,571.617,369.944,573.355,366.4,575.06Zm.845-16.245q-.43,7.99-.831,15.969c3.548-1.71,7.084-3.448,10.622-5.183q.77-7.587,1.562-15.188Q372.93,556.629,367.246,558.816Zm.9-16.221q-.46,7.98-.888,15.955,5.693-2.181,11.366-4.408.8-7.582,1.617-15.175Q374.206,540.8,368.149,542.594Zm-8.833,210.22q-.223,5.875-.451,11.719,1.072-11,2.117-22.137Q360.151,747.623,359.315,752.815Zm.6-15.977q-.258,7-.522,13.972.978-6.087,1.947-12.218.621-6.644,1.236-13.327Q361.249,731.072,359.913,736.838Zm.588-16.029q-.269,7.394-.54,14.747,1.4-6.036,2.781-12.12.645-7,1.284-14.042Q362.269,715.123,360.5,720.809Zm.489-13.513q-.227,6.306-.455,12.583,1.805-5.807,3.6-11.663.653-7.189,1.3-14.421-2.168,5.483-4.352,10.913Zm-4.62,9.043q.1,8.1.208,16.152,1.848-5.837,3.681-11.725.244-6.725.488-13.479l.069-1.909Q358.6,710.887,356.37,716.339Zm-.209-16.946q.1,8.177.2,16.318,2.249-5.507,4.482-11.057.28-7.76.564-15.557Q358.793,694.272,356.161,699.392Zm-.2-16.976q.092,8.243.19,16.453,2.644-5.157,5.274-10.357.285-7.825.577-15.687Q359,677.646,355.964,682.416Zm-.172-17.005q.078,8.293.168,16.555,3.04-4.793,6.064-9.634.293-7.875.6-15.781Q359.215,661.006,355.792,665.411Zm-.145-17.021q.063,8.329.142,16.627,3.432-4.425,6.847-8.891.3-7.913.619-15.852Q359.459,644.357,355.646,648.39Zm-.109-17.036q.045,8.353.107,16.682,3.819-4.046,7.626-8.137.316-7.94.649-15.906Q359.738,627.7,355.537,631.354Zm-.067-17.041q.021,8.37.065,16.718,4.208-3.67,8.4-7.378.332-7.959.686-15.939Q360.055,611.038,355.47,614.313Zm-.019-17.038q0,8.378.017,16.738,4.589-3.288,9.166-6.611.352-7.972.726-15.958Q360.417,594.387,355.452,597.276Zm.036-17.028q-.03,8.38-.036,16.744,4.968-2.9,9.923-5.841.377-7.978.778-15.971Q360.831,577.741,355.488,580.248Zm.1-17q-.063,8.371-.1,16.733,5.343-2.523,10.675-5.075.4-7.991.832-15.992Q361.3,561.092,355.585,563.244Zm.169-17q-.1,8.371-.166,16.736,5.722-2.146,11.425-4.339.43-7.984.889-15.976Q361.833,544.47,355.754,546.247Zm1.456,237.4q.068,6.071.129,12.114.495-11.4.955-22.937Q357.755,778.252,357.209,783.649Zm-.2-16.738q.09,7.3.172,14.558.641-6.352,1.27-12.749.276-6.949.543-13.943Q358.013,760.866,357.013,766.911Zm-.209-16.792q.1,7.725.193,15.4,1.045-6.34,2.075-12.735.28-7.329.551-14.705Q358.221,744.125,356.8,750.119Zm-.193-14.981q.092,7.006.18,13.975,1.449-6.129,2.88-12.311.279-7.532.554-15.111-1.811,5.814-3.638,11.575Zm-3.986,10.5q.489,8.443.975,16.84,1.488-6.165,2.961-12.385-.1-7.455-.193-14.949L356.354,734Q354.5,739.845,352.625,745.634Zm-1.02-17.746q.489,8.561.981,17.076,1.887-5.84,3.757-11.735-.106-8.135-.209-16.311Q353.879,722.431,351.605,727.888Zm-1.005-17.76q.484,8.617.973,17.2,2.285-5.491,4.553-11.037-.106-8.2-.2-16.434Q353.271,705.018,350.6,710.128Zm-.986-17.785q.474,8.673.96,17.308,2.68-5.133,5.343-10.318-.1-8.253-.19-16.541Q352.679,687.594,349.614,692.343Zm-.957-17.812q.46,8.712.935,17.4,3.075-4.766,6.13-9.584-.092-8.293-.169-16.623Q352.113,670.15,348.656,674.531Zm-.926-17.826q.445,8.746.907,17.455,3.466-4.389,6.912-8.834-.078-8.327-.144-16.68Q351.575,652.7,347.73,656.705Zm-.88-17.838q.422,8.763.863,17.5,3.855-4.012,7.69-8.079-.064-8.35-.107-16.727Q351.082,635.238,346.85,638.867Zm-.836-17.839q.4,8.777.822,17.529,4.238-3.63,8.459-7.315-.044-8.367-.067-16.754Q350.629,617.779,346.014,621.028Zm-.776-17.835q.368,8.781.763,17.546,4.624-3.25,9.227-6.552-.021-8.375-.018-16.769Q350.232,600.329,345.237,603.193Zm-.717-17.822q.337,8.78.706,17.546,5-2.869,9.982-5.783,0-8.378.036-16.77Q349.892,582.892,344.52,585.372Zm-.646-17.8q.3,8.771.635,17.534,5.376-2.489,10.737-5.013.033-8.374.1-16.757C351.528,564.768,347.7,566.17,343.875,567.574Zm-.571-17.763q.263,8.756.562,17.506c3.83-1.4,7.66-2.808,11.478-4.241q.065-8.374.166-16.759Q349.415,548.084,343.3,549.811Zm13.362,266.142q.351,6.249.694,12.467-.069-11.732-.178-23.606Q356.929,810.4,356.666,815.953Zm-.989-17.474q.434,7.586.859,15.123.309-6.631.6-13.317-.069-7.22-.148-14.492Q356.341,792.159,355.677,798.479Zm-1.008-17.558q.464,8.051.923,16.054.7-6.641,1.374-13.335-.084-7.656-.179-15.363Q355.736,774.626,354.669,780.921Zm-1-17.277q.471,8.123.938,16.192,1.093-6.445,2.165-12.945-.095-7.875-.2-15.8-1.453,6.134-2.925,12.212Zm-5.058-5.734q.879,8.907,1.759,17.769,1.529-6.167,3.035-12.395-.492-8.48-.985-17.012Q350.525,752.121,348.61,757.91Zm-1.823-18.564q.879,9.006,1.764,17.967,1.926-5.825,3.829-11.711-.495-8.58-.989-17.2Q349.1,733.9,346.787,739.346Zm-1.8-18.57q.871,9.049,1.753,18.061,2.321-5.47,4.621-11-.492-8.625-.979-17.294Q347.692,715.689,344.985,720.777Zm-1.779-18.592q.862,9.1,1.736,18.153,2.716-5.1,5.411-10.265-.487-8.675-.965-17.382Q346.306,697.46,343.206,702.185Zm-1.742-18.616q.845,9.128,1.7,18.228,3.111-4.729,6.2-9.522-.476-8.709-.938-17.455Q344.954,679.216,341.465,683.568Zm-1.7-18.628q.825,9.153,1.671,18.278,3.5-4.354,6.976-8.769-.461-8.739-.909-17.5Q343.637,660.963,339.761,664.941ZM338.1,646.306q.8,9.17,1.627,18.315,3.886-3.973,7.75-8.01-.445-8.758-.866-17.544C343.784,641.491,340.95,643.914,338.1,646.306Zm-1.6-18.636q.774,9.178,1.573,18.338c2.85-2.4,5.686-4.823,8.523-7.251q-.423-8.772-.823-17.563C342.691,623.362,339.6,625.532,336.5,627.67Zm-1.541-18.626q.741,9.183,1.517,18.345c3.1-2.14,6.194-4.312,9.283-6.484q-.4-8.778-.764-17.576C341.659,605.245,338.317,607.159,334.964,609.044ZM333.5,590.429q.7,9.18,1.442,18.347c3.357-1.887,6.7-3.8,10.047-5.722q-.367-8.78-.707-17.572Q338.9,587.973,333.5,590.429Zm-1.394-18.586q.668,9.168,1.374,18.327,5.406-2.448,10.791-4.95-.334-8.774-.635-17.557Q337.878,569.772,332.105,571.842ZM330.8,553.292q.623,9.152,1.289,18.3,5.78-2.07,11.54-4.185-.3-8.758-.564-17.526Q336.94,551.61,330.8,553.292Zm23.3,259.921q.83,8.368,1.647,16.678.352-6.937.681-13.935-.447-7.965-.9-15.984Q354.816,806.62,354.095,813.213Zm-1.824-18.373q.857,8.632,1.708,17.208.738-6.754,1.454-13.572-.469-8.216-.946-16.484Q353.389,788.446,352.271,794.84Zm-.206-2.066.116,1.164q1.131-6.485,2.242-13.031-.483-8.368-.972-16.789-1.5,6.172-3.012,12.285Q351.254,784.608,352.065,792.774Zm-4.894-3.382q1.27,9.266,2.537,18.484,1.17-6.489,2.317-13.046l-.2-2.031q-.778-7.823-1.559-15.693Q348.73,783.282,347.172,789.392Zm-2.637-19.308q1.275,9.359,2.551,18.669,1.567-6.152,3.109-12.37-.886-8.926-1.772-17.9Q346.49,764.312,344.534,770.084Zm-2.626-19.374q1.272,9.44,2.553,18.833,1.962-5.8,3.9-11.661-.889-9.013-1.775-18.069Q344.259,745.29,341.908,750.71Zm-2.6-19.379q1.263,9.474,2.536,18.908,2.359-5.434,4.694-10.935-.885-9.049-1.761-18.142Q342.054,726.272,339.309,731.331Zm-2.568-19.4q1.25,9.512,2.514,18.986,2.753-5.064,5.481-10.2-.877-9.09-1.743-18.217Q339.876,707.244,336.741,711.935ZM334.21,692.5q1.233,9.548,2.483,19.064c2.1-3.126,4.181-6.286,6.263-9.45q-.863-9.122-1.711-18.281Q337.737,688.2,334.21,692.5Zm-2.483-19.445q1.209,9.568,2.441,19.109,3.534-4.309,7.046-8.679-.847-9.146-1.676-18.322Q335.643,669.142,331.726,673.059Zm-2.43-19.438q1.182,9.577,2.392,19.128,3.92-3.927,7.819-7.9-.826-9.163-1.63-18.352Q333.6,650.089,329.3,653.622Zm-2.366-19.43q1.149,9.58,2.329,19.141,4.3-3.546,8.592-7.136-.8-9.174-1.577-18.37Q331.614,631.038,326.93,634.192Zm-2.3-19.413q1.115,9.578,2.262,19.139,4.686-3.165,9.354-6.372-.774-9.178-1.521-18.374Q329.694,612,324.635,614.779ZM322.413,595.4q1.075,9.567,2.191,19.121,5.06-2.785,10.1-5.612-.74-9.177-1.444-18.371Q327.847,592.987,322.413,595.4Zm-2.133-19.349q1.034,9.551,2.1,19.095,5.439-2.408,10.859-4.866-.7-9.171-1.375-18.349C328.009,573.308,324.152,574.694,320.28,576.047Zm-2.042-19.334q.987,9.545,2.015,19.084c3.875-1.352,7.735-2.741,11.6-4.123q-.666-9.156-1.291-18.317Q324.4,555.05,318.238,556.713Zm33.481,265.78.6,4.387q.778-6.8,1.53-13.665-.864-8.71-1.736-17.481-1.139,6.492-2.3,12.921Zm-7.881-20.222q1.669,9.721,3.338,19.391,1.211-6.472,2.394-13.014-1.277-9.285-2.558-18.631Q345.438,796.178,343.838,802.27Zm-3.446-20.123q1.672,9.8,3.346,19.544,1.607-6.122,3.187-12.313-1.284-9.364-2.566-18.779Q342.39,776.4,340.392,782.147Zm-3.429-20.177q1.668,9.865,3.344,19.68,2-5.76,3.979-11.591Q343,760.62,341.72,751.138,339.354,756.584,336.963,761.97Zm-3.394-20.181q1.654,9.891,3.32,19.746,2.4-5.4,4.769-10.865-1.277-9.466-2.544-18.979C337.271,735.072,335.427,738.448,333.569,741.789Zm-3.363-20.232q1.641,9.939,3.3,19.842,2.791-5.021,5.553-10.118-1.266-9.5-2.522-19.043Q333.384,716.931,330.206,721.556Zm-3.32-20.238q1.62,9.961,3.261,19.886,3.182-4.64,6.34-9.334-1.253-9.536-2.489-19.106Q330.457,697.077,326.886,701.318Zm-3.263-20.241q1.594,9.974,3.21,19.92c2.38-2.841,4.758-5.688,7.121-8.568q-1.233-9.56-2.445-19.149Q327.58,677.213,323.624,681.077Zm-3.2-20.235q1.561,9.98,3.152,19.937,3.957-3.881,7.894-7.809-1.208-9.568-2.4-19.163Q324.762,657.357,320.424,660.842Zm-3.134-20.219q1.528,9.979,3.089,19.938,4.338-3.5,8.658-7.044-1.182-9.574-2.334-19.17Q322.008,637.515,317.29,640.623Zm-3.057-20.2q1.488,9.973,3.015,19.931,4.72-3.12,9.422-6.285-1.149-9.573-2.266-19.165Q319.332,617.7,314.234,620.426Zm-2.966-20.172q1.445,9.961,2.927,19.913,5.1-2.742,10.179-5.523-1.114-9.566-2.194-19.145C318.551,597.1,314.91,598.68,311.268,600.254Zm-2.876-20.132q1.4,9.944,2.841,19.881c3.643-1.575,7.288-3.151,10.919-4.756q-1.073-9.554-2.106-19.117C316.169,577.482,312.279,578.8,308.392,580.122Zm-2.779-20.081q1.347,9.919,2.745,19.834c3.89-1.323,7.783-2.642,11.66-4q-1.031-9.55-2.017-19.1Q311.815,558.43,305.612,560.041Zm10.438-22.567c-4.365.853-8.728,1.713-13.1,2.538q1.292,9.893,2.633,19.786,6.207-1.611,12.4-3.268Q316.99,547,316.05,537.474Zm13.293-2.637q-6.517,1.316-13.052,2.59.935,9.52,1.923,19.04c4.116-1.1,8.222-2.23,12.328-3.359Q329.919,543.974,329.343,534.838Zm13.23-2.708q-6.484,1.353-12.989,2.659.575,9.128,1.2,18.255,6.144-1.692,12.275-3.415Q342.794,540.881,342.573,532.13Zm13.175-2.808c-4.307.927-8.614,1.857-12.932,2.759q.219,8.742.48,17.479,6.117-1.73,12.218-3.5Q355.613,537.693,355.748,529.321Zm13.126-2.858q-6.431,1.423-12.882,2.805-.138,8.363-.235,16.724,6.093-1.767,12.159-3.584Q368.378,534.439,368.874,526.464Zm13.073-2.93q-6.4,1.458-12.826,2.875-.5,7.965-.957,15.926,6.06-1.8,12.107-3.631Q381.1,531.122,381.947,523.534Zm13.025-3.012q-6.382,1.488-12.775,2.956-.852,7.576-1.674,15.147,6.034-1.835,12.054-3.7Q393.761,527.727,394.973,520.522Zm12.974-3.054q-6.349,1.518-12.717,2.993-1.211,7.2-2.391,14.385,6.013-1.87,12-3.782Q406.38,524.271,407.946,517.469Zm12.931-3.129q-6.326,1.547-12.666,3.065-1.562,6.79-3.1,13.574,5.982-1.9,11.95-3.82Q418.957,520.754,420.877,514.339Zm12.9-3.2q-6.307,1.576-12.626,3.129-1.915,6.4-3.809,12.794,5.954-1.925,11.9-3.878Q431.495,517.172,433.777,511.143Zm12.829-3.228q-6.26,1.6-12.542,3.155-2.27,6.013-4.53,12.021,5.935-1.956,11.849-3.95Q443.984,513.536,446.606,507.915Zm12.8-3.3q-6.241,1.623-12.494,3.227-2.611,5.6-5.21,11.2,5.9-1.978,11.782-3.977Q456.436,509.841,459.4,504.61Zm12.754-3.351q-6.206,1.644-12.426,3.266-2.959,5.212-5.9,10.415,5.863-2,11.715-4.018Q468.847,506.095,472.158,501.26Zm12.69-3.377c-4.1,1.107-8.217,2.192-12.33,3.282q-3.3,4.82-6.588,9.627,5.838-2.021,11.659-4.077Q481.214,502.306,484.847,497.883Zm12.669-3.457q-6.128,1.68-12.263,3.347-3.615,4.4-7.224,8.787,5.781-2.032,11.552-4.081Q493.547,498.457,497.517,494.426Zm12.6-3.478q-6.06,1.688-12.132,3.351-3.938,4-7.871,7.99,5.72-2.038,11.433-4.093Q505.831,494.577,510.115,490.948Zm12.488-3.49q-5.956,1.681-11.928,3.333-4.238,3.594-8.477,7.171,5.674-2.046,11.333-4.124Q518.067,490.657,522.6,487.458Zm12.415-3.541q-5.855,1.676-11.714,3.344-4.449,3.135-8.9,6.258,5.509-2.014,11.01-4.039Q530.218,486.7,535.018,483.917Zm12.075-3.473q-5.559,1.611-11.129,3.2-4.6,2.672-9.194,5.332,5.279-1.95,10.55-3.913Q542.209,482.762,547.093,480.444Zm11.122-3.243q-4.816,1.412-9.643,2.812-4.286,2.033-8.578,4.057Q549.117,480.658,558.215,477.2ZM1335.547,0q45.911,6.865,95.313,17.7v.251Q1380.569,6.913,1333.9,0ZM0,569.788c104.35-.083,204.977-11.554,302.675-29.974C277.739,348.8,267.5,158.315,303.738,0h.249c-36.245,158.286-26.007,348.765-1.072,539.77,4.379-.826,8.744-1.686,13.112-2.539C297.284,346.447,293.411,155.924,338.461,0h.253c-45.059,155.892-41.19,346.405-22.448,537.184q6.538-1.278,13.061-2.592C317.277,343.952,320.286,153.284,374.956,0h.257c-54.68,153.25-57.693,343.907-45.645,534.543q6.506-1.316,13-2.66c-4.565-181.99,4.759-364.329,62.4-511.3C407.7,13.63,410.569,6.789,413.516,0h.265c-2.96,6.818-5.847,13.688-8.585,20.67-57.623,146.922-66.949,329.213-62.387,511.164,4.322-.9,8.632-1.834,12.943-2.762,2.733-165.02,17.018-330.631,70.675-467.492A624.024,624.024,0,0,1,454.435,0h.275a623.891,623.891,0,0,0-28.056,61.667C373.017,198.479,358.731,364.04,356,529.019q6.452-1.39,12.893-2.808c9.167-147.3,27.62-295.359,76.883-421.07C460.358,67.924,477.684,32.7,498.226,0h.288C477.944,32.724,460.6,67.978,446,105.229,396.756,230.891,378.3,378.9,369.136,526.156q6.426-1.423,12.84-2.876c14.464-128.539,36.044-257.908,80.351-371.025C483.99,96.949,511.094,45.538,545.441,0h.312c-34.39,45.557-61.521,97-83.2,152.341-44.289,113.068-65.867,242.388-80.329,370.882q6.405-1.458,12.789-2.961c18.2-108.227,41.466-217.26,80-315.684C504.907,128.219,544,58.253,597.03,0h.333C544.269,58.263,505.151,128.263,475.24,204.666,436.728,303.038,413.47,412.021,395.273,520.2q6.374-1.488,12.735-3c19.656-85.417,42.456-171.5,73.922-251.923C521.754,163.5,575.5,70.822,654.268,0h.379C575.792,70.818,522,163.531,482.157,265.369c-31.446,80.371-54.237,166.4-73.885,251.772q6.35-1.52,12.685-3.07c17.283-57.723,35.99-115.842,58-172.138C531.54,207.464,603.032,83.451,718.97,0h.439C603.336,83.421,531.793,207.486,479.187,342.018,457.2,398.262,438.5,456.328,421.231,514q6.336-1.552,12.65-3.138C508.993,311.893,600.752,106.989,794.619,0h.561C601.125,106.863,509.3,311.78,434.168,510.794q6.29-1.572,12.571-3.163C542.249,302.725,654.825,89.8,888.676,0h.734C655.261,89.61,542.6,302.573,447.043,507.552q6.274-1.6,12.527-3.235C583.562,285.856,725.88,55.813,1028.36,0h1.4C726.509,55.325,584.013,285.567,459.9,504.233q6.244-1.626,12.47-3.28C660.083,226.851,874.016-70.5,1430.86,43.657v.25C874.287-70.2,660.363,226.881,472.727,500.857c4.132-1.1,8.265-2.186,12.388-3.3l1.736-2.111C691.891,245.978,916.263-26.86,1430.86,70.045v.249C916.364-26.6,692.038,246.183,487.039,495.6l-1.519,1.847q6.178-1.667,12.335-3.366,8.082-8.213,16.186-16.458C731.879,255.972,965.9,17.993,1430.86,96.782v.25C965.991,18.251,732.012,256.184,514.216,477.794q-7.961,8.1-15.894,16.16,6.125-1.68,12.236-3.381,17.156-14.543,34.363-29.234c228.1-194.415,468.531-399.237,885.94-337.375v.248C1013.529,62.356,773.134,267.144,545.078,461.523q-17.017,14.505-33.961,28.893,6.043-1.683,12.08-3.377,28.349-19.974,56.725-40.287C815.335,278.859,1058.7,105.35,1430.86,151.665v.247c-372.094-46.311-615.42,127.169-850.8,295.036q-28.126,20.059-56.163,39.893,6-1.7,11.969-3.421c27.943-16.247,55.8-32.8,83.7-49.379,239.318-142.248,481.889-286.381,811.294-254.023v.246c-329.349-32.357-571.885,111.756-811.169,253.983-27.626,16.421-55.21,32.809-82.876,48.9q5.84-1.674,11.671-3.366c38.851-18.428,77.443-37.4,115.994-56.363,239.277-117.687,477.039-234.609,766.38-214.356v.246c-289.292-20.252-527.025,96.655-766.273,214.329-38.1,18.737-76.233,37.491-114.622,55.715q5.531-1.607,11.053-3.222c51.957-19.759,103.328-40.429,154.412-60.99,234.688-94.461,463.36-186.484,715.43-176.235v.246C1178.83,228.9,950.183,320.916,715.521,415.366c-50.146,20.183-100.571,40.469-151.554,59.9,70.963-20.9,140.646-43.482,209.406-65.763,224.892-72.875,439.915-142.526,657.487-139.94v.244c-217.538-2.587-432.541,67.059-657.412,139.925-69.712,22.59-140.373,45.486-212.354,66.63q-11.819,4.5-23.681,8.926-11.12,5.235-22.274,10.4-10.459,6-20.94,11.927-9.747,6.76-19.512,13.444-9.006,7.5-18.023,14.907-8.286,8.264-16.581,16.438-7.553,9.028-15.111,17.948-6.814,9.807-13.637,19.5-6.042,10.537-12.093,20.948-5.3,11.327-10.6,22.509-4.525,12.079-9.065,24-3.772,12.908-7.563,25.645-2.983,13.631-5.993,27.077-2.2,14.4-4.439,28.6-1.418,15.163-2.881,30.1-.629,15.9-1.315,31.562.144,15.106.232,29.989h-.4q-.327-5.971-.663-11.978-.288,6.01-.589,11.978h-.429q-.781-7.925-1.571-15.9-.744,6.765-1.511,13.465l.336,2.438h-.246l-.2-1.467-.169,1.467h-.245l.28-2.433-.732-5.323-1.8-13.1q-1.177,6.5-2.383,12.927l1.371,7.933h-.248l-1.251-7.249q-.683,3.637-1.375,7.249h-.248q.758-3.954,1.5-7.936-1.678-9.723-3.357-19.507-3.66,13.91-7.48,27.442h-.253q3.906-13.807,7.633-28.022-1.682-9.793-3.363-19.638-8.529,24.49-17.63,47.66h-.261q9.227-23.366,17.808-48.156-1.682-9.857-3.359-19.757c-10.551,23.7-21.5,46.423-33.066,67.913h-.281c11.641-21.62,22.658-44.493,33.273-68.349q-1.671-9.88-3.331-19.808c-17.572,31.561-35.933,61.192-55.672,88.157H277.4c19.833-27.07,38.273-56.834,55.918-88.543q-1.66-9.926-3.306-19.891C302.336,762.17,273.2,798.922,241.2,830.282h-.364c32.12-31.441,61.353-68.319,89.113-108.786q-1.644-9.949-3.269-19.929c-42.679,50.9-88.021,95.308-139.321,128.716H186.9c51.471-33.451,96.938-77.986,139.732-129.037q-1.621-9.965-3.217-19.959c-68.288,66.94-141.931,120.865-229.737,149H92.81c88.168-28.065,162.053-82.13,230.554-149.294q-1.593-9.972-3.158-19.969C226.54,736.527,124.836,792.518,0,805.581v-.256c124.82-13.071,226.506-69.073,320.16-144.588q-1.56-9.974-3.093-19.966C221.685,703.795,119.526,750.406,0,762.782v-.253c119.51-12.382,221.656-59,317.026-122.025q-1.526-9.97-3.02-19.956C217.468,672.44,115.221,710.541,0,721.3v-.251c115.205-10.766,217.44-48.87,313.968-100.763q-1.487-9.961-2.932-19.937C213.779,642.346,111.706,672.746,0,681.268v-.249c111.692-8.524,213.752-38.925,311-80.916q-1.441-9.948-2.843-19.9C210.515,613.4,108.81,636.845,0,642.731v-.246c108.8-5.889,210.491-29.335,308.123-62.529q-1.4-9.924-2.748-19.852C207.609,585.479,106.392,602.619,0,605.65V605.4c106.38-3.032,207.585-20.17,305.342-45.543q-1.347-9.9-2.636-19.8C205,558.477,104.361,569.95,0,570.033Z" transform="translate(22585.365 -8165.089) rotate(90)" fill="#f8951d"/>
    </g>
  </g>
</svg>
