<svg xmlns="http://www.w3.org/2000/svg" xmlns:xlink="http://www.w3.org/1999/xlink" width="78" height="78" viewBox="0 0 78 78">
  <defs>
    <filter id="Path_35518" x="0" y="0" width="78" height="78" filterUnits="userSpaceOnUse">
      <feOffset dy="3" input="SourceAlpha"/>
      <feGaussianBlur stdDeviation="3" result="blur"/>
      <feFlood flood-color="#dadde1" flood-opacity="0.498"/>
      <feComposite operator="in" in2="blur"/>
      <feComposite in="SourceGraphic"/>
    </filter>
  </defs>
  <g id="Group_9161" data-name="Group 9161" transform="translate(-20169 5413)">
    <g transform="matrix(1, 0, 0, 1, 20169, -5413)" filter="url(#Path_35518)">
      <path id="Path_35518-2" data-name="Path 35518" d="M30,0A30,30,0,1,1,0,30,30,30,0,0,1,30,0Z" transform="translate(9 6)" fill="#fff"/>
    </g>
    <g id="document_1_" data-name="document (1)" transform="translate(20187.98 -5395.082)">
      <path id="Path_35519" data-name="Path 35519" d="M13,17.26h8.137V25.4H13Zm11.364,3.393,1.984,1.985,4.071-4.071" transform="translate(-1.692 -5.035)" fill="none" stroke="#f8951d" stroke-linecap="round" stroke-linejoin="round" stroke-miterlimit="10" stroke-width="1.5"/>
      <path id="Path_35520" data-name="Path 35520" d="M24.515,2H8.661a.787.787,0,0,0-.786.787v30.59a.787.787,0,0,0,.787.787H31.378a.787.787,0,0,0,.787-.787V9.65" transform="translate(0)" fill="none" stroke="#f8951d" stroke-linecap="round" stroke-linejoin="round" stroke-miterlimit="10" stroke-width="1.5"/>
      <path id="Path_35521" data-name="Path 35521" d="M26.206,2V8.864a.787.787,0,0,0,.787.787h6.864ZM13,24.64h17.03M13,29.555h17.03" transform="translate(-1.692)" fill="none" stroke="#f8951d" stroke-linecap="round" stroke-linejoin="round" stroke-miterlimit="10" stroke-width="1.5"/>
    </g>
  </g>
</svg>
