<svg xmlns="http://www.w3.org/2000/svg" xmlns:xlink="http://www.w3.org/1999/xlink" width="78" height="78" viewBox="0 0 78 78">
  <defs>
    <filter id="Path_35528" x="0" y="0" width="78" height="78" filterUnits="userSpaceOnUse">
      <feOffset dy="3" input="SourceAlpha"/>
      <feGaussianBlur stdDeviation="3" result="blur"/>
      <feFlood flood-color="#dadde1" flood-opacity="0.498"/>
      <feComposite operator="in" in2="blur"/>
      <feComposite in="SourceGraphic"/>
    </filter>
  </defs>
  <g id="Group_9164" data-name="Group 9164" transform="translate(9 6)">
    <g transform="matrix(1, 0, 0, 1, -9, -6)" filter="url(#Path_35528)">
      <path id="Path_35528-2" data-name="Path 35528" d="M30,0A30,30,0,1,1,0,30,30,30,0,0,1,30,0Z" transform="translate(9 6)" fill="#fff"/>
    </g>
    <g id="support" transform="translate(15.937 13.918)">
      <path id="Path_35522" data-name="Path 35522" d="M178.367,134a8.2,8.2,0,0,0-8.137,7.48c-.021.246-.031.462-.031.677v1.4c3.786-1.3,5.531-3.355,6.31-4.894a1.706,1.706,0,0,1,1.447-.944,1.684,1.684,0,0,1,1.519.78l.113.174a8.569,8.569,0,0,0,6.926,4.474v-1A8.11,8.11,0,0,0,178.367,134Z" transform="translate(-164.321 -129.817)" fill="#fff"/>
      <path id="Path_35523" data-name="Path 35523" d="M344.923,215v5.428a9.984,9.984,0,0,1-.123,1.56,3.642,3.642,0,0,0,.123-6.988Z" transform="translate(-321.005 -202.506)" fill="#fff"/>
      <path id="Path_35524" data-name="Path 35524" d="M197.152,369.021A.792.792,0,0,0,197,369a.557.557,0,0,0-.257.062.568.568,0,0,0-.267.328l-.062.205a.569.569,0,0,0,.041.41.562.562,0,0,0,.318.257l3.14.923a.517.517,0,0,0,.41-.041.568.568,0,0,0,.267-.328l.062-.205a.569.569,0,0,0-.041-.41.552.552,0,0,0-.328-.257Z" transform="translate(-187.825 -340.705)" fill="#fff"/>
      <path id="Path_35525" data-name="Path 35525" d="M178.2,186.774l-.113-.174c-1.057,1.888-3.181,4.433-7.849,5.9l-.041-.133v2.524a8.135,8.135,0,0,0,8.168,8.157,8.171,8.171,0,0,0,8.157-8.157v-2.863A10.167,10.167,0,0,1,178.2,186.774Z" transform="translate(-164.321 -177.02)" fill="#fff"/>
      <path id="Path_35526" data-name="Path 35526" d="M131.868,221.464a9.79,9.79,0,0,1-.113-1.436V214.6a3.642,3.642,0,0,0,.123,6.988A.5.5,0,0,1,131.868,221.464Z" transform="translate(-127.528 -202.147)" fill="#fff"/>
      <path id="Path_35527" data-name="Path 35527" d="M138.562,104.682c-.062-3.571-1.159-6.392-3.253-8.383a12.656,12.656,0,0,0-8.588-3.058c-3.54.01-6.341,1.067-8.342,3.15a12.71,12.71,0,0,0-3.13,8.321,5.288,5.288,0,0,0-2.35,4.453,5.228,5.228,0,0,0,2.6,4.6,9.135,9.135,0,0,0,4.371,8.157,2.149,2.149,0,0,0,.205,1.406,2.21,2.21,0,0,0,1.313,1.057l3.14.923a2.2,2.2,0,0,0,.626.092,2.234,2.234,0,0,0,1.047-.267,2.181,2.181,0,0,0,1.057-1.313l.062-.205a2.236,2.236,0,0,0-.174-1.683,2.21,2.21,0,0,0-1.313-1.057l-.246-.072a10.059,10.059,0,0,0,1.365.113,9.813,9.813,0,0,0,9.235-6.536c.031,0,.051.01.072.01a5.006,5.006,0,0,0,4.771-5.2A5.2,5.2,0,0,0,138.562,104.682Zm-24,4.494a3.442,3.442,0,0,1,2.555-3.478v5.428a9.572,9.572,0,0,0,.113,1.437c.01.041,0,.082.01.123A3.439,3.439,0,0,1,114.562,109.176Zm6.454,10.958a2.23,2.23,0,0,0-.38.318,7.357,7.357,0,0,1-3.5-6.146,4.466,4.466,0,0,0,.534.062h.041a9.816,9.816,0,0,0,5.212,5.664l-.226-.062A2.178,2.178,0,0,0,121.016,120.134Zm4.669,2.606a.522.522,0,0,1,.041.41l-.062.205a.532.532,0,0,1-.267.328.522.522,0,0,1-.41.041l-3.14-.923a.5.5,0,0,1-.318-.257.526.526,0,0,1-.041-.41l.062-.205a.532.532,0,0,1,.267-.328.556.556,0,0,1,.257-.062.792.792,0,0,1,.154.021l3.14.923A.562.562,0,0,1,125.685,122.74Zm9.419-11.625a8.166,8.166,0,0,1-16.037,2.165,8.263,8.263,0,0,1-.287-2.165v-2.524l.041.133c4.669-1.467,6.793-4.012,7.849-5.9l.113.174a10.217,10.217,0,0,0,8.321,5.264Zm0-4.556a8.534,8.534,0,0,1-6.926-4.474l-.113-.174a1.684,1.684,0,0,0-1.519-.78,1.713,1.713,0,0,0-1.447.944c-.78,1.529-2.534,3.581-6.31,4.894v-1.4q0-.323.031-.677a8.155,8.155,0,0,1,16.284.677Zm-1.211-7.942a9.8,9.8,0,0,0-16.6,5.4c-.113.01-.236.021-.349.041a10.875,10.875,0,0,1,2.647-6.526c1.673-1.744,4.074-2.627,7.172-2.637.041,0,4.422-.205,7.4,2.606a9.483,9.483,0,0,1,2.678,6.567,1.389,1.389,0,0,0-.205-.021A9.766,9.766,0,0,0,133.893,98.618Zm2.8,14.088a10.081,10.081,0,0,0,.123-1.56v-5.418a3.635,3.635,0,0,1-.123,6.977Z" transform="translate(-112.9 -93.234)" fill="#f8951d"/>
    </g>
  </g>
</svg>
