<svg xmlns="http://www.w3.org/2000/svg" xmlns:xlink="http://www.w3.org/1999/xlink" width="57.026" height="57.026" viewBox="0 0 57.026 57.026">
  <defs>
    <clipPath id="clip-path">
      <path id="Path_40962" data-name="Path 40962" d="M0-47.5H57.026V9.526H0Z" transform="translate(0 0)"/>
    </clipPath>
  </defs>
  <g id="heart" transform="translate(0 47.5)" clip-path="url(#clip-path)">
    <path id="Path_40959" data-name="Path 40959" d="M8.967,2.474A14.808,14.808,0,0,0-5.84-12.335a14.781,14.781,0,0,0-12.033,6.2,14.778,14.778,0,0,0-12.031-6.2A14.809,14.809,0,0,0-44.712,2.474a14.787,14.787,0,0,0,.4,3.363c2.057,12.774,16.26,26.253,26.441,29.954C-7.694,32.09,6.512,18.611,8.565,5.837a14.621,14.621,0,0,0,.4-3.363" transform="translate(46.386 -30.714)" fill="#ffc4d0"/>
    <path id="Path_40960" data-name="Path 40960" d="M6.73,1.857A11.113,11.113,0,0,0-4.384-9.257a11.093,11.093,0,0,0-9.029,4.65,11.09,11.09,0,0,0-9.03-4.65A11.114,11.114,0,0,0-33.557,1.857a11.17,11.17,0,0,0,.3,2.523c1.544,9.588,12.2,19.706,19.845,22.482,7.64-2.776,18.3-12.894,19.844-22.48a11.025,11.025,0,0,0,.3-2.524" transform="translate(41.927 -27.789)" fill="#ff758b"/>
    <path id="Path_40961" data-name="Path 40961" d="M4.609,1.271A7.61,7.61,0,0,0-3-6.34,7.591,7.591,0,0,0-9.185-3.153,7.6,7.6,0,0,0-15.369-6.34,7.611,7.611,0,0,0-22.98,1.271,7.7,7.7,0,0,0-22.776,3c1.058,6.567,8.359,13.494,13.592,15.4C-3.954,16.493,3.348,9.566,4.4,3a7.55,7.55,0,0,0,.206-1.729" transform="translate(37.697 -25.016)" fill="#ee163e"/>
  </g>
</svg>
