<svg xmlns="http://www.w3.org/2000/svg" xmlns:xlink="http://www.w3.org/1999/xlink" width="78" height="78" viewBox="0 0 78 78">
  <defs>
    <filter id="Path_35513" x="0" y="0" width="78" height="78" filterUnits="userSpaceOnUse">
      <feOffset dy="3" input="SourceAlpha"/>
      <feGaussianBlur stdDeviation="3" result="blur"/>
      <feFlood flood-color="#dadde1" flood-opacity="0.498"/>
      <feComposite operator="in" in2="blur"/>
      <feComposite in="SourceGraphic"/>
    </filter>
  </defs>
  <g id="pan" transform="translate(-20238 5408)">
    <g transform="matrix(1, 0, 0, 1, 20238, -5408)" filter="url(#Path_35513)">
      <path id="Path_35513-2" data-name="Path 35513" d="M30,0A30,30,0,1,1,0,30,30,30,0,0,1,30,0Z" transform="translate(9 6)" fill="#fff"/>
    </g>
    <g id="id-card" transform="translate(20260.146 -5388.082)">
      <path id="Path_35512" data-name="Path 35512" d="M4.537,0H29.169a4.537,4.537,0,0,1,4.537,4.537V19.88a4.537,4.537,0,0,1-4.537,4.537H4.537A4.537,4.537,0,0,1,0,19.88V4.537A4.537,4.537,0,0,1,4.537,0Z" transform="translate(0 7.746)" fill="#fff" stroke="#f8951d" stroke-linecap="round" stroke-width="1"/>
      <path id="Path_35511" data-name="Path 35511" d="M4.213,0H8.906a1.945,1.945,0,0,1,1.945,1.945V6.482A1.945,1.945,0,0,1,8.906,8.427H4.213A4.213,4.213,0,0,1,0,4.213H0A4.213,4.213,0,0,1,4.213,0Z" transform="translate(21.066) rotate(90)" fill="#f8951d" stroke="#f8951d" stroke-linecap="round" stroke-linejoin="round" stroke-width="1"/>
      <circle id="Ellipse_3251" data-name="Ellipse 3251" cx="1.426" cy="1.426" r="1.426" transform="translate(15.466 3.053)" fill="#fff"/>
      <line id="Line_9109" data-name="Line 9109" x1="5.186" transform="translate(18.046 22.862)" fill="none" stroke="#f8951d" stroke-linecap="round" stroke-linejoin="round" stroke-width="1"/>
      <line id="Line_9110" data-name="Line 9110" x1="10.371" transform="translate(18.046 17.864)" fill="none" stroke="#f8951d" stroke-linecap="round" stroke-linejoin="round" stroke-width="1"/>
      <rect id="Rectangle_5686" data-name="Rectangle 5686" width="8.213" height="10.371" rx="1" transform="translate(5.289 15.174)" fill="#f8951d" stroke="#f8951d" stroke-linecap="round" stroke-linejoin="round" stroke-width="1"/>
    </g>
  </g>
</svg>
