<svg xmlns="http://www.w3.org/2000/svg" width="70" height="50" viewBox="0 0 70 50">
  <path id="quote" d="M27,23.5H22.036c2.322-6.724,4.3-9.944,10.9-12.693A2.5,2.5,0,0,0,31.975,6h0C18.208,6.024,10.3,11.542,4.7,25.028A34.431,34.431,0,0,0,2,38.5c0,7.232,2.187,11.17,5.523,16.353A2.5,2.5,0,0,0,9.624,56H27a7.508,7.508,0,0,0,7.5-7.5V31A7.508,7.508,0,0,0,27,23.5Zm37.5,0H59.536c2.322-6.724,4.3-9.944,10.9-12.693A2.5,2.5,0,0,0,69.475,6h0C55.708,6.024,47.8,11.542,42.2,25.028A34.431,34.431,0,0,0,39.5,38.5c0,7.232,2.188,11.17,5.523,16.353A2.5,2.5,0,0,0,47.124,56H64.5A7.508,7.508,0,0,0,72,48.5V31A7.508,7.508,0,0,0,64.5,23.5Z" transform="translate(-2 -6)" fill="#01355d"/>
</svg>
