<svg xmlns="http://www.w3.org/2000/svg" width="17.555" height="20.063" viewBox="0 0 17.555 20.063">
  <path id="Icon_awesome-percent" data-name="Icon awesome-percent" d="M4.389,8.777A4.389,4.389,0,1,0,0,4.389,4.387,4.387,0,0,0,4.389,8.777Zm0-6.27A1.881,1.881,0,1,1,2.508,4.389,1.881,1.881,0,0,1,4.389,2.508Zm8.777,8.777a4.389,4.389,0,1,0,4.389,4.389A4.387,4.387,0,0,0,13.166,11.285Zm0,6.27a1.881,1.881,0,1,1,1.881-1.881A1.881,1.881,0,0,1,13.166,17.555ZM15.372.008l1.238,0a.94.94,0,0,1,.772,1.481L3.033,19.655a.938.938,0,0,1-.768.4l-1.309,0a.94.94,0,0,1-.772-1.481L14.6.408A.938.938,0,0,1,15.372.008Z" fill="#dadde1"/>
</svg>
