<svg xmlns="http://www.w3.org/2000/svg" xmlns:xlink="http://www.w3.org/1999/xlink" width="1920" height="318" viewBox="0 0 1920 318">
  <defs>
    <clipPath id="clip-path">
      <rect id="Rectangle_4888" data-name="Rectangle 4888" width="1920" height="318" transform="translate(-13252 -23702)" fill="#161616"/>
    </clipPath>
    <clipPath id="clip-path-2">
      <rect id="Rectangle_4887" data-name="Rectangle 4887" width="1920" height="1280" transform="translate(-0.001)" fill="none" stroke="#f8951d" stroke-width="1"/>
    </clipPath>
  </defs>
  <g id="Mask_Group_5747" data-name="Mask Group 5747" transform="translate(13252 23702)" opacity="0.39" clip-path="url(#clip-path)">
    <g id="Group_7478" data-name="Group 7478" transform="translate(-13424.498 -24471.857)">
      <g id="Group_7476" data-name="Group 7476" transform="translate(172.499 184.857)" clip-path="url(#clip-path-2)">
        <g id="Group_7475" data-name="Group 7475" transform="translate(-81.437 -172.904)">
          <g id="Group_7472" data-name="Group 7472" transform="translate(0 514.075)">
            <path id="Path_28479" data-name="Path 28479" d="M159.466,1323.513c1175.33-378.9,1649.19-1528.376,2086.118-380.6" transform="translate(-111.316 -118.313)" fill="none" stroke="#f8951d" stroke-linecap="round" stroke-width="3" stroke-dasharray="0 9"/>
            <path id="Path_28480" data-name="Path 28480" d="M158.794,1282.4C1328.722,898.3,1797.177-162.311,2245.72,922.908" transform="translate(-112.364 -115.792)" fill="none" stroke="#f8951d" stroke-linecap="round" stroke-width="2.902" stroke-dasharray="0 8.821"/>
            <path id="Path_28481" data-name="Path 28481" d="M158.123,1241.357C1322.647,852.046,1785.7-119.7,2245.848,902.971" transform="translate(-113.411 -113.334)" fill="none" stroke="#f8951d" stroke-linecap="round" stroke-width="2.804" stroke-dasharray="0 8.643"/>
            <path id="Path_28482" data-name="Path 28482" d="M157.45,1200.386C1316.572,805.869,1774.221-77,2245.985,883.1" transform="translate(-114.461 -110.954)" fill="none" stroke="#f8951d" stroke-linecap="round" stroke-width="2.705" stroke-dasharray="0 8.464"/>
            <path id="Path_28483" data-name="Path 28483" d="M156.779,1159.514C1310.494,759.786,1762.741-34.216,2246.117,863.337" transform="translate(-115.508 -108.667)" fill="none" stroke="#f8951d" stroke-linecap="round" stroke-width="2.607" stroke-dasharray="0 8.286"/>
            <path id="Path_28484" data-name="Path 28484" d="M156.107,1118.755C1304.42,713.821,1751.263,8.687,2246.252,843.684" transform="translate(-116.556 -106.497)" fill="none" stroke="#f8951d" stroke-linecap="round" stroke-width="2.509" stroke-dasharray="0 8.107"/>
            <path id="Path_28485" data-name="Path 28485" d="M155.435,1078.143C1298.346,668,1739.788,51.736,2246.384,824.179" transform="translate(-117.605 -104.473)" fill="none" stroke="#f8951d" stroke-linecap="round" stroke-width="2.411" stroke-dasharray="0 7.929"/>
            <path id="Path_28486" data-name="Path 28486" d="M154.764,1037.717c1137.5-415.349,1573.544-942.743,2091.755-232.855" transform="translate(-118.651 -102.635)" fill="none" stroke="#f8951d" stroke-linecap="round" stroke-width="2.313" stroke-dasharray="0 7.75"/>
            <path id="Path_28487" data-name="Path 28487" d="M154.092,997.536c1132.1-420.559,1562.74-859.082,2092.561-211.75" transform="translate(-119.7 -101.043)" fill="none" stroke="#f8951d" stroke-linecap="round" stroke-width="2.214" stroke-dasharray="0 7.571"/>
            <path id="Path_28488" data-name="Path 28488" d="M153.42,957.676c1126.7-425.766,1551.932-775.418,2093.365-190.645" transform="translate(-120.748 -99.771)" fill="none" stroke="#f8951d" stroke-linecap="round" stroke-width="2.116" stroke-dasharray="0 7.393"/>
            <path id="Path_28489" data-name="Path 28489" d="M152.749,918.251C1274.04,487.278,1693.872,226.494,2246.918,748.714" transform="translate(-121.795 -98.934)" fill="none" stroke="#f8951d" stroke-linecap="round" stroke-width="2.018" stroke-dasharray="0 7.214"/>
            <path id="Path_28490" data-name="Path 28490" d="M152.077,879.421C1267.966,443.241,1682.4,271.328,2247.052,730.99" transform="translate(-122.843 -98.693)" fill="none" stroke="#f8951d" stroke-linecap="round" stroke-width="1.92" stroke-dasharray="0 7.036"/>
            <path id="Path_28491" data-name="Path 28491" d="M151.4,841.417C1261.893,400.032,1670.918,316.983,2247.187,714.091" transform="translate(-123.892 -99.277)" fill="none" stroke="#f8951d" stroke-linecap="round" stroke-width="1.821" stroke-dasharray="0 6.857"/>
            <path id="Path_28492" data-name="Path 28492" d="M150.733,804.551C1255.816,357.953,1659.44,363.78,2247.319,698.33" transform="translate(-124.94 -100.999)" fill="none" stroke="#f8951d" stroke-linecap="round" stroke-width="1.723" stroke-dasharray="0 6.679"/>
            <path id="Path_28493" data-name="Path 28493" d="M150.062,769.209c1099.679-451.8,1497.9-357.109,2097.39-85.113" transform="translate(-125.987 -104.245)" fill="none" stroke="#f8951d" stroke-linecap="round" stroke-width="1.625" stroke-dasharray="0 6.5"/>
            <path id="Path_28494" data-name="Path 28494" d="M149.391,735.786c1094.272-457.012,1487.092-273.448,2098.194-64.007" transform="translate(-127.034 -109.41)" fill="none" stroke="#f8951d" stroke-linecap="round" stroke-width="1.527" stroke-dasharray="0 6.321"/>
            <path id="Path_28495" data-name="Path 28495" d="M148.719,704.558c1088.87-462.222,1476.286-189.787,2099-42.9" transform="translate(-128.082 -116.768)" fill="none" stroke="#f8951d" stroke-linecap="round" stroke-width="1.429" stroke-dasharray="0 6.143"/>
            <path id="Path_28496" data-name="Path 28496" d="M148.047,675.578c1083.469-467.429,1465.478-106.126,2099.807-21.794" transform="translate(-129.13 -126.376)" fill="none" stroke="#f8951d" stroke-linecap="round" stroke-width="1.33" stroke-dasharray="0 5.964"/>
            <path id="Path_28497" data-name="Path 28497" d="M147.375,648.693c1078.062-472.634,1454.674-22.46,2100.61-.686" transform="translate(-130.179 -138.082)" fill="none" stroke="#f8951d" stroke-linecap="round" stroke-width="1.232" stroke-dasharray="0 5.786"/>
            <path id="Path_28498" data-name="Path 28498" d="M146.7,623.644c1072.66-477.841,1443.865,61.2,2101.417,20.417" transform="translate(-131.227 -151.618)" fill="none" stroke="#f8951d" stroke-linecap="round" stroke-width="1.134" stroke-dasharray="0 5.607"/>
            <path id="Path_28499" data-name="Path 28499" d="M146.031,600.127c1067.258-483.048,1433.062,144.863,2102.223,41.525" transform="translate(-132.276 -166.692)" fill="none" stroke="#f8951d" stroke-linecap="round" stroke-width="1.036" stroke-dasharray="0 5.429"/>
            <path id="Path_28500" data-name="Path 28500" d="M145.359,577.878C1207.213,89.62,1567.615,806.4,2248.389,640.508" transform="translate(-133.324 -183.029)" fill="none" stroke="#f8951d" stroke-linecap="round" stroke-width="0.938" stroke-dasharray="0 5.25"/>
            <path id="Path_28501" data-name="Path 28501" d="M144.688,556.66C1201.14,63.2,1556.137,868.848,2248.521,640.4" transform="translate(-134.371 -200.402)" fill="none" stroke="#f8951d" stroke-linecap="round" stroke-width="0.839" stroke-dasharray="0 5.071"/>
            <path id="Path_28502" data-name="Path 28502" d="M144.016,536.292C1195.061,37.62,1544.657,932.141,2248.653,641.138" transform="translate(-135.419 -218.622)" fill="none" stroke="#f8951d" stroke-linecap="round" stroke-width="0.741" stroke-dasharray="0 4.893"/>
            <path id="Path_28503" data-name="Path 28503" d="M143.345,516.623c1045.64-503.882,1389.832,479.51,2105.441,125.949" transform="translate(-136.466 -237.538)" fill="none" stroke="#f8951d" stroke-linecap="round" stroke-width="0.643" stroke-dasharray="0 4.714"/>
            <path id="Path_28504" data-name="Path 28504" d="M142.673,497.53C1182.912-11.56,1521.7,1060.7,2248.918,644.584" transform="translate(-137.514 -257.034)" fill="none" stroke="#f8951d" stroke-linecap="round" stroke-width="0.545" stroke-dasharray="0 4.536"/>
            <path id="Path_28505" data-name="Path 28505" d="M142,478.917c1034.832-514.291,1368.22,646.832,2107.051,168.165" transform="translate(-138.561 -277.012)" fill="none" stroke="#f8951d" stroke-linecap="round" stroke-width="0.446" stroke-dasharray="0 4.357"/>
            <path id="Path_28506" data-name="Path 28506" d="M141.33,460.714c1029.43-519.5,1357.414,730.493,2107.856,189.27" transform="translate(-139.61 -297.395)" fill="none" stroke="#f8951d" stroke-linecap="round" stroke-width="0.348" stroke-dasharray="0 4.179"/>
            <path id="Path_28507" data-name="Path 28507" d="M140.658,442.854C1164.684-81.857,1487.265,1257.009,2249.32,653.229" transform="translate(-140.658 -318.123)" fill="none" stroke="#f8951d" stroke-linecap="round" stroke-width="0.25" stroke-dasharray="0 4"/>
          </g>
          <g id="Group_7473" data-name="Group 7473" transform="translate(780.828 1085.714)" style="mix-blend-mode: overlay;isolation: isolate">
            <path id="Path_28508" data-name="Path 28508" d="M445.658,983.94S1203.445,263.275,1692.5,661.274" transform="translate(-445.658 -541.411)" fill="none" stroke="#f8951d" stroke-linecap="round" stroke-width="0.25" stroke-dasharray="0 4"/>
            <path id="Path_28509" data-name="Path 28509" d="M446.052,982.262s751.84-713.036,1245.83-312.139" transform="translate(-445.043 -531.413)" fill="none" stroke="#f8951d" stroke-linecap="round" stroke-width="0.375" stroke-dasharray="0 4"/>
            <path id="Path_28510" data-name="Path 28510" d="M446.444,980.61s745.9-705.4,1244.826-301.617" transform="translate(-444.432 -521.44)" fill="none" stroke="#f8951d" stroke-linecap="round" stroke-width="0.5" stroke-dasharray="0 4"/>
            <path id="Path_28511" data-name="Path 28511" d="M446.837,978.982s739.956-697.776,1243.82-291.092" transform="translate(-443.819 -511.492)" fill="none" stroke="#f8951d" stroke-linecap="round" stroke-width="0.625" stroke-dasharray="0 4"/>
            <path id="Path_28512" data-name="Path 28512" d="M447.23,977.379s734.014-690.146,1242.814-280.565" transform="translate(-443.205 -501.569)" fill="none" stroke="#f8951d" stroke-linecap="round" stroke-width="0.75" stroke-dasharray="0 4"/>
            <path id="Path_28513" data-name="Path 28513" d="M447.623,975.8s728.072-682.515,1241.808-270.041" transform="translate(-442.592 -491.672)" fill="none" stroke="#f8951d" stroke-linecap="round" stroke-width="0.875" stroke-dasharray="0 4"/>
            <path id="Path_28514" data-name="Path 28514" d="M448.016,974.253s722.125-674.886,1240.8-259.519" transform="translate(-441.979 -481.802)" fill="none" stroke="#f8951d" stroke-linecap="round" stroke-width="1" stroke-dasharray="0 4"/>
            <path id="Path_28515" data-name="Path 28515" d="M448.408,972.728s716.185-667.254,1239.8-248.992" transform="translate(-441.368 -471.957)" fill="none" stroke="#f8951d" stroke-linecap="round" stroke-width="1.125" stroke-dasharray="0 4"/>
            <path id="Path_28516" data-name="Path 28516" d="M448.8,971.232s710.241-659.625,1238.792-238.47" transform="translate(-440.755 -462.141)" fill="none" stroke="#f8951d" stroke-linecap="round" stroke-width="1.25" stroke-dasharray="0 4"/>
            <path id="Path_28517" data-name="Path 28517" d="M449.194,969.763s704.3-651.994,1237.786-227.945" transform="translate(-440.141 -452.351)" fill="none" stroke="#f8951d" stroke-linecap="round" stroke-width="1.375" stroke-dasharray="0 4"/>
            <path id="Path_28518" data-name="Path 28518" d="M449.587,968.322S1147.944,323.957,1686.366,750.9" transform="translate(-439.528 -442.59)" fill="none" stroke="#f8951d" stroke-linecap="round" stroke-width="1.5" stroke-dasharray="0 4"/>
            <path id="Path_28519" data-name="Path 28519" d="M449.979,966.909s692.412-636.733,1235.776-206.894" transform="translate(-438.917 -432.857)" fill="none" stroke="#f8951d" stroke-linecap="round" stroke-width="1.625" stroke-dasharray="0 4"/>
            <path id="Path_28520" data-name="Path 28520" d="M450.372,965.526s686.473-629.1,1234.77-196.369" transform="translate(-438.304 -423.153)" fill="none" stroke="#f8951d" stroke-linecap="round" stroke-width="1.75" stroke-dasharray="0 4"/>
            <path id="Path_28521" data-name="Path 28521" d="M450.766,964.172S1131.289,342.7,1684.527,778.327" transform="translate(-437.689 -413.479)" fill="none" stroke="#f8951d" stroke-linecap="round" stroke-width="1.875" stroke-dasharray="0 4"/>
            <path id="Path_28522" data-name="Path 28522" d="M451.158,962.848s674.584-613.843,1232.758-175.32" transform="translate(-437.077 -403.835)" fill="none" stroke="#f8951d" stroke-linecap="round" stroke-width="2" stroke-dasharray="0 4"/>
          </g>
          <g id="Group_7474" data-name="Group 7474" transform="translate(66.457)" style="mix-blend-mode: overlay;isolation: isolate">
            <path id="Path_28523" data-name="Path 28523" d="M1420.828,162.939S646,865.249,166.617,455.644" transform="translate(-166.617 -46.148)" fill="none" stroke="#f8951d" stroke-linecap="round" stroke-width="0.25" stroke-dasharray="0 4"/>
            <path id="Path_28524" data-name="Path 28524" d="M1419.743,159.68S651.04,854.5,166.794,441.892" transform="translate(-166.341 -51.232)" fill="none" stroke="#f8951d" stroke-linecap="round" stroke-width="0.375" stroke-dasharray="0 4"/>
            <path id="Path_28525" data-name="Path 28525" d="M1418.665,156.421S656.083,843.759,166.97,428.136" transform="translate(-166.066 -56.316)" fill="none" stroke="#f8951d" stroke-linecap="round" stroke-width="0.5" stroke-dasharray="0 4"/>
            <path id="Path_28526" data-name="Path 28526" d="M1417.584,153.163S661.128,833.015,167.146,414.379" transform="translate(-165.792 -61.399)" fill="none" stroke="#f8951d" stroke-linecap="round" stroke-width="0.625" stroke-dasharray="0 4"/>
            <path id="Path_28527" data-name="Path 28527" d="M1416.5,149.9S666.167,822.269,167.323,400.625" transform="translate(-165.516 -66.482)" fill="none" stroke="#f8951d" stroke-linecap="round" stroke-width="0.75" stroke-dasharray="0 4"/>
            <path id="Path_28528" data-name="Path 28528" d="M1415.42,146.647S671.212,811.525,167.5,386.865" transform="translate(-165.241 -71.565)" fill="none" stroke="#f8951d" stroke-linecap="round" stroke-width="0.875" stroke-dasharray="0 4"/>
            <path id="Path_28529" data-name="Path 28529" d="M1414.337,143.387S676.256,800.785,167.676,373.112" transform="translate(-164.965 -76.651)" fill="none" stroke="#f8951d" stroke-linecap="round" stroke-width="1" stroke-dasharray="0 4"/>
            <path id="Path_28530" data-name="Path 28530" d="M1413.258,140.129S681.3,790.039,167.851,359.357" transform="translate(-164.692 -81.733)" fill="none" stroke="#f8951d" stroke-linecap="round" stroke-width="1.125" stroke-dasharray="0 4"/>
            <path id="Path_28531" data-name="Path 28531" d="M1412.18,136.87S686.34,779.294,168.027,345.6" transform="translate(-164.417 -86.818)" fill="none" stroke="#f8951d" stroke-linecap="round" stroke-width="1.25" stroke-dasharray="0 4"/>
            <path id="Path_28532" data-name="Path 28532" d="M1411.094,133.612S691.381,768.55,168.2,331.845" transform="translate(-164.141 -91.9)" fill="none" stroke="#f8951d" stroke-linecap="round" stroke-width="1.375" stroke-dasharray="0 4"/>
            <path id="Path_28533" data-name="Path 28533" d="M1410.012,130.354S696.425,757.8,168.381,318.088" transform="translate(-163.865 -96.983)" fill="none" stroke="#f8951d" stroke-linecap="round" stroke-width="1.5" stroke-dasharray="0 4"/>
            <path id="Path_28534" data-name="Path 28534" d="M1408.934,127.1S701.473,747.06,168.557,304.328" transform="translate(-163.59 -102.066)" fill="none" stroke="#f8951d" stroke-linecap="round" stroke-width="1.625" stroke-dasharray="0 4"/>
            <path id="Path_28535" data-name="Path 28535" d="M1407.852,123.836S706.513,736.317,168.733,290.575" transform="translate(-163.316 -107.152)" fill="none" stroke="#f8951d" stroke-linecap="round" stroke-width="1.75" stroke-dasharray="0 4"/>
            <path id="Path_28536" data-name="Path 28536" d="M1406.773,120.578S711.554,725.573,168.91,276.82" transform="translate(-163.04 -112.235)" fill="none" stroke="#f8951d" stroke-linecap="round" stroke-width="1.875" stroke-dasharray="0 4"/>
            <path id="Path_28537" data-name="Path 28537" d="M1405.69,117.319S716.6,714.829,169.085,263.062" transform="translate(-162.767 -117.319)" fill="none" stroke="#f8951d" stroke-linecap="round" stroke-width="2" stroke-dasharray="0 4"/>
          </g>
        </g>
      </g>
    </g>
  </g>
</svg>
