<svg xmlns="http://www.w3.org/2000/svg" width="37.149" height="44.578"><path d="M24.147 39.006a5.7 5.7 0 0 1-5.518 5.572A5.79 5.79 0 0 1 13 39.006zM24.4 7.328c-1.2-.702-1.937-2-1.934-3.38V3.94c0-2.15-1.743-3.894-3.894-3.894S14.678 1.8 14.678 3.94v.006a3.9 3.9 0 0 1-1.934 3.381C4.075 12.36 9.06 29.087 0 32.043v3.25h37.15v-3.25C28.1 29.087 33.075 12.357 24.4 7.328zm-5.827-5.47c1.026 0 1.857.83 1.857 1.857s-.83 1.857-1.857 1.857-1.857-.83-1.857-1.857a1.86 1.86 0 0 1 1.858-1.858zM6.592 31.576c2.208-3.1 2.98-7.227 3.648-10.8.83-4.44 1.614-8.633 4.372-10.233 2.443-1.45 5.483-1.45 7.926 0 2.758 1.6 3.542 5.793 4.372 10.233.667 3.574 1.44 7.7 3.648 10.8z" fill="#f8951d"/></svg>