<svg xmlns="http://www.w3.org/2000/svg" width="52.295" height="54.469"><path d="M41.302 6.892a.82.82 0 0 0-.8.8v5.54a.8.8 0 0 0 1.6 0v-5.54c-.1-.507-.372-.825-.8-.8z"/><path d="M41.302 11.215a.82.82 0 0 1-.8-.8V4.88a.8.8 0 0 1 1.6 0v5.54c-.094.507-.372.817-.8.793zm0 4.028a.8.8 0 0 0-.8.8v.234a.8.8 0 0 0 1.6 0v-.234a.8.8 0 0 0-.8-.8zM48.8 0h-14a3.49 3.49 0 0 0-3.484 3.484V9.8c-2.7-3.912-7.168-6.247-11.928-6.248H15.83C11.655 3.558 7.784 5.735 5.612 9.3c-2.938.917-4.902 3.683-4.8 6.76l.2 6.962a3.18 3.18 0 0 0-1.009 2.324v.755a3.19 3.19 0 0 0 3.188 3.187h2.14a12.78 12.78 0 0 0 2.364 3.748L4.045 38.1a.8.8 0 0 0-.125.266L.24 52.513c-.122.468-.02.967.276 1.35s.753.607 1.237.607H31.43c.534 0 1.044-.222 1.408-.613s.55-.916.5-1.45l-.3-4.136a7.76 7.76 0 0 0-.826-2.977.8.8 0 1 0-1.422.723c.375.738.6 1.544.657 2.37l.3 4.135c.007.1-.025.18-.087.247s-.15.104-.24.104h-3.68v-3.26a.8.8 0 0 0-1.6 0v3.26H8.68l2.036-7.832c.008-.028.035-.045.064-.04h3.525c.7 0 1.37-.168 1.982-.5.516.094 1.04.14 1.565.14a8.56 8.56 0 0 0 5.937-2.361h0c.156.032.038.01 2.4.38a6.2 6.2 0 0 1 2.413.917.8.8 0 1 0 .864-1.342 7.78 7.78 0 0 0-3.03-1.151c-.862-.096-1.718-.242-2.563-.438a1.53 1.53 0 0 1-.98-1.411 2.63 2.63 0 0 0 1.485-3.25 14.14 14.14 0 0 0 5.993-6.705h1.5a3.19 3.19 0 0 0 3.19-3.19v-.75a3.18 3.18 0 0 0-1.142-2.442v-2.054a3.48 3.48 0 0 0 .887.116h2.514a.53.53 0 0 1 .373.154c.1.098.154.233.154.373v2.266a1.28 1.28 0 0 0 .877 1.227c.138.047.282.072.428.072a1.28 1.28 0 0 0 1.016-.5l2.64-3.4c.1-.118.23-.186.38-.186h5.624a3.49 3.49 0 0 0 3.484-3.484v-14a3.49 3.49 0 0 0-1.019-2.469A3.49 3.49 0 0 0 48.809 0zM1.596 26.1v-.75c.001-.88.713-1.592 1.593-1.593h1.3a13.1 13.1 0 0 0 .328 3.933h-1.62c-.878-.001-1.6-.713-1.592-1.6zM17.88 43.05a4.23 4.23 0 0 0 .686-2.314V39.46H21.3a3.12 3.12 0 0 0 .964 2.034C21.03 42.5 19.48 43.05 17.88 43.05zm3.948-5.185H18.38a1.42 1.42 0 0 0-1.415 1.415v1.456a2.67 2.67 0 0 1-2.663 2.663H10.78c-.753 0-1.4.5-1.6 1.238L7.04 52.87H1.792L5.424 38.9l6.1-8.462a1.05 1.05 0 0 1 .69-.426 1.07 1.07 0 0 1 .8.193l.04.028a.99.99 0 0 1 .412.787.98.98 0 0 1-.18.6l-1.487 2.125a1.29 1.29 0 0 0 1.055 2.028h9c.28 0 .546.1.742.3a1.05 1.05 0 0 1 .303.745 1.07 1.07 0 0 1-1.092 1.039zM33.466 26.1c-.001.88-.713 1.6-1.592 1.592h-.985a12.05 12.05 0 0 0 .35-2.88c0-.356-.008-.708-.02-1.054h.657c.88.001 1.6.714 1.592 1.593zm-1.592-3.937h-.772a21.58 21.58 0 0 0-.427-2.588c-.386-1.615-1.785-2.786-3.442-2.882a25.07 25.07 0 0 1-9.118-2.318c-.8-.377-1.754-.124-2.26.6a1.14 1.14 0 0 1-.91.462 3.2 3.2 0 0 1-1.933-.966 16.4 16.4 0 0 1-1.577-1.571c-.395-.445-.962-.7-1.558-.7h0c-.593.001-1.157.256-1.55.7a13.58 13.58 0 0 0-1.98 2.956.8.8 0 1 0 1.428.712 12 12 0 0 1 1.746-2.61.47.47 0 0 1 .356-.16c.14 0 .273.06.365.166a17.98 17.98 0 0 0 1.733 1.73 4.8 4.8 0 0 0 2.954 1.351 2.73 2.73 0 0 0 2.252-1.177c.066-.075.174-.095.262-.048a26.7 26.7 0 0 0 9.7 2.465 2.16 2.16 0 0 1 1.977 1.649 20.23 20.23 0 0 1 .461 3.086 24.18 24.18 0 0 1 .065 1.793c.003 1.162-.2 2.316-.573 3.413a12.46 12.46 0 0 1-5.63 6.47 2.62 2.62 0 0 0-1.566-.514h-8.422l1.148-1.64a2.6 2.6 0 0 0-.6-3.6l-.04-.028a2.66 2.66 0 0 0-3.723.59l-1.6 2.2a11 11 0 0 1-2.02-3.482c-.547-1.678-.72-3.455-.508-5.207a20.14 20.14 0 0 1 .473-3.152.8.8 0 1 0-1.553-.367c-.205.877-.353 1.767-.445 2.663h-1.4a3.09 3.09 0 0 0-.606.06l-.18-6.2a5.26 5.26 0 0 1 3.938-5.263.8.8 0 0 0 .491-.376c1.846-3.23 5.28-5.225 9-5.23h3.56c7.136.01 12.918 5.792 12.925 12.928v4.12a3.2 3.2 0 0 0-.45-.032zM50.7 17.487a1.89 1.89 0 0 1-1.888 1.888h-5.624a2.07 2.07 0 0 0-1.64.8l-2.106 2.714V21.5c-.002-1.17-.95-2.12-2.122-2.122h-2.513c-.3.001-.614-.076-.887-.222v-1.08a14.45 14.45 0 0 0-1-5.3v-9.3A1.89 1.89 0 0 1 34.807 1.6h14a1.89 1.89 0 0 1 1.889 1.888zm-36.886 8.116a.8.8 0 0 0 .8-.8v-.9a.8.8 0 0 0-1.6 0v.9a.8.8 0 0 0 .8.8zm11.926 0a.8.8 0 0 0 .8-.8v-.9a.8.8 0 0 0-1.6 0v.9a.8.8 0 0 0 .8.8zm-7.337 3.925a2.91 2.91 0 0 1 3.189 0 .8.8 0 0 0 .8-1.378 4.53 4.53 0 0 0-4.8 0 .8.8 0 0 0 .8 1.378z"/></svg>