<svg xmlns="http://www.w3.org/2000/svg" width="23" height="23" viewBox="0 0 23 23">
  <g id="Group_7" data-name="Group 7" transform="translate(-392 -10)">
    <g id="Ellipse_1" data-name="Ellipse 1" transform="translate(392 10)" fill="#2d2d2d" stroke="#fff" stroke-width="1">
      <circle cx="11.5" cy="11.5" r="11.5" stroke="none"/>
      <circle cx="11.5" cy="11.5" r="11" fill="none"/>
    </g>
    <g id="Group_6" data-name="Group 6" transform="translate(289.506 -65.515)">
      <path id="body-bg" d="M111.511,387.9s-.468-3.612,3.141-3.937h.867a1.18,1.18,0,0,1,.483-.183v-.518a2.728,2.728,0,0,0,2.2.017v.467s.048-.09.533.233h1.3s2.763.341,2.763,3.92Z" transform="translate(-3.136 -292.656)" fill="#fff"/>
      <path id="Rounded_Rectangle_13_copy_4" data-name="Rounded Rectangle 13 copy 4" d="M119.554,403.135H108.228l.053-.918a3.266,3.266,0,0,1,3.136-3.164h1.112a.771.771,0,0,0-.163.185h-.851a3.144,3.144,0,0,0-3.022,3.043l-.037.638h11.068l-.021-.638a3.144,3.144,0,0,0-3.022-3.043h-.852a.707.707,0,0,0-.143-.185h1.084a3.266,3.266,0,0,1,3.136,3.164l.054.918Zm-4.4-3.9H115.1v-.185h.065C115.159,399.1,115.156,399.162,115.156,399.238Zm-2.343-.185h.069v.185h-.06C112.821,399.159,112.818,399.1,112.813,399.053Z" transform="translate(0 -307.825)" fill="#3b434f" fill-rule="evenodd"/>
      <path id="Ellipse_5" data-name="Ellipse 5" d="M266.357,464.333a.117.117,0,0,1,0,.234.117.117,0,1,1,0-.234Z" transform="translate(-151.842 -370.555)" fill="#3b434f"/>
      <path id="Ellipse_5_copy" data-name="Ellipse 5 copy" d="M266.357,483.96a.118.118,0,0,1,.117.117.117.117,0,1,1-.117-.117Z" transform="translate(-151.842 -389.416)" fill="#3b434f"/>
      <path id="Shape_2_copy_9" data-name="Shape 2 copy 9" d="M210.717,385.276l-.85,1.266a.663.663,0,0,0-.9-.45v2.117a.118.118,0,0,1-.233,0v-2.117a.661.661,0,0,0-.9.45l-.849-1.266a.913.913,0,0,1,.666-1.2v-.383h.188V384.9a1.011,1.011,0,0,0,2.021,0v-1.206h.188v.383A.913.913,0,0,1,210.717,385.276Zm-2.891.111a1.183,1.183,0,0,1-.111-.178,1.6,1.6,0,0,1-.063-.3v-.422c-.015-.19-.05-.194-.05-.194-.741.365-.416.934-.416.934l.615.965c.241-.407.5-.332.5-.332A1.144,1.144,0,0,1,207.826,385.387Zm2.274-1.095s-.036,0-.05.194v.422a1.594,1.594,0,0,1-.063.3,1.165,1.165,0,0,1-.111.178,1.15,1.15,0,0,1-.476.472s.259-.075.5.332l.616-.965S210.842,384.658,210.1,384.292Z" transform="translate(-94.852 -293.064)" fill="#3b434f" fill-rule="evenodd"/>
      <path id="_3_copy_5" data-name="3 copy 5" d="M165.684,124c2.082,0,3.67,1.17,3.67,3.971l-.091,2.42c-.554,3.106-1.948,3.84-3.58,3.84s-3.089-.764-3.579-3.84l-.091-2.42C162.014,125.182,163.6,124,165.684,124Z" transform="translate(-51.686 -43.512)" fill="#fff"/>
      <path id="_3_copy_6" data-name="3 copy 6" d="M165.046,123.394c-.582,3.238-2.043,4-3.754,4s-3.239-.8-3.753-4l-.1-2.522c0-2.907,1.666-4.139,3.848-4.139s3.849,1.22,3.849,4.139Zm-3.754-6.444c-2.04,0-3.6,1.182-3.6,3.971l.089,2.419c.481,3.075,1.909,3.84,3.509,3.84s2.966-.734,3.509-3.84l.09-2.419C164.891,118.12,163.333,116.95,161.292,116.95Z" transform="translate(-47.294 -36.53)" fill="#3b434f" fill-rule="evenodd"/>
      <path id="usta" d="M214.085,320.97a3.353,3.353,0,0,1-3.566,0s-.031-.085.015-.131a.156.156,0,0,1,.119-.036,3.075,3.075,0,0,0,3.3,0s.074-.028.11.009A.139.139,0,0,1,214.085,320.97Z" transform="translate(-98.287 -232.622)" fill="#3b434f"/>
      <path id="_-" data-name="-" d="M242.347,348.707h1.066v.167h-1.066Z" transform="translate(-128.881 -259.445)" fill="#3b434f"/>
      <path id="Shape_11_copy" data-name="Shape 11 copy" d="M137.508,229.315a.423.423,0,0,0-.117-.057.569.569,0,0,0-.139-.025h-.042l-.044,0a.544.544,0,0,0-.09.018.488.488,0,0,0-.323.3,1.011,1.011,0,0,0-.068.34q0,.052,0,.11c0,.038,0,.079.006.121.006.084.018.176.035.277a2.052,2.052,0,0,0,.092.652,1.231,1.231,0,0,0,.8.88c-.052-.866-.053-1.749-.108-2.618Z" transform="translate(-27.344 -144.637)" fill="#fff"/>
      <path id="Shape_3" data-name="Shape 3" d="M135.1,225.2s-.788-.244-.76.566c0,0,.117,1.174.168,1.283,0,0,.309.683.82.714h0l.006.221a1.325,1.325,0,0,1-1.071-1.15l-.137-.939s-.106-1.243.924-.927h0l.049.233" transform="translate(-24.883 -140.489)" fill="#3b434f"/>
      <path id="Shape_4" data-name="Shape 4" d="M146.446,247.619a.172.172,0,0,1-.082.033.167.167,0,0,1-.081-.033l-.081-.82s.112-.4.588-.19l.011.234s-.417-.148-.408.037S146.446,247.619,146.446,247.619Z" transform="translate(-36.491 -161.274)" fill="#3b434f"/>
      <path id="Shape_3_1" data-name="Shape 3_1" d="M341.361,225.255s.791-.245.763.565c0,0-.118,1.174-.169,1.282,0,0-.311.684-.823.714h0l-.007.22a1.327,1.327,0,0,0,1.076-1.148l.138-.939s.106-1.243-.929-.926h0l-.048.234" transform="translate(-223.595 -140.54)" fill="#3b434f"/>
      <path id="Shape_4_1" data-name="Shape 4_1" d="M350.4,247.656a.175.175,0,0,0,.082.033.165.165,0,0,0,.081-.033l.082-.819s-.112-.4-.591-.19l-.01.234s.418-.148.41.036S350.4,247.656,350.4,247.656Z" transform="translate(-232.375 -161.311)" fill="#3b434f"/>
      <path id="Shape_11" data-name="Shape 11" d="M349.682,229.342a.4.4,0,0,1,.118-.057.557.557,0,0,1,.14-.025h.041l.044,0a.5.5,0,0,1,.091.017.491.491,0,0,1,.323.3,1.035,1.035,0,0,1,.069.341c0,.036,0,.072,0,.111s0,.079-.005.121c-.006.085-.018.177-.036.279a2.106,2.106,0,0,1-.092.654,1.235,1.235,0,0,1-.8.884c.053-.871.054-1.757.109-2.63Z" transform="translate(-231.921 -144.662)" fill="#fff"/>
      <path id="Shape_3_2" data-name="Shape 3_2" d="M341.8,225.255s.791-.245.763.565c0,0-.117,1.174-.168,1.282,0,0-.311.684-.824.714h0l-.005.22a1.325,1.325,0,0,0,1.074-1.148l.138-.939s.107-1.243-.927-.926h0l-.05.234" transform="translate(-224.017 -140.54)" fill="#3b434f"/>
      <path id="Shape_4_2" data-name="Shape 4_2" d="M350.842,247.656h.164l.081-.819s-.112-.4-.591-.19l-.011.234s.419-.148.41.036S350.842,247.656,350.842,247.656Z" transform="translate(-232.798 -161.311)" fill="#3b434f"/>
      <path id="new_vector_shape_done" d="M254.063,272.333h.058a2.088,2.088,0,0,1,.233.634.472.472,0,0,1-.016.232c-.063.174-.262.173-.425.25a.457.457,0,0,1-.133.066c-.037-.032-.082-.038-.1-.09-.045-.062.013-.1.058-.126.082-.043.336-.088.367-.166.037-.042.013-.171,0-.217a2.614,2.614,0,0,0-.092-.316c-.029-.069-.079-.142-.049-.226A.381.381,0,0,0,254.063,272.333Z" transform="translate(-139.757 -186.054)" fill="#3b434f" fill-rule="evenodd"/>
      <path id="oko" d="M200.866,236.067a.333.333,0,1,1-.333.333A.333.333,0,0,1,200.866,236.067Z" transform="translate(-88.7 -151.204)" fill="#3b434f"/>
      <path id="oko_1" d="M295.586,236.067a.333.333,0,1,1-.334.333A.334.334,0,0,1,295.586,236.067Z" transform="translate(-179.722 -151.204)" fill="#3b434f"/>
      <path id="Ellipse_3_copy_3" data-name="Ellipse 3 copy 3" d="M297.376,267.64a.417.417,0,1,1-.416.418A.417.417,0,0,1,297.376,267.64Z" transform="translate(-181.362 -181.543)" fill="#edf1f1"/>
      <path id="Ellipse_3_copy_4" data-name="Ellipse 3 copy 4" d="M194.124,267.64a.417.417,0,1,1-.417.418A.417.417,0,0,1,194.124,267.64Z" transform="translate(-82.141 -181.543)" fill="#edf1f1"/>
      <path id="fill" d="M148.89,87.678s1.1-.556.976-2.469c0,0,1.755,1.923,5.985,1.337l.2,1.8s2.486-4.608-1.966-5.665c-4.357-1.034-4.408,1.695-4.408,1.695a1.217,1.217,0,0,0-1.448,1.1,8.361,8.361,0,0,0,.291,2.669l.333.267Z" transform="translate(-38.42 -3.581)" fill="#c1bfbd"/>
      <path id="line" d="M153.244,84.964l-.25-1.883c-4.23.513-5.785-1.2-5.785-1.2-.063,1.913-.993,2.269-.993,2.269l-.07.767-.466-.267a8.653,8.653,0,0,1-.341-2.753,1.248,1.248,0,0,1,1.465-1.2s.161-2.805,4.508-1.728C156.056,80.141,153.244,84.964,153.244,84.964ZM151.278,79.2c-4.37-.981-4.282,1.75-4.282,1.75s-1.313-.354-1.424.946a8.158,8.158,0,0,0,.258,2.586l.15.117.02-.567s1.1-.378.976-2.652c0,0,1.568,2.055,6.2,1.47l.166,1.5S155.369,80.117,151.278,79.2Z" transform="translate(-35.647 0)" fill="#3b434f" fill-rule="evenodd"/>
      <path id="R_copy" data-name="R copy" d="M278.926,213.243a1.587,1.587,0,0,1,1.71.058l.188.029s-.241-.878-2-.306l.049.163m.038,0a1.421,1.421,0,0,1,1.685.153l.345-.01s-.43-.938-2.195-.346l.165.242" transform="translate(-163.86 -128.833)" fill="#3b434f"/>
      <path id="R_copy_3" data-name="R copy 3" d="M179,213.427a1.588,1.588,0,0,0-1.7.058l-.188.029s.241-.871,1.993-.3l-.049.162m-.039,0a1.422,1.422,0,0,0-1.678.152l-.344-.01s.428-.93,2.187-.344l-.165.24" transform="translate(-66.078 -129.014)" fill="#3b434f"/>
    </g>
  </g>
</svg>
