<svg xmlns="http://www.w3.org/2000/svg" width="15.968" height="16.128" viewBox="0 0 15.968 16.128">
  <g id="Group_3" data-name="Group 3" transform="translate(-2 -2)">
    <path id="Path_2" data-name="Path 2" d="M4.755,17.833l.439.3.439-.3c.12-.072,2.755-1.86,2.755-4.655a3.194,3.194,0,1,0-6.387,0C2,15.972,4.635,17.761,4.755,17.833ZM4.4,12.38h1.6v1.6H4.4Zm7.186-7.186c0,2.794,2.635,4.583,2.755,4.655l.439.3.439-.3c.12-.072,2.755-1.86,2.755-4.655a3.194,3.194,0,0,0-6.387,0Zm3.992.8h-1.6V4.4h1.6Z" fill="#f8951d"/>
    <path id="Path_3" data-name="Path 3" d="M17,17H12v2h7V14H17Z" transform="translate(-3.101 -3.215)" fill="#f8951d"/>
    <path id="Path_4" data-name="Path 4" d="M7,7h5V5H5v5H7Z" transform="translate(-0.93)" fill="#f8951d"/>
  </g>
</svg>
