<svg xmlns="http://www.w3.org/2000/svg" width="37.433" height="40" viewBox="0 0 37.433 40">
  <g id="Group_5645" data-name="Group 5645" transform="translate(-5139.784 118)">
    <g id="Group_5644" data-name="Group 5644">
      <g id="Group_5642" data-name="Group 5642">
        <path id="Path_22230" data-name="Path 22230" d="M5158.239-89.6l-2.677,1.428c-.669.357-.393,4-.393,4v3.32l2.677,2c.669.5,4.106-.643,4.106-.643l1.678.821,3.035-.536,1.856-2.285-.179-5.462-1.678-2.178-5-.464Z" fill="#ee1f1f"/>
        <g id="Group_5641" data-name="Group 5641">
          <path id="Path_22229" data-name="Path 22229" d="M5154.557-104.763c.232,0,15.688-.046,17.219,0a17.761,17.761,0,0,1,3.11.464c.777.116,1.183,1.74,1.578,2.321s-.8,1.532-1.067,2.042-2,.928-2,.928V-81l-4.084-.418-.929-.418c-.232-.1,0-5.569,0-5.569l-2.413-2.135h-9.7v-11.185Z" fill="#faa41a"/>
          <g id="Group_5640" data-name="Group 5640">
            <circle id="Ellipse_2880" data-name="Ellipse 2880" cx="3" cy="3" r="3" transform="translate(5145 -93)" fill="#fee37b"/>
            <g id="Group_5639" data-name="Group 5639">
              <path id="Path_22228" data-name="Path 22228" d="M5144.81-109.211l-4.462,9.14.214,4.427,2.5-2.035c.625-.509,2.6-.348,3.463-.464s2.2.857,2.927,1.142,2.972-.161,3.963-.214,1.981-1.232,2.642-1.642,0-1.66,0-2.213-4.32-9.318-4.32-9.318h-6.926Z" fill="rgba(198,218,233,0.97)"/>
              <g id="Group_5638" data-name="Group 5638">
                <path id="Path_22227" data-name="Path 22227" d="M5143.619-114.266v3.62h9.839v-3.62Z" fill="#3e4eb4"/>
                <path id="Path_22226" data-name="Path 22226" d="M38.918,14.971H20.306l-1.911-4.155h.374a.833.833,0,0,0,.831-.831V5.831A.833.833,0,0,0,18.769,5H8.8a.833.833,0,0,0-.831.831V9.985a.833.833,0,0,0,.831.831h.374l-4.03,8.808h0c0,.042,0,.042-.042.083v19.36a.833.833,0,0,0,.831.831H20.14a4.694,4.694,0,0,0,4.155,2.493h.872a4.587,4.587,0,0,0,1.953-.415,5.136,5.136,0,0,0,1.953.415h.872A4.6,4.6,0,0,0,34.1,39.9H39a.833.833,0,0,0,.831-.831V21.951a3.566,3.566,0,0,0,2.7-3.448A3.656,3.656,0,0,0,38.918,14.971ZM9.628,6.662h8.309V9.155H9.628ZM20.846,31.423A4.444,4.444,0,0,0,19.6,34.5v3.739H6.72V24.651l2.077-1,.083-.042a5.106,5.106,0,0,1,3.033-.457,5.041,5.041,0,0,1,1.537.457,6.869,6.869,0,0,0,5.983,0l1.454-.706v8.517Zm0-10.345-2.077,1-.083.042a5.106,5.106,0,0,1-3.033.457,5.041,5.041,0,0,1-1.537-.457,6.869,6.869,0,0,0-5.983,0l-1.413.665V20.123l.083-.166,4.2-9.14h5.567l4.2,9.14.083.166v.956ZM32.894,37.821a2.972,2.972,0,0,1-3.033,2.908h-.872a2.851,2.851,0,0,1-1.537-.415.683.683,0,0,0-.415-.083,1.229,1.229,0,0,0-.415.083,3.271,3.271,0,0,1-1.537.415h-.872a2.972,2.972,0,0,1-3.033-2.908V34.5a2.972,2.972,0,0,1,3.033-2.908h.872a3.562,3.562,0,0,1,1.122.208v1.039a.831.831,0,0,0,1.662,0V31.8a3.172,3.172,0,0,1,1.122-.208h.872A2.972,2.972,0,0,1,32.894,34.5Zm6.024-17.449a.833.833,0,0,0-.831.831V38.237H34.556V34.5a4.638,4.638,0,0,0-4.695-4.57h-.872a5.157,5.157,0,0,0-1.122.125V29.1a1.667,1.667,0,0,1,1.662-1.662.831.831,0,0,0,0-1.662A3.333,3.333,0,0,0,26.205,29.1v.956a5.157,5.157,0,0,0-1.122-.125h-.872a5.056,5.056,0,0,0-1.786.332V19.707c0-.042,0-.042-.042-.083h0l-1.329-2.991H38.918a1.87,1.87,0,0,1,0,3.739ZM13.783,26.6a3.739,3.739,0,1,0,3.739,3.739A3.724,3.724,0,0,0,13.783,26.6Zm0,5.816a2.077,2.077,0,1,1,2.077-2.077A2.057,2.057,0,0,1,13.783,32.42Z" transform="translate(5134.684 -120.391)"/>
              </g>
            </g>
          </g>
        </g>
      </g>
      <circle id="Ellipse_2881" data-name="Ellipse 2881" cx="11" cy="11" r="11" transform="translate(5155 -118)" fill="rgba(69,115,176,0.97)"/>
    </g>
    <g id="Group_5643" data-name="Group 5643" transform="translate(5135.605 -138.603)">
      <path id="Path_22232" data-name="Path 22232" d="M27.627,23.909h0l-.5.15-.491.174-.477.2-.463.219-.449.24-.434.26-.419.28-.4.3-.386.316-.37.334-.352.35-.335.367-.316.382-.3.4-.278.409-.258.421-.238.434-.217.445-.2.455-.174.464-.153.473-.129.482-.107.488-.083.5-.058.5L20,33.444l-.009.509.018.513.043.516.07.517.1.519.124.518.266-.07-.121-.505-.094-.5-.068-.5-.042-.5-.016-.5.008-.5.033-.492.057-.488.081-.482.1-.475.126-.469.148-.46.17-.452.191-.443.212-.433.232-.422.252-.411.27-.4.289-.385.309-.371.325-.357.343-.341.359-.325.377-.308.392-.29.407-.273.423-.253.436-.234.452-.212.464-.191.478-.169.491-.146h0Z" transform="translate(0 -2.262)" fill="#fff" fill-rule="evenodd"/>
      <path id="Path_22233" data-name="Path 22233" d="M88.7,28.928h0l-.151-.512-.174-.5-.2-.483-.218-.469-.24-.453-.26-.438-.28-.421-.3-.4-.316-.388-.334-.371-.35-.352-.367-.335-.381-.315-.4-.3-.409-.277-.422-.256-.434-.236-.444-.216-.455-.193-.465-.172-.473-.149-.482-.127-.488-.1-.5-.08-.5-.056-.506-.031-.509-.007-.514.019-.515.045-.517.071-.518.1-.518.124.07.266.505-.121.505-.1.5-.069.5-.043.5-.018.5.006.492.031.488.055.481.078.475.1.469.123.461.146.452.167.443.189.433.209.422.229.41.25.4.269.385.289.371.307.356.325.342.343.325.36.308.377.291.394.273.411.252.426.233.441.213.456.191.471.169.484.146.5h0Z" transform="translate(-48.448)" fill="#fff" fill-rule="evenodd"/>
      <path id="Path_22234" data-name="Path 22234" d="M114.892,90.032h0l.512-.151.5-.174.483-.2.469-.22.454-.242.438-.262.421-.282.4-.3.388-.32.37-.337.353-.354.334-.369.315-.384.3-.4.276-.412.257-.423.236-.436.216-.446.193-.456.172-.466.149-.473.127-.481.1-.488.08-.494.056-.5.031-.5.007-.506-.019-.508-.045-.51-.071-.512-.1-.511-.124-.511-.266.072.121.5.1.5.069.5.043.5.017.5-.006.493-.031.489-.055.486-.078.48-.1.475-.123.468-.146.461-.167.453-.188.444-.209.435-.23.424-.25.413-.27.4-.288.388-.307.373-.325.36-.343.344-.361.328-.377.311-.394.293-.411.275-.426.256-.441.235-.456.214-.471.192-.484.17-.5.146h0Z" transform="translate(-81.919 -48.475)" fill="#fff" fill-rule="evenodd"/>
      <path id="Path_22235" data-name="Path 22235" d="M22.572,72.621h0l.151.5.175.491.2.477.22.464.242.449.262.434.282.419.3.4.32.386.337.369.354.353.369.334.384.317.4.3.411.278.424.259.436.238.446.218.456.2.465.174.474.153.481.129.488.107.493.083.5.058.5.034.506.009.509-.018.51-.043.512-.07.511-.1L35.2,79.9l-.072-.266-.5.122-.5.094-.5.068-.5.042-.495.016-.493-.008-.489-.033-.485-.057L30.7,79.8l-.475-.1-.468-.127-.461-.148-.453-.17-.444-.19-.434-.212-.424-.232-.413-.252-.4-.27-.388-.29-.374-.308-.36-.326-.344-.342-.328-.36-.311-.376-.294-.392-.275-.407L23.8,74.87l-.235-.437-.214-.451-.193-.464-.169-.477-.146-.491h0l-.266.07ZM29.344,71.4l.546,1.91,1.182-.273-.091-.364a1.8,1.8,0,0,0,1.546.091c1.364-.364,2.092-1.273,1.819-2.274a1.261,1.261,0,0,0-1-1,4.77,4.77,0,0,0-1.637-.182c-.546.091-1.091,0-1.182-.182,0-.091.091-.364.637-.455.546-.182,1.273.091,1.364.546l1.182-.364-.546-1.91-1.091.273.091.273a1.993,1.993,0,0,0-1.455,0c-1.819.455-2.092,1.273-1.819,2.183.091.455.455,1.091.909,1.182a11.009,11.009,0,0,0,1.728.091c.637-.091,1.182-.091,1.182.091.091.273-.091.364-.546.455a2.992,2.992,0,0,1-1.819-.364Zm8.185-1.546c-.909.273-1.182-.364-1.364-1.091-.182-.637-.182-1.364.636-1.637.819-.182,1.091.364,1.273,1.182.182.728.364,1.273-.546,1.546Zm.364,1.364a2.858,2.858,0,0,0,2.183-3.547,2.963,2.963,0,0,0-3.638-1.91,3.074,3.074,0,0,0-2.274,3.547A2.956,2.956,0,0,0,37.892,71.221ZM27.8,69.857l.728-.182-.364-1.364-3.547.909.364,1.364L25.8,70.4l.637,2.365-.819.273.364,1.273,3.547-.909-.364-1.364-.728.182Z" transform="translate(-2.227 -38.346)" fill="#fff" fill-rule="evenodd"/>
      <path id="Path_22236" data-name="Path 22236" d="M37.346,43.5c-.091-.182,0-.364.182-.364.182-.091.273,0,.364.182a.472.472,0,0,1-.182.364C37.528,43.682,37.346,43.591,37.346,43.5ZM48.9,40.317a.689.689,0,0,1,.182-.364c.182,0,.364.091.364.273.091.091,0,.273-.182.273C49.078,40.59,48.986,40.5,48.9,40.317ZM33.344,33.5c-.091-.091,0-.273.182-.273.091-.091.273,0,.273.182.091.091,0,.273-.182.364A.291.291,0,0,1,33.344,33.5ZM47.35,29.586a.29.29,0,0,1,.273-.273c.091-.091.273,0,.273.182.091.091,0,.273-.182.364C47.531,29.859,47.441,29.768,47.35,29.586Zm-11.277,13c-.091-.182,0-.364.182-.364a.69.69,0,0,1,.364.182c0,.182-.091.364-.273.364C36.254,42.773,36.072,42.682,36.072,42.591Zm13.642-3.638c0-.182.091-.364.182-.364.182-.091.273,0,.364.182a.472.472,0,0,1-.182.364C49.9,39.135,49.714,39.044,49.714,38.953ZM34.89,41.409c-.091-.182,0-.364.182-.364.182-.091.273,0,.364.182,0,.182-.091.273-.273.364C35.072,41.59,34.89,41.5,34.89,41.409Zm15.188-4.093c-.091-.182,0-.273.182-.364a.689.689,0,0,1,.364.182c0,.182-.091.364-.273.364C50.26,37.5,50.078,37.407,50.078,37.316ZM33.8,30.677a.71.71,0,0,0-.364.364,1.262,1.262,0,0,0,0,.819,1.222,1.222,0,0,0,.546.637,1.284,1.284,0,0,0,.819.091,1.222,1.222,0,0,0,.637-.546.682.682,0,0,0,.091-.455l-.546-.273a.406.406,0,0,1,0,.455.524.524,0,0,1-.728.273c-.364-.182-.455-.455-.273-.728a.71.71,0,0,1,.364-.364l-.546-.273ZM35.436,29.4l-.364-.364-.728.818,1.546,1.455.728-.909-.364-.273-.364.455-.273-.273.364-.364-.364-.364-.364.455-.273-.273Zm1.819-.546a.55.55,0,0,0,0-.728.634.634,0,0,0-.909-.182l-.637.455,1.182,1.728.455-.273-.455-.728.818.364.546-.364Zm-.909-.364V28.4c.182-.091.364-.182.455,0,.182.182,0,.364-.091.455h-.091Zm2.274-1.182.364-.182-.182-.455-1.182.546.091.455.455-.182.546,1.455.546-.182-.637-1.455Zm1.364-.819-.546.091.455,2,.546-.091Zm1.91.182v-.455l-1.182.091L40.8,28.4h.546v-.818l.546-.091-.091-.455-.546.091v-.364Zm1.182-.273-.455-.091L42.348,28.4l.546.091Zm1.728.909.182-.455-1.091-.364-.637,2,1.091.364.182-.455-.636-.182.091-.364.546.182.182-.455-.546-.091.091-.364Zm0,1.728.637.364a1.038,1.038,0,0,0,1-1.819l-.546-.364Zm1.273-1.182.091.091a.574.574,0,0,1,.182.819.592.592,0,0,1-.819.182l-.091-.091Zm-5.82,17.279.546-.546a1.385,1.385,0,0,0,.546-.909.6.6,0,0,0-.182-.636,1.464,1.464,0,0,0-.637-.364.921.921,0,0,0-1.091.728.7.7,0,0,0,.546.909c.182.091.273.091.364,0l-.819.728Zm.182-1.91a.333.333,0,0,1,.364.364.464.464,0,0,1-.455.364c-.182-.091-.364-.273-.273-.455,0-.182.182-.364.364-.273Zm2.183-.455c-.728.091-.909.728-.818,1.364.091.546.455,1.182,1.091,1.091.728-.091.909-.728.909-1.364-.091-.546-.455-1.183-1.183-1.092Zm.091.546c.273-.091.455.455.455.637s0,.728-.273.728c-.364.091-.455-.455-.546-.637C42.348,43.864,42.348,43.318,42.711,43.318Zm1.91-1.091a1.065,1.065,0,0,0-.364,1.546,1.026,1.026,0,0,0,1.364.727,1.165,1.165,0,0,0,.455-1.546A1.153,1.153,0,0,0,44.621,42.227Zm.182.455c.364-.091.546.273.728.546.091.182.182.637-.091.819-.273.091-.546-.364-.637-.546S44.53,42.863,44.8,42.682Zm1.819-1L47.8,43.046l.455-.364-1.546-1.819-.728.637.364.455ZM38.537,29.988l-.233.017-.227.147-.219.155-.213.164-.2.17-.2.18-.188.186-.181.193-.173.2-.164.207-.156.213-.147.219-.138.224-.13.23-.12.235-.112.239-.1.243-.094.247-.083.252-.074.255-.063.258.562-.151.061-.212.077-.232L36.1,33.4l.095-.226.1-.221.112-.217.12-.212.128-.208.136-.2.144-.2.152-.19.159-.185.167-.179.175-.172.181-.164.188-.158.2-.15.2-.143.209-.135-.233.017.2-.468-.12-.052-.113.069Z" transform="translate(-11.502 -4.259)" fill="#fff" fill-rule="evenodd"/>
      <path id="Path_22237" data-name="Path 22237" d="M72.294,54.068l-.062.014-.063.015-.061.012-.062.01-.06.01-.061.007-.059.006-.058,0-.059,0-.058,0h-.174l-.056,0-.057,0-.057-.006-.056-.006-.055-.007-.056-.01-.055-.009-.056-.011-.057-.013-.055-.013-.056-.015-.056-.015-.056-.017-.056-.018-.055-.02-.056-.021-.056-.021-.056-.022-.057-.024-.2.468.063.026.063.026.064.025.064.023.064.022.065.021.064.019.064.019.066.017.066.017.064.013.066.014.067.013.066.01.067.01.068.008.067.006.067.005.068,0h.206l.07,0,.069,0,.071-.006.071-.008.07-.01.072-.01.072-.013.073-.014.071-.015.074-.018Z" transform="translate(-43.421 -28.17)" fill="#fff" fill-rule="evenodd"/>
      <path id="Path_22238" data-name="Path 22238" d="M86.938,45.71l-.228.128-.032.055-.032.053L86.612,46l-.035.051-.036.051-.036.049-.037.047-.039.046-.039.046-.039.044-.042.044-.041.042-.043.041-.044.039-.044.038-.047.037-.045.036L86,46.641l-.048.033-.049.033-.051.03-.051.03-.052.029-.053.027-.053.025-.056.023-.056.024-.057.021-.058.021-.06.019-.059.018-.062.016.124.494.074-.02.074-.02.071-.023.071-.024.07-.027.069-.027.068-.031.067-.032.065-.033.064-.034.063-.036.061-.038.061-.038.06-.041.058-.044.058-.044.054-.045.056-.047.052-.049.053-.049.051-.052.049-.052.049-.054.048-.054.045-.056.045-.057.044-.059L87,46.339l.041-.061.04-.062.039-.063.038-.063-.228.128.014-.508-.152,0-.076.132Z" transform="translate(-56.359 -21.092)" fill="#fff" fill-rule="evenodd"/>
      <path id="Path_22239" data-name="Path 22239" d="M102.579,47.944l-.025-.028-.191-.195-.2-.187-.205-.179-.212-.17-.218-.162-.223-.153-.23-.144-.236-.134-.24-.126-.246-.116-.251-.107-.255-.1-.26-.087-.263-.077-.267-.068-.271-.057-.274-.047-.277-.035-.278-.025-.283-.014-.014.508.261.014.26.023.257.033.254.043.251.053.248.062.244.072.24.081.237.09.231.1.228.108.223.116.218.125.212.134.208.141.2.15.2.158.189.165.184.173.01.011Zm-1.838,10.55.24-.007.244-.147.236-.154.228-.165.221-.172.212-.181.2-.189.194-.2.186-.2.178-.211.168-.217.159-.223.151-.23.14-.235.131-.241.121-.245.112-.25.1-.255.092-.258.081-.263.062-.238-.569.151-.059.19-.084.24-.094.235-.1.232-.113.227-.12.223-.13.217-.138.212-.147.207-.156.2-.163.194-.173.188-.18.181-.187.174-.2.168-.2.16-.212.151-.219.144-.225.135.24-.007-.227.456.121.061.119-.068-.24.007Z" transform="translate(-67.098 -21.116)" fill="#fff" fill-rule="evenodd"/>
      <path id="Path_22240" data-name="Path 22240" d="M106.688,134.495l.008,0,.053-.014.055-.013.054-.012.055-.011.056-.009.056-.007.055-.006.056,0,.057,0,.057,0h.171l.056,0,.057,0,.057.006.056.006.056.007.056.01.054.009.055.011.055.012.053.013.052.015.053.016.052.016.05.017.05.019.049.02.047.02.048.022.046.022.227-.456-.057-.028-.058-.026-.06-.026-.061-.023-.061-.023-.062-.021-.062-.02-.062-.018L108.1,134l-.065-.017-.064-.014-.065-.013-.067-.013-.066-.01-.068-.01-.067-.008-.067-.006-.067-.005-.069,0-.069,0h-.136l-.067,0-.069,0-.069.007-.069.008-.068.01-.067.011-.068.012-.068.014-.066.017-.067.018.008,0,.124.494Z" transform="translate(-74.781 -97.28)" fill="#fff" fill-rule="evenodd"/>
      <path id="Path_22241" data-name="Path 22241" d="M94.254,136.245l.236-.141.023-.042.024-.043.025-.041.026-.04.028-.04.028-.038.032-.038.031-.038.034-.035.035-.036.035-.035.037-.033.039-.033.039-.032.041-.032.043-.03.044-.03.045-.028.046-.028.049-.028.05-.026.05-.025.052-.025.052-.023.055-.023.056-.022.057-.021.058-.02.06-.02.061-.018.061-.018.064-.016-.124-.494-.071.019-.072.019-.071.022-.069.022-.068.024-.067.025-.066.026-.065.027-.064.029-.062.029-.062.031-.06.032-.059.033-.058.034-.057.037-.056.038-.053.039-.053.039-.052.042-.049.043-.049.044-.048.046-.045.046-.044.049-.043.049-.04.05-.04.052-.038.052-.036.056-.033.055-.032.057-.03.059.236-.141-.016.508.163.005.073-.146Z" transform="translate(-63.962 -97.932)" fill="#fff" fill-rule="evenodd"/>
      <path id="Path_22242" data-name="Path 22242" d="M49.729,75.908l.156.16.2.187.206.179.211.17.218.162.223.153.23.144.235.135.24.126.244.116.249.107.253.1.257.088.26.076.264.068.266.057.269.047.271.035.272.026.274.014.016-.508-.254-.014-.252-.023-.251-.033-.249-.043-.246-.053-.244-.062-.242-.072-.237-.08-.235-.091-.231-.1-.227-.108-.222-.116-.218-.125-.212-.134-.208-.141-.2-.15-.2-.158-.189-.165-.128-.121-.569.151Zm-.366-8.524-.316.087-.1.144-.092.145-.09.149-.085.15-.082.153-.078.156-.074.158-.07.16-.067.162-.062.164-.058.167-.053.168-.049.169-.045.172,0,.018.568-.152.017-.059.05-.155.053-.153.057-.152.061-.15.065-.148.068-.146.072-.144.075-.142.079-.14.082-.137.086-.135.088-.132-.316.087.213-.463-.194-.09-.121.176Z" transform="translate(-24.232 -39.742)" fill="#fff" fill-rule="evenodd"/>
      <path id="Path_22243" data-name="Path 22243" d="M60.67,68.21h0l-.148.039-.148.036-.147.033-.148.029-.146.026-.147.022-.146.018-.146.015-.144.013-.145.009-.144.005-.143,0h-.143l-.14,0-.14-.005-.138-.009-.136-.012-.136-.014-.134-.017-.133-.02-.13-.022-.129-.025L57.43,68.3l-.124-.03-.124-.032-.12-.035-.119-.036-.116-.039-.114-.042-.112-.043L56.491,68l-.106-.047-.213.463.118.053.121.05.122.048.125.045.128.043.129.041.132.037.133.036.137.032.137.03.139.027.142.025.143.02.145.019.146.016.148.012.148.009.15.007.151,0h.151l.154,0,.154-.007.155-.009.157-.013.156-.017.157-.02.157-.024.159-.027.158-.031.159-.035.158-.038L60.8,68.7h0Z" transform="translate(-31.254 -40.31)" fill="#fff" fill-rule="evenodd"/>
      <path id="Path_22244" data-name="Path 22244" d="M93.207,50.691l-.315.091-.066.1-.07.1-.073.1-.076.095-.08.094-.084.094-.087.093-.091.092-.093.09-.1.09-.1.088-.1.088-.107.085-.109.084-.113.082-.115.081-.118.079-.122.077-.124.076-.127.074-.13.071-.132.068-.134.067L90.4,52.8l-.14.062-.142.059-.144.057-.147.054-.149.052-.151.049-.154.045-.156.043.13.492.166-.045.164-.05.162-.051.16-.055.157-.058.154-.061.152-.064.15-.066.147-.07.144-.071.142-.075.138-.077.137-.078.134-.081.13-.083.128-.085.125-.087.121-.09.119-.091.115-.093.113-.094.108-.1.106-.1.1-.1.1-.1.1-.1.092-.1.089-.1.086-.1.082-.106.078-.106.074-.108L93,51.155l.206-.464-.2-.087-.119.177Z" transform="translate(-59.804 -25.323)" fill="#fff" fill-rule="evenodd"/>
      <path id="Path_22245" data-name="Path 22245" d="M119.26,52.71l-.022-.024-.128-.13-.131-.127-.134-.123-.136-.118-.139-.115-.141-.11-.145-.106-.147-.1-.149-.1-.151-.093-.153-.088-.156-.084-.158-.078-.16-.073-.206.464.146.068.144.072.143.076.141.081.139.085.137.09.135.093.132.1.132.1.128.1.126.11.124.113.064.062Zm.273,8.72.329-.078.1-.152.1-.154.094-.158.091-.16.086-.162.082-.165.077-.167.073-.17.068-.17.063-.173.059-.175.054-.177.05-.177.045-.181.009-.042-.562.149-.031.11-.05.163-.055.163-.059.16-.063.158-.066.156-.071.155-.076.151-.08.151-.083.148-.089.145-.092.143-.1.14.329-.078-.241.448.2.107.131-.184-.329.078Z" transform="translate(-83.806 -25.875)" fill="#fff" fill-rule="evenodd"/>
      <path id="Path_22246" data-name="Path 22246" d="M78.821,119.259l.148-.039.148-.036.149-.034.148-.03.148-.028.147-.024.146-.022.146-.018.146-.014.145-.012.143-.009.143-.005.141,0h.142l.139,0,.137.006.136.01.134.012.133.017.132.019.13.021.128.025.126.028.123.03.122.034.12.037.117.04.115.042.112.047.11.048.107.052.1.054.241-.448L83.211,119l-.123-.059-.124-.056-.127-.05-.129-.049-.131-.044-.132-.041-.135-.037-.138-.035-.139-.03-.14-.027-.142-.025-.144-.021-.145-.017-.147-.014-.148-.01-.149-.008-.151,0h-.15l-.153,0-.153.007-.155.009-.154.012-.156.016-.156.02-.158.022-.157.026-.158.029-.158.032-.157.036-.158.039-.159.043.135.49Zm-3.91,2.347.32-.079.065-.087.07-.088.073-.086.076-.087.081-.087.084-.085.086-.085.091-.084.093-.083.1-.082.1-.081.1-.081.106-.079.108-.077.11-.076.114-.074.117-.074.119-.071.121-.069.125-.069.127-.067.129-.065.13-.063.133-.061.136-.059.136-.056.14-.055.14-.053.144-.049.144-.047.147-.045.148-.043-.135-.49-.158.045-.155.048-.154.051-.151.054-.151.055-.148.059-.147.06-.143.063-.142.065-.14.067-.137.069-.135.071-.132.072-.131.076-.127.077-.125.078-.122.08-.12.082-.116.084-.114.085-.111.086-.108.088-.106.09-.1.091-.1.092-.1.093-.092.095-.088.094-.085.1-.081.1-.078.1-.075.1.32-.079-.227.456.192.1.127-.175-.32.079Z" transform="translate(-47.362 -83.956)" fill="#fff" fill-rule="evenodd"/>
      <path id="Path_22247" data-name="Path 22247" d="M58.524,65.147l.006.007.128.131.13.127.134.122.136.119.139.115.142.112.144.108.146.1.148.1.151.1.152.092.154.09.157.085.157.082.227-.456-.148-.076-.145-.079-.144-.083-.142-.087-.14-.09-.138-.094-.136-.1-.134-.1-.131-.1-.128-.107-.126-.111-.123-.115L59.093,65ZM60.665,54.9l-.24.028-.178.131-.172.14-.165.147-.159.155-.153.163-.146.171-.14.177-.133.184-.126.19-.119.2-.112.2-.1.208-.1.212-.091.217-.082.222-.075.225L58.3,58.1l-.059.234-.051.237,0,.013.553-.149.051-.2.062-.212.069-.209L59,57.6l.083-.2.09-.2.1-.19.1-.184.109-.179.114-.173.121-.166.126-.161L59.977,56l.137-.147.143-.14.149-.133.152-.124.158-.116-.24.028.189-.473-.127-.051-.112.079Z" transform="translate(-32.999 -28.989)" fill="#fff" fill-rule="evenodd"/>
      <path id="Path_22248" data-name="Path 22248" d="M76.387,55.112l-.053.015-.037.015-.038.013-.038.013-.037.012-.036.01-.037.01-.038.009-.037.007L76,55.222l-.038.006-.036.005-.036,0-.036,0-.036,0-.037,0H75.71l-.037,0-.036,0-.036,0-.036,0-.036-.005-.038-.006-.036-.007-.037-.007-.038-.009-.037-.01-.035-.01-.038-.012-.038-.013-.038-.013-.037-.015-.189.473.048.018.048.018.048.016.048.016.05.014.048.012.048.011.049.011.049.009.048.008.049.007.049,0,.049.006.05,0,.048,0h.1l.048,0,.05,0,.049-.006.05,0,.049-.007.048-.008.05-.009.049-.011.048-.011.048-.012.05-.014.048-.016.048-.016.048-.018.048-.018-.053.015Z" transform="translate(-47.493 -29.218)" fill="#fff" fill-rule="evenodd"/>
      <path id="Path_22249" data-name="Path 22249" d="M86.714,49.687l-.2.074-.032.032-.033.032-.033.032-.031.029-.032.029-.033.029-.033.027L86.256,50l-.033.027-.033.025-.032.024-.032.025-.033.023-.033.022-.034.023-.034.02-.033.02-.034.02-.035.018-.035.019-.037.016-.037.016-.035.015-.037.015-.038.014-.039.013-.04.012-.04.012-.043.01-.043.01-.044.009-.045.008.084.5.057-.01.055-.011.055-.012.053-.014.053-.014.052-.017.051-.017.05-.018.049-.019.049-.021.047-.022.045-.023.046-.022.045-.025.045-.024.045-.026L86.3,50.6l.042-.027.041-.029.04-.029.041-.029.04-.031.038-.031.038-.031.039-.031.036-.034.037-.033.037-.034.038-.035.035-.034.036-.034.036-.035-.2.074.04-.508-.117-.009-.084.083Z" transform="translate(-56.485 -24.523)" fill="#fff" fill-rule="evenodd"/>
      <path id="Path_22250" data-name="Path 22250" d="M98.764,51.79l-.048-.057-.162-.179-.169-.171-.173-.164-.178-.156-.183-.148-.187-.14-.191-.133-.2-.124-.2-.115-.2-.107-.206-.1-.209-.09-.211-.08-.214-.071-.217-.062-.218-.053-.22-.043-.223-.033-.223-.023-.04.508.2.021.2.029.2.039.2.047.2.056.194.065.192.072.189.081.186.089.185.1.182.105.177.114.175.121.171.128.167.136.163.144.159.15.154.157.031.034Zm-1,9.914.191-.028.2-.122.188-.132.182-.139.176-.149.168-.157.162-.165.154-.173.146-.179.139-.187.132-.2.123-.2.116-.206.107-.213.1-.218.091-.224.082-.229.073-.234.065-.238.055-.243.005-.027-.555.147-.059.219-.068.215-.076.209-.083.2-.09.2-.1.194-.1.188-.113.182-.118.175-.127.169-.132.164-.138.155-.144.148-.152.141-.156.133-.164.126-.168.117-.174.108.192-.028Z" transform="translate(-64.706 -24.58)" fill="#fff" fill-rule="evenodd"/>
      <path id="Path_22251" data-name="Path 22251" d="M106.519,134.14l.045-.014.037-.015.039-.013.036-.013.038-.011.037-.011.037-.01.037-.009.037-.009.036-.007.037-.007.038-.006.035-.006.035,0,.037,0,.037,0,.034,0,.035,0h.142l.033,0,.034,0,.034,0h.032l.032,0,.033.005.033.006.03.005.03.005.03.007.03.007.124-.494-.039-.009-.039-.009-.04-.009-.042-.007-.04-.006-.04-.005-.042-.006-.043-.006-.042,0-.042,0-.045,0h-.175l-.047,0-.046,0-.045,0-.045.006-.048.006-.048.006-.045.008-.047.008-.048.01-.047.011-.047.011-.048.013-.047.013-.048.016-.049.016-.047.018-.048.018.045-.014.1.5Z" transform="translate(-74.624 -96.923)" fill="#fff" fill-rule="evenodd"/>
      <path id="Path_22252" data-name="Path 22252" d="M97.9,135.679l.191-.074.022-.022.022-.022.023-.02.025-.019.024-.021.023-.018.026-.02.025-.019.025-.017.027-.018.027-.017.027-.016.027-.017.029-.015.028-.016.03-.016.031-.016.03-.013.03-.014.032-.013.033-.013.032-.012.035-.013.033-.013.034-.011.035-.011.037-.01.036-.01.037-.009.037-.008.039-.009.038-.008-.1-.5-.046.01-.045.009-.045.011-.045.011-.045.012-.043.013-.043.013-.043.013-.043.014-.04.015-.042.016-.04.016-.04.017-.04.018-.04.019-.037.018-.038.019-.038.02-.037.021-.037.021-.036.022-.035.023-.035.022-.035.025-.033.024-.033.024-.033.028-.032.025-.03.028-.031.028-.031.028-.03.029.191-.074-.02.509.111,0,.08-.079-.191.074Z" transform="translate(-67.151 -97.912)" fill="#fff" fill-rule="evenodd"/>
      <path id="Path_22253" data-name="Path 22253" d="M70.648,65.566l.007.008.167.18.173.174.177.166.182.158.187.15.191.142.195.133.2.124.2.116.207.106.21.1.212.087.215.078.217.068.219.057.222.047.223.037.225.026.224.014.02-.509-.2-.014-.2-.022-.2-.033-.2-.043-.2-.052-.2-.06-.193-.07-.192-.079-.19-.089-.186-.1-.185-.1-.182-.114-.179-.121L71.852,66l-.171-.138-.168-.146-.164-.152-.144-.145-.558.148Zm1.319-9.817-.18.075-.1.11-.1.118-.093.125-.087.133-.082.141-.078.147-.073.154-.067.16-.062.166-.058.173-.052.178-.047.183-.043.189-.038.194-.032.2-.027.2-.022.207-.016.211,0,.074.52-.14.008-.1.02-.194.025-.189.03-.184.034-.178.039-.173.044-.168.048-.161.052-.155.056-.148.059-.141.063-.134.066-.127.07-.119.073-.111.075-.1.079-.094.081-.086-.18.075Z" transform="translate(-43.76 -29.768)" fill="#fff" fill-rule="evenodd"/>
      <path id="Path_22254" data-name="Path 22254" d="M81.07,55.081l-.08.014-.023.008-.022.006-.02.006-.02.005-.021.006-.021,0-.018.005-.019,0-.017,0-.018,0-.02,0-.018,0-.017,0h-.019l-.016,0-.02,0-.019,0-.017,0h-.036l-.041,0h-.226v.511h.243l.047,0h.05l.025,0,.024,0,.023,0,.026,0,.024-.006.026,0,.026,0,.024,0,.026-.006.027,0,.026-.006.028-.005.025-.008.027-.006.028-.009.028-.008.028-.01.027-.009-.08.014Z" transform="translate(-52.134 -29.191)" fill="#fff" fill-rule="evenodd"/>
      <path id="Path_22255" data-name="Path 22255" d="M86.556,53.113l-.13.009-.029.009-.031.011-.029.011-.028.01-.029.012-.027.012-.027.011-.027.012-.052.024-.05.023-.049.021L86,53.3l-.022.01-.023.008-.022.009-.022.007-.02.007-.022.007-.022.008-.018.006-.018,0-.02.006-.019,0-.016,0h-.017l-.018,0-.015,0h-.015v.511h.035l.036,0,.033,0,.035-.005.036-.007.033-.007.03-.006.034-.01.033-.009.028-.008.03-.009.03-.011.03-.011.029-.011.029-.012.029-.012.052-.023.053-.023.052-.023.05-.021.023-.01.024-.011.025-.01.022-.009.024-.01.021-.009.021-.007.021-.009-.13.009.1-.5Z" transform="translate(-56.752 -27.491)" fill="#fff" fill-rule="evenodd"/>
      <path id="Path_22256" data-name="Path 22256" d="M93.954,55.167l-.063-.095-.122-.174-.124-.167-.127-.16-.129-.153-.132-.146-.132-.139L92.99,54l-.136-.123-.137-.116-.139-.107-.14-.1-.141-.091-.142-.082-.143-.073-.143-.064-.145-.055-.144-.044-.146-.035-.1.5.112.026.114.035.115.043.118.052.118.061.12.07.121.078.122.086.122.095.122.1.123.111.121.119.122.126.119.134.119.141.117.148.117.155.077.109Zm.25,9.365.153-.052.116-.094.11-.105.1-.114.1-.123.092-.132.086-.14.08-.149.073-.156.07-.162.062-.17.058-.177.053-.183.047-.19.042-.2.036-.2.031-.208.026-.212.021-.217.009-.127-.522.138-.014.152-.024.2-.029.192-.035.187-.038.179-.043.172-.047.166-.052.158-.056.15-.059.143-.064.134-.068.125-.07.116-.074.107-.077.1-.079.089L94.136,64l-.085.069.153-.052v.511Z" transform="translate(-61.631 -27.491)" fill="#fff" fill-rule="evenodd"/>
      <path id="Path_22257" data-name="Path 22257" d="M106.347,133.949l.114-.027.016-.008.014-.006.015-.007.017-.005.016-.008.019-.008.018-.006.017-.008.017-.006.019-.006.019-.008.019-.005.019-.007.019,0,.02-.007.021,0,.02-.006.02,0,.021-.006.02-.005.02,0,.021,0,.022,0,.021,0,.022,0h.02l.022,0,.021,0,.019,0h.063v-.511h-.091l-.032,0-.03,0-.029,0-.03.005-.029,0-.029,0-.028.007-.028,0-.029.007-.028.005-.027.006-.027.008-.028.006-.025.008-.026.007-.027.009-.026.007-.024.009-.025.008-.024.008-.025.01-.025.008-.022.011-.021.008-.023.008-.021.012-.021.009-.022.011-.019.01.114-.027Z" transform="translate(-74.502 -96.726)" fill="#fff" fill-rule="evenodd"/>
      <path id="Path_22258" data-name="Path 22258" d="M101.867,135.28l.227-.07h0l.007,0,0,0,.006,0,.011,0,.008-.008.009,0,.013-.007.013,0,.013-.007.014,0,.012,0,.015-.007.017,0,.014-.006.014,0,.017-.005.016,0,.015-.005.016,0,.016,0,.016,0,.016,0,.012,0h.016l.015,0,.008,0h.034v-.511h-.072l-.029,0-.023,0-.023.006-.026,0-.024,0-.024.006-.024,0-.024.007-.025.005-.024.007-.023.006-.024.008-.024.006-.021.008-.023.007-.024.01-.022.01-.022.007-.021.011-.02.008-.023.014-.022.008-.019.012-.021.013-.021.013-.018.013-.021.015-.023.018-.017.019.227-.07-.094.5.132.025.1-.094-.227.07Z" transform="translate(-70.614 -97.88)" fill="#fff" fill-rule="evenodd"/>
      <path id="Path_22259" data-name="Path 22259" d="M52.528,58.8l.039.059.124.178.126.171.13.164.132.158.134.15.136.143.139.136.14.127.142.12.143.11.146.1.146.094.148.084.15.075.151.066.152.055.153.045.154.035.094-.5-.12-.026-.121-.036-.123-.045-.124-.054-.124-.063-.126-.073L54.34,60l-.126-.089-.127-.1-.126-.105-.126-.115-.124-.121-.124-.131-.123-.138-.122-.145-.12-.152-.119-.16-.054-.078-.521.138Zm3.33,1.576-.6-2.3-.492.13.6,2.3Zm-2.243-8.537-.576-2.194-.492.13.577,2.2Zm-1.164-3.375h0l-.333.1-.323.113-.315.128-.306.143-.3.159-.286.171-.276.185-.266.2-.255.21-.243.221-.232.232-.22.243-.208.252-.2.263-.183.271-.17.279-.158.287-.143.295-.13.3-.115.307-.1.313-.085.317v.006l.568-.153.007-.026.094-.289.107-.285.12-.279.133-.272.145-.266.158-.259.17-.251.182-.243.193-.234.2-.225.215-.215.226-.205.235-.194.246-.182.256-.171.265-.159L51.4,49.4l.282-.133.291-.119.3-.1.307-.089h0Z" transform="translate(-23.857 -23.477)" fill="#fff" fill-rule="evenodd"/>
      <path id="Path_22260" data-name="Path 22260" d="M89.964,48.694l0,0-.234-.235-.244-.224-.255-.21-.264-.2-.274-.185-.281-.171-.289-.156-.3-.143-.3-.128-.31-.114-.316-.1-.322-.083-.327-.068-.331-.052-.334-.035-.339-.019H84.9l-.343.016-.344.033-.345.051-.345.07-.345.088.137.491.32-.082.321-.064.319-.047.318-.031.317-.014h.316l.312.016.31.033.305.047.3.062.3.077.292.091.288.1.281.119.275.132.268.146.261.157.252.171.244.183.235.194.226.206.024.025.566-.152ZM86.771,59.961h0l.333-.1.323-.113.315-.129.306-.143.3-.159.286-.171.276-.185.266-.2.255-.21.243-.221.232-.232.22-.243.208-.252.2-.263.183-.271.17-.279.158-.287.143-.295.129-.3.115-.307.1-.313.085-.317.006-.024-.566.15-.013.048-.094.289-.107.285-.12.279-.133.272-.145.266-.158.259-.17.251-.182.243-.193.234-.2.225-.214.215-.226.2-.235.194-.246.182-.255.171-.265.159-.273.145-.283.133-.29.118-.3.105-.307.089h0Z" transform="translate(-54.584 -21.839)" fill="#fff" fill-rule="evenodd"/>
      <path id="Path_22261" data-name="Path 22261" d="M59.6,129.852l.06.066.234.235.243.224.254.209.261.2.272.184.279.17.287.157.295.143.3.128.308.114.313.1.319.083.324.067.328.051.332.036.336.019h.337l.341-.017.343-.033.344-.052.346-.07.344-.088-.137-.49-.321.082-.319.064-.318.047-.317.031-.315.014h-.314l-.309-.016-.306-.031-.3-.048-.3-.062-.295-.077-.29-.091-.284-.1L62,130.976l-.272-.132-.266-.145-.259-.158-.25-.171-.243-.182-.234-.2-.226-.206-.083-.084-.563.149Z" transform="translate(-34.22 -93.656)" fill="#fff" fill-rule="evenodd"/>
    </g>
  </g>
</svg>
