<svg xmlns="http://www.w3.org/2000/svg" width="37" height="36.995" viewBox="0 0 37 36.995">
  <g id="Group_5632" data-name="Group 5632" transform="translate(-0.098 -0.111)">
    <path id="Path_22215" data-name="Path 22215" d="M3,0H24.7a3,3,0,0,1,3,3V13.2a3,3,0,0,1-3,3H3a3,3,0,0,1-3-3V3A3,3,0,0,1,3,0Z" transform="translate(4.745 10.507)" fill="#2296c0"/>
    <path id="Path_22202" data-name="Path 22202" d="M389.769,143.93H387.6a2.169,2.169,0,0,1,2.169,2.169v11.865a2.169,2.169,0,0,1-2.169,2.169h2.169a2.169,2.169,0,0,0,2.169-2.169V146.1A2.169,2.169,0,0,0,389.769,143.93Z" transform="translate(-359.492 -133.423)" fill="#2370b5"/>
    <rect id="Rectangle_3794" data-name="Rectangle 3794" width="7.804" height="2.169" rx="1.084" transform="translate(21.782 13.377)" fill="#f8be32"/>
    <path id="Path_22203" data-name="Path 22203" d="M376.219,183.63H374.05a.289.289,0,0,1,.289.289v1.59a.289.289,0,0,1-.289.289h2.169a.289.289,0,0,0,.289-.289v-1.59A.289.289,0,0,0,376.219,183.63Z" transform="translate(-346.921 -170.253)" fill="#eab234"/>
    <rect id="Rectangle_3795" data-name="Rectangle 3795" width="4.17" height="3.049" rx="1.524" transform="translate(7.605 13.377)" fill="#f8be32"/>
    <path id="Path_22204" data-name="Path 22204" d="M107.282,183.63a6.083,6.083,0,0,1-3.342,1.177v-.888a.289.289,0,0,1,.289-.289Zm17.481,8.256a1.164,1.164,0,0,0-.664.207,1.156,1.156,0,0,0-.664-.207,1.18,1.18,0,0,0,0,2.36,1.157,1.157,0,0,0,.664-.207,1.164,1.164,0,0,0,.664.207,1.18,1.18,0,0,0,0-2.36Z" transform="translate(-96.336 -170.253)" fill="#f8be32"/>
    <path id="Path_22205" data-name="Path 22205" d="M361.081,299.03a1.177,1.177,0,0,1-1.171,1.18,3.821,3.821,0,0,0-2.047-.249,1.18,1.18,0,0,1-.453-.931v-.072a1.176,1.176,0,0,1,1.171-1.108,1.165,1.165,0,0,0,1.327,0,1.193,1.193,0,0,1,.275.033,1.178,1.178,0,0,1,.888,1A1.038,1.038,0,0,1,361.081,299.03Z" transform="translate(-331.484 -276.217)" fill="#19ac66"/>
    <path id="Path_22206" data-name="Path 22206" d="M108.11,183.919v2.471a.289.289,0,0,1-.289.289h-3.592a.289.289,0,0,1-.289-.289v-2.471a.289.289,0,0,1,.289-.289h3.592A.289.289,0,0,1,108.11,183.919Z" transform="translate(-96.336 -170.253)" fill="#eb304a"/>
    <path id="Path_22207" data-name="Path 22207" d="M72.775,143.93a6.156,6.156,0,0,1-8.355,3.491V148.6a7.224,7.224,0,0,0,2.572.47c.1,0,.191,0,.285-.006.251-.009.5-1.116.745-1.151,1.253-.178,2.428.406,3.426-.378a7.123,7.123,0,0,0,.656-.583,7.2,7.2,0,0,0,1.811-3.02Zm16.77,11.065a7.349,7.349,0,0,0-1.174.094c-.619.1-.135,1.365-.7,1.62-.341.153-1.755-.751-2.07-.545a7.332,7.332,0,0,0-1.166.948,7.191,7.191,0,0,0-1.807,3.02h1.136a6.155,6.155,0,0,1,8.354-3.491v-1.176A7.222,7.222,0,0,0,89.545,154.995Z" transform="translate(-59.673 -133.423)" fill="#2370b5"/>
    <path id="Path_22208" data-name="Path 22208" d="M360.184,298.3a7.138,7.138,0,0,0-2.774,1.076v.072a1.18,1.18,0,0,0,.453.931,6.094,6.094,0,0,1,3.21-1.084A1.178,1.178,0,0,0,360.184,298.3Z" transform="translate(-331.484 -276.634)" fill="#17a454"/>
    <path id="Path_22209" data-name="Path 22209" d="M326.2,332.882a6.686,6.686,0,1,1,4.728-1.958A6.685,6.685,0,0,1,326.2,332.882Z" transform="translate(-296.325 -296.312)" fill="#fee37b"/>
    <path id="Path_22210" data-name="Path 22210" d="M402.812,321.458a6.643,6.643,0,0,0-4.728-1.958,6.739,6.739,0,0,0-1.084.089,6.686,6.686,0,0,1,0,13.195,6.686,6.686,0,0,0,5.812-11.326Z" transform="translate(-368.212 -296.301)" fill="#fecc30"/>
    <path id="Path_22211" data-name="Path 22211" d="M14.178,20.869a6.686,6.686,0,1,1,4.728-1.958,6.686,6.686,0,0,1-4.728,1.958Z" transform="translate(-6.859 -6.851)" fill="#fee37b"/>
    <path id="Path_22212" data-name="Path 22212" d="M90.812,9.458A6.643,6.643,0,0,0,86.084,7.5,6.738,6.738,0,0,0,85,7.589a6.686,6.686,0,0,1,0,13.195A6.686,6.686,0,0,0,90.812,9.458Z" transform="translate(-78.765 -6.854)" fill="#fecc30"/>
    <path id="Path_22213" data-name="Path 22213" d="M107.821,183.63h-.539a6.083,6.083,0,0,1-3.342,1.177v1.084a7.164,7.164,0,0,0,4.17-1.529v-.444A.289.289,0,0,0,107.821,183.63Z" transform="translate(-96.336 -170.253)" fill="#e4222e"/>
    <path id="Path_22214" data-name="Path 22214" d="M21.429,32.169a.139.139,0,0,1,0-.017V32.1a.208.208,0,0,0-.007-.035.181.181,0,0,0-.005-.019.131.131,0,0,0-.01-.035l-.007-.018-.014-.033a.136.136,0,0,0-.008-.018c-.006-.01-.011-.021-.017-.031s-.007-.012-.011-.017l-.019-.028-.013-.017c-.007-.009-.015-.017-.022-.026l-.014-.016-.029-.027-.009-.009h0l-2.075-1.746a.542.542,0,1,0-.7.83l.94.8H9.8a.543.543,0,0,1-.542-.542V28.955a.542.542,0,1,0-1.084,0V31.1A1.629,1.629,0,0,0,9.8,32.728h9.691l-1.031.94a.542.542,0,1,0,.731.8l2.063-1.879.008-.008.023-.023.015-.017.022-.027.012-.016c.007-.011.014-.022.021-.034l.008-.012a.534.534,0,0,0,.057-.158v-.011c0-.014,0-.029.006-.044a.093.093,0,0,0,0-.021v-.035S21.429,32.17,21.429,32.169Zm8.157-13.06H26.334a.542.542,0,0,0,0,1.084h3.253a.542.542,0,1,0,0-1.084Zm-13.824-14v.073l.007.035a.1.1,0,0,0,.005.019c0,.007.007.024.01.035l.007.017a.279.279,0,0,0,.014.034l.009.018.017.03.011.018a.33.33,0,0,0,.02.028l.013.017.022.026.014.015.029.027.01.009h0l2.075,1.746a.542.542,0,0,0,.7-.83l-.94-.8h9.607a.543.543,0,0,1,.542.542V8.327a.542.542,0,0,0,1.084,0V6.187a1.629,1.629,0,0,0-1.626-1.626H17.7l1.03-.94A.542.542,0,1,0,18,2.82L15.938,4.7l-.008.007-.023.024-.015.017-.021.027-.012.017-.022.033-.007.013a.429.429,0,0,0-.024.048h0A.533.533,0,0,0,15.773,5a.072.072,0,0,0,0,.012.434.434,0,0,0-.007.044.2.2,0,0,0,0,.021v.035ZM8.5,11.864a.542.542,0,0,0,.377-.932L6.355,8.493h.271A2.493,2.493,0,0,0,9.054,6.545h.567a.542.542,0,1,0,0-1.084H9.054a2.47,2.47,0,0,0-.376-.867h.943a.542.542,0,1,0,0-1.084H5.015a.542.542,0,1,0,0,1.084H6.626a1.407,1.407,0,0,1,1.3.867H5.015a.542.542,0,0,0,0,1.084H7.923a1.407,1.407,0,0,1-1.3.867H4.957l-.031.005H4.9l-.029.007-.022.006-.033.012L4.8,7.448l-.038.018-.009,0-.03.018-.016.01-.021.015-.022.017-.016.014-.024.022h0l-.011.013L4.592,7.6l-.014.02-.017.023-.014.022-.013.023-.012.024-.011.024L4.5,7.766l-.009.025-.007.025a.168.168,0,0,1-.006.026l0,.028v.056a.14.14,0,0,0,0,.017h0V8a.083.083,0,0,0,0,.03c0,.01,0,.015,0,.022a.238.238,0,0,1,.007.027c0,.009,0,.017.007.025a.094.094,0,0,1,.01.028c0,.009.005.014.008.021a.369.369,0,0,0,.016.035L4.54,8.2l.017.028c0,.006.007.012.01.017l.016.022.017.021.015.017c.007.008.014.016.022.023h0L8.121,11.7a.541.541,0,0,0,.377.166Zm13.284,4.219h7.807a.542.542,0,0,0,.542-.542V13.372a.542.542,0,0,0-.542-.542H21.782a.542.542,0,0,0-.542.542V15.54a.542.542,0,0,0,.542.542Zm.542-2.169h6.722V15H22.325Zm1.018,5.2H20.09a.542.542,0,0,0,0,1.084h3.253a.542.542,0,1,0,0-1.084Zm6.023,8.06h1.012a.578.578,0,0,1,.578.578.542.542,0,0,0,1.084,0,1.663,1.663,0,0,0-1.59-1.663v-.759a.542.542,0,0,0-1.084,0v.759A1.663,1.663,0,0,0,27.7,27.747v1.012a1.663,1.663,0,0,0,1.663,1.663h1.012a.578.578,0,0,1,.578.578v1.012a.578.578,0,0,1-.578.578H29.366a.578.578,0,0,1-.578-.578v-.053a.542.542,0,0,0-1.084,0v.053a1.663,1.663,0,0,0,1.663,1.663v.759a.542.542,0,0,0,1.084,0v-.761a1.663,1.663,0,0,0,1.59-1.663V31a1.663,1.663,0,0,0-1.663-1.663H29.366a.578.578,0,0,1-.578-.578V27.745A.578.578,0,0,1,29.366,27.169ZM13.847,20.193H17.1a.542.542,0,1,0,0-1.084H13.847a.542.542,0,1,0,0,1.084Zm21.136,4.575a7.229,7.229,0,0,0-2-1.415V12.671A2.714,2.714,0,0,0,30.277,9.96H14.055A7.224,7.224,0,1,0,4.2,13.853V24.535a2.714,2.714,0,0,0,2.711,2.711H23.136a7.228,7.228,0,1,0,11.847-2.478ZM2.974,11.669a6.144,6.144,0,1,1,8.689,0,6.143,6.143,0,0,1-8.689,0Zm8.258,2.241v1.965H8.147V14.5a7.181,7.181,0,0,0,2.177-.6.569.569,0,0,0,.1.009ZM6.914,26.162a1.629,1.629,0,0,1-1.626-1.626V14.267a7.239,7.239,0,0,0,1.775.283v1.871a.542.542,0,0,0,.542.542h4.169a.542.542,0,0,0,.542-.542V13.372a.541.541,0,0,0-.352-.506q.241-.2.466-.427a7.255,7.255,0,0,0,1.091-1.394H30.277A1.629,1.629,0,0,1,31.9,12.671V22.939a7.244,7.244,0,0,0-1.771-.283A1.714,1.714,0,0,0,27.76,21.22a1.723,1.723,0,0,0-1.978,2.7,7.335,7.335,0,0,0-2.114,2.245ZM29.045,22.7a7.169,7.169,0,0,0-2.281.651A.639.639,0,0,1,27.1,22.17a.618.618,0,0,1,.355.111.544.544,0,0,0,.617,0,.618.618,0,0,1,.355-.111.634.634,0,0,1,.621.528Zm5.171,11.524a6.144,6.144,0,1,1,1.8-4.344A6.144,6.144,0,0,1,34.216,34.222ZM7.608,20.193h3.253a.542.542,0,1,0,0-1.084H7.608a.542.542,0,0,0,0,1.084Zm6.506,3.253H7.608a.542.542,0,0,0,0,1.084h6.506a.542.542,0,1,0,0-1.084Zm3.253-2.169H7.608a.542.542,0,0,0,0,1.084h9.758a.542.542,0,1,0,0-1.084Z" transform="translate(0 0)" fill="#3c3b41"/>
  </g>
</svg>
