<?xml version="1.0" encoding="utf-8"?>
<!-- Generator: Adobe Illustrator 26.0.1, SVG Export Plug-In . SVG Version: 6.00 Build 0)  -->
<svg version="1.1" id="Layer_1" xmlns="http://www.w3.org/2000/svg" xmlns:xlink="http://www.w3.org/1999/xlink" x="0px" y="0px"
	 viewBox="0 0 512 512" style="enable-background:new 0 0 512 512;" xml:space="preserve">
<style type="text/css">
	.st0{fill-rule:evenodd;clip-rule:evenodd;fill:#F1F1F2;}
	.st1{fill-rule:evenodd;clip-rule:evenodd;fill:#F8951D;}
	.st2{fill-rule:evenodd;clip-rule:evenodd;fill:#968996;}
	.st3{fill-rule:evenodd;clip-rule:evenodd;fill:#CECECE;}
	.st4{fill-rule:evenodd;clip-rule:evenodd;fill:#87D4ED;}
	.st5{fill-rule:evenodd;clip-rule:evenodd;}
</style>
<g>
	<path class="st0" d="M212.6,299.6c-0.1-0.1-0.3-0.3-0.4-0.4l-4.6-5H332c1.6,0,3-1.3,3-3s-1.4-3-3-3H182.7L133.6,239l0.9-1.9
		c1-2.2,1.5-4.6,1.5-7.1c0-4.5-1.7-8.8-4.9-11.9c-3.2-3.2-7.4-4.9-11.9-4.9c-4.5,0-8.8,1.7-12,4.9l-26.7,26.7V54.6
		c0-14.9,12.1-27,27-27H363c14.9,0,27,12.1,27,27v344.8c0,14.9-12.1,27-27,27h-59.1v-11.6c0-1.7-1.3-3-3-3h-22.6v-13.9
		c0-0.3,0-0.6,0-0.9v-3H332c1.7,0,3-1.4,3-3s-1.4-3-3-3h-56.3l-0.9-1.3c-3.7-5.4-9.8-8.7-16.4-8.7H155.8c-11,0-19.9,8.9-19.9,19.9
		v13.9h-22.6c-1.7,0-3,1.3-3,3v11.6l-3.3-0.4c-15.5-1.7-26.4-10-26.4-26.7v-23.2l52.9-52.9l16.1,16.1l-0.9,1.9
		c-2.9,6.4-1.6,14,3.4,19c3.2,3.2,7.4,4.9,12,4.9c4.5,0,8.8-1.8,11.9-4.9l30.4-30.4H332c1.6,0,3-1.3,3-3c0-1.6-1.4-3-3-3H213.4
		l2.3-4.4c1.3-2.5,1.9-5.1,1.9-7.9C217.6,307.1,215.9,302.8,212.6,299.6L212.6,299.6z"/>
	<path class="st1" d="M396,88.2l58.6,7.8c14.8,2,25.2,15.6,23.2,30.3l-45.5,341.8c-2,14.7-15.6,25.2-30.4,23.2l-215.1-28.6l0.4-5.6
		h113.7c1.6,0,3-1.4,3-3v-21.7H363c18.2,0,33-14.8,33-33L396,88.2L396,88.2z"/>
	<path class="st2" d="M51.1,397.2c-2.4,2.3-5.5,3.6-8.8,3.6c-2.9,0-5.6-1-7.8-2.8l-0.5-0.4l-0.3-0.5c-0.2-0.4-0.5-0.8-0.7-1.1
		c-3.9-6-5-10.9,0.5-16.3l78.1-78.2l17.6,17.5L51.1,397.2z"/>
	<path class="st0" d="M321.9,83.1c1.6,23.8,1.2,48.4-3.4,72c-3.5,17.8-9.3,34.9-18.6,50.5c-15.3,25.6-37.1,42.4-63.3,55.8l-1.4,0.7
		l-1.4-0.7c-26.2-13.4-48-30.2-63.3-55.8c-9.3-15.6-15.2-32.7-18.6-50.5c-4.6-23.5-5-48.1-3.4-72l0.2-2.6l2.6-0.2
		c29.9-1.8,57.9-10.7,82.1-28.5l1.8-1.3l1.8,1.3c24.2,17.8,52.2,26.7,82.1,28.5l2.6,0.2L321.9,83.1z"/>
	<path class="st1" d="M327.5,77.3c-0.1-1.5-1.4-2.7-2.9-2.8c-32.1-1-62.1-10.3-87.5-30.2c-1.1-0.8-2.6-0.8-3.7,0
		C208,64.3,178,73.5,145.9,74.6c-1.5,0.1-2.7,1.2-2.9,2.8c-3.6,43-1,89.7,20.7,128c16.4,29,40.6,48.1,70.1,62.8
		c0.4,0.2,0.9,0.3,1.4,0.3c0.4,0,0.9-0.1,1.3-0.3c29.5-14.7,53.7-33.7,70.1-62.8C328.4,167,331,120.3,327.5,77.3L327.5,77.3z"/>
	<path class="st2" d="M180.2,294.1l7,7l-33.7,33.8l-57.7-57.6l33.8-33.8L180.2,294.1L180.2,294.1z"/>
	<path class="st2" d="M193,303.9c2-2,4.8-3.2,7.7-3.2c2.9,0,5.7,1.1,7.7,3.2c2.1,2,3.2,4.8,3.2,7.7s-1.1,5.7-3.2,7.7L171.7,356
		c-2.1,2-4.8,3.1-7.7,3.1c-2.9,0-5.7-1.1-7.7-3.2c-4.2-4.2-4.2-11.2,0-15.4L193,303.9z"/>
	<path class="st0" d="M80.5,324.2v-40.4l2.8-0.2c2.1-0.1,4.2-0.6,6.1-1.5l1.9-0.9l16.1,16L80.5,324.2z"/>
	<path class="st2" d="M90.2,274.5c-4.2,4.2-11.2,4.3-15.4,0c-4.2-4.2-4.2-11.2,0-15.4l36.8-36.7c2.1-2.1,4.8-3.2,7.7-3.2
		c2.9,0,5.6,1.1,7.7,3.2c2.1,2.1,3.2,4.8,3.2,7.7c0,2.9-1.1,5.7-3.2,7.7L90.2,274.5z"/>
	<path class="st0" d="M233.9,230.6c-18.4-9.5-33.6-21.5-44.4-39.6c-6.5-11-10.7-23-13.1-35.5c-3.2-16.4-3.6-33.6-2.6-50.2l0.2-2.6
		l2.6-0.2c20.6-1.5,40-7.7,56.9-19.8l1.8-1.2l1.8,1.2c16.9,12.1,36.2,18.3,56.9,19.8l2.6,0.2l0.2,2.6c1.1,16.7,0.7,33.8-2.6,50.2
		C291.7,168,287.6,180,281,191c-10.8,18.1-25.9,30-44.4,39.6l-1.4,0.7L233.9,230.6z"/>
	<path class="st3" d="M302.4,99.5c-0.1-1.5-1.4-2.7-2.9-2.8c-23.1-0.8-44-7.2-62.3-21.5c-1.1-0.8-2.6-0.8-3.7,0
		c-18.3,14.3-39.2,20.8-62.3,21.5c-1.5,0.1-2.8,1.2-2.9,2.8c-1.6,18.9-1.4,38.5,2.3,57.2c2.7,13.8,7.4,27,14.8,39
		c11.9,19.2,28.6,31.7,48.5,41.6c0.4,0.2,0.9,0.3,1.4,0.3c0.4,0,0.9-0.1,1.3-0.3c19.9-9.9,36.6-22.4,48.6-41.6
		c7.4-12,12.1-25.2,14.9-39C303.7,138,303.9,118.4,302.4,99.5L302.4,99.5z"/>
	<path class="st4" d="M116.3,417.8h181.7v33.3H116.3L116.3,417.8z"/>
	<path class="st4" d="M141.9,411.8v-13.9c0-7.7,6.2-13.9,13.9-13.9h102.6c7.7,0,13.9,6.2,13.9,13.9v13.9H141.9z"/>
	<path class="st5" d="M258.1,362.6c0-3.3,2.7-6,6-6H332c3.3,0,6,2.7,6,6c0,3.3-2.7,6-6,6h-67.9C260.8,368.6,258.1,365.9,258.1,362.6
		z M269.5,132.7c2.4,2.3,2.4,6.1,0,8.5l-38.3,38.3c-1.1,1.2-2.7,1.8-4.2,1.8c-1.6,0-3.1-0.6-4.2-1.8L201,157.7
		c-2.3-2.3-2.3-6.1,0-8.5c2.4-2.3,6.2-2.3,8.5,0l17.6,17.6l34-34C263.4,130.4,267.2,130.4,269.5,132.7L269.5,132.7z M235.3,227.9
		c32.3-16.7,63.4-45,58.5-122.4c-22.2-1.6-41.8-8.4-58.5-20.4c-16.7,11.9-36.3,18.8-58.5,20.4C171.9,182.9,203,211.2,235.3,227.9
		L235.3,227.9z M299.5,93.7c-23.8-0.8-43.6-7.6-60.6-20.9c-2.2-1.7-5.2-1.7-7.4,0c-16.9,13.3-36.8,20.1-60.6,20.9
		c-3.1,0.1-5.6,2.5-5.8,5.5c-7.5,91.3,32.1,123.2,67.4,140.8c0.9,0.4,1.8,0.6,2.7,0.6c0.9,0,1.8-0.2,2.6-0.6
		c35.3-17.6,74.9-49.5,67.4-140.8C305.1,96.2,302.6,93.8,299.5,93.7z M235.3,258.7c46.3-23.7,91.4-63.8,83.7-175.4
		c-31.9-1.9-60-11.7-83.7-29c-23.7,17.4-51.8,27.1-83.7,29C143.9,195,189,235.1,235.3,258.7z M324.7,71.6c-33.2-1.1-62-11-85.8-29.6
		c-2.2-1.7-5.2-1.7-7.4,0c-23.7,18.5-52.5,28.5-85.8,29.6c-3,0.1-5.5,2.5-5.8,5.5c-4.5,54.3,2.4,96.7,21.1,129.8
		c15.3,27,38,47.3,71.4,64c0.9,0.4,1.8,0.6,2.7,0.6c0.9,0,1.8-0.2,2.6-0.6c33.5-16.7,56.1-37,71.4-64c18.7-33,25.6-75.5,21.1-129.8
		C330.2,74,327.8,71.7,324.7,71.6z M474.8,126c1.8-13.1-7.5-25.2-20.6-27L399,91.6v307.8c0,19.9-16.2,36-36,36h-56.1v18.7
		c0,3.3-2.7,6-6,6H190l212.3,28.3c13.1,1.8,25.2-7.5,27-20.6L474.8,126z M119.3,420.8h175.7v27.3H119.3V420.8z M269.3,397.9v10.9
		H144.9v-10.9c0-6,4.9-10.9,10.9-10.9h102.6C264.4,387,269.3,391.9,269.3,397.9z M107.3,414.8c0-3.3,2.7-6,6-6h19.6v-10.9
		c0-12.6,10.3-22.9,22.9-22.9h102.6c7.8,0,14.8,4,18.9,10H332c3.3,0,6,2.7,6,6c0,3.3-2.7,6-6,6h-50.7v0.9v10.9h19.6c3.3,0,6,2.7,6,6
		v8.6H363c13.2,0,24-10.8,24-24V54.6c0-13.2-10.8-24-24-24H107.6c-13.2,0-24,10.8-24,24v182.9l21.6-21.6c3.8-3.8,8.7-5.8,14.1-5.8
		c5.3,0,10.3,2.1,14.1,5.8c3.8,3.8,5.8,8.7,5.8,14.1c0,2.9-0.6,5.7-1.8,8.3l46.8,46.8h148c3.3,0,6,2.7,6,6s-2.7,6-6,6H214.4
		c0.1,0.1,0.3,0.2,0.4,0.4c3.8,3.8,5.8,8.7,5.8,14.1c0,3.3-0.8,6.5-2.2,9.3H332c3.3,0,6,2.7,6,6c0,3.3-2.7,6-6,6H207.6L178,362.4
		c-3.7,3.7-8.7,5.8-14.1,5.8c-5.4,0-10.3-2.1-14.1-5.8c-6-6-7.4-15-4-22.4l-12.5-12.5l-49.9,49.9v22c0,17.4,13,22.5,23.7,23.7
		L107.3,414.8z M49,395.1c-1.8,1.8-4.1,2.7-6.7,2.7c-2.2,0-4.2-0.7-5.9-2.1c-0.2-0.5-0.6-0.9-0.9-1.4c-3.3-5-4.1-8.3,0.1-12.6l76-76
		l13.3,13.3L49,395.1z M83.5,286.6c2.5-0.1,4.9-0.7,7.2-1.8l12.5,12.5L83.5,317V286.6z M124.7,235.6L88,272.4
		c-3.1,3.1-8.1,3.1-11.2,0s-3.1-8.1,0-11.2l36.8-36.7c1.5-1.5,3.5-2.3,5.6-2.3c2.1,0,4.1,0.8,5.6,2.3c1.5,1.5,2.3,3.5,2.3,5.6
		C127,232.2,126.3,234.1,124.7,235.6z M177.3,295.4L177.3,295.4l5.8,5.8l-29.5,29.5l-53.4-53.4l29.5-29.5L177.3,295.4z M206.3,317.2
		l-36.7,36.7c-1.5,1.5-3.5,2.3-5.6,2.3s-4.1-0.8-5.6-2.3c-3.1-3.1-3.1-8.1,0-11.2l36.8-36.7c1.6-1.5,3.6-2.3,5.6-2.3
		c2,0,4.1,0.8,5.6,2.3c1.5,1.5,2.3,3.5,2.3,5.6S207.8,315.7,206.3,317.2L206.3,317.2z M455.8,87.1L399,79.5V54.6
		c0-19.9-16.2-36-36-36H107.6c-19.8,0-36,16.1-36,36v194.9l-3.2,3.2c-3.7,3.8-5.8,8.8-5.8,14.1s2.1,10.3,5.8,14.1
		c1,1,2.1,1.9,3.2,2.6v45.5l-44.4,44.4c-7.9,7.9-8.5,17.2-1.7,27.6c0.1,0.2,0.2,0.3,0.3,0.5c0.3,0.8,0.7,1.5,1.4,2.2
		c4,4,9.4,6.2,15.1,6.2s11.1-2.2,15.1-6.2l14.1-14.1v10c0,20.4,13.6,33.7,35.7,35.7v18.9c0,3.3,2.7,6,6,6h18.1
		c4.8,3.4,10.3,5.7,16.2,6.4l253.2,33.7c1.6,0.2,3.2,0.3,4.8,0.3c17.8,0,33.3-13.2,35.7-31.3l45.6-341.8
		C489.4,107.9,475.5,89.7,455.8,87.1L455.8,87.1z"/>
</g>
</svg>
