<?xml version="1.0" encoding="utf-8"?>
<!-- Generator: Adobe Illustrator 26.0.1, SVG Export Plug-In . SVG Version: 6.00 Build 0)  -->
<svg version="1.1" id="Layer_1" xmlns="http://www.w3.org/2000/svg" xmlns:xlink="http://www.w3.org/1999/xlink" x="0px" y="0px"
	 viewBox="0 0 512 512" style="enable-background:new 0 0 512 512;" xml:space="preserve">
<style type="text/css">
	.st0{display:none;}
	.st1{display:inline;}
	.st2{fill:#CDD5D7;}
	.st3{fill:#F8951D;}
	.st4{fill:#FFFFFF;}
	.st5{fill:#282D33;}
	.st6{fill:#5EB4E7;}
</style>
<g id="Layer_3" class="st0">
	<g class="st1">
		<g>
			<g>
				<g>
					<path class="st2" d="M-47.6-58.6h616.9v616.9H-47.6L-47.6-58.6z"/>
				</g>
			</g>
		</g>
	</g>
</g>
<g id="Layer_4">
	<g>
		<g>
			<g>
				<g>
					<g>
						<path class="st3" d="M424.4,87.4V47.3c0-20.6,16.4-37,37-37s37,16.4,37,37v40.1H424.4z"/>
						<path class="st3" d="M508.7,97.7h-94.6V47.3c0-26.2,21.1-47.3,47.3-47.3s47.3,21.1,47.3,47.3L508.7,97.7z M434.6,77.1h52.9
							V47.3c0-14.4-11.8-26.7-26.7-26.7s-26.7,11.8-26.7,26.7v29.8H434.6z"/>
					</g>
					<g>
						<path class="st4" d="M424.4,47.3v411.8v6.2c0,19-14.4,34.4-32.9,36.5c-10.3,0-326.4,0-342.9,0c18.5-2.1,32.4-17.5,32.4-36.5
							V457V47.3c0-19,14.4-34.4,32.4-36.5h342.9C438.7,12.9,424.4,28.3,424.4,47.3L424.4,47.3z"/>
						<path class="st5" d="M392.5,512H143.2c-49.9,0-88.4,0-94.1,0l-1-20.6c13.4-1.5,23.6-12.9,23.6-26.2V47.3
							c0-24.2,18-44.2,41.6-46.8h1h248.8h94.1l1,20.6c-13.4,1.5-23.6,12.9-23.6,26.2v422c-2.1,22.1-19,40.1-41.6,42.7H392.5z
							 M142.7,491.4h248.3c13.4-1.5,23.1-12.9,23.1-26.2l-0.5-16.4h0.5V47.3c0-9.8,3.1-18.5,8.2-26.2c-15.9,0-36.5,0-59.1,0H114.9
							C102,22.6,91.8,33.9,91.8,47.3v420c-0.5,8.7-3.1,17.5-7.7,24.2H142.7z"/>
					</g>
					<g>
						<path class="st3" d="M356.5,446.7v18.5c0,19,14.4,34.4,32.4,36.5c-16.4,0-332.6,0-342.9,0c-18-2.1-32.4-17.5-32.4-36.5v-18.5
							H356.5z"/>
						<path class="st3" d="M46,512h-1c-23.6-3.1-41.6-23.1-41.6-46.8v-28.8h363.4v28.8c0,13.4,10.3,24.7,23.6,26.2l-1,20.6
							c-5.7,0-44.2,0-94.1,0H46z M23.9,457v8.2c0,13.4,9.8,24.7,23.1,26.2h248.3h59.1c-5.1-7.7-8.2-16.4-8.2-26.2V457H23.9z"/>
					</g>
					<g>
						<path class="st5" d="M508.7,98.7h-20.6V47.3c0-14.4-11.8-26.7-26.7-26.7c-14.9,0-26.7,11.8-26.7,26.7h-20.6
							c0-26.2,21.1-47.3,47.3-47.3c26.2,0,47.3,21.1,47.3,47.3V98.7z"/>
					</g>
					<g>
						<path class="st5" d="M390.9,512c-23.6,0-44.7-22.1-44.7-46.8v-29.8h20.6v29.8c0,13.4,12.3,26.2,24.2,26.2V512z"/>
					</g>
				</g>
			</g>
		</g>
		<g>
			<path class="st6" d="M347.5,423.1l-23.4-16.4l-23.8,16.4v-65h23.8h23.4V423.1z"/>
			<g>
				<path class="st3" d="M371.3,349.7c0,2.3-4.2,4.7-4.7,6.5c-0.5,2.3,3.3,5.6,2.3,7.9s-5.6,2.8-6.5,5.1s1.4,6.5,0,8.4
					s-6.1,0.9-7.9,2.8c-1.9,1.9-0.9,6.5-2.8,7.9s-6.1-0.9-8.4,0s-2.8,6.1-5.1,6.5c-2.3,0.9-5.6-2.8-7.9-2.3
					c-2.3,0.5-4.2,4.7-6.5,4.7s-4.7-4.2-6.5-4.7c-2.3-0.5-5.6,3.3-7.9,2.3s-2.8-5.6-5.1-6.5s-6.5,1.4-8.4,0
					c-1.9-1.4-0.9-6.1-2.8-7.9c-1.9-1.9-6.5-0.9-7.9-2.8c-1.4-1.9,0.9-6.1,0-8.4c-0.9-1.9-6.1-2.8-6.5-5.1c-0.9-2.3,2.8-5.6,2.3-7.9
					s-4.7-4.2-4.7-6.5s4.2-4.7,4.7-7s-3.3-5.6-2.3-7.9c0.9-2.3,5.6-2.8,6.5-5.1c0.9-2.3-1.4-6.5,0-8.4c1.4-1.9,6.1-0.9,7.9-2.8
					c1.9-1.9,0.9-6.5,2.8-7.9c1.9-1.4,6.1,0.9,8.4,0c1.9-0.9,2.8-6.1,5.1-6.5c2.3-0.9,5.6,2.8,7.9,2.3s4.2-4.7,6.5-4.7
					s4.7,4.2,6.5,4.7c2.3,0.5,5.6-3.3,7.9-2.3c2.3,0.9,2.8,5.6,5.1,6.5c2.3,0.9,6.5-1.4,8.4,0c1.9,1.4,0.9,6.1,2.8,7.9
					s6.5,0.9,7.9,2.8c1.4,1.9-0.9,6.1,0,8.4c0.9,2.3,6.1,2.8,6.5,5.1c0.9,2.3-2.8,5.6-2.3,7.9S371.3,347.4,371.3,349.7z"/>
				<path class="st4" d="M344.7,349.7c0,11.7-9.3,21-21,21c-11.7,0-21-9.3-21-21c0-11.7,9.3-21,21-21
					C335.3,328.7,344.7,338,344.7,349.7z"/>
			</g>
		</g>
		<g>
			<g>
				<path class="st6" d="M179.7,116.9h132.6v20.6H179.7V116.9z"/>
			</g>
			<g>
				<path class="st5" d="M133.9,168.8H357v20.6H133.9L133.9,168.8z"/>
			</g>
			<g>
				<path class="st5" d="M133.9,219.2H357v20.6H133.9L133.9,219.2z"/>
			</g>
			<g>
				<path class="st5" d="M133.9,270.1H357v20.6H133.9L133.9,270.1z"/>
			</g>
			<g>
				<path class="st5" d="M133.9,321h132.6v20.6H133.9V321z"/>
			</g>
			<g>
				<path class="st6" d="M133.9,371.9h87.9v20.6h-87.9V371.9z"/>
			</g>
		</g>
		<g>
			<polygon points="116,62.8 122.6,62.8 122.6,82.1 129.5,82.1 129.5,62.8 136.1,62.8 136.1,57.3 116,57.3 			"/>
			<path d="M157.4,69.7c0.9-1.3,1.4-2.8,1.4-4.5c0-1.5-0.4-2.9-1.1-4.1c-0.7-1.2-1.7-2.2-3.1-2.8c-1.4-0.7-3.1-1-5.1-1h-10.9v24.8
				h6.9v-9.1h0.7l4.9,9.1h7.7l-5.6-9.7C155.1,71.9,156.5,71,157.4,69.7z M151.1,67.6c-0.5,0.4-1.2,0.7-2.1,0.7h-3.4v-5.2h3.4
				c0.9,0,1.6,0.2,2.1,0.7c0.5,0.5,0.7,1.1,0.7,1.9C151.8,66.5,151.5,67.1,151.1,67.6z"/>
			<path d="M169.3,57.3l-9,24.8h7.2l1.3-4h8.8l1.3,4h7.3l-9-24.8H169.3z M170.6,72.8l2.6-8l2.7,8H170.6z"/>
			<path d="M205.1,58.9c-2-1-4.2-1.6-6.8-1.6h-9.8v24.8h9.8c2.6,0,4.8-0.5,6.8-1.6c2-1.1,3.5-2.5,4.5-4.4c1.1-1.9,1.6-4,1.6-6.4
				c0-2.4-0.5-4.6-1.6-6.4C208.6,61.4,207.1,59.9,205.1,58.9z M202.5,74.4c-1.1,1.1-2.7,1.7-4.7,1.7h-2.4V63.3h2.4
				c2,0,3.6,0.6,4.7,1.7c1.1,1.1,1.7,2.7,1.7,4.7C204.2,71.7,203.6,73.3,202.5,74.4z"/>
			<polygon points="214.3,82.1 230.2,82.1 230.2,76.6 221.2,76.6 221.2,72.1 229.1,72.1 229.1,66.9 221.2,66.9 221.2,62.8 
				230.2,62.8 230.2,57.3 214.3,57.3 			"/>
			<polygon points="247.2,57.3 240.3,57.3 240.3,82.1 254.9,82.1 254.9,76.8 247.2,76.8 			"/>
			<rect x="257.6" y="57.3" width="6.9" height="24.8"/>
			<path d="M279.8,63.4c1,0,1.9,0.2,2.7,0.7c0.8,0.5,1.4,1.2,1.8,2.1h7.4c-0.6-2.8-2-5.1-4.1-6.7c-2.1-1.7-4.7-2.5-7.8-2.5
				c-2.4,0-4.6,0.5-6.5,1.6c-1.9,1.1-3.3,2.6-4.3,4.5c-1,1.9-1.5,4.1-1.5,6.5c0,2.5,0.5,4.6,1.5,6.6c1,1.9,2.5,3.4,4.3,4.5
				c1.9,1.1,4,1.6,6.5,1.6c3.1,0,5.7-0.8,7.8-2.5c2.1-1.7,3.5-3.9,4.1-6.7h-7.4c-0.4,0.9-1.1,1.7-1.8,2.1c-0.8,0.5-1.7,0.7-2.7,0.7
				c-1.6,0-2.9-0.6-3.8-1.7c-1-1.1-1.4-2.7-1.4-4.6c0-1.9,0.5-3.4,1.4-4.6C276.9,63.9,278.2,63.4,279.8,63.4z"/>
			<polygon points="295.1,82.1 310.9,82.1 310.9,76.6 302,76.6 302,72.1 309.9,72.1 309.9,66.9 302,66.9 302,62.8 310.9,62.8 
				310.9,57.3 295.1,57.3 			"/>
			<polygon points="330.4,71.3 321.3,57.3 314.4,57.3 314.4,82.1 321.3,82.1 321.3,68.2 330.4,82.1 337.3,82.1 337.3,57.3 
				330.4,57.3 			"/>
			<path d="M352.7,63.4c1,0,1.9,0.2,2.7,0.7c0.8,0.5,1.4,1.2,1.8,2.1h7.4c-0.6-2.8-2-5.1-4.1-6.7c-2.1-1.7-4.7-2.5-7.8-2.5
				c-2.4,0-4.6,0.5-6.5,1.6c-1.9,1.1-3.3,2.6-4.3,4.5c-1,1.9-1.5,4.1-1.5,6.5c0,2.5,0.5,4.6,1.5,6.6c1,1.9,2.5,3.4,4.3,4.5
				c1.9,1.1,4,1.6,6.5,1.6c3.1,0,5.7-0.8,7.8-2.5c2.1-1.7,3.5-3.9,4.1-6.7h-7.4c-0.4,0.9-1.1,1.7-1.8,2.1c-0.8,0.5-1.7,0.7-2.7,0.7
				c-1.6,0-2.9-0.6-3.8-1.7c-1-1.1-1.4-2.7-1.4-4.6c0-1.9,0.5-3.4,1.4-4.6C349.8,63.9,351.1,63.4,352.7,63.4z"/>
			<polygon points="383.8,62.8 383.8,57.3 367.9,57.3 367.9,82.1 383.8,82.1 383.8,76.6 374.8,76.6 374.8,72.1 382.7,72.1 
				382.7,66.9 374.8,66.9 374.8,62.8 			"/>
		</g>
	</g>
</g>
</svg>
