<?xml version="1.0" encoding="utf-8"?>
<!-- Generator: Adobe Illustrator 26.0.1, SVG Export Plug-In . SVG Version: 6.00 Build 0)  -->
<svg version="1.1" id="Capa_1" xmlns="http://www.w3.org/2000/svg" xmlns:xlink="http://www.w3.org/1999/xlink" x="0px" y="0px"
	 viewBox="0 0 512 512" style="enable-background:new 0 0 512 512;" xml:space="preserve">
<style type="text/css">
	.st0{fill:#F2F2FB;}
	.st1{fill:#D9D9FB;}
	.st2{fill:#8A94FF;}
	.st3{fill:#6576EF;}
	.st4{fill:#FB7A6E;}
	.st5{fill:#FA5C5C;}
	.st6{fill:#5E566F;}
	.st7{fill:#4B455B;}
	.st8{fill:#F8951D;}
	.st9{fill:#F7751E;}
	.st10{fill:#B8C6FB;}
	.st11{fill:none;stroke:#000000;stroke-width:15;stroke-linecap:round;stroke-linejoin:round;stroke-miterlimit:10;}
</style>
<g>
	<g>
		<path class="st0" d="M414.1,149.8V67.7c0-33.3-27-60.2-60.2-60.2h-77c-143.4,18.2-136.7,435.2,5.8,465.7l131.4-39v-88.1
			l-19.6-78.3L414.1,149.8z"/>
		<path class="st1" d="M414.1,149.8c-19.3,30.3-73.5,114.6-76.5,120.3c-7.1,13.3-11.3,28.3-12,43.4l-1.5,30
			c-0.9,17.6,13.2,32.4,30.8,32.4c0,0,0,0,0,0c5,0,9.9-1.2,14.3-3.5l26.7-14c6.5-3.4,12.6-7.6,18.3-12.3
			C414.1,344.1,414.1,155.8,414.1,149.8z"/>
		<path class="st1" d="M233.6,213.3c3-77.4,18.8-148.5,43.3-205.8H52.7v60.2L97.9,128c0,114.2,0,317.9,0,323.8
			c0,29.1,23.6,52.7,52.7,52.7h26.6l105.5-31.3C248.9,407.6,229.7,315.1,233.6,213.3z"/>
		<path class="st2" d="M467.3,225.1l20.3-31.7c8.2-12.9-6.3-29.5-22.3-36.4c-16.2-10.4-56.6,52.8-40.4,63.2
			C437.9,231.8,459.1,238,467.3,225.1z"/>
		<path class="st3" d="M465.3,157c-11-4.7-22.8-4.9-28.4,4l-20.3,31.7c-5.7,8.9-0.6,19.5,8.3,27.5
			C435.4,203.7,465.2,157.1,465.3,157z"/>
		<path class="st4" d="M499.8,174.3c8.2-12.8,5.5-29.3-5.6-38.9c-16.7-9-26.2-2.4-31.6,6.2l-12.2,19l4.9,12.1l32.4,20.7L499.8,174.3
			z"/>
		<path class="st5" d="M458,168.3l12.2-19c5.5-8.6,14.5-13.4,24-13.9c-1.1-1-2.3-1.9-3.6-2.7c-14-9-32.6-4.9-41.6,9.2l-12.2,19
			l18.4,11.8C457,169.9,458,168.3,458,168.3L458,168.3z"/>
		<path class="st6" d="M410.1,314.1c13.5-21.1,1.3-41.1-15.6-46.4c-16.5,2.4-21.5,14.2-25.6,21.5c-5.4,10.1-8.6,21.3-9.1,32.8
			c-0.8,18.9,3.9,23.1,11,21.1l13.4-7C394.4,330.8,403.2,323.3,410.1,314.1z"/>
		<path class="st7" d="M381,289.3L381,289.3c0.5-0.9,5.9-9.4,13.5-21.5c-11.6-3.6-25.5-0.4-34.7,14.2c-5.4,10.1-8.6,21.3-9.1,32.8
			l-1.5,30c-0.2,4.4,4.5,7.4,8.4,5.4l13.2-6.9l1-21.1C372.4,310.6,375.5,299.4,381,289.3z"/>
		<path class="st8" d="M410.1,314.1c3.3-4.3,0.7-0.8,57.2-89l-32.4-20.7c-14.1-9-67,74.1-52.9,83.1C394,293,403.9,302.3,410.1,314.1
			z"/>
		<path class="st9" d="M416.6,192.6c-0.1,0.1-54.8,85.5-56.8,89.3c7.8,0.4,15.4,2.3,22.3,5.5c5.9-9.5,32.7-51.6,52.9-83.1
			L416.6,192.6z"/>
		<path class="st1" d="M489.4,419.2c0-11.1-9-20.1-20.1-20.1c-9.7,0-183.3,0-215.3,0c-60.3,18.1-28,105.4,47.4,105.4h102.7
			C451.2,504.5,489.4,466.3,489.4,419.2z"/>
		<path class="st10" d="M249.6,399.1c-25.6,0-46.4,20.8-46.4,46.4v6.4c0,29.1-23.6,52.7-52.7,52.7h150.8
			c-19.5-28.2-35.7-64.1-47.4-105.4C251.9,399.1,250.4,399.1,249.6,399.1z"/>
		<path class="st10" d="M97.9,128H70.1c-34.6,0-62.6-28-62.6-62.6V52.7c0-25,20.2-45.2,45.2-45.2c25,0,45.2,20.2,45.2,45.2
			C97.9,64.4,97.9,119.9,97.9,128z"/>
		<line class="st11" x1="334.5" y1="504.5" x2="150.6" y2="504.5"/>
		<line class="st11" x1="97.9" y1="178.9" x2="97.9" y2="128"/>
		<path class="st11" d="M97.9,214v237.8c0,29.1,23.6,52.7,52.7,52.7c14.6,0,27.7-5.9,37.3-15.4c18.8-18.8,15-40.8,15.4-43.6
			c0-25.6,20.8-46.4,46.4-46.4c13,0,209.4,0,219.7,0c11.1,0,20.1,9,20.1,20.1c0,47.1-38.2,85.3-85.3,85.3h-34.5"/>
		<path class="st11" d="M97.9,128c0-8.1,0-63.6,0-75.3c0-25-20.2-45.2-45.2-45.2c-25,0-45.2,20.2-45.2,45.2v12.7
			c0,34.6,28,62.6,62.6,62.6H97.9z"/>
		<line class="st11" x1="414.1" y1="399.1" x2="414.1" y2="308.3"/>
		<path class="st11" d="M52.7,7.5h301.2c33.3,0,60.2,27,60.2,60.2v128.7"/>
		<polyline class="st11" points="146.8,52.7 146.8,112.9 176.9,75.3 207.1,112.9 207.1,52.7 		"/>
		<line class="st11" x1="244.7" y1="52.7" x2="244.7" y2="112.9"/>
		<polyline class="st11" points="282.4,52.7 282.4,112.9 304.9,112.9 		"/>
		<polyline class="st11" points="342.6,52.7 342.6,112.9 365.2,112.9 		"/>
		<path class="st11" d="M198.1,333.3c12.9-3.7,18.2-14.7,18.2-29.3"/>
		<path class="st11" d="M198.1,333.3c-12.5-10-22.9-14.1-31.3-15c-22.8-2.2-28,31.6-5.6,36C171.4,356.4,184,352.3,198.1,333.3z"/>
		<path class="st11" d="M268.2,334.6c0,0-44.8,19.6-68.4,0c-0.6-0.5-1.1-0.9-1.7-1.3"/>
		<path class="st11" d="M384.2,336.2l-35.5,18.6l2-40.1c0.7-13.9,5.1-26.9,12.1-37.9c12.7-19.8,77-120.5,86.2-134.9
			c9-14,27.6-18.1,41.6-9.2c14,8.9,18.1,27.6,9.2,41.6c-37.5,58.7-12.5,19.6-86.2,134.9C412.5,310.9,396.3,329.8,384.2,336.2z"/>
		<line class="st11" x1="436.8" y1="160.9" x2="487.6" y2="193.4"/>
		<line class="st11" x1="416.6" y1="192.6" x2="467.3" y2="225.1"/>
		<path class="st11" d="M359.8,281.9c1,0.2,14.7,0,29.5,9.4c9.2,5.9,16.2,13.8,20.9,22.8"/>
		<line class="st11" x1="361.4" y1="158.1" x2="150.6" y2="158.1"/>
		<line class="st11" x1="361.4" y1="203.3" x2="150.6" y2="203.3"/>
		<line class="st11" x1="301.2" y1="248.5" x2="150.6" y2="248.5"/>
	</g>
</g>
</svg>
